<?xml version="1.0" encoding="UTF-8" standalone="no"?><svg xmlns="http://www.w3.org/2000/svg" xmlns:xlink="http://www.w3.org/1999/xlink" contentStyleType="text/css" height="1886px" preserveAspectRatio="none" style="width:1549px;height:1886px;background:#FFFFFF;" version="1.1" viewBox="0 0 1549 1886" width="1549px" zoomAndPan="magnify"><defs/><g><!--cluster Persistence --><g id="cluster_Persistence "><path d="M491.5,472.8945 L609.5,472.8945 A3.75,3.75 0 0 1 612,475.3945 L619,504.0508 L924.5,504.0508 A2.5,2.5 0 0 1 927,506.5508 L927,606.3945 A2.5,2.5 0 0 1 924.5,608.8945 L491.5,608.8945 A2.5,2.5 0 0 1 489,606.3945 L489,475.3945 A2.5,2.5 0 0 1 491.5,472.8945 " fill="#DDDDDD" style="stroke:#000000;stroke-width:1.5;"/><line style="stroke:#000000;stroke-width:1.5;" x1="489" x2="619" y1="504.0508" y2="504.0508"/><text fill="#000000" font-family="sans-serif" font-size="20" font-weight="bold" lengthAdjust="spacing" textLength="111" x="493" y="495.6563">Persistence</text></g><!--cluster persistence.impl.jpa--><g id="cluster_persistence.impl.jpa"><path d="M401.5,641.8945 L591.5,641.8945 A3.75,3.75 0 0 1 594,644.3945 L601,673.0508 L746.5,673.0508 A2.5,2.5 0 0 1 749,675.5508 L749,993.3945 A2.5,2.5 0 0 1 746.5,995.8945 L401.5,995.8945 A2.5,2.5 0 0 1 399,993.3945 L399,644.3945 A2.5,2.5 0 0 1 401.5,641.8945 " fill="#DDDDDD" style="stroke:#000000;stroke-width:1.5;"/><line style="stroke:#000000;stroke-width:1.5;" x1="399" x2="601" y1="673.0508" y2="673.0508"/><text fill="#000000" font-family="sans-serif" font-size="20" font-weight="bold" lengthAdjust="spacing" textLength="189" x="403" y="664.6563">persistence.impl.jpa</text></g><!--cluster persistence.impl.inmemory--><g id="cluster_persistence.impl.inmemory"><path d="M775.5,859.8945 L1030.5,859.8945 A3.75,3.75 0 0 1 1033,862.3945 L1040,891.0508 L1120.5,891.0508 A2.5,2.5 0 0 1 1123,893.5508 L1123,1130.3945 A2.5,2.5 0 0 1 1120.5,1132.8945 L775.5,1132.8945 A2.5,2.5 0 0 1 773,1130.3945 L773,862.3945 A2.5,2.5 0 0 1 775.5,859.8945 " fill="#DDDDDD" style="stroke:#000000;stroke-width:1.5;"/><line style="stroke:#000000;stroke-width:1.5;" x1="773" x2="1040" y1="891.0508" y2="891.0508"/><text fill="#000000" font-family="sans-serif" font-size="20" font-weight="bold" lengthAdjust="spacing" textLength="254" x="777" y="882.6563">persistence.impl.inmemory</text></g><!--cluster Domain--><g id="cluster_Domain"><path d="M218.5,1165.8945 L290.5,1165.8945 A3.75,3.75 0 0 1 293,1168.3945 L300,1197.0508 L675.5,1197.0508 A2.5,2.5 0 0 1 678,1199.5508 L678,1877.3945 A2.5,2.5 0 0 1 675.5,1879.8945 L218.5,1879.8945 A2.5,2.5 0 0 1 216,1877.3945 L216,1168.3945 A2.5,2.5 0 0 1 218.5,1165.8945 " fill="#DDDDDD" style="stroke:#000000;stroke-width:1.5;"/><line style="stroke:#000000;stroke-width:1.5;" x1="216" x2="300" y1="1197.0508" y2="1197.0508"/><text fill="#000000" font-family="sans-serif" font-size="20" font-weight="bold" lengthAdjust="spacing" textLength="71" x="220" y="1188.6563">Domain</text></g><!--cluster Repository --><g id="cluster_Repository "><path d="M242.5,1217.8945 L352.5,1217.8945 A3.75,3.75 0 0 1 355,1220.3945 L362,1249.0508 L651.5,1249.0508 A2.5,2.5 0 0 1 654,1251.5508 L654,1488.3945 A2.5,2.5 0 0 1 651.5,1490.8945 L242.5,1490.8945 A2.5,2.5 0 0 1 240,1488.3945 L240,1220.3945 A2.5,2.5 0 0 1 242.5,1217.8945 " fill="#DDDDDD" style="stroke:#000000;stroke-width:1.5;"/><line style="stroke:#000000;stroke-width:1.5;" x1="240" x2="362" y1="1249.0508" y2="1249.0508"/><text fill="#000000" font-family="sans-serif" font-size="20" font-weight="bold" lengthAdjust="spacing" textLength="103" x="244" y="1240.6563">Repository</text></g><!--cluster UI--><g id="cluster_UI"><path d="M720.5,6.8945 L740.5,6.8945 A3.75,3.75 0 0 1 743,9.3945 L750,38.0508 L1097.5,38.0508 A2.5,2.5 0 0 1 1100,40.5508 L1100,191.3945 A2.5,2.5 0 0 1 1097.5,193.8945 L720.5,193.8945 A2.5,2.5 0 0 1 718,191.3945 L718,9.3945 A2.5,2.5 0 0 1 720.5,6.8945 " fill="#DDDDDD" style="stroke:#000000;stroke-width:1.5;"/><line style="stroke:#000000;stroke-width:1.5;" x1="718" x2="750" y1="38.0508" y2="38.0508"/><text fill="#000000" font-family="sans-serif" font-size="20" font-weight="bold" lengthAdjust="spacing" textLength="19" x="722" y="29.6563">UI</text></g><!--cluster Controller--><g id="cluster_Controller"><path d="M720.5,226.8945 L815.5,226.8945 A3.75,3.75 0 0 1 818,229.3945 L825,258.0508 L1097.5,258.0508 A2.5,2.5 0 0 1 1100,260.5508 L1100,411.3945 A2.5,2.5 0 0 1 1097.5,413.8945 L720.5,413.8945 A2.5,2.5 0 0 1 718,411.3945 L718,229.3945 A2.5,2.5 0 0 1 720.5,226.8945 " fill="#DDDDDD" style="stroke:#000000;stroke-width:1.5;"/><line style="stroke:#000000;stroke-width:1.5;" x1="718" x2="825" y1="258.0508" y2="258.0508"/><text fill="#000000" font-family="sans-serif" font-size="20" font-weight="bold" lengthAdjust="spacing" textLength="94" x="722" y="249.6563">Controller</text></g><!--class PersistenceContext--><g id="elem_PersistenceContext"><rect codeLine="4" fill="#F1F1F1" height="76.3125" id="PersistenceContext" rx="2.5" ry="2.5" style="stroke:#181818;stroke-width:0.5;" width="405" x="505.5" y="516.8945"/><ellipse cx="618.5" cy="534.4727" fill="#ADD1B2" rx="12" ry="12" style="stroke:#181818;stroke-width:1.0;"/><path d="M620.6406,529.3945 Q620.8281,529.1445 621.0469,529.0195 Q621.2656,528.8789 621.5156,528.8789 Q621.9531,528.8789 622.2344,529.1914 Q622.5156,529.4883 622.5156,530.207 L622.5156,531.9102 Q622.5156,532.6289 622.2344,532.9414 Q621.9531,533.2539 621.5156,533.2539 Q621.125,533.2539 620.875,533.0195 Q620.625,532.8008 620.5156,532.1914 Q620.4531,531.7695 620.2344,531.5508 Q619.8438,531.1133 619.125,530.8477 Q618.4063,530.582 617.6875,530.582 Q616.7813,530.582 616.0313,530.9727 Q615.2813,531.3633 614.7031,532.2539 Q614.125,533.1289 614.125,534.332 L614.125,535.6289 Q614.125,537.082 615.1719,538.0508 Q616.2344,539.0195 618.0938,539.0195 Q619.2031,539.0195 619.9844,538.707 Q620.4219,538.5352 620.9375,538.0195 Q621.25,537.707 621.4219,537.6133 Q621.5938,537.5195 621.8281,537.5195 Q622.2188,537.5195 622.5156,537.832 Q622.8281,538.1289 622.8281,538.5352 Q622.8281,538.9414 622.4219,539.4102 Q621.8281,540.0977 620.8906,540.4883 Q619.625,541.0195 618.1094,541.0195 Q616.3281,541.0195 614.9063,540.2852 Q613.75,539.6914 612.9375,538.4258 Q612.125,537.1602 612.125,535.6758 L612.125,534.3164 Q612.125,532.7539 612.8438,531.4102 Q613.5781,530.0508 614.8594,529.3164 Q616.1563,528.582 617.6094,528.582 Q618.4688,528.582 619.2188,528.7852 Q619.9844,528.9883 620.6406,529.3945 Z " fill="#000000"/><text fill="#000000" font-family="sans-serif" font-size="20" lengthAdjust="spacing" textLength="170" x="640.5" y="542.6563">PersistenceContext</text><line style="stroke:#181818;stroke-width:0.5;" x1="506.5" x2="909.5" y1="552.0508" y2="552.0508"/><line style="stroke:#181818;stroke-width:0.5;" x1="506.5" x2="909.5" y1="560.0508" y2="560.0508"/><ellipse cx="516.5" cy="578.1289" fill="#84BE84" rx="3" ry="3" style="stroke:#038048;stroke-width:1.0;"/><text fill="#000000" font-family="sans-serif" font-size="20" lengthAdjust="spacing" textLength="378" x="526.5" y="584.8125">getRepositoryFactory(): RepositoryFactory</text></g><!--class JpaRepositoryFactory--><g id="elem_JpaRepositoryFactory"><rect codeLine="10" fill="#F1F1F1" height="101.4688" id="JpaRepositoryFactory" rx="2.5" ry="2.5" style="stroke:#181818;stroke-width:0.5;" width="317" x="415.5" y="685.8945"/><ellipse cx="472.5" cy="703.4727" fill="#ADD1B2" rx="12" ry="12" style="stroke:#181818;stroke-width:1.0;"/><path d="M474.6406,698.3945 Q474.8281,698.1445 475.0469,698.0195 Q475.2656,697.8789 475.5156,697.8789 Q475.9531,697.8789 476.2344,698.1914 Q476.5156,698.4883 476.5156,699.207 L476.5156,700.9102 Q476.5156,701.6289 476.2344,701.9414 Q475.9531,702.2539 475.5156,702.2539 Q475.125,702.2539 474.875,702.0195 Q474.625,701.8008 474.5156,701.1914 Q474.4531,700.7695 474.2344,700.5508 Q473.8438,700.1133 473.125,699.8477 Q472.4063,699.582 471.6875,699.582 Q470.7813,699.582 470.0313,699.9727 Q469.2813,700.3633 468.7031,701.2539 Q468.125,702.1289 468.125,703.332 L468.125,704.6289 Q468.125,706.082 469.1719,707.0508 Q470.2344,708.0195 472.0938,708.0195 Q473.2031,708.0195 473.9844,707.707 Q474.4219,707.5352 474.9375,707.0195 Q475.25,706.707 475.4219,706.6133 Q475.5938,706.5195 475.8281,706.5195 Q476.2188,706.5195 476.5156,706.832 Q476.8281,707.1289 476.8281,707.5352 Q476.8281,707.9414 476.4219,708.4102 Q475.8281,709.0977 474.8906,709.4883 Q473.625,710.0195 472.1094,710.0195 Q470.3281,710.0195 468.9063,709.2852 Q467.75,708.6914 466.9375,707.4258 Q466.125,706.1602 466.125,704.6758 L466.125,703.3164 Q466.125,701.7539 466.8438,700.4102 Q467.5781,699.0508 468.8594,698.3164 Q470.1563,697.582 471.6094,697.582 Q472.4688,697.582 473.2188,697.7852 Q473.9844,697.9883 474.6406,698.3945 Z " fill="#000000"/><text fill="#000000" font-family="sans-serif" font-size="20" lengthAdjust="spacing" textLength="194" x="494.5" y="711.6563">JpaRepositoryFactory</text><line style="stroke:#181818;stroke-width:0.5;" x1="416.5" x2="731.5" y1="721.0508" y2="721.0508"/><line style="stroke:#181818;stroke-width:0.5;" x1="416.5" x2="731.5" y1="729.0508" y2="729.0508"/><rect fill="#F24D5C" height="6" style="stroke:#C82930;stroke-width:1.0;" width="6" x="423.5" y="744.1289"/><text fill="#000000" font-family="sans-serif" font-size="20" lengthAdjust="spacing" textLength="208" x="436.5" y="753.8125">JpaRepositoryFactory()</text><ellipse cx="426.5" cy="772.2852" fill="#84BE84" rx="3" ry="3" style="stroke:#038048;stroke-width:1.0;"/><text fill="#000000" font-family="sans-serif" font-size="20" lengthAdjust="spacing" textLength="290" x="436.5" y="778.9688">getInstance(): RepositoryFactory</text></g><!--class JpaFigureRepository--><g id="elem_JpaFigureRepository"><rect codeLine="15" fill="#F1F1F1" height="51.1563" id="JpaFigureRepository" rx="2.5" ry="2.5" style="stroke:#181818;stroke-width:0.5;" width="216" x="512" y="928.8945"/><ellipse cx="528" cy="946.4727" fill="#ADD1B2" rx="12" ry="12" style="stroke:#181818;stroke-width:1.0;"/><path d="M530.1406,941.3945 Q530.3281,941.1445 530.5469,941.0195 Q530.7656,940.8789 531.0156,940.8789 Q531.4531,940.8789 531.7344,941.1914 Q532.0156,941.4883 532.0156,942.207 L532.0156,943.9102 Q532.0156,944.6289 531.7344,944.9414 Q531.4531,945.2539 531.0156,945.2539 Q530.625,945.2539 530.375,945.0195 Q530.125,944.8008 530.0156,944.1914 Q529.9531,943.7695 529.7344,943.5508 Q529.3438,943.1133 528.625,942.8477 Q527.9063,942.582 527.1875,942.582 Q526.2813,942.582 525.5313,942.9727 Q524.7813,943.3633 524.2031,944.2539 Q523.625,945.1289 523.625,946.332 L523.625,947.6289 Q523.625,949.082 524.6719,950.0508 Q525.7344,951.0195 527.5938,951.0195 Q528.7031,951.0195 529.4844,950.707 Q529.9219,950.5352 530.4375,950.0195 Q530.75,949.707 530.9219,949.6133 Q531.0938,949.5195 531.3281,949.5195 Q531.7188,949.5195 532.0156,949.832 Q532.3281,950.1289 532.3281,950.5352 Q532.3281,950.9414 531.9219,951.4102 Q531.3281,952.0977 530.3906,952.4883 Q529.125,953.0195 527.6094,953.0195 Q525.8281,953.0195 524.4063,952.2852 Q523.25,951.6914 522.4375,950.4258 Q521.625,949.1602 521.625,947.6758 L521.625,946.3164 Q521.625,944.7539 522.3438,943.4102 Q523.0781,942.0508 524.3594,941.3164 Q525.6563,940.582 527.1094,940.582 Q527.9688,940.582 528.7188,940.7852 Q529.4844,940.9883 530.1406,941.3945 Z " fill="#000000"/><text fill="#000000" font-family="sans-serif" font-size="20" lengthAdjust="spacing" textLength="182" x="543" y="954.6563">JpaFigureRepository</text><line style="stroke:#181818;stroke-width:0.5;" x1="513" x2="727" y1="964.0508" y2="964.0508"/><line style="stroke:#181818;stroke-width:0.5;" x1="513" x2="727" y1="972.0508" y2="972.0508"/></g><!--class InMemoryRepositoryFactory--><g id="elem_InMemoryRepositoryFactory"><rect codeLine="21" fill="#F1F1F1" height="101.4688" id="InMemoryRepositoryFactory" rx="2.5" ry="2.5" style="stroke:#181818;stroke-width:0.5;" width="317" x="789.5" y="903.8945"/><ellipse cx="820.35" cy="921.4727" fill="#ADD1B2" rx="12" ry="12" style="stroke:#181818;stroke-width:1.0;"/><path d="M822.4906,916.3945 Q822.6781,916.1445 822.8969,916.0195 Q823.1156,915.8789 823.3656,915.8789 Q823.8031,915.8789 824.0844,916.1914 Q824.3656,916.4883 824.3656,917.207 L824.3656,918.9102 Q824.3656,919.6289 824.0844,919.9414 Q823.8031,920.2539 823.3656,920.2539 Q822.975,920.2539 822.725,920.0195 Q822.475,919.8008 822.3656,919.1914 Q822.3031,918.7695 822.0844,918.5508 Q821.6938,918.1133 820.975,917.8477 Q820.2563,917.582 819.5375,917.582 Q818.6313,917.582 817.8813,917.9727 Q817.1313,918.3633 816.5531,919.2539 Q815.975,920.1289 815.975,921.332 L815.975,922.6289 Q815.975,924.082 817.0219,925.0508 Q818.0844,926.0195 819.9438,926.0195 Q821.0531,926.0195 821.8344,925.707 Q822.2719,925.5352 822.7875,925.0195 Q823.1,924.707 823.2719,924.6133 Q823.4438,924.5195 823.6781,924.5195 Q824.0688,924.5195 824.3656,924.832 Q824.6781,925.1289 824.6781,925.5352 Q824.6781,925.9414 824.2719,926.4102 Q823.6781,927.0977 822.7406,927.4883 Q821.475,928.0195 819.9594,928.0195 Q818.1781,928.0195 816.7563,927.2852 Q815.6,926.6914 814.7875,925.4258 Q813.975,924.1602 813.975,922.6758 L813.975,921.3164 Q813.975,919.7539 814.6938,918.4102 Q815.4281,917.0508 816.7094,916.3164 Q818.0063,915.582 819.4594,915.582 Q820.3188,915.582 821.0688,915.7852 Q821.8344,915.9883 822.4906,916.3945 Z " fill="#000000"/><text fill="#000000" font-family="sans-serif" font-size="20" lengthAdjust="spacing" textLength="250" x="838.65" y="929.6563">InMemoryRepositoryFactory</text><line style="stroke:#181818;stroke-width:0.5;" x1="790.5" x2="1105.5" y1="939.0508" y2="939.0508"/><line style="stroke:#181818;stroke-width:0.5;" x1="790.5" x2="1105.5" y1="947.0508" y2="947.0508"/><rect fill="#F24D5C" height="6" style="stroke:#C82930;stroke-width:1.0;" width="6" x="797.5" y="962.1289"/><text fill="#000000" font-family="sans-serif" font-size="20" lengthAdjust="spacing" textLength="264" x="810.5" y="971.8125">InMemoryRepositoryFactory()</text><ellipse cx="800.5" cy="990.2852" fill="#84BE84" rx="3" ry="3" style="stroke:#038048;stroke-width:1.0;"/><text fill="#000000" font-family="sans-serif" font-size="20" lengthAdjust="spacing" textLength="290" x="810.5" y="996.9688">getInstance(): RepositoryFactory</text></g><!--class InMemoryFigureRepository--><g id="elem_InMemoryFigureRepository"><rect codeLine="26" fill="#F1F1F1" height="51.1563" id="InMemoryFigureRepository" rx="2.5" ry="2.5" style="stroke:#181818;stroke-width:0.5;" width="272" x="815" y="1065.8945"/><ellipse cx="831" cy="1083.4727" fill="#ADD1B2" rx="12" ry="12" style="stroke:#181818;stroke-width:1.0;"/><path d="M833.1406,1078.3945 Q833.3281,1078.1445 833.5469,1078.0195 Q833.7656,1077.8789 834.0156,1077.8789 Q834.4531,1077.8789 834.7344,1078.1914 Q835.0156,1078.4883 835.0156,1079.207 L835.0156,1080.9102 Q835.0156,1081.6289 834.7344,1081.9414 Q834.4531,1082.2539 834.0156,1082.2539 Q833.625,1082.2539 833.375,1082.0195 Q833.125,1081.8008 833.0156,1081.1914 Q832.9531,1080.7695 832.7344,1080.5508 Q832.3438,1080.1133 831.625,1079.8477 Q830.9063,1079.582 830.1875,1079.582 Q829.2813,1079.582 828.5313,1079.9727 Q827.7813,1080.3633 827.2031,1081.2539 Q826.625,1082.1289 826.625,1083.332 L826.625,1084.6289 Q826.625,1086.082 827.6719,1087.0508 Q828.7344,1088.0195 830.5938,1088.0195 Q831.7031,1088.0195 832.4844,1087.707 Q832.9219,1087.5352 833.4375,1087.0195 Q833.75,1086.707 833.9219,1086.6133 Q834.0938,1086.5195 834.3281,1086.5195 Q834.7188,1086.5195 835.0156,1086.832 Q835.3281,1087.1289 835.3281,1087.5352 Q835.3281,1087.9414 834.9219,1088.4102 Q834.3281,1089.0977 833.3906,1089.4883 Q832.125,1090.0195 830.6094,1090.0195 Q828.8281,1090.0195 827.4063,1089.2852 Q826.25,1088.6914 825.4375,1087.4258 Q824.625,1086.1602 824.625,1084.6758 L824.625,1083.3164 Q824.625,1081.7539 825.3438,1080.4102 Q826.0781,1079.0508 827.3594,1078.3164 Q828.6563,1077.582 830.1094,1077.582 Q830.9688,1077.582 831.7188,1077.7852 Q832.4844,1077.9883 833.1406,1078.3945 Z " fill="#000000"/><text fill="#000000" font-family="sans-serif" font-size="20" lengthAdjust="spacing" textLength="238" x="846" y="1091.6563">InMemoryFigureRepository</text><line style="stroke:#181818;stroke-width:0.5;" x1="816" x2="1086" y1="1101.0508" y2="1101.0508"/><line style="stroke:#181818;stroke-width:0.5;" x1="816" x2="1086" y1="1109.0508" y2="1109.0508"/></g><!--class Figure--><g id="elem_Figure"><rect codeLine="45" fill="#F1F1F1" height="101.4688" id="Figure" rx="2.5" ry="2.5" style="stroke:#181818;stroke-width:0.5;" width="246" x="409" y="1599.8945"/><ellipse cx="494" cy="1630.0508" fill="#ADD1B2" rx="12" ry="12" style="stroke:#181818;stroke-width:1.0;"/><path d="M496.1406,1624.9727 Q496.3281,1624.7227 496.5469,1624.5977 Q496.7656,1624.457 497.0156,1624.457 Q497.4531,1624.457 497.7344,1624.7695 Q498.0156,1625.0664 498.0156,1625.7852 L498.0156,1627.4883 Q498.0156,1628.207 497.7344,1628.5195 Q497.4531,1628.832 497.0156,1628.832 Q496.625,1628.832 496.375,1628.5977 Q496.125,1628.3789 496.0156,1627.7695 Q495.9531,1627.3477 495.7344,1627.1289 Q495.3438,1626.6914 494.625,1626.4258 Q493.9063,1626.1602 493.1875,1626.1602 Q492.2813,1626.1602 491.5313,1626.5508 Q490.7813,1626.9414 490.2031,1627.832 Q489.625,1628.707 489.625,1629.9102 L489.625,1631.207 Q489.625,1632.6602 490.6719,1633.6289 Q491.7344,1634.5977 493.5938,1634.5977 Q494.7031,1634.5977 495.4844,1634.2852 Q495.9219,1634.1133 496.4375,1633.5977 Q496.75,1633.2852 496.9219,1633.1914 Q497.0938,1633.0977 497.3281,1633.0977 Q497.7188,1633.0977 498.0156,1633.4102 Q498.3281,1633.707 498.3281,1634.1133 Q498.3281,1634.5195 497.9219,1634.9883 Q497.3281,1635.6758 496.3906,1636.0664 Q495.125,1636.5977 493.6094,1636.5977 Q491.8281,1636.5977 490.4063,1635.8633 Q489.25,1635.2695 488.4375,1634.0039 Q487.625,1632.7383 487.625,1631.2539 L487.625,1629.8945 Q487.625,1628.332 488.3438,1626.9883 Q489.0781,1625.6289 490.3594,1624.8945 Q491.6563,1624.1602 493.1094,1624.1602 Q493.9688,1624.1602 494.7188,1624.3633 Q495.4844,1624.5664 496.1406,1624.9727 Z " fill="#000000"/><text fill="#000000" font-family="sans-serif" font-size="20" font-style="italic" lengthAdjust="spacing" textLength="71" x="514" y="1625.6563">«Entity»</text><text fill="#000000" font-family="sans-serif" font-size="20" lengthAdjust="spacing" textLength="55" x="522" y="1650.8125">Figure</text><line style="stroke:#181818;stroke-width:0.5;" x1="410" x2="654" y1="1660.207" y2="1660.207"/><line style="stroke:#181818;stroke-width:0.5;" x1="410" x2="654" y1="1668.207" y2="1668.207"/><ellipse cx="420" cy="1686.2852" fill="#84BE84" rx="3" ry="3" style="stroke:#038048;stroke-width:1.0;"/><text fill="#000000" font-family="sans-serif" font-size="20" lengthAdjust="spacing" textLength="219" x="430" y="1692.9688">decommission(): boolean</text></g><!--class FigureStatus--><g id="elem_FigureStatus"><rect codeLine="49" fill="#F1F1F1" height="76.3125" id="FigureStatus" rx="2.5" ry="2.5" style="stroke:#181818;stroke-width:0.5;" width="166" x="449" y="1787.8945"/><ellipse cx="465" cy="1818.0508" fill="#EB937F" rx="12" ry="12" style="stroke:#181818;stroke-width:1.0;"/><path d="M462.9531,1819.1133 L462.9531,1822.0508 L468.0469,1822.0508 L468.0469,1820.957 Q468.0469,1820.2383 468.3281,1819.9414 Q468.6094,1819.6289 469.0625,1819.6289 Q469.5,1819.6289 469.7813,1819.9414 Q470.0625,1820.2383 470.0625,1820.957 L470.0625,1824.0508 L460.625,1824.0508 Q459.9063,1824.0508 459.5938,1823.7695 Q459.2969,1823.4883 459.2969,1823.0508 Q459.2969,1822.5977 459.6094,1822.332 Q459.9219,1822.0508 460.625,1822.0508 L460.9375,1822.0508 L460.9375,1814.2227 L460.625,1814.2227 Q459.9063,1814.2227 459.5938,1813.9414 Q459.2969,1813.6602 459.2969,1813.207 Q459.2969,1812.7539 459.5938,1812.4883 Q459.9063,1812.207 460.625,1812.207 L469.6094,1812.207 L469.6094,1815.2539 Q469.6094,1815.9727 469.3281,1816.2852 Q469.0625,1816.582 468.625,1816.582 Q468.1719,1816.582 467.8906,1816.2852 Q467.6094,1815.9883 467.6094,1815.2539 L467.6094,1814.2227 L462.9531,1814.2227 L462.9531,1817.1133 L464.7031,1817.1133 Q464.7031,1816.332 464.8438,1816.0977 Q465.1563,1815.6289 465.7031,1815.6289 Q466.1563,1815.6289 466.4219,1815.9414 Q466.7031,1816.2383 466.7031,1816.957 L466.7031,1819.2695 Q466.7031,1819.9258 466.5469,1820.1445 Q466.2344,1820.5977 465.7031,1820.5977 Q465.1563,1820.5977 464.8438,1820.1289 Q464.7031,1819.8945 464.7031,1819.1133 L462.9531,1819.1133 Z " fill="#000000"/><text fill="#000000" font-family="sans-serif" font-size="20" font-style="italic" lengthAdjust="spacing" textLength="136" x="478" y="1813.6563">«Value Object»</text><text fill="#000000" font-family="sans-serif" font-size="20" lengthAdjust="spacing" textLength="111" x="490.5" y="1838.8125">FigureStatus</text><line style="stroke:#181818;stroke-width:0.5;" x1="450" x2="614" y1="1848.207" y2="1848.207"/><line style="stroke:#181818;stroke-width:0.5;" x1="450" x2="614" y1="1856.207" y2="1856.207"/></g><!--class RepositoryFactory--><g id="elem_RepositoryFactory"><rect codeLine="34" fill="#F1F1F1" height="76.3125" id="RepositoryFactory" rx="2.5" ry="2.5" style="stroke:#181818;stroke-width:0.5;" width="381" x="256.5" y="1261.8945"/><ellipse cx="362" cy="1279.4727" fill="#B4A7E5" rx="12" ry="12" style="stroke:#181818;stroke-width:1.0;"/><path d="M363,1275.6445 L363,1283.4727 L365.0313,1283.4727 Q365.75,1283.4727 366.0469,1283.7539 Q366.3594,1284.0195 366.3594,1284.4727 Q366.3594,1284.9102 366.0469,1285.1914 Q365.75,1285.4727 365.0313,1285.4727 L358.9844,1285.4727 Q358.25,1285.4727 357.9375,1285.1914 Q357.6406,1284.9102 357.6406,1284.4727 Q357.6406,1284.0195 357.9375,1283.7539 Q358.25,1283.4727 358.9844,1283.4727 L361,1283.4727 L361,1275.6445 L358.9844,1275.6445 Q358.25,1275.6445 357.9375,1275.3633 Q357.6406,1275.082 357.6406,1274.6289 Q357.6406,1274.1758 357.9375,1273.9102 Q358.25,1273.6289 358.9844,1273.6289 L365.0313,1273.6289 Q365.75,1273.6289 366.0469,1273.9102 Q366.3594,1274.1758 366.3594,1274.6289 Q366.3594,1275.082 366.0469,1275.3633 Q365.75,1275.6445 365.0313,1275.6445 L363,1275.6445 Z " fill="#000000"/><text fill="#000000" font-family="sans-serif" font-size="20" font-style="italic" lengthAdjust="spacing" textLength="161" x="384" y="1287.6563">RepositoryFactory</text><line style="stroke:#181818;stroke-width:0.5;" x1="257.5" x2="636.5" y1="1297.0508" y2="1297.0508"/><line style="stroke:#181818;stroke-width:0.5;" x1="257.5" x2="636.5" y1="1305.0508" y2="1305.0508"/><ellipse cx="267.5" cy="1323.1289" fill="#84BE84" rx="3" ry="3" style="stroke:#038048;stroke-width:1.0;"/><text fill="#000000" font-family="sans-serif" font-size="20" lengthAdjust="spacing" textLength="354" x="277.5" y="1329.8125">getFigureRepository(): FigureRepository</text></g><!--class FigureRepository--><g id="elem_FigureRepository"><rect codeLine="38" fill="#F1F1F1" height="76.3125" id="FigureRepository" rx="2.5" ry="2.5" style="stroke:#181818;stroke-width:0.5;" width="251" x="386.5" y="1398.8945"/><ellipse cx="431.75" cy="1416.4727" fill="#B4A7E5" rx="12" ry="12" style="stroke:#181818;stroke-width:1.0;"/><path d="M432.75,1412.6445 L432.75,1420.4727 L434.7813,1420.4727 Q435.5,1420.4727 435.7969,1420.7539 Q436.1094,1421.0195 436.1094,1421.4727 Q436.1094,1421.9102 435.7969,1422.1914 Q435.5,1422.4727 434.7813,1422.4727 L428.7344,1422.4727 Q428,1422.4727 427.6875,1422.1914 Q427.3906,1421.9102 427.3906,1421.4727 Q427.3906,1421.0195 427.6875,1420.7539 Q428,1420.4727 428.7344,1420.4727 L430.75,1420.4727 L430.75,1412.6445 L428.7344,1412.6445 Q428,1412.6445 427.6875,1412.3633 Q427.3906,1412.082 427.3906,1411.6289 Q427.3906,1411.1758 427.6875,1410.9102 Q428,1410.6289 428.7344,1410.6289 L434.7813,1410.6289 Q435.5,1410.6289 435.7969,1410.9102 Q436.1094,1411.1758 436.1094,1411.6289 Q436.1094,1412.082 435.7969,1412.3633 Q435.5,1412.6445 434.7813,1412.6445 L432.75,1412.6445 Z " fill="#000000"/><text fill="#000000" font-family="sans-serif" font-size="20" font-style="italic" lengthAdjust="spacing" textLength="152" x="453.25" y="1424.6563">FigureRepository</text><line style="stroke:#181818;stroke-width:0.5;" x1="387.5" x2="636.5" y1="1434.0508" y2="1434.0508"/><line style="stroke:#181818;stroke-width:0.5;" x1="387.5" x2="636.5" y1="1442.0508" y2="1442.0508"/><ellipse cx="397.5" cy="1460.1289" fill="#84BE84" rx="3" ry="3" style="stroke:#038048;stroke-width:1.0;"/><text fill="#000000" font-family="sans-serif" font-size="20" lengthAdjust="spacing" textLength="224" x="407.5" y="1466.8125">findAll(): Iterable&lt;Figure&gt;</text></g><!--class DecommissionFigureUI--><g id="elem_DecommissionFigureUI"><rect codeLine="54" fill="#F1F1F1" height="126.625" id="DecommissionFigureUI" rx="2.5" ry="2.5" style="stroke:#181818;stroke-width:0.5;" width="350" x="734" y="50.8945"/><ellipse cx="804" cy="81.0508" fill="#ADD1B2" rx="12" ry="12" style="stroke:#181818;stroke-width:1.0;"/><path d="M806.1406,75.9727 Q806.3281,75.7227 806.5469,75.5977 Q806.7656,75.457 807.0156,75.457 Q807.4531,75.457 807.7344,75.7695 Q808.0156,76.0664 808.0156,76.7852 L808.0156,78.4883 Q808.0156,79.207 807.7344,79.5195 Q807.4531,79.832 807.0156,79.832 Q806.625,79.832 806.375,79.5977 Q806.125,79.3789 806.0156,78.7695 Q805.9531,78.3477 805.7344,78.1289 Q805.3438,77.6914 804.625,77.4258 Q803.9063,77.1602 803.1875,77.1602 Q802.2813,77.1602 801.5313,77.5508 Q800.7813,77.9414 800.2031,78.832 Q799.625,79.707 799.625,80.9102 L799.625,82.207 Q799.625,83.6602 800.6719,84.6289 Q801.7344,85.5977 803.5938,85.5977 Q804.7031,85.5977 805.4844,85.2852 Q805.9219,85.1133 806.4375,84.5977 Q806.75,84.2852 806.9219,84.1914 Q807.0938,84.0977 807.3281,84.0977 Q807.7188,84.0977 808.0156,84.4102 Q808.3281,84.707 808.3281,85.1133 Q808.3281,85.5195 807.9219,85.9883 Q807.3281,86.6758 806.3906,87.0664 Q805.125,87.5977 803.6094,87.5977 Q801.8281,87.5977 800.4063,86.8633 Q799.25,86.2695 798.4375,85.0039 Q797.625,83.7383 797.625,82.2539 L797.625,80.8945 Q797.625,79.332 798.3438,77.9883 Q799.0781,76.6289 800.3594,75.8945 Q801.6563,75.1602 803.1094,75.1602 Q803.9688,75.1602 804.7188,75.3633 Q805.4844,75.5664 806.1406,75.9727 Z " fill="#000000"/><text fill="#000000" font-family="sans-serif" font-size="20" font-style="italic" lengthAdjust="spacing" textLength="41" x="906" y="76.6563">«UI»</text><text fill="#000000" font-family="sans-serif" font-size="20" lengthAdjust="spacing" textLength="201" x="826" y="101.8125">DecommissionFigureUI</text><line style="stroke:#181818;stroke-width:0.5;" x1="735" x2="1083" y1="111.207" y2="111.207"/><line style="stroke:#181818;stroke-width:0.5;" x1="735" x2="1083" y1="119.207" y2="119.207"/><ellipse cx="745" cy="137.2852" fill="#84BE84" rx="3" ry="3" style="stroke:#038048;stroke-width:1.0;"/><text fill="#000000" font-family="sans-serif" font-size="20" lengthAdjust="spacing" textLength="323" x="755" y="143.9688">decommissionFigure(figure): boolean</text><ellipse cx="745" cy="162.4414" fill="#84BE84" rx="3" ry="3" style="stroke:#038048;stroke-width:1.0;"/><text fill="#000000" font-family="sans-serif" font-size="20" lengthAdjust="spacing" textLength="188" x="755" y="169.125">selectFigure(): Figure</text></g><!--class DecommissionFigureController--><g id="elem_DecommissionFigureController"><rect codeLine="61" fill="#F1F1F1" height="126.625" id="DecommissionFigureController" rx="2.5" ry="2.5" style="stroke:#181818;stroke-width:0.5;" width="350" x="734" y="270.8945"/><ellipse cx="772.05" cy="301.0508" fill="#ADD1B2" rx="12" ry="12" style="stroke:#181818;stroke-width:1.0;"/><path d="M774.1906,295.9727 Q774.3781,295.7227 774.5969,295.5977 Q774.8156,295.457 775.0656,295.457 Q775.5031,295.457 775.7844,295.7695 Q776.0656,296.0664 776.0656,296.7852 L776.0656,298.4883 Q776.0656,299.207 775.7844,299.5195 Q775.5031,299.832 775.0656,299.832 Q774.675,299.832 774.425,299.5977 Q774.175,299.3789 774.0656,298.7695 Q774.0031,298.3477 773.7844,298.1289 Q773.3938,297.6914 772.675,297.4258 Q771.9563,297.1602 771.2375,297.1602 Q770.3313,297.1602 769.5813,297.5508 Q768.8313,297.9414 768.2531,298.832 Q767.675,299.707 767.675,300.9102 L767.675,302.207 Q767.675,303.6602 768.7219,304.6289 Q769.7844,305.5977 771.6438,305.5977 Q772.7531,305.5977 773.5344,305.2852 Q773.9719,305.1133 774.4875,304.5977 Q774.8,304.2852 774.9719,304.1914 Q775.1438,304.0977 775.3781,304.0977 Q775.7688,304.0977 776.0656,304.4102 Q776.3781,304.707 776.3781,305.1133 Q776.3781,305.5195 775.9719,305.9883 Q775.3781,306.6758 774.4406,307.0664 Q773.175,307.5977 771.6594,307.5977 Q769.8781,307.5977 768.4563,306.8633 Q767.3,306.2695 766.4875,305.0039 Q765.675,303.7383 765.675,302.2539 L765.675,300.8945 Q765.675,299.332 766.3938,297.9883 Q767.1281,296.6289 768.4094,295.8945 Q769.7063,295.1602 771.1594,295.1602 Q772.0188,295.1602 772.7688,295.3633 Q773.5344,295.5664 774.1906,295.9727 Z " fill="#000000"/><text fill="#000000" font-family="sans-serif" font-size="20" font-style="italic" lengthAdjust="spacing" textLength="109" x="870.95" y="296.6563">«Controller»</text><text fill="#000000" font-family="sans-serif" font-size="20" lengthAdjust="spacing" textLength="267" x="791.95" y="321.8125">DecommissionFigureController</text><line style="stroke:#181818;stroke-width:0.5;" x1="735" x2="1083" y1="331.207" y2="331.207"/><line style="stroke:#181818;stroke-width:0.5;" x1="735" x2="1083" y1="339.207" y2="339.207"/><ellipse cx="745" cy="357.2852" fill="#84BE84" rx="3" ry="3" style="stroke:#038048;stroke-width:1.0;"/><text fill="#000000" font-family="sans-serif" font-size="20" lengthAdjust="spacing" textLength="323" x="755" y="363.9688">decommissionFigure(figure): boolean</text><ellipse cx="745" cy="382.4414" fill="#84BE84" rx="3" ry="3" style="stroke:#038048;stroke-width:1.0;"/><text fill="#000000" font-family="sans-serif" font-size="20" lengthAdjust="spacing" textLength="285" x="755" y="389.125">listCatalogue(): Iterable&lt;Figure&gt;</text></g><!--link PersistenceContext to RepositoryFactory--><g id="link_PersistenceContext_RepositoryFactory"><path codeLine="70" d="M505.83,592.8945 C372.75,623.2245 223,671.5345 223,735.3945 C223,735.3945 223,735.3945 223,1092.3945 C223,1169.0945 294.88,1225.1645 357.21,1259.3645 " fill="none" id="PersistenceContext-to-RepositoryFactory" style="stroke:#181818;stroke-width:1.0;stroke-dasharray:7.0,7.0;"/><polygon fill="#181818" points="361.68,1261.7845,355.6748,1253.9783,357.2845,1259.4013,351.8616,1261.011,361.68,1261.7845" style="stroke:#181818;stroke-width:1.0;"/><text fill="#000000" font-family="sans-serif" font-size="20" lengthAdjust="spacing" textLength="158" x="224" y="962.6563">figureRepository()</text></g><!--link PersistenceContext to JpaRepositoryFactory--><g id="link_PersistenceContext_JpaRepositoryFactory"><path codeLine="71" d="M680.24,593.0845 C661.16,618.6345 635.55,652.9445 614.25,681.4845 " fill="none" id="PersistenceContext-to-JpaRepositoryFactory" style="stroke:#181818;stroke-width:1.0;stroke-dasharray:7.0,7.0;"/><polygon fill="#181818" points="611.14,685.6445,619.7207,680.8102,614.124,681.6326,613.3016,676.0358,611.14,685.6445" style="stroke:#181818;stroke-width:1.0;"/></g><!--link PersistenceContext to InMemoryRepositoryFactory--><g id="link_PersistenceContext_InMemoryRepositoryFactory"><path codeLine="72" d="M730.36,592.9345 C772.95,663.4645 865.84,817.3145 915.37,899.3545 " fill="none" id="PersistenceContext-to-InMemoryRepositoryFactory" style="stroke:#181818;stroke-width:1.0;stroke-dasharray:7.0,7.0;"/><polygon fill="#181818" points="917.99,903.6845,916.7511,893.9139,915.4007,899.4072,909.9074,898.0568,917.99,903.6845" style="stroke:#181818;stroke-width:1.0;"/></g><!--link JpaFigureRepository to FigureRepository--><g id="link_JpaFigureRepository_FigureRepository"><path codeLine="77" d="M631.01,980.0245 C657.65,1043.5845 718.89,1216.6645 655,1337.8945 C644.69,1357.4645 628.51,1373.8745 610.68,1387.3245 " fill="none" id="JpaFigureRepository-to-FigureRepository" style="stroke:#181818;stroke-width:1.0;"/><polygon fill="none" points="614.41,1393.2645,593.97,1398.8545,606.46,1381.7345,614.41,1393.2645" style="stroke:#181818;stroke-width:1.0;"/></g><!--link JpaRepositoryFactory to RepositoryFactory--><g id="link_JpaRepositoryFactory_RepositoryFactory"><path codeLine="80" d="M531.73,787.0545 C517.72,806.1545 503.53,828.9145 495,851.8945 C445.55,985.0945 442.16,1154.8745 444.32,1241.8645 " fill="none" id="JpaRepositoryFactory-to-RepositoryFactory" style="stroke:#181818;stroke-width:1.0;stroke-dasharray:7.0,7.0;"/><polygon fill="none" points="451.32,1241.6645,444.96,1261.8745,437.33,1242.1145,451.32,1241.6645" style="stroke:#181818;stroke-width:1.0;"/></g><!--link JpaRepositoryFactory to JpaFigureRepository--><g id="link_JpaRepositoryFactory_JpaFigureRepository"><path codeLine="81" d="M584.55,786.9445 C593.55,829.2145 606.19,888.5645 613.69,923.7845 " fill="none" id="JpaRepositoryFactory-to-JpaFigureRepository" style="stroke:#181818;stroke-width:1.0;stroke-dasharray:7.0,7.0;"/><polygon fill="#181818" points="614.76,928.8045,616.7931,919.1678,613.7163,923.9147,608.9694,920.8378,614.76,928.8045" style="stroke:#181818;stroke-width:1.0;"/></g><!--link InMemoryFigureRepository to FigureRepository--><g id="link_InMemoryFigureRepository_FigureRepository"><path codeLine="86" d="M936.81,1117.0245 C904.64,1170.7145 820.84,1299.0445 717,1368.8945 C698.65,1381.2345 677.86,1391.4545 656.72,1399.8645 " fill="none" id="InMemoryFigureRepository-to-FigureRepository" style="stroke:#181818;stroke-width:1.0;stroke-dasharray:7.0,7.0;"/><polygon fill="none" points="658.89,1406.5245,637.7,1406.9445,654,1393.4045,658.89,1406.5245" style="stroke:#181818;stroke-width:1.0;"/></g><!--link InMemoryRepositoryFactory to RepositoryFactory--><g id="link_InMemoryRepositoryFactory_RepositoryFactory"><path codeLine="89" d="M875.69,1004.9745 C780.05,1070.5445 612.57,1185.3745 517.74,1250.3945 " fill="none" id="InMemoryRepositoryFactory-to-RepositoryFactory" style="stroke:#181818;stroke-width:1.0;stroke-dasharray:7.0,7.0;"/><polygon fill="none" points="521.64,1256.2045,501.19,1261.7445,513.73,1244.6545,521.64,1256.2045" style="stroke:#181818;stroke-width:1.0;"/></g><!--link InMemoryRepositoryFactory to InMemoryFigureRepository--><g id="link_InMemoryRepositoryFactory_InMemoryFigureRepository"><path codeLine="90" d="M949.1,1004.8945 C949.51,1023.5545 949.97,1044.1945 950.34,1060.5245 " fill="none" id="InMemoryRepositoryFactory-to-InMemoryFigureRepository" style="stroke:#181818;stroke-width:1.0;stroke-dasharray:7.0,7.0;"/><polygon fill="#181818" points="950.46,1065.8845,954.2533,1056.7955,950.3457,1060.8858,946.2554,1056.9783,950.46,1065.8845" style="stroke:#181818;stroke-width:1.0;"/></g><!--link FigureRepository to Figure--><g id="link_FigureRepository_Figure"><path codeLine="95" d="M515.53,1475.2245 C518.66,1508.3645 523.28,1557.2145 526.83,1594.7545 " fill="none" id="FigureRepository-to-Figure" style="stroke:#181818;stroke-width:1.0;stroke-dasharray:7.0,7.0;"/><polygon fill="#181818" points="527.3,1599.7345,530.435,1590.398,526.8293,1594.7567,522.4705,1591.151,527.3,1599.7345" style="stroke:#181818;stroke-width:1.0;"/></g><!--link RepositoryFactory to FigureRepository--><g id="link_RepositoryFactory_FigureRepository"><path codeLine="98" d="M464.93,1338.1445 C473.25,1355.4045 483.16,1375.9945 491.74,1393.8245 " fill="none" id="RepositoryFactory-to-FigureRepository" style="stroke:#181818;stroke-width:1.0;stroke-dasharray:7.0,7.0;"/><polygon fill="#181818" points="494.12,1398.7645,493.8112,1388.9205,491.9471,1394.2614,486.6062,1392.3972,494.12,1398.7645" style="stroke:#181818;stroke-width:1.0;"/></g><!--link Figure to FigureStatus--><g id="link_Figure_FigureStatus"><path codeLine="103" d="M532,1701.1145 C532,1726.9145 532,1758.0945 532,1782.7045 " fill="none" id="Figure-to-FigureStatus" style="stroke:#181818;stroke-width:1.0;"/><polygon fill="#181818" points="532,1787.8545,536,1778.8545,532,1782.8545,528,1778.8545,532,1787.8545" style="stroke:#181818;stroke-width:1.0;"/><text fill="#000000" font-family="sans-serif" font-size="20" lengthAdjust="spacing" textLength="105" x="533" y="1752.6563">figureStatus</text><text fill="#000000" font-family="sans-serif" font-size="20" lengthAdjust="spacing" textLength="11" x="520.1234" y="1775.549">1</text></g><!--link DecommissionFigureUI to DecommissionFigureController--><g id="link_DecommissionFigureUI_DecommissionFigureController"><path codeLine="108" d="M909,178.1545 C909,205.5145 909,237.6345 909,265.5345 " fill="none" id="DecommissionFigureUI-to-DecommissionFigureController" style="stroke:#181818;stroke-width:1.0;stroke-dasharray:7.0,7.0;"/><polygon fill="#181818" points="909,270.6945,913,261.6945,909,265.6945,905,261.6945,909,270.6945" style="stroke:#181818;stroke-width:1.0;"/></g><!--link DecommissionFigureController to PersistenceContext--><g id="link_DecommissionFigureController_PersistenceContext"><path codeLine="113" d="M851.4,398.0045 C817.51,434.8445 775.61,480.3945 745.88,512.7245 " fill="none" id="DecommissionFigureController-to-PersistenceContext" style="stroke:#181818;stroke-width:1.0;stroke-dasharray:7.0,7.0;"/><polygon fill="#181818" points="742.31,516.5945,751.3518,512.69,745.6996,512.9189,745.4708,507.2666,742.31,516.5945" style="stroke:#181818;stroke-width:1.0;"/><text fill="#000000" font-family="sans-serif" font-size="20" lengthAdjust="spacing" textLength="204" x="821" y="451.6563">getRepositoryFactory()</text></g><!--link DecommissionFigureController to RepositoryFactory--><g id="link_DecommissionFigureController_RepositoryFactory"><path codeLine="114" d="M733.82,342.3745 C471.22,357.6745 6,405.7045 6,553.8945 C6,553.8945 6,553.8945 6,1092.3945 C6,1208.7045 133.37,1259.6445 251.21,1281.8745 " fill="none" id="DecommissionFigureController-to-RepositoryFactory" style="stroke:#181818;stroke-width:1.0;stroke-dasharray:7.0,7.0;"/><polygon fill="#181818" points="256.46,1282.8545,248.3406,1277.2801,251.5439,1281.9426,246.8814,1285.1459,256.46,1282.8545" style="stroke:#181818;stroke-width:1.0;"/><text fill="#000000" font-family="sans-serif" font-size="20" lengthAdjust="spacing" textLength="192" x="7" y="838.6563">getFigureRepository()</text></g><!--link DecommissionFigureController to FigureRepository--><g id="link_DecommissionFigureController_FigureRepository"><path codeLine="115" d="M1062.57,397.9445 C1122.45,433.3145 1177,484.5545 1177,553.8945 C1177,553.8945 1177,553.8945 1177,1300.8945 C1177,1408.7645 836.72,1431.3845 642.98,1435.5245 " fill="none" id="DecommissionFigureController-to-FigureRepository" style="stroke:#181818;stroke-width:1.0;stroke-dasharray:7.0,7.0;"/><polygon fill="#181818" points="637.86,1435.6345,646.9382,1439.4538,642.859,1435.5346,646.7782,1431.4554,637.86,1435.6345" style="stroke:#181818;stroke-width:1.0;"/><text fill="#000000" font-family="sans-serif" font-size="20" lengthAdjust="spacing" textLength="66" x="1178" y="962.6563">findAll()</text></g><!--link DecommissionFigureController to Figure--><g id="link_DecommissionFigureController_Figure"><path codeLine="116" d="M1084.15,364.6645 C1187.41,393.0645 1298,448.1645 1298,553.8945 C1298,553.8945 1298,553.8945 1298,1538.8945 C1298,1602.5545 878.24,1632.5145 660.18,1643.7845 " fill="none" id="DecommissionFigureController-to-Figure" style="stroke:#181818;stroke-width:1.0;stroke-dasharray:7.0,7.0;"/><polygon fill="#181818" points="655.07,1644.0445,664.2636,1647.577,660.0634,1643.7877,663.8527,1639.5876,655.07,1644.0445" style="stroke:#181818;stroke-width:1.0;"/><text fill="#000000" font-family="sans-serif" font-size="20" lengthAdjust="spacing" textLength="242" x="1299" y="1099.6563">decommissionFigure(figure)</text></g><!--SRC=[fLR1Yjim4BtxAqHws2mbfkqn1C6oQS25qj8blIlEn6WZIyQIORVT_7jbMx6LQ6HILXUZpCoRzwpHS_IHouhLh1GgFyAUxE706c4sIfed_WV8bq-91aCqj4b6rKGg2KbIiVp82Y2pdr1hhWt8t6x8XtMtoD-4s9KBfZNnCXujAhmO5sxNHrA0-GMLqjo2lsvOtZxczqiI_DZLd9AJrxmQeLDULY9zhXXEubl50a2FnW9DcDzVyioaDipscg9tsNF3YwQ6CTUrj6cJChWieRJfk9PCVk-YquAYMUzKTSQDIlELhLN9kFHbT4b3t2iFajh5xRpK1sPdQqhi8EMQKolf-hUXweIrYQWQknout3y8qI9djeZj1Apw8dgDx1vtVPWy54KD1JFWlKmNMgs-IiFDAwN-pTX3higIQysLRFljb1B0f8yDiYaTo9DXfj4MwZSJ3P0VksV8pHdmybIs6JvOQwzX3xhDBE0sevJ4YFLvyqFtk2BPPsiGbedB6mu4eTMwGws4WFfMUcE5fJbktaLNs9luo0mJgcWWUimTyplFsjnP8sQteEIb2oAnDANXP2_98PZZAG3CkgRoeyvW5M6EwgHXTZPeGuEBDnfUlm4ilD4-MXXDxNgZ4OkAL52C62RpxBYENjJa1ehHZ8vaH7NSkGDSL7zK_bGLZNArBoAW65UCA4tFIbtnX2wS6SAe_sHSMkSL1pjPbCm-powSxtnh-fq5scOE1BMr0HADjjocxCR2-vj86y-U9jfvMMrRvD8k8t-IRWCCt_mI_rRU1XUCmNBy9luFWgsB6tFo3m00]--></g></svg>