<?xml version="1.0" encoding="UTF-8" standalone="no"?><svg xmlns="http://www.w3.org/2000/svg" xmlns:xlink="http://www.w3.org/1999/xlink" contentStyleType="text/css" height="1886px" preserveAspectRatio="none" style="width:1614px;height:1886px;background:#FFFFFF;" version="1.1" viewBox="0 0 1614 1886" width="1614px" zoomAndPan="magnify"><defs/><g><!--cluster Persistence --><g id="cluster_Persistence "><path d="M500.5,472.8945 L618.5,472.8945 A3.75,3.75 0 0 1 621,475.3945 L628,504.0508 L933.5,504.0508 A2.5,2.5 0 0 1 936,506.5508 L936,606.3945 A2.5,2.5 0 0 1 933.5,608.8945 L500.5,608.8945 A2.5,2.5 0 0 1 498,606.3945 L498,475.3945 A2.5,2.5 0 0 1 500.5,472.8945 " fill="#DDDDDD" style="stroke:#000000;stroke-width:1.5;"/><line style="stroke:#000000;stroke-width:1.5;" x1="498" x2="628" y1="504.0508" y2="504.0508"/><text fill="#000000" font-family="sans-serif" font-size="20" font-weight="bold" lengthAdjust="spacing" textLength="111" x="502" y="495.6563">Persistence</text></g><!--cluster persistence.impl.jpa--><g id="cluster_persistence.impl.jpa"><path d="M401.5,641.8945 L591.5,641.8945 A3.75,3.75 0 0 1 594,644.3945 L601,673.0508 L746.5,673.0508 A2.5,2.5 0 0 1 749,675.5508 L749,993.3945 A2.5,2.5 0 0 1 746.5,995.8945 L401.5,995.8945 A2.5,2.5 0 0 1 399,993.3945 L399,644.3945 A2.5,2.5 0 0 1 401.5,641.8945 " fill="#DDDDDD" style="stroke:#000000;stroke-width:1.5;"/><line style="stroke:#000000;stroke-width:1.5;" x1="399" x2="601" y1="673.0508" y2="673.0508"/><text fill="#000000" font-family="sans-serif" font-size="20" font-weight="bold" lengthAdjust="spacing" textLength="189" x="403" y="664.6563">persistence.impl.jpa</text></g><!--cluster persistence.impl.inmemory--><g id="cluster_persistence.impl.inmemory"><path d="M775.5,859.8945 L1030.5,859.8945 A3.75,3.75 0 0 1 1033,862.3945 L1040,891.0508 L1120.5,891.0508 A2.5,2.5 0 0 1 1123,893.5508 L1123,1130.3945 A2.5,2.5 0 0 1 1120.5,1132.8945 L775.5,1132.8945 A2.5,2.5 0 0 1 773,1130.3945 L773,862.3945 A2.5,2.5 0 0 1 775.5,859.8945 " fill="#DDDDDD" style="stroke:#000000;stroke-width:1.5;"/><line style="stroke:#000000;stroke-width:1.5;" x1="773" x2="1040" y1="891.0508" y2="891.0508"/><text fill="#000000" font-family="sans-serif" font-size="20" font-weight="bold" lengthAdjust="spacing" textLength="254" x="777" y="882.6563">persistence.impl.inmemory</text></g><!--cluster Domain--><g id="cluster_Domain"><path d="M175.5,1165.8945 L247.5,1165.8945 A3.75,3.75 0 0 1 250,1168.3945 L257,1197.0508 L684.5,1197.0508 A2.5,2.5 0 0 1 687,1199.5508 L687,1877.3945 A2.5,2.5 0 0 1 684.5,1879.8945 L175.5,1879.8945 A2.5,2.5 0 0 1 173,1877.3945 L173,1168.3945 A2.5,2.5 0 0 1 175.5,1165.8945 " fill="#DDDDDD" style="stroke:#000000;stroke-width:1.5;"/><line style="stroke:#000000;stroke-width:1.5;" x1="173" x2="257" y1="1197.0508" y2="1197.0508"/><text fill="#000000" font-family="sans-serif" font-size="20" font-weight="bold" lengthAdjust="spacing" textLength="71" x="177" y="1188.6563">Domain</text></g><!--cluster Repository --><g id="cluster_Repository "><path d="M199.5,1217.8945 L309.5,1217.8945 A3.75,3.75 0 0 1 312,1220.3945 L319,1249.0508 L660.5,1249.0508 A2.5,2.5 0 0 1 663,1251.5508 L663,1488.3945 A2.5,2.5 0 0 1 660.5,1490.8945 L199.5,1490.8945 A2.5,2.5 0 0 1 197,1488.3945 L197,1220.3945 A2.5,2.5 0 0 1 199.5,1217.8945 " fill="#DDDDDD" style="stroke:#000000;stroke-width:1.5;"/><line style="stroke:#000000;stroke-width:1.5;" x1="197" x2="319" y1="1249.0508" y2="1249.0508"/><text fill="#000000" font-family="sans-serif" font-size="20" font-weight="bold" lengthAdjust="spacing" textLength="103" x="201" y="1240.6563">Repository</text></g><!--cluster UI--><g id="cluster_UI"><path d="M783.5,6.8945 L803.5,6.8945 A3.75,3.75 0 0 1 806,9.3945 L813,38.0508 L1080.5,38.0508 A2.5,2.5 0 0 1 1083,40.5508 L1083,191.3945 A2.5,2.5 0 0 1 1080.5,193.8945 L783.5,193.8945 A2.5,2.5 0 0 1 781,191.3945 L781,9.3945 A2.5,2.5 0 0 1 783.5,6.8945 " fill="#DDDDDD" style="stroke:#000000;stroke-width:1.5;"/><line style="stroke:#000000;stroke-width:1.5;" x1="781" x2="813" y1="38.0508" y2="38.0508"/><text fill="#000000" font-family="sans-serif" font-size="20" font-weight="bold" lengthAdjust="spacing" textLength="19" x="785" y="29.6563">UI</text></g><!--cluster Controller--><g id="cluster_Controller"><path d="M767.5,226.8945 L862.5,226.8945 A3.75,3.75 0 0 1 865,229.3945 L872,258.0508 L1096.5,258.0508 A2.5,2.5 0 0 1 1099,260.5508 L1099,411.3945 A2.5,2.5 0 0 1 1096.5,413.8945 L767.5,413.8945 A2.5,2.5 0 0 1 765,411.3945 L765,229.3945 A2.5,2.5 0 0 1 767.5,226.8945 " fill="#DDDDDD" style="stroke:#000000;stroke-width:1.5;"/><line style="stroke:#000000;stroke-width:1.5;" x1="765" x2="872" y1="258.0508" y2="258.0508"/><text fill="#000000" font-family="sans-serif" font-size="20" font-weight="bold" lengthAdjust="spacing" textLength="94" x="769" y="249.6563">Controller</text></g><!--class PersistenceContext--><g id="elem_PersistenceContext"><rect codeLine="4" fill="#F1F1F1" height="76.3125" id="PersistenceContext" rx="2.5" ry="2.5" style="stroke:#181818;stroke-width:0.5;" width="405" x="514.5" y="516.8945"/><ellipse cx="627.5" cy="534.4727" fill="#ADD1B2" rx="12" ry="12" style="stroke:#181818;stroke-width:1.0;"/><path d="M629.6406,529.3945 Q629.8281,529.1445 630.0469,529.0195 Q630.2656,528.8789 630.5156,528.8789 Q630.9531,528.8789 631.2344,529.1914 Q631.5156,529.4883 631.5156,530.207 L631.5156,531.9102 Q631.5156,532.6289 631.2344,532.9414 Q630.9531,533.2539 630.5156,533.2539 Q630.125,533.2539 629.875,533.0195 Q629.625,532.8008 629.5156,532.1914 Q629.4531,531.7695 629.2344,531.5508 Q628.8438,531.1133 628.125,530.8477 Q627.4063,530.582 626.6875,530.582 Q625.7813,530.582 625.0313,530.9727 Q624.2813,531.3633 623.7031,532.2539 Q623.125,533.1289 623.125,534.332 L623.125,535.6289 Q623.125,537.082 624.1719,538.0508 Q625.2344,539.0195 627.0938,539.0195 Q628.2031,539.0195 628.9844,538.707 Q629.4219,538.5352 629.9375,538.0195 Q630.25,537.707 630.4219,537.6133 Q630.5938,537.5195 630.8281,537.5195 Q631.2188,537.5195 631.5156,537.832 Q631.8281,538.1289 631.8281,538.5352 Q631.8281,538.9414 631.4219,539.4102 Q630.8281,540.0977 629.8906,540.4883 Q628.625,541.0195 627.1094,541.0195 Q625.3281,541.0195 623.9063,540.2852 Q622.75,539.6914 621.9375,538.4258 Q621.125,537.1602 621.125,535.6758 L621.125,534.3164 Q621.125,532.7539 621.8438,531.4102 Q622.5781,530.0508 623.8594,529.3164 Q625.1563,528.582 626.6094,528.582 Q627.4688,528.582 628.2188,528.7852 Q628.9844,528.9883 629.6406,529.3945 Z " fill="#000000"/><text fill="#000000" font-family="sans-serif" font-size="20" lengthAdjust="spacing" textLength="170" x="649.5" y="542.6563">PersistenceContext</text><line style="stroke:#181818;stroke-width:0.5;" x1="515.5" x2="918.5" y1="552.0508" y2="552.0508"/><line style="stroke:#181818;stroke-width:0.5;" x1="515.5" x2="918.5" y1="560.0508" y2="560.0508"/><ellipse cx="525.5" cy="578.1289" fill="#84BE84" rx="3" ry="3" style="stroke:#038048;stroke-width:1.0;"/><text fill="#000000" font-family="sans-serif" font-size="20" lengthAdjust="spacing" textLength="378" x="535.5" y="584.8125">getRepositoryFactory(): RepositoryFactory</text></g><!--class JpaRepositoryFactory--><g id="elem_JpaRepositoryFactory"><rect codeLine="10" fill="#F1F1F1" height="101.4688" id="JpaRepositoryFactory" rx="2.5" ry="2.5" style="stroke:#181818;stroke-width:0.5;" width="317" x="415.5" y="685.8945"/><ellipse cx="472.5" cy="703.4727" fill="#ADD1B2" rx="12" ry="12" style="stroke:#181818;stroke-width:1.0;"/><path d="M474.6406,698.3945 Q474.8281,698.1445 475.0469,698.0195 Q475.2656,697.8789 475.5156,697.8789 Q475.9531,697.8789 476.2344,698.1914 Q476.5156,698.4883 476.5156,699.207 L476.5156,700.9102 Q476.5156,701.6289 476.2344,701.9414 Q475.9531,702.2539 475.5156,702.2539 Q475.125,702.2539 474.875,702.0195 Q474.625,701.8008 474.5156,701.1914 Q474.4531,700.7695 474.2344,700.5508 Q473.8438,700.1133 473.125,699.8477 Q472.4063,699.582 471.6875,699.582 Q470.7813,699.582 470.0313,699.9727 Q469.2813,700.3633 468.7031,701.2539 Q468.125,702.1289 468.125,703.332 L468.125,704.6289 Q468.125,706.082 469.1719,707.0508 Q470.2344,708.0195 472.0938,708.0195 Q473.2031,708.0195 473.9844,707.707 Q474.4219,707.5352 474.9375,707.0195 Q475.25,706.707 475.4219,706.6133 Q475.5938,706.5195 475.8281,706.5195 Q476.2188,706.5195 476.5156,706.832 Q476.8281,707.1289 476.8281,707.5352 Q476.8281,707.9414 476.4219,708.4102 Q475.8281,709.0977 474.8906,709.4883 Q473.625,710.0195 472.1094,710.0195 Q470.3281,710.0195 468.9063,709.2852 Q467.75,708.6914 466.9375,707.4258 Q466.125,706.1602 466.125,704.6758 L466.125,703.3164 Q466.125,701.7539 466.8438,700.4102 Q467.5781,699.0508 468.8594,698.3164 Q470.1563,697.582 471.6094,697.582 Q472.4688,697.582 473.2188,697.7852 Q473.9844,697.9883 474.6406,698.3945 Z " fill="#000000"/><text fill="#000000" font-family="sans-serif" font-size="20" lengthAdjust="spacing" textLength="194" x="494.5" y="711.6563">JpaRepositoryFactory</text><line style="stroke:#181818;stroke-width:0.5;" x1="416.5" x2="731.5" y1="721.0508" y2="721.0508"/><line style="stroke:#181818;stroke-width:0.5;" x1="416.5" x2="731.5" y1="729.0508" y2="729.0508"/><rect fill="#F24D5C" height="6" style="stroke:#C82930;stroke-width:1.0;" width="6" x="423.5" y="744.1289"/><text fill="#000000" font-family="sans-serif" font-size="20" lengthAdjust="spacing" textLength="208" x="436.5" y="753.8125">JpaRepositoryFactory()</text><ellipse cx="426.5" cy="772.2852" fill="#84BE84" rx="3" ry="3" style="stroke:#038048;stroke-width:1.0;"/><text fill="#000000" font-family="sans-serif" font-size="20" lengthAdjust="spacing" textLength="290" x="436.5" y="778.9688">getInstance(): RepositoryFactory</text></g><!--class JpaFigureRepository--><g id="elem_JpaFigureRepository"><rect codeLine="15" fill="#F1F1F1" height="51.1563" id="JpaFigureRepository" rx="2.5" ry="2.5" style="stroke:#181818;stroke-width:0.5;" width="216" x="506" y="928.8945"/><ellipse cx="522" cy="946.4727" fill="#ADD1B2" rx="12" ry="12" style="stroke:#181818;stroke-width:1.0;"/><path d="M524.1406,941.3945 Q524.3281,941.1445 524.5469,941.0195 Q524.7656,940.8789 525.0156,940.8789 Q525.4531,940.8789 525.7344,941.1914 Q526.0156,941.4883 526.0156,942.207 L526.0156,943.9102 Q526.0156,944.6289 525.7344,944.9414 Q525.4531,945.2539 525.0156,945.2539 Q524.625,945.2539 524.375,945.0195 Q524.125,944.8008 524.0156,944.1914 Q523.9531,943.7695 523.7344,943.5508 Q523.3438,943.1133 522.625,942.8477 Q521.9063,942.582 521.1875,942.582 Q520.2813,942.582 519.5313,942.9727 Q518.7813,943.3633 518.2031,944.2539 Q517.625,945.1289 517.625,946.332 L517.625,947.6289 Q517.625,949.082 518.6719,950.0508 Q519.7344,951.0195 521.5938,951.0195 Q522.7031,951.0195 523.4844,950.707 Q523.9219,950.5352 524.4375,950.0195 Q524.75,949.707 524.9219,949.6133 Q525.0938,949.5195 525.3281,949.5195 Q525.7188,949.5195 526.0156,949.832 Q526.3281,950.1289 526.3281,950.5352 Q526.3281,950.9414 525.9219,951.4102 Q525.3281,952.0977 524.3906,952.4883 Q523.125,953.0195 521.6094,953.0195 Q519.8281,953.0195 518.4063,952.2852 Q517.25,951.6914 516.4375,950.4258 Q515.625,949.1602 515.625,947.6758 L515.625,946.3164 Q515.625,944.7539 516.3438,943.4102 Q517.0781,942.0508 518.3594,941.3164 Q519.6563,940.582 521.1094,940.582 Q521.9688,940.582 522.7188,940.7852 Q523.4844,940.9883 524.1406,941.3945 Z " fill="#000000"/><text fill="#000000" font-family="sans-serif" font-size="20" lengthAdjust="spacing" textLength="182" x="537" y="954.6563">JpaFigureRepository</text><line style="stroke:#181818;stroke-width:0.5;" x1="507" x2="721" y1="964.0508" y2="964.0508"/><line style="stroke:#181818;stroke-width:0.5;" x1="507" x2="721" y1="972.0508" y2="972.0508"/></g><!--class InMemoryRepositoryFactory--><g id="elem_InMemoryRepositoryFactory"><rect codeLine="21" fill="#F1F1F1" height="101.4688" id="InMemoryRepositoryFactory" rx="2.5" ry="2.5" style="stroke:#181818;stroke-width:0.5;" width="317" x="789.5" y="903.8945"/><ellipse cx="820.35" cy="921.4727" fill="#ADD1B2" rx="12" ry="12" style="stroke:#181818;stroke-width:1.0;"/><path d="M822.4906,916.3945 Q822.6781,916.1445 822.8969,916.0195 Q823.1156,915.8789 823.3656,915.8789 Q823.8031,915.8789 824.0844,916.1914 Q824.3656,916.4883 824.3656,917.207 L824.3656,918.9102 Q824.3656,919.6289 824.0844,919.9414 Q823.8031,920.2539 823.3656,920.2539 Q822.975,920.2539 822.725,920.0195 Q822.475,919.8008 822.3656,919.1914 Q822.3031,918.7695 822.0844,918.5508 Q821.6938,918.1133 820.975,917.8477 Q820.2563,917.582 819.5375,917.582 Q818.6313,917.582 817.8813,917.9727 Q817.1313,918.3633 816.5531,919.2539 Q815.975,920.1289 815.975,921.332 L815.975,922.6289 Q815.975,924.082 817.0219,925.0508 Q818.0844,926.0195 819.9438,926.0195 Q821.0531,926.0195 821.8344,925.707 Q822.2719,925.5352 822.7875,925.0195 Q823.1,924.707 823.2719,924.6133 Q823.4438,924.5195 823.6781,924.5195 Q824.0688,924.5195 824.3656,924.832 Q824.6781,925.1289 824.6781,925.5352 Q824.6781,925.9414 824.2719,926.4102 Q823.6781,927.0977 822.7406,927.4883 Q821.475,928.0195 819.9594,928.0195 Q818.1781,928.0195 816.7563,927.2852 Q815.6,926.6914 814.7875,925.4258 Q813.975,924.1602 813.975,922.6758 L813.975,921.3164 Q813.975,919.7539 814.6938,918.4102 Q815.4281,917.0508 816.7094,916.3164 Q818.0063,915.582 819.4594,915.582 Q820.3188,915.582 821.0688,915.7852 Q821.8344,915.9883 822.4906,916.3945 Z " fill="#000000"/><text fill="#000000" font-family="sans-serif" font-size="20" lengthAdjust="spacing" textLength="250" x="838.65" y="929.6563">InMemoryRepositoryFactory</text><line style="stroke:#181818;stroke-width:0.5;" x1="790.5" x2="1105.5" y1="939.0508" y2="939.0508"/><line style="stroke:#181818;stroke-width:0.5;" x1="790.5" x2="1105.5" y1="947.0508" y2="947.0508"/><rect fill="#F24D5C" height="6" style="stroke:#C82930;stroke-width:1.0;" width="6" x="797.5" y="962.1289"/><text fill="#000000" font-family="sans-serif" font-size="20" lengthAdjust="spacing" textLength="264" x="810.5" y="971.8125">InMemoryRepositoryFactory()</text><ellipse cx="800.5" cy="990.2852" fill="#84BE84" rx="3" ry="3" style="stroke:#038048;stroke-width:1.0;"/><text fill="#000000" font-family="sans-serif" font-size="20" lengthAdjust="spacing" textLength="290" x="810.5" y="996.9688">getInstance(): RepositoryFactory</text></g><!--class InMemoryFigureRepository--><g id="elem_InMemoryFigureRepository"><rect codeLine="26" fill="#F1F1F1" height="51.1563" id="InMemoryFigureRepository" rx="2.5" ry="2.5" style="stroke:#181818;stroke-width:0.5;" width="272" x="824" y="1065.8945"/><ellipse cx="840" cy="1083.4727" fill="#ADD1B2" rx="12" ry="12" style="stroke:#181818;stroke-width:1.0;"/><path d="M842.1406,1078.3945 Q842.3281,1078.1445 842.5469,1078.0195 Q842.7656,1077.8789 843.0156,1077.8789 Q843.4531,1077.8789 843.7344,1078.1914 Q844.0156,1078.4883 844.0156,1079.207 L844.0156,1080.9102 Q844.0156,1081.6289 843.7344,1081.9414 Q843.4531,1082.2539 843.0156,1082.2539 Q842.625,1082.2539 842.375,1082.0195 Q842.125,1081.8008 842.0156,1081.1914 Q841.9531,1080.7695 841.7344,1080.5508 Q841.3438,1080.1133 840.625,1079.8477 Q839.9063,1079.582 839.1875,1079.582 Q838.2813,1079.582 837.5313,1079.9727 Q836.7813,1080.3633 836.2031,1081.2539 Q835.625,1082.1289 835.625,1083.332 L835.625,1084.6289 Q835.625,1086.082 836.6719,1087.0508 Q837.7344,1088.0195 839.5938,1088.0195 Q840.7031,1088.0195 841.4844,1087.707 Q841.9219,1087.5352 842.4375,1087.0195 Q842.75,1086.707 842.9219,1086.6133 Q843.0938,1086.5195 843.3281,1086.5195 Q843.7188,1086.5195 844.0156,1086.832 Q844.3281,1087.1289 844.3281,1087.5352 Q844.3281,1087.9414 843.9219,1088.4102 Q843.3281,1089.0977 842.3906,1089.4883 Q841.125,1090.0195 839.6094,1090.0195 Q837.8281,1090.0195 836.4063,1089.2852 Q835.25,1088.6914 834.4375,1087.4258 Q833.625,1086.1602 833.625,1084.6758 L833.625,1083.3164 Q833.625,1081.7539 834.3438,1080.4102 Q835.0781,1079.0508 836.3594,1078.3164 Q837.6563,1077.582 839.1094,1077.582 Q839.9688,1077.582 840.7188,1077.7852 Q841.4844,1077.9883 842.1406,1078.3945 Z " fill="#000000"/><text fill="#000000" font-family="sans-serif" font-size="20" lengthAdjust="spacing" textLength="238" x="855" y="1091.6563">InMemoryFigureRepository</text><line style="stroke:#181818;stroke-width:0.5;" x1="825" x2="1095" y1="1101.0508" y2="1101.0508"/><line style="stroke:#181818;stroke-width:0.5;" x1="825" x2="1095" y1="1109.0508" y2="1109.0508"/></g><!--class Figure--><g id="elem_Figure"><rect codeLine="45" fill="#F1F1F1" height="101.4688" id="Figure" rx="2.5" ry="2.5" style="stroke:#181818;stroke-width:0.5;" width="165" x="466.5" y="1599.8945"/><ellipse cx="511.3" cy="1630.0508" fill="#ADD1B2" rx="12" ry="12" style="stroke:#181818;stroke-width:1.0;"/><path d="M513.4406,1624.9727 Q513.6281,1624.7227 513.8469,1624.5977 Q514.0656,1624.457 514.3156,1624.457 Q514.7531,1624.457 515.0344,1624.7695 Q515.3156,1625.0664 515.3156,1625.7852 L515.3156,1627.4883 Q515.3156,1628.207 515.0344,1628.5195 Q514.7531,1628.832 514.3156,1628.832 Q513.925,1628.832 513.675,1628.5977 Q513.425,1628.3789 513.3156,1627.7695 Q513.2531,1627.3477 513.0344,1627.1289 Q512.6438,1626.6914 511.925,1626.4258 Q511.2063,1626.1602 510.4875,1626.1602 Q509.5813,1626.1602 508.8313,1626.5508 Q508.0813,1626.9414 507.5031,1627.832 Q506.925,1628.707 506.925,1629.9102 L506.925,1631.207 Q506.925,1632.6602 507.9719,1633.6289 Q509.0344,1634.5977 510.8938,1634.5977 Q512.0031,1634.5977 512.7844,1634.2852 Q513.2219,1634.1133 513.7375,1633.5977 Q514.05,1633.2852 514.2219,1633.1914 Q514.3938,1633.0977 514.6281,1633.0977 Q515.0188,1633.0977 515.3156,1633.4102 Q515.6281,1633.707 515.6281,1634.1133 Q515.6281,1634.5195 515.2219,1634.9883 Q514.6281,1635.6758 513.6906,1636.0664 Q512.425,1636.5977 510.9094,1636.5977 Q509.1281,1636.5977 507.7063,1635.8633 Q506.55,1635.2695 505.7375,1634.0039 Q504.925,1632.7383 504.925,1631.2539 L504.925,1629.8945 Q504.925,1628.332 505.6438,1626.9883 Q506.3781,1625.6289 507.6594,1624.8945 Q508.9563,1624.1602 510.4094,1624.1602 Q511.2688,1624.1602 512.0188,1624.3633 Q512.7844,1624.5664 513.4406,1624.9727 Z " fill="#000000"/><text fill="#000000" font-family="sans-serif" font-size="20" font-style="italic" lengthAdjust="spacing" textLength="71" x="530.7" y="1625.6563">«Entity»</text><text fill="#000000" font-family="sans-serif" font-size="20" lengthAdjust="spacing" textLength="55" x="538.7" y="1650.8125">Figure</text><line style="stroke:#181818;stroke-width:0.5;" x1="467.5" x2="630.5" y1="1660.207" y2="1660.207"/><line style="stroke:#181818;stroke-width:0.5;" x1="467.5" x2="630.5" y1="1668.207" y2="1668.207"/><ellipse cx="477.5" cy="1686.2852" fill="#84BE84" rx="3" ry="3" style="stroke:#038048;stroke-width:1.0;"/><text fill="#000000" font-family="sans-serif" font-size="20" lengthAdjust="spacing" textLength="138" x="487.5" y="1692.9688">decommission()</text></g><!--class FigureStatus--><g id="elem_FigureStatus"><rect codeLine="49" fill="#F1F1F1" height="76.3125" id="FigureStatus" rx="2.5" ry="2.5" style="stroke:#181818;stroke-width:0.5;" width="166" x="466" y="1787.8945"/><ellipse cx="482" cy="1818.0508" fill="#EB937F" rx="12" ry="12" style="stroke:#181818;stroke-width:1.0;"/><path d="M479.9531,1819.1133 L479.9531,1822.0508 L485.0469,1822.0508 L485.0469,1820.957 Q485.0469,1820.2383 485.3281,1819.9414 Q485.6094,1819.6289 486.0625,1819.6289 Q486.5,1819.6289 486.7813,1819.9414 Q487.0625,1820.2383 487.0625,1820.957 L487.0625,1824.0508 L477.625,1824.0508 Q476.9063,1824.0508 476.5938,1823.7695 Q476.2969,1823.4883 476.2969,1823.0508 Q476.2969,1822.5977 476.6094,1822.332 Q476.9219,1822.0508 477.625,1822.0508 L477.9375,1822.0508 L477.9375,1814.2227 L477.625,1814.2227 Q476.9063,1814.2227 476.5938,1813.9414 Q476.2969,1813.6602 476.2969,1813.207 Q476.2969,1812.7539 476.5938,1812.4883 Q476.9063,1812.207 477.625,1812.207 L486.6094,1812.207 L486.6094,1815.2539 Q486.6094,1815.9727 486.3281,1816.2852 Q486.0625,1816.582 485.625,1816.582 Q485.1719,1816.582 484.8906,1816.2852 Q484.6094,1815.9883 484.6094,1815.2539 L484.6094,1814.2227 L479.9531,1814.2227 L479.9531,1817.1133 L481.7031,1817.1133 Q481.7031,1816.332 481.8438,1816.0977 Q482.1563,1815.6289 482.7031,1815.6289 Q483.1563,1815.6289 483.4219,1815.9414 Q483.7031,1816.2383 483.7031,1816.957 L483.7031,1819.2695 Q483.7031,1819.9258 483.5469,1820.1445 Q483.2344,1820.5977 482.7031,1820.5977 Q482.1563,1820.5977 481.8438,1820.1289 Q481.7031,1819.8945 481.7031,1819.1133 L479.9531,1819.1133 Z " fill="#000000"/><text fill="#000000" font-family="sans-serif" font-size="20" font-style="italic" lengthAdjust="spacing" textLength="136" x="495" y="1813.6563">«Value Object»</text><text fill="#000000" font-family="sans-serif" font-size="20" lengthAdjust="spacing" textLength="111" x="507.5" y="1838.8125">FigureStatus</text><line style="stroke:#181818;stroke-width:0.5;" x1="467" x2="631" y1="1848.207" y2="1848.207"/><line style="stroke:#181818;stroke-width:0.5;" x1="467" x2="631" y1="1856.207" y2="1856.207"/></g><!--class RepositoryFactory--><g id="elem_RepositoryFactory"><rect codeLine="34" fill="#F1F1F1" height="76.3125" id="RepositoryFactory" rx="2.5" ry="2.5" style="stroke:#181818;stroke-width:0.5;" width="433" x="213.5" y="1261.8945"/><ellipse cx="345" cy="1279.4727" fill="#B4A7E5" rx="12" ry="12" style="stroke:#181818;stroke-width:1.0;"/><path d="M346,1275.6445 L346,1283.4727 L348.0313,1283.4727 Q348.75,1283.4727 349.0469,1283.7539 Q349.3594,1284.0195 349.3594,1284.4727 Q349.3594,1284.9102 349.0469,1285.1914 Q348.75,1285.4727 348.0313,1285.4727 L341.9844,1285.4727 Q341.25,1285.4727 340.9375,1285.1914 Q340.6406,1284.9102 340.6406,1284.4727 Q340.6406,1284.0195 340.9375,1283.7539 Q341.25,1283.4727 341.9844,1283.4727 L344,1283.4727 L344,1275.6445 L341.9844,1275.6445 Q341.25,1275.6445 340.9375,1275.3633 Q340.6406,1275.082 340.6406,1274.6289 Q340.6406,1274.1758 340.9375,1273.9102 Q341.25,1273.6289 341.9844,1273.6289 L348.0313,1273.6289 Q348.75,1273.6289 349.0469,1273.9102 Q349.3594,1274.1758 349.3594,1274.6289 Q349.3594,1275.082 349.0469,1275.3633 Q348.75,1275.6445 348.0313,1275.6445 L346,1275.6445 Z " fill="#000000"/><text fill="#000000" font-family="sans-serif" font-size="20" font-style="italic" lengthAdjust="spacing" textLength="161" x="367" y="1287.6563">RepositoryFactory</text><line style="stroke:#181818;stroke-width:0.5;" x1="214.5" x2="645.5" y1="1297.0508" y2="1297.0508"/><line style="stroke:#181818;stroke-width:0.5;" x1="214.5" x2="645.5" y1="1305.0508" y2="1305.0508"/><ellipse cx="224.5" cy="1323.1289" fill="#84BE84" rx="3" ry="3" style="stroke:#038048;stroke-width:1.0;"/><text fill="#000000" font-family="sans-serif" font-size="20" lengthAdjust="spacing" textLength="406" x="234.5" y="1329.8125">getCategoryRepository(): CategoryRepository</text></g><!--class FigureRepository--><g id="elem_FigureRepository"><rect codeLine="38" fill="#F1F1F1" height="76.3125" id="FigureRepository" rx="2.5" ry="2.5" style="stroke:#181818;stroke-width:0.5;" width="280" x="367" y="1398.8945"/><ellipse cx="426.5" cy="1416.4727" fill="#B4A7E5" rx="12" ry="12" style="stroke:#181818;stroke-width:1.0;"/><path d="M427.5,1412.6445 L427.5,1420.4727 L429.5313,1420.4727 Q430.25,1420.4727 430.5469,1420.7539 Q430.8594,1421.0195 430.8594,1421.4727 Q430.8594,1421.9102 430.5469,1422.1914 Q430.25,1422.4727 429.5313,1422.4727 L423.4844,1422.4727 Q422.75,1422.4727 422.4375,1422.1914 Q422.1406,1421.9102 422.1406,1421.4727 Q422.1406,1421.0195 422.4375,1420.7539 Q422.75,1420.4727 423.4844,1420.4727 L425.5,1420.4727 L425.5,1412.6445 L423.4844,1412.6445 Q422.75,1412.6445 422.4375,1412.3633 Q422.1406,1412.082 422.1406,1411.6289 Q422.1406,1411.1758 422.4375,1410.9102 Q422.75,1410.6289 423.4844,1410.6289 L429.5313,1410.6289 Q430.25,1410.6289 430.5469,1410.9102 Q430.8594,1411.1758 430.8594,1411.6289 Q430.8594,1412.082 430.5469,1412.3633 Q430.25,1412.6445 429.5313,1412.6445 L427.5,1412.6445 Z " fill="#000000"/><text fill="#000000" font-family="sans-serif" font-size="20" font-style="italic" lengthAdjust="spacing" textLength="152" x="448.5" y="1424.6563">FigureRepository</text><line style="stroke:#181818;stroke-width:0.5;" x1="368" x2="646" y1="1434.0508" y2="1434.0508"/><line style="stroke:#181818;stroke-width:0.5;" x1="368" x2="646" y1="1442.0508" y2="1442.0508"/><ellipse cx="378" cy="1460.1289" fill="#84BE84" rx="3" ry="3" style="stroke:#038048;stroke-width:1.0;"/><text fill="#000000" font-family="sans-serif" font-size="20" lengthAdjust="spacing" textLength="253" x="388" y="1466.8125">getCatalogue(): List&lt;Figure&gt;</text></g><!--class DecommissionFigureUI--><g id="elem_DecommissionFigureUI"><rect codeLine="54" fill="#F1F1F1" height="126.625" id="DecommissionFigureUI" rx="2.5" ry="2.5" style="stroke:#181818;stroke-width:0.5;" width="269" x="797.5" y="50.8945"/><ellipse cx="828.8" cy="81.0508" fill="#ADD1B2" rx="12" ry="12" style="stroke:#181818;stroke-width:1.0;"/><path d="M830.9406,75.9727 Q831.1281,75.7227 831.3469,75.5977 Q831.5656,75.457 831.8156,75.457 Q832.2531,75.457 832.5344,75.7695 Q832.8156,76.0664 832.8156,76.7852 L832.8156,78.4883 Q832.8156,79.207 832.5344,79.5195 Q832.2531,79.832 831.8156,79.832 Q831.425,79.832 831.175,79.5977 Q830.925,79.3789 830.8156,78.7695 Q830.7531,78.3477 830.5344,78.1289 Q830.1438,77.6914 829.425,77.4258 Q828.7063,77.1602 827.9875,77.1602 Q827.0813,77.1602 826.3313,77.5508 Q825.5813,77.9414 825.0031,78.832 Q824.425,79.707 824.425,80.9102 L824.425,82.207 Q824.425,83.6602 825.4719,84.6289 Q826.5344,85.5977 828.3938,85.5977 Q829.5031,85.5977 830.2844,85.2852 Q830.7219,85.1133 831.2375,84.5977 Q831.55,84.2852 831.7219,84.1914 Q831.8938,84.0977 832.1281,84.0977 Q832.5188,84.0977 832.8156,84.4102 Q833.1281,84.707 833.1281,85.1133 Q833.1281,85.5195 832.7219,85.9883 Q832.1281,86.6758 831.1906,87.0664 Q829.925,87.5977 828.4094,87.5977 Q826.6281,87.5977 825.2063,86.8633 Q824.05,86.2695 823.2375,85.0039 Q822.425,83.7383 822.425,82.2539 L822.425,80.8945 Q822.425,79.332 823.1438,77.9883 Q823.8781,76.6289 825.1594,75.8945 Q826.4563,75.1602 827.9094,75.1602 Q828.7688,75.1602 829.5188,75.3633 Q830.2844,75.5664 830.9406,75.9727 Z " fill="#000000"/><text fill="#000000" font-family="sans-serif" font-size="20" font-style="italic" lengthAdjust="spacing" textLength="41" x="927.2" y="76.6563">«UI»</text><text fill="#000000" font-family="sans-serif" font-size="20" lengthAdjust="spacing" textLength="201" x="847.2" y="101.8125">DecommissionFigureUI</text><line style="stroke:#181818;stroke-width:0.5;" x1="798.5" x2="1065.5" y1="111.207" y2="111.207"/><line style="stroke:#181818;stroke-width:0.5;" x1="798.5" x2="1065.5" y1="119.207" y2="119.207"/><ellipse cx="808.5" cy="137.2852" fill="#84BE84" rx="3" ry="3" style="stroke:#038048;stroke-width:1.0;"/><text fill="#000000" font-family="sans-serif" font-size="20" lengthAdjust="spacing" textLength="242" x="818.5" y="143.9688">decommissionFigure(figure)</text><ellipse cx="808.5" cy="162.4414" fill="#84BE84" rx="3" ry="3" style="stroke:#038048;stroke-width:1.0;"/><text fill="#000000" font-family="sans-serif" font-size="20" lengthAdjust="spacing" textLength="121" x="818.5" y="169.125">selectFigure()</text></g><!--class DecommissionFigureController--><g id="elem_DecommissionFigureController"><rect codeLine="61" fill="#F1F1F1" height="126.625" id="DecommissionFigureController" rx="2.5" ry="2.5" style="stroke:#181818;stroke-width:0.5;" width="301" x="781.5" y="270.8945"/><ellipse cx="797.5" cy="301.0508" fill="#ADD1B2" rx="12" ry="12" style="stroke:#181818;stroke-width:1.0;"/><path d="M799.6406,295.9727 Q799.8281,295.7227 800.0469,295.5977 Q800.2656,295.457 800.5156,295.457 Q800.9531,295.457 801.2344,295.7695 Q801.5156,296.0664 801.5156,296.7852 L801.5156,298.4883 Q801.5156,299.207 801.2344,299.5195 Q800.9531,299.832 800.5156,299.832 Q800.125,299.832 799.875,299.5977 Q799.625,299.3789 799.5156,298.7695 Q799.4531,298.3477 799.2344,298.1289 Q798.8438,297.6914 798.125,297.4258 Q797.4063,297.1602 796.6875,297.1602 Q795.7813,297.1602 795.0313,297.5508 Q794.2813,297.9414 793.7031,298.832 Q793.125,299.707 793.125,300.9102 L793.125,302.207 Q793.125,303.6602 794.1719,304.6289 Q795.2344,305.5977 797.0938,305.5977 Q798.2031,305.5977 798.9844,305.2852 Q799.4219,305.1133 799.9375,304.5977 Q800.25,304.2852 800.4219,304.1914 Q800.5938,304.0977 800.8281,304.0977 Q801.2188,304.0977 801.5156,304.4102 Q801.8281,304.707 801.8281,305.1133 Q801.8281,305.5195 801.4219,305.9883 Q800.8281,306.6758 799.8906,307.0664 Q798.625,307.5977 797.1094,307.5977 Q795.3281,307.5977 793.9063,306.8633 Q792.75,306.2695 791.9375,305.0039 Q791.125,303.7383 791.125,302.2539 L791.125,300.8945 Q791.125,299.332 791.8438,297.9883 Q792.5781,296.6289 793.8594,295.8945 Q795.1563,295.1602 796.6094,295.1602 Q797.4688,295.1602 798.2188,295.3633 Q798.9844,295.5664 799.6406,295.9727 Z " fill="#000000"/><text fill="#000000" font-family="sans-serif" font-size="20" font-style="italic" lengthAdjust="spacing" textLength="109" x="891.5" y="296.6563">«Controller»</text><text fill="#000000" font-family="sans-serif" font-size="20" lengthAdjust="spacing" textLength="267" x="812.5" y="321.8125">DecommissionFigureController</text><line style="stroke:#181818;stroke-width:0.5;" x1="782.5" x2="1081.5" y1="331.207" y2="331.207"/><line style="stroke:#181818;stroke-width:0.5;" x1="782.5" x2="1081.5" y1="339.207" y2="339.207"/><ellipse cx="792.5" cy="357.2852" fill="#84BE84" rx="3" ry="3" style="stroke:#038048;stroke-width:1.0;"/><text fill="#000000" font-family="sans-serif" font-size="20" lengthAdjust="spacing" textLength="242" x="802.5" y="363.9688">decommissionFigure(figure)</text><ellipse cx="792.5" cy="382.4414" fill="#84BE84" rx="3" ry="3" style="stroke:#038048;stroke-width:1.0;"/><text fill="#000000" font-family="sans-serif" font-size="20" lengthAdjust="spacing" textLength="127" x="802.5" y="389.125">listCatalogue()</text></g><!--link PersistenceContext to RepositoryFactory--><g id="link_PersistenceContext_RepositoryFactory"><path codeLine="70" d="M514.29,591.5645 C377.95,621.5345 223,669.9845 223,735.3945 C223,735.3945 223,735.3945 223,1092.3945 C223,1167.0945 291.41,1224.1545 349.57,1259.1645 " fill="none" id="PersistenceContext-to-RepositoryFactory" style="stroke:#181818;stroke-width:1.0;stroke-dasharray:7.0,7.0;"/><polygon fill="#181818" points="354.1,1261.8545,348.409,1253.8163,349.8025,1259.2989,344.32,1260.6923,354.1,1261.8545" style="stroke:#181818;stroke-width:1.0;"/><text fill="#000000" font-family="sans-serif" font-size="20" lengthAdjust="spacing" textLength="158" x="224" y="962.6563">figureRepository()</text></g><!--link PersistenceContext to JpaRepositoryFactory--><g id="link_PersistenceContext_JpaRepositoryFactory"><path codeLine="71" d="M687.37,593.0845 C667.02,618.6345 639.68,652.9445 616.95,681.4845 " fill="none" id="PersistenceContext-to-JpaRepositoryFactory" style="stroke:#181818;stroke-width:1.0;stroke-dasharray:7.0,7.0;"/><polygon fill="#181818" points="613.63,685.6445,622.3717,681.1077,616.75,681.7374,616.1203,676.1157,613.63,685.6445" style="stroke:#181818;stroke-width:1.0;"/></g><!--link PersistenceContext to InMemoryRepositoryFactory--><g id="link_PersistenceContext_InMemoryRepositoryFactory"><path codeLine="72" d="M738.52,592.9345 C779.51,663.4645 868.92,817.3145 916.6,899.3545 " fill="none" id="PersistenceContext-to-InMemoryRepositoryFactory" style="stroke:#181818;stroke-width:1.0;stroke-dasharray:7.0,7.0;"/><polygon fill="#181818" points="919.11,903.6845,918.0343,893.8946,916.5924,899.3646,911.1224,897.9227,919.11,903.6845" style="stroke:#181818;stroke-width:1.0;"/></g><!--link JpaFigureRepository to FigureRepository--><g id="link_JpaFigureRepository_FigureRepository"><path codeLine="77" d="M626.86,980.1245 C658.12,1043.9345 730.75,1217.5445 664,1337.8945 C652.85,1357.9945 635.67,1374.5145 616.7,1387.8845 " fill="none" id="JpaFigureRepository-to-FigureRepository" style="stroke:#181818;stroke-width:1.0;"/><polygon fill="none" points="620.29,1393.9045,599.68,1398.8345,612.71,1382.1345,620.29,1393.9045" style="stroke:#181818;stroke-width:1.0;"/></g><!--link JpaRepositoryFactory to RepositoryFactory--><g id="link_JpaRepositoryFactory_RepositoryFactory"><path codeLine="80" d="M528.58,787.0045 C513.6,806.0045 498.39,828.7145 489,851.8945 C435.5,983.9545 428.25,1154.2145 428.53,1241.5845 " fill="none" id="JpaRepositoryFactory-to-RepositoryFactory" style="stroke:#181818;stroke-width:1.0;stroke-dasharray:7.0,7.0;"/><polygon fill="none" points="435.53,1241.6145,428.74,1261.6845,421.53,1241.7545,435.53,1241.6145" style="stroke:#181818;stroke-width:1.0;"/></g><!--link JpaRepositoryFactory to JpaFigureRepository--><g id="link_JpaRepositoryFactory_JpaFigureRepository"><path codeLine="81" d="M583.18,786.9445 C591,829.2145 601.99,888.5645 608.52,923.7845 " fill="none" id="JpaRepositoryFactory-to-JpaFigureRepository" style="stroke:#181818;stroke-width:1.0;stroke-dasharray:7.0,7.0;"/><polygon fill="#181818" points="609.45,928.8045,611.7413,919.2259,608.538,923.8884,603.8755,920.6851,609.45,928.8045" style="stroke:#181818;stroke-width:1.0;"/></g><!--link InMemoryFigureRepository to FigureRepository--><g id="link_InMemoryFigureRepository_FigureRepository"><path codeLine="86" d="M945.9,1117.1745 C913.93,1171.1545 830.49,1300.0345 726,1368.8945 C707.67,1380.9745 687.06,1390.9645 666,1399.1945 " fill="none" id="InMemoryFigureRepository-to-FigureRepository" style="stroke:#181818;stroke-width:1.0;stroke-dasharray:7.0,7.0;"/><polygon fill="none" points="668.2,1405.8445,647.02,1406.1245,663.4,1392.6945,668.2,1405.8445" style="stroke:#181818;stroke-width:1.0;"/></g><!--link InMemoryRepositoryFactory to RepositoryFactory--><g id="link_InMemoryRepositoryFactory_RepositoryFactory"><path codeLine="89" d="M873.23,1004.9745 C774.25,1070.6145 600.83,1185.6145 502.83,1250.5945 " fill="none" id="InMemoryRepositoryFactory-to-RepositoryFactory" style="stroke:#181818;stroke-width:1.0;stroke-dasharray:7.0,7.0;"/><polygon fill="none" points="506.56,1256.5245,486.03,1261.7445,498.83,1244.8545,506.56,1256.5245" style="stroke:#181818;stroke-width:1.0;"/></g><!--link InMemoryRepositoryFactory to InMemoryFigureRepository--><g id="link_InMemoryRepositoryFactory_InMemoryFigureRepository"><path codeLine="90" d="M952.4,1004.8945 C954.06,1023.5545 955.89,1044.1945 957.34,1060.5245 " fill="none" id="InMemoryRepositoryFactory-to-InMemoryFigureRepository" style="stroke:#181818;stroke-width:1.0;stroke-dasharray:7.0,7.0;"/><polygon fill="#181818" points="957.82,1065.8845,961.0057,1056.5651,957.3764,1060.9043,953.0372,1057.2749,957.82,1065.8845" style="stroke:#181818;stroke-width:1.0;"/></g><!--link FigureRepository to Figure--><g id="link_FigureRepository_Figure"><path codeLine="95" d="M514.41,1475.2245 C520.99,1508.3645 530.69,1557.2145 538.15,1594.7545 " fill="none" id="FigureRepository-to-Figure" style="stroke:#181818;stroke-width:1.0;stroke-dasharray:7.0,7.0;"/><polygon fill="#181818" points="539.14,1599.7345,541.3134,1590.1285,538.1677,1594.83,533.4662,1591.6842,539.14,1599.7345" style="stroke:#181818;stroke-width:1.0;"/></g><!--link RepositoryFactory to FigureRepository--><g id="link_RepositoryFactory_FigureRepository"><path codeLine="98" d="M451.24,1338.1445 C461.18,1355.5545 473.04,1376.3545 483.26,1394.2745 " fill="none" id="RepositoryFactory-to-FigureRepository" style="stroke:#181818;stroke-width:1.0;stroke-dasharray:7.0,7.0;"/><polygon fill="#181818" points="485.82,1398.7645,484.8208,1388.9665,483.3362,1394.4251,477.8777,1392.9405,485.82,1398.7645" style="stroke:#181818;stroke-width:1.0;"/></g><!--link Figure to FigureStatus--><g id="link_Figure_FigureStatus"><path codeLine="103" d="M549,1701.1145 C549,1726.9145 549,1758.0945 549,1782.7045 " fill="none" id="Figure-to-FigureStatus" style="stroke:#181818;stroke-width:1.0;"/><polygon fill="#181818" points="549,1787.8545,553,1778.8545,549,1782.8545,545,1778.8545,549,1787.8545" style="stroke:#181818;stroke-width:1.0;"/><text fill="#000000" font-family="sans-serif" font-size="20" lengthAdjust="spacing" textLength="105" x="550" y="1752.6563">figureStatus</text><text fill="#000000" font-family="sans-serif" font-size="20" lengthAdjust="spacing" textLength="11" x="537.1234" y="1775.549">1</text></g><!--link DecommissionFigureUI to DecommissionFigureController--><g id="link_DecommissionFigureUI_DecommissionFigureController"><path codeLine="108" d="M932,178.1545 C932,205.5145 932,237.6345 932,265.5345 " fill="none" id="DecommissionFigureUI-to-DecommissionFigureController" style="stroke:#181818;stroke-width:1.0;stroke-dasharray:7.0,7.0;"/><polygon fill="#181818" points="932,270.6945,936,261.6945,932,265.6945,928,261.6945,932,270.6945" style="stroke:#181818;stroke-width:1.0;"/></g><!--link DecommissionFigureController to PersistenceContext--><g id="link_DecommissionFigureController_PersistenceContext"><path codeLine="113" d="M870.39,398.0045 C834.14,434.8445 789.32,480.3945 757.51,512.7245 " fill="none" id="DecommissionFigureController-to-PersistenceContext" style="stroke:#181818;stroke-width:1.0;stroke-dasharray:7.0,7.0;"/><polygon fill="#181818" points="753.7,516.5945,762.8708,513.0034,757.214,513.0376,757.1798,507.3809,753.7,516.5945" style="stroke:#181818;stroke-width:1.0;"/><text fill="#000000" font-family="sans-serif" font-size="20" lengthAdjust="spacing" textLength="204" x="838" y="451.6563">getRepositoryFactory()</text></g><!--link DecommissionFigureController to RepositoryFactory--><g id="link_DecommissionFigureController_RepositoryFactory"><path codeLine="114" d="M781.42,340.0745 C519.1,352.3645 6,396.5145 6,553.8945 C6,553.8945 6,553.8945 6,1092.3945 C6,1194.0445 105.73,1245.6745 208.45,1271.8845 " fill="none" id="DecommissionFigureController-to-RepositoryFactory" style="stroke:#181818;stroke-width:1.0;stroke-dasharray:7.0,7.0;"/><polygon fill="#181818" points="213.34,1273.1145,205.5789,1267.0511,208.4893,1271.9019,203.6386,1274.8123,213.34,1273.1145" style="stroke:#181818;stroke-width:1.0;"/><text fill="#000000" font-family="sans-serif" font-size="20" lengthAdjust="spacing" textLength="192" x="7" y="838.6563">getFigureRepository()</text></g><!--link DecommissionFigureController to FigureRepository--><g id="link_DecommissionFigureController_FigureRepository"><path codeLine="115" d="M1067.76,398.1045 C1124.28,434.3045 1177,486.2145 1177,553.8945 C1177,553.8945 1177,553.8945 1177,1300.8945 C1177,1407.1145 849.3,1430.7945 652.26,1435.4245 " fill="none" id="DecommissionFigureController-to-FigureRepository" style="stroke:#181818;stroke-width:1.0;stroke-dasharray:7.0,7.0;"/><polygon fill="#181818" points="647.05,1435.5445,656.1391,1439.3378,652.0487,1435.4303,655.9562,1431.3399,647.05,1435.5445" style="stroke:#181818;stroke-width:1.0;"/><text fill="#000000" font-family="sans-serif" font-size="20" lengthAdjust="spacing" textLength="131" x="1178" y="962.6563">getCatalogue()</text></g><!--link DecommissionFigureController to Figure--><g id="link_DecommissionFigureController_Figure"><path codeLine="116" d="M1082.74,350.2845 C1207.03,371.8745 1363,424.7045 1363,553.8945 C1363,553.8945 1363,553.8945 1363,1538.8945 C1363,1611.5545 847.14,1638.5545 636.75,1646.5445 " fill="none" id="DecommissionFigureController-to-Figure" style="stroke:#181818;stroke-width:1.0;stroke-dasharray:7.0,7.0;"/><polygon fill="#181818" points="631.53,1646.7445,640.6723,1650.4077,636.5266,1646.5589,640.3753,1642.4132,631.53,1646.7445" style="stroke:#181818;stroke-width:1.0;"/><text fill="#000000" font-family="sans-serif" font-size="20" lengthAdjust="spacing" textLength="242" x="1364" y="1099.6563">decommissionFigure(figure)</text></g><!--SRC=[fLR1Zfim4BtdAwpqi8cgeBR7AB9KRHg9gbMhhjAxIoR86p086scttVnx1t30n6Ewk_K5aPbvyvuzVaIVf2f59VAiI4vmO0SuYZepkqAPE_aRs8TtCms6QMYIJ54nLIYOpKgHd4GARFuTAYsr0PNW2tkpRHVxCsEuaanepPoCMqI51sF3pNhBKZ0_e2oqHF37dKYQnsAvPjwFRSrvTdQQbmDq9FCoY-vBGPFuN0eFqA6n8XCMop7FM6aZiDSKlN7FdKph2ePSsnBJ9cL8bKEEwRIMM7rjezE2Wbd_gUg26vJcAjiMkP3AbT4czN6dt4jgbiHvgOu2PsjAR2_bLXX8HveRKVwlVUMPQXLGTjr9P4LQjxls1GzlqrNnQsZxkEd2x6EQLf0Y8MT7RMYp-QICD8-SkzVZ04cHvr9hMIXxSXOIL9tRsZiZJAqHuQV8Qc3VVjr3OYuuunFPn_HGRPq-7UW-Hi1zp3aByUdo5iVsuKwLXWm9sF2IOD4OGLLa6LJFPJDK8AlXvJNiCZmkv_m6UZUELTbZ8ynhnTb36oHYKSJzILspuzL4sQO10CgAflA3DnqLKGvffL7sr6iZWwidxbsE0So_eIwQ7urmFV60vGGgE4MCadbnK4ilQ5eznM16IpAWEkp47YwfFoX_gee7kU96U1J3YWcbqKMfBPxGHJCZ67MVWB4BNd70oU9i_du-ShFBhUdU46WVMn3Igdf8Cjfmc_8KX7TV0cqS3vfevsGrRObBkmxywNaUeB_pBTwEzfX_mdbZiBxwlhq41eidBFWl]--></g></svg>