<?xml version="1.0" encoding="UTF-8" standalone="no"?><svg xmlns="http://www.w3.org/2000/svg" xmlns:xlink="http://www.w3.org/1999/xlink" contentStyleType="text/css" height="253px" preserveAspectRatio="none" style="width:321px;height:253px;background:#FFFFFF;" version="1.1" viewBox="0 0 321 253" width="321px" zoomAndPan="magnify"><defs/><g><!--class CustomerRepresentative--><g id="elem_CustomerRepresentative"><rect codeLine="2" fill="#F1F1F1" height="76.3125" id="CustomerRepresentative" rx="2.5" ry="2.5" style="stroke:#181818;stroke-width:0.5;" width="251" x="35" y="7"/><ellipse cx="51" cy="37.1563" fill="#ADD1B2" rx="12" ry="12" style="stroke:#181818;stroke-width:1.0;"/><path d="M53.1406,32.0781 Q53.3281,31.8281 53.5469,31.7031 Q53.7656,31.5625 54.0156,31.5625 Q54.4531,31.5625 54.7344,31.875 Q55.0156,32.1719 55.0156,32.8906 L55.0156,34.5938 Q55.0156,35.3125 54.7344,35.625 Q54.4531,35.9375 54.0156,35.9375 Q53.625,35.9375 53.375,35.7031 Q53.125,35.4844 53.0156,34.875 Q52.9531,34.4531 52.7344,34.2344 Q52.3438,33.7969 51.625,33.5313 Q50.9063,33.2656 50.1875,33.2656 Q49.2813,33.2656 48.5313,33.6563 Q47.7813,34.0469 47.2031,34.9375 Q46.625,35.8125 46.625,37.0156 L46.625,38.3125 Q46.625,39.7656 47.6719,40.7344 Q48.7344,41.7031 50.5938,41.7031 Q51.7031,41.7031 52.4844,41.3906 Q52.9219,41.2188 53.4375,40.7031 Q53.75,40.3906 53.9219,40.2969 Q54.0938,40.2031 54.3281,40.2031 Q54.7188,40.2031 55.0156,40.5156 Q55.3281,40.8125 55.3281,41.2188 Q55.3281,41.625 54.9219,42.0938 Q54.3281,42.7813 53.3906,43.1719 Q52.125,43.7031 50.6094,43.7031 Q48.8281,43.7031 47.4063,42.9688 Q46.25,42.375 45.4375,41.1094 Q44.625,39.8438 44.625,38.3594 L44.625,37 Q44.625,35.4375 45.3438,34.0938 Q46.0781,32.7344 47.3594,32 Q48.6563,31.2656 50.1094,31.2656 Q50.9688,31.2656 51.7188,31.4688 Q52.4844,31.6719 53.1406,32.0781 Z " fill="#000000"/><text fill="#000000" font-family="sans-serif" font-size="20" font-style="italic" lengthAdjust="spacing" textLength="71" x="139" y="32.7617">«Entity»</text><text fill="#000000" font-family="sans-serif" font-size="20" lengthAdjust="spacing" textLength="217" x="66" y="57.918">CustomerRepresentative</text><line style="stroke:#181818;stroke-width:0.5;" x1="36" x2="285" y1="67.3125" y2="67.3125"/><line style="stroke:#181818;stroke-width:0.5;" x1="36" x2="285" y1="75.3125" y2="75.3125"/></g><!--class CustomerRepresentativeStatus--><g id="elem_CustomerRepresentativeStatus"><rect codeLine="6" fill="#F1F1F1" height="76.3125" id="CustomerRepresentativeStatus" rx="2.5" ry="2.5" style="stroke:#181818;stroke-width:0.5;" width="307" x="7" y="170"/><ellipse cx="23" cy="200.1563" fill="#EB937F" rx="12" ry="12" style="stroke:#181818;stroke-width:1.0;"/><path d="M20.9531,201.2188 L20.9531,204.1563 L26.0469,204.1563 L26.0469,203.0625 Q26.0469,202.3438 26.3281,202.0469 Q26.6094,201.7344 27.0625,201.7344 Q27.5,201.7344 27.7813,202.0469 Q28.0625,202.3438 28.0625,203.0625 L28.0625,206.1563 L18.625,206.1563 Q17.9063,206.1563 17.5938,205.875 Q17.2969,205.5938 17.2969,205.1563 Q17.2969,204.7031 17.6094,204.4375 Q17.9219,204.1563 18.625,204.1563 L18.9375,204.1563 L18.9375,196.3281 L18.625,196.3281 Q17.9063,196.3281 17.5938,196.0469 Q17.2969,195.7656 17.2969,195.3125 Q17.2969,194.8594 17.5938,194.5938 Q17.9063,194.3125 18.625,194.3125 L27.6094,194.3125 L27.6094,197.3594 Q27.6094,198.0781 27.3281,198.3906 Q27.0625,198.6875 26.625,198.6875 Q26.1719,198.6875 25.8906,198.3906 Q25.6094,198.0938 25.6094,197.3594 L25.6094,196.3281 L20.9531,196.3281 L20.9531,199.2188 L22.7031,199.2188 Q22.7031,198.4375 22.8438,198.2031 Q23.1563,197.7344 23.7031,197.7344 Q24.1563,197.7344 24.4219,198.0469 Q24.7031,198.3438 24.7031,199.0625 L24.7031,201.375 Q24.7031,202.0313 24.5469,202.25 Q24.2344,202.7031 23.7031,202.7031 Q23.1563,202.7031 22.8438,202.2344 Q22.7031,202 22.7031,201.2188 L20.9531,201.2188 Z " fill="#000000"/><text fill="#000000" font-family="sans-serif" font-size="20" font-style="italic" lengthAdjust="spacing" textLength="136" x="106.5" y="195.7617">«Value Object»</text><text fill="#000000" font-family="sans-serif" font-size="20" lengthAdjust="spacing" textLength="273" x="38" y="220.918">CustomerRepresentativeStatus</text><line style="stroke:#181818;stroke-width:0.5;" x1="8" x2="313" y1="230.3125" y2="230.3125"/><line style="stroke:#181818;stroke-width:0.5;" x1="8" x2="313" y1="238.3125" y2="238.3125"/></g><!--link CustomerRepresentative to CustomerRepresentativeStatus--><g id="link_CustomerRepresentative_CustomerRepresentativeStatus"><path codeLine="11" d="M160.5,83.34 C160.5,107.62 160.5,139.35 160.5,164.58 " fill="none" id="CustomerRepresentative-to-CustomerRepresentativeStatus" style="stroke:#181818;stroke-width:1.0;"/><polygon fill="#181818" points="160.5,169.86,164.5,160.86,160.5,164.86,156.5,160.86,160.5,169.86" style="stroke:#181818;stroke-width:1.0;"/><text fill="#000000" font-family="sans-serif" font-size="20" lengthAdjust="spacing" textLength="53" x="161.5" y="134.7617">status</text><text fill="#000000" font-family="sans-serif" font-size="20" lengthAdjust="spacing" textLength="11" x="148.6234" y="157.5385">1</text></g><!--SRC=[VOox2i9044Nx-OeXVK0j9MmZsWe6xCVD26ls4NPc1HFyTnV1CbRt5FSS6LsSA5FmoOuyuC1tAbvFAMhlPiRT1i1w4i534Ks1yuMdpC9HITsJiUkEKPs-Z5a0tW0SIrZvzdMALEDAlZ2URm-s-lDWfT-s1fjjyp-vH_b2pNm0]--></g></svg>