<?xml version="1.0" encoding="UTF-8" standalone="no"?><svg xmlns="http://www.w3.org/2000/svg" xmlns:xlink="http://www.w3.org/1999/xlink" contentStyleType="text/css" height="265px" preserveAspectRatio="none" style="width:340px;height:265px;background:#FFFFFF;" version="1.1" viewBox="0 0 340 265" width="340px" zoomAndPan="magnify"><defs/><g><!--class CustomerRepresentative--><g id="elem_CustomerRepresentative"><rect codeLine="2" fill="#F1F1F1" height="73.1094" id="CustomerRepresentative" rx="2.5" ry="2.5" style="stroke:#181818;stroke-width:0.5;" width="268" x="36" y="7"/><ellipse cx="52" cy="35.5547" fill="#ADD1B2" rx="12" ry="12" style="stroke:#181818;stroke-width:1.0;"/><path d="M54.8066,42.6348 Q54.123,42.9863 53.3711,43.1621 Q52.6191,43.3379 51.7891,43.3379 Q48.8398,43.3379 47.2871,41.3945 Q45.7344,39.4512 45.7344,35.7793 Q45.7344,32.0977 47.2871,30.1543 Q48.8398,28.2109 51.7891,28.2109 Q52.6191,28.2109 53.3809,28.3867 Q54.1426,28.5625 54.8066,28.9141 L54.8066,32.1172 Q54.0645,31.4336 53.3662,31.1162 Q52.668,30.7988 51.9258,30.7988 Q50.3438,30.7988 49.5381,32.0537 Q48.7324,33.3086 48.7324,35.7793 Q48.7324,38.2402 49.5381,39.4951 Q50.3438,40.75 51.9258,40.75 Q52.668,40.75 53.3662,40.4326 Q54.0645,40.1152 54.8066,39.4316 Z " fill="#000000"/><text fill="#000000" font-family="sans-serif" font-size="20" font-style="italic" lengthAdjust="spacing" textLength="73" x="147.5" y="31.3359">«Entity»</text><text fill="#000000" font-family="sans-serif" font-size="20" lengthAdjust="spacing" textLength="234" x="67" y="54.8906">CustomerRepresentative</text><line style="stroke:#181818;stroke-width:0.5;" x1="37" x2="303" y1="64.1094" y2="64.1094"/><line style="stroke:#181818;stroke-width:0.5;" x1="37" x2="303" y1="72.1094" y2="72.1094"/></g><!--class CustomerRepresentativeStatus--><g id="elem_CustomerRepresentativeStatus"><rect codeLine="6" fill="#F1F1F1" height="73.1094" id="CustomerRepresentativeStatus" rx="2.5" ry="2.5" style="stroke:#181818;stroke-width:0.5;" width="326" x="7" y="185.11"/><ellipse cx="23" cy="213.6647" fill="#EB937F" rx="12" ry="12" style="stroke:#181818;stroke-width:1.0;"/><path d="M27.7227,221.1647 L18.6406,221.1647 L18.6406,206.5846 L27.7227,206.5846 L27.7227,209.1237 L21.5215,209.1237 L21.5215,212.2682 L27.1367,212.2682 L27.1367,214.8073 L21.5215,214.8073 L21.5215,218.6256 L27.7227,218.6256 Z " fill="#000000"/><text fill="#000000" font-family="sans-serif" font-size="20" font-style="italic" lengthAdjust="spacing" textLength="142" x="113" y="209.4459">«Value Object»</text><text fill="#000000" font-family="sans-serif" font-size="20" lengthAdjust="spacing" textLength="292" x="38" y="233.0006">CustomerRepresentativeStatus</text><line style="stroke:#181818;stroke-width:0.5;" x1="8" x2="332" y1="242.2194" y2="242.2194"/><line style="stroke:#181818;stroke-width:0.5;" x1="8" x2="332" y1="250.2194" y2="250.2194"/></g><!--link CustomerRepresentative to CustomerRepresentativeStatus--><g id="link_CustomerRepresentative_CustomerRepresentativeStatus"><path codeLine="11" d="M170,80.61 C170,109.16 170,149.08 170,178.99 " fill="none" id="CustomerRepresentative-to-CustomerRepresentativeStatus" style="stroke:#181818;stroke-width:1.0;"/><polygon fill="#181818" points="170,183.69,174,174.69,170,178.69,166,174.69,170,183.69" style="stroke:#181818;stroke-width:1.0;"/><text fill="#000000" font-family="sans-serif" font-size="20" lengthAdjust="spacing" textLength="57" x="171" y="130.4459">status</text><text fill="#000000" font-family="sans-serif" font-size="20" lengthAdjust="spacing" textLength="13" x="155.8016" y="172.7554">1</text></g><!--SRC=[VOox2i9044Nx-OeXVK0j9MmZsWe6xCVD26ls4NPc1HFyTnV1CbRt5FSS6LsSA5FmoOuyuC1tAbvFAMhlPiRT1i1w4i534Ks1yuMdpC9HITsJiUkEKPs-Z5a0tW0SIrZvzdMALEDAlZ2URm-s-lDWfT-s1fjjyp-vH_b2pNm0]--></g></svg>