<?xml version="1.0" encoding="UTF-8" standalone="no"?><svg xmlns="http://www.w3.org/2000/svg" xmlns:xlink="http://www.w3.org/1999/xlink" contentStyleType="text/css" height="580px" preserveAspectRatio="none" style="width:1026px;height:580px;background:#FFFFFF;" version="1.1" viewBox="0 0 1026 580" width="1026px" zoomAndPan="magnify"><defs/><g><!--class SerialNumber--><g id="elem_SerialNumber"><rect codeLine="3" fill="#F1F1F1" height="101.4688" id="SerialNumber" rx="2.5" ry="2.5" style="stroke:#181818;stroke-width:0.5;" width="166" x="48" y="447.5"/><ellipse cx="64" cy="477.6563" fill="#ADD1B2" rx="12" ry="12" style="stroke:#181818;stroke-width:1.0;"/><path d="M66.1406,472.5781 Q66.3281,472.3281 66.5469,472.2031 Q66.7656,472.0625 67.0156,472.0625 Q67.4531,472.0625 67.7344,472.375 Q68.0156,472.6719 68.0156,473.3906 L68.0156,475.0938 Q68.0156,475.8125 67.7344,476.125 Q67.4531,476.4375 67.0156,476.4375 Q66.625,476.4375 66.375,476.2031 Q66.125,475.9844 66.0156,475.375 Q65.9531,474.9531 65.7344,474.7344 Q65.3438,474.2969 64.625,474.0313 Q63.9063,473.7656 63.1875,473.7656 Q62.2813,473.7656 61.5313,474.1563 Q60.7813,474.5469 60.2031,475.4375 Q59.625,476.3125 59.625,477.5156 L59.625,478.8125 Q59.625,480.2656 60.6719,481.2344 Q61.7344,482.2031 63.5938,482.2031 Q64.7031,482.2031 65.4844,481.8906 Q65.9219,481.7188 66.4375,481.2031 Q66.75,480.8906 66.9219,480.7969 Q67.0938,480.7031 67.3281,480.7031 Q67.7188,480.7031 68.0156,481.0156 Q68.3281,481.3125 68.3281,481.7188 Q68.3281,482.125 67.9219,482.5938 Q67.3281,483.2813 66.3906,483.6719 Q65.125,484.2031 63.6094,484.2031 Q61.8281,484.2031 60.4063,483.4688 Q59.25,482.875 58.4375,481.6094 Q57.625,480.3438 57.625,478.8594 L57.625,477.5 Q57.625,475.9375 58.3438,474.5938 Q59.0781,473.2344 60.3594,472.5 Q61.6563,471.7656 63.1094,471.7656 Q63.9688,471.7656 64.7188,471.9688 Q65.4844,472.1719 66.1406,472.5781 Z " fill="#000000"/><text fill="#000000" font-family="sans-serif" font-size="20" font-style="italic" lengthAdjust="spacing" textLength="136" x="77" y="473.2617">«Value Object»</text><text fill="#000000" font-family="sans-serif" font-size="20" lengthAdjust="spacing" textLength="118" x="86" y="498.418">SerialNumber</text><line style="stroke:#181818;stroke-width:0.5;" x1="49" x2="213" y1="507.8125" y2="507.8125"/><rect fill="none" height="6" style="stroke:#C82930;stroke-width:1.0;" width="6" x="56" y="522.8906"/><text fill="#000000" font-family="sans-serif" font-size="20" lengthAdjust="spacing" textLength="77" x="69" y="532.5742">value: int</text><line style="stroke:#181818;stroke-width:0.5;" x1="49" x2="213" y1="540.9688" y2="540.9688"/></g><!--class RemovalReason--><g id="elem_RemovalReason"><rect codeLine="7" fill="#F1F1F1" height="101.4688" id="RemovalReason" rx="2.5" ry="2.5" style="stroke:#181818;stroke-width:0.5;" width="277" x="249.5" y="447.5"/><ellipse cx="312" cy="477.6563" fill="#ADD1B2" rx="12" ry="12" style="stroke:#181818;stroke-width:1.0;"/><path d="M314.1406,472.5781 Q314.3281,472.3281 314.5469,472.2031 Q314.7656,472.0625 315.0156,472.0625 Q315.4531,472.0625 315.7344,472.375 Q316.0156,472.6719 316.0156,473.3906 L316.0156,475.0938 Q316.0156,475.8125 315.7344,476.125 Q315.4531,476.4375 315.0156,476.4375 Q314.625,476.4375 314.375,476.2031 Q314.125,475.9844 314.0156,475.375 Q313.9531,474.9531 313.7344,474.7344 Q313.3438,474.2969 312.625,474.0313 Q311.9063,473.7656 311.1875,473.7656 Q310.2813,473.7656 309.5313,474.1563 Q308.7813,474.5469 308.2031,475.4375 Q307.625,476.3125 307.625,477.5156 L307.625,478.8125 Q307.625,480.2656 308.6719,481.2344 Q309.7344,482.2031 311.5938,482.2031 Q312.7031,482.2031 313.4844,481.8906 Q313.9219,481.7188 314.4375,481.2031 Q314.75,480.8906 314.9219,480.7969 Q315.0938,480.7031 315.3281,480.7031 Q315.7188,480.7031 316.0156,481.0156 Q316.3281,481.3125 316.3281,481.7188 Q316.3281,482.125 315.9219,482.5938 Q315.3281,483.2813 314.3906,483.6719 Q313.125,484.2031 311.6094,484.2031 Q309.8281,484.2031 308.4063,483.4688 Q307.25,482.875 306.4375,481.6094 Q305.625,480.3438 305.625,478.8594 L305.625,477.5 Q305.625,475.9375 306.3438,474.5938 Q307.0781,473.2344 308.3594,472.5 Q309.6563,471.7656 311.1094,471.7656 Q311.9688,471.7656 312.7188,471.9688 Q313.4844,472.1719 314.1406,472.5781 Z " fill="#000000"/><text fill="#000000" font-family="sans-serif" font-size="20" font-style="italic" lengthAdjust="spacing" textLength="136" x="337.5" y="473.2617">«Value Object»</text><text fill="#000000" font-family="sans-serif" font-size="20" lengthAdjust="spacing" textLength="143" x="334" y="498.418">RemovalReason</text><line style="stroke:#181818;stroke-width:0.5;" x1="250.5" x2="525.5" y1="507.8125" y2="507.8125"/><rect fill="none" height="6" style="stroke:#C82930;stroke-width:1.0;" width="6" x="257.5" y="522.8906"/><text fill="#000000" font-family="sans-serif" font-size="20" lengthAdjust="spacing" textLength="250" x="270.5" y="532.5742">reasons: Map&lt;Date, String&gt;</text><line style="stroke:#181818;stroke-width:0.5;" x1="250.5" x2="525.5" y1="540.9688" y2="540.9688"/></g><!--class DroneStatus--><g id="elem_DroneStatus"><rect codeLine="11" fill="#F1F1F1" height="151.7813" id="DroneStatus" rx="2.5" ry="2.5" style="stroke:#181818;stroke-width:0.5;" width="152" x="562" y="422"/><ellipse cx="582.05" cy="439.5781" fill="#EB937F" rx="12" ry="12" style="stroke:#181818;stroke-width:1.0;"/><path d="M580.0031,440.6406 L580.0031,443.5781 L585.0969,443.5781 L585.0969,442.4844 Q585.0969,441.7656 585.3781,441.4688 Q585.6594,441.1563 586.1125,441.1563 Q586.55,441.1563 586.8313,441.4688 Q587.1125,441.7656 587.1125,442.4844 L587.1125,445.5781 L577.675,445.5781 Q576.9563,445.5781 576.6438,445.2969 Q576.3469,445.0156 576.3469,444.5781 Q576.3469,444.125 576.6594,443.8594 Q576.9719,443.5781 577.675,443.5781 L577.9875,443.5781 L577.9875,435.75 L577.675,435.75 Q576.9563,435.75 576.6438,435.4688 Q576.3469,435.1875 576.3469,434.7344 Q576.3469,434.2813 576.6438,434.0156 Q576.9563,433.7344 577.675,433.7344 L586.6594,433.7344 L586.6594,436.7813 Q586.6594,437.5 586.3781,437.8125 Q586.1125,438.1094 585.675,438.1094 Q585.2219,438.1094 584.9406,437.8125 Q584.6594,437.5156 584.6594,436.7813 L584.6594,435.75 L580.0031,435.75 L580.0031,438.6406 L581.7531,438.6406 Q581.7531,437.8594 581.8938,437.625 Q582.2063,437.1563 582.7531,437.1563 Q583.2063,437.1563 583.4719,437.4688 Q583.7531,437.7656 583.7531,438.4844 L583.7531,440.7969 Q583.7531,441.4531 583.5969,441.6719 Q583.2844,442.125 582.7531,442.125 Q582.2063,442.125 581.8938,441.6563 Q581.7531,441.4219 581.7531,440.6406 L580.0031,440.6406 Z " fill="#000000"/><text fill="#000000" font-family="sans-serif" font-size="20" lengthAdjust="spacing" textLength="109" x="597.95" y="447.7617">DroneStatus</text><line style="stroke:#181818;stroke-width:0.5;" x1="563" x2="713" y1="457.1563" y2="457.1563"/><text fill="#000000" font-family="sans-serif" font-size="20" lengthAdjust="spacing" textLength="71" x="568" y="481.918">ACTIVE</text><text fill="#000000" font-family="sans-serif" font-size="20" lengthAdjust="spacing" textLength="140" x="568" y="507.0742">MAINTENANCE</text><text fill="#000000" font-family="sans-serif" font-size="20" lengthAdjust="spacing" textLength="100" x="568" y="532.2305">REMOVED</text><text fill="#000000" font-family="sans-serif" font-size="20" lengthAdjust="spacing" textLength="82" x="568" y="557.3867">BROKEN</text><line style="stroke:#181818;stroke-width:0.5;" x1="563" x2="713" y1="565.7813" y2="565.7813"/></g><!--class Model--><g id="elem_Model"><rect codeLine="18" fill="#F1F1F1" height="76.3125" id="Model" rx="2.5" ry="2.5" style="stroke:#181818;stroke-width:0.5;" width="194" x="749" y="460"/><ellipse cx="814.5" cy="477.5781" fill="#ADD1B2" rx="12" ry="12" style="stroke:#181818;stroke-width:1.0;"/><path d="M816.6406,472.5 Q816.8281,472.25 817.0469,472.125 Q817.2656,471.9844 817.5156,471.9844 Q817.9531,471.9844 818.2344,472.2969 Q818.5156,472.5938 818.5156,473.3125 L818.5156,475.0156 Q818.5156,475.7344 818.2344,476.0469 Q817.9531,476.3594 817.5156,476.3594 Q817.125,476.3594 816.875,476.125 Q816.625,475.9063 816.5156,475.2969 Q816.4531,474.875 816.2344,474.6563 Q815.8438,474.2188 815.125,473.9531 Q814.4063,473.6875 813.6875,473.6875 Q812.7813,473.6875 812.0313,474.0781 Q811.2813,474.4688 810.7031,475.3594 Q810.125,476.2344 810.125,477.4375 L810.125,478.7344 Q810.125,480.1875 811.1719,481.1563 Q812.2344,482.125 814.0938,482.125 Q815.2031,482.125 815.9844,481.8125 Q816.4219,481.6406 816.9375,481.125 Q817.25,480.8125 817.4219,480.7188 Q817.5938,480.625 817.8281,480.625 Q818.2188,480.625 818.5156,480.9375 Q818.8281,481.2344 818.8281,481.6406 Q818.8281,482.0469 818.4219,482.5156 Q817.8281,483.2031 816.8906,483.5938 Q815.625,484.125 814.1094,484.125 Q812.3281,484.125 810.9063,483.3906 Q809.75,482.7969 808.9375,481.5313 Q808.125,480.2656 808.125,478.7813 L808.125,477.4219 Q808.125,475.8594 808.8438,474.5156 Q809.5781,473.1563 810.8594,472.4219 Q812.1563,471.6875 813.6094,471.6875 Q814.4688,471.6875 815.2188,471.8906 Q815.9844,472.0938 816.6406,472.5 Z " fill="#000000"/><text fill="#000000" font-family="sans-serif" font-size="20" lengthAdjust="spacing" textLength="54" x="836.5" y="485.7617">Model</text><line style="stroke:#181818;stroke-width:0.5;" x1="750" x2="942" y1="495.1563" y2="495.1563"/><ellipse cx="760" cy="513.2344" fill="none" rx="3" ry="3" style="stroke:#038048;stroke-width:1.0;"/><text fill="#000000" font-family="sans-serif" font-size="20" lengthAdjust="spacing" textLength="167" x="770" y="519.918">modelName: String</text><line style="stroke:#181818;stroke-width:0.5;" x1="750" x2="942" y1="528.3125" y2="528.3125"/></g><!--class Drone--><g id="elem_Drone"><rect codeLine="22" fill="#F1F1F1" height="327.875" id="Drone" rx="2.5" ry="2.5" style="stroke:#181818;stroke-width:0.5;" width="1012" x="7" y="7"/><ellipse cx="482" cy="24.5781" fill="#ADD1B2" rx="12" ry="12" style="stroke:#181818;stroke-width:1.0;"/><path d="M484.1406,19.5 Q484.3281,19.25 484.5469,19.125 Q484.7656,18.9844 485.0156,18.9844 Q485.4531,18.9844 485.7344,19.2969 Q486.0156,19.5938 486.0156,20.3125 L486.0156,22.0156 Q486.0156,22.7344 485.7344,23.0469 Q485.4531,23.3594 485.0156,23.3594 Q484.625,23.3594 484.375,23.125 Q484.125,22.9063 484.0156,22.2969 Q483.9531,21.875 483.7344,21.6563 Q483.3438,21.2188 482.625,20.9531 Q481.9063,20.6875 481.1875,20.6875 Q480.2813,20.6875 479.5313,21.0781 Q478.7813,21.4688 478.2031,22.3594 Q477.625,23.2344 477.625,24.4375 L477.625,25.7344 Q477.625,27.1875 478.6719,28.1563 Q479.7344,29.125 481.5938,29.125 Q482.7031,29.125 483.4844,28.8125 Q483.9219,28.6406 484.4375,28.125 Q484.75,27.8125 484.9219,27.7188 Q485.0938,27.625 485.3281,27.625 Q485.7188,27.625 486.0156,27.9375 Q486.3281,28.2344 486.3281,28.6406 Q486.3281,29.0469 485.9219,29.5156 Q485.3281,30.2031 484.3906,30.5938 Q483.125,31.125 481.6094,31.125 Q479.8281,31.125 478.4063,30.3906 Q477.25,29.7969 476.4375,28.5313 Q475.625,27.2656 475.625,25.7813 L475.625,24.4219 Q475.625,22.8594 476.3438,21.5156 Q477.0781,20.1563 478.3594,19.4219 Q479.6563,18.6875 481.1094,18.6875 Q481.9688,18.6875 482.7188,18.8906 Q483.4844,19.0938 484.1406,19.5 Z " fill="#000000"/><text fill="#000000" font-family="sans-serif" font-size="20" lengthAdjust="spacing" textLength="53" x="504" y="32.7617">Drone</text><line style="stroke:#181818;stroke-width:0.5;" x1="8" x2="1018" y1="42.1563" y2="42.1563"/><rect fill="none" height="6" style="stroke:#C82930;stroke-width:1.0;" width="6" x="15" y="57.2344"/><text fill="#000000" font-family="sans-serif" font-size="20" lengthAdjust="spacing" textLength="70" x="28" y="66.918">id: Long</text><rect fill="none" height="6" style="stroke:#C82930;stroke-width:1.0;" width="6" x="15" y="82.3906"/><text fill="#000000" font-family="sans-serif" font-size="20" lengthAdjust="spacing" textLength="245" x="28" y="92.0742">serialNumber: SerialNumber</text><rect fill="none" height="6" style="stroke:#C82930;stroke-width:1.0;" width="6" x="15" y="107.5469"/><text fill="#000000" font-family="sans-serif" font-size="20" lengthAdjust="spacing" textLength="291" x="28" y="117.2305">removalReason: RemovalReason</text><rect fill="none" height="6" style="stroke:#C82930;stroke-width:1.0;" width="6" x="15" y="132.7031"/><text fill="#000000" font-family="sans-serif" font-size="20" lengthAdjust="spacing" textLength="227" x="28" y="142.3867">droneStatus: DroneStatus</text><rect fill="none" height="6" style="stroke:#C82930;stroke-width:1.0;" width="6" x="15" y="157.8594"/><text fill="#000000" font-family="sans-serif" font-size="20" lengthAdjust="spacing" textLength="119" x="28" y="167.543">model: Model</text><line style="stroke:#181818;stroke-width:0.5;" x1="8" x2="1018" y1="175.9375" y2="175.9375"/><ellipse cx="18" cy="194.0156" fill="#84BE84" rx="3" ry="3" style="stroke:#038048;stroke-width:1.0;"/><text fill="#000000" font-family="sans-serif" font-size="20" lengthAdjust="spacing" textLength="985" x="28" y="200.6992">Drone(serialNumber: SerialNumber, model: Model, removalReason: RemovalReason, droneStatus: DroneStatus)</text><ellipse cx="18" cy="219.1719" fill="#84BE84" rx="3" ry="3" style="stroke:#038048;stroke-width:1.0;"/><text fill="#000000" font-family="sans-serif" font-size="20" lengthAdjust="spacing" textLength="290" x="28" y="225.8555">getSerialNumber(): SerialNumber</text><ellipse cx="18" cy="244.3281" fill="#84BE84" rx="3" ry="3" style="stroke:#038048;stroke-width:1.0;"/><text fill="#000000" font-family="sans-serif" font-size="20" lengthAdjust="spacing" textLength="272" x="28" y="251.0117">getDroneStatus(): DroneStatus</text><ellipse cx="18" cy="269.4844" fill="#84BE84" rx="3" ry="3" style="stroke:#038048;stroke-width:1.0;"/><text fill="#000000" font-family="sans-serif" font-size="20" lengthAdjust="spacing" textLength="162" x="28" y="276.168">getModel(): Model</text><ellipse cx="18" cy="294.6406" fill="#84BE84" rx="3" ry="3" style="stroke:#038048;stroke-width:1.0;"/><text fill="#000000" font-family="sans-serif" font-size="20" lengthAdjust="spacing" textLength="340" x="28" y="301.3242">getRemovalReason(): RemovalReason</text><ellipse cx="18" cy="319.7969" fill="#84BE84" rx="3" ry="3" style="stroke:#038048;stroke-width:1.0;"/><text fill="#000000" font-family="sans-serif" font-size="20" lengthAdjust="spacing" textLength="363" x="28" y="326.4805">setDroneStatus(newStatus: DroneStatus)</text></g><!--reverse link Drone to SerialNumber--><g id="link_Drone_SerialNumber"><path codeLine="37" d="M311.04,343.82 C266.5,381.72 222.76,418.94 189.54,447.2 " fill="none" id="Drone-backto-SerialNumber" style="stroke:#181818;stroke-width:1.0;"/><polygon fill="#181818" points="321.16,335.21,313.9984,336.0538,312.0229,342.9891,319.1845,342.1452,321.16,335.21" style="stroke:#181818;stroke-width:1.0;"/><text fill="#000000" font-family="sans-serif" font-size="20" lengthAdjust="spacing" textLength="70" x="278" y="386.7617">embeds</text><text fill="#000000" font-family="sans-serif" font-size="20" lengthAdjust="spacing" textLength="11" x="301.8347" y="363.4326">1</text></g><!--reverse link Drone to RemovalReason--><g id="link_Drone_RemovalReason"><path codeLine="38" d="M445.36,347.86 C431.31,384.39 417.61,420.02 407.12,447.28 " fill="none" id="Drone-backto-RemovalReason" style="stroke:#181818;stroke-width:1.0;"/><polygon fill="#181818" points="450.13,335.45,444.2408,339.6114,445.8169,346.6481,451.7062,342.4867,450.13,335.45" style="stroke:#181818;stroke-width:1.0;"/><text fill="#000000" font-family="sans-serif" font-size="20" lengthAdjust="spacing" textLength="70" x="437" y="386.7617">embeds</text><text fill="#000000" font-family="sans-serif" font-size="20" lengthAdjust="spacing" textLength="11" x="436.2456" y="363.6827">1</text></g><!--reverse link Drone to Model--><g id="link_Drone_Model"><path codeLine="39" d="M690.02,344.77 C734.7,388.37 778.36,430.99 808.07,459.99 " fill="none" id="Drone-backto-Model" style="stroke:#181818;stroke-width:1.0;"/><polygon fill="none" points="680.48,335.45,681.9765,342.5041,689.0636,343.8358,687.5671,336.7817,680.48,335.45" style="stroke:#181818;stroke-width:1.0;"/><text fill="#000000" font-family="sans-serif" font-size="20" lengthAdjust="spacing" textLength="94" x="739" y="386.7617">references</text><text fill="#000000" font-family="sans-serif" font-size="20" lengthAdjust="spacing" textLength="11" x="676.3135" y="363.6827">1</text></g><!--link Drone to DroneStatus--><g id="link_Drone_DroneStatus"><path codeLine="40" d="M575.87,335.45 C586.75,363.76 597.62,392.02 607.16,416.81 " fill="none" id="Drone-to-DroneStatus" style="stroke:#181818;stroke-width:1.0;"/><polygon fill="#181818" points="609.05,421.73,609.5465,411.8937,607.2522,417.0644,602.0815,414.7701,609.05,421.73" style="stroke:#181818;stroke-width:1.0;"/><text fill="#000000" font-family="sans-serif" font-size="20" lengthAdjust="spacing" textLength="90" x="599" y="386.7617">has status</text></g><!--SRC=[VL9DRy8m3BttLrYSOBJIjcE4AZ7QIMXhaLh4FRI6TRG9Ij9DshJ_ldm8qJ3OgQxVi_sUOtbes94AshMyEc0DDUvetwfdpbJPV24ytWT1KBLKIYXHDBJD-swB0cQp3MrxXDNs7IiLn_0T04GV9aUWOIhuEPKLs76TBv1ApcxK2GjA0XazpXAgC8HIYORjOzC7MTz18ZZ3Kb7LIripNwoNcrG7sNoPhzDydY_CNv5cgqsQwEYfMBsa-Lb7ncjiRUcqCs5EEotLZJcpx1Wdgga9l78DwbWEl1Dl4qx-m2Bn7HkyFcidGoC6irg8KnSOSHOVtnuOmh0aXF-6Xt1hzCICsgCQTXvF_bWpb46LOVZw3S4ACP0puPAU3WDURcKg_TOCFw_gr4_Z7cNqC8AxAFBla03gRoqlEFxHNI5nJN8NGVG6ToYGLNWYH57itHk1Dof1Ei-_]--></g></svg>