<?xml version="1.0" encoding="UTF-8" standalone="no"?><svg xmlns="http://www.w3.org/2000/svg" xmlns:xlink="http://www.w3.org/1999/xlink" contentStyleType="text/css" height="1296px" preserveAspectRatio="none" style="width:2319px;height:1296px;background:#FFFFFF;" version="1.1" viewBox="0 0 2319 1296" width="2319px" zoomAndPan="magnify"><defs/><g><rect fill="#FFFFFF" height="1088.375" style="stroke:#181818;stroke-width:1.0;" width="10" x="54" y="100.1563"/><rect fill="#FFFFFF" height="430.7188" style="stroke:#181818;stroke-width:1.0;" width="10" x="591" y="131.3125"/><rect fill="#FFFFFF" height="587.3438" style="stroke:#181818;stroke-width:1.0;" width="10" x="591" y="601.1875"/><rect fill="#FFFFFF" height="352.4063" style="stroke:#181818;stroke-width:1.0;" width="10" x="1184" y="170.4688"/><rect fill="#FFFFFF" height="509.0313" style="stroke:#181818;stroke-width:1.0;" width="10" x="1184" y="640.3438"/><rect fill="#FFFFFF" height="39.1563" style="stroke:#181818;stroke-width:1.0;" width="10" x="1443" y="209.625"/><rect fill="#FFFFFF" height="39.1563" style="stroke:#181818;stroke-width:1.0;" width="10" x="1443" y="679.5"/><rect fill="#FFFFFF" height="39.1563" style="stroke:#181818;stroke-width:1.0;" width="10" x="1605.5" y="287.9375"/><rect fill="#FFFFFF" height="39.1563" style="stroke:#181818;stroke-width:1.0;" width="10" x="1605.5" y="757.8125"/><rect fill="#FFFFFF" height="39.1563" style="stroke:#181818;stroke-width:1.0;" width="10" x="1800.5" y="366.25"/><rect fill="#FFFFFF" height="39.1563" style="stroke:#181818;stroke-width:1.0;" width="10" x="1800.5" y="836.125"/><rect fill="#FFFFFF" height="39.1563" style="stroke:#181818;stroke-width:1.0;" width="10" x="1800.5" y="992.75"/><rect fill="#FFFFFF" height="39.1563" style="stroke:#181818;stroke-width:1.0;" width="10" x="1988.5" y="444.5625"/><rect fill="#FFFFFF" height="39.1563" style="stroke:#181818;stroke-width:1.0;" width="10" x="1988.5" y="914.4375"/><rect fill="#FFFFFF" height="39.1563" style="stroke:#181818;stroke-width:1.0;" width="10" x="2195.5" y="1071.0625"/><line style="stroke:#181818;stroke-width:0.5;stroke-dasharray:5.0,5.0;" x1="59" x2="59" y1="90.1563" y2="1206.5313"/><line style="stroke:#181818;stroke-width:0.5;stroke-dasharray:5.0,5.0;" x1="595.5" x2="595.5" y1="90.1563" y2="1206.5313"/><line style="stroke:#181818;stroke-width:0.5;stroke-dasharray:5.0,5.0;" x1="1188.5" x2="1188.5" y1="90.1563" y2="1206.5313"/><line style="stroke:#181818;stroke-width:0.5;stroke-dasharray:5.0,5.0;" x1="1447.5" x2="1447.5" y1="90.1563" y2="1206.5313"/><line style="stroke:#181818;stroke-width:0.5;stroke-dasharray:5.0,5.0;" x1="1610.5" x2="1610.5" y1="90.1563" y2="1206.5313"/><line style="stroke:#181818;stroke-width:0.5;stroke-dasharray:5.0,5.0;" x1="1805.5" x2="1805.5" y1="90.1563" y2="1206.5313"/><line style="stroke:#181818;stroke-width:0.5;stroke-dasharray:5.0,5.0;" x1="1993.5" x2="1993.5" y1="90.1563" y2="1206.5313"/><line style="stroke:#181818;stroke-width:0.5;stroke-dasharray:5.0,5.0;" x1="2200.5" x2="2200.5" y1="90.1563" y2="1206.5313"/><text fill="#000000" font-family="sans-serif" font-size="20" lengthAdjust="spacing" textLength="102" x="5" y="85.7617">Drone Tech</text><ellipse cx="59" cy="13.5" fill="#E2E2F0" rx="8" ry="8" style="stroke:#181818;stroke-width:0.5;"/><path d="M59,21.5 L59,48.5 M46,29.5 L72,29.5 M59,48.5 L46,63.5 M59,48.5 L72,63.5 " fill="none" style="stroke:#181818;stroke-width:0.5;"/><text fill="#000000" font-family="sans-serif" font-size="20" lengthAdjust="spacing" textLength="102" x="5" y="1226.293">Drone Tech</text><ellipse cx="59" cy="1239.1875" fill="#E2E2F0" rx="8" ry="8" style="stroke:#181818;stroke-width:0.5;"/><path d="M59,1247.1875 L59,1274.1875 M46,1255.1875 L72,1255.1875 M59,1274.1875 L46,1289.1875 M59,1274.1875 L72,1289.1875 " fill="none" style="stroke:#181818;stroke-width:0.5;"/><rect fill="#E2E2F0" height="39.1563" rx="2.5" ry="2.5" style="stroke:#181818;stroke-width:0.5;" width="211" x="490.5" y="50"/><text fill="#000000" font-family="sans-serif" font-size="20" lengthAdjust="spacing" textLength="197" x="497.5" y="77.7617">:MaintenanceHistoryUI</text><rect fill="#E2E2F0" height="39.1563" rx="2.5" ry="2.5" style="stroke:#181818;stroke-width:0.5;" width="211" x="490.5" y="1205.5313"/><text fill="#000000" font-family="sans-serif" font-size="20" lengthAdjust="spacing" textLength="197" x="497.5" y="1233.293">:MaintenanceHistoryUI</text><rect fill="#E2E2F0" height="39.1563" rx="2.5" ry="2.5" style="stroke:#181818;stroke-width:0.5;" width="277" x="1050.5" y="50"/><text fill="#000000" font-family="sans-serif" font-size="20" lengthAdjust="spacing" textLength="263" x="1057.5" y="77.7617">:MaintenanceHistoryController</text><rect fill="#E2E2F0" height="39.1563" rx="2.5" ry="2.5" style="stroke:#181818;stroke-width:0.5;" width="277" x="1050.5" y="1205.5313"/><text fill="#000000" font-family="sans-serif" font-size="20" lengthAdjust="spacing" textLength="263" x="1057.5" y="1233.293">:MaintenanceHistoryController</text><rect fill="#E2E2F0" height="39.1563" rx="2.5" ry="2.5" style="stroke:#181818;stroke-width:0.5;" width="123" x="1386.5" y="50"/><text fill="#000000" font-family="sans-serif" font-size="20" lengthAdjust="spacing" textLength="109" x="1393.5" y="77.7617">:Persistence</text><rect fill="#E2E2F0" height="39.1563" rx="2.5" ry="2.5" style="stroke:#181818;stroke-width:0.5;" width="123" x="1386.5" y="1205.5313"/><text fill="#000000" font-family="sans-serif" font-size="20" lengthAdjust="spacing" textLength="109" x="1393.5" y="1233.293">:Persistence</text><rect fill="#E2E2F0" height="39.1563" rx="2.5" ry="2.5" style="stroke:#181818;stroke-width:0.5;" width="182" x="1519.5" y="50"/><text fill="#000000" font-family="sans-serif" font-size="20" lengthAdjust="spacing" textLength="168" x="1526.5" y="77.7617">:RepositoryFactory</text><rect fill="#E2E2F0" height="39.1563" rx="2.5" ry="2.5" style="stroke:#181818;stroke-width:0.5;" width="182" x="1519.5" y="1205.5313"/><text fill="#000000" font-family="sans-serif" font-size="20" lengthAdjust="spacing" textLength="168" x="1526.5" y="1233.293">:RepositoryFactory</text><rect fill="#E2E2F0" height="64.3125" rx="2.5" ry="2.5" style="stroke:#181818;stroke-width:0.5;" width="188" x="1711.5" y="24.8438"/><text fill="#000000" font-family="sans-serif" font-size="20" lengthAdjust="spacing" textLength="161" x="1725" y="52.6055">:repositoryFactory</text><text fill="#000000" font-family="sans-serif" font-size="20" lengthAdjust="spacing" textLength="174" x="1718.5" y="77.7617">::RepositoryFactory</text><rect fill="#E2E2F0" height="64.3125" rx="2.5" ry="2.5" style="stroke:#181818;stroke-width:0.5;" width="188" x="1711.5" y="1205.5313"/><text fill="#000000" font-family="sans-serif" font-size="20" lengthAdjust="spacing" textLength="161" x="1725" y="1233.293">:repositoryFactory</text><text fill="#000000" font-family="sans-serif" font-size="20" lengthAdjust="spacing" textLength="174" x="1718.5" y="1258.4492">::RepositoryFactory</text><rect fill="#E2E2F0" height="64.3125" rx="2.5" ry="2.5" style="stroke:#181818;stroke-width:0.5;" width="168" x="1909.5" y="24.8438"/><text fill="#000000" font-family="sans-serif" font-size="20" lengthAdjust="spacing" textLength="145" x="1921" y="52.6055">droneRepository</text><text fill="#000000" font-family="sans-serif" font-size="20" lengthAdjust="spacing" textLength="154" x="1916.5" y="77.7617">:DroneRepository</text><rect fill="#E2E2F0" height="64.3125" rx="2.5" ry="2.5" style="stroke:#181818;stroke-width:0.5;" width="168" x="1909.5" y="1205.5313"/><text fill="#000000" font-family="sans-serif" font-size="20" lengthAdjust="spacing" textLength="145" x="1921" y="1233.293">droneRepository</text><text fill="#000000" font-family="sans-serif" font-size="20" lengthAdjust="spacing" textLength="154" x="1916.5" y="1258.4492">:DroneRepository</text><rect fill="#E2E2F0" height="64.3125" rx="2.5" ry="2.5" style="stroke:#181818;stroke-width:0.5;" width="226" x="2087.5" y="24.8438"/><text fill="#000000" font-family="sans-serif" font-size="20" lengthAdjust="spacing" textLength="205" x="2098" y="52.6055">maintenanceRepository</text><text fill="#000000" font-family="sans-serif" font-size="20" lengthAdjust="spacing" textLength="212" x="2094.5" y="77.7617">:MaintenanceRepository</text><rect fill="#E2E2F0" height="64.3125" rx="2.5" ry="2.5" style="stroke:#181818;stroke-width:0.5;" width="226" x="2087.5" y="1205.5313"/><text fill="#000000" font-family="sans-serif" font-size="20" lengthAdjust="spacing" textLength="205" x="2098" y="1233.293">maintenanceRepository</text><text fill="#000000" font-family="sans-serif" font-size="20" lengthAdjust="spacing" textLength="212" x="2094.5" y="1258.4492">:MaintenanceRepository</text><rect fill="#FFFFFF" height="1088.375" style="stroke:#181818;stroke-width:1.0;" width="10" x="54" y="100.1563"/><rect fill="#FFFFFF" height="430.7188" style="stroke:#181818;stroke-width:1.0;" width="10" x="591" y="131.3125"/><rect fill="#FFFFFF" height="587.3438" style="stroke:#181818;stroke-width:1.0;" width="10" x="591" y="601.1875"/><rect fill="#FFFFFF" height="352.4063" style="stroke:#181818;stroke-width:1.0;" width="10" x="1184" y="170.4688"/><rect fill="#FFFFFF" height="509.0313" style="stroke:#181818;stroke-width:1.0;" width="10" x="1184" y="640.3438"/><rect fill="#FFFFFF" height="39.1563" style="stroke:#181818;stroke-width:1.0;" width="10" x="1443" y="209.625"/><rect fill="#FFFFFF" height="39.1563" style="stroke:#181818;stroke-width:1.0;" width="10" x="1443" y="679.5"/><rect fill="#FFFFFF" height="39.1563" style="stroke:#181818;stroke-width:1.0;" width="10" x="1605.5" y="287.9375"/><rect fill="#FFFFFF" height="39.1563" style="stroke:#181818;stroke-width:1.0;" width="10" x="1605.5" y="757.8125"/><rect fill="#FFFFFF" height="39.1563" style="stroke:#181818;stroke-width:1.0;" width="10" x="1800.5" y="366.25"/><rect fill="#FFFFFF" height="39.1563" style="stroke:#181818;stroke-width:1.0;" width="10" x="1800.5" y="836.125"/><rect fill="#FFFFFF" height="39.1563" style="stroke:#181818;stroke-width:1.0;" width="10" x="1800.5" y="992.75"/><rect fill="#FFFFFF" height="39.1563" style="stroke:#181818;stroke-width:1.0;" width="10" x="1988.5" y="444.5625"/><rect fill="#FFFFFF" height="39.1563" style="stroke:#181818;stroke-width:1.0;" width="10" x="1988.5" y="914.4375"/><rect fill="#FFFFFF" height="39.1563" style="stroke:#181818;stroke-width:1.0;" width="10" x="2195.5" y="1071.0625"/><polygon fill="#181818" points="579,127.3125,589,131.3125,579,135.3125,583,131.3125" style="stroke:#181818;stroke-width:1.0;"/><line style="stroke:#181818;stroke-width:1.0;" x1="64" x2="585" y1="131.3125" y2="131.3125"/><text fill="#000000" font-family="sans-serif" font-size="20" font-weight="bold" lengthAdjust="spacing" textLength="11" x="71" y="124.918">1</text><text fill="#000000" font-family="sans-serif" font-size="20" lengthAdjust="spacing" textLength="185" x="86" y="124.918">request list of drones</text><polygon fill="#181818" points="1172,166.4688,1182,170.4688,1172,174.4688,1176,170.4688" style="stroke:#181818;stroke-width:1.0;"/><line style="stroke:#181818;stroke-width:1.0;" x1="601" x2="1178" y1="170.4688" y2="170.4688"/><text fill="#000000" font-family="sans-serif" font-size="20" font-weight="bold" lengthAdjust="spacing" textLength="11" x="608" y="164.0742">2</text><text fill="#000000" font-family="sans-serif" font-size="20" lengthAdjust="spacing" textLength="126" x="623" y="164.0742">getDroneList()</text><polygon fill="#181818" points="1431,205.625,1441,209.625,1431,213.625,1435,209.625" style="stroke:#181818;stroke-width:1.0;"/><line style="stroke:#181818;stroke-width:1.0;stroke-dasharray:2.0,2.0;" x1="1194" x2="1437" y1="209.625" y2="209.625"/><text fill="#000000" font-family="sans-serif" font-size="20" font-weight="bold" lengthAdjust="spacing" textLength="11" x="1201" y="203.2305">3</text><text fill="#000000" font-family="sans-serif" font-size="20" lengthAdjust="spacing" textLength="204" x="1216" y="203.2305">getRepositoryFactory()</text><polygon fill="#181818" points="1205,244.7813,1195,248.7813,1205,252.7813,1201,248.7813" style="stroke:#181818;stroke-width:1.0;"/><line style="stroke:#181818;stroke-width:1.0;stroke-dasharray:2.0,2.0;" x1="1199" x2="1447" y1="248.7813" y2="248.7813"/><text fill="#000000" font-family="sans-serif" font-size="20" font-weight="bold" lengthAdjust="spacing" textLength="11" x="1211" y="242.3867">4</text><text fill="#000000" font-family="sans-serif" font-size="20" lengthAdjust="spacing" textLength="155" x="1226" y="242.3867">repositoryFactory</text><polygon fill="#181818" points="1593.5,283.9375,1603.5,287.9375,1593.5,291.9375,1597.5,287.9375" style="stroke:#181818;stroke-width:1.0;"/><line style="stroke:#181818;stroke-width:1.0;" x1="1194" x2="1599.5" y1="287.9375" y2="287.9375"/><text fill="#000000" font-family="sans-serif" font-size="20" font-weight="bold" lengthAdjust="spacing" textLength="11" x="1201" y="281.543">5</text><text fill="#000000" font-family="sans-serif" font-size="20" lengthAdjust="spacing" textLength="116" x="1216" y="281.543">getInstance()</text><polygon fill="#181818" points="1205,323.0938,1195,327.0938,1205,331.0938,1201,327.0938" style="stroke:#181818;stroke-width:1.0;"/><line style="stroke:#181818;stroke-width:1.0;stroke-dasharray:2.0,2.0;" x1="1199" x2="1609.5" y1="327.0938" y2="327.0938"/><text fill="#000000" font-family="sans-serif" font-size="20" font-weight="bold" lengthAdjust="spacing" textLength="11" x="1211" y="320.6992">6</text><text fill="#000000" font-family="sans-serif" font-size="20" lengthAdjust="spacing" textLength="103" x="1226" y="320.6992">repositories</text><polygon fill="#181818" points="1788.5,362.25,1798.5,366.25,1788.5,370.25,1792.5,366.25" style="stroke:#181818;stroke-width:1.0;"/><line style="stroke:#181818;stroke-width:1.0;" x1="1194" x2="1794.5" y1="366.25" y2="366.25"/><text fill="#000000" font-family="sans-serif" font-size="20" font-weight="bold" lengthAdjust="spacing" textLength="11" x="1201" y="359.8555">7</text><text fill="#000000" font-family="sans-serif" font-size="20" lengthAdjust="spacing" textLength="190" x="1216" y="359.8555">getDroneRepository()</text><polygon fill="#181818" points="1205,401.4063,1195,405.4063,1205,409.4063,1201,405.4063" style="stroke:#181818;stroke-width:1.0;"/><line style="stroke:#181818;stroke-width:1.0;stroke-dasharray:2.0,2.0;" x1="1199" x2="1804.5" y1="405.4063" y2="405.4063"/><text fill="#000000" font-family="sans-serif" font-size="20" font-weight="bold" lengthAdjust="spacing" textLength="11" x="1211" y="399.0117">8</text><text fill="#000000" font-family="sans-serif" font-size="20" lengthAdjust="spacing" textLength="145" x="1226" y="399.0117">droneRepository</text><polygon fill="#181818" points="1976.5,440.5625,1986.5,444.5625,1976.5,448.5625,1980.5,444.5625" style="stroke:#181818;stroke-width:1.0;"/><line style="stroke:#181818;stroke-width:1.0;" x1="1194" x2="1982.5" y1="444.5625" y2="444.5625"/><text fill="#000000" font-family="sans-serif" font-size="20" font-weight="bold" lengthAdjust="spacing" textLength="11" x="1201" y="438.168">9</text><text fill="#000000" font-family="sans-serif" font-size="20" lengthAdjust="spacing" textLength="182" x="1216" y="438.168">findAllActiveDrones()</text><polygon fill="#181818" points="1205,479.7188,1195,483.7188,1205,487.7188,1201,483.7188" style="stroke:#181818;stroke-width:1.0;"/><line style="stroke:#181818;stroke-width:1.0;stroke-dasharray:2.0,2.0;" x1="1199" x2="1992.5" y1="483.7188" y2="483.7188"/><text fill="#000000" font-family="sans-serif" font-size="20" font-weight="bold" lengthAdjust="spacing" textLength="22" x="1211" y="477.3242">10</text><text fill="#000000" font-family="sans-serif" font-size="20" lengthAdjust="spacing" textLength="81" x="1237" y="477.3242">droneList</text><polygon fill="#181818" points="612,518.875,602,522.875,612,526.875,608,522.875" style="stroke:#181818;stroke-width:1.0;"/><line style="stroke:#181818;stroke-width:1.0;stroke-dasharray:2.0,2.0;" x1="606" x2="1188" y1="522.875" y2="522.875"/><text fill="#000000" font-family="sans-serif" font-size="20" font-weight="bold" lengthAdjust="spacing" textLength="22" x="618" y="516.4805">11</text><text fill="#000000" font-family="sans-serif" font-size="20" lengthAdjust="spacing" textLength="81" x="644" y="516.4805">droneList</text><polygon fill="#181818" points="75,558.0313,65,562.0313,75,566.0313,71,562.0313" style="stroke:#181818;stroke-width:1.0;"/><line style="stroke:#181818;stroke-width:1.0;stroke-dasharray:2.0,2.0;" x1="69" x2="595" y1="562.0313" y2="562.0313"/><text fill="#000000" font-family="sans-serif" font-size="20" font-weight="bold" lengthAdjust="spacing" textLength="22" x="81" y="555.6367">12</text><text fill="#000000" font-family="sans-serif" font-size="20" lengthAdjust="spacing" textLength="147" x="107" y="555.6367">display drone list</text><polygon fill="#181818" points="579,597.1875,589,601.1875,579,605.1875,583,601.1875" style="stroke:#181818;stroke-width:1.0;"/><line style="stroke:#181818;stroke-width:1.0;" x1="64" x2="585" y1="601.1875" y2="601.1875"/><text fill="#000000" font-family="sans-serif" font-size="20" font-weight="bold" lengthAdjust="spacing" textLength="22" x="71" y="594.793">13</text><text fill="#000000" font-family="sans-serif" font-size="20" lengthAdjust="spacing" textLength="482" x="97" y="594.793">select drone and input date range (startDate, endDate)</text><polygon fill="#181818" points="1172,636.3438,1182,640.3438,1172,644.3438,1176,640.3438" style="stroke:#181818;stroke-width:1.0;"/><line style="stroke:#181818;stroke-width:1.0;" x1="601" x2="1178" y1="640.3438" y2="640.3438"/><text fill="#000000" font-family="sans-serif" font-size="20" font-weight="bold" lengthAdjust="spacing" textLength="22" x="608" y="633.9492">14</text><text fill="#000000" font-family="sans-serif" font-size="20" lengthAdjust="spacing" textLength="538" x="634" y="633.9492">getMaintenanceHistory(selectedDroneId, startDate, endDate)</text><polygon fill="#181818" points="1431,675.5,1441,679.5,1431,683.5,1435,679.5" style="stroke:#181818;stroke-width:1.0;"/><line style="stroke:#181818;stroke-width:1.0;stroke-dasharray:2.0,2.0;" x1="1194" x2="1437" y1="679.5" y2="679.5"/><text fill="#000000" font-family="sans-serif" font-size="20" font-weight="bold" lengthAdjust="spacing" textLength="22" x="1201" y="673.1055">15</text><text fill="#000000" font-family="sans-serif" font-size="20" lengthAdjust="spacing" textLength="204" x="1227" y="673.1055">getRepositoryFactory()</text><polygon fill="#181818" points="1205,714.6563,1195,718.6563,1205,722.6563,1201,718.6563" style="stroke:#181818;stroke-width:1.0;"/><line style="stroke:#181818;stroke-width:1.0;stroke-dasharray:2.0,2.0;" x1="1199" x2="1447" y1="718.6563" y2="718.6563"/><text fill="#000000" font-family="sans-serif" font-size="20" font-weight="bold" lengthAdjust="spacing" textLength="22" x="1211" y="712.2617">16</text><text fill="#000000" font-family="sans-serif" font-size="20" lengthAdjust="spacing" textLength="155" x="1237" y="712.2617">repositoryFactory</text><polygon fill="#181818" points="1593.5,753.8125,1603.5,757.8125,1593.5,761.8125,1597.5,757.8125" style="stroke:#181818;stroke-width:1.0;"/><line style="stroke:#181818;stroke-width:1.0;" x1="1194" x2="1599.5" y1="757.8125" y2="757.8125"/><text fill="#000000" font-family="sans-serif" font-size="20" font-weight="bold" lengthAdjust="spacing" textLength="22" x="1201" y="751.418">17</text><text fill="#000000" font-family="sans-serif" font-size="20" lengthAdjust="spacing" textLength="116" x="1227" y="751.418">getInstance()</text><polygon fill="#181818" points="1205,792.9688,1195,796.9688,1205,800.9688,1201,796.9688" style="stroke:#181818;stroke-width:1.0;"/><line style="stroke:#181818;stroke-width:1.0;stroke-dasharray:2.0,2.0;" x1="1199" x2="1609.5" y1="796.9688" y2="796.9688"/><text fill="#000000" font-family="sans-serif" font-size="20" font-weight="bold" lengthAdjust="spacing" textLength="22" x="1211" y="790.5742">18</text><text fill="#000000" font-family="sans-serif" font-size="20" lengthAdjust="spacing" textLength="103" x="1237" y="790.5742">repositories</text><polygon fill="#181818" points="1788.5,832.125,1798.5,836.125,1788.5,840.125,1792.5,836.125" style="stroke:#181818;stroke-width:1.0;"/><line style="stroke:#181818;stroke-width:1.0;" x1="1194" x2="1794.5" y1="836.125" y2="836.125"/><text fill="#000000" font-family="sans-serif" font-size="20" font-weight="bold" lengthAdjust="spacing" textLength="22" x="1201" y="829.7305">19</text><text fill="#000000" font-family="sans-serif" font-size="20" lengthAdjust="spacing" textLength="190" x="1227" y="829.7305">getDroneRepository()</text><polygon fill="#181818" points="1205,871.2813,1195,875.2813,1205,879.2813,1201,875.2813" style="stroke:#181818;stroke-width:1.0;"/><line style="stroke:#181818;stroke-width:1.0;stroke-dasharray:2.0,2.0;" x1="1199" x2="1804.5" y1="875.2813" y2="875.2813"/><text fill="#000000" font-family="sans-serif" font-size="20" font-weight="bold" lengthAdjust="spacing" textLength="22" x="1211" y="868.8867">20</text><text fill="#000000" font-family="sans-serif" font-size="20" lengthAdjust="spacing" textLength="145" x="1237" y="868.8867">droneRepository</text><polygon fill="#181818" points="1976.5,910.4375,1986.5,914.4375,1976.5,918.4375,1980.5,914.4375" style="stroke:#181818;stroke-width:1.0;"/><line style="stroke:#181818;stroke-width:1.0;" x1="1194" x2="1982.5" y1="914.4375" y2="914.4375"/><text fill="#000000" font-family="sans-serif" font-size="20" font-weight="bold" lengthAdjust="spacing" textLength="22" x="1201" y="908.043">21</text><text fill="#000000" font-family="sans-serif" font-size="20" lengthAdjust="spacing" textLength="282" x="1227" y="908.043">findDroneById(selectedDroneId)</text><polygon fill="#181818" points="1205,949.5938,1195,953.5938,1205,957.5938,1201,953.5938" style="stroke:#181818;stroke-width:1.0;"/><line style="stroke:#181818;stroke-width:1.0;stroke-dasharray:2.0,2.0;" x1="1199" x2="1992.5" y1="953.5938" y2="953.5938"/><text fill="#000000" font-family="sans-serif" font-size="20" font-weight="bold" lengthAdjust="spacing" textLength="22" x="1211" y="947.1992">22</text><text fill="#000000" font-family="sans-serif" font-size="20" lengthAdjust="spacing" textLength="50" x="1237" y="947.1992">drone</text><polygon fill="#181818" points="1788.5,988.75,1798.5,992.75,1788.5,996.75,1792.5,992.75" style="stroke:#181818;stroke-width:1.0;"/><line style="stroke:#181818;stroke-width:1.0;" x1="1194" x2="1794.5" y1="992.75" y2="992.75"/><text fill="#000000" font-family="sans-serif" font-size="20" font-weight="bold" lengthAdjust="spacing" textLength="22" x="1201" y="986.3555">23</text><text fill="#000000" font-family="sans-serif" font-size="20" lengthAdjust="spacing" textLength="248" x="1227" y="986.3555">getMaintenanceRepository()</text><polygon fill="#181818" points="1205,1027.9063,1195,1031.9063,1205,1035.9063,1201,1031.9063" style="stroke:#181818;stroke-width:1.0;"/><line style="stroke:#181818;stroke-width:1.0;stroke-dasharray:2.0,2.0;" x1="1199" x2="1804.5" y1="1031.9063" y2="1031.9063"/><text fill="#000000" font-family="sans-serif" font-size="20" font-weight="bold" lengthAdjust="spacing" textLength="22" x="1211" y="1025.5117">24</text><text fill="#000000" font-family="sans-serif" font-size="20" lengthAdjust="spacing" textLength="205" x="1237" y="1025.5117">maintenanceRepository</text><polygon fill="#181818" points="2183.5,1067.0625,2193.5,1071.0625,2183.5,1075.0625,2187.5,1071.0625" style="stroke:#181818;stroke-width:1.0;"/><line style="stroke:#181818;stroke-width:1.0;" x1="1194" x2="2189.5" y1="1071.0625" y2="1071.0625"/><text fill="#000000" font-family="sans-serif" font-size="20" font-weight="bold" lengthAdjust="spacing" textLength="22" x="1201" y="1064.668">25</text><text fill="#000000" font-family="sans-serif" font-size="20" lengthAdjust="spacing" textLength="484" x="1227" y="1064.668">findByDroneAndDateRange(drone, startDate, endDate)</text><polygon fill="#181818" points="1205,1106.2188,1195,1110.2188,1205,1114.2188,1201,1110.2188" style="stroke:#181818;stroke-width:1.0;"/><line style="stroke:#181818;stroke-width:1.0;stroke-dasharray:2.0,2.0;" x1="1199" x2="2199.5" y1="1110.2188" y2="1110.2188"/><text fill="#000000" font-family="sans-serif" font-size="20" font-weight="bold" lengthAdjust="spacing" textLength="22" x="1211" y="1103.8242">26</text><text fill="#000000" font-family="sans-serif" font-size="20" lengthAdjust="spacing" textLength="215" x="1237" y="1103.8242">maintenanceRecordsList</text><polygon fill="#181818" points="612,1145.375,602,1149.375,612,1153.375,608,1149.375" style="stroke:#181818;stroke-width:1.0;"/><line style="stroke:#181818;stroke-width:1.0;stroke-dasharray:2.0,2.0;" x1="606" x2="1188" y1="1149.375" y2="1149.375"/><text fill="#000000" font-family="sans-serif" font-size="20" font-weight="bold" lengthAdjust="spacing" textLength="22" x="618" y="1142.9805">27</text><text fill="#000000" font-family="sans-serif" font-size="20" lengthAdjust="spacing" textLength="215" x="644" y="1142.9805">maintenanceRecordsList</text><polygon fill="#181818" points="70,1184.5313,60,1188.5313,70,1192.5313,66,1188.5313" style="stroke:#181818;stroke-width:1.0;"/><line style="stroke:#181818;stroke-width:1.0;stroke-dasharray:2.0,2.0;" x1="64" x2="595" y1="1188.5313" y2="1188.5313"/><text fill="#000000" font-family="sans-serif" font-size="20" font-weight="bold" lengthAdjust="spacing" textLength="22" x="76" y="1182.1367">28</text><text fill="#000000" font-family="sans-serif" font-size="20" lengthAdjust="spacing" textLength="241" x="102" y="1182.1367">display maintenance history</text><!--SRC=[xLLDZzem4BtpAqPSoagBLFN8OILsOTj8V0d2hTBAJGQmC3QrdQtel-blwH_hsCvkd13Aghtqq5lal3SpdlTcRFPS7fbc1w6oFUQGuuOLmZugQLVyEyA7zntp0e4Zo_PiYojx4WWQCylaLc04C3kMgszSRc73XC5EXnLMoUBm1JLzPrPfw8wqaWWfPhikC0EZj4DSopD-PD92Tp1bN5gKJ6RuYHkYdDQ9HwwJgyW7Abih8L1xnaEwd3Gu2zI6i4WS3rcCbwi6P8b7PRWBz-XBFddWShoODv6wYVmi1x-ZFwsIsSV9E9tFwe5orvAAHr56zPFGgULyDdvoWUhiGzM6MenfsxcFD1qcipH4SghmPsRH2T5v1mlD3yYrkeN253z_QAx0A46vB0D1ZMFa4F3r6d2Q0vfCYHtfEqgXVqSYmO2iyRL0Opq1rAR4Lwb8IN18mZk9YB55wwyy8KRlXlw-Ohs6TE21VM8unGBZhDDrffSM0hvVfJeJZJ0vrbcl-Uw2S25V8kd-rCrwcc0CA85jYJZTlPOZK9f9AdT43Qdks98ryXESnOWgQVYhfPWeKbHMvJWAik4o7menT3pqjPbwIP4_8QOs2t4Qrqk8cB7ItaiNAC4MpaEkpjG1kJaATWe4RxrEX2VBaRlNBvukNGkgX2DmQL2x0pSq-fa9vPtEB3EnjGqAsdibYycSuCV2EXnjH5g723qoYROZEhW5bBdxkBbY_VD5rWjvCFUDJl9RQ8lwVqp-pJ7n9TsVahmfun_Do_LPkT2PrWVWB_hJ-j2ykKlLerDswVxakp8CRbwwuUdv2ryrU_H-GHptKgsPqhavto7nCzXSEs_XNzv14HjsOQ8RooXMDFq5]--></g></svg>