<?xml version="1.0" encoding="UTF-8" standalone="no"?><svg xmlns="http://www.w3.org/2000/svg" xmlns:xlink="http://www.w3.org/1999/xlink" contentStyleType="text/css" height="2400px" preserveAspectRatio="none" style="width:3028px;height:2400px;background:#FFFFFF;" version="1.1" viewBox="0 0 3028 2400" width="3028px" zoomAndPan="magnify"><defs/><g><!--cluster Domain--><g id="cluster_Domain"><path d="M972.5,1104.8945 L1044.5,1104.8945 A3.75,3.75 0 0 1 1047,1107.3945 L1054,1136.0508 L3018.5,1136.0508 A2.5,2.5 0 0 1 3021,1138.5508 L3021,2391.3945 A2.5,2.5 0 0 1 3018.5,2393.8945 L972.5,2393.8945 A2.5,2.5 0 0 1 970,2391.3945 L970,1107.3945 A2.5,2.5 0 0 1 972.5,1104.8945 " fill="#DDDDDD" style="stroke:#000000;stroke-width:1.5;"/><line style="stroke:#000000;stroke-width:1.5;" x1="970" x2="1054" y1="1136.0508" y2="1136.0508"/><text fill="#000000" font-family="sans-serif" font-size="20" font-weight="bold" lengthAdjust="spacing" textLength="71" x="974" y="1127.6563">Domain</text></g><!--cluster DTO--><g id="cluster_DTO"><path d="M1736.5,1182.3945 L1780.5,1182.3945 A3.75,3.75 0 0 1 1783,1184.8945 L1790,1213.5508 L2253.5,1213.5508 A2.5,2.5 0 0 1 2256,1216.0508 L2256,1315.8945 A2.5,2.5 0 0 1 2253.5,1318.3945 L1736.5,1318.3945 A2.5,2.5 0 0 1 1734,1315.8945 L1734,1184.8945 A2.5,2.5 0 0 1 1736.5,1182.3945 " fill="#DDDDDD" style="stroke:#000000;stroke-width:1.5;"/><line style="stroke:#000000;stroke-width:1.5;" x1="1734" x2="1790" y1="1213.5508" y2="1213.5508"/><text fill="#000000" font-family="sans-serif" font-size="20" font-weight="bold" lengthAdjust="spacing" textLength="43" x="1738" y="1205.1563">DTO</text></g><!--cluster Mapper--><g id="cluster_Mapper"><path d="M1736.5,1400.8945 L1808.5,1400.8945 A3.75,3.75 0 0 1 1811,1403.3945 L1818,1432.0508 L2994.5,1432.0508 A2.5,2.5 0 0 1 2997,1434.5508 L2997,1585.3945 A2.5,2.5 0 0 1 2994.5,1587.8945 L1736.5,1587.8945 A2.5,2.5 0 0 1 1734,1585.3945 L1734,1403.3945 A2.5,2.5 0 0 1 1736.5,1400.8945 " fill="#DDDDDD" style="stroke:#000000;stroke-width:1.5;"/><line style="stroke:#000000;stroke-width:1.5;" x1="1734" x2="1818" y1="1432.0508" y2="1432.0508"/><text fill="#000000" font-family="sans-serif" font-size="20" font-weight="bold" lengthAdjust="spacing" textLength="71" x="1738" y="1423.6563">Mapper</text></g><!--cluster Repository --><g id="cluster_Repository "><path d="M996.5,1156.8945 L1106.5,1156.8945 A3.75,3.75 0 0 1 1109,1159.3945 L1116,1188.0508 L1707.5,1188.0508 A2.5,2.5 0 0 1 1710,1190.5508 L1710,1901.3945 A2.5,2.5 0 0 1 1707.5,1903.8945 L996.5,1903.8945 A2.5,2.5 0 0 1 994,1901.3945 L994,1159.3945 A2.5,2.5 0 0 1 996.5,1156.8945 " fill="#DDDDDD" style="stroke:#000000;stroke-width:1.5;"/><line style="stroke:#000000;stroke-width:1.5;" x1="994" x2="1116" y1="1188.0508" y2="1188.0508"/><text fill="#000000" font-family="sans-serif" font-size="20" font-weight="bold" lengthAdjust="spacing" textLength="103" x="998" y="1179.6563">Repository</text></g><!--cluster UI--><g id="cluster_UI"><path d="M2092.5,6.8945 L2112.5,6.8945 A3.75,3.75 0 0 1 2115,9.3945 L2122,38.0508 L2431.5,38.0508 A2.5,2.5 0 0 1 2434,40.5508 L2434,140.3945 A2.5,2.5 0 0 1 2431.5,142.8945 L2092.5,142.8945 A2.5,2.5 0 0 1 2090,140.3945 L2090,9.3945 A2.5,2.5 0 0 1 2092.5,6.8945 " fill="#DDDDDD" style="stroke:#000000;stroke-width:1.5;"/><line style="stroke:#000000;stroke-width:1.5;" x1="2090" x2="2122" y1="38.0508" y2="38.0508"/><text fill="#000000" font-family="sans-serif" font-size="20" font-weight="bold" lengthAdjust="spacing" textLength="19" x="2094" y="29.6563">UI</text></g><!--cluster Controller--><g id="cluster_Controller"><path d="M2010.5,175.8945 L2105.5,175.8945 A3.75,3.75 0 0 1 2108,178.3945 L2115,207.0508 L2513.5,207.0508 A2.5,2.5 0 0 1 2516,209.5508 L2516,360.3945 A2.5,2.5 0 0 1 2513.5,362.8945 L2010.5,362.8945 A2.5,2.5 0 0 1 2008,360.3945 L2008,178.3945 A2.5,2.5 0 0 1 2010.5,175.8945 " fill="#DDDDDD" style="stroke:#000000;stroke-width:1.5;"/><line style="stroke:#000000;stroke-width:1.5;" x1="2008" x2="2115" y1="207.0508" y2="207.0508"/><text fill="#000000" font-family="sans-serif" font-size="20" font-weight="bold" lengthAdjust="spacing" textLength="94" x="2012" y="198.6563">Controller</text></g><!--cluster persistence.impl.jpa--><g id="cluster_persistence.impl.jpa"><path d="M8.5,616.8945 L198.5,616.8945 A3.75,3.75 0 0 1 201,619.3945 L208,648.0508 L461.5,648.0508 A2.5,2.5 0 0 1 464,650.5508 L464,1019.8945 A2.5,2.5 0 0 1 461.5,1022.3945 L8.5,1022.3945 A2.5,2.5 0 0 1 6,1019.8945 L6,619.3945 A2.5,2.5 0 0 1 8.5,616.8945 " fill="#DDDDDD" style="stroke:#000000;stroke-width:1.5;"/><line style="stroke:#000000;stroke-width:1.5;" x1="6" x2="208" y1="648.0508" y2="648.0508"/><text fill="#000000" font-family="sans-serif" font-size="20" font-weight="bold" lengthAdjust="spacing" textLength="189" x="10" y="639.6563">persistence.impl.jpa</text></g><!--cluster persistence.impl.inmemory--><g id="cluster_persistence.impl.inmemory"><path d="M490.5,860.8945 L745.5,860.8945 A3.75,3.75 0 0 1 748,863.3945 L755,892.0508 L943.5,892.0508 A2.5,2.5 0 0 1 946,894.5508 L946,1315.8945 A2.5,2.5 0 0 1 943.5,1318.3945 L490.5,1318.3945 A2.5,2.5 0 0 1 488,1315.8945 L488,863.3945 A2.5,2.5 0 0 1 490.5,860.8945 " fill="#DDDDDD" style="stroke:#000000;stroke-width:1.5;"/><line style="stroke:#000000;stroke-width:1.5;" x1="488" x2="755" y1="892.0508" y2="892.0508"/><text fill="#000000" font-family="sans-serif" font-size="20" font-weight="bold" lengthAdjust="spacing" textLength="254" x="492" y="883.6563">persistence.impl.inmemory</text></g><!--cluster persistence--><g id="cluster_persistence"><path d="M778.5,421.8945 L889.5,421.8945 A3.75,3.75 0 0 1 892,424.3945 L899,453.0508 L1201.5,453.0508 A2.5,2.5 0 0 1 1204,455.5508 L1204,555.3945 A2.5,2.5 0 0 1 1201.5,557.8945 L778.5,557.8945 A2.5,2.5 0 0 1 776,555.3945 L776,424.3945 A2.5,2.5 0 0 1 778.5,421.8945 " fill="#DDDDDD" style="stroke:#000000;stroke-width:1.5;"/><line style="stroke:#000000;stroke-width:1.5;" x1="776" x2="899" y1="453.0508" y2="453.0508"/><text fill="#000000" font-family="sans-serif" font-size="20" font-weight="bold" lengthAdjust="spacing" textLength="110" x="780" y="444.6563">persistence</text></g><!--class Customer--><g id="elem_Customer"><rect codeLine="45" fill="#F1F1F1" height="126.625" id="Customer" rx="2.5" ry="2.5" style="stroke:#181818;stroke-width:0.5;" width="501" x="1726.5" y="1710.8945"/><ellipse cx="1930" cy="1741.0508" fill="#ADD1B2" rx="12" ry="12" style="stroke:#181818;stroke-width:1.0;"/><path d="M1932.1406,1735.9727 Q1932.3281,1735.7227 1932.5469,1735.5977 Q1932.7656,1735.457 1933.0156,1735.457 Q1933.4531,1735.457 1933.7344,1735.7695 Q1934.0156,1736.0664 1934.0156,1736.7852 L1934.0156,1738.4883 Q1934.0156,1739.207 1933.7344,1739.5195 Q1933.4531,1739.832 1933.0156,1739.832 Q1932.625,1739.832 1932.375,1739.5977 Q1932.125,1739.3789 1932.0156,1738.7695 Q1931.9531,1738.3477 1931.7344,1738.1289 Q1931.3438,1737.6914 1930.625,1737.4258 Q1929.9063,1737.1602 1929.1875,1737.1602 Q1928.2813,1737.1602 1927.5313,1737.5508 Q1926.7813,1737.9414 1926.2031,1738.832 Q1925.625,1739.707 1925.625,1740.9102 L1925.625,1742.207 Q1925.625,1743.6602 1926.6719,1744.6289 Q1927.7344,1745.5977 1929.5938,1745.5977 Q1930.7031,1745.5977 1931.4844,1745.2852 Q1931.9219,1745.1133 1932.4375,1744.5977 Q1932.75,1744.2852 1932.9219,1744.1914 Q1933.0938,1744.0977 1933.3281,1744.0977 Q1933.7188,1744.0977 1934.0156,1744.4102 Q1934.3281,1744.707 1934.3281,1745.1133 Q1934.3281,1745.5195 1933.9219,1745.9883 Q1933.3281,1746.6758 1932.3906,1747.0664 Q1931.125,1747.5977 1929.6094,1747.5977 Q1927.8281,1747.5977 1926.4063,1746.8633 Q1925.25,1746.2695 1924.4375,1745.0039 Q1923.625,1743.7383 1923.625,1742.2539 L1923.625,1740.8945 Q1923.625,1739.332 1924.3438,1737.9883 Q1925.0781,1736.6289 1926.3594,1735.8945 Q1927.6563,1735.1602 1929.1094,1735.1602 Q1929.9688,1735.1602 1930.7188,1735.3633 Q1931.4844,1735.5664 1932.1406,1735.9727 Z " fill="#000000"/><text fill="#000000" font-family="sans-serif" font-size="20" font-style="italic" lengthAdjust="spacing" textLength="71" x="1959" y="1736.6563">«Entity»</text><text fill="#000000" font-family="sans-serif" font-size="20" lengthAdjust="spacing" textLength="85" x="1952" y="1761.8125">Customer</text><line style="stroke:#181818;stroke-width:0.5;" x1="1727.5" x2="2226.5" y1="1771.207" y2="1771.207"/><line style="stroke:#181818;stroke-width:0.5;" x1="1727.5" x2="2226.5" y1="1779.207" y2="1779.207"/><ellipse cx="1737.5" cy="1797.2852" fill="#84BE84" rx="3" ry="3" style="stroke:#038048;stroke-width:1.0;"/><text fill="#000000" font-family="sans-serif" font-size="20" lengthAdjust="spacing" textLength="383" x="1747.5" y="1803.9688">Customer(name, address, vat, status, type)</text><ellipse cx="1737.5" cy="1822.4414" fill="#84BE84" rx="3" ry="3" style="stroke:#038048;stroke-width:1.0;"/><text fill="#000000" font-family="sans-serif" font-size="20" lengthAdjust="spacing" textLength="474" x="1747.5" y="1829.125">getRepresentatives() : List&lt;CustomerRepresentative&gt;</text></g><!--class CustomerRepresentative--><g id="elem_CustomerRepresentative"><rect codeLine="50" fill="#F1F1F1" height="101.4688" id="CustomerRepresentative" rx="2.5" ry="2.5" style="stroke:#181818;stroke-width:0.5;" width="576" x="1000" y="1976.8945"/><ellipse cx="1175" cy="2007.0508" fill="#ADD1B2" rx="12" ry="12" style="stroke:#181818;stroke-width:1.0;"/><path d="M1177.1406,2001.9727 Q1177.3281,2001.7227 1177.5469,2001.5977 Q1177.7656,2001.457 1178.0156,2001.457 Q1178.4531,2001.457 1178.7344,2001.7695 Q1179.0156,2002.0664 1179.0156,2002.7852 L1179.0156,2004.4883 Q1179.0156,2005.207 1178.7344,2005.5195 Q1178.4531,2005.832 1178.0156,2005.832 Q1177.625,2005.832 1177.375,2005.5977 Q1177.125,2005.3789 1177.0156,2004.7695 Q1176.9531,2004.3477 1176.7344,2004.1289 Q1176.3438,2003.6914 1175.625,2003.4258 Q1174.9063,2003.1602 1174.1875,2003.1602 Q1173.2813,2003.1602 1172.5313,2003.5508 Q1171.7813,2003.9414 1171.2031,2004.832 Q1170.625,2005.707 1170.625,2006.9102 L1170.625,2008.207 Q1170.625,2009.6602 1171.6719,2010.6289 Q1172.7344,2011.5977 1174.5938,2011.5977 Q1175.7031,2011.5977 1176.4844,2011.2852 Q1176.9219,2011.1133 1177.4375,2010.5977 Q1177.75,2010.2852 1177.9219,2010.1914 Q1178.0938,2010.0977 1178.3281,2010.0977 Q1178.7188,2010.0977 1179.0156,2010.4102 Q1179.3281,2010.707 1179.3281,2011.1133 Q1179.3281,2011.5195 1178.9219,2011.9883 Q1178.3281,2012.6758 1177.3906,2013.0664 Q1176.125,2013.5977 1174.6094,2013.5977 Q1172.8281,2013.5977 1171.4063,2012.8633 Q1170.25,2012.2695 1169.4375,2011.0039 Q1168.625,2009.7383 1168.625,2008.2539 L1168.625,2006.8945 Q1168.625,2005.332 1169.3438,2003.9883 Q1170.0781,2002.6289 1171.3594,2001.8945 Q1172.6563,2001.1602 1174.1094,2001.1602 Q1174.9688,2001.1602 1175.7188,2001.3633 Q1176.4844,2001.5664 1177.1406,2001.9727 Z " fill="#000000"/><text fill="#000000" font-family="sans-serif" font-size="20" font-style="italic" lengthAdjust="spacing" textLength="71" x="1270" y="2002.6563">«Entity»</text><text fill="#000000" font-family="sans-serif" font-size="20" lengthAdjust="spacing" textLength="217" x="1197" y="2027.8125">CustomerRepresentative</text><line style="stroke:#181818;stroke-width:0.5;" x1="1001" x2="1575" y1="2037.207" y2="2037.207"/><line style="stroke:#181818;stroke-width:0.5;" x1="1001" x2="1575" y1="2045.207" y2="2045.207"/><ellipse cx="1011" cy="2063.2852" fill="#84BE84" rx="3" ry="3" style="stroke:#038048;stroke-width:1.0;"/><text fill="#000000" font-family="sans-serif" font-size="20" lengthAdjust="spacing" textLength="549" x="1021" y="2069.9688">CustomerRepresentative(name, position, email, phoneNumber)</text></g><!--class Address--><g id="elem_Address"><rect codeLine="54" fill="#F1F1F1" height="76.3125" id="Address" rx="2.5" ry="2.5" style="stroke:#181818;stroke-width:0.5;" width="166" x="1611" y="1989.3945"/><ellipse cx="1627" cy="2019.5508" fill="#ADD1B2" rx="12" ry="12" style="stroke:#181818;stroke-width:1.0;"/><path d="M1629.1406,2014.4727 Q1629.3281,2014.2227 1629.5469,2014.0977 Q1629.7656,2013.957 1630.0156,2013.957 Q1630.4531,2013.957 1630.7344,2014.2695 Q1631.0156,2014.5664 1631.0156,2015.2852 L1631.0156,2016.9883 Q1631.0156,2017.707 1630.7344,2018.0195 Q1630.4531,2018.332 1630.0156,2018.332 Q1629.625,2018.332 1629.375,2018.0977 Q1629.125,2017.8789 1629.0156,2017.2695 Q1628.9531,2016.8477 1628.7344,2016.6289 Q1628.3438,2016.1914 1627.625,2015.9258 Q1626.9063,2015.6602 1626.1875,2015.6602 Q1625.2813,2015.6602 1624.5313,2016.0508 Q1623.7813,2016.4414 1623.2031,2017.332 Q1622.625,2018.207 1622.625,2019.4102 L1622.625,2020.707 Q1622.625,2022.1602 1623.6719,2023.1289 Q1624.7344,2024.0977 1626.5938,2024.0977 Q1627.7031,2024.0977 1628.4844,2023.7852 Q1628.9219,2023.6133 1629.4375,2023.0977 Q1629.75,2022.7852 1629.9219,2022.6914 Q1630.0938,2022.5977 1630.3281,2022.5977 Q1630.7188,2022.5977 1631.0156,2022.9102 Q1631.3281,2023.207 1631.3281,2023.6133 Q1631.3281,2024.0195 1630.9219,2024.4883 Q1630.3281,2025.1758 1629.3906,2025.5664 Q1628.125,2026.0977 1626.6094,2026.0977 Q1624.8281,2026.0977 1623.4063,2025.3633 Q1622.25,2024.7695 1621.4375,2023.5039 Q1620.625,2022.2383 1620.625,2020.7539 L1620.625,2019.3945 Q1620.625,2017.832 1621.3438,2016.4883 Q1622.0781,2015.1289 1623.3594,2014.3945 Q1624.6563,2013.6602 1626.1094,2013.6602 Q1626.9688,2013.6602 1627.7188,2013.8633 Q1628.4844,2014.0664 1629.1406,2014.4727 Z " fill="#000000"/><text fill="#000000" font-family="sans-serif" font-size="20" font-style="italic" lengthAdjust="spacing" textLength="136" x="1640" y="2015.1563">«Value Object»</text><text fill="#000000" font-family="sans-serif" font-size="20" lengthAdjust="spacing" textLength="73" x="1671.5" y="2040.3125">Address</text><line style="stroke:#181818;stroke-width:0.5;" x1="1612" x2="1776" y1="2049.707" y2="2049.707"/><line style="stroke:#181818;stroke-width:0.5;" x1="1612" x2="1776" y1="2057.707" y2="2057.707"/></g><!--class VatNumber--><g id="elem_VatNumber"><rect codeLine="56" fill="#F1F1F1" height="76.3125" id="VatNumber" rx="2.5" ry="2.5" style="stroke:#181818;stroke-width:0.5;" width="166" x="1812" y="1989.3945"/><ellipse cx="1828" cy="2019.5508" fill="#ADD1B2" rx="12" ry="12" style="stroke:#181818;stroke-width:1.0;"/><path d="M1830.1406,2014.4727 Q1830.3281,2014.2227 1830.5469,2014.0977 Q1830.7656,2013.957 1831.0156,2013.957 Q1831.4531,2013.957 1831.7344,2014.2695 Q1832.0156,2014.5664 1832.0156,2015.2852 L1832.0156,2016.9883 Q1832.0156,2017.707 1831.7344,2018.0195 Q1831.4531,2018.332 1831.0156,2018.332 Q1830.625,2018.332 1830.375,2018.0977 Q1830.125,2017.8789 1830.0156,2017.2695 Q1829.9531,2016.8477 1829.7344,2016.6289 Q1829.3438,2016.1914 1828.625,2015.9258 Q1827.9063,2015.6602 1827.1875,2015.6602 Q1826.2813,2015.6602 1825.5313,2016.0508 Q1824.7813,2016.4414 1824.2031,2017.332 Q1823.625,2018.207 1823.625,2019.4102 L1823.625,2020.707 Q1823.625,2022.1602 1824.6719,2023.1289 Q1825.7344,2024.0977 1827.5938,2024.0977 Q1828.7031,2024.0977 1829.4844,2023.7852 Q1829.9219,2023.6133 1830.4375,2023.0977 Q1830.75,2022.7852 1830.9219,2022.6914 Q1831.0938,2022.5977 1831.3281,2022.5977 Q1831.7188,2022.5977 1832.0156,2022.9102 Q1832.3281,2023.207 1832.3281,2023.6133 Q1832.3281,2024.0195 1831.9219,2024.4883 Q1831.3281,2025.1758 1830.3906,2025.5664 Q1829.125,2026.0977 1827.6094,2026.0977 Q1825.8281,2026.0977 1824.4063,2025.3633 Q1823.25,2024.7695 1822.4375,2023.5039 Q1821.625,2022.2383 1821.625,2020.7539 L1821.625,2019.3945 Q1821.625,2017.832 1822.3438,2016.4883 Q1823.0781,2015.1289 1824.3594,2014.3945 Q1825.6563,2013.6602 1827.1094,2013.6602 Q1827.9688,2013.6602 1828.7188,2013.8633 Q1829.4844,2014.0664 1830.1406,2014.4727 Z " fill="#000000"/><text fill="#000000" font-family="sans-serif" font-size="20" font-style="italic" lengthAdjust="spacing" textLength="136" x="1841" y="2015.1563">«Value Object»</text><text fill="#000000" font-family="sans-serif" font-size="20" lengthAdjust="spacing" textLength="98" x="1860" y="2040.3125">VatNumber</text><line style="stroke:#181818;stroke-width:0.5;" x1="1813" x2="1977" y1="2049.707" y2="2049.707"/><line style="stroke:#181818;stroke-width:0.5;" x1="1813" x2="1977" y1="2057.707" y2="2057.707"/></g><!--class CustomerStatus--><g id="elem_CustomerStatus"><rect codeLine="58" fill="#F1F1F1" height="76.3125" id="CustomerStatus" rx="2.5" ry="2.5" style="stroke:#181818;stroke-width:0.5;" width="175" x="2013.5" y="1989.3945"/><ellipse cx="2029.5" cy="2019.5508" fill="#EB937F" rx="12" ry="12" style="stroke:#181818;stroke-width:1.0;"/><path d="M2027.4531,2020.6133 L2027.4531,2023.5508 L2032.5469,2023.5508 L2032.5469,2022.457 Q2032.5469,2021.7383 2032.8281,2021.4414 Q2033.1094,2021.1289 2033.5625,2021.1289 Q2034,2021.1289 2034.2813,2021.4414 Q2034.5625,2021.7383 2034.5625,2022.457 L2034.5625,2025.5508 L2025.125,2025.5508 Q2024.4063,2025.5508 2024.0938,2025.2695 Q2023.7969,2024.9883 2023.7969,2024.5508 Q2023.7969,2024.0977 2024.1094,2023.832 Q2024.4219,2023.5508 2025.125,2023.5508 L2025.4375,2023.5508 L2025.4375,2015.7227 L2025.125,2015.7227 Q2024.4063,2015.7227 2024.0938,2015.4414 Q2023.7969,2015.1602 2023.7969,2014.707 Q2023.7969,2014.2539 2024.0938,2013.9883 Q2024.4063,2013.707 2025.125,2013.707 L2034.1094,2013.707 L2034.1094,2016.7539 Q2034.1094,2017.4727 2033.8281,2017.7852 Q2033.5625,2018.082 2033.125,2018.082 Q2032.6719,2018.082 2032.3906,2017.7852 Q2032.1094,2017.4883 2032.1094,2016.7539 L2032.1094,2015.7227 L2027.4531,2015.7227 L2027.4531,2018.6133 L2029.2031,2018.6133 Q2029.2031,2017.832 2029.3438,2017.5977 Q2029.6563,2017.1289 2030.2031,2017.1289 Q2030.6563,2017.1289 2030.9219,2017.4414 Q2031.2031,2017.7383 2031.2031,2018.457 L2031.2031,2020.7695 Q2031.2031,2021.4258 2031.0469,2021.6445 Q2030.7344,2022.0977 2030.2031,2022.0977 Q2029.6563,2022.0977 2029.3438,2021.6289 Q2029.2031,2021.3945 2029.2031,2020.6133 L2027.4531,2020.6133 Z " fill="#000000"/><text fill="#000000" font-family="sans-serif" font-size="20" font-style="italic" lengthAdjust="spacing" textLength="136" x="2047" y="2015.1563">«Value Object»</text><text fill="#000000" font-family="sans-serif" font-size="20" lengthAdjust="spacing" textLength="141" x="2044.5" y="2040.3125">CustomerStatus</text><line style="stroke:#181818;stroke-width:0.5;" x1="2014.5" x2="2187.5" y1="2049.707" y2="2049.707"/><line style="stroke:#181818;stroke-width:0.5;" x1="2014.5" x2="2187.5" y1="2057.707" y2="2057.707"/></g><!--class CustomerType--><g id="elem_CustomerType"><rect codeLine="60" fill="#F1F1F1" height="76.3125" id="CustomerType" rx="2.5" ry="2.5" style="stroke:#181818;stroke-width:0.5;" width="166" x="2224" y="1989.3945"/><ellipse cx="2240" cy="2019.5508" fill="#EB937F" rx="12" ry="12" style="stroke:#181818;stroke-width:1.0;"/><path d="M2237.9531,2020.6133 L2237.9531,2023.5508 L2243.0469,2023.5508 L2243.0469,2022.457 Q2243.0469,2021.7383 2243.3281,2021.4414 Q2243.6094,2021.1289 2244.0625,2021.1289 Q2244.5,2021.1289 2244.7813,2021.4414 Q2245.0625,2021.7383 2245.0625,2022.457 L2245.0625,2025.5508 L2235.625,2025.5508 Q2234.9063,2025.5508 2234.5938,2025.2695 Q2234.2969,2024.9883 2234.2969,2024.5508 Q2234.2969,2024.0977 2234.6094,2023.832 Q2234.9219,2023.5508 2235.625,2023.5508 L2235.9375,2023.5508 L2235.9375,2015.7227 L2235.625,2015.7227 Q2234.9063,2015.7227 2234.5938,2015.4414 Q2234.2969,2015.1602 2234.2969,2014.707 Q2234.2969,2014.2539 2234.5938,2013.9883 Q2234.9063,2013.707 2235.625,2013.707 L2244.6094,2013.707 L2244.6094,2016.7539 Q2244.6094,2017.4727 2244.3281,2017.7852 Q2244.0625,2018.082 2243.625,2018.082 Q2243.1719,2018.082 2242.8906,2017.7852 Q2242.6094,2017.4883 2242.6094,2016.7539 L2242.6094,2015.7227 L2237.9531,2015.7227 L2237.9531,2018.6133 L2239.7031,2018.6133 Q2239.7031,2017.832 2239.8438,2017.5977 Q2240.1563,2017.1289 2240.7031,2017.1289 Q2241.1563,2017.1289 2241.4219,2017.4414 Q2241.7031,2017.7383 2241.7031,2018.457 L2241.7031,2020.7695 Q2241.7031,2021.4258 2241.5469,2021.6445 Q2241.2344,2022.0977 2240.7031,2022.0977 Q2240.1563,2022.0977 2239.8438,2021.6289 Q2239.7031,2021.3945 2239.7031,2020.6133 L2237.9531,2020.6133 Z " fill="#000000"/><text fill="#000000" font-family="sans-serif" font-size="20" font-style="italic" lengthAdjust="spacing" textLength="136" x="2253" y="2015.1563">«Value Object»</text><text fill="#000000" font-family="sans-serif" font-size="20" lengthAdjust="spacing" textLength="129" x="2256.5" y="2040.3125">CustomerType</text><line style="stroke:#181818;stroke-width:0.5;" x1="2225" x2="2389" y1="2049.707" y2="2049.707"/><line style="stroke:#181818;stroke-width:0.5;" x1="2225" x2="2389" y1="2057.707" y2="2057.707"/></g><!--class Position--><g id="elem_Position"><rect codeLine="62" fill="#F1F1F1" height="76.3125" id="Position" rx="2.5" ry="2.5" style="stroke:#181818;stroke-width:0.5;" width="166" x="1029" y="2164.8945"/><ellipse cx="1045" cy="2195.0508" fill="#ADD1B2" rx="12" ry="12" style="stroke:#181818;stroke-width:1.0;"/><path d="M1047.1406,2189.9727 Q1047.3281,2189.7227 1047.5469,2189.5977 Q1047.7656,2189.457 1048.0156,2189.457 Q1048.4531,2189.457 1048.7344,2189.7695 Q1049.0156,2190.0664 1049.0156,2190.7852 L1049.0156,2192.4883 Q1049.0156,2193.207 1048.7344,2193.5195 Q1048.4531,2193.832 1048.0156,2193.832 Q1047.625,2193.832 1047.375,2193.5977 Q1047.125,2193.3789 1047.0156,2192.7695 Q1046.9531,2192.3477 1046.7344,2192.1289 Q1046.3438,2191.6914 1045.625,2191.4258 Q1044.9063,2191.1602 1044.1875,2191.1602 Q1043.2813,2191.1602 1042.5313,2191.5508 Q1041.7813,2191.9414 1041.2031,2192.832 Q1040.625,2193.707 1040.625,2194.9102 L1040.625,2196.207 Q1040.625,2197.6602 1041.6719,2198.6289 Q1042.7344,2199.5977 1044.5938,2199.5977 Q1045.7031,2199.5977 1046.4844,2199.2852 Q1046.9219,2199.1133 1047.4375,2198.5977 Q1047.75,2198.2852 1047.9219,2198.1914 Q1048.0938,2198.0977 1048.3281,2198.0977 Q1048.7188,2198.0977 1049.0156,2198.4102 Q1049.3281,2198.707 1049.3281,2199.1133 Q1049.3281,2199.5195 1048.9219,2199.9883 Q1048.3281,2200.6758 1047.3906,2201.0664 Q1046.125,2201.5977 1044.6094,2201.5977 Q1042.8281,2201.5977 1041.4063,2200.8633 Q1040.25,2200.2695 1039.4375,2199.0039 Q1038.625,2197.7383 1038.625,2196.2539 L1038.625,2194.8945 Q1038.625,2193.332 1039.3438,2191.9883 Q1040.0781,2190.6289 1041.3594,2189.8945 Q1042.6563,2189.1602 1044.1094,2189.1602 Q1044.9688,2189.1602 1045.7188,2189.3633 Q1046.4844,2189.5664 1047.1406,2189.9727 Z " fill="#000000"/><text fill="#000000" font-family="sans-serif" font-size="20" font-style="italic" lengthAdjust="spacing" textLength="136" x="1058" y="2190.6563">«Value Object»</text><text fill="#000000" font-family="sans-serif" font-size="20" lengthAdjust="spacing" textLength="69" x="1091.5" y="2215.8125">Position</text><line style="stroke:#181818;stroke-width:0.5;" x1="1030" x2="1194" y1="2225.207" y2="2225.207"/><line style="stroke:#181818;stroke-width:0.5;" x1="1030" x2="1194" y1="2233.207" y2="2233.207"/></g><!--class Name--><g id="elem_Name"><rect codeLine="64" fill="#F1F1F1" height="76.3125" id="Name" rx="2.5" ry="2.5" style="stroke:#181818;stroke-width:0.5;" width="166" x="1751" y="2301.8945"/><ellipse cx="1767" cy="2332.0508" fill="#ADD1B2" rx="12" ry="12" style="stroke:#181818;stroke-width:1.0;"/><path d="M1769.1406,2326.9727 Q1769.3281,2326.7227 1769.5469,2326.5977 Q1769.7656,2326.457 1770.0156,2326.457 Q1770.4531,2326.457 1770.7344,2326.7695 Q1771.0156,2327.0664 1771.0156,2327.7852 L1771.0156,2329.4883 Q1771.0156,2330.207 1770.7344,2330.5195 Q1770.4531,2330.832 1770.0156,2330.832 Q1769.625,2330.832 1769.375,2330.5977 Q1769.125,2330.3789 1769.0156,2329.7695 Q1768.9531,2329.3477 1768.7344,2329.1289 Q1768.3438,2328.6914 1767.625,2328.4258 Q1766.9063,2328.1602 1766.1875,2328.1602 Q1765.2813,2328.1602 1764.5313,2328.5508 Q1763.7813,2328.9414 1763.2031,2329.832 Q1762.625,2330.707 1762.625,2331.9102 L1762.625,2333.207 Q1762.625,2334.6602 1763.6719,2335.6289 Q1764.7344,2336.5977 1766.5938,2336.5977 Q1767.7031,2336.5977 1768.4844,2336.2852 Q1768.9219,2336.1133 1769.4375,2335.5977 Q1769.75,2335.2852 1769.9219,2335.1914 Q1770.0938,2335.0977 1770.3281,2335.0977 Q1770.7188,2335.0977 1771.0156,2335.4102 Q1771.3281,2335.707 1771.3281,2336.1133 Q1771.3281,2336.5195 1770.9219,2336.9883 Q1770.3281,2337.6758 1769.3906,2338.0664 Q1768.125,2338.5977 1766.6094,2338.5977 Q1764.8281,2338.5977 1763.4063,2337.8633 Q1762.25,2337.2695 1761.4375,2336.0039 Q1760.625,2334.7383 1760.625,2333.2539 L1760.625,2331.8945 Q1760.625,2330.332 1761.3438,2328.9883 Q1762.0781,2327.6289 1763.3594,2326.8945 Q1764.6563,2326.1602 1766.1094,2326.1602 Q1766.9688,2326.1602 1767.7188,2326.3633 Q1768.4844,2326.5664 1769.1406,2326.9727 Z " fill="#000000"/><text fill="#000000" font-family="sans-serif" font-size="20" font-style="italic" lengthAdjust="spacing" textLength="136" x="1780" y="2327.6563">«Value Object»</text><text fill="#000000" font-family="sans-serif" font-size="20" lengthAdjust="spacing" textLength="51" x="1822.5" y="2352.8125">Name</text><line style="stroke:#181818;stroke-width:0.5;" x1="1752" x2="1916" y1="2362.207" y2="2362.207"/><line style="stroke:#181818;stroke-width:0.5;" x1="1752" x2="1916" y1="2370.207" y2="2370.207"/></g><!--class Email--><g id="elem_Email"><rect codeLine="66" fill="#F1F1F1" height="76.3125" id="Email" rx="2.5" ry="2.5" style="stroke:#181818;stroke-width:0.5;" width="166" x="1350" y="2164.8945"/><ellipse cx="1366" cy="2195.0508" fill="#ADD1B2" rx="12" ry="12" style="stroke:#181818;stroke-width:1.0;"/><path d="M1368.1406,2189.9727 Q1368.3281,2189.7227 1368.5469,2189.5977 Q1368.7656,2189.457 1369.0156,2189.457 Q1369.4531,2189.457 1369.7344,2189.7695 Q1370.0156,2190.0664 1370.0156,2190.7852 L1370.0156,2192.4883 Q1370.0156,2193.207 1369.7344,2193.5195 Q1369.4531,2193.832 1369.0156,2193.832 Q1368.625,2193.832 1368.375,2193.5977 Q1368.125,2193.3789 1368.0156,2192.7695 Q1367.9531,2192.3477 1367.7344,2192.1289 Q1367.3438,2191.6914 1366.625,2191.4258 Q1365.9063,2191.1602 1365.1875,2191.1602 Q1364.2813,2191.1602 1363.5313,2191.5508 Q1362.7813,2191.9414 1362.2031,2192.832 Q1361.625,2193.707 1361.625,2194.9102 L1361.625,2196.207 Q1361.625,2197.6602 1362.6719,2198.6289 Q1363.7344,2199.5977 1365.5938,2199.5977 Q1366.7031,2199.5977 1367.4844,2199.2852 Q1367.9219,2199.1133 1368.4375,2198.5977 Q1368.75,2198.2852 1368.9219,2198.1914 Q1369.0938,2198.0977 1369.3281,2198.0977 Q1369.7188,2198.0977 1370.0156,2198.4102 Q1370.3281,2198.707 1370.3281,2199.1133 Q1370.3281,2199.5195 1369.9219,2199.9883 Q1369.3281,2200.6758 1368.3906,2201.0664 Q1367.125,2201.5977 1365.6094,2201.5977 Q1363.8281,2201.5977 1362.4063,2200.8633 Q1361.25,2200.2695 1360.4375,2199.0039 Q1359.625,2197.7383 1359.625,2196.2539 L1359.625,2194.8945 Q1359.625,2193.332 1360.3438,2191.9883 Q1361.0781,2190.6289 1362.3594,2189.8945 Q1363.6563,2189.1602 1365.1094,2189.1602 Q1365.9688,2189.1602 1366.7188,2189.3633 Q1367.4844,2189.5664 1368.1406,2189.9727 Z " fill="#000000"/><text fill="#000000" font-family="sans-serif" font-size="20" font-style="italic" lengthAdjust="spacing" textLength="136" x="1379" y="2190.6563">«Value Object»</text><text fill="#000000" font-family="sans-serif" font-size="20" lengthAdjust="spacing" textLength="48" x="1423" y="2215.8125">Email</text><line style="stroke:#181818;stroke-width:0.5;" x1="1351" x2="1515" y1="2225.207" y2="2225.207"/><line style="stroke:#181818;stroke-width:0.5;" x1="1351" x2="1515" y1="2233.207" y2="2233.207"/></g><!--class PhoneNumber--><g id="elem_PhoneNumber"><rect codeLine="68" fill="#F1F1F1" height="76.3125" id="PhoneNumber" rx="2.5" ry="2.5" style="stroke:#181818;stroke-width:0.5;" width="166" x="1551" y="2164.8945"/><ellipse cx="1567" cy="2195.0508" fill="#ADD1B2" rx="12" ry="12" style="stroke:#181818;stroke-width:1.0;"/><path d="M1569.1406,2189.9727 Q1569.3281,2189.7227 1569.5469,2189.5977 Q1569.7656,2189.457 1570.0156,2189.457 Q1570.4531,2189.457 1570.7344,2189.7695 Q1571.0156,2190.0664 1571.0156,2190.7852 L1571.0156,2192.4883 Q1571.0156,2193.207 1570.7344,2193.5195 Q1570.4531,2193.832 1570.0156,2193.832 Q1569.625,2193.832 1569.375,2193.5977 Q1569.125,2193.3789 1569.0156,2192.7695 Q1568.9531,2192.3477 1568.7344,2192.1289 Q1568.3438,2191.6914 1567.625,2191.4258 Q1566.9063,2191.1602 1566.1875,2191.1602 Q1565.2813,2191.1602 1564.5313,2191.5508 Q1563.7813,2191.9414 1563.2031,2192.832 Q1562.625,2193.707 1562.625,2194.9102 L1562.625,2196.207 Q1562.625,2197.6602 1563.6719,2198.6289 Q1564.7344,2199.5977 1566.5938,2199.5977 Q1567.7031,2199.5977 1568.4844,2199.2852 Q1568.9219,2199.1133 1569.4375,2198.5977 Q1569.75,2198.2852 1569.9219,2198.1914 Q1570.0938,2198.0977 1570.3281,2198.0977 Q1570.7188,2198.0977 1571.0156,2198.4102 Q1571.3281,2198.707 1571.3281,2199.1133 Q1571.3281,2199.5195 1570.9219,2199.9883 Q1570.3281,2200.6758 1569.3906,2201.0664 Q1568.125,2201.5977 1566.6094,2201.5977 Q1564.8281,2201.5977 1563.4063,2200.8633 Q1562.25,2200.2695 1561.4375,2199.0039 Q1560.625,2197.7383 1560.625,2196.2539 L1560.625,2194.8945 Q1560.625,2193.332 1561.3438,2191.9883 Q1562.0781,2190.6289 1563.3594,2189.8945 Q1564.6563,2189.1602 1566.1094,2189.1602 Q1566.9688,2189.1602 1567.7188,2189.3633 Q1568.4844,2189.5664 1569.1406,2189.9727 Z " fill="#000000"/><text fill="#000000" font-family="sans-serif" font-size="20" font-style="italic" lengthAdjust="spacing" textLength="136" x="1580" y="2190.6563">«Value Object»</text><text fill="#000000" font-family="sans-serif" font-size="20" lengthAdjust="spacing" textLength="123" x="1586.5" y="2215.8125">PhoneNumber</text><line style="stroke:#181818;stroke-width:0.5;" x1="1552" x2="1716" y1="2225.207" y2="2225.207"/><line style="stroke:#181818;stroke-width:0.5;" x1="1552" x2="1716" y1="2233.207" y2="2233.207"/></g><!--class CustomerRepresentativeStatus--><g id="elem_CustomerRepresentativeStatus"><rect codeLine="70" fill="#F1F1F1" height="76.3125" id="CustomerRepresentativeStatus" rx="2.5" ry="2.5" style="stroke:#181818;stroke-width:0.5;" width="307" x="1752.5" y="2164.8945"/><ellipse cx="1768.5" cy="2195.0508" fill="#EB937F" rx="12" ry="12" style="stroke:#181818;stroke-width:1.0;"/><path d="M1766.4531,2196.1133 L1766.4531,2199.0508 L1771.5469,2199.0508 L1771.5469,2197.957 Q1771.5469,2197.2383 1771.8281,2196.9414 Q1772.1094,2196.6289 1772.5625,2196.6289 Q1773,2196.6289 1773.2813,2196.9414 Q1773.5625,2197.2383 1773.5625,2197.957 L1773.5625,2201.0508 L1764.125,2201.0508 Q1763.4063,2201.0508 1763.0938,2200.7695 Q1762.7969,2200.4883 1762.7969,2200.0508 Q1762.7969,2199.5977 1763.1094,2199.332 Q1763.4219,2199.0508 1764.125,2199.0508 L1764.4375,2199.0508 L1764.4375,2191.2227 L1764.125,2191.2227 Q1763.4063,2191.2227 1763.0938,2190.9414 Q1762.7969,2190.6602 1762.7969,2190.207 Q1762.7969,2189.7539 1763.0938,2189.4883 Q1763.4063,2189.207 1764.125,2189.207 L1773.1094,2189.207 L1773.1094,2192.2539 Q1773.1094,2192.9727 1772.8281,2193.2852 Q1772.5625,2193.582 1772.125,2193.582 Q1771.6719,2193.582 1771.3906,2193.2852 Q1771.1094,2192.9883 1771.1094,2192.2539 L1771.1094,2191.2227 L1766.4531,2191.2227 L1766.4531,2194.1133 L1768.2031,2194.1133 Q1768.2031,2193.332 1768.3438,2193.0977 Q1768.6563,2192.6289 1769.2031,2192.6289 Q1769.6563,2192.6289 1769.9219,2192.9414 Q1770.2031,2193.2383 1770.2031,2193.957 L1770.2031,2196.2695 Q1770.2031,2196.9258 1770.0469,2197.1445 Q1769.7344,2197.5977 1769.2031,2197.5977 Q1768.6563,2197.5977 1768.3438,2197.1289 Q1768.2031,2196.8945 1768.2031,2196.1133 L1766.4531,2196.1133 Z " fill="#000000"/><text fill="#000000" font-family="sans-serif" font-size="20" font-style="italic" lengthAdjust="spacing" textLength="136" x="1852" y="2190.6563">«Value Object»</text><text fill="#000000" font-family="sans-serif" font-size="20" lengthAdjust="spacing" textLength="273" x="1783.5" y="2215.8125">CustomerRepresentativeStatus</text><line style="stroke:#181818;stroke-width:0.5;" x1="1753.5" x2="2058.5" y1="2225.207" y2="2225.207"/><line style="stroke:#181818;stroke-width:0.5;" x1="1753.5" x2="2058.5" y1="2233.207" y2="2233.207"/></g><!--class CustomerDTO--><g id="elem_CustomerDTO"><rect codeLine="6" fill="#F1F1F1" height="76.3125" id="CustomerDTO" rx="2.5" ry="2.5" style="stroke:#181818;stroke-width:0.5;" width="161" x="1750.5" y="1226.3945"/><ellipse cx="1766.5" cy="1256.5508" fill="#ADD1B2" rx="12" ry="12" style="stroke:#181818;stroke-width:1.0;"/><path d="M1768.6406,1251.4727 Q1768.8281,1251.2227 1769.0469,1251.0977 Q1769.2656,1250.957 1769.5156,1250.957 Q1769.9531,1250.957 1770.2344,1251.2695 Q1770.5156,1251.5664 1770.5156,1252.2852 L1770.5156,1253.9883 Q1770.5156,1254.707 1770.2344,1255.0195 Q1769.9531,1255.332 1769.5156,1255.332 Q1769.125,1255.332 1768.875,1255.0977 Q1768.625,1254.8789 1768.5156,1254.2695 Q1768.4531,1253.8477 1768.2344,1253.6289 Q1767.8438,1253.1914 1767.125,1252.9258 Q1766.4063,1252.6602 1765.6875,1252.6602 Q1764.7813,1252.6602 1764.0313,1253.0508 Q1763.2813,1253.4414 1762.7031,1254.332 Q1762.125,1255.207 1762.125,1256.4102 L1762.125,1257.707 Q1762.125,1259.1602 1763.1719,1260.1289 Q1764.2344,1261.0977 1766.0938,1261.0977 Q1767.2031,1261.0977 1767.9844,1260.7852 Q1768.4219,1260.6133 1768.9375,1260.0977 Q1769.25,1259.7852 1769.4219,1259.6914 Q1769.5938,1259.5977 1769.8281,1259.5977 Q1770.2188,1259.5977 1770.5156,1259.9102 Q1770.8281,1260.207 1770.8281,1260.6133 Q1770.8281,1261.0195 1770.4219,1261.4883 Q1769.8281,1262.1758 1768.8906,1262.5664 Q1767.625,1263.0977 1766.1094,1263.0977 Q1764.3281,1263.0977 1762.9063,1262.3633 Q1761.75,1261.7695 1760.9375,1260.5039 Q1760.125,1259.2383 1760.125,1257.7539 L1760.125,1256.3945 Q1760.125,1254.832 1760.8438,1253.4883 Q1761.5781,1252.1289 1762.8594,1251.3945 Q1764.1563,1250.6602 1765.6094,1250.6602 Q1766.4688,1250.6602 1767.2188,1250.8633 Q1767.9844,1251.0664 1768.6406,1251.4727 Z " fill="#000000"/><text fill="#000000" font-family="sans-serif" font-size="20" font-style="italic" lengthAdjust="spacing" textLength="64" x="1813" y="1252.1563">«DTO»</text><text fill="#000000" font-family="sans-serif" font-size="20" lengthAdjust="spacing" textLength="127" x="1781.5" y="1277.3125">CustomerDTO</text><line style="stroke:#181818;stroke-width:0.5;" x1="1751.5" x2="1910.5" y1="1286.707" y2="1286.707"/><line style="stroke:#181818;stroke-width:0.5;" x1="1751.5" x2="1910.5" y1="1294.707" y2="1294.707"/></g><!--class CustomerRepresentativeDTO--><g id="elem_CustomerRepresentativeDTO"><rect codeLine="8" fill="#F1F1F1" height="76.3125" id="CustomerRepresentativeDTO" rx="2.5" ry="2.5" style="stroke:#181818;stroke-width:0.5;" width="293" x="1946.5" y="1226.3945"/><ellipse cx="1962.5" cy="1256.5508" fill="#ADD1B2" rx="12" ry="12" style="stroke:#181818;stroke-width:1.0;"/><path d="M1964.6406,1251.4727 Q1964.8281,1251.2227 1965.0469,1251.0977 Q1965.2656,1250.957 1965.5156,1250.957 Q1965.9531,1250.957 1966.2344,1251.2695 Q1966.5156,1251.5664 1966.5156,1252.2852 L1966.5156,1253.9883 Q1966.5156,1254.707 1966.2344,1255.0195 Q1965.9531,1255.332 1965.5156,1255.332 Q1965.125,1255.332 1964.875,1255.0977 Q1964.625,1254.8789 1964.5156,1254.2695 Q1964.4531,1253.8477 1964.2344,1253.6289 Q1963.8438,1253.1914 1963.125,1252.9258 Q1962.4063,1252.6602 1961.6875,1252.6602 Q1960.7813,1252.6602 1960.0313,1253.0508 Q1959.2813,1253.4414 1958.7031,1254.332 Q1958.125,1255.207 1958.125,1256.4102 L1958.125,1257.707 Q1958.125,1259.1602 1959.1719,1260.1289 Q1960.2344,1261.0977 1962.0938,1261.0977 Q1963.2031,1261.0977 1963.9844,1260.7852 Q1964.4219,1260.6133 1964.9375,1260.0977 Q1965.25,1259.7852 1965.4219,1259.6914 Q1965.5938,1259.5977 1965.8281,1259.5977 Q1966.2188,1259.5977 1966.5156,1259.9102 Q1966.8281,1260.207 1966.8281,1260.6133 Q1966.8281,1261.0195 1966.4219,1261.4883 Q1965.8281,1262.1758 1964.8906,1262.5664 Q1963.625,1263.0977 1962.1094,1263.0977 Q1960.3281,1263.0977 1958.9063,1262.3633 Q1957.75,1261.7695 1956.9375,1260.5039 Q1956.125,1259.2383 1956.125,1257.7539 L1956.125,1256.3945 Q1956.125,1254.832 1956.8438,1253.4883 Q1957.5781,1252.1289 1958.8594,1251.3945 Q1960.1563,1250.6602 1961.6094,1250.6602 Q1962.4688,1250.6602 1963.2188,1250.8633 Q1963.9844,1251.0664 1964.6406,1251.4727 Z " fill="#000000"/><text fill="#000000" font-family="sans-serif" font-size="20" font-style="italic" lengthAdjust="spacing" textLength="64" x="2075" y="1252.1563">«DTO»</text><text fill="#000000" font-family="sans-serif" font-size="20" lengthAdjust="spacing" textLength="259" x="1977.5" y="1277.3125">CustomerRepresentativeDTO</text><line style="stroke:#181818;stroke-width:0.5;" x1="1947.5" x2="2238.5" y1="1286.707" y2="1286.707"/><line style="stroke:#181818;stroke-width:0.5;" x1="1947.5" x2="2238.5" y1="1294.707" y2="1294.707"/></g><!--class CustomerListMapper--><g id="elem_CustomerListMapper"><rect codeLine="13" fill="#F1F1F1" height="126.625" id="CustomerListMapper" rx="2.5" ry="2.5" style="stroke:#181818;stroke-width:0.5;" width="488" x="1750" y="1444.8945"/><ellipse cx="1897.5" cy="1475.0508" fill="#ADD1B2" rx="12" ry="12" style="stroke:#181818;stroke-width:1.0;"/><path d="M1899.6406,1469.9727 Q1899.8281,1469.7227 1900.0469,1469.5977 Q1900.2656,1469.457 1900.5156,1469.457 Q1900.9531,1469.457 1901.2344,1469.7695 Q1901.5156,1470.0664 1901.5156,1470.7852 L1901.5156,1472.4883 Q1901.5156,1473.207 1901.2344,1473.5195 Q1900.9531,1473.832 1900.5156,1473.832 Q1900.125,1473.832 1899.875,1473.5977 Q1899.625,1473.3789 1899.5156,1472.7695 Q1899.4531,1472.3477 1899.2344,1472.1289 Q1898.8438,1471.6914 1898.125,1471.4258 Q1897.4063,1471.1602 1896.6875,1471.1602 Q1895.7813,1471.1602 1895.0313,1471.5508 Q1894.2813,1471.9414 1893.7031,1472.832 Q1893.125,1473.707 1893.125,1474.9102 L1893.125,1476.207 Q1893.125,1477.6602 1894.1719,1478.6289 Q1895.2344,1479.5977 1897.0938,1479.5977 Q1898.2031,1479.5977 1898.9844,1479.2852 Q1899.4219,1479.1133 1899.9375,1478.5977 Q1900.25,1478.2852 1900.4219,1478.1914 Q1900.5938,1478.0977 1900.8281,1478.0977 Q1901.2188,1478.0977 1901.5156,1478.4102 Q1901.8281,1478.707 1901.8281,1479.1133 Q1901.8281,1479.5195 1901.4219,1479.9883 Q1900.8281,1480.6758 1899.8906,1481.0664 Q1898.625,1481.5977 1897.1094,1481.5977 Q1895.3281,1481.5977 1893.9063,1480.8633 Q1892.75,1480.2695 1891.9375,1479.0039 Q1891.125,1477.7383 1891.125,1476.2539 L1891.125,1474.8945 Q1891.125,1473.332 1891.8438,1471.9883 Q1892.5781,1470.6289 1893.8594,1469.8945 Q1895.1563,1469.1602 1896.6094,1469.1602 Q1897.4688,1469.1602 1898.2188,1469.3633 Q1898.9844,1469.5664 1899.6406,1469.9727 Z " fill="#000000"/><text fill="#000000" font-family="sans-serif" font-size="20" font-style="italic" lengthAdjust="spacing" textLength="90" x="1966.5" y="1470.6563">«Mapper»</text><text fill="#000000" font-family="sans-serif" font-size="20" lengthAdjust="spacing" textLength="184" x="1919.5" y="1495.8125">CustomerListMapper</text><line style="stroke:#181818;stroke-width:0.5;" x1="1751" x2="2237" y1="1505.207" y2="1505.207"/><line style="stroke:#181818;stroke-width:0.5;" x1="1751" x2="2237" y1="1513.207" y2="1513.207"/><ellipse cx="1761" cy="1531.2852" fill="#84BE84" rx="3" ry="3" style="stroke:#038048;stroke-width:1.0;"/><text fill="#000000" font-family="sans-serif" font-size="20" lengthAdjust="spacing" textLength="299" x="1771" y="1537.9688">toDTO(customer) : CustomerDTO</text><ellipse cx="1761" cy="1556.4414" fill="#84BE84" rx="3" ry="3" style="stroke:#038048;stroke-width:1.0;"/><text fill="#000000" font-family="sans-serif" font-size="20" lengthAdjust="spacing" textLength="461" x="1771" y="1563.125">customersToDTO(customers) : List&lt;CustomerDTO&gt;</text></g><!--class CustomerRepresentativeListMapper--><g id="elem_CustomerRepresentativeListMapper"><rect codeLine="18" fill="#F1F1F1" height="126.625" id="CustomerRepresentativeListMapper" rx="2.5" ry="2.5" style="stroke:#181818;stroke-width:0.5;" width="708" x="2273" y="1444.8945"/><ellipse cx="2464.5" cy="1475.0508" fill="#ADD1B2" rx="12" ry="12" style="stroke:#181818;stroke-width:1.0;"/><path d="M2466.6406,1469.9727 Q2466.8281,1469.7227 2467.0469,1469.5977 Q2467.2656,1469.457 2467.5156,1469.457 Q2467.9531,1469.457 2468.2344,1469.7695 Q2468.5156,1470.0664 2468.5156,1470.7852 L2468.5156,1472.4883 Q2468.5156,1473.207 2468.2344,1473.5195 Q2467.9531,1473.832 2467.5156,1473.832 Q2467.125,1473.832 2466.875,1473.5977 Q2466.625,1473.3789 2466.5156,1472.7695 Q2466.4531,1472.3477 2466.2344,1472.1289 Q2465.8438,1471.6914 2465.125,1471.4258 Q2464.4063,1471.1602 2463.6875,1471.1602 Q2462.7813,1471.1602 2462.0313,1471.5508 Q2461.2813,1471.9414 2460.7031,1472.832 Q2460.125,1473.707 2460.125,1474.9102 L2460.125,1476.207 Q2460.125,1477.6602 2461.1719,1478.6289 Q2462.2344,1479.5977 2464.0938,1479.5977 Q2465.2031,1479.5977 2465.9844,1479.2852 Q2466.4219,1479.1133 2466.9375,1478.5977 Q2467.25,1478.2852 2467.4219,1478.1914 Q2467.5938,1478.0977 2467.8281,1478.0977 Q2468.2188,1478.0977 2468.5156,1478.4102 Q2468.8281,1478.707 2468.8281,1479.1133 Q2468.8281,1479.5195 2468.4219,1479.9883 Q2467.8281,1480.6758 2466.8906,1481.0664 Q2465.625,1481.5977 2464.1094,1481.5977 Q2462.3281,1481.5977 2460.9063,1480.8633 Q2459.75,1480.2695 2458.9375,1479.0039 Q2458.125,1477.7383 2458.125,1476.2539 L2458.125,1474.8945 Q2458.125,1473.332 2458.8438,1471.9883 Q2459.5781,1470.6289 2460.8594,1469.8945 Q2462.1563,1469.1602 2463.6094,1469.1602 Q2464.4688,1469.1602 2465.2188,1469.3633 Q2465.9844,1469.5664 2466.6406,1469.9727 Z " fill="#000000"/><text fill="#000000" font-family="sans-serif" font-size="20" font-style="italic" lengthAdjust="spacing" textLength="90" x="2599.5" y="1470.6563">«Mapper»</text><text fill="#000000" font-family="sans-serif" font-size="20" lengthAdjust="spacing" textLength="316" x="2486.5" y="1495.8125">CustomerRepresentativeListMapper</text><line style="stroke:#181818;stroke-width:0.5;" x1="2274" x2="2980" y1="1505.207" y2="1505.207"/><line style="stroke:#181818;stroke-width:0.5;" x1="2274" x2="2980" y1="1513.207" y2="1513.207"/><ellipse cx="2284" cy="1531.2852" fill="#84BE84" rx="3" ry="3" style="stroke:#038048;stroke-width:1.0;"/><text fill="#000000" font-family="sans-serif" font-size="20" lengthAdjust="spacing" textLength="475" x="2294" y="1537.9688">toDTO(representative) : CustomerRepresentativeDTO</text><ellipse cx="2284" cy="1556.4414" fill="#84BE84" rx="3" ry="3" style="stroke:#038048;stroke-width:1.0;"/><text fill="#000000" font-family="sans-serif" font-size="20" lengthAdjust="spacing" textLength="681" x="2294" y="1563.125">representativesToDTO(representatives) : List&lt;CustomerRepresentativeDTO&gt;</text></g><!--class CustomerRepository--><g id="elem_CustomerRepository"><rect codeLine="25" fill="#F1F1F1" height="126.625" id="CustomerRepository" rx="2.5" ry="2.5" style="stroke:#181818;stroke-width:0.5;" width="683" x="1010.5" y="1444.8945"/><ellipse cx="1257" cy="1475.0508" fill="#B4A7E5" rx="12" ry="12" style="stroke:#181818;stroke-width:1.0;"/><path d="M1258,1471.2227 L1258,1479.0508 L1260.0313,1479.0508 Q1260.75,1479.0508 1261.0469,1479.332 Q1261.3594,1479.5977 1261.3594,1480.0508 Q1261.3594,1480.4883 1261.0469,1480.7695 Q1260.75,1481.0508 1260.0313,1481.0508 L1253.9844,1481.0508 Q1253.25,1481.0508 1252.9375,1480.7695 Q1252.6406,1480.4883 1252.6406,1480.0508 Q1252.6406,1479.5977 1252.9375,1479.332 Q1253.25,1479.0508 1253.9844,1479.0508 L1256,1479.0508 L1256,1471.2227 L1253.9844,1471.2227 Q1253.25,1471.2227 1252.9375,1470.9414 Q1252.6406,1470.6602 1252.6406,1470.207 Q1252.6406,1469.7539 1252.9375,1469.4883 Q1253.25,1469.207 1253.9844,1469.207 L1260.0313,1469.207 Q1260.75,1469.207 1261.0469,1469.4883 Q1261.3594,1469.7539 1261.3594,1470.207 Q1261.3594,1470.6602 1261.0469,1470.9414 Q1260.75,1471.2227 1260.0313,1471.2227 L1258,1471.2227 Z " fill="#000000"/><text fill="#000000" font-family="sans-serif" font-size="20" font-style="italic" lengthAdjust="spacing" textLength="117" x="1311" y="1470.6563">«Repository»</text><text fill="#000000" font-family="sans-serif" font-size="20" font-style="italic" lengthAdjust="spacing" textLength="181" x="1279" y="1495.8125">CustomerRepository</text><line style="stroke:#181818;stroke-width:0.5;" x1="1011.5" x2="1692.5" y1="1505.207" y2="1505.207"/><line style="stroke:#181818;stroke-width:0.5;" x1="1011.5" x2="1692.5" y1="1513.207" y2="1513.207"/><ellipse cx="1021.5" cy="1531.2852" fill="#84BE84" rx="3" ry="3" style="stroke:#038048;stroke-width:1.0;"/><text fill="#000000" font-family="sans-serif" font-size="20" lengthAdjust="spacing" textLength="295" x="1031.5" y="1537.9688">getCustomers() : List&lt;Customer&gt;</text><ellipse cx="1021.5" cy="1556.4414" fill="#84BE84" rx="3" ry="3" style="stroke:#038048;stroke-width:1.0;"/><text fill="#000000" font-family="sans-serif" font-size="20" lengthAdjust="spacing" textLength="656" x="1031.5" y="1563.125">getRepresentativesOfCustomer(customer): List&lt;CustomerRepresentative&gt;</text></g><!--class RepositoryFactory--><g id="elem_RepositoryFactory"><rect codeLine="30" fill="#F1F1F1" height="126.625" id="RepositoryFactory" rx="2.5" ry="2.5" style="stroke:#181818;stroke-width:0.5;" width="447" x="1053.5" y="1200.8945"/><ellipse cx="1192" cy="1231.0508" fill="#B4A7E5" rx="12" ry="12" style="stroke:#181818;stroke-width:1.0;"/><path d="M1193,1227.2227 L1193,1235.0508 L1195.0313,1235.0508 Q1195.75,1235.0508 1196.0469,1235.332 Q1196.3594,1235.5977 1196.3594,1236.0508 Q1196.3594,1236.4883 1196.0469,1236.7695 Q1195.75,1237.0508 1195.0313,1237.0508 L1188.9844,1237.0508 Q1188.25,1237.0508 1187.9375,1236.7695 Q1187.6406,1236.4883 1187.6406,1236.0508 Q1187.6406,1235.5977 1187.9375,1235.332 Q1188.25,1235.0508 1188.9844,1235.0508 L1191,1235.0508 L1191,1227.2227 L1188.9844,1227.2227 Q1188.25,1227.2227 1187.9375,1226.9414 Q1187.6406,1226.6602 1187.6406,1226.207 Q1187.6406,1225.7539 1187.9375,1225.4883 Q1188.25,1225.207 1188.9844,1225.207 L1195.0313,1225.207 Q1195.75,1225.207 1196.0469,1225.4883 Q1196.3594,1225.7539 1196.3594,1226.207 Q1196.3594,1226.6602 1196.0469,1226.9414 Q1195.75,1227.2227 1195.0313,1227.2227 L1193,1227.2227 Z " fill="#000000"/><text fill="#000000" font-family="sans-serif" font-size="20" font-style="italic" lengthAdjust="spacing" textLength="88" x="1250.5" y="1226.6563">«Factory»</text><text fill="#000000" font-family="sans-serif" font-size="20" font-style="italic" lengthAdjust="spacing" textLength="161" x="1214" y="1251.8125">RepositoryFactory</text><line style="stroke:#181818;stroke-width:0.5;" x1="1054.5" x2="1499.5" y1="1261.207" y2="1261.207"/><line style="stroke:#181818;stroke-width:0.5;" x1="1054.5" x2="1499.5" y1="1269.207" y2="1269.207"/><rect fill="#F24D5C" height="6" style="stroke:#C82930;stroke-width:1.0;" width="6" x="1061.5" y="1284.2852"/><text fill="#000000" font-family="sans-serif" font-size="20" lengthAdjust="spacing" textLength="176" x="1074.5" y="1293.9688">RepositoryFactory()</text><ellipse cx="1064.5" cy="1312.4414" fill="#84BE84" rx="3" ry="3" style="stroke:#038048;stroke-width:1.0;"/><text fill="#000000" font-family="sans-serif" font-size="20" lengthAdjust="spacing" textLength="420" x="1074.5" y="1319.125">getCustomerRepository() : CustomerRepository</text></g><!--class Repository--><g id="elem_Repository"><rect codeLine="35" fill="#F1F1F1" height="227.25" id="Repository" rx="2.5" ry="2.5" style="stroke:#181818;stroke-width:0.5;" width="220" x="1242" y="1660.8945"/><ellipse cx="1291" cy="1691.0508" fill="#B4A7E5" rx="12" ry="12" style="stroke:#181818;stroke-width:1.0;"/><path d="M1292,1687.2227 L1292,1695.0508 L1294.0313,1695.0508 Q1294.75,1695.0508 1295.0469,1695.332 Q1295.3594,1695.5977 1295.3594,1696.0508 Q1295.3594,1696.4883 1295.0469,1696.7695 Q1294.75,1697.0508 1294.0313,1697.0508 L1287.9844,1697.0508 Q1287.25,1697.0508 1286.9375,1696.7695 Q1286.6406,1696.4883 1286.6406,1696.0508 Q1286.6406,1695.5977 1286.9375,1695.332 Q1287.25,1695.0508 1287.9844,1695.0508 L1290,1695.0508 L1290,1687.2227 L1287.9844,1687.2227 Q1287.25,1687.2227 1286.9375,1686.9414 Q1286.6406,1686.6602 1286.6406,1686.207 Q1286.6406,1685.7539 1286.9375,1685.4883 Q1287.25,1685.207 1287.9844,1685.207 L1294.0313,1685.207 Q1294.75,1685.207 1295.0469,1685.4883 Q1295.3594,1685.7539 1295.3594,1686.207 Q1295.3594,1686.6602 1295.0469,1686.9414 Q1294.75,1687.2227 1294.0313,1687.2227 L1292,1687.2227 Z " fill="#000000"/><text fill="#000000" font-family="sans-serif" font-size="20" font-style="italic" lengthAdjust="spacing" textLength="117" x="1311" y="1686.6563">«Repository»</text><text fill="#000000" font-family="sans-serif" font-size="20" font-style="italic" lengthAdjust="spacing" textLength="95" x="1322" y="1711.8125">Repository</text><line style="stroke:#181818;stroke-width:0.5;" x1="1243" x2="1461" y1="1721.207" y2="1721.207"/><line style="stroke:#181818;stroke-width:0.5;" x1="1243" x2="1461" y1="1729.207" y2="1729.207"/><ellipse cx="1253" cy="1747.2852" fill="#84BE84" rx="3" ry="3" style="stroke:#038048;stroke-width:1.0;"/><text fill="#000000" font-family="sans-serif" font-size="20" lengthAdjust="spacing" textLength="150" x="1263" y="1753.9688">save(entity T) : T</text><ellipse cx="1253" cy="1772.4414" fill="#84BE84" rx="3" ry="3" style="stroke:#038048;stroke-width:1.0;"/><text fill="#000000" font-family="sans-serif" font-size="20" lengthAdjust="spacing" textLength="133" x="1263" y="1779.125">delete(entity T)</text><ellipse cx="1253" cy="1797.5977" fill="#84BE84" rx="3" ry="3" style="stroke:#038048;stroke-width:1.0;"/><text fill="#000000" font-family="sans-serif" font-size="20" lengthAdjust="spacing" textLength="193" x="1263" y="1804.2813">findById(id: String) : T</text><ellipse cx="1253" cy="1822.7539" fill="#84BE84" rx="3" ry="3" style="stroke:#038048;stroke-width:1.0;"/><text fill="#000000" font-family="sans-serif" font-size="20" lengthAdjust="spacing" textLength="151" x="1263" y="1829.4375">findAll() : List&lt;T&gt;</text><ellipse cx="1253" cy="1847.9102" fill="#84BE84" rx="3" ry="3" style="stroke:#038048;stroke-width:1.0;"/><text fill="#000000" font-family="sans-serif" font-size="20" lengthAdjust="spacing" textLength="155" x="1263" y="1854.5938">deleteById(id: ID)</text><ellipse cx="1253" cy="1873.0664" fill="#84BE84" rx="3" ry="3" style="stroke:#038048;stroke-width:1.0;"/><text fill="#000000" font-family="sans-serif" font-size="20" lengthAdjust="spacing" textLength="115" x="1263" y="1879.75">count() : long</text></g><!--class ListCustomerRepresentativesUI--><g id="elem_ListCustomerRepresentativesUI"><rect codeLine="75" fill="#F1F1F1" height="76.3125" id="ListCustomerRepresentativesUI" rx="2.5" ry="2.5" style="stroke:#181818;stroke-width:0.5;" width="311" x="2106.5" y="50.8945"/><ellipse cx="2122.5" cy="81.0508" fill="#ADD1B2" rx="12" ry="12" style="stroke:#181818;stroke-width:1.0;"/><path d="M2124.6406,75.9727 Q2124.8281,75.7227 2125.0469,75.5977 Q2125.2656,75.457 2125.5156,75.457 Q2125.9531,75.457 2126.2344,75.7695 Q2126.5156,76.0664 2126.5156,76.7852 L2126.5156,78.4883 Q2126.5156,79.207 2126.2344,79.5195 Q2125.9531,79.832 2125.5156,79.832 Q2125.125,79.832 2124.875,79.5977 Q2124.625,79.3789 2124.5156,78.7695 Q2124.4531,78.3477 2124.2344,78.1289 Q2123.8438,77.6914 2123.125,77.4258 Q2122.4063,77.1602 2121.6875,77.1602 Q2120.7813,77.1602 2120.0313,77.5508 Q2119.2813,77.9414 2118.7031,78.832 Q2118.125,79.707 2118.125,80.9102 L2118.125,82.207 Q2118.125,83.6602 2119.1719,84.6289 Q2120.2344,85.5977 2122.0938,85.5977 Q2123.2031,85.5977 2123.9844,85.2852 Q2124.4219,85.1133 2124.9375,84.5977 Q2125.25,84.2852 2125.4219,84.1914 Q2125.5938,84.0977 2125.8281,84.0977 Q2126.2188,84.0977 2126.5156,84.4102 Q2126.8281,84.707 2126.8281,85.1133 Q2126.8281,85.5195 2126.4219,85.9883 Q2125.8281,86.6758 2124.8906,87.0664 Q2123.625,87.5977 2122.1094,87.5977 Q2120.3281,87.5977 2118.9063,86.8633 Q2117.75,86.2695 2116.9375,85.0039 Q2116.125,83.7383 2116.125,82.2539 L2116.125,80.8945 Q2116.125,79.332 2116.8438,77.9883 Q2117.5781,76.6289 2118.8594,75.8945 Q2120.1563,75.1602 2121.6094,75.1602 Q2122.4688,75.1602 2123.2188,75.3633 Q2123.9844,75.5664 2124.6406,75.9727 Z " fill="#000000"/><text fill="#000000" font-family="sans-serif" font-size="20" font-style="italic" lengthAdjust="spacing" textLength="41" x="2255.5" y="76.6563">«UI»</text><text fill="#000000" font-family="sans-serif" font-size="20" lengthAdjust="spacing" textLength="277" x="2137.5" y="101.8125">ListCustomerRepresentativesUI</text><line style="stroke:#181818;stroke-width:0.5;" x1="2107.5" x2="2416.5" y1="111.207" y2="111.207"/><line style="stroke:#181818;stroke-width:0.5;" x1="2107.5" x2="2416.5" y1="119.207" y2="119.207"/></g><!--class ListCustomerRepresentativesController--><g id="elem_ListCustomerRepresentativesController"><rect codeLine="80" fill="#F1F1F1" height="126.625" id="ListCustomerRepresentativesController" rx="2.5" ry="2.5" style="stroke:#181818;stroke-width:0.5;" width="475" x="2024.5" y="219.8945"/><ellipse cx="2086" cy="250.0508" fill="#ADD1B2" rx="12" ry="12" style="stroke:#181818;stroke-width:1.0;"/><path d="M2088.1406,244.9727 Q2088.3281,244.7227 2088.5469,244.5977 Q2088.7656,244.457 2089.0156,244.457 Q2089.4531,244.457 2089.7344,244.7695 Q2090.0156,245.0664 2090.0156,245.7852 L2090.0156,247.4883 Q2090.0156,248.207 2089.7344,248.5195 Q2089.4531,248.832 2089.0156,248.832 Q2088.625,248.832 2088.375,248.5977 Q2088.125,248.3789 2088.0156,247.7695 Q2087.9531,247.3477 2087.7344,247.1289 Q2087.3438,246.6914 2086.625,246.4258 Q2085.9063,246.1602 2085.1875,246.1602 Q2084.2813,246.1602 2083.5313,246.5508 Q2082.7813,246.9414 2082.2031,247.832 Q2081.625,248.707 2081.625,249.9102 L2081.625,251.207 Q2081.625,252.6602 2082.6719,253.6289 Q2083.7344,254.5977 2085.5938,254.5977 Q2086.7031,254.5977 2087.4844,254.2852 Q2087.9219,254.1133 2088.4375,253.5977 Q2088.75,253.2852 2088.9219,253.1914 Q2089.0938,253.0977 2089.3281,253.0977 Q2089.7188,253.0977 2090.0156,253.4102 Q2090.3281,253.707 2090.3281,254.1133 Q2090.3281,254.5195 2089.9219,254.9883 Q2089.3281,255.6758 2088.3906,256.0664 Q2087.125,256.5977 2085.6094,256.5977 Q2083.8281,256.5977 2082.4063,255.8633 Q2081.25,255.2695 2080.4375,254.0039 Q2079.625,252.7383 2079.625,251.2539 L2079.625,249.8945 Q2079.625,248.332 2080.3438,246.9883 Q2081.0781,245.6289 2082.3594,244.8945 Q2083.6563,244.1602 2085.1094,244.1602 Q2085.9688,244.1602 2086.7188,244.3633 Q2087.4844,244.5664 2088.1406,244.9727 Z " fill="#000000"/><text fill="#000000" font-family="sans-serif" font-size="20" font-style="italic" lengthAdjust="spacing" textLength="109" x="2225" y="245.6563">«Controller»</text><text fill="#000000" font-family="sans-serif" font-size="20" lengthAdjust="spacing" textLength="343" x="2108" y="270.8125">ListCustomerRepresentativesController</text><line style="stroke:#181818;stroke-width:0.5;" x1="2025.5" x2="2498.5" y1="280.207" y2="280.207"/><line style="stroke:#181818;stroke-width:0.5;" x1="2025.5" x2="2498.5" y1="288.207" y2="288.207"/><ellipse cx="2035.5" cy="306.2852" fill="#84BE84" rx="3" ry="3" style="stroke:#038048;stroke-width:1.0;"/><text fill="#000000" font-family="sans-serif" font-size="20" lengthAdjust="spacing" textLength="448" x="2045.5" y="312.9688">listRepresentativesOfAGivenCustomer(customerId)</text><ellipse cx="2035.5" cy="331.4414" fill="#84BE84" rx="3" ry="3" style="stroke:#038048;stroke-width:1.0;"/><text fill="#000000" font-family="sans-serif" font-size="20" lengthAdjust="spacing" textLength="154" x="2045.5" y="338.125">listAllCustomers()</text></g><!--class JpaCustomerRepository--><g id="elem_JpaCustomerRepository"><rect codeLine="87" fill="#F1F1F1" height="76.3125" id="JpaCustomerRepository" rx="2.5" ry="2.5" style="stroke:#181818;stroke-width:0.5;" width="246" x="132" y="930.3945"/><ellipse cx="148" cy="960.5508" fill="#ADD1B2" rx="12" ry="12" style="stroke:#181818;stroke-width:1.0;"/><path d="M150.1406,955.4727 Q150.3281,955.2227 150.5469,955.0977 Q150.7656,954.957 151.0156,954.957 Q151.4531,954.957 151.7344,955.2695 Q152.0156,955.5664 152.0156,956.2852 L152.0156,957.9883 Q152.0156,958.707 151.7344,959.0195 Q151.4531,959.332 151.0156,959.332 Q150.625,959.332 150.375,959.0977 Q150.125,958.8789 150.0156,958.2695 Q149.9531,957.8477 149.7344,957.6289 Q149.3438,957.1914 148.625,956.9258 Q147.9063,956.6602 147.1875,956.6602 Q146.2813,956.6602 145.5313,957.0508 Q144.7813,957.4414 144.2031,958.332 Q143.625,959.207 143.625,960.4102 L143.625,961.707 Q143.625,963.1602 144.6719,964.1289 Q145.7344,965.0977 147.5938,965.0977 Q148.7031,965.0977 149.4844,964.7852 Q149.9219,964.6133 150.4375,964.0977 Q150.75,963.7852 150.9219,963.6914 Q151.0938,963.5977 151.3281,963.5977 Q151.7188,963.5977 152.0156,963.9102 Q152.3281,964.207 152.3281,964.6133 Q152.3281,965.0195 151.9219,965.4883 Q151.3281,966.1758 150.3906,966.5664 Q149.125,967.0977 147.6094,967.0977 Q145.8281,967.0977 144.4063,966.3633 Q143.25,965.7695 142.4375,964.5039 Q141.625,963.2383 141.625,961.7539 L141.625,960.3945 Q141.625,958.832 142.3438,957.4883 Q143.0781,956.1289 144.3594,955.3945 Q145.6563,954.6602 147.1094,954.6602 Q147.9688,954.6602 148.7188,954.8633 Q149.4844,955.0664 150.1406,955.4727 Z " fill="#000000"/><text fill="#000000" font-family="sans-serif" font-size="20" font-style="italic" lengthAdjust="spacing" textLength="117" x="210.5" y="956.1563">«Repository»</text><text fill="#000000" font-family="sans-serif" font-size="20" lengthAdjust="spacing" textLength="212" x="163" y="981.3125">JpaCustomerRepository</text><line style="stroke:#181818;stroke-width:0.5;" x1="133" x2="377" y1="990.707" y2="990.707"/><line style="stroke:#181818;stroke-width:0.5;" x1="133" x2="377" y1="998.707" y2="998.707"/></g><!--class JpaRepositoryFactory--><g id="elem_JpaRepositoryFactory"><rect codeLine="90" fill="#F1F1F1" height="126.625" id="JpaRepositoryFactory" rx="2.5" ry="2.5" style="stroke:#181818;stroke-width:0.5;" width="323" x="22.5" y="660.8945"/><ellipse cx="82.5" cy="691.0508" fill="#ADD1B2" rx="12" ry="12" style="stroke:#181818;stroke-width:1.0;"/><path d="M84.6406,685.9727 Q84.8281,685.7227 85.0469,685.5977 Q85.2656,685.457 85.5156,685.457 Q85.9531,685.457 86.2344,685.7695 Q86.5156,686.0664 86.5156,686.7852 L86.5156,688.4883 Q86.5156,689.207 86.2344,689.5195 Q85.9531,689.832 85.5156,689.832 Q85.125,689.832 84.875,689.5977 Q84.625,689.3789 84.5156,688.7695 Q84.4531,688.3477 84.2344,688.1289 Q83.8438,687.6914 83.125,687.4258 Q82.4063,687.1602 81.6875,687.1602 Q80.7813,687.1602 80.0313,687.5508 Q79.2813,687.9414 78.7031,688.832 Q78.125,689.707 78.125,690.9102 L78.125,692.207 Q78.125,693.6602 79.1719,694.6289 Q80.2344,695.5977 82.0938,695.5977 Q83.2031,695.5977 83.9844,695.2852 Q84.4219,695.1133 84.9375,694.5977 Q85.25,694.2852 85.4219,694.1914 Q85.5938,694.0977 85.8281,694.0977 Q86.2188,694.0977 86.5156,694.4102 Q86.8281,694.707 86.8281,695.1133 Q86.8281,695.5195 86.4219,695.9883 Q85.8281,696.6758 84.8906,697.0664 Q83.625,697.5977 82.1094,697.5977 Q80.3281,697.5977 78.9063,696.8633 Q77.75,696.2695 76.9375,695.0039 Q76.125,693.7383 76.125,692.2539 L76.125,690.8945 Q76.125,689.332 76.8438,687.9883 Q77.5781,686.6289 78.8594,685.8945 Q80.1563,685.1602 81.6094,685.1602 Q82.4688,685.1602 83.2188,685.3633 Q83.9844,685.5664 84.6406,685.9727 Z " fill="#000000"/><text fill="#000000" font-family="sans-serif" font-size="20" font-style="italic" lengthAdjust="spacing" textLength="88" x="157.5" y="686.6563">«Factory»</text><text fill="#000000" font-family="sans-serif" font-size="20" lengthAdjust="spacing" textLength="194" x="104.5" y="711.8125">JpaRepositoryFactory</text><line style="stroke:#181818;stroke-width:0.5;" x1="23.5" x2="344.5" y1="721.207" y2="721.207"/><line style="stroke:#181818;stroke-width:0.5;" x1="23.5" x2="344.5" y1="729.207" y2="729.207"/><rect fill="#F24D5C" height="6" style="stroke:#C82930;stroke-width:1.0;" width="6" x="30.5" y="744.2852"/><text fill="#000000" font-family="sans-serif" font-size="20" lengthAdjust="spacing" textLength="208" x="43.5" y="753.9688">JpaRepositoryFactory()</text><ellipse cx="33.5" cy="772.4414" fill="#84BE84" rx="3" ry="3" style="stroke:#038048;stroke-width:1.0;"/><text fill="#000000" font-family="sans-serif" font-size="20" lengthAdjust="spacing" textLength="296" x="43.5" y="779.125">getInstance() : RepositoryFactory</text></g><!--class InMemoryCustomerRepository--><g id="elem_InMemoryCustomerRepository"><rect codeLine="97" fill="#F1F1F1" height="76.3125" id="InMemoryCustomerRepository" rx="2.5" ry="2.5" style="stroke:#181818;stroke-width:0.5;" width="302" x="577" y="1226.3945"/><ellipse cx="593" cy="1256.5508" fill="#ADD1B2" rx="12" ry="12" style="stroke:#181818;stroke-width:1.0;"/><path d="M595.1406,1251.4727 Q595.3281,1251.2227 595.5469,1251.0977 Q595.7656,1250.957 596.0156,1250.957 Q596.4531,1250.957 596.7344,1251.2695 Q597.0156,1251.5664 597.0156,1252.2852 L597.0156,1253.9883 Q597.0156,1254.707 596.7344,1255.0195 Q596.4531,1255.332 596.0156,1255.332 Q595.625,1255.332 595.375,1255.0977 Q595.125,1254.8789 595.0156,1254.2695 Q594.9531,1253.8477 594.7344,1253.6289 Q594.3438,1253.1914 593.625,1252.9258 Q592.9063,1252.6602 592.1875,1252.6602 Q591.2813,1252.6602 590.5313,1253.0508 Q589.7813,1253.4414 589.2031,1254.332 Q588.625,1255.207 588.625,1256.4102 L588.625,1257.707 Q588.625,1259.1602 589.6719,1260.1289 Q590.7344,1261.0977 592.5938,1261.0977 Q593.7031,1261.0977 594.4844,1260.7852 Q594.9219,1260.6133 595.4375,1260.0977 Q595.75,1259.7852 595.9219,1259.6914 Q596.0938,1259.5977 596.3281,1259.5977 Q596.7188,1259.5977 597.0156,1259.9102 Q597.3281,1260.207 597.3281,1260.6133 Q597.3281,1261.0195 596.9219,1261.4883 Q596.3281,1262.1758 595.3906,1262.5664 Q594.125,1263.0977 592.6094,1263.0977 Q590.8281,1263.0977 589.4063,1262.3633 Q588.25,1261.7695 587.4375,1260.5039 Q586.625,1259.2383 586.625,1257.7539 L586.625,1256.3945 Q586.625,1254.832 587.3438,1253.4883 Q588.0781,1252.1289 589.3594,1251.3945 Q590.6563,1250.6602 592.1094,1250.6602 Q592.9688,1250.6602 593.7188,1250.8633 Q594.4844,1251.0664 595.1406,1251.4727 Z " fill="#000000"/><text fill="#000000" font-family="sans-serif" font-size="20" font-style="italic" lengthAdjust="spacing" textLength="117" x="683.5" y="1252.1563">«Repository»</text><text fill="#000000" font-family="sans-serif" font-size="20" lengthAdjust="spacing" textLength="268" x="608" y="1277.3125">InMemoryCustomerRepository</text><line style="stroke:#181818;stroke-width:0.5;" x1="578" x2="878" y1="1286.707" y2="1286.707"/><line style="stroke:#181818;stroke-width:0.5;" x1="578" x2="878" y1="1294.707" y2="1294.707"/></g><!--class InMemoryRepositoryFactory--><g id="elem_InMemoryRepositoryFactory"><rect codeLine="100" fill="#F1F1F1" height="126.625" id="InMemoryRepositoryFactory" rx="2.5" ry="2.5" style="stroke:#181818;stroke-width:0.5;" width="323" x="504.5" y="904.8945"/><ellipse cx="538.05" cy="935.0508" fill="#ADD1B2" rx="12" ry="12" style="stroke:#181818;stroke-width:1.0;"/><path d="M540.1906,929.9727 Q540.3781,929.7227 540.5969,929.5977 Q540.8156,929.457 541.0656,929.457 Q541.5031,929.457 541.7844,929.7695 Q542.0656,930.0664 542.0656,930.7852 L542.0656,932.4883 Q542.0656,933.207 541.7844,933.5195 Q541.5031,933.832 541.0656,933.832 Q540.675,933.832 540.425,933.5977 Q540.175,933.3789 540.0656,932.7695 Q540.0031,932.3477 539.7844,932.1289 Q539.3938,931.6914 538.675,931.4258 Q537.9563,931.1602 537.2375,931.1602 Q536.3313,931.1602 535.5813,931.5508 Q534.8313,931.9414 534.2531,932.832 Q533.675,933.707 533.675,934.9102 L533.675,936.207 Q533.675,937.6602 534.7219,938.6289 Q535.7844,939.5977 537.6438,939.5977 Q538.7531,939.5977 539.5344,939.2852 Q539.9719,939.1133 540.4875,938.5977 Q540.8,938.2852 540.9719,938.1914 Q541.1438,938.0977 541.3781,938.0977 Q541.7688,938.0977 542.0656,938.4102 Q542.3781,938.707 542.3781,939.1133 Q542.3781,939.5195 541.9719,939.9883 Q541.3781,940.6758 540.4406,941.0664 Q539.175,941.5977 537.6594,941.5977 Q535.8781,941.5977 534.4563,940.8633 Q533.3,940.2695 532.4875,939.0039 Q531.675,937.7383 531.675,936.2539 L531.675,934.8945 Q531.675,933.332 532.3938,931.9883 Q533.1281,930.6289 534.4094,929.8945 Q535.7063,929.1602 537.1594,929.1602 Q538.0188,929.1602 538.7688,929.3633 Q539.5344,929.5664 540.1906,929.9727 Z " fill="#000000"/><text fill="#000000" font-family="sans-serif" font-size="20" font-style="italic" lengthAdjust="spacing" textLength="88" x="637.95" y="930.6563">«Factory»</text><text fill="#000000" font-family="sans-serif" font-size="20" lengthAdjust="spacing" textLength="250" x="556.95" y="955.8125">InMemoryRepositoryFactory</text><line style="stroke:#181818;stroke-width:0.5;" x1="505.5" x2="826.5" y1="965.207" y2="965.207"/><line style="stroke:#181818;stroke-width:0.5;" x1="505.5" x2="826.5" y1="973.207" y2="973.207"/><rect fill="#F24D5C" height="6" style="stroke:#C82930;stroke-width:1.0;" width="6" x="512.5" y="988.2852"/><text fill="#000000" font-family="sans-serif" font-size="20" lengthAdjust="spacing" textLength="264" x="525.5" y="997.9688">InMemoryRepositoryFactory()</text><ellipse cx="515.5" cy="1016.4414" fill="#84BE84" rx="3" ry="3" style="stroke:#038048;stroke-width:1.0;"/><text fill="#000000" font-family="sans-serif" font-size="20" lengthAdjust="spacing" textLength="296" x="525.5" y="1023.125">getInstance() : RepositoryFactory</text></g><!--class PersistenceContext--><g id="elem_PersistenceContext"><rect codeLine="107" fill="#F1F1F1" height="76.3125" id="PersistenceContext" rx="2.5" ry="2.5" style="stroke:#181818;stroke-width:0.5;" width="396" x="792" y="465.8945"/><ellipse cx="900.5" cy="483.4727" fill="#ADD1B2" rx="12" ry="12" style="stroke:#181818;stroke-width:1.0;"/><path d="M902.6406,478.3945 Q902.8281,478.1445 903.0469,478.0195 Q903.2656,477.8789 903.5156,477.8789 Q903.9531,477.8789 904.2344,478.1914 Q904.5156,478.4883 904.5156,479.207 L904.5156,480.9102 Q904.5156,481.6289 904.2344,481.9414 Q903.9531,482.2539 903.5156,482.2539 Q903.125,482.2539 902.875,482.0195 Q902.625,481.8008 902.5156,481.1914 Q902.4531,480.7695 902.2344,480.5508 Q901.8438,480.1133 901.125,479.8477 Q900.4063,479.582 899.6875,479.582 Q898.7813,479.582 898.0313,479.9727 Q897.2813,480.3633 896.7031,481.2539 Q896.125,482.1289 896.125,483.332 L896.125,484.6289 Q896.125,486.082 897.1719,487.0508 Q898.2344,488.0195 900.0938,488.0195 Q901.2031,488.0195 901.9844,487.707 Q902.4219,487.5352 902.9375,487.0195 Q903.25,486.707 903.4219,486.6133 Q903.5938,486.5195 903.8281,486.5195 Q904.2188,486.5195 904.5156,486.832 Q904.8281,487.1289 904.8281,487.5352 Q904.8281,487.9414 904.4219,488.4102 Q903.8281,489.0977 902.8906,489.4883 Q901.625,490.0195 900.1094,490.0195 Q898.3281,490.0195 896.9063,489.2852 Q895.75,488.6914 894.9375,487.4258 Q894.125,486.1602 894.125,484.6758 L894.125,483.3164 Q894.125,481.7539 894.8438,480.4102 Q895.5781,479.0508 896.8594,478.3164 Q898.1563,477.582 899.6094,477.582 Q900.4688,477.582 901.2188,477.7852 Q901.9844,477.9883 902.6406,478.3945 Z " fill="#000000"/><text fill="#000000" font-family="sans-serif" font-size="20" lengthAdjust="spacing" textLength="170" x="922.5" y="491.6563">PersistenceContext</text><line style="stroke:#181818;stroke-width:0.5;" x1="793" x2="1187" y1="501.0508" y2="501.0508"/><line style="stroke:#181818;stroke-width:0.5;" x1="793" x2="1187" y1="509.0508" y2="509.0508"/><text fill="#000000" font-family="sans-serif" font-size="20" lengthAdjust="spacing" textLength="384" x="798" y="533.8125">getRepositoryFactory() : RepositoryFactory</text></g><!--link Customer to CustomerRepresentative--><g id="link_Customer_CustomerRepresentative"><path codeLine="113" d="M1876.02,1837.9045 C1827.53,1865.0345 1767.56,1894.5145 1710,1911.8945 C1680.02,1920.9445 1670.67,1913.5545 1640,1919.8945 C1571.9,1933.9645 1498.04,1955.3445 1435.63,1975.2645 " fill="none" id="Customer-to-CustomerRepresentative" style="stroke:#181818;stroke-width:1.0;"/><polygon fill="#181818" points="1430.78,1976.8145,1440.5722,1977.8695,1435.5403,1975.2849,1438.1249,1970.253,1430.78,1976.8145" style="stroke:#181818;stroke-width:1.0;"/><text fill="#000000" font-family="sans-serif" font-size="20" lengthAdjust="spacing" textLength="135" x="1641" y="1941.6563">representatives</text><text fill="#000000" font-family="sans-serif" font-size="20" lengthAdjust="spacing" textLength="31" x="1416.0878" y="1964.4741">1..*</text></g><!--link Customer to VatNumber--><g id="link_Customer_VatNumber"><path codeLine="114" d="M1956.52,1838.0845 C1941.57,1883.8545 1921.71,1944.6345 1908.65,1984.5945 " fill="none" id="Customer-to-VatNumber" style="stroke:#181818;stroke-width:1.0;"/><polygon fill="#181818" points="1907.1,1989.3645,1913.6879,1982.0434,1908.6467,1984.6098,1906.0803,1979.5686,1907.1,1989.3645" style="stroke:#181818;stroke-width:1.0;"/><text fill="#000000" font-family="sans-serif" font-size="20" lengthAdjust="spacing" textLength="26" x="1929" y="1941.6563">vat</text><text fill="#000000" font-family="sans-serif" font-size="20" lengthAdjust="spacing" textLength="11" x="1897.1519" y="1977.0606">1</text></g><!--link Customer to Address--><g id="link_Customer_Address"><path codeLine="115" d="M1906.32,1838.0845 C1854.19,1884.3145 1784.79,1945.8745 1739.76,1985.8145 " fill="none" id="Customer-to-Address" style="stroke:#181818;stroke-width:1.0;"/><polygon fill="#181818" points="1735.75,1989.3645,1745.1341,1986.3749,1739.487,1986.0427,1739.8192,1980.3956,1735.75,1989.3645" style="stroke:#181818;stroke-width:1.0;"/><text fill="#000000" font-family="sans-serif" font-size="20" lengthAdjust="spacing" textLength="71" x="1811" y="1941.6563">address</text><text fill="#000000" font-family="sans-serif" font-size="20" lengthAdjust="spacing" textLength="11" x="1730.5273" y="1977.0606">1</text></g><!--link Customer to CustomerStatus--><g id="link_Customer_CustomerStatus"><path codeLine="116" d="M2007.97,1838.0845 C2030.58,1883.8545 2060.61,1944.6345 2080.35,1984.5945 " fill="none" id="Customer-to-CustomerStatus" style="stroke:#181818;stroke-width:1.0;"/><polygon fill="#181818" points="2082.71,1989.3645,2082.3131,1979.5237,2080.4968,1984.881,2075.1395,1983.0648,2082.71,1989.3645" style="stroke:#181818;stroke-width:1.0;"/><text fill="#000000" font-family="sans-serif" font-size="20" lengthAdjust="spacing" textLength="53" x="2061" y="1941.6563">status</text><text fill="#000000" font-family="sans-serif" font-size="20" lengthAdjust="spacing" textLength="11" x="2067.9185" y="1977.0606">1</text></g><!--link Customer to CustomerType--><g id="link_Customer_CustomerType"><path codeLine="117" d="M2059.42,1838.0845 C2120.45,1884.5045 2201.78,1946.3645 2254.28,1986.2945 " fill="none" id="Customer-to-CustomerType" style="stroke:#181818;stroke-width:1.0;"/><polygon fill="#181818" points="2258.32,1989.3645,2253.5741,1980.7346,2254.3389,1986.3395,2248.734,1987.1043,2258.32,1989.3645" style="stroke:#181818;stroke-width:1.0;"/><text fill="#000000" font-family="sans-serif" font-size="20" lengthAdjust="spacing" textLength="38" x="2201" y="1941.6563">type</text><text fill="#000000" font-family="sans-serif" font-size="20" lengthAdjust="spacing" textLength="11" x="2238.6851" y="1977.0606">1</text></g><!--link Customer to Name--><g id="link_Customer_Name"><path codeLine="118" d="M2202.47,1837.9645 C2339.41,1888.3745 2475.86,1968.8445 2408,2077.8945 C2302.29,2247.7745 2054.93,2308.1245 1922.08,2328.7445 " fill="none" id="Customer-to-Name" style="stroke:#181818;stroke-width:1.0;"/><polygon fill="#181818" points="1917.01,2329.5245,1926.5119,2332.1157,1921.9524,2328.7675,1925.3006,2324.2079,1917.01,2329.5245" style="stroke:#181818;stroke-width:1.0;"/><text fill="#000000" font-family="sans-serif" font-size="20" lengthAdjust="spacing" textLength="48" x="2386" y="2129.6563">name</text><text fill="#000000" font-family="sans-serif" font-size="20" lengthAdjust="spacing" textLength="11" x="1924.8929" y="2323.2424">1</text></g><!--link CustomerRepresentative to Position--><g id="link_CustomerRepresentative_Position"><path codeLine="120" d="M1220.41,2078.0545 C1208.87,2087.5145 1197.29,2097.6745 1187,2107.8945 C1170.89,2123.9045 1154.93,2143.2745 1141.9,2160.2645 " fill="none" id="CustomerRepresentative-to-Position" style="stroke:#181818;stroke-width:1.0;"/><polygon fill="#181818" points="1138.65,2164.5345,1147.2882,2159.8036,1141.6819,2160.5587,1140.9268,2154.9525,1138.65,2164.5345" style="stroke:#181818;stroke-width:1.0;"/><text fill="#000000" font-family="sans-serif" font-size="20" lengthAdjust="spacing" textLength="67" x="1188" y="2129.6563">position</text><text fill="#000000" font-family="sans-serif" font-size="20" lengthAdjust="spacing" textLength="11" x="1130.8886" y="2152.4963">1</text></g><!--link CustomerRepresentative to Name--><g id="link_CustomerRepresentative_Name"><path codeLine="121" d="M1279.58,2078.0345 C1271.47,2133.0445 1263.09,2217.1345 1283,2240.8945 C1340.99,2310.1045 1605.21,2330.4745 1745.64,2336.4445 " fill="none" id="CustomerRepresentative-to-Name" style="stroke:#181818;stroke-width:1.0;"/><polygon fill="#181818" points="1750.99,2336.6645,1742.1695,2332.2828,1745.9946,2336.4504,1741.827,2340.2755,1750.99,2336.6645" style="stroke:#181818;stroke-width:1.0;"/><text fill="#000000" font-family="sans-serif" font-size="20" lengthAdjust="spacing" textLength="48" x="1284" y="2211.1563">name</text><text fill="#000000" font-family="sans-serif" font-size="20" lengthAdjust="spacing" textLength="11" x="1732.1071" y="2331.0183">1</text></g><!--link CustomerRepresentative to Email--><g id="link_CustomerRepresentative_Email"><path codeLine="122" d="M1329.55,2078.1145 C1351.48,2104.3445 1378.05,2136.1445 1398.77,2160.9445 " fill="none" id="CustomerRepresentative-to-Email" style="stroke:#181818;stroke-width:1.0;"/><polygon fill="#181818" points="1402.05,2164.8545,1399.3266,2155.3897,1398.835,2161.0252,1393.1996,2160.5336,1402.05,2164.8545" style="stroke:#181818;stroke-width:1.0;"/><text fill="#000000" font-family="sans-serif" font-size="20" lengthAdjust="spacing" textLength="46" x="1374" y="2129.6563">email</text><text fill="#000000" font-family="sans-serif" font-size="20" lengthAdjust="spacing" textLength="11" x="1385.2408" y="2152.549">1</text></g><!--link CustomerRepresentative to PhoneNumber--><g id="link_CustomerRepresentative_PhoneNumber"><path codeLine="123" d="M1387.15,2078.1145 C1440.65,2104.9445 1505.75,2137.5845 1555.66,2162.6145 " fill="none" id="CustomerRepresentative-to-PhoneNumber" style="stroke:#181818;stroke-width:1.0;"/><polygon fill="#181818" points="1560.14,2164.8545,1553.8693,2157.2599,1555.665,2162.6242,1550.3007,2164.4199,1560.14,2164.8545" style="stroke:#181818;stroke-width:1.0;"/><text fill="#000000" font-family="sans-serif" font-size="20" lengthAdjust="spacing" textLength="121" x="1492" y="2129.6563">phoneNumber</text><text fill="#000000" font-family="sans-serif" font-size="20" lengthAdjust="spacing" textLength="11" x="1536.492" y="2152.549">1</text></g><!--link CustomerRepresentative to CustomerRepresentativeStatus--><g id="link_CustomerRepresentative_CustomerRepresentativeStatus"><path codeLine="124" d="M1508.33,2078.0045 C1546.39,2087.3745 1585.45,2097.5145 1622,2107.8945 C1679.96,2124.3545 1743.71,2145.1945 1796.1,2163.0745 " fill="none" id="CustomerRepresentative-to-CustomerRepresentativeStatus" style="stroke:#181818;stroke-width:1.0;"/><polygon fill="#181818" points="1801.13,2164.7945,1793.905,2158.1013,1796.3981,2163.1791,1791.3203,2165.6723,1801.13,2164.7945" style="stroke:#181818;stroke-width:1.0;"/><text fill="#000000" font-family="sans-serif" font-size="20" lengthAdjust="spacing" textLength="53" x="1709" y="2129.6563">status</text><text fill="#000000" font-family="sans-serif" font-size="20" lengthAdjust="spacing" textLength="11" x="1772.5398" y="2152.4794">1</text></g><!--link RepositoryFactory to CustomerRepository--><g id="link_RepositoryFactory_CustomerRepository"><path codeLine="126" d="M1296.41,1328.0345 C1307,1362.2045 1320.12,1404.5345 1330.96,1439.4945 " fill="none" id="RepositoryFactory-to-CustomerRepository" style="stroke:#181818;stroke-width:1.0;stroke-dasharray:7.0,7.0;"/><polygon fill="#181818" points="1332.54,1444.6045,1333.6835,1434.8223,1331.0535,1439.8306,1326.0452,1437.2007,1332.54,1444.6045" style="stroke:#181818;stroke-width:1.0;"/><text fill="#000000" font-family="sans-serif" font-size="20" lengthAdjust="spacing" textLength="222" x="1313" y="1379.6563">getCustomerRepository()</text></g><!--link CustomerRepository to Customer--><g id="link_CustomerRepository_Customer"><path codeLine="128" d="M1500.12,1571.9545 C1597.83,1613.2345 1725.53,1667.1745 1824.19,1708.8445 " fill="none" id="CustomerRepository-to-Customer" style="stroke:#181818;stroke-width:1.0;"/><polygon fill="#181818" points="1828.87,1710.8245,1822.1355,1703.638,1824.264,1708.8791,1819.0228,1711.0076,1828.87,1710.8245" style="stroke:#181818;stroke-width:1.0;"/><text fill="#000000" font-family="sans-serif" font-size="20" lengthAdjust="spacing" textLength="91" x="1628" y="1625.6563">customers</text><text fill="#000000" font-family="sans-serif" font-size="20" lengthAdjust="spacing" textLength="31" x="1779.973" y="1698.2951">0..*</text></g><!--link ListCustomerRepresentativesUI to ListCustomerRepresentativesController--><g id="link_ListCustomerRepresentativesUI_ListCustomerRepresentativesController"><path codeLine="130" d="M2262,127.0145 C2262,151.7945 2262,185.1245 2262,214.5645 " fill="none" id="ListCustomerRepresentativesUI-to-ListCustomerRepresentativesController" style="stroke:#181818;stroke-width:1.0;stroke-dasharray:7.0,7.0;"/><polygon fill="#181818" points="2262,219.6245,2266,210.6245,2262,214.6245,2258,210.6245,2262,219.6245" style="stroke:#181818;stroke-width:1.0;"/></g><!--link ListCustomerRepresentativesController to RepositoryFactory--><g id="link_ListCustomerRepresentativesController_RepositoryFactory"><path codeLine="132" d="M2024.27,341.5545 C1890.08,380.9945 1749,437.9145 1749,502.8945 C1749,502.8945 1749,502.8945 1749,969.3945 C1749,1095.5645 1625.99,1169.5345 1505.57,1211.7145 " fill="none" id="ListCustomerRepresentativesController-to-RepositoryFactory" style="stroke:#181818;stroke-width:1.0;stroke-dasharray:7.0,7.0;"/><polygon fill="#181818" points="1500.56,1213.4545,1510.375,1214.2701,1505.2815,1211.8092,1507.7424,1206.7156,1500.56,1213.4545" style="stroke:#181818;stroke-width:1.0;"/><text fill="#000000" font-family="sans-serif" font-size="20" lengthAdjust="spacing" textLength="222" x="1750" y="732.6563">getCustomerRepository()</text></g><!--link ListCustomerRepresentativesController to CustomerListMapper--><g id="link_ListCustomerRepresentativesController_CustomerListMapper"><path codeLine="133" d="M2352.02,347.0245 C2396.6,385.9245 2441,440.3745 2441,502.8945 C2441,502.8945 2441,502.8945 2441,1265.3945 C2441,1341.2945 2387.32,1351.8345 2319,1384.8945 C2293.59,1397.1845 2283.21,1385.3845 2256,1392.8945 C2211.07,1405.2845 2163.86,1423.9845 2122.09,1442.7045 " fill="none" id="ListCustomerRepresentativesController-to-CustomerListMapper" style="stroke:#181818;stroke-width:1.0;stroke-dasharray:7.0,7.0;"/><polygon fill="#181818" points="2117.28,1444.8745,2127.1287,1444.8174,2121.8372,1442.8174,2123.8372,1437.5259,2117.28,1444.8745" style="stroke:#181818;stroke-width:1.0;"/><text fill="#000000" font-family="sans-serif" font-size="20" lengthAdjust="spacing" textLength="154" x="2442" y="839.6563">customerListDTO</text></g><!--link ListCustomerRepresentativesController to CustomerRepresentativeListMapper--><g id="link_ListCustomerRepresentativesController_CustomerRepresentativeListMapper"><path codeLine="134" d="M2499.76,340.3145 C2574.06,372.9245 2637,423.8745 2637,502.8945 C2637,502.8945 2637,502.8945 2637,1265.3945 C2637,1324.2245 2634.01,1391.0245 2631.3,1439.5245 " fill="none" id="ListCustomerRepresentativesController-to-CustomerRepresentativeListMapper" style="stroke:#181818;stroke-width:1.0;stroke-dasharray:7.0,7.0;"/><polygon fill="#181818" points="2631.01,1444.7445,2635.5169,1435.9874,2631.2952,1439.7527,2627.53,1435.531,2631.01,1444.7445" style="stroke:#181818;stroke-width:1.0;"/><text fill="#000000" font-family="sans-serif" font-size="20" lengthAdjust="spacing" textLength="198" x="2638" y="839.6563">representativeListDTO</text></g><!--link ListCustomerRepresentativesController to CustomerRepository--><g id="link_ListCustomerRepresentativesController_CustomerRepository"><path codeLine="135" d="M2261.53,347.2245 C2260.82,446.9645 2259.48,647.7045 2259,817.8945 C2258.33,1057.9545 2268.19,1117.8545 2271,1357.8945 C2271.14,1369.8945 2279.42,1376.3445 2271,1384.8945 C2260.53,1395.5245 1748.74,1390.6245 1734,1392.8945 C1665.81,1403.4145 1592.83,1423.0945 1529.11,1443.2045 " fill="none" id="ListCustomerRepresentativesController-to-CustomerRepository" style="stroke:#181818;stroke-width:1.0;stroke-dasharray:7.0,7.0;"/><polygon fill="#181818" points="1524.15,1444.7845,1533.9363,1445.8929,1528.9186,1443.2809,1531.5305,1438.2632,1524.15,1444.7845" style="stroke:#181818;stroke-width:1.0;"/><text fill="#000000" font-family="sans-serif" font-size="20" lengthAdjust="spacing" textLength="137" x="2260" y="839.6563">getCustomers()</text></g><!--link ListCustomerRepresentativesController to PersistenceContext--><g id="link_ListCustomerRepresentativesController_PersistenceContext"><path codeLine="136" d="M2024.49,308.0945 C1877.68,324.3345 1685.72,348.4345 1517,378.8945 C1386.57,402.4445 1239.93,437.6745 1134.51,464.5745 " fill="none" id="ListCustomerRepresentativesController-to-PersistenceContext" style="stroke:#181818;stroke-width:1.0;stroke-dasharray:7.0,7.0;"/><polygon fill="#181818" points="1129.53,465.8445,1139.2373,467.5086,1134.3765,464.615,1137.2701,459.7543,1129.53,465.8445" style="stroke:#181818;stroke-width:1.0;"/><text fill="#000000" font-family="sans-serif" font-size="20" lengthAdjust="spacing" textLength="204" x="1518" y="400.6563">getRepositoryFactory()</text></g><!--link CustomerDTO to CustomerListMapper--><g id="link_CustomerDTO_CustomerListMapper"><path codeLine="138" d="M1828.37,1302.5745 C1828.24,1327.3145 1831.29,1359.7745 1845,1384.8945 C1856.49,1405.9345 1873.2,1424.7845 1891.32,1441.0345 " fill="none" id="CustomerDTO-to-CustomerListMapper" style="stroke:#181818;stroke-width:1.0;stroke-dasharray:7.0,7.0;"/><polygon fill="#181818" points="1895.45,1444.6745,1891.3468,1435.7211,1891.7004,1441.3669,1886.0546,1441.7205,1895.45,1444.6745" style="stroke:#181818;stroke-width:1.0;"/><text fill="#000000" font-family="sans-serif" font-size="20" lengthAdjust="spacing" textLength="123" x="1846" y="1379.6563">customerDTO</text></g><!--link CustomerRepresentativeDTO to CustomerRepresentativeListMapper--><g id="link_CustomerRepresentativeDTO_CustomerRepresentativeListMapper"><path codeLine="139" d="M2173.47,1302.4245 C2225.03,1326.1145 2293.4,1357.4245 2354,1384.8945 C2395.57,1403.7345 2440.77,1424.0745 2482.2,1442.6645 " fill="none" id="CustomerRepresentativeDTO-to-CustomerRepresentativeListMapper" style="stroke:#181818;stroke-width:1.0;stroke-dasharray:7.0,7.0;"/><polygon fill="#181818" points="2486.97,1444.8045,2480.3936,1437.473,2482.4075,1442.7593,2477.1212,1444.7731,2486.97,1444.8045" style="stroke:#181818;stroke-width:1.0;"/><text fill="#000000" font-family="sans-serif" font-size="20" lengthAdjust="spacing" textLength="255" x="2355" y="1379.6563">customerRepresentativeDTO</text></g><!--link PersistenceContext to JpaRepositoryFactory--><g id="link_PersistenceContext_JpaRepositoryFactory"><path codeLine="141" d="M804.33,541.9245 C759.82,551.5945 712.57,562.5145 669,573.8945 C562.21,601.7745 443.81,638.1645 350.73,668.0545 " fill="none" id="PersistenceContext-to-JpaRepositoryFactory" style="stroke:#181818;stroke-width:1.0;stroke-dasharray:7.0,7.0;"/><polygon fill="#181818" points="345.76,669.6545,355.5522,670.7095,350.5203,668.1249,353.1049,663.093,345.76,669.6545" style="stroke:#181818;stroke-width:1.0;"/><text fill="#000000" font-family="sans-serif" font-size="20" lengthAdjust="spacing" textLength="116" x="670" y="595.6563">getInstance()</text></g><!--link PersistenceContext to InMemoryRepositoryFactory--><g id="link_PersistenceContext_InMemoryRepositoryFactory"><path codeLine="142" d="M964.03,541.9645 C909.43,619.8945 782.08,801.6945 712.84,900.5345 " fill="none" id="PersistenceContext-to-InMemoryRepositoryFactory" style="stroke:#181818;stroke-width:1.0;stroke-dasharray:7.0,7.0;"/><polygon fill="#181818" points="709.79,904.8845,718.2376,899.8211,712.665,900.7938,711.6924,895.2211,709.79,904.8845" style="stroke:#181818;stroke-width:1.0;"/><text fill="#000000" font-family="sans-serif" font-size="20" lengthAdjust="spacing" textLength="116" x="916" y="732.6563">getInstance()</text></g><!--link PersistenceContext to RepositoryFactory--><g id="link_PersistenceContext_RepositoryFactory"><path codeLine="143" d="M1030.91,542.0745 C1092.56,601.0045 1207.13,722.6345 1255,852.8945 C1297.04,967.2745 1292.78,1111.7045 1285.29,1195.2045 " fill="none" id="PersistenceContext-to-RepositoryFactory" style="stroke:#181818;stroke-width:1.0;stroke-dasharray:7.0,7.0;"/><polygon fill="#181818" points="1284.79,1200.6145,1289.5973,1192.0186,1285.2478,1195.6355,1281.6309,1191.2861,1284.79,1200.6145" style="stroke:#181818;stroke-width:1.0;"/><text fill="#000000" font-family="sans-serif" font-size="20" lengthAdjust="spacing" textLength="222" x="1252" y="839.6563">getCustomerRepository()</text></g><!--link JpaRepositoryFactory to RepositoryFactory--><g id="link_JpaRepositoryFactory_RepositoryFactory"><path codeLine="145" d="M345.9,734.7845 C541.12,749.0745 854.44,782.4445 946,852.8945 C1015.21,906.1445 975.95,961.0445 1027,1031.8945 C1069.29,1090.5945 1128.24,1146.0445 1178.27,1187.9545 " fill="none" id="JpaRepositoryFactory-to-RepositoryFactory" style="stroke:#181818;stroke-width:1.0;stroke-dasharray:7.0,7.0;"/><polygon fill="none" points="1182.86,1182.6645,1193.83,1200.7945,1173.94,1193.4645,1182.86,1182.6645" style="stroke:#181818;stroke-width:1.0;"/><text fill="#000000" font-family="sans-serif" font-size="20" lengthAdjust="spacing" textLength="222" x="1028" y="976.6563">getCustomerRepository()</text></g><!--link JpaRepositoryFactory to JpaCustomerRepository--><g id="link_JpaRepositoryFactory_JpaCustomerRepository"><path codeLine="146" d="M202.38,788.0345 C215.04,831.1845 231.52,887.3745 242.64,925.2645 " fill="none" id="JpaRepositoryFactory-to-JpaCustomerRepository" style="stroke:#181818;stroke-width:1.0;stroke-dasharray:7.0,7.0;"/><polygon fill="#181818" points="244.1,930.2545,245.3932,920.491,242.6869,925.4584,237.7194,922.752,244.1,930.2545" style="stroke:#181818;stroke-width:1.0;"/></g><!--link JpaRepositoryFactory to JpaRepositoryFactory--><g id="link_JpaRepositoryFactory_JpaRepositoryFactory"><path codeLine="147" d="M345.51,706.9245 C366.56,709.9245 380.5,715.7545 380.5,724.3945 C380.5,732.2945 368.86,737.8445 350.77,741.0345 " fill="none" id="JpaRepositoryFactory-to-JpaRepositoryFactory" style="stroke:#181818;stroke-width:1.0;"/><polygon fill="#181818" points="345.51,741.8645,355.0264,744.402,350.448,741.0796,353.7704,736.5012,345.51,741.8645" style="stroke:#181818;stroke-width:1.0;"/><text fill="#000000" font-family="sans-serif" font-size="20" lengthAdjust="spacing" textLength="72" x="386.5" y="732.6563">instance</text></g><!--link JpaCustomerRepository to CustomerRepository--><g id="link_JpaCustomerRepository_CustomerRepository"><path codeLine="149" d="M252.76,1006.5345 C250.55,1079.7345 256.95,1242.8745 349,1327.8945 C441.64,1413.4545 742.2,1459.3945 990.35,1483.2945 " fill="none" id="JpaCustomerRepository-to-CustomerRepository" style="stroke:#181818;stroke-width:1.0;stroke-dasharray:7.0,7.0;"/><polygon fill="none" points="991.14,1476.3445,1010.39,1485.1945,989.82,1490.2845,991.14,1476.3445" style="stroke:#181818;stroke-width:1.0;"/><text fill="#000000" font-family="sans-serif" font-size="20" lengthAdjust="spacing" textLength="137" x="350" y="1272.6563">getCustomers()</text></g><!--link InMemoryRepositoryFactory to RepositoryFactory--><g id="link_InMemoryRepositoryFactory_RepositoryFactory"><path codeLine="151" d="M694.99,1032.0745 C708.47,1053.9645 726.74,1076.2045 750,1088.8945 C769.13,1099.3345 924.9,1091.4345 946,1096.8945 C1022.11,1116.6045 1100.99,1155.4445 1162.65,1190.6645 " fill="none" id="InMemoryRepositoryFactory-to-RepositoryFactory" style="stroke:#181818;stroke-width:1.0;stroke-dasharray:7.0,7.0;"/><polygon fill="none" points="1166.2,1184.6245,1179.98,1200.7145,1159.17,1196.7345,1166.2,1184.6245" style="stroke:#181818;stroke-width:1.0;"/><text fill="#000000" font-family="sans-serif" font-size="20" lengthAdjust="spacing" textLength="222" x="751" y="1083.6563">getCustomerRepository()</text></g><!--link InMemoryRepositoryFactory to InMemoryCustomerRepository--><g id="link_InMemoryRepositoryFactory_InMemoryCustomerRepository"><path codeLine="152" d="M679.22,1032.1045 C691.26,1089.1645 708.69,1171.8345 719.13,1221.3245 " fill="none" id="InMemoryRepositoryFactory-to-InMemoryCustomerRepository" style="stroke:#181818;stroke-width:1.0;stroke-dasharray:7.0,7.0;"/><polygon fill="#181818" points="720.18,1226.3045,722.2401,1216.6735,719.1499,1221.4118,714.4117,1218.3216,720.18,1226.3045" style="stroke:#181818;stroke-width:1.0;"/></g><!--link InMemoryRepositoryFactory to InMemoryRepositoryFactory--><g id="link_InMemoryRepositoryFactory_InMemoryRepositoryFactory"><path codeLine="153" d="M827.51,950.9245 C848.56,953.9245 862.5,959.7545 862.5,968.3945 C862.5,976.2945 850.86,981.8445 832.77,985.0345 " fill="none" id="InMemoryRepositoryFactory-to-InMemoryRepositoryFactory" style="stroke:#181818;stroke-width:1.0;"/><polygon fill="#181818" points="827.51,985.8645,837.0264,988.402,832.448,985.0796,835.7704,980.5012,827.51,985.8645" style="stroke:#181818;stroke-width:1.0;"/><text fill="#000000" font-family="sans-serif" font-size="20" lengthAdjust="spacing" textLength="72" x="868.5" y="976.6563">instance</text></g><!--link InMemoryCustomerRepository to CustomerRepository--><g id="link_InMemoryCustomerRepository_CustomerRepository"><path codeLine="155" d="M823.45,1302.4145 C915.86,1338.2545 1058.29,1393.4845 1172.02,1437.5945 " fill="none" id="InMemoryCustomerRepository-to-CustomerRepository" style="stroke:#181818;stroke-width:1.0;stroke-dasharray:7.0,7.0;"/><polygon fill="none" points="1174.62,1431.0945,1190.74,1444.8545,1169.56,1444.1445,1174.62,1431.0945" style="stroke:#181818;stroke-width:1.0;"/><text fill="#000000" font-family="sans-serif" font-size="20" lengthAdjust="spacing" textLength="137" x="1022" y="1379.6563">getCustomers()</text></g><!--link CustomerRepository to Repository--><g id="link_CustomerRepository_Repository"><path codeLine="157" d="M1352,1571.9545 C1352,1592.7445 1352,1616.7445 1352,1640.7745 " fill="none" id="CustomerRepository-to-Repository" style="stroke:#181818;stroke-width:1.0;stroke-dasharray:7.0,7.0;"/><polygon fill="none" points="1359,1640.8845,1352,1660.8845,1345,1640.8845,1359,1640.8845" style="stroke:#181818;stroke-width:1.0;"/></g><!--SRC=[hLVBSfim5Dtp5HftKTpOJDebus4cpQD3ftbCusIlWEoGW62GdAdR-jzxXNa88V5eoo8nSExLELVYN8czHZJ3EKxYD7Wb8Gh91kzYVfLIVX_z9EZJgSK8Hum844zpH5DAB2l3mIlU4ZIxI1CSqHbwTr5Sw9Tb8RYQz-jR-IKgho36ZA7p7UDfGd80eTKA_dgUX3aOqDz9bXD6ACSyUYDziGU5p3NECf8Fy_aMCNx4GkhZZrPsSPqWdiAeTb36p94hwr6m5OgjMq5CH8dHLbAe9waOLO8fTFDMf4owKrOblXrP2b4UTkHqade3KmG1AOjWeUsHRfvyoac-mG6HQLS1grLpeod0bl0gYDaTfbuNtIRFRZSLjfdqNhdQYMmKD6IlS50AA7zrs2-xQ7jkrjU0RMMAoyTZcGtLbE4tOeFUYE_HMWorLW0XYGcN8ChhJKJ3pti_jAFGHVSyZ-XMbqN0pkAucRMrfnsdJkLVg2C5wOxo8a6Sqgr-5RO_Cj1-MT1kwJwftziK9sI1S1Z2dBC5UiDyWHXC_Gvk-3uZSwjlETa37ujdPjO63l5ieqlMnPn6ALqW0WOUmuDdCFQRNV84gxexyjbH90prYECTGRTFBoJWzO072Vg8-J5DFvZGNL9Jl2-gDY5W3UKTG-Qkb3a6UmE56OEx50KRDNXJqWdIsjCrL9c3r8iVVDKoZpp48jDdPmy-f7xm3GdFOHUGft7SxPc3YPjG6A2vKPPe30awBdls1VxJZjVwuLo914UG35t37neX0noX0N6Y98kTbmphbNpDyDY6qlek86wiZI-rO5in2P-2Wm3VmXqww34Q8vgG1B1weJwzBjx-bTegUBnaOyJ_rArNUjS0nFeZFxZ4x6Z7AgN-eT_3onWBDs7FKSQikayibnwQVNIS3pEJGxlgxaaDdacswOfEqWLK5knM7QSBKUpKBRkH6LZOg5iqAnbKmGf7T97e69Pba5PXQwTrwzuo52Ad7u0UFTSzDgj1AfBlkd9Z6mhijU2wcbPt-JkEfzkGkgOzMQkQ5RfWSTfQHf2XFYfOLh-F2mwZ3BataUJR8c5NgbdJ-AoQSrOZL3mKfu_fwOod8lNp-wSXj9FB9kdNM9DhiAHcfOY3xc3nX2hpENbaiGBZYT3IC1T9jMtGRVkwATRSL4OccB96BIrJnt5-JyjZIEFfDn9wkFZU3OMBIj45NytQA_YEMPEMkRfJ9VTaacPH8zuSA2hGD_rD6NgsBUDhOGgMkFu1]--></g></svg>