<?xml version="1.0" encoding="UTF-8" standalone="no"?><svg xmlns="http://www.w3.org/2000/svg" xmlns:xlink="http://www.w3.org/1999/xlink" contentStyleType="text/css" height="278px" preserveAspectRatio="none" style="width:274px;height:278px;background:#FFFFFF;" version="1.1" viewBox="0 0 274 278" width="274px" zoomAndPan="magnify"><defs/><g><!--class Customer--><g id="elem_Customer"><rect codeLine="2" fill="#F1F1F1" height="101.4688" id="Customer" rx="2.5" ry="2.5" style="stroke:#181818;stroke-width:0.5;" width="119" x="73" y="7"/><ellipse cx="89" cy="49.7344" fill="#ADD1B2" rx="12" ry="12" style="stroke:#181818;stroke-width:1.0;"/><path d="M91.1406,44.6563 Q91.3281,44.4063 91.5469,44.2813 Q91.7656,44.1406 92.0156,44.1406 Q92.4531,44.1406 92.7344,44.4531 Q93.0156,44.75 93.0156,45.4688 L93.0156,47.1719 Q93.0156,47.8906 92.7344,48.2031 Q92.4531,48.5156 92.0156,48.5156 Q91.625,48.5156 91.375,48.2813 Q91.125,48.0625 91.0156,47.4531 Q90.9531,47.0313 90.7344,46.8125 Q90.3438,46.375 89.625,46.1094 Q88.9063,45.8438 88.1875,45.8438 Q87.2813,45.8438 86.5313,46.2344 Q85.7813,46.625 85.2031,47.5156 Q84.625,48.3906 84.625,49.5938 L84.625,50.8906 Q84.625,52.3438 85.6719,53.3125 Q86.7344,54.2813 88.5938,54.2813 Q89.7031,54.2813 90.4844,53.9688 Q90.9219,53.7969 91.4375,53.2813 Q91.75,52.9688 91.9219,52.875 Q92.0938,52.7813 92.3281,52.7813 Q92.7188,52.7813 93.0156,53.0938 Q93.3281,53.3906 93.3281,53.7969 Q93.3281,54.2031 92.9219,54.6719 Q92.3281,55.3594 91.3906,55.75 Q90.125,56.2813 88.6094,56.2813 Q86.8281,56.2813 85.4063,55.5469 Q84.25,54.9531 83.4375,53.6875 Q82.625,52.4219 82.625,50.9375 L82.625,49.5781 Q82.625,48.0156 83.3438,46.6719 Q84.0781,45.3125 85.3594,44.5781 Q86.6563,43.8438 88.1094,43.8438 Q88.9688,43.8438 89.7188,44.0469 Q90.4844,44.25 91.1406,44.6563 Z " fill="#000000"/><text fill="#000000" font-family="sans-serif" font-size="20" font-style="italic" lengthAdjust="spacing" textLength="71" x="111" y="32.7617">«Entity»</text><text fill="#000000" font-family="sans-serif" font-size="20" font-style="italic" lengthAdjust="spacing" textLength="56" x="118.5" y="57.918">«root»</text><text fill="#000000" font-family="sans-serif" font-size="20" lengthAdjust="spacing" textLength="85" x="104" y="83.0742">Customer</text><line style="stroke:#181818;stroke-width:0.5;" x1="74" x2="191" y1="92.4688" y2="92.4688"/><line style="stroke:#181818;stroke-width:0.5;" x1="74" x2="191" y1="100.4688" y2="100.4688"/></g><!--class CustomerRepresentative--><g id="elem_CustomerRepresentative"><rect codeLine="6" fill="#F1F1F1" height="76.3125" id="CustomerRepresentative" rx="2.5" ry="2.5" style="stroke:#181818;stroke-width:0.5;" width="251" x="7" y="195"/><ellipse cx="23" cy="225.1563" fill="#ADD1B2" rx="12" ry="12" style="stroke:#181818;stroke-width:1.0;"/><path d="M25.1406,220.0781 Q25.3281,219.8281 25.5469,219.7031 Q25.7656,219.5625 26.0156,219.5625 Q26.4531,219.5625 26.7344,219.875 Q27.0156,220.1719 27.0156,220.8906 L27.0156,222.5938 Q27.0156,223.3125 26.7344,223.625 Q26.4531,223.9375 26.0156,223.9375 Q25.625,223.9375 25.375,223.7031 Q25.125,223.4844 25.0156,222.875 Q24.9531,222.4531 24.7344,222.2344 Q24.3438,221.7969 23.625,221.5313 Q22.9063,221.2656 22.1875,221.2656 Q21.2813,221.2656 20.5313,221.6563 Q19.7813,222.0469 19.2031,222.9375 Q18.625,223.8125 18.625,225.0156 L18.625,226.3125 Q18.625,227.7656 19.6719,228.7344 Q20.7344,229.7031 22.5938,229.7031 Q23.7031,229.7031 24.4844,229.3906 Q24.9219,229.2188 25.4375,228.7031 Q25.75,228.3906 25.9219,228.2969 Q26.0938,228.2031 26.3281,228.2031 Q26.7188,228.2031 27.0156,228.5156 Q27.3281,228.8125 27.3281,229.2188 Q27.3281,229.625 26.9219,230.0938 Q26.3281,230.7813 25.3906,231.1719 Q24.125,231.7031 22.6094,231.7031 Q20.8281,231.7031 19.4063,230.9688 Q18.25,230.375 17.4375,229.1094 Q16.625,227.8438 16.625,226.3594 L16.625,225 Q16.625,223.4375 17.3438,222.0938 Q18.0781,220.7344 19.3594,220 Q20.6563,219.2656 22.1094,219.2656 Q22.9688,219.2656 23.7188,219.4688 Q24.4844,219.6719 25.1406,220.0781 Z " fill="#000000"/><text fill="#000000" font-family="sans-serif" font-size="20" font-style="italic" lengthAdjust="spacing" textLength="71" x="111" y="220.7617">«Entity»</text><text fill="#000000" font-family="sans-serif" font-size="20" lengthAdjust="spacing" textLength="217" x="38" y="245.918">CustomerRepresentative</text><line style="stroke:#181818;stroke-width:0.5;" x1="8" x2="257" y1="255.3125" y2="255.3125"/><line style="stroke:#181818;stroke-width:0.5;" x1="8" x2="257" y1="263.3125" y2="263.3125"/></g><!--link Customer to CustomerRepresentative--><g id="link_Customer_CustomerRepresentative"><path codeLine="12" d="M132.5,108.22 C132.5,134.02 132.5,165.2 132.5,189.81 " fill="none" id="Customer-to-CustomerRepresentative" style="stroke:#181818;stroke-width:1.0;"/><polygon fill="#181818" points="132.5,194.96,136.5,185.96,132.5,189.96,128.5,185.96,132.5,194.96" style="stroke:#181818;stroke-width:1.0;"/><text fill="#000000" font-family="sans-serif" font-size="20" lengthAdjust="spacing" textLength="133" x="133.5" y="159.7617">represented by</text><text fill="#000000" font-family="sans-serif" font-size="20" lengthAdjust="spacing" textLength="31" x="99.0297" y="182.6545">1..*</text></g><!--SRC=[AyxEp2j8B4hCpSbFpavDKKX9JKiipIbnoyyh2SwiIbKmCk3YIiv9B2vMS2ujBidFJIrIiB5npIl9BAcqimCoY_BpI-pighcuQj7L1QKM5AKMf-QL99PabgKYwO8eLeURfskdKC751USgw085b0przBIKS9bbfL044m0wEQcI2m00]--></g></svg>