<?xml version="1.0" encoding="UTF-8" standalone="no"?><svg xmlns="http://www.w3.org/2000/svg" xmlns:xlink="http://www.w3.org/1999/xlink" contentStyleType="text/css" height="2183px" preserveAspectRatio="none" style="width:2330px;height:2183px;background:#FFFFFF;" version="1.1" viewBox="0 0 2330 2183" width="2330px" zoomAndPan="magnify"><defs/><g><!--cluster Persistence --><g id="cluster_Persistence "><path d="M815.5,472.8945 L933.5,472.8945 A3.75,3.75 0 0 1 936,475.3945 L943,504.0508 L1248.5,504.0508 A2.5,2.5 0 0 1 1251,506.5508 L1251,606.3945 A2.5,2.5 0 0 1 1248.5,608.8945 L815.5,608.8945 A2.5,2.5 0 0 1 813,606.3945 L813,475.3945 A2.5,2.5 0 0 1 815.5,472.8945 " fill="#DDDDDD" style="stroke:#000000;stroke-width:1.5;"/><line style="stroke:#000000;stroke-width:1.5;" x1="813" x2="943" y1="504.0508" y2="504.0508"/><text fill="#000000" font-family="sans-serif" font-size="20" font-weight="bold" lengthAdjust="spacing" textLength="111" x="817" y="495.6563">Persistence</text></g><!--cluster persistence.impl.jpa--><g id="cluster_persistence.impl.jpa"><path d="M579.5,641.8945 L769.5,641.8945 A3.75,3.75 0 0 1 772,644.3945 L779,673.0508 L1099.5,673.0508 A2.5,2.5 0 0 1 1102,675.5508 L1102,993.3945 A2.5,2.5 0 0 1 1099.5,995.8945 L579.5,995.8945 A2.5,2.5 0 0 1 577,993.3945 L577,644.3945 A2.5,2.5 0 0 1 579.5,641.8945 " fill="#DDDDDD" style="stroke:#000000;stroke-width:1.5;"/><line style="stroke:#000000;stroke-width:1.5;" x1="577" x2="779" y1="673.0508" y2="673.0508"/><text fill="#000000" font-family="sans-serif" font-size="20" font-weight="bold" lengthAdjust="spacing" textLength="189" x="581" y="664.6563">persistence.impl.jpa</text></g><!--cluster persistence.impl.inmemory--><g id="cluster_persistence.impl.inmemory"><path d="M1624.5,859.8945 L1879.5,859.8945 A3.75,3.75 0 0 1 1882,862.3945 L1889,891.0508 L2320.5,891.0508 A2.5,2.5 0 0 1 2323,893.5508 L2323,1224.8945 A2.5,2.5 0 0 1 2320.5,1227.3945 L1624.5,1227.3945 A2.5,2.5 0 0 1 1622,1224.8945 L1622,862.3945 A2.5,2.5 0 0 1 1624.5,859.8945 " fill="#DDDDDD" style="stroke:#000000;stroke-width:1.5;"/><line style="stroke:#000000;stroke-width:1.5;" x1="1622" x2="1889" y1="891.0508" y2="891.0508"/><text fill="#000000" font-family="sans-serif" font-size="20" font-weight="bold" lengthAdjust="spacing" textLength="254" x="1626" y="882.6563">persistence.impl.inmemory</text></g><!--cluster Domain--><g id="cluster_Domain"><path d="M289.5,1051.8945 L361.5,1051.8945 A3.75,3.75 0 0 1 364,1054.3945 L371,1083.0508 L1595.5,1083.0508 A2.5,2.5 0 0 1 1598,1085.5508 L1598,2174.3945 A2.5,2.5 0 0 1 1595.5,2176.8945 L289.5,2176.8945 A2.5,2.5 0 0 1 287,2174.3945 L287,1054.3945 A2.5,2.5 0 0 1 289.5,1051.8945 " fill="#DDDDDD" style="stroke:#000000;stroke-width:1.5;"/><line style="stroke:#000000;stroke-width:1.5;" x1="287" x2="371" y1="1083.0508" y2="1083.0508"/><text fill="#000000" font-family="sans-serif" font-size="20" font-weight="bold" lengthAdjust="spacing" textLength="71" x="291" y="1074.6563">Domain</text></g><!--cluster Repository --><g id="cluster_Repository "><path d="M402.5,1103.8945 L512.5,1103.8945 A3.75,3.75 0 0 1 515,1106.3945 L522,1135.0508 L1558.5,1135.0508 A2.5,2.5 0 0 1 1561,1137.5508 L1561,1459.3945 A2.5,2.5 0 0 1 1558.5,1461.8945 L402.5,1461.8945 A2.5,2.5 0 0 1 400,1459.3945 L400,1106.3945 A2.5,2.5 0 0 1 402.5,1103.8945 " fill="#DDDDDD" style="stroke:#000000;stroke-width:1.5;"/><line style="stroke:#000000;stroke-width:1.5;" x1="400" x2="522" y1="1135.0508" y2="1135.0508"/><text fill="#000000" font-family="sans-serif" font-size="20" font-weight="bold" lengthAdjust="spacing" textLength="103" x="404" y="1126.6563">Repository</text></g><!--cluster UI--><g id="cluster_UI"><path d="M560.5,6.8945 L580.5,6.8945 A3.75,3.75 0 0 1 583,9.3945 L590,38.0508 L989.5,38.0508 A2.5,2.5 0 0 1 992,40.5508 L992,191.3945 A2.5,2.5 0 0 1 989.5,193.8945 L560.5,193.8945 A2.5,2.5 0 0 1 558,191.3945 L558,9.3945 A2.5,2.5 0 0 1 560.5,6.8945 " fill="#DDDDDD" style="stroke:#000000;stroke-width:1.5;"/><line style="stroke:#000000;stroke-width:1.5;" x1="558" x2="590" y1="38.0508" y2="38.0508"/><text fill="#000000" font-family="sans-serif" font-size="20" font-weight="bold" lengthAdjust="spacing" textLength="19" x="562" y="29.6563">UI</text></g><!--cluster Controller--><g id="cluster_Controller"><path d="M522.5,226.8945 L617.5,226.8945 A3.75,3.75 0 0 1 620,229.3945 L627,258.0508 L1027.5,258.0508 A2.5,2.5 0 0 1 1030,260.5508 L1030,411.3945 A2.5,2.5 0 0 1 1027.5,413.8945 L522.5,413.8945 A2.5,2.5 0 0 1 520,411.3945 L520,229.3945 A2.5,2.5 0 0 1 522.5,226.8945 " fill="#DDDDDD" style="stroke:#000000;stroke-width:1.5;"/><line style="stroke:#000000;stroke-width:1.5;" x1="520" x2="627" y1="258.0508" y2="258.0508"/><text fill="#000000" font-family="sans-serif" font-size="20" font-weight="bold" lengthAdjust="spacing" textLength="94" x="524" y="249.6563">Controller</text></g><!--class PersistenceContext--><g id="elem_PersistenceContext"><rect codeLine="4" fill="#F1F1F1" height="76.3125" id="PersistenceContext" rx="2.5" ry="2.5" style="stroke:#181818;stroke-width:0.5;" width="405" x="829.5" y="516.8945"/><ellipse cx="942.5" cy="534.4727" fill="#ADD1B2" rx="12" ry="12" style="stroke:#181818;stroke-width:1.0;"/><path d="M944.6406,529.3945 Q944.8281,529.1445 945.0469,529.0195 Q945.2656,528.8789 945.5156,528.8789 Q945.9531,528.8789 946.2344,529.1914 Q946.5156,529.4883 946.5156,530.207 L946.5156,531.9102 Q946.5156,532.6289 946.2344,532.9414 Q945.9531,533.2539 945.5156,533.2539 Q945.125,533.2539 944.875,533.0195 Q944.625,532.8008 944.5156,532.1914 Q944.4531,531.7695 944.2344,531.5508 Q943.8438,531.1133 943.125,530.8477 Q942.4063,530.582 941.6875,530.582 Q940.7813,530.582 940.0313,530.9727 Q939.2813,531.3633 938.7031,532.2539 Q938.125,533.1289 938.125,534.332 L938.125,535.6289 Q938.125,537.082 939.1719,538.0508 Q940.2344,539.0195 942.0938,539.0195 Q943.2031,539.0195 943.9844,538.707 Q944.4219,538.5352 944.9375,538.0195 Q945.25,537.707 945.4219,537.6133 Q945.5938,537.5195 945.8281,537.5195 Q946.2188,537.5195 946.5156,537.832 Q946.8281,538.1289 946.8281,538.5352 Q946.8281,538.9414 946.4219,539.4102 Q945.8281,540.0977 944.8906,540.4883 Q943.625,541.0195 942.1094,541.0195 Q940.3281,541.0195 938.9063,540.2852 Q937.75,539.6914 936.9375,538.4258 Q936.125,537.1602 936.125,535.6758 L936.125,534.3164 Q936.125,532.7539 936.8438,531.4102 Q937.5781,530.0508 938.8594,529.3164 Q940.1563,528.582 941.6094,528.582 Q942.4688,528.582 943.2188,528.7852 Q943.9844,528.9883 944.6406,529.3945 Z " fill="#000000"/><text fill="#000000" font-family="sans-serif" font-size="20" lengthAdjust="spacing" textLength="170" x="964.5" y="542.6563">PersistenceContext</text><line style="stroke:#181818;stroke-width:0.5;" x1="830.5" x2="1233.5" y1="552.0508" y2="552.0508"/><line style="stroke:#181818;stroke-width:0.5;" x1="830.5" x2="1233.5" y1="560.0508" y2="560.0508"/><ellipse cx="840.5" cy="578.1289" fill="#84BE84" rx="3" ry="3" style="stroke:#038048;stroke-width:1.0;"/><text fill="#000000" font-family="sans-serif" font-size="20" lengthAdjust="spacing" textLength="378" x="850.5" y="584.8125">getRepositoryFactory(): RepositoryFactory</text></g><!--class JpaRepositoryFactory--><g id="elem_JpaRepositoryFactory"><rect codeLine="10" fill="#F1F1F1" height="101.4688" id="JpaRepositoryFactory" rx="2.5" ry="2.5" style="stroke:#181818;stroke-width:0.5;" width="317" x="768.5" y="685.8945"/><ellipse cx="825.5" cy="703.4727" fill="#ADD1B2" rx="12" ry="12" style="stroke:#181818;stroke-width:1.0;"/><path d="M827.6406,698.3945 Q827.8281,698.1445 828.0469,698.0195 Q828.2656,697.8789 828.5156,697.8789 Q828.9531,697.8789 829.2344,698.1914 Q829.5156,698.4883 829.5156,699.207 L829.5156,700.9102 Q829.5156,701.6289 829.2344,701.9414 Q828.9531,702.2539 828.5156,702.2539 Q828.125,702.2539 827.875,702.0195 Q827.625,701.8008 827.5156,701.1914 Q827.4531,700.7695 827.2344,700.5508 Q826.8438,700.1133 826.125,699.8477 Q825.4063,699.582 824.6875,699.582 Q823.7813,699.582 823.0313,699.9727 Q822.2813,700.3633 821.7031,701.2539 Q821.125,702.1289 821.125,703.332 L821.125,704.6289 Q821.125,706.082 822.1719,707.0508 Q823.2344,708.0195 825.0938,708.0195 Q826.2031,708.0195 826.9844,707.707 Q827.4219,707.5352 827.9375,707.0195 Q828.25,706.707 828.4219,706.6133 Q828.5938,706.5195 828.8281,706.5195 Q829.2188,706.5195 829.5156,706.832 Q829.8281,707.1289 829.8281,707.5352 Q829.8281,707.9414 829.4219,708.4102 Q828.8281,709.0977 827.8906,709.4883 Q826.625,710.0195 825.1094,710.0195 Q823.3281,710.0195 821.9063,709.2852 Q820.75,708.6914 819.9375,707.4258 Q819.125,706.1602 819.125,704.6758 L819.125,703.3164 Q819.125,701.7539 819.8438,700.4102 Q820.5781,699.0508 821.8594,698.3164 Q823.1563,697.582 824.6094,697.582 Q825.4688,697.582 826.2188,697.7852 Q826.9844,697.9883 827.6406,698.3945 Z " fill="#000000"/><text fill="#000000" font-family="sans-serif" font-size="20" lengthAdjust="spacing" textLength="194" x="847.5" y="711.6563">JpaRepositoryFactory</text><line style="stroke:#181818;stroke-width:0.5;" x1="769.5" x2="1084.5" y1="721.0508" y2="721.0508"/><line style="stroke:#181818;stroke-width:0.5;" x1="769.5" x2="1084.5" y1="729.0508" y2="729.0508"/><rect fill="#F24D5C" height="6" style="stroke:#C82930;stroke-width:1.0;" width="6" x="776.5" y="744.1289"/><text fill="#000000" font-family="sans-serif" font-size="20" lengthAdjust="spacing" textLength="208" x="789.5" y="753.8125">JpaRepositoryFactory()</text><ellipse cx="779.5" cy="772.2852" fill="#84BE84" rx="3" ry="3" style="stroke:#038048;stroke-width:1.0;"/><text fill="#000000" font-family="sans-serif" font-size="20" lengthAdjust="spacing" textLength="290" x="789.5" y="778.9688">getInstance(): RepositoryFactory</text></g><!--class JpaFigureRepository--><g id="elem_JpaFigureRepository"><rect codeLine="15" fill="#F1F1F1" height="51.1563" id="JpaFigureRepository" rx="2.5" ry="2.5" style="stroke:#181818;stroke-width:0.5;" width="216" x="593" y="928.8945"/><ellipse cx="609" cy="946.4727" fill="#ADD1B2" rx="12" ry="12" style="stroke:#181818;stroke-width:1.0;"/><path d="M611.1406,941.3945 Q611.3281,941.1445 611.5469,941.0195 Q611.7656,940.8789 612.0156,940.8789 Q612.4531,940.8789 612.7344,941.1914 Q613.0156,941.4883 613.0156,942.207 L613.0156,943.9102 Q613.0156,944.6289 612.7344,944.9414 Q612.4531,945.2539 612.0156,945.2539 Q611.625,945.2539 611.375,945.0195 Q611.125,944.8008 611.0156,944.1914 Q610.9531,943.7695 610.7344,943.5508 Q610.3438,943.1133 609.625,942.8477 Q608.9063,942.582 608.1875,942.582 Q607.2813,942.582 606.5313,942.9727 Q605.7813,943.3633 605.2031,944.2539 Q604.625,945.1289 604.625,946.332 L604.625,947.6289 Q604.625,949.082 605.6719,950.0508 Q606.7344,951.0195 608.5938,951.0195 Q609.7031,951.0195 610.4844,950.707 Q610.9219,950.5352 611.4375,950.0195 Q611.75,949.707 611.9219,949.6133 Q612.0938,949.5195 612.3281,949.5195 Q612.7188,949.5195 613.0156,949.832 Q613.3281,950.1289 613.3281,950.5352 Q613.3281,950.9414 612.9219,951.4102 Q612.3281,952.0977 611.3906,952.4883 Q610.125,953.0195 608.6094,953.0195 Q606.8281,953.0195 605.4063,952.2852 Q604.25,951.6914 603.4375,950.4258 Q602.625,949.1602 602.625,947.6758 L602.625,946.3164 Q602.625,944.7539 603.3438,943.4102 Q604.0781,942.0508 605.3594,941.3164 Q606.6563,940.582 608.1094,940.582 Q608.9688,940.582 609.7188,940.7852 Q610.4844,940.9883 611.1406,941.3945 Z " fill="#000000"/><text fill="#000000" font-family="sans-serif" font-size="20" lengthAdjust="spacing" textLength="182" x="624" y="954.6563">JpaFigureRepository</text><line style="stroke:#181818;stroke-width:0.5;" x1="594" x2="808" y1="964.0508" y2="964.0508"/><line style="stroke:#181818;stroke-width:0.5;" x1="594" x2="808" y1="972.0508" y2="972.0508"/></g><!--class JpaCategoryRepository--><g id="elem_JpaCategoryRepository"><rect codeLine="18" fill="#F1F1F1" height="51.1563" id="JpaCategoryRepository" rx="2.5" ry="2.5" style="stroke:#181818;stroke-width:0.5;" width="242" x="844" y="928.8945"/><ellipse cx="860" cy="946.4727" fill="#ADD1B2" rx="12" ry="12" style="stroke:#181818;stroke-width:1.0;"/><path d="M862.1406,941.3945 Q862.3281,941.1445 862.5469,941.0195 Q862.7656,940.8789 863.0156,940.8789 Q863.4531,940.8789 863.7344,941.1914 Q864.0156,941.4883 864.0156,942.207 L864.0156,943.9102 Q864.0156,944.6289 863.7344,944.9414 Q863.4531,945.2539 863.0156,945.2539 Q862.625,945.2539 862.375,945.0195 Q862.125,944.8008 862.0156,944.1914 Q861.9531,943.7695 861.7344,943.5508 Q861.3438,943.1133 860.625,942.8477 Q859.9063,942.582 859.1875,942.582 Q858.2813,942.582 857.5313,942.9727 Q856.7813,943.3633 856.2031,944.2539 Q855.625,945.1289 855.625,946.332 L855.625,947.6289 Q855.625,949.082 856.6719,950.0508 Q857.7344,951.0195 859.5938,951.0195 Q860.7031,951.0195 861.4844,950.707 Q861.9219,950.5352 862.4375,950.0195 Q862.75,949.707 862.9219,949.6133 Q863.0938,949.5195 863.3281,949.5195 Q863.7188,949.5195 864.0156,949.832 Q864.3281,950.1289 864.3281,950.5352 Q864.3281,950.9414 863.9219,951.4102 Q863.3281,952.0977 862.3906,952.4883 Q861.125,953.0195 859.6094,953.0195 Q857.8281,953.0195 856.4063,952.2852 Q855.25,951.6914 854.4375,950.4258 Q853.625,949.1602 853.625,947.6758 L853.625,946.3164 Q853.625,944.7539 854.3438,943.4102 Q855.0781,942.0508 856.3594,941.3164 Q857.6563,940.582 859.1094,940.582 Q859.9688,940.582 860.7188,940.7852 Q861.4844,940.9883 862.1406,941.3945 Z " fill="#000000"/><text fill="#000000" font-family="sans-serif" font-size="20" lengthAdjust="spacing" textLength="208" x="875" y="954.6563">JpaCategoryRepository</text><line style="stroke:#181818;stroke-width:0.5;" x1="845" x2="1085" y1="964.0508" y2="964.0508"/><line style="stroke:#181818;stroke-width:0.5;" x1="845" x2="1085" y1="972.0508" y2="972.0508"/></g><!--class InMemoryRepositoryFactory--><g id="elem_InMemoryRepositoryFactory"><rect codeLine="24" fill="#F1F1F1" height="101.4688" id="InMemoryRepositoryFactory" rx="2.5" ry="2.5" style="stroke:#181818;stroke-width:0.5;" width="317" x="1989.5" y="903.8945"/><ellipse cx="2020.35" cy="921.4727" fill="#ADD1B2" rx="12" ry="12" style="stroke:#181818;stroke-width:1.0;"/><path d="M2022.4906,916.3945 Q2022.6781,916.1445 2022.8969,916.0195 Q2023.1156,915.8789 2023.3656,915.8789 Q2023.8031,915.8789 2024.0844,916.1914 Q2024.3656,916.4883 2024.3656,917.207 L2024.3656,918.9102 Q2024.3656,919.6289 2024.0844,919.9414 Q2023.8031,920.2539 2023.3656,920.2539 Q2022.975,920.2539 2022.725,920.0195 Q2022.475,919.8008 2022.3656,919.1914 Q2022.3031,918.7695 2022.0844,918.5508 Q2021.6938,918.1133 2020.975,917.8477 Q2020.2563,917.582 2019.5375,917.582 Q2018.6313,917.582 2017.8813,917.9727 Q2017.1313,918.3633 2016.5531,919.2539 Q2015.975,920.1289 2015.975,921.332 L2015.975,922.6289 Q2015.975,924.082 2017.0219,925.0508 Q2018.0844,926.0195 2019.9438,926.0195 Q2021.0531,926.0195 2021.8344,925.707 Q2022.2719,925.5352 2022.7875,925.0195 Q2023.1,924.707 2023.2719,924.6133 Q2023.4438,924.5195 2023.6781,924.5195 Q2024.0688,924.5195 2024.3656,924.832 Q2024.6781,925.1289 2024.6781,925.5352 Q2024.6781,925.9414 2024.2719,926.4102 Q2023.6781,927.0977 2022.7406,927.4883 Q2021.475,928.0195 2019.9594,928.0195 Q2018.1781,928.0195 2016.7563,927.2852 Q2015.6,926.6914 2014.7875,925.4258 Q2013.975,924.1602 2013.975,922.6758 L2013.975,921.3164 Q2013.975,919.7539 2014.6938,918.4102 Q2015.4281,917.0508 2016.7094,916.3164 Q2018.0063,915.582 2019.4594,915.582 Q2020.3188,915.582 2021.0688,915.7852 Q2021.8344,915.9883 2022.4906,916.3945 Z " fill="#000000"/><text fill="#000000" font-family="sans-serif" font-size="20" lengthAdjust="spacing" textLength="250" x="2038.65" y="929.6563">InMemoryRepositoryFactory</text><line style="stroke:#181818;stroke-width:0.5;" x1="1990.5" x2="2305.5" y1="939.0508" y2="939.0508"/><line style="stroke:#181818;stroke-width:0.5;" x1="1990.5" x2="2305.5" y1="947.0508" y2="947.0508"/><rect fill="#F24D5C" height="6" style="stroke:#C82930;stroke-width:1.0;" width="6" x="1997.5" y="962.1289"/><text fill="#000000" font-family="sans-serif" font-size="20" lengthAdjust="spacing" textLength="264" x="2010.5" y="971.8125">InMemoryRepositoryFactory()</text><ellipse cx="2000.5" cy="990.2852" fill="#84BE84" rx="3" ry="3" style="stroke:#038048;stroke-width:1.0;"/><text fill="#000000" font-family="sans-serif" font-size="20" lengthAdjust="spacing" textLength="290" x="2010.5" y="996.9688">getInstance(): RepositoryFactory</text></g><!--class InMemoryFigureRepository--><g id="elem_InMemoryFigureRepository"><rect codeLine="29" fill="#F1F1F1" height="51.1563" id="InMemoryFigureRepository" rx="2.5" ry="2.5" style="stroke:#181818;stroke-width:0.5;" width="272" x="1825" y="1160.3945"/><ellipse cx="1841" cy="1177.9727" fill="#ADD1B2" rx="12" ry="12" style="stroke:#181818;stroke-width:1.0;"/><path d="M1843.1406,1172.8945 Q1843.3281,1172.6445 1843.5469,1172.5195 Q1843.7656,1172.3789 1844.0156,1172.3789 Q1844.4531,1172.3789 1844.7344,1172.6914 Q1845.0156,1172.9883 1845.0156,1173.707 L1845.0156,1175.4102 Q1845.0156,1176.1289 1844.7344,1176.4414 Q1844.4531,1176.7539 1844.0156,1176.7539 Q1843.625,1176.7539 1843.375,1176.5195 Q1843.125,1176.3008 1843.0156,1175.6914 Q1842.9531,1175.2695 1842.7344,1175.0508 Q1842.3438,1174.6133 1841.625,1174.3477 Q1840.9063,1174.082 1840.1875,1174.082 Q1839.2813,1174.082 1838.5313,1174.4727 Q1837.7813,1174.8633 1837.2031,1175.7539 Q1836.625,1176.6289 1836.625,1177.832 L1836.625,1179.1289 Q1836.625,1180.582 1837.6719,1181.5508 Q1838.7344,1182.5195 1840.5938,1182.5195 Q1841.7031,1182.5195 1842.4844,1182.207 Q1842.9219,1182.0352 1843.4375,1181.5195 Q1843.75,1181.207 1843.9219,1181.1133 Q1844.0938,1181.0195 1844.3281,1181.0195 Q1844.7188,1181.0195 1845.0156,1181.332 Q1845.3281,1181.6289 1845.3281,1182.0352 Q1845.3281,1182.4414 1844.9219,1182.9102 Q1844.3281,1183.5977 1843.3906,1183.9883 Q1842.125,1184.5195 1840.6094,1184.5195 Q1838.8281,1184.5195 1837.4063,1183.7852 Q1836.25,1183.1914 1835.4375,1181.9258 Q1834.625,1180.6602 1834.625,1179.1758 L1834.625,1177.8164 Q1834.625,1176.2539 1835.3438,1174.9102 Q1836.0781,1173.5508 1837.3594,1172.8164 Q1838.6563,1172.082 1840.1094,1172.082 Q1840.9688,1172.082 1841.7188,1172.2852 Q1842.4844,1172.4883 1843.1406,1172.8945 Z " fill="#000000"/><text fill="#000000" font-family="sans-serif" font-size="20" lengthAdjust="spacing" textLength="238" x="1856" y="1186.1563">InMemoryFigureRepository</text><line style="stroke:#181818;stroke-width:0.5;" x1="1826" x2="2096" y1="1195.5508" y2="1195.5508"/><line style="stroke:#181818;stroke-width:0.5;" x1="1826" x2="2096" y1="1203.5508" y2="1203.5508"/></g><!--class InMemoryCategoryRepository--><g id="elem_InMemoryCategoryRepository"><rect codeLine="32" fill="#F1F1F1" height="51.1563" id="InMemoryCategoryRepository" rx="2.5" ry="2.5" style="stroke:#181818;stroke-width:0.5;" width="298" x="1638" y="928.8945"/><ellipse cx="1654" cy="946.4727" fill="#ADD1B2" rx="12" ry="12" style="stroke:#181818;stroke-width:1.0;"/><path d="M1656.1406,941.3945 Q1656.3281,941.1445 1656.5469,941.0195 Q1656.7656,940.8789 1657.0156,940.8789 Q1657.4531,940.8789 1657.7344,941.1914 Q1658.0156,941.4883 1658.0156,942.207 L1658.0156,943.9102 Q1658.0156,944.6289 1657.7344,944.9414 Q1657.4531,945.2539 1657.0156,945.2539 Q1656.625,945.2539 1656.375,945.0195 Q1656.125,944.8008 1656.0156,944.1914 Q1655.9531,943.7695 1655.7344,943.5508 Q1655.3438,943.1133 1654.625,942.8477 Q1653.9063,942.582 1653.1875,942.582 Q1652.2813,942.582 1651.5313,942.9727 Q1650.7813,943.3633 1650.2031,944.2539 Q1649.625,945.1289 1649.625,946.332 L1649.625,947.6289 Q1649.625,949.082 1650.6719,950.0508 Q1651.7344,951.0195 1653.5938,951.0195 Q1654.7031,951.0195 1655.4844,950.707 Q1655.9219,950.5352 1656.4375,950.0195 Q1656.75,949.707 1656.9219,949.6133 Q1657.0938,949.5195 1657.3281,949.5195 Q1657.7188,949.5195 1658.0156,949.832 Q1658.3281,950.1289 1658.3281,950.5352 Q1658.3281,950.9414 1657.9219,951.4102 Q1657.3281,952.0977 1656.3906,952.4883 Q1655.125,953.0195 1653.6094,953.0195 Q1651.8281,953.0195 1650.4063,952.2852 Q1649.25,951.6914 1648.4375,950.4258 Q1647.625,949.1602 1647.625,947.6758 L1647.625,946.3164 Q1647.625,944.7539 1648.3438,943.4102 Q1649.0781,942.0508 1650.3594,941.3164 Q1651.6563,940.582 1653.1094,940.582 Q1653.9688,940.582 1654.7188,940.7852 Q1655.4844,940.9883 1656.1406,941.3945 Z " fill="#000000"/><text fill="#000000" font-family="sans-serif" font-size="20" lengthAdjust="spacing" textLength="264" x="1669" y="954.6563">InMemoryCategoryRepository</text><line style="stroke:#181818;stroke-width:0.5;" x1="1639" x2="1935" y1="964.0508" y2="964.0508"/><line style="stroke:#181818;stroke-width:0.5;" x1="1639" x2="1935" y1="972.0508" y2="972.0508"/></g><!--class Figure--><g id="elem_Figure"><rect codeLine="64" fill="#F1F1F1" height="101.4688" id="Figure" rx="2.5" ry="2.5" style="stroke:#181818;stroke-width:0.5;" width="354" x="703" y="1570.8945"/><ellipse cx="848" cy="1588.4727" fill="#ADD1B2" rx="12" ry="12" style="stroke:#181818;stroke-width:1.0;"/><path d="M850.1406,1583.3945 Q850.3281,1583.1445 850.5469,1583.0195 Q850.7656,1582.8789 851.0156,1582.8789 Q851.4531,1582.8789 851.7344,1583.1914 Q852.0156,1583.4883 852.0156,1584.207 L852.0156,1585.9102 Q852.0156,1586.6289 851.7344,1586.9414 Q851.4531,1587.2539 851.0156,1587.2539 Q850.625,1587.2539 850.375,1587.0195 Q850.125,1586.8008 850.0156,1586.1914 Q849.9531,1585.7695 849.7344,1585.5508 Q849.3438,1585.1133 848.625,1584.8477 Q847.9063,1584.582 847.1875,1584.582 Q846.2813,1584.582 845.5313,1584.9727 Q844.7813,1585.3633 844.2031,1586.2539 Q843.625,1587.1289 843.625,1588.332 L843.625,1589.6289 Q843.625,1591.082 844.6719,1592.0508 Q845.7344,1593.0195 847.5938,1593.0195 Q848.7031,1593.0195 849.4844,1592.707 Q849.9219,1592.5352 850.4375,1592.0195 Q850.75,1591.707 850.9219,1591.6133 Q851.0938,1591.5195 851.3281,1591.5195 Q851.7188,1591.5195 852.0156,1591.832 Q852.3281,1592.1289 852.3281,1592.5352 Q852.3281,1592.9414 851.9219,1593.4102 Q851.3281,1594.0977 850.3906,1594.4883 Q849.125,1595.0195 847.6094,1595.0195 Q845.8281,1595.0195 844.4063,1594.2852 Q843.25,1593.6914 842.4375,1592.4258 Q841.625,1591.1602 841.625,1589.6758 L841.625,1588.3164 Q841.625,1586.7539 842.3438,1585.4102 Q843.0781,1584.0508 844.3594,1583.3164 Q845.6563,1582.582 847.1094,1582.582 Q847.9688,1582.582 848.7188,1582.7852 Q849.4844,1582.9883 850.1406,1583.3945 Z " fill="#000000"/><text fill="#000000" font-family="sans-serif" font-size="20" lengthAdjust="spacing" textLength="55" x="870" y="1596.6563">Figure</text><line style="stroke:#181818;stroke-width:0.5;" x1="704" x2="1056" y1="1606.0508" y2="1606.0508"/><line style="stroke:#181818;stroke-width:0.5;" x1="704" x2="1056" y1="1614.0508" y2="1614.0508"/><ellipse cx="714" cy="1632.1289" fill="#84BE84" rx="3" ry="3" style="stroke:#038048;stroke-width:1.0;"/><text fill="#000000" font-family="sans-serif" font-size="20" lengthAdjust="spacing" textLength="327" x="724" y="1638.8125">matchesCategory(category): boolean</text><ellipse cx="714" cy="1657.2852" fill="#84BE84" rx="3" ry="3" style="stroke:#038048;stroke-width:1.0;"/><text fill="#000000" font-family="sans-serif" font-size="20" lengthAdjust="spacing" textLength="287" x="724" y="1663.9688">matchesKeyword(term): boolean</text></g><!--class Code--><g id="elem_Code"><rect codeLine="69" fill="#F1F1F1" height="76.3125" id="Code" rx="2.5" ry="2.5" style="stroke:#181818;stroke-width:0.5;" width="166" x="303" y="1758.8945"/><ellipse cx="319" cy="1789.0508" fill="#ADD1B2" rx="12" ry="12" style="stroke:#181818;stroke-width:1.0;"/><path d="M321.1406,1783.9727 Q321.3281,1783.7227 321.5469,1783.5977 Q321.7656,1783.457 322.0156,1783.457 Q322.4531,1783.457 322.7344,1783.7695 Q323.0156,1784.0664 323.0156,1784.7852 L323.0156,1786.4883 Q323.0156,1787.207 322.7344,1787.5195 Q322.4531,1787.832 322.0156,1787.832 Q321.625,1787.832 321.375,1787.5977 Q321.125,1787.3789 321.0156,1786.7695 Q320.9531,1786.3477 320.7344,1786.1289 Q320.3438,1785.6914 319.625,1785.4258 Q318.9063,1785.1602 318.1875,1785.1602 Q317.2813,1785.1602 316.5313,1785.5508 Q315.7813,1785.9414 315.2031,1786.832 Q314.625,1787.707 314.625,1788.9102 L314.625,1790.207 Q314.625,1791.6602 315.6719,1792.6289 Q316.7344,1793.5977 318.5938,1793.5977 Q319.7031,1793.5977 320.4844,1793.2852 Q320.9219,1793.1133 321.4375,1792.5977 Q321.75,1792.2852 321.9219,1792.1914 Q322.0938,1792.0977 322.3281,1792.0977 Q322.7188,1792.0977 323.0156,1792.4102 Q323.3281,1792.707 323.3281,1793.1133 Q323.3281,1793.5195 322.9219,1793.9883 Q322.3281,1794.6758 321.3906,1795.0664 Q320.125,1795.5977 318.6094,1795.5977 Q316.8281,1795.5977 315.4063,1794.8633 Q314.25,1794.2695 313.4375,1793.0039 Q312.625,1791.7383 312.625,1790.2539 L312.625,1788.8945 Q312.625,1787.332 313.3438,1785.9883 Q314.0781,1784.6289 315.3594,1783.8945 Q316.6563,1783.1602 318.1094,1783.1602 Q318.9688,1783.1602 319.7188,1783.3633 Q320.4844,1783.5664 321.1406,1783.9727 Z " fill="#000000"/><text fill="#000000" font-family="sans-serif" font-size="20" font-style="italic" lengthAdjust="spacing" textLength="136" x="332" y="1784.6563">«Value Object»</text><text fill="#000000" font-family="sans-serif" font-size="20" lengthAdjust="spacing" textLength="47" x="376.5" y="1809.8125">Code</text><line style="stroke:#181818;stroke-width:0.5;" x1="304" x2="468" y1="1819.207" y2="1819.207"/><line style="stroke:#181818;stroke-width:0.5;" x1="304" x2="468" y1="1827.207" y2="1827.207"/></g><!--class Version--><g id="elem_Version"><rect codeLine="72" fill="#F1F1F1" height="76.3125" id="Version" rx="2.5" ry="2.5" style="stroke:#181818;stroke-width:0.5;" width="166" x="504" y="1758.8945"/><ellipse cx="520" cy="1789.0508" fill="#ADD1B2" rx="12" ry="12" style="stroke:#181818;stroke-width:1.0;"/><path d="M522.1406,1783.9727 Q522.3281,1783.7227 522.5469,1783.5977 Q522.7656,1783.457 523.0156,1783.457 Q523.4531,1783.457 523.7344,1783.7695 Q524.0156,1784.0664 524.0156,1784.7852 L524.0156,1786.4883 Q524.0156,1787.207 523.7344,1787.5195 Q523.4531,1787.832 523.0156,1787.832 Q522.625,1787.832 522.375,1787.5977 Q522.125,1787.3789 522.0156,1786.7695 Q521.9531,1786.3477 521.7344,1786.1289 Q521.3438,1785.6914 520.625,1785.4258 Q519.9063,1785.1602 519.1875,1785.1602 Q518.2813,1785.1602 517.5313,1785.5508 Q516.7813,1785.9414 516.2031,1786.832 Q515.625,1787.707 515.625,1788.9102 L515.625,1790.207 Q515.625,1791.6602 516.6719,1792.6289 Q517.7344,1793.5977 519.5938,1793.5977 Q520.7031,1793.5977 521.4844,1793.2852 Q521.9219,1793.1133 522.4375,1792.5977 Q522.75,1792.2852 522.9219,1792.1914 Q523.0938,1792.0977 523.3281,1792.0977 Q523.7188,1792.0977 524.0156,1792.4102 Q524.3281,1792.707 524.3281,1793.1133 Q524.3281,1793.5195 523.9219,1793.9883 Q523.3281,1794.6758 522.3906,1795.0664 Q521.125,1795.5977 519.6094,1795.5977 Q517.8281,1795.5977 516.4063,1794.8633 Q515.25,1794.2695 514.4375,1793.0039 Q513.625,1791.7383 513.625,1790.2539 L513.625,1788.8945 Q513.625,1787.332 514.3438,1785.9883 Q515.0781,1784.6289 516.3594,1783.8945 Q517.6563,1783.1602 519.1094,1783.1602 Q519.9688,1783.1602 520.7188,1783.3633 Q521.4844,1783.5664 522.1406,1783.9727 Z " fill="#000000"/><text fill="#000000" font-family="sans-serif" font-size="20" font-style="italic" lengthAdjust="spacing" textLength="136" x="533" y="1784.6563">«Value Object»</text><text fill="#000000" font-family="sans-serif" font-size="20" lengthAdjust="spacing" textLength="66" x="568" y="1809.8125">Version</text><line style="stroke:#181818;stroke-width:0.5;" x1="505" x2="669" y1="1819.207" y2="1819.207"/><line style="stroke:#181818;stroke-width:0.5;" x1="505" x2="669" y1="1827.207" y2="1827.207"/></g><!--class Description--><g id="elem_Description"><rect codeLine="75" fill="#F1F1F1" height="76.3125" id="Description" rx="2.5" ry="2.5" style="stroke:#181818;stroke-width:0.5;" width="166" x="705" y="1758.8945"/><ellipse cx="721" cy="1789.0508" fill="#ADD1B2" rx="12" ry="12" style="stroke:#181818;stroke-width:1.0;"/><path d="M723.1406,1783.9727 Q723.3281,1783.7227 723.5469,1783.5977 Q723.7656,1783.457 724.0156,1783.457 Q724.4531,1783.457 724.7344,1783.7695 Q725.0156,1784.0664 725.0156,1784.7852 L725.0156,1786.4883 Q725.0156,1787.207 724.7344,1787.5195 Q724.4531,1787.832 724.0156,1787.832 Q723.625,1787.832 723.375,1787.5977 Q723.125,1787.3789 723.0156,1786.7695 Q722.9531,1786.3477 722.7344,1786.1289 Q722.3438,1785.6914 721.625,1785.4258 Q720.9063,1785.1602 720.1875,1785.1602 Q719.2813,1785.1602 718.5313,1785.5508 Q717.7813,1785.9414 717.2031,1786.832 Q716.625,1787.707 716.625,1788.9102 L716.625,1790.207 Q716.625,1791.6602 717.6719,1792.6289 Q718.7344,1793.5977 720.5938,1793.5977 Q721.7031,1793.5977 722.4844,1793.2852 Q722.9219,1793.1133 723.4375,1792.5977 Q723.75,1792.2852 723.9219,1792.1914 Q724.0938,1792.0977 724.3281,1792.0977 Q724.7188,1792.0977 725.0156,1792.4102 Q725.3281,1792.707 725.3281,1793.1133 Q725.3281,1793.5195 724.9219,1793.9883 Q724.3281,1794.6758 723.3906,1795.0664 Q722.125,1795.5977 720.6094,1795.5977 Q718.8281,1795.5977 717.4063,1794.8633 Q716.25,1794.2695 715.4375,1793.0039 Q714.625,1791.7383 714.625,1790.2539 L714.625,1788.8945 Q714.625,1787.332 715.3438,1785.9883 Q716.0781,1784.6289 717.3594,1783.8945 Q718.6563,1783.1602 720.1094,1783.1602 Q720.9688,1783.1602 721.7188,1783.3633 Q722.4844,1783.5664 723.1406,1783.9727 Z " fill="#000000"/><text fill="#000000" font-family="sans-serif" font-size="20" font-style="italic" lengthAdjust="spacing" textLength="136" x="734" y="1784.6563">«Value Object»</text><text fill="#000000" font-family="sans-serif" font-size="20" lengthAdjust="spacing" textLength="98" x="753" y="1809.8125">Description</text><line style="stroke:#181818;stroke-width:0.5;" x1="706" x2="870" y1="1819.207" y2="1819.207"/><line style="stroke:#181818;stroke-width:0.5;" x1="706" x2="870" y1="1827.207" y2="1827.207"/></g><!--class FigureStatus--><g id="elem_FigureStatus"><rect codeLine="78" fill="#F1F1F1" height="76.3125" id="FigureStatus" rx="2.5" ry="2.5" style="stroke:#181818;stroke-width:0.5;" width="166" x="906" y="1758.8945"/><ellipse cx="922" cy="1789.0508" fill="#EB937F" rx="12" ry="12" style="stroke:#181818;stroke-width:1.0;"/><path d="M919.9531,1790.1133 L919.9531,1793.0508 L925.0469,1793.0508 L925.0469,1791.957 Q925.0469,1791.2383 925.3281,1790.9414 Q925.6094,1790.6289 926.0625,1790.6289 Q926.5,1790.6289 926.7813,1790.9414 Q927.0625,1791.2383 927.0625,1791.957 L927.0625,1795.0508 L917.625,1795.0508 Q916.9063,1795.0508 916.5938,1794.7695 Q916.2969,1794.4883 916.2969,1794.0508 Q916.2969,1793.5977 916.6094,1793.332 Q916.9219,1793.0508 917.625,1793.0508 L917.9375,1793.0508 L917.9375,1785.2227 L917.625,1785.2227 Q916.9063,1785.2227 916.5938,1784.9414 Q916.2969,1784.6602 916.2969,1784.207 Q916.2969,1783.7539 916.5938,1783.4883 Q916.9063,1783.207 917.625,1783.207 L926.6094,1783.207 L926.6094,1786.2539 Q926.6094,1786.9727 926.3281,1787.2852 Q926.0625,1787.582 925.625,1787.582 Q925.1719,1787.582 924.8906,1787.2852 Q924.6094,1786.9883 924.6094,1786.2539 L924.6094,1785.2227 L919.9531,1785.2227 L919.9531,1788.1133 L921.7031,1788.1133 Q921.7031,1787.332 921.8438,1787.0977 Q922.1563,1786.6289 922.7031,1786.6289 Q923.1563,1786.6289 923.4219,1786.9414 Q923.7031,1787.2383 923.7031,1787.957 L923.7031,1790.2695 Q923.7031,1790.9258 923.5469,1791.1445 Q923.2344,1791.5977 922.7031,1791.5977 Q922.1563,1791.5977 921.8438,1791.1289 Q921.7031,1790.8945 921.7031,1790.1133 L919.9531,1790.1133 Z " fill="#000000"/><text fill="#000000" font-family="sans-serif" font-size="20" font-style="italic" lengthAdjust="spacing" textLength="136" x="935" y="1784.6563">«Value Object»</text><text fill="#000000" font-family="sans-serif" font-size="20" lengthAdjust="spacing" textLength="111" x="947.5" y="1809.8125">FigureStatus</text><line style="stroke:#181818;stroke-width:0.5;" x1="907" x2="1071" y1="1819.207" y2="1819.207"/><line style="stroke:#181818;stroke-width:0.5;" x1="907" x2="1071" y1="1827.207" y2="1827.207"/></g><!--class Keyword--><g id="elem_Keyword"><rect codeLine="81" fill="#F1F1F1" height="76.3125" id="Keyword" rx="2.5" ry="2.5" style="stroke:#181818;stroke-width:0.5;" width="166" x="1107" y="1758.8945"/><ellipse cx="1123" cy="1789.0508" fill="#ADD1B2" rx="12" ry="12" style="stroke:#181818;stroke-width:1.0;"/><path d="M1125.1406,1783.9727 Q1125.3281,1783.7227 1125.5469,1783.5977 Q1125.7656,1783.457 1126.0156,1783.457 Q1126.4531,1783.457 1126.7344,1783.7695 Q1127.0156,1784.0664 1127.0156,1784.7852 L1127.0156,1786.4883 Q1127.0156,1787.207 1126.7344,1787.5195 Q1126.4531,1787.832 1126.0156,1787.832 Q1125.625,1787.832 1125.375,1787.5977 Q1125.125,1787.3789 1125.0156,1786.7695 Q1124.9531,1786.3477 1124.7344,1786.1289 Q1124.3438,1785.6914 1123.625,1785.4258 Q1122.9063,1785.1602 1122.1875,1785.1602 Q1121.2813,1785.1602 1120.5313,1785.5508 Q1119.7813,1785.9414 1119.2031,1786.832 Q1118.625,1787.707 1118.625,1788.9102 L1118.625,1790.207 Q1118.625,1791.6602 1119.6719,1792.6289 Q1120.7344,1793.5977 1122.5938,1793.5977 Q1123.7031,1793.5977 1124.4844,1793.2852 Q1124.9219,1793.1133 1125.4375,1792.5977 Q1125.75,1792.2852 1125.9219,1792.1914 Q1126.0938,1792.0977 1126.3281,1792.0977 Q1126.7188,1792.0977 1127.0156,1792.4102 Q1127.3281,1792.707 1127.3281,1793.1133 Q1127.3281,1793.5195 1126.9219,1793.9883 Q1126.3281,1794.6758 1125.3906,1795.0664 Q1124.125,1795.5977 1122.6094,1795.5977 Q1120.8281,1795.5977 1119.4063,1794.8633 Q1118.25,1794.2695 1117.4375,1793.0039 Q1116.625,1791.7383 1116.625,1790.2539 L1116.625,1788.8945 Q1116.625,1787.332 1117.3438,1785.9883 Q1118.0781,1784.6289 1119.3594,1783.8945 Q1120.6563,1783.1602 1122.1094,1783.1602 Q1122.9688,1783.1602 1123.7188,1783.3633 Q1124.4844,1783.5664 1125.1406,1783.9727 Z " fill="#000000"/><text fill="#000000" font-family="sans-serif" font-size="20" font-style="italic" lengthAdjust="spacing" textLength="136" x="1136" y="1784.6563">«Value Object»</text><text fill="#000000" font-family="sans-serif" font-size="20" lengthAdjust="spacing" textLength="78" x="1165" y="1809.8125">Keyword</text><line style="stroke:#181818;stroke-width:0.5;" x1="1108" x2="1272" y1="1819.207" y2="1819.207"/><line style="stroke:#181818;stroke-width:0.5;" x1="1108" x2="1272" y1="1827.207" y2="1827.207"/></g><!--class Exclusivity--><g id="elem_Exclusivity"><rect codeLine="84" fill="#F1F1F1" height="76.3125" id="Exclusivity" rx="2.5" ry="2.5" style="stroke:#181818;stroke-width:0.5;" width="123" x="1308.5" y="1758.8945"/><ellipse cx="1324.5" cy="1789.0508" fill="#ADD1B2" rx="12" ry="12" style="stroke:#181818;stroke-width:1.0;"/><path d="M1326.6406,1783.9727 Q1326.8281,1783.7227 1327.0469,1783.5977 Q1327.2656,1783.457 1327.5156,1783.457 Q1327.9531,1783.457 1328.2344,1783.7695 Q1328.5156,1784.0664 1328.5156,1784.7852 L1328.5156,1786.4883 Q1328.5156,1787.207 1328.2344,1787.5195 Q1327.9531,1787.832 1327.5156,1787.832 Q1327.125,1787.832 1326.875,1787.5977 Q1326.625,1787.3789 1326.5156,1786.7695 Q1326.4531,1786.3477 1326.2344,1786.1289 Q1325.8438,1785.6914 1325.125,1785.4258 Q1324.4063,1785.1602 1323.6875,1785.1602 Q1322.7813,1785.1602 1322.0313,1785.5508 Q1321.2813,1785.9414 1320.7031,1786.832 Q1320.125,1787.707 1320.125,1788.9102 L1320.125,1790.207 Q1320.125,1791.6602 1321.1719,1792.6289 Q1322.2344,1793.5977 1324.0938,1793.5977 Q1325.2031,1793.5977 1325.9844,1793.2852 Q1326.4219,1793.1133 1326.9375,1792.5977 Q1327.25,1792.2852 1327.4219,1792.1914 Q1327.5938,1792.0977 1327.8281,1792.0977 Q1328.2188,1792.0977 1328.5156,1792.4102 Q1328.8281,1792.707 1328.8281,1793.1133 Q1328.8281,1793.5195 1328.4219,1793.9883 Q1327.8281,1794.6758 1326.8906,1795.0664 Q1325.625,1795.5977 1324.1094,1795.5977 Q1322.3281,1795.5977 1320.9063,1794.8633 Q1319.75,1794.2695 1318.9375,1793.0039 Q1318.125,1791.7383 1318.125,1790.2539 L1318.125,1788.8945 Q1318.125,1787.332 1318.8438,1785.9883 Q1319.5781,1784.6289 1320.8594,1783.8945 Q1322.1563,1783.1602 1323.6094,1783.1602 Q1324.4688,1783.1602 1325.2188,1783.3633 Q1325.9844,1783.5664 1326.6406,1783.9727 Z " fill="#000000"/><text fill="#000000" font-family="sans-serif" font-size="20" font-style="italic" lengthAdjust="spacing" textLength="71" x="1348.5" y="1784.6563">«Entity»</text><text fill="#000000" font-family="sans-serif" font-size="20" lengthAdjust="spacing" textLength="89" x="1339.5" y="1809.8125">Exclusivity</text><line style="stroke:#181818;stroke-width:0.5;" x1="1309.5" x2="1430.5" y1="1819.207" y2="1819.207"/><line style="stroke:#181818;stroke-width:0.5;" x1="1309.5" x2="1430.5" y1="1827.207" y2="1827.207"/></g><!--class Category--><g id="elem_Category"><rect codeLine="89" fill="#F1F1F1" height="76.3125" id="Category" rx="2.5" ry="2.5" style="stroke:#181818;stroke-width:0.5;" width="115" x="1466.5" y="1758.8945"/><ellipse cx="1482.5" cy="1789.0508" fill="#ADD1B2" rx="12" ry="12" style="stroke:#181818;stroke-width:1.0;"/><path d="M1484.6406,1783.9727 Q1484.8281,1783.7227 1485.0469,1783.5977 Q1485.2656,1783.457 1485.5156,1783.457 Q1485.9531,1783.457 1486.2344,1783.7695 Q1486.5156,1784.0664 1486.5156,1784.7852 L1486.5156,1786.4883 Q1486.5156,1787.207 1486.2344,1787.5195 Q1485.9531,1787.832 1485.5156,1787.832 Q1485.125,1787.832 1484.875,1787.5977 Q1484.625,1787.3789 1484.5156,1786.7695 Q1484.4531,1786.3477 1484.2344,1786.1289 Q1483.8438,1785.6914 1483.125,1785.4258 Q1482.4063,1785.1602 1481.6875,1785.1602 Q1480.7813,1785.1602 1480.0313,1785.5508 Q1479.2813,1785.9414 1478.7031,1786.832 Q1478.125,1787.707 1478.125,1788.9102 L1478.125,1790.207 Q1478.125,1791.6602 1479.1719,1792.6289 Q1480.2344,1793.5977 1482.0938,1793.5977 Q1483.2031,1793.5977 1483.9844,1793.2852 Q1484.4219,1793.1133 1484.9375,1792.5977 Q1485.25,1792.2852 1485.4219,1792.1914 Q1485.5938,1792.0977 1485.8281,1792.0977 Q1486.2188,1792.0977 1486.5156,1792.4102 Q1486.8281,1792.707 1486.8281,1793.1133 Q1486.8281,1793.5195 1486.4219,1793.9883 Q1485.8281,1794.6758 1484.8906,1795.0664 Q1483.625,1795.5977 1482.1094,1795.5977 Q1480.3281,1795.5977 1478.9063,1794.8633 Q1477.75,1794.2695 1476.9375,1793.0039 Q1476.125,1791.7383 1476.125,1790.2539 L1476.125,1788.8945 Q1476.125,1787.332 1476.8438,1785.9883 Q1477.5781,1784.6289 1478.8594,1783.8945 Q1480.1563,1783.1602 1481.6094,1783.1602 Q1482.4688,1783.1602 1483.2188,1783.3633 Q1483.9844,1783.5664 1484.6406,1783.9727 Z " fill="#000000"/><text fill="#000000" font-family="sans-serif" font-size="20" font-style="italic" lengthAdjust="spacing" textLength="71" x="1502.5" y="1784.6563">«Entity»</text><text fill="#000000" font-family="sans-serif" font-size="20" lengthAdjust="spacing" textLength="81" x="1497.5" y="1809.8125">Category</text><line style="stroke:#181818;stroke-width:0.5;" x1="1467.5" x2="1580.5" y1="1819.207" y2="1819.207"/><line style="stroke:#181818;stroke-width:0.5;" x1="1467.5" x2="1580.5" y1="1827.207" y2="1827.207"/></g><!--class Customer--><g id="elem_Customer"><rect codeLine="93" fill="#F1F1F1" height="76.3125" id="Customer" rx="2.5" ry="2.5" style="stroke:#181818;stroke-width:0.5;" width="119" x="1325.5" y="1921.8945"/><ellipse cx="1341.5" cy="1952.0508" fill="#ADD1B2" rx="12" ry="12" style="stroke:#181818;stroke-width:1.0;"/><path d="M1343.6406,1946.9727 Q1343.8281,1946.7227 1344.0469,1946.5977 Q1344.2656,1946.457 1344.5156,1946.457 Q1344.9531,1946.457 1345.2344,1946.7695 Q1345.5156,1947.0664 1345.5156,1947.7852 L1345.5156,1949.4883 Q1345.5156,1950.207 1345.2344,1950.5195 Q1344.9531,1950.832 1344.5156,1950.832 Q1344.125,1950.832 1343.875,1950.5977 Q1343.625,1950.3789 1343.5156,1949.7695 Q1343.4531,1949.3477 1343.2344,1949.1289 Q1342.8438,1948.6914 1342.125,1948.4258 Q1341.4063,1948.1602 1340.6875,1948.1602 Q1339.7813,1948.1602 1339.0313,1948.5508 Q1338.2813,1948.9414 1337.7031,1949.832 Q1337.125,1950.707 1337.125,1951.9102 L1337.125,1953.207 Q1337.125,1954.6602 1338.1719,1955.6289 Q1339.2344,1956.5977 1341.0938,1956.5977 Q1342.2031,1956.5977 1342.9844,1956.2852 Q1343.4219,1956.1133 1343.9375,1955.5977 Q1344.25,1955.2852 1344.4219,1955.1914 Q1344.5938,1955.0977 1344.8281,1955.0977 Q1345.2188,1955.0977 1345.5156,1955.4102 Q1345.8281,1955.707 1345.8281,1956.1133 Q1345.8281,1956.5195 1345.4219,1956.9883 Q1344.8281,1957.6758 1343.8906,1958.0664 Q1342.625,1958.5977 1341.1094,1958.5977 Q1339.3281,1958.5977 1337.9063,1957.8633 Q1336.75,1957.2695 1335.9375,1956.0039 Q1335.125,1954.7383 1335.125,1953.2539 L1335.125,1951.8945 Q1335.125,1950.332 1335.8438,1948.9883 Q1336.5781,1947.6289 1337.8594,1946.8945 Q1339.1563,1946.1602 1340.6094,1946.1602 Q1341.4688,1946.1602 1342.2188,1946.3633 Q1342.9844,1946.5664 1343.6406,1946.9727 Z " fill="#000000"/><text fill="#000000" font-family="sans-serif" font-size="20" font-style="italic" lengthAdjust="spacing" textLength="71" x="1363.5" y="1947.6563">«Entity»</text><text fill="#000000" font-family="sans-serif" font-size="20" lengthAdjust="spacing" textLength="85" x="1356.5" y="1972.8125">Customer</text><line style="stroke:#181818;stroke-width:0.5;" x1="1326.5" x2="1443.5" y1="1982.207" y2="1982.207"/><line style="stroke:#181818;stroke-width:0.5;" x1="1326.5" x2="1443.5" y1="1990.207" y2="1990.207"/></g><!--class Name--><g id="elem_Name"><rect codeLine="97" fill="#F1F1F1" height="76.3125" id="Name" rx="2.5" ry="2.5" style="stroke:#181818;stroke-width:0.5;" width="166" x="1389" y="2084.8945"/><ellipse cx="1405" cy="2115.0508" fill="#ADD1B2" rx="12" ry="12" style="stroke:#181818;stroke-width:1.0;"/><path d="M1407.1406,2109.9727 Q1407.3281,2109.7227 1407.5469,2109.5977 Q1407.7656,2109.457 1408.0156,2109.457 Q1408.4531,2109.457 1408.7344,2109.7695 Q1409.0156,2110.0664 1409.0156,2110.7852 L1409.0156,2112.4883 Q1409.0156,2113.207 1408.7344,2113.5195 Q1408.4531,2113.832 1408.0156,2113.832 Q1407.625,2113.832 1407.375,2113.5977 Q1407.125,2113.3789 1407.0156,2112.7695 Q1406.9531,2112.3477 1406.7344,2112.1289 Q1406.3438,2111.6914 1405.625,2111.4258 Q1404.9063,2111.1602 1404.1875,2111.1602 Q1403.2813,2111.1602 1402.5313,2111.5508 Q1401.7813,2111.9414 1401.2031,2112.832 Q1400.625,2113.707 1400.625,2114.9102 L1400.625,2116.207 Q1400.625,2117.6602 1401.6719,2118.6289 Q1402.7344,2119.5977 1404.5938,2119.5977 Q1405.7031,2119.5977 1406.4844,2119.2852 Q1406.9219,2119.1133 1407.4375,2118.5977 Q1407.75,2118.2852 1407.9219,2118.1914 Q1408.0938,2118.0977 1408.3281,2118.0977 Q1408.7188,2118.0977 1409.0156,2118.4102 Q1409.3281,2118.707 1409.3281,2119.1133 Q1409.3281,2119.5195 1408.9219,2119.9883 Q1408.3281,2120.6758 1407.3906,2121.0664 Q1406.125,2121.5977 1404.6094,2121.5977 Q1402.8281,2121.5977 1401.4063,2120.8633 Q1400.25,2120.2695 1399.4375,2119.0039 Q1398.625,2117.7383 1398.625,2116.2539 L1398.625,2114.8945 Q1398.625,2113.332 1399.3438,2111.9883 Q1400.0781,2110.6289 1401.3594,2109.8945 Q1402.6563,2109.1602 1404.1094,2109.1602 Q1404.9688,2109.1602 1405.7188,2109.3633 Q1406.4844,2109.5664 1407.1406,2109.9727 Z " fill="#000000"/><text fill="#000000" font-family="sans-serif" font-size="20" font-style="italic" lengthAdjust="spacing" textLength="136" x="1418" y="2110.6563">«Value Object»</text><text fill="#000000" font-family="sans-serif" font-size="20" lengthAdjust="spacing" textLength="51" x="1460.5" y="2135.8125">Name</text><line style="stroke:#181818;stroke-width:0.5;" x1="1390" x2="1554" y1="2145.207" y2="2145.207"/><line style="stroke:#181818;stroke-width:0.5;" x1="1390" x2="1554" y1="2153.207" y2="2153.207"/></g><!--class RepositoryFactory--><g id="elem_RepositoryFactory"><rect codeLine="40" fill="#F1F1F1" height="76.3125" id="RepositoryFactory" rx="2.5" ry="2.5" style="stroke:#181818;stroke-width:0.5;" width="381" x="716.5" y="1147.8945"/><ellipse cx="822" cy="1165.4727" fill="#B4A7E5" rx="12" ry="12" style="stroke:#181818;stroke-width:1.0;"/><path d="M823,1161.6445 L823,1169.4727 L825.0313,1169.4727 Q825.75,1169.4727 826.0469,1169.7539 Q826.3594,1170.0195 826.3594,1170.4727 Q826.3594,1170.9102 826.0469,1171.1914 Q825.75,1171.4727 825.0313,1171.4727 L818.9844,1171.4727 Q818.25,1171.4727 817.9375,1171.1914 Q817.6406,1170.9102 817.6406,1170.4727 Q817.6406,1170.0195 817.9375,1169.7539 Q818.25,1169.4727 818.9844,1169.4727 L821,1169.4727 L821,1161.6445 L818.9844,1161.6445 Q818.25,1161.6445 817.9375,1161.3633 Q817.6406,1161.082 817.6406,1160.6289 Q817.6406,1160.1758 817.9375,1159.9102 Q818.25,1159.6289 818.9844,1159.6289 L825.0313,1159.6289 Q825.75,1159.6289 826.0469,1159.9102 Q826.3594,1160.1758 826.3594,1160.6289 Q826.3594,1161.082 826.0469,1161.3633 Q825.75,1161.6445 825.0313,1161.6445 L823,1161.6445 Z " fill="#000000"/><text fill="#000000" font-family="sans-serif" font-size="20" font-style="italic" lengthAdjust="spacing" textLength="161" x="844" y="1173.6563">RepositoryFactory</text><line style="stroke:#181818;stroke-width:0.5;" x1="717.5" x2="1096.5" y1="1183.0508" y2="1183.0508"/><line style="stroke:#181818;stroke-width:0.5;" x1="717.5" x2="1096.5" y1="1191.0508" y2="1191.0508"/><ellipse cx="727.5" cy="1209.1289" fill="#84BE84" rx="3" ry="3" style="stroke:#038048;stroke-width:1.0;"/><text fill="#000000" font-family="sans-serif" font-size="20" lengthAdjust="spacing" textLength="354" x="737.5" y="1215.8125">getFigureRepository(): FigureRepository</text></g><!--class FigureRepository--><g id="elem_FigureRepository"><rect codeLine="44" fill="#F1F1F1" height="76.3125" id="FigureRepository" rx="2.5" ry="2.5" style="stroke:#181818;stroke-width:0.5;" width="475" x="416.5" y="1327.3945"/><ellipse cx="573.5" cy="1344.9727" fill="#B4A7E5" rx="12" ry="12" style="stroke:#181818;stroke-width:1.0;"/><path d="M574.5,1341.1445 L574.5,1348.9727 L576.5313,1348.9727 Q577.25,1348.9727 577.5469,1349.2539 Q577.8594,1349.5195 577.8594,1349.9727 Q577.8594,1350.4102 577.5469,1350.6914 Q577.25,1350.9727 576.5313,1350.9727 L570.4844,1350.9727 Q569.75,1350.9727 569.4375,1350.6914 Q569.1406,1350.4102 569.1406,1349.9727 Q569.1406,1349.5195 569.4375,1349.2539 Q569.75,1348.9727 570.4844,1348.9727 L572.5,1348.9727 L572.5,1341.1445 L570.4844,1341.1445 Q569.75,1341.1445 569.4375,1340.8633 Q569.1406,1340.582 569.1406,1340.1289 Q569.1406,1339.6758 569.4375,1339.4102 Q569.75,1339.1289 570.4844,1339.1289 L576.5313,1339.1289 Q577.25,1339.1289 577.5469,1339.4102 Q577.8594,1339.6758 577.8594,1340.1289 Q577.8594,1340.582 577.5469,1340.8633 Q577.25,1341.1445 576.5313,1341.1445 L574.5,1341.1445 Z " fill="#000000"/><text fill="#000000" font-family="sans-serif" font-size="20" font-style="italic" lengthAdjust="spacing" textLength="152" x="595.5" y="1353.1563">FigureRepository</text><line style="stroke:#181818;stroke-width:0.5;" x1="417.5" x2="890.5" y1="1362.5508" y2="1362.5508"/><line style="stroke:#181818;stroke-width:0.5;" x1="417.5" x2="890.5" y1="1370.5508" y2="1370.5508"/><ellipse cx="427.5" cy="1388.6289" fill="#84BE84" rx="3" ry="3" style="stroke:#038048;stroke-width:1.0;"/><text fill="#000000" font-family="sans-serif" font-size="20" lengthAdjust="spacing" textLength="448" x="437.5" y="1395.3125">searchCatalogue(category, keyword): List&lt;Figure&gt;</text></g><g id="elem_GMN16"><path d="M927,1284.8945 L927,1361.3945 L891.57,1365.3945 L927,1369.3945 L927,1445.832 A0,0 0 0 0 927,1445.832 L1545,1445.832 A0,0 0 0 0 1545,1445.832 L1545,1294.8945 L1535,1284.8945 L927,1284.8945 A0,0 0 0 0 927,1284.8945 " fill="#FEFFDD" style="stroke:#181818;stroke-width:0.5;"/><path d="M1535,1284.8945 L1535,1294.8945 L1545,1294.8945 L1535,1284.8945 " fill="#FEFFDD" style="stroke:#181818;stroke-width:0.5;"/><text fill="#000000" font-family="sans-serif" font-size="20" lengthAdjust="spacing" textLength="558" x="933" y="1310.6563">The searchCatalogue method accepts two optional parameters:</text><text fill="#000000" font-family="sans-serif" font-size="20" lengthAdjust="spacing" textLength="236" x="933" y="1335.8125">a category and a keyword.</text><text fill="#000000" font-family="sans-serif" font-size="20" lengthAdjust="spacing" textLength="6" x="933" y="1360.9688"> </text><text fill="#000000" font-family="sans-serif" font-size="20" lengthAdjust="spacing" textLength="486" x="933" y="1386.125">- If both are provided, the search filters by both criteria.</text><text fill="#000000" font-family="sans-serif" font-size="20" lengthAdjust="spacing" textLength="597" x="933" y="1411.2813">- If only one is provided, the search filters using that parameter only.</text><text fill="#000000" font-family="sans-serif" font-size="20" lengthAdjust="spacing" textLength="449" x="933" y="1436.4375">- To ignore a criterion, pass null for that parameter.</text></g><!--class CategoryRepository--><g id="elem_CategoryRepository"><rect codeLine="57" fill="#F1F1F1" height="76.3125" id="CategoryRepository" rx="2.5" ry="2.5" style="stroke:#181818;stroke-width:0.5;" width="412" x="1133" y="1147.8945"/><ellipse cx="1247" cy="1165.4727" fill="#B4A7E5" rx="12" ry="12" style="stroke:#181818;stroke-width:1.0;"/><path d="M1248,1161.6445 L1248,1169.4727 L1250.0313,1169.4727 Q1250.75,1169.4727 1251.0469,1169.7539 Q1251.3594,1170.0195 1251.3594,1170.4727 Q1251.3594,1170.9102 1251.0469,1171.1914 Q1250.75,1171.4727 1250.0313,1171.4727 L1243.9844,1171.4727 Q1243.25,1171.4727 1242.9375,1171.1914 Q1242.6406,1170.9102 1242.6406,1170.4727 Q1242.6406,1170.0195 1242.9375,1169.7539 Q1243.25,1169.4727 1243.9844,1169.4727 L1246,1169.4727 L1246,1161.6445 L1243.9844,1161.6445 Q1243.25,1161.6445 1242.9375,1161.3633 Q1242.6406,1161.082 1242.6406,1160.6289 Q1242.6406,1160.1758 1242.9375,1159.9102 Q1243.25,1159.6289 1243.9844,1159.6289 L1250.0313,1159.6289 Q1250.75,1159.6289 1251.0469,1159.9102 Q1251.3594,1160.1758 1251.3594,1160.6289 Q1251.3594,1161.082 1251.0469,1161.3633 Q1250.75,1161.6445 1250.0313,1161.6445 L1248,1161.6445 Z " fill="#000000"/><text fill="#000000" font-family="sans-serif" font-size="20" font-style="italic" lengthAdjust="spacing" textLength="175" x="1269" y="1173.6563">CategoryRepository</text><line style="stroke:#181818;stroke-width:0.5;" x1="1134" x2="1544" y1="1183.0508" y2="1183.0508"/><ellipse cx="1144" cy="1201.1289" fill="none" rx="3" ry="3" style="stroke:#038048;stroke-width:1.0;"/><text fill="#000000" font-family="sans-serif" font-size="20" lengthAdjust="spacing" textLength="385" x="1154" y="1207.8125">findAllActiveCategories: Iterable&lt;Category&gt;</text><line style="stroke:#181818;stroke-width:0.5;" x1="1134" x2="1544" y1="1216.207" y2="1216.207"/></g><!--class SearchCatalogueUI--><g id="elem_SearchCatalogueUI"><rect codeLine="103" fill="#F1F1F1" height="126.625" id="SearchCatalogueUI" rx="2.5" ry="2.5" style="stroke:#181818;stroke-width:0.5;" width="402" x="574" y="50.8945"/><ellipse cx="685.5" cy="81.0508" fill="#ADD1B2" rx="12" ry="12" style="stroke:#181818;stroke-width:1.0;"/><path d="M687.6406,75.9727 Q687.8281,75.7227 688.0469,75.5977 Q688.2656,75.457 688.5156,75.457 Q688.9531,75.457 689.2344,75.7695 Q689.5156,76.0664 689.5156,76.7852 L689.5156,78.4883 Q689.5156,79.207 689.2344,79.5195 Q688.9531,79.832 688.5156,79.832 Q688.125,79.832 687.875,79.5977 Q687.625,79.3789 687.5156,78.7695 Q687.4531,78.3477 687.2344,78.1289 Q686.8438,77.6914 686.125,77.4258 Q685.4063,77.1602 684.6875,77.1602 Q683.7813,77.1602 683.0313,77.5508 Q682.2813,77.9414 681.7031,78.832 Q681.125,79.707 681.125,80.9102 L681.125,82.207 Q681.125,83.6602 682.1719,84.6289 Q683.2344,85.5977 685.0938,85.5977 Q686.2031,85.5977 686.9844,85.2852 Q687.4219,85.1133 687.9375,84.5977 Q688.25,84.2852 688.4219,84.1914 Q688.5938,84.0977 688.8281,84.0977 Q689.2188,84.0977 689.5156,84.4102 Q689.8281,84.707 689.8281,85.1133 Q689.8281,85.5195 689.4219,85.9883 Q688.8281,86.6758 687.8906,87.0664 Q686.625,87.5977 685.1094,87.5977 Q683.3281,87.5977 681.9063,86.8633 Q680.75,86.2695 679.9375,85.0039 Q679.125,83.7383 679.125,82.2539 L679.125,80.8945 Q679.125,79.332 679.8438,77.9883 Q680.5781,76.6289 681.8594,75.8945 Q683.1563,75.1602 684.6094,75.1602 Q685.4688,75.1602 686.2188,75.3633 Q686.9844,75.5664 687.6406,75.9727 Z " fill="#000000"/><text fill="#000000" font-family="sans-serif" font-size="20" font-style="italic" lengthAdjust="spacing" textLength="41" x="772" y="76.6563">«UI»</text><text fill="#000000" font-family="sans-serif" font-size="20" lengthAdjust="spacing" textLength="170" x="707.5" y="101.8125">SearchCatalogueUI</text><line style="stroke:#181818;stroke-width:0.5;" x1="575" x2="975" y1="111.207" y2="111.207"/><line style="stroke:#181818;stroke-width:0.5;" x1="575" x2="975" y1="119.207" y2="119.207"/><ellipse cx="585" cy="137.2852" fill="#84BE84" rx="3" ry="3" style="stroke:#038048;stroke-width:1.0;"/><text fill="#000000" font-family="sans-serif" font-size="20" lengthAdjust="spacing" textLength="375" x="595" y="143.9688">showSearchCatalogue(category, keyword)</text><ellipse cx="585" cy="162.4414" fill="#84BE84" rx="3" ry="3" style="stroke:#038048;stroke-width:1.0;"/><text fill="#000000" font-family="sans-serif" font-size="20" lengthAdjust="spacing" textLength="308" x="595" y="169.125">showCategoriesAndSelect(): String</text></g><!--class SearchCatalogueController--><g id="elem_SearchCatalogueController"><rect codeLine="110" fill="#F1F1F1" height="126.625" id="SearchCatalogueController" rx="2.5" ry="2.5" style="stroke:#181818;stroke-width:0.5;" width="478" x="536" y="270.8945"/><ellipse cx="652.5" cy="301.0508" fill="#ADD1B2" rx="12" ry="12" style="stroke:#181818;stroke-width:1.0;"/><path d="M654.6406,295.9727 Q654.8281,295.7227 655.0469,295.5977 Q655.2656,295.457 655.5156,295.457 Q655.9531,295.457 656.2344,295.7695 Q656.5156,296.0664 656.5156,296.7852 L656.5156,298.4883 Q656.5156,299.207 656.2344,299.5195 Q655.9531,299.832 655.5156,299.832 Q655.125,299.832 654.875,299.5977 Q654.625,299.3789 654.5156,298.7695 Q654.4531,298.3477 654.2344,298.1289 Q653.8438,297.6914 653.125,297.4258 Q652.4063,297.1602 651.6875,297.1602 Q650.7813,297.1602 650.0313,297.5508 Q649.2813,297.9414 648.7031,298.832 Q648.125,299.707 648.125,300.9102 L648.125,302.207 Q648.125,303.6602 649.1719,304.6289 Q650.2344,305.5977 652.0938,305.5977 Q653.2031,305.5977 653.9844,305.2852 Q654.4219,305.1133 654.9375,304.5977 Q655.25,304.2852 655.4219,304.1914 Q655.5938,304.0977 655.8281,304.0977 Q656.2188,304.0977 656.5156,304.4102 Q656.8281,304.707 656.8281,305.1133 Q656.8281,305.5195 656.4219,305.9883 Q655.8281,306.6758 654.8906,307.0664 Q653.625,307.5977 652.1094,307.5977 Q650.3281,307.5977 648.9063,306.8633 Q647.75,306.2695 646.9375,305.0039 Q646.125,303.7383 646.125,302.2539 L646.125,300.8945 Q646.125,299.332 646.8438,297.9883 Q647.5781,296.6289 648.8594,295.8945 Q650.1563,295.1602 651.6094,295.1602 Q652.4688,295.1602 653.2188,295.3633 Q653.9844,295.5664 654.6406,295.9727 Z " fill="#000000"/><text fill="#000000" font-family="sans-serif" font-size="20" font-style="italic" lengthAdjust="spacing" textLength="109" x="738" y="296.6563">«Controller»</text><text fill="#000000" font-family="sans-serif" font-size="20" lengthAdjust="spacing" textLength="236" x="674.5" y="321.8125">SearchCatalogueController</text><line style="stroke:#181818;stroke-width:0.5;" x1="537" x2="1013" y1="331.207" y2="331.207"/><line style="stroke:#181818;stroke-width:0.5;" x1="537" x2="1013" y1="339.207" y2="339.207"/><ellipse cx="547" cy="357.2852" fill="#84BE84" rx="3" ry="3" style="stroke:#038048;stroke-width:1.0;"/><text fill="#000000" font-family="sans-serif" font-size="20" lengthAdjust="spacing" textLength="451" x="557" y="363.9688">listSearchResults(category, keyword): List&lt;Figure&gt;</text><ellipse cx="547" cy="382.4414" fill="#84BE84" rx="3" ry="3" style="stroke:#038048;stroke-width:1.0;"/><text fill="#000000" font-family="sans-serif" font-size="20" lengthAdjust="spacing" textLength="318" x="557" y="389.125">listCategories(): Iterable&lt;Category&gt;</text></g><!--link PersistenceContext to RepositoryFactory--><g id="link_PersistenceContext_RepositoryFactory"><path codeLine="119" d="M1073.06,593.1845 C1084.03,605.1745 1094.82,619.1745 1102,633.8945 C1174.74,782.8845 1200.54,850.1545 1141,1004.8945 C1126.17,1043.4345 1037.3,1104.7645 973.48,1144.9345 " fill="none" id="PersistenceContext-to-RepositoryFactory" style="stroke:#181818;stroke-width:1.0;stroke-dasharray:7.0,7.0;"/><polygon fill="#181818" points="968.93,1147.7945,978.6786,1146.3929,973.1636,1145.1343,974.4222,1139.6192,968.93,1147.7945" style="stroke:#181818;stroke-width:1.0;"/><text fill="#000000" font-family="sans-serif" font-size="20" lengthAdjust="spacing" textLength="158" x="1174" y="838.6563">figureRepository()</text></g><!--link PersistenceContext to JpaRepositoryFactory--><g id="link_PersistenceContext_JpaRepositoryFactory"><path codeLine="120" d="M1010.24,593.0845 C995.36,618.5245 975.39,652.6645 958.74,681.1345 " fill="none" id="PersistenceContext-to-JpaRepositoryFactory" style="stroke:#181818;stroke-width:1.0;stroke-dasharray:7.0,7.0;"/><polygon fill="#181818" points="956.1,685.6445,964.1018,679.9024,958.6282,681.3308,957.1999,675.8573,956.1,685.6445" style="stroke:#181818;stroke-width:1.0;"/></g><!--link PersistenceContext to InMemoryRepositoryFactory--><g id="link_PersistenceContext_InMemoryRepositoryFactory"><path codeLine="121" d="M1234.79,562.1545 C1350.64,570.7645 1497.06,590.2845 1621,633.8945 C1801,697.2345 1985.98,827.3845 2081.64,900.5245 " fill="none" id="PersistenceContext-to-InMemoryRepositoryFactory" style="stroke:#181818;stroke-width:1.0;stroke-dasharray:7.0,7.0;"/><polygon fill="#181818" points="2085.84,903.7445,2081.1287,895.0956,2081.871,900.7036,2076.2631,901.446,2085.84,903.7445" style="stroke:#181818;stroke-width:1.0;"/></g><!--link JpaCategoryRepository to CategoryRepository--><g id="link_JpaCategoryRepository_CategoryRepository"><path codeLine="126" d="M1007.54,980.0545 C1037.68,997.6345 1078.98,1021.9445 1115,1043.8945 C1164.83,1074.2745 1220.35,1109.2045 1263.65,1136.7045 " fill="none" id="JpaCategoryRepository-to-CategoryRepository" style="stroke:#181818;stroke-width:1.0;"/><polygon fill="none" points="1267.68,1130.9745,1280.8,1147.6145,1260.17,1142.7945,1267.68,1130.9745" style="stroke:#181818;stroke-width:1.0;"/></g><!--link JpaFigureRepository to FigureRepository--><g id="link_JpaFigureRepository_FigureRepository"><path codeLine="129" d="M698.17,980.0545 C690.82,1044.0145 670.99,1216.5045 660.59,1307.0745 " fill="none" id="JpaFigureRepository-to-FigureRepository" style="stroke:#181818;stroke-width:1.0;"/><polygon fill="none" points="667.51,1308.1145,658.28,1327.1845,653.61,1306.5145,667.51,1308.1145" style="stroke:#181818;stroke-width:1.0;"/></g><!--link JpaRepositoryFactory to RepositoryFactory--><g id="link_JpaRepositoryFactory_RepositoryFactory"><path codeLine="132" d="M1040.36,787.0345 C1065.77,803.7945 1089.48,825.2145 1104,851.8945 C1136.5,911.6245 1131.43,942.6745 1104,1004.8945 C1079.94,1059.4645 1030.26,1104.6745 986.82,1136.1245 " fill="none" id="JpaRepositoryFactory-to-RepositoryFactory" style="stroke:#181818;stroke-width:1.0;stroke-dasharray:7.0,7.0;"/><polygon fill="none" points="990.63,1142.0045,970.23,1147.7145,982.62,1130.5245,990.63,1142.0045" style="stroke:#181818;stroke-width:1.0;"/></g><!--link JpaRepositoryFactory to JpaFigureRepository--><g id="link_JpaRepositoryFactory_JpaFigureRepository"><path codeLine="133" d="M875.15,786.9445 C830.39,829.7345 767.31,890.0245 730.63,925.0745 " fill="none" id="JpaRepositoryFactory-to-JpaFigureRepository" style="stroke:#181818;stroke-width:1.0;stroke-dasharray:7.0,7.0;"/><polygon fill="#181818" points="726.73,928.8045,735.9987,925.4741,730.3432,925.3484,730.4689,919.693,726.73,928.8045" style="stroke:#181818;stroke-width:1.0;"/></g><!--link JpaRepositoryFactory to JpaCategoryRepository--><g id="link_JpaRepositoryFactory_JpaCategoryRepository"><path codeLine="134" d="M935.72,786.9445 C943.15,829.2145 953.59,888.5645 959.79,923.7845 " fill="none" id="JpaRepositoryFactory-to-JpaCategoryRepository" style="stroke:#181818;stroke-width:1.0;stroke-dasharray:7.0,7.0;"/><polygon fill="#181818" points="960.67,928.8045,963.0419,919.2456,959.7994,923.8809,955.1641,920.6384,960.67,928.8045" style="stroke:#181818;stroke-width:1.0;"/></g><!--link InMemoryCategoryRepository to CategoryRepository--><g id="link_InMemoryCategoryRepository_CategoryRepository"><path codeLine="139" d="M1739.06,979.9545 C1665.31,1017.7345 1522.78,1090.7545 1429.28,1138.6445 " fill="none" id="InMemoryCategoryRepository-to-CategoryRepository" style="stroke:#181818;stroke-width:1.0;stroke-dasharray:7.0,7.0;"/><polygon fill="none" points="1432.26,1144.9845,1411.27,1147.8745,1425.88,1132.5245,1432.26,1144.9845" style="stroke:#181818;stroke-width:1.0;"/></g><!--link InMemoryFigureRepository to FigureRepository--><g id="link_InMemoryFigureRepository_FigureRepository"><path codeLine="142" d="M1824.63,1204.9645 C1747.38,1214.8145 1648.89,1226.7245 1561,1235.3945 C1272.23,1263.8645 1195.03,1230.5245 910,1284.8945 C864.81,1293.5145 816.34,1307.3345 773.87,1321.0545 " fill="none" id="InMemoryFigureRepository-to-FigureRepository" style="stroke:#181818;stroke-width:1.0;stroke-dasharray:7.0,7.0;"/><polygon fill="none" points="776,1327.7145,754.81,1327.3245,771.62,1314.4245,776,1327.7145" style="stroke:#181818;stroke-width:1.0;"/></g><!--link InMemoryRepositoryFactory to RepositoryFactory--><g id="link_InMemoryRepositoryFactory_RepositoryFactory"><path codeLine="145" d="M1989.11,1001.8345 C1983.36,1002.9545 1977.64,1003.9845 1972,1004.8945 C1948.5,1008.6845 1138.6,1036.4145 1116,1043.8945 C1058.66,1062.8645 1002.41,1102.3545 962.74,1134.7245 " fill="none" id="InMemoryRepositoryFactory-to-RepositoryFactory" style="stroke:#181818;stroke-width:1.0;stroke-dasharray:7.0,7.0;"/><polygon fill="none" points="967.15,1140.1545,947.32,1147.6245,958.17,1129.4245,967.15,1140.1545" style="stroke:#181818;stroke-width:1.0;"/></g><!--link InMemoryRepositoryFactory to InMemoryFigureRepository--><g id="link_InMemoryRepositoryFactory_InMemoryFigureRepository"><path codeLine="146" d="M2107.65,1004.9145 C2070.05,1051.0645 2015.27,1118.2945 1984.41,1156.1745 " fill="none" id="InMemoryRepositoryFactory-to-InMemoryFigureRepository" style="stroke:#181818;stroke-width:1.0;stroke-dasharray:7.0,7.0;"/><polygon fill="#181818" points="1981.13,1160.1945,1989.9276,1155.7672,1984.2985,1156.3267,1983.739,1150.6975,1981.13,1160.1945" style="stroke:#181818;stroke-width:1.0;"/></g><!--link InMemoryCategoryRepository to InMemoryCategoryRepository--><g id="link_InMemoryCategoryRepository_InMemoryCategoryRepository"><path codeLine="147" d="M1936.08,940.9745 C1957,943.1645 1971,947.6345 1971,954.3945 C1971,960.5745 1959.3,964.8445 1941.32,967.2045 " fill="none" id="InMemoryCategoryRepository-to-InMemoryCategoryRepository" style="stroke:#181818;stroke-width:1.0;stroke-dasharray:7.0,7.0;"/><polygon fill="#181818" points="1936.08,967.8145,1945.4862,970.734,1941.0457,967.2295,1944.5502,962.7889,1936.08,967.8145" style="stroke:#181818;stroke-width:1.0;"/></g><!--link CategoryRepository to Category--><g id="link_CategoryRepository_Category"><path codeLine="152" d="M1478.05,1223.9845 C1509.88,1238.3645 1540.83,1258.0645 1563,1284.8945 C1586.07,1312.8245 1581,1328.1645 1581,1364.3945 C1581,1364.3945 1581,1364.3945 1581,1622.3945 C1581,1669.2745 1561.98,1719.8845 1545.92,1754.2645 " fill="none" id="CategoryRepository-to-Category" style="stroke:#181818;stroke-width:1.0;stroke-dasharray:7.0,7.0;"/><polygon fill="#181818" points="1543.78,1758.8045,1551.2285,1752.361,1545.9069,1754.2795,1543.9884,1748.9579,1543.78,1758.8045" style="stroke:#181818;stroke-width:1.0;"/></g><!--link FigureRepository to Figure--><g id="link_FigureRepository_Figure"><path codeLine="155" d="M687.1,1403.6045 C725.46,1446.7045 788.96,1518.0745 832.56,1567.0745 " fill="none" id="FigureRepository-to-Figure" style="stroke:#181818;stroke-width:1.0;stroke-dasharray:7.0,7.0;"/><polygon fill="#181818" points="835.93,1570.8645,832.9404,1561.4804,832.6082,1567.1275,826.9611,1566.7953,835.93,1570.8645" style="stroke:#181818;stroke-width:1.0;"/></g><!--link RepositoryFactory to FigureRepository--><g id="link_RepositoryFactory_FigureRepository"><path codeLine="158" d="M844.04,1224.0645 C828.77,1233.4945 812.64,1243.8145 798,1253.8945 C765.84,1276.0345 731.07,1302.6245 703.76,1324.1745 " fill="none" id="RepositoryFactory-to-FigureRepository" style="stroke:#181818;stroke-width:1.0;stroke-dasharray:7.0,7.0;"/><polygon fill="#181818" points="699.79,1327.3145,709.3331,1324.8795,703.7151,1324.2172,704.3774,1318.5993,699.79,1327.3145" style="stroke:#181818;stroke-width:1.0;"/></g><!--link Figure to Keyword--><g id="link_Figure_Keyword"><path codeLine="163" d="M1001.07,1672.1145 C1020.77,1681.3545 1040.71,1691.4145 1059,1701.8945 C1086.67,1717.7445 1115.65,1738.0945 1139.3,1755.8145 " fill="none" id="Figure-to-Keyword" style="stroke:#181818;stroke-width:1.0;"/><polygon fill="#181818" points="1143.35,1758.8545,1138.5696,1750.2436,1139.3569,1755.8454,1133.755,1756.6326,1143.35,1758.8545" style="stroke:#181818;stroke-width:1.0;"/><text fill="#000000" font-family="sans-serif" font-size="20" lengthAdjust="spacing" textLength="85" x="1101" y="1723.6563">keywords</text><text fill="#000000" font-family="sans-serif" font-size="20" lengthAdjust="spacing" textLength="31" x="1102.4448" y="1746.549">1..*</text></g><!--link Figure to Code--><g id="link_Figure_Code"><path codeLine="164" d="M727.7,1671.9645 C698.53,1681.7045 668.27,1691.9845 640,1701.8945 C584.66,1721.2945 522.96,1744.1045 474.22,1762.3945 " fill="none" id="Figure-to-Code" style="stroke:#181818;stroke-width:1.0;"/><polygon fill="#181818" points="469.25,1764.2645,479.083,1764.8235,473.9269,1762.4964,476.254,1757.3404,469.25,1764.2645" style="stroke:#181818;stroke-width:1.0;"/><text fill="#000000" font-family="sans-serif" font-size="20" lengthAdjust="spacing" textLength="43" x="641" y="1723.6563">code</text><text fill="#000000" font-family="sans-serif" font-size="20" lengthAdjust="spacing" textLength="11" x="476.877" y="1756.1412">1</text></g><!--link Figure to Version--><g id="link_Figure_Version"><path codeLine="165" d="M786.38,1672.1045 C768.85,1681.7745 750.77,1691.9845 734,1701.8945 C705.16,1718.9445 673.8,1738.8045 647.48,1755.8645 " fill="none" id="Figure-to-Version" style="stroke:#181818;stroke-width:1.0;"/><polygon fill="#181818" points="642.97,1758.8045,652.7,1757.279,647.1694,1756.0906,648.3578,1750.56,642.97,1758.8045" style="stroke:#181818;stroke-width:1.0;"/><text fill="#000000" font-family="sans-serif" font-size="20" lengthAdjust="spacing" textLength="62" x="735" y="1723.6563">version</text><text fill="#000000" font-family="sans-serif" font-size="20" lengthAdjust="spacing" textLength="11" x="640.0137" y="1746.491">1</text></g><!--link Figure to Description--><g id="link_Figure_Description"><path codeLine="166" d="M836.03,1672.2045 C829.02,1681.6545 822.33,1691.7645 817,1701.8945 C808.56,1717.9145 802.14,1736.7945 797.51,1753.4045 " fill="none" id="Figure-to-Description" style="stroke:#181818;stroke-width:1.0;"/><polygon fill="#181818" points="796.13,1758.4845,802.3533,1750.851,797.4432,1753.6601,794.6341,1748.7499,796.13,1758.4845" style="stroke:#181818;stroke-width:1.0;"/><text fill="#000000" font-family="sans-serif" font-size="20" lengthAdjust="spacing" textLength="95" x="818" y="1723.6563">description</text><text fill="#000000" font-family="sans-serif" font-size="20" lengthAdjust="spacing" textLength="11" x="785.5327" y="1746.4387">1</text></g><!--link Figure to FigureStatus--><g id="link_Figure_FigureStatus"><path codeLine="167" d="M911.24,1672.1145 C927.58,1698.1345 947.36,1729.6145 962.88,1754.3245 " fill="none" id="Figure-to-FigureStatus" style="stroke:#181818;stroke-width:1.0;"/><polygon fill="#181818" points="965.73,1758.8545,964.3284,1749.1059,963.0697,1754.621,957.5547,1753.3624,965.73,1758.8545" style="stroke:#181818;stroke-width:1.0;"/><text fill="#000000" font-family="sans-serif" font-size="20" lengthAdjust="spacing" textLength="105" x="945" y="1723.6563">figureStatus</text><text fill="#000000" font-family="sans-serif" font-size="20" lengthAdjust="spacing" textLength="11" x="950.1448" y="1746.549">1</text></g><!--link Figure to Category--><g id="link_Figure_Category"><path codeLine="168" d="M1057.07,1638.2545 C1146.88,1649.7945 1256.64,1669.3145 1351,1701.8945 C1389.8,1715.2945 1430.27,1736.8045 1462.3,1755.8745 " fill="none" id="Figure-to-Category" style="stroke:#181818;stroke-width:1.0;"/><polygon fill="#181818" points="1466.97,1758.6645,1461.3105,1750.6041,1462.6825,1756.0921,1457.1946,1757.464,1466.97,1758.6645" style="stroke:#181818;stroke-width:1.0;"/><text fill="#000000" font-family="sans-serif" font-size="20" lengthAdjust="spacing" textLength="92" x="1411" y="1723.6563">categories</text><text fill="#000000" font-family="sans-serif" font-size="20" lengthAdjust="spacing" textLength="31" x="1431.85" y="1746.4912">1..*</text></g><!--link Figure to Exclusivity--><g id="link_Figure_Exclusivity"><path codeLine="169" d="M1057.34,1659.0445 C1102.9,1670.6545 1151.36,1684.9645 1195,1701.8945 C1232.85,1716.5745 1272.89,1737.6345 1305.1,1756.0945 " fill="none" id="Figure-to-Exclusivity" style="stroke:#181818;stroke-width:1.0;"/><polygon fill="#181818" points="1309.8,1758.7945,1304.007,1750.8295,1305.4703,1756.2939,1300.0059,1757.7571,1309.8,1758.7945" style="stroke:#181818;stroke-width:1.0;"/><text fill="#000000" font-family="sans-serif" font-size="20" lengthAdjust="spacing" textLength="87" x="1255" y="1723.6563">exclusivity</text><text fill="#000000" font-family="sans-serif" font-size="20" lengthAdjust="spacing" textLength="34" x="1273.686" y="1746.4475">0..1</text></g><!--link Category to Name--><g id="link_Category_Name"><path codeLine="172" d="M1520.96,1835.2045 C1516.47,1885.4745 1506.84,1977.5545 1491,2054.8945 C1489.35,2062.9345 1487.24,2071.4245 1485.03,2079.5645 " fill="none" id="Category-to-Name" style="stroke:#181818;stroke-width:1.0;"/><polygon fill="#181818" points="1483.64,2084.5745,1489.911,2076.9802,1484.9834,2079.7584,1482.2052,2074.8308,1483.64,2084.5745" style="stroke:#181818;stroke-width:1.0;"/><text fill="#000000" font-family="sans-serif" font-size="20" lengthAdjust="spacing" textLength="48" x="1512" y="1968.1563">name</text><text fill="#000000" font-family="sans-serif" font-size="20" lengthAdjust="spacing" textLength="11" x="1473.5802" y="2072.5425">1</text></g><!--link Exclusivity to Customer--><g id="link_Exclusivity_Customer"><path codeLine="175" d="M1373.48,1835.2345 C1375.74,1859.5145 1378.7,1891.2445 1381.05,1916.4745 " fill="none" id="Exclusivity-to-Customer" style="stroke:#181818;stroke-width:1.0;"/><polygon fill="#181818" points="1381.54,1921.7545,1384.675,1912.418,1381.0693,1916.7767,1376.7105,1913.171,1381.54,1921.7545" style="stroke:#181818;stroke-width:1.0;"/><text fill="#000000" font-family="sans-serif" font-size="20" lengthAdjust="spacing" textLength="101" x="1379" y="1886.6563">exclusive to</text><text fill="#000000" font-family="sans-serif" font-size="20" lengthAdjust="spacing" textLength="11" x="1369.112" y="1909.433">1</text></g><!--link Customer to Name--><g id="link_Customer_Name"><path codeLine="178" d="M1405.18,1998.2345 C1418.41,2022.7245 1435.73,2054.7745 1449.42,2080.1045 " fill="none" id="Customer-to-Name" style="stroke:#181818;stroke-width:1.0;"/><polygon fill="#181818" points="1451.93,2084.7545,1451.1812,2074.9342,1449.5578,2080.3531,1444.1389,2078.7297,1451.93,2084.7545" style="stroke:#181818;stroke-width:1.0;"/><text fill="#000000" font-family="sans-serif" font-size="20" lengthAdjust="spacing" textLength="48" x="1434" y="2049.6563">name</text><text fill="#000000" font-family="sans-serif" font-size="20" lengthAdjust="spacing" textLength="11" x="1436.8548" y="2072.433">1</text></g><!--link SearchCatalogueUI to SearchCatalogueController--><g id="link_SearchCatalogueUI_SearchCatalogueController"><path codeLine="183" d="M775,178.1545 C775,205.5145 775,237.6345 775,265.5345 " fill="none" id="SearchCatalogueUI-to-SearchCatalogueController" style="stroke:#181818;stroke-width:1.0;stroke-dasharray:7.0,7.0;"/><polygon fill="#181818" points="775,270.6945,779,261.6945,775,265.6945,771,261.6945,775,270.6945" style="stroke:#181818;stroke-width:1.0;"/></g><!--link SearchCatalogueController to PersistenceContext--><g id="link_SearchCatalogueController_PersistenceContext"><path codeLine="188" d="M848.65,398.0045 C892.15,434.9945 945.99,480.7645 984.04,513.1145 " fill="none" id="SearchCatalogueController-to-PersistenceContext" style="stroke:#181818;stroke-width:1.0;stroke-dasharray:7.0,7.0;"/><polygon fill="#181818" points="988.13,516.5945,983.8448,507.7268,984.3136,513.3642,978.6762,513.833,988.13,516.5945" style="stroke:#181818;stroke-width:1.0;"/><text fill="#000000" font-family="sans-serif" font-size="20" lengthAdjust="spacing" textLength="204" x="912" y="451.6563">getRepositoryFactory()</text></g><!--link SearchCatalogueController to RepositoryFactory--><g id="link_SearchCatalogueController_RepositoryFactory"><path codeLine="189" d="M535.89,378.5645 C446.85,409.6445 367,462.8945 367,553.8945 C367,553.8945 367,553.8945 367,955.3945 C367,1036.8345 577.64,1106.0645 735.81,1146.5745 " fill="none" id="SearchCatalogueController-to-RepositoryFactory" style="stroke:#181818;stroke-width:1.0;stroke-dasharray:7.0,7.0;"/><polygon fill="#181818" points="740.94,1147.8845,733.1999,1141.7943,736.0935,1146.655,731.2327,1149.5486,740.94,1147.8845" style="stroke:#181818;stroke-width:1.0;"/><text fill="#000000" font-family="sans-serif" font-size="20" lengthAdjust="spacing" textLength="192" x="368" y="744.6563">getFigureRepository()</text></g><!--link SearchCatalogueController to CategoryRepository--><g id="link_SearchCatalogueController_CategoryRepository"><path codeLine="190" d="M1014.38,374.7345 C1188.19,410.3145 1393,470.0345 1393,553.8945 C1393,553.8945 1393,553.8945 1393,955.3945 C1393,1022.3345 1370.96,1097.4045 1355.04,1142.9045 " fill="none" id="SearchCatalogueController-to-CategoryRepository" style="stroke:#181818;stroke-width:1.0;stroke-dasharray:7.0,7.0;"/><polygon fill="#181818" points="1353.33,1147.7545,1360.0883,1140.5903,1354.9881,1143.0375,1352.541,1137.9373,1353.33,1147.7545" style="stroke:#181818;stroke-width:1.0;"/><text fill="#000000" font-family="sans-serif" font-size="20" lengthAdjust="spacing" textLength="218" x="1394" y="744.6563">getCategoryRepository()</text></g><!--link SearchCatalogueController to FigureRepository--><g id="link_SearchCatalogueController_FigureRepository"><path codeLine="191" d="M535.9,357.1745 C310.16,384.5545 6,442.1645 6,553.8945 C6,553.8945 6,553.8945 6,1186.8945 C6,1274.1445 227.29,1320.0345 411.23,1343.1145 " fill="none" id="SearchCatalogueController-to-FigureRepository" style="stroke:#181818;stroke-width:1.0;stroke-dasharray:7.0,7.0;"/><polygon fill="#181818" points="416.39,1343.7545,407.9485,1338.681,411.4277,1343.1414,406.9674,1346.6207,416.39,1343.7545" style="stroke:#181818;stroke-width:1.0;"/><text fill="#000000" font-family="sans-serif" font-size="20" lengthAdjust="spacing" textLength="336" x="7" y="838.6563">searchCatalogue(category, keywords)</text></g><!--SRC=[fLXBR-Cs4BxxLmpIWvCs4ROz2e608Da0xXlhpTvfQInpGv62IEVHRlxxZjwKI2ekgeDZQhxvE2yEnz6FN9QiOeLGwIDcaE6U7OMvLz9i-Jy8ltnOQJIWiGOPLO5K4bUhagMFB4Su-nihpRL1cT82VhXh7lXt1VIaWcaD5kAMMF75TEBw-GboD9-mL9eJ-UizI-i_vnSnE2yRdRVLcxLvEL97l2X5zBLaVYD-BPb3Q9bnvGMSNqpjt4Xj6EsrPDvqptkU7oiSiTsMSzWjCvYJs0TSz9VB0Wk2-vtUo3yQwRBdGTJ_TB_dFIK6FNOX47OSxbJ1kBITRa23t59tGFN3gGohFQEINGhDuFZSWpe0ytU3rfjlcq0CnbqqiYezaFjCgFo8vsaNY4junDTdLMMqvU-K-kkMAV5j9vL1g7X-CA3sOGFhv_C1vrj2WUQWCc1fYgNHO9uLgD9m9Pc0faCWUQFZ2G-3tb1WadHxQwFL14P5jeUTCWTW5K9PgIUUONO9PZ03zbpKzB1xRO5fnMdDMUGIAIbUwGE1wsMke-Oo9m4pemEDzfpqimAUIqMsiNvZ9Iz9YKfJ7eM0FJM-ASz8WUHu7NfVteFrF6P-psLs8yHDQlWJTdYEEeODaR2TmEkUn4bwzsVTfXfkyhp2dC3MmUf4TiCjc4aFg7lMeTIemdPA2MJI1V_MflMSJ2fckCavlbKPmlNr5oQeeFxQVSNK98ddl7-f6vcIfq3lK5DAca9SXgCy5fs_MyFCKP_2tZbs2lJZIogeefwuUINuHsdeYmLiKz57rPkCGUXHRxMFsgY2YjIhtGj3sji3dQxCqlYJIZNicTrG7pR-6sGxxH4F6w9xs2J9fA3qGJrlt-rVCuMnqczajaL1jjLjTMigEhEUbb-F3fKI0gkJB1tXPF6uc5akgAEsYfzGqzIZJ- -xhVBeHMryuCGsZgojCQZBbsSmkahWfH5wP56KkDTLJFrZVZaj4VZ6d2LyS3WWZtpJL-UQVwOPl0k8hxubdeuvKZgtg4te2ciwvnOSoDoRtsPpfL7qBGcCFG5yuZFhNGLV0DR1mQ_pPs5-kcgBS07HU1QCUt2C6y8LH3J4WGo4PrE7zp_bOaaf2PhwVeYI1J4boF4ld0alVJHcO7Af- -BjYNFKnxbJNeYgFp1kbjRja3qTCMOsq1bBuEpdAFhnhBz9uxvnQXTtrim7CQJqwPDsKq4CJ-qN7yOQ1sBwiJeiV5Xx6EWRPRiA-D2d8Ex7Mchi3lH3516tDGt4WEDYFWSC4HlVTDRLjtCCaZux7Nl06DGcB_ieTfF0k362KVCPOjnvUEFPUVsmwSS7vwuV65nHNJF1AvTOxOMFtRgVGxjOa7etpmKL1_vvS0ARUmfY_o-z4xWy1xeXSz-VHESSx_ZzNuVwOhNw3W00]--></g></svg>