<?xml version="1.0" encoding="UTF-8" standalone="no"?><svg xmlns="http://www.w3.org/2000/svg" xmlns:xlink="http://www.w3.org/1999/xlink" contentStyleType="text/css" height="1912px" preserveAspectRatio="none" style="width:2258px;height:1912px;background:#FFFFFF;" version="1.1" viewBox="0 0 2258 1912" width="2258px" zoomAndPan="magnify"><defs/><g><!--cluster Persistence --><g id="cluster_Persistence "><path d="M969.5,472.8945 L1087.5,472.8945 A3.75,3.75 0 0 1 1090,475.3945 L1097,504.0508 L1402.5,504.0508 A2.5,2.5 0 0 1 1405,506.5508 L1405,606.3945 A2.5,2.5 0 0 1 1402.5,608.8945 L969.5,608.8945 A2.5,2.5 0 0 1 967,606.3945 L967,475.3945 A2.5,2.5 0 0 1 969.5,472.8945 " fill="#DDDDDD" style="stroke:#000000;stroke-width:1.5;"/><line style="stroke:#000000;stroke-width:1.5;" x1="967" x2="1097" y1="504.0508" y2="504.0508"/><text fill="#000000" font-family="sans-serif" font-size="20" font-weight="bold" lengthAdjust="spacing" textLength="111" x="971" y="495.6563">Persistence</text></g><!--cluster persistence.impl.jpa--><g id="cluster_persistence.impl.jpa"><path d="M8.5,641.8945 L198.5,641.8945 A3.75,3.75 0 0 1 201,644.3945 L208,673.0508 L528.5,673.0508 A2.5,2.5 0 0 1 531,675.5508 L531,993.3945 A2.5,2.5 0 0 1 528.5,995.8945 L8.5,995.8945 A2.5,2.5 0 0 1 6,993.3945 L6,644.3945 A2.5,2.5 0 0 1 8.5,641.8945 " fill="#DDDDDD" style="stroke:#000000;stroke-width:1.5;"/><line style="stroke:#000000;stroke-width:1.5;" x1="6" x2="208" y1="673.0508" y2="673.0508"/><text fill="#000000" font-family="sans-serif" font-size="20" font-weight="bold" lengthAdjust="spacing" textLength="189" x="10" y="664.6563">persistence.impl.jpa</text></g><!--cluster persistence.impl.inmemory--><g id="cluster_persistence.impl.inmemory"><path d="M557.5,859.8945 L812.5,859.8945 A3.75,3.75 0 0 1 815,862.3945 L822,891.0508 L1189.5,891.0508 A2.5,2.5 0 0 1 1192,893.5508 L1192,1130.3945 A2.5,2.5 0 0 1 1189.5,1132.8945 L557.5,1132.8945 A2.5,2.5 0 0 1 555,1130.3945 L555,862.3945 A2.5,2.5 0 0 1 557.5,859.8945 " fill="#DDDDDD" style="stroke:#000000;stroke-width:1.5;"/><line style="stroke:#000000;stroke-width:1.5;" x1="555" x2="822" y1="891.0508" y2="891.0508"/><text fill="#000000" font-family="sans-serif" font-size="20" font-weight="bold" lengthAdjust="spacing" textLength="254" x="559" y="882.6563">persistence.impl.inmemory</text></g><!--cluster Domain--><g id="cluster_Domain"><path d="M149.5,1165.8945 L221.5,1165.8945 A3.75,3.75 0 0 1 224,1168.3945 L231,1197.0508 L1656.5,1197.0508 A2.5,2.5 0 0 1 1659,1199.5508 L1659,1903.3945 A2.5,2.5 0 0 1 1656.5,1905.8945 L149.5,1905.8945 A2.5,2.5 0 0 1 147,1903.3945 L147,1168.3945 A2.5,2.5 0 0 1 149.5,1165.8945 " fill="#DDDDDD" style="stroke:#000000;stroke-width:1.5;"/><line style="stroke:#000000;stroke-width:1.5;" x1="147" x2="231" y1="1197.0508" y2="1197.0508"/><text fill="#000000" font-family="sans-serif" font-size="20" font-weight="bold" lengthAdjust="spacing" textLength="71" x="151" y="1188.6563">Domain</text></g><!--cluster Repository --><g id="cluster_Repository "><path d="M992.5,1217.8945 L1102.5,1217.8945 A3.75,3.75 0 0 1 1105,1220.3945 L1112,1249.0508 L1530.5,1249.0508 A2.5,2.5 0 0 1 1533,1251.5508 L1533,1488.3945 A2.5,2.5 0 0 1 1530.5,1490.8945 L992.5,1490.8945 A2.5,2.5 0 0 1 990,1488.3945 L990,1220.3945 A2.5,2.5 0 0 1 992.5,1217.8945 " fill="#DDDDDD" style="stroke:#000000;stroke-width:1.5;"/><line style="stroke:#000000;stroke-width:1.5;" x1="990" x2="1112" y1="1249.0508" y2="1249.0508"/><text fill="#000000" font-family="sans-serif" font-size="20" font-weight="bold" lengthAdjust="spacing" textLength="103" x="994" y="1240.6563">Repository</text></g><!--cluster UI--><g id="cluster_UI"><path d="M1605.5,6.8945 L1625.5,6.8945 A3.75,3.75 0 0 1 1628,9.3945 L1635,38.0508 L1922.5,38.0508 A2.5,2.5 0 0 1 1925,40.5508 L1925,191.3945 A2.5,2.5 0 0 1 1922.5,193.8945 L1605.5,193.8945 A2.5,2.5 0 0 1 1603,191.3945 L1603,9.3945 A2.5,2.5 0 0 1 1605.5,6.8945 " fill="#DDDDDD" style="stroke:#000000;stroke-width:1.5;"/><line style="stroke:#000000;stroke-width:1.5;" x1="1603" x2="1635" y1="38.0508" y2="38.0508"/><text fill="#000000" font-family="sans-serif" font-size="20" font-weight="bold" lengthAdjust="spacing" textLength="19" x="1607" y="29.6563">UI</text></g><!--cluster Controller--><g id="cluster_Controller"><path d="M1564.5,226.8945 L1659.5,226.8945 A3.75,3.75 0 0 1 1662,229.3945 L1669,258.0508 L1963.5,258.0508 A2.5,2.5 0 0 1 1966,260.5508 L1966,411.3945 A2.5,2.5 0 0 1 1963.5,413.8945 L1564.5,413.8945 A2.5,2.5 0 0 1 1562,411.3945 L1562,229.3945 A2.5,2.5 0 0 1 1564.5,226.8945 " fill="#DDDDDD" style="stroke:#000000;stroke-width:1.5;"/><line style="stroke:#000000;stroke-width:1.5;" x1="1562" x2="1669" y1="258.0508" y2="258.0508"/><text fill="#000000" font-family="sans-serif" font-size="20" font-weight="bold" lengthAdjust="spacing" textLength="94" x="1566" y="249.6563">Controller</text></g><!--class PersistenceContext--><g id="elem_PersistenceContext"><rect codeLine="4" fill="#F1F1F1" height="76.3125" id="PersistenceContext" rx="2.5" ry="2.5" style="stroke:#181818;stroke-width:0.5;" width="405" x="983.5" y="516.8945"/><ellipse cx="1096.5" cy="534.4727" fill="#ADD1B2" rx="12" ry="12" style="stroke:#181818;stroke-width:1.0;"/><path d="M1098.6406,529.3945 Q1098.8281,529.1445 1099.0469,529.0195 Q1099.2656,528.8789 1099.5156,528.8789 Q1099.9531,528.8789 1100.2344,529.1914 Q1100.5156,529.4883 1100.5156,530.207 L1100.5156,531.9102 Q1100.5156,532.6289 1100.2344,532.9414 Q1099.9531,533.2539 1099.5156,533.2539 Q1099.125,533.2539 1098.875,533.0195 Q1098.625,532.8008 1098.5156,532.1914 Q1098.4531,531.7695 1098.2344,531.5508 Q1097.8438,531.1133 1097.125,530.8477 Q1096.4063,530.582 1095.6875,530.582 Q1094.7813,530.582 1094.0313,530.9727 Q1093.2813,531.3633 1092.7031,532.2539 Q1092.125,533.1289 1092.125,534.332 L1092.125,535.6289 Q1092.125,537.082 1093.1719,538.0508 Q1094.2344,539.0195 1096.0938,539.0195 Q1097.2031,539.0195 1097.9844,538.707 Q1098.4219,538.5352 1098.9375,538.0195 Q1099.25,537.707 1099.4219,537.6133 Q1099.5938,537.5195 1099.8281,537.5195 Q1100.2188,537.5195 1100.5156,537.832 Q1100.8281,538.1289 1100.8281,538.5352 Q1100.8281,538.9414 1100.4219,539.4102 Q1099.8281,540.0977 1098.8906,540.4883 Q1097.625,541.0195 1096.1094,541.0195 Q1094.3281,541.0195 1092.9063,540.2852 Q1091.75,539.6914 1090.9375,538.4258 Q1090.125,537.1602 1090.125,535.6758 L1090.125,534.3164 Q1090.125,532.7539 1090.8438,531.4102 Q1091.5781,530.0508 1092.8594,529.3164 Q1094.1563,528.582 1095.6094,528.582 Q1096.4688,528.582 1097.2188,528.7852 Q1097.9844,528.9883 1098.6406,529.3945 Z " fill="#000000"/><text fill="#000000" font-family="sans-serif" font-size="20" lengthAdjust="spacing" textLength="170" x="1118.5" y="542.6563">PersistenceContext</text><line style="stroke:#181818;stroke-width:0.5;" x1="984.5" x2="1387.5" y1="552.0508" y2="552.0508"/><line style="stroke:#181818;stroke-width:0.5;" x1="984.5" x2="1387.5" y1="560.0508" y2="560.0508"/><ellipse cx="994.5" cy="578.1289" fill="#84BE84" rx="3" ry="3" style="stroke:#038048;stroke-width:1.0;"/><text fill="#000000" font-family="sans-serif" font-size="20" lengthAdjust="spacing" textLength="378" x="1004.5" y="584.8125">getRepositoryFactory(): RepositoryFactory</text></g><!--class JpaRepositoryFactory--><g id="elem_JpaRepositoryFactory"><rect codeLine="10" fill="#F1F1F1" height="101.4688" id="JpaRepositoryFactory" rx="2.5" ry="2.5" style="stroke:#181818;stroke-width:0.5;" width="317" x="197.5" y="685.8945"/><ellipse cx="254.5" cy="703.4727" fill="#ADD1B2" rx="12" ry="12" style="stroke:#181818;stroke-width:1.0;"/><path d="M256.6406,698.3945 Q256.8281,698.1445 257.0469,698.0195 Q257.2656,697.8789 257.5156,697.8789 Q257.9531,697.8789 258.2344,698.1914 Q258.5156,698.4883 258.5156,699.207 L258.5156,700.9102 Q258.5156,701.6289 258.2344,701.9414 Q257.9531,702.2539 257.5156,702.2539 Q257.125,702.2539 256.875,702.0195 Q256.625,701.8008 256.5156,701.1914 Q256.4531,700.7695 256.2344,700.5508 Q255.8438,700.1133 255.125,699.8477 Q254.4063,699.582 253.6875,699.582 Q252.7813,699.582 252.0313,699.9727 Q251.2813,700.3633 250.7031,701.2539 Q250.125,702.1289 250.125,703.332 L250.125,704.6289 Q250.125,706.082 251.1719,707.0508 Q252.2344,708.0195 254.0938,708.0195 Q255.2031,708.0195 255.9844,707.707 Q256.4219,707.5352 256.9375,707.0195 Q257.25,706.707 257.4219,706.6133 Q257.5938,706.5195 257.8281,706.5195 Q258.2188,706.5195 258.5156,706.832 Q258.8281,707.1289 258.8281,707.5352 Q258.8281,707.9414 258.4219,708.4102 Q257.8281,709.0977 256.8906,709.4883 Q255.625,710.0195 254.1094,710.0195 Q252.3281,710.0195 250.9063,709.2852 Q249.75,708.6914 248.9375,707.4258 Q248.125,706.1602 248.125,704.6758 L248.125,703.3164 Q248.125,701.7539 248.8438,700.4102 Q249.5781,699.0508 250.8594,698.3164 Q252.1563,697.582 253.6094,697.582 Q254.4688,697.582 255.2188,697.7852 Q255.9844,697.9883 256.6406,698.3945 Z " fill="#000000"/><text fill="#000000" font-family="sans-serif" font-size="20" lengthAdjust="spacing" textLength="194" x="276.5" y="711.6563">JpaRepositoryFactory</text><line style="stroke:#181818;stroke-width:0.5;" x1="198.5" x2="513.5" y1="721.0508" y2="721.0508"/><line style="stroke:#181818;stroke-width:0.5;" x1="198.5" x2="513.5" y1="729.0508" y2="729.0508"/><rect fill="#F24D5C" height="6" style="stroke:#C82930;stroke-width:1.0;" width="6" x="205.5" y="744.1289"/><text fill="#000000" font-family="sans-serif" font-size="20" lengthAdjust="spacing" textLength="208" x="218.5" y="753.8125">JpaRepositoryFactory()</text><ellipse cx="208.5" cy="772.2852" fill="#84BE84" rx="3" ry="3" style="stroke:#038048;stroke-width:1.0;"/><text fill="#000000" font-family="sans-serif" font-size="20" lengthAdjust="spacing" textLength="290" x="218.5" y="778.9688">getInstance(): RepositoryFactory</text></g><!--class JpaFigureRepository--><g id="elem_JpaFigureRepository"><rect codeLine="15" fill="#F1F1F1" height="51.1563" id="JpaFigureRepository" rx="2.5" ry="2.5" style="stroke:#181818;stroke-width:0.5;" width="216" x="22" y="928.8945"/><ellipse cx="38" cy="946.4727" fill="#ADD1B2" rx="12" ry="12" style="stroke:#181818;stroke-width:1.0;"/><path d="M40.1406,941.3945 Q40.3281,941.1445 40.5469,941.0195 Q40.7656,940.8789 41.0156,940.8789 Q41.4531,940.8789 41.7344,941.1914 Q42.0156,941.4883 42.0156,942.207 L42.0156,943.9102 Q42.0156,944.6289 41.7344,944.9414 Q41.4531,945.2539 41.0156,945.2539 Q40.625,945.2539 40.375,945.0195 Q40.125,944.8008 40.0156,944.1914 Q39.9531,943.7695 39.7344,943.5508 Q39.3438,943.1133 38.625,942.8477 Q37.9063,942.582 37.1875,942.582 Q36.2813,942.582 35.5313,942.9727 Q34.7813,943.3633 34.2031,944.2539 Q33.625,945.1289 33.625,946.332 L33.625,947.6289 Q33.625,949.082 34.6719,950.0508 Q35.7344,951.0195 37.5938,951.0195 Q38.7031,951.0195 39.4844,950.707 Q39.9219,950.5352 40.4375,950.0195 Q40.75,949.707 40.9219,949.6133 Q41.0938,949.5195 41.3281,949.5195 Q41.7188,949.5195 42.0156,949.832 Q42.3281,950.1289 42.3281,950.5352 Q42.3281,950.9414 41.9219,951.4102 Q41.3281,952.0977 40.3906,952.4883 Q39.125,953.0195 37.6094,953.0195 Q35.8281,953.0195 34.4063,952.2852 Q33.25,951.6914 32.4375,950.4258 Q31.625,949.1602 31.625,947.6758 L31.625,946.3164 Q31.625,944.7539 32.3438,943.4102 Q33.0781,942.0508 34.3594,941.3164 Q35.6563,940.582 37.1094,940.582 Q37.9688,940.582 38.7188,940.7852 Q39.4844,940.9883 40.1406,941.3945 Z " fill="#000000"/><text fill="#000000" font-family="sans-serif" font-size="20" lengthAdjust="spacing" textLength="182" x="53" y="954.6563">JpaFigureRepository</text><line style="stroke:#181818;stroke-width:0.5;" x1="23" x2="237" y1="964.0508" y2="964.0508"/><line style="stroke:#181818;stroke-width:0.5;" x1="23" x2="237" y1="972.0508" y2="972.0508"/></g><!--class JpaCategoryRepository--><g id="elem_JpaCategoryRepository"><rect codeLine="18" fill="#F1F1F1" height="51.1563" id="JpaCategoryRepository" rx="2.5" ry="2.5" style="stroke:#181818;stroke-width:0.5;" width="242" x="273" y="928.8945"/><ellipse cx="289" cy="946.4727" fill="#ADD1B2" rx="12" ry="12" style="stroke:#181818;stroke-width:1.0;"/><path d="M291.1406,941.3945 Q291.3281,941.1445 291.5469,941.0195 Q291.7656,940.8789 292.0156,940.8789 Q292.4531,940.8789 292.7344,941.1914 Q293.0156,941.4883 293.0156,942.207 L293.0156,943.9102 Q293.0156,944.6289 292.7344,944.9414 Q292.4531,945.2539 292.0156,945.2539 Q291.625,945.2539 291.375,945.0195 Q291.125,944.8008 291.0156,944.1914 Q290.9531,943.7695 290.7344,943.5508 Q290.3438,943.1133 289.625,942.8477 Q288.9063,942.582 288.1875,942.582 Q287.2813,942.582 286.5313,942.9727 Q285.7813,943.3633 285.2031,944.2539 Q284.625,945.1289 284.625,946.332 L284.625,947.6289 Q284.625,949.082 285.6719,950.0508 Q286.7344,951.0195 288.5938,951.0195 Q289.7031,951.0195 290.4844,950.707 Q290.9219,950.5352 291.4375,950.0195 Q291.75,949.707 291.9219,949.6133 Q292.0938,949.5195 292.3281,949.5195 Q292.7188,949.5195 293.0156,949.832 Q293.3281,950.1289 293.3281,950.5352 Q293.3281,950.9414 292.9219,951.4102 Q292.3281,952.0977 291.3906,952.4883 Q290.125,953.0195 288.6094,953.0195 Q286.8281,953.0195 285.4063,952.2852 Q284.25,951.6914 283.4375,950.4258 Q282.625,949.1602 282.625,947.6758 L282.625,946.3164 Q282.625,944.7539 283.3438,943.4102 Q284.0781,942.0508 285.3594,941.3164 Q286.6563,940.582 288.1094,940.582 Q288.9688,940.582 289.7188,940.7852 Q290.4844,940.9883 291.1406,941.3945 Z " fill="#000000"/><text fill="#000000" font-family="sans-serif" font-size="20" lengthAdjust="spacing" textLength="208" x="304" y="954.6563">JpaCategoryRepository</text><line style="stroke:#181818;stroke-width:0.5;" x1="274" x2="514" y1="964.0508" y2="964.0508"/><line style="stroke:#181818;stroke-width:0.5;" x1="274" x2="514" y1="972.0508" y2="972.0508"/></g><!--class InMemoryRepositoryFactory--><g id="elem_InMemoryRepositoryFactory"><rect codeLine="24" fill="#F1F1F1" height="101.4688" id="InMemoryRepositoryFactory" rx="2.5" ry="2.5" style="stroke:#181818;stroke-width:0.5;" width="317" x="858.5" y="903.8945"/><ellipse cx="889.35" cy="921.4727" fill="#ADD1B2" rx="12" ry="12" style="stroke:#181818;stroke-width:1.0;"/><path d="M891.4906,916.3945 Q891.6781,916.1445 891.8969,916.0195 Q892.1156,915.8789 892.3656,915.8789 Q892.8031,915.8789 893.0844,916.1914 Q893.3656,916.4883 893.3656,917.207 L893.3656,918.9102 Q893.3656,919.6289 893.0844,919.9414 Q892.8031,920.2539 892.3656,920.2539 Q891.975,920.2539 891.725,920.0195 Q891.475,919.8008 891.3656,919.1914 Q891.3031,918.7695 891.0844,918.5508 Q890.6938,918.1133 889.975,917.8477 Q889.2563,917.582 888.5375,917.582 Q887.6313,917.582 886.8813,917.9727 Q886.1313,918.3633 885.5531,919.2539 Q884.975,920.1289 884.975,921.332 L884.975,922.6289 Q884.975,924.082 886.0219,925.0508 Q887.0844,926.0195 888.9438,926.0195 Q890.0531,926.0195 890.8344,925.707 Q891.2719,925.5352 891.7875,925.0195 Q892.1,924.707 892.2719,924.6133 Q892.4438,924.5195 892.6781,924.5195 Q893.0688,924.5195 893.3656,924.832 Q893.6781,925.1289 893.6781,925.5352 Q893.6781,925.9414 893.2719,926.4102 Q892.6781,927.0977 891.7406,927.4883 Q890.475,928.0195 888.9594,928.0195 Q887.1781,928.0195 885.7563,927.2852 Q884.6,926.6914 883.7875,925.4258 Q882.975,924.1602 882.975,922.6758 L882.975,921.3164 Q882.975,919.7539 883.6938,918.4102 Q884.4281,917.0508 885.7094,916.3164 Q887.0063,915.582 888.4594,915.582 Q889.3188,915.582 890.0688,915.7852 Q890.8344,915.9883 891.4906,916.3945 Z " fill="#000000"/><text fill="#000000" font-family="sans-serif" font-size="20" lengthAdjust="spacing" textLength="250" x="907.65" y="929.6563">InMemoryRepositoryFactory</text><line style="stroke:#181818;stroke-width:0.5;" x1="859.5" x2="1174.5" y1="939.0508" y2="939.0508"/><line style="stroke:#181818;stroke-width:0.5;" x1="859.5" x2="1174.5" y1="947.0508" y2="947.0508"/><rect fill="#F24D5C" height="6" style="stroke:#C82930;stroke-width:1.0;" width="6" x="866.5" y="962.1289"/><text fill="#000000" font-family="sans-serif" font-size="20" lengthAdjust="spacing" textLength="264" x="879.5" y="971.8125">InMemoryRepositoryFactory()</text><ellipse cx="869.5" cy="990.2852" fill="#84BE84" rx="3" ry="3" style="stroke:#038048;stroke-width:1.0;"/><text fill="#000000" font-family="sans-serif" font-size="20" lengthAdjust="spacing" textLength="290" x="879.5" y="996.9688">getInstance(): RepositoryFactory</text></g><!--class InMemoryFigureRepository--><g id="elem_InMemoryFigureRepository"><rect codeLine="29" fill="#F1F1F1" height="51.1563" id="InMemoryFigureRepository" rx="2.5" ry="2.5" style="stroke:#181818;stroke-width:0.5;" width="272" x="571" y="1065.8945"/><ellipse cx="587" cy="1083.4727" fill="#ADD1B2" rx="12" ry="12" style="stroke:#181818;stroke-width:1.0;"/><path d="M589.1406,1078.3945 Q589.3281,1078.1445 589.5469,1078.0195 Q589.7656,1077.8789 590.0156,1077.8789 Q590.4531,1077.8789 590.7344,1078.1914 Q591.0156,1078.4883 591.0156,1079.207 L591.0156,1080.9102 Q591.0156,1081.6289 590.7344,1081.9414 Q590.4531,1082.2539 590.0156,1082.2539 Q589.625,1082.2539 589.375,1082.0195 Q589.125,1081.8008 589.0156,1081.1914 Q588.9531,1080.7695 588.7344,1080.5508 Q588.3438,1080.1133 587.625,1079.8477 Q586.9063,1079.582 586.1875,1079.582 Q585.2813,1079.582 584.5313,1079.9727 Q583.7813,1080.3633 583.2031,1081.2539 Q582.625,1082.1289 582.625,1083.332 L582.625,1084.6289 Q582.625,1086.082 583.6719,1087.0508 Q584.7344,1088.0195 586.5938,1088.0195 Q587.7031,1088.0195 588.4844,1087.707 Q588.9219,1087.5352 589.4375,1087.0195 Q589.75,1086.707 589.9219,1086.6133 Q590.0938,1086.5195 590.3281,1086.5195 Q590.7188,1086.5195 591.0156,1086.832 Q591.3281,1087.1289 591.3281,1087.5352 Q591.3281,1087.9414 590.9219,1088.4102 Q590.3281,1089.0977 589.3906,1089.4883 Q588.125,1090.0195 586.6094,1090.0195 Q584.8281,1090.0195 583.4063,1089.2852 Q582.25,1088.6914 581.4375,1087.4258 Q580.625,1086.1602 580.625,1084.6758 L580.625,1083.3164 Q580.625,1081.7539 581.3438,1080.4102 Q582.0781,1079.0508 583.3594,1078.3164 Q584.6563,1077.582 586.1094,1077.582 Q586.9688,1077.582 587.7188,1077.7852 Q588.4844,1077.9883 589.1406,1078.3945 Z " fill="#000000"/><text fill="#000000" font-family="sans-serif" font-size="20" lengthAdjust="spacing" textLength="238" x="602" y="1091.6563">InMemoryFigureRepository</text><line style="stroke:#181818;stroke-width:0.5;" x1="572" x2="842" y1="1101.0508" y2="1101.0508"/><line style="stroke:#181818;stroke-width:0.5;" x1="572" x2="842" y1="1109.0508" y2="1109.0508"/></g><!--class InMemoryCategoryRepository--><g id="elem_InMemoryCategoryRepository"><rect codeLine="32" fill="#F1F1F1" height="51.1563" id="InMemoryCategoryRepository" rx="2.5" ry="2.5" style="stroke:#181818;stroke-width:0.5;" width="298" x="878" y="1065.8945"/><ellipse cx="894" cy="1083.4727" fill="#ADD1B2" rx="12" ry="12" style="stroke:#181818;stroke-width:1.0;"/><path d="M896.1406,1078.3945 Q896.3281,1078.1445 896.5469,1078.0195 Q896.7656,1077.8789 897.0156,1077.8789 Q897.4531,1077.8789 897.7344,1078.1914 Q898.0156,1078.4883 898.0156,1079.207 L898.0156,1080.9102 Q898.0156,1081.6289 897.7344,1081.9414 Q897.4531,1082.2539 897.0156,1082.2539 Q896.625,1082.2539 896.375,1082.0195 Q896.125,1081.8008 896.0156,1081.1914 Q895.9531,1080.7695 895.7344,1080.5508 Q895.3438,1080.1133 894.625,1079.8477 Q893.9063,1079.582 893.1875,1079.582 Q892.2813,1079.582 891.5313,1079.9727 Q890.7813,1080.3633 890.2031,1081.2539 Q889.625,1082.1289 889.625,1083.332 L889.625,1084.6289 Q889.625,1086.082 890.6719,1087.0508 Q891.7344,1088.0195 893.5938,1088.0195 Q894.7031,1088.0195 895.4844,1087.707 Q895.9219,1087.5352 896.4375,1087.0195 Q896.75,1086.707 896.9219,1086.6133 Q897.0938,1086.5195 897.3281,1086.5195 Q897.7188,1086.5195 898.0156,1086.832 Q898.3281,1087.1289 898.3281,1087.5352 Q898.3281,1087.9414 897.9219,1088.4102 Q897.3281,1089.0977 896.3906,1089.4883 Q895.125,1090.0195 893.6094,1090.0195 Q891.8281,1090.0195 890.4063,1089.2852 Q889.25,1088.6914 888.4375,1087.4258 Q887.625,1086.1602 887.625,1084.6758 L887.625,1083.3164 Q887.625,1081.7539 888.3438,1080.4102 Q889.0781,1079.0508 890.3594,1078.3164 Q891.6563,1077.582 893.1094,1077.582 Q893.9688,1077.582 894.7188,1077.7852 Q895.4844,1077.9883 896.1406,1078.3945 Z " fill="#000000"/><text fill="#000000" font-family="sans-serif" font-size="20" lengthAdjust="spacing" textLength="264" x="909" y="1091.6563">InMemoryCategoryRepository</text><line style="stroke:#181818;stroke-width:0.5;" x1="879" x2="1175" y1="1101.0508" y2="1101.0508"/><line style="stroke:#181818;stroke-width:0.5;" x1="879" x2="1175" y1="1109.0508" y2="1109.0508"/></g><!--class Figure--><g id="elem_Figure"><rect codeLine="55" fill="#F1F1F1" height="126.625" id="Figure" rx="2.5" ry="2.5" style="stroke:#181818;stroke-width:0.5;" width="755" x="625.5" y="1599.8945"/><ellipse cx="965" cy="1630.0508" fill="#ADD1B2" rx="12" ry="12" style="stroke:#181818;stroke-width:1.0;"/><path d="M967.1406,1624.9727 Q967.3281,1624.7227 967.5469,1624.5977 Q967.7656,1624.457 968.0156,1624.457 Q968.4531,1624.457 968.7344,1624.7695 Q969.0156,1625.0664 969.0156,1625.7852 L969.0156,1627.4883 Q969.0156,1628.207 968.7344,1628.5195 Q968.4531,1628.832 968.0156,1628.832 Q967.625,1628.832 967.375,1628.5977 Q967.125,1628.3789 967.0156,1627.7695 Q966.9531,1627.3477 966.7344,1627.1289 Q966.3438,1626.6914 965.625,1626.4258 Q964.9063,1626.1602 964.1875,1626.1602 Q963.2813,1626.1602 962.5313,1626.5508 Q961.7813,1626.9414 961.2031,1627.832 Q960.625,1628.707 960.625,1629.9102 L960.625,1631.207 Q960.625,1632.6602 961.6719,1633.6289 Q962.7344,1634.5977 964.5938,1634.5977 Q965.7031,1634.5977 966.4844,1634.2852 Q966.9219,1634.1133 967.4375,1633.5977 Q967.75,1633.2852 967.9219,1633.1914 Q968.0938,1633.0977 968.3281,1633.0977 Q968.7188,1633.0977 969.0156,1633.4102 Q969.3281,1633.707 969.3281,1634.1133 Q969.3281,1634.5195 968.9219,1634.9883 Q968.3281,1635.6758 967.3906,1636.0664 Q966.125,1636.5977 964.6094,1636.5977 Q962.8281,1636.5977 961.4063,1635.8633 Q960.25,1635.2695 959.4375,1634.0039 Q958.625,1632.7383 958.625,1631.2539 L958.625,1629.8945 Q958.625,1628.332 959.3438,1626.9883 Q960.0781,1625.6289 961.3594,1624.8945 Q962.6563,1624.1602 964.1094,1624.1602 Q964.9688,1624.1602 965.7188,1624.3633 Q966.4844,1624.5664 967.1406,1624.9727 Z " fill="#000000"/><text fill="#000000" font-family="sans-serif" font-size="20" font-style="italic" lengthAdjust="spacing" textLength="71" x="985" y="1625.6563">«Entity»</text><text fill="#000000" font-family="sans-serif" font-size="20" lengthAdjust="spacing" textLength="55" x="993" y="1650.8125">Figure</text><line style="stroke:#181818;stroke-width:0.5;" x1="626.5" x2="1379.5" y1="1660.207" y2="1660.207"/><line style="stroke:#181818;stroke-width:0.5;" x1="626.5" x2="1379.5" y1="1668.207" y2="1668.207"/><ellipse cx="636.5" cy="1686.2852" fill="#84BE84" rx="3" ry="3" style="stroke:#038048;stroke-width:1.0;"/><text fill="#000000" font-family="sans-serif" font-size="20" lengthAdjust="spacing" textLength="629" x="646.5" y="1692.9688">Figure(code, version, description, dslDescription, keywords, categories)</text><ellipse cx="636.5" cy="1711.4414" fill="#84BE84" rx="3" ry="3" style="stroke:#038048;stroke-width:1.0;"/><text fill="#000000" font-family="sans-serif" font-size="20" lengthAdjust="spacing" textLength="728" x="646.5" y="1718.125">Figure(code, version, description, dslDescription, keywords, categories, exclusivity)</text></g><!--class Code--><g id="elem_Code"><rect codeLine="60" fill="#F1F1F1" height="76.3125" id="Code" rx="2.5" ry="2.5" style="stroke:#181818;stroke-width:0.5;" width="166" x="518" y="1813.8945"/><ellipse cx="534" cy="1844.0508" fill="#ADD1B2" rx="12" ry="12" style="stroke:#181818;stroke-width:1.0;"/><path d="M536.1406,1838.9727 Q536.3281,1838.7227 536.5469,1838.5977 Q536.7656,1838.457 537.0156,1838.457 Q537.4531,1838.457 537.7344,1838.7695 Q538.0156,1839.0664 538.0156,1839.7852 L538.0156,1841.4883 Q538.0156,1842.207 537.7344,1842.5195 Q537.4531,1842.832 537.0156,1842.832 Q536.625,1842.832 536.375,1842.5977 Q536.125,1842.3789 536.0156,1841.7695 Q535.9531,1841.3477 535.7344,1841.1289 Q535.3438,1840.6914 534.625,1840.4258 Q533.9063,1840.1602 533.1875,1840.1602 Q532.2813,1840.1602 531.5313,1840.5508 Q530.7813,1840.9414 530.2031,1841.832 Q529.625,1842.707 529.625,1843.9102 L529.625,1845.207 Q529.625,1846.6602 530.6719,1847.6289 Q531.7344,1848.5977 533.5938,1848.5977 Q534.7031,1848.5977 535.4844,1848.2852 Q535.9219,1848.1133 536.4375,1847.5977 Q536.75,1847.2852 536.9219,1847.1914 Q537.0938,1847.0977 537.3281,1847.0977 Q537.7188,1847.0977 538.0156,1847.4102 Q538.3281,1847.707 538.3281,1848.1133 Q538.3281,1848.5195 537.9219,1848.9883 Q537.3281,1849.6758 536.3906,1850.0664 Q535.125,1850.5977 533.6094,1850.5977 Q531.8281,1850.5977 530.4063,1849.8633 Q529.25,1849.2695 528.4375,1848.0039 Q527.625,1846.7383 527.625,1845.2539 L527.625,1843.8945 Q527.625,1842.332 528.3438,1840.9883 Q529.0781,1839.6289 530.3594,1838.8945 Q531.6563,1838.1602 533.1094,1838.1602 Q533.9688,1838.1602 534.7188,1838.3633 Q535.4844,1838.5664 536.1406,1838.9727 Z " fill="#000000"/><text fill="#000000" font-family="sans-serif" font-size="20" font-style="italic" lengthAdjust="spacing" textLength="136" x="547" y="1839.6563">«Value Object»</text><text fill="#000000" font-family="sans-serif" font-size="20" lengthAdjust="spacing" textLength="47" x="591.5" y="1864.8125">Code</text><line style="stroke:#181818;stroke-width:0.5;" x1="519" x2="683" y1="1874.207" y2="1874.207"/><line style="stroke:#181818;stroke-width:0.5;" x1="519" x2="683" y1="1882.207" y2="1882.207"/></g><!--class Version--><g id="elem_Version"><rect codeLine="63" fill="#F1F1F1" height="76.3125" id="Version" rx="2.5" ry="2.5" style="stroke:#181818;stroke-width:0.5;" width="166" x="719" y="1813.8945"/><ellipse cx="735" cy="1844.0508" fill="#ADD1B2" rx="12" ry="12" style="stroke:#181818;stroke-width:1.0;"/><path d="M737.1406,1838.9727 Q737.3281,1838.7227 737.5469,1838.5977 Q737.7656,1838.457 738.0156,1838.457 Q738.4531,1838.457 738.7344,1838.7695 Q739.0156,1839.0664 739.0156,1839.7852 L739.0156,1841.4883 Q739.0156,1842.207 738.7344,1842.5195 Q738.4531,1842.832 738.0156,1842.832 Q737.625,1842.832 737.375,1842.5977 Q737.125,1842.3789 737.0156,1841.7695 Q736.9531,1841.3477 736.7344,1841.1289 Q736.3438,1840.6914 735.625,1840.4258 Q734.9063,1840.1602 734.1875,1840.1602 Q733.2813,1840.1602 732.5313,1840.5508 Q731.7813,1840.9414 731.2031,1841.832 Q730.625,1842.707 730.625,1843.9102 L730.625,1845.207 Q730.625,1846.6602 731.6719,1847.6289 Q732.7344,1848.5977 734.5938,1848.5977 Q735.7031,1848.5977 736.4844,1848.2852 Q736.9219,1848.1133 737.4375,1847.5977 Q737.75,1847.2852 737.9219,1847.1914 Q738.0938,1847.0977 738.3281,1847.0977 Q738.7188,1847.0977 739.0156,1847.4102 Q739.3281,1847.707 739.3281,1848.1133 Q739.3281,1848.5195 738.9219,1848.9883 Q738.3281,1849.6758 737.3906,1850.0664 Q736.125,1850.5977 734.6094,1850.5977 Q732.8281,1850.5977 731.4063,1849.8633 Q730.25,1849.2695 729.4375,1848.0039 Q728.625,1846.7383 728.625,1845.2539 L728.625,1843.8945 Q728.625,1842.332 729.3438,1840.9883 Q730.0781,1839.6289 731.3594,1838.8945 Q732.6563,1838.1602 734.1094,1838.1602 Q734.9688,1838.1602 735.7188,1838.3633 Q736.4844,1838.5664 737.1406,1838.9727 Z " fill="#000000"/><text fill="#000000" font-family="sans-serif" font-size="20" font-style="italic" lengthAdjust="spacing" textLength="136" x="748" y="1839.6563">«Value Object»</text><text fill="#000000" font-family="sans-serif" font-size="20" lengthAdjust="spacing" textLength="66" x="783" y="1864.8125">Version</text><line style="stroke:#181818;stroke-width:0.5;" x1="720" x2="884" y1="1874.207" y2="1874.207"/><line style="stroke:#181818;stroke-width:0.5;" x1="720" x2="884" y1="1882.207" y2="1882.207"/></g><!--class Description--><g id="elem_Description"><rect codeLine="66" fill="#F1F1F1" height="76.3125" id="Description" rx="2.5" ry="2.5" style="stroke:#181818;stroke-width:0.5;" width="166" x="920" y="1813.8945"/><ellipse cx="936" cy="1844.0508" fill="#ADD1B2" rx="12" ry="12" style="stroke:#181818;stroke-width:1.0;"/><path d="M938.1406,1838.9727 Q938.3281,1838.7227 938.5469,1838.5977 Q938.7656,1838.457 939.0156,1838.457 Q939.4531,1838.457 939.7344,1838.7695 Q940.0156,1839.0664 940.0156,1839.7852 L940.0156,1841.4883 Q940.0156,1842.207 939.7344,1842.5195 Q939.4531,1842.832 939.0156,1842.832 Q938.625,1842.832 938.375,1842.5977 Q938.125,1842.3789 938.0156,1841.7695 Q937.9531,1841.3477 937.7344,1841.1289 Q937.3438,1840.6914 936.625,1840.4258 Q935.9063,1840.1602 935.1875,1840.1602 Q934.2813,1840.1602 933.5313,1840.5508 Q932.7813,1840.9414 932.2031,1841.832 Q931.625,1842.707 931.625,1843.9102 L931.625,1845.207 Q931.625,1846.6602 932.6719,1847.6289 Q933.7344,1848.5977 935.5938,1848.5977 Q936.7031,1848.5977 937.4844,1848.2852 Q937.9219,1848.1133 938.4375,1847.5977 Q938.75,1847.2852 938.9219,1847.1914 Q939.0938,1847.0977 939.3281,1847.0977 Q939.7188,1847.0977 940.0156,1847.4102 Q940.3281,1847.707 940.3281,1848.1133 Q940.3281,1848.5195 939.9219,1848.9883 Q939.3281,1849.6758 938.3906,1850.0664 Q937.125,1850.5977 935.6094,1850.5977 Q933.8281,1850.5977 932.4063,1849.8633 Q931.25,1849.2695 930.4375,1848.0039 Q929.625,1846.7383 929.625,1845.2539 L929.625,1843.8945 Q929.625,1842.332 930.3438,1840.9883 Q931.0781,1839.6289 932.3594,1838.8945 Q933.6563,1838.1602 935.1094,1838.1602 Q935.9688,1838.1602 936.7188,1838.3633 Q937.4844,1838.5664 938.1406,1838.9727 Z " fill="#000000"/><text fill="#000000" font-family="sans-serif" font-size="20" font-style="italic" lengthAdjust="spacing" textLength="136" x="949" y="1839.6563">«Value Object»</text><text fill="#000000" font-family="sans-serif" font-size="20" lengthAdjust="spacing" textLength="98" x="968" y="1864.8125">Description</text><line style="stroke:#181818;stroke-width:0.5;" x1="921" x2="1085" y1="1874.207" y2="1874.207"/><line style="stroke:#181818;stroke-width:0.5;" x1="921" x2="1085" y1="1882.207" y2="1882.207"/></g><!--class DSLDescription--><g id="elem_DSLDescription"><rect codeLine="69" fill="#F1F1F1" height="76.3125" id="DSLDescription" rx="2.5" ry="2.5" style="stroke:#181818;stroke-width:0.5;" width="170" x="1121" y="1813.8945"/><ellipse cx="1137" cy="1844.0508" fill="#ADD1B2" rx="12" ry="12" style="stroke:#181818;stroke-width:1.0;"/><path d="M1139.1406,1838.9727 Q1139.3281,1838.7227 1139.5469,1838.5977 Q1139.7656,1838.457 1140.0156,1838.457 Q1140.4531,1838.457 1140.7344,1838.7695 Q1141.0156,1839.0664 1141.0156,1839.7852 L1141.0156,1841.4883 Q1141.0156,1842.207 1140.7344,1842.5195 Q1140.4531,1842.832 1140.0156,1842.832 Q1139.625,1842.832 1139.375,1842.5977 Q1139.125,1842.3789 1139.0156,1841.7695 Q1138.9531,1841.3477 1138.7344,1841.1289 Q1138.3438,1840.6914 1137.625,1840.4258 Q1136.9063,1840.1602 1136.1875,1840.1602 Q1135.2813,1840.1602 1134.5313,1840.5508 Q1133.7813,1840.9414 1133.2031,1841.832 Q1132.625,1842.707 1132.625,1843.9102 L1132.625,1845.207 Q1132.625,1846.6602 1133.6719,1847.6289 Q1134.7344,1848.5977 1136.5938,1848.5977 Q1137.7031,1848.5977 1138.4844,1848.2852 Q1138.9219,1848.1133 1139.4375,1847.5977 Q1139.75,1847.2852 1139.9219,1847.1914 Q1140.0938,1847.0977 1140.3281,1847.0977 Q1140.7188,1847.0977 1141.0156,1847.4102 Q1141.3281,1847.707 1141.3281,1848.1133 Q1141.3281,1848.5195 1140.9219,1848.9883 Q1140.3281,1849.6758 1139.3906,1850.0664 Q1138.125,1850.5977 1136.6094,1850.5977 Q1134.8281,1850.5977 1133.4063,1849.8633 Q1132.25,1849.2695 1131.4375,1848.0039 Q1130.625,1846.7383 1130.625,1845.2539 L1130.625,1843.8945 Q1130.625,1842.332 1131.3438,1840.9883 Q1132.0781,1839.6289 1133.3594,1838.8945 Q1134.6563,1838.1602 1136.1094,1838.1602 Q1136.9688,1838.1602 1137.7188,1838.3633 Q1138.4844,1838.5664 1139.1406,1838.9727 Z " fill="#000000"/><text fill="#000000" font-family="sans-serif" font-size="20" font-style="italic" lengthAdjust="spacing" textLength="136" x="1152" y="1839.6563">«Value Object»</text><text fill="#000000" font-family="sans-serif" font-size="20" lengthAdjust="spacing" textLength="136" x="1152" y="1864.8125">DSLDescription</text><line style="stroke:#181818;stroke-width:0.5;" x1="1122" x2="1290" y1="1874.207" y2="1874.207"/><line style="stroke:#181818;stroke-width:0.5;" x1="1122" x2="1290" y1="1882.207" y2="1882.207"/></g><!--class Keyword--><g id="elem_Keyword"><rect codeLine="72" fill="#F1F1F1" height="76.3125" id="Keyword" rx="2.5" ry="2.5" style="stroke:#181818;stroke-width:0.5;" width="166" x="1326" y="1813.8945"/><ellipse cx="1342" cy="1844.0508" fill="#ADD1B2" rx="12" ry="12" style="stroke:#181818;stroke-width:1.0;"/><path d="M1344.1406,1838.9727 Q1344.3281,1838.7227 1344.5469,1838.5977 Q1344.7656,1838.457 1345.0156,1838.457 Q1345.4531,1838.457 1345.7344,1838.7695 Q1346.0156,1839.0664 1346.0156,1839.7852 L1346.0156,1841.4883 Q1346.0156,1842.207 1345.7344,1842.5195 Q1345.4531,1842.832 1345.0156,1842.832 Q1344.625,1842.832 1344.375,1842.5977 Q1344.125,1842.3789 1344.0156,1841.7695 Q1343.9531,1841.3477 1343.7344,1841.1289 Q1343.3438,1840.6914 1342.625,1840.4258 Q1341.9063,1840.1602 1341.1875,1840.1602 Q1340.2813,1840.1602 1339.5313,1840.5508 Q1338.7813,1840.9414 1338.2031,1841.832 Q1337.625,1842.707 1337.625,1843.9102 L1337.625,1845.207 Q1337.625,1846.6602 1338.6719,1847.6289 Q1339.7344,1848.5977 1341.5938,1848.5977 Q1342.7031,1848.5977 1343.4844,1848.2852 Q1343.9219,1848.1133 1344.4375,1847.5977 Q1344.75,1847.2852 1344.9219,1847.1914 Q1345.0938,1847.0977 1345.3281,1847.0977 Q1345.7188,1847.0977 1346.0156,1847.4102 Q1346.3281,1847.707 1346.3281,1848.1133 Q1346.3281,1848.5195 1345.9219,1848.9883 Q1345.3281,1849.6758 1344.3906,1850.0664 Q1343.125,1850.5977 1341.6094,1850.5977 Q1339.8281,1850.5977 1338.4063,1849.8633 Q1337.25,1849.2695 1336.4375,1848.0039 Q1335.625,1846.7383 1335.625,1845.2539 L1335.625,1843.8945 Q1335.625,1842.332 1336.3438,1840.9883 Q1337.0781,1839.6289 1338.3594,1838.8945 Q1339.6563,1838.1602 1341.1094,1838.1602 Q1341.9688,1838.1602 1342.7188,1838.3633 Q1343.4844,1838.5664 1344.1406,1838.9727 Z " fill="#000000"/><text fill="#000000" font-family="sans-serif" font-size="20" font-style="italic" lengthAdjust="spacing" textLength="136" x="1355" y="1839.6563">«Value Object»</text><text fill="#000000" font-family="sans-serif" font-size="20" lengthAdjust="spacing" textLength="78" x="1384" y="1864.8125">Keyword</text><line style="stroke:#181818;stroke-width:0.5;" x1="1327" x2="1491" y1="1874.207" y2="1874.207"/><line style="stroke:#181818;stroke-width:0.5;" x1="1327" x2="1491" y1="1882.207" y2="1882.207"/></g><!--class Exclusivity--><g id="elem_Exclusivity"><rect codeLine="75" fill="#F1F1F1" height="76.3125" id="Exclusivity" rx="2.5" ry="2.5" style="stroke:#181818;stroke-width:0.5;" width="123" x="163.5" y="1813.8945"/><ellipse cx="179.5" cy="1844.0508" fill="#ADD1B2" rx="12" ry="12" style="stroke:#181818;stroke-width:1.0;"/><path d="M181.6406,1838.9727 Q181.8281,1838.7227 182.0469,1838.5977 Q182.2656,1838.457 182.5156,1838.457 Q182.9531,1838.457 183.2344,1838.7695 Q183.5156,1839.0664 183.5156,1839.7852 L183.5156,1841.4883 Q183.5156,1842.207 183.2344,1842.5195 Q182.9531,1842.832 182.5156,1842.832 Q182.125,1842.832 181.875,1842.5977 Q181.625,1842.3789 181.5156,1841.7695 Q181.4531,1841.3477 181.2344,1841.1289 Q180.8438,1840.6914 180.125,1840.4258 Q179.4063,1840.1602 178.6875,1840.1602 Q177.7813,1840.1602 177.0313,1840.5508 Q176.2813,1840.9414 175.7031,1841.832 Q175.125,1842.707 175.125,1843.9102 L175.125,1845.207 Q175.125,1846.6602 176.1719,1847.6289 Q177.2344,1848.5977 179.0938,1848.5977 Q180.2031,1848.5977 180.9844,1848.2852 Q181.4219,1848.1133 181.9375,1847.5977 Q182.25,1847.2852 182.4219,1847.1914 Q182.5938,1847.0977 182.8281,1847.0977 Q183.2188,1847.0977 183.5156,1847.4102 Q183.8281,1847.707 183.8281,1848.1133 Q183.8281,1848.5195 183.4219,1848.9883 Q182.8281,1849.6758 181.8906,1850.0664 Q180.625,1850.5977 179.1094,1850.5977 Q177.3281,1850.5977 175.9063,1849.8633 Q174.75,1849.2695 173.9375,1848.0039 Q173.125,1846.7383 173.125,1845.2539 L173.125,1843.8945 Q173.125,1842.332 173.8438,1840.9883 Q174.5781,1839.6289 175.8594,1838.8945 Q177.1563,1838.1602 178.6094,1838.1602 Q179.4688,1838.1602 180.2188,1838.3633 Q180.9844,1838.5664 181.6406,1838.9727 Z " fill="#000000"/><text fill="#000000" font-family="sans-serif" font-size="20" font-style="italic" lengthAdjust="spacing" textLength="71" x="203.5" y="1839.6563">«Entity»</text><text fill="#000000" font-family="sans-serif" font-size="20" lengthAdjust="spacing" textLength="89" x="194.5" y="1864.8125">Exclusivity</text><line style="stroke:#181818;stroke-width:0.5;" x1="164.5" x2="285.5" y1="1874.207" y2="1874.207"/><line style="stroke:#181818;stroke-width:0.5;" x1="164.5" x2="285.5" y1="1882.207" y2="1882.207"/></g><!--class Category--><g id="elem_Category"><rect codeLine="80" fill="#F1F1F1" height="76.3125" id="Category" rx="2.5" ry="2.5" style="stroke:#181818;stroke-width:0.5;" width="115" x="1527.5" y="1813.8945"/><ellipse cx="1543.5" cy="1844.0508" fill="#ADD1B2" rx="12" ry="12" style="stroke:#181818;stroke-width:1.0;"/><path d="M1545.6406,1838.9727 Q1545.8281,1838.7227 1546.0469,1838.5977 Q1546.2656,1838.457 1546.5156,1838.457 Q1546.9531,1838.457 1547.2344,1838.7695 Q1547.5156,1839.0664 1547.5156,1839.7852 L1547.5156,1841.4883 Q1547.5156,1842.207 1547.2344,1842.5195 Q1546.9531,1842.832 1546.5156,1842.832 Q1546.125,1842.832 1545.875,1842.5977 Q1545.625,1842.3789 1545.5156,1841.7695 Q1545.4531,1841.3477 1545.2344,1841.1289 Q1544.8438,1840.6914 1544.125,1840.4258 Q1543.4063,1840.1602 1542.6875,1840.1602 Q1541.7813,1840.1602 1541.0313,1840.5508 Q1540.2813,1840.9414 1539.7031,1841.832 Q1539.125,1842.707 1539.125,1843.9102 L1539.125,1845.207 Q1539.125,1846.6602 1540.1719,1847.6289 Q1541.2344,1848.5977 1543.0938,1848.5977 Q1544.2031,1848.5977 1544.9844,1848.2852 Q1545.4219,1848.1133 1545.9375,1847.5977 Q1546.25,1847.2852 1546.4219,1847.1914 Q1546.5938,1847.0977 1546.8281,1847.0977 Q1547.2188,1847.0977 1547.5156,1847.4102 Q1547.8281,1847.707 1547.8281,1848.1133 Q1547.8281,1848.5195 1547.4219,1848.9883 Q1546.8281,1849.6758 1545.8906,1850.0664 Q1544.625,1850.5977 1543.1094,1850.5977 Q1541.3281,1850.5977 1539.9063,1849.8633 Q1538.75,1849.2695 1537.9375,1848.0039 Q1537.125,1846.7383 1537.125,1845.2539 L1537.125,1843.8945 Q1537.125,1842.332 1537.8438,1840.9883 Q1538.5781,1839.6289 1539.8594,1838.8945 Q1541.1563,1838.1602 1542.6094,1838.1602 Q1543.4688,1838.1602 1544.2188,1838.3633 Q1544.9844,1838.5664 1545.6406,1838.9727 Z " fill="#000000"/><text fill="#000000" font-family="sans-serif" font-size="20" font-style="italic" lengthAdjust="spacing" textLength="71" x="1563.5" y="1839.6563">«Entity»</text><text fill="#000000" font-family="sans-serif" font-size="20" lengthAdjust="spacing" textLength="81" x="1558.5" y="1864.8125">Category</text><line style="stroke:#181818;stroke-width:0.5;" x1="1528.5" x2="1641.5" y1="1874.207" y2="1874.207"/><line style="stroke:#181818;stroke-width:0.5;" x1="1528.5" x2="1641.5" y1="1882.207" y2="1882.207"/></g><!--class ShowDesigner--><g id="elem_ShowDesigner"><rect codeLine="85" fill="#F1F1F1" height="76.3125" id="ShowDesigner" rx="2.5" ry="2.5" style="stroke:#181818;stroke-width:0.5;" width="161" x="321.5" y="1813.8945"/><ellipse cx="337.5" cy="1844.0508" fill="#ADD1B2" rx="12" ry="12" style="stroke:#181818;stroke-width:1.0;"/><path d="M339.6406,1838.9727 Q339.8281,1838.7227 340.0469,1838.5977 Q340.2656,1838.457 340.5156,1838.457 Q340.9531,1838.457 341.2344,1838.7695 Q341.5156,1839.0664 341.5156,1839.7852 L341.5156,1841.4883 Q341.5156,1842.207 341.2344,1842.5195 Q340.9531,1842.832 340.5156,1842.832 Q340.125,1842.832 339.875,1842.5977 Q339.625,1842.3789 339.5156,1841.7695 Q339.4531,1841.3477 339.2344,1841.1289 Q338.8438,1840.6914 338.125,1840.4258 Q337.4063,1840.1602 336.6875,1840.1602 Q335.7813,1840.1602 335.0313,1840.5508 Q334.2813,1840.9414 333.7031,1841.832 Q333.125,1842.707 333.125,1843.9102 L333.125,1845.207 Q333.125,1846.6602 334.1719,1847.6289 Q335.2344,1848.5977 337.0938,1848.5977 Q338.2031,1848.5977 338.9844,1848.2852 Q339.4219,1848.1133 339.9375,1847.5977 Q340.25,1847.2852 340.4219,1847.1914 Q340.5938,1847.0977 340.8281,1847.0977 Q341.2188,1847.0977 341.5156,1847.4102 Q341.8281,1847.707 341.8281,1848.1133 Q341.8281,1848.5195 341.4219,1848.9883 Q340.8281,1849.6758 339.8906,1850.0664 Q338.625,1850.5977 337.1094,1850.5977 Q335.3281,1850.5977 333.9063,1849.8633 Q332.75,1849.2695 331.9375,1848.0039 Q331.125,1846.7383 331.125,1845.2539 L331.125,1843.8945 Q331.125,1842.332 331.8438,1840.9883 Q332.5781,1839.6289 333.8594,1838.8945 Q335.1563,1838.1602 336.6094,1838.1602 Q337.4688,1838.1602 338.2188,1838.3633 Q338.9844,1838.5664 339.6406,1838.9727 Z " fill="#000000"/><text fill="#000000" font-family="sans-serif" font-size="20" font-style="italic" lengthAdjust="spacing" textLength="71" x="380.5" y="1839.6563">«Entity»</text><text fill="#000000" font-family="sans-serif" font-size="20" lengthAdjust="spacing" textLength="127" x="352.5" y="1864.8125">ShowDesigner</text><line style="stroke:#181818;stroke-width:0.5;" x1="322.5" x2="481.5" y1="1874.207" y2="1874.207"/><line style="stroke:#181818;stroke-width:0.5;" x1="322.5" x2="481.5" y1="1882.207" y2="1882.207"/></g><!--class RepositoryFactory--><g id="elem_RepositoryFactory"><rect codeLine="40" fill="#F1F1F1" height="76.3125" id="RepositoryFactory" rx="2.5" ry="2.5" style="stroke:#181818;stroke-width:0.5;" width="433" x="1083.5" y="1261.8945"/><ellipse cx="1215" cy="1279.4727" fill="#B4A7E5" rx="12" ry="12" style="stroke:#181818;stroke-width:1.0;"/><path d="M1216,1275.6445 L1216,1283.4727 L1218.0313,1283.4727 Q1218.75,1283.4727 1219.0469,1283.7539 Q1219.3594,1284.0195 1219.3594,1284.4727 Q1219.3594,1284.9102 1219.0469,1285.1914 Q1218.75,1285.4727 1218.0313,1285.4727 L1211.9844,1285.4727 Q1211.25,1285.4727 1210.9375,1285.1914 Q1210.6406,1284.9102 1210.6406,1284.4727 Q1210.6406,1284.0195 1210.9375,1283.7539 Q1211.25,1283.4727 1211.9844,1283.4727 L1214,1283.4727 L1214,1275.6445 L1211.9844,1275.6445 Q1211.25,1275.6445 1210.9375,1275.3633 Q1210.6406,1275.082 1210.6406,1274.6289 Q1210.6406,1274.1758 1210.9375,1273.9102 Q1211.25,1273.6289 1211.9844,1273.6289 L1218.0313,1273.6289 Q1218.75,1273.6289 1219.0469,1273.9102 Q1219.3594,1274.1758 1219.3594,1274.6289 Q1219.3594,1275.082 1219.0469,1275.3633 Q1218.75,1275.6445 1218.0313,1275.6445 L1216,1275.6445 Z " fill="#000000"/><text fill="#000000" font-family="sans-serif" font-size="20" font-style="italic" lengthAdjust="spacing" textLength="161" x="1237" y="1287.6563">RepositoryFactory</text><line style="stroke:#181818;stroke-width:0.5;" x1="1084.5" x2="1515.5" y1="1297.0508" y2="1297.0508"/><line style="stroke:#181818;stroke-width:0.5;" x1="1084.5" x2="1515.5" y1="1305.0508" y2="1305.0508"/><ellipse cx="1094.5" cy="1323.1289" fill="#84BE84" rx="3" ry="3" style="stroke:#038048;stroke-width:1.0;"/><text fill="#000000" font-family="sans-serif" font-size="20" lengthAdjust="spacing" textLength="406" x="1104.5" y="1329.8125">getCategoryRepository(): CategoryRepository</text></g><!--class FigureRepository--><g id="elem_FigureRepository"><rect codeLine="44" fill="#F1F1F1" height="76.3125" id="FigureRepository" rx="2.5" ry="2.5" style="stroke:#181818;stroke-width:0.5;" width="198" x="1006" y="1398.8945"/><ellipse cx="1027.4" cy="1416.4727" fill="#B4A7E5" rx="12" ry="12" style="stroke:#181818;stroke-width:1.0;"/><path d="M1028.4,1412.6445 L1028.4,1420.4727 L1030.4313,1420.4727 Q1031.15,1420.4727 1031.4469,1420.7539 Q1031.7594,1421.0195 1031.7594,1421.4727 Q1031.7594,1421.9102 1031.4469,1422.1914 Q1031.15,1422.4727 1030.4313,1422.4727 L1024.3844,1422.4727 Q1023.65,1422.4727 1023.3375,1422.1914 Q1023.0406,1421.9102 1023.0406,1421.4727 Q1023.0406,1421.0195 1023.3375,1420.7539 Q1023.65,1420.4727 1024.3844,1420.4727 L1026.4,1420.4727 L1026.4,1412.6445 L1024.3844,1412.6445 Q1023.65,1412.6445 1023.3375,1412.3633 Q1023.0406,1412.082 1023.0406,1411.6289 Q1023.0406,1411.1758 1023.3375,1410.9102 Q1023.65,1410.6289 1024.3844,1410.6289 L1030.4313,1410.6289 Q1031.15,1410.6289 1031.4469,1410.9102 Q1031.7594,1411.1758 1031.7594,1411.6289 Q1031.7594,1412.082 1031.4469,1412.3633 Q1031.15,1412.6445 1030.4313,1412.6445 L1028.4,1412.6445 Z " fill="#000000"/><text fill="#000000" font-family="sans-serif" font-size="20" font-style="italic" lengthAdjust="spacing" textLength="152" x="1043.6" y="1424.6563">FigureRepository</text><line style="stroke:#181818;stroke-width:0.5;" x1="1007" x2="1203" y1="1434.0508" y2="1434.0508"/><line style="stroke:#181818;stroke-width:0.5;" x1="1007" x2="1203" y1="1442.0508" y2="1442.0508"/><ellipse cx="1017" cy="1460.1289" fill="#84BE84" rx="3" ry="3" style="stroke:#038048;stroke-width:1.0;"/><text fill="#000000" font-family="sans-serif" font-size="20" lengthAdjust="spacing" textLength="171" x="1027" y="1466.8125">save(figure): Figure</text></g><!--class CategoryRepository--><g id="elem_CategoryRepository"><rect codeLine="48" fill="#F1F1F1" height="76.3125" id="CategoryRepository" rx="2.5" ry="2.5" style="stroke:#181818;stroke-width:0.5;" width="277" x="1239.5" y="1398.8945"/><ellipse cx="1286.1" cy="1416.4727" fill="#B4A7E5" rx="12" ry="12" style="stroke:#181818;stroke-width:1.0;"/><path d="M1287.1,1412.6445 L1287.1,1420.4727 L1289.1313,1420.4727 Q1289.85,1420.4727 1290.1469,1420.7539 Q1290.4594,1421.0195 1290.4594,1421.4727 Q1290.4594,1421.9102 1290.1469,1422.1914 Q1289.85,1422.4727 1289.1313,1422.4727 L1283.0844,1422.4727 Q1282.35,1422.4727 1282.0375,1422.1914 Q1281.7406,1421.9102 1281.7406,1421.4727 Q1281.7406,1421.0195 1282.0375,1420.7539 Q1282.35,1420.4727 1283.0844,1420.4727 L1285.1,1420.4727 L1285.1,1412.6445 L1283.0844,1412.6445 Q1282.35,1412.6445 1282.0375,1412.3633 Q1281.7406,1412.082 1281.7406,1411.6289 Q1281.7406,1411.1758 1282.0375,1410.9102 Q1282.35,1410.6289 1283.0844,1410.6289 L1289.1313,1410.6289 Q1289.85,1410.6289 1290.1469,1410.9102 Q1290.4594,1411.1758 1290.4594,1411.6289 Q1290.4594,1412.082 1290.1469,1412.3633 Q1289.85,1412.6445 1289.1313,1412.6445 L1287.1,1412.6445 Z " fill="#000000"/><text fill="#000000" font-family="sans-serif" font-size="20" font-style="italic" lengthAdjust="spacing" textLength="175" x="1307.9" y="1424.6563">CategoryRepository</text><line style="stroke:#181818;stroke-width:0.5;" x1="1240.5" x2="1515.5" y1="1434.0508" y2="1434.0508"/><line style="stroke:#181818;stroke-width:0.5;" x1="1240.5" x2="1515.5" y1="1442.0508" y2="1442.0508"/><ellipse cx="1250.5" cy="1460.1289" fill="#84BE84" rx="3" ry="3" style="stroke:#038048;stroke-width:1.0;"/><text fill="#000000" font-family="sans-serif" font-size="20" lengthAdjust="spacing" textLength="250" x="1260.5" y="1466.8125">findAll(): Iterable&lt;Category&gt;</text></g><!--class AddFigureToCatalogueUI--><g id="elem_AddFigureToCatalogueUI"><rect codeLine="91" fill="#F1F1F1" height="126.625" id="AddFigureToCatalogueUI" rx="2.5" ry="2.5" style="stroke:#181818;stroke-width:0.5;" width="290" x="1619" y="50.8945"/><ellipse cx="1650.75" cy="81.0508" fill="#ADD1B2" rx="12" ry="12" style="stroke:#181818;stroke-width:1.0;"/><path d="M1652.8906,75.9727 Q1653.0781,75.7227 1653.2969,75.5977 Q1653.5156,75.457 1653.7656,75.457 Q1654.2031,75.457 1654.4844,75.7695 Q1654.7656,76.0664 1654.7656,76.7852 L1654.7656,78.4883 Q1654.7656,79.207 1654.4844,79.5195 Q1654.2031,79.832 1653.7656,79.832 Q1653.375,79.832 1653.125,79.5977 Q1652.875,79.3789 1652.7656,78.7695 Q1652.7031,78.3477 1652.4844,78.1289 Q1652.0938,77.6914 1651.375,77.4258 Q1650.6563,77.1602 1649.9375,77.1602 Q1649.0313,77.1602 1648.2813,77.5508 Q1647.5313,77.9414 1646.9531,78.832 Q1646.375,79.707 1646.375,80.9102 L1646.375,82.207 Q1646.375,83.6602 1647.4219,84.6289 Q1648.4844,85.5977 1650.3438,85.5977 Q1651.4531,85.5977 1652.2344,85.2852 Q1652.6719,85.1133 1653.1875,84.5977 Q1653.5,84.2852 1653.6719,84.1914 Q1653.8438,84.0977 1654.0781,84.0977 Q1654.4688,84.0977 1654.7656,84.4102 Q1655.0781,84.707 1655.0781,85.1133 Q1655.0781,85.5195 1654.6719,85.9883 Q1654.0781,86.6758 1653.1406,87.0664 Q1651.875,87.5977 1650.3594,87.5977 Q1648.5781,87.5977 1647.1563,86.8633 Q1646,86.2695 1645.1875,85.0039 Q1644.375,83.7383 1644.375,82.2539 L1644.375,80.8945 Q1644.375,79.332 1645.0938,77.9883 Q1645.8281,76.6289 1647.1094,75.8945 Q1648.4063,75.1602 1649.8594,75.1602 Q1650.7188,75.1602 1651.4688,75.3633 Q1652.2344,75.5664 1652.8906,75.9727 Z " fill="#000000"/><text fill="#000000" font-family="sans-serif" font-size="20" font-style="italic" lengthAdjust="spacing" textLength="41" x="1759.25" y="76.6563">«UI»</text><text fill="#000000" font-family="sans-serif" font-size="20" lengthAdjust="spacing" textLength="221" x="1669.25" y="101.8125">AddFigureToCatalogueUI</text><line style="stroke:#181818;stroke-width:0.5;" x1="1620" x2="1908" y1="111.207" y2="111.207"/><line style="stroke:#181818;stroke-width:0.5;" x1="1620" x2="1908" y1="119.207" y2="119.207"/><ellipse cx="1630" cy="137.2852" fill="#84BE84" rx="3" ry="3" style="stroke:#038048;stroke-width:1.0;"/><text fill="#000000" font-family="sans-serif" font-size="20" lengthAdjust="spacing" textLength="263" x="1640" y="143.9688">addFigureToCatalogue(figure)</text><ellipse cx="1630" cy="162.4414" fill="#84BE84" rx="3" ry="3" style="stroke:#038048;stroke-width:1.0;"/><text fill="#000000" font-family="sans-serif" font-size="20" lengthAdjust="spacing" textLength="245" x="1640" y="169.125">showCategoriesAndSelect()</text></g><!--class AddFigureToCatalogueController--><g id="elem_AddFigureToCatalogueController"><rect codeLine="98" fill="#F1F1F1" height="126.625" id="AddFigureToCatalogueController" rx="2.5" ry="2.5" style="stroke:#181818;stroke-width:0.5;" width="371" x="1578.5" y="270.8945"/><ellipse cx="1617" cy="301.0508" fill="#ADD1B2" rx="12" ry="12" style="stroke:#181818;stroke-width:1.0;"/><path d="M1619.1406,295.9727 Q1619.3281,295.7227 1619.5469,295.5977 Q1619.7656,295.457 1620.0156,295.457 Q1620.4531,295.457 1620.7344,295.7695 Q1621.0156,296.0664 1621.0156,296.7852 L1621.0156,298.4883 Q1621.0156,299.207 1620.7344,299.5195 Q1620.4531,299.832 1620.0156,299.832 Q1619.625,299.832 1619.375,299.5977 Q1619.125,299.3789 1619.0156,298.7695 Q1618.9531,298.3477 1618.7344,298.1289 Q1618.3438,297.6914 1617.625,297.4258 Q1616.9063,297.1602 1616.1875,297.1602 Q1615.2813,297.1602 1614.5313,297.5508 Q1613.7813,297.9414 1613.2031,298.832 Q1612.625,299.707 1612.625,300.9102 L1612.625,302.207 Q1612.625,303.6602 1613.6719,304.6289 Q1614.7344,305.5977 1616.5938,305.5977 Q1617.7031,305.5977 1618.4844,305.2852 Q1618.9219,305.1133 1619.4375,304.5977 Q1619.75,304.2852 1619.9219,304.1914 Q1620.0938,304.0977 1620.3281,304.0977 Q1620.7188,304.0977 1621.0156,304.4102 Q1621.3281,304.707 1621.3281,305.1133 Q1621.3281,305.5195 1620.9219,305.9883 Q1620.3281,306.6758 1619.3906,307.0664 Q1618.125,307.5977 1616.6094,307.5977 Q1614.8281,307.5977 1613.4063,306.8633 Q1612.25,306.2695 1611.4375,305.0039 Q1610.625,303.7383 1610.625,302.2539 L1610.625,300.8945 Q1610.625,299.332 1611.3438,297.9883 Q1612.0781,296.6289 1613.3594,295.8945 Q1614.6563,295.1602 1616.1094,295.1602 Q1616.9688,295.1602 1617.7188,295.3633 Q1618.4844,295.5664 1619.1406,295.9727 Z " fill="#000000"/><text fill="#000000" font-family="sans-serif" font-size="20" font-style="italic" lengthAdjust="spacing" textLength="109" x="1726" y="296.6563">«Controller»</text><text fill="#000000" font-family="sans-serif" font-size="20" lengthAdjust="spacing" textLength="287" x="1637" y="321.8125">AddFigureToCatalogueController</text><line style="stroke:#181818;stroke-width:0.5;" x1="1579.5" x2="1948.5" y1="331.207" y2="331.207"/><line style="stroke:#181818;stroke-width:0.5;" x1="1579.5" x2="1948.5" y1="339.207" y2="339.207"/><ellipse cx="1589.5" cy="357.2852" fill="#84BE84" rx="3" ry="3" style="stroke:#038048;stroke-width:1.0;"/><text fill="#000000" font-family="sans-serif" font-size="20" lengthAdjust="spacing" textLength="344" x="1599.5" y="363.9688">addFigureToCatalogue(figure): boolean</text><ellipse cx="1589.5" cy="382.4414" fill="#84BE84" rx="3" ry="3" style="stroke:#038048;stroke-width:1.0;"/><text fill="#000000" font-family="sans-serif" font-size="20" lengthAdjust="spacing" textLength="318" x="1599.5" y="389.125">listCategories(): Iterable&lt;Category&gt;</text></g><!--link PersistenceContext to RepositoryFactory--><g id="link_PersistenceContext_RepositoryFactory"><path codeLine="107" d="M1263.12,593.0145 C1313.88,623.3945 1371,671.7345 1371,735.3945 C1371,735.3945 1371,735.3945 1371,1092.3945 C1371,1151.9545 1344.26,1216.1845 1323.6,1256.9245 " fill="none" id="PersistenceContext-to-RepositoryFactory" style="stroke:#181818;stroke-width:1.0;stroke-dasharray:7.0,7.0;"/><polygon fill="#181818" points="1321.11,1261.7745,1328.7761,1255.5914,1323.3916,1257.3254,1321.6576,1251.9409,1321.11,1261.7745" style="stroke:#181818;stroke-width:1.0;"/><text fill="#000000" font-family="sans-serif" font-size="20" lengthAdjust="spacing" textLength="158" x="1386" y="950.1563">figureRepository()</text><text fill="#000000" font-family="sans-serif" font-size="20" lengthAdjust="spacing" textLength="186" x="1372" y="975.3125">categoryRepository()</text></g><!--link PersistenceContext to JpaRepositoryFactory--><g id="link_PersistenceContext_JpaRepositoryFactory"><path codeLine="108" d="M1014.78,592.9245 C869.6,624.3245 662.77,669.0545 519.76,699.9745 " fill="none" id="PersistenceContext-to-JpaRepositoryFactory" style="stroke:#181818;stroke-width:1.0;stroke-dasharray:7.0,7.0;"/><polygon fill="#181818" points="514.7,701.0745,524.3424,703.0807,519.5869,700.0171,522.6505,695.2617,514.7,701.0745" style="stroke:#181818;stroke-width:1.0;"/></g><!--link PersistenceContext to InMemoryRepositoryFactory--><g id="link_PersistenceContext_InMemoryRepositoryFactory"><path codeLine="109" d="M1170.25,592.9345 C1140.33,663.3245 1075.11,816.7045 1040.18,898.8645 " fill="none" id="PersistenceContext-to-InMemoryRepositoryFactory" style="stroke:#181818;stroke-width:1.0;stroke-dasharray:7.0,7.0;"/><polygon fill="#181818" points="1038.13,903.6845,1045.3342,896.969,1040.0875,899.0836,1037.9728,893.8369,1038.13,903.6845" style="stroke:#181818;stroke-width:1.0;"/></g><!--link JpaFigureRepository to FigureRepository--><g id="link_JpaFigureRepository_FigureRepository"><path codeLine="114" d="M145.04,980.3145 C188.67,1050.1945 323.01,1248.6845 492,1337.8945 C575.57,1382.0145 832.33,1411.6745 985.76,1425.9845 " fill="none" id="JpaFigureRepository-to-FigureRepository" style="stroke:#181818;stroke-width:1.0;"/><polygon fill="none" points="986.5,1419.0245,1005.78,1427.8145,985.22,1432.9645,986.5,1419.0245" style="stroke:#181818;stroke-width:1.0;"/></g><!--link JpaCategoryRepository to CategoryRepository--><g id="link_JpaCategoryRepository_CategoryRepository"><path codeLine="117" d="M410.02,980.1645 C436.21,1018.9945 491.69,1094.5445 555,1140.8945 C775.5,1302.3045 862.03,1298.2245 1126,1368.8945 C1156.28,1377.0045 1188.61,1385.6245 1219.67,1393.8845 " fill="none" id="JpaCategoryRepository-to-CategoryRepository" style="stroke:#181818;stroke-width:1.0;"/><polygon fill="none" points="1221.81,1387.2145,1239.34,1399.1145,1218.21,1400.7445,1221.81,1387.2145" style="stroke:#181818;stroke-width:1.0;"/></g><!--link JpaRepositoryFactory to RepositoryFactory--><g id="link_JpaRepositoryFactory_RepositoryFactory"><path codeLine="120" d="M514.7,738.8645 C728.63,744.1645 1094.08,765.9545 1192,851.8945 C1304.69,950.7945 1310.16,1145.1445 1305.08,1241.6745 " fill="none" id="JpaRepositoryFactory-to-RepositoryFactory" style="stroke:#181818;stroke-width:1.0;stroke-dasharray:7.0,7.0;"/><polygon fill="none" points="1312.06,1242.3045,1303.79,1261.8145,1298.09,1241.4145,1312.06,1242.3045" style="stroke:#181818;stroke-width:1.0;"/></g><!--link JpaRepositoryFactory to JpaFigureRepository--><g id="link_JpaRepositoryFactory_JpaFigureRepository"><path codeLine="121" d="M304.15,786.9445 C259.39,829.7345 196.31,890.0245 159.63,925.0745 " fill="none" id="JpaRepositoryFactory-to-JpaFigureRepository" style="stroke:#181818;stroke-width:1.0;stroke-dasharray:7.0,7.0;"/><polygon fill="#181818" points="155.73,928.8045,164.9987,925.4741,159.3432,925.3484,159.4689,919.693,155.73,928.8045" style="stroke:#181818;stroke-width:1.0;"/></g><!--link JpaRepositoryFactory to JpaCategoryRepository--><g id="link_JpaRepositoryFactory_JpaCategoryRepository"><path codeLine="122" d="M364.72,786.9445 C372.15,829.2145 382.59,888.5645 388.79,923.7845 " fill="none" id="JpaRepositoryFactory-to-JpaCategoryRepository" style="stroke:#181818;stroke-width:1.0;stroke-dasharray:7.0,7.0;"/><polygon fill="#181818" points="389.67,928.8045,392.0419,919.2456,388.7994,923.8809,384.1641,920.6384,389.67,928.8045" style="stroke:#181818;stroke-width:1.0;"/></g><!--link InMemoryFigureRepository to FigureRepository--><g id="link_InMemoryFigureRepository_FigureRepository"><path codeLine="127" d="M735.62,1117.0945 C800.56,1173.1445 960.11,1310.8445 1046.75,1385.6145 " fill="none" id="InMemoryFigureRepository-to-FigureRepository" style="stroke:#181818;stroke-width:1.0;stroke-dasharray:7.0,7.0;"/><polygon fill="none" points="1051.47,1380.4445,1062.03,1398.8145,1042.32,1391.0445,1051.47,1380.4445" style="stroke:#181818;stroke-width:1.0;"/></g><!--link InMemoryCategoryRepository to CategoryRepository--><g id="link_InMemoryCategoryRepository_CategoryRepository"><path codeLine="130" d="M1023.18,1117.0945 C1017.14,1165.6445 1011.16,1274.3445 1066,1337.8945 C1077.28,1350.9645 1148.24,1373.7245 1219.64,1394.0245 " fill="none" id="InMemoryCategoryRepository-to-CategoryRepository" style="stroke:#181818;stroke-width:1.0;stroke-dasharray:7.0,7.0;"/><polygon fill="none" points="1221.88,1387.3845,1239.24,1399.5445,1218.09,1400.8645,1221.88,1387.3845" style="stroke:#181818;stroke-width:1.0;"/></g><!--link InMemoryRepositoryFactory to RepositoryFactory--><g id="link_InMemoryRepositoryFactory_RepositoryFactory"><path codeLine="133" d="M1118.94,1005.0145 C1145.81,1021.6145 1173.1,1042.0645 1194,1065.8945 C1239.29,1117.5545 1268.54,1191.7845 1284.6,1242.4945 " fill="none" id="InMemoryRepositoryFactory-to-RepositoryFactory" style="stroke:#181818;stroke-width:1.0;stroke-dasharray:7.0,7.0;"/><polygon fill="none" points="1291.31,1240.4945,1290.4,1261.6645,1277.91,1244.5445,1291.31,1240.4945" style="stroke:#181818;stroke-width:1.0;"/></g><!--link InMemoryRepositoryFactory to InMemoryFigureRepository--><g id="link_InMemoryRepositoryFactory_InMemoryFigureRepository"><path codeLine="134" d="M903.33,1004.8945 C857.5,1024.8545 806.47,1047.0745 767.92,1063.8645 " fill="none" id="InMemoryRepositoryFactory-to-InMemoryFigureRepository" style="stroke:#181818;stroke-width:1.0;stroke-dasharray:7.0,7.0;"/><polygon fill="#181818" points="763.28,1065.8845,773.1286,1065.9531,767.8631,1063.8857,769.9305,1058.6201,763.28,1065.8845" style="stroke:#181818;stroke-width:1.0;"/></g><!--link InMemoryRepositoryFactory to InMemoryCategoryRepository--><g id="link_InMemoryRepositoryFactory_InMemoryCategoryRepository"><path codeLine="135" d="M1020.67,1004.8945 C1022.05,1023.5545 1023.58,1044.1945 1024.79,1060.5245 " fill="none" id="InMemoryRepositoryFactory-to-InMemoryCategoryRepository" style="stroke:#181818;stroke-width:1.0;stroke-dasharray:7.0,7.0;"/><polygon fill="#181818" points="1025.18,1065.8845,1028.5003,1056.6122,1024.8085,1060.8983,1020.5224,1057.2066,1025.18,1065.8845" style="stroke:#181818;stroke-width:1.0;"/></g><!--link FigureRepository to Figure--><g id="link_FigureRepository_Figure"><path codeLine="140" d="M1088.16,1474.9645 C1073.37,1507.5145 1051.49,1555.6845 1033.61,1595.0345 " fill="none" id="FigureRepository-to-Figure" style="stroke:#181818;stroke-width:1.0;stroke-dasharray:7.0,7.0;"/><polygon fill="#181818" points="1031.45,1599.7845,1038.8157,1593.2464,1033.519,1595.2327,1031.5328,1589.936,1031.45,1599.7845" style="stroke:#181818;stroke-width:1.0;"/></g><!--link CategoryRepository to Category--><g id="link_CategoryRepository_Category"><path codeLine="143" d="M1409.31,1475.2045 C1454.92,1531.9245 1538.27,1645.1045 1576,1756.8945 C1581.51,1773.2245 1584.01,1791.9945 1585.05,1808.4445 " fill="none" id="CategoryRepository-to-Category" style="stroke:#181818;stroke-width:1.0;stroke-dasharray:7.0,7.0;"/><polygon fill="#181818" points="1585.32,1813.4745,1588.8263,1804.2709,1585.049,1808.4819,1580.838,1804.7046,1585.32,1813.4745" style="stroke:#181818;stroke-width:1.0;"/></g><!--link RepositoryFactory to FigureRepository--><g id="link_RepositoryFactory_FigureRepository"><path codeLine="146" d="M1246.46,1337.9645 C1220.56,1355.8945 1189.42,1377.4445 1162.97,1395.7645 " fill="none" id="RepositoryFactory-to-FigureRepository" style="stroke:#181818;stroke-width:1.0;stroke-dasharray:7.0,7.0;"/><polygon fill="#181818" points="1158.76,1398.6745,1168.4352,1396.8334,1162.8689,1395.8255,1163.8768,1390.2592,1158.76,1398.6745" style="stroke:#181818;stroke-width:1.0;"/></g><!--link RepositoryFactory to CategoryRepository--><g id="link_RepositoryFactory_CategoryRepository"><path codeLine="147" d="M1321.52,1338.1445 C1331.58,1355.5545 1343.6,1376.3545 1353.95,1394.2745 " fill="none" id="RepositoryFactory-to-CategoryRepository" style="stroke:#181818;stroke-width:1.0;stroke-dasharray:7.0,7.0;"/><polygon fill="#181818" points="1356.55,1398.7645,1355.5126,1388.9705,1354.0493,1394.4348,1348.585,1392.9715,1356.55,1398.7645" style="stroke:#181818;stroke-width:1.0;"/></g><!--link Figure to DSLDescription--><g id="link_Figure_DSLDescription"><path codeLine="152" d="M1074.81,1726.9345 C1085.99,1736.8845 1097.36,1747.1145 1108,1756.8945 C1126.56,1773.9545 1146.71,1793.1545 1163.88,1809.7445 " fill="none" id="Figure-to-DSLDescription" style="stroke:#181818;stroke-width:1.0;"/><polygon fill="#181818" points="1167.73,1813.4545,1164.0467,1804.3204,1164.1379,1809.9765,1158.4818,1810.0677,1167.73,1813.4545" style="stroke:#181818;stroke-width:1.0;"/><text fill="#000000" font-family="sans-serif" font-size="20" lengthAdjust="spacing" textLength="136" x="1136" y="1778.6563">DSLDescription</text><text fill="#000000" font-family="sans-serif" font-size="20" lengthAdjust="spacing" textLength="11" x="1150.0277" y="1801.4041">1</text></g><!--link Figure to Keyword--><g id="link_Figure_Keyword"><path codeLine="153" d="M1214.61,1727.0145 C1237.44,1736.0545 1259.99,1746.0245 1281,1756.8945 C1309.47,1771.6245 1338.49,1792.3645 1361.68,1810.6145 " fill="none" id="Figure-to-Keyword" style="stroke:#181818;stroke-width:1.0;"/><polygon fill="#181818" points="1365.64,1813.7545,1361.068,1805.0312,1361.7204,1810.6503,1356.1012,1811.3026,1365.64,1813.7545" style="stroke:#181818;stroke-width:1.0;"/><text fill="#000000" font-family="sans-serif" font-size="20" lengthAdjust="spacing" textLength="85" x="1323" y="1778.6563">keywords</text><text fill="#000000" font-family="sans-serif" font-size="20" lengthAdjust="spacing" textLength="31" x="1325.2592" y="1801.433">1..*</text></g><!--link Figure to Code--><g id="link_Figure_Code"><path codeLine="154" d="M868.02,1727.0145 C807.69,1755.0045 738.42,1787.1445 685.56,1811.6645 " fill="none" id="Figure-to-Code" style="stroke:#181818;stroke-width:1.0;"/><polygon fill="#181818" points="680.82,1813.8645,690.6676,1813.7071,685.356,1811.7611,687.3021,1806.4495,680.82,1813.8645" style="stroke:#181818;stroke-width:1.0;"/><text fill="#000000" font-family="sans-serif" font-size="20" lengthAdjust="spacing" textLength="43" x="803" y="1778.6563">code</text><text fill="#000000" font-family="sans-serif" font-size="20" lengthAdjust="spacing" textLength="11" x="681.6648" y="1801.5606">1</text></g><!--link Figure to Version--><g id="link_Figure_Version"><path codeLine="155" d="M935.51,1727.0145 C905.94,1754.4445 872.09,1785.8645 845.87,1810.1945 " fill="none" id="Figure-to-Version" style="stroke:#181818;stroke-width:1.0;"/><polygon fill="#181818" points="842.06,1813.7245,851.375,1810.5261,845.7219,1810.3201,845.9279,1804.667,842.06,1813.7245" style="stroke:#181818;stroke-width:1.0;"/><text fill="#000000" font-family="sans-serif" font-size="20" lengthAdjust="spacing" textLength="62" x="903" y="1778.6563">version</text><text fill="#000000" font-family="sans-serif" font-size="20" lengthAdjust="spacing" textLength="11" x="836.568" y="1801.3983">1</text></g><!--link Figure to Description--><g id="link_Figure_Description"><path codeLine="156" d="M1003,1727.0145 C1003,1753.8845 1003,1784.5745 1003,1808.6845 " fill="none" id="Figure-to-Description" style="stroke:#181818;stroke-width:1.0;"/><polygon fill="#181818" points="1003,1813.7245,1007,1804.7245,1003,1808.7245,999,1804.7245,1003,1813.7245" style="stroke:#181818;stroke-width:1.0;"/><text fill="#000000" font-family="sans-serif" font-size="20" lengthAdjust="spacing" textLength="95" x="1004" y="1778.6563">description</text><text fill="#000000" font-family="sans-serif" font-size="20" lengthAdjust="spacing" textLength="11" x="991.1234" y="1801.3983">1</text></g><!--link Figure to Category--><g id="link_Figure_Category"><path codeLine="157" d="M1326.1,1726.9445 C1357.18,1735.8245 1387.93,1745.7845 1417,1756.8945 C1454.05,1771.0545 1492.85,1792.2745 1523.81,1810.9845 " fill="none" id="Figure-to-Category" style="stroke:#181818;stroke-width:1.0;"/><polygon fill="#181818" points="1528.32,1813.7245,1522.712,1805.6282,1524.049,1811.1248,1518.5524,1812.4618,1528.32,1813.7245" style="stroke:#181818;stroke-width:1.0;"/><text fill="#000000" font-family="sans-serif" font-size="20" lengthAdjust="spacing" textLength="92" x="1475" y="1778.6563">categories</text><text fill="#000000" font-family="sans-serif" font-size="20" lengthAdjust="spacing" textLength="31" x="1491.183" y="1801.4634">1..*</text></g><!--link Figure to ShowDesigner--><g id="link_Figure_ShowDesigner"><path codeLine="158" d="M750.89,1726.9645 C716.81,1736.4345 682.44,1746.5245 650,1756.8945 C595.3,1774.3745 535.04,1797.1345 487.61,1815.8745 " fill="none" id="Figure-to-ShowDesigner" style="stroke:#181818;stroke-width:1.0;"/><polygon fill="#181818" points="482.77,1817.7945,492.6104,1818.2024,487.4192,1815.9548,489.6668,1810.7636,482.77,1817.7945" style="stroke:#181818;stroke-width:1.0;"/><text fill="#000000" font-family="sans-serif" font-size="20" lengthAdjust="spacing" textLength="94" x="651" y="1778.6563">created by</text><text fill="#000000" font-family="sans-serif" font-size="20" lengthAdjust="spacing" textLength="11" x="490.4534" y="1809.399">1</text></g><!--link Figure to Exclusivity--><g id="link_Figure_Exclusivity"><path codeLine="159" d="M625.21,1724.0545 C575.13,1733.9345 524.66,1744.9145 477,1756.8945 C398.49,1776.6245 379.24,1784.0045 304,1813.8945 C299.87,1815.5345 295.64,1817.2945 291.4,1819.1045 " fill="none" id="Figure-to-Exclusivity" style="stroke:#181818;stroke-width:1.0;"/><polygon fill="#181818" points="286.79,1821.0945,296.6384,1821.1889,291.3783,1819.1077,293.4595,1813.8476,286.79,1821.0945" style="stroke:#181818;stroke-width:1.0;"/><text fill="#000000" font-family="sans-serif" font-size="20" lengthAdjust="spacing" textLength="87" x="478" y="1778.6563">exclusivity</text><text fill="#000000" font-family="sans-serif" font-size="20" lengthAdjust="spacing" textLength="34" x="279.5644" y="1804.6945">0..1</text></g><!--link AddFigureToCatalogueUI to AddFigureToCatalogueController--><g id="link_AddFigureToCatalogueUI_AddFigureToCatalogueController"><path codeLine="164" d="M1764,178.1545 C1764,205.5145 1764,237.6345 1764,265.5345 " fill="none" id="AddFigureToCatalogueUI-to-AddFigureToCatalogueController" style="stroke:#181818;stroke-width:1.0;stroke-dasharray:7.0,7.0;"/><polygon fill="#181818" points="1764,270.6945,1768,261.6945,1764,265.6945,1760,261.6945,1764,270.6945" style="stroke:#181818;stroke-width:1.0;"/></g><!--link AddFigureToCatalogueController to PersistenceContext--><g id="link_AddFigureToCatalogueController_PersistenceContext"><path codeLine="169" d="M1578.37,346.0045 C1488.91,357.6545 1382.89,381.4945 1298,429.8945 C1262.95,449.8745 1232.93,484.7345 1212.82,512.4145 " fill="none" id="AddFigureToCatalogueController-to-PersistenceContext" style="stroke:#181818;stroke-width:1.0;stroke-dasharray:7.0,7.0;"/><polygon fill="#181818" points="1209.68,516.7945,1218.171,511.8043,1212.5902,512.7288,1211.6658,507.1479,1209.68,516.7945" style="stroke:#181818;stroke-width:1.0;"/><text fill="#000000" font-family="sans-serif" font-size="20" lengthAdjust="spacing" textLength="204" x="1299" y="451.6563">getRepositoryFactory()</text></g><!--link AddFigureToCatalogueController to RepositoryFactory--><g id="link_AddFigureToCatalogueController_RepositoryFactory"><path codeLine="170" d="M1721.39,398.0145 C1663.93,486.6345 1564.49,655.8245 1527,816.8945 C1524.28,828.5845 1519.39,834.6145 1527,843.8945 C1538.49,857.9145 1555.51,837.8745 1567,851.8945 C1610.11,904.4845 1591.5,941.4645 1567,1004.8945 C1524.82,1114.0845 1421.16,1207.7545 1356.11,1258.4645 " fill="none" id="AddFigureToCatalogueController-to-RepositoryFactory" style="stroke:#181818;stroke-width:1.0;stroke-dasharray:7.0,7.0;"/><polygon fill="#181818" points="1351.88,1261.7445,1361.4423,1259.386,1355.8298,1258.6788,1356.5371,1253.0663,1351.88,1261.7445" style="stroke:#181818;stroke-width:1.0;"/><text fill="#000000" font-family="sans-serif" font-size="20" lengthAdjust="spacing" textLength="192" x="1528" y="838.6563">getFigureRepository()</text></g><!--link AddFigureToCatalogueController to RepositoryFactory--><g id="link_AddFigureToCatalogueController_RepositoryFactory"><path codeLine="171" d="M1764,398.0245 C1764,441.7145 1764,501.3545 1764,553.8945 C1764,553.8945 1764,553.8945 1764,1092.3945 C1764,1208.6045 1641.01,1259.8945 1521.68,1282.3045 " fill="none" id="AddFigureToCatalogueController-to-RepositoryFactory-1" style="stroke:#181818;stroke-width:1.0;stroke-dasharray:7.0,7.0;"/><polygon fill="#181818" points="1516.72,1283.2145,1526.2921,1285.5327,1521.6387,1282.3163,1524.855,1277.6629,1516.72,1283.2145" style="stroke:#181818;stroke-width:1.0;"/><text fill="#000000" font-family="sans-serif" font-size="20" lengthAdjust="spacing" textLength="218" x="1765" y="838.6563">getCategoryRepository()</text></g><!--link AddFigureToCatalogueController to FigureRepository--><g id="link_AddFigureToCatalogueController_FigureRepository"><path codeLine="172" d="M1897.94,397.9145 C1954.27,434.2045 2007,486.2345 2007,553.8945 C2007,553.8945 2007,553.8945 2007,1300.8945 C2007,1388.7945 1307.87,1380.1245 1222,1398.8945 C1217.81,1399.8145 1213.56,1400.8145 1209.28,1401.8745 " fill="none" id="AddFigureToCatalogueController-to-FigureRepository" style="stroke:#181818;stroke-width:1.0;stroke-dasharray:7.0,7.0;"/><polygon fill="#181818" points="1204.24,1403.1545,1213.9507,1404.7986,1209.0839,1401.9151,1211.9675,1397.0483,1204.24,1403.1545" style="stroke:#181818;stroke-width:1.0;"/><text fill="#000000" font-family="sans-serif" font-size="20" lengthAdjust="spacing" textLength="104" x="2008" y="962.6563">save(figure)</text></g><!--link AddFigureToCatalogueController to CategoryRepository--><g id="link_AddFigureToCatalogueController_CategoryRepository"><path codeLine="173" d="M1949.61,359.8445 C2061.68,386.2245 2183,440.8845 2183,553.8945 C2183,553.8945 2183,553.8945 2183,1300.8945 C2183,1374.0945 2103.67,1349.8145 2033,1368.8945 C1861.26,1415.2745 1656.27,1430.0245 1521.92,1434.4645 " fill="none" id="AddFigureToCatalogueController-to-CategoryRepository" style="stroke:#181818;stroke-width:1.0;stroke-dasharray:7.0,7.0;"/><polygon fill="#181818" points="1516.77,1434.6245,1525.9018,1438.3138,1521.7671,1434.4532,1525.6277,1430.3185,1516.77,1434.6245" style="stroke:#181818;stroke-width:1.0;"/><text fill="#000000" font-family="sans-serif" font-size="20" lengthAdjust="spacing" textLength="66" x="2184" y="962.6563">findAll()</text></g><!--SRC=[hLTBRnen4BxpAonw2BHabVQuYbP294ZqeLQbvDIBsJLR1sElraiIskI_P_Pjy7YpKUeBClFDDo_RCwktN2OqfJkXmYsBICGsT2-okPBPalzbvDF5GBECQ9Q3CfKIgIGR318QRcdCoF07IpNN6PCXRCYxgsAHVmC2AnHKQs8WPi3A7h9AdAyF96RPJvOepO7yCATX_ZCQ-yJwiz1v6ZmPnfEMskExH7Yt2SMT-9nGYz1munm5ZCR7VYwapYZOwdBlsEQSn_kKjTZAv2biHZCMWnW3TiRBvOxj08u7lP3V2cbtv4xK6yElUVlaeCPs9CBCmvNQKIxDe0jG8pVKBL2-E1p3T4FXo7QbfWdSzYfFWVrle_c4cNBaeRMawHqRRGeKq9VmRafdkbhI3PVHL8ZSuGMeqRLWbxLQSCfU_PoLjiaqZbCM0zYeL2MwlBoM6SyEGM3UvL8u2bN49kGkFwnAJk19qM7AawpSQ75bxhViSA_II4z8M7h5cHx_Vye9OG-Xs6j-1qwFxGCu0tu8weQAFIFVrxSipEhGZd0tfGTze8PFlU3Bhw_K-5B6sGTwtGPlbGw0PTNhOu7MlH4wrPT_r3r4m6F9KfJY283Gc3TyjS2Vj6aKbIVYbmAFg53ndgqMmBPQ1C5HNw48ihvT1ao3KxFcc4nbj6G2iZWQ8yzEthvI9GHB-plNwe2JxUOLplfahPHWL1fu0LsWzRhZSXS1d1ajk2eMqfJF0_9G216PvmNsK-cJpScJDXh_bY7oM7RHOest2-ziLn0dDWzK0MFDk8aO5Pu_1jQRtP8XJwz9XubpGgHfD9HsBp8PRQa7wp5mj6A7He35-g82vlMPSnYf8dBs_oOg9wA8ov7xZb718aOm1RMp2kw9oU96w-4iHvTMu4p4ArJH4bdnkMk1rC2hQt3I7p1rDDDUc-cAeYElU7XeHd0ece5oKZmUQqvYXeiPaE77uKa7za_sjeRdlH_MJTXlfWwCEPykV9BFC9YqcYdyUhn1VJCTYrxqgiw5Run06AtPaW6RCa17P7smi1UU1t1ZZF3DWGeIlLfKINPqw2Rf3dbUmUx-2KRCZTEOqN4xZHgut3ZIRdp7nsbVIlkS5enpgsk-aN3cQhazAArxxnzzX_IbGUw_ttvx30RF]--></g></svg>