<?xml version="1.0" encoding="UTF-8" standalone="no"?><svg xmlns="http://www.w3.org/2000/svg" xmlns:xlink="http://www.w3.org/1999/xlink" contentStyleType="text/css" height="1267px" preserveAspectRatio="none" style="width:6984px;height:1267px;background:#FFFFFF;" version="1.1" viewBox="0 0 6984 1267" width="6984px" zoomAndPan="magnify"><defs/><g><!--cluster Persistence --><g id="cluster_Persistence "><path d="M2656.5,716.69 L2774.5,716.69 A3.75,3.75 0 0 1 2777,719.19 L2784,747.8463 L3088.5,747.8463 A2.5,2.5 0 0 1 3091,750.3463 L3091,850.19 A2.5,2.5 0 0 1 3088.5,852.69 L2656.5,852.69 A2.5,2.5 0 0 1 2654,850.19 L2654,719.19 A2.5,2.5 0 0 1 2656.5,716.69 " fill="#DDDDDD" style="stroke:#000000;stroke-width:1.5;"/><line style="stroke:#000000;stroke-width:1.5;" x1="2654" x2="2784" y1="747.8463" y2="747.8463"/><text fill="#000000" font-family="sans-serif" font-size="20" font-weight="bold" lengthAdjust="spacing" textLength="111" x="2658" y="739.4517">Persistence</text></g><!--cluster persistence.impl.jpa--><g id="cluster_persistence.impl.jpa"><path d="M3126.5,83.69 L3316.5,83.69 A3.75,3.75 0 0 1 3319,86.19 L3326,114.8463 L4038,114.8463 A2.5,2.5 0 0 1 4040.5,117.3463 L4040.5,365.19 A2.5,2.5 0 0 1 4038,367.69 L3126.5,367.69 A2.5,2.5 0 0 1 3124,365.19 L3124,86.19 A2.5,2.5 0 0 1 3126.5,83.69 " fill="#DDDDDD" style="stroke:#000000;stroke-width:1.5;"/><line style="stroke:#000000;stroke-width:1.5;" x1="3124" x2="3326" y1="114.8463" y2="114.8463"/><text fill="#000000" font-family="sans-serif" font-size="20" font-weight="bold" lengthAdjust="spacing" textLength="189" x="3128" y="106.4517">persistence.impl.jpa</text></g><!--cluster persistence.impl.inmemory--><g id="cluster_persistence.impl.inmemory"><path d="M3729.5,391.69 L3984.5,391.69 A3.75,3.75 0 0 1 3987,394.19 L3994,422.8463 L4436.5,422.8463 A2.5,2.5 0 0 1 4439,425.3463 L4439,673.19 A2.5,2.5 0 0 1 4436.5,675.69 L3729.5,675.69 A2.5,2.5 0 0 1 3727,673.19 L3727,394.19 A2.5,2.5 0 0 1 3729.5,391.69 " fill="#DDDDDD" style="stroke:#000000;stroke-width:1.5;"/><line style="stroke:#000000;stroke-width:1.5;" x1="3727" x2="3994" y1="422.8463" y2="422.8463"/><text fill="#000000" font-family="sans-serif" font-size="20" font-weight="bold" lengthAdjust="spacing" textLength="254" x="3731" y="414.4517">persistence.impl.inmemory</text></g><!--cluster Domain--><g id="cluster_Domain"><path d="M4474.5,148.69 L4546.5,148.69 A3.75,3.75 0 0 1 4549,151.19 L4556,179.8463 L6974.5,179.8463 A2.5,2.5 0 0 1 6977,182.3463 L6977,1096.19 A2.5,2.5 0 0 1 6974.5,1098.69 L4474.5,1098.69 A2.5,2.5 0 0 1 4472,1096.19 L4472,151.19 A2.5,2.5 0 0 1 4474.5,148.69 " fill="#DDDDDD" style="stroke:#000000;stroke-width:1.5;"/><line style="stroke:#000000;stroke-width:1.5;" x1="4472" x2="4556" y1="179.8463" y2="179.8463"/><text fill="#000000" font-family="sans-serif" font-size="20" font-weight="bold" lengthAdjust="spacing" textLength="71" x="4476" y="171.4517">Domain</text></g><!--cluster Repository --><g id="cluster_Repository "><path d="M4498.5,499.69 L4608.5,499.69 A3.75,3.75 0 0 1 4611,502.19 L4618,530.8463 L5308.5,530.8463 A2.5,2.5 0 0 1 5311,533.3463 L5311,855.19 A2.5,2.5 0 0 1 5308.5,857.69 L4498.5,857.69 A2.5,2.5 0 0 1 4496,855.19 L4496,502.19 A2.5,2.5 0 0 1 4498.5,499.69 " fill="#DDDDDD" style="stroke:#000000;stroke-width:1.5;"/><line style="stroke:#000000;stroke-width:1.5;" x1="4496" x2="4618" y1="530.8463" y2="530.8463"/><text fill="#000000" font-family="sans-serif" font-size="20" font-weight="bold" lengthAdjust="spacing" textLength="103" x="4500" y="522.4517">Repository</text></g><!--cluster UI--><g id="cluster_UI"><path d="M8.5,909.69 L28.5,909.69 A3.75,3.75 0 0 1 31,912.19 L38,940.8463 L1151.5,940.8463 A2.5,2.5 0 0 1 1154,943.3463 L1154,1145.19 A2.5,2.5 0 0 1 1151.5,1147.69 L8.5,1147.69 A2.5,2.5 0 0 1 6,1145.19 L6,912.19 A2.5,2.5 0 0 1 8.5,909.69 " fill="#DDDDDD" style="stroke:#000000;stroke-width:1.5;"/><line style="stroke:#000000;stroke-width:1.5;" x1="6" x2="38" y1="940.8463" y2="940.8463"/><text fill="#000000" font-family="sans-serif" font-size="20" font-weight="bold" lengthAdjust="spacing" textLength="19" x="10" y="932.4517">UI</text></g><!--cluster Controller--><g id="cluster_Controller"><path d="M1189.5,909.69 L1284.5,909.69 A3.75,3.75 0 0 1 1287,912.19 L1294,940.8463 L2413.5,940.8463 A2.5,2.5 0 0 1 2416,943.3463 L2416,1145.19 A2.5,2.5 0 0 1 2413.5,1147.69 L1189.5,1147.69 A2.5,2.5 0 0 1 1187,1145.19 L1187,912.19 A2.5,2.5 0 0 1 1189.5,909.69 " fill="#DDDDDD" style="stroke:#000000;stroke-width:1.5;"/><line style="stroke:#000000;stroke-width:1.5;" x1="1187" x2="1294" y1="940.8463" y2="940.8463"/><text fill="#000000" font-family="sans-serif" font-size="20" font-weight="bold" lengthAdjust="spacing" textLength="94" x="1191" y="932.4517">Controller</text></g><!--class PersistenceContext--><g id="elem_PersistenceContext"><rect codeLine="5" fill="#F1F1F1" height="76.3125" id="PersistenceContext" rx="2.5" ry="2.5" style="stroke:#181818;stroke-width:0.5;" width="405" x="2670" y="760.69"/><ellipse cx="2783" cy="778.2681" fill="#ADD1B2" rx="12" ry="12" style="stroke:#181818;stroke-width:1.0;"/><path d="M2785.1406,773.19 Q2785.3281,772.94 2785.5469,772.815 Q2785.7656,772.6744 2786.0156,772.6744 Q2786.4531,772.6744 2786.7344,772.9869 Q2787.0156,773.2838 2787.0156,774.0025 L2787.0156,775.7056 Q2787.0156,776.4244 2786.7344,776.7369 Q2786.4531,777.0494 2786.0156,777.0494 Q2785.625,777.0494 2785.375,776.815 Q2785.125,776.5963 2785.0156,775.9869 Q2784.9531,775.565 2784.7344,775.3463 Q2784.3438,774.9088 2783.625,774.6431 Q2782.9063,774.3775 2782.1875,774.3775 Q2781.2813,774.3775 2780.5313,774.7681 Q2779.7813,775.1588 2779.2031,776.0494 Q2778.625,776.9244 2778.625,778.1275 L2778.625,779.4244 Q2778.625,780.8775 2779.6719,781.8463 Q2780.7344,782.815 2782.5938,782.815 Q2783.7031,782.815 2784.4844,782.5025 Q2784.9219,782.3306 2785.4375,781.815 Q2785.75,781.5025 2785.9219,781.4088 Q2786.0938,781.315 2786.3281,781.315 Q2786.7188,781.315 2787.0156,781.6275 Q2787.3281,781.9244 2787.3281,782.3306 Q2787.3281,782.7369 2786.9219,783.2056 Q2786.3281,783.8931 2785.3906,784.2838 Q2784.125,784.815 2782.6094,784.815 Q2780.8281,784.815 2779.4063,784.0806 Q2778.25,783.4869 2777.4375,782.2213 Q2776.625,780.9556 2776.625,779.4713 L2776.625,778.1119 Q2776.625,776.5494 2777.3438,775.2056 Q2778.0781,773.8463 2779.3594,773.1119 Q2780.6563,772.3775 2782.1094,772.3775 Q2782.9688,772.3775 2783.7188,772.5806 Q2784.4844,772.7838 2785.1406,773.19 Z " fill="#000000"/><text fill="#000000" font-family="sans-serif" font-size="20" lengthAdjust="spacing" textLength="170" x="2805" y="786.4517">PersistenceContext</text><line style="stroke:#181818;stroke-width:0.5;" x1="2671" x2="3074" y1="795.8463" y2="795.8463"/><line style="stroke:#181818;stroke-width:0.5;" x1="2671" x2="3074" y1="803.8463" y2="803.8463"/><ellipse cx="2681" cy="821.9244" fill="#84BE84" rx="3" ry="3" style="stroke:#038048;stroke-width:1.0;"/><text fill="#000000" font-family="sans-serif" font-size="20" lengthAdjust="spacing" textLength="378" x="2691" y="828.608">getRepositoryFactory(): RepositoryFactory</text></g><!--class JpaRepositoryFactory--><g id="elem_JpaRepositoryFactory"><rect codeLine="11" fill="#F1F1F1" height="101.4688" id="JpaRepositoryFactory" rx="2.5" ry="2.5" style="stroke:#181818;stroke-width:0.5;" width="317" x="3140" y="250.19"/><ellipse cx="3197" cy="267.7681" fill="#ADD1B2" rx="12" ry="12" style="stroke:#181818;stroke-width:1.0;"/><path d="M3199.1406,262.69 Q3199.3281,262.44 3199.5469,262.315 Q3199.7656,262.1744 3200.0156,262.1744 Q3200.4531,262.1744 3200.7344,262.4869 Q3201.0156,262.7838 3201.0156,263.5025 L3201.0156,265.2056 Q3201.0156,265.9244 3200.7344,266.2369 Q3200.4531,266.5494 3200.0156,266.5494 Q3199.625,266.5494 3199.375,266.315 Q3199.125,266.0963 3199.0156,265.4869 Q3198.9531,265.065 3198.7344,264.8463 Q3198.3438,264.4088 3197.625,264.1431 Q3196.9063,263.8775 3196.1875,263.8775 Q3195.2813,263.8775 3194.5313,264.2681 Q3193.7813,264.6588 3193.2031,265.5494 Q3192.625,266.4244 3192.625,267.6275 L3192.625,268.9244 Q3192.625,270.3775 3193.6719,271.3463 Q3194.7344,272.315 3196.5938,272.315 Q3197.7031,272.315 3198.4844,272.0025 Q3198.9219,271.8306 3199.4375,271.315 Q3199.75,271.0025 3199.9219,270.9088 Q3200.0938,270.815 3200.3281,270.815 Q3200.7188,270.815 3201.0156,271.1275 Q3201.3281,271.4244 3201.3281,271.8306 Q3201.3281,272.2369 3200.9219,272.7056 Q3200.3281,273.3931 3199.3906,273.7838 Q3198.125,274.315 3196.6094,274.315 Q3194.8281,274.315 3193.4063,273.5806 Q3192.25,272.9869 3191.4375,271.7213 Q3190.625,270.4556 3190.625,268.9713 L3190.625,267.6119 Q3190.625,266.0494 3191.3438,264.7056 Q3192.0781,263.3463 3193.3594,262.6119 Q3194.6563,261.8775 3196.1094,261.8775 Q3196.9688,261.8775 3197.7188,262.0806 Q3198.4844,262.2838 3199.1406,262.69 Z " fill="#000000"/><text fill="#000000" font-family="sans-serif" font-size="20" lengthAdjust="spacing" textLength="194" x="3219" y="275.9517">JpaRepositoryFactory</text><line style="stroke:#181818;stroke-width:0.5;" x1="3141" x2="3456" y1="285.3463" y2="285.3463"/><line style="stroke:#181818;stroke-width:0.5;" x1="3141" x2="3456" y1="293.3463" y2="293.3463"/><rect fill="#F24D5C" height="6" style="stroke:#C82930;stroke-width:1.0;" width="6" x="3148" y="308.4244"/><text fill="#000000" font-family="sans-serif" font-size="20" lengthAdjust="spacing" textLength="208" x="3161" y="318.108">JpaRepositoryFactory()</text><ellipse cx="3151" cy="336.5806" fill="#84BE84" rx="3" ry="3" style="stroke:#038048;stroke-width:1.0;"/><text fill="#000000" font-family="sans-serif" font-size="20" lengthAdjust="spacing" textLength="290" x="3161" y="343.2642">getInstance(): RepositoryFactory</text></g><!--class JpaFigureRepository--><g id="elem_JpaFigureRepository"><rect codeLine="16" fill="#F1F1F1" height="51.1563" id="JpaFigureRepository" rx="2.5" ry="2.5" style="stroke:#181818;stroke-width:0.5;" width="216" x="3793.5" y="214.19"/><ellipse cx="3809.5" cy="231.7681" fill="#ADD1B2" rx="12" ry="12" style="stroke:#181818;stroke-width:1.0;"/><path d="M3811.6406,226.69 Q3811.8281,226.44 3812.0469,226.315 Q3812.2656,226.1744 3812.5156,226.1744 Q3812.9531,226.1744 3813.2344,226.4869 Q3813.5156,226.7838 3813.5156,227.5025 L3813.5156,229.2056 Q3813.5156,229.9244 3813.2344,230.2369 Q3812.9531,230.5494 3812.5156,230.5494 Q3812.125,230.5494 3811.875,230.315 Q3811.625,230.0963 3811.5156,229.4869 Q3811.4531,229.065 3811.2344,228.8463 Q3810.8438,228.4088 3810.125,228.1431 Q3809.4063,227.8775 3808.6875,227.8775 Q3807.7813,227.8775 3807.0313,228.2681 Q3806.2813,228.6588 3805.7031,229.5494 Q3805.125,230.4244 3805.125,231.6275 L3805.125,232.9244 Q3805.125,234.3775 3806.1719,235.3463 Q3807.2344,236.315 3809.0938,236.315 Q3810.2031,236.315 3810.9844,236.0025 Q3811.4219,235.8306 3811.9375,235.315 Q3812.25,235.0025 3812.4219,234.9088 Q3812.5938,234.815 3812.8281,234.815 Q3813.2188,234.815 3813.5156,235.1275 Q3813.8281,235.4244 3813.8281,235.8306 Q3813.8281,236.2369 3813.4219,236.7056 Q3812.8281,237.3931 3811.8906,237.7838 Q3810.625,238.315 3809.1094,238.315 Q3807.3281,238.315 3805.9063,237.5806 Q3804.75,236.9869 3803.9375,235.7213 Q3803.125,234.4556 3803.125,232.9713 L3803.125,231.6119 Q3803.125,230.0494 3803.8438,228.7056 Q3804.5781,227.3463 3805.8594,226.6119 Q3807.1563,225.8775 3808.6094,225.8775 Q3809.4688,225.8775 3810.2188,226.0806 Q3810.9844,226.2838 3811.6406,226.69 Z " fill="#000000"/><text fill="#000000" font-family="sans-serif" font-size="20" lengthAdjust="spacing" textLength="182" x="3824.5" y="239.9517">JpaFigureRepository</text><line style="stroke:#181818;stroke-width:0.5;" x1="3794.5" x2="4008.5" y1="249.3463" y2="249.3463"/><line style="stroke:#181818;stroke-width:0.5;" x1="3794.5" x2="4008.5" y1="257.3463" y2="257.3463"/></g><!--class JpaCategoryRepository--><g id="elem_JpaCategoryRepository"><rect codeLine="19" fill="#F1F1F1" height="51.1563" id="JpaCategoryRepository" rx="2.5" ry="2.5" style="stroke:#181818;stroke-width:0.5;" width="242" x="3780.5" y="300.19"/><ellipse cx="3796.5" cy="317.7681" fill="#ADD1B2" rx="12" ry="12" style="stroke:#181818;stroke-width:1.0;"/><path d="M3798.6406,312.69 Q3798.8281,312.44 3799.0469,312.315 Q3799.2656,312.1744 3799.5156,312.1744 Q3799.9531,312.1744 3800.2344,312.4869 Q3800.5156,312.7838 3800.5156,313.5025 L3800.5156,315.2056 Q3800.5156,315.9244 3800.2344,316.2369 Q3799.9531,316.5494 3799.5156,316.5494 Q3799.125,316.5494 3798.875,316.315 Q3798.625,316.0963 3798.5156,315.4869 Q3798.4531,315.065 3798.2344,314.8463 Q3797.8438,314.4088 3797.125,314.1431 Q3796.4063,313.8775 3795.6875,313.8775 Q3794.7813,313.8775 3794.0313,314.2681 Q3793.2813,314.6588 3792.7031,315.5494 Q3792.125,316.4244 3792.125,317.6275 L3792.125,318.9244 Q3792.125,320.3775 3793.1719,321.3463 Q3794.2344,322.315 3796.0938,322.315 Q3797.2031,322.315 3797.9844,322.0025 Q3798.4219,321.8306 3798.9375,321.315 Q3799.25,321.0025 3799.4219,320.9088 Q3799.5938,320.815 3799.8281,320.815 Q3800.2188,320.815 3800.5156,321.1275 Q3800.8281,321.4244 3800.8281,321.8306 Q3800.8281,322.2369 3800.4219,322.7056 Q3799.8281,323.3931 3798.8906,323.7838 Q3797.625,324.315 3796.1094,324.315 Q3794.3281,324.315 3792.9063,323.5806 Q3791.75,322.9869 3790.9375,321.7213 Q3790.125,320.4556 3790.125,318.9713 L3790.125,317.6119 Q3790.125,316.0494 3790.8438,314.7056 Q3791.5781,313.3463 3792.8594,312.6119 Q3794.1563,311.8775 3795.6094,311.8775 Q3796.4688,311.8775 3797.2188,312.0806 Q3797.9844,312.2838 3798.6406,312.69 Z " fill="#000000"/><text fill="#000000" font-family="sans-serif" font-size="20" lengthAdjust="spacing" textLength="208" x="3811.5" y="325.9517">JpaCategoryRepository</text><line style="stroke:#181818;stroke-width:0.5;" x1="3781.5" x2="4021.5" y1="335.3463" y2="335.3463"/><line style="stroke:#181818;stroke-width:0.5;" x1="3781.5" x2="4021.5" y1="343.3463" y2="343.3463"/></g><!--class JpaCustomerRepository--><g id="elem_JpaCustomerRepository"><rect codeLine="22" fill="#F1F1F1" height="51.1563" id="JpaCustomerRepository" rx="2.5" ry="2.5" style="stroke:#181818;stroke-width:0.5;" width="246" x="3778.5" y="128.19"/><ellipse cx="3794.5" cy="145.7681" fill="#ADD1B2" rx="12" ry="12" style="stroke:#181818;stroke-width:1.0;"/><path d="M3796.6406,140.69 Q3796.8281,140.44 3797.0469,140.315 Q3797.2656,140.1744 3797.5156,140.1744 Q3797.9531,140.1744 3798.2344,140.4869 Q3798.5156,140.7838 3798.5156,141.5025 L3798.5156,143.2056 Q3798.5156,143.9244 3798.2344,144.2369 Q3797.9531,144.5494 3797.5156,144.5494 Q3797.125,144.5494 3796.875,144.315 Q3796.625,144.0963 3796.5156,143.4869 Q3796.4531,143.065 3796.2344,142.8463 Q3795.8438,142.4088 3795.125,142.1431 Q3794.4063,141.8775 3793.6875,141.8775 Q3792.7813,141.8775 3792.0313,142.2681 Q3791.2813,142.6588 3790.7031,143.5494 Q3790.125,144.4244 3790.125,145.6275 L3790.125,146.9244 Q3790.125,148.3775 3791.1719,149.3463 Q3792.2344,150.315 3794.0938,150.315 Q3795.2031,150.315 3795.9844,150.0025 Q3796.4219,149.8306 3796.9375,149.315 Q3797.25,149.0025 3797.4219,148.9088 Q3797.5938,148.815 3797.8281,148.815 Q3798.2188,148.815 3798.5156,149.1275 Q3798.8281,149.4244 3798.8281,149.8306 Q3798.8281,150.2369 3798.4219,150.7056 Q3797.8281,151.3931 3796.8906,151.7838 Q3795.625,152.315 3794.1094,152.315 Q3792.3281,152.315 3790.9063,151.5806 Q3789.75,150.9869 3788.9375,149.7213 Q3788.125,148.4556 3788.125,146.9713 L3788.125,145.6119 Q3788.125,144.0494 3788.8438,142.7056 Q3789.5781,141.3463 3790.8594,140.6119 Q3792.1563,139.8775 3793.6094,139.8775 Q3794.4688,139.8775 3795.2188,140.0806 Q3795.9844,140.2838 3796.6406,140.69 Z " fill="#000000"/><text fill="#000000" font-family="sans-serif" font-size="20" lengthAdjust="spacing" textLength="212" x="3809.5" y="153.9517">JpaCustomerRepository</text><line style="stroke:#181818;stroke-width:0.5;" x1="3779.5" x2="4023.5" y1="163.3463" y2="163.3463"/><line style="stroke:#181818;stroke-width:0.5;" x1="3779.5" x2="4023.5" y1="171.3463" y2="171.3463"/></g><!--class InMemoryRepositoryFactory--><g id="elem_InMemoryRepositoryFactory"><rect codeLine="28" fill="#F1F1F1" height="101.4688" id="InMemoryRepositoryFactory" rx="2.5" ry="2.5" style="stroke:#181818;stroke-width:0.5;" width="317" x="3743" y="558.19"/><ellipse cx="3773.85" cy="575.7681" fill="#ADD1B2" rx="12" ry="12" style="stroke:#181818;stroke-width:1.0;"/><path d="M3775.9906,570.69 Q3776.1781,570.44 3776.3969,570.315 Q3776.6156,570.1744 3776.8656,570.1744 Q3777.3031,570.1744 3777.5844,570.4869 Q3777.8656,570.7838 3777.8656,571.5025 L3777.8656,573.2056 Q3777.8656,573.9244 3777.5844,574.2369 Q3777.3031,574.5494 3776.8656,574.5494 Q3776.475,574.5494 3776.225,574.315 Q3775.975,574.0963 3775.8656,573.4869 Q3775.8031,573.065 3775.5844,572.8463 Q3775.1938,572.4088 3774.475,572.1431 Q3773.7563,571.8775 3773.0375,571.8775 Q3772.1313,571.8775 3771.3813,572.2681 Q3770.6313,572.6588 3770.0531,573.5494 Q3769.475,574.4244 3769.475,575.6275 L3769.475,576.9244 Q3769.475,578.3775 3770.5219,579.3463 Q3771.5844,580.315 3773.4438,580.315 Q3774.5531,580.315 3775.3344,580.0025 Q3775.7719,579.8306 3776.2875,579.315 Q3776.6,579.0025 3776.7719,578.9088 Q3776.9438,578.815 3777.1781,578.815 Q3777.5688,578.815 3777.8656,579.1275 Q3778.1781,579.4244 3778.1781,579.8306 Q3778.1781,580.2369 3777.7719,580.7056 Q3777.1781,581.3931 3776.2406,581.7838 Q3774.975,582.315 3773.4594,582.315 Q3771.6781,582.315 3770.2563,581.5806 Q3769.1,580.9869 3768.2875,579.7213 Q3767.475,578.4556 3767.475,576.9713 L3767.475,575.6119 Q3767.475,574.0494 3768.1938,572.7056 Q3768.9281,571.3463 3770.2094,570.6119 Q3771.5063,569.8775 3772.9594,569.8775 Q3773.8188,569.8775 3774.5688,570.0806 Q3775.3344,570.2838 3775.9906,570.69 Z " fill="#000000"/><text fill="#000000" font-family="sans-serif" font-size="20" lengthAdjust="spacing" textLength="250" x="3792.15" y="583.9517">InMemoryRepositoryFactory</text><line style="stroke:#181818;stroke-width:0.5;" x1="3744" x2="4059" y1="593.3463" y2="593.3463"/><line style="stroke:#181818;stroke-width:0.5;" x1="3744" x2="4059" y1="601.3463" y2="601.3463"/><rect fill="#F24D5C" height="6" style="stroke:#C82930;stroke-width:1.0;" width="6" x="3751" y="616.4244"/><text fill="#000000" font-family="sans-serif" font-size="20" lengthAdjust="spacing" textLength="264" x="3764" y="626.108">InMemoryRepositoryFactory()</text><ellipse cx="3754" cy="644.5806" fill="#84BE84" rx="3" ry="3" style="stroke:#038048;stroke-width:1.0;"/><text fill="#000000" font-family="sans-serif" font-size="20" lengthAdjust="spacing" textLength="290" x="3764" y="651.2642">getInstance(): RepositoryFactory</text></g><!--class InMemoryFigureRepository--><g id="elem_InMemoryFigureRepository"><rect codeLine="33" fill="#F1F1F1" height="51.1563" id="InMemoryFigureRepository" rx="2.5" ry="2.5" style="stroke:#181818;stroke-width:0.5;" width="272" x="4136" y="522.19"/><ellipse cx="4152" cy="539.7681" fill="#ADD1B2" rx="12" ry="12" style="stroke:#181818;stroke-width:1.0;"/><path d="M4154.1406,534.69 Q4154.3281,534.44 4154.5469,534.315 Q4154.7656,534.1744 4155.0156,534.1744 Q4155.4531,534.1744 4155.7344,534.4869 Q4156.0156,534.7838 4156.0156,535.5025 L4156.0156,537.2056 Q4156.0156,537.9244 4155.7344,538.2369 Q4155.4531,538.5494 4155.0156,538.5494 Q4154.625,538.5494 4154.375,538.315 Q4154.125,538.0963 4154.0156,537.4869 Q4153.9531,537.065 4153.7344,536.8463 Q4153.3438,536.4088 4152.625,536.1431 Q4151.9063,535.8775 4151.1875,535.8775 Q4150.2813,535.8775 4149.5313,536.2681 Q4148.7813,536.6588 4148.2031,537.5494 Q4147.625,538.4244 4147.625,539.6275 L4147.625,540.9244 Q4147.625,542.3775 4148.6719,543.3463 Q4149.7344,544.315 4151.5938,544.315 Q4152.7031,544.315 4153.4844,544.0025 Q4153.9219,543.8306 4154.4375,543.315 Q4154.75,543.0025 4154.9219,542.9088 Q4155.0938,542.815 4155.3281,542.815 Q4155.7188,542.815 4156.0156,543.1275 Q4156.3281,543.4244 4156.3281,543.8306 Q4156.3281,544.2369 4155.9219,544.7056 Q4155.3281,545.3931 4154.3906,545.7838 Q4153.125,546.315 4151.6094,546.315 Q4149.8281,546.315 4148.4063,545.5806 Q4147.25,544.9869 4146.4375,543.7213 Q4145.625,542.4556 4145.625,540.9713 L4145.625,539.6119 Q4145.625,538.0494 4146.3438,536.7056 Q4147.0781,535.3463 4148.3594,534.6119 Q4149.6563,533.8775 4151.1094,533.8775 Q4151.9688,533.8775 4152.7188,534.0806 Q4153.4844,534.2838 4154.1406,534.69 Z " fill="#000000"/><text fill="#000000" font-family="sans-serif" font-size="20" lengthAdjust="spacing" textLength="238" x="4167" y="547.9517">InMemoryFigureRepository</text><line style="stroke:#181818;stroke-width:0.5;" x1="4137" x2="4407" y1="557.3463" y2="557.3463"/><line style="stroke:#181818;stroke-width:0.5;" x1="4137" x2="4407" y1="565.3463" y2="565.3463"/></g><!--class InMemoryCategoryRepository--><g id="elem_InMemoryCategoryRepository"><rect codeLine="36" fill="#F1F1F1" height="51.1563" id="InMemoryCategoryRepository" rx="2.5" ry="2.5" style="stroke:#181818;stroke-width:0.5;" width="298" x="4123" y="608.19"/><ellipse cx="4139" cy="625.7681" fill="#ADD1B2" rx="12" ry="12" style="stroke:#181818;stroke-width:1.0;"/><path d="M4141.1406,620.69 Q4141.3281,620.44 4141.5469,620.315 Q4141.7656,620.1744 4142.0156,620.1744 Q4142.4531,620.1744 4142.7344,620.4869 Q4143.0156,620.7838 4143.0156,621.5025 L4143.0156,623.2056 Q4143.0156,623.9244 4142.7344,624.2369 Q4142.4531,624.5494 4142.0156,624.5494 Q4141.625,624.5494 4141.375,624.315 Q4141.125,624.0963 4141.0156,623.4869 Q4140.9531,623.065 4140.7344,622.8463 Q4140.3438,622.4088 4139.625,622.1431 Q4138.9063,621.8775 4138.1875,621.8775 Q4137.2813,621.8775 4136.5313,622.2681 Q4135.7813,622.6588 4135.2031,623.5494 Q4134.625,624.4244 4134.625,625.6275 L4134.625,626.9244 Q4134.625,628.3775 4135.6719,629.3463 Q4136.7344,630.315 4138.5938,630.315 Q4139.7031,630.315 4140.4844,630.0025 Q4140.9219,629.8306 4141.4375,629.315 Q4141.75,629.0025 4141.9219,628.9088 Q4142.0938,628.815 4142.3281,628.815 Q4142.7188,628.815 4143.0156,629.1275 Q4143.3281,629.4244 4143.3281,629.8306 Q4143.3281,630.2369 4142.9219,630.7056 Q4142.3281,631.3931 4141.3906,631.7838 Q4140.125,632.315 4138.6094,632.315 Q4136.8281,632.315 4135.4063,631.5806 Q4134.25,630.9869 4133.4375,629.7213 Q4132.625,628.4556 4132.625,626.9713 L4132.625,625.6119 Q4132.625,624.0494 4133.3438,622.7056 Q4134.0781,621.3463 4135.3594,620.6119 Q4136.6563,619.8775 4138.1094,619.8775 Q4138.9688,619.8775 4139.7188,620.0806 Q4140.4844,620.2838 4141.1406,620.69 Z " fill="#000000"/><text fill="#000000" font-family="sans-serif" font-size="20" lengthAdjust="spacing" textLength="264" x="4154" y="633.9517">InMemoryCategoryRepository</text><line style="stroke:#181818;stroke-width:0.5;" x1="4124" x2="4420" y1="643.3463" y2="643.3463"/><line style="stroke:#181818;stroke-width:0.5;" x1="4124" x2="4420" y1="651.3463" y2="651.3463"/></g><!--class InMemoryCustomerRepository--><g id="elem_InMemoryCustomerRepository"><rect codeLine="39" fill="#F1F1F1" height="51.1563" id="InMemoryCustomerRepository" rx="2.5" ry="2.5" style="stroke:#181818;stroke-width:0.5;" width="302" x="4121" y="436.19"/><ellipse cx="4137" cy="453.7681" fill="#ADD1B2" rx="12" ry="12" style="stroke:#181818;stroke-width:1.0;"/><path d="M4139.1406,448.69 Q4139.3281,448.44 4139.5469,448.315 Q4139.7656,448.1744 4140.0156,448.1744 Q4140.4531,448.1744 4140.7344,448.4869 Q4141.0156,448.7838 4141.0156,449.5025 L4141.0156,451.2056 Q4141.0156,451.9244 4140.7344,452.2369 Q4140.4531,452.5494 4140.0156,452.5494 Q4139.625,452.5494 4139.375,452.315 Q4139.125,452.0963 4139.0156,451.4869 Q4138.9531,451.065 4138.7344,450.8463 Q4138.3438,450.4088 4137.625,450.1431 Q4136.9063,449.8775 4136.1875,449.8775 Q4135.2813,449.8775 4134.5313,450.2681 Q4133.7813,450.6588 4133.2031,451.5494 Q4132.625,452.4244 4132.625,453.6275 L4132.625,454.9244 Q4132.625,456.3775 4133.6719,457.3463 Q4134.7344,458.315 4136.5938,458.315 Q4137.7031,458.315 4138.4844,458.0025 Q4138.9219,457.8306 4139.4375,457.315 Q4139.75,457.0025 4139.9219,456.9088 Q4140.0938,456.815 4140.3281,456.815 Q4140.7188,456.815 4141.0156,457.1275 Q4141.3281,457.4244 4141.3281,457.8306 Q4141.3281,458.2369 4140.9219,458.7056 Q4140.3281,459.3931 4139.3906,459.7838 Q4138.125,460.315 4136.6094,460.315 Q4134.8281,460.315 4133.4063,459.5806 Q4132.25,458.9869 4131.4375,457.7213 Q4130.625,456.4556 4130.625,454.9713 L4130.625,453.6119 Q4130.625,452.0494 4131.3438,450.7056 Q4132.0781,449.3463 4133.3594,448.6119 Q4134.6563,447.8775 4136.1094,447.8775 Q4136.9688,447.8775 4137.7188,448.0806 Q4138.4844,448.2838 4139.1406,448.69 Z " fill="#000000"/><text fill="#000000" font-family="sans-serif" font-size="20" lengthAdjust="spacing" textLength="268" x="4152" y="461.9517">InMemoryCustomerRepository</text><line style="stroke:#181818;stroke-width:0.5;" x1="4122" x2="4422" y1="471.3463" y2="471.3463"/><line style="stroke:#181818;stroke-width:0.5;" x1="4122" x2="4422" y1="479.3463" y2="479.3463"/></g><!--class Figure--><g id="elem_Figure"><rect codeLine="68" fill="#F1F1F1" height="126.625" id="Figure" rx="2.5" ry="2.5" style="stroke:#181818;stroke-width:0.5;" width="891" x="5420" y="629.19"/><ellipse cx="5827.5" cy="659.3463" fill="#ADD1B2" rx="12" ry="12" style="stroke:#181818;stroke-width:1.0;"/><path d="M5829.6406,654.2681 Q5829.8281,654.0181 5830.0469,653.8931 Q5830.2656,653.7525 5830.5156,653.7525 Q5830.9531,653.7525 5831.2344,654.065 Q5831.5156,654.3619 5831.5156,655.0806 L5831.5156,656.7838 Q5831.5156,657.5025 5831.2344,657.815 Q5830.9531,658.1275 5830.5156,658.1275 Q5830.125,658.1275 5829.875,657.8931 Q5829.625,657.6744 5829.5156,657.065 Q5829.4531,656.6431 5829.2344,656.4244 Q5828.8438,655.9869 5828.125,655.7213 Q5827.4063,655.4556 5826.6875,655.4556 Q5825.7813,655.4556 5825.0313,655.8463 Q5824.2813,656.2369 5823.7031,657.1275 Q5823.125,658.0025 5823.125,659.2056 L5823.125,660.5025 Q5823.125,661.9556 5824.1719,662.9244 Q5825.2344,663.8931 5827.0938,663.8931 Q5828.2031,663.8931 5828.9844,663.5806 Q5829.4219,663.4088 5829.9375,662.8931 Q5830.25,662.5806 5830.4219,662.4869 Q5830.5938,662.3931 5830.8281,662.3931 Q5831.2188,662.3931 5831.5156,662.7056 Q5831.8281,663.0025 5831.8281,663.4088 Q5831.8281,663.815 5831.4219,664.2838 Q5830.8281,664.9713 5829.8906,665.3619 Q5828.625,665.8931 5827.1094,665.8931 Q5825.3281,665.8931 5823.9063,665.1588 Q5822.75,664.565 5821.9375,663.2994 Q5821.125,662.0338 5821.125,660.5494 L5821.125,659.19 Q5821.125,657.6275 5821.8438,656.2838 Q5822.5781,654.9244 5823.8594,654.19 Q5825.1563,653.4556 5826.6094,653.4556 Q5827.4688,653.4556 5828.2188,653.6588 Q5828.9844,653.8619 5829.6406,654.2681 Z " fill="#000000"/><text fill="#000000" font-family="sans-serif" font-size="20" font-style="italic" lengthAdjust="spacing" textLength="71" x="5847.5" y="654.9517">«Entity»</text><text fill="#000000" font-family="sans-serif" font-size="20" lengthAdjust="spacing" textLength="55" x="5855.5" y="680.108">Figure</text><line style="stroke:#181818;stroke-width:0.5;" x1="5421" x2="6310" y1="689.5025" y2="689.5025"/><line style="stroke:#181818;stroke-width:0.5;" x1="5421" x2="6310" y1="697.5025" y2="697.5025"/><ellipse cx="5431" cy="715.5806" fill="#84BE84" rx="3" ry="3" style="stroke:#038048;stroke-width:1.0;"/><text fill="#000000" font-family="sans-serif" font-size="20" lengthAdjust="spacing" textLength="765" x="5441" y="722.2642">Figure(code, version, description, dslDescription, keywords, categories, showDesigner)</text><ellipse cx="5431" cy="740.7369" fill="#84BE84" rx="3" ry="3" style="stroke:#038048;stroke-width:1.0;"/><text fill="#000000" font-family="sans-serif" font-size="20" lengthAdjust="spacing" textLength="864" x="5441" y="747.4205">Figure(code, version, description, dslDescription, keywords, categories, showDesigner, exclusivity)</text></g><!--class Code--><g id="elem_Code"><rect codeLine="73" fill="#F1F1F1" height="76.3125" id="Code" rx="2.5" ry="2.5" style="stroke:#181818;stroke-width:0.5;" width="166" x="6511" y="784.69"/><ellipse cx="6527" cy="814.8463" fill="#ADD1B2" rx="12" ry="12" style="stroke:#181818;stroke-width:1.0;"/><path d="M6529.1406,809.7681 Q6529.3281,809.5181 6529.5469,809.3931 Q6529.7656,809.2525 6530.0156,809.2525 Q6530.4531,809.2525 6530.7344,809.565 Q6531.0156,809.8619 6531.0156,810.5806 L6531.0156,812.2838 Q6531.0156,813.0025 6530.7344,813.315 Q6530.4531,813.6275 6530.0156,813.6275 Q6529.625,813.6275 6529.375,813.3931 Q6529.125,813.1744 6529.0156,812.565 Q6528.9531,812.1431 6528.7344,811.9244 Q6528.3438,811.4869 6527.625,811.2213 Q6526.9063,810.9556 6526.1875,810.9556 Q6525.2813,810.9556 6524.5313,811.3463 Q6523.7813,811.7369 6523.2031,812.6275 Q6522.625,813.5025 6522.625,814.7056 L6522.625,816.0025 Q6522.625,817.4556 6523.6719,818.4244 Q6524.7344,819.3931 6526.5938,819.3931 Q6527.7031,819.3931 6528.4844,819.0806 Q6528.9219,818.9088 6529.4375,818.3931 Q6529.75,818.0806 6529.9219,817.9869 Q6530.0938,817.8931 6530.3281,817.8931 Q6530.7188,817.8931 6531.0156,818.2056 Q6531.3281,818.5025 6531.3281,818.9088 Q6531.3281,819.315 6530.9219,819.7838 Q6530.3281,820.4713 6529.3906,820.8619 Q6528.125,821.3931 6526.6094,821.3931 Q6524.8281,821.3931 6523.4063,820.6588 Q6522.25,820.065 6521.4375,818.7994 Q6520.625,817.5338 6520.625,816.0494 L6520.625,814.69 Q6520.625,813.1275 6521.3438,811.7838 Q6522.0781,810.4244 6523.3594,809.69 Q6524.6563,808.9556 6526.1094,808.9556 Q6526.9688,808.9556 6527.7188,809.1588 Q6528.4844,809.3619 6529.1406,809.7681 Z " fill="#000000"/><text fill="#000000" font-family="sans-serif" font-size="20" font-style="italic" lengthAdjust="spacing" textLength="136" x="6540" y="810.4517">«Value Object»</text><text fill="#000000" font-family="sans-serif" font-size="20" lengthAdjust="spacing" textLength="47" x="6584.5" y="835.608">Code</text><line style="stroke:#181818;stroke-width:0.5;" x1="6512" x2="6676" y1="845.0025" y2="845.0025"/><line style="stroke:#181818;stroke-width:0.5;" x1="6512" x2="6676" y1="853.0025" y2="853.0025"/></g><!--class Version--><g id="elem_Version"><rect codeLine="76" fill="#F1F1F1" height="76.3125" id="Version" rx="2.5" ry="2.5" style="stroke:#181818;stroke-width:0.5;" width="166" x="6511" y="673.69"/><ellipse cx="6527" cy="703.8463" fill="#ADD1B2" rx="12" ry="12" style="stroke:#181818;stroke-width:1.0;"/><path d="M6529.1406,698.7681 Q6529.3281,698.5181 6529.5469,698.3931 Q6529.7656,698.2525 6530.0156,698.2525 Q6530.4531,698.2525 6530.7344,698.565 Q6531.0156,698.8619 6531.0156,699.5806 L6531.0156,701.2838 Q6531.0156,702.0025 6530.7344,702.315 Q6530.4531,702.6275 6530.0156,702.6275 Q6529.625,702.6275 6529.375,702.3931 Q6529.125,702.1744 6529.0156,701.565 Q6528.9531,701.1431 6528.7344,700.9244 Q6528.3438,700.4869 6527.625,700.2213 Q6526.9063,699.9556 6526.1875,699.9556 Q6525.2813,699.9556 6524.5313,700.3463 Q6523.7813,700.7369 6523.2031,701.6275 Q6522.625,702.5025 6522.625,703.7056 L6522.625,705.0025 Q6522.625,706.4556 6523.6719,707.4244 Q6524.7344,708.3931 6526.5938,708.3931 Q6527.7031,708.3931 6528.4844,708.0806 Q6528.9219,707.9088 6529.4375,707.3931 Q6529.75,707.0806 6529.9219,706.9869 Q6530.0938,706.8931 6530.3281,706.8931 Q6530.7188,706.8931 6531.0156,707.2056 Q6531.3281,707.5025 6531.3281,707.9088 Q6531.3281,708.315 6530.9219,708.7838 Q6530.3281,709.4713 6529.3906,709.8619 Q6528.125,710.3931 6526.6094,710.3931 Q6524.8281,710.3931 6523.4063,709.6588 Q6522.25,709.065 6521.4375,707.7994 Q6520.625,706.5338 6520.625,705.0494 L6520.625,703.69 Q6520.625,702.1275 6521.3438,700.7838 Q6522.0781,699.4244 6523.3594,698.69 Q6524.6563,697.9556 6526.1094,697.9556 Q6526.9688,697.9556 6527.7188,698.1588 Q6528.4844,698.3619 6529.1406,698.7681 Z " fill="#000000"/><text fill="#000000" font-family="sans-serif" font-size="20" font-style="italic" lengthAdjust="spacing" textLength="136" x="6540" y="699.4517">«Value Object»</text><text fill="#000000" font-family="sans-serif" font-size="20" lengthAdjust="spacing" textLength="66" x="6575" y="724.608">Version</text><line style="stroke:#181818;stroke-width:0.5;" x1="6512" x2="6676" y1="734.0025" y2="734.0025"/><line style="stroke:#181818;stroke-width:0.5;" x1="6512" x2="6676" y1="742.0025" y2="742.0025"/></g><!--class Description--><g id="elem_Description"><rect codeLine="79" fill="#F1F1F1" height="76.3125" id="Description" rx="2.5" ry="2.5" style="stroke:#181818;stroke-width:0.5;" width="166" x="6511" y="562.69"/><ellipse cx="6527" cy="592.8463" fill="#ADD1B2" rx="12" ry="12" style="stroke:#181818;stroke-width:1.0;"/><path d="M6529.1406,587.7681 Q6529.3281,587.5181 6529.5469,587.3931 Q6529.7656,587.2525 6530.0156,587.2525 Q6530.4531,587.2525 6530.7344,587.565 Q6531.0156,587.8619 6531.0156,588.5806 L6531.0156,590.2838 Q6531.0156,591.0025 6530.7344,591.315 Q6530.4531,591.6275 6530.0156,591.6275 Q6529.625,591.6275 6529.375,591.3931 Q6529.125,591.1744 6529.0156,590.565 Q6528.9531,590.1431 6528.7344,589.9244 Q6528.3438,589.4869 6527.625,589.2213 Q6526.9063,588.9556 6526.1875,588.9556 Q6525.2813,588.9556 6524.5313,589.3463 Q6523.7813,589.7369 6523.2031,590.6275 Q6522.625,591.5025 6522.625,592.7056 L6522.625,594.0025 Q6522.625,595.4556 6523.6719,596.4244 Q6524.7344,597.3931 6526.5938,597.3931 Q6527.7031,597.3931 6528.4844,597.0806 Q6528.9219,596.9088 6529.4375,596.3931 Q6529.75,596.0806 6529.9219,595.9869 Q6530.0938,595.8931 6530.3281,595.8931 Q6530.7188,595.8931 6531.0156,596.2056 Q6531.3281,596.5025 6531.3281,596.9088 Q6531.3281,597.315 6530.9219,597.7838 Q6530.3281,598.4713 6529.3906,598.8619 Q6528.125,599.3931 6526.6094,599.3931 Q6524.8281,599.3931 6523.4063,598.6588 Q6522.25,598.065 6521.4375,596.7994 Q6520.625,595.5338 6520.625,594.0494 L6520.625,592.69 Q6520.625,591.1275 6521.3438,589.7838 Q6522.0781,588.4244 6523.3594,587.69 Q6524.6563,586.9556 6526.1094,586.9556 Q6526.9688,586.9556 6527.7188,587.1588 Q6528.4844,587.3619 6529.1406,587.7681 Z " fill="#000000"/><text fill="#000000" font-family="sans-serif" font-size="20" font-style="italic" lengthAdjust="spacing" textLength="136" x="6540" y="588.4517">«Value Object»</text><text fill="#000000" font-family="sans-serif" font-size="20" lengthAdjust="spacing" textLength="98" x="6559" y="613.608">Description</text><line style="stroke:#181818;stroke-width:0.5;" x1="6512" x2="6676" y1="623.0025" y2="623.0025"/><line style="stroke:#181818;stroke-width:0.5;" x1="6512" x2="6676" y1="631.0025" y2="631.0025"/></g><!--class DSLDescription--><g id="elem_DSLDescription"><rect codeLine="82" fill="#F1F1F1" height="76.3125" id="DSLDescription" rx="2.5" ry="2.5" style="stroke:#181818;stroke-width:0.5;" width="170" x="6509" y="451.69"/><ellipse cx="6525" cy="481.8463" fill="#ADD1B2" rx="12" ry="12" style="stroke:#181818;stroke-width:1.0;"/><path d="M6527.1406,476.7681 Q6527.3281,476.5181 6527.5469,476.3931 Q6527.7656,476.2525 6528.0156,476.2525 Q6528.4531,476.2525 6528.7344,476.565 Q6529.0156,476.8619 6529.0156,477.5806 L6529.0156,479.2838 Q6529.0156,480.0025 6528.7344,480.315 Q6528.4531,480.6275 6528.0156,480.6275 Q6527.625,480.6275 6527.375,480.3931 Q6527.125,480.1744 6527.0156,479.565 Q6526.9531,479.1431 6526.7344,478.9244 Q6526.3438,478.4869 6525.625,478.2213 Q6524.9063,477.9556 6524.1875,477.9556 Q6523.2813,477.9556 6522.5313,478.3463 Q6521.7813,478.7369 6521.2031,479.6275 Q6520.625,480.5025 6520.625,481.7056 L6520.625,483.0025 Q6520.625,484.4556 6521.6719,485.4244 Q6522.7344,486.3931 6524.5938,486.3931 Q6525.7031,486.3931 6526.4844,486.0806 Q6526.9219,485.9088 6527.4375,485.3931 Q6527.75,485.0806 6527.9219,484.9869 Q6528.0938,484.8931 6528.3281,484.8931 Q6528.7188,484.8931 6529.0156,485.2056 Q6529.3281,485.5025 6529.3281,485.9088 Q6529.3281,486.315 6528.9219,486.7838 Q6528.3281,487.4713 6527.3906,487.8619 Q6526.125,488.3931 6524.6094,488.3931 Q6522.8281,488.3931 6521.4063,487.6588 Q6520.25,487.065 6519.4375,485.7994 Q6518.625,484.5338 6518.625,483.0494 L6518.625,481.69 Q6518.625,480.1275 6519.3438,478.7838 Q6520.0781,477.4244 6521.3594,476.69 Q6522.6563,475.9556 6524.1094,475.9556 Q6524.9688,475.9556 6525.7188,476.1588 Q6526.4844,476.3619 6527.1406,476.7681 Z " fill="#000000"/><text fill="#000000" font-family="sans-serif" font-size="20" font-style="italic" lengthAdjust="spacing" textLength="136" x="6540" y="477.4517">«Value Object»</text><text fill="#000000" font-family="sans-serif" font-size="20" lengthAdjust="spacing" textLength="136" x="6540" y="502.608">DSLDescription</text><line style="stroke:#181818;stroke-width:0.5;" x1="6510" x2="6678" y1="512.0025" y2="512.0025"/><line style="stroke:#181818;stroke-width:0.5;" x1="6510" x2="6678" y1="520.0025" y2="520.0025"/></g><!--class Keyword--><g id="elem_Keyword"><rect codeLine="85" fill="#F1F1F1" height="76.3125" id="Keyword" rx="2.5" ry="2.5" style="stroke:#181818;stroke-width:0.5;" width="166" x="6511" y="340.69"/><ellipse cx="6527" cy="370.8463" fill="#ADD1B2" rx="12" ry="12" style="stroke:#181818;stroke-width:1.0;"/><path d="M6529.1406,365.7681 Q6529.3281,365.5181 6529.5469,365.3931 Q6529.7656,365.2525 6530.0156,365.2525 Q6530.4531,365.2525 6530.7344,365.565 Q6531.0156,365.8619 6531.0156,366.5806 L6531.0156,368.2838 Q6531.0156,369.0025 6530.7344,369.315 Q6530.4531,369.6275 6530.0156,369.6275 Q6529.625,369.6275 6529.375,369.3931 Q6529.125,369.1744 6529.0156,368.565 Q6528.9531,368.1431 6528.7344,367.9244 Q6528.3438,367.4869 6527.625,367.2213 Q6526.9063,366.9556 6526.1875,366.9556 Q6525.2813,366.9556 6524.5313,367.3463 Q6523.7813,367.7369 6523.2031,368.6275 Q6522.625,369.5025 6522.625,370.7056 L6522.625,372.0025 Q6522.625,373.4556 6523.6719,374.4244 Q6524.7344,375.3931 6526.5938,375.3931 Q6527.7031,375.3931 6528.4844,375.0806 Q6528.9219,374.9088 6529.4375,374.3931 Q6529.75,374.0806 6529.9219,373.9869 Q6530.0938,373.8931 6530.3281,373.8931 Q6530.7188,373.8931 6531.0156,374.2056 Q6531.3281,374.5025 6531.3281,374.9088 Q6531.3281,375.315 6530.9219,375.7838 Q6530.3281,376.4713 6529.3906,376.8619 Q6528.125,377.3931 6526.6094,377.3931 Q6524.8281,377.3931 6523.4063,376.6588 Q6522.25,376.065 6521.4375,374.7994 Q6520.625,373.5338 6520.625,372.0494 L6520.625,370.69 Q6520.625,369.1275 6521.3438,367.7838 Q6522.0781,366.4244 6523.3594,365.69 Q6524.6563,364.9556 6526.1094,364.9556 Q6526.9688,364.9556 6527.7188,365.1588 Q6528.4844,365.3619 6529.1406,365.7681 Z " fill="#000000"/><text fill="#000000" font-family="sans-serif" font-size="20" font-style="italic" lengthAdjust="spacing" textLength="136" x="6540" y="366.4517">«Value Object»</text><text fill="#000000" font-family="sans-serif" font-size="20" lengthAdjust="spacing" textLength="78" x="6569" y="391.608">Keyword</text><line style="stroke:#181818;stroke-width:0.5;" x1="6512" x2="6676" y1="401.0025" y2="401.0025"/><line style="stroke:#181818;stroke-width:0.5;" x1="6512" x2="6676" y1="409.0025" y2="409.0025"/></g><!--class Exclusivity--><g id="elem_Exclusivity"><rect codeLine="88" fill="#F1F1F1" height="76.3125" id="Exclusivity" rx="2.5" ry="2.5" style="stroke:#181818;stroke-width:0.5;" width="123" x="6532.5" y="229.69"/><ellipse cx="6548.5" cy="259.8463" fill="#ADD1B2" rx="12" ry="12" style="stroke:#181818;stroke-width:1.0;"/><path d="M6550.6406,254.7681 Q6550.8281,254.5181 6551.0469,254.3931 Q6551.2656,254.2525 6551.5156,254.2525 Q6551.9531,254.2525 6552.2344,254.565 Q6552.5156,254.8619 6552.5156,255.5806 L6552.5156,257.2838 Q6552.5156,258.0025 6552.2344,258.315 Q6551.9531,258.6275 6551.5156,258.6275 Q6551.125,258.6275 6550.875,258.3931 Q6550.625,258.1744 6550.5156,257.565 Q6550.4531,257.1431 6550.2344,256.9244 Q6549.8438,256.4869 6549.125,256.2213 Q6548.4063,255.9556 6547.6875,255.9556 Q6546.7813,255.9556 6546.0313,256.3463 Q6545.2813,256.7369 6544.7031,257.6275 Q6544.125,258.5025 6544.125,259.7056 L6544.125,261.0025 Q6544.125,262.4556 6545.1719,263.4244 Q6546.2344,264.3931 6548.0938,264.3931 Q6549.2031,264.3931 6549.9844,264.0806 Q6550.4219,263.9088 6550.9375,263.3931 Q6551.25,263.0806 6551.4219,262.9869 Q6551.5938,262.8931 6551.8281,262.8931 Q6552.2188,262.8931 6552.5156,263.2056 Q6552.8281,263.5025 6552.8281,263.9088 Q6552.8281,264.315 6552.4219,264.7838 Q6551.8281,265.4713 6550.8906,265.8619 Q6549.625,266.3931 6548.1094,266.3931 Q6546.3281,266.3931 6544.9063,265.6588 Q6543.75,265.065 6542.9375,263.7994 Q6542.125,262.5338 6542.125,261.0494 L6542.125,259.69 Q6542.125,258.1275 6542.8438,256.7838 Q6543.5781,255.4244 6544.8594,254.69 Q6546.1563,253.9556 6547.6094,253.9556 Q6548.4688,253.9556 6549.2188,254.1588 Q6549.9844,254.3619 6550.6406,254.7681 Z " fill="#000000"/><text fill="#000000" font-family="sans-serif" font-size="20" font-style="italic" lengthAdjust="spacing" textLength="71" x="6572.5" y="255.4517">«Entity»</text><text fill="#000000" font-family="sans-serif" font-size="20" lengthAdjust="spacing" textLength="89" x="6563.5" y="280.608">Exclusivity</text><line style="stroke:#181818;stroke-width:0.5;" x1="6533.5" x2="6654.5" y1="290.0025" y2="290.0025"/><line style="stroke:#181818;stroke-width:0.5;" x1="6533.5" x2="6654.5" y1="298.0025" y2="298.0025"/></g><!--class Category--><g id="elem_Category"><rect codeLine="93" fill="#F1F1F1" height="76.3125" id="Category" rx="2.5" ry="2.5" style="stroke:#181818;stroke-width:0.5;" width="115" x="6536.5" y="1006.69"/><ellipse cx="6552.5" cy="1036.8463" fill="#ADD1B2" rx="12" ry="12" style="stroke:#181818;stroke-width:1.0;"/><path d="M6554.6406,1031.7681 Q6554.8281,1031.5181 6555.0469,1031.3931 Q6555.2656,1031.2525 6555.5156,1031.2525 Q6555.9531,1031.2525 6556.2344,1031.565 Q6556.5156,1031.8619 6556.5156,1032.5806 L6556.5156,1034.2838 Q6556.5156,1035.0025 6556.2344,1035.315 Q6555.9531,1035.6275 6555.5156,1035.6275 Q6555.125,1035.6275 6554.875,1035.3931 Q6554.625,1035.1744 6554.5156,1034.565 Q6554.4531,1034.1431 6554.2344,1033.9244 Q6553.8438,1033.4869 6553.125,1033.2213 Q6552.4063,1032.9556 6551.6875,1032.9556 Q6550.7813,1032.9556 6550.0313,1033.3463 Q6549.2813,1033.7369 6548.7031,1034.6275 Q6548.125,1035.5025 6548.125,1036.7056 L6548.125,1038.0025 Q6548.125,1039.4556 6549.1719,1040.4244 Q6550.2344,1041.3931 6552.0938,1041.3931 Q6553.2031,1041.3931 6553.9844,1041.0806 Q6554.4219,1040.9088 6554.9375,1040.3931 Q6555.25,1040.0806 6555.4219,1039.9869 Q6555.5938,1039.8931 6555.8281,1039.8931 Q6556.2188,1039.8931 6556.5156,1040.2056 Q6556.8281,1040.5025 6556.8281,1040.9088 Q6556.8281,1041.315 6556.4219,1041.7838 Q6555.8281,1042.4713 6554.8906,1042.8619 Q6553.625,1043.3931 6552.1094,1043.3931 Q6550.3281,1043.3931 6548.9063,1042.6588 Q6547.75,1042.065 6546.9375,1040.7994 Q6546.125,1039.5338 6546.125,1038.0494 L6546.125,1036.69 Q6546.125,1035.1275 6546.8438,1033.7838 Q6547.5781,1032.4244 6548.8594,1031.69 Q6550.1563,1030.9556 6551.6094,1030.9556 Q6552.4688,1030.9556 6553.2188,1031.1588 Q6553.9844,1031.3619 6554.6406,1031.7681 Z " fill="#000000"/><text fill="#000000" font-family="sans-serif" font-size="20" font-style="italic" lengthAdjust="spacing" textLength="71" x="6572.5" y="1032.4517">«Entity»</text><text fill="#000000" font-family="sans-serif" font-size="20" lengthAdjust="spacing" textLength="81" x="6567.5" y="1057.608">Category</text><line style="stroke:#181818;stroke-width:0.5;" x1="6537.5" x2="6650.5" y1="1067.0025" y2="1067.0025"/><line style="stroke:#181818;stroke-width:0.5;" x1="6537.5" x2="6650.5" y1="1075.0025" y2="1075.0025"/></g><!--class ShowDesigner--><g id="elem_ShowDesigner"><rect codeLine="98" fill="#F1F1F1" height="76.3125" id="ShowDesigner" rx="2.5" ry="2.5" style="stroke:#181818;stroke-width:0.5;" width="161" x="6513.5" y="895.69"/><ellipse cx="6529.5" cy="925.8463" fill="#ADD1B2" rx="12" ry="12" style="stroke:#181818;stroke-width:1.0;"/><path d="M6531.6406,920.7681 Q6531.8281,920.5181 6532.0469,920.3931 Q6532.2656,920.2525 6532.5156,920.2525 Q6532.9531,920.2525 6533.2344,920.565 Q6533.5156,920.8619 6533.5156,921.5806 L6533.5156,923.2838 Q6533.5156,924.0025 6533.2344,924.315 Q6532.9531,924.6275 6532.5156,924.6275 Q6532.125,924.6275 6531.875,924.3931 Q6531.625,924.1744 6531.5156,923.565 Q6531.4531,923.1431 6531.2344,922.9244 Q6530.8438,922.4869 6530.125,922.2213 Q6529.4063,921.9556 6528.6875,921.9556 Q6527.7813,921.9556 6527.0313,922.3463 Q6526.2813,922.7369 6525.7031,923.6275 Q6525.125,924.5025 6525.125,925.7056 L6525.125,927.0025 Q6525.125,928.4556 6526.1719,929.4244 Q6527.2344,930.3931 6529.0938,930.3931 Q6530.2031,930.3931 6530.9844,930.0806 Q6531.4219,929.9088 6531.9375,929.3931 Q6532.25,929.0806 6532.4219,928.9869 Q6532.5938,928.8931 6532.8281,928.8931 Q6533.2188,928.8931 6533.5156,929.2056 Q6533.8281,929.5025 6533.8281,929.9088 Q6533.8281,930.315 6533.4219,930.7838 Q6532.8281,931.4713 6531.8906,931.8619 Q6530.625,932.3931 6529.1094,932.3931 Q6527.3281,932.3931 6525.9063,931.6588 Q6524.75,931.065 6523.9375,929.7994 Q6523.125,928.5338 6523.125,927.0494 L6523.125,925.69 Q6523.125,924.1275 6523.8438,922.7838 Q6524.5781,921.4244 6525.8594,920.69 Q6527.1563,919.9556 6528.6094,919.9556 Q6529.4688,919.9556 6530.2188,920.1588 Q6530.9844,920.3619 6531.6406,920.7681 Z " fill="#000000"/><text fill="#000000" font-family="sans-serif" font-size="20" font-style="italic" lengthAdjust="spacing" textLength="71" x="6572.5" y="921.4517">«Entity»</text><text fill="#000000" font-family="sans-serif" font-size="20" lengthAdjust="spacing" textLength="127" x="6544.5" y="946.608">ShowDesigner</text><line style="stroke:#181818;stroke-width:0.5;" x1="6514.5" x2="6673.5" y1="956.0025" y2="956.0025"/><line style="stroke:#181818;stroke-width:0.5;" x1="6514.5" x2="6673.5" y1="964.0025" y2="964.0025"/></g><!--class Customer--><g id="elem_Customer"><rect codeLine="102" fill="#F1F1F1" height="76.3125" id="Customer" rx="2.5" ry="2.5" style="stroke:#181818;stroke-width:0.5;" width="119" x="6842" y="202.69"/><ellipse cx="6858" cy="232.8463" fill="#ADD1B2" rx="12" ry="12" style="stroke:#181818;stroke-width:1.0;"/><path d="M6860.1406,227.7681 Q6860.3281,227.5181 6860.5469,227.3931 Q6860.7656,227.2525 6861.0156,227.2525 Q6861.4531,227.2525 6861.7344,227.565 Q6862.0156,227.8619 6862.0156,228.5806 L6862.0156,230.2838 Q6862.0156,231.0025 6861.7344,231.315 Q6861.4531,231.6275 6861.0156,231.6275 Q6860.625,231.6275 6860.375,231.3931 Q6860.125,231.1744 6860.0156,230.565 Q6859.9531,230.1431 6859.7344,229.9244 Q6859.3438,229.4869 6858.625,229.2213 Q6857.9063,228.9556 6857.1875,228.9556 Q6856.2813,228.9556 6855.5313,229.3463 Q6854.7813,229.7369 6854.2031,230.6275 Q6853.625,231.5025 6853.625,232.7056 L6853.625,234.0025 Q6853.625,235.4556 6854.6719,236.4244 Q6855.7344,237.3931 6857.5938,237.3931 Q6858.7031,237.3931 6859.4844,237.0806 Q6859.9219,236.9088 6860.4375,236.3931 Q6860.75,236.0806 6860.9219,235.9869 Q6861.0938,235.8931 6861.3281,235.8931 Q6861.7188,235.8931 6862.0156,236.2056 Q6862.3281,236.5025 6862.3281,236.9088 Q6862.3281,237.315 6861.9219,237.7838 Q6861.3281,238.4713 6860.3906,238.8619 Q6859.125,239.3931 6857.6094,239.3931 Q6855.8281,239.3931 6854.4063,238.6588 Q6853.25,238.065 6852.4375,236.7994 Q6851.625,235.5338 6851.625,234.0494 L6851.625,232.69 Q6851.625,231.1275 6852.3438,229.7838 Q6853.0781,228.4244 6854.3594,227.69 Q6855.6563,226.9556 6857.1094,226.9556 Q6857.9688,226.9556 6858.7188,227.1588 Q6859.4844,227.3619 6860.1406,227.7681 Z " fill="#000000"/><text fill="#000000" font-family="sans-serif" font-size="20" font-style="italic" lengthAdjust="spacing" textLength="71" x="6880" y="228.4517">«Entity»</text><text fill="#000000" font-family="sans-serif" font-size="20" lengthAdjust="spacing" textLength="85" x="6873" y="253.608">Customer</text><line style="stroke:#181818;stroke-width:0.5;" x1="6843" x2="6960" y1="263.0025" y2="263.0025"/><line style="stroke:#181818;stroke-width:0.5;" x1="6843" x2="6960" y1="271.0025" y2="271.0025"/></g><!--class RepositoryFactory--><g id="elem_RepositoryFactory"><rect codeLine="47" fill="#F1F1F1" height="126.625" id="RepositoryFactory" rx="2.5" ry="2.5" style="stroke:#181818;stroke-width:0.5;" width="441" x="4512" y="714.19"/><ellipse cx="4647.5" cy="731.7681" fill="#B4A7E5" rx="12" ry="12" style="stroke:#181818;stroke-width:1.0;"/><path d="M4648.5,727.94 L4648.5,735.7681 L4650.5313,735.7681 Q4651.25,735.7681 4651.5469,736.0494 Q4651.8594,736.315 4651.8594,736.7681 Q4651.8594,737.2056 4651.5469,737.4869 Q4651.25,737.7681 4650.5313,737.7681 L4644.4844,737.7681 Q4643.75,737.7681 4643.4375,737.4869 Q4643.1406,737.2056 4643.1406,736.7681 Q4643.1406,736.315 4643.4375,736.0494 Q4643.75,735.7681 4644.4844,735.7681 L4646.5,735.7681 L4646.5,727.94 L4644.4844,727.94 Q4643.75,727.94 4643.4375,727.6588 Q4643.1406,727.3775 4643.1406,726.9244 Q4643.1406,726.4713 4643.4375,726.2056 Q4643.75,725.9244 4644.4844,725.9244 L4650.5313,725.9244 Q4651.25,725.9244 4651.5469,726.2056 Q4651.8594,726.4713 4651.8594,726.9244 Q4651.8594,727.3775 4651.5469,727.6588 Q4651.25,727.94 4650.5313,727.94 L4648.5,727.94 Z " fill="#000000"/><text fill="#000000" font-family="sans-serif" font-size="20" font-style="italic" lengthAdjust="spacing" textLength="161" x="4669.5" y="739.9517">RepositoryFactory</text><line style="stroke:#181818;stroke-width:0.5;" x1="4513" x2="4952" y1="749.3463" y2="749.3463"/><line style="stroke:#181818;stroke-width:0.5;" x1="4513" x2="4952" y1="757.3463" y2="757.3463"/><ellipse cx="4523" cy="775.4244" fill="#84BE84" rx="3" ry="3" style="stroke:#038048;stroke-width:1.0;"/><text fill="#000000" font-family="sans-serif" font-size="20" lengthAdjust="spacing" textLength="354" x="4533" y="782.108">getFigureRepository(): FigureRepository</text><ellipse cx="4523" cy="800.5806" fill="#84BE84" rx="3" ry="3" style="stroke:#038048;stroke-width:1.0;"/><text fill="#000000" font-family="sans-serif" font-size="20" lengthAdjust="spacing" textLength="406" x="4533" y="807.2642">getCategoryRepository(): CategoryRepository</text><ellipse cx="4523" cy="825.7369" fill="#84BE84" rx="3" ry="3" style="stroke:#038048;stroke-width:1.0;"/><text fill="#000000" font-family="sans-serif" font-size="20" lengthAdjust="spacing" textLength="414" x="4533" y="832.4205">getCustomerRepository(): CustomerRepository</text></g><!--class FigureRepository--><g id="elem_FigureRepository"><rect codeLine="53" fill="#F1F1F1" height="76.3125" id="FigureRepository" rx="2.5" ry="2.5" style="stroke:#181818;stroke-width:0.5;" width="198" x="5055.5" y="654.69"/><ellipse cx="5076.9" cy="672.2681" fill="#B4A7E5" rx="12" ry="12" style="stroke:#181818;stroke-width:1.0;"/><path d="M5077.9,668.44 L5077.9,676.2681 L5079.9313,676.2681 Q5080.65,676.2681 5080.9469,676.5494 Q5081.2594,676.815 5081.2594,677.2681 Q5081.2594,677.7056 5080.9469,677.9869 Q5080.65,678.2681 5079.9313,678.2681 L5073.8844,678.2681 Q5073.15,678.2681 5072.8375,677.9869 Q5072.5406,677.7056 5072.5406,677.2681 Q5072.5406,676.815 5072.8375,676.5494 Q5073.15,676.2681 5073.8844,676.2681 L5075.9,676.2681 L5075.9,668.44 L5073.8844,668.44 Q5073.15,668.44 5072.8375,668.1588 Q5072.5406,667.8775 5072.5406,667.4244 Q5072.5406,666.9713 5072.8375,666.7056 Q5073.15,666.4244 5073.8844,666.4244 L5079.9313,666.4244 Q5080.65,666.4244 5080.9469,666.7056 Q5081.2594,666.9713 5081.2594,667.4244 Q5081.2594,667.8775 5080.9469,668.1588 Q5080.65,668.44 5079.9313,668.44 L5077.9,668.44 Z " fill="#000000"/><text fill="#000000" font-family="sans-serif" font-size="20" font-style="italic" lengthAdjust="spacing" textLength="152" x="5093.1" y="680.4517">FigureRepository</text><line style="stroke:#181818;stroke-width:0.5;" x1="5056.5" x2="5252.5" y1="689.8463" y2="689.8463"/><line style="stroke:#181818;stroke-width:0.5;" x1="5056.5" x2="5252.5" y1="697.8463" y2="697.8463"/><ellipse cx="5066.5" cy="715.9244" fill="#84BE84" rx="3" ry="3" style="stroke:#038048;stroke-width:1.0;"/><text fill="#000000" font-family="sans-serif" font-size="20" lengthAdjust="spacing" textLength="171" x="5076.5" y="722.608">save(figure): Figure</text></g><!--class CategoryRepository--><g id="elem_CategoryRepository"><rect codeLine="57" fill="#F1F1F1" height="76.3125" id="CategoryRepository" rx="2.5" ry="2.5" style="stroke:#181818;stroke-width:0.5;" width="277" x="5016" y="765.69"/><ellipse cx="5062.6" cy="783.2681" fill="#B4A7E5" rx="12" ry="12" style="stroke:#181818;stroke-width:1.0;"/><path d="M5063.6,779.44 L5063.6,787.2681 L5065.6313,787.2681 Q5066.35,787.2681 5066.6469,787.5494 Q5066.9594,787.815 5066.9594,788.2681 Q5066.9594,788.7056 5066.6469,788.9869 Q5066.35,789.2681 5065.6313,789.2681 L5059.5844,789.2681 Q5058.85,789.2681 5058.5375,788.9869 Q5058.2406,788.7056 5058.2406,788.2681 Q5058.2406,787.815 5058.5375,787.5494 Q5058.85,787.2681 5059.5844,787.2681 L5061.6,787.2681 L5061.6,779.44 L5059.5844,779.44 Q5058.85,779.44 5058.5375,779.1588 Q5058.2406,778.8775 5058.2406,778.4244 Q5058.2406,777.9713 5058.5375,777.7056 Q5058.85,777.4244 5059.5844,777.4244 L5065.6313,777.4244 Q5066.35,777.4244 5066.6469,777.7056 Q5066.9594,777.9713 5066.9594,778.4244 Q5066.9594,778.8775 5066.6469,779.1588 Q5066.35,779.44 5065.6313,779.44 L5063.6,779.44 Z " fill="#000000"/><text fill="#000000" font-family="sans-serif" font-size="20" font-style="italic" lengthAdjust="spacing" textLength="175" x="5084.4" y="791.4517">CategoryRepository</text><line style="stroke:#181818;stroke-width:0.5;" x1="5017" x2="5292" y1="800.8463" y2="800.8463"/><line style="stroke:#181818;stroke-width:0.5;" x1="5017" x2="5292" y1="808.8463" y2="808.8463"/><ellipse cx="5027" cy="826.9244" fill="#84BE84" rx="3" ry="3" style="stroke:#038048;stroke-width:1.0;"/><text fill="#000000" font-family="sans-serif" font-size="20" lengthAdjust="spacing" textLength="250" x="5037" y="833.608">findAll(): Iterable&lt;Category&gt;</text></g><!--class CustomerRepository--><g id="elem_CustomerRepository"><rect codeLine="61" fill="#F1F1F1" height="76.3125" id="CustomerRepository" rx="2.5" ry="2.5" style="stroke:#181818;stroke-width:0.5;" width="281" x="5014" y="543.69"/><ellipse cx="5059.7" cy="561.2681" fill="#B4A7E5" rx="12" ry="12" style="stroke:#181818;stroke-width:1.0;"/><path d="M5060.7,557.44 L5060.7,565.2681 L5062.7313,565.2681 Q5063.45,565.2681 5063.7469,565.5494 Q5064.0594,565.815 5064.0594,566.2681 Q5064.0594,566.7056 5063.7469,566.9869 Q5063.45,567.2681 5062.7313,567.2681 L5056.6844,567.2681 Q5055.95,567.2681 5055.6375,566.9869 Q5055.3406,566.7056 5055.3406,566.2681 Q5055.3406,565.815 5055.6375,565.5494 Q5055.95,565.2681 5056.6844,565.2681 L5058.7,565.2681 L5058.7,557.44 L5056.6844,557.44 Q5055.95,557.44 5055.6375,557.1588 Q5055.3406,556.8775 5055.3406,556.4244 Q5055.3406,555.9713 5055.6375,555.7056 Q5055.95,555.4244 5056.6844,555.4244 L5062.7313,555.4244 Q5063.45,555.4244 5063.7469,555.7056 Q5064.0594,555.9713 5064.0594,556.4244 Q5064.0594,556.8775 5063.7469,557.1588 Q5063.45,557.44 5062.7313,557.44 L5060.7,557.44 Z " fill="#000000"/><text fill="#000000" font-family="sans-serif" font-size="20" font-style="italic" lengthAdjust="spacing" textLength="181" x="5081.3" y="569.4517">CustomerRepository</text><line style="stroke:#181818;stroke-width:0.5;" x1="5015" x2="5294" y1="578.8463" y2="578.8463"/><line style="stroke:#181818;stroke-width:0.5;" x1="5015" x2="5294" y1="586.8463" y2="586.8463"/><ellipse cx="5025" cy="604.9244" fill="#84BE84" rx="3" ry="3" style="stroke:#038048;stroke-width:1.0;"/><text fill="#000000" font-family="sans-serif" font-size="20" lengthAdjust="spacing" textLength="254" x="5035" y="611.608">findAll(): Iterable&lt;Customer&gt;</text></g><!--class AddFigureToCatalogueUI--><g id="elem_AddFigureToCatalogueUI"><rect codeLine="108" fill="#F1F1F1" height="176.9375" id="AddFigureToCatalogueUI" rx="2.5" ry="2.5" style="stroke:#181818;stroke-width:0.5;" width="1116" x="22" y="954.19"/><ellipse cx="465" cy="984.3463" fill="#ADD1B2" rx="12" ry="12" style="stroke:#181818;stroke-width:1.0;"/><path d="M467.1406,979.2681 Q467.3281,979.0181 467.5469,978.8931 Q467.7656,978.7525 468.0156,978.7525 Q468.4531,978.7525 468.7344,979.065 Q469.0156,979.3619 469.0156,980.0806 L469.0156,981.7838 Q469.0156,982.5025 468.7344,982.815 Q468.4531,983.1275 468.0156,983.1275 Q467.625,983.1275 467.375,982.8931 Q467.125,982.6744 467.0156,982.065 Q466.9531,981.6431 466.7344,981.4244 Q466.3438,980.9869 465.625,980.7213 Q464.9063,980.4556 464.1875,980.4556 Q463.2813,980.4556 462.5313,980.8463 Q461.7813,981.2369 461.2031,982.1275 Q460.625,983.0025 460.625,984.2056 L460.625,985.5025 Q460.625,986.9556 461.6719,987.9244 Q462.7344,988.8931 464.5938,988.8931 Q465.7031,988.8931 466.4844,988.5806 Q466.9219,988.4088 467.4375,987.8931 Q467.75,987.5806 467.9219,987.4869 Q468.0938,987.3931 468.3281,987.3931 Q468.7188,987.3931 469.0156,987.7056 Q469.3281,988.0025 469.3281,988.4088 Q469.3281,988.815 468.9219,989.2838 Q468.3281,989.9713 467.3906,990.3619 Q466.125,990.8931 464.6094,990.8931 Q462.8281,990.8931 461.4063,990.1588 Q460.25,989.565 459.4375,988.2994 Q458.625,987.0338 458.625,985.5494 L458.625,984.19 Q458.625,982.6275 459.3438,981.2838 Q460.0781,979.9244 461.3594,979.19 Q462.6563,978.4556 464.1094,978.4556 Q464.9688,978.4556 465.7188,978.6588 Q466.4844,978.8619 467.1406,979.2681 Z " fill="#000000"/><text fill="#000000" font-family="sans-serif" font-size="20" font-style="italic" lengthAdjust="spacing" textLength="41" x="577" y="979.9517">«UI»</text><text fill="#000000" font-family="sans-serif" font-size="20" lengthAdjust="spacing" textLength="221" x="487" y="1005.108">AddFigureToCatalogueUI</text><line style="stroke:#181818;stroke-width:0.5;" x1="23" x2="1137" y1="1014.5025" y2="1014.5025"/><line style="stroke:#181818;stroke-width:0.5;" x1="23" x2="1137" y1="1022.5025" y2="1022.5025"/><ellipse cx="33" cy="1040.5806" fill="#84BE84" rx="3" ry="3" style="stroke:#038048;stroke-width:1.0;"/><text fill="#000000" font-family="sans-serif" font-size="20" lengthAdjust="spacing" textLength="962" x="43" y="1047.2642">addPublicFigureToCatalogue(code, version, description, dslDescription, keywords, categories, showDesigner)</text><ellipse cx="33" cy="1065.7369" fill="#84BE84" rx="3" ry="3" style="stroke:#038048;stroke-width:1.0;"/><text fill="#000000" font-family="sans-serif" font-size="20" lengthAdjust="spacing" textLength="1089" x="43" y="1072.4205">addExclusiveFigureToCatalogue(code, version, description, dslDescription, keywords, categories, showDesigner, exclusivity)</text><ellipse cx="33" cy="1090.8931" fill="#84BE84" rx="3" ry="3" style="stroke:#038048;stroke-width:1.0;"/><text fill="#000000" font-family="sans-serif" font-size="20" lengthAdjust="spacing" textLength="245" x="43" y="1097.5767">showCategoriesAndSelect()</text><ellipse cx="33" cy="1116.0494" fill="#84BE84" rx="3" ry="3" style="stroke:#038048;stroke-width:1.0;"/><text fill="#000000" font-family="sans-serif" font-size="20" lengthAdjust="spacing" textLength="244" x="43" y="1122.733">showCustomersAndSelect()</text></g><!--class AddFigureToCatalogueController--><g id="elem_AddFigureToCatalogueController"><rect codeLine="117" fill="#F1F1F1" height="176.9375" id="AddFigureToCatalogueController" rx="2.5" ry="2.5" style="stroke:#181818;stroke-width:0.5;" width="1197" x="1203" y="954.19"/><ellipse cx="1653.5" cy="984.3463" fill="#ADD1B2" rx="12" ry="12" style="stroke:#181818;stroke-width:1.0;"/><path d="M1655.6406,979.2681 Q1655.8281,979.0181 1656.0469,978.8931 Q1656.2656,978.7525 1656.5156,978.7525 Q1656.9531,978.7525 1657.2344,979.065 Q1657.5156,979.3619 1657.5156,980.0806 L1657.5156,981.7838 Q1657.5156,982.5025 1657.2344,982.815 Q1656.9531,983.1275 1656.5156,983.1275 Q1656.125,983.1275 1655.875,982.8931 Q1655.625,982.6744 1655.5156,982.065 Q1655.4531,981.6431 1655.2344,981.4244 Q1654.8438,980.9869 1654.125,980.7213 Q1653.4063,980.4556 1652.6875,980.4556 Q1651.7813,980.4556 1651.0313,980.8463 Q1650.2813,981.2369 1649.7031,982.1275 Q1649.125,983.0025 1649.125,984.2056 L1649.125,985.5025 Q1649.125,986.9556 1650.1719,987.9244 Q1651.2344,988.8931 1653.0938,988.8931 Q1654.2031,988.8931 1654.9844,988.5806 Q1655.4219,988.4088 1655.9375,987.8931 Q1656.25,987.5806 1656.4219,987.4869 Q1656.5938,987.3931 1656.8281,987.3931 Q1657.2188,987.3931 1657.5156,987.7056 Q1657.8281,988.0025 1657.8281,988.4088 Q1657.8281,988.815 1657.4219,989.2838 Q1656.8281,989.9713 1655.8906,990.3619 Q1654.625,990.8931 1653.1094,990.8931 Q1651.3281,990.8931 1649.9063,990.1588 Q1648.75,989.565 1647.9375,988.2994 Q1647.125,987.0338 1647.125,985.5494 L1647.125,984.19 Q1647.125,982.6275 1647.8438,981.2838 Q1648.5781,979.9244 1649.8594,979.19 Q1651.1563,978.4556 1652.6094,978.4556 Q1653.4688,978.4556 1654.2188,978.6588 Q1654.9844,978.8619 1655.6406,979.2681 Z " fill="#000000"/><text fill="#000000" font-family="sans-serif" font-size="20" font-style="italic" lengthAdjust="spacing" textLength="109" x="1764.5" y="979.9517">«Controller»</text><text fill="#000000" font-family="sans-serif" font-size="20" lengthAdjust="spacing" textLength="287" x="1675.5" y="1005.108">AddFigureToCatalogueController</text><line style="stroke:#181818;stroke-width:0.5;" x1="1204" x2="2399" y1="1014.5025" y2="1014.5025"/><line style="stroke:#181818;stroke-width:0.5;" x1="1204" x2="2399" y1="1022.5025" y2="1022.5025"/><ellipse cx="1214" cy="1040.5806" fill="#84BE84" rx="3" ry="3" style="stroke:#038048;stroke-width:1.0;"/><text fill="#000000" font-family="sans-serif" font-size="20" lengthAdjust="spacing" textLength="1043" x="1224" y="1047.2642">addPublicFigureToCatalogue(code, version, description, dslDescription, keywords, categories, showDesigner): boolean</text><ellipse cx="1214" cy="1065.7369" fill="#84BE84" rx="3" ry="3" style="stroke:#038048;stroke-width:1.0;"/><text fill="#000000" font-family="sans-serif" font-size="20" lengthAdjust="spacing" textLength="1170" x="1224" y="1072.4205">addExclusiveFigureToCatalogue(code, version, description, dslDescription, keywords, categories, showDesigner, exclusivity): boolean</text><ellipse cx="1214" cy="1090.8931" fill="#84BE84" rx="3" ry="3" style="stroke:#038048;stroke-width:1.0;"/><text fill="#000000" font-family="sans-serif" font-size="20" lengthAdjust="spacing" textLength="318" x="1224" y="1097.5767">listCategories(): Iterable&lt;Category&gt;</text><ellipse cx="1214" cy="1116.0494" fill="#84BE84" rx="3" ry="3" style="stroke:#038048;stroke-width:1.0;"/><text fill="#000000" font-family="sans-serif" font-size="20" lengthAdjust="spacing" textLength="321" x="1224" y="1122.733">listCustomers(): Iterable&lt;Customer&gt;</text></g><!--link PersistenceContext to RepositoryFactory--><g id="link_PersistenceContext_RepositoryFactory"><path codeLine="128" d="M3075.09,812.27 C3311.2,826.28 3714.08,844.32 4060,830.69 C4209.11,824.81 4376.42,811.63 4506.73,799.88 " fill="none" id="PersistenceContext-to-RepositoryFactory" style="stroke:#181818;stroke-width:1.0;stroke-dasharray:7.0,7.0;"/><polygon fill="#181818" points="4511.74,799.43,4502.4124,796.2685,4506.7609,799.8865,4503.1428,804.2351,4511.74,799.43" style="stroke:#181818;stroke-width:1.0;"/><text fill="#000000" font-family="sans-serif" font-size="20" lengthAdjust="spacing" textLength="158" x="3822.5" y="775.4517">figureRepository()</text><text fill="#000000" font-family="sans-serif" font-size="20" lengthAdjust="spacing" textLength="186" x="3808.5" y="800.608">categoryRepository()</text><text fill="#000000" font-family="sans-serif" font-size="20" lengthAdjust="spacing" textLength="190" x="3806.5" y="825.7642">customerRepository()</text></g><!--link PersistenceContext to JpaRepositoryFactory--><g id="link_PersistenceContext_JpaRepositoryFactory"><path codeLine="129" d="M2906.07,760.44 C2980.73,672.74 3164.48,456.93 3251.01,355.29 " fill="none" id="PersistenceContext-to-JpaRepositoryFactory" style="stroke:#181818;stroke-width:1.0;stroke-dasharray:7.0,7.0;"/><polygon fill="#181818" points="3254.3,351.43,3245.4151,355.6794,3251.0543,355.2333,3251.5004,360.8726,3254.3,351.43" style="stroke:#181818;stroke-width:1.0;"/></g><!--link PersistenceContext to InMemoryRepositoryFactory--><g id="link_PersistenceContext_InMemoryRepositoryFactory"><path codeLine="130" d="M3075.18,761.38 C3269.05,725.51 3558.38,671.98 3737.94,638.76 " fill="none" id="PersistenceContext-to-InMemoryRepositoryFactory" style="stroke:#181818;stroke-width:1.0;stroke-dasharray:7.0,7.0;"/><polygon fill="#181818" points="3742.95,637.84,3733.3702,635.5537,3738.0343,638.7545,3734.8335,643.4187,3742.95,637.84" style="stroke:#181818;stroke-width:1.0;"/></g><!--link JpaFigureRepository to FigureRepository--><g id="link_JpaFigureRepository_FigureRepository"><path codeLine="135" d="M4009.93,234.94 C4255.96,226.54 4849.42,221.04 4984,355.69 C5028.39,400.11 4976.11,586.61 5014,636.69 C5020.56,645.36 5028.68,652.69 5037.68,658.89 " fill="none" id="JpaFigureRepository-to-FigureRepository" style="stroke:#181818;stroke-width:1.0;"/><polygon fill="none" points="5041.53,653.03,5055.27,669.17,5034.47,665.12,5041.53,653.03" style="stroke:#181818;stroke-width:1.0;"/></g><!--link JpaCategoryRepository to CategoryRepository--><g id="link_JpaCategoryRepository_CategoryRepository"><path codeLine="138" d="M4022.54,330.51 C4235.19,345.19 4681.21,404.37 4953,642.69 C4972.94,660.18 4970.67,670.76 4984,693.69 C4997.8,717.43 4993.41,729.53 5014,747.69 C5016.59,749.97 5019.29,752.17 5022.07,754.29 " fill="none" id="JpaCategoryRepository-to-CategoryRepository" style="stroke:#181818;stroke-width:1.0;"/><polygon fill="none" points="5026.1,748.56,5038.83,765.5,5018.32,760.2,5026.1,748.56" style="stroke:#181818;stroke-width:1.0;"/></g><!--link JpaCustomerRepository to CustomerRepository--><g id="link_JpaCustomerRepository_CustomerRepository"><path codeLine="141" d="M4001.48,128.14 C4205.38,81.64 4678.66,6 4984,213.69 C5089.22,285.26 5130.38,439.47 5145.47,523.76 " fill="none" id="JpaCustomerRepository-to-CustomerRepository" style="stroke:#181818;stroke-width:1.0;"/><polygon fill="none" points="5152.39,522.72,5148.76,543.6,5138.58,525.01,5152.39,522.72" style="stroke:#181818;stroke-width:1.0;"/></g><!--link JpaRepositoryFactory to RepositoryFactory--><g id="link_JpaRepositoryFactory_RepositoryFactory"><path codeLine="144" d="M3339.51,351.33 C3407.77,433.88 3555.34,596.2 3719,675.69 C3850.68,739.65 4236.18,763.54 4491.69,772.44 " fill="none" id="JpaRepositoryFactory-to-RepositoryFactory" style="stroke:#181818;stroke-width:1.0;stroke-dasharray:7.0,7.0;"/><polygon fill="none" points="4492.02,765.45,4511.77,773.12,4491.55,779.44,4492.02,765.45" style="stroke:#181818;stroke-width:1.0;"/></g><!--link JpaRepositoryFactory to JpaFigureRepository--><g id="link_JpaRepositoryFactory_JpaFigureRepository"><path codeLine="145" d="M3457.01,284.7 C3560.95,274.15 3694.65,260.58 3787.95,251.11 " fill="none" id="JpaRepositoryFactory-to-JpaFigureRepository" style="stroke:#181818;stroke-width:1.0;stroke-dasharray:7.0,7.0;"/><polygon fill="#181818" points="3793.2,250.58,3783.8458,247.498,3788.225,251.0789,3784.6441,255.4581,3793.2,250.58" style="stroke:#181818;stroke-width:1.0;"/></g><!--link JpaRepositoryFactory to JpaCategoryRepository--><g id="link_JpaRepositoryFactory_JpaCategoryRepository"><path codeLine="146" d="M3457.01,307.24 C3556.17,311.37 3682.42,316.62 3774.83,320.46 " fill="none" id="JpaRepositoryFactory-to-JpaCategoryRepository" style="stroke:#181818;stroke-width:1.0;stroke-dasharray:7.0,7.0;"/><polygon fill="#181818" points="3780.04,320.68,3771.2071,316.3235,3775.044,320.4802,3770.8873,324.3171,3780.04,320.68" style="stroke:#181818;stroke-width:1.0;"/></g><!--link JpaRepositoryFactory to JpaCustomerRepository--><g id="link_JpaRepositoryFactory_JpaCustomerRepository"><path codeLine="147" d="M3457.27,261.16 C3535.88,241.58 3632.4,217.68 3719,196.69 C3740.94,191.37 3764.4,185.76 3786.91,180.41 " fill="none" id="JpaRepositoryFactory-to-JpaCustomerRepository" style="stroke:#181818;stroke-width:1.0;stroke-dasharray:7.0,7.0;"/><polygon fill="#181818" points="3792,179.2,3782.3243,177.3614,3787.1322,180.342,3784.1515,185.1499,3792,179.2" style="stroke:#181818;stroke-width:1.0;"/></g><!--link InMemoryFigureRepository to FigureRepository--><g id="link_InMemoryFigureRepository_FigureRepository"><path codeLine="152" d="M4408.14,548.73 C4553.03,552.88 4788.61,568.43 4984,622.69 C4998.18,626.63 5000.5,630.84 5014,636.69 C5021.85,640.1 5029.98,643.55 5038.19,646.98 " fill="none" id="InMemoryFigureRepository-to-FigureRepository" style="stroke:#181818;stroke-width:1.0;stroke-dasharray:7.0,7.0;"/><polygon fill="none" points="5040.98,640.55,5056.78,654.67,5035.63,653.49,5040.98,640.55" style="stroke:#181818;stroke-width:1.0;"/></g><!--link InMemoryCategoryRepository to CategoryRepository--><g id="link_InMemoryCategoryRepository_CategoryRepository"><path codeLine="155" d="M4421.29,637.17 C4591.81,642.96 4860.16,658.05 4953,696.69 C4985.63,710.27 4983.67,729.55 5014,747.69 C5019.21,750.8 5024.62,753.82 5030.16,756.72 " fill="none" id="InMemoryCategoryRepository-to-CategoryRepository" style="stroke:#181818;stroke-width:1.0;stroke-dasharray:7.0,7.0;"/><polygon fill="none" points="5033.32,750.47,5048.16,765.59,5027.13,763.03,5033.32,750.47" style="stroke:#181818;stroke-width:1.0;"/></g><!--link InMemoryCustomerRepository to CustomerRepository--><g id="link_InMemoryCustomerRepository_CustomerRepository"><path codeLine="158" d="M4321.34,436.03 C4440.77,376.42 4756.56,241.97 4984,355.69 C5054.24,390.81 5102.93,470.41 5129.54,525.11 " fill="none" id="InMemoryCustomerRepository-to-CustomerRepository" style="stroke:#181818;stroke-width:1.0;stroke-dasharray:7.0,7.0;"/><polygon fill="none" points="5135.92,522.22,5138.03,543.31,5123.23,528.14,5135.92,522.22" style="stroke:#181818;stroke-width:1.0;"/></g><!--link InMemoryRepositoryFactory to RepositoryFactory--><g id="link_InMemoryRepositoryFactory_RepositoryFactory"><path codeLine="161" d="M4055.46,659.21 C4077.33,665.58 4099.64,671.63 4121,676.69 C4242.04,705.39 4378.5,728.8 4491.65,745.82 " fill="none" id="InMemoryRepositoryFactory-to-RepositoryFactory" style="stroke:#181818;stroke-width:1.0;stroke-dasharray:7.0,7.0;"/><polygon fill="none" points="4493.02,738.95,4511.77,748.82,4490.96,752.79,4493.02,738.95" style="stroke:#181818;stroke-width:1.0;"/></g><!--link InMemoryRepositoryFactory to InMemoryFigureRepository--><g id="link_InMemoryRepositoryFactory_InMemoryFigureRepository"><path codeLine="162" d="M4060.11,582.6 C4083.56,578.72 4107.59,574.74 4130.65,570.92 " fill="none" id="InMemoryRepositoryFactory-to-InMemoryFigureRepository" style="stroke:#181818;stroke-width:1.0;stroke-dasharray:7.0,7.0;"/><polygon fill="#181818" points="4135.86,570.06,4126.3283,567.5806,4130.9269,570.875,4127.6324,575.4736,4135.86,570.06" style="stroke:#181818;stroke-width:1.0;"/></g><!--link InMemoryRepositoryFactory to InMemoryCategoryRepository--><g id="link_InMemoryRepositoryFactory_InMemoryCategoryRepository"><path codeLine="163" d="M4060.11,619.38 C4079.14,620.67 4098.56,621.99 4117.53,623.28 " fill="none" id="InMemoryRepositoryFactory-to-InMemoryCategoryRepository" style="stroke:#181818;stroke-width:1.0;stroke-dasharray:7.0,7.0;"/><polygon fill="#181818" points="4122.87,623.64,4114.1656,619.032,4117.8818,623.297,4113.6168,627.0131,4122.87,623.64" style="stroke:#181818;stroke-width:1.0;"/></g><!--link InMemoryRepositoryFactory to InMemoryCustomerRepository--><g id="link_InMemoryRepositoryFactory_InMemoryCustomerRepository"><path codeLine="164" d="M3999.98,558.06 C4037.25,539.83 4080.53,520 4121,504.69 C4136.04,499 4152.17,493.64 4168.08,488.75 " fill="none" id="InMemoryRepositoryFactory-to-InMemoryCustomerRepository" style="stroke:#181818;stroke-width:1.0;stroke-dasharray:7.0,7.0;"/><polygon fill="#181818" points="4173,487.25,4163.2241,486.0531,4168.218,488.7104,4165.5607,493.7042,4173,487.25" style="stroke:#181818;stroke-width:1.0;"/></g><!--link FigureRepository to Figure--><g id="link_FigureRepository_Figure"><path codeLine="169" d="M5253.71,692.69 C5298.27,692.69 5354.44,692.69 5414.56,692.69 " fill="none" id="FigureRepository-to-Figure" style="stroke:#181818;stroke-width:1.0;stroke-dasharray:7.0,7.0;"/><polygon fill="#181818" points="5419.64,692.69,5410.64,688.69,5414.64,692.69,5410.64,696.69,5419.64,692.69" style="stroke:#181818;stroke-width:1.0;"/></g><!--link CategoryRepository to Category--><g id="link_CategoryRepository_Category"><path codeLine="172" d="M5293.01,826.74 C5596.97,877.7 6316.09,998.27 6531.18,1034.33 " fill="none" id="CategoryRepository-to-Category" style="stroke:#181818;stroke-width:1.0;stroke-dasharray:7.0,7.0;"/><polygon fill="#181818" points="6536.17,1035.16,6527.9577,1029.7233,6531.2392,1034.3311,6526.6314,1037.6125,6536.17,1035.16" style="stroke:#181818;stroke-width:1.0;"/></g><!--link CustomerRepository to Customer--><g id="link_CustomerRepository_Customer"><path codeLine="175" d="M5157.71,543.43 C5165.65,445.54 5201.28,193.69 5358,193.69 C5358,193.69 5358,193.69 6595,193.69 C6691.85,193.69 6716.96,195.02 6812,213.69 C6820.09,215.28 6828.5,217.32 6836.77,219.56 " fill="none" id="CustomerRepository-to-Customer" style="stroke:#181818;stroke-width:1.0;stroke-dasharray:7.0,7.0;"/><polygon fill="#181818" points="6841.9,220.98,6834.2884,214.7299,6837.0802,219.6499,6832.1602,222.4417,6841.9,220.98" style="stroke:#181818;stroke-width:1.0;"/></g><!--link RepositoryFactory to FigureRepository--><g id="link_RepositoryFactory_FigureRepository"><path codeLine="178" d="M4953.03,733.26 C4986.94,726.4 5020.5,719.61 5050.2,713.6 " fill="none" id="RepositoryFactory-to-FigureRepository" style="stroke:#181818;stroke-width:1.0;stroke-dasharray:7.0,7.0;"/><polygon fill="#181818" points="5055.31,712.56,5045.6919,710.4404,5050.411,713.5598,5047.2916,718.2789,5055.31,712.56" style="stroke:#181818;stroke-width:1.0;"/></g><!--link RepositoryFactory to CategoryRepository--><g id="link_RepositoryFactory_CategoryRepository"><path codeLine="179" d="M4953.03,791.28 C4972.56,792.49 4991.97,793.69 5010.6,794.84 " fill="none" id="RepositoryFactory-to-CategoryRepository" style="stroke:#181818;stroke-width:1.0;stroke-dasharray:7.0,7.0;"/><polygon fill="#181818" points="5015.83,795.17,5007.0987,790.6133,5010.8398,794.8563,5006.5968,798.5975,5015.83,795.17" style="stroke:#181818;stroke-width:1.0;"/></g><!--link RepositoryFactory to CustomerRepository--><g id="link_RepositoryFactory_CustomerRepository"><path codeLine="180" d="M4854.2,714.02 C4903.3,688.91 4960.89,660.45 5014,636.69 C5025.22,631.67 5037.05,626.63 5048.89,621.75 " fill="none" id="RepositoryFactory-to-CustomerRepository" style="stroke:#181818;stroke-width:1.0;stroke-dasharray:7.0,7.0;"/><polygon fill="#181818" points="5053.6,619.81,5043.7552,619.5273,5048.9745,621.7087,5046.7932,626.9281,5053.6,619.81" style="stroke:#181818;stroke-width:1.0;"/></g><!--link Figure to DSLDescription--><g id="link_Figure_DSLDescription"><path codeLine="185" d="M6093.88,629.16 C6232.64,590.38 6402.31,542.97 6503.8,514.61 " fill="none" id="Figure-to-DSLDescription" style="stroke:#181818;stroke-width:1.0;"/><polygon fill="#181818" points="6508.88,513.19,6499.1373,511.7477,6504.0628,514.5297,6501.2808,519.4552,6508.88,513.19" style="stroke:#181818;stroke-width:1.0;"/><text fill="#000000" font-family="sans-serif" font-size="20" lengthAdjust="spacing" textLength="136" x="6342" y="519.4517">DSLDescription</text><text fill="#000000" font-family="sans-serif" font-size="20" lengthAdjust="spacing" textLength="11" x="6490.0923" y="537.0388">1</text></g><!--link Figure to Keyword--><g id="link_Figure_Keyword"><path codeLine="186" d="M6013.52,629.15 C6161.4,565.23 6384.45,468.83 6506.18,416.21 " fill="none" id="Figure-to-Keyword" style="stroke:#181818;stroke-width:1.0;"/><polygon fill="#181818" points="6510.83,414.21,6500.9817,414.1045,6506.2395,416.1916,6504.1523,421.4494,6510.83,414.21" style="stroke:#181818;stroke-width:1.0;"/><text fill="#000000" font-family="sans-serif" font-size="20" lengthAdjust="spacing" textLength="85" x="6367.5" y="426.4517">keywords</text><text fill="#000000" font-family="sans-serif" font-size="20" lengthAdjust="spacing" textLength="31" x="6471.9672" y="438.7921">1..*</text></g><!--link Figure to Code--><g id="link_Figure_Code"><path codeLine="187" d="M6221.5,756.21 C6327.33,775.15 6434.09,794.26 6505.83,807.09 " fill="none" id="Figure-to-Code" style="stroke:#181818;stroke-width:1.0;"/><polygon fill="#181818" points="6510.94,808.01,6502.7739,802.5041,6506.0164,807.1394,6501.381,810.3819,6510.94,808.01" style="stroke:#181818;stroke-width:1.0;"/><text fill="#000000" font-family="sans-serif" font-size="20" lengthAdjust="spacing" textLength="43" x="6388.5" y="775.4517">code</text><text fill="#000000" font-family="sans-serif" font-size="20" lengthAdjust="spacing" textLength="11" x="6492.0526" y="828.5706">1</text></g><!--link Figure to Version--><g id="link_Figure_Version"><path codeLine="188" d="M6311.08,704.32 C6384.98,706.25 6454.15,708.06 6505.48,709.4 " fill="none" id="Figure-to-Version" style="stroke:#181818;stroke-width:1.0;"/><polygon fill="#181818" points="6510.7,709.54,6501.8058,705.31,6505.7017,709.4115,6501.6002,713.3073,6510.7,709.54" style="stroke:#181818;stroke-width:1.0;"/><text fill="#000000" font-family="sans-serif" font-size="20" lengthAdjust="spacing" textLength="62" x="6379" y="700.4517">version</text><text fill="#000000" font-family="sans-serif" font-size="20" lengthAdjust="spacing" textLength="11" x="6492.0687" y="731.1845">1</text></g><!--link Figure to Description--><g id="link_Figure_Description"><path codeLine="189" d="M6311.08,636.39 C6384.98,627.03 6454.15,618.27 6505.48,611.77 " fill="none" id="Figure-to-Description" style="stroke:#181818;stroke-width:1.0;"/><polygon fill="#181818" points="6510.7,611.11,6501.2693,608.2705,6505.7395,611.7372,6502.2728,616.2073,6510.7,611.11" style="stroke:#181818;stroke-width:1.0;"/><text fill="#000000" font-family="sans-serif" font-size="20" lengthAdjust="spacing" textLength="95" x="6362.5" y="611.4517">description</text><text fill="#000000" font-family="sans-serif" font-size="20" lengthAdjust="spacing" textLength="11" x="6492.0687" y="633.8347">1</text></g><!--link Figure to Category--><g id="link_Figure_Category"><path codeLine="190" d="M5991.87,756.33 C6087.24,804.43 6221.91,871.68 6341,928.69 C6405.83,959.73 6480.72,994 6531.91,1017.19 " fill="none" id="Figure-to-Category" style="stroke:#181818;stroke-width:1.0;"/><polygon fill="#181818" points="6536.47,1019.26,6529.9128,1011.9113,6531.9128,1017.2028,6526.6213,1019.2029,6536.47,1019.26" style="stroke:#181818;stroke-width:1.0;"/><text fill="#000000" font-family="sans-serif" font-size="20" lengthAdjust="spacing" textLength="92" x="6364" y="923.4517">categories</text><text fill="#000000" font-family="sans-serif" font-size="20" lengthAdjust="spacing" textLength="31" x="6497.4823" y="1038.599">1..*</text></g><!--link Figure to ShowDesigner--><g id="link_Figure_ShowDesigner"><path codeLine="191" d="M6058.33,756.33 C6204.55,804.83 6398.86,869.29 6508.44,905.64 " fill="none" id="Figure-to-ShowDesigner" style="stroke:#181818;stroke-width:1.0;"/><polygon fill="#181818" points="6513.27,907.24,6506.0028,900.5926,6508.528,905.6546,6503.4661,908.1798,6513.27,907.24" style="stroke:#181818;stroke-width:1.0;"/><text fill="#000000" font-family="sans-serif" font-size="20" lengthAdjust="spacing" textLength="94" x="6363" y="851.4517">created by</text><text fill="#000000" font-family="sans-serif" font-size="20" lengthAdjust="spacing" textLength="11" x="6494.5901" y="926.7523">1</text></g><!--link Figure to Exclusivity--><g id="link_Figure_Exclusivity"><path codeLine="192" d="M5963.19,629.01 C6058.06,567.34 6207.52,472.31 6341,396.69 C6403.37,361.36 6476.47,324.41 6527.82,299.16 " fill="none" id="Figure-to-Exclusivity" style="stroke:#181818;stroke-width:1.0;"/><polygon fill="#181818" points="6532.41,296.91,6522.5682,297.2817,6527.9208,299.1117,6526.0909,304.4644,6532.41,296.91" style="stroke:#181818;stroke-width:1.0;"/><text fill="#000000" font-family="sans-serif" font-size="20" lengthAdjust="spacing" textLength="87" x="6366.5" y="319.4517">exclusivity</text><text fill="#000000" font-family="sans-serif" font-size="20" lengthAdjust="spacing" textLength="34" x="6490.3054" y="321.966">0..1</text></g><!--link Exclusivity to Customer--><g id="link_Exclusivity_Customer"><path codeLine="195" d="M6655.72,262.32 C6708.15,257.69 6783.63,251.02 6836.88,246.31 " fill="none" id="Exclusivity-to-Customer" style="stroke:#181818;stroke-width:1.0;"/><polygon fill="#181818" points="6841.97,245.86,6832.6514,242.672,6836.9896,246.3024,6833.3592,250.6406,6841.97,245.86" style="stroke:#181818;stroke-width:1.0;"/><text fill="#000000" font-family="sans-serif" font-size="20" lengthAdjust="spacing" textLength="101" x="6710" y="243.4517">exclusive to</text><text fill="#000000" font-family="sans-serif" font-size="20" lengthAdjust="spacing" textLength="11" x="6823.0445" y="268.7657">1</text></g><!--link AddFigureToCatalogueUI to AddFigureToCatalogueController--><g id="link_AddFigureToCatalogueUI_AddFigureToCatalogueController"><path codeLine="200" d="M1138.11,1042.69 C1157.93,1042.69 1177.82,1042.69 1197.71,1042.69 " fill="none" id="AddFigureToCatalogueUI-to-AddFigureToCatalogueController" style="stroke:#181818;stroke-width:1.0;stroke-dasharray:7.0,7.0;"/><polygon fill="#181818" points="1202.76,1042.69,1193.76,1038.69,1197.76,1042.69,1193.76,1046.69,1202.76,1042.69" style="stroke:#181818;stroke-width:1.0;"/></g><!--link AddFigureToCatalogueController to PersistenceContext--><g id="link_AddFigureToCatalogueController_PersistenceContext"><path codeLine="205" d="M2190.32,954.17 C2365.05,914.29 2562.45,869.23 2699.59,837.93 " fill="none" id="AddFigureToCatalogueController-to-PersistenceContext" style="stroke:#181818;stroke-width:1.0;stroke-dasharray:7.0,7.0;"/><polygon fill="#181818" points="2704.85,836.73,2695.1847,834.8375,2699.9759,837.8449,2696.9685,842.6361,2704.85,836.73" style="stroke:#181818;stroke-width:1.0;"/><text fill="#000000" font-family="sans-serif" font-size="20" lengthAdjust="spacing" textLength="204" x="2433" y="848.4517">getRepositoryFactory()</text></g><!--link AddFigureToCatalogueController to RepositoryFactory--><g id="link_AddFigureToCatalogueController_RepositoryFactory"><path codeLine="206" d="M2400.29,1069.93 C2553.83,1074.97 2718.77,1078.69 2871.5,1078.69 C2871.5,1078.69 2871.5,1078.69 4273,1078.69 C4356.76,1078.69 4382.29,1073.47 4456,1033.69 C4544.13,986.12 4625.55,903.66 4676.67,845.19 " fill="none" id="AddFigureToCatalogueController-to-RepositoryFactory" style="stroke:#181818;stroke-width:1.0;stroke-dasharray:7.0,7.0;"/><polygon fill="#181818" points="4679.99,841.37,4671.0621,845.5284,4676.7056,845.14,4677.094,850.7835,4679.99,841.37" style="stroke:#181818;stroke-width:1.0;"/><text fill="#000000" font-family="sans-serif" font-size="20" lengthAdjust="spacing" textLength="192" x="3503" y="1073.4517">getFigureRepository()</text></g><!--link AddFigureToCatalogueController to RepositoryFactory--><g id="link_AddFigureToCatalogueController_RepositoryFactory"><path codeLine="207" d="M2400.07,962.42 C2553.43,947.6 2718.34,936.69 2871.5,936.69 C2871.5,936.69 2871.5,936.69 4273,936.69 C4393.34,936.69 4522.13,887.19 4612.48,843.43 " fill="none" id="AddFigureToCatalogueController-to-RepositoryFactory-1" style="stroke:#181818;stroke-width:1.0;stroke-dasharray:7.0,7.0;"/><polygon fill="#181818" points="4617.02,841.22,4607.1768,841.5541,4612.5225,843.4045,4610.672,848.7502,4617.02,841.22" style="stroke:#181818;stroke-width:1.0;"/><text fill="#000000" font-family="sans-serif" font-size="20" lengthAdjust="spacing" textLength="218" x="3490" y="931.4517">getCategoryRepository()</text></g><!--link AddFigureToCatalogueController to RepositoryFactory--><g id="link_AddFigureToCatalogueController_RepositoryFactory"><path codeLine="208" d="M2400.3,1016.21 C2553.83,1011.3 2718.77,1007.69 2871.5,1007.69 C2871.5,1007.69 2871.5,1007.69 4273,1007.69 C4419.62,1007.69 4567.28,912.56 4654.01,844.66 " fill="none" id="AddFigureToCatalogueController-to-RepositoryFactory-2" style="stroke:#181818;stroke-width:1.0;stroke-dasharray:7.0,7.0;"/><polygon fill="#181818" points="4658.09,841.45,4648.5469,843.885,4654.1649,844.5473,4653.5026,850.1652,4658.09,841.45" style="stroke:#181818;stroke-width:1.0;"/><text fill="#000000" font-family="sans-serif" font-size="20" lengthAdjust="spacing" textLength="222" x="3488" y="1002.4517">getCustomerRepository()</text></g><!--link AddFigureToCatalogueController to FigureRepository--><g id="link_AddFigureToCatalogueController_FigureRepository"><path codeLine="209" d="M2400.22,1130.57 C2553.48,1146.77 2718.31,1158.69 2871.5,1158.69 C2871.5,1158.69 2871.5,1158.69 4733.5,1158.69 C4898.71,1158.69 4864.25,998.04 4953,858.69 C4983.24,811.21 4971.75,784.89 5014,747.69 C5024.88,738.11 5037.64,730.09 5050.93,723.41 " fill="none" id="AddFigureToCatalogueController-to-FigureRepository" style="stroke:#181818;stroke-width:1.0;stroke-dasharray:7.0,7.0;"/><polygon fill="#181818" points="5055.45,721.2,5045.6077,721.5594,5050.9581,723.3961,5049.1214,728.7464,5055.45,721.2" style="stroke:#181818;stroke-width:1.0;"/><text fill="#000000" font-family="sans-serif" font-size="20" lengthAdjust="spacing" textLength="104" x="3849.5" y="1153.4517">save(figure)</text></g><!--link AddFigureToCatalogueController to CategoryRepository--><g id="link_AddFigureToCatalogueController_CategoryRepository"><path codeLine="210" d="M2087.82,1131.25 C2301.42,1189.75 2601.95,1255.69 2871.5,1255.69 C2871.5,1255.69 2871.5,1255.69 4733.5,1255.69 C4849.22,1255.69 4896.56,1260.49 4984,1184.69 C5088.65,1093.97 5131.55,926.08 5146.55,847.01 " fill="none" id="AddFigureToCatalogueController-to-CategoryRepository" style="stroke:#181818;stroke-width:1.0;stroke-dasharray:7.0,7.0;"/><polygon fill="#181818" points="5147.49,841.94,5141.9113,850.0565,5146.5755,846.8557,5149.7763,851.5198,5147.49,841.94" style="stroke:#181818;stroke-width:1.0;"/><text fill="#000000" font-family="sans-serif" font-size="20" lengthAdjust="spacing" textLength="66" x="3868.5" y="1250.4517">findAll()</text></g><!--SRC=[pLXDRziu4BtxLn3PGvpTH6ZtA0G2Wdm0xWTQR3OzxOMMnWeJcZGaEarsc_- -8ucIA7CeAmY2LXTRcZTlo9aH-QZoNgWDB_XQwlGUCfR1Yc-bkTBAN8j_WVtvRbQ2OILK8ACBfhI2cOILOKQpGkItXcMYWDG8hMQp3K_lUGxiu2iKfIWDg1Hls6yNzSN-cp6yKidBaZc8Sum6ZyQQg-iFbeFv2pQw51ZqwOgdrS_yA6RUmzhdUVRi1D_qr95ORsHqj-7q83vik4Ve3EE41CoFXkDSgD9mZ3Ksl67CAv5l2-YnDkGkx9mRoD6y7xWjZLv3GG574oFK6jO8fxEpK9zhwtYAWgXNvgdbdPAi5ZijOnqwd3OtQnTwpOLoKrI3EhlZxe6gIs1t5okERy9O8hiqxSwtIjVkCz_BdtdbvpybFBqir9xUqyxpcPfQe4fzf98_m7nLexe9ZLC6YzcJheJApgIi1hn0DxwKSDgw9NlOGyNVmsxTF7RxSzZCZ9tbUG4v3iNfEsiwFRrKHfYd974NlCOuJtK6n-oXUb6rEiRrk4mBiJ7DJIaltFjxUFgkYwmyPcapPm7ulxpLtn4cSWN5qLi7E6RmcCfjAHvmGaV-gtQEqN32txZS0lkolCEDefts0FUj6SyKg3F2IV3hJo_q-DZCUWhqif-yLrO4DXtHDYJP4vqnw7xjf9ka6008ccOGjc_fGRH6mjjT2MyMz4PnbcLDT_sjSJvSwdmBDmjakraaoM1RvrdsTRkK8lNmRzZv6BGj5BnrNEA5iEiVWiuxfpELNOF4jffx65iB3pBSb2hDL6WfePXUaju7IzFV_BGInMofjGIkVebQKQEHg9RwektPPYoyhT_8jb6Nyj1HmFOb9JJnIS8UQoDXYwB4bnGnMta2uX-L4l80dn9R_rWmIWsFuOFI46TFYNIR1aeXTtaWZIS_4byZTMI4a73fA7D5I8Yddj9N3mDAmbnJ-ggge_J5eSleMoEyVYG19HtmIAZqxNK8gCXH5sAYXy7ZXqr2KF5tYGWYwbG4Ec3aSE0H4vYQEjWB8sS9dzp7DEIXhWWVm3nkiZ-2xJ7cbGIp_0BNGCjCTAQQnqjEk4k8xeZQxjZHP9GxsGDHtmCxYegae2eTzPMs52DrfJD4LeI61YeG05CPRywzmsFDJevnLKlOmVk37PKTxzpx7b7q-q4hjEDkgwQOgnD4pAgDdxBQSqFSQW9oREx0ihsZQXCNExg1edLbDs8BG7J6bayUzbqK8TmvAiIkxh3vTKyINP873zjys5Br9C2CndBTB2nLG8rth05xrGVZgX63k3V1O8xE70tguAhWX8Y80zy1frBwtHxJdrXUIKXzVNajPKYRJQ3q5i1uyFbbAWsn4CRzHv7Px7y0]--></g></svg>