<?xml version="1.0" encoding="UTF-8" standalone="no"?><svg xmlns="http://www.w3.org/2000/svg" xmlns:xlink="http://www.w3.org/1999/xlink" contentStyleType="text/css" height="1912px" preserveAspectRatio="none" style="width:2480px;height:1912px;background:#FFFFFF;" version="1.1" viewBox="0 0 2480 1912" width="2480px" zoomAndPan="magnify"><defs/><g><!--cluster Persistence --><g id="cluster_Persistence "><path d="M969.5,472.8945 L1087.5,472.8945 A3.75,3.75 0 0 1 1090,475.3945 L1097,504.0508 L1402.5,504.0508 A2.5,2.5 0 0 1 1405,506.5508 L1405,606.3945 A2.5,2.5 0 0 1 1402.5,608.8945 L969.5,608.8945 A2.5,2.5 0 0 1 967,606.3945 L967,475.3945 A2.5,2.5 0 0 1 969.5,472.8945 " fill="#DDDDDD" style="stroke:#000000;stroke-width:1.5;"/><line style="stroke:#000000;stroke-width:1.5;" x1="967" x2="1097" y1="504.0508" y2="504.0508"/><text fill="#000000" font-family="sans-serif" font-size="20" font-weight="bold" lengthAdjust="spacing" textLength="111" x="971" y="495.6563">Persistence</text></g><!--cluster persistence.impl.jpa--><g id="cluster_persistence.impl.jpa"><path d="M8.5,641.8945 L198.5,641.8945 A3.75,3.75 0 0 1 201,644.3945 L208,673.0508 L528.5,673.0508 A2.5,2.5 0 0 1 531,675.5508 L531,993.3945 A2.5,2.5 0 0 1 528.5,995.8945 L8.5,995.8945 A2.5,2.5 0 0 1 6,993.3945 L6,644.3945 A2.5,2.5 0 0 1 8.5,641.8945 " fill="#DDDDDD" style="stroke:#000000;stroke-width:1.5;"/><line style="stroke:#000000;stroke-width:1.5;" x1="6" x2="208" y1="673.0508" y2="673.0508"/><text fill="#000000" font-family="sans-serif" font-size="20" font-weight="bold" lengthAdjust="spacing" textLength="189" x="10" y="664.6563">persistence.impl.jpa</text></g><!--cluster persistence.impl.inmemory--><g id="cluster_persistence.impl.inmemory"><path d="M557.5,859.8945 L812.5,859.8945 A3.75,3.75 0 0 1 815,862.3945 L822,891.0508 L1189.5,891.0508 A2.5,2.5 0 0 1 1192,893.5508 L1192,1130.3945 A2.5,2.5 0 0 1 1189.5,1132.8945 L557.5,1132.8945 A2.5,2.5 0 0 1 555,1130.3945 L555,862.3945 A2.5,2.5 0 0 1 557.5,859.8945 " fill="#DDDDDD" style="stroke:#000000;stroke-width:1.5;"/><line style="stroke:#000000;stroke-width:1.5;" x1="555" x2="822" y1="891.0508" y2="891.0508"/><text fill="#000000" font-family="sans-serif" font-size="20" font-weight="bold" lengthAdjust="spacing" textLength="254" x="559" y="882.6563">persistence.impl.inmemory</text></g><!--cluster Domain--><g id="cluster_Domain"><path d="M113.5,1165.8945 L185.5,1165.8945 A3.75,3.75 0 0 1 188,1168.3945 L195,1197.0508 L1620.5,1197.0508 A2.5,2.5 0 0 1 1623,1199.5508 L1623,1903.3945 A2.5,2.5 0 0 1 1620.5,1905.8945 L113.5,1905.8945 A2.5,2.5 0 0 1 111,1903.3945 L111,1168.3945 A2.5,2.5 0 0 1 113.5,1165.8945 " fill="#DDDDDD" style="stroke:#000000;stroke-width:1.5;"/><line style="stroke:#000000;stroke-width:1.5;" x1="111" x2="195" y1="1197.0508" y2="1197.0508"/><text fill="#000000" font-family="sans-serif" font-size="20" font-weight="bold" lengthAdjust="spacing" textLength="71" x="115" y="1188.6563">Domain</text></g><!--cluster Repository --><g id="cluster_Repository "><path d="M874.5,1217.8945 L984.5,1217.8945 A3.75,3.75 0 0 1 987,1220.3945 L994,1249.0508 L1530.5,1249.0508 A2.5,2.5 0 0 1 1533,1251.5508 L1533,1488.3945 A2.5,2.5 0 0 1 1530.5,1490.8945 L874.5,1490.8945 A2.5,2.5 0 0 1 872,1488.3945 L872,1220.3945 A2.5,2.5 0 0 1 874.5,1217.8945 " fill="#DDDDDD" style="stroke:#000000;stroke-width:1.5;"/><line style="stroke:#000000;stroke-width:1.5;" x1="872" x2="994" y1="1249.0508" y2="1249.0508"/><text fill="#000000" font-family="sans-serif" font-size="20" font-weight="bold" lengthAdjust="spacing" textLength="103" x="876" y="1240.6563">Repository</text></g><!--cluster UI--><g id="cluster_UI"><path d="M1605.5,6.8945 L1625.5,6.8945 A3.75,3.75 0 0 1 1628,9.3945 L1635,38.0508 L1922.5,38.0508 A2.5,2.5 0 0 1 1925,40.5508 L1925,191.3945 A2.5,2.5 0 0 1 1922.5,193.8945 L1605.5,193.8945 A2.5,2.5 0 0 1 1603,191.3945 L1603,9.3945 A2.5,2.5 0 0 1 1605.5,6.8945 " fill="#DDDDDD" style="stroke:#000000;stroke-width:1.5;"/><line style="stroke:#000000;stroke-width:1.5;" x1="1603" x2="1635" y1="38.0508" y2="38.0508"/><text fill="#000000" font-family="sans-serif" font-size="20" font-weight="bold" lengthAdjust="spacing" textLength="19" x="1607" y="29.6563">UI</text></g><!--cluster Controller--><g id="cluster_Controller"><path d="M1589.5,226.8945 L1684.5,226.8945 A3.75,3.75 0 0 1 1687,229.3945 L1694,258.0508 L1938.5,258.0508 A2.5,2.5 0 0 1 1941,260.5508 L1941,411.3945 A2.5,2.5 0 0 1 1938.5,413.8945 L1589.5,413.8945 A2.5,2.5 0 0 1 1587,411.3945 L1587,229.3945 A2.5,2.5 0 0 1 1589.5,226.8945 " fill="#DDDDDD" style="stroke:#000000;stroke-width:1.5;"/><line style="stroke:#000000;stroke-width:1.5;" x1="1587" x2="1694" y1="258.0508" y2="258.0508"/><text fill="#000000" font-family="sans-serif" font-size="20" font-weight="bold" lengthAdjust="spacing" textLength="94" x="1591" y="249.6563">Controller</text></g><!--class PersistenceContext--><g id="elem_PersistenceContext"><rect codeLine="4" fill="#F1F1F1" height="76.3125" id="PersistenceContext" rx="2.5" ry="2.5" style="stroke:#181818;stroke-width:0.5;" width="405" x="983.5" y="516.8945"/><ellipse cx="1096.5" cy="534.4727" fill="#ADD1B2" rx="12" ry="12" style="stroke:#181818;stroke-width:1.0;"/><path d="M1098.6406,529.3945 Q1098.8281,529.1445 1099.0469,529.0195 Q1099.2656,528.8789 1099.5156,528.8789 Q1099.9531,528.8789 1100.2344,529.1914 Q1100.5156,529.4883 1100.5156,530.207 L1100.5156,531.9102 Q1100.5156,532.6289 1100.2344,532.9414 Q1099.9531,533.2539 1099.5156,533.2539 Q1099.125,533.2539 1098.875,533.0195 Q1098.625,532.8008 1098.5156,532.1914 Q1098.4531,531.7695 1098.2344,531.5508 Q1097.8438,531.1133 1097.125,530.8477 Q1096.4063,530.582 1095.6875,530.582 Q1094.7813,530.582 1094.0313,530.9727 Q1093.2813,531.3633 1092.7031,532.2539 Q1092.125,533.1289 1092.125,534.332 L1092.125,535.6289 Q1092.125,537.082 1093.1719,538.0508 Q1094.2344,539.0195 1096.0938,539.0195 Q1097.2031,539.0195 1097.9844,538.707 Q1098.4219,538.5352 1098.9375,538.0195 Q1099.25,537.707 1099.4219,537.6133 Q1099.5938,537.5195 1099.8281,537.5195 Q1100.2188,537.5195 1100.5156,537.832 Q1100.8281,538.1289 1100.8281,538.5352 Q1100.8281,538.9414 1100.4219,539.4102 Q1099.8281,540.0977 1098.8906,540.4883 Q1097.625,541.0195 1096.1094,541.0195 Q1094.3281,541.0195 1092.9063,540.2852 Q1091.75,539.6914 1090.9375,538.4258 Q1090.125,537.1602 1090.125,535.6758 L1090.125,534.3164 Q1090.125,532.7539 1090.8438,531.4102 Q1091.5781,530.0508 1092.8594,529.3164 Q1094.1563,528.582 1095.6094,528.582 Q1096.4688,528.582 1097.2188,528.7852 Q1097.9844,528.9883 1098.6406,529.3945 Z " fill="#000000"/><text fill="#000000" font-family="sans-serif" font-size="20" lengthAdjust="spacing" textLength="170" x="1118.5" y="542.6563">PersistenceContext</text><line style="stroke:#181818;stroke-width:0.5;" x1="984.5" x2="1387.5" y1="552.0508" y2="552.0508"/><line style="stroke:#181818;stroke-width:0.5;" x1="984.5" x2="1387.5" y1="560.0508" y2="560.0508"/><ellipse cx="994.5" cy="578.1289" fill="#84BE84" rx="3" ry="3" style="stroke:#038048;stroke-width:1.0;"/><text fill="#000000" font-family="sans-serif" font-size="20" lengthAdjust="spacing" textLength="378" x="1004.5" y="584.8125">getRepositoryFactory(): RepositoryFactory</text></g><!--class JpaRepositoryFactory--><g id="elem_JpaRepositoryFactory"><rect codeLine="10" fill="#F1F1F1" height="101.4688" id="JpaRepositoryFactory" rx="2.5" ry="2.5" style="stroke:#181818;stroke-width:0.5;" width="317" x="197.5" y="685.8945"/><ellipse cx="254.5" cy="703.4727" fill="#ADD1B2" rx="12" ry="12" style="stroke:#181818;stroke-width:1.0;"/><path d="M256.6406,698.3945 Q256.8281,698.1445 257.0469,698.0195 Q257.2656,697.8789 257.5156,697.8789 Q257.9531,697.8789 258.2344,698.1914 Q258.5156,698.4883 258.5156,699.207 L258.5156,700.9102 Q258.5156,701.6289 258.2344,701.9414 Q257.9531,702.2539 257.5156,702.2539 Q257.125,702.2539 256.875,702.0195 Q256.625,701.8008 256.5156,701.1914 Q256.4531,700.7695 256.2344,700.5508 Q255.8438,700.1133 255.125,699.8477 Q254.4063,699.582 253.6875,699.582 Q252.7813,699.582 252.0313,699.9727 Q251.2813,700.3633 250.7031,701.2539 Q250.125,702.1289 250.125,703.332 L250.125,704.6289 Q250.125,706.082 251.1719,707.0508 Q252.2344,708.0195 254.0938,708.0195 Q255.2031,708.0195 255.9844,707.707 Q256.4219,707.5352 256.9375,707.0195 Q257.25,706.707 257.4219,706.6133 Q257.5938,706.5195 257.8281,706.5195 Q258.2188,706.5195 258.5156,706.832 Q258.8281,707.1289 258.8281,707.5352 Q258.8281,707.9414 258.4219,708.4102 Q257.8281,709.0977 256.8906,709.4883 Q255.625,710.0195 254.1094,710.0195 Q252.3281,710.0195 250.9063,709.2852 Q249.75,708.6914 248.9375,707.4258 Q248.125,706.1602 248.125,704.6758 L248.125,703.3164 Q248.125,701.7539 248.8438,700.4102 Q249.5781,699.0508 250.8594,698.3164 Q252.1563,697.582 253.6094,697.582 Q254.4688,697.582 255.2188,697.7852 Q255.9844,697.9883 256.6406,698.3945 Z " fill="#000000"/><text fill="#000000" font-family="sans-serif" font-size="20" lengthAdjust="spacing" textLength="194" x="276.5" y="711.6563">JpaRepositoryFactory</text><line style="stroke:#181818;stroke-width:0.5;" x1="198.5" x2="513.5" y1="721.0508" y2="721.0508"/><line style="stroke:#181818;stroke-width:0.5;" x1="198.5" x2="513.5" y1="729.0508" y2="729.0508"/><rect fill="#F24D5C" height="6" style="stroke:#C82930;stroke-width:1.0;" width="6" x="205.5" y="744.1289"/><text fill="#000000" font-family="sans-serif" font-size="20" lengthAdjust="spacing" textLength="208" x="218.5" y="753.8125">JpaRepositoryFactory()</text><ellipse cx="208.5" cy="772.2852" fill="#84BE84" rx="3" ry="3" style="stroke:#038048;stroke-width:1.0;"/><text fill="#000000" font-family="sans-serif" font-size="20" lengthAdjust="spacing" textLength="290" x="218.5" y="778.9688">getInstance(): RepositoryFactory</text></g><!--class JpaFigureRepository--><g id="elem_JpaFigureRepository"><rect codeLine="15" fill="#F1F1F1" height="51.1563" id="JpaFigureRepository" rx="2.5" ry="2.5" style="stroke:#181818;stroke-width:0.5;" width="216" x="22" y="928.8945"/><ellipse cx="38" cy="946.4727" fill="#ADD1B2" rx="12" ry="12" style="stroke:#181818;stroke-width:1.0;"/><path d="M40.1406,941.3945 Q40.3281,941.1445 40.5469,941.0195 Q40.7656,940.8789 41.0156,940.8789 Q41.4531,940.8789 41.7344,941.1914 Q42.0156,941.4883 42.0156,942.207 L42.0156,943.9102 Q42.0156,944.6289 41.7344,944.9414 Q41.4531,945.2539 41.0156,945.2539 Q40.625,945.2539 40.375,945.0195 Q40.125,944.8008 40.0156,944.1914 Q39.9531,943.7695 39.7344,943.5508 Q39.3438,943.1133 38.625,942.8477 Q37.9063,942.582 37.1875,942.582 Q36.2813,942.582 35.5313,942.9727 Q34.7813,943.3633 34.2031,944.2539 Q33.625,945.1289 33.625,946.332 L33.625,947.6289 Q33.625,949.082 34.6719,950.0508 Q35.7344,951.0195 37.5938,951.0195 Q38.7031,951.0195 39.4844,950.707 Q39.9219,950.5352 40.4375,950.0195 Q40.75,949.707 40.9219,949.6133 Q41.0938,949.5195 41.3281,949.5195 Q41.7188,949.5195 42.0156,949.832 Q42.3281,950.1289 42.3281,950.5352 Q42.3281,950.9414 41.9219,951.4102 Q41.3281,952.0977 40.3906,952.4883 Q39.125,953.0195 37.6094,953.0195 Q35.8281,953.0195 34.4063,952.2852 Q33.25,951.6914 32.4375,950.4258 Q31.625,949.1602 31.625,947.6758 L31.625,946.3164 Q31.625,944.7539 32.3438,943.4102 Q33.0781,942.0508 34.3594,941.3164 Q35.6563,940.582 37.1094,940.582 Q37.9688,940.582 38.7188,940.7852 Q39.4844,940.9883 40.1406,941.3945 Z " fill="#000000"/><text fill="#000000" font-family="sans-serif" font-size="20" lengthAdjust="spacing" textLength="182" x="53" y="954.6563">JpaFigureRepository</text><line style="stroke:#181818;stroke-width:0.5;" x1="23" x2="237" y1="964.0508" y2="964.0508"/><line style="stroke:#181818;stroke-width:0.5;" x1="23" x2="237" y1="972.0508" y2="972.0508"/></g><!--class JpaCategoryRepository--><g id="elem_JpaCategoryRepository"><rect codeLine="18" fill="#F1F1F1" height="51.1563" id="JpaCategoryRepository" rx="2.5" ry="2.5" style="stroke:#181818;stroke-width:0.5;" width="242" x="273" y="928.8945"/><ellipse cx="289" cy="946.4727" fill="#ADD1B2" rx="12" ry="12" style="stroke:#181818;stroke-width:1.0;"/><path d="M291.1406,941.3945 Q291.3281,941.1445 291.5469,941.0195 Q291.7656,940.8789 292.0156,940.8789 Q292.4531,940.8789 292.7344,941.1914 Q293.0156,941.4883 293.0156,942.207 L293.0156,943.9102 Q293.0156,944.6289 292.7344,944.9414 Q292.4531,945.2539 292.0156,945.2539 Q291.625,945.2539 291.375,945.0195 Q291.125,944.8008 291.0156,944.1914 Q290.9531,943.7695 290.7344,943.5508 Q290.3438,943.1133 289.625,942.8477 Q288.9063,942.582 288.1875,942.582 Q287.2813,942.582 286.5313,942.9727 Q285.7813,943.3633 285.2031,944.2539 Q284.625,945.1289 284.625,946.332 L284.625,947.6289 Q284.625,949.082 285.6719,950.0508 Q286.7344,951.0195 288.5938,951.0195 Q289.7031,951.0195 290.4844,950.707 Q290.9219,950.5352 291.4375,950.0195 Q291.75,949.707 291.9219,949.6133 Q292.0938,949.5195 292.3281,949.5195 Q292.7188,949.5195 293.0156,949.832 Q293.3281,950.1289 293.3281,950.5352 Q293.3281,950.9414 292.9219,951.4102 Q292.3281,952.0977 291.3906,952.4883 Q290.125,953.0195 288.6094,953.0195 Q286.8281,953.0195 285.4063,952.2852 Q284.25,951.6914 283.4375,950.4258 Q282.625,949.1602 282.625,947.6758 L282.625,946.3164 Q282.625,944.7539 283.3438,943.4102 Q284.0781,942.0508 285.3594,941.3164 Q286.6563,940.582 288.1094,940.582 Q288.9688,940.582 289.7188,940.7852 Q290.4844,940.9883 291.1406,941.3945 Z " fill="#000000"/><text fill="#000000" font-family="sans-serif" font-size="20" lengthAdjust="spacing" textLength="208" x="304" y="954.6563">JpaCategoryRepository</text><line style="stroke:#181818;stroke-width:0.5;" x1="274" x2="514" y1="964.0508" y2="964.0508"/><line style="stroke:#181818;stroke-width:0.5;" x1="274" x2="514" y1="972.0508" y2="972.0508"/></g><!--class InMemoryRepositoryFactory--><g id="elem_InMemoryRepositoryFactory"><rect codeLine="24" fill="#F1F1F1" height="101.4688" id="InMemoryRepositoryFactory" rx="2.5" ry="2.5" style="stroke:#181818;stroke-width:0.5;" width="317" x="858.5" y="903.8945"/><ellipse cx="889.35" cy="921.4727" fill="#ADD1B2" rx="12" ry="12" style="stroke:#181818;stroke-width:1.0;"/><path d="M891.4906,916.3945 Q891.6781,916.1445 891.8969,916.0195 Q892.1156,915.8789 892.3656,915.8789 Q892.8031,915.8789 893.0844,916.1914 Q893.3656,916.4883 893.3656,917.207 L893.3656,918.9102 Q893.3656,919.6289 893.0844,919.9414 Q892.8031,920.2539 892.3656,920.2539 Q891.975,920.2539 891.725,920.0195 Q891.475,919.8008 891.3656,919.1914 Q891.3031,918.7695 891.0844,918.5508 Q890.6938,918.1133 889.975,917.8477 Q889.2563,917.582 888.5375,917.582 Q887.6313,917.582 886.8813,917.9727 Q886.1313,918.3633 885.5531,919.2539 Q884.975,920.1289 884.975,921.332 L884.975,922.6289 Q884.975,924.082 886.0219,925.0508 Q887.0844,926.0195 888.9438,926.0195 Q890.0531,926.0195 890.8344,925.707 Q891.2719,925.5352 891.7875,925.0195 Q892.1,924.707 892.2719,924.6133 Q892.4438,924.5195 892.6781,924.5195 Q893.0688,924.5195 893.3656,924.832 Q893.6781,925.1289 893.6781,925.5352 Q893.6781,925.9414 893.2719,926.4102 Q892.6781,927.0977 891.7406,927.4883 Q890.475,928.0195 888.9594,928.0195 Q887.1781,928.0195 885.7563,927.2852 Q884.6,926.6914 883.7875,925.4258 Q882.975,924.1602 882.975,922.6758 L882.975,921.3164 Q882.975,919.7539 883.6938,918.4102 Q884.4281,917.0508 885.7094,916.3164 Q887.0063,915.582 888.4594,915.582 Q889.3188,915.582 890.0688,915.7852 Q890.8344,915.9883 891.4906,916.3945 Z " fill="#000000"/><text fill="#000000" font-family="sans-serif" font-size="20" lengthAdjust="spacing" textLength="250" x="907.65" y="929.6563">InMemoryRepositoryFactory</text><line style="stroke:#181818;stroke-width:0.5;" x1="859.5" x2="1174.5" y1="939.0508" y2="939.0508"/><line style="stroke:#181818;stroke-width:0.5;" x1="859.5" x2="1174.5" y1="947.0508" y2="947.0508"/><rect fill="#F24D5C" height="6" style="stroke:#C82930;stroke-width:1.0;" width="6" x="866.5" y="962.1289"/><text fill="#000000" font-family="sans-serif" font-size="20" lengthAdjust="spacing" textLength="264" x="879.5" y="971.8125">InMemoryRepositoryFactory()</text><ellipse cx="869.5" cy="990.2852" fill="#84BE84" rx="3" ry="3" style="stroke:#038048;stroke-width:1.0;"/><text fill="#000000" font-family="sans-serif" font-size="20" lengthAdjust="spacing" textLength="290" x="879.5" y="996.9688">getInstance(): RepositoryFactory</text></g><!--class InMemoryFigureRepository--><g id="elem_InMemoryFigureRepository"><rect codeLine="29" fill="#F1F1F1" height="51.1563" id="InMemoryFigureRepository" rx="2.5" ry="2.5" style="stroke:#181818;stroke-width:0.5;" width="272" x="571" y="1065.8945"/><ellipse cx="587" cy="1083.4727" fill="#ADD1B2" rx="12" ry="12" style="stroke:#181818;stroke-width:1.0;"/><path d="M589.1406,1078.3945 Q589.3281,1078.1445 589.5469,1078.0195 Q589.7656,1077.8789 590.0156,1077.8789 Q590.4531,1077.8789 590.7344,1078.1914 Q591.0156,1078.4883 591.0156,1079.207 L591.0156,1080.9102 Q591.0156,1081.6289 590.7344,1081.9414 Q590.4531,1082.2539 590.0156,1082.2539 Q589.625,1082.2539 589.375,1082.0195 Q589.125,1081.8008 589.0156,1081.1914 Q588.9531,1080.7695 588.7344,1080.5508 Q588.3438,1080.1133 587.625,1079.8477 Q586.9063,1079.582 586.1875,1079.582 Q585.2813,1079.582 584.5313,1079.9727 Q583.7813,1080.3633 583.2031,1081.2539 Q582.625,1082.1289 582.625,1083.332 L582.625,1084.6289 Q582.625,1086.082 583.6719,1087.0508 Q584.7344,1088.0195 586.5938,1088.0195 Q587.7031,1088.0195 588.4844,1087.707 Q588.9219,1087.5352 589.4375,1087.0195 Q589.75,1086.707 589.9219,1086.6133 Q590.0938,1086.5195 590.3281,1086.5195 Q590.7188,1086.5195 591.0156,1086.832 Q591.3281,1087.1289 591.3281,1087.5352 Q591.3281,1087.9414 590.9219,1088.4102 Q590.3281,1089.0977 589.3906,1089.4883 Q588.125,1090.0195 586.6094,1090.0195 Q584.8281,1090.0195 583.4063,1089.2852 Q582.25,1088.6914 581.4375,1087.4258 Q580.625,1086.1602 580.625,1084.6758 L580.625,1083.3164 Q580.625,1081.7539 581.3438,1080.4102 Q582.0781,1079.0508 583.3594,1078.3164 Q584.6563,1077.582 586.1094,1077.582 Q586.9688,1077.582 587.7188,1077.7852 Q588.4844,1077.9883 589.1406,1078.3945 Z " fill="#000000"/><text fill="#000000" font-family="sans-serif" font-size="20" lengthAdjust="spacing" textLength="238" x="602" y="1091.6563">InMemoryFigureRepository</text><line style="stroke:#181818;stroke-width:0.5;" x1="572" x2="842" y1="1101.0508" y2="1101.0508"/><line style="stroke:#181818;stroke-width:0.5;" x1="572" x2="842" y1="1109.0508" y2="1109.0508"/></g><!--class InMemoryCategoryRepository--><g id="elem_InMemoryCategoryRepository"><rect codeLine="32" fill="#F1F1F1" height="51.1563" id="InMemoryCategoryRepository" rx="2.5" ry="2.5" style="stroke:#181818;stroke-width:0.5;" width="298" x="878" y="1065.8945"/><ellipse cx="894" cy="1083.4727" fill="#ADD1B2" rx="12" ry="12" style="stroke:#181818;stroke-width:1.0;"/><path d="M896.1406,1078.3945 Q896.3281,1078.1445 896.5469,1078.0195 Q896.7656,1077.8789 897.0156,1077.8789 Q897.4531,1077.8789 897.7344,1078.1914 Q898.0156,1078.4883 898.0156,1079.207 L898.0156,1080.9102 Q898.0156,1081.6289 897.7344,1081.9414 Q897.4531,1082.2539 897.0156,1082.2539 Q896.625,1082.2539 896.375,1082.0195 Q896.125,1081.8008 896.0156,1081.1914 Q895.9531,1080.7695 895.7344,1080.5508 Q895.3438,1080.1133 894.625,1079.8477 Q893.9063,1079.582 893.1875,1079.582 Q892.2813,1079.582 891.5313,1079.9727 Q890.7813,1080.3633 890.2031,1081.2539 Q889.625,1082.1289 889.625,1083.332 L889.625,1084.6289 Q889.625,1086.082 890.6719,1087.0508 Q891.7344,1088.0195 893.5938,1088.0195 Q894.7031,1088.0195 895.4844,1087.707 Q895.9219,1087.5352 896.4375,1087.0195 Q896.75,1086.707 896.9219,1086.6133 Q897.0938,1086.5195 897.3281,1086.5195 Q897.7188,1086.5195 898.0156,1086.832 Q898.3281,1087.1289 898.3281,1087.5352 Q898.3281,1087.9414 897.9219,1088.4102 Q897.3281,1089.0977 896.3906,1089.4883 Q895.125,1090.0195 893.6094,1090.0195 Q891.8281,1090.0195 890.4063,1089.2852 Q889.25,1088.6914 888.4375,1087.4258 Q887.625,1086.1602 887.625,1084.6758 L887.625,1083.3164 Q887.625,1081.7539 888.3438,1080.4102 Q889.0781,1079.0508 890.3594,1078.3164 Q891.6563,1077.582 893.1094,1077.582 Q893.9688,1077.582 894.7188,1077.7852 Q895.4844,1077.9883 896.1406,1078.3945 Z " fill="#000000"/><text fill="#000000" font-family="sans-serif" font-size="20" lengthAdjust="spacing" textLength="264" x="909" y="1091.6563">InMemoryCategoryRepository</text><line style="stroke:#181818;stroke-width:0.5;" x1="879" x2="1175" y1="1101.0508" y2="1101.0508"/><line style="stroke:#181818;stroke-width:0.5;" x1="879" x2="1175" y1="1109.0508" y2="1109.0508"/></g><!--class Figure--><g id="elem_Figure"><rect codeLine="55" fill="#F1F1F1" height="126.625" id="Figure" rx="2.5" ry="2.5" style="stroke:#181818;stroke-width:0.5;" width="740" x="597" y="1599.8945"/><ellipse cx="929" cy="1630.0508" fill="#ADD1B2" rx="12" ry="12" style="stroke:#181818;stroke-width:1.0;"/><path d="M931.1406,1624.9727 Q931.3281,1624.7227 931.5469,1624.5977 Q931.7656,1624.457 932.0156,1624.457 Q932.4531,1624.457 932.7344,1624.7695 Q933.0156,1625.0664 933.0156,1625.7852 L933.0156,1627.4883 Q933.0156,1628.207 932.7344,1628.5195 Q932.4531,1628.832 932.0156,1628.832 Q931.625,1628.832 931.375,1628.5977 Q931.125,1628.3789 931.0156,1627.7695 Q930.9531,1627.3477 930.7344,1627.1289 Q930.3438,1626.6914 929.625,1626.4258 Q928.9063,1626.1602 928.1875,1626.1602 Q927.2813,1626.1602 926.5313,1626.5508 Q925.7813,1626.9414 925.2031,1627.832 Q924.625,1628.707 924.625,1629.9102 L924.625,1631.207 Q924.625,1632.6602 925.6719,1633.6289 Q926.7344,1634.5977 928.5938,1634.5977 Q929.7031,1634.5977 930.4844,1634.2852 Q930.9219,1634.1133 931.4375,1633.5977 Q931.75,1633.2852 931.9219,1633.1914 Q932.0938,1633.0977 932.3281,1633.0977 Q932.7188,1633.0977 933.0156,1633.4102 Q933.3281,1633.707 933.3281,1634.1133 Q933.3281,1634.5195 932.9219,1634.9883 Q932.3281,1635.6758 931.3906,1636.0664 Q930.125,1636.5977 928.6094,1636.5977 Q926.8281,1636.5977 925.4063,1635.8633 Q924.25,1635.2695 923.4375,1634.0039 Q922.625,1632.7383 922.625,1631.2539 L922.625,1629.8945 Q922.625,1628.332 923.3438,1626.9883 Q924.0781,1625.6289 925.3594,1624.8945 Q926.6563,1624.1602 928.1094,1624.1602 Q928.9688,1624.1602 929.7188,1624.3633 Q930.4844,1624.5664 931.1406,1624.9727 Z " fill="#000000"/><text fill="#000000" font-family="sans-serif" font-size="20" font-style="italic" lengthAdjust="spacing" textLength="71" x="949" y="1625.6563">«Entity»</text><text fill="#000000" font-family="sans-serif" font-size="20" lengthAdjust="spacing" textLength="55" x="957" y="1650.8125">Figure</text><line style="stroke:#181818;stroke-width:0.5;" x1="598" x2="1336" y1="1660.207" y2="1660.207"/><line style="stroke:#181818;stroke-width:0.5;" x1="598" x2="1336" y1="1668.207" y2="1668.207"/><ellipse cx="608" cy="1686.2852" fill="#84BE84" rx="3" ry="3" style="stroke:#038048;stroke-width:1.0;"/><text fill="#000000" font-family="sans-serif" font-size="20" lengthAdjust="spacing" textLength="614" x="618" y="1692.9688">Figure(code, version, description, dslDescription, keywords, category)</text><ellipse cx="608" cy="1711.4414" fill="#84BE84" rx="3" ry="3" style="stroke:#038048;stroke-width:1.0;"/><text fill="#000000" font-family="sans-serif" font-size="20" lengthAdjust="spacing" textLength="713" x="618" y="1718.125">Figure(code, version, description, dslDescription, keywords, category, exclusivity)</text></g><!--class Code--><g id="elem_Code"><rect codeLine="60" fill="#F1F1F1" height="76.3125" id="Code" rx="2.5" ry="2.5" style="stroke:#181818;stroke-width:0.5;" width="166" x="482" y="1813.8945"/><ellipse cx="498" cy="1844.0508" fill="#ADD1B2" rx="12" ry="12" style="stroke:#181818;stroke-width:1.0;"/><path d="M500.1406,1838.9727 Q500.3281,1838.7227 500.5469,1838.5977 Q500.7656,1838.457 501.0156,1838.457 Q501.4531,1838.457 501.7344,1838.7695 Q502.0156,1839.0664 502.0156,1839.7852 L502.0156,1841.4883 Q502.0156,1842.207 501.7344,1842.5195 Q501.4531,1842.832 501.0156,1842.832 Q500.625,1842.832 500.375,1842.5977 Q500.125,1842.3789 500.0156,1841.7695 Q499.9531,1841.3477 499.7344,1841.1289 Q499.3438,1840.6914 498.625,1840.4258 Q497.9063,1840.1602 497.1875,1840.1602 Q496.2813,1840.1602 495.5313,1840.5508 Q494.7813,1840.9414 494.2031,1841.832 Q493.625,1842.707 493.625,1843.9102 L493.625,1845.207 Q493.625,1846.6602 494.6719,1847.6289 Q495.7344,1848.5977 497.5938,1848.5977 Q498.7031,1848.5977 499.4844,1848.2852 Q499.9219,1848.1133 500.4375,1847.5977 Q500.75,1847.2852 500.9219,1847.1914 Q501.0938,1847.0977 501.3281,1847.0977 Q501.7188,1847.0977 502.0156,1847.4102 Q502.3281,1847.707 502.3281,1848.1133 Q502.3281,1848.5195 501.9219,1848.9883 Q501.3281,1849.6758 500.3906,1850.0664 Q499.125,1850.5977 497.6094,1850.5977 Q495.8281,1850.5977 494.4063,1849.8633 Q493.25,1849.2695 492.4375,1848.0039 Q491.625,1846.7383 491.625,1845.2539 L491.625,1843.8945 Q491.625,1842.332 492.3438,1840.9883 Q493.0781,1839.6289 494.3594,1838.8945 Q495.6563,1838.1602 497.1094,1838.1602 Q497.9688,1838.1602 498.7188,1838.3633 Q499.4844,1838.5664 500.1406,1838.9727 Z " fill="#000000"/><text fill="#000000" font-family="sans-serif" font-size="20" font-style="italic" lengthAdjust="spacing" textLength="136" x="511" y="1839.6563">«Value Object»</text><text fill="#000000" font-family="sans-serif" font-size="20" lengthAdjust="spacing" textLength="47" x="555.5" y="1864.8125">Code</text><line style="stroke:#181818;stroke-width:0.5;" x1="483" x2="647" y1="1874.207" y2="1874.207"/><line style="stroke:#181818;stroke-width:0.5;" x1="483" x2="647" y1="1882.207" y2="1882.207"/></g><!--class Version--><g id="elem_Version"><rect codeLine="63" fill="#F1F1F1" height="76.3125" id="Version" rx="2.5" ry="2.5" style="stroke:#181818;stroke-width:0.5;" width="166" x="683" y="1813.8945"/><ellipse cx="699" cy="1844.0508" fill="#ADD1B2" rx="12" ry="12" style="stroke:#181818;stroke-width:1.0;"/><path d="M701.1406,1838.9727 Q701.3281,1838.7227 701.5469,1838.5977 Q701.7656,1838.457 702.0156,1838.457 Q702.4531,1838.457 702.7344,1838.7695 Q703.0156,1839.0664 703.0156,1839.7852 L703.0156,1841.4883 Q703.0156,1842.207 702.7344,1842.5195 Q702.4531,1842.832 702.0156,1842.832 Q701.625,1842.832 701.375,1842.5977 Q701.125,1842.3789 701.0156,1841.7695 Q700.9531,1841.3477 700.7344,1841.1289 Q700.3438,1840.6914 699.625,1840.4258 Q698.9063,1840.1602 698.1875,1840.1602 Q697.2813,1840.1602 696.5313,1840.5508 Q695.7813,1840.9414 695.2031,1841.832 Q694.625,1842.707 694.625,1843.9102 L694.625,1845.207 Q694.625,1846.6602 695.6719,1847.6289 Q696.7344,1848.5977 698.5938,1848.5977 Q699.7031,1848.5977 700.4844,1848.2852 Q700.9219,1848.1133 701.4375,1847.5977 Q701.75,1847.2852 701.9219,1847.1914 Q702.0938,1847.0977 702.3281,1847.0977 Q702.7188,1847.0977 703.0156,1847.4102 Q703.3281,1847.707 703.3281,1848.1133 Q703.3281,1848.5195 702.9219,1848.9883 Q702.3281,1849.6758 701.3906,1850.0664 Q700.125,1850.5977 698.6094,1850.5977 Q696.8281,1850.5977 695.4063,1849.8633 Q694.25,1849.2695 693.4375,1848.0039 Q692.625,1846.7383 692.625,1845.2539 L692.625,1843.8945 Q692.625,1842.332 693.3438,1840.9883 Q694.0781,1839.6289 695.3594,1838.8945 Q696.6563,1838.1602 698.1094,1838.1602 Q698.9688,1838.1602 699.7188,1838.3633 Q700.4844,1838.5664 701.1406,1838.9727 Z " fill="#000000"/><text fill="#000000" font-family="sans-serif" font-size="20" font-style="italic" lengthAdjust="spacing" textLength="136" x="712" y="1839.6563">«Value Object»</text><text fill="#000000" font-family="sans-serif" font-size="20" lengthAdjust="spacing" textLength="66" x="747" y="1864.8125">Version</text><line style="stroke:#181818;stroke-width:0.5;" x1="684" x2="848" y1="1874.207" y2="1874.207"/><line style="stroke:#181818;stroke-width:0.5;" x1="684" x2="848" y1="1882.207" y2="1882.207"/></g><!--class Description--><g id="elem_Description"><rect codeLine="66" fill="#F1F1F1" height="76.3125" id="Description" rx="2.5" ry="2.5" style="stroke:#181818;stroke-width:0.5;" width="166" x="884" y="1813.8945"/><ellipse cx="900" cy="1844.0508" fill="#ADD1B2" rx="12" ry="12" style="stroke:#181818;stroke-width:1.0;"/><path d="M902.1406,1838.9727 Q902.3281,1838.7227 902.5469,1838.5977 Q902.7656,1838.457 903.0156,1838.457 Q903.4531,1838.457 903.7344,1838.7695 Q904.0156,1839.0664 904.0156,1839.7852 L904.0156,1841.4883 Q904.0156,1842.207 903.7344,1842.5195 Q903.4531,1842.832 903.0156,1842.832 Q902.625,1842.832 902.375,1842.5977 Q902.125,1842.3789 902.0156,1841.7695 Q901.9531,1841.3477 901.7344,1841.1289 Q901.3438,1840.6914 900.625,1840.4258 Q899.9063,1840.1602 899.1875,1840.1602 Q898.2813,1840.1602 897.5313,1840.5508 Q896.7813,1840.9414 896.2031,1841.832 Q895.625,1842.707 895.625,1843.9102 L895.625,1845.207 Q895.625,1846.6602 896.6719,1847.6289 Q897.7344,1848.5977 899.5938,1848.5977 Q900.7031,1848.5977 901.4844,1848.2852 Q901.9219,1848.1133 902.4375,1847.5977 Q902.75,1847.2852 902.9219,1847.1914 Q903.0938,1847.0977 903.3281,1847.0977 Q903.7188,1847.0977 904.0156,1847.4102 Q904.3281,1847.707 904.3281,1848.1133 Q904.3281,1848.5195 903.9219,1848.9883 Q903.3281,1849.6758 902.3906,1850.0664 Q901.125,1850.5977 899.6094,1850.5977 Q897.8281,1850.5977 896.4063,1849.8633 Q895.25,1849.2695 894.4375,1848.0039 Q893.625,1846.7383 893.625,1845.2539 L893.625,1843.8945 Q893.625,1842.332 894.3438,1840.9883 Q895.0781,1839.6289 896.3594,1838.8945 Q897.6563,1838.1602 899.1094,1838.1602 Q899.9688,1838.1602 900.7188,1838.3633 Q901.4844,1838.5664 902.1406,1838.9727 Z " fill="#000000"/><text fill="#000000" font-family="sans-serif" font-size="20" font-style="italic" lengthAdjust="spacing" textLength="136" x="913" y="1839.6563">«Value Object»</text><text fill="#000000" font-family="sans-serif" font-size="20" lengthAdjust="spacing" textLength="98" x="932" y="1864.8125">Description</text><line style="stroke:#181818;stroke-width:0.5;" x1="885" x2="1049" y1="1874.207" y2="1874.207"/><line style="stroke:#181818;stroke-width:0.5;" x1="885" x2="1049" y1="1882.207" y2="1882.207"/></g><!--class DSLDescription--><g id="elem_DSLDescription"><rect codeLine="69" fill="#F1F1F1" height="76.3125" id="DSLDescription" rx="2.5" ry="2.5" style="stroke:#181818;stroke-width:0.5;" width="170" x="1085" y="1813.8945"/><ellipse cx="1101" cy="1844.0508" fill="#ADD1B2" rx="12" ry="12" style="stroke:#181818;stroke-width:1.0;"/><path d="M1103.1406,1838.9727 Q1103.3281,1838.7227 1103.5469,1838.5977 Q1103.7656,1838.457 1104.0156,1838.457 Q1104.4531,1838.457 1104.7344,1838.7695 Q1105.0156,1839.0664 1105.0156,1839.7852 L1105.0156,1841.4883 Q1105.0156,1842.207 1104.7344,1842.5195 Q1104.4531,1842.832 1104.0156,1842.832 Q1103.625,1842.832 1103.375,1842.5977 Q1103.125,1842.3789 1103.0156,1841.7695 Q1102.9531,1841.3477 1102.7344,1841.1289 Q1102.3438,1840.6914 1101.625,1840.4258 Q1100.9063,1840.1602 1100.1875,1840.1602 Q1099.2813,1840.1602 1098.5313,1840.5508 Q1097.7813,1840.9414 1097.2031,1841.832 Q1096.625,1842.707 1096.625,1843.9102 L1096.625,1845.207 Q1096.625,1846.6602 1097.6719,1847.6289 Q1098.7344,1848.5977 1100.5938,1848.5977 Q1101.7031,1848.5977 1102.4844,1848.2852 Q1102.9219,1848.1133 1103.4375,1847.5977 Q1103.75,1847.2852 1103.9219,1847.1914 Q1104.0938,1847.0977 1104.3281,1847.0977 Q1104.7188,1847.0977 1105.0156,1847.4102 Q1105.3281,1847.707 1105.3281,1848.1133 Q1105.3281,1848.5195 1104.9219,1848.9883 Q1104.3281,1849.6758 1103.3906,1850.0664 Q1102.125,1850.5977 1100.6094,1850.5977 Q1098.8281,1850.5977 1097.4063,1849.8633 Q1096.25,1849.2695 1095.4375,1848.0039 Q1094.625,1846.7383 1094.625,1845.2539 L1094.625,1843.8945 Q1094.625,1842.332 1095.3438,1840.9883 Q1096.0781,1839.6289 1097.3594,1838.8945 Q1098.6563,1838.1602 1100.1094,1838.1602 Q1100.9688,1838.1602 1101.7188,1838.3633 Q1102.4844,1838.5664 1103.1406,1838.9727 Z " fill="#000000"/><text fill="#000000" font-family="sans-serif" font-size="20" font-style="italic" lengthAdjust="spacing" textLength="136" x="1116" y="1839.6563">«Value Object»</text><text fill="#000000" font-family="sans-serif" font-size="20" lengthAdjust="spacing" textLength="136" x="1116" y="1864.8125">DSLDescription</text><line style="stroke:#181818;stroke-width:0.5;" x1="1086" x2="1254" y1="1874.207" y2="1874.207"/><line style="stroke:#181818;stroke-width:0.5;" x1="1086" x2="1254" y1="1882.207" y2="1882.207"/></g><!--class Keyword--><g id="elem_Keyword"><rect codeLine="72" fill="#F1F1F1" height="76.3125" id="Keyword" rx="2.5" ry="2.5" style="stroke:#181818;stroke-width:0.5;" width="166" x="1290" y="1813.8945"/><ellipse cx="1306" cy="1844.0508" fill="#ADD1B2" rx="12" ry="12" style="stroke:#181818;stroke-width:1.0;"/><path d="M1308.1406,1838.9727 Q1308.3281,1838.7227 1308.5469,1838.5977 Q1308.7656,1838.457 1309.0156,1838.457 Q1309.4531,1838.457 1309.7344,1838.7695 Q1310.0156,1839.0664 1310.0156,1839.7852 L1310.0156,1841.4883 Q1310.0156,1842.207 1309.7344,1842.5195 Q1309.4531,1842.832 1309.0156,1842.832 Q1308.625,1842.832 1308.375,1842.5977 Q1308.125,1842.3789 1308.0156,1841.7695 Q1307.9531,1841.3477 1307.7344,1841.1289 Q1307.3438,1840.6914 1306.625,1840.4258 Q1305.9063,1840.1602 1305.1875,1840.1602 Q1304.2813,1840.1602 1303.5313,1840.5508 Q1302.7813,1840.9414 1302.2031,1841.832 Q1301.625,1842.707 1301.625,1843.9102 L1301.625,1845.207 Q1301.625,1846.6602 1302.6719,1847.6289 Q1303.7344,1848.5977 1305.5938,1848.5977 Q1306.7031,1848.5977 1307.4844,1848.2852 Q1307.9219,1848.1133 1308.4375,1847.5977 Q1308.75,1847.2852 1308.9219,1847.1914 Q1309.0938,1847.0977 1309.3281,1847.0977 Q1309.7188,1847.0977 1310.0156,1847.4102 Q1310.3281,1847.707 1310.3281,1848.1133 Q1310.3281,1848.5195 1309.9219,1848.9883 Q1309.3281,1849.6758 1308.3906,1850.0664 Q1307.125,1850.5977 1305.6094,1850.5977 Q1303.8281,1850.5977 1302.4063,1849.8633 Q1301.25,1849.2695 1300.4375,1848.0039 Q1299.625,1846.7383 1299.625,1845.2539 L1299.625,1843.8945 Q1299.625,1842.332 1300.3438,1840.9883 Q1301.0781,1839.6289 1302.3594,1838.8945 Q1303.6563,1838.1602 1305.1094,1838.1602 Q1305.9688,1838.1602 1306.7188,1838.3633 Q1307.4844,1838.5664 1308.1406,1838.9727 Z " fill="#000000"/><text fill="#000000" font-family="sans-serif" font-size="20" font-style="italic" lengthAdjust="spacing" textLength="136" x="1319" y="1839.6563">«Value Object»</text><text fill="#000000" font-family="sans-serif" font-size="20" lengthAdjust="spacing" textLength="78" x="1348" y="1864.8125">Keyword</text><line style="stroke:#181818;stroke-width:0.5;" x1="1291" x2="1455" y1="1874.207" y2="1874.207"/><line style="stroke:#181818;stroke-width:0.5;" x1="1291" x2="1455" y1="1882.207" y2="1882.207"/></g><!--class Exclusivity--><g id="elem_Exclusivity"><rect codeLine="75" fill="#F1F1F1" height="76.3125" id="Exclusivity" rx="2.5" ry="2.5" style="stroke:#181818;stroke-width:0.5;" width="123" x="127.5" y="1813.8945"/><ellipse cx="143.5" cy="1844.0508" fill="#ADD1B2" rx="12" ry="12" style="stroke:#181818;stroke-width:1.0;"/><path d="M145.6406,1838.9727 Q145.8281,1838.7227 146.0469,1838.5977 Q146.2656,1838.457 146.5156,1838.457 Q146.9531,1838.457 147.2344,1838.7695 Q147.5156,1839.0664 147.5156,1839.7852 L147.5156,1841.4883 Q147.5156,1842.207 147.2344,1842.5195 Q146.9531,1842.832 146.5156,1842.832 Q146.125,1842.832 145.875,1842.5977 Q145.625,1842.3789 145.5156,1841.7695 Q145.4531,1841.3477 145.2344,1841.1289 Q144.8438,1840.6914 144.125,1840.4258 Q143.4063,1840.1602 142.6875,1840.1602 Q141.7813,1840.1602 141.0313,1840.5508 Q140.2813,1840.9414 139.7031,1841.832 Q139.125,1842.707 139.125,1843.9102 L139.125,1845.207 Q139.125,1846.6602 140.1719,1847.6289 Q141.2344,1848.5977 143.0938,1848.5977 Q144.2031,1848.5977 144.9844,1848.2852 Q145.4219,1848.1133 145.9375,1847.5977 Q146.25,1847.2852 146.4219,1847.1914 Q146.5938,1847.0977 146.8281,1847.0977 Q147.2188,1847.0977 147.5156,1847.4102 Q147.8281,1847.707 147.8281,1848.1133 Q147.8281,1848.5195 147.4219,1848.9883 Q146.8281,1849.6758 145.8906,1850.0664 Q144.625,1850.5977 143.1094,1850.5977 Q141.3281,1850.5977 139.9063,1849.8633 Q138.75,1849.2695 137.9375,1848.0039 Q137.125,1846.7383 137.125,1845.2539 L137.125,1843.8945 Q137.125,1842.332 137.8438,1840.9883 Q138.5781,1839.6289 139.8594,1838.8945 Q141.1563,1838.1602 142.6094,1838.1602 Q143.4688,1838.1602 144.2188,1838.3633 Q144.9844,1838.5664 145.6406,1838.9727 Z " fill="#000000"/><text fill="#000000" font-family="sans-serif" font-size="20" font-style="italic" lengthAdjust="spacing" textLength="71" x="167.5" y="1839.6563">«Entity»</text><text fill="#000000" font-family="sans-serif" font-size="20" lengthAdjust="spacing" textLength="89" x="158.5" y="1864.8125">Exclusivity</text><line style="stroke:#181818;stroke-width:0.5;" x1="128.5" x2="249.5" y1="1874.207" y2="1874.207"/><line style="stroke:#181818;stroke-width:0.5;" x1="128.5" x2="249.5" y1="1882.207" y2="1882.207"/></g><!--class Category--><g id="elem_Category"><rect codeLine="80" fill="#F1F1F1" height="76.3125" id="Category" rx="2.5" ry="2.5" style="stroke:#181818;stroke-width:0.5;" width="115" x="1491.5" y="1813.8945"/><ellipse cx="1507.5" cy="1844.0508" fill="#ADD1B2" rx="12" ry="12" style="stroke:#181818;stroke-width:1.0;"/><path d="M1509.6406,1838.9727 Q1509.8281,1838.7227 1510.0469,1838.5977 Q1510.2656,1838.457 1510.5156,1838.457 Q1510.9531,1838.457 1511.2344,1838.7695 Q1511.5156,1839.0664 1511.5156,1839.7852 L1511.5156,1841.4883 Q1511.5156,1842.207 1511.2344,1842.5195 Q1510.9531,1842.832 1510.5156,1842.832 Q1510.125,1842.832 1509.875,1842.5977 Q1509.625,1842.3789 1509.5156,1841.7695 Q1509.4531,1841.3477 1509.2344,1841.1289 Q1508.8438,1840.6914 1508.125,1840.4258 Q1507.4063,1840.1602 1506.6875,1840.1602 Q1505.7813,1840.1602 1505.0313,1840.5508 Q1504.2813,1840.9414 1503.7031,1841.832 Q1503.125,1842.707 1503.125,1843.9102 L1503.125,1845.207 Q1503.125,1846.6602 1504.1719,1847.6289 Q1505.2344,1848.5977 1507.0938,1848.5977 Q1508.2031,1848.5977 1508.9844,1848.2852 Q1509.4219,1848.1133 1509.9375,1847.5977 Q1510.25,1847.2852 1510.4219,1847.1914 Q1510.5938,1847.0977 1510.8281,1847.0977 Q1511.2188,1847.0977 1511.5156,1847.4102 Q1511.8281,1847.707 1511.8281,1848.1133 Q1511.8281,1848.5195 1511.4219,1848.9883 Q1510.8281,1849.6758 1509.8906,1850.0664 Q1508.625,1850.5977 1507.1094,1850.5977 Q1505.3281,1850.5977 1503.9063,1849.8633 Q1502.75,1849.2695 1501.9375,1848.0039 Q1501.125,1846.7383 1501.125,1845.2539 L1501.125,1843.8945 Q1501.125,1842.332 1501.8438,1840.9883 Q1502.5781,1839.6289 1503.8594,1838.8945 Q1505.1563,1838.1602 1506.6094,1838.1602 Q1507.4688,1838.1602 1508.2188,1838.3633 Q1508.9844,1838.5664 1509.6406,1838.9727 Z " fill="#000000"/><text fill="#000000" font-family="sans-serif" font-size="20" font-style="italic" lengthAdjust="spacing" textLength="71" x="1527.5" y="1839.6563">«Entity»</text><text fill="#000000" font-family="sans-serif" font-size="20" lengthAdjust="spacing" textLength="81" x="1522.5" y="1864.8125">Category</text><line style="stroke:#181818;stroke-width:0.5;" x1="1492.5" x2="1605.5" y1="1874.207" y2="1874.207"/><line style="stroke:#181818;stroke-width:0.5;" x1="1492.5" x2="1605.5" y1="1882.207" y2="1882.207"/></g><!--class ShowDesigner--><g id="elem_ShowDesigner"><rect codeLine="85" fill="#F1F1F1" height="76.3125" id="ShowDesigner" rx="2.5" ry="2.5" style="stroke:#181818;stroke-width:0.5;" width="161" x="285.5" y="1813.8945"/><ellipse cx="301.5" cy="1844.0508" fill="#ADD1B2" rx="12" ry="12" style="stroke:#181818;stroke-width:1.0;"/><path d="M303.6406,1838.9727 Q303.8281,1838.7227 304.0469,1838.5977 Q304.2656,1838.457 304.5156,1838.457 Q304.9531,1838.457 305.2344,1838.7695 Q305.5156,1839.0664 305.5156,1839.7852 L305.5156,1841.4883 Q305.5156,1842.207 305.2344,1842.5195 Q304.9531,1842.832 304.5156,1842.832 Q304.125,1842.832 303.875,1842.5977 Q303.625,1842.3789 303.5156,1841.7695 Q303.4531,1841.3477 303.2344,1841.1289 Q302.8438,1840.6914 302.125,1840.4258 Q301.4063,1840.1602 300.6875,1840.1602 Q299.7813,1840.1602 299.0313,1840.5508 Q298.2813,1840.9414 297.7031,1841.832 Q297.125,1842.707 297.125,1843.9102 L297.125,1845.207 Q297.125,1846.6602 298.1719,1847.6289 Q299.2344,1848.5977 301.0938,1848.5977 Q302.2031,1848.5977 302.9844,1848.2852 Q303.4219,1848.1133 303.9375,1847.5977 Q304.25,1847.2852 304.4219,1847.1914 Q304.5938,1847.0977 304.8281,1847.0977 Q305.2188,1847.0977 305.5156,1847.4102 Q305.8281,1847.707 305.8281,1848.1133 Q305.8281,1848.5195 305.4219,1848.9883 Q304.8281,1849.6758 303.8906,1850.0664 Q302.625,1850.5977 301.1094,1850.5977 Q299.3281,1850.5977 297.9063,1849.8633 Q296.75,1849.2695 295.9375,1848.0039 Q295.125,1846.7383 295.125,1845.2539 L295.125,1843.8945 Q295.125,1842.332 295.8438,1840.9883 Q296.5781,1839.6289 297.8594,1838.8945 Q299.1563,1838.1602 300.6094,1838.1602 Q301.4688,1838.1602 302.2188,1838.3633 Q302.9844,1838.5664 303.6406,1838.9727 Z " fill="#000000"/><text fill="#000000" font-family="sans-serif" font-size="20" font-style="italic" lengthAdjust="spacing" textLength="71" x="344.5" y="1839.6563">«Entity»</text><text fill="#000000" font-family="sans-serif" font-size="20" lengthAdjust="spacing" textLength="127" x="316.5" y="1864.8125">ShowDesigner</text><line style="stroke:#181818;stroke-width:0.5;" x1="286.5" x2="445.5" y1="1874.207" y2="1874.207"/><line style="stroke:#181818;stroke-width:0.5;" x1="286.5" x2="445.5" y1="1882.207" y2="1882.207"/></g><!--class RepositoryFactory--><g id="elem_RepositoryFactory"><rect codeLine="40" fill="#F1F1F1" height="76.3125" id="RepositoryFactory" rx="2.5" ry="2.5" style="stroke:#181818;stroke-width:0.5;" width="433" x="1083.5" y="1261.8945"/><ellipse cx="1215" cy="1279.4727" fill="#B4A7E5" rx="12" ry="12" style="stroke:#181818;stroke-width:1.0;"/><path d="M1216,1275.6445 L1216,1283.4727 L1218.0313,1283.4727 Q1218.75,1283.4727 1219.0469,1283.7539 Q1219.3594,1284.0195 1219.3594,1284.4727 Q1219.3594,1284.9102 1219.0469,1285.1914 Q1218.75,1285.4727 1218.0313,1285.4727 L1211.9844,1285.4727 Q1211.25,1285.4727 1210.9375,1285.1914 Q1210.6406,1284.9102 1210.6406,1284.4727 Q1210.6406,1284.0195 1210.9375,1283.7539 Q1211.25,1283.4727 1211.9844,1283.4727 L1214,1283.4727 L1214,1275.6445 L1211.9844,1275.6445 Q1211.25,1275.6445 1210.9375,1275.3633 Q1210.6406,1275.082 1210.6406,1274.6289 Q1210.6406,1274.1758 1210.9375,1273.9102 Q1211.25,1273.6289 1211.9844,1273.6289 L1218.0313,1273.6289 Q1218.75,1273.6289 1219.0469,1273.9102 Q1219.3594,1274.1758 1219.3594,1274.6289 Q1219.3594,1275.082 1219.0469,1275.3633 Q1218.75,1275.6445 1218.0313,1275.6445 L1216,1275.6445 Z " fill="#000000"/><text fill="#000000" font-family="sans-serif" font-size="20" font-style="italic" lengthAdjust="spacing" textLength="161" x="1237" y="1287.6563">RepositoryFactory</text><line style="stroke:#181818;stroke-width:0.5;" x1="1084.5" x2="1515.5" y1="1297.0508" y2="1297.0508"/><line style="stroke:#181818;stroke-width:0.5;" x1="1084.5" x2="1515.5" y1="1305.0508" y2="1305.0508"/><ellipse cx="1094.5" cy="1323.1289" fill="#84BE84" rx="3" ry="3" style="stroke:#038048;stroke-width:1.0;"/><text fill="#000000" font-family="sans-serif" font-size="20" lengthAdjust="spacing" textLength="406" x="1104.5" y="1329.8125">getCategoryRepository(): CategoryRepository</text></g><!--class FigureRepository--><g id="elem_FigureRepository"><rect codeLine="44" fill="#F1F1F1" height="76.3125" id="FigureRepository" rx="2.5" ry="2.5" style="stroke:#181818;stroke-width:0.5;" width="290" x="888" y="1398.8945"/><ellipse cx="952.5" cy="1416.4727" fill="#B4A7E5" rx="12" ry="12" style="stroke:#181818;stroke-width:1.0;"/><path d="M953.5,1412.6445 L953.5,1420.4727 L955.5313,1420.4727 Q956.25,1420.4727 956.5469,1420.7539 Q956.8594,1421.0195 956.8594,1421.4727 Q956.8594,1421.9102 956.5469,1422.1914 Q956.25,1422.4727 955.5313,1422.4727 L949.4844,1422.4727 Q948.75,1422.4727 948.4375,1422.1914 Q948.1406,1421.9102 948.1406,1421.4727 Q948.1406,1421.0195 948.4375,1420.7539 Q948.75,1420.4727 949.4844,1420.4727 L951.5,1420.4727 L951.5,1412.6445 L949.4844,1412.6445 Q948.75,1412.6445 948.4375,1412.3633 Q948.1406,1412.082 948.1406,1411.6289 Q948.1406,1411.1758 948.4375,1410.9102 Q948.75,1410.6289 949.4844,1410.6289 L955.5313,1410.6289 Q956.25,1410.6289 956.5469,1410.9102 Q956.8594,1411.1758 956.8594,1411.6289 Q956.8594,1412.082 956.5469,1412.3633 Q956.25,1412.6445 955.5313,1412.6445 L953.5,1412.6445 Z " fill="#000000"/><text fill="#000000" font-family="sans-serif" font-size="20" font-style="italic" lengthAdjust="spacing" textLength="152" x="974.5" y="1424.6563">FigureRepository</text><line style="stroke:#181818;stroke-width:0.5;" x1="889" x2="1177" y1="1434.0508" y2="1434.0508"/><line style="stroke:#181818;stroke-width:0.5;" x1="889" x2="1177" y1="1442.0508" y2="1442.0508"/><ellipse cx="899" cy="1460.1289" fill="#84BE84" rx="3" ry="3" style="stroke:#038048;stroke-width:1.0;"/><text fill="#000000" font-family="sans-serif" font-size="20" lengthAdjust="spacing" textLength="263" x="909" y="1466.8125">addFigureToCatalogue(figure)</text></g><!--class CategoryRepository--><g id="elem_CategoryRepository"><rect codeLine="48" fill="#F1F1F1" height="76.3125" id="CategoryRepository" rx="2.5" ry="2.5" style="stroke:#181818;stroke-width:0.5;" width="304" x="1213" y="1398.8945"/><ellipse cx="1273" cy="1416.4727" fill="#B4A7E5" rx="12" ry="12" style="stroke:#181818;stroke-width:1.0;"/><path d="M1274,1412.6445 L1274,1420.4727 L1276.0313,1420.4727 Q1276.75,1420.4727 1277.0469,1420.7539 Q1277.3594,1421.0195 1277.3594,1421.4727 Q1277.3594,1421.9102 1277.0469,1422.1914 Q1276.75,1422.4727 1276.0313,1422.4727 L1269.9844,1422.4727 Q1269.25,1422.4727 1268.9375,1422.1914 Q1268.6406,1421.9102 1268.6406,1421.4727 Q1268.6406,1421.0195 1268.9375,1420.7539 Q1269.25,1420.4727 1269.9844,1420.4727 L1272,1420.4727 L1272,1412.6445 L1269.9844,1412.6445 Q1269.25,1412.6445 1268.9375,1412.3633 Q1268.6406,1412.082 1268.6406,1411.6289 Q1268.6406,1411.1758 1268.9375,1410.9102 Q1269.25,1410.6289 1269.9844,1410.6289 L1276.0313,1410.6289 Q1276.75,1410.6289 1277.0469,1410.9102 Q1277.3594,1411.1758 1277.3594,1411.6289 Q1277.3594,1412.082 1277.0469,1412.3633 Q1276.75,1412.6445 1276.0313,1412.6445 L1274,1412.6445 Z " fill="#000000"/><text fill="#000000" font-family="sans-serif" font-size="20" font-style="italic" lengthAdjust="spacing" textLength="175" x="1295" y="1424.6563">CategoryRepository</text><line style="stroke:#181818;stroke-width:0.5;" x1="1214" x2="1516" y1="1434.0508" y2="1434.0508"/><line style="stroke:#181818;stroke-width:0.5;" x1="1214" x2="1516" y1="1442.0508" y2="1442.0508"/><ellipse cx="1224" cy="1460.1289" fill="#84BE84" rx="3" ry="3" style="stroke:#038048;stroke-width:1.0;"/><text fill="#000000" font-family="sans-serif" font-size="20" lengthAdjust="spacing" textLength="277" x="1234" y="1466.8125">allCategories(): List&lt;Category&gt;</text></g><!--class AddFigureToCatalogueUI--><g id="elem_AddFigureToCatalogueUI"><rect codeLine="91" fill="#F1F1F1" height="126.625" id="AddFigureToCatalogueUI" rx="2.5" ry="2.5" style="stroke:#181818;stroke-width:0.5;" width="290" x="1619" y="50.8945"/><ellipse cx="1650.75" cy="81.0508" fill="#ADD1B2" rx="12" ry="12" style="stroke:#181818;stroke-width:1.0;"/><path d="M1652.8906,75.9727 Q1653.0781,75.7227 1653.2969,75.5977 Q1653.5156,75.457 1653.7656,75.457 Q1654.2031,75.457 1654.4844,75.7695 Q1654.7656,76.0664 1654.7656,76.7852 L1654.7656,78.4883 Q1654.7656,79.207 1654.4844,79.5195 Q1654.2031,79.832 1653.7656,79.832 Q1653.375,79.832 1653.125,79.5977 Q1652.875,79.3789 1652.7656,78.7695 Q1652.7031,78.3477 1652.4844,78.1289 Q1652.0938,77.6914 1651.375,77.4258 Q1650.6563,77.1602 1649.9375,77.1602 Q1649.0313,77.1602 1648.2813,77.5508 Q1647.5313,77.9414 1646.9531,78.832 Q1646.375,79.707 1646.375,80.9102 L1646.375,82.207 Q1646.375,83.6602 1647.4219,84.6289 Q1648.4844,85.5977 1650.3438,85.5977 Q1651.4531,85.5977 1652.2344,85.2852 Q1652.6719,85.1133 1653.1875,84.5977 Q1653.5,84.2852 1653.6719,84.1914 Q1653.8438,84.0977 1654.0781,84.0977 Q1654.4688,84.0977 1654.7656,84.4102 Q1655.0781,84.707 1655.0781,85.1133 Q1655.0781,85.5195 1654.6719,85.9883 Q1654.0781,86.6758 1653.1406,87.0664 Q1651.875,87.5977 1650.3594,87.5977 Q1648.5781,87.5977 1647.1563,86.8633 Q1646,86.2695 1645.1875,85.0039 Q1644.375,83.7383 1644.375,82.2539 L1644.375,80.8945 Q1644.375,79.332 1645.0938,77.9883 Q1645.8281,76.6289 1647.1094,75.8945 Q1648.4063,75.1602 1649.8594,75.1602 Q1650.7188,75.1602 1651.4688,75.3633 Q1652.2344,75.5664 1652.8906,75.9727 Z " fill="#000000"/><text fill="#000000" font-family="sans-serif" font-size="20" font-style="italic" lengthAdjust="spacing" textLength="41" x="1759.25" y="76.6563">«UI»</text><text fill="#000000" font-family="sans-serif" font-size="20" lengthAdjust="spacing" textLength="221" x="1669.25" y="101.8125">AddFigureToCatalogueUI</text><line style="stroke:#181818;stroke-width:0.5;" x1="1620" x2="1908" y1="111.207" y2="111.207"/><line style="stroke:#181818;stroke-width:0.5;" x1="1620" x2="1908" y1="119.207" y2="119.207"/><ellipse cx="1630" cy="137.2852" fill="#84BE84" rx="3" ry="3" style="stroke:#038048;stroke-width:1.0;"/><text fill="#000000" font-family="sans-serif" font-size="20" lengthAdjust="spacing" textLength="263" x="1640" y="143.9688">addFigureToCatalogue(figure)</text><ellipse cx="1630" cy="162.4414" fill="#84BE84" rx="3" ry="3" style="stroke:#038048;stroke-width:1.0;"/><text fill="#000000" font-family="sans-serif" font-size="20" lengthAdjust="spacing" textLength="156" x="1640" y="169.125">showCategories()</text></g><!--class AddFigureToCatalogueController--><g id="elem_AddFigureToCatalogueController"><rect codeLine="98" fill="#F1F1F1" height="126.625" id="AddFigureToCatalogueController" rx="2.5" ry="2.5" style="stroke:#181818;stroke-width:0.5;" width="321" x="1603.5" y="270.8945"/><ellipse cx="1619.5" cy="301.0508" fill="#ADD1B2" rx="12" ry="12" style="stroke:#181818;stroke-width:1.0;"/><path d="M1621.6406,295.9727 Q1621.8281,295.7227 1622.0469,295.5977 Q1622.2656,295.457 1622.5156,295.457 Q1622.9531,295.457 1623.2344,295.7695 Q1623.5156,296.0664 1623.5156,296.7852 L1623.5156,298.4883 Q1623.5156,299.207 1623.2344,299.5195 Q1622.9531,299.832 1622.5156,299.832 Q1622.125,299.832 1621.875,299.5977 Q1621.625,299.3789 1621.5156,298.7695 Q1621.4531,298.3477 1621.2344,298.1289 Q1620.8438,297.6914 1620.125,297.4258 Q1619.4063,297.1602 1618.6875,297.1602 Q1617.7813,297.1602 1617.0313,297.5508 Q1616.2813,297.9414 1615.7031,298.832 Q1615.125,299.707 1615.125,300.9102 L1615.125,302.207 Q1615.125,303.6602 1616.1719,304.6289 Q1617.2344,305.5977 1619.0938,305.5977 Q1620.2031,305.5977 1620.9844,305.2852 Q1621.4219,305.1133 1621.9375,304.5977 Q1622.25,304.2852 1622.4219,304.1914 Q1622.5938,304.0977 1622.8281,304.0977 Q1623.2188,304.0977 1623.5156,304.4102 Q1623.8281,304.707 1623.8281,305.1133 Q1623.8281,305.5195 1623.4219,305.9883 Q1622.8281,306.6758 1621.8906,307.0664 Q1620.625,307.5977 1619.1094,307.5977 Q1617.3281,307.5977 1615.9063,306.8633 Q1614.75,306.2695 1613.9375,305.0039 Q1613.125,303.7383 1613.125,302.2539 L1613.125,300.8945 Q1613.125,299.332 1613.8438,297.9883 Q1614.5781,296.6289 1615.8594,295.8945 Q1617.1563,295.1602 1618.6094,295.1602 Q1619.4688,295.1602 1620.2188,295.3633 Q1620.9844,295.5664 1621.6406,295.9727 Z " fill="#000000"/><text fill="#000000" font-family="sans-serif" font-size="20" font-style="italic" lengthAdjust="spacing" textLength="109" x="1723.5" y="296.6563">«Controller»</text><text fill="#000000" font-family="sans-serif" font-size="20" lengthAdjust="spacing" textLength="287" x="1634.5" y="321.8125">AddFigureToCatalogueController</text><line style="stroke:#181818;stroke-width:0.5;" x1="1604.5" x2="1923.5" y1="331.207" y2="331.207"/><line style="stroke:#181818;stroke-width:0.5;" x1="1604.5" x2="1923.5" y1="339.207" y2="339.207"/><ellipse cx="1614.5" cy="357.2852" fill="#84BE84" rx="3" ry="3" style="stroke:#038048;stroke-width:1.0;"/><text fill="#000000" font-family="sans-serif" font-size="20" lengthAdjust="spacing" textLength="263" x="1624.5" y="363.9688">addFigureToCatalogue(figure)</text><ellipse cx="1614.5" cy="382.4414" fill="#84BE84" rx="3" ry="3" style="stroke:#038048;stroke-width:1.0;"/><text fill="#000000" font-family="sans-serif" font-size="20" lengthAdjust="spacing" textLength="134" x="1624.5" y="389.125">listCategories()</text></g><!--link PersistenceContext to RepositoryFactory--><g id="link_PersistenceContext_RepositoryFactory"><path codeLine="107" d="M1263.12,593.0145 C1313.88,623.3945 1371,671.7345 1371,735.3945 C1371,735.3945 1371,735.3945 1371,1092.3945 C1371,1151.9545 1344.26,1216.1845 1323.6,1256.9245 " fill="none" id="PersistenceContext-to-RepositoryFactory" style="stroke:#181818;stroke-width:1.0;stroke-dasharray:7.0,7.0;"/><polygon fill="#181818" points="1321.11,1261.7745,1328.7761,1255.5914,1323.3916,1257.3254,1321.6576,1251.9409,1321.11,1261.7745" style="stroke:#181818;stroke-width:1.0;"/><text fill="#000000" font-family="sans-serif" font-size="20" lengthAdjust="spacing" textLength="158" x="1386" y="950.1563">figureRepository()</text><text fill="#000000" font-family="sans-serif" font-size="20" lengthAdjust="spacing" textLength="186" x="1372" y="975.3125">categoryRepository()</text></g><!--link PersistenceContext to JpaRepositoryFactory--><g id="link_PersistenceContext_JpaRepositoryFactory"><path codeLine="108" d="M1014.78,592.9245 C869.6,624.3245 662.77,669.0545 519.76,699.9745 " fill="none" id="PersistenceContext-to-JpaRepositoryFactory" style="stroke:#181818;stroke-width:1.0;stroke-dasharray:7.0,7.0;"/><polygon fill="#181818" points="514.7,701.0745,524.3424,703.0807,519.5869,700.0171,522.6505,695.2617,514.7,701.0745" style="stroke:#181818;stroke-width:1.0;"/></g><!--link PersistenceContext to InMemoryRepositoryFactory--><g id="link_PersistenceContext_InMemoryRepositoryFactory"><path codeLine="109" d="M1170.25,592.9345 C1140.33,663.3245 1075.11,816.7045 1040.18,898.8645 " fill="none" id="PersistenceContext-to-InMemoryRepositoryFactory" style="stroke:#181818;stroke-width:1.0;stroke-dasharray:7.0,7.0;"/><polygon fill="#181818" points="1038.13,903.6845,1045.3342,896.969,1040.0875,899.0836,1037.9728,893.8369,1038.13,903.6845" style="stroke:#181818;stroke-width:1.0;"/></g><!--link JpaFigureRepository to FigureRepository--><g id="link_JpaFigureRepository_FigureRepository"><path codeLine="114" d="M145.13,980.1445 C189.01,1049.5545 323.94,1246.9445 492,1337.8945 C555.59,1372.3145 733.41,1400.3145 867.97,1417.4445 " fill="none" id="JpaFigureRepository-to-FigureRepository" style="stroke:#181818;stroke-width:1.0;"/><polygon fill="none" points="868.94,1410.5145,887.91,1419.9445,867.2,1424.4045,868.94,1410.5145" style="stroke:#181818;stroke-width:1.0;"/></g><!--link JpaCategoryRepository to CategoryRepository--><g id="link_JpaCategoryRepository_CategoryRepository"><path codeLine="117" d="M410.02,980.1645 C436.21,1018.9945 491.69,1094.5445 555,1140.8945 C768.52,1297.1945 851.09,1294.3945 1105,1368.8945 C1133.89,1377.3745 1164.76,1385.8345 1194.77,1393.7545 " fill="none" id="JpaCategoryRepository-to-CategoryRepository" style="stroke:#181818;stroke-width:1.0;"/><polygon fill="none" points="1196.75,1387.0445,1214.33,1398.8745,1193.21,1400.5845,1196.75,1387.0445" style="stroke:#181818;stroke-width:1.0;"/></g><!--link JpaRepositoryFactory to RepositoryFactory--><g id="link_JpaRepositoryFactory_RepositoryFactory"><path codeLine="120" d="M514.7,738.8645 C728.63,744.1645 1094.08,765.9545 1192,851.8945 C1304.69,950.7945 1310.16,1145.1445 1305.08,1241.6745 " fill="none" id="JpaRepositoryFactory-to-RepositoryFactory" style="stroke:#181818;stroke-width:1.0;stroke-dasharray:7.0,7.0;"/><polygon fill="none" points="1312.06,1242.3045,1303.79,1261.8145,1298.09,1241.4145,1312.06,1242.3045" style="stroke:#181818;stroke-width:1.0;"/></g><!--link JpaRepositoryFactory to JpaFigureRepository--><g id="link_JpaRepositoryFactory_JpaFigureRepository"><path codeLine="121" d="M304.15,786.9445 C259.39,829.7345 196.31,890.0245 159.63,925.0745 " fill="none" id="JpaRepositoryFactory-to-JpaFigureRepository" style="stroke:#181818;stroke-width:1.0;stroke-dasharray:7.0,7.0;"/><polygon fill="#181818" points="155.73,928.8045,164.9987,925.4741,159.3432,925.3484,159.4689,919.693,155.73,928.8045" style="stroke:#181818;stroke-width:1.0;"/></g><!--link JpaRepositoryFactory to JpaCategoryRepository--><g id="link_JpaRepositoryFactory_JpaCategoryRepository"><path codeLine="122" d="M364.72,786.9445 C372.15,829.2145 382.59,888.5645 388.79,923.7845 " fill="none" id="JpaRepositoryFactory-to-JpaCategoryRepository" style="stroke:#181818;stroke-width:1.0;stroke-dasharray:7.0,7.0;"/><polygon fill="#181818" points="389.67,928.8045,392.0419,919.2456,388.7994,923.8809,384.1641,920.6384,389.67,928.8045" style="stroke:#181818;stroke-width:1.0;"/></g><!--link InMemoryFigureRepository to FigureRepository--><g id="link_InMemoryFigureRepository_FigureRepository"><path codeLine="127" d="M730.45,1117.0945 C783.3,1172.7945 912.7,1309.1345 983.95,1384.2145 " fill="none" id="InMemoryFigureRepository-to-FigureRepository" style="stroke:#181818;stroke-width:1.0;stroke-dasharray:7.0,7.0;"/><polygon fill="none" points="989.12,1379.4845,997.81,1398.8145,978.96,1389.1245,989.12,1379.4845" style="stroke:#181818;stroke-width:1.0;"/></g><!--link InMemoryCategoryRepository to CategoryRepository--><g id="link_InMemoryCategoryRepository_CategoryRepository"><path codeLine="130" d="M1023.24,1117.0345 C1017.33,1165.4845 1011.55,1274.0145 1066,1337.8945 C1084.42,1359.5145 1137.22,1379.7345 1193.42,1396.1345 " fill="none" id="InMemoryCategoryRepository-to-CategoryRepository" style="stroke:#181818;stroke-width:1.0;stroke-dasharray:7.0,7.0;"/><polygon fill="none" points="1195.63,1389.4845,1212.98,1401.6645,1191.83,1402.9645,1195.63,1389.4845" style="stroke:#181818;stroke-width:1.0;"/></g><!--link InMemoryRepositoryFactory to RepositoryFactory--><g id="link_InMemoryRepositoryFactory_RepositoryFactory"><path codeLine="133" d="M1118.94,1005.0145 C1145.81,1021.6145 1173.1,1042.0645 1194,1065.8945 C1239.29,1117.5545 1268.54,1191.7845 1284.6,1242.4945 " fill="none" id="InMemoryRepositoryFactory-to-RepositoryFactory" style="stroke:#181818;stroke-width:1.0;stroke-dasharray:7.0,7.0;"/><polygon fill="none" points="1291.31,1240.4945,1290.4,1261.6645,1277.91,1244.5445,1291.31,1240.4945" style="stroke:#181818;stroke-width:1.0;"/></g><!--link InMemoryRepositoryFactory to InMemoryFigureRepository--><g id="link_InMemoryRepositoryFactory_InMemoryFigureRepository"><path codeLine="134" d="M903.33,1004.8945 C857.5,1024.8545 806.47,1047.0745 767.92,1063.8645 " fill="none" id="InMemoryRepositoryFactory-to-InMemoryFigureRepository" style="stroke:#181818;stroke-width:1.0;stroke-dasharray:7.0,7.0;"/><polygon fill="#181818" points="763.28,1065.8845,773.1286,1065.9531,767.8631,1063.8857,769.9305,1058.6201,763.28,1065.8845" style="stroke:#181818;stroke-width:1.0;"/></g><!--link InMemoryRepositoryFactory to InMemoryCategoryRepository--><g id="link_InMemoryRepositoryFactory_InMemoryCategoryRepository"><path codeLine="135" d="M1020.67,1004.8945 C1022.05,1023.5545 1023.58,1044.1945 1024.79,1060.5245 " fill="none" id="InMemoryRepositoryFactory-to-InMemoryCategoryRepository" style="stroke:#181818;stroke-width:1.0;stroke-dasharray:7.0,7.0;"/><polygon fill="#181818" points="1025.18,1065.8845,1028.5003,1056.6122,1024.8085,1060.8983,1020.5224,1057.2066,1025.18,1065.8845" style="stroke:#181818;stroke-width:1.0;"/></g><!--link FigureRepository to Figure--><g id="link_FigureRepository_Figure"><path codeLine="140" d="M1022.1,1474.9645 C1012.57,1507.3845 998.49,1555.2845 986.95,1594.5545 " fill="none" id="FigureRepository-to-Figure" style="stroke:#181818;stroke-width:1.0;stroke-dasharray:7.0,7.0;"/><polygon fill="#181818" points="985.41,1599.7845,991.7906,1592.282,986.8231,1594.9884,984.1168,1590.021,985.41,1599.7845" style="stroke:#181818;stroke-width:1.0;"/></g><!--link CategoryRepository to Category--><g id="link_CategoryRepository_Category"><path codeLine="143" d="M1386.93,1475.0045 C1420.62,1533.3045 1485.33,1650.6745 1525,1756.8945 C1531.19,1773.4845 1536.35,1792.2945 1540.27,1808.7145 " fill="none" id="CategoryRepository-to-Category" style="stroke:#181818;stroke-width:1.0;stroke-dasharray:7.0,7.0;"/><polygon fill="#181818" points="1541.45,1813.7245,1543.2886,1804.0488,1540.308,1808.8567,1535.5001,1805.876,1541.45,1813.7245" style="stroke:#181818;stroke-width:1.0;"/></g><!--link RepositoryFactory to FigureRepository--><g id="link_RepositoryFactory_FigureRepository"><path codeLine="146" d="M1226.69,1337.9645 C1190.93,1356.0445 1147.89,1377.8045 1111.48,1396.2145 " fill="none" id="RepositoryFactory-to-FigureRepository" style="stroke:#181818;stroke-width:1.0;stroke-dasharray:7.0,7.0;"/><polygon fill="#181818" points="1106.61,1398.6745,1116.4469,1398.1897,1111.0735,1396.4214,1112.8419,1391.048,1106.61,1398.6745" style="stroke:#181818;stroke-width:1.0;"/></g><!--link RepositoryFactory to CategoryRepository--><g id="link_RepositoryFactory_CategoryRepository"><path codeLine="147" d="M1317.93,1338.1445 C1326.25,1355.4045 1336.16,1375.9945 1344.74,1393.8245 " fill="none" id="RepositoryFactory-to-CategoryRepository" style="stroke:#181818;stroke-width:1.0;stroke-dasharray:7.0,7.0;"/><polygon fill="#181818" points="1347.12,1398.7645,1346.8112,1388.9205,1344.9471,1394.2614,1339.6062,1392.3972,1347.12,1398.7645" style="stroke:#181818;stroke-width:1.0;"/></g><!--link Figure to DSLDescription--><g id="link_Figure_DSLDescription"><path codeLine="152" d="M1038.81,1726.9345 C1049.99,1736.8845 1061.36,1747.1145 1072,1756.8945 C1090.56,1773.9545 1110.71,1793.1545 1127.88,1809.7445 " fill="none" id="Figure-to-DSLDescription" style="stroke:#181818;stroke-width:1.0;"/><polygon fill="#181818" points="1131.73,1813.4545,1128.0467,1804.3204,1128.1379,1809.9765,1122.4818,1810.0677,1131.73,1813.4545" style="stroke:#181818;stroke-width:1.0;"/><text fill="#000000" font-family="sans-serif" font-size="20" lengthAdjust="spacing" textLength="136" x="1100" y="1778.6563">DSLDescription</text><text fill="#000000" font-family="sans-serif" font-size="20" lengthAdjust="spacing" textLength="11" x="1114.0277" y="1801.4041">1</text></g><!--link Figure to Keyword--><g id="link_Figure_Keyword"><path codeLine="153" d="M1178.61,1727.0145 C1201.44,1736.0545 1223.99,1746.0245 1245,1756.8945 C1273.47,1771.6245 1302.49,1792.3645 1325.68,1810.6145 " fill="none" id="Figure-to-Keyword" style="stroke:#181818;stroke-width:1.0;"/><polygon fill="#181818" points="1329.64,1813.7545,1325.068,1805.0312,1325.7204,1810.6503,1320.1012,1811.3026,1329.64,1813.7545" style="stroke:#181818;stroke-width:1.0;"/><text fill="#000000" font-family="sans-serif" font-size="20" lengthAdjust="spacing" textLength="85" x="1287" y="1778.6563">keywords</text><text fill="#000000" font-family="sans-serif" font-size="20" lengthAdjust="spacing" textLength="31" x="1289.2592" y="1801.433">1..*</text></g><!--link Figure to Code--><g id="link_Figure_Code"><path codeLine="154" d="M832.02,1727.0145 C771.69,1755.0045 702.42,1787.1445 649.56,1811.6645 " fill="none" id="Figure-to-Code" style="stroke:#181818;stroke-width:1.0;"/><polygon fill="#181818" points="644.82,1813.8645,654.6676,1813.7071,649.356,1811.7611,651.3021,1806.4495,644.82,1813.8645" style="stroke:#181818;stroke-width:1.0;"/><text fill="#000000" font-family="sans-serif" font-size="20" lengthAdjust="spacing" textLength="43" x="767" y="1778.6563">code</text><text fill="#000000" font-family="sans-serif" font-size="20" lengthAdjust="spacing" textLength="11" x="645.6648" y="1801.5606">1</text></g><!--link Figure to Version--><g id="link_Figure_Version"><path codeLine="155" d="M899.51,1727.0145 C869.94,1754.4445 836.09,1785.8645 809.87,1810.1945 " fill="none" id="Figure-to-Version" style="stroke:#181818;stroke-width:1.0;"/><polygon fill="#181818" points="806.06,1813.7245,815.375,1810.5261,809.7219,1810.3201,809.9279,1804.667,806.06,1813.7245" style="stroke:#181818;stroke-width:1.0;"/><text fill="#000000" font-family="sans-serif" font-size="20" lengthAdjust="spacing" textLength="62" x="867" y="1778.6563">version</text><text fill="#000000" font-family="sans-serif" font-size="20" lengthAdjust="spacing" textLength="11" x="800.568" y="1801.3983">1</text></g><!--link Figure to Description--><g id="link_Figure_Description"><path codeLine="156" d="M967,1727.0145 C967,1753.8845 967,1784.5745 967,1808.6845 " fill="none" id="Figure-to-Description" style="stroke:#181818;stroke-width:1.0;"/><polygon fill="#181818" points="967,1813.7245,971,1804.7245,967,1808.7245,963,1804.7245,967,1813.7245" style="stroke:#181818;stroke-width:1.0;"/><text fill="#000000" font-family="sans-serif" font-size="20" lengthAdjust="spacing" textLength="95" x="968" y="1778.6563">description</text><text fill="#000000" font-family="sans-serif" font-size="20" lengthAdjust="spacing" textLength="11" x="955.1234" y="1801.3983">1</text></g><!--link Figure to Category--><g id="link_Figure_Category"><path codeLine="157" d="M1290.1,1726.9445 C1321.18,1735.8245 1351.93,1745.7845 1381,1756.8945 C1418.05,1771.0545 1456.85,1792.2745 1487.81,1810.9845 " fill="none" id="Figure-to-Category" style="stroke:#181818;stroke-width:1.0;"/><polygon fill="#181818" points="1492.32,1813.7245,1486.712,1805.6282,1488.049,1811.1248,1482.5524,1812.4618,1492.32,1813.7245" style="stroke:#181818;stroke-width:1.0;"/><text fill="#000000" font-family="sans-serif" font-size="20" lengthAdjust="spacing" textLength="77" x="1439" y="1778.6563">category</text><text fill="#000000" font-family="sans-serif" font-size="20" lengthAdjust="spacing" textLength="11" x="1472.5759" y="1802.3498">1</text></g><!--link Figure to ShowDesigner--><g id="link_Figure_ShowDesigner"><path codeLine="158" d="M714.89,1726.9645 C680.81,1736.4345 646.44,1746.5245 614,1756.8945 C559.3,1774.3745 499.04,1797.1345 451.61,1815.8745 " fill="none" id="Figure-to-ShowDesigner" style="stroke:#181818;stroke-width:1.0;"/><polygon fill="#181818" points="446.77,1817.7945,456.6104,1818.2024,451.4192,1815.9548,453.6668,1810.7636,446.77,1817.7945" style="stroke:#181818;stroke-width:1.0;"/><text fill="#000000" font-family="sans-serif" font-size="20" lengthAdjust="spacing" textLength="94" x="615" y="1778.6563">created by</text><text fill="#000000" font-family="sans-serif" font-size="20" lengthAdjust="spacing" textLength="11" x="454.4534" y="1809.399">1</text></g><!--link Figure to Exclusivity--><g id="link_Figure_Exclusivity"><path codeLine="159" d="M597,1722.5245 C544.38,1732.8045 491.13,1744.2945 441,1756.8945 C362.49,1776.6245 343.24,1784.0045 268,1813.8945 C263.87,1815.5345 259.64,1817.2945 255.4,1819.1045 " fill="none" id="Figure-to-Exclusivity" style="stroke:#181818;stroke-width:1.0;"/><polygon fill="#181818" points="250.79,1821.0945,260.6384,1821.1889,255.3783,1819.1077,257.4595,1813.8476,250.79,1821.0945" style="stroke:#181818;stroke-width:1.0;"/><text fill="#000000" font-family="sans-serif" font-size="20" lengthAdjust="spacing" textLength="87" x="442" y="1778.6563">exclusivity</text><text fill="#000000" font-family="sans-serif" font-size="20" lengthAdjust="spacing" textLength="34" x="243.5644" y="1804.6945">0..1</text></g><!--link AddFigureToCatalogueUI to AddFigureToCatalogueController--><g id="link_AddFigureToCatalogueUI_AddFigureToCatalogueController"><path codeLine="164" d="M1764,178.1545 C1764,205.5145 1764,237.6345 1764,265.5345 " fill="none" id="AddFigureToCatalogueUI-to-AddFigureToCatalogueController" style="stroke:#181818;stroke-width:1.0;stroke-dasharray:7.0,7.0;"/><polygon fill="#181818" points="1764,270.6945,1768,261.6945,1764,265.6945,1760,261.6945,1764,270.6945" style="stroke:#181818;stroke-width:1.0;"/></g><!--link AddFigureToCatalogueController to PersistenceContext--><g id="link_AddFigureToCatalogueController_PersistenceContext"><path codeLine="169" d="M1603.4,343.0045 C1509.26,353.3445 1390.96,376.8945 1298,429.8945 C1262.95,449.8745 1232.93,484.7345 1212.82,512.4145 " fill="none" id="AddFigureToCatalogueController-to-PersistenceContext" style="stroke:#181818;stroke-width:1.0;stroke-dasharray:7.0,7.0;"/><polygon fill="#181818" points="1209.68,516.7945,1218.171,511.8043,1212.5902,512.7288,1211.6658,507.1479,1209.68,516.7945" style="stroke:#181818;stroke-width:1.0;"/><text fill="#000000" font-family="sans-serif" font-size="20" lengthAdjust="spacing" textLength="204" x="1299" y="451.6563">getRepositoryFactory()</text></g><!--link AddFigureToCatalogueController to RepositoryFactory--><g id="link_AddFigureToCatalogueController_RepositoryFactory"><path codeLine="170" d="M1721.39,398.0145 C1663.93,486.6345 1564.49,655.8245 1527,816.8945 C1524.28,828.5845 1519.39,834.6145 1527,843.8945 C1538.49,857.9145 1555.51,837.8745 1567,851.8945 C1610.11,904.4845 1591.5,941.4645 1567,1004.8945 C1524.82,1114.0845 1421.16,1207.7545 1356.11,1258.4645 " fill="none" id="AddFigureToCatalogueController-to-RepositoryFactory" style="stroke:#181818;stroke-width:1.0;stroke-dasharray:7.0,7.0;"/><polygon fill="#181818" points="1351.88,1261.7445,1361.4423,1259.386,1355.8298,1258.6788,1356.5371,1253.0663,1351.88,1261.7445" style="stroke:#181818;stroke-width:1.0;"/><text fill="#000000" font-family="sans-serif" font-size="20" lengthAdjust="spacing" textLength="192" x="1528" y="838.6563">getFigureRepository()</text></g><!--link AddFigureToCatalogueController to RepositoryFactory--><g id="link_AddFigureToCatalogueController_RepositoryFactory"><path codeLine="171" d="M1764,398.0245 C1764,441.7145 1764,501.3545 1764,553.8945 C1764,553.8945 1764,553.8945 1764,1092.3945 C1764,1208.6045 1641.01,1259.8945 1521.68,1282.3045 " fill="none" id="AddFigureToCatalogueController-to-RepositoryFactory-1" style="stroke:#181818;stroke-width:1.0;stroke-dasharray:7.0,7.0;"/><polygon fill="#181818" points="1516.72,1283.2145,1526.2921,1285.5327,1521.6387,1282.3163,1524.855,1277.6629,1516.72,1283.2145" style="stroke:#181818;stroke-width:1.0;"/><text fill="#000000" font-family="sans-serif" font-size="20" lengthAdjust="spacing" textLength="218" x="1765" y="838.6563">getCategoryRepository()</text></g><!--link AddFigureToCatalogueController to FigureRepository--><g id="link_AddFigureToCatalogueController_FigureRepository"><path codeLine="172" d="M1897.94,397.9145 C1954.27,434.2045 2007,486.2345 2007,553.8945 C2007,553.8945 2007,553.8945 2007,1300.8945 C2007,1391.6645 1285.43,1383.3845 1196,1398.8945 C1191.79,1399.6245 1187.52,1400.3945 1183.22,1401.1945 " fill="none" id="AddFigureToCatalogueController-to-FigureRepository" style="stroke:#181818;stroke-width:1.0;stroke-dasharray:7.0,7.0;"/><polygon fill="#181818" points="1178.15,1402.1445,1187.7362,1404.404,1183.0631,1401.2162,1186.2508,1396.5431,1178.15,1402.1445" style="stroke:#181818;stroke-width:1.0;"/><text fill="#000000" font-family="sans-serif" font-size="20" lengthAdjust="spacing" textLength="263" x="2008" y="962.6563">addFigureToCatalogue(figure)</text></g><!--link AddFigureToCatalogueController to CategoryRepository--><g id="link_AddFigureToCatalogueController_CategoryRepository"><path codeLine="173" d="M1924.62,363.7045 C2095.66,398.5245 2342,464.2545 2342,553.8945 C2342,553.8945 2342,553.8945 2342,1300.8945 C2342,1382.6145 1798.69,1417.5245 1522.38,1429.9945 " fill="none" id="AddFigureToCatalogueController-to-CategoryRepository" style="stroke:#181818;stroke-width:1.0;stroke-dasharray:7.0,7.0;"/><polygon fill="#181818" points="1517.12,1430.2345,1526.2835,1433.8444,1522.1154,1430.0198,1525.9399,1425.8518,1517.12,1430.2345" style="stroke:#181818;stroke-width:1.0;"/><text fill="#000000" font-family="sans-serif" font-size="20" lengthAdjust="spacing" textLength="129" x="2343" y="962.6563">allCategories()</text></g><!--SRC=[hLV9Rjim4BthAmZt4BknXRH78H0Gs37WDaMBfiwf5qQYLSQo98XobZR-zmwrqkAGKPhoOb3pvir6SiPYovECvdGNfy6MXIHa6xgFYsMQ5DVyDoCVpnp12YAO11LfJf8qOOwJqM1B8qP6trWkk2XO4i26l5kKY_nn2AmWfa8G1J47LlPOr6AvJad4YkyiImK7ygSb3UJFUE8HxMEfSt0EYl6ietRvBelTkupYJdpAg4Qek3530UF9iP-hH1GKRDdSExQvvD4-PnssDjc7pMd18X1ZG6kyFDcn7S3ne5V9br9gZzo8UcFu3U-G73HOIoBKF2pI7UM96dG9QkMAkWQIYyCnp3SKZgmjDMtWkbSo1VhNLlE0cJBaeRD4mx32_4Y1cyPfj6VZJVbbOgSsfaqXZ-CQnPcGxb_1GJfl5Fq-V_rpKZb4Bg8ePn60bPhLelFpowJWnPFlgxUw4ew3D6HJSY-FRPfCuN4HGSwpejg8UA7kj-pf8Sr3CIL1xTNaVnDE2NiCuhtWz-3mH3-6Ss27W6vel6Vaw-qT2uech2FSJML_25JnQ13y-kgL6f-hA8T0BxlWjR81iAfuSoJGchT2e_hrh_G18k1HmdAKuWY0qAZtVBt27xOBvAQiLy2sNld-KNSPTATEYG2drEk1l3coT-Lf7BDyk4-T3lZMRVxDnnWkBExZYT9Ywp8WJNVcayTIYCXSrzUVGeziUa_MUF8p2P37q4QBDLORtjYE84witzS1OyssZHWLpfvzxKtko90dLQN3n98GQGejfTvhL4PTwi9wzWsjrg3XOx6-g81vVM8SDkg8ZFszZSg8AECovDuo2cZ42AQaDbR1F15ft6WzZEMmQVd6HBn25IsH5f-v5aWDtAO6lPSVKqSpxNQPhYaiUSN3GpE2Gz4CL9FWyR3IYnakfaz67qQztkhrzhg6wxuVDUtLQwS9Z5dE3HwHimachQS5hnbRKDzKnqARLwCs4Luxrs0ejSy2CcU03ScjZZrpNO0hiu6dJacGu_Mgpg-XxRRvDiXbyUpT4Ooe6wCnfPzQZIeuQHpfD9xXV-TGIls8benBhM6-aN1kwhO3ABKhxxqyQWoWHPu2h__tmd7-0W00]--></g></svg>