<?xml version="1.0" encoding="UTF-8" standalone="no"?><svg xmlns="http://www.w3.org/2000/svg" xmlns:xlink="http://www.w3.org/1999/xlink" contentStyleType="text/css" height="662px" preserveAspectRatio="none" style="width:1618px;height:662px;background:#FFFFFF;" version="1.1" viewBox="0 0 1618 662" width="1618px" zoomAndPan="magnify"><defs/><g><!--cluster Customer --><g id="cluster_Customer "><path d="M998.5,494.8945 L1097.5,494.8945 A3.75,3.75 0 0 1 1100,497.3945 L1107,526.0508 L1145.5,526.0508 A2.5,2.5 0 0 1 1148,528.5508 L1148,653.3945 A2.5,2.5 0 0 1 1145.5,655.8945 L998.5,655.8945 A2.5,2.5 0 0 1 996,653.3945 L996,497.3945 A2.5,2.5 0 0 1 998.5,494.8945 " fill="none" style="stroke:#000000;stroke-width:1.5;"/><line style="stroke:#000000;stroke-width:1.5;" x1="996" x2="1107" y1="526.0508" y2="526.0508"/><text fill="#000000" font-family="sans-serif" font-size="20" font-weight="bold" lengthAdjust="spacing" textLength="92" x="1000" y="517.6563">Customer</text></g><!--cluster Figure --><g id="cluster_Figure "><path d="M8.5,6.8945 L75.5,6.8945 A3.75,3.75 0 0 1 78,9.3945 L85,38.0508 L1164.5,38.0508 A2.5,2.5 0 0 1 1167,40.5508 L1167,420.8945 A2.5,2.5 0 0 1 1164.5,423.3945 L8.5,423.3945 A2.5,2.5 0 0 1 6,420.8945 L6,9.3945 A2.5,2.5 0 0 1 8.5,6.8945 " fill="none" style="stroke:#000000;stroke-width:1.5;"/><line style="stroke:#000000;stroke-width:1.5;" x1="6" x2="85" y1="38.0508" y2="38.0508"/><text fill="#000000" font-family="sans-serif" font-size="20" font-weight="bold" lengthAdjust="spacing" textLength="60" x="10" y="29.6563">Figure</text><text fill="#000000" font-family="sans-serif" font-size="20" font-style="italic" lengthAdjust="spacing" textLength="111" x="535" y="60.8125">«aggregate»</text></g><!--cluster Category --><g id="cluster_Category "><path d="M1193.5,249.8945 L1286.5,249.8945 A3.75,3.75 0 0 1 1289,252.3945 L1296,281.0508 L1386.5,281.0508 A2.5,2.5 0 0 1 1389,283.5508 L1389,640.8945 A2.5,2.5 0 0 1 1386.5,643.3945 L1193.5,643.3945 A2.5,2.5 0 0 1 1191,640.8945 L1191,252.3945 A2.5,2.5 0 0 1 1193.5,249.8945 " fill="none" style="stroke:#000000;stroke-width:1.5;"/><line style="stroke:#000000;stroke-width:1.5;" x1="1191" x2="1296" y1="281.0508" y2="281.0508"/><text fill="#000000" font-family="sans-serif" font-size="20" font-weight="bold" lengthAdjust="spacing" textLength="86" x="1195" y="272.6563">Category</text><text fill="#000000" font-family="sans-serif" font-size="20" font-style="italic" lengthAdjust="spacing" textLength="111" x="1238.5" y="303.8125">«aggregate»</text></g><!--cluster ShowDesigner --><g id="cluster_ShowDesigner "><path d="M1416.5,249.8945 L1559.5,249.8945 A3.75,3.75 0 0 1 1562,252.3945 L1569,281.0508 L1605.5,281.0508 A2.5,2.5 0 0 1 1608,283.5508 L1608,433.3945 A2.5,2.5 0 0 1 1605.5,435.8945 L1416.5,435.8945 A2.5,2.5 0 0 1 1414,433.3945 L1414,252.3945 A2.5,2.5 0 0 1 1416.5,249.8945 " fill="none" style="stroke:#000000;stroke-width:1.5;"/><line style="stroke:#000000;stroke-width:1.5;" x1="1414" x2="1569" y1="281.0508" y2="281.0508"/><text fill="#000000" font-family="sans-serif" font-size="20" font-weight="bold" lengthAdjust="spacing" textLength="136" x="1418" y="272.6563">ShowDesigner</text><text fill="#000000" font-family="sans-serif" font-size="20" font-style="italic" lengthAdjust="spacing" textLength="111" x="1459.5" y="303.8125">«aggregate»</text></g><!--cluster Shared--><g id="cluster_Shared"><path d="M1415.5,507.3945 L1483.5,507.3945 A3.75,3.75 0 0 1 1486,509.8945 L1493,538.5508 L1608.5,538.5508 A2.5,2.5 0 0 1 1611,541.0508 L1611,640.8945 A2.5,2.5 0 0 1 1608.5,643.3945 L1415.5,643.3945 A2.5,2.5 0 0 1 1413,640.8945 L1413,509.8945 A2.5,2.5 0 0 1 1415.5,507.3945 " fill="none" style="stroke:#000000;stroke-width:1.5;"/><line style="stroke:#000000;stroke-width:1.5;" x1="1413" x2="1493" y1="538.5508" y2="538.5508"/><text fill="#000000" font-family="sans-serif" font-size="20" font-weight="bold" lengthAdjust="spacing" textLength="67" x="1417" y="530.1563">Shared</text></g><!--class Customer--><g id="elem_Customer"><rect codeLine="4" fill="#F1F1F1" height="101.4688" id="Customer" rx="2.5" ry="2.5" style="stroke:#181818;stroke-width:0.5;" width="119" x="1012.5" y="538.8945"/><ellipse cx="1028.5" cy="581.6289" fill="#ADD1B2" rx="12" ry="12" style="stroke:#181818;stroke-width:1.0;"/><path d="M1030.6406,576.5508 Q1030.8281,576.3008 1031.0469,576.1758 Q1031.2656,576.0352 1031.5156,576.0352 Q1031.9531,576.0352 1032.2344,576.3477 Q1032.5156,576.6445 1032.5156,577.3633 L1032.5156,579.0664 Q1032.5156,579.7852 1032.2344,580.0977 Q1031.9531,580.4102 1031.5156,580.4102 Q1031.125,580.4102 1030.875,580.1758 Q1030.625,579.957 1030.5156,579.3477 Q1030.4531,578.9258 1030.2344,578.707 Q1029.8438,578.2695 1029.125,578.0039 Q1028.4063,577.7383 1027.6875,577.7383 Q1026.7813,577.7383 1026.0313,578.1289 Q1025.2813,578.5195 1024.7031,579.4102 Q1024.125,580.2852 1024.125,581.4883 L1024.125,582.7852 Q1024.125,584.2383 1025.1719,585.207 Q1026.2344,586.1758 1028.0938,586.1758 Q1029.2031,586.1758 1029.9844,585.8633 Q1030.4219,585.6914 1030.9375,585.1758 Q1031.25,584.8633 1031.4219,584.7695 Q1031.5938,584.6758 1031.8281,584.6758 Q1032.2188,584.6758 1032.5156,584.9883 Q1032.8281,585.2852 1032.8281,585.6914 Q1032.8281,586.0977 1032.4219,586.5664 Q1031.8281,587.2539 1030.8906,587.6445 Q1029.625,588.1758 1028.1094,588.1758 Q1026.3281,588.1758 1024.9063,587.4414 Q1023.75,586.8477 1022.9375,585.582 Q1022.125,584.3164 1022.125,582.832 L1022.125,581.4727 Q1022.125,579.9102 1022.8438,578.5664 Q1023.5781,577.207 1024.8594,576.4727 Q1026.1563,575.7383 1027.6094,575.7383 Q1028.4688,575.7383 1029.2188,575.9414 Q1029.9844,576.1445 1030.6406,576.5508 Z " fill="#000000"/><text fill="#000000" font-family="sans-serif" font-size="20" font-style="italic" lengthAdjust="spacing" textLength="71" x="1050.5" y="564.6563">«Entity»</text><text fill="#000000" font-family="sans-serif" font-size="20" font-style="italic" lengthAdjust="spacing" textLength="56" x="1058" y="589.8125">«root»</text><text fill="#000000" font-family="sans-serif" font-size="20" lengthAdjust="spacing" textLength="85" x="1043.5" y="614.9688">Customer</text><line style="stroke:#181818;stroke-width:0.5;" x1="1013.5" x2="1130.5" y1="624.3633" y2="624.3633"/><line style="stroke:#181818;stroke-width:0.5;" x1="1013.5" x2="1130.5" y1="632.3633" y2="632.3633"/></g><!--class Figure--><g id="elem_Figure"><rect codeLine="10" fill="#F1F1F1" height="101.4688" id="Figure" rx="2.5" ry="2.5" style="stroke:#181818;stroke-width:0.5;" width="101" x="757.5" y="75.8945"/><ellipse cx="773.5" cy="118.6289" fill="#ADD1B2" rx="12" ry="12" style="stroke:#181818;stroke-width:1.0;"/><path d="M775.6406,113.5508 Q775.8281,113.3008 776.0469,113.1758 Q776.2656,113.0352 776.5156,113.0352 Q776.9531,113.0352 777.2344,113.3477 Q777.5156,113.6445 777.5156,114.3633 L777.5156,116.0664 Q777.5156,116.7852 777.2344,117.0977 Q776.9531,117.4102 776.5156,117.4102 Q776.125,117.4102 775.875,117.1758 Q775.625,116.957 775.5156,116.3477 Q775.4531,115.9258 775.2344,115.707 Q774.8438,115.2695 774.125,115.0039 Q773.4063,114.7383 772.6875,114.7383 Q771.7813,114.7383 771.0313,115.1289 Q770.2813,115.5195 769.7031,116.4102 Q769.125,117.2852 769.125,118.4883 L769.125,119.7852 Q769.125,121.2383 770.1719,122.207 Q771.2344,123.1758 773.0938,123.1758 Q774.2031,123.1758 774.9844,122.8633 Q775.4219,122.6914 775.9375,122.1758 Q776.25,121.8633 776.4219,121.7695 Q776.5938,121.6758 776.8281,121.6758 Q777.2188,121.6758 777.5156,121.9883 Q777.8281,122.2852 777.8281,122.6914 Q777.8281,123.0977 777.4219,123.5664 Q776.8281,124.2539 775.8906,124.6445 Q774.625,125.1758 773.1094,125.1758 Q771.3281,125.1758 769.9063,124.4414 Q768.75,123.8477 767.9375,122.582 Q767.125,121.3164 767.125,119.832 L767.125,118.4727 Q767.125,116.9102 767.8438,115.5664 Q768.5781,114.207 769.8594,113.4727 Q771.1563,112.7383 772.6094,112.7383 Q773.4688,112.7383 774.2188,112.9414 Q774.9844,113.1445 775.6406,113.5508 Z " fill="#000000"/><text fill="#000000" font-family="sans-serif" font-size="20" font-style="italic" lengthAdjust="spacing" textLength="71" x="786.5" y="101.6563">«Entity»</text><text fill="#000000" font-family="sans-serif" font-size="20" font-style="italic" lengthAdjust="spacing" textLength="56" x="794" y="126.8125">«root»</text><text fill="#000000" font-family="sans-serif" font-size="20" lengthAdjust="spacing" textLength="55" x="794.5" y="151.9688">Figure</text><line style="stroke:#181818;stroke-width:0.5;" x1="758.5" x2="857.5" y1="161.3633" y2="161.3633"/><line style="stroke:#181818;stroke-width:0.5;" x1="758.5" x2="857.5" y1="169.3633" y2="169.3633"/></g><!--class Code--><g id="elem_Code"><rect codeLine="13" fill="#F1F1F1" height="76.3125" id="Code" rx="2.5" ry="2.5" style="stroke:#181818;stroke-width:0.5;" width="166" x="22" y="331.3945"/><ellipse cx="38" cy="361.5508" fill="#ADD1B2" rx="12" ry="12" style="stroke:#181818;stroke-width:1.0;"/><path d="M40.1406,356.4727 Q40.3281,356.2227 40.5469,356.0977 Q40.7656,355.957 41.0156,355.957 Q41.4531,355.957 41.7344,356.2695 Q42.0156,356.5664 42.0156,357.2852 L42.0156,358.9883 Q42.0156,359.707 41.7344,360.0195 Q41.4531,360.332 41.0156,360.332 Q40.625,360.332 40.375,360.0977 Q40.125,359.8789 40.0156,359.2695 Q39.9531,358.8477 39.7344,358.6289 Q39.3438,358.1914 38.625,357.9258 Q37.9063,357.6602 37.1875,357.6602 Q36.2813,357.6602 35.5313,358.0508 Q34.7813,358.4414 34.2031,359.332 Q33.625,360.207 33.625,361.4102 L33.625,362.707 Q33.625,364.1602 34.6719,365.1289 Q35.7344,366.0977 37.5938,366.0977 Q38.7031,366.0977 39.4844,365.7852 Q39.9219,365.6133 40.4375,365.0977 Q40.75,364.7852 40.9219,364.6914 Q41.0938,364.5977 41.3281,364.5977 Q41.7188,364.5977 42.0156,364.9102 Q42.3281,365.207 42.3281,365.6133 Q42.3281,366.0195 41.9219,366.4883 Q41.3281,367.1758 40.3906,367.5664 Q39.125,368.0977 37.6094,368.0977 Q35.8281,368.0977 34.4063,367.3633 Q33.25,366.7695 32.4375,365.5039 Q31.625,364.2383 31.625,362.7539 L31.625,361.3945 Q31.625,359.832 32.3438,358.4883 Q33.0781,357.1289 34.3594,356.3945 Q35.6563,355.6602 37.1094,355.6602 Q37.9688,355.6602 38.7188,355.8633 Q39.4844,356.0664 40.1406,356.4727 Z " fill="#000000"/><text fill="#000000" font-family="sans-serif" font-size="20" font-style="italic" lengthAdjust="spacing" textLength="136" x="51" y="357.1563">«Value Object»</text><text fill="#000000" font-family="sans-serif" font-size="20" lengthAdjust="spacing" textLength="47" x="95.5" y="382.3125">Code</text><line style="stroke:#181818;stroke-width:0.5;" x1="23" x2="187" y1="391.707" y2="391.707"/><line style="stroke:#181818;stroke-width:0.5;" x1="23" x2="187" y1="399.707" y2="399.707"/></g><!--class Version--><g id="elem_Version"><rect codeLine="16" fill="#F1F1F1" height="76.3125" id="Version" rx="2.5" ry="2.5" style="stroke:#181818;stroke-width:0.5;" width="166" x="223" y="331.3945"/><ellipse cx="239" cy="361.5508" fill="#ADD1B2" rx="12" ry="12" style="stroke:#181818;stroke-width:1.0;"/><path d="M241.1406,356.4727 Q241.3281,356.2227 241.5469,356.0977 Q241.7656,355.957 242.0156,355.957 Q242.4531,355.957 242.7344,356.2695 Q243.0156,356.5664 243.0156,357.2852 L243.0156,358.9883 Q243.0156,359.707 242.7344,360.0195 Q242.4531,360.332 242.0156,360.332 Q241.625,360.332 241.375,360.0977 Q241.125,359.8789 241.0156,359.2695 Q240.9531,358.8477 240.7344,358.6289 Q240.3438,358.1914 239.625,357.9258 Q238.9063,357.6602 238.1875,357.6602 Q237.2813,357.6602 236.5313,358.0508 Q235.7813,358.4414 235.2031,359.332 Q234.625,360.207 234.625,361.4102 L234.625,362.707 Q234.625,364.1602 235.6719,365.1289 Q236.7344,366.0977 238.5938,366.0977 Q239.7031,366.0977 240.4844,365.7852 Q240.9219,365.6133 241.4375,365.0977 Q241.75,364.7852 241.9219,364.6914 Q242.0938,364.5977 242.3281,364.5977 Q242.7188,364.5977 243.0156,364.9102 Q243.3281,365.207 243.3281,365.6133 Q243.3281,366.0195 242.9219,366.4883 Q242.3281,367.1758 241.3906,367.5664 Q240.125,368.0977 238.6094,368.0977 Q236.8281,368.0977 235.4063,367.3633 Q234.25,366.7695 233.4375,365.5039 Q232.625,364.2383 232.625,362.7539 L232.625,361.3945 Q232.625,359.832 233.3438,358.4883 Q234.0781,357.1289 235.3594,356.3945 Q236.6563,355.6602 238.1094,355.6602 Q238.9688,355.6602 239.7188,355.8633 Q240.4844,356.0664 241.1406,356.4727 Z " fill="#000000"/><text fill="#000000" font-family="sans-serif" font-size="20" font-style="italic" lengthAdjust="spacing" textLength="136" x="252" y="357.1563">«Value Object»</text><text fill="#000000" font-family="sans-serif" font-size="20" lengthAdjust="spacing" textLength="66" x="287" y="382.3125">Version</text><line style="stroke:#181818;stroke-width:0.5;" x1="224" x2="388" y1="391.707" y2="391.707"/><line style="stroke:#181818;stroke-width:0.5;" x1="224" x2="388" y1="399.707" y2="399.707"/></g><!--class Description--><g id="elem_Description"><rect codeLine="19" fill="#F1F1F1" height="76.3125" id="Description" rx="2.5" ry="2.5" style="stroke:#181818;stroke-width:0.5;" width="166" x="424" y="331.3945"/><ellipse cx="440" cy="361.5508" fill="#ADD1B2" rx="12" ry="12" style="stroke:#181818;stroke-width:1.0;"/><path d="M442.1406,356.4727 Q442.3281,356.2227 442.5469,356.0977 Q442.7656,355.957 443.0156,355.957 Q443.4531,355.957 443.7344,356.2695 Q444.0156,356.5664 444.0156,357.2852 L444.0156,358.9883 Q444.0156,359.707 443.7344,360.0195 Q443.4531,360.332 443.0156,360.332 Q442.625,360.332 442.375,360.0977 Q442.125,359.8789 442.0156,359.2695 Q441.9531,358.8477 441.7344,358.6289 Q441.3438,358.1914 440.625,357.9258 Q439.9063,357.6602 439.1875,357.6602 Q438.2813,357.6602 437.5313,358.0508 Q436.7813,358.4414 436.2031,359.332 Q435.625,360.207 435.625,361.4102 L435.625,362.707 Q435.625,364.1602 436.6719,365.1289 Q437.7344,366.0977 439.5938,366.0977 Q440.7031,366.0977 441.4844,365.7852 Q441.9219,365.6133 442.4375,365.0977 Q442.75,364.7852 442.9219,364.6914 Q443.0938,364.5977 443.3281,364.5977 Q443.7188,364.5977 444.0156,364.9102 Q444.3281,365.207 444.3281,365.6133 Q444.3281,366.0195 443.9219,366.4883 Q443.3281,367.1758 442.3906,367.5664 Q441.125,368.0977 439.6094,368.0977 Q437.8281,368.0977 436.4063,367.3633 Q435.25,366.7695 434.4375,365.5039 Q433.625,364.2383 433.625,362.7539 L433.625,361.3945 Q433.625,359.832 434.3438,358.4883 Q435.0781,357.1289 436.3594,356.3945 Q437.6563,355.6602 439.1094,355.6602 Q439.9688,355.6602 440.7188,355.8633 Q441.4844,356.0664 442.1406,356.4727 Z " fill="#000000"/><text fill="#000000" font-family="sans-serif" font-size="20" font-style="italic" lengthAdjust="spacing" textLength="136" x="453" y="357.1563">«Value Object»</text><text fill="#000000" font-family="sans-serif" font-size="20" lengthAdjust="spacing" textLength="98" x="472" y="382.3125">Description</text><line style="stroke:#181818;stroke-width:0.5;" x1="425" x2="589" y1="391.707" y2="391.707"/><line style="stroke:#181818;stroke-width:0.5;" x1="425" x2="589" y1="399.707" y2="399.707"/></g><!--class FigureStatus--><g id="elem_FigureStatus"><rect codeLine="22" fill="#F1F1F1" height="76.3125" id="FigureStatus" rx="2.5" ry="2.5" style="stroke:#181818;stroke-width:0.5;" width="166" x="625" y="331.3945"/><ellipse cx="641" cy="361.5508" fill="#EB937F" rx="12" ry="12" style="stroke:#181818;stroke-width:1.0;"/><path d="M638.9531,362.6133 L638.9531,365.5508 L644.0469,365.5508 L644.0469,364.457 Q644.0469,363.7383 644.3281,363.4414 Q644.6094,363.1289 645.0625,363.1289 Q645.5,363.1289 645.7813,363.4414 Q646.0625,363.7383 646.0625,364.457 L646.0625,367.5508 L636.625,367.5508 Q635.9063,367.5508 635.5938,367.2695 Q635.2969,366.9883 635.2969,366.5508 Q635.2969,366.0977 635.6094,365.832 Q635.9219,365.5508 636.625,365.5508 L636.9375,365.5508 L636.9375,357.7227 L636.625,357.7227 Q635.9063,357.7227 635.5938,357.4414 Q635.2969,357.1602 635.2969,356.707 Q635.2969,356.2539 635.5938,355.9883 Q635.9063,355.707 636.625,355.707 L645.6094,355.707 L645.6094,358.7539 Q645.6094,359.4727 645.3281,359.7852 Q645.0625,360.082 644.625,360.082 Q644.1719,360.082 643.8906,359.7852 Q643.6094,359.4883 643.6094,358.7539 L643.6094,357.7227 L638.9531,357.7227 L638.9531,360.6133 L640.7031,360.6133 Q640.7031,359.832 640.8438,359.5977 Q641.1563,359.1289 641.7031,359.1289 Q642.1563,359.1289 642.4219,359.4414 Q642.7031,359.7383 642.7031,360.457 L642.7031,362.7695 Q642.7031,363.4258 642.5469,363.6445 Q642.2344,364.0977 641.7031,364.0977 Q641.1563,364.0977 640.8438,363.6289 Q640.7031,363.3945 640.7031,362.6133 L638.9531,362.6133 Z " fill="#000000"/><text fill="#000000" font-family="sans-serif" font-size="20" font-style="italic" lengthAdjust="spacing" textLength="136" x="654" y="357.1563">«Value Object»</text><text fill="#000000" font-family="sans-serif" font-size="20" lengthAdjust="spacing" textLength="111" x="666.5" y="382.3125">FigureStatus</text><line style="stroke:#181818;stroke-width:0.5;" x1="626" x2="790" y1="391.707" y2="391.707"/><line style="stroke:#181818;stroke-width:0.5;" x1="626" x2="790" y1="399.707" y2="399.707"/></g><!--class Keyword--><g id="elem_Keyword"><rect codeLine="25" fill="#F1F1F1" height="76.3125" id="Keyword" rx="2.5" ry="2.5" style="stroke:#181818;stroke-width:0.5;" width="166" x="826" y="331.3945"/><ellipse cx="842" cy="361.5508" fill="#ADD1B2" rx="12" ry="12" style="stroke:#181818;stroke-width:1.0;"/><path d="M844.1406,356.4727 Q844.3281,356.2227 844.5469,356.0977 Q844.7656,355.957 845.0156,355.957 Q845.4531,355.957 845.7344,356.2695 Q846.0156,356.5664 846.0156,357.2852 L846.0156,358.9883 Q846.0156,359.707 845.7344,360.0195 Q845.4531,360.332 845.0156,360.332 Q844.625,360.332 844.375,360.0977 Q844.125,359.8789 844.0156,359.2695 Q843.9531,358.8477 843.7344,358.6289 Q843.3438,358.1914 842.625,357.9258 Q841.9063,357.6602 841.1875,357.6602 Q840.2813,357.6602 839.5313,358.0508 Q838.7813,358.4414 838.2031,359.332 Q837.625,360.207 837.625,361.4102 L837.625,362.707 Q837.625,364.1602 838.6719,365.1289 Q839.7344,366.0977 841.5938,366.0977 Q842.7031,366.0977 843.4844,365.7852 Q843.9219,365.6133 844.4375,365.0977 Q844.75,364.7852 844.9219,364.6914 Q845.0938,364.5977 845.3281,364.5977 Q845.7188,364.5977 846.0156,364.9102 Q846.3281,365.207 846.3281,365.6133 Q846.3281,366.0195 845.9219,366.4883 Q845.3281,367.1758 844.3906,367.5664 Q843.125,368.0977 841.6094,368.0977 Q839.8281,368.0977 838.4063,367.3633 Q837.25,366.7695 836.4375,365.5039 Q835.625,364.2383 835.625,362.7539 L835.625,361.3945 Q835.625,359.832 836.3438,358.4883 Q837.0781,357.1289 838.3594,356.3945 Q839.6563,355.6602 841.1094,355.6602 Q841.9688,355.6602 842.7188,355.8633 Q843.4844,356.0664 844.1406,356.4727 Z " fill="#000000"/><text fill="#000000" font-family="sans-serif" font-size="20" font-style="italic" lengthAdjust="spacing" textLength="136" x="855" y="357.1563">«Value Object»</text><text fill="#000000" font-family="sans-serif" font-size="20" lengthAdjust="spacing" textLength="78" x="884" y="382.3125">Keyword</text><line style="stroke:#181818;stroke-width:0.5;" x1="827" x2="991" y1="391.707" y2="391.707"/><line style="stroke:#181818;stroke-width:0.5;" x1="827" x2="991" y1="399.707" y2="399.707"/></g><!--class Exclusivity--><g id="elem_Exclusivity"><rect codeLine="28" fill="#F1F1F1" height="76.3125" id="Exclusivity" rx="2.5" ry="2.5" style="stroke:#181818;stroke-width:0.5;" width="123" x="1027.5" y="331.3945"/><ellipse cx="1043.5" cy="361.5508" fill="#ADD1B2" rx="12" ry="12" style="stroke:#181818;stroke-width:1.0;"/><path d="M1045.6406,356.4727 Q1045.8281,356.2227 1046.0469,356.0977 Q1046.2656,355.957 1046.5156,355.957 Q1046.9531,355.957 1047.2344,356.2695 Q1047.5156,356.5664 1047.5156,357.2852 L1047.5156,358.9883 Q1047.5156,359.707 1047.2344,360.0195 Q1046.9531,360.332 1046.5156,360.332 Q1046.125,360.332 1045.875,360.0977 Q1045.625,359.8789 1045.5156,359.2695 Q1045.4531,358.8477 1045.2344,358.6289 Q1044.8438,358.1914 1044.125,357.9258 Q1043.4063,357.6602 1042.6875,357.6602 Q1041.7813,357.6602 1041.0313,358.0508 Q1040.2813,358.4414 1039.7031,359.332 Q1039.125,360.207 1039.125,361.4102 L1039.125,362.707 Q1039.125,364.1602 1040.1719,365.1289 Q1041.2344,366.0977 1043.0938,366.0977 Q1044.2031,366.0977 1044.9844,365.7852 Q1045.4219,365.6133 1045.9375,365.0977 Q1046.25,364.7852 1046.4219,364.6914 Q1046.5938,364.5977 1046.8281,364.5977 Q1047.2188,364.5977 1047.5156,364.9102 Q1047.8281,365.207 1047.8281,365.6133 Q1047.8281,366.0195 1047.4219,366.4883 Q1046.8281,367.1758 1045.8906,367.5664 Q1044.625,368.0977 1043.1094,368.0977 Q1041.3281,368.0977 1039.9063,367.3633 Q1038.75,366.7695 1037.9375,365.5039 Q1037.125,364.2383 1037.125,362.7539 L1037.125,361.3945 Q1037.125,359.832 1037.8438,358.4883 Q1038.5781,357.1289 1039.8594,356.3945 Q1041.1563,355.6602 1042.6094,355.6602 Q1043.4688,355.6602 1044.2188,355.8633 Q1044.9844,356.0664 1045.6406,356.4727 Z " fill="#000000"/><text fill="#000000" font-family="sans-serif" font-size="20" font-style="italic" lengthAdjust="spacing" textLength="71" x="1067.5" y="357.1563">«Entity»</text><text fill="#000000" font-family="sans-serif" font-size="20" lengthAdjust="spacing" textLength="89" x="1058.5" y="382.3125">Exclusivity</text><line style="stroke:#181818;stroke-width:0.5;" x1="1028.5" x2="1149.5" y1="391.707" y2="391.707"/><line style="stroke:#181818;stroke-width:0.5;" x1="1028.5" x2="1149.5" y1="399.707" y2="399.707"/></g><!--class Category--><g id="elem_Category"><rect codeLine="46" fill="#F1F1F1" height="101.4688" id="Category" rx="2.5" ry="2.5" style="stroke:#181818;stroke-width:0.5;" width="115" x="1219.5" y="318.8945"/><ellipse cx="1235.5" cy="361.6289" fill="#ADD1B2" rx="12" ry="12" style="stroke:#181818;stroke-width:1.0;"/><path d="M1237.6406,356.5508 Q1237.8281,356.3008 1238.0469,356.1758 Q1238.2656,356.0352 1238.5156,356.0352 Q1238.9531,356.0352 1239.2344,356.3477 Q1239.5156,356.6445 1239.5156,357.3633 L1239.5156,359.0664 Q1239.5156,359.7852 1239.2344,360.0977 Q1238.9531,360.4102 1238.5156,360.4102 Q1238.125,360.4102 1237.875,360.1758 Q1237.625,359.957 1237.5156,359.3477 Q1237.4531,358.9258 1237.2344,358.707 Q1236.8438,358.2695 1236.125,358.0039 Q1235.4063,357.7383 1234.6875,357.7383 Q1233.7813,357.7383 1233.0313,358.1289 Q1232.2813,358.5195 1231.7031,359.4102 Q1231.125,360.2852 1231.125,361.4883 L1231.125,362.7852 Q1231.125,364.2383 1232.1719,365.207 Q1233.2344,366.1758 1235.0938,366.1758 Q1236.2031,366.1758 1236.9844,365.8633 Q1237.4219,365.6914 1237.9375,365.1758 Q1238.25,364.8633 1238.4219,364.7695 Q1238.5938,364.6758 1238.8281,364.6758 Q1239.2188,364.6758 1239.5156,364.9883 Q1239.8281,365.2852 1239.8281,365.6914 Q1239.8281,366.0977 1239.4219,366.5664 Q1238.8281,367.2539 1237.8906,367.6445 Q1236.625,368.1758 1235.1094,368.1758 Q1233.3281,368.1758 1231.9063,367.4414 Q1230.75,366.8477 1229.9375,365.582 Q1229.125,364.3164 1229.125,362.832 L1229.125,361.4727 Q1229.125,359.9102 1229.8438,358.5664 Q1230.5781,357.207 1231.8594,356.4727 Q1233.1563,355.7383 1234.6094,355.7383 Q1235.4688,355.7383 1236.2188,355.9414 Q1236.9844,356.1445 1237.6406,356.5508 Z " fill="#000000"/><text fill="#000000" font-family="sans-serif" font-size="20" font-style="italic" lengthAdjust="spacing" textLength="71" x="1255.5" y="344.6563">«Entity»</text><text fill="#000000" font-family="sans-serif" font-size="20" font-style="italic" lengthAdjust="spacing" textLength="56" x="1263" y="369.8125">«root»</text><text fill="#000000" font-family="sans-serif" font-size="20" lengthAdjust="spacing" textLength="81" x="1250.5" y="394.9688">Category</text><line style="stroke:#181818;stroke-width:0.5;" x1="1220.5" x2="1333.5" y1="404.3633" y2="404.3633"/><line style="stroke:#181818;stroke-width:0.5;" x1="1220.5" x2="1333.5" y1="412.3633" y2="412.3633"/></g><!--class CategoryName--><g id="elem_CategoryName"><rect codeLine="49" fill="#F1F1F1" height="76.3125" id="CategoryName" rx="2.5" ry="2.5" style="stroke:#181818;stroke-width:0.5;" width="166" x="1207" y="551.3945"/><ellipse cx="1223" cy="581.5508" fill="#ADD1B2" rx="12" ry="12" style="stroke:#181818;stroke-width:1.0;"/><path d="M1225.1406,576.4727 Q1225.3281,576.2227 1225.5469,576.0977 Q1225.7656,575.957 1226.0156,575.957 Q1226.4531,575.957 1226.7344,576.2695 Q1227.0156,576.5664 1227.0156,577.2852 L1227.0156,578.9883 Q1227.0156,579.707 1226.7344,580.0195 Q1226.4531,580.332 1226.0156,580.332 Q1225.625,580.332 1225.375,580.0977 Q1225.125,579.8789 1225.0156,579.2695 Q1224.9531,578.8477 1224.7344,578.6289 Q1224.3438,578.1914 1223.625,577.9258 Q1222.9063,577.6602 1222.1875,577.6602 Q1221.2813,577.6602 1220.5313,578.0508 Q1219.7813,578.4414 1219.2031,579.332 Q1218.625,580.207 1218.625,581.4102 L1218.625,582.707 Q1218.625,584.1602 1219.6719,585.1289 Q1220.7344,586.0977 1222.5938,586.0977 Q1223.7031,586.0977 1224.4844,585.7852 Q1224.9219,585.6133 1225.4375,585.0977 Q1225.75,584.7852 1225.9219,584.6914 Q1226.0938,584.5977 1226.3281,584.5977 Q1226.7188,584.5977 1227.0156,584.9102 Q1227.3281,585.207 1227.3281,585.6133 Q1227.3281,586.0195 1226.9219,586.4883 Q1226.3281,587.1758 1225.3906,587.5664 Q1224.125,588.0977 1222.6094,588.0977 Q1220.8281,588.0977 1219.4063,587.3633 Q1218.25,586.7695 1217.4375,585.5039 Q1216.625,584.2383 1216.625,582.7539 L1216.625,581.3945 Q1216.625,579.832 1217.3438,578.4883 Q1218.0781,577.1289 1219.3594,576.3945 Q1220.6563,575.6602 1222.1094,575.6602 Q1222.9688,575.6602 1223.7188,575.8633 Q1224.4844,576.0664 1225.1406,576.4727 Z " fill="#000000"/><text fill="#000000" font-family="sans-serif" font-size="20" font-style="italic" lengthAdjust="spacing" textLength="136" x="1236" y="577.1563">«Value Object»</text><text fill="#000000" font-family="sans-serif" font-size="20" lengthAdjust="spacing" textLength="132" x="1238" y="602.3125">CategoryName</text><line style="stroke:#181818;stroke-width:0.5;" x1="1208" x2="1372" y1="611.707" y2="611.707"/><line style="stroke:#181818;stroke-width:0.5;" x1="1208" x2="1372" y1="619.707" y2="619.707"/></g><!--class ShowDesigner--><g id="elem_ShowDesigner"><rect codeLine="61" fill="#F1F1F1" height="101.4688" id="ShowDesigner" rx="2.5" ry="2.5" style="stroke:#181818;stroke-width:0.5;" width="161" x="1430.5" y="318.8945"/><ellipse cx="1446.5" cy="361.6289" fill="#ADD1B2" rx="12" ry="12" style="stroke:#181818;stroke-width:1.0;"/><path d="M1448.6406,356.5508 Q1448.8281,356.3008 1449.0469,356.1758 Q1449.2656,356.0352 1449.5156,356.0352 Q1449.9531,356.0352 1450.2344,356.3477 Q1450.5156,356.6445 1450.5156,357.3633 L1450.5156,359.0664 Q1450.5156,359.7852 1450.2344,360.0977 Q1449.9531,360.4102 1449.5156,360.4102 Q1449.125,360.4102 1448.875,360.1758 Q1448.625,359.957 1448.5156,359.3477 Q1448.4531,358.9258 1448.2344,358.707 Q1447.8438,358.2695 1447.125,358.0039 Q1446.4063,357.7383 1445.6875,357.7383 Q1444.7813,357.7383 1444.0313,358.1289 Q1443.2813,358.5195 1442.7031,359.4102 Q1442.125,360.2852 1442.125,361.4883 L1442.125,362.7852 Q1442.125,364.2383 1443.1719,365.207 Q1444.2344,366.1758 1446.0938,366.1758 Q1447.2031,366.1758 1447.9844,365.8633 Q1448.4219,365.6914 1448.9375,365.1758 Q1449.25,364.8633 1449.4219,364.7695 Q1449.5938,364.6758 1449.8281,364.6758 Q1450.2188,364.6758 1450.5156,364.9883 Q1450.8281,365.2852 1450.8281,365.6914 Q1450.8281,366.0977 1450.4219,366.5664 Q1449.8281,367.2539 1448.8906,367.6445 Q1447.625,368.1758 1446.1094,368.1758 Q1444.3281,368.1758 1442.9063,367.4414 Q1441.75,366.8477 1440.9375,365.582 Q1440.125,364.3164 1440.125,362.832 L1440.125,361.4727 Q1440.125,359.9102 1440.8438,358.5664 Q1441.5781,357.207 1442.8594,356.4727 Q1444.1563,355.7383 1445.6094,355.7383 Q1446.4688,355.7383 1447.2188,355.9414 Q1447.9844,356.1445 1448.6406,356.5508 Z " fill="#000000"/><text fill="#000000" font-family="sans-serif" font-size="20" font-style="italic" lengthAdjust="spacing" textLength="71" x="1489.5" y="344.6563">«Entity»</text><text fill="#000000" font-family="sans-serif" font-size="20" font-style="italic" lengthAdjust="spacing" textLength="56" x="1497" y="369.8125">«root»</text><text fill="#000000" font-family="sans-serif" font-size="20" lengthAdjust="spacing" textLength="127" x="1461.5" y="394.9688">ShowDesigner</text><line style="stroke:#181818;stroke-width:0.5;" x1="1431.5" x2="1590.5" y1="404.3633" y2="404.3633"/><line style="stroke:#181818;stroke-width:0.5;" x1="1431.5" x2="1590.5" y1="412.3633" y2="412.3633"/></g><!--class Name--><g id="elem_Name"><rect codeLine="69" fill="#F1F1F1" height="76.3125" id="Name" rx="2.5" ry="2.5" style="stroke:#181818;stroke-width:0.5;" width="166" x="1429" y="551.3945"/><ellipse cx="1445" cy="581.5508" fill="#ADD1B2" rx="12" ry="12" style="stroke:#181818;stroke-width:1.0;"/><path d="M1447.1406,576.4727 Q1447.3281,576.2227 1447.5469,576.0977 Q1447.7656,575.957 1448.0156,575.957 Q1448.4531,575.957 1448.7344,576.2695 Q1449.0156,576.5664 1449.0156,577.2852 L1449.0156,578.9883 Q1449.0156,579.707 1448.7344,580.0195 Q1448.4531,580.332 1448.0156,580.332 Q1447.625,580.332 1447.375,580.0977 Q1447.125,579.8789 1447.0156,579.2695 Q1446.9531,578.8477 1446.7344,578.6289 Q1446.3438,578.1914 1445.625,577.9258 Q1444.9063,577.6602 1444.1875,577.6602 Q1443.2813,577.6602 1442.5313,578.0508 Q1441.7813,578.4414 1441.2031,579.332 Q1440.625,580.207 1440.625,581.4102 L1440.625,582.707 Q1440.625,584.1602 1441.6719,585.1289 Q1442.7344,586.0977 1444.5938,586.0977 Q1445.7031,586.0977 1446.4844,585.7852 Q1446.9219,585.6133 1447.4375,585.0977 Q1447.75,584.7852 1447.9219,584.6914 Q1448.0938,584.5977 1448.3281,584.5977 Q1448.7188,584.5977 1449.0156,584.9102 Q1449.3281,585.207 1449.3281,585.6133 Q1449.3281,586.0195 1448.9219,586.4883 Q1448.3281,587.1758 1447.3906,587.5664 Q1446.125,588.0977 1444.6094,588.0977 Q1442.8281,588.0977 1441.4063,587.3633 Q1440.25,586.7695 1439.4375,585.5039 Q1438.625,584.2383 1438.625,582.7539 L1438.625,581.3945 Q1438.625,579.832 1439.3438,578.4883 Q1440.0781,577.1289 1441.3594,576.3945 Q1442.6563,575.6602 1444.1094,575.6602 Q1444.9688,575.6602 1445.7188,575.8633 Q1446.4844,576.0664 1447.1406,576.4727 Z " fill="#000000"/><text fill="#000000" font-family="sans-serif" font-size="20" font-style="italic" lengthAdjust="spacing" textLength="136" x="1458" y="577.1563">«Value Object»</text><text fill="#000000" font-family="sans-serif" font-size="20" lengthAdjust="spacing" textLength="51" x="1500.5" y="602.3125">Name</text><line style="stroke:#181818;stroke-width:0.5;" x1="1430" x2="1594" y1="611.707" y2="611.707"/><line style="stroke:#181818;stroke-width:0.5;" x1="1430" x2="1594" y1="619.707" y2="619.707"/></g><!--link Figure to Keyword--><g id="link_Figure_Keyword"><path codeLine="33" d="M840.24,176.9245 C845.9,186.6545 851.43,196.9345 856,206.8945 C873.93,245.9745 888.62,292.8845 897.95,326.0545 " fill="none" id="Figure-to-Keyword" style="stroke:#181818;stroke-width:1.0;"/><polygon fill="#181818" points="899.4,331.2545,900.8348,321.5108,898.0566,326.4384,893.129,323.6602,899.4,331.2545" style="stroke:#181818;stroke-width:1.0;"/><text fill="#000000" font-family="sans-serif" font-size="20" lengthAdjust="spacing" textLength="85" x="868" y="228.6563">keywords</text><text fill="#000000" font-family="sans-serif" font-size="20" lengthAdjust="spacing" textLength="31" x="864.3997" y="318.933">1..*</text></g><!--link Figure to Exclusivity--><g id="link_Figure_Exclusivity"><path codeLine="34" d="M858.71,146.0145 C903.18,164.5145 967.1,196.6745 1009,241.8945 C1032.62,267.3945 1053.4,300.7745 1067.86,326.8545 " fill="none" id="Figure-to-Exclusivity" style="stroke:#181818;stroke-width:1.0;"/><polygon fill="#181818" points="1070.3,331.3045,1069.4639,321.4912,1067.8888,326.9244,1062.4556,325.3492,1070.3,331.3045" style="stroke:#181818;stroke-width:1.0;"/><text fill="#000000" font-family="sans-serif" font-size="20" lengthAdjust="spacing" textLength="87" x="1002" y="228.6563">exclusivity</text><text fill="#000000" font-family="sans-serif" font-size="20" lengthAdjust="spacing" textLength="11" x="1055.4431" y="318.991">1</text></g><!--link Figure to Code--><g id="link_Figure_Code"><path codeLine="35" d="M757.27,132.3245 C629.49,145.4745 297.99,184.3445 205,241.8945 C171.67,262.5245 144.89,298.4245 127.46,326.7245 " fill="none" id="Figure-to-Code" style="stroke:#181818;stroke-width:1.0;"/><polygon fill="#181818" points="124.74,331.1945,132.8363,325.5865,127.3397,326.9235,126.0027,321.427,124.74,331.1945" style="stroke:#181818;stroke-width:1.0;"/><text fill="#000000" font-family="sans-serif" font-size="20" lengthAdjust="spacing" textLength="43" x="287" y="228.6563">code</text><text fill="#000000" font-family="sans-serif" font-size="20" lengthAdjust="spacing" textLength="11" x="116.0095" y="318.8635">1</text></g><!--link Figure to Version--><g id="link_Figure_Version"><path codeLine="36" d="M757.48,131.7745 C676.96,140.8345 517.28,167.4445 406,241.8945 C373.64,263.5445 346.93,298.9945 329.28,326.8745 " fill="none" id="Figure-to-Version" style="stroke:#181818;stroke-width:1.0;"/><polygon fill="#181818" points="326.53,331.2745,334.6836,325.7502,329.1736,327.0305,327.8932,321.5205,326.53,331.2745" style="stroke:#181818;stroke-width:1.0;"/><text fill="#000000" font-family="sans-serif" font-size="20" lengthAdjust="spacing" textLength="62" x="467" y="228.6563">version</text><text fill="#000000" font-family="sans-serif" font-size="20" lengthAdjust="spacing" textLength="11" x="317.9254" y="318.9562">1</text></g><!--link Figure to Description--><g id="link_Figure_Description"><path codeLine="37" d="M757.14,142.4845 C719.39,155.4045 668.07,176.7345 630,206.8945 C587.79,240.3345 552.15,291.3845 530.28,327.1145 " fill="none" id="Figure-to-Description" style="stroke:#181818;stroke-width:1.0;"/><polygon fill="#181818" points="527.68,331.3945,535.7626,325.7668,530.2693,327.1172,528.9189,321.6239,527.68,331.3945" style="stroke:#181818;stroke-width:1.0;"/><text fill="#000000" font-family="sans-serif" font-size="20" lengthAdjust="spacing" textLength="95" x="631" y="228.6563">description</text><text fill="#000000" font-family="sans-serif" font-size="20" lengthAdjust="spacing" textLength="11" x="519.0993" y="319.0954">1</text></g><!--link Figure to FigureStatus--><g id="link_Figure_FigureStatus"><path codeLine="38" d="M763.08,177.3245 C756.26,186.6845 749.88,196.7345 745,206.8945 C726.74,244.9245 717.26,292.3845 712.49,325.9845 " fill="none" id="Figure-to-FigureStatus" style="stroke:#181818;stroke-width:1.0;"/><polygon fill="#181818" points="711.76,331.2545,716.9555,322.8875,712.4451,326.3017,709.0309,321.7913,711.76,331.2545" style="stroke:#181818;stroke-width:1.0;"/><text fill="#000000" font-family="sans-serif" font-size="20" lengthAdjust="spacing" textLength="105" x="746" y="228.6563">figureStatus</text><text fill="#000000" font-family="sans-serif" font-size="20" lengthAdjust="spacing" textLength="11" x="700.4827" y="318.933">1</text></g><!--link Exclusivity to Customer--><g id="link_Exclusivity_Customer"><path codeLine="41" d="M1086.08,407.8745 C1083.38,442.4745 1079.34,494.2945 1076.28,533.5445 " fill="none" id="Exclusivity-to-Customer" style="stroke:#181818;stroke-width:1.0;"/><polygon fill="#181818" points="1075.87,538.7545,1080.5523,530.0899,1076.2557,533.7694,1072.5761,529.4728,1075.87,538.7545" style="stroke:#181818;stroke-width:1.0;"/><text fill="#000000" font-family="sans-serif" font-size="20" lengthAdjust="spacing" textLength="101" x="1084" y="473.6563">exclusive to</text><text fill="#000000" font-family="sans-serif" font-size="20" lengthAdjust="spacing" textLength="11" x="1064.6612" y="526.4064">1</text></g><!--link Category to CategoryName--><g id="link_Category_CategoryName"><path codeLine="53" d="M1279.97,420.1345 C1282.23,458.1045 1285.32,509.8545 1287.47,545.9045 " fill="none" id="Category-to-CategoryName" style="stroke:#181818;stroke-width:1.0;"/><polygon fill="#181818" points="1287.78,551.1045,1291.2338,541.8811,1287.4805,546.1135,1283.2482,542.3603,1287.78,551.1045" style="stroke:#181818;stroke-width:1.0;"/><text fill="#000000" font-family="sans-serif" font-size="20" lengthAdjust="spacing" textLength="48" x="1285" y="473.6563">name</text><text fill="#000000" font-family="sans-serif" font-size="20" lengthAdjust="spacing" textLength="11" x="1275.5979" y="539.0771">1</text></g><!--link Figure to Category--><g id="link_Figure_Category"><path codeLine="56" d="M858.65,132.4145 C933.21,142.0745 1073.75,169.1845 1167,241.8945 C1193.47,262.5345 1218.41,290.2445 1237.84,314.4745 " fill="none" id="Figure-to-Category" style="stroke:#181818;stroke-width:1.0;"/><polygon fill="#181818" points="1241.15,318.6445,1238.6767,309.1113,1238.037,314.7318,1232.4164,314.0921,1241.15,318.6445" style="stroke:#181818;stroke-width:1.0;"/><text fill="#000000" font-family="sans-serif" font-size="20" lengthAdjust="spacing" textLength="77" x="1152" y="228.6563">category</text><text fill="#000000" font-family="sans-serif" font-size="20" lengthAdjust="spacing" textLength="11" x="1225.1105" y="306.6786">1</text></g><!--link Figure to ShowDesigner--><g id="link_Figure_ShowDesigner"><path codeLine="65" d="M858.68,126.9245 C964.36,128.0945 1213.02,142.1545 1389,241.8945 C1420.87,259.9645 1449.69,288.9045 1471.3,314.5545 " fill="none" id="Figure-to-ShowDesigner" style="stroke:#181818;stroke-width:1.0;"/><polygon fill="#181818" points="1474.71,318.6445,1472.0247,309.1688,1471.5105,314.8023,1465.877,314.288,1474.71,318.6445" style="stroke:#181818;stroke-width:1.0;"/><text fill="#000000" font-family="sans-serif" font-size="20" lengthAdjust="spacing" textLength="94" x="1362" y="228.6563">created by</text><text fill="#000000" font-family="sans-serif" font-size="20" lengthAdjust="spacing" textLength="11" x="1458.6168" y="306.6786">1</text></g><!--link ShowDesigner to Name--><g id="link_ShowDesigner_Name"><path codeLine="73" d="M1511.23,420.1345 C1511.4,458.1045 1511.64,509.8545 1511.81,545.9045 " fill="none" id="ShowDesigner-to-Name" style="stroke:#181818;stroke-width:1.0;"/><polygon fill="#181818" points="1511.83,551.1045,1515.8043,542.0931,1511.8157,546.1046,1507.8043,542.116,1511.83,551.1045" style="stroke:#181818;stroke-width:1.0;"/><text fill="#000000" font-family="sans-serif" font-size="20" lengthAdjust="spacing" textLength="48" x="1512" y="473.6563">name</text><text fill="#000000" font-family="sans-serif" font-size="20" lengthAdjust="spacing" textLength="11" x="1499.9618" y="539.0771">1</text></g><!--SRC=[ZLFBReCm4Bpp5IikaIerQdj44PSqkLHg3qYvEx0XBWyZs-JHAF_U3J5WjxJ0mQoNyUxiU50PBoicMP6BECC44jonEjThKUg8Vo6yF7bUnUACfGZ-ibPQ52Z1Xuld0JrnpfI2BhzOh4hDzJaCAPH2w32yDBYhTxNgh7bQIteJYAMfn9Hff2DEJOFvfw9DG2Gtw8RbDSB7zXFZOTm6fUAYd09zHHLBNkbHE9PrOTX6ckbQJQd-XkUZaCaKwEeKvxNY1nB1KgC3Dk-PKUinX5EJQFUKy9_dymU_xHX0TW_KRvnlzme0-yqGzgPv036jGr-DqW4Sxi4Gnf8u8EDrco6iBN00Esjd5B1bwcHmaYrlOzP-G0Gj77ykoO-faEUV3dLDtu8cMjJ0tranOjLPLxcRey-qGrZL0YXfdMA4_XnTd8cSmQEzEDAjyBHiVlA_XtU0OmACaRAB4J69r2-1hKCjsZD9oOl5OOAI3isklPir96mbhzut]--></g></svg>