<svg xmlns="http://www.w3.org/2000/svg" xmlns:xlink="http://www.w3.org/1999/xlink" contentStyleType="text/css" height="727px" preserveAspectRatio="none" style="width:1139px;height:727px;background:#FFFFFF;" version="1.1" viewBox="0 0 1139 727" width="1139px" zoomAndPan="magnify"><defs/><g><!--cluster Drone --><g id="cluster_Drone "><path d="M8.5,6.0137 L53.8379,6.0137 A3.75,3.75 0 0 1 56.3379,8.5137 L63.3379,30.6348 L443.5,30.6348 A2.5,2.5 0 0 1 446,33.1348 L446,342.5137 A2.5,2.5 0 0 1 443.5,345.0137 L8.5,345.0137 A2.5,2.5 0 0 1 6,342.5137 L6,8.5137 A2.5,2.5 0 0 1 8.5,6.0137 " fill="none" style="stroke:#000000;stroke-width:1.5;"/><line style="stroke:#000000;stroke-width:1.5;" x1="6" x2="63.3379" y1="30.6348" y2="30.6348"/><text fill="#000000" font-family="sans-serif" font-size="14" font-weight="bold" lengthAdjust="spacing" textLength="40.4482" x="10" y="23.1211">Drone</text><text fill="#000000" font-family="sans-serif" font-size="14" font-style="italic" lengthAdjust="spacing" textLength="78.627" x="190.6865" y="47.7422">&#171;aggregate&#187;</text></g><!--cluster Maintenance --><g id="cluster_Maintenance "><path d="M472.5,204.0137 L562.1895,204.0137 A3.75,3.75 0 0 1 564.6895,206.5137 L571.6895,228.6348 L1021.5,228.6348 A2.5,2.5 0 0 1 1024,231.1348 L1024,490.5137 A2.5,2.5 0 0 1 1021.5,493.0137 L472.5,493.0137 A2.5,2.5 0 0 1 470,490.5137 L470,206.5137 A2.5,2.5 0 0 1 472.5,204.0137 " fill="none" style="stroke:#000000;stroke-width:1.5;"/><line style="stroke:#000000;stroke-width:1.5;" x1="470" x2="571.6895" y1="228.6348" y2="228.6348"/><text fill="#000000" font-family="sans-serif" font-size="14" font-weight="bold" lengthAdjust="spacing" textLength="84.7998" x="474" y="221.1211">Maintenance</text><text fill="#000000" font-family="sans-serif" font-size="14" font-style="italic" lengthAdjust="spacing" textLength="78.627" x="711.6865" y="245.7422">&#171;aggregate&#187;</text></g><!--cluster Shared--><g id="cluster_Shared"><path d="M992.5,606.0137 L1040.9619,606.0137 A3.75,3.75 0 0 1 1043.4619,608.5137 L1050.4619,630.6348 L1129.5,630.6348 A2.5,2.5 0 0 1 1132,633.1348 L1132,717.5137 A2.5,2.5 0 0 1 1129.5,720.0137 L992.5,720.0137 A2.5,2.5 0 0 1 990,717.5137 L990,608.5137 A2.5,2.5 0 0 1 992.5,606.0137 " fill="none" style="stroke:#000000;stroke-width:1.5;"/><line style="stroke:#000000;stroke-width:1.5;" x1="990" x2="1050.4619" y1="630.6348" y2="630.6348"/><text fill="#000000" font-family="sans-serif" font-size="14" font-weight="bold" lengthAdjust="spacing" textLength="47.4619" x="994" y="623.1211">Shared</text></g><!--class Drone--><g id="elem_Drone"><rect codeLine="4" fill="#F1F1F1" height="76.543" id="Drone" rx="2.5" ry="2.5" style="stroke:#181818;stroke-width:0.5;" width="71.3594" x="264.5" y="62.0137"/><ellipse cx="279.5" cy="92.2852" fill="#ADD1B2" rx="11" ry="11" style="stroke:#181818;stroke-width:1.0;"/><path d="M282.2656,88.1602 Q282.4219,87.9414 282.6094,87.832 Q282.7969,87.7227 283.0156,87.7227 Q283.3906,87.7227 283.625,87.9883 Q283.8594,88.2383 283.8594,88.8477 L283.8594,90.3008 Q283.8594,90.9102 283.625,91.1758 Q283.3906,91.4414 283.0156,91.4414 Q282.6719,91.4414 282.4688,91.2383 Q282.2656,91.0508 282.1563,90.5352 Q282.1094,90.1758 281.9219,89.9883 Q281.5938,89.6133 280.9844,89.3945 Q280.375,89.1758 279.75,89.1758 Q278.9844,89.1758 278.3438,89.5039 Q277.7188,89.832 277.2188,90.582 Q276.7344,91.332 276.7344,92.3633 L276.7344,93.457 Q276.7344,94.6914 277.625,95.5195 Q278.5156,96.332 280.1094,96.332 Q281.0469,96.332 281.7031,96.082 Q282.0938,95.9258 282.5156,95.4883 Q282.7813,95.2227 282.9219,95.1445 Q283.0781,95.0664 283.2813,95.0664 Q283.6094,95.0664 283.8594,95.332 Q284.125,95.582 284.125,95.9258 Q284.125,96.2695 283.7813,96.6758 Q283.2813,97.2539 282.4844,97.582 Q281.4063,98.0352 280.1094,98.0352 Q278.5938,98.0352 277.3906,97.4102 Q276.4063,96.9102 275.7188,95.8477 Q275.0313,94.7695 275.0313,93.4883 L275.0313,92.332 Q275.0313,91.0039 275.6406,89.8633 Q276.2656,88.707 277.3594,88.0977 Q278.4531,87.4727 279.6875,87.4727 Q280.4219,87.4727 281.0625,87.6445 Q281.7188,87.8008 282.2656,88.1602 Z " fill="#000000"/><text fill="#000000" font-family="sans-serif" font-size="12" font-style="italic" lengthAdjust="spacing" textLength="43.3594" x="291.5" y="79.9629">&#171;Entity&#187;</text><text fill="#000000" font-family="sans-serif" font-size="12" font-style="italic" lengthAdjust="spacing" textLength="34.0254" x="296.167" y="95.9238">&#171;root&#187;</text><text fill="#000000" font-family="sans-serif" font-size="14" lengthAdjust="spacing" textLength="38.1309" x="294.1143" y="114.043">Drone</text><line style="stroke:#181818;stroke-width:0.5;" x1="265.5" x2="334.8594" y1="122.5566" y2="122.5566"/><line style="stroke:#181818;stroke-width:0.5;" x1="265.5" x2="334.8594" y1="130.5566" y2="130.5566"/></g><!--class Model--><g id="elem_Model"><rect codeLine="7" fill="#F1F1F1" height="60.582" id="Model" rx="2.5" ry="2.5" style="stroke:#181818;stroke-width:0.5;" width="110.0547" x="22" y="268.0137"/><ellipse cx="37" cy="290.3047" fill="#ADD1B2" rx="11" ry="11" style="stroke:#181818;stroke-width:1.0;"/><path d="M39.7656,286.1797 Q39.9219,285.9609 40.1094,285.8516 Q40.2969,285.7422 40.5156,285.7422 Q40.8906,285.7422 41.125,286.0078 Q41.3594,286.2578 41.3594,286.8672 L41.3594,288.3203 Q41.3594,288.9297 41.125,289.1953 Q40.8906,289.4609 40.5156,289.4609 Q40.1719,289.4609 39.9688,289.2578 Q39.7656,289.0703 39.6563,288.5547 Q39.6094,288.1953 39.4219,288.0078 Q39.0938,287.6328 38.4844,287.4141 Q37.875,287.1953 37.25,287.1953 Q36.4844,287.1953 35.8438,287.5234 Q35.2188,287.8516 34.7188,288.6016 Q34.2344,289.3516 34.2344,290.3828 L34.2344,291.4766 Q34.2344,292.7109 35.125,293.5391 Q36.0156,294.3516 37.6094,294.3516 Q38.5469,294.3516 39.2031,294.1016 Q39.5938,293.9453 40.0156,293.5078 Q40.2813,293.2422 40.4219,293.1641 Q40.5781,293.0859 40.7813,293.0859 Q41.1094,293.0859 41.3594,293.3516 Q41.625,293.6016 41.625,293.9453 Q41.625,294.2891 41.2813,294.6953 Q40.7813,295.2734 39.9844,295.6016 Q38.9063,296.0547 37.6094,296.0547 Q36.0938,296.0547 34.8906,295.4297 Q33.9063,294.9297 33.2188,293.8672 Q32.5313,292.7891 32.5313,291.5078 L32.5313,290.3516 Q32.5313,289.0234 33.1406,287.8828 Q33.7656,286.7266 34.8594,286.1172 Q35.9531,285.4922 37.1875,285.4922 Q37.9219,285.4922 38.5625,285.6641 Q39.2188,285.8203 39.7656,286.1797 Z " fill="#000000"/><text fill="#000000" font-family="sans-serif" font-size="12" font-style="italic" lengthAdjust="spacing" textLength="82.0547" x="49" y="285.9629">&#171;Value Object&#187;</text><text fill="#000000" font-family="sans-serif" font-size="14" lengthAdjust="spacing" textLength="38.1309" x="70.9619" y="304.082">Model</text><line style="stroke:#181818;stroke-width:0.5;" x1="23" x2="131.0547" y1="312.5957" y2="312.5957"/><line style="stroke:#181818;stroke-width:0.5;" x1="23" x2="131.0547" y1="320.5957" y2="320.5957"/></g><!--class SerialNumber--><g id="elem_SerialNumber"><rect codeLine="10" fill="#F1F1F1" height="60.582" id="SerialNumber" rx="2.5" ry="2.5" style="stroke:#181818;stroke-width:0.5;" width="117.5859" x="167" y="268.0137"/><ellipse cx="182" cy="290.3047" fill="#ADD1B2" rx="11" ry="11" style="stroke:#181818;stroke-width:1.0;"/><path d="M184.7656,286.1797 Q184.9219,285.9609 185.1094,285.8516 Q185.2969,285.7422 185.5156,285.7422 Q185.8906,285.7422 186.125,286.0078 Q186.3594,286.2578 186.3594,286.8672 L186.3594,288.3203 Q186.3594,288.9297 186.125,289.1953 Q185.8906,289.4609 185.5156,289.4609 Q185.1719,289.4609 184.9688,289.2578 Q184.7656,289.0703 184.6563,288.5547 Q184.6094,288.1953 184.4219,288.0078 Q184.0938,287.6328 183.4844,287.4141 Q182.875,287.1953 182.25,287.1953 Q181.4844,287.1953 180.8438,287.5234 Q180.2188,287.8516 179.7188,288.6016 Q179.2344,289.3516 179.2344,290.3828 L179.2344,291.4766 Q179.2344,292.7109 180.125,293.5391 Q181.0156,294.3516 182.6094,294.3516 Q183.5469,294.3516 184.2031,294.1016 Q184.5938,293.9453 185.0156,293.5078 Q185.2813,293.2422 185.4219,293.1641 Q185.5781,293.0859 185.7813,293.0859 Q186.1094,293.0859 186.3594,293.3516 Q186.625,293.6016 186.625,293.9453 Q186.625,294.2891 186.2813,294.6953 Q185.7813,295.2734 184.9844,295.6016 Q183.9063,296.0547 182.6094,296.0547 Q181.0938,296.0547 179.8906,295.4297 Q178.9063,294.9297 178.2188,293.8672 Q177.5313,292.7891 177.5313,291.5078 L177.5313,290.3516 Q177.5313,289.0234 178.1406,287.8828 Q178.7656,286.7266 179.8594,286.1172 Q180.9531,285.4922 182.1875,285.4922 Q182.9219,285.4922 183.5625,285.6641 Q184.2188,285.8203 184.7656,286.1797 Z " fill="#000000"/><text fill="#000000" font-family="sans-serif" font-size="12" font-style="italic" lengthAdjust="spacing" textLength="82.0547" x="197.7656" y="285.9629">&#171;Value Object&#187;</text><text fill="#000000" font-family="sans-serif" font-size="14" lengthAdjust="spacing" textLength="85.5859" x="196" y="304.082">SerialNumber</text><line style="stroke:#181818;stroke-width:0.5;" x1="168" x2="283.5859" y1="312.5957" y2="312.5957"/><line style="stroke:#181818;stroke-width:0.5;" x1="168" x2="283.5859" y1="320.5957" y2="320.5957"/></g><!--class DroneStatus--><g id="elem_DroneStatus"><rect codeLine="13" fill="#F1F1F1" height="60.582" id="DroneStatus" rx="2.5" ry="2.5" style="stroke:#181818;stroke-width:0.5;" width="110.0547" x="320" y="268.0137"/><ellipse cx="335" cy="290.3047" fill="#EB937F" rx="11" ry="11" style="stroke:#181818;stroke-width:1.0;"/><path d="M333.8594,291.1016 L333.8594,293.6016 L338.1875,293.6016 L338.1875,292.6797 Q338.1875,292.0703 338.4219,291.8047 Q338.6719,291.5391 339.0469,291.5391 Q339.4219,291.5391 339.6563,291.8047 Q339.8906,292.0703 339.8906,292.6797 L339.8906,295.3047 L331.8906,295.3047 Q331.2656,295.3047 331,295.0703 Q330.75,294.8359 330.75,294.4453 Q330.75,294.0703 331.0156,293.8359 Q331.2813,293.6016 331.8906,293.6016 L332.1563,293.6016 L332.1563,286.9453 L331.8906,286.9453 Q331.2656,286.9453 331,286.7109 Q330.75,286.4766 330.75,286.0859 Q330.75,285.7109 331,285.4766 Q331.2656,285.2422 331.8906,285.2422 L339.5156,285.2422 L339.5156,287.8359 Q339.5156,288.4453 339.2813,288.7109 Q339.0625,288.9609 338.6719,288.9609 Q338.2969,288.9609 338.0625,288.7109 Q337.8281,288.4453 337.8281,287.8359 L337.8281,286.9453 L333.8594,286.9453 L333.8594,289.3984 L335.3438,289.3984 Q335.3438,288.7422 335.4688,288.5547 Q335.7344,288.1484 336.2031,288.1484 Q336.5781,288.1484 336.8125,288.4141 Q337.0469,288.6641 337.0469,289.2734 L337.0469,291.2422 Q337.0469,291.7891 336.9219,291.9766 Q336.6563,292.3672 336.2031,292.3672 Q335.7344,292.3672 335.4688,291.9609 Q335.3438,291.7734 335.3438,291.1016 L333.8594,291.1016 Z " fill="#000000"/><text fill="#000000" font-family="sans-serif" font-size="12" font-style="italic" lengthAdjust="spacing" textLength="82.0547" x="347" y="285.9629">&#171;Value Object&#187;</text><text fill="#000000" font-family="sans-serif" font-size="14" lengthAdjust="spacing" textLength="77.8203" x="349.1172" y="304.082">DroneStatus</text><line style="stroke:#181818;stroke-width:0.5;" x1="321" x2="429.0547" y1="312.5957" y2="312.5957"/><line style="stroke:#181818;stroke-width:0.5;" x1="321" x2="429.0547" y1="320.5957" y2="320.5957"/></g><!--class Maintenance--><g id="elem_Maintenance"><rect codeLine="24" fill="#F1F1F1" height="76.543" id="Maintenance" rx="2.5" ry="2.5" style="stroke:#181818;stroke-width:0.5;" width="112.165" x="682" y="260.0137"/><ellipse cx="697" cy="290.2852" fill="#ADD1B2" rx="11" ry="11" style="stroke:#181818;stroke-width:1.0;"/><path d="M699.7656,286.1602 Q699.9219,285.9414 700.1094,285.832 Q700.2969,285.7227 700.5156,285.7227 Q700.8906,285.7227 701.125,285.9883 Q701.3594,286.2383 701.3594,286.8477 L701.3594,288.3008 Q701.3594,288.9102 701.125,289.1758 Q700.8906,289.4414 700.5156,289.4414 Q700.1719,289.4414 699.9688,289.2383 Q699.7656,289.0508 699.6563,288.5352 Q699.6094,288.1758 699.4219,287.9883 Q699.0938,287.6133 698.4844,287.3945 Q697.875,287.1758 697.25,287.1758 Q696.4844,287.1758 695.8438,287.5039 Q695.2188,287.832 694.7188,288.582 Q694.2344,289.332 694.2344,290.3633 L694.2344,291.457 Q694.2344,292.6914 695.125,293.5195 Q696.0156,294.332 697.6094,294.332 Q698.5469,294.332 699.2031,294.082 Q699.5938,293.9258 700.0156,293.4883 Q700.2813,293.2227 700.4219,293.1445 Q700.5781,293.0664 700.7813,293.0664 Q701.1094,293.0664 701.3594,293.332 Q701.625,293.582 701.625,293.9258 Q701.625,294.2695 701.2813,294.6758 Q700.7813,295.2539 699.9844,295.582 Q698.9063,296.0352 697.6094,296.0352 Q696.0938,296.0352 694.8906,295.4102 Q693.9063,294.9102 693.2188,293.8477 Q692.5313,292.7695 692.5313,291.4883 L692.5313,290.332 Q692.5313,289.0039 693.1406,287.8633 Q693.7656,286.707 694.8594,286.0977 Q695.9531,285.4727 697.1875,285.4727 Q697.9219,285.4727 698.5625,285.6445 Q699.2188,285.8008 699.7656,286.1602 Z " fill="#000000"/><text fill="#000000" font-family="sans-serif" font-size="12" font-style="italic" lengthAdjust="spacing" textLength="43.3594" x="729.4028" y="277.9629">&#171;Entity&#187;</text><text fill="#000000" font-family="sans-serif" font-size="12" font-style="italic" lengthAdjust="spacing" textLength="34.0254" x="734.0698" y="293.9238">&#171;root&#187;</text><text fill="#000000" font-family="sans-serif" font-size="14" lengthAdjust="spacing" textLength="80.165" x="711" y="312.043">Maintenance</text><line style="stroke:#181818;stroke-width:0.5;" x1="683" x2="793.165" y1="320.5566" y2="320.5566"/><line style="stroke:#181818;stroke-width:0.5;" x1="683" x2="793.165" y1="328.5566" y2="328.5566"/></g><!--class MaintenanceID--><g id="elem_MaintenanceID"><rect codeLine="27" fill="#F1F1F1" height="60.582" id="MaintenanceID" rx="2.5" ry="2.5" style="stroke:#181818;stroke-width:0.5;" width="126.165" x="486" y="416.0137"/><ellipse cx="501" cy="438.3047" fill="#ADD1B2" rx="11" ry="11" style="stroke:#181818;stroke-width:1.0;"/><path d="M503.7656,434.1797 Q503.9219,433.9609 504.1094,433.8516 Q504.2969,433.7422 504.5156,433.7422 Q504.8906,433.7422 505.125,434.0078 Q505.3594,434.2578 505.3594,434.8672 L505.3594,436.3203 Q505.3594,436.9297 505.125,437.1953 Q504.8906,437.4609 504.5156,437.4609 Q504.1719,437.4609 503.9688,437.2578 Q503.7656,437.0703 503.6563,436.5547 Q503.6094,436.1953 503.4219,436.0078 Q503.0938,435.6328 502.4844,435.4141 Q501.875,435.1953 501.25,435.1953 Q500.4844,435.1953 499.8438,435.5234 Q499.2188,435.8516 498.7188,436.6016 Q498.2344,437.3516 498.2344,438.3828 L498.2344,439.4766 Q498.2344,440.7109 499.125,441.5391 Q500.0156,442.3516 501.6094,442.3516 Q502.5469,442.3516 503.2031,442.1016 Q503.5938,441.9453 504.0156,441.5078 Q504.2813,441.2422 504.4219,441.1641 Q504.5781,441.0859 504.7813,441.0859 Q505.1094,441.0859 505.3594,441.3516 Q505.625,441.6016 505.625,441.9453 Q505.625,442.2891 505.2813,442.6953 Q504.7813,443.2734 503.9844,443.6016 Q502.9063,444.0547 501.6094,444.0547 Q500.0938,444.0547 498.8906,443.4297 Q497.9063,442.9297 497.2188,441.8672 Q496.5313,440.7891 496.5313,439.5078 L496.5313,438.3516 Q496.5313,437.0234 497.1406,435.8828 Q497.7656,434.7266 498.8594,434.1172 Q499.9531,433.4922 501.1875,433.4922 Q501.9219,433.4922 502.5625,433.6641 Q503.2188,433.8203 503.7656,434.1797 Z " fill="#000000"/><text fill="#000000" font-family="sans-serif" font-size="12" font-style="italic" lengthAdjust="spacing" textLength="82.0547" x="521.0552" y="433.9629">&#171;Value Object&#187;</text><text fill="#000000" font-family="sans-serif" font-size="14" lengthAdjust="spacing" textLength="94.165" x="515" y="452.082">MaintenanceID</text><line style="stroke:#181818;stroke-width:0.5;" x1="487" x2="611.165" y1="460.5957" y2="460.5957"/><line style="stroke:#181818;stroke-width:0.5;" x1="487" x2="611.165" y1="468.5957" y2="468.5957"/></g><!--class MaintenanceDescription--><g id="elem_MaintenanceDescription"><rect codeLine="30" fill="#F1F1F1" height="60.582" id="MaintenanceDescription" rx="2.5" ry="2.5" style="stroke:#181818;stroke-width:0.5;" width="182.1924" x="647" y="416.0137"/><ellipse cx="662" cy="438.3047" fill="#ADD1B2" rx="11" ry="11" style="stroke:#181818;stroke-width:1.0;"/><path d="M664.7656,434.1797 Q664.9219,433.9609 665.1094,433.8516 Q665.2969,433.7422 665.5156,433.7422 Q665.8906,433.7422 666.125,434.0078 Q666.3594,434.2578 666.3594,434.8672 L666.3594,436.3203 Q666.3594,436.9297 666.125,437.1953 Q665.8906,437.4609 665.5156,437.4609 Q665.1719,437.4609 664.9688,437.2578 Q664.7656,437.0703 664.6563,436.5547 Q664.6094,436.1953 664.4219,436.0078 Q664.0938,435.6328 663.4844,435.4141 Q662.875,435.1953 662.25,435.1953 Q661.4844,435.1953 660.8438,435.5234 Q660.2188,435.8516 659.7188,436.6016 Q659.2344,437.3516 659.2344,438.3828 L659.2344,439.4766 Q659.2344,440.7109 660.125,441.5391 Q661.0156,442.3516 662.6094,442.3516 Q663.5469,442.3516 664.2031,442.1016 Q664.5938,441.9453 665.0156,441.5078 Q665.2813,441.2422 665.4219,441.1641 Q665.5781,441.0859 665.7813,441.0859 Q666.1094,441.0859 666.3594,441.3516 Q666.625,441.6016 666.625,441.9453 Q666.625,442.2891 666.2813,442.6953 Q665.7813,443.2734 664.9844,443.6016 Q663.9063,444.0547 662.6094,444.0547 Q661.0938,444.0547 659.8906,443.4297 Q658.9063,442.9297 658.2188,441.8672 Q657.5313,440.7891 657.5313,439.5078 L657.5313,438.3516 Q657.5313,437.0234 658.1406,435.8828 Q658.7656,434.7266 659.8594,434.1172 Q660.9531,433.4922 662.1875,433.4922 Q662.9219,433.4922 663.5625,433.6641 Q664.2188,433.8203 664.7656,434.1797 Z " fill="#000000"/><text fill="#000000" font-family="sans-serif" font-size="12" font-style="italic" lengthAdjust="spacing" textLength="82.0547" x="710.0688" y="433.9629">&#171;Value Object&#187;</text><text fill="#000000" font-family="sans-serif" font-size="14" lengthAdjust="spacing" textLength="150.1924" x="676" y="452.082">MaintenanceDescription</text><line style="stroke:#181818;stroke-width:0.5;" x1="648" x2="828.1924" y1="460.5957" y2="460.5957"/><line style="stroke:#181818;stroke-width:0.5;" x1="648" x2="828.1924" y1="468.5957" y2="468.5957"/></g><!--class MaintenanceType--><g id="elem_MaintenanceType"><rect codeLine="33" fill="#F1F1F1" height="60.582" id="MaintenanceType" rx="2.5" ry="2.5" style="stroke:#181818;stroke-width:0.5;" width="143.2891" x="864.5" y="416.0137"/><ellipse cx="879.5" cy="438.3047" fill="#EB937F" rx="11" ry="11" style="stroke:#181818;stroke-width:1.0;"/><path d="M878.3594,439.1016 L878.3594,441.6016 L882.6875,441.6016 L882.6875,440.6797 Q882.6875,440.0703 882.9219,439.8047 Q883.1719,439.5391 883.5469,439.5391 Q883.9219,439.5391 884.1563,439.8047 Q884.3906,440.0703 884.3906,440.6797 L884.3906,443.3047 L876.3906,443.3047 Q875.7656,443.3047 875.5,443.0703 Q875.25,442.8359 875.25,442.4453 Q875.25,442.0703 875.5156,441.8359 Q875.7813,441.6016 876.3906,441.6016 L876.6563,441.6016 L876.6563,434.9453 L876.3906,434.9453 Q875.7656,434.9453 875.5,434.7109 Q875.25,434.4766 875.25,434.0859 Q875.25,433.7109 875.5,433.4766 Q875.7656,433.2422 876.3906,433.2422 L884.0156,433.2422 L884.0156,435.8359 Q884.0156,436.4453 883.7813,436.7109 Q883.5625,436.9609 883.1719,436.9609 Q882.7969,436.9609 882.5625,436.7109 Q882.3281,436.4453 882.3281,435.8359 L882.3281,434.9453 L878.3594,434.9453 L878.3594,437.3984 L879.8438,437.3984 Q879.8438,436.7422 879.9688,436.5547 Q880.2344,436.1484 880.7031,436.1484 Q881.0781,436.1484 881.3125,436.4141 Q881.5469,436.6641 881.5469,437.2734 L881.5469,439.2422 Q881.5469,439.7891 881.4219,439.9766 Q881.1563,440.3672 880.7031,440.3672 Q880.2344,440.3672 879.9688,439.9609 Q879.8438,439.7734 879.8438,439.1016 L878.3594,439.1016 Z " fill="#000000"/><text fill="#000000" font-family="sans-serif" font-size="12" font-style="italic" lengthAdjust="spacing" textLength="82.0547" x="908.1172" y="433.9629">&#171;Value Object&#187;</text><text fill="#000000" font-family="sans-serif" font-size="14" lengthAdjust="spacing" textLength="111.2891" x="893.5" y="452.082">MaintenanceType</text><line style="stroke:#181818;stroke-width:0.5;" x1="865.5" x2="1006.7891" y1="460.5957" y2="460.5957"/><line style="stroke:#181818;stroke-width:0.5;" x1="865.5" x2="1006.7891" y1="468.5957" y2="468.5957"/></g><!--class Date--><g id="elem_Date"><rect codeLine="46" fill="#F1F1F1" height="60.582" id="Date" rx="2.5" ry="2.5" style="stroke:#181818;stroke-width:0.5;" width="110.0547" x="1006" y="643.0137"/><ellipse cx="1021" cy="665.3047" fill="#ADD1B2" rx="11" ry="11" style="stroke:#181818;stroke-width:1.0;"/><path d="M1023.7656,661.1797 Q1023.9219,660.9609 1024.1094,660.8516 Q1024.2969,660.7422 1024.5156,660.7422 Q1024.8906,660.7422 1025.125,661.0078 Q1025.3594,661.2578 1025.3594,661.8672 L1025.3594,663.3203 Q1025.3594,663.9297 1025.125,664.1953 Q1024.8906,664.4609 1024.5156,664.4609 Q1024.1719,664.4609 1023.9688,664.2578 Q1023.7656,664.0703 1023.6563,663.5547 Q1023.6094,663.1953 1023.4219,663.0078 Q1023.0938,662.6328 1022.4844,662.4141 Q1021.875,662.1953 1021.25,662.1953 Q1020.4844,662.1953 1019.8438,662.5234 Q1019.2188,662.8516 1018.7188,663.6016 Q1018.2344,664.3516 1018.2344,665.3828 L1018.2344,666.4766 Q1018.2344,667.7109 1019.125,668.5391 Q1020.0156,669.3516 1021.6094,669.3516 Q1022.5469,669.3516 1023.2031,669.1016 Q1023.5938,668.9453 1024.0156,668.5078 Q1024.2813,668.2422 1024.4219,668.1641 Q1024.5781,668.0859 1024.7813,668.0859 Q1025.1094,668.0859 1025.3594,668.3516 Q1025.625,668.6016 1025.625,668.9453 Q1025.625,669.2891 1025.2813,669.6953 Q1024.7813,670.2734 1023.9844,670.6016 Q1022.9063,671.0547 1021.6094,671.0547 Q1020.0938,671.0547 1018.8906,670.4297 Q1017.9063,669.9297 1017.2188,668.8672 Q1016.5313,667.7891 1016.5313,666.5078 L1016.5313,665.3516 Q1016.5313,664.0234 1017.1406,662.8828 Q1017.7656,661.7266 1018.8594,661.1172 Q1019.9531,660.4922 1021.1875,660.4922 Q1021.9219,660.4922 1022.5625,660.6641 Q1023.2188,660.8203 1023.7656,661.1797 Z " fill="#000000"/><text fill="#000000" font-family="sans-serif" font-size="12" font-style="italic" lengthAdjust="spacing" textLength="82.0547" x="1033" y="660.9629">&#171;Value Object&#187;</text><text fill="#000000" font-family="sans-serif" font-size="14" lengthAdjust="spacing" textLength="29.5723" x="1059.2412" y="679.082">Date</text><line style="stroke:#181818;stroke-width:0.5;" x1="1007" x2="1115.0547" y1="687.5957" y2="687.5957"/><line style="stroke:#181818;stroke-width:0.5;" x1="1007" x2="1115.0547" y1="695.5957" y2="695.5957"/></g><!--link Drone to DroneStatus--><g id="link_Drone_DroneStatus"><path codeLine="17" d="M315.98,139.2437 C319.99,148.9137 324.22,159.3237 328,169.0137 C341.12,202.6537 353.2181,235.991 362.5181,262.121 " fill="none" id="Drone-to-DroneStatus" style="stroke:#181818;stroke-width:1.0;"/><polygon fill="#181818" points="364.53,267.7737,365.2807,257.9535,362.8535,263.0631,357.7438,260.6359,364.53,267.7737" style="stroke:#181818;stroke-width:1.0;"/><text fill="#000000" font-family="sans-serif" font-size="13" lengthAdjust="spacing" textLength="34.6836" x="335" y="184.042">status</text><text fill="#000000" font-family="sans-serif" font-size="13" lengthAdjust="spacing" textLength="7.23" x="354.6668" y="256.7819">1</text></g><!--link Drone to Model--><g id="link_Drone_Model"><path codeLine="18" d="M264.31,118.6737 C231.86,135.4137 183.86,163.1137 149,196.0137 C126.69,217.0737 110.0994,240.8683 96.9594,262.4583 " fill="none" id="Drone-to-Model" style="stroke:#181818;stroke-width:1.0;"/><polygon fill="#181818" points="93.84,267.5837,101.936,261.9752,96.4395,263.3125,95.1022,257.816,93.84,267.5837" style="stroke:#181818;stroke-width:1.0;"/><text fill="#000000" font-family="sans-serif" font-size="13" lengthAdjust="spacing" textLength="35.4072" x="180" y="184.042">model</text><text fill="#000000" font-family="sans-serif" font-size="13" lengthAdjust="spacing" textLength="7.23" x="89.6095" y="256.5527">1</text></g><!--link Drone to SerialNumber--><g id="link_Drone_SerialNumber"><path codeLine="19" d="M264.39,138.0237 C256.9,147.4737 249.82,158.0837 245,169.0137 C230.94,200.8937 227.1465,235.0976 226.1765,261.9676 " fill="none" id="Drone-to-SerialNumber" style="stroke:#181818;stroke-width:1.0;"/><polygon fill="#181818" points="225.96,267.9637,230.2821,259.1138,226.1404,262.9669,222.2873,258.8252,225.96,267.9637" style="stroke:#181818;stroke-width:1.0;"/><text fill="#000000" font-family="sans-serif" font-size="13" lengthAdjust="spacing" textLength="77.3018" x="246" y="184.042">serialNumber</text><text fill="#000000" font-family="sans-serif" font-size="13" lengthAdjust="spacing" textLength="7.23" x="218.2561" y="256.5273">1</text></g><!--link Maintenance to MaintenanceDescription--><g id="link_Maintenance_MaintenanceDescription"><path codeLine="37" d="M738,337.1137 C738,361.6137 738,387.1337 738,409.8637 " fill="none" id="Maintenance-to-MaintenanceDescription" style="stroke:#181818;stroke-width:1.0;"/><polygon fill="#181818" points="738,415.8637,742,406.8637,738,410.8637,734,406.8637,738,415.8637" style="stroke:#181818;stroke-width:1.0;"/><text fill="#000000" font-family="sans-serif" font-size="13" lengthAdjust="spacing" textLength="62.8672" x="739" y="382.042">description</text><text fill="#000000" font-family="sans-serif" font-size="13" lengthAdjust="spacing" textLength="7.23" x="730.282" y="404.8904">1</text></g><!--link Maintenance to MaintenanceType--><g id="link_Maintenance_MaintenanceType"><path codeLine="38" d="M788.99,337.1137 C822.22,361.6137 860.1412,389.5724 890.9612,412.3024 " fill="none" id="Maintenance-to-MaintenanceType" style="stroke:#181818;stroke-width:1.0;"/><polygon fill="#181818" points="895.79,415.8637,890.921,407.3026,891.766,412.8959,886.1726,413.741,895.79,415.8637" style="stroke:#181818;stroke-width:1.0;"/><text fill="#000000" font-family="sans-serif" font-size="13" lengthAdjust="spacing" textLength="24.5718" x="855" y="382.042">type</text><text fill="#000000" font-family="sans-serif" font-size="13" lengthAdjust="spacing" textLength="7.23" x="879.7687" y="404.8904">1</text></g><!--link Maintenance to MaintenanceID--><g id="link_Maintenance_MaintenanceID"><path codeLine="39" d="M689.33,337.1137 C657.61,361.6137 621.548,389.4654 592.128,412.1954 " fill="none" id="Maintenance-to-MaintenanceID" style="stroke:#181818;stroke-width:1.0;"/><polygon fill="#181818" points="587.38,415.8637,596.9475,413.5265,591.3367,412.8067,592.0564,407.1959,587.38,415.8637" style="stroke:#181818;stroke-width:1.0;"/><text fill="#000000" font-family="sans-serif" font-size="13" lengthAdjust="spacing" textLength="10.1182" x="650" y="382.042">id</text><text fill="#000000" font-family="sans-serif" font-size="13" lengthAdjust="spacing" textLength="7.23" x="587.5807" y="404.8904">1</text></g><!--link Drone to Maintenance--><g id="link_Drone_Maintenance"><path codeLine="41" d="M335.84,117.5537 C411.95,151.6137 584.7034,228.9127 676.1834,269.8527 " fill="none" id="Drone-to-Maintenance" style="stroke:#181818;stroke-width:1.0;"/><polygon fill="#181818" points="681.66,272.3037,675.0791,264.9762,677.0962,270.2612,671.8112,272.2783,681.66,272.3037" style="stroke:#181818;stroke-width:1.0;"/><text fill="#000000" font-family="sans-serif" font-size="13" lengthAdjust="spacing" textLength="61.439" x="493" y="184.042">undergoes</text><text fill="#000000" font-family="sans-serif" font-size="13" lengthAdjust="spacing" textLength="19.5127" x="654.6569" y="265.1473">1..*</text></g><!--link Maintenance to Date--><g id="link_Maintenance_Date"><path codeLine="50" d="M794.08,305.6737 C860.35,316.1237 968.7,343.8137 1025,416.0137 C1077.26,483.0337 1072.7091,584.9481 1066.3591,636.8181 " fill="none" id="Maintenance-to-Date" style="stroke:#181818;stroke-width:1.0;"/><polygon fill="#181818" points="1065.63,642.7737,1070.694,634.3264,1066.2376,637.8107,1062.7533,633.3543,1065.63,642.7737" style="stroke:#181818;stroke-width:1.0;"/><text fill="#000000" font-family="sans-serif" font-size="13" lengthAdjust="spacing" textLength="25.3018" x="1067" y="524.042">date</text><text fill="#000000" font-family="sans-serif" font-size="13" lengthAdjust="spacing" textLength="7.23" x="1058.8811" y="631.7819">1</text></g><!--SRC=[fPF1QiCm38RlUGgHos2mmgx6-9GTUcXtoEXTTKJcBR63xK1BsRjFJTRMtK8RM0uMYZyflt_57UfFh0domZlB0QJ4klPKOoIbu91bm8zkC0GO4IbVR3HnpxjIUkUYKeS1-ahPbQkeOM23JK_mklqWFGsMv0qswxxTah_Da-tRKKCPCVRXDlqmgdrIi1lodvJp_3bFsmW8GvoWXaC8Q8zXOZkLpbsIB6CHtSdP5HeRoQBLT_nDmPakNogMnHotauA2WlQcYyRP6RudXM_xZkvudvxaF86hboU79_K8g2x9dDgZ906HrpdqiX1WgkpFH1UBnojEG6yhyhMZa0wqV4TFrQ-hmUFyloVdlvExiGUyydU_0G00]--></g></svg>