<?xml version="1.0" encoding="UTF-8" standalone="no"?><svg xmlns="http://www.w3.org/2000/svg" xmlns:xlink="http://www.w3.org/1999/xlink" contentStyleType="text/css" height="694px" preserveAspectRatio="none" style="width:1108px;height:694px;background:#FFFFFF;" version="1.1" viewBox="0 0 1108 694" width="1108px" zoomAndPan="magnify"><defs/><g><!--cluster Customer --><g id="cluster_Customer "><path d="M8.5,6.8945 L107.5,6.8945 A3.75,3.75 0 0 1 110,9.3945 L117,38.0508 L1015.5,38.0508 A2.5,2.5 0 0 1 1018,40.5508 L1018,516.3945 A2.5,2.5 0 0 1 1015.5,518.8945 L8.5,518.8945 A2.5,2.5 0 0 1 6,516.3945 L6,9.3945 A2.5,2.5 0 0 1 8.5,6.8945 " fill="none" style="stroke:#000000;stroke-width:1.5;"/><line style="stroke:#000000;stroke-width:1.5;" x1="6" x2="117" y1="38.0508" y2="38.0508"/><text fill="#000000" font-family="sans-serif" font-size="20" font-weight="bold" lengthAdjust="spacing" textLength="92" x="10" y="29.6563">Customer</text><text fill="#000000" font-family="sans-serif" font-size="20" font-style="italic" lengthAdjust="spacing" textLength="111" x="460.5" y="60.8125">«aggregate»</text></g><!--cluster Shared--><g id="cluster_Shared"><path d="M503.5,551.8945 L571.5,551.8945 A3.75,3.75 0 0 1 574,554.3945 L581,583.0508 L1098.5,583.0508 A2.5,2.5 0 0 1 1101,585.5508 L1101,685.3945 A2.5,2.5 0 0 1 1098.5,687.8945 L503.5,687.8945 A2.5,2.5 0 0 1 501,685.3945 L501,554.3945 A2.5,2.5 0 0 1 503.5,551.8945 " fill="none" style="stroke:#000000;stroke-width:1.5;"/><line style="stroke:#000000;stroke-width:1.5;" x1="501" x2="581" y1="583.0508" y2="583.0508"/><text fill="#000000" font-family="sans-serif" font-size="20" font-weight="bold" lengthAdjust="spacing" textLength="67" x="505" y="574.6563">Shared</text></g><!--class Customer--><g id="elem_Customer"><rect codeLine="3" fill="#F1F1F1" height="101.4688" id="Customer" rx="2.5" ry="2.5" style="stroke:#181818;stroke-width:0.5;" width="119" x="542.5" y="75.8945"/><ellipse cx="558.5" cy="118.6289" fill="#ADD1B2" rx="12" ry="12" style="stroke:#181818;stroke-width:1.0;"/><path d="M560.6406,113.5508 Q560.8281,113.3008 561.0469,113.1758 Q561.2656,113.0352 561.5156,113.0352 Q561.9531,113.0352 562.2344,113.3477 Q562.5156,113.6445 562.5156,114.3633 L562.5156,116.0664 Q562.5156,116.7852 562.2344,117.0977 Q561.9531,117.4102 561.5156,117.4102 Q561.125,117.4102 560.875,117.1758 Q560.625,116.957 560.5156,116.3477 Q560.4531,115.9258 560.2344,115.707 Q559.8438,115.2695 559.125,115.0039 Q558.4063,114.7383 557.6875,114.7383 Q556.7813,114.7383 556.0313,115.1289 Q555.2813,115.5195 554.7031,116.4102 Q554.125,117.2852 554.125,118.4883 L554.125,119.7852 Q554.125,121.2383 555.1719,122.207 Q556.2344,123.1758 558.0938,123.1758 Q559.2031,123.1758 559.9844,122.8633 Q560.4219,122.6914 560.9375,122.1758 Q561.25,121.8633 561.4219,121.7695 Q561.5938,121.6758 561.8281,121.6758 Q562.2188,121.6758 562.5156,121.9883 Q562.8281,122.2852 562.8281,122.6914 Q562.8281,123.0977 562.4219,123.5664 Q561.8281,124.2539 560.8906,124.6445 Q559.625,125.1758 558.1094,125.1758 Q556.3281,125.1758 554.9063,124.4414 Q553.75,123.8477 552.9375,122.582 Q552.125,121.3164 552.125,119.832 L552.125,118.4727 Q552.125,116.9102 552.8438,115.5664 Q553.5781,114.207 554.8594,113.4727 Q556.1563,112.7383 557.6094,112.7383 Q558.4688,112.7383 559.2188,112.9414 Q559.9844,113.1445 560.6406,113.5508 Z " fill="#000000"/><text fill="#000000" font-family="sans-serif" font-size="20" font-style="italic" lengthAdjust="spacing" textLength="71" x="580.5" y="101.6563">«Entity»</text><text fill="#000000" font-family="sans-serif" font-size="20" font-style="italic" lengthAdjust="spacing" textLength="56" x="588" y="126.8125">«root»</text><text fill="#000000" font-family="sans-serif" font-size="20" lengthAdjust="spacing" textLength="85" x="573.5" y="151.9688">Customer</text><line style="stroke:#181818;stroke-width:0.5;" x1="543.5" x2="660.5" y1="161.3633" y2="161.3633"/><line style="stroke:#181818;stroke-width:0.5;" x1="543.5" x2="660.5" y1="169.3633" y2="169.3633"/></g><!--class Representative--><g id="elem_Representative"><rect codeLine="6" fill="#F1F1F1" height="76.3125" id="Representative" rx="2.5" ry="2.5" style="stroke:#181818;stroke-width:0.5;" width="166" x="635" y="263.8945"/><ellipse cx="651" cy="294.0508" fill="#ADD1B2" rx="12" ry="12" style="stroke:#181818;stroke-width:1.0;"/><path d="M653.1406,288.9727 Q653.3281,288.7227 653.5469,288.5977 Q653.7656,288.457 654.0156,288.457 Q654.4531,288.457 654.7344,288.7695 Q655.0156,289.0664 655.0156,289.7852 L655.0156,291.4883 Q655.0156,292.207 654.7344,292.5195 Q654.4531,292.832 654.0156,292.832 Q653.625,292.832 653.375,292.5977 Q653.125,292.3789 653.0156,291.7695 Q652.9531,291.3477 652.7344,291.1289 Q652.3438,290.6914 651.625,290.4258 Q650.9063,290.1602 650.1875,290.1602 Q649.2813,290.1602 648.5313,290.5508 Q647.7813,290.9414 647.2031,291.832 Q646.625,292.707 646.625,293.9102 L646.625,295.207 Q646.625,296.6602 647.6719,297.6289 Q648.7344,298.5977 650.5938,298.5977 Q651.7031,298.5977 652.4844,298.2852 Q652.9219,298.1133 653.4375,297.5977 Q653.75,297.2852 653.9219,297.1914 Q654.0938,297.0977 654.3281,297.0977 Q654.7188,297.0977 655.0156,297.4102 Q655.3281,297.707 655.3281,298.1133 Q655.3281,298.5195 654.9219,298.9883 Q654.3281,299.6758 653.3906,300.0664 Q652.125,300.5977 650.6094,300.5977 Q648.8281,300.5977 647.4063,299.8633 Q646.25,299.2695 645.4375,298.0039 Q644.625,296.7383 644.625,295.2539 L644.625,293.8945 Q644.625,292.332 645.3438,290.9883 Q646.0781,289.6289 647.3594,288.8945 Q648.6563,288.1602 650.1094,288.1602 Q650.9688,288.1602 651.7188,288.3633 Q652.4844,288.5664 653.1406,288.9727 Z " fill="#000000"/><text fill="#000000" font-family="sans-serif" font-size="20" font-style="italic" lengthAdjust="spacing" textLength="71" x="696.5" y="289.6563">«Entity»</text><text fill="#000000" font-family="sans-serif" font-size="20" lengthAdjust="spacing" textLength="132" x="666" y="314.8125">Representative</text><line style="stroke:#181818;stroke-width:0.5;" x1="636" x2="800" y1="324.207" y2="324.207"/><line style="stroke:#181818;stroke-width:0.5;" x1="636" x2="800" y1="332.207" y2="332.207"/></g><!--class Address--><g id="elem_Address"><rect codeLine="9" fill="#F1F1F1" height="76.3125" id="Address" rx="2.5" ry="2.5" style="stroke:#181818;stroke-width:0.5;" width="166" x="836" y="263.8945"/><ellipse cx="852" cy="294.0508" fill="#ADD1B2" rx="12" ry="12" style="stroke:#181818;stroke-width:1.0;"/><path d="M854.1406,288.9727 Q854.3281,288.7227 854.5469,288.5977 Q854.7656,288.457 855.0156,288.457 Q855.4531,288.457 855.7344,288.7695 Q856.0156,289.0664 856.0156,289.7852 L856.0156,291.4883 Q856.0156,292.207 855.7344,292.5195 Q855.4531,292.832 855.0156,292.832 Q854.625,292.832 854.375,292.5977 Q854.125,292.3789 854.0156,291.7695 Q853.9531,291.3477 853.7344,291.1289 Q853.3438,290.6914 852.625,290.4258 Q851.9063,290.1602 851.1875,290.1602 Q850.2813,290.1602 849.5313,290.5508 Q848.7813,290.9414 848.2031,291.832 Q847.625,292.707 847.625,293.9102 L847.625,295.207 Q847.625,296.6602 848.6719,297.6289 Q849.7344,298.5977 851.5938,298.5977 Q852.7031,298.5977 853.4844,298.2852 Q853.9219,298.1133 854.4375,297.5977 Q854.75,297.2852 854.9219,297.1914 Q855.0938,297.0977 855.3281,297.0977 Q855.7188,297.0977 856.0156,297.4102 Q856.3281,297.707 856.3281,298.1133 Q856.3281,298.5195 855.9219,298.9883 Q855.3281,299.6758 854.3906,300.0664 Q853.125,300.5977 851.6094,300.5977 Q849.8281,300.5977 848.4063,299.8633 Q847.25,299.2695 846.4375,298.0039 Q845.625,296.7383 845.625,295.2539 L845.625,293.8945 Q845.625,292.332 846.3438,290.9883 Q847.0781,289.6289 848.3594,288.8945 Q849.6563,288.1602 851.1094,288.1602 Q851.9688,288.1602 852.7188,288.3633 Q853.4844,288.5664 854.1406,288.9727 Z " fill="#000000"/><text fill="#000000" font-family="sans-serif" font-size="20" font-style="italic" lengthAdjust="spacing" textLength="136" x="865" y="289.6563">«Value Object»</text><text fill="#000000" font-family="sans-serif" font-size="20" lengthAdjust="spacing" textLength="73" x="896.5" y="314.8125">Address</text><line style="stroke:#181818;stroke-width:0.5;" x1="837" x2="1001" y1="324.207" y2="324.207"/><line style="stroke:#181818;stroke-width:0.5;" x1="837" x2="1001" y1="332.207" y2="332.207"/></g><!--class VatNumber--><g id="elem_VatNumber"><rect codeLine="12" fill="#F1F1F1" height="76.3125" id="VatNumber" rx="2.5" ry="2.5" style="stroke:#181818;stroke-width:0.5;" width="166" x="22" y="263.8945"/><ellipse cx="38" cy="294.0508" fill="#ADD1B2" rx="12" ry="12" style="stroke:#181818;stroke-width:1.0;"/><path d="M40.1406,288.9727 Q40.3281,288.7227 40.5469,288.5977 Q40.7656,288.457 41.0156,288.457 Q41.4531,288.457 41.7344,288.7695 Q42.0156,289.0664 42.0156,289.7852 L42.0156,291.4883 Q42.0156,292.207 41.7344,292.5195 Q41.4531,292.832 41.0156,292.832 Q40.625,292.832 40.375,292.5977 Q40.125,292.3789 40.0156,291.7695 Q39.9531,291.3477 39.7344,291.1289 Q39.3438,290.6914 38.625,290.4258 Q37.9063,290.1602 37.1875,290.1602 Q36.2813,290.1602 35.5313,290.5508 Q34.7813,290.9414 34.2031,291.832 Q33.625,292.707 33.625,293.9102 L33.625,295.207 Q33.625,296.6602 34.6719,297.6289 Q35.7344,298.5977 37.5938,298.5977 Q38.7031,298.5977 39.4844,298.2852 Q39.9219,298.1133 40.4375,297.5977 Q40.75,297.2852 40.9219,297.1914 Q41.0938,297.0977 41.3281,297.0977 Q41.7188,297.0977 42.0156,297.4102 Q42.3281,297.707 42.3281,298.1133 Q42.3281,298.5195 41.9219,298.9883 Q41.3281,299.6758 40.3906,300.0664 Q39.125,300.5977 37.6094,300.5977 Q35.8281,300.5977 34.4063,299.8633 Q33.25,299.2695 32.4375,298.0039 Q31.625,296.7383 31.625,295.2539 L31.625,293.8945 Q31.625,292.332 32.3438,290.9883 Q33.0781,289.6289 34.3594,288.8945 Q35.6563,288.1602 37.1094,288.1602 Q37.9688,288.1602 38.7188,288.3633 Q39.4844,288.5664 40.1406,288.9727 Z " fill="#000000"/><text fill="#000000" font-family="sans-serif" font-size="20" font-style="italic" lengthAdjust="spacing" textLength="136" x="51" y="289.6563">«Value Object»</text><text fill="#000000" font-family="sans-serif" font-size="20" lengthAdjust="spacing" textLength="98" x="70" y="314.8125">VatNumber</text><line style="stroke:#181818;stroke-width:0.5;" x1="23" x2="187" y1="324.207" y2="324.207"/><line style="stroke:#181818;stroke-width:0.5;" x1="23" x2="187" y1="332.207" y2="332.207"/></g><!--class CustomerStatus--><g id="elem_CustomerStatus"><rect codeLine="15" fill="#F1F1F1" height="76.3125" id="CustomerStatus" rx="2.5" ry="2.5" style="stroke:#181818;stroke-width:0.5;" width="175" x="223.5" y="263.8945"/><ellipse cx="239.5" cy="294.0508" fill="#EB937F" rx="12" ry="12" style="stroke:#181818;stroke-width:1.0;"/><path d="M237.4531,295.1133 L237.4531,298.0508 L242.5469,298.0508 L242.5469,296.957 Q242.5469,296.2383 242.8281,295.9414 Q243.1094,295.6289 243.5625,295.6289 Q244,295.6289 244.2813,295.9414 Q244.5625,296.2383 244.5625,296.957 L244.5625,300.0508 L235.125,300.0508 Q234.4063,300.0508 234.0938,299.7695 Q233.7969,299.4883 233.7969,299.0508 Q233.7969,298.5977 234.1094,298.332 Q234.4219,298.0508 235.125,298.0508 L235.4375,298.0508 L235.4375,290.2227 L235.125,290.2227 Q234.4063,290.2227 234.0938,289.9414 Q233.7969,289.6602 233.7969,289.207 Q233.7969,288.7539 234.0938,288.4883 Q234.4063,288.207 235.125,288.207 L244.1094,288.207 L244.1094,291.2539 Q244.1094,291.9727 243.8281,292.2852 Q243.5625,292.582 243.125,292.582 Q242.6719,292.582 242.3906,292.2852 Q242.1094,291.9883 242.1094,291.2539 L242.1094,290.2227 L237.4531,290.2227 L237.4531,293.1133 L239.2031,293.1133 Q239.2031,292.332 239.3438,292.0977 Q239.6563,291.6289 240.2031,291.6289 Q240.6563,291.6289 240.9219,291.9414 Q241.2031,292.2383 241.2031,292.957 L241.2031,295.2695 Q241.2031,295.9258 241.0469,296.1445 Q240.7344,296.5977 240.2031,296.5977 Q239.6563,296.5977 239.3438,296.1289 Q239.2031,295.8945 239.2031,295.1133 L237.4531,295.1133 Z " fill="#000000"/><text fill="#000000" font-family="sans-serif" font-size="20" font-style="italic" lengthAdjust="spacing" textLength="136" x="257" y="289.6563">«Value Object»</text><text fill="#000000" font-family="sans-serif" font-size="20" lengthAdjust="spacing" textLength="141" x="254.5" y="314.8125">CustomerStatus</text><line style="stroke:#181818;stroke-width:0.5;" x1="224.5" x2="397.5" y1="324.207" y2="324.207"/><line style="stroke:#181818;stroke-width:0.5;" x1="224.5" x2="397.5" y1="332.207" y2="332.207"/></g><!--class CustomerType--><g id="elem_CustomerType"><rect codeLine="18" fill="#F1F1F1" height="76.3125" id="CustomerType" rx="2.5" ry="2.5" style="stroke:#181818;stroke-width:0.5;" width="166" x="434" y="263.8945"/><ellipse cx="450" cy="294.0508" fill="#EB937F" rx="12" ry="12" style="stroke:#181818;stroke-width:1.0;"/><path d="M447.9531,295.1133 L447.9531,298.0508 L453.0469,298.0508 L453.0469,296.957 Q453.0469,296.2383 453.3281,295.9414 Q453.6094,295.6289 454.0625,295.6289 Q454.5,295.6289 454.7813,295.9414 Q455.0625,296.2383 455.0625,296.957 L455.0625,300.0508 L445.625,300.0508 Q444.9063,300.0508 444.5938,299.7695 Q444.2969,299.4883 444.2969,299.0508 Q444.2969,298.5977 444.6094,298.332 Q444.9219,298.0508 445.625,298.0508 L445.9375,298.0508 L445.9375,290.2227 L445.625,290.2227 Q444.9063,290.2227 444.5938,289.9414 Q444.2969,289.6602 444.2969,289.207 Q444.2969,288.7539 444.5938,288.4883 Q444.9063,288.207 445.625,288.207 L454.6094,288.207 L454.6094,291.2539 Q454.6094,291.9727 454.3281,292.2852 Q454.0625,292.582 453.625,292.582 Q453.1719,292.582 452.8906,292.2852 Q452.6094,291.9883 452.6094,291.2539 L452.6094,290.2227 L447.9531,290.2227 L447.9531,293.1133 L449.7031,293.1133 Q449.7031,292.332 449.8438,292.0977 Q450.1563,291.6289 450.7031,291.6289 Q451.1563,291.6289 451.4219,291.9414 Q451.7031,292.2383 451.7031,292.957 L451.7031,295.2695 Q451.7031,295.9258 451.5469,296.1445 Q451.2344,296.5977 450.7031,296.5977 Q450.1563,296.5977 449.8438,296.1289 Q449.7031,295.8945 449.7031,295.1133 L447.9531,295.1133 Z " fill="#000000"/><text fill="#000000" font-family="sans-serif" font-size="20" font-style="italic" lengthAdjust="spacing" textLength="136" x="463" y="289.6563">«Value Object»</text><text fill="#000000" font-family="sans-serif" font-size="20" lengthAdjust="spacing" textLength="129" x="466.5" y="314.8125">CustomerType</text><line style="stroke:#181818;stroke-width:0.5;" x1="435" x2="599" y1="324.207" y2="324.207"/><line style="stroke:#181818;stroke-width:0.5;" x1="435" x2="599" y1="332.207" y2="332.207"/></g><!--class Position--><g id="elem_Position"><rect codeLine="21" fill="#F1F1F1" height="76.3125" id="Position" rx="2.5" ry="2.5" style="stroke:#181818;stroke-width:0.5;" width="166" x="405" y="426.8945"/><ellipse cx="421" cy="457.0508" fill="#ADD1B2" rx="12" ry="12" style="stroke:#181818;stroke-width:1.0;"/><path d="M423.1406,451.9727 Q423.3281,451.7227 423.5469,451.5977 Q423.7656,451.457 424.0156,451.457 Q424.4531,451.457 424.7344,451.7695 Q425.0156,452.0664 425.0156,452.7852 L425.0156,454.4883 Q425.0156,455.207 424.7344,455.5195 Q424.4531,455.832 424.0156,455.832 Q423.625,455.832 423.375,455.5977 Q423.125,455.3789 423.0156,454.7695 Q422.9531,454.3477 422.7344,454.1289 Q422.3438,453.6914 421.625,453.4258 Q420.9063,453.1602 420.1875,453.1602 Q419.2813,453.1602 418.5313,453.5508 Q417.7813,453.9414 417.2031,454.832 Q416.625,455.707 416.625,456.9102 L416.625,458.207 Q416.625,459.6602 417.6719,460.6289 Q418.7344,461.5977 420.5938,461.5977 Q421.7031,461.5977 422.4844,461.2852 Q422.9219,461.1133 423.4375,460.5977 Q423.75,460.2852 423.9219,460.1914 Q424.0938,460.0977 424.3281,460.0977 Q424.7188,460.0977 425.0156,460.4102 Q425.3281,460.707 425.3281,461.1133 Q425.3281,461.5195 424.9219,461.9883 Q424.3281,462.6758 423.3906,463.0664 Q422.125,463.5977 420.6094,463.5977 Q418.8281,463.5977 417.4063,462.8633 Q416.25,462.2695 415.4375,461.0039 Q414.625,459.7383 414.625,458.2539 L414.625,456.8945 Q414.625,455.332 415.3438,453.9883 Q416.0781,452.6289 417.3594,451.8945 Q418.6563,451.1602 420.1094,451.1602 Q420.9688,451.1602 421.7188,451.3633 Q422.4844,451.5664 423.1406,451.9727 Z " fill="#000000"/><text fill="#000000" font-family="sans-serif" font-size="20" font-style="italic" lengthAdjust="spacing" textLength="136" x="434" y="452.6563">«Value Object»</text><text fill="#000000" font-family="sans-serif" font-size="20" lengthAdjust="spacing" textLength="69" x="467.5" y="477.8125">Position</text><line style="stroke:#181818;stroke-width:0.5;" x1="406" x2="570" y1="487.207" y2="487.207"/><line style="stroke:#181818;stroke-width:0.5;" x1="406" x2="570" y1="495.207" y2="495.207"/></g><!--class Name--><g id="elem_Name"><rect codeLine="38" fill="#F1F1F1" height="76.3125" id="Name" rx="2.5" ry="2.5" style="stroke:#181818;stroke-width:0.5;" width="166" x="919" y="595.8945"/><ellipse cx="935" cy="626.0508" fill="#ADD1B2" rx="12" ry="12" style="stroke:#181818;stroke-width:1.0;"/><path d="M937.1406,620.9727 Q937.3281,620.7227 937.5469,620.5977 Q937.7656,620.457 938.0156,620.457 Q938.4531,620.457 938.7344,620.7695 Q939.0156,621.0664 939.0156,621.7852 L939.0156,623.4883 Q939.0156,624.207 938.7344,624.5195 Q938.4531,624.832 938.0156,624.832 Q937.625,624.832 937.375,624.5977 Q937.125,624.3789 937.0156,623.7695 Q936.9531,623.3477 936.7344,623.1289 Q936.3438,622.6914 935.625,622.4258 Q934.9063,622.1602 934.1875,622.1602 Q933.2813,622.1602 932.5313,622.5508 Q931.7813,622.9414 931.2031,623.832 Q930.625,624.707 930.625,625.9102 L930.625,627.207 Q930.625,628.6602 931.6719,629.6289 Q932.7344,630.5977 934.5938,630.5977 Q935.7031,630.5977 936.4844,630.2852 Q936.9219,630.1133 937.4375,629.5977 Q937.75,629.2852 937.9219,629.1914 Q938.0938,629.0977 938.3281,629.0977 Q938.7188,629.0977 939.0156,629.4102 Q939.3281,629.707 939.3281,630.1133 Q939.3281,630.5195 938.9219,630.9883 Q938.3281,631.6758 937.3906,632.0664 Q936.125,632.5977 934.6094,632.5977 Q932.8281,632.5977 931.4063,631.8633 Q930.25,631.2695 929.4375,630.0039 Q928.625,628.7383 928.625,627.2539 L928.625,625.8945 Q928.625,624.332 929.3438,622.9883 Q930.0781,621.6289 931.3594,620.8945 Q932.6563,620.1602 934.1094,620.1602 Q934.9688,620.1602 935.7188,620.3633 Q936.4844,620.5664 937.1406,620.9727 Z " fill="#000000"/><text fill="#000000" font-family="sans-serif" font-size="20" font-style="italic" lengthAdjust="spacing" textLength="136" x="948" y="621.6563">«Value Object»</text><text fill="#000000" font-family="sans-serif" font-size="20" lengthAdjust="spacing" textLength="51" x="990.5" y="646.8125">Name</text><line style="stroke:#181818;stroke-width:0.5;" x1="920" x2="1084" y1="656.207" y2="656.207"/><line style="stroke:#181818;stroke-width:0.5;" x1="920" x2="1084" y1="664.207" y2="664.207"/></g><!--class Email--><g id="elem_Email"><rect codeLine="41" fill="#F1F1F1" height="76.3125" id="Email" rx="2.5" ry="2.5" style="stroke:#181818;stroke-width:0.5;" width="166" x="517" y="595.8945"/><ellipse cx="533" cy="626.0508" fill="#ADD1B2" rx="12" ry="12" style="stroke:#181818;stroke-width:1.0;"/><path d="M535.1406,620.9727 Q535.3281,620.7227 535.5469,620.5977 Q535.7656,620.457 536.0156,620.457 Q536.4531,620.457 536.7344,620.7695 Q537.0156,621.0664 537.0156,621.7852 L537.0156,623.4883 Q537.0156,624.207 536.7344,624.5195 Q536.4531,624.832 536.0156,624.832 Q535.625,624.832 535.375,624.5977 Q535.125,624.3789 535.0156,623.7695 Q534.9531,623.3477 534.7344,623.1289 Q534.3438,622.6914 533.625,622.4258 Q532.9063,622.1602 532.1875,622.1602 Q531.2813,622.1602 530.5313,622.5508 Q529.7813,622.9414 529.2031,623.832 Q528.625,624.707 528.625,625.9102 L528.625,627.207 Q528.625,628.6602 529.6719,629.6289 Q530.7344,630.5977 532.5938,630.5977 Q533.7031,630.5977 534.4844,630.2852 Q534.9219,630.1133 535.4375,629.5977 Q535.75,629.2852 535.9219,629.1914 Q536.0938,629.0977 536.3281,629.0977 Q536.7188,629.0977 537.0156,629.4102 Q537.3281,629.707 537.3281,630.1133 Q537.3281,630.5195 536.9219,630.9883 Q536.3281,631.6758 535.3906,632.0664 Q534.125,632.5977 532.6094,632.5977 Q530.8281,632.5977 529.4063,631.8633 Q528.25,631.2695 527.4375,630.0039 Q526.625,628.7383 526.625,627.2539 L526.625,625.8945 Q526.625,624.332 527.3438,622.9883 Q528.0781,621.6289 529.3594,620.8945 Q530.6563,620.1602 532.1094,620.1602 Q532.9688,620.1602 533.7188,620.3633 Q534.4844,620.5664 535.1406,620.9727 Z " fill="#000000"/><text fill="#000000" font-family="sans-serif" font-size="20" font-style="italic" lengthAdjust="spacing" textLength="136" x="546" y="621.6563">«Value Object»</text><text fill="#000000" font-family="sans-serif" font-size="20" lengthAdjust="spacing" textLength="48" x="590" y="646.8125">Email</text><line style="stroke:#181818;stroke-width:0.5;" x1="518" x2="682" y1="656.207" y2="656.207"/><line style="stroke:#181818;stroke-width:0.5;" x1="518" x2="682" y1="664.207" y2="664.207"/></g><!--class PhoneNumber--><g id="elem_PhoneNumber"><rect codeLine="44" fill="#F1F1F1" height="76.3125" id="PhoneNumber" rx="2.5" ry="2.5" style="stroke:#181818;stroke-width:0.5;" width="166" x="718" y="595.8945"/><ellipse cx="734" cy="626.0508" fill="#ADD1B2" rx="12" ry="12" style="stroke:#181818;stroke-width:1.0;"/><path d="M736.1406,620.9727 Q736.3281,620.7227 736.5469,620.5977 Q736.7656,620.457 737.0156,620.457 Q737.4531,620.457 737.7344,620.7695 Q738.0156,621.0664 738.0156,621.7852 L738.0156,623.4883 Q738.0156,624.207 737.7344,624.5195 Q737.4531,624.832 737.0156,624.832 Q736.625,624.832 736.375,624.5977 Q736.125,624.3789 736.0156,623.7695 Q735.9531,623.3477 735.7344,623.1289 Q735.3438,622.6914 734.625,622.4258 Q733.9063,622.1602 733.1875,622.1602 Q732.2813,622.1602 731.5313,622.5508 Q730.7813,622.9414 730.2031,623.832 Q729.625,624.707 729.625,625.9102 L729.625,627.207 Q729.625,628.6602 730.6719,629.6289 Q731.7344,630.5977 733.5938,630.5977 Q734.7031,630.5977 735.4844,630.2852 Q735.9219,630.1133 736.4375,629.5977 Q736.75,629.2852 736.9219,629.1914 Q737.0938,629.0977 737.3281,629.0977 Q737.7188,629.0977 738.0156,629.4102 Q738.3281,629.707 738.3281,630.1133 Q738.3281,630.5195 737.9219,630.9883 Q737.3281,631.6758 736.3906,632.0664 Q735.125,632.5977 733.6094,632.5977 Q731.8281,632.5977 730.4063,631.8633 Q729.25,631.2695 728.4375,630.0039 Q727.625,628.7383 727.625,627.2539 L727.625,625.8945 Q727.625,624.332 728.3438,622.9883 Q729.0781,621.6289 730.3594,620.8945 Q731.6563,620.1602 733.1094,620.1602 Q733.9688,620.1602 734.7188,620.3633 Q735.4844,620.5664 736.1406,620.9727 Z " fill="#000000"/><text fill="#000000" font-family="sans-serif" font-size="20" font-style="italic" lengthAdjust="spacing" textLength="136" x="747" y="621.6563">«Value Object»</text><text fill="#000000" font-family="sans-serif" font-size="20" lengthAdjust="spacing" textLength="123" x="753.5" y="646.8125">PhoneNumber</text><line style="stroke:#181818;stroke-width:0.5;" x1="719" x2="883" y1="656.207" y2="656.207"/><line style="stroke:#181818;stroke-width:0.5;" x1="719" x2="883" y1="664.207" y2="664.207"/></g><!--link Customer to Representative--><g id="link_Customer_Representative"><path codeLine="25" d="M635.24,177.1145 C652.71,203.2345 673.86,234.8845 690.41,259.6345 " fill="none" id="Customer-to-Representative" style="stroke:#181818;stroke-width:1.0;"/><polygon fill="#181818" points="693.24,263.8545,691.5528,254.1513,690.4566,259.7009,684.907,258.6047,693.24,263.8545" style="stroke:#181818;stroke-width:1.0;"/><text fill="#000000" font-family="sans-serif" font-size="20" lengthAdjust="spacing" textLength="133" x="671" y="228.6563">represented by</text><text fill="#000000" font-family="sans-serif" font-size="20" lengthAdjust="spacing" textLength="31" x="655.8236" y="251.549">1..*</text></g><!--link Customer to VatNumber--><g id="link_Customer_VatNumber"><path codeLine="26" d="M542.17,147.6145 C464.51,173.9545 324.88,221.6345 206,263.8945 C201.74,265.4145 197.37,266.9745 192.97,268.5545 " fill="none" id="Customer-to-VatNumber" style="stroke:#181818;stroke-width:1.0;"/><polygon fill="#181818" points="188.18,270.2745,198.0032,270.9843,192.8835,268.5784,195.2895,263.4587,188.18,270.2745" style="stroke:#181818;stroke-width:1.0;"/><text fill="#000000" font-family="sans-serif" font-size="20" lengthAdjust="spacing" textLength="26" x="369" y="228.6563">vat</text><text fill="#000000" font-family="sans-serif" font-size="20" lengthAdjust="spacing" textLength="11" x="196.0781" y="262.0999">1</text></g><!--link Customer to Address--><g id="link_Customer_Address"><path codeLine="27" d="M661.95,143.5645 C705.69,156.8545 765.41,178.1745 813,206.8945 C837.28,221.5445 861.2,242.0745 880.15,260.2045 " fill="none" id="Customer-to-Address" style="stroke:#181818;stroke-width:1.0;"/><polygon fill="#181818" points="883.87,263.7945,880.1679,254.6679,880.2708,260.3239,874.6149,260.4267,883.87,263.7945" style="stroke:#181818;stroke-width:1.0;"/><text fill="#000000" font-family="sans-serif" font-size="20" lengthAdjust="spacing" textLength="71" x="848" y="228.6563">address</text><text fill="#000000" font-family="sans-serif" font-size="20" lengthAdjust="spacing" textLength="11" x="866.3946" y="251.4794">1</text></g><!--link Customer to CustomerStatus--><g id="link_Customer_CustomerStatus"><path codeLine="28" d="M542.41,162.9245 C494.55,191.4545 427.37,231.5145 377.72,261.1145 " fill="none" id="Customer-to-CustomerStatus" style="stroke:#181818;stroke-width:1.0;"/><polygon fill="#181818" points="373.27,263.7645,383.0483,262.588,377.5638,261.2026,378.9492,255.718,373.27,263.7645" style="stroke:#181818;stroke-width:1.0;"/><text fill="#000000" font-family="sans-serif" font-size="20" lengthAdjust="spacing" textLength="53" x="466" y="228.6563">status</text><text fill="#000000" font-family="sans-serif" font-size="20" lengthAdjust="spacing" textLength="11" x="371.3177" y="251.4446">1</text></g><!--link Customer to CustomerType--><g id="link_Customer_CustomerType"><path codeLine="29" d="M577.64,177.1145 C564.9,203.1345 549.47,234.6145 537.37,259.3245 " fill="none" id="Customer-to-CustomerType" style="stroke:#181818;stroke-width:1.0;"/><polygon fill="#181818" points="535.15,263.8545,542.6964,257.5259,537.3461,259.3626,535.5094,254.0122,535.15,263.8545" style="stroke:#181818;stroke-width:1.0;"/><text fill="#000000" font-family="sans-serif" font-size="20" lengthAdjust="spacing" textLength="38" x="563" y="228.6563">type</text><text fill="#000000" font-family="sans-serif" font-size="20" lengthAdjust="spacing" textLength="11" x="526.1661" y="251.549">1</text></g><!--link Representative to Position--><g id="link_Representative_Position"><path codeLine="32" d="M634.95,333.9345 C592.94,349.8645 549.94,366.6145 546,369.8945 C529.16,383.9245 515.79,404.1745 506.16,422.2845 " fill="none" id="Representative-to-Position" style="stroke:#181818;stroke-width:1.0;"/><polygon fill="#181818" points="503.79,426.8345,511.4798,420.681,506.0887,422.3942,504.3754,417.0031,503.79,426.8345" style="stroke:#181818;stroke-width:1.0;"/><text fill="#000000" font-family="sans-serif" font-size="20" lengthAdjust="spacing" textLength="67" x="547" y="391.6563">position</text><text fill="#000000" font-family="sans-serif" font-size="20" lengthAdjust="spacing" textLength="11" x="494.43" y="414.5258">1</text></g><!--link Customer to Name--><g id="link_Customer_Name"><path codeLine="48" d="M661.77,136.9945 C768.45,155.6145 983.9,200.4445 1020,263.8945 C1079.62,368.6945 1041.97,518.5545 1017.76,590.7945 " fill="none" id="Customer-to-Name" style="stroke:#181818;stroke-width:1.0;"/><polygon fill="#181818" points="1016.04,595.8545,1022.7266,588.6234,1017.651,591.1212,1015.1532,586.0457,1016.04,595.8545" style="stroke:#181818;stroke-width:1.0;"/><text fill="#000000" font-family="sans-serif" font-size="20" lengthAdjust="spacing" textLength="48" x="1052" y="391.6563">name</text><text fill="#000000" font-family="sans-serif" font-size="20" lengthAdjust="spacing" textLength="11" x="1006.4011" y="583.549">1</text></g><!--link Representative to Name--><g id="link_Representative_Name"><path codeLine="51" d="M792.99,339.9545 C830.36,361.3345 874.05,391.0845 905,426.8945 C947.27,475.8045 975.12,546.2945 989.72,590.8345 " fill="none" id="Representative-to-Name" style="stroke:#181818;stroke-width:1.0;"/><polygon fill="#181818" points="991.27,595.5945,992.2983,585.7995,989.7275,590.8384,984.6886,588.2675,991.27,595.5945" style="stroke:#181818;stroke-width:1.0;"/><text fill="#000000" font-family="sans-serif" font-size="20" lengthAdjust="spacing" textLength="48" x="966" y="473.1563">name</text><text fill="#000000" font-family="sans-serif" font-size="20" lengthAdjust="spacing" textLength="11" x="977.7848" y="583.5655">1</text></g><!--link Representative to Email--><g id="link_Representative_Email"><path codeLine="52" d="M704.69,340.1045 C682.55,402.0445 638.27,525.8645 615.03,590.8545 " fill="none" id="Representative-to-Email" style="stroke:#181818;stroke-width:1.0;"/><polygon fill="#181818" points="613.26,595.8145,620.0567,588.6868,614.9435,591.1065,612.5238,585.9932,613.26,595.8145" style="stroke:#181818;stroke-width:1.0;"/><text fill="#000000" font-family="sans-serif" font-size="20" lengthAdjust="spacing" textLength="46" x="674" y="473.1563">email</text><text fill="#000000" font-family="sans-serif" font-size="20" lengthAdjust="spacing" textLength="11" x="603.4968" y="583.5026">1</text></g><!--link Representative to PhoneNumber--><g id="link_Representative_PhoneNumber"><path codeLine="53" d="M727.36,340.1045 C742.94,402.0445 774.08,525.8645 790.43,590.8545 " fill="none" id="Representative-to-PhoneNumber" style="stroke:#181818;stroke-width:1.0;"/><polygon fill="#181818" points="791.67,595.8145,793.361,586.1119,790.454,590.9647,785.6012,588.0576,791.67,595.8145" style="stroke:#181818;stroke-width:1.0;"/><text fill="#000000" font-family="sans-serif" font-size="20" lengthAdjust="spacing" textLength="121" x="775" y="473.1563">phoneNumber</text><text fill="#000000" font-family="sans-serif" font-size="20" lengthAdjust="spacing" textLength="11" x="778.3065" y="583.5026">1</text></g><!--SRC=[dPB1QeD048RlFiNWfL0mj3qk8fII7jFIbDmdEZNRwAxiZg4svDsxLMEiY9XwcTtnds7-RzRkfIhGO9xfU4y99FI1PSRFMl5QVXCyt7bUWV4UKmB_gRIiSpBWGnXYcXfAaIcAuEY1- -8ChOLE58PBnP8hzpyCZTOSHOtkvFNaRrGOigGOMHweLpIYVKmIfxLEjC6i97ZPVb8ytdQ3l2hpRJt6X9XKcNSJhzqCfRsYuBqgQCumhzfAbbfDQsywSa44NtMgoq3WSlxzOd7h3ua9CEU4sz-s-blOrFaz7W8EoEEYCry1s9p6PGDU0cnzc1RNh0Im2wtTWO_Ez33VDkeW2YZQe-UTBgzplKFZ01pxu5UOprhGCaUPpThaJYkQyx2cbXa4Pq_rV0AK2_-3qcym8Mly2Q3VE0cvvyznljmSwHy0]--></g></svg>