<?xml version="1.0" encoding="UTF-8" standalone="no"?><svg xmlns="http://www.w3.org/2000/svg" xmlns:xlink="http://www.w3.org/1999/xlink" contentStyleType="text/css" height="939px" preserveAspectRatio="none" style="width:2019px;height:939px;background:#FFFFFF;" version="1.1" viewBox="0 0 2019 939" width="2019px" zoomAndPan="magnify"><defs/><g><!--cluster Drone --><g id="cluster_Drone "><path d="M8.5,6.8945 L72.5,6.8945 A3.75,3.75 0 0 1 75,9.3945 L82,38.0508 L823.5,38.0508 A2.5,2.5 0 0 1 826,40.5508 L826,420.8945 A2.5,2.5 0 0 1 823.5,423.3945 L8.5,423.3945 A2.5,2.5 0 0 1 6,420.8945 L6,9.3945 A2.5,2.5 0 0 1 8.5,6.8945 " fill="none" style="stroke:#000000;stroke-width:1.5;"/><line style="stroke:#000000;stroke-width:1.5;" x1="6" x2="82" y1="38.0508" y2="38.0508"/><text fill="#000000" font-family="sans-serif" font-size="20" font-weight="bold" lengthAdjust="spacing" textLength="57" x="10" y="29.6563">Drone</text><text fill="#000000" font-family="sans-serif" font-size="20" font-style="italic" lengthAdjust="spacing" textLength="111" x="364.5" y="60.8125">«aggregate»</text></g><!--cluster ModelOfDrone --><g id="cluster_ModelOfDrone "><path d="M852.5,249.8945 L996.5,249.8945 A3.75,3.75 0 0 1 999,252.3945 L1006,281.0508 L1471.5,281.0508 A2.5,2.5 0 0 1 1474,283.5508 L1474,761.3945 A2.5,2.5 0 0 1 1471.5,763.8945 L852.5,763.8945 A2.5,2.5 0 0 1 850,761.3945 L850,252.3945 A2.5,2.5 0 0 1 852.5,249.8945 " fill="none" style="stroke:#000000;stroke-width:1.5;"/><line style="stroke:#000000;stroke-width:1.5;" x1="850" x2="1006" y1="281.0508" y2="281.0508"/><text fill="#000000" font-family="sans-serif" font-size="20" font-weight="bold" lengthAdjust="spacing" textLength="137" x="854" y="272.6563">ModelOfDrone</text><text fill="#000000" font-family="sans-serif" font-size="20" font-style="italic" lengthAdjust="spacing" textLength="111" x="1110.5" y="303.8125">«aggregate»</text></g><!--cluster Maintenance --><g id="cluster_Maintenance "><path d="M1696.5,249.8945 L1823.5,249.8945 A3.75,3.75 0 0 1 1826,252.3945 L1833,281.0508 L1913.5,281.0508 A2.5,2.5 0 0 1 1916,283.5508 L1916,596.3945 A2.5,2.5 0 0 1 1913.5,598.8945 L1696.5,598.8945 A2.5,2.5 0 0 1 1694,596.3945 L1694,252.3945 A2.5,2.5 0 0 1 1696.5,249.8945 " fill="none" style="stroke:#000000;stroke-width:1.5;"/><line style="stroke:#000000;stroke-width:1.5;" x1="1694" x2="1833" y1="281.0508" y2="281.0508"/><text fill="#000000" font-family="sans-serif" font-size="20" font-weight="bold" lengthAdjust="spacing" textLength="120" x="1698" y="272.6563">Maintenance</text><text fill="#000000" font-family="sans-serif" font-size="20" font-style="italic" lengthAdjust="spacing" textLength="111" x="1753.5" y="303.8125">«aggregate»</text></g><!--cluster Shared--><g id="cluster_Shared"><path d="M1414.5,796.8945 L1482.5,796.8945 A3.75,3.75 0 0 1 1485,799.3945 L1492,828.0508 L2009.5,828.0508 A2.5,2.5 0 0 1 2012,830.5508 L2012,930.3945 A2.5,2.5 0 0 1 2009.5,932.8945 L1414.5,932.8945 A2.5,2.5 0 0 1 1412,930.3945 L1412,799.3945 A2.5,2.5 0 0 1 1414.5,796.8945 " fill="none" style="stroke:#000000;stroke-width:1.5;"/><line style="stroke:#000000;stroke-width:1.5;" x1="1412" x2="1492" y1="828.0508" y2="828.0508"/><text fill="#000000" font-family="sans-serif" font-size="20" font-weight="bold" lengthAdjust="spacing" textLength="67" x="1416" y="819.6563">Shared</text></g><!--class Drone--><g id="elem_Drone"><rect codeLine="4" fill="#F1F1F1" height="101.4688" id="Drone" rx="2.5" ry="2.5" style="stroke:#181818;stroke-width:0.5;" width="101" x="594.5" y="75.8945"/><ellipse cx="610.5" cy="118.6289" fill="#ADD1B2" rx="12" ry="12" style="stroke:#181818;stroke-width:1.0;"/><path d="M612.6406,113.5508 Q612.8281,113.3008 613.0469,113.1758 Q613.2656,113.0352 613.5156,113.0352 Q613.9531,113.0352 614.2344,113.3477 Q614.5156,113.6445 614.5156,114.3633 L614.5156,116.0664 Q614.5156,116.7852 614.2344,117.0977 Q613.9531,117.4102 613.5156,117.4102 Q613.125,117.4102 612.875,117.1758 Q612.625,116.957 612.5156,116.3477 Q612.4531,115.9258 612.2344,115.707 Q611.8438,115.2695 611.125,115.0039 Q610.4063,114.7383 609.6875,114.7383 Q608.7813,114.7383 608.0313,115.1289 Q607.2813,115.5195 606.7031,116.4102 Q606.125,117.2852 606.125,118.4883 L606.125,119.7852 Q606.125,121.2383 607.1719,122.207 Q608.2344,123.1758 610.0938,123.1758 Q611.2031,123.1758 611.9844,122.8633 Q612.4219,122.6914 612.9375,122.1758 Q613.25,121.8633 613.4219,121.7695 Q613.5938,121.6758 613.8281,121.6758 Q614.2188,121.6758 614.5156,121.9883 Q614.8281,122.2852 614.8281,122.6914 Q614.8281,123.0977 614.4219,123.5664 Q613.8281,124.2539 612.8906,124.6445 Q611.625,125.1758 610.1094,125.1758 Q608.3281,125.1758 606.9063,124.4414 Q605.75,123.8477 604.9375,122.582 Q604.125,121.3164 604.125,119.832 L604.125,118.4727 Q604.125,116.9102 604.8438,115.5664 Q605.5781,114.207 606.8594,113.4727 Q608.1563,112.7383 609.6094,112.7383 Q610.4688,112.7383 611.2188,112.9414 Q611.9844,113.1445 612.6406,113.5508 Z " fill="#000000"/><text fill="#000000" font-family="sans-serif" font-size="20" font-style="italic" lengthAdjust="spacing" textLength="71" x="623.5" y="101.6563">«Entity»</text><text fill="#000000" font-family="sans-serif" font-size="20" font-style="italic" lengthAdjust="spacing" textLength="56" x="631" y="126.8125">«root»</text><text fill="#000000" font-family="sans-serif" font-size="20" lengthAdjust="spacing" textLength="53" x="632.5" y="151.9688">Drone</text><line style="stroke:#181818;stroke-width:0.5;" x1="595.5" x2="694.5" y1="161.3633" y2="161.3633"/><line style="stroke:#181818;stroke-width:0.5;" x1="595.5" x2="694.5" y1="169.3633" y2="169.3633"/></g><!--class SerialNumber--><g id="elem_SerialNumber"><rect codeLine="7" fill="#F1F1F1" height="76.3125" id="SerialNumber" rx="2.5" ry="2.5" style="stroke:#181818;stroke-width:0.5;" width="166" x="443" y="331.3945"/><ellipse cx="459" cy="361.5508" fill="#ADD1B2" rx="12" ry="12" style="stroke:#181818;stroke-width:1.0;"/><path d="M461.1406,356.4727 Q461.3281,356.2227 461.5469,356.0977 Q461.7656,355.957 462.0156,355.957 Q462.4531,355.957 462.7344,356.2695 Q463.0156,356.5664 463.0156,357.2852 L463.0156,358.9883 Q463.0156,359.707 462.7344,360.0195 Q462.4531,360.332 462.0156,360.332 Q461.625,360.332 461.375,360.0977 Q461.125,359.8789 461.0156,359.2695 Q460.9531,358.8477 460.7344,358.6289 Q460.3438,358.1914 459.625,357.9258 Q458.9063,357.6602 458.1875,357.6602 Q457.2813,357.6602 456.5313,358.0508 Q455.7813,358.4414 455.2031,359.332 Q454.625,360.207 454.625,361.4102 L454.625,362.707 Q454.625,364.1602 455.6719,365.1289 Q456.7344,366.0977 458.5938,366.0977 Q459.7031,366.0977 460.4844,365.7852 Q460.9219,365.6133 461.4375,365.0977 Q461.75,364.7852 461.9219,364.6914 Q462.0938,364.5977 462.3281,364.5977 Q462.7188,364.5977 463.0156,364.9102 Q463.3281,365.207 463.3281,365.6133 Q463.3281,366.0195 462.9219,366.4883 Q462.3281,367.1758 461.3906,367.5664 Q460.125,368.0977 458.6094,368.0977 Q456.8281,368.0977 455.4063,367.3633 Q454.25,366.7695 453.4375,365.5039 Q452.625,364.2383 452.625,362.7539 L452.625,361.3945 Q452.625,359.832 453.3438,358.4883 Q454.0781,357.1289 455.3594,356.3945 Q456.6563,355.6602 458.1094,355.6602 Q458.9688,355.6602 459.7188,355.8633 Q460.4844,356.0664 461.1406,356.4727 Z " fill="#000000"/><text fill="#000000" font-family="sans-serif" font-size="20" font-style="italic" lengthAdjust="spacing" textLength="136" x="472" y="357.1563">«Value Object»</text><text fill="#000000" font-family="sans-serif" font-size="20" lengthAdjust="spacing" textLength="118" x="481" y="382.3125">SerialNumber</text><line style="stroke:#181818;stroke-width:0.5;" x1="444" x2="608" y1="391.707" y2="391.707"/><line style="stroke:#181818;stroke-width:0.5;" x1="444" x2="608" y1="399.707" y2="399.707"/></g><!--class DroneStatus--><g id="elem_DroneStatus"><rect codeLine="10" fill="#F1F1F1" height="76.3125" id="DroneStatus" rx="2.5" ry="2.5" style="stroke:#181818;stroke-width:0.5;" width="166" x="644" y="331.3945"/><ellipse cx="660" cy="361.5508" fill="#EB937F" rx="12" ry="12" style="stroke:#181818;stroke-width:1.0;"/><path d="M657.9531,362.6133 L657.9531,365.5508 L663.0469,365.5508 L663.0469,364.457 Q663.0469,363.7383 663.3281,363.4414 Q663.6094,363.1289 664.0625,363.1289 Q664.5,363.1289 664.7813,363.4414 Q665.0625,363.7383 665.0625,364.457 L665.0625,367.5508 L655.625,367.5508 Q654.9063,367.5508 654.5938,367.2695 Q654.2969,366.9883 654.2969,366.5508 Q654.2969,366.0977 654.6094,365.832 Q654.9219,365.5508 655.625,365.5508 L655.9375,365.5508 L655.9375,357.7227 L655.625,357.7227 Q654.9063,357.7227 654.5938,357.4414 Q654.2969,357.1602 654.2969,356.707 Q654.2969,356.2539 654.5938,355.9883 Q654.9063,355.707 655.625,355.707 L664.6094,355.707 L664.6094,358.7539 Q664.6094,359.4727 664.3281,359.7852 Q664.0625,360.082 663.625,360.082 Q663.1719,360.082 662.8906,359.7852 Q662.6094,359.4883 662.6094,358.7539 L662.6094,357.7227 L657.9531,357.7227 L657.9531,360.6133 L659.7031,360.6133 Q659.7031,359.832 659.8438,359.5977 Q660.1563,359.1289 660.7031,359.1289 Q661.1563,359.1289 661.4219,359.4414 Q661.7031,359.7383 661.7031,360.457 L661.7031,362.7695 Q661.7031,363.4258 661.5469,363.6445 Q661.2344,364.0977 660.7031,364.0977 Q660.1563,364.0977 659.8438,363.6289 Q659.7031,363.3945 659.7031,362.6133 L657.9531,362.6133 Z " fill="#000000"/><text fill="#000000" font-family="sans-serif" font-size="20" font-style="italic" lengthAdjust="spacing" textLength="136" x="673" y="357.1563">«Value Object»</text><text fill="#000000" font-family="sans-serif" font-size="20" lengthAdjust="spacing" textLength="109" x="686.5" y="382.3125">DroneStatus</text><line style="stroke:#181818;stroke-width:0.5;" x1="645" x2="809" y1="391.707" y2="391.707"/><line style="stroke:#181818;stroke-width:0.5;" x1="645" x2="809" y1="399.707" y2="399.707"/></g><!--class RemovalReason--><g id="elem_RemovalReason"><rect codeLine="13" fill="#F1F1F1" height="76.3125" id="RemovalReason" rx="2.5" ry="2.5" style="stroke:#181818;stroke-width:0.5;" width="177" x="230.5" y="331.3945"/><ellipse cx="246.5" cy="361.5508" fill="#ADD1B2" rx="12" ry="12" style="stroke:#181818;stroke-width:1.0;"/><path d="M248.6406,356.4727 Q248.8281,356.2227 249.0469,356.0977 Q249.2656,355.957 249.5156,355.957 Q249.9531,355.957 250.2344,356.2695 Q250.5156,356.5664 250.5156,357.2852 L250.5156,358.9883 Q250.5156,359.707 250.2344,360.0195 Q249.9531,360.332 249.5156,360.332 Q249.125,360.332 248.875,360.0977 Q248.625,359.8789 248.5156,359.2695 Q248.4531,358.8477 248.2344,358.6289 Q247.8438,358.1914 247.125,357.9258 Q246.4063,357.6602 245.6875,357.6602 Q244.7813,357.6602 244.0313,358.0508 Q243.2813,358.4414 242.7031,359.332 Q242.125,360.207 242.125,361.4102 L242.125,362.707 Q242.125,364.1602 243.1719,365.1289 Q244.2344,366.0977 246.0938,366.0977 Q247.2031,366.0977 247.9844,365.7852 Q248.4219,365.6133 248.9375,365.0977 Q249.25,364.7852 249.4219,364.6914 Q249.5938,364.5977 249.8281,364.5977 Q250.2188,364.5977 250.5156,364.9102 Q250.8281,365.207 250.8281,365.6133 Q250.8281,366.0195 250.4219,366.4883 Q249.8281,367.1758 248.8906,367.5664 Q247.625,368.0977 246.1094,368.0977 Q244.3281,368.0977 242.9063,367.3633 Q241.75,366.7695 240.9375,365.5039 Q240.125,364.2383 240.125,362.7539 L240.125,361.3945 Q240.125,359.832 240.8438,358.4883 Q241.5781,357.1289 242.8594,356.3945 Q244.1563,355.6602 245.6094,355.6602 Q246.4688,355.6602 247.2188,355.8633 Q247.9844,356.0664 248.6406,356.4727 Z " fill="#000000"/><text fill="#000000" font-family="sans-serif" font-size="20" font-style="italic" lengthAdjust="spacing" textLength="136" x="265" y="357.1563">«Value Object»</text><text fill="#000000" font-family="sans-serif" font-size="20" lengthAdjust="spacing" textLength="143" x="261.5" y="382.3125">RemovalReason</text><line style="stroke:#181818;stroke-width:0.5;" x1="231.5" x2="406.5" y1="391.707" y2="391.707"/><line style="stroke:#181818;stroke-width:0.5;" x1="231.5" x2="406.5" y1="399.707" y2="399.707"/></g><!--class DroneLanguage--><g id="elem_DroneLanguage"><rect codeLine="16" fill="#F1F1F1" height="76.3125" id="DroneLanguage" rx="2.5" ry="2.5" style="stroke:#181818;stroke-width:0.5;" width="173" x="22.5" y="331.3945"/><ellipse cx="38.5" cy="361.5508" fill="#ADD1B2" rx="12" ry="12" style="stroke:#181818;stroke-width:1.0;"/><path d="M40.6406,356.4727 Q40.8281,356.2227 41.0469,356.0977 Q41.2656,355.957 41.5156,355.957 Q41.9531,355.957 42.2344,356.2695 Q42.5156,356.5664 42.5156,357.2852 L42.5156,358.9883 Q42.5156,359.707 42.2344,360.0195 Q41.9531,360.332 41.5156,360.332 Q41.125,360.332 40.875,360.0977 Q40.625,359.8789 40.5156,359.2695 Q40.4531,358.8477 40.2344,358.6289 Q39.8438,358.1914 39.125,357.9258 Q38.4063,357.6602 37.6875,357.6602 Q36.7813,357.6602 36.0313,358.0508 Q35.2813,358.4414 34.7031,359.332 Q34.125,360.207 34.125,361.4102 L34.125,362.707 Q34.125,364.1602 35.1719,365.1289 Q36.2344,366.0977 38.0938,366.0977 Q39.2031,366.0977 39.9844,365.7852 Q40.4219,365.6133 40.9375,365.0977 Q41.25,364.7852 41.4219,364.6914 Q41.5938,364.5977 41.8281,364.5977 Q42.2188,364.5977 42.5156,364.9102 Q42.8281,365.207 42.8281,365.6133 Q42.8281,366.0195 42.4219,366.4883 Q41.8281,367.1758 40.8906,367.5664 Q39.625,368.0977 38.1094,368.0977 Q36.3281,368.0977 34.9063,367.3633 Q33.75,366.7695 32.9375,365.5039 Q32.125,364.2383 32.125,362.7539 L32.125,361.3945 Q32.125,359.832 32.8438,358.4883 Q33.5781,357.1289 34.8594,356.3945 Q36.1563,355.6602 37.6094,355.6602 Q38.4688,355.6602 39.2188,355.8633 Q39.9844,356.0664 40.6406,356.4727 Z " fill="#000000"/><text fill="#000000" font-family="sans-serif" font-size="20" font-style="italic" lengthAdjust="spacing" textLength="136" x="55" y="357.1563">«Value Object»</text><text fill="#000000" font-family="sans-serif" font-size="20" lengthAdjust="spacing" textLength="139" x="53.5" y="382.3125">DroneLanguage</text><line style="stroke:#181818;stroke-width:0.5;" x1="23.5" x2="194.5" y1="391.707" y2="391.707"/><line style="stroke:#181818;stroke-width:0.5;" x1="23.5" x2="194.5" y1="399.707" y2="399.707"/></g><!--class DroneLanguageValidate--><g id="elem_DroneLanguageValidate"><rect codeLine="19" fill="#F1F1F1" height="76.3125" id="DroneLanguageValidate" rx="2.5" ry="2.5" style="stroke:#181818;stroke-width:0.5;" width="244" x="22" y="88.3945"/><ellipse cx="38" cy="118.5508" fill="#ADD1B2" rx="12" ry="12" style="stroke:#181818;stroke-width:1.0;"/><path d="M40.1406,113.4727 Q40.3281,113.2227 40.5469,113.0977 Q40.7656,112.957 41.0156,112.957 Q41.4531,112.957 41.7344,113.2695 Q42.0156,113.5664 42.0156,114.2852 L42.0156,115.9883 Q42.0156,116.707 41.7344,117.0195 Q41.4531,117.332 41.0156,117.332 Q40.625,117.332 40.375,117.0977 Q40.125,116.8789 40.0156,116.2695 Q39.9531,115.8477 39.7344,115.6289 Q39.3438,115.1914 38.625,114.9258 Q37.9063,114.6602 37.1875,114.6602 Q36.2813,114.6602 35.5313,115.0508 Q34.7813,115.4414 34.2031,116.332 Q33.625,117.207 33.625,118.4102 L33.625,119.707 Q33.625,121.1602 34.6719,122.1289 Q35.7344,123.0977 37.5938,123.0977 Q38.7031,123.0977 39.4844,122.7852 Q39.9219,122.6133 40.4375,122.0977 Q40.75,121.7852 40.9219,121.6914 Q41.0938,121.5977 41.3281,121.5977 Q41.7188,121.5977 42.0156,121.9102 Q42.3281,122.207 42.3281,122.6133 Q42.3281,123.0195 41.9219,123.4883 Q41.3281,124.1758 40.3906,124.5664 Q39.125,125.0977 37.6094,125.0977 Q35.8281,125.0977 34.4063,124.3633 Q33.25,123.7695 32.4375,122.5039 Q31.625,121.2383 31.625,119.7539 L31.625,118.3945 Q31.625,116.832 32.3438,115.4883 Q33.0781,114.1289 34.3594,113.3945 Q35.6563,112.6602 37.1094,112.6602 Q37.9688,112.6602 38.7188,112.8633 Q39.4844,113.0664 40.1406,113.4727 Z " fill="#000000"/><text fill="#000000" font-family="sans-serif" font-size="20" font-style="italic" lengthAdjust="spacing" textLength="89" x="113.5" y="114.1563">«Service»</text><text fill="#000000" font-family="sans-serif" font-size="20" lengthAdjust="spacing" textLength="210" x="53" y="139.3125">DroneLanguageValidate</text><line style="stroke:#181818;stroke-width:0.5;" x1="23" x2="265" y1="148.707" y2="148.707"/><line style="stroke:#181818;stroke-width:0.5;" x1="23" x2="265" y1="156.707" y2="156.707"/></g><!--class Model--><g id="elem_Model"><rect codeLine="34" fill="#F1F1F1" height="101.4688" id="Model" rx="2.5" ry="2.5" style="stroke:#181818;stroke-width:0.5;" width="101" x="1014.5" y="318.8945"/><ellipse cx="1030.5" cy="361.6289" fill="#ADD1B2" rx="12" ry="12" style="stroke:#181818;stroke-width:1.0;"/><path d="M1032.6406,356.5508 Q1032.8281,356.3008 1033.0469,356.1758 Q1033.2656,356.0352 1033.5156,356.0352 Q1033.9531,356.0352 1034.2344,356.3477 Q1034.5156,356.6445 1034.5156,357.3633 L1034.5156,359.0664 Q1034.5156,359.7852 1034.2344,360.0977 Q1033.9531,360.4102 1033.5156,360.4102 Q1033.125,360.4102 1032.875,360.1758 Q1032.625,359.957 1032.5156,359.3477 Q1032.4531,358.9258 1032.2344,358.707 Q1031.8438,358.2695 1031.125,358.0039 Q1030.4063,357.7383 1029.6875,357.7383 Q1028.7813,357.7383 1028.0313,358.1289 Q1027.2813,358.5195 1026.7031,359.4102 Q1026.125,360.2852 1026.125,361.4883 L1026.125,362.7852 Q1026.125,364.2383 1027.1719,365.207 Q1028.2344,366.1758 1030.0938,366.1758 Q1031.2031,366.1758 1031.9844,365.8633 Q1032.4219,365.6914 1032.9375,365.1758 Q1033.25,364.8633 1033.4219,364.7695 Q1033.5938,364.6758 1033.8281,364.6758 Q1034.2188,364.6758 1034.5156,364.9883 Q1034.8281,365.2852 1034.8281,365.6914 Q1034.8281,366.0977 1034.4219,366.5664 Q1033.8281,367.2539 1032.8906,367.6445 Q1031.625,368.1758 1030.1094,368.1758 Q1028.3281,368.1758 1026.9063,367.4414 Q1025.75,366.8477 1024.9375,365.582 Q1024.125,364.3164 1024.125,362.832 L1024.125,361.4727 Q1024.125,359.9102 1024.8438,358.5664 Q1025.5781,357.207 1026.8594,356.4727 Q1028.1563,355.7383 1029.6094,355.7383 Q1030.4688,355.7383 1031.2188,355.9414 Q1031.9844,356.1445 1032.6406,356.5508 Z " fill="#000000"/><text fill="#000000" font-family="sans-serif" font-size="20" font-style="italic" lengthAdjust="spacing" textLength="71" x="1043.5" y="344.6563">«Entity»</text><text fill="#000000" font-family="sans-serif" font-size="20" font-style="italic" lengthAdjust="spacing" textLength="56" x="1051" y="369.8125">«root»</text><text fill="#000000" font-family="sans-serif" font-size="20" lengthAdjust="spacing" textLength="54" x="1052" y="394.9688">Model</text><line style="stroke:#181818;stroke-width:0.5;" x1="1015.5" x2="1114.5" y1="404.3633" y2="404.3633"/><line style="stroke:#181818;stroke-width:0.5;" x1="1015.5" x2="1114.5" y1="412.3633" y2="412.3633"/></g><!--class ModelName--><g id="elem_ModelName"><rect codeLine="36" fill="#F1F1F1" height="76.3125" id="ModelName" rx="2.5" ry="2.5" style="stroke:#181818;stroke-width:0.5;" width="166" x="874" y="506.8945"/><ellipse cx="890" cy="537.0508" fill="#ADD1B2" rx="12" ry="12" style="stroke:#181818;stroke-width:1.0;"/><path d="M892.1406,531.9727 Q892.3281,531.7227 892.5469,531.5977 Q892.7656,531.457 893.0156,531.457 Q893.4531,531.457 893.7344,531.7695 Q894.0156,532.0664 894.0156,532.7852 L894.0156,534.4883 Q894.0156,535.207 893.7344,535.5195 Q893.4531,535.832 893.0156,535.832 Q892.625,535.832 892.375,535.5977 Q892.125,535.3789 892.0156,534.7695 Q891.9531,534.3477 891.7344,534.1289 Q891.3438,533.6914 890.625,533.4258 Q889.9063,533.1602 889.1875,533.1602 Q888.2813,533.1602 887.5313,533.5508 Q886.7813,533.9414 886.2031,534.832 Q885.625,535.707 885.625,536.9102 L885.625,538.207 Q885.625,539.6602 886.6719,540.6289 Q887.7344,541.5977 889.5938,541.5977 Q890.7031,541.5977 891.4844,541.2852 Q891.9219,541.1133 892.4375,540.5977 Q892.75,540.2852 892.9219,540.1914 Q893.0938,540.0977 893.3281,540.0977 Q893.7188,540.0977 894.0156,540.4102 Q894.3281,540.707 894.3281,541.1133 Q894.3281,541.5195 893.9219,541.9883 Q893.3281,542.6758 892.3906,543.0664 Q891.125,543.5977 889.6094,543.5977 Q887.8281,543.5977 886.4063,542.8633 Q885.25,542.2695 884.4375,541.0039 Q883.625,539.7383 883.625,538.2539 L883.625,536.8945 Q883.625,535.332 884.3438,533.9883 Q885.0781,532.6289 886.3594,531.8945 Q887.6563,531.1602 889.1094,531.1602 Q889.9688,531.1602 890.7188,531.3633 Q891.4844,531.5664 892.1406,531.9727 Z " fill="#000000"/><text fill="#000000" font-family="sans-serif" font-size="20" font-style="italic" lengthAdjust="spacing" textLength="136" x="903" y="532.6563">«Value Object»</text><text fill="#000000" font-family="sans-serif" font-size="20" lengthAdjust="spacing" textLength="105" x="918.5" y="557.8125">ModelName</text><line style="stroke:#181818;stroke-width:0.5;" x1="875" x2="1039" y1="567.207" y2="567.207"/><line style="stroke:#181818;stroke-width:0.5;" x1="875" x2="1039" y1="575.207" y2="575.207"/></g><!--class Configuration--><g id="elem_Configuration"><rect codeLine="38" fill="#F1F1F1" height="76.3125" id="Configuration" rx="2.5" ry="2.5" style="stroke:#181818;stroke-width:0.5;" width="149" x="1075.5" y="506.8945"/><ellipse cx="1091.5" cy="537.0508" fill="#ADD1B2" rx="12" ry="12" style="stroke:#181818;stroke-width:1.0;"/><path d="M1093.6406,531.9727 Q1093.8281,531.7227 1094.0469,531.5977 Q1094.2656,531.457 1094.5156,531.457 Q1094.9531,531.457 1095.2344,531.7695 Q1095.5156,532.0664 1095.5156,532.7852 L1095.5156,534.4883 Q1095.5156,535.207 1095.2344,535.5195 Q1094.9531,535.832 1094.5156,535.832 Q1094.125,535.832 1093.875,535.5977 Q1093.625,535.3789 1093.5156,534.7695 Q1093.4531,534.3477 1093.2344,534.1289 Q1092.8438,533.6914 1092.125,533.4258 Q1091.4063,533.1602 1090.6875,533.1602 Q1089.7813,533.1602 1089.0313,533.5508 Q1088.2813,533.9414 1087.7031,534.832 Q1087.125,535.707 1087.125,536.9102 L1087.125,538.207 Q1087.125,539.6602 1088.1719,540.6289 Q1089.2344,541.5977 1091.0938,541.5977 Q1092.2031,541.5977 1092.9844,541.2852 Q1093.4219,541.1133 1093.9375,540.5977 Q1094.25,540.2852 1094.4219,540.1914 Q1094.5938,540.0977 1094.8281,540.0977 Q1095.2188,540.0977 1095.5156,540.4102 Q1095.8281,540.707 1095.8281,541.1133 Q1095.8281,541.5195 1095.4219,541.9883 Q1094.8281,542.6758 1093.8906,543.0664 Q1092.625,543.5977 1091.1094,543.5977 Q1089.3281,543.5977 1087.9063,542.8633 Q1086.75,542.2695 1085.9375,541.0039 Q1085.125,539.7383 1085.125,538.2539 L1085.125,536.8945 Q1085.125,535.332 1085.8438,533.9883 Q1086.5781,532.6289 1087.8594,531.8945 Q1089.1563,531.1602 1090.6094,531.1602 Q1091.4688,531.1602 1092.2188,531.3633 Q1092.9844,531.5664 1093.6406,531.9727 Z " fill="#000000"/><text fill="#000000" font-family="sans-serif" font-size="20" font-style="italic" lengthAdjust="spacing" textLength="71" x="1128.5" y="532.6563">«Entity»</text><text fill="#000000" font-family="sans-serif" font-size="20" lengthAdjust="spacing" textLength="115" x="1106.5" y="557.8125">Configuration</text><line style="stroke:#181818;stroke-width:0.5;" x1="1076.5" x2="1223.5" y1="567.207" y2="567.207"/><line style="stroke:#181818;stroke-width:0.5;" x1="1076.5" x2="1223.5" y1="575.207" y2="575.207"/></g><!--class WindSpeed--><g id="elem_WindSpeed"><rect codeLine="41" fill="#F1F1F1" height="76.3125" id="WindSpeed" rx="2.5" ry="2.5" style="stroke:#181818;stroke-width:0.5;" width="166" x="866" y="671.8945"/><ellipse cx="882" cy="702.0508" fill="#ADD1B2" rx="12" ry="12" style="stroke:#181818;stroke-width:1.0;"/><path d="M884.1406,696.9727 Q884.3281,696.7227 884.5469,696.5977 Q884.7656,696.457 885.0156,696.457 Q885.4531,696.457 885.7344,696.7695 Q886.0156,697.0664 886.0156,697.7852 L886.0156,699.4883 Q886.0156,700.207 885.7344,700.5195 Q885.4531,700.832 885.0156,700.832 Q884.625,700.832 884.375,700.5977 Q884.125,700.3789 884.0156,699.7695 Q883.9531,699.3477 883.7344,699.1289 Q883.3438,698.6914 882.625,698.4258 Q881.9063,698.1602 881.1875,698.1602 Q880.2813,698.1602 879.5313,698.5508 Q878.7813,698.9414 878.2031,699.832 Q877.625,700.707 877.625,701.9102 L877.625,703.207 Q877.625,704.6602 878.6719,705.6289 Q879.7344,706.5977 881.5938,706.5977 Q882.7031,706.5977 883.4844,706.2852 Q883.9219,706.1133 884.4375,705.5977 Q884.75,705.2852 884.9219,705.1914 Q885.0938,705.0977 885.3281,705.0977 Q885.7188,705.0977 886.0156,705.4102 Q886.3281,705.707 886.3281,706.1133 Q886.3281,706.5195 885.9219,706.9883 Q885.3281,707.6758 884.3906,708.0664 Q883.125,708.5977 881.6094,708.5977 Q879.8281,708.5977 878.4063,707.8633 Q877.25,707.2695 876.4375,706.0039 Q875.625,704.7383 875.625,703.2539 L875.625,701.8945 Q875.625,700.332 876.3438,698.9883 Q877.0781,697.6289 878.3594,696.8945 Q879.6563,696.1602 881.1094,696.1602 Q881.9688,696.1602 882.7188,696.3633 Q883.4844,696.5664 884.1406,696.9727 Z " fill="#000000"/><text fill="#000000" font-family="sans-serif" font-size="20" font-style="italic" lengthAdjust="spacing" textLength="136" x="895" y="697.6563">«Value Object»</text><text fill="#000000" font-family="sans-serif" font-size="20" lengthAdjust="spacing" textLength="101" x="912.5" y="722.8125">WindSpeed</text><line style="stroke:#181818;stroke-width:0.5;" x1="867" x2="1031" y1="732.207" y2="732.207"/><line style="stroke:#181818;stroke-width:0.5;" x1="867" x2="1031" y1="740.207" y2="740.207"/></g><!--class PositionTolerance--><g id="elem_PositionTolerance"><rect codeLine="44" fill="#F1F1F1" height="76.3125" id="PositionTolerance" rx="2.5" ry="2.5" style="stroke:#181818;stroke-width:0.5;" width="190" x="1067" y="671.8945"/><ellipse cx="1083" cy="702.0508" fill="#ADD1B2" rx="12" ry="12" style="stroke:#181818;stroke-width:1.0;"/><path d="M1085.1406,696.9727 Q1085.3281,696.7227 1085.5469,696.5977 Q1085.7656,696.457 1086.0156,696.457 Q1086.4531,696.457 1086.7344,696.7695 Q1087.0156,697.0664 1087.0156,697.7852 L1087.0156,699.4883 Q1087.0156,700.207 1086.7344,700.5195 Q1086.4531,700.832 1086.0156,700.832 Q1085.625,700.832 1085.375,700.5977 Q1085.125,700.3789 1085.0156,699.7695 Q1084.9531,699.3477 1084.7344,699.1289 Q1084.3438,698.6914 1083.625,698.4258 Q1082.9063,698.1602 1082.1875,698.1602 Q1081.2813,698.1602 1080.5313,698.5508 Q1079.7813,698.9414 1079.2031,699.832 Q1078.625,700.707 1078.625,701.9102 L1078.625,703.207 Q1078.625,704.6602 1079.6719,705.6289 Q1080.7344,706.5977 1082.5938,706.5977 Q1083.7031,706.5977 1084.4844,706.2852 Q1084.9219,706.1133 1085.4375,705.5977 Q1085.75,705.2852 1085.9219,705.1914 Q1086.0938,705.0977 1086.3281,705.0977 Q1086.7188,705.0977 1087.0156,705.4102 Q1087.3281,705.707 1087.3281,706.1133 Q1087.3281,706.5195 1086.9219,706.9883 Q1086.3281,707.6758 1085.3906,708.0664 Q1084.125,708.5977 1082.6094,708.5977 Q1080.8281,708.5977 1079.4063,707.8633 Q1078.25,707.2695 1077.4375,706.0039 Q1076.625,704.7383 1076.625,703.2539 L1076.625,701.8945 Q1076.625,700.332 1077.3438,698.9883 Q1078.0781,697.6289 1079.3594,696.8945 Q1080.6563,696.1602 1082.1094,696.1602 Q1082.9688,696.1602 1083.7188,696.3633 Q1084.4844,696.5664 1085.1406,696.9727 Z " fill="#000000"/><text fill="#000000" font-family="sans-serif" font-size="20" font-style="italic" lengthAdjust="spacing" textLength="136" x="1108" y="697.6563">«Value Object»</text><text fill="#000000" font-family="sans-serif" font-size="20" lengthAdjust="spacing" textLength="156" x="1098" y="722.8125">PositionTolerance</text><line style="stroke:#181818;stroke-width:0.5;" x1="1068" x2="1256" y1="732.207" y2="732.207"/><line style="stroke:#181818;stroke-width:0.5;" x1="1068" x2="1256" y1="740.207" y2="740.207"/></g><!--class SafetyStatus--><g id="elem_SafetyStatus"><rect codeLine="47" fill="#F1F1F1" height="76.3125" id="SafetyStatus" rx="2.5" ry="2.5" style="stroke:#181818;stroke-width:0.5;" width="166" x="1292" y="671.8945"/><ellipse cx="1308" cy="702.0508" fill="#EB937F" rx="12" ry="12" style="stroke:#181818;stroke-width:1.0;"/><path d="M1305.9531,703.1133 L1305.9531,706.0508 L1311.0469,706.0508 L1311.0469,704.957 Q1311.0469,704.2383 1311.3281,703.9414 Q1311.6094,703.6289 1312.0625,703.6289 Q1312.5,703.6289 1312.7813,703.9414 Q1313.0625,704.2383 1313.0625,704.957 L1313.0625,708.0508 L1303.625,708.0508 Q1302.9063,708.0508 1302.5938,707.7695 Q1302.2969,707.4883 1302.2969,707.0508 Q1302.2969,706.5977 1302.6094,706.332 Q1302.9219,706.0508 1303.625,706.0508 L1303.9375,706.0508 L1303.9375,698.2227 L1303.625,698.2227 Q1302.9063,698.2227 1302.5938,697.9414 Q1302.2969,697.6602 1302.2969,697.207 Q1302.2969,696.7539 1302.5938,696.4883 Q1302.9063,696.207 1303.625,696.207 L1312.6094,696.207 L1312.6094,699.2539 Q1312.6094,699.9727 1312.3281,700.2852 Q1312.0625,700.582 1311.625,700.582 Q1311.1719,700.582 1310.8906,700.2852 Q1310.6094,699.9883 1310.6094,699.2539 L1310.6094,698.2227 L1305.9531,698.2227 L1305.9531,701.1133 L1307.7031,701.1133 Q1307.7031,700.332 1307.8438,700.0977 Q1308.1563,699.6289 1308.7031,699.6289 Q1309.1563,699.6289 1309.4219,699.9414 Q1309.7031,700.2383 1309.7031,700.957 L1309.7031,703.2695 Q1309.7031,703.9258 1309.5469,704.1445 Q1309.2344,704.5977 1308.7031,704.5977 Q1308.1563,704.5977 1307.8438,704.1289 Q1307.7031,703.8945 1307.7031,703.1133 L1305.9531,703.1133 Z " fill="#000000"/><text fill="#000000" font-family="sans-serif" font-size="20" font-style="italic" lengthAdjust="spacing" textLength="136" x="1321" y="697.6563">«Value Object»</text><text fill="#000000" font-family="sans-serif" font-size="20" lengthAdjust="spacing" textLength="113" x="1332.5" y="722.8125">SafetyStatus</text><line style="stroke:#181818;stroke-width:0.5;" x1="1293" x2="1457" y1="732.207" y2="732.207"/><line style="stroke:#181818;stroke-width:0.5;" x1="1293" x2="1457" y1="740.207" y2="740.207"/></g><!--class Maintenance--><g id="elem_Maintenance"><rect codeLine="65" fill="#F1F1F1" height="101.4688" id="Maintenance" rx="2.5" ry="2.5" style="stroke:#181818;stroke-width:0.5;" width="145" x="1721.5" y="318.8945"/><ellipse cx="1737.5" cy="361.6289" fill="#ADD1B2" rx="12" ry="12" style="stroke:#181818;stroke-width:1.0;"/><path d="M1739.6406,356.5508 Q1739.8281,356.3008 1740.0469,356.1758 Q1740.2656,356.0352 1740.5156,356.0352 Q1740.9531,356.0352 1741.2344,356.3477 Q1741.5156,356.6445 1741.5156,357.3633 L1741.5156,359.0664 Q1741.5156,359.7852 1741.2344,360.0977 Q1740.9531,360.4102 1740.5156,360.4102 Q1740.125,360.4102 1739.875,360.1758 Q1739.625,359.957 1739.5156,359.3477 Q1739.4531,358.9258 1739.2344,358.707 Q1738.8438,358.2695 1738.125,358.0039 Q1737.4063,357.7383 1736.6875,357.7383 Q1735.7813,357.7383 1735.0313,358.1289 Q1734.2813,358.5195 1733.7031,359.4102 Q1733.125,360.2852 1733.125,361.4883 L1733.125,362.7852 Q1733.125,364.2383 1734.1719,365.207 Q1735.2344,366.1758 1737.0938,366.1758 Q1738.2031,366.1758 1738.9844,365.8633 Q1739.4219,365.6914 1739.9375,365.1758 Q1740.25,364.8633 1740.4219,364.7695 Q1740.5938,364.6758 1740.8281,364.6758 Q1741.2188,364.6758 1741.5156,364.9883 Q1741.8281,365.2852 1741.8281,365.6914 Q1741.8281,366.0977 1741.4219,366.5664 Q1740.8281,367.2539 1739.8906,367.6445 Q1738.625,368.1758 1737.1094,368.1758 Q1735.3281,368.1758 1733.9063,367.4414 Q1732.75,366.8477 1731.9375,365.582 Q1731.125,364.3164 1731.125,362.832 L1731.125,361.4727 Q1731.125,359.9102 1731.8438,358.5664 Q1732.5781,357.207 1733.8594,356.4727 Q1735.1563,355.7383 1736.6094,355.7383 Q1737.4688,355.7383 1738.2188,355.9414 Q1738.9844,356.1445 1739.6406,356.5508 Z " fill="#000000"/><text fill="#000000" font-family="sans-serif" font-size="20" font-style="italic" lengthAdjust="spacing" textLength="71" x="1772.5" y="344.6563">«Entity»</text><text fill="#000000" font-family="sans-serif" font-size="20" font-style="italic" lengthAdjust="spacing" textLength="56" x="1780" y="369.8125">«root»</text><text fill="#000000" font-family="sans-serif" font-size="20" lengthAdjust="spacing" textLength="111" x="1752.5" y="394.9688">Maintenance</text><line style="stroke:#181818;stroke-width:0.5;" x1="1722.5" x2="1865.5" y1="404.3633" y2="404.3633"/><line style="stroke:#181818;stroke-width:0.5;" x1="1722.5" x2="1865.5" y1="412.3633" y2="412.3633"/></g><!--class MaintenanceType--><g id="elem_MaintenanceType"><rect codeLine="68" fill="#F1F1F1" height="76.3125" id="MaintenanceType" rx="2.5" ry="2.5" style="stroke:#181818;stroke-width:0.5;" width="189" x="1710.5" y="506.8945"/><ellipse cx="1726.5" cy="537.0508" fill="#EB937F" rx="12" ry="12" style="stroke:#181818;stroke-width:1.0;"/><path d="M1724.4531,538.1133 L1724.4531,541.0508 L1729.5469,541.0508 L1729.5469,539.957 Q1729.5469,539.2383 1729.8281,538.9414 Q1730.1094,538.6289 1730.5625,538.6289 Q1731,538.6289 1731.2813,538.9414 Q1731.5625,539.2383 1731.5625,539.957 L1731.5625,543.0508 L1722.125,543.0508 Q1721.4063,543.0508 1721.0938,542.7695 Q1720.7969,542.4883 1720.7969,542.0508 Q1720.7969,541.5977 1721.1094,541.332 Q1721.4219,541.0508 1722.125,541.0508 L1722.4375,541.0508 L1722.4375,533.2227 L1722.125,533.2227 Q1721.4063,533.2227 1721.0938,532.9414 Q1720.7969,532.6602 1720.7969,532.207 Q1720.7969,531.7539 1721.0938,531.4883 Q1721.4063,531.207 1722.125,531.207 L1731.1094,531.207 L1731.1094,534.2539 Q1731.1094,534.9727 1730.8281,535.2852 Q1730.5625,535.582 1730.125,535.582 Q1729.6719,535.582 1729.3906,535.2852 Q1729.1094,534.9883 1729.1094,534.2539 L1729.1094,533.2227 L1724.4531,533.2227 L1724.4531,536.1133 L1726.2031,536.1133 Q1726.2031,535.332 1726.3438,535.0977 Q1726.6563,534.6289 1727.2031,534.6289 Q1727.6563,534.6289 1727.9219,534.9414 Q1728.2031,535.2383 1728.2031,535.957 L1728.2031,538.2695 Q1728.2031,538.9258 1728.0469,539.1445 Q1727.7344,539.5977 1727.2031,539.5977 Q1726.6563,539.5977 1726.3438,539.1289 Q1726.2031,538.8945 1726.2031,538.1133 L1724.4531,538.1133 Z " fill="#000000"/><text fill="#000000" font-family="sans-serif" font-size="20" font-style="italic" lengthAdjust="spacing" textLength="136" x="1751" y="532.6563">«Value Object»</text><text fill="#000000" font-family="sans-serif" font-size="20" lengthAdjust="spacing" textLength="155" x="1741.5" y="557.8125">MaintenanceType</text><line style="stroke:#181818;stroke-width:0.5;" x1="1711.5" x2="1898.5" y1="567.207" y2="567.207"/><line style="stroke:#181818;stroke-width:0.5;" x1="1711.5" x2="1898.5" y1="575.207" y2="575.207"/></g><!--class Date--><g id="elem_Date"><rect codeLine="80" fill="#F1F1F1" height="76.3125" id="Date" rx="2.5" ry="2.5" style="stroke:#181818;stroke-width:0.5;" width="166" x="1830" y="840.8945"/><ellipse cx="1846" cy="871.0508" fill="#ADD1B2" rx="12" ry="12" style="stroke:#181818;stroke-width:1.0;"/><path d="M1848.1406,865.9727 Q1848.3281,865.7227 1848.5469,865.5977 Q1848.7656,865.457 1849.0156,865.457 Q1849.4531,865.457 1849.7344,865.7695 Q1850.0156,866.0664 1850.0156,866.7852 L1850.0156,868.4883 Q1850.0156,869.207 1849.7344,869.5195 Q1849.4531,869.832 1849.0156,869.832 Q1848.625,869.832 1848.375,869.5977 Q1848.125,869.3789 1848.0156,868.7695 Q1847.9531,868.3477 1847.7344,868.1289 Q1847.3438,867.6914 1846.625,867.4258 Q1845.9063,867.1602 1845.1875,867.1602 Q1844.2813,867.1602 1843.5313,867.5508 Q1842.7813,867.9414 1842.2031,868.832 Q1841.625,869.707 1841.625,870.9102 L1841.625,872.207 Q1841.625,873.6602 1842.6719,874.6289 Q1843.7344,875.5977 1845.5938,875.5977 Q1846.7031,875.5977 1847.4844,875.2852 Q1847.9219,875.1133 1848.4375,874.5977 Q1848.75,874.2852 1848.9219,874.1914 Q1849.0938,874.0977 1849.3281,874.0977 Q1849.7188,874.0977 1850.0156,874.4102 Q1850.3281,874.707 1850.3281,875.1133 Q1850.3281,875.5195 1849.9219,875.9883 Q1849.3281,876.6758 1848.3906,877.0664 Q1847.125,877.5977 1845.6094,877.5977 Q1843.8281,877.5977 1842.4063,876.8633 Q1841.25,876.2695 1840.4375,875.0039 Q1839.625,873.7383 1839.625,872.2539 L1839.625,870.8945 Q1839.625,869.332 1840.3438,867.9883 Q1841.0781,866.6289 1842.3594,865.8945 Q1843.6563,865.1602 1845.1094,865.1602 Q1845.9688,865.1602 1846.7188,865.3633 Q1847.4844,865.5664 1848.1406,865.9727 Z " fill="#000000"/><text fill="#000000" font-family="sans-serif" font-size="20" font-style="italic" lengthAdjust="spacing" textLength="136" x="1859" y="866.6563">«Value Object»</text><text fill="#000000" font-family="sans-serif" font-size="20" lengthAdjust="spacing" textLength="42" x="1906" y="891.8125">Date</text><line style="stroke:#181818;stroke-width:0.5;" x1="1831" x2="1995" y1="901.207" y2="901.207"/><line style="stroke:#181818;stroke-width:0.5;" x1="1831" x2="1995" y1="909.207" y2="909.207"/></g><!--class Description--><g id="elem_Description"><rect codeLine="83" fill="#F1F1F1" height="76.3125" id="Description" rx="2.5" ry="2.5" style="stroke:#181818;stroke-width:0.5;" width="166" x="1629" y="840.8945"/><ellipse cx="1645" cy="871.0508" fill="#ADD1B2" rx="12" ry="12" style="stroke:#181818;stroke-width:1.0;"/><path d="M1647.1406,865.9727 Q1647.3281,865.7227 1647.5469,865.5977 Q1647.7656,865.457 1648.0156,865.457 Q1648.4531,865.457 1648.7344,865.7695 Q1649.0156,866.0664 1649.0156,866.7852 L1649.0156,868.4883 Q1649.0156,869.207 1648.7344,869.5195 Q1648.4531,869.832 1648.0156,869.832 Q1647.625,869.832 1647.375,869.5977 Q1647.125,869.3789 1647.0156,868.7695 Q1646.9531,868.3477 1646.7344,868.1289 Q1646.3438,867.6914 1645.625,867.4258 Q1644.9063,867.1602 1644.1875,867.1602 Q1643.2813,867.1602 1642.5313,867.5508 Q1641.7813,867.9414 1641.2031,868.832 Q1640.625,869.707 1640.625,870.9102 L1640.625,872.207 Q1640.625,873.6602 1641.6719,874.6289 Q1642.7344,875.5977 1644.5938,875.5977 Q1645.7031,875.5977 1646.4844,875.2852 Q1646.9219,875.1133 1647.4375,874.5977 Q1647.75,874.2852 1647.9219,874.1914 Q1648.0938,874.0977 1648.3281,874.0977 Q1648.7188,874.0977 1649.0156,874.4102 Q1649.3281,874.707 1649.3281,875.1133 Q1649.3281,875.5195 1648.9219,875.9883 Q1648.3281,876.6758 1647.3906,877.0664 Q1646.125,877.5977 1644.6094,877.5977 Q1642.8281,877.5977 1641.4063,876.8633 Q1640.25,876.2695 1639.4375,875.0039 Q1638.625,873.7383 1638.625,872.2539 L1638.625,870.8945 Q1638.625,869.332 1639.3438,867.9883 Q1640.0781,866.6289 1641.3594,865.8945 Q1642.6563,865.1602 1644.1094,865.1602 Q1644.9688,865.1602 1645.7188,865.3633 Q1646.4844,865.5664 1647.1406,865.9727 Z " fill="#000000"/><text fill="#000000" font-family="sans-serif" font-size="20" font-style="italic" lengthAdjust="spacing" textLength="136" x="1658" y="866.6563">«Value Object»</text><text fill="#000000" font-family="sans-serif" font-size="20" lengthAdjust="spacing" textLength="98" x="1677" y="891.8125">Description</text><line style="stroke:#181818;stroke-width:0.5;" x1="1630" x2="1794" y1="901.207" y2="901.207"/><line style="stroke:#181818;stroke-width:0.5;" x1="1630" x2="1794" y1="909.207" y2="909.207"/></g><!--class Name--><g id="elem_Name"><rect codeLine="86" fill="#F1F1F1" height="76.3125" id="Name" rx="2.5" ry="2.5" style="stroke:#181818;stroke-width:0.5;" width="166" x="1428" y="840.8945"/><ellipse cx="1444" cy="871.0508" fill="#ADD1B2" rx="12" ry="12" style="stroke:#181818;stroke-width:1.0;"/><path d="M1446.1406,865.9727 Q1446.3281,865.7227 1446.5469,865.5977 Q1446.7656,865.457 1447.0156,865.457 Q1447.4531,865.457 1447.7344,865.7695 Q1448.0156,866.0664 1448.0156,866.7852 L1448.0156,868.4883 Q1448.0156,869.207 1447.7344,869.5195 Q1447.4531,869.832 1447.0156,869.832 Q1446.625,869.832 1446.375,869.5977 Q1446.125,869.3789 1446.0156,868.7695 Q1445.9531,868.3477 1445.7344,868.1289 Q1445.3438,867.6914 1444.625,867.4258 Q1443.9063,867.1602 1443.1875,867.1602 Q1442.2813,867.1602 1441.5313,867.5508 Q1440.7813,867.9414 1440.2031,868.832 Q1439.625,869.707 1439.625,870.9102 L1439.625,872.207 Q1439.625,873.6602 1440.6719,874.6289 Q1441.7344,875.5977 1443.5938,875.5977 Q1444.7031,875.5977 1445.4844,875.2852 Q1445.9219,875.1133 1446.4375,874.5977 Q1446.75,874.2852 1446.9219,874.1914 Q1447.0938,874.0977 1447.3281,874.0977 Q1447.7188,874.0977 1448.0156,874.4102 Q1448.3281,874.707 1448.3281,875.1133 Q1448.3281,875.5195 1447.9219,875.9883 Q1447.3281,876.6758 1446.3906,877.0664 Q1445.125,877.5977 1443.6094,877.5977 Q1441.8281,877.5977 1440.4063,876.8633 Q1439.25,876.2695 1438.4375,875.0039 Q1437.625,873.7383 1437.625,872.2539 L1437.625,870.8945 Q1437.625,869.332 1438.3438,867.9883 Q1439.0781,866.6289 1440.3594,865.8945 Q1441.6563,865.1602 1443.1094,865.1602 Q1443.9688,865.1602 1444.7188,865.3633 Q1445.4844,865.5664 1446.1406,865.9727 Z " fill="#000000"/><text fill="#000000" font-family="sans-serif" font-size="20" font-style="italic" lengthAdjust="spacing" textLength="136" x="1457" y="866.6563">«Value Object»</text><text fill="#000000" font-family="sans-serif" font-size="20" lengthAdjust="spacing" textLength="51" x="1499.5" y="891.8125">Name</text><line style="stroke:#181818;stroke-width:0.5;" x1="1429" x2="1593" y1="901.207" y2="901.207"/><line style="stroke:#181818;stroke-width:0.5;" x1="1429" x2="1593" y1="909.207" y2="909.207"/></g><!--link Drone to DroneStatus--><g id="link_Drone_DroneStatus"><path codeLine="23" d="M672.8,177.0745 C677.61,186.7845 682.26,197.0245 686,206.8945 C700.89,246.1745 712.08,292.8645 718.98,325.9145 " fill="none" id="Drone-to-DroneStatus" style="stroke:#181818;stroke-width:1.0;"/><polygon fill="#181818" points="720.05,331.0945,722.1427,321.4706,719.0365,326.1983,714.3087,323.0922,720.05,331.0945" style="stroke:#181818;stroke-width:1.0;"/><text fill="#000000" font-family="sans-serif" font-size="20" lengthAdjust="spacing" textLength="53" x="696" y="228.6563">status</text><text fill="#000000" font-family="sans-serif" font-size="20" lengthAdjust="spacing" textLength="11" x="707.1436" y="319.0655">1</text></g><!--link Drone to SerialNumber--><g id="link_Drone_SerialNumber"><path codeLine="24" d="M594.29,166.1045 C581.74,177.9445 569.48,191.8545 561,206.8945 C540.21,243.7845 531.76,291.8245 528.33,325.8945 " fill="none" id="Drone-to-SerialNumber" style="stroke:#181818;stroke-width:1.0;"/><polygon fill="#181818" points="527.82,331.2345,532.6495,322.651,528.2907,326.2567,524.685,321.898,527.82,331.2345" style="stroke:#181818;stroke-width:1.0;"/><text fill="#000000" font-family="sans-serif" font-size="20" lengthAdjust="spacing" textLength="115" x="562" y="228.6563">serialNumber</text><text fill="#000000" font-family="sans-serif" font-size="20" lengthAdjust="spacing" textLength="11" x="516.2335" y="318.9099">1</text></g><!--link Drone to RemovalReason--><g id="link_Drone_RemovalReason"><path codeLine="25" d="M594.39,132.8745 C541.53,140.9545 458.81,160.4945 404,206.8945 C366.97,238.2445 343.83,289.8745 331.21,326.3045 " fill="none" id="Drone-to-RemovalReason" style="stroke:#181818;stroke-width:1.0;"/><polygon fill="#181818" points="329.57,331.1145,336.2566,323.8834,331.181,326.3812,328.6832,321.3057,329.57,331.1145" style="stroke:#181818;stroke-width:1.0;"/><text fill="#000000" font-family="sans-serif" font-size="20" lengthAdjust="spacing" textLength="136" x="405" y="228.6563">removalReason</text><text fill="#000000" font-family="sans-serif" font-size="20" lengthAdjust="spacing" textLength="31" x="297.8151" y="319.0886">0..*</text></g><!--link Drone to DroneLanguage--><g id="link_Drone_DroneLanguage"><path codeLine="26" d="M594.33,128.6545 C507.68,133.2545 329.13,153.6345 213,241.8945 C182.06,265.4045 154.51,299.8745 135.55,326.8945 " fill="none" id="Drone-to-DroneLanguage" style="stroke:#181818;stroke-width:1.0;"/><polygon fill="#181818" points="132.58,331.1645,141.0074,326.0675,135.4387,327.0623,134.4439,321.4936,132.58,331.1645" style="stroke:#181818;stroke-width:1.0;"/><text fill="#000000" font-family="sans-serif" font-size="20" lengthAdjust="spacing" textLength="79" x="265" y="228.6563">language</text><text fill="#000000" font-family="sans-serif" font-size="20" lengthAdjust="spacing" textLength="11" x="124.3485" y="319.1463">1</text></g><!--link DroneLanguageValidate to DroneLanguage--><g id="link_DroneLanguageValidate_DroneLanguage"><path codeLine="29" d="M135.88,164.4945 C133.14,177.8145 130.21,192.9945 128,206.8945 C121.6,247.1245 116.38,293.3045 113.04,325.9545 " fill="none" id="DroneLanguageValidate-to-DroneLanguage" style="stroke:#181818;stroke-width:1.0;stroke-dasharray:7.0,7.0;"/><polygon fill="#181818" points="112.52,331.0745,117.3981,322.5186,113.0189,326.0995,109.438,321.7203,112.52,331.0745" style="stroke:#181818;stroke-width:1.0;"/><text fill="#000000" font-family="sans-serif" font-size="20" lengthAdjust="spacing" textLength="77" x="129" y="228.6563">validates</text><text fill="#000000" font-family="sans-serif" font-size="20" lengthAdjust="spacing" textLength="11" x="101.2168" y="319.0425">1</text></g><!--link Model to Configuration--><g id="link_Model_Configuration"><path codeLine="51" d="M1089.36,420.1145 C1102.1,446.1345 1117.53,477.6145 1129.63,502.3245 " fill="none" id="Model-to-Configuration" style="stroke:#181818;stroke-width:1.0;"/><polygon fill="#181818" points="1131.85,506.8545,1131.4906,497.0122,1129.6539,502.3626,1124.3036,500.5259,1131.85,506.8545" style="stroke:#181818;stroke-width:1.0;"/><text fill="#000000" font-family="sans-serif" font-size="20" lengthAdjust="spacing" textLength="111" x="1116" y="471.6563">configuration</text><text fill="#000000" font-family="sans-serif" font-size="20" lengthAdjust="spacing" textLength="11" x="1117.0808" y="494.549">1</text></g><!--link Configuration to WindSpeed--><g id="link_Configuration_WindSpeed"><path codeLine="52" d="M1098.1,582.9645 C1085.3,591.3645 1071.41,599.8645 1058,606.8945 C1049.52,611.3445 1045.92,609.5145 1038,614.8945 C1016.74,629.3345 996.72,649.6245 981.06,667.6645 " fill="none" id="Configuration-to-WindSpeed" style="stroke:#181818;stroke-width:1.0;"/><polygon fill="#181818" points="977.59,671.7145,986.492,667.501,980.851,667.9243,980.4277,662.2833,977.59,671.7145" style="stroke:#181818;stroke-width:1.0;"/><text fill="#000000" font-family="sans-serif" font-size="20" lengthAdjust="spacing" textLength="97" x="1039" y="636.6563">windSpeed</text><text fill="#000000" font-family="sans-serif" font-size="20" lengthAdjust="spacing" textLength="31" x="948.6762" y="659.3867">1..*</text></g><!--link Configuration to PositionTolerance--><g id="link_Configuration_PositionTolerance"><path codeLine="53" d="M1146.41,582.9145 C1145.3,600.7845 1144.86,622.5045 1147,641.8945 C1147.89,649.9445 1149.36,658.4345 1151.05,666.5645 " fill="none" id="Configuration-to-PositionTolerance" style="stroke:#181818;stroke-width:1.0;"/><polygon fill="#181818" points="1152.12,671.5745,1154.1531,661.9378,1151.0763,666.6847,1146.3294,663.6078,1152.12,671.5745" style="stroke:#181818;stroke-width:1.0;"/><text fill="#000000" font-family="sans-serif" font-size="20" lengthAdjust="spacing" textLength="154" x="1148" y="636.6563">positionTolerance</text><text fill="#000000" font-family="sans-serif" font-size="20" lengthAdjust="spacing" textLength="31" x="1117.2337" y="659.5425">1..*</text></g><!--link Model to ModelName--><g id="link_Model_ModelName"><path codeLine="54" d="M1014.31,417.7845 C1005.4,427.7845 996.81,438.7145 990,449.8945 C980.38,465.6945 973.04,484.6945 967.75,501.4645 " fill="none" id="Model-to-ModelName" style="stroke:#181818;stroke-width:1.0;"/><polygon fill="#181818" points="966.18,506.5945,972.628,499.1499,967.6364,501.8113,964.9749,496.8197,966.18,506.5945" style="stroke:#181818;stroke-width:1.0;"/><text fill="#000000" font-family="sans-serif" font-size="20" lengthAdjust="spacing" textLength="104" x="991" y="471.6563">modelName</text><text fill="#000000" font-family="sans-serif" font-size="20" lengthAdjust="spacing" textLength="11" x="955.7435" y="494.5655">1</text></g><!--link Configuration to SafetyStatus--><g id="link_Configuration_SafetyStatus"><path codeLine="55" d="M1224.84,569.4145 C1252.48,580.4045 1282.91,595.4445 1307,614.8945 C1324.77,629.2445 1340.14,649.3245 1351.75,667.2445 " fill="none" id="Configuration-to-SafetyStatus" style="stroke:#181818;stroke-width:1.0;"/><polygon fill="#181818" points="1354.62,671.7445,1353.1713,662.0028,1351.9393,667.5239,1346.4182,666.2919,1354.62,671.7445" style="stroke:#181818;stroke-width:1.0;"/><text fill="#000000" font-family="sans-serif" font-size="20" lengthAdjust="spacing" textLength="110" x="1332" y="636.6563">safetyStatus</text></g><!--link Drone to Model--><g id="link_Drone_Model"><path codeLine="59" d="M695.66,156.4645 C774.92,201.9445 927.63,289.5745 1009.67,336.6445 " fill="none" id="Drone-to-Model" style="stroke:#181818;stroke-width:1.0;"/><polygon fill="#181818" points="1014.49,339.4045,1008.6773,331.4539,1010.1541,336.9146,1004.6934,338.3914,1014.49,339.4045" style="stroke:#181818;stroke-width:1.0;"/><text fill="#000000" font-family="sans-serif" font-size="20" lengthAdjust="spacing" textLength="41" x="831" y="228.6563">uses</text><text fill="#000000" font-family="sans-serif" font-size="20" lengthAdjust="spacing" textLength="11" x="995.6136" y="329.1691">1</text></g><!--link Maintenance to MaintenanceType--><g id="link_Maintenance_MaintenanceType"><path codeLine="72" d="M1797.15,420.1145 C1798.79,445.9145 1800.76,477.0945 1802.33,501.7045 " fill="none" id="Maintenance-to-MaintenanceType" style="stroke:#181818;stroke-width:1.0;"/><polygon fill="#181818" points="1802.65,506.8545,1806.0759,497.6207,1802.3354,501.8644,1798.0917,498.124,1802.65,506.8545" style="stroke:#181818;stroke-width:1.0;"/><text fill="#000000" font-family="sans-serif" font-size="20" lengthAdjust="spacing" textLength="38" x="1801" y="471.6563">type</text><text fill="#000000" font-family="sans-serif" font-size="20" lengthAdjust="spacing" textLength="11" x="1790.3989" y="494.549">1</text></g><!--link Drone to Maintenance--><g id="link_Drone_Maintenance"><path codeLine="75" d="M695.82,130.1745 C826.75,138.2545 1185.58,166.1345 1474,241.8945 C1559.31,264.3045 1652.67,302.9445 1716.4,331.6345 " fill="none" id="Drone-to-Maintenance" style="stroke:#181818;stroke-width:1.0;"/><polygon fill="#181818" points="1721.33,333.8645,1714.7728,326.5159,1716.7728,331.8074,1711.4813,333.8074,1721.33,333.8645" style="stroke:#181818;stroke-width:1.0;"/><text fill="#000000" font-family="sans-serif" font-size="20" lengthAdjust="spacing" textLength="92" x="1431" y="228.6563">undergoes</text><text fill="#000000" font-family="sans-serif" font-size="20" lengthAdjust="spacing" textLength="31" x="1682.4774" y="325.3347">1..*</text></g><!--link Maintenance to Date--><g id="link_Maintenance_Date"><path codeLine="90" d="M1855.14,420.0345 C1879.27,443.5145 1904.25,473.6945 1917,506.8945 C1960.13,619.1945 1938.2,765.1045 1923.18,835.8145 " fill="none" id="Maintenance-to-Date" style="stroke:#181818;stroke-width:1.0;"/><polygon fill="#181818" points="1922.12,840.7645,1927.9329,832.814,1923.1774,835.8776,1920.1138,831.1222,1922.12,840.7645" style="stroke:#181818;stroke-width:1.0;"/><text fill="#000000" font-family="sans-serif" font-size="20" lengthAdjust="spacing" textLength="39" x="1942" y="636.6563">date</text><text fill="#000000" font-family="sans-serif" font-size="20" lengthAdjust="spacing" textLength="11" x="1911.6969" y="828.4446">1</text></g><!--link Maintenance to Description--><g id="link_Maintenance_Description"><path codeLine="91" d="M1745.23,420.0245 C1724.89,444.1545 1703.57,474.8345 1693,506.8945 C1655.38,620.9945 1682.57,765.4745 1700.17,835.7145 " fill="none" id="Maintenance-to-Description" style="stroke:#181818;stroke-width:1.0;"/><polygon fill="#181818" points="1701.42,840.6445,1703.0841,830.9373,1700.1905,835.7981,1695.3297,832.9045,1701.42,840.6445" style="stroke:#181818;stroke-width:1.0;"/><text fill="#000000" font-family="sans-serif" font-size="20" lengthAdjust="spacing" textLength="95" x="1675" y="636.6563">description</text><text fill="#000000" font-family="sans-serif" font-size="20" lengthAdjust="spacing" textLength="11" x="1687.9578" y="828.6232">1</text></g><!--link Model to Name--><g id="link_Model_Name"><path codeLine="94" d="M1115.71,389.3245 C1197.89,422.5245 1360.1,498.9245 1451,614.8945 C1501.66,679.5245 1511.07,779.0045 1511.97,835.2745 " fill="none" id="Model-to-Name" style="stroke:#181818;stroke-width:1.0;"/><polygon fill="#181818" points="1512.03,840.5845,1515.9269,831.5394,1511.9729,835.5849,1507.9274,831.6308,1512.03,840.5845" style="stroke:#181818;stroke-width:1.0;"/><text fill="#000000" font-family="sans-serif" font-size="20" lengthAdjust="spacing" textLength="104" x="1469" y="636.6563">modelName</text><text fill="#000000" font-family="sans-serif" font-size="20" lengthAdjust="spacing" textLength="11" x="1500.3455" y="828.554">1</text></g><!--SRC=[bLHDZvj03BtpAwnSLghKQDlZ277fnwdThPPLU_Q2GwU16JGpf4rN-Uzr1aW6aW3D8OoPP-DdFzjkfQhHO5NgR4ivvBJ1fdIVjNAf_4lm_ZwAQiosM12iFXgj-05nZ4LXg417IGAlKGJyoqgq5bf877zIJheztyQnqTeboQi77K9iIaPY-T1KBsGOzntBXk3nvHTbOpoffcf3fmvTOwVHRVGdglGEooT2gzKI1n__2wgYEPBzNmT6ovmBmexCQoSp6ldSjQLvcy0VRtScswjtgv2S0EkVLr1XnHWMM6Fm_NhzPZMiWG0JchUIw0a9ABjJcFy5tI6VY-lr-cheNNTleqEWhwywf_9niq1c7Zabin7q0QlRBJrZFsYraKLZq4clcJxybUR_a2fFQ-AHMQ2KRzhAOyXdNP91bT42kQUu8RTVelUxjXgdJdHcrzG19m5PQ7hua7JhvjLpeYZWTt-SzhZWAQ0UlxgIugb50gh-UED3OLLu0W8hMZ9c_ai26ilA6qeFfNAaV6-cbHS0vzQSxsFWyBolQQwLGVXpGyENFPDXM06E_-TBuDiK-78jL4wcqCDHJ7-YOMaFLtkxtURN8jdCoBeReLduv6WkBiffXN6I0ewhPGfqpf2nPsDwd7hliL0FqJy0]--></g></svg>