<?xml version="1.0" encoding="UTF-8" standalone="no"?><svg xmlns="http://www.w3.org/2000/svg" xmlns:xlink="http://www.w3.org/1999/xlink" contentStyleType="text/css" height="856px" preserveAspectRatio="none" style="width:3187px;height:856px;background:#FFFFFF;" version="1.1" viewBox="0 0 3187 856" width="3187px" zoomAndPan="magnify"><defs/><g><!--cluster CRMCollaborator --><g id="cluster_CRMCollaborator "><path d="M1834.5,249.8945 L2003.5,249.8945 A3.75,3.75 0 0 1 2006,252.3945 L2013,281.0508 L2049.5,281.0508 A2.5,2.5 0 0 1 2052,283.5508 L2052,433.3945 A2.5,2.5 0 0 1 2049.5,435.8945 L1834.5,435.8945 A2.5,2.5 0 0 1 1832,433.3945 L1832,252.3945 A2.5,2.5 0 0 1 1834.5,249.8945 " fill="none" style="stroke:#000000;stroke-width:1.5;"/><line style="stroke:#000000;stroke-width:1.5;" x1="1832" x2="2013" y1="281.0508" y2="281.0508"/><text fill="#000000" font-family="sans-serif" font-size="20" font-weight="bold" lengthAdjust="spacing" textLength="162" x="1836" y="272.6563">CRMCollaborator</text><text fill="#000000" font-family="sans-serif" font-size="20" font-style="italic" lengthAdjust="spacing" textLength="111" x="1890.5" y="303.8125">«aggregate»</text></g><!--cluster CRM Manager --><g id="cluster_CRM Manager "><path d="M2078.5,249.8945 L2218.5,249.8945 A3.75,3.75 0 0 1 2221,252.3945 L2228,281.0508 L2263.5,281.0508 A2.5,2.5 0 0 1 2266,283.5508 L2266,433.3945 A2.5,2.5 0 0 1 2263.5,435.8945 L2078.5,435.8945 A2.5,2.5 0 0 1 2076,433.3945 L2076,252.3945 A2.5,2.5 0 0 1 2078.5,249.8945 " fill="none" style="stroke:#000000;stroke-width:1.5;"/><line style="stroke:#000000;stroke-width:1.5;" x1="2076" x2="2228" y1="281.0508" y2="281.0508"/><text fill="#000000" font-family="sans-serif" font-size="20" font-weight="bold" lengthAdjust="spacing" textLength="133" x="2080" y="272.6563">CRM Manager</text><text fill="#000000" font-family="sans-serif" font-size="20" font-style="italic" lengthAdjust="spacing" textLength="111" x="2119.5" y="303.8125">«aggregate»</text></g><!--cluster ModelOfDrone --><g id="cluster_ModelOfDrone "><path d="M1834.5,494.8945 L1978.5,494.8945 A3.75,3.75 0 0 1 1981,497.3945 L1988,526.0508 L1988.5,526.0508 A2.5,2.5 0 0 1 1991,528.5508 L1991,678.3945 A2.5,2.5 0 0 1 1988.5,680.8945 L1834.5,680.8945 A2.5,2.5 0 0 1 1832,678.3945 L1832,497.3945 A2.5,2.5 0 0 1 1834.5,494.8945 " fill="none" style="stroke:#000000;stroke-width:1.5;"/><line style="stroke:#000000;stroke-width:1.5;" x1="1832" x2="1988" y1="526.0508" y2="526.0508"/><text fill="#000000" font-family="sans-serif" font-size="20" font-weight="bold" lengthAdjust="spacing" textLength="137" x="1836" y="517.6563">ModelOfDrone</text><text fill="#000000" font-family="sans-serif" font-size="20" font-style="italic" lengthAdjust="spacing" textLength="111" x="1860" y="548.8125">«aggregate»</text></g><!--cluster Figure --><g id="cluster_Figure "><path d="M2017.5,494.8945 L2084.5,494.8945 A3.75,3.75 0 0 1 2087,497.3945 L2094,526.0508 L2146.5,526.0508 A2.5,2.5 0 0 1 2149,528.5508 L2149,678.3945 A2.5,2.5 0 0 1 2146.5,680.8945 L2017.5,680.8945 A2.5,2.5 0 0 1 2015,678.3945 L2015,497.3945 A2.5,2.5 0 0 1 2017.5,494.8945 " fill="none" style="stroke:#000000;stroke-width:1.5;"/><line style="stroke:#000000;stroke-width:1.5;" x1="2015" x2="2094" y1="526.0508" y2="526.0508"/><text fill="#000000" font-family="sans-serif" font-size="20" font-weight="bold" lengthAdjust="spacing" textLength="60" x="2019" y="517.6563">Figure</text><text fill="#000000" font-family="sans-serif" font-size="20" font-style="italic" lengthAdjust="spacing" textLength="111" x="2030.5" y="548.8125">«aggregate»</text></g><!--cluster ShowRequest --><g id="cluster_ShowRequest "><path d="M2292.5,249.8945 L2429.5,249.8945 A3.75,3.75 0 0 1 2432,252.3945 L2439,281.0508 L2475.5,281.0508 A2.5,2.5 0 0 1 2478,283.5508 L2478,433.3945 A2.5,2.5 0 0 1 2475.5,435.8945 L2292.5,435.8945 A2.5,2.5 0 0 1 2290,433.3945 L2290,252.3945 A2.5,2.5 0 0 1 2292.5,249.8945 " fill="none" style="stroke:#000000;stroke-width:1.5;"/><line style="stroke:#000000;stroke-width:1.5;" x1="2290" x2="2439" y1="281.0508" y2="281.0508"/><text fill="#000000" font-family="sans-serif" font-size="20" font-weight="bold" lengthAdjust="spacing" textLength="130" x="2294" y="272.6563">ShowRequest</text><text fill="#000000" font-family="sans-serif" font-size="20" font-style="italic" lengthAdjust="spacing" textLength="111" x="2332.5" y="303.8125">«aggregate»</text></g><!--cluster ShowProposal --><g id="cluster_ShowProposal "><path d="M8.5,6.8945 L151.5,6.8945 A3.75,3.75 0 0 1 154,9.3945 L161,38.0508 L1805.5,38.0508 A2.5,2.5 0 0 1 1808,40.5508 L1808,665.8945 A2.5,2.5 0 0 1 1805.5,668.3945 L8.5,668.3945 A2.5,2.5 0 0 1 6,665.8945 L6,9.3945 A2.5,2.5 0 0 1 8.5,6.8945 " fill="none" style="stroke:#000000;stroke-width:1.5;"/><line style="stroke:#000000;stroke-width:1.5;" x1="6" x2="161" y1="38.0508" y2="38.0508"/><text fill="#000000" font-family="sans-serif" font-size="20" font-weight="bold" lengthAdjust="spacing" textLength="136" x="10" y="29.6563">ShowProposal</text><text fill="#000000" font-family="sans-serif" font-size="20" font-style="italic" lengthAdjust="spacing" textLength="111" x="855.5" y="60.8125">«aggregate»</text></g><!--cluster Shared--><g id="cluster_Shared"><path d="M2355.5,713.8945 L2423.5,713.8945 A3.75,3.75 0 0 1 2426,716.3945 L2433,745.0508 L3177.5,745.0508 A2.5,2.5 0 0 1 3180,747.5508 L3180,847.3945 A2.5,2.5 0 0 1 3177.5,849.8945 L2355.5,849.8945 A2.5,2.5 0 0 1 2353,847.3945 L2353,716.3945 A2.5,2.5 0 0 1 2355.5,713.8945 " fill="none" style="stroke:#000000;stroke-width:1.5;"/><line style="stroke:#000000;stroke-width:1.5;" x1="2353" x2="2433" y1="745.0508" y2="745.0508"/><text fill="#000000" font-family="sans-serif" font-size="20" font-weight="bold" lengthAdjust="spacing" textLength="67" x="2357" y="736.6563">Shared</text></g><!--class CRMCollaborator--><g id="elem_CRMCollaborator"><rect codeLine="4" fill="#F1F1F1" height="101.4688" id="CRMCollaborator" rx="2.5" ry="2.5" style="stroke:#181818;stroke-width:0.5;" width="187" x="1848.5" y="318.8945"/><ellipse cx="1864.5" cy="361.6289" fill="#ADD1B2" rx="12" ry="12" style="stroke:#181818;stroke-width:1.0;"/><path d="M1866.6406,356.5508 Q1866.8281,356.3008 1867.0469,356.1758 Q1867.2656,356.0352 1867.5156,356.0352 Q1867.9531,356.0352 1868.2344,356.3477 Q1868.5156,356.6445 1868.5156,357.3633 L1868.5156,359.0664 Q1868.5156,359.7852 1868.2344,360.0977 Q1867.9531,360.4102 1867.5156,360.4102 Q1867.125,360.4102 1866.875,360.1758 Q1866.625,359.957 1866.5156,359.3477 Q1866.4531,358.9258 1866.2344,358.707 Q1865.8438,358.2695 1865.125,358.0039 Q1864.4063,357.7383 1863.6875,357.7383 Q1862.7813,357.7383 1862.0313,358.1289 Q1861.2813,358.5195 1860.7031,359.4102 Q1860.125,360.2852 1860.125,361.4883 L1860.125,362.7852 Q1860.125,364.2383 1861.1719,365.207 Q1862.2344,366.1758 1864.0938,366.1758 Q1865.2031,366.1758 1865.9844,365.8633 Q1866.4219,365.6914 1866.9375,365.1758 Q1867.25,364.8633 1867.4219,364.7695 Q1867.5938,364.6758 1867.8281,364.6758 Q1868.2188,364.6758 1868.5156,364.9883 Q1868.8281,365.2852 1868.8281,365.6914 Q1868.8281,366.0977 1868.4219,366.5664 Q1867.8281,367.2539 1866.8906,367.6445 Q1865.625,368.1758 1864.1094,368.1758 Q1862.3281,368.1758 1860.9063,367.4414 Q1859.75,366.8477 1858.9375,365.582 Q1858.125,364.3164 1858.125,362.832 L1858.125,361.4727 Q1858.125,359.9102 1858.8438,358.5664 Q1859.5781,357.207 1860.8594,356.4727 Q1862.1563,355.7383 1863.6094,355.7383 Q1864.4688,355.7383 1865.2188,355.9414 Q1865.9844,356.1445 1866.6406,356.5508 Z " fill="#000000"/><text fill="#000000" font-family="sans-serif" font-size="20" font-style="italic" lengthAdjust="spacing" textLength="71" x="1920.5" y="344.6563">«Entity»</text><text fill="#000000" font-family="sans-serif" font-size="20" font-style="italic" lengthAdjust="spacing" textLength="56" x="1928" y="369.8125">«root»</text><text fill="#000000" font-family="sans-serif" font-size="20" lengthAdjust="spacing" textLength="153" x="1879.5" y="394.9688">CRMCollaborator</text><line style="stroke:#181818;stroke-width:0.5;" x1="1849.5" x2="2034.5" y1="404.3633" y2="404.3633"/><line style="stroke:#181818;stroke-width:0.5;" x1="1849.5" x2="2034.5" y1="412.3633" y2="412.3633"/></g><!--class CRMManager--><g id="elem_CRMManager"><rect codeLine="10" fill="#F1F1F1" height="101.4688" id="CRMManager" rx="2.5" ry="2.5" style="stroke:#181818;stroke-width:0.5;" width="157" x="2092.5" y="318.8945"/><ellipse cx="2108.5" cy="361.6289" fill="#ADD1B2" rx="12" ry="12" style="stroke:#181818;stroke-width:1.0;"/><path d="M2110.6406,356.5508 Q2110.8281,356.3008 2111.0469,356.1758 Q2111.2656,356.0352 2111.5156,356.0352 Q2111.9531,356.0352 2112.2344,356.3477 Q2112.5156,356.6445 2112.5156,357.3633 L2112.5156,359.0664 Q2112.5156,359.7852 2112.2344,360.0977 Q2111.9531,360.4102 2111.5156,360.4102 Q2111.125,360.4102 2110.875,360.1758 Q2110.625,359.957 2110.5156,359.3477 Q2110.4531,358.9258 2110.2344,358.707 Q2109.8438,358.2695 2109.125,358.0039 Q2108.4063,357.7383 2107.6875,357.7383 Q2106.7813,357.7383 2106.0313,358.1289 Q2105.2813,358.5195 2104.7031,359.4102 Q2104.125,360.2852 2104.125,361.4883 L2104.125,362.7852 Q2104.125,364.2383 2105.1719,365.207 Q2106.2344,366.1758 2108.0938,366.1758 Q2109.2031,366.1758 2109.9844,365.8633 Q2110.4219,365.6914 2110.9375,365.1758 Q2111.25,364.8633 2111.4219,364.7695 Q2111.5938,364.6758 2111.8281,364.6758 Q2112.2188,364.6758 2112.5156,364.9883 Q2112.8281,365.2852 2112.8281,365.6914 Q2112.8281,366.0977 2112.4219,366.5664 Q2111.8281,367.2539 2110.8906,367.6445 Q2109.625,368.1758 2108.1094,368.1758 Q2106.3281,368.1758 2104.9063,367.4414 Q2103.75,366.8477 2102.9375,365.582 Q2102.125,364.3164 2102.125,362.832 L2102.125,361.4727 Q2102.125,359.9102 2102.8438,358.5664 Q2103.5781,357.207 2104.8594,356.4727 Q2106.1563,355.7383 2107.6094,355.7383 Q2108.4688,355.7383 2109.2188,355.9414 Q2109.9844,356.1445 2110.6406,356.5508 Z " fill="#000000"/><text fill="#000000" font-family="sans-serif" font-size="20" font-style="italic" lengthAdjust="spacing" textLength="71" x="2149.5" y="344.6563">«Entity»</text><text fill="#000000" font-family="sans-serif" font-size="20" font-style="italic" lengthAdjust="spacing" textLength="56" x="2157" y="369.8125">«root»</text><text fill="#000000" font-family="sans-serif" font-size="20" lengthAdjust="spacing" textLength="123" x="2123.5" y="394.9688">CRMManager</text><line style="stroke:#181818;stroke-width:0.5;" x1="2093.5" x2="2248.5" y1="404.3633" y2="404.3633"/><line style="stroke:#181818;stroke-width:0.5;" x1="2093.5" x2="2248.5" y1="412.3633" y2="412.3633"/></g><!--class Model--><g id="elem_Model"><rect codeLine="16" fill="#F1F1F1" height="101.4688" id="Model" rx="2.5" ry="2.5" style="stroke:#181818;stroke-width:0.5;" width="101" x="1848.5" y="563.8945"/><ellipse cx="1864.5" cy="606.6289" fill="#ADD1B2" rx="12" ry="12" style="stroke:#181818;stroke-width:1.0;"/><path d="M1866.6406,601.5508 Q1866.8281,601.3008 1867.0469,601.1758 Q1867.2656,601.0352 1867.5156,601.0352 Q1867.9531,601.0352 1868.2344,601.3477 Q1868.5156,601.6445 1868.5156,602.3633 L1868.5156,604.0664 Q1868.5156,604.7852 1868.2344,605.0977 Q1867.9531,605.4102 1867.5156,605.4102 Q1867.125,605.4102 1866.875,605.1758 Q1866.625,604.957 1866.5156,604.3477 Q1866.4531,603.9258 1866.2344,603.707 Q1865.8438,603.2695 1865.125,603.0039 Q1864.4063,602.7383 1863.6875,602.7383 Q1862.7813,602.7383 1862.0313,603.1289 Q1861.2813,603.5195 1860.7031,604.4102 Q1860.125,605.2852 1860.125,606.4883 L1860.125,607.7852 Q1860.125,609.2383 1861.1719,610.207 Q1862.2344,611.1758 1864.0938,611.1758 Q1865.2031,611.1758 1865.9844,610.8633 Q1866.4219,610.6914 1866.9375,610.1758 Q1867.25,609.8633 1867.4219,609.7695 Q1867.5938,609.6758 1867.8281,609.6758 Q1868.2188,609.6758 1868.5156,609.9883 Q1868.8281,610.2852 1868.8281,610.6914 Q1868.8281,611.0977 1868.4219,611.5664 Q1867.8281,612.2539 1866.8906,612.6445 Q1865.625,613.1758 1864.1094,613.1758 Q1862.3281,613.1758 1860.9063,612.4414 Q1859.75,611.8477 1858.9375,610.582 Q1858.125,609.3164 1858.125,607.832 L1858.125,606.4727 Q1858.125,604.9102 1858.8438,603.5664 Q1859.5781,602.207 1860.8594,601.4727 Q1862.1563,600.7383 1863.6094,600.7383 Q1864.4688,600.7383 1865.2188,600.9414 Q1865.9844,601.1445 1866.6406,601.5508 Z " fill="#000000"/><text fill="#000000" font-family="sans-serif" font-size="20" font-style="italic" lengthAdjust="spacing" textLength="71" x="1877.5" y="589.6563">«Entity»</text><text fill="#000000" font-family="sans-serif" font-size="20" font-style="italic" lengthAdjust="spacing" textLength="56" x="1885" y="614.8125">«root»</text><text fill="#000000" font-family="sans-serif" font-size="20" lengthAdjust="spacing" textLength="54" x="1886" y="639.9688">Model</text><line style="stroke:#181818;stroke-width:0.5;" x1="1849.5" x2="1948.5" y1="649.3633" y2="649.3633"/><line style="stroke:#181818;stroke-width:0.5;" x1="1849.5" x2="1948.5" y1="657.3633" y2="657.3633"/></g><!--class Figure--><g id="elem_Figure"><rect codeLine="23" fill="#F1F1F1" height="101.4688" id="Figure" rx="2.5" ry="2.5" style="stroke:#181818;stroke-width:0.5;" width="101" x="2031.5" y="563.8945"/><ellipse cx="2047.5" cy="606.6289" fill="#ADD1B2" rx="12" ry="12" style="stroke:#181818;stroke-width:1.0;"/><path d="M2049.6406,601.5508 Q2049.8281,601.3008 2050.0469,601.1758 Q2050.2656,601.0352 2050.5156,601.0352 Q2050.9531,601.0352 2051.2344,601.3477 Q2051.5156,601.6445 2051.5156,602.3633 L2051.5156,604.0664 Q2051.5156,604.7852 2051.2344,605.0977 Q2050.9531,605.4102 2050.5156,605.4102 Q2050.125,605.4102 2049.875,605.1758 Q2049.625,604.957 2049.5156,604.3477 Q2049.4531,603.9258 2049.2344,603.707 Q2048.8438,603.2695 2048.125,603.0039 Q2047.4063,602.7383 2046.6875,602.7383 Q2045.7813,602.7383 2045.0313,603.1289 Q2044.2813,603.5195 2043.7031,604.4102 Q2043.125,605.2852 2043.125,606.4883 L2043.125,607.7852 Q2043.125,609.2383 2044.1719,610.207 Q2045.2344,611.1758 2047.0938,611.1758 Q2048.2031,611.1758 2048.9844,610.8633 Q2049.4219,610.6914 2049.9375,610.1758 Q2050.25,609.8633 2050.4219,609.7695 Q2050.5938,609.6758 2050.8281,609.6758 Q2051.2188,609.6758 2051.5156,609.9883 Q2051.8281,610.2852 2051.8281,610.6914 Q2051.8281,611.0977 2051.4219,611.5664 Q2050.8281,612.2539 2049.8906,612.6445 Q2048.625,613.1758 2047.1094,613.1758 Q2045.3281,613.1758 2043.9063,612.4414 Q2042.75,611.8477 2041.9375,610.582 Q2041.125,609.3164 2041.125,607.832 L2041.125,606.4727 Q2041.125,604.9102 2041.8438,603.5664 Q2042.5781,602.207 2043.8594,601.4727 Q2045.1563,600.7383 2046.6094,600.7383 Q2047.4688,600.7383 2048.2188,600.9414 Q2048.9844,601.1445 2049.6406,601.5508 Z " fill="#000000"/><text fill="#000000" font-family="sans-serif" font-size="20" font-style="italic" lengthAdjust="spacing" textLength="71" x="2060.5" y="589.6563">«Entity»</text><text fill="#000000" font-family="sans-serif" font-size="20" font-style="italic" lengthAdjust="spacing" textLength="56" x="2068" y="614.8125">«root»</text><text fill="#000000" font-family="sans-serif" font-size="20" lengthAdjust="spacing" textLength="55" x="2068.5" y="639.9688">Figure</text><line style="stroke:#181818;stroke-width:0.5;" x1="2032.5" x2="2131.5" y1="649.3633" y2="649.3633"/><line style="stroke:#181818;stroke-width:0.5;" x1="2032.5" x2="2131.5" y1="657.3633" y2="657.3633"/></g><!--class ShowRequest--><g id="elem_ShowRequest"><rect codeLine="29" fill="#F1F1F1" height="101.4688" id="ShowRequest" rx="2.5" ry="2.5" style="stroke:#181818;stroke-width:0.5;" width="156" x="2306" y="318.8945"/><ellipse cx="2322" cy="361.6289" fill="#ADD1B2" rx="12" ry="12" style="stroke:#181818;stroke-width:1.0;"/><path d="M2324.1406,356.5508 Q2324.3281,356.3008 2324.5469,356.1758 Q2324.7656,356.0352 2325.0156,356.0352 Q2325.4531,356.0352 2325.7344,356.3477 Q2326.0156,356.6445 2326.0156,357.3633 L2326.0156,359.0664 Q2326.0156,359.7852 2325.7344,360.0977 Q2325.4531,360.4102 2325.0156,360.4102 Q2324.625,360.4102 2324.375,360.1758 Q2324.125,359.957 2324.0156,359.3477 Q2323.9531,358.9258 2323.7344,358.707 Q2323.3438,358.2695 2322.625,358.0039 Q2321.9063,357.7383 2321.1875,357.7383 Q2320.2813,357.7383 2319.5313,358.1289 Q2318.7813,358.5195 2318.2031,359.4102 Q2317.625,360.2852 2317.625,361.4883 L2317.625,362.7852 Q2317.625,364.2383 2318.6719,365.207 Q2319.7344,366.1758 2321.5938,366.1758 Q2322.7031,366.1758 2323.4844,365.8633 Q2323.9219,365.6914 2324.4375,365.1758 Q2324.75,364.8633 2324.9219,364.7695 Q2325.0938,364.6758 2325.3281,364.6758 Q2325.7188,364.6758 2326.0156,364.9883 Q2326.3281,365.2852 2326.3281,365.6914 Q2326.3281,366.0977 2325.9219,366.5664 Q2325.3281,367.2539 2324.3906,367.6445 Q2323.125,368.1758 2321.6094,368.1758 Q2319.8281,368.1758 2318.4063,367.4414 Q2317.25,366.8477 2316.4375,365.582 Q2315.625,364.3164 2315.625,362.832 L2315.625,361.4727 Q2315.625,359.9102 2316.3438,358.5664 Q2317.0781,357.207 2318.3594,356.4727 Q2319.6563,355.7383 2321.1094,355.7383 Q2321.9688,355.7383 2322.7188,355.9414 Q2323.4844,356.1445 2324.1406,356.5508 Z " fill="#000000"/><text fill="#000000" font-family="sans-serif" font-size="20" font-style="italic" lengthAdjust="spacing" textLength="71" x="2362.5" y="344.6563">«Entity»</text><text fill="#000000" font-family="sans-serif" font-size="20" font-style="italic" lengthAdjust="spacing" textLength="56" x="2370" y="369.8125">«root»</text><text fill="#000000" font-family="sans-serif" font-size="20" lengthAdjust="spacing" textLength="122" x="2337" y="394.9688">ShowRequest</text><line style="stroke:#181818;stroke-width:0.5;" x1="2307" x2="2461" y1="404.3633" y2="404.3633"/><line style="stroke:#181818;stroke-width:0.5;" x1="2307" x2="2461" y1="412.3633" y2="412.3633"/></g><!--class ShowProposalStatus--><g id="elem_ShowProposalStatus"><rect codeLine="36" fill="#F1F1F1" height="76.3125" id="ShowProposalStatus" rx="2.5" ry="2.5" style="stroke:#181818;stroke-width:0.5;" width="217" x="1574.5" y="331.3945"/><ellipse cx="1590.5" cy="361.5508" fill="#EB937F" rx="12" ry="12" style="stroke:#181818;stroke-width:1.0;"/><path d="M1588.4531,362.6133 L1588.4531,365.5508 L1593.5469,365.5508 L1593.5469,364.457 Q1593.5469,363.7383 1593.8281,363.4414 Q1594.1094,363.1289 1594.5625,363.1289 Q1595,363.1289 1595.2813,363.4414 Q1595.5625,363.7383 1595.5625,364.457 L1595.5625,367.5508 L1586.125,367.5508 Q1585.4063,367.5508 1585.0938,367.2695 Q1584.7969,366.9883 1584.7969,366.5508 Q1584.7969,366.0977 1585.1094,365.832 Q1585.4219,365.5508 1586.125,365.5508 L1586.4375,365.5508 L1586.4375,357.7227 L1586.125,357.7227 Q1585.4063,357.7227 1585.0938,357.4414 Q1584.7969,357.1602 1584.7969,356.707 Q1584.7969,356.2539 1585.0938,355.9883 Q1585.4063,355.707 1586.125,355.707 L1595.1094,355.707 L1595.1094,358.7539 Q1595.1094,359.4727 1594.8281,359.7852 Q1594.5625,360.082 1594.125,360.082 Q1593.6719,360.082 1593.3906,359.7852 Q1593.1094,359.4883 1593.1094,358.7539 L1593.1094,357.7227 L1588.4531,357.7227 L1588.4531,360.6133 L1590.2031,360.6133 Q1590.2031,359.832 1590.3438,359.5977 Q1590.6563,359.1289 1591.2031,359.1289 Q1591.6563,359.1289 1591.9219,359.4414 Q1592.2031,359.7383 1592.2031,360.457 L1592.2031,362.7695 Q1592.2031,363.4258 1592.0469,363.6445 Q1591.7344,364.0977 1591.2031,364.0977 Q1590.6563,364.0977 1590.3438,363.6289 Q1590.2031,363.3945 1590.2031,362.6133 L1588.4531,362.6133 Z " fill="#000000"/><text fill="#000000" font-family="sans-serif" font-size="20" font-style="italic" lengthAdjust="spacing" textLength="136" x="1629" y="357.1563">«Value Object»</text><text fill="#000000" font-family="sans-serif" font-size="20" lengthAdjust="spacing" textLength="183" x="1605.5" y="382.3125">ShowProposalStatus</text><line style="stroke:#181818;stroke-width:0.5;" x1="1575.5" x2="1790.5" y1="391.707" y2="391.707"/><line style="stroke:#181818;stroke-width:0.5;" x1="1575.5" x2="1790.5" y1="399.707" y2="399.707"/></g><!--class ShowProposal--><g id="elem_ShowProposal"><rect codeLine="39" fill="#F1F1F1" height="101.4688" id="ShowProposal" rx="2.5" ry="2.5" style="stroke:#181818;stroke-width:0.5;" width="161" x="1603.5" y="75.8945"/><ellipse cx="1619.5" cy="118.6289" fill="#ADD1B2" rx="12" ry="12" style="stroke:#181818;stroke-width:1.0;"/><path d="M1621.6406,113.5508 Q1621.8281,113.3008 1622.0469,113.1758 Q1622.2656,113.0352 1622.5156,113.0352 Q1622.9531,113.0352 1623.2344,113.3477 Q1623.5156,113.6445 1623.5156,114.3633 L1623.5156,116.0664 Q1623.5156,116.7852 1623.2344,117.0977 Q1622.9531,117.4102 1622.5156,117.4102 Q1622.125,117.4102 1621.875,117.1758 Q1621.625,116.957 1621.5156,116.3477 Q1621.4531,115.9258 1621.2344,115.707 Q1620.8438,115.2695 1620.125,115.0039 Q1619.4063,114.7383 1618.6875,114.7383 Q1617.7813,114.7383 1617.0313,115.1289 Q1616.2813,115.5195 1615.7031,116.4102 Q1615.125,117.2852 1615.125,118.4883 L1615.125,119.7852 Q1615.125,121.2383 1616.1719,122.207 Q1617.2344,123.1758 1619.0938,123.1758 Q1620.2031,123.1758 1620.9844,122.8633 Q1621.4219,122.6914 1621.9375,122.1758 Q1622.25,121.8633 1622.4219,121.7695 Q1622.5938,121.6758 1622.8281,121.6758 Q1623.2188,121.6758 1623.5156,121.9883 Q1623.8281,122.2852 1623.8281,122.6914 Q1623.8281,123.0977 1623.4219,123.5664 Q1622.8281,124.2539 1621.8906,124.6445 Q1620.625,125.1758 1619.1094,125.1758 Q1617.3281,125.1758 1615.9063,124.4414 Q1614.75,123.8477 1613.9375,122.582 Q1613.125,121.3164 1613.125,119.832 L1613.125,118.4727 Q1613.125,116.9102 1613.8438,115.5664 Q1614.5781,114.207 1615.8594,113.4727 Q1617.1563,112.7383 1618.6094,112.7383 Q1619.4688,112.7383 1620.2188,112.9414 Q1620.9844,113.1445 1621.6406,113.5508 Z " fill="#000000"/><text fill="#000000" font-family="sans-serif" font-size="20" font-style="italic" lengthAdjust="spacing" textLength="71" x="1662.5" y="101.6563">«Entity»</text><text fill="#000000" font-family="sans-serif" font-size="20" font-style="italic" lengthAdjust="spacing" textLength="56" x="1670" y="126.8125">«root»</text><text fill="#000000" font-family="sans-serif" font-size="20" lengthAdjust="spacing" textLength="127" x="1634.5" y="151.9688">ShowProposal</text><line style="stroke:#181818;stroke-width:0.5;" x1="1604.5" x2="1763.5" y1="161.3633" y2="161.3633"/><line style="stroke:#181818;stroke-width:0.5;" x1="1604.5" x2="1763.5" y1="169.3633" y2="169.3633"/></g><!--class ShowProposalTemplate--><g id="elem_ShowProposalTemplate"><rect codeLine="42" fill="#F1F1F1" height="76.3125" id="ShowProposalTemplate" rx="2.5" ry="2.5" style="stroke:#181818;stroke-width:0.5;" width="243" x="388.5" y="331.3945"/><ellipse cx="404.5" cy="361.5508" fill="#ADD1B2" rx="12" ry="12" style="stroke:#181818;stroke-width:1.0;"/><path d="M406.6406,356.4727 Q406.8281,356.2227 407.0469,356.0977 Q407.2656,355.957 407.5156,355.957 Q407.9531,355.957 408.2344,356.2695 Q408.5156,356.5664 408.5156,357.2852 L408.5156,358.9883 Q408.5156,359.707 408.2344,360.0195 Q407.9531,360.332 407.5156,360.332 Q407.125,360.332 406.875,360.0977 Q406.625,359.8789 406.5156,359.2695 Q406.4531,358.8477 406.2344,358.6289 Q405.8438,358.1914 405.125,357.9258 Q404.4063,357.6602 403.6875,357.6602 Q402.7813,357.6602 402.0313,358.0508 Q401.2813,358.4414 400.7031,359.332 Q400.125,360.207 400.125,361.4102 L400.125,362.707 Q400.125,364.1602 401.1719,365.1289 Q402.2344,366.0977 404.0938,366.0977 Q405.2031,366.0977 405.9844,365.7852 Q406.4219,365.6133 406.9375,365.0977 Q407.25,364.7852 407.4219,364.6914 Q407.5938,364.5977 407.8281,364.5977 Q408.2188,364.5977 408.5156,364.9102 Q408.8281,365.207 408.8281,365.6133 Q408.8281,366.0195 408.4219,366.4883 Q407.8281,367.1758 406.8906,367.5664 Q405.625,368.0977 404.1094,368.0977 Q402.3281,368.0977 400.9063,367.3633 Q399.75,366.7695 398.9375,365.5039 Q398.125,364.2383 398.125,362.7539 L398.125,361.3945 Q398.125,359.832 398.8438,358.4883 Q399.5781,357.1289 400.8594,356.3945 Q402.1563,355.6602 403.6094,355.6602 Q404.4688,355.6602 405.2188,355.8633 Q405.9844,356.0664 406.6406,356.4727 Z " fill="#000000"/><text fill="#000000" font-family="sans-serif" font-size="20" font-style="italic" lengthAdjust="spacing" textLength="136" x="456" y="357.1563">«Value Object»</text><text fill="#000000" font-family="sans-serif" font-size="20" lengthAdjust="spacing" textLength="209" x="419.5" y="382.3125">ShowProposalTemplate</text><line style="stroke:#181818;stroke-width:0.5;" x1="389.5" x2="630.5" y1="391.707" y2="391.707"/><line style="stroke:#181818;stroke-width:0.5;" x1="389.5" x2="630.5" y1="399.707" y2="399.707"/></g><!--class ShowProposalNumber--><g id="elem_ShowProposalNumber"><rect codeLine="45" fill="#F1F1F1" height="76.3125" id="ShowProposalNumber" rx="2.5" ry="2.5" style="stroke:#181818;stroke-width:0.5;" width="229" x="666.5" y="331.3945"/><ellipse cx="682.5" cy="361.5508" fill="#ADD1B2" rx="12" ry="12" style="stroke:#181818;stroke-width:1.0;"/><path d="M684.6406,356.4727 Q684.8281,356.2227 685.0469,356.0977 Q685.2656,355.957 685.5156,355.957 Q685.9531,355.957 686.2344,356.2695 Q686.5156,356.5664 686.5156,357.2852 L686.5156,358.9883 Q686.5156,359.707 686.2344,360.0195 Q685.9531,360.332 685.5156,360.332 Q685.125,360.332 684.875,360.0977 Q684.625,359.8789 684.5156,359.2695 Q684.4531,358.8477 684.2344,358.6289 Q683.8438,358.1914 683.125,357.9258 Q682.4063,357.6602 681.6875,357.6602 Q680.7813,357.6602 680.0313,358.0508 Q679.2813,358.4414 678.7031,359.332 Q678.125,360.207 678.125,361.4102 L678.125,362.707 Q678.125,364.1602 679.1719,365.1289 Q680.2344,366.0977 682.0938,366.0977 Q683.2031,366.0977 683.9844,365.7852 Q684.4219,365.6133 684.9375,365.0977 Q685.25,364.7852 685.4219,364.6914 Q685.5938,364.5977 685.8281,364.5977 Q686.2188,364.5977 686.5156,364.9102 Q686.8281,365.207 686.8281,365.6133 Q686.8281,366.0195 686.4219,366.4883 Q685.8281,367.1758 684.8906,367.5664 Q683.625,368.0977 682.1094,368.0977 Q680.3281,368.0977 678.9063,367.3633 Q677.75,366.7695 676.9375,365.5039 Q676.125,364.2383 676.125,362.7539 L676.125,361.3945 Q676.125,359.832 676.8438,358.4883 Q677.5781,357.1289 678.8594,356.3945 Q680.1563,355.6602 681.6094,355.6602 Q682.4688,355.6602 683.2188,355.8633 Q683.9844,356.0664 684.6406,356.4727 Z " fill="#000000"/><text fill="#000000" font-family="sans-serif" font-size="20" font-style="italic" lengthAdjust="spacing" textLength="136" x="727" y="357.1563">«Value Object»</text><text fill="#000000" font-family="sans-serif" font-size="20" lengthAdjust="spacing" textLength="195" x="697.5" y="382.3125">ShowProposalNumber</text><line style="stroke:#181818;stroke-width:0.5;" x1="667.5" x2="894.5" y1="391.707" y2="391.707"/><line style="stroke:#181818;stroke-width:0.5;" x1="667.5" x2="894.5" y1="399.707" y2="399.707"/></g><!--class Insurance--><g id="elem_Insurance"><rect codeLine="48" fill="#F1F1F1" height="76.3125" id="Insurance" rx="2.5" ry="2.5" style="stroke:#181818;stroke-width:0.5;" width="166" x="931" y="331.3945"/><ellipse cx="947" cy="361.5508" fill="#ADD1B2" rx="12" ry="12" style="stroke:#181818;stroke-width:1.0;"/><path d="M949.1406,356.4727 Q949.3281,356.2227 949.5469,356.0977 Q949.7656,355.957 950.0156,355.957 Q950.4531,355.957 950.7344,356.2695 Q951.0156,356.5664 951.0156,357.2852 L951.0156,358.9883 Q951.0156,359.707 950.7344,360.0195 Q950.4531,360.332 950.0156,360.332 Q949.625,360.332 949.375,360.0977 Q949.125,359.8789 949.0156,359.2695 Q948.9531,358.8477 948.7344,358.6289 Q948.3438,358.1914 947.625,357.9258 Q946.9063,357.6602 946.1875,357.6602 Q945.2813,357.6602 944.5313,358.0508 Q943.7813,358.4414 943.2031,359.332 Q942.625,360.207 942.625,361.4102 L942.625,362.707 Q942.625,364.1602 943.6719,365.1289 Q944.7344,366.0977 946.5938,366.0977 Q947.7031,366.0977 948.4844,365.7852 Q948.9219,365.6133 949.4375,365.0977 Q949.75,364.7852 949.9219,364.6914 Q950.0938,364.5977 950.3281,364.5977 Q950.7188,364.5977 951.0156,364.9102 Q951.3281,365.207 951.3281,365.6133 Q951.3281,366.0195 950.9219,366.4883 Q950.3281,367.1758 949.3906,367.5664 Q948.125,368.0977 946.6094,368.0977 Q944.8281,368.0977 943.4063,367.3633 Q942.25,366.7695 941.4375,365.5039 Q940.625,364.2383 940.625,362.7539 L940.625,361.3945 Q940.625,359.832 941.3438,358.4883 Q942.0781,357.1289 943.3594,356.3945 Q944.6563,355.6602 946.1094,355.6602 Q946.9688,355.6602 947.7188,355.8633 Q948.4844,356.0664 949.1406,356.4727 Z " fill="#000000"/><text fill="#000000" font-family="sans-serif" font-size="20" font-style="italic" lengthAdjust="spacing" textLength="136" x="960" y="357.1563">«Value Object»</text><text fill="#000000" font-family="sans-serif" font-size="20" lengthAdjust="spacing" textLength="85" x="985.5" y="382.3125">Insurance</text><line style="stroke:#181818;stroke-width:0.5;" x1="932" x2="1096" y1="391.707" y2="391.707"/><line style="stroke:#181818;stroke-width:0.5;" x1="932" x2="1096" y1="399.707" y2="399.707"/></g><!--class CustomerFeedback--><g id="elem_CustomerFeedback"><rect codeLine="51" fill="#F1F1F1" height="76.3125" id="CustomerFeedback" rx="2.5" ry="2.5" style="stroke:#181818;stroke-width:0.5;" width="206" x="1132" y="331.3945"/><ellipse cx="1148" cy="361.5508" fill="#ADD1B2" rx="12" ry="12" style="stroke:#181818;stroke-width:1.0;"/><path d="M1150.1406,356.4727 Q1150.3281,356.2227 1150.5469,356.0977 Q1150.7656,355.957 1151.0156,355.957 Q1151.4531,355.957 1151.7344,356.2695 Q1152.0156,356.5664 1152.0156,357.2852 L1152.0156,358.9883 Q1152.0156,359.707 1151.7344,360.0195 Q1151.4531,360.332 1151.0156,360.332 Q1150.625,360.332 1150.375,360.0977 Q1150.125,359.8789 1150.0156,359.2695 Q1149.9531,358.8477 1149.7344,358.6289 Q1149.3438,358.1914 1148.625,357.9258 Q1147.9063,357.6602 1147.1875,357.6602 Q1146.2813,357.6602 1145.5313,358.0508 Q1144.7813,358.4414 1144.2031,359.332 Q1143.625,360.207 1143.625,361.4102 L1143.625,362.707 Q1143.625,364.1602 1144.6719,365.1289 Q1145.7344,366.0977 1147.5938,366.0977 Q1148.7031,366.0977 1149.4844,365.7852 Q1149.9219,365.6133 1150.4375,365.0977 Q1150.75,364.7852 1150.9219,364.6914 Q1151.0938,364.5977 1151.3281,364.5977 Q1151.7188,364.5977 1152.0156,364.9102 Q1152.3281,365.207 1152.3281,365.6133 Q1152.3281,366.0195 1151.9219,366.4883 Q1151.3281,367.1758 1150.3906,367.5664 Q1149.125,368.0977 1147.6094,368.0977 Q1145.8281,368.0977 1144.4063,367.3633 Q1143.25,366.7695 1142.4375,365.5039 Q1141.625,364.2383 1141.625,362.7539 L1141.625,361.3945 Q1141.625,359.832 1142.3438,358.4883 Q1143.0781,357.1289 1144.3594,356.3945 Q1145.6563,355.6602 1147.1094,355.6602 Q1147.9688,355.6602 1148.7188,355.8633 Q1149.4844,356.0664 1150.1406,356.4727 Z " fill="#000000"/><text fill="#000000" font-family="sans-serif" font-size="20" font-style="italic" lengthAdjust="spacing" textLength="136" x="1181" y="357.1563">«Value Object»</text><text fill="#000000" font-family="sans-serif" font-size="20" lengthAdjust="spacing" textLength="172" x="1163" y="382.3125">CustomerFeedback</text><line style="stroke:#181818;stroke-width:0.5;" x1="1133" x2="1337" y1="391.707" y2="391.707"/><line style="stroke:#181818;stroke-width:0.5;" x1="1133" x2="1337" y1="399.707" y2="399.707"/></g><!--class ShowConfiguration--><g id="elem_ShowConfiguration"><rect codeLine="54" fill="#F1F1F1" height="76.3125" id="ShowConfiguration" rx="2.5" ry="2.5" style="stroke:#181818;stroke-width:0.5;" width="198" x="155" y="331.3945"/><ellipse cx="171" cy="361.5508" fill="#ADD1B2" rx="12" ry="12" style="stroke:#181818;stroke-width:1.0;"/><path d="M173.1406,356.4727 Q173.3281,356.2227 173.5469,356.0977 Q173.7656,355.957 174.0156,355.957 Q174.4531,355.957 174.7344,356.2695 Q175.0156,356.5664 175.0156,357.2852 L175.0156,358.9883 Q175.0156,359.707 174.7344,360.0195 Q174.4531,360.332 174.0156,360.332 Q173.625,360.332 173.375,360.0977 Q173.125,359.8789 173.0156,359.2695 Q172.9531,358.8477 172.7344,358.6289 Q172.3438,358.1914 171.625,357.9258 Q170.9063,357.6602 170.1875,357.6602 Q169.2813,357.6602 168.5313,358.0508 Q167.7813,358.4414 167.2031,359.332 Q166.625,360.207 166.625,361.4102 L166.625,362.707 Q166.625,364.1602 167.6719,365.1289 Q168.7344,366.0977 170.5938,366.0977 Q171.7031,366.0977 172.4844,365.7852 Q172.9219,365.6133 173.4375,365.0977 Q173.75,364.7852 173.9219,364.6914 Q174.0938,364.5977 174.3281,364.5977 Q174.7188,364.5977 175.0156,364.9102 Q175.3281,365.207 175.3281,365.6133 Q175.3281,366.0195 174.9219,366.4883 Q174.3281,367.1758 173.3906,367.5664 Q172.125,368.0977 170.6094,368.0977 Q168.8281,368.0977 167.4063,367.3633 Q166.25,366.7695 165.4375,365.5039 Q164.625,364.2383 164.625,362.7539 L164.625,361.3945 Q164.625,359.832 165.3438,358.4883 Q166.0781,357.1289 167.3594,356.3945 Q168.6563,355.6602 170.1094,355.6602 Q170.9688,355.6602 171.7188,355.8633 Q172.4844,356.0664 173.1406,356.4727 Z " fill="#000000"/><text fill="#000000" font-family="sans-serif" font-size="20" font-style="italic" lengthAdjust="spacing" textLength="71" x="232.5" y="357.1563">«Entity»</text><text fill="#000000" font-family="sans-serif" font-size="20" lengthAdjust="spacing" textLength="164" x="186" y="382.3125">ShowConfiguration</text><line style="stroke:#181818;stroke-width:0.5;" x1="156" x2="352" y1="391.707" y2="391.707"/><line style="stroke:#181818;stroke-width:0.5;" x1="156" x2="352" y1="399.707" y2="399.707"/></g><!--class Video--><g id="elem_Video"><rect codeLine="57" fill="#F1F1F1" height="76.3125" id="Video" rx="2.5" ry="2.5" style="stroke:#181818;stroke-width:0.5;" width="166" x="1373" y="331.3945"/><ellipse cx="1389" cy="361.5508" fill="#ADD1B2" rx="12" ry="12" style="stroke:#181818;stroke-width:1.0;"/><path d="M1391.1406,356.4727 Q1391.3281,356.2227 1391.5469,356.0977 Q1391.7656,355.957 1392.0156,355.957 Q1392.4531,355.957 1392.7344,356.2695 Q1393.0156,356.5664 1393.0156,357.2852 L1393.0156,358.9883 Q1393.0156,359.707 1392.7344,360.0195 Q1392.4531,360.332 1392.0156,360.332 Q1391.625,360.332 1391.375,360.0977 Q1391.125,359.8789 1391.0156,359.2695 Q1390.9531,358.8477 1390.7344,358.6289 Q1390.3438,358.1914 1389.625,357.9258 Q1388.9063,357.6602 1388.1875,357.6602 Q1387.2813,357.6602 1386.5313,358.0508 Q1385.7813,358.4414 1385.2031,359.332 Q1384.625,360.207 1384.625,361.4102 L1384.625,362.707 Q1384.625,364.1602 1385.6719,365.1289 Q1386.7344,366.0977 1388.5938,366.0977 Q1389.7031,366.0977 1390.4844,365.7852 Q1390.9219,365.6133 1391.4375,365.0977 Q1391.75,364.7852 1391.9219,364.6914 Q1392.0938,364.5977 1392.3281,364.5977 Q1392.7188,364.5977 1393.0156,364.9102 Q1393.3281,365.207 1393.3281,365.6133 Q1393.3281,366.0195 1392.9219,366.4883 Q1392.3281,367.1758 1391.3906,367.5664 Q1390.125,368.0977 1388.6094,368.0977 Q1386.8281,368.0977 1385.4063,367.3633 Q1384.25,366.7695 1383.4375,365.5039 Q1382.625,364.2383 1382.625,362.7539 L1382.625,361.3945 Q1382.625,359.832 1383.3438,358.4883 Q1384.0781,357.1289 1385.3594,356.3945 Q1386.6563,355.6602 1388.1094,355.6602 Q1388.9688,355.6602 1389.7188,355.8633 Q1390.4844,356.0664 1391.1406,356.4727 Z " fill="#000000"/><text fill="#000000" font-family="sans-serif" font-size="20" font-style="italic" lengthAdjust="spacing" textLength="136" x="1402" y="357.1563">«Value Object»</text><text fill="#000000" font-family="sans-serif" font-size="20" lengthAdjust="spacing" textLength="50" x="1445" y="382.3125">Video</text><line style="stroke:#181818;stroke-width:0.5;" x1="1374" x2="1538" y1="391.707" y2="391.707"/><line style="stroke:#181818;stroke-width:0.5;" x1="1374" x2="1538" y1="399.707" y2="399.707"/></g><!--class TemplateValidate--><g id="elem_TemplateValidate"><rect codeLine="60" fill="#F1F1F1" height="76.3125" id="TemplateValidate" rx="2.5" ry="2.5" style="stroke:#181818;stroke-width:0.5;" width="187" x="416.5" y="88.3945"/><ellipse cx="432.5" cy="118.5508" fill="#ADD1B2" rx="12" ry="12" style="stroke:#181818;stroke-width:1.0;"/><path d="M434.6406,113.4727 Q434.8281,113.2227 435.0469,113.0977 Q435.2656,112.957 435.5156,112.957 Q435.9531,112.957 436.2344,113.2695 Q436.5156,113.5664 436.5156,114.2852 L436.5156,115.9883 Q436.5156,116.707 436.2344,117.0195 Q435.9531,117.332 435.5156,117.332 Q435.125,117.332 434.875,117.0977 Q434.625,116.8789 434.5156,116.2695 Q434.4531,115.8477 434.2344,115.6289 Q433.8438,115.1914 433.125,114.9258 Q432.4063,114.6602 431.6875,114.6602 Q430.7813,114.6602 430.0313,115.0508 Q429.2813,115.4414 428.7031,116.332 Q428.125,117.207 428.125,118.4102 L428.125,119.707 Q428.125,121.1602 429.1719,122.1289 Q430.2344,123.0977 432.0938,123.0977 Q433.2031,123.0977 433.9844,122.7852 Q434.4219,122.6133 434.9375,122.0977 Q435.25,121.7852 435.4219,121.6914 Q435.5938,121.5977 435.8281,121.5977 Q436.2188,121.5977 436.5156,121.9102 Q436.8281,122.207 436.8281,122.6133 Q436.8281,123.0195 436.4219,123.4883 Q435.8281,124.1758 434.8906,124.5664 Q433.625,125.0977 432.1094,125.0977 Q430.3281,125.0977 428.9063,124.3633 Q427.75,123.7695 426.9375,122.5039 Q426.125,121.2383 426.125,119.7539 L426.125,118.3945 Q426.125,116.832 426.8438,115.4883 Q427.5781,114.1289 428.8594,113.3945 Q430.1563,112.6602 431.6094,112.6602 Q432.4688,112.6602 433.2188,112.8633 Q433.9844,113.0664 434.6406,113.4727 Z " fill="#000000"/><text fill="#000000" font-family="sans-serif" font-size="20" font-style="italic" lengthAdjust="spacing" textLength="89" x="479.5" y="114.1563">«Service»</text><text fill="#000000" font-family="sans-serif" font-size="20" lengthAdjust="spacing" textLength="153" x="447.5" y="139.3125">TemplateValidate</text><line style="stroke:#181818;stroke-width:0.5;" x1="417.5" x2="602.5" y1="148.707" y2="148.707"/><line style="stroke:#181818;stroke-width:0.5;" x1="417.5" x2="602.5" y1="156.707" y2="156.707"/></g><!--class ShowDSLDescription--><g id="elem_ShowDSLDescription"><rect codeLine="63" fill="#F1F1F1" height="76.3125" id="ShowDSLDescription" rx="2.5" ry="2.5" style="stroke:#181818;stroke-width:0.5;" width="219" x="83.5" y="576.3945"/><ellipse cx="99.5" cy="606.5508" fill="#ADD1B2" rx="12" ry="12" style="stroke:#181818;stroke-width:1.0;"/><path d="M101.6406,601.4727 Q101.8281,601.2227 102.0469,601.0977 Q102.2656,600.957 102.5156,600.957 Q102.9531,600.957 103.2344,601.2695 Q103.5156,601.5664 103.5156,602.2852 L103.5156,603.9883 Q103.5156,604.707 103.2344,605.0195 Q102.9531,605.332 102.5156,605.332 Q102.125,605.332 101.875,605.0977 Q101.625,604.8789 101.5156,604.2695 Q101.4531,603.8477 101.2344,603.6289 Q100.8438,603.1914 100.125,602.9258 Q99.4063,602.6602 98.6875,602.6602 Q97.7813,602.6602 97.0313,603.0508 Q96.2813,603.4414 95.7031,604.332 Q95.125,605.207 95.125,606.4102 L95.125,607.707 Q95.125,609.1602 96.1719,610.1289 Q97.2344,611.0977 99.0938,611.0977 Q100.2031,611.0977 100.9844,610.7852 Q101.4219,610.6133 101.9375,610.0977 Q102.25,609.7852 102.4219,609.6914 Q102.5938,609.5977 102.8281,609.5977 Q103.2188,609.5977 103.5156,609.9102 Q103.8281,610.207 103.8281,610.6133 Q103.8281,611.0195 103.4219,611.4883 Q102.8281,612.1758 101.8906,612.5664 Q100.625,613.0977 99.1094,613.0977 Q97.3281,613.0977 95.9063,612.3633 Q94.75,611.7695 93.9375,610.5039 Q93.125,609.2383 93.125,607.7539 L93.125,606.3945 Q93.125,604.832 93.8438,603.4883 Q94.5781,602.1289 95.8594,601.3945 Q97.1563,600.6602 98.6094,600.6602 Q99.4688,600.6602 100.2188,600.8633 Q100.9844,601.0664 101.6406,601.4727 Z " fill="#000000"/><text fill="#000000" font-family="sans-serif" font-size="20" font-style="italic" lengthAdjust="spacing" textLength="136" x="139" y="602.1563">«Value Object»</text><text fill="#000000" font-family="sans-serif" font-size="20" lengthAdjust="spacing" textLength="185" x="114.5" y="627.3125">ShowDSLDescription</text><line style="stroke:#181818;stroke-width:0.5;" x1="84.5" x2="301.5" y1="636.707" y2="636.707"/><line style="stroke:#181818;stroke-width:0.5;" x1="84.5" x2="301.5" y1="644.707" y2="644.707"/></g><!--class GenerateShowDSL--><g id="elem_GenerateShowDSL"><rect codeLine="66" fill="#F1F1F1" height="76.3125" id="GenerateShowDSL" rx="2.5" ry="2.5" style="stroke:#181818;stroke-width:0.5;" width="204" x="55" y="88.3945"/><ellipse cx="71" cy="118.5508" fill="#ADD1B2" rx="12" ry="12" style="stroke:#181818;stroke-width:1.0;"/><path d="M73.1406,113.4727 Q73.3281,113.2227 73.5469,113.0977 Q73.7656,112.957 74.0156,112.957 Q74.4531,112.957 74.7344,113.2695 Q75.0156,113.5664 75.0156,114.2852 L75.0156,115.9883 Q75.0156,116.707 74.7344,117.0195 Q74.4531,117.332 74.0156,117.332 Q73.625,117.332 73.375,117.0977 Q73.125,116.8789 73.0156,116.2695 Q72.9531,115.8477 72.7344,115.6289 Q72.3438,115.1914 71.625,114.9258 Q70.9063,114.6602 70.1875,114.6602 Q69.2813,114.6602 68.5313,115.0508 Q67.7813,115.4414 67.2031,116.332 Q66.625,117.207 66.625,118.4102 L66.625,119.707 Q66.625,121.1602 67.6719,122.1289 Q68.7344,123.0977 70.5938,123.0977 Q71.7031,123.0977 72.4844,122.7852 Q72.9219,122.6133 73.4375,122.0977 Q73.75,121.7852 73.9219,121.6914 Q74.0938,121.5977 74.3281,121.5977 Q74.7188,121.5977 75.0156,121.9102 Q75.3281,122.207 75.3281,122.6133 Q75.3281,123.0195 74.9219,123.4883 Q74.3281,124.1758 73.3906,124.5664 Q72.125,125.0977 70.6094,125.0977 Q68.8281,125.0977 67.4063,124.3633 Q66.25,123.7695 65.4375,122.5039 Q64.625,121.2383 64.625,119.7539 L64.625,118.3945 Q64.625,116.832 65.3438,115.4883 Q66.0781,114.1289 67.3594,113.3945 Q68.6563,112.6602 70.1094,112.6602 Q70.9688,112.6602 71.7188,112.8633 Q72.4844,113.0664 73.1406,113.4727 Z " fill="#000000"/><text fill="#000000" font-family="sans-serif" font-size="20" font-style="italic" lengthAdjust="spacing" textLength="89" x="126.5" y="114.1563">«Service»</text><text fill="#000000" font-family="sans-serif" font-size="20" lengthAdjust="spacing" textLength="170" x="86" y="139.3125">GenerateShowDSL</text><line style="stroke:#181818;stroke-width:0.5;" x1="56" x2="258" y1="148.707" y2="148.707"/><line style="stroke:#181818;stroke-width:0.5;" x1="56" x2="258" y1="156.707" y2="156.707"/></g><!--class Time--><g id="elem_Time"><rect codeLine="96" fill="#F1F1F1" height="76.3125" id="Time" rx="2.5" ry="2.5" style="stroke:#181818;stroke-width:0.5;" width="166" x="2369" y="757.8945"/><ellipse cx="2385" cy="788.0508" fill="#ADD1B2" rx="12" ry="12" style="stroke:#181818;stroke-width:1.0;"/><path d="M2387.1406,782.9727 Q2387.3281,782.7227 2387.5469,782.5977 Q2387.7656,782.457 2388.0156,782.457 Q2388.4531,782.457 2388.7344,782.7695 Q2389.0156,783.0664 2389.0156,783.7852 L2389.0156,785.4883 Q2389.0156,786.207 2388.7344,786.5195 Q2388.4531,786.832 2388.0156,786.832 Q2387.625,786.832 2387.375,786.5977 Q2387.125,786.3789 2387.0156,785.7695 Q2386.9531,785.3477 2386.7344,785.1289 Q2386.3438,784.6914 2385.625,784.4258 Q2384.9063,784.1602 2384.1875,784.1602 Q2383.2813,784.1602 2382.5313,784.5508 Q2381.7813,784.9414 2381.2031,785.832 Q2380.625,786.707 2380.625,787.9102 L2380.625,789.207 Q2380.625,790.6602 2381.6719,791.6289 Q2382.7344,792.5977 2384.5938,792.5977 Q2385.7031,792.5977 2386.4844,792.2852 Q2386.9219,792.1133 2387.4375,791.5977 Q2387.75,791.2852 2387.9219,791.1914 Q2388.0938,791.0977 2388.3281,791.0977 Q2388.7188,791.0977 2389.0156,791.4102 Q2389.3281,791.707 2389.3281,792.1133 Q2389.3281,792.5195 2388.9219,792.9883 Q2388.3281,793.6758 2387.3906,794.0664 Q2386.125,794.5977 2384.6094,794.5977 Q2382.8281,794.5977 2381.4063,793.8633 Q2380.25,793.2695 2379.4375,792.0039 Q2378.625,790.7383 2378.625,789.2539 L2378.625,787.8945 Q2378.625,786.332 2379.3438,784.9883 Q2380.0781,783.6289 2381.3594,782.8945 Q2382.6563,782.1602 2384.1094,782.1602 Q2384.9688,782.1602 2385.7188,782.3633 Q2386.4844,782.5664 2387.1406,782.9727 Z " fill="#000000"/><text fill="#000000" font-family="sans-serif" font-size="20" font-style="italic" lengthAdjust="spacing" textLength="136" x="2398" y="783.6563">«Value Object»</text><text fill="#000000" font-family="sans-serif" font-size="20" lengthAdjust="spacing" textLength="43" x="2444.5" y="808.8125">Time</text><line style="stroke:#181818;stroke-width:0.5;" x1="2370" x2="2534" y1="818.207" y2="818.207"/><line style="stroke:#181818;stroke-width:0.5;" x1="2370" x2="2534" y1="826.207" y2="826.207"/></g><!--class Date--><g id="elem_Date"><rect codeLine="99" fill="#F1F1F1" height="76.3125" id="Date" rx="2.5" ry="2.5" style="stroke:#181818;stroke-width:0.5;" width="166" x="2570" y="757.8945"/><ellipse cx="2586" cy="788.0508" fill="#ADD1B2" rx="12" ry="12" style="stroke:#181818;stroke-width:1.0;"/><path d="M2588.1406,782.9727 Q2588.3281,782.7227 2588.5469,782.5977 Q2588.7656,782.457 2589.0156,782.457 Q2589.4531,782.457 2589.7344,782.7695 Q2590.0156,783.0664 2590.0156,783.7852 L2590.0156,785.4883 Q2590.0156,786.207 2589.7344,786.5195 Q2589.4531,786.832 2589.0156,786.832 Q2588.625,786.832 2588.375,786.5977 Q2588.125,786.3789 2588.0156,785.7695 Q2587.9531,785.3477 2587.7344,785.1289 Q2587.3438,784.6914 2586.625,784.4258 Q2585.9063,784.1602 2585.1875,784.1602 Q2584.2813,784.1602 2583.5313,784.5508 Q2582.7813,784.9414 2582.2031,785.832 Q2581.625,786.707 2581.625,787.9102 L2581.625,789.207 Q2581.625,790.6602 2582.6719,791.6289 Q2583.7344,792.5977 2585.5938,792.5977 Q2586.7031,792.5977 2587.4844,792.2852 Q2587.9219,792.1133 2588.4375,791.5977 Q2588.75,791.2852 2588.9219,791.1914 Q2589.0938,791.0977 2589.3281,791.0977 Q2589.7188,791.0977 2590.0156,791.4102 Q2590.3281,791.707 2590.3281,792.1133 Q2590.3281,792.5195 2589.9219,792.9883 Q2589.3281,793.6758 2588.3906,794.0664 Q2587.125,794.5977 2585.6094,794.5977 Q2583.8281,794.5977 2582.4063,793.8633 Q2581.25,793.2695 2580.4375,792.0039 Q2579.625,790.7383 2579.625,789.2539 L2579.625,787.8945 Q2579.625,786.332 2580.3438,784.9883 Q2581.0781,783.6289 2582.3594,782.8945 Q2583.6563,782.1602 2585.1094,782.1602 Q2585.9688,782.1602 2586.7188,782.3633 Q2587.4844,782.5664 2588.1406,782.9727 Z " fill="#000000"/><text fill="#000000" font-family="sans-serif" font-size="20" font-style="italic" lengthAdjust="spacing" textLength="136" x="2599" y="783.6563">«Value Object»</text><text fill="#000000" font-family="sans-serif" font-size="20" lengthAdjust="spacing" textLength="42" x="2646" y="808.8125">Date</text><line style="stroke:#181818;stroke-width:0.5;" x1="2571" x2="2735" y1="818.207" y2="818.207"/><line style="stroke:#181818;stroke-width:0.5;" x1="2571" x2="2735" y1="826.207" y2="826.207"/></g><!--class Duration--><g id="elem_Duration"><rect codeLine="102" fill="#F1F1F1" height="76.3125" id="Duration" rx="2.5" ry="2.5" style="stroke:#181818;stroke-width:0.5;" width="166" x="2771" y="757.8945"/><ellipse cx="2787" cy="788.0508" fill="#ADD1B2" rx="12" ry="12" style="stroke:#181818;stroke-width:1.0;"/><path d="M2789.1406,782.9727 Q2789.3281,782.7227 2789.5469,782.5977 Q2789.7656,782.457 2790.0156,782.457 Q2790.4531,782.457 2790.7344,782.7695 Q2791.0156,783.0664 2791.0156,783.7852 L2791.0156,785.4883 Q2791.0156,786.207 2790.7344,786.5195 Q2790.4531,786.832 2790.0156,786.832 Q2789.625,786.832 2789.375,786.5977 Q2789.125,786.3789 2789.0156,785.7695 Q2788.9531,785.3477 2788.7344,785.1289 Q2788.3438,784.6914 2787.625,784.4258 Q2786.9063,784.1602 2786.1875,784.1602 Q2785.2813,784.1602 2784.5313,784.5508 Q2783.7813,784.9414 2783.2031,785.832 Q2782.625,786.707 2782.625,787.9102 L2782.625,789.207 Q2782.625,790.6602 2783.6719,791.6289 Q2784.7344,792.5977 2786.5938,792.5977 Q2787.7031,792.5977 2788.4844,792.2852 Q2788.9219,792.1133 2789.4375,791.5977 Q2789.75,791.2852 2789.9219,791.1914 Q2790.0938,791.0977 2790.3281,791.0977 Q2790.7188,791.0977 2791.0156,791.4102 Q2791.3281,791.707 2791.3281,792.1133 Q2791.3281,792.5195 2790.9219,792.9883 Q2790.3281,793.6758 2789.3906,794.0664 Q2788.125,794.5977 2786.6094,794.5977 Q2784.8281,794.5977 2783.4063,793.8633 Q2782.25,793.2695 2781.4375,792.0039 Q2780.625,790.7383 2780.625,789.2539 L2780.625,787.8945 Q2780.625,786.332 2781.3438,784.9883 Q2782.0781,783.6289 2783.3594,782.8945 Q2784.6563,782.1602 2786.1094,782.1602 Q2786.9688,782.1602 2787.7188,782.3633 Q2788.4844,782.5664 2789.1406,782.9727 Z " fill="#000000"/><text fill="#000000" font-family="sans-serif" font-size="20" font-style="italic" lengthAdjust="spacing" textLength="136" x="2800" y="783.6563">«Value Object»</text><text fill="#000000" font-family="sans-serif" font-size="20" lengthAdjust="spacing" textLength="73" x="2831.5" y="808.8125">Duration</text><line style="stroke:#181818;stroke-width:0.5;" x1="2772" x2="2936" y1="818.207" y2="818.207"/><line style="stroke:#181818;stroke-width:0.5;" x1="2772" x2="2936" y1="826.207" y2="826.207"/></g><!--class QuantityOfDrones--><g id="elem_QuantityOfDrones"><rect codeLine="105" fill="#F1F1F1" height="76.3125" id="QuantityOfDrones" rx="2.5" ry="2.5" style="stroke:#181818;stroke-width:0.5;" width="192" x="2972" y="757.8945"/><ellipse cx="2988" cy="788.0508" fill="#ADD1B2" rx="12" ry="12" style="stroke:#181818;stroke-width:1.0;"/><path d="M2990.1406,782.9727 Q2990.3281,782.7227 2990.5469,782.5977 Q2990.7656,782.457 2991.0156,782.457 Q2991.4531,782.457 2991.7344,782.7695 Q2992.0156,783.0664 2992.0156,783.7852 L2992.0156,785.4883 Q2992.0156,786.207 2991.7344,786.5195 Q2991.4531,786.832 2991.0156,786.832 Q2990.625,786.832 2990.375,786.5977 Q2990.125,786.3789 2990.0156,785.7695 Q2989.9531,785.3477 2989.7344,785.1289 Q2989.3438,784.6914 2988.625,784.4258 Q2987.9063,784.1602 2987.1875,784.1602 Q2986.2813,784.1602 2985.5313,784.5508 Q2984.7813,784.9414 2984.2031,785.832 Q2983.625,786.707 2983.625,787.9102 L2983.625,789.207 Q2983.625,790.6602 2984.6719,791.6289 Q2985.7344,792.5977 2987.5938,792.5977 Q2988.7031,792.5977 2989.4844,792.2852 Q2989.9219,792.1133 2990.4375,791.5977 Q2990.75,791.2852 2990.9219,791.1914 Q2991.0938,791.0977 2991.3281,791.0977 Q2991.7188,791.0977 2992.0156,791.4102 Q2992.3281,791.707 2992.3281,792.1133 Q2992.3281,792.5195 2991.9219,792.9883 Q2991.3281,793.6758 2990.3906,794.0664 Q2989.125,794.5977 2987.6094,794.5977 Q2985.8281,794.5977 2984.4063,793.8633 Q2983.25,793.2695 2982.4375,792.0039 Q2981.625,790.7383 2981.625,789.2539 L2981.625,787.8945 Q2981.625,786.332 2982.3438,784.9883 Q2983.0781,783.6289 2984.3594,782.8945 Q2985.6563,782.1602 2987.1094,782.1602 Q2987.9688,782.1602 2988.7188,782.3633 Q2989.4844,782.5664 2990.1406,782.9727 Z " fill="#000000"/><text fill="#000000" font-family="sans-serif" font-size="20" font-style="italic" lengthAdjust="spacing" textLength="136" x="3014" y="783.6563">«Value Object»</text><text fill="#000000" font-family="sans-serif" font-size="20" lengthAdjust="spacing" textLength="158" x="3003" y="808.8125">QuantityOfDrones</text><line style="stroke:#181818;stroke-width:0.5;" x1="2973" x2="3163" y1="818.207" y2="818.207"/><line style="stroke:#181818;stroke-width:0.5;" x1="2973" x2="3163" y1="826.207" y2="826.207"/></g><!--link ShowProposal to CustomerFeedback--><g id="link_ShowProposal_CustomerFeedback"><path codeLine="70" d="M1603.43,137.2345 C1541.43,147.5145 1455.41,167.8445 1389,206.8945 C1337.33,237.2745 1291.87,289.9245 1263.98,326.8245 " fill="none" id="ShowProposal-to-CustomerFeedback" style="stroke:#181818;stroke-width:1.0;"/><polygon fill="#181818" points="1260.67,331.2445,1269.27,326.4445,1263.67,327.2445,1262.87,321.6445,1260.67,331.2445" style="stroke:#181818;stroke-width:1.0;"/><text fill="#000000" font-family="sans-serif" font-size="20" lengthAdjust="spacing" textLength="168" x="1390" y="228.6563">customerFeedback</text><text fill="#000000" font-family="sans-serif" font-size="20" lengthAdjust="spacing" textLength="11" x="1252.8846" y="318.9215">1</text></g><!--link ShowProposal to CRMCollaborator--><g id="link_ShowProposal_CRMCollaborator"><path codeLine="71" d="M1764.72,164.5945 C1785.91,176.4245 1807.88,190.7045 1826,206.8945 C1860.49,237.7145 1890.66,280.5045 1911.57,314.3045 " fill="none" id="ShowProposal-to-CRMCollaborator" style="stroke:#181818;stroke-width:1.0;"/><polygon fill="#181818" points="1914.33,318.8045,1913.0435,309.0401,1911.7199,314.5399,1906.22,313.2163,1914.33,318.8045" style="stroke:#181818;stroke-width:1.0;"/><text fill="#000000" font-family="sans-serif" font-size="20" lengthAdjust="spacing" textLength="94" x="1854" y="228.6563">created by</text><text fill="#000000" font-family="sans-serif" font-size="20" lengthAdjust="spacing" textLength="11" x="1899.0801" y="306.4628">1</text></g><!--link ShowProposal to CRMManager--><g id="link_ShowProposal_CRMManager"><path codeLine="72" d="M1764.62,139.0345 C1843.18,153.3345 1963.41,183.2845 2052,241.8945 C2081.6,261.4745 2109.14,289.7945 2130.25,314.6745 " fill="none" id="ShowProposal-to-CRMManager" style="stroke:#181818;stroke-width:1.0;"/><polygon fill="#181818" points="2133.58,318.6345,2130.8392,309.1747,2130.358,314.8111,2124.7216,314.3299,2133.58,318.6345" style="stroke:#181818;stroke-width:1.0;"/><text fill="#000000" font-family="sans-serif" font-size="20" lengthAdjust="spacing" textLength="200" x="2036" y="228.6563">template configured by</text><text fill="#000000" font-family="sans-serif" font-size="20" lengthAdjust="spacing" textLength="11" x="2117.3491" y="306.6674">1</text></g><!--link ShowProposal to ShowRequest--><g id="link_ShowProposal_ShowRequest"><path codeLine="73" d="M1764.55,131.8545 C1899.35,140.4445 2163.87,162.5245 2245,206.8945 C2290.38,231.7145 2327.65,277.5945 2352.14,314.1345 " fill="none" id="ShowProposal-to-ShowRequest" style="stroke:#181818;stroke-width:1.0;"/><polygon fill="#181818" points="2355.06,318.5345,2353.419,308.8233,2352.2964,314.3677,2346.7521,313.2451,2355.06,318.5345" style="stroke:#181818;stroke-width:1.0;"/><text fill="#000000" font-family="sans-serif" font-size="20" lengthAdjust="spacing" textLength="81" x="2284" y="228.6563">based on</text><text fill="#000000" font-family="sans-serif" font-size="20" lengthAdjust="spacing" textLength="11" x="2339.8626" y="306.5552">1</text></g><!--link ShowProposal to ShowProposalStatus--><g id="link_ShowProposal_ShowProposalStatus"><path codeLine="74" d="M1683.79,177.0345 C1683.61,220.9045 1683.35,284.2145 1683.18,325.8145 " fill="none" id="ShowProposal-to-ShowProposalStatus" style="stroke:#181818;stroke-width:1.0;"/><polygon fill="#181818" points="1683.16,331.0345,1687.2114,322.0575,1683.1886,326.0346,1679.2115,322.0118,1683.16,331.0345" style="stroke:#181818;stroke-width:1.0;"/><text fill="#000000" font-family="sans-serif" font-size="20" lengthAdjust="spacing" textLength="132" x="1685" y="228.6563">proposalStatus</text><text fill="#000000" font-family="sans-serif" font-size="20" lengthAdjust="spacing" textLength="11" x="1671.3423" y="318.9963">1</text></g><!--link ShowProposal to ShowProposalTemplate--><g id="link_ShowProposal_ShowProposalTemplate"><path codeLine="75" d="M1603.42,131.6145 C1424.29,141.5645 997.88,168.5745 859,206.8945 C831.98,214.3545 829.18,227.0345 802,233.8945 C768.99,242.2245 680.42,228.7845 649,241.8945 C605.63,259.9945 567.06,297.7645 541.62,327.3545 " fill="none" id="ShowProposal-to-ShowProposalTemplate" style="stroke:#181818;stroke-width:1.0;"/><polygon fill="#181818" points="538.27,331.2845,547.1471,327.0186,541.5087,327.4752,541.0521,321.8368,538.27,331.2845" style="stroke:#181818;stroke-width:1.0;"/><text fill="#000000" font-family="sans-serif" font-size="20" lengthAdjust="spacing" textLength="76" x="860" y="228.6563">template</text><text fill="#000000" font-family="sans-serif" font-size="20" lengthAdjust="spacing" textLength="11" x="530.899" y="318.9678">1</text></g><!--link ShowProposal to ShowProposalNumber--><g id="link_ShowProposal_ShowProposalNumber"><path codeLine="76" d="M1603.48,132.4345 C1446.02,142.9645 1102.92,169.4945 991,206.8945 C968.52,214.4045 966.95,224.9245 945,233.8945 C931.43,239.4345 925.83,234.8045 913,241.8945 C874.07,263.3945 838.21,299.2545 813.73,327.3145 " fill="none" id="ShowProposal-to-ShowProposalNumber" style="stroke:#181818;stroke-width:1.0;"/><polygon fill="#181818" points="810.2,331.3945,819.1189,327.2169,813.4763,327.6175,813.0757,321.9749,810.2,331.3945" style="stroke:#181818;stroke-width:1.0;"/><text fill="#000000" font-family="sans-serif" font-size="20" lengthAdjust="spacing" textLength="144" x="992" y="228.6563">proposalNumber</text><text fill="#000000" font-family="sans-serif" font-size="20" lengthAdjust="spacing" textLength="11" x="802.9772" y="319.0954">1</text></g><!--link ShowProposal to Insurance--><g id="link_ShowProposal_Insurance"><path codeLine="77" d="M1603.27,141.4645 C1518.18,156.5645 1380.32,181.7745 1262,206.8945 C1253.74,208.6445 1121.13,237.3545 1114,241.8945 C1081.05,262.8745 1054.31,298.5645 1036.8,326.7045 " fill="none" id="ShowProposal-to-Insurance" style="stroke:#181818;stroke-width:1.0;"/><polygon fill="#181818" points="1034.07,331.1445,1042.1883,325.5684,1036.6865,326.8838,1035.3711,321.382,1034.07,331.1445" style="stroke:#181818;stroke-width:1.0;"/><text fill="#000000" font-family="sans-serif" font-size="20" lengthAdjust="spacing" textLength="83" x="1263" y="228.6563">insurance</text><text fill="#000000" font-family="sans-serif" font-size="20" lengthAdjust="spacing" textLength="11" x="1025.301" y="319.1232">1</text></g><!--link ShowProposal to ShowConfiguration--><g id="link_ShowProposal_ShowConfiguration"><path codeLine="78" d="M1603.47,128.0445 C1389.34,130.6345 810.07,143.4545 631,206.8945 C611.13,213.9345 612.01,227.2445 592,233.8945 C545.36,249.3945 415.66,221.3945 371,241.8945 C332,259.7945 299.97,297.3545 279.35,326.9145 " fill="none" id="ShowProposal-to-ShowConfiguration" style="stroke:#181818;stroke-width:1.0;"/><polygon fill="#181818" points="276.39,331.2145,284.797,326.084,279.2323,327.101,278.2154,321.5363,276.39,331.2145" style="stroke:#181818;stroke-width:1.0;"/><text fill="#000000" font-family="sans-serif" font-size="20" lengthAdjust="spacing" textLength="161" x="632" y="228.6563">showConfiguration</text><text fill="#000000" font-family="sans-serif" font-size="20" lengthAdjust="spacing" textLength="11" x="268.0818" y="318.8867">1</text></g><!--link ShowProposal to Video--><g id="link_ShowProposal_Video"><path codeLine="79" d="M1624.92,177.0645 C1602.86,196.5345 1578.07,219.5245 1557,241.8945 C1531.49,268.9845 1505.34,301.8945 1486.05,327.3545 " fill="none" id="ShowProposal-to-Video" style="stroke:#181818;stroke-width:1.0;"/><polygon fill="#181818" points="1483.01,331.3745,1491.6291,326.609,1486.026,327.3866,1485.2484,321.7834,1483.01,331.3745" style="stroke:#181818;stroke-width:1.0;"/><text fill="#000000" font-family="sans-serif" font-size="20" lengthAdjust="spacing" textLength="46" x="1592" y="228.6563">video</text><text fill="#000000" font-family="sans-serif" font-size="20" lengthAdjust="spacing" textLength="11" x="1475.4382" y="319.0722">1</text></g><!--link GenerateShowDSL to ShowConfiguration--><g id="link_GenerateShowDSL_ShowConfiguration"><path codeLine="82" d="M171.94,164.5245 C189.53,208.2145 218.67,280.6045 237.07,326.3345 " fill="none" id="GenerateShowDSL-to-ShowConfiguration" style="stroke:#181818;stroke-width:1.0;stroke-dasharray:7.0,7.0;"/><polygon fill="#181818" points="239.04,331.2245,239.4114,321.3827,237.183,326.5821,231.9836,324.3538,239.04,331.2245" style="stroke:#181818;stroke-width:1.0;"/><text fill="#000000" font-family="sans-serif" font-size="20" lengthAdjust="spacing" textLength="41" x="201" y="228.6563">uses</text></g><!--link GenerateShowDSL to ShowDSLDescription--><g id="link_GenerateShowDSL_ShowDSLDescription"><path codeLine="83" d="M120.83,164.4845 C103,185.3945 83.35,213.0545 74,241.8945 C46.3,327.2945 46.95,358.2845 74,443.8945 C89.51,492.9845 124.9,540.1845 153.07,572.2545 " fill="none" id="GenerateShowDSL-to-ShowDSLDescription" style="stroke:#181818;stroke-width:1.0;"/><polygon fill="#181818" points="156.47,576.0845,153.4982,566.6947,153.1553,572.3412,147.5088,571.9983,156.47,576.0845" style="stroke:#181818;stroke-width:1.0;"/><text fill="#000000" font-family="sans-serif" font-size="20" lengthAdjust="spacing" textLength="61" x="75" y="377.6563">returns</text></g><!--link TemplateValidate to ShowProposalTemplate--><g id="link_TemplateValidate_ShowProposalTemplate"><path codeLine="86" d="M509.44,164.6045 C509.26,177.9445 509.09,193.0945 509,206.8945 C508.75,247.3445 509.1,293.5045 509.45,326.0845 " fill="none" id="TemplateValidate-to-ShowProposalTemplate" style="stroke:#181818;stroke-width:1.0;stroke-dasharray:7.0,7.0;"/><polygon fill="#181818" points="509.51,331.1945,513.4069,322.1494,509.4529,326.1949,505.4074,322.2408,509.51,331.1945" style="stroke:#181818;stroke-width:1.0;"/><text fill="#000000" font-family="sans-serif" font-size="20" lengthAdjust="spacing" textLength="77" x="510" y="228.6563">validates</text><text fill="#000000" font-family="sans-serif" font-size="20" lengthAdjust="spacing" textLength="11" x="497.5553" y="318.8635">1</text></g><!--link ShowConfiguration to Model--><g id="link_ShowConfiguration_Model"><path codeLine="89" d="M300.41,407.5445 C320.83,421.6945 345.87,436.2445 371,443.8945 C447.41,467.1445 1737.47,449.4045 1808,486.8945 C1837.36,502.4945 1859.5,532.2745 1874.59,559.0145 " fill="none" id="ShowConfiguration-to-Model" style="stroke:#181818;stroke-width:1.0;"/><polygon fill="#181818" points="1877.14,563.6245,1876.3039,553.8112,1874.7288,559.2444,1869.2956,557.6692,1877.14,563.6245" style="stroke:#181818;stroke-width:1.0;"/><text fill="#000000" font-family="sans-serif" font-size="20" lengthAdjust="spacing" textLength="63" x="1754" y="473.6563">models</text><text fill="#000000" font-family="sans-serif" font-size="20" lengthAdjust="spacing" textLength="31" x="1841.5868" y="551.6562">1..*</text></g><!--link ShowConfiguration to Figure--><g id="link_ShowConfiguration_Figure"><path codeLine="90" d="M299.76,407.4545 C320.27,421.7845 345.55,436.4845 371,443.8945 C409.81,455.1845 1785.9,446.8445 1826,451.8945 C1889.63,459.9045 1910.88,454.0945 1966,486.8945 C1996.75,505.1945 2024.17,534.1545 2044.62,559.7545 " fill="none" id="ShowConfiguration-to-Figure" style="stroke:#181818;stroke-width:1.0;"/><polygon fill="#181818" points="2047.85,563.8345,2045.415,554.2914,2044.7527,559.9094,2039.1348,559.2471,2047.85,563.8345" style="stroke:#181818;stroke-width:1.0;"/><text fill="#000000" font-family="sans-serif" font-size="20" lengthAdjust="spacing" textLength="59" x="1952" y="473.6563">figures</text><text fill="#000000" font-family="sans-serif" font-size="20" lengthAdjust="spacing" textLength="31" x="2010.4886" y="551.4967">1..*</text></g><!--link ShowConfiguration to ShowDSLDescription--><g id="link_ShowConfiguration_ShowDSLDescription"><path codeLine="91" d="M244.67,407.5645 C233.59,451.6945 215.16,525.1045 203.57,571.2945 " fill="none" id="ShowConfiguration-to-ShowDSLDescription" style="stroke:#181818;stroke-width:1.0;"/><polygon fill="#181818" points="202.33,576.2245,208.3988,568.4676,203.546,571.3747,200.639,566.5219,202.33,576.2245" style="stroke:#181818;stroke-width:1.0;"/><text fill="#000000" font-family="sans-serif" font-size="20" lengthAdjust="spacing" textLength="182" x="234" y="473.6563">showDSLDescription</text><text fill="#000000" font-family="sans-serif" font-size="20" lengthAdjust="spacing" textLength="34" x="167.1076" y="563.8983">0..1</text></g><!--link ShowProposal to QuantityOfDrones--><g id="link_ShowProposal_QuantityOfDrones"><path codeLine="109" d="M1764.84,128.1745 C1976.68,131.4945 2542.51,149.0645 2701,241.8945 C2816.81,309.7245 2841.44,341.6645 2918,451.8945 C2986.38,550.3545 3034.09,684.9845 3055.42,752.5645 " fill="none" id="ShowProposal-to-QuantityOfDrones" style="stroke:#181818;stroke-width:1.0;"/><polygon fill="#181818" points="3057.03,757.7045,3058.1468,747.9192,3055.5305,752.9347,3050.515,750.3184,3057.03,757.7045" style="stroke:#181818;stroke-width:1.0;"/><text fill="#000000" font-family="sans-serif" font-size="20" lengthAdjust="spacing" textLength="98" x="2936" y="473.6563">qnt_drones</text><text fill="#000000" font-family="sans-serif" font-size="20" lengthAdjust="spacing" textLength="11" x="3043.4051" y="745.3751">1</text></g><!--link ShowProposal to Time--><g id="link_ShowProposal_Time"><path codeLine="110" d="M1764.55,132.5545 C1958.14,145.8445 2436.6,184.2845 2478,241.8945 C2536.37,323.1245 2482.63,637.8745 2460.5,752.6845 " fill="none" id="ShowProposal-to-Time" style="stroke:#181818;stroke-width:1.0;"/><polygon fill="#181818" points="2459.54,757.6645,2465.1912,749.5983,2460.4986,752.7573,2457.3396,748.0646,2459.54,757.6645" style="stroke:#181818;stroke-width:1.0;"/><text fill="#000000" font-family="sans-serif" font-size="20" lengthAdjust="spacing" textLength="108" x="2503" y="473.6563">timeOfShow</text><text fill="#000000" font-family="sans-serif" font-size="20" lengthAdjust="spacing" textLength="11" x="2448.8524" y="745.6463">1</text></g><!--link ShowProposal to Date--><g id="link_ShowProposal_Date"><path codeLine="111" d="M1764.76,131.2745 C1936.28,140.2245 2331.6,164.8445 2459,206.8945 C2487.95,216.4545 2497.36,219.4545 2518,241.8945 C2653.88,389.5845 2659.13,650.9345 2655.5,752.6945 " fill="none" id="ShowProposal-to-Date" style="stroke:#181818;stroke-width:1.0;"/><polygon fill="#181818" points="2655.31,757.7045,2659.6413,748.8592,2655.4956,752.708,2651.6468,748.5623,2655.31,757.7045" style="stroke:#181818;stroke-width:1.0;"/><text fill="#000000" font-family="sans-serif" font-size="20" lengthAdjust="spacing" textLength="110" x="2633" y="473.6563">dateOfShow</text><text fill="#000000" font-family="sans-serif" font-size="20" lengthAdjust="spacing" textLength="11" x="2643.8016" y="745.3751">1</text></g><!--link ShowProposal to Duration--><g id="link_ShowProposal_Duration"><path codeLine="112" d="M1764.69,127.2645 C1963.12,128.5145 2468.11,141.7145 2597,241.8945 C2767.77,374.6345 2829.65,647.7045 2847.68,752.5845 " fill="none" id="ShowProposal-to-Duration" style="stroke:#181818;stroke-width:1.0;"/><polygon fill="#181818" points="2848.56,757.7545,2850.9857,748.2091,2847.7172,752.8261,2843.1001,749.5576,2848.56,757.7545" style="stroke:#181818;stroke-width:1.0;"/><text fill="#000000" font-family="sans-serif" font-size="20" lengthAdjust="spacing" textLength="141" x="2768" y="473.6563">durationOfShow</text><text fill="#000000" font-family="sans-serif" font-size="20" lengthAdjust="spacing" textLength="11" x="2835.8164" y="745.433">1</text></g><!--SRC=[bLLDZvim4BtpAqQvLAfKjEqH8IvXKrLgcdPPxRKoCCdIWCtw8-rsbVzU0uPWGe3c48nvxyre_6OiZXaj2IT5pf8Zff3YdgXSRXYLKVONuTETuvGaEP83mchzi5spF2SnuqGo3YlmVN8uS3mGYK40Ruu3-fVaH0WOWdt_difClcgSxtF6P12yrV2pSxPZm9PGlPxNRt4BfRSinNot3pcZEArT8wTaBTrDTb1yHj5W5cOQFRFV3_YYKCYXhANQnqrBszhVEIkP8FaDSQIgW3ukaaGgeR5F95S8k_WN9lrgs1brwbC57ASyOb7cEfN_3VLD5N5jX5dM5oeK9pHP56AjX6G5yWrY6ki2BarhpUY-Ed0YCqPxPHY1FsKfiYMwRMaqC4kR4aN8JrdIU6qqZp3w6g98U5QQHEmeOxJFI57dZOP-EyexwwW_1F2dthPtzVRgu-ggZXuaWvq9hZr7D9MZpY-5-7MIP8Q31xBrL69EPORRQoeFOY8qdD5fkDqd7fJM-p9kUxwNX9Vn6kjVOZRljxbT0tYGjSlfI9QRFH33hTlisjmUdAg7SStGNvrnXXzSDnYBhWIAKNmLyzhp7d2KYbDXmbzrKHV_wakLmEr3EXcOw7M3tVPMImm-rVLntVUhvghneAWUOXxUt2CUD4QU9Dovhib-M19njTU_VQ9dKhM8TT4yPiMYWHakdDtXPJREOdyeKezFStFFN4FBnb9hqA6s1ozK_aphzHIlgeTkLFs_srUGAMnO-wNooW9iv_FKh0pdxFm3]--></g></svg>