<?xml version="1.0" encoding="UTF-8" standalone="no"?><svg xmlns="http://www.w3.org/2000/svg" xmlns:xlink="http://www.w3.org/1999/xlink" contentStyleType="text/css" height="694px" preserveAspectRatio="none" style="width:1183px;height:694px;background:#FFFFFF;" version="1.1" viewBox="0 0 1183 694" width="1183px" zoomAndPan="magnify"><defs/><g><!--cluster Customer --><g id="cluster_Customer "><path d="M8.5,6.8945 L107.5,6.8945 A3.75,3.75 0 0 1 110,9.3945 L117,38.0508 L1101.5,38.0508 A2.5,2.5 0 0 1 1104,40.5508 L1104,516.3945 A2.5,2.5 0 0 1 1101.5,518.8945 L8.5,518.8945 A2.5,2.5 0 0 1 6,516.3945 L6,9.3945 A2.5,2.5 0 0 1 8.5,6.8945 " fill="none" style="stroke:#000000;stroke-width:1.5;"/><line style="stroke:#000000;stroke-width:1.5;" x1="6" x2="117" y1="38.0508" y2="38.0508"/><text fill="#000000" font-family="sans-serif" font-size="20" font-weight="bold" lengthAdjust="spacing" textLength="92" x="10" y="29.6563">Customer</text><text fill="#000000" font-family="sans-serif" font-size="20" font-style="italic" lengthAdjust="spacing" textLength="111" x="503.5" y="60.8125">«aggregate»</text></g><!--cluster Shared--><g id="cluster_Shared"><path d="M544.5,551.8945 L612.5,551.8945 A3.75,3.75 0 0 1 615,554.3945 L622,583.0508 L1139.5,583.0508 A2.5,2.5 0 0 1 1142,585.5508 L1142,685.3945 A2.5,2.5 0 0 1 1139.5,687.8945 L544.5,687.8945 A2.5,2.5 0 0 1 542,685.3945 L542,554.3945 A2.5,2.5 0 0 1 544.5,551.8945 " fill="none" style="stroke:#000000;stroke-width:1.5;"/><line style="stroke:#000000;stroke-width:1.5;" x1="542" x2="622" y1="583.0508" y2="583.0508"/><text fill="#000000" font-family="sans-serif" font-size="20" font-weight="bold" lengthAdjust="spacing" textLength="67" x="546" y="574.6563">Shared</text></g><!--class Customer--><g id="elem_Customer"><rect codeLine="3" fill="#F1F1F1" height="101.4688" id="Customer" rx="2.5" ry="2.5" style="stroke:#181818;stroke-width:0.5;" width="119" x="613.5" y="75.8945"/><ellipse cx="629.5" cy="118.6289" fill="#ADD1B2" rx="12" ry="12" style="stroke:#181818;stroke-width:1.0;"/><path d="M631.6406,113.5508 Q631.8281,113.3008 632.0469,113.1758 Q632.2656,113.0352 632.5156,113.0352 Q632.9531,113.0352 633.2344,113.3477 Q633.5156,113.6445 633.5156,114.3633 L633.5156,116.0664 Q633.5156,116.7852 633.2344,117.0977 Q632.9531,117.4102 632.5156,117.4102 Q632.125,117.4102 631.875,117.1758 Q631.625,116.957 631.5156,116.3477 Q631.4531,115.9258 631.2344,115.707 Q630.8438,115.2695 630.125,115.0039 Q629.4063,114.7383 628.6875,114.7383 Q627.7813,114.7383 627.0313,115.1289 Q626.2813,115.5195 625.7031,116.4102 Q625.125,117.2852 625.125,118.4883 L625.125,119.7852 Q625.125,121.2383 626.1719,122.207 Q627.2344,123.1758 629.0938,123.1758 Q630.2031,123.1758 630.9844,122.8633 Q631.4219,122.6914 631.9375,122.1758 Q632.25,121.8633 632.4219,121.7695 Q632.5938,121.6758 632.8281,121.6758 Q633.2188,121.6758 633.5156,121.9883 Q633.8281,122.2852 633.8281,122.6914 Q633.8281,123.0977 633.4219,123.5664 Q632.8281,124.2539 631.8906,124.6445 Q630.625,125.1758 629.1094,125.1758 Q627.3281,125.1758 625.9063,124.4414 Q624.75,123.8477 623.9375,122.582 Q623.125,121.3164 623.125,119.832 L623.125,118.4727 Q623.125,116.9102 623.8438,115.5664 Q624.5781,114.207 625.8594,113.4727 Q627.1563,112.7383 628.6094,112.7383 Q629.4688,112.7383 630.2188,112.9414 Q630.9844,113.1445 631.6406,113.5508 Z " fill="#000000"/><text fill="#000000" font-family="sans-serif" font-size="20" font-style="italic" lengthAdjust="spacing" textLength="71" x="651.5" y="101.6563">«Entity»</text><text fill="#000000" font-family="sans-serif" font-size="20" font-style="italic" lengthAdjust="spacing" textLength="56" x="659" y="126.8125">«root»</text><text fill="#000000" font-family="sans-serif" font-size="20" lengthAdjust="spacing" textLength="85" x="644.5" y="151.9688">Customer</text><line style="stroke:#181818;stroke-width:0.5;" x1="614.5" x2="731.5" y1="161.3633" y2="161.3633"/><line style="stroke:#181818;stroke-width:0.5;" x1="614.5" x2="731.5" y1="169.3633" y2="169.3633"/></g><!--class CustomerRepresentative--><g id="elem_CustomerRepresentative"><rect codeLine="6" fill="#F1F1F1" height="76.3125" id="CustomerRepresentative" rx="2.5" ry="2.5" style="stroke:#181818;stroke-width:0.5;" width="251" x="434.5" y="263.8945"/><ellipse cx="450.5" cy="294.0508" fill="#ADD1B2" rx="12" ry="12" style="stroke:#181818;stroke-width:1.0;"/><path d="M452.6406,288.9727 Q452.8281,288.7227 453.0469,288.5977 Q453.2656,288.457 453.5156,288.457 Q453.9531,288.457 454.2344,288.7695 Q454.5156,289.0664 454.5156,289.7852 L454.5156,291.4883 Q454.5156,292.207 454.2344,292.5195 Q453.9531,292.832 453.5156,292.832 Q453.125,292.832 452.875,292.5977 Q452.625,292.3789 452.5156,291.7695 Q452.4531,291.3477 452.2344,291.1289 Q451.8438,290.6914 451.125,290.4258 Q450.4063,290.1602 449.6875,290.1602 Q448.7813,290.1602 448.0313,290.5508 Q447.2813,290.9414 446.7031,291.832 Q446.125,292.707 446.125,293.9102 L446.125,295.207 Q446.125,296.6602 447.1719,297.6289 Q448.2344,298.5977 450.0938,298.5977 Q451.2031,298.5977 451.9844,298.2852 Q452.4219,298.1133 452.9375,297.5977 Q453.25,297.2852 453.4219,297.1914 Q453.5938,297.0977 453.8281,297.0977 Q454.2188,297.0977 454.5156,297.4102 Q454.8281,297.707 454.8281,298.1133 Q454.8281,298.5195 454.4219,298.9883 Q453.8281,299.6758 452.8906,300.0664 Q451.625,300.5977 450.1094,300.5977 Q448.3281,300.5977 446.9063,299.8633 Q445.75,299.2695 444.9375,298.0039 Q444.125,296.7383 444.125,295.2539 L444.125,293.8945 Q444.125,292.332 444.8438,290.9883 Q445.5781,289.6289 446.8594,288.8945 Q448.1563,288.1602 449.6094,288.1602 Q450.4688,288.1602 451.2188,288.3633 Q451.9844,288.5664 452.6406,288.9727 Z " fill="#000000"/><text fill="#000000" font-family="sans-serif" font-size="20" font-style="italic" lengthAdjust="spacing" textLength="71" x="538.5" y="289.6563">«Entity»</text><text fill="#000000" font-family="sans-serif" font-size="20" lengthAdjust="spacing" textLength="217" x="465.5" y="314.8125">CustomerRepresentative</text><line style="stroke:#181818;stroke-width:0.5;" x1="435.5" x2="684.5" y1="324.207" y2="324.207"/><line style="stroke:#181818;stroke-width:0.5;" x1="435.5" x2="684.5" y1="332.207" y2="332.207"/></g><!--class CustomerRepresentativeStatus--><g id="elem_CustomerRepresentativeStatus"><rect codeLine="9" fill="#F1F1F1" height="76.3125" id="CustomerRepresentativeStatus" rx="2.5" ry="2.5" style="stroke:#181818;stroke-width:0.5;" width="307" x="79.5" y="426.8945"/><ellipse cx="95.5" cy="457.0508" fill="#EB937F" rx="12" ry="12" style="stroke:#181818;stroke-width:1.0;"/><path d="M93.4531,458.1133 L93.4531,461.0508 L98.5469,461.0508 L98.5469,459.957 Q98.5469,459.2383 98.8281,458.9414 Q99.1094,458.6289 99.5625,458.6289 Q100,458.6289 100.2813,458.9414 Q100.5625,459.2383 100.5625,459.957 L100.5625,463.0508 L91.125,463.0508 Q90.4063,463.0508 90.0938,462.7695 Q89.7969,462.4883 89.7969,462.0508 Q89.7969,461.5977 90.1094,461.332 Q90.4219,461.0508 91.125,461.0508 L91.4375,461.0508 L91.4375,453.2227 L91.125,453.2227 Q90.4063,453.2227 90.0938,452.9414 Q89.7969,452.6602 89.7969,452.207 Q89.7969,451.7539 90.0938,451.4883 Q90.4063,451.207 91.125,451.207 L100.1094,451.207 L100.1094,454.2539 Q100.1094,454.9727 99.8281,455.2852 Q99.5625,455.582 99.125,455.582 Q98.6719,455.582 98.3906,455.2852 Q98.1094,454.9883 98.1094,454.2539 L98.1094,453.2227 L93.4531,453.2227 L93.4531,456.1133 L95.2031,456.1133 Q95.2031,455.332 95.3438,455.0977 Q95.6563,454.6289 96.2031,454.6289 Q96.6563,454.6289 96.9219,454.9414 Q97.2031,455.2383 97.2031,455.957 L97.2031,458.2695 Q97.2031,458.9258 97.0469,459.1445 Q96.7344,459.5977 96.2031,459.5977 Q95.6563,459.5977 95.3438,459.1289 Q95.2031,458.8945 95.2031,458.1133 L93.4531,458.1133 Z " fill="#000000"/><text fill="#000000" font-family="sans-serif" font-size="20" font-style="italic" lengthAdjust="spacing" textLength="136" x="179" y="452.6563">«Value Object»</text><text fill="#000000" font-family="sans-serif" font-size="20" lengthAdjust="spacing" textLength="273" x="110.5" y="477.8125">CustomerRepresentativeStatus</text><line style="stroke:#181818;stroke-width:0.5;" x1="80.5" x2="385.5" y1="487.207" y2="487.207"/><line style="stroke:#181818;stroke-width:0.5;" x1="80.5" x2="385.5" y1="495.207" y2="495.207"/></g><!--class Address--><g id="elem_Address"><rect codeLine="12" fill="#F1F1F1" height="76.3125" id="Address" rx="2.5" ry="2.5" style="stroke:#181818;stroke-width:0.5;" width="166" x="721" y="263.8945"/><ellipse cx="737" cy="294.0508" fill="#ADD1B2" rx="12" ry="12" style="stroke:#181818;stroke-width:1.0;"/><path d="M739.1406,288.9727 Q739.3281,288.7227 739.5469,288.5977 Q739.7656,288.457 740.0156,288.457 Q740.4531,288.457 740.7344,288.7695 Q741.0156,289.0664 741.0156,289.7852 L741.0156,291.4883 Q741.0156,292.207 740.7344,292.5195 Q740.4531,292.832 740.0156,292.832 Q739.625,292.832 739.375,292.5977 Q739.125,292.3789 739.0156,291.7695 Q738.9531,291.3477 738.7344,291.1289 Q738.3438,290.6914 737.625,290.4258 Q736.9063,290.1602 736.1875,290.1602 Q735.2813,290.1602 734.5313,290.5508 Q733.7813,290.9414 733.2031,291.832 Q732.625,292.707 732.625,293.9102 L732.625,295.207 Q732.625,296.6602 733.6719,297.6289 Q734.7344,298.5977 736.5938,298.5977 Q737.7031,298.5977 738.4844,298.2852 Q738.9219,298.1133 739.4375,297.5977 Q739.75,297.2852 739.9219,297.1914 Q740.0938,297.0977 740.3281,297.0977 Q740.7188,297.0977 741.0156,297.4102 Q741.3281,297.707 741.3281,298.1133 Q741.3281,298.5195 740.9219,298.9883 Q740.3281,299.6758 739.3906,300.0664 Q738.125,300.5977 736.6094,300.5977 Q734.8281,300.5977 733.4063,299.8633 Q732.25,299.2695 731.4375,298.0039 Q730.625,296.7383 730.625,295.2539 L730.625,293.8945 Q730.625,292.332 731.3438,290.9883 Q732.0781,289.6289 733.3594,288.8945 Q734.6563,288.1602 736.1094,288.1602 Q736.9688,288.1602 737.7188,288.3633 Q738.4844,288.5664 739.1406,288.9727 Z " fill="#000000"/><text fill="#000000" font-family="sans-serif" font-size="20" font-style="italic" lengthAdjust="spacing" textLength="136" x="750" y="289.6563">«Value Object»</text><text fill="#000000" font-family="sans-serif" font-size="20" lengthAdjust="spacing" textLength="73" x="781.5" y="314.8125">Address</text><line style="stroke:#181818;stroke-width:0.5;" x1="722" x2="886" y1="324.207" y2="324.207"/><line style="stroke:#181818;stroke-width:0.5;" x1="722" x2="886" y1="332.207" y2="332.207"/></g><!--class VatNumber--><g id="elem_VatNumber"><rect codeLine="15" fill="#F1F1F1" height="76.3125" id="VatNumber" rx="2.5" ry="2.5" style="stroke:#181818;stroke-width:0.5;" width="166" x="922" y="263.8945"/><ellipse cx="938" cy="294.0508" fill="#ADD1B2" rx="12" ry="12" style="stroke:#181818;stroke-width:1.0;"/><path d="M940.1406,288.9727 Q940.3281,288.7227 940.5469,288.5977 Q940.7656,288.457 941.0156,288.457 Q941.4531,288.457 941.7344,288.7695 Q942.0156,289.0664 942.0156,289.7852 L942.0156,291.4883 Q942.0156,292.207 941.7344,292.5195 Q941.4531,292.832 941.0156,292.832 Q940.625,292.832 940.375,292.5977 Q940.125,292.3789 940.0156,291.7695 Q939.9531,291.3477 939.7344,291.1289 Q939.3438,290.6914 938.625,290.4258 Q937.9063,290.1602 937.1875,290.1602 Q936.2813,290.1602 935.5313,290.5508 Q934.7813,290.9414 934.2031,291.832 Q933.625,292.707 933.625,293.9102 L933.625,295.207 Q933.625,296.6602 934.6719,297.6289 Q935.7344,298.5977 937.5938,298.5977 Q938.7031,298.5977 939.4844,298.2852 Q939.9219,298.1133 940.4375,297.5977 Q940.75,297.2852 940.9219,297.1914 Q941.0938,297.0977 941.3281,297.0977 Q941.7188,297.0977 942.0156,297.4102 Q942.3281,297.707 942.3281,298.1133 Q942.3281,298.5195 941.9219,298.9883 Q941.3281,299.6758 940.3906,300.0664 Q939.125,300.5977 937.6094,300.5977 Q935.8281,300.5977 934.4063,299.8633 Q933.25,299.2695 932.4375,298.0039 Q931.625,296.7383 931.625,295.2539 L931.625,293.8945 Q931.625,292.332 932.3438,290.9883 Q933.0781,289.6289 934.3594,288.8945 Q935.6563,288.1602 937.1094,288.1602 Q937.9688,288.1602 938.7188,288.3633 Q939.4844,288.5664 940.1406,288.9727 Z " fill="#000000"/><text fill="#000000" font-family="sans-serif" font-size="20" font-style="italic" lengthAdjust="spacing" textLength="136" x="951" y="289.6563">«Value Object»</text><text fill="#000000" font-family="sans-serif" font-size="20" lengthAdjust="spacing" textLength="98" x="970" y="314.8125">VatNumber</text><line style="stroke:#181818;stroke-width:0.5;" x1="923" x2="1087" y1="324.207" y2="324.207"/><line style="stroke:#181818;stroke-width:0.5;" x1="923" x2="1087" y1="332.207" y2="332.207"/></g><!--class CustomerStatus--><g id="elem_CustomerStatus"><rect codeLine="18" fill="#F1F1F1" height="76.3125" id="CustomerStatus" rx="2.5" ry="2.5" style="stroke:#181818;stroke-width:0.5;" width="175" x="22.5" y="263.8945"/><ellipse cx="38.5" cy="294.0508" fill="#EB937F" rx="12" ry="12" style="stroke:#181818;stroke-width:1.0;"/><path d="M36.4531,295.1133 L36.4531,298.0508 L41.5469,298.0508 L41.5469,296.957 Q41.5469,296.2383 41.8281,295.9414 Q42.1094,295.6289 42.5625,295.6289 Q43,295.6289 43.2813,295.9414 Q43.5625,296.2383 43.5625,296.957 L43.5625,300.0508 L34.125,300.0508 Q33.4063,300.0508 33.0938,299.7695 Q32.7969,299.4883 32.7969,299.0508 Q32.7969,298.5977 33.1094,298.332 Q33.4219,298.0508 34.125,298.0508 L34.4375,298.0508 L34.4375,290.2227 L34.125,290.2227 Q33.4063,290.2227 33.0938,289.9414 Q32.7969,289.6602 32.7969,289.207 Q32.7969,288.7539 33.0938,288.4883 Q33.4063,288.207 34.125,288.207 L43.1094,288.207 L43.1094,291.2539 Q43.1094,291.9727 42.8281,292.2852 Q42.5625,292.582 42.125,292.582 Q41.6719,292.582 41.3906,292.2852 Q41.1094,291.9883 41.1094,291.2539 L41.1094,290.2227 L36.4531,290.2227 L36.4531,293.1133 L38.2031,293.1133 Q38.2031,292.332 38.3438,292.0977 Q38.6563,291.6289 39.2031,291.6289 Q39.6563,291.6289 39.9219,291.9414 Q40.2031,292.2383 40.2031,292.957 L40.2031,295.2695 Q40.2031,295.9258 40.0469,296.1445 Q39.7344,296.5977 39.2031,296.5977 Q38.6563,296.5977 38.3438,296.1289 Q38.2031,295.8945 38.2031,295.1133 L36.4531,295.1133 Z " fill="#000000"/><text fill="#000000" font-family="sans-serif" font-size="20" font-style="italic" lengthAdjust="spacing" textLength="136" x="56" y="289.6563">«Value Object»</text><text fill="#000000" font-family="sans-serif" font-size="20" lengthAdjust="spacing" textLength="141" x="53.5" y="314.8125">CustomerStatus</text><line style="stroke:#181818;stroke-width:0.5;" x1="23.5" x2="196.5" y1="324.207" y2="324.207"/><line style="stroke:#181818;stroke-width:0.5;" x1="23.5" x2="196.5" y1="332.207" y2="332.207"/></g><!--class CustomerType--><g id="elem_CustomerType"><rect codeLine="21" fill="#F1F1F1" height="76.3125" id="CustomerType" rx="2.5" ry="2.5" style="stroke:#181818;stroke-width:0.5;" width="166" x="233" y="263.8945"/><ellipse cx="249" cy="294.0508" fill="#EB937F" rx="12" ry="12" style="stroke:#181818;stroke-width:1.0;"/><path d="M246.9531,295.1133 L246.9531,298.0508 L252.0469,298.0508 L252.0469,296.957 Q252.0469,296.2383 252.3281,295.9414 Q252.6094,295.6289 253.0625,295.6289 Q253.5,295.6289 253.7813,295.9414 Q254.0625,296.2383 254.0625,296.957 L254.0625,300.0508 L244.625,300.0508 Q243.9063,300.0508 243.5938,299.7695 Q243.2969,299.4883 243.2969,299.0508 Q243.2969,298.5977 243.6094,298.332 Q243.9219,298.0508 244.625,298.0508 L244.9375,298.0508 L244.9375,290.2227 L244.625,290.2227 Q243.9063,290.2227 243.5938,289.9414 Q243.2969,289.6602 243.2969,289.207 Q243.2969,288.7539 243.5938,288.4883 Q243.9063,288.207 244.625,288.207 L253.6094,288.207 L253.6094,291.2539 Q253.6094,291.9727 253.3281,292.2852 Q253.0625,292.582 252.625,292.582 Q252.1719,292.582 251.8906,292.2852 Q251.6094,291.9883 251.6094,291.2539 L251.6094,290.2227 L246.9531,290.2227 L246.9531,293.1133 L248.7031,293.1133 Q248.7031,292.332 248.8438,292.0977 Q249.1563,291.6289 249.7031,291.6289 Q250.1563,291.6289 250.4219,291.9414 Q250.7031,292.2383 250.7031,292.957 L250.7031,295.2695 Q250.7031,295.9258 250.5469,296.1445 Q250.2344,296.5977 249.7031,296.5977 Q249.1563,296.5977 248.8438,296.1289 Q248.7031,295.8945 248.7031,295.1133 L246.9531,295.1133 Z " fill="#000000"/><text fill="#000000" font-family="sans-serif" font-size="20" font-style="italic" lengthAdjust="spacing" textLength="136" x="262" y="289.6563">«Value Object»</text><text fill="#000000" font-family="sans-serif" font-size="20" lengthAdjust="spacing" textLength="129" x="265.5" y="314.8125">CustomerType</text><line style="stroke:#181818;stroke-width:0.5;" x1="234" x2="398" y1="324.207" y2="324.207"/><line style="stroke:#181818;stroke-width:0.5;" x1="234" x2="398" y1="332.207" y2="332.207"/></g><!--class Position--><g id="elem_Position"><rect codeLine="24" fill="#F1F1F1" height="76.3125" id="Position" rx="2.5" ry="2.5" style="stroke:#181818;stroke-width:0.5;" width="166" x="422" y="426.8945"/><ellipse cx="438" cy="457.0508" fill="#ADD1B2" rx="12" ry="12" style="stroke:#181818;stroke-width:1.0;"/><path d="M440.1406,451.9727 Q440.3281,451.7227 440.5469,451.5977 Q440.7656,451.457 441.0156,451.457 Q441.4531,451.457 441.7344,451.7695 Q442.0156,452.0664 442.0156,452.7852 L442.0156,454.4883 Q442.0156,455.207 441.7344,455.5195 Q441.4531,455.832 441.0156,455.832 Q440.625,455.832 440.375,455.5977 Q440.125,455.3789 440.0156,454.7695 Q439.9531,454.3477 439.7344,454.1289 Q439.3438,453.6914 438.625,453.4258 Q437.9063,453.1602 437.1875,453.1602 Q436.2813,453.1602 435.5313,453.5508 Q434.7813,453.9414 434.2031,454.832 Q433.625,455.707 433.625,456.9102 L433.625,458.207 Q433.625,459.6602 434.6719,460.6289 Q435.7344,461.5977 437.5938,461.5977 Q438.7031,461.5977 439.4844,461.2852 Q439.9219,461.1133 440.4375,460.5977 Q440.75,460.2852 440.9219,460.1914 Q441.0938,460.0977 441.3281,460.0977 Q441.7188,460.0977 442.0156,460.4102 Q442.3281,460.707 442.3281,461.1133 Q442.3281,461.5195 441.9219,461.9883 Q441.3281,462.6758 440.3906,463.0664 Q439.125,463.5977 437.6094,463.5977 Q435.8281,463.5977 434.4063,462.8633 Q433.25,462.2695 432.4375,461.0039 Q431.625,459.7383 431.625,458.2539 L431.625,456.8945 Q431.625,455.332 432.3438,453.9883 Q433.0781,452.6289 434.3594,451.8945 Q435.6563,451.1602 437.1094,451.1602 Q437.9688,451.1602 438.7188,451.3633 Q439.4844,451.5664 440.1406,451.9727 Z " fill="#000000"/><text fill="#000000" font-family="sans-serif" font-size="20" font-style="italic" lengthAdjust="spacing" textLength="136" x="451" y="452.6563">«Value Object»</text><text fill="#000000" font-family="sans-serif" font-size="20" lengthAdjust="spacing" textLength="69" x="484.5" y="477.8125">Position</text><line style="stroke:#181818;stroke-width:0.5;" x1="423" x2="587" y1="487.207" y2="487.207"/><line style="stroke:#181818;stroke-width:0.5;" x1="423" x2="587" y1="495.207" y2="495.207"/></g><!--class Name--><g id="elem_Name"><rect codeLine="42" fill="#F1F1F1" height="76.3125" id="Name" rx="2.5" ry="2.5" style="stroke:#181818;stroke-width:0.5;" width="166" x="759" y="595.8945"/><ellipse cx="775" cy="626.0508" fill="#ADD1B2" rx="12" ry="12" style="stroke:#181818;stroke-width:1.0;"/><path d="M777.1406,620.9727 Q777.3281,620.7227 777.5469,620.5977 Q777.7656,620.457 778.0156,620.457 Q778.4531,620.457 778.7344,620.7695 Q779.0156,621.0664 779.0156,621.7852 L779.0156,623.4883 Q779.0156,624.207 778.7344,624.5195 Q778.4531,624.832 778.0156,624.832 Q777.625,624.832 777.375,624.5977 Q777.125,624.3789 777.0156,623.7695 Q776.9531,623.3477 776.7344,623.1289 Q776.3438,622.6914 775.625,622.4258 Q774.9063,622.1602 774.1875,622.1602 Q773.2813,622.1602 772.5313,622.5508 Q771.7813,622.9414 771.2031,623.832 Q770.625,624.707 770.625,625.9102 L770.625,627.207 Q770.625,628.6602 771.6719,629.6289 Q772.7344,630.5977 774.5938,630.5977 Q775.7031,630.5977 776.4844,630.2852 Q776.9219,630.1133 777.4375,629.5977 Q777.75,629.2852 777.9219,629.1914 Q778.0938,629.0977 778.3281,629.0977 Q778.7188,629.0977 779.0156,629.4102 Q779.3281,629.707 779.3281,630.1133 Q779.3281,630.5195 778.9219,630.9883 Q778.3281,631.6758 777.3906,632.0664 Q776.125,632.5977 774.6094,632.5977 Q772.8281,632.5977 771.4063,631.8633 Q770.25,631.2695 769.4375,630.0039 Q768.625,628.7383 768.625,627.2539 L768.625,625.8945 Q768.625,624.332 769.3438,622.9883 Q770.0781,621.6289 771.3594,620.8945 Q772.6563,620.1602 774.1094,620.1602 Q774.9688,620.1602 775.7188,620.3633 Q776.4844,620.5664 777.1406,620.9727 Z " fill="#000000"/><text fill="#000000" font-family="sans-serif" font-size="20" font-style="italic" lengthAdjust="spacing" textLength="136" x="788" y="621.6563">«Value Object»</text><text fill="#000000" font-family="sans-serif" font-size="20" lengthAdjust="spacing" textLength="51" x="830.5" y="646.8125">Name</text><line style="stroke:#181818;stroke-width:0.5;" x1="760" x2="924" y1="656.207" y2="656.207"/><line style="stroke:#181818;stroke-width:0.5;" x1="760" x2="924" y1="664.207" y2="664.207"/></g><!--class Email--><g id="elem_Email"><rect codeLine="45" fill="#F1F1F1" height="76.3125" id="Email" rx="2.5" ry="2.5" style="stroke:#181818;stroke-width:0.5;" width="166" x="558" y="595.8945"/><ellipse cx="574" cy="626.0508" fill="#ADD1B2" rx="12" ry="12" style="stroke:#181818;stroke-width:1.0;"/><path d="M576.1406,620.9727 Q576.3281,620.7227 576.5469,620.5977 Q576.7656,620.457 577.0156,620.457 Q577.4531,620.457 577.7344,620.7695 Q578.0156,621.0664 578.0156,621.7852 L578.0156,623.4883 Q578.0156,624.207 577.7344,624.5195 Q577.4531,624.832 577.0156,624.832 Q576.625,624.832 576.375,624.5977 Q576.125,624.3789 576.0156,623.7695 Q575.9531,623.3477 575.7344,623.1289 Q575.3438,622.6914 574.625,622.4258 Q573.9063,622.1602 573.1875,622.1602 Q572.2813,622.1602 571.5313,622.5508 Q570.7813,622.9414 570.2031,623.832 Q569.625,624.707 569.625,625.9102 L569.625,627.207 Q569.625,628.6602 570.6719,629.6289 Q571.7344,630.5977 573.5938,630.5977 Q574.7031,630.5977 575.4844,630.2852 Q575.9219,630.1133 576.4375,629.5977 Q576.75,629.2852 576.9219,629.1914 Q577.0938,629.0977 577.3281,629.0977 Q577.7188,629.0977 578.0156,629.4102 Q578.3281,629.707 578.3281,630.1133 Q578.3281,630.5195 577.9219,630.9883 Q577.3281,631.6758 576.3906,632.0664 Q575.125,632.5977 573.6094,632.5977 Q571.8281,632.5977 570.4063,631.8633 Q569.25,631.2695 568.4375,630.0039 Q567.625,628.7383 567.625,627.2539 L567.625,625.8945 Q567.625,624.332 568.3438,622.9883 Q569.0781,621.6289 570.3594,620.8945 Q571.6563,620.1602 573.1094,620.1602 Q573.9688,620.1602 574.7188,620.3633 Q575.4844,620.5664 576.1406,620.9727 Z " fill="#000000"/><text fill="#000000" font-family="sans-serif" font-size="20" font-style="italic" lengthAdjust="spacing" textLength="136" x="587" y="621.6563">«Value Object»</text><text fill="#000000" font-family="sans-serif" font-size="20" lengthAdjust="spacing" textLength="48" x="631" y="646.8125">Email</text><line style="stroke:#181818;stroke-width:0.5;" x1="559" x2="723" y1="656.207" y2="656.207"/><line style="stroke:#181818;stroke-width:0.5;" x1="559" x2="723" y1="664.207" y2="664.207"/></g><!--class PhoneNumber--><g id="elem_PhoneNumber"><rect codeLine="48" fill="#F1F1F1" height="76.3125" id="PhoneNumber" rx="2.5" ry="2.5" style="stroke:#181818;stroke-width:0.5;" width="166" x="960" y="595.8945"/><ellipse cx="976" cy="626.0508" fill="#ADD1B2" rx="12" ry="12" style="stroke:#181818;stroke-width:1.0;"/><path d="M978.1406,620.9727 Q978.3281,620.7227 978.5469,620.5977 Q978.7656,620.457 979.0156,620.457 Q979.4531,620.457 979.7344,620.7695 Q980.0156,621.0664 980.0156,621.7852 L980.0156,623.4883 Q980.0156,624.207 979.7344,624.5195 Q979.4531,624.832 979.0156,624.832 Q978.625,624.832 978.375,624.5977 Q978.125,624.3789 978.0156,623.7695 Q977.9531,623.3477 977.7344,623.1289 Q977.3438,622.6914 976.625,622.4258 Q975.9063,622.1602 975.1875,622.1602 Q974.2813,622.1602 973.5313,622.5508 Q972.7813,622.9414 972.2031,623.832 Q971.625,624.707 971.625,625.9102 L971.625,627.207 Q971.625,628.6602 972.6719,629.6289 Q973.7344,630.5977 975.5938,630.5977 Q976.7031,630.5977 977.4844,630.2852 Q977.9219,630.1133 978.4375,629.5977 Q978.75,629.2852 978.9219,629.1914 Q979.0938,629.0977 979.3281,629.0977 Q979.7188,629.0977 980.0156,629.4102 Q980.3281,629.707 980.3281,630.1133 Q980.3281,630.5195 979.9219,630.9883 Q979.3281,631.6758 978.3906,632.0664 Q977.125,632.5977 975.6094,632.5977 Q973.8281,632.5977 972.4063,631.8633 Q971.25,631.2695 970.4375,630.0039 Q969.625,628.7383 969.625,627.2539 L969.625,625.8945 Q969.625,624.332 970.3438,622.9883 Q971.0781,621.6289 972.3594,620.8945 Q973.6563,620.1602 975.1094,620.1602 Q975.9688,620.1602 976.7188,620.3633 Q977.4844,620.5664 978.1406,620.9727 Z " fill="#000000"/><text fill="#000000" font-family="sans-serif" font-size="20" font-style="italic" lengthAdjust="spacing" textLength="136" x="989" y="621.6563">«Value Object»</text><text fill="#000000" font-family="sans-serif" font-size="20" lengthAdjust="spacing" textLength="123" x="995.5" y="646.8125">PhoneNumber</text><line style="stroke:#181818;stroke-width:0.5;" x1="961" x2="1125" y1="656.207" y2="656.207"/><line style="stroke:#181818;stroke-width:0.5;" x1="961" x2="1125" y1="664.207" y2="664.207"/></g><!--link Customer to CustomerRepresentative--><g id="link_Customer_CustomerRepresentative"><path codeLine="28" d="M615.57,176.9045 C606.87,186.2345 598.61,196.3845 592,206.8945 C582.1,222.6345 574.86,241.7945 569.8,258.6945 " fill="none" id="Customer-to-CustomerRepresentative" style="stroke:#181818;stroke-width:1.0;"/><polygon fill="#181818" points="568.3,263.8645,574.66,256.3445,569.7,259.0645,566.98,254.1045,568.3,263.8645" style="stroke:#181818;stroke-width:1.0;"/><text fill="#000000" font-family="sans-serif" font-size="20" lengthAdjust="spacing" textLength="133" x="593" y="228.6563">represented by</text><text fill="#000000" font-family="sans-serif" font-size="20" lengthAdjust="spacing" textLength="31" x="536.1525" y="251.5606">1..*</text></g><!--link Customer to VatNumber--><g id="link_Customer_VatNumber"><path codeLine="29" d="M732.86,156.9945 C762.49,171.7845 798.74,190.0645 831,206.8945 C864.66,224.4445 901.7,244.3745 932.92,261.3445 " fill="none" id="Customer-to-VatNumber" style="stroke:#181818;stroke-width:1.0;"/><polygon fill="#181818" points="937.49,263.8345,931.4954,256.0201,933.0978,261.4453,927.6726,263.0477,937.49,263.8345" style="stroke:#181818;stroke-width:1.0;"/><text fill="#000000" font-family="sans-serif" font-size="20" lengthAdjust="spacing" textLength="26" x="880" y="228.6563">vat</text><text fill="#000000" font-family="sans-serif" font-size="20" lengthAdjust="spacing" textLength="11" x="914.854" y="251.5258">1</text></g><!--link Customer to Address--><g id="link_Customer_Address"><path codeLine="30" d="M710.54,177.1145 C730.27,203.2345 754.16,234.8845 772.85,259.6345 " fill="none" id="Customer-to-Address" style="stroke:#181818;stroke-width:1.0;"/><polygon fill="#181818" points="776.04,263.8545,773.8016,254.2634,773.024,259.8666,767.4209,259.089,776.04,263.8545" style="stroke:#181818;stroke-width:1.0;"/><text fill="#000000" font-family="sans-serif" font-size="20" lengthAdjust="spacing" textLength="71" x="751" y="228.6563">address</text><text fill="#000000" font-family="sans-serif" font-size="20" lengthAdjust="spacing" textLength="11" x="759.7073" y="251.549">1</text></g><!--link Customer to CustomerStatus--><g id="link_Customer_CustomerStatus"><path codeLine="31" d="M613.36,143.9345 C525.61,168.5545 356.78,216.9745 215,263.8945 C210.91,265.2445 206.74,266.6445 202.53,268.0745 " fill="none" id="Customer-to-CustomerStatus" style="stroke:#181818;stroke-width:1.0;"/><polygon fill="#181818" points="197.57,269.7545,207.3789,270.6413,202.3033,268.1435,204.8012,263.068,197.57,269.7545" style="stroke:#181818;stroke-width:1.0;"/><text fill="#000000" font-family="sans-serif" font-size="20" lengthAdjust="spacing" textLength="53" x="391" y="228.6563">status</text><text fill="#000000" font-family="sans-serif" font-size="20" lengthAdjust="spacing" textLength="11" x="205.5682" y="261.6733">1</text></g><!--link Customer to CustomerType--><g id="link_Customer_CustomerType"><path codeLine="32" d="M613.25,156.4345 C553.93,185.2645 462.6,229.6445 396.83,261.6145 " fill="none" id="Customer-to-CustomerType" style="stroke:#181818;stroke-width:1.0;"/><polygon fill="#181818" points="392.14,263.8945,401.9832,263.5604,396.6375,261.71,398.488,256.3644,392.14,263.8945" style="stroke:#181818;stroke-width:1.0;"/><text fill="#000000" font-family="sans-serif" font-size="20" lengthAdjust="spacing" textLength="38" x="506" y="228.6563">type</text><text fill="#000000" font-family="sans-serif" font-size="20" lengthAdjust="spacing" textLength="11" x="392.3982" y="251.5954">1</text></g><!--link CustomerRepresentative to Position--><g id="link_CustomerRepresentative_Position"><path codeLine="35" d="M547.24,340.2345 C538.91,364.6245 528.02,396.5045 519.38,421.7945 " fill="none" id="CustomerRepresentative-to-Position" style="stroke:#181818;stroke-width:1.0;"/><polygon fill="#181818" points="517.69,426.7545,524.4027,419.5476,519.3182,422.0271,516.8388,416.9425,517.69,426.7545" style="stroke:#181818;stroke-width:1.0;"/><text fill="#000000" font-family="sans-serif" font-size="20" lengthAdjust="spacing" textLength="67" x="536" y="391.6563">position</text><text fill="#000000" font-family="sans-serif" font-size="20" lengthAdjust="spacing" textLength="11" x="507.8359" y="414.433">1</text></g><!--link CustomerRepresentative to CustomerRepresentativeStatus--><g id="link_CustomerRepresentative_CustomerRepresentativeStatus"><path codeLine="36" d="M484.57,340.0345 C433.21,365.3145 365.33,398.7445 313.03,424.4945 " fill="none" id="CustomerRepresentative-to-CustomerRepresentativeStatus" style="stroke:#181818;stroke-width:1.0;"/><polygon fill="#181818" points="308.33,426.8045,318.1718,426.4328,312.8192,424.6028,314.6491,419.2502,308.33,426.8045" style="stroke:#181818;stroke-width:1.0;"/><text fill="#000000" font-family="sans-serif" font-size="20" lengthAdjust="spacing" textLength="53" x="417" y="391.6563">status</text><text fill="#000000" font-family="sans-serif" font-size="20" lengthAdjust="spacing" textLength="11" x="308.4592" y="414.491">1</text></g><!--link Customer to Name--><g id="link_Customer_Name"><path codeLine="52" d="M732.69,137.3545 C840.64,156.7245 1061.31,202.9545 1106,263.8945 C1144.1,315.8545 1128.03,477.2545 1077,526.8945 C1055.48,547.8245 970.36,531.5345 943,543.8945 C918.45,554.9845 895.52,574.1345 877.75,591.8345 " fill="none" id="Customer-to-Name" style="stroke:#181818;stroke-width:1.0;"/><polygon fill="#181818" points="873.8,595.8245,882.9781,592.252,877.3212,592.2748,877.2984,586.618,873.8,595.8245" style="stroke:#181818;stroke-width:1.0;"/><text fill="#000000" font-family="sans-serif" font-size="20" lengthAdjust="spacing" textLength="48" x="1127" y="391.6563">name</text><text fill="#000000" font-family="sans-serif" font-size="20" lengthAdjust="spacing" textLength="11" x="879.7447" y="583.5142">1</text></g><!--link CustomerRepresentative to Name--><g id="link_CustomerRepresentative_Name"><path codeLine="55" d="M607.15,339.9445 C618.75,349.4645 631,359.8545 642,369.8945 C668.23,393.8345 675.3,399.5845 698,426.8945 C743.02,481.0845 788.53,548.8545 816.01,591.5245 " fill="none" id="CustomerRepresentative-to-Name" style="stroke:#181818;stroke-width:1.0;"/><polygon fill="#181818" points="818.77,595.8345,817.2679,586.1009,816.0662,591.6286,810.5385,590.427,818.77,595.8345" style="stroke:#181818;stroke-width:1.0;"/><text fill="#000000" font-family="sans-serif" font-size="20" lengthAdjust="spacing" textLength="48" x="773" y="473.1563">name</text><text fill="#000000" font-family="sans-serif" font-size="20" lengthAdjust="spacing" textLength="11" x="803.1912" y="583.5258">1</text></g><!--link CustomerRepresentative to Email--><g id="link_CustomerRepresentative_Email"><path codeLine="56" d="M594.47,339.9445 C601.34,349.1345 607.74,359.3845 612,369.8945 C641.74,443.3145 644.57,537.1545 643.25,590.5845 " fill="none" id="CustomerRepresentative-to-Email" style="stroke:#181818;stroke-width:1.0;"/><polygon fill="#181818" points="643.11,595.6345,647.3654,586.7524,643.2528,590.6366,639.3687,586.524,643.11,595.6345" style="stroke:#181818;stroke-width:1.0;"/><text fill="#000000" font-family="sans-serif" font-size="20" lengthAdjust="spacing" textLength="46" x="643" y="473.1563">email</text><text fill="#000000" font-family="sans-serif" font-size="20" lengthAdjust="spacing" textLength="11" x="631.5909" y="583.6117">1</text></g><!--link CustomerRepresentative to PhoneNumber--><g id="link_CustomerRepresentative_PhoneNumber"><path codeLine="57" d="M661.46,339.9245 C714.03,361.4345 777.94,391.3045 830,426.8945 C900.29,474.9445 968.72,546.9645 1008.32,591.8845 " fill="none" id="CustomerRepresentative-to-PhoneNumber" style="stroke:#181818;stroke-width:1.0;"/><polygon fill="#181818" points="1011.82,595.8745,1008.8861,586.4728,1008.5204,592.1178,1002.8754,591.7522,1011.82,595.8745" style="stroke:#181818;stroke-width:1.0;"/><text fill="#000000" font-family="sans-serif" font-size="20" lengthAdjust="spacing" textLength="121" x="947" y="473.1563">phoneNumber</text><text fill="#000000" font-family="sans-serif" font-size="20" lengthAdjust="spacing" textLength="11" x="994.9741" y="583.5722">1</text></g><!--SRC=[fLF1ReCm3Btp5HQNIPEejXqZX3HDtR6RnjIx2nxDW0GbeHgh-k_BeANGKHHfN1oSzupViz4v5nKgB0kPv9H2IXzO5-PP2XFpRuA7Ey-hCCan8_2VQcraIGfy24FCCaKP6eeYs7jWdwH0hQ47XU5I66uQUn-6IaeJHHtku4t0twXIf4aOD7n70_A8Gw8khr1Y6sfjYMiiQeANpISbqvzyJ5FBSuAkqQpgSjEgcG6Fsd9fP4HuRofoQUPLQcwu5FFOctu0GGHVRQhFG61p_lrYSUjVCvw1EYNiEcoQSO6ExmzyOR13Cmqw-Sm0kzCqxC8t1hezp8DRpnWO6uwoBtJy4NzvVopOcygWEXvTQBCxs4lm3kU_9zwYiexkXnDTOUaq-MM9l71QaQqKvBAnSriI12ULRNyCX0t_StbOo07UwML0lz5fYWFTTf3dDpk17m00]--></g></svg>