<?xml version="1.0" encoding="UTF-8" standalone="no"?><svg xmlns="http://www.w3.org/2000/svg" xmlns:xlink="http://www.w3.org/1999/xlink" contentStyleType="text/css" height="671px" preserveAspectRatio="none" style="width:1296px;height:671px;background:#FFFFFF;" version="1.1" viewBox="0 0 1296 671" width="1296px" zoomAndPan="magnify"><defs/><g><!--cluster Customer --><g id="cluster_Customer "><path d="M8.5,7.2168 L126.5,7.2168 A3.75,3.75 0 0 1 129,9.7168 L136,36.498 L1202.5,36.498 A2.5,2.5 0 0 1 1205,38.998 L1205,497.7168 A2.5,2.5 0 0 1 1202.5,500.2168 L8.5,500.2168 A2.5,2.5 0 0 1 6,497.7168 L6,9.7168 A2.5,2.5 0 0 1 8.5,7.2168 " fill="none" style="stroke:#000000;stroke-width:1.5;"/><line style="stroke:#000000;stroke-width:1.5;" x1="6" x2="136" y1="36.498" y2="36.498"/><text fill="#000000" font-family="sans-serif" font-size="20" font-weight="bold" lengthAdjust="spacing" textLength="110" x="10" y="27.7813">Customer</text><text fill="#000000" font-family="sans-serif" font-size="20" font-style="italic" lengthAdjust="spacing" textLength="127" x="546" y="57.0625">«aggregate»</text></g><!--cluster Shared--><g id="cluster_Shared"><path d="M588.5,533.2168 L669.5,533.2168 A3.75,3.75 0 0 1 672,535.7168 L679,562.498 L1235.5,562.498 A2.5,2.5 0 0 1 1238,564.998 L1238,661.7168 A2.5,2.5 0 0 1 1235.5,664.2168 L588.5,664.2168 A2.5,2.5 0 0 1 586,661.7168 L586,535.7168 A2.5,2.5 0 0 1 588.5,533.2168 " fill="none" style="stroke:#000000;stroke-width:1.5;"/><line style="stroke:#000000;stroke-width:1.5;" x1="586" x2="679" y1="562.498" y2="562.498"/><text fill="#000000" font-family="sans-serif" font-size="20" font-weight="bold" lengthAdjust="spacing" textLength="80" x="590" y="553.7813">Shared</text></g><!--class Customer--><g id="elem_Customer"><rect codeLine="3" fill="#F1F1F1" height="95.8438" id="Customer" rx="2.5" ry="2.5" style="stroke:#181818;stroke-width:0.5;" width="131" x="670.5" y="72.2168"/><ellipse cx="686.5" cy="112.1387" fill="#ADD1B2" rx="12" ry="12" style="stroke:#181818;stroke-width:1.0;"/><path d="M689.5625,119.2168 Q688.875,119.5762 688.125,119.748 Q687.375,119.9199 686.5469,119.9199 Q683.5938,119.9199 682.0313,117.9824 Q680.4844,116.0293 680.4844,112.3574 Q680.4844,108.6855 682.0313,106.748 Q683.5938,104.7949 686.5469,104.7949 Q687.375,104.7949 688.125,104.9668 Q688.8906,105.1387 689.5625,105.498 L689.5625,108.7012 Q688.8125,108.0137 688.1094,107.7012 Q687.4219,107.3887 686.6719,107.3887 Q685.0938,107.3887 684.2813,108.6387 Q683.4844,109.8887 683.4844,112.3574 Q683.4844,114.8262 684.2813,116.0762 Q685.0938,117.3262 686.6719,117.3262 Q687.4219,117.3262 688.1094,117.0137 Q688.8125,116.7012 689.5625,116.0137 L689.5625,119.2168 Z " fill="#000000"/><text fill="#000000" font-family="sans-serif" font-size="20" font-style="italic" lengthAdjust="spacing" textLength="84" x="708" y="95.7813">«Entity»</text><text fill="#000000" font-family="sans-serif" font-size="20" font-style="italic" lengthAdjust="spacing" textLength="64" x="718" y="119.0625">«root»</text><text fill="#000000" font-family="sans-serif" font-size="20" lengthAdjust="spacing" textLength="97" x="701.5" y="142.3438">Customer</text><line style="stroke:#181818;stroke-width:0.5;" x1="671.5" x2="800.5" y1="152.0605" y2="152.0605"/><line style="stroke:#181818;stroke-width:0.5;" x1="671.5" x2="800.5" y1="160.0605" y2="160.0605"/></g><!--class CustomerRepresentative--><g id="elem_CustomerRepresentative"><rect codeLine="6" fill="#F1F1F1" height="72.5625" id="CustomerRepresentative" rx="2.5" ry="2.5" style="stroke:#181818;stroke-width:0.5;" width="282" x="470" y="253.2168"/><ellipse cx="486" cy="281.498" fill="#ADD1B2" rx="12" ry="12" style="stroke:#181818;stroke-width:1.0;"/><path d="M489.0625,288.5762 Q488.375,288.9355 487.625,289.1074 Q486.875,289.2793 486.0469,289.2793 Q483.0938,289.2793 481.5313,287.3418 Q479.9844,285.3887 479.9844,281.7168 Q479.9844,278.0449 481.5313,276.1074 Q483.0938,274.1543 486.0469,274.1543 Q486.875,274.1543 487.625,274.3262 Q488.3906,274.498 489.0625,274.8574 L489.0625,278.0605 Q488.3125,277.373 487.6094,277.0605 Q486.9219,276.748 486.1719,276.748 Q484.5938,276.748 483.7813,277.998 Q482.9844,279.248 482.9844,281.7168 Q482.9844,284.1855 483.7813,285.4355 Q484.5938,286.6855 486.1719,286.6855 Q486.9219,286.6855 487.6094,286.373 Q488.3125,286.0605 489.0625,285.373 L489.0625,288.5762 Z " fill="#000000"/><text fill="#000000" font-family="sans-serif" font-size="20" font-style="italic" lengthAdjust="spacing" textLength="84" x="583" y="276.7813">«Entity»</text><text fill="#000000" font-family="sans-serif" font-size="20" lengthAdjust="spacing" textLength="248" x="501" y="300.0625">CustomerRepresentative</text><line style="stroke:#181818;stroke-width:0.5;" x1="471" x2="751" y1="309.7793" y2="309.7793"/><line style="stroke:#181818;stroke-width:0.5;" x1="471" x2="751" y1="317.7793" y2="317.7793"/></g><!--class CustomerRepresentativeStatus--><g id="elem_CustomerRepresentativeStatus"><rect codeLine="9" fill="#F1F1F1" height="72.5625" id="CustomerRepresentativeStatus" rx="2.5" ry="2.5" style="stroke:#181818;stroke-width:0.5;" width="346" x="78" y="411.2168"/><ellipse cx="94" cy="439.498" fill="#EB937F" rx="12" ry="12" style="stroke:#181818;stroke-width:1.0;"/><path d="M98.7188,446.998 L89.6406,446.998 L89.6406,432.4199 L98.7188,432.4199 L98.7188,434.9512 L92.5156,434.9512 L92.5156,438.1074 L98.1406,438.1074 L98.1406,440.6387 L92.5156,440.6387 L92.5156,444.4512 L98.7188,444.4512 L98.7188,446.998 Z " fill="#000000"/><text fill="#000000" font-family="sans-serif" font-size="20" font-style="italic" lengthAdjust="spacing" textLength="153" x="188.5" y="434.7813">«Value Object»</text><text fill="#000000" font-family="sans-serif" font-size="20" lengthAdjust="spacing" textLength="312" x="109" y="458.0625">CustomerRepresentativeStatus</text><line style="stroke:#181818;stroke-width:0.5;" x1="79" x2="423" y1="467.7793" y2="467.7793"/><line style="stroke:#181818;stroke-width:0.5;" x1="79" x2="423" y1="475.7793" y2="475.7793"/></g><!--class Address--><g id="elem_Address"><rect codeLine="12" fill="#F1F1F1" height="72.5625" id="Address" rx="2.5" ry="2.5" style="stroke:#181818;stroke-width:0.5;" width="183" x="787.5" y="253.2168"/><ellipse cx="803.5" cy="281.498" fill="#ADD1B2" rx="12" ry="12" style="stroke:#181818;stroke-width:1.0;"/><path d="M806.5625,288.5762 Q805.875,288.9355 805.125,289.1074 Q804.375,289.2793 803.5469,289.2793 Q800.5938,289.2793 799.0313,287.3418 Q797.4844,285.3887 797.4844,281.7168 Q797.4844,278.0449 799.0313,276.1074 Q800.5938,274.1543 803.5469,274.1543 Q804.375,274.1543 805.125,274.3262 Q805.8906,274.498 806.5625,274.8574 L806.5625,278.0605 Q805.8125,277.373 805.1094,277.0605 Q804.4219,276.748 803.6719,276.748 Q802.0938,276.748 801.2813,277.998 Q800.4844,279.248 800.4844,281.7168 Q800.4844,284.1855 801.2813,285.4355 Q802.0938,286.6855 803.6719,286.6855 Q804.4219,286.6855 805.1094,286.373 Q805.8125,286.0605 806.5625,285.373 L806.5625,288.5762 Z " fill="#000000"/><text fill="#000000" font-family="sans-serif" font-size="20" font-style="italic" lengthAdjust="spacing" textLength="153" x="816.5" y="276.7813">«Value Object»</text><text fill="#000000" font-family="sans-serif" font-size="20" lengthAdjust="spacing" textLength="80" x="853" y="300.0625">Address</text><line style="stroke:#181818;stroke-width:0.5;" x1="788.5" x2="969.5" y1="309.7793" y2="309.7793"/><line style="stroke:#181818;stroke-width:0.5;" x1="788.5" x2="969.5" y1="317.7793" y2="317.7793"/></g><!--class VatNumber--><g id="elem_VatNumber"><rect codeLine="15" fill="#F1F1F1" height="72.5625" id="VatNumber" rx="2.5" ry="2.5" style="stroke:#181818;stroke-width:0.5;" width="183" x="1005.5" y="253.2168"/><ellipse cx="1021.5" cy="281.498" fill="#ADD1B2" rx="12" ry="12" style="stroke:#181818;stroke-width:1.0;"/><path d="M1024.5625,288.5762 Q1023.875,288.9355 1023.125,289.1074 Q1022.375,289.2793 1021.5469,289.2793 Q1018.5938,289.2793 1017.0313,287.3418 Q1015.4844,285.3887 1015.4844,281.7168 Q1015.4844,278.0449 1017.0313,276.1074 Q1018.5938,274.1543 1021.5469,274.1543 Q1022.375,274.1543 1023.125,274.3262 Q1023.8906,274.498 1024.5625,274.8574 L1024.5625,278.0605 Q1023.8125,277.373 1023.1094,277.0605 Q1022.4219,276.748 1021.6719,276.748 Q1020.0938,276.748 1019.2813,277.998 Q1018.4844,279.248 1018.4844,281.7168 Q1018.4844,284.1855 1019.2813,285.4355 Q1020.0938,286.6855 1021.6719,286.6855 Q1022.4219,286.6855 1023.1094,286.373 Q1023.8125,286.0605 1024.5625,285.373 L1024.5625,288.5762 Z " fill="#000000"/><text fill="#000000" font-family="sans-serif" font-size="20" font-style="italic" lengthAdjust="spacing" textLength="153" x="1034.5" y="276.7813">«Value Object»</text><text fill="#000000" font-family="sans-serif" font-size="20" lengthAdjust="spacing" textLength="115" x="1053.5" y="300.0625">VatNumber</text><line style="stroke:#181818;stroke-width:0.5;" x1="1006.5" x2="1187.5" y1="309.7793" y2="309.7793"/><line style="stroke:#181818;stroke-width:0.5;" x1="1006.5" x2="1187.5" y1="317.7793" y2="317.7793"/></g><!--class CustomerStatus--><g id="elem_CustomerStatus"><rect codeLine="18" fill="#F1F1F1" height="72.5625" id="CustomerStatus" rx="2.5" ry="2.5" style="stroke:#181818;stroke-width:0.5;" width="195" x="21.5" y="253.2168"/><ellipse cx="37.5" cy="281.498" fill="#EB937F" rx="12" ry="12" style="stroke:#181818;stroke-width:1.0;"/><path d="M42.2188,288.998 L33.1406,288.998 L33.1406,274.4199 L42.2188,274.4199 L42.2188,276.9512 L36.0156,276.9512 L36.0156,280.1074 L41.6406,280.1074 L41.6406,282.6387 L36.0156,282.6387 L36.0156,286.4512 L42.2188,286.4512 L42.2188,288.998 Z " fill="#000000"/><text fill="#000000" font-family="sans-serif" font-size="20" font-style="italic" lengthAdjust="spacing" textLength="153" x="56.5" y="276.7813">«Value Object»</text><text fill="#000000" font-family="sans-serif" font-size="20" lengthAdjust="spacing" textLength="161" x="52.5" y="300.0625">CustomerStatus</text><line style="stroke:#181818;stroke-width:0.5;" x1="22.5" x2="215.5" y1="309.7793" y2="309.7793"/><line style="stroke:#181818;stroke-width:0.5;" x1="22.5" x2="215.5" y1="317.7793" y2="317.7793"/></g><!--class CustomerType--><g id="elem_CustomerType"><rect codeLine="21" fill="#F1F1F1" height="72.5625" id="CustomerType" rx="2.5" ry="2.5" style="stroke:#181818;stroke-width:0.5;" width="183" x="251.5" y="253.2168"/><ellipse cx="267.5" cy="281.498" fill="#EB937F" rx="12" ry="12" style="stroke:#181818;stroke-width:1.0;"/><path d="M272.2188,288.998 L263.1406,288.998 L263.1406,274.4199 L272.2188,274.4199 L272.2188,276.9512 L266.0156,276.9512 L266.0156,280.1074 L271.6406,280.1074 L271.6406,282.6387 L266.0156,282.6387 L266.0156,286.4512 L272.2188,286.4512 L272.2188,288.998 Z " fill="#000000"/><text fill="#000000" font-family="sans-serif" font-size="20" font-style="italic" lengthAdjust="spacing" textLength="153" x="280.5" y="276.7813">«Value Object»</text><text fill="#000000" font-family="sans-serif" font-size="20" lengthAdjust="spacing" textLength="145" x="284.5" y="300.0625">CustomerType</text><line style="stroke:#181818;stroke-width:0.5;" x1="252.5" x2="433.5" y1="309.7793" y2="309.7793"/><line style="stroke:#181818;stroke-width:0.5;" x1="252.5" x2="433.5" y1="317.7793" y2="317.7793"/></g><!--class Position--><g id="elem_Position"><rect codeLine="24" fill="#F1F1F1" height="72.5625" id="Position" rx="2.5" ry="2.5" style="stroke:#181818;stroke-width:0.5;" width="183" x="459.5" y="411.2168"/><ellipse cx="475.5" cy="439.498" fill="#ADD1B2" rx="12" ry="12" style="stroke:#181818;stroke-width:1.0;"/><path d="M478.5625,446.5762 Q477.875,446.9355 477.125,447.1074 Q476.375,447.2793 475.5469,447.2793 Q472.5938,447.2793 471.0313,445.3418 Q469.4844,443.3887 469.4844,439.7168 Q469.4844,436.0449 471.0313,434.1074 Q472.5938,432.1543 475.5469,432.1543 Q476.375,432.1543 477.125,432.3262 Q477.8906,432.498 478.5625,432.8574 L478.5625,436.0605 Q477.8125,435.373 477.1094,435.0605 Q476.4219,434.748 475.6719,434.748 Q474.0938,434.748 473.2813,435.998 Q472.4844,437.248 472.4844,439.7168 Q472.4844,442.1855 473.2813,443.4355 Q474.0938,444.6855 475.6719,444.6855 Q476.4219,444.6855 477.1094,444.373 Q477.8125,444.0605 478.5625,443.373 L478.5625,446.5762 Z " fill="#000000"/><text fill="#000000" font-family="sans-serif" font-size="20" font-style="italic" lengthAdjust="spacing" textLength="153" x="488.5" y="434.7813">«Value Object»</text><text fill="#000000" font-family="sans-serif" font-size="20" lengthAdjust="spacing" textLength="79" x="525.5" y="458.0625">Position</text><line style="stroke:#181818;stroke-width:0.5;" x1="460.5" x2="641.5" y1="467.7793" y2="467.7793"/><line style="stroke:#181818;stroke-width:0.5;" x1="460.5" x2="641.5" y1="475.7793" y2="475.7793"/></g><!--class Name--><g id="elem_Name"><rect codeLine="42" fill="#F1F1F1" height="72.5625" id="Name" rx="2.5" ry="2.5" style="stroke:#181818;stroke-width:0.5;" width="183" x="820.5" y="575.2168"/><ellipse cx="836.5" cy="603.498" fill="#ADD1B2" rx="12" ry="12" style="stroke:#181818;stroke-width:1.0;"/><path d="M839.5625,610.5762 Q838.875,610.9355 838.125,611.1074 Q837.375,611.2793 836.5469,611.2793 Q833.5938,611.2793 832.0313,609.3418 Q830.4844,607.3887 830.4844,603.7168 Q830.4844,600.0449 832.0313,598.1074 Q833.5938,596.1543 836.5469,596.1543 Q837.375,596.1543 838.125,596.3262 Q838.8906,596.498 839.5625,596.8574 L839.5625,600.0605 Q838.8125,599.373 838.1094,599.0605 Q837.4219,598.748 836.6719,598.748 Q835.0938,598.748 834.2813,599.998 Q833.4844,601.248 833.4844,603.7168 Q833.4844,606.1855 834.2813,607.4355 Q835.0938,608.6855 836.6719,608.6855 Q837.4219,608.6855 838.1094,608.373 Q838.8125,608.0605 839.5625,607.373 L839.5625,610.5762 Z " fill="#000000"/><text fill="#000000" font-family="sans-serif" font-size="20" font-style="italic" lengthAdjust="spacing" textLength="153" x="849.5" y="598.7813">«Value Object»</text><text fill="#000000" font-family="sans-serif" font-size="20" lengthAdjust="spacing" textLength="59" x="896.5" y="622.0625">Name</text><line style="stroke:#181818;stroke-width:0.5;" x1="821.5" x2="1002.5" y1="631.7793" y2="631.7793"/><line style="stroke:#181818;stroke-width:0.5;" x1="821.5" x2="1002.5" y1="639.7793" y2="639.7793"/></g><!--class Email--><g id="elem_Email"><rect codeLine="45" fill="#F1F1F1" height="72.5625" id="Email" rx="2.5" ry="2.5" style="stroke:#181818;stroke-width:0.5;" width="183" x="602.5" y="575.2168"/><ellipse cx="618.5" cy="603.498" fill="#ADD1B2" rx="12" ry="12" style="stroke:#181818;stroke-width:1.0;"/><path d="M621.5625,610.5762 Q620.875,610.9355 620.125,611.1074 Q619.375,611.2793 618.5469,611.2793 Q615.5938,611.2793 614.0313,609.3418 Q612.4844,607.3887 612.4844,603.7168 Q612.4844,600.0449 614.0313,598.1074 Q615.5938,596.1543 618.5469,596.1543 Q619.375,596.1543 620.125,596.3262 Q620.8906,596.498 621.5625,596.8574 L621.5625,600.0605 Q620.8125,599.373 620.1094,599.0605 Q619.4219,598.748 618.6719,598.748 Q617.0938,598.748 616.2813,599.998 Q615.4844,601.248 615.4844,603.7168 Q615.4844,606.1855 616.2813,607.4355 Q617.0938,608.6855 618.6719,608.6855 Q619.4219,608.6855 620.1094,608.373 Q620.8125,608.0605 621.5625,607.373 L621.5625,610.5762 Z " fill="#000000"/><text fill="#000000" font-family="sans-serif" font-size="20" font-style="italic" lengthAdjust="spacing" textLength="153" x="631.5" y="598.7813">«Value Object»</text><text fill="#000000" font-family="sans-serif" font-size="20" lengthAdjust="spacing" textLength="57" x="679.5" y="622.0625">Email</text><line style="stroke:#181818;stroke-width:0.5;" x1="603.5" x2="784.5" y1="631.7793" y2="631.7793"/><line style="stroke:#181818;stroke-width:0.5;" x1="603.5" x2="784.5" y1="639.7793" y2="639.7793"/></g><!--class PhoneNumber--><g id="elem_PhoneNumber"><rect codeLine="48" fill="#F1F1F1" height="72.5625" id="PhoneNumber" rx="2.5" ry="2.5" style="stroke:#181818;stroke-width:0.5;" width="183" x="1038.5" y="575.2168"/><ellipse cx="1054.5" cy="603.498" fill="#ADD1B2" rx="12" ry="12" style="stroke:#181818;stroke-width:1.0;"/><path d="M1057.5625,610.5762 Q1056.875,610.9355 1056.125,611.1074 Q1055.375,611.2793 1054.5469,611.2793 Q1051.5938,611.2793 1050.0313,609.3418 Q1048.4844,607.3887 1048.4844,603.7168 Q1048.4844,600.0449 1050.0313,598.1074 Q1051.5938,596.1543 1054.5469,596.1543 Q1055.375,596.1543 1056.125,596.3262 Q1056.8906,596.498 1057.5625,596.8574 L1057.5625,600.0605 Q1056.8125,599.373 1056.1094,599.0605 Q1055.4219,598.748 1054.6719,598.748 Q1053.0938,598.748 1052.2813,599.998 Q1051.4844,601.248 1051.4844,603.7168 Q1051.4844,606.1855 1052.2813,607.4355 Q1053.0938,608.6855 1054.6719,608.6855 Q1055.4219,608.6855 1056.1094,608.373 Q1056.8125,608.0605 1057.5625,607.373 L1057.5625,610.5762 Z " fill="#000000"/><text fill="#000000" font-family="sans-serif" font-size="20" font-style="italic" lengthAdjust="spacing" textLength="153" x="1067.5" y="598.7813">«Value Object»</text><text fill="#000000" font-family="sans-serif" font-size="20" lengthAdjust="spacing" textLength="143" x="1072.5" y="622.0625">PhoneNumber</text><line style="stroke:#181818;stroke-width:0.5;" x1="1039.5" x2="1220.5" y1="631.7793" y2="631.7793"/><line style="stroke:#181818;stroke-width:0.5;" x1="1039.5" x2="1220.5" y1="639.7793" y2="639.7793"/></g><!--link Customer to CustomerRepresentative--><g id="link_Customer_CustomerRepresentative"><path codeLine="28" d="M672.43,168.4968 C662.74,177.6068 653.49,187.6468 646,198.2168 C635.41,213.1668 627.51,231.7468 621.91,248.1768 " fill="none" id="Customer-to-CustomerRepresentative" style="stroke:#181818;stroke-width:1.0;"/><polygon fill="#181818" points="620.25,253.1968,626.8776,245.9116,621.8226,248.4505,619.2836,243.3955,620.25,253.1968" style="stroke:#181818;stroke-width:1.0;"/><text fill="#000000" font-family="sans-serif" font-size="20" lengthAdjust="spacing" textLength="151" x="647" y="217.7813">represented by</text><text fill="#000000" font-family="sans-serif" font-size="20" lengthAdjust="spacing" textLength="35" x="583.832" y="240.5696">1..*</text></g><!--link Customer to VatNumber--><g id="link_Customer_VatNumber"><path codeLine="29" d="M801.91,149.2568 C835.08,163.5768 875.83,181.4668 912,198.2168 C948.18,214.9768 987.95,234.3068 1021.31,250.7868 " fill="none" id="Customer-to-VatNumber" style="stroke:#181818;stroke-width:1.0;"/><polygon fill="#181818" points="1026.18,253.1968,1019.8803,245.6262,1021.6965,250.9836,1016.3391,252.7999,1026.18,253.1968" style="stroke:#181818;stroke-width:1.0;"/><text fill="#000000" font-family="sans-serif" font-size="20" lengthAdjust="spacing" textLength="31" x="964" y="217.7813">vat</text><text fill="#000000" font-family="sans-serif" font-size="20" lengthAdjust="spacing" textLength="13" x="999.8906" y="240.5696">1</text></g><!--link Customer to Address--><g id="link_Customer_Address"><path codeLine="30" d="M777.23,168.3368 C785.78,178.1868 794.71,188.5168 803,198.2168 C817.13,214.7468 832.6,233.1068 845.86,248.9468 " fill="none" id="Customer-to-Address" style="stroke:#181818;stroke-width:1.0;"/><polygon fill="#181818" points="849.18,252.9168,846.4739,243.447,845.9721,249.0815,840.3375,248.5797,849.18,252.9168" style="stroke:#181818;stroke-width:1.0;"/><text fill="#000000" font-family="sans-serif" font-size="20" lengthAdjust="spacing" textLength="78" x="825" y="217.7813">address</text><text fill="#000000" font-family="sans-serif" font-size="20" lengthAdjust="spacing" textLength="13" x="830.1645" y="240.5411">1</text></g><!--link Customer to CustomerStatus--><g id="link_Customer_CustomerStatus"><path codeLine="31" d="M670.3,137.2668 C574.11,161.0568 389.47,207.7468 234,253.2168 C229.96,254.3968 225.85,255.6068 221.7,256.8468 " fill="none" id="Customer-to-CustomerStatus" style="stroke:#181818;stroke-width:1.0;"/><polygon fill="#181818" points="216.81,258.3068,226.5771,259.5733,221.6023,256.8805,224.2951,251.9057,216.81,258.3068" style="stroke:#181818;stroke-width:1.0;"/><text fill="#000000" font-family="sans-serif" font-size="20" lengthAdjust="spacing" textLength="61" x="427" y="217.7813">status</text><text fill="#000000" font-family="sans-serif" font-size="20" lengthAdjust="spacing" textLength="13" x="224.4703" y="250.7464">1</text></g><!--link Customer to CustomerType--><g id="link_Customer_CustomerType"><path codeLine="32" d="M670.22,149.2568 C604.69,177.1868 503.65,220.2468 431.19,251.1268 " fill="none" id="Customer-to-CustomerType" style="stroke:#181818;stroke-width:1.0;"/><polygon fill="#181818" points="426.46,253.1468,436.3076,253.304,431.0609,251.1893,433.1756,245.9426,426.46,253.1468" style="stroke:#181818;stroke-width:1.0;"/><text fill="#000000" font-family="sans-serif" font-size="20" lengthAdjust="spacing" textLength="44" x="552" y="217.7813">type</text><text fill="#000000" font-family="sans-serif" font-size="20" lengthAdjust="spacing" textLength="13" x="426.6875" y="240.511">1</text></g><!--link CustomerRepresentative to Position--><g id="link_CustomerRepresentative_Position"><path codeLine="35" d="M597.23,326.5068 C588.09,350.2868 576.06,381.5568 566.56,406.2468 " fill="none" id="CustomerRepresentative-to-Position" style="stroke:#181818;stroke-width:1.0;"/><polygon fill="#181818" points="564.7,411.0968,571.6685,404.1369,566.4978,406.4312,564.2035,401.2605,564.7,411.0968" style="stroke:#181818;stroke-width:1.0;"/><text fill="#000000" font-family="sans-serif" font-size="20" lengthAdjust="spacing" textLength="80" x="585" y="375.7813">position</text><text fill="#000000" font-family="sans-serif" font-size="20" lengthAdjust="spacing" textLength="13" x="552.9375" y="398.4524">1</text></g><!--link CustomerRepresentative to CustomerRepresentativeStatus--><g id="link_CustomerRepresentative_CustomerRepresentativeStatus"><path codeLine="36" d="M528.86,326.3068 C471.84,351.0168 395.99,383.8868 337.95,409.0368 " fill="none" id="CustomerRepresentative-to-CustomerRepresentativeStatus" style="stroke:#181818;stroke-width:1.0;"/><polygon fill="#181818" points="333.1,411.1368,342.9484,411.2311,337.6883,409.15,339.7695,403.8899,333.1,411.1368" style="stroke:#181818;stroke-width:1.0;"/><text fill="#000000" font-family="sans-serif" font-size="20" lengthAdjust="spacing" textLength="61" x="453" y="375.7813">status</text><text fill="#000000" font-family="sans-serif" font-size="20" lengthAdjust="spacing" textLength="13" x="333.0938" y="398.4993">1</text></g><!--link Customer to Name--><g id="link_Customer_Name"><path codeLine="52" d="M801.6,129.8868 C918.92,146.8668 1157.05,188.6268 1206,253.2168 C1241.41,299.9368 1242.14,451.7368 1185,508.2168 C1158.94,533.9768 1054.97,511.4868 1021,525.2168 C995.08,535.6968 970.22,554.2868 950.81,571.4668 " fill="none" id="Customer-to-Name" style="stroke:#181818;stroke-width:1.0;"/><polygon fill="#181818" points="947,574.8768,956.3777,571.8671,950.7299,571.547,951.0501,565.8992,947,574.8768" style="stroke:#181818;stroke-width:1.0;"/><text fill="#000000" font-family="sans-serif" font-size="20" lengthAdjust="spacing" textLength="57" x="1231" y="375.7813">name</text><text fill="#000000" font-family="sans-serif" font-size="20" lengthAdjust="spacing" textLength="13" x="953.8734" y="562.4945">1</text></g><!--link CustomerRepresentative to Name--><g id="link_CustomerRepresentative_Name"><path codeLine="55" d="M663.84,326.4968 C677.14,335.8968 691.26,346.2168 704,356.2168 C733.23,379.1668 741.92,383.7868 767,411.2168 C813.93,462.5368 859.68,529.0468 886.85,570.8068 " fill="none" id="CustomerRepresentative-to-Name" style="stroke:#181818;stroke-width:1.0;"/><polygon fill="#181818" points="889.59,575.0168,888.0494,565.2892,886.8696,570.8216,881.3371,569.6418,889.59,575.0168" style="stroke:#181818;stroke-width:1.0;"/><text fill="#000000" font-family="sans-serif" font-size="20" lengthAdjust="spacing" textLength="57" x="844" y="454.7813">name</text><text fill="#000000" font-family="sans-serif" font-size="20" lengthAdjust="spacing" textLength="13" x="871.6211" y="562.3586">1</text></g><!--link CustomerRepresentative to Email--><g id="link_CustomerRepresentative_Email"><path codeLine="56" d="M653.67,326.4568 C661.74,335.3268 669.15,345.4268 674,356.2168 C705.43,426.1768 703.5,517.8568 698.96,569.9168 " fill="none" id="CustomerRepresentative-to-Email" style="stroke:#181818;stroke-width:1.0;"/><polygon fill="#181818" points="698.48,575.1368,703.2851,566.5396,698.9365,570.1577,695.3185,565.8092,698.48,575.1368" style="stroke:#181818;stroke-width:1.0;"/><text fill="#000000" font-family="sans-serif" font-size="20" lengthAdjust="spacing" textLength="56" x="702" y="454.7813">email</text><text fill="#000000" font-family="sans-serif" font-size="20" lengthAdjust="spacing" textLength="13" x="685.1328" y="562.4993">1</text></g><!--link CustomerRepresentative to PhoneNumber--><g id="link_CustomerRepresentative_PhoneNumber"><path codeLine="57" d="M725.96,326.2868 C783.55,346.7268 852.97,375.4768 910,411.2168 C982.73,456.7968 1053.9,527.4668 1094.79,571.3068 " fill="none" id="CustomerRepresentative-to-PhoneNumber" style="stroke:#181818;stroke-width:1.0;"/><polygon fill="#181818" points="1098.41,575.2068,1095.2296,565.8856,1095.0127,571.5383,1089.36,571.3213,1098.41,575.2068" style="stroke:#181818;stroke-width:1.0;"/><text fill="#000000" font-family="sans-serif" font-size="20" lengthAdjust="spacing" textLength="144" x="1032" y="454.7813">phoneNumber</text><text fill="#000000" font-family="sans-serif" font-size="20" lengthAdjust="spacing" textLength="13" x="1078.8633" y="562.5813">1</text></g><!--SRC=[fLF1ReCm3Btp5HQNIPEejXqZX3HDtR6RnjIx2nxDW0GbeHgh-k_BeANGKHHfN1oSzupViz4v5nKgB0kPv9H2IXzO5-PP2XFpRuA7Ey-hCCan8_2VQcraIGfy24FCCaKP6eeYs7jWdwH0hQ47XU5I66uQUn-6IaeJHHtku4t0twXIf4aOD7n70_A8Gw8khr1Y6sfjYMiiQeANpISbqvzyJ5FBSuAkqQpgSjEgcG6Fsd9fP4HuRofoQUPLQcwu5FFOctu0GGHVRQhFG61p_lrYSUjVCvw1EYNiEcoQSO6ExmzyOR13Cmqw-Sm0kzCqxC8t1hezp8DRpnWO6uwoBtJy4NzvVopOcygWEXvTQBCxs4lm3kU_9zwYiexkXnDTOUaq-MM9l71QaQqKvBAnSriI12ULRNyCX0t_StbOo07UwML0lz5fYWFTTf3dDpk17m00]--></g></svg>