<?xml version="1.0" encoding="UTF-8" standalone="no"?><svg xmlns="http://www.w3.org/2000/svg" xmlns:xlink="http://www.w3.org/1999/xlink" contentStyleType="text/css" height="932px" preserveAspectRatio="none" style="width:2701px;height:932px;background:#FFFFFF;" version="1.1" viewBox="0 0 2701 932" width="2701px" zoomAndPan="magnify"><defs/><g><!--cluster CRMCollaborator --><g id="cluster_CRMCollaborator "><path d="M1664.5,249.8945 L1833.5,249.8945 A3.75,3.75 0 0 1 1836,252.3945 L1843,281.0508 L1879.5,281.0508 A2.5,2.5 0 0 1 1882,283.5508 L1882,433.3945 A2.5,2.5 0 0 1 1879.5,435.8945 L1664.5,435.8945 A2.5,2.5 0 0 1 1662,433.3945 L1662,252.3945 A2.5,2.5 0 0 1 1664.5,249.8945 " fill="none" style="stroke:#000000;stroke-width:1.5;"/><line style="stroke:#000000;stroke-width:1.5;" x1="1662" x2="1843" y1="281.0508" y2="281.0508"/><text fill="#000000" font-family="sans-serif" font-size="20" font-weight="bold" lengthAdjust="spacing" textLength="162" x="1666" y="272.6563">CRMCollaborator</text><text fill="#000000" font-family="sans-serif" font-size="20" font-style="italic" lengthAdjust="spacing" textLength="111" x="1720.5" y="303.8125">«aggregate»</text></g><!--cluster ModelOfDrone --><g id="cluster_ModelOfDrone "><path d="M1244.5,739.8945 L1388.5,739.8945 A3.75,3.75 0 0 1 1391,742.3945 L1398,771.0508 L1398.5,771.0508 A2.5,2.5 0 0 1 1401,773.5508 L1401,923.3945 A2.5,2.5 0 0 1 1398.5,925.8945 L1244.5,925.8945 A2.5,2.5 0 0 1 1242,923.3945 L1242,742.3945 A2.5,2.5 0 0 1 1244.5,739.8945 " fill="none" style="stroke:#000000;stroke-width:1.5;"/><line style="stroke:#000000;stroke-width:1.5;" x1="1242" x2="1398" y1="771.0508" y2="771.0508"/><text fill="#000000" font-family="sans-serif" font-size="20" font-weight="bold" lengthAdjust="spacing" textLength="137" x="1246" y="762.6563">ModelOfDrone</text><text fill="#000000" font-family="sans-serif" font-size="20" font-style="italic" lengthAdjust="spacing" textLength="111" x="1270" y="793.8125">«aggregate»</text></g><!--cluster Figure --><g id="cluster_Figure "><path d="M1908.5,249.8945 L1975.5,249.8945 A3.75,3.75 0 0 1 1978,252.3945 L1985,281.0508 L2037.5,281.0508 A2.5,2.5 0 0 1 2040,283.5508 L2040,433.3945 A2.5,2.5 0 0 1 2037.5,435.8945 L1908.5,435.8945 A2.5,2.5 0 0 1 1906,433.3945 L1906,252.3945 A2.5,2.5 0 0 1 1908.5,249.8945 " fill="none" style="stroke:#000000;stroke-width:1.5;"/><line style="stroke:#000000;stroke-width:1.5;" x1="1906" x2="1985" y1="281.0508" y2="281.0508"/><text fill="#000000" font-family="sans-serif" font-size="20" font-weight="bold" lengthAdjust="spacing" textLength="60" x="1910" y="272.6563">Figure</text><text fill="#000000" font-family="sans-serif" font-size="20" font-style="italic" lengthAdjust="spacing" textLength="111" x="1921.5" y="303.8125">«aggregate»</text></g><!--cluster ShowRequest --><g id="cluster_ShowRequest "><path d="M2066.5,249.8945 L2203.5,249.8945 A3.75,3.75 0 0 1 2206,252.3945 L2213,281.0508 L2249.5,281.0508 A2.5,2.5 0 0 1 2252,283.5508 L2252,433.3945 A2.5,2.5 0 0 1 2249.5,435.8945 L2066.5,435.8945 A2.5,2.5 0 0 1 2064,433.3945 L2064,252.3945 A2.5,2.5 0 0 1 2066.5,249.8945 " fill="none" style="stroke:#000000;stroke-width:1.5;"/><line style="stroke:#000000;stroke-width:1.5;" x1="2064" x2="2213" y1="281.0508" y2="281.0508"/><text fill="#000000" font-family="sans-serif" font-size="20" font-weight="bold" lengthAdjust="spacing" textLength="130" x="2068" y="272.6563">ShowRequest</text><text fill="#000000" font-family="sans-serif" font-size="20" font-style="italic" lengthAdjust="spacing" textLength="111" x="2106.5" y="303.8125">«aggregate»</text></g><!--cluster Drone --><g id="cluster_Drone "><path d="M1257.5,494.8945 L1321.5,494.8945 A3.75,3.75 0 0 1 1324,497.3945 L1331,526.0508 L1386.5,526.0508 A2.5,2.5 0 0 1 1389,528.5508 L1389,678.3945 A2.5,2.5 0 0 1 1386.5,680.8945 L1257.5,680.8945 A2.5,2.5 0 0 1 1255,678.3945 L1255,497.3945 A2.5,2.5 0 0 1 1257.5,494.8945 " fill="none" style="stroke:#000000;stroke-width:1.5;"/><line style="stroke:#000000;stroke-width:1.5;" x1="1255" x2="1331" y1="526.0508" y2="526.0508"/><text fill="#000000" font-family="sans-serif" font-size="20" font-weight="bold" lengthAdjust="spacing" textLength="57" x="1259" y="517.6563">Drone</text><text fill="#000000" font-family="sans-serif" font-size="20" font-style="italic" lengthAdjust="spacing" textLength="111" x="1270.5" y="548.8125">«aggregate»</text></g><!--cluster ShowProposal --><g id="cluster_ShowProposal "><path d="M8.5,6.8945 L151.5,6.8945 A3.75,3.75 0 0 1 154,9.3945 L161,38.0508 L1635.5,38.0508 A2.5,2.5 0 0 1 1638,40.5508 L1638,420.8945 A2.5,2.5 0 0 1 1635.5,423.3945 L8.5,423.3945 A2.5,2.5 0 0 1 6,420.8945 L6,9.3945 A2.5,2.5 0 0 1 8.5,6.8945 " fill="none" style="stroke:#000000;stroke-width:1.5;"/><line style="stroke:#000000;stroke-width:1.5;" x1="6" x2="161" y1="38.0508" y2="38.0508"/><text fill="#000000" font-family="sans-serif" font-size="20" font-weight="bold" lengthAdjust="spacing" textLength="136" x="10" y="29.6563">ShowProposal</text><text fill="#000000" font-family="sans-serif" font-size="20" font-style="italic" lengthAdjust="spacing" textLength="111" x="770.5" y="60.8125">«aggregate»</text></g><!--cluster Shared--><g id="cluster_Shared"><path d="M2070.5,777.3945 L2138.5,777.3945 A3.75,3.75 0 0 1 2141,779.8945 L2148,808.5508 L2691.5,808.5508 A2.5,2.5 0 0 1 2694,811.0508 L2694,910.8945 A2.5,2.5 0 0 1 2691.5,913.3945 L2070.5,913.3945 A2.5,2.5 0 0 1 2068,910.8945 L2068,779.8945 A2.5,2.5 0 0 1 2070.5,777.3945 " fill="none" style="stroke:#000000;stroke-width:1.5;"/><line style="stroke:#000000;stroke-width:1.5;" x1="2068" x2="2148" y1="808.5508" y2="808.5508"/><text fill="#000000" font-family="sans-serif" font-size="20" font-weight="bold" lengthAdjust="spacing" textLength="67" x="2072" y="800.1563">Shared</text></g><!--class CRMCollaborator--><g id="elem_CRMCollaborator"><rect codeLine="4" fill="#F1F1F1" height="101.4688" id="CRMCollaborator" rx="2.5" ry="2.5" style="stroke:#181818;stroke-width:0.5;" width="187" x="1678.5" y="318.8945"/><ellipse cx="1694.5" cy="361.6289" fill="#ADD1B2" rx="12" ry="12" style="stroke:#181818;stroke-width:1.0;"/><path d="M1696.6406,356.5508 Q1696.8281,356.3008 1697.0469,356.1758 Q1697.2656,356.0352 1697.5156,356.0352 Q1697.9531,356.0352 1698.2344,356.3477 Q1698.5156,356.6445 1698.5156,357.3633 L1698.5156,359.0664 Q1698.5156,359.7852 1698.2344,360.0977 Q1697.9531,360.4102 1697.5156,360.4102 Q1697.125,360.4102 1696.875,360.1758 Q1696.625,359.957 1696.5156,359.3477 Q1696.4531,358.9258 1696.2344,358.707 Q1695.8438,358.2695 1695.125,358.0039 Q1694.4063,357.7383 1693.6875,357.7383 Q1692.7813,357.7383 1692.0313,358.1289 Q1691.2813,358.5195 1690.7031,359.4102 Q1690.125,360.2852 1690.125,361.4883 L1690.125,362.7852 Q1690.125,364.2383 1691.1719,365.207 Q1692.2344,366.1758 1694.0938,366.1758 Q1695.2031,366.1758 1695.9844,365.8633 Q1696.4219,365.6914 1696.9375,365.1758 Q1697.25,364.8633 1697.4219,364.7695 Q1697.5938,364.6758 1697.8281,364.6758 Q1698.2188,364.6758 1698.5156,364.9883 Q1698.8281,365.2852 1698.8281,365.6914 Q1698.8281,366.0977 1698.4219,366.5664 Q1697.8281,367.2539 1696.8906,367.6445 Q1695.625,368.1758 1694.1094,368.1758 Q1692.3281,368.1758 1690.9063,367.4414 Q1689.75,366.8477 1688.9375,365.582 Q1688.125,364.3164 1688.125,362.832 L1688.125,361.4727 Q1688.125,359.9102 1688.8438,358.5664 Q1689.5781,357.207 1690.8594,356.4727 Q1692.1563,355.7383 1693.6094,355.7383 Q1694.4688,355.7383 1695.2188,355.9414 Q1695.9844,356.1445 1696.6406,356.5508 Z " fill="#000000"/><text fill="#000000" font-family="sans-serif" font-size="20" font-style="italic" lengthAdjust="spacing" textLength="71" x="1750.5" y="344.6563">«Entity»</text><text fill="#000000" font-family="sans-serif" font-size="20" font-style="italic" lengthAdjust="spacing" textLength="56" x="1758" y="369.8125">«root»</text><text fill="#000000" font-family="sans-serif" font-size="20" lengthAdjust="spacing" textLength="153" x="1709.5" y="394.9688">CRMCollaborator</text><line style="stroke:#181818;stroke-width:0.5;" x1="1679.5" x2="1864.5" y1="404.3633" y2="404.3633"/><line style="stroke:#181818;stroke-width:0.5;" x1="1679.5" x2="1864.5" y1="412.3633" y2="412.3633"/></g><!--class Model--><g id="elem_Model"><rect codeLine="10" fill="#F1F1F1" height="101.4688" id="Model" rx="2.5" ry="2.5" style="stroke:#181818;stroke-width:0.5;" width="101" x="1271.5" y="808.8945"/><ellipse cx="1287.5" cy="851.6289" fill="#ADD1B2" rx="12" ry="12" style="stroke:#181818;stroke-width:1.0;"/><path d="M1289.6406,846.5508 Q1289.8281,846.3008 1290.0469,846.1758 Q1290.2656,846.0352 1290.5156,846.0352 Q1290.9531,846.0352 1291.2344,846.3477 Q1291.5156,846.6445 1291.5156,847.3633 L1291.5156,849.0664 Q1291.5156,849.7852 1291.2344,850.0977 Q1290.9531,850.4102 1290.5156,850.4102 Q1290.125,850.4102 1289.875,850.1758 Q1289.625,849.957 1289.5156,849.3477 Q1289.4531,848.9258 1289.2344,848.707 Q1288.8438,848.2695 1288.125,848.0039 Q1287.4063,847.7383 1286.6875,847.7383 Q1285.7813,847.7383 1285.0313,848.1289 Q1284.2813,848.5195 1283.7031,849.4102 Q1283.125,850.2852 1283.125,851.4883 L1283.125,852.7852 Q1283.125,854.2383 1284.1719,855.207 Q1285.2344,856.1758 1287.0938,856.1758 Q1288.2031,856.1758 1288.9844,855.8633 Q1289.4219,855.6914 1289.9375,855.1758 Q1290.25,854.8633 1290.4219,854.7695 Q1290.5938,854.6758 1290.8281,854.6758 Q1291.2188,854.6758 1291.5156,854.9883 Q1291.8281,855.2852 1291.8281,855.6914 Q1291.8281,856.0977 1291.4219,856.5664 Q1290.8281,857.2539 1289.8906,857.6445 Q1288.625,858.1758 1287.1094,858.1758 Q1285.3281,858.1758 1283.9063,857.4414 Q1282.75,856.8477 1281.9375,855.582 Q1281.125,854.3164 1281.125,852.832 L1281.125,851.4727 Q1281.125,849.9102 1281.8438,848.5664 Q1282.5781,847.207 1283.8594,846.4727 Q1285.1563,845.7383 1286.6094,845.7383 Q1287.4688,845.7383 1288.2188,845.9414 Q1288.9844,846.1445 1289.6406,846.5508 Z " fill="#000000"/><text fill="#000000" font-family="sans-serif" font-size="20" font-style="italic" lengthAdjust="spacing" textLength="71" x="1300.5" y="834.6563">«Entity»</text><text fill="#000000" font-family="sans-serif" font-size="20" font-style="italic" lengthAdjust="spacing" textLength="56" x="1308" y="859.8125">«root»</text><text fill="#000000" font-family="sans-serif" font-size="20" lengthAdjust="spacing" textLength="54" x="1309" y="884.9688">Model</text><line style="stroke:#181818;stroke-width:0.5;" x1="1272.5" x2="1371.5" y1="894.3633" y2="894.3633"/><line style="stroke:#181818;stroke-width:0.5;" x1="1272.5" x2="1371.5" y1="902.3633" y2="902.3633"/></g><!--class Figure--><g id="elem_Figure"><rect codeLine="17" fill="#F1F1F1" height="101.4688" id="Figure" rx="2.5" ry="2.5" style="stroke:#181818;stroke-width:0.5;" width="101" x="1922.5" y="318.8945"/><ellipse cx="1938.5" cy="361.6289" fill="#ADD1B2" rx="12" ry="12" style="stroke:#181818;stroke-width:1.0;"/><path d="M1940.6406,356.5508 Q1940.8281,356.3008 1941.0469,356.1758 Q1941.2656,356.0352 1941.5156,356.0352 Q1941.9531,356.0352 1942.2344,356.3477 Q1942.5156,356.6445 1942.5156,357.3633 L1942.5156,359.0664 Q1942.5156,359.7852 1942.2344,360.0977 Q1941.9531,360.4102 1941.5156,360.4102 Q1941.125,360.4102 1940.875,360.1758 Q1940.625,359.957 1940.5156,359.3477 Q1940.4531,358.9258 1940.2344,358.707 Q1939.8438,358.2695 1939.125,358.0039 Q1938.4063,357.7383 1937.6875,357.7383 Q1936.7813,357.7383 1936.0313,358.1289 Q1935.2813,358.5195 1934.7031,359.4102 Q1934.125,360.2852 1934.125,361.4883 L1934.125,362.7852 Q1934.125,364.2383 1935.1719,365.207 Q1936.2344,366.1758 1938.0938,366.1758 Q1939.2031,366.1758 1939.9844,365.8633 Q1940.4219,365.6914 1940.9375,365.1758 Q1941.25,364.8633 1941.4219,364.7695 Q1941.5938,364.6758 1941.8281,364.6758 Q1942.2188,364.6758 1942.5156,364.9883 Q1942.8281,365.2852 1942.8281,365.6914 Q1942.8281,366.0977 1942.4219,366.5664 Q1941.8281,367.2539 1940.8906,367.6445 Q1939.625,368.1758 1938.1094,368.1758 Q1936.3281,368.1758 1934.9063,367.4414 Q1933.75,366.8477 1932.9375,365.582 Q1932.125,364.3164 1932.125,362.832 L1932.125,361.4727 Q1932.125,359.9102 1932.8438,358.5664 Q1933.5781,357.207 1934.8594,356.4727 Q1936.1563,355.7383 1937.6094,355.7383 Q1938.4688,355.7383 1939.2188,355.9414 Q1939.9844,356.1445 1940.6406,356.5508 Z " fill="#000000"/><text fill="#000000" font-family="sans-serif" font-size="20" font-style="italic" lengthAdjust="spacing" textLength="71" x="1951.5" y="344.6563">«Entity»</text><text fill="#000000" font-family="sans-serif" font-size="20" font-style="italic" lengthAdjust="spacing" textLength="56" x="1959" y="369.8125">«root»</text><text fill="#000000" font-family="sans-serif" font-size="20" lengthAdjust="spacing" textLength="55" x="1959.5" y="394.9688">Figure</text><line style="stroke:#181818;stroke-width:0.5;" x1="1923.5" x2="2022.5" y1="404.3633" y2="404.3633"/><line style="stroke:#181818;stroke-width:0.5;" x1="1923.5" x2="2022.5" y1="412.3633" y2="412.3633"/></g><!--class ShowRequest--><g id="elem_ShowRequest"><rect codeLine="23" fill="#F1F1F1" height="101.4688" id="ShowRequest" rx="2.5" ry="2.5" style="stroke:#181818;stroke-width:0.5;" width="156" x="2080" y="318.8945"/><ellipse cx="2096" cy="361.6289" fill="#ADD1B2" rx="12" ry="12" style="stroke:#181818;stroke-width:1.0;"/><path d="M2098.1406,356.5508 Q2098.3281,356.3008 2098.5469,356.1758 Q2098.7656,356.0352 2099.0156,356.0352 Q2099.4531,356.0352 2099.7344,356.3477 Q2100.0156,356.6445 2100.0156,357.3633 L2100.0156,359.0664 Q2100.0156,359.7852 2099.7344,360.0977 Q2099.4531,360.4102 2099.0156,360.4102 Q2098.625,360.4102 2098.375,360.1758 Q2098.125,359.957 2098.0156,359.3477 Q2097.9531,358.9258 2097.7344,358.707 Q2097.3438,358.2695 2096.625,358.0039 Q2095.9063,357.7383 2095.1875,357.7383 Q2094.2813,357.7383 2093.5313,358.1289 Q2092.7813,358.5195 2092.2031,359.4102 Q2091.625,360.2852 2091.625,361.4883 L2091.625,362.7852 Q2091.625,364.2383 2092.6719,365.207 Q2093.7344,366.1758 2095.5938,366.1758 Q2096.7031,366.1758 2097.4844,365.8633 Q2097.9219,365.6914 2098.4375,365.1758 Q2098.75,364.8633 2098.9219,364.7695 Q2099.0938,364.6758 2099.3281,364.6758 Q2099.7188,364.6758 2100.0156,364.9883 Q2100.3281,365.2852 2100.3281,365.6914 Q2100.3281,366.0977 2099.9219,366.5664 Q2099.3281,367.2539 2098.3906,367.6445 Q2097.125,368.1758 2095.6094,368.1758 Q2093.8281,368.1758 2092.4063,367.4414 Q2091.25,366.8477 2090.4375,365.582 Q2089.625,364.3164 2089.625,362.832 L2089.625,361.4727 Q2089.625,359.9102 2090.3438,358.5664 Q2091.0781,357.207 2092.3594,356.4727 Q2093.6563,355.7383 2095.1094,355.7383 Q2095.9688,355.7383 2096.7188,355.9414 Q2097.4844,356.1445 2098.1406,356.5508 Z " fill="#000000"/><text fill="#000000" font-family="sans-serif" font-size="20" font-style="italic" lengthAdjust="spacing" textLength="71" x="2136.5" y="344.6563">«Entity»</text><text fill="#000000" font-family="sans-serif" font-size="20" font-style="italic" lengthAdjust="spacing" textLength="56" x="2144" y="369.8125">«root»</text><text fill="#000000" font-family="sans-serif" font-size="20" lengthAdjust="spacing" textLength="122" x="2111" y="394.9688">ShowRequest</text><line style="stroke:#181818;stroke-width:0.5;" x1="2081" x2="2235" y1="404.3633" y2="404.3633"/><line style="stroke:#181818;stroke-width:0.5;" x1="2081" x2="2235" y1="412.3633" y2="412.3633"/></g><!--class Drone--><g id="elem_Drone"><rect codeLine="29" fill="#F1F1F1" height="101.4688" id="Drone" rx="2.5" ry="2.5" style="stroke:#181818;stroke-width:0.5;" width="101" x="1271.5" y="563.8945"/><ellipse cx="1287.5" cy="606.6289" fill="#ADD1B2" rx="12" ry="12" style="stroke:#181818;stroke-width:1.0;"/><path d="M1289.6406,601.5508 Q1289.8281,601.3008 1290.0469,601.1758 Q1290.2656,601.0352 1290.5156,601.0352 Q1290.9531,601.0352 1291.2344,601.3477 Q1291.5156,601.6445 1291.5156,602.3633 L1291.5156,604.0664 Q1291.5156,604.7852 1291.2344,605.0977 Q1290.9531,605.4102 1290.5156,605.4102 Q1290.125,605.4102 1289.875,605.1758 Q1289.625,604.957 1289.5156,604.3477 Q1289.4531,603.9258 1289.2344,603.707 Q1288.8438,603.2695 1288.125,603.0039 Q1287.4063,602.7383 1286.6875,602.7383 Q1285.7813,602.7383 1285.0313,603.1289 Q1284.2813,603.5195 1283.7031,604.4102 Q1283.125,605.2852 1283.125,606.4883 L1283.125,607.7852 Q1283.125,609.2383 1284.1719,610.207 Q1285.2344,611.1758 1287.0938,611.1758 Q1288.2031,611.1758 1288.9844,610.8633 Q1289.4219,610.6914 1289.9375,610.1758 Q1290.25,609.8633 1290.4219,609.7695 Q1290.5938,609.6758 1290.8281,609.6758 Q1291.2188,609.6758 1291.5156,609.9883 Q1291.8281,610.2852 1291.8281,610.6914 Q1291.8281,611.0977 1291.4219,611.5664 Q1290.8281,612.2539 1289.8906,612.6445 Q1288.625,613.1758 1287.1094,613.1758 Q1285.3281,613.1758 1283.9063,612.4414 Q1282.75,611.8477 1281.9375,610.582 Q1281.125,609.3164 1281.125,607.832 L1281.125,606.4727 Q1281.125,604.9102 1281.8438,603.5664 Q1282.5781,602.207 1283.8594,601.4727 Q1285.1563,600.7383 1286.6094,600.7383 Q1287.4688,600.7383 1288.2188,600.9414 Q1288.9844,601.1445 1289.6406,601.5508 Z " fill="#000000"/><text fill="#000000" font-family="sans-serif" font-size="20" font-style="italic" lengthAdjust="spacing" textLength="71" x="1300.5" y="589.6563">«Entity»</text><text fill="#000000" font-family="sans-serif" font-size="20" font-style="italic" lengthAdjust="spacing" textLength="56" x="1308" y="614.8125">«root»</text><text fill="#000000" font-family="sans-serif" font-size="20" lengthAdjust="spacing" textLength="53" x="1309.5" y="639.9688">Drone</text><line style="stroke:#181818;stroke-width:0.5;" x1="1272.5" x2="1371.5" y1="649.3633" y2="649.3633"/><line style="stroke:#181818;stroke-width:0.5;" x1="1272.5" x2="1371.5" y1="657.3633" y2="657.3633"/></g><!--class ShowProposalStatus--><g id="elem_ShowProposalStatus"><rect codeLine="36" fill="#F1F1F1" height="76.3125" id="ShowProposalStatus" rx="2.5" ry="2.5" style="stroke:#181818;stroke-width:0.5;" width="217" x="22.5" y="331.3945"/><ellipse cx="38.5" cy="361.5508" fill="#EB937F" rx="12" ry="12" style="stroke:#181818;stroke-width:1.0;"/><path d="M36.4531,362.6133 L36.4531,365.5508 L41.5469,365.5508 L41.5469,364.457 Q41.5469,363.7383 41.8281,363.4414 Q42.1094,363.1289 42.5625,363.1289 Q43,363.1289 43.2813,363.4414 Q43.5625,363.7383 43.5625,364.457 L43.5625,367.5508 L34.125,367.5508 Q33.4063,367.5508 33.0938,367.2695 Q32.7969,366.9883 32.7969,366.5508 Q32.7969,366.0977 33.1094,365.832 Q33.4219,365.5508 34.125,365.5508 L34.4375,365.5508 L34.4375,357.7227 L34.125,357.7227 Q33.4063,357.7227 33.0938,357.4414 Q32.7969,357.1602 32.7969,356.707 Q32.7969,356.2539 33.0938,355.9883 Q33.4063,355.707 34.125,355.707 L43.1094,355.707 L43.1094,358.7539 Q43.1094,359.4727 42.8281,359.7852 Q42.5625,360.082 42.125,360.082 Q41.6719,360.082 41.3906,359.7852 Q41.1094,359.4883 41.1094,358.7539 L41.1094,357.7227 L36.4531,357.7227 L36.4531,360.6133 L38.2031,360.6133 Q38.2031,359.832 38.3438,359.5977 Q38.6563,359.1289 39.2031,359.1289 Q39.6563,359.1289 39.9219,359.4414 Q40.2031,359.7383 40.2031,360.457 L40.2031,362.7695 Q40.2031,363.4258 40.0469,363.6445 Q39.7344,364.0977 39.2031,364.0977 Q38.6563,364.0977 38.3438,363.6289 Q38.2031,363.3945 38.2031,362.6133 L36.4531,362.6133 Z " fill="#000000"/><text fill="#000000" font-family="sans-serif" font-size="20" font-style="italic" lengthAdjust="spacing" textLength="136" x="77" y="357.1563">«Value Object»</text><text fill="#000000" font-family="sans-serif" font-size="20" lengthAdjust="spacing" textLength="183" x="53.5" y="382.3125">ShowProposalStatus</text><line style="stroke:#181818;stroke-width:0.5;" x1="23.5" x2="238.5" y1="391.707" y2="391.707"/><line style="stroke:#181818;stroke-width:0.5;" x1="23.5" x2="238.5" y1="399.707" y2="399.707"/></g><!--class ShowProposal--><g id="elem_ShowProposal"><rect codeLine="39" fill="#F1F1F1" height="101.4688" id="ShowProposal" rx="2.5" ry="2.5" style="stroke:#181818;stroke-width:0.5;" width="161" x="1458.5" y="75.8945"/><ellipse cx="1474.5" cy="118.6289" fill="#ADD1B2" rx="12" ry="12" style="stroke:#181818;stroke-width:1.0;"/><path d="M1476.6406,113.5508 Q1476.8281,113.3008 1477.0469,113.1758 Q1477.2656,113.0352 1477.5156,113.0352 Q1477.9531,113.0352 1478.2344,113.3477 Q1478.5156,113.6445 1478.5156,114.3633 L1478.5156,116.0664 Q1478.5156,116.7852 1478.2344,117.0977 Q1477.9531,117.4102 1477.5156,117.4102 Q1477.125,117.4102 1476.875,117.1758 Q1476.625,116.957 1476.5156,116.3477 Q1476.4531,115.9258 1476.2344,115.707 Q1475.8438,115.2695 1475.125,115.0039 Q1474.4063,114.7383 1473.6875,114.7383 Q1472.7813,114.7383 1472.0313,115.1289 Q1471.2813,115.5195 1470.7031,116.4102 Q1470.125,117.2852 1470.125,118.4883 L1470.125,119.7852 Q1470.125,121.2383 1471.1719,122.207 Q1472.2344,123.1758 1474.0938,123.1758 Q1475.2031,123.1758 1475.9844,122.8633 Q1476.4219,122.6914 1476.9375,122.1758 Q1477.25,121.8633 1477.4219,121.7695 Q1477.5938,121.6758 1477.8281,121.6758 Q1478.2188,121.6758 1478.5156,121.9883 Q1478.8281,122.2852 1478.8281,122.6914 Q1478.8281,123.0977 1478.4219,123.5664 Q1477.8281,124.2539 1476.8906,124.6445 Q1475.625,125.1758 1474.1094,125.1758 Q1472.3281,125.1758 1470.9063,124.4414 Q1469.75,123.8477 1468.9375,122.582 Q1468.125,121.3164 1468.125,119.832 L1468.125,118.4727 Q1468.125,116.9102 1468.8438,115.5664 Q1469.5781,114.207 1470.8594,113.4727 Q1472.1563,112.7383 1473.6094,112.7383 Q1474.4688,112.7383 1475.2188,112.9414 Q1475.9844,113.1445 1476.6406,113.5508 Z " fill="#000000"/><text fill="#000000" font-family="sans-serif" font-size="20" font-style="italic" lengthAdjust="spacing" textLength="71" x="1517.5" y="101.6563">«Entity»</text><text fill="#000000" font-family="sans-serif" font-size="20" font-style="italic" lengthAdjust="spacing" textLength="56" x="1525" y="126.8125">«root»</text><text fill="#000000" font-family="sans-serif" font-size="20" lengthAdjust="spacing" textLength="127" x="1489.5" y="151.9688">ShowProposal</text><line style="stroke:#181818;stroke-width:0.5;" x1="1459.5" x2="1618.5" y1="161.3633" y2="161.3633"/><line style="stroke:#181818;stroke-width:0.5;" x1="1459.5" x2="1618.5" y1="169.3633" y2="169.3633"/></g><!--class ShowProposalTemplate--><g id="elem_ShowProposalTemplate"><rect codeLine="42" fill="#F1F1F1" height="76.3125" id="ShowProposalTemplate" rx="2.5" ry="2.5" style="stroke:#181818;stroke-width:0.5;" width="243" x="274.5" y="331.3945"/><ellipse cx="290.5" cy="361.5508" fill="#ADD1B2" rx="12" ry="12" style="stroke:#181818;stroke-width:1.0;"/><path d="M292.6406,356.4727 Q292.8281,356.2227 293.0469,356.0977 Q293.2656,355.957 293.5156,355.957 Q293.9531,355.957 294.2344,356.2695 Q294.5156,356.5664 294.5156,357.2852 L294.5156,358.9883 Q294.5156,359.707 294.2344,360.0195 Q293.9531,360.332 293.5156,360.332 Q293.125,360.332 292.875,360.0977 Q292.625,359.8789 292.5156,359.2695 Q292.4531,358.8477 292.2344,358.6289 Q291.8438,358.1914 291.125,357.9258 Q290.4063,357.6602 289.6875,357.6602 Q288.7813,357.6602 288.0313,358.0508 Q287.2813,358.4414 286.7031,359.332 Q286.125,360.207 286.125,361.4102 L286.125,362.707 Q286.125,364.1602 287.1719,365.1289 Q288.2344,366.0977 290.0938,366.0977 Q291.2031,366.0977 291.9844,365.7852 Q292.4219,365.6133 292.9375,365.0977 Q293.25,364.7852 293.4219,364.6914 Q293.5938,364.5977 293.8281,364.5977 Q294.2188,364.5977 294.5156,364.9102 Q294.8281,365.207 294.8281,365.6133 Q294.8281,366.0195 294.4219,366.4883 Q293.8281,367.1758 292.8906,367.5664 Q291.625,368.0977 290.1094,368.0977 Q288.3281,368.0977 286.9063,367.3633 Q285.75,366.7695 284.9375,365.5039 Q284.125,364.2383 284.125,362.7539 L284.125,361.3945 Q284.125,359.832 284.8438,358.4883 Q285.5781,357.1289 286.8594,356.3945 Q288.1563,355.6602 289.6094,355.6602 Q290.4688,355.6602 291.2188,355.8633 Q291.9844,356.0664 292.6406,356.4727 Z " fill="#000000"/><text fill="#000000" font-family="sans-serif" font-size="20" font-style="italic" lengthAdjust="spacing" textLength="136" x="342" y="357.1563">«Value Object»</text><text fill="#000000" font-family="sans-serif" font-size="20" lengthAdjust="spacing" textLength="209" x="305.5" y="382.3125">ShowProposalTemplate</text><line style="stroke:#181818;stroke-width:0.5;" x1="275.5" x2="516.5" y1="391.707" y2="391.707"/><line style="stroke:#181818;stroke-width:0.5;" x1="275.5" x2="516.5" y1="399.707" y2="399.707"/></g><!--class ShowProposalNumber--><g id="elem_ShowProposalNumber"><rect codeLine="45" fill="#F1F1F1" height="76.3125" id="ShowProposalNumber" rx="2.5" ry="2.5" style="stroke:#181818;stroke-width:0.5;" width="229" x="552.5" y="331.3945"/><ellipse cx="568.5" cy="361.5508" fill="#ADD1B2" rx="12" ry="12" style="stroke:#181818;stroke-width:1.0;"/><path d="M570.6406,356.4727 Q570.8281,356.2227 571.0469,356.0977 Q571.2656,355.957 571.5156,355.957 Q571.9531,355.957 572.2344,356.2695 Q572.5156,356.5664 572.5156,357.2852 L572.5156,358.9883 Q572.5156,359.707 572.2344,360.0195 Q571.9531,360.332 571.5156,360.332 Q571.125,360.332 570.875,360.0977 Q570.625,359.8789 570.5156,359.2695 Q570.4531,358.8477 570.2344,358.6289 Q569.8438,358.1914 569.125,357.9258 Q568.4063,357.6602 567.6875,357.6602 Q566.7813,357.6602 566.0313,358.0508 Q565.2813,358.4414 564.7031,359.332 Q564.125,360.207 564.125,361.4102 L564.125,362.707 Q564.125,364.1602 565.1719,365.1289 Q566.2344,366.0977 568.0938,366.0977 Q569.2031,366.0977 569.9844,365.7852 Q570.4219,365.6133 570.9375,365.0977 Q571.25,364.7852 571.4219,364.6914 Q571.5938,364.5977 571.8281,364.5977 Q572.2188,364.5977 572.5156,364.9102 Q572.8281,365.207 572.8281,365.6133 Q572.8281,366.0195 572.4219,366.4883 Q571.8281,367.1758 570.8906,367.5664 Q569.625,368.0977 568.1094,368.0977 Q566.3281,368.0977 564.9063,367.3633 Q563.75,366.7695 562.9375,365.5039 Q562.125,364.2383 562.125,362.7539 L562.125,361.3945 Q562.125,359.832 562.8438,358.4883 Q563.5781,357.1289 564.8594,356.3945 Q566.1563,355.6602 567.6094,355.6602 Q568.4688,355.6602 569.2188,355.8633 Q569.9844,356.0664 570.6406,356.4727 Z " fill="#000000"/><text fill="#000000" font-family="sans-serif" font-size="20" font-style="italic" lengthAdjust="spacing" textLength="136" x="613" y="357.1563">«Value Object»</text><text fill="#000000" font-family="sans-serif" font-size="20" lengthAdjust="spacing" textLength="195" x="583.5" y="382.3125">ShowProposalNumber</text><line style="stroke:#181818;stroke-width:0.5;" x1="553.5" x2="780.5" y1="391.707" y2="391.707"/><line style="stroke:#181818;stroke-width:0.5;" x1="553.5" x2="780.5" y1="399.707" y2="399.707"/></g><!--class Insurance--><g id="elem_Insurance"><rect codeLine="48" fill="#F1F1F1" height="76.3125" id="Insurance" rx="2.5" ry="2.5" style="stroke:#181818;stroke-width:0.5;" width="166" x="817" y="331.3945"/><ellipse cx="833" cy="361.5508" fill="#ADD1B2" rx="12" ry="12" style="stroke:#181818;stroke-width:1.0;"/><path d="M835.1406,356.4727 Q835.3281,356.2227 835.5469,356.0977 Q835.7656,355.957 836.0156,355.957 Q836.4531,355.957 836.7344,356.2695 Q837.0156,356.5664 837.0156,357.2852 L837.0156,358.9883 Q837.0156,359.707 836.7344,360.0195 Q836.4531,360.332 836.0156,360.332 Q835.625,360.332 835.375,360.0977 Q835.125,359.8789 835.0156,359.2695 Q834.9531,358.8477 834.7344,358.6289 Q834.3438,358.1914 833.625,357.9258 Q832.9063,357.6602 832.1875,357.6602 Q831.2813,357.6602 830.5313,358.0508 Q829.7813,358.4414 829.2031,359.332 Q828.625,360.207 828.625,361.4102 L828.625,362.707 Q828.625,364.1602 829.6719,365.1289 Q830.7344,366.0977 832.5938,366.0977 Q833.7031,366.0977 834.4844,365.7852 Q834.9219,365.6133 835.4375,365.0977 Q835.75,364.7852 835.9219,364.6914 Q836.0938,364.5977 836.3281,364.5977 Q836.7188,364.5977 837.0156,364.9102 Q837.3281,365.207 837.3281,365.6133 Q837.3281,366.0195 836.9219,366.4883 Q836.3281,367.1758 835.3906,367.5664 Q834.125,368.0977 832.6094,368.0977 Q830.8281,368.0977 829.4063,367.3633 Q828.25,366.7695 827.4375,365.5039 Q826.625,364.2383 826.625,362.7539 L826.625,361.3945 Q826.625,359.832 827.3438,358.4883 Q828.0781,357.1289 829.3594,356.3945 Q830.6563,355.6602 832.1094,355.6602 Q832.9688,355.6602 833.7188,355.8633 Q834.4844,356.0664 835.1406,356.4727 Z " fill="#000000"/><text fill="#000000" font-family="sans-serif" font-size="20" font-style="italic" lengthAdjust="spacing" textLength="136" x="846" y="357.1563">«Value Object»</text><text fill="#000000" font-family="sans-serif" font-size="20" lengthAdjust="spacing" textLength="85" x="871.5" y="382.3125">Insurance</text><line style="stroke:#181818;stroke-width:0.5;" x1="818" x2="982" y1="391.707" y2="391.707"/><line style="stroke:#181818;stroke-width:0.5;" x1="818" x2="982" y1="399.707" y2="399.707"/></g><!--class FeedbackEmail--><g id="elem_FeedbackEmail"><rect codeLine="51" fill="#F1F1F1" height="76.3125" id="FeedbackEmail" rx="2.5" ry="2.5" style="stroke:#181818;stroke-width:0.5;" width="169" x="1018.5" y="331.3945"/><ellipse cx="1034.5" cy="361.5508" fill="#ADD1B2" rx="12" ry="12" style="stroke:#181818;stroke-width:1.0;"/><path d="M1036.6406,356.4727 Q1036.8281,356.2227 1037.0469,356.0977 Q1037.2656,355.957 1037.5156,355.957 Q1037.9531,355.957 1038.2344,356.2695 Q1038.5156,356.5664 1038.5156,357.2852 L1038.5156,358.9883 Q1038.5156,359.707 1038.2344,360.0195 Q1037.9531,360.332 1037.5156,360.332 Q1037.125,360.332 1036.875,360.0977 Q1036.625,359.8789 1036.5156,359.2695 Q1036.4531,358.8477 1036.2344,358.6289 Q1035.8438,358.1914 1035.125,357.9258 Q1034.4063,357.6602 1033.6875,357.6602 Q1032.7813,357.6602 1032.0313,358.0508 Q1031.2813,358.4414 1030.7031,359.332 Q1030.125,360.207 1030.125,361.4102 L1030.125,362.707 Q1030.125,364.1602 1031.1719,365.1289 Q1032.2344,366.0977 1034.0938,366.0977 Q1035.2031,366.0977 1035.9844,365.7852 Q1036.4219,365.6133 1036.9375,365.0977 Q1037.25,364.7852 1037.4219,364.6914 Q1037.5938,364.5977 1037.8281,364.5977 Q1038.2188,364.5977 1038.5156,364.9102 Q1038.8281,365.207 1038.8281,365.6133 Q1038.8281,366.0195 1038.4219,366.4883 Q1037.8281,367.1758 1036.8906,367.5664 Q1035.625,368.0977 1034.1094,368.0977 Q1032.3281,368.0977 1030.9063,367.3633 Q1029.75,366.7695 1028.9375,365.5039 Q1028.125,364.2383 1028.125,362.7539 L1028.125,361.3945 Q1028.125,359.832 1028.8438,358.4883 Q1029.5781,357.1289 1030.8594,356.3945 Q1032.1563,355.6602 1033.6094,355.6602 Q1034.4688,355.6602 1035.2188,355.8633 Q1035.9844,356.0664 1036.6406,356.4727 Z " fill="#000000"/><text fill="#000000" font-family="sans-serif" font-size="20" font-style="italic" lengthAdjust="spacing" textLength="136" x="1049" y="357.1563">«Value Object»</text><text fill="#000000" font-family="sans-serif" font-size="20" lengthAdjust="spacing" textLength="135" x="1049.5" y="382.3125">FeedbackEmail</text><line style="stroke:#181818;stroke-width:0.5;" x1="1019.5" x2="1186.5" y1="391.707" y2="391.707"/><line style="stroke:#181818;stroke-width:0.5;" x1="1019.5" x2="1186.5" y1="399.707" y2="399.707"/></g><!--class ShowConfiguration--><g id="elem_ShowConfiguration"><rect codeLine="54" fill="#F1F1F1" height="76.3125" id="ShowConfiguration" rx="2.5" ry="2.5" style="stroke:#181818;stroke-width:0.5;" width="198" x="1223" y="331.3945"/><ellipse cx="1239" cy="361.5508" fill="#ADD1B2" rx="12" ry="12" style="stroke:#181818;stroke-width:1.0;"/><path d="M1241.1406,356.4727 Q1241.3281,356.2227 1241.5469,356.0977 Q1241.7656,355.957 1242.0156,355.957 Q1242.4531,355.957 1242.7344,356.2695 Q1243.0156,356.5664 1243.0156,357.2852 L1243.0156,358.9883 Q1243.0156,359.707 1242.7344,360.0195 Q1242.4531,360.332 1242.0156,360.332 Q1241.625,360.332 1241.375,360.0977 Q1241.125,359.8789 1241.0156,359.2695 Q1240.9531,358.8477 1240.7344,358.6289 Q1240.3438,358.1914 1239.625,357.9258 Q1238.9063,357.6602 1238.1875,357.6602 Q1237.2813,357.6602 1236.5313,358.0508 Q1235.7813,358.4414 1235.2031,359.332 Q1234.625,360.207 1234.625,361.4102 L1234.625,362.707 Q1234.625,364.1602 1235.6719,365.1289 Q1236.7344,366.0977 1238.5938,366.0977 Q1239.7031,366.0977 1240.4844,365.7852 Q1240.9219,365.6133 1241.4375,365.0977 Q1241.75,364.7852 1241.9219,364.6914 Q1242.0938,364.5977 1242.3281,364.5977 Q1242.7188,364.5977 1243.0156,364.9102 Q1243.3281,365.207 1243.3281,365.6133 Q1243.3281,366.0195 1242.9219,366.4883 Q1242.3281,367.1758 1241.3906,367.5664 Q1240.125,368.0977 1238.6094,368.0977 Q1236.8281,368.0977 1235.4063,367.3633 Q1234.25,366.7695 1233.4375,365.5039 Q1232.625,364.2383 1232.625,362.7539 L1232.625,361.3945 Q1232.625,359.832 1233.3438,358.4883 Q1234.0781,357.1289 1235.3594,356.3945 Q1236.6563,355.6602 1238.1094,355.6602 Q1238.9688,355.6602 1239.7188,355.8633 Q1240.4844,356.0664 1241.1406,356.4727 Z " fill="#000000"/><text fill="#000000" font-family="sans-serif" font-size="20" font-style="italic" lengthAdjust="spacing" textLength="71" x="1300.5" y="357.1563">«Entity»</text><text fill="#000000" font-family="sans-serif" font-size="20" lengthAdjust="spacing" textLength="164" x="1254" y="382.3125">ShowConfiguration</text><line style="stroke:#181818;stroke-width:0.5;" x1="1224" x2="1420" y1="391.707" y2="391.707"/><line style="stroke:#181818;stroke-width:0.5;" x1="1224" x2="1420" y1="399.707" y2="399.707"/></g><!--class Video--><g id="elem_Video"><rect codeLine="57" fill="#F1F1F1" height="76.3125" id="Video" rx="2.5" ry="2.5" style="stroke:#181818;stroke-width:0.5;" width="166" x="1456" y="331.3945"/><ellipse cx="1472" cy="361.5508" fill="#ADD1B2" rx="12" ry="12" style="stroke:#181818;stroke-width:1.0;"/><path d="M1474.1406,356.4727 Q1474.3281,356.2227 1474.5469,356.0977 Q1474.7656,355.957 1475.0156,355.957 Q1475.4531,355.957 1475.7344,356.2695 Q1476.0156,356.5664 1476.0156,357.2852 L1476.0156,358.9883 Q1476.0156,359.707 1475.7344,360.0195 Q1475.4531,360.332 1475.0156,360.332 Q1474.625,360.332 1474.375,360.0977 Q1474.125,359.8789 1474.0156,359.2695 Q1473.9531,358.8477 1473.7344,358.6289 Q1473.3438,358.1914 1472.625,357.9258 Q1471.9063,357.6602 1471.1875,357.6602 Q1470.2813,357.6602 1469.5313,358.0508 Q1468.7813,358.4414 1468.2031,359.332 Q1467.625,360.207 1467.625,361.4102 L1467.625,362.707 Q1467.625,364.1602 1468.6719,365.1289 Q1469.7344,366.0977 1471.5938,366.0977 Q1472.7031,366.0977 1473.4844,365.7852 Q1473.9219,365.6133 1474.4375,365.0977 Q1474.75,364.7852 1474.9219,364.6914 Q1475.0938,364.5977 1475.3281,364.5977 Q1475.7188,364.5977 1476.0156,364.9102 Q1476.3281,365.207 1476.3281,365.6133 Q1476.3281,366.0195 1475.9219,366.4883 Q1475.3281,367.1758 1474.3906,367.5664 Q1473.125,368.0977 1471.6094,368.0977 Q1469.8281,368.0977 1468.4063,367.3633 Q1467.25,366.7695 1466.4375,365.5039 Q1465.625,364.2383 1465.625,362.7539 L1465.625,361.3945 Q1465.625,359.832 1466.3438,358.4883 Q1467.0781,357.1289 1468.3594,356.3945 Q1469.6563,355.6602 1471.1094,355.6602 Q1471.9688,355.6602 1472.7188,355.8633 Q1473.4844,356.0664 1474.1406,356.4727 Z " fill="#000000"/><text fill="#000000" font-family="sans-serif" font-size="20" font-style="italic" lengthAdjust="spacing" textLength="136" x="1485" y="357.1563">«Value Object»</text><text fill="#000000" font-family="sans-serif" font-size="20" lengthAdjust="spacing" textLength="50" x="1528" y="382.3125">Video</text><line style="stroke:#181818;stroke-width:0.5;" x1="1457" x2="1621" y1="391.707" y2="391.707"/><line style="stroke:#181818;stroke-width:0.5;" x1="1457" x2="1621" y1="399.707" y2="399.707"/></g><!--class Time--><g id="elem_Time"><rect codeLine="79" fill="#F1F1F1" height="76.3125" id="Time" rx="2.5" ry="2.5" style="stroke:#181818;stroke-width:0.5;" width="166" x="2084" y="821.3945"/><ellipse cx="2100" cy="851.5508" fill="#ADD1B2" rx="12" ry="12" style="stroke:#181818;stroke-width:1.0;"/><path d="M2102.1406,846.4727 Q2102.3281,846.2227 2102.5469,846.0977 Q2102.7656,845.957 2103.0156,845.957 Q2103.4531,845.957 2103.7344,846.2695 Q2104.0156,846.5664 2104.0156,847.2852 L2104.0156,848.9883 Q2104.0156,849.707 2103.7344,850.0195 Q2103.4531,850.332 2103.0156,850.332 Q2102.625,850.332 2102.375,850.0977 Q2102.125,849.8789 2102.0156,849.2695 Q2101.9531,848.8477 2101.7344,848.6289 Q2101.3438,848.1914 2100.625,847.9258 Q2099.9063,847.6602 2099.1875,847.6602 Q2098.2813,847.6602 2097.5313,848.0508 Q2096.7813,848.4414 2096.2031,849.332 Q2095.625,850.207 2095.625,851.4102 L2095.625,852.707 Q2095.625,854.1602 2096.6719,855.1289 Q2097.7344,856.0977 2099.5938,856.0977 Q2100.7031,856.0977 2101.4844,855.7852 Q2101.9219,855.6133 2102.4375,855.0977 Q2102.75,854.7852 2102.9219,854.6914 Q2103.0938,854.5977 2103.3281,854.5977 Q2103.7188,854.5977 2104.0156,854.9102 Q2104.3281,855.207 2104.3281,855.6133 Q2104.3281,856.0195 2103.9219,856.4883 Q2103.3281,857.1758 2102.3906,857.5664 Q2101.125,858.0977 2099.6094,858.0977 Q2097.8281,858.0977 2096.4063,857.3633 Q2095.25,856.7695 2094.4375,855.5039 Q2093.625,854.2383 2093.625,852.7539 L2093.625,851.3945 Q2093.625,849.832 2094.3438,848.4883 Q2095.0781,847.1289 2096.3594,846.3945 Q2097.6563,845.6602 2099.1094,845.6602 Q2099.9688,845.6602 2100.7188,845.8633 Q2101.4844,846.0664 2102.1406,846.4727 Z " fill="#000000"/><text fill="#000000" font-family="sans-serif" font-size="20" font-style="italic" lengthAdjust="spacing" textLength="136" x="2113" y="847.1563">«Value Object»</text><text fill="#000000" font-family="sans-serif" font-size="20" lengthAdjust="spacing" textLength="43" x="2159.5" y="872.3125">Time</text><line style="stroke:#181818;stroke-width:0.5;" x1="2085" x2="2249" y1="881.707" y2="881.707"/><line style="stroke:#181818;stroke-width:0.5;" x1="2085" x2="2249" y1="889.707" y2="889.707"/></g><!--class Date--><g id="elem_Date"><rect codeLine="82" fill="#F1F1F1" height="76.3125" id="Date" rx="2.5" ry="2.5" style="stroke:#181818;stroke-width:0.5;" width="166" x="2285" y="821.3945"/><ellipse cx="2301" cy="851.5508" fill="#ADD1B2" rx="12" ry="12" style="stroke:#181818;stroke-width:1.0;"/><path d="M2303.1406,846.4727 Q2303.3281,846.2227 2303.5469,846.0977 Q2303.7656,845.957 2304.0156,845.957 Q2304.4531,845.957 2304.7344,846.2695 Q2305.0156,846.5664 2305.0156,847.2852 L2305.0156,848.9883 Q2305.0156,849.707 2304.7344,850.0195 Q2304.4531,850.332 2304.0156,850.332 Q2303.625,850.332 2303.375,850.0977 Q2303.125,849.8789 2303.0156,849.2695 Q2302.9531,848.8477 2302.7344,848.6289 Q2302.3438,848.1914 2301.625,847.9258 Q2300.9063,847.6602 2300.1875,847.6602 Q2299.2813,847.6602 2298.5313,848.0508 Q2297.7813,848.4414 2297.2031,849.332 Q2296.625,850.207 2296.625,851.4102 L2296.625,852.707 Q2296.625,854.1602 2297.6719,855.1289 Q2298.7344,856.0977 2300.5938,856.0977 Q2301.7031,856.0977 2302.4844,855.7852 Q2302.9219,855.6133 2303.4375,855.0977 Q2303.75,854.7852 2303.9219,854.6914 Q2304.0938,854.5977 2304.3281,854.5977 Q2304.7188,854.5977 2305.0156,854.9102 Q2305.3281,855.207 2305.3281,855.6133 Q2305.3281,856.0195 2304.9219,856.4883 Q2304.3281,857.1758 2303.3906,857.5664 Q2302.125,858.0977 2300.6094,858.0977 Q2298.8281,858.0977 2297.4063,857.3633 Q2296.25,856.7695 2295.4375,855.5039 Q2294.625,854.2383 2294.625,852.7539 L2294.625,851.3945 Q2294.625,849.832 2295.3438,848.4883 Q2296.0781,847.1289 2297.3594,846.3945 Q2298.6563,845.6602 2300.1094,845.6602 Q2300.9688,845.6602 2301.7188,845.8633 Q2302.4844,846.0664 2303.1406,846.4727 Z " fill="#000000"/><text fill="#000000" font-family="sans-serif" font-size="20" font-style="italic" lengthAdjust="spacing" textLength="136" x="2314" y="847.1563">«Value Object»</text><text fill="#000000" font-family="sans-serif" font-size="20" lengthAdjust="spacing" textLength="42" x="2361" y="872.3125">Date</text><line style="stroke:#181818;stroke-width:0.5;" x1="2286" x2="2450" y1="881.707" y2="881.707"/><line style="stroke:#181818;stroke-width:0.5;" x1="2286" x2="2450" y1="889.707" y2="889.707"/></g><!--class QuantityOfDrones--><g id="elem_QuantityOfDrones"><rect codeLine="85" fill="#F1F1F1" height="76.3125" id="QuantityOfDrones" rx="2.5" ry="2.5" style="stroke:#181818;stroke-width:0.5;" width="192" x="2486" y="821.3945"/><ellipse cx="2502" cy="851.5508" fill="#ADD1B2" rx="12" ry="12" style="stroke:#181818;stroke-width:1.0;"/><path d="M2504.1406,846.4727 Q2504.3281,846.2227 2504.5469,846.0977 Q2504.7656,845.957 2505.0156,845.957 Q2505.4531,845.957 2505.7344,846.2695 Q2506.0156,846.5664 2506.0156,847.2852 L2506.0156,848.9883 Q2506.0156,849.707 2505.7344,850.0195 Q2505.4531,850.332 2505.0156,850.332 Q2504.625,850.332 2504.375,850.0977 Q2504.125,849.8789 2504.0156,849.2695 Q2503.9531,848.8477 2503.7344,848.6289 Q2503.3438,848.1914 2502.625,847.9258 Q2501.9063,847.6602 2501.1875,847.6602 Q2500.2813,847.6602 2499.5313,848.0508 Q2498.7813,848.4414 2498.2031,849.332 Q2497.625,850.207 2497.625,851.4102 L2497.625,852.707 Q2497.625,854.1602 2498.6719,855.1289 Q2499.7344,856.0977 2501.5938,856.0977 Q2502.7031,856.0977 2503.4844,855.7852 Q2503.9219,855.6133 2504.4375,855.0977 Q2504.75,854.7852 2504.9219,854.6914 Q2505.0938,854.5977 2505.3281,854.5977 Q2505.7188,854.5977 2506.0156,854.9102 Q2506.3281,855.207 2506.3281,855.6133 Q2506.3281,856.0195 2505.9219,856.4883 Q2505.3281,857.1758 2504.3906,857.5664 Q2503.125,858.0977 2501.6094,858.0977 Q2499.8281,858.0977 2498.4063,857.3633 Q2497.25,856.7695 2496.4375,855.5039 Q2495.625,854.2383 2495.625,852.7539 L2495.625,851.3945 Q2495.625,849.832 2496.3438,848.4883 Q2497.0781,847.1289 2498.3594,846.3945 Q2499.6563,845.6602 2501.1094,845.6602 Q2501.9688,845.6602 2502.7188,845.8633 Q2503.4844,846.0664 2504.1406,846.4727 Z " fill="#000000"/><text fill="#000000" font-family="sans-serif" font-size="20" font-style="italic" lengthAdjust="spacing" textLength="136" x="2528" y="847.1563">«Value Object»</text><text fill="#000000" font-family="sans-serif" font-size="20" lengthAdjust="spacing" textLength="158" x="2517" y="872.3125">QuantityOfDrones</text><line style="stroke:#181818;stroke-width:0.5;" x1="2487" x2="2677" y1="881.707" y2="881.707"/><line style="stroke:#181818;stroke-width:0.5;" x1="2487" x2="2677" y1="889.707" y2="889.707"/></g><!--link ShowProposal to Video--><g id="link_ShowProposal_Video"><path codeLine="61" d="M1539,177.0345 C1539,220.9045 1539,284.2145 1539,325.8145 " fill="none" id="ShowProposal-to-Video" style="stroke:#181818;stroke-width:1.0;"/><polygon fill="#181818" points="1539,331.0345,1543,322.0345,1539,326.0345,1535,322.0345,1539,331.0345" style="stroke:#181818;stroke-width:1.0;"/><text fill="#000000" font-family="sans-serif" font-size="20" lengthAdjust="spacing" textLength="46" x="1540" y="228.6563">video</text><text fill="#000000" font-family="sans-serif" font-size="20" lengthAdjust="spacing" textLength="11" x="1527.1578" y="318.9963">1</text></g><!--link ShowProposal to FeedbackEmail--><g id="link_ShowProposal_FeedbackEmail"><path codeLine="64" d="M1458.43,130.8545 C1387.85,137.4245 1285.38,155.8445 1212,206.8945 C1169.08,236.7545 1138.25,289.4245 1120.56,326.4845 " fill="none" id="ShowProposal-to-FeedbackEmail" style="stroke:#181818;stroke-width:1.0;"/><polygon fill="#181818" points="1118.26,331.3745,1125.7164,324.94,1120.3924,326.8521,1118.4804,321.5281,1118.26,331.3745" style="stroke:#181818;stroke-width:1.0;"/><text fill="#000000" font-family="sans-serif" font-size="20" lengthAdjust="spacing" textLength="129" x="1213" y="228.6563">feedbackEmail</text><text fill="#000000" font-family="sans-serif" font-size="20" lengthAdjust="spacing" textLength="11" x="1108.8155" y="319.0722">1</text></g><!--link ShowProposal to CRMCollaborator--><g id="link_ShowProposal_CRMCollaborator"><path codeLine="65" d="M1587,177.0345 C1625.84,217.2145 1680.45,273.6945 1720.26,314.8745 " fill="none" id="ShowProposal-to-CRMCollaborator" style="stroke:#181818;stroke-width:1.0;"/><polygon fill="#181818" points="1724.07,318.8145,1720.7022,309.5594,1720.5993,315.2153,1714.9434,315.1125,1724.07,318.8145" style="stroke:#181818;stroke-width:1.0;"/><text fill="#000000" font-family="sans-serif" font-size="20" lengthAdjust="spacing" textLength="94" x="1643" y="228.6563">created by</text><text fill="#000000" font-family="sans-serif" font-size="20" lengthAdjust="spacing" textLength="11" x="1706.2243" y="306.4741">1</text></g><!--link ShowProposal to ShowRequest--><g id="link_ShowProposal_ShowRequest"><path codeLine="66" d="M1619.84,129.7445 C1713.75,135.0745 1871.55,152.2345 1995,206.8945 C2046.84,229.8445 2091.42,277.1945 2120.78,314.7145 " fill="none" id="ShowProposal-to-ShowRequest" style="stroke:#181818;stroke-width:1.0;"/><polygon fill="#181818" points="2123.93,318.7745,2121.5764,309.211,2120.8662,314.8231,2115.2541,314.113,2123.93,318.7745" style="stroke:#181818;stroke-width:1.0;"/><text fill="#000000" font-family="sans-serif" font-size="20" lengthAdjust="spacing" textLength="81" x="2039" y="228.6563">based on</text><text fill="#000000" font-family="sans-serif" font-size="20" lengthAdjust="spacing" textLength="11" x="2107.8601" y="306.429">1</text></g><!--link ShowProposal to ShowProposalStatus--><g id="link_ShowProposal_ShowProposalStatus"><path codeLine="67" d="M1458.19,129.2445 C1273.45,134.3145 806.37,151.9645 420,206.8945 C346.64,217.3245 322.04,206.4045 257,241.8945 C218.75,262.7645 184.51,298.8645 161.41,327.1745 " fill="none" id="ShowProposal-to-ShowProposalStatus" style="stroke:#181818;stroke-width:1.0;"/><polygon fill="#181818" points="158.09,331.2845,166.8599,326.8024,161.2343,327.397,160.6398,321.7715,158.09,331.2845" style="stroke:#181818;stroke-width:1.0;"/><text fill="#000000" font-family="sans-serif" font-size="20" lengthAdjust="spacing" textLength="132" x="421" y="228.6563">proposalStatus</text><text fill="#000000" font-family="sans-serif" font-size="20" lengthAdjust="spacing" textLength="11" x="150.5309" y="318.9678">1</text></g><!--link ShowProposal to Figure--><g id="link_ShowProposal_Figure"><path codeLine="68" d="M1619.74,139.7145 C1693.73,154.2045 1803.39,184.0145 1882,241.8945 C1907.74,260.8445 1929.11,289.2545 1944.65,314.3545 " fill="none" id="ShowProposal-to-Figure" style="stroke:#181818;stroke-width:1.0;"/><polygon fill="#181818" points="1947.29,318.6745,1946.0273,308.907,1944.6903,314.4035,1939.1937,313.0665,1947.29,318.6745" style="stroke:#181818;stroke-width:1.0;"/><text fill="#000000" font-family="sans-serif" font-size="20" lengthAdjust="spacing" textLength="118" x="1868" y="228.6563">requests new</text><text fill="#000000" font-family="sans-serif" font-size="20" lengthAdjust="spacing" textLength="31" x="1911.01" y="306.3162">0..*</text></g><!--link ShowProposal to ShowProposalTemplate--><g id="link_ShowProposal_ShowProposalTemplate"><path codeLine="69" d="M1458.33,129.5345 C1249.62,136.1845 696.9,161.1445 535,241.8945 C493.64,262.5245 455.5,299.0445 429.67,327.5645 " fill="none" id="ShowProposal-to-ShowProposalTemplate" style="stroke:#181818;stroke-width:1.0;"/><polygon fill="#181818" points="426.27,331.3545,435.2639,327.3407,429.6148,327.6381,429.3175,321.989,426.27,331.3545" style="stroke:#181818;stroke-width:1.0;"/><text fill="#000000" font-family="sans-serif" font-size="20" lengthAdjust="spacing" textLength="76" x="632" y="228.6563">template</text><text fill="#000000" font-family="sans-serif" font-size="20" lengthAdjust="spacing" textLength="11" x="419.2177" y="319.049">1</text></g><!--link ShowProposal to ShowProposalNumber--><g id="link_ShowProposal_ShowProposalNumber"><path codeLine="70" d="M1458.26,126.6645 C1328.93,127.7345 1068.74,139.1245 861,206.8945 C793.8,228.8145 734.27,287.2245 699.41,327.4445 " fill="none" id="ShowProposal-to-ShowProposalNumber" style="stroke:#181818;stroke-width:1.0;"/><polygon fill="#181818" points="696.12,331.2745,705.0141,327.0444,699.374,327.4782,698.9401,321.8381,696.12,331.2745" style="stroke:#181818;stroke-width:1.0;"/><text fill="#000000" font-family="sans-serif" font-size="20" lengthAdjust="spacing" textLength="144" x="862" y="228.6563">proposalNumber</text><text fill="#000000" font-family="sans-serif" font-size="20" lengthAdjust="spacing" textLength="11" x="688.8844" y="318.9562">1</text></g><!--link ShowConfiguration to Drone--><g id="link_ShowConfiguration_Drone"><path codeLine="71" d="M1322,407.5645 C1322,447.7645 1322,512.2645 1322,558.3445 " fill="none" id="ShowConfiguration-to-Drone" style="stroke:#181818;stroke-width:1.0;"/><polygon fill="#181818" points="1322,563.5845,1326,554.5845,1322,558.5845,1318,554.5845,1322,563.5845" style="stroke:#181818;stroke-width:1.0;"/><text fill="#000000" font-family="sans-serif" font-size="20" lengthAdjust="spacing" textLength="50" x="1323" y="473.6563">drone</text><text fill="#000000" font-family="sans-serif" font-size="20" lengthAdjust="spacing" textLength="31" x="1289.1109" y="551.6113">1..*</text></g><!--link ShowProposal to Insurance--><g id="link_ShowProposal_Insurance"><path codeLine="72" d="M1458.25,136.4045 C1326.56,152.4145 1072.99,189.1745 1001,241.8945 C969.79,264.7445 942.95,299.5945 924.79,326.9345 " fill="none" id="ShowProposal-to-Insurance" style="stroke:#181818;stroke-width:1.0;"/><polygon fill="#181818" points="921.96,331.2545,930.2469,325.9322,924.707,327.0768,923.5624,321.5369,921.96,331.2545" style="stroke:#181818;stroke-width:1.0;"/><text fill="#000000" font-family="sans-serif" font-size="20" lengthAdjust="spacing" textLength="83" x="1073" y="228.6563">insurance</text><text fill="#000000" font-family="sans-serif" font-size="20" lengthAdjust="spacing" textLength="11" x="913.5833" y="318.933">1</text></g><!--link ShowProposal to ShowConfiguration--><g id="link_ShowProposal_ShowConfiguration"><path codeLine="73" d="M1458.4,148.7445 C1426.24,160.9745 1391.38,179.5045 1368,206.8945 C1339.41,240.3945 1328.54,290.5945 1324.44,326.1245 " fill="none" id="ShowProposal-to-ShowConfiguration" style="stroke:#181818;stroke-width:1.0;"/><polygon fill="#181818" points="1323.88,331.2545,1328.8333,322.7419,1324.4228,326.2841,1320.8806,321.8735,1323.88,331.2545" style="stroke:#181818;stroke-width:1.0;"/><text fill="#000000" font-family="sans-serif" font-size="20" lengthAdjust="spacing" textLength="161" x="1369" y="228.6563">showConfiguration</text><text fill="#000000" font-family="sans-serif" font-size="20" lengthAdjust="spacing" textLength="11" x="1312.3031" y="318.933">1</text></g><!--link Drone to Model--><g id="link_Drone_Model"><path codeLine="74" d="M1322,665.1545 C1322,705.3645 1322,761.9145 1322,803.4545 " fill="none" id="Drone-to-Model" style="stroke:#181818;stroke-width:1.0;"/><polygon fill="#181818" points="1322,808.7045,1326,799.7045,1322,803.7045,1318,799.7045,1322,808.7045" style="stroke:#181818;stroke-width:1.0;"/><text fill="#000000" font-family="sans-serif" font-size="20" lengthAdjust="spacing" textLength="53" x="1323" y="718.6563">model</text><text fill="#000000" font-family="sans-serif" font-size="20" lengthAdjust="spacing" textLength="11" x="1310.2953" y="796.35">1</text></g><!--link ShowProposal to QuantityOfDrones--><g id="link_ShowProposal_QuantityOfDrones"><path codeLine="89" d="M1619.76,128.1145 C1759.83,131.0745 2055.92,144.8845 2297,206.8945 C2335.77,216.8645 2352.5,212.8045 2380,241.8945 C2539.39,410.4745 2573.06,706.8945 2580.13,816.2945 " fill="none" id="ShowProposal-to-QuantityOfDrones" style="stroke:#181818;stroke-width:1.0;"/><polygon fill="#181818" points="2580.45,821.3545,2583.8759,812.1207,2580.1354,816.3644,2575.8917,812.624,2580.45,821.3545" style="stroke:#181818;stroke-width:1.0;"/><text fill="#000000" font-family="sans-serif" font-size="20" lengthAdjust="spacing" textLength="98" x="2514" y="473.6563">qnt_drones</text><text fill="#000000" font-family="sans-serif" font-size="20" lengthAdjust="spacing" textLength="11" x="2568.3264" y="809.049">1</text></g><!--link ShowProposal to Time--><g id="link_ShowProposal_Time"><path codeLine="90" d="M1619.73,127.1045 C1790.13,128.4645 2177.06,142.6545 2252,241.8945 C2320.63,332.7845 2218.57,692.0945 2180.42,816.0745 " fill="none" id="ShowProposal-to-Time" style="stroke:#181818;stroke-width:1.0;"/><polygon fill="#181818" points="2178.87,821.0945,2185.3446,813.6729,2180.3434,816.3166,2177.6998,811.3154,2178.87,821.0945" style="stroke:#181818;stroke-width:1.0;"/><text fill="#000000" font-family="sans-serif" font-size="20" lengthAdjust="spacing" textLength="37" x="2267" y="473.6563">time</text><text fill="#000000" font-family="sans-serif" font-size="20" lengthAdjust="spacing" textLength="11" x="2168.8454" y="809.0655">1</text></g><!--link ShowProposal to Date--><g id="link_ShowProposal_Date"><path codeLine="91" d="M1619.58,129.9745 C1781.69,136.1945 2141.2,155.4945 2252,206.8945 C2472.75,309.2945 2407.62,688.2545 2378.55,816.0145 " fill="none" id="ShowProposal-to-Date" style="stroke:#181818;stroke-width:1.0;"/><polygon fill="#181818" points="2377.37,821.1845,2383.2761,813.303,2378.4849,816.3104,2375.4775,811.5192,2377.37,821.1845" style="stroke:#181818;stroke-width:1.0;"/><text fill="#000000" font-family="sans-serif" font-size="20" lengthAdjust="spacing" textLength="39" x="2407" y="473.6563">date</text><text fill="#000000" font-family="sans-serif" font-size="20" lengthAdjust="spacing" textLength="11" x="2366.9868" y="808.8519">1</text></g><!--SRC=[bLJ1Rfmm4Btp5ICkbIebIdEq49VThDH3aZORvLeDC4le6flOfcaQxR_Nu6MBqK9S3XYZzzxCs6z6xolHeCAQotnF1HIqmvQRZHHcM_qXkBwAeWRpFPO4yUhXTYKvnqmgD59134c2PQceH4Df2kzH1FR9EMeDKt2It0XJcJUBIn8bfKdJznv-Y0wZ6BUo87w_MoifQ3b0ZroIzNGtLTcg3nIFcC1Cjy_ozO5UMj9cAkkfZd61qcUhzqGTObdEJ_MRaetKo6TaIRGrZ75RWwRL5lk4l2MuptvIFZvSly2J-j9zdASyKjrmcyh_XhfhwunK2EkhqAr2aGU5s10LcJsucneh7fhJIefTPnuqbHIZCpW3VweAalEw_UeVwSL52l6Ns34P_EeMX_laurBu7SsolReOxCRRUTQaYndaYknT5P2zpPD6ZcUGeRPmAPRXlkiODDv-XdjrUVav7hgMWN8XDGXw3OisM8-1ENw5yPpr_cNfzYUkxmOdqAVQTos3eblc8vtiog0QFfVpyW8oqDDVpbHkPWoyVdmogBjbF7ospwZiXNdJvh6gWtfd7TZ6trli6-Guvp-OCc4k7-gQQZDu4UP7V-HwYTVLQ7rWtqkeTU-MedFA8VeB]--></g></svg>