<?xml version="1.0" encoding="UTF-8" standalone="no"?><svg xmlns="http://www.w3.org/2000/svg" xmlns:xlink="http://www.w3.org/1999/xlink" contentStyleType="text/css" height="499px" preserveAspectRatio="none" style="width:1015px;height:499px;background:#FFFFFF;" version="1.1" viewBox="0 0 1015 499" width="1015px" zoomAndPan="magnify"><defs/><g><!--cluster Drone --><g id="cluster_Drone "><path d="M8.5,6.8945 L72.5,6.8945 A3.75,3.75 0 0 1 75,9.3945 L82,38.0508 L1005.5,38.0508 A2.5,2.5 0 0 1 1008,40.5508 L1008,490.3945 A2.5,2.5 0 0 1 1005.5,492.8945 L8.5,492.8945 A2.5,2.5 0 0 1 6,490.3945 L6,9.3945 A2.5,2.5 0 0 1 8.5,6.8945 " fill="none" style="stroke:#000000;stroke-width:1.5;"/><line style="stroke:#000000;stroke-width:1.5;" x1="6" x2="82" y1="38.0508" y2="38.0508"/><text fill="#000000" font-family="sans-serif" font-size="20" font-weight="bold" lengthAdjust="spacing" textLength="57" x="10" y="29.6563">Drone</text><text fill="#000000" font-family="sans-serif" font-size="20" font-style="italic" lengthAdjust="spacing" textLength="111" x="455.5" y="60.8125">«aggregate»</text></g><!--class Inventory--><g id="elem_Inventory"><rect codeLine="4" fill="#F1F1F1" height="76.3125" id="Inventory" rx="2.5" ry="2.5" style="stroke:#181818;stroke-width:0.5;" width="114" x="450" y="75.8945"/><ellipse cx="466" cy="106.0508" fill="#ADD1B2" rx="12" ry="12" style="stroke:#181818;stroke-width:1.0;"/><path d="M468.1406,100.9727 Q468.3281,100.7227 468.5469,100.5977 Q468.7656,100.457 469.0156,100.457 Q469.4531,100.457 469.7344,100.7695 Q470.0156,101.0664 470.0156,101.7852 L470.0156,103.4883 Q470.0156,104.207 469.7344,104.5195 Q469.4531,104.832 469.0156,104.832 Q468.625,104.832 468.375,104.5977 Q468.125,104.3789 468.0156,103.7695 Q467.9531,103.3477 467.7344,103.1289 Q467.3438,102.6914 466.625,102.4258 Q465.9063,102.1602 465.1875,102.1602 Q464.2813,102.1602 463.5313,102.5508 Q462.7813,102.9414 462.2031,103.832 Q461.625,104.707 461.625,105.9102 L461.625,107.207 Q461.625,108.6602 462.6719,109.6289 Q463.7344,110.5977 465.5938,110.5977 Q466.7031,110.5977 467.4844,110.2852 Q467.9219,110.1133 468.4375,109.5977 Q468.75,109.2852 468.9219,109.1914 Q469.0938,109.0977 469.3281,109.0977 Q469.7188,109.0977 470.0156,109.4102 Q470.3281,109.707 470.3281,110.1133 Q470.3281,110.5195 469.9219,110.9883 Q469.3281,111.6758 468.3906,112.0664 Q467.125,112.5977 465.6094,112.5977 Q463.8281,112.5977 462.4063,111.8633 Q461.25,111.2695 460.4375,110.0039 Q459.625,108.7383 459.625,107.2539 L459.625,105.8945 Q459.625,104.332 460.3438,102.9883 Q461.0781,101.6289 462.3594,100.8945 Q463.6563,100.1602 465.1094,100.1602 Q465.9688,100.1602 466.7188,100.3633 Q467.4844,100.5664 468.1406,100.9727 Z " fill="#000000"/><text fill="#000000" font-family="sans-serif" font-size="20" font-style="italic" lengthAdjust="spacing" textLength="71" x="485.5" y="101.6563">«Entity»</text><text fill="#000000" font-family="sans-serif" font-size="20" lengthAdjust="spacing" textLength="80" x="481" y="126.8125">Inventory</text><line style="stroke:#181818;stroke-width:0.5;" x1="451" x2="563" y1="136.207" y2="136.207"/><line style="stroke:#181818;stroke-width:0.5;" x1="451" x2="563" y1="144.207" y2="144.207"/></g><!--class Drone--><g id="elem_Drone"><rect codeLine="7" fill="#F1F1F1" height="101.4688" id="Drone" rx="2.5" ry="2.5" style="stroke:#181818;stroke-width:0.5;" width="101" x="456.5" y="212.8945"/><ellipse cx="472.5" cy="255.6289" fill="#ADD1B2" rx="12" ry="12" style="stroke:#181818;stroke-width:1.0;"/><path d="M474.6406,250.5508 Q474.8281,250.3008 475.0469,250.1758 Q475.2656,250.0352 475.5156,250.0352 Q475.9531,250.0352 476.2344,250.3477 Q476.5156,250.6445 476.5156,251.3633 L476.5156,253.0664 Q476.5156,253.7852 476.2344,254.0977 Q475.9531,254.4102 475.5156,254.4102 Q475.125,254.4102 474.875,254.1758 Q474.625,253.957 474.5156,253.3477 Q474.4531,252.9258 474.2344,252.707 Q473.8438,252.2695 473.125,252.0039 Q472.4063,251.7383 471.6875,251.7383 Q470.7813,251.7383 470.0313,252.1289 Q469.2813,252.5195 468.7031,253.4102 Q468.125,254.2852 468.125,255.4883 L468.125,256.7852 Q468.125,258.2383 469.1719,259.207 Q470.2344,260.1758 472.0938,260.1758 Q473.2031,260.1758 473.9844,259.8633 Q474.4219,259.6914 474.9375,259.1758 Q475.25,258.8633 475.4219,258.7695 Q475.5938,258.6758 475.8281,258.6758 Q476.2188,258.6758 476.5156,258.9883 Q476.8281,259.2852 476.8281,259.6914 Q476.8281,260.0977 476.4219,260.5664 Q475.8281,261.2539 474.8906,261.6445 Q473.625,262.1758 472.1094,262.1758 Q470.3281,262.1758 468.9063,261.4414 Q467.75,260.8477 466.9375,259.582 Q466.125,258.3164 466.125,256.832 L466.125,255.4727 Q466.125,253.9102 466.8438,252.5664 Q467.5781,251.207 468.8594,250.4727 Q470.1563,249.7383 471.6094,249.7383 Q472.4688,249.7383 473.2188,249.9414 Q473.9844,250.1445 474.6406,250.5508 Z " fill="#000000"/><text fill="#000000" font-family="sans-serif" font-size="20" font-style="italic" lengthAdjust="spacing" textLength="71" x="485.5" y="238.6563">«Entity»</text><text fill="#000000" font-family="sans-serif" font-size="20" font-style="italic" lengthAdjust="spacing" textLength="56" x="493" y="263.8125">«root»</text><text fill="#000000" font-family="sans-serif" font-size="20" lengthAdjust="spacing" textLength="53" x="494.5" y="288.9688">Drone</text><line style="stroke:#181818;stroke-width:0.5;" x1="457.5" x2="556.5" y1="298.3633" y2="298.3633"/><line style="stroke:#181818;stroke-width:0.5;" x1="457.5" x2="556.5" y1="306.3633" y2="306.3633"/></g><!--class Model--><g id="elem_Model"><rect codeLine="10" fill="#F1F1F1" height="76.3125" id="Model" rx="2.5" ry="2.5" style="stroke:#181818;stroke-width:0.5;" width="166" x="22" y="400.8945"/><ellipse cx="38" cy="431.0508" fill="#ADD1B2" rx="12" ry="12" style="stroke:#181818;stroke-width:1.0;"/><path d="M40.1406,425.9727 Q40.3281,425.7227 40.5469,425.5977 Q40.7656,425.457 41.0156,425.457 Q41.4531,425.457 41.7344,425.7695 Q42.0156,426.0664 42.0156,426.7852 L42.0156,428.4883 Q42.0156,429.207 41.7344,429.5195 Q41.4531,429.832 41.0156,429.832 Q40.625,429.832 40.375,429.5977 Q40.125,429.3789 40.0156,428.7695 Q39.9531,428.3477 39.7344,428.1289 Q39.3438,427.6914 38.625,427.4258 Q37.9063,427.1602 37.1875,427.1602 Q36.2813,427.1602 35.5313,427.5508 Q34.7813,427.9414 34.2031,428.832 Q33.625,429.707 33.625,430.9102 L33.625,432.207 Q33.625,433.6602 34.6719,434.6289 Q35.7344,435.5977 37.5938,435.5977 Q38.7031,435.5977 39.4844,435.2852 Q39.9219,435.1133 40.4375,434.5977 Q40.75,434.2852 40.9219,434.1914 Q41.0938,434.0977 41.3281,434.0977 Q41.7188,434.0977 42.0156,434.4102 Q42.3281,434.707 42.3281,435.1133 Q42.3281,435.5195 41.9219,435.9883 Q41.3281,436.6758 40.3906,437.0664 Q39.125,437.5977 37.6094,437.5977 Q35.8281,437.5977 34.4063,436.8633 Q33.25,436.2695 32.4375,435.0039 Q31.625,433.7383 31.625,432.2539 L31.625,430.8945 Q31.625,429.332 32.3438,427.9883 Q33.0781,426.6289 34.3594,425.8945 Q35.6563,425.1602 37.1094,425.1602 Q37.9688,425.1602 38.7188,425.3633 Q39.4844,425.5664 40.1406,425.9727 Z " fill="#000000"/><text fill="#000000" font-family="sans-serif" font-size="20" font-style="italic" lengthAdjust="spacing" textLength="136" x="51" y="426.6563">«Value Object»</text><text fill="#000000" font-family="sans-serif" font-size="20" lengthAdjust="spacing" textLength="54" x="92" y="451.8125">Model</text><line style="stroke:#181818;stroke-width:0.5;" x1="23" x2="187" y1="461.207" y2="461.207"/><line style="stroke:#181818;stroke-width:0.5;" x1="23" x2="187" y1="469.207" y2="469.207"/></g><!--class SerialNumber--><g id="elem_SerialNumber"><rect codeLine="13" fill="#F1F1F1" height="76.3125" id="SerialNumber" rx="2.5" ry="2.5" style="stroke:#181818;stroke-width:0.5;" width="166" x="223" y="400.8945"/><ellipse cx="239" cy="431.0508" fill="#ADD1B2" rx="12" ry="12" style="stroke:#181818;stroke-width:1.0;"/><path d="M241.1406,425.9727 Q241.3281,425.7227 241.5469,425.5977 Q241.7656,425.457 242.0156,425.457 Q242.4531,425.457 242.7344,425.7695 Q243.0156,426.0664 243.0156,426.7852 L243.0156,428.4883 Q243.0156,429.207 242.7344,429.5195 Q242.4531,429.832 242.0156,429.832 Q241.625,429.832 241.375,429.5977 Q241.125,429.3789 241.0156,428.7695 Q240.9531,428.3477 240.7344,428.1289 Q240.3438,427.6914 239.625,427.4258 Q238.9063,427.1602 238.1875,427.1602 Q237.2813,427.1602 236.5313,427.5508 Q235.7813,427.9414 235.2031,428.832 Q234.625,429.707 234.625,430.9102 L234.625,432.207 Q234.625,433.6602 235.6719,434.6289 Q236.7344,435.5977 238.5938,435.5977 Q239.7031,435.5977 240.4844,435.2852 Q240.9219,435.1133 241.4375,434.5977 Q241.75,434.2852 241.9219,434.1914 Q242.0938,434.0977 242.3281,434.0977 Q242.7188,434.0977 243.0156,434.4102 Q243.3281,434.707 243.3281,435.1133 Q243.3281,435.5195 242.9219,435.9883 Q242.3281,436.6758 241.3906,437.0664 Q240.125,437.5977 238.6094,437.5977 Q236.8281,437.5977 235.4063,436.8633 Q234.25,436.2695 233.4375,435.0039 Q232.625,433.7383 232.625,432.2539 L232.625,430.8945 Q232.625,429.332 233.3438,427.9883 Q234.0781,426.6289 235.3594,425.8945 Q236.6563,425.1602 238.1094,425.1602 Q238.9688,425.1602 239.7188,425.3633 Q240.4844,425.5664 241.1406,425.9727 Z " fill="#000000"/><text fill="#000000" font-family="sans-serif" font-size="20" font-style="italic" lengthAdjust="spacing" textLength="136" x="252" y="426.6563">«Value Object»</text><text fill="#000000" font-family="sans-serif" font-size="20" lengthAdjust="spacing" textLength="118" x="261" y="451.8125">SerialNumber</text><line style="stroke:#181818;stroke-width:0.5;" x1="224" x2="388" y1="461.207" y2="461.207"/><line style="stroke:#181818;stroke-width:0.5;" x1="224" x2="388" y1="469.207" y2="469.207"/></g><!--class DroneStatus--><g id="elem_DroneStatus"><rect codeLine="16" fill="#F1F1F1" height="76.3125" id="DroneStatus" rx="2.5" ry="2.5" style="stroke:#181818;stroke-width:0.5;" width="166" x="424" y="400.8945"/><ellipse cx="440" cy="431.0508" fill="#EB937F" rx="12" ry="12" style="stroke:#181818;stroke-width:1.0;"/><path d="M437.9531,432.1133 L437.9531,435.0508 L443.0469,435.0508 L443.0469,433.957 Q443.0469,433.2383 443.3281,432.9414 Q443.6094,432.6289 444.0625,432.6289 Q444.5,432.6289 444.7813,432.9414 Q445.0625,433.2383 445.0625,433.957 L445.0625,437.0508 L435.625,437.0508 Q434.9063,437.0508 434.5938,436.7695 Q434.2969,436.4883 434.2969,436.0508 Q434.2969,435.5977 434.6094,435.332 Q434.9219,435.0508 435.625,435.0508 L435.9375,435.0508 L435.9375,427.2227 L435.625,427.2227 Q434.9063,427.2227 434.5938,426.9414 Q434.2969,426.6602 434.2969,426.207 Q434.2969,425.7539 434.5938,425.4883 Q434.9063,425.207 435.625,425.207 L444.6094,425.207 L444.6094,428.2539 Q444.6094,428.9727 444.3281,429.2852 Q444.0625,429.582 443.625,429.582 Q443.1719,429.582 442.8906,429.2852 Q442.6094,428.9883 442.6094,428.2539 L442.6094,427.2227 L437.9531,427.2227 L437.9531,430.1133 L439.7031,430.1133 Q439.7031,429.332 439.8438,429.0977 Q440.1563,428.6289 440.7031,428.6289 Q441.1563,428.6289 441.4219,428.9414 Q441.7031,429.2383 441.7031,429.957 L441.7031,432.2695 Q441.7031,432.9258 441.5469,433.1445 Q441.2344,433.5977 440.7031,433.5977 Q440.1563,433.5977 439.8438,433.1289 Q439.7031,432.8945 439.7031,432.1133 L437.9531,432.1133 Z " fill="#000000"/><text fill="#000000" font-family="sans-serif" font-size="20" font-style="italic" lengthAdjust="spacing" textLength="136" x="453" y="426.6563">«Value Object»</text><text fill="#000000" font-family="sans-serif" font-size="20" lengthAdjust="spacing" textLength="109" x="466.5" y="451.8125">DroneStatus</text><line style="stroke:#181818;stroke-width:0.5;" x1="425" x2="589" y1="461.207" y2="461.207"/><line style="stroke:#181818;stroke-width:0.5;" x1="425" x2="589" y1="469.207" y2="469.207"/></g><!--class Maintenance--><g id="elem_Maintenance"><rect codeLine="19" fill="#F1F1F1" height="76.3125" id="Maintenance" rx="2.5" ry="2.5" style="stroke:#181818;stroke-width:0.5;" width="166" x="625" y="400.8945"/><ellipse cx="641" cy="431.0508" fill="#ADD1B2" rx="12" ry="12" style="stroke:#181818;stroke-width:1.0;"/><path d="M643.1406,425.9727 Q643.3281,425.7227 643.5469,425.5977 Q643.7656,425.457 644.0156,425.457 Q644.4531,425.457 644.7344,425.7695 Q645.0156,426.0664 645.0156,426.7852 L645.0156,428.4883 Q645.0156,429.207 644.7344,429.5195 Q644.4531,429.832 644.0156,429.832 Q643.625,429.832 643.375,429.5977 Q643.125,429.3789 643.0156,428.7695 Q642.9531,428.3477 642.7344,428.1289 Q642.3438,427.6914 641.625,427.4258 Q640.9063,427.1602 640.1875,427.1602 Q639.2813,427.1602 638.5313,427.5508 Q637.7813,427.9414 637.2031,428.832 Q636.625,429.707 636.625,430.9102 L636.625,432.207 Q636.625,433.6602 637.6719,434.6289 Q638.7344,435.5977 640.5938,435.5977 Q641.7031,435.5977 642.4844,435.2852 Q642.9219,435.1133 643.4375,434.5977 Q643.75,434.2852 643.9219,434.1914 Q644.0938,434.0977 644.3281,434.0977 Q644.7188,434.0977 645.0156,434.4102 Q645.3281,434.707 645.3281,435.1133 Q645.3281,435.5195 644.9219,435.9883 Q644.3281,436.6758 643.3906,437.0664 Q642.125,437.5977 640.6094,437.5977 Q638.8281,437.5977 637.4063,436.8633 Q636.25,436.2695 635.4375,435.0039 Q634.625,433.7383 634.625,432.2539 L634.625,430.8945 Q634.625,429.332 635.3438,427.9883 Q636.0781,426.6289 637.3594,425.8945 Q638.6563,425.1602 640.1094,425.1602 Q640.9688,425.1602 641.7188,425.3633 Q642.4844,425.5664 643.1406,425.9727 Z " fill="#000000"/><text fill="#000000" font-family="sans-serif" font-size="20" font-style="italic" lengthAdjust="spacing" textLength="136" x="654" y="426.6563">«Value Object»</text><text fill="#000000" font-family="sans-serif" font-size="20" lengthAdjust="spacing" textLength="111" x="666.5" y="451.8125">Maintenance</text><line style="stroke:#181818;stroke-width:0.5;" x1="626" x2="790" y1="461.207" y2="461.207"/><line style="stroke:#181818;stroke-width:0.5;" x1="626" x2="790" y1="469.207" y2="469.207"/></g><!--class Routine--><g id="elem_Routine"><rect codeLine="22" fill="#F1F1F1" height="76.3125" id="Routine" rx="2.5" ry="2.5" style="stroke:#181818;stroke-width:0.5;" width="166" x="826" y="400.8945"/><ellipse cx="842" cy="431.0508" fill="#ADD1B2" rx="12" ry="12" style="stroke:#181818;stroke-width:1.0;"/><path d="M844.1406,425.9727 Q844.3281,425.7227 844.5469,425.5977 Q844.7656,425.457 845.0156,425.457 Q845.4531,425.457 845.7344,425.7695 Q846.0156,426.0664 846.0156,426.7852 L846.0156,428.4883 Q846.0156,429.207 845.7344,429.5195 Q845.4531,429.832 845.0156,429.832 Q844.625,429.832 844.375,429.5977 Q844.125,429.3789 844.0156,428.7695 Q843.9531,428.3477 843.7344,428.1289 Q843.3438,427.6914 842.625,427.4258 Q841.9063,427.1602 841.1875,427.1602 Q840.2813,427.1602 839.5313,427.5508 Q838.7813,427.9414 838.2031,428.832 Q837.625,429.707 837.625,430.9102 L837.625,432.207 Q837.625,433.6602 838.6719,434.6289 Q839.7344,435.5977 841.5938,435.5977 Q842.7031,435.5977 843.4844,435.2852 Q843.9219,435.1133 844.4375,434.5977 Q844.75,434.2852 844.9219,434.1914 Q845.0938,434.0977 845.3281,434.0977 Q845.7188,434.0977 846.0156,434.4102 Q846.3281,434.707 846.3281,435.1133 Q846.3281,435.5195 845.9219,435.9883 Q845.3281,436.6758 844.3906,437.0664 Q843.125,437.5977 841.6094,437.5977 Q839.8281,437.5977 838.4063,436.8633 Q837.25,436.2695 836.4375,435.0039 Q835.625,433.7383 835.625,432.2539 L835.625,430.8945 Q835.625,429.332 836.3438,427.9883 Q837.0781,426.6289 838.3594,425.8945 Q839.6563,425.1602 841.1094,425.1602 Q841.9688,425.1602 842.7188,425.3633 Q843.4844,425.5664 844.1406,425.9727 Z " fill="#000000"/><text fill="#000000" font-family="sans-serif" font-size="20" font-style="italic" lengthAdjust="spacing" textLength="136" x="855" y="426.6563">«Value Object»</text><text fill="#000000" font-family="sans-serif" font-size="20" lengthAdjust="spacing" textLength="66" x="890" y="451.8125">Routine</text><line style="stroke:#181818;stroke-width:0.5;" x1="827" x2="991" y1="461.207" y2="461.207"/><line style="stroke:#181818;stroke-width:0.5;" x1="827" x2="991" y1="469.207" y2="469.207"/></g><!--link Drone to Routine--><g id="link_Drone_Routine"><path codeLine="26" d="M557.61,270.3445 C619.37,279.2545 725.5,299.9345 806,343.8945 C830.9,357.4945 854.59,378.3345 872.95,396.9445 " fill="none" id="Drone-to-Routine" style="stroke:#181818;stroke-width:1.0;"/><polygon fill="#181818" points="876.55,400.6345,873.1075,391.4069,873.0504,397.0635,867.3938,397.0063,876.55,400.6345" style="stroke:#181818;stroke-width:1.0;"/><text fill="#000000" font-family="sans-serif" font-size="20" lengthAdjust="spacing" textLength="79" x="844" y="365.6563">performs</text><text fill="#000000" font-family="sans-serif" font-size="20" lengthAdjust="spacing" textLength="11" x="859.7389" y="388.6117">1</text></g><!--link Drone to DroneStatus--><g id="link_Drone_DroneStatus"><path codeLine="27" d="M507,314.1145 C507,339.9145 507,371.0945 507,395.7045 " fill="none" id="Drone-to-DroneStatus" style="stroke:#181818;stroke-width:1.0;"/><polygon fill="#181818" points="507,400.8545,511,391.8545,507,395.8545,503,391.8545,507,400.8545" style="stroke:#181818;stroke-width:1.0;"/><text fill="#000000" font-family="sans-serif" font-size="20" lengthAdjust="spacing" textLength="53" x="508" y="365.6563">status</text><text fill="#000000" font-family="sans-serif" font-size="20" lengthAdjust="spacing" textLength="11" x="495.1234" y="388.549">1</text></g><!--link Drone to Model--><g id="link_Drone_Model"><path codeLine="28" d="M456.23,281.5145 C412.48,296.6845 347.89,320.0545 293,343.8945 C254.88,360.4445 213.47,380.8745 179.24,398.4545 " fill="none" id="Drone-to-Model" style="stroke:#181818;stroke-width:1.0;"/><polygon fill="#181818" points="174.68,400.8045,184.5129,400.2441,179.1261,398.5171,180.8531,393.1304,174.68,400.8045" style="stroke:#181818;stroke-width:1.0;"/><text fill="#000000" font-family="sans-serif" font-size="20" lengthAdjust="spacing" textLength="53" x="294" y="365.6563">model</text><text fill="#000000" font-family="sans-serif" font-size="20" lengthAdjust="spacing" textLength="11" x="173.9087" y="388.491">1</text></g><!--link Drone to SerialNumber--><g id="link_Drone_SerialNumber"><path codeLine="29" d="M456.32,291.5345 C432.49,305.5345 404.45,323.8545 382,343.8945 C364.68,359.3545 348.14,379.0045 334.93,396.3345 " fill="none" id="Drone-to-SerialNumber" style="stroke:#181818;stroke-width:1.0;"/><polygon fill="#181818" points="331.65,400.6945,340.2609,395.9142,334.6591,396.7014,333.8719,391.0996,331.65,400.6945" style="stroke:#181818;stroke-width:1.0;"/><text fill="#000000" font-family="sans-serif" font-size="20" lengthAdjust="spacing" textLength="115" x="383" y="365.6563">serialNumber</text><text fill="#000000" font-family="sans-serif" font-size="20" lengthAdjust="spacing" textLength="11" x="323.8614" y="388.3635">1</text></g><!--link Drone to Maintenance--><g id="link_Drone_Maintenance"><path codeLine="30" d="M557.72,308.1745 C589.44,335.5545 630.01,370.5745 661,397.3245 " fill="none" id="Drone-to-Maintenance" style="stroke:#181818;stroke-width:1.0;"/><polygon fill="#181818" points="665.12,400.8845,660.9257,391.9734,661.3368,397.6153,655.695,398.0265,665.12,400.8845" style="stroke:#181818;stroke-width:1.0;"/><text fill="#000000" font-family="sans-serif" font-size="20" lengthAdjust="spacing" textLength="171" x="626" y="365.6563">maintenanceHistory</text><text fill="#000000" font-family="sans-serif" font-size="20" lengthAdjust="spacing" textLength="11" x="646.4094" y="388.5838">1</text></g><!--reverse link Inventory to Drone--><g id="link_Inventory_Drone"><path codeLine="33" d="M507,165.1345 C507,180.4745 507,197.3345 507,212.6445 " fill="none" id="Inventory-backto-Drone" style="stroke:#181818;stroke-width:1.0;"/><polygon fill="none" points="507,152.1145,503,158.1145,507,164.1145,511,158.1145,507,152.1145" style="stroke:#181818;stroke-width:1.0;"/></g><!--SRC=[ZP8nJyCm48Nt_8fJbawHW36gCW62eI0r4lirkKOczZcopuXIzR_Z9eLaiA1Upi_twSdtRDyh7j2XqRRfgOMMzXYqF5gMMdqHtDrasO1DZnr1VkyinmBhDNQTemw5gWgEMGPnDHgzXsV-81Rh3X5wO55ogAhZs3yjiSbfHkBMMIj9TcDRqX5uGnq8NdVlrAJ1cfn2_HBCZjpVF74mqnrgGGd-6lSDAXPYv8QkmRSsYE9_qDMKGr71vwWlCkhyDl-nA64WjxVE-0Ip6A84FzO4DKPOWZcNH7iPN7HPg9JNd4DqdCMJykTtlmms_uFVuUOZMnIJQNRw1W00]--></g></svg>