<svg xmlns="http://www.w3.org/2000/svg" xmlns:xlink="http://www.w3.org/1999/xlink" contentStyleType="text/css" height="760px" preserveAspectRatio="none" style="width:2175px;height:760px;background:#FFFFFF;" version="1.1" viewBox="0 0 2175 760" width="2175px" zoomAndPan="magnify"><defs/><g><!--cluster CRMCollaborator --><g id="cluster_CRMCollaborator "><path d="M1288.5,204.0137 L1408.5,204.0137 A3.75,3.75 0 0 1 1411,206.5137 L1418,228.6348 L1455.5,228.6348 A2.5,2.5 0 0 1 1458,231.1348 L1458,350.5137 A2.5,2.5 0 0 1 1455.5,353.0137 L1288.5,353.0137 A2.5,2.5 0 0 1 1286,350.5137 L1286,206.5137 A2.5,2.5 0 0 1 1288.5,204.0137 " fill="none" style="stroke:#000000;stroke-width:1.5;"/><line style="stroke:#000000;stroke-width:1.5;" x1="1286" x2="1418" y1="228.6348" y2="228.6348"/><text fill="#000000" font-family="sans-serif" font-size="14" font-weight="bold" lengthAdjust="spacing" textLength="115.1104" x="1290" y="221.1211">CRMCollaborator</text><text fill="#000000" font-family="sans-serif" font-size="14" font-style="italic" lengthAdjust="spacing" textLength="78.627" x="1336.6865" y="245.7422">&#171;aggregate&#187;</text></g><!--cluster CRM Manager --><g id="cluster_CRM Manager "><path d="M1484.5,204.0137 L1582.7344,204.0137 A3.75,3.75 0 0 1 1585.2344,206.5137 L1592.2344,228.6348 L1631.5,228.6348 A2.5,2.5 0 0 1 1634,231.1348 L1634,350.5137 A2.5,2.5 0 0 1 1631.5,353.0137 L1484.5,353.0137 A2.5,2.5 0 0 1 1482,350.5137 L1482,206.5137 A2.5,2.5 0 0 1 1484.5,204.0137 " fill="none" style="stroke:#000000;stroke-width:1.5;"/><line style="stroke:#000000;stroke-width:1.5;" x1="1482" x2="1592.2344" y1="228.6348" y2="228.6348"/><text fill="#000000" font-family="sans-serif" font-size="14" font-weight="bold" lengthAdjust="spacing" textLength="93.3447" x="1486" y="221.1211">CRM Manager</text><text fill="#000000" font-family="sans-serif" font-size="14" font-style="italic" lengthAdjust="spacing" textLength="78.627" x="1522.6865" y="245.7422">&#171;aggregate&#187;</text></g><!--cluster ModelOfDrone --><g id="cluster_ModelOfDrone "><path d="M1039.5,604.0137 L1140.8311,604.0137 A3.75,3.75 0 0 1 1143.3311,606.5137 L1150.3311,628.6348 L1150.5,628.6348 A2.5,2.5 0 0 1 1153,631.1348 L1153,750.5137 A2.5,2.5 0 0 1 1150.5,753.0137 L1039.5,753.0137 A2.5,2.5 0 0 1 1037,750.5137 L1037,606.5137 A2.5,2.5 0 0 1 1039.5,604.0137 " fill="none" style="stroke:#000000;stroke-width:1.5;"/><line style="stroke:#000000;stroke-width:1.5;" x1="1037" x2="1150.3311" y1="628.6348" y2="628.6348"/><text fill="#000000" font-family="sans-serif" font-size="14" font-weight="bold" lengthAdjust="spacing" textLength="96.4414" x="1041" y="621.1211">ModelOfDrone</text><text fill="#000000" font-family="sans-serif" font-size="14" font-style="italic" lengthAdjust="spacing" textLength="78.627" x="1059.6865" y="645.7422">&#171;aggregate&#187;</text></g><!--cluster Figure --><g id="cluster_Figure "><path d="M917.5,404.0137 L965.1689,404.0137 A3.75,3.75 0 0 1 967.6689,406.5137 L974.6689,428.6348 L1016.5,428.6348 A2.5,2.5 0 0 1 1019,431.1348 L1019,550.5137 A2.5,2.5 0 0 1 1016.5,553.0137 L917.5,553.0137 A2.5,2.5 0 0 1 915,550.5137 L915,406.5137 A2.5,2.5 0 0 1 917.5,404.0137 " fill="none" style="stroke:#000000;stroke-width:1.5;"/><line style="stroke:#000000;stroke-width:1.5;" x1="915" x2="974.6689" y1="428.6348" y2="428.6348"/><text fill="#000000" font-family="sans-serif" font-size="14" font-weight="bold" lengthAdjust="spacing" textLength="42.7793" x="919" y="421.1211">Figure</text><text fill="#000000" font-family="sans-serif" font-size="14" font-style="italic" lengthAdjust="spacing" textLength="78.627" x="931.6865" y="445.7422">&#171;aggregate&#187;</text></g><!--cluster ShowRequest --><g id="cluster_ShowRequest "><path d="M1660.5,204.0137 L1757.9551,204.0137 A3.75,3.75 0 0 1 1760.4551,206.5137 L1767.4551,228.6348 L1807.5,228.6348 A2.5,2.5 0 0 1 1810,231.1348 L1810,350.5137 A2.5,2.5 0 0 1 1807.5,353.0137 L1660.5,353.0137 A2.5,2.5 0 0 1 1658,350.5137 L1658,206.5137 A2.5,2.5 0 0 1 1660.5,204.0137 " fill="none" style="stroke:#000000;stroke-width:1.5;"/><line style="stroke:#000000;stroke-width:1.5;" x1="1658" x2="1767.4551" y1="228.6348" y2="228.6348"/><text fill="#000000" font-family="sans-serif" font-size="14" font-weight="bold" lengthAdjust="spacing" textLength="92.5654" x="1662" y="221.1211">ShowRequest</text><text fill="#000000" font-family="sans-serif" font-size="14" font-style="italic" lengthAdjust="spacing" textLength="78.627" x="1698.6865" y="245.7422">&#171;aggregate&#187;</text></g><!--cluster Drone --><g id="cluster_Drone "><path d="M1045.5,404.0137 L1090.8379,404.0137 A3.75,3.75 0 0 1 1093.3379,406.5137 L1100.3379,428.6348 L1144.5,428.6348 A2.5,2.5 0 0 1 1147,431.1348 L1147,550.5137 A2.5,2.5 0 0 1 1144.5,553.0137 L1045.5,553.0137 A2.5,2.5 0 0 1 1043,550.5137 L1043,406.5137 A2.5,2.5 0 0 1 1045.5,404.0137 " fill="none" style="stroke:#000000;stroke-width:1.5;"/><line style="stroke:#000000;stroke-width:1.5;" x1="1043" x2="1100.3379" y1="428.6348" y2="428.6348"/><text fill="#000000" font-family="sans-serif" font-size="14" font-weight="bold" lengthAdjust="spacing" textLength="40.4482" x="1047" y="421.1211">Drone</text><text fill="#000000" font-family="sans-serif" font-size="14" font-style="italic" lengthAdjust="spacing" textLength="78.627" x="1059.6865" y="445.7422">&#171;aggregate&#187;</text></g><!--cluster ShowProposal --><g id="cluster_ShowProposal "><path d="M8.5,6.0137 L110.624,6.0137 A3.75,3.75 0 0 1 113.124,8.5137 L120.124,30.6348 L1259.5,30.6348 A2.5,2.5 0 0 1 1262,33.1348 L1262,342.5137 A2.5,2.5 0 0 1 1259.5,345.0137 L8.5,345.0137 A2.5,2.5 0 0 1 6,342.5137 L6,8.5137 A2.5,2.5 0 0 1 8.5,6.0137 " fill="none" style="stroke:#000000;stroke-width:1.5;"/><line style="stroke:#000000;stroke-width:1.5;" x1="6" x2="120.124" y1="30.6348" y2="30.6348"/><text fill="#000000" font-family="sans-serif" font-size="14" font-weight="bold" lengthAdjust="spacing" textLength="97.2344" x="10" y="23.1211">ShowProposal</text><text fill="#000000" font-family="sans-serif" font-size="14" font-style="italic" lengthAdjust="spacing" textLength="78.627" x="598.6865" y="47.7422">&#171;aggregate&#187;</text></g><!--cluster Shared--><g id="cluster_Shared"><path d="M1704.5,631.0137 L1752.9619,631.0137 A3.75,3.75 0 0 1 1755.4619,633.5137 L1762.4619,655.6348 L2165.5,655.6348 A2.5,2.5 0 0 1 2168,658.1348 L2168,742.5137 A2.5,2.5 0 0 1 2165.5,745.0137 L1704.5,745.0137 A2.5,2.5 0 0 1 1702,742.5137 L1702,633.5137 A2.5,2.5 0 0 1 1704.5,631.0137 " fill="none" style="stroke:#000000;stroke-width:1.5;"/><line style="stroke:#000000;stroke-width:1.5;" x1="1702" x2="1762.4619" y1="655.6348" y2="655.6348"/><text fill="#000000" font-family="sans-serif" font-size="14" font-weight="bold" lengthAdjust="spacing" textLength="47.4619" x="1706" y="648.1211">Shared</text></g><!--class CRMCollaborator--><g id="elem_CRMCollaborator"><rect codeLine="4" fill="#F1F1F1" height="76.543" id="CRMCollaborator" rx="2.5" ry="2.5" style="stroke:#181818;stroke-width:0.5;" width="140.1445" x="1302" y="260.0137"/><ellipse cx="1317" cy="290.2852" fill="#ADD1B2" rx="11" ry="11" style="stroke:#181818;stroke-width:1.0;"/><path d="M1319.7656,286.1602 Q1319.9219,285.9414 1320.1094,285.832 Q1320.2969,285.7227 1320.5156,285.7227 Q1320.8906,285.7227 1321.125,285.9883 Q1321.3594,286.2383 1321.3594,286.8477 L1321.3594,288.3008 Q1321.3594,288.9102 1321.125,289.1758 Q1320.8906,289.4414 1320.5156,289.4414 Q1320.1719,289.4414 1319.9688,289.2383 Q1319.7656,289.0508 1319.6563,288.5352 Q1319.6094,288.1758 1319.4219,287.9883 Q1319.0938,287.6133 1318.4844,287.3945 Q1317.875,287.1758 1317.25,287.1758 Q1316.4844,287.1758 1315.8438,287.5039 Q1315.2188,287.832 1314.7188,288.582 Q1314.2344,289.332 1314.2344,290.3633 L1314.2344,291.457 Q1314.2344,292.6914 1315.125,293.5195 Q1316.0156,294.332 1317.6094,294.332 Q1318.5469,294.332 1319.2031,294.082 Q1319.5938,293.9258 1320.0156,293.4883 Q1320.2813,293.2227 1320.4219,293.1445 Q1320.5781,293.0664 1320.7813,293.0664 Q1321.1094,293.0664 1321.3594,293.332 Q1321.625,293.582 1321.625,293.9258 Q1321.625,294.2695 1321.2813,294.6758 Q1320.7813,295.2539 1319.9844,295.582 Q1318.9063,296.0352 1317.6094,296.0352 Q1316.0938,296.0352 1314.8906,295.4102 Q1313.9063,294.9102 1313.2188,293.8477 Q1312.5313,292.7695 1312.5313,291.4883 L1312.5313,290.332 Q1312.5313,289.0039 1313.1406,287.8633 Q1313.7656,286.707 1314.8594,286.0977 Q1315.9531,285.4727 1317.1875,285.4727 Q1317.9219,285.4727 1318.5625,285.6445 Q1319.2188,285.8008 1319.7656,286.1602 Z " fill="#000000"/><text fill="#000000" font-family="sans-serif" font-size="12" font-style="italic" lengthAdjust="spacing" textLength="43.3594" x="1363.3926" y="277.9629">&#171;Entity&#187;</text><text fill="#000000" font-family="sans-serif" font-size="12" font-style="italic" lengthAdjust="spacing" textLength="34.0254" x="1368.0596" y="293.9238">&#171;root&#187;</text><text fill="#000000" font-family="sans-serif" font-size="14" lengthAdjust="spacing" textLength="108.1445" x="1331" y="312.043">CRMCollaborator</text><line style="stroke:#181818;stroke-width:0.5;" x1="1303" x2="1441.1445" y1="320.5566" y2="320.5566"/><line style="stroke:#181818;stroke-width:0.5;" x1="1303" x2="1441.1445" y1="328.5566" y2="328.5566"/></g><!--class CRMManager--><g id="elem_CRMManager"><rect codeLine="10" fill="#F1F1F1" height="76.543" id="CRMManager" rx="2.5" ry="2.5" style="stroke:#181818;stroke-width:0.5;" width="119.1377" x="1498.5" y="260.0137"/><ellipse cx="1513.5" cy="290.2852" fill="#ADD1B2" rx="11" ry="11" style="stroke:#181818;stroke-width:1.0;"/><path d="M1516.2656,286.1602 Q1516.4219,285.9414 1516.6094,285.832 Q1516.7969,285.7227 1517.0156,285.7227 Q1517.3906,285.7227 1517.625,285.9883 Q1517.8594,286.2383 1517.8594,286.8477 L1517.8594,288.3008 Q1517.8594,288.9102 1517.625,289.1758 Q1517.3906,289.4414 1517.0156,289.4414 Q1516.6719,289.4414 1516.4688,289.2383 Q1516.2656,289.0508 1516.1563,288.5352 Q1516.1094,288.1758 1515.9219,287.9883 Q1515.5938,287.6133 1514.9844,287.3945 Q1514.375,287.1758 1513.75,287.1758 Q1512.9844,287.1758 1512.3438,287.5039 Q1511.7188,287.832 1511.2188,288.582 Q1510.7344,289.332 1510.7344,290.3633 L1510.7344,291.457 Q1510.7344,292.6914 1511.625,293.5195 Q1512.5156,294.332 1514.1094,294.332 Q1515.0469,294.332 1515.7031,294.082 Q1516.0938,293.9258 1516.5156,293.4883 Q1516.7813,293.2227 1516.9219,293.1445 Q1517.0781,293.0664 1517.2813,293.0664 Q1517.6094,293.0664 1517.8594,293.332 Q1518.125,293.582 1518.125,293.9258 Q1518.125,294.2695 1517.7813,294.6758 Q1517.2813,295.2539 1516.4844,295.582 Q1515.4063,296.0352 1514.1094,296.0352 Q1512.5938,296.0352 1511.3906,295.4102 Q1510.4063,294.9102 1509.7188,293.8477 Q1509.0313,292.7695 1509.0313,291.4883 L1509.0313,290.332 Q1509.0313,289.0039 1509.6406,287.8633 Q1510.2656,286.707 1511.3594,286.0977 Q1512.4531,285.4727 1513.6875,285.4727 Q1514.4219,285.4727 1515.0625,285.6445 Q1515.7188,285.8008 1516.2656,286.1602 Z " fill="#000000"/><text fill="#000000" font-family="sans-serif" font-size="12" font-style="italic" lengthAdjust="spacing" textLength="43.3594" x="1549.3892" y="277.9629">&#171;Entity&#187;</text><text fill="#000000" font-family="sans-serif" font-size="12" font-style="italic" lengthAdjust="spacing" textLength="34.0254" x="1554.0562" y="293.9238">&#171;root&#187;</text><text fill="#000000" font-family="sans-serif" font-size="14" lengthAdjust="spacing" textLength="87.1377" x="1527.5" y="312.043">CRMManager</text><line style="stroke:#181818;stroke-width:0.5;" x1="1499.5" x2="1616.6377" y1="320.5566" y2="320.5566"/><line style="stroke:#181818;stroke-width:0.5;" x1="1499.5" x2="1616.6377" y1="328.5566" y2="328.5566"/></g><!--class Model--><g id="elem_Model"><rect codeLine="16" fill="#F1F1F1" height="76.543" id="Model" rx="2.5" ry="2.5" style="stroke:#181818;stroke-width:0.5;" width="71.3594" x="1059.5" y="660.0137"/><ellipse cx="1074.5" cy="690.2852" fill="#ADD1B2" rx="11" ry="11" style="stroke:#181818;stroke-width:1.0;"/><path d="M1077.2656,686.1602 Q1077.4219,685.9414 1077.6094,685.832 Q1077.7969,685.7227 1078.0156,685.7227 Q1078.3906,685.7227 1078.625,685.9883 Q1078.8594,686.2383 1078.8594,686.8477 L1078.8594,688.3008 Q1078.8594,688.9102 1078.625,689.1758 Q1078.3906,689.4414 1078.0156,689.4414 Q1077.6719,689.4414 1077.4688,689.2383 Q1077.2656,689.0508 1077.1563,688.5352 Q1077.1094,688.1758 1076.9219,687.9883 Q1076.5938,687.6133 1075.9844,687.3945 Q1075.375,687.1758 1074.75,687.1758 Q1073.9844,687.1758 1073.3438,687.5039 Q1072.7188,687.832 1072.2188,688.582 Q1071.7344,689.332 1071.7344,690.3633 L1071.7344,691.457 Q1071.7344,692.6914 1072.625,693.5195 Q1073.5156,694.332 1075.1094,694.332 Q1076.0469,694.332 1076.7031,694.082 Q1077.0938,693.9258 1077.5156,693.4883 Q1077.7813,693.2227 1077.9219,693.1445 Q1078.0781,693.0664 1078.2813,693.0664 Q1078.6094,693.0664 1078.8594,693.332 Q1079.125,693.582 1079.125,693.9258 Q1079.125,694.2695 1078.7813,694.6758 Q1078.2813,695.2539 1077.4844,695.582 Q1076.4063,696.0352 1075.1094,696.0352 Q1073.5938,696.0352 1072.3906,695.4102 Q1071.4063,694.9102 1070.7188,693.8477 Q1070.0313,692.7695 1070.0313,691.4883 L1070.0313,690.332 Q1070.0313,689.0039 1070.6406,687.8633 Q1071.2656,686.707 1072.3594,686.0977 Q1073.4531,685.4727 1074.6875,685.4727 Q1075.4219,685.4727 1076.0625,685.6445 Q1076.7188,685.8008 1077.2656,686.1602 Z " fill="#000000"/><text fill="#000000" font-family="sans-serif" font-size="12" font-style="italic" lengthAdjust="spacing" textLength="43.3594" x="1086.5" y="677.9629">&#171;Entity&#187;</text><text fill="#000000" font-family="sans-serif" font-size="12" font-style="italic" lengthAdjust="spacing" textLength="34.0254" x="1091.167" y="693.9238">&#171;root&#187;</text><text fill="#000000" font-family="sans-serif" font-size="14" lengthAdjust="spacing" textLength="38.1309" x="1089.1143" y="712.043">Model</text><line style="stroke:#181818;stroke-width:0.5;" x1="1060.5" x2="1129.8594" y1="720.5566" y2="720.5566"/><line style="stroke:#181818;stroke-width:0.5;" x1="1060.5" x2="1129.8594" y1="728.5566" y2="728.5566"/></g><!--class Figure--><g id="elem_Figure"><rect codeLine="23" fill="#F1F1F1" height="76.543" id="Figure" rx="2.5" ry="2.5" style="stroke:#181818;stroke-width:0.5;" width="71.6826" x="931" y="460.0137"/><ellipse cx="946" cy="490.2852" fill="#ADD1B2" rx="11" ry="11" style="stroke:#181818;stroke-width:1.0;"/><path d="M948.7656,486.1602 Q948.9219,485.9414 949.1094,485.832 Q949.2969,485.7227 949.5156,485.7227 Q949.8906,485.7227 950.125,485.9883 Q950.3594,486.2383 950.3594,486.8477 L950.3594,488.3008 Q950.3594,488.9102 950.125,489.1758 Q949.8906,489.4414 949.5156,489.4414 Q949.1719,489.4414 948.9688,489.2383 Q948.7656,489.0508 948.6563,488.5352 Q948.6094,488.1758 948.4219,487.9883 Q948.0938,487.6133 947.4844,487.3945 Q946.875,487.1758 946.25,487.1758 Q945.4844,487.1758 944.8438,487.5039 Q944.2188,487.832 943.7188,488.582 Q943.2344,489.332 943.2344,490.3633 L943.2344,491.457 Q943.2344,492.6914 944.125,493.5195 Q945.0156,494.332 946.6094,494.332 Q947.5469,494.332 948.2031,494.082 Q948.5938,493.9258 949.0156,493.4883 Q949.2813,493.2227 949.4219,493.1445 Q949.5781,493.0664 949.7813,493.0664 Q950.1094,493.0664 950.3594,493.332 Q950.625,493.582 950.625,493.9258 Q950.625,494.2695 950.2813,494.6758 Q949.7813,495.2539 948.9844,495.582 Q947.9063,496.0352 946.6094,496.0352 Q945.0938,496.0352 943.8906,495.4102 Q942.9063,494.9102 942.2188,493.8477 Q941.5313,492.7695 941.5313,491.4883 L941.5313,490.332 Q941.5313,489.0039 942.1406,487.8633 Q942.7656,486.707 943.8594,486.0977 Q944.9531,485.4727 946.1875,485.4727 Q946.9219,485.4727 947.5625,485.6445 Q948.2188,485.8008 948.7656,486.1602 Z " fill="#000000"/><text fill="#000000" font-family="sans-serif" font-size="12" font-style="italic" lengthAdjust="spacing" textLength="43.3594" x="958.1616" y="477.9629">&#171;Entity&#187;</text><text fill="#000000" font-family="sans-serif" font-size="12" font-style="italic" lengthAdjust="spacing" textLength="34.0254" x="962.8286" y="493.9238">&#171;root&#187;</text><text fill="#000000" font-family="sans-serif" font-size="14" lengthAdjust="spacing" textLength="39.6826" x="960" y="512.043">Figure</text><line style="stroke:#181818;stroke-width:0.5;" x1="932" x2="1001.6826" y1="520.5566" y2="520.5566"/><line style="stroke:#181818;stroke-width:0.5;" x1="932" x2="1001.6826" y1="528.5566" y2="528.5566"/></g><!--class ShowRequest--><g id="elem_ShowRequest"><rect codeLine="29" fill="#F1F1F1" height="76.543" id="ShowRequest" rx="2.5" ry="2.5" style="stroke:#181818;stroke-width:0.5;" width="119.165" x="1674.5" y="260.0137"/><ellipse cx="1689.5" cy="290.2852" fill="#ADD1B2" rx="11" ry="11" style="stroke:#181818;stroke-width:1.0;"/><path d="M1692.2656,286.1602 Q1692.4219,285.9414 1692.6094,285.832 Q1692.7969,285.7227 1693.0156,285.7227 Q1693.3906,285.7227 1693.625,285.9883 Q1693.8594,286.2383 1693.8594,286.8477 L1693.8594,288.3008 Q1693.8594,288.9102 1693.625,289.1758 Q1693.3906,289.4414 1693.0156,289.4414 Q1692.6719,289.4414 1692.4688,289.2383 Q1692.2656,289.0508 1692.1563,288.5352 Q1692.1094,288.1758 1691.9219,287.9883 Q1691.5938,287.6133 1690.9844,287.3945 Q1690.375,287.1758 1689.75,287.1758 Q1688.9844,287.1758 1688.3438,287.5039 Q1687.7188,287.832 1687.2188,288.582 Q1686.7344,289.332 1686.7344,290.3633 L1686.7344,291.457 Q1686.7344,292.6914 1687.625,293.5195 Q1688.5156,294.332 1690.1094,294.332 Q1691.0469,294.332 1691.7031,294.082 Q1692.0938,293.9258 1692.5156,293.4883 Q1692.7813,293.2227 1692.9219,293.1445 Q1693.0781,293.0664 1693.2813,293.0664 Q1693.6094,293.0664 1693.8594,293.332 Q1694.125,293.582 1694.125,293.9258 Q1694.125,294.2695 1693.7813,294.6758 Q1693.2813,295.2539 1692.4844,295.582 Q1691.4063,296.0352 1690.1094,296.0352 Q1688.5938,296.0352 1687.3906,295.4102 Q1686.4063,294.9102 1685.7188,293.8477 Q1685.0313,292.7695 1685.0313,291.4883 L1685.0313,290.332 Q1685.0313,289.0039 1685.6406,287.8633 Q1686.2656,286.707 1687.3594,286.0977 Q1688.4531,285.4727 1689.6875,285.4727 Q1690.4219,285.4727 1691.0625,285.6445 Q1691.7188,285.8008 1692.2656,286.1602 Z " fill="#000000"/><text fill="#000000" font-family="sans-serif" font-size="12" font-style="italic" lengthAdjust="spacing" textLength="43.3594" x="1725.4028" y="277.9629">&#171;Entity&#187;</text><text fill="#000000" font-family="sans-serif" font-size="12" font-style="italic" lengthAdjust="spacing" textLength="34.0254" x="1730.0698" y="293.9238">&#171;root&#187;</text><text fill="#000000" font-family="sans-serif" font-size="14" lengthAdjust="spacing" textLength="87.165" x="1703.5" y="312.043">ShowRequest</text><line style="stroke:#181818;stroke-width:0.5;" x1="1675.5" x2="1792.665" y1="320.5566" y2="320.5566"/><line style="stroke:#181818;stroke-width:0.5;" x1="1675.5" x2="1792.665" y1="328.5566" y2="328.5566"/></g><!--class Drone--><g id="elem_Drone"><rect codeLine="35" fill="#F1F1F1" height="76.543" id="Drone" rx="2.5" ry="2.5" style="stroke:#181818;stroke-width:0.5;" width="71.3594" x="1059.5" y="460.0137"/><ellipse cx="1074.5" cy="490.2852" fill="#ADD1B2" rx="11" ry="11" style="stroke:#181818;stroke-width:1.0;"/><path d="M1077.2656,486.1602 Q1077.4219,485.9414 1077.6094,485.832 Q1077.7969,485.7227 1078.0156,485.7227 Q1078.3906,485.7227 1078.625,485.9883 Q1078.8594,486.2383 1078.8594,486.8477 L1078.8594,488.3008 Q1078.8594,488.9102 1078.625,489.1758 Q1078.3906,489.4414 1078.0156,489.4414 Q1077.6719,489.4414 1077.4688,489.2383 Q1077.2656,489.0508 1077.1563,488.5352 Q1077.1094,488.1758 1076.9219,487.9883 Q1076.5938,487.6133 1075.9844,487.3945 Q1075.375,487.1758 1074.75,487.1758 Q1073.9844,487.1758 1073.3438,487.5039 Q1072.7188,487.832 1072.2188,488.582 Q1071.7344,489.332 1071.7344,490.3633 L1071.7344,491.457 Q1071.7344,492.6914 1072.625,493.5195 Q1073.5156,494.332 1075.1094,494.332 Q1076.0469,494.332 1076.7031,494.082 Q1077.0938,493.9258 1077.5156,493.4883 Q1077.7813,493.2227 1077.9219,493.1445 Q1078.0781,493.0664 1078.2813,493.0664 Q1078.6094,493.0664 1078.8594,493.332 Q1079.125,493.582 1079.125,493.9258 Q1079.125,494.2695 1078.7813,494.6758 Q1078.2813,495.2539 1077.4844,495.582 Q1076.4063,496.0352 1075.1094,496.0352 Q1073.5938,496.0352 1072.3906,495.4102 Q1071.4063,494.9102 1070.7188,493.8477 Q1070.0313,492.7695 1070.0313,491.4883 L1070.0313,490.332 Q1070.0313,489.0039 1070.6406,487.8633 Q1071.2656,486.707 1072.3594,486.0977 Q1073.4531,485.4727 1074.6875,485.4727 Q1075.4219,485.4727 1076.0625,485.6445 Q1076.7188,485.8008 1077.2656,486.1602 Z " fill="#000000"/><text fill="#000000" font-family="sans-serif" font-size="12" font-style="italic" lengthAdjust="spacing" textLength="43.3594" x="1086.5" y="477.9629">&#171;Entity&#187;</text><text fill="#000000" font-family="sans-serif" font-size="12" font-style="italic" lengthAdjust="spacing" textLength="34.0254" x="1091.167" y="493.9238">&#171;root&#187;</text><text fill="#000000" font-family="sans-serif" font-size="14" lengthAdjust="spacing" textLength="38.1309" x="1089.1143" y="512.043">Drone</text><line style="stroke:#181818;stroke-width:0.5;" x1="1060.5" x2="1129.8594" y1="520.5566" y2="520.5566"/><line style="stroke:#181818;stroke-width:0.5;" x1="1060.5" x2="1129.8594" y1="528.5566" y2="528.5566"/></g><!--class ShowProposalStatus--><g id="elem_ShowProposalStatus"><rect codeLine="42" fill="#F1F1F1" height="60.582" id="ShowProposalStatus" rx="2.5" ry="2.5" style="stroke:#181818;stroke-width:0.5;" width="161.9648" x="22" y="268.0137"/><ellipse cx="37" cy="290.3047" fill="#EB937F" rx="11" ry="11" style="stroke:#181818;stroke-width:1.0;"/><path d="M35.8594,291.1016 L35.8594,293.6016 L40.1875,293.6016 L40.1875,292.6797 Q40.1875,292.0703 40.4219,291.8047 Q40.6719,291.5391 41.0469,291.5391 Q41.4219,291.5391 41.6563,291.8047 Q41.8906,292.0703 41.8906,292.6797 L41.8906,295.3047 L33.8906,295.3047 Q33.2656,295.3047 33,295.0703 Q32.75,294.8359 32.75,294.4453 Q32.75,294.0703 33.0156,293.8359 Q33.2813,293.6016 33.8906,293.6016 L34.1563,293.6016 L34.1563,286.9453 L33.8906,286.9453 Q33.2656,286.9453 33,286.7109 Q32.75,286.4766 32.75,286.0859 Q32.75,285.7109 33,285.4766 Q33.2656,285.2422 33.8906,285.2422 L41.5156,285.2422 L41.5156,287.8359 Q41.5156,288.4453 41.2813,288.7109 Q41.0625,288.9609 40.6719,288.9609 Q40.2969,288.9609 40.0625,288.7109 Q39.8281,288.4453 39.8281,287.8359 L39.8281,286.9453 L35.8594,286.9453 L35.8594,289.3984 L37.3438,289.3984 Q37.3438,288.7422 37.4688,288.5547 Q37.7344,288.1484 38.2031,288.1484 Q38.5781,288.1484 38.8125,288.4141 Q39.0469,288.6641 39.0469,289.2734 L39.0469,291.2422 Q39.0469,291.7891 38.9219,291.9766 Q38.6563,292.3672 38.2031,292.3672 Q37.7344,292.3672 37.4688,291.9609 Q37.3438,291.7734 37.3438,291.1016 L35.8594,291.1016 Z " fill="#000000"/><text fill="#000000" font-family="sans-serif" font-size="12" font-style="italic" lengthAdjust="spacing" textLength="82.0547" x="74.9551" y="285.9629">&#171;Value Object&#187;</text><text fill="#000000" font-family="sans-serif" font-size="14" lengthAdjust="spacing" textLength="129.9648" x="51" y="304.082">ShowProposalStatus</text><line style="stroke:#181818;stroke-width:0.5;" x1="23" x2="182.9648" y1="312.5957" y2="312.5957"/><line style="stroke:#181818;stroke-width:0.5;" x1="23" x2="182.9648" y1="320.5957" y2="320.5957"/></g><!--class ShowProposal--><g id="elem_ShowProposal"><rect codeLine="45" fill="#F1F1F1" height="76.543" id="ShowProposal" rx="2.5" ry="2.5" style="stroke:#181818;stroke-width:0.5;" width="122.2754" x="1124" y="62.0137"/><ellipse cx="1139" cy="92.2852" fill="#ADD1B2" rx="11" ry="11" style="stroke:#181818;stroke-width:1.0;"/><path d="M1141.7656,88.1602 Q1141.9219,87.9414 1142.1094,87.832 Q1142.2969,87.7227 1142.5156,87.7227 Q1142.8906,87.7227 1143.125,87.9883 Q1143.3594,88.2383 1143.3594,88.8477 L1143.3594,90.3008 Q1143.3594,90.9102 1143.125,91.1758 Q1142.8906,91.4414 1142.5156,91.4414 Q1142.1719,91.4414 1141.9688,91.2383 Q1141.7656,91.0508 1141.6563,90.5352 Q1141.6094,90.1758 1141.4219,89.9883 Q1141.0938,89.6133 1140.4844,89.3945 Q1139.875,89.1758 1139.25,89.1758 Q1138.4844,89.1758 1137.8438,89.5039 Q1137.2188,89.832 1136.7188,90.582 Q1136.2344,91.332 1136.2344,92.3633 L1136.2344,93.457 Q1136.2344,94.6914 1137.125,95.5195 Q1138.0156,96.332 1139.6094,96.332 Q1140.5469,96.332 1141.2031,96.082 Q1141.5938,95.9258 1142.0156,95.4883 Q1142.2813,95.2227 1142.4219,95.1445 Q1142.5781,95.0664 1142.7813,95.0664 Q1143.1094,95.0664 1143.3594,95.332 Q1143.625,95.582 1143.625,95.9258 Q1143.625,96.2695 1143.2813,96.6758 Q1142.7813,97.2539 1141.9844,97.582 Q1140.9063,98.0352 1139.6094,98.0352 Q1138.0938,98.0352 1136.8906,97.4102 Q1135.9063,96.9102 1135.2188,95.8477 Q1134.5313,94.7695 1134.5313,93.4883 L1134.5313,92.332 Q1134.5313,91.0039 1135.1406,89.8633 Q1135.7656,88.707 1136.8594,88.0977 Q1137.9531,87.4727 1139.1875,87.4727 Q1139.9219,87.4727 1140.5625,87.6445 Q1141.2188,87.8008 1141.7656,88.1602 Z " fill="#000000"/><text fill="#000000" font-family="sans-serif" font-size="12" font-style="italic" lengthAdjust="spacing" textLength="43.3594" x="1176.458" y="79.9629">&#171;Entity&#187;</text><text fill="#000000" font-family="sans-serif" font-size="12" font-style="italic" lengthAdjust="spacing" textLength="34.0254" x="1181.125" y="95.9238">&#171;root&#187;</text><text fill="#000000" font-family="sans-serif" font-size="14" lengthAdjust="spacing" textLength="90.2754" x="1153" y="114.043">ShowProposal</text><line style="stroke:#181818;stroke-width:0.5;" x1="1125" x2="1245.2754" y1="122.5566" y2="122.5566"/><line style="stroke:#181818;stroke-width:0.5;" x1="1125" x2="1245.2754" y1="130.5566" y2="130.5566"/></g><!--class ShowProposalTemplate--><g id="elem_ShowProposalTemplate"><rect codeLine="48" fill="#F1F1F1" height="60.582" id="ShowProposalTemplate" rx="2.5" ry="2.5" style="stroke:#181818;stroke-width:0.5;" width="180.6338" x="219.5" y="268.0137"/><ellipse cx="234.5" cy="290.3047" fill="#ADD1B2" rx="11" ry="11" style="stroke:#181818;stroke-width:1.0;"/><path d="M237.2656,286.1797 Q237.4219,285.9609 237.6094,285.8516 Q237.7969,285.7422 238.0156,285.7422 Q238.3906,285.7422 238.625,286.0078 Q238.8594,286.2578 238.8594,286.8672 L238.8594,288.3203 Q238.8594,288.9297 238.625,289.1953 Q238.3906,289.4609 238.0156,289.4609 Q237.6719,289.4609 237.4688,289.2578 Q237.2656,289.0703 237.1563,288.5547 Q237.1094,288.1953 236.9219,288.0078 Q236.5938,287.6328 235.9844,287.4141 Q235.375,287.1953 234.75,287.1953 Q233.9844,287.1953 233.3438,287.5234 Q232.7188,287.8516 232.2188,288.6016 Q231.7344,289.3516 231.7344,290.3828 L231.7344,291.4766 Q231.7344,292.7109 232.625,293.5391 Q233.5156,294.3516 235.1094,294.3516 Q236.0469,294.3516 236.7031,294.1016 Q237.0938,293.9453 237.5156,293.5078 Q237.7813,293.2422 237.9219,293.1641 Q238.0781,293.0859 238.2813,293.0859 Q238.6094,293.0859 238.8594,293.3516 Q239.125,293.6016 239.125,293.9453 Q239.125,294.2891 238.7813,294.6953 Q238.2813,295.2734 237.4844,295.6016 Q236.4063,296.0547 235.1094,296.0547 Q233.5938,296.0547 232.3906,295.4297 Q231.4063,294.9297 230.7188,293.8672 Q230.0313,292.7891 230.0313,291.5078 L230.0313,290.3516 Q230.0313,289.0234 230.6406,287.8828 Q231.2656,286.7266 232.3594,286.1172 Q233.4531,285.4922 234.6875,285.4922 Q235.4219,285.4922 236.0625,285.6641 Q236.7188,285.8203 237.2656,286.1797 Z " fill="#000000"/><text fill="#000000" font-family="sans-serif" font-size="12" font-style="italic" lengthAdjust="spacing" textLength="82.0547" x="281.7896" y="285.9629">&#171;Value Object&#187;</text><text fill="#000000" font-family="sans-serif" font-size="14" lengthAdjust="spacing" textLength="148.6338" x="248.5" y="304.082">ShowProposalTemplate</text><line style="stroke:#181818;stroke-width:0.5;" x1="220.5" x2="399.1338" y1="312.5957" y2="312.5957"/><line style="stroke:#181818;stroke-width:0.5;" x1="220.5" x2="399.1338" y1="320.5957" y2="320.5957"/></g><!--class ShowProposalNumber--><g id="elem_ShowProposalNumber"><rect codeLine="51" fill="#F1F1F1" height="60.582" id="ShowProposalNumber" rx="2.5" ry="2.5" style="stroke:#181818;stroke-width:0.5;" width="172.0684" x="436" y="268.0137"/><ellipse cx="451" cy="290.3047" fill="#ADD1B2" rx="11" ry="11" style="stroke:#181818;stroke-width:1.0;"/><path d="M453.7656,286.1797 Q453.9219,285.9609 454.1094,285.8516 Q454.2969,285.7422 454.5156,285.7422 Q454.8906,285.7422 455.125,286.0078 Q455.3594,286.2578 455.3594,286.8672 L455.3594,288.3203 Q455.3594,288.9297 455.125,289.1953 Q454.8906,289.4609 454.5156,289.4609 Q454.1719,289.4609 453.9688,289.2578 Q453.7656,289.0703 453.6563,288.5547 Q453.6094,288.1953 453.4219,288.0078 Q453.0938,287.6328 452.4844,287.4141 Q451.875,287.1953 451.25,287.1953 Q450.4844,287.1953 449.8438,287.5234 Q449.2188,287.8516 448.7188,288.6016 Q448.2344,289.3516 448.2344,290.3828 L448.2344,291.4766 Q448.2344,292.7109 449.125,293.5391 Q450.0156,294.3516 451.6094,294.3516 Q452.5469,294.3516 453.2031,294.1016 Q453.5938,293.9453 454.0156,293.5078 Q454.2813,293.2422 454.4219,293.1641 Q454.5781,293.0859 454.7813,293.0859 Q455.1094,293.0859 455.3594,293.3516 Q455.625,293.6016 455.625,293.9453 Q455.625,294.2891 455.2813,294.6953 Q454.7813,295.2734 453.9844,295.6016 Q452.9063,296.0547 451.6094,296.0547 Q450.0938,296.0547 448.8906,295.4297 Q447.9063,294.9297 447.2188,293.8672 Q446.5313,292.7891 446.5313,291.5078 L446.5313,290.3516 Q446.5313,289.0234 447.1406,287.8828 Q447.7656,286.7266 448.8594,286.1172 Q449.9531,285.4922 451.1875,285.4922 Q451.9219,285.4922 452.5625,285.6641 Q453.2188,285.8203 453.7656,286.1797 Z " fill="#000000"/><text fill="#000000" font-family="sans-serif" font-size="12" font-style="italic" lengthAdjust="spacing" textLength="82.0547" x="494.0068" y="285.9629">&#171;Value Object&#187;</text><text fill="#000000" font-family="sans-serif" font-size="14" lengthAdjust="spacing" textLength="140.0684" x="465" y="304.082">ShowProposalNumber</text><line style="stroke:#181818;stroke-width:0.5;" x1="437" x2="607.0684" y1="312.5957" y2="312.5957"/><line style="stroke:#181818;stroke-width:0.5;" x1="437" x2="607.0684" y1="320.5957" y2="320.5957"/></g><!--class Insurance--><g id="elem_Insurance"><rect codeLine="54" fill="#F1F1F1" height="60.582" id="Insurance" rx="2.5" ry="2.5" style="stroke:#181818;stroke-width:0.5;" width="110.0547" x="643" y="268.0137"/><ellipse cx="658" cy="290.3047" fill="#ADD1B2" rx="11" ry="11" style="stroke:#181818;stroke-width:1.0;"/><path d="M660.7656,286.1797 Q660.9219,285.9609 661.1094,285.8516 Q661.2969,285.7422 661.5156,285.7422 Q661.8906,285.7422 662.125,286.0078 Q662.3594,286.2578 662.3594,286.8672 L662.3594,288.3203 Q662.3594,288.9297 662.125,289.1953 Q661.8906,289.4609 661.5156,289.4609 Q661.1719,289.4609 660.9688,289.2578 Q660.7656,289.0703 660.6563,288.5547 Q660.6094,288.1953 660.4219,288.0078 Q660.0938,287.6328 659.4844,287.4141 Q658.875,287.1953 658.25,287.1953 Q657.4844,287.1953 656.8438,287.5234 Q656.2188,287.8516 655.7188,288.6016 Q655.2344,289.3516 655.2344,290.3828 L655.2344,291.4766 Q655.2344,292.7109 656.125,293.5391 Q657.0156,294.3516 658.6094,294.3516 Q659.5469,294.3516 660.2031,294.1016 Q660.5938,293.9453 661.0156,293.5078 Q661.2813,293.2422 661.4219,293.1641 Q661.5781,293.0859 661.7813,293.0859 Q662.1094,293.0859 662.3594,293.3516 Q662.625,293.6016 662.625,293.9453 Q662.625,294.2891 662.2813,294.6953 Q661.7813,295.2734 660.9844,295.6016 Q659.9063,296.0547 658.6094,296.0547 Q657.0938,296.0547 655.8906,295.4297 Q654.9063,294.9297 654.2188,293.8672 Q653.5313,292.7891 653.5313,291.5078 L653.5313,290.3516 Q653.5313,289.0234 654.1406,287.8828 Q654.7656,286.7266 655.8594,286.1172 Q656.9531,285.4922 658.1875,285.4922 Q658.9219,285.4922 659.5625,285.6641 Q660.2188,285.8203 660.7656,286.1797 Z " fill="#000000"/><text fill="#000000" font-family="sans-serif" font-size="12" font-style="italic" lengthAdjust="spacing" textLength="82.0547" x="670" y="285.9629">&#171;Value Object&#187;</text><text fill="#000000" font-family="sans-serif" font-size="14" lengthAdjust="spacing" textLength="61.4824" x="680.2861" y="304.082">Insurance</text><line style="stroke:#181818;stroke-width:0.5;" x1="644" x2="752.0547" y1="312.5957" y2="312.5957"/><line style="stroke:#181818;stroke-width:0.5;" x1="644" x2="752.0547" y1="320.5957" y2="320.5957"/></g><!--class FeedbackEmail--><g id="elem_FeedbackEmail"><rect codeLine="57" fill="#F1F1F1" height="60.582" id="FeedbackEmail" rx="2.5" ry="2.5" style="stroke:#181818;stroke-width:0.5;" width="128.4893" x="788" y="268.0137"/><ellipse cx="803" cy="290.3047" fill="#ADD1B2" rx="11" ry="11" style="stroke:#181818;stroke-width:1.0;"/><path d="M805.7656,286.1797 Q805.9219,285.9609 806.1094,285.8516 Q806.2969,285.7422 806.5156,285.7422 Q806.8906,285.7422 807.125,286.0078 Q807.3594,286.2578 807.3594,286.8672 L807.3594,288.3203 Q807.3594,288.9297 807.125,289.1953 Q806.8906,289.4609 806.5156,289.4609 Q806.1719,289.4609 805.9688,289.2578 Q805.7656,289.0703 805.6563,288.5547 Q805.6094,288.1953 805.4219,288.0078 Q805.0938,287.6328 804.4844,287.4141 Q803.875,287.1953 803.25,287.1953 Q802.4844,287.1953 801.8438,287.5234 Q801.2188,287.8516 800.7188,288.6016 Q800.2344,289.3516 800.2344,290.3828 L800.2344,291.4766 Q800.2344,292.7109 801.125,293.5391 Q802.0156,294.3516 803.6094,294.3516 Q804.5469,294.3516 805.2031,294.1016 Q805.5938,293.9453 806.0156,293.5078 Q806.2813,293.2422 806.4219,293.1641 Q806.5781,293.0859 806.7813,293.0859 Q807.1094,293.0859 807.3594,293.3516 Q807.625,293.6016 807.625,293.9453 Q807.625,294.2891 807.2813,294.6953 Q806.7813,295.2734 805.9844,295.6016 Q804.9063,296.0547 803.6094,296.0547 Q802.0938,296.0547 800.8906,295.4297 Q799.9063,294.9297 799.2188,293.8672 Q798.5313,292.7891 798.5313,291.5078 L798.5313,290.3516 Q798.5313,289.0234 799.1406,287.8828 Q799.7656,286.7266 800.8594,286.1172 Q801.9531,285.4922 803.1875,285.4922 Q803.9219,285.4922 804.5625,285.6641 Q805.2188,285.8203 805.7656,286.1797 Z " fill="#000000"/><text fill="#000000" font-family="sans-serif" font-size="12" font-style="italic" lengthAdjust="spacing" textLength="82.0547" x="824.2173" y="285.9629">&#171;Value Object&#187;</text><text fill="#000000" font-family="sans-serif" font-size="14" lengthAdjust="spacing" textLength="96.4893" x="817" y="304.082">FeedbackEmail</text><line style="stroke:#181818;stroke-width:0.5;" x1="789" x2="915.4893" y1="312.5957" y2="312.5957"/><line style="stroke:#181818;stroke-width:0.5;" x1="789" x2="915.4893" y1="320.5957" y2="320.5957"/></g><!--class ShowConfiguration--><g id="elem_ShowConfiguration"><rect codeLine="60" fill="#F1F1F1" height="60.582" id="ShowConfiguration" rx="2.5" ry="2.5" style="stroke:#181818;stroke-width:0.5;" width="150.2959" x="951" y="268.0137"/><ellipse cx="966" cy="290.3047" fill="#ADD1B2" rx="11" ry="11" style="stroke:#181818;stroke-width:1.0;"/><path d="M968.7656,286.1797 Q968.9219,285.9609 969.1094,285.8516 Q969.2969,285.7422 969.5156,285.7422 Q969.8906,285.7422 970.125,286.0078 Q970.3594,286.2578 970.3594,286.8672 L970.3594,288.3203 Q970.3594,288.9297 970.125,289.1953 Q969.8906,289.4609 969.5156,289.4609 Q969.1719,289.4609 968.9688,289.2578 Q968.7656,289.0703 968.6563,288.5547 Q968.6094,288.1953 968.4219,288.0078 Q968.0938,287.6328 967.4844,287.4141 Q966.875,287.1953 966.25,287.1953 Q965.4844,287.1953 964.8438,287.5234 Q964.2188,287.8516 963.7188,288.6016 Q963.2344,289.3516 963.2344,290.3828 L963.2344,291.4766 Q963.2344,292.7109 964.125,293.5391 Q965.0156,294.3516 966.6094,294.3516 Q967.5469,294.3516 968.2031,294.1016 Q968.5938,293.9453 969.0156,293.5078 Q969.2813,293.2422 969.4219,293.1641 Q969.5781,293.0859 969.7813,293.0859 Q970.1094,293.0859 970.3594,293.3516 Q970.625,293.6016 970.625,293.9453 Q970.625,294.2891 970.2813,294.6953 Q969.7813,295.2734 968.9844,295.6016 Q967.9063,296.0547 966.6094,296.0547 Q965.0938,296.0547 963.8906,295.4297 Q962.9063,294.9297 962.2188,293.8672 Q961.5313,292.7891 961.5313,291.5078 L961.5313,290.3516 Q961.5313,289.0234 962.1406,287.8828 Q962.7656,286.7266 963.8594,286.1172 Q964.9531,285.4922 966.1875,285.4922 Q966.9219,285.4922 967.5625,285.6641 Q968.2188,285.8203 968.7656,286.1797 Z " fill="#000000"/><text fill="#000000" font-family="sans-serif" font-size="12" font-style="italic" lengthAdjust="spacing" textLength="43.3594" x="1017.4683" y="285.9629">&#171;Entity&#187;</text><text fill="#000000" font-family="sans-serif" font-size="14" lengthAdjust="spacing" textLength="118.2959" x="980" y="304.082">ShowConfiguration</text><line style="stroke:#181818;stroke-width:0.5;" x1="952" x2="1100.2959" y1="312.5957" y2="312.5957"/><line style="stroke:#181818;stroke-width:0.5;" x1="952" x2="1100.2959" y1="320.5957" y2="320.5957"/></g><!--class Video--><g id="elem_Video"><rect codeLine="63" fill="#F1F1F1" height="60.582" id="Video" rx="2.5" ry="2.5" style="stroke:#181818;stroke-width:0.5;" width="110.0547" x="1136" y="268.0137"/><ellipse cx="1151" cy="290.3047" fill="#ADD1B2" rx="11" ry="11" style="stroke:#181818;stroke-width:1.0;"/><path d="M1153.7656,286.1797 Q1153.9219,285.9609 1154.1094,285.8516 Q1154.2969,285.7422 1154.5156,285.7422 Q1154.8906,285.7422 1155.125,286.0078 Q1155.3594,286.2578 1155.3594,286.8672 L1155.3594,288.3203 Q1155.3594,288.9297 1155.125,289.1953 Q1154.8906,289.4609 1154.5156,289.4609 Q1154.1719,289.4609 1153.9688,289.2578 Q1153.7656,289.0703 1153.6563,288.5547 Q1153.6094,288.1953 1153.4219,288.0078 Q1153.0938,287.6328 1152.4844,287.4141 Q1151.875,287.1953 1151.25,287.1953 Q1150.4844,287.1953 1149.8438,287.5234 Q1149.2188,287.8516 1148.7188,288.6016 Q1148.2344,289.3516 1148.2344,290.3828 L1148.2344,291.4766 Q1148.2344,292.7109 1149.125,293.5391 Q1150.0156,294.3516 1151.6094,294.3516 Q1152.5469,294.3516 1153.2031,294.1016 Q1153.5938,293.9453 1154.0156,293.5078 Q1154.2813,293.2422 1154.4219,293.1641 Q1154.5781,293.0859 1154.7813,293.0859 Q1155.1094,293.0859 1155.3594,293.3516 Q1155.625,293.6016 1155.625,293.9453 Q1155.625,294.2891 1155.2813,294.6953 Q1154.7813,295.2734 1153.9844,295.6016 Q1152.9063,296.0547 1151.6094,296.0547 Q1150.0938,296.0547 1148.8906,295.4297 Q1147.9063,294.9297 1147.2188,293.8672 Q1146.5313,292.7891 1146.5313,291.5078 L1146.5313,290.3516 Q1146.5313,289.0234 1147.1406,287.8828 Q1147.7656,286.7266 1148.8594,286.1172 Q1149.9531,285.4922 1151.1875,285.4922 Q1151.9219,285.4922 1152.5625,285.6641 Q1153.2188,285.8203 1153.7656,286.1797 Z " fill="#000000"/><text fill="#000000" font-family="sans-serif" font-size="12" font-style="italic" lengthAdjust="spacing" textLength="82.0547" x="1163" y="285.9629">&#171;Value Object&#187;</text><text fill="#000000" font-family="sans-serif" font-size="14" lengthAdjust="spacing" textLength="35.8066" x="1186.124" y="304.082">Video</text><line style="stroke:#181818;stroke-width:0.5;" x1="1137" x2="1245.0547" y1="312.5957" y2="312.5957"/><line style="stroke:#181818;stroke-width:0.5;" x1="1137" x2="1245.0547" y1="320.5957" y2="320.5957"/></g><!--class Time--><g id="elem_Time"><rect codeLine="89" fill="#F1F1F1" height="60.582" id="Time" rx="2.5" ry="2.5" style="stroke:#181818;stroke-width:0.5;" width="110.0547" x="1718" y="668.0137"/><ellipse cx="1733" cy="690.3047" fill="#ADD1B2" rx="11" ry="11" style="stroke:#181818;stroke-width:1.0;"/><path d="M1735.7656,686.1797 Q1735.9219,685.9609 1736.1094,685.8516 Q1736.2969,685.7422 1736.5156,685.7422 Q1736.8906,685.7422 1737.125,686.0078 Q1737.3594,686.2578 1737.3594,686.8672 L1737.3594,688.3203 Q1737.3594,688.9297 1737.125,689.1953 Q1736.8906,689.4609 1736.5156,689.4609 Q1736.1719,689.4609 1735.9688,689.2578 Q1735.7656,689.0703 1735.6563,688.5547 Q1735.6094,688.1953 1735.4219,688.0078 Q1735.0938,687.6328 1734.4844,687.4141 Q1733.875,687.1953 1733.25,687.1953 Q1732.4844,687.1953 1731.8438,687.5234 Q1731.2188,687.8516 1730.7188,688.6016 Q1730.2344,689.3516 1730.2344,690.3828 L1730.2344,691.4766 Q1730.2344,692.7109 1731.125,693.5391 Q1732.0156,694.3516 1733.6094,694.3516 Q1734.5469,694.3516 1735.2031,694.1016 Q1735.5938,693.9453 1736.0156,693.5078 Q1736.2813,693.2422 1736.4219,693.1641 Q1736.5781,693.0859 1736.7813,693.0859 Q1737.1094,693.0859 1737.3594,693.3516 Q1737.625,693.6016 1737.625,693.9453 Q1737.625,694.2891 1737.2813,694.6953 Q1736.7813,695.2734 1735.9844,695.6016 Q1734.9063,696.0547 1733.6094,696.0547 Q1732.0938,696.0547 1730.8906,695.4297 Q1729.9063,694.9297 1729.2188,693.8672 Q1728.5313,692.7891 1728.5313,691.5078 L1728.5313,690.3516 Q1728.5313,689.0234 1729.1406,687.8828 Q1729.7656,686.7266 1730.8594,686.1172 Q1731.9531,685.4922 1733.1875,685.4922 Q1733.9219,685.4922 1734.5625,685.6641 Q1735.2188,685.8203 1735.7656,686.1797 Z " fill="#000000"/><text fill="#000000" font-family="sans-serif" font-size="12" font-style="italic" lengthAdjust="spacing" textLength="82.0547" x="1745" y="685.9629">&#171;Value Object&#187;</text><text fill="#000000" font-family="sans-serif" font-size="14" lengthAdjust="spacing" textLength="31.1104" x="1770.4722" y="704.082">Time</text><line style="stroke:#181818;stroke-width:0.5;" x1="1719" x2="1827.0547" y1="712.5957" y2="712.5957"/><line style="stroke:#181818;stroke-width:0.5;" x1="1719" x2="1827.0547" y1="720.5957" y2="720.5957"/></g><!--class Date--><g id="elem_Date"><rect codeLine="92" fill="#F1F1F1" height="60.582" id="Date" rx="2.5" ry="2.5" style="stroke:#181818;stroke-width:0.5;" width="110.0547" x="1863" y="668.0137"/><ellipse cx="1878" cy="690.3047" fill="#ADD1B2" rx="11" ry="11" style="stroke:#181818;stroke-width:1.0;"/><path d="M1880.7656,686.1797 Q1880.9219,685.9609 1881.1094,685.8516 Q1881.2969,685.7422 1881.5156,685.7422 Q1881.8906,685.7422 1882.125,686.0078 Q1882.3594,686.2578 1882.3594,686.8672 L1882.3594,688.3203 Q1882.3594,688.9297 1882.125,689.1953 Q1881.8906,689.4609 1881.5156,689.4609 Q1881.1719,689.4609 1880.9688,689.2578 Q1880.7656,689.0703 1880.6563,688.5547 Q1880.6094,688.1953 1880.4219,688.0078 Q1880.0938,687.6328 1879.4844,687.4141 Q1878.875,687.1953 1878.25,687.1953 Q1877.4844,687.1953 1876.8438,687.5234 Q1876.2188,687.8516 1875.7188,688.6016 Q1875.2344,689.3516 1875.2344,690.3828 L1875.2344,691.4766 Q1875.2344,692.7109 1876.125,693.5391 Q1877.0156,694.3516 1878.6094,694.3516 Q1879.5469,694.3516 1880.2031,694.1016 Q1880.5938,693.9453 1881.0156,693.5078 Q1881.2813,693.2422 1881.4219,693.1641 Q1881.5781,693.0859 1881.7813,693.0859 Q1882.1094,693.0859 1882.3594,693.3516 Q1882.625,693.6016 1882.625,693.9453 Q1882.625,694.2891 1882.2813,694.6953 Q1881.7813,695.2734 1880.9844,695.6016 Q1879.9063,696.0547 1878.6094,696.0547 Q1877.0938,696.0547 1875.8906,695.4297 Q1874.9063,694.9297 1874.2188,693.8672 Q1873.5313,692.7891 1873.5313,691.5078 L1873.5313,690.3516 Q1873.5313,689.0234 1874.1406,687.8828 Q1874.7656,686.7266 1875.8594,686.1172 Q1876.9531,685.4922 1878.1875,685.4922 Q1878.9219,685.4922 1879.5625,685.6641 Q1880.2188,685.8203 1880.7656,686.1797 Z " fill="#000000"/><text fill="#000000" font-family="sans-serif" font-size="12" font-style="italic" lengthAdjust="spacing" textLength="82.0547" x="1890" y="685.9629">&#171;Value Object&#187;</text><text fill="#000000" font-family="sans-serif" font-size="14" lengthAdjust="spacing" textLength="29.5723" x="1916.2412" y="704.082">Date</text><line style="stroke:#181818;stroke-width:0.5;" x1="1864" x2="1972.0547" y1="712.5957" y2="712.5957"/><line style="stroke:#181818;stroke-width:0.5;" x1="1864" x2="1972.0547" y1="720.5957" y2="720.5957"/></g><!--class QuantityOfDrones--><g id="elem_QuantityOfDrones"><rect codeLine="95" fill="#F1F1F1" height="60.582" id="QuantityOfDrones" rx="2.5" ry="2.5" style="stroke:#181818;stroke-width:0.5;" width="144.0479" x="2008" y="668.0137"/><ellipse cx="2023" cy="690.3047" fill="#ADD1B2" rx="11" ry="11" style="stroke:#181818;stroke-width:1.0;"/><path d="M2025.7656,686.1797 Q2025.9219,685.9609 2026.1094,685.8516 Q2026.2969,685.7422 2026.5156,685.7422 Q2026.8906,685.7422 2027.125,686.0078 Q2027.3594,686.2578 2027.3594,686.8672 L2027.3594,688.3203 Q2027.3594,688.9297 2027.125,689.1953 Q2026.8906,689.4609 2026.5156,689.4609 Q2026.1719,689.4609 2025.9688,689.2578 Q2025.7656,689.0703 2025.6563,688.5547 Q2025.6094,688.1953 2025.4219,688.0078 Q2025.0938,687.6328 2024.4844,687.4141 Q2023.875,687.1953 2023.25,687.1953 Q2022.4844,687.1953 2021.8438,687.5234 Q2021.2188,687.8516 2020.7188,688.6016 Q2020.2344,689.3516 2020.2344,690.3828 L2020.2344,691.4766 Q2020.2344,692.7109 2021.125,693.5391 Q2022.0156,694.3516 2023.6094,694.3516 Q2024.5469,694.3516 2025.2031,694.1016 Q2025.5938,693.9453 2026.0156,693.5078 Q2026.2813,693.2422 2026.4219,693.1641 Q2026.5781,693.0859 2026.7813,693.0859 Q2027.1094,693.0859 2027.3594,693.3516 Q2027.625,693.6016 2027.625,693.9453 Q2027.625,694.2891 2027.2813,694.6953 Q2026.7813,695.2734 2025.9844,695.6016 Q2024.9063,696.0547 2023.6094,696.0547 Q2022.0938,696.0547 2020.8906,695.4297 Q2019.9063,694.9297 2019.2188,693.8672 Q2018.5313,692.7891 2018.5313,691.5078 L2018.5313,690.3516 Q2018.5313,689.0234 2019.1406,687.8828 Q2019.7656,686.7266 2020.8594,686.1172 Q2021.9531,685.4922 2023.1875,685.4922 Q2023.9219,685.4922 2024.5625,685.6641 Q2025.2188,685.8203 2025.7656,686.1797 Z " fill="#000000"/><text fill="#000000" font-family="sans-serif" font-size="12" font-style="italic" lengthAdjust="spacing" textLength="82.0547" x="2051.9966" y="685.9629">&#171;Value Object&#187;</text><text fill="#000000" font-family="sans-serif" font-size="14" lengthAdjust="spacing" textLength="112.0479" x="2037" y="704.082">QuantityOfDrones</text><line style="stroke:#181818;stroke-width:0.5;" x1="2009" x2="2151.0479" y1="712.5957" y2="712.5957"/><line style="stroke:#181818;stroke-width:0.5;" x1="2009" x2="2151.0479" y1="720.5957" y2="720.5957"/></g><!--link ShowProposal to FeedbackEmail--><g id="link_ShowProposal_FeedbackEmail"><path codeLine="68" d="M1123.64,112.9837 C1077.69,123.2637 1014.34,141.0837 964,169.0137 C921.95,192.3437 891.3604,232.7648 872.2904,262.8748 " fill="none" id="ShowProposal-to-FeedbackEmail" style="stroke:#181818;stroke-width:1.0;"/><polygon fill="#181818" points="869.08,267.9437,877.2748,262.4806,871.7553,263.7196,870.5163,258.2001,869.08,267.9437" style="stroke:#181818;stroke-width:1.0;"/><text fill="#000000" font-family="sans-serif" font-size="13" lengthAdjust="spacing" textLength="85.2681" x="965" y="184.042">feedbackEmail</text><text fill="#000000" font-family="sans-serif" font-size="13" lengthAdjust="spacing" textLength="7.23" x="864.8541" y="256.9869">1</text></g><!--link ShowProposal to CRMCollaborator--><g id="link_ShowProposal_CRMCollaborator"><path codeLine="69" d="M1221.06,139.3037 C1254.17,174.0137 1298.8387,220.8221 1331.9187,255.5021 " fill="none" id="ShowProposal-to-CRMCollaborator" style="stroke:#181818;stroke-width:1.0;"/><polygon fill="#181818" points="1336.06,259.8437,1332.7424,250.5704,1332.6089,256.2257,1326.9536,256.0921,1336.06,259.8437" style="stroke:#181818;stroke-width:1.0;"/><text fill="#000000" font-family="sans-serif" font-size="13" lengthAdjust="spacing" textLength="60.7026" x="1269" y="184.042">created by</text><text fill="#000000" font-family="sans-serif" font-size="13" lengthAdjust="spacing" textLength="7.23" x="1322.2886" y="248.8289">1</text></g><!--link ShowProposal to CRMManager--><g id="link_ShowProposal_CRMManager"><path codeLine="70" d="M1246.03,114.1237 C1303.82,127.9637 1391.41,153.9837 1458,196.0137 C1484.98,213.0437 1506.2498,234.1414 1524.5898,255.3914 " fill="none" id="ShowProposal-to-CRMManager" style="stroke:#181818;stroke-width:1.0;"/><polygon fill="#181818" points="1528.51,259.9337,1525.6578,250.5068,1525.2432,256.1485,1519.6015,255.7338,1528.51,259.9337" style="stroke:#181818;stroke-width:1.0;"/><text fill="#000000" font-family="sans-serif" font-size="13" lengthAdjust="spacing" textLength="131.5234" x="1446" y="184.042">template configured by</text><text fill="#000000" font-family="sans-serif" font-size="13" lengthAdjust="spacing" textLength="7.23" x="1515.6419" y="248.6425">1</text></g><!--link ShowProposal to ShowRequest--><g id="link_ShowProposal_ShowRequest"><path codeLine="71" d="M1246.07,105.2337 C1326.13,111.5737 1470.01,128.0337 1586,169.0137 C1634.93,186.2937 1674.1743,224.039 1701.0743,255.409 " fill="none" id="ShowProposal-to-ShowRequest" style="stroke:#181818;stroke-width:1.0;"/><polygon fill="#181818" points="1704.98,259.9637,1702.1579,250.5278,1701.7252,256.1681,1696.085,255.7354,1704.98,259.9637" style="stroke:#181818;stroke-width:1.0;"/><text fill="#000000" font-family="sans-serif" font-size="13" lengthAdjust="spacing" textLength="53.4917" x="1625" y="184.042">based on</text><text fill="#000000" font-family="sans-serif" font-size="13" lengthAdjust="spacing" textLength="7.23" x="1692.1932" y="248.6778">1</text></g><!--link ShowProposal to ShowProposalStatus--><g id="link_ShowProposal_ShowProposalStatus"><path codeLine="72" d="M1124,104.1137 C984.95,110.5437 634.01,129.6037 343,169.0137 C279.77,177.5737 258.19,165.7837 202,196.0137 C169.92,213.2737 145.5085,239.7558 127.5285,263.0258 " fill="none" id="ShowProposal-to-ShowProposalStatus" style="stroke:#181818;stroke-width:1.0;"/><polygon fill="#181818" points="123.86,267.7737,132.528,263.0976,126.9171,263.8171,126.1975,258.2062,123.86,267.7737" style="stroke:#181818;stroke-width:1.0;"/><text fill="#000000" font-family="sans-serif" font-size="13" lengthAdjust="spacing" textLength="86.7217" x="344" y="184.042">proposalStatus</text><text fill="#000000" font-family="sans-serif" font-size="13" lengthAdjust="spacing" textLength="7.23" x="120.4678" y="256.7819">1</text></g><!--link ShowProposal to ShowProposalTemplate--><g id="link_ShowProposal_ShowProposalTemplate"><path codeLine="73" d="M1123.98,103.8437 C965.06,110.7337 542.11,134.4837 418,196.0137 C383.88,212.9337 357.0078,239.6437 337.1178,263.0237 " fill="none" id="ShowProposal-to-ShowProposalTemplate" style="stroke:#181818;stroke-width:1.0;"/><polygon fill="#181818" points="333.23,267.5937,342.1084,263.3306,336.4698,263.7853,336.0151,258.1468,333.23,267.5937" style="stroke:#181818;stroke-width:1.0;"/><text fill="#000000" font-family="sans-serif" font-size="13" lengthAdjust="spacing" textLength="49.8608" x="493" y="184.042">template</text><text fill="#000000" font-family="sans-serif" font-size="13" lengthAdjust="spacing" textLength="7.23" x="330.3608" y="256.5647">1</text></g><!--link ShowProposal to ShowProposalNumber--><g id="link_ShowProposal_ShowProposalNumber"><path codeLine="74" d="M1123.66,103.9637 C1028,109.0737 838.29,124.3937 684,169.0137 C656.3,177.0237 648.74,179.6437 625,196.0137 C595.24,216.5337 570.3649,241.607 550.7949,263.537 " fill="none" id="ShowProposal-to-ShowProposalNumber" style="stroke:#181818;stroke-width:1.0;"/><polygon fill="#181818" points="546.8,268.0137,555.7768,263.9619,550.1291,264.2831,549.8079,258.6354,546.8,268.0137" style="stroke:#181818;stroke-width:1.0;"/><text fill="#000000" font-family="sans-serif" font-size="13" lengthAdjust="spacing" textLength="96.1035" x="685" y="184.042">proposalNumber</text><text fill="#000000" font-family="sans-serif" font-size="13" lengthAdjust="spacing" textLength="7.23" x="544.4771" y="256.5883">1</text></g><!--link ShowProposal to Insurance--><g id="link_ShowProposal_Insurance"><path codeLine="75" d="M1123.73,101.5837 C1037.39,104.5637 878.39,120.8537 770,196.0137 C743.9,214.1137 726.8565,239.5958 714.6665,262.5258 " fill="none" id="ShowProposal-to-Insurance" style="stroke:#181818;stroke-width:1.0;"/><polygon fill="#181818" points="711.85,267.8237,719.6066,261.7545,714.197,263.4088,712.5428,257.9992,711.85,267.8237" style="stroke:#181818;stroke-width:1.0;"/><text fill="#000000" font-family="sans-serif" font-size="13" lengthAdjust="spacing" textLength="56.3672" x="811" y="184.042">insurance</text><text fill="#000000" font-family="sans-serif" font-size="13" lengthAdjust="spacing" textLength="7.23" x="707.0028" y="256.8422">1</text></g><!--link ShowProposal to ShowConfiguration--><g id="link_ShowProposal_ShowConfiguration"><path codeLine="76" d="M1123.77,127.4737 C1104.73,138.0337 1085.07,151.8437 1071,169.0137 C1047.4,197.8037 1036.9499,233.923 1031.5199,261.983 " fill="none" id="ShowProposal-to-ShowConfiguration" style="stroke:#181818;stroke-width:1.0;"/><polygon fill="#181818" points="1030.38,267.8737,1036.017,259.7976,1031.3299,262.9647,1028.1628,258.2776,1030.38,267.8737" style="stroke:#181818;stroke-width:1.0;"/><text fill="#000000" font-family="sans-serif" font-size="13" lengthAdjust="spacing" textLength="107.6753" x="1072" y="184.042">showConfiguration</text><text fill="#000000" font-family="sans-serif" font-size="13" lengthAdjust="spacing" textLength="7.23" x="1023.5547" y="256.9025">1</text></g><!--link ShowProposal to Video--><g id="link_ShowProposal_Video"><path codeLine="77" d="M1186.16,139.3037 C1187.3,176.7937 1188.8567,227.4765 1189.9067,261.8365 " fill="none" id="ShowProposal-to-Video" style="stroke:#181818;stroke-width:1.0;"/><polygon fill="#181818" points="1190.09,267.8337,1193.8132,258.7157,1189.9373,262.836,1185.817,258.96,1190.09,267.8337" style="stroke:#181818;stroke-width:1.0;"/><text fill="#000000" font-family="sans-serif" font-size="13" lengthAdjust="spacing" textLength="31.0781" x="1189" y="184.042">video</text><text fill="#000000" font-family="sans-serif" font-size="13" lengthAdjust="spacing" textLength="7.23" x="1182.1985" y="256.8542">1</text></g><!--link ShowConfiguration to Drone--><g id="link_ShowConfiguration_Drone"><path codeLine="80" d="M1036.33,329.1537 C1048.47,364.0037 1066.6654,416.2179 1079.9054,454.2079 " fill="none" id="ShowConfiguration-to-Drone" style="stroke:#181818;stroke-width:1.0;"/><polygon fill="#181818" points="1081.88,459.8737,1082.6953,450.0586,1080.2345,455.1522,1075.1409,452.6914,1081.88,459.8737" style="stroke:#181818;stroke-width:1.0;"/><text fill="#000000" font-family="sans-serif" font-size="13" lengthAdjust="spacing" textLength="39.749" x="1058" y="384.042">drones</text><text fill="#000000" font-family="sans-serif" font-size="13" lengthAdjust="spacing" textLength="19.5127" x="1059.0054" y="448.8641">1..*</text></g><!--link ShowConfiguration to Figure--><g id="link_ShowConfiguration_Figure"><path codeLine="81" d="M1006.83,329.2737 C999.93,341.2137 992.69,355.3637 988,369.0137 C977.82,398.6237 973.1351,427.8363 970.4051,453.8963 " fill="none" id="ShowConfiguration-to-Figure" style="stroke:#181818;stroke-width:1.0;"/><polygon fill="#181818" points="969.78,459.8637,974.6959,451.3294,970.3009,454.8909,966.7395,450.4959,969.78,459.8637" style="stroke:#181818;stroke-width:1.0;"/><text fill="#000000" font-family="sans-serif" font-size="13" lengthAdjust="spacing" textLength="39.019" x="989" y="384.042">figures</text><text fill="#000000" font-family="sans-serif" font-size="13" lengthAdjust="spacing" textLength="19.5127" x="949.6963" y="448.8524">1..*</text></g><!--link Drone to Model--><g id="link_Drone_Model"><path codeLine="84" d="M1095,537.2237 C1095,572.4537 1095,618.7637 1095,653.9437 " fill="none" id="Drone-to-Model" style="stroke:#181818;stroke-width:1.0;"/><polygon fill="#181818" points="1095,659.9437,1099,650.9437,1095,654.9437,1091,650.9437,1095,659.9437" style="stroke:#181818;stroke-width:1.0;"/><text fill="#000000" font-family="sans-serif" font-size="13" lengthAdjust="spacing" textLength="27.46" x="1096" y="584.042">uses</text><text fill="#000000" font-family="sans-serif" font-size="13" lengthAdjust="spacing" textLength="7.23" x="1087.365" y="648.6543">1</text></g><!--link ShowProposal to QuantityOfDrones--><g id="link_ShowProposal_QuantityOfDrones"><path codeLine="99" d="M1246.16,102.1137 C1365.37,104.4837 1636.43,115.8437 1857,169.0137 C1889.01,176.7337 1903.55,171.9237 1926,196.0137 C2056.24,335.7737 2076.2244,577.1775 2079.2744,662.0075 " fill="none" id="ShowProposal-to-QuantityOfDrones" style="stroke:#181818;stroke-width:1.0;"/><polygon fill="#181818" points="2079.49,668.0037,2083.164,658.8658,2079.3103,663.0069,2075.1692,659.1532,2079.49,668.0037" style="stroke:#181818;stroke-width:1.0;"/><text fill="#000000" font-family="sans-serif" font-size="13" lengthAdjust="spacing" textLength="65.0508" x="2032" y="384.042">qnt_drones</text><text fill="#000000" font-family="sans-serif" font-size="13" lengthAdjust="spacing" textLength="7.23" x="2071.6327" y="656.5761">1</text></g><!--link ShowProposal to Time--><g id="link_ShowProposal_Time"><path codeLine="100" d="M1246.09,100.8237 C1389.39,100.6837 1740.32,109.3737 1810,196.0137 C1868.68,268.9737 1804.4342,565.9155 1781.6142,662.1655 " fill="none" id="ShowProposal-to-Time" style="stroke:#181818;stroke-width:1.0;"/><polygon fill="#181818" points="1780.23,668.0037,1786.1984,660.1692,1781.3835,663.1385,1778.4142,658.3237,1780.23,668.0037" style="stroke:#181818;stroke-width:1.0;"/><text fill="#000000" font-family="sans-serif" font-size="13" lengthAdjust="spacing" textLength="24.5591" x="1831" y="384.042">time</text><text fill="#000000" font-family="sans-serif" font-size="13" lengthAdjust="spacing" textLength="7.23" x="1774.0651" y="656.5761">1</text></g><!--link ShowProposal to Date--><g id="link_ShowProposal_Date"><path codeLine="101" d="M1246.18,103.5237 C1383.76,108.7837 1713.47,125.6337 1815,169.0137 C2000.25,248.1637 1947.8747,562.7006 1926.2647,662.1006 " fill="none" id="ShowProposal-to-Date" style="stroke:#181818;stroke-width:1.0;"/><polygon fill="#181818" points="1924.99,667.9637,1930.8107,660.0189,1926.0522,663.0778,1922.9933,658.3193,1924.99,667.9637" style="stroke:#181818;stroke-width:1.0;"/><text fill="#000000" font-family="sans-serif" font-size="13" lengthAdjust="spacing" textLength="25.3018" x="1946" y="384.042">date</text><text fill="#000000" font-family="sans-serif" font-size="13" lengthAdjust="spacing" textLength="7.23" x="1918.7726" y="656.5273">1</text></g><!--SRC=[bLLDRwCm4BtpAqPSLggqbVPg8Iv9A_MGTjjKlLO3E9GjsDGVkwsg_FSr1b8R1N0vnDYyUVFXDvCMyrSiASIRXzs6rpLcNA3Y0c984YnBGKjKD4tXCuh0F7cDKi8Kd2HNJ5Ngm-2IH72kqlJJme_HCOfQnmVia9dtTVuH5qYzumMjxmvRmHbTvhR89LgFzxegjLXX7321aUvV-By7-gQfL5DQZzN51LAVpTuZxH7BT7welmLlkSHwXfOotO2BsojKMXhi4zQQmbtsX-PkSVq4J-nBzt7Uv94sRMr2-QwhMzraLbUhLZTCQe4i3t9nJMcHcS9TDLZLeJ5jE3jqua5LSURKu0pygIeed-Urwm-lf3zJUBV7_gavZd_5Vhm43kvstchI-0HoGSqT591zB1eDtKn0ZRUM3wcls3fTG213QU2SBSDz9H9elNsOxIYkhu33x7fnVVdiz_Es9uaHgCRNPK-UP0Z8wT6yjLKGWR_TukZ5rw0dciadotDvUH7tOuH0qIro7TuFI2Cokyh1UJ-BJWw7xH2idT84j3HmPyJjNx1JZ3VJ7gicg4EtWSFYNgDjm-7VP6MMXVNScDQKcy0RKy-JEfwnwt8qMZI_IwYjLMpHgVKO_GS0]--></g></svg>