<?xml version="1.0" encoding="UTF-8" standalone="no"?><svg xmlns="http://www.w3.org/2000/svg" xmlns:xlink="http://www.w3.org/1999/xlink" contentStyleType="text/css" height="1602px" preserveAspectRatio="none" style="width:3959px;height:1602px;background:#FFFFFF;" version="1.1" viewBox="0 0 3959 1602" width="3959px" zoomAndPan="magnify"><defs/><g><!--cluster Customer --><g id="cluster_Customer "><path d="M1958.5,997.2168 L2076.5,997.2168 A3.75,3.75 0 0 1 2079,999.7168 L2086,1026.498 L2837.5,1026.498 A2.5,2.5 0 0 1 2840,1028.998 L2840,1592.7168 A2.5,2.5 0 0 1 2837.5,1595.2168 L1958.5,1595.2168 A2.5,2.5 0 0 1 1956,1592.7168 L1956,999.7168 A2.5,2.5 0 0 1 1958.5,997.2168 " fill="none" style="stroke:#000000;stroke-width:1.5;"/><line style="stroke:#000000;stroke-width:1.5;" x1="1956" x2="2086" y1="1026.498" y2="1026.498"/><text fill="#000000" font-family="sans-serif" font-size="20" font-weight="bold" lengthAdjust="spacing" textLength="110" x="1960" y="1017.7813">Customer</text><text fill="#000000" font-family="sans-serif" font-size="20" font-style="italic" lengthAdjust="spacing" textLength="127" x="2338.5" y="1047.0625">«aggregate»</text></g><!--cluster Drone --><g id="cluster_Drone "><path d="M8.5,692.7168 L85.5,692.7168 A3.75,3.75 0 0 1 88,695.2168 L95,721.998 L1071.5,721.998 A2.5,2.5 0 0 1 1074,724.498 L1074,1592.7168 A2.5,2.5 0 0 1 1071.5,1595.2168 L8.5,1595.2168 A2.5,2.5 0 0 1 6,1592.7168 L6,695.2168 A2.5,2.5 0 0 1 8.5,692.7168 " fill="none" style="stroke:#000000;stroke-width:1.5;"/><line style="stroke:#000000;stroke-width:1.5;" x1="6" x2="95" y1="721.998" y2="721.998"/><text fill="#000000" font-family="sans-serif" font-size="20" font-weight="bold" lengthAdjust="spacing" textLength="69" x="10" y="713.2813">Drone</text><text fill="#000000" font-family="sans-serif" font-size="20" font-style="italic" lengthAdjust="spacing" textLength="127" x="480.5" y="742.5625">«aggregate»</text></g><!--cluster Figure --><g id="cluster_Figure "><path d="M1100.5,423.2168 L1181.5,423.2168 A3.75,3.75 0 0 1 1184,425.7168 L1191,452.498 L1929.5,452.498 A2.5,2.5 0 0 1 1932,454.998 L1932,1378.7168 A2.5,2.5 0 0 1 1929.5,1381.2168 L1100.5,1381.2168 A2.5,2.5 0 0 1 1098,1378.7168 L1098,425.7168 A2.5,2.5 0 0 1 1100.5,423.2168 " fill="none" style="stroke:#000000;stroke-width:1.5;"/><line style="stroke:#000000;stroke-width:1.5;" x1="1098" x2="1191" y1="452.498" y2="452.498"/><text fill="#000000" font-family="sans-serif" font-size="20" font-weight="bold" lengthAdjust="spacing" textLength="73" x="1102" y="443.7813">Figure</text><text fill="#000000" font-family="sans-serif" font-size="20" font-style="italic" lengthAdjust="spacing" textLength="127" x="1455.5" y="473.0625">«aggregate»</text></g><!--cluster Show --><g id="cluster_Show "><path d="M2475.5,7.2168 L2543.5,7.2168 A3.75,3.75 0 0 1 2546,9.7168 L2553,36.498 L3383.5,36.498 A2.5,2.5 0 0 1 3386,38.998 L3386,916.2168 A2.5,2.5 0 0 1 3383.5,918.7168 L2475.5,918.7168 A2.5,2.5 0 0 1 2473,916.2168 L2473,9.7168 A2.5,2.5 0 0 1 2475.5,7.2168 " fill="none" style="stroke:#000000;stroke-width:1.5;"/><line style="stroke:#000000;stroke-width:1.5;" x1="2473" x2="2553" y1="36.498" y2="36.498"/><text fill="#000000" font-family="sans-serif" font-size="20" font-weight="bold" lengthAdjust="spacing" textLength="60" x="2477" y="27.7813">Show</text><text fill="#000000" font-family="sans-serif" font-size="20" font-style="italic" lengthAdjust="spacing" textLength="127" x="2870" y="57.0625">«aggregate»</text></g><!--cluster Shared--><g id="cluster_Shared"><path d="M2866.5,1438.2168 L2947.5,1438.2168 A3.75,3.75 0 0 1 2950,1440.7168 L2957,1467.498 L3949.5,1467.498 A2.5,2.5 0 0 1 3952,1469.998 L3952,1592.7168 A2.5,2.5 0 0 1 3949.5,1595.2168 L2866.5,1595.2168 A2.5,2.5 0 0 1 2864,1592.7168 L2864,1440.7168 A2.5,2.5 0 0 1 2866.5,1438.2168 " fill="none" style="stroke:#000000;stroke-width:1.5;"/><line style="stroke:#000000;stroke-width:1.5;" x1="2864" x2="2957" y1="1467.498" y2="1467.498"/><text fill="#000000" font-family="sans-serif" font-size="20" font-weight="bold" lengthAdjust="spacing" textLength="80" x="2868" y="1458.7813">Shared</text></g><!--class Customer--><g id="elem_Customer"><rect codeLine="3" fill="#F1F1F1" height="95.8438" id="Customer" rx="2.5" ry="2.5" style="stroke:#181818;stroke-width:0.5;" width="131" x="2222.5" y="1111.2168"/><ellipse cx="2238.5" cy="1151.1387" fill="#ADD1B2" rx="12" ry="12" style="stroke:#181818;stroke-width:1.0;"/><path d="M2241.5625,1158.2168 Q2240.875,1158.5762 2240.125,1158.748 Q2239.375,1158.9199 2238.5469,1158.9199 Q2235.5938,1158.9199 2234.0313,1156.9824 Q2232.4844,1155.0293 2232.4844,1151.3574 Q2232.4844,1147.6855 2234.0313,1145.748 Q2235.5938,1143.7949 2238.5469,1143.7949 Q2239.375,1143.7949 2240.125,1143.9668 Q2240.8906,1144.1387 2241.5625,1144.498 L2241.5625,1147.7012 Q2240.8125,1147.0137 2240.1094,1146.7012 Q2239.4219,1146.3887 2238.6719,1146.3887 Q2237.0938,1146.3887 2236.2813,1147.6387 Q2235.4844,1148.8887 2235.4844,1151.3574 Q2235.4844,1153.8262 2236.2813,1155.0762 Q2237.0938,1156.3262 2238.6719,1156.3262 Q2239.4219,1156.3262 2240.1094,1156.0137 Q2240.8125,1155.7012 2241.5625,1155.0137 L2241.5625,1158.2168 Z " fill="#000000"/><text fill="#000000" font-family="sans-serif" font-size="20" font-style="italic" lengthAdjust="spacing" textLength="84" x="2260" y="1134.7813">«Entity»</text><text fill="#000000" font-family="sans-serif" font-size="20" font-style="italic" lengthAdjust="spacing" textLength="64" x="2270" y="1158.0625">«root»</text><text fill="#000000" font-family="sans-serif" font-size="20" lengthAdjust="spacing" textLength="97" x="2253.5" y="1181.3438">Customer</text><line style="stroke:#181818;stroke-width:0.5;" x1="2223.5" x2="2352.5" y1="1191.0605" y2="1191.0605"/><line style="stroke:#181818;stroke-width:0.5;" x1="2223.5" x2="2352.5" y1="1199.0605" y2="1199.0605"/></g><!--class Representative--><g id="elem_Representative"><rect codeLine="6" fill="#F1F1F1" height="72.5625" id="Representative" rx="2.5" ry="2.5" style="stroke:#181818;stroke-width:0.5;" width="185" x="2420.5" y="1292.2168"/><ellipse cx="2436.5" cy="1320.498" fill="#ADD1B2" rx="12" ry="12" style="stroke:#181818;stroke-width:1.0;"/><path d="M2439.5625,1327.5762 Q2438.875,1327.9355 2438.125,1328.1074 Q2437.375,1328.2793 2436.5469,1328.2793 Q2433.5938,1328.2793 2432.0313,1326.3418 Q2430.4844,1324.3887 2430.4844,1320.7168 Q2430.4844,1317.0449 2432.0313,1315.1074 Q2433.5938,1313.1543 2436.5469,1313.1543 Q2437.375,1313.1543 2438.125,1313.3262 Q2438.8906,1313.498 2439.5625,1313.8574 L2439.5625,1317.0605 Q2438.8125,1316.373 2438.1094,1316.0605 Q2437.4219,1315.748 2436.6719,1315.748 Q2435.0938,1315.748 2434.2813,1316.998 Q2433.4844,1318.248 2433.4844,1320.7168 Q2433.4844,1323.1855 2434.2813,1324.4355 Q2435.0938,1325.6855 2436.6719,1325.6855 Q2437.4219,1325.6855 2438.1094,1325.373 Q2438.8125,1325.0605 2439.5625,1324.373 L2439.5625,1327.5762 Z " fill="#000000"/><text fill="#000000" font-family="sans-serif" font-size="20" font-style="italic" lengthAdjust="spacing" textLength="84" x="2485" y="1315.7813">«Entity»</text><text fill="#000000" font-family="sans-serif" font-size="20" lengthAdjust="spacing" textLength="151" x="2451.5" y="1339.0625">Representative</text><line style="stroke:#181818;stroke-width:0.5;" x1="2421.5" x2="2604.5" y1="1348.7793" y2="1348.7793"/><line style="stroke:#181818;stroke-width:0.5;" x1="2421.5" x2="2604.5" y1="1356.7793" y2="1356.7793"/></g><!--class Address--><g id="elem_Address"><rect codeLine="9" fill="#F1F1F1" height="72.5625" id="Address" rx="2.5" ry="2.5" style="stroke:#181818;stroke-width:0.5;" width="183" x="2640.5" y="1292.2168"/><ellipse cx="2656.5" cy="1320.498" fill="#ADD1B2" rx="12" ry="12" style="stroke:#181818;stroke-width:1.0;"/><path d="M2659.5625,1327.5762 Q2658.875,1327.9355 2658.125,1328.1074 Q2657.375,1328.2793 2656.5469,1328.2793 Q2653.5938,1328.2793 2652.0313,1326.3418 Q2650.4844,1324.3887 2650.4844,1320.7168 Q2650.4844,1317.0449 2652.0313,1315.1074 Q2653.5938,1313.1543 2656.5469,1313.1543 Q2657.375,1313.1543 2658.125,1313.3262 Q2658.8906,1313.498 2659.5625,1313.8574 L2659.5625,1317.0605 Q2658.8125,1316.373 2658.1094,1316.0605 Q2657.4219,1315.748 2656.6719,1315.748 Q2655.0938,1315.748 2654.2813,1316.998 Q2653.4844,1318.248 2653.4844,1320.7168 Q2653.4844,1323.1855 2654.2813,1324.4355 Q2655.0938,1325.6855 2656.6719,1325.6855 Q2657.4219,1325.6855 2658.1094,1325.373 Q2658.8125,1325.0605 2659.5625,1324.373 L2659.5625,1327.5762 Z " fill="#000000"/><text fill="#000000" font-family="sans-serif" font-size="20" font-style="italic" lengthAdjust="spacing" textLength="153" x="2669.5" y="1315.7813">«Value Object»</text><text fill="#000000" font-family="sans-serif" font-size="20" lengthAdjust="spacing" textLength="80" x="2706" y="1339.0625">Address</text><line style="stroke:#181818;stroke-width:0.5;" x1="2641.5" x2="2822.5" y1="1348.7793" y2="1348.7793"/><line style="stroke:#181818;stroke-width:0.5;" x1="2641.5" x2="2822.5" y1="1356.7793" y2="1356.7793"/></g><!--class VatNumber--><g id="elem_VatNumber"><rect codeLine="12" fill="#F1F1F1" height="72.5625" id="VatNumber" rx="2.5" ry="2.5" style="stroke:#181818;stroke-width:0.5;" width="183" x="1972.5" y="1292.2168"/><ellipse cx="1988.5" cy="1320.498" fill="#ADD1B2" rx="12" ry="12" style="stroke:#181818;stroke-width:1.0;"/><path d="M1991.5625,1327.5762 Q1990.875,1327.9355 1990.125,1328.1074 Q1989.375,1328.2793 1988.5469,1328.2793 Q1985.5938,1328.2793 1984.0313,1326.3418 Q1982.4844,1324.3887 1982.4844,1320.7168 Q1982.4844,1317.0449 1984.0313,1315.1074 Q1985.5938,1313.1543 1988.5469,1313.1543 Q1989.375,1313.1543 1990.125,1313.3262 Q1990.8906,1313.498 1991.5625,1313.8574 L1991.5625,1317.0605 Q1990.8125,1316.373 1990.1094,1316.0605 Q1989.4219,1315.748 1988.6719,1315.748 Q1987.0938,1315.748 1986.2813,1316.998 Q1985.4844,1318.248 1985.4844,1320.7168 Q1985.4844,1323.1855 1986.2813,1324.4355 Q1987.0938,1325.6855 1988.6719,1325.6855 Q1989.4219,1325.6855 1990.1094,1325.373 Q1990.8125,1325.0605 1991.5625,1324.373 L1991.5625,1327.5762 Z " fill="#000000"/><text fill="#000000" font-family="sans-serif" font-size="20" font-style="italic" lengthAdjust="spacing" textLength="153" x="2001.5" y="1315.7813">«Value Object»</text><text fill="#000000" font-family="sans-serif" font-size="20" lengthAdjust="spacing" textLength="115" x="2020.5" y="1339.0625">VatNumber</text><line style="stroke:#181818;stroke-width:0.5;" x1="1973.5" x2="2154.5" y1="1348.7793" y2="1348.7793"/><line style="stroke:#181818;stroke-width:0.5;" x1="1973.5" x2="2154.5" y1="1356.7793" y2="1356.7793"/></g><!--class CustomerStatus--><g id="elem_CustomerStatus"><rect codeLine="15" fill="#F1F1F1" height="72.5625" id="CustomerStatus" rx="2.5" ry="2.5" style="stroke:#181818;stroke-width:0.5;" width="195" x="2190.5" y="1292.2168"/><ellipse cx="2206.5" cy="1320.498" fill="#EB937F" rx="12" ry="12" style="stroke:#181818;stroke-width:1.0;"/><path d="M2211.2188,1327.998 L2202.1406,1327.998 L2202.1406,1313.4199 L2211.2188,1313.4199 L2211.2188,1315.9512 L2205.0156,1315.9512 L2205.0156,1319.1074 L2210.6406,1319.1074 L2210.6406,1321.6387 L2205.0156,1321.6387 L2205.0156,1325.4512 L2211.2188,1325.4512 L2211.2188,1327.998 Z " fill="#000000"/><text fill="#000000" font-family="sans-serif" font-size="20" font-style="italic" lengthAdjust="spacing" textLength="153" x="2225.5" y="1315.7813">«Value Object»</text><text fill="#000000" font-family="sans-serif" font-size="20" lengthAdjust="spacing" textLength="161" x="2221.5" y="1339.0625">CustomerStatus</text><line style="stroke:#181818;stroke-width:0.5;" x1="2191.5" x2="2384.5" y1="1348.7793" y2="1348.7793"/><line style="stroke:#181818;stroke-width:0.5;" x1="2191.5" x2="2384.5" y1="1356.7793" y2="1356.7793"/></g><!--class Position--><g id="elem_Position"><rect codeLine="18" fill="#F1F1F1" height="72.5625" id="Position" rx="2.5" ry="2.5" style="stroke:#181818;stroke-width:0.5;" width="183" x="2421.5" y="1506.2168"/><ellipse cx="2437.5" cy="1534.498" fill="#ADD1B2" rx="12" ry="12" style="stroke:#181818;stroke-width:1.0;"/><path d="M2440.5625,1541.5762 Q2439.875,1541.9355 2439.125,1542.1074 Q2438.375,1542.2793 2437.5469,1542.2793 Q2434.5938,1542.2793 2433.0313,1540.3418 Q2431.4844,1538.3887 2431.4844,1534.7168 Q2431.4844,1531.0449 2433.0313,1529.1074 Q2434.5938,1527.1543 2437.5469,1527.1543 Q2438.375,1527.1543 2439.125,1527.3262 Q2439.8906,1527.498 2440.5625,1527.8574 L2440.5625,1531.0605 Q2439.8125,1530.373 2439.1094,1530.0605 Q2438.4219,1529.748 2437.6719,1529.748 Q2436.0938,1529.748 2435.2813,1530.998 Q2434.4844,1532.248 2434.4844,1534.7168 Q2434.4844,1537.1855 2435.2813,1538.4355 Q2436.0938,1539.6855 2437.6719,1539.6855 Q2438.4219,1539.6855 2439.1094,1539.373 Q2439.8125,1539.0605 2440.5625,1538.373 L2440.5625,1541.5762 Z " fill="#000000"/><text fill="#000000" font-family="sans-serif" font-size="20" font-style="italic" lengthAdjust="spacing" textLength="153" x="2450.5" y="1529.7813">«Value Object»</text><text fill="#000000" font-family="sans-serif" font-size="20" lengthAdjust="spacing" textLength="79" x="2487.5" y="1553.0625">Position</text><line style="stroke:#181818;stroke-width:0.5;" x1="2422.5" x2="2603.5" y1="1562.7793" y2="1562.7793"/><line style="stroke:#181818;stroke-width:0.5;" x1="2422.5" x2="2603.5" y1="1570.7793" y2="1570.7793"/></g><!--class Inventory--><g id="elem_Inventory"><rect codeLine="34" fill="#F1F1F1" height="72.5625" id="Inventory" rx="2.5" ry="2.5" style="stroke:#181818;stroke-width:0.5;" width="128" x="580" y="806.7168"/><ellipse cx="596" cy="834.998" fill="#ADD1B2" rx="12" ry="12" style="stroke:#181818;stroke-width:1.0;"/><path d="M599.0625,842.0762 Q598.375,842.4355 597.625,842.6074 Q596.875,842.7793 596.0469,842.7793 Q593.0938,842.7793 591.5313,840.8418 Q589.9844,838.8887 589.9844,835.2168 Q589.9844,831.5449 591.5313,829.6074 Q593.0938,827.6543 596.0469,827.6543 Q596.875,827.6543 597.625,827.8262 Q598.3906,827.998 599.0625,828.3574 L599.0625,831.5605 Q598.3125,830.873 597.6094,830.5605 Q596.9219,830.248 596.1719,830.248 Q594.5938,830.248 593.7813,831.498 Q592.9844,832.748 592.9844,835.2168 Q592.9844,837.6855 593.7813,838.9355 Q594.5938,840.1855 596.1719,840.1855 Q596.9219,840.1855 597.6094,839.873 Q598.3125,839.5605 599.0625,838.873 L599.0625,842.0762 Z " fill="#000000"/><text fill="#000000" font-family="sans-serif" font-size="20" font-style="italic" lengthAdjust="spacing" textLength="84" x="616" y="830.2813">«Entity»</text><text fill="#000000" font-family="sans-serif" font-size="20" lengthAdjust="spacing" textLength="94" x="611" y="853.5625">Inventory</text><line style="stroke:#181818;stroke-width:0.5;" x1="581" x2="707" y1="863.2793" y2="863.2793"/><line style="stroke:#181818;stroke-width:0.5;" x1="581" x2="707" y1="871.2793" y2="871.2793"/></g><!--class Drone--><g id="elem_Drone"><rect codeLine="37" fill="#F1F1F1" height="95.8438" id="Drone" rx="2.5" ry="2.5" style="stroke:#181818;stroke-width:0.5;" width="114" x="587" y="1111.2168"/><ellipse cx="603" cy="1151.1387" fill="#ADD1B2" rx="12" ry="12" style="stroke:#181818;stroke-width:1.0;"/><path d="M606.0625,1158.2168 Q605.375,1158.5762 604.625,1158.748 Q603.875,1158.9199 603.0469,1158.9199 Q600.0938,1158.9199 598.5313,1156.9824 Q596.9844,1155.0293 596.9844,1151.3574 Q596.9844,1147.6855 598.5313,1145.748 Q600.0938,1143.7949 603.0469,1143.7949 Q603.875,1143.7949 604.625,1143.9668 Q605.3906,1144.1387 606.0625,1144.498 L606.0625,1147.7012 Q605.3125,1147.0137 604.6094,1146.7012 Q603.9219,1146.3887 603.1719,1146.3887 Q601.5938,1146.3887 600.7813,1147.6387 Q599.9844,1148.8887 599.9844,1151.3574 Q599.9844,1153.8262 600.7813,1155.0762 Q601.5938,1156.3262 603.1719,1156.3262 Q603.9219,1156.3262 604.6094,1156.0137 Q605.3125,1155.7012 606.0625,1155.0137 L606.0625,1158.2168 Z " fill="#000000"/><text fill="#000000" font-family="sans-serif" font-size="20" font-style="italic" lengthAdjust="spacing" textLength="84" x="616" y="1134.7813">«Entity»</text><text fill="#000000" font-family="sans-serif" font-size="20" font-style="italic" lengthAdjust="spacing" textLength="64" x="626" y="1158.0625">«root»</text><text fill="#000000" font-family="sans-serif" font-size="20" lengthAdjust="spacing" textLength="60" x="628" y="1181.3438">Drone</text><line style="stroke:#181818;stroke-width:0.5;" x1="588" x2="700" y1="1191.0605" y2="1191.0605"/><line style="stroke:#181818;stroke-width:0.5;" x1="588" x2="700" y1="1199.0605" y2="1199.0605"/></g><!--class Maintenance--><g id="elem_Maintenance"><rect codeLine="40" fill="#F1F1F1" height="72.5625" id="Maintenance" rx="2.5" ry="2.5" style="stroke:#181818;stroke-width:0.5;" width="163" x="458.5" y="1292.2168"/><ellipse cx="474.5" cy="1320.498" fill="#ADD1B2" rx="12" ry="12" style="stroke:#181818;stroke-width:1.0;"/><path d="M477.5625,1327.5762 Q476.875,1327.9355 476.125,1328.1074 Q475.375,1328.2793 474.5469,1328.2793 Q471.5938,1328.2793 470.0313,1326.3418 Q468.4844,1324.3887 468.4844,1320.7168 Q468.4844,1317.0449 470.0313,1315.1074 Q471.5938,1313.1543 474.5469,1313.1543 Q475.375,1313.1543 476.125,1313.3262 Q476.8906,1313.498 477.5625,1313.8574 L477.5625,1317.0605 Q476.8125,1316.373 476.1094,1316.0605 Q475.4219,1315.748 474.6719,1315.748 Q473.0938,1315.748 472.2813,1316.998 Q471.4844,1318.248 471.4844,1320.7168 Q471.4844,1323.1855 472.2813,1324.4355 Q473.0938,1325.6855 474.6719,1325.6855 Q475.4219,1325.6855 476.1094,1325.373 Q476.8125,1325.0605 477.5625,1324.373 L477.5625,1327.5762 Z " fill="#000000"/><text fill="#000000" font-family="sans-serif" font-size="20" font-style="italic" lengthAdjust="spacing" textLength="84" x="512" y="1315.7813">«Entity»</text><text fill="#000000" font-family="sans-serif" font-size="20" lengthAdjust="spacing" textLength="129" x="489.5" y="1339.0625">Maintenance</text><line style="stroke:#181818;stroke-width:0.5;" x1="459.5" x2="620.5" y1="1348.7793" y2="1348.7793"/><line style="stroke:#181818;stroke-width:0.5;" x1="459.5" x2="620.5" y1="1356.7793" y2="1356.7793"/></g><!--class MaintenanceDescription--><g id="elem_MaintenanceDescription"><rect codeLine="43" fill="#F1F1F1" height="72.5625" id="MaintenanceDescription" rx="2.5" ry="2.5" style="stroke:#181818;stroke-width:0.5;" width="277" x="538.5" y="1506.2168"/><ellipse cx="554.5" cy="1534.498" fill="#ADD1B2" rx="12" ry="12" style="stroke:#181818;stroke-width:1.0;"/><path d="M557.5625,1541.5762 Q556.875,1541.9355 556.125,1542.1074 Q555.375,1542.2793 554.5469,1542.2793 Q551.5938,1542.2793 550.0313,1540.3418 Q548.4844,1538.3887 548.4844,1534.7168 Q548.4844,1531.0449 550.0313,1529.1074 Q551.5938,1527.1543 554.5469,1527.1543 Q555.375,1527.1543 556.125,1527.3262 Q556.8906,1527.498 557.5625,1527.8574 L557.5625,1531.0605 Q556.8125,1530.373 556.1094,1530.0605 Q555.4219,1529.748 554.6719,1529.748 Q553.0938,1529.748 552.2813,1530.998 Q551.4844,1532.248 551.4844,1534.7168 Q551.4844,1537.1855 552.2813,1538.4355 Q553.0938,1539.6855 554.6719,1539.6855 Q555.4219,1539.6855 556.1094,1539.373 Q556.8125,1539.0605 557.5625,1538.373 L557.5625,1541.5762 Z " fill="#000000"/><text fill="#000000" font-family="sans-serif" font-size="20" font-style="italic" lengthAdjust="spacing" textLength="153" x="614.5" y="1529.7813">«Value Object»</text><text fill="#000000" font-family="sans-serif" font-size="20" lengthAdjust="spacing" textLength="243" x="569.5" y="1553.0625">MaintenanceDescription</text><line style="stroke:#181818;stroke-width:0.5;" x1="539.5" x2="814.5" y1="1562.7793" y2="1562.7793"/><line style="stroke:#181818;stroke-width:0.5;" x1="539.5" x2="814.5" y1="1570.7793" y2="1570.7793"/></g><!--class MaintenanceType--><g id="elem_MaintenanceType"><rect codeLine="46" fill="#F1F1F1" height="72.5625" id="MaintenanceType" rx="2.5" ry="2.5" style="stroke:#181818;stroke-width:0.5;" width="211" x="292.5" y="1506.2168"/><ellipse cx="308.5" cy="1534.498" fill="#EB937F" rx="12" ry="12" style="stroke:#181818;stroke-width:1.0;"/><path d="M313.2188,1541.998 L304.1406,1541.998 L304.1406,1527.4199 L313.2188,1527.4199 L313.2188,1529.9512 L307.0156,1529.9512 L307.0156,1533.1074 L312.6406,1533.1074 L312.6406,1535.6387 L307.0156,1535.6387 L307.0156,1539.4512 L313.2188,1539.4512 L313.2188,1541.998 Z " fill="#000000"/><text fill="#000000" font-family="sans-serif" font-size="20" font-style="italic" lengthAdjust="spacing" textLength="153" x="335.5" y="1529.7813">«Value Object»</text><text fill="#000000" font-family="sans-serif" font-size="20" lengthAdjust="spacing" textLength="177" x="323.5" y="1553.0625">MaintenanceType</text><line style="stroke:#181818;stroke-width:0.5;" x1="293.5" x2="502.5" y1="1562.7793" y2="1562.7793"/><line style="stroke:#181818;stroke-width:0.5;" x1="293.5" x2="502.5" y1="1570.7793" y2="1570.7793"/></g><!--class Model--><g id="elem_Model"><rect codeLine="49" fill="#F1F1F1" height="72.5625" id="Model" rx="2.5" ry="2.5" style="stroke:#181818;stroke-width:0.5;" width="183" x="656.5" y="1292.2168"/><ellipse cx="672.5" cy="1320.498" fill="#ADD1B2" rx="12" ry="12" style="stroke:#181818;stroke-width:1.0;"/><path d="M675.5625,1327.5762 Q674.875,1327.9355 674.125,1328.1074 Q673.375,1328.2793 672.5469,1328.2793 Q669.5938,1328.2793 668.0313,1326.3418 Q666.4844,1324.3887 666.4844,1320.7168 Q666.4844,1317.0449 668.0313,1315.1074 Q669.5938,1313.1543 672.5469,1313.1543 Q673.375,1313.1543 674.125,1313.3262 Q674.8906,1313.498 675.5625,1313.8574 L675.5625,1317.0605 Q674.8125,1316.373 674.1094,1316.0605 Q673.4219,1315.748 672.6719,1315.748 Q671.0938,1315.748 670.2813,1316.998 Q669.4844,1318.248 669.4844,1320.7168 Q669.4844,1323.1855 670.2813,1324.4355 Q671.0938,1325.6855 672.6719,1325.6855 Q673.4219,1325.6855 674.1094,1325.373 Q674.8125,1325.0605 675.5625,1324.373 L675.5625,1327.5762 Z " fill="#000000"/><text fill="#000000" font-family="sans-serif" font-size="20" font-style="italic" lengthAdjust="spacing" textLength="153" x="685.5" y="1315.7813">«Value Object»</text><text fill="#000000" font-family="sans-serif" font-size="20" lengthAdjust="spacing" textLength="60" x="732" y="1339.0625">Model</text><line style="stroke:#181818;stroke-width:0.5;" x1="657.5" x2="838.5" y1="1348.7793" y2="1348.7793"/><line style="stroke:#181818;stroke-width:0.5;" x1="657.5" x2="838.5" y1="1356.7793" y2="1356.7793"/></g><!--class SerialNumber--><g id="elem_SerialNumber"><rect codeLine="52" fill="#F1F1F1" height="72.5625" id="SerialNumber" rx="2.5" ry="2.5" style="stroke:#181818;stroke-width:0.5;" width="183" x="874.5" y="1292.2168"/><ellipse cx="890.5" cy="1320.498" fill="#ADD1B2" rx="12" ry="12" style="stroke:#181818;stroke-width:1.0;"/><path d="M893.5625,1327.5762 Q892.875,1327.9355 892.125,1328.1074 Q891.375,1328.2793 890.5469,1328.2793 Q887.5938,1328.2793 886.0313,1326.3418 Q884.4844,1324.3887 884.4844,1320.7168 Q884.4844,1317.0449 886.0313,1315.1074 Q887.5938,1313.1543 890.5469,1313.1543 Q891.375,1313.1543 892.125,1313.3262 Q892.8906,1313.498 893.5625,1313.8574 L893.5625,1317.0605 Q892.8125,1316.373 892.1094,1316.0605 Q891.4219,1315.748 890.6719,1315.748 Q889.0938,1315.748 888.2813,1316.998 Q887.4844,1318.248 887.4844,1320.7168 Q887.4844,1323.1855 888.2813,1324.4355 Q889.0938,1325.6855 890.6719,1325.6855 Q891.4219,1325.6855 892.1094,1325.373 Q892.8125,1325.0605 893.5625,1324.373 L893.5625,1327.5762 Z " fill="#000000"/><text fill="#000000" font-family="sans-serif" font-size="20" font-style="italic" lengthAdjust="spacing" textLength="153" x="903.5" y="1315.7813">«Value Object»</text><text fill="#000000" font-family="sans-serif" font-size="20" lengthAdjust="spacing" textLength="138" x="911" y="1339.0625">SerialNumber</text><line style="stroke:#181818;stroke-width:0.5;" x1="875.5" x2="1056.5" y1="1348.7793" y2="1348.7793"/><line style="stroke:#181818;stroke-width:0.5;" x1="875.5" x2="1056.5" y1="1356.7793" y2="1356.7793"/></g><!--class DroneStatus--><g id="elem_DroneStatus"><rect codeLine="55" fill="#F1F1F1" height="72.5625" id="DroneStatus" rx="2.5" ry="2.5" style="stroke:#181818;stroke-width:0.5;" width="183" x="22.5" y="1292.2168"/><ellipse cx="38.5" cy="1320.498" fill="#EB937F" rx="12" ry="12" style="stroke:#181818;stroke-width:1.0;"/><path d="M43.2188,1327.998 L34.1406,1327.998 L34.1406,1313.4199 L43.2188,1313.4199 L43.2188,1315.9512 L37.0156,1315.9512 L37.0156,1319.1074 L42.6406,1319.1074 L42.6406,1321.6387 L37.0156,1321.6387 L37.0156,1325.4512 L43.2188,1325.4512 L43.2188,1327.998 Z " fill="#000000"/><text fill="#000000" font-family="sans-serif" font-size="20" font-style="italic" lengthAdjust="spacing" textLength="153" x="51.5" y="1315.7813">«Value Object»</text><text fill="#000000" font-family="sans-serif" font-size="20" lengthAdjust="spacing" textLength="124" x="66" y="1339.0625">DroneStatus</text><line style="stroke:#181818;stroke-width:0.5;" x1="23.5" x2="204.5" y1="1348.7793" y2="1348.7793"/><line style="stroke:#181818;stroke-width:0.5;" x1="23.5" x2="204.5" y1="1356.7793" y2="1356.7793"/></g><!--class Routine--><g id="elem_Routine"><rect codeLine="58" fill="#F1F1F1" height="72.5625" id="Routine" rx="2.5" ry="2.5" style="stroke:#181818;stroke-width:0.5;" width="183" x="240.5" y="1292.2168"/><ellipse cx="256.5" cy="1320.498" fill="#ADD1B2" rx="12" ry="12" style="stroke:#181818;stroke-width:1.0;"/><path d="M259.5625,1327.5762 Q258.875,1327.9355 258.125,1328.1074 Q257.375,1328.2793 256.5469,1328.2793 Q253.5938,1328.2793 252.0313,1326.3418 Q250.4844,1324.3887 250.4844,1320.7168 Q250.4844,1317.0449 252.0313,1315.1074 Q253.5938,1313.1543 256.5469,1313.1543 Q257.375,1313.1543 258.125,1313.3262 Q258.8906,1313.498 259.5625,1313.8574 L259.5625,1317.0605 Q258.8125,1316.373 258.1094,1316.0605 Q257.4219,1315.748 256.6719,1315.748 Q255.0938,1315.748 254.2813,1316.998 Q253.4844,1318.248 253.4844,1320.7168 Q253.4844,1323.1855 254.2813,1324.4355 Q255.0938,1325.6855 256.6719,1325.6855 Q257.4219,1325.6855 258.1094,1325.373 Q258.8125,1325.0605 259.5625,1324.373 L259.5625,1327.5762 Z " fill="#000000"/><text fill="#000000" font-family="sans-serif" font-size="20" font-style="italic" lengthAdjust="spacing" textLength="153" x="269.5" y="1315.7813">«Value Object»</text><text fill="#000000" font-family="sans-serif" font-size="20" lengthAdjust="spacing" textLength="78" x="307" y="1339.0625">Routine</text><line style="stroke:#181818;stroke-width:0.5;" x1="241.5" x2="422.5" y1="1348.7793" y2="1348.7793"/><line style="stroke:#181818;stroke-width:0.5;" x1="241.5" x2="422.5" y1="1356.7793" y2="1356.7793"/></g><!--class Figure--><g id="elem_Figure"><rect codeLine="78" fill="#F1F1F1" height="165.6875" id="Figure" rx="2.5" ry="2.5" style="stroke:#181818;stroke-width:0.5;" width="219" x="1438.5" y="760.2168"/><ellipse cx="1503.5" cy="800.1387" fill="#ADD1B2" rx="12" ry="12" style="stroke:#181818;stroke-width:1.0;"/><path d="M1506.5625,807.2168 Q1505.875,807.5762 1505.125,807.748 Q1504.375,807.9199 1503.5469,807.9199 Q1500.5938,807.9199 1499.0313,805.9824 Q1497.4844,804.0293 1497.4844,800.3574 Q1497.4844,796.6855 1499.0313,794.748 Q1500.5938,792.7949 1503.5469,792.7949 Q1504.375,792.7949 1505.125,792.9668 Q1505.8906,793.1387 1506.5625,793.498 L1506.5625,796.7012 Q1505.8125,796.0137 1505.1094,795.7012 Q1504.4219,795.3887 1503.6719,795.3887 Q1502.0938,795.3887 1501.2813,796.6387 Q1500.4844,797.8887 1500.4844,800.3574 Q1500.4844,802.8262 1501.2813,804.0762 Q1502.0938,805.3262 1503.6719,805.3262 Q1504.4219,805.3262 1505.1094,805.0137 Q1505.8125,804.7012 1506.5625,804.0137 L1506.5625,807.2168 Z " fill="#000000"/><text fill="#000000" font-family="sans-serif" font-size="20" font-style="italic" lengthAdjust="spacing" textLength="84" x="1523.5" y="783.7813">«Entity»</text><text fill="#000000" font-family="sans-serif" font-size="20" font-style="italic" lengthAdjust="spacing" textLength="64" x="1533.5" y="807.0625">«root»</text><text fill="#000000" font-family="sans-serif" font-size="20" lengthAdjust="spacing" textLength="64" x="1533.5" y="830.3438">Figure</text><line style="stroke:#181818;stroke-width:0.5;" x1="1439.5" x2="1656.5" y1="840.0605" y2="840.0605"/><ellipse cx="1449.5" cy="857.2012" fill="none" rx="3" ry="3" style="stroke:#038048;stroke-width:1.0;"/><text fill="#000000" font-family="sans-serif" font-size="20" lengthAdjust="spacing" textLength="133" x="1459.5" y="862.625">code: Integer</text><ellipse cx="1449.5" cy="880.4824" fill="none" rx="3" ry="3" style="stroke:#038048;stroke-width:1.0;"/><text fill="#000000" font-family="sans-serif" font-size="20" lengthAdjust="spacing" textLength="156" x="1459.5" y="885.9063">version: Double</text><ellipse cx="1449.5" cy="903.7637" fill="none" rx="3" ry="3" style="stroke:#038048;stroke-width:1.0;"/><text fill="#000000" font-family="sans-serif" font-size="20" lengthAdjust="spacing" textLength="192" x="1459.5" y="909.1875">description : String</text><line style="stroke:#181818;stroke-width:0.5;" x1="1439.5" x2="1656.5" y1="917.9043" y2="917.9043"/></g><!--class DSLDescription--><g id="elem_DSLDescription"><rect codeLine="84" fill="#F1F1F1" height="72.5625" id="DSLDescription" rx="2.5" ry="2.5" style="stroke:#181818;stroke-width:0.5;" width="187" x="1510.5" y="1122.7168"/><ellipse cx="1526.5" cy="1150.998" fill="#ADD1B2" rx="12" ry="12" style="stroke:#181818;stroke-width:1.0;"/><path d="M1529.5625,1158.0762 Q1528.875,1158.4355 1528.125,1158.6074 Q1527.375,1158.7793 1526.5469,1158.7793 Q1523.5938,1158.7793 1522.0313,1156.8418 Q1520.4844,1154.8887 1520.4844,1151.2168 Q1520.4844,1147.5449 1522.0313,1145.6074 Q1523.5938,1143.6543 1526.5469,1143.6543 Q1527.375,1143.6543 1528.125,1143.8262 Q1528.8906,1143.998 1529.5625,1144.3574 L1529.5625,1147.5605 Q1528.8125,1146.873 1528.1094,1146.5605 Q1527.4219,1146.248 1526.6719,1146.248 Q1525.0938,1146.248 1524.2813,1147.498 Q1523.4844,1148.748 1523.4844,1151.2168 Q1523.4844,1153.6855 1524.2813,1154.9355 Q1525.0938,1156.1855 1526.6719,1156.1855 Q1527.4219,1156.1855 1528.1094,1155.873 Q1528.8125,1155.5605 1529.5625,1154.873 L1529.5625,1158.0762 Z " fill="#000000"/><text fill="#000000" font-family="sans-serif" font-size="20" font-style="italic" lengthAdjust="spacing" textLength="153" x="1541.5" y="1146.2813">«Value Object»</text><text fill="#000000" font-family="sans-serif" font-size="20" lengthAdjust="spacing" textLength="153" x="1541.5" y="1169.5625">DSLDescription</text><line style="stroke:#181818;stroke-width:0.5;" x1="1511.5" x2="1696.5" y1="1179.2793" y2="1179.2793"/><line style="stroke:#181818;stroke-width:0.5;" x1="1511.5" x2="1696.5" y1="1187.2793" y2="1187.2793"/></g><!--class Category--><g id="elem_Category"><rect codeLine="87" fill="#F1F1F1" height="72.5625" id="Category" rx="2.5" ry="2.5" style="stroke:#181818;stroke-width:0.5;" width="183" x="1732.5" y="1122.7168"/><ellipse cx="1748.5" cy="1150.998" fill="#EB937F" rx="12" ry="12" style="stroke:#181818;stroke-width:1.0;"/><path d="M1753.2188,1158.498 L1744.1406,1158.498 L1744.1406,1143.9199 L1753.2188,1143.9199 L1753.2188,1146.4512 L1747.0156,1146.4512 L1747.0156,1149.6074 L1752.6406,1149.6074 L1752.6406,1152.1387 L1747.0156,1152.1387 L1747.0156,1155.9512 L1753.2188,1155.9512 L1753.2188,1158.498 Z " fill="#000000"/><text fill="#000000" font-family="sans-serif" font-size="20" font-style="italic" lengthAdjust="spacing" textLength="153" x="1761.5" y="1146.2813">«Value Object»</text><text fill="#000000" font-family="sans-serif" font-size="20" lengthAdjust="spacing" textLength="90" x="1793" y="1169.5625">Category</text><line style="stroke:#181818;stroke-width:0.5;" x1="1733.5" x2="1914.5" y1="1179.2793" y2="1179.2793"/><line style="stroke:#181818;stroke-width:0.5;" x1="1733.5" x2="1914.5" y1="1187.2793" y2="1187.2793"/></g><!--class SetOfKeywords--><g id="elem_SetOfKeywords"><rect codeLine="90" fill="#F1F1F1" height="72.5625" id="SetOfKeywords" rx="2.5" ry="2.5" style="stroke:#181818;stroke-width:0.5;" width="186" x="1114" y="1122.7168"/><ellipse cx="1130" cy="1150.998" fill="#ADD1B2" rx="12" ry="12" style="stroke:#181818;stroke-width:1.0;"/><path d="M1133.0625,1158.0762 Q1132.375,1158.4355 1131.625,1158.6074 Q1130.875,1158.7793 1130.0469,1158.7793 Q1127.0938,1158.7793 1125.5313,1156.8418 Q1123.9844,1154.8887 1123.9844,1151.2168 Q1123.9844,1147.5449 1125.5313,1145.6074 Q1127.0938,1143.6543 1130.0469,1143.6543 Q1130.875,1143.6543 1131.625,1143.8262 Q1132.3906,1143.998 1133.0625,1144.3574 L1133.0625,1147.5605 Q1132.3125,1146.873 1131.6094,1146.5605 Q1130.9219,1146.248 1130.1719,1146.248 Q1128.5938,1146.248 1127.7813,1147.498 Q1126.9844,1148.748 1126.9844,1151.2168 Q1126.9844,1153.6855 1127.7813,1154.9355 Q1128.5938,1156.1855 1130.1719,1156.1855 Q1130.9219,1156.1855 1131.6094,1155.873 Q1132.3125,1155.5605 1133.0625,1154.873 L1133.0625,1158.0762 Z " fill="#000000"/><text fill="#000000" font-family="sans-serif" font-size="20" font-style="italic" lengthAdjust="spacing" textLength="153" x="1144.5" y="1146.2813">«Value Object»</text><text fill="#000000" font-family="sans-serif" font-size="20" lengthAdjust="spacing" textLength="152" x="1145" y="1169.5625">SetOfKeywords</text><line style="stroke:#181818;stroke-width:0.5;" x1="1115" x2="1299" y1="1179.2793" y2="1179.2793"/><line style="stroke:#181818;stroke-width:0.5;" x1="1115" x2="1299" y1="1187.2793" y2="1187.2793"/></g><!--class Exclusivity--><g id="elem_Exclusivity"><rect codeLine="93" fill="#F1F1F1" height="72.5625" id="Exclusivity" rx="2.5" ry="2.5" style="stroke:#181818;stroke-width:0.5;" width="140" x="1335" y="1122.7168"/><ellipse cx="1351" cy="1150.998" fill="#ADD1B2" rx="12" ry="12" style="stroke:#181818;stroke-width:1.0;"/><path d="M1354.0625,1158.0762 Q1353.375,1158.4355 1352.625,1158.6074 Q1351.875,1158.7793 1351.0469,1158.7793 Q1348.0938,1158.7793 1346.5313,1156.8418 Q1344.9844,1154.8887 1344.9844,1151.2168 Q1344.9844,1147.5449 1346.5313,1145.6074 Q1348.0938,1143.6543 1351.0469,1143.6543 Q1351.875,1143.6543 1352.625,1143.8262 Q1353.3906,1143.998 1354.0625,1144.3574 L1354.0625,1147.5605 Q1353.3125,1146.873 1352.6094,1146.5605 Q1351.9219,1146.248 1351.1719,1146.248 Q1349.5938,1146.248 1348.7813,1147.498 Q1347.9844,1148.748 1347.9844,1151.2168 Q1347.9844,1153.6855 1348.7813,1154.9355 Q1349.5938,1156.1855 1351.1719,1156.1855 Q1351.9219,1156.1855 1352.6094,1155.873 Q1353.3125,1155.5605 1354.0625,1154.873 L1354.0625,1158.0762 Z " fill="#000000"/><text fill="#000000" font-family="sans-serif" font-size="20" font-style="italic" lengthAdjust="spacing" textLength="84" x="1377" y="1146.2813">«Entity»</text><text fill="#000000" font-family="sans-serif" font-size="20" lengthAdjust="spacing" textLength="106" x="1366" y="1169.5625">Exclusivity</text><line style="stroke:#181818;stroke-width:0.5;" x1="1336" x2="1474" y1="1179.2793" y2="1179.2793"/><line style="stroke:#181818;stroke-width:0.5;" x1="1336" x2="1474" y1="1187.2793" y2="1187.2793"/></g><!--class Catalogue--><g id="elem_Catalogue"><rect codeLine="96" fill="#F1F1F1" height="72.5625" id="Catalogue" rx="2.5" ry="2.5" style="stroke:#181818;stroke-width:0.5;" width="136" x="1480" y="537.2168"/><ellipse cx="1496" cy="565.498" fill="#ADD1B2" rx="12" ry="12" style="stroke:#181818;stroke-width:1.0;"/><path d="M1499.0625,572.5762 Q1498.375,572.9355 1497.625,573.1074 Q1496.875,573.2793 1496.0469,573.2793 Q1493.0938,573.2793 1491.5313,571.3418 Q1489.9844,569.3887 1489.9844,565.7168 Q1489.9844,562.0449 1491.5313,560.1074 Q1493.0938,558.1543 1496.0469,558.1543 Q1496.875,558.1543 1497.625,558.3262 Q1498.3906,558.498 1499.0625,558.8574 L1499.0625,562.0605 Q1498.3125,561.373 1497.6094,561.0605 Q1496.9219,560.748 1496.1719,560.748 Q1494.5938,560.748 1493.7813,561.998 Q1492.9844,563.248 1492.9844,565.7168 Q1492.9844,568.1855 1493.7813,569.4355 Q1494.5938,570.6855 1496.1719,570.6855 Q1496.9219,570.6855 1497.6094,570.373 Q1498.3125,570.0605 1499.0625,569.373 L1499.0625,572.5762 Z " fill="#000000"/><text fill="#000000" font-family="sans-serif" font-size="20" font-style="italic" lengthAdjust="spacing" textLength="84" x="1520" y="560.7813">«Entity»</text><text fill="#000000" font-family="sans-serif" font-size="20" lengthAdjust="spacing" textLength="102" x="1511" y="584.0625">Catalogue</text><line style="stroke:#181818;stroke-width:0.5;" x1="1481" x2="1615" y1="593.7793" y2="593.7793"/><line style="stroke:#181818;stroke-width:0.5;" x1="1481" x2="1615" y1="601.7793" y2="601.7793"/></g><!--class DSLValidate--><g id="elem_DSLValidate"><rect codeLine="99" fill="#F1F1F1" height="72.5625" id="DSLValidate" rx="2.5" ry="2.5" style="stroke:#181818;stroke-width:0.5;" width="156" x="1527" y="1292.2168"/><ellipse cx="1543" cy="1320.498" fill="#ADD1B2" rx="12" ry="12" style="stroke:#181818;stroke-width:1.0;"/><path d="M1546.0625,1327.5762 Q1545.375,1327.9355 1544.625,1328.1074 Q1543.875,1328.2793 1543.0469,1328.2793 Q1540.0938,1328.2793 1538.5313,1326.3418 Q1536.9844,1324.3887 1536.9844,1320.7168 Q1536.9844,1317.0449 1538.5313,1315.1074 Q1540.0938,1313.1543 1543.0469,1313.1543 Q1543.875,1313.1543 1544.625,1313.3262 Q1545.3906,1313.498 1546.0625,1313.8574 L1546.0625,1317.0605 Q1545.3125,1316.373 1544.6094,1316.0605 Q1543.9219,1315.748 1543.1719,1315.748 Q1541.5938,1315.748 1540.7813,1316.998 Q1539.9844,1318.248 1539.9844,1320.7168 Q1539.9844,1323.1855 1540.7813,1324.4355 Q1541.5938,1325.6855 1543.1719,1325.6855 Q1543.9219,1325.6855 1544.6094,1325.373 Q1545.3125,1325.0605 1546.0625,1324.373 L1546.0625,1327.5762 Z " fill="#000000"/><text fill="#000000" font-family="sans-serif" font-size="20" font-style="italic" lengthAdjust="spacing" textLength="98" x="1570" y="1315.7813">«Service»</text><text fill="#000000" font-family="sans-serif" font-size="20" lengthAdjust="spacing" textLength="122" x="1558" y="1339.0625">DSLValidate</text><line style="stroke:#181818;stroke-width:0.5;" x1="1528" x2="1682" y1="1348.7793" y2="1348.7793"/><line style="stroke:#181818;stroke-width:0.5;" x1="1528" x2="1682" y1="1356.7793" y2="1356.7793"/></g><!--class Description--><g id="elem_Description"><rect codeLine="122" fill="#F1F1F1" height="72.5625" id="Description" rx="2.5" ry="2.5" style="stroke:#181818;stroke-width:0.5;" width="183" x="2944.5" y="806.7168"/><ellipse cx="2960.5" cy="834.998" fill="#ADD1B2" rx="12" ry="12" style="stroke:#181818;stroke-width:1.0;"/><path d="M2963.5625,842.0762 Q2962.875,842.4355 2962.125,842.6074 Q2961.375,842.7793 2960.5469,842.7793 Q2957.5938,842.7793 2956.0313,840.8418 Q2954.4844,838.8887 2954.4844,835.2168 Q2954.4844,831.5449 2956.0313,829.6074 Q2957.5938,827.6543 2960.5469,827.6543 Q2961.375,827.6543 2962.125,827.8262 Q2962.8906,827.998 2963.5625,828.3574 L2963.5625,831.5605 Q2962.8125,830.873 2962.1094,830.5605 Q2961.4219,830.248 2960.6719,830.248 Q2959.0938,830.248 2958.2813,831.498 Q2957.4844,832.748 2957.4844,835.2168 Q2957.4844,837.6855 2958.2813,838.9355 Q2959.0938,840.1855 2960.6719,840.1855 Q2961.4219,840.1855 2962.1094,839.873 Q2962.8125,839.5605 2963.5625,838.873 L2963.5625,842.0762 Z " fill="#000000"/><text fill="#000000" font-family="sans-serif" font-size="20" font-style="italic" lengthAdjust="spacing" textLength="153" x="2973.5" y="830.2813">«Value Object»</text><text fill="#000000" font-family="sans-serif" font-size="20" lengthAdjust="spacing" textLength="114" x="2993" y="853.5625">Description</text><line style="stroke:#181818;stroke-width:0.5;" x1="2945.5" x2="3126.5" y1="863.2793" y2="863.2793"/><line style="stroke:#181818;stroke-width:0.5;" x1="2945.5" x2="3126.5" y1="871.2793" y2="871.2793"/></g><!--class ShowStatus--><g id="elem_ShowStatus"><rect codeLine="125" fill="#F1F1F1" height="72.5625" id="ShowStatus" rx="2.5" ry="2.5" style="stroke:#181818;stroke-width:0.5;" width="183" x="2560.5" y="279.2168"/><ellipse cx="2576.5" cy="307.498" fill="#EB937F" rx="12" ry="12" style="stroke:#181818;stroke-width:1.0;"/><path d="M2581.2188,314.998 L2572.1406,314.998 L2572.1406,300.4199 L2581.2188,300.4199 L2581.2188,302.9512 L2575.0156,302.9512 L2575.0156,306.1074 L2580.6406,306.1074 L2580.6406,308.6387 L2575.0156,308.6387 L2575.0156,312.4512 L2581.2188,312.4512 L2581.2188,314.998 Z " fill="#000000"/><text fill="#000000" font-family="sans-serif" font-size="20" font-style="italic" lengthAdjust="spacing" textLength="153" x="2589.5" y="302.7813">«Value Object»</text><text fill="#000000" font-family="sans-serif" font-size="20" lengthAdjust="spacing" textLength="119" x="2606.5" y="326.0625">ShowStatus</text><line style="stroke:#181818;stroke-width:0.5;" x1="2561.5" x2="2742.5" y1="335.7793" y2="335.7793"/><line style="stroke:#181818;stroke-width:0.5;" x1="2561.5" x2="2742.5" y1="343.7793" y2="343.7793"/></g><!--class Location--><g id="elem_Location"><rect codeLine="128" fill="#F1F1F1" height="119.125" id="Location" rx="2.5" ry="2.5" style="stroke:#181818;stroke-width:0.5;" width="207" x="3162.5" y="783.7168"/><ellipse cx="3189.3" cy="811.998" fill="#ADD1B2" rx="12" ry="12" style="stroke:#181818;stroke-width:1.0;"/><path d="M3192.3625,819.0762 Q3191.675,819.4355 3190.925,819.6074 Q3190.175,819.7793 3189.3469,819.7793 Q3186.3938,819.7793 3184.8313,817.8418 Q3183.2844,815.8887 3183.2844,812.2168 Q3183.2844,808.5449 3184.8313,806.6074 Q3186.3938,804.6543 3189.3469,804.6543 Q3190.175,804.6543 3190.925,804.8262 Q3191.6906,804.998 3192.3625,805.3574 L3192.3625,808.5605 Q3191.6125,807.873 3190.9094,807.5605 Q3190.2219,807.248 3189.4719,807.248 Q3187.8938,807.248 3187.0813,808.498 Q3186.2844,809.748 3186.2844,812.2168 Q3186.2844,814.6855 3187.0813,815.9355 Q3187.8938,817.1855 3189.4719,817.1855 Q3190.2219,817.1855 3190.9094,816.873 Q3191.6125,816.5605 3192.3625,815.873 L3192.3625,819.0762 Z " fill="#000000"/><text fill="#000000" font-family="sans-serif" font-size="20" font-style="italic" lengthAdjust="spacing" textLength="153" x="3204.7" y="807.2813">«Value Object»</text><text fill="#000000" font-family="sans-serif" font-size="20" lengthAdjust="spacing" textLength="85" x="3238.7" y="830.5625">Location</text><line style="stroke:#181818;stroke-width:0.5;" x1="3163.5" x2="3368.5" y1="840.2793" y2="840.2793"/><ellipse cx="3173.5" cy="857.4199" fill="none" rx="3" ry="3" style="stroke:#038048;stroke-width:1.0;"/><text fill="#000000" font-family="sans-serif" font-size="20" lengthAdjust="spacing" textLength="162" x="3183.5" y="862.8438">latitude: Double</text><ellipse cx="3173.5" cy="880.7012" fill="none" rx="3" ry="3" style="stroke:#038048;stroke-width:1.0;"/><text fill="#000000" font-family="sans-serif" font-size="20" lengthAdjust="spacing" textLength="180" x="3183.5" y="886.125">longitude: Double</text><line style="stroke:#181818;stroke-width:0.5;" x1="3163.5" x2="3368.5" y1="894.8418" y2="894.8418"/></g><!--class Status--><g id="elem_Status"><rect codeLine="133" fill="#F1F1F1" height="72.5625" id="Status" rx="2.5" ry="2.5" style="stroke:#181818;stroke-width:0.5;" width="183" x="2726.5" y="806.7168"/><ellipse cx="2742.5" cy="834.998" fill="#EB937F" rx="12" ry="12" style="stroke:#181818;stroke-width:1.0;"/><path d="M2747.2188,842.498 L2738.1406,842.498 L2738.1406,827.9199 L2747.2188,827.9199 L2747.2188,830.4512 L2741.0156,830.4512 L2741.0156,833.6074 L2746.6406,833.6074 L2746.6406,836.1387 L2741.0156,836.1387 L2741.0156,839.9512 L2747.2188,839.9512 L2747.2188,842.498 Z " fill="#000000"/><text fill="#000000" font-family="sans-serif" font-size="20" font-style="italic" lengthAdjust="spacing" textLength="153" x="2755.5" y="830.2813">«Value Object»</text><text fill="#000000" font-family="sans-serif" font-size="20" lengthAdjust="spacing" textLength="64" x="2800" y="853.5625">Status</text><line style="stroke:#181818;stroke-width:0.5;" x1="2727.5" x2="2908.5" y1="863.2793" y2="863.2793"/><line style="stroke:#181818;stroke-width:0.5;" x1="2727.5" x2="2908.5" y1="871.2793" y2="871.2793"/></g><!--class ShowDescription--><g id="elem_ShowDescription"><rect codeLine="136" fill="#F1F1F1" height="72.5625" id="ShowDescription" rx="2.5" ry="2.5" style="stroke:#181818;stroke-width:0.5;" width="203" x="2778.5" y="279.2168"/><ellipse cx="2794.5" cy="307.498" fill="#ADD1B2" rx="12" ry="12" style="stroke:#181818;stroke-width:1.0;"/><path d="M2797.5625,314.5762 Q2796.875,314.9355 2796.125,315.1074 Q2795.375,315.2793 2794.5469,315.2793 Q2791.5938,315.2793 2790.0313,313.3418 Q2788.4844,311.3887 2788.4844,307.7168 Q2788.4844,304.0449 2790.0313,302.1074 Q2791.5938,300.1543 2794.5469,300.1543 Q2795.375,300.1543 2796.125,300.3262 Q2796.8906,300.498 2797.5625,300.8574 L2797.5625,304.0605 Q2796.8125,303.373 2796.1094,303.0605 Q2795.4219,302.748 2794.6719,302.748 Q2793.0938,302.748 2792.2813,303.998 Q2791.4844,305.248 2791.4844,307.7168 Q2791.4844,310.1855 2792.2813,311.4355 Q2793.0938,312.6855 2794.6719,312.6855 Q2795.4219,312.6855 2796.1094,312.373 Q2796.8125,312.0605 2797.5625,311.373 L2797.5625,314.5762 Z " fill="#000000"/><text fill="#000000" font-family="sans-serif" font-size="20" font-style="italic" lengthAdjust="spacing" textLength="153" x="2817.5" y="302.7813">«Value Object»</text><text fill="#000000" font-family="sans-serif" font-size="20" lengthAdjust="spacing" textLength="169" x="2809.5" y="326.0625">ShowDescription</text><line style="stroke:#181818;stroke-width:0.5;" x1="2779.5" x2="2980.5" y1="335.7793" y2="335.7793"/><line style="stroke:#181818;stroke-width:0.5;" x1="2779.5" x2="2980.5" y1="343.7793" y2="343.7793"/></g><!--class CRMCollaborator--><g id="elem_CRMCollaborator"><rect codeLine="139" fill="#F1F1F1" height="95.8438" id="CRMCollaborator" rx="2.5" ry="2.5" style="stroke:#181818;stroke-width:0.5;" width="202" x="2489" y="795.2168"/><ellipse cx="2505" cy="823.498" fill="#ADD1B2" rx="12" ry="12" style="stroke:#181818;stroke-width:1.0;"/><path d="M2508.0625,830.5762 Q2507.375,830.9355 2506.625,831.1074 Q2505.875,831.2793 2505.0469,831.2793 Q2502.0938,831.2793 2500.5313,829.3418 Q2498.9844,827.3887 2498.9844,823.7168 Q2498.9844,820.0449 2500.5313,818.1074 Q2502.0938,816.1543 2505.0469,816.1543 Q2505.875,816.1543 2506.625,816.3262 Q2507.3906,816.498 2508.0625,816.8574 L2508.0625,820.0605 Q2507.3125,819.373 2506.6094,819.0605 Q2505.9219,818.748 2505.1719,818.748 Q2503.5938,818.748 2502.7813,819.998 Q2501.9844,821.248 2501.9844,823.7168 Q2501.9844,826.1855 2502.7813,827.4355 Q2503.5938,828.6855 2505.1719,828.6855 Q2505.9219,828.6855 2506.6094,828.373 Q2507.3125,828.0605 2508.0625,827.373 L2508.0625,830.5762 Z " fill="#000000"/><text fill="#000000" font-family="sans-serif" font-size="20" font-style="italic" lengthAdjust="spacing" textLength="84" x="2562" y="818.7813">«Entity»</text><text fill="#000000" font-family="sans-serif" font-size="20" lengthAdjust="spacing" textLength="168" x="2520" y="842.0625">CRMCollaborator</text><line style="stroke:#181818;stroke-width:0.5;" x1="2490" x2="2690" y1="851.7793" y2="851.7793"/><ellipse cx="2500" cy="868.9199" fill="none" rx="3" ry="3" style="stroke:#038048;stroke-width:1.0;"/><text fill="#000000" font-family="sans-serif" font-size="20" lengthAdjust="spacing" textLength="104" x="2510" y="874.3438">id: Integer</text><line style="stroke:#181818;stroke-width:0.5;" x1="2490" x2="2690" y1="883.0605" y2="883.0605"/></g><!--class Show--><g id="elem_Show"><rect codeLine="143" fill="#F1F1F1" height="72.5625" id="Show" rx="2.5" ry="2.5" style="stroke:#181818;stroke-width:0.5;" width="114" x="2823" y="121.2168"/><ellipse cx="2839" cy="149.498" fill="#ADD1B2" rx="12" ry="12" style="stroke:#181818;stroke-width:1.0;"/><path d="M2842.0625,156.5762 Q2841.375,156.9355 2840.625,157.1074 Q2839.875,157.2793 2839.0469,157.2793 Q2836.0938,157.2793 2834.5313,155.3418 Q2832.9844,153.3887 2832.9844,149.7168 Q2832.9844,146.0449 2834.5313,144.1074 Q2836.0938,142.1543 2839.0469,142.1543 Q2839.875,142.1543 2840.625,142.3262 Q2841.3906,142.498 2842.0625,142.8574 L2842.0625,146.0605 Q2841.3125,145.373 2840.6094,145.0605 Q2839.9219,144.748 2839.1719,144.748 Q2837.5938,144.748 2836.7813,145.998 Q2835.9844,147.248 2835.9844,149.7168 Q2835.9844,152.1855 2836.7813,153.4355 Q2837.5938,154.6855 2839.1719,154.6855 Q2839.9219,154.6855 2840.6094,154.373 Q2841.3125,154.0605 2842.0625,153.373 L2842.0625,156.5762 Z " fill="#000000"/><text fill="#000000" font-family="sans-serif" font-size="20" font-style="italic" lengthAdjust="spacing" textLength="84" x="2852" y="144.7813">«Entity»</text><text fill="#000000" font-family="sans-serif" font-size="20" lengthAdjust="spacing" textLength="55" x="2866.5" y="168.0625">Show</text><line style="stroke:#181818;stroke-width:0.5;" x1="2824" x2="2936" y1="177.7793" y2="177.7793"/><line style="stroke:#181818;stroke-width:0.5;" x1="2824" x2="2936" y1="185.7793" y2="185.7793"/></g><!--class ShowRequest--><g id="elem_ShowRequest"><rect codeLine="146" fill="#F1F1F1" height="95.8438" id="ShowRequest" rx="2.5" ry="2.5" style="stroke:#181818;stroke-width:0.5;" width="224" x="2968" y="525.7168"/><ellipse cx="3007.85" cy="553.998" fill="#ADD1B2" rx="12" ry="12" style="stroke:#181818;stroke-width:1.0;"/><path d="M3010.9125,561.0762 Q3010.225,561.4355 3009.475,561.6074 Q3008.725,561.7793 3007.8969,561.7793 Q3004.9438,561.7793 3003.3813,559.8418 Q3001.8344,557.8887 3001.8344,554.2168 Q3001.8344,550.5449 3003.3813,548.6074 Q3004.9438,546.6543 3007.8969,546.6543 Q3008.725,546.6543 3009.475,546.8262 Q3010.2406,546.998 3010.9125,547.3574 L3010.9125,550.5605 Q3010.1625,549.873 3009.4594,549.5605 Q3008.7719,549.248 3008.0219,549.248 Q3006.4438,549.248 3005.6313,550.498 Q3004.8344,551.748 3004.8344,554.2168 Q3004.8344,556.6855 3005.6313,557.9355 Q3006.4438,559.1855 3008.0219,559.1855 Q3008.7719,559.1855 3009.4594,558.873 Q3010.1625,558.5605 3010.9125,557.873 L3010.9125,561.0762 Z " fill="#000000"/><text fill="#000000" font-family="sans-serif" font-size="20" font-style="italic" lengthAdjust="spacing" textLength="84" x="3054.65" y="549.2813">«Entity»</text><text fill="#000000" font-family="sans-serif" font-size="20" lengthAdjust="spacing" textLength="137" x="3028.15" y="572.5625">ShowRequest</text><line style="stroke:#181818;stroke-width:0.5;" x1="2969" x2="3191" y1="582.2793" y2="582.2793"/><ellipse cx="2979" cy="599.4199" fill="none" rx="3" ry="3" style="stroke:#038048;stroke-width:1.0;"/><text fill="#000000" font-family="sans-serif" font-size="20" lengthAdjust="spacing" textLength="197" x="2989" y="604.8438">qnt_drones: Integer</text><line style="stroke:#181818;stroke-width:0.5;" x1="2969" x2="3191" y1="613.5605" y2="613.5605"/></g><!--class ShowProposal--><g id="elem_ShowProposal"><rect codeLine="150" fill="#F1F1F1" height="72.5625" id="ShowProposal" rx="2.5" ry="2.5" style="stroke:#181818;stroke-width:0.5;" width="174" x="3017" y="279.2168"/><ellipse cx="3033" cy="307.498" fill="#ADD1B2" rx="12" ry="12" style="stroke:#181818;stroke-width:1.0;"/><path d="M3036.0625,314.5762 Q3035.375,314.9355 3034.625,315.1074 Q3033.875,315.2793 3033.0469,315.2793 Q3030.0938,315.2793 3028.5313,313.3418 Q3026.9844,311.3887 3026.9844,307.7168 Q3026.9844,304.0449 3028.5313,302.1074 Q3030.0938,300.1543 3033.0469,300.1543 Q3033.875,300.1543 3034.625,300.3262 Q3035.3906,300.498 3036.0625,300.8574 L3036.0625,304.0605 Q3035.3125,303.373 3034.6094,303.0605 Q3033.9219,302.748 3033.1719,302.748 Q3031.5938,302.748 3030.7813,303.998 Q3029.9844,305.248 3029.9844,307.7168 Q3029.9844,310.1855 3030.7813,311.4355 Q3031.5938,312.6855 3033.1719,312.6855 Q3033.9219,312.6855 3034.6094,312.373 Q3035.3125,312.0605 3036.0625,311.373 L3036.0625,314.5762 Z " fill="#000000"/><text fill="#000000" font-family="sans-serif" font-size="20" font-style="italic" lengthAdjust="spacing" textLength="84" x="3076" y="302.7813">«Entity»</text><text fill="#000000" font-family="sans-serif" font-size="20" lengthAdjust="spacing" textLength="140" x="3048" y="326.0625">ShowProposal</text><line style="stroke:#181818;stroke-width:0.5;" x1="3018" x2="3190" y1="335.7793" y2="335.7793"/><line style="stroke:#181818;stroke-width:0.5;" x1="3018" x2="3190" y1="343.7793" y2="343.7793"/></g><!--class Time--><g id="elem_Time"><rect codeLine="177" fill="#F1F1F1" height="72.5625" id="Time" rx="2.5" ry="2.5" style="stroke:#181818;stroke-width:0.5;" width="183" x="3752.5" y="1506.2168"/><ellipse cx="3768.5" cy="1534.498" fill="#ADD1B2" rx="12" ry="12" style="stroke:#181818;stroke-width:1.0;"/><path d="M3771.5625,1541.5762 Q3770.875,1541.9355 3770.125,1542.1074 Q3769.375,1542.2793 3768.5469,1542.2793 Q3765.5938,1542.2793 3764.0313,1540.3418 Q3762.4844,1538.3887 3762.4844,1534.7168 Q3762.4844,1531.0449 3764.0313,1529.1074 Q3765.5938,1527.1543 3768.5469,1527.1543 Q3769.375,1527.1543 3770.125,1527.3262 Q3770.8906,1527.498 3771.5625,1527.8574 L3771.5625,1531.0605 Q3770.8125,1530.373 3770.1094,1530.0605 Q3769.4219,1529.748 3768.6719,1529.748 Q3767.0938,1529.748 3766.2813,1530.998 Q3765.4844,1532.248 3765.4844,1534.7168 Q3765.4844,1537.1855 3766.2813,1538.4355 Q3767.0938,1539.6855 3768.6719,1539.6855 Q3769.4219,1539.6855 3770.1094,1539.373 Q3770.8125,1539.0605 3771.5625,1538.373 L3771.5625,1541.5762 Z " fill="#000000"/><text fill="#000000" font-family="sans-serif" font-size="20" font-style="italic" lengthAdjust="spacing" textLength="153" x="3781.5" y="1529.7813">«Value Object»</text><text fill="#000000" font-family="sans-serif" font-size="20" lengthAdjust="spacing" textLength="50" x="3833" y="1553.0625">Time</text><line style="stroke:#181818;stroke-width:0.5;" x1="3753.5" x2="3934.5" y1="1562.7793" y2="1562.7793"/><line style="stroke:#181818;stroke-width:0.5;" x1="3753.5" x2="3934.5" y1="1570.7793" y2="1570.7793"/></g><!--class Name--><g id="elem_Name"><rect codeLine="180" fill="#F1F1F1" height="72.5625" id="Name" rx="2.5" ry="2.5" style="stroke:#181818;stroke-width:0.5;" width="183" x="3098.5" y="1506.2168"/><ellipse cx="3114.5" cy="1534.498" fill="#ADD1B2" rx="12" ry="12" style="stroke:#181818;stroke-width:1.0;"/><path d="M3117.5625,1541.5762 Q3116.875,1541.9355 3116.125,1542.1074 Q3115.375,1542.2793 3114.5469,1542.2793 Q3111.5938,1542.2793 3110.0313,1540.3418 Q3108.4844,1538.3887 3108.4844,1534.7168 Q3108.4844,1531.0449 3110.0313,1529.1074 Q3111.5938,1527.1543 3114.5469,1527.1543 Q3115.375,1527.1543 3116.125,1527.3262 Q3116.8906,1527.498 3117.5625,1527.8574 L3117.5625,1531.0605 Q3116.8125,1530.373 3116.1094,1530.0605 Q3115.4219,1529.748 3114.6719,1529.748 Q3113.0938,1529.748 3112.2813,1530.998 Q3111.4844,1532.248 3111.4844,1534.7168 Q3111.4844,1537.1855 3112.2813,1538.4355 Q3113.0938,1539.6855 3114.6719,1539.6855 Q3115.4219,1539.6855 3116.1094,1539.373 Q3116.8125,1539.0605 3117.5625,1538.373 L3117.5625,1541.5762 Z " fill="#000000"/><text fill="#000000" font-family="sans-serif" font-size="20" font-style="italic" lengthAdjust="spacing" textLength="153" x="3127.5" y="1529.7813">«Value Object»</text><text fill="#000000" font-family="sans-serif" font-size="20" lengthAdjust="spacing" textLength="59" x="3174.5" y="1553.0625">Name</text><line style="stroke:#181818;stroke-width:0.5;" x1="3099.5" x2="3280.5" y1="1562.7793" y2="1562.7793"/><line style="stroke:#181818;stroke-width:0.5;" x1="3099.5" x2="3280.5" y1="1570.7793" y2="1570.7793"/></g><!--class Email--><g id="elem_Email"><rect codeLine="183" fill="#F1F1F1" height="72.5625" id="Email" rx="2.5" ry="2.5" style="stroke:#181818;stroke-width:0.5;" width="183" x="2880.5" y="1506.2168"/><ellipse cx="2896.5" cy="1534.498" fill="#ADD1B2" rx="12" ry="12" style="stroke:#181818;stroke-width:1.0;"/><path d="M2899.5625,1541.5762 Q2898.875,1541.9355 2898.125,1542.1074 Q2897.375,1542.2793 2896.5469,1542.2793 Q2893.5938,1542.2793 2892.0313,1540.3418 Q2890.4844,1538.3887 2890.4844,1534.7168 Q2890.4844,1531.0449 2892.0313,1529.1074 Q2893.5938,1527.1543 2896.5469,1527.1543 Q2897.375,1527.1543 2898.125,1527.3262 Q2898.8906,1527.498 2899.5625,1527.8574 L2899.5625,1531.0605 Q2898.8125,1530.373 2898.1094,1530.0605 Q2897.4219,1529.748 2896.6719,1529.748 Q2895.0938,1529.748 2894.2813,1530.998 Q2893.4844,1532.248 2893.4844,1534.7168 Q2893.4844,1537.1855 2894.2813,1538.4355 Q2895.0938,1539.6855 2896.6719,1539.6855 Q2897.4219,1539.6855 2898.1094,1539.373 Q2898.8125,1539.0605 2899.5625,1538.373 L2899.5625,1541.5762 Z " fill="#000000"/><text fill="#000000" font-family="sans-serif" font-size="20" font-style="italic" lengthAdjust="spacing" textLength="153" x="2909.5" y="1529.7813">«Value Object»</text><text fill="#000000" font-family="sans-serif" font-size="20" lengthAdjust="spacing" textLength="57" x="2957.5" y="1553.0625">Email</text><line style="stroke:#181818;stroke-width:0.5;" x1="2881.5" x2="3062.5" y1="1562.7793" y2="1562.7793"/><line style="stroke:#181818;stroke-width:0.5;" x1="2881.5" x2="3062.5" y1="1570.7793" y2="1570.7793"/></g><!--class PhoneNumber--><g id="elem_PhoneNumber"><rect codeLine="186" fill="#F1F1F1" height="72.5625" id="PhoneNumber" rx="2.5" ry="2.5" style="stroke:#181818;stroke-width:0.5;" width="183" x="3316.5" y="1506.2168"/><ellipse cx="3332.5" cy="1534.498" fill="#ADD1B2" rx="12" ry="12" style="stroke:#181818;stroke-width:1.0;"/><path d="M3335.5625,1541.5762 Q3334.875,1541.9355 3334.125,1542.1074 Q3333.375,1542.2793 3332.5469,1542.2793 Q3329.5938,1542.2793 3328.0313,1540.3418 Q3326.4844,1538.3887 3326.4844,1534.7168 Q3326.4844,1531.0449 3328.0313,1529.1074 Q3329.5938,1527.1543 3332.5469,1527.1543 Q3333.375,1527.1543 3334.125,1527.3262 Q3334.8906,1527.498 3335.5625,1527.8574 L3335.5625,1531.0605 Q3334.8125,1530.373 3334.1094,1530.0605 Q3333.4219,1529.748 3332.6719,1529.748 Q3331.0938,1529.748 3330.2813,1530.998 Q3329.4844,1532.248 3329.4844,1534.7168 Q3329.4844,1537.1855 3330.2813,1538.4355 Q3331.0938,1539.6855 3332.6719,1539.6855 Q3333.4219,1539.6855 3334.1094,1539.373 Q3334.8125,1539.0605 3335.5625,1538.373 L3335.5625,1541.5762 Z " fill="#000000"/><text fill="#000000" font-family="sans-serif" font-size="20" font-style="italic" lengthAdjust="spacing" textLength="153" x="3345.5" y="1529.7813">«Value Object»</text><text fill="#000000" font-family="sans-serif" font-size="20" lengthAdjust="spacing" textLength="143" x="3350.5" y="1553.0625">PhoneNumber</text><line style="stroke:#181818;stroke-width:0.5;" x1="3317.5" x2="3498.5" y1="1562.7793" y2="1562.7793"/><line style="stroke:#181818;stroke-width:0.5;" x1="3317.5" x2="3498.5" y1="1570.7793" y2="1570.7793"/></g><!--class Date--><g id="elem_Date"><rect codeLine="189" fill="#F1F1F1" height="72.5625" id="Date" rx="2.5" ry="2.5" style="stroke:#181818;stroke-width:0.5;" width="183" x="3534.5" y="1506.2168"/><ellipse cx="3550.5" cy="1534.498" fill="#ADD1B2" rx="12" ry="12" style="stroke:#181818;stroke-width:1.0;"/><path d="M3553.5625,1541.5762 Q3552.875,1541.9355 3552.125,1542.1074 Q3551.375,1542.2793 3550.5469,1542.2793 Q3547.5938,1542.2793 3546.0313,1540.3418 Q3544.4844,1538.3887 3544.4844,1534.7168 Q3544.4844,1531.0449 3546.0313,1529.1074 Q3547.5938,1527.1543 3550.5469,1527.1543 Q3551.375,1527.1543 3552.125,1527.3262 Q3552.8906,1527.498 3553.5625,1527.8574 L3553.5625,1531.0605 Q3552.8125,1530.373 3552.1094,1530.0605 Q3551.4219,1529.748 3550.6719,1529.748 Q3549.0938,1529.748 3548.2813,1530.998 Q3547.4844,1532.248 3547.4844,1534.7168 Q3547.4844,1537.1855 3548.2813,1538.4355 Q3549.0938,1539.6855 3550.6719,1539.6855 Q3551.4219,1539.6855 3552.1094,1539.373 Q3552.8125,1539.0605 3553.5625,1538.373 L3553.5625,1541.5762 Z " fill="#000000"/><text fill="#000000" font-family="sans-serif" font-size="20" font-style="italic" lengthAdjust="spacing" textLength="153" x="3563.5" y="1529.7813">«Value Object»</text><text fill="#000000" font-family="sans-serif" font-size="20" lengthAdjust="spacing" textLength="47" x="3616.5" y="1553.0625">Date</text><line style="stroke:#181818;stroke-width:0.5;" x1="3535.5" x2="3716.5" y1="1562.7793" y2="1562.7793"/><line style="stroke:#181818;stroke-width:0.5;" x1="3535.5" x2="3716.5" y1="1570.7793" y2="1570.7793"/></g><!--link Customer to Representative--><g id="link_Customer_Representative"><path codeLine="22" d="M2351.27,1207.3168 C2385.86,1233.0668 2428.17,1264.5668 2460.84,1288.8868 " fill="none" id="Customer-to-Representative" style="stroke:#181818;stroke-width:1.0;"/><polygon fill="#181818" points="2465.18,1292.1168,2460.3457,1283.5361,2461.168,1289.1328,2455.5713,1289.9552,2465.18,1292.1168" style="stroke:#181818;stroke-width:1.0;"/><text fill="#000000" font-family="sans-serif" font-size="20" lengthAdjust="spacing" textLength="151" x="2422" y="1256.7813">represented by</text><text fill="#000000" font-family="sans-serif" font-size="20" lengthAdjust="spacing" textLength="35" x="2418.9531" y="1279.4758">1..*</text></g><!--link Customer to VatNumber--><g id="link_Customer_VatNumber"><path codeLine="23" d="M2225.01,1207.3168 C2190.58,1233.0668 2148.46,1264.5668 2115.93,1288.8868 " fill="none" id="Customer-to-VatNumber" style="stroke:#181818;stroke-width:1.0;"/><polygon fill="#181818" points="2111.61,1292.1168,2121.2187,1289.9552,2115.622,1289.1328,2116.4443,1283.5361,2111.61,1292.1168" style="stroke:#181818;stroke-width:1.0;"/><text fill="#000000" font-family="sans-serif" font-size="20" lengthAdjust="spacing" textLength="31" x="2184" y="1256.7813">vat</text><text fill="#000000" font-family="sans-serif" font-size="20" lengthAdjust="spacing" textLength="13" x="2105.6758" y="1279.4758">1</text></g><!--link Customer to Address--><g id="link_Customer_Address"><path codeLine="24" d="M2353.7,1171.8068 C2414.48,1183.8168 2506.54,1205.3568 2582,1237.2168 C2614.98,1251.1368 2649.34,1271.3968 2676.84,1289.2068 " fill="none" id="Customer-to-Address" style="stroke:#181818;stroke-width:1.0;"/><polygon fill="#181818" points="2681.2,1292.0468,2675.832,1283.7894,2677.0071,1289.3229,2671.4737,1290.498,2681.2,1292.0468" style="stroke:#181818;stroke-width:1.0;"/><text fill="#000000" font-family="sans-serif" font-size="20" lengthAdjust="spacing" textLength="78" x="2631" y="1256.7813">address</text><text fill="#000000" font-family="sans-serif" font-size="20" lengthAdjust="spacing" textLength="13" x="2658.3516" y="1279.3938">1</text></g><!--link Customer to CustomerStatus--><g id="link_Customer_CustomerStatus"><path codeLine="25" d="M2288,1207.3168 C2288,1232.4368 2288,1263.0268 2288,1287.0868 " fill="none" id="Customer-to-CustomerStatus" style="stroke:#181818;stroke-width:1.0;"/><polygon fill="#181818" points="2288,1292.1168,2292,1283.1168,2288,1287.1168,2284,1283.1168,2288,1292.1168" style="stroke:#181818;stroke-width:1.0;"/><text fill="#000000" font-family="sans-serif" font-size="20" lengthAdjust="spacing" textLength="61" x="2289" y="1256.7813">status</text><text fill="#000000" font-family="sans-serif" font-size="20" lengthAdjust="spacing" textLength="13" x="2273.8828" y="1279.4758">1</text></g><!--link Representative to Position--><g id="link_Representative_Position"><path codeLine="28" d="M2513,1365.6768 C2513,1403.1068 2513,1461.6068 2513,1500.7768 " fill="none" id="Representative-to-Position" style="stroke:#181818;stroke-width:1.0;"/><polygon fill="#181818" points="2513,1505.9368,2517,1496.9368,2513,1500.9368,2509,1496.9368,2513,1505.9368" style="stroke:#181818;stroke-width:1.0;"/><text fill="#000000" font-family="sans-serif" font-size="20" lengthAdjust="spacing" textLength="80" x="2514" y="1416.7813">position</text><text fill="#000000" font-family="sans-serif" font-size="20" lengthAdjust="spacing" textLength="13" x="2498.9234" y="1493.5644">1</text></g><!--link Drone to Routine--><g id="link_Drone_Routine"><path codeLine="62" d="M586.65,1181.6368 C550.87,1195.7868 504.3,1215.6568 465,1237.2168 C437.11,1252.5168 407.71,1272.1268 383.66,1289.1668 " fill="none" id="Drone-to-Routine" style="stroke:#181818;stroke-width:1.0;"/><polygon fill="#181818" points="379.54,1292.0968,389.1912,1290.1334,383.6125,1289.196,384.5499,1283.6174,379.54,1292.0968" style="stroke:#181818;stroke-width:1.0;"/><text fill="#000000" font-family="sans-serif" font-size="20" lengthAdjust="spacing" textLength="90" x="466" y="1256.7813">performs</text><text fill="#000000" font-family="sans-serif" font-size="20" lengthAdjust="spacing" textLength="13" x="373.5938" y="1279.4524">1</text></g><!--link Drone to DroneStatus--><g id="link_Drone_DroneStatus"><path codeLine="63" d="M586.91,1173.8468 C528.66,1188.1468 435.87,1212.0168 357,1237.2168 C307.35,1253.0868 252.91,1273.1068 208.16,1290.2868 " fill="none" id="Drone-to-DroneStatus" style="stroke:#181818;stroke-width:1.0;"/><polygon fill="#181818" points="203.31,1292.1568,213.145,1292.6795,207.9804,1290.3715,210.2885,1285.2069,203.31,1292.1568" style="stroke:#181818;stroke-width:1.0;"/><text fill="#000000" font-family="sans-serif" font-size="20" lengthAdjust="spacing" textLength="61" x="358" y="1256.7813">status</text><text fill="#000000" font-family="sans-serif" font-size="20" lengthAdjust="spacing" textLength="13" x="204.543" y="1279.5227">1</text></g><!--link Drone to Model--><g id="link_Drone_Model"><path codeLine="64" d="M673.25,1207.3168 C688.97,1232.6468 708.15,1263.5368 723.15,1287.6868 " fill="none" id="Drone-to-Model" style="stroke:#181818;stroke-width:1.0;"/><polygon fill="#181818" points="725.9,1292.1168,724.5605,1282.3595,723.2667,1287.8664,717.7598,1286.5727,725.9,1292.1168" style="stroke:#181818;stroke-width:1.0;"/><text fill="#000000" font-family="sans-serif" font-size="20" lengthAdjust="spacing" textLength="63" x="707" y="1256.7813">model</text><text fill="#000000" font-family="sans-serif" font-size="20" lengthAdjust="spacing" textLength="13" x="707.9844" y="1279.4758">1</text></g><!--link Drone to SerialNumber--><g id="link_Drone_SerialNumber"><path codeLine="65" d="M701.2,1189.9668 C754.74,1217.8268 834.99,1259.5668 893.11,1289.7968 " fill="none" id="Drone-to-SerialNumber" style="stroke:#181818;stroke-width:1.0;"/><polygon fill="#181818" points="897.6,1292.1368,891.4565,1284.4389,893.1627,1289.8323,887.7693,1291.5385,897.6,1292.1368" style="stroke:#181818;stroke-width:1.0;"/><text fill="#000000" font-family="sans-serif" font-size="20" lengthAdjust="spacing" textLength="135" x="835" y="1256.7813">serialNumber</text><text fill="#000000" font-family="sans-serif" font-size="20" lengthAdjust="spacing" textLength="13" x="871.7266" y="1279.4993">1</text></g><!--link Drone to Maintenance--><g id="link_Drone_Maintenance"><path codeLine="66" d="M598.55,1207.6268 C590.78,1217.0168 583.23,1227.1068 577,1237.2168 C567.48,1252.6768 559.46,1271.0068 553.34,1287.1168 " fill="none" id="Drone-to-Maintenance" style="stroke:#181818;stroke-width:1.0;"/><polygon fill="#181818" points="551.51,1292.0368,558.3966,1284.9959,553.2531,1287.3505,550.8985,1282.2069,551.51,1292.0368" style="stroke:#181818;stroke-width:1.0;"/><text fill="#000000" font-family="sans-serif" font-size="20" lengthAdjust="spacing" textLength="106" x="578" y="1256.7813">undergoes</text><text fill="#000000" font-family="sans-serif" font-size="20" lengthAdjust="spacing" textLength="13" x="539.3711" y="1279.3821">1</text></g><!--reverse link Inventory to Drone--><g id="link_Inventory_Drone"><path codeLine="69" d="M644,893.0568 C644,952.5468 644,1052.3468 644,1111.0568 " fill="none" id="Inventory-backto-Drone" style="stroke:#181818;stroke-width:1.0;"/><polygon fill="none" points="644,879.9268,640,885.9268,644,891.9268,648,885.9268,644,879.9268" style="stroke:#181818;stroke-width:1.0;"/></g><!--link Maintenance to MaintenanceDescription--><g id="link_Maintenance_MaintenanceDescription"><path codeLine="72" d="M563.24,1365.6768 C587.62,1403.4068 625.85,1462.5568 651.16,1501.7268 " fill="none" id="Maintenance-to-MaintenanceDescription" style="stroke:#181818;stroke-width:1.0;"/><polygon fill="#181818" points="653.87,1505.9368,652.3445,1496.2068,651.1561,1501.7374,645.6255,1500.549,653.87,1505.9368" style="stroke:#181818;stroke-width:1.0;"/><text fill="#000000" font-family="sans-serif" font-size="20" lengthAdjust="spacing" textLength="112" x="598" y="1416.7813">description</text><text fill="#000000" font-family="sans-serif" font-size="20" lengthAdjust="spacing" textLength="13" x="635.9625" y="1493.5644">1</text></g><!--link Maintenance to MaintenanceType--><g id="link_Maintenance_MaintenanceType"><path codeLine="73" d="M515.91,1365.6768 C490.64,1403.4068 451.02,1462.5568 424.78,1501.7268 " fill="none" id="Maintenance-to-MaintenanceType" style="stroke:#181818;stroke-width:1.0;"/><polygon fill="#181818" points="421.97,1505.9368,430.2905,1500.6671,424.7435,1501.7765,423.6341,1496.2295,421.97,1505.9368" style="stroke:#181818;stroke-width:1.0;"/><text fill="#000000" font-family="sans-serif" font-size="20" lengthAdjust="spacing" textLength="44" x="496" y="1416.7813">type</text><text fill="#000000" font-family="sans-serif" font-size="20" lengthAdjust="spacing" textLength="13" x="411.8635" y="1493.5644">1</text></g><!--link Figure to Drone--><g id="link_Figure_Drone"><path codeLine="104" d="M1438.1,872.1668 C1358.34,893.2368 1248.18,923.9268 1153,956.2168 C989.2,1011.7768 801.15,1090.3868 706.04,1131.2268 " fill="none" id="Figure-to-Drone" style="stroke:#181818;stroke-width:1.0;"/><polygon fill="#181818" points="701.3,1133.2568,711.148,1133.3881,705.8957,1131.2872,707.9966,1126.0349,701.3,1133.2568" style="stroke:#181818;stroke-width:1.0;"/><text fill="#000000" font-family="sans-serif" font-size="20" lengthAdjust="spacing" textLength="133" x="1154" y="975.7813">composed by</text><text fill="#000000" font-family="sans-serif" font-size="20" lengthAdjust="spacing" textLength="35" x="709.0138" y="1124.9807">1..*</text></g><!--link Figure to DSLDescription--><g id="link_Figure_DSLDescription"><path codeLine="105" d="M1545.54,926.4768 C1545.32,936.4968 1545.13,946.5868 1545,956.2168 C1544.85,967.3268 1543.22,970.2468 1545,981.2168 C1552.85,1029.5668 1572.01,1082.5468 1586.38,1117.8268 " fill="none" id="Figure-to-DSLDescription" style="stroke:#181818;stroke-width:1.0;"/><polygon fill="#181818" points="1588.29,1122.4668,1588.5727,1112.622,1586.3913,1117.8413,1581.1719,1115.66,1588.29,1122.4668" style="stroke:#181818;stroke-width:1.0;"/><text fill="#000000" font-family="sans-serif" font-size="20" lengthAdjust="spacing" textLength="112" x="1546" y="975.7813">description</text><text fill="#000000" font-family="sans-serif" font-size="20" lengthAdjust="spacing" textLength="13" x="1571.6115" y="1110.0994">1</text></g><!--link Figure to Category--><g id="link_Figure_Category"><path codeLine="106" d="M1657.51,870.7868 C1704.52,887.6668 1755.92,914.4768 1788,956.2168 C1823.77,1002.7668 1828.41,1073.0968 1827.17,1117.2968 " fill="none" id="Figure-to-Category" style="stroke:#181818;stroke-width:1.0;"/><polygon fill="#181818" points="1826.99,1122.5568,1831.296,1113.6991,1827.1613,1117.5597,1823.3007,1113.425,1826.99,1122.5568" style="stroke:#181818;stroke-width:1.0;"/><text fill="#000000" font-family="sans-serif" font-size="20" lengthAdjust="spacing" textLength="87" x="1804" y="975.7813">category</text><text fill="#000000" font-family="sans-serif" font-size="20" lengthAdjust="spacing" textLength="13" x="1813.3867" y="1109.9055">1</text></g><!--link Figure to SetOfKeywords--><g id="link_Figure_SetOfKeywords"><path codeLine="107" d="M1438.23,880.9268 C1396.67,898.7968 1351.19,923.6068 1317,956.2168 C1269.05,1001.9568 1237.04,1073.2768 1220.46,1117.7968 " fill="none" id="Figure-to-SetOfKeywords" style="stroke:#181818;stroke-width:1.0;"/><polygon fill="#181818" points="1218.71,1122.5568,1225.5777,1115.4974,1220.4405,1117.8658,1218.0721,1112.7286,1218.71,1122.5568" style="stroke:#181818;stroke-width:1.0;"/><text fill="#000000" font-family="sans-serif" font-size="20" lengthAdjust="spacing" textLength="95" x="1318" y="975.7813">keywords</text><text fill="#000000" font-family="sans-serif" font-size="20" lengthAdjust="spacing" textLength="13" x="1206.6055" y="1109.9055">1</text></g><!--link Figure to Exclusivity--><g id="link_Figure_Exclusivity"><path codeLine="108" d="M1449.42,926.2968 C1441.95,935.7368 1435.28,945.7568 1430,956.2168 C1404.15,1007.4468 1401.03,1074.9768 1402.21,1117.4968 " fill="none" id="Figure-to-Exclusivity" style="stroke:#181818;stroke-width:1.0;"/><polygon fill="#181818" points="1402.38,1122.5568,1406.0953,1113.4356,1402.2229,1117.5593,1398.0993,1113.6869,1402.38,1122.5568" style="stroke:#181818;stroke-width:1.0;"/><text fill="#000000" font-family="sans-serif" font-size="20" lengthAdjust="spacing" textLength="105" x="1431" y="975.7813">exclusivity</text><text fill="#000000" font-family="sans-serif" font-size="20" lengthAdjust="spacing" textLength="13" x="1387.8125" y="1109.9055">1</text></g><!--link DSLDescription to DSLValidate--><g id="link_DSLDescription_DSLValidate"><path codeLine="111" d="M1604.21,1195.7368 C1604.37,1222.4068 1604.59,1258.9768 1604.76,1286.8568 " fill="none" id="DSLDescription-to-DSLValidate" style="stroke:#181818;stroke-width:1.0;stroke-dasharray:7.0,7.0;"/><polygon fill="#181818" points="1604.79,1291.9568,1608.7385,1282.9341,1604.7614,1286.9569,1600.7386,1282.9798,1604.79,1291.9568" style="stroke:#181818;stroke-width:1.0;"/><text fill="#000000" font-family="sans-serif" font-size="20" lengthAdjust="spacing" textLength="90" x="1606" y="1256.7813">validates</text><text fill="#000000" font-family="sans-serif" font-size="20" lengthAdjust="spacing" textLength="13" x="1590.6787" y="1279.5877">1</text></g><!--reverse link Catalogue to Figure--><g id="link_Catalogue_Figure"><path codeLine="114" d="M1548,623.5168 C1548,661.5968 1548,715.3568 1548,760.0468 " fill="none" id="Catalogue-backto-Figure" style="stroke:#181818;stroke-width:1.0;"/><polygon fill="none" points="1548,610.2368,1544,616.2368,1548,622.2368,1552,616.2368,1548,610.2368" style="stroke:#181818;stroke-width:1.0;"/></g><!--link Exclusivity to Customer--><g id="link_Exclusivity_Customer"><path codeLine="117" d="M1414.75,1122.6568 C1426.61,1086.3368 1450.51,1032.6368 1493,1008.2168 C1577.58,959.6068 1836.4,988.7768 1932,1008.2168 C2036.29,1029.4168 2147.92,1082.2668 2217.82,1119.4268 " fill="none" id="Exclusivity-to-Customer" style="stroke:#181818;stroke-width:1.0;"/><polygon fill="#181818" points="2222.36,1121.8568,2216.3051,1114.089,2217.9494,1119.5016,2212.5368,1121.146,2222.36,1121.8568" style="stroke:#181818;stroke-width:1.0;"/><text fill="#000000" font-family="sans-serif" font-size="20" lengthAdjust="spacing" textLength="118" x="1668" y="975.7813">exclusive to</text><text fill="#000000" font-family="sans-serif" font-size="20" lengthAdjust="spacing" textLength="13" x="2201.4697" y="1112.1011">1</text></g><!--link ShowRequest to Figure--><g id="link_ShowRequest_Figure"><path codeLine="154" d="M2967.69,615.7168 C2958.74,618.0568 2949.77,620.1068 2941,621.7168 C2590.62,686.1068 2490.85,589.9068 2140,651.7168 C1969.31,681.7868 1779.91,749.0468 1662.38,795.0368 " fill="none" id="ShowRequest-to-Figure" style="stroke:#181818;stroke-width:1.0;"/><polygon fill="#181818" points="1657.54,796.9368,1667.3797,797.3605,1662.1922,795.1045,1664.4481,789.917,1657.54,796.9368" style="stroke:#181818;stroke-width:1.0;"/><text fill="#000000" font-family="sans-serif" font-size="20" lengthAdjust="spacing" textLength="134" x="2141" y="671.2813">requests new</text><text fill="#000000" font-family="sans-serif" font-size="20" lengthAdjust="spacing" textLength="35" x="1665.6785" y="788.8187">0..*</text></g><!--link ShowRequest to Description--><g id="link_ShowRequest_Description"><path codeLine="155" d="M3072.23,621.9268 C3063.86,672.8668 3050.65,753.1568 3042.71,801.4468 " fill="none" id="ShowRequest-to-Description" style="stroke:#181818;stroke-width:1.0;"/><polygon fill="#181818" points="3041.86,806.5868,3047.2466,798.3415,3042.6589,801.651,3039.3493,797.0633,3041.86,806.5868" style="stroke:#181818;stroke-width:1.0;"/><text fill="#000000" font-family="sans-serif" font-size="20" lengthAdjust="spacing" textLength="112" x="3068" y="671.2813">description</text><text fill="#000000" font-family="sans-serif" font-size="20" lengthAdjust="spacing" textLength="13" x="3028.75" y="793.9407">1</text></g><!--link ShowRequest to CRMCollaborator--><g id="link_ShowRequest_CRMCollaborator"><path codeLine="156" d="M2967.71,613.9968 C2958.71,616.7468 2949.73,619.3568 2941,621.7168 C2837.87,649.6368 2794.38,620.4768 2709,684.7168 C2671.26,713.1168 2639.67,756.5768 2618.54,790.6668 " fill="none" id="ShowRequest-to-CRMCollaborator" style="stroke:#181818;stroke-width:1.0;"/><polygon fill="#181818" points="2615.76,795.1968,2623.87,789.6085,2618.3701,790.9322,2617.0465,785.4323,2615.76,795.1968" style="stroke:#181818;stroke-width:1.0;"/><text fill="#000000" font-family="sans-serif" font-size="20" lengthAdjust="spacing" textLength="133" x="2766" y="671.2813">submitted by</text><text fill="#000000" font-family="sans-serif" font-size="20" lengthAdjust="spacing" textLength="13" x="2605.4684" y="782.422">1</text></g><!--link ShowRequest to Customer--><g id="link_ShowRequest_Customer"><path codeLine="157" d="M2967.68,619.2368 C2964.43,620.1268 2961.2,620.9568 2958,621.7168 C2823.3,653.8968 2436.12,586.9868 2338,684.7168 C2225.37,796.8968 2253.74,1007.7368 2274.83,1105.7068 " fill="none" id="ShowRequest-to-Customer" style="stroke:#181818;stroke-width:1.0;"/><polygon fill="#181818" points="2275.95,1110.8568,2277.9293,1101.2089,2274.879,1105.9729,2270.115,1102.9225,2275.95,1110.8568" style="stroke:#181818;stroke-width:1.0;"/><text fill="#000000" font-family="sans-serif" font-size="20" lengthAdjust="spacing" textLength="131" x="2339" y="850.2813">requested by</text><text fill="#000000" font-family="sans-serif" font-size="20" lengthAdjust="spacing" textLength="13" x="2260.4573" y="1098.407">1</text></g><!--link ShowRequest to Location--><g id="link_ShowRequest_Location"><path codeLine="158" d="M3158.66,621.8468 C3169.79,630.7968 3180.37,640.8168 3189,651.7168 C3218.47,688.9168 3238.1,738.8968 3250.16,778.3268 " fill="none" id="ShowRequest-to-Location" style="stroke:#181818;stroke-width:1.0;"/><polygon fill="#181818" points="3251.74,783.5668,3252.9718,773.7953,3250.2967,778.7796,3245.3123,776.1045,3251.74,783.5668" style="stroke:#181818;stroke-width:1.0;"/><text fill="#000000" font-family="sans-serif" font-size="20" lengthAdjust="spacing" textLength="54" x="3206" y="671.2813">place</text><text fill="#000000" font-family="sans-serif" font-size="20" lengthAdjust="spacing" textLength="13" x="3236.3396" y="770.9136">1</text></g><!--link ShowRequest to Status--><g id="link_ShowRequest_Status"><path codeLine="159" d="M3003.95,621.7468 C2978,639.7068 2949.81,661.4968 2927,684.7168 C2891.99,720.3668 2860.53,768.4268 2840.51,802.0468 " fill="none" id="ShowRequest-to-Status" style="stroke:#181818;stroke-width:1.0;"/><polygon fill="#181818" points="2837.88,806.4868,2845.9042,800.7761,2840.4251,802.183,2839.0181,796.7039,2837.88,806.4868" style="stroke:#181818;stroke-width:1.0;"/><text fill="#000000" font-family="sans-serif" font-size="20" lengthAdjust="spacing" textLength="61" x="2963" y="671.2813">status</text><text fill="#000000" font-family="sans-serif" font-size="20" lengthAdjust="spacing" textLength="13" x="2827.0961" y="794.1227">1</text></g><!--link Show to Figure--><g id="link_Show_Figure"><path codeLine="162" d="M2822.88,164.4868 C2757.9,172.4068 2649.45,189.7668 2562,224.2168 C2208.25,363.5668 1837.94,622.8668 1658.52,756.9768 " fill="none" id="Show-to-Figure" style="stroke:#181818;stroke-width:1.0;"/><polygon fill="#181818" points="1654.32,760.1168,1663.92,757.9168,1658.32,757.1168,1659.12,751.5168,1654.32,760.1168" style="stroke:#181818;stroke-width:1.0;"/><text fill="#000000" font-family="sans-serif" font-size="20" lengthAdjust="spacing" textLength="121" x="2225" y="401.7813">sequence of</text><text fill="#000000" font-family="sans-serif" font-size="20" lengthAdjust="spacing" textLength="35" x="1626.953" y="747.5771">1..*</text></g><!--link Show to ShowStatus--><g id="link_Show_ShowStatus"><path codeLine="163" d="M2822.78,184.7268 C2800.6,195.7568 2775.43,209.4768 2754,224.2168 C2732.24,239.1868 2710.07,258.2968 2691.99,275.0968 " fill="none" id="Show-to-ShowStatus" style="stroke:#181818;stroke-width:1.0;"/><polygon fill="#181818" points="2687.96,278.8668,2697.2683,275.6489,2691.6148,275.4547,2691.809,269.8012,2687.96,278.8668" style="stroke:#181818;stroke-width:1.0;"/><text fill="#000000" font-family="sans-serif" font-size="20" lengthAdjust="spacing" textLength="116" x="2755" y="243.7813">showStatus</text><text fill="#000000" font-family="sans-serif" font-size="20" lengthAdjust="spacing" textLength="13" x="2679.8393" y="266.4828">1</text></g><!--link Show to ShowDescription--><g id="link_Show_ShowDescription"><path codeLine="164" d="M2880,194.5068 C2880,218.1868 2880,249.2968 2880,273.9368 " fill="none" id="Show-to-ShowDescription" style="stroke:#181818;stroke-width:1.0;"/><polygon fill="#181818" points="2880,279.0968,2884,270.0968,2880,274.0968,2876,270.0968,2880,279.0968" style="stroke:#181818;stroke-width:1.0;"/><text fill="#000000" font-family="sans-serif" font-size="20" lengthAdjust="spacing" textLength="112" x="2881" y="243.7813">description</text><text fill="#000000" font-family="sans-serif" font-size="20" lengthAdjust="spacing" textLength="13" x="2865.8828" y="266.4524">1</text></g><!--link Show to ShowProposal--><g id="link_Show_ShowProposal"><path codeLine="165" d="M2937.19,185.9168 C2958.21,196.8068 2981.79,210.1168 3002,224.2168 C3023.66,239.3268 3045.81,258.4568 3063.91,275.2268 " fill="none" id="Show-to-ShowProposal" style="stroke:#181818;stroke-width:1.0;"/><polygon fill="#181818" points="3067.95,278.9968,3064.101,269.9312,3064.2952,275.5847,3058.6417,275.7789,3067.95,278.9968" style="stroke:#181818;stroke-width:1.0;"/><text fill="#000000" font-family="sans-serif" font-size="20" lengthAdjust="spacing" textLength="153" x="3033" y="243.7813">generated with</text><text fill="#000000" font-family="sans-serif" font-size="20" lengthAdjust="spacing" textLength="13" x="3047.9027" y="266.6343">1</text></g><!--link Show to CRMCollaborator--><g id="link_Show_CRMCollaborator"><path codeLine="166" d="M2822.95,160.2768 C2744.74,165.8568 2606.69,188.7968 2543,279.2168 C2432.1,436.6468 2518.95,683.7368 2565.46,790.3768 " fill="none" id="Show-to-CRMCollaborator" style="stroke:#181818;stroke-width:1.0;"/><polygon fill="#181818" points="2567.5,795.0368,2567.5315,785.188,2565.4839,790.4613,2560.2106,788.4137,2567.5,795.0368" style="stroke:#181818;stroke-width:1.0;"/><text fill="#000000" font-family="sans-serif" font-size="20" lengthAdjust="spacing" textLength="133" x="2500" y="401.7813">scheduled by</text><text fill="#000000" font-family="sans-serif" font-size="20" lengthAdjust="spacing" textLength="13" x="2550.6031" y="782.6111">1</text></g><!--link ShowProposal to CRMCollaborator--><g id="link_ShowProposal_CRMCollaborator"><path codeLine="169" d="M3016.85,346.9868 C3010.83,348.8268 3004.84,350.5868 2999,352.2168 C2873.61,387.1168 2807.92,326.1568 2713,415.2168 C2606.71,514.9468 2590.31,700.0368 2589.02,790.1768 " fill="none" id="ShowProposal-to-CRMCollaborator" style="stroke:#181818;stroke-width:1.0;"/><polygon fill="#181818" points="2588.96,795.1868,2593.0626,786.2331,2589.0171,790.1871,2585.0631,786.1417,2588.96,795.1868" style="stroke:#181818;stroke-width:1.0;"/><text fill="#000000" font-family="sans-serif" font-size="20" lengthAdjust="spacing" textLength="133" x="2714" y="580.7813">generated by</text><text fill="#000000" font-family="sans-serif" font-size="20" lengthAdjust="spacing" textLength="13" x="2574.8997" y="782.4106">1</text></g><!--link ShowProposal to ShowRequest--><g id="link_ShowProposal_ShowRequest"><path codeLine="170" d="M3100.66,352.3168 C3096.57,396.0168 3089.58,470.4768 3084.88,520.6168 " fill="none" id="ShowProposal-to-ShowRequest" style="stroke:#181818;stroke-width:1.0;"/><polygon fill="#181818" points="3084.41,525.6968,3089.2395,517.1133,3084.8807,520.719,3081.275,516.3602,3084.41,525.6968" style="stroke:#181818;stroke-width:1.0;"/><text fill="#000000" font-family="sans-serif" font-size="20" lengthAdjust="spacing" textLength="153" x="3099" y="401.7813">generated with</text><text fill="#000000" font-family="sans-serif" font-size="20" lengthAdjust="spacing" textLength="13" x="3071.1161" y="512.922">1</text></g><!--link ShowProposal to Status--><g id="link_ShowProposal_Status"><path codeLine="171" d="M3016.93,345.9868 C2963.89,365.6668 2903.28,392.1468 2887,415.2168 C2819.77,510.5268 2885.92,561.9768 2865,676.7168 C2857.09,720.1268 2842.65,768.5468 2831.86,801.7468 " fill="none" id="ShowProposal-to-Status" style="stroke:#181818;stroke-width:1.0;"/><polygon fill="#181818" points="2830.3,806.5268,2836.8814,799.1998,2831.8425,801.7707,2829.2717,796.7318,2830.3,806.5268" style="stroke:#181818;stroke-width:1.0;"/><text fill="#000000" font-family="sans-serif" font-size="20" lengthAdjust="spacing" textLength="61" x="2888" y="580.7813">status</text><text fill="#000000" font-family="sans-serif" font-size="20" lengthAdjust="spacing" textLength="13" x="2818.2969" y="793.8704">1</text></g><!--link CRMCollaborator to Name--><g id="link_CRMCollaborator_Name"><path codeLine="193" d="M2645.39,891.3268 C2664.4,905.0368 2686.57,918.5168 2709,926.7168 C2773.78,950.4168 2962.25,915.5968 3018,956.2168 C3195.85,1085.8068 3198.33,1390.5268 3192.93,1500.8968 " fill="none" id="CRMCollaborator-to-Name" style="stroke:#181818;stroke-width:1.0;"/><polygon fill="#181818" points="3192.67,1506.0068,3197.127,1497.2241,3192.9268,1501.0134,3189.1375,1496.8132,3192.67,1506.0068" style="stroke:#181818;stroke-width:1.0;"/><text fill="#000000" font-family="sans-serif" font-size="20" lengthAdjust="spacing" textLength="57" x="3181" y="1256.7813">name</text><text fill="#000000" font-family="sans-serif" font-size="20" lengthAdjust="spacing" textLength="13" x="3179.0357" y="1493.646">1</text></g><!--link CRMCollaborator to Email--><g id="link_CRMCollaborator_Email"><path codeLine="194" d="M2653.92,891.3368 C2671.42,903.4468 2690.63,916.0568 2709,926.7168 C2764.8,959.0868 2801.03,937.8068 2840,989.2168 C2869.49,1028.1268 2900.18,1375.6868 2915,1422.2168 C2923.76,1449.7268 2937.65,1479.0168 2949.52,1501.7168 " fill="none" id="CRMCollaborator-to-Email" style="stroke:#181818;stroke-width:1.0;"/><polygon fill="#181818" points="2951.87,1506.1568,2951.2219,1496.3293,2949.543,1501.7313,2944.141,1500.0524,2951.87,1506.1568" style="stroke:#181818;stroke-width:1.0;"/><text fill="#000000" font-family="sans-serif" font-size="20" lengthAdjust="spacing" textLength="56" x="2892" y="1256.7813">email</text><text fill="#000000" font-family="sans-serif" font-size="20" lengthAdjust="spacing" textLength="13" x="2949.5273" y="1493.5227">1</text></g><!--link CRMCollaborator to PhoneNumber--><g id="link_CRMCollaborator_PhoneNumber"><path codeLine="195" d="M2648.46,891.4268 C2666.94,904.4768 2688.04,917.5468 2709,926.7168 C2764.48,950.9768 2786.72,931.5168 2842,956.2168 C2985.85,1020.5068 2904.35,1156.2968 3021,1262.2168 C3148.13,1377.6468 3273.36,1265.0668 3383,1397.2168 C3406.82,1425.9268 3411.56,1469.1068 3411.26,1500.7868 " fill="none" id="CRMCollaborator-to-PhoneNumber" style="stroke:#181818;stroke-width:1.0;"/><polygon fill="#181818" points="3411.16,1506.1668,3415.3392,1497.2486,3411.26,1501.1678,3407.3408,1497.0886,3411.16,1506.1668" style="stroke:#181818;stroke-width:1.0;"/><text fill="#000000" font-family="sans-serif" font-size="20" lengthAdjust="spacing" textLength="144" x="3022" y="1256.7813">phoneNumber</text><text fill="#000000" font-family="sans-serif" font-size="20" lengthAdjust="spacing" textLength="13" x="3397.5859" y="1493.5344">1</text></g><!--link Exclusivity to Time--><g id="link_Exclusivity_Time"><path codeLine="198" d="M1395.01,1195.8668 C1383.21,1246.5768 1371.09,1338.9268 1422,1389.2168 C1464.29,1430.9868 1896.59,1420.2468 1956,1422.2168 C1980.7,1423.0368 3712.25,1420.5768 3735,1430.2168 C3769.55,1444.8468 3798.63,1476.3168 3818.05,1502.0968 " fill="none" id="Exclusivity-to-Time" style="stroke:#181818;stroke-width:1.0;"/><polygon fill="#181818" points="3821.08,1506.1868,3818.9184,1496.5781,3818.096,1502.1748,3812.4993,1501.3525,3821.08,1506.1868" style="stroke:#181818;stroke-width:1.0;"/><text fill="#000000" font-family="sans-serif" font-size="20" lengthAdjust="spacing" textLength="85" x="1423" y="1335.7813">duration</text><text fill="#000000" font-family="sans-serif" font-size="20" lengthAdjust="spacing" textLength="13" x="3818.2578" y="1493.5579">1</text></g><!--link Representative to Name--><g id="link_Representative_Name"><path codeLine="201" d="M2566.85,1365.2668 C2584.09,1374.8568 2603.72,1384.0068 2623,1389.2168 C2676.66,1403.7168 2817.66,1391.9668 2873,1397.2168 C2966.18,1406.0668 2997.85,1387.2368 3081,1430.2168 C3113.51,1447.0168 3142.08,1477.1668 3161.8,1501.8768 " fill="none" id="Representative-to-Name" style="stroke:#181818;stroke-width:1.0;"/><polygon fill="#181818" points="3165.14,1506.1068,3162.705,1496.5637,3162.0427,1502.1817,3156.4248,1501.5194,3165.14,1506.1068" style="stroke:#181818;stroke-width:1.0;"/><text fill="#000000" font-family="sans-serif" font-size="20" lengthAdjust="spacing" textLength="57" x="3063" y="1416.7813">name</text><text fill="#000000" font-family="sans-serif" font-size="20" lengthAdjust="spacing" textLength="13" x="3146.75" y="1493.4641">1</text></g><!--link Representative to Email--><g id="link_Representative_Email"><path codeLine="202" d="M2570.82,1365.3168 C2587.22,1374.1968 2605.4,1382.9668 2623,1389.2168 C2646.12,1397.4268 2817.84,1419.6768 2840,1430.2168 C2876.66,1447.6568 2911.45,1477.8268 2936.11,1502.3868 " fill="none" id="Representative-to-Email" style="stroke:#181818;stroke-width:1.0;"/><polygon fill="#181818" points="2939.67,1505.9668,2936.153,1496.7673,2936.1416,1502.4241,2930.4848,1502.4127,2939.67,1505.9668" style="stroke:#181818;stroke-width:1.0;"/><text fill="#000000" font-family="sans-serif" font-size="20" lengthAdjust="spacing" textLength="56" x="2808" y="1416.7813">email</text><text fill="#000000" font-family="sans-serif" font-size="20" lengthAdjust="spacing" textLength="13" x="2920.2388" y="1493.5994">1</text></g><!--link Representative to PhoneNumber--><g id="link_Representative_PhoneNumber"><path codeLine="203" d="M2566.52,1365.3068 C2583.82,1374.9568 2603.57,1384.1368 2623,1389.2168 C2677.4,1403.4468 3073.22,1390.1568 3129,1397.2168 C3176.16,1403.1868 3186.21,1413.7868 3233,1422.2168 C3262.08,1427.4568 3272.51,1417.1368 3299,1430.2168 C3332.06,1446.5468 3360.8,1477.0668 3380.45,1502.0468 " fill="none" id="Representative-to-PhoneNumber" style="stroke:#181818;stroke-width:1.0;"/><polygon fill="#181818" points="3383.53,1506.0068,3381.1715,1496.4445,3380.4642,1502.057,3374.8518,1501.3497,3383.53,1506.0068" style="stroke:#181818;stroke-width:1.0;"/><text fill="#000000" font-family="sans-serif" font-size="20" lengthAdjust="spacing" textLength="144" x="3234" y="1416.7813">phoneNumber</text><text fill="#000000" font-family="sans-serif" font-size="20" lengthAdjust="spacing" textLength="13" x="3365.4006" y="1493.646">1</text></g><!--link ShowRequest to Time--><g id="link_ShowRequest_Time"><path codeLine="206" d="M3192.37,585.7968 C3259.32,598.5668 3340.13,625.9668 3387,684.7168 C3532.87,867.5668 3335.12,1003.4668 3450,1207.2168 C3528.99,1347.3168 3615.19,1322.9168 3735,1430.2168 C3760.45,1453.0068 3787.3,1480.4268 3807.98,1502.3668 " fill="none" id="ShowRequest-to-Time" style="stroke:#181818;stroke-width:1.0;"/><polygon fill="#181818" points="3811.5,1506.1168,3808.2445,1496.8215,3808.0732,1502.4758,3802.4189,1502.3045,3811.5,1506.1168" style="stroke:#181818;stroke-width:1.0;"/><text fill="#000000" font-family="sans-serif" font-size="20" lengthAdjust="spacing" textLength="85" x="3451" y="1166.2813">duration</text><text fill="#000000" font-family="sans-serif" font-size="20" lengthAdjust="spacing" textLength="13" x="3791.7969" y="1493.4758">1</text></g><!--link ShowRequest to Date--><g id="link_ShowRequest_Date"><path codeLine="207" d="M3192.26,588.8068 C3284.87,602.1168 3407.52,624.1268 3449,651.7168 C3534.55,708.6368 3580,739.4668 3580,842.2168 C3580,842.2168 3580,842.2168 3580,1329.7168 C3580,1390.6368 3598.37,1459.2168 3611.89,1501.4568 " fill="none" id="ShowRequest-to-Date" style="stroke:#181818;stroke-width:1.0;"/><polygon fill="#181818" points="3613.43,1506.2168,3614.4583,1496.4218,3611.8875,1501.4607,3606.8486,1498.8898,3613.43,1506.2168" style="stroke:#181818;stroke-width:1.0;"/><text fill="#000000" font-family="sans-serif" font-size="20" lengthAdjust="spacing" textLength="96" x="3581" y="1166.2813">startTime</text><text fill="#000000" font-family="sans-serif" font-size="20" lengthAdjust="spacing" textLength="13" x="3612.3867" y="1493.593">1</text></g><!--link Show to Date--><g id="link_Show_Date"><path codeLine="210" d="M2937.16,163.1168 C3127.96,178.5668 3731,233.7968 3731,314.7168 C3731,314.7168 3731,314.7168 3731,969.7168 C3731,1172.0668 3666.65,1408.1568 3638.7,1501.1468 " fill="none" id="Show-to-Date" style="stroke:#181818;stroke-width:1.0;"/><polygon fill="#181818" points="3637.24,1505.9968,3643.6677,1498.5345,3638.6833,1501.2096,3636.0082,1496.2253,3637.24,1505.9968" style="stroke:#181818;stroke-width:1.0;"/><text fill="#000000" font-family="sans-serif" font-size="20" lengthAdjust="spacing" textLength="45" x="3732" y="850.2813">date</text><text fill="#000000" font-family="sans-serif" font-size="20" lengthAdjust="spacing" textLength="13" x="3625.0251" y="1493.6343">1</text></g><!--link Show to Time--><g id="link_Show_Time"><path codeLine="211" d="M2937.3,161.8568 C3145.24,173.9968 3848,221.8868 3848,314.7168 C3848,314.7168 3848,314.7168 3848,1329.7168 C3848,1389.3268 3846.4,1458.3368 3845.22,1501.0168 " fill="none" id="Show-to-Time" style="stroke:#181818;stroke-width:1.0;"/><polygon fill="#181818" points="3845.08,1506.0868,3849.3354,1497.2047,3845.2228,1501.0888,3841.3387,1496.9762,3845.08,1506.0868" style="stroke:#181818;stroke-width:1.0;"/><text fill="#000000" font-family="sans-serif" font-size="20" lengthAdjust="spacing" textLength="46" x="3849" y="850.2813">time</text><text fill="#000000" font-family="sans-serif" font-size="20" lengthAdjust="spacing" textLength="13" x="3846.3828" y="1493.4407">1</text></g><!--link Maintenance to Date--><g id="link_Maintenance_Date"><path codeLine="214" d="M588.35,1365.2568 C603.79,1374.7768 621.44,1383.8968 639,1389.2168 C675.89,1400.3968 1293.47,1421.2268 1332,1422.2168 C1347.17,1422.6068 3503.03,1424.3068 3517,1430.2168 C3551.55,1444.8368 3580.64,1476.2968 3600.05,1502.0868 " fill="none" id="Maintenance-to-Date" style="stroke:#181818;stroke-width:1.0;"/><polygon fill="#181818" points="3603.08,1506.1768,3600.9184,1496.5681,3600.096,1502.1648,3594.4993,1501.3425,3603.08,1506.1768" style="stroke:#181818;stroke-width:1.0;"/><text fill="#000000" font-family="sans-serif" font-size="20" lengthAdjust="spacing" textLength="45" x="1333" y="1416.7813">date</text><text fill="#000000" font-family="sans-serif" font-size="20" lengthAdjust="spacing" textLength="13" x="3585.0234" y="1493.5461">1</text></g><!--SRC=[dLV1Rjiu4BtxAmXV0kmYGNUFWc6WI59WiKqRs4Ml1IrDP6uaqgKefzuY_zwXI56aHCjCVR0fwd4uy-RDa6wU6JzGIUjAvCzGa0AUQ5kf3uAhBViVoD_l5ei3pPzf2MHvspPAr239agnMj2mbb5J1Uar-BWX-yees3N6WrUgUAwPE-7wraaAezThWNXSUV0C72GrmHHKxWhSeWdrV58Xj4FILLYsGpxl_88-R_KhLfxRUTMxCW86tjVDuYpwqITOVHSCK4tmUU-Mek5wJ7zsKco7NEBVyw-RcZ-MOWep8VW8JiZk52yswfHTWHevKnK4zOHcXPXI7ZGZ8IDCDR1GZzrmiutbhp76JaOCTBXQldehkfE0GaP37xp_yY7Q5FCthmLXAqza3PSWdfpo_838FU0TDBjdXSgOx6NaBlvmEaAAZ1r50bGBSWcIqIbPqHqowd3UYLOnVyFZAiEtIRnzjrgq9p3d89o7h9eBnl78Icw8wJZ9Iwv_8Qvy9jE8znMmDASb8omkGfO1UruF8N4p3bBY-DhOis9UFWmUJqoqz-MJOMDr3obgje8me_0vgvmChMtcXU2pcR5depvyaHtup35X1QQapyqUGJUVmdMXt5NXll0YmjhTACbv6QdBxyMrbSuiXbARK4yf0VNxw5qulGXP9ohx_aLTjmux8mtpLenUq4cLxeJbWTBWdAz1d1A8MZom73sd4OZFWTD8_3os_arQ6IQYnHmvTFW0kHrnEDJI2zqoYNJkAeG8EC_9iHp6enrv6O7Ze6qAOwg4pXFCtDowQdZjzP9bHNum3_yDPwQPqCHhNBDfFgyC7awEJRN0VY191IMttucLSK44zlKtEsbnwv_qeC5Nd3Pl2gn2YMbskavgi12-dxm9_adtHdYV7Qgjcyt0hgehkXAJODYUrOvnaHTXe9hlErvn6RE1x2uqwiy5thhuLkgAQ2nizIe7rHgjp6rxvUpbX1PDQME-w6hR5egzhtRk6S7Y9Bz3g3xhdk99ZAyRaucdNxcgcl5jXT9cJlFLh7juh44_kYkPm5ZSwjmUwGfxy9cS8qeSqcjBdd7WQuvPUlI3GZUEusMOuGVV9paW979139EA5gVqK7M4wtqFHLeQw8LQddo3cOJPkptV0oyHacKVxMP-dYqPvyLhRTaybhW-QsHTM9zrCFz4qt7rDMT8Dzd6FzPboWRLDrvomi_-kDWyaIDjmSeposNEbWye8n-zPM1SJdXZwPnRenOJbCpoyzPJIIK51jvAQVqk_yxUhIvWNt1cOoPSVtBc_SLw-Oi6bTKeR7F6YEziWTSOx7KkbrrngCMw5laPCNzfjrM0f-Gf_rzrGEhElYry0]--></g></svg>