<?xml version="1.0" encoding="UTF-8" standalone="no"?><svg xmlns="http://www.w3.org/2000/svg" xmlns:xlink="http://www.w3.org/1999/xlink" contentStyleType="text/css" height="377px" preserveAspectRatio="none" style="width:943px;height:377px;background:#FFFFFF;" version="1.1" viewBox="0 0 943 377" width="943px" zoomAndPan="magnify"><defs/><g><!--cluster CRMCollaborator --><g id="cluster_CRMCollaborator "><path d="M8.5,7.2168 L209.5,7.2168 A3.75,3.75 0 0 1 212,9.7168 L219,36.498 L257.5,36.498 A2.5,2.5 0 0 1 260,38.998 L260,367.7168 A2.5,2.5 0 0 1 257.5,370.2168 L8.5,370.2168 A2.5,2.5 0 0 1 6,367.7168 L6,9.7168 A2.5,2.5 0 0 1 8.5,7.2168 " fill="none" style="stroke:#000000;stroke-width:1.5;"/><line style="stroke:#000000;stroke-width:1.5;" x1="6" x2="219" y1="36.498" y2="36.498"/><text fill="#000000" font-family="sans-serif" font-size="20" font-weight="bold" lengthAdjust="spacing" textLength="193" x="10" y="27.7813">CRMCollaborator</text><text fill="#000000" font-family="sans-serif" font-size="20" font-style="italic" lengthAdjust="spacing" textLength="127" x="73.5" y="57.0625">«aggregate»</text></g><!--cluster Shared--><g id="cluster_Shared"><path d="M286.5,239.2168 L367.5,239.2168 A3.75,3.75 0 0 1 370,241.7168 L377,268.498 L933.5,268.498 A2.5,2.5 0 0 1 936,270.998 L936,367.7168 A2.5,2.5 0 0 1 933.5,370.2168 L286.5,370.2168 A2.5,2.5 0 0 1 284,367.7168 L284,241.7168 A2.5,2.5 0 0 1 286.5,239.2168 " fill="none" style="stroke:#000000;stroke-width:1.5;"/><line style="stroke:#000000;stroke-width:1.5;" x1="284" x2="377" y1="268.498" y2="268.498"/><text fill="#000000" font-family="sans-serif" font-size="20" font-weight="bold" lengthAdjust="spacing" textLength="80" x="288" y="259.7813">Shared</text></g><!--class CRMCollaborator--><g id="elem_CRMCollaborator"><rect codeLine="4" fill="#F1F1F1" height="95.8438" id="CRMCollaborator" rx="2.5" ry="2.5" style="stroke:#181818;stroke-width:0.5;" width="202" x="42" y="72.2168"/><ellipse cx="58" cy="112.1387" fill="#ADD1B2" rx="12" ry="12" style="stroke:#181818;stroke-width:1.0;"/><path d="M61.0625,119.2168 Q60.375,119.5762 59.625,119.748 Q58.875,119.9199 58.0469,119.9199 Q55.0938,119.9199 53.5313,117.9824 Q51.9844,116.0293 51.9844,112.3574 Q51.9844,108.6855 53.5313,106.748 Q55.0938,104.7949 58.0469,104.7949 Q58.875,104.7949 59.625,104.9668 Q60.3906,105.1387 61.0625,105.498 L61.0625,108.7012 Q60.3125,108.0137 59.6094,107.7012 Q58.9219,107.3887 58.1719,107.3887 Q56.5938,107.3887 55.7813,108.6387 Q54.9844,109.8887 54.9844,112.3574 Q54.9844,114.8262 55.7813,116.0762 Q56.5938,117.3262 58.1719,117.3262 Q58.9219,117.3262 59.6094,117.0137 Q60.3125,116.7012 61.0625,116.0137 L61.0625,119.2168 Z " fill="#000000"/><text fill="#000000" font-family="sans-serif" font-size="20" font-style="italic" lengthAdjust="spacing" textLength="84" x="115" y="95.7813">«Entity»</text><text fill="#000000" font-family="sans-serif" font-size="20" font-style="italic" lengthAdjust="spacing" textLength="64" x="125" y="119.0625">«root»</text><text fill="#000000" font-family="sans-serif" font-size="20" lengthAdjust="spacing" textLength="168" x="73" y="142.3438">CRMCollaborator</text><line style="stroke:#181818;stroke-width:0.5;" x1="43" x2="243" y1="152.0605" y2="152.0605"/><line style="stroke:#181818;stroke-width:0.5;" x1="43" x2="243" y1="160.0605" y2="160.0605"/></g><!--class IDCRMCollaborator--><g id="elem_IDCRMCollaborator"><rect codeLine="7" fill="#F1F1F1" height="72.5625" id="IDCRMCollaborator" rx="2.5" ry="2.5" style="stroke:#181818;stroke-width:0.5;" width="223" x="21.5" y="281.2168"/><ellipse cx="37.5" cy="309.498" fill="#ADD1B2" rx="12" ry="12" style="stroke:#181818;stroke-width:1.0;"/><path d="M40.5625,316.5762 Q39.875,316.9355 39.125,317.1074 Q38.375,317.2793 37.5469,317.2793 Q34.5938,317.2793 33.0313,315.3418 Q31.4844,313.3887 31.4844,309.7168 Q31.4844,306.0449 33.0313,304.1074 Q34.5938,302.1543 37.5469,302.1543 Q38.375,302.1543 39.125,302.3262 Q39.8906,302.498 40.5625,302.8574 L40.5625,306.0605 Q39.8125,305.373 39.1094,305.0605 Q38.4219,304.748 37.6719,304.748 Q36.0938,304.748 35.2813,305.998 Q34.4844,307.248 34.4844,309.7168 Q34.4844,312.1855 35.2813,313.4355 Q36.0938,314.6855 37.6719,314.6855 Q38.4219,314.6855 39.1094,314.373 Q39.8125,314.0605 40.5625,313.373 L40.5625,316.5762 Z " fill="#000000"/><text fill="#000000" font-family="sans-serif" font-size="20" font-style="italic" lengthAdjust="spacing" textLength="153" x="70.5" y="304.7813">«Value Object»</text><text fill="#000000" font-family="sans-serif" font-size="20" lengthAdjust="spacing" textLength="189" x="52.5" y="328.0625">IDCRMCollaborator</text><line style="stroke:#181818;stroke-width:0.5;" x1="22.5" x2="243.5" y1="337.7793" y2="337.7793"/><line style="stroke:#181818;stroke-width:0.5;" x1="22.5" x2="243.5" y1="345.7793" y2="345.7793"/></g><!--class Name--><g id="elem_Name"><rect codeLine="16" fill="#F1F1F1" height="72.5625" id="Name" rx="2.5" ry="2.5" style="stroke:#181818;stroke-width:0.5;" width="183" x="300.5" y="281.2168"/><ellipse cx="316.5" cy="309.498" fill="#ADD1B2" rx="12" ry="12" style="stroke:#181818;stroke-width:1.0;"/><path d="M319.5625,316.5762 Q318.875,316.9355 318.125,317.1074 Q317.375,317.2793 316.5469,317.2793 Q313.5938,317.2793 312.0313,315.3418 Q310.4844,313.3887 310.4844,309.7168 Q310.4844,306.0449 312.0313,304.1074 Q313.5938,302.1543 316.5469,302.1543 Q317.375,302.1543 318.125,302.3262 Q318.8906,302.498 319.5625,302.8574 L319.5625,306.0605 Q318.8125,305.373 318.1094,305.0605 Q317.4219,304.748 316.6719,304.748 Q315.0938,304.748 314.2813,305.998 Q313.4844,307.248 313.4844,309.7168 Q313.4844,312.1855 314.2813,313.4355 Q315.0938,314.6855 316.6719,314.6855 Q317.4219,314.6855 318.1094,314.373 Q318.8125,314.0605 319.5625,313.373 L319.5625,316.5762 Z " fill="#000000"/><text fill="#000000" font-family="sans-serif" font-size="20" font-style="italic" lengthAdjust="spacing" textLength="153" x="329.5" y="304.7813">«Value Object»</text><text fill="#000000" font-family="sans-serif" font-size="20" lengthAdjust="spacing" textLength="59" x="376.5" y="328.0625">Name</text><line style="stroke:#181818;stroke-width:0.5;" x1="301.5" x2="482.5" y1="337.7793" y2="337.7793"/><line style="stroke:#181818;stroke-width:0.5;" x1="301.5" x2="482.5" y1="345.7793" y2="345.7793"/></g><!--class Email--><g id="elem_Email"><rect codeLine="19" fill="#F1F1F1" height="72.5625" id="Email" rx="2.5" ry="2.5" style="stroke:#181818;stroke-width:0.5;" width="183" x="518.5" y="281.2168"/><ellipse cx="534.5" cy="309.498" fill="#ADD1B2" rx="12" ry="12" style="stroke:#181818;stroke-width:1.0;"/><path d="M537.5625,316.5762 Q536.875,316.9355 536.125,317.1074 Q535.375,317.2793 534.5469,317.2793 Q531.5938,317.2793 530.0313,315.3418 Q528.4844,313.3887 528.4844,309.7168 Q528.4844,306.0449 530.0313,304.1074 Q531.5938,302.1543 534.5469,302.1543 Q535.375,302.1543 536.125,302.3262 Q536.8906,302.498 537.5625,302.8574 L537.5625,306.0605 Q536.8125,305.373 536.1094,305.0605 Q535.4219,304.748 534.6719,304.748 Q533.0938,304.748 532.2813,305.998 Q531.4844,307.248 531.4844,309.7168 Q531.4844,312.1855 532.2813,313.4355 Q533.0938,314.6855 534.6719,314.6855 Q535.4219,314.6855 536.1094,314.373 Q536.8125,314.0605 537.5625,313.373 L537.5625,316.5762 Z " fill="#000000"/><text fill="#000000" font-family="sans-serif" font-size="20" font-style="italic" lengthAdjust="spacing" textLength="153" x="547.5" y="304.7813">«Value Object»</text><text fill="#000000" font-family="sans-serif" font-size="20" lengthAdjust="spacing" textLength="57" x="595.5" y="328.0625">Email</text><line style="stroke:#181818;stroke-width:0.5;" x1="519.5" x2="700.5" y1="337.7793" y2="337.7793"/><line style="stroke:#181818;stroke-width:0.5;" x1="519.5" x2="700.5" y1="345.7793" y2="345.7793"/></g><!--class PhoneNumber--><g id="elem_PhoneNumber"><rect codeLine="22" fill="#F1F1F1" height="72.5625" id="PhoneNumber" rx="2.5" ry="2.5" style="stroke:#181818;stroke-width:0.5;" width="183" x="736.5" y="281.2168"/><ellipse cx="752.5" cy="309.498" fill="#ADD1B2" rx="12" ry="12" style="stroke:#181818;stroke-width:1.0;"/><path d="M755.5625,316.5762 Q754.875,316.9355 754.125,317.1074 Q753.375,317.2793 752.5469,317.2793 Q749.5938,317.2793 748.0313,315.3418 Q746.4844,313.3887 746.4844,309.7168 Q746.4844,306.0449 748.0313,304.1074 Q749.5938,302.1543 752.5469,302.1543 Q753.375,302.1543 754.125,302.3262 Q754.8906,302.498 755.5625,302.8574 L755.5625,306.0605 Q754.8125,305.373 754.1094,305.0605 Q753.4219,304.748 752.6719,304.748 Q751.0938,304.748 750.2813,305.998 Q749.4844,307.248 749.4844,309.7168 Q749.4844,312.1855 750.2813,313.4355 Q751.0938,314.6855 752.6719,314.6855 Q753.4219,314.6855 754.1094,314.373 Q754.8125,314.0605 755.5625,313.373 L755.5625,316.5762 Z " fill="#000000"/><text fill="#000000" font-family="sans-serif" font-size="20" font-style="italic" lengthAdjust="spacing" textLength="153" x="765.5" y="304.7813">«Value Object»</text><text fill="#000000" font-family="sans-serif" font-size="20" lengthAdjust="spacing" textLength="143" x="770.5" y="328.0625">PhoneNumber</text><line style="stroke:#181818;stroke-width:0.5;" x1="737.5" x2="918.5" y1="337.7793" y2="337.7793"/><line style="stroke:#181818;stroke-width:0.5;" x1="737.5" x2="918.5" y1="345.7793" y2="345.7793"/></g><!--link CRMCollaborator to IDCRMCollaborator--><g id="link_CRMCollaborator_IDCRMCollaborator"><path codeLine="11" d="M140.58,168.5468 C138.9,201.3368 136.69,244.5568 135.09,275.8568 " fill="none" id="CRMCollaborator-to-IDCRMCollaborator" style="stroke:#181818;stroke-width:1.0;"/><polygon fill="#181818" points="134.82,281.1568,139.2783,272.3748,135.0775,276.1634,131.2889,271.9627,134.82,281.1568" style="stroke:#181818;stroke-width:1.0;"/><text fill="#000000" font-family="sans-serif" font-size="20" lengthAdjust="spacing" textLength="19" x="140" y="217.7813">id</text><text fill="#000000" font-family="sans-serif" font-size="20" lengthAdjust="spacing" textLength="13" x="121.0156" y="268.5227">1</text></g><!--link CRMCollaborator to Name--><g id="link_CRMCollaborator_Name"><path codeLine="26" d="M202.96,168.2968 C245.58,201.7568 302.16,246.1768 342.28,277.6768 " fill="none" id="CRMCollaborator-to-Name" style="stroke:#181818;stroke-width:1.0;"/><polygon fill="#181818" points="346.6,281.0668,342.0126,272.3515,342.6749,277.9695,337.0569,278.6318,346.6,281.0668" style="stroke:#181818;stroke-width:1.0;"/><text fill="#000000" font-family="sans-serif" font-size="20" lengthAdjust="spacing" textLength="57" x="269" y="217.7813">name</text><text fill="#000000" font-family="sans-serif" font-size="20" lengthAdjust="spacing" textLength="13" x="324.6797" y="268.4172">1</text></g><!--link CRMCollaborator to Email--><g id="link_CRMCollaborator_Email"><path codeLine="27" d="M244.07,141.7868 C317.98,159.2768 419.17,188.4468 501,231.2168 C524.68,243.5968 548.34,261.3268 567.53,277.4468 " fill="none" id="CRMCollaborator-to-Email" style="stroke:#181818;stroke-width:1.0;"/><polygon fill="#181818" points="571.8,281.0668,567.5148,272.1991,567.9836,277.8364,562.3462,278.3053,571.8,281.0668" style="stroke:#181818;stroke-width:1.0;"/><text fill="#000000" font-family="sans-serif" font-size="20" lengthAdjust="spacing" textLength="56" x="484" y="217.7813">email</text><text fill="#000000" font-family="sans-serif" font-size="20" lengthAdjust="spacing" textLength="13" x="551.1172" y="268.4172">1</text></g><!--link CRMCollaborator to PhoneNumber--><g id="link_CRMCollaborator_PhoneNumber"><path codeLine="28" d="M244.19,126.0068 C362.79,134.8468 562.96,159.9468 719,231.2168 C744.02,242.6468 768.44,260.9268 787.81,277.6568 " fill="none" id="CRMCollaborator-to-PhoneNumber" style="stroke:#181818;stroke-width:1.0;"/><polygon fill="#181818" points="791.61,280.9868,787.4684,272.0511,787.8462,277.6953,782.202,278.0731,791.61,280.9868" style="stroke:#181818;stroke-width:1.0;"/><text fill="#000000" font-family="sans-serif" font-size="20" lengthAdjust="spacing" textLength="144" x="691" y="217.7813">phoneNumber</text><text fill="#000000" font-family="sans-serif" font-size="20" lengthAdjust="spacing" textLength="13" x="771.5063" y="268.6227">1</text></g><!--SRC=[bP1B2y8m48Jl-HLBBvu4zLX2BZx0WmyKl6_RjSQcIKbJy87_tRGUr1QAvf0GvXjsPijCwW8jvih46IMGq14hvHP6kxsy4Kn6Z1KOPvWI1DFTQcgKmiXOTCP209nZcbfAqP4GS6SC_8aLbYMqOSxdsabtzHpdrXWdnBt17v-kvQphEw2g23RHcUAsQT2cXm8kZT8Hl1ACW-w046J27k-M-nDQluYlBclCgJ_8YvldADKluFPaDAshFA8V2i9_3Ukm8MX_zs9DrX2eVdh1ZwmX5EzFlJJs1000]--></g></svg>