<svg xmlns="http://www.w3.org/2000/svg" xmlns:xlink="http://www.w3.org/1999/xlink" contentStyleType="text/css" height="589px" preserveAspectRatio="none" style="width:684px;height:589px;background:#FFFFFF;" version="1.1" viewBox="0 0 684 589" width="684px" zoomAndPan="magnify"><defs/><g><!--cluster Customer --><g id="cluster_Customer "><path d="M8.5,6.0137 L78.7344,6.0137 A3.75,3.75 0 0 1 81.2344,8.5137 L88.2344,30.6348 L618.5,30.6348 A2.5,2.5 0 0 1 621,33.1348 L621,432.5137 A2.5,2.5 0 0 1 618.5,435.0137 L8.5,435.0137 A2.5,2.5 0 0 1 6,432.5137 L6,8.5137 A2.5,2.5 0 0 1 8.5,6.0137 " fill="none" style="stroke:#000000;stroke-width:1.5;"/><line style="stroke:#000000;stroke-width:1.5;" x1="6" x2="88.2344" y1="30.6348" y2="30.6348"/><text fill="#000000" font-family="sans-serif" font-size="14" font-weight="bold" lengthAdjust="spacing" textLength="65.3447" x="10" y="23.1211">Customer</text><text fill="#000000" font-family="sans-serif" font-size="14" font-style="italic" lengthAdjust="spacing" textLength="78.627" x="278.1865" y="47.7422">&#171;aggregate&#187;</text></g><!--cluster Shared--><g id="cluster_Shared"><path d="M223.5,468.0137 L271.9619,468.0137 A3.75,3.75 0 0 1 274.4619,470.5137 L281.4619,492.6348 L662.5,492.6348 A2.5,2.5 0 0 1 665,495.1348 L665,579.5137 A2.5,2.5 0 0 1 662.5,582.0137 L223.5,582.0137 A2.5,2.5 0 0 1 221,579.5137 L221,470.5137 A2.5,2.5 0 0 1 223.5,468.0137 " fill="none" style="stroke:#000000;stroke-width:1.5;"/><line style="stroke:#000000;stroke-width:1.5;" x1="221" x2="281.4619" y1="492.6348" y2="492.6348"/><text fill="#000000" font-family="sans-serif" font-size="14" font-weight="bold" lengthAdjust="spacing" textLength="47.4619" x="225" y="485.1211">Shared</text></g><!--class Customer--><g id="elem_Customer"><rect codeLine="3" fill="#F1F1F1" height="76.543" id="Customer" rx="2.5" ry="2.5" style="stroke:#181818;stroke-width:0.5;" width="92.6826" x="350.5" y="62.0137"/><ellipse cx="365.5" cy="92.2852" fill="#ADD1B2" rx="11" ry="11" style="stroke:#181818;stroke-width:1.0;"/><path d="M368.2656,88.1602 Q368.4219,87.9414 368.6094,87.832 Q368.7969,87.7227 369.0156,87.7227 Q369.3906,87.7227 369.625,87.9883 Q369.8594,88.2383 369.8594,88.8477 L369.8594,90.3008 Q369.8594,90.9102 369.625,91.1758 Q369.3906,91.4414 369.0156,91.4414 Q368.6719,91.4414 368.4688,91.2383 Q368.2656,91.0508 368.1563,90.5352 Q368.1094,90.1758 367.9219,89.9883 Q367.5938,89.6133 366.9844,89.3945 Q366.375,89.1758 365.75,89.1758 Q364.9844,89.1758 364.3438,89.5039 Q363.7188,89.832 363.2188,90.582 Q362.7344,91.332 362.7344,92.3633 L362.7344,93.457 Q362.7344,94.6914 363.625,95.5195 Q364.5156,96.332 366.1094,96.332 Q367.0469,96.332 367.7031,96.082 Q368.0938,95.9258 368.5156,95.4883 Q368.7813,95.2227 368.9219,95.1445 Q369.0781,95.0664 369.2813,95.0664 Q369.6094,95.0664 369.8594,95.332 Q370.125,95.582 370.125,95.9258 Q370.125,96.2695 369.7813,96.6758 Q369.2813,97.2539 368.4844,97.582 Q367.4063,98.0352 366.1094,98.0352 Q364.5938,98.0352 363.3906,97.4102 Q362.4063,96.9102 361.7188,95.8477 Q361.0313,94.7695 361.0313,93.4883 L361.0313,92.332 Q361.0313,91.0039 361.6406,89.8633 Q362.2656,88.707 363.3594,88.0977 Q364.4531,87.4727 365.6875,87.4727 Q366.4219,87.4727 367.0625,87.6445 Q367.7188,87.8008 368.2656,88.1602 Z " fill="#000000"/><text fill="#000000" font-family="sans-serif" font-size="12" font-style="italic" lengthAdjust="spacing" textLength="43.3594" x="388.1616" y="79.9629">&#171;Entity&#187;</text><text fill="#000000" font-family="sans-serif" font-size="12" font-style="italic" lengthAdjust="spacing" textLength="34.0254" x="392.8286" y="95.9238">&#171;root&#187;</text><text fill="#000000" font-family="sans-serif" font-size="14" lengthAdjust="spacing" textLength="60.6826" x="379.5" y="114.043">Customer</text><line style="stroke:#181818;stroke-width:0.5;" x1="351.5" x2="442.1826" y1="122.5566" y2="122.5566"/><line style="stroke:#181818;stroke-width:0.5;" x1="351.5" x2="442.1826" y1="130.5566" y2="130.5566"/></g><!--class Representative--><g id="elem_Representative"><rect codeLine="6" fill="#F1F1F1" height="60.582" id="Representative" rx="2.5" ry="2.5" style="stroke:#181818;stroke-width:0.5;" width="126.165" x="334" y="218.0137"/><ellipse cx="349" cy="240.3047" fill="#ADD1B2" rx="11" ry="11" style="stroke:#181818;stroke-width:1.0;"/><path d="M351.7656,236.1797 Q351.9219,235.9609 352.1094,235.8516 Q352.2969,235.7422 352.5156,235.7422 Q352.8906,235.7422 353.125,236.0078 Q353.3594,236.2578 353.3594,236.8672 L353.3594,238.3203 Q353.3594,238.9297 353.125,239.1953 Q352.8906,239.4609 352.5156,239.4609 Q352.1719,239.4609 351.9688,239.2578 Q351.7656,239.0703 351.6563,238.5547 Q351.6094,238.1953 351.4219,238.0078 Q351.0938,237.6328 350.4844,237.4141 Q349.875,237.1953 349.25,237.1953 Q348.4844,237.1953 347.8438,237.5234 Q347.2188,237.8516 346.7188,238.6016 Q346.2344,239.3516 346.2344,240.3828 L346.2344,241.4766 Q346.2344,242.7109 347.125,243.5391 Q348.0156,244.3516 349.6094,244.3516 Q350.5469,244.3516 351.2031,244.1016 Q351.5938,243.9453 352.0156,243.5078 Q352.2813,243.2422 352.4219,243.1641 Q352.5781,243.0859 352.7813,243.0859 Q353.1094,243.0859 353.3594,243.3516 Q353.625,243.6016 353.625,243.9453 Q353.625,244.2891 353.2813,244.6953 Q352.7813,245.2734 351.9844,245.6016 Q350.9063,246.0547 349.6094,246.0547 Q348.0938,246.0547 346.8906,245.4297 Q345.9063,244.9297 345.2188,243.8672 Q344.5313,242.7891 344.5313,241.5078 L344.5313,240.3516 Q344.5313,239.0234 345.1406,237.8828 Q345.7656,236.7266 346.8594,236.1172 Q347.9531,235.4922 349.1875,235.4922 Q349.9219,235.4922 350.5625,235.6641 Q351.2188,235.8203 351.7656,236.1797 Z " fill="#000000"/><text fill="#000000" font-family="sans-serif" font-size="12" font-style="italic" lengthAdjust="spacing" textLength="43.3594" x="388.4028" y="235.9629">&#171;Entity&#187;</text><text fill="#000000" font-family="sans-serif" font-size="14" lengthAdjust="spacing" textLength="94.165" x="363" y="254.082">Representative</text><line style="stroke:#181818;stroke-width:0.5;" x1="335" x2="459.165" y1="262.5957" y2="262.5957"/><line style="stroke:#181818;stroke-width:0.5;" x1="335" x2="459.165" y1="270.5957" y2="270.5957"/></g><!--class Address--><g id="elem_Address"><rect codeLine="9" fill="#F1F1F1" height="60.582" id="Address" rx="2.5" ry="2.5" style="stroke:#181818;stroke-width:0.5;" width="110.0547" x="495" y="218.0137"/><ellipse cx="510" cy="240.3047" fill="#ADD1B2" rx="11" ry="11" style="stroke:#181818;stroke-width:1.0;"/><path d="M512.7656,236.1797 Q512.9219,235.9609 513.1094,235.8516 Q513.2969,235.7422 513.5156,235.7422 Q513.8906,235.7422 514.125,236.0078 Q514.3594,236.2578 514.3594,236.8672 L514.3594,238.3203 Q514.3594,238.9297 514.125,239.1953 Q513.8906,239.4609 513.5156,239.4609 Q513.1719,239.4609 512.9688,239.2578 Q512.7656,239.0703 512.6563,238.5547 Q512.6094,238.1953 512.4219,238.0078 Q512.0938,237.6328 511.4844,237.4141 Q510.875,237.1953 510.25,237.1953 Q509.4844,237.1953 508.8438,237.5234 Q508.2188,237.8516 507.7188,238.6016 Q507.2344,239.3516 507.2344,240.3828 L507.2344,241.4766 Q507.2344,242.7109 508.125,243.5391 Q509.0156,244.3516 510.6094,244.3516 Q511.5469,244.3516 512.2031,244.1016 Q512.5938,243.9453 513.0156,243.5078 Q513.2813,243.2422 513.4219,243.1641 Q513.5781,243.0859 513.7813,243.0859 Q514.1094,243.0859 514.3594,243.3516 Q514.625,243.6016 514.625,243.9453 Q514.625,244.2891 514.2813,244.6953 Q513.7813,245.2734 512.9844,245.6016 Q511.9063,246.0547 510.6094,246.0547 Q509.0938,246.0547 507.8906,245.4297 Q506.9063,244.9297 506.2188,243.8672 Q505.5313,242.7891 505.5313,241.5078 L505.5313,240.3516 Q505.5313,239.0234 506.1406,237.8828 Q506.7656,236.7266 507.8594,236.1172 Q508.9531,235.4922 510.1875,235.4922 Q510.9219,235.4922 511.5625,235.6641 Q512.2188,235.8203 512.7656,236.1797 Z " fill="#000000"/><text fill="#000000" font-family="sans-serif" font-size="12" font-style="italic" lengthAdjust="spacing" textLength="82.0547" x="522" y="235.9629">&#171;Value Object&#187;</text><text fill="#000000" font-family="sans-serif" font-size="14" lengthAdjust="spacing" textLength="51.3584" x="537.3481" y="254.082">Address</text><line style="stroke:#181818;stroke-width:0.5;" x1="496" x2="604.0547" y1="262.5957" y2="262.5957"/><line style="stroke:#181818;stroke-width:0.5;" x1="496" x2="604.0547" y1="270.5957" y2="270.5957"/></g><!--class VatNumber--><g id="elem_VatNumber"><rect codeLine="12" fill="#F1F1F1" height="60.582" id="VatNumber" rx="2.5" ry="2.5" style="stroke:#181818;stroke-width:0.5;" width="110.0547" x="22" y="218.0137"/><ellipse cx="37" cy="240.3047" fill="#ADD1B2" rx="11" ry="11" style="stroke:#181818;stroke-width:1.0;"/><path d="M39.7656,236.1797 Q39.9219,235.9609 40.1094,235.8516 Q40.2969,235.7422 40.5156,235.7422 Q40.8906,235.7422 41.125,236.0078 Q41.3594,236.2578 41.3594,236.8672 L41.3594,238.3203 Q41.3594,238.9297 41.125,239.1953 Q40.8906,239.4609 40.5156,239.4609 Q40.1719,239.4609 39.9688,239.2578 Q39.7656,239.0703 39.6563,238.5547 Q39.6094,238.1953 39.4219,238.0078 Q39.0938,237.6328 38.4844,237.4141 Q37.875,237.1953 37.25,237.1953 Q36.4844,237.1953 35.8438,237.5234 Q35.2188,237.8516 34.7188,238.6016 Q34.2344,239.3516 34.2344,240.3828 L34.2344,241.4766 Q34.2344,242.7109 35.125,243.5391 Q36.0156,244.3516 37.6094,244.3516 Q38.5469,244.3516 39.2031,244.1016 Q39.5938,243.9453 40.0156,243.5078 Q40.2813,243.2422 40.4219,243.1641 Q40.5781,243.0859 40.7813,243.0859 Q41.1094,243.0859 41.3594,243.3516 Q41.625,243.6016 41.625,243.9453 Q41.625,244.2891 41.2813,244.6953 Q40.7813,245.2734 39.9844,245.6016 Q38.9063,246.0547 37.6094,246.0547 Q36.0938,246.0547 34.8906,245.4297 Q33.9063,244.9297 33.2188,243.8672 Q32.5313,242.7891 32.5313,241.5078 L32.5313,240.3516 Q32.5313,239.0234 33.1406,237.8828 Q33.7656,236.7266 34.8594,236.1172 Q35.9531,235.4922 37.1875,235.4922 Q37.9219,235.4922 38.5625,235.6641 Q39.2188,235.8203 39.7656,236.1797 Z " fill="#000000"/><text fill="#000000" font-family="sans-serif" font-size="12" font-style="italic" lengthAdjust="spacing" textLength="82.0547" x="49" y="235.9629">&#171;Value Object&#187;</text><text fill="#000000" font-family="sans-serif" font-size="14" lengthAdjust="spacing" textLength="70.8066" x="54.624" y="254.082">VatNumber</text><line style="stroke:#181818;stroke-width:0.5;" x1="23" x2="131.0547" y1="262.5957" y2="262.5957"/><line style="stroke:#181818;stroke-width:0.5;" x1="23" x2="131.0547" y1="270.5957" y2="270.5957"/></g><!--class CustomerStatus--><g id="elem_CustomerStatus"><rect codeLine="15" fill="#F1F1F1" height="60.582" id="CustomerStatus" rx="2.5" ry="2.5" style="stroke:#181818;stroke-width:0.5;" width="132.3721" x="167" y="218.0137"/><ellipse cx="182" cy="240.3047" fill="#EB937F" rx="11" ry="11" style="stroke:#181818;stroke-width:1.0;"/><path d="M180.8594,241.1016 L180.8594,243.6016 L185.1875,243.6016 L185.1875,242.6797 Q185.1875,242.0703 185.4219,241.8047 Q185.6719,241.5391 186.0469,241.5391 Q186.4219,241.5391 186.6563,241.8047 Q186.8906,242.0703 186.8906,242.6797 L186.8906,245.3047 L178.8906,245.3047 Q178.2656,245.3047 178,245.0703 Q177.75,244.8359 177.75,244.4453 Q177.75,244.0703 178.0156,243.8359 Q178.2813,243.6016 178.8906,243.6016 L179.1563,243.6016 L179.1563,236.9453 L178.8906,236.9453 Q178.2656,236.9453 178,236.7109 Q177.75,236.4766 177.75,236.0859 Q177.75,235.7109 178,235.4766 Q178.2656,235.2422 178.8906,235.2422 L186.5156,235.2422 L186.5156,237.8359 Q186.5156,238.4453 186.2813,238.7109 Q186.0625,238.9609 185.6719,238.9609 Q185.2969,238.9609 185.0625,238.7109 Q184.8281,238.4453 184.8281,237.8359 L184.8281,236.9453 L180.8594,236.9453 L180.8594,239.3984 L182.3438,239.3984 Q182.3438,238.7422 182.4688,238.5547 Q182.7344,238.1484 183.2031,238.1484 Q183.5781,238.1484 183.8125,238.4141 Q184.0469,238.6641 184.0469,239.2734 L184.0469,241.2422 Q184.0469,241.7891 183.9219,241.9766 Q183.6563,242.3672 183.2031,242.3672 Q182.7344,242.3672 182.4688,241.9609 Q182.3438,241.7734 182.3438,241.1016 L180.8594,241.1016 Z " fill="#000000"/><text fill="#000000" font-family="sans-serif" font-size="12" font-style="italic" lengthAdjust="spacing" textLength="82.0547" x="205.1587" y="235.9629">&#171;Value Object&#187;</text><text fill="#000000" font-family="sans-serif" font-size="14" lengthAdjust="spacing" textLength="100.3721" x="196" y="254.082">CustomerStatus</text><line style="stroke:#181818;stroke-width:0.5;" x1="168" x2="298.3721" y1="262.5957" y2="262.5957"/><line style="stroke:#181818;stroke-width:0.5;" x1="168" x2="298.3721" y1="270.5957" y2="270.5957"/></g><!--class Position--><g id="elem_Position"><rect codeLine="18" fill="#F1F1F1" height="60.582" id="Position" rx="2.5" ry="2.5" style="stroke:#181818;stroke-width:0.5;" width="110.0547" x="134" y="358.0137"/><ellipse cx="149" cy="380.3047" fill="#ADD1B2" rx="11" ry="11" style="stroke:#181818;stroke-width:1.0;"/><path d="M151.7656,376.1797 Q151.9219,375.9609 152.1094,375.8516 Q152.2969,375.7422 152.5156,375.7422 Q152.8906,375.7422 153.125,376.0078 Q153.3594,376.2578 153.3594,376.8672 L153.3594,378.3203 Q153.3594,378.9297 153.125,379.1953 Q152.8906,379.4609 152.5156,379.4609 Q152.1719,379.4609 151.9688,379.2578 Q151.7656,379.0703 151.6563,378.5547 Q151.6094,378.1953 151.4219,378.0078 Q151.0938,377.6328 150.4844,377.4141 Q149.875,377.1953 149.25,377.1953 Q148.4844,377.1953 147.8438,377.5234 Q147.2188,377.8516 146.7188,378.6016 Q146.2344,379.3516 146.2344,380.3828 L146.2344,381.4766 Q146.2344,382.7109 147.125,383.5391 Q148.0156,384.3516 149.6094,384.3516 Q150.5469,384.3516 151.2031,384.1016 Q151.5938,383.9453 152.0156,383.5078 Q152.2813,383.2422 152.4219,383.1641 Q152.5781,383.0859 152.7813,383.0859 Q153.1094,383.0859 153.3594,383.3516 Q153.625,383.6016 153.625,383.9453 Q153.625,384.2891 153.2813,384.6953 Q152.7813,385.2734 151.9844,385.6016 Q150.9063,386.0547 149.6094,386.0547 Q148.0938,386.0547 146.8906,385.4297 Q145.9063,384.9297 145.2188,383.8672 Q144.5313,382.7891 144.5313,381.5078 L144.5313,380.3516 Q144.5313,379.0234 145.1406,377.8828 Q145.7656,376.7266 146.8594,376.1172 Q147.9531,375.4922 149.1875,375.4922 Q149.9219,375.4922 150.5625,375.6641 Q151.2188,375.8203 151.7656,376.1797 Z " fill="#000000"/><text fill="#000000" font-family="sans-serif" font-size="12" font-style="italic" lengthAdjust="spacing" textLength="82.0547" x="161" y="375.9629">&#171;Value Object&#187;</text><text fill="#000000" font-family="sans-serif" font-size="14" lengthAdjust="spacing" textLength="49.8066" x="177.124" y="394.082">Position</text><line style="stroke:#181818;stroke-width:0.5;" x1="135" x2="243.0547" y1="402.5957" y2="402.5957"/><line style="stroke:#181818;stroke-width:0.5;" x1="135" x2="243.0547" y1="410.5957" y2="410.5957"/></g><!--class Name--><g id="elem_Name"><rect codeLine="35" fill="#F1F1F1" height="60.582" id="Name" rx="2.5" ry="2.5" style="stroke:#181818;stroke-width:0.5;" width="110.0547" x="539" y="505.0137"/><ellipse cx="554" cy="527.3047" fill="#ADD1B2" rx="11" ry="11" style="stroke:#181818;stroke-width:1.0;"/><path d="M556.7656,523.1797 Q556.9219,522.9609 557.1094,522.8516 Q557.2969,522.7422 557.5156,522.7422 Q557.8906,522.7422 558.125,523.0078 Q558.3594,523.2578 558.3594,523.8672 L558.3594,525.3203 Q558.3594,525.9297 558.125,526.1953 Q557.8906,526.4609 557.5156,526.4609 Q557.1719,526.4609 556.9688,526.2578 Q556.7656,526.0703 556.6563,525.5547 Q556.6094,525.1953 556.4219,525.0078 Q556.0938,524.6328 555.4844,524.4141 Q554.875,524.1953 554.25,524.1953 Q553.4844,524.1953 552.8438,524.5234 Q552.2188,524.8516 551.7188,525.6016 Q551.2344,526.3516 551.2344,527.3828 L551.2344,528.4766 Q551.2344,529.7109 552.125,530.5391 Q553.0156,531.3516 554.6094,531.3516 Q555.5469,531.3516 556.2031,531.1016 Q556.5938,530.9453 557.0156,530.5078 Q557.2813,530.2422 557.4219,530.1641 Q557.5781,530.0859 557.7813,530.0859 Q558.1094,530.0859 558.3594,530.3516 Q558.625,530.6016 558.625,530.9453 Q558.625,531.2891 558.2813,531.6953 Q557.7813,532.2734 556.9844,532.6016 Q555.9063,533.0547 554.6094,533.0547 Q553.0938,533.0547 551.8906,532.4297 Q550.9063,531.9297 550.2188,530.8672 Q549.5313,529.7891 549.5313,528.5078 L549.5313,527.3516 Q549.5313,526.0234 550.1406,524.8828 Q550.7656,523.7266 551.8594,523.1172 Q552.9531,522.4922 554.1875,522.4922 Q554.9219,522.4922 555.5625,522.6641 Q556.2188,522.8203 556.7656,523.1797 Z " fill="#000000"/><text fill="#000000" font-family="sans-serif" font-size="12" font-style="italic" lengthAdjust="spacing" textLength="82.0547" x="566" y="522.9629">&#171;Value Object&#187;</text><text fill="#000000" font-family="sans-serif" font-size="14" lengthAdjust="spacing" textLength="37.3447" x="588.355" y="541.082">Name</text><line style="stroke:#181818;stroke-width:0.5;" x1="540" x2="648.0547" y1="549.5957" y2="549.5957"/><line style="stroke:#181818;stroke-width:0.5;" x1="540" x2="648.0547" y1="557.5957" y2="557.5957"/></g><!--class Email--><g id="elem_Email"><rect codeLine="38" fill="#F1F1F1" height="60.582" id="Email" rx="2.5" ry="2.5" style="stroke:#181818;stroke-width:0.5;" width="110.0547" x="237" y="505.0137"/><ellipse cx="252" cy="527.3047" fill="#ADD1B2" rx="11" ry="11" style="stroke:#181818;stroke-width:1.0;"/><path d="M254.7656,523.1797 Q254.9219,522.9609 255.1094,522.8516 Q255.2969,522.7422 255.5156,522.7422 Q255.8906,522.7422 256.125,523.0078 Q256.3594,523.2578 256.3594,523.8672 L256.3594,525.3203 Q256.3594,525.9297 256.125,526.1953 Q255.8906,526.4609 255.5156,526.4609 Q255.1719,526.4609 254.9688,526.2578 Q254.7656,526.0703 254.6563,525.5547 Q254.6094,525.1953 254.4219,525.0078 Q254.0938,524.6328 253.4844,524.4141 Q252.875,524.1953 252.25,524.1953 Q251.4844,524.1953 250.8438,524.5234 Q250.2188,524.8516 249.7188,525.6016 Q249.2344,526.3516 249.2344,527.3828 L249.2344,528.4766 Q249.2344,529.7109 250.125,530.5391 Q251.0156,531.3516 252.6094,531.3516 Q253.5469,531.3516 254.2031,531.1016 Q254.5938,530.9453 255.0156,530.5078 Q255.2813,530.2422 255.4219,530.1641 Q255.5781,530.0859 255.7813,530.0859 Q256.1094,530.0859 256.3594,530.3516 Q256.625,530.6016 256.625,530.9453 Q256.625,531.2891 256.2813,531.6953 Q255.7813,532.2734 254.9844,532.6016 Q253.9063,533.0547 252.6094,533.0547 Q251.0938,533.0547 249.8906,532.4297 Q248.9063,531.9297 248.2188,530.8672 Q247.5313,529.7891 247.5313,528.5078 L247.5313,527.3516 Q247.5313,526.0234 248.1406,524.8828 Q248.7656,523.7266 249.8594,523.1172 Q250.9531,522.4922 252.1875,522.4922 Q252.9219,522.4922 253.5625,522.6641 Q254.2188,522.8203 254.7656,523.1797 Z " fill="#000000"/><text fill="#000000" font-family="sans-serif" font-size="12" font-style="italic" lengthAdjust="spacing" textLength="82.0547" x="264" y="522.9629">&#171;Value Object&#187;</text><text fill="#000000" font-family="sans-serif" font-size="14" lengthAdjust="spacing" textLength="35.0068" x="287.5239" y="541.082">Email</text><line style="stroke:#181818;stroke-width:0.5;" x1="238" x2="346.0547" y1="549.5957" y2="549.5957"/><line style="stroke:#181818;stroke-width:0.5;" x1="238" x2="346.0547" y1="557.5957" y2="557.5957"/></g><!--class PhoneNumber--><g id="elem_PhoneNumber"><rect codeLine="41" fill="#F1F1F1" height="60.582" id="PhoneNumber" rx="2.5" ry="2.5" style="stroke:#181818;stroke-width:0.5;" width="122.2754" x="382" y="505.0137"/><ellipse cx="397" cy="527.3047" fill="#ADD1B2" rx="11" ry="11" style="stroke:#181818;stroke-width:1.0;"/><path d="M399.7656,523.1797 Q399.9219,522.9609 400.1094,522.8516 Q400.2969,522.7422 400.5156,522.7422 Q400.8906,522.7422 401.125,523.0078 Q401.3594,523.2578 401.3594,523.8672 L401.3594,525.3203 Q401.3594,525.9297 401.125,526.1953 Q400.8906,526.4609 400.5156,526.4609 Q400.1719,526.4609 399.9688,526.2578 Q399.7656,526.0703 399.6563,525.5547 Q399.6094,525.1953 399.4219,525.0078 Q399.0938,524.6328 398.4844,524.4141 Q397.875,524.1953 397.25,524.1953 Q396.4844,524.1953 395.8438,524.5234 Q395.2188,524.8516 394.7188,525.6016 Q394.2344,526.3516 394.2344,527.3828 L394.2344,528.4766 Q394.2344,529.7109 395.125,530.5391 Q396.0156,531.3516 397.6094,531.3516 Q398.5469,531.3516 399.2031,531.1016 Q399.5938,530.9453 400.0156,530.5078 Q400.2813,530.2422 400.4219,530.1641 Q400.5781,530.0859 400.7813,530.0859 Q401.1094,530.0859 401.3594,530.3516 Q401.625,530.6016 401.625,530.9453 Q401.625,531.2891 401.2813,531.6953 Q400.7813,532.2734 399.9844,532.6016 Q398.9063,533.0547 397.6094,533.0547 Q396.0938,533.0547 394.8906,532.4297 Q393.9063,531.9297 393.2188,530.8672 Q392.5313,529.7891 392.5313,528.5078 L392.5313,527.3516 Q392.5313,526.0234 393.1406,524.8828 Q393.7656,523.7266 394.8594,523.1172 Q395.9531,522.4922 397.1875,522.4922 Q397.9219,522.4922 398.5625,522.6641 Q399.2188,522.8203 399.7656,523.1797 Z " fill="#000000"/><text fill="#000000" font-family="sans-serif" font-size="12" font-style="italic" lengthAdjust="spacing" textLength="82.0547" x="415.1104" y="522.9629">&#171;Value Object&#187;</text><text fill="#000000" font-family="sans-serif" font-size="14" lengthAdjust="spacing" textLength="90.2754" x="411" y="541.082">PhoneNumber</text><line style="stroke:#181818;stroke-width:0.5;" x1="383" x2="503.2754" y1="549.5957" y2="549.5957"/><line style="stroke:#181818;stroke-width:0.5;" x1="383" x2="503.2754" y1="557.5957" y2="557.5957"/></g><!--link Customer to Representative--><g id="link_Customer_Representative"><path codeLine="22" d="M397,139.1137 C397,163.6137 397,189.1337 397,211.8637 " fill="none" id="Customer-to-Representative" style="stroke:#181818;stroke-width:1.0;"/><polygon fill="#181818" points="397,217.8637,401,208.8637,397,212.8637,393,208.8637,397,217.8637" style="stroke:#181818;stroke-width:1.0;"/><text fill="#000000" font-family="sans-serif" font-size="13" lengthAdjust="spacing" textLength="86.7217" x="398" y="184.042">represented by</text><text fill="#000000" font-family="sans-serif" font-size="13" lengthAdjust="spacing" textLength="19.5127" x="376.0765" y="206.8904">1..*</text></g><!--link Customer to VatNumber--><g id="link_Customer_VatNumber"><path codeLine="23" d="M350.47,122.7437 C292.57,149.1537 199.2988,191.7133 137.6388,219.8433 " fill="none" id="Customer-to-VatNumber" style="stroke:#181818;stroke-width:1.0;"/><polygon fill="#181818" points="132.18,222.3337,142.0284,222.2373,136.729,220.2584,138.7079,214.959,132.18,222.3337" style="stroke:#181818;stroke-width:1.0;"/><text fill="#000000" font-family="sans-serif" font-size="13" lengthAdjust="spacing" textLength="17.3418" x="247" y="184.042">vat</text><text fill="#000000" font-family="sans-serif" font-size="13" lengthAdjust="spacing" textLength="7.23" x="140.0769" y="214.7495">1</text></g><!--link Customer to Address--><g id="link_Customer_Address"><path codeLine="24" d="M443.84,129.9037 C460.3,141.0237 478.34,154.5737 493,169.0137 C507.76,183.5537 518.17,197.2459 528.46,212.7359 " fill="none" id="Customer-to-Address" style="stroke:#181818;stroke-width:1.0;"/><polygon fill="#181818" points="531.78,217.7337,530.1318,208.0237,529.0133,213.5689,523.4682,212.4504,531.78,217.7337" style="stroke:#181818;stroke-width:1.0;"/><text fill="#000000" font-family="sans-serif" font-size="13" lengthAdjust="spacing" textLength="46.249" x="510" y="184.042">address</text><text fill="#000000" font-family="sans-serif" font-size="13" lengthAdjust="spacing" textLength="7.23" x="520.3183" y="206.7336">1</text></g><!--link Customer to CustomerStatus--><g id="link_Customer_CustomerStatus"><path codeLine="25" d="M354.77,139.1137 C327.24,163.6137 296.3113,191.1439 270.7813,213.8739 " fill="none" id="Customer-to-CustomerStatus" style="stroke:#181818;stroke-width:1.0;"/><polygon fill="#181818" points="266.3,217.8637,275.6817,214.8665,270.0344,214.5389,270.362,208.8915,266.3,217.8637" style="stroke:#181818;stroke-width:1.0;"/><text fill="#000000" font-family="sans-serif" font-size="13" lengthAdjust="spacing" textLength="34.6836" x="320" y="184.042">status</text><text fill="#000000" font-family="sans-serif" font-size="13" lengthAdjust="spacing" textLength="7.23" x="265.4316" y="206.8904">1</text></g><!--link Representative to Position--><g id="link_Representative_Position"><path codeLine="28" d="M333.67,272.8337 C292.59,288.1237 245.98,305.8537 242,309.0137 C225.65,322.0137 215.4138,336.1998 206.2938,352.4698 " fill="none" id="Representative-to-Position" style="stroke:#181818;stroke-width:1.0;"/><polygon fill="#181818" points="203.36,357.7037,211.2499,351.8088,205.8048,353.3421,204.2714,347.8971,203.36,357.7037" style="stroke:#181818;stroke-width:1.0;"/><text fill="#000000" font-family="sans-serif" font-size="13" lengthAdjust="spacing" textLength="44.8081" x="243" y="324.042">position</text><text fill="#000000" font-family="sans-serif" font-size="13" lengthAdjust="spacing" textLength="7.23" x="198.618" y="346.6974">1</text></g><!--link Customer to Name--><g id="link_Customer_Name"><path codeLine="45" d="M443.7,108.6637 C500,120.2337 591.03,149.1437 623,218.0137 C668.08,315.1037 630.3025,441.1916 608.3325,499.2816 " fill="none" id="Customer-to-Name" style="stroke:#181818;stroke-width:1.0;"/><polygon fill="#181818" points="606.21,504.8937,613.1351,497.8906,607.9788,500.217,605.6524,495.0606,606.21,504.8937" style="stroke:#181818;stroke-width:1.0;"/><text fill="#000000" font-family="sans-serif" font-size="13" lengthAdjust="spacing" textLength="32.519" x="644" y="324.042">name</text><text fill="#000000" font-family="sans-serif" font-size="13" lengthAdjust="spacing" textLength="7.23" x="601.0245" y="493.9266">1</text></g><!--link Representative to Name--><g id="link_Representative_Name"><path codeLine="48" d="M439.31,279.0537 C465.34,298.9537 497.84,327.1337 520,358.0137 C553.32,404.4437 573.5784,462.3971 584.3984,499.2171 " fill="none" id="Representative-to-Name" style="stroke:#181818;stroke-width:1.0;"/><polygon fill="#181818" points="586.09,504.9737,587.3903,495.211,584.6803,500.1765,579.7148,497.4665,586.09,504.9737" style="stroke:#181818;stroke-width:1.0;"/><text fill="#000000" font-family="sans-serif" font-size="13" lengthAdjust="spacing" textLength="32.519" x="565" y="394.042">name</text><text fill="#000000" font-family="sans-serif" font-size="13" lengthAdjust="spacing" textLength="7.23" x="576.6132" y="493.5395">1</text></g><!--link Representative to Email--><g id="link_Representative_Email"><path codeLine="49" d="M386.06,279.2037 C365.89,333.9537 325.1443,444.5636 304.9943,499.2536 " fill="none" id="Representative-to-Email" style="stroke:#181818;stroke-width:1.0;"/><polygon fill="#181818" points="302.92,504.8837,309.7848,497.8215,304.6486,500.192,302.2781,495.0558,302.92,504.8837" style="stroke:#181818;stroke-width:1.0;"/><text fill="#000000" font-family="sans-serif" font-size="13" lengthAdjust="spacing" textLength="31.0654" x="357" y="394.042">email</text><text fill="#000000" font-family="sans-serif" font-size="13" lengthAdjust="spacing" textLength="7.23" x="297.4685" y="493.9145">1</text></g><!--link Representative to PhoneNumber--><g id="link_Representative_PhoneNumber"><path codeLine="50" d="M401.79,279.2037 C410.63,333.9537 428.4337,444.2704 437.2637,498.9604 " fill="none" id="Representative-to-PhoneNumber" style="stroke:#181818;stroke-width:1.0;"/><polygon fill="#181818" points="438.22,504.8837,440.7343,495.3612,437.423,499.9476,432.8366,496.6363,438.22,504.8837" style="stroke:#181818;stroke-width:1.0;"/><text fill="#000000" font-family="sans-serif" font-size="13" lengthAdjust="spacing" textLength="82.3862" x="429" y="394.042">phoneNumber</text><text fill="#000000" font-family="sans-serif" font-size="13" lengthAdjust="spacing" textLength="7.23" x="429.5076" y="493.9145">1</text></g><!--SRC=[dP9DQyCm38Rl-HKYby4WXLsD2OpHQpTMw5r9H9ejiOC_oahPVv-R3yyBmOJvObb-9VG-Te_b9zO4wOlLHdQa80NEiQuLrMWep-6MW5jbYrg35t6-5wOnLtVFkPBIvFce-qu2-JlrYZG9WwQvK52qedskAgVLJdJ2rXAy5XzKhhSzeJdOhXZ6Y8X9sCvFV7Gps4tTtwHkJ2D5NFlWKMGvV0qfdu7CvTAdtUunNI9WeEO4LL1S_nQETMbWaC45pRfe1iO0nsXTjW30G0_1v68ndlUop4_DF1i6_HGcYIEIzDCtEfvHEMEt4EW1Eze2VjzXqsvweRCKjEK7n1ufosPJmtmCXDl-HoLi496D_XZGVOzI3lmvqB-dE-iV]--></g></svg>