<?xml version="1.0" encoding="us-ascii" standalone="no"?><svg xmlns="http://www.w3.org/2000/svg" xmlns:xlink="http://www.w3.org/1999/xlink" contentStyleType="text/css" height="727px" preserveAspectRatio="none" style="width:1380px;height:727px;background:#FFFFFF;" version="1.1" viewBox="0 0 1380 727" width="1380px" zoomAndPan="magnify"><defs/><g><!--cluster Drone --><g id="cluster_Drone "><path d="M8.5,6.0137 L56.5,6.0137 A3.75,3.75 0 0 1 59,8.5137 L66,30.6348 L301.5,30.6348 A2.5,2.5 0 0 1 304,33.1348 L304,342.5137 A2.5,2.5 0 0 1 301.5,345.0137 L8.5,345.0137 A2.5,2.5 0 0 1 6,342.5137 L6,8.5137 A2.5,2.5 0 0 1 8.5,6.0137 " fill="none" style="stroke:#000000;stroke-width:1.5;"/><line style="stroke:#000000;stroke-width:1.5;" x1="6" x2="66" y1="30.6348" y2="30.6348"/><text fill="#000000" font-family="sans-serif" font-size="14" font-weight="bold" lengthAdjust="spacing" textLength="43" x="10" y="23.1211">Drone</text><text fill="#000000" font-family="sans-serif" font-size="14" font-style="italic" lengthAdjust="spacing" textLength="81" x="118.5" y="47.7422">&#171;aggregate&#187;</text></g><!--cluster ModelOfDrone --><g id="cluster_ModelOfDrone "><path d="M330.5,204.0137 L438.5,204.0137 A3.75,3.75 0 0 1 441,206.5137 L448,228.6348 L964.5,228.6348 A2.5,2.5 0 0 1 967,231.1348 L967,490.5137 A2.5,2.5 0 0 1 964.5,493.0137 L330.5,493.0137 A2.5,2.5 0 0 1 328,490.5137 L328,206.5137 A2.5,2.5 0 0 1 330.5,204.0137 " fill="none" style="stroke:#000000;stroke-width:1.5;"/><line style="stroke:#000000;stroke-width:1.5;" x1="328" x2="448" y1="228.6348" y2="228.6348"/><text fill="#000000" font-family="sans-serif" font-size="14" font-weight="bold" lengthAdjust="spacing" textLength="103" x="332" y="221.1211">ModelOfDrone</text><text fill="#000000" font-family="sans-serif" font-size="14" font-style="italic" lengthAdjust="spacing" textLength="81" x="611" y="245.7422">&#171;aggregate&#187;</text></g><!--cluster Maintenance --><g id="cluster_Maintenance "><path d="M1154.5,204.0137 L1250.5,204.0137 A3.75,3.75 0 0 1 1253,206.5137 L1260,228.6348 L1327.5,228.6348 A2.5,2.5 0 0 1 1330,231.1348 L1330,490.5137 A2.5,2.5 0 0 1 1327.5,493.0137 L1154.5,493.0137 A2.5,2.5 0 0 1 1152,490.5137 L1152,206.5137 A2.5,2.5 0 0 1 1154.5,204.0137 " fill="none" style="stroke:#000000;stroke-width:1.5;"/><line style="stroke:#000000;stroke-width:1.5;" x1="1152" x2="1260" y1="228.6348" y2="228.6348"/><text fill="#000000" font-family="sans-serif" font-size="14" font-weight="bold" lengthAdjust="spacing" textLength="91" x="1156" y="221.1211">Maintenance</text><text fill="#000000" font-family="sans-serif" font-size="14" font-style="italic" lengthAdjust="spacing" textLength="81" x="1204.5" y="245.7422">&#171;aggregate&#187;</text></g><!--cluster Shared--><g id="cluster_Shared"><path d="M933.5,606.0137 L984.5,606.0137 A3.75,3.75 0 0 1 987,608.5137 L994,630.6348 L1370.5,630.6348 A2.5,2.5 0 0 1 1373,633.1348 L1373,717.5137 A2.5,2.5 0 0 1 1370.5,720.0137 L933.5,720.0137 A2.5,2.5 0 0 1 931,717.5137 L931,608.5137 A2.5,2.5 0 0 1 933.5,606.0137 " fill="none" style="stroke:#000000;stroke-width:1.5;"/><line style="stroke:#000000;stroke-width:1.5;" x1="931" x2="994" y1="630.6348" y2="630.6348"/><text fill="#000000" font-family="sans-serif" font-size="14" font-weight="bold" lengthAdjust="spacing" textLength="50" x="935" y="623.1211">Shared</text></g><!--class Drone--><g id="elem_Drone"><rect codeLine="4" fill="#F1F1F1" height="76.543" id="Drone" rx="2.5" ry="2.5" style="stroke:#181818;stroke-width:0.5;" width="72" x="210" y="62.0137"/><ellipse cx="225" cy="92.2852" fill="#ADD1B2" rx="11" ry="11" style="stroke:#181818;stroke-width:1.0;"/><path d="M227.7656,88.1602 Q227.9219,87.9414 228.1094,87.832 Q228.2969,87.7227 228.5156,87.7227 Q228.8906,87.7227 229.125,87.9883 Q229.3594,88.2383 229.3594,88.8477 L229.3594,90.3008 Q229.3594,90.9102 229.125,91.1758 Q228.8906,91.4414 228.5156,91.4414 Q228.1719,91.4414 227.9688,91.2383 Q227.7656,91.0508 227.6563,90.5352 Q227.6094,90.1758 227.4219,89.9883 Q227.0938,89.6133 226.4844,89.3945 Q225.875,89.1758 225.25,89.1758 Q224.4844,89.1758 223.8438,89.5039 Q223.2188,89.832 222.7188,90.582 Q222.2344,91.332 222.2344,92.3633 L222.2344,93.457 Q222.2344,94.6914 223.125,95.5195 Q224.0156,96.332 225.6094,96.332 Q226.5469,96.332 227.2031,96.082 Q227.5938,95.9258 228.0156,95.4883 Q228.2813,95.2227 228.4219,95.1445 Q228.5781,95.0664 228.7813,95.0664 Q229.1094,95.0664 229.3594,95.332 Q229.625,95.582 229.625,95.9258 Q229.625,96.2695 229.2813,96.6758 Q228.7813,97.2539 227.9844,97.582 Q226.9063,98.0352 225.6094,98.0352 Q224.0938,98.0352 222.8906,97.4102 Q221.9063,96.9102 221.2188,95.8477 Q220.5313,94.7695 220.5313,93.4883 L220.5313,92.332 Q220.5313,91.0039 221.1406,89.8633 Q221.7656,88.707 222.8594,88.0977 Q223.9531,87.4727 225.1875,87.4727 Q225.9219,87.4727 226.5625,87.6445 Q227.2188,87.8008 227.7656,88.1602 Z " fill="#000000"/><text fill="#000000" font-family="sans-serif" font-size="12" font-style="italic" lengthAdjust="spacing" textLength="44" x="237" y="79.9629">&#171;Entity&#187;</text><text fill="#000000" font-family="sans-serif" font-size="12" font-style="italic" lengthAdjust="spacing" textLength="35" x="241.5" y="95.9238">&#171;root&#187;</text><text fill="#000000" font-family="sans-serif" font-size="14" lengthAdjust="spacing" textLength="39" x="239.5" y="114.043">Drone</text><line style="stroke:#181818;stroke-width:0.5;" x1="211" x2="281" y1="122.5566" y2="122.5566"/><line style="stroke:#181818;stroke-width:0.5;" x1="211" x2="281" y1="130.5566" y2="130.5566"/></g><!--class SerialNumber--><g id="elem_SerialNumber"><rect codeLine="7" fill="#F1F1F1" height="60.582" id="SerialNumber" rx="2.5" ry="2.5" style="stroke:#181818;stroke-width:0.5;" width="117" x="22.5" y="268.0137"/><ellipse cx="37.5" cy="290.3047" fill="#ADD1B2" rx="11" ry="11" style="stroke:#181818;stroke-width:1.0;"/><path d="M40.2656,286.1797 Q40.4219,285.9609 40.6094,285.8516 Q40.7969,285.7422 41.0156,285.7422 Q41.3906,285.7422 41.625,286.0078 Q41.8594,286.2578 41.8594,286.8672 L41.8594,288.3203 Q41.8594,288.9297 41.625,289.1953 Q41.3906,289.4609 41.0156,289.4609 Q40.6719,289.4609 40.4688,289.2578 Q40.2656,289.0703 40.1563,288.5547 Q40.1094,288.1953 39.9219,288.0078 Q39.5938,287.6328 38.9844,287.4141 Q38.375,287.1953 37.75,287.1953 Q36.9844,287.1953 36.3438,287.5234 Q35.7188,287.8516 35.2188,288.6016 Q34.7344,289.3516 34.7344,290.3828 L34.7344,291.4766 Q34.7344,292.7109 35.625,293.5391 Q36.5156,294.3516 38.1094,294.3516 Q39.0469,294.3516 39.7031,294.1016 Q40.0938,293.9453 40.5156,293.5078 Q40.7813,293.2422 40.9219,293.1641 Q41.0781,293.0859 41.2813,293.0859 Q41.6094,293.0859 41.8594,293.3516 Q42.125,293.6016 42.125,293.9453 Q42.125,294.2891 41.7813,294.6953 Q41.2813,295.2734 40.4844,295.6016 Q39.4063,296.0547 38.1094,296.0547 Q36.5938,296.0547 35.3906,295.4297 Q34.4063,294.9297 33.7188,293.8672 Q33.0313,292.7891 33.0313,291.5078 L33.0313,290.3516 Q33.0313,289.0234 33.6406,287.8828 Q34.2656,286.7266 35.3594,286.1172 Q36.4531,285.4922 37.6875,285.4922 Q38.4219,285.4922 39.0625,285.6641 Q39.7188,285.8203 40.2656,286.1797 Z " fill="#000000"/><text fill="#000000" font-family="sans-serif" font-size="12" font-style="italic" lengthAdjust="spacing" textLength="85" x="51.5" y="285.9629">&#171;Value Object&#187;</text><text fill="#000000" font-family="sans-serif" font-size="14" lengthAdjust="spacing" textLength="85" x="51.5" y="304.082">SerialNumber</text><line style="stroke:#181818;stroke-width:0.5;" x1="23.5" x2="138.5" y1="312.5957" y2="312.5957"/><line style="stroke:#181818;stroke-width:0.5;" x1="23.5" x2="138.5" y1="320.5957" y2="320.5957"/></g><!--class DroneStatus--><g id="elem_DroneStatus"><rect codeLine="10" fill="#F1F1F1" height="60.582" id="DroneStatus" rx="2.5" ry="2.5" style="stroke:#181818;stroke-width:0.5;" width="113" x="174.5" y="268.0137"/><ellipse cx="189.5" cy="290.3047" fill="#EB937F" rx="11" ry="11" style="stroke:#181818;stroke-width:1.0;"/><path d="M188.3594,291.1016 L188.3594,293.6016 L192.6875,293.6016 L192.6875,292.6797 Q192.6875,292.0703 192.9219,291.8047 Q193.1719,291.5391 193.5469,291.5391 Q193.9219,291.5391 194.1563,291.8047 Q194.3906,292.0703 194.3906,292.6797 L194.3906,295.3047 L186.3906,295.3047 Q185.7656,295.3047 185.5,295.0703 Q185.25,294.8359 185.25,294.4453 Q185.25,294.0703 185.5156,293.8359 Q185.7813,293.6016 186.3906,293.6016 L186.6563,293.6016 L186.6563,286.9453 L186.3906,286.9453 Q185.7656,286.9453 185.5,286.7109 Q185.25,286.4766 185.25,286.0859 Q185.25,285.7109 185.5,285.4766 Q185.7656,285.2422 186.3906,285.2422 L194.0156,285.2422 L194.0156,287.8359 Q194.0156,288.4453 193.7813,288.7109 Q193.5625,288.9609 193.1719,288.9609 Q192.7969,288.9609 192.5625,288.7109 Q192.3281,288.4453 192.3281,287.8359 L192.3281,286.9453 L188.3594,286.9453 L188.3594,289.3984 L189.8438,289.3984 Q189.8438,288.7422 189.9688,288.5547 Q190.2344,288.1484 190.7031,288.1484 Q191.0781,288.1484 191.3125,288.4141 Q191.5469,288.6641 191.5469,289.2734 L191.5469,291.2422 Q191.5469,291.7891 191.4219,291.9766 Q191.1563,292.3672 190.7031,292.3672 Q190.2344,292.3672 189.9688,291.9609 Q189.8438,291.7734 189.8438,291.1016 L188.3594,291.1016 Z " fill="#000000"/><text fill="#000000" font-family="sans-serif" font-size="12" font-style="italic" lengthAdjust="spacing" textLength="85" x="201.5" y="285.9629">&#171;Value Object&#187;</text><text fill="#000000" font-family="sans-serif" font-size="14" lengthAdjust="spacing" textLength="79" x="204.5" y="304.082">DroneStatus</text><line style="stroke:#181818;stroke-width:0.5;" x1="175.5" x2="286.5" y1="312.5957" y2="312.5957"/><line style="stroke:#181818;stroke-width:0.5;" x1="175.5" x2="286.5" y1="320.5957" y2="320.5957"/></g><!--class Model--><g id="elem_Model"><rect codeLine="20" fill="#F1F1F1" height="76.543" id="Model" rx="2.5" ry="2.5" style="stroke:#181818;stroke-width:0.5;" width="72" x="603" y="260.0137"/><ellipse cx="618" cy="290.2852" fill="#ADD1B2" rx="11" ry="11" style="stroke:#181818;stroke-width:1.0;"/><path d="M620.7656,286.1602 Q620.9219,285.9414 621.1094,285.832 Q621.2969,285.7227 621.5156,285.7227 Q621.8906,285.7227 622.125,285.9883 Q622.3594,286.2383 622.3594,286.8477 L622.3594,288.3008 Q622.3594,288.9102 622.125,289.1758 Q621.8906,289.4414 621.5156,289.4414 Q621.1719,289.4414 620.9688,289.2383 Q620.7656,289.0508 620.6563,288.5352 Q620.6094,288.1758 620.4219,287.9883 Q620.0938,287.6133 619.4844,287.3945 Q618.875,287.1758 618.25,287.1758 Q617.4844,287.1758 616.8438,287.5039 Q616.2188,287.832 615.7188,288.582 Q615.2344,289.332 615.2344,290.3633 L615.2344,291.457 Q615.2344,292.6914 616.125,293.5195 Q617.0156,294.332 618.6094,294.332 Q619.5469,294.332 620.2031,294.082 Q620.5938,293.9258 621.0156,293.4883 Q621.2813,293.2227 621.4219,293.1445 Q621.5781,293.0664 621.7813,293.0664 Q622.1094,293.0664 622.3594,293.332 Q622.625,293.582 622.625,293.9258 Q622.625,294.2695 622.2813,294.6758 Q621.7813,295.2539 620.9844,295.582 Q619.9063,296.0352 618.6094,296.0352 Q617.0938,296.0352 615.8906,295.4102 Q614.9063,294.9102 614.2188,293.8477 Q613.5313,292.7695 613.5313,291.4883 L613.5313,290.332 Q613.5313,289.0039 614.1406,287.8633 Q614.7656,286.707 615.8594,286.0977 Q616.9531,285.4727 618.1875,285.4727 Q618.9219,285.4727 619.5625,285.6445 Q620.2188,285.8008 620.7656,286.1602 Z " fill="#000000"/><text fill="#000000" font-family="sans-serif" font-size="12" font-style="italic" lengthAdjust="spacing" textLength="44" x="630" y="277.9629">&#171;Entity&#187;</text><text fill="#000000" font-family="sans-serif" font-size="12" font-style="italic" lengthAdjust="spacing" textLength="35" x="634.5" y="293.9238">&#171;root&#187;</text><text fill="#000000" font-family="sans-serif" font-size="14" lengthAdjust="spacing" textLength="38" x="633" y="312.043">Model</text><line style="stroke:#181818;stroke-width:0.5;" x1="604" x2="674" y1="320.5566" y2="320.5566"/><line style="stroke:#181818;stroke-width:0.5;" x1="604" x2="674" y1="328.5566" y2="328.5566"/></g><!--class WindTolerance--><g id="elem_WindTolerance"><rect codeLine="23" fill="#F1F1F1" height="60.582" id="WindTolerance" rx="2.5" ry="2.5" style="stroke:#181818;stroke-width:0.5;" width="128" x="344" y="416.0137"/><ellipse cx="359" cy="438.3047" fill="#ADD1B2" rx="11" ry="11" style="stroke:#181818;stroke-width:1.0;"/><path d="M361.7656,434.1797 Q361.9219,433.9609 362.1094,433.8516 Q362.2969,433.7422 362.5156,433.7422 Q362.8906,433.7422 363.125,434.0078 Q363.3594,434.2578 363.3594,434.8672 L363.3594,436.3203 Q363.3594,436.9297 363.125,437.1953 Q362.8906,437.4609 362.5156,437.4609 Q362.1719,437.4609 361.9688,437.2578 Q361.7656,437.0703 361.6563,436.5547 Q361.6094,436.1953 361.4219,436.0078 Q361.0938,435.6328 360.4844,435.4141 Q359.875,435.1953 359.25,435.1953 Q358.4844,435.1953 357.8438,435.5234 Q357.2188,435.8516 356.7188,436.6016 Q356.2344,437.3516 356.2344,438.3828 L356.2344,439.4766 Q356.2344,440.7109 357.125,441.5391 Q358.0156,442.3516 359.6094,442.3516 Q360.5469,442.3516 361.2031,442.1016 Q361.5938,441.9453 362.0156,441.5078 Q362.2813,441.2422 362.4219,441.1641 Q362.5781,441.0859 362.7813,441.0859 Q363.1094,441.0859 363.3594,441.3516 Q363.625,441.6016 363.625,441.9453 Q363.625,442.2891 363.2813,442.6953 Q362.7813,443.2734 361.9844,443.6016 Q360.9063,444.0547 359.6094,444.0547 Q358.0938,444.0547 356.8906,443.4297 Q355.9063,442.9297 355.2188,441.8672 Q354.5313,440.7891 354.5313,439.5078 L354.5313,438.3516 Q354.5313,437.0234 355.1406,435.8828 Q355.7656,434.7266 356.8594,434.1172 Q357.9531,433.4922 359.1875,433.4922 Q359.9219,433.4922 360.5625,433.6641 Q361.2188,433.8203 361.7656,434.1797 Z " fill="#000000"/><text fill="#000000" font-family="sans-serif" font-size="12" font-style="italic" lengthAdjust="spacing" textLength="85" x="378.5" y="433.9629">&#171;Value Object&#187;</text><text fill="#000000" font-family="sans-serif" font-size="14" lengthAdjust="spacing" textLength="96" x="373" y="452.082">WindTolerance</text><line style="stroke:#181818;stroke-width:0.5;" x1="345" x2="471" y1="460.5957" y2="460.5957"/><line style="stroke:#181818;stroke-width:0.5;" x1="345" x2="471" y1="468.5957" y2="468.5957"/></g><!--class WindSpeed--><g id="elem_WindSpeed"><rect codeLine="26" fill="#F1F1F1" height="60.582" id="WindSpeed" rx="2.5" ry="2.5" style="stroke:#181818;stroke-width:0.5;" width="113" x="507.5" y="416.0137"/><ellipse cx="522.5" cy="438.3047" fill="#ADD1B2" rx="11" ry="11" style="stroke:#181818;stroke-width:1.0;"/><path d="M525.2656,434.1797 Q525.4219,433.9609 525.6094,433.8516 Q525.7969,433.7422 526.0156,433.7422 Q526.3906,433.7422 526.625,434.0078 Q526.8594,434.2578 526.8594,434.8672 L526.8594,436.3203 Q526.8594,436.9297 526.625,437.1953 Q526.3906,437.4609 526.0156,437.4609 Q525.6719,437.4609 525.4688,437.2578 Q525.2656,437.0703 525.1563,436.5547 Q525.1094,436.1953 524.9219,436.0078 Q524.5938,435.6328 523.9844,435.4141 Q523.375,435.1953 522.75,435.1953 Q521.9844,435.1953 521.3438,435.5234 Q520.7188,435.8516 520.2188,436.6016 Q519.7344,437.3516 519.7344,438.3828 L519.7344,439.4766 Q519.7344,440.7109 520.625,441.5391 Q521.5156,442.3516 523.1094,442.3516 Q524.0469,442.3516 524.7031,442.1016 Q525.0938,441.9453 525.5156,441.5078 Q525.7813,441.2422 525.9219,441.1641 Q526.0781,441.0859 526.2813,441.0859 Q526.6094,441.0859 526.8594,441.3516 Q527.125,441.6016 527.125,441.9453 Q527.125,442.2891 526.7813,442.6953 Q526.2813,443.2734 525.4844,443.6016 Q524.4063,444.0547 523.1094,444.0547 Q521.5938,444.0547 520.3906,443.4297 Q519.4063,442.9297 518.7188,441.8672 Q518.0313,440.7891 518.0313,439.5078 L518.0313,438.3516 Q518.0313,437.0234 518.6406,435.8828 Q519.2656,434.7266 520.3594,434.1172 Q521.4531,433.4922 522.6875,433.4922 Q523.4219,433.4922 524.0625,433.6641 Q524.7188,433.8203 525.2656,434.1797 Z " fill="#000000"/><text fill="#000000" font-family="sans-serif" font-size="12" font-style="italic" lengthAdjust="spacing" textLength="85" x="534.5" y="433.9629">&#171;Value Object&#187;</text><text fill="#000000" font-family="sans-serif" font-size="14" lengthAdjust="spacing" textLength="73" x="540.5" y="452.082">WindSpeed</text><line style="stroke:#181818;stroke-width:0.5;" x1="508.5" x2="619.5" y1="460.5957" y2="460.5957"/><line style="stroke:#181818;stroke-width:0.5;" x1="508.5" x2="619.5" y1="468.5957" y2="468.5957"/></g><!--class PositionTolerance--><g id="elem_PositionTolerance"><rect codeLine="29" fill="#F1F1F1" height="60.582" id="PositionTolerance" rx="2.5" ry="2.5" style="stroke:#181818;stroke-width:0.5;" width="146" x="656" y="416.0137"/><ellipse cx="671" cy="438.3047" fill="#ADD1B2" rx="11" ry="11" style="stroke:#181818;stroke-width:1.0;"/><path d="M673.7656,434.1797 Q673.9219,433.9609 674.1094,433.8516 Q674.2969,433.7422 674.5156,433.7422 Q674.8906,433.7422 675.125,434.0078 Q675.3594,434.2578 675.3594,434.8672 L675.3594,436.3203 Q675.3594,436.9297 675.125,437.1953 Q674.8906,437.4609 674.5156,437.4609 Q674.1719,437.4609 673.9688,437.2578 Q673.7656,437.0703 673.6563,436.5547 Q673.6094,436.1953 673.4219,436.0078 Q673.0938,435.6328 672.4844,435.4141 Q671.875,435.1953 671.25,435.1953 Q670.4844,435.1953 669.8438,435.5234 Q669.2188,435.8516 668.7188,436.6016 Q668.2344,437.3516 668.2344,438.3828 L668.2344,439.4766 Q668.2344,440.7109 669.125,441.5391 Q670.0156,442.3516 671.6094,442.3516 Q672.5469,442.3516 673.2031,442.1016 Q673.5938,441.9453 674.0156,441.5078 Q674.2813,441.2422 674.4219,441.1641 Q674.5781,441.0859 674.7813,441.0859 Q675.1094,441.0859 675.3594,441.3516 Q675.625,441.6016 675.625,441.9453 Q675.625,442.2891 675.2813,442.6953 Q674.7813,443.2734 673.9844,443.6016 Q672.9063,444.0547 671.6094,444.0547 Q670.0938,444.0547 668.8906,443.4297 Q667.9063,442.9297 667.2188,441.8672 Q666.5313,440.7891 666.5313,439.5078 L666.5313,438.3516 Q666.5313,437.0234 667.1406,435.8828 Q667.7656,434.7266 668.8594,434.1172 Q669.9531,433.4922 671.1875,433.4922 Q671.9219,433.4922 672.5625,433.6641 Q673.2188,433.8203 673.7656,434.1797 Z " fill="#000000"/><text fill="#000000" font-family="sans-serif" font-size="12" font-style="italic" lengthAdjust="spacing" textLength="85" x="699.5" y="433.9629">&#171;Value Object&#187;</text><text fill="#000000" font-family="sans-serif" font-size="14" lengthAdjust="spacing" textLength="114" x="685" y="452.082">PositionTolerance</text><line style="stroke:#181818;stroke-width:0.5;" x1="657" x2="801" y1="460.5957" y2="460.5957"/><line style="stroke:#181818;stroke-width:0.5;" x1="657" x2="801" y1="468.5957" y2="468.5957"/></g><!--class SafetyStatus--><g id="elem_SafetyStatus"><rect codeLine="32" fill="#F1F1F1" height="60.582" id="SafetyStatus" rx="2.5" ry="2.5" style="stroke:#181818;stroke-width:0.5;" width="113" x="837.5" y="416.0137"/><ellipse cx="852.5" cy="438.3047" fill="#EB937F" rx="11" ry="11" style="stroke:#181818;stroke-width:1.0;"/><path d="M851.3594,439.1016 L851.3594,441.6016 L855.6875,441.6016 L855.6875,440.6797 Q855.6875,440.0703 855.9219,439.8047 Q856.1719,439.5391 856.5469,439.5391 Q856.9219,439.5391 857.1563,439.8047 Q857.3906,440.0703 857.3906,440.6797 L857.3906,443.3047 L849.3906,443.3047 Q848.7656,443.3047 848.5,443.0703 Q848.25,442.8359 848.25,442.4453 Q848.25,442.0703 848.5156,441.8359 Q848.7813,441.6016 849.3906,441.6016 L849.6563,441.6016 L849.6563,434.9453 L849.3906,434.9453 Q848.7656,434.9453 848.5,434.7109 Q848.25,434.4766 848.25,434.0859 Q848.25,433.7109 848.5,433.4766 Q848.7656,433.2422 849.3906,433.2422 L857.0156,433.2422 L857.0156,435.8359 Q857.0156,436.4453 856.7813,436.7109 Q856.5625,436.9609 856.1719,436.9609 Q855.7969,436.9609 855.5625,436.7109 Q855.3281,436.4453 855.3281,435.8359 L855.3281,434.9453 L851.3594,434.9453 L851.3594,437.3984 L852.8438,437.3984 Q852.8438,436.7422 852.9688,436.5547 Q853.2344,436.1484 853.7031,436.1484 Q854.0781,436.1484 854.3125,436.4141 Q854.5469,436.6641 854.5469,437.2734 L854.5469,439.2422 Q854.5469,439.7891 854.4219,439.9766 Q854.1563,440.3672 853.7031,440.3672 Q853.2344,440.3672 852.9688,439.9609 Q852.8438,439.7734 852.8438,439.1016 L851.3594,439.1016 Z " fill="#000000"/><text fill="#000000" font-family="sans-serif" font-size="12" font-style="italic" lengthAdjust="spacing" textLength="85" x="864.5" y="433.9629">&#171;Value Object&#187;</text><text fill="#000000" font-family="sans-serif" font-size="14" lengthAdjust="spacing" textLength="80" x="867" y="452.082">SafetyStatus</text><line style="stroke:#181818;stroke-width:0.5;" x1="838.5" x2="949.5" y1="460.5957" y2="460.5957"/><line style="stroke:#181818;stroke-width:0.5;" x1="838.5" x2="949.5" y1="468.5957" y2="468.5957"/></g><!--class Maintenance--><g id="elem_Maintenance"><rect codeLine="48" fill="#F1F1F1" height="76.543" id="Maintenance" rx="2.5" ry="2.5" style="stroke:#181818;stroke-width:0.5;" width="113" x="1172.5" y="260.0137"/><ellipse cx="1187.5" cy="290.2852" fill="#ADD1B2" rx="11" ry="11" style="stroke:#181818;stroke-width:1.0;"/><path d="M1190.2656,286.1602 Q1190.4219,285.9414 1190.6094,285.832 Q1190.7969,285.7227 1191.0156,285.7227 Q1191.3906,285.7227 1191.625,285.9883 Q1191.8594,286.2383 1191.8594,286.8477 L1191.8594,288.3008 Q1191.8594,288.9102 1191.625,289.1758 Q1191.3906,289.4414 1191.0156,289.4414 Q1190.6719,289.4414 1190.4688,289.2383 Q1190.2656,289.0508 1190.1563,288.5352 Q1190.1094,288.1758 1189.9219,287.9883 Q1189.5938,287.6133 1188.9844,287.3945 Q1188.375,287.1758 1187.75,287.1758 Q1186.9844,287.1758 1186.3438,287.5039 Q1185.7188,287.832 1185.2188,288.582 Q1184.7344,289.332 1184.7344,290.3633 L1184.7344,291.457 Q1184.7344,292.6914 1185.625,293.5195 Q1186.5156,294.332 1188.1094,294.332 Q1189.0469,294.332 1189.7031,294.082 Q1190.0938,293.9258 1190.5156,293.4883 Q1190.7813,293.2227 1190.9219,293.1445 Q1191.0781,293.0664 1191.2813,293.0664 Q1191.6094,293.0664 1191.8594,293.332 Q1192.125,293.582 1192.125,293.9258 Q1192.125,294.2695 1191.7813,294.6758 Q1191.2813,295.2539 1190.4844,295.582 Q1189.4063,296.0352 1188.1094,296.0352 Q1186.5938,296.0352 1185.3906,295.4102 Q1184.4063,294.9102 1183.7188,293.8477 Q1183.0313,292.7695 1183.0313,291.4883 L1183.0313,290.332 Q1183.0313,289.0039 1183.6406,287.8633 Q1184.2656,286.707 1185.3594,286.0977 Q1186.4531,285.4727 1187.6875,285.4727 Q1188.4219,285.4727 1189.0625,285.6445 Q1189.7188,285.8008 1190.2656,286.1602 Z " fill="#000000"/><text fill="#000000" font-family="sans-serif" font-size="12" font-style="italic" lengthAdjust="spacing" textLength="44" x="1220" y="277.9629">&#171;Entity&#187;</text><text fill="#000000" font-family="sans-serif" font-size="12" font-style="italic" lengthAdjust="spacing" textLength="35" x="1224.5" y="293.9238">&#171;root&#187;</text><text fill="#000000" font-family="sans-serif" font-size="14" lengthAdjust="spacing" textLength="81" x="1201.5" y="312.043">Maintenance</text><line style="stroke:#181818;stroke-width:0.5;" x1="1173.5" x2="1284.5" y1="320.5566" y2="320.5566"/><line style="stroke:#181818;stroke-width:0.5;" x1="1173.5" x2="1284.5" y1="328.5566" y2="328.5566"/></g><!--class MaintenanceType--><g id="elem_MaintenanceType"><rect codeLine="51" fill="#F1F1F1" height="60.582" id="MaintenanceType" rx="2.5" ry="2.5" style="stroke:#181818;stroke-width:0.5;" width="145" x="1168.5" y="416.0137"/><ellipse cx="1183.5" cy="438.3047" fill="#EB937F" rx="11" ry="11" style="stroke:#181818;stroke-width:1.0;"/><path d="M1182.3594,439.1016 L1182.3594,441.6016 L1186.6875,441.6016 L1186.6875,440.6797 Q1186.6875,440.0703 1186.9219,439.8047 Q1187.1719,439.5391 1187.5469,439.5391 Q1187.9219,439.5391 1188.1563,439.8047 Q1188.3906,440.0703 1188.3906,440.6797 L1188.3906,443.3047 L1180.3906,443.3047 Q1179.7656,443.3047 1179.5,443.0703 Q1179.25,442.8359 1179.25,442.4453 Q1179.25,442.0703 1179.5156,441.8359 Q1179.7813,441.6016 1180.3906,441.6016 L1180.6563,441.6016 L1180.6563,434.9453 L1180.3906,434.9453 Q1179.7656,434.9453 1179.5,434.7109 Q1179.25,434.4766 1179.25,434.0859 Q1179.25,433.7109 1179.5,433.4766 Q1179.7656,433.2422 1180.3906,433.2422 L1188.0156,433.2422 L1188.0156,435.8359 Q1188.0156,436.4453 1187.7813,436.7109 Q1187.5625,436.9609 1187.1719,436.9609 Q1186.7969,436.9609 1186.5625,436.7109 Q1186.3281,436.4453 1186.3281,435.8359 L1186.3281,434.9453 L1182.3594,434.9453 L1182.3594,437.3984 L1183.8438,437.3984 Q1183.8438,436.7422 1183.9688,436.5547 Q1184.2344,436.1484 1184.7031,436.1484 Q1185.0781,436.1484 1185.3125,436.4141 Q1185.5469,436.6641 1185.5469,437.2734 L1185.5469,439.2422 Q1185.5469,439.7891 1185.4219,439.9766 Q1185.1563,440.3672 1184.7031,440.3672 Q1184.2344,440.3672 1183.9688,439.9609 Q1183.8438,439.7734 1183.8438,439.1016 L1182.3594,439.1016 Z " fill="#000000"/><text fill="#000000" font-family="sans-serif" font-size="12" font-style="italic" lengthAdjust="spacing" textLength="85" x="1211.5" y="433.9629">&#171;Value Object&#187;</text><text fill="#000000" font-family="sans-serif" font-size="14" lengthAdjust="spacing" textLength="113" x="1197.5" y="452.082">MaintenanceType</text><line style="stroke:#181818;stroke-width:0.5;" x1="1169.5" x2="1312.5" y1="460.5957" y2="460.5957"/><line style="stroke:#181818;stroke-width:0.5;" x1="1169.5" x2="1312.5" y1="468.5957" y2="468.5957"/></g><!--class Date--><g id="elem_Date"><rect codeLine="63" fill="#F1F1F1" height="60.582" id="Date" rx="2.5" ry="2.5" style="stroke:#181818;stroke-width:0.5;" width="113" x="1243.5" y="643.0137"/><ellipse cx="1258.5" cy="665.3047" fill="#ADD1B2" rx="11" ry="11" style="stroke:#181818;stroke-width:1.0;"/><path d="M1261.2656,661.1797 Q1261.4219,660.9609 1261.6094,660.8516 Q1261.7969,660.7422 1262.0156,660.7422 Q1262.3906,660.7422 1262.625,661.0078 Q1262.8594,661.2578 1262.8594,661.8672 L1262.8594,663.3203 Q1262.8594,663.9297 1262.625,664.1953 Q1262.3906,664.4609 1262.0156,664.4609 Q1261.6719,664.4609 1261.4688,664.2578 Q1261.2656,664.0703 1261.1563,663.5547 Q1261.1094,663.1953 1260.9219,663.0078 Q1260.5938,662.6328 1259.9844,662.4141 Q1259.375,662.1953 1258.75,662.1953 Q1257.9844,662.1953 1257.3438,662.5234 Q1256.7188,662.8516 1256.2188,663.6016 Q1255.7344,664.3516 1255.7344,665.3828 L1255.7344,666.4766 Q1255.7344,667.7109 1256.625,668.5391 Q1257.5156,669.3516 1259.1094,669.3516 Q1260.0469,669.3516 1260.7031,669.1016 Q1261.0938,668.9453 1261.5156,668.5078 Q1261.7813,668.2422 1261.9219,668.1641 Q1262.0781,668.0859 1262.2813,668.0859 Q1262.6094,668.0859 1262.8594,668.3516 Q1263.125,668.6016 1263.125,668.9453 Q1263.125,669.2891 1262.7813,669.6953 Q1262.2813,670.2734 1261.4844,670.6016 Q1260.4063,671.0547 1259.1094,671.0547 Q1257.5938,671.0547 1256.3906,670.4297 Q1255.4063,669.9297 1254.7188,668.8672 Q1254.0313,667.7891 1254.0313,666.5078 L1254.0313,665.3516 Q1254.0313,664.0234 1254.6406,662.8828 Q1255.2656,661.7266 1256.3594,661.1172 Q1257.4531,660.4922 1258.6875,660.4922 Q1259.4219,660.4922 1260.0625,660.6641 Q1260.7188,660.8203 1261.2656,661.1797 Z " fill="#000000"/><text fill="#000000" font-family="sans-serif" font-size="12" font-style="italic" lengthAdjust="spacing" textLength="85" x="1270.5" y="660.9629">&#171;Value Object&#187;</text><text fill="#000000" font-family="sans-serif" font-size="14" lengthAdjust="spacing" textLength="30" x="1298" y="679.082">Date</text><line style="stroke:#181818;stroke-width:0.5;" x1="1244.5" x2="1355.5" y1="687.5957" y2="687.5957"/><line style="stroke:#181818;stroke-width:0.5;" x1="1244.5" x2="1355.5" y1="695.5957" y2="695.5957"/></g><!--class Description--><g id="elem_Description"><rect codeLine="66" fill="#F1F1F1" height="60.582" id="Description" rx="2.5" ry="2.5" style="stroke:#181818;stroke-width:0.5;" width="113" x="1095.5" y="643.0137"/><ellipse cx="1110.5" cy="665.3047" fill="#ADD1B2" rx="11" ry="11" style="stroke:#181818;stroke-width:1.0;"/><path d="M1113.2656,661.1797 Q1113.4219,660.9609 1113.6094,660.8516 Q1113.7969,660.7422 1114.0156,660.7422 Q1114.3906,660.7422 1114.625,661.0078 Q1114.8594,661.2578 1114.8594,661.8672 L1114.8594,663.3203 Q1114.8594,663.9297 1114.625,664.1953 Q1114.3906,664.4609 1114.0156,664.4609 Q1113.6719,664.4609 1113.4688,664.2578 Q1113.2656,664.0703 1113.1563,663.5547 Q1113.1094,663.1953 1112.9219,663.0078 Q1112.5938,662.6328 1111.9844,662.4141 Q1111.375,662.1953 1110.75,662.1953 Q1109.9844,662.1953 1109.3438,662.5234 Q1108.7188,662.8516 1108.2188,663.6016 Q1107.7344,664.3516 1107.7344,665.3828 L1107.7344,666.4766 Q1107.7344,667.7109 1108.625,668.5391 Q1109.5156,669.3516 1111.1094,669.3516 Q1112.0469,669.3516 1112.7031,669.1016 Q1113.0938,668.9453 1113.5156,668.5078 Q1113.7813,668.2422 1113.9219,668.1641 Q1114.0781,668.0859 1114.2813,668.0859 Q1114.6094,668.0859 1114.8594,668.3516 Q1115.125,668.6016 1115.125,668.9453 Q1115.125,669.2891 1114.7813,669.6953 Q1114.2813,670.2734 1113.4844,670.6016 Q1112.4063,671.0547 1111.1094,671.0547 Q1109.5938,671.0547 1108.3906,670.4297 Q1107.4063,669.9297 1106.7188,668.8672 Q1106.0313,667.7891 1106.0313,666.5078 L1106.0313,665.3516 Q1106.0313,664.0234 1106.6406,662.8828 Q1107.2656,661.7266 1108.3594,661.1172 Q1109.4531,660.4922 1110.6875,660.4922 Q1111.4219,660.4922 1112.0625,660.6641 Q1112.7188,660.8203 1113.2656,661.1797 Z " fill="#000000"/><text fill="#000000" font-family="sans-serif" font-size="12" font-style="italic" lengthAdjust="spacing" textLength="85" x="1122.5" y="660.9629">&#171;Value Object&#187;</text><text fill="#000000" font-family="sans-serif" font-size="14" lengthAdjust="spacing" textLength="71" x="1129.5" y="679.082">Description</text><line style="stroke:#181818;stroke-width:0.5;" x1="1096.5" x2="1207.5" y1="687.5957" y2="687.5957"/><line style="stroke:#181818;stroke-width:0.5;" x1="1096.5" x2="1207.5" y1="695.5957" y2="695.5957"/></g><!--class Name--><g id="elem_Name"><rect codeLine="69" fill="#F1F1F1" height="60.582" id="Name" rx="2.5" ry="2.5" style="stroke:#181818;stroke-width:0.5;" width="113" x="947.5" y="643.0137"/><ellipse cx="962.5" cy="665.3047" fill="#ADD1B2" rx="11" ry="11" style="stroke:#181818;stroke-width:1.0;"/><path d="M965.2656,661.1797 Q965.4219,660.9609 965.6094,660.8516 Q965.7969,660.7422 966.0156,660.7422 Q966.3906,660.7422 966.625,661.0078 Q966.8594,661.2578 966.8594,661.8672 L966.8594,663.3203 Q966.8594,663.9297 966.625,664.1953 Q966.3906,664.4609 966.0156,664.4609 Q965.6719,664.4609 965.4688,664.2578 Q965.2656,664.0703 965.1563,663.5547 Q965.1094,663.1953 964.9219,663.0078 Q964.5938,662.6328 963.9844,662.4141 Q963.375,662.1953 962.75,662.1953 Q961.9844,662.1953 961.3438,662.5234 Q960.7188,662.8516 960.2188,663.6016 Q959.7344,664.3516 959.7344,665.3828 L959.7344,666.4766 Q959.7344,667.7109 960.625,668.5391 Q961.5156,669.3516 963.1094,669.3516 Q964.0469,669.3516 964.7031,669.1016 Q965.0938,668.9453 965.5156,668.5078 Q965.7813,668.2422 965.9219,668.1641 Q966.0781,668.0859 966.2813,668.0859 Q966.6094,668.0859 966.8594,668.3516 Q967.125,668.6016 967.125,668.9453 Q967.125,669.2891 966.7813,669.6953 Q966.2813,670.2734 965.4844,670.6016 Q964.4063,671.0547 963.1094,671.0547 Q961.5938,671.0547 960.3906,670.4297 Q959.4063,669.9297 958.7188,668.8672 Q958.0313,667.7891 958.0313,666.5078 L958.0313,665.3516 Q958.0313,664.0234 958.6406,662.8828 Q959.2656,661.7266 960.3594,661.1172 Q961.4531,660.4922 962.6875,660.4922 Q963.4219,660.4922 964.0625,660.6641 Q964.7188,660.8203 965.2656,661.1797 Z " fill="#000000"/><text fill="#000000" font-family="sans-serif" font-size="12" font-style="italic" lengthAdjust="spacing" textLength="85" x="974.5" y="660.9629">&#171;Value Object&#187;</text><text fill="#000000" font-family="sans-serif" font-size="14" lengthAdjust="spacing" textLength="36" x="999" y="679.082">Name</text><line style="stroke:#181818;stroke-width:0.5;" x1="948.5" x2="1059.5" y1="687.5957" y2="687.5957"/><line style="stroke:#181818;stroke-width:0.5;" x1="948.5" x2="1059.5" y1="695.5957" y2="695.5957"/></g><!--link Drone to DroneStatus--><g id="link_Drone_DroneStatus"><path codeLine="14" d="M243.11,139.3037 C240.24,176.7937 236.3579,227.4912 233.7279,261.8512 " fill="none" id="Drone-to-DroneStatus" style="stroke:#181818;stroke-width:1.0;"/><polygon fill="#181818" points="233.27,267.8337,237.9452,259.1652,233.6516,262.8483,229.9685,258.5546,233.27,267.8337" style="stroke:#181818;stroke-width:1.0;"/><text fill="#000000" font-family="sans-serif" font-size="13" lengthAdjust="spacing" textLength="36" x="242" y="184.042">status</text><text fill="#000000" font-family="sans-serif" font-size="13" lengthAdjust="spacing" textLength="7" x="226.0163" y="256.8542">1</text></g><!--link Drone to SerialNumber--><g id="link_Drone_SerialNumber"><path codeLine="15" d="M209.97,122.7937 C191.71,134.7837 170.07,150.9637 154,169.0137 C127.31,199.0137 108.4545,234.8922 95.8945,262.5022 " fill="none" id="Drone-to-SerialNumber" style="stroke:#181818;stroke-width:1.0;"/><polygon fill="#181818" points="93.41,267.9637,100.7777,261.4278,95.4804,263.4125,93.4957,258.1152,93.41,267.9637" style="stroke:#181818;stroke-width:1.0;"/><text fill="#000000" font-family="sans-serif" font-size="13" lengthAdjust="spacing" textLength="76" x="155" y="184.042">serialNumber</text><text fill="#000000" font-family="sans-serif" font-size="13" lengthAdjust="spacing" textLength="7" x="88.3591" y="256.5273">1</text></g><!--link Model to WindTolerance--><g id="link_Model_WindTolerance"><path codeLine="36" d="M602.91,311.9137 C571.58,323.5737 525.76,342.8337 490,367.0137 C469.59,380.8137 453.703,395.5137 438.553,411.3837 " fill="none" id="Model-to-WindTolerance" style="stroke:#181818;stroke-width:1.0;"/><polygon fill="#181818" points="434.41,415.7237,443.5179,411.9758,437.8625,412.107,437.7313,406.4517,434.41,415.7237" style="stroke:#181818;stroke-width:1.0;"/><text fill="#000000" font-family="sans-serif" font-size="13" lengthAdjust="spacing" textLength="82" x="491" y="382.042">windTolerance</text><text fill="#000000" font-family="sans-serif" font-size="13" lengthAdjust="spacing" textLength="20" x="417.7946" y="404.7215">1..*</text></g><!--link Model to WindSpeed--><g id="link_Model_WindSpeed"><path codeLine="37" d="M609.34,337.2037 C602.75,346.6137 596.19,356.9137 591,367.0137 C583.03,382.5237 578.3117,395.1751 573.7117,410.2451 " fill="none" id="Model-to-WindSpeed" style="stroke:#181818;stroke-width:1.0;"/><polygon fill="#181818" points="571.96,415.9837,578.4132,408.5435,573.4197,411.2015,570.7618,406.208,571.96,415.9837" style="stroke:#181818;stroke-width:1.0;"/><text fill="#000000" font-family="sans-serif" font-size="13" lengthAdjust="spacing" textLength="63" x="592" y="382.042">windSpeed</text><text fill="#000000" font-family="sans-serif" font-size="13" lengthAdjust="spacing" textLength="20" x="551.5138" y="404.5517">1..*</text></g><!--link Model to PositionTolerance--><g id="link_Model_PositionTolerance"><path codeLine="38" d="M662.18,337.1137 C677.28,361.6137 693.5618,388.026 707.5718,410.756 " fill="none" id="Model-to-PositionTolerance" style="stroke:#181818;stroke-width:1.0;"/><polygon fill="#181818" points="710.72,415.8637,709.4028,406.1033,708.0965,411.6072,702.5925,410.3009,710.72,415.8637" style="stroke:#181818;stroke-width:1.0;"/><text fill="#000000" font-family="sans-serif" font-size="13" lengthAdjust="spacing" textLength="101" x="693" y="382.042">positionTolerance</text><text fill="#000000" font-family="sans-serif" font-size="13" lengthAdjust="spacing" textLength="20" x="684.8873" y="404.8904">1..*</text></g><!--link Model to SafetyStatus--><g id="link_Model_SafetyStatus"><path codeLine="39" d="M675.13,310.6337 C709.47,322.0437 761.82,341.7037 803,367.0137 C825.4,380.7837 843.4219,395.9004 860.3919,411.8804 " fill="none" id="Model-to-SafetyStatus" style="stroke:#181818;stroke-width:1.0;"/><polygon fill="#181818" points="864.76,415.9937,860.95,406.9116,861.1199,412.5659,855.4656,412.7358,864.76,415.9937" style="stroke:#181818;stroke-width:1.0;"/><text fill="#000000" font-family="sans-serif" font-size="13" lengthAdjust="spacing" textLength="73" x="830" y="382.042">safetyStatus</text><text fill="#000000" font-family="sans-serif" font-size="13" lengthAdjust="spacing" textLength="7" x="850.5981" y="404.5639">1</text></g><!--link Drone to Model--><g id="link_Drone_Model"><path codeLine="42" d="M282.27,119.6037 C357.14,156.9437 522.661,239.4853 597.451,276.7953 " fill="none" id="Drone-to-Model" style="stroke:#181818;stroke-width:1.0;"/><polygon fill="#181818" points="602.82,279.4737,596.5521,271.8767,598.3458,277.2417,592.9809,279.0354,602.82,279.4737" style="stroke:#181818;stroke-width:1.0;"/><text fill="#000000" font-family="sans-serif" font-size="13" lengthAdjust="spacing" textLength="28" x="419" y="184.042">uses</text><text fill="#000000" font-family="sans-serif" font-size="13" lengthAdjust="spacing" textLength="7" x="588.008" y="271.1537">1</text></g><!--link Maintenance to MaintenanceType--><g id="link_Maintenance_MaintenanceType"><path codeLine="55" d="M1232.09,337.1137 C1234.1,361.6137 1236.2107,387.1537 1238.0707,409.8837 " fill="none" id="Maintenance-to-MaintenanceType" style="stroke:#181818;stroke-width:1.0;"/><polygon fill="#181818" points="1238.56,415.8637,1241.8127,406.5674,1238.1522,410.8803,1233.8393,407.2199,1238.56,415.8637" style="stroke:#181818;stroke-width:1.0;"/><text fill="#000000" font-family="sans-serif" font-size="13" lengthAdjust="spacing" textLength="25" x="1237" y="382.042">type</text><text fill="#000000" font-family="sans-serif" font-size="13" lengthAdjust="spacing" textLength="7" x="1230.3349" y="404.8904">1</text></g><!--link Drone to Maintenance--><g id="link_Drone_Maintenance"><path codeLine="58" d="M282.21,103.1937 C388.75,108.8037 709.82,130.3537 967,196.0137 C1039.9,214.6237 1114.5912,245.2176 1166.8012,268.5276 " fill="none" id="Drone-to-Maintenance" style="stroke:#181818;stroke-width:1.0;"/><polygon fill="#181818" points="1172.28,270.9737,1165.6926,263.6521,1167.7144,268.9353,1162.4312,270.9571,1172.28,270.9737" style="stroke:#181818;stroke-width:1.0;"/><text fill="#000000" font-family="sans-serif" font-size="13" lengthAdjust="spacing" textLength="60" x="930" y="184.042">undergoes</text><text fill="#000000" font-family="sans-serif" font-size="13" lengthAdjust="spacing" textLength="20" x="1144.5655" y="263.8781">1..*</text></g><!--link Maintenance to Date--><g id="link_Maintenance_Date"><path codeLine="73" d="M1274.63,337.1337 C1296.14,357.8737 1319.55,385.5637 1331,416.0137 C1360.36,494.1137 1332.8066,588.5094 1314.3866,637.3694 " fill="none" id="Maintenance-to-Date" style="stroke:#181818;stroke-width:1.0;"/><polygon fill="#181818" points="1312.27,642.9837,1319.1877,635.9733,1314.0338,638.3051,1311.702,633.1512,1312.27,642.9837" style="stroke:#181818;stroke-width:1.0;"/><text fill="#000000" font-family="sans-serif" font-size="13" lengthAdjust="spacing" textLength="25" x="1343" y="524.042">date</text><text fill="#000000" font-family="sans-serif" font-size="13" lengthAdjust="spacing" textLength="7" x="1307.1884" y="631.5517">1</text></g><!--link Maintenance to Description--><g id="link_Maintenance_Description"><path codeLine="74" d="M1195.37,337.2037 C1178.5,358.6737 1159.81,387.0237 1151,416.0137 C1126.98,495.0537 1137.3201,588.3042 1145.3701,636.9342 " fill="none" id="Maintenance-to-Description" style="stroke:#181818;stroke-width:1.0;"/><polygon fill="#181818" points="1146.35,642.8537,1148.8265,633.3213,1145.5334,637.9208,1140.9339,634.6278,1146.35,642.8537" style="stroke:#181818;stroke-width:1.0;"/><text fill="#000000" font-family="sans-serif" font-size="13" lengthAdjust="spacing" textLength="63" x="1137" y="524.042">description</text><text fill="#000000" font-family="sans-serif" font-size="13" lengthAdjust="spacing" textLength="7" x="1137.4628" y="631.8784">1</text></g><!--link Model to Name--><g id="link_Model_Name"><path codeLine="77" d="M675.39,302.9837 C729.62,309.3337 833.64,326.1537 912,367.0137 C941.32,382.3037 952.27,386.9237 968,416.0137 C1008,489.9837 1009.0683,586.7611 1006.5783,636.7811 " fill="none" id="Model-to-Name" style="stroke:#181818;stroke-width:1.0;"/><polygon fill="#181818" points="1006.28,642.7737,1010.7225,633.9837,1006.5286,637.7799,1002.7324,633.5859,1006.28,642.7737" style="stroke:#181818;stroke-width:1.0;"/><text fill="#000000" font-family="sans-serif" font-size="13" lengthAdjust="spacing" textLength="69" x="1002" y="524.042">modelName</text><text fill="#000000" font-family="sans-serif" font-size="13" lengthAdjust="spacing" textLength="7" x="999.0284" y="631.7819">1</text></g><!--SRC=[hPJ1ReCm38RlVGgBowH9gxHhX3XrnxMJgBPp2YxB1WbAWhQgshlFX592sq4Eun1m-EpOlmqrppvvWH2jj99qWpZcHQ6nu1QJ18wB1T2LbTmOw90uVf9Ms0EzZMEjb4sIeuD-V3P5BNYvRgeTQk9UUTaWR7OVc5toA9kg2vrQRXipJTzrIJmayEtiaqbsz1ZvOHWOTxz1-RaHvbaBEgNk5NbMEPQRVO0mZWmKvat8VAjAr5ncE5thu93MY7a8_AACi4B9m1ESzYdVepq4YTyLUXR_P3fPbylxQ5mSWo_V_Dl3LTVHxl4sULKQW_fowyep6bL7pVQia85oiHWq1WaV3GSNqg9q4a_FXWVEJOXhX-UmFTGurn4l_D0NVxElP1oMWQLrNW8dlUTBMiWSTQ5844-Fz9rhcj3nxuBK29dP5PfCYxfjP0Y-vjK_Y7B-Or2I379Qfw0XGs87O_ghwBtRX1bKxMxxIBBz0W00]--></g></svg>