<svg xmlns="http://www.w3.org/2000/svg" xmlns:xlink="http://www.w3.org/1999/xlink" contentStyleType="text/css" height="587px" preserveAspectRatio="none" style="width:1875px;height:587px;background:#FFFFFF;" version="1.1" viewBox="0 0 1875 587" width="1875px" zoomAndPan="magnify"><defs/><g><!--cluster CRMCollaborator --><g id="cluster_CRMCollaborator "><path d="M896.5,204.0137 L1016.5,204.0137 A3.75,3.75 0 0 1 1019,206.5137 L1026,228.6348 L1063.5,228.6348 A2.5,2.5 0 0 1 1066,231.1348 L1066,350.5137 A2.5,2.5 0 0 1 1063.5,353.0137 L896.5,353.0137 A2.5,2.5 0 0 1 894,350.5137 L894,206.5137 A2.5,2.5 0 0 1 896.5,204.0137 " fill="none" style="stroke:#000000;stroke-width:1.5;"/><line style="stroke:#000000;stroke-width:1.5;" x1="894" x2="1026" y1="228.6348" y2="228.6348"/><text fill="#000000" font-family="sans-serif" font-size="14" font-weight="bold" lengthAdjust="spacing" textLength="115.1104" x="898" y="221.1211">CRMCollaborator</text><text fill="#000000" font-family="sans-serif" font-size="14" font-style="italic" lengthAdjust="spacing" textLength="78.627" x="944.6865" y="245.7422">&#171;aggregate&#187;</text></g><!--cluster ModelOfDrone --><g id="cluster_ModelOfDrone "><path d="M1092.5,204.0137 L1193.8311,204.0137 A3.75,3.75 0 0 1 1196.3311,206.5137 L1203.3311,228.6348 L1203.5,228.6348 A2.5,2.5 0 0 1 1206,231.1348 L1206,350.5137 A2.5,2.5 0 0 1 1203.5,353.0137 L1092.5,353.0137 A2.5,2.5 0 0 1 1090,350.5137 L1090,206.5137 A2.5,2.5 0 0 1 1092.5,204.0137 " fill="none" style="stroke:#000000;stroke-width:1.5;"/><line style="stroke:#000000;stroke-width:1.5;" x1="1090" x2="1203.3311" y1="228.6348" y2="228.6348"/><text fill="#000000" font-family="sans-serif" font-size="14" font-weight="bold" lengthAdjust="spacing" textLength="96.4414" x="1094" y="221.1211">ModelOfDrone</text><text fill="#000000" font-family="sans-serif" font-size="14" font-style="italic" lengthAdjust="spacing" textLength="78.627" x="1112.6865" y="245.7422">&#171;aggregate&#187;</text></g><!--cluster Figure --><g id="cluster_Figure "><path d="M1232.5,204.0137 L1280.1689,204.0137 A3.75,3.75 0 0 1 1282.6689,206.5137 L1289.6689,228.6348 L1331.5,228.6348 A2.5,2.5 0 0 1 1334,231.1348 L1334,350.5137 A2.5,2.5 0 0 1 1331.5,353.0137 L1232.5,353.0137 A2.5,2.5 0 0 1 1230,350.5137 L1230,206.5137 A2.5,2.5 0 0 1 1232.5,204.0137 " fill="none" style="stroke:#000000;stroke-width:1.5;"/><line style="stroke:#000000;stroke-width:1.5;" x1="1230" x2="1289.6689" y1="228.6348" y2="228.6348"/><text fill="#000000" font-family="sans-serif" font-size="14" font-weight="bold" lengthAdjust="spacing" textLength="42.7793" x="1234" y="221.1211">Figure</text><text fill="#000000" font-family="sans-serif" font-size="14" font-style="italic" lengthAdjust="spacing" textLength="78.627" x="1246.6865" y="245.7422">&#171;aggregate&#187;</text></g><!--cluster ShowRequest --><g id="cluster_ShowRequest "><path d="M1360.5,204.0137 L1457.9551,204.0137 A3.75,3.75 0 0 1 1460.4551,206.5137 L1467.4551,228.6348 L1507.5,228.6348 A2.5,2.5 0 0 1 1510,231.1348 L1510,350.5137 A2.5,2.5 0 0 1 1507.5,353.0137 L1360.5,353.0137 A2.5,2.5 0 0 1 1358,350.5137 L1358,206.5137 A2.5,2.5 0 0 1 1360.5,204.0137 " fill="none" style="stroke:#000000;stroke-width:1.5;"/><line style="stroke:#000000;stroke-width:1.5;" x1="1358" x2="1467.4551" y1="228.6348" y2="228.6348"/><text fill="#000000" font-family="sans-serif" font-size="14" font-weight="bold" lengthAdjust="spacing" textLength="92.5654" x="1362" y="221.1211">ShowRequest</text><text fill="#000000" font-family="sans-serif" font-size="14" font-style="italic" lengthAdjust="spacing" textLength="78.627" x="1398.6865" y="245.7422">&#171;aggregate&#187;</text></g><!--cluster ShowProposal --><g id="cluster_ShowProposal "><path d="M8.5,6.0137 L110.624,6.0137 A3.75,3.75 0 0 1 113.124,8.5137 L120.124,30.6348 L867.5,30.6348 A2.5,2.5 0 0 1 870,33.1348 L870,342.5137 A2.5,2.5 0 0 1 867.5,345.0137 L8.5,345.0137 A2.5,2.5 0 0 1 6,342.5137 L6,8.5137 A2.5,2.5 0 0 1 8.5,6.0137 " fill="none" style="stroke:#000000;stroke-width:1.5;"/><line style="stroke:#000000;stroke-width:1.5;" x1="6" x2="120.124" y1="30.6348" y2="30.6348"/><text fill="#000000" font-family="sans-serif" font-size="14" font-weight="bold" lengthAdjust="spacing" textLength="97.2344" x="10" y="23.1211">ShowProposal</text><text fill="#000000" font-family="sans-serif" font-size="14" font-style="italic" lengthAdjust="spacing" textLength="78.627" x="402.6865" y="47.7422">&#171;aggregate&#187;</text></g><!--cluster Shared--><g id="cluster_Shared"><path d="M1404.5,466.0137 L1452.9619,466.0137 A3.75,3.75 0 0 1 1455.4619,468.5137 L1462.4619,490.6348 L1865.5,490.6348 A2.5,2.5 0 0 1 1868,493.1348 L1868,577.5137 A2.5,2.5 0 0 1 1865.5,580.0137 L1404.5,580.0137 A2.5,2.5 0 0 1 1402,577.5137 L1402,468.5137 A2.5,2.5 0 0 1 1404.5,466.0137 " fill="none" style="stroke:#000000;stroke-width:1.5;"/><line style="stroke:#000000;stroke-width:1.5;" x1="1402" x2="1462.4619" y1="490.6348" y2="490.6348"/><text fill="#000000" font-family="sans-serif" font-size="14" font-weight="bold" lengthAdjust="spacing" textLength="47.4619" x="1406" y="483.1211">Shared</text></g><!--class CRMCollaborator--><g id="elem_CRMCollaborator"><rect codeLine="4" fill="#F1F1F1" height="76.543" id="CRMCollaborator" rx="2.5" ry="2.5" style="stroke:#181818;stroke-width:0.5;" width="140.1445" x="910" y="260.0137"/><ellipse cx="925" cy="290.2852" fill="#ADD1B2" rx="11" ry="11" style="stroke:#181818;stroke-width:1.0;"/><path d="M927.7656,286.1602 Q927.9219,285.9414 928.1094,285.832 Q928.2969,285.7227 928.5156,285.7227 Q928.8906,285.7227 929.125,285.9883 Q929.3594,286.2383 929.3594,286.8477 L929.3594,288.3008 Q929.3594,288.9102 929.125,289.1758 Q928.8906,289.4414 928.5156,289.4414 Q928.1719,289.4414 927.9688,289.2383 Q927.7656,289.0508 927.6563,288.5352 Q927.6094,288.1758 927.4219,287.9883 Q927.0938,287.6133 926.4844,287.3945 Q925.875,287.1758 925.25,287.1758 Q924.4844,287.1758 923.8438,287.5039 Q923.2188,287.832 922.7188,288.582 Q922.2344,289.332 922.2344,290.3633 L922.2344,291.457 Q922.2344,292.6914 923.125,293.5195 Q924.0156,294.332 925.6094,294.332 Q926.5469,294.332 927.2031,294.082 Q927.5938,293.9258 928.0156,293.4883 Q928.2813,293.2227 928.4219,293.1445 Q928.5781,293.0664 928.7813,293.0664 Q929.1094,293.0664 929.3594,293.332 Q929.625,293.582 929.625,293.9258 Q929.625,294.2695 929.2813,294.6758 Q928.7813,295.2539 927.9844,295.582 Q926.9063,296.0352 925.6094,296.0352 Q924.0938,296.0352 922.8906,295.4102 Q921.9063,294.9102 921.2188,293.8477 Q920.5313,292.7695 920.5313,291.4883 L920.5313,290.332 Q920.5313,289.0039 921.1406,287.8633 Q921.7656,286.707 922.8594,286.0977 Q923.9531,285.4727 925.1875,285.4727 Q925.9219,285.4727 926.5625,285.6445 Q927.2188,285.8008 927.7656,286.1602 Z " fill="#000000"/><text fill="#000000" font-family="sans-serif" font-size="12" font-style="italic" lengthAdjust="spacing" textLength="43.3594" x="971.3926" y="277.9629">&#171;Entity&#187;</text><text fill="#000000" font-family="sans-serif" font-size="12" font-style="italic" lengthAdjust="spacing" textLength="34.0254" x="976.0596" y="293.9238">&#171;root&#187;</text><text fill="#000000" font-family="sans-serif" font-size="14" lengthAdjust="spacing" textLength="108.1445" x="939" y="312.043">CRMCollaborator</text><line style="stroke:#181818;stroke-width:0.5;" x1="911" x2="1049.1445" y1="320.5566" y2="320.5566"/><line style="stroke:#181818;stroke-width:0.5;" x1="911" x2="1049.1445" y1="328.5566" y2="328.5566"/></g><!--class Model--><g id="elem_Model"><rect codeLine="10" fill="#F1F1F1" height="76.543" id="Model" rx="2.5" ry="2.5" style="stroke:#181818;stroke-width:0.5;" width="71.3594" x="1106.5" y="260.0137"/><ellipse cx="1121.5" cy="290.2852" fill="#ADD1B2" rx="11" ry="11" style="stroke:#181818;stroke-width:1.0;"/><path d="M1124.2656,286.1602 Q1124.4219,285.9414 1124.6094,285.832 Q1124.7969,285.7227 1125.0156,285.7227 Q1125.3906,285.7227 1125.625,285.9883 Q1125.8594,286.2383 1125.8594,286.8477 L1125.8594,288.3008 Q1125.8594,288.9102 1125.625,289.1758 Q1125.3906,289.4414 1125.0156,289.4414 Q1124.6719,289.4414 1124.4688,289.2383 Q1124.2656,289.0508 1124.1563,288.5352 Q1124.1094,288.1758 1123.9219,287.9883 Q1123.5938,287.6133 1122.9844,287.3945 Q1122.375,287.1758 1121.75,287.1758 Q1120.9844,287.1758 1120.3438,287.5039 Q1119.7188,287.832 1119.2188,288.582 Q1118.7344,289.332 1118.7344,290.3633 L1118.7344,291.457 Q1118.7344,292.6914 1119.625,293.5195 Q1120.5156,294.332 1122.1094,294.332 Q1123.0469,294.332 1123.7031,294.082 Q1124.0938,293.9258 1124.5156,293.4883 Q1124.7813,293.2227 1124.9219,293.1445 Q1125.0781,293.0664 1125.2813,293.0664 Q1125.6094,293.0664 1125.8594,293.332 Q1126.125,293.582 1126.125,293.9258 Q1126.125,294.2695 1125.7813,294.6758 Q1125.2813,295.2539 1124.4844,295.582 Q1123.4063,296.0352 1122.1094,296.0352 Q1120.5938,296.0352 1119.3906,295.4102 Q1118.4063,294.9102 1117.7188,293.8477 Q1117.0313,292.7695 1117.0313,291.4883 L1117.0313,290.332 Q1117.0313,289.0039 1117.6406,287.8633 Q1118.2656,286.707 1119.3594,286.0977 Q1120.4531,285.4727 1121.6875,285.4727 Q1122.4219,285.4727 1123.0625,285.6445 Q1123.7188,285.8008 1124.2656,286.1602 Z " fill="#000000"/><text fill="#000000" font-family="sans-serif" font-size="12" font-style="italic" lengthAdjust="spacing" textLength="43.3594" x="1133.5" y="277.9629">&#171;Entity&#187;</text><text fill="#000000" font-family="sans-serif" font-size="12" font-style="italic" lengthAdjust="spacing" textLength="34.0254" x="1138.167" y="293.9238">&#171;root&#187;</text><text fill="#000000" font-family="sans-serif" font-size="14" lengthAdjust="spacing" textLength="38.1309" x="1136.1143" y="312.043">Model</text><line style="stroke:#181818;stroke-width:0.5;" x1="1107.5" x2="1176.8594" y1="320.5566" y2="320.5566"/><line style="stroke:#181818;stroke-width:0.5;" x1="1107.5" x2="1176.8594" y1="328.5566" y2="328.5566"/></g><!--class Figure--><g id="elem_Figure"><rect codeLine="17" fill="#F1F1F1" height="76.543" id="Figure" rx="2.5" ry="2.5" style="stroke:#181818;stroke-width:0.5;" width="71.6826" x="1246" y="260.0137"/><ellipse cx="1261" cy="290.2852" fill="#ADD1B2" rx="11" ry="11" style="stroke:#181818;stroke-width:1.0;"/><path d="M1263.7656,286.1602 Q1263.9219,285.9414 1264.1094,285.832 Q1264.2969,285.7227 1264.5156,285.7227 Q1264.8906,285.7227 1265.125,285.9883 Q1265.3594,286.2383 1265.3594,286.8477 L1265.3594,288.3008 Q1265.3594,288.9102 1265.125,289.1758 Q1264.8906,289.4414 1264.5156,289.4414 Q1264.1719,289.4414 1263.9688,289.2383 Q1263.7656,289.0508 1263.6563,288.5352 Q1263.6094,288.1758 1263.4219,287.9883 Q1263.0938,287.6133 1262.4844,287.3945 Q1261.875,287.1758 1261.25,287.1758 Q1260.4844,287.1758 1259.8438,287.5039 Q1259.2188,287.832 1258.7188,288.582 Q1258.2344,289.332 1258.2344,290.3633 L1258.2344,291.457 Q1258.2344,292.6914 1259.125,293.5195 Q1260.0156,294.332 1261.6094,294.332 Q1262.5469,294.332 1263.2031,294.082 Q1263.5938,293.9258 1264.0156,293.4883 Q1264.2813,293.2227 1264.4219,293.1445 Q1264.5781,293.0664 1264.7813,293.0664 Q1265.1094,293.0664 1265.3594,293.332 Q1265.625,293.582 1265.625,293.9258 Q1265.625,294.2695 1265.2813,294.6758 Q1264.7813,295.2539 1263.9844,295.582 Q1262.9063,296.0352 1261.6094,296.0352 Q1260.0938,296.0352 1258.8906,295.4102 Q1257.9063,294.9102 1257.2188,293.8477 Q1256.5313,292.7695 1256.5313,291.4883 L1256.5313,290.332 Q1256.5313,289.0039 1257.1406,287.8633 Q1257.7656,286.707 1258.8594,286.0977 Q1259.9531,285.4727 1261.1875,285.4727 Q1261.9219,285.4727 1262.5625,285.6445 Q1263.2188,285.8008 1263.7656,286.1602 Z " fill="#000000"/><text fill="#000000" font-family="sans-serif" font-size="12" font-style="italic" lengthAdjust="spacing" textLength="43.3594" x="1273.1616" y="277.9629">&#171;Entity&#187;</text><text fill="#000000" font-family="sans-serif" font-size="12" font-style="italic" lengthAdjust="spacing" textLength="34.0254" x="1277.8286" y="293.9238">&#171;root&#187;</text><text fill="#000000" font-family="sans-serif" font-size="14" lengthAdjust="spacing" textLength="39.6826" x="1275" y="312.043">Figure</text><line style="stroke:#181818;stroke-width:0.5;" x1="1247" x2="1316.6826" y1="320.5566" y2="320.5566"/><line style="stroke:#181818;stroke-width:0.5;" x1="1247" x2="1316.6826" y1="328.5566" y2="328.5566"/></g><!--class ShowRequest--><g id="elem_ShowRequest"><rect codeLine="23" fill="#F1F1F1" height="76.543" id="ShowRequest" rx="2.5" ry="2.5" style="stroke:#181818;stroke-width:0.5;" width="119.165" x="1374.5" y="260.0137"/><ellipse cx="1389.5" cy="290.2852" fill="#ADD1B2" rx="11" ry="11" style="stroke:#181818;stroke-width:1.0;"/><path d="M1392.2656,286.1602 Q1392.4219,285.9414 1392.6094,285.832 Q1392.7969,285.7227 1393.0156,285.7227 Q1393.3906,285.7227 1393.625,285.9883 Q1393.8594,286.2383 1393.8594,286.8477 L1393.8594,288.3008 Q1393.8594,288.9102 1393.625,289.1758 Q1393.3906,289.4414 1393.0156,289.4414 Q1392.6719,289.4414 1392.4688,289.2383 Q1392.2656,289.0508 1392.1563,288.5352 Q1392.1094,288.1758 1391.9219,287.9883 Q1391.5938,287.6133 1390.9844,287.3945 Q1390.375,287.1758 1389.75,287.1758 Q1388.9844,287.1758 1388.3438,287.5039 Q1387.7188,287.832 1387.2188,288.582 Q1386.7344,289.332 1386.7344,290.3633 L1386.7344,291.457 Q1386.7344,292.6914 1387.625,293.5195 Q1388.5156,294.332 1390.1094,294.332 Q1391.0469,294.332 1391.7031,294.082 Q1392.0938,293.9258 1392.5156,293.4883 Q1392.7813,293.2227 1392.9219,293.1445 Q1393.0781,293.0664 1393.2813,293.0664 Q1393.6094,293.0664 1393.8594,293.332 Q1394.125,293.582 1394.125,293.9258 Q1394.125,294.2695 1393.7813,294.6758 Q1393.2813,295.2539 1392.4844,295.582 Q1391.4063,296.0352 1390.1094,296.0352 Q1388.5938,296.0352 1387.3906,295.4102 Q1386.4063,294.9102 1385.7188,293.8477 Q1385.0313,292.7695 1385.0313,291.4883 L1385.0313,290.332 Q1385.0313,289.0039 1385.6406,287.8633 Q1386.2656,286.707 1387.3594,286.0977 Q1388.4531,285.4727 1389.6875,285.4727 Q1390.4219,285.4727 1391.0625,285.6445 Q1391.7188,285.8008 1392.2656,286.1602 Z " fill="#000000"/><text fill="#000000" font-family="sans-serif" font-size="12" font-style="italic" lengthAdjust="spacing" textLength="43.3594" x="1425.4028" y="277.9629">&#171;Entity&#187;</text><text fill="#000000" font-family="sans-serif" font-size="12" font-style="italic" lengthAdjust="spacing" textLength="34.0254" x="1430.0698" y="293.9238">&#171;root&#187;</text><text fill="#000000" font-family="sans-serif" font-size="14" lengthAdjust="spacing" textLength="87.165" x="1403.5" y="312.043">ShowRequest</text><line style="stroke:#181818;stroke-width:0.5;" x1="1375.5" x2="1492.665" y1="320.5566" y2="320.5566"/><line style="stroke:#181818;stroke-width:0.5;" x1="1375.5" x2="1492.665" y1="328.5566" y2="328.5566"/></g><!--class ShowProposalStatus--><g id="elem_ShowProposalStatus"><rect codeLine="29" fill="#F1F1F1" height="60.582" id="ShowProposalStatus" rx="2.5" ry="2.5" style="stroke:#181818;stroke-width:0.5;" width="161.9648" x="22" y="268.0137"/><ellipse cx="37" cy="290.3047" fill="#EB937F" rx="11" ry="11" style="stroke:#181818;stroke-width:1.0;"/><path d="M35.8594,291.1016 L35.8594,293.6016 L40.1875,293.6016 L40.1875,292.6797 Q40.1875,292.0703 40.4219,291.8047 Q40.6719,291.5391 41.0469,291.5391 Q41.4219,291.5391 41.6563,291.8047 Q41.8906,292.0703 41.8906,292.6797 L41.8906,295.3047 L33.8906,295.3047 Q33.2656,295.3047 33,295.0703 Q32.75,294.8359 32.75,294.4453 Q32.75,294.0703 33.0156,293.8359 Q33.2813,293.6016 33.8906,293.6016 L34.1563,293.6016 L34.1563,286.9453 L33.8906,286.9453 Q33.2656,286.9453 33,286.7109 Q32.75,286.4766 32.75,286.0859 Q32.75,285.7109 33,285.4766 Q33.2656,285.2422 33.8906,285.2422 L41.5156,285.2422 L41.5156,287.8359 Q41.5156,288.4453 41.2813,288.7109 Q41.0625,288.9609 40.6719,288.9609 Q40.2969,288.9609 40.0625,288.7109 Q39.8281,288.4453 39.8281,287.8359 L39.8281,286.9453 L35.8594,286.9453 L35.8594,289.3984 L37.3438,289.3984 Q37.3438,288.7422 37.4688,288.5547 Q37.7344,288.1484 38.2031,288.1484 Q38.5781,288.1484 38.8125,288.4141 Q39.0469,288.6641 39.0469,289.2734 L39.0469,291.2422 Q39.0469,291.7891 38.9219,291.9766 Q38.6563,292.3672 38.2031,292.3672 Q37.7344,292.3672 37.4688,291.9609 Q37.3438,291.7734 37.3438,291.1016 L35.8594,291.1016 Z " fill="#000000"/><text fill="#000000" font-family="sans-serif" font-size="12" font-style="italic" lengthAdjust="spacing" textLength="82.0547" x="74.9551" y="285.9629">&#171;Value Object&#187;</text><text fill="#000000" font-family="sans-serif" font-size="14" lengthAdjust="spacing" textLength="129.9648" x="51" y="304.082">ShowProposalStatus</text><line style="stroke:#181818;stroke-width:0.5;" x1="23" x2="182.9648" y1="312.5957" y2="312.5957"/><line style="stroke:#181818;stroke-width:0.5;" x1="23" x2="182.9648" y1="320.5957" y2="320.5957"/></g><!--class ShowProposal--><g id="elem_ShowProposal"><rect codeLine="32" fill="#F1F1F1" height="76.543" id="ShowProposal" rx="2.5" ry="2.5" style="stroke:#181818;stroke-width:0.5;" width="122.2754" x="732" y="62.0137"/><ellipse cx="747" cy="92.2852" fill="#ADD1B2" rx="11" ry="11" style="stroke:#181818;stroke-width:1.0;"/><path d="M749.7656,88.1602 Q749.9219,87.9414 750.1094,87.832 Q750.2969,87.7227 750.5156,87.7227 Q750.8906,87.7227 751.125,87.9883 Q751.3594,88.2383 751.3594,88.8477 L751.3594,90.3008 Q751.3594,90.9102 751.125,91.1758 Q750.8906,91.4414 750.5156,91.4414 Q750.1719,91.4414 749.9688,91.2383 Q749.7656,91.0508 749.6563,90.5352 Q749.6094,90.1758 749.4219,89.9883 Q749.0938,89.6133 748.4844,89.3945 Q747.875,89.1758 747.25,89.1758 Q746.4844,89.1758 745.8438,89.5039 Q745.2188,89.832 744.7188,90.582 Q744.2344,91.332 744.2344,92.3633 L744.2344,93.457 Q744.2344,94.6914 745.125,95.5195 Q746.0156,96.332 747.6094,96.332 Q748.5469,96.332 749.2031,96.082 Q749.5938,95.9258 750.0156,95.4883 Q750.2813,95.2227 750.4219,95.1445 Q750.5781,95.0664 750.7813,95.0664 Q751.1094,95.0664 751.3594,95.332 Q751.625,95.582 751.625,95.9258 Q751.625,96.2695 751.2813,96.6758 Q750.7813,97.2539 749.9844,97.582 Q748.9063,98.0352 747.6094,98.0352 Q746.0938,98.0352 744.8906,97.4102 Q743.9063,96.9102 743.2188,95.8477 Q742.5313,94.7695 742.5313,93.4883 L742.5313,92.332 Q742.5313,91.0039 743.1406,89.8633 Q743.7656,88.707 744.8594,88.0977 Q745.9531,87.4727 747.1875,87.4727 Q747.9219,87.4727 748.5625,87.6445 Q749.2188,87.8008 749.7656,88.1602 Z " fill="#000000"/><text fill="#000000" font-family="sans-serif" font-size="12" font-style="italic" lengthAdjust="spacing" textLength="43.3594" x="784.458" y="79.9629">&#171;Entity&#187;</text><text fill="#000000" font-family="sans-serif" font-size="12" font-style="italic" lengthAdjust="spacing" textLength="34.0254" x="789.125" y="95.9238">&#171;root&#187;</text><text fill="#000000" font-family="sans-serif" font-size="14" lengthAdjust="spacing" textLength="90.2754" x="761" y="114.043">ShowProposal</text><line style="stroke:#181818;stroke-width:0.5;" x1="733" x2="853.2754" y1="122.5566" y2="122.5566"/><line style="stroke:#181818;stroke-width:0.5;" x1="733" x2="853.2754" y1="130.5566" y2="130.5566"/></g><!--class ShowProposalTemplate--><g id="elem_ShowProposalTemplate"><rect codeLine="35" fill="#F1F1F1" height="60.582" id="ShowProposalTemplate" rx="2.5" ry="2.5" style="stroke:#181818;stroke-width:0.5;" width="180.6338" x="219.5" y="268.0137"/><ellipse cx="234.5" cy="290.3047" fill="#ADD1B2" rx="11" ry="11" style="stroke:#181818;stroke-width:1.0;"/><path d="M237.2656,286.1797 Q237.4219,285.9609 237.6094,285.8516 Q237.7969,285.7422 238.0156,285.7422 Q238.3906,285.7422 238.625,286.0078 Q238.8594,286.2578 238.8594,286.8672 L238.8594,288.3203 Q238.8594,288.9297 238.625,289.1953 Q238.3906,289.4609 238.0156,289.4609 Q237.6719,289.4609 237.4688,289.2578 Q237.2656,289.0703 237.1563,288.5547 Q237.1094,288.1953 236.9219,288.0078 Q236.5938,287.6328 235.9844,287.4141 Q235.375,287.1953 234.75,287.1953 Q233.9844,287.1953 233.3438,287.5234 Q232.7188,287.8516 232.2188,288.6016 Q231.7344,289.3516 231.7344,290.3828 L231.7344,291.4766 Q231.7344,292.7109 232.625,293.5391 Q233.5156,294.3516 235.1094,294.3516 Q236.0469,294.3516 236.7031,294.1016 Q237.0938,293.9453 237.5156,293.5078 Q237.7813,293.2422 237.9219,293.1641 Q238.0781,293.0859 238.2813,293.0859 Q238.6094,293.0859 238.8594,293.3516 Q239.125,293.6016 239.125,293.9453 Q239.125,294.2891 238.7813,294.6953 Q238.2813,295.2734 237.4844,295.6016 Q236.4063,296.0547 235.1094,296.0547 Q233.5938,296.0547 232.3906,295.4297 Q231.4063,294.9297 230.7188,293.8672 Q230.0313,292.7891 230.0313,291.5078 L230.0313,290.3516 Q230.0313,289.0234 230.6406,287.8828 Q231.2656,286.7266 232.3594,286.1172 Q233.4531,285.4922 234.6875,285.4922 Q235.4219,285.4922 236.0625,285.6641 Q236.7188,285.8203 237.2656,286.1797 Z " fill="#000000"/><text fill="#000000" font-family="sans-serif" font-size="12" font-style="italic" lengthAdjust="spacing" textLength="82.0547" x="281.7896" y="285.9629">&#171;Value Object&#187;</text><text fill="#000000" font-family="sans-serif" font-size="14" lengthAdjust="spacing" textLength="148.6338" x="248.5" y="304.082">ShowProposalTemplate</text><line style="stroke:#181818;stroke-width:0.5;" x1="220.5" x2="399.1338" y1="312.5957" y2="312.5957"/><line style="stroke:#181818;stroke-width:0.5;" x1="220.5" x2="399.1338" y1="320.5957" y2="320.5957"/></g><!--class Insurance--><g id="elem_Insurance"><rect codeLine="37" fill="#F1F1F1" height="60.582" id="Insurance" rx="2.5" ry="2.5" style="stroke:#181818;stroke-width:0.5;" width="110.0547" x="436" y="268.0137"/><ellipse cx="451" cy="290.3047" fill="#ADD1B2" rx="11" ry="11" style="stroke:#181818;stroke-width:1.0;"/><path d="M453.7656,286.1797 Q453.9219,285.9609 454.1094,285.8516 Q454.2969,285.7422 454.5156,285.7422 Q454.8906,285.7422 455.125,286.0078 Q455.3594,286.2578 455.3594,286.8672 L455.3594,288.3203 Q455.3594,288.9297 455.125,289.1953 Q454.8906,289.4609 454.5156,289.4609 Q454.1719,289.4609 453.9688,289.2578 Q453.7656,289.0703 453.6563,288.5547 Q453.6094,288.1953 453.4219,288.0078 Q453.0938,287.6328 452.4844,287.4141 Q451.875,287.1953 451.25,287.1953 Q450.4844,287.1953 449.8438,287.5234 Q449.2188,287.8516 448.7188,288.6016 Q448.2344,289.3516 448.2344,290.3828 L448.2344,291.4766 Q448.2344,292.7109 449.125,293.5391 Q450.0156,294.3516 451.6094,294.3516 Q452.5469,294.3516 453.2031,294.1016 Q453.5938,293.9453 454.0156,293.5078 Q454.2813,293.2422 454.4219,293.1641 Q454.5781,293.0859 454.7813,293.0859 Q455.1094,293.0859 455.3594,293.3516 Q455.625,293.6016 455.625,293.9453 Q455.625,294.2891 455.2813,294.6953 Q454.7813,295.2734 453.9844,295.6016 Q452.9063,296.0547 451.6094,296.0547 Q450.0938,296.0547 448.8906,295.4297 Q447.9063,294.9297 447.2188,293.8672 Q446.5313,292.7891 446.5313,291.5078 L446.5313,290.3516 Q446.5313,289.0234 447.1406,287.8828 Q447.7656,286.7266 448.8594,286.1172 Q449.9531,285.4922 451.1875,285.4922 Q451.9219,285.4922 452.5625,285.6641 Q453.2188,285.8203 453.7656,286.1797 Z " fill="#000000"/><text fill="#000000" font-family="sans-serif" font-size="12" font-style="italic" lengthAdjust="spacing" textLength="82.0547" x="463" y="285.9629">&#171;Value Object&#187;</text><text fill="#000000" font-family="sans-serif" font-size="14" lengthAdjust="spacing" textLength="61.4824" x="473.2861" y="304.082">Insurance</text><line style="stroke:#181818;stroke-width:0.5;" x1="437" x2="545.0547" y1="312.5957" y2="312.5957"/><line style="stroke:#181818;stroke-width:0.5;" x1="437" x2="545.0547" y1="320.5957" y2="320.5957"/></g><!--class FeedbackEmail--><g id="elem_FeedbackEmail"><rect codeLine="40" fill="#F1F1F1" height="60.582" id="FeedbackEmail" rx="2.5" ry="2.5" style="stroke:#181818;stroke-width:0.5;" width="128.4893" x="581" y="268.0137"/><ellipse cx="596" cy="290.3047" fill="#ADD1B2" rx="11" ry="11" style="stroke:#181818;stroke-width:1.0;"/><path d="M598.7656,286.1797 Q598.9219,285.9609 599.1094,285.8516 Q599.2969,285.7422 599.5156,285.7422 Q599.8906,285.7422 600.125,286.0078 Q600.3594,286.2578 600.3594,286.8672 L600.3594,288.3203 Q600.3594,288.9297 600.125,289.1953 Q599.8906,289.4609 599.5156,289.4609 Q599.1719,289.4609 598.9688,289.2578 Q598.7656,289.0703 598.6563,288.5547 Q598.6094,288.1953 598.4219,288.0078 Q598.0938,287.6328 597.4844,287.4141 Q596.875,287.1953 596.25,287.1953 Q595.4844,287.1953 594.8438,287.5234 Q594.2188,287.8516 593.7188,288.6016 Q593.2344,289.3516 593.2344,290.3828 L593.2344,291.4766 Q593.2344,292.7109 594.125,293.5391 Q595.0156,294.3516 596.6094,294.3516 Q597.5469,294.3516 598.2031,294.1016 Q598.5938,293.9453 599.0156,293.5078 Q599.2813,293.2422 599.4219,293.1641 Q599.5781,293.0859 599.7813,293.0859 Q600.1094,293.0859 600.3594,293.3516 Q600.625,293.6016 600.625,293.9453 Q600.625,294.2891 600.2813,294.6953 Q599.7813,295.2734 598.9844,295.6016 Q597.9063,296.0547 596.6094,296.0547 Q595.0938,296.0547 593.8906,295.4297 Q592.9063,294.9297 592.2188,293.8672 Q591.5313,292.7891 591.5313,291.5078 L591.5313,290.3516 Q591.5313,289.0234 592.1406,287.8828 Q592.7656,286.7266 593.8594,286.1172 Q594.9531,285.4922 596.1875,285.4922 Q596.9219,285.4922 597.5625,285.6641 Q598.2188,285.8203 598.7656,286.1797 Z " fill="#000000"/><text fill="#000000" font-family="sans-serif" font-size="12" font-style="italic" lengthAdjust="spacing" textLength="82.0547" x="617.2173" y="285.9629">&#171;Value Object&#187;</text><text fill="#000000" font-family="sans-serif" font-size="14" lengthAdjust="spacing" textLength="96.4893" x="610" y="304.082">FeedbackEmail</text><line style="stroke:#181818;stroke-width:0.5;" x1="582" x2="708.4893" y1="312.5957" y2="312.5957"/><line style="stroke:#181818;stroke-width:0.5;" x1="582" x2="708.4893" y1="320.5957" y2="320.5957"/></g><!--class Video--><g id="elem_Video"><rect codeLine="43" fill="#F1F1F1" height="60.582" id="Video" rx="2.5" ry="2.5" style="stroke:#181818;stroke-width:0.5;" width="110.0547" x="744" y="268.0137"/><ellipse cx="759" cy="290.3047" fill="#ADD1B2" rx="11" ry="11" style="stroke:#181818;stroke-width:1.0;"/><path d="M761.7656,286.1797 Q761.9219,285.9609 762.1094,285.8516 Q762.2969,285.7422 762.5156,285.7422 Q762.8906,285.7422 763.125,286.0078 Q763.3594,286.2578 763.3594,286.8672 L763.3594,288.3203 Q763.3594,288.9297 763.125,289.1953 Q762.8906,289.4609 762.5156,289.4609 Q762.1719,289.4609 761.9688,289.2578 Q761.7656,289.0703 761.6563,288.5547 Q761.6094,288.1953 761.4219,288.0078 Q761.0938,287.6328 760.4844,287.4141 Q759.875,287.1953 759.25,287.1953 Q758.4844,287.1953 757.8438,287.5234 Q757.2188,287.8516 756.7188,288.6016 Q756.2344,289.3516 756.2344,290.3828 L756.2344,291.4766 Q756.2344,292.7109 757.125,293.5391 Q758.0156,294.3516 759.6094,294.3516 Q760.5469,294.3516 761.2031,294.1016 Q761.5938,293.9453 762.0156,293.5078 Q762.2813,293.2422 762.4219,293.1641 Q762.5781,293.0859 762.7813,293.0859 Q763.1094,293.0859 763.3594,293.3516 Q763.625,293.6016 763.625,293.9453 Q763.625,294.2891 763.2813,294.6953 Q762.7813,295.2734 761.9844,295.6016 Q760.9063,296.0547 759.6094,296.0547 Q758.0938,296.0547 756.8906,295.4297 Q755.9063,294.9297 755.2188,293.8672 Q754.5313,292.7891 754.5313,291.5078 L754.5313,290.3516 Q754.5313,289.0234 755.1406,287.8828 Q755.7656,286.7266 756.8594,286.1172 Q757.9531,285.4922 759.1875,285.4922 Q759.9219,285.4922 760.5625,285.6641 Q761.2188,285.8203 761.7656,286.1797 Z " fill="#000000"/><text fill="#000000" font-family="sans-serif" font-size="12" font-style="italic" lengthAdjust="spacing" textLength="82.0547" x="771" y="285.9629">&#171;Value Object&#187;</text><text fill="#000000" font-family="sans-serif" font-size="14" lengthAdjust="spacing" textLength="35.8066" x="794.124" y="304.082">Video</text><line style="stroke:#181818;stroke-width:0.5;" x1="745" x2="853.0547" y1="312.5957" y2="312.5957"/><line style="stroke:#181818;stroke-width:0.5;" x1="745" x2="853.0547" y1="320.5957" y2="320.5957"/></g><!--class Time--><g id="elem_Time"><rect codeLine="60" fill="#F1F1F1" height="60.582" id="Time" rx="2.5" ry="2.5" style="stroke:#181818;stroke-width:0.5;" width="110.0547" x="1418" y="503.0137"/><ellipse cx="1433" cy="525.3047" fill="#ADD1B2" rx="11" ry="11" style="stroke:#181818;stroke-width:1.0;"/><path d="M1435.7656,521.1797 Q1435.9219,520.9609 1436.1094,520.8516 Q1436.2969,520.7422 1436.5156,520.7422 Q1436.8906,520.7422 1437.125,521.0078 Q1437.3594,521.2578 1437.3594,521.8672 L1437.3594,523.3203 Q1437.3594,523.9297 1437.125,524.1953 Q1436.8906,524.4609 1436.5156,524.4609 Q1436.1719,524.4609 1435.9688,524.2578 Q1435.7656,524.0703 1435.6563,523.5547 Q1435.6094,523.1953 1435.4219,523.0078 Q1435.0938,522.6328 1434.4844,522.4141 Q1433.875,522.1953 1433.25,522.1953 Q1432.4844,522.1953 1431.8438,522.5234 Q1431.2188,522.8516 1430.7188,523.6016 Q1430.2344,524.3516 1430.2344,525.3828 L1430.2344,526.4766 Q1430.2344,527.7109 1431.125,528.5391 Q1432.0156,529.3516 1433.6094,529.3516 Q1434.5469,529.3516 1435.2031,529.1016 Q1435.5938,528.9453 1436.0156,528.5078 Q1436.2813,528.2422 1436.4219,528.1641 Q1436.5781,528.0859 1436.7813,528.0859 Q1437.1094,528.0859 1437.3594,528.3516 Q1437.625,528.6016 1437.625,528.9453 Q1437.625,529.2891 1437.2813,529.6953 Q1436.7813,530.2734 1435.9844,530.6016 Q1434.9063,531.0547 1433.6094,531.0547 Q1432.0938,531.0547 1430.8906,530.4297 Q1429.9063,529.9297 1429.2188,528.8672 Q1428.5313,527.7891 1428.5313,526.5078 L1428.5313,525.3516 Q1428.5313,524.0234 1429.1406,522.8828 Q1429.7656,521.7266 1430.8594,521.1172 Q1431.9531,520.4922 1433.1875,520.4922 Q1433.9219,520.4922 1434.5625,520.6641 Q1435.2188,520.8203 1435.7656,521.1797 Z " fill="#000000"/><text fill="#000000" font-family="sans-serif" font-size="12" font-style="italic" lengthAdjust="spacing" textLength="82.0547" x="1445" y="520.9629">&#171;Value Object&#187;</text><text fill="#000000" font-family="sans-serif" font-size="14" lengthAdjust="spacing" textLength="31.1104" x="1470.4722" y="539.082">Time</text><line style="stroke:#181818;stroke-width:0.5;" x1="1419" x2="1527.0547" y1="547.5957" y2="547.5957"/><line style="stroke:#181818;stroke-width:0.5;" x1="1419" x2="1527.0547" y1="555.5957" y2="555.5957"/></g><!--class Date--><g id="elem_Date"><rect codeLine="63" fill="#F1F1F1" height="60.582" id="Date" rx="2.5" ry="2.5" style="stroke:#181818;stroke-width:0.5;" width="110.0547" x="1563" y="503.0137"/><ellipse cx="1578" cy="525.3047" fill="#ADD1B2" rx="11" ry="11" style="stroke:#181818;stroke-width:1.0;"/><path d="M1580.7656,521.1797 Q1580.9219,520.9609 1581.1094,520.8516 Q1581.2969,520.7422 1581.5156,520.7422 Q1581.8906,520.7422 1582.125,521.0078 Q1582.3594,521.2578 1582.3594,521.8672 L1582.3594,523.3203 Q1582.3594,523.9297 1582.125,524.1953 Q1581.8906,524.4609 1581.5156,524.4609 Q1581.1719,524.4609 1580.9688,524.2578 Q1580.7656,524.0703 1580.6563,523.5547 Q1580.6094,523.1953 1580.4219,523.0078 Q1580.0938,522.6328 1579.4844,522.4141 Q1578.875,522.1953 1578.25,522.1953 Q1577.4844,522.1953 1576.8438,522.5234 Q1576.2188,522.8516 1575.7188,523.6016 Q1575.2344,524.3516 1575.2344,525.3828 L1575.2344,526.4766 Q1575.2344,527.7109 1576.125,528.5391 Q1577.0156,529.3516 1578.6094,529.3516 Q1579.5469,529.3516 1580.2031,529.1016 Q1580.5938,528.9453 1581.0156,528.5078 Q1581.2813,528.2422 1581.4219,528.1641 Q1581.5781,528.0859 1581.7813,528.0859 Q1582.1094,528.0859 1582.3594,528.3516 Q1582.625,528.6016 1582.625,528.9453 Q1582.625,529.2891 1582.2813,529.6953 Q1581.7813,530.2734 1580.9844,530.6016 Q1579.9063,531.0547 1578.6094,531.0547 Q1577.0938,531.0547 1575.8906,530.4297 Q1574.9063,529.9297 1574.2188,528.8672 Q1573.5313,527.7891 1573.5313,526.5078 L1573.5313,525.3516 Q1573.5313,524.0234 1574.1406,522.8828 Q1574.7656,521.7266 1575.8594,521.1172 Q1576.9531,520.4922 1578.1875,520.4922 Q1578.9219,520.4922 1579.5625,520.6641 Q1580.2188,520.8203 1580.7656,521.1797 Z " fill="#000000"/><text fill="#000000" font-family="sans-serif" font-size="12" font-style="italic" lengthAdjust="spacing" textLength="82.0547" x="1590" y="520.9629">&#171;Value Object&#187;</text><text fill="#000000" font-family="sans-serif" font-size="14" lengthAdjust="spacing" textLength="29.5723" x="1616.2412" y="539.082">Date</text><line style="stroke:#181818;stroke-width:0.5;" x1="1564" x2="1672.0547" y1="547.5957" y2="547.5957"/><line style="stroke:#181818;stroke-width:0.5;" x1="1564" x2="1672.0547" y1="555.5957" y2="555.5957"/></g><!--class QuantityOfDrones--><g id="elem_QuantityOfDrones"><rect codeLine="66" fill="#F1F1F1" height="60.582" id="QuantityOfDrones" rx="2.5" ry="2.5" style="stroke:#181818;stroke-width:0.5;" width="144.0479" x="1708" y="503.0137"/><ellipse cx="1723" cy="525.3047" fill="#ADD1B2" rx="11" ry="11" style="stroke:#181818;stroke-width:1.0;"/><path d="M1725.7656,521.1797 Q1725.9219,520.9609 1726.1094,520.8516 Q1726.2969,520.7422 1726.5156,520.7422 Q1726.8906,520.7422 1727.125,521.0078 Q1727.3594,521.2578 1727.3594,521.8672 L1727.3594,523.3203 Q1727.3594,523.9297 1727.125,524.1953 Q1726.8906,524.4609 1726.5156,524.4609 Q1726.1719,524.4609 1725.9688,524.2578 Q1725.7656,524.0703 1725.6563,523.5547 Q1725.6094,523.1953 1725.4219,523.0078 Q1725.0938,522.6328 1724.4844,522.4141 Q1723.875,522.1953 1723.25,522.1953 Q1722.4844,522.1953 1721.8438,522.5234 Q1721.2188,522.8516 1720.7188,523.6016 Q1720.2344,524.3516 1720.2344,525.3828 L1720.2344,526.4766 Q1720.2344,527.7109 1721.125,528.5391 Q1722.0156,529.3516 1723.6094,529.3516 Q1724.5469,529.3516 1725.2031,529.1016 Q1725.5938,528.9453 1726.0156,528.5078 Q1726.2813,528.2422 1726.4219,528.1641 Q1726.5781,528.0859 1726.7813,528.0859 Q1727.1094,528.0859 1727.3594,528.3516 Q1727.625,528.6016 1727.625,528.9453 Q1727.625,529.2891 1727.2813,529.6953 Q1726.7813,530.2734 1725.9844,530.6016 Q1724.9063,531.0547 1723.6094,531.0547 Q1722.0938,531.0547 1720.8906,530.4297 Q1719.9063,529.9297 1719.2188,528.8672 Q1718.5313,527.7891 1718.5313,526.5078 L1718.5313,525.3516 Q1718.5313,524.0234 1719.1406,522.8828 Q1719.7656,521.7266 1720.8594,521.1172 Q1721.9531,520.4922 1723.1875,520.4922 Q1723.9219,520.4922 1724.5625,520.6641 Q1725.2188,520.8203 1725.7656,521.1797 Z " fill="#000000"/><text fill="#000000" font-family="sans-serif" font-size="12" font-style="italic" lengthAdjust="spacing" textLength="82.0547" x="1751.9966" y="520.9629">&#171;Value Object&#187;</text><text fill="#000000" font-family="sans-serif" font-size="14" lengthAdjust="spacing" textLength="112.0479" x="1737" y="539.082">QuantityOfDrones</text><line style="stroke:#181818;stroke-width:0.5;" x1="1709" x2="1851.0479" y1="547.5957" y2="547.5957"/><line style="stroke:#181818;stroke-width:0.5;" x1="1709" x2="1851.0479" y1="555.5957" y2="555.5957"/></g><!--link ShowProposal to FeedbackEmail--><g id="link_ShowProposal_FeedbackEmail"><path codeLine="47" d="M732.06,139.1037 C720.77,147.9437 709.78,158.0237 701,169.0137 C677.22,198.7637 663.3621,234.4313 654.8021,262.1213 " fill="none" id="ShowProposal-to-FeedbackEmail" style="stroke:#181818;stroke-width:1.0;"/><polygon fill="#181818" points="653.03,267.8537,659.5097,260.4365,654.5067,263.0767,651.8666,258.0738,653.03,267.8537" style="stroke:#181818;stroke-width:1.0;"/><text fill="#000000" font-family="sans-serif" font-size="13" lengthAdjust="spacing" textLength="85.2681" x="702" y="184.042">feedbackEmail</text><text fill="#000000" font-family="sans-serif" font-size="13" lengthAdjust="spacing" textLength="7.23" x="646.9376" y="256.8784">1</text></g><!--link ShowProposal to CRMCollaborator--><g id="link_ShowProposal_CRMCollaborator"><path codeLine="48" d="M829.06,139.3037 C862.17,174.0137 906.8387,220.8221 939.9187,255.5021 " fill="none" id="ShowProposal-to-CRMCollaborator" style="stroke:#181818;stroke-width:1.0;"/><polygon fill="#181818" points="944.06,259.8437,940.7424,250.5704,940.6089,256.2257,934.9536,256.0921,944.06,259.8437" style="stroke:#181818;stroke-width:1.0;"/><text fill="#000000" font-family="sans-serif" font-size="13" lengthAdjust="spacing" textLength="60.7026" x="877" y="184.042">created by</text><text fill="#000000" font-family="sans-serif" font-size="13" lengthAdjust="spacing" textLength="7.23" x="930.2886" y="248.8289">1</text></g><!--link ShowProposal to ShowRequest--><g id="link_ShowProposal_ShowRequest"><path codeLine="49" d="M854.36,106.1937 C978.73,116.6237 1255.43,145.0037 1334,196.0137 C1360.56,213.2537 1381.6172,234.111 1399.9772,255.171 " fill="none" id="ShowProposal-to-ShowRequest" style="stroke:#181818;stroke-width:1.0;"/><polygon fill="#181818" points="1403.92,259.6937,1401.0209,250.2812,1400.6343,255.9248,1394.9907,255.5383,1403.92,259.6937" style="stroke:#181818;stroke-width:1.0;"/><text fill="#000000" font-family="sans-serif" font-size="13" lengthAdjust="spacing" textLength="53.4917" x="1314" y="184.042">based on</text><text fill="#000000" font-family="sans-serif" font-size="13" lengthAdjust="spacing" textLength="7.23" x="1391.154" y="248.6532">1</text></g><!--link ShowProposal to ShowProposalStatus--><g id="link_ShowProposal_ShowProposalStatus"><path codeLine="50" d="M731.68,106.1837 C599.64,117.0437 292.99,146.9137 202,196.0137 C169.94,213.3137 145.5298,239.7868 127.5398,263.0568 " fill="none" id="ShowProposal-to-ShowProposalStatus" style="stroke:#181818;stroke-width:1.0;"/><polygon fill="#181818" points="123.87,267.8037,132.5393,263.1299,126.9282,263.848,126.2101,258.2369,123.87,267.8037" style="stroke:#181818;stroke-width:1.0;"/><text fill="#000000" font-family="sans-serif" font-size="13" lengthAdjust="spacing" textLength="86.7217" x="271" y="184.042">proposalStatus</text><text fill="#000000" font-family="sans-serif" font-size="13" lengthAdjust="spacing" textLength="7.23" x="120.4799" y="256.818">1</text></g><!--link ShowProposal to Figure--><g id="link_ShowProposal_Figure"><path codeLine="51" d="M854.34,103.9237 C937.23,109.7337 1086.95,129.4337 1194,196.0137 C1219.75,212.0237 1238.5166,233.0972 1254.2166,254.7372 " fill="none" id="ShowProposal-to-Figure" style="stroke:#181818;stroke-width:1.0;"/><polygon fill="#181818" points="1257.74,259.5937,1255.6925,249.96,1254.8038,255.5466,1249.2172,254.6579,1257.74,259.5937" style="stroke:#181818;stroke-width:1.0;"/><text fill="#000000" font-family="sans-serif" font-size="13" lengthAdjust="spacing" textLength="77.3208" x="1176" y="184.042">requests new</text><text fill="#000000" font-family="sans-serif" font-size="13" lengthAdjust="spacing" textLength="19.5127" x="1233.2172" y="248.83">0..*</text></g><!--link ShowProposal to ShowProposalTemplate--><g id="link_ShowProposal_ShowProposalTemplate"><path codeLine="52" d="M731.88,106.9337 C654.49,115.9637 519.06,139.0937 418,196.0137 C385.27,214.4537 358.7236,240.3869 338.5336,263.1269 " fill="none" id="ShowProposal-to-ShowProposalTemplate" style="stroke:#181818;stroke-width:1.0;"/><polygon fill="#181818" points="334.55,267.6137,343.5166,263.5393,337.8697,263.8747,337.5343,258.2278,334.55,267.6137" style="stroke:#181818;stroke-width:1.0;"/><text fill="#000000" font-family="sans-serif" font-size="13" lengthAdjust="spacing" textLength="49.8608" x="466" y="184.042">template</text><text fill="#000000" font-family="sans-serif" font-size="13" lengthAdjust="spacing" textLength="7.23" x="331.953" y="256.5889">1</text></g><!--link ShowProposal to Model--><g id="link_ShowProposal_Model"><path codeLine="53" d="M854.25,111.9137 C913.01,124.2437 1002,149.2837 1066,196.0137 C1088.94,212.7637 1104.8691,233.3162 1118.1991,254.6362 " fill="none" id="ShowProposal-to-Model" style="stroke:#181818;stroke-width:1.0;"/><polygon fill="#181818" points="1121.38,259.7237,1120.0004,249.9719,1118.7293,255.4841,1113.2171,254.2131,1121.38,259.7237" style="stroke:#181818;stroke-width:1.0;"/><text fill="#000000" font-family="sans-serif" font-size="13" lengthAdjust="spacing" textLength="27.46" x="1055" y="184.042">uses</text><text fill="#000000" font-family="sans-serif" font-size="13" lengthAdjust="spacing" textLength="19.5127" x="1097.2163" y="248.6883">1..*</text></g><!--link ShowProposal to Insurance--><g id="link_ShowProposal_Insurance"><path codeLine="54" d="M731.76,115.8137 C682.1,129.7937 612.46,155.0637 563,196.0137 C539.04,215.8537 522.2407,240.2822 509.5107,262.4222 " fill="none" id="ShowProposal-to-Insurance" style="stroke:#181818;stroke-width:1.0;"/><polygon fill="#181818" points="506.52,267.6237,514.4738,261.8153,509.0123,263.2891,507.5384,257.8276,506.52,267.6237" style="stroke:#181818;stroke-width:1.0;"/><text fill="#000000" font-family="sans-serif" font-size="13" lengthAdjust="spacing" textLength="56.3672" x="603" y="184.042">insurance</text><text fill="#000000" font-family="sans-serif" font-size="13" lengthAdjust="spacing" textLength="7.23" x="502.0172" y="256.6009">1</text></g><!--link ShowProposal to Video--><g id="link_ShowProposal_Video"><path codeLine="55" d="M794.16,139.3037 C795.3,176.7937 796.8567,227.4765 797.9067,261.8365 " fill="none" id="ShowProposal-to-Video" style="stroke:#181818;stroke-width:1.0;"/><polygon fill="#181818" points="798.09,267.8337,801.8132,258.7157,797.9373,262.836,793.817,258.96,798.09,267.8337" style="stroke:#181818;stroke-width:1.0;"/><text fill="#000000" font-family="sans-serif" font-size="13" lengthAdjust="spacing" textLength="31.0781" x="797" y="184.042">video</text><text fill="#000000" font-family="sans-serif" font-size="13" lengthAdjust="spacing" textLength="7.23" x="790.1985" y="256.8542">1</text></g><!--link ShowProposal to QuantityOfDrones--><g id="link_ShowProposal_QuantityOfDrones"><path codeLine="70" d="M854.27,104.4037 C1009.84,112.1637 1417.08,135.1737 1548,169.0137 C1576.7,176.4337 1587.48,175.6137 1609,196.0137 C1703.4,285.5037 1752.5959,432.7477 1770.6559,496.9777 " fill="none" id="ShowProposal-to-QuantityOfDrones" style="stroke:#181818;stroke-width:1.0;"/><polygon fill="#181818" points="1772.28,502.7537,1773.6946,493.0069,1770.9266,497.9403,1765.9932,495.1724,1772.28,502.7537" style="stroke:#181818;stroke-width:1.0;"/><text fill="#000000" font-family="sans-serif" font-size="13" lengthAdjust="spacing" textLength="65.0508" x="1733" y="384.042">qnt_drones</text><text fill="#000000" font-family="sans-serif" font-size="13" lengthAdjust="spacing" textLength="7.23" x="1762.9847" y="491.7577">1</text></g><!--link ShowProposal to Time--><g id="link_ShowProposal_Time"><path codeLine="71" d="M854.21,104.8737 C1020.08,114.6137 1468.59,145.4337 1510,196.0137 C1583.9,286.2837 1523.6336,433.5173 1491.6336,497.5073 " fill="none" id="ShowProposal-to-Time" style="stroke:#181818;stroke-width:1.0;"/><polygon fill="#181818" points="1488.95,502.8737,1496.553,496.6132,1491.1863,498.4017,1489.3978,493.035,1488.95,502.8737" style="stroke:#181818;stroke-width:1.0;"/><text fill="#000000" font-family="sans-serif" font-size="13" lengthAdjust="spacing" textLength="24.5591" x="1538" y="384.042">time</text><text fill="#000000" font-family="sans-serif" font-size="13" lengthAdjust="spacing" textLength="7.23" x="1484.5359" y="491.9025">1</text></g><!--link ShowProposal to Date--><g id="link_ShowProposal_Date"><path codeLine="72" d="M854.16,104.4737 C1002.56,112.1337 1378.43,134.4137 1499,169.0137 C1524.79,176.4137 1536.78,174.6337 1553,196.0137 C1624.2,289.8737 1624.4992,433.8538 1620.8192,496.9838 " fill="none" id="ShowProposal-to-Date" style="stroke:#181818;stroke-width:1.0;"/><polygon fill="#181818" points="1620.47,502.9737,1624.987,494.2217,1620.761,497.9821,1617.0005,493.7561,1620.47,502.9737" style="stroke:#181818;stroke-width:1.0;"/><text fill="#000000" font-family="sans-serif" font-size="13" lengthAdjust="spacing" textLength="25.3018" x="1619" y="384.042">date</text><text fill="#000000" font-family="sans-serif" font-size="13" lengthAdjust="spacing" textLength="7.23" x="1613.2639" y="491.5395">1</text></g><!--SRC=[hLJBReCm4Bpp5IikbIerQgyMufA7r4EKDebohGni2ArZ4ziqZQByUnqtf1ZLb4hb0BOrCxlUdQMawHlD4SBXV3eKZD54IAg5X12YYEQvn9ngZ6Cu1W6O9sLKAMY3esZCTQ4F1XT5KWWTnqSBFmMd82Zh65EH8PkjHr9mx0vWaLsoZkwao2lvY-85qpFJnKRivxYhKEcshAFQnFr1-acAKYZAFDh8goqqSGjDTQKCTaLPXJ1BNZ5j5iDDwAhULR-VAKlSbioauWtrJNlagfAKfzWdhGbYbfWAZBUqO7q8go93qGsySUvw5yE7FNPFpN7u4Bhn2QoRMp-hPNC2gKHJd0oIWv_Ki0I1X2e35xmRxhQPGEdiFTpxmU0sh6rDG7w5LC1ntozQtMi2-hBoyMmaEv84AeNAhtyr1O6YNlhHjia4ti-VvemiDbIQiZcJjYoslPmswd9l0_TSKJiRbz-H-W-lrVTgQnFOSVsIsNKNxtn7qmtpxaADRC-oSxzEmIS0]--></g></svg>