<svg xmlns="http://www.w3.org/2000/svg" xmlns:xlink="http://www.w3.org/1999/xlink" contentStyleType="text/css" height="546.7px" preserveAspectRatio="none" style="width:996px;height:546px;background:#FFFFFF;" version="1.1" viewBox="0 0 996 546" width="996.1px" zoomAndPan="magnify"><defs/><g><!--class Client--><g id="elem_Client"><rect codeLine="2" fill="#F1F1F1" height="42.4074" id="Client" rx="1.75" ry="1.75" style="stroke:#181818;stroke-width:0.3499999999999999;" width="49.9516" x="357.7" y="258.3"/><ellipse cx="368.2" cy="273.9037" fill="#ADD1B2" rx="7.7" ry="7.7" style="stroke:#181818;stroke-width:0.6999999999999998;"/><path d="M370.1359,271.0162 Q370.2453,270.8631 370.3766,270.7865 Q370.5078,270.71 370.6609,270.71 Q370.9234,270.71 371.0875,270.8959 Q371.2516,271.0709 371.2516,271.4975 L371.2516,272.5146 Q371.2516,272.9412 371.0875,273.1271 Q370.9234,273.3131 370.6609,273.3131 Q370.4203,273.3131 370.2781,273.1709 Q370.1359,273.0396 370.0594,272.6787 Q370.0266,272.4271 369.8953,272.2959 Q369.6656,272.0334 369.2391,271.8803 Q368.8125,271.7271 368.375,271.7271 Q367.8391,271.7271 367.3906,271.9568 Q366.9531,272.1865 366.6031,272.7115 Q366.2641,273.2365 366.2641,273.9584 L366.2641,274.724 Q366.2641,275.5881 366.8875,276.1678 Q367.5109,276.7365 368.6266,276.7365 Q369.2828,276.7365 369.7422,276.5615 Q370.0156,276.4521 370.3109,276.1459 Q370.4969,275.96 370.5953,275.9053 Q370.7047,275.8506 370.8469,275.8506 Q371.0766,275.8506 371.2516,276.0365 Q371.4375,276.2115 371.4375,276.4521 Q371.4375,276.6928 371.1969,276.9771 Q370.8469,277.3818 370.2891,277.6115 Q369.5344,277.9287 368.6266,277.9287 Q367.5656,277.9287 366.7234,277.4912 Q366.0344,277.1412 365.5531,276.3975 Q365.0719,275.6428 365.0719,274.7459 L365.0719,273.9365 Q365.0719,273.0068 365.4984,272.2084 Q365.9359,271.399 366.7016,270.9725 Q367.4672,270.535 368.3312,270.535 Q368.8453,270.535 369.2937,270.6553 Q369.7531,270.7646 370.1359,271.0162 Z " fill="#000000"/><text fill="#000000" font-family="sans-serif" font-size="8.4" font-style="italic" lengthAdjust="spacing" textLength="30.3516" x="376.6" y="270.8645">&#171;Entity&#187;</text><text fill="#000000" font-family="sans-serif" font-size="9.8" lengthAdjust="spacing" textLength="25.0551" x="379.2482" y="283.5479">Client</text><line style="stroke:#181818;stroke-width:0.3499999999999999;" x1="358.4" x2="406.9516" y1="289.5074" y2="289.5074"/><line style="stroke:#181818;stroke-width:0.3499999999999999;" x1="358.4" x2="406.9516" y1="295.1074" y2="295.1074"/></g><!--class PublicEntity--><g id="elem_PublicEntity"><rect codeLine="6" fill="#F1F1F1" height="42.4074" id="PublicEntity" rx="1.75" ry="1.75" style="stroke:#181818;stroke-width:0.3499999999999999;" width="73.7734" x="753.2" y="11.2"/><ellipse cx="763.7" cy="26.8037" fill="#ADD1B2" rx="7.7" ry="7.7" style="stroke:#181818;stroke-width:0.6999999999999998;"/><path d="M765.6359,23.9162 Q765.7453,23.7631 765.8766,23.6865 Q766.0078,23.61 766.1609,23.61 Q766.4234,23.61 766.5875,23.7959 Q766.7516,23.9709 766.7516,24.3975 L766.7516,25.4146 Q766.7516,25.8412 766.5875,26.0271 Q766.4234,26.2131 766.1609,26.2131 Q765.9203,26.2131 765.7781,26.0709 Q765.6359,25.9396 765.5594,25.5787 Q765.5266,25.3271 765.3953,25.1959 Q765.1656,24.9334 764.7391,24.7803 Q764.3125,24.6271 763.875,24.6271 Q763.3391,24.6271 762.8906,24.8568 Q762.4531,25.0865 762.1031,25.6115 Q761.7641,26.1365 761.7641,26.8584 L761.7641,27.624 Q761.7641,28.4881 762.3875,29.0678 Q763.0109,29.6365 764.1266,29.6365 Q764.7828,29.6365 765.2422,29.4615 Q765.5156,29.3521 765.8109,29.0459 Q765.9969,28.86 766.0953,28.8053 Q766.2047,28.7506 766.3469,28.7506 Q766.5766,28.7506 766.7516,28.9365 Q766.9375,29.1115 766.9375,29.3521 Q766.9375,29.5928 766.6969,29.8771 Q766.3469,30.2818 765.7891,30.5115 Q765.0344,30.8287 764.1266,30.8287 Q763.0656,30.8287 762.2234,30.3912 Q761.5344,30.0412 761.0531,29.2975 Q760.5719,28.5428 760.5719,27.6459 L760.5719,26.8365 Q760.5719,25.9068 760.9984,25.1084 Q761.4359,24.299 762.2016,23.8725 Q762.9672,23.435 763.8312,23.435 Q764.3453,23.435 764.7937,23.5553 Q765.2531,23.6646 765.6359,23.9162 Z " fill="#000000"/><text fill="#000000" font-family="sans-serif" font-size="8.4" font-style="italic" lengthAdjust="spacing" textLength="54.1734" x="772.1" y="23.7645">&#171;value object&#187;</text><text fill="#000000" font-family="sans-serif" font-size="9.8" lengthAdjust="spacing" textLength="51.2012" x="773.5861" y="36.4479">PublicEntity</text><line style="stroke:#181818;stroke-width:0.3499999999999999;" x1="753.9" x2="826.2734" y1="42.4074" y2="42.4074"/><line style="stroke:#181818;stroke-width:0.3499999999999999;" x1="753.9" x2="826.2734" y1="48.0074" y2="48.0074"/></g><!--class Address--><g id="elem_Address"><rect codeLine="10" fill="#F1F1F1" height="94.5465" id="Address" rx="1.75" ry="1.75" style="stroke:#181818;stroke-width:0.3499999999999999;" width="77.5838" x="4.9" y="362.6"/><ellipse cx="17.1147" cy="378.2037" fill="#ADD1B2" rx="7.7" ry="7.7" style="stroke:#181818;stroke-width:0.6999999999999998;"/><path d="M19.0506,375.3162 Q19.16,375.1631 19.2912,375.0865 Q19.4225,375.01 19.5756,375.01 Q19.8381,375.01 20.0022,375.1959 Q20.1662,375.3709 20.1662,375.7975 L20.1662,376.8146 Q20.1662,377.2412 20.0022,377.4271 Q19.8381,377.6131 19.5756,377.6131 Q19.335,377.6131 19.1928,377.4709 Q19.0506,377.3396 18.974,376.9787 Q18.9412,376.7271 18.81,376.5959 Q18.5803,376.3334 18.1537,376.1803 Q17.7272,376.0271 17.2897,376.0271 Q16.7537,376.0271 16.3053,376.2568 Q15.8678,376.4865 15.5178,377.0115 Q15.1787,377.5365 15.1787,378.2584 L15.1787,379.024 Q15.1787,379.8881 15.8022,380.4678 Q16.4256,381.0365 17.5412,381.0365 Q18.1975,381.0365 18.6568,380.8615 Q18.9303,380.7521 19.2256,380.4459 Q19.4115,380.26 19.51,380.2053 Q19.6193,380.1506 19.7615,380.1506 Q19.9912,380.1506 20.1662,380.3365 Q20.3522,380.5115 20.3522,380.7521 Q20.3522,380.9928 20.1115,381.2771 Q19.7615,381.6818 19.2037,381.9115 Q18.449,382.2287 17.5412,382.2287 Q16.4803,382.2287 15.6381,381.7912 Q14.949,381.4412 14.4678,380.6975 Q13.9865,379.9428 13.9865,379.0459 L13.9865,378.2365 Q13.9865,377.3068 14.4131,376.5084 Q14.8506,375.699 15.6162,375.2725 Q16.3818,374.835 17.2459,374.835 Q17.76,374.835 18.2084,374.9553 Q18.6678,375.0646 19.0506,375.3162 Z " fill="#000000"/><text fill="#000000" font-family="sans-serif" font-size="8.4" font-style="italic" lengthAdjust="spacing" textLength="54.1734" x="25.8957" y="375.1645">&#171;value object&#187;</text><text fill="#000000" font-family="sans-serif" font-size="9.8" lengthAdjust="spacing" textLength="35.9509" x="35.007" y="387.8479">Address</text><line style="stroke:#181818;stroke-width:0.3499999999999999;" x1="5.6" x2="81.7838" y1="393.8074" y2="393.8074"/><text fill="#000000" font-family="sans-serif" font-size="9.8" lengthAdjust="spacing" textLength="55.5557" x="9.1" y="407.1826">street: String</text><text fill="#000000" font-family="sans-serif" font-size="9.8" lengthAdjust="spacing" textLength="69.1838" x="9.1" y="420.2174">number: Integer</text><text fill="#000000" font-family="sans-serif" font-size="9.8" lengthAdjust="spacing" textLength="45.7461" x="9.1" y="433.2521">city: String</text><text fill="#000000" font-family="sans-serif" font-size="9.8" lengthAdjust="spacing" textLength="63.1832" x="9.1" y="446.2869">country: String</text><line style="stroke:#181818;stroke-width:0.3499999999999999;" x1="5.6" x2="81.7838" y1="451.5465" y2="451.5465"/></g><!--class EuropeanVatNumber--><g id="elem_EuropeanVatNumber"><rect codeLine="17" fill="#F1F1F1" height="42.4074" id="EuropeanVatNumber" rx="1.75" ry="1.75" style="stroke:#181818;stroke-width:0.3499999999999999;" width="114.4664" x="107.45" y="388.5"/><ellipse cx="117.95" cy="404.1037" fill="#ADD1B2" rx="7.7" ry="7.7" style="stroke:#181818;stroke-width:0.6999999999999998;"/><path d="M119.8859,401.2162 Q119.9953,401.0631 120.1266,400.9865 Q120.2578,400.91 120.4109,400.91 Q120.6734,400.91 120.8375,401.0959 Q121.0016,401.2709 121.0016,401.6975 L121.0016,402.7146 Q121.0016,403.1412 120.8375,403.3271 Q120.6734,403.5131 120.4109,403.5131 Q120.1703,403.5131 120.0281,403.3709 Q119.8859,403.2396 119.8094,402.8787 Q119.7766,402.6271 119.6453,402.4959 Q119.4156,402.2334 118.9891,402.0803 Q118.5625,401.9271 118.125,401.9271 Q117.5891,401.9271 117.1406,402.1568 Q116.7031,402.3865 116.3531,402.9115 Q116.0141,403.4365 116.0141,404.1584 L116.0141,404.924 Q116.0141,405.7881 116.6375,406.3678 Q117.2609,406.9365 118.3766,406.9365 Q119.0328,406.9365 119.4922,406.7615 Q119.7656,406.6521 120.0609,406.3459 Q120.2469,406.16 120.3453,406.1053 Q120.4547,406.0506 120.5969,406.0506 Q120.8266,406.0506 121.0016,406.2365 Q121.1875,406.4115 121.1875,406.6521 Q121.1875,406.8928 120.9469,407.1771 Q120.5969,407.5818 120.0391,407.8115 Q119.2844,408.1287 118.3766,408.1287 Q117.3156,408.1287 116.4734,407.6912 Q115.7844,407.3412 115.3031,406.5975 Q114.8219,405.8428 114.8219,404.9459 L114.8219,404.1365 Q114.8219,403.2068 115.2484,402.4084 Q115.6859,401.599 116.4516,401.1725 Q117.2172,400.735 118.0812,400.735 Q118.5953,400.735 119.0437,400.8553 Q119.5031,400.9646 119.8859,401.2162 Z " fill="#000000"/><text fill="#000000" font-family="sans-serif" font-size="8.4" font-style="italic" lengthAdjust="spacing" textLength="54.1734" x="146.6965" y="401.0645">&#171;value object&#187;</text><text fill="#000000" font-family="sans-serif" font-size="9.8" lengthAdjust="spacing" textLength="92.0664" x="127.75" y="413.7479">EuropeanVatNumber</text><line style="stroke:#181818;stroke-width:0.3499999999999999;" x1="108.15" x2="221.2164" y1="419.7074" y2="419.7074"/><line style="stroke:#181818;stroke-width:0.3499999999999999;" x1="108.15" x2="221.2164" y1="425.3074" y2="425.3074"/></g><!--class Drone--><g id="elem_Drone"><rect codeLine="21" fill="#F1F1F1" height="55.4422" id="Drone" rx="1.75" ry="1.75" style="stroke:#181818;stroke-width:0.3499999999999999;" width="49.9516" x="851.2" y="4.9"/><ellipse cx="861.7" cy="20.5037" fill="#ADD1B2" rx="7.7" ry="7.7" style="stroke:#181818;stroke-width:0.6999999999999998;"/><path d="M863.6359,17.6162 Q863.7453,17.4631 863.8766,17.3865 Q864.0078,17.31 864.1609,17.31 Q864.4234,17.31 864.5875,17.4959 Q864.7516,17.6709 864.7516,18.0975 L864.7516,19.1146 Q864.7516,19.5412 864.5875,19.7271 Q864.4234,19.9131 864.1609,19.9131 Q863.9203,19.9131 863.7781,19.7709 Q863.6359,19.6396 863.5594,19.2787 Q863.5266,19.0271 863.3953,18.8959 Q863.1656,18.6334 862.7391,18.4803 Q862.3125,18.3271 861.875,18.3271 Q861.3391,18.3271 860.8906,18.5568 Q860.4531,18.7865 860.1031,19.3115 Q859.7641,19.8365 859.7641,20.5584 L859.7641,21.324 Q859.7641,22.1881 860.3875,22.7678 Q861.0109,23.3365 862.1266,23.3365 Q862.7828,23.3365 863.2422,23.1615 Q863.5156,23.0521 863.8109,22.7459 Q863.9969,22.56 864.0953,22.5053 Q864.2047,22.4506 864.3469,22.4506 Q864.5766,22.4506 864.7516,22.6365 Q864.9375,22.8115 864.9375,23.0521 Q864.9375,23.2928 864.6969,23.5771 Q864.3469,23.9818 863.7891,24.2115 Q863.0344,24.5287 862.1266,24.5287 Q861.0656,24.5287 860.2234,24.0912 Q859.5344,23.7412 859.0531,22.9975 Q858.5719,22.2428 858.5719,21.3459 L858.5719,20.5365 Q858.5719,19.6068 858.9984,18.8084 Q859.4359,17.999 860.2016,17.5725 Q860.9672,17.135 861.8312,17.135 Q862.3453,17.135 862.7937,17.2553 Q863.2531,17.3646 863.6359,17.6162 Z " fill="#000000"/><text fill="#000000" font-family="sans-serif" font-size="8.4" font-style="italic" lengthAdjust="spacing" textLength="30.3516" x="870.1" y="17.4645">&#171;Entity&#187;</text><text fill="#000000" font-family="sans-serif" font-size="9.8" lengthAdjust="spacing" textLength="26.6916" x="871.93" y="30.1479">Drone</text><line style="stroke:#181818;stroke-width:0.3499999999999999;" x1="851.9" x2="900.4516" y1="36.1074" y2="36.1074"/><text fill="#000000" font-family="sans-serif" font-size="9.8" lengthAdjust="spacing" textLength="29.9646" x="855.4" y="49.4826">routine</text><line style="stroke:#181818;stroke-width:0.3499999999999999;" x1="851.9" x2="900.4516" y1="54.7422" y2="54.7422"/></g><!--class Figure--><g id="elem_Figure"><rect codeLine="25" fill="#F1F1F1" height="42.4074" id="Figure" rx="1.75" ry="1.75" style="stroke:#181818;stroke-width:0.3499999999999999;" width="50.1778" x="811.65" y="388.5"/><ellipse cx="822.15" cy="404.1037" fill="#ADD1B2" rx="7.7" ry="7.7" style="stroke:#181818;stroke-width:0.6999999999999998;"/><path d="M824.0859,401.2162 Q824.1953,401.0631 824.3266,400.9865 Q824.4578,400.91 824.6109,400.91 Q824.8734,400.91 825.0375,401.0959 Q825.2016,401.2709 825.2016,401.6975 L825.2016,402.7146 Q825.2016,403.1412 825.0375,403.3271 Q824.8734,403.5131 824.6109,403.5131 Q824.3703,403.5131 824.2281,403.3709 Q824.0859,403.2396 824.0094,402.8787 Q823.9766,402.6271 823.8453,402.4959 Q823.6156,402.2334 823.1891,402.0803 Q822.7625,401.9271 822.325,401.9271 Q821.7891,401.9271 821.3406,402.1568 Q820.9031,402.3865 820.5531,402.9115 Q820.2141,403.4365 820.2141,404.1584 L820.2141,404.924 Q820.2141,405.7881 820.8375,406.3678 Q821.4609,406.9365 822.5766,406.9365 Q823.2328,406.9365 823.6922,406.7615 Q823.9656,406.6521 824.2609,406.3459 Q824.4469,406.16 824.5453,406.1053 Q824.6547,406.0506 824.7969,406.0506 Q825.0266,406.0506 825.2016,406.2365 Q825.3875,406.4115 825.3875,406.6521 Q825.3875,406.8928 825.1469,407.1771 Q824.7969,407.5818 824.2391,407.8115 Q823.4844,408.1287 822.5766,408.1287 Q821.5156,408.1287 820.6734,407.6912 Q819.9844,407.3412 819.5031,406.5975 Q819.0219,405.8428 819.0219,404.9459 L819.0219,404.1365 Q819.0219,403.2068 819.4484,402.4084 Q819.8859,401.599 820.6516,401.1725 Q821.4172,400.735 822.2812,400.735 Q822.7953,400.735 823.2437,400.8553 Q823.7031,400.9646 824.0859,401.2162 Z " fill="#000000"/><text fill="#000000" font-family="sans-serif" font-size="8.4" font-style="italic" lengthAdjust="spacing" textLength="30.3516" x="830.6631" y="401.0645">&#171;Entity&#187;</text><text fill="#000000" font-family="sans-serif" font-size="9.8" lengthAdjust="spacing" textLength="27.7778" x="831.95" y="413.7479">Figure</text><line style="stroke:#181818;stroke-width:0.3499999999999999;" x1="812.35" x2="861.1278" y1="419.7074" y2="419.7074"/><line style="stroke:#181818;stroke-width:0.3499999999999999;" x1="812.35" x2="861.1278" y1="425.3074" y2="425.3074"/></g><!--class ClientStatus--><g id="elem_ClientStatus"><rect codeLine="29" fill="#F1F1F1" height="42.4074" id="ClientStatus" rx="1.75" ry="1.75" style="stroke:#181818;stroke-width:0.3499999999999999;" width="75.2377" x="488.6" y="388.5"/><ellipse cx="499.1" cy="404.1037" fill="#EB937F" rx="7.7" ry="7.7" style="stroke:#181818;stroke-width:0.6999999999999998;"/><path d="M498.3016,404.6615 L498.3016,406.4115 L501.3312,406.4115 L501.3312,405.7662 Q501.3312,405.3396 501.4953,405.1537 Q501.6703,404.9678 501.9328,404.9678 Q502.1953,404.9678 502.3594,405.1537 Q502.5234,405.3396 502.5234,405.7662 L502.5234,407.6037 L496.9234,407.6037 Q496.4859,407.6037 496.3,407.4396 Q496.125,407.2756 496.125,407.0021 Q496.125,406.7396 496.3109,406.5756 Q496.4969,406.4115 496.9234,406.4115 L497.1094,406.4115 L497.1094,401.7521 L496.9234,401.7521 Q496.4859,401.7521 496.3,401.5881 Q496.125,401.424 496.125,401.1506 Q496.125,400.8881 496.3,400.724 Q496.4859,400.56 496.9234,400.56 L502.2609,400.56 L502.2609,402.3756 Q502.2609,402.8021 502.0969,402.9881 Q501.9437,403.1631 501.6703,403.1631 Q501.4078,403.1631 501.2437,402.9881 Q501.0797,402.8021 501.0797,402.3756 L501.0797,401.7521 L498.3016,401.7521 L498.3016,403.4693 L499.3406,403.4693 Q499.3406,403.01 499.4281,402.8787 Q499.6141,402.5943 499.9422,402.5943 Q500.2047,402.5943 500.3687,402.7803 Q500.5328,402.9553 500.5328,403.3818 L500.5328,404.76 Q500.5328,405.1428 500.4453,405.274 Q500.2594,405.5475 499.9422,405.5475 Q499.6141,405.5475 499.4281,405.2631 Q499.3406,405.1318 499.3406,404.6615 L498.3016,404.6615 Z " fill="#000000"/><text fill="#000000" font-family="sans-serif" font-size="8.4" font-style="italic" lengthAdjust="spacing" textLength="54.1734" x="508.2321" y="401.0645">&#171;value object&#187;</text><text fill="#000000" font-family="sans-serif" font-size="9.8" lengthAdjust="spacing" textLength="52.8377" x="508.9" y="413.7479">ClientStatus</text><line style="stroke:#181818;stroke-width:0.3499999999999999;" x1="489.3" x2="563.1377" y1="419.7074" y2="419.7074"/><line style="stroke:#181818;stroke-width:0.3499999999999999;" x1="489.3" x2="563.1377" y1="425.3074" y2="425.3074"/></g><g id="elem_GMN9"><path d="M359.8,394.1 L359.8,425.3074 A0,0 0 0 0 359.8,425.3074 L464.0337,425.3074 A0,0 0 0 0 464.0337,425.3074 L464.0337,412.65 L488.432,409.85 L464.0337,407.05 L464.0337,401.1 L457.0337,394.1 L359.8,394.1 A0,0 0 0 0 359.8,394.1 " fill="#FEFFDD" style="stroke:#181818;stroke-width:0.3499999999999999;"/><path d="M457.0337,394.1 L457.0337,401.1 L464.0337,401.1 L457.0337,394.1 " fill="#FEFFDD" style="stroke:#181818;stroke-width:0.3499999999999999;"/><text fill="#000000" font-family="sans-serif" font-size="9.1" lengthAdjust="spacing" textLength="89.5337" x="364" y="407.4198">Deleted, Infringement,</text><text fill="#000000" font-family="sans-serif" font-size="9.1" lengthAdjust="spacing" textLength="89.0227" x="364" y="419.5235">Created, Regular, VIP</text></g><!--class User--><g id="elem_User"><rect codeLine="38" fill="#F1F1F1" height="42.4074" id="User" rx="1.75" ry="1.75" style="stroke:#181818;stroke-width:0.3499999999999999;" width="49.9516" x="588" y="388.5"/><ellipse cx="598.5" cy="404.1037" fill="#ADD1B2" rx="7.7" ry="7.7" style="stroke:#181818;stroke-width:0.6999999999999998;"/><path d="M600.4359,401.2162 Q600.5453,401.0631 600.6766,400.9865 Q600.8078,400.91 600.9609,400.91 Q601.2234,400.91 601.3875,401.0959 Q601.5516,401.2709 601.5516,401.6975 L601.5516,402.7146 Q601.5516,403.1412 601.3875,403.3271 Q601.2234,403.5131 600.9609,403.5131 Q600.7203,403.5131 600.5781,403.3709 Q600.4359,403.2396 600.3594,402.8787 Q600.3266,402.6271 600.1953,402.4959 Q599.9656,402.2334 599.5391,402.0803 Q599.1125,401.9271 598.675,401.9271 Q598.1391,401.9271 597.6906,402.1568 Q597.2531,402.3865 596.9031,402.9115 Q596.5641,403.4365 596.5641,404.1584 L596.5641,404.924 Q596.5641,405.7881 597.1875,406.3678 Q597.8109,406.9365 598.9266,406.9365 Q599.5828,406.9365 600.0422,406.7615 Q600.3156,406.6521 600.6109,406.3459 Q600.7969,406.16 600.8953,406.1053 Q601.0047,406.0506 601.1469,406.0506 Q601.3766,406.0506 601.5516,406.2365 Q601.7375,406.4115 601.7375,406.6521 Q601.7375,406.8928 601.4969,407.1771 Q601.1469,407.5818 600.5891,407.8115 Q599.8344,408.1287 598.9266,408.1287 Q597.8656,408.1287 597.0234,407.6912 Q596.3344,407.3412 595.8531,406.5975 Q595.3719,405.8428 595.3719,404.9459 L595.3719,404.1365 Q595.3719,403.2068 595.7984,402.4084 Q596.2359,401.599 597.0016,401.1725 Q597.7672,400.735 598.6312,400.735 Q599.1453,400.735 599.5937,400.8553 Q600.0531,400.9646 600.4359,401.2162 Z " fill="#000000"/><text fill="#000000" font-family="sans-serif" font-size="8.4" font-style="italic" lengthAdjust="spacing" textLength="30.3516" x="606.9" y="401.0645">&#171;Entity&#187;</text><text fill="#000000" font-family="sans-serif" font-size="9.8" lengthAdjust="spacing" textLength="20.691" x="611.7303" y="413.7479">User</text><line style="stroke:#181818;stroke-width:0.3499999999999999;" x1="588.7" x2="637.2516" y1="419.7074" y2="419.7074"/><line style="stroke:#181818;stroke-width:0.3499999999999999;" x1="588.7" x2="637.2516" y1="425.3074" y2="425.3074"/></g><!--class PhoneNumber--><g id="elem_PhoneNumber"><rect codeLine="41" fill="#F1F1F1" height="42.4074" id="PhoneNumber" rx="1.75" ry="1.75" style="stroke:#181818;stroke-width:0.3499999999999999;" width="85.5928" x="621.95" y="499.8"/><ellipse cx="632.45" cy="515.4037" fill="#ADD1B2" rx="7.7" ry="7.7" style="stroke:#181818;stroke-width:0.6999999999999998;"/><path d="M634.3859,512.5162 Q634.4953,512.3631 634.6266,512.2865 Q634.7578,512.21 634.9109,512.21 Q635.1734,512.21 635.3375,512.3959 Q635.5016,512.5709 635.5016,512.9975 L635.5016,514.0146 Q635.5016,514.4412 635.3375,514.6271 Q635.1734,514.8131 634.9109,514.8131 Q634.6703,514.8131 634.5281,514.6709 Q634.3859,514.5396 634.3094,514.1787 Q634.2766,513.9271 634.1453,513.7959 Q633.9156,513.5334 633.4891,513.3803 Q633.0625,513.2271 632.625,513.2271 Q632.0891,513.2271 631.6406,513.4568 Q631.2031,513.6865 630.8531,514.2115 Q630.5141,514.7365 630.5141,515.4584 L630.5141,516.224 Q630.5141,517.0881 631.1375,517.6678 Q631.7609,518.2365 632.8766,518.2365 Q633.5328,518.2365 633.9922,518.0615 Q634.2656,517.9521 634.5609,517.6459 Q634.7469,517.46 634.8453,517.4053 Q634.9547,517.3506 635.0969,517.3506 Q635.3266,517.3506 635.5016,517.5365 Q635.6875,517.7115 635.6875,517.9521 Q635.6875,518.1928 635.4469,518.4771 Q635.0969,518.8818 634.5391,519.1115 Q633.7844,519.4287 632.8766,519.4287 Q631.8156,519.4287 630.9734,518.9912 Q630.2844,518.6412 629.8031,517.8975 Q629.3219,517.1428 629.3219,516.2459 L629.3219,515.4365 Q629.3219,514.5068 629.7484,513.7084 Q630.1859,512.899 630.9516,512.4725 Q631.7172,512.035 632.5812,512.035 Q633.0953,512.035 633.5437,512.1553 Q634.0031,512.2646 634.3859,512.5162 Z " fill="#000000"/><text fill="#000000" font-family="sans-serif" font-size="8.4" font-style="italic" lengthAdjust="spacing" textLength="54.1734" x="646.7597" y="512.3645">&#171;value object&#187;</text><text fill="#000000" font-family="sans-serif" font-size="9.8" lengthAdjust="spacing" textLength="63.1928" x="642.25" y="525.0479">PhoneNumber</text><line style="stroke:#181818;stroke-width:0.3499999999999999;" x1="622.65" x2="706.8428" y1="531.0074" y2="531.0074"/><line style="stroke:#181818;stroke-width:0.3499999999999999;" x1="622.65" x2="706.8428" y1="536.6074" y2="536.6074"/></g><!--class Name--><g id="elem_Name"><rect codeLine="44" fill="#F1F1F1" height="42.4074" id="Name" rx="1.75" ry="1.75" style="stroke:#181818;stroke-width:0.3499999999999999;" width="73.7734" x="523.6" y="499.8"/><ellipse cx="534.1" cy="515.4037" fill="#ADD1B2" rx="7.7" ry="7.7" style="stroke:#181818;stroke-width:0.6999999999999998;"/><path d="M536.0359,512.5162 Q536.1453,512.3631 536.2766,512.2865 Q536.4078,512.21 536.5609,512.21 Q536.8234,512.21 536.9875,512.3959 Q537.1516,512.5709 537.1516,512.9975 L537.1516,514.0146 Q537.1516,514.4412 536.9875,514.6271 Q536.8234,514.8131 536.5609,514.8131 Q536.3203,514.8131 536.1781,514.6709 Q536.0359,514.5396 535.9594,514.1787 Q535.9266,513.9271 535.7953,513.7959 Q535.5656,513.5334 535.1391,513.3803 Q534.7125,513.2271 534.275,513.2271 Q533.7391,513.2271 533.2906,513.4568 Q532.8531,513.6865 532.5031,514.2115 Q532.1641,514.7365 532.1641,515.4584 L532.1641,516.224 Q532.1641,517.0881 532.7875,517.6678 Q533.4109,518.2365 534.5266,518.2365 Q535.1828,518.2365 535.6422,518.0615 Q535.9156,517.9521 536.2109,517.6459 Q536.3969,517.46 536.4953,517.4053 Q536.6047,517.3506 536.7469,517.3506 Q536.9766,517.3506 537.1516,517.5365 Q537.3375,517.7115 537.3375,517.9521 Q537.3375,518.1928 537.0969,518.4771 Q536.7469,518.8818 536.1891,519.1115 Q535.4344,519.4287 534.5266,519.4287 Q533.4656,519.4287 532.6234,518.9912 Q531.9344,518.6412 531.4531,517.8975 Q530.9719,517.1428 530.9719,516.2459 L530.9719,515.4365 Q530.9719,514.5068 531.3984,513.7084 Q531.8359,512.899 532.6016,512.4725 Q533.3672,512.035 534.2312,512.035 Q534.7453,512.035 535.1937,512.1553 Q535.6531,512.2646 536.0359,512.5162 Z " fill="#000000"/><text fill="#000000" font-family="sans-serif" font-size="8.4" font-style="italic" lengthAdjust="spacing" textLength="54.1734" x="542.5" y="512.3645">&#171;value object&#187;</text><text fill="#000000" font-family="sans-serif" font-size="9.8" lengthAdjust="spacing" textLength="26.1413" x="556.5161" y="525.0479">Name</text><line style="stroke:#181818;stroke-width:0.3499999999999999;" x1="524.3" x2="596.6734" y1="531.0074" y2="531.0074"/><line style="stroke:#181818;stroke-width:0.3499999999999999;" x1="524.3" x2="596.6734" y1="536.6074" y2="536.6074"/></g><!--class Email--><g id="elem_Email"><rect codeLine="47" fill="#F1F1F1" height="42.4074" id="Email" rx="1.75" ry="1.75" style="stroke:#181818;stroke-width:0.3499999999999999;" width="73.7734" x="395.5" y="499.8"/><ellipse cx="406" cy="515.4037" fill="#ADD1B2" rx="7.7" ry="7.7" style="stroke:#181818;stroke-width:0.6999999999999998;"/><path d="M407.9359,512.5162 Q408.0453,512.3631 408.1766,512.2865 Q408.3078,512.21 408.4609,512.21 Q408.7234,512.21 408.8875,512.3959 Q409.0516,512.5709 409.0516,512.9975 L409.0516,514.0146 Q409.0516,514.4412 408.8875,514.6271 Q408.7234,514.8131 408.4609,514.8131 Q408.2203,514.8131 408.0781,514.6709 Q407.9359,514.5396 407.8594,514.1787 Q407.8266,513.9271 407.6953,513.7959 Q407.4656,513.5334 407.0391,513.3803 Q406.6125,513.2271 406.175,513.2271 Q405.6391,513.2271 405.1906,513.4568 Q404.7531,513.6865 404.4031,514.2115 Q404.0641,514.7365 404.0641,515.4584 L404.0641,516.224 Q404.0641,517.0881 404.6875,517.6678 Q405.3109,518.2365 406.4266,518.2365 Q407.0828,518.2365 407.5422,518.0615 Q407.8156,517.9521 408.1109,517.6459 Q408.2969,517.46 408.3953,517.4053 Q408.5047,517.3506 408.6469,517.3506 Q408.8766,517.3506 409.0516,517.5365 Q409.2375,517.7115 409.2375,517.9521 Q409.2375,518.1928 408.9969,518.4771 Q408.6469,518.8818 408.0891,519.1115 Q407.3344,519.4287 406.4266,519.4287 Q405.3656,519.4287 404.5234,518.9912 Q403.8344,518.6412 403.3531,517.8975 Q402.8719,517.1428 402.8719,516.2459 L402.8719,515.4365 Q402.8719,514.5068 403.2984,513.7084 Q403.7359,512.899 404.5016,512.4725 Q405.2672,512.035 406.1312,512.035 Q406.6453,512.035 407.0937,512.1553 Q407.5531,512.2646 407.9359,512.5162 Z " fill="#000000"/><text fill="#000000" font-family="sans-serif" font-size="8.4" font-style="italic" lengthAdjust="spacing" textLength="54.1734" x="414.4" y="512.3645">&#171;value object&#187;</text><text fill="#000000" font-family="sans-serif" font-size="9.8" lengthAdjust="spacing" textLength="24.5048" x="429.2343" y="525.0479">Email</text><line style="stroke:#181818;stroke-width:0.3499999999999999;" x1="396.2" x2="468.5734" y1="531.0074" y2="531.0074"/><line style="stroke:#181818;stroke-width:0.3499999999999999;" x1="396.2" x2="468.5734" y1="536.6074" y2="536.6074"/></g><!--class Admin--><g id="elem_Admin"><rect codeLine="50" fill="#F1F1F1" height="42.4074" id="Admin" rx="1.75" ry="1.75" style="stroke:#181818;stroke-width:0.3499999999999999;" width="50.1778" x="552.65" y="258.3"/><ellipse cx="563.15" cy="273.9037" fill="#ADD1B2" rx="7.7" ry="7.7" style="stroke:#181818;stroke-width:0.6999999999999998;"/><path d="M565.0859,271.0162 Q565.1953,270.8631 565.3266,270.7865 Q565.4578,270.71 565.6109,270.71 Q565.8734,270.71 566.0375,270.8959 Q566.2016,271.0709 566.2016,271.4975 L566.2016,272.5146 Q566.2016,272.9412 566.0375,273.1271 Q565.8734,273.3131 565.6109,273.3131 Q565.3703,273.3131 565.2281,273.1709 Q565.0859,273.0396 565.0094,272.6787 Q564.9766,272.4271 564.8453,272.2959 Q564.6156,272.0334 564.1891,271.8803 Q563.7625,271.7271 563.325,271.7271 Q562.7891,271.7271 562.3406,271.9568 Q561.9031,272.1865 561.5531,272.7115 Q561.2141,273.2365 561.2141,273.9584 L561.2141,274.724 Q561.2141,275.5881 561.8375,276.1678 Q562.4609,276.7365 563.5766,276.7365 Q564.2328,276.7365 564.6922,276.5615 Q564.9656,276.4521 565.2609,276.1459 Q565.4469,275.96 565.5453,275.9053 Q565.6547,275.8506 565.7969,275.8506 Q566.0266,275.8506 566.2016,276.0365 Q566.3875,276.2115 566.3875,276.4521 Q566.3875,276.6928 566.1469,276.9771 Q565.7969,277.3818 565.2391,277.6115 Q564.4844,277.9287 563.5766,277.9287 Q562.5156,277.9287 561.6734,277.4912 Q560.9844,277.1412 560.5031,276.3975 Q560.0219,275.6428 560.0219,274.7459 L560.0219,273.9365 Q560.0219,273.0068 560.4484,272.2084 Q560.8859,271.399 561.6516,270.9725 Q562.4172,270.535 563.2812,270.535 Q563.7953,270.535 564.2437,270.6553 Q564.7031,270.7646 565.0859,271.0162 Z " fill="#000000"/><text fill="#000000" font-family="sans-serif" font-size="8.4" font-style="italic" lengthAdjust="spacing" textLength="30.3516" x="571.6631" y="270.8645">&#171;Entity&#187;</text><text fill="#000000" font-family="sans-serif" font-size="9.8" lengthAdjust="spacing" textLength="27.7778" x="572.95" y="283.5479">Admin</text><line style="stroke:#181818;stroke-width:0.3499999999999999;" x1="553.35" x2="602.1278" y1="289.5074" y2="289.5074"/><line style="stroke:#181818;stroke-width:0.3499999999999999;" x1="553.35" x2="602.1278" y1="295.1074" y2="295.1074"/></g><!--class CRMManager--><g id="elem_CRMManager"><rect codeLine="53" fill="#F1F1F1" height="42.4074" id="CRMManager" rx="1.75" ry="1.75" style="stroke:#181818;stroke-width:0.3499999999999999;" width="83.3964" x="457.8" y="134.75"/><ellipse cx="468.3" cy="150.3537" fill="#ADD1B2" rx="7.7" ry="7.7" style="stroke:#181818;stroke-width:0.6999999999999998;"/><path d="M470.2359,147.4662 Q470.3453,147.3131 470.4766,147.2365 Q470.6078,147.16 470.7609,147.16 Q471.0234,147.16 471.1875,147.3459 Q471.3516,147.5209 471.3516,147.9475 L471.3516,148.9646 Q471.3516,149.3912 471.1875,149.5771 Q471.0234,149.7631 470.7609,149.7631 Q470.5203,149.7631 470.3781,149.6209 Q470.2359,149.4896 470.1594,149.1287 Q470.1266,148.8771 469.9953,148.7459 Q469.7656,148.4834 469.3391,148.3303 Q468.9125,148.1771 468.475,148.1771 Q467.9391,148.1771 467.4906,148.4068 Q467.0531,148.6365 466.7031,149.1615 Q466.3641,149.6865 466.3641,150.4084 L466.3641,151.174 Q466.3641,152.0381 466.9875,152.6178 Q467.6109,153.1865 468.7266,153.1865 Q469.3828,153.1865 469.8422,153.0115 Q470.1156,152.9021 470.4109,152.5959 Q470.5969,152.41 470.6953,152.3553 Q470.8047,152.3006 470.9469,152.3006 Q471.1766,152.3006 471.3516,152.4865 Q471.5375,152.6615 471.5375,152.9021 Q471.5375,153.1428 471.2969,153.4271 Q470.9469,153.8318 470.3891,154.0615 Q469.6344,154.3787 468.7266,154.3787 Q467.6656,154.3787 466.8234,153.9412 Q466.1344,153.5912 465.6531,152.8475 Q465.1719,152.0928 465.1719,151.1959 L465.1719,150.3865 Q465.1719,149.4568 465.5984,148.6584 Q466.0359,147.849 466.8016,147.4225 Q467.5672,146.985 468.4312,146.985 Q468.9453,146.985 469.3937,147.1053 Q469.8531,147.2146 470.2359,147.4662 Z " fill="#000000"/><text fill="#000000" font-family="sans-serif" font-size="8.4" font-style="italic" lengthAdjust="spacing" textLength="30.3516" x="493.4224" y="147.3145">&#171;Entity&#187;</text><text fill="#000000" font-family="sans-serif" font-size="9.8" lengthAdjust="spacing" textLength="60.9964" x="478.1" y="159.9979">CRMManager</text><line style="stroke:#181818;stroke-width:0.3499999999999999;" x1="458.5" x2="540.4964" y1="165.9574" y2="165.9574"/><line style="stroke:#181818;stroke-width:0.3499999999999999;" x1="458.5" x2="540.4964" y1="171.5574" y2="171.5574"/></g><!--class CRMCollaborator--><g id="elem_CRMCollaborator"><rect codeLine="57" fill="#F1F1F1" height="42.4074" id="CRMCollaborator" rx="1.75" ry="1.75" style="stroke:#181818;stroke-width:0.3499999999999999;" width="98.1012" x="630.35" y="11.2"/><ellipse cx="640.85" cy="26.8037" fill="#ADD1B2" rx="7.7" ry="7.7" style="stroke:#181818;stroke-width:0.6999999999999998;"/><path d="M642.7859,23.9162 Q642.8953,23.7631 643.0266,23.6865 Q643.1578,23.61 643.3109,23.61 Q643.5734,23.61 643.7375,23.7959 Q643.9016,23.9709 643.9016,24.3975 L643.9016,25.4146 Q643.9016,25.8412 643.7375,26.0271 Q643.5734,26.2131 643.3109,26.2131 Q643.0703,26.2131 642.9281,26.0709 Q642.7859,25.9396 642.7094,25.5787 Q642.6766,25.3271 642.5453,25.1959 Q642.3156,24.9334 641.8891,24.7803 Q641.4625,24.6271 641.025,24.6271 Q640.4891,24.6271 640.0406,24.8568 Q639.6031,25.0865 639.2531,25.6115 Q638.9141,26.1365 638.9141,26.8584 L638.9141,27.624 Q638.9141,28.4881 639.5375,29.0678 Q640.1609,29.6365 641.2766,29.6365 Q641.9328,29.6365 642.3922,29.4615 Q642.6656,29.3521 642.9609,29.0459 Q643.1469,28.86 643.2453,28.8053 Q643.3547,28.7506 643.4969,28.7506 Q643.7266,28.7506 643.9016,28.9365 Q644.0875,29.1115 644.0875,29.3521 Q644.0875,29.5928 643.8469,29.8771 Q643.4969,30.2818 642.9391,30.5115 Q642.1844,30.8287 641.2766,30.8287 Q640.2156,30.8287 639.3734,30.3912 Q638.6844,30.0412 638.2031,29.2975 Q637.7219,28.5428 637.7219,27.6459 L637.7219,26.8365 Q637.7219,25.9068 638.1484,25.1084 Q638.5859,24.299 639.3516,23.8725 Q640.1172,23.435 640.9812,23.435 Q641.4953,23.435 641.9437,23.5553 Q642.4031,23.6646 642.7859,23.9162 Z " fill="#000000"/><text fill="#000000" font-family="sans-serif" font-size="8.4" font-style="italic" lengthAdjust="spacing" textLength="30.3516" x="673.3248" y="23.7645">&#171;Entity&#187;</text><text fill="#000000" font-family="sans-serif" font-size="9.8" lengthAdjust="spacing" textLength="75.7012" x="650.65" y="36.4479">CRMCollaborator</text><line style="stroke:#181818;stroke-width:0.3499999999999999;" x1="631.05" x2="727.7512" y1="42.4074" y2="42.4074"/><line style="stroke:#181818;stroke-width:0.3499999999999999;" x1="631.05" x2="727.7512" y1="48.0074" y2="48.0074"/></g><!--class ShowDesigner--><g id="elem_ShowDesigner"><rect codeLine="60" fill="#F1F1F1" height="42.4074" id="ShowDesigner" rx="1.75" ry="1.75" style="stroke:#181818;stroke-width:0.3499999999999999;" width="86.1335" x="793.8" y="258.3"/><ellipse cx="804.3" cy="273.9037" fill="#ADD1B2" rx="7.7" ry="7.7" style="stroke:#181818;stroke-width:0.6999999999999998;"/><path d="M806.2359,271.0162 Q806.3453,270.8631 806.4766,270.7865 Q806.6078,270.71 806.7609,270.71 Q807.0234,270.71 807.1875,270.8959 Q807.3516,271.0709 807.3516,271.4975 L807.3516,272.5146 Q807.3516,272.9412 807.1875,273.1271 Q807.0234,273.3131 806.7609,273.3131 Q806.5203,273.3131 806.3781,273.1709 Q806.2359,273.0396 806.1594,272.6787 Q806.1266,272.4271 805.9953,272.2959 Q805.7656,272.0334 805.3391,271.8803 Q804.9125,271.7271 804.475,271.7271 Q803.9391,271.7271 803.4906,271.9568 Q803.0531,272.1865 802.7031,272.7115 Q802.3641,273.2365 802.3641,273.9584 L802.3641,274.724 Q802.3641,275.5881 802.9875,276.1678 Q803.6109,276.7365 804.7266,276.7365 Q805.3828,276.7365 805.8422,276.5615 Q806.1156,276.4521 806.4109,276.1459 Q806.5969,275.96 806.6953,275.9053 Q806.8047,275.8506 806.9469,275.8506 Q807.1766,275.8506 807.3516,276.0365 Q807.5375,276.2115 807.5375,276.4521 Q807.5375,276.6928 807.2969,276.9771 Q806.9469,277.3818 806.3891,277.6115 Q805.6344,277.9287 804.7266,277.9287 Q803.6656,277.9287 802.8234,277.4912 Q802.1344,277.1412 801.6531,276.3975 Q801.1719,275.6428 801.1719,274.7459 L801.1719,273.9365 Q801.1719,273.0068 801.5984,272.2084 Q802.0359,271.399 802.8016,270.9725 Q803.5672,270.535 804.4312,270.535 Q804.9453,270.535 805.3937,270.6553 Q805.8531,270.7646 806.2359,271.0162 Z " fill="#000000"/><text fill="#000000" font-family="sans-serif" font-size="8.4" font-style="italic" lengthAdjust="spacing" textLength="30.3516" x="830.791" y="270.8645">&#171;Entity&#187;</text><text fill="#000000" font-family="sans-serif" font-size="9.8" lengthAdjust="spacing" textLength="63.7335" x="814.1" y="283.5479">ShowDesigner</text><line style="stroke:#181818;stroke-width:0.3499999999999999;" x1="794.5" x2="879.2335" y1="289.5074" y2="289.5074"/><line style="stroke:#181818;stroke-width:0.3499999999999999;" x1="794.5" x2="879.2335" y1="295.1074" y2="295.1074"/></g><!--class DroneTech--><g id="elem_DroneTech"><rect codeLine="63" fill="#F1F1F1" height="42.4074" id="DroneTech" rx="1.75" ry="1.75" style="stroke:#181818;stroke-width:0.3499999999999999;" width="70.8784" x="662.2" y="388.5"/><ellipse cx="672.7" cy="404.1037" fill="#ADD1B2" rx="7.7" ry="7.7" style="stroke:#181818;stroke-width:0.6999999999999998;"/><path d="M674.6359,401.2162 Q674.7453,401.0631 674.8766,400.9865 Q675.0078,400.91 675.1609,400.91 Q675.4234,400.91 675.5875,401.0959 Q675.7516,401.2709 675.7516,401.6975 L675.7516,402.7146 Q675.7516,403.1412 675.5875,403.3271 Q675.4234,403.5131 675.1609,403.5131 Q674.9203,403.5131 674.7781,403.3709 Q674.6359,403.2396 674.5594,402.8787 Q674.5266,402.6271 674.3953,402.4959 Q674.1656,402.2334 673.7391,402.0803 Q673.3125,401.9271 672.875,401.9271 Q672.3391,401.9271 671.8906,402.1568 Q671.4531,402.3865 671.1031,402.9115 Q670.7641,403.4365 670.7641,404.1584 L670.7641,404.924 Q670.7641,405.7881 671.3875,406.3678 Q672.0109,406.9365 673.1266,406.9365 Q673.7828,406.9365 674.2422,406.7615 Q674.5156,406.6521 674.8109,406.3459 Q674.9969,406.16 675.0953,406.1053 Q675.2047,406.0506 675.3469,406.0506 Q675.5766,406.0506 675.7516,406.2365 Q675.9375,406.4115 675.9375,406.6521 Q675.9375,406.8928 675.6969,407.1771 Q675.3469,407.5818 674.7891,407.8115 Q674.0344,408.1287 673.1266,408.1287 Q672.0656,408.1287 671.2234,407.6912 Q670.5344,407.3412 670.0531,406.5975 Q669.5719,405.8428 669.5719,404.9459 L669.5719,404.1365 Q669.5719,403.2068 669.9984,402.4084 Q670.4359,401.599 671.2016,401.1725 Q671.9672,400.735 672.8312,400.735 Q673.3453,400.735 673.7937,400.8553 Q674.2531,400.9646 674.6359,401.2162 Z " fill="#000000"/><text fill="#000000" font-family="sans-serif" font-size="8.4" font-style="italic" lengthAdjust="spacing" textLength="30.3516" x="691.5634" y="401.0645">&#171;Entity&#187;</text><text fill="#000000" font-family="sans-serif" font-size="9.8" lengthAdjust="spacing" textLength="48.4784" x="682.5" y="413.7479">DroneTech</text><line style="stroke:#181818;stroke-width:0.3499999999999999;" x1="662.9" x2="732.3784" y1="419.7074" y2="419.7074"/><line style="stroke:#181818;stroke-width:0.3499999999999999;" x1="662.9" x2="732.3784" y1="425.3074" y2="425.3074"/></g><!--class Representative--><g id="elem_Representative"><rect codeLine="66" fill="#F1F1F1" height="68.477" id="Representative" rx="1.75" ry="1.75" style="stroke:#181818;stroke-width:0.3499999999999999;" width="88.3155" x="246.75" y="375.55"/><ellipse cx="257.25" cy="391.1537" fill="#ADD1B2" rx="7.7" ry="7.7" style="stroke:#181818;stroke-width:0.6999999999999998;"/><path d="M259.1859,388.2662 Q259.2953,388.1131 259.4266,388.0365 Q259.5578,387.96 259.7109,387.96 Q259.9734,387.96 260.1375,388.1459 Q260.3016,388.3209 260.3016,388.7475 L260.3016,389.7646 Q260.3016,390.1912 260.1375,390.3771 Q259.9734,390.5631 259.7109,390.5631 Q259.4703,390.5631 259.3281,390.4209 Q259.1859,390.2896 259.1094,389.9287 Q259.0766,389.6771 258.9453,389.5459 Q258.7156,389.2834 258.2891,389.1303 Q257.8625,388.9771 257.425,388.9771 Q256.8891,388.9771 256.4406,389.2068 Q256.0031,389.4365 255.6531,389.9615 Q255.3141,390.4865 255.3141,391.2084 L255.3141,391.974 Q255.3141,392.8381 255.9375,393.4178 Q256.5609,393.9865 257.6766,393.9865 Q258.3328,393.9865 258.7922,393.8115 Q259.0656,393.7021 259.3609,393.3959 Q259.5469,393.21 259.6453,393.1553 Q259.7547,393.1006 259.8969,393.1006 Q260.1266,393.1006 260.3016,393.2865 Q260.4875,393.4615 260.4875,393.7021 Q260.4875,393.9428 260.2469,394.2271 Q259.8969,394.6318 259.3391,394.8615 Q258.5844,395.1787 257.6766,395.1787 Q256.6156,395.1787 255.7734,394.7412 Q255.0844,394.3912 254.6031,393.6475 Q254.1219,392.8928 254.1219,391.9959 L254.1219,391.1865 Q254.1219,390.2568 254.5484,389.4584 Q254.9859,388.649 255.7516,388.2225 Q256.5172,387.785 257.3812,387.785 Q257.8953,387.785 258.3437,387.9053 Q258.8031,388.0146 259.1859,388.2662 Z " fill="#000000"/><text fill="#000000" font-family="sans-serif" font-size="8.4" font-style="italic" lengthAdjust="spacing" textLength="30.3516" x="284.832" y="388.1145">&#171;Entity&#187;</text><text fill="#000000" font-family="sans-serif" font-size="9.8" lengthAdjust="spacing" textLength="65.9155" x="267.05" y="400.7979">Representative</text><line style="stroke:#181818;stroke-width:0.3499999999999999;" x1="247.45" x2="334.3655" y1="406.7574" y2="406.7574"/><text fill="#000000" font-family="sans-serif" font-size="9.8" lengthAdjust="spacing" textLength="55.5604" x="250.95" y="420.1326">name: String</text><text fill="#000000" font-family="sans-serif" font-size="9.8" lengthAdjust="spacing" textLength="64.8245" x="250.95" y="433.1674">position: String</text><line style="stroke:#181818;stroke-width:0.3499999999999999;" x1="247.45" x2="334.3655" y1="438.427" y2="438.427"/></g><!--class Show--><g id="elem_Show"><rect codeLine="71" fill="#F1F1F1" height="55.4422" id="Show" rx="1.75" ry="1.75" style="stroke:#181818;stroke-width:0.3499999999999999;" width="86.8383" x="904.75" y="252"/><ellipse cx="931.849" cy="267.6037" fill="#ADD1B2" rx="7.7" ry="7.7" style="stroke:#181818;stroke-width:0.6999999999999998;"/><path d="M933.785,264.7162 Q933.8943,264.5631 934.0256,264.4865 Q934.1568,264.41 934.31,264.41 Q934.5725,264.41 934.7365,264.5959 Q934.9006,264.7709 934.9006,265.1975 L934.9006,266.2146 Q934.9006,266.6412 934.7365,266.8271 Q934.5725,267.0131 934.31,267.0131 Q934.0693,267.0131 933.9271,266.8709 Q933.785,266.7396 933.7084,266.3787 Q933.6756,266.1271 933.5443,265.9959 Q933.3146,265.7334 932.8881,265.5803 Q932.4615,265.4271 932.024,265.4271 Q931.4881,265.4271 931.0396,265.6568 Q930.6021,265.8865 930.2521,266.4115 Q929.9131,266.9365 929.9131,267.6584 L929.9131,268.424 Q929.9131,269.2881 930.5365,269.8678 Q931.16,270.4365 932.2756,270.4365 Q932.9318,270.4365 933.3912,270.2615 Q933.6646,270.1521 933.96,269.8459 Q934.1459,269.66 934.2443,269.6053 Q934.3537,269.5506 934.4959,269.5506 Q934.7256,269.5506 934.9006,269.7365 Q935.0865,269.9115 935.0865,270.1521 Q935.0865,270.3928 934.8459,270.6771 Q934.4959,271.0818 933.9381,271.3115 Q933.1834,271.6287 932.2756,271.6287 Q931.2146,271.6287 930.3725,271.1912 Q929.6834,270.8412 929.2021,270.0975 Q928.7209,269.3428 928.7209,268.4459 L928.7209,267.6365 Q928.7209,266.7068 929.1475,265.9084 Q929.585,265.099 930.3506,264.6725 Q931.1162,264.235 931.9803,264.235 Q932.4943,264.235 932.9428,264.3553 Q933.4021,264.4646 933.785,264.7162 Z " fill="#000000"/><text fill="#000000" font-family="sans-serif" font-size="8.4" font-style="italic" lengthAdjust="spacing" textLength="30.3516" x="943.9377" y="264.5645">&#171;Entity&#187;</text><text fill="#000000" font-family="sans-serif" font-size="9.8" lengthAdjust="spacing" textLength="24.5144" x="946.8563" y="277.2479">Show</text><line style="stroke:#181818;stroke-width:0.3499999999999999;" x1="905.45" x2="990.8883" y1="283.2074" y2="283.2074"/><text fill="#000000" font-family="sans-serif" font-size="9.8" lengthAdjust="spacing" textLength="78.4383" x="908.95" y="296.5826">description: String</text><line style="stroke:#181818;stroke-width:0.3499999999999999;" x1="905.45" x2="990.8883" y1="301.8422" y2="301.8422"/></g><!--class Time--><g id="elem_Time"><rect codeLine="75" fill="#F1F1F1" height="42.4074" id="Time" rx="1.75" ry="1.75" style="stroke:#181818;stroke-width:0.3499999999999999;" width="73.7734" x="695.8" y="258.3"/><ellipse cx="706.3" cy="273.9037" fill="#ADD1B2" rx="7.7" ry="7.7" style="stroke:#181818;stroke-width:0.6999999999999998;"/><path d="M708.2359,271.0162 Q708.3453,270.8631 708.4766,270.7865 Q708.6078,270.71 708.7609,270.71 Q709.0234,270.71 709.1875,270.8959 Q709.3516,271.0709 709.3516,271.4975 L709.3516,272.5146 Q709.3516,272.9412 709.1875,273.1271 Q709.0234,273.3131 708.7609,273.3131 Q708.5203,273.3131 708.3781,273.1709 Q708.2359,273.0396 708.1594,272.6787 Q708.1266,272.4271 707.9953,272.2959 Q707.7656,272.0334 707.3391,271.8803 Q706.9125,271.7271 706.475,271.7271 Q705.9391,271.7271 705.4906,271.9568 Q705.0531,272.1865 704.7031,272.7115 Q704.3641,273.2365 704.3641,273.9584 L704.3641,274.724 Q704.3641,275.5881 704.9875,276.1678 Q705.6109,276.7365 706.7266,276.7365 Q707.3828,276.7365 707.8422,276.5615 Q708.1156,276.4521 708.4109,276.1459 Q708.5969,275.96 708.6953,275.9053 Q708.8047,275.8506 708.9469,275.8506 Q709.1766,275.8506 709.3516,276.0365 Q709.5375,276.2115 709.5375,276.4521 Q709.5375,276.6928 709.2969,276.9771 Q708.9469,277.3818 708.3891,277.6115 Q707.6344,277.9287 706.7266,277.9287 Q705.6656,277.9287 704.8234,277.4912 Q704.1344,277.1412 703.6531,276.3975 Q703.1719,275.6428 703.1719,274.7459 L703.1719,273.9365 Q703.1719,273.0068 703.5984,272.2084 Q704.0359,271.399 704.8016,270.9725 Q705.5672,270.535 706.4312,270.535 Q706.9453,270.535 707.3937,270.6553 Q707.8531,270.7646 708.2359,271.0162 Z " fill="#000000"/><text fill="#000000" font-family="sans-serif" font-size="8.4" font-style="italic" lengthAdjust="spacing" textLength="54.1734" x="714.7" y="270.8645">&#171;value object&#187;</text><text fill="#000000" font-family="sans-serif" font-size="9.8" lengthAdjust="spacing" textLength="21.7772" x="730.8981" y="283.5479">Time</text><line style="stroke:#181818;stroke-width:0.3499999999999999;" x1="696.5" x2="768.8734" y1="289.5074" y2="289.5074"/><line style="stroke:#181818;stroke-width:0.3499999999999999;" x1="696.5" x2="768.8734" y1="295.1074" y2="295.1074"/></g><!--class ShowRequest--><g id="elem_ShowRequest"><rect codeLine="79" fill="#F1F1F1" height="81.5117" id="ShowRequest" rx="1.75" ry="1.75" style="stroke:#181818;stroke-width:0.3499999999999999;" width="83.4155" x="677.6" y="115.5"/><ellipse cx="688.1" cy="131.1037" fill="#ADD1B2" rx="7.7" ry="7.7" style="stroke:#181818;stroke-width:0.6999999999999998;"/><path d="M690.0359,128.2162 Q690.1453,128.0631 690.2766,127.9865 Q690.4078,127.91 690.5609,127.91 Q690.8234,127.91 690.9875,128.0959 Q691.1516,128.2709 691.1516,128.6975 L691.1516,129.7146 Q691.1516,130.1412 690.9875,130.3271 Q690.8234,130.5131 690.5609,130.5131 Q690.3203,130.5131 690.1781,130.3709 Q690.0359,130.2396 689.9594,129.8787 Q689.9266,129.6271 689.7953,129.4959 Q689.5656,129.2334 689.1391,129.0803 Q688.7125,128.9271 688.275,128.9271 Q687.7391,128.9271 687.2906,129.1568 Q686.8531,129.3865 686.5031,129.9115 Q686.1641,130.4365 686.1641,131.1584 L686.1641,131.924 Q686.1641,132.7881 686.7875,133.3678 Q687.4109,133.9365 688.5266,133.9365 Q689.1828,133.9365 689.6422,133.7615 Q689.9156,133.6521 690.2109,133.3459 Q690.3969,133.16 690.4953,133.1053 Q690.6047,133.0506 690.7469,133.0506 Q690.9766,133.0506 691.1516,133.2365 Q691.3375,133.4115 691.3375,133.6521 Q691.3375,133.8928 691.0969,134.1771 Q690.7469,134.5818 690.1891,134.8115 Q689.4344,135.1287 688.5266,135.1287 Q687.4656,135.1287 686.6234,134.6912 Q685.9344,134.3412 685.4531,133.5975 Q684.9719,132.8428 684.9719,131.9459 L684.9719,131.1365 Q684.9719,130.2068 685.3984,129.4084 Q685.8359,128.599 686.6016,128.1725 Q687.3672,127.735 688.2312,127.735 Q688.7453,127.735 689.1937,127.8553 Q689.6531,127.9646 690.0359,128.2162 Z " fill="#000000"/><text fill="#000000" font-family="sans-serif" font-size="8.4" font-style="italic" lengthAdjust="spacing" textLength="30.3516" x="713.232" y="128.0645">&#171;Entity&#187;</text><text fill="#000000" font-family="sans-serif" font-size="9.8" lengthAdjust="spacing" textLength="61.0155" x="697.9" y="140.7479">ShowRequest</text><line style="stroke:#181818;stroke-width:0.3499999999999999;" x1="678.3" x2="760.3155" y1="146.7074" y2="146.7074"/><text fill="#000000" font-family="sans-serif" font-size="9.8" lengthAdjust="spacing" textLength="23.4281" x="681.8" y="160.0826">place</text><text fill="#000000" font-family="sans-serif" font-size="9.8" lengthAdjust="spacing" textLength="49.0383" x="681.8" y="173.1174">qnt_drones</text><text fill="#000000" font-family="sans-serif" font-size="9.8" lengthAdjust="spacing" textLength="35.4149" x="681.8" y="186.1521">duration</text><line style="stroke:#181818;stroke-width:0.3499999999999999;" x1="678.3" x2="760.3155" y1="191.4117" y2="191.4117"/></g><!--class Proposal--><g id="elem_Proposal"><rect codeLine="86" fill="#F1F1F1" height="42.4074" id="Proposal" rx="1.75" ry="1.75" style="stroke:#181818;stroke-width:0.3499999999999999;" width="61.0784" x="785.4" y="134.75"/><ellipse cx="795.9" cy="150.3537" fill="#ADD1B2" rx="7.7" ry="7.7" style="stroke:#181818;stroke-width:0.6999999999999998;"/><path d="M797.8359,147.4662 Q797.9453,147.3131 798.0766,147.2365 Q798.2078,147.16 798.3609,147.16 Q798.6234,147.16 798.7875,147.3459 Q798.9516,147.5209 798.9516,147.9475 L798.9516,148.9646 Q798.9516,149.3912 798.7875,149.5771 Q798.6234,149.7631 798.3609,149.7631 Q798.1203,149.7631 797.9781,149.6209 Q797.8359,149.4896 797.7594,149.1287 Q797.7266,148.8771 797.5953,148.7459 Q797.3656,148.4834 796.9391,148.3303 Q796.5125,148.1771 796.075,148.1771 Q795.5391,148.1771 795.0906,148.4068 Q794.6531,148.6365 794.3031,149.1615 Q793.9641,149.6865 793.9641,150.4084 L793.9641,151.174 Q793.9641,152.0381 794.5875,152.6178 Q795.2109,153.1865 796.3266,153.1865 Q796.9828,153.1865 797.4422,153.0115 Q797.7156,152.9021 798.0109,152.5959 Q798.1969,152.41 798.2953,152.3553 Q798.4047,152.3006 798.5469,152.3006 Q798.7766,152.3006 798.9516,152.4865 Q799.1375,152.6615 799.1375,152.9021 Q799.1375,153.1428 798.8969,153.4271 Q798.5469,153.8318 797.9891,154.0615 Q797.2344,154.3787 796.3266,154.3787 Q795.2656,154.3787 794.4234,153.9412 Q793.7344,153.5912 793.2531,152.8475 Q792.7719,152.0928 792.7719,151.1959 L792.7719,150.3865 Q792.7719,149.4568 793.1984,148.6584 Q793.6359,147.849 794.4016,147.4225 Q795.1672,146.985 796.0312,146.985 Q796.5453,146.985 796.9937,147.1053 Q797.4531,147.2146 797.8359,147.4662 Z " fill="#000000"/><text fill="#000000" font-family="sans-serif" font-size="8.4" font-style="italic" lengthAdjust="spacing" textLength="30.3516" x="809.8634" y="147.3145">&#171;Entity&#187;</text><text fill="#000000" font-family="sans-serif" font-size="9.8" lengthAdjust="spacing" textLength="38.6784" x="805.7" y="159.9979">Proposal</text><line style="stroke:#181818;stroke-width:0.3499999999999999;" x1="786.1" x2="845.7784" y1="165.9574" y2="165.9574"/><line style="stroke:#181818;stroke-width:0.3499999999999999;" x1="786.1" x2="845.7784" y1="171.5574" y2="171.5574"/></g><!--link Client to EuropeanVatNumber--><g id="link_Client_EuropeanVatNumber"><path codeLine="92" d="M357.497,293.391 C327.691,309.106 276.619,336.63 234.15,362.6 C220.92,370.692 210.1104,377.7834 197.9724,386.0574 " fill="none" id="Client-to-EuropeanVatNumber" style="stroke:#181818;stroke-width:0.6999999999999998;"/><polygon fill="#181818" points="194.502,388.423,201.2847,387.1881,197.394,386.4516,198.1305,382.5609,194.502,388.423" style="stroke:#181818;stroke-width:0.6999999999999998;"/></g><!--link Client to Address--><g id="link_Client_Address"><path codeLine="93" d="M357.602,283.556 C305.802,291.032 184.009,312.886 94.85,362.6 C90.762,364.882 90.1115,365.0415 86.2195,367.9255 " fill="none" id="Client-to-Address" style="stroke:#181818;stroke-width:0.6999999999999998;"/><polygon fill="#181818" points="82.845,370.426,89.5738,368.9249,85.6571,368.3422,86.2397,364.4255,82.845,370.426" style="stroke:#181818;stroke-width:0.6999999999999998;"/></g><!--link Client to User--><g id="link_Client_User"><path codeLine="94" d="M407.512,295.82 C430.248,309.386 465.094,328.867 497.35,341.6 C530.901,354.844 545.573,342.839 575.75,362.6 C585.69,369.11 586.9837,368.8318 593.3257,377.9318 " fill="none" id="Client-to-User" style="stroke:#181818;stroke-width:0.6999999999999998;"/><polygon fill="none" points="600.53,388.269,596.7715,375.5303,589.88,380.3332,600.53,388.269" style="stroke:#181818;stroke-width:0.6999999999999998;"/></g><!--link CRMCollaborator to Client--><g id="link_CRMCollaborator_Client"><path codeLine="95" d="M630.21,38.402 C547.981,48.153 388.178,72.296 354.55,115.5 C321.748,157.647 349.1425,220.861 367.8465,254.51 " fill="none" id="CRMCollaborator-to-Client" style="stroke:#181818;stroke-width:0.6999999999999998;"/><polygon fill="#181818" points="369.887,258.181,369.2735,251.3141,368.1865,255.1218,364.3789,254.0349,369.887,258.181" style="stroke:#181818;stroke-width:0.6999999999999998;"/><polygon fill="#000000" points="355.3485,158.4271,361.5436,155.9895,358.9276,152.8137,355.3485,158.4271" style="stroke:#000000;stroke-width:0.6999999999999998;"/><text fill="#000000" font-family="sans-serif" font-size="9.1" lengthAdjust="spacing" textLength="80.918" x="364.35" y="159.9698">contacts to submmit</text><text fill="#000000" font-family="sans-serif" font-size="9.1" lengthAdjust="spacing" textLength="5.061" x="361.8606" y="250.4968">1</text></g><!--link Client to Representative--><g id="link_Client_Representative"><path codeLine="96" d="M357.469,296.45 C345.982,304.829 332.913,315.91 323.75,328.3 C313.348,342.377 305.634,360.206 300.3,375.543 " fill="none" id="Client-Representative" style="stroke:#181818;stroke-width:0.6999999999999998;"/><polygon fill="#000000" points="325.1997,337.8884,330.576,333.9621,327.2414,331.5519,325.1997,337.8884" style="stroke:#000000;stroke-width:0.6999999999999998;"/><text fill="#000000" font-family="sans-serif" font-size="9.1" lengthAdjust="spacing" textLength="60.7052" x="333.55" y="338.8198">represented by</text><text fill="#000000" font-family="sans-serif" font-size="9.1" lengthAdjust="spacing" textLength="5.061" x="346.8814" y="296.6588">1</text><text fill="#000000" font-family="sans-serif" font-size="9.1" lengthAdjust="spacing" textLength="11.1306" x="290.4547" y="367.5741">1.*</text></g><!--link Client to ClientStatus--><g id="link_Client_ClientStatus"><path codeLine="98" d="M397.67,301.112 C407.673,313.873 421.645,329.945 436.45,341.6 C452.2,353.997 460.026,350.98 476.35,362.6 C486.948,370.139 497.609,379.799 506.331,388.353 " fill="none" id="Client-ClientStatus" style="stroke:#181818;stroke-width:0.6999999999999998;"/><text fill="#000000" font-family="sans-serif" font-size="9.1" lengthAdjust="spacing" textLength="24.2785" x="437.15" y="338.8198">status</text><text fill="#000000" font-family="sans-serif" font-size="9.1" lengthAdjust="spacing" textLength="5.061" x="395.1766" y="316.2045">1</text><text fill="#000000" font-family="sans-serif" font-size="9.1" lengthAdjust="spacing" textLength="5.061" x="496.8404" y="380.6631">1</text></g><!--link ShowRequest to Client--><g id="link_ShowRequest_Client"><path codeLine="101" d="M677.285,172.025 C606.333,197.764 464.786,249.116 407.491,269.899 " fill="none" id="ShowRequest-Client" style="stroke:#181818;stroke-width:0.6999999999999998;"/><text fill="#000000" font-family="sans-serif" font-size="9.1" lengthAdjust="spacing" textLength="52.6138" x="551.95" y="228.2198">requested by</text><text fill="#000000" font-family="sans-serif" font-size="9.1" lengthAdjust="spacing" textLength="5.061" x="666.9747" y="171.1539">1</text><text fill="#000000" font-family="sans-serif" font-size="9.1" lengthAdjust="spacing" textLength="5.061" x="413.1311" y="264.6317">1</text></g><!--link ShowRequest to Show--><g id="link_ShowRequest_Show"><path codeLine="102" d="M761.061,189 C765.079,191.709 769.146,194.32 773.15,196.7 C823.291,226.492 839.426,227.066 892.15,252 C896.147,253.89 900.305,255.871 904.463,257.852 " fill="none" id="ShowRequest-Show" style="stroke:#181818;stroke-width:0.6999999999999998;"/><text fill="#000000" font-family="sans-serif" font-size="9.1" lengthAdjust="spacing" textLength="33.8939" x="842.45" y="228.2198">contains</text><text fill="#000000" font-family="sans-serif" font-size="9.1" lengthAdjust="spacing" textLength="5.061" x="766.7349" y="190.3659">1</text><text fill="#000000" font-family="sans-serif" font-size="9.1" lengthAdjust="spacing" textLength="5.061" x="893.9475" y="252.3938">1</text></g><!--link ShowRequest to Time--><g id="link_ShowRequest_Time"><path codeLine="103" d="M731.388,196.798 C733.033,203.707 734.461,210.868 735.35,217.7 C736.113,223.559 735.525,225.092 735.35,231 C735.091,239.918 734.8234,245.5683 734.2914,254.0033 " fill="none" id="ShowRequest-to-Time" style="stroke:#181818;stroke-width:0.6999999999999998;"/><polygon fill="#181818" points="734.027,258.195,737.218,252.0837,734.2473,254.7019,731.6291,251.7312,734.027,258.195" style="stroke:#181818;stroke-width:0.6999999999999998;"/></g><!--link CRMManager to User--><g id="link_CRMManager_User"><path codeLine="106" d="M501.361,177.681 C505.54,213.871 518.105,289.387 553.35,341.6 C560.987,352.912 566.496,352.569 575.75,362.6 C583.247,370.727 583.223,370.247 589.656,378.514 " fill="none" id="CRMManager-to-User" style="stroke:#181818;stroke-width:0.6999999999999998;"/><polygon fill="none" points="597.394,388.458,592.9707,375.9346,586.3413,381.0933,597.394,388.458" style="stroke:#181818;stroke-width:0.6999999999999998;"/></g><!--link CRMManager to Client--><g id="link_CRMManager_Client"><path codeLine="107" d="M470.848,177.513 C460.915,184.163 449.519,191.219 438.55,196.7 C413.987,208.971 396.221,195.223 380.45,217.7 C372.323,229.285 372.3294,241.2563 375.0524,254.0313 " fill="none" id="CRMManager-to-Client" style="stroke:#181818;stroke-width:0.6999999999999998;"/><polygon fill="#181818" points="375.928,258.139,377.3531,251.3937,375.1984,254.7159,371.8762,252.5611,375.928,258.139" style="stroke:#181818;stroke-width:0.6999999999999998;"/><text fill="#000000" font-family="sans-serif" font-size="9.1" lengthAdjust="spacing" textLength="30.3437" x="381.15" y="228.2198">register</text><text fill="#000000" font-family="sans-serif" font-size="9.1" lengthAdjust="spacing" textLength="13.6589" x="359.9017" y="250.4462">1..*</text></g><!--link CRMManager to Client--><g id="link_CRMManager_Client"><path codeLine="108" d="M478.961,177.555 C467.439,189.28 452.823,204.246 439.95,217.7 C427.154,231.07 415.7932,243.1802 404.7052,255.0802 " fill="none" id="CRMManager-to-Client-1" style="stroke:#181818;stroke-width:0.6999999999999998;"/><polygon fill="#181818" points="401.842,258.153,408.1853,255.4525,404.228,255.5923,404.0882,251.635,401.842,258.153" style="stroke:#181818;stroke-width:0.6999999999999998;"/><text fill="#000000" font-family="sans-serif" font-size="9.1" lengthAdjust="spacing" textLength="56.6617" x="440.65" y="228.2198">change status</text><text fill="#000000" font-family="sans-serif" font-size="9.1" lengthAdjust="spacing" textLength="13.6589" x="391.1605" y="250.4631">1..*</text></g><!--link ShowDesigner to Figure--><g id="link_ShowDesigner_Figure"><path codeLine="111" d="M836.85,301.042 C836.85,325.01 836.85,360.059 836.85,384.097 " fill="none" id="ShowDesigner-to-Figure" style="stroke:#181818;stroke-width:0.6999999999999998;"/><polygon fill="#181818" points="836.85,388.297,839.65,381.997,836.85,384.797,834.05,381.997,836.85,388.297" style="stroke:#181818;stroke-width:0.6999999999999998;"/><text fill="#000000" font-family="sans-serif" font-size="9.1" lengthAdjust="spacing" textLength="29.8416" x="837.55" y="338.8198">creates</text><text fill="#000000" font-family="sans-serif" font-size="9.1" lengthAdjust="spacing" textLength="13.6589" x="822.2384" y="380.5955">1..*</text></g><!--link ShowDesigner to User--><g id="link_ShowDesigner_User"><path codeLine="112" d="M794.997,301.049 C790.475,303.198 785.925,305.319 781.55,307.3 C723.765,333.494 700.539,324.317 649.95,362.6 C640.64,369.649 639.6871,369.3203 633.2961,378.1823 " fill="none" id="ShowDesigner-to-User" style="stroke:#181818;stroke-width:0.6999999999999998;"/><polygon fill="none" points="625.926,388.402,636.7027,380.639,629.8896,375.7256,625.926,388.402" style="stroke:#181818;stroke-width:0.6999999999999998;"/></g><!--link CRMCollaborator to Proposal--><g id="link_CRMCollaborator_Proposal"><path codeLine="115" d="M705.404,54.124 C715.54,62.405 727.16,72.107 737.45,81.2 C757.246,98.7 779.023,119.434 794.584,134.526 " fill="none" id="CRMCollaborator-Proposal" style="stroke:#181818;stroke-width:0.6999999999999998;"/><text fill="#000000" font-family="sans-serif" font-size="9.1" lengthAdjust="spacing" textLength="5.061" x="704.8615" y="69.0643">1</text><text fill="#000000" font-family="sans-serif" font-size="9.1" lengthAdjust="spacing" textLength="5.061" x="784.7908" y="126.8202">1</text></g><!--link CRMCollaborator to User--><g id="link_CRMCollaborator_User"><path codeLine="116" d="M675.682,53.998 C664.055,119.714 630.3111,310.4325 618.7051,376.0645 " fill="none" id="CRMCollaborator-to-User" style="stroke:#181818;stroke-width:0.6999999999999998;"/><polygon fill="none" points="616.511,388.472,622.8409,376.7959,614.5692,375.3331,616.511,388.472" style="stroke:#181818;stroke-width:0.6999999999999998;"/></g><!--link CRMCollaborator to ShowRequest--><g id="link_CRMCollaborator_ShowRequest"><path codeLine="117" d="M686.119,53.97 C691.586,70.714 698.1418,90.795 704.8408,111.284 " fill="none" id="CRMCollaborator-to-ShowRequest" style="stroke:#181818;stroke-width:0.6999999999999998;"/><polygon fill="#181818" points="706.146,115.276,706.8495,108.4178,705.0583,111.9493,701.5268,110.1581,706.146,115.276" style="stroke:#181818;stroke-width:0.6999999999999998;"/><text fill="#000000" font-family="sans-serif" font-size="9.1" lengthAdjust="spacing" textLength="31.3523" x="700.35" y="91.7198">submits</text><text fill="#000000" font-family="sans-serif" font-size="9.1" lengthAdjust="spacing" textLength="5.061" x="682.048" y="69.0545">1</text><text fill="#000000" font-family="sans-serif" font-size="9.1" lengthAdjust="spacing" textLength="5.061" x="699.3531" y="107.4887">1</text></g><!--link Admin to User--><g id="link_Admin_User"><path codeLine="120" d="M565.53,301.21 C560.063,313.138 555.793,328.314 560.35,341.6 C561.302,344.386 573.3439,359.7654 588.3589,378.5814 " fill="none" id="Admin-to-User" style="stroke:#181818;stroke-width:0.6999999999999998;"/><polygon fill="none" points="596.218,388.43,591.6418,375.9617,585.076,381.2011,596.218,388.43" style="stroke:#181818;stroke-width:0.6999999999999998;"/></g><!--link Admin to User--><g id="link_Admin_User"><path codeLine="121" d="M578.109,301.042 C578.655,313.047 580.055,328.363 583.45,341.6 C587.643,357.952 593.4677,371.638 599.9287,384.707 " fill="none" id="Admin-to-User-1" style="stroke:#181818;stroke-width:0.6999999999999998;"/><polygon fill="#181818" points="601.79,388.472,601.508,381.5836,600.2389,385.3345,596.488,384.0654,601.79,388.472" style="stroke:#181818;stroke-width:0.6999999999999998;"/><text fill="#000000" font-family="sans-serif" font-size="9.1" lengthAdjust="spacing" textLength="37.4353" x="584.15" y="338.8198">Manages</text><text fill="#000000" font-family="sans-serif" font-size="9.1" lengthAdjust="spacing" textLength="13.6589" x="584.6277" y="380.4681">1..*</text></g><!--reverse link User to DroneTech--><g id="link_User_DroneTech"><path codeLine="124" d="M650.594,409.85 C658.658,409.85 654.122,409.85 662.186,409.85 " fill="none" id="User-backto-DroneTech" style="stroke:#181818;stroke-width:0.6999999999999998;"/><polygon fill="none" points="637.994,409.85,650.594,414.05,650.594,405.65,637.994,409.85" style="stroke:#181818;stroke-width:0.6999999999999998;"/></g><!--link User to PhoneNumber--><g id="link_User_PhoneNumber"><path codeLine="127" d="M622.594,431.221 C631.827,450.807 643.8265,476.2678 653.0735,495.8888 " fill="none" id="User-to-PhoneNumber" style="stroke:#181818;stroke-width:0.6999999999999998;"/><polygon fill="#181818" points="654.864,499.688,654.7111,492.7955,653.3719,496.522,649.6454,495.1828,654.864,499.688" style="stroke:#181818;stroke-width:0.6999999999999998;"/></g><!--link User to Name--><g id="link_User_Name"><path codeLine="128" d="M602.973,431.221 C593.621,450.807 581.4524,476.2772 572.0794,495.8982 " fill="none" id="User-to-Name" style="stroke:#181818;stroke-width:0.6999999999999998;"/><polygon fill="#181818" points="570.269,499.688,575.5111,495.2102,571.7777,496.5298,570.4581,492.7964,570.269,499.688" style="stroke:#181818;stroke-width:0.6999999999999998;"/></g><!--link User to Email--><g id="link_User_Email"><path codeLine="129" d="M599.711,431.221 C593.313,440.062 584.997,449.967 575.75,457.1 C543.403,482.041 503.6807,498.1817 473.0277,508.3667 " fill="none" id="User-to-Email" style="stroke:#181818;stroke-width:0.6999999999999998;"/><polygon fill="#181818" points="469.042,509.691,475.9035,510.3617,472.3635,508.5874,474.1377,505.0473,469.042,509.691" style="stroke:#181818;stroke-width:0.6999999999999998;"/></g><!--link Representative to Email--><g id="link_Representative_Email"><path codeLine="132" d="M331.555,444.332 C336.903,448.665 342.335,453.012 347.55,457.1 C366.121,471.653 384.0067,485.0713 400.5897,497.3003 " fill="none" id="Representative-to-Email" style="stroke:#181818;stroke-width:0.6999999999999998;"/><polygon fill="#181818" points="403.97,499.793,400.5614,493.8004,401.1531,497.7157,397.2378,498.3074,403.97,499.793" style="stroke:#181818;stroke-width:0.6999999999999998;"/></g><!--SRC=[XLHDRzim3BtxLmYv11YI0hiQXO4YoO0UMXH9r-iWsuoZGPPIYSfMRFllewJuEqbziKG-KdnF50l9hMKhAK0Xkx_VA1JuaML_akHVaXJ1-U9oAOhe8SY9ImTCvp-Xm27meImDq7-AOVHPD02OiXqQeQfWKgxEmQJiKI5KO8Aje5C6e48xXQQpjSTjdD57uEgDutD8TE5W0f_HQwCL31Zwv4Ox50gwfDz4vGnCbDXGgMULTiZHsIj2A8t09EoHwVq0JwUjGG92kI2wUyy4Ql8koB4om8DZ2vMJt2pOs-DB0gfaFbrJsNSR67PrTHTq86gt98YmPrx3BV-cvaBU0ZoKjL2NIrXjdvwuujMen05WfQNakJOSzHKYkuF-jGOhAdMDQhZ5LoWEbzrRE587agmSnMbwsueK6FJMKLk1GgjfS_bI9l4bsCA8u-M8Lt5Htc7ABRmxi3Z9V9IyWB1wL_YZz2njFDAHNdHU_prIsslBvKJfP7v-nykC_KwQDMqcBwNlFB_QplGt2xsMZAyie6TVPysqI3DwcoHrWPQXPjRbTIsmoUE1ooNzxhxCnlT2aQQnGCdoZsI-TYTHydGIFHk-kfJ6I7XEoRmlPo3SDqpYAT94Nppm2ZXSUnfv2MK7C4_VNxBNkMltg7LltvEljGNXxhmIiHfVJ2MebizWnO7Je1YIRbz8oxgpT1dY8ACCORZOCQwfCd0PN7D3Q63iITIqtmHplNDYTDOgV5Oq3JqZq1EBioMSVLwssPfzIyrRKnPLyx7TK0ZnlQsVn1tJC4439AvesHkTdT4FocuNnY95Zteuv1dP0hu9-0y0]--></g></svg>