<?xml version="1.0" encoding="UTF-8" standalone="no"?><svg xmlns="http://www.w3.org/2000/svg" xmlns:xlink="http://www.w3.org/1999/xlink" contentStyleType="text/css" height="420px" preserveAspectRatio="none" style="width:775px;height:420px;background:#FFFFFF;" version="1.1" viewBox="0 0 775 420" width="775px" zoomAndPan="magnify"><defs/><g><!--cluster CRMCollaborator --><g id="cluster_CRMCollaborator "><path d="M274.5,6.7188 L458.5,6.7188 A3.75,3.75 0 0 1 461,9.2188 L468,36.2734 L499.5,36.2734 A2.5,2.5 0 0 1 502,38.7734 L502,182.8788 A2.5,2.5 0 0 1 499.5,185.3788 L274.5,185.3788 A2.5,2.5 0 0 1 272,182.8788 L272,9.2188 A2.5,2.5 0 0 1 274.5,6.7188 " fill="none" style="stroke:#000000;stroke-width:1.5;"/><line style="stroke:#000000;stroke-width:1.5;" x1="272" x2="468" y1="36.2734" y2="36.2734"/><text fill="#000000" font-family="sans-serif" font-size="20" font-weight="bold" lengthAdjust="spacing" textLength="176" x="276" y="28.0547">CRMCollaborator</text><text fill="#000000" font-family="sans-serif" font-size="20" font-style="italic" lengthAdjust="spacing" textLength="115" x="333.5" y="57.6094">«aggregate»</text></g><!--cluster Shared--><g id="cluster_Shared"><path d="M8.5,242.3788 L79.5,242.3788 A3.75,3.75 0 0 1 82,244.8788 L89,271.9334 L765.5,271.9334 A2.5,2.5 0 0 1 768,274.4334 L768,410.8788 A2.5,2.5 0 0 1 765.5,413.3788 L8.5,413.3788 A2.5,2.5 0 0 1 6,410.8788 L6,244.8788 A2.5,2.5 0 0 1 8.5,242.3788 " fill="none" style="stroke:#000000;stroke-width:1.5;"/><line style="stroke:#000000;stroke-width:1.5;" x1="6" x2="89" y1="271.9334" y2="271.9334"/><text fill="#000000" font-family="sans-serif" font-size="20" font-weight="bold" lengthAdjust="spacing" textLength="70" x="10" y="263.7147">Shared</text></g><!--class CRMCollaborator--><g id="elem_CRMCollaborator"><rect codeLine="4" fill="#F1F1F1" height="96.6641" id="CRMCollaborator" rx="2.5" ry="2.5" style="stroke:#181818;stroke-width:0.5;" width="198" x="288" y="72.7188"/><ellipse cx="304" cy="113.0508" fill="#ADD1B2" rx="12" ry="12" style="stroke:#181818;stroke-width:1.0;"/><path d="M306.8066,120.1309 Q306.123,120.4824 305.3711,120.6582 Q304.6191,120.834 303.7891,120.834 Q300.8398,120.834 299.2871,118.8906 Q297.7344,116.9473 297.7344,113.2754 Q297.7344,109.5938 299.2871,107.6504 Q300.8398,105.707 303.7891,105.707 Q304.6191,105.707 305.3809,105.8828 Q306.1426,106.0586 306.8066,106.4102 L306.8066,109.6133 Q306.0645,108.9297 305.3662,108.6123 Q304.668,108.2949 303.9258,108.2949 Q302.3438,108.2949 301.5381,109.5498 Q300.7324,110.8047 300.7324,113.2754 Q300.7324,115.7363 301.5381,116.9912 Q302.3438,118.2461 303.9258,118.2461 Q304.668,118.2461 305.3662,117.9287 Q306.0645,117.6113 306.8066,116.9277 Z " fill="#000000"/><text fill="#000000" font-family="sans-serif" font-size="20" font-style="italic" lengthAdjust="spacing" textLength="73" x="364.5" y="97.0547">«Entity»</text><text fill="#000000" font-family="sans-serif" font-size="20" font-style="italic" lengthAdjust="spacing" textLength="59" x="371.5" y="120.6094">«root»</text><text fill="#000000" font-family="sans-serif" font-size="20" lengthAdjust="spacing" textLength="164" x="319" y="144.1641">CRMCollaborator</text><line style="stroke:#181818;stroke-width:0.5;" x1="289" x2="485" y1="153.3828" y2="153.3828"/><line style="stroke:#181818;stroke-width:0.5;" x1="289" x2="485" y1="161.3828" y2="161.3828"/></g><!--class Name--><g id="elem_Name"><rect codeLine="10" fill="#F1F1F1" height="73.1094" id="Name" rx="2.5" ry="2.5" style="stroke:#181818;stroke-width:0.5;" width="172" x="46" y="304.3788"/><ellipse cx="62" cy="332.9334" fill="#ADD1B2" rx="12" ry="12" style="stroke:#181818;stroke-width:1.0;"/><path d="M64.8066,340.0135 Q64.123,340.3651 63.3711,340.5409 Q62.6191,340.7166 61.7891,340.7166 Q58.8398,340.7166 57.2871,338.7733 Q55.7344,336.8299 55.7344,333.158 Q55.7344,329.4764 57.2871,327.533 Q58.8398,325.5897 61.7891,325.5897 Q62.6191,325.5897 63.3809,325.7655 Q64.1426,325.9413 64.8066,326.2928 L64.8066,329.4959 Q64.0645,328.8123 63.3662,328.495 Q62.668,328.1776 61.9258,328.1776 Q60.3438,328.1776 59.5381,329.4325 Q58.7324,330.6873 58.7324,333.158 Q58.7324,335.619 59.5381,336.8739 Q60.3438,338.1288 61.9258,338.1288 Q62.668,338.1288 63.3662,337.8114 Q64.0645,337.494 64.8066,336.8104 Z " fill="#000000"/><text fill="#000000" font-family="sans-serif" font-size="20" font-style="italic" lengthAdjust="spacing" textLength="142" x="75" y="328.7147">«Value Object»</text><text fill="#000000" font-family="sans-serif" font-size="20" lengthAdjust="spacing" textLength="56" x="118" y="352.2694">Name</text><line style="stroke:#181818;stroke-width:0.5;" x1="47" x2="217" y1="361.4881" y2="361.4881"/><line style="stroke:#181818;stroke-width:0.5;" x1="47" x2="217" y1="369.4881" y2="369.4881"/></g><!--class Email--><g id="elem_Email"><rect codeLine="13" fill="#F1F1F1" height="73.1094" id="Email" rx="2.5" ry="2.5" style="stroke:#181818;stroke-width:0.5;" width="172" x="301" y="304.3788"/><ellipse cx="317" cy="332.9334" fill="#ADD1B2" rx="12" ry="12" style="stroke:#181818;stroke-width:1.0;"/><path d="M319.8066,340.0135 Q319.123,340.3651 318.3711,340.5409 Q317.6191,340.7166 316.7891,340.7166 Q313.8398,340.7166 312.2871,338.7733 Q310.7344,336.8299 310.7344,333.158 Q310.7344,329.4764 312.2871,327.533 Q313.8398,325.5897 316.7891,325.5897 Q317.6191,325.5897 318.3809,325.7655 Q319.1426,325.9413 319.8066,326.2928 L319.8066,329.4959 Q319.0645,328.8123 318.3662,328.495 Q317.668,328.1776 316.9258,328.1776 Q315.3438,328.1776 314.5381,329.4325 Q313.7324,330.6873 313.7324,333.158 Q313.7324,335.619 314.5381,336.8739 Q315.3438,338.1288 316.9258,338.1288 Q317.668,338.1288 318.3662,337.8114 Q319.0645,337.494 319.8066,336.8104 Z " fill="#000000"/><text fill="#000000" font-family="sans-serif" font-size="20" font-style="italic" lengthAdjust="spacing" textLength="142" x="330" y="328.7147">«Value Object»</text><text fill="#000000" font-family="sans-serif" font-size="20" lengthAdjust="spacing" textLength="53" x="374.5" y="352.2694">Email</text><line style="stroke:#181818;stroke-width:0.5;" x1="302" x2="472" y1="361.4881" y2="361.4881"/><line style="stroke:#181818;stroke-width:0.5;" x1="302" x2="472" y1="369.4881" y2="369.4881"/></g><!--class PhoneNumber--><g id="elem_PhoneNumber"><rect codeLine="16" fill="#F1F1F1" height="73.1094" id="PhoneNumber" rx="2.5" ry="2.5" style="stroke:#181818;stroke-width:0.5;" width="172" x="556" y="304.3788"/><ellipse cx="572" cy="332.9334" fill="#ADD1B2" rx="12" ry="12" style="stroke:#181818;stroke-width:1.0;"/><path d="M574.8066,340.0135 Q574.123,340.3651 573.3711,340.5409 Q572.6191,340.7166 571.7891,340.7166 Q568.8398,340.7166 567.2871,338.7733 Q565.7344,336.8299 565.7344,333.158 Q565.7344,329.4764 567.2871,327.533 Q568.8398,325.5897 571.7891,325.5897 Q572.6191,325.5897 573.3809,325.7655 Q574.1426,325.9413 574.8066,326.2928 L574.8066,329.4959 Q574.0645,328.8123 573.3662,328.495 Q572.668,328.1776 571.9258,328.1776 Q570.3438,328.1776 569.5381,329.4325 Q568.7324,330.6873 568.7324,333.158 Q568.7324,335.619 569.5381,336.8739 Q570.3438,338.1288 571.9258,338.1288 Q572.668,338.1288 573.3662,337.8114 Q574.0645,337.494 574.8066,336.8104 Z " fill="#000000"/><text fill="#000000" font-family="sans-serif" font-size="20" font-style="italic" lengthAdjust="spacing" textLength="142" x="585" y="328.7147">«Value Object»</text><text fill="#000000" font-family="sans-serif" font-size="20" lengthAdjust="spacing" textLength="136" x="588" y="352.2694">PhoneNumber</text><line style="stroke:#181818;stroke-width:0.5;" x1="557" x2="727" y1="361.4881" y2="361.4881"/><line style="stroke:#181818;stroke-width:0.5;" x1="557" x2="727" y1="369.4881" y2="369.4881"/></g><!--link CRMCollaborator to Name--><g id="link_CRMCollaborator_Name"><path codeLine="20" d="M331.04,169.8488 C285.16,209.0388 221.01,263.8488 178.06,300.5288 " fill="none" id="CRMCollaborator-to-Name" style="stroke:#181818;stroke-width:1.0;"/><polygon fill="#181818" points="174.34,303.7088,183.7826,300.9091,178.1433,300.463,178.5894,294.8238,174.34,303.7088" style="stroke:#181818;stroke-width:1.0;"/><text fill="#000000" font-family="sans-serif" font-size="20" lengthAdjust="spacing" textLength="53" x="291" y="221.7147">name</text><text fill="#000000" font-family="sans-serif" font-size="20" lengthAdjust="spacing" textLength="13" x="166.586" y="292.2729">1</text></g><!--link CRMCollaborator to Email--><g id="link_CRMCollaborator_Email"><path codeLine="21" d="M387,169.8488 C387,208.3288 387,261.8488 387,298.5088 " fill="none" id="CRMCollaborator-to-Email" style="stroke:#181818;stroke-width:1.0;"/><polygon fill="#181818" points="387,303.1788,391,294.1788,387,298.1788,383,294.1788,387,303.1788" style="stroke:#181818;stroke-width:1.0;"/><text fill="#000000" font-family="sans-serif" font-size="20" lengthAdjust="spacing" textLength="53" x="388" y="221.7147">email</text><text fill="#000000" font-family="sans-serif" font-size="20" lengthAdjust="spacing" textLength="13" x="372.8016" y="292.2729">1</text></g><!--link CRMCollaborator to PhoneNumber--><g id="link_CRMCollaborator_PhoneNumber"><path codeLine="22" d="M442.96,169.8488 C488.84,209.0388 552.99,263.8488 595.94,300.5288 " fill="none" id="CRMCollaborator-to-PhoneNumber" style="stroke:#181818;stroke-width:1.0;"/><polygon fill="#181818" points="599.66,303.7088,595.4106,294.8238,595.8567,300.463,590.2174,300.9091,599.66,303.7088" style="stroke:#181818;stroke-width:1.0;"/><text fill="#000000" font-family="sans-serif" font-size="20" lengthAdjust="spacing" textLength="138" x="507" y="221.7147">phoneNumber</text><text fill="#000000" font-family="sans-serif" font-size="20" lengthAdjust="spacing" textLength="13" x="579.0172" y="292.2729">1</text></g><!--SRC=[ZP0_3u8m4CNtVeeBYnE9EfAc2y7DFv74_O0JaTAIKXALyDqjB083yOPUclUxwtjjoaBLQB2IEYqfWupks4fxqCh6nOTWlsMinhJ4dC0BhyTGIuc9DcYr0GyunpmtbACb8Q1Z35ob4fi6bZ3daRA5VJkESwEr5Q8RyPxrlpVY1nfdOxRfX1MvcHlAbk2SF2cTp4wugC92_WDU7bhHgQqICkluneM0MGfVm6kKbl5yftWxRpGRW7BdAZPw3O26jWfEl0PG_ox3fx4l]--></g></svg>