<?xml version="1.0" encoding="UTF-8" standalone="no"?><svg xmlns="http://www.w3.org/2000/svg" xmlns:xlink="http://www.w3.org/1999/xlink" contentStyleType="text/css" height="535px" preserveAspectRatio="none" style="width:1571px;height:535px;background:#FFFFFF;" version="1.1" viewBox="0 0 1571 535" width="1571px" zoomAndPan="magnify"><defs/><g><!--cluster Customer --><g id="cluster_Customer "><path d="M8.5,7.2168 L126.5,7.2168 A3.75,3.75 0 0 1 129,9.7168 L136,36.498 L885.5,36.498 A2.5,2.5 0 0 1 888,38.998 L888,525.7168 A2.5,2.5 0 0 1 885.5,528.2168 L8.5,528.2168 A2.5,2.5 0 0 1 6,525.7168 L6,9.7168 A2.5,2.5 0 0 1 8.5,7.2168 " fill="none" style="stroke:#000000;stroke-width:1.5;"/><line style="stroke:#000000;stroke-width:1.5;" x1="6" x2="136" y1="36.498" y2="36.498"/><text fill="#000000" font-family="sans-serif" font-size="20" font-weight="bold" lengthAdjust="spacing" textLength="110" x="10" y="27.7813">Customer</text><text fill="#000000" font-family="sans-serif" font-size="20" font-style="italic" lengthAdjust="spacing" textLength="127" x="387.5" y="57.0625">«aggregate»</text></g><!--cluster Shared--><g id="cluster_Shared"><path d="M914.5,397.2168 L995.5,397.2168 A3.75,3.75 0 0 1 998,399.7168 L1005,426.498 L1561.5,426.498 A2.5,2.5 0 0 1 1564,428.998 L1564,525.7168 A2.5,2.5 0 0 1 1561.5,528.2168 L914.5,528.2168 A2.5,2.5 0 0 1 912,525.7168 L912,399.7168 A2.5,2.5 0 0 1 914.5,397.2168 " fill="none" style="stroke:#000000;stroke-width:1.5;"/><line style="stroke:#000000;stroke-width:1.5;" x1="912" x2="1005" y1="426.498" y2="426.498"/><text fill="#000000" font-family="sans-serif" font-size="20" font-weight="bold" lengthAdjust="spacing" textLength="80" x="916" y="417.7813">Shared</text></g><!--class Customer--><g id="elem_Customer"><rect codeLine="3" fill="#F1F1F1" height="95.8438" id="Customer" rx="2.5" ry="2.5" style="stroke:#181818;stroke-width:0.5;" width="131" x="375.5" y="72.2168"/><ellipse cx="391.5" cy="112.1387" fill="#ADD1B2" rx="12" ry="12" style="stroke:#181818;stroke-width:1.0;"/><path d="M394.5625,119.2168 Q393.875,119.5762 393.125,119.748 Q392.375,119.9199 391.5469,119.9199 Q388.5938,119.9199 387.0313,117.9824 Q385.4844,116.0293 385.4844,112.3574 Q385.4844,108.6855 387.0313,106.748 Q388.5938,104.7949 391.5469,104.7949 Q392.375,104.7949 393.125,104.9668 Q393.8906,105.1387 394.5625,105.498 L394.5625,108.7012 Q393.8125,108.0137 393.1094,107.7012 Q392.4219,107.3887 391.6719,107.3887 Q390.0938,107.3887 389.2813,108.6387 Q388.4844,109.8887 388.4844,112.3574 Q388.4844,114.8262 389.2813,116.0762 Q390.0938,117.3262 391.6719,117.3262 Q392.4219,117.3262 393.1094,117.0137 Q393.8125,116.7012 394.5625,116.0137 L394.5625,119.2168 Z " fill="#000000"/><text fill="#000000" font-family="sans-serif" font-size="20" font-style="italic" lengthAdjust="spacing" textLength="84" x="413" y="95.7813">«Entity»</text><text fill="#000000" font-family="sans-serif" font-size="20" font-style="italic" lengthAdjust="spacing" textLength="64" x="423" y="119.0625">«root»</text><text fill="#000000" font-family="sans-serif" font-size="20" lengthAdjust="spacing" textLength="97" x="406.5" y="142.3438">Customer</text><line style="stroke:#181818;stroke-width:0.5;" x1="376.5" x2="505.5" y1="152.0605" y2="152.0605"/><line style="stroke:#181818;stroke-width:0.5;" x1="376.5" x2="505.5" y1="160.0605" y2="160.0605"/></g><!--class Representative--><g id="elem_Representative"><rect codeLine="6" fill="#F1F1F1" height="72.5625" id="Representative" rx="2.5" ry="2.5" style="stroke:#181818;stroke-width:0.5;" width="185" x="21.5" y="253.2168"/><ellipse cx="37.5" cy="281.498" fill="#ADD1B2" rx="12" ry="12" style="stroke:#181818;stroke-width:1.0;"/><path d="M40.5625,288.5762 Q39.875,288.9355 39.125,289.1074 Q38.375,289.2793 37.5469,289.2793 Q34.5938,289.2793 33.0313,287.3418 Q31.4844,285.3887 31.4844,281.7168 Q31.4844,278.0449 33.0313,276.1074 Q34.5938,274.1543 37.5469,274.1543 Q38.375,274.1543 39.125,274.3262 Q39.8906,274.498 40.5625,274.8574 L40.5625,278.0605 Q39.8125,277.373 39.1094,277.0605 Q38.4219,276.748 37.6719,276.748 Q36.0938,276.748 35.2813,277.998 Q34.4844,279.248 34.4844,281.7168 Q34.4844,284.1855 35.2813,285.4355 Q36.0938,286.6855 37.6719,286.6855 Q38.4219,286.6855 39.1094,286.373 Q39.8125,286.0605 40.5625,285.373 L40.5625,288.5762 Z " fill="#000000"/><text fill="#000000" font-family="sans-serif" font-size="20" font-style="italic" lengthAdjust="spacing" textLength="84" x="86" y="276.7813">«Entity»</text><text fill="#000000" font-family="sans-serif" font-size="20" lengthAdjust="spacing" textLength="151" x="52.5" y="300.0625">Representative</text><line style="stroke:#181818;stroke-width:0.5;" x1="22.5" x2="205.5" y1="309.7793" y2="309.7793"/><line style="stroke:#181818;stroke-width:0.5;" x1="22.5" x2="205.5" y1="317.7793" y2="317.7793"/></g><!--class Address--><g id="elem_Address"><rect codeLine="9" fill="#F1F1F1" height="72.5625" id="Address" rx="2.5" ry="2.5" style="stroke:#181818;stroke-width:0.5;" width="183" x="241.5" y="253.2168"/><ellipse cx="257.5" cy="281.498" fill="#ADD1B2" rx="12" ry="12" style="stroke:#181818;stroke-width:1.0;"/><path d="M260.5625,288.5762 Q259.875,288.9355 259.125,289.1074 Q258.375,289.2793 257.5469,289.2793 Q254.5938,289.2793 253.0313,287.3418 Q251.4844,285.3887 251.4844,281.7168 Q251.4844,278.0449 253.0313,276.1074 Q254.5938,274.1543 257.5469,274.1543 Q258.375,274.1543 259.125,274.3262 Q259.8906,274.498 260.5625,274.8574 L260.5625,278.0605 Q259.8125,277.373 259.1094,277.0605 Q258.4219,276.748 257.6719,276.748 Q256.0938,276.748 255.2813,277.998 Q254.4844,279.248 254.4844,281.7168 Q254.4844,284.1855 255.2813,285.4355 Q256.0938,286.6855 257.6719,286.6855 Q258.4219,286.6855 259.1094,286.373 Q259.8125,286.0605 260.5625,285.373 L260.5625,288.5762 Z " fill="#000000"/><text fill="#000000" font-family="sans-serif" font-size="20" font-style="italic" lengthAdjust="spacing" textLength="153" x="270.5" y="276.7813">«Value Object»</text><text fill="#000000" font-family="sans-serif" font-size="20" lengthAdjust="spacing" textLength="80" x="307" y="300.0625">Address</text><line style="stroke:#181818;stroke-width:0.5;" x1="242.5" x2="423.5" y1="309.7793" y2="309.7793"/><line style="stroke:#181818;stroke-width:0.5;" x1="242.5" x2="423.5" y1="317.7793" y2="317.7793"/></g><!--class VatNumber--><g id="elem_VatNumber"><rect codeLine="12" fill="#F1F1F1" height="72.5625" id="VatNumber" rx="2.5" ry="2.5" style="stroke:#181818;stroke-width:0.5;" width="183" x="459.5" y="253.2168"/><ellipse cx="475.5" cy="281.498" fill="#ADD1B2" rx="12" ry="12" style="stroke:#181818;stroke-width:1.0;"/><path d="M478.5625,288.5762 Q477.875,288.9355 477.125,289.1074 Q476.375,289.2793 475.5469,289.2793 Q472.5938,289.2793 471.0313,287.3418 Q469.4844,285.3887 469.4844,281.7168 Q469.4844,278.0449 471.0313,276.1074 Q472.5938,274.1543 475.5469,274.1543 Q476.375,274.1543 477.125,274.3262 Q477.8906,274.498 478.5625,274.8574 L478.5625,278.0605 Q477.8125,277.373 477.1094,277.0605 Q476.4219,276.748 475.6719,276.748 Q474.0938,276.748 473.2813,277.998 Q472.4844,279.248 472.4844,281.7168 Q472.4844,284.1855 473.2813,285.4355 Q474.0938,286.6855 475.6719,286.6855 Q476.4219,286.6855 477.1094,286.373 Q477.8125,286.0605 478.5625,285.373 L478.5625,288.5762 Z " fill="#000000"/><text fill="#000000" font-family="sans-serif" font-size="20" font-style="italic" lengthAdjust="spacing" textLength="153" x="488.5" y="276.7813">«Value Object»</text><text fill="#000000" font-family="sans-serif" font-size="20" lengthAdjust="spacing" textLength="115" x="507.5" y="300.0625">VatNumber</text><line style="stroke:#181818;stroke-width:0.5;" x1="460.5" x2="641.5" y1="309.7793" y2="309.7793"/><line style="stroke:#181818;stroke-width:0.5;" x1="460.5" x2="641.5" y1="317.7793" y2="317.7793"/></g><!--class CustomerStatus--><g id="elem_CustomerStatus"><rect codeLine="15" fill="#F1F1F1" height="72.5625" id="CustomerStatus" rx="2.5" ry="2.5" style="stroke:#181818;stroke-width:0.5;" width="195" x="677.5" y="253.2168"/><ellipse cx="693.5" cy="281.498" fill="#EB937F" rx="12" ry="12" style="stroke:#181818;stroke-width:1.0;"/><path d="M698.2188,288.998 L689.1406,288.998 L689.1406,274.4199 L698.2188,274.4199 L698.2188,276.9512 L692.0156,276.9512 L692.0156,280.1074 L697.6406,280.1074 L697.6406,282.6387 L692.0156,282.6387 L692.0156,286.4512 L698.2188,286.4512 L698.2188,288.998 Z " fill="#000000"/><text fill="#000000" font-family="sans-serif" font-size="20" font-style="italic" lengthAdjust="spacing" textLength="153" x="712.5" y="276.7813">«Value Object»</text><text fill="#000000" font-family="sans-serif" font-size="20" lengthAdjust="spacing" textLength="161" x="708.5" y="300.0625">CustomerStatus</text><line style="stroke:#181818;stroke-width:0.5;" x1="678.5" x2="871.5" y1="309.7793" y2="309.7793"/><line style="stroke:#181818;stroke-width:0.5;" x1="678.5" x2="871.5" y1="317.7793" y2="317.7793"/></g><!--class Position--><g id="elem_Position"><rect codeLine="18" fill="#F1F1F1" height="72.5625" id="Position" rx="2.5" ry="2.5" style="stroke:#181818;stroke-width:0.5;" width="183" x="22.5" y="439.2168"/><ellipse cx="38.5" cy="467.498" fill="#ADD1B2" rx="12" ry="12" style="stroke:#181818;stroke-width:1.0;"/><path d="M41.5625,474.5762 Q40.875,474.9355 40.125,475.1074 Q39.375,475.2793 38.5469,475.2793 Q35.5938,475.2793 34.0313,473.3418 Q32.4844,471.3887 32.4844,467.7168 Q32.4844,464.0449 34.0313,462.1074 Q35.5938,460.1543 38.5469,460.1543 Q39.375,460.1543 40.125,460.3262 Q40.8906,460.498 41.5625,460.8574 L41.5625,464.0605 Q40.8125,463.373 40.1094,463.0605 Q39.4219,462.748 38.6719,462.748 Q37.0938,462.748 36.2813,463.998 Q35.4844,465.248 35.4844,467.7168 Q35.4844,470.1855 36.2813,471.4355 Q37.0938,472.6855 38.6719,472.6855 Q39.4219,472.6855 40.1094,472.373 Q40.8125,472.0605 41.5625,471.373 L41.5625,474.5762 Z " fill="#000000"/><text fill="#000000" font-family="sans-serif" font-size="20" font-style="italic" lengthAdjust="spacing" textLength="153" x="51.5" y="462.7813">«Value Object»</text><text fill="#000000" font-family="sans-serif" font-size="20" lengthAdjust="spacing" textLength="79" x="88.5" y="486.0625">Position</text><line style="stroke:#181818;stroke-width:0.5;" x1="23.5" x2="204.5" y1="495.7793" y2="495.7793"/><line style="stroke:#181818;stroke-width:0.5;" x1="23.5" x2="204.5" y1="503.7793" y2="503.7793"/></g><!--class Name--><g id="elem_Name"><rect codeLine="34" fill="#F1F1F1" height="72.5625" id="Name" rx="2.5" ry="2.5" style="stroke:#181818;stroke-width:0.5;" width="183" x="928.5" y="439.2168"/><ellipse cx="944.5" cy="467.498" fill="#ADD1B2" rx="12" ry="12" style="stroke:#181818;stroke-width:1.0;"/><path d="M947.5625,474.5762 Q946.875,474.9355 946.125,475.1074 Q945.375,475.2793 944.5469,475.2793 Q941.5938,475.2793 940.0313,473.3418 Q938.4844,471.3887 938.4844,467.7168 Q938.4844,464.0449 940.0313,462.1074 Q941.5938,460.1543 944.5469,460.1543 Q945.375,460.1543 946.125,460.3262 Q946.8906,460.498 947.5625,460.8574 L947.5625,464.0605 Q946.8125,463.373 946.1094,463.0605 Q945.4219,462.748 944.6719,462.748 Q943.0938,462.748 942.2813,463.998 Q941.4844,465.248 941.4844,467.7168 Q941.4844,470.1855 942.2813,471.4355 Q943.0938,472.6855 944.6719,472.6855 Q945.4219,472.6855 946.1094,472.373 Q946.8125,472.0605 947.5625,471.373 L947.5625,474.5762 Z " fill="#000000"/><text fill="#000000" font-family="sans-serif" font-size="20" font-style="italic" lengthAdjust="spacing" textLength="153" x="957.5" y="462.7813">«Value Object»</text><text fill="#000000" font-family="sans-serif" font-size="20" lengthAdjust="spacing" textLength="59" x="1004.5" y="486.0625">Name</text><line style="stroke:#181818;stroke-width:0.5;" x1="929.5" x2="1110.5" y1="495.7793" y2="495.7793"/><line style="stroke:#181818;stroke-width:0.5;" x1="929.5" x2="1110.5" y1="503.7793" y2="503.7793"/></g><!--class Email--><g id="elem_Email"><rect codeLine="37" fill="#F1F1F1" height="72.5625" id="Email" rx="2.5" ry="2.5" style="stroke:#181818;stroke-width:0.5;" width="183" x="1146.5" y="439.2168"/><ellipse cx="1162.5" cy="467.498" fill="#ADD1B2" rx="12" ry="12" style="stroke:#181818;stroke-width:1.0;"/><path d="M1165.5625,474.5762 Q1164.875,474.9355 1164.125,475.1074 Q1163.375,475.2793 1162.5469,475.2793 Q1159.5938,475.2793 1158.0313,473.3418 Q1156.4844,471.3887 1156.4844,467.7168 Q1156.4844,464.0449 1158.0313,462.1074 Q1159.5938,460.1543 1162.5469,460.1543 Q1163.375,460.1543 1164.125,460.3262 Q1164.8906,460.498 1165.5625,460.8574 L1165.5625,464.0605 Q1164.8125,463.373 1164.1094,463.0605 Q1163.4219,462.748 1162.6719,462.748 Q1161.0938,462.748 1160.2813,463.998 Q1159.4844,465.248 1159.4844,467.7168 Q1159.4844,470.1855 1160.2813,471.4355 Q1161.0938,472.6855 1162.6719,472.6855 Q1163.4219,472.6855 1164.1094,472.373 Q1164.8125,472.0605 1165.5625,471.373 L1165.5625,474.5762 Z " fill="#000000"/><text fill="#000000" font-family="sans-serif" font-size="20" font-style="italic" lengthAdjust="spacing" textLength="153" x="1175.5" y="462.7813">«Value Object»</text><text fill="#000000" font-family="sans-serif" font-size="20" lengthAdjust="spacing" textLength="57" x="1223.5" y="486.0625">Email</text><line style="stroke:#181818;stroke-width:0.5;" x1="1147.5" x2="1328.5" y1="495.7793" y2="495.7793"/><line style="stroke:#181818;stroke-width:0.5;" x1="1147.5" x2="1328.5" y1="503.7793" y2="503.7793"/></g><!--class PhoneNumber--><g id="elem_PhoneNumber"><rect codeLine="40" fill="#F1F1F1" height="72.5625" id="PhoneNumber" rx="2.5" ry="2.5" style="stroke:#181818;stroke-width:0.5;" width="183" x="1364.5" y="439.2168"/><ellipse cx="1380.5" cy="467.498" fill="#ADD1B2" rx="12" ry="12" style="stroke:#181818;stroke-width:1.0;"/><path d="M1383.5625,474.5762 Q1382.875,474.9355 1382.125,475.1074 Q1381.375,475.2793 1380.5469,475.2793 Q1377.5938,475.2793 1376.0313,473.3418 Q1374.4844,471.3887 1374.4844,467.7168 Q1374.4844,464.0449 1376.0313,462.1074 Q1377.5938,460.1543 1380.5469,460.1543 Q1381.375,460.1543 1382.125,460.3262 Q1382.8906,460.498 1383.5625,460.8574 L1383.5625,464.0605 Q1382.8125,463.373 1382.1094,463.0605 Q1381.4219,462.748 1380.6719,462.748 Q1379.0938,462.748 1378.2813,463.998 Q1377.4844,465.248 1377.4844,467.7168 Q1377.4844,470.1855 1378.2813,471.4355 Q1379.0938,472.6855 1380.6719,472.6855 Q1381.4219,472.6855 1382.1094,472.373 Q1382.8125,472.0605 1383.5625,471.373 L1383.5625,474.5762 Z " fill="#000000"/><text fill="#000000" font-family="sans-serif" font-size="20" font-style="italic" lengthAdjust="spacing" textLength="153" x="1393.5" y="462.7813">«Value Object»</text><text fill="#000000" font-family="sans-serif" font-size="20" lengthAdjust="spacing" textLength="143" x="1398.5" y="486.0625">PhoneNumber</text><line style="stroke:#181818;stroke-width:0.5;" x1="1365.5" x2="1546.5" y1="495.7793" y2="495.7793"/><line style="stroke:#181818;stroke-width:0.5;" x1="1365.5" x2="1546.5" y1="503.7793" y2="503.7793"/></g><!--link Customer to Representative--><g id="link_Customer_Representative"><path codeLine="22" d="M375.03,136.3868 C328.55,148.8068 265.94,169.1068 216,198.2168 C192.22,212.0768 169.01,232.0068 150.75,249.6468 " fill="none" id="Customer-to-Representative" style="stroke:#181818;stroke-width:1.0;"/><polygon fill="#181818" points="147.16,253.1368,156.3946,249.7132,150.7382,249.6445,150.8069,243.988,147.16,253.1368" style="stroke:#181818;stroke-width:1.0;"/><text fill="#000000" font-family="sans-serif" font-size="20" lengthAdjust="spacing" textLength="151" x="217" y="217.7813">represented by</text><text fill="#000000" font-family="sans-serif" font-size="20" lengthAdjust="spacing" textLength="35" x="114.8516" y="240.4993">1..*</text></g><!--link Customer to VatNumber--><g id="link_Customer_VatNumber"><path codeLine="23" d="M471.93,168.3168 C488.56,193.6468 508.85,224.5368 524.71,248.6868 " fill="none" id="Customer-to-VatNumber" style="stroke:#181818;stroke-width:1.0;"/><polygon fill="#181818" points="527.62,253.1168,526.0328,243.3967,524.8795,248.9347,519.3415,247.7814,527.62,253.1168" style="stroke:#181818;stroke-width:1.0;"/><text fill="#000000" font-family="sans-serif" font-size="20" lengthAdjust="spacing" textLength="31" x="506" y="217.7813">vat</text><text fill="#000000" font-family="sans-serif" font-size="20" lengthAdjust="spacing" textLength="13" x="509.4844" y="240.4758">1</text></g><!--link Customer to Address--><g id="link_Customer_Address"><path codeLine="24" d="M410.63,168.3168 C394.3,193.6468 374.38,224.5368 358.81,248.6868 " fill="none" id="Customer-to-Address" style="stroke:#181818;stroke-width:1.0;"/><polygon fill="#181818" points="355.95,253.1168,364.1945,247.729,358.6639,248.9174,357.4755,243.3868,355.95,253.1168" style="stroke:#181818;stroke-width:1.0;"/><text fill="#000000" font-family="sans-serif" font-size="20" lengthAdjust="spacing" textLength="78" x="391" y="217.7813">address</text><text fill="#000000" font-family="sans-serif" font-size="20" lengthAdjust="spacing" textLength="13" x="345.7773" y="240.4758">1</text></g><!--link Customer to CustomerStatus--><g id="link_Customer_CustomerStatus"><path codeLine="25" d="M506.59,154.1068 C562.04,181.9168 641.51,221.7668 699.58,250.8968 " fill="none" id="Customer-to-CustomerStatus" style="stroke:#181818;stroke-width:1.0;"/><polygon fill="#181818" points="704.08,253.1468,697.8385,245.5282,699.6136,250.8993,694.2425,252.6744,704.08,253.1468" style="stroke:#181818;stroke-width:1.0;"/><text fill="#000000" font-family="sans-serif" font-size="20" lengthAdjust="spacing" textLength="61" x="638" y="217.7813">status</text><text fill="#000000" font-family="sans-serif" font-size="20" lengthAdjust="spacing" textLength="13" x="677.7734" y="240.511">1</text></g><!--link Representative to Position--><g id="link_Representative_Position"><path codeLine="28" d="M114,326.6268 C114,357.5068 114,402.0068 114,434.1568 " fill="none" id="Representative-to-Position" style="stroke:#181818;stroke-width:1.0;"/><polygon fill="#181818" points="114,439.2068,118,430.2068,114,434.2068,110,430.2068,114,439.2068" style="stroke:#181818;stroke-width:1.0;"/><text fill="#000000" font-family="sans-serif" font-size="20" lengthAdjust="spacing" textLength="80" x="115" y="375.7813">position</text><text fill="#000000" font-family="sans-serif" font-size="20" lengthAdjust="spacing" textLength="13" x="99.8828" y="426.5813">1</text></g><!--link Representative to Name--><g id="link_Representative_Name"><path codeLine="44" d="M206.64,322.1768 C212.48,323.6768 218.3,325.0368 224,326.2168 C514.33,386.0968 608.01,291.8468 888,389.2168 C918.35,399.7768 948.69,418.6968 972.62,436.0568 " fill="none" id="Representative-to-Name" style="stroke:#181818;stroke-width:1.0;"/><polygon fill="#181818" points="976.71,439.0568,971.8218,430.5066,972.6793,436.0981,967.0879,436.9557,976.71,439.0568" style="stroke:#181818;stroke-width:1.0;"/><text fill="#000000" font-family="sans-serif" font-size="20" lengthAdjust="spacing" textLength="57" x="856" y="375.7813">name</text><text fill="#000000" font-family="sans-serif" font-size="20" lengthAdjust="spacing" textLength="13" x="955.1523" y="426.4055">1</text></g><!--link Representative to Email--><g id="link_Representative_Email"><path codeLine="45" d="M206.57,322.5268 C212.43,323.9368 218.27,325.1868 224,326.2168 C529.63,381.0668 613.06,325.0568 922,356.2168 C1014.69,365.5668 1043.62,351.9468 1129,389.2168 C1154.42,400.3168 1179.05,418.7568 1198.45,435.6868 " fill="none" id="Representative-to-Email" style="stroke:#181818;stroke-width:1.0;"/><polygon fill="#181818" points="1202.26,439.0468,1198.1738,430.0856,1198.5167,435.7321,1192.8702,436.075,1202.26,439.0468" style="stroke:#181818;stroke-width:1.0;"/><text fill="#000000" font-family="sans-serif" font-size="20" lengthAdjust="spacing" textLength="56" x="1110" y="375.7813">email</text><text fill="#000000" font-family="sans-serif" font-size="20" lengthAdjust="spacing" textLength="13" x="1182" y="426.3938">1</text></g><!--link Representative to PhoneNumber--><g id="link_Representative_PhoneNumber"><path codeLine="46" d="M206.56,322.6068 C212.42,323.9968 218.27,325.2168 224,326.2168 C640.65,398.5368 754.7,309.5668 1175,356.2168 C1252.36,364.8068 1276.16,356.9568 1347,389.2168 C1372.03,400.6168 1396.46,418.8968 1415.82,435.6368 " fill="none" id="Representative-to-PhoneNumber" style="stroke:#181818;stroke-width:1.0;"/><polygon fill="#181818" points="1419.62,438.9568,1415.4808,430.0199,1415.8571,435.6643,1410.2128,436.0406,1419.62,438.9568" style="stroke:#181818;stroke-width:1.0;"/><text fill="#000000" font-family="sans-serif" font-size="20" lengthAdjust="spacing" textLength="144" x="1328" y="375.7813">phoneNumber</text><text fill="#000000" font-family="sans-serif" font-size="20" lengthAdjust="spacing" textLength="13" x="1399.518" y="426.5877">1</text></g><!--SRC=[bP9HQuCm4CVV_HI7BuD1oxR748GnkiTkJEZxgJURgOaaiQmh_UxBrAPEH6nUShdyxlZVFp65a3Lgh4gL5fH1Hf_ObFPLIHkB7uAdXo2eCIqm9mXV6cDLHHf2u1ppN5EEbg88JW6ubPPe37Y8yusqmXxTFUTQAHj57NSE1lW7rPeCIOjM76XGDC4-PvbZZODsM3O4RyaNfTDjTsYtJPMqCcPWaatb5STEGxEe-xiomWebvzaxRyKgWkysvJEmShdmSRs-3ySMCD2NX7kGvFY_iAiB1mCoEA2TXYw6CS0kciP61Z0mRT1FCPBdPndd-sRU6mPr7mR1-VgBuZrgDzTfwESMArhY-wP2KIvweBsIjEG3t3fTgvI1TDiSrWbbG7_xh5i3eSwmwwdrx1S0]--></g></svg>