<?xml version="1.0" encoding="UTF-8" standalone="no"?><svg xmlns="http://www.w3.org/2000/svg" xmlns:xlink="http://www.w3.org/1999/xlink" contentStyleType="text/css" height="1101px" preserveAspectRatio="none" style="width:3470px;height:1101px;background:#FFFFFF;" version="1.1" viewBox="0 0 3470 1101" width="3470px" zoomAndPan="magnify"><defs/><g><!--cluster Customer --><g id="cluster_Customer "><path d="M326.5,249.8945 L425.5,249.8945 A3.75,3.75 0 0 1 428,252.3945 L435,281.0508 L473.5,281.0508 A2.5,2.5 0 0 1 476,283.5508 L476,433.3945 A2.5,2.5 0 0 1 473.5,435.8945 L326.5,435.8945 A2.5,2.5 0 0 1 324,433.3945 L324,252.3945 A2.5,2.5 0 0 1 326.5,249.8945 " fill="none" style="stroke:#000000;stroke-width:1.5;"/><line style="stroke:#000000;stroke-width:1.5;" x1="324" x2="435" y1="281.0508" y2="281.0508"/><text fill="#000000" font-family="sans-serif" font-size="20" font-weight="bold" lengthAdjust="spacing" textLength="92" x="328" y="272.6563">Customer</text><text fill="#000000" font-family="sans-serif" font-size="20" font-style="italic" lengthAdjust="spacing" textLength="111" x="348.5" y="303.8125">«aggregate»</text></g><!--cluster CRMCollaborator --><g id="cluster_CRMCollaborator "><path d="M3091.5,494.8945 L3260.5,494.8945 A3.75,3.75 0 0 1 3263,497.3945 L3270,526.0508 L3306.5,526.0508 A2.5,2.5 0 0 1 3309,528.5508 L3309,678.3945 A2.5,2.5 0 0 1 3306.5,680.8945 L3091.5,680.8945 A2.5,2.5 0 0 1 3089,678.3945 L3089,497.3945 A2.5,2.5 0 0 1 3091.5,494.8945 " fill="none" style="stroke:#000000;stroke-width:1.5;"/><line style="stroke:#000000;stroke-width:1.5;" x1="3089" x2="3270" y1="526.0508" y2="526.0508"/><text fill="#000000" font-family="sans-serif" font-size="20" font-weight="bold" lengthAdjust="spacing" textLength="162" x="3093" y="517.6563">CRMCollaborator</text><text fill="#000000" font-family="sans-serif" font-size="20" font-style="italic" lengthAdjust="spacing" textLength="111" x="3147.5" y="548.8125">«aggregate»</text></g><!--cluster CRM Manager --><g id="cluster_CRM Manager "><path d="M2333.5,494.8945 L2473.5,494.8945 A3.75,3.75 0 0 1 2476,497.3945 L2483,526.0508 L2518.5,526.0508 A2.5,2.5 0 0 1 2521,528.5508 L2521,678.3945 A2.5,2.5 0 0 1 2518.5,680.8945 L2333.5,680.8945 A2.5,2.5 0 0 1 2331,678.3945 L2331,497.3945 A2.5,2.5 0 0 1 2333.5,494.8945 " fill="none" style="stroke:#000000;stroke-width:1.5;"/><line style="stroke:#000000;stroke-width:1.5;" x1="2331" x2="2483" y1="526.0508" y2="526.0508"/><text fill="#000000" font-family="sans-serif" font-size="20" font-weight="bold" lengthAdjust="spacing" textLength="133" x="2335" y="517.6563">CRM Manager</text><text fill="#000000" font-family="sans-serif" font-size="20" font-style="italic" lengthAdjust="spacing" textLength="111" x="2374.5" y="548.8125">«aggregate»</text></g><!--cluster ModelOfDrone --><g id="cluster_ModelOfDrone "><path d="M2333.5,739.8945 L2477.5,739.8945 A3.75,3.75 0 0 1 2480,742.3945 L2487,771.0508 L2487.5,771.0508 A2.5,2.5 0 0 1 2490,773.5508 L2490,923.3945 A2.5,2.5 0 0 1 2487.5,925.8945 L2333.5,925.8945 A2.5,2.5 0 0 1 2331,923.3945 L2331,742.3945 A2.5,2.5 0 0 1 2333.5,739.8945 " fill="none" style="stroke:#000000;stroke-width:1.5;"/><line style="stroke:#000000;stroke-width:1.5;" x1="2331" x2="2487" y1="771.0508" y2="771.0508"/><text fill="#000000" font-family="sans-serif" font-size="20" font-weight="bold" lengthAdjust="spacing" textLength="137" x="2335" y="762.6563">ModelOfDrone</text><text fill="#000000" font-family="sans-serif" font-size="20" font-style="italic" lengthAdjust="spacing" textLength="111" x="2359" y="793.8125">«aggregate»</text></g><!--cluster Figure --><g id="cluster_Figure "><path d="M344.5,739.8945 L411.5,739.8945 A3.75,3.75 0 0 1 414,742.3945 L421,771.0508 L473.5,771.0508 A2.5,2.5 0 0 1 476,773.5508 L476,923.3945 A2.5,2.5 0 0 1 473.5,925.8945 L344.5,925.8945 A2.5,2.5 0 0 1 342,923.3945 L342,742.3945 A2.5,2.5 0 0 1 344.5,739.8945 " fill="none" style="stroke:#000000;stroke-width:1.5;"/><line style="stroke:#000000;stroke-width:1.5;" x1="342" x2="421" y1="771.0508" y2="771.0508"/><text fill="#000000" font-family="sans-serif" font-size="20" font-weight="bold" lengthAdjust="spacing" textLength="60" x="346" y="762.6563">Figure</text><text fill="#000000" font-family="sans-serif" font-size="20" font-style="italic" lengthAdjust="spacing" textLength="111" x="357.5" y="793.8125">«aggregate»</text></g><!--cluster ShowRequest --><g id="cluster_ShowRequest "><path d="M2547.5,494.8945 L2684.5,494.8945 A3.75,3.75 0 0 1 2687,497.3945 L2694,526.0508 L2730.5,526.0508 A2.5,2.5 0 0 1 2733,528.5508 L2733,678.3945 A2.5,2.5 0 0 1 2730.5,680.8945 L2547.5,680.8945 A2.5,2.5 0 0 1 2545,678.3945 L2545,497.3945 A2.5,2.5 0 0 1 2547.5,494.8945 " fill="none" style="stroke:#000000;stroke-width:1.5;"/><line style="stroke:#000000;stroke-width:1.5;" x1="2545" x2="2694" y1="526.0508" y2="526.0508"/><text fill="#000000" font-family="sans-serif" font-size="20" font-weight="bold" lengthAdjust="spacing" textLength="130" x="2549" y="517.6563">ShowRequest</text><text fill="#000000" font-family="sans-serif" font-size="20" font-style="italic" lengthAdjust="spacing" textLength="111" x="2587.5" y="548.8125">«aggregate»</text></g><!--cluster ShowProposal --><g id="cluster_ShowProposal "><path d="M502.5,249.8945 L645.5,249.8945 A3.75,3.75 0 0 1 648,252.3945 L655,281.0508 L2304.5,281.0508 A2.5,2.5 0 0 1 2307,283.5508 L2307,910.8945 A2.5,2.5 0 0 1 2304.5,913.3945 L502.5,913.3945 A2.5,2.5 0 0 1 500,910.8945 L500,252.3945 A2.5,2.5 0 0 1 502.5,249.8945 " fill="none" style="stroke:#000000;stroke-width:1.5;"/><line style="stroke:#000000;stroke-width:1.5;" x1="500" x2="655" y1="281.0508" y2="281.0508"/><text fill="#000000" font-family="sans-serif" font-size="20" font-weight="bold" lengthAdjust="spacing" textLength="136" x="504" y="272.6563">ShowProposal</text><text fill="#000000" font-family="sans-serif" font-size="20" font-style="italic" lengthAdjust="spacing" textLength="111" x="1352" y="303.8125">«aggregate»</text></g><!--cluster ProposalDeliveryInfo --><g id="cluster_ProposalDeliveryInfo "><path d="M8.5,6.8945 L211.5,6.8945 A3.75,3.75 0 0 1 214,9.3945 L221,38.0508 L297.5,38.0508 A2.5,2.5 0 0 1 300,40.5508 L300,420.8945 A2.5,2.5 0 0 1 297.5,423.3945 L8.5,423.3945 A2.5,2.5 0 0 1 6,420.8945 L6,9.3945 A2.5,2.5 0 0 1 8.5,6.8945 " fill="none" style="stroke:#000000;stroke-width:1.5;"/><line style="stroke:#000000;stroke-width:1.5;" x1="6" x2="221" y1="38.0508" y2="38.0508"/><text fill="#000000" font-family="sans-serif" font-size="20" font-weight="bold" lengthAdjust="spacing" textLength="196" x="10" y="29.6563">ProposalDeliveryInfo</text><text fill="#000000" font-family="sans-serif" font-size="20" font-style="italic" lengthAdjust="spacing" textLength="111" x="101.5" y="60.8125">«aggregate»</text></g><!--cluster Shared--><g id="cluster_Shared"><path d="M2530.5,958.8945 L2598.5,958.8945 A3.75,3.75 0 0 1 2601,961.3945 L2608,990.0508 L3352.5,990.0508 A2.5,2.5 0 0 1 3355,992.5508 L3355,1092.3945 A2.5,2.5 0 0 1 3352.5,1094.8945 L2530.5,1094.8945 A2.5,2.5 0 0 1 2528,1092.3945 L2528,961.3945 A2.5,2.5 0 0 1 2530.5,958.8945 " fill="none" style="stroke:#000000;stroke-width:1.5;"/><line style="stroke:#000000;stroke-width:1.5;" x1="2528" x2="2608" y1="990.0508" y2="990.0508"/><text fill="#000000" font-family="sans-serif" font-size="20" font-weight="bold" lengthAdjust="spacing" textLength="67" x="2532" y="981.6563">Shared</text></g><!--class Customer--><g id="elem_Customer"><rect codeLine="4" fill="#F1F1F1" height="101.4688" id="Customer" rx="2.5" ry="2.5" style="stroke:#181818;stroke-width:0.5;" width="119" x="340.5" y="318.8945"/><ellipse cx="356.5" cy="361.6289" fill="#ADD1B2" rx="12" ry="12" style="stroke:#181818;stroke-width:1.0;"/><path d="M358.6406,356.5508 Q358.8281,356.3008 359.0469,356.1758 Q359.2656,356.0352 359.5156,356.0352 Q359.9531,356.0352 360.2344,356.3477 Q360.5156,356.6445 360.5156,357.3633 L360.5156,359.0664 Q360.5156,359.7852 360.2344,360.0977 Q359.9531,360.4102 359.5156,360.4102 Q359.125,360.4102 358.875,360.1758 Q358.625,359.957 358.5156,359.3477 Q358.4531,358.9258 358.2344,358.707 Q357.8438,358.2695 357.125,358.0039 Q356.4063,357.7383 355.6875,357.7383 Q354.7813,357.7383 354.0313,358.1289 Q353.2813,358.5195 352.7031,359.4102 Q352.125,360.2852 352.125,361.4883 L352.125,362.7852 Q352.125,364.2383 353.1719,365.207 Q354.2344,366.1758 356.0938,366.1758 Q357.2031,366.1758 357.9844,365.8633 Q358.4219,365.6914 358.9375,365.1758 Q359.25,364.8633 359.4219,364.7695 Q359.5938,364.6758 359.8281,364.6758 Q360.2188,364.6758 360.5156,364.9883 Q360.8281,365.2852 360.8281,365.6914 Q360.8281,366.0977 360.4219,366.5664 Q359.8281,367.2539 358.8906,367.6445 Q357.625,368.1758 356.1094,368.1758 Q354.3281,368.1758 352.9063,367.4414 Q351.75,366.8477 350.9375,365.582 Q350.125,364.3164 350.125,362.832 L350.125,361.4727 Q350.125,359.9102 350.8438,358.5664 Q351.5781,357.207 352.8594,356.4727 Q354.1563,355.7383 355.6094,355.7383 Q356.4688,355.7383 357.2188,355.9414 Q357.9844,356.1445 358.6406,356.5508 Z " fill="#000000"/><text fill="#000000" font-family="sans-serif" font-size="20" font-style="italic" lengthAdjust="spacing" textLength="71" x="378.5" y="344.6563">«Entity»</text><text fill="#000000" font-family="sans-serif" font-size="20" font-style="italic" lengthAdjust="spacing" textLength="56" x="386" y="369.8125">«root»</text><text fill="#000000" font-family="sans-serif" font-size="20" lengthAdjust="spacing" textLength="85" x="371.5" y="394.9688">Customer</text><line style="stroke:#181818;stroke-width:0.5;" x1="341.5" x2="458.5" y1="404.3633" y2="404.3633"/><line style="stroke:#181818;stroke-width:0.5;" x1="341.5" x2="458.5" y1="412.3633" y2="412.3633"/></g><!--class CRMCollaborator--><g id="elem_CRMCollaborator"><rect codeLine="11" fill="#F1F1F1" height="101.4688" id="CRMCollaborator" rx="2.5" ry="2.5" style="stroke:#181818;stroke-width:0.5;" width="187" x="3105.5" y="563.8945"/><ellipse cx="3121.5" cy="606.6289" fill="#ADD1B2" rx="12" ry="12" style="stroke:#181818;stroke-width:1.0;"/><path d="M3123.6406,601.5508 Q3123.8281,601.3008 3124.0469,601.1758 Q3124.2656,601.0352 3124.5156,601.0352 Q3124.9531,601.0352 3125.2344,601.3477 Q3125.5156,601.6445 3125.5156,602.3633 L3125.5156,604.0664 Q3125.5156,604.7852 3125.2344,605.0977 Q3124.9531,605.4102 3124.5156,605.4102 Q3124.125,605.4102 3123.875,605.1758 Q3123.625,604.957 3123.5156,604.3477 Q3123.4531,603.9258 3123.2344,603.707 Q3122.8438,603.2695 3122.125,603.0039 Q3121.4063,602.7383 3120.6875,602.7383 Q3119.7813,602.7383 3119.0313,603.1289 Q3118.2813,603.5195 3117.7031,604.4102 Q3117.125,605.2852 3117.125,606.4883 L3117.125,607.7852 Q3117.125,609.2383 3118.1719,610.207 Q3119.2344,611.1758 3121.0938,611.1758 Q3122.2031,611.1758 3122.9844,610.8633 Q3123.4219,610.6914 3123.9375,610.1758 Q3124.25,609.8633 3124.4219,609.7695 Q3124.5938,609.6758 3124.8281,609.6758 Q3125.2188,609.6758 3125.5156,609.9883 Q3125.8281,610.2852 3125.8281,610.6914 Q3125.8281,611.0977 3125.4219,611.5664 Q3124.8281,612.2539 3123.8906,612.6445 Q3122.625,613.1758 3121.1094,613.1758 Q3119.3281,613.1758 3117.9063,612.4414 Q3116.75,611.8477 3115.9375,610.582 Q3115.125,609.3164 3115.125,607.832 L3115.125,606.4727 Q3115.125,604.9102 3115.8438,603.5664 Q3116.5781,602.207 3117.8594,601.4727 Q3119.1563,600.7383 3120.6094,600.7383 Q3121.4688,600.7383 3122.2188,600.9414 Q3122.9844,601.1445 3123.6406,601.5508 Z " fill="#000000"/><text fill="#000000" font-family="sans-serif" font-size="20" font-style="italic" lengthAdjust="spacing" textLength="71" x="3177.5" y="589.6563">«Entity»</text><text fill="#000000" font-family="sans-serif" font-size="20" font-style="italic" lengthAdjust="spacing" textLength="56" x="3185" y="614.8125">«root»</text><text fill="#000000" font-family="sans-serif" font-size="20" lengthAdjust="spacing" textLength="153" x="3136.5" y="639.9688">CRMCollaborator</text><line style="stroke:#181818;stroke-width:0.5;" x1="3106.5" x2="3291.5" y1="649.3633" y2="649.3633"/><line style="stroke:#181818;stroke-width:0.5;" x1="3106.5" x2="3291.5" y1="657.3633" y2="657.3633"/></g><!--class CRMManager--><g id="elem_CRMManager"><rect codeLine="17" fill="#F1F1F1" height="101.4688" id="CRMManager" rx="2.5" ry="2.5" style="stroke:#181818;stroke-width:0.5;" width="157" x="2347.5" y="563.8945"/><ellipse cx="2363.5" cy="606.6289" fill="#ADD1B2" rx="12" ry="12" style="stroke:#181818;stroke-width:1.0;"/><path d="M2365.6406,601.5508 Q2365.8281,601.3008 2366.0469,601.1758 Q2366.2656,601.0352 2366.5156,601.0352 Q2366.9531,601.0352 2367.2344,601.3477 Q2367.5156,601.6445 2367.5156,602.3633 L2367.5156,604.0664 Q2367.5156,604.7852 2367.2344,605.0977 Q2366.9531,605.4102 2366.5156,605.4102 Q2366.125,605.4102 2365.875,605.1758 Q2365.625,604.957 2365.5156,604.3477 Q2365.4531,603.9258 2365.2344,603.707 Q2364.8438,603.2695 2364.125,603.0039 Q2363.4063,602.7383 2362.6875,602.7383 Q2361.7813,602.7383 2361.0313,603.1289 Q2360.2813,603.5195 2359.7031,604.4102 Q2359.125,605.2852 2359.125,606.4883 L2359.125,607.7852 Q2359.125,609.2383 2360.1719,610.207 Q2361.2344,611.1758 2363.0938,611.1758 Q2364.2031,611.1758 2364.9844,610.8633 Q2365.4219,610.6914 2365.9375,610.1758 Q2366.25,609.8633 2366.4219,609.7695 Q2366.5938,609.6758 2366.8281,609.6758 Q2367.2188,609.6758 2367.5156,609.9883 Q2367.8281,610.2852 2367.8281,610.6914 Q2367.8281,611.0977 2367.4219,611.5664 Q2366.8281,612.2539 2365.8906,612.6445 Q2364.625,613.1758 2363.1094,613.1758 Q2361.3281,613.1758 2359.9063,612.4414 Q2358.75,611.8477 2357.9375,610.582 Q2357.125,609.3164 2357.125,607.832 L2357.125,606.4727 Q2357.125,604.9102 2357.8438,603.5664 Q2358.5781,602.207 2359.8594,601.4727 Q2361.1563,600.7383 2362.6094,600.7383 Q2363.4688,600.7383 2364.2188,600.9414 Q2364.9844,601.1445 2365.6406,601.5508 Z " fill="#000000"/><text fill="#000000" font-family="sans-serif" font-size="20" font-style="italic" lengthAdjust="spacing" textLength="71" x="2404.5" y="589.6563">«Entity»</text><text fill="#000000" font-family="sans-serif" font-size="20" font-style="italic" lengthAdjust="spacing" textLength="56" x="2412" y="614.8125">«root»</text><text fill="#000000" font-family="sans-serif" font-size="20" lengthAdjust="spacing" textLength="123" x="2378.5" y="639.9688">CRMManager</text><line style="stroke:#181818;stroke-width:0.5;" x1="2348.5" x2="2503.5" y1="649.3633" y2="649.3633"/><line style="stroke:#181818;stroke-width:0.5;" x1="2348.5" x2="2503.5" y1="657.3633" y2="657.3633"/></g><!--class Model--><g id="elem_Model"><rect codeLine="23" fill="#F1F1F1" height="101.4688" id="Model" rx="2.5" ry="2.5" style="stroke:#181818;stroke-width:0.5;" width="101" x="2347.5" y="808.8945"/><ellipse cx="2363.5" cy="851.6289" fill="#ADD1B2" rx="12" ry="12" style="stroke:#181818;stroke-width:1.0;"/><path d="M2365.6406,846.5508 Q2365.8281,846.3008 2366.0469,846.1758 Q2366.2656,846.0352 2366.5156,846.0352 Q2366.9531,846.0352 2367.2344,846.3477 Q2367.5156,846.6445 2367.5156,847.3633 L2367.5156,849.0664 Q2367.5156,849.7852 2367.2344,850.0977 Q2366.9531,850.4102 2366.5156,850.4102 Q2366.125,850.4102 2365.875,850.1758 Q2365.625,849.957 2365.5156,849.3477 Q2365.4531,848.9258 2365.2344,848.707 Q2364.8438,848.2695 2364.125,848.0039 Q2363.4063,847.7383 2362.6875,847.7383 Q2361.7813,847.7383 2361.0313,848.1289 Q2360.2813,848.5195 2359.7031,849.4102 Q2359.125,850.2852 2359.125,851.4883 L2359.125,852.7852 Q2359.125,854.2383 2360.1719,855.207 Q2361.2344,856.1758 2363.0938,856.1758 Q2364.2031,856.1758 2364.9844,855.8633 Q2365.4219,855.6914 2365.9375,855.1758 Q2366.25,854.8633 2366.4219,854.7695 Q2366.5938,854.6758 2366.8281,854.6758 Q2367.2188,854.6758 2367.5156,854.9883 Q2367.8281,855.2852 2367.8281,855.6914 Q2367.8281,856.0977 2367.4219,856.5664 Q2366.8281,857.2539 2365.8906,857.6445 Q2364.625,858.1758 2363.1094,858.1758 Q2361.3281,858.1758 2359.9063,857.4414 Q2358.75,856.8477 2357.9375,855.582 Q2357.125,854.3164 2357.125,852.832 L2357.125,851.4727 Q2357.125,849.9102 2357.8438,848.5664 Q2358.5781,847.207 2359.8594,846.4727 Q2361.1563,845.7383 2362.6094,845.7383 Q2363.4688,845.7383 2364.2188,845.9414 Q2364.9844,846.1445 2365.6406,846.5508 Z " fill="#000000"/><text fill="#000000" font-family="sans-serif" font-size="20" font-style="italic" lengthAdjust="spacing" textLength="71" x="2376.5" y="834.6563">«Entity»</text><text fill="#000000" font-family="sans-serif" font-size="20" font-style="italic" lengthAdjust="spacing" textLength="56" x="2384" y="859.8125">«root»</text><text fill="#000000" font-family="sans-serif" font-size="20" lengthAdjust="spacing" textLength="54" x="2385" y="884.9688">Model</text><line style="stroke:#181818;stroke-width:0.5;" x1="2348.5" x2="2447.5" y1="894.3633" y2="894.3633"/><line style="stroke:#181818;stroke-width:0.5;" x1="2348.5" x2="2447.5" y1="902.3633" y2="902.3633"/></g><!--class Figure--><g id="elem_Figure"><rect codeLine="30" fill="#F1F1F1" height="101.4688" id="Figure" rx="2.5" ry="2.5" style="stroke:#181818;stroke-width:0.5;" width="101" x="358.5" y="808.8945"/><ellipse cx="374.5" cy="851.6289" fill="#ADD1B2" rx="12" ry="12" style="stroke:#181818;stroke-width:1.0;"/><path d="M376.6406,846.5508 Q376.8281,846.3008 377.0469,846.1758 Q377.2656,846.0352 377.5156,846.0352 Q377.9531,846.0352 378.2344,846.3477 Q378.5156,846.6445 378.5156,847.3633 L378.5156,849.0664 Q378.5156,849.7852 378.2344,850.0977 Q377.9531,850.4102 377.5156,850.4102 Q377.125,850.4102 376.875,850.1758 Q376.625,849.957 376.5156,849.3477 Q376.4531,848.9258 376.2344,848.707 Q375.8438,848.2695 375.125,848.0039 Q374.4063,847.7383 373.6875,847.7383 Q372.7813,847.7383 372.0313,848.1289 Q371.2813,848.5195 370.7031,849.4102 Q370.125,850.2852 370.125,851.4883 L370.125,852.7852 Q370.125,854.2383 371.1719,855.207 Q372.2344,856.1758 374.0938,856.1758 Q375.2031,856.1758 375.9844,855.8633 Q376.4219,855.6914 376.9375,855.1758 Q377.25,854.8633 377.4219,854.7695 Q377.5938,854.6758 377.8281,854.6758 Q378.2188,854.6758 378.5156,854.9883 Q378.8281,855.2852 378.8281,855.6914 Q378.8281,856.0977 378.4219,856.5664 Q377.8281,857.2539 376.8906,857.6445 Q375.625,858.1758 374.1094,858.1758 Q372.3281,858.1758 370.9063,857.4414 Q369.75,856.8477 368.9375,855.582 Q368.125,854.3164 368.125,852.832 L368.125,851.4727 Q368.125,849.9102 368.8438,848.5664 Q369.5781,847.207 370.8594,846.4727 Q372.1563,845.7383 373.6094,845.7383 Q374.4688,845.7383 375.2188,845.9414 Q375.9844,846.1445 376.6406,846.5508 Z " fill="#000000"/><text fill="#000000" font-family="sans-serif" font-size="20" font-style="italic" lengthAdjust="spacing" textLength="71" x="387.5" y="834.6563">«Entity»</text><text fill="#000000" font-family="sans-serif" font-size="20" font-style="italic" lengthAdjust="spacing" textLength="56" x="395" y="859.8125">«root»</text><text fill="#000000" font-family="sans-serif" font-size="20" lengthAdjust="spacing" textLength="55" x="395.5" y="884.9688">Figure</text><line style="stroke:#181818;stroke-width:0.5;" x1="359.5" x2="458.5" y1="894.3633" y2="894.3633"/><line style="stroke:#181818;stroke-width:0.5;" x1="359.5" x2="458.5" y1="902.3633" y2="902.3633"/></g><!--class ShowRequest--><g id="elem_ShowRequest"><rect codeLine="36" fill="#F1F1F1" height="101.4688" id="ShowRequest" rx="2.5" ry="2.5" style="stroke:#181818;stroke-width:0.5;" width="156" x="2561" y="563.8945"/><ellipse cx="2577" cy="606.6289" fill="#ADD1B2" rx="12" ry="12" style="stroke:#181818;stroke-width:1.0;"/><path d="M2579.1406,601.5508 Q2579.3281,601.3008 2579.5469,601.1758 Q2579.7656,601.0352 2580.0156,601.0352 Q2580.4531,601.0352 2580.7344,601.3477 Q2581.0156,601.6445 2581.0156,602.3633 L2581.0156,604.0664 Q2581.0156,604.7852 2580.7344,605.0977 Q2580.4531,605.4102 2580.0156,605.4102 Q2579.625,605.4102 2579.375,605.1758 Q2579.125,604.957 2579.0156,604.3477 Q2578.9531,603.9258 2578.7344,603.707 Q2578.3438,603.2695 2577.625,603.0039 Q2576.9063,602.7383 2576.1875,602.7383 Q2575.2813,602.7383 2574.5313,603.1289 Q2573.7813,603.5195 2573.2031,604.4102 Q2572.625,605.2852 2572.625,606.4883 L2572.625,607.7852 Q2572.625,609.2383 2573.6719,610.207 Q2574.7344,611.1758 2576.5938,611.1758 Q2577.7031,611.1758 2578.4844,610.8633 Q2578.9219,610.6914 2579.4375,610.1758 Q2579.75,609.8633 2579.9219,609.7695 Q2580.0938,609.6758 2580.3281,609.6758 Q2580.7188,609.6758 2581.0156,609.9883 Q2581.3281,610.2852 2581.3281,610.6914 Q2581.3281,611.0977 2580.9219,611.5664 Q2580.3281,612.2539 2579.3906,612.6445 Q2578.125,613.1758 2576.6094,613.1758 Q2574.8281,613.1758 2573.4063,612.4414 Q2572.25,611.8477 2571.4375,610.582 Q2570.625,609.3164 2570.625,607.832 L2570.625,606.4727 Q2570.625,604.9102 2571.3438,603.5664 Q2572.0781,602.207 2573.3594,601.4727 Q2574.6563,600.7383 2576.1094,600.7383 Q2576.9688,600.7383 2577.7188,600.9414 Q2578.4844,601.1445 2579.1406,601.5508 Z " fill="#000000"/><text fill="#000000" font-family="sans-serif" font-size="20" font-style="italic" lengthAdjust="spacing" textLength="71" x="2617.5" y="589.6563">«Entity»</text><text fill="#000000" font-family="sans-serif" font-size="20" font-style="italic" lengthAdjust="spacing" textLength="56" x="2625" y="614.8125">«root»</text><text fill="#000000" font-family="sans-serif" font-size="20" lengthAdjust="spacing" textLength="122" x="2592" y="639.9688">ShowRequest</text><line style="stroke:#181818;stroke-width:0.5;" x1="2562" x2="2716" y1="649.3633" y2="649.3633"/><line style="stroke:#181818;stroke-width:0.5;" x1="2562" x2="2716" y1="657.3633" y2="657.3633"/></g><!--class ShowProposalStatus--><g id="elem_ShowProposalStatus"><rect codeLine="43" fill="#F1F1F1" height="76.3125" id="ShowProposalStatus" rx="2.5" ry="2.5" style="stroke:#181818;stroke-width:0.5;" width="217" x="1166.5" y="576.3945"/><ellipse cx="1182.5" cy="606.5508" fill="#EB937F" rx="12" ry="12" style="stroke:#181818;stroke-width:1.0;"/><path d="M1180.4531,607.6133 L1180.4531,610.5508 L1185.5469,610.5508 L1185.5469,609.457 Q1185.5469,608.7383 1185.8281,608.4414 Q1186.1094,608.1289 1186.5625,608.1289 Q1187,608.1289 1187.2813,608.4414 Q1187.5625,608.7383 1187.5625,609.457 L1187.5625,612.5508 L1178.125,612.5508 Q1177.4063,612.5508 1177.0938,612.2695 Q1176.7969,611.9883 1176.7969,611.5508 Q1176.7969,611.0977 1177.1094,610.832 Q1177.4219,610.5508 1178.125,610.5508 L1178.4375,610.5508 L1178.4375,602.7227 L1178.125,602.7227 Q1177.4063,602.7227 1177.0938,602.4414 Q1176.7969,602.1602 1176.7969,601.707 Q1176.7969,601.2539 1177.0938,600.9883 Q1177.4063,600.707 1178.125,600.707 L1187.1094,600.707 L1187.1094,603.7539 Q1187.1094,604.4727 1186.8281,604.7852 Q1186.5625,605.082 1186.125,605.082 Q1185.6719,605.082 1185.3906,604.7852 Q1185.1094,604.4883 1185.1094,603.7539 L1185.1094,602.7227 L1180.4531,602.7227 L1180.4531,605.6133 L1182.2031,605.6133 Q1182.2031,604.832 1182.3438,604.5977 Q1182.6563,604.1289 1183.2031,604.1289 Q1183.6563,604.1289 1183.9219,604.4414 Q1184.2031,604.7383 1184.2031,605.457 L1184.2031,607.7695 Q1184.2031,608.4258 1184.0469,608.6445 Q1183.7344,609.0977 1183.2031,609.0977 Q1182.6563,609.0977 1182.3438,608.6289 Q1182.2031,608.3945 1182.2031,607.6133 L1180.4531,607.6133 Z " fill="#000000"/><text fill="#000000" font-family="sans-serif" font-size="20" font-style="italic" lengthAdjust="spacing" textLength="136" x="1221" y="602.1563">«Value Object»</text><text fill="#000000" font-family="sans-serif" font-size="20" lengthAdjust="spacing" textLength="183" x="1197.5" y="627.3125">ShowProposalStatus</text><line style="stroke:#181818;stroke-width:0.5;" x1="1167.5" x2="1382.5" y1="636.707" y2="636.707"/><line style="stroke:#181818;stroke-width:0.5;" x1="1167.5" x2="1382.5" y1="644.707" y2="644.707"/></g><!--class ShowProposal--><g id="elem_ShowProposal"><rect codeLine="46" fill="#F1F1F1" height="101.4688" id="ShowProposal" rx="2.5" ry="2.5" style="stroke:#181818;stroke-width:0.5;" width="161" x="2128.5" y="318.8945"/><ellipse cx="2144.5" cy="361.6289" fill="#ADD1B2" rx="12" ry="12" style="stroke:#181818;stroke-width:1.0;"/><path d="M2146.6406,356.5508 Q2146.8281,356.3008 2147.0469,356.1758 Q2147.2656,356.0352 2147.5156,356.0352 Q2147.9531,356.0352 2148.2344,356.3477 Q2148.5156,356.6445 2148.5156,357.3633 L2148.5156,359.0664 Q2148.5156,359.7852 2148.2344,360.0977 Q2147.9531,360.4102 2147.5156,360.4102 Q2147.125,360.4102 2146.875,360.1758 Q2146.625,359.957 2146.5156,359.3477 Q2146.4531,358.9258 2146.2344,358.707 Q2145.8438,358.2695 2145.125,358.0039 Q2144.4063,357.7383 2143.6875,357.7383 Q2142.7813,357.7383 2142.0313,358.1289 Q2141.2813,358.5195 2140.7031,359.4102 Q2140.125,360.2852 2140.125,361.4883 L2140.125,362.7852 Q2140.125,364.2383 2141.1719,365.207 Q2142.2344,366.1758 2144.0938,366.1758 Q2145.2031,366.1758 2145.9844,365.8633 Q2146.4219,365.6914 2146.9375,365.1758 Q2147.25,364.8633 2147.4219,364.7695 Q2147.5938,364.6758 2147.8281,364.6758 Q2148.2188,364.6758 2148.5156,364.9883 Q2148.8281,365.2852 2148.8281,365.6914 Q2148.8281,366.0977 2148.4219,366.5664 Q2147.8281,367.2539 2146.8906,367.6445 Q2145.625,368.1758 2144.1094,368.1758 Q2142.3281,368.1758 2140.9063,367.4414 Q2139.75,366.8477 2138.9375,365.582 Q2138.125,364.3164 2138.125,362.832 L2138.125,361.4727 Q2138.125,359.9102 2138.8438,358.5664 Q2139.5781,357.207 2140.8594,356.4727 Q2142.1563,355.7383 2143.6094,355.7383 Q2144.4688,355.7383 2145.2188,355.9414 Q2145.9844,356.1445 2146.6406,356.5508 Z " fill="#000000"/><text fill="#000000" font-family="sans-serif" font-size="20" font-style="italic" lengthAdjust="spacing" textLength="71" x="2187.5" y="344.6563">«Entity»</text><text fill="#000000" font-family="sans-serif" font-size="20" font-style="italic" lengthAdjust="spacing" textLength="56" x="2195" y="369.8125">«root»</text><text fill="#000000" font-family="sans-serif" font-size="20" lengthAdjust="spacing" textLength="127" x="2159.5" y="394.9688">ShowProposal</text><line style="stroke:#181818;stroke-width:0.5;" x1="2129.5" x2="2288.5" y1="404.3633" y2="404.3633"/><line style="stroke:#181818;stroke-width:0.5;" x1="2129.5" x2="2288.5" y1="412.3633" y2="412.3633"/></g><!--class ShowProposalDocument--><g id="elem_ShowProposalDocument"><rect codeLine="49" fill="#F1F1F1" height="76.3125" id="ShowProposalDocument" rx="2.5" ry="2.5" style="stroke:#181818;stroke-width:0.5;" width="249" x="882.5" y="576.3945"/><ellipse cx="898.5" cy="606.5508" fill="#ADD1B2" rx="12" ry="12" style="stroke:#181818;stroke-width:1.0;"/><path d="M900.6406,601.4727 Q900.8281,601.2227 901.0469,601.0977 Q901.2656,600.957 901.5156,600.957 Q901.9531,600.957 902.2344,601.2695 Q902.5156,601.5664 902.5156,602.2852 L902.5156,603.9883 Q902.5156,604.707 902.2344,605.0195 Q901.9531,605.332 901.5156,605.332 Q901.125,605.332 900.875,605.0977 Q900.625,604.8789 900.5156,604.2695 Q900.4531,603.8477 900.2344,603.6289 Q899.8438,603.1914 899.125,602.9258 Q898.4063,602.6602 897.6875,602.6602 Q896.7813,602.6602 896.0313,603.0508 Q895.2813,603.4414 894.7031,604.332 Q894.125,605.207 894.125,606.4102 L894.125,607.707 Q894.125,609.1602 895.1719,610.1289 Q896.2344,611.0977 898.0938,611.0977 Q899.2031,611.0977 899.9844,610.7852 Q900.4219,610.6133 900.9375,610.0977 Q901.25,609.7852 901.4219,609.6914 Q901.5938,609.5977 901.8281,609.5977 Q902.2188,609.5977 902.5156,609.9102 Q902.8281,610.207 902.8281,610.6133 Q902.8281,611.0195 902.4219,611.4883 Q901.8281,612.1758 900.8906,612.5664 Q899.625,613.0977 898.1094,613.0977 Q896.3281,613.0977 894.9063,612.3633 Q893.75,611.7695 892.9375,610.5039 Q892.125,609.2383 892.125,607.7539 L892.125,606.3945 Q892.125,604.832 892.8438,603.4883 Q893.5781,602.1289 894.8594,601.3945 Q896.1563,600.6602 897.6094,600.6602 Q898.4688,600.6602 899.2188,600.8633 Q899.9844,601.0664 900.6406,601.4727 Z " fill="#000000"/><text fill="#000000" font-family="sans-serif" font-size="20" font-style="italic" lengthAdjust="spacing" textLength="136" x="953" y="602.1563">«Value Object»</text><text fill="#000000" font-family="sans-serif" font-size="20" lengthAdjust="spacing" textLength="215" x="913.5" y="627.3125">ShowProposalDocument</text><line style="stroke:#181818;stroke-width:0.5;" x1="883.5" x2="1130.5" y1="636.707" y2="636.707"/><line style="stroke:#181818;stroke-width:0.5;" x1="883.5" x2="1130.5" y1="644.707" y2="644.707"/></g><!--class ShowProposalNumber--><g id="elem_ShowProposalNumber"><rect codeLine="52" fill="#F1F1F1" height="76.3125" id="ShowProposalNumber" rx="2.5" ry="2.5" style="stroke:#181818;stroke-width:0.5;" width="229" x="1418.5" y="576.3945"/><ellipse cx="1434.5" cy="606.5508" fill="#ADD1B2" rx="12" ry="12" style="stroke:#181818;stroke-width:1.0;"/><path d="M1436.6406,601.4727 Q1436.8281,601.2227 1437.0469,601.0977 Q1437.2656,600.957 1437.5156,600.957 Q1437.9531,600.957 1438.2344,601.2695 Q1438.5156,601.5664 1438.5156,602.2852 L1438.5156,603.9883 Q1438.5156,604.707 1438.2344,605.0195 Q1437.9531,605.332 1437.5156,605.332 Q1437.125,605.332 1436.875,605.0977 Q1436.625,604.8789 1436.5156,604.2695 Q1436.4531,603.8477 1436.2344,603.6289 Q1435.8438,603.1914 1435.125,602.9258 Q1434.4063,602.6602 1433.6875,602.6602 Q1432.7813,602.6602 1432.0313,603.0508 Q1431.2813,603.4414 1430.7031,604.332 Q1430.125,605.207 1430.125,606.4102 L1430.125,607.707 Q1430.125,609.1602 1431.1719,610.1289 Q1432.2344,611.0977 1434.0938,611.0977 Q1435.2031,611.0977 1435.9844,610.7852 Q1436.4219,610.6133 1436.9375,610.0977 Q1437.25,609.7852 1437.4219,609.6914 Q1437.5938,609.5977 1437.8281,609.5977 Q1438.2188,609.5977 1438.5156,609.9102 Q1438.8281,610.207 1438.8281,610.6133 Q1438.8281,611.0195 1438.4219,611.4883 Q1437.8281,612.1758 1436.8906,612.5664 Q1435.625,613.0977 1434.1094,613.0977 Q1432.3281,613.0977 1430.9063,612.3633 Q1429.75,611.7695 1428.9375,610.5039 Q1428.125,609.2383 1428.125,607.7539 L1428.125,606.3945 Q1428.125,604.832 1428.8438,603.4883 Q1429.5781,602.1289 1430.8594,601.3945 Q1432.1563,600.6602 1433.6094,600.6602 Q1434.4688,600.6602 1435.2188,600.8633 Q1435.9844,601.0664 1436.6406,601.4727 Z " fill="#000000"/><text fill="#000000" font-family="sans-serif" font-size="20" font-style="italic" lengthAdjust="spacing" textLength="136" x="1479" y="602.1563">«Value Object»</text><text fill="#000000" font-family="sans-serif" font-size="20" lengthAdjust="spacing" textLength="195" x="1449.5" y="627.3125">ShowProposalNumber</text><line style="stroke:#181818;stroke-width:0.5;" x1="1419.5" x2="1646.5" y1="636.707" y2="636.707"/><line style="stroke:#181818;stroke-width:0.5;" x1="1419.5" x2="1646.5" y1="644.707" y2="644.707"/></g><!--class Insurance--><g id="elem_Insurance"><rect codeLine="55" fill="#F1F1F1" height="76.3125" id="Insurance" rx="2.5" ry="2.5" style="stroke:#181818;stroke-width:0.5;" width="166" x="1683" y="576.3945"/><ellipse cx="1699" cy="606.5508" fill="#ADD1B2" rx="12" ry="12" style="stroke:#181818;stroke-width:1.0;"/><path d="M1701.1406,601.4727 Q1701.3281,601.2227 1701.5469,601.0977 Q1701.7656,600.957 1702.0156,600.957 Q1702.4531,600.957 1702.7344,601.2695 Q1703.0156,601.5664 1703.0156,602.2852 L1703.0156,603.9883 Q1703.0156,604.707 1702.7344,605.0195 Q1702.4531,605.332 1702.0156,605.332 Q1701.625,605.332 1701.375,605.0977 Q1701.125,604.8789 1701.0156,604.2695 Q1700.9531,603.8477 1700.7344,603.6289 Q1700.3438,603.1914 1699.625,602.9258 Q1698.9063,602.6602 1698.1875,602.6602 Q1697.2813,602.6602 1696.5313,603.0508 Q1695.7813,603.4414 1695.2031,604.332 Q1694.625,605.207 1694.625,606.4102 L1694.625,607.707 Q1694.625,609.1602 1695.6719,610.1289 Q1696.7344,611.0977 1698.5938,611.0977 Q1699.7031,611.0977 1700.4844,610.7852 Q1700.9219,610.6133 1701.4375,610.0977 Q1701.75,609.7852 1701.9219,609.6914 Q1702.0938,609.5977 1702.3281,609.5977 Q1702.7188,609.5977 1703.0156,609.9102 Q1703.3281,610.207 1703.3281,610.6133 Q1703.3281,611.0195 1702.9219,611.4883 Q1702.3281,612.1758 1701.3906,612.5664 Q1700.125,613.0977 1698.6094,613.0977 Q1696.8281,613.0977 1695.4063,612.3633 Q1694.25,611.7695 1693.4375,610.5039 Q1692.625,609.2383 1692.625,607.7539 L1692.625,606.3945 Q1692.625,604.832 1693.3438,603.4883 Q1694.0781,602.1289 1695.3594,601.3945 Q1696.6563,600.6602 1698.1094,600.6602 Q1698.9688,600.6602 1699.7188,600.8633 Q1700.4844,601.0664 1701.1406,601.4727 Z " fill="#000000"/><text fill="#000000" font-family="sans-serif" font-size="20" font-style="italic" lengthAdjust="spacing" textLength="136" x="1712" y="602.1563">«Value Object»</text><text fill="#000000" font-family="sans-serif" font-size="20" lengthAdjust="spacing" textLength="85" x="1737.5" y="627.3125">Insurance</text><line style="stroke:#181818;stroke-width:0.5;" x1="1684" x2="1848" y1="636.707" y2="636.707"/><line style="stroke:#181818;stroke-width:0.5;" x1="1684" x2="1848" y1="644.707" y2="644.707"/></g><!--class CustomerFeedback--><g id="elem_CustomerFeedback"><rect codeLine="58" fill="#F1F1F1" height="76.3125" id="CustomerFeedback" rx="2.5" ry="2.5" style="stroke:#181818;stroke-width:0.5;" width="206" x="1884" y="576.3945"/><ellipse cx="1900" cy="606.5508" fill="#ADD1B2" rx="12" ry="12" style="stroke:#181818;stroke-width:1.0;"/><path d="M1902.1406,601.4727 Q1902.3281,601.2227 1902.5469,601.0977 Q1902.7656,600.957 1903.0156,600.957 Q1903.4531,600.957 1903.7344,601.2695 Q1904.0156,601.5664 1904.0156,602.2852 L1904.0156,603.9883 Q1904.0156,604.707 1903.7344,605.0195 Q1903.4531,605.332 1903.0156,605.332 Q1902.625,605.332 1902.375,605.0977 Q1902.125,604.8789 1902.0156,604.2695 Q1901.9531,603.8477 1901.7344,603.6289 Q1901.3438,603.1914 1900.625,602.9258 Q1899.9063,602.6602 1899.1875,602.6602 Q1898.2813,602.6602 1897.5313,603.0508 Q1896.7813,603.4414 1896.2031,604.332 Q1895.625,605.207 1895.625,606.4102 L1895.625,607.707 Q1895.625,609.1602 1896.6719,610.1289 Q1897.7344,611.0977 1899.5938,611.0977 Q1900.7031,611.0977 1901.4844,610.7852 Q1901.9219,610.6133 1902.4375,610.0977 Q1902.75,609.7852 1902.9219,609.6914 Q1903.0938,609.5977 1903.3281,609.5977 Q1903.7188,609.5977 1904.0156,609.9102 Q1904.3281,610.207 1904.3281,610.6133 Q1904.3281,611.0195 1903.9219,611.4883 Q1903.3281,612.1758 1902.3906,612.5664 Q1901.125,613.0977 1899.6094,613.0977 Q1897.8281,613.0977 1896.4063,612.3633 Q1895.25,611.7695 1894.4375,610.5039 Q1893.625,609.2383 1893.625,607.7539 L1893.625,606.3945 Q1893.625,604.832 1894.3438,603.4883 Q1895.0781,602.1289 1896.3594,601.3945 Q1897.6563,600.6602 1899.1094,600.6602 Q1899.9688,600.6602 1900.7188,600.8633 Q1901.4844,601.0664 1902.1406,601.4727 Z " fill="#000000"/><text fill="#000000" font-family="sans-serif" font-size="20" font-style="italic" lengthAdjust="spacing" textLength="136" x="1933" y="602.1563">«Value Object»</text><text fill="#000000" font-family="sans-serif" font-size="20" lengthAdjust="spacing" textLength="172" x="1915" y="627.3125">CustomerFeedback</text><line style="stroke:#181818;stroke-width:0.5;" x1="1885" x2="2089" y1="636.707" y2="636.707"/><line style="stroke:#181818;stroke-width:0.5;" x1="1885" x2="2089" y1="644.707" y2="644.707"/></g><!--class ShowConfiguration--><g id="elem_ShowConfiguration"><rect codeLine="61" fill="#F1F1F1" height="76.3125" id="ShowConfiguration" rx="2.5" ry="2.5" style="stroke:#181818;stroke-width:0.5;" width="198" x="649" y="576.3945"/><ellipse cx="665" cy="606.5508" fill="#ADD1B2" rx="12" ry="12" style="stroke:#181818;stroke-width:1.0;"/><path d="M667.1406,601.4727 Q667.3281,601.2227 667.5469,601.0977 Q667.7656,600.957 668.0156,600.957 Q668.4531,600.957 668.7344,601.2695 Q669.0156,601.5664 669.0156,602.2852 L669.0156,603.9883 Q669.0156,604.707 668.7344,605.0195 Q668.4531,605.332 668.0156,605.332 Q667.625,605.332 667.375,605.0977 Q667.125,604.8789 667.0156,604.2695 Q666.9531,603.8477 666.7344,603.6289 Q666.3438,603.1914 665.625,602.9258 Q664.9063,602.6602 664.1875,602.6602 Q663.2813,602.6602 662.5313,603.0508 Q661.7813,603.4414 661.2031,604.332 Q660.625,605.207 660.625,606.4102 L660.625,607.707 Q660.625,609.1602 661.6719,610.1289 Q662.7344,611.0977 664.5938,611.0977 Q665.7031,611.0977 666.4844,610.7852 Q666.9219,610.6133 667.4375,610.0977 Q667.75,609.7852 667.9219,609.6914 Q668.0938,609.5977 668.3281,609.5977 Q668.7188,609.5977 669.0156,609.9102 Q669.3281,610.207 669.3281,610.6133 Q669.3281,611.0195 668.9219,611.4883 Q668.3281,612.1758 667.3906,612.5664 Q666.125,613.0977 664.6094,613.0977 Q662.8281,613.0977 661.4063,612.3633 Q660.25,611.7695 659.4375,610.5039 Q658.625,609.2383 658.625,607.7539 L658.625,606.3945 Q658.625,604.832 659.3438,603.4883 Q660.0781,602.1289 661.3594,601.3945 Q662.6563,600.6602 664.1094,600.6602 Q664.9688,600.6602 665.7188,600.8633 Q666.4844,601.0664 667.1406,601.4727 Z " fill="#000000"/><text fill="#000000" font-family="sans-serif" font-size="20" font-style="italic" lengthAdjust="spacing" textLength="71" x="726.5" y="602.1563">«Entity»</text><text fill="#000000" font-family="sans-serif" font-size="20" lengthAdjust="spacing" textLength="164" x="680" y="627.3125">ShowConfiguration</text><line style="stroke:#181818;stroke-width:0.5;" x1="650" x2="846" y1="636.707" y2="636.707"/><line style="stroke:#181818;stroke-width:0.5;" x1="650" x2="846" y1="644.707" y2="644.707"/></g><!--class Video--><g id="elem_Video"><rect codeLine="64" fill="#F1F1F1" height="76.3125" id="Video" rx="2.5" ry="2.5" style="stroke:#181818;stroke-width:0.5;" width="166" x="2125" y="576.3945"/><ellipse cx="2141" cy="606.5508" fill="#ADD1B2" rx="12" ry="12" style="stroke:#181818;stroke-width:1.0;"/><path d="M2143.1406,601.4727 Q2143.3281,601.2227 2143.5469,601.0977 Q2143.7656,600.957 2144.0156,600.957 Q2144.4531,600.957 2144.7344,601.2695 Q2145.0156,601.5664 2145.0156,602.2852 L2145.0156,603.9883 Q2145.0156,604.707 2144.7344,605.0195 Q2144.4531,605.332 2144.0156,605.332 Q2143.625,605.332 2143.375,605.0977 Q2143.125,604.8789 2143.0156,604.2695 Q2142.9531,603.8477 2142.7344,603.6289 Q2142.3438,603.1914 2141.625,602.9258 Q2140.9063,602.6602 2140.1875,602.6602 Q2139.2813,602.6602 2138.5313,603.0508 Q2137.7813,603.4414 2137.2031,604.332 Q2136.625,605.207 2136.625,606.4102 L2136.625,607.707 Q2136.625,609.1602 2137.6719,610.1289 Q2138.7344,611.0977 2140.5938,611.0977 Q2141.7031,611.0977 2142.4844,610.7852 Q2142.9219,610.6133 2143.4375,610.0977 Q2143.75,609.7852 2143.9219,609.6914 Q2144.0938,609.5977 2144.3281,609.5977 Q2144.7188,609.5977 2145.0156,609.9102 Q2145.3281,610.207 2145.3281,610.6133 Q2145.3281,611.0195 2144.9219,611.4883 Q2144.3281,612.1758 2143.3906,612.5664 Q2142.125,613.0977 2140.6094,613.0977 Q2138.8281,613.0977 2137.4063,612.3633 Q2136.25,611.7695 2135.4375,610.5039 Q2134.625,609.2383 2134.625,607.7539 L2134.625,606.3945 Q2134.625,604.832 2135.3438,603.4883 Q2136.0781,602.1289 2137.3594,601.3945 Q2138.6563,600.6602 2140.1094,600.6602 Q2140.9688,600.6602 2141.7188,600.8633 Q2142.4844,601.0664 2143.1406,601.4727 Z " fill="#000000"/><text fill="#000000" font-family="sans-serif" font-size="20" font-style="italic" lengthAdjust="spacing" textLength="136" x="2154" y="602.1563">«Value Object»</text><text fill="#000000" font-family="sans-serif" font-size="20" lengthAdjust="spacing" textLength="50" x="2197" y="627.3125">Video</text><line style="stroke:#181818;stroke-width:0.5;" x1="2126" x2="2290" y1="636.707" y2="636.707"/><line style="stroke:#181818;stroke-width:0.5;" x1="2126" x2="2290" y1="644.707" y2="644.707"/></g><!--class ProposalDocumentGenerator--><g id="elem_ProposalDocumentGenerator"><rect codeLine="67" fill="#F1F1F1" height="76.3125" id="ProposalDocumentGenerator" rx="2.5" ry="2.5" style="stroke:#181818;stroke-width:0.5;" width="290" x="807" y="331.3945"/><ellipse cx="823" cy="361.5508" fill="#ADD1B2" rx="12" ry="12" style="stroke:#181818;stroke-width:1.0;"/><path d="M825.1406,356.4727 Q825.3281,356.2227 825.5469,356.0977 Q825.7656,355.957 826.0156,355.957 Q826.4531,355.957 826.7344,356.2695 Q827.0156,356.5664 827.0156,357.2852 L827.0156,358.9883 Q827.0156,359.707 826.7344,360.0195 Q826.4531,360.332 826.0156,360.332 Q825.625,360.332 825.375,360.0977 Q825.125,359.8789 825.0156,359.2695 Q824.9531,358.8477 824.7344,358.6289 Q824.3438,358.1914 823.625,357.9258 Q822.9063,357.6602 822.1875,357.6602 Q821.2813,357.6602 820.5313,358.0508 Q819.7813,358.4414 819.2031,359.332 Q818.625,360.207 818.625,361.4102 L818.625,362.707 Q818.625,364.1602 819.6719,365.1289 Q820.7344,366.0977 822.5938,366.0977 Q823.7031,366.0977 824.4844,365.7852 Q824.9219,365.6133 825.4375,365.0977 Q825.75,364.7852 825.9219,364.6914 Q826.0938,364.5977 826.3281,364.5977 Q826.7188,364.5977 827.0156,364.9102 Q827.3281,365.207 827.3281,365.6133 Q827.3281,366.0195 826.9219,366.4883 Q826.3281,367.1758 825.3906,367.5664 Q824.125,368.0977 822.6094,368.0977 Q820.8281,368.0977 819.4063,367.3633 Q818.25,366.7695 817.4375,365.5039 Q816.625,364.2383 816.625,362.7539 L816.625,361.3945 Q816.625,359.832 817.3438,358.4883 Q818.0781,357.1289 819.3594,356.3945 Q820.6563,355.6602 822.1094,355.6602 Q822.9688,355.6602 823.7188,355.8633 Q824.4844,356.0664 825.1406,356.4727 Z " fill="#000000"/><text fill="#000000" font-family="sans-serif" font-size="20" font-style="italic" lengthAdjust="spacing" textLength="89" x="921.5" y="357.1563">«Service»</text><text fill="#000000" font-family="sans-serif" font-size="20" lengthAdjust="spacing" textLength="256" x="838" y="382.3125">ProposalDocumentGenerator</text><line style="stroke:#181818;stroke-width:0.5;" x1="808" x2="1096" y1="391.707" y2="391.707"/><line style="stroke:#181818;stroke-width:0.5;" x1="808" x2="1096" y1="399.707" y2="399.707"/></g><!--class ShowDSLDescription--><g id="elem_ShowDSLDescription"><rect codeLine="70" fill="#F1F1F1" height="76.3125" id="ShowDSLDescription" rx="2.5" ry="2.5" style="stroke:#181818;stroke-width:0.5;" width="219" x="577.5" y="821.3945"/><ellipse cx="593.5" cy="851.5508" fill="#ADD1B2" rx="12" ry="12" style="stroke:#181818;stroke-width:1.0;"/><path d="M595.6406,846.4727 Q595.8281,846.2227 596.0469,846.0977 Q596.2656,845.957 596.5156,845.957 Q596.9531,845.957 597.2344,846.2695 Q597.5156,846.5664 597.5156,847.2852 L597.5156,848.9883 Q597.5156,849.707 597.2344,850.0195 Q596.9531,850.332 596.5156,850.332 Q596.125,850.332 595.875,850.0977 Q595.625,849.8789 595.5156,849.2695 Q595.4531,848.8477 595.2344,848.6289 Q594.8438,848.1914 594.125,847.9258 Q593.4063,847.6602 592.6875,847.6602 Q591.7813,847.6602 591.0313,848.0508 Q590.2813,848.4414 589.7031,849.332 Q589.125,850.207 589.125,851.4102 L589.125,852.707 Q589.125,854.1602 590.1719,855.1289 Q591.2344,856.0977 593.0938,856.0977 Q594.2031,856.0977 594.9844,855.7852 Q595.4219,855.6133 595.9375,855.0977 Q596.25,854.7852 596.4219,854.6914 Q596.5938,854.5977 596.8281,854.5977 Q597.2188,854.5977 597.5156,854.9102 Q597.8281,855.207 597.8281,855.6133 Q597.8281,856.0195 597.4219,856.4883 Q596.8281,857.1758 595.8906,857.5664 Q594.625,858.0977 593.1094,858.0977 Q591.3281,858.0977 589.9063,857.3633 Q588.75,856.7695 587.9375,855.5039 Q587.125,854.2383 587.125,852.7539 L587.125,851.3945 Q587.125,849.832 587.8438,848.4883 Q588.5781,847.1289 589.8594,846.3945 Q591.1563,845.6602 592.6094,845.6602 Q593.4688,845.6602 594.2188,845.8633 Q594.9844,846.0664 595.6406,846.4727 Z " fill="#000000"/><text fill="#000000" font-family="sans-serif" font-size="20" font-style="italic" lengthAdjust="spacing" textLength="136" x="633" y="847.1563">«Value Object»</text><text fill="#000000" font-family="sans-serif" font-size="20" lengthAdjust="spacing" textLength="185" x="608.5" y="872.3125">ShowDSLDescription</text><line style="stroke:#181818;stroke-width:0.5;" x1="578.5" x2="795.5" y1="881.707" y2="881.707"/><line style="stroke:#181818;stroke-width:0.5;" x1="578.5" x2="795.5" y1="889.707" y2="889.707"/></g><!--class GenerateShowDSL--><g id="elem_GenerateShowDSL"><rect codeLine="73" fill="#F1F1F1" height="76.3125" id="GenerateShowDSL" rx="2.5" ry="2.5" style="stroke:#181818;stroke-width:0.5;" width="204" x="542" y="331.3945"/><ellipse cx="558" cy="361.5508" fill="#ADD1B2" rx="12" ry="12" style="stroke:#181818;stroke-width:1.0;"/><path d="M560.1406,356.4727 Q560.3281,356.2227 560.5469,356.0977 Q560.7656,355.957 561.0156,355.957 Q561.4531,355.957 561.7344,356.2695 Q562.0156,356.5664 562.0156,357.2852 L562.0156,358.9883 Q562.0156,359.707 561.7344,360.0195 Q561.4531,360.332 561.0156,360.332 Q560.625,360.332 560.375,360.0977 Q560.125,359.8789 560.0156,359.2695 Q559.9531,358.8477 559.7344,358.6289 Q559.3438,358.1914 558.625,357.9258 Q557.9063,357.6602 557.1875,357.6602 Q556.2813,357.6602 555.5313,358.0508 Q554.7813,358.4414 554.2031,359.332 Q553.625,360.207 553.625,361.4102 L553.625,362.707 Q553.625,364.1602 554.6719,365.1289 Q555.7344,366.0977 557.5938,366.0977 Q558.7031,366.0977 559.4844,365.7852 Q559.9219,365.6133 560.4375,365.0977 Q560.75,364.7852 560.9219,364.6914 Q561.0938,364.5977 561.3281,364.5977 Q561.7188,364.5977 562.0156,364.9102 Q562.3281,365.207 562.3281,365.6133 Q562.3281,366.0195 561.9219,366.4883 Q561.3281,367.1758 560.3906,367.5664 Q559.125,368.0977 557.6094,368.0977 Q555.8281,368.0977 554.4063,367.3633 Q553.25,366.7695 552.4375,365.5039 Q551.625,364.2383 551.625,362.7539 L551.625,361.3945 Q551.625,359.832 552.3438,358.4883 Q553.0781,357.1289 554.3594,356.3945 Q555.6563,355.6602 557.1094,355.6602 Q557.9688,355.6602 558.7188,355.8633 Q559.4844,356.0664 560.1406,356.4727 Z " fill="#000000"/><text fill="#000000" font-family="sans-serif" font-size="20" font-style="italic" lengthAdjust="spacing" textLength="89" x="613.5" y="357.1563">«Service»</text><text fill="#000000" font-family="sans-serif" font-size="20" lengthAdjust="spacing" textLength="170" x="573" y="382.3125">GenerateShowDSL</text><line style="stroke:#181818;stroke-width:0.5;" x1="543" x2="745" y1="391.707" y2="391.707"/><line style="stroke:#181818;stroke-width:0.5;" x1="543" x2="745" y1="399.707" y2="399.707"/></g><!--class ProposalDeliveryInfo--><g id="elem_ProposalDeliveryInfo"><rect codeLine="103" fill="#F1F1F1" height="101.4688" id="ProposalDeliveryInfo" rx="2.5" ry="2.5" style="stroke:#181818;stroke-width:0.5;" width="215" x="68.5" y="75.8945"/><ellipse cx="84.5" cy="118.6289" fill="#ADD1B2" rx="12" ry="12" style="stroke:#181818;stroke-width:1.0;"/><path d="M86.6406,113.5508 Q86.8281,113.3008 87.0469,113.1758 Q87.2656,113.0352 87.5156,113.0352 Q87.9531,113.0352 88.2344,113.3477 Q88.5156,113.6445 88.5156,114.3633 L88.5156,116.0664 Q88.5156,116.7852 88.2344,117.0977 Q87.9531,117.4102 87.5156,117.4102 Q87.125,117.4102 86.875,117.1758 Q86.625,116.957 86.5156,116.3477 Q86.4531,115.9258 86.2344,115.707 Q85.8438,115.2695 85.125,115.0039 Q84.4063,114.7383 83.6875,114.7383 Q82.7813,114.7383 82.0313,115.1289 Q81.2813,115.5195 80.7031,116.4102 Q80.125,117.2852 80.125,118.4883 L80.125,119.7852 Q80.125,121.2383 81.1719,122.207 Q82.2344,123.1758 84.0938,123.1758 Q85.2031,123.1758 85.9844,122.8633 Q86.4219,122.6914 86.9375,122.1758 Q87.25,121.8633 87.4219,121.7695 Q87.5938,121.6758 87.8281,121.6758 Q88.2188,121.6758 88.5156,121.9883 Q88.8281,122.2852 88.8281,122.6914 Q88.8281,123.0977 88.4219,123.5664 Q87.8281,124.2539 86.8906,124.6445 Q85.625,125.1758 84.1094,125.1758 Q82.3281,125.1758 80.9063,124.4414 Q79.75,123.8477 78.9375,122.582 Q78.125,121.3164 78.125,119.832 L78.125,118.4727 Q78.125,116.9102 78.8438,115.5664 Q79.5781,114.207 80.8594,113.4727 Q82.1563,112.7383 83.6094,112.7383 Q84.4688,112.7383 85.2188,112.9414 Q85.9844,113.1445 86.6406,113.5508 Z " fill="#000000"/><text fill="#000000" font-family="sans-serif" font-size="20" font-style="italic" lengthAdjust="spacing" textLength="71" x="154.5" y="101.6563">«Entity»</text><text fill="#000000" font-family="sans-serif" font-size="20" font-style="italic" lengthAdjust="spacing" textLength="56" x="162" y="126.8125">«root»</text><text fill="#000000" font-family="sans-serif" font-size="20" lengthAdjust="spacing" textLength="181" x="99.5" y="151.9688">ProposalDeliveryInfo</text><line style="stroke:#181818;stroke-width:0.5;" x1="69.5" x2="282.5" y1="161.3633" y2="161.3633"/><line style="stroke:#181818;stroke-width:0.5;" x1="69.5" x2="282.5" y1="169.3633" y2="169.3633"/></g><!--class ProposalDeliveryInfoCode--><g id="elem_ProposalDeliveryInfoCode"><rect codeLine="106" fill="#F1F1F1" height="76.3125" id="ProposalDeliveryInfoCode" rx="2.5" ry="2.5" style="stroke:#181818;stroke-width:0.5;" width="262" x="22" y="331.3945"/><ellipse cx="38" cy="361.5508" fill="#ADD1B2" rx="12" ry="12" style="stroke:#181818;stroke-width:1.0;"/><path d="M40.1406,356.4727 Q40.3281,356.2227 40.5469,356.0977 Q40.7656,355.957 41.0156,355.957 Q41.4531,355.957 41.7344,356.2695 Q42.0156,356.5664 42.0156,357.2852 L42.0156,358.9883 Q42.0156,359.707 41.7344,360.0195 Q41.4531,360.332 41.0156,360.332 Q40.625,360.332 40.375,360.0977 Q40.125,359.8789 40.0156,359.2695 Q39.9531,358.8477 39.7344,358.6289 Q39.3438,358.1914 38.625,357.9258 Q37.9063,357.6602 37.1875,357.6602 Q36.2813,357.6602 35.5313,358.0508 Q34.7813,358.4414 34.2031,359.332 Q33.625,360.207 33.625,361.4102 L33.625,362.707 Q33.625,364.1602 34.6719,365.1289 Q35.7344,366.0977 37.5938,366.0977 Q38.7031,366.0977 39.4844,365.7852 Q39.9219,365.6133 40.4375,365.0977 Q40.75,364.7852 40.9219,364.6914 Q41.0938,364.5977 41.3281,364.5977 Q41.7188,364.5977 42.0156,364.9102 Q42.3281,365.207 42.3281,365.6133 Q42.3281,366.0195 41.9219,366.4883 Q41.3281,367.1758 40.3906,367.5664 Q39.125,368.0977 37.6094,368.0977 Q35.8281,368.0977 34.4063,367.3633 Q33.25,366.7695 32.4375,365.5039 Q31.625,364.2383 31.625,362.7539 L31.625,361.3945 Q31.625,359.832 32.3438,358.4883 Q33.0781,357.1289 34.3594,356.3945 Q35.6563,355.6602 37.1094,355.6602 Q37.9688,355.6602 38.7188,355.8633 Q39.4844,356.0664 40.1406,356.4727 Z " fill="#000000"/><text fill="#000000" font-family="sans-serif" font-size="20" font-style="italic" lengthAdjust="spacing" textLength="136" x="99" y="357.1563">«Value Object»</text><text fill="#000000" font-family="sans-serif" font-size="20" lengthAdjust="spacing" textLength="228" x="53" y="382.3125">ProposalDeliveryInfoCode</text><line style="stroke:#181818;stroke-width:0.5;" x1="23" x2="283" y1="391.707" y2="391.707"/><line style="stroke:#181818;stroke-width:0.5;" x1="23" x2="283" y1="399.707" y2="399.707"/></g><!--class Time--><g id="elem_Time"><rect codeLine="119" fill="#F1F1F1" height="76.3125" id="Time" rx="2.5" ry="2.5" style="stroke:#181818;stroke-width:0.5;" width="166" x="2972" y="1002.8945"/><ellipse cx="2988" cy="1033.0508" fill="#ADD1B2" rx="12" ry="12" style="stroke:#181818;stroke-width:1.0;"/><path d="M2990.1406,1027.9727 Q2990.3281,1027.7227 2990.5469,1027.5977 Q2990.7656,1027.457 2991.0156,1027.457 Q2991.4531,1027.457 2991.7344,1027.7695 Q2992.0156,1028.0664 2992.0156,1028.7852 L2992.0156,1030.4883 Q2992.0156,1031.207 2991.7344,1031.5195 Q2991.4531,1031.832 2991.0156,1031.832 Q2990.625,1031.832 2990.375,1031.5977 Q2990.125,1031.3789 2990.0156,1030.7695 Q2989.9531,1030.3477 2989.7344,1030.1289 Q2989.3438,1029.6914 2988.625,1029.4258 Q2987.9063,1029.1602 2987.1875,1029.1602 Q2986.2813,1029.1602 2985.5313,1029.5508 Q2984.7813,1029.9414 2984.2031,1030.832 Q2983.625,1031.707 2983.625,1032.9102 L2983.625,1034.207 Q2983.625,1035.6602 2984.6719,1036.6289 Q2985.7344,1037.5977 2987.5938,1037.5977 Q2988.7031,1037.5977 2989.4844,1037.2852 Q2989.9219,1037.1133 2990.4375,1036.5977 Q2990.75,1036.2852 2990.9219,1036.1914 Q2991.0938,1036.0977 2991.3281,1036.0977 Q2991.7188,1036.0977 2992.0156,1036.4102 Q2992.3281,1036.707 2992.3281,1037.1133 Q2992.3281,1037.5195 2991.9219,1037.9883 Q2991.3281,1038.6758 2990.3906,1039.0664 Q2989.125,1039.5977 2987.6094,1039.5977 Q2985.8281,1039.5977 2984.4063,1038.8633 Q2983.25,1038.2695 2982.4375,1037.0039 Q2981.625,1035.7383 2981.625,1034.2539 L2981.625,1032.8945 Q2981.625,1031.332 2982.3438,1029.9883 Q2983.0781,1028.6289 2984.3594,1027.8945 Q2985.6563,1027.1602 2987.1094,1027.1602 Q2987.9688,1027.1602 2988.7188,1027.3633 Q2989.4844,1027.5664 2990.1406,1027.9727 Z " fill="#000000"/><text fill="#000000" font-family="sans-serif" font-size="20" font-style="italic" lengthAdjust="spacing" textLength="136" x="3001" y="1028.6563">«Value Object»</text><text fill="#000000" font-family="sans-serif" font-size="20" lengthAdjust="spacing" textLength="43" x="3047.5" y="1053.8125">Time</text><line style="stroke:#181818;stroke-width:0.5;" x1="2973" x2="3137" y1="1063.207" y2="1063.207"/><line style="stroke:#181818;stroke-width:0.5;" x1="2973" x2="3137" y1="1071.207" y2="1071.207"/></g><!--class Date--><g id="elem_Date"><rect codeLine="122" fill="#F1F1F1" height="76.3125" id="Date" rx="2.5" ry="2.5" style="stroke:#181818;stroke-width:0.5;" width="166" x="3173" y="1002.8945"/><ellipse cx="3189" cy="1033.0508" fill="#ADD1B2" rx="12" ry="12" style="stroke:#181818;stroke-width:1.0;"/><path d="M3191.1406,1027.9727 Q3191.3281,1027.7227 3191.5469,1027.5977 Q3191.7656,1027.457 3192.0156,1027.457 Q3192.4531,1027.457 3192.7344,1027.7695 Q3193.0156,1028.0664 3193.0156,1028.7852 L3193.0156,1030.4883 Q3193.0156,1031.207 3192.7344,1031.5195 Q3192.4531,1031.832 3192.0156,1031.832 Q3191.625,1031.832 3191.375,1031.5977 Q3191.125,1031.3789 3191.0156,1030.7695 Q3190.9531,1030.3477 3190.7344,1030.1289 Q3190.3438,1029.6914 3189.625,1029.4258 Q3188.9063,1029.1602 3188.1875,1029.1602 Q3187.2813,1029.1602 3186.5313,1029.5508 Q3185.7813,1029.9414 3185.2031,1030.832 Q3184.625,1031.707 3184.625,1032.9102 L3184.625,1034.207 Q3184.625,1035.6602 3185.6719,1036.6289 Q3186.7344,1037.5977 3188.5938,1037.5977 Q3189.7031,1037.5977 3190.4844,1037.2852 Q3190.9219,1037.1133 3191.4375,1036.5977 Q3191.75,1036.2852 3191.9219,1036.1914 Q3192.0938,1036.0977 3192.3281,1036.0977 Q3192.7188,1036.0977 3193.0156,1036.4102 Q3193.3281,1036.707 3193.3281,1037.1133 Q3193.3281,1037.5195 3192.9219,1037.9883 Q3192.3281,1038.6758 3191.3906,1039.0664 Q3190.125,1039.5977 3188.6094,1039.5977 Q3186.8281,1039.5977 3185.4063,1038.8633 Q3184.25,1038.2695 3183.4375,1037.0039 Q3182.625,1035.7383 3182.625,1034.2539 L3182.625,1032.8945 Q3182.625,1031.332 3183.3438,1029.9883 Q3184.0781,1028.6289 3185.3594,1027.8945 Q3186.6563,1027.1602 3188.1094,1027.1602 Q3188.9688,1027.1602 3189.7188,1027.3633 Q3190.4844,1027.5664 3191.1406,1027.9727 Z " fill="#000000"/><text fill="#000000" font-family="sans-serif" font-size="20" font-style="italic" lengthAdjust="spacing" textLength="136" x="3202" y="1028.6563">«Value Object»</text><text fill="#000000" font-family="sans-serif" font-size="20" lengthAdjust="spacing" textLength="42" x="3249" y="1053.8125">Date</text><line style="stroke:#181818;stroke-width:0.5;" x1="3174" x2="3338" y1="1063.207" y2="1063.207"/><line style="stroke:#181818;stroke-width:0.5;" x1="3174" x2="3338" y1="1071.207" y2="1071.207"/></g><!--class Duration--><g id="elem_Duration"><rect codeLine="125" fill="#F1F1F1" height="76.3125" id="Duration" rx="2.5" ry="2.5" style="stroke:#181818;stroke-width:0.5;" width="166" x="2544" y="1002.8945"/><ellipse cx="2560" cy="1033.0508" fill="#ADD1B2" rx="12" ry="12" style="stroke:#181818;stroke-width:1.0;"/><path d="M2562.1406,1027.9727 Q2562.3281,1027.7227 2562.5469,1027.5977 Q2562.7656,1027.457 2563.0156,1027.457 Q2563.4531,1027.457 2563.7344,1027.7695 Q2564.0156,1028.0664 2564.0156,1028.7852 L2564.0156,1030.4883 Q2564.0156,1031.207 2563.7344,1031.5195 Q2563.4531,1031.832 2563.0156,1031.832 Q2562.625,1031.832 2562.375,1031.5977 Q2562.125,1031.3789 2562.0156,1030.7695 Q2561.9531,1030.3477 2561.7344,1030.1289 Q2561.3438,1029.6914 2560.625,1029.4258 Q2559.9063,1029.1602 2559.1875,1029.1602 Q2558.2813,1029.1602 2557.5313,1029.5508 Q2556.7813,1029.9414 2556.2031,1030.832 Q2555.625,1031.707 2555.625,1032.9102 L2555.625,1034.207 Q2555.625,1035.6602 2556.6719,1036.6289 Q2557.7344,1037.5977 2559.5938,1037.5977 Q2560.7031,1037.5977 2561.4844,1037.2852 Q2561.9219,1037.1133 2562.4375,1036.5977 Q2562.75,1036.2852 2562.9219,1036.1914 Q2563.0938,1036.0977 2563.3281,1036.0977 Q2563.7188,1036.0977 2564.0156,1036.4102 Q2564.3281,1036.707 2564.3281,1037.1133 Q2564.3281,1037.5195 2563.9219,1037.9883 Q2563.3281,1038.6758 2562.3906,1039.0664 Q2561.125,1039.5977 2559.6094,1039.5977 Q2557.8281,1039.5977 2556.4063,1038.8633 Q2555.25,1038.2695 2554.4375,1037.0039 Q2553.625,1035.7383 2553.625,1034.2539 L2553.625,1032.8945 Q2553.625,1031.332 2554.3438,1029.9883 Q2555.0781,1028.6289 2556.3594,1027.8945 Q2557.6563,1027.1602 2559.1094,1027.1602 Q2559.9688,1027.1602 2560.7188,1027.3633 Q2561.4844,1027.5664 2562.1406,1027.9727 Z " fill="#000000"/><text fill="#000000" font-family="sans-serif" font-size="20" font-style="italic" lengthAdjust="spacing" textLength="136" x="2573" y="1028.6563">«Value Object»</text><text fill="#000000" font-family="sans-serif" font-size="20" lengthAdjust="spacing" textLength="73" x="2604.5" y="1053.8125">Duration</text><line style="stroke:#181818;stroke-width:0.5;" x1="2545" x2="2709" y1="1063.207" y2="1063.207"/><line style="stroke:#181818;stroke-width:0.5;" x1="2545" x2="2709" y1="1071.207" y2="1071.207"/></g><!--class QuantityOfDrones--><g id="elem_QuantityOfDrones"><rect codeLine="128" fill="#F1F1F1" height="76.3125" id="QuantityOfDrones" rx="2.5" ry="2.5" style="stroke:#181818;stroke-width:0.5;" width="192" x="2745" y="1002.8945"/><ellipse cx="2761" cy="1033.0508" fill="#ADD1B2" rx="12" ry="12" style="stroke:#181818;stroke-width:1.0;"/><path d="M2763.1406,1027.9727 Q2763.3281,1027.7227 2763.5469,1027.5977 Q2763.7656,1027.457 2764.0156,1027.457 Q2764.4531,1027.457 2764.7344,1027.7695 Q2765.0156,1028.0664 2765.0156,1028.7852 L2765.0156,1030.4883 Q2765.0156,1031.207 2764.7344,1031.5195 Q2764.4531,1031.832 2764.0156,1031.832 Q2763.625,1031.832 2763.375,1031.5977 Q2763.125,1031.3789 2763.0156,1030.7695 Q2762.9531,1030.3477 2762.7344,1030.1289 Q2762.3438,1029.6914 2761.625,1029.4258 Q2760.9063,1029.1602 2760.1875,1029.1602 Q2759.2813,1029.1602 2758.5313,1029.5508 Q2757.7813,1029.9414 2757.2031,1030.832 Q2756.625,1031.707 2756.625,1032.9102 L2756.625,1034.207 Q2756.625,1035.6602 2757.6719,1036.6289 Q2758.7344,1037.5977 2760.5938,1037.5977 Q2761.7031,1037.5977 2762.4844,1037.2852 Q2762.9219,1037.1133 2763.4375,1036.5977 Q2763.75,1036.2852 2763.9219,1036.1914 Q2764.0938,1036.0977 2764.3281,1036.0977 Q2764.7188,1036.0977 2765.0156,1036.4102 Q2765.3281,1036.707 2765.3281,1037.1133 Q2765.3281,1037.5195 2764.9219,1037.9883 Q2764.3281,1038.6758 2763.3906,1039.0664 Q2762.125,1039.5977 2760.6094,1039.5977 Q2758.8281,1039.5977 2757.4063,1038.8633 Q2756.25,1038.2695 2755.4375,1037.0039 Q2754.625,1035.7383 2754.625,1034.2539 L2754.625,1032.8945 Q2754.625,1031.332 2755.3438,1029.9883 Q2756.0781,1028.6289 2757.3594,1027.8945 Q2758.6563,1027.1602 2760.1094,1027.1602 Q2760.9688,1027.1602 2761.7188,1027.3633 Q2762.4844,1027.5664 2763.1406,1027.9727 Z " fill="#000000"/><text fill="#000000" font-family="sans-serif" font-size="20" font-style="italic" lengthAdjust="spacing" textLength="136" x="2787" y="1028.6563">«Value Object»</text><text fill="#000000" font-family="sans-serif" font-size="20" lengthAdjust="spacing" textLength="158" x="2776" y="1053.8125">QuantityOfDrones</text><line style="stroke:#181818;stroke-width:0.5;" x1="2746" x2="2936" y1="1063.207" y2="1063.207"/><line style="stroke:#181818;stroke-width:0.5;" x1="2746" x2="2936" y1="1071.207" y2="1071.207"/></g><!--link ShowProposal to CustomerFeedback--><g id="link_ShowProposal_CustomerFeedback"><path codeLine="77" d="M2128.07,390.3645 C2093.38,402.7545 2055.13,422.1645 2030,451.8945 C2001.7,485.3645 1991.83,535.5745 1988.49,571.1145 " fill="none" id="ShowProposal-to-CustomerFeedback" style="stroke:#181818;stroke-width:1.0;"/><polygon fill="#181818" points="1988.04,576.2445,1992.8206,567.6337,1988.4824,571.2641,1984.852,566.9259,1988.04,576.2445" style="stroke:#181818;stroke-width:1.0;"/><text fill="#000000" font-family="sans-serif" font-size="20" lengthAdjust="spacing" textLength="168" x="2031" y="473.6563">customerFeedback</text><text fill="#000000" font-family="sans-serif" font-size="20" lengthAdjust="spacing" textLength="11" x="1976.3292" y="563.9215">1</text></g><!--link ShowProposal to CRMCollaborator--><g id="link_ShowProposal_CRMCollaborator"><path codeLine="78" d="M2289.72,370.0745 C2477.44,370.5745 2937.49,379.4045 3071,451.8945 C3094.48,464.6445 3134.14,517.4945 3163.1,559.3145 " fill="none" id="ShowProposal-to-CRMCollaborator" style="stroke:#181818;stroke-width:1.0;"/><polygon fill="#181818" points="3166.05,563.5845,3164.2403,553.9034,3163.2143,559.4664,3157.6513,558.4404,3166.05,563.5845" style="stroke:#181818;stroke-width:1.0;"/><text fill="#000000" font-family="sans-serif" font-size="20" lengthAdjust="spacing" textLength="94" x="3100" y="473.6563">created by</text><text fill="#000000" font-family="sans-serif" font-size="20" lengthAdjust="spacing" textLength="11" x="3150.3639" y="551.6113">1</text></g><!--link ShowProposal to CRMManager--><g id="link_ShowProposal_CRMManager"><path codeLine="79" d="M2253.44,420.1545 C2289.71,460.7745 2340.88,518.0745 2378.07,559.7145 " fill="none" id="ShowProposal-to-CRMManager" style="stroke:#181818;stroke-width:1.0;"/><polygon fill="#181818" points="2381.62,563.7045,2378.6103,554.3268,2378.2902,559.9746,2372.6424,559.6545,2381.62,563.7045" style="stroke:#181818;stroke-width:1.0;"/><text fill="#000000" font-family="sans-serif" font-size="20" lengthAdjust="spacing" textLength="200" x="2305" y="473.6563">template configured by</text><text fill="#000000" font-family="sans-serif" font-size="20" lengthAdjust="spacing" textLength="11" x="2364.2291" y="551.35">1</text></g><!--link ShowProposal to ShowRequest--><g id="link_ShowProposal_ShowRequest"><path codeLine="80" d="M2289.65,377.6545 C2354.75,386.7045 2446.33,406.9145 2514,451.8945 C2554.72,478.9545 2587.84,523.7245 2609.73,559.2745 " fill="none" id="ShowProposal-to-ShowRequest" style="stroke:#181818;stroke-width:1.0;"/><polygon fill="#181818" points="2612.35,563.5545,2611.0873,553.787,2609.7503,559.2835,2604.2537,557.9465,2612.35,563.5545" style="stroke:#181818;stroke-width:1.0;"/><text fill="#000000" font-family="sans-serif" font-size="20" lengthAdjust="spacing" textLength="81" x="2545" y="473.6563">based on</text><text fill="#000000" font-family="sans-serif" font-size="20" lengthAdjust="spacing" textLength="11" x="2597.4317" y="551.5776">1</text></g><!--link ShowProposal to ShowProposalStatus--><g id="link_ShowProposal_ShowProposalStatus"><path codeLine="81" d="M2128.36,372.3145 C2000.36,377.0845 1743.78,393.7545 1535,451.8945 C1506.83,459.7345 1503.22,471.2245 1475,478.8945 C1443.08,487.5645 1430.82,472.5745 1401,486.8945 C1361.18,506.0045 1326.65,543.0345 1303.86,572.1145 " fill="none" id="ShowProposal-to-ShowProposalStatus" style="stroke:#181818;stroke-width:1.0;"/><polygon fill="#181818" points="1300.59,576.3445,1309.2682,571.6874,1303.6558,572.3947,1302.9485,566.7822,1300.59,576.3445" style="stroke:#181818;stroke-width:1.0;"/><text fill="#000000" font-family="sans-serif" font-size="20" lengthAdjust="spacing" textLength="132" x="1536" y="473.6563">proposalStatus</text><text fill="#000000" font-family="sans-serif" font-size="20" lengthAdjust="spacing" textLength="11" x="1292.7918" y="564.0374">1</text></g><!--link ShowProposal to ShowProposalDocument--><g id="link_ShowProposal_ShowProposalDocument"><path codeLine="82" d="M2128.18,372.2645 C1946.97,377.4345 1513.65,395.4745 1380,451.8945 C1362.86,459.1345 1365.35,472.1545 1348,478.8945 C1306.75,494.9245 1190.04,470.3145 1149,486.8945 C1104.91,504.7045 1065.48,542.5245 1039.43,572.1845 " fill="none" id="ShowProposal-to-ShowProposalDocument" style="stroke:#181818;stroke-width:1.0;"/><polygon fill="#181818" points="1036,576.1345,1044.9189,571.9569,1039.2763,572.3575,1038.8757,566.7149,1036,576.1345" style="stroke:#181818;stroke-width:1.0;"/><text fill="#000000" font-family="sans-serif" font-size="20" lengthAdjust="spacing" textLength="85" x="1381" y="473.6563">document</text><text fill="#000000" font-family="sans-serif" font-size="20" lengthAdjust="spacing" textLength="11" x="1028.5984" y="564.1117">1</text></g><!--link ShowProposal to ShowProposalNumber--><g id="link_ShowProposal_ShowProposalNumber"><path codeLine="83" d="M2128.34,375.3245 C2030.8,383.2445 1862.81,403.2045 1727,451.8945 C1660.86,475.6045 1601.47,532.9645 1566.32,572.5245 " fill="none" id="ShowProposal-to-ShowProposalNumber" style="stroke:#181818;stroke-width:1.0;"/><polygon fill="#181818" points="1563,576.2945,1571.9524,572.1891,1566.3067,572.5441,1565.9517,566.8984,1563,576.2945" style="stroke:#181818;stroke-width:1.0;"/><text fill="#000000" font-family="sans-serif" font-size="20" lengthAdjust="spacing" textLength="144" x="1728" y="473.6563">proposalNumber</text><text fill="#000000" font-family="sans-serif" font-size="20" lengthAdjust="spacing" textLength="11" x="1555.9047" y="563.9794">1</text></g><!--link ShowProposal to Insurance--><g id="link_ShowProposal_Insurance"><path codeLine="84" d="M2128.33,379.1245 C2052.35,391.2745 1939.64,419.9345 1867,486.8945 C1839.25,512.4745 1812.81,546.0345 1793.95,572.1645 " fill="none" id="ShowProposal-to-Insurance" style="stroke:#181818;stroke-width:1.0;"/><polygon fill="#181818" points="1790.99,576.2845,1799.4893,571.3085,1793.907,572.2236,1792.9919,566.6413,1790.99,576.2845" style="stroke:#181818;stroke-width:1.0;"/><text fill="#000000" font-family="sans-serif" font-size="20" lengthAdjust="spacing" textLength="83" x="1914" y="473.6563">insurance</text><text fill="#000000" font-family="sans-serif" font-size="20" lengthAdjust="spacing" textLength="11" x="1783.0962" y="563.9678">1</text></g><!--link ShowProposal to ShowConfiguration--><g id="link_ShowProposal_ShowConfiguration"><path codeLine="85" d="M2128.19,370.4445 C1916.24,371.5745 1348.85,381.2845 1177,451.8945 C1159.79,458.9645 1162.38,472.2545 1145,478.8945 C1115.92,489.9945 893.34,474.0245 865,486.8945 C825.93,504.6445 793.91,542.2245 773.31,571.8345 " fill="none" id="ShowProposal-to-ShowConfiguration" style="stroke:#181818;stroke-width:1.0;"/><polygon fill="#181818" points="770.35,576.1345,778.7449,570.9843,773.1826,572.0143,772.1526,566.452,770.35,576.1345" style="stroke:#181818;stroke-width:1.0;"/><text fill="#000000" font-family="sans-serif" font-size="20" lengthAdjust="spacing" textLength="161" x="1178" y="473.6563">showConfiguration</text><text fill="#000000" font-family="sans-serif" font-size="20" lengthAdjust="spacing" textLength="11" x="761.9302" y="564.1117">1</text></g><!--link ShowProposal to Video--><g id="link_ShowProposal_Video"><path codeLine="86" d="M2208.8,420.1545 C2208.61,464.7245 2208.35,529.3445 2208.17,571.3745 " fill="none" id="ShowProposal-to-Video" style="stroke:#181818;stroke-width:1.0;"/><polygon fill="#181818" points="2208.15,576.3845,2212.2014,567.4075,2208.1786,571.3846,2204.2015,567.3618,2208.15,576.3845" style="stroke:#181818;stroke-width:1.0;"/><text fill="#000000" font-family="sans-serif" font-size="20" lengthAdjust="spacing" textLength="46" x="2209" y="473.6563">video</text><text fill="#000000" font-family="sans-serif" font-size="20" lengthAdjust="spacing" textLength="11" x="2196.2973" y="564.0838">1</text></g><!--link GenerateShowDSL to ShowConfiguration--><g id="link_GenerateShowDSL_ShowConfiguration"><path codeLine="89" d="M659.91,407.5645 C678.83,451.7845 710.34,525.4045 730.1,571.5745 " fill="none" id="GenerateShowDSL-to-ShowConfiguration" style="stroke:#181818;stroke-width:1.0;stroke-dasharray:7.0,7.0;"/><polygon fill="#181818" points="732.09,576.2245,732.2102,566.3764,730.1152,571.631,724.8606,569.536,732.09,576.2245" style="stroke:#181818;stroke-width:1.0;"/><text fill="#000000" font-family="sans-serif" font-size="20" lengthAdjust="spacing" textLength="41" x="690" y="473.6563">uses</text></g><!--link GenerateShowDSL to ShowDSLDescription--><g id="link_GenerateShowDSL_ShowDSLDescription"><path codeLine="90" d="M612.24,407.5145 C595.85,429.1445 577.55,457.8145 569,486.8945 C543.67,573.0245 542.12,603.2345 569,688.8945 C584.42,738.0445 619.7,785.4045 647.68,817.5145 " fill="none" id="GenerateShowDSL-to-ShowDSLDescription" style="stroke:#181818;stroke-width:1.0;"/><polygon fill="#181818" points="651.06,821.3545,648.1261,811.9528,647.7604,817.5978,642.1154,817.2322,651.06,821.3545" style="stroke:#181818;stroke-width:1.0;"/><text fill="#000000" font-family="sans-serif" font-size="20" lengthAdjust="spacing" textLength="61" x="570" y="622.6563">returns</text></g><!--link ProposalDocumentGenerator to ShowProposalDocument--><g id="link_ProposalDocumentGenerator_ShowProposalDocument"><path codeLine="93" d="M946.8,407.4245 C944.86,428.5745 944.16,455.4545 949,478.8945 C955.7,511.3645 970.62,545.6545 983.65,571.4745 " fill="none" id="ProposalDocumentGenerator-to-ShowProposalDocument" style="stroke:#181818;stroke-width:1.0;stroke-dasharray:7.0,7.0;"/><polygon fill="#181818" points="986.06,576.2045,985.5374,566.3695,983.7897,571.7497,978.4096,570.002,986.06,576.2045" style="stroke:#181818;stroke-width:1.0;"/><text fill="#000000" font-family="sans-serif" font-size="20" lengthAdjust="spacing" textLength="190" x="950" y="473.6563">validates &amp; generates</text><text fill="#000000" font-family="sans-serif" font-size="20" lengthAdjust="spacing" textLength="11" x="970.8461" y="563.8751">1</text></g><!--link ShowConfiguration to Model--><g id="link_ShowConfiguration_Model"><path codeLine="96" d="M794.41,652.5445 C814.83,666.6945 839.87,681.2445 865,688.8945 C941.68,712.2245 2236.23,694.2845 2307,731.8945 C2336.36,747.4945 2358.5,777.2745 2373.59,804.0145 " fill="none" id="ShowConfiguration-to-Model" style="stroke:#181818;stroke-width:1.0;"/><polygon fill="#181818" points="2376.14,808.6245,2375.2904,798.8124,2373.7227,804.2477,2368.2874,802.68,2376.14,808.6245" style="stroke:#181818;stroke-width:1.0;"/><text fill="#000000" font-family="sans-serif" font-size="20" lengthAdjust="spacing" textLength="63" x="2268" y="718.6563">models</text><text fill="#000000" font-family="sans-serif" font-size="20" lengthAdjust="spacing" textLength="31" x="2340.5868" y="796.6562">1..*</text></g><!--link ShowConfiguration to Figure--><g id="link_ShowConfiguration_Figure"><path codeLine="97" d="M689.63,652.5345 C668.75,664.9845 644.75,678.3645 622,688.8945 C569.83,713.0445 546.01,697.4245 500,731.8945 C474.42,751.0645 453.06,779.4845 437.48,804.5345 " fill="none" id="ShowConfiguration-to-Figure" style="stroke:#181818;stroke-width:1.0;"/><polygon fill="#181818" points="434.84,808.8545,442.95,803.2663,437.4501,804.5899,436.1265,799.0901,434.84,808.8545" style="stroke:#181818;stroke-width:1.0;"/><text fill="#000000" font-family="sans-serif" font-size="20" lengthAdjust="spacing" textLength="59" x="602" y="718.6563">figures</text><text fill="#000000" font-family="sans-serif" font-size="20" lengthAdjust="spacing" textLength="31" x="440.1367" y="796.5192">1..*</text></g><!--link ShowConfiguration to ShowDSLDescription--><g id="link_ShowConfiguration_ShowDSLDescription"><path codeLine="98" d="M738.67,652.5645 C727.59,696.6945 709.16,770.1045 697.57,816.2945 " fill="none" id="ShowConfiguration-to-ShowDSLDescription" style="stroke:#181818;stroke-width:1.0;"/><polygon fill="#181818" points="696.33,821.2245,702.3988,813.4676,697.546,816.3747,694.639,811.5219,696.33,821.2245" style="stroke:#181818;stroke-width:1.0;"/><text fill="#000000" font-family="sans-serif" font-size="20" lengthAdjust="spacing" textLength="182" x="727" y="718.6563">showDSLDescription</text><text fill="#000000" font-family="sans-serif" font-size="20" lengthAdjust="spacing" textLength="34" x="661.1076" y="808.8983">0..1</text></g><!--link ProposalDeliveryInfo to ShowProposal--><g id="link_ProposalDeliveryInfo_ShowProposal"><path codeLine="110" d="M283.51,140.1345 C642.85,182.7345 1797.81,319.6545 2123.04,358.2045 " fill="none" id="ProposalDeliveryInfo-to-ShowProposal" style="stroke:#181818;stroke-width:1.0;"/><polygon fill="#181818" points="2128.24,358.8245,2119.7698,353.7989,2123.2743,358.2395,2118.8338,361.744,2128.24,358.8245" style="stroke:#181818;stroke-width:1.0;"/><text fill="#000000" font-family="sans-serif" font-size="20" lengthAdjust="spacing" textLength="76" x="1071" y="228.6563">proposal</text><text fill="#000000" font-family="sans-serif" font-size="20" lengthAdjust="spacing" textLength="11" x="2109.5575" y="352.5177">1</text></g><!--link ProposalDeliveryInfo to CRMCollaborator--><g id="link_ProposalDeliveryInfo_CRMCollaborator"><path codeLine="111" d="M283.54,130.6545 C658.91,142.4445 1909.74,185.1245 2307,241.8945 C2711.9,299.7545 2948.92,131.3745 3203,451.8945 C3226.41,481.4345 3224.14,524.4645 3216.7,558.6845 " fill="none" id="ProposalDeliveryInfo-to-CRMCollaborator" style="stroke:#181818;stroke-width:1.0;"/><polygon fill="#181818" points="3215.57,563.6645,3221.4541,555.7666,3216.6713,558.7873,3213.6506,554.0045,3215.57,563.6645" style="stroke:#181818;stroke-width:1.0;"/><text fill="#000000" font-family="sans-serif" font-size="20" lengthAdjust="spacing" textLength="64" x="3195" y="377.6563">sent by</text><text fill="#000000" font-family="sans-serif" font-size="20" lengthAdjust="spacing" textLength="11" x="3205.9883" y="551.3049">1</text></g><!--link ProposalDeliveryInfo to Customer--><g id="link_ProposalDeliveryInfo_Customer"><path codeLine="112" d="M233.33,176.9145 C254.95,196.4445 279.29,219.5345 300,241.8945 C321.22,264.8045 342.93,291.7645 360.68,314.9045 " fill="none" id="ProposalDeliveryInfo-to-Customer" style="stroke:#181818;stroke-width:1.0;"/><polygon fill="#181818" points="363.72,318.8745,361.4432,309.2925,360.6881,314.8987,355.0818,314.1436,363.72,318.8745" style="stroke:#181818;stroke-width:1.0;"/><text fill="#000000" font-family="sans-serif" font-size="20" lengthAdjust="spacing" textLength="81" x="292" y="228.6563">customer</text><text fill="#000000" font-family="sans-serif" font-size="20" lengthAdjust="spacing" textLength="11" x="347.3669" y="306.5418">1</text></g><!--link ProposalDeliveryInfo to ProposalDeliveryInfoCode--><g id="link_ProposalDeliveryInfo_ProposalDeliveryInfoCode"><path codeLine="113" d="M171.26,177.0345 C167.08,220.9045 161.03,284.2145 157.06,325.8145 " fill="none" id="ProposalDeliveryInfo-to-ProposalDeliveryInfoCode" style="stroke:#181818;stroke-width:1.0;"/><polygon fill="#181818" points="156.57,331.0345,161.4018,322.4523,157.042,326.0569,153.4375,321.6971,156.57,331.0345" style="stroke:#181818;stroke-width:1.0;"/><text fill="#000000" font-family="sans-serif" font-size="20" lengthAdjust="spacing" textLength="43" x="169" y="228.6563">code</text><text fill="#000000" font-family="sans-serif" font-size="20" lengthAdjust="spacing" textLength="11" x="145.2745" y="318.9963">1</text></g><!--link ShowProposal to QuantityOfDrones--><g id="link_ShowProposal_QuantityOfDrones"><path codeLine="132" d="M2258.09,420.0845 C2270.47,429.7545 2284.42,438.5345 2299,443.8945 C2341.45,459.4945 2661.97,441.5545 2706,451.8945 C2741.42,460.2145 2758.88,457.2745 2780,486.8945 C2838.31,568.6645 2842.14,882.4745 2841.52,997.4045 " fill="none" id="ShowProposal-to-QuantityOfDrones" style="stroke:#181818;stroke-width:1.0;"/><polygon fill="#181818" points="2841.49,1002.7245,2845.5414,993.7475,2841.5186,997.7246,2837.5415,993.7018,2841.49,1002.7245" style="stroke:#181818;stroke-width:1.0;"/><text fill="#000000" font-family="sans-serif" font-size="20" lengthAdjust="spacing" textLength="98" x="2833" y="718.6563">qnt_drones</text><text fill="#000000" font-family="sans-serif" font-size="20" lengthAdjust="spacing" textLength="11" x="2829.6915" y="990.3983">1</text></g><!--link ShowProposal to Time--><g id="link_ShowProposal_Time"><path codeLine="133" d="M2258.08,420.1145 C2270.46,429.7745 2284.41,438.5545 2299,443.8945 C2347.63,461.7045 2714.9,438.8045 2765,451.8945 C2796.75,460.1845 2806.93,463.5645 2830,486.8945 C2977.8,636.3945 3032.64,896.1345 3049.04,997.5845 " fill="none" id="ShowProposal-to-Time" style="stroke:#181818;stroke-width:1.0;"/><polygon fill="#181818" points="3049.84,1002.5845,3052.3507,993.0611,3049.0411,997.6488,3044.4534,994.3392,3049.84,1002.5845" style="stroke:#181818;stroke-width:1.0;"/><text fill="#000000" font-family="sans-serif" font-size="20" lengthAdjust="spacing" textLength="108" x="2976" y="718.6563">timeOfShow</text><text fill="#000000" font-family="sans-serif" font-size="20" lengthAdjust="spacing" textLength="11" x="3037.2077" y="990.554">1</text></g><!--link ShowProposal to Date--><g id="link_ShowProposal_Date"><path codeLine="134" d="M2258.07,420.1345 C2270.45,429.7945 2284.41,438.5645 2299,443.8945 C2326.14,453.8045 2790.55,446.8745 2819,451.8945 C2865.79,460.1445 2881.03,459.7145 2920,486.8945 C3018.95,555.9145 3027.29,595.0745 3092,696.8945 C3157.17,799.4445 3213.41,931.8645 3239.87,998.1745 " fill="none" id="ShowProposal-to-Date" style="stroke:#181818;stroke-width:1.0;"/><polygon fill="#181818" points="3241.73,1002.8345,3242.1014,992.9927,3239.873,998.1921,3234.6736,995.9638,3241.73,1002.8345" style="stroke:#181818;stroke-width:1.0;"/><text fill="#000000" font-family="sans-serif" font-size="20" lengthAdjust="spacing" textLength="110" x="3109" y="718.6563">dateOfShow</text><text fill="#000000" font-family="sans-serif" font-size="20" lengthAdjust="spacing" textLength="11" x="3227.5792" y="990.5258">1</text></g><!--link ShowProposal to Duration--><g id="link_ShowProposal_Duration"><path codeLine="135" d="M2258.1,420.0445 C2270.48,429.7045 2284.43,438.5045 2299,443.8945 C2334.02,456.8545 2598.28,445.0845 2635,451.8945 C2680.47,460.3345 2706.36,449.0845 2733,486.8945 C2784.72,560.2845 2793.16,622.2545 2733,688.8945 C2721.32,701.8245 2667.19,684.4445 2655,696.8945 C2576.2,777.3445 2598.26,925.2545 2615.37,997.6845 " fill="none" id="ShowProposal-to-Duration" style="stroke:#181818;stroke-width:1.0;"/><polygon fill="#181818" points="2616.59,1002.7645,2618.3749,993.0788,2615.421,997.9031,2610.5966,994.9492,2616.59,1002.7645" style="stroke:#181818;stroke-width:1.0;"/><text fill="#000000" font-family="sans-serif" font-size="20" lengthAdjust="spacing" textLength="141" x="2656" y="718.6563">durationOfShow</text><text fill="#000000" font-family="sans-serif" font-size="20" lengthAdjust="spacing" textLength="11" x="2603.0543" y="990.4446">1</text></g><!--link ProposalDeliveryInfo to Date--><g id="link_ProposalDeliveryInfo_Date"><path codeLine="138" d="M283.9,128.7945 C815.21,136.0045 3133.19,171.3945 3268,241.8945 C3330.31,274.4745 3363,298.0845 3363,368.3945 C3363,368.3945 3363,368.3945 3363,860.3945 C3363,913.5645 3327.94,964.6745 3297.96,998.6645 " fill="none" id="ProposalDeliveryInfo-to-Date" style="stroke:#181818;stroke-width:1.0;"/><polygon fill="#181818" points="3294.33,1002.7245,3303.3076,998.6745,3297.6598,998.9946,3297.3397,993.3468,3294.33,1002.7245" style="stroke:#181818;stroke-width:1.0;"/><text fill="#000000" font-family="sans-serif" font-size="20" lengthAdjust="spacing" textLength="98" x="3364" y="622.6563">deliveredAt</text><text fill="#000000" font-family="sans-serif" font-size="20" lengthAdjust="spacing" textLength="11" x="3288.5623" y="990.3983">1</text></g><!--SRC=[fLPBZvim4BxdLunow4gLYhOzeYXIbJJLIatJRggzhWnCiZHWitwaJLVxtsl08PY0SLKEOEplcndcYJYaj22Sv1cB3vX0WZkYChbYL6xJFmWVRYUJWiG7iaUOBfIGB4SEKvZDo7xFSKyapkVmCfc0lkAC204DQZRxH6KgJnemct76v7p-Kk5U9vFNjjZxzO9b6OaO9vADIU-07KewEc1Dg5wFop_ZF4MlMOBPPhVaZA9RTeNqTiigtIi-8j5WF2tTFh5Vz_YiKCYkM4jg6-SMRSl-nbd11Ca6X2DLERHnMqca4XhxG3A5i8b-OjpsXcrH8ztbm7xAaiKgHoh_LTLNbKTL8eooxgXGdD0OVS3d2baX9f5seAzP2qPtPS29J1bjkQ47_f0co7paTbtq6IcUAskB_9Z6TTBr6hJSVbcYY7bQ68jiTNqq8nyDVLZBZHNpTtFuNMtRktfx-dvwvT0GuiwEWsit54tbgErB83evIQPBX20nBpBDWDY4PuJRgguG8Y8qd54tt2wO40hhtOzx3d08YLdvyUeQkEYituUvJIM4a9wNRarMMeSWkbl3x2hBGpYM3vCrtVng4gTx40JpFkrAeEZ5bpglSpu4Zb9nAepwuN9g31c6b2ODX-r8iZJH1Wbu0tjZd6ZLYjqTh8Bf75NU2uAtqteYXP2N3p4EhyTD27MQEmctGM2-fEimSRLd3Qdcmp5BZyXFTtJ7t4Emb-4t9Fge2-sCaLPsqwloEiBMQKzjNQfgd7VLfqGvq4oZSJDDBxnqnN7Ea6Eq37stVbIsJwHiULP8VgIvroHSbdtJ1tSPUgFOxufKaJU_P2F_5tvZvkoMhkmGdgbyJAgrYrVwGqyAVT_iIeWBM_f4Dsbzzy0sVIinAyFvZpJjs54VOl9Hwg3_1G00]--></g></svg>