<?xml version="1.0" encoding="UTF-8" standalone="no"?><svg xmlns="http://www.w3.org/2000/svg" xmlns:xlink="http://www.w3.org/1999/xlink" contentStyleType="text/css" height="1113px" preserveAspectRatio="none" style="width:2291px;height:1113px;background:#FFFFFF;" version="1.1" viewBox="0 0 2291 1113" width="2291px" zoomAndPan="magnify"><defs/><g><!--cluster Customer --><g id="cluster_Customer "><path d="M510.5,505.3945 L609.5,505.3945 A3.75,3.75 0 0 1 612,507.8945 L619,536.5508 L657.5,536.5508 A2.5,2.5 0 0 1 660,539.0508 L660,663.8945 A2.5,2.5 0 0 1 657.5,666.3945 L510.5,666.3945 A2.5,2.5 0 0 1 508,663.8945 L508,507.8945 A2.5,2.5 0 0 1 510.5,505.3945 " fill="none" style="stroke:#000000;stroke-width:1.5;"/><line style="stroke:#000000;stroke-width:1.5;" x1="508" x2="619" y1="536.5508" y2="536.5508"/><text fill="#000000" font-family="sans-serif" font-size="20" font-weight="bold" lengthAdjust="spacing" textLength="92" x="512" y="528.1563">Customer</text></g><!--cluster Figure --><g id="cluster_Figure "><path d="M8.5,6.8945 L75.5,6.8945 A3.75,3.75 0 0 1 78,9.3945 L85,38.0508 L1168.5,38.0508 A2.5,2.5 0 0 1 1171,40.5508 L1171,420.8945 A2.5,2.5 0 0 1 1168.5,423.3945 L8.5,423.3945 A2.5,2.5 0 0 1 6,420.8945 L6,9.3945 A2.5,2.5 0 0 1 8.5,6.8945 " fill="none" style="stroke:#000000;stroke-width:1.5;"/><line style="stroke:#000000;stroke-width:1.5;" x1="6" x2="85" y1="38.0508" y2="38.0508"/><text fill="#000000" font-family="sans-serif" font-size="20" font-weight="bold" lengthAdjust="spacing" textLength="60" x="10" y="29.6563">Figure</text><text fill="#000000" font-family="sans-serif" font-size="20" font-style="italic" lengthAdjust="spacing" textLength="111" x="537" y="60.8125">«aggregate»</text></g><!--cluster Category --><g id="cluster_Category "><path d="M1197.5,249.8945 L1290.5,249.8945 A3.75,3.75 0 0 1 1293,252.3945 L1300,281.0508 L1396.5,281.0508 A2.5,2.5 0 0 1 1399,283.5508 L1399,651.3945 A2.5,2.5 0 0 1 1396.5,653.8945 L1197.5,653.8945 A2.5,2.5 0 0 1 1195,651.3945 L1195,252.3945 A2.5,2.5 0 0 1 1197.5,249.8945 " fill="none" style="stroke:#000000;stroke-width:1.5;"/><line style="stroke:#000000;stroke-width:1.5;" x1="1195" x2="1300" y1="281.0508" y2="281.0508"/><text fill="#000000" font-family="sans-serif" font-size="20" font-weight="bold" lengthAdjust="spacing" textLength="86" x="1199" y="272.6563">Category</text><text fill="#000000" font-family="sans-serif" font-size="20" font-style="italic" lengthAdjust="spacing" textLength="111" x="1245.5" y="303.8125">«aggregate»</text></g><!--cluster ShowDesigner --><g id="cluster_ShowDesigner "><path d="M1572.5,725.3945 L1715.5,725.3945 A3.75,3.75 0 0 1 1718,727.8945 L1725,756.5508 L1761.5,756.5508 A2.5,2.5 0 0 1 1764,759.0508 L1764,908.8945 A2.5,2.5 0 0 1 1761.5,911.3945 L1572.5,911.3945 A2.5,2.5 0 0 1 1570,908.8945 L1570,727.8945 A2.5,2.5 0 0 1 1572.5,725.3945 " fill="none" style="stroke:#000000;stroke-width:1.5;"/><line style="stroke:#000000;stroke-width:1.5;" x1="1570" x2="1725" y1="756.5508" y2="756.5508"/><text fill="#000000" font-family="sans-serif" font-size="20" font-weight="bold" lengthAdjust="spacing" textLength="136" x="1574" y="748.1563">ShowDesigner</text><text fill="#000000" font-family="sans-serif" font-size="20" font-style="italic" lengthAdjust="spacing" textLength="111" x="1615.5" y="779.3125">«aggregate»</text></g><!--cluster Shared--><g id="cluster_Shared"><path d="M1284.5,970.3945 L1352.5,970.3945 A3.75,3.75 0 0 1 1355,972.8945 L1362,1001.5508 L2281.5,1001.5508 A2.5,2.5 0 0 1 2284,1004.0508 L2284,1103.8945 A2.5,2.5 0 0 1 2281.5,1106.3945 L1284.5,1106.3945 A2.5,2.5 0 0 1 1282,1103.8945 L1282,972.8945 A2.5,2.5 0 0 1 1284.5,970.3945 " fill="none" style="stroke:#000000;stroke-width:1.5;"/><line style="stroke:#000000;stroke-width:1.5;" x1="1282" x2="1362" y1="1001.5508" y2="1001.5508"/><text fill="#000000" font-family="sans-serif" font-size="20" font-weight="bold" lengthAdjust="spacing" textLength="67" x="1286" y="993.1563">Shared</text></g><!--cluster EAPLI Framework--><g id="cluster_EAPLI Framework"><path d="M686.5,492.8945 L854.5,492.8945 A3.75,3.75 0 0 1 857,495.3945 L864,524.0508 L879.5,524.0508 A2.5,2.5 0 0 1 882,526.5508 L882,651.3945 A2.5,2.5 0 0 1 879.5,653.8945 L686.5,653.8945 A2.5,2.5 0 0 1 684,651.3945 L684,495.3945 A2.5,2.5 0 0 1 686.5,492.8945 " fill="none" style="stroke:#000000;stroke-width:1.5;"/><line style="stroke:#000000;stroke-width:1.5;" x1="684" x2="864" y1="524.0508" y2="524.0508"/><text fill="#000000" font-family="sans-serif" font-size="20" font-weight="bold" lengthAdjust="spacing" textLength="167" x="688" y="515.6563">EAPLI Framework</text><text fill="#000000" font-family="sans-serif" font-size="20" font-style="italic" lengthAdjust="spacing" textLength="116" x="729" y="546.8125">«framework»</text></g><!--class Customer--><g id="elem_Customer"><rect codeLine="4" fill="#F1F1F1" height="101.4688" id="Customer" rx="2.5" ry="2.5" style="stroke:#181818;stroke-width:0.5;" width="119" x="524.5" y="549.3945"/><ellipse cx="540.5" cy="592.1289" fill="#ADD1B2" rx="12" ry="12" style="stroke:#181818;stroke-width:1.0;"/><path d="M542.6406,587.0508 Q542.8281,586.8008 543.0469,586.6758 Q543.2656,586.5352 543.5156,586.5352 Q543.9531,586.5352 544.2344,586.8477 Q544.5156,587.1445 544.5156,587.8633 L544.5156,589.5664 Q544.5156,590.2852 544.2344,590.5977 Q543.9531,590.9102 543.5156,590.9102 Q543.125,590.9102 542.875,590.6758 Q542.625,590.457 542.5156,589.8477 Q542.4531,589.4258 542.2344,589.207 Q541.8438,588.7695 541.125,588.5039 Q540.4063,588.2383 539.6875,588.2383 Q538.7813,588.2383 538.0313,588.6289 Q537.2813,589.0195 536.7031,589.9102 Q536.125,590.7852 536.125,591.9883 L536.125,593.2852 Q536.125,594.7383 537.1719,595.707 Q538.2344,596.6758 540.0938,596.6758 Q541.2031,596.6758 541.9844,596.3633 Q542.4219,596.1914 542.9375,595.6758 Q543.25,595.3633 543.4219,595.2695 Q543.5938,595.1758 543.8281,595.1758 Q544.2188,595.1758 544.5156,595.4883 Q544.8281,595.7852 544.8281,596.1914 Q544.8281,596.5977 544.4219,597.0664 Q543.8281,597.7539 542.8906,598.1445 Q541.625,598.6758 540.1094,598.6758 Q538.3281,598.6758 536.9063,597.9414 Q535.75,597.3477 534.9375,596.082 Q534.125,594.8164 534.125,593.332 L534.125,591.9727 Q534.125,590.4102 534.8438,589.0664 Q535.5781,587.707 536.8594,586.9727 Q538.1563,586.2383 539.6094,586.2383 Q540.4688,586.2383 541.2188,586.4414 Q541.9844,586.6445 542.6406,587.0508 Z " fill="#000000"/><text fill="#000000" font-family="sans-serif" font-size="20" font-style="italic" lengthAdjust="spacing" textLength="71" x="562.5" y="575.1563">«Entity»</text><text fill="#000000" font-family="sans-serif" font-size="20" font-style="italic" lengthAdjust="spacing" textLength="56" x="570" y="600.3125">«root»</text><text fill="#000000" font-family="sans-serif" font-size="20" lengthAdjust="spacing" textLength="85" x="555.5" y="625.4688">Customer</text><line style="stroke:#181818;stroke-width:0.5;" x1="525.5" x2="642.5" y1="634.8633" y2="634.8633"/><line style="stroke:#181818;stroke-width:0.5;" x1="525.5" x2="642.5" y1="642.8633" y2="642.8633"/></g><!--class Figure--><g id="elem_Figure"><rect codeLine="10" fill="#F1F1F1" height="101.4688" id="Figure" rx="2.5" ry="2.5" style="stroke:#181818;stroke-width:0.5;" width="101" x="820.5" y="75.8945"/><ellipse cx="836.5" cy="118.6289" fill="#ADD1B2" rx="12" ry="12" style="stroke:#181818;stroke-width:1.0;"/><path d="M838.6406,113.5508 Q838.8281,113.3008 839.0469,113.1758 Q839.2656,113.0352 839.5156,113.0352 Q839.9531,113.0352 840.2344,113.3477 Q840.5156,113.6445 840.5156,114.3633 L840.5156,116.0664 Q840.5156,116.7852 840.2344,117.0977 Q839.9531,117.4102 839.5156,117.4102 Q839.125,117.4102 838.875,117.1758 Q838.625,116.957 838.5156,116.3477 Q838.4531,115.9258 838.2344,115.707 Q837.8438,115.2695 837.125,115.0039 Q836.4063,114.7383 835.6875,114.7383 Q834.7813,114.7383 834.0313,115.1289 Q833.2813,115.5195 832.7031,116.4102 Q832.125,117.2852 832.125,118.4883 L832.125,119.7852 Q832.125,121.2383 833.1719,122.207 Q834.2344,123.1758 836.0938,123.1758 Q837.2031,123.1758 837.9844,122.8633 Q838.4219,122.6914 838.9375,122.1758 Q839.25,121.8633 839.4219,121.7695 Q839.5938,121.6758 839.8281,121.6758 Q840.2188,121.6758 840.5156,121.9883 Q840.8281,122.2852 840.8281,122.6914 Q840.8281,123.0977 840.4219,123.5664 Q839.8281,124.2539 838.8906,124.6445 Q837.625,125.1758 836.1094,125.1758 Q834.3281,125.1758 832.9063,124.4414 Q831.75,123.8477 830.9375,122.582 Q830.125,121.3164 830.125,119.832 L830.125,118.4727 Q830.125,116.9102 830.8438,115.5664 Q831.5781,114.207 832.8594,113.4727 Q834.1563,112.7383 835.6094,112.7383 Q836.4688,112.7383 837.2188,112.9414 Q837.9844,113.1445 838.6406,113.5508 Z " fill="#000000"/><text fill="#000000" font-family="sans-serif" font-size="20" font-style="italic" lengthAdjust="spacing" textLength="71" x="849.5" y="101.6563">«Entity»</text><text fill="#000000" font-family="sans-serif" font-size="20" font-style="italic" lengthAdjust="spacing" textLength="56" x="857" y="126.8125">«root»</text><text fill="#000000" font-family="sans-serif" font-size="20" lengthAdjust="spacing" textLength="55" x="857.5" y="151.9688">Figure</text><line style="stroke:#181818;stroke-width:0.5;" x1="821.5" x2="920.5" y1="161.3633" y2="161.3633"/><line style="stroke:#181818;stroke-width:0.5;" x1="821.5" x2="920.5" y1="169.3633" y2="169.3633"/></g><!--class Code--><g id="elem_Code"><rect codeLine="13" fill="#F1F1F1" height="76.3125" id="Code" rx="2.5" ry="2.5" style="stroke:#181818;stroke-width:0.5;" width="166" x="788" y="331.3945"/><ellipse cx="804" cy="361.5508" fill="#ADD1B2" rx="12" ry="12" style="stroke:#181818;stroke-width:1.0;"/><path d="M806.1406,356.4727 Q806.3281,356.2227 806.5469,356.0977 Q806.7656,355.957 807.0156,355.957 Q807.4531,355.957 807.7344,356.2695 Q808.0156,356.5664 808.0156,357.2852 L808.0156,358.9883 Q808.0156,359.707 807.7344,360.0195 Q807.4531,360.332 807.0156,360.332 Q806.625,360.332 806.375,360.0977 Q806.125,359.8789 806.0156,359.2695 Q805.9531,358.8477 805.7344,358.6289 Q805.3438,358.1914 804.625,357.9258 Q803.9063,357.6602 803.1875,357.6602 Q802.2813,357.6602 801.5313,358.0508 Q800.7813,358.4414 800.2031,359.332 Q799.625,360.207 799.625,361.4102 L799.625,362.707 Q799.625,364.1602 800.6719,365.1289 Q801.7344,366.0977 803.5938,366.0977 Q804.7031,366.0977 805.4844,365.7852 Q805.9219,365.6133 806.4375,365.0977 Q806.75,364.7852 806.9219,364.6914 Q807.0938,364.5977 807.3281,364.5977 Q807.7188,364.5977 808.0156,364.9102 Q808.3281,365.207 808.3281,365.6133 Q808.3281,366.0195 807.9219,366.4883 Q807.3281,367.1758 806.3906,367.5664 Q805.125,368.0977 803.6094,368.0977 Q801.8281,368.0977 800.4063,367.3633 Q799.25,366.7695 798.4375,365.5039 Q797.625,364.2383 797.625,362.7539 L797.625,361.3945 Q797.625,359.832 798.3438,358.4883 Q799.0781,357.1289 800.3594,356.3945 Q801.6563,355.6602 803.1094,355.6602 Q803.9688,355.6602 804.7188,355.8633 Q805.4844,356.0664 806.1406,356.4727 Z " fill="#000000"/><text fill="#000000" font-family="sans-serif" font-size="20" font-style="italic" lengthAdjust="spacing" textLength="136" x="817" y="357.1563">«Value Object»</text><text fill="#000000" font-family="sans-serif" font-size="20" lengthAdjust="spacing" textLength="47" x="861.5" y="382.3125">Code</text><line style="stroke:#181818;stroke-width:0.5;" x1="789" x2="953" y1="391.707" y2="391.707"/><line style="stroke:#181818;stroke-width:0.5;" x1="789" x2="953" y1="399.707" y2="399.707"/></g><!--class Version--><g id="elem_Version"><rect codeLine="16" fill="#F1F1F1" height="76.3125" id="Version" rx="2.5" ry="2.5" style="stroke:#181818;stroke-width:0.5;" width="166" x="989" y="331.3945"/><ellipse cx="1005" cy="361.5508" fill="#ADD1B2" rx="12" ry="12" style="stroke:#181818;stroke-width:1.0;"/><path d="M1007.1406,356.4727 Q1007.3281,356.2227 1007.5469,356.0977 Q1007.7656,355.957 1008.0156,355.957 Q1008.4531,355.957 1008.7344,356.2695 Q1009.0156,356.5664 1009.0156,357.2852 L1009.0156,358.9883 Q1009.0156,359.707 1008.7344,360.0195 Q1008.4531,360.332 1008.0156,360.332 Q1007.625,360.332 1007.375,360.0977 Q1007.125,359.8789 1007.0156,359.2695 Q1006.9531,358.8477 1006.7344,358.6289 Q1006.3438,358.1914 1005.625,357.9258 Q1004.9063,357.6602 1004.1875,357.6602 Q1003.2813,357.6602 1002.5313,358.0508 Q1001.7813,358.4414 1001.2031,359.332 Q1000.625,360.207 1000.625,361.4102 L1000.625,362.707 Q1000.625,364.1602 1001.6719,365.1289 Q1002.7344,366.0977 1004.5938,366.0977 Q1005.7031,366.0977 1006.4844,365.7852 Q1006.9219,365.6133 1007.4375,365.0977 Q1007.75,364.7852 1007.9219,364.6914 Q1008.0938,364.5977 1008.3281,364.5977 Q1008.7188,364.5977 1009.0156,364.9102 Q1009.3281,365.207 1009.3281,365.6133 Q1009.3281,366.0195 1008.9219,366.4883 Q1008.3281,367.1758 1007.3906,367.5664 Q1006.125,368.0977 1004.6094,368.0977 Q1002.8281,368.0977 1001.4063,367.3633 Q1000.25,366.7695 999.4375,365.5039 Q998.625,364.2383 998.625,362.7539 L998.625,361.3945 Q998.625,359.832 999.3438,358.4883 Q1000.0781,357.1289 1001.3594,356.3945 Q1002.6563,355.6602 1004.1094,355.6602 Q1004.9688,355.6602 1005.7188,355.8633 Q1006.4844,356.0664 1007.1406,356.4727 Z " fill="#000000"/><text fill="#000000" font-family="sans-serif" font-size="20" font-style="italic" lengthAdjust="spacing" textLength="136" x="1018" y="357.1563">«Value Object»</text><text fill="#000000" font-family="sans-serif" font-size="20" lengthAdjust="spacing" textLength="66" x="1053" y="382.3125">Version</text><line style="stroke:#181818;stroke-width:0.5;" x1="990" x2="1154" y1="391.707" y2="391.707"/><line style="stroke:#181818;stroke-width:0.5;" x1="990" x2="1154" y1="399.707" y2="399.707"/></g><!--class DSLDescription--><g id="elem_DSLDescription"><rect codeLine="19" fill="#F1F1F1" height="76.3125" id="DSLDescription" rx="2.5" ry="2.5" style="stroke:#181818;stroke-width:0.5;" width="170" x="22" y="331.3945"/><ellipse cx="38" cy="361.5508" fill="#ADD1B2" rx="12" ry="12" style="stroke:#181818;stroke-width:1.0;"/><path d="M40.1406,356.4727 Q40.3281,356.2227 40.5469,356.0977 Q40.7656,355.957 41.0156,355.957 Q41.4531,355.957 41.7344,356.2695 Q42.0156,356.5664 42.0156,357.2852 L42.0156,358.9883 Q42.0156,359.707 41.7344,360.0195 Q41.4531,360.332 41.0156,360.332 Q40.625,360.332 40.375,360.0977 Q40.125,359.8789 40.0156,359.2695 Q39.9531,358.8477 39.7344,358.6289 Q39.3438,358.1914 38.625,357.9258 Q37.9063,357.6602 37.1875,357.6602 Q36.2813,357.6602 35.5313,358.0508 Q34.7813,358.4414 34.2031,359.332 Q33.625,360.207 33.625,361.4102 L33.625,362.707 Q33.625,364.1602 34.6719,365.1289 Q35.7344,366.0977 37.5938,366.0977 Q38.7031,366.0977 39.4844,365.7852 Q39.9219,365.6133 40.4375,365.0977 Q40.75,364.7852 40.9219,364.6914 Q41.0938,364.5977 41.3281,364.5977 Q41.7188,364.5977 42.0156,364.9102 Q42.3281,365.207 42.3281,365.6133 Q42.3281,366.0195 41.9219,366.4883 Q41.3281,367.1758 40.3906,367.5664 Q39.125,368.0977 37.6094,368.0977 Q35.8281,368.0977 34.4063,367.3633 Q33.25,366.7695 32.4375,365.5039 Q31.625,364.2383 31.625,362.7539 L31.625,361.3945 Q31.625,359.832 32.3438,358.4883 Q33.0781,357.1289 34.3594,356.3945 Q35.6563,355.6602 37.1094,355.6602 Q37.9688,355.6602 38.7188,355.8633 Q39.4844,356.0664 40.1406,356.4727 Z " fill="#000000"/><text fill="#000000" font-family="sans-serif" font-size="20" font-style="italic" lengthAdjust="spacing" textLength="136" x="53" y="357.1563">«Value Object»</text><text fill="#000000" font-family="sans-serif" font-size="20" lengthAdjust="spacing" textLength="136" x="53" y="382.3125">DSLDescription</text><line style="stroke:#181818;stroke-width:0.5;" x1="23" x2="191" y1="391.707" y2="391.707"/><line style="stroke:#181818;stroke-width:0.5;" x1="23" x2="191" y1="399.707" y2="399.707"/></g><!--class FigureStatus--><g id="elem_FigureStatus"><rect codeLine="22" fill="#F1F1F1" height="76.3125" id="FigureStatus" rx="2.5" ry="2.5" style="stroke:#181818;stroke-width:0.5;" width="166" x="227" y="331.3945"/><ellipse cx="243" cy="361.5508" fill="#EB937F" rx="12" ry="12" style="stroke:#181818;stroke-width:1.0;"/><path d="M240.9531,362.6133 L240.9531,365.5508 L246.0469,365.5508 L246.0469,364.457 Q246.0469,363.7383 246.3281,363.4414 Q246.6094,363.1289 247.0625,363.1289 Q247.5,363.1289 247.7813,363.4414 Q248.0625,363.7383 248.0625,364.457 L248.0625,367.5508 L238.625,367.5508 Q237.9063,367.5508 237.5938,367.2695 Q237.2969,366.9883 237.2969,366.5508 Q237.2969,366.0977 237.6094,365.832 Q237.9219,365.5508 238.625,365.5508 L238.9375,365.5508 L238.9375,357.7227 L238.625,357.7227 Q237.9063,357.7227 237.5938,357.4414 Q237.2969,357.1602 237.2969,356.707 Q237.2969,356.2539 237.5938,355.9883 Q237.9063,355.707 238.625,355.707 L247.6094,355.707 L247.6094,358.7539 Q247.6094,359.4727 247.3281,359.7852 Q247.0625,360.082 246.625,360.082 Q246.1719,360.082 245.8906,359.7852 Q245.6094,359.4883 245.6094,358.7539 L245.6094,357.7227 L240.9531,357.7227 L240.9531,360.6133 L242.7031,360.6133 Q242.7031,359.832 242.8438,359.5977 Q243.1563,359.1289 243.7031,359.1289 Q244.1563,359.1289 244.4219,359.4414 Q244.7031,359.7383 244.7031,360.457 L244.7031,362.7695 Q244.7031,363.4258 244.5469,363.6445 Q244.2344,364.0977 243.7031,364.0977 Q243.1563,364.0977 242.8438,363.6289 Q242.7031,363.3945 242.7031,362.6133 L240.9531,362.6133 Z " fill="#000000"/><text fill="#000000" font-family="sans-serif" font-size="20" font-style="italic" lengthAdjust="spacing" textLength="136" x="256" y="357.1563">«Value Object»</text><text fill="#000000" font-family="sans-serif" font-size="20" lengthAdjust="spacing" textLength="111" x="268.5" y="382.3125">FigureStatus</text><line style="stroke:#181818;stroke-width:0.5;" x1="228" x2="392" y1="391.707" y2="391.707"/><line style="stroke:#181818;stroke-width:0.5;" x1="228" x2="392" y1="399.707" y2="399.707"/></g><!--class Keyword--><g id="elem_Keyword"><rect codeLine="25" fill="#F1F1F1" height="76.3125" id="Keyword" rx="2.5" ry="2.5" style="stroke:#181818;stroke-width:0.5;" width="166" x="428" y="331.3945"/><ellipse cx="444" cy="361.5508" fill="#ADD1B2" rx="12" ry="12" style="stroke:#181818;stroke-width:1.0;"/><path d="M446.1406,356.4727 Q446.3281,356.2227 446.5469,356.0977 Q446.7656,355.957 447.0156,355.957 Q447.4531,355.957 447.7344,356.2695 Q448.0156,356.5664 448.0156,357.2852 L448.0156,358.9883 Q448.0156,359.707 447.7344,360.0195 Q447.4531,360.332 447.0156,360.332 Q446.625,360.332 446.375,360.0977 Q446.125,359.8789 446.0156,359.2695 Q445.9531,358.8477 445.7344,358.6289 Q445.3438,358.1914 444.625,357.9258 Q443.9063,357.6602 443.1875,357.6602 Q442.2813,357.6602 441.5313,358.0508 Q440.7813,358.4414 440.2031,359.332 Q439.625,360.207 439.625,361.4102 L439.625,362.707 Q439.625,364.1602 440.6719,365.1289 Q441.7344,366.0977 443.5938,366.0977 Q444.7031,366.0977 445.4844,365.7852 Q445.9219,365.6133 446.4375,365.0977 Q446.75,364.7852 446.9219,364.6914 Q447.0938,364.5977 447.3281,364.5977 Q447.7188,364.5977 448.0156,364.9102 Q448.3281,365.207 448.3281,365.6133 Q448.3281,366.0195 447.9219,366.4883 Q447.3281,367.1758 446.3906,367.5664 Q445.125,368.0977 443.6094,368.0977 Q441.8281,368.0977 440.4063,367.3633 Q439.25,366.7695 438.4375,365.5039 Q437.625,364.2383 437.625,362.7539 L437.625,361.3945 Q437.625,359.832 438.3438,358.4883 Q439.0781,357.1289 440.3594,356.3945 Q441.6563,355.6602 443.1094,355.6602 Q443.9688,355.6602 444.7188,355.8633 Q445.4844,356.0664 446.1406,356.4727 Z " fill="#000000"/><text fill="#000000" font-family="sans-serif" font-size="20" font-style="italic" lengthAdjust="spacing" textLength="136" x="457" y="357.1563">«Value Object»</text><text fill="#000000" font-family="sans-serif" font-size="20" lengthAdjust="spacing" textLength="78" x="486" y="382.3125">Keyword</text><line style="stroke:#181818;stroke-width:0.5;" x1="429" x2="593" y1="391.707" y2="391.707"/><line style="stroke:#181818;stroke-width:0.5;" x1="429" x2="593" y1="399.707" y2="399.707"/></g><!--class Exclusivity--><g id="elem_Exclusivity"><rect codeLine="28" fill="#F1F1F1" height="76.3125" id="Exclusivity" rx="2.5" ry="2.5" style="stroke:#181818;stroke-width:0.5;" width="123" x="629.5" y="331.3945"/><ellipse cx="645.5" cy="361.5508" fill="#ADD1B2" rx="12" ry="12" style="stroke:#181818;stroke-width:1.0;"/><path d="M647.6406,356.4727 Q647.8281,356.2227 648.0469,356.0977 Q648.2656,355.957 648.5156,355.957 Q648.9531,355.957 649.2344,356.2695 Q649.5156,356.5664 649.5156,357.2852 L649.5156,358.9883 Q649.5156,359.707 649.2344,360.0195 Q648.9531,360.332 648.5156,360.332 Q648.125,360.332 647.875,360.0977 Q647.625,359.8789 647.5156,359.2695 Q647.4531,358.8477 647.2344,358.6289 Q646.8438,358.1914 646.125,357.9258 Q645.4063,357.6602 644.6875,357.6602 Q643.7813,357.6602 643.0313,358.0508 Q642.2813,358.4414 641.7031,359.332 Q641.125,360.207 641.125,361.4102 L641.125,362.707 Q641.125,364.1602 642.1719,365.1289 Q643.2344,366.0977 645.0938,366.0977 Q646.2031,366.0977 646.9844,365.7852 Q647.4219,365.6133 647.9375,365.0977 Q648.25,364.7852 648.4219,364.6914 Q648.5938,364.5977 648.8281,364.5977 Q649.2188,364.5977 649.5156,364.9102 Q649.8281,365.207 649.8281,365.6133 Q649.8281,366.0195 649.4219,366.4883 Q648.8281,367.1758 647.8906,367.5664 Q646.625,368.0977 645.1094,368.0977 Q643.3281,368.0977 641.9063,367.3633 Q640.75,366.7695 639.9375,365.5039 Q639.125,364.2383 639.125,362.7539 L639.125,361.3945 Q639.125,359.832 639.8438,358.4883 Q640.5781,357.1289 641.8594,356.3945 Q643.1563,355.6602 644.6094,355.6602 Q645.4688,355.6602 646.2188,355.8633 Q646.9844,356.0664 647.6406,356.4727 Z " fill="#000000"/><text fill="#000000" font-family="sans-serif" font-size="20" font-style="italic" lengthAdjust="spacing" textLength="71" x="669.5" y="357.1563">«Entity»</text><text fill="#000000" font-family="sans-serif" font-size="20" lengthAdjust="spacing" textLength="89" x="660.5" y="382.3125">Exclusivity</text><line style="stroke:#181818;stroke-width:0.5;" x1="630.5" x2="751.5" y1="391.707" y2="391.707"/><line style="stroke:#181818;stroke-width:0.5;" x1="630.5" x2="751.5" y1="399.707" y2="399.707"/></g><!--class DSLValidate--><g id="elem_DSLValidate"><rect codeLine="31" fill="#F1F1F1" height="76.3125" id="DSLValidate" rx="2.5" ry="2.5" style="stroke:#181818;stroke-width:0.5;" width="143" x="35.5" y="88.3945"/><ellipse cx="51.5" cy="118.5508" fill="#ADD1B2" rx="12" ry="12" style="stroke:#181818;stroke-width:1.0;"/><path d="M53.6406,113.4727 Q53.8281,113.2227 54.0469,113.0977 Q54.2656,112.957 54.5156,112.957 Q54.9531,112.957 55.2344,113.2695 Q55.5156,113.5664 55.5156,114.2852 L55.5156,115.9883 Q55.5156,116.707 55.2344,117.0195 Q54.9531,117.332 54.5156,117.332 Q54.125,117.332 53.875,117.0977 Q53.625,116.8789 53.5156,116.2695 Q53.4531,115.8477 53.2344,115.6289 Q52.8438,115.1914 52.125,114.9258 Q51.4063,114.6602 50.6875,114.6602 Q49.7813,114.6602 49.0313,115.0508 Q48.2813,115.4414 47.7031,116.332 Q47.125,117.207 47.125,118.4102 L47.125,119.707 Q47.125,121.1602 48.1719,122.1289 Q49.2344,123.0977 51.0938,123.0977 Q52.2031,123.0977 52.9844,122.7852 Q53.4219,122.6133 53.9375,122.0977 Q54.25,121.7852 54.4219,121.6914 Q54.5938,121.5977 54.8281,121.5977 Q55.2188,121.5977 55.5156,121.9102 Q55.8281,122.207 55.8281,122.6133 Q55.8281,123.0195 55.4219,123.4883 Q54.8281,124.1758 53.8906,124.5664 Q52.625,125.0977 51.1094,125.0977 Q49.3281,125.0977 47.9063,124.3633 Q46.75,123.7695 45.9375,122.5039 Q45.125,121.2383 45.125,119.7539 L45.125,118.3945 Q45.125,116.832 45.8438,115.4883 Q46.5781,114.1289 47.8594,113.3945 Q49.1563,112.6602 50.6094,112.6602 Q51.4688,112.6602 52.2188,112.8633 Q52.9844,113.0664 53.6406,113.4727 Z " fill="#000000"/><text fill="#000000" font-family="sans-serif" font-size="20" font-style="italic" lengthAdjust="spacing" textLength="89" x="76.5" y="114.1563">«Service»</text><text fill="#000000" font-family="sans-serif" font-size="20" lengthAdjust="spacing" textLength="109" x="66.5" y="139.3125">DSLValidate</text><line style="stroke:#181818;stroke-width:0.5;" x1="36.5" x2="177.5" y1="148.707" y2="148.707"/><line style="stroke:#181818;stroke-width:0.5;" x1="36.5" x2="177.5" y1="156.707" y2="156.707"/></g><!--class Category--><g id="elem_Category"><rect codeLine="52" fill="#F1F1F1" height="101.4688" id="Category" rx="2.5" ry="2.5" style="stroke:#181818;stroke-width:0.5;" width="115" x="1239.5" y="318.8945"/><ellipse cx="1255.5" cy="361.6289" fill="#ADD1B2" rx="12" ry="12" style="stroke:#181818;stroke-width:1.0;"/><path d="M1257.6406,356.5508 Q1257.8281,356.3008 1258.0469,356.1758 Q1258.2656,356.0352 1258.5156,356.0352 Q1258.9531,356.0352 1259.2344,356.3477 Q1259.5156,356.6445 1259.5156,357.3633 L1259.5156,359.0664 Q1259.5156,359.7852 1259.2344,360.0977 Q1258.9531,360.4102 1258.5156,360.4102 Q1258.125,360.4102 1257.875,360.1758 Q1257.625,359.957 1257.5156,359.3477 Q1257.4531,358.9258 1257.2344,358.707 Q1256.8438,358.2695 1256.125,358.0039 Q1255.4063,357.7383 1254.6875,357.7383 Q1253.7813,357.7383 1253.0313,358.1289 Q1252.2813,358.5195 1251.7031,359.4102 Q1251.125,360.2852 1251.125,361.4883 L1251.125,362.7852 Q1251.125,364.2383 1252.1719,365.207 Q1253.2344,366.1758 1255.0938,366.1758 Q1256.2031,366.1758 1256.9844,365.8633 Q1257.4219,365.6914 1257.9375,365.1758 Q1258.25,364.8633 1258.4219,364.7695 Q1258.5938,364.6758 1258.8281,364.6758 Q1259.2188,364.6758 1259.5156,364.9883 Q1259.8281,365.2852 1259.8281,365.6914 Q1259.8281,366.0977 1259.4219,366.5664 Q1258.8281,367.2539 1257.8906,367.6445 Q1256.625,368.1758 1255.1094,368.1758 Q1253.3281,368.1758 1251.9063,367.4414 Q1250.75,366.8477 1249.9375,365.582 Q1249.125,364.3164 1249.125,362.832 L1249.125,361.4727 Q1249.125,359.9102 1249.8438,358.5664 Q1250.5781,357.207 1251.8594,356.4727 Q1253.1563,355.7383 1254.6094,355.7383 Q1255.4688,355.7383 1256.2188,355.9414 Q1256.9844,356.1445 1257.6406,356.5508 Z " fill="#000000"/><text fill="#000000" font-family="sans-serif" font-size="20" font-style="italic" lengthAdjust="spacing" textLength="71" x="1275.5" y="344.6563">«Entity»</text><text fill="#000000" font-family="sans-serif" font-size="20" font-style="italic" lengthAdjust="spacing" textLength="56" x="1283" y="369.8125">«root»</text><text fill="#000000" font-family="sans-serif" font-size="20" lengthAdjust="spacing" textLength="81" x="1270.5" y="394.9688">Category</text><line style="stroke:#181818;stroke-width:0.5;" x1="1240.5" x2="1353.5" y1="404.3633" y2="404.3633"/><line style="stroke:#181818;stroke-width:0.5;" x1="1240.5" x2="1353.5" y1="412.3633" y2="412.3633"/></g><!--class CategoryStatus--><g id="elem_CategoryStatus"><rect codeLine="55" fill="#F1F1F1" height="76.3125" id="CategoryStatus" rx="2.5" ry="2.5" style="stroke:#181818;stroke-width:0.5;" width="171" x="1211.5" y="561.8945"/><ellipse cx="1227.5" cy="592.0508" fill="#EB937F" rx="12" ry="12" style="stroke:#181818;stroke-width:1.0;"/><path d="M1225.4531,593.1133 L1225.4531,596.0508 L1230.5469,596.0508 L1230.5469,594.957 Q1230.5469,594.2383 1230.8281,593.9414 Q1231.1094,593.6289 1231.5625,593.6289 Q1232,593.6289 1232.2813,593.9414 Q1232.5625,594.2383 1232.5625,594.957 L1232.5625,598.0508 L1223.125,598.0508 Q1222.4063,598.0508 1222.0938,597.7695 Q1221.7969,597.4883 1221.7969,597.0508 Q1221.7969,596.5977 1222.1094,596.332 Q1222.4219,596.0508 1223.125,596.0508 L1223.4375,596.0508 L1223.4375,588.2227 L1223.125,588.2227 Q1222.4063,588.2227 1222.0938,587.9414 Q1221.7969,587.6602 1221.7969,587.207 Q1221.7969,586.7539 1222.0938,586.4883 Q1222.4063,586.207 1223.125,586.207 L1232.1094,586.207 L1232.1094,589.2539 Q1232.1094,589.9727 1231.8281,590.2852 Q1231.5625,590.582 1231.125,590.582 Q1230.6719,590.582 1230.3906,590.2852 Q1230.1094,589.9883 1230.1094,589.2539 L1230.1094,588.2227 L1225.4531,588.2227 L1225.4531,591.1133 L1227.2031,591.1133 Q1227.2031,590.332 1227.3438,590.0977 Q1227.6563,589.6289 1228.2031,589.6289 Q1228.6563,589.6289 1228.9219,589.9414 Q1229.2031,590.2383 1229.2031,590.957 L1229.2031,593.2695 Q1229.2031,593.9258 1229.0469,594.1445 Q1228.7344,594.5977 1228.2031,594.5977 Q1227.6563,594.5977 1227.3438,594.1289 Q1227.2031,593.8945 1227.2031,593.1133 L1225.4531,593.1133 Z " fill="#000000"/><text fill="#000000" font-family="sans-serif" font-size="20" font-style="italic" lengthAdjust="spacing" textLength="136" x="1243" y="587.6563">«Value Object»</text><text fill="#000000" font-family="sans-serif" font-size="20" lengthAdjust="spacing" textLength="137" x="1242.5" y="612.8125">CategoryStatus</text><line style="stroke:#181818;stroke-width:0.5;" x1="1212.5" x2="1381.5" y1="622.207" y2="622.207"/><line style="stroke:#181818;stroke-width:0.5;" x1="1212.5" x2="1381.5" y1="630.207" y2="630.207"/></g><!--class ShowDesigner--><g id="elem_ShowDesigner"><rect codeLine="67" fill="#F1F1F1" height="101.4688" id="ShowDesigner" rx="2.5" ry="2.5" style="stroke:#181818;stroke-width:0.5;" width="161" x="1586.5" y="794.3945"/><ellipse cx="1602.5" cy="837.1289" fill="#ADD1B2" rx="12" ry="12" style="stroke:#181818;stroke-width:1.0;"/><path d="M1604.6406,832.0508 Q1604.8281,831.8008 1605.0469,831.6758 Q1605.2656,831.5352 1605.5156,831.5352 Q1605.9531,831.5352 1606.2344,831.8477 Q1606.5156,832.1445 1606.5156,832.8633 L1606.5156,834.5664 Q1606.5156,835.2852 1606.2344,835.5977 Q1605.9531,835.9102 1605.5156,835.9102 Q1605.125,835.9102 1604.875,835.6758 Q1604.625,835.457 1604.5156,834.8477 Q1604.4531,834.4258 1604.2344,834.207 Q1603.8438,833.7695 1603.125,833.5039 Q1602.4063,833.2383 1601.6875,833.2383 Q1600.7813,833.2383 1600.0313,833.6289 Q1599.2813,834.0195 1598.7031,834.9102 Q1598.125,835.7852 1598.125,836.9883 L1598.125,838.2852 Q1598.125,839.7383 1599.1719,840.707 Q1600.2344,841.6758 1602.0938,841.6758 Q1603.2031,841.6758 1603.9844,841.3633 Q1604.4219,841.1914 1604.9375,840.6758 Q1605.25,840.3633 1605.4219,840.2695 Q1605.5938,840.1758 1605.8281,840.1758 Q1606.2188,840.1758 1606.5156,840.4883 Q1606.8281,840.7852 1606.8281,841.1914 Q1606.8281,841.5977 1606.4219,842.0664 Q1605.8281,842.7539 1604.8906,843.1445 Q1603.625,843.6758 1602.1094,843.6758 Q1600.3281,843.6758 1598.9063,842.9414 Q1597.75,842.3477 1596.9375,841.082 Q1596.125,839.8164 1596.125,838.332 L1596.125,836.9727 Q1596.125,835.4102 1596.8438,834.0664 Q1597.5781,832.707 1598.8594,831.9727 Q1600.1563,831.2383 1601.6094,831.2383 Q1602.4688,831.2383 1603.2188,831.4414 Q1603.9844,831.6445 1604.6406,832.0508 Z " fill="#000000"/><text fill="#000000" font-family="sans-serif" font-size="20" font-style="italic" lengthAdjust="spacing" textLength="71" x="1645.5" y="820.1563">«Entity»</text><text fill="#000000" font-family="sans-serif" font-size="20" font-style="italic" lengthAdjust="spacing" textLength="56" x="1653" y="845.3125">«root»</text><text fill="#000000" font-family="sans-serif" font-size="20" lengthAdjust="spacing" textLength="127" x="1617.5" y="870.4688">ShowDesigner</text><line style="stroke:#181818;stroke-width:0.5;" x1="1587.5" x2="1746.5" y1="879.8633" y2="879.8633"/><line style="stroke:#181818;stroke-width:0.5;" x1="1587.5" x2="1746.5" y1="887.8633" y2="887.8633"/></g><!--class Time--><g id="elem_Time"><rect codeLine="76" fill="#F1F1F1" height="76.3125" id="Time" rx="2.5" ry="2.5" style="stroke:#181818;stroke-width:0.5;" width="166" x="2102" y="1014.3945"/><ellipse cx="2118" cy="1044.5508" fill="#ADD1B2" rx="12" ry="12" style="stroke:#181818;stroke-width:1.0;"/><path d="M2120.1406,1039.4727 Q2120.3281,1039.2227 2120.5469,1039.0977 Q2120.7656,1038.957 2121.0156,1038.957 Q2121.4531,1038.957 2121.7344,1039.2695 Q2122.0156,1039.5664 2122.0156,1040.2852 L2122.0156,1041.9883 Q2122.0156,1042.707 2121.7344,1043.0195 Q2121.4531,1043.332 2121.0156,1043.332 Q2120.625,1043.332 2120.375,1043.0977 Q2120.125,1042.8789 2120.0156,1042.2695 Q2119.9531,1041.8477 2119.7344,1041.6289 Q2119.3438,1041.1914 2118.625,1040.9258 Q2117.9063,1040.6602 2117.1875,1040.6602 Q2116.2813,1040.6602 2115.5313,1041.0508 Q2114.7813,1041.4414 2114.2031,1042.332 Q2113.625,1043.207 2113.625,1044.4102 L2113.625,1045.707 Q2113.625,1047.1602 2114.6719,1048.1289 Q2115.7344,1049.0977 2117.5938,1049.0977 Q2118.7031,1049.0977 2119.4844,1048.7852 Q2119.9219,1048.6133 2120.4375,1048.0977 Q2120.75,1047.7852 2120.9219,1047.6914 Q2121.0938,1047.5977 2121.3281,1047.5977 Q2121.7188,1047.5977 2122.0156,1047.9102 Q2122.3281,1048.207 2122.3281,1048.6133 Q2122.3281,1049.0195 2121.9219,1049.4883 Q2121.3281,1050.1758 2120.3906,1050.5664 Q2119.125,1051.0977 2117.6094,1051.0977 Q2115.8281,1051.0977 2114.4063,1050.3633 Q2113.25,1049.7695 2112.4375,1048.5039 Q2111.625,1047.2383 2111.625,1045.7539 L2111.625,1044.3945 Q2111.625,1042.832 2112.3438,1041.4883 Q2113.0781,1040.1289 2114.3594,1039.3945 Q2115.6563,1038.6602 2117.1094,1038.6602 Q2117.9688,1038.6602 2118.7188,1038.8633 Q2119.4844,1039.0664 2120.1406,1039.4727 Z " fill="#000000"/><text fill="#000000" font-family="sans-serif" font-size="20" font-style="italic" lengthAdjust="spacing" textLength="136" x="2131" y="1040.1563">«Value Object»</text><text fill="#000000" font-family="sans-serif" font-size="20" lengthAdjust="spacing" textLength="43" x="2177.5" y="1065.3125">Time</text><line style="stroke:#181818;stroke-width:0.5;" x1="2103" x2="2267" y1="1074.707" y2="1074.707"/><line style="stroke:#181818;stroke-width:0.5;" x1="2103" x2="2267" y1="1082.707" y2="1082.707"/></g><!--class Name--><g id="elem_Name"><rect codeLine="79" fill="#F1F1F1" height="76.3125" id="Name" rx="2.5" ry="2.5" style="stroke:#181818;stroke-width:0.5;" width="166" x="1298" y="1014.3945"/><ellipse cx="1314" cy="1044.5508" fill="#ADD1B2" rx="12" ry="12" style="stroke:#181818;stroke-width:1.0;"/><path d="M1316.1406,1039.4727 Q1316.3281,1039.2227 1316.5469,1039.0977 Q1316.7656,1038.957 1317.0156,1038.957 Q1317.4531,1038.957 1317.7344,1039.2695 Q1318.0156,1039.5664 1318.0156,1040.2852 L1318.0156,1041.9883 Q1318.0156,1042.707 1317.7344,1043.0195 Q1317.4531,1043.332 1317.0156,1043.332 Q1316.625,1043.332 1316.375,1043.0977 Q1316.125,1042.8789 1316.0156,1042.2695 Q1315.9531,1041.8477 1315.7344,1041.6289 Q1315.3438,1041.1914 1314.625,1040.9258 Q1313.9063,1040.6602 1313.1875,1040.6602 Q1312.2813,1040.6602 1311.5313,1041.0508 Q1310.7813,1041.4414 1310.2031,1042.332 Q1309.625,1043.207 1309.625,1044.4102 L1309.625,1045.707 Q1309.625,1047.1602 1310.6719,1048.1289 Q1311.7344,1049.0977 1313.5938,1049.0977 Q1314.7031,1049.0977 1315.4844,1048.7852 Q1315.9219,1048.6133 1316.4375,1048.0977 Q1316.75,1047.7852 1316.9219,1047.6914 Q1317.0938,1047.5977 1317.3281,1047.5977 Q1317.7188,1047.5977 1318.0156,1047.9102 Q1318.3281,1048.207 1318.3281,1048.6133 Q1318.3281,1049.0195 1317.9219,1049.4883 Q1317.3281,1050.1758 1316.3906,1050.5664 Q1315.125,1051.0977 1313.6094,1051.0977 Q1311.8281,1051.0977 1310.4063,1050.3633 Q1309.25,1049.7695 1308.4375,1048.5039 Q1307.625,1047.2383 1307.625,1045.7539 L1307.625,1044.3945 Q1307.625,1042.832 1308.3438,1041.4883 Q1309.0781,1040.1289 1310.3594,1039.3945 Q1311.6563,1038.6602 1313.1094,1038.6602 Q1313.9688,1038.6602 1314.7188,1038.8633 Q1315.4844,1039.0664 1316.1406,1039.4727 Z " fill="#000000"/><text fill="#000000" font-family="sans-serif" font-size="20" font-style="italic" lengthAdjust="spacing" textLength="136" x="1327" y="1040.1563">«Value Object»</text><text fill="#000000" font-family="sans-serif" font-size="20" lengthAdjust="spacing" textLength="51" x="1369.5" y="1065.3125">Name</text><line style="stroke:#181818;stroke-width:0.5;" x1="1299" x2="1463" y1="1074.707" y2="1074.707"/><line style="stroke:#181818;stroke-width:0.5;" x1="1299" x2="1463" y1="1082.707" y2="1082.707"/></g><!--class Email--><g id="elem_Email"><rect codeLine="82" fill="#F1F1F1" height="76.3125" id="Email" rx="2.5" ry="2.5" style="stroke:#181818;stroke-width:0.5;" width="166" x="1700" y="1014.3945"/><ellipse cx="1716" cy="1044.5508" fill="#ADD1B2" rx="12" ry="12" style="stroke:#181818;stroke-width:1.0;"/><path d="M1718.1406,1039.4727 Q1718.3281,1039.2227 1718.5469,1039.0977 Q1718.7656,1038.957 1719.0156,1038.957 Q1719.4531,1038.957 1719.7344,1039.2695 Q1720.0156,1039.5664 1720.0156,1040.2852 L1720.0156,1041.9883 Q1720.0156,1042.707 1719.7344,1043.0195 Q1719.4531,1043.332 1719.0156,1043.332 Q1718.625,1043.332 1718.375,1043.0977 Q1718.125,1042.8789 1718.0156,1042.2695 Q1717.9531,1041.8477 1717.7344,1041.6289 Q1717.3438,1041.1914 1716.625,1040.9258 Q1715.9063,1040.6602 1715.1875,1040.6602 Q1714.2813,1040.6602 1713.5313,1041.0508 Q1712.7813,1041.4414 1712.2031,1042.332 Q1711.625,1043.207 1711.625,1044.4102 L1711.625,1045.707 Q1711.625,1047.1602 1712.6719,1048.1289 Q1713.7344,1049.0977 1715.5938,1049.0977 Q1716.7031,1049.0977 1717.4844,1048.7852 Q1717.9219,1048.6133 1718.4375,1048.0977 Q1718.75,1047.7852 1718.9219,1047.6914 Q1719.0938,1047.5977 1719.3281,1047.5977 Q1719.7188,1047.5977 1720.0156,1047.9102 Q1720.3281,1048.207 1720.3281,1048.6133 Q1720.3281,1049.0195 1719.9219,1049.4883 Q1719.3281,1050.1758 1718.3906,1050.5664 Q1717.125,1051.0977 1715.6094,1051.0977 Q1713.8281,1051.0977 1712.4063,1050.3633 Q1711.25,1049.7695 1710.4375,1048.5039 Q1709.625,1047.2383 1709.625,1045.7539 L1709.625,1044.3945 Q1709.625,1042.832 1710.3438,1041.4883 Q1711.0781,1040.1289 1712.3594,1039.3945 Q1713.6563,1038.6602 1715.1094,1038.6602 Q1715.9688,1038.6602 1716.7188,1038.8633 Q1717.4844,1039.0664 1718.1406,1039.4727 Z " fill="#000000"/><text fill="#000000" font-family="sans-serif" font-size="20" font-style="italic" lengthAdjust="spacing" textLength="136" x="1729" y="1040.1563">«Value Object»</text><text fill="#000000" font-family="sans-serif" font-size="20" lengthAdjust="spacing" textLength="48" x="1773" y="1065.3125">Email</text><line style="stroke:#181818;stroke-width:0.5;" x1="1701" x2="1865" y1="1074.707" y2="1074.707"/><line style="stroke:#181818;stroke-width:0.5;" x1="1701" x2="1865" y1="1082.707" y2="1082.707"/></g><!--class PhoneNumber--><g id="elem_PhoneNumber"><rect codeLine="85" fill="#F1F1F1" height="76.3125" id="PhoneNumber" rx="2.5" ry="2.5" style="stroke:#181818;stroke-width:0.5;" width="166" x="1901" y="1014.3945"/><ellipse cx="1917" cy="1044.5508" fill="#ADD1B2" rx="12" ry="12" style="stroke:#181818;stroke-width:1.0;"/><path d="M1919.1406,1039.4727 Q1919.3281,1039.2227 1919.5469,1039.0977 Q1919.7656,1038.957 1920.0156,1038.957 Q1920.4531,1038.957 1920.7344,1039.2695 Q1921.0156,1039.5664 1921.0156,1040.2852 L1921.0156,1041.9883 Q1921.0156,1042.707 1920.7344,1043.0195 Q1920.4531,1043.332 1920.0156,1043.332 Q1919.625,1043.332 1919.375,1043.0977 Q1919.125,1042.8789 1919.0156,1042.2695 Q1918.9531,1041.8477 1918.7344,1041.6289 Q1918.3438,1041.1914 1917.625,1040.9258 Q1916.9063,1040.6602 1916.1875,1040.6602 Q1915.2813,1040.6602 1914.5313,1041.0508 Q1913.7813,1041.4414 1913.2031,1042.332 Q1912.625,1043.207 1912.625,1044.4102 L1912.625,1045.707 Q1912.625,1047.1602 1913.6719,1048.1289 Q1914.7344,1049.0977 1916.5938,1049.0977 Q1917.7031,1049.0977 1918.4844,1048.7852 Q1918.9219,1048.6133 1919.4375,1048.0977 Q1919.75,1047.7852 1919.9219,1047.6914 Q1920.0938,1047.5977 1920.3281,1047.5977 Q1920.7188,1047.5977 1921.0156,1047.9102 Q1921.3281,1048.207 1921.3281,1048.6133 Q1921.3281,1049.0195 1920.9219,1049.4883 Q1920.3281,1050.1758 1919.3906,1050.5664 Q1918.125,1051.0977 1916.6094,1051.0977 Q1914.8281,1051.0977 1913.4063,1050.3633 Q1912.25,1049.7695 1911.4375,1048.5039 Q1910.625,1047.2383 1910.625,1045.7539 L1910.625,1044.3945 Q1910.625,1042.832 1911.3438,1041.4883 Q1912.0781,1040.1289 1913.3594,1039.3945 Q1914.6563,1038.6602 1916.1094,1038.6602 Q1916.9688,1038.6602 1917.7188,1038.8633 Q1918.4844,1039.0664 1919.1406,1039.4727 Z " fill="#000000"/><text fill="#000000" font-family="sans-serif" font-size="20" font-style="italic" lengthAdjust="spacing" textLength="136" x="1930" y="1040.1563">«Value Object»</text><text fill="#000000" font-family="sans-serif" font-size="20" lengthAdjust="spacing" textLength="123" x="1936.5" y="1065.3125">PhoneNumber</text><line style="stroke:#181818;stroke-width:0.5;" x1="1902" x2="2066" y1="1074.707" y2="1074.707"/><line style="stroke:#181818;stroke-width:0.5;" x1="1902" x2="2066" y1="1082.707" y2="1082.707"/></g><!--class Description--><g id="elem_Description"><rect codeLine="88" fill="#F1F1F1" height="76.3125" id="Description" rx="2.5" ry="2.5" style="stroke:#181818;stroke-width:0.5;" width="166" x="1499" y="1014.3945"/><ellipse cx="1515" cy="1044.5508" fill="#ADD1B2" rx="12" ry="12" style="stroke:#181818;stroke-width:1.0;"/><path d="M1517.1406,1039.4727 Q1517.3281,1039.2227 1517.5469,1039.0977 Q1517.7656,1038.957 1518.0156,1038.957 Q1518.4531,1038.957 1518.7344,1039.2695 Q1519.0156,1039.5664 1519.0156,1040.2852 L1519.0156,1041.9883 Q1519.0156,1042.707 1518.7344,1043.0195 Q1518.4531,1043.332 1518.0156,1043.332 Q1517.625,1043.332 1517.375,1043.0977 Q1517.125,1042.8789 1517.0156,1042.2695 Q1516.9531,1041.8477 1516.7344,1041.6289 Q1516.3438,1041.1914 1515.625,1040.9258 Q1514.9063,1040.6602 1514.1875,1040.6602 Q1513.2813,1040.6602 1512.5313,1041.0508 Q1511.7813,1041.4414 1511.2031,1042.332 Q1510.625,1043.207 1510.625,1044.4102 L1510.625,1045.707 Q1510.625,1047.1602 1511.6719,1048.1289 Q1512.7344,1049.0977 1514.5938,1049.0977 Q1515.7031,1049.0977 1516.4844,1048.7852 Q1516.9219,1048.6133 1517.4375,1048.0977 Q1517.75,1047.7852 1517.9219,1047.6914 Q1518.0938,1047.5977 1518.3281,1047.5977 Q1518.7188,1047.5977 1519.0156,1047.9102 Q1519.3281,1048.207 1519.3281,1048.6133 Q1519.3281,1049.0195 1518.9219,1049.4883 Q1518.3281,1050.1758 1517.3906,1050.5664 Q1516.125,1051.0977 1514.6094,1051.0977 Q1512.8281,1051.0977 1511.4063,1050.3633 Q1510.25,1049.7695 1509.4375,1048.5039 Q1508.625,1047.2383 1508.625,1045.7539 L1508.625,1044.3945 Q1508.625,1042.832 1509.3438,1041.4883 Q1510.0781,1040.1289 1511.3594,1039.3945 Q1512.6563,1038.6602 1514.1094,1038.6602 Q1514.9688,1038.6602 1515.7188,1038.8633 Q1516.4844,1039.0664 1517.1406,1039.4727 Z " fill="#000000"/><text fill="#000000" font-family="sans-serif" font-size="20" font-style="italic" lengthAdjust="spacing" textLength="136" x="1528" y="1040.1563">«Value Object»</text><text fill="#000000" font-family="sans-serif" font-size="20" lengthAdjust="spacing" textLength="98" x="1547" y="1065.3125">Description</text><line style="stroke:#181818;stroke-width:0.5;" x1="1500" x2="1664" y1="1074.707" y2="1074.707"/><line style="stroke:#181818;stroke-width:0.5;" x1="1500" x2="1664" y1="1082.707" y2="1082.707"/></g><!--class DateInterval--><g id="elem_DateInterval"><rect codeLine="105" fill="#F1F1F1" height="76.3125" id="DateInterval" rx="2.5" ry="2.5" style="stroke:#181818;stroke-width:0.5;" width="166" x="700" y="561.8945"/><ellipse cx="716" cy="592.0508" fill="#ADD1B2" rx="12" ry="12" style="stroke:#181818;stroke-width:1.0;"/><path d="M718.1406,586.9727 Q718.3281,586.7227 718.5469,586.5977 Q718.7656,586.457 719.0156,586.457 Q719.4531,586.457 719.7344,586.7695 Q720.0156,587.0664 720.0156,587.7852 L720.0156,589.4883 Q720.0156,590.207 719.7344,590.5195 Q719.4531,590.832 719.0156,590.832 Q718.625,590.832 718.375,590.5977 Q718.125,590.3789 718.0156,589.7695 Q717.9531,589.3477 717.7344,589.1289 Q717.3438,588.6914 716.625,588.4258 Q715.9063,588.1602 715.1875,588.1602 Q714.2813,588.1602 713.5313,588.5508 Q712.7813,588.9414 712.2031,589.832 Q711.625,590.707 711.625,591.9102 L711.625,593.207 Q711.625,594.6602 712.6719,595.6289 Q713.7344,596.5977 715.5938,596.5977 Q716.7031,596.5977 717.4844,596.2852 Q717.9219,596.1133 718.4375,595.5977 Q718.75,595.2852 718.9219,595.1914 Q719.0938,595.0977 719.3281,595.0977 Q719.7188,595.0977 720.0156,595.4102 Q720.3281,595.707 720.3281,596.1133 Q720.3281,596.5195 719.9219,596.9883 Q719.3281,597.6758 718.3906,598.0664 Q717.125,598.5977 715.6094,598.5977 Q713.8281,598.5977 712.4063,597.8633 Q711.25,597.2695 710.4375,596.0039 Q709.625,594.7383 709.625,593.2539 L709.625,591.8945 Q709.625,590.332 710.3438,588.9883 Q711.0781,587.6289 712.3594,586.8945 Q713.6563,586.1602 715.1094,586.1602 Q715.9688,586.1602 716.7188,586.3633 Q717.4844,586.5664 718.1406,586.9727 Z " fill="#000000"/><text fill="#000000" font-family="sans-serif" font-size="20" font-style="italic" lengthAdjust="spacing" textLength="136" x="729" y="587.6563">«Value Object»</text><text fill="#000000" font-family="sans-serif" font-size="20" lengthAdjust="spacing" textLength="106" x="744" y="612.8125">DateInterval</text><line style="stroke:#181818;stroke-width:0.5;" x1="701" x2="865" y1="622.207" y2="622.207"/><line style="stroke:#181818;stroke-width:0.5;" x1="701" x2="865" y1="630.207" y2="630.207"/></g><!--link Figure to DSLDescription--><g id="link_Figure_DSLDescription"><path codeLine="36" d="M820.29,129.3345 C717.56,134.3245 478.28,151.4245 286,206.8945 C249.88,217.3145 238.71,218.8645 209,241.8945 C178.52,265.5245 151.51,299.9845 132.96,326.9645 " fill="none" id="Figure-to-DSLDescription" style="stroke:#181818;stroke-width:1.0;"/><polygon fill="#181818" points="130.05,331.2345,138.4244,326.0509,132.8662,327.1031,131.8141,321.5449,130.05,331.2345" style="stroke:#181818;stroke-width:1.0;"/><text fill="#000000" font-family="sans-serif" font-size="20" lengthAdjust="spacing" textLength="136" x="287" y="228.6563">DSLDescription</text><text fill="#000000" font-family="sans-serif" font-size="20" lengthAdjust="spacing" textLength="11" x="121.847" y="318.9099">1</text></g><!--link Figure to Keyword--><g id="link_Figure_Keyword"><path codeLine="37" d="M820.3,138.9845 C763.56,154.1845 671.77,185.7845 612,241.8945 C584.58,267.6445 558.22,301.0445 539.31,327.0545 " fill="none" id="Figure-to-Keyword" style="stroke:#181818;stroke-width:1.0;"/><polygon fill="#181818" points="536.34,331.1645,544.8509,326.2082,539.2664,327.1104,538.3642,321.5259,536.34,331.1645" style="stroke:#181818;stroke-width:1.0;"/><text fill="#000000" font-family="sans-serif" font-size="20" lengthAdjust="spacing" textLength="85" x="656" y="228.6563">keywords</text><text fill="#000000" font-family="sans-serif" font-size="20" lengthAdjust="spacing" textLength="31" x="506.8468" y="319.1463">1..*</text></g><!--link Figure to Exclusivity--><g id="link_Figure_Exclusivity"><path codeLine="38" d="M820.08,162.6845 C804.06,175.3945 787.13,190.6345 774,206.8945 C744.55,243.3545 721.31,291.9445 707,326.2745 " fill="none" id="Figure-to-Exclusivity" style="stroke:#181818;stroke-width:1.0;"/><polygon fill="#181818" points="704.95,331.2345,712.0681,324.4277,706.8487,326.6091,704.6673,321.3897,704.95,331.2345" style="stroke:#181818;stroke-width:1.0;"/><text fill="#000000" font-family="sans-serif" font-size="20" lengthAdjust="spacing" textLength="87" x="775" y="228.6563">exclusivity</text><text fill="#000000" font-family="sans-serif" font-size="20" lengthAdjust="spacing" textLength="11" x="695.2967" y="318.9099">1</text></g><!--link Figure to Code--><g id="link_Figure_Code"><path codeLine="39" d="M871,177.0345 C871,220.9045 871,284.2145 871,325.8145 " fill="none" id="Figure-to-Code" style="stroke:#181818;stroke-width:1.0;"/><polygon fill="#181818" points="871,331.0345,875,322.0345,871,326.0345,867,322.0345,871,331.0345" style="stroke:#181818;stroke-width:1.0;"/><text fill="#000000" font-family="sans-serif" font-size="20" lengthAdjust="spacing" textLength="43" x="872" y="228.6563">code</text><text fill="#000000" font-family="sans-serif" font-size="20" lengthAdjust="spacing" textLength="11" x="859.1578" y="318.9963">1</text></g><!--link Figure to Version--><g id="link_Figure_Version"><path codeLine="40" d="M915.84,177.0445 C933.58,196.9945 953.99,220.3345 972,241.8945 C995.33,269.8245 1020.75,302.0045 1040.12,326.9145 " fill="none" id="Figure-to-Version" style="stroke:#181818;stroke-width:1.0;"/><polygon fill="#181818" points="1043.42,331.1645,1041.0664,321.601,1040.3562,327.2131,1034.7441,326.503,1043.42,331.1645" style="stroke:#181818;stroke-width:1.0;"/><text fill="#000000" font-family="sans-serif" font-size="20" lengthAdjust="spacing" textLength="62" x="965" y="228.6563">version</text><text fill="#000000" font-family="sans-serif" font-size="20" lengthAdjust="spacing" textLength="11" x="1027.2015" y="319.1463">1</text></g><!--link Figure to FigureStatus--><g id="link_Figure_FigureStatus"><path codeLine="41" d="M820.29,128.1245 C729.65,131.8245 537.45,150.7445 410,241.8945 C378.55,264.3845 351.93,299.4245 334.08,326.9345 " fill="none" id="Figure-to-FigureStatus" style="stroke:#181818;stroke-width:1.0;"/><polygon fill="#181818" points="331.29,331.2745,339.5215,325.867,333.9938,327.0686,332.7921,321.5409,331.29,331.2745" style="stroke:#181818;stroke-width:1.0;"/><text fill="#000000" font-family="sans-serif" font-size="20" lengthAdjust="spacing" textLength="105" x="466" y="228.6563">figureStatus</text><text fill="#000000" font-family="sans-serif" font-size="20" lengthAdjust="spacing" textLength="11" x="322.8065" y="318.9562">1</text></g><!--link DSLValidate to DSLDescription--><g id="link_DSLValidate_DSLDescription"><path codeLine="44" d="M107,164.5245 C107,208.1345 107,280.3145 107,326.0545 " fill="none" id="DSLValidate-to-DSLDescription" style="stroke:#181818;stroke-width:1.0;stroke-dasharray:7.0,7.0;"/><polygon fill="#181818" points="107,331.2245,111,322.2245,107,326.2245,103,322.2245,107,331.2245" style="stroke:#181818;stroke-width:1.0;"/><text fill="#000000" font-family="sans-serif" font-size="20" lengthAdjust="spacing" textLength="77" x="108" y="228.6563">validates</text><text fill="#000000" font-family="sans-serif" font-size="20" lengthAdjust="spacing" textLength="11" x="95.1234" y="318.8983">1</text></g><!--link Exclusivity to Customer--><g id="link_Exclusivity_Customer"><path codeLine="47" d="M645.77,407.4945 C633.41,419.7745 621.19,434.3245 613,449.8945 C597.75,478.8945 590.48,514.8545 587.02,544.1945 " fill="none" id="Exclusivity-to-Customer" style="stroke:#181818;stroke-width:1.0;"/><polygon fill="#181818" points="586.46,549.2145,591.4133,540.7019,587.0028,544.2441,583.4606,539.8335,586.46,549.2145" style="stroke:#181818;stroke-width:1.0;"/><text fill="#000000" font-family="sans-serif" font-size="20" lengthAdjust="spacing" textLength="101" x="614" y="471.6563">exclusive to</text><text fill="#000000" font-family="sans-serif" font-size="20" lengthAdjust="spacing" textLength="11" x="575.0705" y="536.8613">1</text></g><!--link Category to CategoryStatus--><g id="link_Category_CategoryStatus"><path codeLine="59" d="M1281.06,420.0045 C1278.54,429.8145 1276.33,440.1045 1275,449.8945 C1270.09,486.0245 1277.06,526.9945 1284.42,556.8245 " fill="none" id="Category-to-CategoryStatus" style="stroke:#181818;stroke-width:1.0;"/><polygon fill="#181818" points="1285.7,561.8845,1287.3641,552.1773,1284.4705,557.0381,1279.6097,554.1445,1285.7,561.8845" style="stroke:#181818;stroke-width:1.0;"/><text fill="#000000" font-family="sans-serif" font-size="20" lengthAdjust="spacing" textLength="133" x="1276" y="471.6563">categoryStatus</text><text fill="#000000" font-family="sans-serif" font-size="20" lengthAdjust="spacing" textLength="11" x="1272.0225" y="549.5838">1</text></g><!--link Figure to Category--><g id="link_Figure_Category"><path codeLine="62" d="M921.54,139.6345 C983.74,156.2245 1090.94,189.8945 1171,241.8945 C1201.6,261.7645 1230.7,290.1045 1253.2,314.9245 " fill="none" id="Figure-to-Category" style="stroke:#181818;stroke-width:1.0;"/><polygon fill="#181818" points="1256.76,318.8745,1253.7304,309.5032,1253.4223,315.1517,1247.7738,314.8436,1256.76,318.8745" style="stroke:#181818;stroke-width:1.0;"/><text fill="#000000" font-family="sans-serif" font-size="20" lengthAdjust="spacing" textLength="92" x="1157" y="228.6563">categories</text><text fill="#000000" font-family="sans-serif" font-size="20" lengthAdjust="spacing" textLength="31" x="1218.6183" y="306.5418">1..*</text></g><!--link Figure to ShowDesigner--><g id="link_Figure_ShowDesigner"><path codeLine="71" d="M921.8,132.4945 C1039.39,145.2145 1325.84,181.7145 1399,241.8945 C1574.64,386.3645 1639.11,669.4745 1659.15,788.7945 " fill="none" id="Figure-to-ShowDesigner" style="stroke:#181818;stroke-width:1.0;"/><polygon fill="#181818" points="1660.01,794.0045,1662.4894,784.4729,1659.195,789.0714,1654.5964,785.7769,1660.01,794.0045" style="stroke:#181818;stroke-width:1.0;"/><text fill="#000000" font-family="sans-serif" font-size="20" lengthAdjust="spacing" textLength="94" x="1566" y="471.6563">created by</text><text fill="#000000" font-family="sans-serif" font-size="20" lengthAdjust="spacing" textLength="11" x="1647.4878" y="782.0216">1</text></g><!--link ShowDesigner to Name--><g id="link_ShowDesigner_Name"><path codeLine="92" d="M1586.37,892.7845 C1553.23,913.0445 1514.98,937.7245 1482,962.3945 C1462.16,977.2345 1441.44,995.0345 1423.97,1010.8145 " fill="none" id="ShowDesigner-to-Name" style="stroke:#181818;stroke-width:1.0;"/><polygon fill="#181818" points="1420.06,1014.3545,1429.419,1011.2872,1423.7694,1011.0018,1424.0547,1005.3522,1420.06,1014.3545" style="stroke:#181818;stroke-width:1.0;"/><text fill="#000000" font-family="sans-serif" font-size="20" lengthAdjust="spacing" textLength="48" x="1532" y="949.1563">name</text><text fill="#000000" font-family="sans-serif" font-size="20" lengthAdjust="spacing" textLength="11" x="1414.4086" y="1002.049">1</text></g><!--link ShowDesigner to Email--><g id="link_ShowDesigner_Email"><path codeLine="93" d="M1659.48,895.4845 C1658.84,914.9445 1661.16,936.7945 1671,954.3945 C1674.13,959.9845 1677.93,958.4745 1683,962.3945 C1702.32,977.3145 1722.63,994.9845 1739.85,1010.6245 " fill="none" id="ShowDesigner-to-Email" style="stroke:#181818;stroke-width:1.0;"/><polygon fill="#181818" points="1743.71,1014.1345,1739.7516,1005.1162,1740.0142,1010.7669,1734.3634,1011.0295,1743.71,1014.1345" style="stroke:#181818;stroke-width:1.0;"/><text fill="#000000" font-family="sans-serif" font-size="20" lengthAdjust="spacing" textLength="46" x="1672" y="949.1563">email</text><text fill="#000000" font-family="sans-serif" font-size="20" lengthAdjust="spacing" textLength="11" x="1725.8515" y="1002.1117">1</text></g><!--link ShowDesigner to PhoneNumber--><g id="link_ShowDesigner_PhoneNumber"><path codeLine="94" d="M1747.72,883.5445 C1789.74,904.5345 1841.15,932.4445 1884,962.3945 C1904.37,976.6245 1925.16,994.4945 1942.48,1010.4845 " fill="none" id="ShowDesigner-to-PhoneNumber" style="stroke:#181818;stroke-width:1.0;"/><polygon fill="#181818" points="1946.35,1014.0745,1942.4645,1005.0245,1942.6815,1010.6772,1937.0288,1010.8942,1946.35,1014.0745" style="stroke:#181818;stroke-width:1.0;"/><text fill="#000000" font-family="sans-serif" font-size="20" lengthAdjust="spacing" textLength="121" x="1868" y="949.1563">phoneNumber</text><text fill="#000000" font-family="sans-serif" font-size="20" lengthAdjust="spacing" textLength="11" x="1928.7427" y="1002.0425">1</text></g><!--link Figure to Description--><g id="link_Figure_Description"><path codeLine="97" d="M921.72,128.1745 C1129.92,132.7345 1908,163.4645 1908,368.3945 C1908,368.3945 1908,368.3945 1908,845.8945 C1908,895.0945 1923.47,922.5045 1886,954.3945 C1868.81,969.0245 1703.96,954.0045 1683,962.3945 C1657.37,972.6545 1633.89,992.3945 1616.03,1010.6845 " fill="none" id="Figure-to-Description" style="stroke:#181818;stroke-width:1.0;"/><polygon fill="#181818" points="1612.53,1014.3245,1621.649,1010.6037,1615.9933,1010.7182,1615.8788,1005.0625,1612.53,1014.3245" style="stroke:#181818;stroke-width:1.0;"/><text fill="#000000" font-family="sans-serif" font-size="20" lengthAdjust="spacing" textLength="95" x="1909" y="608.1563">description</text><text fill="#000000" font-family="sans-serif" font-size="20" lengthAdjust="spacing" textLength="11" x="1605.5192" y="1002.0142">1</text></g><!--link Category to Description--><g id="link_Category_Description"><path codeLine="100" d="M1354.67,389.8045 C1384.97,402.6145 1420.56,422.2145 1444,449.8945 C1454.63,462.4445 1451.74,469.0145 1456,484.8945 C1511.05,690.2745 1492.24,749.2045 1548,954.3945 C1552.92,972.4945 1559.53,992.0945 1565.62,1008.8945 " fill="none" id="Category-to-Description" style="stroke:#181818;stroke-width:1.0;"/><polygon fill="#181818" points="1567.49,1014.0145,1568.1639,1004.1888,1565.7767,1009.3172,1560.6482,1006.93,1567.49,1014.0145" style="stroke:#181818;stroke-width:1.0;"/><text fill="#000000" font-family="sans-serif" font-size="20" lengthAdjust="spacing" textLength="95" x="1501" y="704.1563">description</text><text fill="#000000" font-family="sans-serif" font-size="20" lengthAdjust="spacing" textLength="11" x="1553.426" y="1001.9733">1</text></g><!--link Category to Name--><g id="link_Category_Name"><path codeLine="101" d="M1354.5,394.6545 C1377.34,407.4945 1401.19,425.6945 1414,449.8945 C1465.3,546.7745 1410.45,888.3345 1388.9,1008.8845 " fill="none" id="Category-to-Name" style="stroke:#181818;stroke-width:1.0;"/><polygon fill="#181818" points="1387.97,1014.1045,1393.5029,1005.9567,1388.8569,1009.1838,1385.6298,1004.5377,1387.97,1014.1045" style="stroke:#181818;stroke-width:1.0;"/><text fill="#000000" font-family="sans-serif" font-size="20" lengthAdjust="spacing" textLength="48" x="1432" y="704.1563">name</text><text fill="#000000" font-family="sans-serif" font-size="20" lengthAdjust="spacing" textLength="11" x="1377.1951" y="1002.0771">1</text></g><!--link Exclusivity to DateInterval--><g id="link_Exclusivity_DateInterval"><path codeLine="108" d="M705.99,407.6145 C722.46,448.5345 748.86,514.1145 766.07,556.8545 " fill="none" id="Exclusivity-to-DateInterval" style="stroke:#181818;stroke-width:1.0;"/><polygon fill="#181818" points="768.02,561.6845,768.3653,551.8417,766.1508,557.0471,760.9454,554.8325,768.02,561.6845" style="stroke:#181818;stroke-width:1.0;"/><text fill="#000000" font-family="sans-serif" font-size="20" lengthAdjust="spacing" textLength="70" x="733" y="471.6563">duration</text><text fill="#000000" font-family="sans-serif" font-size="20" lengthAdjust="spacing" textLength="11" x="753.756" y="549.3519">1</text></g><!--SRC=[ZLLDRzim3BtxLn2-11YmODtHA0mCRG8KBRe27dfNRCRH_A50bjDcHVxxQDTogCoPbOCbCa_Fv2D5DuMizqABgbHfWHbak1LjQTQgDedyW_3zMn3iHLg8726yQnkZAjGGmaSG0FtIKZGDZFxRsrLjf3d6CMsrKYQEFthSAJWndhNCMqqhWKIUQyo5GJhYS0wO_p3o05JMGLz5sIBytFp6T1htYhgHglQ1tYTFzzYaMkxDx0cisse8E372j8tF2nxn-APqvWDTlQTbsyW3wS04cGwQo6H6UX8mGNsGAJ9alou6QR_6yDuxh4sEy2Qyo3owiFyziLn-2Mqs4HIVcsQAcUKH0PwDAMnNqWXIUaxzEnGoWiFdPWh32nB1bbc33bojKGpkN2wd5JaC04l4wpCIEKwRr71HpjaZ6ENSZJlYpPK-NjuEzy9PqDprw3lJedrwSp5IZucSFJOBXu-AvDW-JTQtZAKP2IG9ogL8TkgDT9TvtO-Swt8um3b9vjgVar5e6kbz6MoEFBHa9pGvdI1-oSfh1ZqBFzog4hBq0RxiL8tFRRNfavyVRBvJRU78EihbUWVHkgGYgEbv7TCdH9tVBTTHB9i8zcTZhdZZzE8NDMDpowEzPpcku5dsl7zNFrwU7c1D7rUaaLXq7RorXjLwg0bnFjI6vhMOAVdKLE6dATvMYpxOK_0N]--></g></svg>