<?xml version="1.0" encoding="UTF-8" standalone="no"?><svg xmlns="http://www.w3.org/2000/svg" xmlns:xlink="http://www.w3.org/1999/xlink" contentStyleType="text/css" height="699px" preserveAspectRatio="none" style="width:1780px;height:699px;background:#FFFFFF;" version="1.1" viewBox="0 0 1780 699" width="1780px" zoomAndPan="magnify"><defs/><g><!--cluster CRMCollaborator --><g id="cluster_CRMCollaborator "><path d="M560.5,249.8945 L729.5,249.8945 A3.75,3.75 0 0 1 732,252.3945 L739,281.0508 L775.5,281.0508 A2.5,2.5 0 0 1 778,283.5508 L778,433.3945 A2.5,2.5 0 0 1 775.5,435.8945 L560.5,435.8945 A2.5,2.5 0 0 1 558,433.3945 L558,252.3945 A2.5,2.5 0 0 1 560.5,249.8945 " fill="none" style="stroke:#000000;stroke-width:1.5;"/><line style="stroke:#000000;stroke-width:1.5;" x1="558" x2="739" y1="281.0508" y2="281.0508"/><text fill="#000000" font-family="sans-serif" font-size="20" font-weight="bold" lengthAdjust="spacing" textLength="162" x="562" y="272.6563">CRMCollaborator</text><text fill="#000000" font-family="sans-serif" font-size="20" font-style="italic" lengthAdjust="spacing" textLength="111" x="616.5" y="303.8125">«aggregate»</text></g><!--cluster ModelOfDrone --><g id="cluster_ModelOfDrone "><path d="M804.5,249.8945 L948.5,249.8945 A3.75,3.75 0 0 1 951,252.3945 L958,281.0508 L958.5,281.0508 A2.5,2.5 0 0 1 961,283.5508 L961,433.3945 A2.5,2.5 0 0 1 958.5,435.8945 L804.5,435.8945 A2.5,2.5 0 0 1 802,433.3945 L802,252.3945 A2.5,2.5 0 0 1 804.5,249.8945 " fill="none" style="stroke:#000000;stroke-width:1.5;"/><line style="stroke:#000000;stroke-width:1.5;" x1="802" x2="958" y1="281.0508" y2="281.0508"/><text fill="#000000" font-family="sans-serif" font-size="20" font-weight="bold" lengthAdjust="spacing" textLength="137" x="806" y="272.6563">ModelOfDrone</text><text fill="#000000" font-family="sans-serif" font-size="20" font-style="italic" lengthAdjust="spacing" textLength="111" x="830" y="303.8125">«aggregate»</text></g><!--cluster Figure --><g id="cluster_Figure "><path d="M987.5,249.8945 L1054.5,249.8945 A3.75,3.75 0 0 1 1057,252.3945 L1064,281.0508 L1116.5,281.0508 A2.5,2.5 0 0 1 1119,283.5508 L1119,433.3945 A2.5,2.5 0 0 1 1116.5,435.8945 L987.5,435.8945 A2.5,2.5 0 0 1 985,433.3945 L985,252.3945 A2.5,2.5 0 0 1 987.5,249.8945 " fill="none" style="stroke:#000000;stroke-width:1.5;"/><line style="stroke:#000000;stroke-width:1.5;" x1="985" x2="1064" y1="281.0508" y2="281.0508"/><text fill="#000000" font-family="sans-serif" font-size="20" font-weight="bold" lengthAdjust="spacing" textLength="60" x="989" y="272.6563">Figure</text><text fill="#000000" font-family="sans-serif" font-size="20" font-style="italic" lengthAdjust="spacing" textLength="111" x="1000.5" y="303.8125">«aggregate»</text></g><!--cluster ShowRequest --><g id="cluster_ShowRequest "><path d="M1145.5,249.8945 L1282.5,249.8945 A3.75,3.75 0 0 1 1285,252.3945 L1292,281.0508 L1328.5,281.0508 A2.5,2.5 0 0 1 1331,283.5508 L1331,433.3945 A2.5,2.5 0 0 1 1328.5,435.8945 L1145.5,435.8945 A2.5,2.5 0 0 1 1143,433.3945 L1143,252.3945 A2.5,2.5 0 0 1 1145.5,249.8945 " fill="none" style="stroke:#000000;stroke-width:1.5;"/><line style="stroke:#000000;stroke-width:1.5;" x1="1143" x2="1292" y1="281.0508" y2="281.0508"/><text fill="#000000" font-family="sans-serif" font-size="20" font-weight="bold" lengthAdjust="spacing" textLength="130" x="1147" y="272.6563">ShowRequest</text><text fill="#000000" font-family="sans-serif" font-size="20" font-style="italic" lengthAdjust="spacing" textLength="111" x="1185.5" y="303.8125">«aggregate»</text></g><!--cluster ShowProposal --><g id="cluster_ShowProposal "><path d="M8.5,6.8945 L151.5,6.8945 A3.75,3.75 0 0 1 154,9.3945 L161,38.0508 L531.5,38.0508 A2.5,2.5 0 0 1 534,40.5508 L534,420.8945 A2.5,2.5 0 0 1 531.5,423.3945 L8.5,423.3945 A2.5,2.5 0 0 1 6,420.8945 L6,9.3945 A2.5,2.5 0 0 1 8.5,6.8945 " fill="none" style="stroke:#000000;stroke-width:1.5;"/><line style="stroke:#000000;stroke-width:1.5;" x1="6" x2="161" y1="38.0508" y2="38.0508"/><text fill="#000000" font-family="sans-serif" font-size="20" font-weight="bold" lengthAdjust="spacing" textLength="136" x="10" y="29.6563">ShowProposal</text><text fill="#000000" font-family="sans-serif" font-size="20" font-style="italic" lengthAdjust="spacing" textLength="111" x="218.5" y="60.8125">«aggregate»</text></g><!--cluster Shared--><g id="cluster_Shared"><path d="M1149.5,556.8945 L1217.5,556.8945 A3.75,3.75 0 0 1 1220,559.3945 L1227,588.0508 L1770.5,588.0508 A2.5,2.5 0 0 1 1773,590.5508 L1773,690.3945 A2.5,2.5 0 0 1 1770.5,692.8945 L1149.5,692.8945 A2.5,2.5 0 0 1 1147,690.3945 L1147,559.3945 A2.5,2.5 0 0 1 1149.5,556.8945 " fill="none" style="stroke:#000000;stroke-width:1.5;"/><line style="stroke:#000000;stroke-width:1.5;" x1="1147" x2="1227" y1="588.0508" y2="588.0508"/><text fill="#000000" font-family="sans-serif" font-size="20" font-weight="bold" lengthAdjust="spacing" textLength="67" x="1151" y="579.6563">Shared</text></g><!--class CRMCollaborator--><g id="elem_CRMCollaborator"><rect codeLine="4" fill="#F1F1F1" height="101.4688" id="CRMCollaborator" rx="2.5" ry="2.5" style="stroke:#181818;stroke-width:0.5;" width="187" x="574.5" y="318.8945"/><ellipse cx="590.5" cy="361.6289" fill="#ADD1B2" rx="12" ry="12" style="stroke:#181818;stroke-width:1.0;"/><path d="M592.6406,356.5508 Q592.8281,356.3008 593.0469,356.1758 Q593.2656,356.0352 593.5156,356.0352 Q593.9531,356.0352 594.2344,356.3477 Q594.5156,356.6445 594.5156,357.3633 L594.5156,359.0664 Q594.5156,359.7852 594.2344,360.0977 Q593.9531,360.4102 593.5156,360.4102 Q593.125,360.4102 592.875,360.1758 Q592.625,359.957 592.5156,359.3477 Q592.4531,358.9258 592.2344,358.707 Q591.8438,358.2695 591.125,358.0039 Q590.4063,357.7383 589.6875,357.7383 Q588.7813,357.7383 588.0313,358.1289 Q587.2813,358.5195 586.7031,359.4102 Q586.125,360.2852 586.125,361.4883 L586.125,362.7852 Q586.125,364.2383 587.1719,365.207 Q588.2344,366.1758 590.0938,366.1758 Q591.2031,366.1758 591.9844,365.8633 Q592.4219,365.6914 592.9375,365.1758 Q593.25,364.8633 593.4219,364.7695 Q593.5938,364.6758 593.8281,364.6758 Q594.2188,364.6758 594.5156,364.9883 Q594.8281,365.2852 594.8281,365.6914 Q594.8281,366.0977 594.4219,366.5664 Q593.8281,367.2539 592.8906,367.6445 Q591.625,368.1758 590.1094,368.1758 Q588.3281,368.1758 586.9063,367.4414 Q585.75,366.8477 584.9375,365.582 Q584.125,364.3164 584.125,362.832 L584.125,361.4727 Q584.125,359.9102 584.8438,358.5664 Q585.5781,357.207 586.8594,356.4727 Q588.1563,355.7383 589.6094,355.7383 Q590.4688,355.7383 591.2188,355.9414 Q591.9844,356.1445 592.6406,356.5508 Z " fill="#000000"/><text fill="#000000" font-family="sans-serif" font-size="20" font-style="italic" lengthAdjust="spacing" textLength="71" x="646.5" y="344.6563">«Entity»</text><text fill="#000000" font-family="sans-serif" font-size="20" font-style="italic" lengthAdjust="spacing" textLength="56" x="654" y="369.8125">«root»</text><text fill="#000000" font-family="sans-serif" font-size="20" lengthAdjust="spacing" textLength="153" x="605.5" y="394.9688">CRMCollaborator</text><line style="stroke:#181818;stroke-width:0.5;" x1="575.5" x2="760.5" y1="404.3633" y2="404.3633"/><line style="stroke:#181818;stroke-width:0.5;" x1="575.5" x2="760.5" y1="412.3633" y2="412.3633"/></g><!--class Model--><g id="elem_Model"><rect codeLine="10" fill="#F1F1F1" height="101.4688" id="Model" rx="2.5" ry="2.5" style="stroke:#181818;stroke-width:0.5;" width="101" x="818.5" y="318.8945"/><ellipse cx="834.5" cy="361.6289" fill="#ADD1B2" rx="12" ry="12" style="stroke:#181818;stroke-width:1.0;"/><path d="M836.6406,356.5508 Q836.8281,356.3008 837.0469,356.1758 Q837.2656,356.0352 837.5156,356.0352 Q837.9531,356.0352 838.2344,356.3477 Q838.5156,356.6445 838.5156,357.3633 L838.5156,359.0664 Q838.5156,359.7852 838.2344,360.0977 Q837.9531,360.4102 837.5156,360.4102 Q837.125,360.4102 836.875,360.1758 Q836.625,359.957 836.5156,359.3477 Q836.4531,358.9258 836.2344,358.707 Q835.8438,358.2695 835.125,358.0039 Q834.4063,357.7383 833.6875,357.7383 Q832.7813,357.7383 832.0313,358.1289 Q831.2813,358.5195 830.7031,359.4102 Q830.125,360.2852 830.125,361.4883 L830.125,362.7852 Q830.125,364.2383 831.1719,365.207 Q832.2344,366.1758 834.0938,366.1758 Q835.2031,366.1758 835.9844,365.8633 Q836.4219,365.6914 836.9375,365.1758 Q837.25,364.8633 837.4219,364.7695 Q837.5938,364.6758 837.8281,364.6758 Q838.2188,364.6758 838.5156,364.9883 Q838.8281,365.2852 838.8281,365.6914 Q838.8281,366.0977 838.4219,366.5664 Q837.8281,367.2539 836.8906,367.6445 Q835.625,368.1758 834.1094,368.1758 Q832.3281,368.1758 830.9063,367.4414 Q829.75,366.8477 828.9375,365.582 Q828.125,364.3164 828.125,362.832 L828.125,361.4727 Q828.125,359.9102 828.8438,358.5664 Q829.5781,357.207 830.8594,356.4727 Q832.1563,355.7383 833.6094,355.7383 Q834.4688,355.7383 835.2188,355.9414 Q835.9844,356.1445 836.6406,356.5508 Z " fill="#000000"/><text fill="#000000" font-family="sans-serif" font-size="20" font-style="italic" lengthAdjust="spacing" textLength="71" x="847.5" y="344.6563">«Entity»</text><text fill="#000000" font-family="sans-serif" font-size="20" font-style="italic" lengthAdjust="spacing" textLength="56" x="855" y="369.8125">«root»</text><text fill="#000000" font-family="sans-serif" font-size="20" lengthAdjust="spacing" textLength="54" x="856" y="394.9688">Model</text><line style="stroke:#181818;stroke-width:0.5;" x1="819.5" x2="918.5" y1="404.3633" y2="404.3633"/><line style="stroke:#181818;stroke-width:0.5;" x1="819.5" x2="918.5" y1="412.3633" y2="412.3633"/></g><!--class Figure--><g id="elem_Figure"><rect codeLine="17" fill="#F1F1F1" height="101.4688" id="Figure" rx="2.5" ry="2.5" style="stroke:#181818;stroke-width:0.5;" width="101" x="1001.5" y="318.8945"/><ellipse cx="1017.5" cy="361.6289" fill="#ADD1B2" rx="12" ry="12" style="stroke:#181818;stroke-width:1.0;"/><path d="M1019.6406,356.5508 Q1019.8281,356.3008 1020.0469,356.1758 Q1020.2656,356.0352 1020.5156,356.0352 Q1020.9531,356.0352 1021.2344,356.3477 Q1021.5156,356.6445 1021.5156,357.3633 L1021.5156,359.0664 Q1021.5156,359.7852 1021.2344,360.0977 Q1020.9531,360.4102 1020.5156,360.4102 Q1020.125,360.4102 1019.875,360.1758 Q1019.625,359.957 1019.5156,359.3477 Q1019.4531,358.9258 1019.2344,358.707 Q1018.8438,358.2695 1018.125,358.0039 Q1017.4063,357.7383 1016.6875,357.7383 Q1015.7813,357.7383 1015.0313,358.1289 Q1014.2813,358.5195 1013.7031,359.4102 Q1013.125,360.2852 1013.125,361.4883 L1013.125,362.7852 Q1013.125,364.2383 1014.1719,365.207 Q1015.2344,366.1758 1017.0938,366.1758 Q1018.2031,366.1758 1018.9844,365.8633 Q1019.4219,365.6914 1019.9375,365.1758 Q1020.25,364.8633 1020.4219,364.7695 Q1020.5938,364.6758 1020.8281,364.6758 Q1021.2188,364.6758 1021.5156,364.9883 Q1021.8281,365.2852 1021.8281,365.6914 Q1021.8281,366.0977 1021.4219,366.5664 Q1020.8281,367.2539 1019.8906,367.6445 Q1018.625,368.1758 1017.1094,368.1758 Q1015.3281,368.1758 1013.9063,367.4414 Q1012.75,366.8477 1011.9375,365.582 Q1011.125,364.3164 1011.125,362.832 L1011.125,361.4727 Q1011.125,359.9102 1011.8438,358.5664 Q1012.5781,357.207 1013.8594,356.4727 Q1015.1563,355.7383 1016.6094,355.7383 Q1017.4688,355.7383 1018.2188,355.9414 Q1018.9844,356.1445 1019.6406,356.5508 Z " fill="#000000"/><text fill="#000000" font-family="sans-serif" font-size="20" font-style="italic" lengthAdjust="spacing" textLength="71" x="1030.5" y="344.6563">«Entity»</text><text fill="#000000" font-family="sans-serif" font-size="20" font-style="italic" lengthAdjust="spacing" textLength="56" x="1038" y="369.8125">«root»</text><text fill="#000000" font-family="sans-serif" font-size="20" lengthAdjust="spacing" textLength="55" x="1038.5" y="394.9688">Figure</text><line style="stroke:#181818;stroke-width:0.5;" x1="1002.5" x2="1101.5" y1="404.3633" y2="404.3633"/><line style="stroke:#181818;stroke-width:0.5;" x1="1002.5" x2="1101.5" y1="412.3633" y2="412.3633"/></g><!--class ShowRequest--><g id="elem_ShowRequest"><rect codeLine="23" fill="#F1F1F1" height="101.4688" id="ShowRequest" rx="2.5" ry="2.5" style="stroke:#181818;stroke-width:0.5;" width="156" x="1159" y="318.8945"/><ellipse cx="1175" cy="361.6289" fill="#ADD1B2" rx="12" ry="12" style="stroke:#181818;stroke-width:1.0;"/><path d="M1177.1406,356.5508 Q1177.3281,356.3008 1177.5469,356.1758 Q1177.7656,356.0352 1178.0156,356.0352 Q1178.4531,356.0352 1178.7344,356.3477 Q1179.0156,356.6445 1179.0156,357.3633 L1179.0156,359.0664 Q1179.0156,359.7852 1178.7344,360.0977 Q1178.4531,360.4102 1178.0156,360.4102 Q1177.625,360.4102 1177.375,360.1758 Q1177.125,359.957 1177.0156,359.3477 Q1176.9531,358.9258 1176.7344,358.707 Q1176.3438,358.2695 1175.625,358.0039 Q1174.9063,357.7383 1174.1875,357.7383 Q1173.2813,357.7383 1172.5313,358.1289 Q1171.7813,358.5195 1171.2031,359.4102 Q1170.625,360.2852 1170.625,361.4883 L1170.625,362.7852 Q1170.625,364.2383 1171.6719,365.207 Q1172.7344,366.1758 1174.5938,366.1758 Q1175.7031,366.1758 1176.4844,365.8633 Q1176.9219,365.6914 1177.4375,365.1758 Q1177.75,364.8633 1177.9219,364.7695 Q1178.0938,364.6758 1178.3281,364.6758 Q1178.7188,364.6758 1179.0156,364.9883 Q1179.3281,365.2852 1179.3281,365.6914 Q1179.3281,366.0977 1178.9219,366.5664 Q1178.3281,367.2539 1177.3906,367.6445 Q1176.125,368.1758 1174.6094,368.1758 Q1172.8281,368.1758 1171.4063,367.4414 Q1170.25,366.8477 1169.4375,365.582 Q1168.625,364.3164 1168.625,362.832 L1168.625,361.4727 Q1168.625,359.9102 1169.3438,358.5664 Q1170.0781,357.207 1171.3594,356.4727 Q1172.6563,355.7383 1174.1094,355.7383 Q1174.9688,355.7383 1175.7188,355.9414 Q1176.4844,356.1445 1177.1406,356.5508 Z " fill="#000000"/><text fill="#000000" font-family="sans-serif" font-size="20" font-style="italic" lengthAdjust="spacing" textLength="71" x="1215.5" y="344.6563">«Entity»</text><text fill="#000000" font-family="sans-serif" font-size="20" font-style="italic" lengthAdjust="spacing" textLength="56" x="1223" y="369.8125">«root»</text><text fill="#000000" font-family="sans-serif" font-size="20" lengthAdjust="spacing" textLength="122" x="1190" y="394.9688">ShowRequest</text><line style="stroke:#181818;stroke-width:0.5;" x1="1160" x2="1314" y1="404.3633" y2="404.3633"/><line style="stroke:#181818;stroke-width:0.5;" x1="1160" x2="1314" y1="412.3633" y2="412.3633"/></g><!--class ShowProposalStatus--><g id="elem_ShowProposalStatus"><rect codeLine="29" fill="#F1F1F1" height="76.3125" id="ShowProposalStatus" rx="2.5" ry="2.5" style="stroke:#181818;stroke-width:0.5;" width="217" x="22.5" y="331.3945"/><ellipse cx="38.5" cy="361.5508" fill="#EB937F" rx="12" ry="12" style="stroke:#181818;stroke-width:1.0;"/><path d="M36.4531,362.6133 L36.4531,365.5508 L41.5469,365.5508 L41.5469,364.457 Q41.5469,363.7383 41.8281,363.4414 Q42.1094,363.1289 42.5625,363.1289 Q43,363.1289 43.2813,363.4414 Q43.5625,363.7383 43.5625,364.457 L43.5625,367.5508 L34.125,367.5508 Q33.4063,367.5508 33.0938,367.2695 Q32.7969,366.9883 32.7969,366.5508 Q32.7969,366.0977 33.1094,365.832 Q33.4219,365.5508 34.125,365.5508 L34.4375,365.5508 L34.4375,357.7227 L34.125,357.7227 Q33.4063,357.7227 33.0938,357.4414 Q32.7969,357.1602 32.7969,356.707 Q32.7969,356.2539 33.0938,355.9883 Q33.4063,355.707 34.125,355.707 L43.1094,355.707 L43.1094,358.7539 Q43.1094,359.4727 42.8281,359.7852 Q42.5625,360.082 42.125,360.082 Q41.6719,360.082 41.3906,359.7852 Q41.1094,359.4883 41.1094,358.7539 L41.1094,357.7227 L36.4531,357.7227 L36.4531,360.6133 L38.2031,360.6133 Q38.2031,359.832 38.3438,359.5977 Q38.6563,359.1289 39.2031,359.1289 Q39.6563,359.1289 39.9219,359.4414 Q40.2031,359.7383 40.2031,360.457 L40.2031,362.7695 Q40.2031,363.4258 40.0469,363.6445 Q39.7344,364.0977 39.2031,364.0977 Q38.6563,364.0977 38.3438,363.6289 Q38.2031,363.3945 38.2031,362.6133 L36.4531,362.6133 Z " fill="#000000"/><text fill="#000000" font-family="sans-serif" font-size="20" font-style="italic" lengthAdjust="spacing" textLength="136" x="77" y="357.1563">«Value Object»</text><text fill="#000000" font-family="sans-serif" font-size="20" lengthAdjust="spacing" textLength="183" x="53.5" y="382.3125">ShowProposalStatus</text><line style="stroke:#181818;stroke-width:0.5;" x1="23.5" x2="238.5" y1="391.707" y2="391.707"/><line style="stroke:#181818;stroke-width:0.5;" x1="23.5" x2="238.5" y1="399.707" y2="399.707"/></g><!--class ShowProposal--><g id="elem_ShowProposal"><rect codeLine="32" fill="#F1F1F1" height="101.4688" id="ShowProposal" rx="2.5" ry="2.5" style="stroke:#181818;stroke-width:0.5;" width="161" x="356.5" y="75.8945"/><ellipse cx="372.5" cy="118.6289" fill="#ADD1B2" rx="12" ry="12" style="stroke:#181818;stroke-width:1.0;"/><path d="M374.6406,113.5508 Q374.8281,113.3008 375.0469,113.1758 Q375.2656,113.0352 375.5156,113.0352 Q375.9531,113.0352 376.2344,113.3477 Q376.5156,113.6445 376.5156,114.3633 L376.5156,116.0664 Q376.5156,116.7852 376.2344,117.0977 Q375.9531,117.4102 375.5156,117.4102 Q375.125,117.4102 374.875,117.1758 Q374.625,116.957 374.5156,116.3477 Q374.4531,115.9258 374.2344,115.707 Q373.8438,115.2695 373.125,115.0039 Q372.4063,114.7383 371.6875,114.7383 Q370.7813,114.7383 370.0313,115.1289 Q369.2813,115.5195 368.7031,116.4102 Q368.125,117.2852 368.125,118.4883 L368.125,119.7852 Q368.125,121.2383 369.1719,122.207 Q370.2344,123.1758 372.0938,123.1758 Q373.2031,123.1758 373.9844,122.8633 Q374.4219,122.6914 374.9375,122.1758 Q375.25,121.8633 375.4219,121.7695 Q375.5938,121.6758 375.8281,121.6758 Q376.2188,121.6758 376.5156,121.9883 Q376.8281,122.2852 376.8281,122.6914 Q376.8281,123.0977 376.4219,123.5664 Q375.8281,124.2539 374.8906,124.6445 Q373.625,125.1758 372.1094,125.1758 Q370.3281,125.1758 368.9063,124.4414 Q367.75,123.8477 366.9375,122.582 Q366.125,121.3164 366.125,119.832 L366.125,118.4727 Q366.125,116.9102 366.8438,115.5664 Q367.5781,114.207 368.8594,113.4727 Q370.1563,112.7383 371.6094,112.7383 Q372.4688,112.7383 373.2188,112.9414 Q373.9844,113.1445 374.6406,113.5508 Z " fill="#000000"/><text fill="#000000" font-family="sans-serif" font-size="20" font-style="italic" lengthAdjust="spacing" textLength="71" x="415.5" y="101.6563">«Entity»</text><text fill="#000000" font-family="sans-serif" font-size="20" font-style="italic" lengthAdjust="spacing" textLength="56" x="423" y="126.8125">«root»</text><text fill="#000000" font-family="sans-serif" font-size="20" lengthAdjust="spacing" textLength="127" x="387.5" y="151.9688">ShowProposal</text><line style="stroke:#181818;stroke-width:0.5;" x1="357.5" x2="516.5" y1="161.3633" y2="161.3633"/><line style="stroke:#181818;stroke-width:0.5;" x1="357.5" x2="516.5" y1="169.3633" y2="169.3633"/></g><!--class ShowProposalTemplate--><g id="elem_ShowProposalTemplate"><rect codeLine="35" fill="#F1F1F1" height="76.3125" id="ShowProposalTemplate" rx="2.5" ry="2.5" style="stroke:#181818;stroke-width:0.5;" width="243" x="274.5" y="331.3945"/><ellipse cx="290.5" cy="361.5508" fill="#ADD1B2" rx="12" ry="12" style="stroke:#181818;stroke-width:1.0;"/><path d="M292.6406,356.4727 Q292.8281,356.2227 293.0469,356.0977 Q293.2656,355.957 293.5156,355.957 Q293.9531,355.957 294.2344,356.2695 Q294.5156,356.5664 294.5156,357.2852 L294.5156,358.9883 Q294.5156,359.707 294.2344,360.0195 Q293.9531,360.332 293.5156,360.332 Q293.125,360.332 292.875,360.0977 Q292.625,359.8789 292.5156,359.2695 Q292.4531,358.8477 292.2344,358.6289 Q291.8438,358.1914 291.125,357.9258 Q290.4063,357.6602 289.6875,357.6602 Q288.7813,357.6602 288.0313,358.0508 Q287.2813,358.4414 286.7031,359.332 Q286.125,360.207 286.125,361.4102 L286.125,362.707 Q286.125,364.1602 287.1719,365.1289 Q288.2344,366.0977 290.0938,366.0977 Q291.2031,366.0977 291.9844,365.7852 Q292.4219,365.6133 292.9375,365.0977 Q293.25,364.7852 293.4219,364.6914 Q293.5938,364.5977 293.8281,364.5977 Q294.2188,364.5977 294.5156,364.9102 Q294.8281,365.207 294.8281,365.6133 Q294.8281,366.0195 294.4219,366.4883 Q293.8281,367.1758 292.8906,367.5664 Q291.625,368.0977 290.1094,368.0977 Q288.3281,368.0977 286.9063,367.3633 Q285.75,366.7695 284.9375,365.5039 Q284.125,364.2383 284.125,362.7539 L284.125,361.3945 Q284.125,359.832 284.8438,358.4883 Q285.5781,357.1289 286.8594,356.3945 Q288.1563,355.6602 289.6094,355.6602 Q290.4688,355.6602 291.2188,355.8633 Q291.9844,356.0664 292.6406,356.4727 Z " fill="#000000"/><text fill="#000000" font-family="sans-serif" font-size="20" font-style="italic" lengthAdjust="spacing" textLength="136" x="342" y="357.1563">«Value Object»</text><text fill="#000000" font-family="sans-serif" font-size="20" lengthAdjust="spacing" textLength="209" x="305.5" y="382.3125">ShowProposalTemplate</text><line style="stroke:#181818;stroke-width:0.5;" x1="275.5" x2="516.5" y1="391.707" y2="391.707"/><line style="stroke:#181818;stroke-width:0.5;" x1="275.5" x2="516.5" y1="399.707" y2="399.707"/></g><!--class Time--><g id="elem_Time"><rect codeLine="49" fill="#F1F1F1" height="76.3125" id="Time" rx="2.5" ry="2.5" style="stroke:#181818;stroke-width:0.5;" width="166" x="1163" y="600.8945"/><ellipse cx="1179" cy="631.0508" fill="#ADD1B2" rx="12" ry="12" style="stroke:#181818;stroke-width:1.0;"/><path d="M1181.1406,625.9727 Q1181.3281,625.7227 1181.5469,625.5977 Q1181.7656,625.457 1182.0156,625.457 Q1182.4531,625.457 1182.7344,625.7695 Q1183.0156,626.0664 1183.0156,626.7852 L1183.0156,628.4883 Q1183.0156,629.207 1182.7344,629.5195 Q1182.4531,629.832 1182.0156,629.832 Q1181.625,629.832 1181.375,629.5977 Q1181.125,629.3789 1181.0156,628.7695 Q1180.9531,628.3477 1180.7344,628.1289 Q1180.3438,627.6914 1179.625,627.4258 Q1178.9063,627.1602 1178.1875,627.1602 Q1177.2813,627.1602 1176.5313,627.5508 Q1175.7813,627.9414 1175.2031,628.832 Q1174.625,629.707 1174.625,630.9102 L1174.625,632.207 Q1174.625,633.6602 1175.6719,634.6289 Q1176.7344,635.5977 1178.5938,635.5977 Q1179.7031,635.5977 1180.4844,635.2852 Q1180.9219,635.1133 1181.4375,634.5977 Q1181.75,634.2852 1181.9219,634.1914 Q1182.0938,634.0977 1182.3281,634.0977 Q1182.7188,634.0977 1183.0156,634.4102 Q1183.3281,634.707 1183.3281,635.1133 Q1183.3281,635.5195 1182.9219,635.9883 Q1182.3281,636.6758 1181.3906,637.0664 Q1180.125,637.5977 1178.6094,637.5977 Q1176.8281,637.5977 1175.4063,636.8633 Q1174.25,636.2695 1173.4375,635.0039 Q1172.625,633.7383 1172.625,632.2539 L1172.625,630.8945 Q1172.625,629.332 1173.3438,627.9883 Q1174.0781,626.6289 1175.3594,625.8945 Q1176.6563,625.1602 1178.1094,625.1602 Q1178.9688,625.1602 1179.7188,625.3633 Q1180.4844,625.5664 1181.1406,625.9727 Z " fill="#000000"/><text fill="#000000" font-family="sans-serif" font-size="20" font-style="italic" lengthAdjust="spacing" textLength="136" x="1192" y="626.6563">«Value Object»</text><text fill="#000000" font-family="sans-serif" font-size="20" lengthAdjust="spacing" textLength="43" x="1238.5" y="651.8125">Time</text><line style="stroke:#181818;stroke-width:0.5;" x1="1164" x2="1328" y1="661.207" y2="661.207"/><line style="stroke:#181818;stroke-width:0.5;" x1="1164" x2="1328" y1="669.207" y2="669.207"/></g><!--class Date--><g id="elem_Date"><rect codeLine="52" fill="#F1F1F1" height="76.3125" id="Date" rx="2.5" ry="2.5" style="stroke:#181818;stroke-width:0.5;" width="166" x="1364" y="600.8945"/><ellipse cx="1380" cy="631.0508" fill="#ADD1B2" rx="12" ry="12" style="stroke:#181818;stroke-width:1.0;"/><path d="M1382.1406,625.9727 Q1382.3281,625.7227 1382.5469,625.5977 Q1382.7656,625.457 1383.0156,625.457 Q1383.4531,625.457 1383.7344,625.7695 Q1384.0156,626.0664 1384.0156,626.7852 L1384.0156,628.4883 Q1384.0156,629.207 1383.7344,629.5195 Q1383.4531,629.832 1383.0156,629.832 Q1382.625,629.832 1382.375,629.5977 Q1382.125,629.3789 1382.0156,628.7695 Q1381.9531,628.3477 1381.7344,628.1289 Q1381.3438,627.6914 1380.625,627.4258 Q1379.9063,627.1602 1379.1875,627.1602 Q1378.2813,627.1602 1377.5313,627.5508 Q1376.7813,627.9414 1376.2031,628.832 Q1375.625,629.707 1375.625,630.9102 L1375.625,632.207 Q1375.625,633.6602 1376.6719,634.6289 Q1377.7344,635.5977 1379.5938,635.5977 Q1380.7031,635.5977 1381.4844,635.2852 Q1381.9219,635.1133 1382.4375,634.5977 Q1382.75,634.2852 1382.9219,634.1914 Q1383.0938,634.0977 1383.3281,634.0977 Q1383.7188,634.0977 1384.0156,634.4102 Q1384.3281,634.707 1384.3281,635.1133 Q1384.3281,635.5195 1383.9219,635.9883 Q1383.3281,636.6758 1382.3906,637.0664 Q1381.125,637.5977 1379.6094,637.5977 Q1377.8281,637.5977 1376.4063,636.8633 Q1375.25,636.2695 1374.4375,635.0039 Q1373.625,633.7383 1373.625,632.2539 L1373.625,630.8945 Q1373.625,629.332 1374.3438,627.9883 Q1375.0781,626.6289 1376.3594,625.8945 Q1377.6563,625.1602 1379.1094,625.1602 Q1379.9688,625.1602 1380.7188,625.3633 Q1381.4844,625.5664 1382.1406,625.9727 Z " fill="#000000"/><text fill="#000000" font-family="sans-serif" font-size="20" font-style="italic" lengthAdjust="spacing" textLength="136" x="1393" y="626.6563">«Value Object»</text><text fill="#000000" font-family="sans-serif" font-size="20" lengthAdjust="spacing" textLength="42" x="1440" y="651.8125">Date</text><line style="stroke:#181818;stroke-width:0.5;" x1="1365" x2="1529" y1="661.207" y2="661.207"/><line style="stroke:#181818;stroke-width:0.5;" x1="1365" x2="1529" y1="669.207" y2="669.207"/></g><!--class QuantityOfDrones--><g id="elem_QuantityOfDrones"><rect codeLine="55" fill="#F1F1F1" height="76.3125" id="QuantityOfDrones" rx="2.5" ry="2.5" style="stroke:#181818;stroke-width:0.5;" width="192" x="1565" y="600.8945"/><ellipse cx="1581" cy="631.0508" fill="#ADD1B2" rx="12" ry="12" style="stroke:#181818;stroke-width:1.0;"/><path d="M1583.1406,625.9727 Q1583.3281,625.7227 1583.5469,625.5977 Q1583.7656,625.457 1584.0156,625.457 Q1584.4531,625.457 1584.7344,625.7695 Q1585.0156,626.0664 1585.0156,626.7852 L1585.0156,628.4883 Q1585.0156,629.207 1584.7344,629.5195 Q1584.4531,629.832 1584.0156,629.832 Q1583.625,629.832 1583.375,629.5977 Q1583.125,629.3789 1583.0156,628.7695 Q1582.9531,628.3477 1582.7344,628.1289 Q1582.3438,627.6914 1581.625,627.4258 Q1580.9063,627.1602 1580.1875,627.1602 Q1579.2813,627.1602 1578.5313,627.5508 Q1577.7813,627.9414 1577.2031,628.832 Q1576.625,629.707 1576.625,630.9102 L1576.625,632.207 Q1576.625,633.6602 1577.6719,634.6289 Q1578.7344,635.5977 1580.5938,635.5977 Q1581.7031,635.5977 1582.4844,635.2852 Q1582.9219,635.1133 1583.4375,634.5977 Q1583.75,634.2852 1583.9219,634.1914 Q1584.0938,634.0977 1584.3281,634.0977 Q1584.7188,634.0977 1585.0156,634.4102 Q1585.3281,634.707 1585.3281,635.1133 Q1585.3281,635.5195 1584.9219,635.9883 Q1584.3281,636.6758 1583.3906,637.0664 Q1582.125,637.5977 1580.6094,637.5977 Q1578.8281,637.5977 1577.4063,636.8633 Q1576.25,636.2695 1575.4375,635.0039 Q1574.625,633.7383 1574.625,632.2539 L1574.625,630.8945 Q1574.625,629.332 1575.3438,627.9883 Q1576.0781,626.6289 1577.3594,625.8945 Q1578.6563,625.1602 1580.1094,625.1602 Q1580.9688,625.1602 1581.7188,625.3633 Q1582.4844,625.5664 1583.1406,625.9727 Z " fill="#000000"/><text fill="#000000" font-family="sans-serif" font-size="20" font-style="italic" lengthAdjust="spacing" textLength="136" x="1607" y="626.6563">«Value Object»</text><text fill="#000000" font-family="sans-serif" font-size="20" lengthAdjust="spacing" textLength="158" x="1596" y="651.8125">QuantityOfDrones</text><line style="stroke:#181818;stroke-width:0.5;" x1="1566" x2="1756" y1="661.207" y2="661.207"/><line style="stroke:#181818;stroke-width:0.5;" x1="1566" x2="1756" y1="669.207" y2="669.207"/></g><!--link ShowProposal to CRMCollaborator--><g id="link_ShowProposal_CRMCollaborator"><path codeLine="39" d="M484.58,177.0345 C523.1,217.2145 577.23,273.6945 616.71,314.8745 " fill="none" id="ShowProposal-to-CRMCollaborator" style="stroke:#181818;stroke-width:1.0;"/><polygon fill="#181818" points="620.48,318.8145,617.1312,309.5525,617.0167,315.2082,611.361,315.0937,620.48,318.8145" style="stroke:#181818;stroke-width:1.0;"/><text fill="#000000" font-family="sans-serif" font-size="20" lengthAdjust="spacing" textLength="94" x="540" y="228.6563">created by</text><text fill="#000000" font-family="sans-serif" font-size="20" lengthAdjust="spacing" textLength="11" x="602.6868" y="306.4741">1</text></g><!--link ShowProposal to ShowRequest--><g id="link_ShowProposal_ShowRequest"><path codeLine="40" d="M517.64,130.5745 C634.89,136.8545 858.35,155.0945 1041,206.8945 C1077.56,217.2645 1088.1,219.7845 1119,241.8945 C1147.52,262.2945 1174.57,290.4045 1195.56,314.9345 " fill="none" id="ShowProposal-to-ShowRequest" style="stroke:#181818;stroke-width:1.0;"/><polygon fill="#181818" points="1198.87,318.8445,1196.1085,309.3907,1195.6396,315.0281,1190.0023,314.5593,1198.87,318.8445" style="stroke:#181818;stroke-width:1.0;"/><text fill="#000000" font-family="sans-serif" font-size="20" lengthAdjust="spacing" textLength="81" x="1109" y="228.6563">based on</text><text fill="#000000" font-family="sans-serif" font-size="20" lengthAdjust="spacing" textLength="11" x="1182.2799" y="306.5079">1</text></g><!--link ShowProposal to ShowProposalStatus--><g id="link_ShowProposal_ShowProposalStatus"><path codeLine="41" d="M356.26,160.2745 C329.76,172.9045 300.98,188.7245 277,206.8945 C231.26,241.5545 188.42,291.9045 161.13,327.1445 " fill="none" id="ShowProposal-to-ShowProposalStatus" style="stroke:#181818;stroke-width:1.0;"/><polygon fill="#181818" points="157.88,331.3745,166.5289,326.6632,160.921,327.4056,160.1786,321.7977,157.88,331.3745" style="stroke:#181818;stroke-width:1.0;"/><text fill="#000000" font-family="sans-serif" font-size="20" lengthAdjust="spacing" textLength="132" x="278" y="228.6563">proposalStatus</text><text fill="#000000" font-family="sans-serif" font-size="20" lengthAdjust="spacing" textLength="11" x="150.2874" y="319.0722">1</text></g><!--link ShowProposal to Figure--><g id="link_ShowProposal_Figure"><path codeLine="42" d="M517.76,130.0945 C621.74,136.9445 804.67,160.6445 936,241.8945 C966.19,260.5745 993.4,289.2545 1013.87,314.5945 " fill="none" id="ShowProposal-to-Figure" style="stroke:#181818;stroke-width:1.0;"/><polygon fill="#181818" points="1017.09,318.6345,1014.6167,309.1013,1013.977,314.7218,1008.3564,314.0821,1017.09,318.6345" style="stroke:#181818;stroke-width:1.0;"/><text fill="#000000" font-family="sans-serif" font-size="20" lengthAdjust="spacing" textLength="118" x="914" y="228.6563">requests new</text><text fill="#000000" font-family="sans-serif" font-size="20" lengthAdjust="spacing" textLength="31" x="979.9463" y="306.6674">0..*</text></g><!--link ShowProposal to ShowProposalTemplate--><g id="link_ShowProposal_ShowProposalTemplate"><path codeLine="43" d="M428.55,177.0345 C421.08,220.9945 410.28,284.4745 403.2,326.0745 " fill="none" id="ShowProposal-to-ShowProposalTemplate" style="stroke:#181818;stroke-width:1.0;"/><polygon fill="#181818" points="402.36,331.0345,407.7967,322.8222,403.1889,326.1037,399.9075,321.4959,402.36,331.0345" style="stroke:#181818;stroke-width:1.0;"/><text fill="#000000" font-family="sans-serif" font-size="20" lengthAdjust="spacing" textLength="76" x="424" y="228.6563">template</text><text fill="#000000" font-family="sans-serif" font-size="20" lengthAdjust="spacing" textLength="11" x="391.4917" y="318.9963">1</text></g><!--link ShowProposal to Model--><g id="link_ShowProposal_Model"><path codeLine="44" d="M517.62,139.8945 C591.18,154.4845 699.98,184.3445 778,241.8945 C803.73,260.8745 825.09,289.2845 840.64,314.3745 " fill="none" id="ShowProposal-to-Model" style="stroke:#181818;stroke-width:1.0;"/><polygon fill="#181818" points="843.28,318.6945,842.0027,308.9288,840.6739,314.4274,835.1753,313.0986,843.28,318.6945" style="stroke:#181818;stroke-width:1.0;"/><text fill="#000000" font-family="sans-serif" font-size="20" lengthAdjust="spacing" textLength="41" x="764" y="228.6563">uses</text><text fill="#000000" font-family="sans-serif" font-size="20" lengthAdjust="spacing" textLength="31" x="806.9987" y="306.3387">1..*</text></g><!--link ShowProposal to QuantityOfDrones--><g id="link_ShowProposal_QuantityOfDrones"><path codeLine="59" d="M517.84,130.3445 C713.38,138.1245 1207.49,161.7645 1366,206.8945 C1542.67,257.1945 1624.46,497.7845 1650.9,595.9945 " fill="none" id="ShowProposal-to-QuantityOfDrones" style="stroke:#181818;stroke-width:1.0;"/><polygon fill="#181818" points="1652.2,600.8445,1653.7496,591.1183,1650.9135,596.0129,1646.0189,593.1768,1652.2,600.8445" style="stroke:#181818;stroke-width:1.0;"/><text fill="#000000" font-family="sans-serif" font-size="20" lengthAdjust="spacing" textLength="98" x="1612" y="473.6563">qnt_drones</text><text fill="#000000" font-family="sans-serif" font-size="20" lengthAdjust="spacing" textLength="11" x="1638.9209" y="588.5374">1</text></g><!--link ShowProposal to Time--><g id="link_ShowProposal_Time"><path codeLine="60" d="M517.67,131.3445 C728.25,142.5045 1281.65,177.7545 1331,241.8945 C1413.4,348.9945 1324.19,518.4445 1274.58,596.2945 " fill="none" id="ShowProposal-to-Time" style="stroke:#181818;stroke-width:1.0;"/><polygon fill="#181818" points="1271.67,600.8345,1279.9015,595.427,1274.3738,596.6286,1273.1721,591.1009,1271.67,600.8345" style="stroke:#181818;stroke-width:1.0;"/><text fill="#000000" font-family="sans-serif" font-size="20" lengthAdjust="spacing" textLength="37" x="1347" y="473.6563">time</text><text fill="#000000" font-family="sans-serif" font-size="20" lengthAdjust="spacing" textLength="11" x="1263.8846" y="588.5258">1</text></g><!--link ShowProposal to Date--><g id="link_ShowProposal_Date"><path codeLine="61" d="M517.74,130.3945 C705.16,138.0445 1164.92,161.0345 1312,206.8945 C1342.21,216.3145 1355.62,216.1345 1374,241.8945 C1451.5,350.5545 1454.01,517.3845 1450.27,595.1945 " fill="none" id="ShowProposal-to-Date" style="stroke:#181818;stroke-width:1.0;"/><polygon fill="#181818" points="1449.99,600.6445,1454.447,591.8619,1450.2468,595.6511,1446.4575,591.451,1449.99,600.6445" style="stroke:#181818;stroke-width:1.0;"/><text fill="#000000" font-family="sans-serif" font-size="20" lengthAdjust="spacing" textLength="39" x="1449" y="473.6563">date</text><text fill="#000000" font-family="sans-serif" font-size="20" lengthAdjust="spacing" textLength="11" x="1438.6057" y="588.6232">1</text></g><!--SRC=[hLDDRu904BtpAoPScZIfiJqImaNhpTYAwRKPO4Jgmk9-n5hZV- -wQiEIWZOf1x9Cthmt- -OXrqLLey2IyNHD6MIqHCtKX5SgBhu8deQULsEwnfp07ysd8yuO9boWuW9y24FCSq4vAeeYs7iUc2TbA2MqmM7uNAb2xGmk30NdAehs5dxm3WsDAS-8pPPZmIlg5x38Fbg7TrBaMbnXF6Dkd3HUyUsSDfgaQjCwh4tS7wXV1A-vHDR1JPKkeOcB5Iej3VODcIQO9H-KDirm1_fXx_FlzvO5bJKpe_HBtJag3n5ysh9RDMN_qMz79O1Ka1788DbrDpLi3I11QU2yweUxLWLGEzyTlSF1uDw_H2C0SPAKKD7sDhMBNm6eywchpohPM0UW9Sbc9k8L2dD59rcBegHR5Zw-kgqJxbMZpSBvzvF_iU6B8stk03QLUi_ikQ_lU4VZd7dteSRMt-pexS7x1W00]--></g></svg>