<?xml version="1.0" encoding="UTF-8" standalone="no"?><svg xmlns="http://www.w3.org/2000/svg" xmlns:xlink="http://www.w3.org/1999/xlink" contentStyleType="text/css" height="1039px" preserveAspectRatio="none" style="width:1849px;height:1039px;background:#FFFFFF;" version="1.1" viewBox="0 0 1849 1039" width="1849px" zoomAndPan="magnify"><defs/><g><!--cluster Customer --><g id="cluster_Customer "><path d="M8.5,613.8945 L107.5,613.8945 A3.75,3.75 0 0 1 110,616.3945 L117,645.0508 L155.5,645.0508 A2.5,2.5 0 0 1 158,647.5508 L158,797.3945 A2.5,2.5 0 0 1 155.5,799.8945 L8.5,799.8945 A2.5,2.5 0 0 1 6,797.3945 L6,616.3945 A2.5,2.5 0 0 1 8.5,613.8945 " fill="none" style="stroke:#000000;stroke-width:1.5;"/><line style="stroke:#000000;stroke-width:1.5;" x1="6" x2="117" y1="645.0508" y2="645.0508"/><text fill="#000000" font-family="sans-serif" font-size="20" font-weight="bold" lengthAdjust="spacing" textLength="92" x="10" y="636.6563">Customer</text><text fill="#000000" font-family="sans-serif" font-size="20" font-style="italic" lengthAdjust="spacing" textLength="111" x="30.5" y="667.8125">«aggregate»</text></g><!--cluster Figure --><g id="cluster_Figure "><path d="M1365.5,575.8945 L1432.5,575.8945 A3.75,3.75 0 0 1 1435,578.3945 L1442,607.0508 L1584.5,607.0508 A2.5,2.5 0 0 1 1587,609.5508 L1587,835.3945 A2.5,2.5 0 0 1 1584.5,837.8945 L1365.5,837.8945 A2.5,2.5 0 0 1 1363,835.3945 L1363,578.3945 A2.5,2.5 0 0 1 1365.5,575.8945 " fill="none" style="stroke:#000000;stroke-width:1.5;"/><line style="stroke:#000000;stroke-width:1.5;" x1="1363" x2="1442" y1="607.0508" y2="607.0508"/><text fill="#000000" font-family="sans-serif" font-size="20" font-weight="bold" lengthAdjust="spacing" textLength="60" x="1367" y="598.6563">Figure</text><text fill="#000000" font-family="sans-serif" font-size="20" font-style="italic" lengthAdjust="spacing" textLength="111" x="1423.5" y="629.8125">«aggregate»</text></g><!--cluster Show --><g id="cluster_Show "><path d="M184.5,6.8945 L243.5,6.8945 A3.75,3.75 0 0 1 246,9.3945 L253,38.0508 L1215.5,38.0508 A2.5,2.5 0 0 1 1218,40.5508 L1218,1030.3945 A2.5,2.5 0 0 1 1215.5,1032.8945 L184.5,1032.8945 A2.5,2.5 0 0 1 182,1030.3945 L182,9.3945 A2.5,2.5 0 0 1 184.5,6.8945 " fill="none" style="stroke:#000000;stroke-width:1.5;"/><line style="stroke:#000000;stroke-width:1.5;" x1="182" x2="253" y1="38.0508" y2="38.0508"/><text fill="#000000" font-family="sans-serif" font-size="20" font-weight="bold" lengthAdjust="spacing" textLength="52" x="186" y="29.6563">Show</text><text fill="#000000" font-family="sans-serif" font-size="20" font-style="italic" lengthAdjust="spacing" textLength="111" x="648.5" y="60.8125">«aggregate»</text></g><!--cluster Shared--><g id="cluster_Shared"><path d="M1244.5,896.8945 L1312.5,896.8945 A3.75,3.75 0 0 1 1315,899.3945 L1322,928.0508 L1839.5,928.0508 A2.5,2.5 0 0 1 1842,930.5508 L1842,1030.3945 A2.5,2.5 0 0 1 1839.5,1032.8945 L1244.5,1032.8945 A2.5,2.5 0 0 1 1242,1030.3945 L1242,899.3945 A2.5,2.5 0 0 1 1244.5,896.8945 " fill="none" style="stroke:#000000;stroke-width:1.5;"/><line style="stroke:#000000;stroke-width:1.5;" x1="1242" x2="1322" y1="928.0508" y2="928.0508"/><text fill="#000000" font-family="sans-serif" font-size="20" font-weight="bold" lengthAdjust="spacing" textLength="67" x="1246" y="919.6563">Shared</text></g><!--class Customer--><g id="elem_Customer"><rect codeLine="3" fill="#F1F1F1" height="101.4688" id="Customer" rx="2.5" ry="2.5" style="stroke:#181818;stroke-width:0.5;" width="119" x="22.5" y="682.8945"/><ellipse cx="38.5" cy="725.6289" fill="#ADD1B2" rx="12" ry="12" style="stroke:#181818;stroke-width:1.0;"/><path d="M40.6406,720.5508 Q40.8281,720.3008 41.0469,720.1758 Q41.2656,720.0352 41.5156,720.0352 Q41.9531,720.0352 42.2344,720.3477 Q42.5156,720.6445 42.5156,721.3633 L42.5156,723.0664 Q42.5156,723.7852 42.2344,724.0977 Q41.9531,724.4102 41.5156,724.4102 Q41.125,724.4102 40.875,724.1758 Q40.625,723.957 40.5156,723.3477 Q40.4531,722.9258 40.2344,722.707 Q39.8438,722.2695 39.125,722.0039 Q38.4063,721.7383 37.6875,721.7383 Q36.7813,721.7383 36.0313,722.1289 Q35.2813,722.5195 34.7031,723.4102 Q34.125,724.2852 34.125,725.4883 L34.125,726.7852 Q34.125,728.2383 35.1719,729.207 Q36.2344,730.1758 38.0938,730.1758 Q39.2031,730.1758 39.9844,729.8633 Q40.4219,729.6914 40.9375,729.1758 Q41.25,728.8633 41.4219,728.7695 Q41.5938,728.6758 41.8281,728.6758 Q42.2188,728.6758 42.5156,728.9883 Q42.8281,729.2852 42.8281,729.6914 Q42.8281,730.0977 42.4219,730.5664 Q41.8281,731.2539 40.8906,731.6445 Q39.625,732.1758 38.1094,732.1758 Q36.3281,732.1758 34.9063,731.4414 Q33.75,730.8477 32.9375,729.582 Q32.125,728.3164 32.125,726.832 L32.125,725.4727 Q32.125,723.9102 32.8438,722.5664 Q33.5781,721.207 34.8594,720.4727 Q36.1563,719.7383 37.6094,719.7383 Q38.4688,719.7383 39.2188,719.9414 Q39.9844,720.1445 40.6406,720.5508 Z " fill="#000000"/><text fill="#000000" font-family="sans-serif" font-size="20" font-style="italic" lengthAdjust="spacing" textLength="71" x="60.5" y="708.6563">«Entity»</text><text fill="#000000" font-family="sans-serif" font-size="20" font-style="italic" lengthAdjust="spacing" textLength="56" x="68" y="733.8125">«root»</text><text fill="#000000" font-family="sans-serif" font-size="20" lengthAdjust="spacing" textLength="85" x="53.5" y="758.9688">Customer</text><line style="stroke:#181818;stroke-width:0.5;" x1="23.5" x2="140.5" y1="768.3633" y2="768.3633"/><line style="stroke:#181818;stroke-width:0.5;" x1="23.5" x2="140.5" y1="776.3633" y2="776.3633"/></g><!--class Figure--><g id="elem_Figure"><rect codeLine="10" fill="#F1F1F1" height="176.9375" id="Figure" rx="2.5" ry="2.5" style="stroke:#181818;stroke-width:0.5;" width="191" x="1379.5" y="644.8945"/><ellipse cx="1437" cy="687.6289" fill="#ADD1B2" rx="12" ry="12" style="stroke:#181818;stroke-width:1.0;"/><path d="M1439.1406,682.5508 Q1439.3281,682.3008 1439.5469,682.1758 Q1439.7656,682.0352 1440.0156,682.0352 Q1440.4531,682.0352 1440.7344,682.3477 Q1441.0156,682.6445 1441.0156,683.3633 L1441.0156,685.0664 Q1441.0156,685.7852 1440.7344,686.0977 Q1440.4531,686.4102 1440.0156,686.4102 Q1439.625,686.4102 1439.375,686.1758 Q1439.125,685.957 1439.0156,685.3477 Q1438.9531,684.9258 1438.7344,684.707 Q1438.3438,684.2695 1437.625,684.0039 Q1436.9063,683.7383 1436.1875,683.7383 Q1435.2813,683.7383 1434.5313,684.1289 Q1433.7813,684.5195 1433.2031,685.4102 Q1432.625,686.2852 1432.625,687.4883 L1432.625,688.7852 Q1432.625,690.2383 1433.6719,691.207 Q1434.7344,692.1758 1436.5938,692.1758 Q1437.7031,692.1758 1438.4844,691.8633 Q1438.9219,691.6914 1439.4375,691.1758 Q1439.75,690.8633 1439.9219,690.7695 Q1440.0938,690.6758 1440.3281,690.6758 Q1440.7188,690.6758 1441.0156,690.9883 Q1441.3281,691.2852 1441.3281,691.6914 Q1441.3281,692.0977 1440.9219,692.5664 Q1440.3281,693.2539 1439.3906,693.6445 Q1438.125,694.1758 1436.6094,694.1758 Q1434.8281,694.1758 1433.4063,693.4414 Q1432.25,692.8477 1431.4375,691.582 Q1430.625,690.3164 1430.625,688.832 L1430.625,687.4727 Q1430.625,685.9102 1431.3438,684.5664 Q1432.0781,683.207 1433.3594,682.4727 Q1434.6563,681.7383 1436.1094,681.7383 Q1436.9688,681.7383 1437.7188,681.9414 Q1438.4844,682.1445 1439.1406,682.5508 Z " fill="#000000"/><text fill="#000000" font-family="sans-serif" font-size="20" font-style="italic" lengthAdjust="spacing" textLength="71" x="1457" y="670.6563">«Entity»</text><text fill="#000000" font-family="sans-serif" font-size="20" font-style="italic" lengthAdjust="spacing" textLength="56" x="1464.5" y="695.8125">«root»</text><text fill="#000000" font-family="sans-serif" font-size="20" lengthAdjust="spacing" textLength="55" x="1465" y="720.9688">Figure</text><line style="stroke:#181818;stroke-width:0.5;" x1="1380.5" x2="1569.5" y1="730.3633" y2="730.3633"/><ellipse cx="1390.5" cy="748.4414" fill="none" rx="3" ry="3" style="stroke:#038048;stroke-width:1.0;"/><text fill="#000000" font-family="sans-serif" font-size="20" lengthAdjust="spacing" textLength="117" x="1400.5" y="755.125">code: Integer</text><ellipse cx="1390.5" cy="773.5977" fill="none" rx="3" ry="3" style="stroke:#038048;stroke-width:1.0;"/><text fill="#000000" font-family="sans-serif" font-size="20" lengthAdjust="spacing" textLength="135" x="1400.5" y="780.2813">version: Double</text><ellipse cx="1390.5" cy="798.7539" fill="none" rx="3" ry="3" style="stroke:#038048;stroke-width:1.0;"/><text fill="#000000" font-family="sans-serif" font-size="20" lengthAdjust="spacing" textLength="164" x="1400.5" y="805.4375">description : String</text><line style="stroke:#181818;stroke-width:0.5;" x1="1380.5" x2="1569.5" y1="813.832" y2="813.832"/></g><!--class PhoneNumber--><g id="elem_PhoneNumber"><rect codeLine="19" fill="#F1F1F1" height="76.3125" id="PhoneNumber" rx="2.5" ry="2.5" style="stroke:#181818;stroke-width:0.5;" width="166" x="209" y="940.8945"/><ellipse cx="225" cy="971.0508" fill="#ADD1B2" rx="12" ry="12" style="stroke:#181818;stroke-width:1.0;"/><path d="M227.1406,965.9727 Q227.3281,965.7227 227.5469,965.5977 Q227.7656,965.457 228.0156,965.457 Q228.4531,965.457 228.7344,965.7695 Q229.0156,966.0664 229.0156,966.7852 L229.0156,968.4883 Q229.0156,969.207 228.7344,969.5195 Q228.4531,969.832 228.0156,969.832 Q227.625,969.832 227.375,969.5977 Q227.125,969.3789 227.0156,968.7695 Q226.9531,968.3477 226.7344,968.1289 Q226.3438,967.6914 225.625,967.4258 Q224.9063,967.1602 224.1875,967.1602 Q223.2813,967.1602 222.5313,967.5508 Q221.7813,967.9414 221.2031,968.832 Q220.625,969.707 220.625,970.9102 L220.625,972.207 Q220.625,973.6602 221.6719,974.6289 Q222.7344,975.5977 224.5938,975.5977 Q225.7031,975.5977 226.4844,975.2852 Q226.9219,975.1133 227.4375,974.5977 Q227.75,974.2852 227.9219,974.1914 Q228.0938,974.0977 228.3281,974.0977 Q228.7188,974.0977 229.0156,974.4102 Q229.3281,974.707 229.3281,975.1133 Q229.3281,975.5195 228.9219,975.9883 Q228.3281,976.6758 227.3906,977.0664 Q226.125,977.5977 224.6094,977.5977 Q222.8281,977.5977 221.4063,976.8633 Q220.25,976.2695 219.4375,975.0039 Q218.625,973.7383 218.625,972.2539 L218.625,970.8945 Q218.625,969.332 219.3438,967.9883 Q220.0781,966.6289 221.3594,965.8945 Q222.6563,965.1602 224.1094,965.1602 Q224.9688,965.1602 225.7188,965.3633 Q226.4844,965.5664 227.1406,965.9727 Z " fill="#000000"/><text fill="#000000" font-family="sans-serif" font-size="20" font-style="italic" lengthAdjust="spacing" textLength="136" x="238" y="966.6563">«Value Object»</text><text fill="#000000" font-family="sans-serif" font-size="20" lengthAdjust="spacing" textLength="123" x="244.5" y="991.8125">PhoneNumber</text><line style="stroke:#181818;stroke-width:0.5;" x1="210" x2="374" y1="1001.207" y2="1001.207"/><line style="stroke:#181818;stroke-width:0.5;" x1="210" x2="374" y1="1009.207" y2="1009.207"/></g><!--class Date--><g id="elem_Date"><rect codeLine="22" fill="#F1F1F1" height="76.3125" id="Date" rx="2.5" ry="2.5" style="stroke:#181818;stroke-width:0.5;" width="166" x="835" y="695.3945"/><ellipse cx="851" cy="725.5508" fill="#ADD1B2" rx="12" ry="12" style="stroke:#181818;stroke-width:1.0;"/><path d="M853.1406,720.4727 Q853.3281,720.2227 853.5469,720.0977 Q853.7656,719.957 854.0156,719.957 Q854.4531,719.957 854.7344,720.2695 Q855.0156,720.5664 855.0156,721.2852 L855.0156,722.9883 Q855.0156,723.707 854.7344,724.0195 Q854.4531,724.332 854.0156,724.332 Q853.625,724.332 853.375,724.0977 Q853.125,723.8789 853.0156,723.2695 Q852.9531,722.8477 852.7344,722.6289 Q852.3438,722.1914 851.625,721.9258 Q850.9063,721.6602 850.1875,721.6602 Q849.2813,721.6602 848.5313,722.0508 Q847.7813,722.4414 847.2031,723.332 Q846.625,724.207 846.625,725.4102 L846.625,726.707 Q846.625,728.1602 847.6719,729.1289 Q848.7344,730.0977 850.5938,730.0977 Q851.7031,730.0977 852.4844,729.7852 Q852.9219,729.6133 853.4375,729.0977 Q853.75,728.7852 853.9219,728.6914 Q854.0938,728.5977 854.3281,728.5977 Q854.7188,728.5977 855.0156,728.9102 Q855.3281,729.207 855.3281,729.6133 Q855.3281,730.0195 854.9219,730.4883 Q854.3281,731.1758 853.3906,731.5664 Q852.125,732.0977 850.6094,732.0977 Q848.8281,732.0977 847.4063,731.3633 Q846.25,730.7695 845.4375,729.5039 Q844.625,728.2383 844.625,726.7539 L844.625,725.3945 Q844.625,723.832 845.3438,722.4883 Q846.0781,721.1289 847.3594,720.3945 Q848.6563,719.6602 850.1094,719.6602 Q850.9688,719.6602 851.7188,719.8633 Q852.4844,720.0664 853.1406,720.4727 Z " fill="#000000"/><text fill="#000000" font-family="sans-serif" font-size="20" font-style="italic" lengthAdjust="spacing" textLength="136" x="864" y="721.1563">«Value Object»</text><text fill="#000000" font-family="sans-serif" font-size="20" lengthAdjust="spacing" textLength="42" x="911" y="746.3125">Date</text><line style="stroke:#181818;stroke-width:0.5;" x1="836" x2="1000" y1="755.707" y2="755.707"/><line style="stroke:#181818;stroke-width:0.5;" x1="836" x2="1000" y1="763.707" y2="763.707"/></g><!--class Description--><g id="elem_Description"><rect codeLine="25" fill="#F1F1F1" height="76.3125" id="Description" rx="2.5" ry="2.5" style="stroke:#181818;stroke-width:0.5;" width="166" x="1036" y="695.3945"/><ellipse cx="1052" cy="725.5508" fill="#ADD1B2" rx="12" ry="12" style="stroke:#181818;stroke-width:1.0;"/><path d="M1054.1406,720.4727 Q1054.3281,720.2227 1054.5469,720.0977 Q1054.7656,719.957 1055.0156,719.957 Q1055.4531,719.957 1055.7344,720.2695 Q1056.0156,720.5664 1056.0156,721.2852 L1056.0156,722.9883 Q1056.0156,723.707 1055.7344,724.0195 Q1055.4531,724.332 1055.0156,724.332 Q1054.625,724.332 1054.375,724.0977 Q1054.125,723.8789 1054.0156,723.2695 Q1053.9531,722.8477 1053.7344,722.6289 Q1053.3438,722.1914 1052.625,721.9258 Q1051.9063,721.6602 1051.1875,721.6602 Q1050.2813,721.6602 1049.5313,722.0508 Q1048.7813,722.4414 1048.2031,723.332 Q1047.625,724.207 1047.625,725.4102 L1047.625,726.707 Q1047.625,728.1602 1048.6719,729.1289 Q1049.7344,730.0977 1051.5938,730.0977 Q1052.7031,730.0977 1053.4844,729.7852 Q1053.9219,729.6133 1054.4375,729.0977 Q1054.75,728.7852 1054.9219,728.6914 Q1055.0938,728.5977 1055.3281,728.5977 Q1055.7188,728.5977 1056.0156,728.9102 Q1056.3281,729.207 1056.3281,729.6133 Q1056.3281,730.0195 1055.9219,730.4883 Q1055.3281,731.1758 1054.3906,731.5664 Q1053.125,732.0977 1051.6094,732.0977 Q1049.8281,732.0977 1048.4063,731.3633 Q1047.25,730.7695 1046.4375,729.5039 Q1045.625,728.2383 1045.625,726.7539 L1045.625,725.3945 Q1045.625,723.832 1046.3438,722.4883 Q1047.0781,721.1289 1048.3594,720.3945 Q1049.6563,719.6602 1051.1094,719.6602 Q1051.9688,719.6602 1052.7188,719.8633 Q1053.4844,720.0664 1054.1406,720.4727 Z " fill="#000000"/><text fill="#000000" font-family="sans-serif" font-size="20" font-style="italic" lengthAdjust="spacing" textLength="136" x="1065" y="721.1563">«Value Object»</text><text fill="#000000" font-family="sans-serif" font-size="20" lengthAdjust="spacing" textLength="98" x="1084" y="746.3125">Description</text><line style="stroke:#181818;stroke-width:0.5;" x1="1037" x2="1201" y1="755.707" y2="755.707"/><line style="stroke:#181818;stroke-width:0.5;" x1="1037" x2="1201" y1="763.707" y2="763.707"/></g><!--class ShowStatus--><g id="elem_ShowStatus"><rect codeLine="28" fill="#F1F1F1" height="76.3125" id="ShowStatus" rx="2.5" ry="2.5" style="stroke:#181818;stroke-width:0.5;" width="166" x="655" y="238.8945"/><ellipse cx="671" cy="269.0508" fill="#EB937F" rx="12" ry="12" style="stroke:#181818;stroke-width:1.0;"/><path d="M668.9531,270.1133 L668.9531,273.0508 L674.0469,273.0508 L674.0469,271.957 Q674.0469,271.2383 674.3281,270.9414 Q674.6094,270.6289 675.0625,270.6289 Q675.5,270.6289 675.7813,270.9414 Q676.0625,271.2383 676.0625,271.957 L676.0625,275.0508 L666.625,275.0508 Q665.9063,275.0508 665.5938,274.7695 Q665.2969,274.4883 665.2969,274.0508 Q665.2969,273.5977 665.6094,273.332 Q665.9219,273.0508 666.625,273.0508 L666.9375,273.0508 L666.9375,265.2227 L666.625,265.2227 Q665.9063,265.2227 665.5938,264.9414 Q665.2969,264.6602 665.2969,264.207 Q665.2969,263.7539 665.5938,263.4883 Q665.9063,263.207 666.625,263.207 L675.6094,263.207 L675.6094,266.2539 Q675.6094,266.9727 675.3281,267.2852 Q675.0625,267.582 674.625,267.582 Q674.1719,267.582 673.8906,267.2852 Q673.6094,266.9883 673.6094,266.2539 L673.6094,265.2227 L668.9531,265.2227 L668.9531,268.1133 L670.7031,268.1133 Q670.7031,267.332 670.8438,267.0977 Q671.1563,266.6289 671.7031,266.6289 Q672.1563,266.6289 672.4219,266.9414 Q672.7031,267.2383 672.7031,267.957 L672.7031,270.2695 Q672.7031,270.9258 672.5469,271.1445 Q672.2344,271.5977 671.7031,271.5977 Q671.1563,271.5977 670.8438,271.1289 Q670.7031,270.8945 670.7031,270.1133 L668.9531,270.1133 Z " fill="#000000"/><text fill="#000000" font-family="sans-serif" font-size="20" font-style="italic" lengthAdjust="spacing" textLength="136" x="684" y="264.6563">«Value Object»</text><text fill="#000000" font-family="sans-serif" font-size="20" lengthAdjust="spacing" textLength="105" x="699.5" y="289.8125">ShowStatus</text><line style="stroke:#181818;stroke-width:0.5;" x1="656" x2="820" y1="299.207" y2="299.207"/><line style="stroke:#181818;stroke-width:0.5;" x1="656" x2="820" y1="307.207" y2="307.207"/></g><!--class Location--><g id="elem_Location"><rect codeLine="31" fill="#F1F1F1" height="126.625" id="Location" rx="2.5" ry="2.5" style="stroke:#181818;stroke-width:0.5;" width="178" x="622" y="669.8945"/><ellipse cx="643.4" cy="700.0508" fill="#ADD1B2" rx="12" ry="12" style="stroke:#181818;stroke-width:1.0;"/><path d="M645.5406,694.9727 Q645.7281,694.7227 645.9469,694.5977 Q646.1656,694.457 646.4156,694.457 Q646.8531,694.457 647.1344,694.7695 Q647.4156,695.0664 647.4156,695.7852 L647.4156,697.4883 Q647.4156,698.207 647.1344,698.5195 Q646.8531,698.832 646.4156,698.832 Q646.025,698.832 645.775,698.5977 Q645.525,698.3789 645.4156,697.7695 Q645.3531,697.3477 645.1344,697.1289 Q644.7438,696.6914 644.025,696.4258 Q643.3063,696.1602 642.5875,696.1602 Q641.6813,696.1602 640.9313,696.5508 Q640.1813,696.9414 639.6031,697.832 Q639.025,698.707 639.025,699.9102 L639.025,701.207 Q639.025,702.6602 640.0719,703.6289 Q641.1344,704.5977 642.9938,704.5977 Q644.1031,704.5977 644.8844,704.2852 Q645.3219,704.1133 645.8375,703.5977 Q646.15,703.2852 646.3219,703.1914 Q646.4938,703.0977 646.7281,703.0977 Q647.1188,703.0977 647.4156,703.4102 Q647.7281,703.707 647.7281,704.1133 Q647.7281,704.5195 647.3219,704.9883 Q646.7281,705.6758 645.7906,706.0664 Q644.525,706.5977 643.0094,706.5977 Q641.2281,706.5977 639.8063,705.8633 Q638.65,705.2695 637.8375,704.0039 Q637.025,702.7383 637.025,701.2539 L637.025,699.8945 Q637.025,698.332 637.7438,696.9883 Q638.4781,695.6289 639.7594,694.8945 Q641.0563,694.1602 642.5094,694.1602 Q643.3688,694.1602 644.1188,694.3633 Q644.8844,694.5664 645.5406,694.9727 Z " fill="#000000"/><text fill="#000000" font-family="sans-serif" font-size="20" font-style="italic" lengthAdjust="spacing" textLength="136" x="657.6" y="695.6563">«Value Object»</text><text fill="#000000" font-family="sans-serif" font-size="20" lengthAdjust="spacing" textLength="74" x="688.6" y="720.8125">Location</text><line style="stroke:#181818;stroke-width:0.5;" x1="623" x2="799" y1="730.207" y2="730.207"/><ellipse cx="633" cy="748.2852" fill="none" rx="3" ry="3" style="stroke:#038048;stroke-width:1.0;"/><text fill="#000000" font-family="sans-serif" font-size="20" lengthAdjust="spacing" textLength="136" x="643" y="754.9688">latitude: Double</text><ellipse cx="633" cy="773.4414" fill="none" rx="3" ry="3" style="stroke:#038048;stroke-width:1.0;"/><text fill="#000000" font-family="sans-serif" font-size="20" lengthAdjust="spacing" textLength="151" x="643" y="780.125">longitude: Double</text><line style="stroke:#181818;stroke-width:0.5;" x1="623" x2="799" y1="788.5195" y2="788.5195"/></g><!--class Status--><g id="elem_Status"><rect codeLine="36" fill="#F1F1F1" height="76.3125" id="Status" rx="2.5" ry="2.5" style="stroke:#181818;stroke-width:0.5;" width="166" x="421" y="695.3945"/><ellipse cx="437" cy="725.5508" fill="#EB937F" rx="12" ry="12" style="stroke:#181818;stroke-width:1.0;"/><path d="M434.9531,726.6133 L434.9531,729.5508 L440.0469,729.5508 L440.0469,728.457 Q440.0469,727.7383 440.3281,727.4414 Q440.6094,727.1289 441.0625,727.1289 Q441.5,727.1289 441.7813,727.4414 Q442.0625,727.7383 442.0625,728.457 L442.0625,731.5508 L432.625,731.5508 Q431.9063,731.5508 431.5938,731.2695 Q431.2969,730.9883 431.2969,730.5508 Q431.2969,730.0977 431.6094,729.832 Q431.9219,729.5508 432.625,729.5508 L432.9375,729.5508 L432.9375,721.7227 L432.625,721.7227 Q431.9063,721.7227 431.5938,721.4414 Q431.2969,721.1602 431.2969,720.707 Q431.2969,720.2539 431.5938,719.9883 Q431.9063,719.707 432.625,719.707 L441.6094,719.707 L441.6094,722.7539 Q441.6094,723.4727 441.3281,723.7852 Q441.0625,724.082 440.625,724.082 Q440.1719,724.082 439.8906,723.7852 Q439.6094,723.4883 439.6094,722.7539 L439.6094,721.7227 L434.9531,721.7227 L434.9531,724.6133 L436.7031,724.6133 Q436.7031,723.832 436.8438,723.5977 Q437.1563,723.1289 437.7031,723.1289 Q438.1563,723.1289 438.4219,723.4414 Q438.7031,723.7383 438.7031,724.457 L438.7031,726.7695 Q438.7031,727.4258 438.5469,727.6445 Q438.2344,728.0977 437.7031,728.0977 Q437.1563,728.0977 436.8438,727.6289 Q436.7031,727.3945 436.7031,726.6133 L434.9531,726.6133 Z " fill="#000000"/><text fill="#000000" font-family="sans-serif" font-size="20" font-style="italic" lengthAdjust="spacing" textLength="136" x="450" y="721.1563">«Value Object»</text><text fill="#000000" font-family="sans-serif" font-size="20" lengthAdjust="spacing" textLength="56" x="490" y="746.3125">Status</text><line style="stroke:#181818;stroke-width:0.5;" x1="422" x2="586" y1="755.707" y2="755.707"/><line style="stroke:#181818;stroke-width:0.5;" x1="422" x2="586" y1="763.707" y2="763.707"/></g><!--class ShowDescription--><g id="elem_ShowDescription"><rect codeLine="39" fill="#F1F1F1" height="76.3125" id="ShowDescription" rx="2.5" ry="2.5" style="stroke:#181818;stroke-width:0.5;" width="181" x="856.5" y="238.8945"/><ellipse cx="872.5" cy="269.0508" fill="#ADD1B2" rx="12" ry="12" style="stroke:#181818;stroke-width:1.0;"/><path d="M874.6406,263.9727 Q874.8281,263.7227 875.0469,263.5977 Q875.2656,263.457 875.5156,263.457 Q875.9531,263.457 876.2344,263.7695 Q876.5156,264.0664 876.5156,264.7852 L876.5156,266.4883 Q876.5156,267.207 876.2344,267.5195 Q875.9531,267.832 875.5156,267.832 Q875.125,267.832 874.875,267.5977 Q874.625,267.3789 874.5156,266.7695 Q874.4531,266.3477 874.2344,266.1289 Q873.8438,265.6914 873.125,265.4258 Q872.4063,265.1602 871.6875,265.1602 Q870.7813,265.1602 870.0313,265.5508 Q869.2813,265.9414 868.7031,266.832 Q868.125,267.707 868.125,268.9102 L868.125,270.207 Q868.125,271.6602 869.1719,272.6289 Q870.2344,273.5977 872.0938,273.5977 Q873.2031,273.5977 873.9844,273.2852 Q874.4219,273.1133 874.9375,272.5977 Q875.25,272.2852 875.4219,272.1914 Q875.5938,272.0977 875.8281,272.0977 Q876.2188,272.0977 876.5156,272.4102 Q876.8281,272.707 876.8281,273.1133 Q876.8281,273.5195 876.4219,273.9883 Q875.8281,274.6758 874.8906,275.0664 Q873.625,275.5977 872.1094,275.5977 Q870.3281,275.5977 868.9063,274.8633 Q867.75,274.2695 866.9375,273.0039 Q866.125,271.7383 866.125,270.2539 L866.125,268.8945 Q866.125,267.332 866.8438,265.9883 Q867.5781,264.6289 868.8594,263.8945 Q870.1563,263.1602 871.6094,263.1602 Q872.4688,263.1602 873.2188,263.3633 Q873.9844,263.5664 874.6406,263.9727 Z " fill="#000000"/><text fill="#000000" font-family="sans-serif" font-size="20" font-style="italic" lengthAdjust="spacing" textLength="136" x="893" y="264.6563">«Value Object»</text><text fill="#000000" font-family="sans-serif" font-size="20" lengthAdjust="spacing" textLength="147" x="887.5" y="289.8125">ShowDescription</text><line style="stroke:#181818;stroke-width:0.5;" x1="857.5" x2="1036.5" y1="299.207" y2="299.207"/><line style="stroke:#181818;stroke-width:0.5;" x1="857.5" x2="1036.5" y1="307.207" y2="307.207"/></g><!--class CRMCollaborator--><g id="elem_CRMCollaborator"><rect codeLine="42" fill="#F1F1F1" height="101.4688" id="CRMCollaborator" rx="2.5" ry="2.5" style="stroke:#181818;stroke-width:0.5;" width="187" x="198.5" y="682.8945"/><ellipse cx="214.5" cy="713.0508" fill="#ADD1B2" rx="12" ry="12" style="stroke:#181818;stroke-width:1.0;"/><path d="M216.6406,707.9727 Q216.8281,707.7227 217.0469,707.5977 Q217.2656,707.457 217.5156,707.457 Q217.9531,707.457 218.2344,707.7695 Q218.5156,708.0664 218.5156,708.7852 L218.5156,710.4883 Q218.5156,711.207 218.2344,711.5195 Q217.9531,711.832 217.5156,711.832 Q217.125,711.832 216.875,711.5977 Q216.625,711.3789 216.5156,710.7695 Q216.4531,710.3477 216.2344,710.1289 Q215.8438,709.6914 215.125,709.4258 Q214.4063,709.1602 213.6875,709.1602 Q212.7813,709.1602 212.0313,709.5508 Q211.2813,709.9414 210.7031,710.832 Q210.125,711.707 210.125,712.9102 L210.125,714.207 Q210.125,715.6602 211.1719,716.6289 Q212.2344,717.5977 214.0938,717.5977 Q215.2031,717.5977 215.9844,717.2852 Q216.4219,717.1133 216.9375,716.5977 Q217.25,716.2852 217.4219,716.1914 Q217.5938,716.0977 217.8281,716.0977 Q218.2188,716.0977 218.5156,716.4102 Q218.8281,716.707 218.8281,717.1133 Q218.8281,717.5195 218.4219,717.9883 Q217.8281,718.6758 216.8906,719.0664 Q215.625,719.5977 214.1094,719.5977 Q212.3281,719.5977 210.9063,718.8633 Q209.75,718.2695 208.9375,717.0039 Q208.125,715.7383 208.125,714.2539 L208.125,712.8945 Q208.125,711.332 208.8438,709.9883 Q209.5781,708.6289 210.8594,707.8945 Q212.1563,707.1602 213.6094,707.1602 Q214.4688,707.1602 215.2188,707.3633 Q215.9844,707.5664 216.6406,707.9727 Z " fill="#000000"/><text fill="#000000" font-family="sans-serif" font-size="20" font-style="italic" lengthAdjust="spacing" textLength="71" x="270.5" y="708.6563">«Entity»</text><text fill="#000000" font-family="sans-serif" font-size="20" lengthAdjust="spacing" textLength="153" x="229.5" y="733.8125">CRMCollaborator</text><line style="stroke:#181818;stroke-width:0.5;" x1="199.5" x2="384.5" y1="743.207" y2="743.207"/><ellipse cx="209.5" cy="761.2852" fill="none" rx="3" ry="3" style="stroke:#038048;stroke-width:1.0;"/><text fill="#000000" font-family="sans-serif" font-size="20" lengthAdjust="spacing" textLength="89" x="219.5" y="767.9688">id: Integer</text><line style="stroke:#181818;stroke-width:0.5;" x1="199.5" x2="384.5" y1="776.3633" y2="776.3633"/></g><!--class Show--><g id="elem_Show"><rect codeLine="46" fill="#F1F1F1" height="76.3125" id="Show" rx="2.5" ry="2.5" style="stroke:#181818;stroke-width:0.5;" width="101" x="687.5" y="75.8945"/><ellipse cx="703.5" cy="106.0508" fill="#ADD1B2" rx="12" ry="12" style="stroke:#181818;stroke-width:1.0;"/><path d="M705.6406,100.9727 Q705.8281,100.7227 706.0469,100.5977 Q706.2656,100.457 706.5156,100.457 Q706.9531,100.457 707.2344,100.7695 Q707.5156,101.0664 707.5156,101.7852 L707.5156,103.4883 Q707.5156,104.207 707.2344,104.5195 Q706.9531,104.832 706.5156,104.832 Q706.125,104.832 705.875,104.5977 Q705.625,104.3789 705.5156,103.7695 Q705.4531,103.3477 705.2344,103.1289 Q704.8438,102.6914 704.125,102.4258 Q703.4063,102.1602 702.6875,102.1602 Q701.7813,102.1602 701.0313,102.5508 Q700.2813,102.9414 699.7031,103.832 Q699.125,104.707 699.125,105.9102 L699.125,107.207 Q699.125,108.6602 700.1719,109.6289 Q701.2344,110.5977 703.0938,110.5977 Q704.2031,110.5977 704.9844,110.2852 Q705.4219,110.1133 705.9375,109.5977 Q706.25,109.2852 706.4219,109.1914 Q706.5938,109.0977 706.8281,109.0977 Q707.2188,109.0977 707.5156,109.4102 Q707.8281,109.707 707.8281,110.1133 Q707.8281,110.5195 707.4219,110.9883 Q706.8281,111.6758 705.8906,112.0664 Q704.625,112.5977 703.1094,112.5977 Q701.3281,112.5977 699.9063,111.8633 Q698.75,111.2695 697.9375,110.0039 Q697.125,108.7383 697.125,107.2539 L697.125,105.8945 Q697.125,104.332 697.8438,102.9883 Q698.5781,101.6289 699.8594,100.8945 Q701.1563,100.1602 702.6094,100.1602 Q703.4688,100.1602 704.2188,100.3633 Q704.9844,100.5664 705.6406,100.9727 Z " fill="#000000"/><text fill="#000000" font-family="sans-serif" font-size="20" font-style="italic" lengthAdjust="spacing" textLength="71" x="716.5" y="101.6563">«Entity»</text><text fill="#000000" font-family="sans-serif" font-size="20" lengthAdjust="spacing" textLength="49" x="727.5" y="126.8125">Show</text><line style="stroke:#181818;stroke-width:0.5;" x1="688.5" x2="787.5" y1="136.207" y2="136.207"/><line style="stroke:#181818;stroke-width:0.5;" x1="688.5" x2="787.5" y1="144.207" y2="144.207"/></g><!--class ShowRequest--><g id="elem_ShowRequest"><rect codeLine="49" fill="#F1F1F1" height="101.4688" id="ShowRequest" rx="2.5" ry="2.5" style="stroke:#181818;stroke-width:0.5;" width="199" x="729.5" y="401.8945"/><ellipse cx="764.85" cy="432.0508" fill="#ADD1B2" rx="12" ry="12" style="stroke:#181818;stroke-width:1.0;"/><path d="M766.9906,426.9727 Q767.1781,426.7227 767.3969,426.5977 Q767.6156,426.457 767.8656,426.457 Q768.3031,426.457 768.5844,426.7695 Q768.8656,427.0664 768.8656,427.7852 L768.8656,429.4883 Q768.8656,430.207 768.5844,430.5195 Q768.3031,430.832 767.8656,430.832 Q767.475,430.832 767.225,430.5977 Q766.975,430.3789 766.8656,429.7695 Q766.8031,429.3477 766.5844,429.1289 Q766.1938,428.6914 765.475,428.4258 Q764.7563,428.1602 764.0375,428.1602 Q763.1313,428.1602 762.3813,428.5508 Q761.6313,428.9414 761.0531,429.832 Q760.475,430.707 760.475,431.9102 L760.475,433.207 Q760.475,434.6602 761.5219,435.6289 Q762.5844,436.5977 764.4438,436.5977 Q765.5531,436.5977 766.3344,436.2852 Q766.7719,436.1133 767.2875,435.5977 Q767.6,435.2852 767.7719,435.1914 Q767.9438,435.0977 768.1781,435.0977 Q768.5688,435.0977 768.8656,435.4102 Q769.1781,435.707 769.1781,436.1133 Q769.1781,436.5195 768.7719,436.9883 Q768.1781,437.6758 767.2406,438.0664 Q765.975,438.5977 764.4594,438.5977 Q762.6781,438.5977 761.2563,437.8633 Q760.1,437.2695 759.2875,436.0039 Q758.475,434.7383 758.475,433.2539 L758.475,431.8945 Q758.475,430.332 759.1938,428.9883 Q759.9281,427.6289 761.2094,426.8945 Q762.5063,426.1602 763.9594,426.1602 Q764.8188,426.1602 765.5688,426.3633 Q766.3344,426.5664 766.9906,426.9727 Z " fill="#000000"/><text fill="#000000" font-family="sans-serif" font-size="20" font-style="italic" lengthAdjust="spacing" textLength="71" x="809.65" y="427.6563">«Entity»</text><text fill="#000000" font-family="sans-serif" font-size="20" lengthAdjust="spacing" textLength="122" x="784.15" y="452.8125">ShowRequest</text><line style="stroke:#181818;stroke-width:0.5;" x1="730.5" x2="927.5" y1="462.207" y2="462.207"/><ellipse cx="740.5" cy="480.2852" fill="none" rx="3" ry="3" style="stroke:#038048;stroke-width:1.0;"/><text fill="#000000" font-family="sans-serif" font-size="20" lengthAdjust="spacing" textLength="172" x="750.5" y="486.9688">qnt_drones: Integer</text><line style="stroke:#181818;stroke-width:0.5;" x1="730.5" x2="927.5" y1="495.3633" y2="495.3633"/></g><!--class ShowProposal--><g id="elem_ShowProposal"><rect codeLine="53" fill="#F1F1F1" height="76.3125" id="ShowProposal" rx="2.5" ry="2.5" style="stroke:#181818;stroke-width:0.5;" width="161" x="458.5" y="238.8945"/><ellipse cx="474.5" cy="269.0508" fill="#ADD1B2" rx="12" ry="12" style="stroke:#181818;stroke-width:1.0;"/><path d="M476.6406,263.9727 Q476.8281,263.7227 477.0469,263.5977 Q477.2656,263.457 477.5156,263.457 Q477.9531,263.457 478.2344,263.7695 Q478.5156,264.0664 478.5156,264.7852 L478.5156,266.4883 Q478.5156,267.207 478.2344,267.5195 Q477.9531,267.832 477.5156,267.832 Q477.125,267.832 476.875,267.5977 Q476.625,267.3789 476.5156,266.7695 Q476.4531,266.3477 476.2344,266.1289 Q475.8438,265.6914 475.125,265.4258 Q474.4063,265.1602 473.6875,265.1602 Q472.7813,265.1602 472.0313,265.5508 Q471.2813,265.9414 470.7031,266.832 Q470.125,267.707 470.125,268.9102 L470.125,270.207 Q470.125,271.6602 471.1719,272.6289 Q472.2344,273.5977 474.0938,273.5977 Q475.2031,273.5977 475.9844,273.2852 Q476.4219,273.1133 476.9375,272.5977 Q477.25,272.2852 477.4219,272.1914 Q477.5938,272.0977 477.8281,272.0977 Q478.2188,272.0977 478.5156,272.4102 Q478.8281,272.707 478.8281,273.1133 Q478.8281,273.5195 478.4219,273.9883 Q477.8281,274.6758 476.8906,275.0664 Q475.625,275.5977 474.1094,275.5977 Q472.3281,275.5977 470.9063,274.8633 Q469.75,274.2695 468.9375,273.0039 Q468.125,271.7383 468.125,270.2539 L468.125,268.8945 Q468.125,267.332 468.8438,265.9883 Q469.5781,264.6289 470.8594,263.8945 Q472.1563,263.1602 473.6094,263.1602 Q474.4688,263.1602 475.2188,263.3633 Q475.9844,263.5664 476.6406,263.9727 Z " fill="#000000"/><text fill="#000000" font-family="sans-serif" font-size="20" font-style="italic" lengthAdjust="spacing" textLength="71" x="517.5" y="264.6563">«Entity»</text><text fill="#000000" font-family="sans-serif" font-size="20" lengthAdjust="spacing" textLength="127" x="489.5" y="289.8125">ShowProposal</text><line style="stroke:#181818;stroke-width:0.5;" x1="459.5" x2="618.5" y1="299.207" y2="299.207"/><line style="stroke:#181818;stroke-width:0.5;" x1="459.5" x2="618.5" y1="307.207" y2="307.207"/></g><!--class Time--><g id="elem_Time"><rect codeLine="84" fill="#F1F1F1" height="76.3125" id="Time" rx="2.5" ry="2.5" style="stroke:#181818;stroke-width:0.5;" width="166" x="1660" y="940.8945"/><ellipse cx="1676" cy="971.0508" fill="#ADD1B2" rx="12" ry="12" style="stroke:#181818;stroke-width:1.0;"/><path d="M1678.1406,965.9727 Q1678.3281,965.7227 1678.5469,965.5977 Q1678.7656,965.457 1679.0156,965.457 Q1679.4531,965.457 1679.7344,965.7695 Q1680.0156,966.0664 1680.0156,966.7852 L1680.0156,968.4883 Q1680.0156,969.207 1679.7344,969.5195 Q1679.4531,969.832 1679.0156,969.832 Q1678.625,969.832 1678.375,969.5977 Q1678.125,969.3789 1678.0156,968.7695 Q1677.9531,968.3477 1677.7344,968.1289 Q1677.3438,967.6914 1676.625,967.4258 Q1675.9063,967.1602 1675.1875,967.1602 Q1674.2813,967.1602 1673.5313,967.5508 Q1672.7813,967.9414 1672.2031,968.832 Q1671.625,969.707 1671.625,970.9102 L1671.625,972.207 Q1671.625,973.6602 1672.6719,974.6289 Q1673.7344,975.5977 1675.5938,975.5977 Q1676.7031,975.5977 1677.4844,975.2852 Q1677.9219,975.1133 1678.4375,974.5977 Q1678.75,974.2852 1678.9219,974.1914 Q1679.0938,974.0977 1679.3281,974.0977 Q1679.7188,974.0977 1680.0156,974.4102 Q1680.3281,974.707 1680.3281,975.1133 Q1680.3281,975.5195 1679.9219,975.9883 Q1679.3281,976.6758 1678.3906,977.0664 Q1677.125,977.5977 1675.6094,977.5977 Q1673.8281,977.5977 1672.4063,976.8633 Q1671.25,976.2695 1670.4375,975.0039 Q1669.625,973.7383 1669.625,972.2539 L1669.625,970.8945 Q1669.625,969.332 1670.3438,967.9883 Q1671.0781,966.6289 1672.3594,965.8945 Q1673.6563,965.1602 1675.1094,965.1602 Q1675.9688,965.1602 1676.7188,965.3633 Q1677.4844,965.5664 1678.1406,965.9727 Z " fill="#000000"/><text fill="#000000" font-family="sans-serif" font-size="20" font-style="italic" lengthAdjust="spacing" textLength="136" x="1689" y="966.6563">«Value Object»</text><text fill="#000000" font-family="sans-serif" font-size="20" lengthAdjust="spacing" textLength="43" x="1735.5" y="991.8125">Time</text><line style="stroke:#181818;stroke-width:0.5;" x1="1661" x2="1825" y1="1001.207" y2="1001.207"/><line style="stroke:#181818;stroke-width:0.5;" x1="1661" x2="1825" y1="1009.207" y2="1009.207"/></g><!--class Name--><g id="elem_Name"><rect codeLine="87" fill="#F1F1F1" height="76.3125" id="Name" rx="2.5" ry="2.5" style="stroke:#181818;stroke-width:0.5;" width="166" x="1258" y="940.8945"/><ellipse cx="1274" cy="971.0508" fill="#ADD1B2" rx="12" ry="12" style="stroke:#181818;stroke-width:1.0;"/><path d="M1276.1406,965.9727 Q1276.3281,965.7227 1276.5469,965.5977 Q1276.7656,965.457 1277.0156,965.457 Q1277.4531,965.457 1277.7344,965.7695 Q1278.0156,966.0664 1278.0156,966.7852 L1278.0156,968.4883 Q1278.0156,969.207 1277.7344,969.5195 Q1277.4531,969.832 1277.0156,969.832 Q1276.625,969.832 1276.375,969.5977 Q1276.125,969.3789 1276.0156,968.7695 Q1275.9531,968.3477 1275.7344,968.1289 Q1275.3438,967.6914 1274.625,967.4258 Q1273.9063,967.1602 1273.1875,967.1602 Q1272.2813,967.1602 1271.5313,967.5508 Q1270.7813,967.9414 1270.2031,968.832 Q1269.625,969.707 1269.625,970.9102 L1269.625,972.207 Q1269.625,973.6602 1270.6719,974.6289 Q1271.7344,975.5977 1273.5938,975.5977 Q1274.7031,975.5977 1275.4844,975.2852 Q1275.9219,975.1133 1276.4375,974.5977 Q1276.75,974.2852 1276.9219,974.1914 Q1277.0938,974.0977 1277.3281,974.0977 Q1277.7188,974.0977 1278.0156,974.4102 Q1278.3281,974.707 1278.3281,975.1133 Q1278.3281,975.5195 1277.9219,975.9883 Q1277.3281,976.6758 1276.3906,977.0664 Q1275.125,977.5977 1273.6094,977.5977 Q1271.8281,977.5977 1270.4063,976.8633 Q1269.25,976.2695 1268.4375,975.0039 Q1267.625,973.7383 1267.625,972.2539 L1267.625,970.8945 Q1267.625,969.332 1268.3438,967.9883 Q1269.0781,966.6289 1270.3594,965.8945 Q1271.6563,965.1602 1273.1094,965.1602 Q1273.9688,965.1602 1274.7188,965.3633 Q1275.4844,965.5664 1276.1406,965.9727 Z " fill="#000000"/><text fill="#000000" font-family="sans-serif" font-size="20" font-style="italic" lengthAdjust="spacing" textLength="136" x="1287" y="966.6563">«Value Object»</text><text fill="#000000" font-family="sans-serif" font-size="20" lengthAdjust="spacing" textLength="51" x="1329.5" y="991.8125">Name</text><line style="stroke:#181818;stroke-width:0.5;" x1="1259" x2="1423" y1="1001.207" y2="1001.207"/><line style="stroke:#181818;stroke-width:0.5;" x1="1259" x2="1423" y1="1009.207" y2="1009.207"/></g><!--class Email--><g id="elem_Email"><rect codeLine="90" fill="#F1F1F1" height="76.3125" id="Email" rx="2.5" ry="2.5" style="stroke:#181818;stroke-width:0.5;" width="166" x="1459" y="940.8945"/><ellipse cx="1475" cy="971.0508" fill="#ADD1B2" rx="12" ry="12" style="stroke:#181818;stroke-width:1.0;"/><path d="M1477.1406,965.9727 Q1477.3281,965.7227 1477.5469,965.5977 Q1477.7656,965.457 1478.0156,965.457 Q1478.4531,965.457 1478.7344,965.7695 Q1479.0156,966.0664 1479.0156,966.7852 L1479.0156,968.4883 Q1479.0156,969.207 1478.7344,969.5195 Q1478.4531,969.832 1478.0156,969.832 Q1477.625,969.832 1477.375,969.5977 Q1477.125,969.3789 1477.0156,968.7695 Q1476.9531,968.3477 1476.7344,968.1289 Q1476.3438,967.6914 1475.625,967.4258 Q1474.9063,967.1602 1474.1875,967.1602 Q1473.2813,967.1602 1472.5313,967.5508 Q1471.7813,967.9414 1471.2031,968.832 Q1470.625,969.707 1470.625,970.9102 L1470.625,972.207 Q1470.625,973.6602 1471.6719,974.6289 Q1472.7344,975.5977 1474.5938,975.5977 Q1475.7031,975.5977 1476.4844,975.2852 Q1476.9219,975.1133 1477.4375,974.5977 Q1477.75,974.2852 1477.9219,974.1914 Q1478.0938,974.0977 1478.3281,974.0977 Q1478.7188,974.0977 1479.0156,974.4102 Q1479.3281,974.707 1479.3281,975.1133 Q1479.3281,975.5195 1478.9219,975.9883 Q1478.3281,976.6758 1477.3906,977.0664 Q1476.125,977.5977 1474.6094,977.5977 Q1472.8281,977.5977 1471.4063,976.8633 Q1470.25,976.2695 1469.4375,975.0039 Q1468.625,973.7383 1468.625,972.2539 L1468.625,970.8945 Q1468.625,969.332 1469.3438,967.9883 Q1470.0781,966.6289 1471.3594,965.8945 Q1472.6563,965.1602 1474.1094,965.1602 Q1474.9688,965.1602 1475.7188,965.3633 Q1476.4844,965.5664 1477.1406,965.9727 Z " fill="#000000"/><text fill="#000000" font-family="sans-serif" font-size="20" font-style="italic" lengthAdjust="spacing" textLength="136" x="1488" y="966.6563">«Value Object»</text><text fill="#000000" font-family="sans-serif" font-size="20" lengthAdjust="spacing" textLength="48" x="1532" y="991.8125">Email</text><line style="stroke:#181818;stroke-width:0.5;" x1="1460" x2="1624" y1="1001.207" y2="1001.207"/><line style="stroke:#181818;stroke-width:0.5;" x1="1460" x2="1624" y1="1009.207" y2="1009.207"/></g><!--link ShowRequest to Figure--><g id="link_ShowRequest_Figure"><path codeLine="57" d="M928.57,457.0145 C1025.02,463.5745 1173.65,481.9145 1292,532.8945 C1310.37,540.8045 1310.28,550.6145 1328,559.8945 C1337.96,565.1145 1342.88,561.3145 1352,567.8945 C1378.76,587.2145 1402.25,614.0645 1421.33,640.4745 " fill="none" id="ShowRequest-to-Figure" style="stroke:#181818;stroke-width:1.0;"/><polygon fill="#181818" points="1424.35,644.7045,1422.3866,635.0534,1421.4492,640.632,1415.8706,639.6946,1424.35,644.7045" style="stroke:#181818;stroke-width:1.0;"/><text fill="#000000" font-family="sans-serif" font-size="20" lengthAdjust="spacing" textLength="118" x="1329" y="554.6563">requests new</text><text fill="#000000" font-family="sans-serif" font-size="20" lengthAdjust="spacing" textLength="31" x="1388.0787" y="632.4114">0..*</text></g><!--link ShowRequest to Date--><g id="link_ShowRequest_Date"><path codeLine="58" d="M864.19,503.2345 C869.79,512.7645 875.04,522.8945 879,532.8945 C899.57,584.8145 909.61,648.7645 914.28,690.0445 " fill="none" id="ShowRequest-to-Date" style="stroke:#181818;stroke-width:1.0;"/><polygon fill="#181818" points="914.85,695.2145,917.8494,685.8335,914.3072,690.2441,909.8967,686.7019,914.85,695.2145" style="stroke:#181818;stroke-width:1.0;"/><text fill="#000000" font-family="sans-serif" font-size="20" lengthAdjust="spacing" textLength="83" x="889" y="554.6563">startTime</text><text fill="#000000" font-family="sans-serif" font-size="20" lengthAdjust="spacing" textLength="11" x="902.4714" y="682.8867">1</text></g><!--link ShowRequest to Description--><g id="link_ShowRequest_Description"><path codeLine="59" d="M928.53,500.6345 C946.49,510.4945 964.68,521.4145 981,532.8945 C1038.11,573.0745 1079.13,644.8945 1100.95,690.5145 " fill="none" id="ShowRequest-to-Description" style="stroke:#181818;stroke-width:1.0;"/><polygon fill="#181818" points="1103.13,695.1245,1102.9096,685.2781,1100.9976,690.6021,1095.6736,688.69,1103.13,695.1245" style="stroke:#181818;stroke-width:1.0;"/><text fill="#000000" font-family="sans-serif" font-size="20" lengthAdjust="spacing" textLength="95" x="1012" y="554.6563">description</text><text fill="#000000" font-family="sans-serif" font-size="20" lengthAdjust="spacing" textLength="11" x="1088.8577" y="683.1001">1</text></g><!--link ShowRequest to CRMCollaborator--><g id="link_ShowRequest_CRMCollaborator"><path codeLine="60" d="M729.39,476.2845 C612.1,503.8445 429.75,548.8045 403,567.8945 C364.09,595.6645 334.74,641.6645 316.03,677.9745 " fill="none" id="ShowRequest-to-CRMCollaborator" style="stroke:#181818;stroke-width:1.0;"/><polygon fill="#181818" points="313.57,682.8045,321.2046,676.5825,315.8289,678.3439,314.0675,672.9682,313.57,682.8045" style="stroke:#181818;stroke-width:1.0;"/><text fill="#000000" font-family="sans-serif" font-size="20" lengthAdjust="spacing" textLength="112" x="503" y="554.6563">submitted by</text><text fill="#000000" font-family="sans-serif" font-size="20" lengthAdjust="spacing" textLength="11" x="304.629" y="670.4628">1</text></g><!--link ShowRequest to Customer--><g id="link_ShowRequest_Customer"><path codeLine="61" d="M729.46,477.7145 C689.97,486.6745 644.03,496.2445 602,502.8945 C415.43,532.4045 331.63,452.6145 182,567.8945 C145.39,596.1045 119.15,641.8345 102.76,677.9345 " fill="none" id="ShowRequest-to-Customer" style="stroke:#181818;stroke-width:1.0;"/><polygon fill="#181818" points="100.61,682.7345,107.9415,676.1582,102.6553,678.172,100.6415,672.8857,100.61,682.7345" style="stroke:#181818;stroke-width:1.0;"/><text fill="#000000" font-family="sans-serif" font-size="20" lengthAdjust="spacing" textLength="115" x="235" y="554.6563">requested by</text><text fill="#000000" font-family="sans-serif" font-size="20" lengthAdjust="spacing" textLength="11" x="91.2897" y="670.3839">1</text></g><!--link ShowRequest to Location--><g id="link_ShowRequest_Location"><path codeLine="62" d="M811.74,503.0145 C805.23,521.0445 797.57,541.5045 790,559.8945 C775.55,595.0245 758.08,633.5145 743.26,665.2045 " fill="none" id="ShowRequest-to-Location" style="stroke:#181818;stroke-width:1.0;"/><polygon fill="#181818" points="741.09,669.8245,748.5464,663.39,743.2224,665.3021,741.3104,659.9781,741.09,669.8245" style="stroke:#181818;stroke-width:1.0;"/><text fill="#000000" font-family="sans-serif" font-size="20" lengthAdjust="spacing" textLength="47" x="801" y="554.6563">place</text><text fill="#000000" font-family="sans-serif" font-size="20" lengthAdjust="spacing" textLength="11" x="732.7795" y="657.2951">1</text></g><!--link ShowRequest to Status--><g id="link_ShowRequest_Status"><path codeLine="63" d="M764.5,503.0645 C751.99,512.8645 739.03,523.1345 727,532.8945 C712.55,544.6145 712.18,552.7445 695,559.8945 C676.26,567.6945 621.24,557.1745 604,567.8945 C559.45,595.5845 531.94,651.1545 517.32,690.0145 " fill="none" id="ShowRequest-to-Status" style="stroke:#181818;stroke-width:1.0;"/><polygon fill="#181818" points="515.43,695.1445,522.2907,688.0784,517.1559,690.4518,514.7824,685.317,515.43,695.1445" style="stroke:#181818;stroke-width:1.0;"/><text fill="#000000" font-family="sans-serif" font-size="20" lengthAdjust="spacing" textLength="53" x="728" y="554.6563">status</text><text fill="#000000" font-family="sans-serif" font-size="20" lengthAdjust="spacing" textLength="11" x="505.338" y="683.1232">1</text></g><!--link Show to Figure--><g id="link_Show_Figure"><path codeLine="66" d="M788.94,122.7845 C840.54,132.1045 921.69,150.4545 986,181.8945 C1218.94,295.7745 1323.16,307.8745 1452,532.8945 C1470.25,564.7645 1477.37,604.1745 1479.44,639.5345 " fill="none" id="Show-to-Figure" style="stroke:#181818;stroke-width:1.0;"/><polygon fill="#181818" points="1479.71,644.7145,1483.2425,635.521,1479.4532,639.7211,1475.253,635.9319,1479.71,644.7145" style="stroke:#181818;stroke-width:1.0;"/><text fill="#000000" font-family="sans-serif" font-size="20" lengthAdjust="spacing" textLength="107" x="1330" y="366.6563">sequence of</text><text fill="#000000" font-family="sans-serif" font-size="20" lengthAdjust="spacing" textLength="31" x="1447.8502" y="632.4222">1..*</text></g><!--link Show to ShowStatus--><g id="link_Show_ShowStatus"><path codeLine="67" d="M738,152.2345 C738,176.5145 738,208.2445 738,233.4745 " fill="none" id="Show-to-ShowStatus" style="stroke:#181818;stroke-width:1.0;"/><polygon fill="#181818" points="738,238.7545,742,229.7545,738,233.7545,734,229.7545,738,238.7545" style="stroke:#181818;stroke-width:1.0;"/><text fill="#000000" font-family="sans-serif" font-size="20" lengthAdjust="spacing" textLength="102" x="739" y="203.6563">showStatus</text><text fill="#000000" font-family="sans-serif" font-size="20" lengthAdjust="spacing" textLength="11" x="726.1234" y="226.433">1</text></g><!--link Show to ShowDescription--><g id="link_Show_ShowDescription"><path codeLine="68" d="M788.67,141.8845 C808.47,153.2745 830.94,167.2745 850,181.8945 C870.58,197.6845 891.49,217.3845 908.6,234.6645 " fill="none" id="Show-to-ShowDescription" style="stroke:#181818;stroke-width:1.0;"/><polygon fill="#181818" points="912.42,238.5345,908.9587,229.3139,908.9131,234.9706,903.2564,234.925,912.42,238.5345" style="stroke:#181818;stroke-width:1.0;"/><text fill="#000000" font-family="sans-serif" font-size="20" lengthAdjust="spacing" textLength="95" x="882" y="203.6563">description</text><text fill="#000000" font-family="sans-serif" font-size="20" lengthAdjust="spacing" textLength="11" x="895.2828" y="226.4963">1</text></g><!--link Show to ShowProposal--><g id="link_Show_ShowProposal"><path codeLine="69" d="M687.3,131.1745 C658.74,142.1845 623.74,158.9345 598,181.8945 C581.83,196.3145 568.48,216.2145 558.59,233.9845 " fill="none" id="Show-to-ShowProposal" style="stroke:#181818;stroke-width:1.0;"/><polygon fill="#181818" points="556.15,238.4545,563.9794,232.4796,558.5503,234.0683,556.9615,228.6392,556.15,238.4545" style="stroke:#181818;stroke-width:1.0;"/><text fill="#000000" font-family="sans-serif" font-size="20" lengthAdjust="spacing" textLength="130" x="599" y="203.6563">generated with</text><text fill="#000000" font-family="sans-serif" font-size="20" lengthAdjust="spacing" textLength="11" x="546.9339" y="226.4041">1</text></g><!--link Show to CRMCollaborator--><g id="link_Show_CRMCollaborator"><path codeLine="70" d="M687.16,122.4745 C588.44,140.3545 373.75,195.5045 297,344.8945 C241.87,452.2045 261.52,599.3045 278.24,677.7945 " fill="none" id="Show-to-CRMCollaborator" style="stroke:#181818;stroke-width:1.0;"/><polygon fill="#181818" points="279.33,682.8645,281.3362,673.2222,278.2726,677.9776,273.5171,674.914,279.33,682.8645" style="stroke:#181818;stroke-width:1.0;"/><text fill="#000000" font-family="sans-serif" font-size="20" lengthAdjust="spacing" textLength="115" x="298" y="366.6563">scheduled by</text><text fill="#000000" font-family="sans-serif" font-size="20" lengthAdjust="spacing" textLength="11" x="266.002" y="670.5305">1</text></g><!--link ShowProposal to CRMCollaborator--><g id="link_ShowProposal_CRMCollaborator"><path codeLine="73" d="M483.48,314.9345 C454.09,337.0745 419.52,367.5445 397,401.8945 C340.06,488.7545 312.18,608.6245 300.05,677.5745 " fill="none" id="ShowProposal-to-CRMCollaborator" style="stroke:#181818;stroke-width:1.0;"/><polygon fill="#181818" points="299.13,682.8545,304.6129,674.673,299.9867,677.9285,296.7312,673.3023,299.13,682.8545" style="stroke:#181818;stroke-width:1.0;"/><text fill="#000000" font-family="sans-serif" font-size="20" lengthAdjust="spacing" textLength="116" x="398" y="460.6563">generated by</text><text fill="#000000" font-family="sans-serif" font-size="20" lengthAdjust="spacing" textLength="11" x="288.3388" y="670.5192">1</text></g><!--link ShowProposal to ShowRequest--><g id="link_ShowProposal_ShowRequest"><path codeLine="74" d="M600.86,314.9045 C641.87,339.4345 696.28,371.9945 741.69,399.1545 " fill="none" id="ShowProposal-to-ShowRequest" style="stroke:#181818;stroke-width:1.0;"/><polygon fill="#181818" points="746.05,401.7645,740.3787,393.7124,741.7588,399.1983,736.2728,400.5784,746.05,401.7645" style="stroke:#181818;stroke-width:1.0;"/><text fill="#000000" font-family="sans-serif" font-size="20" lengthAdjust="spacing" textLength="130" x="693" y="366.6563">generated with</text><text fill="#000000" font-family="sans-serif" font-size="20" lengthAdjust="spacing" textLength="11" x="723.7173" y="389.4177">1</text></g><!--link ShowProposal to Status--><g id="link_ShowProposal_Status"><path codeLine="75" d="M536.14,315.0845 C529.68,398.8545 514.05,601.8745 507.25,690.1845 " fill="none" id="ShowProposal-to-Status" style="stroke:#181818;stroke-width:1.0;"/><polygon fill="#181818" points="506.85,695.3245,511.5323,686.6599,507.2357,690.3394,503.5561,686.0428,506.85,695.3245" style="stroke:#181818;stroke-width:1.0;"/><text fill="#000000" font-family="sans-serif" font-size="20" lengthAdjust="spacing" textLength="53" x="531" y="460.6563">status</text><text fill="#000000" font-family="sans-serif" font-size="20" lengthAdjust="spacing" textLength="11" x="495.4277" y="683.0142">1</text></g><!--link CRMCollaborator to PhoneNumber--><g id="link_CRMCollaborator_PhoneNumber"><path codeLine="78" d="M292,783.9645 C292,828.5945 292,893.4745 292,935.6845 " fill="none" id="CRMCollaborator-to-PhoneNumber" style="stroke:#181818;stroke-width:1.0;"/><polygon fill="#181818" points="292,940.7145,296,931.7145,292,935.7145,288,931.7145,292,940.7145" style="stroke:#181818;stroke-width:1.0;"/><text fill="#000000" font-family="sans-serif" font-size="20" lengthAdjust="spacing" textLength="121" x="293" y="875.6563">phoneNumber</text><text fill="#000000" font-family="sans-serif" font-size="20" lengthAdjust="spacing" textLength="11" x="280.1234" y="928.3867">1</text></g><!--link CRMCollaborator to Name--><g id="link_CRMCollaborator_Name"><path codeLine="94" d="M327.67,784.1845 C347.12,807.2145 373.28,832.4045 403,845.8945 C512.7,895.6945 823.66,875.2445 944,880.8945 C974.42,882.3245 1189.16,879.0845 1218,888.8945 C1247.72,899.0045 1276.4,918.9645 1298.59,937.4245 " fill="none" id="CRMCollaborator-to-Name" style="stroke:#181818;stroke-width:1.0;"/><polygon fill="#181818" points="1302.65,940.8545,1298.3648,931.9868,1298.8336,937.6242,1293.1962,938.093,1302.65,940.8545" style="stroke:#181818;stroke-width:1.0;"/><text fill="#000000" font-family="sans-serif" font-size="20" lengthAdjust="spacing" textLength="48" x="945" y="875.6563">name</text><text fill="#000000" font-family="sans-serif" font-size="20" lengthAdjust="spacing" textLength="11" x="1284.6614" y="928.549">1</text></g><!--link CRMCollaborator to Email--><g id="link_CRMCollaborator_Email"><path codeLine="95" d="M326.66,783.9645 C346.1,807.3945 372.57,833.0045 403,845.8945 C433.44,858.7845 965.03,851.4545 998,853.8945 C1087.45,860.5045 1108.62,873.4145 1198,880.8945 C1225.03,883.1545 1416.81,878.8345 1442,888.8945 C1467.5,899.0745 1490.75,918.8145 1508.41,937.1145 " fill="none" id="CRMCollaborator-to-Email" style="stroke:#181818;stroke-width:1.0;"/><polygon fill="#181818" points="1511.87,940.7545,1508.577,931.4725,1508.4285,937.1274,1502.7736,936.9789,1511.87,940.7545" style="stroke:#181818;stroke-width:1.0;"/><text fill="#000000" font-family="sans-serif" font-size="20" lengthAdjust="spacing" textLength="46" x="1199" y="875.6563">email</text><text fill="#000000" font-family="sans-serif" font-size="20" lengthAdjust="spacing" textLength="11" x="1495.1915" y="928.433">1</text></g><!--link ShowRequest to Time--><g id="link_ShowRequest_Time"><path codeLine="98" d="M928.73,455.2745 C1017.81,462.5145 1145.42,487.5345 1220,567.8945 C1306.75,661.3645 1195.23,761.6945 1291,845.8945 C1350.19,897.9245 1571.19,856.4445 1643,888.8945 C1667.42,899.9245 1690.12,919.0745 1707.7,936.7845 " fill="none" id="ShowRequest-to-Time" style="stroke:#181818;stroke-width:1.0;"/><polygon fill="#181818" points="1711.6,940.7745,1708.1575,931.5469,1708.1004,937.2035,1702.4438,937.1463,1711.6,940.7745" style="stroke:#181818;stroke-width:1.0;"/><text fill="#000000" font-family="sans-serif" font-size="20" lengthAdjust="spacing" textLength="70" x="1292" y="741.6563">duration</text><text fill="#000000" font-family="sans-serif" font-size="20" lengthAdjust="spacing" textLength="11" x="1694.7191" y="928.4562">1</text></g><!--SRC=[dLLDZzGm3BttLrYz885OBHohgfVza91WMUqWhYXjlMsOD9bD78O5xNyd_PXECcs7GY-TSPxjvnVRDLikTqopHgXYYoMK-CYie5ibQSD_8Ro_ZA8TAxQiGeYlh27Le8OOqfHLbSQA4MOP_8x0FOLWni08IjCRIPoUtNcQQgKeothSInIzU55lUMKrpiJqWWwOnP3jymOALM827oHXXTgp_q1jk989N2kR2_HEIZI5vZjofv30XZINrS3HfxYfrVwKOC3llbOIxsoJTtL_PS8YVCw_O-4NVOHVkmYhS1wzit2Kje6MvOOOMRCczaTLi3E1Uts4Wv1jLPr89vIifcS1dzLSMkQhQntQxE7JbHA2vKepKdwt-Vnv6VR39El4Ru9um2UBXXOIF4dwLcft-UOlYUwrsYd3n5B2LtwkjndyxAo1qLdZoukBr_5X71BG_Pa1YVjvXtTntsq966AQll06bu71D7YpiUXnUWikYyqRJkHMIVwyx3RiYB60y_13goQm4wnOvjytN5UfUtkwXe8EU4z9vzA6aWM2UZp5nTvWEU3uUnxdQJWlOO0-T4K25Kfq6ZeXzfpgANf6wQB6qefUkcEjOwC5DH-jy_5y0jvDJDmysHSvJvtcxiKHWA2YaUzfgOSmtf9rdN3y4tnEDZNJZb2mdTkcNxDJxjWwt4t3k3WF_8_oskm9I3OCw1AiIvu0jgz_MXtEjnF2jQNLtJmvtVu0]--></g></svg>