<?xml version="1.0" encoding="UTF-8" standalone="no"?><svg xmlns="http://www.w3.org/2000/svg" xmlns:xlink="http://www.w3.org/1999/xlink" contentStyleType="text/css" height="699px" preserveAspectRatio="none" style="width:1532px;height:699px;background:#FFFFFF;" version="1.1" viewBox="0 0 1532 699" width="1532px" zoomAndPan="magnify"><defs/><g><!--cluster Customer --><g id="cluster_Customer "><path d="M477.5,249.8945 L576.5,249.8945 A3.75,3.75 0 0 1 579,252.3945 L586,281.0508 L624.5,281.0508 A2.5,2.5 0 0 1 627,283.5508 L627,433.3945 A2.5,2.5 0 0 1 624.5,435.8945 L477.5,435.8945 A2.5,2.5 0 0 1 475,433.3945 L475,252.3945 A2.5,2.5 0 0 1 477.5,249.8945 " fill="none" style="stroke:#000000;stroke-width:1.5;"/><line style="stroke:#000000;stroke-width:1.5;" x1="475" x2="586" y1="281.0508" y2="281.0508"/><text fill="#000000" font-family="sans-serif" font-size="20" font-weight="bold" lengthAdjust="spacing" textLength="92" x="479" y="272.6563">Customer</text><text fill="#000000" font-family="sans-serif" font-size="20" font-style="italic" lengthAdjust="spacing" textLength="111" x="499.5" y="303.8125">«aggregate»</text></g><!--cluster CRMCollaborator --><g id="cluster_CRMCollaborator "><path d="M653.5,249.8945 L822.5,249.8945 A3.75,3.75 0 0 1 825,252.3945 L832,281.0508 L868.5,281.0508 A2.5,2.5 0 0 1 871,283.5508 L871,433.3945 A2.5,2.5 0 0 1 868.5,435.8945 L653.5,435.8945 A2.5,2.5 0 0 1 651,433.3945 L651,252.3945 A2.5,2.5 0 0 1 653.5,249.8945 " fill="none" style="stroke:#000000;stroke-width:1.5;"/><line style="stroke:#000000;stroke-width:1.5;" x1="651" x2="832" y1="281.0508" y2="281.0508"/><text fill="#000000" font-family="sans-serif" font-size="20" font-weight="bold" lengthAdjust="spacing" textLength="162" x="655" y="272.6563">CRMCollaborator</text><text fill="#000000" font-family="sans-serif" font-size="20" font-style="italic" lengthAdjust="spacing" textLength="111" x="709.5" y="303.8125">«aggregate»</text></g><!--cluster ShowRequest --><g id="cluster_ShowRequest "><path d="M8.5,6.8945 L145.5,6.8945 A3.75,3.75 0 0 1 148,9.3945 L155,38.0508 L448.5,38.0508 A2.5,2.5 0 0 1 451,40.5508 L451,420.8945 A2.5,2.5 0 0 1 448.5,423.3945 L8.5,423.3945 A2.5,2.5 0 0 1 6,420.8945 L6,9.3945 A2.5,2.5 0 0 1 8.5,6.8945 " fill="none" style="stroke:#000000;stroke-width:1.5;"/><line style="stroke:#000000;stroke-width:1.5;" x1="6" x2="155" y1="38.0508" y2="38.0508"/><text fill="#000000" font-family="sans-serif" font-size="20" font-weight="bold" lengthAdjust="spacing" textLength="130" x="10" y="29.6563">ShowRequest</text><text fill="#000000" font-family="sans-serif" font-size="20" font-style="italic" lengthAdjust="spacing" textLength="111" x="177" y="60.8125">«aggregate»</text></g><!--cluster Shared--><g id="cluster_Shared"><path d="M700.5,556.8945 L768.5,556.8945 A3.75,3.75 0 0 1 771,559.3945 L778,588.0508 L1522.5,588.0508 A2.5,2.5 0 0 1 1525,590.5508 L1525,690.3945 A2.5,2.5 0 0 1 1522.5,692.8945 L700.5,692.8945 A2.5,2.5 0 0 1 698,690.3945 L698,559.3945 A2.5,2.5 0 0 1 700.5,556.8945 " fill="none" style="stroke:#000000;stroke-width:1.5;"/><line style="stroke:#000000;stroke-width:1.5;" x1="698" x2="778" y1="588.0508" y2="588.0508"/><text fill="#000000" font-family="sans-serif" font-size="20" font-weight="bold" lengthAdjust="spacing" textLength="67" x="702" y="579.6563">Shared</text></g><!--class Customer--><g id="elem_Customer"><rect codeLine="3" fill="#F1F1F1" height="101.4688" id="Customer" rx="2.5" ry="2.5" style="stroke:#181818;stroke-width:0.5;" width="119" x="491.5" y="318.8945"/><ellipse cx="507.5" cy="361.6289" fill="#ADD1B2" rx="12" ry="12" style="stroke:#181818;stroke-width:1.0;"/><path d="M509.6406,356.5508 Q509.8281,356.3008 510.0469,356.1758 Q510.2656,356.0352 510.5156,356.0352 Q510.9531,356.0352 511.2344,356.3477 Q511.5156,356.6445 511.5156,357.3633 L511.5156,359.0664 Q511.5156,359.7852 511.2344,360.0977 Q510.9531,360.4102 510.5156,360.4102 Q510.125,360.4102 509.875,360.1758 Q509.625,359.957 509.5156,359.3477 Q509.4531,358.9258 509.2344,358.707 Q508.8438,358.2695 508.125,358.0039 Q507.4063,357.7383 506.6875,357.7383 Q505.7813,357.7383 505.0313,358.1289 Q504.2813,358.5195 503.7031,359.4102 Q503.125,360.2852 503.125,361.4883 L503.125,362.7852 Q503.125,364.2383 504.1719,365.207 Q505.2344,366.1758 507.0938,366.1758 Q508.2031,366.1758 508.9844,365.8633 Q509.4219,365.6914 509.9375,365.1758 Q510.25,364.8633 510.4219,364.7695 Q510.5938,364.6758 510.8281,364.6758 Q511.2188,364.6758 511.5156,364.9883 Q511.8281,365.2852 511.8281,365.6914 Q511.8281,366.0977 511.4219,366.5664 Q510.8281,367.2539 509.8906,367.6445 Q508.625,368.1758 507.1094,368.1758 Q505.3281,368.1758 503.9063,367.4414 Q502.75,366.8477 501.9375,365.582 Q501.125,364.3164 501.125,362.832 L501.125,361.4727 Q501.125,359.9102 501.8438,358.5664 Q502.5781,357.207 503.8594,356.4727 Q505.1563,355.7383 506.6094,355.7383 Q507.4688,355.7383 508.2188,355.9414 Q508.9844,356.1445 509.6406,356.5508 Z " fill="#000000"/><text fill="#000000" font-family="sans-serif" font-size="20" font-style="italic" lengthAdjust="spacing" textLength="71" x="529.5" y="344.6563">«Entity»</text><text fill="#000000" font-family="sans-serif" font-size="20" font-style="italic" lengthAdjust="spacing" textLength="56" x="537" y="369.8125">«root»</text><text fill="#000000" font-family="sans-serif" font-size="20" lengthAdjust="spacing" textLength="85" x="522.5" y="394.9688">Customer</text><line style="stroke:#181818;stroke-width:0.5;" x1="492.5" x2="609.5" y1="404.3633" y2="404.3633"/><line style="stroke:#181818;stroke-width:0.5;" x1="492.5" x2="609.5" y1="412.3633" y2="412.3633"/></g><!--class CRMCollaborator--><g id="elem_CRMCollaborator"><rect codeLine="10" fill="#F1F1F1" height="101.4688" id="CRMCollaborator" rx="2.5" ry="2.5" style="stroke:#181818;stroke-width:0.5;" width="187" x="667.5" y="318.8945"/><ellipse cx="683.5" cy="361.6289" fill="#ADD1B2" rx="12" ry="12" style="stroke:#181818;stroke-width:1.0;"/><path d="M685.6406,356.5508 Q685.8281,356.3008 686.0469,356.1758 Q686.2656,356.0352 686.5156,356.0352 Q686.9531,356.0352 687.2344,356.3477 Q687.5156,356.6445 687.5156,357.3633 L687.5156,359.0664 Q687.5156,359.7852 687.2344,360.0977 Q686.9531,360.4102 686.5156,360.4102 Q686.125,360.4102 685.875,360.1758 Q685.625,359.957 685.5156,359.3477 Q685.4531,358.9258 685.2344,358.707 Q684.8438,358.2695 684.125,358.0039 Q683.4063,357.7383 682.6875,357.7383 Q681.7813,357.7383 681.0313,358.1289 Q680.2813,358.5195 679.7031,359.4102 Q679.125,360.2852 679.125,361.4883 L679.125,362.7852 Q679.125,364.2383 680.1719,365.207 Q681.2344,366.1758 683.0938,366.1758 Q684.2031,366.1758 684.9844,365.8633 Q685.4219,365.6914 685.9375,365.1758 Q686.25,364.8633 686.4219,364.7695 Q686.5938,364.6758 686.8281,364.6758 Q687.2188,364.6758 687.5156,364.9883 Q687.8281,365.2852 687.8281,365.6914 Q687.8281,366.0977 687.4219,366.5664 Q686.8281,367.2539 685.8906,367.6445 Q684.625,368.1758 683.1094,368.1758 Q681.3281,368.1758 679.9063,367.4414 Q678.75,366.8477 677.9375,365.582 Q677.125,364.3164 677.125,362.832 L677.125,361.4727 Q677.125,359.9102 677.8438,358.5664 Q678.5781,357.207 679.8594,356.4727 Q681.1563,355.7383 682.6094,355.7383 Q683.4688,355.7383 684.2188,355.9414 Q684.9844,356.1445 685.6406,356.5508 Z " fill="#000000"/><text fill="#000000" font-family="sans-serif" font-size="20" font-style="italic" lengthAdjust="spacing" textLength="71" x="739.5" y="344.6563">«Entity»</text><text fill="#000000" font-family="sans-serif" font-size="20" font-style="italic" lengthAdjust="spacing" textLength="56" x="747" y="369.8125">«root»</text><text fill="#000000" font-family="sans-serif" font-size="20" lengthAdjust="spacing" textLength="153" x="698.5" y="394.9688">CRMCollaborator</text><line style="stroke:#181818;stroke-width:0.5;" x1="668.5" x2="853.5" y1="404.3633" y2="404.3633"/><line style="stroke:#181818;stroke-width:0.5;" x1="668.5" x2="853.5" y1="412.3633" y2="412.3633"/></g><!--class Location--><g id="elem_Location"><rect codeLine="16" fill="#F1F1F1" height="76.3125" id="Location" rx="2.5" ry="2.5" style="stroke:#181818;stroke-width:0.5;" width="166" x="22" y="331.3945"/><ellipse cx="38" cy="361.5508" fill="#ADD1B2" rx="12" ry="12" style="stroke:#181818;stroke-width:1.0;"/><path d="M40.1406,356.4727 Q40.3281,356.2227 40.5469,356.0977 Q40.7656,355.957 41.0156,355.957 Q41.4531,355.957 41.7344,356.2695 Q42.0156,356.5664 42.0156,357.2852 L42.0156,358.9883 Q42.0156,359.707 41.7344,360.0195 Q41.4531,360.332 41.0156,360.332 Q40.625,360.332 40.375,360.0977 Q40.125,359.8789 40.0156,359.2695 Q39.9531,358.8477 39.7344,358.6289 Q39.3438,358.1914 38.625,357.9258 Q37.9063,357.6602 37.1875,357.6602 Q36.2813,357.6602 35.5313,358.0508 Q34.7813,358.4414 34.2031,359.332 Q33.625,360.207 33.625,361.4102 L33.625,362.707 Q33.625,364.1602 34.6719,365.1289 Q35.7344,366.0977 37.5938,366.0977 Q38.7031,366.0977 39.4844,365.7852 Q39.9219,365.6133 40.4375,365.0977 Q40.75,364.7852 40.9219,364.6914 Q41.0938,364.5977 41.3281,364.5977 Q41.7188,364.5977 42.0156,364.9102 Q42.3281,365.207 42.3281,365.6133 Q42.3281,366.0195 41.9219,366.4883 Q41.3281,367.1758 40.3906,367.5664 Q39.125,368.0977 37.6094,368.0977 Q35.8281,368.0977 34.4063,367.3633 Q33.25,366.7695 32.4375,365.5039 Q31.625,364.2383 31.625,362.7539 L31.625,361.3945 Q31.625,359.832 32.3438,358.4883 Q33.0781,357.1289 34.3594,356.3945 Q35.6563,355.6602 37.1094,355.6602 Q37.9688,355.6602 38.7188,355.8633 Q39.4844,356.0664 40.1406,356.4727 Z " fill="#000000"/><text fill="#000000" font-family="sans-serif" font-size="20" font-style="italic" lengthAdjust="spacing" textLength="136" x="51" y="357.1563">«Value Object»</text><text fill="#000000" font-family="sans-serif" font-size="20" lengthAdjust="spacing" textLength="74" x="82" y="382.3125">Location</text><line style="stroke:#181818;stroke-width:0.5;" x1="23" x2="187" y1="391.707" y2="391.707"/><line style="stroke:#181818;stroke-width:0.5;" x1="23" x2="187" y1="399.707" y2="399.707"/></g><!--class ShowRequestStatus--><g id="elem_ShowRequestStatus"><rect codeLine="19" fill="#F1F1F1" height="76.3125" id="ShowRequestStatus" rx="2.5" ry="2.5" style="stroke:#181818;stroke-width:0.5;" width="212" x="223" y="331.3945"/><ellipse cx="239" cy="361.5508" fill="#EB937F" rx="12" ry="12" style="stroke:#181818;stroke-width:1.0;"/><path d="M236.9531,362.6133 L236.9531,365.5508 L242.0469,365.5508 L242.0469,364.457 Q242.0469,363.7383 242.3281,363.4414 Q242.6094,363.1289 243.0625,363.1289 Q243.5,363.1289 243.7813,363.4414 Q244.0625,363.7383 244.0625,364.457 L244.0625,367.5508 L234.625,367.5508 Q233.9063,367.5508 233.5938,367.2695 Q233.2969,366.9883 233.2969,366.5508 Q233.2969,366.0977 233.6094,365.832 Q233.9219,365.5508 234.625,365.5508 L234.9375,365.5508 L234.9375,357.7227 L234.625,357.7227 Q233.9063,357.7227 233.5938,357.4414 Q233.2969,357.1602 233.2969,356.707 Q233.2969,356.2539 233.5938,355.9883 Q233.9063,355.707 234.625,355.707 L243.6094,355.707 L243.6094,358.7539 Q243.6094,359.4727 243.3281,359.7852 Q243.0625,360.082 242.625,360.082 Q242.1719,360.082 241.8906,359.7852 Q241.6094,359.4883 241.6094,358.7539 L241.6094,357.7227 L236.9531,357.7227 L236.9531,360.6133 L238.7031,360.6133 Q238.7031,359.832 238.8438,359.5977 Q239.1563,359.1289 239.7031,359.1289 Q240.1563,359.1289 240.4219,359.4414 Q240.7031,359.7383 240.7031,360.457 L240.7031,362.7695 Q240.7031,363.4258 240.5469,363.6445 Q240.2344,364.0977 239.7031,364.0977 Q239.1563,364.0977 238.8438,363.6289 Q238.7031,363.3945 238.7031,362.6133 L236.9531,362.6133 Z " fill="#000000"/><text fill="#000000" font-family="sans-serif" font-size="20" font-style="italic" lengthAdjust="spacing" textLength="136" x="275" y="357.1563">«Value Object»</text><text fill="#000000" font-family="sans-serif" font-size="20" lengthAdjust="spacing" textLength="178" x="254" y="382.3125">ShowRequestStatus</text><line style="stroke:#181818;stroke-width:0.5;" x1="224" x2="434" y1="391.707" y2="391.707"/><line style="stroke:#181818;stroke-width:0.5;" x1="224" x2="434" y1="399.707" y2="399.707"/></g><!--class ShowRequest--><g id="elem_ShowRequest"><rect codeLine="22" fill="#F1F1F1" height="101.4688" id="ShowRequest" rx="2.5" ry="2.5" style="stroke:#181818;stroke-width:0.5;" width="156" x="279" y="75.8945"/><ellipse cx="295" cy="118.6289" fill="#ADD1B2" rx="12" ry="12" style="stroke:#181818;stroke-width:1.0;"/><path d="M297.1406,113.5508 Q297.3281,113.3008 297.5469,113.1758 Q297.7656,113.0352 298.0156,113.0352 Q298.4531,113.0352 298.7344,113.3477 Q299.0156,113.6445 299.0156,114.3633 L299.0156,116.0664 Q299.0156,116.7852 298.7344,117.0977 Q298.4531,117.4102 298.0156,117.4102 Q297.625,117.4102 297.375,117.1758 Q297.125,116.957 297.0156,116.3477 Q296.9531,115.9258 296.7344,115.707 Q296.3438,115.2695 295.625,115.0039 Q294.9063,114.7383 294.1875,114.7383 Q293.2813,114.7383 292.5313,115.1289 Q291.7813,115.5195 291.2031,116.4102 Q290.625,117.2852 290.625,118.4883 L290.625,119.7852 Q290.625,121.2383 291.6719,122.207 Q292.7344,123.1758 294.5938,123.1758 Q295.7031,123.1758 296.4844,122.8633 Q296.9219,122.6914 297.4375,122.1758 Q297.75,121.8633 297.9219,121.7695 Q298.0938,121.6758 298.3281,121.6758 Q298.7188,121.6758 299.0156,121.9883 Q299.3281,122.2852 299.3281,122.6914 Q299.3281,123.0977 298.9219,123.5664 Q298.3281,124.2539 297.3906,124.6445 Q296.125,125.1758 294.6094,125.1758 Q292.8281,125.1758 291.4063,124.4414 Q290.25,123.8477 289.4375,122.582 Q288.625,121.3164 288.625,119.832 L288.625,118.4727 Q288.625,116.9102 289.3438,115.5664 Q290.0781,114.207 291.3594,113.4727 Q292.6563,112.7383 294.1094,112.7383 Q294.9688,112.7383 295.7188,112.9414 Q296.4844,113.1445 297.1406,113.5508 Z " fill="#000000"/><text fill="#000000" font-family="sans-serif" font-size="20" font-style="italic" lengthAdjust="spacing" textLength="71" x="335.5" y="101.6563">«Entity»</text><text fill="#000000" font-family="sans-serif" font-size="20" font-style="italic" lengthAdjust="spacing" textLength="56" x="343" y="126.8125">«root»</text><text fill="#000000" font-family="sans-serif" font-size="20" lengthAdjust="spacing" textLength="122" x="310" y="151.9688">ShowRequest</text><line style="stroke:#181818;stroke-width:0.5;" x1="280" x2="434" y1="161.3633" y2="161.3633"/><line style="stroke:#181818;stroke-width:0.5;" x1="280" x2="434" y1="169.3633" y2="169.3633"/></g><!--class Time--><g id="elem_Time"><rect codeLine="34" fill="#F1F1F1" height="76.3125" id="Time" rx="2.5" ry="2.5" style="stroke:#181818;stroke-width:0.5;" width="166" x="714" y="600.8945"/><ellipse cx="730" cy="631.0508" fill="#ADD1B2" rx="12" ry="12" style="stroke:#181818;stroke-width:1.0;"/><path d="M732.1406,625.9727 Q732.3281,625.7227 732.5469,625.5977 Q732.7656,625.457 733.0156,625.457 Q733.4531,625.457 733.7344,625.7695 Q734.0156,626.0664 734.0156,626.7852 L734.0156,628.4883 Q734.0156,629.207 733.7344,629.5195 Q733.4531,629.832 733.0156,629.832 Q732.625,629.832 732.375,629.5977 Q732.125,629.3789 732.0156,628.7695 Q731.9531,628.3477 731.7344,628.1289 Q731.3438,627.6914 730.625,627.4258 Q729.9063,627.1602 729.1875,627.1602 Q728.2813,627.1602 727.5313,627.5508 Q726.7813,627.9414 726.2031,628.832 Q725.625,629.707 725.625,630.9102 L725.625,632.207 Q725.625,633.6602 726.6719,634.6289 Q727.7344,635.5977 729.5938,635.5977 Q730.7031,635.5977 731.4844,635.2852 Q731.9219,635.1133 732.4375,634.5977 Q732.75,634.2852 732.9219,634.1914 Q733.0938,634.0977 733.3281,634.0977 Q733.7188,634.0977 734.0156,634.4102 Q734.3281,634.707 734.3281,635.1133 Q734.3281,635.5195 733.9219,635.9883 Q733.3281,636.6758 732.3906,637.0664 Q731.125,637.5977 729.6094,637.5977 Q727.8281,637.5977 726.4063,636.8633 Q725.25,636.2695 724.4375,635.0039 Q723.625,633.7383 723.625,632.2539 L723.625,630.8945 Q723.625,629.332 724.3438,627.9883 Q725.0781,626.6289 726.3594,625.8945 Q727.6563,625.1602 729.1094,625.1602 Q729.9688,625.1602 730.7188,625.3633 Q731.4844,625.5664 732.1406,625.9727 Z " fill="#000000"/><text fill="#000000" font-family="sans-serif" font-size="20" font-style="italic" lengthAdjust="spacing" textLength="136" x="743" y="626.6563">«Value Object»</text><text fill="#000000" font-family="sans-serif" font-size="20" lengthAdjust="spacing" textLength="43" x="789.5" y="651.8125">Time</text><line style="stroke:#181818;stroke-width:0.5;" x1="715" x2="879" y1="661.207" y2="661.207"/><line style="stroke:#181818;stroke-width:0.5;" x1="715" x2="879" y1="669.207" y2="669.207"/></g><!--class Date--><g id="elem_Date"><rect codeLine="37" fill="#F1F1F1" height="76.3125" id="Date" rx="2.5" ry="2.5" style="stroke:#181818;stroke-width:0.5;" width="166" x="915" y="600.8945"/><ellipse cx="931" cy="631.0508" fill="#ADD1B2" rx="12" ry="12" style="stroke:#181818;stroke-width:1.0;"/><path d="M933.1406,625.9727 Q933.3281,625.7227 933.5469,625.5977 Q933.7656,625.457 934.0156,625.457 Q934.4531,625.457 934.7344,625.7695 Q935.0156,626.0664 935.0156,626.7852 L935.0156,628.4883 Q935.0156,629.207 934.7344,629.5195 Q934.4531,629.832 934.0156,629.832 Q933.625,629.832 933.375,629.5977 Q933.125,629.3789 933.0156,628.7695 Q932.9531,628.3477 932.7344,628.1289 Q932.3438,627.6914 931.625,627.4258 Q930.9063,627.1602 930.1875,627.1602 Q929.2813,627.1602 928.5313,627.5508 Q927.7813,627.9414 927.2031,628.832 Q926.625,629.707 926.625,630.9102 L926.625,632.207 Q926.625,633.6602 927.6719,634.6289 Q928.7344,635.5977 930.5938,635.5977 Q931.7031,635.5977 932.4844,635.2852 Q932.9219,635.1133 933.4375,634.5977 Q933.75,634.2852 933.9219,634.1914 Q934.0938,634.0977 934.3281,634.0977 Q934.7188,634.0977 935.0156,634.4102 Q935.3281,634.707 935.3281,635.1133 Q935.3281,635.5195 934.9219,635.9883 Q934.3281,636.6758 933.3906,637.0664 Q932.125,637.5977 930.6094,637.5977 Q928.8281,637.5977 927.4063,636.8633 Q926.25,636.2695 925.4375,635.0039 Q924.625,633.7383 924.625,632.2539 L924.625,630.8945 Q924.625,629.332 925.3438,627.9883 Q926.0781,626.6289 927.3594,625.8945 Q928.6563,625.1602 930.1094,625.1602 Q930.9688,625.1602 931.7188,625.3633 Q932.4844,625.5664 933.1406,625.9727 Z " fill="#000000"/><text fill="#000000" font-family="sans-serif" font-size="20" font-style="italic" lengthAdjust="spacing" textLength="136" x="944" y="626.6563">«Value Object»</text><text fill="#000000" font-family="sans-serif" font-size="20" lengthAdjust="spacing" textLength="42" x="991" y="651.8125">Date</text><line style="stroke:#181818;stroke-width:0.5;" x1="916" x2="1080" y1="661.207" y2="661.207"/><line style="stroke:#181818;stroke-width:0.5;" x1="916" x2="1080" y1="669.207" y2="669.207"/></g><!--class QuantityOfDrones--><g id="elem_QuantityOfDrones"><rect codeLine="40" fill="#F1F1F1" height="76.3125" id="QuantityOfDrones" rx="2.5" ry="2.5" style="stroke:#181818;stroke-width:0.5;" width="192" x="1116" y="600.8945"/><ellipse cx="1132" cy="631.0508" fill="#ADD1B2" rx="12" ry="12" style="stroke:#181818;stroke-width:1.0;"/><path d="M1134.1406,625.9727 Q1134.3281,625.7227 1134.5469,625.5977 Q1134.7656,625.457 1135.0156,625.457 Q1135.4531,625.457 1135.7344,625.7695 Q1136.0156,626.0664 1136.0156,626.7852 L1136.0156,628.4883 Q1136.0156,629.207 1135.7344,629.5195 Q1135.4531,629.832 1135.0156,629.832 Q1134.625,629.832 1134.375,629.5977 Q1134.125,629.3789 1134.0156,628.7695 Q1133.9531,628.3477 1133.7344,628.1289 Q1133.3438,627.6914 1132.625,627.4258 Q1131.9063,627.1602 1131.1875,627.1602 Q1130.2813,627.1602 1129.5313,627.5508 Q1128.7813,627.9414 1128.2031,628.832 Q1127.625,629.707 1127.625,630.9102 L1127.625,632.207 Q1127.625,633.6602 1128.6719,634.6289 Q1129.7344,635.5977 1131.5938,635.5977 Q1132.7031,635.5977 1133.4844,635.2852 Q1133.9219,635.1133 1134.4375,634.5977 Q1134.75,634.2852 1134.9219,634.1914 Q1135.0938,634.0977 1135.3281,634.0977 Q1135.7188,634.0977 1136.0156,634.4102 Q1136.3281,634.707 1136.3281,635.1133 Q1136.3281,635.5195 1135.9219,635.9883 Q1135.3281,636.6758 1134.3906,637.0664 Q1133.125,637.5977 1131.6094,637.5977 Q1129.8281,637.5977 1128.4063,636.8633 Q1127.25,636.2695 1126.4375,635.0039 Q1125.625,633.7383 1125.625,632.2539 L1125.625,630.8945 Q1125.625,629.332 1126.3438,627.9883 Q1127.0781,626.6289 1128.3594,625.8945 Q1129.6563,625.1602 1131.1094,625.1602 Q1131.9688,625.1602 1132.7188,625.3633 Q1133.4844,625.5664 1134.1406,625.9727 Z " fill="#000000"/><text fill="#000000" font-family="sans-serif" font-size="20" font-style="italic" lengthAdjust="spacing" textLength="136" x="1158" y="626.6563">«Value Object»</text><text fill="#000000" font-family="sans-serif" font-size="20" lengthAdjust="spacing" textLength="158" x="1147" y="651.8125">QuantityOfDrones</text><line style="stroke:#181818;stroke-width:0.5;" x1="1117" x2="1307" y1="661.207" y2="661.207"/><line style="stroke:#181818;stroke-width:0.5;" x1="1117" x2="1307" y1="669.207" y2="669.207"/></g><!--class Description--><g id="elem_Description"><rect codeLine="43" fill="#F1F1F1" height="76.3125" id="Description" rx="2.5" ry="2.5" style="stroke:#181818;stroke-width:0.5;" width="166" x="1343" y="600.8945"/><ellipse cx="1359" cy="631.0508" fill="#ADD1B2" rx="12" ry="12" style="stroke:#181818;stroke-width:1.0;"/><path d="M1361.1406,625.9727 Q1361.3281,625.7227 1361.5469,625.5977 Q1361.7656,625.457 1362.0156,625.457 Q1362.4531,625.457 1362.7344,625.7695 Q1363.0156,626.0664 1363.0156,626.7852 L1363.0156,628.4883 Q1363.0156,629.207 1362.7344,629.5195 Q1362.4531,629.832 1362.0156,629.832 Q1361.625,629.832 1361.375,629.5977 Q1361.125,629.3789 1361.0156,628.7695 Q1360.9531,628.3477 1360.7344,628.1289 Q1360.3438,627.6914 1359.625,627.4258 Q1358.9063,627.1602 1358.1875,627.1602 Q1357.2813,627.1602 1356.5313,627.5508 Q1355.7813,627.9414 1355.2031,628.832 Q1354.625,629.707 1354.625,630.9102 L1354.625,632.207 Q1354.625,633.6602 1355.6719,634.6289 Q1356.7344,635.5977 1358.5938,635.5977 Q1359.7031,635.5977 1360.4844,635.2852 Q1360.9219,635.1133 1361.4375,634.5977 Q1361.75,634.2852 1361.9219,634.1914 Q1362.0938,634.0977 1362.3281,634.0977 Q1362.7188,634.0977 1363.0156,634.4102 Q1363.3281,634.707 1363.3281,635.1133 Q1363.3281,635.5195 1362.9219,635.9883 Q1362.3281,636.6758 1361.3906,637.0664 Q1360.125,637.5977 1358.6094,637.5977 Q1356.8281,637.5977 1355.4063,636.8633 Q1354.25,636.2695 1353.4375,635.0039 Q1352.625,633.7383 1352.625,632.2539 L1352.625,630.8945 Q1352.625,629.332 1353.3438,627.9883 Q1354.0781,626.6289 1355.3594,625.8945 Q1356.6563,625.1602 1358.1094,625.1602 Q1358.9688,625.1602 1359.7188,625.3633 Q1360.4844,625.5664 1361.1406,625.9727 Z " fill="#000000"/><text fill="#000000" font-family="sans-serif" font-size="20" font-style="italic" lengthAdjust="spacing" textLength="136" x="1372" y="626.6563">«Value Object»</text><text fill="#000000" font-family="sans-serif" font-size="20" lengthAdjust="spacing" textLength="98" x="1391" y="651.8125">Description</text><line style="stroke:#181818;stroke-width:0.5;" x1="1344" x2="1508" y1="661.207" y2="661.207"/><line style="stroke:#181818;stroke-width:0.5;" x1="1344" x2="1508" y1="669.207" y2="669.207"/></g><!--link ShowRequest to CRMCollaborator--><g id="link_ShowRequest_CRMCollaborator"><path codeLine="26" d="M435.08,139.7345 C489.33,150.9645 561.55,171.3745 617,206.8945 C660.47,234.7345 698.76,279.2245 724.91,314.4645 " fill="none" id="ShowRequest-to-CRMCollaborator" style="stroke:#181818;stroke-width:1.0;"/><polygon fill="#181818" points="728.04,318.7045,725.9005,309.0909,725.0652,314.6857,719.4704,313.8505,728.04,318.7045" style="stroke:#181818;stroke-width:1.0;"/><text fill="#000000" font-family="sans-serif" font-size="20" lengthAdjust="spacing" textLength="112" x="651" y="228.6563">submitted by</text><text fill="#000000" font-family="sans-serif" font-size="20" lengthAdjust="spacing" textLength="11" x="712.1123" y="306.35">1</text></g><!--link ShowRequest to Customer--><g id="link_ShowRequest_Customer"><path codeLine="27" d="M435.11,171.8745 C449.18,182.1645 462.88,193.9445 474,206.8945 C500.81,238.1145 520.49,280.2745 533.24,313.6945 " fill="none" id="ShowRequest-to-Customer" style="stroke:#181818;stroke-width:1.0;"/><polygon fill="#181818" points="535.07,318.5545,535.6453,308.7225,533.3097,313.8747,528.1575,311.539,535.07,318.5545" style="stroke:#181818;stroke-width:1.0;"/><text fill="#000000" font-family="sans-serif" font-size="20" lengthAdjust="spacing" textLength="115" x="493" y="228.6563">requested by</text><text fill="#000000" font-family="sans-serif" font-size="20" lengthAdjust="spacing" textLength="11" x="521.4582" y="306.5776">1</text></g><!--link ShowRequest to Location--><g id="link_ShowRequest_Location"><path codeLine="28" d="M283.17,177.1245 C257.28,196.0645 228.75,218.6945 205,241.8945 C178.29,267.9845 152.27,301.2245 133.47,327.0845 " fill="none" id="ShowRequest-to-Location" style="stroke:#181818;stroke-width:1.0;"/><polygon fill="#181818" points="130.52,331.1645,139.0423,326.2279,133.4558,327.1172,132.5665,321.5306,130.52,331.1645" style="stroke:#181818;stroke-width:1.0;"/><text fill="#000000" font-family="sans-serif" font-size="20" lengthAdjust="spacing" textLength="47" x="246" y="228.6563">place</text><text fill="#000000" font-family="sans-serif" font-size="20" lengthAdjust="spacing" textLength="11" x="122.5856" y="319.1463">1</text></g><!--link ShowRequest to ShowRequestStatus--><g id="link_ShowRequest_ShowRequestStatus"><path codeLine="29" d="M349.88,176.9845 C348.54,186.8845 347.18,197.2145 346,206.8945 C341.08,247.2745 336.31,293.4345 333.08,326.0345 " fill="none" id="ShowRequest-to-ShowRequestStatus" style="stroke:#181818;stroke-width:1.0;"/><polygon fill="#181818" points="332.57,331.1545,337.4238,322.5848,333.0548,326.1781,329.4615,321.8091,332.57,331.1545" style="stroke:#181818;stroke-width:1.0;"/><text fill="#000000" font-family="sans-serif" font-size="20" lengthAdjust="spacing" textLength="122" x="347" y="228.6563">requestStatus</text><text fill="#000000" font-family="sans-serif" font-size="20" lengthAdjust="spacing" textLength="11" x="321.2745" y="319.1347">1</text></g><!--link ShowRequest to Time--><g id="link_ShowRequest_Time"><path codeLine="47" d="M435.24,132.4245 C566.42,142.7545 821.28,171.5845 871,241.8945 C948.4,351.3545 868.41,518.9045 823.32,596.1945 " fill="none" id="ShowRequest-to-Time" style="stroke:#181818;stroke-width:1.0;"/><polygon fill="#181818" points="820.67,600.7045,828.6859,594.9822,823.2088,596.3971,821.7939,590.92,820.67,600.7045" style="stroke:#181818;stroke-width:1.0;"/><text fill="#000000" font-family="sans-serif" font-size="20" lengthAdjust="spacing" textLength="70" x="889" y="473.6563">duration</text><text fill="#000000" font-family="sans-serif" font-size="20" lengthAdjust="spacing" textLength="11" x="812.5658" y="588.3751">1</text></g><!--link ShowRequest to Date--><g id="link_ShowRequest_Date"><path codeLine="48" d="M435.26,126.6645 C539.49,128.4945 727.49,141.6745 872,206.8945 C1014.93,271.4045 1011.04,500.6345 1002.81,595.9045 " fill="none" id="ShowRequest-to-Date" style="stroke:#181818;stroke-width:1.0;"/><polygon fill="#181818" points="1002.37,600.8845,1007.1773,592.2886,1002.8278,595.9055,999.2109,591.5561,1002.37,600.8845" style="stroke:#181818;stroke-width:1.0;"/><text fill="#000000" font-family="sans-serif" font-size="20" lengthAdjust="spacing" textLength="83" x="1006" y="473.6563">startTime</text><text fill="#000000" font-family="sans-serif" font-size="20" lengthAdjust="spacing" textLength="11" x="991.1899" y="588.5838">1</text></g><!--link ShowRequest to QuantityOfDrones--><g id="link_ShowRequest_QuantityOfDrones"><path codeLine="49" d="M435.01,131.0845 C586.03,139.8445 910.41,167.0745 989,241.8945 C1098.74,346.3645 1169.32,516.9345 1197.74,595.6445 " fill="none" id="ShowRequest-to-QuantityOfDrones" style="stroke:#181818;stroke-width:1.0;"/><polygon fill="#181818" points="1199.56,600.6945,1200.2603,590.8706,1197.8593,595.9927,1192.7373,593.5917,1199.56,600.6945" style="stroke:#181818;stroke-width:1.0;"/><text fill="#000000" font-family="sans-serif" font-size="20" lengthAdjust="spacing" textLength="98" x="1151" y="473.6563">qnt_drones</text><text fill="#000000" font-family="sans-serif" font-size="20" lengthAdjust="spacing" textLength="11" x="1185.7008" y="588.3635">1</text></g><!--link ShowRequest to Description--><g id="link_ShowRequest_Description"><path codeLine="50" d="M435.24,131.4345 C601.04,141.2945 981.23,171.1545 1087,241.8945 C1232.67,339.3145 1351.93,515.9345 1401.39,596.1945 " fill="none" id="ShowRequest-to-Description" style="stroke:#181818;stroke-width:1.0;"/><polygon fill="#181818" points="1404.26,600.8745,1402.9735,591.1101,1401.6499,596.6099,1396.15,595.2863,1404.26,600.8745" style="stroke:#181818;stroke-width:1.0;"/><text fill="#000000" font-family="sans-serif" font-size="20" lengthAdjust="spacing" textLength="95" x="1323" y="473.6563">description</text><text fill="#000000" font-family="sans-serif" font-size="20" lengthAdjust="spacing" textLength="11" x="1388.9186" y="588.5722">1</text></g><!--SRC=[ZLF1JiCm3BttAwnUE241nwhgPOCJQ695N96RUbrPstI98nXe_qxQiYtRM6WkIPpdP_kzLg_AfaM5TIN5YdB8QO6cuWVPS5f-4TpT146BOeK5GJWnccLD2aA8OomAHGKo9Gby1s2Ng51hs8FY-BxXaZVsFOwLb9ma0suR15kNTVuqaLM5cLJ8yYzob_q4x2dYraYNycDEQqEQJ_cFw1-bG2vbOo6lM1c2MVPEmksyswWnDJYKAICRxSyP-Dq-VFfqsvKBlaxWiuyU1Mqql0tFH8b0cwmkcQsXsUPosgzJ4QZXnG_VQHD1Mw6WYxWpOVRymzKr9bsYibMFF7WfQngZvTJQDmRtRB3NURQOAjdGA9-cf8Kgs_y_XJ4cxOJf1uiWDwhNqOFiHxCkCYhkiZpGq-aYM3VyblTdNuN3WBQZmwNxDNy0]--></g></svg>