<svg xmlns="http://www.w3.org/2000/svg" xmlns:xlink="http://www.w3.org/1999/xlink" contentStyleType="text/css" height="500px" preserveAspectRatio="none" style="width:1309px;height:500px;background:#FFFFFF;" version="1.1" viewBox="0 0 1309 500" width="1309px" zoomAndPan="magnify"><defs/><g><!--cluster Figure --><g id="cluster_Figure "><path d="M8.5,6.0137 L56.1689,6.0137 A3.75,3.75 0 0 1 58.6689,8.5137 L65.6689,30.6348 L1149.5,30.6348 A2.5,2.5 0 0 1 1152,33.1348 L1152,482.5137 A2.5,2.5 0 0 1 1149.5,485.0137 L8.5,485.0137 A2.5,2.5 0 0 1 6,482.5137 L6,8.5137 A2.5,2.5 0 0 1 8.5,6.0137 " fill="none" style="stroke:#000000;stroke-width:1.5;"/><line style="stroke:#000000;stroke-width:1.5;" x1="6" x2="65.6689" y1="30.6348" y2="30.6348"/><text fill="#000000" font-family="sans-serif" font-size="14" font-weight="bold" lengthAdjust="spacing" textLength="42.7793" x="10" y="23.1211">Figure</text><text fill="#000000" font-family="sans-serif" font-size="14" font-style="italic" lengthAdjust="spacing" textLength="78.627" x="543.6865" y="47.7422">&#171;aggregate&#187;</text></g><!--cluster Customer --><g id="cluster_Customer "><path d="M1178.5,344.0137 L1248.7344,344.0137 A3.75,3.75 0 0 1 1251.2344,346.5137 L1258.2344,368.6348 L1299.5,368.6348 A2.5,2.5 0 0 1 1302,371.1348 L1302,490.5137 A2.5,2.5 0 0 1 1299.5,493.0137 L1178.5,493.0137 A2.5,2.5 0 0 1 1176,490.5137 L1176,346.5137 A2.5,2.5 0 0 1 1178.5,344.0137 " fill="none" style="stroke:#000000;stroke-width:1.5;"/><line style="stroke:#000000;stroke-width:1.5;" x1="1176" x2="1258.2344" y1="368.6348" y2="368.6348"/><text fill="#000000" font-family="sans-serif" font-size="14" font-weight="bold" lengthAdjust="spacing" textLength="65.3447" x="1180" y="361.1211">Customer</text><text fill="#000000" font-family="sans-serif" font-size="14" font-style="italic" lengthAdjust="spacing" textLength="78.627" x="1203.6865" y="385.7422">&#171;aggregate&#187;</text></g><!--class Figure--><g id="elem_Figure"><rect codeLine="4" fill="#F1F1F1" height="76.543" id="Figure" rx="2.5" ry="2.5" style="stroke:#181818;stroke-width:0.5;" width="71.6826" x="549" y="62.0137"/><ellipse cx="564" cy="92.2852" fill="#ADD1B2" rx="11" ry="11" style="stroke:#181818;stroke-width:1.0;"/><path d="M566.7656,88.1602 Q566.9219,87.9414 567.1094,87.832 Q567.2969,87.7227 567.5156,87.7227 Q567.8906,87.7227 568.125,87.9883 Q568.3594,88.2383 568.3594,88.8477 L568.3594,90.3008 Q568.3594,90.9102 568.125,91.1758 Q567.8906,91.4414 567.5156,91.4414 Q567.1719,91.4414 566.9688,91.2383 Q566.7656,91.0508 566.6563,90.5352 Q566.6094,90.1758 566.4219,89.9883 Q566.0938,89.6133 565.4844,89.3945 Q564.875,89.1758 564.25,89.1758 Q563.4844,89.1758 562.8438,89.5039 Q562.2188,89.832 561.7188,90.582 Q561.2344,91.332 561.2344,92.3633 L561.2344,93.457 Q561.2344,94.6914 562.125,95.5195 Q563.0156,96.332 564.6094,96.332 Q565.5469,96.332 566.2031,96.082 Q566.5938,95.9258 567.0156,95.4883 Q567.2813,95.2227 567.4219,95.1445 Q567.5781,95.0664 567.7813,95.0664 Q568.1094,95.0664 568.3594,95.332 Q568.625,95.582 568.625,95.9258 Q568.625,96.2695 568.2813,96.6758 Q567.7813,97.2539 566.9844,97.582 Q565.9063,98.0352 564.6094,98.0352 Q563.0938,98.0352 561.8906,97.4102 Q560.9063,96.9102 560.2188,95.8477 Q559.5313,94.7695 559.5313,93.4883 L559.5313,92.332 Q559.5313,91.0039 560.1406,89.8633 Q560.7656,88.707 561.8594,88.0977 Q562.9531,87.4727 564.1875,87.4727 Q564.9219,87.4727 565.5625,87.6445 Q566.2188,87.8008 566.7656,88.1602 Z " fill="#000000"/><text fill="#000000" font-family="sans-serif" font-size="12" font-style="italic" lengthAdjust="spacing" textLength="43.3594" x="576.1616" y="79.9629">&#171;Entity&#187;</text><text fill="#000000" font-family="sans-serif" font-size="12" font-style="italic" lengthAdjust="spacing" textLength="34.0254" x="580.8286" y="95.9238">&#171;root&#187;</text><text fill="#000000" font-family="sans-serif" font-size="14" lengthAdjust="spacing" textLength="39.6826" x="578" y="114.043">Figure</text><line style="stroke:#181818;stroke-width:0.5;" x1="550" x2="619.6826" y1="122.5566" y2="122.5566"/><line style="stroke:#181818;stroke-width:0.5;" x1="550" x2="619.6826" y1="130.5566" y2="130.5566"/></g><!--class Code--><g id="elem_Code"><rect codeLine="7" fill="#F1F1F1" height="60.582" id="Code" rx="2.5" ry="2.5" style="stroke:#181818;stroke-width:0.5;" width="110.0547" x="881" y="218.0137"/><ellipse cx="896" cy="240.3047" fill="#ADD1B2" rx="11" ry="11" style="stroke:#181818;stroke-width:1.0;"/><path d="M898.7656,236.1797 Q898.9219,235.9609 899.1094,235.8516 Q899.2969,235.7422 899.5156,235.7422 Q899.8906,235.7422 900.125,236.0078 Q900.3594,236.2578 900.3594,236.8672 L900.3594,238.3203 Q900.3594,238.9297 900.125,239.1953 Q899.8906,239.4609 899.5156,239.4609 Q899.1719,239.4609 898.9688,239.2578 Q898.7656,239.0703 898.6563,238.5547 Q898.6094,238.1953 898.4219,238.0078 Q898.0938,237.6328 897.4844,237.4141 Q896.875,237.1953 896.25,237.1953 Q895.4844,237.1953 894.8438,237.5234 Q894.2188,237.8516 893.7188,238.6016 Q893.2344,239.3516 893.2344,240.3828 L893.2344,241.4766 Q893.2344,242.7109 894.125,243.5391 Q895.0156,244.3516 896.6094,244.3516 Q897.5469,244.3516 898.2031,244.1016 Q898.5938,243.9453 899.0156,243.5078 Q899.2813,243.2422 899.4219,243.1641 Q899.5781,243.0859 899.7813,243.0859 Q900.1094,243.0859 900.3594,243.3516 Q900.625,243.6016 900.625,243.9453 Q900.625,244.2891 900.2813,244.6953 Q899.7813,245.2734 898.9844,245.6016 Q897.9063,246.0547 896.6094,246.0547 Q895.0938,246.0547 893.8906,245.4297 Q892.9063,244.9297 892.2188,243.8672 Q891.5313,242.7891 891.5313,241.5078 L891.5313,240.3516 Q891.5313,239.0234 892.1406,237.8828 Q892.7656,236.7266 893.8594,236.1172 Q894.9531,235.4922 896.1875,235.4922 Q896.9219,235.4922 897.5625,235.6641 Q898.2188,235.8203 898.7656,236.1797 Z " fill="#000000"/><text fill="#000000" font-family="sans-serif" font-size="12" font-style="italic" lengthAdjust="spacing" textLength="82.0547" x="908" y="235.9629">&#171;Value Object&#187;</text><text fill="#000000" font-family="sans-serif" font-size="14" lengthAdjust="spacing" textLength="33.4688" x="932.293" y="254.082">Code</text><line style="stroke:#181818;stroke-width:0.5;" x1="882" x2="990.0547" y1="262.5957" y2="262.5957"/><line style="stroke:#181818;stroke-width:0.5;" x1="882" x2="990.0547" y1="270.5957" y2="270.5957"/></g><!--class Version--><g id="elem_Version"><rect codeLine="10" fill="#F1F1F1" height="60.582" id="Version" rx="2.5" ry="2.5" style="stroke:#181818;stroke-width:0.5;" width="110.0547" x="1026" y="218.0137"/><ellipse cx="1041" cy="240.3047" fill="#ADD1B2" rx="11" ry="11" style="stroke:#181818;stroke-width:1.0;"/><path d="M1043.7656,236.1797 Q1043.9219,235.9609 1044.1094,235.8516 Q1044.2969,235.7422 1044.5156,235.7422 Q1044.8906,235.7422 1045.125,236.0078 Q1045.3594,236.2578 1045.3594,236.8672 L1045.3594,238.3203 Q1045.3594,238.9297 1045.125,239.1953 Q1044.8906,239.4609 1044.5156,239.4609 Q1044.1719,239.4609 1043.9688,239.2578 Q1043.7656,239.0703 1043.6563,238.5547 Q1043.6094,238.1953 1043.4219,238.0078 Q1043.0938,237.6328 1042.4844,237.4141 Q1041.875,237.1953 1041.25,237.1953 Q1040.4844,237.1953 1039.8438,237.5234 Q1039.2188,237.8516 1038.7188,238.6016 Q1038.2344,239.3516 1038.2344,240.3828 L1038.2344,241.4766 Q1038.2344,242.7109 1039.125,243.5391 Q1040.0156,244.3516 1041.6094,244.3516 Q1042.5469,244.3516 1043.2031,244.1016 Q1043.5938,243.9453 1044.0156,243.5078 Q1044.2813,243.2422 1044.4219,243.1641 Q1044.5781,243.0859 1044.7813,243.0859 Q1045.1094,243.0859 1045.3594,243.3516 Q1045.625,243.6016 1045.625,243.9453 Q1045.625,244.2891 1045.2813,244.6953 Q1044.7813,245.2734 1043.9844,245.6016 Q1042.9063,246.0547 1041.6094,246.0547 Q1040.0938,246.0547 1038.8906,245.4297 Q1037.9063,244.9297 1037.2188,243.8672 Q1036.5313,242.7891 1036.5313,241.5078 L1036.5313,240.3516 Q1036.5313,239.0234 1037.1406,237.8828 Q1037.7656,236.7266 1038.8594,236.1172 Q1039.9531,235.4922 1041.1875,235.4922 Q1041.9219,235.4922 1042.5625,235.6641 Q1043.2188,235.8203 1043.7656,236.1797 Z " fill="#000000"/><text fill="#000000" font-family="sans-serif" font-size="12" font-style="italic" lengthAdjust="spacing" textLength="82.0547" x="1053" y="235.9629">&#171;Value Object&#187;</text><text fill="#000000" font-family="sans-serif" font-size="14" lengthAdjust="spacing" textLength="47.4688" x="1070.293" y="254.082">Version</text><line style="stroke:#181818;stroke-width:0.5;" x1="1027" x2="1135.0547" y1="262.5957" y2="262.5957"/><line style="stroke:#181818;stroke-width:0.5;" x1="1027" x2="1135.0547" y1="270.5957" y2="270.5957"/></g><!--class Description--><g id="elem_Description"><rect codeLine="13" fill="#F1F1F1" height="60.582" id="Description" rx="2.5" ry="2.5" style="stroke:#181818;stroke-width:0.5;" width="110.0547" x="187" y="218.0137"/><ellipse cx="202" cy="240.3047" fill="#ADD1B2" rx="11" ry="11" style="stroke:#181818;stroke-width:1.0;"/><path d="M204.7656,236.1797 Q204.9219,235.9609 205.1094,235.8516 Q205.2969,235.7422 205.5156,235.7422 Q205.8906,235.7422 206.125,236.0078 Q206.3594,236.2578 206.3594,236.8672 L206.3594,238.3203 Q206.3594,238.9297 206.125,239.1953 Q205.8906,239.4609 205.5156,239.4609 Q205.1719,239.4609 204.9688,239.2578 Q204.7656,239.0703 204.6563,238.5547 Q204.6094,238.1953 204.4219,238.0078 Q204.0938,237.6328 203.4844,237.4141 Q202.875,237.1953 202.25,237.1953 Q201.4844,237.1953 200.8438,237.5234 Q200.2188,237.8516 199.7188,238.6016 Q199.2344,239.3516 199.2344,240.3828 L199.2344,241.4766 Q199.2344,242.7109 200.125,243.5391 Q201.0156,244.3516 202.6094,244.3516 Q203.5469,244.3516 204.2031,244.1016 Q204.5938,243.9453 205.0156,243.5078 Q205.2813,243.2422 205.4219,243.1641 Q205.5781,243.0859 205.7813,243.0859 Q206.1094,243.0859 206.3594,243.3516 Q206.625,243.6016 206.625,243.9453 Q206.625,244.2891 206.2813,244.6953 Q205.7813,245.2734 204.9844,245.6016 Q203.9063,246.0547 202.6094,246.0547 Q201.0938,246.0547 199.8906,245.4297 Q198.9063,244.9297 198.2188,243.8672 Q197.5313,242.7891 197.5313,241.5078 L197.5313,240.3516 Q197.5313,239.0234 198.1406,237.8828 Q198.7656,236.7266 199.8594,236.1172 Q200.9531,235.4922 202.1875,235.4922 Q202.9219,235.4922 203.5625,235.6641 Q204.2188,235.8203 204.7656,236.1797 Z " fill="#000000"/><text fill="#000000" font-family="sans-serif" font-size="12" font-style="italic" lengthAdjust="spacing" textLength="82.0547" x="214" y="235.9629">&#171;Value Object&#187;</text><text fill="#000000" font-family="sans-serif" font-size="14" lengthAdjust="spacing" textLength="70.0273" x="220.0137" y="254.082">Description</text><line style="stroke:#181818;stroke-width:0.5;" x1="188" x2="296.0547" y1="262.5957" y2="262.5957"/><line style="stroke:#181818;stroke-width:0.5;" x1="188" x2="296.0547" y1="270.5957" y2="270.5957"/></g><!--class DSLDescription--><g id="elem_DSLDescription"><rect codeLine="16" fill="#F1F1F1" height="60.582" id="DSLDescription" rx="2.5" ry="2.5" style="stroke:#181818;stroke-width:0.5;" width="129.2617" x="22.5" y="218.0137"/><ellipse cx="37.5" cy="240.3047" fill="#ADD1B2" rx="11" ry="11" style="stroke:#181818;stroke-width:1.0;"/><path d="M40.2656,236.1797 Q40.4219,235.9609 40.6094,235.8516 Q40.7969,235.7422 41.0156,235.7422 Q41.3906,235.7422 41.625,236.0078 Q41.8594,236.2578 41.8594,236.8672 L41.8594,238.3203 Q41.8594,238.9297 41.625,239.1953 Q41.3906,239.4609 41.0156,239.4609 Q40.6719,239.4609 40.4688,239.2578 Q40.2656,239.0703 40.1563,238.5547 Q40.1094,238.1953 39.9219,238.0078 Q39.5938,237.6328 38.9844,237.4141 Q38.375,237.1953 37.75,237.1953 Q36.9844,237.1953 36.3438,237.5234 Q35.7188,237.8516 35.2188,238.6016 Q34.7344,239.3516 34.7344,240.3828 L34.7344,241.4766 Q34.7344,242.7109 35.625,243.5391 Q36.5156,244.3516 38.1094,244.3516 Q39.0469,244.3516 39.7031,244.1016 Q40.0938,243.9453 40.5156,243.5078 Q40.7813,243.2422 40.9219,243.1641 Q41.0781,243.0859 41.2813,243.0859 Q41.6094,243.0859 41.8594,243.3516 Q42.125,243.6016 42.125,243.9453 Q42.125,244.2891 41.7813,244.6953 Q41.2813,245.2734 40.4844,245.6016 Q39.4063,246.0547 38.1094,246.0547 Q36.5938,246.0547 35.3906,245.4297 Q34.4063,244.9297 33.7188,243.8672 Q33.0313,242.7891 33.0313,241.5078 L33.0313,240.3516 Q33.0313,239.0234 33.6406,237.8828 Q34.2656,236.7266 35.3594,236.1172 Q36.4531,235.4922 37.6875,235.4922 Q38.4219,235.4922 39.0625,235.6641 Q39.7188,235.8203 40.2656,236.1797 Z " fill="#000000"/><text fill="#000000" font-family="sans-serif" font-size="12" font-style="italic" lengthAdjust="spacing" textLength="82.0547" x="59.1035" y="235.9629">&#171;Value Object&#187;</text><text fill="#000000" font-family="sans-serif" font-size="14" lengthAdjust="spacing" textLength="97.2617" x="51.5" y="254.082">DSLDescription</text><line style="stroke:#181818;stroke-width:0.5;" x1="23.5" x2="150.7617" y1="262.5957" y2="262.5957"/><line style="stroke:#181818;stroke-width:0.5;" x1="23.5" x2="150.7617" y1="270.5957" y2="270.5957"/></g><!--class Category--><g id="elem_Category"><rect codeLine="19" fill="#F1F1F1" height="60.582" id="Category" rx="2.5" ry="2.5" style="stroke:#181818;stroke-width:0.5;" width="88.8066" x="332.5" y="218.0137"/><ellipse cx="347.5" cy="240.3047" fill="#ADD1B2" rx="11" ry="11" style="stroke:#181818;stroke-width:1.0;"/><path d="M350.2656,236.1797 Q350.4219,235.9609 350.6094,235.8516 Q350.7969,235.7422 351.0156,235.7422 Q351.3906,235.7422 351.625,236.0078 Q351.8594,236.2578 351.8594,236.8672 L351.8594,238.3203 Q351.8594,238.9297 351.625,239.1953 Q351.3906,239.4609 351.0156,239.4609 Q350.6719,239.4609 350.4688,239.2578 Q350.2656,239.0703 350.1563,238.5547 Q350.1094,238.1953 349.9219,238.0078 Q349.5938,237.6328 348.9844,237.4141 Q348.375,237.1953 347.75,237.1953 Q346.9844,237.1953 346.3438,237.5234 Q345.7188,237.8516 345.2188,238.6016 Q344.7344,239.3516 344.7344,240.3828 L344.7344,241.4766 Q344.7344,242.7109 345.625,243.5391 Q346.5156,244.3516 348.1094,244.3516 Q349.0469,244.3516 349.7031,244.1016 Q350.0938,243.9453 350.5156,243.5078 Q350.7813,243.2422 350.9219,243.1641 Q351.0781,243.0859 351.2813,243.0859 Q351.6094,243.0859 351.8594,243.3516 Q352.125,243.6016 352.125,243.9453 Q352.125,244.2891 351.7813,244.6953 Q351.2813,245.2734 350.4844,245.6016 Q349.4063,246.0547 348.1094,246.0547 Q346.5938,246.0547 345.3906,245.4297 Q344.4063,244.9297 343.7188,243.8672 Q343.0313,242.7891 343.0313,241.5078 L343.0313,240.3516 Q343.0313,239.0234 343.6406,237.8828 Q344.2656,236.7266 345.3594,236.1172 Q346.4531,235.4922 347.6875,235.4922 Q348.4219,235.4922 349.0625,235.6641 Q349.7188,235.8203 350.2656,236.1797 Z " fill="#000000"/><text fill="#000000" font-family="sans-serif" font-size="12" font-style="italic" lengthAdjust="spacing" textLength="43.3594" x="368.2236" y="235.9629">&#171;Entity&#187;</text><text fill="#000000" font-family="sans-serif" font-size="14" lengthAdjust="spacing" textLength="56.8066" x="361.5" y="254.082">Category</text><line style="stroke:#181818;stroke-width:0.5;" x1="333.5" x2="420.3066" y1="262.5957" y2="262.5957"/><line style="stroke:#181818;stroke-width:0.5;" x1="333.5" x2="420.3066" y1="270.5957" y2="270.5957"/></g><!--class idCategory--><g id="elem_idCategory"><rect codeLine="22" fill="#F1F1F1" height="60.582" id="idCategory" rx="2.5" ry="2.5" style="stroke:#181818;stroke-width:0.5;" width="110.0547" x="245" y="408.0137"/><ellipse cx="260" cy="430.3047" fill="#ADD1B2" rx="11" ry="11" style="stroke:#181818;stroke-width:1.0;"/><path d="M262.7656,426.1797 Q262.9219,425.9609 263.1094,425.8516 Q263.2969,425.7422 263.5156,425.7422 Q263.8906,425.7422 264.125,426.0078 Q264.3594,426.2578 264.3594,426.8672 L264.3594,428.3203 Q264.3594,428.9297 264.125,429.1953 Q263.8906,429.4609 263.5156,429.4609 Q263.1719,429.4609 262.9688,429.2578 Q262.7656,429.0703 262.6563,428.5547 Q262.6094,428.1953 262.4219,428.0078 Q262.0938,427.6328 261.4844,427.4141 Q260.875,427.1953 260.25,427.1953 Q259.4844,427.1953 258.8438,427.5234 Q258.2188,427.8516 257.7188,428.6016 Q257.2344,429.3516 257.2344,430.3828 L257.2344,431.4766 Q257.2344,432.7109 258.125,433.5391 Q259.0156,434.3516 260.6094,434.3516 Q261.5469,434.3516 262.2031,434.1016 Q262.5938,433.9453 263.0156,433.5078 Q263.2813,433.2422 263.4219,433.1641 Q263.5781,433.0859 263.7813,433.0859 Q264.1094,433.0859 264.3594,433.3516 Q264.625,433.6016 264.625,433.9453 Q264.625,434.2891 264.2813,434.6953 Q263.7813,435.2734 262.9844,435.6016 Q261.9063,436.0547 260.6094,436.0547 Q259.0938,436.0547 257.8906,435.4297 Q256.9063,434.9297 256.2188,433.8672 Q255.5313,432.7891 255.5313,431.5078 L255.5313,430.3516 Q255.5313,429.0234 256.1406,427.8828 Q256.7656,426.7266 257.8594,426.1172 Q258.9531,425.4922 260.1875,425.4922 Q260.9219,425.4922 261.5625,425.6641 Q262.2188,425.8203 262.7656,426.1797 Z " fill="#000000"/><text fill="#000000" font-family="sans-serif" font-size="12" font-style="italic" lengthAdjust="spacing" textLength="82.0547" x="272" y="425.9629">&#171;Value Object&#187;</text><text fill="#000000" font-family="sans-serif" font-size="14" lengthAdjust="spacing" textLength="67.7031" x="279.1758" y="444.082">idCategory</text><line style="stroke:#181818;stroke-width:0.5;" x1="246" x2="354.0547" y1="452.5957" y2="452.5957"/><line style="stroke:#181818;stroke-width:0.5;" x1="246" x2="354.0547" y1="460.5957" y2="460.5957"/></g><!--class CategoryStatus--><g id="elem_CategoryStatus"><rect codeLine="25" fill="#F1F1F1" height="60.582" id="CategoryStatus" rx="2.5" ry="2.5" style="stroke:#181818;stroke-width:0.5;" width="128.4961" x="390" y="408.0137"/><ellipse cx="405" cy="430.3047" fill="#ADD1B2" rx="11" ry="11" style="stroke:#181818;stroke-width:1.0;"/><path d="M407.7656,426.1797 Q407.9219,425.9609 408.1094,425.8516 Q408.2969,425.7422 408.5156,425.7422 Q408.8906,425.7422 409.125,426.0078 Q409.3594,426.2578 409.3594,426.8672 L409.3594,428.3203 Q409.3594,428.9297 409.125,429.1953 Q408.8906,429.4609 408.5156,429.4609 Q408.1719,429.4609 407.9688,429.2578 Q407.7656,429.0703 407.6563,428.5547 Q407.6094,428.1953 407.4219,428.0078 Q407.0938,427.6328 406.4844,427.4141 Q405.875,427.1953 405.25,427.1953 Q404.4844,427.1953 403.8438,427.5234 Q403.2188,427.8516 402.7188,428.6016 Q402.2344,429.3516 402.2344,430.3828 L402.2344,431.4766 Q402.2344,432.7109 403.125,433.5391 Q404.0156,434.3516 405.6094,434.3516 Q406.5469,434.3516 407.2031,434.1016 Q407.5938,433.9453 408.0156,433.5078 Q408.2813,433.2422 408.4219,433.1641 Q408.5781,433.0859 408.7813,433.0859 Q409.1094,433.0859 409.3594,433.3516 Q409.625,433.6016 409.625,433.9453 Q409.625,434.2891 409.2813,434.6953 Q408.7813,435.2734 407.9844,435.6016 Q406.9063,436.0547 405.6094,436.0547 Q404.0938,436.0547 402.8906,435.4297 Q401.9063,434.9297 401.2188,433.8672 Q400.5313,432.7891 400.5313,431.5078 L400.5313,430.3516 Q400.5313,429.0234 401.1406,427.8828 Q401.7656,426.7266 402.8594,426.1172 Q403.9531,425.4922 405.1875,425.4922 Q405.9219,425.4922 406.5625,425.6641 Q407.2188,425.8203 407.7656,426.1797 Z " fill="#000000"/><text fill="#000000" font-family="sans-serif" font-size="12" font-style="italic" lengthAdjust="spacing" textLength="82.0547" x="426.2207" y="425.9629">&#171;Value Object&#187;</text><text fill="#000000" font-family="sans-serif" font-size="14" lengthAdjust="spacing" textLength="96.4961" x="419" y="444.082">CategoryStatus</text><line style="stroke:#181818;stroke-width:0.5;" x1="391" x2="517.4961" y1="452.5957" y2="452.5957"/><line style="stroke:#181818;stroke-width:0.5;" x1="391" x2="517.4961" y1="460.5957" y2="460.5957"/></g><!--class FigureStatus--><g id="elem_FigureStatus"><rect codeLine="28" fill="#F1F1F1" height="60.582" id="FigureStatus" rx="2.5" ry="2.5" style="stroke:#181818;stroke-width:0.5;" width="111.3721" x="456.5" y="218.0137"/><ellipse cx="471.5" cy="240.3047" fill="#ADD1B2" rx="11" ry="11" style="stroke:#181818;stroke-width:1.0;"/><path d="M474.2656,236.1797 Q474.4219,235.9609 474.6094,235.8516 Q474.7969,235.7422 475.0156,235.7422 Q475.3906,235.7422 475.625,236.0078 Q475.8594,236.2578 475.8594,236.8672 L475.8594,238.3203 Q475.8594,238.9297 475.625,239.1953 Q475.3906,239.4609 475.0156,239.4609 Q474.6719,239.4609 474.4688,239.2578 Q474.2656,239.0703 474.1563,238.5547 Q474.1094,238.1953 473.9219,238.0078 Q473.5938,237.6328 472.9844,237.4141 Q472.375,237.1953 471.75,237.1953 Q470.9844,237.1953 470.3438,237.5234 Q469.7188,237.8516 469.2188,238.6016 Q468.7344,239.3516 468.7344,240.3828 L468.7344,241.4766 Q468.7344,242.7109 469.625,243.5391 Q470.5156,244.3516 472.1094,244.3516 Q473.0469,244.3516 473.7031,244.1016 Q474.0938,243.9453 474.5156,243.5078 Q474.7813,243.2422 474.9219,243.1641 Q475.0781,243.0859 475.2813,243.0859 Q475.6094,243.0859 475.8594,243.3516 Q476.125,243.6016 476.125,243.9453 Q476.125,244.2891 475.7813,244.6953 Q475.2813,245.2734 474.4844,245.6016 Q473.4063,246.0547 472.1094,246.0547 Q470.5938,246.0547 469.3906,245.4297 Q468.4063,244.9297 467.7188,243.8672 Q467.0313,242.7891 467.0313,241.5078 L467.0313,240.3516 Q467.0313,239.0234 467.6406,237.8828 Q468.2656,236.7266 469.3594,236.1172 Q470.4531,235.4922 471.6875,235.4922 Q472.4219,235.4922 473.0625,235.6641 Q473.7188,235.8203 474.2656,236.1797 Z " fill="#000000"/><text fill="#000000" font-family="sans-serif" font-size="12" font-style="italic" lengthAdjust="spacing" textLength="82.0547" x="484.1587" y="235.9629">&#171;Value Object&#187;</text><text fill="#000000" font-family="sans-serif" font-size="14" lengthAdjust="spacing" textLength="79.3721" x="485.5" y="254.082">FigureStatus</text><line style="stroke:#181818;stroke-width:0.5;" x1="457.5" x2="566.8721" y1="262.5957" y2="262.5957"/><line style="stroke:#181818;stroke-width:0.5;" x1="457.5" x2="566.8721" y1="270.5957" y2="270.5957"/></g><!--class Keyword--><g id="elem_Keyword"><rect codeLine="31" fill="#F1F1F1" height="60.582" id="Keyword" rx="2.5" ry="2.5" style="stroke:#181818;stroke-width:0.5;" width="110.0547" x="603" y="218.0137"/><ellipse cx="618" cy="240.3047" fill="#ADD1B2" rx="11" ry="11" style="stroke:#181818;stroke-width:1.0;"/><path d="M620.7656,236.1797 Q620.9219,235.9609 621.1094,235.8516 Q621.2969,235.7422 621.5156,235.7422 Q621.8906,235.7422 622.125,236.0078 Q622.3594,236.2578 622.3594,236.8672 L622.3594,238.3203 Q622.3594,238.9297 622.125,239.1953 Q621.8906,239.4609 621.5156,239.4609 Q621.1719,239.4609 620.9688,239.2578 Q620.7656,239.0703 620.6563,238.5547 Q620.6094,238.1953 620.4219,238.0078 Q620.0938,237.6328 619.4844,237.4141 Q618.875,237.1953 618.25,237.1953 Q617.4844,237.1953 616.8438,237.5234 Q616.2188,237.8516 615.7188,238.6016 Q615.2344,239.3516 615.2344,240.3828 L615.2344,241.4766 Q615.2344,242.7109 616.125,243.5391 Q617.0156,244.3516 618.6094,244.3516 Q619.5469,244.3516 620.2031,244.1016 Q620.5938,243.9453 621.0156,243.5078 Q621.2813,243.2422 621.4219,243.1641 Q621.5781,243.0859 621.7813,243.0859 Q622.1094,243.0859 622.3594,243.3516 Q622.625,243.6016 622.625,243.9453 Q622.625,244.2891 622.2813,244.6953 Q621.7813,245.2734 620.9844,245.6016 Q619.9063,246.0547 618.6094,246.0547 Q617.0938,246.0547 615.8906,245.4297 Q614.9063,244.9297 614.2188,243.8672 Q613.5313,242.7891 613.5313,241.5078 L613.5313,240.3516 Q613.5313,239.0234 614.1406,237.8828 Q614.7656,236.7266 615.8594,236.1172 Q616.9531,235.4922 618.1875,235.4922 Q618.9219,235.4922 619.5625,235.6641 Q620.2188,235.8203 620.7656,236.1797 Z " fill="#000000"/><text fill="#000000" font-family="sans-serif" font-size="12" font-style="italic" lengthAdjust="spacing" textLength="82.0547" x="630" y="235.9629">&#171;Value Object&#187;</text><text fill="#000000" font-family="sans-serif" font-size="14" lengthAdjust="spacing" textLength="54.4688" x="643.793" y="254.082">Keyword</text><line style="stroke:#181818;stroke-width:0.5;" x1="604" x2="712.0547" y1="262.5957" y2="262.5957"/><line style="stroke:#181818;stroke-width:0.5;" x1="604" x2="712.0547" y1="270.5957" y2="270.5957"/></g><!--class Exclusivity--><g id="elem_Exclusivity"><rect codeLine="34" fill="#F1F1F1" height="60.582" id="Exclusivity" rx="2.5" ry="2.5" style="stroke:#181818;stroke-width:0.5;" width="97.3447" x="748.5" y="218.0137"/><ellipse cx="763.5" cy="240.3047" fill="#ADD1B2" rx="11" ry="11" style="stroke:#181818;stroke-width:1.0;"/><path d="M766.2656,236.1797 Q766.4219,235.9609 766.6094,235.8516 Q766.7969,235.7422 767.0156,235.7422 Q767.3906,235.7422 767.625,236.0078 Q767.8594,236.2578 767.8594,236.8672 L767.8594,238.3203 Q767.8594,238.9297 767.625,239.1953 Q767.3906,239.4609 767.0156,239.4609 Q766.6719,239.4609 766.4688,239.2578 Q766.2656,239.0703 766.1563,238.5547 Q766.1094,238.1953 765.9219,238.0078 Q765.5938,237.6328 764.9844,237.4141 Q764.375,237.1953 763.75,237.1953 Q762.9844,237.1953 762.3438,237.5234 Q761.7188,237.8516 761.2188,238.6016 Q760.7344,239.3516 760.7344,240.3828 L760.7344,241.4766 Q760.7344,242.7109 761.625,243.5391 Q762.5156,244.3516 764.1094,244.3516 Q765.0469,244.3516 765.7031,244.1016 Q766.0938,243.9453 766.5156,243.5078 Q766.7813,243.2422 766.9219,243.1641 Q767.0781,243.0859 767.2813,243.0859 Q767.6094,243.0859 767.8594,243.3516 Q768.125,243.6016 768.125,243.9453 Q768.125,244.2891 767.7813,244.6953 Q767.2813,245.2734 766.4844,245.6016 Q765.4063,246.0547 764.1094,246.0547 Q762.5938,246.0547 761.3906,245.4297 Q760.4063,244.9297 759.7188,243.8672 Q759.0313,242.7891 759.0313,241.5078 L759.0313,240.3516 Q759.0313,239.0234 759.6406,237.8828 Q760.2656,236.7266 761.3594,236.1172 Q762.4531,235.4922 763.6875,235.4922 Q764.4219,235.4922 765.0625,235.6641 Q765.7188,235.8203 766.2656,236.1797 Z " fill="#000000"/><text fill="#000000" font-family="sans-serif" font-size="12" font-style="italic" lengthAdjust="spacing" textLength="43.3594" x="788.4927" y="235.9629">&#171;Entity&#187;</text><text fill="#000000" font-family="sans-serif" font-size="14" lengthAdjust="spacing" textLength="65.3447" x="777.5" y="254.082">Exclusivity</text><line style="stroke:#181818;stroke-width:0.5;" x1="749.5" x2="844.8447" y1="262.5957" y2="262.5957"/><line style="stroke:#181818;stroke-width:0.5;" x1="749.5" x2="844.8447" y1="270.5957" y2="270.5957"/></g><!--class idExclusivity--><g id="elem_idExclusivity"><rect codeLine="37" fill="#F1F1F1" height="60.582" id="idExclusivity" rx="2.5" ry="2.5" style="stroke:#181818;stroke-width:0.5;" width="110.0547" x="742" y="408.0137"/><ellipse cx="757" cy="430.3047" fill="#ADD1B2" rx="11" ry="11" style="stroke:#181818;stroke-width:1.0;"/><path d="M759.7656,426.1797 Q759.9219,425.9609 760.1094,425.8516 Q760.2969,425.7422 760.5156,425.7422 Q760.8906,425.7422 761.125,426.0078 Q761.3594,426.2578 761.3594,426.8672 L761.3594,428.3203 Q761.3594,428.9297 761.125,429.1953 Q760.8906,429.4609 760.5156,429.4609 Q760.1719,429.4609 759.9688,429.2578 Q759.7656,429.0703 759.6563,428.5547 Q759.6094,428.1953 759.4219,428.0078 Q759.0938,427.6328 758.4844,427.4141 Q757.875,427.1953 757.25,427.1953 Q756.4844,427.1953 755.8438,427.5234 Q755.2188,427.8516 754.7188,428.6016 Q754.2344,429.3516 754.2344,430.3828 L754.2344,431.4766 Q754.2344,432.7109 755.125,433.5391 Q756.0156,434.3516 757.6094,434.3516 Q758.5469,434.3516 759.2031,434.1016 Q759.5938,433.9453 760.0156,433.5078 Q760.2813,433.2422 760.4219,433.1641 Q760.5781,433.0859 760.7813,433.0859 Q761.1094,433.0859 761.3594,433.3516 Q761.625,433.6016 761.625,433.9453 Q761.625,434.2891 761.2813,434.6953 Q760.7813,435.2734 759.9844,435.6016 Q758.9063,436.0547 757.6094,436.0547 Q756.0938,436.0547 754.8906,435.4297 Q753.9063,434.9297 753.2188,433.8672 Q752.5313,432.7891 752.5313,431.5078 L752.5313,430.3516 Q752.5313,429.0234 753.1406,427.8828 Q753.7656,426.7266 754.8594,426.1172 Q755.9531,425.4922 757.1875,425.4922 Q757.9219,425.4922 758.5625,425.6641 Q759.2188,425.8203 759.7656,426.1797 Z " fill="#000000"/><text fill="#000000" font-family="sans-serif" font-size="12" font-style="italic" lengthAdjust="spacing" textLength="82.0547" x="769" y="425.9629">&#171;Value Object&#187;</text><text fill="#000000" font-family="sans-serif" font-size="14" lengthAdjust="spacing" textLength="76.2412" x="771.9067" y="444.082">idExclusivity</text><line style="stroke:#181818;stroke-width:0.5;" x1="743" x2="851.0547" y1="452.5957" y2="452.5957"/><line style="stroke:#181818;stroke-width:0.5;" x1="743" x2="851.0547" y1="460.5957" y2="460.5957"/></g><!--class DSLValidate--><g id="elem_DSLValidate"><rect codeLine="40" fill="#F1F1F1" height="60.582" id="DSLValidate" rx="2.5" ry="2.5" style="stroke:#181818;stroke-width:0.5;" width="109.8271" x="32" y="70.0137"/><ellipse cx="47" cy="92.3047" fill="#ADD1B2" rx="11" ry="11" style="stroke:#181818;stroke-width:1.0;"/><path d="M49.7656,88.1797 Q49.9219,87.9609 50.1094,87.8516 Q50.2969,87.7422 50.5156,87.7422 Q50.8906,87.7422 51.125,88.0078 Q51.3594,88.2578 51.3594,88.8672 L51.3594,90.3203 Q51.3594,90.9297 51.125,91.1953 Q50.8906,91.4609 50.5156,91.4609 Q50.1719,91.4609 49.9688,91.2578 Q49.7656,91.0703 49.6563,90.5547 Q49.6094,90.1953 49.4219,90.0078 Q49.0938,89.6328 48.4844,89.4141 Q47.875,89.1953 47.25,89.1953 Q46.4844,89.1953 45.8438,89.5234 Q45.2188,89.8516 44.7188,90.6016 Q44.2344,91.3516 44.2344,92.3828 L44.2344,93.4766 Q44.2344,94.7109 45.125,95.5391 Q46.0156,96.3516 47.6094,96.3516 Q48.5469,96.3516 49.2031,96.1016 Q49.5938,95.9453 50.0156,95.5078 Q50.2813,95.2422 50.4219,95.1641 Q50.5781,95.0859 50.7813,95.0859 Q51.1094,95.0859 51.3594,95.3516 Q51.625,95.6016 51.625,95.9453 Q51.625,96.2891 51.2813,96.6953 Q50.7813,97.2734 49.9844,97.6016 Q48.9063,98.0547 47.6094,98.0547 Q46.0938,98.0547 44.8906,97.4297 Q43.9063,96.9297 43.2188,95.8672 Q42.5313,94.7891 42.5313,93.5078 L42.5313,92.3516 Q42.5313,91.0234 43.1406,89.8828 Q43.7656,88.7266 44.8594,88.1172 Q45.9531,87.4922 47.1875,87.4922 Q47.9219,87.4922 48.5625,87.6641 Q49.2188,87.8203 49.7656,88.1797 Z " fill="#000000"/><text fill="#000000" font-family="sans-serif" font-size="12" font-style="italic" lengthAdjust="spacing" textLength="53.3613" x="73.2329" y="87.9629">&#171;Service&#187;</text><text fill="#000000" font-family="sans-serif" font-size="14" lengthAdjust="spacing" textLength="77.8271" x="61" y="106.082">DSLValidate</text><line style="stroke:#181818;stroke-width:0.5;" x1="33" x2="140.8271" y1="114.5957" y2="114.5957"/><line style="stroke:#181818;stroke-width:0.5;" x1="33" x2="140.8271" y1="122.5957" y2="122.5957"/></g><!--class Customer--><g id="elem_Customer"><rect codeLine="66" fill="#F1F1F1" height="76.543" id="Customer" rx="2.5" ry="2.5" style="stroke:#181818;stroke-width:0.5;" width="92.6826" x="1192.5" y="400.0137"/><ellipse cx="1207.5" cy="430.2852" fill="#ADD1B2" rx="11" ry="11" style="stroke:#181818;stroke-width:1.0;"/><path d="M1210.2656,426.1602 Q1210.4219,425.9414 1210.6094,425.832 Q1210.7969,425.7227 1211.0156,425.7227 Q1211.3906,425.7227 1211.625,425.9883 Q1211.8594,426.2383 1211.8594,426.8477 L1211.8594,428.3008 Q1211.8594,428.9102 1211.625,429.1758 Q1211.3906,429.4414 1211.0156,429.4414 Q1210.6719,429.4414 1210.4688,429.2383 Q1210.2656,429.0508 1210.1563,428.5352 Q1210.1094,428.1758 1209.9219,427.9883 Q1209.5938,427.6133 1208.9844,427.3945 Q1208.375,427.1758 1207.75,427.1758 Q1206.9844,427.1758 1206.3438,427.5039 Q1205.7188,427.832 1205.2188,428.582 Q1204.7344,429.332 1204.7344,430.3633 L1204.7344,431.457 Q1204.7344,432.6914 1205.625,433.5195 Q1206.5156,434.332 1208.1094,434.332 Q1209.0469,434.332 1209.7031,434.082 Q1210.0938,433.9258 1210.5156,433.4883 Q1210.7813,433.2227 1210.9219,433.1445 Q1211.0781,433.0664 1211.2813,433.0664 Q1211.6094,433.0664 1211.8594,433.332 Q1212.125,433.582 1212.125,433.9258 Q1212.125,434.2695 1211.7813,434.6758 Q1211.2813,435.2539 1210.4844,435.582 Q1209.4063,436.0352 1208.1094,436.0352 Q1206.5938,436.0352 1205.3906,435.4102 Q1204.4063,434.9102 1203.7188,433.8477 Q1203.0313,432.7695 1203.0313,431.4883 L1203.0313,430.332 Q1203.0313,429.0039 1203.6406,427.8633 Q1204.2656,426.707 1205.3594,426.0977 Q1206.4531,425.4727 1207.6875,425.4727 Q1208.4219,425.4727 1209.0625,425.6445 Q1209.7188,425.8008 1210.2656,426.1602 Z " fill="#000000"/><text fill="#000000" font-family="sans-serif" font-size="12" font-style="italic" lengthAdjust="spacing" textLength="43.3594" x="1230.1616" y="417.9629">&#171;Entity&#187;</text><text fill="#000000" font-family="sans-serif" font-size="12" font-style="italic" lengthAdjust="spacing" textLength="34.0254" x="1234.8286" y="433.9238">&#171;root&#187;</text><text fill="#000000" font-family="sans-serif" font-size="14" lengthAdjust="spacing" textLength="60.6826" x="1221.5" y="452.043">Customer</text><line style="stroke:#181818;stroke-width:0.5;" x1="1193.5" x2="1284.1826" y1="460.5566" y2="460.5566"/><line style="stroke:#181818;stroke-width:0.5;" x1="1193.5" x2="1284.1826" y1="468.5566" y2="468.5566"/></g><!--link Figure to DSLDescription--><g id="link_Figure_DSLDescription"><path codeLine="45" d="M548.78,105.0337 C484.51,112.0537 346.92,130.5137 237,169.0137 C201.22,181.5437 168.605,198.3817 139.895,214.9717 " fill="none" id="Figure-to-DSLDescription" style="stroke:#181818;stroke-width:1.0;"/><polygon fill="#181818" points="134.7,217.9737,144.4938,216.9341,139.0292,215.4721,140.4913,210.0074,134.7,217.9737" style="stroke:#181818;stroke-width:1.0;"/><text fill="#000000" font-family="sans-serif" font-size="13" lengthAdjust="spacing" textLength="90.3145" x="238" y="184.042">DSLDescription</text><text fill="#000000" font-family="sans-serif" font-size="13" lengthAdjust="spacing" textLength="7.23" x="137.3653" y="206.5395">1</text></g><!--link Figure to Category--><g id="link_Figure_Category"><path codeLine="46" d="M548.75,121.2937 C526.14,134.0837 496.74,151.5537 472,169.0137 C450.67,184.0637 432.6516,198.6843 414.8616,213.9643 " fill="none" id="Figure-to-Category" style="stroke:#181818;stroke-width:1.0;"/><polygon fill="#181818" points="410.31,217.8737,419.7436,215.044,414.103,214.6159,414.5311,208.9752,410.31,217.8737" style="stroke:#181818;stroke-width:1.0;"/><text fill="#000000" font-family="sans-serif" font-size="13" lengthAdjust="spacing" textLength="49.8608" x="473" y="184.042">category</text><text fill="#000000" font-family="sans-serif" font-size="13" lengthAdjust="spacing" textLength="7.23" x="409.502" y="206.9025">1</text></g><!--link Figure to Keyword--><g id="link_Figure_Keyword"><path codeLine="47" d="M603.8,139.1137 C616.05,163.6137 629.1258,189.7676 640.4958,212.4976 " fill="none" id="Figure-to-Keyword" style="stroke:#181818;stroke-width:1.0;"/><polygon fill="#181818" points="643.18,217.8637,642.7311,208.0251,640.9431,213.3919,635.5763,211.604,643.18,217.8637" style="stroke:#181818;stroke-width:1.0;"/><text fill="#000000" font-family="sans-serif" font-size="13" lengthAdjust="spacing" textLength="54.9072" x="629" y="184.042">keywords</text><text fill="#000000" font-family="sans-serif" font-size="13" lengthAdjust="spacing" textLength="19.5127" x="619.2112" y="206.8904">1..*</text></g><!--link Figure to Exclusivity--><g id="link_Figure_Exclusivity"><path codeLine="48" d="M621.13,123.3137 C642.08,136.2137 668.83,153.0837 692,169.0137 C714.51,184.4937 734.2087,199.0657 753.8687,214.0557 " fill="none" id="Figure-to-Exclusivity" style="stroke:#181818;stroke-width:1.0;"/><polygon fill="#181818" points="758.64,217.6937,753.9083,209.0559,754.6639,214.6621,749.0577,215.4176,758.64,217.6937" style="stroke:#181818;stroke-width:1.0;"/><text fill="#000000" font-family="sans-serif" font-size="13" lengthAdjust="spacing" textLength="59.2363" x="719" y="184.042">exclusivity</text><text fill="#000000" font-family="sans-serif" font-size="13" lengthAdjust="spacing" textLength="7.23" x="742.9945" y="206.6854">1</text></g><!--link Figure to Code--><g id="link_Figure_Code"><path codeLine="49" d="M621.05,111.6237 C661.97,123.5537 730.38,144.8337 787,169.0137 C820.48,183.3137 851.3829,199.3637 879.6929,215.0637 " fill="none" id="Figure-to-Code" style="stroke:#181818;stroke-width:1.0;"/><polygon fill="#181818" points="884.94,217.9737,879.0093,210.1107,880.5674,215.5487,875.1294,217.1069,884.94,217.9737" style="stroke:#181818;stroke-width:1.0;"/><text fill="#000000" font-family="sans-serif" font-size="13" lengthAdjust="spacing" textLength="28.1899" x="825" y="184.042">code</text><text fill="#000000" font-family="sans-serif" font-size="13" lengthAdjust="spacing" textLength="7.23" x="866.0242" y="206.5395">1</text></g><!--link Figure to Version--><g id="link_Figure_Version"><path codeLine="50" d="M621.11,109.3137 C674.22,121.0037 776.38,144.3537 862,169.0137 C928.18,188.0737 944.43,194.0537 1009,218.0137 C1014.45,220.0337 1014.5083,220.0027 1020.1383,222.2227 " fill="none" id="Figure-to-Version" style="stroke:#181818;stroke-width:1.0;"/><polygon fill="#181818" points="1025.72,224.4237,1018.8147,217.4011,1021.0686,222.5895,1015.8801,224.8434,1025.72,224.4237" style="stroke:#181818;stroke-width:1.0;"/><text fill="#000000" font-family="sans-serif" font-size="13" lengthAdjust="spacing" textLength="41.9072" x="924" y="184.042">version</text><text fill="#000000" font-family="sans-serif" font-size="13" lengthAdjust="spacing" textLength="7.23" x="1010.8332" y="217.1203">1</text></g><!--link Figure to Description--><g id="link_Figure_Description"><path codeLine="51" d="M548.8,110.5137 C506.22,121.7037 433.86,142.5737 375,169.0137 C344.3,182.8037 316.8128,198.7295 291.5928,214.6595 " fill="none" id="Figure-to-Description" style="stroke:#181818;stroke-width:1.0;"/><polygon fill="#181818" points="286.52,217.8637,296.2653,216.4393,290.7473,215.1935,291.9931,209.6755,286.52,217.8637" style="stroke:#181818;stroke-width:1.0;"/><text fill="#000000" font-family="sans-serif" font-size="13" lengthAdjust="spacing" textLength="62.8672" x="376" y="184.042">description</text><text fill="#000000" font-family="sans-serif" font-size="13" lengthAdjust="spacing" textLength="7.23" x="287.9985" y="206.8904">1</text></g><!--link Figure to FigureStatus--><g id="link_Figure_FigureStatus"><path codeLine="52" d="M557.61,139.0837 C551.35,148.5737 545.06,158.9437 540,169.0137 C532.21,184.5337 527.4227,197.0469 522.5627,212.0169 " fill="none" id="Figure-to-FigureStatus" style="stroke:#181818;stroke-width:1.0;"/><polygon fill="#181818" points="520.71,217.7237,527.2936,210.3986,522.2539,212.968,519.6845,207.9283,520.71,217.7237" style="stroke:#181818;stroke-width:1.0;"/><text fill="#000000" font-family="sans-serif" font-size="13" lengthAdjust="spacing" textLength="69.3735" x="541" y="184.042">figureStatus</text><text fill="#000000" font-family="sans-serif" font-size="13" lengthAdjust="spacing" textLength="7.23" x="514.7699" y="206.7215">1</text></g><!--link DSLValidate to DSLDescription--><g id="link_DSLValidate_DSLDescription"><path codeLine="55" d="M87,131.0637 C87,156.3937 87,186.6937 87,212.0137 " fill="none" id="DSLValidate-to-DSLDescription" style="stroke:#181818;stroke-width:1.0;stroke-dasharray:7.0,7.0;"/><polygon fill="#181818" points="87,218.0137,91,209.0137,87,213.0137,83,209.0137,87,218.0137" style="stroke:#181818;stroke-width:1.0;"/><text fill="#000000" font-family="sans-serif" font-size="13" lengthAdjust="spacing" textLength="51.3081" x="88" y="184.042">validates</text><text fill="#000000" font-family="sans-serif" font-size="13" lengthAdjust="spacing" textLength="7.23" x="79.2309" y="206.5883">1</text></g><!--link Exclusivity to idExclusivity--><g id="link_Exclusivity_idExclusivity"><path codeLine="58" d="M797,279.3037 C797,314.5037 797,366.7237 797,401.8637 " fill="none" id="Exclusivity-to-idExclusivity" style="stroke:#181818;stroke-width:1.0;"/><polygon fill="#181818" points="797,407.8637,801,398.8637,797,402.8637,793,398.8637,797,407.8637" style="stroke:#181818;stroke-width:1.0;"/><text fill="#000000" font-family="sans-serif" font-size="13" lengthAdjust="spacing" textLength="10.1182" x="798" y="324.042">id</text><text fill="#000000" font-family="sans-serif" font-size="13" lengthAdjust="spacing" textLength="7.23" x="789.2962" y="396.8904">1</text></g><!--link Category to idCategory--><g id="link_Category_idCategory"><path codeLine="61" d="M364.8,279.3037 C350.38,314.5037 328.8151,367.1718 314.4151,402.3118 " fill="none" id="Category-to-idCategory" style="stroke:#181818;stroke-width:1.0;"/><polygon fill="#181818" points="312.14,407.8637,319.254,401.0525,314.0359,403.2371,311.8514,398.019,312.14,407.8637" style="stroke:#181818;stroke-width:1.0;"/><text fill="#000000" font-family="sans-serif" font-size="13" lengthAdjust="spacing" textLength="10.1182" x="353" y="324.042">id</text><text fill="#000000" font-family="sans-serif" font-size="13" lengthAdjust="spacing" textLength="7.23" x="306.9401" y="396.8904">1</text></g><!--link Category to CategoryStatus--><g id="link_Category_CategoryStatus"><path codeLine="62" d="M389.2,279.3037 C403.62,314.5037 425.1849,367.1718 439.5849,402.3118 " fill="none" id="Category-to-CategoryStatus" style="stroke:#181818;stroke-width:1.0;"/><polygon fill="#181818" points="441.86,407.8637,442.1486,398.019,439.9641,403.2371,434.746,401.0525,441.86,407.8637" style="stroke:#181818;stroke-width:1.0;"/><text fill="#000000" font-family="sans-serif" font-size="13" lengthAdjust="spacing" textLength="86.7153" x="409" y="324.042">categoryStatus</text><text fill="#000000" font-family="sans-serif" font-size="13" lengthAdjust="spacing" textLength="7.23" x="431.6068" y="396.8904">1</text></g><!--link Exclusivity to Customer--><g id="link_Exclusivity_Customer"><path codeLine="70" d="M845.56,272.3737 C851.69,274.8137 857.94,277.1037 864,279.0137 C988.46,318.2037 1039.34,270.1837 1152,336.0137 C1178.35,351.4137 1197.1507,372.8572 1212.5407,394.8572 " fill="none" id="Exclusivity-to-Customer" style="stroke:#181818;stroke-width:1.0;"/><polygon fill="#181818" points="1215.98,399.7737,1214.0987,390.1062,1213.1139,395.6766,1207.5435,394.6919,1215.98,399.7737" style="stroke:#181818;stroke-width:1.0;"/><text fill="#000000" font-family="sans-serif" font-size="13" lengthAdjust="spacing" textLength="67.9199" x="1133" y="324.042">exclusive to</text><text fill="#000000" font-family="sans-serif" font-size="13" lengthAdjust="spacing" textLength="7.23" x="1204.4689" y="388.7469">1</text></g><!--SRC=[bPJ1JiCm38RlUmgh5oGaAd6Debx6k834eTBk8JLLs5Yg92sR9juTioLjEY8MUcXYvxFRtt7I2RaHBKBngDhUq0YSYxOrs0g7LGN7nGBeaLjXBNY6yzNEANUWPSwDrgwgZYVgAuQNklb1rsBR8xoylgDCSsiqLkbT3lg0LXhLkLoyVlvdn994jzeS8ea9IZKHbvspTiBrDYVYNEPy_WaFdzeqEUXgBxUzLGD9kwPnZkOKcnZLa5h2QpI3aXYHf_76Tz1T1VkJ8zZaAEwBYnrZ5tOg8bINWVIptrHPtXQXI0msvubDPOiqCy39I7wP-fk-Ik_Kgkzg1iDvabGRIst-rXdt18EtoFALZUi_bZTsbcMwneC7Gg9utyT4CwV_fLcBC39zWl5mZD6JPmoTzetYaipyt4pxwrLJItNXxbhsrkaFD8dRApg70RfsVULN8AISUWN1QVgrRm00]--></g></svg>