<svg xmlns="http://www.w3.org/2000/svg" xmlns:xlink="http://www.w3.org/1999/xlink" contentStyleType="text/css" height="360px" preserveAspectRatio="none" style="width:1164px;height:360px;background:#FFFFFF;" version="1.1" viewBox="0 0 1164 360" width="1164px" zoomAndPan="magnify"><defs/><g><!--cluster ShowRequest --><g id="cluster_ShowRequest "><path d="M8.5,6.0137 L105.9551,6.0137 A3.75,3.75 0 0 1 108.4551,8.5137 L115.4551,30.6348 L680.5,30.6348 A2.5,2.5 0 0 1 683,33.1348 L683,342.5137 A2.5,2.5 0 0 1 680.5,345.0137 L8.5,345.0137 A2.5,2.5 0 0 1 6,342.5137 L6,8.5137 A2.5,2.5 0 0 1 8.5,6.0137 " fill="none" style="stroke:#000000;stroke-width:1.5;"/><line style="stroke:#000000;stroke-width:1.5;" x1="6" x2="115.4551" y1="30.6348" y2="30.6348"/><text fill="#000000" font-family="sans-serif" font-size="14" font-weight="bold" lengthAdjust="spacing" textLength="92.5654" x="10" y="23.1211">ShowRequest</text><text fill="#000000" font-family="sans-serif" font-size="14" font-style="italic" lengthAdjust="spacing" textLength="78.627" x="309.1865" y="47.7422">&#171;aggregate&#187;</text></g><!--cluster Figure --><g id="cluster_Figure "><path d="M709.5,204.0137 L757.1689,204.0137 A3.75,3.75 0 0 1 759.6689,206.5137 L766.6689,228.6348 L808.5,228.6348 A2.5,2.5 0 0 1 811,231.1348 L811,350.5137 A2.5,2.5 0 0 1 808.5,353.0137 L709.5,353.0137 A2.5,2.5 0 0 1 707,350.5137 L707,206.5137 A2.5,2.5 0 0 1 709.5,204.0137 " fill="none" style="stroke:#000000;stroke-width:1.5;"/><line style="stroke:#000000;stroke-width:1.5;" x1="707" x2="766.6689" y1="228.6348" y2="228.6348"/><text fill="#000000" font-family="sans-serif" font-size="14" font-weight="bold" lengthAdjust="spacing" textLength="42.7793" x="711" y="221.1211">Figure</text><text fill="#000000" font-family="sans-serif" font-size="14" font-style="italic" lengthAdjust="spacing" textLength="78.627" x="723.6865" y="245.7422">&#171;aggregate&#187;</text></g><!--cluster Customer --><g id="cluster_Customer "><path d="M837.5,204.0137 L907.7344,204.0137 A3.75,3.75 0 0 1 910.2344,206.5137 L917.2344,228.6348 L958.5,228.6348 A2.5,2.5 0 0 1 961,231.1348 L961,350.5137 A2.5,2.5 0 0 1 958.5,353.0137 L837.5,353.0137 A2.5,2.5 0 0 1 835,350.5137 L835,206.5137 A2.5,2.5 0 0 1 837.5,204.0137 " fill="none" style="stroke:#000000;stroke-width:1.5;"/><line style="stroke:#000000;stroke-width:1.5;" x1="835" x2="917.2344" y1="228.6348" y2="228.6348"/><text fill="#000000" font-family="sans-serif" font-size="14" font-weight="bold" lengthAdjust="spacing" textLength="65.3447" x="839" y="221.1211">Customer</text><text fill="#000000" font-family="sans-serif" font-size="14" font-style="italic" lengthAdjust="spacing" textLength="78.627" x="862.6865" y="245.7422">&#171;aggregate&#187;</text></g><!--cluster CRMCollaborator --><g id="cluster_CRMCollaborator "><path d="M987.5,204.0137 L1107.5,204.0137 A3.75,3.75 0 0 1 1110,206.5137 L1117,228.6348 L1154.5,228.6348 A2.5,2.5 0 0 1 1157,231.1348 L1157,350.5137 A2.5,2.5 0 0 1 1154.5,353.0137 L987.5,353.0137 A2.5,2.5 0 0 1 985,350.5137 L985,206.5137 A2.5,2.5 0 0 1 987.5,204.0137 " fill="none" style="stroke:#000000;stroke-width:1.5;"/><line style="stroke:#000000;stroke-width:1.5;" x1="985" x2="1117" y1="228.6348" y2="228.6348"/><text fill="#000000" font-family="sans-serif" font-size="14" font-weight="bold" lengthAdjust="spacing" textLength="115.1104" x="989" y="221.1211">CRMCollaborator</text><text fill="#000000" font-family="sans-serif" font-size="14" font-style="italic" lengthAdjust="spacing" textLength="78.627" x="1035.6865" y="245.7422">&#171;aggregate&#187;</text></g><!--class Location--><g id="elem_Location"><rect codeLine="4" fill="#F1F1F1" height="60.582" id="Location" rx="2.5" ry="2.5" style="stroke:#181818;stroke-width:0.5;" width="110.0547" x="22" y="268.0137"/><ellipse cx="37" cy="290.3047" fill="#ADD1B2" rx="11" ry="11" style="stroke:#181818;stroke-width:1.0;"/><path d="M39.7656,286.1797 Q39.9219,285.9609 40.1094,285.8516 Q40.2969,285.7422 40.5156,285.7422 Q40.8906,285.7422 41.125,286.0078 Q41.3594,286.2578 41.3594,286.8672 L41.3594,288.3203 Q41.3594,288.9297 41.125,289.1953 Q40.8906,289.4609 40.5156,289.4609 Q40.1719,289.4609 39.9688,289.2578 Q39.7656,289.0703 39.6563,288.5547 Q39.6094,288.1953 39.4219,288.0078 Q39.0938,287.6328 38.4844,287.4141 Q37.875,287.1953 37.25,287.1953 Q36.4844,287.1953 35.8438,287.5234 Q35.2188,287.8516 34.7188,288.6016 Q34.2344,289.3516 34.2344,290.3828 L34.2344,291.4766 Q34.2344,292.7109 35.125,293.5391 Q36.0156,294.3516 37.6094,294.3516 Q38.5469,294.3516 39.2031,294.1016 Q39.5938,293.9453 40.0156,293.5078 Q40.2813,293.2422 40.4219,293.1641 Q40.5781,293.0859 40.7813,293.0859 Q41.1094,293.0859 41.3594,293.3516 Q41.625,293.6016 41.625,293.9453 Q41.625,294.2891 41.2813,294.6953 Q40.7813,295.2734 39.9844,295.6016 Q38.9063,296.0547 37.6094,296.0547 Q36.0938,296.0547 34.8906,295.4297 Q33.9063,294.9297 33.2188,293.8672 Q32.5313,292.7891 32.5313,291.5078 L32.5313,290.3516 Q32.5313,289.0234 33.1406,287.8828 Q33.7656,286.7266 34.8594,286.1172 Q35.9531,285.4922 37.1875,285.4922 Q37.9219,285.4922 38.5625,285.6641 Q39.2188,285.8203 39.7656,286.1797 Z " fill="#000000"/><text fill="#000000" font-family="sans-serif" font-size="12" font-style="italic" lengthAdjust="spacing" textLength="82.0547" x="49" y="285.9629">&#171;Value Object&#187;</text><text fill="#000000" font-family="sans-serif" font-size="14" lengthAdjust="spacing" textLength="52.9307" x="63.562" y="304.082">Location</text><line style="stroke:#181818;stroke-width:0.5;" x1="23" x2="131.0547" y1="312.5957" y2="312.5957"/><line style="stroke:#181818;stroke-width:0.5;" x1="23" x2="131.0547" y1="320.5957" y2="320.5957"/></g><!--class ShowRequestStatus--><g id="elem_ShowRequestStatus"><rect codeLine="7" fill="#F1F1F1" height="60.582" id="ShowRequestStatus" rx="2.5" ry="2.5" style="stroke:#181818;stroke-width:0.5;" width="158.8545" x="167.5" y="268.0137"/><ellipse cx="182.5" cy="290.3047" fill="#EB937F" rx="11" ry="11" style="stroke:#181818;stroke-width:1.0;"/><path d="M181.3594,291.1016 L181.3594,293.6016 L185.6875,293.6016 L185.6875,292.6797 Q185.6875,292.0703 185.9219,291.8047 Q186.1719,291.5391 186.5469,291.5391 Q186.9219,291.5391 187.1563,291.8047 Q187.3906,292.0703 187.3906,292.6797 L187.3906,295.3047 L179.3906,295.3047 Q178.7656,295.3047 178.5,295.0703 Q178.25,294.8359 178.25,294.4453 Q178.25,294.0703 178.5156,293.8359 Q178.7813,293.6016 179.3906,293.6016 L179.6563,293.6016 L179.6563,286.9453 L179.3906,286.9453 Q178.7656,286.9453 178.5,286.7109 Q178.25,286.4766 178.25,286.0859 Q178.25,285.7109 178.5,285.4766 Q178.7656,285.2422 179.3906,285.2422 L187.0156,285.2422 L187.0156,287.8359 Q187.0156,288.4453 186.7813,288.7109 Q186.5625,288.9609 186.1719,288.9609 Q185.7969,288.9609 185.5625,288.7109 Q185.3281,288.4453 185.3281,287.8359 L185.3281,286.9453 L181.3594,286.9453 L181.3594,289.3984 L182.8438,289.3984 Q182.8438,288.7422 182.9688,288.5547 Q183.2344,288.1484 183.7031,288.1484 Q184.0781,288.1484 184.3125,288.4141 Q184.5469,288.6641 184.5469,289.2734 L184.5469,291.2422 Q184.5469,291.7891 184.4219,291.9766 Q184.1563,292.3672 183.7031,292.3672 Q183.2344,292.3672 182.9688,291.9609 Q182.8438,291.7734 182.8438,291.1016 L181.3594,291.1016 Z " fill="#000000"/><text fill="#000000" font-family="sans-serif" font-size="12" font-style="italic" lengthAdjust="spacing" textLength="82.0547" x="218.8999" y="285.9629">&#171;Value Object&#187;</text><text fill="#000000" font-family="sans-serif" font-size="14" lengthAdjust="spacing" textLength="126.8545" x="196.5" y="304.082">ShowRequestStatus</text><line style="stroke:#181818;stroke-width:0.5;" x1="168.5" x2="325.3545" y1="312.5957" y2="312.5957"/><line style="stroke:#181818;stroke-width:0.5;" x1="168.5" x2="325.3545" y1="320.5957" y2="320.5957"/></g><!--class ShowDescription--><g id="elem_ShowDescription"><rect codeLine="10" fill="#F1F1F1" height="60.582" id="ShowDescription" rx="2.5" ry="2.5" style="stroke:#181818;stroke-width:0.5;" width="137.0479" x="361.5" y="268.0137"/><ellipse cx="376.5" cy="290.3047" fill="#ADD1B2" rx="11" ry="11" style="stroke:#181818;stroke-width:1.0;"/><path d="M379.2656,286.1797 Q379.4219,285.9609 379.6094,285.8516 Q379.7969,285.7422 380.0156,285.7422 Q380.3906,285.7422 380.625,286.0078 Q380.8594,286.2578 380.8594,286.8672 L380.8594,288.3203 Q380.8594,288.9297 380.625,289.1953 Q380.3906,289.4609 380.0156,289.4609 Q379.6719,289.4609 379.4688,289.2578 Q379.2656,289.0703 379.1563,288.5547 Q379.1094,288.1953 378.9219,288.0078 Q378.5938,287.6328 377.9844,287.4141 Q377.375,287.1953 376.75,287.1953 Q375.9844,287.1953 375.3438,287.5234 Q374.7188,287.8516 374.2188,288.6016 Q373.7344,289.3516 373.7344,290.3828 L373.7344,291.4766 Q373.7344,292.7109 374.625,293.5391 Q375.5156,294.3516 377.1094,294.3516 Q378.0469,294.3516 378.7031,294.1016 Q379.0938,293.9453 379.5156,293.5078 Q379.7813,293.2422 379.9219,293.1641 Q380.0781,293.0859 380.2813,293.0859 Q380.6094,293.0859 380.8594,293.3516 Q381.125,293.6016 381.125,293.9453 Q381.125,294.2891 380.7813,294.6953 Q380.2813,295.2734 379.4844,295.6016 Q378.4063,296.0547 377.1094,296.0547 Q375.5938,296.0547 374.3906,295.4297 Q373.4063,294.9297 372.7188,293.8672 Q372.0313,292.7891 372.0313,291.5078 L372.0313,290.3516 Q372.0313,289.0234 372.6406,287.8828 Q373.2656,286.7266 374.3594,286.1172 Q375.4531,285.4922 376.6875,285.4922 Q377.4219,285.4922 378.0625,285.6641 Q378.7188,285.8203 379.2656,286.1797 Z " fill="#000000"/><text fill="#000000" font-family="sans-serif" font-size="12" font-style="italic" lengthAdjust="spacing" textLength="82.0547" x="401.9966" y="285.9629">&#171;Value Object&#187;</text><text fill="#000000" font-family="sans-serif" font-size="14" lengthAdjust="spacing" textLength="105.0479" x="390.5" y="304.082">ShowDescription</text><line style="stroke:#181818;stroke-width:0.5;" x1="362.5" x2="497.5479" y1="312.5957" y2="312.5957"/><line style="stroke:#181818;stroke-width:0.5;" x1="362.5" x2="497.5479" y1="320.5957" y2="320.5957"/></g><!--class ShowRequest--><g id="elem_ShowRequest"><rect codeLine="13" fill="#F1F1F1" height="76.543" id="ShowRequest" rx="2.5" ry="2.5" style="stroke:#181818;stroke-width:0.5;" width="119.165" x="540.5" y="62.0137"/><ellipse cx="555.5" cy="92.2852" fill="#ADD1B2" rx="11" ry="11" style="stroke:#181818;stroke-width:1.0;"/><path d="M558.2656,88.1602 Q558.4219,87.9414 558.6094,87.832 Q558.7969,87.7227 559.0156,87.7227 Q559.3906,87.7227 559.625,87.9883 Q559.8594,88.2383 559.8594,88.8477 L559.8594,90.3008 Q559.8594,90.9102 559.625,91.1758 Q559.3906,91.4414 559.0156,91.4414 Q558.6719,91.4414 558.4688,91.2383 Q558.2656,91.0508 558.1563,90.5352 Q558.1094,90.1758 557.9219,89.9883 Q557.5938,89.6133 556.9844,89.3945 Q556.375,89.1758 555.75,89.1758 Q554.9844,89.1758 554.3438,89.5039 Q553.7188,89.832 553.2188,90.582 Q552.7344,91.332 552.7344,92.3633 L552.7344,93.457 Q552.7344,94.6914 553.625,95.5195 Q554.5156,96.332 556.1094,96.332 Q557.0469,96.332 557.7031,96.082 Q558.0938,95.9258 558.5156,95.4883 Q558.7813,95.2227 558.9219,95.1445 Q559.0781,95.0664 559.2813,95.0664 Q559.6094,95.0664 559.8594,95.332 Q560.125,95.582 560.125,95.9258 Q560.125,96.2695 559.7813,96.6758 Q559.2813,97.2539 558.4844,97.582 Q557.4063,98.0352 556.1094,98.0352 Q554.5938,98.0352 553.3906,97.4102 Q552.4063,96.9102 551.7188,95.8477 Q551.0313,94.7695 551.0313,93.4883 L551.0313,92.332 Q551.0313,91.0039 551.6406,89.8633 Q552.2656,88.707 553.3594,88.0977 Q554.4531,87.4727 555.6875,87.4727 Q556.4219,87.4727 557.0625,87.6445 Q557.7188,87.8008 558.2656,88.1602 Z " fill="#000000"/><text fill="#000000" font-family="sans-serif" font-size="12" font-style="italic" lengthAdjust="spacing" textLength="43.3594" x="591.4028" y="79.9629">&#171;Entity&#187;</text><text fill="#000000" font-family="sans-serif" font-size="12" font-style="italic" lengthAdjust="spacing" textLength="34.0254" x="596.0698" y="95.9238">&#171;root&#187;</text><text fill="#000000" font-family="sans-serif" font-size="14" lengthAdjust="spacing" textLength="87.165" x="569.5" y="114.043">ShowRequest</text><line style="stroke:#181818;stroke-width:0.5;" x1="541.5" x2="658.665" y1="122.5566" y2="122.5566"/><line style="stroke:#181818;stroke-width:0.5;" x1="541.5" x2="658.665" y1="130.5566" y2="130.5566"/></g><!--class IDShowRequest--><g id="elem_IDShowRequest"><rect codeLine="16" fill="#F1F1F1" height="60.582" id="IDShowRequest" rx="2.5" ry="2.5" style="stroke:#181818;stroke-width:0.5;" width="133.165" x="533.5" y="268.0137"/><ellipse cx="548.5" cy="290.3047" fill="#ADD1B2" rx="11" ry="11" style="stroke:#181818;stroke-width:1.0;"/><path d="M551.2656,286.1797 Q551.4219,285.9609 551.6094,285.8516 Q551.7969,285.7422 552.0156,285.7422 Q552.3906,285.7422 552.625,286.0078 Q552.8594,286.2578 552.8594,286.8672 L552.8594,288.3203 Q552.8594,288.9297 552.625,289.1953 Q552.3906,289.4609 552.0156,289.4609 Q551.6719,289.4609 551.4688,289.2578 Q551.2656,289.0703 551.1563,288.5547 Q551.1094,288.1953 550.9219,288.0078 Q550.5938,287.6328 549.9844,287.4141 Q549.375,287.1953 548.75,287.1953 Q547.9844,287.1953 547.3438,287.5234 Q546.7188,287.8516 546.2188,288.6016 Q545.7344,289.3516 545.7344,290.3828 L545.7344,291.4766 Q545.7344,292.7109 546.625,293.5391 Q547.5156,294.3516 549.1094,294.3516 Q550.0469,294.3516 550.7031,294.1016 Q551.0938,293.9453 551.5156,293.5078 Q551.7813,293.2422 551.9219,293.1641 Q552.0781,293.0859 552.2813,293.0859 Q552.6094,293.0859 552.8594,293.3516 Q553.125,293.6016 553.125,293.9453 Q553.125,294.2891 552.7813,294.6953 Q552.2813,295.2734 551.4844,295.6016 Q550.4063,296.0547 549.1094,296.0547 Q547.5938,296.0547 546.3906,295.4297 Q545.4063,294.9297 544.7188,293.8672 Q544.0313,292.7891 544.0313,291.5078 L544.0313,290.3516 Q544.0313,289.0234 544.6406,287.8828 Q545.2656,286.7266 546.3594,286.1172 Q547.4531,285.4922 548.6875,285.4922 Q549.4219,285.4922 550.0625,285.6641 Q550.7188,285.8203 551.2656,286.1797 Z " fill="#000000"/><text fill="#000000" font-family="sans-serif" font-size="12" font-style="italic" lengthAdjust="spacing" textLength="82.0547" x="572.0552" y="285.9629">&#171;Value Object&#187;</text><text fill="#000000" font-family="sans-serif" font-size="14" lengthAdjust="spacing" textLength="101.165" x="562.5" y="304.082">IDShowRequest</text><line style="stroke:#181818;stroke-width:0.5;" x1="534.5" x2="665.665" y1="312.5957" y2="312.5957"/><line style="stroke:#181818;stroke-width:0.5;" x1="534.5" x2="665.665" y1="320.5957" y2="320.5957"/></g><!--class Figure--><g id="elem_Figure"><rect codeLine="28" fill="#F1F1F1" height="76.543" id="Figure" rx="2.5" ry="2.5" style="stroke:#181818;stroke-width:0.5;" width="71.6826" x="723" y="260.0137"/><ellipse cx="738" cy="290.2852" fill="#ADD1B2" rx="11" ry="11" style="stroke:#181818;stroke-width:1.0;"/><path d="M740.7656,286.1602 Q740.9219,285.9414 741.1094,285.832 Q741.2969,285.7227 741.5156,285.7227 Q741.8906,285.7227 742.125,285.9883 Q742.3594,286.2383 742.3594,286.8477 L742.3594,288.3008 Q742.3594,288.9102 742.125,289.1758 Q741.8906,289.4414 741.5156,289.4414 Q741.1719,289.4414 740.9688,289.2383 Q740.7656,289.0508 740.6563,288.5352 Q740.6094,288.1758 740.4219,287.9883 Q740.0938,287.6133 739.4844,287.3945 Q738.875,287.1758 738.25,287.1758 Q737.4844,287.1758 736.8438,287.5039 Q736.2188,287.832 735.7188,288.582 Q735.2344,289.332 735.2344,290.3633 L735.2344,291.457 Q735.2344,292.6914 736.125,293.5195 Q737.0156,294.332 738.6094,294.332 Q739.5469,294.332 740.2031,294.082 Q740.5938,293.9258 741.0156,293.4883 Q741.2813,293.2227 741.4219,293.1445 Q741.5781,293.0664 741.7813,293.0664 Q742.1094,293.0664 742.3594,293.332 Q742.625,293.582 742.625,293.9258 Q742.625,294.2695 742.2813,294.6758 Q741.7813,295.2539 740.9844,295.582 Q739.9063,296.0352 738.6094,296.0352 Q737.0938,296.0352 735.8906,295.4102 Q734.9063,294.9102 734.2188,293.8477 Q733.5313,292.7695 733.5313,291.4883 L733.5313,290.332 Q733.5313,289.0039 734.1406,287.8633 Q734.7656,286.707 735.8594,286.0977 Q736.9531,285.4727 738.1875,285.4727 Q738.9219,285.4727 739.5625,285.6445 Q740.2188,285.8008 740.7656,286.1602 Z " fill="#000000"/><text fill="#000000" font-family="sans-serif" font-size="12" font-style="italic" lengthAdjust="spacing" textLength="43.3594" x="750.1616" y="277.9629">&#171;Entity&#187;</text><text fill="#000000" font-family="sans-serif" font-size="12" font-style="italic" lengthAdjust="spacing" textLength="34.0254" x="754.8286" y="293.9238">&#171;root&#187;</text><text fill="#000000" font-family="sans-serif" font-size="14" lengthAdjust="spacing" textLength="39.6826" x="752" y="312.043">Figure</text><line style="stroke:#181818;stroke-width:0.5;" x1="724" x2="793.6826" y1="320.5566" y2="320.5566"/><line style="stroke:#181818;stroke-width:0.5;" x1="724" x2="793.6826" y1="328.5566" y2="328.5566"/></g><!--class Customer--><g id="elem_Customer"><rect codeLine="36" fill="#F1F1F1" height="76.543" id="Customer" rx="2.5" ry="2.5" style="stroke:#181818;stroke-width:0.5;" width="92.6826" x="851.5" y="260.0137"/><ellipse cx="866.5" cy="290.2852" fill="#ADD1B2" rx="11" ry="11" style="stroke:#181818;stroke-width:1.0;"/><path d="M869.2656,286.1602 Q869.4219,285.9414 869.6094,285.832 Q869.7969,285.7227 870.0156,285.7227 Q870.3906,285.7227 870.625,285.9883 Q870.8594,286.2383 870.8594,286.8477 L870.8594,288.3008 Q870.8594,288.9102 870.625,289.1758 Q870.3906,289.4414 870.0156,289.4414 Q869.6719,289.4414 869.4688,289.2383 Q869.2656,289.0508 869.1563,288.5352 Q869.1094,288.1758 868.9219,287.9883 Q868.5938,287.6133 867.9844,287.3945 Q867.375,287.1758 866.75,287.1758 Q865.9844,287.1758 865.3438,287.5039 Q864.7188,287.832 864.2188,288.582 Q863.7344,289.332 863.7344,290.3633 L863.7344,291.457 Q863.7344,292.6914 864.625,293.5195 Q865.5156,294.332 867.1094,294.332 Q868.0469,294.332 868.7031,294.082 Q869.0938,293.9258 869.5156,293.4883 Q869.7813,293.2227 869.9219,293.1445 Q870.0781,293.0664 870.2813,293.0664 Q870.6094,293.0664 870.8594,293.332 Q871.125,293.582 871.125,293.9258 Q871.125,294.2695 870.7813,294.6758 Q870.2813,295.2539 869.4844,295.582 Q868.4063,296.0352 867.1094,296.0352 Q865.5938,296.0352 864.3906,295.4102 Q863.4063,294.9102 862.7188,293.8477 Q862.0313,292.7695 862.0313,291.4883 L862.0313,290.332 Q862.0313,289.0039 862.6406,287.8633 Q863.2656,286.707 864.3594,286.0977 Q865.4531,285.4727 866.6875,285.4727 Q867.4219,285.4727 868.0625,285.6445 Q868.7188,285.8008 869.2656,286.1602 Z " fill="#000000"/><text fill="#000000" font-family="sans-serif" font-size="12" font-style="italic" lengthAdjust="spacing" textLength="43.3594" x="889.1616" y="277.9629">&#171;Entity&#187;</text><text fill="#000000" font-family="sans-serif" font-size="12" font-style="italic" lengthAdjust="spacing" textLength="34.0254" x="893.8286" y="293.9238">&#171;root&#187;</text><text fill="#000000" font-family="sans-serif" font-size="14" lengthAdjust="spacing" textLength="60.6826" x="880.5" y="312.043">Customer</text><line style="stroke:#181818;stroke-width:0.5;" x1="852.5" x2="943.1826" y1="320.5566" y2="320.5566"/><line style="stroke:#181818;stroke-width:0.5;" x1="852.5" x2="943.1826" y1="328.5566" y2="328.5566"/></g><!--class CRMCollaborator--><g id="elem_CRMCollaborator"><rect codeLine="46" fill="#F1F1F1" height="76.543" id="CRMCollaborator" rx="2.5" ry="2.5" style="stroke:#181818;stroke-width:0.5;" width="140.1445" x="1001" y="260.0137"/><ellipse cx="1016" cy="290.2852" fill="#ADD1B2" rx="11" ry="11" style="stroke:#181818;stroke-width:1.0;"/><path d="M1018.7656,286.1602 Q1018.9219,285.9414 1019.1094,285.832 Q1019.2969,285.7227 1019.5156,285.7227 Q1019.8906,285.7227 1020.125,285.9883 Q1020.3594,286.2383 1020.3594,286.8477 L1020.3594,288.3008 Q1020.3594,288.9102 1020.125,289.1758 Q1019.8906,289.4414 1019.5156,289.4414 Q1019.1719,289.4414 1018.9688,289.2383 Q1018.7656,289.0508 1018.6563,288.5352 Q1018.6094,288.1758 1018.4219,287.9883 Q1018.0938,287.6133 1017.4844,287.3945 Q1016.875,287.1758 1016.25,287.1758 Q1015.4844,287.1758 1014.8438,287.5039 Q1014.2188,287.832 1013.7188,288.582 Q1013.2344,289.332 1013.2344,290.3633 L1013.2344,291.457 Q1013.2344,292.6914 1014.125,293.5195 Q1015.0156,294.332 1016.6094,294.332 Q1017.5469,294.332 1018.2031,294.082 Q1018.5938,293.9258 1019.0156,293.4883 Q1019.2813,293.2227 1019.4219,293.1445 Q1019.5781,293.0664 1019.7813,293.0664 Q1020.1094,293.0664 1020.3594,293.332 Q1020.625,293.582 1020.625,293.9258 Q1020.625,294.2695 1020.2813,294.6758 Q1019.7813,295.2539 1018.9844,295.582 Q1017.9063,296.0352 1016.6094,296.0352 Q1015.0938,296.0352 1013.8906,295.4102 Q1012.9063,294.9102 1012.2188,293.8477 Q1011.5313,292.7695 1011.5313,291.4883 L1011.5313,290.332 Q1011.5313,289.0039 1012.1406,287.8633 Q1012.7656,286.707 1013.8594,286.0977 Q1014.9531,285.4727 1016.1875,285.4727 Q1016.9219,285.4727 1017.5625,285.6445 Q1018.2188,285.8008 1018.7656,286.1602 Z " fill="#000000"/><text fill="#000000" font-family="sans-serif" font-size="12" font-style="italic" lengthAdjust="spacing" textLength="43.3594" x="1062.3926" y="277.9629">&#171;Entity&#187;</text><text fill="#000000" font-family="sans-serif" font-size="12" font-style="italic" lengthAdjust="spacing" textLength="34.0254" x="1067.0596" y="293.9238">&#171;root&#187;</text><text fill="#000000" font-family="sans-serif" font-size="14" lengthAdjust="spacing" textLength="108.1445" x="1030" y="312.043">CRMCollaborator</text><line style="stroke:#181818;stroke-width:0.5;" x1="1002" x2="1140.1445" y1="320.5566" y2="320.5566"/><line style="stroke:#181818;stroke-width:0.5;" x1="1002" x2="1140.1445" y1="328.5566" y2="328.5566"/></g><!--link ShowRequest to ShowDescription--><g id="link_ShowRequest_ShowDescription"><path codeLine="20" d="M557.35,139.2937 C547.4,148.6937 537.07,158.9637 528,169.0137 C499.04,201.0737 472.9294,236.1685 453.9494,262.9485 " fill="none" id="ShowRequest-to-ShowDescription" style="stroke:#181818;stroke-width:1.0;"/><polygon fill="#181818" points="450.48,267.8437,458.9476,262.8138,453.3712,263.7643,452.4207,258.1879,450.48,267.8437" style="stroke:#181818;stroke-width:1.0;"/><text fill="#000000" font-family="sans-serif" font-size="13" lengthAdjust="spacing" textLength="62.8672" x="529" y="184.042">description</text><text fill="#000000" font-family="sans-serif" font-size="13" lengthAdjust="spacing" textLength="7.23" x="447.0009" y="256.8663">1</text></g><!--link ShowRequest to Location--><g id="link_ShowRequest_Location"><path codeLine="21" d="M540.21,100.7537 C448.8,102.3437 272.09,116.5237 150,196.0137 C123.08,213.5437 105.6915,239.4179 93.4415,262.6179 " fill="none" id="ShowRequest-to-Location" style="stroke:#181818;stroke-width:1.0;"/><polygon fill="#181818" points="90.64,267.9237,98.3795,261.8327,92.9746,263.5022,91.3051,258.0973,90.64,267.9237" style="stroke:#181818;stroke-width:1.0;"/><text fill="#000000" font-family="sans-serif" font-size="13" lengthAdjust="spacing" textLength="31.0781" x="194" y="184.042">place</text><text fill="#000000" font-family="sans-serif" font-size="13" lengthAdjust="spacing" textLength="7.23" x="85.7495" y="256.9628">1</text></g><!--link ShowRequest to ShowRequestStatus--><g id="link_ShowRequest_ShowRequestStatus"><path codeLine="22" d="M540.3,115.2837 C486.03,129.6637 405.29,155.7837 344,196.0137 C314.45,215.4037 291.0262,240.723 272.9962,263.083 " fill="none" id="ShowRequest-to-ShowRequestStatus" style="stroke:#181818;stroke-width:1.0;"/><polygon fill="#181818" points="269.23,267.7537,277.9931,263.2584,272.3685,263.8614,271.7655,258.2368,269.23,267.7537" style="stroke:#181818;stroke-width:1.0;"/><text fill="#000000" font-family="sans-serif" font-size="13" lengthAdjust="spacing" textLength="80.2153" x="391" y="184.042">requestStatus</text><text fill="#000000" font-family="sans-serif" font-size="13" lengthAdjust="spacing" textLength="7.23" x="266.1318" y="256.7577">1</text></g><!--link ShowRequest to IDShowRequest--><g id="link_ShowRequest_IDShowRequest"><path codeLine="23" d="M600,139.3037 C600,176.7937 600,227.4737 600,261.8337 " fill="none" id="ShowRequest-to-IDShowRequest" style="stroke:#181818;stroke-width:1.0;"/><polygon fill="#181818" points="600,267.8337,604,258.8337,600,262.8337,596,258.8337,600,267.8337" style="stroke:#181818;stroke-width:1.0;"/><text fill="#000000" font-family="sans-serif" font-size="13" lengthAdjust="spacing" textLength="10.1182" x="601" y="184.042">id</text><text fill="#000000" font-family="sans-serif" font-size="13" lengthAdjust="spacing" textLength="7.23" x="592.2848" y="256.8542">1</text></g><!--link ShowRequest to Figure--><g id="link_ShowRequest_Figure"><path codeLine="32" d="M634.21,139.0937 C649.46,156.1937 667.45,176.8537 683,196.0137 C699.78,216.6937 714.1298,235.6668 728.3398,255.0268 " fill="none" id="ShowRequest-to-Figure" style="stroke:#181818;stroke-width:1.0;"/><polygon fill="#181818" points="731.89,259.8637,729.7893,250.2415,728.9315,255.8329,723.34,254.9751,731.89,259.8637" style="stroke:#181818;stroke-width:1.0;"/><text fill="#000000" font-family="sans-serif" font-size="13" lengthAdjust="spacing" textLength="77.3208" x="675" y="184.042">requests new</text><text fill="#000000" font-family="sans-serif" font-size="13" lengthAdjust="spacing" textLength="19.5127" x="706.669" y="248.8524">0..*</text></g><!--link ShowRequest to Customer--><g id="link_ShowRequest_Customer"><path codeLine="40" d="M659.52,118.9537 C704.45,134.1937 765.85,159.6037 811,196.0137 C833.76,214.3737 851.5161,234.5 867.4161,255.03 " fill="none" id="ShowRequest-to-Customer" style="stroke:#181818;stroke-width:1.0;"/><polygon fill="#181818" points="871.09,259.7737,868.7416,250.2089,868.0284,255.8206,862.4167,255.1074,871.09,259.7737" style="stroke:#181818;stroke-width:1.0;"/><text fill="#000000" font-family="sans-serif" font-size="13" lengthAdjust="spacing" textLength="75.1626" x="797" y="184.042">requested by</text><text fill="#000000" font-family="sans-serif" font-size="13" lengthAdjust="spacing" textLength="7.23" x="858.9103" y="248.7469">1</text></g><!--link ShowRequest to CRMCollaborator--><g id="link_ShowRequest_CRMCollaborator"><path codeLine="50" d="M659.81,106.9637 C734.77,115.9837 865.02,139.0837 961,196.0137 C989.83,213.1137 1013.3838,234.4263 1033.7738,255.6563 " fill="none" id="ShowRequest-to-CRMCollaborator" style="stroke:#181818;stroke-width:1.0;"/><polygon fill="#181818" points="1037.93,259.9837,1034.5807,250.7218,1034.4665,256.3775,1028.8108,256.2634,1037.93,259.9837" style="stroke:#181818;stroke-width:1.0;"/><text fill="#000000" font-family="sans-serif" font-size="13" lengthAdjust="spacing" textLength="73.7026" x="944" y="184.042">submitted by</text><text fill="#000000" font-family="sans-serif" font-size="13" lengthAdjust="spacing" textLength="7.23" x="1024.4236" y="248.7014">1</text></g><!--SRC=[hP5FIyD04CNl-HH3Be9WqMi8kRGAGaLemVjaCyIjIJRTdQKMyRkxiSsVZMtgeJbbX_VU_kPjZU83Su9m_QvsAzfQCWmXn37ckQOScPBaAmZ0VQ90Os2f1B9KbPEyOM49NjCD2MvKZUZxeANAbZ28N3EoDTEUGtvZMf0HMjQNh-ajBNeSFrOiUPyaxbShTThnl1Xu9c-u6ORV9V3vE_M6RXe-X7_08yZwqrbNMsS4TO629jEzBYFGm-CvexTf138Bt69r- -XFChUQnkyDteCVDPUA_MTHzxFPRTXcTZiOg6ZdaSsjOLMIFi7MetMYAy6vdjl83eqoIFU1pxPwcQkYm5HfPAMdwnkBhuWwIex0sBIKV4HsUJy0]--></g></svg>