<?xml version="1.0" encoding="UTF-8" standalone="no"?><svg xmlns="http://www.w3.org/2000/svg" xmlns:xlink="http://www.w3.org/1999/xlink" contentStyleType="text/css" height="362px" preserveAspectRatio="none" style="width:233px;height:362px;background:#FFFFFF;" version="1.1" viewBox="0 0 233 362" width="233px" zoomAndPan="magnify"><defs/><g><!--cluster Category --><g id="cluster_Category "><path d="M8.5,6.8945 L101.5,6.8945 A3.75,3.75 0 0 1 104,9.3945 L111,38.0508 L207.5,38.0508 A2.5,2.5 0 0 1 210,40.5508 L210,353.3945 A2.5,2.5 0 0 1 207.5,355.8945 L8.5,355.8945 A2.5,2.5 0 0 1 6,353.3945 L6,9.3945 A2.5,2.5 0 0 1 8.5,6.8945 " fill="none" style="stroke:#000000;stroke-width:1.5;"/><line style="stroke:#000000;stroke-width:1.5;" x1="6" x2="111" y1="38.0508" y2="38.0508"/><text fill="#000000" font-family="sans-serif" font-size="20" font-weight="bold" lengthAdjust="spacing" textLength="86" x="10" y="29.6563">Category</text><text fill="#000000" font-family="sans-serif" font-size="20" font-style="italic" lengthAdjust="spacing" textLength="111" x="56.5" y="60.8125">«aggregate»</text></g><!--class Category--><g id="elem_Category"><rect codeLine="4" fill="#F1F1F1" height="101.4688" id="Category" rx="2.5" ry="2.5" style="stroke:#181818;stroke-width:0.5;" width="115" x="22.5" y="75.8945"/><ellipse cx="38.5" cy="118.6289" fill="#ADD1B2" rx="12" ry="12" style="stroke:#181818;stroke-width:1.0;"/><path d="M40.6406,113.5508 Q40.8281,113.3008 41.0469,113.1758 Q41.2656,113.0352 41.5156,113.0352 Q41.9531,113.0352 42.2344,113.3477 Q42.5156,113.6445 42.5156,114.3633 L42.5156,116.0664 Q42.5156,116.7852 42.2344,117.0977 Q41.9531,117.4102 41.5156,117.4102 Q41.125,117.4102 40.875,117.1758 Q40.625,116.957 40.5156,116.3477 Q40.4531,115.9258 40.2344,115.707 Q39.8438,115.2695 39.125,115.0039 Q38.4063,114.7383 37.6875,114.7383 Q36.7813,114.7383 36.0313,115.1289 Q35.2813,115.5195 34.7031,116.4102 Q34.125,117.2852 34.125,118.4883 L34.125,119.7852 Q34.125,121.2383 35.1719,122.207 Q36.2344,123.1758 38.0938,123.1758 Q39.2031,123.1758 39.9844,122.8633 Q40.4219,122.6914 40.9375,122.1758 Q41.25,121.8633 41.4219,121.7695 Q41.5938,121.6758 41.8281,121.6758 Q42.2188,121.6758 42.5156,121.9883 Q42.8281,122.2852 42.8281,122.6914 Q42.8281,123.0977 42.4219,123.5664 Q41.8281,124.2539 40.8906,124.6445 Q39.625,125.1758 38.1094,125.1758 Q36.3281,125.1758 34.9063,124.4414 Q33.75,123.8477 32.9375,122.582 Q32.125,121.3164 32.125,119.832 L32.125,118.4727 Q32.125,116.9102 32.8438,115.5664 Q33.5781,114.207 34.8594,113.4727 Q36.1563,112.7383 37.6094,112.7383 Q38.4688,112.7383 39.2188,112.9414 Q39.9844,113.1445 40.6406,113.5508 Z " fill="#000000"/><text fill="#000000" font-family="sans-serif" font-size="20" font-style="italic" lengthAdjust="spacing" textLength="71" x="58.5" y="101.6563">«Entity»</text><text fill="#000000" font-family="sans-serif" font-size="20" font-style="italic" lengthAdjust="spacing" textLength="56" x="66" y="126.8125">«root»</text><text fill="#000000" font-family="sans-serif" font-size="20" lengthAdjust="spacing" textLength="81" x="53.5" y="151.9688">Category</text><line style="stroke:#181818;stroke-width:0.5;" x1="23.5" x2="136.5" y1="161.3633" y2="161.3633"/><line style="stroke:#181818;stroke-width:0.5;" x1="23.5" x2="136.5" y1="169.3633" y2="169.3633"/></g><!--class CategoryStatus--><g id="elem_CategoryStatus"><rect codeLine="7" fill="#F1F1F1" height="76.3125" id="CategoryStatus" rx="2.5" ry="2.5" style="stroke:#181818;stroke-width:0.5;" width="171" x="22.5" y="263.8945"/><ellipse cx="38.5" cy="294.0508" fill="#EB937F" rx="12" ry="12" style="stroke:#181818;stroke-width:1.0;"/><path d="M36.4531,295.1133 L36.4531,298.0508 L41.5469,298.0508 L41.5469,296.957 Q41.5469,296.2383 41.8281,295.9414 Q42.1094,295.6289 42.5625,295.6289 Q43,295.6289 43.2813,295.9414 Q43.5625,296.2383 43.5625,296.957 L43.5625,300.0508 L34.125,300.0508 Q33.4063,300.0508 33.0938,299.7695 Q32.7969,299.4883 32.7969,299.0508 Q32.7969,298.5977 33.1094,298.332 Q33.4219,298.0508 34.125,298.0508 L34.4375,298.0508 L34.4375,290.2227 L34.125,290.2227 Q33.4063,290.2227 33.0938,289.9414 Q32.7969,289.6602 32.7969,289.207 Q32.7969,288.7539 33.0938,288.4883 Q33.4063,288.207 34.125,288.207 L43.1094,288.207 L43.1094,291.2539 Q43.1094,291.9727 42.8281,292.2852 Q42.5625,292.582 42.125,292.582 Q41.6719,292.582 41.3906,292.2852 Q41.1094,291.9883 41.1094,291.2539 L41.1094,290.2227 L36.4531,290.2227 L36.4531,293.1133 L38.2031,293.1133 Q38.2031,292.332 38.3438,292.0977 Q38.6563,291.6289 39.2031,291.6289 Q39.6563,291.6289 39.9219,291.9414 Q40.2031,292.2383 40.2031,292.957 L40.2031,295.2695 Q40.2031,295.9258 40.0469,296.1445 Q39.7344,296.5977 39.2031,296.5977 Q38.6563,296.5977 38.3438,296.1289 Q38.2031,295.8945 38.2031,295.1133 L36.4531,295.1133 Z " fill="#000000"/><text fill="#000000" font-family="sans-serif" font-size="20" font-style="italic" lengthAdjust="spacing" textLength="136" x="54" y="289.6563">«Value Object»</text><text fill="#000000" font-family="sans-serif" font-size="20" lengthAdjust="spacing" textLength="137" x="53.5" y="314.8125">CategoryStatus</text><line style="stroke:#181818;stroke-width:0.5;" x1="23.5" x2="192.5" y1="324.207" y2="324.207"/><line style="stroke:#181818;stroke-width:0.5;" x1="23.5" x2="192.5" y1="332.207" y2="332.207"/></g><!--link Category to CategoryStatus--><g id="link_Category_CategoryStatus"><path codeLine="11" d="M83.61,176.9145 C85.31,194.9345 87.72,215.4145 91,233.8945 C92.44,242.0145 94.33,250.6045 96.33,258.8245 " fill="none" id="Category-to-CategoryStatus" style="stroke:#181818;stroke-width:1.0;"/><polygon fill="#181818" points="97.59,263.8945,99.281,254.1919,96.374,259.0447,91.5212,256.1376,97.59,263.8945" style="stroke:#181818;stroke-width:1.0;"/><text fill="#000000" font-family="sans-serif" font-size="20" lengthAdjust="spacing" textLength="133" x="92" y="228.6563">categoryStatus</text><text fill="#000000" font-family="sans-serif" font-size="20" lengthAdjust="spacing" textLength="11" x="84.0543" y="251.5954">1</text></g><!--SRC=[NOmn2y8m48Nt_8eZYvEWZXAoYAuEXUvdUeRQD2d91QpYVpTLgDWttVluxgMkzGD6x5qm7JNGq1MpurFmNBKFWjr6Y05DXvP07f39XZY21ANGsaYs4AsVGa29SPWIp99IHyyjZrgNCuR0apXvhwzEFlUpNJ5oJaMiqMM2y-L6PlcmcgVN6kuVz2C5oQrSxEt1_7Nn1W00]--></g></svg>