<?xml version="1.0" encoding="UTF-8" standalone="no"?><svg xmlns="http://www.w3.org/2000/svg" xmlns:xlink="http://www.w3.org/1999/xlink" contentStyleType="text/css" height="1691px" preserveAspectRatio="none" style="width:2615px;height:1691px;background:#FFFFFF;" version="1.1" viewBox="0 0 2615 1691" width="2615px" zoomAndPan="magnify"><defs/><g><!--cluster Domain--><g id="cluster_Domain"><path d="M135.71,421.8945 L207.71,421.8945 A3.75,3.75 0 0 1 210.21,424.3945 L217.21,453.0508 L1621.71,453.0508 A2.5,2.5 0 0 1 1624.21,455.5508 L1624.21,1682.3945 A2.5,2.5 0 0 1 1621.71,1684.8945 L135.71,1684.8945 A2.5,2.5 0 0 1 133.21,1682.3945 L133.21,424.3945 A2.5,2.5 0 0 1 135.71,421.8945 " fill="#DDDDDD" style="stroke:#000000;stroke-width:1.5;"/><line style="stroke:#000000;stroke-width:1.5;" x1="133.21" x2="217.21" y1="453.0508" y2="453.0508"/><text fill="#000000" font-family="sans-serif" font-size="20" font-weight="bold" lengthAdjust="spacing" textLength="71" x="137.21" y="444.6563">Domain</text></g><!--cluster DTO--><g id="cluster_DTO"><path d="M485.71,524.3945 L529.71,524.3945 A3.75,3.75 0 0 1 532.21,526.8945 L539.21,555.5508 L674.71,555.5508 A2.5,2.5 0 0 1 677.21,558.0508 L677.21,657.8945 A2.5,2.5 0 0 1 674.71,660.3945 L485.71,660.3945 A2.5,2.5 0 0 1 483.21,657.8945 L483.21,526.8945 A2.5,2.5 0 0 1 485.71,524.3945 " fill="#DDDDDD" style="stroke:#000000;stroke-width:1.5;"/><line style="stroke:#000000;stroke-width:1.5;" x1="483.21" x2="539.21" y1="555.5508" y2="555.5508"/><text fill="#000000" font-family="sans-serif" font-size="20" font-weight="bold" lengthAdjust="spacing" textLength="43" x="487.21" y="547.1563">DTO</text></g><!--cluster Mapper--><g id="cluster_Mapper"><path d="M159.71,767.8945 L231.71,767.8945 A3.75,3.75 0 0 1 234.21,770.3945 L241.21,799.0508 L674.71,799.0508 A2.5,2.5 0 0 1 677.21,801.5508 L677.21,952.3945 A2.5,2.5 0 0 1 674.71,954.8945 L159.71,954.8945 A2.5,2.5 0 0 1 157.21,952.3945 L157.21,770.3945 A2.5,2.5 0 0 1 159.71,767.8945 " fill="#DDDDDD" style="stroke:#000000;stroke-width:1.5;"/><line style="stroke:#000000;stroke-width:1.5;" x1="157.21" x2="241.21" y1="799.0508" y2="799.0508"/><text fill="#000000" font-family="sans-serif" font-size="20" font-weight="bold" lengthAdjust="spacing" textLength="71" x="161.21" y="790.6563">Mapper</text></g><!--cluster Repository--><g id="cluster_Repository"><path d="M703.71,473.8945 L807.71,473.8945 A3.75,3.75 0 0 1 810.21,476.3945 L817.21,505.0508 L1597.71,505.0508 A2.5,2.5 0 0 1 1600.21,507.5508 L1600.21,939.3945 A2.5,2.5 0 0 1 1597.71,941.8945 L703.71,941.8945 A2.5,2.5 0 0 1 701.21,939.3945 L701.21,476.3945 A2.5,2.5 0 0 1 703.71,473.8945 " fill="#DDDDDD" style="stroke:#000000;stroke-width:1.5;"/><line style="stroke:#000000;stroke-width:1.5;" x1="701.21" x2="817.21" y1="505.0508" y2="505.0508"/><text fill="#000000" font-family="sans-serif" font-size="20" font-weight="bold" lengthAdjust="spacing" textLength="103" x="705.21" y="496.6563">Repository</text></g><!--cluster UI--><g id="cluster_UI"><path d="M568.71,6.8945 L588.71,6.8945 A3.75,3.75 0 0 1 591.21,9.3945 L598.21,38.0508 L901.71,38.0508 A2.5,2.5 0 0 1 904.21,40.5508 L904.21,140.3945 A2.5,2.5 0 0 1 901.71,142.8945 L568.71,142.8945 A2.5,2.5 0 0 1 566.21,140.3945 L566.21,9.3945 A2.5,2.5 0 0 1 568.71,6.8945 " fill="#DDDDDD" style="stroke:#000000;stroke-width:1.5;"/><line style="stroke:#000000;stroke-width:1.5;" x1="566.21" x2="598.21" y1="38.0508" y2="38.0508"/><text fill="#000000" font-family="sans-serif" font-size="20" font-weight="bold" lengthAdjust="spacing" textLength="19" x="570.21" y="29.6563">UI</text></g><!--cluster Controller--><g id="cluster_Controller"><path d="M419.71,175.8945 L514.71,175.8945 A3.75,3.75 0 0 1 517.21,178.3945 L524.21,207.0508 L1050.71,207.0508 A2.5,2.5 0 0 1 1053.21,209.5508 L1053.21,360.3945 A2.5,2.5 0 0 1 1050.71,362.8945 L419.71,362.8945 A2.5,2.5 0 0 1 417.21,360.3945 L417.21,178.3945 A2.5,2.5 0 0 1 419.71,175.8945 " fill="#DDDDDD" style="stroke:#000000;stroke-width:1.5;"/><line style="stroke:#000000;stroke-width:1.5;" x1="417.21" x2="524.21" y1="207.0508" y2="207.0508"/><text fill="#000000" font-family="sans-serif" font-size="20" font-weight="bold" lengthAdjust="spacing" textLength="94" x="421.21" y="198.6563">Controller</text></g><!--cluster repositories.impl.jpa--><g id="cluster_repositories.impl.jpa"><path d="M1844.71,524.3945 L2037.71,524.3945 A3.75,3.75 0 0 1 2040.21,526.8945 L2047.21,555.5508 L2605.71,555.5508 A2.5,2.5 0 0 1 2608.21,558.0508 L2608.21,657.8945 A2.5,2.5 0 0 1 2605.71,660.3945 L1844.71,660.3945 A2.5,2.5 0 0 1 1842.21,657.8945 L1842.21,526.8945 A2.5,2.5 0 0 1 1844.71,524.3945 " fill="#DDDDDD" style="stroke:#000000;stroke-width:1.5;"/><line style="stroke:#000000;stroke-width:1.5;" x1="1842.21" x2="2047.21" y1="555.5508" y2="555.5508"/><text fill="#000000" font-family="sans-serif" font-size="20" font-weight="bold" lengthAdjust="spacing" textLength="192" x="1846.21" y="547.1563">repositories.impl.jpa</text></g><!--class Customer--><g id="elem_Customer"><rect codeLine="33" fill="#F1F1F1" height="126.625" id="Customer" rx="2.5" ry="2.5" style="stroke:#181818;stroke-width:0.5;" width="416" x="494.21" y="1027.8945"/><ellipse cx="655.21" cy="1058.0508" fill="#ADD1B2" rx="12" ry="12" style="stroke:#181818;stroke-width:1.0;"/><path d="M657.3506,1052.9727 Q657.5381,1052.7227 657.7569,1052.5977 Q657.9756,1052.457 658.2256,1052.457 Q658.6631,1052.457 658.9444,1052.7695 Q659.2256,1053.0664 659.2256,1053.7852 L659.2256,1055.4883 Q659.2256,1056.207 658.9444,1056.5195 Q658.6631,1056.832 658.2256,1056.832 Q657.835,1056.832 657.585,1056.5977 Q657.335,1056.3789 657.2256,1055.7695 Q657.1631,1055.3477 656.9444,1055.1289 Q656.5538,1054.6914 655.835,1054.4258 Q655.1163,1054.1602 654.3975,1054.1602 Q653.4913,1054.1602 652.7413,1054.5508 Q651.9913,1054.9414 651.4131,1055.832 Q650.835,1056.707 650.835,1057.9102 L650.835,1059.207 Q650.835,1060.6602 651.8819,1061.6289 Q652.9444,1062.5977 654.8038,1062.5977 Q655.9131,1062.5977 656.6944,1062.2852 Q657.1319,1062.1133 657.6475,1061.5977 Q657.96,1061.2852 658.1319,1061.1914 Q658.3038,1061.0977 658.5381,1061.0977 Q658.9288,1061.0977 659.2256,1061.4102 Q659.5381,1061.707 659.5381,1062.1133 Q659.5381,1062.5195 659.1319,1062.9883 Q658.5381,1063.6758 657.6006,1064.0664 Q656.335,1064.5977 654.8194,1064.5977 Q653.0381,1064.5977 651.6163,1063.8633 Q650.46,1063.2695 649.6475,1062.0039 Q648.835,1060.7383 648.835,1059.2539 L648.835,1057.8945 Q648.835,1056.332 649.5538,1054.9883 Q650.2881,1053.6289 651.5694,1052.8945 Q652.8663,1052.1602 654.3194,1052.1602 Q655.1788,1052.1602 655.9288,1052.3633 Q656.6944,1052.5664 657.3506,1052.9727 Z " fill="#000000"/><text fill="#000000" font-family="sans-serif" font-size="20" font-style="italic" lengthAdjust="spacing" textLength="71" x="684.21" y="1053.6563">«Entity»</text><text fill="#000000" font-family="sans-serif" font-size="20" lengthAdjust="spacing" textLength="85" x="677.21" y="1078.8125">Customer</text><line style="stroke:#181818;stroke-width:0.5;" x1="495.21" x2="909.21" y1="1088.207" y2="1088.207"/><line style="stroke:#181818;stroke-width:0.5;" x1="495.21" x2="909.21" y1="1096.207" y2="1096.207"/><ellipse cx="505.21" cy="1114.2852" fill="#84BE84" rx="3" ry="3" style="stroke:#038048;stroke-width:1.0;"/><text fill="#000000" font-family="sans-serif" font-size="20" lengthAdjust="spacing" textLength="389" x="515.21" y="1120.9688">Customer (name, address, vat, status, type)</text><ellipse cx="505.21" cy="1139.4414" fill="#84BE84" rx="3" ry="3" style="stroke:#038048;stroke-width:1.0;"/><text fill="#000000" font-family="sans-serif" font-size="20" lengthAdjust="spacing" textLength="310" x="515.21" y="1146.125">addRepresentative (representative)</text></g><!--class CustomerRepresentative--><g id="elem_CustomerRepresentative"><rect codeLine="37" fill="#F1F1F1" height="126.625" id="CustomerRepresentative" rx="2.5" ry="2.5" style="stroke:#181818;stroke-width:0.5;" width="582" x="1026.21" y="1241.8945"/><ellipse cx="1204.21" cy="1272.0508" fill="#ADD1B2" rx="12" ry="12" style="stroke:#181818;stroke-width:1.0;"/><path d="M1206.3506,1266.9727 Q1206.5381,1266.7227 1206.7569,1266.5977 Q1206.9756,1266.457 1207.2256,1266.457 Q1207.6631,1266.457 1207.9444,1266.7695 Q1208.2256,1267.0664 1208.2256,1267.7852 L1208.2256,1269.4883 Q1208.2256,1270.207 1207.9444,1270.5195 Q1207.6631,1270.832 1207.2256,1270.832 Q1206.835,1270.832 1206.585,1270.5977 Q1206.335,1270.3789 1206.2256,1269.7695 Q1206.1631,1269.3477 1205.9444,1269.1289 Q1205.5538,1268.6914 1204.835,1268.4258 Q1204.1163,1268.1602 1203.3975,1268.1602 Q1202.4913,1268.1602 1201.7413,1268.5508 Q1200.9913,1268.9414 1200.4131,1269.832 Q1199.835,1270.707 1199.835,1271.9102 L1199.835,1273.207 Q1199.835,1274.6602 1200.8819,1275.6289 Q1201.9444,1276.5977 1203.8038,1276.5977 Q1204.9131,1276.5977 1205.6944,1276.2852 Q1206.1319,1276.1133 1206.6475,1275.5977 Q1206.96,1275.2852 1207.1319,1275.1914 Q1207.3038,1275.0977 1207.5381,1275.0977 Q1207.9288,1275.0977 1208.2256,1275.4102 Q1208.5381,1275.707 1208.5381,1276.1133 Q1208.5381,1276.5195 1208.1319,1276.9883 Q1207.5381,1277.6758 1206.6006,1278.0664 Q1205.335,1278.5977 1203.8194,1278.5977 Q1202.0381,1278.5977 1200.6163,1277.8633 Q1199.46,1277.2695 1198.6475,1276.0039 Q1197.835,1274.7383 1197.835,1273.2539 L1197.835,1271.8945 Q1197.835,1270.332 1198.5538,1268.9883 Q1199.2881,1267.6289 1200.5694,1266.8945 Q1201.8663,1266.1602 1203.3194,1266.1602 Q1204.1788,1266.1602 1204.9288,1266.3633 Q1205.6944,1266.5664 1206.3506,1266.9727 Z " fill="#000000"/><text fill="#000000" font-family="sans-serif" font-size="20" font-style="italic" lengthAdjust="spacing" textLength="71" x="1299.21" y="1267.6563">«Entity»</text><text fill="#000000" font-family="sans-serif" font-size="20" lengthAdjust="spacing" textLength="217" x="1226.21" y="1292.8125">CustomerRepresentative</text><line style="stroke:#181818;stroke-width:0.5;" x1="1027.21" x2="1607.21" y1="1302.207" y2="1302.207"/><line style="stroke:#181818;stroke-width:0.5;" x1="1027.21" x2="1607.21" y1="1310.207" y2="1310.207"/><ellipse cx="1037.21" cy="1328.2852" fill="#84BE84" rx="3" ry="3" style="stroke:#038048;stroke-width:1.0;"/><text fill="#000000" font-family="sans-serif" font-size="20" lengthAdjust="spacing" textLength="555" x="1047.21" y="1334.9688">CustomerRepresentative (name, position, email, phoneNumber)</text><ellipse cx="1037.21" cy="1353.4414" fill="#84BE84" rx="3" ry="3" style="stroke:#038048;stroke-width:1.0;"/><text fill="#000000" font-family="sans-serif" font-size="20" lengthAdjust="spacing" textLength="213" x="1047.21" y="1360.125">setCustomer (customer)</text></g><!--class Address--><g id="elem_Address"><rect codeLine="42" fill="#F1F1F1" height="76.3125" id="Address" rx="2.5" ry="2.5" style="stroke:#181818;stroke-width:0.5;" width="166" x="212.21" y="1267.3945"/><ellipse cx="228.21" cy="1297.5508" fill="#ADD1B2" rx="12" ry="12" style="stroke:#181818;stroke-width:1.0;"/><path d="M230.3506,1292.4727 Q230.5381,1292.2227 230.7569,1292.0977 Q230.9756,1291.957 231.2256,1291.957 Q231.6631,1291.957 231.9444,1292.2695 Q232.2256,1292.5664 232.2256,1293.2852 L232.2256,1294.9883 Q232.2256,1295.707 231.9444,1296.0195 Q231.6631,1296.332 231.2256,1296.332 Q230.835,1296.332 230.585,1296.0977 Q230.335,1295.8789 230.2256,1295.2695 Q230.1631,1294.8477 229.9444,1294.6289 Q229.5538,1294.1914 228.835,1293.9258 Q228.1163,1293.6602 227.3975,1293.6602 Q226.4913,1293.6602 225.7413,1294.0508 Q224.9913,1294.4414 224.4131,1295.332 Q223.835,1296.207 223.835,1297.4102 L223.835,1298.707 Q223.835,1300.1602 224.8819,1301.1289 Q225.9444,1302.0977 227.8038,1302.0977 Q228.9131,1302.0977 229.6944,1301.7852 Q230.1319,1301.6133 230.6475,1301.0977 Q230.96,1300.7852 231.1319,1300.6914 Q231.3038,1300.5977 231.5381,1300.5977 Q231.9288,1300.5977 232.2256,1300.9102 Q232.5381,1301.207 232.5381,1301.6133 Q232.5381,1302.0195 232.1319,1302.4883 Q231.5381,1303.1758 230.6006,1303.5664 Q229.335,1304.0977 227.8194,1304.0977 Q226.0381,1304.0977 224.6163,1303.3633 Q223.46,1302.7695 222.6475,1301.5039 Q221.835,1300.2383 221.835,1298.7539 L221.835,1297.3945 Q221.835,1295.832 222.5538,1294.4883 Q223.2881,1293.1289 224.5694,1292.3945 Q225.8663,1291.6602 227.3194,1291.6602 Q228.1788,1291.6602 228.9288,1291.8633 Q229.6944,1292.0664 230.3506,1292.4727 Z " fill="#000000"/><text fill="#000000" font-family="sans-serif" font-size="20" font-style="italic" lengthAdjust="spacing" textLength="136" x="241.21" y="1293.1563">«Value Object»</text><text fill="#000000" font-family="sans-serif" font-size="20" lengthAdjust="spacing" textLength="73" x="272.71" y="1318.3125">Address</text><line style="stroke:#181818;stroke-width:0.5;" x1="213.21" x2="377.21" y1="1327.707" y2="1327.707"/><line style="stroke:#181818;stroke-width:0.5;" x1="213.21" x2="377.21" y1="1335.707" y2="1335.707"/></g><!--class VatNumber--><g id="elem_VatNumber"><rect codeLine="45" fill="#F1F1F1" height="76.3125" id="VatNumber" rx="2.5" ry="2.5" style="stroke:#181818;stroke-width:0.5;" width="166" x="413.21" y="1267.3945"/><ellipse cx="429.21" cy="1297.5508" fill="#ADD1B2" rx="12" ry="12" style="stroke:#181818;stroke-width:1.0;"/><path d="M431.3506,1292.4727 Q431.5381,1292.2227 431.7569,1292.0977 Q431.9756,1291.957 432.2256,1291.957 Q432.6631,1291.957 432.9444,1292.2695 Q433.2256,1292.5664 433.2256,1293.2852 L433.2256,1294.9883 Q433.2256,1295.707 432.9444,1296.0195 Q432.6631,1296.332 432.2256,1296.332 Q431.835,1296.332 431.585,1296.0977 Q431.335,1295.8789 431.2256,1295.2695 Q431.1631,1294.8477 430.9444,1294.6289 Q430.5538,1294.1914 429.835,1293.9258 Q429.1163,1293.6602 428.3975,1293.6602 Q427.4913,1293.6602 426.7413,1294.0508 Q425.9913,1294.4414 425.4131,1295.332 Q424.835,1296.207 424.835,1297.4102 L424.835,1298.707 Q424.835,1300.1602 425.8819,1301.1289 Q426.9444,1302.0977 428.8038,1302.0977 Q429.9131,1302.0977 430.6944,1301.7852 Q431.1319,1301.6133 431.6475,1301.0977 Q431.96,1300.7852 432.1319,1300.6914 Q432.3038,1300.5977 432.5381,1300.5977 Q432.9288,1300.5977 433.2256,1300.9102 Q433.5381,1301.207 433.5381,1301.6133 Q433.5381,1302.0195 433.1319,1302.4883 Q432.5381,1303.1758 431.6006,1303.5664 Q430.335,1304.0977 428.8194,1304.0977 Q427.0381,1304.0977 425.6163,1303.3633 Q424.46,1302.7695 423.6475,1301.5039 Q422.835,1300.2383 422.835,1298.7539 L422.835,1297.3945 Q422.835,1295.832 423.5538,1294.4883 Q424.2881,1293.1289 425.5694,1292.3945 Q426.8663,1291.6602 428.3194,1291.6602 Q429.1788,1291.6602 429.9288,1291.8633 Q430.6944,1292.0664 431.3506,1292.4727 Z " fill="#000000"/><text fill="#000000" font-family="sans-serif" font-size="20" font-style="italic" lengthAdjust="spacing" textLength="136" x="442.21" y="1293.1563">«Value Object»</text><text fill="#000000" font-family="sans-serif" font-size="20" lengthAdjust="spacing" textLength="98" x="461.21" y="1318.3125">VatNumber</text><line style="stroke:#181818;stroke-width:0.5;" x1="414.21" x2="578.21" y1="1327.707" y2="1327.707"/><line style="stroke:#181818;stroke-width:0.5;" x1="414.21" x2="578.21" y1="1335.707" y2="1335.707"/></g><!--class CustomerStatus--><g id="elem_CustomerStatus"><rect codeLine="48" fill="#F1F1F1" height="76.3125" id="CustomerStatus" rx="2.5" ry="2.5" style="stroke:#181818;stroke-width:0.5;" width="175" x="614.71" y="1267.3945"/><ellipse cx="630.71" cy="1297.5508" fill="#EB937F" rx="12" ry="12" style="stroke:#181818;stroke-width:1.0;"/><path d="M628.6631,1298.6133 L628.6631,1301.5508 L633.7569,1301.5508 L633.7569,1300.457 Q633.7569,1299.7383 634.0381,1299.4414 Q634.3194,1299.1289 634.7725,1299.1289 Q635.21,1299.1289 635.4912,1299.4414 Q635.7725,1299.7383 635.7725,1300.457 L635.7725,1303.5508 L626.335,1303.5508 Q625.6162,1303.5508 625.3037,1303.2695 Q625.0069,1302.9883 625.0069,1302.5508 Q625.0069,1302.0977 625.3194,1301.832 Q625.6319,1301.5508 626.335,1301.5508 L626.6475,1301.5508 L626.6475,1293.7227 L626.335,1293.7227 Q625.6162,1293.7227 625.3037,1293.4414 Q625.0069,1293.1602 625.0069,1292.707 Q625.0069,1292.2539 625.3037,1291.9883 Q625.6162,1291.707 626.335,1291.707 L635.3194,1291.707 L635.3194,1294.7539 Q635.3194,1295.4727 635.0381,1295.7852 Q634.7725,1296.082 634.335,1296.082 Q633.8819,1296.082 633.6006,1295.7852 Q633.3194,1295.4883 633.3194,1294.7539 L633.3194,1293.7227 L628.6631,1293.7227 L628.6631,1296.6133 L630.4131,1296.6133 Q630.4131,1295.832 630.5537,1295.5977 Q630.8662,1295.1289 631.4131,1295.1289 Q631.8662,1295.1289 632.1319,1295.4414 Q632.4131,1295.7383 632.4131,1296.457 L632.4131,1298.7695 Q632.4131,1299.4258 632.2569,1299.6445 Q631.9444,1300.0977 631.4131,1300.0977 Q630.8662,1300.0977 630.5537,1299.6289 Q630.4131,1299.3945 630.4131,1298.6133 L628.6631,1298.6133 Z " fill="#000000"/><text fill="#000000" font-family="sans-serif" font-size="20" font-style="italic" lengthAdjust="spacing" textLength="136" x="648.21" y="1293.1563">«Value Object»</text><text fill="#000000" font-family="sans-serif" font-size="20" lengthAdjust="spacing" textLength="141" x="645.71" y="1318.3125">CustomerStatus</text><line style="stroke:#181818;stroke-width:0.5;" x1="615.71" x2="788.71" y1="1327.707" y2="1327.707"/><line style="stroke:#181818;stroke-width:0.5;" x1="615.71" x2="788.71" y1="1335.707" y2="1335.707"/></g><!--class CustomerType--><g id="elem_CustomerType"><rect codeLine="51" fill="#F1F1F1" height="76.3125" id="CustomerType" rx="2.5" ry="2.5" style="stroke:#181818;stroke-width:0.5;" width="166" x="825.21" y="1267.3945"/><ellipse cx="841.21" cy="1297.5508" fill="#EB937F" rx="12" ry="12" style="stroke:#181818;stroke-width:1.0;"/><path d="M839.1631,1298.6133 L839.1631,1301.5508 L844.2569,1301.5508 L844.2569,1300.457 Q844.2569,1299.7383 844.5381,1299.4414 Q844.8194,1299.1289 845.2725,1299.1289 Q845.71,1299.1289 845.9912,1299.4414 Q846.2725,1299.7383 846.2725,1300.457 L846.2725,1303.5508 L836.835,1303.5508 Q836.1162,1303.5508 835.8037,1303.2695 Q835.5069,1302.9883 835.5069,1302.5508 Q835.5069,1302.0977 835.8194,1301.832 Q836.1319,1301.5508 836.835,1301.5508 L837.1475,1301.5508 L837.1475,1293.7227 L836.835,1293.7227 Q836.1162,1293.7227 835.8037,1293.4414 Q835.5069,1293.1602 835.5069,1292.707 Q835.5069,1292.2539 835.8037,1291.9883 Q836.1162,1291.707 836.835,1291.707 L845.8194,1291.707 L845.8194,1294.7539 Q845.8194,1295.4727 845.5381,1295.7852 Q845.2725,1296.082 844.835,1296.082 Q844.3819,1296.082 844.1006,1295.7852 Q843.8194,1295.4883 843.8194,1294.7539 L843.8194,1293.7227 L839.1631,1293.7227 L839.1631,1296.6133 L840.9131,1296.6133 Q840.9131,1295.832 841.0537,1295.5977 Q841.3662,1295.1289 841.9131,1295.1289 Q842.3662,1295.1289 842.6319,1295.4414 Q842.9131,1295.7383 842.9131,1296.457 L842.9131,1298.7695 Q842.9131,1299.4258 842.7569,1299.6445 Q842.4444,1300.0977 841.9131,1300.0977 Q841.3662,1300.0977 841.0537,1299.6289 Q840.9131,1299.3945 840.9131,1298.6133 L839.1631,1298.6133 Z " fill="#000000"/><text fill="#000000" font-family="sans-serif" font-size="20" font-style="italic" lengthAdjust="spacing" textLength="136" x="854.21" y="1293.1563">«Value Object»</text><text fill="#000000" font-family="sans-serif" font-size="20" lengthAdjust="spacing" textLength="129" x="857.71" y="1318.3125">CustomerType</text><line style="stroke:#181818;stroke-width:0.5;" x1="826.21" x2="990.21" y1="1327.707" y2="1327.707"/><line style="stroke:#181818;stroke-width:0.5;" x1="826.21" x2="990.21" y1="1335.707" y2="1335.707"/></g><!--class Position--><g id="elem_Position"><rect codeLine="54" fill="#F1F1F1" height="76.3125" id="Position" rx="2.5" ry="2.5" style="stroke:#181818;stroke-width:0.5;" width="166" x="577.21" y="1455.8945"/><ellipse cx="593.21" cy="1486.0508" fill="#ADD1B2" rx="12" ry="12" style="stroke:#181818;stroke-width:1.0;"/><path d="M595.3506,1480.9727 Q595.5381,1480.7227 595.7569,1480.5977 Q595.9756,1480.457 596.2256,1480.457 Q596.6631,1480.457 596.9444,1480.7695 Q597.2256,1481.0664 597.2256,1481.7852 L597.2256,1483.4883 Q597.2256,1484.207 596.9444,1484.5195 Q596.6631,1484.832 596.2256,1484.832 Q595.835,1484.832 595.585,1484.5977 Q595.335,1484.3789 595.2256,1483.7695 Q595.1631,1483.3477 594.9444,1483.1289 Q594.5537,1482.6914 593.835,1482.4258 Q593.1162,1482.1602 592.3975,1482.1602 Q591.4912,1482.1602 590.7412,1482.5508 Q589.9912,1482.9414 589.4131,1483.832 Q588.835,1484.707 588.835,1485.9102 L588.835,1487.207 Q588.835,1488.6602 589.8819,1489.6289 Q590.9444,1490.5977 592.8037,1490.5977 Q593.9131,1490.5977 594.6944,1490.2852 Q595.1319,1490.1133 595.6475,1489.5977 Q595.96,1489.2852 596.1319,1489.1914 Q596.3037,1489.0977 596.5381,1489.0977 Q596.9287,1489.0977 597.2256,1489.4102 Q597.5381,1489.707 597.5381,1490.1133 Q597.5381,1490.5195 597.1319,1490.9883 Q596.5381,1491.6758 595.6006,1492.0664 Q594.335,1492.5977 592.8194,1492.5977 Q591.0381,1492.5977 589.6162,1491.8633 Q588.46,1491.2695 587.6475,1490.0039 Q586.835,1488.7383 586.835,1487.2539 L586.835,1485.8945 Q586.835,1484.332 587.5537,1482.9883 Q588.2881,1481.6289 589.5694,1480.8945 Q590.8662,1480.1602 592.3194,1480.1602 Q593.1787,1480.1602 593.9287,1480.3633 Q594.6944,1480.5664 595.3506,1480.9727 Z " fill="#000000"/><text fill="#000000" font-family="sans-serif" font-size="20" font-style="italic" lengthAdjust="spacing" textLength="136" x="606.21" y="1481.6563">«Value Object»</text><text fill="#000000" font-family="sans-serif" font-size="20" lengthAdjust="spacing" textLength="69" x="639.71" y="1506.8125">Position</text><line style="stroke:#181818;stroke-width:0.5;" x1="578.21" x2="742.21" y1="1516.207" y2="1516.207"/><line style="stroke:#181818;stroke-width:0.5;" x1="578.21" x2="742.21" y1="1524.207" y2="1524.207"/></g><!--class Name--><g id="elem_Name"><rect codeLine="57" fill="#F1F1F1" height="76.3125" id="Name" rx="2.5" ry="2.5" style="stroke:#181818;stroke-width:0.5;" width="166" x="440.21" y="1592.8945"/><ellipse cx="456.21" cy="1623.0508" fill="#ADD1B2" rx="12" ry="12" style="stroke:#181818;stroke-width:1.0;"/><path d="M458.3506,1617.9727 Q458.5381,1617.7227 458.7569,1617.5977 Q458.9756,1617.457 459.2256,1617.457 Q459.6631,1617.457 459.9444,1617.7695 Q460.2256,1618.0664 460.2256,1618.7852 L460.2256,1620.4883 Q460.2256,1621.207 459.9444,1621.5195 Q459.6631,1621.832 459.2256,1621.832 Q458.835,1621.832 458.585,1621.5977 Q458.335,1621.3789 458.2256,1620.7695 Q458.1631,1620.3477 457.9444,1620.1289 Q457.5538,1619.6914 456.835,1619.4258 Q456.1163,1619.1602 455.3975,1619.1602 Q454.4913,1619.1602 453.7413,1619.5508 Q452.9913,1619.9414 452.4131,1620.832 Q451.835,1621.707 451.835,1622.9102 L451.835,1624.207 Q451.835,1625.6602 452.8819,1626.6289 Q453.9444,1627.5977 455.8038,1627.5977 Q456.9131,1627.5977 457.6944,1627.2852 Q458.1319,1627.1133 458.6475,1626.5977 Q458.96,1626.2852 459.1319,1626.1914 Q459.3038,1626.0977 459.5381,1626.0977 Q459.9288,1626.0977 460.2256,1626.4102 Q460.5381,1626.707 460.5381,1627.1133 Q460.5381,1627.5195 460.1319,1627.9883 Q459.5381,1628.6758 458.6006,1629.0664 Q457.335,1629.5977 455.8194,1629.5977 Q454.0381,1629.5977 452.6163,1628.8633 Q451.46,1628.2695 450.6475,1627.0039 Q449.835,1625.7383 449.835,1624.2539 L449.835,1622.8945 Q449.835,1621.332 450.5538,1619.9883 Q451.2881,1618.6289 452.5694,1617.8945 Q453.8663,1617.1602 455.3194,1617.1602 Q456.1788,1617.1602 456.9288,1617.3633 Q457.6944,1617.5664 458.3506,1617.9727 Z " fill="#000000"/><text fill="#000000" font-family="sans-serif" font-size="20" font-style="italic" lengthAdjust="spacing" textLength="136" x="469.21" y="1618.6563">«Value Object»</text><text fill="#000000" font-family="sans-serif" font-size="20" lengthAdjust="spacing" textLength="51" x="511.71" y="1643.8125">Name</text><line style="stroke:#181818;stroke-width:0.5;" x1="441.21" x2="605.21" y1="1653.207" y2="1653.207"/><line style="stroke:#181818;stroke-width:0.5;" x1="441.21" x2="605.21" y1="1661.207" y2="1661.207"/></g><!--class Email--><g id="elem_Email"><rect codeLine="60" fill="#F1F1F1" height="76.3125" id="Email" rx="2.5" ry="2.5" style="stroke:#181818;stroke-width:0.5;" width="166" x="898.21" y="1455.8945"/><ellipse cx="914.21" cy="1486.0508" fill="#ADD1B2" rx="12" ry="12" style="stroke:#181818;stroke-width:1.0;"/><path d="M916.3506,1480.9727 Q916.5381,1480.7227 916.7569,1480.5977 Q916.9756,1480.457 917.2256,1480.457 Q917.6631,1480.457 917.9444,1480.7695 Q918.2256,1481.0664 918.2256,1481.7852 L918.2256,1483.4883 Q918.2256,1484.207 917.9444,1484.5195 Q917.6631,1484.832 917.2256,1484.832 Q916.835,1484.832 916.585,1484.5977 Q916.335,1484.3789 916.2256,1483.7695 Q916.1631,1483.3477 915.9444,1483.1289 Q915.5537,1482.6914 914.835,1482.4258 Q914.1162,1482.1602 913.3975,1482.1602 Q912.4912,1482.1602 911.7412,1482.5508 Q910.9912,1482.9414 910.4131,1483.832 Q909.835,1484.707 909.835,1485.9102 L909.835,1487.207 Q909.835,1488.6602 910.8819,1489.6289 Q911.9444,1490.5977 913.8037,1490.5977 Q914.9131,1490.5977 915.6944,1490.2852 Q916.1319,1490.1133 916.6475,1489.5977 Q916.96,1489.2852 917.1319,1489.1914 Q917.3037,1489.0977 917.5381,1489.0977 Q917.9287,1489.0977 918.2256,1489.4102 Q918.5381,1489.707 918.5381,1490.1133 Q918.5381,1490.5195 918.1319,1490.9883 Q917.5381,1491.6758 916.6006,1492.0664 Q915.335,1492.5977 913.8194,1492.5977 Q912.0381,1492.5977 910.6162,1491.8633 Q909.46,1491.2695 908.6475,1490.0039 Q907.835,1488.7383 907.835,1487.2539 L907.835,1485.8945 Q907.835,1484.332 908.5537,1482.9883 Q909.2881,1481.6289 910.5694,1480.8945 Q911.8662,1480.1602 913.3194,1480.1602 Q914.1787,1480.1602 914.9287,1480.3633 Q915.6944,1480.5664 916.3506,1480.9727 Z " fill="#000000"/><text fill="#000000" font-family="sans-serif" font-size="20" font-style="italic" lengthAdjust="spacing" textLength="136" x="927.21" y="1481.6563">«Value Object»</text><text fill="#000000" font-family="sans-serif" font-size="20" lengthAdjust="spacing" textLength="48" x="971.21" y="1506.8125">Email</text><line style="stroke:#181818;stroke-width:0.5;" x1="899.21" x2="1063.21" y1="1516.207" y2="1516.207"/><line style="stroke:#181818;stroke-width:0.5;" x1="899.21" x2="1063.21" y1="1524.207" y2="1524.207"/></g><!--class PhoneNumber--><g id="elem_PhoneNumber"><rect codeLine="63" fill="#F1F1F1" height="76.3125" id="PhoneNumber" rx="2.5" ry="2.5" style="stroke:#181818;stroke-width:0.5;" width="166" x="1099.21" y="1455.8945"/><ellipse cx="1115.21" cy="1486.0508" fill="#ADD1B2" rx="12" ry="12" style="stroke:#181818;stroke-width:1.0;"/><path d="M1117.3506,1480.9727 Q1117.5381,1480.7227 1117.7569,1480.5977 Q1117.9756,1480.457 1118.2256,1480.457 Q1118.6631,1480.457 1118.9444,1480.7695 Q1119.2256,1481.0664 1119.2256,1481.7852 L1119.2256,1483.4883 Q1119.2256,1484.207 1118.9444,1484.5195 Q1118.6631,1484.832 1118.2256,1484.832 Q1117.835,1484.832 1117.585,1484.5977 Q1117.335,1484.3789 1117.2256,1483.7695 Q1117.1631,1483.3477 1116.9444,1483.1289 Q1116.5538,1482.6914 1115.835,1482.4258 Q1115.1163,1482.1602 1114.3975,1482.1602 Q1113.4913,1482.1602 1112.7413,1482.5508 Q1111.9913,1482.9414 1111.4131,1483.832 Q1110.835,1484.707 1110.835,1485.9102 L1110.835,1487.207 Q1110.835,1488.6602 1111.8819,1489.6289 Q1112.9444,1490.5977 1114.8038,1490.5977 Q1115.9131,1490.5977 1116.6944,1490.2852 Q1117.1319,1490.1133 1117.6475,1489.5977 Q1117.96,1489.2852 1118.1319,1489.1914 Q1118.3038,1489.0977 1118.5381,1489.0977 Q1118.9288,1489.0977 1119.2256,1489.4102 Q1119.5381,1489.707 1119.5381,1490.1133 Q1119.5381,1490.5195 1119.1319,1490.9883 Q1118.5381,1491.6758 1117.6006,1492.0664 Q1116.335,1492.5977 1114.8194,1492.5977 Q1113.0381,1492.5977 1111.6163,1491.8633 Q1110.46,1491.2695 1109.6475,1490.0039 Q1108.835,1488.7383 1108.835,1487.2539 L1108.835,1485.8945 Q1108.835,1484.332 1109.5538,1482.9883 Q1110.2881,1481.6289 1111.5694,1480.8945 Q1112.8663,1480.1602 1114.3194,1480.1602 Q1115.1788,1480.1602 1115.9288,1480.3633 Q1116.6944,1480.5664 1117.3506,1480.9727 Z " fill="#000000"/><text fill="#000000" font-family="sans-serif" font-size="20" font-style="italic" lengthAdjust="spacing" textLength="136" x="1128.21" y="1481.6563">«Value Object»</text><text fill="#000000" font-family="sans-serif" font-size="20" lengthAdjust="spacing" textLength="123" x="1134.71" y="1506.8125">PhoneNumber</text><line style="stroke:#181818;stroke-width:0.5;" x1="1100.21" x2="1264.21" y1="1516.207" y2="1516.207"/><line style="stroke:#181818;stroke-width:0.5;" x1="1100.21" x2="1264.21" y1="1524.207" y2="1524.207"/></g><!--class CustomerRepresentativeStatus--><g id="elem_CustomerRepresentativeStatus"><rect codeLine="67" fill="#F1F1F1" height="76.3125" id="CustomerRepresentativeStatus" rx="2.5" ry="2.5" style="stroke:#181818;stroke-width:0.5;" width="307" x="1300.71" y="1455.8945"/><ellipse cx="1316.71" cy="1486.0508" fill="#EB937F" rx="12" ry="12" style="stroke:#181818;stroke-width:1.0;"/><path d="M1314.6631,1487.1133 L1314.6631,1490.0508 L1319.7569,1490.0508 L1319.7569,1488.957 Q1319.7569,1488.2383 1320.0381,1487.9414 Q1320.3194,1487.6289 1320.7725,1487.6289 Q1321.21,1487.6289 1321.4913,1487.9414 Q1321.7725,1488.2383 1321.7725,1488.957 L1321.7725,1492.0508 L1312.335,1492.0508 Q1311.6163,1492.0508 1311.3038,1491.7695 Q1311.0069,1491.4883 1311.0069,1491.0508 Q1311.0069,1490.5977 1311.3194,1490.332 Q1311.6319,1490.0508 1312.335,1490.0508 L1312.6475,1490.0508 L1312.6475,1482.2227 L1312.335,1482.2227 Q1311.6163,1482.2227 1311.3038,1481.9414 Q1311.0069,1481.6602 1311.0069,1481.207 Q1311.0069,1480.7539 1311.3038,1480.4883 Q1311.6163,1480.207 1312.335,1480.207 L1321.3194,1480.207 L1321.3194,1483.2539 Q1321.3194,1483.9727 1321.0381,1484.2852 Q1320.7725,1484.582 1320.335,1484.582 Q1319.8819,1484.582 1319.6006,1484.2852 Q1319.3194,1483.9883 1319.3194,1483.2539 L1319.3194,1482.2227 L1314.6631,1482.2227 L1314.6631,1485.1133 L1316.4131,1485.1133 Q1316.4131,1484.332 1316.5538,1484.0977 Q1316.8663,1483.6289 1317.4131,1483.6289 Q1317.8663,1483.6289 1318.1319,1483.9414 Q1318.4131,1484.2383 1318.4131,1484.957 L1318.4131,1487.2695 Q1318.4131,1487.9258 1318.2569,1488.1445 Q1317.9444,1488.5977 1317.4131,1488.5977 Q1316.8663,1488.5977 1316.5538,1488.1289 Q1316.4131,1487.8945 1316.4131,1487.1133 L1314.6631,1487.1133 Z " fill="#000000"/><text fill="#000000" font-family="sans-serif" font-size="20" font-style="italic" lengthAdjust="spacing" textLength="136" x="1400.21" y="1481.6563">«Value Object»</text><text fill="#000000" font-family="sans-serif" font-size="20" lengthAdjust="spacing" textLength="273" x="1331.71" y="1506.8125">CustomerRepresentativeStatus</text><line style="stroke:#181818;stroke-width:0.5;" x1="1301.71" x2="1606.71" y1="1516.207" y2="1516.207"/><line style="stroke:#181818;stroke-width:0.5;" x1="1301.71" x2="1606.71" y1="1524.207" y2="1524.207"/></g><!--class CustomerDTO--><g id="elem_CustomerDTO"><rect codeLine="6" fill="#F1F1F1" height="76.3125" id="CustomerDTO" rx="2.5" ry="2.5" style="stroke:#181818;stroke-width:0.5;" width="161" x="499.71" y="568.3945"/><ellipse cx="515.71" cy="598.5508" fill="#ADD1B2" rx="12" ry="12" style="stroke:#181818;stroke-width:1.0;"/><path d="M517.8506,593.4727 Q518.0381,593.2227 518.2569,593.0977 Q518.4756,592.957 518.7256,592.957 Q519.1631,592.957 519.4444,593.2695 Q519.7256,593.5664 519.7256,594.2852 L519.7256,595.9883 Q519.7256,596.707 519.4444,597.0195 Q519.1631,597.332 518.7256,597.332 Q518.335,597.332 518.085,597.0977 Q517.835,596.8789 517.7256,596.2695 Q517.6631,595.8477 517.4444,595.6289 Q517.0538,595.1914 516.335,594.9258 Q515.6163,594.6602 514.8975,594.6602 Q513.9913,594.6602 513.2413,595.0508 Q512.4913,595.4414 511.9131,596.332 Q511.335,597.207 511.335,598.4102 L511.335,599.707 Q511.335,601.1602 512.3819,602.1289 Q513.4444,603.0977 515.3038,603.0977 Q516.4131,603.0977 517.1944,602.7852 Q517.6319,602.6133 518.1475,602.0977 Q518.46,601.7852 518.6319,601.6914 Q518.8038,601.5977 519.0381,601.5977 Q519.4288,601.5977 519.7256,601.9102 Q520.0381,602.207 520.0381,602.6133 Q520.0381,603.0195 519.6319,603.4883 Q519.0381,604.1758 518.1006,604.5664 Q516.835,605.0977 515.3194,605.0977 Q513.5381,605.0977 512.1163,604.3633 Q510.96,603.7695 510.1475,602.5039 Q509.335,601.2383 509.335,599.7539 L509.335,598.3945 Q509.335,596.832 510.0538,595.4883 Q510.7881,594.1289 512.0694,593.3945 Q513.3663,592.6602 514.8194,592.6602 Q515.6788,592.6602 516.4288,592.8633 Q517.1944,593.0664 517.8506,593.4727 Z " fill="#000000"/><text fill="#000000" font-family="sans-serif" font-size="20" font-style="italic" lengthAdjust="spacing" textLength="64" x="562.21" y="594.1563">«DTO»</text><text fill="#000000" font-family="sans-serif" font-size="20" lengthAdjust="spacing" textLength="127" x="530.71" y="619.3125">CustomerDTO</text><line style="stroke:#181818;stroke-width:0.5;" x1="500.71" x2="659.71" y1="628.707" y2="628.707"/><line style="stroke:#181818;stroke-width:0.5;" x1="500.71" x2="659.71" y1="636.707" y2="636.707"/></g><!--class CustomerListMapper--><g id="elem_CustomerListMapper"><rect codeLine="12" fill="#F1F1F1" height="126.625" id="CustomerListMapper" rx="2.5" ry="2.5" style="stroke:#181818;stroke-width:0.5;" width="488" x="173.21" y="811.8945"/><ellipse cx="320.71" cy="842.0508" fill="#ADD1B2" rx="12" ry="12" style="stroke:#181818;stroke-width:1.0;"/><path d="M322.8506,836.9727 Q323.0381,836.7227 323.2569,836.5977 Q323.4756,836.457 323.7256,836.457 Q324.1631,836.457 324.4444,836.7695 Q324.7256,837.0664 324.7256,837.7852 L324.7256,839.4883 Q324.7256,840.207 324.4444,840.5195 Q324.1631,840.832 323.7256,840.832 Q323.335,840.832 323.085,840.5977 Q322.835,840.3789 322.7256,839.7695 Q322.6631,839.3477 322.4444,839.1289 Q322.0538,838.6914 321.335,838.4258 Q320.6163,838.1602 319.8975,838.1602 Q318.9913,838.1602 318.2413,838.5508 Q317.4913,838.9414 316.9131,839.832 Q316.335,840.707 316.335,841.9102 L316.335,843.207 Q316.335,844.6602 317.3819,845.6289 Q318.4444,846.5977 320.3038,846.5977 Q321.4131,846.5977 322.1944,846.2852 Q322.6319,846.1133 323.1475,845.5977 Q323.46,845.2852 323.6319,845.1914 Q323.8038,845.0977 324.0381,845.0977 Q324.4288,845.0977 324.7256,845.4102 Q325.0381,845.707 325.0381,846.1133 Q325.0381,846.5195 324.6319,846.9883 Q324.0381,847.6758 323.1006,848.0664 Q321.835,848.5977 320.3194,848.5977 Q318.5381,848.5977 317.1163,847.8633 Q315.96,847.2695 315.1475,846.0039 Q314.335,844.7383 314.335,843.2539 L314.335,841.8945 Q314.335,840.332 315.0538,838.9883 Q315.7881,837.6289 317.0694,836.8945 Q318.3663,836.1602 319.8194,836.1602 Q320.6788,836.1602 321.4288,836.3633 Q322.1944,836.5664 322.8506,836.9727 Z " fill="#000000"/><text fill="#000000" font-family="sans-serif" font-size="20" font-style="italic" lengthAdjust="spacing" textLength="90" x="389.71" y="837.6563">«Mapper»</text><text fill="#000000" font-family="sans-serif" font-size="20" lengthAdjust="spacing" textLength="184" x="342.71" y="862.8125">CustomerListMapper</text><line style="stroke:#181818;stroke-width:0.5;" x1="174.21" x2="660.21" y1="872.207" y2="872.207"/><line style="stroke:#181818;stroke-width:0.5;" x1="174.21" x2="660.21" y1="880.207" y2="880.207"/><ellipse cx="184.21" cy="898.2852" fill="#84BE84" rx="3" ry="3" style="stroke:#038048;stroke-width:1.0;"/><text fill="#000000" font-family="sans-serif" font-size="20" lengthAdjust="spacing" textLength="299" x="194.21" y="904.9688">toDTO(customer) : CustomerDTO</text><ellipse cx="184.21" cy="923.4414" fill="#84BE84" rx="3" ry="3" style="stroke:#038048;stroke-width:1.0;"/><text fill="#000000" font-family="sans-serif" font-size="20" lengthAdjust="spacing" textLength="461" x="194.21" y="930.125">customersToDTO(customers) : List&lt;CustomerDTO&gt;</text></g><!--class CustomerRepository--><g id="elem_CustomerRepository"><rect codeLine="19" fill="#F1F1F1" height="101.4688" id="CustomerRepository" rx="2.5" ry="2.5" style="stroke:#181818;stroke-width:0.5;" width="322" x="717.21" y="824.8945"/><ellipse cx="783.21" cy="855.0508" fill="#B4A7E5" rx="12" ry="12" style="stroke:#181818;stroke-width:1.0;"/><path d="M784.21,851.2227 L784.21,859.0508 L786.2412,859.0508 Q786.96,859.0508 787.2569,859.332 Q787.5694,859.5977 787.5694,860.0508 Q787.5694,860.4883 787.2569,860.7695 Q786.96,861.0508 786.2412,861.0508 L780.1944,861.0508 Q779.46,861.0508 779.1475,860.7695 Q778.8506,860.4883 778.8506,860.0508 Q778.8506,859.5977 779.1475,859.332 Q779.46,859.0508 780.1944,859.0508 L782.21,859.0508 L782.21,851.2227 L780.1944,851.2227 Q779.46,851.2227 779.1475,850.9414 Q778.8506,850.6602 778.8506,850.207 Q778.8506,849.7539 779.1475,849.4883 Q779.46,849.207 780.1944,849.207 L786.2412,849.207 Q786.96,849.207 787.2569,849.4883 Q787.5694,849.7539 787.5694,850.207 Q787.5694,850.6602 787.2569,850.9414 Q786.96,851.2227 786.2412,851.2227 L784.21,851.2227 Z " fill="#000000"/><text fill="#000000" font-family="sans-serif" font-size="20" font-style="italic" lengthAdjust="spacing" textLength="117" x="837.21" y="850.6563">«Repository»</text><text fill="#000000" font-family="sans-serif" font-size="20" font-style="italic" lengthAdjust="spacing" textLength="181" x="805.21" y="875.8125">CustomerRepository</text><line style="stroke:#181818;stroke-width:0.5;" x1="718.21" x2="1038.21" y1="885.207" y2="885.207"/><line style="stroke:#181818;stroke-width:0.5;" x1="718.21" x2="1038.21" y1="893.207" y2="893.207"/><ellipse cx="728.21" cy="911.2852" fill="#84BE84" rx="3" ry="3" style="stroke:#038048;stroke-width:1.0;"/><text fill="#000000" font-family="sans-serif" font-size="20" lengthAdjust="spacing" textLength="295" x="738.21" y="917.9688">getCustomers() : List&lt;Customer&gt;</text></g><!--class CustomerRepresentativeRepository--><g id="elem_CustomerRepresentativeRepository"><rect codeLine="22" fill="#F1F1F1" height="101.4688" id="CustomerRepresentativeRepository" rx="2.5" ry="2.5" style="stroke:#181818;stroke-width:0.5;" width="509" x="1074.71" y="824.8945"/><ellipse cx="1167.71" cy="855.0508" fill="#B4A7E5" rx="12" ry="12" style="stroke:#181818;stroke-width:1.0;"/><path d="M1168.71,851.2227 L1168.71,859.0508 L1170.7413,859.0508 Q1171.46,859.0508 1171.7569,859.332 Q1172.0694,859.5977 1172.0694,860.0508 Q1172.0694,860.4883 1171.7569,860.7695 Q1171.46,861.0508 1170.7413,861.0508 L1164.6944,861.0508 Q1163.96,861.0508 1163.6475,860.7695 Q1163.3506,860.4883 1163.3506,860.0508 Q1163.3506,859.5977 1163.6475,859.332 Q1163.96,859.0508 1164.6944,859.0508 L1166.71,859.0508 L1166.71,851.2227 L1164.6944,851.2227 Q1163.96,851.2227 1163.6475,850.9414 Q1163.3506,850.6602 1163.3506,850.207 Q1163.3506,849.7539 1163.6475,849.4883 Q1163.96,849.207 1164.6944,849.207 L1170.7413,849.207 Q1171.46,849.207 1171.7569,849.4883 Q1172.0694,849.7539 1172.0694,850.207 Q1172.0694,850.6602 1171.7569,850.9414 Q1171.46,851.2227 1170.7413,851.2227 L1168.71,851.2227 Z " fill="#000000"/><text fill="#000000" font-family="sans-serif" font-size="20" font-style="italic" lengthAdjust="spacing" textLength="117" x="1288.21" y="850.6563">«Repository»</text><text fill="#000000" font-family="sans-serif" font-size="20" font-style="italic" lengthAdjust="spacing" textLength="314" x="1189.71" y="875.8125">CustomerRepresentativeRepository</text><line style="stroke:#181818;stroke-width:0.5;" x1="1075.71" x2="1582.71" y1="885.207" y2="885.207"/><line style="stroke:#181818;stroke-width:0.5;" x1="1075.71" x2="1582.71" y1="893.207" y2="893.207"/><ellipse cx="1085.71" cy="911.2852" fill="#84BE84" rx="3" ry="3" style="stroke:#038048;stroke-width:1.0;"/><text fill="#000000" font-family="sans-serif" font-size="20" lengthAdjust="spacing" textLength="482" x="1095.71" y="917.9688">addCustomerRepresentative(customer, representative)</text></g><!--class Repositories--><g id="elem_Repositories"><rect codeLine="25" fill="#F1F1F1" height="176.9375" id="Repositories" rx="2.5" ry="2.5" style="stroke:#181818;stroke-width:0.5;" width="711" x="717.71" y="517.8945"/><ellipse cx="1012.21" cy="548.0508" fill="#B4A7E5" rx="12" ry="12" style="stroke:#181818;stroke-width:1.0;"/><path d="M1013.21,544.2227 L1013.21,552.0508 L1015.2412,552.0508 Q1015.96,552.0508 1016.2569,552.332 Q1016.5694,552.5977 1016.5694,553.0508 Q1016.5694,553.4883 1016.2569,553.7695 Q1015.96,554.0508 1015.2412,554.0508 L1009.1944,554.0508 Q1008.46,554.0508 1008.1475,553.7695 Q1007.8506,553.4883 1007.8506,553.0508 Q1007.8506,552.5977 1008.1475,552.332 Q1008.46,552.0508 1009.1944,552.0508 L1011.21,552.0508 L1011.21,544.2227 L1009.1944,544.2227 Q1008.46,544.2227 1008.1475,543.9414 Q1007.8506,543.6602 1007.8506,543.207 Q1007.8506,542.7539 1008.1475,542.4883 Q1008.46,542.207 1009.1944,542.207 L1015.2412,542.207 Q1015.96,542.207 1016.2569,542.4883 Q1016.5694,542.7539 1016.5694,543.207 Q1016.5694,543.6602 1016.2569,543.9414 Q1015.96,544.2227 1015.2412,544.2227 L1013.21,544.2227 Z " fill="#000000"/><text fill="#000000" font-family="sans-serif" font-size="20" font-style="italic" lengthAdjust="spacing" textLength="117" x="1032.21" y="543.6563">«Repository»</text><text fill="#000000" font-family="sans-serif" font-size="20" font-style="italic" lengthAdjust="spacing" textLength="111" x="1035.21" y="568.8125">Repositories</text><line style="stroke:#181818;stroke-width:0.5;" x1="718.71" x2="1427.71" y1="578.207" y2="578.207"/><line style="stroke:#181818;stroke-width:0.5;" x1="718.71" x2="1427.71" y1="586.207" y2="586.207"/><rect fill="#F24D5C" height="6" style="stroke:#C82930;stroke-width:1.0;" width="6" x="725.71" y="601.2852"/><text fill="#000000" font-family="sans-serif" font-size="20" lengthAdjust="spacing" textLength="124" x="738.71" y="610.9688">Repositories()</text><ellipse cx="728.71" cy="629.4414" fill="#84BE84" rx="3" ry="3" style="stroke:#038048;stroke-width:1.0;"/><text fill="#000000" font-family="sans-serif" font-size="20" lengthAdjust="spacing" textLength="244" x="738.71" y="636.125">getInstance() : Repositories</text><ellipse cx="728.71" cy="654.5977" fill="#84BE84" rx="3" ry="3" style="stroke:#038048;stroke-width:1.0;"/><text fill="#000000" font-family="sans-serif" font-size="20" lengthAdjust="spacing" textLength="420" x="738.71" y="661.2813">getCustomerRepository() : CustomerRepository</text><ellipse cx="728.71" cy="679.7539" fill="#84BE84" rx="3" ry="3" style="stroke:#038048;stroke-width:1.0;"/><text fill="#000000" font-family="sans-serif" font-size="20" lengthAdjust="spacing" textLength="684" x="738.71" y="686.4375">getCustomerRepresentativeRepository() : CustomerRepresentativeRepository</text></g><!--class AddCustomerRepresentativeUI--><g id="elem_AddCustomerRepresentativeUI"><rect codeLine="72" fill="#F1F1F1" height="76.3125" id="AddCustomerRepresentativeUI" rx="2.5" ry="2.5" style="stroke:#181818;stroke-width:0.5;" width="305" x="582.71" y="50.8945"/><ellipse cx="598.71" cy="81.0508" fill="#ADD1B2" rx="12" ry="12" style="stroke:#181818;stroke-width:1.0;"/><path d="M600.8506,75.9727 Q601.0381,75.7227 601.2569,75.5977 Q601.4756,75.457 601.7256,75.457 Q602.1631,75.457 602.4444,75.7695 Q602.7256,76.0664 602.7256,76.7852 L602.7256,78.4883 Q602.7256,79.207 602.4444,79.5195 Q602.1631,79.832 601.7256,79.832 Q601.335,79.832 601.085,79.5977 Q600.835,79.3789 600.7256,78.7695 Q600.6631,78.3477 600.4444,78.1289 Q600.0537,77.6914 599.335,77.4258 Q598.6162,77.1602 597.8975,77.1602 Q596.9912,77.1602 596.2412,77.5508 Q595.4912,77.9414 594.9131,78.832 Q594.335,79.707 594.335,80.9102 L594.335,82.207 Q594.335,83.6602 595.3819,84.6289 Q596.4444,85.5977 598.3037,85.5977 Q599.4131,85.5977 600.1944,85.2852 Q600.6319,85.1133 601.1475,84.5977 Q601.46,84.2852 601.6319,84.1914 Q601.8037,84.0977 602.0381,84.0977 Q602.4287,84.0977 602.7256,84.4102 Q603.0381,84.707 603.0381,85.1133 Q603.0381,85.5195 602.6319,85.9883 Q602.0381,86.6758 601.1006,87.0664 Q599.835,87.5977 598.3194,87.5977 Q596.5381,87.5977 595.1162,86.8633 Q593.96,86.2695 593.1475,85.0039 Q592.335,83.7383 592.335,82.2539 L592.335,80.8945 Q592.335,79.332 593.0537,77.9883 Q593.7881,76.6289 595.0694,75.8945 Q596.3662,75.1602 597.8194,75.1602 Q598.6787,75.1602 599.4287,75.3633 Q600.1944,75.5664 600.8506,75.9727 Z " fill="#000000"/><text fill="#000000" font-family="sans-serif" font-size="20" font-style="italic" lengthAdjust="spacing" textLength="41" x="728.71" y="76.6563">«UI»</text><text fill="#000000" font-family="sans-serif" font-size="20" lengthAdjust="spacing" textLength="271" x="613.71" y="101.8125">AddCustomerRepresentativeUI</text><line style="stroke:#181818;stroke-width:0.5;" x1="583.71" x2="886.71" y1="111.207" y2="111.207"/><line style="stroke:#181818;stroke-width:0.5;" x1="583.71" x2="886.71" y1="119.207" y2="119.207"/></g><!--class AddCustomerRepresentativeController--><g id="elem_AddCustomerRepresentativeController"><rect codeLine="78" fill="#F1F1F1" height="126.625" id="AddCustomerRepresentativeController" rx="2.5" ry="2.5" style="stroke:#181818;stroke-width:0.5;" width="604" x="433.21" y="219.8945"/><ellipse cx="562.21" cy="250.0508" fill="#ADD1B2" rx="12" ry="12" style="stroke:#181818;stroke-width:1.0;"/><path d="M564.3506,244.9727 Q564.5381,244.7227 564.7569,244.5977 Q564.9756,244.457 565.2256,244.457 Q565.6631,244.457 565.9444,244.7695 Q566.2256,245.0664 566.2256,245.7852 L566.2256,247.4883 Q566.2256,248.207 565.9444,248.5195 Q565.6631,248.832 565.2256,248.832 Q564.835,248.832 564.585,248.5977 Q564.335,248.3789 564.2256,247.7695 Q564.1631,247.3477 563.9444,247.1289 Q563.5538,246.6914 562.835,246.4258 Q562.1163,246.1602 561.3975,246.1602 Q560.4913,246.1602 559.7413,246.5508 Q558.9913,246.9414 558.4131,247.832 Q557.835,248.707 557.835,249.9102 L557.835,251.207 Q557.835,252.6602 558.8819,253.6289 Q559.9444,254.5977 561.8038,254.5977 Q562.9131,254.5977 563.6944,254.2852 Q564.1319,254.1133 564.6475,253.5977 Q564.96,253.2852 565.1319,253.1914 Q565.3038,253.0977 565.5381,253.0977 Q565.9288,253.0977 566.2256,253.4102 Q566.5381,253.707 566.5381,254.1133 Q566.5381,254.5195 566.1319,254.9883 Q565.5381,255.6758 564.6006,256.0664 Q563.335,256.5977 561.8194,256.5977 Q560.0381,256.5977 558.6163,255.8633 Q557.46,255.2695 556.6475,254.0039 Q555.835,252.7383 555.835,251.2539 L555.835,249.8945 Q555.835,248.332 556.5538,246.9883 Q557.2881,245.6289 558.5694,244.8945 Q559.8663,244.1602 561.3194,244.1602 Q562.1788,244.1602 562.9288,244.3633 Q563.6944,244.5664 564.3506,244.9727 Z " fill="#000000"/><text fill="#000000" font-family="sans-serif" font-size="20" font-style="italic" lengthAdjust="spacing" textLength="109" x="698.21" y="245.6563">«Controller»</text><text fill="#000000" font-family="sans-serif" font-size="20" lengthAdjust="spacing" textLength="337" x="584.21" y="270.8125">AddCustomerRepresentativeController</text><line style="stroke:#181818;stroke-width:0.5;" x1="434.21" x2="1036.21" y1="280.207" y2="280.207"/><line style="stroke:#181818;stroke-width:0.5;" x1="434.21" x2="1036.21" y1="288.207" y2="288.207"/><ellipse cx="444.21" cy="306.2852" fill="#84BE84" rx="3" ry="3" style="stroke:#038048;stroke-width:1.0;"/><text fill="#000000" font-family="sans-serif" font-size="20" lengthAdjust="spacing" textLength="577" x="454.21" y="312.9688">registerNewRepresentativeOfCustomer(customer, representative)</text><ellipse cx="444.21" cy="331.4414" fill="#84BE84" rx="3" ry="3" style="stroke:#038048;stroke-width:1.0;"/><text fill="#000000" font-family="sans-serif" font-size="20" lengthAdjust="spacing" textLength="154" x="454.21" y="338.125">listAllCustomers()</text></g><!--class CustomerRepositoryJpaImpl--><g id="elem_CustomerRepositoryJpaImpl"><rect codeLine="85" fill="#F1F1F1" height="76.3125" id="CustomerRepositoryJpaImpl" rx="2.5" ry="2.5" style="stroke:#181818;stroke-width:0.5;" width="283" x="1858.71" y="568.3945"/><ellipse cx="1874.71" cy="598.5508" fill="#ADD1B2" rx="12" ry="12" style="stroke:#181818;stroke-width:1.0;"/><path d="M1876.8506,593.4727 Q1877.0381,593.2227 1877.2569,593.0977 Q1877.4756,592.957 1877.7256,592.957 Q1878.1631,592.957 1878.4444,593.2695 Q1878.7256,593.5664 1878.7256,594.2852 L1878.7256,595.9883 Q1878.7256,596.707 1878.4444,597.0195 Q1878.1631,597.332 1877.7256,597.332 Q1877.335,597.332 1877.085,597.0977 Q1876.835,596.8789 1876.7256,596.2695 Q1876.6631,595.8477 1876.4444,595.6289 Q1876.0538,595.1914 1875.335,594.9258 Q1874.6163,594.6602 1873.8975,594.6602 Q1872.9913,594.6602 1872.2413,595.0508 Q1871.4913,595.4414 1870.9131,596.332 Q1870.335,597.207 1870.335,598.4102 L1870.335,599.707 Q1870.335,601.1602 1871.3819,602.1289 Q1872.4444,603.0977 1874.3038,603.0977 Q1875.4131,603.0977 1876.1944,602.7852 Q1876.6319,602.6133 1877.1475,602.0977 Q1877.46,601.7852 1877.6319,601.6914 Q1877.8038,601.5977 1878.0381,601.5977 Q1878.4288,601.5977 1878.7256,601.9102 Q1879.0381,602.207 1879.0381,602.6133 Q1879.0381,603.0195 1878.6319,603.4883 Q1878.0381,604.1758 1877.1006,604.5664 Q1875.835,605.0977 1874.3194,605.0977 Q1872.5381,605.0977 1871.1163,604.3633 Q1869.96,603.7695 1869.1475,602.5039 Q1868.335,601.2383 1868.335,599.7539 L1868.335,598.3945 Q1868.335,596.832 1869.0538,595.4883 Q1869.7881,594.1289 1871.0694,593.3945 Q1872.3663,592.6602 1873.8194,592.6602 Q1874.6788,592.6602 1875.4288,592.8633 Q1876.1944,593.0664 1876.8506,593.4727 Z " fill="#000000"/><text fill="#000000" font-family="sans-serif" font-size="20" font-style="italic" lengthAdjust="spacing" textLength="117" x="1955.71" y="594.1563">«Repository»</text><text fill="#000000" font-family="sans-serif" font-size="20" lengthAdjust="spacing" textLength="249" x="1889.71" y="619.3125">CustomerRepositoryJpaImpl</text><line style="stroke:#181818;stroke-width:0.5;" x1="1859.71" x2="2140.71" y1="628.707" y2="628.707"/><line style="stroke:#181818;stroke-width:0.5;" x1="1859.71" x2="2140.71" y1="636.707" y2="636.707"/></g><!--class CustomerRepresentativeRepositoryJpaImpl--><g id="elem_CustomerRepresentativeRepositoryJpaImpl"><rect codeLine="87" fill="#F1F1F1" height="76.3125" id="CustomerRepresentativeRepositoryJpaImpl" rx="2.5" ry="2.5" style="stroke:#181818;stroke-width:0.5;" width="415" x="2176.71" y="568.3945"/><ellipse cx="2192.71" cy="598.5508" fill="#ADD1B2" rx="12" ry="12" style="stroke:#181818;stroke-width:1.0;"/><path d="M2194.8506,593.4727 Q2195.0381,593.2227 2195.2569,593.0977 Q2195.4756,592.957 2195.7256,592.957 Q2196.1631,592.957 2196.4444,593.2695 Q2196.7256,593.5664 2196.7256,594.2852 L2196.7256,595.9883 Q2196.7256,596.707 2196.4444,597.0195 Q2196.1631,597.332 2195.7256,597.332 Q2195.335,597.332 2195.085,597.0977 Q2194.835,596.8789 2194.7256,596.2695 Q2194.6631,595.8477 2194.4444,595.6289 Q2194.0538,595.1914 2193.335,594.9258 Q2192.6163,594.6602 2191.8975,594.6602 Q2190.9913,594.6602 2190.2413,595.0508 Q2189.4913,595.4414 2188.9131,596.332 Q2188.335,597.207 2188.335,598.4102 L2188.335,599.707 Q2188.335,601.1602 2189.3819,602.1289 Q2190.4444,603.0977 2192.3038,603.0977 Q2193.4131,603.0977 2194.1944,602.7852 Q2194.6319,602.6133 2195.1475,602.0977 Q2195.46,601.7852 2195.6319,601.6914 Q2195.8038,601.5977 2196.0381,601.5977 Q2196.4288,601.5977 2196.7256,601.9102 Q2197.0381,602.207 2197.0381,602.6133 Q2197.0381,603.0195 2196.6319,603.4883 Q2196.0381,604.1758 2195.1006,604.5664 Q2193.835,605.0977 2192.3194,605.0977 Q2190.5381,605.0977 2189.1163,604.3633 Q2187.96,603.7695 2187.1475,602.5039 Q2186.335,601.2383 2186.335,599.7539 L2186.335,598.3945 Q2186.335,596.832 2187.0538,595.4883 Q2187.7881,594.1289 2189.0694,593.3945 Q2190.3663,592.6602 2191.8194,592.6602 Q2192.6788,592.6602 2193.4288,592.8633 Q2194.1944,593.0664 2194.8506,593.4727 Z " fill="#000000"/><text fill="#000000" font-family="sans-serif" font-size="20" font-style="italic" lengthAdjust="spacing" textLength="117" x="2339.71" y="594.1563">«Repository»</text><text fill="#000000" font-family="sans-serif" font-size="20" lengthAdjust="spacing" textLength="381" x="2207.71" y="619.3125">CustomerRepresentativeRepositoryJpaImpl</text><line style="stroke:#181818;stroke-width:0.5;" x1="2177.71" x2="2590.71" y1="628.707" y2="628.707"/><line style="stroke:#181818;stroke-width:0.5;" x1="2177.71" x2="2590.71" y1="636.707" y2="636.707"/></g><!--link Customer to CustomerRepresentative--><g id="link_Customer_CustomerRepresentative"><path codeLine="92" d="M883.82,1154.9945 C961.56,1181.7945 1052.27,1213.0645 1130.55,1240.0445 " fill="none" id="Customer-to-CustomerRepresentative" style="stroke:#181818;stroke-width:1.0;"/><polygon fill="#181818" points="1135.69,1241.8245,1128.4831,1235.1118,1130.9625,1240.1963,1125.878,1242.6758,1135.69,1241.8245" style="stroke:#181818;stroke-width:1.0;"/><text fill="#000000" font-family="sans-serif" font-size="20" lengthAdjust="spacing" textLength="125" x="1047.21" y="1206.6563">representative</text><text fill="#000000" font-family="sans-serif" font-size="20" lengthAdjust="spacing" textLength="31" x="1083.1409" y="1229.2951">1..*</text></g><!--link Customer to VatNumber--><g id="link_Customer_VatNumber"><path codeLine="93" d="M641.24,1155.1445 C607.15,1190.2245 565.65,1232.9345 535.79,1263.6645 " fill="none" id="Customer-to-VatNumber" style="stroke:#181818;stroke-width:1.0;"/><polygon fill="#181818" points="532.21,1267.3445,541.3515,1263.6794,535.6952,1263.7594,535.6152,1258.1031,532.21,1267.3445" style="stroke:#181818;stroke-width:1.0;"/><text fill="#000000" font-family="sans-serif" font-size="20" lengthAdjust="spacing" textLength="26" x="612.21" y="1206.6563">vat</text><text fill="#000000" font-family="sans-serif" font-size="20" lengthAdjust="spacing" textLength="11" x="526.0709" y="1255.0374">1</text></g><!--link Customer to Address--><g id="link_Customer_Address"><path codeLine="94" d="M564.72,1154.9945 C511.32,1180.4845 450.15,1211.1545 396.21,1241.8945 C383.77,1248.9845 370.64,1256.8345 358.12,1264.5045 " fill="none" id="Customer-to-Address" style="stroke:#181818;stroke-width:1.0;"/><polygon fill="#181818" points="353.53,1267.3145,363.2945,1266.028,357.7946,1264.7044,359.1183,1259.2046,353.53,1267.3145" style="stroke:#181818;stroke-width:1.0;"/><text fill="#000000" font-family="sans-serif" font-size="20" lengthAdjust="spacing" textLength="71" x="496.21" y="1206.6563">address</text><text fill="#000000" font-family="sans-serif" font-size="20" lengthAdjust="spacing" textLength="11" x="350.9482" y="1255.0026">1</text></g><!--link Customer to CustomerStatus--><g id="link_Customer_CustomerStatus"><path codeLine="95" d="M702.21,1155.1445 C702.21,1189.6545 702.21,1231.5445 702.21,1262.1545 " fill="none" id="Customer-to-CustomerStatus" style="stroke:#181818;stroke-width:1.0;"/><polygon fill="#181818" points="702.21,1267.3445,706.21,1258.3445,702.21,1262.3445,698.21,1258.3445,702.21,1267.3445" style="stroke:#181818;stroke-width:1.0;"/><text fill="#000000" font-family="sans-serif" font-size="20" lengthAdjust="spacing" textLength="53" x="703.21" y="1206.6563">status</text><text fill="#000000" font-family="sans-serif" font-size="20" lengthAdjust="spacing" textLength="11" x="690.3334" y="1255.0374">1</text></g><!--link Customer to CustomerType--><g id="link_Customer_CustomerType"><path codeLine="96" d="M763.18,1155.1445 C797.27,1190.2245 838.77,1232.9345 868.63,1263.6645 " fill="none" id="Customer-to-CustomerType" style="stroke:#181818;stroke-width:1.0;"/><polygon fill="#181818" points="872.22,1267.3445,868.8148,1258.1031,868.7348,1263.7594,863.0785,1263.6794,872.22,1267.3445" style="stroke:#181818;stroke-width:1.0;"/><text fill="#000000" font-family="sans-serif" font-size="20" lengthAdjust="spacing" textLength="38" x="818.21" y="1206.6563">type</text><text fill="#000000" font-family="sans-serif" font-size="20" lengthAdjust="spacing" textLength="11" x="854.6075" y="1255.0374">1</text></g><!--link Customer to Name--><g id="link_Customer_Name"><path codeLine="97" d="M494.01,1127.8445 C371.01,1153.4945 232.27,1192.3345 195.21,1241.8945 C95.9,1374.7145 319.4,1521.7345 445.1,1590.4445 " fill="none" id="Customer-to-Name" style="stroke:#181818;stroke-width:1.0;"/><polygon fill="#181818" points="449.53,1592.8545,443.5443,1585.0333,445.1405,1590.4603,439.7135,1592.0564,449.53,1592.8545" style="stroke:#181818;stroke-width:1.0;"/><text fill="#000000" font-family="sans-serif" font-size="20" lengthAdjust="spacing" textLength="48" x="223.21" y="1420.6563">name</text><text fill="#000000" font-family="sans-serif" font-size="20" lengthAdjust="spacing" textLength="11" x="425.9107" y="1580.549">1</text></g><!--link CustomerRepresentative to Position--><g id="link_CustomerRepresentative_Position"><path codeLine="99" d="M1025.93,1366.2245 C1020.32,1367.1445 1014.74,1368.0345 1009.21,1368.8945 C948.69,1378.3245 788.87,1369.3545 735.21,1398.8945 C713.45,1410.8745 695.71,1432.0245 682.96,1451.2345 " fill="none" id="CustomerRepresentative-to-Position" style="stroke:#181818;stroke-width:1.0;"/><polygon fill="#181818" points="680.16,1455.5645,688.4174,1450.1965,682.8839,1451.3717,681.7088,1445.8382,680.16,1455.5645" style="stroke:#181818;stroke-width:1.0;"/><text fill="#000000" font-family="sans-serif" font-size="20" lengthAdjust="spacing" textLength="67" x="736.21" y="1420.6563">position</text><text fill="#000000" font-family="sans-serif" font-size="20" lengthAdjust="spacing" textLength="11" x="671.3727" y="1443.5309">1</text></g><!--link CustomerRepresentative to Name--><g id="link_CustomerRepresentative_Name"><path codeLine="100" d="M1026.1,1368.6345 C959.08,1390.2345 890.21,1418.7045 831.21,1455.8945 C792.37,1480.3845 798.89,1505.6445 761.21,1531.8945 C715.67,1563.6345 658.28,1587.6445 611.26,1603.9545 " fill="none" id="CustomerRepresentative-to-Name" style="stroke:#181818;stroke-width:1.0;"/><polygon fill="#181818" points="606.46,1605.6045,616.2697,1606.4823,611.1919,1603.9891,613.685,1598.9113,606.46,1605.6045" style="stroke:#181818;stroke-width:1.0;"/><text fill="#000000" font-family="sans-serif" font-size="20" lengthAdjust="spacing" textLength="48" x="832.21" y="1502.1563">name</text><text fill="#000000" font-family="sans-serif" font-size="20" lengthAdjust="spacing" textLength="11" x="614.087" y="1598.112">1</text></g><!--link CustomerRepresentative to Email--><g id="link_CustomerRepresentative_Email"><path codeLine="101" d="M1204.4,1369.0145 C1154.26,1396.8445 1096.75,1428.7645 1052.67,1453.2345 " fill="none" id="CustomerRepresentative-to-Email" style="stroke:#181818;stroke-width:1.0;"/><polygon fill="#181818" points="1048.17,1455.7245,1057.9821,1454.8749,1052.5468,1453.3073,1054.1145,1447.872,1048.17,1455.7245" style="stroke:#181818;stroke-width:1.0;"/><text fill="#000000" font-family="sans-serif" font-size="20" lengthAdjust="spacing" textLength="46" x="1150.21" y="1420.6563">email</text><text fill="#000000" font-family="sans-serif" font-size="20" lengthAdjust="spacing" textLength="11" x="1046.9652" y="1443.3983">1</text></g><!--link CustomerRepresentative to PhoneNumber--><g id="link_CustomerRepresentative_PhoneNumber"><path codeLine="102" d="M1271.88,1369.0145 C1252.19,1396.2245 1229.66,1427.3445 1212.11,1451.5945 " fill="none" id="CustomerRepresentative-to-PhoneNumber" style="stroke:#181818;stroke-width:1.0;"/><polygon fill="#181818" points="1209.12,1455.7245,1217.6309,1450.7682,1212.0464,1451.6704,1211.1442,1446.0859,1209.12,1455.7245" style="stroke:#181818;stroke-width:1.0;"/><text fill="#000000" font-family="sans-serif" font-size="20" lengthAdjust="spacing" textLength="121" x="1250.21" y="1420.6563">phoneNumber</text><text fill="#000000" font-family="sans-serif" font-size="20" lengthAdjust="spacing" textLength="11" x="1201.5322" y="1443.3983">1</text></g><!--link CustomerRepresentative to CustomerRepresentativeStatus--><g id="link_CustomerRepresentative_CustomerRepresentativeStatus"><path codeLine="103" d="M1363.21,1369.0145 C1383.2,1396.2245 1406.06,1427.3445 1423.87,1451.5945 " fill="none" id="CustomerRepresentative-to-CustomerRepresentativeStatus" style="stroke:#181818;stroke-width:1.0;"/><polygon fill="#181818" points="1426.91,1455.7245,1424.8089,1446.1024,1423.9513,1451.6939,1418.3599,1450.8363,1426.91,1455.7245" style="stroke:#181818;stroke-width:1.0;"/><text fill="#000000" font-family="sans-serif" font-size="20" lengthAdjust="spacing" textLength="53" x="1402.21" y="1420.6563">status</text><text fill="#000000" font-family="sans-serif" font-size="20" lengthAdjust="spacing" textLength="11" x="1410.6825" y="1443.3983">1</text></g><!--link Repositories to Repositories--><g id="link_Repositories_Repositories"><path codeLine="106" d="M1428.74,589.1545 C1450.58,593.2345 1463.71,598.9845 1463.71,606.3945 C1463.71,613.2245 1452.55,618.6445 1433.7,622.6445 " fill="none" id="Repositories-to-Repositories" style="stroke:#181818;stroke-width:1.0;"/><polygon fill="#181818" points="1428.74,623.6345,1438.346,625.808,1433.6445,622.6622,1436.7903,617.9607,1428.74,623.6345" style="stroke:#181818;stroke-width:1.0;"/><text fill="#000000" font-family="sans-serif" font-size="20" lengthAdjust="spacing" textLength="72" x="1469.71" y="614.6563">instance</text></g><!--link Repositories to CustomerRepository--><g id="link_Repositories_CustomerRepository"><path codeLine="107" d="M954.05,694.9145 C944.95,704.3945 936.49,714.4345 929.21,724.8945 C909.53,753.2045 896.88,789.7645 889.1,819.6445 " fill="none" id="Repositories-to-CustomerRepository" style="stroke:#181818;stroke-width:1.0;"/><polygon fill="#181818" points="887.8,824.7645,893.8903,817.0245,889.0295,819.9181,886.1359,815.0573,887.8,824.7645" style="stroke:#181818;stroke-width:1.0;"/><text fill="#000000" font-family="sans-serif" font-size="20" lengthAdjust="spacing" textLength="208" x="930.21" y="746.6563">getCustomerRepository</text></g><!--link Repositories to CustomerRepresentativeRepository--><g id="link_Repositories_CustomerRepresentativeRepository"><path codeLine="108" d="M1157.39,695.1945 C1197.18,736.6945 1243.4,784.8945 1277.87,820.8445 " fill="none" id="Repositories-to-CustomerRepresentativeRepository" style="stroke:#181818;stroke-width:1.0;"/><polygon fill="#181818" points="1281.59,824.7245,1278.2405,815.4627,1278.1265,821.1184,1272.4707,821.0044,1281.59,824.7245" style="stroke:#181818;stroke-width:1.0;"/><text fill="#000000" font-family="sans-serif" font-size="20" lengthAdjust="spacing" textLength="340" x="1209.21" y="746.6563">getCustomerRepresentativeRepository</text></g><!--link CustomerRepository to Customer--><g id="link_CustomerRepository_Customer"><path codeLine="110" d="M837.39,926.0245 C813.58,954.9745 783.23,991.8845 757.32,1023.3845 " fill="none" id="CustomerRepository-to-Customer" style="stroke:#181818;stroke-width:1.0;"/><polygon fill="#181818" points="753.86,1027.5945,762.6576,1023.1672,757.0285,1023.7267,756.469,1018.0975,753.86,1027.5945" style="stroke:#181818;stroke-width:1.0;"/><text fill="#000000" font-family="sans-serif" font-size="20" lengthAdjust="spacing" textLength="91" x="796.21" y="992.6563">customers</text><text fill="#000000" font-family="sans-serif" font-size="20" lengthAdjust="spacing" textLength="31" x="726.588" y="1015.5152">0..*</text></g><!--link CustomerRepresentativeRepository to CustomerRepresentative--><g id="link_CustomerRepresentativeRepository_CustomerRepresentative"><path codeLine="111" d="M1327.83,925.9145 C1325.67,1002.6045 1321.53,1150.2845 1319.11,1236.7545 " fill="none" id="CustomerRepresentativeRepository-to-CustomerRepresentative" style="stroke:#181818;stroke-width:1.0;"/><polygon fill="#181818" points="1318.97,1241.8545,1323.2254,1232.9724,1319.1128,1236.8566,1315.2287,1232.744,1318.97,1241.8545" style="stroke:#181818;stroke-width:1.0;"/><text fill="#000000" font-family="sans-serif" font-size="20" lengthAdjust="spacing" textLength="135" x="1325.21" y="1099.6563">representatives</text><text fill="#000000" font-family="sans-serif" font-size="20" lengthAdjust="spacing" textLength="31" x="1286.4672" y="1229.3284">0..*</text></g><!--link AddCustomerRepresentativeUI to AddCustomerRepresentativeController--><g id="link_AddCustomerRepresentativeUI_AddCustomerRepresentativeController"><path codeLine="113" d="M735.21,127.0145 C735.21,151.7945 735.21,185.1245 735.21,214.5645 " fill="none" id="AddCustomerRepresentativeUI-to-AddCustomerRepresentativeController" style="stroke:#181818;stroke-width:1.0;stroke-dasharray:7.0,7.0;"/><polygon fill="#181818" points="735.21,219.6245,739.21,210.6245,735.21,214.6245,731.21,210.6245,735.21,219.6245" style="stroke:#181818;stroke-width:1.0;"/></g><!--link AddCustomerRepresentativeController to Repositories--><g id="link_AddCustomerRepresentativeController_Repositories"><path codeLine="114" d="M801.19,347.0445 C851.28,394.6245 920.92,460.7545 977.19,514.2045 " fill="none" id="AddCustomerRepresentativeController-to-Repositories" style="stroke:#181818;stroke-width:1.0;stroke-dasharray:7.0,7.0;"/><polygon fill="#181818" points="980.88,517.7045,977.1223,508.6007,977.2597,514.2559,971.6045,514.3933,980.88,517.7045" style="stroke:#181818;stroke-width:1.0;"/><text fill="#000000" font-family="sans-serif" font-size="20" lengthAdjust="spacing" textLength="103" x="859.21" y="400.6563">repositories</text></g><!--link AddCustomerRepresentativeController to CustomerListMapper--><g id="link_AddCustomerRepresentativeController_CustomerListMapper"><path codeLine="115" d="M432.85,307.9645 C285.62,326.3745 130.65,358.5145 85.21,413.8945 C6,510.4445 21.26,587.6245 85.21,694.8945 C115.26,745.2945 164.91,782.3945 216.77,809.3345 " fill="none" id="AddCustomerRepresentativeController-to-CustomerListMapper" style="stroke:#181818;stroke-width:1.0;stroke-dasharray:7.0,7.0;"/><polygon fill="#181818" points="221.47,811.7545,215.2969,804.0804,217.0239,809.4671,211.6371,811.1941,221.47,811.7545" style="stroke:#181818;stroke-width:1.0;"/><text fill="#000000" font-family="sans-serif" font-size="20" lengthAdjust="spacing" textLength="154" x="86.21" y="614.6563">customerListDTO</text></g><!--link AddCustomerRepresentativeController to CustomerRepresentativeRepository--><g id="link_AddCustomerRepresentativeController_CustomerRepresentativeRepository"><path codeLine="116" d="M1037.25,293.3945 C1239.8,306.4445 1481.32,338.0045 1548.21,413.8945 C1647.59,526.6345 1635.46,622.9745 1558.21,751.8945 C1540.32,781.7545 1512.4,804.7445 1482.11,822.2945 " fill="none" id="AddCustomerRepresentativeController-to-CustomerRepresentativeRepository" style="stroke:#181818;stroke-width:1.0;stroke-dasharray:7.0,7.0;"/><polygon fill="#181818" points="1477.63,824.8445,1487.4305,823.8696,1481.9756,822.3715,1483.4737,816.9167,1477.63,824.8445" style="stroke:#181818;stroke-width:1.0;"/><text fill="#000000" font-family="sans-serif" font-size="20" lengthAdjust="spacing" textLength="220" x="1620.21" y="614.6563">representativeRepository</text></g><!--link AddCustomerRepresentativeController to CustomerRepository--><g id="link_AddCustomerRepresentativeController_CustomerRepository"><path codeLine="117" d="M436.01,346.9045 C375.41,365.6645 324.31,388.1945 305.21,413.8945 C230.72,514.1345 231.43,594.1345 305.21,694.8945 C354.79,762.5945 402.57,737.3545 485.21,751.8945 C527.27,759.2945 636.17,748.1045 677.21,759.8945 C722.84,773.0045 769.18,798.4145 805.85,821.9745 " fill="none" id="AddCustomerRepresentativeController-to-CustomerRepository" style="stroke:#181818;stroke-width:1.0;stroke-dasharray:7.0,7.0;"/><polygon fill="#181818" points="810.27,824.8345,804.902,816.5771,806.0771,822.1106,800.5437,823.2857,810.27,824.8345" style="stroke:#181818;stroke-width:1.0;"/><text fill="#000000" font-family="sans-serif" font-size="20" lengthAdjust="spacing" textLength="176" x="306.21" y="614.6563">customerRepository</text></g><!--link CustomerDTO to CustomerListMapper--><g id="link_CustomerDTO_CustomerListMapper"><path codeLine="119" d="M557.55,644.5245 C531.9,686.5445 489.59,755.8345 458.12,807.3845 " fill="none" id="CustomerDTO-to-CustomerListMapper" style="stroke:#181818;stroke-width:1.0;stroke-dasharray:7.0,7.0;"/><polygon fill="#181818" points="455.5,811.6845,463.5963,806.0765,458.0997,807.4135,456.7627,801.917,455.5,811.6845" style="stroke:#181818;stroke-width:1.0;"/><text fill="#000000" font-family="sans-serif" font-size="20" lengthAdjust="spacing" textLength="123" x="509.21" y="746.6563">customerDTO</text></g><!--link CustomerRepositoryJpaImpl to CustomerRepository--><g id="link_CustomerRepositoryJpaImpl_CustomerRepository"><path codeLine="121" d="M1938.64,644.4245 C1907.38,661.8845 1868.26,681.7145 1831.21,694.8945 C1714.43,736.4345 1681.4,738.1745 1558.21,751.8945 C1502.88,758.0545 1110.52,743.8445 1057.21,759.8945 C1020.58,770.9245 984.24,791.8145 953.98,812.7645 " fill="none" id="CustomerRepositoryJpaImpl-to-CustomerRepository" style="stroke:#181818;stroke-width:1.0;stroke-dasharray:7.0,7.0;"/><polygon fill="none" points="957.7,818.7145,937.37,824.6845,949.54,807.3345,957.7,818.7145" style="stroke:#181818;stroke-width:1.0;"/></g><!--link CustomerRepresentativeRepositoryJpaImpl to CustomerRepresentativeRepository--><g id="link_CustomerRepresentativeRepositoryJpaImpl_CustomerRepresentativeRepository"><path codeLine="123" d="M2298.52,644.3945 C2256.99,661.3745 2206.08,680.8145 2159.21,694.8945 C1976.56,749.7845 1766.56,795.0345 1603.49,826.3745 " fill="none" id="CustomerRepresentativeRepositoryJpaImpl-to-CustomerRepresentativeRepository" style="stroke:#181818;stroke-width:1.0;stroke-dasharray:7.0,7.0;"/><polygon fill="none" points="1604.8,833.2545,1583.84,830.1245,1602.17,819.5045,1604.8,833.2545" style="stroke:#181818;stroke-width:1.0;"/></g><!--SRC=[dLVRJjmm47ttLrZRXovbYMWVBRGI0YfjrK9LBkycEz10uaIsbufIlgTVm1VmOnqdczXEd0lDmueaPyxC77kEWxfFHC4bpz8yleSrNSCDtwJwSoxqUV8RwATzea1J1GQaSqb5Be2GWiVt_1Rex3ZFU29czDrnUT4dGYXUzlt5cVkIRgyuvKhHeutIUGOIGVJW07-Novh0NC-a-lKPl_6Y03bE-ZLHki8YT_L7IK-TQvVg7DFEustC3cLkKIriZL8NNf0oKIRRWHEw7EdY1nIvIb3Gnr0dAw51tl0Occei7hknDu6ERa7NGMhUAQrTLsys2Gg4vZfvWEcv-NeTfcZ4Mb3flTWPhAT9be0QphtdOUSxNL5MGcakOYWrSS7z-jbyStTdsCU3eK45sqH1K7Zl-DiRvJWHEj6-5Bls_Lpm31PcIJ27Mj07hXSK9T0RlD6FXIDzkN1-CNGUMgVdG26jk96osbcg8il6armiAA2TfFZW9zhCwIQxnfbqM9GLcDgXxOfqM3MDnLpnT0FqxFeEOctTnUtZYkigqGWQn2PhsZWlTNnBn0KgFgcUxrij9e5FKRv9m1EZwxJyLle1VBT1VsLx17hQXZyxHyZbgcs1pIA6kIzNo7kvSijn-Oxmx99vcdOFYH5U6uZyzgQraoNSeg62F8LVVlZPJKqxmUrsQOeiXsdgU7MW5-duL9HaHHhT5JpSLjUTlXHyXI5XunmVvSb4MF1xTDIKl_vzVK6ZHW89bAkA7GsscTczlIMTVOoY3xC-Gs0jnTgnCsTUcV6qBg0UVbPxNnVI6cEszSL-O3czhBHD5rJ3oZ5ar9WP8JsTrTXclbbZUsCXBlq8j9fpLldeQ2dEg3FNSyS21sU-KPCGx_msmTu3HfFjcTm51hvxMFXe7emDVyMmAIUrjv1rP2d0lhU1aQtv4YIZgGC48nE0EWuvOHGjfpWQcU9wXgkrGgu1JUO8V89RaSn3ystzLhA1rPHzI_WVEInhtDrgnFsFPRHJqoNfj-Ke-XFAJCXKEsuJz6nZyWy0]--></g></svg>