<svg xmlns="http://www.w3.org/2000/svg" xmlns:xlink="http://www.w3.org/1999/xlink" contentStyleType="text/css" height="1051.2px" preserveAspectRatio="none" style="width:2751px;height:1051px;background:#FFFFFF;" version="1.1" viewBox="0 0 2751 1051" width="2751.6px" zoomAndPan="magnify"><defs/><g><!--cluster Domain--><g id="cluster_Domain"><path d="M1201.5,295.77 L1232.9027,295.77 A2.25,2.25 0 0 1 1234.4027,297.27 L1238.6027,310.5427 L2745.9,310.5427 A1.5,1.5 0 0 1 2747.4,312.0427 L2747.4,792.27 A1.5,1.5 0 0 1 2745.9,793.77 L1201.5,793.77 A1.5,1.5 0 0 1 1200,792.27 L1200,297.27 A1.5,1.5 0 0 1 1201.5,295.77 " fill="#DDDDDD" style="stroke:#000000;stroke-width:0.8999999999999999;"/><line style="stroke:#000000;stroke-width:0.8999999999999999;" x1="1200" x2="1238.6027" y1="310.5427" y2="310.5427"/><text fill="#000000" font-family="sans-serif" font-size="8.4" font-weight="bold" lengthAdjust="spacing" textLength="30.8027" x="1202.4" y="306.0345">Domain</text></g><!--cluster Repository --><g id="cluster_Repository "><path d="M1215.9,429.57 L1262.7082,429.57 A2.25,2.25 0 0 1 1264.2082,431.07 L1268.4082,444.3427 L1736.1,444.3427 A1.5,1.5 0 0 1 1737.6,445.8427 L1737.6,587.67 A1.5,1.5 0 0 1 1736.1,589.17 L1215.9,589.17 A1.5,1.5 0 0 1 1214.4,587.67 L1214.4,431.07 A1.5,1.5 0 0 1 1215.9,429.57 " fill="#DDDDDD" style="stroke:#000000;stroke-width:0.8999999999999999;"/><line style="stroke:#000000;stroke-width:0.8999999999999999;" x1="1214.4" x2="1268.4082" y1="444.3427" y2="444.3427"/><text fill="#000000" font-family="sans-serif" font-size="8.4" font-weight="bold" lengthAdjust="spacing" textLength="43.8744" x="1216.8" y="439.8345">Repository</text></g><!--cluster UI--><g id="cluster_UI"><path d="M5.1,365.97 L14.1,365.97 A2.25,2.25 0 0 1 15.6,367.47 L19.8,380.7427 L156.9,380.7427 A1.5,1.5 0 0 1 158.4,382.2427 L158.4,433.47 A1.5,1.5 0 0 1 156.9,434.97 L5.1,434.97 A1.5,1.5 0 0 1 3.6,433.47 L3.6,367.47 A1.5,1.5 0 0 1 5.1,365.97 " fill="#DDDDDD" style="stroke:#000000;stroke-width:0.8999999999999999;"/><line style="stroke:#000000;stroke-width:0.8999999999999999;" x1="3.6" x2="19.8" y1="380.7427" y2="380.7427"/><text fill="#000000" font-family="sans-serif" font-size="8.4" font-weight="bold" lengthAdjust="spacing" textLength="8.4" x="6" y="376.2345">UI</text></g><!--cluster Controller--><g id="cluster_Controller"><path d="M179.7,355.17 L220.4338,355.17 A2.25,2.25 0 0 1 221.9338,356.67 L226.1338,369.9427 L557.1,369.9427 A1.5,1.5 0 0 1 558.6,371.4427 L558.6,444.27 A1.5,1.5 0 0 1 557.1,445.77 L179.7,445.77 A1.5,1.5 0 0 1 178.2,444.27 L178.2,356.67 A1.5,1.5 0 0 1 179.7,355.17 " fill="#DDDDDD" style="stroke:#000000;stroke-width:0.8999999999999999;"/><line style="stroke:#000000;stroke-width:0.8999999999999999;" x1="178.2" x2="226.1338" y1="369.9427" y2="369.9427"/><text fill="#000000" font-family="sans-serif" font-size="8.4" font-weight="bold" lengthAdjust="spacing" textLength="40.1338" x="180.6" y="365.4345">Controller</text></g><!--cluster persistence.impl.jpa--><g id="cluster_persistence.impl.jpa"><path d="M923.7,110.97 L1005.0639,110.97 A2.25,2.25 0 0 1 1006.5639,112.47 L1010.7639,125.7427 L1376.4,125.7427 A1.5,1.5 0 0 1 1377.9,127.2427 L1377.9,279.87 A1.5,1.5 0 0 1 1376.4,281.37 L923.7,281.37 A1.5,1.5 0 0 1 922.2,279.87 L922.2,112.47 A1.5,1.5 0 0 1 923.7,110.97 " fill="#DDDDDD" style="stroke:#000000;stroke-width:0.8999999999999999;"/><line style="stroke:#000000;stroke-width:0.8999999999999999;" x1="922.2" x2="1010.7639" y1="125.7427" y2="125.7427"/><text fill="#000000" font-family="sans-serif" font-size="8.4" font-weight="bold" lengthAdjust="spacing" textLength="80.7639" x="924.6" y="121.2345">persistence.impl.jpa</text></g><!--cluster persistence.impl.inmemory--><g id="cluster_persistence.impl.inmemory"><path d="M923.7,808.17 L1033.0734,808.17 A2.25,2.25 0 0 1 1034.5734,809.67 L1038.7734,822.9427 L1388.4,822.9427 A1.5,1.5 0 0 1 1389.9,824.4427 L1389.9,977.07 A1.5,1.5 0 0 1 1388.4,978.57 L923.7,978.57 A1.5,1.5 0 0 1 922.2,977.07 L922.2,809.67 A1.5,1.5 0 0 1 923.7,808.17 " fill="#DDDDDD" style="stroke:#000000;stroke-width:0.8999999999999999;"/><line style="stroke:#000000;stroke-width:0.8999999999999999;" x1="922.2" x2="1038.7734" y1="822.9427" y2="822.9427"/><text fill="#000000" font-family="sans-serif" font-size="8.4" font-weight="bold" lengthAdjust="spacing" textLength="108.7734" x="924.6" y="818.4345">persistence.impl.inmemory</text></g><!--cluster persistence--><g id="cluster_persistence"><path d="M625.5,533.37 L672.7922,533.37 A2.25,2.25 0 0 1 674.2922,534.87 L678.4922,548.1427 L773.1,548.1427 A1.5,1.5 0 0 1 774.6,549.6427 L774.6,604.47 A1.5,1.5 0 0 1 773.1,605.97 L625.5,605.97 A1.5,1.5 0 0 1 624,604.47 L624,534.87 A1.5,1.5 0 0 1 625.5,533.37 " fill="#DDDDDD" style="stroke:#000000;stroke-width:0.8999999999999999;"/><line style="stroke:#000000;stroke-width:0.8999999999999999;" x1="624" x2="678.4922" y1="548.1427" y2="548.1427"/><text fill="#000000" font-family="sans-serif" font-size="8.4" font-weight="bold" lengthAdjust="spacing" textLength="46.6922" x="626.4" y="543.6345">persistence</text></g><!--class Customer--><g id="elem_Customer"><rect codeLine="25" fill="#F1F1F1" height="58.6945" id="Customer" rx="1.5" ry="1.5" style="stroke:#181818;stroke-width:0.3;" width="183.682" x="1819.2" y="446.37"/><ellipse cx="1890.2862" cy="459.7446" fill="#ADD1B2" rx="6.6" ry="6.6" style="stroke:#181818;stroke-width:0.6;"/><path d="M1891.9456,457.2696 Q1892.0394,457.1384 1892.1519,457.0727 Q1892.2644,457.0071 1892.3956,457.0071 Q1892.6206,457.0071 1892.7612,457.1665 Q1892.9019,457.3165 1892.9019,457.6821 L1892.9019,458.554 Q1892.9019,458.9196 1892.7612,459.079 Q1892.6206,459.2384 1892.3956,459.2384 Q1892.1894,459.2384 1892.0675,459.1165 Q1891.9456,459.004 1891.88,458.6946 Q1891.8519,458.479 1891.7394,458.3665 Q1891.5425,458.1415 1891.1769,458.0102 Q1890.8112,457.879 1890.4362,457.879 Q1889.9769,457.879 1889.5925,458.0759 Q1889.2175,458.2727 1888.9175,458.7227 Q1888.6269,459.1727 1888.6269,459.7915 L1888.6269,460.4477 Q1888.6269,461.1884 1889.1612,461.6852 Q1889.6956,462.1727 1890.6519,462.1727 Q1891.2144,462.1727 1891.6081,462.0227 Q1891.8425,461.929 1892.0956,461.6665 Q1892.255,461.5071 1892.3394,461.4602 Q1892.4331,461.4134 1892.555,461.4134 Q1892.7519,461.4134 1892.9019,461.5727 Q1893.0612,461.7227 1893.0612,461.929 Q1893.0612,462.1352 1892.855,462.379 Q1892.555,462.7259 1892.0769,462.9227 Q1891.43,463.1946 1890.6519,463.1946 Q1889.7425,463.1946 1889.0206,462.8196 Q1888.43,462.5196 1888.0175,461.8821 Q1887.605,461.2352 1887.605,460.4665 L1887.605,459.7727 Q1887.605,458.9759 1887.9706,458.2915 Q1888.3456,457.5977 1889.0019,457.2321 Q1889.6581,456.8571 1890.3987,456.8571 Q1890.8394,456.8571 1891.2237,456.9602 Q1891.6175,457.054 1891.9456,457.2696 Z " fill="#000000"/><text fill="#000000" font-family="sans-serif" font-size="7.2" font-style="italic" lengthAdjust="spacing" textLength="26.0156" x="1907.7832" y="457.1395">&#171;Entity&#187;</text><text fill="#000000" font-family="sans-serif" font-size="8.4" lengthAdjust="spacing" textLength="36.4096" x="1902.5862" y="468.011">Customer</text><line style="stroke:#181818;stroke-width:0.3;" x1="1819.8" x2="2002.282" y1="473.1192" y2="473.1192"/><line style="stroke:#181818;stroke-width:0.3;" x1="1819.8" x2="2002.282" y1="477.9192" y2="477.9192"/><ellipse cx="1825.8" cy="486.8055" fill="#84BE84" rx="1.8" ry="1.8" style="stroke:#038048;stroke-width:0.6;"/><text fill="#000000" font-family="sans-serif" font-size="8.4" lengthAdjust="spacing" textLength="163.398" x="1831.2" y="489.3837">Customer (name, address, vat, status, type)</text><ellipse cx="1825.8" cy="497.9782" fill="#84BE84" rx="1.8" ry="1.8" style="stroke:#038048;stroke-width:0.6;"/><text fill="#000000" font-family="sans-serif" font-size="8.4" lengthAdjust="spacing" textLength="168.082" x="1831.2" y="500.5563">addCustomerRepresentative (representative)</text></g><!--class CustomerRepresentative--><g id="elem_CustomerRepresentative"><rect codeLine="29" fill="#F1F1F1" height="47.5219" id="CustomerRepresentative" rx="1.5" ry="1.5" style="stroke:#181818;stroke-width:0.3;" width="320.0016" x="2092.8" y="625.47"/><ellipse cx="2203.7965" cy="638.8446" fill="#ADD1B2" rx="6.6" ry="6.6" style="stroke:#181818;stroke-width:0.6;"/><path d="M2205.4559,636.3696 Q2205.5496,636.2384 2205.6621,636.1727 Q2205.7746,636.1071 2205.9059,636.1071 Q2206.1309,636.1071 2206.2715,636.2665 Q2206.4121,636.4165 2206.4121,636.7821 L2206.4121,637.654 Q2206.4121,638.0196 2206.2715,638.179 Q2206.1309,638.3384 2205.9059,638.3384 Q2205.6996,638.3384 2205.5777,638.2165 Q2205.4559,638.104 2205.3902,637.7946 Q2205.3621,637.579 2205.2496,637.4665 Q2205.0527,637.2415 2204.6871,637.1102 Q2204.3215,636.979 2203.9465,636.979 Q2203.4871,636.979 2203.1027,637.1759 Q2202.7277,637.3727 2202.4277,637.8227 Q2202.1371,638.2727 2202.1371,638.8915 L2202.1371,639.5477 Q2202.1371,640.2884 2202.6715,640.7852 Q2203.2059,641.2727 2204.1621,641.2727 Q2204.7246,641.2727 2205.1184,641.1227 Q2205.3527,641.029 2205.6059,640.7665 Q2205.7652,640.6071 2205.8496,640.5602 Q2205.9434,640.5134 2206.0652,640.5134 Q2206.2621,640.5134 2206.4121,640.6727 Q2206.5715,640.8227 2206.5715,641.029 Q2206.5715,641.2352 2206.3652,641.479 Q2206.0652,641.8259 2205.5871,642.0227 Q2204.9402,642.2946 2204.1621,642.2946 Q2203.2527,642.2946 2202.5309,641.9196 Q2201.9402,641.6196 2201.5277,640.9821 Q2201.1152,640.3352 2201.1152,639.5665 L2201.1152,638.8727 Q2201.1152,638.0759 2201.4809,637.3915 Q2201.8559,636.6977 2202.5121,636.3321 Q2203.1684,635.9571 2203.909,635.9571 Q2204.3496,635.9571 2204.734,636.0602 Q2205.1277,636.154 2205.4559,636.3696 Z " fill="#000000"/><text fill="#000000" font-family="sans-serif" font-size="7.2" font-style="italic" lengthAdjust="spacing" textLength="26.0156" x="2249.543" y="636.2395">&#171;Entity&#187;</text><text fill="#000000" font-family="sans-serif" font-size="8.4" lengthAdjust="spacing" textLength="92.9086" x="2216.0965" y="647.111">CustomerRepresentative</text><line style="stroke:#181818;stroke-width:0.3;" x1="2093.4" x2="2412.2016" y1="652.2192" y2="652.2192"/><line style="stroke:#181818;stroke-width:0.3;" x1="2093.4" x2="2412.2016" y1="657.0192" y2="657.0192"/><ellipse cx="2099.4" cy="665.9055" fill="#84BE84" rx="1.8" ry="1.8" style="stroke:#038048;stroke-width:0.6;"/><text fill="#000000" font-family="sans-serif" font-size="8.4" lengthAdjust="spacing" textLength="304.4016" x="2104.8" y="668.4837">CustomerRepresentative (name, position, email, phoneNumber, status, customer)</text></g><!--class Address--><g id="elem_Address"><rect codeLine="33" fill="#F1F1F1" height="36.3492" id="Address" rx="1.5" ry="1.5" style="stroke:#181818;stroke-width:0.3;" width="66.0328" x="2219.7" y="433.47"/><ellipse cx="2228.7" cy="446.8446" fill="#ADD1B2" rx="6.6" ry="6.6" style="stroke:#181818;stroke-width:0.6;"/><path d="M2230.3594,444.3696 Q2230.4531,444.2384 2230.5656,444.1727 Q2230.6781,444.1071 2230.8094,444.1071 Q2231.0344,444.1071 2231.175,444.2665 Q2231.3156,444.4165 2231.3156,444.7821 L2231.3156,445.654 Q2231.3156,446.0196 2231.175,446.179 Q2231.0344,446.3384 2230.8094,446.3384 Q2230.6031,446.3384 2230.4813,446.2165 Q2230.3594,446.104 2230.2938,445.7946 Q2230.2656,445.579 2230.1531,445.4665 Q2229.9562,445.2415 2229.5906,445.1102 Q2229.225,444.979 2228.85,444.979 Q2228.3906,444.979 2228.0063,445.1759 Q2227.6313,445.3727 2227.3312,445.8227 Q2227.0406,446.2727 2227.0406,446.8915 L2227.0406,447.5477 Q2227.0406,448.2884 2227.575,448.7852 Q2228.1094,449.2727 2229.0656,449.2727 Q2229.6281,449.2727 2230.0219,449.1227 Q2230.2563,449.029 2230.5094,448.7665 Q2230.6688,448.6071 2230.7531,448.5602 Q2230.8469,448.5134 2230.9688,448.5134 Q2231.1656,448.5134 2231.3156,448.6727 Q2231.475,448.8227 2231.475,449.029 Q2231.475,449.2352 2231.2687,449.479 Q2230.9688,449.8259 2230.4906,450.0227 Q2229.8438,450.2946 2229.0656,450.2946 Q2228.1563,450.2946 2227.4344,449.9196 Q2226.8438,449.6196 2226.4313,448.9821 Q2226.0187,448.3352 2226.0187,447.5665 L2226.0187,446.8727 Q2226.0187,446.0759 2226.3844,445.3915 Q2226.7594,444.6977 2227.4156,444.3321 Q2228.0719,443.9571 2228.8125,443.9571 Q2229.2531,443.9571 2229.6375,444.0602 Q2230.0313,444.154 2230.3594,444.3696 Z " fill="#000000"/><text fill="#000000" font-family="sans-serif" font-size="7.2" font-style="italic" lengthAdjust="spacing" textLength="49.2328" x="2235.9" y="444.2395">&#171;Value Object&#187;</text><text fill="#000000" font-family="sans-serif" font-size="8.4" lengthAdjust="spacing" textLength="30.815" x="2245.1089" y="455.111">Address</text><line style="stroke:#181818;stroke-width:0.3;" x1="2220.3" x2="2285.1328" y1="460.2192" y2="460.2192"/><line style="stroke:#181818;stroke-width:0.3;" x1="2220.3" x2="2285.1328" y1="465.0192" y2="465.0192"/></g><!--class VatNumber--><g id="elem_VatNumber"><rect codeLine="36" fill="#F1F1F1" height="36.3492" id="VatNumber" rx="1.5" ry="1.5" style="stroke:#181818;stroke-width:0.3;" width="66.0328" x="2219.7" y="375.87"/><ellipse cx="2228.7" cy="389.2446" fill="#ADD1B2" rx="6.6" ry="6.6" style="stroke:#181818;stroke-width:0.6;"/><path d="M2230.3594,386.7696 Q2230.4531,386.6384 2230.5656,386.5727 Q2230.6781,386.5071 2230.8094,386.5071 Q2231.0344,386.5071 2231.175,386.6665 Q2231.3156,386.8165 2231.3156,387.1821 L2231.3156,388.054 Q2231.3156,388.4196 2231.175,388.579 Q2231.0344,388.7384 2230.8094,388.7384 Q2230.6031,388.7384 2230.4813,388.6165 Q2230.3594,388.504 2230.2938,388.1946 Q2230.2656,387.979 2230.1531,387.8665 Q2229.9562,387.6415 2229.5906,387.5102 Q2229.225,387.379 2228.85,387.379 Q2228.3906,387.379 2228.0063,387.5759 Q2227.6313,387.7727 2227.3312,388.2227 Q2227.0406,388.6727 2227.0406,389.2915 L2227.0406,389.9477 Q2227.0406,390.6884 2227.575,391.1852 Q2228.1094,391.6727 2229.0656,391.6727 Q2229.6281,391.6727 2230.0219,391.5227 Q2230.2563,391.429 2230.5094,391.1665 Q2230.6688,391.0071 2230.7531,390.9602 Q2230.8469,390.9134 2230.9688,390.9134 Q2231.1656,390.9134 2231.3156,391.0727 Q2231.475,391.2227 2231.475,391.429 Q2231.475,391.6352 2231.2687,391.879 Q2230.9688,392.2259 2230.4906,392.4227 Q2229.8438,392.6946 2229.0656,392.6946 Q2228.1563,392.6946 2227.4344,392.3196 Q2226.8438,392.0196 2226.4313,391.3821 Q2226.0187,390.7352 2226.0187,389.9665 L2226.0187,389.2727 Q2226.0187,388.4759 2226.3844,387.7915 Q2226.7594,387.0977 2227.4156,386.7321 Q2228.0719,386.3571 2228.8125,386.3571 Q2229.2531,386.3571 2229.6375,386.4602 Q2230.0313,386.554 2230.3594,386.7696 Z " fill="#000000"/><text fill="#000000" font-family="sans-serif" font-size="7.2" font-style="italic" lengthAdjust="spacing" textLength="49.2328" x="2235.9" y="386.6395">&#171;Value Object&#187;</text><text fill="#000000" font-family="sans-serif" font-size="8.4" lengthAdjust="spacing" textLength="42.484" x="2239.2744" y="397.511">VatNumber</text><line style="stroke:#181818;stroke-width:0.3;" x1="2220.3" x2="2285.1328" y1="402.6192" y2="402.6192"/><line style="stroke:#181818;stroke-width:0.3;" x1="2220.3" x2="2285.1328" y1="407.4192" y2="407.4192"/></g><!--class CustomerStatus--><g id="elem_CustomerStatus"><rect codeLine="39" fill="#F1F1F1" height="36.3492" id="CustomerStatus" rx="1.5" ry="1.5" style="stroke:#181818;stroke-width:0.3;" width="79.4232" x="2213.1" y="318.27"/><ellipse cx="2222.1" cy="331.6446" fill="#EB937F" rx="6.6" ry="6.6" style="stroke:#181818;stroke-width:0.6;"/><path d="M2221.4156,332.1227 L2221.4156,333.6227 L2224.0125,333.6227 L2224.0125,333.0696 Q2224.0125,332.704 2224.1531,332.5446 Q2224.3031,332.3852 2224.5281,332.3852 Q2224.7531,332.3852 2224.8937,332.5446 Q2225.0344,332.704 2225.0344,333.0696 L2225.0344,334.6446 L2220.2344,334.6446 Q2219.8594,334.6446 2219.7,334.504 Q2219.55,334.3634 2219.55,334.129 Q2219.55,333.904 2219.7094,333.7634 Q2219.8688,333.6227 2220.2344,333.6227 L2220.3937,333.6227 L2220.3937,329.629 L2220.2344,329.629 Q2219.8594,329.629 2219.7,329.4884 Q2219.55,329.3477 2219.55,329.1134 Q2219.55,328.8884 2219.7,328.7477 Q2219.8594,328.6071 2220.2344,328.6071 L2224.8094,328.6071 L2224.8094,330.1634 Q2224.8094,330.529 2224.6688,330.6884 Q2224.5375,330.8384 2224.3031,330.8384 Q2224.0781,330.8384 2223.9375,330.6884 Q2223.7969,330.529 2223.7969,330.1634 L2223.7969,329.629 L2221.4156,329.629 L2221.4156,331.1009 L2222.3063,331.1009 Q2222.3063,330.7071 2222.3813,330.5946 Q2222.5406,330.3509 2222.8219,330.3509 Q2223.0469,330.3509 2223.1875,330.5102 Q2223.3281,330.6602 2223.3281,331.0259 L2223.3281,332.2071 Q2223.3281,332.5352 2223.2531,332.6477 Q2223.0938,332.8821 2222.8219,332.8821 Q2222.5406,332.8821 2222.3813,332.6384 Q2222.3063,332.5259 2222.3063,332.1227 L2221.4156,332.1227 Z " fill="#000000"/><text fill="#000000" font-family="sans-serif" font-size="7.2" font-style="italic" lengthAdjust="spacing" textLength="49.2328" x="2235.9952" y="329.0395">&#171;Value Object&#187;</text><text fill="#000000" font-family="sans-serif" font-size="8.4" lengthAdjust="spacing" textLength="60.2232" x="2230.5" y="339.911">CustomerStatus</text><line style="stroke:#181818;stroke-width:0.3;" x1="2213.7" x2="2291.9232" y1="345.0192" y2="345.0192"/><line style="stroke:#181818;stroke-width:0.3;" x1="2213.7" x2="2291.9232" y1="349.8192" y2="349.8192"/></g><!--class CustomerType--><g id="elem_CustomerType"><rect codeLine="42" fill="#F1F1F1" height="36.3492" id="CustomerType" rx="1.5" ry="1.5" style="stroke:#181818;stroke-width:0.3;" width="74.284" x="2215.5" y="513.87"/><ellipse cx="2224.5" cy="527.2446" fill="#EB937F" rx="6.6" ry="6.6" style="stroke:#181818;stroke-width:0.6;"/><path d="M2223.8156,527.7227 L2223.8156,529.2227 L2226.4125,529.2227 L2226.4125,528.6696 Q2226.4125,528.304 2226.5531,528.1446 Q2226.7031,527.9852 2226.9281,527.9852 Q2227.1531,527.9852 2227.2938,528.1446 Q2227.4344,528.304 2227.4344,528.6696 L2227.4344,530.2446 L2222.6344,530.2446 Q2222.2594,530.2446 2222.1,530.104 Q2221.95,529.9634 2221.95,529.729 Q2221.95,529.504 2222.1094,529.3634 Q2222.2687,529.2227 2222.6344,529.2227 L2222.7938,529.2227 L2222.7938,525.229 L2222.6344,525.229 Q2222.2594,525.229 2222.1,525.0884 Q2221.95,524.9477 2221.95,524.7134 Q2221.95,524.4884 2222.1,524.3477 Q2222.2594,524.2071 2222.6344,524.2071 L2227.2094,524.2071 L2227.2094,525.7634 Q2227.2094,526.129 2227.0688,526.2884 Q2226.9375,526.4384 2226.7031,526.4384 Q2226.4781,526.4384 2226.3375,526.2884 Q2226.1969,526.129 2226.1969,525.7634 L2226.1969,525.229 L2223.8156,525.229 L2223.8156,526.7009 L2224.7062,526.7009 Q2224.7062,526.3071 2224.7813,526.1946 Q2224.9406,525.9509 2225.2219,525.9509 Q2225.4469,525.9509 2225.5875,526.1102 Q2225.7281,526.2602 2225.7281,526.6259 L2225.7281,527.8071 Q2225.7281,528.1352 2225.6531,528.2477 Q2225.4938,528.4821 2225.2219,528.4821 Q2224.9406,528.4821 2224.7813,528.2384 Q2224.7062,528.1259 2224.7062,527.7227 L2223.8156,527.7227 Z " fill="#000000"/><text fill="#000000" font-family="sans-serif" font-size="7.2" font-style="italic" lengthAdjust="spacing" textLength="49.2328" x="2235.8256" y="524.6395">&#171;Value Object&#187;</text><text fill="#000000" font-family="sans-serif" font-size="8.4" lengthAdjust="spacing" textLength="55.084" x="2232.9" y="535.511">CustomerType</text><line style="stroke:#181818;stroke-width:0.3;" x1="2216.1" x2="2289.184" y1="540.6192" y2="540.6192"/><line style="stroke:#181818;stroke-width:0.3;" x1="2216.1" x2="2289.184" y1="545.4192" y2="545.4192"/></g><!--class Position--><g id="elem_Position"><rect codeLine="45" fill="#F1F1F1" height="36.3492" id="Position" rx="1.5" ry="1.5" style="stroke:#181818;stroke-width:0.3;" width="66.0328" x="2534.1" y="689.67"/><ellipse cx="2543.1" cy="703.0446" fill="#ADD1B2" rx="6.6" ry="6.6" style="stroke:#181818;stroke-width:0.6;"/><path d="M2544.7594,700.5696 Q2544.8531,700.4384 2544.9656,700.3727 Q2545.0781,700.3071 2545.2094,700.3071 Q2545.4344,700.3071 2545.575,700.4665 Q2545.7156,700.6165 2545.7156,700.9821 L2545.7156,701.854 Q2545.7156,702.2196 2545.575,702.379 Q2545.4344,702.5384 2545.2094,702.5384 Q2545.0031,702.5384 2544.8813,702.4165 Q2544.7594,702.304 2544.6938,701.9946 Q2544.6656,701.779 2544.5531,701.6665 Q2544.3563,701.4415 2543.9906,701.3102 Q2543.625,701.179 2543.25,701.179 Q2542.7906,701.179 2542.4063,701.3759 Q2542.0313,701.5727 2541.7313,702.0227 Q2541.4406,702.4727 2541.4406,703.0915 L2541.4406,703.7477 Q2541.4406,704.4884 2541.975,704.9852 Q2542.5094,705.4727 2543.4656,705.4727 Q2544.0281,705.4727 2544.4219,705.3227 Q2544.6563,705.229 2544.9094,704.9665 Q2545.0688,704.8071 2545.1531,704.7602 Q2545.2469,704.7134 2545.3688,704.7134 Q2545.5656,704.7134 2545.7156,704.8727 Q2545.875,705.0227 2545.875,705.229 Q2545.875,705.4352 2545.6688,705.679 Q2545.3688,706.0259 2544.8906,706.2227 Q2544.2438,706.4946 2543.4656,706.4946 Q2542.5563,706.4946 2541.8344,706.1196 Q2541.2438,705.8196 2540.8312,705.1821 Q2540.4188,704.5352 2540.4188,703.7665 L2540.4188,703.0727 Q2540.4188,702.2759 2540.7844,701.5915 Q2541.1594,700.8977 2541.8156,700.5321 Q2542.4719,700.1571 2543.2125,700.1571 Q2543.6531,700.1571 2544.0375,700.2602 Q2544.4313,700.354 2544.7594,700.5696 Z " fill="#000000"/><text fill="#000000" font-family="sans-serif" font-size="7.2" font-style="italic" lengthAdjust="spacing" textLength="49.2328" x="2550.3" y="700.4395">&#171;Value Object&#187;</text><text fill="#000000" font-family="sans-serif" font-size="8.4" lengthAdjust="spacing" textLength="29.884" x="2559.9744" y="711.311">Position</text><line style="stroke:#181818;stroke-width:0.3;" x1="2534.7" x2="2599.5328" y1="716.4192" y2="716.4192"/><line style="stroke:#181818;stroke-width:0.3;" x1="2534.7" x2="2599.5328" y1="721.2192" y2="721.2192"/></g><!--class Name--><g id="elem_Name"><rect codeLine="48" fill="#F1F1F1" height="36.3492" id="Name" rx="1.5" ry="1.5" style="stroke:#181818;stroke-width:0.3;" width="66.0328" x="2671.8" y="551.07"/><ellipse cx="2680.8" cy="564.4446" fill="#ADD1B2" rx="6.6" ry="6.6" style="stroke:#181818;stroke-width:0.6;"/><path d="M2682.4594,561.9696 Q2682.5531,561.8384 2682.6656,561.7727 Q2682.7781,561.7071 2682.9094,561.7071 Q2683.1344,561.7071 2683.275,561.8665 Q2683.4156,562.0165 2683.4156,562.3821 L2683.4156,563.254 Q2683.4156,563.6196 2683.275,563.779 Q2683.1344,563.9384 2682.9094,563.9384 Q2682.7031,563.9384 2682.5812,563.8165 Q2682.4594,563.704 2682.3937,563.3946 Q2682.3656,563.179 2682.2531,563.0665 Q2682.0563,562.8415 2681.6906,562.7102 Q2681.325,562.579 2680.95,562.579 Q2680.4906,562.579 2680.1063,562.7759 Q2679.7313,562.9727 2679.4313,563.4227 Q2679.1406,563.8727 2679.1406,564.4915 L2679.1406,565.1477 Q2679.1406,565.8884 2679.675,566.3852 Q2680.2094,566.8727 2681.1656,566.8727 Q2681.7281,566.8727 2682.1219,566.7227 Q2682.3563,566.629 2682.6094,566.3665 Q2682.7687,566.2071 2682.8531,566.1602 Q2682.9469,566.1134 2683.0688,566.1134 Q2683.2656,566.1134 2683.4156,566.2727 Q2683.575,566.4227 2683.575,566.629 Q2683.575,566.8352 2683.3688,567.079 Q2683.0688,567.4259 2682.5906,567.6227 Q2681.9438,567.8946 2681.1656,567.8946 Q2680.2563,567.8946 2679.5344,567.5196 Q2678.9438,567.2196 2678.5313,566.5821 Q2678.1188,565.9352 2678.1188,565.1665 L2678.1188,564.4727 Q2678.1188,563.6759 2678.4844,562.9915 Q2678.8594,562.2977 2679.5156,561.9321 Q2680.1719,561.5571 2680.9125,561.5571 Q2681.3531,561.5571 2681.7375,561.6602 Q2682.1313,561.754 2682.4594,561.9696 Z " fill="#000000"/><text fill="#000000" font-family="sans-serif" font-size="7.2" font-style="italic" lengthAdjust="spacing" textLength="49.2328" x="2688" y="561.8395">&#171;Value Object&#187;</text><text fill="#000000" font-family="sans-serif" font-size="8.4" lengthAdjust="spacing" textLength="22.4068" x="2701.413" y="572.711">Name</text><line style="stroke:#181818;stroke-width:0.3;" x1="2672.4" x2="2737.2328" y1="577.8192" y2="577.8192"/><line style="stroke:#181818;stroke-width:0.3;" x1="2672.4" x2="2737.2328" y1="582.6192" y2="582.6192"/></g><!--class Email--><g id="elem_Email"><rect codeLine="51" fill="#F1F1F1" height="36.3492" id="Email" rx="1.5" ry="1.5" style="stroke:#181818;stroke-width:0.3;" width="66.0328" x="2534.1" y="747.27"/><ellipse cx="2543.1" cy="760.6446" fill="#ADD1B2" rx="6.6" ry="6.6" style="stroke:#181818;stroke-width:0.6;"/><path d="M2544.7594,758.1696 Q2544.8531,758.0384 2544.9656,757.9727 Q2545.0781,757.9071 2545.2094,757.9071 Q2545.4344,757.9071 2545.575,758.0665 Q2545.7156,758.2165 2545.7156,758.5821 L2545.7156,759.454 Q2545.7156,759.8196 2545.575,759.979 Q2545.4344,760.1384 2545.2094,760.1384 Q2545.0031,760.1384 2544.8813,760.0165 Q2544.7594,759.904 2544.6938,759.5946 Q2544.6656,759.379 2544.5531,759.2665 Q2544.3563,759.0415 2543.9906,758.9102 Q2543.625,758.779 2543.25,758.779 Q2542.7906,758.779 2542.4063,758.9759 Q2542.0313,759.1727 2541.7313,759.6227 Q2541.4406,760.0727 2541.4406,760.6915 L2541.4406,761.3477 Q2541.4406,762.0884 2541.975,762.5852 Q2542.5094,763.0727 2543.4656,763.0727 Q2544.0281,763.0727 2544.4219,762.9227 Q2544.6563,762.829 2544.9094,762.5665 Q2545.0688,762.4071 2545.1531,762.3602 Q2545.2469,762.3134 2545.3688,762.3134 Q2545.5656,762.3134 2545.7156,762.4727 Q2545.875,762.6227 2545.875,762.829 Q2545.875,763.0352 2545.6688,763.279 Q2545.3688,763.6259 2544.8906,763.8227 Q2544.2438,764.0946 2543.4656,764.0946 Q2542.5563,764.0946 2541.8344,763.7196 Q2541.2438,763.4196 2540.8312,762.7821 Q2540.4188,762.1352 2540.4188,761.3665 L2540.4188,760.6727 Q2540.4188,759.8759 2540.7844,759.1915 Q2541.1594,758.4977 2541.8156,758.1321 Q2542.4719,757.7571 2543.2125,757.7571 Q2543.6531,757.7571 2544.0375,757.8602 Q2544.4313,757.954 2544.7594,758.1696 Z " fill="#000000"/><text fill="#000000" font-family="sans-serif" font-size="7.2" font-style="italic" lengthAdjust="spacing" textLength="49.2328" x="2550.3" y="758.0395">&#171;Value Object&#187;</text><text fill="#000000" font-family="sans-serif" font-size="8.4" lengthAdjust="spacing" textLength="21.0041" x="2564.4144" y="768.911">Email</text><line style="stroke:#181818;stroke-width:0.3;" x1="2534.7" x2="2599.5328" y1="774.0192" y2="774.0192"/><line style="stroke:#181818;stroke-width:0.3;" x1="2534.7" x2="2599.5328" y1="778.8192" y2="778.8192"/></g><!--class PhoneNumber--><g id="elem_PhoneNumber"><rect codeLine="54" fill="#F1F1F1" height="36.3492" id="PhoneNumber" rx="1.5" ry="1.5" style="stroke:#181818;stroke-width:0.3;" width="73.3652" x="2530.5" y="520.47"/><ellipse cx="2539.5" cy="533.8446" fill="#ADD1B2" rx="6.6" ry="6.6" style="stroke:#181818;stroke-width:0.6;"/><path d="M2541.1594,531.3696 Q2541.2531,531.2384 2541.3656,531.1727 Q2541.4781,531.1071 2541.6094,531.1071 Q2541.8344,531.1071 2541.975,531.2665 Q2542.1156,531.4165 2542.1156,531.7821 L2542.1156,532.654 Q2542.1156,533.0196 2541.975,533.179 Q2541.8344,533.3384 2541.6094,533.3384 Q2541.4031,533.3384 2541.2813,533.2165 Q2541.1594,533.104 2541.0938,532.7946 Q2541.0656,532.579 2540.9531,532.4665 Q2540.7563,532.2415 2540.3906,532.1102 Q2540.025,531.979 2539.65,531.979 Q2539.1906,531.979 2538.8063,532.1759 Q2538.4313,532.3727 2538.1313,532.8227 Q2537.8406,533.2727 2537.8406,533.8915 L2537.8406,534.5477 Q2537.8406,535.2884 2538.375,535.7852 Q2538.9094,536.2727 2539.8656,536.2727 Q2540.4281,536.2727 2540.8219,536.1227 Q2541.0563,536.029 2541.3094,535.7665 Q2541.4688,535.6071 2541.5531,535.5602 Q2541.6469,535.5134 2541.7687,535.5134 Q2541.9656,535.5134 2542.1156,535.6727 Q2542.275,535.8227 2542.275,536.029 Q2542.275,536.2352 2542.0688,536.479 Q2541.7687,536.8259 2541.2906,537.0227 Q2540.6437,537.2946 2539.8656,537.2946 Q2538.9562,537.2946 2538.2344,536.9196 Q2537.6437,536.6196 2537.2313,535.9821 Q2536.8188,535.3352 2536.8188,534.5665 L2536.8188,533.8727 Q2536.8188,533.0759 2537.1844,532.3915 Q2537.5594,531.6977 2538.2156,531.3321 Q2538.8719,530.9571 2539.6125,530.9571 Q2540.0531,530.9571 2540.4375,531.0602 Q2540.8312,531.154 2541.1594,531.3696 Z " fill="#000000"/><text fill="#000000" font-family="sans-serif" font-size="7.2" font-style="italic" lengthAdjust="spacing" textLength="49.2328" x="2550.3662" y="531.2395">&#171;Value Object&#187;</text><text fill="#000000" font-family="sans-serif" font-size="8.4" lengthAdjust="spacing" textLength="54.1652" x="2547.9" y="542.111">PhoneNumber</text><line style="stroke:#181818;stroke-width:0.3;" x1="2531.1" x2="2603.2652" y1="547.2192" y2="547.2192"/><line style="stroke:#181818;stroke-width:0.3;" x1="2531.1" x2="2603.2652" y1="552.0192" y2="552.0192"/></g><!--class CustomerRepresentativeStatus--><g id="elem_CustomerRepresentativeStatus"><rect codeLine="58" fill="#F1F1F1" height="36.3492" id="CustomerRepresentativeStatus" rx="1.5" ry="1.5" style="stroke:#181818;stroke-width:0.3;" width="135.9223" x="2499" y="578.07"/><ellipse cx="2508" cy="591.4446" fill="#EB937F" rx="6.6" ry="6.6" style="stroke:#181818;stroke-width:0.6;"/><path d="M2507.3156,591.9227 L2507.3156,593.4227 L2509.9125,593.4227 L2509.9125,592.8696 Q2509.9125,592.504 2510.0531,592.3446 Q2510.2031,592.1852 2510.4281,592.1852 Q2510.6531,592.1852 2510.7938,592.3446 Q2510.9344,592.504 2510.9344,592.8696 L2510.9344,594.4446 L2506.1344,594.4446 Q2505.7594,594.4446 2505.6,594.304 Q2505.45,594.1634 2505.45,593.929 Q2505.45,593.704 2505.6094,593.5634 Q2505.7687,593.4227 2506.1344,593.4227 L2506.2938,593.4227 L2506.2938,589.429 L2506.1344,589.429 Q2505.7594,589.429 2505.6,589.2884 Q2505.45,589.1477 2505.45,588.9134 Q2505.45,588.6884 2505.6,588.5477 Q2505.7594,588.4071 2506.1344,588.4071 L2510.7094,588.4071 L2510.7094,589.9634 Q2510.7094,590.329 2510.5688,590.4884 Q2510.4375,590.6384 2510.2031,590.6384 Q2509.9781,590.6384 2509.8375,590.4884 Q2509.6969,590.329 2509.6969,589.9634 L2509.6969,589.429 L2507.3156,589.429 L2507.3156,590.9009 L2508.2062,590.9009 Q2508.2062,590.5071 2508.2813,590.3946 Q2508.4406,590.1509 2508.7219,590.1509 Q2508.9469,590.1509 2509.0875,590.3102 Q2509.2281,590.4602 2509.2281,590.8259 L2509.2281,592.0071 Q2509.2281,592.3352 2509.1531,592.4477 Q2508.9938,592.6821 2508.7219,592.6821 Q2508.4406,592.6821 2508.2813,592.4384 Q2508.2062,592.3259 2508.2062,591.9227 L2507.3156,591.9227 Z " fill="#000000"/><text fill="#000000" font-family="sans-serif" font-size="7.2" font-style="italic" lengthAdjust="spacing" textLength="49.2328" x="2550.1447" y="588.8395">&#171;Value Object&#187;</text><text fill="#000000" font-family="sans-serif" font-size="8.4" lengthAdjust="spacing" textLength="116.7223" x="2516.4" y="599.711">CustomerRepresentativeStatus</text><line style="stroke:#181818;stroke-width:0.3;" x1="2499.6" x2="2634.3223" y1="604.8192" y2="604.8192"/><line style="stroke:#181818;stroke-width:0.3;" x1="2499.6" x2="2634.3223" y1="609.6192" y2="609.6192"/></g><!--class ShodroneUser--><g id="elem_ShodroneUser"><rect codeLine="61" fill="#F1F1F1" height="47.5219" id="ShodroneUser" rx="1.5" ry="1.5" style="stroke:#181818;stroke-width:0.3;" width="179.9332" x="1821" y="625.47"/><ellipse cx="1881.334" cy="638.8446" fill="#ADD1B2" rx="6.6" ry="6.6" style="stroke:#181818;stroke-width:0.6;"/><path d="M1882.9934,636.3696 Q1883.0871,636.2384 1883.1996,636.1727 Q1883.3121,636.1071 1883.4434,636.1071 Q1883.6684,636.1071 1883.809,636.2665 Q1883.9496,636.4165 1883.9496,636.7821 L1883.9496,637.654 Q1883.9496,638.0196 1883.809,638.179 Q1883.6684,638.3384 1883.4434,638.3384 Q1883.2371,638.3384 1883.1152,638.2165 Q1882.9934,638.104 1882.9277,637.7946 Q1882.8996,637.579 1882.7871,637.4665 Q1882.5902,637.2415 1882.2246,637.1102 Q1881.859,636.979 1881.484,636.979 Q1881.0246,636.979 1880.6402,637.1759 Q1880.2652,637.3727 1879.9652,637.8227 Q1879.6746,638.2727 1879.6746,638.8915 L1879.6746,639.5477 Q1879.6746,640.2884 1880.209,640.7852 Q1880.7434,641.2727 1881.6996,641.2727 Q1882.2621,641.2727 1882.6559,641.1227 Q1882.8902,641.029 1883.1434,640.7665 Q1883.3027,640.6071 1883.3871,640.5602 Q1883.4809,640.5134 1883.6027,640.5134 Q1883.7996,640.5134 1883.9496,640.6727 Q1884.109,640.8227 1884.109,641.029 Q1884.109,641.2352 1883.9027,641.479 Q1883.6027,641.8259 1883.1246,642.0227 Q1882.4777,642.2946 1881.6996,642.2946 Q1880.7902,642.2946 1880.0684,641.9196 Q1879.4777,641.6196 1879.0652,640.9821 Q1878.6527,640.3352 1878.6527,639.5665 L1878.6527,638.8727 Q1878.6527,638.0759 1879.0184,637.3915 Q1879.3934,636.6977 1880.0496,636.3321 Q1880.7059,635.9571 1881.4465,635.9571 Q1881.8871,635.9571 1882.2715,636.0602 Q1882.6652,636.154 1882.9934,636.3696 Z " fill="#000000"/><text fill="#000000" font-family="sans-serif" font-size="7.2" font-style="italic" lengthAdjust="spacing" textLength="26.0156" x="1907.7088" y="636.2395">&#171;Entity&#187;</text><text fill="#000000" font-family="sans-serif" font-size="8.4" lengthAdjust="spacing" textLength="54.1652" x="1893.634" y="647.111">ShodroneUser</text><line style="stroke:#181818;stroke-width:0.3;" x1="1821.6" x2="2000.3332" y1="652.2192" y2="652.2192"/><line style="stroke:#181818;stroke-width:0.3;" x1="1821.6" x2="2000.3332" y1="657.0192" y2="657.0192"/><ellipse cx="1827.6" cy="665.9055" fill="#84BE84" rx="1.8" ry="1.8" style="stroke:#038048;stroke-width:0.6;"/><text fill="#000000" font-family="sans-serif" font-size="8.4" lengthAdjust="spacing" textLength="164.3332" x="1833" y="668.4837">ShodroneUser (phoneNumber, systemUser)</text></g><!--class SystemUser--><g id="elem_SystemUser"><rect codeLine="65" fill="#F1F1F1" height="36.3492" id="SystemUser" rx="1.5" ry="1.5" style="stroke:#181818;stroke-width:0.3;" width="64.9406" x="2220.3" y="693.87"/><ellipse cx="2229.3" cy="707.2446" fill="#ADD1B2" rx="6.6" ry="6.6" style="stroke:#181818;stroke-width:0.6;"/><path d="M2230.9594,704.7696 Q2231.0531,704.6384 2231.1656,704.5727 Q2231.2781,704.5071 2231.4094,704.5071 Q2231.6344,704.5071 2231.775,704.6665 Q2231.9156,704.8165 2231.9156,705.1821 L2231.9156,706.054 Q2231.9156,706.4196 2231.775,706.579 Q2231.6344,706.7384 2231.4094,706.7384 Q2231.2031,706.7384 2231.0812,706.6165 Q2230.9594,706.504 2230.8937,706.1946 Q2230.8656,705.979 2230.7531,705.8665 Q2230.5563,705.6415 2230.1906,705.5102 Q2229.825,705.379 2229.45,705.379 Q2228.9906,705.379 2228.6063,705.5759 Q2228.2313,705.7727 2227.9313,706.2227 Q2227.6406,706.6727 2227.6406,707.2915 L2227.6406,707.9477 Q2227.6406,708.6884 2228.175,709.1852 Q2228.7094,709.6727 2229.6656,709.6727 Q2230.2281,709.6727 2230.6219,709.5227 Q2230.8563,709.429 2231.1094,709.1665 Q2231.2687,709.0071 2231.3531,708.9602 Q2231.4469,708.9134 2231.5688,708.9134 Q2231.7656,708.9134 2231.9156,709.0727 Q2232.075,709.2227 2232.075,709.429 Q2232.075,709.6352 2231.8688,709.879 Q2231.5688,710.2259 2231.0906,710.4227 Q2230.4438,710.6946 2229.6656,710.6946 Q2228.7563,710.6946 2228.0344,710.3196 Q2227.4438,710.0196 2227.0313,709.3821 Q2226.6188,708.7352 2226.6188,707.9665 L2226.6188,707.2727 Q2226.6188,706.4759 2226.9844,705.7915 Q2227.3594,705.0977 2228.0156,704.7321 Q2228.6719,704.3571 2229.4125,704.3571 Q2229.8531,704.3571 2230.2375,704.4602 Q2230.6313,704.554 2230.9594,704.7696 Z " fill="#000000"/><text fill="#000000" font-family="sans-serif" font-size="7.2" font-style="italic" lengthAdjust="spacing" textLength="26.0156" x="2247.5625" y="704.6395">&#171;Entity&#187;</text><text fill="#000000" font-family="sans-serif" font-size="8.4" lengthAdjust="spacing" textLength="45.7406" x="2237.7" y="715.511">SystemUser</text><line style="stroke:#181818;stroke-width:0.3;" x1="2220.9" x2="2284.6406" y1="720.6192" y2="720.6192"/><line style="stroke:#181818;stroke-width:0.3;" x1="2220.9" x2="2284.6406" y1="725.4192" y2="725.4192"/></g><!--class CustomerRepository--><g id="elem_CustomerRepository"><rect codeLine="8" fill="#F1F1F1" height="47.5219" id="CustomerRepository" rx="1.5" ry="1.5" style="stroke:#181818;stroke-width:0.3;" width="195.8063" x="1532.4" y="452.07"/><ellipse cx="1589.4732" cy="465.4446" fill="#B4A7E5" rx="6.6" ry="6.6" style="stroke:#181818;stroke-width:0.6;"/><path d="M1590.0451,463.429 L1590.0451,467.4227 L1591.0764,467.4227 Q1591.442,467.4227 1591.6014,467.5634 Q1591.7607,467.704 1591.7607,467.9384 Q1591.7607,468.1634 1591.6014,468.304 Q1591.442,468.4446 1591.0764,468.4446 L1587.992,468.4446 Q1587.6264,468.4446 1587.467,468.304 Q1587.3076,468.1634 1587.3076,467.929 Q1587.3076,467.704 1587.467,467.5634 Q1587.6264,467.4227 1587.992,467.4227 L1589.0232,467.4227 L1589.0232,463.429 L1587.992,463.429 Q1587.6264,463.429 1587.467,463.2884 Q1587.3076,463.1477 1587.3076,462.9134 Q1587.3076,462.6884 1587.467,462.5477 Q1587.6264,462.4071 1587.992,462.4071 L1591.0764,462.4071 Q1591.442,462.4071 1591.6014,462.5477 Q1591.7607,462.6884 1591.7607,462.9134 Q1591.7607,463.1477 1591.6014,463.2884 Q1591.442,463.429 1591.0764,463.429 L1590.0451,463.429 Z " fill="#000000"/><text fill="#000000" font-family="sans-serif" font-size="7.2" font-style="italic" lengthAdjust="spacing" textLength="42.423" x="1618.8416" y="462.8395">&#171;Repository&#187;</text><text fill="#000000" font-family="sans-serif" font-size="8.4" font-style="italic" lengthAdjust="spacing" textLength="76.5598" x="1601.7732" y="473.711">CustomerRepository</text><line style="stroke:#181818;stroke-width:0.3;" x1="1533" x2="1727.6063" y1="478.8192" y2="478.8192"/><line style="stroke:#181818;stroke-width:0.3;" x1="1533" x2="1727.6063" y1="483.6192" y2="483.6192"/><ellipse cx="1539" cy="492.5055" fill="#84BE84" rx="1.8" ry="1.8" style="stroke:#038048;stroke-width:0.6;"/><text fill="#000000" font-family="sans-serif" font-size="8.4" lengthAdjust="spacing" textLength="180.2062" x="1544.4" y="495.0837">findAllCreatedCustomers() : Iterable&lt;Customer&gt;</text></g><!--class RepositoryFactory--><g id="elem_RepositoryFactory"><rect codeLine="12" fill="#F1F1F1" height="69.8672" id="RepositoryFactory" rx="1.5" ry="1.5" style="stroke:#181818;stroke-width:0.3;" width="179.4738" x="1224" y="478.17"/><ellipse cx="1277.1091" cy="491.5446" fill="#B4A7E5" rx="6.6" ry="6.6" style="stroke:#181818;stroke-width:0.6;"/><path d="M1277.681,489.529 L1277.681,493.5227 L1278.7122,493.5227 Q1279.0778,493.5227 1279.2372,493.6634 Q1279.3966,493.804 1279.3966,494.0384 Q1279.3966,494.2634 1279.2372,494.404 Q1279.0778,494.5446 1278.7122,494.5446 L1275.6278,494.5446 Q1275.2622,494.5446 1275.1028,494.404 Q1274.9435,494.2634 1274.9435,494.029 Q1274.9435,493.804 1275.1028,493.6634 Q1275.2622,493.5227 1275.6278,493.5227 L1276.6591,493.5227 L1276.6591,489.529 L1275.6278,489.529 Q1275.2622,489.529 1275.1028,489.3884 Q1274.9435,489.2477 1274.9435,489.0134 Q1274.9435,488.7884 1275.1028,488.6477 Q1275.2622,488.5071 1275.6278,488.5071 L1278.7122,488.5071 Q1279.0778,488.5071 1279.2372,488.6477 Q1279.3966,488.7884 1279.3966,489.0134 Q1279.3966,489.2477 1279.2372,489.3884 Q1279.0778,489.529 1278.7122,489.529 L1277.681,489.529 Z " fill="#000000"/><text fill="#000000" font-family="sans-serif" font-size="7.2" font-style="italic" lengthAdjust="spacing" textLength="32.0133" x="1307.4803" y="488.9395">&#171;Factory&#187;</text><text fill="#000000" font-family="sans-serif" font-size="8.4" font-style="italic" lengthAdjust="spacing" textLength="68.1557" x="1289.4091" y="499.811">RepositoryFactory</text><line style="stroke:#181818;stroke-width:0.3;" x1="1224.6" x2="1402.8738" y1="504.9192" y2="504.9192"/><line style="stroke:#181818;stroke-width:0.3;" x1="1224.6" x2="1402.8738" y1="509.7192" y2="509.7192"/><rect fill="#F24D5C" height="3.6" style="stroke:#C82930;stroke-width:0.6;" width="3.6" x="1228.8" y="516.8055"/><text fill="#000000" font-family="sans-serif" font-size="8.4" lengthAdjust="spacing" textLength="73.7502" x="1236" y="521.1837">RepositoryFactory()</text><ellipse cx="1230.6" cy="529.7782" fill="#84BE84" rx="1.8" ry="1.8" style="stroke:#038048;stroke-width:0.6;"/><text fill="#000000" font-family="sans-serif" font-size="8.4" lengthAdjust="spacing" textLength="127.899" x="1236" y="532.3563">customers() : CustomerRepository</text><ellipse cx="1230.6" cy="540.9509" fill="#84BE84" rx="1.8" ry="1.8" style="stroke:#038048;stroke-width:0.6;"/><text fill="#000000" font-family="sans-serif" font-size="8.4" lengthAdjust="spacing" textLength="163.8738" x="1236" y="543.529">shodroneUsers() : ShodroneUserRepository</text></g><!--class ShodroneUserRepository--><g id="elem_ShodroneUserRepository"><rect codeLine="18" fill="#F1F1F1" height="58.6945" id="ShodroneUserRepository" rx="1.5" ry="1.5" style="stroke:#181818;stroke-width:0.3;" width="181.8076" x="1539.3" y="520.77"/><ellipse cx="1580.4961" cy="534.1446" fill="#B4A7E5" rx="6.6" ry="6.6" style="stroke:#181818;stroke-width:0.6;"/><path d="M1581.068,532.129 L1581.068,536.1227 L1582.0992,536.1227 Q1582.4648,536.1227 1582.6242,536.2634 Q1582.7836,536.404 1582.7836,536.6384 Q1582.7836,536.8634 1582.6242,537.004 Q1582.4648,537.1446 1582.0992,537.1446 L1579.0148,537.1446 Q1578.6492,537.1446 1578.4898,537.004 Q1578.3305,536.8634 1578.3305,536.629 Q1578.3305,536.404 1578.4898,536.2634 Q1578.6492,536.1227 1579.0148,536.1227 L1580.0461,536.1227 L1580.0461,532.129 L1579.0148,532.129 Q1578.6492,532.129 1578.4898,531.9884 Q1578.3305,531.8477 1578.3305,531.6134 Q1578.3305,531.3884 1578.4898,531.2477 Q1578.6492,531.1071 1579.0148,531.1071 L1582.0992,531.1071 Q1582.4648,531.1071 1582.6242,531.2477 Q1582.7836,531.3884 1582.7836,531.6134 Q1582.7836,531.8477 1582.6242,531.9884 Q1582.4648,532.129 1582.0992,532.129 L1581.068,532.129 Z " fill="#000000"/><text fill="#000000" font-family="sans-serif" font-size="7.2" font-style="italic" lengthAdjust="spacing" textLength="42.423" x="1618.7423" y="531.5395">&#171;Repository&#187;</text><text fill="#000000" font-family="sans-serif" font-size="8.4" font-style="italic" lengthAdjust="spacing" textLength="94.3154" x="1592.7961" y="542.411">ShodroneUserRepository</text><line style="stroke:#181818;stroke-width:0.3;" x1="1539.9" x2="1720.5076" y1="547.5192" y2="547.5192"/><line style="stroke:#181818;stroke-width:0.3;" x1="1539.9" x2="1720.5076" y1="552.3192" y2="552.3192"/><ellipse cx="1545.9" cy="561.2055" fill="#84BE84" rx="1.8" ry="1.8" style="stroke:#038048;stroke-width:0.6;"/><text fill="#000000" font-family="sans-serif" font-size="8.4" lengthAdjust="spacing" textLength="166.2076" x="1551.3" y="563.7837">findByUsername(username) : ShodroneUser</text><ellipse cx="1545.9" cy="572.3782" fill="#84BE84" rx="1.8" ry="1.8" style="stroke:#038048;stroke-width:0.6;"/><text fill="#000000" font-family="sans-serif" font-size="8.4" lengthAdjust="spacing" textLength="131.1844" x="1551.3" y="574.9563">findByEmail(email) : ShodroneUser</text></g><!--class AddCustomerRepresentativeUI--><g id="elem_AddCustomerRepresentativeUI"><rect codeLine="70" fill="#F1F1F1" height="36.3492" id="AddCustomerRepresentativeUI" rx="1.5" ry="1.5" style="stroke:#181818;stroke-width:0.3;" width="135.4547" x="13.2" y="388.47"/><ellipse cx="22.2" cy="401.8446" fill="#ADD1B2" rx="6.6" ry="6.6" style="stroke:#181818;stroke-width:0.6;"/><path d="M23.8594,399.3696 Q23.9531,399.2384 24.0656,399.1727 Q24.1781,399.1071 24.3094,399.1071 Q24.5344,399.1071 24.675,399.2665 Q24.8156,399.4165 24.8156,399.7821 L24.8156,400.654 Q24.8156,401.0196 24.675,401.179 Q24.5344,401.3384 24.3094,401.3384 Q24.1031,401.3384 23.9813,401.2165 Q23.8594,401.104 23.7938,400.7946 Q23.7656,400.579 23.6531,400.4665 Q23.4563,400.2415 23.0906,400.1102 Q22.725,399.979 22.35,399.979 Q21.8906,399.979 21.5062,400.1759 Q21.1312,400.3727 20.8313,400.8227 Q20.5406,401.2727 20.5406,401.8915 L20.5406,402.5477 Q20.5406,403.2884 21.075,403.7852 Q21.6094,404.2727 22.5656,404.2727 Q23.1281,404.2727 23.5219,404.1227 Q23.7562,404.029 24.0094,403.7665 Q24.1688,403.6071 24.2531,403.5602 Q24.3469,403.5134 24.4688,403.5134 Q24.6656,403.5134 24.8156,403.6727 Q24.975,403.8227 24.975,404.029 Q24.975,404.2352 24.7688,404.479 Q24.4688,404.8259 23.9906,405.0227 Q23.3438,405.2946 22.5656,405.2946 Q21.6563,405.2946 20.9344,404.9196 Q20.3438,404.6196 19.9313,403.9821 Q19.5188,403.3352 19.5188,402.5665 L19.5188,401.8727 Q19.5188,401.0759 19.8844,400.3915 Q20.2594,399.6977 20.9156,399.3321 Q21.5719,398.9571 22.3125,398.9571 Q22.7531,398.9571 23.1375,399.0602 Q23.5313,399.154 23.8594,399.3696 Z " fill="#000000"/><text fill="#000000" font-family="sans-serif" font-size="7.2" font-style="italic" lengthAdjust="spacing" textLength="15.2086" x="81.123" y="399.2395">&#171;UI&#187;</text><text fill="#000000" font-family="sans-serif" font-size="8.4" lengthAdjust="spacing" textLength="116.2547" x="30.6" y="410.111">AddCustomerRepresentativeUI</text><line style="stroke:#181818;stroke-width:0.3;" x1="13.8" x2="148.0547" y1="415.2192" y2="415.2192"/><line style="stroke:#181818;stroke-width:0.3;" x1="13.8" x2="148.0547" y1="420.0192" y2="420.0192"/></g><!--class AddCustomerRepresentativeController--><g id="elem_AddCustomerRepresentativeController"><rect codeLine="76" fill="#F1F1F1" height="58.6945" id="AddCustomerRepresentativeController" rx="1.5" ry="1.5" style="stroke:#181818;stroke-width:0.3;" width="361.0992" x="187.8" y="377.37"/><ellipse cx="293.6654" cy="390.7446" fill="#ADD1B2" rx="6.6" ry="6.6" style="stroke:#181818;stroke-width:0.6;"/><path d="M295.3248,388.2696 Q295.4186,388.1384 295.5311,388.0727 Q295.6436,388.0071 295.7748,388.0071 Q295.9998,388.0071 296.1404,388.1665 Q296.2811,388.3165 296.2811,388.6821 L296.2811,389.554 Q296.2811,389.9196 296.1404,390.079 Q295.9998,390.2384 295.7748,390.2384 Q295.5686,390.2384 295.4467,390.1165 Q295.3248,390.004 295.2592,389.6946 Q295.2311,389.479 295.1186,389.3665 Q294.9217,389.1415 294.5561,389.0102 Q294.1904,388.879 293.8154,388.879 Q293.3561,388.879 292.9717,389.0759 Q292.5967,389.2727 292.2967,389.7227 Q292.0061,390.1727 292.0061,390.7915 L292.0061,391.4477 Q292.0061,392.1884 292.5404,392.6852 Q293.0748,393.1727 294.0311,393.1727 Q294.5936,393.1727 294.9873,393.0227 Q295.2217,392.929 295.4748,392.6665 Q295.6342,392.5071 295.7186,392.4602 Q295.8123,392.4134 295.9342,392.4134 Q296.1311,392.4134 296.2811,392.5727 Q296.4404,392.7227 296.4404,392.929 Q296.4404,393.1352 296.2342,393.379 Q295.9342,393.7259 295.4561,393.9227 Q294.8092,394.1946 294.0311,394.1946 Q293.1217,394.1946 292.3998,393.8196 Q291.8092,393.5196 291.3967,392.8821 Q290.9842,392.2352 290.9842,391.4665 L290.9842,390.7727 Q290.9842,389.9759 291.3498,389.2915 Q291.7248,388.5977 292.3811,388.2321 Q293.0373,387.8571 293.7779,387.8571 Q294.2186,387.8571 294.6029,387.9602 Q294.9967,388.054 295.3248,388.2696 Z " fill="#000000"/><text fill="#000000" font-family="sans-serif" font-size="7.2" font-style="italic" lengthAdjust="spacing" textLength="39.2203" x="358.4895" y="388.1395">&#171;Controller&#187;</text><text fill="#000000" font-family="sans-serif" font-size="8.4" lengthAdjust="spacing" textLength="144.2684" x="305.9654" y="399.011">AddCustomerRepresentativeController</text><line style="stroke:#181818;stroke-width:0.3;" x1="188.4" x2="548.2992" y1="404.1192" y2="404.1192"/><line style="stroke:#181818;stroke-width:0.3;" x1="188.4" x2="548.2992" y1="408.9192" y2="408.9192"/><ellipse cx="194.4" cy="417.8055" fill="#84BE84" rx="1.8" ry="1.8" style="stroke:#038048;stroke-width:0.6;"/><text fill="#000000" font-family="sans-serif" font-size="8.4" lengthAdjust="spacing" textLength="345.4992" x="199.8" y="420.3837">addCustomerRepresentative(customer, representative, username, password, phoneNumber)</text><ellipse cx="194.4" cy="428.9782" fill="#84BE84" rx="1.8" ry="1.8" style="stroke:#038048;stroke-width:0.6;"/><text fill="#000000" font-family="sans-serif" font-size="8.4" lengthAdjust="spacing" textLength="56.4703" x="199.8" y="431.5563">listCustomers()</text></g><!--class JpaCustomerRepository--><g id="elem_JpaCustomerRepository"><rect codeLine="83" fill="#F1F1F1" height="36.3492" id="JpaCustomerRepository" rx="1.5" ry="1.5" style="stroke:#181818;stroke-width:0.3;" width="109.3031" x="1259.1" y="224.07"/><ellipse cx="1268.1" cy="237.4446" fill="#ADD1B2" rx="6.6" ry="6.6" style="stroke:#181818;stroke-width:0.6;"/><path d="M1269.7594,234.9696 Q1269.8531,234.8384 1269.9656,234.7727 Q1270.0781,234.7071 1270.2094,234.7071 Q1270.4344,234.7071 1270.575,234.8665 Q1270.7156,235.0165 1270.7156,235.3821 L1270.7156,236.254 Q1270.7156,236.6196 1270.575,236.779 Q1270.4344,236.9384 1270.2094,236.9384 Q1270.0031,236.9384 1269.8813,236.8165 Q1269.7594,236.704 1269.6938,236.3946 Q1269.6656,236.179 1269.5531,236.0665 Q1269.3563,235.8415 1268.9906,235.7102 Q1268.625,235.579 1268.25,235.579 Q1267.7906,235.579 1267.4063,235.7759 Q1267.0313,235.9727 1266.7313,236.4227 Q1266.4406,236.8727 1266.4406,237.4915 L1266.4406,238.1477 Q1266.4406,238.8884 1266.975,239.3852 Q1267.5094,239.8727 1268.4656,239.8727 Q1269.0281,239.8727 1269.4219,239.7227 Q1269.6563,239.629 1269.9094,239.3665 Q1270.0688,239.2071 1270.1531,239.1602 Q1270.2469,239.1134 1270.3687,239.1134 Q1270.5656,239.1134 1270.7156,239.2727 Q1270.875,239.4227 1270.875,239.629 Q1270.875,239.8352 1270.6688,240.079 Q1270.3687,240.4259 1269.8906,240.6227 Q1269.2437,240.8946 1268.4656,240.8946 Q1267.5562,240.8946 1266.8344,240.5196 Q1266.2437,240.2196 1265.8313,239.5821 Q1265.4188,238.9352 1265.4188,238.1665 L1265.4188,237.4727 Q1265.4188,236.6759 1265.7844,235.9915 Q1266.1594,235.2977 1266.8156,234.9321 Q1267.4719,234.5571 1268.2125,234.5571 Q1268.6531,234.5571 1269.0375,234.6602 Q1269.4312,234.754 1269.7594,234.9696 Z " fill="#000000"/><text fill="#000000" font-family="sans-serif" font-size="7.2" font-style="italic" lengthAdjust="spacing" textLength="42.423" x="1300.34" y="234.8395">&#171;Repository&#187;</text><text fill="#000000" font-family="sans-serif" font-size="8.4" lengthAdjust="spacing" textLength="90.1031" x="1276.5" y="245.711">JpaCustomerRepository</text><line style="stroke:#181818;stroke-width:0.3;" x1="1259.7" x2="1367.8031" y1="250.8192" y2="250.8192"/><line style="stroke:#181818;stroke-width:0.3;" x1="1259.7" x2="1367.8031" y1="255.6192" y2="255.6192"/></g><!--class JpaRepositoryFactory--><g id="elem_JpaRepositoryFactory"><rect codeLine="86" fill="#F1F1F1" height="58.6945" id="JpaRepositoryFactory" rx="1.5" ry="1.5" style="stroke:#181818;stroke-width:0.3;" width="143.499" x="951" y="212.97"/><ellipse cx="979.35" cy="226.3446" fill="#ADD1B2" rx="6.6" ry="6.6" style="stroke:#181818;stroke-width:0.6;"/><path d="M981.0094,223.8696 Q981.1031,223.7384 981.2156,223.6727 Q981.3281,223.6071 981.4594,223.6071 Q981.6844,223.6071 981.825,223.7665 Q981.9656,223.9165 981.9656,224.2821 L981.9656,225.154 Q981.9656,225.5196 981.825,225.679 Q981.6844,225.8384 981.4594,225.8384 Q981.2531,225.8384 981.1312,225.7165 Q981.0094,225.604 980.9437,225.2946 Q980.9156,225.079 980.8031,224.9665 Q980.6062,224.7415 980.2406,224.6102 Q979.875,224.479 979.5,224.479 Q979.0406,224.479 978.6563,224.6759 Q978.2813,224.8727 977.9812,225.3227 Q977.6906,225.7727 977.6906,226.3915 L977.6906,227.0477 Q977.6906,227.7884 978.225,228.2852 Q978.7594,228.7727 979.7156,228.7727 Q980.2781,228.7727 980.6719,228.6227 Q980.9063,228.529 981.1594,228.2665 Q981.3187,228.1071 981.4031,228.0602 Q981.4969,228.0134 981.6188,228.0134 Q981.8156,228.0134 981.9656,228.1727 Q982.125,228.3227 982.125,228.529 Q982.125,228.7352 981.9187,228.979 Q981.6188,229.3259 981.1406,229.5227 Q980.4938,229.7946 979.7156,229.7946 Q978.8063,229.7946 978.0844,229.4196 Q977.4938,229.1196 977.0813,228.4821 Q976.6687,227.8352 976.6687,227.0665 L976.6687,226.3727 Q976.6687,225.5759 977.0344,224.8915 Q977.4094,224.1977 978.0656,223.8321 Q978.7219,223.4571 979.4625,223.4571 Q979.9031,223.4571 980.2875,223.5602 Q980.6813,223.654 981.0094,223.8696 Z " fill="#000000"/><text fill="#000000" font-family="sans-serif" font-size="7.2" font-style="italic" lengthAdjust="spacing" textLength="32.0133" x="1016.4929" y="223.7395">&#171;Factory&#187;</text><text fill="#000000" font-family="sans-serif" font-size="8.4" lengthAdjust="spacing" textLength="81.699" x="991.65" y="234.611">JpaRepositoryFactory</text><line style="stroke:#181818;stroke-width:0.3;" x1="951.6" x2="1093.899" y1="239.7192" y2="239.7192"/><line style="stroke:#181818;stroke-width:0.3;" x1="951.6" x2="1093.899" y1="244.5192" y2="244.5192"/><rect fill="#F24D5C" height="3.6" style="stroke:#C82930;stroke-width:0.6;" width="3.6" x="955.8" y="251.6055"/><text fill="#000000" font-family="sans-serif" font-size="8.4" lengthAdjust="spacing" textLength="87.2936" x="963" y="255.9837">JpaRepositoryFactory()</text><ellipse cx="957.6" cy="264.5782" fill="#84BE84" rx="1.8" ry="1.8" style="stroke:#038048;stroke-width:0.6;"/><text fill="#000000" font-family="sans-serif" font-size="8.4" lengthAdjust="spacing" textLength="127.899" x="963" y="267.1563">customers() : CustomerRepository</text></g><!--class JpaShodroneUserRepository--><g id="elem_JpaShodroneUserRepository"><rect codeLine="91" fill="#F1F1F1" height="58.6945" id="JpaShodroneUserRepository" rx="1.5" ry="1.5" style="stroke:#181818;stroke-width:0.3;" width="181.8076" x="931.8" y="133.17"/><ellipse cx="966.2244" cy="146.5446" fill="#ADD1B2" rx="6.6" ry="6.6" style="stroke:#181818;stroke-width:0.6;"/><path d="M967.8838,144.0696 Q967.9775,143.9384 968.09,143.8727 Q968.2025,143.8071 968.3338,143.8071 Q968.5588,143.8071 968.6994,143.9665 Q968.84,144.1165 968.84,144.4821 L968.84,145.354 Q968.84,145.7196 968.6994,145.879 Q968.5588,146.0384 968.3338,146.0384 Q968.1275,146.0384 968.0057,145.9165 Q967.8838,145.804 967.8182,145.4946 Q967.79,145.279 967.6775,145.1665 Q967.4807,144.9415 967.115,144.8102 Q966.7494,144.679 966.3744,144.679 Q965.915,144.679 965.5307,144.8759 Q965.1557,145.0727 964.8557,145.5227 Q964.565,145.9727 964.565,146.5915 L964.565,147.2477 Q964.565,147.9884 965.0994,148.4852 Q965.6338,148.9727 966.59,148.9727 Q967.1525,148.9727 967.5463,148.8227 Q967.7807,148.729 968.0338,148.4665 Q968.1932,148.3071 968.2775,148.2602 Q968.3713,148.2134 968.4932,148.2134 Q968.69,148.2134 968.84,148.3727 Q968.9994,148.5227 968.9994,148.729 Q968.9994,148.9352 968.7932,149.179 Q968.4932,149.5259 968.015,149.7227 Q967.3682,149.9946 966.59,149.9946 Q965.6807,149.9946 964.9588,149.6196 Q964.3682,149.3196 963.9557,148.6821 Q963.5432,148.0352 963.5432,147.2665 L963.5432,146.5727 Q963.5432,145.7759 963.9088,145.0915 Q964.2838,144.3977 964.94,144.0321 Q965.5963,143.6571 966.3369,143.6571 Q966.7775,143.6571 967.1619,143.7602 Q967.5557,143.854 967.8838,144.0696 Z " fill="#000000"/><text fill="#000000" font-family="sans-serif" font-size="7.2" font-style="italic" lengthAdjust="spacing" textLength="42.423" x="1011.2423" y="143.9395">&#171;Repository&#187;</text><text fill="#000000" font-family="sans-serif" font-size="8.4" lengthAdjust="spacing" textLength="107.8588" x="978.5244" y="154.811">JpaShodroneUserRepository</text><line style="stroke:#181818;stroke-width:0.3;" x1="932.4" x2="1113.0076" y1="159.9192" y2="159.9192"/><line style="stroke:#181818;stroke-width:0.3;" x1="932.4" x2="1113.0076" y1="164.7192" y2="164.7192"/><ellipse cx="938.4" cy="173.6055" fill="#84BE84" rx="1.8" ry="1.8" style="stroke:#038048;stroke-width:0.6;"/><text fill="#000000" font-family="sans-serif" font-size="8.4" lengthAdjust="spacing" textLength="166.2076" x="943.8" y="176.1837">findByUsername(username) : ShodroneUser</text><ellipse cx="938.4" cy="184.7782" fill="#84BE84" rx="1.8" ry="1.8" style="stroke:#038048;stroke-width:0.6;"/><text fill="#000000" font-family="sans-serif" font-size="8.4" lengthAdjust="spacing" textLength="131.1844" x="943.8" y="187.3563">findByEmail(email) : ShodroneUser</text></g><!--class InMemoryCustomerRepository--><g id="elem_InMemoryCustomerRepository"><rect codeLine="99" fill="#F1F1F1" height="36.3492" id="InMemoryCustomerRepository" rx="1.5" ry="1.5" style="stroke:#181818;stroke-width:0.3;" width="133.1004" x="1247.1" y="836.07"/><ellipse cx="1256.1" cy="849.4446" fill="#ADD1B2" rx="6.6" ry="6.6" style="stroke:#181818;stroke-width:0.6;"/><path d="M1257.7594,846.9696 Q1257.8531,846.8384 1257.9656,846.7727 Q1258.0781,846.7071 1258.2094,846.7071 Q1258.4344,846.7071 1258.575,846.8665 Q1258.7156,847.0165 1258.7156,847.3821 L1258.7156,848.254 Q1258.7156,848.6196 1258.575,848.779 Q1258.4344,848.9384 1258.2094,848.9384 Q1258.0031,848.9384 1257.8813,848.8165 Q1257.7594,848.704 1257.6938,848.3946 Q1257.6656,848.179 1257.5531,848.0665 Q1257.3563,847.8415 1256.9906,847.7102 Q1256.625,847.579 1256.25,847.579 Q1255.7906,847.579 1255.4063,847.7759 Q1255.0313,847.9727 1254.7313,848.4227 Q1254.4406,848.8727 1254.4406,849.4915 L1254.4406,850.1477 Q1254.4406,850.8884 1254.975,851.3852 Q1255.5094,851.8727 1256.4656,851.8727 Q1257.0281,851.8727 1257.4219,851.7227 Q1257.6563,851.629 1257.9094,851.3665 Q1258.0688,851.2071 1258.1531,851.1602 Q1258.2469,851.1134 1258.3687,851.1134 Q1258.5656,851.1134 1258.7156,851.2727 Q1258.875,851.4227 1258.875,851.629 Q1258.875,851.8352 1258.6688,852.079 Q1258.3687,852.4259 1257.8906,852.6227 Q1257.2437,852.8946 1256.4656,852.8946 Q1255.5562,852.8946 1254.8344,852.5196 Q1254.2437,852.2196 1253.8313,851.5821 Q1253.4188,850.9352 1253.4188,850.1665 L1253.4188,849.4727 Q1253.4188,848.6759 1253.7844,847.9915 Q1254.1594,847.2977 1254.8156,846.9321 Q1255.4719,846.5571 1256.2125,846.5571 Q1256.6531,846.5571 1257.0375,846.6602 Q1257.4312,846.754 1257.7594,846.9696 Z " fill="#000000"/><text fill="#000000" font-family="sans-serif" font-size="7.2" font-style="italic" lengthAdjust="spacing" textLength="42.423" x="1300.2387" y="846.8395">&#171;Repository&#187;</text><text fill="#000000" font-family="sans-serif" font-size="8.4" lengthAdjust="spacing" textLength="113.9004" x="1264.5" y="857.711">InMemoryCustomerRepository</text><line style="stroke:#181818;stroke-width:0.3;" x1="1247.7" x2="1379.6004" y1="862.8192" y2="862.8192"/><line style="stroke:#181818;stroke-width:0.3;" x1="1247.7" x2="1379.6004" y1="867.6192" y2="867.6192"/></g><!--class InMemoryRepositoryFactory--><g id="elem_InMemoryRepositoryFactory"><rect codeLine="102" fill="#F1F1F1" height="58.6945" id="InMemoryRepositoryFactory" rx="1.5" ry="1.5" style="stroke:#181818;stroke-width:0.3;" width="143.499" x="951" y="830.37"/><ellipse cx="968.4612" cy="843.7446" fill="#ADD1B2" rx="6.6" ry="6.6" style="stroke:#181818;stroke-width:0.6;"/><path d="M970.1206,841.2696 Q970.2144,841.1384 970.3269,841.0727 Q970.4394,841.0071 970.5706,841.0071 Q970.7956,841.0071 970.9362,841.1665 Q971.0769,841.3165 971.0769,841.6821 L971.0769,842.554 Q971.0769,842.9196 970.9362,843.079 Q970.7956,843.2384 970.5706,843.2384 Q970.3644,843.2384 970.2425,843.1165 Q970.1206,843.004 970.055,842.6946 Q970.0269,842.479 969.9144,842.3665 Q969.7175,842.1415 969.3519,842.0102 Q968.9862,841.879 968.6112,841.879 Q968.1519,841.879 967.7675,842.0759 Q967.3925,842.2727 967.0925,842.7227 Q966.8019,843.1727 966.8019,843.7915 L966.8019,844.4477 Q966.8019,845.1884 967.3362,845.6852 Q967.8706,846.1727 968.8269,846.1727 Q969.3894,846.1727 969.7831,846.0227 Q970.0175,845.929 970.2706,845.6665 Q970.43,845.5071 970.5144,845.4602 Q970.6081,845.4134 970.73,845.4134 Q970.9269,845.4134 971.0769,845.5727 Q971.2362,845.7227 971.2362,845.929 Q971.2362,846.1352 971.03,846.379 Q970.73,846.7259 970.2519,846.9227 Q969.605,847.1946 968.8269,847.1946 Q967.9175,847.1946 967.1956,846.8196 Q966.605,846.5196 966.1925,845.8821 Q965.78,845.2352 965.78,844.4665 L965.78,843.7727 Q965.78,842.9759 966.1456,842.2915 Q966.5206,841.5977 967.1769,841.2321 Q967.8331,840.8571 968.5737,840.8571 Q969.0144,840.8571 969.3987,840.9602 Q969.7925,841.054 970.1206,841.2696 Z " fill="#000000"/><text fill="#000000" font-family="sans-serif" font-size="7.2" font-style="italic" lengthAdjust="spacing" textLength="32.0133" x="1015.483" y="841.1395">&#171;Factory&#187;</text><text fill="#000000" font-family="sans-serif" font-size="8.4" lengthAdjust="spacing" textLength="105.4963" x="978.7415" y="852.011">InMemoryRepositoryFactory</text><line style="stroke:#181818;stroke-width:0.3;" x1="951.6" x2="1093.899" y1="857.1192" y2="857.1192"/><line style="stroke:#181818;stroke-width:0.3;" x1="951.6" x2="1093.899" y1="861.9192" y2="861.9192"/><rect fill="#F24D5C" height="3.6" style="stroke:#C82930;stroke-width:0.6;" width="3.6" x="955.8" y="869.0055"/><text fill="#000000" font-family="sans-serif" font-size="8.4" lengthAdjust="spacing" textLength="111.0908" x="963" y="873.3837">InMemoryRepositoryFactory()</text><ellipse cx="957.6" cy="881.9782" fill="#84BE84" rx="1.8" ry="1.8" style="stroke:#038048;stroke-width:0.6;"/><text fill="#000000" font-family="sans-serif" font-size="8.4" lengthAdjust="spacing" textLength="127.899" x="963" y="884.5563">customers() : CustomerRepository</text></g><!--class InMemoryShodroneUserRepository--><g id="elem_InMemoryShodroneUserRepository"><rect codeLine="107" fill="#F1F1F1" height="58.6945" id="InMemoryShodroneUserRepository" rx="1.5" ry="1.5" style="stroke:#181818;stroke-width:0.3;" width="181.8076" x="931.8" y="910.17"/><ellipse cx="954.7282" cy="923.5446" fill="#ADD1B2" rx="6.6" ry="6.6" style="stroke:#181818;stroke-width:0.6;"/><path d="M956.3876,921.0696 Q956.4813,920.9384 956.5938,920.8727 Q956.7063,920.8071 956.8376,920.8071 Q957.0626,920.8071 957.2032,920.9665 Q957.3438,921.1165 957.3438,921.4821 L957.3438,922.354 Q957.3438,922.7196 957.2032,922.879 Q957.0626,923.0384 956.8376,923.0384 Q956.6313,923.0384 956.5095,922.9165 Q956.3876,922.804 956.322,922.4946 Q956.2938,922.279 956.1813,922.1665 Q955.9845,921.9415 955.6188,921.8102 Q955.2532,921.679 954.8782,921.679 Q954.4188,921.679 954.0345,921.8759 Q953.6595,922.0727 953.3595,922.5227 Q953.0688,922.9727 953.0688,923.5915 L953.0688,924.2477 Q953.0688,924.9884 953.6032,925.4852 Q954.1376,925.9727 955.0938,925.9727 Q955.6563,925.9727 956.0501,925.8227 Q956.2845,925.729 956.5376,925.4665 Q956.697,925.3071 956.7813,925.2602 Q956.8751,925.2134 956.997,925.2134 Q957.1938,925.2134 957.3438,925.3727 Q957.5032,925.5227 957.5032,925.729 Q957.5032,925.9352 957.297,926.179 Q956.997,926.5259 956.5188,926.7227 Q955.872,926.9946 955.0938,926.9946 Q954.1845,926.9946 953.4626,926.6196 Q952.872,926.3196 952.4595,925.6821 Q952.047,925.0352 952.047,924.2665 L952.047,923.5727 Q952.047,922.7759 952.4126,922.0915 Q952.7876,921.3977 953.4438,921.0321 Q954.1001,920.6571 954.8407,920.6571 Q955.2813,920.6571 955.6657,920.7602 Q956.0595,920.854 956.3876,921.0696 Z " fill="#000000"/><text fill="#000000" font-family="sans-serif" font-size="7.2" font-style="italic" lengthAdjust="spacing" textLength="42.423" x="1010.8399" y="920.9395">&#171;Repository&#187;</text><text fill="#000000" font-family="sans-serif" font-size="8.4" lengthAdjust="spacing" textLength="131.6561" x="966.2234" y="931.811">InMemoryShodroneUserRepository</text><line style="stroke:#181818;stroke-width:0.3;" x1="932.4" x2="1113.0076" y1="936.9192" y2="936.9192"/><line style="stroke:#181818;stroke-width:0.3;" x1="932.4" x2="1113.0076" y1="941.7192" y2="941.7192"/><ellipse cx="938.4" cy="950.6055" fill="#84BE84" rx="1.8" ry="1.8" style="stroke:#038048;stroke-width:0.6;"/><text fill="#000000" font-family="sans-serif" font-size="8.4" lengthAdjust="spacing" textLength="166.2076" x="943.8" y="953.1837">findByUsername(username) : ShodroneUser</text><ellipse cx="938.4" cy="961.7782" fill="#84BE84" rx="1.8" ry="1.8" style="stroke:#038048;stroke-width:0.6;"/><text fill="#000000" font-family="sans-serif" font-size="8.4" lengthAdjust="spacing" textLength="131.1844" x="943.8" y="964.3563">findByEmail(email) : ShodroneUser</text></g><!--class PersistenceContext--><g id="elem_PersistenceContext"><rect codeLine="114" fill="#F1F1F1" height="39.9727" id="PersistenceContext" rx="1.5" ry="1.5" style="stroke:#181818;stroke-width:0.3;" width="131.3707" x="633.6" y="555.87"/><ellipse cx="660.3176" cy="565.47" fill="#ADD1B2" rx="6.6" ry="6.6" style="stroke:#181818;stroke-width:0.6;"/><path d="M661.977,562.995 Q662.0707,562.8638 662.1832,562.7981 Q662.2957,562.7325 662.427,562.7325 Q662.652,562.7325 662.7926,562.8919 Q662.9332,563.0419 662.9332,563.4075 L662.9332,564.2794 Q662.9332,564.645 662.7926,564.8044 Q662.652,564.9638 662.427,564.9638 Q662.2207,564.9638 662.0988,564.8419 Q661.977,564.7294 661.9113,564.42 Q661.8832,564.2044 661.7707,564.0919 Q661.5738,563.8669 661.2082,563.7356 Q660.8426,563.6044 660.4676,563.6044 Q660.0082,563.6044 659.6238,563.8013 Q659.2488,563.9981 658.9488,564.4481 Q658.6582,564.8981 658.6582,565.5169 L658.6582,566.1731 Q658.6582,566.9138 659.1926,567.4106 Q659.727,567.8981 660.6832,567.8981 Q661.2457,567.8981 661.6395,567.7481 Q661.8738,567.6544 662.127,567.3919 Q662.2863,567.2325 662.3707,567.1856 Q662.4645,567.1388 662.5863,567.1388 Q662.7832,567.1388 662.9332,567.2981 Q663.0926,567.4481 663.0926,567.6544 Q663.0926,567.8606 662.8863,568.1044 Q662.5863,568.4513 662.1082,568.6481 Q661.4613,568.92 660.6832,568.92 Q659.7738,568.92 659.052,568.545 Q658.4613,568.245 658.0488,567.6075 Q657.6363,566.9606 657.6363,566.1919 L657.6363,565.4981 Q657.6363,564.7013 658.002,564.0169 Q658.377,563.3231 659.0332,562.9575 Q659.6895,562.5825 660.4301,562.5825 Q660.8707,562.5825 661.2551,562.6856 Q661.6488,562.7794 661.977,562.995 Z " fill="#000000"/><text fill="#000000" font-family="sans-serif" font-size="8.4" lengthAdjust="spacing" textLength="72.8355" x="672.6176" y="568.9481">PersistenceContext</text><line style="stroke:#181818;stroke-width:0.3;" x1="634.2" x2="764.3707" y1="575.07" y2="575.07"/><line style="stroke:#181818;stroke-width:0.3;" x1="634.2" x2="764.3707" y1="579.87" y2="579.87"/><text fill="#000000" font-family="sans-serif" font-size="8.4" lengthAdjust="spacing" textLength="124.1707" x="637.2" y="591.3345">repositories() : RepositoryFactory</text></g><!--link Customer to CustomerRepresentative--><g id="link_Customer_CustomerRepresentative"><path codeLine="120" d="M1943.49,505.266 C1977.87,535.536 2035.41,581.91 2092.8,608.97 C2106.342,615.354 2117.6013,619.7295 2132.3913,624.3735 " fill="none" id="Customer-to-CustomerRepresentative" style="stroke:#181818;stroke-width:0.6;"/><polygon fill="#181818" points="2135.826,625.452,2131.393,621.5445,2132.9638,624.5533,2129.955,626.1241,2135.826,625.452" style="stroke:#181818;stroke-width:0.6;"/><text fill="#000000" font-family="sans-serif" font-size="7.8" lengthAdjust="spacing" textLength="53.3279" x="2021.4" y="566.387">representatives</text><text fill="#000000" font-family="sans-serif" font-size="7.8" lengthAdjust="spacing" textLength="11.7076" x="2103.3677" y="618.7204">1..*</text></g><!--link Customer to VatNumber--><g id="link_Customer_VatNumber"><path codeLine="121" d="M2002.824,447.168 C2031.456,438.732 2063.298,429.912 2092.8,422.97 C2136.3,412.728 2183.6594,404.6576 2215.9994,399.5876 " fill="none" id="Customer-to-VatNumber" style="stroke:#181818;stroke-width:0.6;"/><polygon fill="#181818" points="2219.556,399.03,2213.8494,397.4953,2216.5922,399.4946,2214.5929,402.2374,2219.556,399.03" style="stroke:#181818;stroke-width:0.6;"/><text fill="#000000" font-family="sans-serif" font-size="7.8" lengthAdjust="spacing" textLength="10.4051" x="2042.7" y="425.987">vat</text><text fill="#000000" font-family="sans-serif" font-size="7.8" lengthAdjust="spacing" textLength="4.338" x="2210.6272" y="408.8139">1</text></g><!--link Customer to Address--><g id="link_Customer_Address"><path codeLine="122" d="M2002.848,469.338 C2074.554,464.28 2166.6929,457.7892 2216.0429,454.3092 " fill="none" id="Customer-to-Address" style="stroke:#181818;stroke-width:0.6;"/><polygon fill="#181818" points="2219.634,454.056,2214.0786,452.0418,2216.6414,454.267,2214.4162,456.8299,2219.634,454.056" style="stroke:#181818;stroke-width:0.6;"/><text fill="#000000" font-family="sans-serif" font-size="7.8" lengthAdjust="spacing" textLength="27.7494" x="2034" y="462.587">address</text><text fill="#000000" font-family="sans-serif" font-size="7.8" lengthAdjust="spacing" textLength="4.338" x="2210.4962" y="463.5416">1</text></g><!--link Customer to CustomerStatus--><g id="link_Customer_CustomerStatus"><path codeLine="123" d="M1950.408,446.256 C1985.682,420.906 2040.114,385.38 2092.8,365.37 C2132.208,350.4 2176.55,343.4591 2209.472,339.9731 " fill="none" id="Customer-to-CustomerStatus" style="stroke:#181818;stroke-width:0.6;"/><polygon fill="#181818" points="2213.052,339.594,2207.4293,337.776,2210.0687,339.9099,2207.9347,342.5493,2213.052,339.594" style="stroke:#181818;stroke-width:0.6;"/><text fill="#000000" font-family="sans-serif" font-size="7.8" lengthAdjust="spacing" textLength="20.8102" x="2037.6" y="371.987">status</text><text fill="#000000" font-family="sans-serif" font-size="7.8" lengthAdjust="spacing" textLength="4.338" x="2204.02" y="348.9749">1</text></g><!--link Customer to CustomerType--><g id="link_Customer_CustomerType"><path codeLine="124" d="M2003.028,504.792 C2009.016,506.262 2014.974,507.606 2020.8,508.77 C2088.678,522.324 2165.819,528.0331 2211.725,530.4451 " fill="none" id="Customer-to-CustomerType" style="stroke:#181818;stroke-width:0.6;"/><polygon fill="#181818" points="2215.32,530.634,2210.0534,527.954,2212.3241,530.4766,2209.8015,532.7474,2215.32,530.634" style="stroke:#181818;stroke-width:0.6;"/><text fill="#000000" font-family="sans-serif" font-size="7.8" lengthAdjust="spacing" textLength="14.7431" x="2040.6" y="506.387">type</text><text fill="#000000" font-family="sans-serif" font-size="7.8" lengthAdjust="spacing" textLength="4.338" x="2206.3239" y="539.5113">1</text></g><!--link Customer to Name--><g id="link_Customer_Name"><path codeLine="125" d="M2002.812,478.5 C2190.816,484.344 2606.334,498.474 2635.2,509.97 C2656.788,518.562 2673.9171,534.2077 2686.6491,548.2417 " fill="none" id="Customer-to-Name" style="stroke:#181818;stroke-width:0.6;"/><polygon fill="#181818" points="2689.068,550.908,2687.2172,545.296,2687.0523,548.6861,2683.6621,548.5212,2689.068,550.908" style="stroke:#181818;stroke-width:0.6;"/><text fill="#000000" font-family="sans-serif" font-size="7.8" lengthAdjust="spacing" textLength="19.5114" x="2446.2" y="492.587">name</text><text fill="#000000" font-family="sans-serif" font-size="7.8" lengthAdjust="spacing" textLength="4.338" x="2681.201" y="544.3092">1</text></g><!--link CustomerRepresentative to Position--><g id="link_CustomerRepresentative_Position"><path codeLine="127" d="M2379.564,672.87 C2435.79,683.43 2493.9078,694.3398 2530.4718,701.2038 " fill="none" id="CustomerRepresentative-to-Position" style="stroke:#181818;stroke-width:0.6;"/><polygon fill="#181818" points="2534.01,701.868,2529.1455,698.5129,2531.0615,701.3145,2528.2599,703.2305,2534.01,701.868" style="stroke:#181818;stroke-width:0.6;"/><text fill="#000000" font-family="sans-serif" font-size="7.8" lengthAdjust="spacing" textLength="26.8849" x="2442.6" y="681.587">position</text><text fill="#000000" font-family="sans-serif" font-size="7.8" lengthAdjust="spacing" textLength="4.338" x="2524.8688" y="710.174">1</text></g><!--link CustomerRepresentative to Name--><g id="link_CustomerRepresentative_Name"><path codeLine="128" d="M2412.696,655.314 C2498.982,656.406 2595.792,653.346 2635.2,636.57 C2659.044,626.412 2677.1347,606.7849 2689.4107,590.6209 " fill="none" id="CustomerRepresentative-to-Name" style="stroke:#181818;stroke-width:0.6;"/><polygon fill="#181818" points="2691.588,587.754,2686.4107,590.6028,2689.7736,590.1431,2690.2333,593.5059,2691.588,587.754" style="stroke:#181818;stroke-width:0.6;"/><text fill="#000000" font-family="sans-serif" font-size="7.8" lengthAdjust="spacing" textLength="19.5114" x="2557.5" y="634.187">name</text><text fill="#000000" font-family="sans-serif" font-size="7.8" lengthAdjust="spacing" textLength="4.338" x="2684.4792" y="600.6882">1</text></g><!--link CustomerRepresentative to Email--><g id="link_CustomerRepresentative_Email"><path codeLine="129" d="M2393.202,672.87 C2399.952,675.96 2406.468,679.44 2412.6,683.37 C2423.832,690.558 2420.124,699.126 2430.6,707.37 C2456.604,727.83 2468.58,723.744 2499,736.77 C2510.418,741.66 2519.6227,745.5875 2530.7347,750.3275 " fill="none" id="CustomerRepresentative-to-Email" style="stroke:#181818;stroke-width:0.6;"/><polygon fill="#181818" points="2534.046,751.74,2530.0207,747.4137,2531.2866,750.5629,2528.1374,751.8288,2534.046,751.74" style="stroke:#181818;stroke-width:0.6;"/><text fill="#000000" font-family="sans-serif" font-size="7.8" lengthAdjust="spacing" textLength="18.6393" x="2446.5" y="704.987">email</text><text fill="#000000" font-family="sans-serif" font-size="7.8" lengthAdjust="spacing" textLength="4.338" x="2524.9099" y="758.9592">1</text></g><!--link CustomerRepresentative to PhoneNumber--><g id="link_CustomerRepresentative_PhoneNumber"><path codeLine="130" d="M2373.798,625.44 C2418.3,615.144 2462.418,602.652 2481,590.37 C2491.77,583.248 2488.746,575.412 2499,567.57 C2508.312,560.448 2516.3174,556.0954 2527.0214,551.6854 " fill="none" id="CustomerRepresentative-to-PhoneNumber" style="stroke:#181818;stroke-width:0.6;"/><polygon fill="#181818" points="2530.35,550.314,2524.4429,550.152,2527.5762,551.4568,2526.2714,554.5901,2530.35,550.314" style="stroke:#181818;stroke-width:0.6;"/><text fill="#000000" font-family="sans-serif" font-size="7.8" lengthAdjust="spacing" textLength="49.4317" x="2431.2" y="587.987">phoneNumber</text><text fill="#000000" font-family="sans-serif" font-size="7.8" lengthAdjust="spacing" textLength="4.338" x="2521.4135" y="560.7854">1</text></g><!--link CustomerRepresentative to CustomerRepresentativeStatus--><g id="link_CustomerRepresentative_CustomerRepresentativeStatus"><path codeLine="131" d="M2412.672,637.482 C2435.736,634.434 2459.07,630.6 2481,625.77 C2493.648,622.98 2503.6146,620.0978 2515.9326,615.8978 " fill="none" id="CustomerRepresentative-to-CustomerRepresentativeStatus" style="stroke:#181818;stroke-width:0.6;"/><polygon fill="#181818" points="2519.34,614.736,2513.4544,614.2071,2516.5005,615.7042,2515.0035,618.7503,2519.34,614.736" style="stroke:#181818;stroke-width:0.6;"/><text fill="#000000" font-family="sans-serif" font-size="7.8" lengthAdjust="spacing" textLength="20.8102" x="2445.6" y="623.387">status</text><text fill="#000000" font-family="sans-serif" font-size="7.8" lengthAdjust="spacing" textLength="4.338" x="2505.6751" y="627.6667">1</text></g><!--link ShodroneUser to SystemUser--><g id="link_ShodroneUser_SystemUser"><path codeLine="133" d="M2001.204,666.222 C2030.4,671.742 2062.974,677.856 2092.8,683.37 C2136.948,691.524 2184.4884,700.0814 2216.6544,705.8414 " fill="none" id="ShodroneUser-to-SystemUser" style="stroke:#181818;stroke-width:0.6;"/><polygon fill="#181818" points="2220.198,706.476,2215.3056,703.1617,2217.245,705.9472,2214.4595,707.8866,2220.198,706.476" style="stroke:#181818;stroke-width:0.6;"/><text fill="#000000" font-family="sans-serif" font-size="7.8" lengthAdjust="spacing" textLength="15.1734" x="2040.3" y="668.387">user</text><text fill="#000000" font-family="sans-serif" font-size="7.8" lengthAdjust="spacing" textLength="4.338" x="2211.1319" y="714.8394">1</text></g><!--link ShodroneUser to PhoneNumber--><g id="link_ShodroneUser_PhoneNumber"><path codeLine="134" d="M2001.06,631.29 C2030.25,625.722 2062.854,619.788 2092.8,614.97 C2234.37,592.194 2271.366,597.15 2412.6,572.37 C2453.208,565.242 2495.8501,555.6824 2526.9361,548.3504 " fill="none" id="ShodroneUser-to-PhoneNumber" style="stroke:#181818;stroke-width:0.6;"/><polygon fill="#181818" points="2530.44,547.524,2524.6333,546.4277,2527.5201,548.2127,2525.7352,551.0995,2530.44,547.524" style="stroke:#181818;stroke-width:0.6;"/><text fill="#000000" font-family="sans-serif" font-size="7.8" lengthAdjust="spacing" textLength="49.4317" x="2228.1" y="569.987">phoneNumber</text><text fill="#000000" font-family="sans-serif" font-size="7.8" lengthAdjust="spacing" textLength="4.338" x="2521.2721" y="546.2364">1</text></g><!--link ShodroneUser to CustomerRepresentative--><g id="link_ShodroneUser_CustomerRepresentative"><path codeLine="135" d="M2001.06,649.17 C2029.242,649.17 2057.658,649.17 2089.176,649.17 " fill="none" id="ShodroneUser-to-CustomerRepresentative" style="stroke:#181818;stroke-width:0.6;stroke-dasharray:7.0,7.0;"/><polygon fill="#181818" points="2092.776,649.17,2087.376,646.77,2089.776,649.17,2087.376,651.57,2092.776,649.17" style="stroke:#181818;stroke-width:0.6;"/><text fill="#000000" font-family="sans-serif" font-size="7.8" lengthAdjust="spacing" textLength="4.338" x="2083.765" y="657.7392">1</text></g><!--link ShodroneUser to Email--><g id="link_ShodroneUser_Email"><path codeLine="136" d="M1942.206,672.918 C1976.628,698.052 2035.272,736.272 2092.8,752.37 C2253.042,797.196 2452.178,779.8618 2530.238,770.4298 " fill="none" id="ShodroneUser-to-Email" style="stroke:#181818;stroke-width:0.6;"/><polygon fill="#181818" points="2533.812,769.998,2528.1631,768.2631,2530.8337,770.3579,2528.7389,773.0284,2533.812,769.998" style="stroke:#181818;stroke-width:0.6;"/><text fill="#000000" font-family="sans-serif" font-size="7.8" lengthAdjust="spacing" textLength="18.6393" x="2243.4" y="749.987">email</text><text fill="#000000" font-family="sans-serif" font-size="7.8" lengthAdjust="spacing" textLength="4.338" x="2524.8638" y="779.7239">1</text></g><!--link RepositoryFactory to CustomerRepository--><g id="link_RepositoryFactory_CustomerRepository"><path codeLine="138" d="M1403.598,502.434 C1443.75,497.694 1487.6588,492.5117 1528.7108,487.6697 " fill="none" id="RepositoryFactory-to-CustomerRepository" style="stroke:#181818;stroke-width:0.6;stroke-dasharray:7.0,7.0;"/><polygon fill="#181818" points="1532.286,487.248,1526.642,485.4971,1529.3067,487.5994,1527.2043,490.264,1532.286,487.248" style="stroke:#181818;stroke-width:0.6;"/><text fill="#000000" font-family="sans-serif" font-size="7.8" lengthAdjust="spacing" textLength="41.1709" x="1447.5" y="487.787">customers()</text></g><!--link RepositoryFactory to ShodroneUserRepository--><g id="link_RepositoryFactory_ShodroneUserRepository"><path codeLine="139" d="M1403.598,523.506 C1446.024,528.51 1493.0648,534.0582 1535.6288,539.0802 " fill="none" id="RepositoryFactory-to-ShodroneUserRepository" style="stroke:#181818;stroke-width:0.6;stroke-dasharray:7.0,7.0;"/><polygon fill="#181818" points="1539.204,539.502,1534.1224,536.4858,1536.2247,539.1505,1533.56,541.2527,1539.204,539.502" style="stroke:#181818;stroke-width:0.6;"/><text fill="#000000" font-family="sans-serif" font-size="7.8" lengthAdjust="spacing" textLength="58.0887" x="1439.1" y="523.787">shodroneUsers()</text></g><!--link CustomerRepository to Customer--><g id="link_CustomerRepository_Customer"><path codeLine="141" d="M1728,475.77 C1757.562,475.77 1786.338,475.77 1815.492,475.77 " fill="none" id="CustomerRepository-to-Customer" style="stroke:#181818;stroke-width:0.6;"/><polygon fill="#181818" points="1819.092,475.77,1813.692,473.37,1816.092,475.77,1813.692,478.17,1819.092,475.77" style="stroke:#181818;stroke-width:0.6;"/><text fill="#000000" font-family="sans-serif" font-size="7.8" lengthAdjust="spacing" textLength="35.976" x="1756.5" y="473.387">customers</text><text fill="#000000" font-family="sans-serif" font-size="7.8" lengthAdjust="spacing" textLength="11.7076" x="1802.6649" y="484.4572">0..*</text></g><!--link AddCustomerRepresentativeUI to AddCustomerRepresentativeController--><g id="link_AddCustomerRepresentativeUI_AddCustomerRepresentativeController"><path codeLine="143" d="M148.884,406.77 C160.944,406.77 170.418,406.77 183.966,406.77 " fill="none" id="AddCustomerRepresentativeUI-to-AddCustomerRepresentativeController" style="stroke:#181818;stroke-width:0.6;stroke-dasharray:7.0,7.0;"/><polygon fill="#181818" points="187.566,406.77,182.166,404.37,184.566,406.77,182.166,409.17,187.566,406.77" style="stroke:#181818;stroke-width:0.6;"/></g><!--link AddCustomerRepresentativeController to RepositoryFactory--><g id="link_AddCustomerRepresentativeController_RepositoryFactory"><path codeLine="144" d="M453.576,436.206 C536.574,463.422 667.344,501.9 784.2,517.17 C866.43,527.916 1092.3265,521.5399 1220.3365,516.7759 " fill="none" id="AddCustomerRepresentativeController-to-RepositoryFactory" style="stroke:#181818;stroke-width:0.6;stroke-dasharray:7.0,7.0;"/><polygon fill="#181818" points="1223.934,516.642,1218.4485,514.4445,1220.9361,516.7536,1218.627,519.2412,1223.934,516.642" style="stroke:#181818;stroke-width:0.6;"/><text fill="#000000" font-family="sans-serif" font-size="7.8" lengthAdjust="spacing" textLength="41.1709" x="828" y="514.787">customers()</text></g><!--link AddCustomerRepresentativeController to RepositoryFactory--><g id="link_AddCustomerRepresentativeController_RepositoryFactory"><path codeLine="145" d="M549.102,407.268 C655.248,409.368 791.964,415.2 912.6,430.17 C1020.756,443.586 1139.7052,469.8346 1220.4172,489.3826 " fill="none" id="AddCustomerRepresentativeController-to-RepositoryFactory-1" style="stroke:#181818;stroke-width:0.6;stroke-dasharray:7.0,7.0;"/><polygon fill="#181818" points="1223.916,490.23,1219.2327,486.6263,1221.0003,489.5238,1218.1028,491.2915,1223.916,490.23" style="stroke:#181818;stroke-width:0.6;"/><text fill="#000000" font-family="sans-serif" font-size="7.8" lengthAdjust="spacing" textLength="58.0887" x="819.6" y="415.787">shodroneUsers()</text></g><!--link AddCustomerRepresentativeController to CustomerRepository--><g id="link_AddCustomerRepresentativeController_CustomerRepository"><path codeLine="146" d="M377.796,377.22 C399.066,310.902 459.726,149.418 568.2,64.77 C615.804,27.618 638.316,26.97 698.7,26.97 C698.7,26.97 698.7,26.97 1314.3,26.97 C1404.804,26.97 1447.692,3.6 1514.4,64.77 C1573.182,118.668 1614.0342,368.9363 1625.7162,448.3763 " fill="none" id="AddCustomerRepresentativeController-to-CustomerRepository" style="stroke:#181818;stroke-width:0.6;stroke-dasharray:7.0,7.0;"/><polygon fill="#181818" points="1626.24,451.938,1627.8288,446.2463,1625.8035,448.9699,1623.0799,446.9446,1626.24,451.938" style="stroke:#181818;stroke-width:0.6;"/><text fill="#000000" font-family="sans-serif" font-size="7.8" lengthAdjust="spacing" textLength="41.1709" x="1002.3" y="24.587">customers()</text></g><!--link AddCustomerRepresentativeController to PersistenceContext--><g id="link_AddCustomerRepresentativeController_PersistenceContext"><path codeLine="147" d="M405.24,436.248 C443.622,466.17 507.012,511.962 568.2,539.97 C588.714,549.36 608.7156,555.8573 630.0516,561.4493 " fill="none" id="AddCustomerRepresentativeController-to-PersistenceContext" style="stroke:#181818;stroke-width:0.6;stroke-dasharray:7.0,7.0;"/><polygon fill="#181818" points="633.534,562.362,628.9189,558.6714,630.632,561.6014,627.702,563.3145,633.534,562.362" style="stroke:#181818;stroke-width:0.6;"/><text fill="#000000" font-family="sans-serif" font-size="7.8" lengthAdjust="spacing" textLength="45.5127" x="568.8" y="537.587">repositories()</text></g><!--link AddCustomerRepresentativeController to ShodroneUserRepository--><g id="link_AddCustomerRepresentativeController_ShodroneUserRepository"><path codeLine="148" d="M381.498,377.226 C417.678,296.88 530.766,80.37 698.7,80.37 C698.7,80.37 698.7,80.37 1314.3,80.37 C1424.97,80.37 1467.408,128.37 1514.4,228.57 C1541.004,285.3 1495.926,459.018 1532.4,509.97 C1535.214,513.9 1535.7969,515.0631 1539.4089,518.2671 " fill="none" id="AddCustomerRepresentativeController-to-ShodroneUserRepository" style="stroke:#181818;stroke-width:0.6;stroke-dasharray:7.0,7.0;"/><polygon fill="#181818" points="1542.102,520.656,1539.6549,515.2772,1539.8577,518.6652,1536.4697,518.868,1542.102,520.656" style="stroke:#181818;stroke-width:0.6;"/><text fill="#000000" font-family="sans-serif" font-size="7.8" lengthAdjust="spacing" textLength="58.0887" x="993.9" y="77.987">shodroneUsers()</text></g><!--link PersistenceContext to JpaRepositoryFactory--><g id="link_PersistenceContext_JpaRepositoryFactory"><path codeLine="151" d="M716.58,555.774 C732.174,538.338 757.086,513.96 784.2,500.97 C836.388,475.962 866.616,514.494 912.6,479.37 C980.676,427.368 1007.2511,326.5061 1016.8511,275.4221 " fill="none" id="PersistenceContext-to-JpaRepositoryFactory" style="stroke:#181818;stroke-width:0.6;stroke-dasharray:7.0,7.0;"/><polygon fill="#181818" points="1017.516,271.884,1014.1599,276.7478,1016.9619,274.8324,1018.8774,277.6344,1017.516,271.884" style="stroke:#181818;stroke-width:0.6;"/><text fill="#000000" font-family="sans-serif" font-size="7.8" lengthAdjust="spacing" textLength="81.0583" x="807.9" y="476.987">JpaRepositoryFactory()</text></g><!--link PersistenceContext to InMemoryRepositoryFactory--><g id="link_PersistenceContext_InMemoryRepositoryFactory"><path codeLine="152" d="M722.814,596.148 C778.812,645.474 920.1167,769.9343 985.8167,827.8103 " fill="none" id="PersistenceContext-to-InMemoryRepositoryFactory" style="stroke:#181818;stroke-width:0.6;stroke-dasharray:7.0,7.0;"/><polygon fill="#181818" points="988.518,830.19,986.0524,824.8196,986.2669,828.207,982.8795,828.4214,988.518,830.19" style="stroke:#181818;stroke-width:0.6;"/><text fill="#000000" font-family="sans-serif" font-size="7.8" lengthAdjust="spacing" textLength="103.1558" x="797.1" y="649.787">InMemoryRepositoryFactory()</text></g><!--link PersistenceContext to RepositoryFactory--><g id="link_PersistenceContext_RepositoryFactory"><path codeLine="153" d="M765.018,571.266 C846.6,565.158 990.624,553.632 1113.6,539.97 C1149.726,535.956 1185.8621,531.2364 1220.2661,526.4664 " fill="none" id="PersistenceContext-to-RepositoryFactory" style="stroke:#181818;stroke-width:0.6;stroke-dasharray:7.0,7.0;"/><polygon fill="#181818" points="1223.832,525.972,1218.1536,524.3363,1220.8604,526.384,1218.8128,529.0909,1223.832,525.972" style="stroke:#181818;stroke-width:0.6;"/><text fill="#000000" font-family="sans-serif" font-size="7.8" lengthAdjust="spacing" textLength="41.1709" x="1002.3" y="537.587">customers()</text></g><!--link PersistenceContext to JpaShodroneUserRepository--><g id="link_PersistenceContext_JpaShodroneUserRepository"><path codeLine="154" d="M709.356,555.696 C722.388,530.202 748.368,487.176 784.2,465.57 C833.754,435.684 874.794,487.776 912.6,443.97 C921.378,433.794 909.654,213.144 917.4,202.17 C921.378,196.53 923.3998,193.8696 928.8658,189.7236 " fill="none" id="PersistenceContext-to-JpaShodroneUserRepository" style="stroke:#181818;stroke-width:0.6;stroke-dasharray:7.0,7.0;"/><polygon fill="#181818" points="931.734,187.548,925.9812,188.8992,929.3438,189.361,928.882,192.7235,931.734,187.548" style="stroke:#181818;stroke-width:0.6;"/><text fill="#000000" font-family="sans-serif" font-size="7.8" lengthAdjust="spacing" textLength="105.3495" x="795.9" y="441.587">JpaShodroneUserRepository()</text></g><!--link PersistenceContext to InMemoryShodroneUserRepository--><g id="link_PersistenceContext_InMemoryShodroneUserRepository"><path codeLine="155" d="M705.27,596.154 C715.974,633.978 742.584,717.036 784.2,776.37 C830.472,842.334 848.964,856.83 917.4,899.37 C923.604,903.222 926.9988,905.2309 933.7968,908.5489 " fill="none" id="PersistenceContext-to-InMemoryShodroneUserRepository" style="stroke:#181818;stroke-width:0.6;stroke-dasharray:7.0,7.0;"/><polygon fill="#181818" points="937.032,910.128,933.2319,905.6026,934.336,908.8121,931.1265,909.9162,937.032,910.128" style="stroke:#181818;stroke-width:0.6;"/><text fill="#000000" font-family="sans-serif" font-size="7.8" lengthAdjust="spacing" textLength="127.447" x="784.8" y="773.987">InMemoryShodroneUserRepository()</text></g><!--link PersistenceContext to ShodroneUserRepository--><g id="link_PersistenceContext_ShodroneUserRepository"><path codeLine="156" d="M700.044,596.226 C701.43,650.802 711.936,803.25 784.2,899.37 C895.356,1047.21 1005.498,994.914 1190.4,989.97 C1285.17,987.432 1321.29,1025.958 1403.4,978.57 C1555.464,890.802 1609.2911,664.8554 1624.2191,583.1354 " fill="none" id="PersistenceContext-to-ShodroneUserRepository" style="stroke:#181818;stroke-width:0.6;stroke-dasharray:7.0,7.0;"/><polygon fill="#181818" points="1624.866,579.594,1621.5347,584.4748,1624.3269,582.5452,1626.2566,585.3374,1624.866,579.594" style="stroke:#181818;stroke-width:0.6;"/><text fill="#000000" font-family="sans-serif" font-size="7.8" lengthAdjust="spacing" textLength="58.0887" x="1132.2" y="987.587">shodroneUsers()</text></g><!--link JpaRepositoryFactory to RepositoryFactory--><g id="link_JpaRepositoryFactory_RepositoryFactory"><path codeLine="158" d="M1040.934,271.848 C1059.948,301.362 1092.774,346.242 1131.6,373.77 C1154.31,389.868 1166.784,380.622 1190.4,395.37 C1226.442,417.87 1253.5519,444.2272 1276.6759,470.0152 " fill="none" id="JpaRepositoryFactory-to-RepositoryFactory" style="stroke:#181818;stroke-width:0.6;stroke-dasharray:7.0,7.0;"/><polygon fill="none" points="1283.886,478.056,1279.3561,467.6119,1273.9956,472.4186,1283.886,478.056" style="stroke:#181818;stroke-width:0.6;"/><text fill="#000000" font-family="sans-serif" font-size="7.8" lengthAdjust="spacing" textLength="41.1709" x="1140.6" y="371.387">customers()</text></g><!--link JpaRepositoryFactory to JpaCustomerRepository--><g id="link_JpaRepositoryFactory_JpaCustomerRepository"><path codeLine="159" d="M1094.562,242.37 C1145.346,242.37 1208.958,242.37 1255.368,242.37 " fill="none" id="JpaRepositoryFactory-to-JpaCustomerRepository" style="stroke:#181818;stroke-width:0.6;stroke-dasharray:7.0,7.0;"/><polygon fill="#181818" points="1258.968,242.37,1253.568,239.97,1255.968,242.37,1253.568,244.77,1258.968,242.37" style="stroke:#181818;stroke-width:0.6;"/></g><!--link JpaCustomerRepository to CustomerRepository--><g id="link_JpaCustomerRepository_CustomerRepository"><path codeLine="161" d="M1368.45,240 C1411.602,240.744 1471.662,247.932 1514.4,277.77 C1576.518,321.138 1606.8039,399.2796 1619.8599,441.7116 " fill="none" id="JpaCustomerRepository-to-CustomerRepository" style="stroke:#181818;stroke-width:0.6;stroke-dasharray:7.0,7.0;"/><polygon fill="none" points="1623.036,452.034,1623.3007,440.6529,1616.4191,442.7703,1623.036,452.034" style="stroke:#181818;stroke-width:0.6;"/><text fill="#000000" font-family="sans-serif" font-size="7.8" lengthAdjust="spacing" textLength="91.8976" x="1422" y="242.387">findAllCreatedCustomers()</text></g><!--link InMemoryRepositoryFactory to RepositoryFactory--><g id="link_InMemoryRepositoryFactory_RepositoryFactory"><path codeLine="164" d="M1028.844,830.346 C1039.866,779.376 1069.056,674.052 1131.6,610.77 C1151.736,590.394 1164.918,597.456 1190.4,584.37 C1212.216,573.162 1226.2995,565.3673 1246.7535,553.3133 " fill="none" id="InMemoryRepositoryFactory-to-RepositoryFactory" style="stroke:#181818;stroke-width:0.6;stroke-dasharray:7.0,7.0;"/><polygon fill="none" points="1256.058,547.83,1244.9258,550.2118,1248.5813,556.4148,1256.058,547.83" style="stroke:#181818;stroke-width:0.6;"/><text fill="#000000" font-family="sans-serif" font-size="7.8" lengthAdjust="spacing" textLength="41.1709" x="1140.6" y="581.987">customers()</text></g><!--link InMemoryRepositoryFactory to InMemoryCustomerRepository--><g id="link_InMemoryRepositoryFactory_InMemoryCustomerRepository"><path codeLine="165" d="M1094.562,858.438 C1141.152,857.574 1197.9786,856.5129 1243.4766,855.6669 " fill="none" id="InMemoryRepositoryFactory-to-InMemoryCustomerRepository" style="stroke:#181818;stroke-width:0.6;stroke-dasharray:7.0,7.0;"/><polygon fill="#181818" points="1247.076,855.6,1241.6323,853.3008,1244.0765,855.6558,1241.7216,858.1,1247.076,855.6" style="stroke:#181818;stroke-width:0.6;"/></g><!--link InMemoryCustomerRepository to CustomerRepository--><g id="link_InMemoryCustomerRepository_CustomerRepository"><path codeLine="167" d="M1359.258,836.064 C1374.78,828.03 1391.292,817.338 1403.4,803.97 C1485.384,713.436 1465.962,664.692 1514.4,552.57 C1522.554,533.7 1517.424,524.046 1532.4,509.97 C1536.57,506.046 1532.0456,508.28 1536.9896,505.202 " fill="none" id="InMemoryCustomerRepository-to-CustomerRepository" style="stroke:#181818;stroke-width:0.6;stroke-dasharray:7.0,7.0;"/><polygon fill="none" points="1546.158,499.494,1535.087,502.1459,1538.8923,508.2581,1546.158,499.494" style="stroke:#181818;stroke-width:0.6;"/><text fill="#000000" font-family="sans-serif" font-size="7.8" lengthAdjust="spacing" textLength="91.8976" x="1422" y="550.187">findAllCreatedCustomers()</text></g><!--link JpaShodroneUserRepository to ShodroneUserRepository--><g id="link_JpaShodroneUserRepository_ShodroneUserRepository"><path codeLine="170" d="M1103.778,192.024 C1107.39,195.084 1110.708,198.456 1113.6,202.17 C1143.198,240.126 1101.882,271.098 1131.6,308.97 C1188.786,381.84 1447.068,410.352 1514.4,473.97 C1527.402,486.252 1519.308,497.778 1532.4,509.97 C1536.612,513.888 1532.2378,511.5097 1537.1458,514.7437 " fill="none" id="JpaShodroneUserRepository-to-ShodroneUserRepository" style="stroke:#181818;stroke-width:0.6;stroke-dasharray:7.0,7.0;"/><polygon fill="none" points="1546.164,520.686,1539.1265,511.7376,1535.165,517.7497,1546.164,520.686" style="stroke:#181818;stroke-width:0.6;"/><text fill="#000000" font-family="sans-serif" font-size="7.8" lengthAdjust="spacing" textLength="62.8532" x="1282.5" y="349.787">findByUsername()</text></g><!--link JpaShodroneUserRepository to ShodroneUserRepository--><g id="link_JpaShodroneUserRepository_ShodroneUserRepository"><path codeLine="171" d="M1096.74,191.994 C1102.59,195.168 1108.284,198.564 1113.6,202.17 C1155.744,230.73 1150.878,257.514 1195.2,282.57 C1278.36,329.58 1319.166,290.91 1403.4,335.97 C1461.846,367.23 1480.41,378.666 1514.4,435.57 C1531.848,464.778 1510.278,484.122 1532.4,509.97 C1535.784,513.924 1531.0903,510.8669 1535.2363,514.0889 " fill="none" id="JpaShodroneUserRepository-to-ShodroneUserRepository-1" style="stroke:#181818;stroke-width:0.6;stroke-dasharray:7.0,7.0;"/><polygon fill="none" points="1543.764,520.716,1537.4454,511.2463,1533.0273,516.9314,1543.764,520.716" style="stroke:#181818;stroke-width:0.6;"/><text fill="#000000" font-family="sans-serif" font-size="7.8" lengthAdjust="spacing" textLength="46.3772" x="1290.6" y="280.187">findByEmail()</text></g><!--link InMemoryShodroneUserRepository to ShodroneUserRepository--><g id="link_InMemoryShodroneUserRepository_ShodroneUserRepository"><path codeLine="172" d="M1095.15,910.128 C1101.534,906.756 1107.774,903.162 1113.6,899.37 C1154.58,872.694 1151.418,847.338 1195.2,825.57 C1324.5,761.274 1397.982,850.398 1514.4,764.97 C1577.598,718.59 1606.8081,637.2737 1619.7021,590.1077 " fill="none" id="InMemoryShodroneUserRepository-to-ShodroneUserRepository" style="stroke:#181818;stroke-width:0.6;stroke-dasharray:7.0,7.0;"/><polygon fill="none" points="1622.55,579.69,1616.2295,589.1584,1623.1746,591.0571,1622.55,579.69" style="stroke:#181818;stroke-width:0.6;"/><text fill="#000000" font-family="sans-serif" font-size="7.8" lengthAdjust="spacing" textLength="62.8532" x="1282.5" y="797.987">findByUsername()</text></g><!--link InMemoryShodroneUserRepository to ShodroneUserRepository--><g id="link_InMemoryShodroneUserRepository_ShodroneUserRepository"><path codeLine="173" d="M1101.96,910.044 C1106.184,906.828 1110.12,903.276 1113.6,899.37 C1131.432,879.336 1117.152,864.366 1131.6,841.77 C1183.272,760.956 1374.768,664.272 1421.4,639.57 C1463.718,617.148 1502.8674,599.8882 1542.7914,583.7002 " fill="none" id="InMemoryShodroneUserRepository-to-ShodroneUserRepository-1" style="stroke:#181818;stroke-width:0.6;stroke-dasharray:7.0,7.0;"/><polygon fill="none" points="1552.8,579.642,1541.4387,580.364,1544.1442,587.0364,1552.8,579.642" style="stroke:#181818;stroke-width:0.6;"/><text fill="#000000" font-family="sans-serif" font-size="7.8" lengthAdjust="spacing" textLength="46.3772" x="1290.6" y="646.787">findByEmail()</text></g><!--link ShodroneUserRepository to ShodroneUser--><g id="link_ShodroneUserRepository_ShodroneUser"><path codeLine="175" d="M1713.93,579.606 C1755.222,594.222 1801.0585,610.4503 1839.9085,624.2083 " fill="none" id="ShodroneUserRepository-to-ShodroneUser" style="stroke:#181818;stroke-width:0.6;"/><polygon fill="#181818" points="1843.302,625.41,1839.0129,621.3451,1840.4741,624.4085,1837.4106,625.8697,1843.302,625.41" style="stroke:#181818;stroke-width:0.6;"/><text fill="#000000" font-family="sans-serif" font-size="7.8" lengthAdjust="spacing" textLength="52.8938" x="1747.8" y="591.587">shodroneUsers</text><text fill="#000000" font-family="sans-serif" font-size="7.8" lengthAdjust="spacing" textLength="11.7076" x="1819.3189" y="618.6712">0..*</text></g><!--SRC=[pLZTJjim5BxtKrZTnTBHHjkjXIenO58dZQ6nSc_Q0uJbJxRBLZ6UPq-m9-35vlmuiHCxSO6BvGAQ-ZldVEV7_WmS1EQGKqP5nd2QfO1Yk1POP9X5DxS2Ro86Qn5bAK8ef-iVz0Rmv2HBQ9HEy9kJyi4F267vDElV8Czu93tki0x2zRDC1R1hkWPylEKYIu1f1eU7xSjYeLaLpm6-ZjBDKHmVCw02DigU1rDCy5AwfLSn7Agl5utn8x94RmDzekiwUFsf5tdUHmVJ3hUrmQQVMmVERxCDanLVSMLoeNrZCRCcORVnAUF7NM6JqWI2RVsXIy9gTIgR7mTG_7JYQwhrhtLCEMyA8hcTfY8I9g-3TZqegCmmtMmOS3x3zrJCC1TKREMBsEKmrQmaIgkqD81K8gDxm04ptgSrepwXZjq8lMwKYcnPQxbDPhWiZFpYLjRaR9jS0Ml9gmcPzgjpL6Kher_IU0luwzMTt7WbXnxnIoegpoDeIBT9m_kYvB2FnNTPQYy-vtNoNk0pMIylO3bdVl7RMW_W-mcQhNGKwA7VAttaNUDYO09p6dPSG58iMERWebdiUtv4Zzefl5fs3zTcakm9hfRIvMgfrqJtTvobWcLn36nFlwsXzD- -T0hYtAY1sXKpRExO6LRdajnEai7FZ6sCZQMV0t74XIO7blnokI11aAuXZ98y3kzoQi_qSqvzbSdedRJprPIv5Hpe6Nd9IJV-ldAmlnJuoe1aDbZzA4qWaNJiBLYcNyhLP_L16Vitmsdnmeuel_zJMnnTiVVXl0KKEnj-2OqbK-GZg4hIAryRygrSZEdJdwU_mEKfB1XWogiWm56Z_VFv0ay-XE6xYKjmIUUKw1bFD7qanUMX3r1YIzGbem_fo2QfDTmDBDMIbFSJ7QHWfUmHNFGG8KTg2jleAMdk5MCckliHQAMhfBgeZ5BHf9NeP- -OuQ36DjL4XamgMqq3IQa1TfYRcm4Fmo56TjTcZL3_82cSMiucefyH3ZF7MK2wVn0OOw9G9S7tnlxGWo8qfFv5T0yLHpvAN_ZgvsVc_n8_tMBu-XfjYgyZoyb7EYUUjo__bYDBsCA3zMf1N9S8XnEtBf911NIu6sk_EnLdFPnhuqavVGu3t8xzcsPjJXY6lyThv31TsE-WPIZBX9UXh9Fl_7-973NtEFWm7x3MkcBBOU1kzxn4t1DL-dCsidF7chxGKNNrQYlpEfnUmPiYXXmuJLGCDUoCEaB_0000]--></g></svg>