<svg xmlns="http://www.w3.org/2000/svg" xmlns:xlink="http://www.w3.org/1999/xlink" contentStyleType="text/css" height="448px" preserveAspectRatio="none" style="width:1475px;height:448px;background:#FFFFFF;" version="1.1" viewBox="0 0 1475 448" width="1475px" zoomAndPan="magnify"><defs/><g><!--class ShowProposalStatus--><g id="elem_ShowProposalStatus"><rect codeLine="2" fill="#F1F1F1" height="60.582" id="ShowProposalStatus" rx="2.5" ry="2.5" style="stroke:#181818;stroke-width:0.5;" width="161.9648" x="7" y="171"/><ellipse cx="22" cy="193.291" fill="#EB937F" rx="11" ry="11" style="stroke:#181818;stroke-width:1.0;"/><path d="M20.8594,194.0879 L20.8594,196.5879 L25.1875,196.5879 L25.1875,195.666 Q25.1875,195.0566 25.4219,194.791 Q25.6719,194.5254 26.0469,194.5254 Q26.4219,194.5254 26.6563,194.791 Q26.8906,195.0566 26.8906,195.666 L26.8906,198.291 L18.8906,198.291 Q18.2656,198.291 18,198.0566 Q17.75,197.8223 17.75,197.4316 Q17.75,197.0566 18.0156,196.8223 Q18.2813,196.5879 18.8906,196.5879 L19.1563,196.5879 L19.1563,189.9316 L18.8906,189.9316 Q18.2656,189.9316 18,189.6973 Q17.75,189.4629 17.75,189.0723 Q17.75,188.6973 18,188.4629 Q18.2656,188.2285 18.8906,188.2285 L26.5156,188.2285 L26.5156,190.8223 Q26.5156,191.4316 26.2813,191.6973 Q26.0625,191.9473 25.6719,191.9473 Q25.2969,191.9473 25.0625,191.6973 Q24.8281,191.4316 24.8281,190.8223 L24.8281,189.9316 L20.8594,189.9316 L20.8594,192.3848 L22.3438,192.3848 Q22.3438,191.7285 22.4688,191.541 Q22.7344,191.1348 23.2031,191.1348 Q23.5781,191.1348 23.8125,191.4004 Q24.0469,191.6504 24.0469,192.2598 L24.0469,194.2285 Q24.0469,194.7754 23.9219,194.9629 Q23.6563,195.3535 23.2031,195.3535 Q22.7344,195.3535 22.4688,194.9473 Q22.3438,194.7598 22.3438,194.0879 L20.8594,194.0879 Z " fill="#000000"/><text fill="#000000" font-family="sans-serif" font-size="12" font-style="italic" lengthAdjust="spacing" textLength="82.0547" x="59.9551" y="188.9492">&#171;Value Object&#187;</text><text fill="#000000" font-family="sans-serif" font-size="14" lengthAdjust="spacing" textLength="129.9648" x="36" y="207.0684">ShowProposalStatus</text><line style="stroke:#181818;stroke-width:0.5;" x1="8" x2="167.9648" y1="215.582" y2="215.582"/><line style="stroke:#181818;stroke-width:0.5;" x1="8" x2="167.9648" y1="223.582" y2="223.582"/></g><!--class ShowProposal--><g id="elem_ShowProposal"><rect codeLine="5" fill="#F1F1F1" height="76.543" id="ShowProposal" rx="2.5" ry="2.5" style="stroke:#181818;stroke-width:0.5;" width="122.2754" x="814" y="7"/><ellipse cx="829" cy="37.2715" fill="#ADD1B2" rx="11" ry="11" style="stroke:#181818;stroke-width:1.0;"/><path d="M831.7656,33.1465 Q831.9219,32.9277 832.1094,32.8184 Q832.2969,32.709 832.5156,32.709 Q832.8906,32.709 833.125,32.9746 Q833.3594,33.2246 833.3594,33.834 L833.3594,35.2871 Q833.3594,35.8965 833.125,36.1621 Q832.8906,36.4277 832.5156,36.4277 Q832.1719,36.4277 831.9688,36.2246 Q831.7656,36.0371 831.6563,35.5215 Q831.6094,35.1621 831.4219,34.9746 Q831.0938,34.5996 830.4844,34.3809 Q829.875,34.1621 829.25,34.1621 Q828.4844,34.1621 827.8438,34.4902 Q827.2188,34.8184 826.7188,35.5684 Q826.2344,36.3184 826.2344,37.3496 L826.2344,38.4434 Q826.2344,39.6777 827.125,40.5059 Q828.0156,41.3184 829.6094,41.3184 Q830.5469,41.3184 831.2031,41.0684 Q831.5938,40.9121 832.0156,40.4746 Q832.2813,40.209 832.4219,40.1309 Q832.5781,40.0527 832.7813,40.0527 Q833.1094,40.0527 833.3594,40.3184 Q833.625,40.5684 833.625,40.9121 Q833.625,41.2559 833.2813,41.6621 Q832.7813,42.2402 831.9844,42.5684 Q830.9063,43.0215 829.6094,43.0215 Q828.0938,43.0215 826.8906,42.3965 Q825.9063,41.8965 825.2188,40.834 Q824.5313,39.7559 824.5313,38.4746 L824.5313,37.3184 Q824.5313,35.9902 825.1406,34.8496 Q825.7656,33.6934 826.8594,33.084 Q827.9531,32.459 829.1875,32.459 Q829.9219,32.459 830.5625,32.6309 Q831.2188,32.7871 831.7656,33.1465 Z " fill="#000000"/><text fill="#000000" font-family="sans-serif" font-size="12" font-style="italic" lengthAdjust="spacing" textLength="43.3594" x="866.458" y="24.9492">&#171;Entity&#187;</text><text fill="#000000" font-family="sans-serif" font-size="12" font-style="italic" lengthAdjust="spacing" textLength="34.0254" x="871.125" y="40.9102">&#171;root&#187;</text><text fill="#000000" font-family="sans-serif" font-size="14" lengthAdjust="spacing" textLength="90.2754" x="843" y="59.0293">ShowProposal</text><line style="stroke:#181818;stroke-width:0.5;" x1="815" x2="935.2754" y1="67.543" y2="67.543"/><line style="stroke:#181818;stroke-width:0.5;" x1="815" x2="935.2754" y1="75.543" y2="75.543"/></g><!--class ShowProposalTemplate--><g id="elem_ShowProposalTemplate"><rect codeLine="8" fill="#F1F1F1" height="60.582" id="ShowProposalTemplate" rx="2.5" ry="2.5" style="stroke:#181818;stroke-width:0.5;" width="180.6338" x="204.5" y="171"/><ellipse cx="219.5" cy="193.291" fill="#ADD1B2" rx="11" ry="11" style="stroke:#181818;stroke-width:1.0;"/><path d="M222.2656,189.166 Q222.4219,188.9473 222.6094,188.8379 Q222.7969,188.7285 223.0156,188.7285 Q223.3906,188.7285 223.625,188.9941 Q223.8594,189.2441 223.8594,189.8535 L223.8594,191.3066 Q223.8594,191.916 223.625,192.1816 Q223.3906,192.4473 223.0156,192.4473 Q222.6719,192.4473 222.4688,192.2441 Q222.2656,192.0566 222.1563,191.541 Q222.1094,191.1816 221.9219,190.9941 Q221.5938,190.6191 220.9844,190.4004 Q220.375,190.1816 219.75,190.1816 Q218.9844,190.1816 218.3438,190.5098 Q217.7188,190.8379 217.2188,191.5879 Q216.7344,192.3379 216.7344,193.3691 L216.7344,194.4629 Q216.7344,195.6973 217.625,196.5254 Q218.5156,197.3379 220.1094,197.3379 Q221.0469,197.3379 221.7031,197.0879 Q222.0938,196.9316 222.5156,196.4941 Q222.7813,196.2285 222.9219,196.1504 Q223.0781,196.0723 223.2813,196.0723 Q223.6094,196.0723 223.8594,196.3379 Q224.125,196.5879 224.125,196.9316 Q224.125,197.2754 223.7813,197.6816 Q223.2813,198.2598 222.4844,198.5879 Q221.4063,199.041 220.1094,199.041 Q218.5938,199.041 217.3906,198.416 Q216.4063,197.916 215.7188,196.8535 Q215.0313,195.7754 215.0313,194.4941 L215.0313,193.3379 Q215.0313,192.0098 215.6406,190.8691 Q216.2656,189.7129 217.3594,189.1035 Q218.4531,188.4785 219.6875,188.4785 Q220.4219,188.4785 221.0625,188.6504 Q221.7188,188.8066 222.2656,189.166 Z " fill="#000000"/><text fill="#000000" font-family="sans-serif" font-size="12" font-style="italic" lengthAdjust="spacing" textLength="82.0547" x="266.7896" y="188.9492">&#171;Value Object&#187;</text><text fill="#000000" font-family="sans-serif" font-size="14" lengthAdjust="spacing" textLength="148.6338" x="233.5" y="207.0684">ShowProposalTemplate</text><line style="stroke:#181818;stroke-width:0.5;" x1="205.5" x2="384.1338" y1="215.582" y2="215.582"/><line style="stroke:#181818;stroke-width:0.5;" x1="205.5" x2="384.1338" y1="223.582" y2="223.582"/></g><!--class ShowRequest--><g id="elem_ShowRequest"><rect codeLine="11" fill="#F1F1F1" height="76.543" id="ShowRequest" rx="2.5" ry="2.5" style="stroke:#181818;stroke-width:0.5;" width="119.165" x="420.5" y="163"/><ellipse cx="435.5" cy="193.2715" fill="#ADD1B2" rx="11" ry="11" style="stroke:#181818;stroke-width:1.0;"/><path d="M438.2656,189.1465 Q438.4219,188.9277 438.6094,188.8184 Q438.7969,188.709 439.0156,188.709 Q439.3906,188.709 439.625,188.9746 Q439.8594,189.2246 439.8594,189.834 L439.8594,191.2871 Q439.8594,191.8965 439.625,192.1621 Q439.3906,192.4277 439.0156,192.4277 Q438.6719,192.4277 438.4688,192.2246 Q438.2656,192.0371 438.1563,191.5215 Q438.1094,191.1621 437.9219,190.9746 Q437.5938,190.5996 436.9844,190.3809 Q436.375,190.1621 435.75,190.1621 Q434.9844,190.1621 434.3438,190.4902 Q433.7188,190.8184 433.2188,191.5684 Q432.7344,192.3184 432.7344,193.3496 L432.7344,194.4434 Q432.7344,195.6777 433.625,196.5059 Q434.5156,197.3184 436.1094,197.3184 Q437.0469,197.3184 437.7031,197.0684 Q438.0938,196.9121 438.5156,196.4746 Q438.7813,196.209 438.9219,196.1309 Q439.0781,196.0527 439.2813,196.0527 Q439.6094,196.0527 439.8594,196.3184 Q440.125,196.5684 440.125,196.9121 Q440.125,197.2559 439.7813,197.6621 Q439.2813,198.2402 438.4844,198.5684 Q437.4063,199.0215 436.1094,199.0215 Q434.5938,199.0215 433.3906,198.3965 Q432.4063,197.8965 431.7188,196.834 Q431.0313,195.7559 431.0313,194.4746 L431.0313,193.3184 Q431.0313,191.9902 431.6406,190.8496 Q432.2656,189.6934 433.3594,189.084 Q434.4531,188.459 435.6875,188.459 Q436.4219,188.459 437.0625,188.6309 Q437.7188,188.7871 438.2656,189.1465 Z " fill="#000000"/><text fill="#000000" font-family="sans-serif" font-size="12" font-style="italic" lengthAdjust="spacing" textLength="43.3594" x="471.4028" y="180.9492">&#171;Entity&#187;</text><text fill="#000000" font-family="sans-serif" font-size="12" font-style="italic" lengthAdjust="spacing" textLength="34.0254" x="476.0698" y="196.9102">&#171;root&#187;</text><text fill="#000000" font-family="sans-serif" font-size="14" lengthAdjust="spacing" textLength="87.165" x="449.5" y="215.0293">ShowRequest</text><line style="stroke:#181818;stroke-width:0.5;" x1="421.5" x2="538.665" y1="223.543" y2="223.543"/><line style="stroke:#181818;stroke-width:0.5;" x1="421.5" x2="538.665" y1="231.543" y2="231.543"/></g><!--class CRMCollaborator--><g id="elem_CRMCollaborator"><rect codeLine="14" fill="#F1F1F1" height="76.543" id="CRMCollaborator" rx="2.5" ry="2.5" style="stroke:#181818;stroke-width:0.5;" width="140.1445" x="575" y="163"/><ellipse cx="590" cy="193.2715" fill="#ADD1B2" rx="11" ry="11" style="stroke:#181818;stroke-width:1.0;"/><path d="M592.7656,189.1465 Q592.9219,188.9277 593.1094,188.8184 Q593.2969,188.709 593.5156,188.709 Q593.8906,188.709 594.125,188.9746 Q594.3594,189.2246 594.3594,189.834 L594.3594,191.2871 Q594.3594,191.8965 594.125,192.1621 Q593.8906,192.4277 593.5156,192.4277 Q593.1719,192.4277 592.9688,192.2246 Q592.7656,192.0371 592.6563,191.5215 Q592.6094,191.1621 592.4219,190.9746 Q592.0938,190.5996 591.4844,190.3809 Q590.875,190.1621 590.25,190.1621 Q589.4844,190.1621 588.8438,190.4902 Q588.2188,190.8184 587.7188,191.5684 Q587.2344,192.3184 587.2344,193.3496 L587.2344,194.4434 Q587.2344,195.6777 588.125,196.5059 Q589.0156,197.3184 590.6094,197.3184 Q591.5469,197.3184 592.2031,197.0684 Q592.5938,196.9121 593.0156,196.4746 Q593.2813,196.209 593.4219,196.1309 Q593.5781,196.0527 593.7813,196.0527 Q594.1094,196.0527 594.3594,196.3184 Q594.625,196.5684 594.625,196.9121 Q594.625,197.2559 594.2813,197.6621 Q593.7813,198.2402 592.9844,198.5684 Q591.9063,199.0215 590.6094,199.0215 Q589.0938,199.0215 587.8906,198.3965 Q586.9063,197.8965 586.2188,196.834 Q585.5313,195.7559 585.5313,194.4746 L585.5313,193.3184 Q585.5313,191.9902 586.1406,190.8496 Q586.7656,189.6934 587.8594,189.084 Q588.9531,188.459 590.1875,188.459 Q590.9219,188.459 591.5625,188.6309 Q592.2188,188.7871 592.7656,189.1465 Z " fill="#000000"/><text fill="#000000" font-family="sans-serif" font-size="12" font-style="italic" lengthAdjust="spacing" textLength="43.3594" x="636.3926" y="180.9492">&#171;Entity&#187;</text><text fill="#000000" font-family="sans-serif" font-size="12" font-style="italic" lengthAdjust="spacing" textLength="34.0254" x="641.0596" y="196.9102">&#171;root&#187;</text><text fill="#000000" font-family="sans-serif" font-size="14" lengthAdjust="spacing" textLength="108.1445" x="604" y="215.0293">CRMCollaborator</text><line style="stroke:#181818;stroke-width:0.5;" x1="576" x2="714.1445" y1="223.543" y2="223.543"/><line style="stroke:#181818;stroke-width:0.5;" x1="576" x2="714.1445" y1="231.543" y2="231.543"/></g><!--class Figure--><g id="elem_Figure"><rect codeLine="17" fill="#F1F1F1" height="76.543" id="Figure" rx="2.5" ry="2.5" style="stroke:#181818;stroke-width:0.5;" width="71.6826" x="750" y="163"/><ellipse cx="765" cy="193.2715" fill="#ADD1B2" rx="11" ry="11" style="stroke:#181818;stroke-width:1.0;"/><path d="M767.7656,189.1465 Q767.9219,188.9277 768.1094,188.8184 Q768.2969,188.709 768.5156,188.709 Q768.8906,188.709 769.125,188.9746 Q769.3594,189.2246 769.3594,189.834 L769.3594,191.2871 Q769.3594,191.8965 769.125,192.1621 Q768.8906,192.4277 768.5156,192.4277 Q768.1719,192.4277 767.9688,192.2246 Q767.7656,192.0371 767.6563,191.5215 Q767.6094,191.1621 767.4219,190.9746 Q767.0938,190.5996 766.4844,190.3809 Q765.875,190.1621 765.25,190.1621 Q764.4844,190.1621 763.8438,190.4902 Q763.2188,190.8184 762.7188,191.5684 Q762.2344,192.3184 762.2344,193.3496 L762.2344,194.4434 Q762.2344,195.6777 763.125,196.5059 Q764.0156,197.3184 765.6094,197.3184 Q766.5469,197.3184 767.2031,197.0684 Q767.5938,196.9121 768.0156,196.4746 Q768.2813,196.209 768.4219,196.1309 Q768.5781,196.0527 768.7813,196.0527 Q769.1094,196.0527 769.3594,196.3184 Q769.625,196.5684 769.625,196.9121 Q769.625,197.2559 769.2813,197.6621 Q768.7813,198.2402 767.9844,198.5684 Q766.9063,199.0215 765.6094,199.0215 Q764.0938,199.0215 762.8906,198.3965 Q761.9063,197.8965 761.2188,196.834 Q760.5313,195.7559 760.5313,194.4746 L760.5313,193.3184 Q760.5313,191.9902 761.1406,190.8496 Q761.7656,189.6934 762.8594,189.084 Q763.9531,188.459 765.1875,188.459 Q765.9219,188.459 766.5625,188.6309 Q767.2188,188.7871 767.7656,189.1465 Z " fill="#000000"/><text fill="#000000" font-family="sans-serif" font-size="12" font-style="italic" lengthAdjust="spacing" textLength="43.3594" x="777.1616" y="180.9492">&#171;Entity&#187;</text><text fill="#000000" font-family="sans-serif" font-size="12" font-style="italic" lengthAdjust="spacing" textLength="34.0254" x="781.8286" y="196.9102">&#171;root&#187;</text><text fill="#000000" font-family="sans-serif" font-size="14" lengthAdjust="spacing" textLength="39.6826" x="779" y="215.0293">Figure</text><line style="stroke:#181818;stroke-width:0.5;" x1="751" x2="820.6826" y1="223.543" y2="223.543"/><line style="stroke:#181818;stroke-width:0.5;" x1="751" x2="820.6826" y1="231.543" y2="231.543"/></g><!--class Date--><g id="elem_Date"><rect codeLine="20" fill="#F1F1F1" height="60.582" id="Date" rx="2.5" ry="2.5" style="stroke:#181818;stroke-width:0.5;" width="110.0547" x="729" y="381"/><ellipse cx="744" cy="403.291" fill="#ADD1B2" rx="11" ry="11" style="stroke:#181818;stroke-width:1.0;"/><path d="M746.7656,399.166 Q746.9219,398.9473 747.1094,398.8379 Q747.2969,398.7285 747.5156,398.7285 Q747.8906,398.7285 748.125,398.9941 Q748.3594,399.2441 748.3594,399.8535 L748.3594,401.3066 Q748.3594,401.916 748.125,402.1816 Q747.8906,402.4473 747.5156,402.4473 Q747.1719,402.4473 746.9688,402.2441 Q746.7656,402.0566 746.6563,401.541 Q746.6094,401.1816 746.4219,400.9941 Q746.0938,400.6191 745.4844,400.4004 Q744.875,400.1816 744.25,400.1816 Q743.4844,400.1816 742.8438,400.5098 Q742.2188,400.8379 741.7188,401.5879 Q741.2344,402.3379 741.2344,403.3691 L741.2344,404.4629 Q741.2344,405.6973 742.125,406.5254 Q743.0156,407.3379 744.6094,407.3379 Q745.5469,407.3379 746.2031,407.0879 Q746.5938,406.9316 747.0156,406.4941 Q747.2813,406.2285 747.4219,406.1504 Q747.5781,406.0723 747.7813,406.0723 Q748.1094,406.0723 748.3594,406.3379 Q748.625,406.5879 748.625,406.9316 Q748.625,407.2754 748.2813,407.6816 Q747.7813,408.2598 746.9844,408.5879 Q745.9063,409.041 744.6094,409.041 Q743.0938,409.041 741.8906,408.416 Q740.9063,407.916 740.2188,406.8535 Q739.5313,405.7754 739.5313,404.4941 L739.5313,403.3379 Q739.5313,402.0098 740.1406,400.8691 Q740.7656,399.7129 741.8594,399.1035 Q742.9531,398.4785 744.1875,398.4785 Q744.9219,398.4785 745.5625,398.6504 Q746.2188,398.8066 746.7656,399.166 Z " fill="#000000"/><text fill="#000000" font-family="sans-serif" font-size="12" font-style="italic" lengthAdjust="spacing" textLength="82.0547" x="756" y="398.9492">&#171;Value Object&#187;</text><text fill="#000000" font-family="sans-serif" font-size="14" lengthAdjust="spacing" textLength="29.5723" x="782.2412" y="417.0684">Date</text><line style="stroke:#181818;stroke-width:0.5;" x1="730" x2="838.0547" y1="425.582" y2="425.582"/><line style="stroke:#181818;stroke-width:0.5;" x1="730" x2="838.0547" y1="433.582" y2="433.582"/></g><!--class QuantityOfDrones--><g id="elem_QuantityOfDrones"><rect codeLine="23" fill="#F1F1F1" height="60.582" id="QuantityOfDrones" rx="2.5" ry="2.5" style="stroke:#181818;stroke-width:0.5;" width="144.0479" x="874" y="381"/><ellipse cx="889" cy="403.291" fill="#ADD1B2" rx="11" ry="11" style="stroke:#181818;stroke-width:1.0;"/><path d="M891.7656,399.166 Q891.9219,398.9473 892.1094,398.8379 Q892.2969,398.7285 892.5156,398.7285 Q892.8906,398.7285 893.125,398.9941 Q893.3594,399.2441 893.3594,399.8535 L893.3594,401.3066 Q893.3594,401.916 893.125,402.1816 Q892.8906,402.4473 892.5156,402.4473 Q892.1719,402.4473 891.9688,402.2441 Q891.7656,402.0566 891.6563,401.541 Q891.6094,401.1816 891.4219,400.9941 Q891.0938,400.6191 890.4844,400.4004 Q889.875,400.1816 889.25,400.1816 Q888.4844,400.1816 887.8438,400.5098 Q887.2188,400.8379 886.7188,401.5879 Q886.2344,402.3379 886.2344,403.3691 L886.2344,404.4629 Q886.2344,405.6973 887.125,406.5254 Q888.0156,407.3379 889.6094,407.3379 Q890.5469,407.3379 891.2031,407.0879 Q891.5938,406.9316 892.0156,406.4941 Q892.2813,406.2285 892.4219,406.1504 Q892.5781,406.0723 892.7813,406.0723 Q893.1094,406.0723 893.3594,406.3379 Q893.625,406.5879 893.625,406.9316 Q893.625,407.2754 893.2813,407.6816 Q892.7813,408.2598 891.9844,408.5879 Q890.9063,409.041 889.6094,409.041 Q888.0938,409.041 886.8906,408.416 Q885.9063,407.916 885.2188,406.8535 Q884.5313,405.7754 884.5313,404.4941 L884.5313,403.3379 Q884.5313,402.0098 885.1406,400.8691 Q885.7656,399.7129 886.8594,399.1035 Q887.9531,398.4785 889.1875,398.4785 Q889.9219,398.4785 890.5625,398.6504 Q891.2188,398.8066 891.7656,399.166 Z " fill="#000000"/><text fill="#000000" font-family="sans-serif" font-size="12" font-style="italic" lengthAdjust="spacing" textLength="82.0547" x="917.9966" y="398.9492">&#171;Value Object&#187;</text><text fill="#000000" font-family="sans-serif" font-size="14" lengthAdjust="spacing" textLength="112.0479" x="903" y="417.0684">QuantityOfDrones</text><line style="stroke:#181818;stroke-width:0.5;" x1="875" x2="1017.0479" y1="425.582" y2="425.582"/><line style="stroke:#181818;stroke-width:0.5;" x1="875" x2="1017.0479" y1="433.582" y2="433.582"/></g><!--class Time--><g id="elem_Time"><rect codeLine="26" fill="#F1F1F1" height="60.582" id="Time" rx="2.5" ry="2.5" style="stroke:#181818;stroke-width:0.5;" width="110.0547" x="1053" y="381"/><ellipse cx="1068" cy="403.291" fill="#ADD1B2" rx="11" ry="11" style="stroke:#181818;stroke-width:1.0;"/><path d="M1070.7656,399.166 Q1070.9219,398.9473 1071.1094,398.8379 Q1071.2969,398.7285 1071.5156,398.7285 Q1071.8906,398.7285 1072.125,398.9941 Q1072.3594,399.2441 1072.3594,399.8535 L1072.3594,401.3066 Q1072.3594,401.916 1072.125,402.1816 Q1071.8906,402.4473 1071.5156,402.4473 Q1071.1719,402.4473 1070.9688,402.2441 Q1070.7656,402.0566 1070.6563,401.541 Q1070.6094,401.1816 1070.4219,400.9941 Q1070.0938,400.6191 1069.4844,400.4004 Q1068.875,400.1816 1068.25,400.1816 Q1067.4844,400.1816 1066.8438,400.5098 Q1066.2188,400.8379 1065.7188,401.5879 Q1065.2344,402.3379 1065.2344,403.3691 L1065.2344,404.4629 Q1065.2344,405.6973 1066.125,406.5254 Q1067.0156,407.3379 1068.6094,407.3379 Q1069.5469,407.3379 1070.2031,407.0879 Q1070.5938,406.9316 1071.0156,406.4941 Q1071.2813,406.2285 1071.4219,406.1504 Q1071.5781,406.0723 1071.7813,406.0723 Q1072.1094,406.0723 1072.3594,406.3379 Q1072.625,406.5879 1072.625,406.9316 Q1072.625,407.2754 1072.2813,407.6816 Q1071.7813,408.2598 1070.9844,408.5879 Q1069.9063,409.041 1068.6094,409.041 Q1067.0938,409.041 1065.8906,408.416 Q1064.9063,407.916 1064.2188,406.8535 Q1063.5313,405.7754 1063.5313,404.4941 L1063.5313,403.3379 Q1063.5313,402.0098 1064.1406,400.8691 Q1064.7656,399.7129 1065.8594,399.1035 Q1066.9531,398.4785 1068.1875,398.4785 Q1068.9219,398.4785 1069.5625,398.6504 Q1070.2188,398.8066 1070.7656,399.166 Z " fill="#000000"/><text fill="#000000" font-family="sans-serif" font-size="12" font-style="italic" lengthAdjust="spacing" textLength="82.0547" x="1080" y="398.9492">&#171;Value Object&#187;</text><text fill="#000000" font-family="sans-serif" font-size="14" lengthAdjust="spacing" textLength="31.1104" x="1105.4722" y="417.0684">Time</text><line style="stroke:#181818;stroke-width:0.5;" x1="1054" x2="1162.0547" y1="425.582" y2="425.582"/><line style="stroke:#181818;stroke-width:0.5;" x1="1054" x2="1162.0547" y1="433.582" y2="433.582"/></g><!--class Model--><g id="elem_Model"><rect codeLine="29" fill="#F1F1F1" height="76.543" id="Model" rx="2.5" ry="2.5" style="stroke:#181818;stroke-width:0.5;" width="71.3594" x="1088.5" y="163"/><ellipse cx="1103.5" cy="193.2715" fill="#ADD1B2" rx="11" ry="11" style="stroke:#181818;stroke-width:1.0;"/><path d="M1106.2656,189.1465 Q1106.4219,188.9277 1106.6094,188.8184 Q1106.7969,188.709 1107.0156,188.709 Q1107.3906,188.709 1107.625,188.9746 Q1107.8594,189.2246 1107.8594,189.834 L1107.8594,191.2871 Q1107.8594,191.8965 1107.625,192.1621 Q1107.3906,192.4277 1107.0156,192.4277 Q1106.6719,192.4277 1106.4688,192.2246 Q1106.2656,192.0371 1106.1563,191.5215 Q1106.1094,191.1621 1105.9219,190.9746 Q1105.5938,190.5996 1104.9844,190.3809 Q1104.375,190.1621 1103.75,190.1621 Q1102.9844,190.1621 1102.3438,190.4902 Q1101.7188,190.8184 1101.2188,191.5684 Q1100.7344,192.3184 1100.7344,193.3496 L1100.7344,194.4434 Q1100.7344,195.6777 1101.625,196.5059 Q1102.5156,197.3184 1104.1094,197.3184 Q1105.0469,197.3184 1105.7031,197.0684 Q1106.0938,196.9121 1106.5156,196.4746 Q1106.7813,196.209 1106.9219,196.1309 Q1107.0781,196.0527 1107.2813,196.0527 Q1107.6094,196.0527 1107.8594,196.3184 Q1108.125,196.5684 1108.125,196.9121 Q1108.125,197.2559 1107.7813,197.6621 Q1107.2813,198.2402 1106.4844,198.5684 Q1105.4063,199.0215 1104.1094,199.0215 Q1102.5938,199.0215 1101.3906,198.3965 Q1100.4063,197.8965 1099.7188,196.834 Q1099.0313,195.7559 1099.0313,194.4746 L1099.0313,193.3184 Q1099.0313,191.9902 1099.6406,190.8496 Q1100.2656,189.6934 1101.3594,189.084 Q1102.4531,188.459 1103.6875,188.459 Q1104.4219,188.459 1105.0625,188.6309 Q1105.7188,188.7871 1106.2656,189.1465 Z " fill="#000000"/><text fill="#000000" font-family="sans-serif" font-size="12" font-style="italic" lengthAdjust="spacing" textLength="43.3594" x="1115.5" y="180.9492">&#171;Entity&#187;</text><text fill="#000000" font-family="sans-serif" font-size="12" font-style="italic" lengthAdjust="spacing" textLength="34.0254" x="1120.167" y="196.9102">&#171;root&#187;</text><text fill="#000000" font-family="sans-serif" font-size="14" lengthAdjust="spacing" textLength="38.1309" x="1118.1143" y="215.0293">Model</text><line style="stroke:#181818;stroke-width:0.5;" x1="1089.5" x2="1158.8594" y1="223.543" y2="223.543"/><line style="stroke:#181818;stroke-width:0.5;" x1="1089.5" x2="1158.8594" y1="231.543" y2="231.543"/></g><!--class Insurance--><g id="elem_Insurance"><rect codeLine="32" fill="#F1F1F1" height="60.582" id="Insurance" rx="2.5" ry="2.5" style="stroke:#181818;stroke-width:0.5;" width="110.0547" x="1195" y="171"/><ellipse cx="1210" cy="193.291" fill="#ADD1B2" rx="11" ry="11" style="stroke:#181818;stroke-width:1.0;"/><path d="M1212.7656,189.166 Q1212.9219,188.9473 1213.1094,188.8379 Q1213.2969,188.7285 1213.5156,188.7285 Q1213.8906,188.7285 1214.125,188.9941 Q1214.3594,189.2441 1214.3594,189.8535 L1214.3594,191.3066 Q1214.3594,191.916 1214.125,192.1816 Q1213.8906,192.4473 1213.5156,192.4473 Q1213.1719,192.4473 1212.9688,192.2441 Q1212.7656,192.0566 1212.6563,191.541 Q1212.6094,191.1816 1212.4219,190.9941 Q1212.0938,190.6191 1211.4844,190.4004 Q1210.875,190.1816 1210.25,190.1816 Q1209.4844,190.1816 1208.8438,190.5098 Q1208.2188,190.8379 1207.7188,191.5879 Q1207.2344,192.3379 1207.2344,193.3691 L1207.2344,194.4629 Q1207.2344,195.6973 1208.125,196.5254 Q1209.0156,197.3379 1210.6094,197.3379 Q1211.5469,197.3379 1212.2031,197.0879 Q1212.5938,196.9316 1213.0156,196.4941 Q1213.2813,196.2285 1213.4219,196.1504 Q1213.5781,196.0723 1213.7813,196.0723 Q1214.1094,196.0723 1214.3594,196.3379 Q1214.625,196.5879 1214.625,196.9316 Q1214.625,197.2754 1214.2813,197.6816 Q1213.7813,198.2598 1212.9844,198.5879 Q1211.9063,199.041 1210.6094,199.041 Q1209.0938,199.041 1207.8906,198.416 Q1206.9063,197.916 1206.2188,196.8535 Q1205.5313,195.7754 1205.5313,194.4941 L1205.5313,193.3379 Q1205.5313,192.0098 1206.1406,190.8691 Q1206.7656,189.7129 1207.8594,189.1035 Q1208.9531,188.4785 1210.1875,188.4785 Q1210.9219,188.4785 1211.5625,188.6504 Q1212.2188,188.8066 1212.7656,189.166 Z " fill="#000000"/><text fill="#000000" font-family="sans-serif" font-size="12" font-style="italic" lengthAdjust="spacing" textLength="82.0547" x="1222" y="188.9492">&#171;Value Object&#187;</text><text fill="#000000" font-family="sans-serif" font-size="14" lengthAdjust="spacing" textLength="61.4824" x="1232.2861" y="207.0684">Insurance</text><line style="stroke:#181818;stroke-width:0.5;" x1="1196" x2="1304.0547" y1="215.582" y2="215.582"/><line style="stroke:#181818;stroke-width:0.5;" x1="1196" x2="1304.0547" y1="223.582" y2="223.582"/></g><!--class FeedbackEmail--><g id="elem_FeedbackEmail"><rect codeLine="35" fill="#F1F1F1" height="60.582" id="FeedbackEmail" rx="2.5" ry="2.5" style="stroke:#181818;stroke-width:0.5;" width="128.4893" x="1340" y="171"/><ellipse cx="1355" cy="193.291" fill="#ADD1B2" rx="11" ry="11" style="stroke:#181818;stroke-width:1.0;"/><path d="M1357.7656,189.166 Q1357.9219,188.9473 1358.1094,188.8379 Q1358.2969,188.7285 1358.5156,188.7285 Q1358.8906,188.7285 1359.125,188.9941 Q1359.3594,189.2441 1359.3594,189.8535 L1359.3594,191.3066 Q1359.3594,191.916 1359.125,192.1816 Q1358.8906,192.4473 1358.5156,192.4473 Q1358.1719,192.4473 1357.9688,192.2441 Q1357.7656,192.0566 1357.6563,191.541 Q1357.6094,191.1816 1357.4219,190.9941 Q1357.0938,190.6191 1356.4844,190.4004 Q1355.875,190.1816 1355.25,190.1816 Q1354.4844,190.1816 1353.8438,190.5098 Q1353.2188,190.8379 1352.7188,191.5879 Q1352.2344,192.3379 1352.2344,193.3691 L1352.2344,194.4629 Q1352.2344,195.6973 1353.125,196.5254 Q1354.0156,197.3379 1355.6094,197.3379 Q1356.5469,197.3379 1357.2031,197.0879 Q1357.5938,196.9316 1358.0156,196.4941 Q1358.2813,196.2285 1358.4219,196.1504 Q1358.5781,196.0723 1358.7813,196.0723 Q1359.1094,196.0723 1359.3594,196.3379 Q1359.625,196.5879 1359.625,196.9316 Q1359.625,197.2754 1359.2813,197.6816 Q1358.7813,198.2598 1357.9844,198.5879 Q1356.9063,199.041 1355.6094,199.041 Q1354.0938,199.041 1352.8906,198.416 Q1351.9063,197.916 1351.2188,196.8535 Q1350.5313,195.7754 1350.5313,194.4941 L1350.5313,193.3379 Q1350.5313,192.0098 1351.1406,190.8691 Q1351.7656,189.7129 1352.8594,189.1035 Q1353.9531,188.4785 1355.1875,188.4785 Q1355.9219,188.4785 1356.5625,188.6504 Q1357.2188,188.8066 1357.7656,189.166 Z " fill="#000000"/><text fill="#000000" font-family="sans-serif" font-size="12" font-style="italic" lengthAdjust="spacing" textLength="82.0547" x="1376.2173" y="188.9492">&#171;Value Object&#187;</text><text fill="#000000" font-family="sans-serif" font-size="14" lengthAdjust="spacing" textLength="96.4893" x="1369" y="207.0684">FeedbackEmail</text><line style="stroke:#181818;stroke-width:0.5;" x1="1341" x2="1467.4893" y1="215.582" y2="215.582"/><line style="stroke:#181818;stroke-width:0.5;" x1="1341" x2="1467.4893" y1="223.582" y2="223.582"/></g><!--link ShowProposal to FeedbackEmail--><g id="link_ShowProposal_FeedbackEmail"><path codeLine="39" d="M936.1,53.91 C1005.78,63.4 1122.53,82.5 1219,114 C1264.67,128.91 1308.4899,149.515 1344.6499,168.205 " fill="none" id="ShowProposal-to-FeedbackEmail" style="stroke:#181818;stroke-width:1.0;"/><polygon fill="#181818" points="1349.98,170.96,1343.8215,163.2741,1345.5382,168.6642,1340.1482,170.3809,1349.98,170.96" style="stroke:#181818;stroke-width:1.0;"/><text fill="#000000" font-family="sans-serif" font-size="13" lengthAdjust="spacing" textLength="85.2681" x="1268" y="129.0283">feedbackEmail</text><text fill="#000000" font-family="sans-serif" font-size="13" lengthAdjust="spacing" textLength="7.23" x="1330.3691" y="159.5259">1</text></g><!--link ShowProposal to CRMCollaborator--><g id="link_ShowProposal_CRMCollaborator"><path codeLine="40" d="M813.73,58.41 C776.13,68.21 728.87,85.31 695,114 C679.65,127 670.5656,140.585 662.3556,157.455 " fill="none" id="ShowProposal-to-CRMCollaborator" style="stroke:#181818;stroke-width:1.0;"/><polygon fill="#181818" points="659.73,162.85,667.265,156.5078,661.918,158.3541,660.0717,153.0071,659.73,162.85" style="stroke:#181818;stroke-width:1.0;"/><text fill="#000000" font-family="sans-serif" font-size="13" lengthAdjust="spacing" textLength="60.7026" x="696" y="129.0283">created by</text><text fill="#000000" font-family="sans-serif" font-size="13" lengthAdjust="spacing" textLength="7.23" x="654.6675" y="151.8387">1</text></g><!--link ShowProposal to ShowRequest--><g id="link_ShowProposal_ShowRequest"><path codeLine="41" d="M813.82,56.86 C760.18,67.23 680.86,85.75 616,114 C586.24,126.96 560.4846,142.556 535.7846,159.426 " fill="none" id="ShowProposal-to-ShowRequest" style="stroke:#181818;stroke-width:1.0;"/><polygon fill="#181818" points="530.83,162.81,540.518,161.0371,534.9589,159.99,536.006,154.4309,530.83,162.81" style="stroke:#181818;stroke-width:1.0;"/><text fill="#000000" font-family="sans-serif" font-size="13" lengthAdjust="spacing" textLength="53.4917" x="617" y="129.0283">based on</text><text fill="#000000" font-family="sans-serif" font-size="13" lengthAdjust="spacing" textLength="7.23" x="531.9704" y="151.7918">1</text></g><!--link ShowProposal to ShowProposalStatus--><g id="link_ShowProposal_ShowProposalStatus"><path codeLine="42" d="M813.82,52.06 C718.26,61.33 528.02,82.13 369,114 C286.86,130.46 266.71,137.24 187,163 C179.39,165.46 177.1605,166.142 169.3205,168.942 " fill="none" id="ShowProposal-to-ShowProposalStatus" style="stroke:#181818;stroke-width:1.0;"/><polygon fill="#181818" points="163.67,170.96,173.491,171.6999,168.3787,169.2783,170.8003,164.166,163.67,170.96" style="stroke:#181818;stroke-width:1.0;"/><text fill="#000000" font-family="sans-serif" font-size="13" lengthAdjust="spacing" textLength="86.7217" x="370" y="129.0283">proposalStatus</text><text fill="#000000" font-family="sans-serif" font-size="13" lengthAdjust="spacing" textLength="7.23" x="172.4862" y="159.5259">1</text></g><!--link ShowProposal to Figure--><g id="link_ShowProposal_Figure"><path codeLine="43" d="M813.8,71.9 C796.51,82.27 779.76,96.12 770,114 C761.95,128.74 762.0573,141.0396 766.7573,156.8196 " fill="none" id="ShowProposal-to-Figure" style="stroke:#181818;stroke-width:1.0;"/><polygon fill="#181818" points="768.47,162.57,769.7345,152.8027,767.0427,157.778,762.0674,155.0863,768.47,162.57" style="stroke:#181818;stroke-width:1.0;"/><text fill="#000000" font-family="sans-serif" font-size="13" lengthAdjust="spacing" textLength="77.3208" x="771" y="129.0283">requests new</text><text fill="#000000" font-family="sans-serif" font-size="13" lengthAdjust="spacing" textLength="19.5127" x="745.0619" y="151.8047">0..*</text></g><!--link ShowProposal to ShowProposalTemplate--><g id="link_ShowProposal_ShowProposalTemplate"><path codeLine="44" d="M813.97,54.85 C742.99,65.32 622.69,85.43 522,114 C467.63,129.43 413.5349,150.1078 369.0249,168.5078 " fill="none" id="ShowProposal-to-ShowProposalTemplate" style="stroke:#181818;stroke-width:1.0;"/><polygon fill="#181818" points="363.48,170.8,373.3255,171.0583,368.1007,168.8898,370.2692,163.6651,363.48,170.8" style="stroke:#181818;stroke-width:1.0;"/><text fill="#000000" font-family="sans-serif" font-size="13" lengthAdjust="spacing" textLength="49.8608" x="523" y="129.0283">template</text><text fill="#000000" font-family="sans-serif" font-size="13" lengthAdjust="spacing" textLength="7.23" x="369.9436" y="159.8164">1</text></g><!--link ShowProposal to Model--><g id="link_ShowProposal_Model"><path codeLine="45" d="M936.4,59.03 C974.97,69.14 1024.21,86.34 1061,114 C1078.22,126.95 1089.5427,140.8719 1100.3127,157.7519 " fill="none" id="ShowProposal-to-Model" style="stroke:#181818;stroke-width:1.0;"/><polygon fill="#181818" points="1103.54,162.81,1102.0712,153.0713,1100.8506,158.5949,1095.327,157.3743,1103.54,162.81" style="stroke:#181818;stroke-width:1.0;"/><text fill="#000000" font-family="sans-serif" font-size="13" lengthAdjust="spacing" textLength="27.46" x="1082" y="129.0283">uses</text><text fill="#000000" font-family="sans-serif" font-size="13" lengthAdjust="spacing" textLength="19.5127" x="1079.4038" y="151.7918">1..*</text></g><!--link ShowProposal to QuantityOfDrones--><g id="link_ShowProposal_QuantityOfDrones"><path codeLine="46" d="M891.18,84.22 C894.83,93.8 898.39,104.17 901,114 C926.35,209.62 938.333,320.6532 943.093,374.6332 " fill="none" id="ShowProposal-to-QuantityOfDrones" style="stroke:#181818;stroke-width:1.0;"/><polygon fill="#181818" points="943.62,380.61,946.814,371.2934,943.1808,375.6293,938.8449,371.9961,943.62,380.61" style="stroke:#181818;stroke-width:1.0;"/><text fill="#000000" font-family="sans-serif" font-size="13" lengthAdjust="spacing" textLength="65.0508" x="935" y="285.0283">qnt_drones</text><text fill="#000000" font-family="sans-serif" font-size="13" lengthAdjust="spacing" textLength="7.23" x="935.426" y="369.5872">1</text></g><!--link ShowProposal to Time--><g id="link_ShowProposal_Time"><path codeLine="47" d="M907.39,84.31 C915.07,93.8 923.05,104.1 930,114 C995.73,207.6 1059.3286,320.8117 1089.0386,375.3217 " fill="none" id="ShowProposal-to-Time" style="stroke:#181818;stroke-width:1.0;"/><polygon fill="#181818" points="1091.91,380.59,1091.1151,370.7733,1089.5172,376.1998,1084.0907,374.6018,1091.91,380.59" style="stroke:#181818;stroke-width:1.0;"/><text fill="#000000" font-family="sans-serif" font-size="13" lengthAdjust="spacing" textLength="24.5591" x="1042" y="285.0283">time</text><text fill="#000000" font-family="sans-serif" font-size="13" lengthAdjust="spacing" textLength="7.23" x="1080.8876" y="369.5631">1</text></g><!--link ShowProposal to Date--><g id="link_ShowProposal_Date"><path codeLine="48" d="M869.44,84.27 C863.33,123.49 852.55,186.5 839,240 C826.29,290.2 808.8665,341.569 796.8265,375.309 " fill="none" id="ShowProposal-to-Date" style="stroke:#181818;stroke-width:1.0;"/><polygon fill="#181818" points="794.81,380.96,801.6021,373.8279,796.4904,376.2508,794.0675,371.1392,794.81,380.96" style="stroke:#181818;stroke-width:1.0;"/><text fill="#000000" font-family="sans-serif" font-size="13" lengthAdjust="spacing" textLength="25.3018" x="832" y="285.0283">date</text><text fill="#000000" font-family="sans-serif" font-size="13" lengthAdjust="spacing" textLength="7.23" x="789.4282" y="369.5259">1</text></g><!--link ShowProposal to Insurance--><g id="link_ShowProposal_Insurance"><path codeLine="49" d="M936.23,58.01 C986.5,68.75 1058.78,87.16 1118,114 C1151.57,129.21 1181.4494,148.7885 1206.8594,167.2885 " fill="none" id="ShowProposal-to-Insurance" style="stroke:#181818;stroke-width:1.0;"/><polygon fill="#181818" points="1211.71,170.82,1206.7885,162.289,1207.6678,167.8771,1202.0797,168.7564,1211.71,170.82" style="stroke:#181818;stroke-width:1.0;"/><text fill="#000000" font-family="sans-serif" font-size="13" lengthAdjust="spacing" textLength="56.3672" x="1154" y="129.0283">insurance</text><text fill="#000000" font-family="sans-serif" font-size="13" lengthAdjust="spacing" textLength="7.23" x="1196.1089" y="159.8406">1</text></g><!--SRC=[ZL9DIyD04BtdLmov2895hql9fH_WeLJRubKcoRH6DxlfVb2B-DzTLuFTqkoQGvWTtdlpc7aaR0lh5tbuKBAJ6ldQeB4QnkCdv9PWMRvIPOhY8_lCiegZrW7QuMR2DEPO5AvKKWv3DzHs70sbf5UqjwHDGdcoMamavrXAXKQg17hUxAoY16YQCFTeqRENswcIWg8xsZHjL6iXQqejxrvegr1KKQ4vKLrYzJPhiU6NWU2-g-1eDmMy-tROTUtyBWyb6MnFdyEiiuCmg1IvXTPG7eT99_TcKA9sS2dYy32d3BhWFS2z7Oskypu53DJFI0s23l-RreUNWVcjXdX-aZyl0wlfegD-mdcY6Eo5UQvz7UDzfyivSVyOQkhzrX6l-L_663HzcMLV]--></g></svg>