<svg xmlns="http://www.w3.org/2000/svg" xmlns:xlink="http://www.w3.org/1999/xlink" contentStyleType="text/css" height="448px" preserveAspectRatio="none" style="width:910px;height:448px;background:#FFFFFF;" version="1.1" viewBox="0 0 910 448" width="910px" zoomAndPan="magnify"><defs/><g><!--class ShowProposalStatus--><g id="elem_ShowProposalStatus"><rect codeLine="2" fill="#F1F1F1" height="60.582" id="ShowProposalStatus" rx="2.5" ry="2.5" style="stroke:#181818;stroke-width:0.5;" width="161.9648" x="7" y="171"/><ellipse cx="22" cy="193.291" fill="#EB937F" rx="11" ry="11" style="stroke:#181818;stroke-width:1.0;"/><path d="M20.8594,194.0879 L20.8594,196.5879 L25.1875,196.5879 L25.1875,195.666 Q25.1875,195.0566 25.4219,194.791 Q25.6719,194.5254 26.0469,194.5254 Q26.4219,194.5254 26.6563,194.791 Q26.8906,195.0566 26.8906,195.666 L26.8906,198.291 L18.8906,198.291 Q18.2656,198.291 18,198.0566 Q17.75,197.8223 17.75,197.4316 Q17.75,197.0566 18.0156,196.8223 Q18.2813,196.5879 18.8906,196.5879 L19.1563,196.5879 L19.1563,189.9316 L18.8906,189.9316 Q18.2656,189.9316 18,189.6973 Q17.75,189.4629 17.75,189.0723 Q17.75,188.6973 18,188.4629 Q18.2656,188.2285 18.8906,188.2285 L26.5156,188.2285 L26.5156,190.8223 Q26.5156,191.4316 26.2813,191.6973 Q26.0625,191.9473 25.6719,191.9473 Q25.2969,191.9473 25.0625,191.6973 Q24.8281,191.4316 24.8281,190.8223 L24.8281,189.9316 L20.8594,189.9316 L20.8594,192.3848 L22.3438,192.3848 Q22.3438,191.7285 22.4688,191.541 Q22.7344,191.1348 23.2031,191.1348 Q23.5781,191.1348 23.8125,191.4004 Q24.0469,191.6504 24.0469,192.2598 L24.0469,194.2285 Q24.0469,194.7754 23.9219,194.9629 Q23.6563,195.3535 23.2031,195.3535 Q22.7344,195.3535 22.4688,194.9473 Q22.3438,194.7598 22.3438,194.0879 L20.8594,194.0879 Z " fill="#000000"/><text fill="#000000" font-family="sans-serif" font-size="12" font-style="italic" lengthAdjust="spacing" textLength="82.0547" x="59.9551" y="188.9492">&#171;Value Object&#187;</text><text fill="#000000" font-family="sans-serif" font-size="14" lengthAdjust="spacing" textLength="129.9648" x="36" y="207.0684">ShowProposalStatus</text><line style="stroke:#181818;stroke-width:0.5;" x1="8" x2="167.9648" y1="215.582" y2="215.582"/><line style="stroke:#181818;stroke-width:0.5;" x1="8" x2="167.9648" y1="223.582" y2="223.582"/></g><!--class ShowProposal--><g id="elem_ShowProposal"><rect codeLine="5" fill="#F1F1F1" height="76.543" id="ShowProposal" rx="2.5" ry="2.5" style="stroke:#181818;stroke-width:0.5;" width="122.2754" x="491" y="7"/><ellipse cx="506" cy="37.2715" fill="#ADD1B2" rx="11" ry="11" style="stroke:#181818;stroke-width:1.0;"/><path d="M508.7656,33.1465 Q508.9219,32.9277 509.1094,32.8184 Q509.2969,32.709 509.5156,32.709 Q509.8906,32.709 510.125,32.9746 Q510.3594,33.2246 510.3594,33.834 L510.3594,35.2871 Q510.3594,35.8965 510.125,36.1621 Q509.8906,36.4277 509.5156,36.4277 Q509.1719,36.4277 508.9688,36.2246 Q508.7656,36.0371 508.6563,35.5215 Q508.6094,35.1621 508.4219,34.9746 Q508.0938,34.5996 507.4844,34.3809 Q506.875,34.1621 506.25,34.1621 Q505.4844,34.1621 504.8438,34.4902 Q504.2188,34.8184 503.7188,35.5684 Q503.2344,36.3184 503.2344,37.3496 L503.2344,38.4434 Q503.2344,39.6777 504.125,40.5059 Q505.0156,41.3184 506.6094,41.3184 Q507.5469,41.3184 508.2031,41.0684 Q508.5938,40.9121 509.0156,40.4746 Q509.2813,40.209 509.4219,40.1309 Q509.5781,40.0527 509.7813,40.0527 Q510.1094,40.0527 510.3594,40.3184 Q510.625,40.5684 510.625,40.9121 Q510.625,41.2559 510.2813,41.6621 Q509.7813,42.2402 508.9844,42.5684 Q507.9063,43.0215 506.6094,43.0215 Q505.0938,43.0215 503.8906,42.3965 Q502.9063,41.8965 502.2188,40.834 Q501.5313,39.7559 501.5313,38.4746 L501.5313,37.3184 Q501.5313,35.9902 502.1406,34.8496 Q502.7656,33.6934 503.8594,33.084 Q504.9531,32.459 506.1875,32.459 Q506.9219,32.459 507.5625,32.6309 Q508.2188,32.7871 508.7656,33.1465 Z " fill="#000000"/><text fill="#000000" font-family="sans-serif" font-size="12" font-style="italic" lengthAdjust="spacing" textLength="43.3594" x="543.458" y="24.9492">&#171;Entity&#187;</text><text fill="#000000" font-family="sans-serif" font-size="12" font-style="italic" lengthAdjust="spacing" textLength="34.0254" x="548.125" y="40.9102">&#171;root&#187;</text><text fill="#000000" font-family="sans-serif" font-size="14" lengthAdjust="spacing" textLength="90.2754" x="520" y="59.0293">ShowProposal</text><line style="stroke:#181818;stroke-width:0.5;" x1="492" x2="612.2754" y1="67.543" y2="67.543"/><line style="stroke:#181818;stroke-width:0.5;" x1="492" x2="612.2754" y1="75.543" y2="75.543"/></g><!--class ShowRequest--><g id="elem_ShowRequest"><rect codeLine="8" fill="#F1F1F1" height="76.543" id="ShowRequest" rx="2.5" ry="2.5" style="stroke:#181818;stroke-width:0.5;" width="119.165" x="204.5" y="163"/><ellipse cx="219.5" cy="193.2715" fill="#ADD1B2" rx="11" ry="11" style="stroke:#181818;stroke-width:1.0;"/><path d="M222.2656,189.1465 Q222.4219,188.9277 222.6094,188.8184 Q222.7969,188.709 223.0156,188.709 Q223.3906,188.709 223.625,188.9746 Q223.8594,189.2246 223.8594,189.834 L223.8594,191.2871 Q223.8594,191.8965 223.625,192.1621 Q223.3906,192.4277 223.0156,192.4277 Q222.6719,192.4277 222.4688,192.2246 Q222.2656,192.0371 222.1563,191.5215 Q222.1094,191.1621 221.9219,190.9746 Q221.5938,190.5996 220.9844,190.3809 Q220.375,190.1621 219.75,190.1621 Q218.9844,190.1621 218.3438,190.4902 Q217.7188,190.8184 217.2188,191.5684 Q216.7344,192.3184 216.7344,193.3496 L216.7344,194.4434 Q216.7344,195.6777 217.625,196.5059 Q218.5156,197.3184 220.1094,197.3184 Q221.0469,197.3184 221.7031,197.0684 Q222.0938,196.9121 222.5156,196.4746 Q222.7813,196.209 222.9219,196.1309 Q223.0781,196.0527 223.2813,196.0527 Q223.6094,196.0527 223.8594,196.3184 Q224.125,196.5684 224.125,196.9121 Q224.125,197.2559 223.7813,197.6621 Q223.2813,198.2402 222.4844,198.5684 Q221.4063,199.0215 220.1094,199.0215 Q218.5938,199.0215 217.3906,198.3965 Q216.4063,197.8965 215.7188,196.834 Q215.0313,195.7559 215.0313,194.4746 L215.0313,193.3184 Q215.0313,191.9902 215.6406,190.8496 Q216.2656,189.6934 217.3594,189.084 Q218.4531,188.459 219.6875,188.459 Q220.4219,188.459 221.0625,188.6309 Q221.7188,188.7871 222.2656,189.1465 Z " fill="#000000"/><text fill="#000000" font-family="sans-serif" font-size="12" font-style="italic" lengthAdjust="spacing" textLength="43.3594" x="255.4028" y="180.9492">&#171;Entity&#187;</text><text fill="#000000" font-family="sans-serif" font-size="12" font-style="italic" lengthAdjust="spacing" textLength="34.0254" x="260.0698" y="196.9102">&#171;root&#187;</text><text fill="#000000" font-family="sans-serif" font-size="14" lengthAdjust="spacing" textLength="87.165" x="233.5" y="215.0293">ShowRequest</text><line style="stroke:#181818;stroke-width:0.5;" x1="205.5" x2="322.665" y1="223.543" y2="223.543"/><line style="stroke:#181818;stroke-width:0.5;" x1="205.5" x2="322.665" y1="231.543" y2="231.543"/></g><!--class CRMCollaborator--><g id="elem_CRMCollaborator"><rect codeLine="11" fill="#F1F1F1" height="76.543" id="CRMCollaborator" rx="2.5" ry="2.5" style="stroke:#181818;stroke-width:0.5;" width="140.1445" x="359" y="163"/><ellipse cx="374" cy="193.2715" fill="#ADD1B2" rx="11" ry="11" style="stroke:#181818;stroke-width:1.0;"/><path d="M376.7656,189.1465 Q376.9219,188.9277 377.1094,188.8184 Q377.2969,188.709 377.5156,188.709 Q377.8906,188.709 378.125,188.9746 Q378.3594,189.2246 378.3594,189.834 L378.3594,191.2871 Q378.3594,191.8965 378.125,192.1621 Q377.8906,192.4277 377.5156,192.4277 Q377.1719,192.4277 376.9688,192.2246 Q376.7656,192.0371 376.6563,191.5215 Q376.6094,191.1621 376.4219,190.9746 Q376.0938,190.5996 375.4844,190.3809 Q374.875,190.1621 374.25,190.1621 Q373.4844,190.1621 372.8438,190.4902 Q372.2188,190.8184 371.7188,191.5684 Q371.2344,192.3184 371.2344,193.3496 L371.2344,194.4434 Q371.2344,195.6777 372.125,196.5059 Q373.0156,197.3184 374.6094,197.3184 Q375.5469,197.3184 376.2031,197.0684 Q376.5938,196.9121 377.0156,196.4746 Q377.2813,196.209 377.4219,196.1309 Q377.5781,196.0527 377.7813,196.0527 Q378.1094,196.0527 378.3594,196.3184 Q378.625,196.5684 378.625,196.9121 Q378.625,197.2559 378.2813,197.6621 Q377.7813,198.2402 376.9844,198.5684 Q375.9063,199.0215 374.6094,199.0215 Q373.0938,199.0215 371.8906,198.3965 Q370.9063,197.8965 370.2188,196.834 Q369.5313,195.7559 369.5313,194.4746 L369.5313,193.3184 Q369.5313,191.9902 370.1406,190.8496 Q370.7656,189.6934 371.8594,189.084 Q372.9531,188.459 374.1875,188.459 Q374.9219,188.459 375.5625,188.6309 Q376.2188,188.7871 376.7656,189.1465 Z " fill="#000000"/><text fill="#000000" font-family="sans-serif" font-size="12" font-style="italic" lengthAdjust="spacing" textLength="43.3594" x="420.3926" y="180.9492">&#171;Entity&#187;</text><text fill="#000000" font-family="sans-serif" font-size="12" font-style="italic" lengthAdjust="spacing" textLength="34.0254" x="425.0596" y="196.9102">&#171;root&#187;</text><text fill="#000000" font-family="sans-serif" font-size="14" lengthAdjust="spacing" textLength="108.1445" x="388" y="215.0293">CRMCollaborator</text><line style="stroke:#181818;stroke-width:0.5;" x1="360" x2="498.1445" y1="223.543" y2="223.543"/><line style="stroke:#181818;stroke-width:0.5;" x1="360" x2="498.1445" y1="231.543" y2="231.543"/></g><!--class Date--><g id="elem_Date"><rect codeLine="14" fill="#F1F1F1" height="60.582" id="Date" rx="2.5" ry="2.5" style="stroke:#181818;stroke-width:0.5;" width="110.0547" x="406" y="381"/><ellipse cx="421" cy="403.291" fill="#ADD1B2" rx="11" ry="11" style="stroke:#181818;stroke-width:1.0;"/><path d="M423.7656,399.166 Q423.9219,398.9473 424.1094,398.8379 Q424.2969,398.7285 424.5156,398.7285 Q424.8906,398.7285 425.125,398.9941 Q425.3594,399.2441 425.3594,399.8535 L425.3594,401.3066 Q425.3594,401.916 425.125,402.1816 Q424.8906,402.4473 424.5156,402.4473 Q424.1719,402.4473 423.9688,402.2441 Q423.7656,402.0566 423.6563,401.541 Q423.6094,401.1816 423.4219,400.9941 Q423.0938,400.6191 422.4844,400.4004 Q421.875,400.1816 421.25,400.1816 Q420.4844,400.1816 419.8438,400.5098 Q419.2188,400.8379 418.7188,401.5879 Q418.2344,402.3379 418.2344,403.3691 L418.2344,404.4629 Q418.2344,405.6973 419.125,406.5254 Q420.0156,407.3379 421.6094,407.3379 Q422.5469,407.3379 423.2031,407.0879 Q423.5938,406.9316 424.0156,406.4941 Q424.2813,406.2285 424.4219,406.1504 Q424.5781,406.0723 424.7813,406.0723 Q425.1094,406.0723 425.3594,406.3379 Q425.625,406.5879 425.625,406.9316 Q425.625,407.2754 425.2813,407.6816 Q424.7813,408.2598 423.9844,408.5879 Q422.9063,409.041 421.6094,409.041 Q420.0938,409.041 418.8906,408.416 Q417.9063,407.916 417.2188,406.8535 Q416.5313,405.7754 416.5313,404.4941 L416.5313,403.3379 Q416.5313,402.0098 417.1406,400.8691 Q417.7656,399.7129 418.8594,399.1035 Q419.9531,398.4785 421.1875,398.4785 Q421.9219,398.4785 422.5625,398.6504 Q423.2188,398.8066 423.7656,399.166 Z " fill="#000000"/><text fill="#000000" font-family="sans-serif" font-size="12" font-style="italic" lengthAdjust="spacing" textLength="82.0547" x="433" y="398.9492">&#171;Value Object&#187;</text><text fill="#000000" font-family="sans-serif" font-size="14" lengthAdjust="spacing" textLength="29.5723" x="459.2412" y="417.0684">Date</text><line style="stroke:#181818;stroke-width:0.5;" x1="407" x2="515.0547" y1="425.582" y2="425.582"/><line style="stroke:#181818;stroke-width:0.5;" x1="407" x2="515.0547" y1="433.582" y2="433.582"/></g><!--class QuantityOfDrones--><g id="elem_QuantityOfDrones"><rect codeLine="17" fill="#F1F1F1" height="60.582" id="QuantityOfDrones" rx="2.5" ry="2.5" style="stroke:#181818;stroke-width:0.5;" width="144.0479" x="551" y="381"/><ellipse cx="566" cy="403.291" fill="#ADD1B2" rx="11" ry="11" style="stroke:#181818;stroke-width:1.0;"/><path d="M568.7656,399.166 Q568.9219,398.9473 569.1094,398.8379 Q569.2969,398.7285 569.5156,398.7285 Q569.8906,398.7285 570.125,398.9941 Q570.3594,399.2441 570.3594,399.8535 L570.3594,401.3066 Q570.3594,401.916 570.125,402.1816 Q569.8906,402.4473 569.5156,402.4473 Q569.1719,402.4473 568.9688,402.2441 Q568.7656,402.0566 568.6563,401.541 Q568.6094,401.1816 568.4219,400.9941 Q568.0938,400.6191 567.4844,400.4004 Q566.875,400.1816 566.25,400.1816 Q565.4844,400.1816 564.8438,400.5098 Q564.2188,400.8379 563.7188,401.5879 Q563.2344,402.3379 563.2344,403.3691 L563.2344,404.4629 Q563.2344,405.6973 564.125,406.5254 Q565.0156,407.3379 566.6094,407.3379 Q567.5469,407.3379 568.2031,407.0879 Q568.5938,406.9316 569.0156,406.4941 Q569.2813,406.2285 569.4219,406.1504 Q569.5781,406.0723 569.7813,406.0723 Q570.1094,406.0723 570.3594,406.3379 Q570.625,406.5879 570.625,406.9316 Q570.625,407.2754 570.2813,407.6816 Q569.7813,408.2598 568.9844,408.5879 Q567.9063,409.041 566.6094,409.041 Q565.0938,409.041 563.8906,408.416 Q562.9063,407.916 562.2188,406.8535 Q561.5313,405.7754 561.5313,404.4941 L561.5313,403.3379 Q561.5313,402.0098 562.1406,400.8691 Q562.7656,399.7129 563.8594,399.1035 Q564.9531,398.4785 566.1875,398.4785 Q566.9219,398.4785 567.5625,398.6504 Q568.2188,398.8066 568.7656,399.166 Z " fill="#000000"/><text fill="#000000" font-family="sans-serif" font-size="12" font-style="italic" lengthAdjust="spacing" textLength="82.0547" x="594.9966" y="398.9492">&#171;Value Object&#187;</text><text fill="#000000" font-family="sans-serif" font-size="14" lengthAdjust="spacing" textLength="112.0479" x="580" y="417.0684">QuantityOfDrones</text><line style="stroke:#181818;stroke-width:0.5;" x1="552" x2="694.0479" y1="425.582" y2="425.582"/><line style="stroke:#181818;stroke-width:0.5;" x1="552" x2="694.0479" y1="433.582" y2="433.582"/></g><!--class Time--><g id="elem_Time"><rect codeLine="20" fill="#F1F1F1" height="60.582" id="Time" rx="2.5" ry="2.5" style="stroke:#181818;stroke-width:0.5;" width="110.0547" x="730" y="381"/><ellipse cx="745" cy="403.291" fill="#ADD1B2" rx="11" ry="11" style="stroke:#181818;stroke-width:1.0;"/><path d="M747.7656,399.166 Q747.9219,398.9473 748.1094,398.8379 Q748.2969,398.7285 748.5156,398.7285 Q748.8906,398.7285 749.125,398.9941 Q749.3594,399.2441 749.3594,399.8535 L749.3594,401.3066 Q749.3594,401.916 749.125,402.1816 Q748.8906,402.4473 748.5156,402.4473 Q748.1719,402.4473 747.9688,402.2441 Q747.7656,402.0566 747.6563,401.541 Q747.6094,401.1816 747.4219,400.9941 Q747.0938,400.6191 746.4844,400.4004 Q745.875,400.1816 745.25,400.1816 Q744.4844,400.1816 743.8438,400.5098 Q743.2188,400.8379 742.7188,401.5879 Q742.2344,402.3379 742.2344,403.3691 L742.2344,404.4629 Q742.2344,405.6973 743.125,406.5254 Q744.0156,407.3379 745.6094,407.3379 Q746.5469,407.3379 747.2031,407.0879 Q747.5938,406.9316 748.0156,406.4941 Q748.2813,406.2285 748.4219,406.1504 Q748.5781,406.0723 748.7813,406.0723 Q749.1094,406.0723 749.3594,406.3379 Q749.625,406.5879 749.625,406.9316 Q749.625,407.2754 749.2813,407.6816 Q748.7813,408.2598 747.9844,408.5879 Q746.9063,409.041 745.6094,409.041 Q744.0938,409.041 742.8906,408.416 Q741.9063,407.916 741.2188,406.8535 Q740.5313,405.7754 740.5313,404.4941 L740.5313,403.3379 Q740.5313,402.0098 741.1406,400.8691 Q741.7656,399.7129 742.8594,399.1035 Q743.9531,398.4785 745.1875,398.4785 Q745.9219,398.4785 746.5625,398.6504 Q747.2188,398.8066 747.7656,399.166 Z " fill="#000000"/><text fill="#000000" font-family="sans-serif" font-size="12" font-style="italic" lengthAdjust="spacing" textLength="82.0547" x="757" y="398.9492">&#171;Value Object&#187;</text><text fill="#000000" font-family="sans-serif" font-size="14" lengthAdjust="spacing" textLength="31.1104" x="782.4722" y="417.0684">Time</text><line style="stroke:#181818;stroke-width:0.5;" x1="731" x2="839.0547" y1="425.582" y2="425.582"/><line style="stroke:#181818;stroke-width:0.5;" x1="731" x2="839.0547" y1="433.582" y2="433.582"/></g><!--class Insurance--><g id="elem_Insurance"><rect fill="#F1F1F1" height="48" id="Insurance" rx="2.5" ry="2.5" style="stroke:#181818;stroke-width:0.5;" width="93.4824" x="810.5" y="177.5"/><ellipse cx="825.5" cy="193.5" fill="#ADD1B2" rx="11" ry="11" style="stroke:#181818;stroke-width:1.0;"/><path d="M828.2656,189.375 Q828.4219,189.1563 828.6094,189.0469 Q828.7969,188.9375 829.0156,188.9375 Q829.3906,188.9375 829.625,189.2031 Q829.8594,189.4531 829.8594,190.0625 L829.8594,191.5156 Q829.8594,192.125 829.625,192.3906 Q829.3906,192.6563 829.0156,192.6563 Q828.6719,192.6563 828.4688,192.4531 Q828.2656,192.2656 828.1563,191.75 Q828.1094,191.3906 827.9219,191.2031 Q827.5938,190.8281 826.9844,190.6094 Q826.375,190.3906 825.75,190.3906 Q824.9844,190.3906 824.3438,190.7188 Q823.7188,191.0469 823.2188,191.7969 Q822.7344,192.5469 822.7344,193.5781 L822.7344,194.6719 Q822.7344,195.9063 823.625,196.7344 Q824.5156,197.5469 826.1094,197.5469 Q827.0469,197.5469 827.7031,197.2969 Q828.0938,197.1406 828.5156,196.7031 Q828.7813,196.4375 828.9219,196.3594 Q829.0781,196.2813 829.2813,196.2813 Q829.6094,196.2813 829.8594,196.5469 Q830.125,196.7969 830.125,197.1406 Q830.125,197.4844 829.7813,197.8906 Q829.2813,198.4688 828.4844,198.7969 Q827.4063,199.25 826.1094,199.25 Q824.5938,199.25 823.3906,198.625 Q822.4063,198.125 821.7188,197.0625 Q821.0313,195.9844 821.0313,194.7031 L821.0313,193.5469 Q821.0313,192.2188 821.6406,191.0781 Q822.2656,189.9219 823.3594,189.3125 Q824.4531,188.6875 825.6875,188.6875 Q826.4219,188.6875 827.0625,188.8594 Q827.7188,189.0156 828.2656,189.375 Z " fill="#000000"/><text fill="#000000" font-family="sans-serif" font-size="14" lengthAdjust="spacing" textLength="61.4824" x="839.5" y="199.2969">Insurance</text><line style="stroke:#181818;stroke-width:0.5;" x1="811.5" x2="902.9824" y1="209.5" y2="209.5"/><line style="stroke:#181818;stroke-width:0.5;" x1="811.5" x2="902.9824" y1="217.5" y2="217.5"/></g><!--link ShowProposal to CRMCollaborator--><g id="link_ShowProposal_CRMCollaborator"><path codeLine="26" d="M493.52,84.26 C482.73,93.08 472.28,103.12 464,114 C453.01,128.44 446.9154,141.1345 441.3054,157.2245 " fill="none" id="ShowProposal-to-CRMCollaborator" style="stroke:#181818;stroke-width:1.0;"/><polygon fill="#181818" points="439.33,162.89,446.07,155.7086,440.9761,158.1687,438.516,153.0748,439.33,162.89" style="stroke:#181818;stroke-width:1.0;"/><text fill="#000000" font-family="sans-serif" font-size="13" lengthAdjust="spacing" textLength="60.7026" x="465" y="129.0283">created by</text><text fill="#000000" font-family="sans-serif" font-size="13" lengthAdjust="spacing" textLength="7.23" x="433.5542" y="151.5935">1</text></g><!--link ShowProposal to ShowRequest--><g id="link_ShowProposal_ShowRequest"><path codeLine="27" d="M490.64,68.87 C460.02,80.86 422.83,96.72 391,114 C364.63,128.32 341.8034,143.288 319.0134,159.458 " fill="none" id="ShowProposal-to-ShowRequest" style="stroke:#181818;stroke-width:1.0;"/><polygon fill="#181818" points="314.12,162.93,323.7748,160.9843,318.1978,160.0367,319.1455,154.4598,314.12,162.93" style="stroke:#181818;stroke-width:1.0;"/><text fill="#000000" font-family="sans-serif" font-size="13" lengthAdjust="spacing" textLength="53.4917" x="392" y="129.0283">based on</text><text fill="#000000" font-family="sans-serif" font-size="13" lengthAdjust="spacing" textLength="7.23" x="315.43" y="151.6406">1</text></g><!--link ShowProposal to ShowProposalStatus--><g id="link_ShowProposal_ShowProposalStatus"><path codeLine="28" d="M490.9,56.87 C432.22,67.77 341.58,87.09 266,114 C222.63,129.44 181.1912,149.6097 146.5012,167.9997 " fill="none" id="ShowProposal-to-ShowProposalStatus" style="stroke:#181818;stroke-width:1.0;"/><polygon fill="#181818" points="141.2,170.81,151.0253,170.1287,145.6176,168.4681,147.2782,163.0605,141.2,170.81" style="stroke:#181818;stroke-width:1.0;"/><text fill="#000000" font-family="sans-serif" font-size="13" lengthAdjust="spacing" textLength="86.7217" x="267" y="129.0283">proposalStatus</text><text fill="#000000" font-family="sans-serif" font-size="13" lengthAdjust="spacing" textLength="7.23" x="144.478" y="159.8285">1</text></g><!--link ShowProposal to QuantityOfDrones--><g id="link_ShowProposal_QuantityOfDrones"><path codeLine="29" d="M568.18,84.22 C571.83,93.8 575.39,104.17 578,114 C603.35,209.62 615.333,320.6532 620.093,374.6332 " fill="none" id="ShowProposal-to-QuantityOfDrones" style="stroke:#181818;stroke-width:1.0;"/><polygon fill="#181818" points="620.62,380.61,623.814,371.2934,620.1808,375.6293,615.8449,371.9961,620.62,380.61" style="stroke:#181818;stroke-width:1.0;"/><text fill="#000000" font-family="sans-serif" font-size="13" lengthAdjust="spacing" textLength="65.0508" x="612" y="285.0283">qnt_drones</text><text fill="#000000" font-family="sans-serif" font-size="13" lengthAdjust="spacing" textLength="7.23" x="612.426" y="369.5872">1</text></g><!--link ShowProposal to Time--><g id="link_ShowProposal_Time"><path codeLine="30" d="M584.39,84.31 C592.07,93.8 600.05,104.1 607,114 C672.73,207.6 736.3286,320.8117 766.0386,375.3217 " fill="none" id="ShowProposal-to-Time" style="stroke:#181818;stroke-width:1.0;"/><polygon fill="#181818" points="768.91,380.59,768.1151,370.7733,766.5172,376.1998,761.0907,374.6018,768.91,380.59" style="stroke:#181818;stroke-width:1.0;"/><text fill="#000000" font-family="sans-serif" font-size="13" lengthAdjust="spacing" textLength="24.5591" x="719" y="285.0283">time</text><text fill="#000000" font-family="sans-serif" font-size="13" lengthAdjust="spacing" textLength="7.23" x="757.8876" y="369.5631">1</text></g><!--link ShowProposal to Date--><g id="link_ShowProposal_Date"><path codeLine="31" d="M546.44,84.27 C540.33,123.49 529.55,186.5 516,240 C503.29,290.2 485.8665,341.569 473.8265,375.309 " fill="none" id="ShowProposal-to-Date" style="stroke:#181818;stroke-width:1.0;"/><polygon fill="#181818" points="471.81,380.96,478.6021,373.8279,473.4904,376.2508,471.0675,371.1392,471.81,380.96" style="stroke:#181818;stroke-width:1.0;"/><text fill="#000000" font-family="sans-serif" font-size="13" lengthAdjust="spacing" textLength="25.3018" x="509" y="285.0283">date</text><text fill="#000000" font-family="sans-serif" font-size="13" lengthAdjust="spacing" textLength="7.23" x="466.4282" y="369.5259">1</text></g><!--link ShowProposal to Insurance--><g id="link_ShowProposal_Insurance"><path codeLine="32" d="M613.42,54.57 C662.44,63.24 731.24,80.55 783,114 C808.23,130.3 826.2401,152.7622 839.4301,172.3622 " fill="none" id="ShowProposal-to-Insurance" style="stroke:#181818;stroke-width:1.0;"/><polygon fill="#181818" points="842.78,177.34,841.0737,167.6401,839.9885,173.1918,834.4367,172.1065,842.78,177.34" style="stroke:#181818;stroke-width:1.0;"/><text fill="#000000" font-family="sans-serif" font-size="13" lengthAdjust="spacing" textLength="56.3672" x="806" y="129.0283">insurance</text><text fill="#000000" font-family="sans-serif" font-size="13" lengthAdjust="spacing" textLength="7.23" x="831.2069" y="166.0365">1</text></g><!--SRC=[XP4zRm8n38Rt_0gBXOc1DK9Pe4E7YazrhNntgNfLBeR44Q2g_nrp4b93kP31SgpdjLxRrgSEjbzqN0NQKqItPUGKOJPxHvSiBAjlMxCnF-fNgTfXZ1ajt8ldbi_6I1g8_gCRUqWsyXDoldcRatDOKK2cy8HU8DkInNN2NhtyN0JojZZEhkq6UYa5yiRPl1C3fxwSLwKycexkfz1G1ojM6wZEmw8_Iz9GOHISV1dFZwLXd_qVQM_g-yreE7Z-QFgyfBjkIGDBB57NksXe90xxV_Kn1VIrWEqjLUe2]--></g></svg>