<svg xmlns="http://www.w3.org/2000/svg" xmlns:xlink="http://www.w3.org/1999/xlink" contentStyleType="text/css" height="1298.4px" preserveAspectRatio="none" style="width:2176px;height:1298px;background:#FFFFFF;" version="1.1" viewBox="0 0 2176 1298" width="2176px" zoomAndPan="magnify"><defs/><g><rect fill="#FFFFFF" height="1142.8109" style="stroke:#181818;stroke-width:0.8000000000000002;" width="8" x="47.2137" y="74.8969"/><rect fill="#FFFFFF" height="1124.1781" style="stroke:#181818;stroke-width:0.8000000000000002;" width="8" x="377.923" y="93.5297"/><rect fill="#FFFFFF" height="160.5969" style="stroke:#181818;stroke-width:0.8000000000000002;" width="8" x="799.4207" y="118.5625"/><rect fill="#FFFFFF" height="160.5969" style="stroke:#181818;stroke-width:0.8000000000000002;" width="8" x="799.4207" y="354.2578"/><rect fill="#FFFFFF" height="517.2234" style="stroke:#181818;stroke-width:0.8000000000000002;" width="8" x="799.4207" y="675.4516"/><rect fill="#FFFFFF" height="275.1281" style="stroke:#181818;stroke-width:0.8000000000000002;" width="8" x="803.4207" y="706.8844"/><rect fill="#FFFFFF" height="25.0328" style="stroke:#181818;stroke-width:0.8000000000000002;" width="8" x="944.3719" y="143.5953"/><rect fill="#FFFFFF" height="25.0328" style="stroke:#181818;stroke-width:0.8000000000000002;" width="8" x="944.3719" y="379.2906"/><rect fill="#FFFFFF" height="25.0328" style="stroke:#181818;stroke-width:0.8000000000000002;" width="8" x="944.3719" y="735.9172"/><rect fill="#FFFFFF" height="25.0328" style="stroke:#181818;stroke-width:0.8000000000000002;" width="8" x="944.3719" y="871.4813"/><rect fill="#FFFFFF" height="25.0328" style="stroke:#181818;stroke-width:0.8000000000000002;" width="8" x="944.3719" y="1057.1109"/><rect fill="#FFFFFF" height="25.0328" style="stroke:#181818;stroke-width:0.8000000000000002;" width="8" x="1057.566" y="168.6281"/><rect fill="#FFFFFF" height="25.0328" style="stroke:#181818;stroke-width:0.8000000000000002;" width="8" x="1057.566" y="404.3234"/><rect fill="#FFFFFF" height="25.0328" style="stroke:#181818;stroke-width:0.8000000000000002;" width="8" x="1057.566" y="760.95"/><rect fill="#FFFFFF" height="25.0328" style="stroke:#181818;stroke-width:0.8000000000000002;" width="8" x="1057.566" y="896.5141"/><rect fill="#FFFFFF" height="25.0328" style="stroke:#181818;stroke-width:0.8000000000000002;" width="8" x="1057.566" y="1082.1438"/><rect fill="#FFFFFF" height="60.4656" style="stroke:#181818;stroke-width:0.8000000000000002;" width="8" x="1173.243" y="193.6609"/><rect fill="#FFFFFF" height="29.0328" style="stroke:#181818;stroke-width:0.8000000000000002;" width="8" x="1177.243" y="225.0938"/><rect fill="#FFFFFF" height="60.4656" style="stroke:#181818;stroke-width:0.8000000000000002;" width="8" x="1322.973" y="429.3563"/><rect fill="#FFFFFF" height="29.0328" style="stroke:#181818;stroke-width:0.8000000000000002;" width="8" x="1326.973" y="460.7891"/><rect fill="#FFFFFF" height="60.4656" style="stroke:#181818;stroke-width:0.8000000000000002;" width="8" x="1592.359" y="1107.1766"/><rect fill="#FFFFFF" height="29.0328" style="stroke:#181818;stroke-width:0.8000000000000002;" width="8" x="1596.359" y="1138.6094"/><rect fill="#FFFFFF" height="60.4656" style="stroke:#181818;stroke-width:0.8000000000000002;" width="8" x="1737.3129" y="785.9828"/><rect fill="#FFFFFF" height="29.0328" style="stroke:#181818;stroke-width:0.8000000000000002;" width="8" x="1741.3129" y="817.4156"/><rect fill="#FFFFFF" height="60.4656" style="stroke:#181818;stroke-width:0.8000000000000002;" width="8" x="1924.6109" y="921.5469"/><rect fill="#FFFFFF" height="29.0328" style="stroke:#181818;stroke-width:0.8000000000000002;" width="8" x="1928.6109" y="952.9797"/><rect fill="#FFFFFF" height="25.0328" style="stroke:#181818;stroke-width:0.8000000000000002;" width="8" x="2125.7977" y="1007.0453"/><line style="stroke:#181818;stroke-width:0.4000000000000001;stroke-dasharray:5.0,5.0;" x1="51.2" x2="51.2" y1="66.8969" y2="1232.1078"/><line style="stroke:#181818;stroke-width:0.4000000000000001;stroke-dasharray:5.0,5.0;" x1="381.8047" x2="381.8047" y1="66.8969" y2="1232.1078"/><line style="stroke:#181818;stroke-width:0.4000000000000001;stroke-dasharray:5.0,5.0;" x1="803.0266" x2="803.0266" y1="66.8969" y2="1232.1078"/><line style="stroke:#181818;stroke-width:0.4000000000000001;stroke-dasharray:5.0,5.0;" x1="947.8148" x2="947.8148" y1="66.8969" y2="1232.1078"/><line style="stroke:#181818;stroke-width:0.4000000000000001;stroke-dasharray:5.0,5.0;" x1="1060.9289" x2="1060.9289" y1="66.8969" y2="1232.1078"/><line style="stroke:#181818;stroke-width:0.4000000000000001;stroke-dasharray:5.0,5.0;" x1="1176.6031" x2="1176.6031" y1="66.8969" y2="1232.1078"/><line style="stroke:#181818;stroke-width:0.4000000000000001;stroke-dasharray:5.0,5.0;" x1="1326.9402" x2="1326.9402" y1="66.8969" y2="1232.1078"/><line style="stroke:#181818;stroke-width:0.4000000000000001;stroke-dasharray:5.0,5.0;" x1="1595.882" x2="1595.882" y1="66.8969" y2="1232.1078"/><line style="stroke:#181818;stroke-width:0.4000000000000001;stroke-dasharray:5.0,5.0;" x1="1740.8359" x2="1740.8359" y1="66.8969" y2="1232.1078"/><line style="stroke:#181818;stroke-width:0.4000000000000001;stroke-dasharray:5.0,5.0;" x1="1928.1863" x2="1928.1863" y1="66.8969" y2="1232.1078"/><line style="stroke:#181818;stroke-width:0.4000000000000001;stroke-dasharray:5.0,5.0;" x1="2129.6875" x2="2129.6875" y1="66.8969" y2="1232.1078"/><text fill="#000000" font-family="sans-serif" font-size="11.2" lengthAdjust="spacing" textLength="89.6273" x="4" y="64.0859">CRM Collaborator</text><ellipse cx="51.2137" cy="10.8" fill="#E2E2F0" rx="6.4" ry="6.4" style="stroke:#181818;stroke-width:0.4000000000000001;"/><path d="M51.2137,17.2 L51.2137,38.8 M40.8137,23.6 L61.6137,23.6 M51.2137,38.8 L40.8137,50.8 M51.2137,38.8 L61.6137,50.8 " fill="none" style="stroke:#181818;stroke-width:0.4000000000000001;"/><text fill="#000000" font-family="sans-serif" font-size="11.2" lengthAdjust="spacing" textLength="89.6273" x="4" y="1243.3938">CRM Collaborator</text><ellipse cx="51.2137" cy="1253.0047" fill="#E2E2F0" rx="6.4" ry="6.4" style="stroke:#181818;stroke-width:0.4000000000000001;"/><path d="M51.2137,1259.4047 L51.2137,1281.0047 M40.8137,1265.8047 L61.6137,1265.8047 M51.2137,1281.0047 L40.8137,1293.0047 M51.2137,1281.0047 L61.6137,1293.0047 " fill="none" style="stroke:#181818;stroke-width:0.4000000000000001;"/><rect fill="#E2E2F0" height="26.0969" rx="2" ry="2" style="stroke:#181818;stroke-width:0.4000000000000001;" width="128.2367" x="317.8047" y="40"/><text fill="#000000" font-family="sans-serif" font-size="11.2" lengthAdjust="spacing" textLength="117.0367" x="323.4047" y="57.6859">CreateShowProposalUI</text><rect fill="#E2E2F0" height="26.0969" rx="2" ry="2" style="stroke:#181818;stroke-width:0.4000000000000001;" width="128.2367" x="317.8047" y="1231.3078"/><text fill="#000000" font-family="sans-serif" font-size="11.2" lengthAdjust="spacing" textLength="117.0367" x="323.4047" y="1248.9938">CreateShowProposalUI</text><rect fill="#E2E2F0" height="26.0969" rx="2" ry="2" style="stroke:#181818;stroke-width:0.4000000000000001;" width="165.5883" x="720.6266" y="40"/><text fill="#000000" font-family="sans-serif" font-size="11.2" lengthAdjust="spacing" textLength="154.3883" x="726.2266" y="57.6859">CreateShowProposalController</text><rect fill="#E2E2F0" height="26.0969" rx="2" ry="2" style="stroke:#181818;stroke-width:0.4000000000000001;" width="165.5883" x="720.6266" y="1231.3078"/><text fill="#000000" font-family="sans-serif" font-size="11.2" lengthAdjust="spacing" textLength="154.3883" x="726.2266" y="1248.9938">CreateShowProposalController</text><rect fill="#E2E2F0" height="26.0969" rx="2" ry="2" style="stroke:#181818;stroke-width:0.4000000000000001;" width="108.3141" x="894.2148" y="40"/><text fill="#000000" font-family="sans-serif" font-size="11.2" lengthAdjust="spacing" textLength="97.1141" x="899.8148" y="57.6859">PersistenceContext</text><rect fill="#E2E2F0" height="26.0969" rx="2" ry="2" style="stroke:#181818;stroke-width:0.4000000000000001;" width="108.3141" x="894.2148" y="1231.3078"/><text fill="#000000" font-family="sans-serif" font-size="11.2" lengthAdjust="spacing" textLength="97.1141" x="899.8148" y="1248.9938">PersistenceContext</text><rect fill="#E2E2F0" height="26.0969" rx="2" ry="2" style="stroke:#181818;stroke-width:0.4000000000000001;" width="102.0742" x="1010.5289" y="40"/><text fill="#000000" font-family="sans-serif" font-size="11.2" lengthAdjust="spacing" textLength="90.8742" x="1016.1289" y="57.6859">RepositoryFactory</text><rect fill="#E2E2F0" height="26.0969" rx="2" ry="2" style="stroke:#181818;stroke-width:0.4000000000000001;" width="102.0742" x="1010.5289" y="1231.3078"/><text fill="#000000" font-family="sans-serif" font-size="11.2" lengthAdjust="spacing" textLength="90.8742" x="1016.1289" y="1248.9938">RepositoryFactory</text><rect fill="#E2E2F0" height="26.0969" rx="2" ry="2" style="stroke:#181818;stroke-width:0.4000000000000001;" width="113.2797" x="1120.6031" y="40"/><text fill="#000000" font-family="sans-serif" font-size="11.2" lengthAdjust="spacing" textLength="102.0797" x="1126.2031" y="57.6859">CustomerRepository</text><rect fill="#E2E2F0" height="26.0969" rx="2" ry="2" style="stroke:#181818;stroke-width:0.4000000000000001;" width="113.2797" x="1120.6031" y="1231.3078"/><text fill="#000000" font-family="sans-serif" font-size="11.2" lengthAdjust="spacing" textLength="102.0797" x="1126.2031" y="1248.9938">CustomerRepository</text><rect fill="#E2E2F0" height="26.0969" rx="2" ry="2" style="stroke:#181818;stroke-width:0.4000000000000001;" width="134.4656" x="1259.7402" y="40"/><text fill="#000000" font-family="sans-serif" font-size="11.2" lengthAdjust="spacing" textLength="123.2656" x="1265.3402" y="57.6859">ShowRequestRepository</text><rect fill="#E2E2F0" height="26.0969" rx="2" ry="2" style="stroke:#181818;stroke-width:0.4000000000000001;" width="134.4656" x="1259.7402" y="1231.3078"/><text fill="#000000" font-family="sans-serif" font-size="11.2" lengthAdjust="spacing" textLength="123.2656" x="1265.3402" y="1248.9938">ShowRequestRepository</text><rect fill="#E2E2F0" height="26.0969" rx="2" ry="2" style="stroke:#181818;stroke-width:0.4000000000000001;" width="136.9539" x="1527.882" y="40"/><text fill="#000000" font-family="sans-serif" font-size="11.2" lengthAdjust="spacing" textLength="125.7539" x="1533.482" y="57.6859">ShowProposalRepository</text><rect fill="#E2E2F0" height="26.0969" rx="2" ry="2" style="stroke:#181818;stroke-width:0.4000000000000001;" width="136.9539" x="1527.882" y="1231.3078"/><text fill="#000000" font-family="sans-serif" font-size="11.2" lengthAdjust="spacing" textLength="125.7539" x="1533.482" y="1248.9938">ShowProposalRepository</text><rect fill="#E2E2F0" height="26.0969" rx="2" ry="2" style="stroke:#181818;stroke-width:0.4000000000000001;" width="136.9539" x="1672.8359" y="40"/><text fill="#000000" font-family="sans-serif" font-size="11.2" lengthAdjust="spacing" textLength="125.7539" x="1678.4359" y="57.6859">ShodroneUserRepository</text><rect fill="#E2E2F0" height="26.0969" rx="2" ry="2" style="stroke:#181818;stroke-width:0.4000000000000001;" width="136.9539" x="1672.8359" y="1231.3078"/><text fill="#000000" font-family="sans-serif" font-size="11.2" lengthAdjust="spacing" textLength="125.7539" x="1678.4359" y="1248.9938">ShodroneUserRepository</text><rect fill="#E2E2F0" height="26.0969" rx="2" ry="2" style="stroke:#181818;stroke-width:0.4000000000000001;" width="151.2492" x="1852.9863" y="40"/><text fill="#000000" font-family="sans-serif" font-size="11.2" lengthAdjust="spacing" textLength="140.0492" x="1858.5863" y="57.6859">CRMCollaboratorRepository</text><rect fill="#E2E2F0" height="26.0969" rx="2" ry="2" style="stroke:#181818;stroke-width:0.4000000000000001;" width="151.2492" x="1852.9863" y="1231.3078"/><text fill="#000000" font-family="sans-serif" font-size="11.2" lengthAdjust="spacing" textLength="140.0492" x="1858.5863" y="1248.9938">CRMCollaboratorRepository</text><rect fill="#E2E2F0" height="26.0969" rx="2" ry="2" style="stroke:#181818;stroke-width:0.4000000000000001;" width="83.4203" x="2088.0875" y="40"/><text fill="#000000" font-family="sans-serif" font-size="11.2" lengthAdjust="spacing" textLength="72.2203" x="2093.6875" y="57.6859">ShowProposal</text><rect fill="#E2E2F0" height="26.0969" rx="2" ry="2" style="stroke:#181818;stroke-width:0.4000000000000001;" width="83.4203" x="2088.0875" y="1231.3078"/><text fill="#000000" font-family="sans-serif" font-size="11.2" lengthAdjust="spacing" textLength="72.2203" x="2093.6875" y="1248.9938">ShowProposal</text><rect fill="#FFFFFF" height="1142.8109" style="stroke:#181818;stroke-width:0.8000000000000002;" width="8" x="47.2137" y="74.8969"/><rect fill="#FFFFFF" height="1124.1781" style="stroke:#181818;stroke-width:0.8000000000000002;" width="8" x="377.923" y="93.5297"/><rect fill="#FFFFFF" height="160.5969" style="stroke:#181818;stroke-width:0.8000000000000002;" width="8" x="799.4207" y="118.5625"/><rect fill="#FFFFFF" height="160.5969" style="stroke:#181818;stroke-width:0.8000000000000002;" width="8" x="799.4207" y="354.2578"/><rect fill="#FFFFFF" height="517.2234" style="stroke:#181818;stroke-width:0.8000000000000002;" width="8" x="799.4207" y="675.4516"/><rect fill="#FFFFFF" height="275.1281" style="stroke:#181818;stroke-width:0.8000000000000002;" width="8" x="803.4207" y="706.8844"/><rect fill="#FFFFFF" height="25.0328" style="stroke:#181818;stroke-width:0.8000000000000002;" width="8" x="944.3719" y="143.5953"/><rect fill="#FFFFFF" height="25.0328" style="stroke:#181818;stroke-width:0.8000000000000002;" width="8" x="944.3719" y="379.2906"/><rect fill="#FFFFFF" height="25.0328" style="stroke:#181818;stroke-width:0.8000000000000002;" width="8" x="944.3719" y="735.9172"/><rect fill="#FFFFFF" height="25.0328" style="stroke:#181818;stroke-width:0.8000000000000002;" width="8" x="944.3719" y="871.4813"/><rect fill="#FFFFFF" height="25.0328" style="stroke:#181818;stroke-width:0.8000000000000002;" width="8" x="944.3719" y="1057.1109"/><rect fill="#FFFFFF" height="25.0328" style="stroke:#181818;stroke-width:0.8000000000000002;" width="8" x="1057.566" y="168.6281"/><rect fill="#FFFFFF" height="25.0328" style="stroke:#181818;stroke-width:0.8000000000000002;" width="8" x="1057.566" y="404.3234"/><rect fill="#FFFFFF" height="25.0328" style="stroke:#181818;stroke-width:0.8000000000000002;" width="8" x="1057.566" y="760.95"/><rect fill="#FFFFFF" height="25.0328" style="stroke:#181818;stroke-width:0.8000000000000002;" width="8" x="1057.566" y="896.5141"/><rect fill="#FFFFFF" height="25.0328" style="stroke:#181818;stroke-width:0.8000000000000002;" width="8" x="1057.566" y="1082.1438"/><rect fill="#FFFFFF" height="60.4656" style="stroke:#181818;stroke-width:0.8000000000000002;" width="8" x="1173.243" y="193.6609"/><rect fill="#FFFFFF" height="29.0328" style="stroke:#181818;stroke-width:0.8000000000000002;" width="8" x="1177.243" y="225.0938"/><rect fill="#FFFFFF" height="60.4656" style="stroke:#181818;stroke-width:0.8000000000000002;" width="8" x="1322.973" y="429.3563"/><rect fill="#FFFFFF" height="29.0328" style="stroke:#181818;stroke-width:0.8000000000000002;" width="8" x="1326.973" y="460.7891"/><rect fill="#FFFFFF" height="60.4656" style="stroke:#181818;stroke-width:0.8000000000000002;" width="8" x="1592.359" y="1107.1766"/><rect fill="#FFFFFF" height="29.0328" style="stroke:#181818;stroke-width:0.8000000000000002;" width="8" x="1596.359" y="1138.6094"/><rect fill="#FFFFFF" height="60.4656" style="stroke:#181818;stroke-width:0.8000000000000002;" width="8" x="1737.3129" y="785.9828"/><rect fill="#FFFFFF" height="29.0328" style="stroke:#181818;stroke-width:0.8000000000000002;" width="8" x="1741.3129" y="817.4156"/><rect fill="#FFFFFF" height="60.4656" style="stroke:#181818;stroke-width:0.8000000000000002;" width="8" x="1924.6109" y="921.5469"/><rect fill="#FFFFFF" height="29.0328" style="stroke:#181818;stroke-width:0.8000000000000002;" width="8" x="1928.6109" y="952.9797"/><rect fill="#FFFFFF" height="25.0328" style="stroke:#181818;stroke-width:0.8000000000000002;" width="8" x="2125.7977" y="1007.0453"/><polygon fill="#181818" points="368.323,90.3297,376.323,93.5297,368.323,96.7297,371.523,93.5297" style="stroke:#181818;stroke-width:0.8000000000000002;"/><line style="stroke:#181818;stroke-width:0.8000000000000002;" x1="55.2137" x2="373.123" y1="93.5297" y2="93.5297"/><text fill="#000000" font-family="sans-serif" font-size="10.4" lengthAdjust="spacing" textLength="156.6703" x="60.8137" y="89.3195">request to create a show proposal</text><polygon fill="#181818" points="789.8207,115.3625,797.8207,118.5625,789.8207,121.7625,793.0207,118.5625" style="stroke:#181818;stroke-width:0.8000000000000002;"/><line style="stroke:#181818;stroke-width:0.8000000000000002;" x1="385.923" x2="794.6207" y1="118.5625" y2="118.5625"/><text fill="#000000" font-family="sans-serif" font-size="10.4" lengthAdjust="spacing" textLength="69.9156" x="391.523" y="114.3523">listCustomers()</text><polygon fill="#181818" points="934.7719,140.3953,942.7719,143.5953,934.7719,146.7953,937.9719,143.5953" style="stroke:#181818;stroke-width:0.8000000000000002;"/><line style="stroke:#181818;stroke-width:0.8000000000000002;" x1="807.4207" x2="939.5719" y1="143.5953" y2="143.5953"/><text fill="#000000" font-family="sans-serif" font-size="10.4" lengthAdjust="spacing" textLength="97.1039" x="813.0207" y="139.3852">PersistenceContext()</text><polygon fill="#181818" points="1047.966,165.4281,1055.966,168.6281,1047.966,171.8281,1051.166,168.6281" style="stroke:#181818;stroke-width:0.8000000000000002;"/><line style="stroke:#181818;stroke-width:0.8000000000000002;" x1="948.3719" x2="1052.766" y1="168.6281" y2="168.6281"/><text fill="#000000" font-family="sans-serif" font-size="10.4" lengthAdjust="spacing" textLength="60.6836" x="953.9719" y="164.418">repositories()</text><polygon fill="#181818" points="1163.643,190.4609,1171.643,193.6609,1163.643,196.8609,1166.843,193.6609" style="stroke:#181818;stroke-width:0.8000000000000002;"/><line style="stroke:#181818;stroke-width:0.8000000000000002;" x1="1061.566" x2="1168.443" y1="193.6609" y2="193.6609"/><text fill="#000000" font-family="sans-serif" font-size="10.4" lengthAdjust="spacing" textLength="54.8945" x="1067.166" y="189.4508">customers()</text><line style="stroke:#181818;stroke-width:0.8000000000000002;" x1="1181.243" x2="1218.843" y1="214.6938" y2="214.6938"/><line style="stroke:#181818;stroke-width:0.8000000000000002;" x1="1218.843" x2="1218.843" y1="214.6938" y2="225.0938"/><line style="stroke:#181818;stroke-width:0.8000000000000002;" x1="1186.043" x2="1218.843" y1="225.0938" y2="225.0938"/><polygon fill="#181818" points="1194.043,221.8938,1186.043,225.0938,1194.043,228.2938,1190.843,225.0938" style="stroke:#181818;stroke-width:0.8000000000000002;"/><text fill="#000000" font-family="sans-serif" font-size="10.4" lengthAdjust="spacing" textLength="122.5301" x="1190.843" y="210.4836">findAllCreatedCustomers()</text><polygon fill="#181818" points="816.2207,250.9266,808.2207,254.1266,816.2207,257.3266,813.0207,254.1266" style="stroke:#181818;stroke-width:0.8000000000000002;"/><line style="stroke:#181818;stroke-width:0.8000000000000002;" x1="811.4207" x2="1176.443" y1="254.1266" y2="254.1266"/><text fill="#000000" font-family="sans-serif" font-size="10.4" lengthAdjust="spacing" textLength="47.968" x="821.0207" y="249.9164">customers</text><polygon fill="#181818" points="394.723,275.9594,386.723,279.1594,394.723,282.3594,391.523,279.1594" style="stroke:#181818;stroke-width:0.8000000000000002;"/><line style="stroke:#181818;stroke-width:0.8000000000000002;" x1="389.923" x2="802.6207" y1="279.1594" y2="279.1594"/><text fill="#000000" font-family="sans-serif" font-size="10.4" lengthAdjust="spacing" textLength="47.968" x="399.523" y="274.9492">customers</text><polygon fill="#181818" points="64.0137,300.9922,56.0137,304.1922,64.0137,307.3922,60.8137,304.1922" style="stroke:#181818;stroke-width:0.8000000000000002;"/><line style="stroke:#181818;stroke-width:0.8000000000000002;" x1="59.2137" x2="377.123" y1="304.1922" y2="304.1922"/><text fill="#000000" font-family="sans-serif" font-size="10.4" lengthAdjust="spacing" textLength="117.3352" x="68.8137" y="299.982">asks to select a customer</text><polygon fill="#181818" points="368.323,326.025,376.323,329.225,368.323,332.425,371.523,329.225" style="stroke:#181818;stroke-width:0.8000000000000002;"/><line style="stroke:#181818;stroke-width:0.8000000000000002;" x1="55.2137" x2="373.123" y1="329.225" y2="329.225"/><text fill="#000000" font-family="sans-serif" font-size="10.4" lengthAdjust="spacing" textLength="86.6988" x="60.8137" y="325.0148">selects a customer</text><polygon fill="#181818" points="789.8207,351.0578,797.8207,354.2578,789.8207,357.4578,793.0207,354.2578" style="stroke:#181818;stroke-width:0.8000000000000002;"/><line style="stroke:#181818;stroke-width:0.8000000000000002;" x1="385.923" x2="794.6207" y1="354.2578" y2="354.2578"/><text fill="#000000" font-family="sans-serif" font-size="10.4" lengthAdjust="spacing" textLength="132.3563" x="391.523" y="350.0477">listShowRequests(customer)</text><polygon fill="#181818" points="934.7719,376.0906,942.7719,379.2906,934.7719,382.4906,937.9719,379.2906" style="stroke:#181818;stroke-width:0.8000000000000002;"/><line style="stroke:#181818;stroke-width:0.8000000000000002;" x1="807.4207" x2="939.5719" y1="379.2906" y2="379.2906"/><text fill="#000000" font-family="sans-serif" font-size="10.4" lengthAdjust="spacing" textLength="97.1039" x="813.0207" y="375.0805">PersistenceContext()</text><polygon fill="#181818" points="1047.966,401.1234,1055.966,404.3234,1047.966,407.5234,1051.166,404.3234" style="stroke:#181818;stroke-width:0.8000000000000002;"/><line style="stroke:#181818;stroke-width:0.8000000000000002;" x1="948.3719" x2="1052.766" y1="404.3234" y2="404.3234"/><text fill="#000000" font-family="sans-serif" font-size="10.4" lengthAdjust="spacing" textLength="60.6836" x="953.9719" y="400.1133">repositories()</text><polygon fill="#181818" points="1313.373,426.1563,1321.373,429.3563,1313.373,432.5563,1316.573,429.3563" style="stroke:#181818;stroke-width:0.8000000000000002;"/><line style="stroke:#181818;stroke-width:0.8000000000000002;" x1="1061.566" x2="1318.173" y1="429.3563" y2="429.3563"/><text fill="#000000" font-family="sans-serif" font-size="10.4" lengthAdjust="spacing" textLength="69.941" x="1067.166" y="425.1461">showRequest()</text><line style="stroke:#181818;stroke-width:0.8000000000000002;" x1="1330.973" x2="1368.573" y1="450.3891" y2="450.3891"/><line style="stroke:#181818;stroke-width:0.8000000000000002;" x1="1368.573" x2="1368.573" y1="450.3891" y2="460.7891"/><line style="stroke:#181818;stroke-width:0.8000000000000002;" x1="1335.773" x2="1368.573" y1="460.7891" y2="460.7891"/><polygon fill="#181818" points="1343.773,457.5891,1335.773,460.7891,1343.773,463.9891,1340.573,460.7891" style="stroke:#181818;stroke-width:0.8000000000000002;"/><text fill="#000000" font-family="sans-serif" font-size="10.4" lengthAdjust="spacing" textLength="242.1859" x="1340.573" y="446.1789">findAllCreatedShowRequestsByCustomer(customer)</text><polygon fill="#181818" points="816.2207,486.6219,808.2207,489.8219,816.2207,493.0219,813.0207,489.8219" style="stroke:#181818;stroke-width:0.8000000000000002;"/><line style="stroke:#181818;stroke-width:0.8000000000000002;" x1="811.4207" x2="1326.173" y1="489.8219" y2="489.8219"/><text fill="#000000" font-family="sans-serif" font-size="10.4" lengthAdjust="spacing" textLength="68.2145" x="821.0207" y="485.6117">showRequests</text><polygon fill="#181818" points="394.723,511.6547,386.723,514.8547,394.723,518.0547,391.523,514.8547" style="stroke:#181818;stroke-width:0.8000000000000002;"/><line style="stroke:#181818;stroke-width:0.8000000000000002;" x1="389.923" x2="802.6207" y1="514.8547" y2="514.8547"/><text fill="#000000" font-family="sans-serif" font-size="10.4" lengthAdjust="spacing" textLength="68.2145" x="399.523" y="510.6445">showRequests</text><polygon fill="#181818" points="64.0137,536.6875,56.0137,539.8875,64.0137,543.0875,60.8137,539.8875" style="stroke:#181818;stroke-width:0.8000000000000002;"/><line style="stroke:#181818;stroke-width:0.8000000000000002;" x1="59.2137" x2="377.123" y1="539.8875" y2="539.8875"/><text fill="#000000" font-family="sans-serif" font-size="10.4" lengthAdjust="spacing" textLength="136.4238" x="68.8137" y="535.6773">asks to select a show request</text><polygon fill="#181818" points="368.323,561.7203,376.323,564.9203,368.323,568.1203,371.523,564.9203" style="stroke:#181818;stroke-width:0.8000000000000002;"/><line style="stroke:#181818;stroke-width:0.8000000000000002;" x1="55.2137" x2="373.123" y1="564.9203" y2="564.9203"/><text fill="#000000" font-family="sans-serif" font-size="10.4" lengthAdjust="spacing" textLength="105.7875" x="60.8137" y="560.7102">selects a show request</text><line style="stroke:#181818;stroke-width:0.8000000000000002;" x1="385.923" x2="419.523" y1="589.9531" y2="589.9531"/><line style="stroke:#181818;stroke-width:0.8000000000000002;" x1="419.523" x2="419.523" y1="589.9531" y2="600.3531"/><line style="stroke:#181818;stroke-width:0.8000000000000002;" x1="386.723" x2="419.523" y1="600.3531" y2="600.3531"/><polygon fill="#181818" points="394.723,597.1531,386.723,600.3531,394.723,603.5531,391.523,600.3531" style="stroke:#181818;stroke-width:0.8000000000000002;"/><text fill="#000000" font-family="sans-serif" font-size="10.4" lengthAdjust="spacing" textLength="241.6477" x="391.523" y="585.743">asks for date, time, quantity of drones and insurance</text><polygon fill="#181818" points="64.0137,622.1859,56.0137,625.3859,64.0137,628.5859,60.8137,625.3859" style="stroke:#181818;stroke-width:0.8000000000000002;"/><line style="stroke:#181818;stroke-width:0.8000000000000002;" x1="59.2137" x2="377.123" y1="625.3859" y2="625.3859"/><text fill="#000000" font-family="sans-serif" font-size="10.4" lengthAdjust="spacing" textLength="294.8105" x="68.8137" y="621.1758">Asks for all the necessary information to create a show proposal</text><polygon fill="#181818" points="368.323,647.2188,376.323,650.4188,368.323,653.6188,371.523,650.4188" style="stroke:#181818;stroke-width:0.8000000000000002;"/><line style="stroke:#181818;stroke-width:0.8000000000000002;" x1="55.2137" x2="373.123" y1="650.4188" y2="650.4188"/><text fill="#000000" font-family="sans-serif" font-size="10.4" lengthAdjust="spacing" textLength="303.5094" x="60.8137" y="646.2086">provides date, time, duration, quantityOfDrones and the insurance</text><polygon fill="#181818" points="789.8207,672.2516,797.8207,675.4516,789.8207,678.6516,793.0207,675.4516" style="stroke:#181818;stroke-width:0.8000000000000002;"/><line style="stroke:#181818;stroke-width:0.8000000000000002;" x1="385.923" x2="794.6207" y1="675.4516" y2="675.4516"/><text fill="#000000" font-family="sans-serif" font-size="10.4" lengthAdjust="spacing" textLength="398.2977" x="391.523" y="671.2414">createShowProposal(showRequest, date, time, quantityOfDrones, insurance, duration)</text><line style="stroke:#181818;stroke-width:0.8000000000000002;" x1="807.4207" x2="845.0207" y1="696.4844" y2="696.4844"/><line style="stroke:#181818;stroke-width:0.8000000000000002;" x1="845.0207" x2="845.0207" y1="696.4844" y2="706.8844"/><line style="stroke:#181818;stroke-width:0.8000000000000002;" x1="812.2207" x2="845.0207" y1="706.8844" y2="706.8844"/><polygon fill="#181818" points="820.2207,703.6844,812.2207,706.8844,820.2207,710.0844,817.0207,706.8844" style="stroke:#181818;stroke-width:0.8000000000000002;"/><text fill="#000000" font-family="sans-serif" font-size="10.4" lengthAdjust="spacing" textLength="97.6727" x="817.0207" y="692.2742">getCrmCollaborator()</text><polygon fill="#181818" points="934.7719,732.7172,942.7719,735.9172,934.7719,739.1172,937.9719,735.9172" style="stroke:#181818;stroke-width:0.8000000000000002;"/><line style="stroke:#181818;stroke-width:0.8000000000000002;" x1="811.4207" x2="939.5719" y1="735.9172" y2="735.9172"/><text fill="#000000" font-family="sans-serif" font-size="10.4" lengthAdjust="spacing" textLength="97.1039" x="817.0207" y="731.707">PersistenceContext()</text><polygon fill="#181818" points="1047.966,757.75,1055.966,760.95,1047.966,764.15,1051.166,760.95" style="stroke:#181818;stroke-width:0.8000000000000002;"/><line style="stroke:#181818;stroke-width:0.8000000000000002;" x1="948.3719" x2="1052.766" y1="760.95" y2="760.95"/><text fill="#000000" font-family="sans-serif" font-size="10.4" lengthAdjust="spacing" textLength="60.6836" x="953.9719" y="756.7398">repositories()</text><polygon fill="#181818" points="1727.7129,782.7828,1735.7129,785.9828,1727.7129,789.1828,1730.9129,785.9828" style="stroke:#181818;stroke-width:0.8000000000000002;"/><line style="stroke:#181818;stroke-width:0.8000000000000002;" x1="1061.566" x2="1732.5129" y1="785.9828" y2="785.9828"/><text fill="#000000" font-family="sans-serif" font-size="10.4" lengthAdjust="spacing" textLength="77.4516" x="1067.166" y="781.7727">shodroneUsers()</text><line style="stroke:#181818;stroke-width:0.8000000000000002;" x1="1745.3129" x2="1782.9129" y1="807.0156" y2="807.0156"/><line style="stroke:#181818;stroke-width:0.8000000000000002;" x1="1782.9129" x2="1782.9129" y1="807.0156" y2="817.4156"/><line style="stroke:#181818;stroke-width:0.8000000000000002;" x1="1750.1129" x2="1782.9129" y1="817.4156" y2="817.4156"/><polygon fill="#181818" points="1758.1129,814.2156,1750.1129,817.4156,1758.1129,820.6156,1754.9129,817.4156" style="stroke:#181818;stroke-width:0.8000000000000002;"/><text fill="#000000" font-family="sans-serif" font-size="10.4" lengthAdjust="spacing" textLength="160.098" x="1754.9129" y="802.8055">findByUsername(user.username())</text><polygon fill="#181818" points="820.2207,843.2484,812.2207,846.4484,820.2207,849.6484,817.0207,846.4484" style="stroke:#181818;stroke-width:0.8000000000000002;"/><line style="stroke:#181818;stroke-width:0.8000000000000002;" x1="815.4207" x2="1740.5129" y1="846.4484" y2="846.4484"/><text fill="#000000" font-family="sans-serif" font-size="10.4" lengthAdjust="spacing" textLength="84.4086" x="825.0207" y="842.2383">authenticatedUser</text><polygon fill="#181818" points="934.7719,868.2813,942.7719,871.4813,934.7719,874.6813,937.9719,871.4813" style="stroke:#181818;stroke-width:0.8000000000000002;"/><line style="stroke:#181818;stroke-width:0.8000000000000002;" x1="811.4207" x2="939.5719" y1="871.4813" y2="871.4813"/><text fill="#000000" font-family="sans-serif" font-size="10.4" lengthAdjust="spacing" textLength="97.1039" x="817.0207" y="867.2711">PersistenceContext()</text><polygon fill="#181818" points="1047.966,893.3141,1055.966,896.5141,1047.966,899.7141,1051.166,896.5141" style="stroke:#181818;stroke-width:0.8000000000000002;"/><line style="stroke:#181818;stroke-width:0.8000000000000002;" x1="948.3719" x2="1052.766" y1="896.5141" y2="896.5141"/><text fill="#000000" font-family="sans-serif" font-size="10.4" lengthAdjust="spacing" textLength="60.6836" x="953.9719" y="892.3039">repositories()</text><polygon fill="#181818" points="1915.0109,918.3469,1923.0109,921.5469,1915.0109,924.7469,1918.2109,921.5469" style="stroke:#181818;stroke-width:0.8000000000000002;"/><line style="stroke:#181818;stroke-width:0.8000000000000002;" x1="1061.566" x2="1919.8109" y1="921.5469" y2="921.5469"/><text fill="#000000" font-family="sans-serif" font-size="10.4" lengthAdjust="spacing" textLength="86.1047" x="1067.166" y="917.3367">crmCollaborators()</text><line style="stroke:#181818;stroke-width:0.8000000000000002;" x1="1932.6109" x2="1970.2109" y1="942.5797" y2="942.5797"/><line style="stroke:#181818;stroke-width:0.8000000000000002;" x1="1970.2109" x2="1970.2109" y1="942.5797" y2="952.9797"/><line style="stroke:#181818;stroke-width:0.8000000000000002;" x1="1937.4109" x2="1970.2109" y1="952.9797" y2="952.9797"/><polygon fill="#181818" points="1945.4109,949.7797,1937.4109,952.9797,1945.4109,956.1797,1942.2109,952.9797" style="stroke:#181818;stroke-width:0.8000000000000002;"/><text fill="#000000" font-family="sans-serif" font-size="10.4" lengthAdjust="spacing" textLength="173.9867" x="1942.2109" y="938.3695">findByEmail(authenticatedUser.email)</text><polygon fill="#181818" points="816.2207,978.8125,808.2207,982.0125,816.2207,985.2125,813.0207,982.0125" style="stroke:#181818;stroke-width:0.8000000000000002;"/><line style="stroke:#181818;stroke-width:0.8000000000000002;" x1="811.4207" x2="1927.8109" y1="982.0125" y2="982.0125"/><text fill="#000000" font-family="sans-serif" font-size="10.4" lengthAdjust="spacing" textLength="73.9781" x="821.0207" y="977.8023">crmCollaborator</text><polygon fill="#181818" points="2116.1977,1003.8453,2124.1977,1007.0453,2116.1977,1010.2453,2119.3977,1007.0453" style="stroke:#181818;stroke-width:0.8000000000000002;"/><line style="stroke:#181818;stroke-width:0.8000000000000002;" x1="807.4207" x2="2120.9977" y1="1007.0453" y2="1007.0453"/><text fill="#000000" font-family="sans-serif" font-size="10.4" lengthAdjust="spacing" textLength="449.15" x="813.0207" y="1002.8352">ShowProposal(showRequest, date, time, quantityOfDrones, insurance, crmCollaborator, duration)</text><polygon fill="#181818" points="816.2207,1028.8781,808.2207,1032.0781,816.2207,1035.2781,813.0207,1032.0781" style="stroke:#181818;stroke-width:0.8000000000000002;"/><line style="stroke:#181818;stroke-width:0.8000000000000002;" x1="811.4207" x2="2128.9977" y1="1032.0781" y2="1032.0781"/><text fill="#000000" font-family="sans-serif" font-size="10.4" lengthAdjust="spacing" textLength="65.325" x="821.0207" y="1027.868">showProposal</text><polygon fill="#181818" points="934.7719,1053.9109,942.7719,1057.1109,934.7719,1060.3109,937.9719,1057.1109" style="stroke:#181818;stroke-width:0.8000000000000002;"/><line style="stroke:#181818;stroke-width:0.8000000000000002;" x1="807.4207" x2="939.5719" y1="1057.1109" y2="1057.1109"/><text fill="#000000" font-family="sans-serif" font-size="10.4" lengthAdjust="spacing" textLength="97.1039" x="813.0207" y="1052.9008">PersistenceContext()</text><polygon fill="#181818" points="1047.966,1078.9438,1055.966,1082.1438,1047.966,1085.3438,1051.166,1082.1438" style="stroke:#181818;stroke-width:0.8000000000000002;"/><line style="stroke:#181818;stroke-width:0.8000000000000002;" x1="948.3719" x2="1052.766" y1="1082.1438" y2="1082.1438"/><text fill="#000000" font-family="sans-serif" font-size="10.4" lengthAdjust="spacing" textLength="60.6836" x="953.9719" y="1077.9336">repositories()</text><polygon fill="#181818" points="1582.759,1103.9766,1590.759,1107.1766,1582.759,1110.3766,1585.959,1107.1766" style="stroke:#181818;stroke-width:0.8000000000000002;"/><line style="stroke:#181818;stroke-width:0.8000000000000002;" x1="1061.566" x2="1587.559" y1="1107.1766" y2="1107.1766"/><text fill="#000000" font-family="sans-serif" font-size="10.4" lengthAdjust="spacing" textLength="52.0203" x="1067.166" y="1102.9664">proposals()</text><line style="stroke:#181818;stroke-width:0.8000000000000002;" x1="1600.359" x2="1637.959" y1="1128.2094" y2="1128.2094"/><line style="stroke:#181818;stroke-width:0.8000000000000002;" x1="1637.959" x2="1637.959" y1="1128.2094" y2="1138.6094"/><line style="stroke:#181818;stroke-width:0.8000000000000002;" x1="1605.159" x2="1637.959" y1="1138.6094" y2="1138.6094"/><polygon fill="#181818" points="1613.159,1135.4094,1605.159,1138.6094,1613.159,1141.8094,1609.959,1138.6094" style="stroke:#181818;stroke-width:0.8000000000000002;"/><text fill="#000000" font-family="sans-serif" font-size="10.4" lengthAdjust="spacing" textLength="94.2195" x="1609.959" y="1123.9992">save(showProposal)</text><polygon fill="#181818" points="816.2207,1164.4422,808.2207,1167.6422,816.2207,1170.8422,813.0207,1167.6422" style="stroke:#181818;stroke-width:0.8000000000000002;"/><line style="stroke:#181818;stroke-width:0.8000000000000002;" x1="811.4207" x2="1595.559" y1="1167.6422" y2="1167.6422"/><text fill="#000000" font-family="sans-serif" font-size="10.4" lengthAdjust="spacing" textLength="95.9664" x="821.0207" y="1163.432">showProposal saved</text><polygon fill="#181818" points="394.723,1189.475,386.723,1192.675,394.723,1195.875,391.523,1192.675" style="stroke:#181818;stroke-width:0.8000000000000002;"/><line style="stroke:#181818;stroke-width:0.8000000000000002;" x1="389.923" x2="802.6207" y1="1192.675" y2="1192.675"/><text fill="#000000" font-family="sans-serif" font-size="10.4" lengthAdjust="spacing" textLength="166.4813" x="399.523" y="1188.4648">Show Proposal created successfully</text><polygon fill="#181818" points="60.0137,1214.5078,52.0137,1217.7078,60.0137,1220.9078,56.8137,1217.7078" style="stroke:#181818;stroke-width:0.8000000000000002;"/><line style="stroke:#181818;stroke-width:0.8000000000000002;" x1="55.2137" x2="381.123" y1="1217.7078" y2="1217.7078"/><text fill="#000000" font-family="sans-serif" font-size="10.4" lengthAdjust="spacing" textLength="166.4813" x="64.8137" y="1213.4977">Show Proposal created successfully</text><!--SRC=[rLVDRjim3BxxAOIU7A3h0_GmeCqs88TYHOO-W6Ohgp3RIYKvczz-b6HPb2mx6P1XsoM8QVBZtoTIffKMajnizqzaAvg6VXMIWkI6K4LU59F5aKhDAtwadGOroQXcNrx5ZsSfZaBHvcNdL7Vd5BUYqn8yC8ST7cF3PoOLLvfr5JCgxAUswaWSw-yPe7E8UFX4JIg3LH__9p7rIekMoM3Y8a7YsC24lsTlFLCwiKdUpCryrXax_6fcM4lHCLFtnD2BaepsJxXfQMB9g-KeNOd7XwA0ul4JjCyHe32_vDrxw36v9z9bJRGWbUqneKG153bwys2z0zkTiGpD1eG6-kXhhifDq4UKA905sAFk0y2S8XW5CwN0Xe0pqiAcCPQACnD3pVBsazGJoYEOf11l0B52AI4uRuZIn7oBGEQW1zxL3qtZJbEThzeg72xy526EBp9VaYVji4J8ew4MkjPRyjm3lxuhmnd56bPfu8mtJ-ZbtYkii40XT0HLwPN_NpOb4yMK8aZEKIeTHqMAbdKGamlNyt7mxSzLDlMMSHPr2oKIaIN5MNcL8-0IB6hyEWNjs1hdsH8B8nsFj_De1rYTDVYy9PgtyFlMmsZbUY3YGEma1uYk9hnJlQIM0b543nw3DWtHhunqh69AKM04xq3UKir5jp9guwX1VE8r-CGXrU3Pe8JWFXy-XD2Crn1UvgXLiqLUeiBVPjFt7cu3T0ZaeYCQXV2DwQriyJQxsjRu2mVTRtB7u6dVdrqRqmrW0eZ1p6b-78oWeoqhU_Xpr_kdpIO3L4HGKSbf3yI0NbPcCjXR08ej06I5Lsh27rtToSt8yZnYc47EzWCJBxbUpL3pdboZFhQKD-MipdVCo3ShNXRSH4SsIYMUZIdQvIyNZzau5y3p5SP44ZoU6uWdqm2SdEUMJb3399c4_yQjO4wnv5Q0lnVSbBUF2mCZMg7HfyOCAu-lw8cLk7gR5Smiw68VB7QTxlaOSFLbxXfWj087tRggYUehiqeFVTCC5rrGVmy6FcsIsLVy0W00]--></g></svg>