<?xml version="1.0" encoding="UTF-8" standalone="no"?><svg xmlns="http://www.w3.org/2000/svg" xmlns:xlink="http://www.w3.org/1999/xlink" contentStyleType="text/css" height="1974px" preserveAspectRatio="none" style="width:3756px;height:1974px;background:#FFFFFF;" version="1.1" viewBox="0 0 3756 1974" width="3756px" zoomAndPan="magnify"><defs/><g><rect fill="#FFFFFF" height="1766.7188" style="stroke:#181818;stroke-width:1.0;" width="10" x="82.5" y="100.1563"/><rect fill="#FFFFFF" height="1735.5625" style="stroke:#181818;stroke-width:1.0;" width="10" x="681.5" y="131.3125"/><rect fill="#FFFFFF" height="247.9375" style="stroke:#181818;stroke-width:1.0;" width="10" x="1386.5" y="170.4688"/><rect fill="#FFFFFF" height="247.9375" style="stroke:#181818;stroke-width:1.0;" width="10" x="1386.5" y="535.875"/><rect fill="#FFFFFF" height="795.9688" style="stroke:#181818;stroke-width:1.0;" width="10" x="1386.5" y="1031.75"/><rect fill="#FFFFFF" height="422.5625" style="stroke:#181818;stroke-width:1.0;" width="10" x="1391.5" y="1078.9063"/><rect fill="#FFFFFF" height="39.1563" style="stroke:#181818;stroke-width:1.0;" width="10" x="1631.5" y="209.625"/><rect fill="#FFFFFF" height="39.1563" style="stroke:#181818;stroke-width:1.0;" width="10" x="1631.5" y="575.0313"/><rect fill="#FFFFFF" height="39.1563" style="stroke:#181818;stroke-width:1.0;" width="10" x="1631.5" y="1123.0625"/><rect fill="#FFFFFF" height="39.1563" style="stroke:#181818;stroke-width:1.0;" width="10" x="1631.5" y="1331.8438"/><rect fill="#FFFFFF" height="39.1563" style="stroke:#181818;stroke-width:1.0;" width="10" x="1631.5" y="1618.9375"/><rect fill="#FFFFFF" height="39.1563" style="stroke:#181818;stroke-width:1.0;" width="10" x="1821.5" y="248.7813"/><rect fill="#FFFFFF" height="39.1563" style="stroke:#181818;stroke-width:1.0;" width="10" x="1821.5" y="614.1875"/><rect fill="#FFFFFF" height="39.1563" style="stroke:#181818;stroke-width:1.0;" width="10" x="1821.5" y="1162.2188"/><rect fill="#FFFFFF" height="39.1563" style="stroke:#181818;stroke-width:1.0;" width="10" x="1821.5" y="1371"/><rect fill="#FFFFFF" height="39.1563" style="stroke:#181818;stroke-width:1.0;" width="10" x="1821.5" y="1658.0938"/><rect fill="#FFFFFF" height="91.3125" style="stroke:#181818;stroke-width:1.0;" width="10" x="2016.5" y="287.9375"/><rect fill="#FFFFFF" height="44.1563" style="stroke:#181818;stroke-width:1.0;" width="10" x="2021.5" y="335.0938"/><rect fill="#FFFFFF" height="91.3125" style="stroke:#181818;stroke-width:1.0;" width="10" x="2272.5" y="653.3438"/><rect fill="#FFFFFF" height="44.1563" style="stroke:#181818;stroke-width:1.0;" width="10" x="2277.5" y="700.5"/><rect fill="#FFFFFF" height="91.3125" style="stroke:#181818;stroke-width:1.0;" width="10" x="2754.5" y="1697.25"/><rect fill="#FFFFFF" height="44.1563" style="stroke:#181818;stroke-width:1.0;" width="10" x="2759.5" y="1744.4063"/><rect fill="#FFFFFF" height="91.3125" style="stroke:#181818;stroke-width:1.0;" width="10" x="2999.5" y="1201.375"/><rect fill="#FFFFFF" height="44.1563" style="stroke:#181818;stroke-width:1.0;" width="10" x="3004.5" y="1248.5313"/><rect fill="#FFFFFF" height="91.3125" style="stroke:#181818;stroke-width:1.0;" width="10" x="3324.5" y="1410.1563"/><rect fill="#FFFFFF" height="44.1563" style="stroke:#181818;stroke-width:1.0;" width="10" x="3329.5" y="1457.3125"/><rect fill="#FFFFFF" height="39.1563" style="stroke:#181818;stroke-width:1.0;" width="10" x="3674.5" y="1540.625"/><line style="stroke:#181818;stroke-width:0.5;stroke-dasharray:5.0,5.0;" x1="87" x2="87" y1="90.1563" y2="1884.875"/><line style="stroke:#181818;stroke-width:0.5;stroke-dasharray:5.0,5.0;" x1="686.5" x2="686.5" y1="90.1563" y2="1884.875"/><line style="stroke:#181818;stroke-width:0.5;stroke-dasharray:5.0,5.0;" x1="1391.5" x2="1391.5" y1="90.1563" y2="1884.875"/><line style="stroke:#181818;stroke-width:0.5;stroke-dasharray:5.0,5.0;" x1="1636.5" x2="1636.5" y1="90.1563" y2="1884.875"/><line style="stroke:#181818;stroke-width:0.5;stroke-dasharray:5.0,5.0;" x1="1826.5" x2="1826.5" y1="90.1563" y2="1884.875"/><line style="stroke:#181818;stroke-width:0.5;stroke-dasharray:5.0,5.0;" x1="2021.5" x2="2021.5" y1="90.1563" y2="1884.875"/><line style="stroke:#181818;stroke-width:0.5;stroke-dasharray:5.0,5.0;" x1="2277" x2="2277" y1="90.1563" y2="1884.875"/><line style="stroke:#181818;stroke-width:0.5;stroke-dasharray:5.0,5.0;" x1="2759.5" x2="2759.5" y1="90.1563" y2="1884.875"/><line style="stroke:#181818;stroke-width:0.5;stroke-dasharray:5.0,5.0;" x1="3004.5" x2="3004.5" y1="90.1563" y2="1884.875"/><line style="stroke:#181818;stroke-width:0.5;stroke-dasharray:5.0,5.0;" x1="3329.5" x2="3329.5" y1="90.1563" y2="1884.875"/><line style="stroke:#181818;stroke-width:0.5;stroke-dasharray:5.0,5.0;" x1="3679" x2="3679" y1="90.1563" y2="1884.875"/><text fill="#000000" font-family="sans-serif" font-size="20" lengthAdjust="spacing" textLength="159" x="5" y="85.7617">CRM Collaborator</text><ellipse cx="87.5" cy="13.5" fill="#E2E2F0" rx="8" ry="8" style="stroke:#181818;stroke-width:0.5;"/><path d="M87.5,21.5 L87.5,48.5 M74.5,29.5 L100.5,29.5 M87.5,48.5 L74.5,63.5 M87.5,48.5 L100.5,63.5 " fill="none" style="stroke:#181818;stroke-width:0.5;"/><text fill="#000000" font-family="sans-serif" font-size="20" lengthAdjust="spacing" textLength="159" x="5" y="1904.6367">CRM Collaborator</text><ellipse cx="87.5" cy="1917.5313" fill="#E2E2F0" rx="8" ry="8" style="stroke:#181818;stroke-width:0.5;"/><path d="M87.5,1925.5313 L87.5,1952.5313 M74.5,1933.5313 L100.5,1933.5313 M87.5,1952.5313 L74.5,1967.5313 M87.5,1952.5313 L100.5,1967.5313 " fill="none" style="stroke:#181818;stroke-width:0.5;"/><rect fill="#E2E2F0" height="39.1563" rx="2.5" ry="2.5" style="stroke:#181818;stroke-width:0.5;" width="220" x="576.5" y="50"/><text fill="#000000" font-family="sans-serif" font-size="20" lengthAdjust="spacing" textLength="206" x="583.5" y="77.7617">CreateShowProposalUI</text><rect fill="#E2E2F0" height="39.1563" rx="2.5" ry="2.5" style="stroke:#181818;stroke-width:0.5;" width="220" x="576.5" y="1883.875"/><text fill="#000000" font-family="sans-serif" font-size="20" lengthAdjust="spacing" textLength="206" x="583.5" y="1911.6367">CreateShowProposalUI</text><rect fill="#E2E2F0" height="39.1563" rx="2.5" ry="2.5" style="stroke:#181818;stroke-width:0.5;" width="286" x="1248.5" y="50"/><text fill="#000000" font-family="sans-serif" font-size="20" lengthAdjust="spacing" textLength="272" x="1255.5" y="77.7617">CreateShowProposalController</text><rect fill="#E2E2F0" height="39.1563" rx="2.5" ry="2.5" style="stroke:#181818;stroke-width:0.5;" width="286" x="1248.5" y="1883.875"/><text fill="#000000" font-family="sans-serif" font-size="20" lengthAdjust="spacing" textLength="272" x="1255.5" y="1911.6367">CreateShowProposalController</text><rect fill="#E2E2F0" height="39.1563" rx="2.5" ry="2.5" style="stroke:#181818;stroke-width:0.5;" width="184" x="1544.5" y="50"/><text fill="#000000" font-family="sans-serif" font-size="20" lengthAdjust="spacing" textLength="170" x="1551.5" y="77.7617">PersistenceContext</text><rect fill="#E2E2F0" height="39.1563" rx="2.5" ry="2.5" style="stroke:#181818;stroke-width:0.5;" width="184" x="1544.5" y="1883.875"/><text fill="#000000" font-family="sans-serif" font-size="20" lengthAdjust="spacing" textLength="170" x="1551.5" y="1911.6367">PersistenceContext</text><rect fill="#E2E2F0" height="39.1563" rx="2.5" ry="2.5" style="stroke:#181818;stroke-width:0.5;" width="176" x="1738.5" y="50"/><text fill="#000000" font-family="sans-serif" font-size="20" lengthAdjust="spacing" textLength="162" x="1745.5" y="77.7617">RepositoryFactory</text><rect fill="#E2E2F0" height="39.1563" rx="2.5" ry="2.5" style="stroke:#181818;stroke-width:0.5;" width="176" x="1738.5" y="1883.875"/><text fill="#000000" font-family="sans-serif" font-size="20" lengthAdjust="spacing" textLength="162" x="1745.5" y="1911.6367">RepositoryFactory</text><rect fill="#E2E2F0" height="39.1563" rx="2.5" ry="2.5" style="stroke:#181818;stroke-width:0.5;" width="194" x="1924.5" y="50"/><text fill="#000000" font-family="sans-serif" font-size="20" lengthAdjust="spacing" textLength="180" x="1931.5" y="77.7617">CustomerRepository</text><rect fill="#E2E2F0" height="39.1563" rx="2.5" ry="2.5" style="stroke:#181818;stroke-width:0.5;" width="194" x="1924.5" y="1883.875"/><text fill="#000000" font-family="sans-serif" font-size="20" lengthAdjust="spacing" textLength="180" x="1931.5" y="1911.6367">CustomerRepository</text><rect fill="#E2E2F0" height="39.1563" rx="2.5" ry="2.5" style="stroke:#181818;stroke-width:0.5;" width="231" x="2162" y="50"/><text fill="#000000" font-family="sans-serif" font-size="20" lengthAdjust="spacing" textLength="217" x="2169" y="77.7617">ShowRequestRepository</text><rect fill="#E2E2F0" height="39.1563" rx="2.5" ry="2.5" style="stroke:#181818;stroke-width:0.5;" width="231" x="2162" y="1883.875"/><text fill="#000000" font-family="sans-serif" font-size="20" lengthAdjust="spacing" textLength="217" x="2169" y="1911.6367">ShowRequestRepository</text><rect fill="#E2E2F0" height="39.1563" rx="2.5" ry="2.5" style="stroke:#181818;stroke-width:0.5;" width="236" x="2641.5" y="50"/><text fill="#000000" font-family="sans-serif" font-size="20" lengthAdjust="spacing" textLength="222" x="2648.5" y="77.7617">ShowProposalRepository</text><rect fill="#E2E2F0" height="39.1563" rx="2.5" ry="2.5" style="stroke:#181818;stroke-width:0.5;" width="236" x="2641.5" y="1883.875"/><text fill="#000000" font-family="sans-serif" font-size="20" lengthAdjust="spacing" textLength="222" x="2648.5" y="1911.6367">ShowProposalRepository</text><rect fill="#E2E2F0" height="39.1563" rx="2.5" ry="2.5" style="stroke:#181818;stroke-width:0.5;" width="234" x="2887.5" y="50"/><text fill="#000000" font-family="sans-serif" font-size="20" lengthAdjust="spacing" textLength="220" x="2894.5" y="77.7617">ShodroneUserRepository</text><rect fill="#E2E2F0" height="39.1563" rx="2.5" ry="2.5" style="stroke:#181818;stroke-width:0.5;" width="234" x="2887.5" y="1883.875"/><text fill="#000000" font-family="sans-serif" font-size="20" lengthAdjust="spacing" textLength="220" x="2894.5" y="1911.6367">ShodroneUserRepository</text><rect fill="#E2E2F0" height="39.1563" rx="2.5" ry="2.5" style="stroke:#181818;stroke-width:0.5;" width="262" x="3198.5" y="50"/><text fill="#000000" font-family="sans-serif" font-size="20" lengthAdjust="spacing" textLength="248" x="3205.5" y="77.7617">CRMCollaboratorRepository</text><rect fill="#E2E2F0" height="39.1563" rx="2.5" ry="2.5" style="stroke:#181818;stroke-width:0.5;" width="262" x="3198.5" y="1883.875"/><text fill="#000000" font-family="sans-serif" font-size="20" lengthAdjust="spacing" textLength="248" x="3205.5" y="1911.6367">CRMCollaboratorRepository</text><rect fill="#E2E2F0" height="39.1563" rx="2.5" ry="2.5" style="stroke:#181818;stroke-width:0.5;" width="141" x="3609" y="50"/><text fill="#000000" font-family="sans-serif" font-size="20" lengthAdjust="spacing" textLength="127" x="3616" y="77.7617">ShowProposal</text><rect fill="#E2E2F0" height="39.1563" rx="2.5" ry="2.5" style="stroke:#181818;stroke-width:0.5;" width="141" x="3609" y="1883.875"/><text fill="#000000" font-family="sans-serif" font-size="20" lengthAdjust="spacing" textLength="127" x="3616" y="1911.6367">ShowProposal</text><rect fill="#FFFFFF" height="1766.7188" style="stroke:#181818;stroke-width:1.0;" width="10" x="82.5" y="100.1563"/><rect fill="#FFFFFF" height="1735.5625" style="stroke:#181818;stroke-width:1.0;" width="10" x="681.5" y="131.3125"/><rect fill="#FFFFFF" height="247.9375" style="stroke:#181818;stroke-width:1.0;" width="10" x="1386.5" y="170.4688"/><rect fill="#FFFFFF" height="247.9375" style="stroke:#181818;stroke-width:1.0;" width="10" x="1386.5" y="535.875"/><rect fill="#FFFFFF" height="795.9688" style="stroke:#181818;stroke-width:1.0;" width="10" x="1386.5" y="1031.75"/><rect fill="#FFFFFF" height="422.5625" style="stroke:#181818;stroke-width:1.0;" width="10" x="1391.5" y="1078.9063"/><rect fill="#FFFFFF" height="39.1563" style="stroke:#181818;stroke-width:1.0;" width="10" x="1631.5" y="209.625"/><rect fill="#FFFFFF" height="39.1563" style="stroke:#181818;stroke-width:1.0;" width="10" x="1631.5" y="575.0313"/><rect fill="#FFFFFF" height="39.1563" style="stroke:#181818;stroke-width:1.0;" width="10" x="1631.5" y="1123.0625"/><rect fill="#FFFFFF" height="39.1563" style="stroke:#181818;stroke-width:1.0;" width="10" x="1631.5" y="1331.8438"/><rect fill="#FFFFFF" height="39.1563" style="stroke:#181818;stroke-width:1.0;" width="10" x="1631.5" y="1618.9375"/><rect fill="#FFFFFF" height="39.1563" style="stroke:#181818;stroke-width:1.0;" width="10" x="1821.5" y="248.7813"/><rect fill="#FFFFFF" height="39.1563" style="stroke:#181818;stroke-width:1.0;" width="10" x="1821.5" y="614.1875"/><rect fill="#FFFFFF" height="39.1563" style="stroke:#181818;stroke-width:1.0;" width="10" x="1821.5" y="1162.2188"/><rect fill="#FFFFFF" height="39.1563" style="stroke:#181818;stroke-width:1.0;" width="10" x="1821.5" y="1371"/><rect fill="#FFFFFF" height="39.1563" style="stroke:#181818;stroke-width:1.0;" width="10" x="1821.5" y="1658.0938"/><rect fill="#FFFFFF" height="91.3125" style="stroke:#181818;stroke-width:1.0;" width="10" x="2016.5" y="287.9375"/><rect fill="#FFFFFF" height="44.1563" style="stroke:#181818;stroke-width:1.0;" width="10" x="2021.5" y="335.0938"/><rect fill="#FFFFFF" height="91.3125" style="stroke:#181818;stroke-width:1.0;" width="10" x="2272.5" y="653.3438"/><rect fill="#FFFFFF" height="44.1563" style="stroke:#181818;stroke-width:1.0;" width="10" x="2277.5" y="700.5"/><rect fill="#FFFFFF" height="91.3125" style="stroke:#181818;stroke-width:1.0;" width="10" x="2754.5" y="1697.25"/><rect fill="#FFFFFF" height="44.1563" style="stroke:#181818;stroke-width:1.0;" width="10" x="2759.5" y="1744.4063"/><rect fill="#FFFFFF" height="91.3125" style="stroke:#181818;stroke-width:1.0;" width="10" x="2999.5" y="1201.375"/><rect fill="#FFFFFF" height="44.1563" style="stroke:#181818;stroke-width:1.0;" width="10" x="3004.5" y="1248.5313"/><rect fill="#FFFFFF" height="91.3125" style="stroke:#181818;stroke-width:1.0;" width="10" x="3324.5" y="1410.1563"/><rect fill="#FFFFFF" height="44.1563" style="stroke:#181818;stroke-width:1.0;" width="10" x="3329.5" y="1457.3125"/><rect fill="#FFFFFF" height="39.1563" style="stroke:#181818;stroke-width:1.0;" width="10" x="3674.5" y="1540.625"/><polygon fill="#181818" points="669.5,127.3125,679.5,131.3125,669.5,135.3125,673.5,131.3125" style="stroke:#181818;stroke-width:1.0;"/><line style="stroke:#181818;stroke-width:1.0;" x1="92.5" x2="675.5" y1="131.3125" y2="131.3125"/><text fill="#000000" font-family="sans-serif" font-size="20" lengthAdjust="spacing" textLength="302" x="99.5" y="124.918">request to create a show proposal</text><polygon fill="#181818" points="1374.5,166.4688,1384.5,170.4688,1374.5,174.4688,1378.5,170.4688" style="stroke:#181818;stroke-width:1.0;"/><line style="stroke:#181818;stroke-width:1.0;" x1="691.5" x2="1380.5" y1="170.4688" y2="170.4688"/><text fill="#000000" font-family="sans-serif" font-size="20" lengthAdjust="spacing" textLength="133" x="698.5" y="164.0742">listCustomers()</text><polygon fill="#181818" points="1619.5,205.625,1629.5,209.625,1619.5,213.625,1623.5,209.625" style="stroke:#181818;stroke-width:1.0;"/><line style="stroke:#181818;stroke-width:1.0;" x1="1396.5" x2="1625.5" y1="209.625" y2="209.625"/><text fill="#000000" font-family="sans-serif" font-size="20" lengthAdjust="spacing" textLength="184" x="1403.5" y="203.2305">PersistenceContext()</text><polygon fill="#181818" points="1809.5,244.7813,1819.5,248.7813,1809.5,252.7813,1813.5,248.7813" style="stroke:#181818;stroke-width:1.0;"/><line style="stroke:#181818;stroke-width:1.0;" x1="1636.5" x2="1815.5" y1="248.7813" y2="248.7813"/><text fill="#000000" font-family="sans-serif" font-size="20" lengthAdjust="spacing" textLength="117" x="1643.5" y="242.3867">repositories()</text><polygon fill="#181818" points="2004.5,283.9375,2014.5,287.9375,2004.5,291.9375,2008.5,287.9375" style="stroke:#181818;stroke-width:1.0;"/><line style="stroke:#181818;stroke-width:1.0;" x1="1826.5" x2="2010.5" y1="287.9375" y2="287.9375"/><text fill="#000000" font-family="sans-serif" font-size="20" lengthAdjust="spacing" textLength="105" x="1833.5" y="281.543">customers()</text><line style="stroke:#181818;stroke-width:1.0;" x1="2026.5" x2="2073.5" y1="322.0938" y2="322.0938"/><line style="stroke:#181818;stroke-width:1.0;" x1="2073.5" x2="2073.5" y1="322.0938" y2="335.0938"/><line style="stroke:#181818;stroke-width:1.0;" x1="2032.5" x2="2073.5" y1="335.0938" y2="335.0938"/><polygon fill="#181818" points="2042.5,331.0938,2032.5,335.0938,2042.5,339.0938,2038.5,335.0938" style="stroke:#181818;stroke-width:1.0;"/><text fill="#000000" font-family="sans-serif" font-size="20" lengthAdjust="spacing" textLength="232" x="2038.5" y="315.6992">findAllCreatedCustomers()</text><polygon fill="#181818" points="1407.5,375.25,1397.5,379.25,1407.5,383.25,1403.5,379.25" style="stroke:#181818;stroke-width:1.0;"/><line style="stroke:#181818;stroke-width:1.0;" x1="1401.5" x2="2020.5" y1="379.25" y2="379.25"/><text fill="#000000" font-family="sans-serif" font-size="20" lengthAdjust="spacing" textLength="91" x="1413.5" y="372.8555">customers</text><polygon fill="#181818" points="702.5,414.4063,692.5,418.4063,702.5,422.4063,698.5,418.4063" style="stroke:#181818;stroke-width:1.0;"/><line style="stroke:#181818;stroke-width:1.0;" x1="696.5" x2="1390.5" y1="418.4063" y2="418.4063"/><text fill="#000000" font-family="sans-serif" font-size="20" lengthAdjust="spacing" textLength="91" x="708.5" y="412.0117">customers</text><polygon fill="#181818" points="103.5,453.5625,93.5,457.5625,103.5,461.5625,99.5,457.5625" style="stroke:#181818;stroke-width:1.0;"/><line style="stroke:#181818;stroke-width:1.0;" x1="97.5" x2="680.5" y1="457.5625" y2="457.5625"/><text fill="#000000" font-family="sans-serif" font-size="20" lengthAdjust="spacing" textLength="226" x="109.5" y="451.168">asks to select a customer</text><polygon fill="#181818" points="669.5,492.7188,679.5,496.7188,669.5,500.7188,673.5,496.7188" style="stroke:#181818;stroke-width:1.0;"/><line style="stroke:#181818;stroke-width:1.0;" x1="92.5" x2="675.5" y1="496.7188" y2="496.7188"/><text fill="#000000" font-family="sans-serif" font-size="20" lengthAdjust="spacing" textLength="166" x="99.5" y="490.3242">selects a customer</text><polygon fill="#181818" points="1374.5,531.875,1384.5,535.875,1374.5,539.875,1378.5,535.875" style="stroke:#181818;stroke-width:1.0;"/><line style="stroke:#181818;stroke-width:1.0;" x1="691.5" x2="1380.5" y1="535.875" y2="535.875"/><text fill="#000000" font-family="sans-serif" font-size="20" lengthAdjust="spacing" textLength="251" x="698.5" y="529.4805">listShowRequests(customer)</text><polygon fill="#181818" points="1619.5,571.0313,1629.5,575.0313,1619.5,579.0313,1623.5,575.0313" style="stroke:#181818;stroke-width:1.0;"/><line style="stroke:#181818;stroke-width:1.0;" x1="1396.5" x2="1625.5" y1="575.0313" y2="575.0313"/><text fill="#000000" font-family="sans-serif" font-size="20" lengthAdjust="spacing" textLength="184" x="1403.5" y="568.6367">PersistenceContext()</text><polygon fill="#181818" points="1809.5,610.1875,1819.5,614.1875,1809.5,618.1875,1813.5,614.1875" style="stroke:#181818;stroke-width:1.0;"/><line style="stroke:#181818;stroke-width:1.0;" x1="1636.5" x2="1815.5" y1="614.1875" y2="614.1875"/><text fill="#000000" font-family="sans-serif" font-size="20" lengthAdjust="spacing" textLength="117" x="1643.5" y="607.793">repositories()</text><polygon fill="#181818" points="2260.5,649.3438,2270.5,653.3438,2260.5,657.3438,2264.5,653.3438" style="stroke:#181818;stroke-width:1.0;"/><line style="stroke:#181818;stroke-width:1.0;" x1="1826.5" x2="2266.5" y1="653.3438" y2="653.3438"/><text fill="#000000" font-family="sans-serif" font-size="20" lengthAdjust="spacing" textLength="133" x="1833.5" y="646.9492">showRequest()</text><line style="stroke:#181818;stroke-width:1.0;" x1="2282.5" x2="2329.5" y1="687.5" y2="687.5"/><line style="stroke:#181818;stroke-width:1.0;" x1="2329.5" x2="2329.5" y1="687.5" y2="700.5"/><line style="stroke:#181818;stroke-width:1.0;" x1="2288.5" x2="2329.5" y1="700.5" y2="700.5"/><polygon fill="#181818" points="2298.5,696.5,2288.5,700.5,2298.5,704.5,2294.5,700.5" style="stroke:#181818;stroke-width:1.0;"/><text fill="#000000" font-family="sans-serif" font-size="20" lengthAdjust="spacing" textLength="458" x="2294.5" y="681.1055">findAllCreatedShowRequestsByCustomer(customer)</text><polygon fill="#181818" points="1407.5,740.6563,1397.5,744.6563,1407.5,748.6563,1403.5,744.6563" style="stroke:#181818;stroke-width:1.0;"/><line style="stroke:#181818;stroke-width:1.0;" x1="1401.5" x2="2276.5" y1="744.6563" y2="744.6563"/><text fill="#000000" font-family="sans-serif" font-size="20" lengthAdjust="spacing" textLength="129" x="1413.5" y="738.2617">showRequests</text><polygon fill="#181818" points="702.5,779.8125,692.5,783.8125,702.5,787.8125,698.5,783.8125" style="stroke:#181818;stroke-width:1.0;"/><line style="stroke:#181818;stroke-width:1.0;" x1="696.5" x2="1390.5" y1="783.8125" y2="783.8125"/><text fill="#000000" font-family="sans-serif" font-size="20" lengthAdjust="spacing" textLength="129" x="708.5" y="777.418">showRequests</text><polygon fill="#181818" points="103.5,818.9688,93.5,822.9688,103.5,826.9688,99.5,822.9688" style="stroke:#181818;stroke-width:1.0;"/><line style="stroke:#181818;stroke-width:1.0;" x1="97.5" x2="680.5" y1="822.9688" y2="822.9688"/><text fill="#000000" font-family="sans-serif" font-size="20" lengthAdjust="spacing" textLength="263" x="109.5" y="816.5742">asks to select a show request</text><polygon fill="#181818" points="669.5,858.125,679.5,862.125,669.5,866.125,673.5,862.125" style="stroke:#181818;stroke-width:1.0;"/><line style="stroke:#181818;stroke-width:1.0;" x1="92.5" x2="675.5" y1="862.125" y2="862.125"/><text fill="#000000" font-family="sans-serif" font-size="20" lengthAdjust="spacing" textLength="203" x="99.5" y="855.7305">selects a show request</text><line style="stroke:#181818;stroke-width:1.0;" x1="691.5" x2="733.5" y1="901.2813" y2="901.2813"/><line style="stroke:#181818;stroke-width:1.0;" x1="733.5" x2="733.5" y1="901.2813" y2="914.2813"/><line style="stroke:#181818;stroke-width:1.0;" x1="692.5" x2="733.5" y1="914.2813" y2="914.2813"/><polygon fill="#181818" points="702.5,910.2813,692.5,914.2813,702.5,918.2813,698.5,914.2813" style="stroke:#181818;stroke-width:1.0;"/><text fill="#000000" font-family="sans-serif" font-size="20" lengthAdjust="spacing" textLength="461" x="698.5" y="894.8867">asks for date, time, quantity of drones and insurance</text><polygon fill="#181818" points="103.5,949.4375,93.5,953.4375,103.5,957.4375,99.5,953.4375" style="stroke:#181818;stroke-width:1.0;"/><line style="stroke:#181818;stroke-width:1.0;" x1="97.5" x2="680.5" y1="953.4375" y2="953.4375"/><text fill="#000000" font-family="sans-serif" font-size="20" lengthAdjust="spacing" textLength="565" x="109.5" y="947.043">Asks for all the necessary information to create a show proposal</text><polygon fill="#181818" points="669.5,988.5938,679.5,992.5938,669.5,996.5938,673.5,992.5938" style="stroke:#181818;stroke-width:1.0;"/><line style="stroke:#181818;stroke-width:1.0;" x1="92.5" x2="675.5" y1="992.5938" y2="992.5938"/><text fill="#000000" font-family="sans-serif" font-size="20" lengthAdjust="spacing" textLength="493" x="99.5" y="986.1992">provides date, time, quantityOfDrones and the insurance</text><polygon fill="#181818" points="1374.5,1027.75,1384.5,1031.75,1374.5,1035.75,1378.5,1031.75" style="stroke:#181818;stroke-width:1.0;"/><line style="stroke:#181818;stroke-width:1.0;" x1="691.5" x2="1380.5" y1="1031.75" y2="1031.75"/><text fill="#000000" font-family="sans-serif" font-size="20" lengthAdjust="spacing" textLength="676" x="698.5" y="1025.3555">createShowProposal(showRequest, date, time, quantityOfDrones, insurance)</text><line style="stroke:#181818;stroke-width:1.0;" x1="1396.5" x2="1443.5" y1="1065.9063" y2="1065.9063"/><line style="stroke:#181818;stroke-width:1.0;" x1="1443.5" x2="1443.5" y1="1065.9063" y2="1078.9063"/><line style="stroke:#181818;stroke-width:1.0;" x1="1402.5" x2="1443.5" y1="1078.9063" y2="1078.9063"/><polygon fill="#181818" points="1412.5,1074.9063,1402.5,1078.9063,1412.5,1082.9063,1408.5,1078.9063" style="stroke:#181818;stroke-width:1.0;"/><text fill="#000000" font-family="sans-serif" font-size="20" lengthAdjust="spacing" textLength="187" x="1408.5" y="1059.5117">getCrmCollaborator()</text><polygon fill="#181818" points="1619.5,1119.0625,1629.5,1123.0625,1619.5,1127.0625,1623.5,1123.0625" style="stroke:#181818;stroke-width:1.0;"/><line style="stroke:#181818;stroke-width:1.0;" x1="1401.5" x2="1625.5" y1="1123.0625" y2="1123.0625"/><text fill="#000000" font-family="sans-serif" font-size="20" lengthAdjust="spacing" textLength="184" x="1408.5" y="1116.668">PersistenceContext()</text><polygon fill="#181818" points="1809.5,1158.2188,1819.5,1162.2188,1809.5,1166.2188,1813.5,1162.2188" style="stroke:#181818;stroke-width:1.0;"/><line style="stroke:#181818;stroke-width:1.0;" x1="1636.5" x2="1815.5" y1="1162.2188" y2="1162.2188"/><text fill="#000000" font-family="sans-serif" font-size="20" lengthAdjust="spacing" textLength="117" x="1643.5" y="1155.8242">repositories()</text><polygon fill="#181818" points="2987.5,1197.375,2997.5,1201.375,2987.5,1205.375,2991.5,1201.375" style="stroke:#181818;stroke-width:1.0;"/><line style="stroke:#181818;stroke-width:1.0;" x1="1826.5" x2="2993.5" y1="1201.375" y2="1201.375"/><text fill="#000000" font-family="sans-serif" font-size="20" lengthAdjust="spacing" textLength="146" x="1833.5" y="1194.9805">shodroneUsers()</text><line style="stroke:#181818;stroke-width:1.0;" x1="3009.5" x2="3056.5" y1="1235.5313" y2="1235.5313"/><line style="stroke:#181818;stroke-width:1.0;" x1="3056.5" x2="3056.5" y1="1235.5313" y2="1248.5313"/><line style="stroke:#181818;stroke-width:1.0;" x1="3015.5" x2="3056.5" y1="1248.5313" y2="1248.5313"/><polygon fill="#181818" points="3025.5,1244.5313,3015.5,1248.5313,3025.5,1252.5313,3021.5,1248.5313" style="stroke:#181818;stroke-width:1.0;"/><text fill="#000000" font-family="sans-serif" font-size="20" lengthAdjust="spacing" textLength="301" x="3021.5" y="1229.1367">findByUsername(user.username())</text><polygon fill="#181818" points="1412.5,1288.6875,1402.5,1292.6875,1412.5,1296.6875,1408.5,1292.6875" style="stroke:#181818;stroke-width:1.0;"/><line style="stroke:#181818;stroke-width:1.0;" x1="1406.5" x2="3003.5" y1="1292.6875" y2="1292.6875"/><text fill="#000000" font-family="sans-serif" font-size="20" lengthAdjust="spacing" textLength="158" x="1418.5" y="1286.293">authenticatedUser</text><polygon fill="#181818" points="1619.5,1327.8438,1629.5,1331.8438,1619.5,1335.8438,1623.5,1331.8438" style="stroke:#181818;stroke-width:1.0;"/><line style="stroke:#181818;stroke-width:1.0;" x1="1401.5" x2="1625.5" y1="1331.8438" y2="1331.8438"/><text fill="#000000" font-family="sans-serif" font-size="20" lengthAdjust="spacing" textLength="184" x="1408.5" y="1325.4492">PersistenceContext()</text><polygon fill="#181818" points="1809.5,1367,1819.5,1371,1809.5,1375,1813.5,1371" style="stroke:#181818;stroke-width:1.0;"/><line style="stroke:#181818;stroke-width:1.0;" x1="1636.5" x2="1815.5" y1="1371" y2="1371"/><text fill="#000000" font-family="sans-serif" font-size="20" lengthAdjust="spacing" textLength="117" x="1643.5" y="1364.6055">repositories()</text><polygon fill="#181818" points="3312.5,1406.1563,3322.5,1410.1563,3312.5,1414.1563,3316.5,1410.1563" style="stroke:#181818;stroke-width:1.0;"/><line style="stroke:#181818;stroke-width:1.0;" x1="1826.5" x2="3318.5" y1="1410.1563" y2="1410.1563"/><text fill="#000000" font-family="sans-serif" font-size="20" lengthAdjust="spacing" textLength="165" x="1833.5" y="1403.7617">crmCollaborators()</text><line style="stroke:#181818;stroke-width:1.0;" x1="3334.5" x2="3381.5" y1="1444.3125" y2="1444.3125"/><line style="stroke:#181818;stroke-width:1.0;" x1="3381.5" x2="3381.5" y1="1444.3125" y2="1457.3125"/><line style="stroke:#181818;stroke-width:1.0;" x1="3340.5" x2="3381.5" y1="1457.3125" y2="1457.3125"/><polygon fill="#181818" points="3350.5,1453.3125,3340.5,1457.3125,3350.5,1461.3125,3346.5,1457.3125" style="stroke:#181818;stroke-width:1.0;"/><text fill="#000000" font-family="sans-serif" font-size="20" lengthAdjust="spacing" textLength="326" x="3346.5" y="1437.918">findByEmail(authenticatedUser.email)</text><polygon fill="#181818" points="1407.5,1497.4688,1397.5,1501.4688,1407.5,1505.4688,1403.5,1501.4688" style="stroke:#181818;stroke-width:1.0;"/><line style="stroke:#181818;stroke-width:1.0;" x1="1401.5" x2="3328.5" y1="1501.4688" y2="1501.4688"/><text fill="#000000" font-family="sans-serif" font-size="20" lengthAdjust="spacing" textLength="141" x="1413.5" y="1495.0742">crmCollaborator</text><polygon fill="#181818" points="3662.5,1536.625,3672.5,1540.625,3662.5,1544.625,3666.5,1540.625" style="stroke:#181818;stroke-width:1.0;"/><line style="stroke:#181818;stroke-width:1.0;" x1="1396.5" x2="3668.5" y1="1540.625" y2="1540.625"/><text fill="#000000" font-family="sans-serif" font-size="20" lengthAdjust="spacing" textLength="773" x="1403.5" y="1534.2305">ShowProposal(showRequest, date, time, quantityOfDrones, insurance, crmCollaborator)</text><polygon fill="#181818" points="1407.5,1575.7813,1397.5,1579.7813,1407.5,1583.7813,1403.5,1579.7813" style="stroke:#181818;stroke-width:1.0;"/><line style="stroke:#181818;stroke-width:1.0;" x1="1401.5" x2="3678.5" y1="1579.7813" y2="1579.7813"/><text fill="#000000" font-family="sans-serif" font-size="20" lengthAdjust="spacing" textLength="124" x="1413.5" y="1573.3867">showProposal</text><polygon fill="#181818" points="1619.5,1614.9375,1629.5,1618.9375,1619.5,1622.9375,1623.5,1618.9375" style="stroke:#181818;stroke-width:1.0;"/><line style="stroke:#181818;stroke-width:1.0;" x1="1396.5" x2="1625.5" y1="1618.9375" y2="1618.9375"/><text fill="#000000" font-family="sans-serif" font-size="20" lengthAdjust="spacing" textLength="184" x="1403.5" y="1612.543">PersistenceContext()</text><polygon fill="#181818" points="1809.5,1654.0938,1819.5,1658.0938,1809.5,1662.0938,1813.5,1658.0938" style="stroke:#181818;stroke-width:1.0;"/><line style="stroke:#181818;stroke-width:1.0;" x1="1636.5" x2="1815.5" y1="1658.0938" y2="1658.0938"/><text fill="#000000" font-family="sans-serif" font-size="20" lengthAdjust="spacing" textLength="117" x="1643.5" y="1651.6992">repositories()</text><polygon fill="#181818" points="2742.5,1693.25,2752.5,1697.25,2742.5,1701.25,2746.5,1697.25" style="stroke:#181818;stroke-width:1.0;"/><line style="stroke:#181818;stroke-width:1.0;" x1="1826.5" x2="2748.5" y1="1697.25" y2="1697.25"/><text fill="#000000" font-family="sans-serif" font-size="20" lengthAdjust="spacing" textLength="100" x="1833.5" y="1690.8555">proposals()</text><line style="stroke:#181818;stroke-width:1.0;" x1="2764.5" x2="2811.5" y1="1731.4063" y2="1731.4063"/><line style="stroke:#181818;stroke-width:1.0;" x1="2811.5" x2="2811.5" y1="1731.4063" y2="1744.4063"/><line style="stroke:#181818;stroke-width:1.0;" x1="2770.5" x2="2811.5" y1="1744.4063" y2="1744.4063"/><polygon fill="#181818" points="2780.5,1740.4063,2770.5,1744.4063,2780.5,1748.4063,2776.5,1744.4063" style="stroke:#181818;stroke-width:1.0;"/><text fill="#000000" font-family="sans-serif" font-size="20" lengthAdjust="spacing" textLength="179" x="2776.5" y="1725.0117">save(showProposal)</text><polygon fill="#181818" points="1407.5,1784.5625,1397.5,1788.5625,1407.5,1792.5625,1403.5,1788.5625" style="stroke:#181818;stroke-width:1.0;"/><line style="stroke:#181818;stroke-width:1.0;" x1="1401.5" x2="2758.5" y1="1788.5625" y2="1788.5625"/><text fill="#000000" font-family="sans-serif" font-size="20" lengthAdjust="spacing" textLength="182" x="1413.5" y="1782.168">showProposal saved</text><polygon fill="#181818" points="702.5,1823.7188,692.5,1827.7188,702.5,1831.7188,698.5,1827.7188" style="stroke:#181818;stroke-width:1.0;"/><line style="stroke:#181818;stroke-width:1.0;" x1="696.5" x2="1390.5" y1="1827.7188" y2="1827.7188"/><text fill="#000000" font-family="sans-serif" font-size="20" lengthAdjust="spacing" textLength="317" x="708.5" y="1821.3242">Show Proposal created successfully</text><polygon fill="#181818" points="98.5,1862.875,88.5,1866.875,98.5,1870.875,94.5,1866.875" style="stroke:#181818;stroke-width:1.0;"/><line style="stroke:#181818;stroke-width:1.0;" x1="92.5" x2="685.5" y1="1866.875" y2="1866.875"/><text fill="#000000" font-family="sans-serif" font-size="20" lengthAdjust="spacing" textLength="317" x="104.5" y="1860.4805">Show Proposal created successfully</text><!--SRC=[rLVDRjim3BxxAOIU4Y0hXXrx6D1cAv13iI957q2pcLQeRAUIt2rx-b5IP5Eox6POXssN8AR8Zt-VI5i_YMRF5QzbMpv1nIhOyKwQwxOnT-87i0_l2rwQLh6pzVQ6hLif-TTMSPISCQxPlGPLeBqHfTZpng2Q0cxWxh7zTglQVQkvlDzurSrhYcjqgj03UEpXCJQy1QM5Dj2KO5NWkt7gH1phRm7H1KPyk7Qf79pwyNyIKwTDMuCQJ7maH1mRsF2tyDo1DebDSZ8s2rbdxEZHoB1IRGEsxebX42KPRMzeqzB4agFfA7s9Zm-5vOHumVPv0XJsbxtxY3rc5qpvh9bfMUbwp3ZJ2CNsmNomtg3jnbeEpKO4YNqCDTUBvQ1FA54G2xGdtKU0CKKe2cLAGGqHvqWBbyQnL09i31NaxNjf85H0i4aHtY1YIL8YSC6Gf4dv5e6CGNUYgIwbzBUfobTj5euMle-GnXUPJycJTZWYvD582tth7Naka5zFsd96WuJI86U2UK8lVwwfmWI5o1NKYw3y_x8fcIYs58FaDKgbuwX8qR8EOdBHUbuTGljpbKszPPn5tIA9H6H9SMQESWISWYMDdwUW6rl7UJR5maWdu6q2sWvNPuK-Lyo86d-VEnojmXnOksDkaYD4Kp7Hw4vnHu4eeik0mQLavX5O0oLepP4Hea5vpOrecvbH6qUDuXTHeSzSI5zsduQ0hAyXgCm5AqVhUq7AlPhri1gWJxgEaUC7C6jLqytrPXlYBrpgiBKzM_lT_kgAwBTz3n23sPjxTR22XjUmwF3FUHUUbiiCK151HINd7T81ErZQAU0sFebj0CWAtwW9VtHD9sz1ZjqHmonojX-KUCchr0WrxyatwdFDXLoCwdmELhwSyJBX9hgeKIhn74pHJZ-Sl6R7QO2UVtiuhDBW8tRq8wvtcLihWngbHY_yD_R-c5Z9tgTV17wEkyU9CH4joUXZOeILnzVy1HQqUiiPp2peP1ySTfLkyXXmzZ2twAtMm3o_cYgckz8korqdvU6aLz1VWy6FbsJY5Jy1]--></g></svg>