<?xml version="1.0" encoding="UTF-8" standalone="no"?><svg xmlns="http://www.w3.org/2000/svg" xmlns:xlink="http://www.w3.org/1999/xlink" contentStyleType="text/css" height="1104px" preserveAspectRatio="none" style="width:2685px;height:1104px;background:#FFFFFF;" version="1.1" viewBox="0 0 2685 1104" width="2685px" zoomAndPan="magnify"><defs/><g><rect fill="#FFFFFF" height="896.4375" style="stroke:#181818;stroke-width:1.0;" width="10" x="67.5" y="100.1563"/><rect fill="#FFFFFF" height="865.2813" style="stroke:#181818;stroke-width:1.0;" width="10" x="369.5" y="131.3125"/><rect fill="#FFFFFF" height="247.9375" style="stroke:#181818;stroke-width:1.0;" width="10" x="947.5" y="170.4688"/><rect fill="#FFFFFF" height="460.7188" style="stroke:#181818;stroke-width:1.0;" width="10" x="947.5" y="535.875"/><rect fill="#FFFFFF" height="39.1563" style="stroke:#181818;stroke-width:1.0;" width="10" x="1224" y="209.625"/><rect fill="#FFFFFF" height="39.1563" style="stroke:#181818;stroke-width:1.0;" width="10" x="1414" y="248.7813"/><rect fill="#FFFFFF" height="117.4688" style="stroke:#181818;stroke-width:1.0;" width="10" x="1647" y="653.3438"/><rect fill="#FFFFFF" height="39.1563" style="stroke:#181818;stroke-width:1.0;" width="10" x="2083" y="692.5"/><rect fill="#FFFFFF" height="91.3125" style="stroke:#181818;stroke-width:1.0;" width="10" x="2336.5" y="287.9375"/><rect fill="#FFFFFF" height="39.1563" style="stroke:#181818;stroke-width:1.0;" width="10" x="2336.5" y="879.125"/><rect fill="#FFFFFF" height="39.1563" style="stroke:#181818;stroke-width:1.0;" width="10" x="2603.5" y="575.0313"/><rect fill="#FFFFFF" height="30" style="stroke:#181818;stroke-width:1.0;" width="10" x="2603.5" y="809.9688"/><line style="stroke:#181818;stroke-width:0.5;stroke-dasharray:5.0,5.0;" x1="72" x2="72" y1="90.1563" y2="1014.5938"/><line style="stroke:#181818;stroke-width:0.5;stroke-dasharray:5.0,5.0;" x1="374" x2="374" y1="90.1563" y2="1014.5938"/><line style="stroke:#181818;stroke-width:0.5;stroke-dasharray:5.0,5.0;" x1="952" x2="952" y1="90.1563" y2="1014.5938"/><line style="stroke:#181818;stroke-width:0.5;stroke-dasharray:5.0,5.0;" x1="1229" x2="1229" y1="90.1563" y2="1014.5938"/><line style="stroke:#181818;stroke-width:0.5;stroke-dasharray:5.0,5.0;" x1="1419" x2="1419" y1="90.1563" y2="1014.5938"/><line style="stroke:#181818;stroke-width:0.5;stroke-dasharray:5.0,5.0;" x1="1652" x2="1652" y1="90.1563" y2="1014.5938"/><line style="stroke:#181818;stroke-width:0.5;stroke-dasharray:5.0,5.0;" x1="2087.5" x2="2087.5" y1="90.1563" y2="1014.5938"/><line style="stroke:#181818;stroke-width:0.5;stroke-dasharray:5.0,5.0;" x1="2341.5" x2="2341.5" y1="90.1563" y2="1014.5938"/><line style="stroke:#181818;stroke-width:0.5;stroke-dasharray:5.0,5.0;" x1="2608" x2="2608" y1="90.1563" y2="1014.5938"/><text fill="#000000" font-family="sans-serif" font-size="20" lengthAdjust="spacing" textLength="129" x="5" y="85.7617">CRM Manager</text><ellipse cx="72.5" cy="13.5" fill="#E2E2F0" rx="8" ry="8" style="stroke:#181818;stroke-width:0.5;"/><path d="M72.5,21.5 L72.5,48.5 M59.5,29.5 L85.5,29.5 M72.5,48.5 L59.5,63.5 M72.5,48.5 L85.5,63.5 " fill="none" style="stroke:#181818;stroke-width:0.5;"/><text fill="#000000" font-family="sans-serif" font-size="20" lengthAdjust="spacing" textLength="129" x="5" y="1034.3555">CRM Manager</text><ellipse cx="72.5" cy="1047.25" fill="#E2E2F0" rx="8" ry="8" style="stroke:#181818;stroke-width:0.5;"/><path d="M72.5,1055.25 L72.5,1082.25 M59.5,1063.25 L85.5,1063.25 M72.5,1082.25 L59.5,1097.25 M72.5,1082.25 L85.5,1097.25 " fill="none" style="stroke:#181818;stroke-width:0.5;"/><rect fill="#E2E2F0" height="39.1563" rx="2.5" ry="2.5" style="stroke:#181818;stroke-width:0.5;" width="283" x="233" y="50"/><text fill="#000000" font-family="sans-serif" font-size="20" lengthAdjust="spacing" textLength="269" x="240" y="77.7617">ConfigureProposalDocumentUI</text><rect fill="#E2E2F0" height="39.1563" rx="2.5" ry="2.5" style="stroke:#181818;stroke-width:0.5;" width="283" x="233" y="1013.5938"/><text fill="#000000" font-family="sans-serif" font-size="20" lengthAdjust="spacing" textLength="269" x="240" y="1041.3555">ConfigureProposalDocumentUI</text><rect fill="#E2E2F0" height="39.1563" rx="2.5" ry="2.5" style="stroke:#181818;stroke-width:0.5;" width="349" x="778" y="50"/><text fill="#000000" font-family="sans-serif" font-size="20" lengthAdjust="spacing" textLength="335" x="785" y="77.7617">ConfigureProposalDocumentController</text><rect fill="#E2E2F0" height="39.1563" rx="2.5" ry="2.5" style="stroke:#181818;stroke-width:0.5;" width="349" x="778" y="1013.5938"/><text fill="#000000" font-family="sans-serif" font-size="20" lengthAdjust="spacing" textLength="335" x="785" y="1041.3555">ConfigureProposalDocumentController</text><rect fill="#E2E2F0" height="39.1563" rx="2.5" ry="2.5" style="stroke:#181818;stroke-width:0.5;" width="184" x="1137" y="50"/><text fill="#000000" font-family="sans-serif" font-size="20" lengthAdjust="spacing" textLength="170" x="1144" y="77.7617">PersistenceContext</text><rect fill="#E2E2F0" height="39.1563" rx="2.5" ry="2.5" style="stroke:#181818;stroke-width:0.5;" width="184" x="1137" y="1013.5938"/><text fill="#000000" font-family="sans-serif" font-size="20" lengthAdjust="spacing" textLength="170" x="1144" y="1041.3555">PersistenceContext</text><rect fill="#E2E2F0" height="39.1563" rx="2.5" ry="2.5" style="stroke:#181818;stroke-width:0.5;" width="176" x="1331" y="50"/><text fill="#000000" font-family="sans-serif" font-size="20" lengthAdjust="spacing" textLength="162" x="1338" y="77.7617">RepositoryFactory</text><rect fill="#E2E2F0" height="39.1563" rx="2.5" ry="2.5" style="stroke:#181818;stroke-width:0.5;" width="176" x="1331" y="1013.5938"/><text fill="#000000" font-family="sans-serif" font-size="20" lengthAdjust="spacing" textLength="162" x="1338" y="1041.3555">RepositoryFactory</text><rect fill="#E2E2F0" height="39.1563" rx="2.5" ry="2.5" style="stroke:#181818;stroke-width:0.5;" width="270" x="1517" y="50"/><text fill="#000000" font-family="sans-serif" font-size="20" lengthAdjust="spacing" textLength="256" x="1524" y="77.7617">ProposalDocumentGenerator</text><rect fill="#E2E2F0" height="39.1563" rx="2.5" ry="2.5" style="stroke:#181818;stroke-width:0.5;" width="270" x="1517" y="1013.5938"/><text fill="#000000" font-family="sans-serif" font-size="20" lengthAdjust="spacing" textLength="256" x="1524" y="1041.3555">ProposalDocumentGenerator</text><rect fill="#E2E2F0" height="39.1563" rx="2.5" ry="2.5" style="stroke:#181818;stroke-width:0.5;" width="251" x="1962.5" y="50"/><text fill="#000000" font-family="sans-serif" font-size="20" lengthAdjust="spacing" textLength="237" x="1969.5" y="77.7617">DocumentGenerationPlugin</text><rect fill="#E2E2F0" height="39.1563" rx="2.5" ry="2.5" style="stroke:#181818;stroke-width:0.5;" width="251" x="1962.5" y="1013.5938"/><text fill="#000000" font-family="sans-serif" font-size="20" lengthAdjust="spacing" textLength="237" x="1969.5" y="1041.3555">DocumentGenerationPlugin</text><rect fill="#E2E2F0" height="39.1563" rx="2.5" ry="2.5" style="stroke:#181818;stroke-width:0.5;" width="236" x="2223.5" y="50"/><text fill="#000000" font-family="sans-serif" font-size="20" lengthAdjust="spacing" textLength="222" x="2230.5" y="77.7617">ShowProposalRepository</text><rect fill="#E2E2F0" height="39.1563" rx="2.5" ry="2.5" style="stroke:#181818;stroke-width:0.5;" width="236" x="2223.5" y="1013.5938"/><text fill="#000000" font-family="sans-serif" font-size="20" lengthAdjust="spacing" textLength="222" x="2230.5" y="1041.3555">ShowProposalRepository</text><rect fill="#E2E2F0" height="39.1563" rx="2.5" ry="2.5" style="stroke:#181818;stroke-width:0.5;" width="141" x="2538" y="50"/><text fill="#000000" font-family="sans-serif" font-size="20" lengthAdjust="spacing" textLength="127" x="2545" y="77.7617">ShowProposal</text><rect fill="#E2E2F0" height="39.1563" rx="2.5" ry="2.5" style="stroke:#181818;stroke-width:0.5;" width="141" x="2538" y="1013.5938"/><text fill="#000000" font-family="sans-serif" font-size="20" lengthAdjust="spacing" textLength="127" x="2545" y="1041.3555">ShowProposal</text><rect fill="#FFFFFF" height="896.4375" style="stroke:#181818;stroke-width:1.0;" width="10" x="67.5" y="100.1563"/><rect fill="#FFFFFF" height="865.2813" style="stroke:#181818;stroke-width:1.0;" width="10" x="369.5" y="131.3125"/><rect fill="#FFFFFF" height="247.9375" style="stroke:#181818;stroke-width:1.0;" width="10" x="947.5" y="170.4688"/><rect fill="#FFFFFF" height="460.7188" style="stroke:#181818;stroke-width:1.0;" width="10" x="947.5" y="535.875"/><rect fill="#FFFFFF" height="39.1563" style="stroke:#181818;stroke-width:1.0;" width="10" x="1224" y="209.625"/><rect fill="#FFFFFF" height="39.1563" style="stroke:#181818;stroke-width:1.0;" width="10" x="1414" y="248.7813"/><rect fill="#FFFFFF" height="117.4688" style="stroke:#181818;stroke-width:1.0;" width="10" x="1647" y="653.3438"/><rect fill="#FFFFFF" height="39.1563" style="stroke:#181818;stroke-width:1.0;" width="10" x="2083" y="692.5"/><rect fill="#FFFFFF" height="91.3125" style="stroke:#181818;stroke-width:1.0;" width="10" x="2336.5" y="287.9375"/><rect fill="#FFFFFF" height="39.1563" style="stroke:#181818;stroke-width:1.0;" width="10" x="2336.5" y="879.125"/><rect fill="#FFFFFF" height="39.1563" style="stroke:#181818;stroke-width:1.0;" width="10" x="2603.5" y="575.0313"/><rect fill="#FFFFFF" height="30" style="stroke:#181818;stroke-width:1.0;" width="10" x="2603.5" y="809.9688"/><polygon fill="#181818" points="357.5,127.3125,367.5,131.3125,357.5,135.3125,361.5,131.3125" style="stroke:#181818;stroke-width:1.0;"/><line style="stroke:#181818;stroke-width:1.0;" x1="77.5" x2="363.5" y1="131.3125" y2="131.3125"/><text fill="#000000" font-family="sans-serif" font-size="20" lengthAdjust="spacing" textLength="265" x="84.5" y="124.918">request template configuration</text><polygon fill="#181818" points="935.5,166.4688,945.5,170.4688,935.5,174.4688,939.5,170.4688" style="stroke:#181818;stroke-width:1.0;"/><line style="stroke:#181818;stroke-width:1.0;" x1="379.5" x2="941.5" y1="170.4688" y2="170.4688"/><text fill="#000000" font-family="sans-serif" font-size="20" lengthAdjust="spacing" textLength="229" x="386.5" y="164.0742">configurableProposalList()</text><polygon fill="#181818" points="1212,205.625,1222,209.625,1212,213.625,1216,209.625" style="stroke:#181818;stroke-width:1.0;"/><line style="stroke:#181818;stroke-width:1.0;" x1="957.5" x2="1218" y1="209.625" y2="209.625"/><text fill="#000000" font-family="sans-serif" font-size="20" lengthAdjust="spacing" textLength="184" x="964.5" y="203.2305">PersistenceContext()</text><polygon fill="#181818" points="1402,244.7813,1412,248.7813,1402,252.7813,1406,248.7813" style="stroke:#181818;stroke-width:1.0;"/><line style="stroke:#181818;stroke-width:1.0;" x1="1229" x2="1408" y1="248.7813" y2="248.7813"/><text fill="#000000" font-family="sans-serif" font-size="20" lengthAdjust="spacing" textLength="117" x="1236" y="242.3867">repositories()</text><polygon fill="#181818" points="2324.5,283.9375,2334.5,287.9375,2324.5,291.9375,2328.5,287.9375" style="stroke:#181818;stroke-width:1.0;"/><line style="stroke:#181818;stroke-width:1.0;" x1="1419" x2="2330.5" y1="287.9375" y2="287.9375"/><text fill="#000000" font-family="sans-serif" font-size="20" lengthAdjust="spacing" textLength="100" x="1426" y="281.543">proposals()</text><line style="stroke:#181818;stroke-width:1.0;" x1="2346.5" x2="2388.5" y1="327.0938" y2="327.0938"/><line style="stroke:#181818;stroke-width:1.0;" x1="2388.5" x2="2388.5" y1="327.0938" y2="340.0938"/><line style="stroke:#181818;stroke-width:1.0;" x1="2347.5" x2="2388.5" y1="340.0938" y2="340.0938"/><polygon fill="#181818" points="2357.5,336.0938,2347.5,340.0938,2357.5,344.0938,2353.5,340.0938" style="stroke:#181818;stroke-width:1.0;"/><text fill="#000000" font-family="sans-serif" font-size="20" lengthAdjust="spacing" textLength="243" x="2353.5" y="320.6992">findConfigurableProposals()</text><polygon fill="#181818" points="968.5,375.25,958.5,379.25,968.5,383.25,964.5,379.25" style="stroke:#181818;stroke-width:1.0;"/><line style="stroke:#181818;stroke-width:1.0;stroke-dasharray:2.0,2.0;" x1="962.5" x2="2340.5" y1="379.25" y2="379.25"/><text fill="#000000" font-family="sans-serif" font-size="20" lengthAdjust="spacing" textLength="139" x="974.5" y="372.8555">list of proposals</text><polygon fill="#181818" points="390.5,414.4063,380.5,418.4063,390.5,422.4063,386.5,418.4063" style="stroke:#181818;stroke-width:1.0;"/><line style="stroke:#181818;stroke-width:1.0;stroke-dasharray:2.0,2.0;" x1="384.5" x2="951.5" y1="418.4063" y2="418.4063"/><text fill="#000000" font-family="sans-serif" font-size="20" lengthAdjust="spacing" textLength="86" x="396.5" y="412.0117">proposals</text><polygon fill="#181818" points="88.5,453.5625,78.5,457.5625,88.5,461.5625,84.5,457.5625" style="stroke:#181818;stroke-width:1.0;"/><line style="stroke:#181818;stroke-width:1.0;" x1="82.5" x2="368.5" y1="457.5625" y2="457.5625"/><text fill="#000000" font-family="sans-serif" font-size="20" lengthAdjust="spacing" textLength="268" x="94.5" y="451.168">show proposals and templates</text><polygon fill="#181818" points="357.5,492.7188,367.5,496.7188,357.5,500.7188,361.5,496.7188" style="stroke:#181818;stroke-width:1.0;"/><line style="stroke:#181818;stroke-width:1.0;" x1="77.5" x2="363.5" y1="496.7188" y2="496.7188"/><text fill="#000000" font-family="sans-serif" font-size="20" lengthAdjust="spacing" textLength="254" x="84.5" y="490.3242">select proposal and template</text><polygon fill="#181818" points="935.5,531.875,945.5,535.875,935.5,539.875,939.5,535.875" style="stroke:#181818;stroke-width:1.0;"/><line style="stroke:#181818;stroke-width:1.0;" x1="379.5" x2="941.5" y1="535.875" y2="535.875"/><text fill="#000000" font-family="sans-serif" font-size="20" lengthAdjust="spacing" textLength="549" x="386.5" y="529.4805">configureDocument(proposal, selectedTemplate, crmManager)</text><polygon fill="#181818" points="2591.5,571.0313,2601.5,575.0313,2591.5,579.0313,2595.5,575.0313" style="stroke:#181818;stroke-width:1.0;"/><line style="stroke:#181818;stroke-width:1.0;" x1="957.5" x2="2597.5" y1="575.0313" y2="575.0313"/><text fill="#000000" font-family="sans-serif" font-size="20" lengthAdjust="spacing" textLength="467" x="964.5" y="568.6367">configureDocument(selectedTemplate, crmManager);</text><polygon fill="#181818" points="968.5,610.1875,958.5,614.1875,968.5,618.1875,964.5,614.1875" style="stroke:#181818;stroke-width:1.0;"/><line style="stroke:#181818;stroke-width:1.0;" x1="962.5" x2="2607.5" y1="614.1875" y2="614.1875"/><text fill="#000000" font-family="sans-serif" font-size="20" lengthAdjust="spacing" textLength="235" x="974.5" y="607.793">documentTemplateContent</text><polygon fill="#181818" points="1635,649.3438,1645,653.3438,1635,657.3438,1639,653.3438" style="stroke:#181818;stroke-width:1.0;"/><line style="stroke:#181818;stroke-width:1.0;" x1="957.5" x2="1641" y1="653.3438" y2="653.3438"/><text fill="#000000" font-family="sans-serif" font-size="20" lengthAdjust="spacing" textLength="415" x="964.5" y="646.9492">generateDocument(documentTemplateContent)</text><polygon fill="#181818" points="2071,688.5,2081,692.5,2071,696.5,2075,692.5" style="stroke:#181818;stroke-width:1.0;"/><line style="stroke:#181818;stroke-width:1.0;" x1="1657" x2="2077" y1="692.5" y2="692.5"/><text fill="#000000" font-family="sans-serif" font-size="20" lengthAdjust="spacing" textLength="407" x="1664" y="686.1055">processDocument(documentTemplateContent)</text><polygon fill="#181818" points="1668,727.6563,1658,731.6563,1668,735.6563,1664,731.6563" style="stroke:#181818;stroke-width:1.0;"/><line style="stroke:#181818;stroke-width:1.0;stroke-dasharray:2.0,2.0;" x1="1662" x2="2087" y1="731.6563" y2="731.6563"/><text fill="#000000" font-family="sans-serif" font-size="20" lengthAdjust="spacing" textLength="352" x="1674" y="725.2617">showProposalDocument(content + path)</text><polygon fill="#181818" points="968.5,766.8125,958.5,770.8125,968.5,774.8125,964.5,770.8125" style="stroke:#181818;stroke-width:1.0;"/><line style="stroke:#181818;stroke-width:1.0;stroke-dasharray:2.0,2.0;" x1="962.5" x2="1651" y1="770.8125" y2="770.8125"/><text fill="#000000" font-family="sans-serif" font-size="20" lengthAdjust="spacing" textLength="212" x="974.5" y="764.418">showProposalDocument</text><polygon fill="#181818" points="2591.5,805.9688,2601.5,809.9688,2591.5,813.9688,2595.5,809.9688" style="stroke:#181818;stroke-width:1.0;"/><line style="stroke:#181818;stroke-width:1.0;" x1="957.5" x2="2597.5" y1="809.9688" y2="809.9688"/><text fill="#000000" font-family="sans-serif" font-size="20" lengthAdjust="spacing" textLength="347" x="964.5" y="803.5742">addDocument(showProposalDocument)</text><polygon fill="#181818" points="2324.5,875.125,2334.5,879.125,2324.5,883.125,2328.5,879.125" style="stroke:#181818;stroke-width:1.0;"/><line style="stroke:#181818;stroke-width:1.0;" x1="957.5" x2="2330.5" y1="879.125" y2="879.125"/><text fill="#000000" font-family="sans-serif" font-size="20" lengthAdjust="spacing" textLength="131" x="964.5" y="872.7305">save(proposal)</text><polygon fill="#181818" points="968.5,914.2813,958.5,918.2813,968.5,922.2813,964.5,918.2813" style="stroke:#181818;stroke-width:1.0;"/><line style="stroke:#181818;stroke-width:1.0;stroke-dasharray:2.0,2.0;" x1="962.5" x2="2340.5" y1="918.2813" y2="918.2813"/><text fill="#000000" font-family="sans-serif" font-size="20" lengthAdjust="spacing" textLength="106" x="974.5" y="911.8867">confirmation</text><polygon fill="#181818" points="390.5,953.4375,380.5,957.4375,390.5,961.4375,386.5,957.4375" style="stroke:#181818;stroke-width:1.0;"/><line style="stroke:#181818;stroke-width:1.0;stroke-dasharray:2.0,2.0;" x1="384.5" x2="946.5" y1="957.4375" y2="957.4375"/><text fill="#000000" font-family="sans-serif" font-size="20" lengthAdjust="spacing" textLength="34" x="396.5" y="951.043">true</text><polygon fill="#181818" points="83.5,992.5938,73.5,996.5938,83.5,1000.5938,79.5,996.5938" style="stroke:#181818;stroke-width:1.0;"/><line style="stroke:#181818;stroke-width:1.0;stroke-dasharray:2.0,2.0;" x1="77.5" x2="373.5" y1="996.5938" y2="996.5938"/><text fill="#000000" font-family="sans-serif" font-size="20" lengthAdjust="spacing" textLength="209" x="89.5" y="990.1992">show success message</text><!--SRC=[bLHDRniX4Btlhq0vnMeYLJscKY-fKbbg92jfVW1bnmuA2rjWqwQ_liCth77aNYnOl_Tcc3SpveNBcMew2SLUO2GZxEaYx9sIzf7_1VBfuq2PLPfSt3xSatigwG7q1Q66F1dG0r8jPtocqY92oJq_B1fsMitAKF5LiMK2QP-sWR4z4uz_MAs4Y97AjUNlG1jkB4W63W9_h8TNdrly0s0KZezvk_DlUlFmU5v9hpBw1X8qHPodv5jBMe6vaZkn7BWCMVbZItXyLhzJf9ASXxlhQN1GZ9V1ESHVgONWoU1-oVKNh3Uv8Hf-BM0iiJ3Dmc5OhBfFiA9kaRXrj59kf6VqJv5j-exLlTmKQkNFK95Hgh82jOxzgbLgsuQQY3hH8_-SM2OE1jaZzFdvQt8tAQ2OAoqgpV4rAvb4A1BU2aygv3sNussdD4uiOjUL59WSKViIjuxgOpJ5I_vruNN5WsdUynjYi4aAXL0vPkDDsnS6132RiGtqg15A7q1gyil4l8fICFw8z2l2z1HNnMOugq-YLY_Ek-gVg_x9uv1EHyqyHiqavRjGsgQBiagROHvvb3c4SqdnX6xzzh8oYf9xkDyAmMO6nloFPDmeKU9wbQIfraLMPK65V20pjS_j-0IrEhrr-NgIjKHvumbxKOEEOt6sexVf67g6FN4i3Ns5t9YRxWXt5voUmZOyQoAjNiA4hCREBCnPI2RymUOSJWnizHLtRdr3hNy0]--></g></svg>