<?xml version="1.0" encoding="us-ascii" standalone="no"?><svg xmlns="http://www.w3.org/2000/svg" xmlns:xlink="http://www.w3.org/1999/xlink" contentStyleType="text/css" height="542px" preserveAspectRatio="none" style="width:196px;height:542px;background:#FFFFFF;" version="1.1" viewBox="0 0 196 542" width="196px" zoomAndPan="magnify"><defs/><g><!--class ShowProposal--><g id="elem_ShowProposal"><rect codeLine="5" fill="#F1F1F1" height="76.543" id="ShowProposal" rx="2.5" ry="2.5" style="stroke:#181818;stroke-width:0.5;" width="122" x="21.5" y="7"/><ellipse cx="36.5" cy="37.2715" fill="#ADD1B2" rx="11" ry="11" style="stroke:#181818;stroke-width:1.0;"/><path d="M39.2656,33.1465 Q39.4219,32.9277 39.6094,32.8184 Q39.7969,32.709 40.0156,32.709 Q40.3906,32.709 40.625,32.9746 Q40.8594,33.2246 40.8594,33.834 L40.8594,35.2871 Q40.8594,35.8965 40.625,36.1621 Q40.3906,36.4277 40.0156,36.4277 Q39.6719,36.4277 39.4688,36.2246 Q39.2656,36.0371 39.1563,35.5215 Q39.1094,35.1621 38.9219,34.9746 Q38.5938,34.5996 37.9844,34.3809 Q37.375,34.1621 36.75,34.1621 Q35.9844,34.1621 35.3438,34.4902 Q34.7188,34.8184 34.2188,35.5684 Q33.7344,36.3184 33.7344,37.3496 L33.7344,38.4434 Q33.7344,39.6777 34.625,40.5059 Q35.5156,41.3184 37.1094,41.3184 Q38.0469,41.3184 38.7031,41.0684 Q39.0938,40.9121 39.5156,40.4746 Q39.7813,40.209 39.9219,40.1309 Q40.0781,40.0527 40.2813,40.0527 Q40.6094,40.0527 40.8594,40.3184 Q41.125,40.5684 41.125,40.9121 Q41.125,41.2559 40.7813,41.6621 Q40.2813,42.2402 39.4844,42.5684 Q38.4063,43.0215 37.1094,43.0215 Q35.5938,43.0215 34.3906,42.3965 Q33.4063,41.8965 32.7188,40.834 Q32.0313,39.7559 32.0313,38.4746 L32.0313,37.3184 Q32.0313,35.9902 32.6406,34.8496 Q33.2656,33.6934 34.3594,33.084 Q35.4531,32.459 36.6875,32.459 Q37.4219,32.459 38.0625,32.6309 Q38.7188,32.7871 39.2656,33.1465 Z " fill="#000000"/><text fill="#000000" font-family="sans-serif" font-size="12" font-style="italic" lengthAdjust="spacing" textLength="44" x="73.5" y="24.9492">&#171;Entity&#187;</text><text fill="#000000" font-family="sans-serif" font-size="12" font-style="italic" lengthAdjust="spacing" textLength="35" x="78" y="40.9102">&#171;root&#187;</text><text fill="#000000" font-family="sans-serif" font-size="14" lengthAdjust="spacing" textLength="90" x="50.5" y="59.0293">ShowProposal</text><line style="stroke:#181818;stroke-width:0.5;" x1="22.5" x2="142.5" y1="67.543" y2="67.543"/><line style="stroke:#181818;stroke-width:0.5;" x1="22.5" x2="142.5" y1="75.543" y2="75.543"/></g><!--class ShowConfiguration--><g id="elem_ShowConfiguration"><rect codeLine="8" fill="#F1F1F1" height="60.582" id="ShowConfiguration" rx="2.5" ry="2.5" style="stroke:#181818;stroke-width:0.5;" width="151" x="7" y="163"/><ellipse cx="22" cy="185.291" fill="#ADD1B2" rx="11" ry="11" style="stroke:#181818;stroke-width:1.0;"/><path d="M24.7656,181.166 Q24.9219,180.9473 25.1094,180.8379 Q25.2969,180.7285 25.5156,180.7285 Q25.8906,180.7285 26.125,180.9941 Q26.3594,181.2441 26.3594,181.8535 L26.3594,183.3066 Q26.3594,183.916 26.125,184.1816 Q25.8906,184.4473 25.5156,184.4473 Q25.1719,184.4473 24.9688,184.2441 Q24.7656,184.0566 24.6563,183.541 Q24.6094,183.1816 24.4219,182.9941 Q24.0938,182.6191 23.4844,182.4004 Q22.875,182.1816 22.25,182.1816 Q21.4844,182.1816 20.8438,182.5098 Q20.2188,182.8379 19.7188,183.5879 Q19.2344,184.3379 19.2344,185.3691 L19.2344,186.4629 Q19.2344,187.6973 20.125,188.5254 Q21.0156,189.3379 22.6094,189.3379 Q23.5469,189.3379 24.2031,189.0879 Q24.5938,188.9316 25.0156,188.4941 Q25.2813,188.2285 25.4219,188.1504 Q25.5781,188.0723 25.7813,188.0723 Q26.1094,188.0723 26.3594,188.3379 Q26.625,188.5879 26.625,188.9316 Q26.625,189.2754 26.2813,189.6816 Q25.7813,190.2598 24.9844,190.5879 Q23.9063,191.041 22.6094,191.041 Q21.0938,191.041 19.8906,190.416 Q18.9063,189.916 18.2188,188.8535 Q17.5313,187.7754 17.5313,186.4941 L17.5313,185.3379 Q17.5313,184.0098 18.1406,182.8691 Q18.7656,181.7129 19.8594,181.1035 Q20.9531,180.4785 22.1875,180.4785 Q22.9219,180.4785 23.5625,180.6504 Q24.2188,180.8066 24.7656,181.166 Z " fill="#000000"/><text fill="#000000" font-family="sans-serif" font-size="12" font-style="italic" lengthAdjust="spacing" textLength="44" x="73.5" y="180.9492">&#171;Entity&#187;</text><text fill="#000000" font-family="sans-serif" font-size="14" lengthAdjust="spacing" textLength="119" x="36" y="199.0684">ShowConfiguration</text><line style="stroke:#181818;stroke-width:0.5;" x1="8" x2="157" y1="207.582" y2="207.582"/><line style="stroke:#181818;stroke-width:0.5;" x1="8" x2="157" y1="215.582" y2="215.582"/></g><!--class Drone--><g id="elem_Drone"><rect codeLine="11" fill="#F1F1F1" height="76.543" id="Drone" rx="2.5" ry="2.5" style="stroke:#181818;stroke-width:0.5;" width="72" x="46.5" y="303"/><ellipse cx="61.5" cy="333.2715" fill="#ADD1B2" rx="11" ry="11" style="stroke:#181818;stroke-width:1.0;"/><path d="M64.2656,329.1465 Q64.4219,328.9277 64.6094,328.8184 Q64.7969,328.709 65.0156,328.709 Q65.3906,328.709 65.625,328.9746 Q65.8594,329.2246 65.8594,329.834 L65.8594,331.2871 Q65.8594,331.8965 65.625,332.1621 Q65.3906,332.4277 65.0156,332.4277 Q64.6719,332.4277 64.4688,332.2246 Q64.2656,332.0371 64.1563,331.5215 Q64.1094,331.1621 63.9219,330.9746 Q63.5938,330.5996 62.9844,330.3809 Q62.375,330.1621 61.75,330.1621 Q60.9844,330.1621 60.3438,330.4902 Q59.7188,330.8184 59.2188,331.5684 Q58.7344,332.3184 58.7344,333.3496 L58.7344,334.4434 Q58.7344,335.6777 59.625,336.5059 Q60.5156,337.3184 62.1094,337.3184 Q63.0469,337.3184 63.7031,337.0684 Q64.0938,336.9121 64.5156,336.4746 Q64.7813,336.209 64.9219,336.1309 Q65.0781,336.0527 65.2813,336.0527 Q65.6094,336.0527 65.8594,336.3184 Q66.125,336.5684 66.125,336.9121 Q66.125,337.2559 65.7813,337.6621 Q65.2813,338.2402 64.4844,338.5684 Q63.4063,339.0215 62.1094,339.0215 Q60.5938,339.0215 59.3906,338.3965 Q58.4063,337.8965 57.7188,336.834 Q57.0313,335.7559 57.0313,334.4746 L57.0313,333.3184 Q57.0313,331.9902 57.6406,330.8496 Q58.2656,329.6934 59.3594,329.084 Q60.4531,328.459 61.6875,328.459 Q62.4219,328.459 63.0625,328.6309 Q63.7188,328.7871 64.2656,329.1465 Z " fill="#000000"/><text fill="#000000" font-family="sans-serif" font-size="12" font-style="italic" lengthAdjust="spacing" textLength="44" x="73.5" y="320.9492">&#171;Entity&#187;</text><text fill="#000000" font-family="sans-serif" font-size="12" font-style="italic" lengthAdjust="spacing" textLength="35" x="78" y="336.9102">&#171;root&#187;</text><text fill="#000000" font-family="sans-serif" font-size="14" lengthAdjust="spacing" textLength="39" x="76" y="355.0293">Drone</text><line style="stroke:#181818;stroke-width:0.5;" x1="47.5" x2="117.5" y1="363.543" y2="363.543"/><line style="stroke:#181818;stroke-width:0.5;" x1="47.5" x2="117.5" y1="371.543" y2="371.543"/></g><!--class Model--><g id="elem_Model"><rect codeLine="14" fill="#F1F1F1" height="76.543" id="Model" rx="2.5" ry="2.5" style="stroke:#181818;stroke-width:0.5;" width="72" x="46.5" y="459"/><ellipse cx="61.5" cy="489.2715" fill="#ADD1B2" rx="11" ry="11" style="stroke:#181818;stroke-width:1.0;"/><path d="M64.2656,485.1465 Q64.4219,484.9277 64.6094,484.8184 Q64.7969,484.709 65.0156,484.709 Q65.3906,484.709 65.625,484.9746 Q65.8594,485.2246 65.8594,485.834 L65.8594,487.2871 Q65.8594,487.8965 65.625,488.1621 Q65.3906,488.4277 65.0156,488.4277 Q64.6719,488.4277 64.4688,488.2246 Q64.2656,488.0371 64.1563,487.5215 Q64.1094,487.1621 63.9219,486.9746 Q63.5938,486.5996 62.9844,486.3809 Q62.375,486.1621 61.75,486.1621 Q60.9844,486.1621 60.3438,486.4902 Q59.7188,486.8184 59.2188,487.5684 Q58.7344,488.3184 58.7344,489.3496 L58.7344,490.4434 Q58.7344,491.6777 59.625,492.5059 Q60.5156,493.3184 62.1094,493.3184 Q63.0469,493.3184 63.7031,493.0684 Q64.0938,492.9121 64.5156,492.4746 Q64.7813,492.209 64.9219,492.1309 Q65.0781,492.0527 65.2813,492.0527 Q65.6094,492.0527 65.8594,492.3184 Q66.125,492.5684 66.125,492.9121 Q66.125,493.2559 65.7813,493.6621 Q65.2813,494.2402 64.4844,494.5684 Q63.4063,495.0215 62.1094,495.0215 Q60.5938,495.0215 59.3906,494.3965 Q58.4063,493.8965 57.7188,492.834 Q57.0313,491.7559 57.0313,490.4746 L57.0313,489.3184 Q57.0313,487.9902 57.6406,486.8496 Q58.2656,485.6934 59.3594,485.084 Q60.4531,484.459 61.6875,484.459 Q62.4219,484.459 63.0625,484.6309 Q63.7188,484.7871 64.2656,485.1465 Z " fill="#000000"/><text fill="#000000" font-family="sans-serif" font-size="12" font-style="italic" lengthAdjust="spacing" textLength="44" x="73.5" y="476.9492">&#171;Entity&#187;</text><text fill="#000000" font-family="sans-serif" font-size="12" font-style="italic" lengthAdjust="spacing" textLength="35" x="78" y="492.9102">&#171;root&#187;</text><text fill="#000000" font-family="sans-serif" font-size="14" lengthAdjust="spacing" textLength="38" x="76.5" y="511.0293">Model</text><line style="stroke:#181818;stroke-width:0.5;" x1="47.5" x2="117.5" y1="519.543" y2="519.543"/><line style="stroke:#181818;stroke-width:0.5;" x1="47.5" x2="117.5" y1="527.543" y2="527.543"/></g><!--link ShowProposal to ShowConfiguration--><g id="link_ShowProposal_ShowConfiguration"><path codeLine="18" d="M82.5,84.1 C82.5,108.6 82.5,134.12 82.5,156.85 " fill="none" id="ShowProposal-to-ShowConfiguration" style="stroke:#181818;stroke-width:1.0;"/><polygon fill="#181818" points="82.5,162.85,86.5,153.85,82.5,157.85,78.5,153.85,82.5,162.85" style="stroke:#181818;stroke-width:1.0;"/><text fill="#000000" font-family="sans-serif" font-size="13" lengthAdjust="spacing" textLength="105" x="83.5" y="129.0283">showConfiguration</text><text fill="#000000" font-family="sans-serif" font-size="13" lengthAdjust="spacing" textLength="7" x="74.7781" y="151.8767">1</text></g><!--link Drone to Model--><g id="link_Drone_Model"><path codeLine="19" d="M82.5,380.17 C82.5,404.13 82.5,429.02 82.5,452.95 " fill="none" id="Drone-to-Model" style="stroke:#181818;stroke-width:1.0;"/><polygon fill="#181818" points="82.5,458.95,86.5,449.95,82.5,453.95,78.5,449.95,82.5,458.95" style="stroke:#181818;stroke-width:1.0;"/><text fill="#000000" font-family="sans-serif" font-size="13" lengthAdjust="spacing" textLength="35" x="83.5" y="425.0283">model</text><text fill="#000000" font-family="sans-serif" font-size="13" lengthAdjust="spacing" textLength="7" x="74.8766" y="447.6642">1</text></g><!--link ShowConfiguration to Drone--><g id="link_ShowConfiguration_Drone"><path codeLine="20" d="M82.5,224.05 C82.5,246.79 82.5,272.39 82.5,296.93 " fill="none" id="ShowConfiguration-to-Drone" style="stroke:#181818;stroke-width:1.0;"/><polygon fill="#181818" points="82.5,302.93,86.5,293.93,82.5,297.93,78.5,293.93,82.5,302.93" style="stroke:#181818;stroke-width:1.0;"/><text fill="#000000" font-family="sans-serif" font-size="13" lengthAdjust="spacing" textLength="32" x="83.5" y="269.0283">drone</text><text fill="#000000" font-family="sans-serif" font-size="13" lengthAdjust="spacing" textLength="20" x="60.7188" y="291.6406">1..*</text></g><!--SRC=[ZO_12i8m343l-ugmoq3OXjSoUb6FWk0NbAtEGjlCDaD5_7Sxky6c2EQIqBoN9jcPgFEiB3ijBFL65pMQqijBBsqjyqQ9rWcJX02ejV0UZcUy7Xnsw8M6gjfPKdJdF9GEaJX_11BWEGWpOuFsfDhU2L9ePrgab_pMePM_Hq_mXE-naVeFF8jWpk4sDXQdvA6HhjFlRHdupwVHZujEudiy0pEasGVBooDS5AiqsWoQ8IN92m00]--></g></svg>