<?xml version="1.0" encoding="UTF-8" standalone="no"?><svg xmlns="http://www.w3.org/2000/svg" xmlns:xlink="http://www.w3.org/1999/xlink" contentStyleType="text/css" height="2391px" preserveAspectRatio="none" style="width:2704px;height:2391px;background:#FFFFFF;" version="1.1" viewBox="0 0 2704 2391" width="2704px" zoomAndPan="magnify"><defs/><g><rect fill="#FFFFFF" height="2183.4375" style="stroke:#181818;stroke-width:1.0;" width="10" x="97.5" y="100.1563"/><rect fill="#FFFFFF" height="430.7188" style="stroke:#181818;stroke-width:1.0;" width="10" x="623.5" y="131.3125"/><rect fill="#FFFFFF" height="475.0313" style="stroke:#181818;stroke-width:1.0;" width="10" x="623.5" y="601.1875"/><rect fill="#FFFFFF" height="39.1563" style="stroke:#181818;stroke-width:1.0;" width="10" x="623.5" y="1115.375"/><rect fill="#FFFFFF" height="150.4688" style="stroke:#181818;stroke-width:1.0;" width="10" x="623.5" y="1193.6875"/><rect fill="#FFFFFF" height="50.1563" style="stroke:#181818;stroke-width:1.0;" width="10" x="628.5" y="1240.8438"/><rect fill="#FFFFFF" height="900.2813" style="stroke:#181818;stroke-width:1.0;" width="10" x="623.5" y="1383.3125"/><rect fill="#FFFFFF" height="352.4063" style="stroke:#181818;stroke-width:1.0;" width="10" x="1068.5" y="170.4688"/><rect fill="#FFFFFF" height="352.4063" style="stroke:#181818;stroke-width:1.0;" width="10" x="1068.5" y="684.6563"/><rect fill="#FFFFFF" height="821.9688" style="stroke:#181818;stroke-width:1.0;" width="10" x="1068.5" y="1422.4688"/><rect fill="#FFFFFF" height="285.0938" style="stroke:#181818;stroke-width:1.0;" width="10" x="1073.5" y="1469.625"/><rect fill="#FFFFFF" height="311.0938" style="stroke:#181818;stroke-width:1.0;" width="10" x="1073.5" y="1808.875"/><rect fill="#FFFFFF" height="50.1563" style="stroke:#181818;stroke-width:1.0;" width="10" x="1078.5" y="2017.6563"/><rect fill="#FFFFFF" height="39.1563" style="stroke:#181818;stroke-width:1.0;" width="10" x="1508.5" y="209.625"/><rect fill="#FFFFFF" height="39.1563" style="stroke:#181818;stroke-width:1.0;" width="10" x="1508.5" y="723.8125"/><rect fill="#FFFFFF" height="39.1563" style="stroke:#181818;stroke-width:1.0;" width="10" x="1508.5" y="1513.7813"/><rect fill="#FFFFFF" height="39.1563" style="stroke:#181818;stroke-width:1.0;" width="10" x="1671" y="287.9375"/><rect fill="#FFFFFF" height="39.1563" style="stroke:#181818;stroke-width:1.0;" width="10" x="1671" y="802.125"/><rect fill="#FFFFFF" height="39.1563" style="stroke:#181818;stroke-width:1.0;" width="10" x="1671" y="1592.0938"/><rect fill="#FFFFFF" height="39.1563" style="stroke:#181818;stroke-width:1.0;" width="10" x="1866" y="366.25"/><rect fill="#FFFFFF" height="39.1563" style="stroke:#181818;stroke-width:1.0;" width="10" x="1866" y="880.4375"/><rect fill="#FFFFFF" height="39.1563" style="stroke:#181818;stroke-width:1.0;" width="10" x="1866" y="1670.4063"/><rect fill="#FFFFFF" height="39.1563" style="stroke:#181818;stroke-width:1.0;" width="10" x="2091" y="444.5625"/><rect fill="#FFFFFF" height="39.1563" style="stroke:#181818;stroke-width:1.0;" width="10" x="2091" y="2166.125"/><rect fill="#FFFFFF" height="39.1563" style="stroke:#181818;stroke-width:1.0;" width="10" x="2306.5" y="958.75"/><rect fill="#FFFFFF" height="39.1563" style="stroke:#181818;stroke-width:1.0;" width="10" x="2468.5" y="1853.0313"/><rect fill="#FFFFFF" height="39.1563" style="stroke:#181818;stroke-width:1.0;" width="10" x="2619.5" y="1931.3438"/><rect fill="none" height="689.8125" style="stroke:#000000;stroke-width:1.5;" width="2396" x="10" y="616.1875"/><line style="stroke:#181818;stroke-width:0.5;stroke-dasharray:5.0,5.0;" x1="102" x2="102" y1="90.1563" y2="2301.5938"/><line style="stroke:#181818;stroke-width:0.5;stroke-dasharray:5.0,5.0;" x1="628.5" x2="628.5" y1="90.1563" y2="2301.5938"/><line style="stroke:#181818;stroke-width:0.5;stroke-dasharray:5.0,5.0;" x1="1073.5" x2="1073.5" y1="90.1563" y2="2301.5938"/><line style="stroke:#181818;stroke-width:0.5;stroke-dasharray:5.0,5.0;" x1="1513" x2="1513" y1="90.1563" y2="2301.5938"/><line style="stroke:#181818;stroke-width:0.5;stroke-dasharray:5.0,5.0;" x1="1676" x2="1676" y1="90.1563" y2="2301.5938"/><line style="stroke:#181818;stroke-width:0.5;stroke-dasharray:5.0,5.0;" x1="1871" x2="1871" y1="90.1563" y2="2301.5938"/><line style="stroke:#181818;stroke-width:0.5;stroke-dasharray:5.0,5.0;" x1="2096" x2="2096" y1="90.1563" y2="2301.5938"/><line style="stroke:#181818;stroke-width:0.5;stroke-dasharray:5.0,5.0;" x1="2311" x2="2311" y1="90.1563" y2="2301.5938"/><line style="stroke:#181818;stroke-width:0.5;stroke-dasharray:5.0,5.0;" x1="2473" x2="2473" y1="90.1563" y2="2301.5938"/><line style="stroke:#181818;stroke-width:0.5;stroke-dasharray:5.0,5.0;" x1="2624" x2="2624" y1="90.1563" y2="2301.5938"/><text fill="#000000" font-family="sans-serif" font-size="20" lengthAdjust="spacing" textLength="159" x="20" y="85.7617">CRM Collaborator</text><ellipse cx="102.5" cy="13.5" fill="#E2E2F0" rx="8" ry="8" style="stroke:#181818;stroke-width:0.5;"/><path d="M102.5,21.5 L102.5,48.5 M89.5,29.5 L115.5,29.5 M102.5,48.5 L89.5,63.5 M102.5,48.5 L115.5,63.5 " fill="none" style="stroke:#181818;stroke-width:0.5;"/><text fill="#000000" font-family="sans-serif" font-size="20" lengthAdjust="spacing" textLength="159" x="20" y="2321.3555">CRM Collaborator</text><ellipse cx="102.5" cy="2334.25" fill="#E2E2F0" rx="8" ry="8" style="stroke:#181818;stroke-width:0.5;"/><path d="M102.5,2342.25 L102.5,2369.25 M89.5,2350.25 L115.5,2350.25 M102.5,2369.25 L89.5,2384.25 M102.5,2369.25 L115.5,2384.25 " fill="none" style="stroke:#181818;stroke-width:0.5;"/><rect fill="#E2E2F0" height="39.1563" rx="2.5" ry="2.5" style="stroke:#181818;stroke-width:0.5;" width="186" x="535.5" y="50"/><text fill="#000000" font-family="sans-serif" font-size="20" lengthAdjust="spacing" textLength="172" x="542.5" y="77.7617">:ConfigShowPropUI</text><rect fill="#E2E2F0" height="39.1563" rx="2.5" ry="2.5" style="stroke:#181818;stroke-width:0.5;" width="186" x="535.5" y="2300.5938"/><text fill="#000000" font-family="sans-serif" font-size="20" lengthAdjust="spacing" textLength="172" x="542.5" y="2328.3555">:ConfigShowPropUI</text><rect fill="#E2E2F0" height="39.1563" rx="2.5" ry="2.5" style="stroke:#181818;stroke-width:0.5;" width="252" x="947.5" y="50"/><text fill="#000000" font-family="sans-serif" font-size="20" lengthAdjust="spacing" textLength="238" x="954.5" y="77.7617">:ConfigShowPropController</text><rect fill="#E2E2F0" height="39.1563" rx="2.5" ry="2.5" style="stroke:#181818;stroke-width:0.5;" width="252" x="947.5" y="2300.5938"/><text fill="#000000" font-family="sans-serif" font-size="20" lengthAdjust="spacing" textLength="238" x="954.5" y="2328.3555">:ConfigShowPropController</text><rect fill="#E2E2F0" height="39.1563" rx="2.5" ry="2.5" style="stroke:#181818;stroke-width:0.5;" width="123" x="1452" y="50"/><text fill="#000000" font-family="sans-serif" font-size="20" lengthAdjust="spacing" textLength="109" x="1459" y="77.7617">:Persistence</text><rect fill="#E2E2F0" height="39.1563" rx="2.5" ry="2.5" style="stroke:#181818;stroke-width:0.5;" width="123" x="1452" y="2300.5938"/><text fill="#000000" font-family="sans-serif" font-size="20" lengthAdjust="spacing" textLength="109" x="1459" y="2328.3555">:Persistence</text><rect fill="#E2E2F0" height="39.1563" rx="2.5" ry="2.5" style="stroke:#181818;stroke-width:0.5;" width="182" x="1585" y="50"/><text fill="#000000" font-family="sans-serif" font-size="20" lengthAdjust="spacing" textLength="168" x="1592" y="77.7617">:RepositoryFactory</text><rect fill="#E2E2F0" height="39.1563" rx="2.5" ry="2.5" style="stroke:#181818;stroke-width:0.5;" width="182" x="1585" y="2300.5938"/><text fill="#000000" font-family="sans-serif" font-size="20" lengthAdjust="spacing" textLength="168" x="1592" y="2328.3555">:RepositoryFactory</text><rect fill="#E2E2F0" height="64.3125" rx="2.5" ry="2.5" style="stroke:#181818;stroke-width:0.5;" width="188" x="1777" y="24.8438"/><text fill="#000000" font-family="sans-serif" font-size="20" lengthAdjust="spacing" textLength="161" x="1790.5" y="52.6055">:repositoryFactory</text><text fill="#000000" font-family="sans-serif" font-size="20" lengthAdjust="spacing" textLength="174" x="1784" y="77.7617">::RepositoryFactory</text><rect fill="#E2E2F0" height="64.3125" rx="2.5" ry="2.5" style="stroke:#181818;stroke-width:0.5;" width="188" x="1777" y="2300.5938"/><text fill="#000000" font-family="sans-serif" font-size="20" lengthAdjust="spacing" textLength="161" x="1790.5" y="2328.3555">:repositoryFactory</text><text fill="#000000" font-family="sans-serif" font-size="20" lengthAdjust="spacing" textLength="174" x="1784" y="2353.5117">::RepositoryFactory</text><rect fill="#E2E2F0" height="64.3125" rx="2.5" ry="2.5" style="stroke:#181818;stroke-width:0.5;" width="242" x="1975" y="24.8438"/><text fill="#000000" font-family="sans-serif" font-size="20" lengthAdjust="spacing" textLength="219" x="1986.5" y="52.6055">showProposalRepository</text><text fill="#000000" font-family="sans-serif" font-size="20" lengthAdjust="spacing" textLength="228" x="1982" y="77.7617">:ShowProposalRepository</text><rect fill="#E2E2F0" height="64.3125" rx="2.5" ry="2.5" style="stroke:#181818;stroke-width:0.5;" width="242" x="1975" y="2300.5938"/><text fill="#000000" font-family="sans-serif" font-size="20" lengthAdjust="spacing" textLength="219" x="1986.5" y="2328.3555">showProposalRepository</text><text fill="#000000" font-family="sans-serif" font-size="20" lengthAdjust="spacing" textLength="228" x="1982" y="2353.5117">:ShowProposalRepository</text><rect fill="#E2E2F0" height="64.3125" rx="2.5" ry="2.5" style="stroke:#181818;stroke-width:0.5;" width="169" x="2227" y="24.8438"/><text fill="#000000" font-family="sans-serif" font-size="20" lengthAdjust="spacing" textLength="148" x="2237.5" y="52.6055">modelRepository</text><text fill="#000000" font-family="sans-serif" font-size="20" lengthAdjust="spacing" textLength="155" x="2234" y="77.7617">:ModelRepository</text><rect fill="#E2E2F0" height="64.3125" rx="2.5" ry="2.5" style="stroke:#181818;stroke-width:0.5;" width="169" x="2227" y="2300.5938"/><text fill="#000000" font-family="sans-serif" font-size="20" lengthAdjust="spacing" textLength="148" x="2237.5" y="2328.3555">modelRepository</text><text fill="#000000" font-family="sans-serif" font-size="20" lengthAdjust="spacing" textLength="155" x="2234" y="2353.5117">:ModelRepository</text><rect fill="#E2E2F0" height="64.3125" rx="2.5" ry="2.5" style="stroke:#181818;stroke-width:0.5;" width="135" x="2406" y="24.8438"/><text fill="#000000" font-family="sans-serif" font-size="20" lengthAdjust="spacing" textLength="111" x="2418" y="52.6055">configuration</text><text fill="#000000" font-family="sans-serif" font-size="20" lengthAdjust="spacing" textLength="121" x="2413" y="77.7617">:Configuration</text><rect fill="#E2E2F0" height="64.3125" rx="2.5" ry="2.5" style="stroke:#181818;stroke-width:0.5;" width="135" x="2406" y="2300.5938"/><text fill="#000000" font-family="sans-serif" font-size="20" lengthAdjust="spacing" textLength="111" x="2418" y="2328.3555">configuration</text><text fill="#000000" font-family="sans-serif" font-size="20" lengthAdjust="spacing" textLength="121" x="2413" y="2353.5117">:Configuration</text><rect fill="#E2E2F0" height="64.3125" rx="2.5" ry="2.5" style="stroke:#181818;stroke-width:0.5;" width="147" x="2551" y="24.8438"/><text fill="#000000" font-family="sans-serif" font-size="20" lengthAdjust="spacing" textLength="124" x="2562.5" y="52.6055">showProposal</text><text fill="#000000" font-family="sans-serif" font-size="20" lengthAdjust="spacing" textLength="133" x="2558" y="77.7617">:ShowProposal</text><rect fill="#E2E2F0" height="64.3125" rx="2.5" ry="2.5" style="stroke:#181818;stroke-width:0.5;" width="147" x="2551" y="2300.5938"/><text fill="#000000" font-family="sans-serif" font-size="20" lengthAdjust="spacing" textLength="124" x="2562.5" y="2328.3555">showProposal</text><text fill="#000000" font-family="sans-serif" font-size="20" lengthAdjust="spacing" textLength="133" x="2558" y="2353.5117">:ShowProposal</text><rect fill="#FFFFFF" height="2183.4375" style="stroke:#181818;stroke-width:1.0;" width="10" x="97.5" y="100.1563"/><rect fill="#FFFFFF" height="430.7188" style="stroke:#181818;stroke-width:1.0;" width="10" x="623.5" y="131.3125"/><rect fill="#FFFFFF" height="475.0313" style="stroke:#181818;stroke-width:1.0;" width="10" x="623.5" y="601.1875"/><rect fill="#FFFFFF" height="39.1563" style="stroke:#181818;stroke-width:1.0;" width="10" x="623.5" y="1115.375"/><rect fill="#FFFFFF" height="150.4688" style="stroke:#181818;stroke-width:1.0;" width="10" x="623.5" y="1193.6875"/><rect fill="#FFFFFF" height="50.1563" style="stroke:#181818;stroke-width:1.0;" width="10" x="628.5" y="1240.8438"/><rect fill="#FFFFFF" height="900.2813" style="stroke:#181818;stroke-width:1.0;" width="10" x="623.5" y="1383.3125"/><rect fill="#FFFFFF" height="352.4063" style="stroke:#181818;stroke-width:1.0;" width="10" x="1068.5" y="170.4688"/><rect fill="#FFFFFF" height="352.4063" style="stroke:#181818;stroke-width:1.0;" width="10" x="1068.5" y="684.6563"/><rect fill="#FFFFFF" height="821.9688" style="stroke:#181818;stroke-width:1.0;" width="10" x="1068.5" y="1422.4688"/><rect fill="#FFFFFF" height="285.0938" style="stroke:#181818;stroke-width:1.0;" width="10" x="1073.5" y="1469.625"/><rect fill="#FFFFFF" height="311.0938" style="stroke:#181818;stroke-width:1.0;" width="10" x="1073.5" y="1808.875"/><rect fill="#FFFFFF" height="50.1563" style="stroke:#181818;stroke-width:1.0;" width="10" x="1078.5" y="2017.6563"/><rect fill="#FFFFFF" height="39.1563" style="stroke:#181818;stroke-width:1.0;" width="10" x="1508.5" y="209.625"/><rect fill="#FFFFFF" height="39.1563" style="stroke:#181818;stroke-width:1.0;" width="10" x="1508.5" y="723.8125"/><rect fill="#FFFFFF" height="39.1563" style="stroke:#181818;stroke-width:1.0;" width="10" x="1508.5" y="1513.7813"/><rect fill="#FFFFFF" height="39.1563" style="stroke:#181818;stroke-width:1.0;" width="10" x="1671" y="287.9375"/><rect fill="#FFFFFF" height="39.1563" style="stroke:#181818;stroke-width:1.0;" width="10" x="1671" y="802.125"/><rect fill="#FFFFFF" height="39.1563" style="stroke:#181818;stroke-width:1.0;" width="10" x="1671" y="1592.0938"/><rect fill="#FFFFFF" height="39.1563" style="stroke:#181818;stroke-width:1.0;" width="10" x="1866" y="366.25"/><rect fill="#FFFFFF" height="39.1563" style="stroke:#181818;stroke-width:1.0;" width="10" x="1866" y="880.4375"/><rect fill="#FFFFFF" height="39.1563" style="stroke:#181818;stroke-width:1.0;" width="10" x="1866" y="1670.4063"/><rect fill="#FFFFFF" height="39.1563" style="stroke:#181818;stroke-width:1.0;" width="10" x="2091" y="444.5625"/><rect fill="#FFFFFF" height="39.1563" style="stroke:#181818;stroke-width:1.0;" width="10" x="2091" y="2166.125"/><rect fill="#FFFFFF" height="39.1563" style="stroke:#181818;stroke-width:1.0;" width="10" x="2306.5" y="958.75"/><rect fill="#FFFFFF" height="39.1563" style="stroke:#181818;stroke-width:1.0;" width="10" x="2468.5" y="1853.0313"/><rect fill="#FFFFFF" height="39.1563" style="stroke:#181818;stroke-width:1.0;" width="10" x="2619.5" y="1931.3438"/><polygon fill="#181818" points="611.5,127.3125,621.5,131.3125,611.5,135.3125,615.5,131.3125" style="stroke:#181818;stroke-width:1.0;"/><line style="stroke:#181818;stroke-width:1.0;" x1="107.5" x2="617.5" y1="131.3125" y2="131.3125"/><text fill="#000000" font-family="sans-serif" font-size="20" font-weight="bold" lengthAdjust="spacing" textLength="11" x="114.5" y="124.918">1</text><text fill="#000000" font-family="sans-serif" font-size="20" lengthAdjust="spacing" textLength="478" x="129.5" y="124.918">requests to configure the drone list of a show proposal</text><polygon fill="#181818" points="1056.5,166.4688,1066.5,170.4688,1056.5,174.4688,1060.5,170.4688" style="stroke:#181818;stroke-width:1.0;"/><line style="stroke:#181818;stroke-width:1.0;" x1="633.5" x2="1062.5" y1="170.4688" y2="170.4688"/><text fill="#000000" font-family="sans-serif" font-size="20" font-weight="bold" lengthAdjust="spacing" textLength="11" x="640.5" y="164.0742">2</text><text fill="#000000" font-family="sans-serif" font-size="20" lengthAdjust="spacing" textLength="200" x="655.5" y="164.0742">getShowProposalList()</text><polygon fill="#181818" points="1496.5,205.625,1506.5,209.625,1496.5,213.625,1500.5,209.625" style="stroke:#181818;stroke-width:1.0;"/><line style="stroke:#181818;stroke-width:1.0;stroke-dasharray:2.0,2.0;" x1="1078.5" x2="1502.5" y1="209.625" y2="209.625"/><text fill="#000000" font-family="sans-serif" font-size="20" font-weight="bold" lengthAdjust="spacing" textLength="11" x="1085.5" y="203.2305">3</text><text fill="#000000" font-family="sans-serif" font-size="20" lengthAdjust="spacing" textLength="204" x="1100.5" y="203.2305">getRepositoryFactory()</text><polygon fill="#181818" points="1089.5,244.7813,1079.5,248.7813,1089.5,252.7813,1085.5,248.7813" style="stroke:#181818;stroke-width:1.0;"/><line style="stroke:#181818;stroke-width:1.0;stroke-dasharray:2.0,2.0;" x1="1083.5" x2="1512.5" y1="248.7813" y2="248.7813"/><text fill="#000000" font-family="sans-serif" font-size="20" font-weight="bold" lengthAdjust="spacing" textLength="11" x="1095.5" y="242.3867">4</text><text fill="#000000" font-family="sans-serif" font-size="20" lengthAdjust="spacing" textLength="155" x="1110.5" y="242.3867">repositoryFactory</text><polygon fill="#181818" points="1659,283.9375,1669,287.9375,1659,291.9375,1663,287.9375" style="stroke:#181818;stroke-width:1.0;"/><line style="stroke:#181818;stroke-width:1.0;" x1="1078.5" x2="1665" y1="287.9375" y2="287.9375"/><text fill="#000000" font-family="sans-serif" font-size="20" font-weight="bold" lengthAdjust="spacing" textLength="11" x="1085.5" y="281.543">5</text><text fill="#000000" font-family="sans-serif" font-size="20" lengthAdjust="spacing" textLength="116" x="1100.5" y="281.543">getInstance()</text><polygon fill="#181818" points="1089.5,323.0938,1079.5,327.0938,1089.5,331.0938,1085.5,327.0938" style="stroke:#181818;stroke-width:1.0;"/><line style="stroke:#181818;stroke-width:1.0;stroke-dasharray:2.0,2.0;" x1="1083.5" x2="1675" y1="327.0938" y2="327.0938"/><text fill="#000000" font-family="sans-serif" font-size="20" font-weight="bold" lengthAdjust="spacing" textLength="11" x="1095.5" y="320.6992">6</text><text fill="#000000" font-family="sans-serif" font-size="20" lengthAdjust="spacing" textLength="103" x="1110.5" y="320.6992">repositories</text><polygon fill="#181818" points="1854,362.25,1864,366.25,1854,370.25,1858,366.25" style="stroke:#181818;stroke-width:1.0;"/><line style="stroke:#181818;stroke-width:1.0;" x1="1078.5" x2="1860" y1="366.25" y2="366.25"/><text fill="#000000" font-family="sans-serif" font-size="20" font-weight="bold" lengthAdjust="spacing" textLength="11" x="1085.5" y="359.8555">7</text><text fill="#000000" font-family="sans-serif" font-size="20" lengthAdjust="spacing" textLength="191" x="1100.5" y="359.8555">getModelRepository()</text><polygon fill="#181818" points="1089.5,401.4063,1079.5,405.4063,1089.5,409.4063,1085.5,405.4063" style="stroke:#181818;stroke-width:1.0;"/><line style="stroke:#181818;stroke-width:1.0;stroke-dasharray:2.0,2.0;" x1="1083.5" x2="1870" y1="405.4063" y2="405.4063"/><text fill="#000000" font-family="sans-serif" font-size="20" font-weight="bold" lengthAdjust="spacing" textLength="11" x="1095.5" y="399.0117">8</text><text fill="#000000" font-family="sans-serif" font-size="20" lengthAdjust="spacing" textLength="148" x="1110.5" y="399.0117">modelRepository</text><polygon fill="#181818" points="2079,440.5625,2089,444.5625,2079,448.5625,2083,444.5625" style="stroke:#181818;stroke-width:1.0;"/><line style="stroke:#181818;stroke-width:1.0;" x1="1078.5" x2="2085" y1="444.5625" y2="444.5625"/><text fill="#000000" font-family="sans-serif" font-size="20" font-weight="bold" lengthAdjust="spacing" textLength="11" x="1085.5" y="438.168">9</text><text fill="#000000" font-family="sans-serif" font-size="20" lengthAdjust="spacing" textLength="200" x="1100.5" y="438.168">getShowProposalList()</text><polygon fill="#181818" points="1089.5,479.7188,1079.5,483.7188,1089.5,487.7188,1085.5,483.7188" style="stroke:#181818;stroke-width:1.0;"/><line style="stroke:#181818;stroke-width:1.0;stroke-dasharray:2.0,2.0;" x1="1083.5" x2="2095" y1="483.7188" y2="483.7188"/><text fill="#000000" font-family="sans-serif" font-size="20" font-weight="bold" lengthAdjust="spacing" textLength="22" x="1095.5" y="477.3242">10</text><text fill="#000000" font-family="sans-serif" font-size="20" lengthAdjust="spacing" textLength="155" x="1121.5" y="477.3242">showProposalList</text><polygon fill="#181818" points="644.5,518.875,634.5,522.875,644.5,526.875,640.5,522.875" style="stroke:#181818;stroke-width:1.0;"/><line style="stroke:#181818;stroke-width:1.0;stroke-dasharray:2.0,2.0;" x1="638.5" x2="1072.5" y1="522.875" y2="522.875"/><text fill="#000000" font-family="sans-serif" font-size="20" font-weight="bold" lengthAdjust="spacing" textLength="22" x="650.5" y="516.4805">11</text><text fill="#000000" font-family="sans-serif" font-size="20" lengthAdjust="spacing" textLength="155" x="676.5" y="516.4805">showProposalList</text><polygon fill="#181818" points="118.5,558.0313,108.5,562.0313,118.5,566.0313,114.5,562.0313" style="stroke:#181818;stroke-width:1.0;"/><line style="stroke:#181818;stroke-width:1.0;stroke-dasharray:2.0,2.0;" x1="112.5" x2="627.5" y1="562.0313" y2="562.0313"/><text fill="#000000" font-family="sans-serif" font-size="20" font-weight="bold" lengthAdjust="spacing" textLength="22" x="124.5" y="555.6367">12</text><text fill="#000000" font-family="sans-serif" font-size="20" lengthAdjust="spacing" textLength="414" x="150.5" y="555.6367">shows show proposal list and ask to select one</text><polygon fill="#181818" points="611.5,597.1875,621.5,601.1875,611.5,605.1875,615.5,601.1875" style="stroke:#181818;stroke-width:1.0;"/><line style="stroke:#181818;stroke-width:1.0;" x1="107.5" x2="617.5" y1="601.1875" y2="601.1875"/><text fill="#000000" font-family="sans-serif" font-size="20" font-weight="bold" lengthAdjust="spacing" textLength="22" x="114.5" y="594.793">13</text><text fill="#000000" font-family="sans-serif" font-size="20" lengthAdjust="spacing" textLength="100" x="140.5" y="594.793">selects one</text><path d="M10,616.1875 L96,616.1875 L96,633.3438 L86,643.3438 L10,643.3438 L10,616.1875 " fill="#EEEEEE" style="stroke:#000000;stroke-width:1.5;"/><rect fill="none" height="689.8125" style="stroke:#000000;stroke-width:1.5;" width="2396" x="10" y="616.1875"/><text fill="#000000" font-family="sans-serif" font-size="20" font-weight="bold" lengthAdjust="spacing" textLength="41" x="25" y="637.9492">loop</text><text fill="#000000" font-family="sans-serif" font-size="20" font-weight="bold" lengthAdjust="spacing" textLength="356" x="111" y="638.9492">[for each model for the configuration]</text><polygon fill="#181818" points="1056.5,680.6563,1066.5,684.6563,1056.5,688.6563,1060.5,684.6563" style="stroke:#181818;stroke-width:1.0;"/><line style="stroke:#181818;stroke-width:1.0;" x1="633.5" x2="1062.5" y1="684.6563" y2="684.6563"/><text fill="#000000" font-family="sans-serif" font-size="20" font-weight="bold" lengthAdjust="spacing" textLength="22" x="640.5" y="678.2617">14</text><text fill="#000000" font-family="sans-serif" font-size="20" lengthAdjust="spacing" textLength="127" x="666.5" y="678.2617">getModelList()</text><polygon fill="#181818" points="1496.5,719.8125,1506.5,723.8125,1496.5,727.8125,1500.5,723.8125" style="stroke:#181818;stroke-width:1.0;"/><line style="stroke:#181818;stroke-width:1.0;stroke-dasharray:2.0,2.0;" x1="1078.5" x2="1502.5" y1="723.8125" y2="723.8125"/><text fill="#000000" font-family="sans-serif" font-size="20" font-weight="bold" lengthAdjust="spacing" textLength="22" x="1085.5" y="717.418">15</text><text fill="#000000" font-family="sans-serif" font-size="20" lengthAdjust="spacing" textLength="204" x="1111.5" y="717.418">getRepositoryFactory()</text><polygon fill="#181818" points="1089.5,758.9688,1079.5,762.9688,1089.5,766.9688,1085.5,762.9688" style="stroke:#181818;stroke-width:1.0;"/><line style="stroke:#181818;stroke-width:1.0;stroke-dasharray:2.0,2.0;" x1="1083.5" x2="1512.5" y1="762.9688" y2="762.9688"/><text fill="#000000" font-family="sans-serif" font-size="20" font-weight="bold" lengthAdjust="spacing" textLength="22" x="1095.5" y="756.5742">16</text><text fill="#000000" font-family="sans-serif" font-size="20" lengthAdjust="spacing" textLength="155" x="1121.5" y="756.5742">repositoryFactory</text><polygon fill="#181818" points="1659,798.125,1669,802.125,1659,806.125,1663,802.125" style="stroke:#181818;stroke-width:1.0;"/><line style="stroke:#181818;stroke-width:1.0;" x1="1078.5" x2="1665" y1="802.125" y2="802.125"/><text fill="#000000" font-family="sans-serif" font-size="20" font-weight="bold" lengthAdjust="spacing" textLength="22" x="1085.5" y="795.7305">17</text><text fill="#000000" font-family="sans-serif" font-size="20" lengthAdjust="spacing" textLength="116" x="1111.5" y="795.7305">getInstance()</text><polygon fill="#181818" points="1089.5,837.2813,1079.5,841.2813,1089.5,845.2813,1085.5,841.2813" style="stroke:#181818;stroke-width:1.0;"/><line style="stroke:#181818;stroke-width:1.0;stroke-dasharray:2.0,2.0;" x1="1083.5" x2="1675" y1="841.2813" y2="841.2813"/><text fill="#000000" font-family="sans-serif" font-size="20" font-weight="bold" lengthAdjust="spacing" textLength="22" x="1095.5" y="834.8867">18</text><text fill="#000000" font-family="sans-serif" font-size="20" lengthAdjust="spacing" textLength="103" x="1121.5" y="834.8867">repositories</text><polygon fill="#181818" points="1854,876.4375,1864,880.4375,1854,884.4375,1858,880.4375" style="stroke:#181818;stroke-width:1.0;"/><line style="stroke:#181818;stroke-width:1.0;" x1="1078.5" x2="1860" y1="880.4375" y2="880.4375"/><text fill="#000000" font-family="sans-serif" font-size="20" font-weight="bold" lengthAdjust="spacing" textLength="22" x="1085.5" y="874.043">19</text><text fill="#000000" font-family="sans-serif" font-size="20" lengthAdjust="spacing" textLength="264" x="1111.5" y="874.043">getShowProposalRepository()</text><polygon fill="#181818" points="1089.5,915.5938,1079.5,919.5938,1089.5,923.5938,1085.5,919.5938" style="stroke:#181818;stroke-width:1.0;"/><line style="stroke:#181818;stroke-width:1.0;stroke-dasharray:2.0,2.0;" x1="1083.5" x2="1870" y1="919.5938" y2="919.5938"/><text fill="#000000" font-family="sans-serif" font-size="20" font-weight="bold" lengthAdjust="spacing" textLength="22" x="1095.5" y="913.1992">20</text><text fill="#000000" font-family="sans-serif" font-size="20" lengthAdjust="spacing" textLength="219" x="1121.5" y="913.1992">showProposalRepository</text><polygon fill="#181818" points="2294.5,954.75,2304.5,958.75,2294.5,962.75,2298.5,958.75" style="stroke:#181818;stroke-width:1.0;"/><line style="stroke:#181818;stroke-width:1.0;" x1="1078.5" x2="2300.5" y1="958.75" y2="958.75"/><text fill="#000000" font-family="sans-serif" font-size="20" font-weight="bold" lengthAdjust="spacing" textLength="22" x="1085.5" y="952.3555">21</text><text fill="#000000" font-family="sans-serif" font-size="20" lengthAdjust="spacing" textLength="127" x="1111.5" y="952.3555">getModelList()</text><polygon fill="#181818" points="1089.5,993.9063,1079.5,997.9063,1089.5,1001.9063,1085.5,997.9063" style="stroke:#181818;stroke-width:1.0;"/><line style="stroke:#181818;stroke-width:1.0;stroke-dasharray:2.0,2.0;" x1="1083.5" x2="2310.5" y1="997.9063" y2="997.9063"/><text fill="#000000" font-family="sans-serif" font-size="20" font-weight="bold" lengthAdjust="spacing" textLength="22" x="1095.5" y="991.5117">22</text><text fill="#000000" font-family="sans-serif" font-size="20" lengthAdjust="spacing" textLength="84" x="1121.5" y="991.5117">modelList</text><polygon fill="#181818" points="644.5,1033.0625,634.5,1037.0625,644.5,1041.0625,640.5,1037.0625" style="stroke:#181818;stroke-width:1.0;"/><line style="stroke:#181818;stroke-width:1.0;stroke-dasharray:2.0,2.0;" x1="638.5" x2="1072.5" y1="1037.0625" y2="1037.0625"/><text fill="#000000" font-family="sans-serif" font-size="20" font-weight="bold" lengthAdjust="spacing" textLength="22" x="650.5" y="1030.668">23</text><text fill="#000000" font-family="sans-serif" font-size="20" lengthAdjust="spacing" textLength="84" x="676.5" y="1030.668">modelList</text><polygon fill="#181818" points="118.5,1072.2188,108.5,1076.2188,118.5,1080.2188,114.5,1076.2188" style="stroke:#181818;stroke-width:1.0;"/><line style="stroke:#181818;stroke-width:1.0;stroke-dasharray:2.0,2.0;" x1="112.5" x2="627.5" y1="1076.2188" y2="1076.2188"/><text fill="#000000" font-family="sans-serif" font-size="20" font-weight="bold" lengthAdjust="spacing" textLength="22" x="124.5" y="1069.8242">24</text><text fill="#000000" font-family="sans-serif" font-size="20" lengthAdjust="spacing" textLength="405" x="150.5" y="1069.8242">shows drone models list and ask to select one</text><polygon fill="#181818" points="611.5,1111.375,621.5,1115.375,611.5,1119.375,615.5,1115.375" style="stroke:#181818;stroke-width:1.0;"/><line style="stroke:#181818;stroke-width:1.0;" x1="107.5" x2="617.5" y1="1115.375" y2="1115.375"/><text fill="#000000" font-family="sans-serif" font-size="20" font-weight="bold" lengthAdjust="spacing" textLength="22" x="114.5" y="1108.9805">25</text><text fill="#000000" font-family="sans-serif" font-size="20" lengthAdjust="spacing" textLength="100" x="140.5" y="1108.9805">selects one</text><polygon fill="#181818" points="118.5,1150.5313,108.5,1154.5313,118.5,1158.5313,114.5,1154.5313" style="stroke:#181818;stroke-width:1.0;"/><line style="stroke:#181818;stroke-width:1.0;stroke-dasharray:2.0,2.0;" x1="112.5" x2="627.5" y1="1154.5313" y2="1154.5313"/><text fill="#000000" font-family="sans-serif" font-size="20" font-weight="bold" lengthAdjust="spacing" textLength="22" x="124.5" y="1148.1367">26</text><text fill="#000000" font-family="sans-serif" font-size="20" lengthAdjust="spacing" textLength="466" x="150.5" y="1148.1367">asks for the number of drones for the selected model</text><polygon fill="#181818" points="611.5,1189.6875,621.5,1193.6875,611.5,1197.6875,615.5,1193.6875" style="stroke:#181818;stroke-width:1.0;"/><line style="stroke:#181818;stroke-width:1.0;" x1="107.5" x2="617.5" y1="1193.6875" y2="1193.6875"/><text fill="#000000" font-family="sans-serif" font-size="20" font-weight="bold" lengthAdjust="spacing" textLength="22" x="114.5" y="1187.293">27</text><text fill="#000000" font-family="sans-serif" font-size="20" lengthAdjust="spacing" textLength="112" x="140.5" y="1187.293">submits data</text><line style="stroke:#181818;stroke-width:1.0;" x1="633.5" x2="680.5" y1="1227.8438" y2="1227.8438"/><line style="stroke:#181818;stroke-width:1.0;" x1="680.5" x2="680.5" y1="1227.8438" y2="1240.8438"/><line style="stroke:#181818;stroke-width:1.0;" x1="639.5" x2="680.5" y1="1240.8438" y2="1240.8438"/><polygon fill="#181818" points="649.5,1236.8438,639.5,1240.8438,649.5,1244.8438,645.5,1240.8438" style="stroke:#181818;stroke-width:1.0;"/><text fill="#000000" font-family="sans-serif" font-size="20" font-weight="bold" lengthAdjust="spacing" textLength="22" x="645.5" y="1221.4492">28</text><text fill="#000000" font-family="sans-serif" font-size="20" lengthAdjust="spacing" textLength="159" x="671.5" y="1221.4492">getModelDrones()</text><line style="stroke:#181818;stroke-width:1.0;stroke-dasharray:2.0,2.0;" x1="638.5" x2="680.5" y1="1290" y2="1290"/><line style="stroke:#181818;stroke-width:1.0;stroke-dasharray:2.0,2.0;" x1="680.5" x2="680.5" y1="1290" y2="1303"/><line style="stroke:#181818;stroke-width:1.0;stroke-dasharray:2.0,2.0;" x1="633.5" x2="680.5" y1="1303" y2="1303"/><polygon fill="#181818" points="643.5,1299,633.5,1303,643.5,1307,639.5,1303" style="stroke:#181818;stroke-width:1.0;"/><text fill="#000000" font-family="sans-serif" font-size="20" font-weight="bold" lengthAdjust="spacing" textLength="22" x="645.5" y="1283.6055">29</text><text fill="#000000" font-family="sans-serif" font-size="20" lengthAdjust="spacing" textLength="140" x="671.5" y="1283.6055">modelDroneslist</text><polygon fill="#181818" points="118.5,1340.1563,108.5,1344.1563,118.5,1348.1563,114.5,1344.1563" style="stroke:#181818;stroke-width:1.0;"/><line style="stroke:#181818;stroke-width:1.0;stroke-dasharray:2.0,2.0;" x1="112.5" x2="627.5" y1="1344.1563" y2="1344.1563"/><text fill="#000000" font-family="sans-serif" font-size="20" font-weight="bold" lengthAdjust="spacing" textLength="22" x="124.5" y="1337.7617">30</text><text fill="#000000" font-family="sans-serif" font-size="20" lengthAdjust="spacing" textLength="433" x="150.5" y="1337.7617">shows the configuration and asks for confirmation</text><polygon fill="#181818" points="611.5,1379.3125,621.5,1383.3125,611.5,1387.3125,615.5,1383.3125" style="stroke:#181818;stroke-width:1.0;"/><line style="stroke:#181818;stroke-width:1.0;" x1="107.5" x2="617.5" y1="1383.3125" y2="1383.3125"/><text fill="#000000" font-family="sans-serif" font-size="20" font-weight="bold" lengthAdjust="spacing" textLength="22" x="114.5" y="1376.918">31</text><text fill="#000000" font-family="sans-serif" font-size="20" lengthAdjust="spacing" textLength="119" x="140.5" y="1376.918">confirms data</text><polygon fill="#181818" points="1056.5,1418.4688,1066.5,1422.4688,1056.5,1426.4688,1060.5,1422.4688" style="stroke:#181818;stroke-width:1.0;"/><line style="stroke:#181818;stroke-width:1.0;" x1="633.5" x2="1062.5" y1="1422.4688" y2="1422.4688"/><text fill="#000000" font-family="sans-serif" font-size="20" font-weight="bold" lengthAdjust="spacing" textLength="22" x="640.5" y="1416.0742">32</text><text fill="#000000" font-family="sans-serif" font-size="20" lengthAdjust="spacing" textLength="390" x="666.5" y="1416.0742">configureShow(showProposal, configuration)</text><line style="stroke:#181818;stroke-width:1.0;" x1="1078.5" x2="1125.5" y1="1456.625" y2="1456.625"/><line style="stroke:#181818;stroke-width:1.0;" x1="1125.5" x2="1125.5" y1="1456.625" y2="1469.625"/><line style="stroke:#181818;stroke-width:1.0;" x1="1084.5" x2="1125.5" y1="1469.625" y2="1469.625"/><polygon fill="#181818" points="1094.5,1465.625,1084.5,1469.625,1094.5,1473.625,1090.5,1469.625" style="stroke:#181818;stroke-width:1.0;"/><text fill="#000000" font-family="sans-serif" font-size="20" font-weight="bold" lengthAdjust="spacing" textLength="22" x="1090.5" y="1450.2305">33</text><text fill="#000000" font-family="sans-serif" font-size="20" lengthAdjust="spacing" textLength="264" x="1116.5" y="1450.2305">getShowProposalRepository()</text><polygon fill="#181818" points="1496.5,1509.7813,1506.5,1513.7813,1496.5,1517.7813,1500.5,1513.7813" style="stroke:#181818;stroke-width:1.0;"/><line style="stroke:#181818;stroke-width:1.0;" x1="1083.5" x2="1502.5" y1="1513.7813" y2="1513.7813"/><text fill="#000000" font-family="sans-serif" font-size="20" font-weight="bold" lengthAdjust="spacing" textLength="22" x="1090.5" y="1507.3867">34</text><text fill="#000000" font-family="sans-serif" font-size="20" lengthAdjust="spacing" textLength="264" x="1116.5" y="1507.3867">getShowProposalRepository()</text><polygon fill="#181818" points="1094.5,1548.9375,1084.5,1552.9375,1094.5,1556.9375,1090.5,1552.9375" style="stroke:#181818;stroke-width:1.0;"/><line style="stroke:#181818;stroke-width:1.0;stroke-dasharray:2.0,2.0;" x1="1088.5" x2="1512.5" y1="1552.9375" y2="1552.9375"/><text fill="#000000" font-family="sans-serif" font-size="20" font-weight="bold" lengthAdjust="spacing" textLength="22" x="1100.5" y="1546.543">35</text><text fill="#000000" font-family="sans-serif" font-size="20" lengthAdjust="spacing" textLength="155" x="1126.5" y="1546.543">repositoryFactory</text><polygon fill="#181818" points="1659,1588.0938,1669,1592.0938,1659,1596.0938,1663,1592.0938" style="stroke:#181818;stroke-width:1.0;"/><line style="stroke:#181818;stroke-width:1.0;" x1="1083.5" x2="1665" y1="1592.0938" y2="1592.0938"/><text fill="#000000" font-family="sans-serif" font-size="20" font-weight="bold" lengthAdjust="spacing" textLength="22" x="1090.5" y="1585.6992">36</text><text fill="#000000" font-family="sans-serif" font-size="20" lengthAdjust="spacing" textLength="116" x="1116.5" y="1585.6992">getInstance()</text><polygon fill="#181818" points="1094.5,1627.25,1084.5,1631.25,1094.5,1635.25,1090.5,1631.25" style="stroke:#181818;stroke-width:1.0;"/><line style="stroke:#181818;stroke-width:1.0;stroke-dasharray:2.0,2.0;" x1="1088.5" x2="1675" y1="1631.25" y2="1631.25"/><text fill="#000000" font-family="sans-serif" font-size="20" font-weight="bold" lengthAdjust="spacing" textLength="22" x="1100.5" y="1624.8555">37</text><text fill="#000000" font-family="sans-serif" font-size="20" lengthAdjust="spacing" textLength="103" x="1126.5" y="1624.8555">repositories</text><polygon fill="#181818" points="1854,1666.4063,1864,1670.4063,1854,1674.4063,1858,1670.4063" style="stroke:#181818;stroke-width:1.0;"/><line style="stroke:#181818;stroke-width:1.0;" x1="1083.5" x2="1860" y1="1670.4063" y2="1670.4063"/><text fill="#000000" font-family="sans-serif" font-size="20" font-weight="bold" lengthAdjust="spacing" textLength="22" x="1090.5" y="1664.0117">38</text><text fill="#000000" font-family="sans-serif" font-size="20" lengthAdjust="spacing" textLength="264" x="1116.5" y="1664.0117">getShowProposalRepository()</text><polygon fill="#181818" points="1094.5,1705.5625,1084.5,1709.5625,1094.5,1713.5625,1090.5,1709.5625" style="stroke:#181818;stroke-width:1.0;"/><line style="stroke:#181818;stroke-width:1.0;stroke-dasharray:2.0,2.0;" x1="1088.5" x2="1870" y1="1709.5625" y2="1709.5625"/><text fill="#000000" font-family="sans-serif" font-size="20" font-weight="bold" lengthAdjust="spacing" textLength="22" x="1100.5" y="1703.168">39</text><text fill="#000000" font-family="sans-serif" font-size="20" lengthAdjust="spacing" textLength="219" x="1126.5" y="1703.168">showProposalRepository</text><line style="stroke:#181818;stroke-width:1.0;stroke-dasharray:2.0,2.0;" x1="1083.5" x2="1125.5" y1="1753.7188" y2="1753.7188"/><line style="stroke:#181818;stroke-width:1.0;stroke-dasharray:2.0,2.0;" x1="1125.5" x2="1125.5" y1="1753.7188" y2="1766.7188"/><line style="stroke:#181818;stroke-width:1.0;stroke-dasharray:2.0,2.0;" x1="1078.5" x2="1125.5" y1="1766.7188" y2="1766.7188"/><polygon fill="#181818" points="1088.5,1762.7188,1078.5,1766.7188,1088.5,1770.7188,1084.5,1766.7188" style="stroke:#181818;stroke-width:1.0;"/><text fill="#000000" font-family="sans-serif" font-size="20" font-weight="bold" lengthAdjust="spacing" textLength="22" x="1090.5" y="1747.3242">40</text><text fill="#000000" font-family="sans-serif" font-size="20" lengthAdjust="spacing" textLength="219" x="1116.5" y="1747.3242">showProposalRepository</text><line style="stroke:#181818;stroke-width:1.0;" x1="1078.5" x2="1125.5" y1="1795.875" y2="1795.875"/><line style="stroke:#181818;stroke-width:1.0;" x1="1125.5" x2="1125.5" y1="1795.875" y2="1808.875"/><line style="stroke:#181818;stroke-width:1.0;" x1="1084.5" x2="1125.5" y1="1808.875" y2="1808.875"/><polygon fill="#181818" points="1094.5,1804.875,1084.5,1808.875,1094.5,1812.875,1090.5,1808.875" style="stroke:#181818;stroke-width:1.0;"/><text fill="#000000" font-family="sans-serif" font-size="20" font-weight="bold" lengthAdjust="spacing" textLength="22" x="1090.5" y="1789.4805">41</text><text fill="#000000" font-family="sans-serif" font-size="20" lengthAdjust="spacing" textLength="390" x="1116.5" y="1789.4805">configureShow(showProposal, configuration)</text><polygon fill="#181818" points="2456.5,1849.0313,2466.5,1853.0313,2456.5,1857.0313,2460.5,1853.0313" style="stroke:#181818;stroke-width:1.0;"/><line style="stroke:#181818;stroke-width:1.0;" x1="1083.5" x2="2462.5" y1="1853.0313" y2="1853.0313"/><text fill="#000000" font-family="sans-serif" font-size="20" font-weight="bold" lengthAdjust="spacing" textLength="22" x="1090.5" y="1846.6367">42</text><text fill="#000000" font-family="sans-serif" font-size="20" lengthAdjust="spacing" textLength="237" x="1116.5" y="1846.6367">createConfig(configuration)</text><polygon fill="#181818" points="1094.5,1888.1875,1084.5,1892.1875,1094.5,1896.1875,1090.5,1892.1875" style="stroke:#181818;stroke-width:1.0;"/><line style="stroke:#181818;stroke-width:1.0;stroke-dasharray:2.0,2.0;" x1="1088.5" x2="2472.5" y1="1892.1875" y2="1892.1875"/><text fill="#000000" font-family="sans-serif" font-size="20" font-weight="bold" lengthAdjust="spacing" textLength="22" x="1100.5" y="1885.793">43</text><text fill="#000000" font-family="sans-serif" font-size="20" lengthAdjust="spacing" textLength="111" x="1126.5" y="1885.793">configuration</text><polygon fill="#181818" points="2607.5,1927.3438,2617.5,1931.3438,2607.5,1935.3438,2611.5,1931.3438" style="stroke:#181818;stroke-width:1.0;"/><line style="stroke:#181818;stroke-width:1.0;" x1="1083.5" x2="2613.5" y1="1931.3438" y2="1931.3438"/><text fill="#000000" font-family="sans-serif" font-size="20" font-weight="bold" lengthAdjust="spacing" textLength="22" x="1090.5" y="1924.9492">44</text><text fill="#000000" font-family="sans-serif" font-size="20" lengthAdjust="spacing" textLength="258" x="1116.5" y="1924.9492">setConfig(showConfiguration)</text><polygon fill="#181818" points="1094.5,1966.5,1084.5,1970.5,1094.5,1974.5,1090.5,1970.5" style="stroke:#181818;stroke-width:1.0;"/><line style="stroke:#181818;stroke-width:1.0;stroke-dasharray:2.0,2.0;" x1="1088.5" x2="2623.5" y1="1970.5" y2="1970.5"/><text fill="#000000" font-family="sans-serif" font-size="20" font-weight="bold" lengthAdjust="spacing" textLength="22" x="1100.5" y="1964.1055">45</text><text fill="#000000" font-family="sans-serif" font-size="20" lengthAdjust="spacing" textLength="124" x="1126.5" y="1964.1055">showProposal</text><line style="stroke:#181818;stroke-width:1.0;" x1="1083.5" x2="1130.5" y1="2004.6563" y2="2004.6563"/><line style="stroke:#181818;stroke-width:1.0;" x1="1130.5" x2="1130.5" y1="2004.6563" y2="2017.6563"/><line style="stroke:#181818;stroke-width:1.0;" x1="1089.5" x2="1130.5" y1="2017.6563" y2="2017.6563"/><polygon fill="#181818" points="1099.5,2013.6563,1089.5,2017.6563,1099.5,2021.6563,1095.5,2017.6563" style="stroke:#181818;stroke-width:1.0;"/><text fill="#000000" font-family="sans-serif" font-size="20" font-weight="bold" lengthAdjust="spacing" textLength="22" x="1095.5" y="1998.2617">46</text><text fill="#000000" font-family="sans-serif" font-size="20" lengthAdjust="spacing" textLength="276" x="1121.5" y="1998.2617">verifyShowProp(showProposal)</text><line style="stroke:#181818;stroke-width:1.0;stroke-dasharray:2.0,2.0;" x1="1088.5" x2="1130.5" y1="2066.8125" y2="2066.8125"/><line style="stroke:#181818;stroke-width:1.0;stroke-dasharray:2.0,2.0;" x1="1130.5" x2="1130.5" y1="2066.8125" y2="2079.8125"/><line style="stroke:#181818;stroke-width:1.0;stroke-dasharray:2.0,2.0;" x1="1083.5" x2="1130.5" y1="2079.8125" y2="2079.8125"/><polygon fill="#181818" points="1093.5,2075.8125,1083.5,2079.8125,1093.5,2083.8125,1089.5,2079.8125" style="stroke:#181818;stroke-width:1.0;"/><text fill="#000000" font-family="sans-serif" font-size="20" font-weight="bold" lengthAdjust="spacing" textLength="22" x="1095.5" y="2060.418">47</text><text fill="#000000" font-family="sans-serif" font-size="20" lengthAdjust="spacing" textLength="34" x="1121.5" y="2060.418">true</text><line style="stroke:#181818;stroke-width:1.0;stroke-dasharray:2.0,2.0;" x1="1083.5" x2="1125.5" y1="2118.9688" y2="2118.9688"/><line style="stroke:#181818;stroke-width:1.0;stroke-dasharray:2.0,2.0;" x1="1125.5" x2="1125.5" y1="2118.9688" y2="2131.9688"/><line style="stroke:#181818;stroke-width:1.0;stroke-dasharray:2.0,2.0;" x1="1078.5" x2="1125.5" y1="2131.9688" y2="2131.9688"/><polygon fill="#181818" points="1088.5,2127.9688,1078.5,2131.9688,1088.5,2135.9688,1084.5,2131.9688" style="stroke:#181818;stroke-width:1.0;"/><text fill="#000000" font-family="sans-serif" font-size="20" font-weight="bold" lengthAdjust="spacing" textLength="22" x="1090.5" y="2112.5742">48</text><text fill="#000000" font-family="sans-serif" font-size="20" lengthAdjust="spacing" textLength="124" x="1116.5" y="2112.5742">showProposal</text><polygon fill="#181818" points="2079,2162.125,2089,2166.125,2079,2170.125,2083,2166.125" style="stroke:#181818;stroke-width:1.0;"/><line style="stroke:#181818;stroke-width:1.0;" x1="1078.5" x2="2085" y1="2166.125" y2="2166.125"/><text fill="#000000" font-family="sans-serif" font-size="20" font-weight="bold" lengthAdjust="spacing" textLength="22" x="1085.5" y="2159.7305">49</text><text fill="#000000" font-family="sans-serif" font-size="20" lengthAdjust="spacing" textLength="179" x="1111.5" y="2159.7305">save(showProposal)</text><polygon fill="#181818" points="1089.5,2201.2813,1079.5,2205.2813,1089.5,2209.2813,1085.5,2205.2813" style="stroke:#181818;stroke-width:1.0;"/><line style="stroke:#181818;stroke-width:1.0;stroke-dasharray:2.0,2.0;" x1="1083.5" x2="2095" y1="2205.2813" y2="2205.2813"/><text fill="#000000" font-family="sans-serif" font-size="20" font-weight="bold" lengthAdjust="spacing" textLength="22" x="1095.5" y="2198.8867">50</text><text fill="#000000" font-family="sans-serif" font-size="20" lengthAdjust="spacing" textLength="34" x="1121.5" y="2198.8867">true</text><polygon fill="#181818" points="644.5,2240.4375,634.5,2244.4375,644.5,2248.4375,640.5,2244.4375" style="stroke:#181818;stroke-width:1.0;"/><line style="stroke:#181818;stroke-width:1.0;stroke-dasharray:2.0,2.0;" x1="638.5" x2="1072.5" y1="2244.4375" y2="2244.4375"/><text fill="#000000" font-family="sans-serif" font-size="20" font-weight="bold" lengthAdjust="spacing" textLength="22" x="650.5" y="2238.043">51</text><text fill="#000000" font-family="sans-serif" font-size="20" lengthAdjust="spacing" textLength="34" x="676.5" y="2238.043">true</text><polygon fill="#181818" points="113.5,2279.5938,103.5,2283.5938,113.5,2287.5938,109.5,2283.5938" style="stroke:#181818;stroke-width:1.0;"/><line style="stroke:#181818;stroke-width:1.0;stroke-dasharray:2.0,2.0;" x1="107.5" x2="627.5" y1="2283.5938" y2="2283.5938"/><text fill="#000000" font-family="sans-serif" font-size="20" font-weight="bold" lengthAdjust="spacing" textLength="22" x="119.5" y="2277.1992">52</text><text fill="#000000" font-family="sans-serif" font-size="20" lengthAdjust="spacing" textLength="234" x="145.5" y="2277.1992">displays success message</text><!--SRC=[lLTDZvim4BtpAwozT2irKjLZ3dj9Tgj8kvieP6-LAYzC4XJ059jTfR- -OviFsnX2j6qvHC7CUtvuveqDFoLvGKkQfImwGKnYsDCg5Gyi5s7o6yYthy4dtiIGZEKiEfOiWo3eHWiQdUW1Gd5EWPGG2PeVKZ02-976x3t93sHFKuvOMWcMLzahbFW_4gmaDulj4rcmDAMlhAGuSaCe9yjTW0mYYPA2veBSp1SitoU7yCZUDoKhNbOgwcKr6eLteaHcq9oBtVRHYTz0oHCk88z0XMpkjw4JieM2yGHrdH-KuBCAtDvlrcvawKR-oETZy9_Xwldxu_rk_MmJyLe-upJju4WMUXyemd3pKtBQH1cBmMPuiaSKz6czz60ZjP8LPYHXEI8NvhrUplNpmx1mHsujKYKzUQC2P8Q3vOxCxZ2BP8xLywi2BZWHZ3Hp0n578779SY0ffecmFQ54paAAchVZmreWU24PKifK8-a1X2dY4JbkFwkm5gQAGWqfp0p1iWWqk9Sy5wtgHOuepAoRkLSBAYg6Fb9FUwTBGa-xoZawAG9tDbrqSaW7- -PBWBjJTJ1hhgxyzAnERNWdDqgsbM7m68ASslDgSjWQTNKjJyjVK_Xoi04QChW3TtMOyBO0L45UGgh2QIeEGLZB6iJj2jMLI_CO7N2IrSqXnKv9iAXTohg43LVeMDu6kw4fOmNPOnT5agDUStKhVMCvsEiDbN5ZKGUCSQKv_0QPRf8Xeqmpou1Xffbcq3WNpUDlpOEQdCg_u2N_XZ2es4FUQ6zw_OJyjzj2ywJ5kYvltU68wJ7O1Xl5ZhXBxmSApV-gkNm6SoNWDBnrc3x8o5r9QUeUQ6OyL2cLllSpw2r9rMkMeAIO2je5U57Qp0hLf7AfL1Z974Bg7DGfqAZKJCIGKi25bYsdwmk-DT9fwhMW9arwcTIZCkkQatcDfgr66eiqUWPe3nFIehUcbRxO-dm70zS_clCgltjvkYvwaMZgvM-OKw_fhNdgzKzQ-0VQ-F_gun_hvLVryzdTrHl4I5LVwvJXAk-8yHD14fU0CVeBudQ0gSyeFo_SfufmrfTyiOqejZwTrXbkr6uWQeNopHSJLU8dZViCsGRoFIRGG-IavmtAP7zk2jJApzWoMebnDsBvPqv4MS7eulMBvi8B3e7zntnEty1vds1WjVM18h2MktSgKUyJU1VPmTidaWxdwW_C_IrEU97ICvxpgoW2pac6F_G0WRrj6NVuhVi7]--></g></svg>