<?xml version="1.0" encoding="us-ascii" standalone="no"?><svg xmlns="http://www.w3.org/2000/svg" xmlns:xlink="http://www.w3.org/1999/xlink" contentStyleType="text/css" height="1197.7px" preserveAspectRatio="none" style="width:1187px;height:1197px;background:#FFFFFF;" version="1.1" viewBox="0 0 1187 1197" width="1187.2px" zoomAndPan="magnify"><defs/><g><rect fill="#FFFFFF" height="1061.6744" style="stroke:#181818;stroke-width:0.6999999999999998;" width="7" x="52.15" y="65.5348"/><rect fill="#FFFFFF" height="240.9408" style="stroke:#181818;stroke-width:0.6999999999999998;" width="7" x="299.25" y="81.8385"/><rect fill="#FFFFFF" height="259.3445" style="stroke:#181818;stroke-width:0.6999999999999998;" width="7" x="299.25" y="344.683"/><rect fill="#FFFFFF" height="21.9037" style="stroke:#181818;stroke-width:0.6999999999999998;" width="7" x="299.25" y="625.9312"/><rect fill="#FFFFFF" height="26.8037" style="stroke:#181818;stroke-width:0.6999999999999998;" width="7" x="299.25" y="669.7387"/><rect fill="#FFFFFF" height="408.7631" style="stroke:#181818;stroke-width:0.6999999999999998;" width="7" x="299.25" y="718.4461"/><rect fill="#FFFFFF" height="197.1334" style="stroke:#181818;stroke-width:0.6999999999999998;" width="7" x="447.65" y="103.7422"/><rect fill="#FFFFFF" height="197.1334" style="stroke:#181818;stroke-width:0.6999999999999998;" width="7" x="447.65" y="384.9904"/><rect fill="#FFFFFF" height="364.9557" style="stroke:#181818;stroke-width:0.6999999999999998;" width="7" x="447.65" y="740.3498"/><rect fill="#FFFFFF" height="161.026" style="stroke:#181818;stroke-width:0.6999999999999998;" width="7" x="451.15" y="767.8535"/><rect fill="#FFFFFF" height="21.9037" style="stroke:#181818;stroke-width:0.6999999999999998;" width="7" x="603.75" y="125.6459"/><rect fill="#FFFFFF" height="21.9037" style="stroke:#181818;stroke-width:0.6999999999999998;" width="7" x="603.75" y="406.8941"/><rect fill="#FFFFFF" height="21.9037" style="stroke:#181818;stroke-width:0.6999999999999998;" width="7" x="603.75" y="793.2572"/><rect fill="#FFFFFF" height="21.9037" style="stroke:#181818;stroke-width:0.6999999999999998;" width="7" x="689.85" y="169.4533"/><rect fill="#FFFFFF" height="21.9037" style="stroke:#181818;stroke-width:0.6999999999999998;" width="7" x="689.85" y="450.7016"/><rect fill="#FFFFFF" height="21.9037" style="stroke:#181818;stroke-width:0.6999999999999998;" width="7" x="689.85" y="837.0646"/><rect fill="#FFFFFF" height="21.9037" style="stroke:#181818;stroke-width:0.6999999999999998;" width="7" x="792.05" y="213.2607"/><rect fill="#FFFFFF" height="21.9037" style="stroke:#181818;stroke-width:0.6999999999999998;" width="7" x="792.05" y="494.509"/><rect fill="#FFFFFF" height="21.9037" style="stroke:#181818;stroke-width:0.6999999999999998;" width="7" x="792.05" y="880.8721"/><rect fill="#FFFFFF" height="21.9037" style="stroke:#181818;stroke-width:0.6999999999999998;" width="7" x="908.95" y="257.0682"/><rect fill="#FFFFFF" height="127.7186" style="stroke:#181818;stroke-width:0.6999999999999998;" width="7" x="908.95" y="955.6832"/><rect fill="#FFFFFF" height="29.6037" style="stroke:#181818;stroke-width:0.6999999999999998;" width="7" x="912.45" y="1026.9943"/><rect fill="#FFFFFF" height="21.9037" style="stroke:#181818;stroke-width:0.6999999999999998;" width="7" x="1057.35" y="538.3164"/><rect fill="#FFFFFF" height="21.9037" style="stroke:#181818;stroke-width:0.6999999999999998;" width="7" x="1143.8" y="977.5869"/><rect fill="none" height="320.1557" style="stroke:#000000;stroke-width:1.0499999999999998;" width="1104.25" x="7" y="355.183"/><line style="stroke:#181818;stroke-width:0.3499999999999999;stroke-dasharray:5.0,5.0;" x1="55.3" x2="55.3" y1="58.5348" y2="1139.8092"/><line style="stroke:#181818;stroke-width:0.3499999999999999;stroke-dasharray:5.0,5.0;" x1="302.4" x2="302.4" y1="58.5348" y2="1139.8092"/><line style="stroke:#181818;stroke-width:0.3499999999999999;stroke-dasharray:5.0,5.0;" x1="450.8" x2="450.8" y1="58.5348" y2="1139.8092"/><line style="stroke:#181818;stroke-width:0.3499999999999999;stroke-dasharray:5.0,5.0;" x1="607.25" x2="607.25" y1="58.5348" y2="1139.8092"/><line style="stroke:#181818;stroke-width:0.3499999999999999;stroke-dasharray:5.0,5.0;" x1="693.35" x2="693.35" y1="58.5348" y2="1139.8092"/><line style="stroke:#181818;stroke-width:0.3499999999999999;stroke-dasharray:5.0,5.0;" x1="795.55" x2="795.55" y1="58.5348" y2="1139.8092"/><line style="stroke:#181818;stroke-width:0.3499999999999999;stroke-dasharray:5.0,5.0;" x1="912.45" x2="912.45" y1="58.5348" y2="1139.8092"/><line style="stroke:#181818;stroke-width:0.3499999999999999;stroke-dasharray:5.0,5.0;" x1="1060.85" x2="1060.85" y1="58.5348" y2="1139.8092"/><line style="stroke:#181818;stroke-width:0.3499999999999999;stroke-dasharray:5.0,5.0;" x1="1146.95" x2="1146.95" y1="58.5348" y2="1139.8092"/><text fill="#000000" font-family="sans-serif" font-size="9.8" lengthAdjust="spacing" textLength="79.1" x="14" y="56.0752">CRM Collaborator</text><ellipse cx="55.65" cy="9.45" fill="#E2E2F0" rx="5.6" ry="5.6" style="stroke:#181818;stroke-width:0.3499999999999999;"/><path d="M55.65,15.05 L55.65,33.95 M46.55,20.65 L64.75,20.65 M55.65,33.95 L46.55,44.45 M55.65,33.95 L64.75,44.45 " fill="none" style="stroke:#181818;stroke-width:0.3499999999999999;"/><text fill="#000000" font-family="sans-serif" font-size="9.8" lengthAdjust="spacing" textLength="79.1" x="14" y="1149.6844">CRM Collaborator</text><ellipse cx="55.65" cy="1158.0939" fill="#E2E2F0" rx="5.6" ry="5.6" style="stroke:#181818;stroke-width:0.3499999999999999;"/><path d="M55.65,1163.6939 L55.65,1182.5939 M46.55,1169.2939 L64.75,1169.2939 M55.65,1182.5939 L46.55,1193.0939 M55.65,1182.5939 L64.75,1193.0939 " fill="none" style="stroke:#181818;stroke-width:0.3499999999999999;"/><rect fill="#E2E2F0" height="22.8348" rx="1.75" ry="1.75" style="stroke:#181818;stroke-width:0.3499999999999999;" width="94.5" x="255.5" y="35"/><text fill="#000000" font-family="sans-serif" font-size="9.8" lengthAdjust="spacing" textLength="84.7" x="260.4" y="50.4752">:ConfigShowPropUI</text><rect fill="#E2E2F0" height="22.8348" rx="1.75" ry="1.75" style="stroke:#181818;stroke-width:0.3499999999999999;" width="94.5" x="255.5" y="1139.1092"/><text fill="#000000" font-family="sans-serif" font-size="9.8" lengthAdjust="spacing" textLength="84.7" x="260.4" y="1154.5844">:ConfigShowPropUI</text><rect fill="#E2E2F0" height="22.8348" rx="1.75" ry="1.75" style="stroke:#181818;stroke-width:0.3499999999999999;" width="129.5" x="386.4" y="35"/><text fill="#000000" font-family="sans-serif" font-size="9.8" lengthAdjust="spacing" textLength="119.7" x="391.3" y="50.4752">:ConfigShowPropController</text><rect fill="#E2E2F0" height="22.8348" rx="1.75" ry="1.75" style="stroke:#181818;stroke-width:0.3499999999999999;" width="129.5" x="386.4" y="1139.1092"/><text fill="#000000" font-family="sans-serif" font-size="9.8" lengthAdjust="spacing" textLength="119.7" x="391.3" y="1154.5844">:ConfigShowPropController</text><rect fill="#E2E2F0" height="22.8348" rx="1.75" ry="1.75" style="stroke:#181818;stroke-width:0.3499999999999999;" width="64.4" x="575.05" y="35"/><text fill="#000000" font-family="sans-serif" font-size="9.8" lengthAdjust="spacing" textLength="54.6" x="579.95" y="50.4752">:Persistence</text><rect fill="#E2E2F0" height="22.8348" rx="1.75" ry="1.75" style="stroke:#181818;stroke-width:0.3499999999999999;" width="64.4" x="575.05" y="1139.1092"/><text fill="#000000" font-family="sans-serif" font-size="9.8" lengthAdjust="spacing" textLength="54.6" x="579.95" y="1154.5844">:Persistence</text><rect fill="#E2E2F0" height="22.8348" rx="1.75" ry="1.75" style="stroke:#181818;stroke-width:0.3499999999999999;" width="93.8" x="646.45" y="35"/><text fill="#000000" font-family="sans-serif" font-size="9.8" lengthAdjust="spacing" textLength="84" x="651.35" y="50.4752">:RepositoryFactory</text><rect fill="#E2E2F0" height="22.8348" rx="1.75" ry="1.75" style="stroke:#181818;stroke-width:0.3499999999999999;" width="93.8" x="646.45" y="1139.1092"/><text fill="#000000" font-family="sans-serif" font-size="9.8" lengthAdjust="spacing" textLength="84" x="651.35" y="1154.5844">:RepositoryFactory</text><rect fill="#E2E2F0" height="35.8695" rx="1.75" ry="1.75" style="stroke:#181818;stroke-width:0.3499999999999999;" width="96.6" x="747.25" y="21.9652"/><text fill="#000000" font-family="sans-serif" font-size="9.8" lengthAdjust="spacing" textLength="80.5" x="755.3" y="37.4404">:repositoryFactory</text><text fill="#000000" font-family="sans-serif" font-size="9.8" lengthAdjust="spacing" textLength="86.8" x="752.15" y="50.4752">::RepositoryFactory</text><rect fill="#E2E2F0" height="35.8695" rx="1.75" ry="1.75" style="stroke:#181818;stroke-width:0.3499999999999999;" width="96.6" x="747.25" y="1139.1092"/><text fill="#000000" font-family="sans-serif" font-size="9.8" lengthAdjust="spacing" textLength="80.5" x="755.3" y="1154.5844">:repositoryFactory</text><text fill="#000000" font-family="sans-serif" font-size="9.8" lengthAdjust="spacing" textLength="86.8" x="752.15" y="1167.6191">::RepositoryFactory</text><rect fill="#E2E2F0" height="35.8695" rx="1.75" ry="1.75" style="stroke:#181818;stroke-width:0.3499999999999999;" width="123.2" x="850.85" y="21.9652"/><text fill="#000000" font-family="sans-serif" font-size="9.8" lengthAdjust="spacing" textLength="109.2" x="857.85" y="37.4404">showProposalRepository</text><text fill="#000000" font-family="sans-serif" font-size="9.8" lengthAdjust="spacing" textLength="113.4" x="855.75" y="50.4752">:ShowProposalRepository</text><rect fill="#E2E2F0" height="35.8695" rx="1.75" ry="1.75" style="stroke:#181818;stroke-width:0.3499999999999999;" width="123.2" x="850.85" y="1139.1092"/><text fill="#000000" font-family="sans-serif" font-size="9.8" lengthAdjust="spacing" textLength="109.2" x="857.85" y="1154.5844">showProposalRepository</text><text fill="#000000" font-family="sans-serif" font-size="9.8" lengthAdjust="spacing" textLength="113.4" x="855.75" y="1167.6191">:ShowProposalRepository</text><rect fill="#E2E2F0" height="35.8695" rx="1.75" ry="1.75" style="stroke:#181818;stroke-width:0.3499999999999999;" width="86.8" x="1017.45" y="21.9652"/><text fill="#000000" font-family="sans-serif" font-size="9.8" lengthAdjust="spacing" textLength="74.2" x="1023.75" y="37.4404">modelRepository</text><text fill="#000000" font-family="sans-serif" font-size="9.8" lengthAdjust="spacing" textLength="77" x="1022.35" y="50.4752">:ModelRepository</text><rect fill="#E2E2F0" height="35.8695" rx="1.75" ry="1.75" style="stroke:#181818;stroke-width:0.3499999999999999;" width="86.8" x="1017.45" y="1139.1092"/><text fill="#000000" font-family="sans-serif" font-size="9.8" lengthAdjust="spacing" textLength="74.2" x="1023.75" y="1154.5844">modelRepository</text><text fill="#000000" font-family="sans-serif" font-size="9.8" lengthAdjust="spacing" textLength="77" x="1022.35" y="1167.6191">:ModelRepository</text><rect fill="#E2E2F0" height="35.8695" rx="1.75" ry="1.75" style="stroke:#181818;stroke-width:0.3499999999999999;" width="72.1" x="1111.25" y="21.9652"/><text fill="#000000" font-family="sans-serif" font-size="9.8" lengthAdjust="spacing" textLength="57.4" x="1118.6" y="37.4404">configuration</text><text fill="#000000" font-family="sans-serif" font-size="9.8" lengthAdjust="spacing" textLength="62.3" x="1116.15" y="50.4752">:Configuration</text><rect fill="#E2E2F0" height="35.8695" rx="1.75" ry="1.75" style="stroke:#181818;stroke-width:0.3499999999999999;" width="72.1" x="1111.25" y="1139.1092"/><text fill="#000000" font-family="sans-serif" font-size="9.8" lengthAdjust="spacing" textLength="57.4" x="1118.6" y="1154.5844">configuration</text><text fill="#000000" font-family="sans-serif" font-size="9.8" lengthAdjust="spacing" textLength="62.3" x="1116.15" y="1167.6191">:Configuration</text><rect fill="#FFFFFF" height="1061.6744" style="stroke:#181818;stroke-width:0.6999999999999998;" width="7" x="52.15" y="65.5348"/><rect fill="#FFFFFF" height="240.9408" style="stroke:#181818;stroke-width:0.6999999999999998;" width="7" x="299.25" y="81.8385"/><rect fill="#FFFFFF" height="259.3445" style="stroke:#181818;stroke-width:0.6999999999999998;" width="7" x="299.25" y="344.683"/><rect fill="#FFFFFF" height="21.9037" style="stroke:#181818;stroke-width:0.6999999999999998;" width="7" x="299.25" y="625.9312"/><rect fill="#FFFFFF" height="26.8037" style="stroke:#181818;stroke-width:0.6999999999999998;" width="7" x="299.25" y="669.7387"/><rect fill="#FFFFFF" height="408.7631" style="stroke:#181818;stroke-width:0.6999999999999998;" width="7" x="299.25" y="718.4461"/><rect fill="#FFFFFF" height="197.1334" style="stroke:#181818;stroke-width:0.6999999999999998;" width="7" x="447.65" y="103.7422"/><rect fill="#FFFFFF" height="197.1334" style="stroke:#181818;stroke-width:0.6999999999999998;" width="7" x="447.65" y="384.9904"/><rect fill="#FFFFFF" height="364.9557" style="stroke:#181818;stroke-width:0.6999999999999998;" width="7" x="447.65" y="740.3498"/><rect fill="#FFFFFF" height="161.026" style="stroke:#181818;stroke-width:0.6999999999999998;" width="7" x="451.15" y="767.8535"/><rect fill="#FFFFFF" height="21.9037" style="stroke:#181818;stroke-width:0.6999999999999998;" width="7" x="603.75" y="125.6459"/><rect fill="#FFFFFF" height="21.9037" style="stroke:#181818;stroke-width:0.6999999999999998;" width="7" x="603.75" y="406.8941"/><rect fill="#FFFFFF" height="21.9037" style="stroke:#181818;stroke-width:0.6999999999999998;" width="7" x="603.75" y="793.2572"/><rect fill="#FFFFFF" height="21.9037" style="stroke:#181818;stroke-width:0.6999999999999998;" width="7" x="689.85" y="169.4533"/><rect fill="#FFFFFF" height="21.9037" style="stroke:#181818;stroke-width:0.6999999999999998;" width="7" x="689.85" y="450.7016"/><rect fill="#FFFFFF" height="21.9037" style="stroke:#181818;stroke-width:0.6999999999999998;" width="7" x="689.85" y="837.0646"/><rect fill="#FFFFFF" height="21.9037" style="stroke:#181818;stroke-width:0.6999999999999998;" width="7" x="792.05" y="213.2607"/><rect fill="#FFFFFF" height="21.9037" style="stroke:#181818;stroke-width:0.6999999999999998;" width="7" x="792.05" y="494.509"/><rect fill="#FFFFFF" height="21.9037" style="stroke:#181818;stroke-width:0.6999999999999998;" width="7" x="792.05" y="880.8721"/><rect fill="#FFFFFF" height="21.9037" style="stroke:#181818;stroke-width:0.6999999999999998;" width="7" x="908.95" y="257.0682"/><rect fill="#FFFFFF" height="127.7186" style="stroke:#181818;stroke-width:0.6999999999999998;" width="7" x="908.95" y="955.6832"/><rect fill="#FFFFFF" height="29.6037" style="stroke:#181818;stroke-width:0.6999999999999998;" width="7" x="912.45" y="1026.9943"/><rect fill="#FFFFFF" height="21.9037" style="stroke:#181818;stroke-width:0.6999999999999998;" width="7" x="1057.35" y="538.3164"/><rect fill="#FFFFFF" height="21.9037" style="stroke:#181818;stroke-width:0.6999999999999998;" width="7" x="1143.8" y="977.5869"/><polygon fill="#181818" points="290.85,79.0385,297.85,81.8385,290.85,84.6385,293.65,81.8385" style="stroke:#181818;stroke-width:0.6999999999999998;"/><line style="stroke:#181818;stroke-width:0.6999999999999998;" x1="59.15" x2="295.05" y1="81.8385" y2="81.8385"/><text fill="#000000" font-family="sans-serif" font-size="9.1" font-weight="bold" lengthAdjust="spacing" textLength="4.9" x="64.05" y="78.1546">1</text><text fill="#000000" font-family="sans-serif" font-size="9.1" lengthAdjust="spacing" textLength="218.4" x="71.75" y="78.1546">requests to configure the drone list of a show proposal</text><polygon fill="#181818" points="439.25,100.9422,446.25,103.7422,439.25,106.5422,442.05,103.7422" style="stroke:#181818;stroke-width:0.6999999999999998;"/><line style="stroke:#181818;stroke-width:0.6999999999999998;" x1="306.25" x2="443.45" y1="103.7422" y2="103.7422"/><text fill="#000000" font-family="sans-serif" font-size="9.1" font-weight="bold" lengthAdjust="spacing" textLength="4.9" x="311.15" y="100.0583">2</text><text fill="#000000" font-family="sans-serif" font-size="9.1" lengthAdjust="spacing" textLength="91" x="318.85" y="100.0583">getShowProposalList()</text><polygon fill="#181818" points="595.35,122.8459,602.35,125.6459,595.35,128.4459,598.15,125.6459" style="stroke:#181818;stroke-width:0.6999999999999998;"/><line style="stroke:#181818;stroke-width:0.6999999999999998;stroke-dasharray:2.0,2.0;" x1="454.65" x2="599.55" y1="125.6459" y2="125.6459"/><text fill="#000000" font-family="sans-serif" font-size="9.1" font-weight="bold" lengthAdjust="spacing" textLength="4.9" x="459.55" y="121.962">3</text><text fill="#000000" font-family="sans-serif" font-size="9.1" lengthAdjust="spacing" textLength="92.4" x="467.25" y="121.962">getRepositoryFactory()</text><polygon fill="#181818" points="462.35,144.7496,455.35,147.5496,462.35,150.3496,459.55,147.5496" style="stroke:#181818;stroke-width:0.6999999999999998;"/><line style="stroke:#181818;stroke-width:0.6999999999999998;stroke-dasharray:2.0,2.0;" x1="458.15" x2="606.55" y1="147.5496" y2="147.5496"/><text fill="#000000" font-family="sans-serif" font-size="9.1" font-weight="bold" lengthAdjust="spacing" textLength="4.9" x="466.55" y="143.8657">4</text><text fill="#000000" font-family="sans-serif" font-size="9.1" lengthAdjust="spacing" textLength="70.7" x="474.25" y="143.8657">repositoryFactory</text><polygon fill="#181818" points="681.45,166.6533,688.45,169.4533,681.45,172.2533,684.25,169.4533" style="stroke:#181818;stroke-width:0.6999999999999998;"/><line style="stroke:#181818;stroke-width:0.6999999999999998;" x1="454.65" x2="685.65" y1="169.4533" y2="169.4533"/><text fill="#000000" font-family="sans-serif" font-size="9.1" font-weight="bold" lengthAdjust="spacing" textLength="4.9" x="459.55" y="165.7694">5</text><text fill="#000000" font-family="sans-serif" font-size="9.1" lengthAdjust="spacing" textLength="52.5" x="467.25" y="165.7694">getInstance()</text><polygon fill="#181818" points="462.35,188.557,455.35,191.357,462.35,194.157,459.55,191.357" style="stroke:#181818;stroke-width:0.6999999999999998;"/><line style="stroke:#181818;stroke-width:0.6999999999999998;stroke-dasharray:2.0,2.0;" x1="458.15" x2="692.65" y1="191.357" y2="191.357"/><text fill="#000000" font-family="sans-serif" font-size="9.1" font-weight="bold" lengthAdjust="spacing" textLength="4.9" x="466.55" y="187.6731">6</text><text fill="#000000" font-family="sans-serif" font-size="9.1" lengthAdjust="spacing" textLength="46.9" x="474.25" y="187.6731">repositories</text><polygon fill="#181818" points="783.65,210.4607,790.65,213.2607,783.65,216.0607,786.45,213.2607" style="stroke:#181818;stroke-width:0.6999999999999998;"/><line style="stroke:#181818;stroke-width:0.6999999999999998;" x1="454.65" x2="787.85" y1="213.2607" y2="213.2607"/><text fill="#000000" font-family="sans-serif" font-size="9.1" font-weight="bold" lengthAdjust="spacing" textLength="4.9" x="459.55" y="209.5769">7</text><text fill="#000000" font-family="sans-serif" font-size="9.1" lengthAdjust="spacing" textLength="86.1" x="467.25" y="209.5769">getModelRepository()</text><polygon fill="#181818" points="462.35,232.3645,455.35,235.1645,462.35,237.9645,459.55,235.1645" style="stroke:#181818;stroke-width:0.6999999999999998;"/><line style="stroke:#181818;stroke-width:0.6999999999999998;stroke-dasharray:2.0,2.0;" x1="458.15" x2="794.85" y1="235.1645" y2="235.1645"/><text fill="#000000" font-family="sans-serif" font-size="9.1" font-weight="bold" lengthAdjust="spacing" textLength="4.9" x="466.55" y="231.4806">8</text><text fill="#000000" font-family="sans-serif" font-size="9.1" lengthAdjust="spacing" textLength="67.9" x="474.25" y="231.4806">modelRepository</text><polygon fill="#181818" points="900.55,254.2682,907.55,257.0682,900.55,259.8682,903.35,257.0682" style="stroke:#181818;stroke-width:0.6999999999999998;"/><line style="stroke:#181818;stroke-width:0.6999999999999998;" x1="454.65" x2="904.75" y1="257.0682" y2="257.0682"/><text fill="#000000" font-family="sans-serif" font-size="9.1" font-weight="bold" lengthAdjust="spacing" textLength="4.9" x="459.55" y="253.3843">9</text><text fill="#000000" font-family="sans-serif" font-size="9.1" lengthAdjust="spacing" textLength="91" x="467.25" y="253.3843">getShowProposalList()</text><polygon fill="#181818" points="462.35,276.1719,455.35,278.9719,462.35,281.7719,459.55,278.9719" style="stroke:#181818;stroke-width:0.6999999999999998;"/><line style="stroke:#181818;stroke-width:0.6999999999999998;stroke-dasharray:2.0,2.0;" x1="458.15" x2="911.75" y1="278.9719" y2="278.9719"/><text fill="#000000" font-family="sans-serif" font-size="9.1" font-weight="bold" lengthAdjust="spacing" textLength="9.8" x="466.55" y="275.288">10</text><text fill="#000000" font-family="sans-serif" font-size="9.1" lengthAdjust="spacing" textLength="71.4" x="479.15" y="275.288">showProposalList</text><polygon fill="#181818" points="313.95,298.0756,306.95,300.8756,313.95,303.6756,311.15,300.8756" style="stroke:#181818;stroke-width:0.6999999999999998;"/><line style="stroke:#181818;stroke-width:0.6999999999999998;stroke-dasharray:2.0,2.0;" x1="309.75" x2="450.45" y1="300.8756" y2="300.8756"/><text fill="#000000" font-family="sans-serif" font-size="9.1" font-weight="bold" lengthAdjust="spacing" textLength="9.8" x="318.15" y="297.1917">11</text><text fill="#000000" font-family="sans-serif" font-size="9.1" lengthAdjust="spacing" textLength="71.4" x="330.75" y="297.1917">showProposalList</text><polygon fill="#181818" points="66.85,319.9793,59.85,322.7793,66.85,325.5793,64.05,322.7793" style="stroke:#181818;stroke-width:0.6999999999999998;"/><line style="stroke:#181818;stroke-width:0.6999999999999998;stroke-dasharray:2.0,2.0;" x1="62.65" x2="302.05" y1="322.7793" y2="322.7793"/><text fill="#000000" font-family="sans-serif" font-size="9.1" font-weight="bold" lengthAdjust="spacing" textLength="9.8" x="71.05" y="319.0954">12</text><text fill="#000000" font-family="sans-serif" font-size="9.1" lengthAdjust="spacing" textLength="191.8" x="83.65" y="319.0954">shows show proposal list and ask to select one</text><polygon fill="#181818" points="290.85,341.883,297.85,344.683,290.85,347.483,293.65,344.683" style="stroke:#181818;stroke-width:0.6999999999999998;"/><line style="stroke:#181818;stroke-width:0.6999999999999998;" x1="59.15" x2="295.05" y1="344.683" y2="344.683"/><text fill="#000000" font-family="sans-serif" font-size="9.1" font-weight="bold" lengthAdjust="spacing" textLength="9.8" x="64.05" y="340.9991">13</text><text fill="#000000" font-family="sans-serif" font-size="9.1" lengthAdjust="spacing" textLength="46.9" x="76.65" y="340.9991">selects one</text><path d="M7,355.183 L58.1,355.183 L58.1,361.6867 L51.1,368.6867 L7,368.6867 L7,355.183 " fill="#EEEEEE" style="stroke:#000000;stroke-width:1.0499999999999998;"/><rect fill="none" height="320.1557" style="stroke:#000000;stroke-width:1.0499999999999998;" width="1104.25" x="7" y="355.183"/><text fill="#000000" font-family="sans-serif" font-size="9.1" font-weight="bold" lengthAdjust="spacing" textLength="19.6" x="17.5" y="365.7028">loop</text><text fill="#000000" font-family="sans-serif" font-size="7.7" font-weight="bold" lengthAdjust="spacing" textLength="144.9" x="68.6" y="364.8921">[for each model for the configuration]</text><polygon fill="#181818" points="439.25,382.1904,446.25,384.9904,439.25,387.7904,442.05,384.9904" style="stroke:#181818;stroke-width:0.6999999999999998;"/><line style="stroke:#181818;stroke-width:0.6999999999999998;" x1="306.25" x2="443.45" y1="384.9904" y2="384.9904"/><text fill="#000000" font-family="sans-serif" font-size="9.1" font-weight="bold" lengthAdjust="spacing" textLength="9.8" x="311.15" y="381.3065">14</text><text fill="#000000" font-family="sans-serif" font-size="9.1" lengthAdjust="spacing" textLength="57.4" x="323.75" y="381.3065">getModelList()</text><polygon fill="#181818" points="595.35,404.0941,602.35,406.8941,595.35,409.6941,598.15,406.8941" style="stroke:#181818;stroke-width:0.6999999999999998;"/><line style="stroke:#181818;stroke-width:0.6999999999999998;stroke-dasharray:2.0,2.0;" x1="454.65" x2="599.55" y1="406.8941" y2="406.8941"/><text fill="#000000" font-family="sans-serif" font-size="9.1" font-weight="bold" lengthAdjust="spacing" textLength="9.8" x="459.55" y="403.2103">15</text><text fill="#000000" font-family="sans-serif" font-size="9.1" lengthAdjust="spacing" textLength="92.4" x="472.15" y="403.2103">getRepositoryFactory()</text><polygon fill="#181818" points="462.35,425.9979,455.35,428.7979,462.35,431.5979,459.55,428.7979" style="stroke:#181818;stroke-width:0.6999999999999998;"/><line style="stroke:#181818;stroke-width:0.6999999999999998;stroke-dasharray:2.0,2.0;" x1="458.15" x2="606.55" y1="428.7979" y2="428.7979"/><text fill="#000000" font-family="sans-serif" font-size="9.1" font-weight="bold" lengthAdjust="spacing" textLength="9.8" x="466.55" y="425.114">16</text><text fill="#000000" font-family="sans-serif" font-size="9.1" lengthAdjust="spacing" textLength="70.7" x="479.15" y="425.114">repositoryFactory</text><polygon fill="#181818" points="681.45,447.9016,688.45,450.7016,681.45,453.5016,684.25,450.7016" style="stroke:#181818;stroke-width:0.6999999999999998;"/><line style="stroke:#181818;stroke-width:0.6999999999999998;" x1="454.65" x2="685.65" y1="450.7016" y2="450.7016"/><text fill="#000000" font-family="sans-serif" font-size="9.1" font-weight="bold" lengthAdjust="spacing" textLength="9.8" x="459.55" y="447.0177">17</text><text fill="#000000" font-family="sans-serif" font-size="9.1" lengthAdjust="spacing" textLength="52.5" x="472.15" y="447.0177">getInstance()</text><polygon fill="#181818" points="462.35,469.8053,455.35,472.6053,462.35,475.4053,459.55,472.6053" style="stroke:#181818;stroke-width:0.6999999999999998;"/><line style="stroke:#181818;stroke-width:0.6999999999999998;stroke-dasharray:2.0,2.0;" x1="458.15" x2="692.65" y1="472.6053" y2="472.6053"/><text fill="#000000" font-family="sans-serif" font-size="9.1" font-weight="bold" lengthAdjust="spacing" textLength="9.8" x="466.55" y="468.9214">18</text><text fill="#000000" font-family="sans-serif" font-size="9.1" lengthAdjust="spacing" textLength="46.9" x="479.15" y="468.9214">repositories</text><polygon fill="#181818" points="783.65,491.709,790.65,494.509,783.65,497.309,786.45,494.509" style="stroke:#181818;stroke-width:0.6999999999999998;"/><line style="stroke:#181818;stroke-width:0.6999999999999998;" x1="454.65" x2="787.85" y1="494.509" y2="494.509"/><text fill="#000000" font-family="sans-serif" font-size="9.1" font-weight="bold" lengthAdjust="spacing" textLength="9.8" x="459.55" y="490.8251">19</text><text fill="#000000" font-family="sans-serif" font-size="9.1" lengthAdjust="spacing" textLength="119.7" x="472.15" y="490.8251">getShowProposalRepository()</text><polygon fill="#181818" points="462.35,513.6127,455.35,516.4127,462.35,519.2127,459.55,516.4127" style="stroke:#181818;stroke-width:0.6999999999999998;"/><line style="stroke:#181818;stroke-width:0.6999999999999998;stroke-dasharray:2.0,2.0;" x1="458.15" x2="794.85" y1="516.4127" y2="516.4127"/><text fill="#000000" font-family="sans-serif" font-size="9.1" font-weight="bold" lengthAdjust="spacing" textLength="9.8" x="466.55" y="512.7288">20</text><text fill="#000000" font-family="sans-serif" font-size="9.1" lengthAdjust="spacing" textLength="100.1" x="479.15" y="512.7288">showProposalRepository</text><polygon fill="#181818" points="1048.95,535.5164,1055.95,538.3164,1048.95,541.1164,1051.75,538.3164" style="stroke:#181818;stroke-width:0.6999999999999998;"/><line style="stroke:#181818;stroke-width:0.6999999999999998;" x1="454.65" x2="1053.15" y1="538.3164" y2="538.3164"/><text fill="#000000" font-family="sans-serif" font-size="9.1" font-weight="bold" lengthAdjust="spacing" textLength="9.8" x="459.55" y="534.6325">21</text><text fill="#000000" font-family="sans-serif" font-size="9.1" lengthAdjust="spacing" textLength="57.4" x="472.15" y="534.6325">getModelList()</text><polygon fill="#181818" points="462.35,557.4201,455.35,560.2201,462.35,563.0201,459.55,560.2201" style="stroke:#181818;stroke-width:0.6999999999999998;"/><line style="stroke:#181818;stroke-width:0.6999999999999998;stroke-dasharray:2.0,2.0;" x1="458.15" x2="1060.15" y1="560.2201" y2="560.2201"/><text fill="#000000" font-family="sans-serif" font-size="9.1" font-weight="bold" lengthAdjust="spacing" textLength="9.8" x="466.55" y="556.5362">22</text><text fill="#000000" font-family="sans-serif" font-size="9.1" lengthAdjust="spacing" textLength="39.2" x="479.15" y="556.5362">modelList</text><polygon fill="#181818" points="313.95,579.3238,306.95,582.1238,313.95,584.9238,311.15,582.1238" style="stroke:#181818;stroke-width:0.6999999999999998;"/><line style="stroke:#181818;stroke-width:0.6999999999999998;stroke-dasharray:2.0,2.0;" x1="309.75" x2="450.45" y1="582.1238" y2="582.1238"/><text fill="#000000" font-family="sans-serif" font-size="9.1" font-weight="bold" lengthAdjust="spacing" textLength="9.8" x="318.15" y="578.4399">23</text><text fill="#000000" font-family="sans-serif" font-size="9.1" lengthAdjust="spacing" textLength="39.2" x="330.75" y="578.4399">modelList</text><polygon fill="#181818" points="66.85,601.2275,59.85,604.0275,66.85,606.8275,64.05,604.0275" style="stroke:#181818;stroke-width:0.6999999999999998;"/><line style="stroke:#181818;stroke-width:0.6999999999999998;stroke-dasharray:2.0,2.0;" x1="62.65" x2="302.05" y1="604.0275" y2="604.0275"/><text fill="#000000" font-family="sans-serif" font-size="9.1" font-weight="bold" lengthAdjust="spacing" textLength="9.8" x="71.05" y="600.3437">24</text><text fill="#000000" font-family="sans-serif" font-size="9.1" lengthAdjust="spacing" textLength="188.3" x="83.65" y="600.3437">shows drone models list and ask to select one</text><polygon fill="#181818" points="290.85,623.1312,297.85,625.9312,290.85,628.7312,293.65,625.9312" style="stroke:#181818;stroke-width:0.6999999999999998;"/><line style="stroke:#181818;stroke-width:0.6999999999999998;" x1="59.15" x2="295.05" y1="625.9312" y2="625.9312"/><text fill="#000000" font-family="sans-serif" font-size="9.1" font-weight="bold" lengthAdjust="spacing" textLength="9.8" x="64.05" y="622.2474">25</text><text fill="#000000" font-family="sans-serif" font-size="9.1" lengthAdjust="spacing" textLength="46.9" x="76.65" y="622.2474">selects one</text><polygon fill="#181818" points="66.85,645.035,59.85,647.835,66.85,650.635,64.05,647.835" style="stroke:#181818;stroke-width:0.6999999999999998;"/><line style="stroke:#181818;stroke-width:0.6999999999999998;stroke-dasharray:2.0,2.0;" x1="62.65" x2="302.05" y1="647.835" y2="647.835"/><text fill="#000000" font-family="sans-serif" font-size="9.1" font-weight="bold" lengthAdjust="spacing" textLength="9.8" x="71.05" y="644.1511">26</text><text fill="#000000" font-family="sans-serif" font-size="9.1" lengthAdjust="spacing" textLength="210.7" x="83.65" y="644.1511">asks for the number of drones for the selected drone</text><polygon fill="#181818" points="290.85,666.9387,297.85,669.7387,290.85,672.5387,293.65,669.7387" style="stroke:#181818;stroke-width:0.6999999999999998;"/><line style="stroke:#181818;stroke-width:0.6999999999999998;" x1="59.15" x2="295.05" y1="669.7387" y2="669.7387"/><text fill="#000000" font-family="sans-serif" font-size="9.1" font-weight="bold" lengthAdjust="spacing" textLength="9.8" x="64.05" y="666.0548">27</text><text fill="#000000" font-family="sans-serif" font-size="9.1" lengthAdjust="spacing" textLength="52.5" x="76.65" y="666.0548">submits data</text><polygon fill="#181818" points="66.85,693.7424,59.85,696.5424,66.85,699.3424,64.05,696.5424" style="stroke:#181818;stroke-width:0.6999999999999998;"/><line style="stroke:#181818;stroke-width:0.6999999999999998;stroke-dasharray:2.0,2.0;" x1="62.65" x2="302.05" y1="696.5424" y2="696.5424"/><text fill="#000000" font-family="sans-serif" font-size="9.1" font-weight="bold" lengthAdjust="spacing" textLength="9.8" x="71.05" y="692.8585">28</text><text fill="#000000" font-family="sans-serif" font-size="9.1" lengthAdjust="spacing" textLength="199.5" x="83.65" y="692.8585">shows the configuration and asks for confirmation</text><polygon fill="#181818" points="290.85,715.6461,297.85,718.4461,290.85,721.2461,293.65,718.4461" style="stroke:#181818;stroke-width:0.6999999999999998;"/><line style="stroke:#181818;stroke-width:0.6999999999999998;" x1="59.15" x2="295.05" y1="718.4461" y2="718.4461"/><text fill="#000000" font-family="sans-serif" font-size="9.1" font-weight="bold" lengthAdjust="spacing" textLength="9.8" x="64.05" y="714.7622">29</text><text fill="#000000" font-family="sans-serif" font-size="9.1" lengthAdjust="spacing" textLength="54.6" x="76.65" y="714.7622">confirms data</text><polygon fill="#181818" points="439.25,737.5498,446.25,740.3498,439.25,743.1498,442.05,740.3498" style="stroke:#181818;stroke-width:0.6999999999999998;"/><line style="stroke:#181818;stroke-width:0.6999999999999998;" x1="306.25" x2="443.45" y1="740.3498" y2="740.3498"/><text fill="#000000" font-family="sans-serif" font-size="9.1" font-weight="bold" lengthAdjust="spacing" textLength="9.8" x="311.15" y="736.6659">30</text><text fill="#000000" font-family="sans-serif" font-size="9.1" lengthAdjust="spacing" textLength="115.5" x="323.75" y="736.6659">configureShow(configuration)</text><line style="stroke:#181818;stroke-width:0.6999999999999998;stroke-dasharray:2.0,2.0;" x1="454.65" x2="487.55" y1="758.7535" y2="758.7535"/><line style="stroke:#181818;stroke-width:0.6999999999999998;stroke-dasharray:2.0,2.0;" x1="487.55" x2="487.55" y1="758.7535" y2="767.8535"/><line style="stroke:#181818;stroke-width:0.6999999999999998;stroke-dasharray:2.0,2.0;" x1="458.85" x2="487.55" y1="767.8535" y2="767.8535"/><polygon fill="#181818" points="465.85,765.0535,458.85,767.8535,465.85,770.6535,463.05,767.8535" style="stroke:#181818;stroke-width:0.6999999999999998;"/><text fill="#000000" font-family="sans-serif" font-size="9.1" font-weight="bold" lengthAdjust="spacing" textLength="9.8" x="463.05" y="755.0696">31</text><text fill="#000000" font-family="sans-serif" font-size="9.1" lengthAdjust="spacing" textLength="119.7" x="475.65" y="755.0696">getShowProposalRepository()</text><polygon fill="#181818" points="595.35,790.4572,602.35,793.2572,595.35,796.0572,598.15,793.2572" style="stroke:#181818;stroke-width:0.6999999999999998;"/><line style="stroke:#181818;stroke-width:0.6999999999999998;" x1="458.15" x2="599.55" y1="793.2572" y2="793.2572"/><text fill="#000000" font-family="sans-serif" font-size="9.1" font-weight="bold" lengthAdjust="spacing" textLength="9.8" x="463.05" y="789.5733">32</text><text fill="#000000" font-family="sans-serif" font-size="9.1" lengthAdjust="spacing" textLength="119.7" x="475.65" y="789.5733">getShowProposalRepository()</text><polygon fill="#181818" points="465.85,812.3609,458.85,815.1609,465.85,817.9609,463.05,815.1609" style="stroke:#181818;stroke-width:0.6999999999999998;"/><line style="stroke:#181818;stroke-width:0.6999999999999998;stroke-dasharray:2.0,2.0;" x1="461.65" x2="606.55" y1="815.1609" y2="815.1609"/><text fill="#000000" font-family="sans-serif" font-size="9.1" font-weight="bold" lengthAdjust="spacing" textLength="9.8" x="470.05" y="811.4771">33</text><text fill="#000000" font-family="sans-serif" font-size="9.1" lengthAdjust="spacing" textLength="70.7" x="482.65" y="811.4771">repositoryFactory</text><polygon fill="#181818" points="681.45,834.2646,688.45,837.0646,681.45,839.8646,684.25,837.0646" style="stroke:#181818;stroke-width:0.6999999999999998;"/><line style="stroke:#181818;stroke-width:0.6999999999999998;" x1="458.15" x2="685.65" y1="837.0646" y2="837.0646"/><text fill="#000000" font-family="sans-serif" font-size="9.1" font-weight="bold" lengthAdjust="spacing" textLength="9.8" x="463.05" y="833.3808">34</text><text fill="#000000" font-family="sans-serif" font-size="9.1" lengthAdjust="spacing" textLength="52.5" x="475.65" y="833.3808">getInstance()</text><polygon fill="#181818" points="465.85,856.1684,458.85,858.9684,465.85,861.7684,463.05,858.9684" style="stroke:#181818;stroke-width:0.6999999999999998;"/><line style="stroke:#181818;stroke-width:0.6999999999999998;stroke-dasharray:2.0,2.0;" x1="461.65" x2="692.65" y1="858.9684" y2="858.9684"/><text fill="#000000" font-family="sans-serif" font-size="9.1" font-weight="bold" lengthAdjust="spacing" textLength="9.8" x="470.05" y="855.2845">35</text><text fill="#000000" font-family="sans-serif" font-size="9.1" lengthAdjust="spacing" textLength="46.9" x="482.65" y="855.2845">repositories</text><polygon fill="#181818" points="783.65,878.0721,790.65,880.8721,783.65,883.6721,786.45,880.8721" style="stroke:#181818;stroke-width:0.6999999999999998;"/><line style="stroke:#181818;stroke-width:0.6999999999999998;" x1="458.15" x2="787.85" y1="880.8721" y2="880.8721"/><text fill="#000000" font-family="sans-serif" font-size="9.1" font-weight="bold" lengthAdjust="spacing" textLength="9.8" x="463.05" y="877.1882">36</text><text fill="#000000" font-family="sans-serif" font-size="9.1" lengthAdjust="spacing" textLength="119.7" x="475.65" y="877.1882">getShowProposalRepository()</text><polygon fill="#181818" points="465.85,899.9758,458.85,902.7758,465.85,905.5758,463.05,902.7758" style="stroke:#181818;stroke-width:0.6999999999999998;"/><line style="stroke:#181818;stroke-width:0.6999999999999998;stroke-dasharray:2.0,2.0;" x1="461.65" x2="794.85" y1="902.7758" y2="902.7758"/><text fill="#000000" font-family="sans-serif" font-size="9.1" font-weight="bold" lengthAdjust="spacing" textLength="9.8" x="470.05" y="899.0919">37</text><text fill="#000000" font-family="sans-serif" font-size="9.1" lengthAdjust="spacing" textLength="100.1" x="482.65" y="899.0919">showProposalRepository</text><line style="stroke:#181818;stroke-width:0.6999999999999998;stroke-dasharray:2.0,2.0;" x1="458.15" x2="487.55" y1="928.1795" y2="928.1795"/><line style="stroke:#181818;stroke-width:0.6999999999999998;stroke-dasharray:2.0,2.0;" x1="487.55" x2="487.55" y1="928.1795" y2="937.2795"/><line style="stroke:#181818;stroke-width:0.6999999999999998;stroke-dasharray:2.0,2.0;" x1="454.65" x2="487.55" y1="937.2795" y2="937.2795"/><polygon fill="#181818" points="461.65,934.4795,454.65,937.2795,461.65,940.0795,458.85,937.2795" style="stroke:#181818;stroke-width:0.6999999999999998;"/><text fill="#000000" font-family="sans-serif" font-size="9.1" font-weight="bold" lengthAdjust="spacing" textLength="9.8" x="463.05" y="924.4956">38</text><text fill="#000000" font-family="sans-serif" font-size="9.1" lengthAdjust="spacing" textLength="100.1" x="475.65" y="924.4956">showProposalRepository</text><polygon fill="#181818" points="900.55,952.8832,907.55,955.6832,900.55,958.4832,903.35,955.6832" style="stroke:#181818;stroke-width:0.6999999999999998;"/><line style="stroke:#181818;stroke-width:0.6999999999999998;" x1="454.65" x2="904.75" y1="955.6832" y2="955.6832"/><text fill="#000000" font-family="sans-serif" font-size="9.1" font-weight="bold" lengthAdjust="spacing" textLength="9.8" x="459.55" y="951.9993">39</text><text fill="#000000" font-family="sans-serif" font-size="9.1" lengthAdjust="spacing" textLength="106.4" x="472.15" y="951.9993">createModel(configuration)</text><polygon fill="#181818" points="1135.4,974.7869,1142.4,977.5869,1135.4,980.3869,1138.2,977.5869" style="stroke:#181818;stroke-width:0.6999999999999998;"/><line style="stroke:#181818;stroke-width:0.6999999999999998;" x1="915.95" x2="1139.6" y1="977.5869" y2="977.5869"/><text fill="#000000" font-family="sans-serif" font-size="9.1" font-weight="bold" lengthAdjust="spacing" textLength="9.8" x="920.85" y="973.903">40</text><text fill="#000000" font-family="sans-serif" font-size="9.1" lengthAdjust="spacing" textLength="107.1" x="933.45" y="973.903">createConfig(configuration)</text><polygon fill="#181818" points="923.65,996.6906,916.65,999.4906,923.65,1002.2906,920.85,999.4906" style="stroke:#181818;stroke-width:0.6999999999999998;"/><line style="stroke:#181818;stroke-width:0.6999999999999998;stroke-dasharray:2.0,2.0;" x1="919.45" x2="1146.6" y1="999.4906" y2="999.4906"/><text fill="#000000" font-family="sans-serif" font-size="9.1" font-weight="bold" lengthAdjust="spacing" textLength="9.8" x="927.85" y="995.8067">41</text><text fill="#000000" font-family="sans-serif" font-size="9.1" lengthAdjust="spacing" textLength="51.1" x="940.45" y="995.8067">configuration</text><line style="stroke:#181818;stroke-width:0.6999999999999998;" x1="915.95" x2="948.85" y1="1017.8943" y2="1017.8943"/><line style="stroke:#181818;stroke-width:0.6999999999999998;" x1="948.85" x2="948.85" y1="1017.8943" y2="1026.9943"/><line style="stroke:#181818;stroke-width:0.6999999999999998;" x1="920.15" x2="948.85" y1="1026.9943" y2="1026.9943"/><polygon fill="#181818" points="927.15,1024.1943,920.15,1026.9943,927.15,1029.7943,924.35,1026.9943" style="stroke:#181818;stroke-width:0.6999999999999998;"/><text fill="#000000" font-family="sans-serif" font-size="9.1" font-weight="bold" lengthAdjust="spacing" textLength="9.8" x="924.35" y="1014.2104">42</text><text fill="#000000" font-family="sans-serif" font-size="9.1" lengthAdjust="spacing" textLength="119" x="936.95" y="1014.2104">addConfig(showConfiguration)</text><line style="stroke:#181818;stroke-width:0.6999999999999998;" x1="919.45" x2="948.85" y1="1055.898" y2="1055.898"/><line style="stroke:#181818;stroke-width:0.6999999999999998;" x1="948.85" x2="948.85" y1="1055.898" y2="1064.998"/><line style="stroke:#181818;stroke-width:0.6999999999999998;" x1="915.95" x2="948.85" y1="1064.998" y2="1064.998"/><polygon fill="#181818" points="922.95,1062.198,915.95,1064.998,922.95,1067.798,920.15,1064.998" style="stroke:#181818;stroke-width:0.6999999999999998;"/><text fill="#000000" font-family="sans-serif" font-size="9.1" font-weight="bold" lengthAdjust="spacing" textLength="9.8" x="924.35" y="1052.2142">43</text><text fill="#000000" font-family="sans-serif" font-size="9.1" lengthAdjust="spacing" textLength="15.4" x="936.95" y="1052.2142">true</text><polygon fill="#181818" points="462.35,1080.6018,455.35,1083.4018,462.35,1086.2018,459.55,1083.4018" style="stroke:#181818;stroke-width:0.6999999999999998;"/><line style="stroke:#181818;stroke-width:0.6999999999999998;stroke-dasharray:2.0,2.0;" x1="458.15" x2="911.75" y1="1083.4018" y2="1083.4018"/><text fill="#000000" font-family="sans-serif" font-size="9.1" font-weight="bold" lengthAdjust="spacing" textLength="9.8" x="466.55" y="1079.7179">44</text><text fill="#000000" font-family="sans-serif" font-size="9.1" lengthAdjust="spacing" textLength="15.4" x="479.15" y="1079.7179">true</text><polygon fill="#181818" points="313.95,1102.5055,306.95,1105.3055,313.95,1108.1055,311.15,1105.3055" style="stroke:#181818;stroke-width:0.6999999999999998;"/><line style="stroke:#181818;stroke-width:0.6999999999999998;stroke-dasharray:2.0,2.0;" x1="309.75" x2="450.45" y1="1105.3055" y2="1105.3055"/><text fill="#000000" font-family="sans-serif" font-size="9.1" font-weight="bold" lengthAdjust="spacing" textLength="9.8" x="318.15" y="1101.6216">45</text><text fill="#000000" font-family="sans-serif" font-size="9.1" lengthAdjust="spacing" textLength="15.4" x="330.75" y="1101.6216">true</text><polygon fill="#181818" points="63.35,1124.4092,56.35,1127.2092,63.35,1130.0092,60.55,1127.2092" style="stroke:#181818;stroke-width:0.6999999999999998;"/><line style="stroke:#181818;stroke-width:0.6999999999999998;stroke-dasharray:2.0,2.0;" x1="59.15" x2="302.05" y1="1127.2092" y2="1127.2092"/><text fill="#000000" font-family="sans-serif" font-size="9.1" font-weight="bold" lengthAdjust="spacing" textLength="9.8" x="67.55" y="1123.5253">46</text><text fill="#000000" font-family="sans-serif" font-size="9.1" lengthAdjust="spacing" textLength="110.6" x="80.15" y="1123.5253">displays success message</text><!--SRC=[lLVBRjim4BphAuXScXxy0pduuYI50ISsRETM860asXOYYIf9DV3VTxcqn8SeMK7QwX14rCvmoDrPqj_aUrxLLD2IbBpYwKdmaYM97Qrf-awFRAVE1IE2fOfMnu8v0V94C_wHLqToe8K4B6qKhvhoZGduFrLSa9l5zeaiU57GDoueZDmGAidzFW46bQTvJIj5RkuMl3hanzs9Vsm4hr-M6FMo78s2DoM0cHdEnNwx2k8tJCXSAbQb34Cs3zjT4B9bDPSvw3e_ek0p1cuVDkimKeIHFwkxCVZhRldyO_MmNp_xHF8YdqjQM3YGxQ8Va72tUTMSFb79C-OpFFaZ27rQtqUmAUva0nd9UGN8XVjkjdFz_8X9p7zJnNJ6alizcSqXA-GEgk5NmwIIH77ISZ6YJenaWbUC5B3jX1y89NgvfBuio_91RWayG0QKEdL0UcJAtOCLSDn-nx0EXad68SJC0AoJQi2zP8HepByUGSpCpjpBBKPbh8yqqyvDYisqoqg2Cr8MpcQAI0-PuDXyEPFXL1RcpMNBoSmQv3ewkLE2dGo7nn4Kr59KKy3MghlKvhJyjOMi1rkW8qC6y5272-yA00lo6X8Bfwqu044j6v3qAzHKBgqoyC2xhcx92kXy18ewfBoKiECA4okxu32quBmc1-YAG78oUuwlsZUU8wFUm8mxcpfWZ4-Q8swGwIOPCieqimmOPfff1erprJpnLZkeAQZyArwAD_X1nH7oLdlRkoValslpxPSE6xgySqSWfiVW6smKE-8kSnuWMlvLSyKC5ag0QMJdC7CnqQSIQh8V33FBp7XiVGwz9wbvAtEGb555RK0KnM3HslxMep6zPijwxQ3TCYCPFudIDWht6Tt22z8HF7eUTmUxjikjfoXsBFVgnj1yocuH8hU9NIMQ-iJxrTHdUcUS-loJ3lg5Blg_skZNMkcdskbiFauwsjV2xR2NdbGmYCJU75eaYLQSUuVnha5pl7DtbEPA7hETxnXzJ-_aQOAPhwzthmZNY1VzlXfBGRFi8aPltUAAe97rMKebccYZ7GJRca3e67RW0BEuCC69suApNDO5FSEri4bJ9YKfuG_y2axypkgymK-ZFm00]--></g></svg>