<?xml version="1.0" encoding="UTF-8" standalone="no"?><svg xmlns="http://www.w3.org/2000/svg" xmlns:xlink="http://www.w3.org/1999/xlink" contentStyleType="text/css" height="2094px" preserveAspectRatio="none" style="width:1354px;height:2094px;background:#FFFFFF;" version="1.1" viewBox="0 0 1354 2094" width="1354px" zoomAndPan="magnify"><defs/><g><!--cluster Backoffice--><g id="cluster_Backoffice"><path d="M666.83,307.7188 L775.83,307.7188 A3.75,3.75 0 0 1 778.33,310.2188 L785.33,337.2734 L1184.03,337.2734 A2.5,2.5 0 0 1 1186.53,339.7734 L1186.53,2085.2188 A2.5,2.5 0 0 1 1184.03,2087.7188 L666.83,2087.7188 A2.5,2.5 0 0 1 664.33,2085.2188 L664.33,310.2188 A2.5,2.5 0 0 1 666.83,307.7188 " fill="none" style="stroke:#000000;stroke-width:1.5;"/><line style="stroke:#000000;stroke-width:1.5;" x1="664.33" x2="785.33" y1="337.2734" y2="337.2734"/><text fill="#000000" font-family="sans-serif" font-size="20" font-weight="bold" lengthAdjust="spacing" textLength="108" x="668.33" y="329.0547">Backoffice</text></g><!--cluster Show Management--><g id="cluster_Show Management"><path d="M690.83,680.7188 L884.83,680.7188 A3.75,3.75 0 0 1 887.33,683.2188 L894.33,710.2734 L1160.03,710.2734 A2.5,2.5 0 0 1 1162.53,712.7734 L1162.53,1178.2188 A2.5,2.5 0 0 1 1160.03,1180.7188 L690.83,1180.7188 A2.5,2.5 0 0 1 688.33,1178.2188 L688.33,683.2188 A2.5,2.5 0 0 1 690.83,680.7188 " fill="none" style="stroke:#000000;stroke-width:1.5;"/><line style="stroke:#000000;stroke-width:1.5;" x1="688.33" x2="894.33" y1="710.2734" y2="710.2734"/><text fill="#000000" font-family="sans-serif" font-size="20" font-weight="bold" lengthAdjust="spacing" textLength="193" x="692.33" y="702.0547">Show Management</text></g><!--cluster Drone Management--><g id="cluster_Drone Management"><path d="M735.62,1204.7188 L938.62,1204.7188 A3.75,3.75 0 0 1 941.12,1207.2188 L948.12,1234.2734 L1115.24,1234.2734 A2.5,2.5 0 0 1 1117.74,1236.7734 L1117.74,1833.2188 A2.5,2.5 0 0 1 1115.24,1835.7188 L735.62,1835.7188 A2.5,2.5 0 0 1 733.12,1833.2188 L733.12,1207.2188 A2.5,2.5 0 0 1 735.62,1204.7188 " fill="none" style="stroke:#000000;stroke-width:1.5;"/><line style="stroke:#000000;stroke-width:1.5;" x1="733.12" x2="948.12" y1="1234.2734" y2="1234.2734"/><text fill="#000000" font-family="sans-serif" font-size="20" font-weight="bold" lengthAdjust="spacing" textLength="202" x="737.12" y="1226.0547">Drone Management</text></g><!--cluster Drone Configuration--><g id="cluster_Drone Configuration"><path d="M779.52,1859.7188 L993.52,1859.7188 A3.75,3.75 0 0 1 996.02,1862.2188 L1003.02,1889.2734 L1071.34,1889.2734 A2.5,2.5 0 0 1 1073.84,1891.7734 L1073.84,2061.2188 A2.5,2.5 0 0 1 1071.34,2063.7188 L779.52,2063.7188 A2.5,2.5 0 0 1 777.02,2061.2188 L777.02,1862.2188 A2.5,2.5 0 0 1 779.52,1859.7188 " fill="none" style="stroke:#000000;stroke-width:1.5;"/><line style="stroke:#000000;stroke-width:1.5;" x1="777.02" x2="1003.02" y1="1889.2734" y2="1889.2734"/><text fill="#000000" font-family="sans-serif" font-size="20" font-weight="bold" lengthAdjust="spacing" textLength="213" x="781.02" y="1881.0547">Drone Configuration</text></g><!--cluster Testing--><g id="cluster_Testing"><path d="M8.5,1440.7188 L87.5,1440.7188 A3.75,3.75 0 0 1 90,1443.2188 L97,1470.2734 L284.98,1470.2734 A2.5,2.5 0 0 1 287.48,1472.7734 L287.48,1790.2188 A2.5,2.5 0 0 1 284.98,1792.7188 L8.5,1792.7188 A2.5,2.5 0 0 1 6,1790.2188 L6,1443.2188 A2.5,2.5 0 0 1 8.5,1440.7188 " fill="none" style="stroke:#000000;stroke-width:1.5;"/><line style="stroke:#000000;stroke-width:1.5;" x1="6" x2="97" y1="1470.2734" y2="1470.2734"/><text fill="#000000" font-family="sans-serif" font-size="20" font-weight="bold" lengthAdjust="spacing" textLength="78" x="10" y="1462.0547">Testing</text></g><!--cluster Customer App--><g id="cluster_Customer App"><path d="M317.98,6.7188 L465.98,6.7188 A3.75,3.75 0 0 1 468.48,9.2188 L475.48,36.2734 L637.83,36.2734 A2.5,2.5 0 0 1 640.33,38.7734 L640.33,307.2188 A2.5,2.5 0 0 1 637.83,309.7188 L317.98,309.7188 A2.5,2.5 0 0 1 315.48,307.2188 L315.48,9.2188 A2.5,2.5 0 0 1 317.98,6.7188 " fill="none" style="stroke:#000000;stroke-width:1.5;"/><line style="stroke:#000000;stroke-width:1.5;" x1="315.48" x2="475.48" y1="36.2734" y2="36.2734"/><text fill="#000000" font-family="sans-serif" font-size="20" font-weight="bold" lengthAdjust="spacing" textLength="147" x="319.48" y="28.0547">Customer App</text></g><g id="elem_Manage users"><ellipse cx="925.433" cy="371.7194" fill="#F1F1F1" rx="97.903" ry="21.9806" style="stroke:#181818;stroke-width:0.5;"/><text fill="#000000" font-family="sans-serif" font-size="20" lengthAdjust="spacing" textLength="131" x="856.933" y="378.6373">Manage users</text></g><g id="elem_Manage proposal templates"><ellipse cx="925.4278" cy="550.7183" fill="#F1F1F1" rx="154.0478" ry="33.2096" style="stroke:#181818;stroke-width:0.5;"/><text fill="#000000" font-family="sans-serif" font-size="20" lengthAdjust="spacing" textLength="266" x="790.4091" y="557.2299">Manage proposal templates</text></g><g id="elem_Change client status"><ellipse cx="925.4349" cy="455.7237" fill="#F1F1F1" rx="122.2249" ry="26.845" style="stroke:#181818;stroke-width:0.5;"/><text fill="#000000" font-family="sans-serif" font-size="20" lengthAdjust="spacing" textLength="193" x="825.9349" y="462.6417">Change client status</text></g><g id="elem_Manage clients"><ellipse cx="925.4261" cy="641.718" fill="#F1F1F1" rx="101.9461" ry="22.7892" style="stroke:#181818;stroke-width:0.5;"/><text fill="#000000" font-family="sans-serif" font-size="20" lengthAdjust="spacing" textLength="142" x="851.4261" y="648.6359">Manage clients</text></g><g id="elem_Schedule show"><ellipse cx="925.4327" cy="1063.7233" fill="#F1F1F1" rx="101.5727" ry="22.7145" style="stroke:#181818;stroke-width:0.5;"/><text fill="#000000" font-family="sans-serif" font-size="20" lengthAdjust="spacing" textLength="141" x="851.9327" y="1070.6413">Schedule show</text></g><g id="elem_Generate show proposal and send to client"><ellipse cx="925.4301" cy="959.7188" fill="#F1F1F1" rx="221.1001" ry="46.62" style="stroke:#181818;stroke-width:0.5;"/><text fill="#000000" font-family="sans-serif" font-size="20" lengthAdjust="spacing" textLength="408" x="721.4301" y="965.2774">Generate show proposal and send to client</text></g><g id="elem_Configure show's drone list"><ellipse cx="925.4289" cy="845.7165" fill="#F1F1F1" rx="151.7889" ry="32.7578" style="stroke:#181818;stroke-width:0.5;"/><text fill="#000000" font-family="sans-serif" font-size="20" lengthAdjust="spacing" textLength="261" x="792.4793" y="852.4108">Configure show's drone list</text></g><g id="elem_Submit show request"><ellipse cx="925.433" cy="750.7153" fill="#F1F1F1" rx="125.583" ry="27.5166" style="stroke:#181818;stroke-width:0.5;"/><text fill="#000000" font-family="sans-serif" font-size="20" lengthAdjust="spacing" textLength="201" x="821.933" y="757.6333">Submit show request</text></g><g id="elem_Create Figure"><ellipse cx="925.4261" cy="1142.714" fill="#F1F1F1" rx="96.8261" ry="21.7652" style="stroke:#181818;stroke-width:0.5;"/><text fill="#000000" font-family="sans-serif" font-size="20" lengthAdjust="spacing" textLength="128" x="858.4261" y="1149.6319">Create Figure</text></g><g id="elem_List drone inventory"><ellipse cx="925.426" cy="1273.7139" fill="#F1F1F1" rx="120.976" ry="26.5952" style="stroke:#181818;stroke-width:0.5;"/><text fill="#000000" font-family="sans-serif" font-size="20" lengthAdjust="spacing" textLength="190" x="827.426" y="1280.6319">List drone inventory</text></g><g id="elem_List drone's maintenance history"><ellipse cx="925.4312" cy="1782.715" fill="#F1F1F1" rx="174.4312" ry="37.2862" style="stroke:#181818;stroke-width:0.5;"/><text fill="#000000" font-family="sans-serif" font-size="20" lengthAdjust="spacing" textLength="310" x="770.4312" y="1788.2736">List drone's maintenance history</text></g><g id="elem_Receive drone from maintenance"><ellipse cx="925.4308" cy="1672.7209" fill="#F1F1F1" rx="176.3108" ry="37.6622" style="stroke:#181818;stroke-width:0.5;"/><text fill="#000000" font-family="sans-serif" font-size="20" lengthAdjust="spacing" textLength="314" x="768.4308" y="1678.2795">Receive drone from maintenance</text></g><g id="elem_Send drone for maintenance"><ellipse cx="925.425" cy="1566.7218" fill="#F1F1F1" rx="155.865" ry="33.573" style="stroke:#181818;stroke-width:0.5;"/><text fill="#000000" font-family="sans-serif" font-size="20" lengthAdjust="spacing" textLength="270" x="788.7418" y="1573.0864">Send drone for maintenance</text></g><g id="elem_Remove drone from inventory"><ellipse cx="925.4323" cy="1463.7172" fill="#F1F1F1" rx="162.2923" ry="34.8585" style="stroke:#181818;stroke-width:0.5;"/><text fill="#000000" font-family="sans-serif" font-size="20" lengthAdjust="spacing" textLength="284" x="782.8624" y="1469.5622">Remove drone from inventory</text></g><g id="elem_Add drone to inventory"><ellipse cx="925.4257" cy="1364.7159" fill="#F1F1F1" rx="134.1357" ry="29.2271" style="stroke:#181818;stroke-width:0.5;"/><text fill="#000000" font-family="sans-serif" font-size="20" lengthAdjust="spacing" textLength="221" x="811.9257" y="1371.6339">Add drone to inventory</text></g><g id="elem_Create drone Model"><ellipse cx="925.431" cy="2020.7209" fill="#F1F1F1" rx="120.561" ry="26.5122" style="stroke:#181818;stroke-width:0.5;"/><text fill="#000000" font-family="sans-serif" font-size="20" lengthAdjust="spacing" textLength="189" x="827.931" y="2027.6389">Create drone Model</text></g><g id="elem_Create drone language"><ellipse cx="925.4286" cy="1930.7205" fill="#F1F1F1" rx="132.4086" ry="28.8817" style="stroke:#181818;stroke-width:0.5;"/><text fill="#000000" font-family="sans-serif" font-size="20" lengthAdjust="spacing" textLength="217" x="813.9286" y="1937.6384">Create drone language</text></g><g id="elem_Test show"><ellipse cx="146.744" cy="1502.722" fill="#F1F1F1" rx="81.924" ry="20.2132" style="stroke:#181818;stroke-width:0.5;"/><text fill="#000000" font-family="sans-serif" font-size="20" lengthAdjust="spacing" textLength="96" x="95.744" y="1509.64">Test show</text></g><g id="elem_Test Figure"><ellipse cx="146.7405" cy="1578.7169" fill="#F1F1F1" rx="89.6405" ry="20.3281" style="stroke:#181818;stroke-width:0.5;"/><text fill="#000000" font-family="sans-serif" font-size="20" lengthAdjust="spacing" textLength="107" x="90.2405" y="1585.6348">Test Figure</text></g><g id="elem_Generate show code"><ellipse cx="146.738" cy="1660.7203" fill="#F1F1F1" rx="121.808" ry="26.7616" style="stroke:#181818;stroke-width:0.5;"/><text fill="#000000" font-family="sans-serif" font-size="20" lengthAdjust="spacing" textLength="192" x="47.738" y="1667.6383">Generate show code</text></g><g id="elem_Generate figure code"><ellipse cx="146.7398" cy="1749.7167" fill="#F1F1F1" rx="124.7398" ry="27.348" style="stroke:#181818;stroke-width:0.5;"/><text fill="#000000" font-family="sans-serif" font-size="20" lengthAdjust="spacing" textLength="199" x="44.2398" y="1756.6347">Generate figure code</text></g><g id="elem_Consult my shows agenda"><ellipse cx="477.9045" cy="261.7236" fill="#F1F1F1" rx="146.4245" ry="31.6849" style="stroke:#181818;stroke-width:0.5;"/><text fill="#000000" font-family="sans-serif" font-size="20" lengthAdjust="spacing" textLength="249" x="350.4045" y="268.6416">Consult my shows agenda</text></g><g id="elem_Approve/Reject proposal"><ellipse cx="477.8994" cy="163.7166" fill="#F1F1F1" rx="142.4394" ry="30.8879" style="stroke:#181818;stroke-width:0.5;"/><text fill="#000000" font-family="sans-serif" font-size="20" lengthAdjust="spacing" textLength="240" x="354.8994" y="170.6346">Approve/Reject proposal</text></g><g id="elem_Analyse proposal"><ellipse cx="477.8974" cy="73.7222" fill="#F1F1F1" rx="110.8174" ry="24.5635" style="stroke:#181818;stroke-width:0.5;"/><text fill="#000000" font-family="sans-serif" font-size="20" lengthAdjust="spacing" textLength="165" x="392.3974" y="80.6402">Analyse proposal</text></g><!--entity admin--><g id="elem_admin"><ellipse cx="477.9" cy="345.9388" fill="#F1F1F1" rx="16" ry="16" style="stroke:#181818;stroke-width:1.5;"/><path d="M477.9,365.9388 C481.9,365.9388 484.9,365.9388 488.9,361.9388 C496.9,361.9388 504.9,369.9388 504.9,377.9388 L504.9,381.9388 C504.9,385.9388 500.9,389.9388 496.9,389.9388 L458.9,389.9388 C454.9,389.9388 450.9,385.9388 450.9,381.9388 L450.9,377.9388 C450.9,369.9388 458.9,361.9388 466.9,361.9388 C470.9,365.9388 473.9,365.9388 477.9,365.9388 " fill="#F1F1F1" style="stroke:#181818;stroke-width:1.5;"/><text fill="#000000" font-family="sans-serif" font-size="20" lengthAdjust="spacing" textLength="64" x="445.9" y="410.7747">Admin</text></g><!--entity manager--><g id="elem_manager"><ellipse cx="477.9" cy="524.9388" fill="#F1F1F1" rx="16" ry="16" style="stroke:#181818;stroke-width:1.5;"/><path d="M477.9,544.9388 C481.9,544.9388 484.9,544.9388 488.9,540.9388 C496.9,540.9388 504.9,548.9388 504.9,556.9388 L504.9,560.9388 C504.9,564.9388 500.9,568.9388 496.9,568.9388 L458.9,568.9388 C454.9,568.9388 450.9,564.9388 450.9,560.9388 L450.9,556.9388 C450.9,548.9388 458.9,540.9388 466.9,540.9388 C470.9,544.9388 473.9,544.9388 477.9,544.9388 " fill="#F1F1F1" style="stroke:#181818;stroke-width:1.5;"/><text fill="#000000" font-family="sans-serif" font-size="20" lengthAdjust="spacing" textLength="132" x="411.9" y="589.7747">CRM Manager</text></g><!--entity collaborator--><g id="elem_collaborator"><ellipse cx="477.9" cy="876.9388" fill="#F1F1F1" rx="16" ry="16" style="stroke:#181818;stroke-width:1.5;"/><path d="M477.9,896.9388 C481.9,896.9388 484.9,896.9388 488.9,892.9388 C496.9,892.9388 504.9,900.9388 504.9,908.9388 L504.9,912.9388 C504.9,916.9388 500.9,920.9388 496.9,920.9388 L458.9,920.9388 C454.9,920.9388 450.9,916.9388 450.9,912.9388 L450.9,908.9388 C450.9,900.9388 458.9,892.9388 466.9,892.9388 C470.9,896.9388 473.9,896.9388 477.9,896.9388 " fill="#F1F1F1" style="stroke:#181818;stroke-width:1.5;"/><text fill="#000000" font-family="sans-serif" font-size="20" lengthAdjust="spacing" textLength="170" x="392.9" y="941.7747">CRM Collaborator</text></g><!--entity designer--><g id="elem_designer"><ellipse cx="1277.03" cy="1116.9388" fill="#F1F1F1" rx="16" ry="16" style="stroke:#181818;stroke-width:1.5;"/><path d="M1277.03,1136.9388 C1281.03,1136.9388 1284.03,1136.9388 1288.03,1132.9388 C1296.03,1132.9388 1304.03,1140.9388 1304.03,1148.9388 L1304.03,1152.9388 C1304.03,1156.9388 1300.03,1160.9388 1296.03,1160.9388 L1258.03,1160.9388 C1254.03,1160.9388 1250.03,1156.9388 1250.03,1152.9388 L1250.03,1148.9388 C1250.03,1140.9388 1258.03,1132.9388 1266.03,1132.9388 C1270.03,1136.9388 1273.03,1136.9388 1277.03,1136.9388 " fill="#F1F1F1" style="stroke:#181818;stroke-width:1.5;"/><text fill="#000000" font-family="sans-serif" font-size="20" lengthAdjust="spacing" textLength="141" x="1206.53" y="1181.7747">Show Designer</text></g><!--entity drone--><g id="elem_drone"><ellipse cx="477.9" cy="1593.9388" fill="#F1F1F1" rx="16" ry="16" style="stroke:#181818;stroke-width:1.5;"/><path d="M477.9,1613.9388 C481.9,1613.9388 484.9,1613.9388 488.9,1609.9388 C496.9,1609.9388 504.9,1617.9388 504.9,1625.9388 L504.9,1629.9388 C504.9,1633.9388 500.9,1637.9388 496.9,1637.9388 L458.9,1637.9388 C454.9,1637.9388 450.9,1633.9388 450.9,1629.9388 L450.9,1625.9388 C450.9,1617.9388 458.9,1609.9388 466.9,1609.9388 C470.9,1613.9388 473.9,1613.9388 477.9,1613.9388 " fill="#F1F1F1" style="stroke:#181818;stroke-width:1.5;"/><text fill="#000000" font-family="sans-serif" font-size="20" lengthAdjust="spacing" textLength="110" x="422.9" y="1658.7747">Drone Tech</text></g><!--entity customer--><g id="elem_customer"><ellipse cx="146.74" cy="137.9388" fill="#F1F1F1" rx="16" ry="16" style="stroke:#181818;stroke-width:1.5;"/><path d="M146.74,157.9388 C150.74,157.9388 153.74,157.9388 157.74,153.9388 C165.74,153.9388 173.74,161.9388 173.74,169.9388 L173.74,173.9388 C173.74,177.9388 169.74,181.9388 165.74,181.9388 L127.74,181.9388 C123.74,181.9388 119.74,177.9388 119.74,173.9388 L119.74,169.9388 C119.74,161.9388 127.74,153.9388 135.74,153.9388 C139.74,157.9388 142.74,157.9388 146.74,157.9388 " fill="#F1F1F1" style="stroke:#181818;stroke-width:1.5;"/><text fill="#000000" font-family="sans-serif" font-size="20" lengthAdjust="spacing" textLength="93" x="100.24" y="202.7747">Customer</text></g><!--link admin to Manage users--><g id="link_admin_Manage users"><path d="M510.23,371.7188 C573.77,371.7188 720.28,371.7188 820.85,371.7188 " fill="none" id="admin-to-Manage users" style="stroke:#181818;stroke-width:1.0;"/><polygon fill="#181818" points="825.59,371.7188,816.59,367.7188,820.59,371.7188,816.59,375.7188,825.59,371.7188" style="stroke:#181818;stroke-width:1.0;"/></g><!--link manager to Manage proposal templates--><g id="link_manager_Manage proposal templates"><path d="M544.16,550.7188 C602,550.7188 688.82,550.7188 764.92,550.7188 " fill="none" id="manager-to-Manage proposal templates" style="stroke:#181818;stroke-width:1.0;"/><polygon fill="#181818" points="769.79,550.7188,760.79,546.7188,764.79,550.7188,760.79,554.7188,769.79,550.7188" style="stroke:#181818;stroke-width:1.0;"/></g><!--link manager to Change client status--><g id="link_manager_Change client status"><path d="M544.15,529.9788 C577.48,519.8888 618.81,508.1588 656.33,499.7188 C707.96,488.0988 765.83,478.2188 814.56,470.7787 " fill="none" id="manager-to-Change client status" style="stroke:#181818;stroke-width:1.0;"/><polygon fill="#181818" points="819.26,470.0587,809.7655,467.4408,814.3155,470.8018,810.9544,475.3519,819.26,470.0587" style="stroke:#181818;stroke-width:1.0;"/></g><!--link manager to Manage clients--><g id="link_manager_Manage clients"><path d="M544.1,571.6888 C577.41,581.8387 618.75,593.5487 656.33,601.7188 C712.78,613.9888 776.74,623.6888 828.03,630.4588 " fill="none" id="manager-to-Manage clients" style="stroke:#181818;stroke-width:1.0;"/><polygon fill="#181818" points="832.72,631.0787,824.3237,625.9307,827.7634,630.4217,823.2724,633.8613,832.72,631.0787" style="stroke:#181818;stroke-width:1.0;"/></g><!--link collaborator to Manage clients--><g id="link_collaborator_Manage clients"><path d="M506.68,859.0487 C537.68,813.9588 592.02,744.9588 656.33,706.7188 C707.26,676.4288 771.58,660.2388 824.45,651.5887 " fill="none" id="collaborator-to-Manage clients" style="stroke:#181818;stroke-width:1.0;"/><polygon fill="#181818" points="829.35,650.8087,819.8265,648.2981,824.4142,651.6076,821.1047,656.1953,829.35,650.8087" style="stroke:#181818;stroke-width:1.0;"/></g><!--link collaborator to Schedule show--><g id="link_collaborator_Schedule show"><path d="M529.31,946.2588 C563.03,972.9588 609.64,1005.4288 656.33,1023.7188 C707.7,1043.8388 768.25,1053.9188 818.79,1058.9388 " fill="none" id="collaborator-to-Schedule show" style="stroke:#181818;stroke-width:1.0;"/><polygon fill="#181818" points="823.71,1059.4088,815.1265,1054.5793,818.7322,1058.9381,814.3734,1062.5438,823.71,1059.4088" style="stroke:#181818;stroke-width:1.0;"/></g><!--link collaborator to Generate show proposal and send to client--><g id="link_collaborator_Generate show proposal and send to client"><path d="M563.23,913.5088 C610.33,919.5288 671.1,927.3087 729.32,934.7588 " fill="none" id="collaborator-to-Generate show proposal and send to client" style="stroke:#181818;stroke-width:1.0;"/><polygon fill="#181818" points="734.17,935.3788,725.7447,930.2784,729.2097,934.7498,724.7383,938.2148,734.17,935.3788" style="stroke:#181818;stroke-width:1.0;"/></g><!--link collaborator to Configure show's drone list--><g id="link_collaborator_Configure show's drone list"><path d="M563.23,891.9288 C626.53,883.8287 714.55,872.5687 787.85,863.1888 " fill="none" id="collaborator-to-Configure show's drone list" style="stroke:#181818;stroke-width:1.0;"/><polygon fill="#181818" points="792.5,862.5988,783.0683,859.7627,787.5397,863.2277,784.0747,867.6991,792.5,862.5988" style="stroke:#181818;stroke-width:1.0;"/></g><!--link collaborator to Submit show request--><g id="link_collaborator_Submit show request"><path d="M538.41,859.0587 C571.56,836.7887 614.5,811.1988 656.33,795.7188 C702.29,778.7088 755.07,768.0887 801.59,761.4888 " fill="none" id="collaborator-to-Submit show request" style="stroke:#181818;stroke-width:1.0;"/><polygon fill="#181818" points="806.31,760.8287,796.8468,758.0997,801.3572,761.5139,797.943,766.0242,806.31,760.8287" style="stroke:#181818;stroke-width:1.0;"/></g><!--reverse link Create Figure to designer--><g id="link_Create Figure_designer"><path d="M1028.6,1142.7188 C1085.63,1142.7188 1155.2,1142.7188 1206.03,1142.7188 " fill="none" id="Create Figure-backto-designer" style="stroke:#181818;stroke-width:1.0;"/><polygon fill="#181818" points="1023.93,1142.7188,1032.93,1146.7188,1028.93,1142.7188,1032.93,1138.7188,1023.93,1142.7188" style="stroke:#181818;stroke-width:1.0;"/></g><!--link collaborator to List drone inventory--><g id="link_collaborator_List drone inventory"><path d="M495.79,946.3187 C521.5,1007.2188 576.11,1117.3888 656.33,1180.7188 C704.64,1218.8587 769.65,1241.9188 823.55,1255.5388 " fill="none" id="collaborator-to-List drone inventory" style="stroke:#181818;stroke-width:1.0;"/><polygon fill="#181818" points="828.26,1256.7088,820.4821,1250.6669,823.4059,1255.5095,818.5633,1258.4334,828.26,1256.7088" style="stroke:#181818;stroke-width:1.0;"/></g><!--link drone to List drone inventory--><g id="link_drone_List drone inventory"><path d="M491.39,1575.9588 C513.05,1508.6287 564.31,1380.8288 656.33,1317.7188 C697.37,1289.5688 750.13,1277.1487 797.97,1272.2788 " fill="none" id="drone-to-List drone inventory" style="stroke:#181818;stroke-width:1.0;"/><polygon fill="#181818" points="802.87,1271.8088,793.5334,1268.6737,797.8922,1272.2794,794.2865,1276.6382,802.87,1271.8088" style="stroke:#181818;stroke-width:1.0;"/></g><!--link drone to List drone's maintenance history--><g id="link_drone_List drone's maintenance history"><path d="M533.05,1659.4588 C566.94,1682.5588 612.36,1710.4388 656.33,1727.7188 C692.85,1742.0788 733.7,1752.8888 772.3,1760.9588 " fill="none" id="drone-to-List drone's maintenance history" style="stroke:#181818;stroke-width:1.0;"/><polygon fill="#181818" points="776.99,1761.9288,768.9876,1756.1875,772.0938,1760.9152,767.366,1764.0214,776.99,1761.9288" style="stroke:#181818;stroke-width:1.0;"/></g><!--link drone to Receive drone from maintenance--><g id="link_drone_Receive drone from maintenance"><path d="M533.09,1626.1688 C590.27,1632.9688 683.14,1644.0188 764.06,1653.6388 " fill="none" id="drone-to-Receive drone from maintenance" style="stroke:#181818;stroke-width:1.0;"/><polygon fill="#181818" points="768.86,1654.2088,760.3898,1649.1832,763.8943,1653.6237,759.4538,1657.1282,768.86,1654.2088" style="stroke:#181818;stroke-width:1.0;"/></g><!--link drone to Send drone for maintenance--><g id="link_drone_Send drone for maintenance"><path d="M533.09,1613.2688 C594.51,1605.9688 697.12,1593.7588 781.86,1583.6788 " fill="none" id="drone-to-Send drone for maintenance" style="stroke:#181818;stroke-width:1.0;"/><polygon fill="#181818" points="786.68,1583.1087,777.2738,1580.1893,781.7143,1583.6938,778.2098,1588.1343,786.68,1583.1087" style="stroke:#181818;stroke-width:1.0;"/></g><!--link drone to Remove drone from inventory--><g id="link_drone_Remove drone from inventory"><path d="M533.2,1581.3587 C567.13,1559.0788 612.57,1532.2388 656.33,1515.7188 C695.12,1501.0788 738.69,1490.3688 779.26,1482.6188 " fill="none" id="drone-to-Remove drone from inventory" style="stroke:#181818;stroke-width:1.0;"/><polygon fill="#181818" points="783.73,1481.7788,774.1438,1479.5193,778.8169,1482.7071,775.6292,1487.3802,783.73,1481.7788" style="stroke:#181818;stroke-width:1.0;"/></g><!--link drone to Add drone to inventory--><g id="link_drone_Add drone to inventory"><path d="M503.37,1576.0388 C532.97,1527.5688 587.5,1451.0388 656.33,1411.7188 C695.44,1389.3787 742.59,1377.1588 786.37,1370.6188 " fill="none" id="drone-to-Add drone to inventory" style="stroke:#181818;stroke-width:1.0;"/><polygon fill="#181818" points="791.31,1369.9088,781.8304,1367.2371,786.3614,1370.6239,782.9746,1375.1548,791.31,1369.9088" style="stroke:#181818;stroke-width:1.0;"/></g><!--link drone to Create drone Model--><g id="link_drone_Create drone Model"><path d="M487.18,1663.3988 C504.17,1740.2088 550.69,1898.6988 656.33,1976.7188 C697.08,2006.8188 750.83,2019.3988 799.5,2023.8788 " fill="none" id="drone-to-Create drone Model" style="stroke:#181818;stroke-width:1.0;"/><polygon fill="#181818" points="804.2,2024.2788,795.5756,2019.5227,799.2184,2023.8505,794.8905,2027.4933,804.2,2024.2788" style="stroke:#181818;stroke-width:1.0;"/></g><!--link drone to Create drone language--><g id="link_drone_Create drone language"><path d="M504.55,1663.4488 C535.03,1711.8988 590.19,1789.3088 656.33,1835.7188 C706.25,1870.7488 770.39,1894.0888 823.42,1908.8587 " fill="none" id="drone-to-Create drone language" style="stroke:#181818;stroke-width:1.0;"/><polygon fill="#181818" points="828.04,1910.1288,820.4065,1903.9055,823.2155,1908.8156,818.3054,1911.6246,828.04,1910.1288" style="stroke:#181818;stroke-width:1.0;"/></g><!--reverse link Test show to drone--><g id="link_Test show_drone"><path d="M215.17,1517.6688 C240.6,1523.9288 269.63,1531.8288 295.48,1540.7188 C339.17,1555.7488 387.03,1576.7888 422.62,1593.3788 " fill="none" id="Test show-backto-drone" style="stroke:#181818;stroke-width:1.0;"/><polygon fill="#181818" points="210.59,1516.5488,218.3846,1522.569,215.4474,1517.7345,220.2819,1514.7972,210.59,1516.5488" style="stroke:#181818;stroke-width:1.0;"/></g><!--reverse link Test Figure to drone--><g id="link_Test Figure_drone"><path d="M232.27,1589.2488 C292.16,1596.7088 370.75,1606.4988 422.49,1612.9388 " fill="none" id="Test Figure-backto-drone" style="stroke:#181818;stroke-width:1.0;"/><polygon fill="#181818" points="227.67,1588.6788,236.1098,1593.7552,232.632,1589.2936,237.0936,1585.8159,227.67,1588.6788" style="stroke:#181818;stroke-width:1.0;"/></g><!--reverse link Generate show code to drone--><g id="link_Generate show code_drone"><path d="M260.02,1646.7288 C315.02,1639.8788 378.72,1631.9488 422.79,1626.4588 " fill="none" id="Generate show code-backto-drone" style="stroke:#181818;stroke-width:1.0;"/><polygon fill="#181818" points="255.2,1647.3288,264.6236,1650.1916,260.162,1646.7139,263.6398,1642.2523,255.2,1647.3288" style="stroke:#181818;stroke-width:1.0;"/></g><!--reverse link Generate figure code to drone--><g id="link_Generate figure code_drone"><path d="M232.04,1726.3088 C252.97,1719.8788 275.21,1712.5088 295.48,1704.7188 C339.15,1687.9388 387.01,1665.3288 422.61,1647.6388 " fill="none" id="Generate figure code-backto-drone" style="stroke:#181818;stroke-width:1.0;"/><polygon fill="#181818" points="227.34,1727.7388,237.1149,1728.9438,232.1232,1726.2824,234.7847,1721.2907,227.34,1727.7388" style="stroke:#181818;stroke-width:1.0;"/></g><!--link customer to Consult my shows agenda--><g id="link_customer_Consult my shows agenda"><path d="M193.51,177.5387 C225.44,187.1588 269.04,200.2687 307.48,211.7188 C332.14,219.0587 358.83,226.9588 383.57,234.2687 " fill="none" id="customer-to-Consult my shows agenda" style="stroke:#181818;stroke-width:1.0;"/><polygon fill="#181818" points="388.37,235.6788,380.8726,229.2921,383.575,234.2617,378.6054,236.9641,388.37,235.6788" style="stroke:#181818;stroke-width:1.0;"/></g><!--link customer to Approve/Reject proposal--><g id="link_customer_Approve/Reject proposal"><path d="M193.51,163.7188 C228.83,163.7188 279.78,163.7188 328.77,163.7188 " fill="none" id="customer-to-Approve/Reject proposal" style="stroke:#181818;stroke-width:1.0;"/><polygon fill="#181818" points="333.53,163.7188,324.53,159.7188,328.53,163.7188,324.53,167.7188,333.53,163.7188" style="stroke:#181818;stroke-width:1.0;"/></g><!--link customer to Analyse proposal--><g id="link_customer_Analyse proposal"><path d="M193.7,149.2587 C225.53,139.3988 268.94,126.2787 307.48,115.7188 C335.74,107.9787 366.82,100.0887 394.56,93.2787 " fill="none" id="customer-to-Analyse proposal" style="stroke:#181818;stroke-width:1.0;"/><polygon fill="#181818" points="399.32,92.1088,389.6281,90.3572,394.4626,93.2945,391.5254,98.129,399.32,92.1088" style="stroke:#181818;stroke-width:1.0;"/></g><!--SRC=[dLJDZfim4Bxp52CksnoYLds0IcbMsqjp2Vi2isO0DyQcjjbLMkNTEs13JSkoLJaWszyt_p_k8dM75bjbn8LAAAd2Nla7etqXVn1y_90fgZnu0rRMZOTIMX9U6fsvIHHGU6CBVrK4-4BEj9JbXxALEWTqWCCfou_d4vnGOqrsV6x3EG17enG-6OkiQ4H5yf3bHMDUu9wSh7MKBkCbo- -jqGIF99e035TMsZlFVaHbyP9rA2vi5FBFV31L9GNbFpFWRtGIzljFy2uu2RqZwtOZ65rTm9qrdN6em5FRAVIqnZqsg9ahb2JjmNdq_ORAG8k4D06li-Q0nWm5HijmZ6fTKI4QAdikbcEXtGRn2t66ERIH-3jYr2KuuXytHV1cIydHw4hMlGrQxcA5G4ctALRqJwtqmRAbxpsbzAdwiE-xqOQbmSs7qKwWtPRv2LtoZmdwohv5DwL-PhQnryJu2FmlyMxeVAazQTI2e67WDQ4p2PBF59ygQzfKT5Ma6CeI-HpDM_GpjMPfO3kCGpbfvzB_GLrD-5Hy73P6alD4PwnTU3cPajJkJPhYiUhPp6JvbisZ_SYD8dKTJ4Nvq2G3ahJytrZQFWjqEGU2VTmYnMuFjCIpUIV1eUjYBgRDD8-Au-KBxNMqnAkpvdhYReNAAYoNxlsPll4wdcTpbQfHNHqbdDil]--></g></svg>