<svg xmlns="http://www.w3.org/2000/svg" xmlns:xlink="http://www.w3.org/1999/xlink" contentStyleType="text/css" height="1052.4px" preserveAspectRatio="none" style="width:603px;height:1052px;background:#FFFFFF;" version="1.1" viewBox="0 0 603 1052" width="603px" zoomAndPan="magnify"><defs/><g><!--cluster Backoffice--><g id="cluster_Backoffice"><path d="M304.5,157.2082 L347.584,157.2082 A2.25,2.25 0 0 1 349.084,158.7082 L353.284,171.9809 L528.9,171.9809 A1.5,1.5 0 0 1 530.4,173.4809 L530.4,1046.7082 A1.5,1.5 0 0 1 528.9,1048.2082 L304.5,1048.2082 A1.5,1.5 0 0 1 303,1046.7082 L303,158.7082 A1.5,1.5 0 0 1 304.5,157.2082 " fill="none" style="stroke:#000000;stroke-width:0.8999999999999999;"/><line style="stroke:#000000;stroke-width:0.8999999999999999;" x1="303" x2="353.284" y1="171.9809" y2="171.9809"/><text fill="#000000" font-family="sans-serif" font-size="8.4" font-weight="bold" lengthAdjust="spacing" textLength="42.484" x="305.4" y="167.4727">Backoffice</text></g><!--cluster Show Management--><g id="cluster_Show Management"><path d="M318.9,346.2082 L395.5758,346.2082 A2.25,2.25 0 0 1 397.0758,347.7082 L401.2758,360.9809 L514.5,360.9809 A1.5,1.5 0 0 1 516,362.4809 L516,593.1082 A1.5,1.5 0 0 1 514.5,594.6082 L318.9,594.6082 A1.5,1.5 0 0 1 317.4,593.1082 L317.4,347.7082 A1.5,1.5 0 0 1 318.9,346.2082 " fill="none" style="stroke:#000000;stroke-width:0.8999999999999999;"/><line style="stroke:#000000;stroke-width:0.8999999999999999;" x1="317.4" x2="401.2758" y1="360.9809" y2="360.9809"/><text fill="#000000" font-family="sans-serif" font-size="8.4" font-weight="bold" lengthAdjust="spacing" textLength="76.0758" x="319.8" y="356.4727">Show Management</text></g><!--cluster Drone Management--><g id="cluster_Drone Management"><path d="M335.7,609.0082 L414.2461,609.0082 A2.25,2.25 0 0 1 415.7461,610.5082 L419.9461,623.7809 L497.7,623.7809 A1.5,1.5 0 0 1 499.2,625.2809 L499.2,915.9082 A1.5,1.5 0 0 1 497.7,917.4082 L335.7,917.4082 A1.5,1.5 0 0 1 334.2,915.9082 L334.2,610.5082 A1.5,1.5 0 0 1 335.7,609.0082 " fill="none" style="stroke:#000000;stroke-width:0.8999999999999999;"/><line style="stroke:#000000;stroke-width:0.8999999999999999;" x1="334.2" x2="419.9461" y1="623.7809" y2="623.7809"/><text fill="#000000" font-family="sans-serif" font-size="8.4" font-weight="bold" lengthAdjust="spacing" textLength="77.9461" x="336.6" y="619.2727">Drone Management</text></g><!--cluster Drone Configuration--><g id="cluster_Drone Configuration"><path d="M352.5,931.8082 L434.758,931.8082 A2.25,2.25 0 0 1 436.258,933.3082 L440.458,946.5809 L480.9,946.5809 A1.5,1.5 0 0 1 482.4,948.0809 L482.4,1032.3082 A1.5,1.5 0 0 1 480.9,1033.8082 L352.5,1033.8082 A1.5,1.5 0 0 1 351,1032.3082 L351,933.3082 A1.5,1.5 0 0 1 352.5,931.8082 " fill="none" style="stroke:#000000;stroke-width:0.8999999999999999;"/><line style="stroke:#000000;stroke-width:0.8999999999999999;" x1="351" x2="440.458" y1="946.5809" y2="946.5809"/><text fill="#000000" font-family="sans-serif" font-size="8.4" font-weight="bold" lengthAdjust="spacing" textLength="81.658" x="353.4" y="942.0727">Drone Configuration</text></g><!--cluster Testing--><g id="cluster_Testing"><path d="M5.1,720.6082 L35.5676,720.6082 A2.25,2.25 0 0 1 37.0676,722.1082 L41.2676,735.3809 L128.1,735.3809 A1.5,1.5 0 0 1 129.6,736.8809 L129.6,902.1082 A1.5,1.5 0 0 1 128.1,903.6082 L5.1,903.6082 A1.5,1.5 0 0 1 3.6,902.1082 L3.6,722.1082 A1.5,1.5 0 0 1 5.1,720.6082 " fill="none" style="stroke:#000000;stroke-width:0.8999999999999999;"/><line style="stroke:#000000;stroke-width:0.8999999999999999;" x1="3.6" x2="41.2676" y1="735.3809" y2="735.3809"/><text fill="#000000" font-family="sans-serif" font-size="8.4" font-weight="bold" lengthAdjust="spacing" textLength="29.8676" x="6" y="730.8727">Testing</text></g><!--cluster Customer App--><g id="cluster_Customer App"><path d="M147.9,3.6082 L206.3689,3.6082 A2.25,2.25 0 0 1 207.8689,5.1082 L212.0689,18.3809 L287.1,18.3809 A1.5,1.5 0 0 1 288.6,19.8809 L288.6,152.7082 A1.5,1.5 0 0 1 287.1,154.2082 L147.9,154.2082 A1.5,1.5 0 0 1 146.4,152.7082 L146.4,5.1082 A1.5,1.5 0 0 1 147.9,3.6082 " fill="none" style="stroke:#000000;stroke-width:0.8999999999999999;"/><line style="stroke:#000000;stroke-width:0.8999999999999999;" x1="146.4" x2="212.0689" y1="18.3809" y2="18.3809"/><text fill="#000000" font-family="sans-serif" font-size="8.4" font-weight="bold" lengthAdjust="spacing" textLength="57.8689" x="148.8" y="13.8727">Customer App</text></g><g id="elem_Manage users"><ellipse cx="416.7173" cy="189.6117" fill="#F1F1F1" rx="43.8173" ry="10.2035" style="stroke:#181818;stroke-width:0.3;"/><text fill="#000000" font-family="sans-serif" font-size="8.4" lengthAdjust="spacing" textLength="53.2301" x="388.3022" y="192.4939">Manage users</text></g><g id="elem_Manage proposal templates"><ellipse cx="416.6711" cy="280.3224" fill="#F1F1F1" rx="63.8711" ry="14.2142" style="stroke:#181818;stroke-width:0.3;"/><text fill="#000000" font-family="sans-serif" font-size="8.4" lengthAdjust="spacing" textLength="103.6629" x="364.8397" y="282.6005">Manage proposal templates</text></g><g id="elem_Change client status"><ellipse cx="416.7635" cy="232.7009" fill="#F1F1F1" rx="52.2635" ry="11.8927" style="stroke:#181818;stroke-width:0.3;"/><text fill="#000000" font-family="sans-serif" font-size="8.4" lengthAdjust="spacing" textLength="76.1127" x="376.9071" y="235.5831">Change client status</text></g><g id="elem_Manage clients"><ellipse cx="416.6394" cy="325.7361" fill="#F1F1F1" rx="44.9394" ry="10.4279" style="stroke:#181818;stroke-width:0.3;"/><text fill="#000000" font-family="sans-serif" font-size="8.4" lengthAdjust="spacing" textLength="56.499" x="386.5899" y="328.6183">Manage clients</text></g><g id="elem_Schedule show"><ellipse cx="416.804" cy="420.569" fill="#F1F1F1" rx="45.104" ry="10.4608" style="stroke:#181818;stroke-width:0.3;"/><text fill="#000000" font-family="sans-serif" font-size="8.4" lengthAdjust="spacing" textLength="56.9707" x="386.5187" y="423.4512">Schedule show</text></g><g id="elem_Generate show proposal and send to client"><ellipse cx="416.8017" cy="471.5085" fill="#F1F1F1" rx="89.8017" ry="19.4003" style="stroke:#181818;stroke-width:0.3;"/><text fill="#000000" font-family="sans-serif" font-size="8.4" lengthAdjust="spacing" textLength="159.7025" x="336.9504" y="473.7867">Generate show proposal and send to client</text></g><g id="elem_Configure show's drone list"><ellipse cx="416.8015" cy="526.3485" fill="#F1F1F1" rx="62.5015" ry="13.9403" style="stroke:#181818;stroke-width:0.3;"/><text fill="#000000" font-family="sans-serif" font-size="8.4" lengthAdjust="spacing" textLength="100.5867" x="366.5081" y="528.6266">Configure show's drone list</text></g><g id="elem_Submit show request"><ellipse cx="416.7868" cy="573.0856" fill="#F1F1F1" rx="53.1868" ry="12.0774" style="stroke:#181818;stroke-width:0.3;"/><text fill="#000000" font-family="sans-serif" font-size="8.4" lengthAdjust="spacing" textLength="78.4383" x="375.7677" y="575.9678">Submit show request</text></g><g id="elem_Create Figure"><ellipse cx="416.6892" cy="378.486" fill="#F1F1F1" rx="43.1892" ry="10.0778" style="stroke:#181818;stroke-width:0.3;"/><text fill="#000000" font-family="sans-serif" font-size="8.4" lengthAdjust="spacing" textLength="51.3557" x="389.2114" y="381.3683">Create Figure</text></g><g id="elem_List drone inventory"><ellipse cx="416.5631" cy="643.1808" fill="#F1F1F1" rx="51.1631" ry="11.6726" style="stroke:#181818;stroke-width:0.3;"/><text fill="#000000" font-family="sans-serif" font-size="8.4" lengthAdjust="spacing" textLength="73.3072" x="378.1095" y="646.0631">List drone inventory</text></g><g id="elem_List drone's maintenance history"><ellipse cx="416.655" cy="691.9192" fill="#F1F1F1" rx="71.355" ry="15.711" style="stroke:#181818;stroke-width:0.3;"/><text fill="#000000" font-family="sans-serif" font-size="8.4" lengthAdjust="spacing" textLength="120.2004" x="356.5548" y="694.1973">List drone's maintenance history</text></g><g id="elem_Receive drone from maintenance"><ellipse cx="416.7756" cy="744.7433" fill="#F1F1F1" rx="72.9756" ry="16.0351" style="stroke:#181818;stroke-width:0.3;"/><text fill="#000000" font-family="sans-serif" font-size="8.4" lengthAdjust="spacing" textLength="123.7318" x="354.9097" y="747.0214">Receive drone from maintenance</text></g><g id="elem_Send drone for maintenance"><ellipse cx="416.819" cy="796.232" fill="#F1F1F1" rx="64.919" ry="14.4238" style="stroke:#181818;stroke-width:0.3;"/><text fill="#000000" font-family="sans-serif" font-size="8.4" lengthAdjust="spacing" textLength="106.0049" x="363.8166" y="798.5101">Send drone for maintenance</text></g><g id="elem_Remove drone from inventory"><ellipse cx="416.8089" cy="846.75" fill="#F1F1F1" rx="67.0089" ry="14.8418" style="stroke:#181818;stroke-width:0.3;"/><text fill="#000000" font-family="sans-serif" font-size="8.4" lengthAdjust="spacing" textLength="110.6479" x="361.485" y="849.0281">Remove drone from inventory</text></g><g id="elem_Add drone to inventory"><ellipse cx="416.8457" cy="895.1773" fill="#F1F1F1" rx="55.6457" ry="12.5691" style="stroke:#181818;stroke-width:0.3;"/><text fill="#000000" font-family="sans-serif" font-size="8.4" lengthAdjust="spacing" textLength="84.5209" x="372.7852" y="898.0596">Add drone to inventory</text></g><g id="elem_Create drone Model"><ellipse cx="416.6282" cy="966.0538" fill="#F1F1F1" rx="51.5282" ry="11.7456" style="stroke:#181818;stroke-width:0.3;"/><text fill="#000000" font-family="sans-serif" font-size="8.4" lengthAdjust="spacing" textLength="74.2424" x="377.707" y="968.9361">Create drone Model</text></g><g id="elem_Create drone language"><ellipse cx="416.8245" cy="1011.6931" fill="#F1F1F1" rx="56.2245" ry="12.6849" style="stroke:#181818;stroke-width:0.3;"/><text fill="#000000" font-family="sans-serif" font-size="8.4" lengthAdjust="spacing" textLength="85.9318" x="372.0586" y="1014.5753">Create drone language</text></g><g id="elem_Test show"><ellipse cx="66.6639" cy="883.757" fill="#F1F1F1" rx="34.5639" ry="9.8488" style="stroke:#181818;stroke-width:0.3;"/><text fill="#000000" font-family="sans-serif" font-size="8.4" lengthAdjust="spacing" textLength="38.2799" x="45.7239" y="886.6393">Test show</text></g><g id="elem_Test Figure"><ellipse cx="66.496" cy="842.981" fill="#F1F1F1" rx="37.696" ry="9.8728" style="stroke:#181818;stroke-width:0.3;"/><text fill="#000000" font-family="sans-serif" font-size="8.4" lengthAdjust="spacing" textLength="42.4799" x="43.4561" y="845.8632">Test Figure</text></g><g id="elem_Generate show code"><ellipse cx="66.6192" cy="799.8121" fill="#F1F1F1" rx="52.8192" ry="12.0038" style="stroke:#181818;stroke-width:0.3;"/><text fill="#000000" font-family="sans-serif" font-size="8.4" lengthAdjust="spacing" textLength="77.5154" x="26.0615" y="802.6943">Generate show code</text></g><g id="elem_Generate figure code"><ellipse cx="66.5786" cy="754.9239" fill="#F1F1F1" rx="53.3786" ry="12.1157" style="stroke:#181818;stroke-width:0.3;"/><text fill="#000000" font-family="sans-serif" font-size="8.4" lengthAdjust="spacing" textLength="78.9182" x="25.3195" y="757.8061">Generate figure code</text></g><g id="elem_Consult my shows agenda"><ellipse cx="217.5874" cy="39.5657" fill="#F1F1F1" rx="61.5874" ry="13.7575" style="stroke:#181818;stroke-width:0.3;"/><text fill="#000000" font-family="sans-serif" font-size="8.4" lengthAdjust="spacing" textLength="98.5195" x="168.117" y="41.9236">Consult my shows agenda</text></g><g id="elem_Approve/Reject proposal"><ellipse cx="217.4573" cy="87.5997" fill="#F1F1F1" rx="58.7573" ry="13.1915" style="stroke:#181818;stroke-width:0.3;"/><text fill="#000000" font-family="sans-serif" font-size="8.4" lengthAdjust="spacing" textLength="91.9857" x="170.4224" y="90.2478">Approve/Reject proposal</text></g><g id="elem_Analyse proposal"><ellipse cx="217.5933" cy="133.1069" fill="#F1F1F1" rx="47.7933" ry="10.9987" style="stroke:#181818;stroke-width:0.3;"/><text fill="#000000" font-family="sans-serif" font-size="8.4" lengthAdjust="spacing" textLength="64.4396" x="183.5735" y="135.9891">Analyse proposal</text></g><!--entity admin--><g id="elem_admin"><ellipse cx="217.5" cy="175.5082" fill="#F1F1F1" rx="9.6" ry="9.6" style="stroke:#181818;stroke-width:0.3;"/><path d="M217.5,187.5082 C219.9,187.5082 221.7,187.5082 224.1,185.1082 C228.9,185.1082 233.7,189.9082 233.7,194.7082 L233.7,197.1082 C233.7,199.5082 231.3,201.9082 228.9,201.9082 L206.1,201.9082 C203.7,201.9082 201.3,199.5082 201.3,197.1082 L201.3,194.7082 C201.3,189.9082 206.1,185.1082 210.9,185.1082 C213.3,187.5082 215.1,187.5082 217.5,187.5082 " fill="#F1F1F1" style="stroke:#181818;stroke-width:0.3;"/><text fill="#000000" font-family="sans-serif" font-size="8.4" lengthAdjust="spacing" textLength="23.8096" x="205.5952" y="211.2727">Admin</text></g><!--entity manager--><g id="elem_manager"><ellipse cx="217.5082" cy="266.1082" fill="#F1F1F1" rx="9.6" ry="9.6" style="stroke:#181818;stroke-width:0.3;"/><path d="M217.5082,278.1082 C219.9082,278.1082 221.7082,278.1082 224.1082,275.7082 C228.9082,275.7082 233.7082,280.5082 233.7082,285.3082 L233.7082,287.7082 C233.7082,290.1082 231.3082,292.5082 228.9082,292.5082 L206.1082,292.5082 C203.7082,292.5082 201.3082,290.1082 201.3082,287.7082 L201.3082,285.3082 C201.3082,280.5082 206.1082,275.7082 210.9082,275.7082 C213.3082,278.1082 215.1082,278.1082 217.5082,278.1082 " fill="#F1F1F1" style="stroke:#181818;stroke-width:0.3;"/><text fill="#000000" font-family="sans-serif" font-size="8.4" lengthAdjust="spacing" textLength="54.6164" x="190.2" y="301.8727">CRM Manager</text></g><!--entity collaborator--><g id="elem_collaborator"><ellipse cx="217.5103" cy="485.1082" fill="#F1F1F1" rx="9.6" ry="9.6" style="stroke:#181818;stroke-width:0.3;"/><path d="M217.5103,497.1082 C219.9103,497.1082 221.7103,497.1082 224.1103,494.7082 C228.9103,494.7082 233.7103,499.5082 233.7103,504.3082 L233.7103,506.7082 C233.7103,509.1082 231.3103,511.5082 228.9103,511.5082 L206.1103,511.5082 C203.7103,511.5082 201.3103,509.1082 201.3103,506.7082 L201.3103,504.3082 C201.3103,499.5082 206.1103,494.7082 210.9103,494.7082 C213.3103,497.1082 215.1103,497.1082 217.5103,497.1082 " fill="#F1F1F1" style="stroke:#181818;stroke-width:0.3;"/><text fill="#000000" font-family="sans-serif" font-size="8.4" lengthAdjust="spacing" textLength="67.2205" x="183.9" y="520.8727">CRM Collaborator</text></g><!--entity designer--><g id="elem_designer"><ellipse cx="570.8813" cy="364.5082" fill="#F1F1F1" rx="9.6" ry="9.6" style="stroke:#181818;stroke-width:0.3;"/><path d="M570.8813,376.5082 C573.2813,376.5082 575.0813,376.5082 577.4812,374.1082 C582.2813,374.1082 587.0813,378.9082 587.0813,383.7082 L587.0813,386.1082 C587.0813,388.5082 584.6813,390.9082 582.2813,390.9082 L559.4812,390.9082 C557.0813,390.9082 554.6813,388.5082 554.6813,386.1082 L554.6813,383.7082 C554.6813,378.9082 559.4812,374.1082 564.2813,374.1082 C566.6813,376.5082 568.4812,376.5082 570.8813,376.5082 " fill="#F1F1F1" style="stroke:#181818;stroke-width:0.3;"/><text fill="#000000" font-family="sans-serif" font-size="8.4" lengthAdjust="spacing" textLength="56.9625" x="542.4" y="400.2727">Show Designer</text></g><!--entity drone--><g id="elem_drone"><ellipse cx="217.5434" cy="807.3082" fill="#F1F1F1" rx="9.6" ry="9.6" style="stroke:#181818;stroke-width:0.3;"/><path d="M217.5434,819.3082 C219.9434,819.3082 221.7434,819.3082 224.1434,816.9082 C228.9434,816.9082 233.7434,821.7082 233.7434,826.5082 L233.7434,828.9082 C233.7434,831.3082 231.3434,833.7082 228.9434,833.7082 L206.1434,833.7082 C203.7434,833.7082 201.3434,831.3082 201.3434,828.9082 L201.3434,826.5082 C201.3434,821.7082 206.1434,816.9082 210.9434,816.9082 C213.3434,819.3082 215.1434,819.3082 217.5434,819.3082 " fill="#F1F1F1" style="stroke:#181818;stroke-width:0.3;"/><text fill="#000000" font-family="sans-serif" font-size="8.4" lengthAdjust="spacing" textLength="43.8867" x="195.6" y="843.0727">Drone Tech</text></g><!--entity customer--><g id="elem_customer"><ellipse cx="66.5048" cy="73.5082" fill="#F1F1F1" rx="9.6" ry="9.6" style="stroke:#181818;stroke-width:0.3;"/><path d="M66.5048,85.5082 C68.9048,85.5082 70.7048,85.5082 73.1048,83.1082 C77.9048,83.1082 82.7048,87.9082 82.7048,92.7082 L82.7048,95.1082 C82.7048,97.5082 80.3048,99.9082 77.9048,99.9082 L55.1048,99.9082 C52.7048,99.9082 50.3048,97.5082 50.3048,95.1082 L50.3048,92.7082 C50.3048,87.9082 55.1048,83.1082 59.9048,83.1082 C62.3048,85.5082 64.1048,85.5082 66.5048,85.5082 " fill="#F1F1F1" style="stroke:#181818;stroke-width:0.3;"/><text fill="#000000" font-family="sans-serif" font-size="8.4" lengthAdjust="spacing" textLength="36.4096" x="48.3" y="109.2727">Customer</text></g><!--link admin to Manage users--><g id="link_admin_Manage users"><path d="M234.138,189.6082 C264.012,189.6082 325.512,189.6082 369.186,189.6082 " fill="none" id="admin-to-Manage users" style="stroke:#181818;stroke-width:0.6;"/><polygon fill="#181818" points="372.786,189.6082,367.386,187.2082,369.786,189.6082,367.386,192.0082,372.786,189.6082" style="stroke:#181818;stroke-width:0.6;"/></g><!--link manager to Manage proposal templates--><g id="link_manager_Manage proposal templates"><path d="M244.806,280.2082 C272.298,280.2082 312.558,280.2082 349.014,280.2082 " fill="none" id="manager-to-Manage proposal templates" style="stroke:#181818;stroke-width:0.6;"/><polygon fill="#181818" points="352.614,280.2082,347.214,277.8082,349.614,280.2082,347.214,282.6082,352.614,280.2082" style="stroke:#181818;stroke-width:0.6;"/></g><!--link manager to Change client status--><g id="link_manager_Change client status"><path d="M244.962,271.1722 C260.424,266.1682 280.272,260.0782 298.2,255.6082 C323.184,249.3742 347.9544,244.4827 370.5744,240.4327 " fill="none" id="manager-to-Change client status" style="stroke:#181818;stroke-width:0.6;"/><polygon fill="#181818" points="374.118,239.7982,368.3795,238.3875,371.165,240.3269,369.2255,243.1123,374.118,239.7982" style="stroke:#181818;stroke-width:0.6;"/></g><!--link manager to Manage clients--><g id="link_manager_Manage clients"><path d="M244.938,289.3462 C260.388,294.3802 280.242,300.4702 298.2,304.8082 C324.672,311.2042 351.3687,315.9906 374.6007,319.6866 " fill="none" id="manager-to-Manage clients" style="stroke:#181818;stroke-width:0.6;"/><polygon fill="#181818" points="378.156,320.2522,373.2001,317.0336,375.1933,319.7809,372.446,321.774,378.156,320.2522" style="stroke:#181818;stroke-width:0.6;"/></g><!--link collaborator to Manage clients--><g id="link_collaborator_Manage clients"><path d="M225.456,475.0102 C236.268,443.5342 259.482,389.0182 298.2,358.8082 C319.986,341.8102 346.4936,334.1499 370.8116,330.1539 " fill="none" id="collaborator-to-Manage clients" style="stroke:#181818;stroke-width:0.6;"/><polygon fill="#181818" points="374.364,329.5702,368.6463,328.0776,371.4037,330.0566,369.4246,332.814,374.364,329.5702" style="stroke:#181818;stroke-width:0.6;"/></g><!--link collaborator to Schedule show--><g id="link_collaborator_Schedule show"><path d="M245.142,475.0702 C259.86,463.2082 278.952,449.7442 298.2,441.6082 C321.948,431.5702 346.7773,426.7579 369.7513,424.0219 " fill="none" id="collaborator-to-Schedule show" style="stroke:#181818;stroke-width:0.6;"/><polygon fill="#181818" points="373.326,423.5962,367.6801,421.8516,370.3471,423.951,368.2477,426.6179,373.326,423.5962" style="stroke:#181818;stroke-width:0.6;"/></g><!--link collaborator to Generate show proposal and send to client--><g id="link_collaborator_Generate show proposal and send to client"><path d="M251.238,494.5882 C275.682,491.1802 306.3525,486.9072 337.3005,482.5932 " fill="none" id="collaborator-to-Generate show proposal and send to client" style="stroke:#181818;stroke-width:0.6;"/><polygon fill="#181818" points="340.866,482.0962,335.1864,480.4647,337.8947,482.5104,335.8491,485.2187,340.866,482.0962" style="stroke:#181818;stroke-width:0.6;"/></g><!--link collaborator to Configure show's drone list--><g id="link_collaborator_Configure show's drone list"><path d="M251.238,503.7262 C281.79,507.8962 324.087,513.6619 359.691,518.5159 " fill="none" id="collaborator-to-Configure show's drone list" style="stroke:#181818;stroke-width:0.6;"/><polygon fill="#181818" points="363.258,519.0022,358.2317,515.8948,360.2855,518.597,357.5833,520.6508,363.258,519.0022" style="stroke:#181818;stroke-width:0.6;"/></g><!--link collaborator to Submit show request--><g id="link_collaborator_Submit show request"><path d="M249.72,523.2442 C263.88,532.9522 281.202,543.4402 298.2,550.2082 C320.472,559.0762 342.9718,564.0314 364.9138,567.4034 " fill="none" id="collaborator-to-Submit show request" style="stroke:#181818;stroke-width:0.6;"/><polygon fill="#181818" points="368.472,567.9502,363.4992,564.7578,365.5068,567.4945,362.7701,569.5021,368.472,567.9502" style="stroke:#181818;stroke-width:0.6;"/></g><!--reverse link Create Figure to designer--><g id="link_Create Figure_designer"><path d="M463.518,378.6082 C489.87,378.6082 519.336,378.6082 542.382,378.6082 " fill="none" id="Create Figure-backto-designer" style="stroke:#181818;stroke-width:0.6;"/><polygon fill="#181818" points="459.918,378.6082,465.318,381.0082,462.918,378.6082,465.318,376.2082,459.918,378.6082" style="stroke:#181818;stroke-width:0.6;"/></g><!--link collaborator to List drone inventory--><g id="link_collaborator_List drone inventory"><path d="M233.316,523.2082 C247.794,544.4122 271.32,574.9402 298.2,594.6082 C324.018,613.4962 354.8178,625.4725 379.7418,633.2605 " fill="none" id="collaborator-to-List drone inventory" style="stroke:#181818;stroke-width:0.6;"/><polygon fill="#181818" points="383.178,634.3342,378.7396,630.4329,380.3145,633.4395,377.308,635.0144,383.178,634.3342" style="stroke:#181818;stroke-width:0.6;"/></g><!--link drone to List drone inventory--><g id="link_drone_List drone inventory"><path d="M223.404,797.2822 C232.404,762.3502 254.166,698.2822 298.2,665.4082 C317.31,651.1402 339.3294,645.5473 361.7934,643.3333 " fill="none" id="drone-to-List drone inventory" style="stroke:#181818;stroke-width:0.6;"/><polygon fill="#181818" points="365.376,642.9802,359.7666,641.1214,362.3905,643.2745,360.2374,645.8983,365.376,642.9802" style="stroke:#181818;stroke-width:0.6;"/></g><!--link drone to List drone's maintenance history--><g id="link_drone_List drone's maintenance history"><path d="M230.268,797.4022 C243.636,773.5462 267.372,737.7742 298.2,718.2082 C313.962,708.2062 329.4916,702.7192 347.6416,698.8372 " fill="none" id="drone-to-List drone's maintenance history" style="stroke:#181818;stroke-width:0.6;"/><polygon fill="#181818" points="351.162,698.0842,345.3795,696.8667,348.2284,698.7117,346.3834,701.5606,351.162,698.0842" style="stroke:#181818;stroke-width:0.6;"/></g><!--link drone to Receive drone from maintenance--><g id="link_drone_Receive drone from maintenance"><path d="M239.436,805.1422 C254.97,794.0242 276.936,779.7742 298.2,771.0082 C316.674,763.3942 334.1993,758.5321 353.3453,754.5001 " fill="none" id="drone-to-Receive drone from maintenance" style="stroke:#181818;stroke-width:0.6;"/><polygon fill="#181818" points="356.868,753.7582,351.0893,752.5225,353.9324,754.3764,352.0785,757.2195,356.868,753.7582" style="stroke:#181818;stroke-width:0.6;"/></g><!--link drone to Send drone for maintenance--><g id="link_drone_Send drone for maintenance"><path d="M239.478,818.6902 C268.128,815.0422 316.4448,808.8909 356.5968,803.7789 " fill="none" id="drone-to-Send drone for maintenance" style="stroke:#181818;stroke-width:0.6;"/><polygon fill="#181818" points="360.168,803.3242,354.5081,801.6254,357.192,803.7031,355.1144,806.387,360.168,803.3242" style="stroke:#181818;stroke-width:0.6;"/></g><!--link drone to Remove drone from inventory--><g id="link_drone_Remove drone from inventory"><path d="M239.478,824.1262 C267.726,827.7262 314.9988,833.7395 354.9108,838.8215 " fill="none" id="drone-to-Remove drone from inventory" style="stroke:#181818;stroke-width:0.6;"/><polygon fill="#181818" points="358.482,839.2762,353.4284,836.2133,355.506,838.8973,352.8221,840.9749,358.482,839.2762" style="stroke:#181818;stroke-width:0.6;"/></g><!--link drone to Add drone to inventory--><g id="link_drone_Add drone to inventory"><path d="M239.538,837.9562 C255.036,849.1282 276.906,863.3302 298.2,871.8082 C319.914,880.4482 341.6451,885.4301 363.2151,888.9521 " fill="none" id="drone-to-Add drone to inventory" style="stroke:#181818;stroke-width:0.6;"/><polygon fill="#181818" points="366.768,889.5322,361.8253,886.2934,363.8072,889.0488,361.0518,891.0306,366.768,889.5322" style="stroke:#181818;stroke-width:0.6;"/></g><!--link drone to Create drone Model--><g id="link_drone_Create drone Model"><path d="M233.28,845.5642 C247.74,866.9062 271.254,897.6262 298.2,917.4082 C323.898,936.2722 354.5538,948.2188 379.4658,956.0008 " fill="none" id="drone-to-Create drone Model" style="stroke:#181818;stroke-width:0.6;"/><polygon fill="#181818" points="382.902,957.0742,378.4632,953.1733,380.0385,956.1797,377.032,957.7549,382.902,957.0742" style="stroke:#181818;stroke-width:0.6;"/></g><!--link drone to Create drone language--><g id="link_drone_Create drone language"><path d="M222.558,845.4262 C230.718,882.2422 251.676,952.1362 298.2,988.2082 C315.762,1001.8282 335.5498,1007.7023 356.8378,1010.4563 " fill="none" id="drone-to-Create drone language" style="stroke:#181818;stroke-width:0.6;"/><polygon fill="#181818" points="360.408,1010.9182,355.3605,1007.8452,357.4328,1010.5333,354.7447,1012.6056,360.408,1010.9182" style="stroke:#181818;stroke-width:0.6;"/></g><!--reverse link Test show to drone--><g id="link_Test show_drone"><path d="M96.0813,876.2628 C108.8073,872.6808 120.882,868.8502 134.4,863.4082 C155.796,854.7922 179.124,842.6422 195.498,833.6242 " fill="none" id="Test show-backto-drone" style="stroke:#181818;stroke-width:0.6;"/><polygon fill="#181818" points="92.616,877.2382,98.4643,878.0853,95.5038,876.4254,97.1638,873.4649,92.616,877.2382" style="stroke:#181818;stroke-width:0.6;"/></g><!--reverse link Test Figure to drone--><g id="link_Test Figure_drone"><path d="M103.4331,837.7782 C132.4251,833.5962 170.388,828.1222 195.39,824.5102 " fill="none" id="Test Figure-backto-drone" style="stroke:#181818;stroke-width:0.6;"/><polygon fill="#181818" points="99.87,838.2922,105.5573,839.8967,102.8393,837.8639,104.872,835.1458,99.87,838.2922" style="stroke:#181818;stroke-width:0.6;"/></g><!--reverse link Generate show code to drone--><g id="link_Generate show code_drone"><path d="M115.0732,806.718 C142.7452,810.708 173.58,815.1562 195.396,818.3062 " fill="none" id="Generate show code-backto-drone" style="stroke:#181818;stroke-width:0.6;"/><polygon fill="#181818" points="111.51,806.2042,116.5122,809.3503,114.4793,806.6323,117.1972,804.5994,111.51,806.2042" style="stroke:#181818;stroke-width:0.6;"/></g><!--reverse link Generate figure code to drone--><g id="link_Generate figure code_drone"><path d="M103.0159,765.3459 C114.1999,768.9339 123.282,772.2262 134.4,777.0082 C155.838,786.2362 179.166,799.0702 195.528,808.5682 " fill="none" id="Generate figure code-backto-drone" style="stroke:#181818;stroke-width:0.6;"/><polygon fill="#181818" points="99.588,764.2462,103.9967,768.1811,102.4446,765.1626,105.463,763.6105,99.588,764.2462" style="stroke:#181818;stroke-width:0.6;"/></g><!--link customer to Consult my shows agenda--><g id="link_customer_Consult my shows agenda"><path d="M84.93,81.8662 C100.002,76.9942 122.214,69.8242 141.6,63.6082 C154.602,59.4382 165.4397,55.9764 178.0277,51.9684 " fill="none" id="customer-to-Consult my shows agenda" style="stroke:#181818;stroke-width:0.6;"/><polygon fill="#181818" points="181.458,50.8762,175.5844,50.2276,178.5994,51.7864,177.0407,54.8014,181.458,50.8762" style="stroke:#181818;stroke-width:0.6;"/></g><!--link customer to Approve/Reject proposal--><g id="link_customer_Approve/Reject proposal"><path d="M84.96,87.6082 C103.122,87.6082 128.724,87.6082 155.046,87.6082 " fill="none" id="customer-to-Approve/Reject proposal" style="stroke:#181818;stroke-width:0.6;"/><polygon fill="#181818" points="158.646,87.6082,153.246,85.2082,155.646,87.6082,153.246,90.0082,158.646,87.6082" style="stroke:#181818;stroke-width:0.6;"/></g><!--link customer to Analyse proposal--><g id="link_customer_Analyse proposal"><path d="M84.912,93.2782 C99.966,98.0722 122.172,105.0922 141.6,111.0082 C156.594,115.5742 169.8551,119.5065 183.7271,123.5685 " fill="none" id="customer-to-Analyse proposal" style="stroke:#181818;stroke-width:0.6;"/><polygon fill="#181818" points="187.182,124.5802,182.6741,120.7594,184.3029,123.7371,181.3252,125.366,187.182,124.5802" style="stroke:#181818;stroke-width:0.6;"/></g><!--SRC=[dLH9Rjim5Dth51_Qf5uOlK40rq6xgJTMBi1GNn8R3Yg714RWk_UBf5MgLPIYMWWat_lp8B7pu0rOqGyUMc6HUs5qvPw57fbb2XZtnZR-8X7OApgZiAeFhHAw1kQ0JQUgFfvFS6AQzMZZiqhd11oDbEp9M4QA8igBXwfk1lCA3-X4hxDqcozL_M2DHdX4FYHWkfBIu3pvaPNbIpKo_an6eVv21zDrWcFzLW5zqKdOx-_XKt8IWaFhTX7ChYxWqPhHE2R1enebyxZ6FGvC4vTBWTg3yyo73PM9bWbb0jvdpG7532M68ZX7jQweuGEsWOhbI6YtGVo6b64ABH9_Hynq2mxfHqsHlDbISZIw4tsmISjThX18uJR5cl2aX4-MBVuCMD9lrOTz6ACDYvERNwETHBikyvEwv1yJz9ryosuA_K9iOo-5yGZyB_5kwdoXFMgcES90m7j2P-GeNZ0_TTQeKdHLf9dAalaKpKVqCogpDB0Tng6zQQVI_q5TJVYj-6pQ64NE2vsvTkdbP5gKkmzfaiOga9cRvMirZ_OZDOhGVJALvLEJJ4ZHydzZPViiqEKSSF9nYvIxFT4Ap-QT18TnpBcuRQPvL5oG7jGbMgBLsLCzsMw5IYeibUxp6N_GEfvdSvMgcRmuB3ZNNm00]--></g></svg>