<?xml version="1.0" encoding="UTF-8" standalone="no"?><svg xmlns="http://www.w3.org/2000/svg" xmlns:xlink="http://www.w3.org/1999/xlink" contentStyleType="text/css" height="555px" preserveAspectRatio="none" style="width:2041px;height:555px;background:#FFFFFF;" version="1.1" viewBox="0 0 2041 555" width="2041px" zoomAndPan="magnify"><defs/><g><!--cluster Domain--><g id="cluster_Domain"><path d="M8.5,6.8945 L80.5,6.8945 A3.75,3.75 0 0 1 83,9.3945 L90,38.0508 L708.5,38.0508 A2.5,2.5 0 0 1 711,40.5508 L711,370.8945 A2.5,2.5 0 0 1 708.5,373.3945 L8.5,373.3945 A2.5,2.5 0 0 1 6,370.8945 L6,9.3945 A2.5,2.5 0 0 1 8.5,6.8945 " fill="#DDDDDD" style="stroke:#000000;stroke-width:1.5;"/><line style="stroke:#000000;stroke-width:1.5;" x1="6" x2="90" y1="38.0508" y2="38.0508"/><text fill="#000000" font-family="sans-serif" font-size="20" font-weight="bold" lengthAdjust="spacing" textLength="71" x="10" y="29.6563">Domain</text></g><!--cluster shodrone.plugin.figure--><g id="cluster_shodrone.plugin.figure"><path d="M737.5,224.8945 L953.5,224.8945 A3.75,3.75 0 0 1 956,227.3945 L963,256.0508 L2031.5,256.0508 A2.5,2.5 0 0 1 2034,258.5508 L2034,546.3945 A2.5,2.5 0 0 1 2031.5,548.8945 L737.5,548.8945 A2.5,2.5 0 0 1 735,546.3945 L735,227.3945 A2.5,2.5 0 0 1 737.5,224.8945 " fill="#DDDDDD" style="stroke:#000000;stroke-width:1.5;"/><line style="stroke:#000000;stroke-width:1.5;" x1="735" x2="963" y1="256.0508" y2="256.0508"/><text fill="#000000" font-family="sans-serif" font-size="20" font-weight="bold" lengthAdjust="spacing" textLength="215" x="739" y="247.6563">shodrone.plugin.figure</text></g><!--class Figure--><g id="elem_Figure"><rect codeLine="6" fill="#F1F1F1" height="101.4688" id="Figure" rx="2.5" ry="2.5" style="stroke:#181818;stroke-width:0.5;" width="325" x="22.5" y="50.8945"/><ellipse cx="147" cy="81.0508" fill="#ADD1B2" rx="12" ry="12" style="stroke:#181818;stroke-width:1.0;"/><path d="M149.1406,75.9727 Q149.3281,75.7227 149.5469,75.5977 Q149.7656,75.457 150.0156,75.457 Q150.4531,75.457 150.7344,75.7695 Q151.0156,76.0664 151.0156,76.7852 L151.0156,78.4883 Q151.0156,79.207 150.7344,79.5195 Q150.4531,79.832 150.0156,79.832 Q149.625,79.832 149.375,79.5977 Q149.125,79.3789 149.0156,78.7695 Q148.9531,78.3477 148.7344,78.1289 Q148.3438,77.6914 147.625,77.4258 Q146.9063,77.1602 146.1875,77.1602 Q145.2813,77.1602 144.5313,77.5508 Q143.7813,77.9414 143.2031,78.832 Q142.625,79.707 142.625,80.9102 L142.625,82.207 Q142.625,83.6602 143.6719,84.6289 Q144.7344,85.5977 146.5938,85.5977 Q147.7031,85.5977 148.4844,85.2852 Q148.9219,85.1133 149.4375,84.5977 Q149.75,84.2852 149.9219,84.1914 Q150.0938,84.0977 150.3281,84.0977 Q150.7188,84.0977 151.0156,84.4102 Q151.3281,84.707 151.3281,85.1133 Q151.3281,85.5195 150.9219,85.9883 Q150.3281,86.6758 149.3906,87.0664 Q148.125,87.5977 146.6094,87.5977 Q144.8281,87.5977 143.4063,86.8633 Q142.25,86.2695 141.4375,85.0039 Q140.625,83.7383 140.625,82.2539 L140.625,80.8945 Q140.625,79.332 141.3438,77.9883 Q142.0781,76.6289 143.3594,75.8945 Q144.6563,75.1602 146.1094,75.1602 Q146.9688,75.1602 147.7188,75.3633 Q148.4844,75.5664 149.1406,75.9727 Z " fill="#000000"/><text fill="#000000" font-family="sans-serif" font-size="20" font-style="italic" lengthAdjust="spacing" textLength="71" x="167" y="76.6563">«Entity»</text><text fill="#000000" font-family="sans-serif" font-size="20" lengthAdjust="spacing" textLength="55" x="175" y="101.8125">Figure</text><line style="stroke:#181818;stroke-width:0.5;" x1="23.5" x2="346.5" y1="111.207" y2="111.207"/><line style="stroke:#181818;stroke-width:0.5;" x1="23.5" x2="346.5" y1="119.207" y2="119.207"/><ellipse cx="33.5" cy="137.2852" fill="#84BE84" rx="3" ry="3" style="stroke:#038048;stroke-width:1.0;"/><text fill="#000000" font-family="sans-serif" font-size="20" lengthAdjust="spacing" textLength="298" x="43.5" y="143.9688">validateDSLDescription(): boolean</text></g><!--class DSLDescription--><g id="elem_DSLDescription"><rect codeLine="10" fill="#F1F1F1" height="76.3125" id="DSLDescription" rx="2.5" ry="2.5" style="stroke:#181818;stroke-width:0.5;" width="170" x="231" y="281.3945"/><ellipse cx="247" cy="311.5508" fill="#ADD1B2" rx="12" ry="12" style="stroke:#181818;stroke-width:1.0;"/><path d="M249.1406,306.4727 Q249.3281,306.2227 249.5469,306.0977 Q249.7656,305.957 250.0156,305.957 Q250.4531,305.957 250.7344,306.2695 Q251.0156,306.5664 251.0156,307.2852 L251.0156,308.9883 Q251.0156,309.707 250.7344,310.0195 Q250.4531,310.332 250.0156,310.332 Q249.625,310.332 249.375,310.0977 Q249.125,309.8789 249.0156,309.2695 Q248.9531,308.8477 248.7344,308.6289 Q248.3438,308.1914 247.625,307.9258 Q246.9063,307.6602 246.1875,307.6602 Q245.2813,307.6602 244.5313,308.0508 Q243.7813,308.4414 243.2031,309.332 Q242.625,310.207 242.625,311.4102 L242.625,312.707 Q242.625,314.1602 243.6719,315.1289 Q244.7344,316.0977 246.5938,316.0977 Q247.7031,316.0977 248.4844,315.7852 Q248.9219,315.6133 249.4375,315.0977 Q249.75,314.7852 249.9219,314.6914 Q250.0938,314.5977 250.3281,314.5977 Q250.7188,314.5977 251.0156,314.9102 Q251.3281,315.207 251.3281,315.6133 Q251.3281,316.0195 250.9219,316.4883 Q250.3281,317.1758 249.3906,317.5664 Q248.125,318.0977 246.6094,318.0977 Q244.8281,318.0977 243.4063,317.3633 Q242.25,316.7695 241.4375,315.5039 Q240.625,314.2383 240.625,312.7539 L240.625,311.3945 Q240.625,309.832 241.3438,308.4883 Q242.0781,307.1289 243.3594,306.3945 Q244.6563,305.6602 246.1094,305.6602 Q246.9688,305.6602 247.7188,305.8633 Q248.4844,306.0664 249.1406,306.4727 Z " fill="#000000"/><text fill="#000000" font-family="sans-serif" font-size="20" font-style="italic" lengthAdjust="spacing" textLength="136" x="262" y="307.1563">«Value Object»</text><text fill="#000000" font-family="sans-serif" font-size="20" lengthAdjust="spacing" textLength="136" x="262" y="332.3125">DSLDescription</text><line style="stroke:#181818;stroke-width:0.5;" x1="232" x2="400" y1="341.707" y2="341.707"/><line style="stroke:#181818;stroke-width:0.5;" x1="232" x2="400" y1="349.707" y2="349.707"/></g><!--class DSLValidate--><g id="elem_DSLValidate"><rect codeLine="13" fill="#F1F1F1" height="101.4688" id="DSLValidate" rx="2.5" ry="2.5" style="stroke:#181818;stroke-width:0.5;" width="312" x="383" y="50.8945"/><ellipse cx="480" cy="81.0508" fill="#ADD1B2" rx="12" ry="12" style="stroke:#181818;stroke-width:1.0;"/><path d="M482.1406,75.9727 Q482.3281,75.7227 482.5469,75.5977 Q482.7656,75.457 483.0156,75.457 Q483.4531,75.457 483.7344,75.7695 Q484.0156,76.0664 484.0156,76.7852 L484.0156,78.4883 Q484.0156,79.207 483.7344,79.5195 Q483.4531,79.832 483.0156,79.832 Q482.625,79.832 482.375,79.5977 Q482.125,79.3789 482.0156,78.7695 Q481.9531,78.3477 481.7344,78.1289 Q481.3438,77.6914 480.625,77.4258 Q479.9063,77.1602 479.1875,77.1602 Q478.2813,77.1602 477.5313,77.5508 Q476.7813,77.9414 476.2031,78.832 Q475.625,79.707 475.625,80.9102 L475.625,82.207 Q475.625,83.6602 476.6719,84.6289 Q477.7344,85.5977 479.5938,85.5977 Q480.7031,85.5977 481.4844,85.2852 Q481.9219,85.1133 482.4375,84.5977 Q482.75,84.2852 482.9219,84.1914 Q483.0938,84.0977 483.3281,84.0977 Q483.7188,84.0977 484.0156,84.4102 Q484.3281,84.707 484.3281,85.1133 Q484.3281,85.5195 483.9219,85.9883 Q483.3281,86.6758 482.3906,87.0664 Q481.125,87.5977 479.6094,87.5977 Q477.8281,87.5977 476.4063,86.8633 Q475.25,86.2695 474.4375,85.0039 Q473.625,83.7383 473.625,82.2539 L473.625,80.8945 Q473.625,79.332 474.3438,77.9883 Q475.0781,76.6289 476.3594,75.8945 Q477.6563,75.1602 479.1094,75.1602 Q479.9688,75.1602 480.7188,75.3633 Q481.4844,75.5664 482.1406,75.9727 Z " fill="#000000"/><text fill="#000000" font-family="sans-serif" font-size="20" font-style="italic" lengthAdjust="spacing" textLength="89" x="512" y="76.6563">«Service»</text><text fill="#000000" font-family="sans-serif" font-size="20" lengthAdjust="spacing" textLength="109" x="502" y="101.8125">DSLValidate</text><line style="stroke:#181818;stroke-width:0.5;" x1="384" x2="694" y1="111.207" y2="111.207"/><line style="stroke:#181818;stroke-width:0.5;" x1="384" x2="694" y1="119.207" y2="119.207"/><ellipse cx="394" cy="137.2852" fill="#84BE84" rx="3" ry="3" style="stroke:#038048;stroke-width:1.0;"/><text fill="#000000" font-family="sans-serif" font-size="20" lengthAdjust="spacing" textLength="285" x="404" y="143.9688">validate(dslDescription): boolean</text></g><!--class ANTLRDSLValidatorPlugin--><g id="elem_ANTLRDSLValidatorPlugin"><rect codeLine="21" fill="#F1F1F1" height="101.4688" id="ANTLRDSLValidatorPlugin" rx="2.5" ry="2.5" style="stroke:#181818;stroke-width:0.5;" width="270" x="751" y="268.8945"/><ellipse cx="769.25" cy="299.0508" fill="#ADD1B2" rx="12" ry="12" style="stroke:#181818;stroke-width:1.0;"/><path d="M771.3906,293.9727 Q771.5781,293.7227 771.7969,293.5977 Q772.0156,293.457 772.2656,293.457 Q772.7031,293.457 772.9844,293.7695 Q773.2656,294.0664 773.2656,294.7852 L773.2656,296.4883 Q773.2656,297.207 772.9844,297.5195 Q772.7031,297.832 772.2656,297.832 Q771.875,297.832 771.625,297.5977 Q771.375,297.3789 771.2656,296.7695 Q771.2031,296.3477 770.9844,296.1289 Q770.5938,295.6914 769.875,295.4258 Q769.1563,295.1602 768.4375,295.1602 Q767.5313,295.1602 766.7813,295.5508 Q766.0313,295.9414 765.4531,296.832 Q764.875,297.707 764.875,298.9102 L764.875,300.207 Q764.875,301.6602 765.9219,302.6289 Q766.9844,303.5977 768.8438,303.5977 Q769.9531,303.5977 770.7344,303.2852 Q771.1719,303.1133 771.6875,302.5977 Q772,302.2852 772.1719,302.1914 Q772.3438,302.0977 772.5781,302.0977 Q772.9688,302.0977 773.2656,302.4102 Q773.5781,302.707 773.5781,303.1133 Q773.5781,303.5195 773.1719,303.9883 Q772.5781,304.6758 771.6406,305.0664 Q770.375,305.5977 768.8594,305.5977 Q767.0781,305.5977 765.6563,304.8633 Q764.5,304.2695 763.6875,303.0039 Q762.875,301.7383 762.875,300.2539 L762.875,298.8945 Q762.875,297.332 763.5938,295.9883 Q764.3281,294.6289 765.6094,293.8945 Q766.9063,293.1602 768.3594,293.1602 Q769.2188,293.1602 769.9688,293.3633 Q770.7344,293.5664 771.3906,293.9727 Z " fill="#000000"/><text fill="#000000" font-family="sans-serif" font-size="20" font-style="italic" lengthAdjust="spacing" textLength="78" x="861.25" y="294.6563">«Plugin»</text><text fill="#000000" font-family="sans-serif" font-size="20" lengthAdjust="spacing" textLength="231" x="784.75" y="319.8125">ANTLRDSLValidatorPlugin</text><line style="stroke:#181818;stroke-width:0.5;" x1="752" x2="1020" y1="329.207" y2="329.207"/><line style="stroke:#181818;stroke-width:0.5;" x1="752" x2="1020" y1="337.207" y2="337.207"/><ellipse cx="762" cy="355.2852" fill="#84BE84" rx="3" ry="3" style="stroke:#038048;stroke-width:1.0;"/><text fill="#000000" font-family="sans-serif" font-size="20" lengthAdjust="spacing" textLength="243" x="772" y="361.9688">validateDSL(code): boolean</text></g><!--class FigureLexer--><g id="elem_FigureLexer"><rect codeLine="25" fill="#F1F1F1" height="76.3125" id="FigureLexer" rx="2.5" ry="2.5" style="stroke:#181818;stroke-width:0.5;" width="146" x="751" y="456.8945"/><ellipse cx="767" cy="487.0508" fill="#ADD1B2" rx="12" ry="12" style="stroke:#181818;stroke-width:1.0;"/><path d="M769.1406,481.9727 Q769.3281,481.7227 769.5469,481.5977 Q769.7656,481.457 770.0156,481.457 Q770.4531,481.457 770.7344,481.7695 Q771.0156,482.0664 771.0156,482.7852 L771.0156,484.4883 Q771.0156,485.207 770.7344,485.5195 Q770.4531,485.832 770.0156,485.832 Q769.625,485.832 769.375,485.5977 Q769.125,485.3789 769.0156,484.7695 Q768.9531,484.3477 768.7344,484.1289 Q768.3438,483.6914 767.625,483.4258 Q766.9063,483.1602 766.1875,483.1602 Q765.2813,483.1602 764.5313,483.5508 Q763.7813,483.9414 763.2031,484.832 Q762.625,485.707 762.625,486.9102 L762.625,488.207 Q762.625,489.6602 763.6719,490.6289 Q764.7344,491.5977 766.5938,491.5977 Q767.7031,491.5977 768.4844,491.2852 Q768.9219,491.1133 769.4375,490.5977 Q769.75,490.2852 769.9219,490.1914 Q770.0938,490.0977 770.3281,490.0977 Q770.7188,490.0977 771.0156,490.4102 Q771.3281,490.707 771.3281,491.1133 Q771.3281,491.5195 770.9219,491.9883 Q770.3281,492.6758 769.3906,493.0664 Q768.125,493.5977 766.6094,493.5977 Q764.8281,493.5977 763.4063,492.8633 Q762.25,492.2695 761.4375,491.0039 Q760.625,489.7383 760.625,488.2539 L760.625,486.8945 Q760.625,485.332 761.3438,483.9883 Q762.0781,482.6289 763.3594,481.8945 Q764.6563,481.1602 766.1094,481.1602 Q766.9688,481.1602 767.7188,481.3633 Q768.4844,481.5664 769.1406,481.9727 Z " fill="#000000"/><text fill="#000000" font-family="sans-serif" font-size="20" font-style="italic" lengthAdjust="spacing" textLength="116" x="780" y="482.6563">«Generated»</text><text fill="#000000" font-family="sans-serif" font-size="20" lengthAdjust="spacing" textLength="104" x="786" y="507.8125">FigureLexer</text><line style="stroke:#181818;stroke-width:0.5;" x1="752" x2="896" y1="517.207" y2="517.207"/><line style="stroke:#181818;stroke-width:0.5;" x1="752" x2="896" y1="525.207" y2="525.207"/></g><g id="elem_GMN9"><path d="M932,477.3945 L932,490.8945 L897.32,494.8945 L932,498.8945 L932,512.5508 A0,0 0 0 0 932,512.5508 L1366,512.5508 A0,0 0 0 0 1366,512.5508 L1366,487.3945 L1356,477.3945 L932,477.3945 A0,0 0 0 0 932,477.3945 " fill="#FEFFDD" style="stroke:#181818;stroke-width:0.5;"/><path d="M1356,477.3945 L1356,487.3945 L1366,487.3945 L1356,477.3945 " fill="#FEFFDD" style="stroke:#181818;stroke-width:0.5;"/><text fill="#000000" font-family="sans-serif" font-size="20" lengthAdjust="spacing" textLength="413" x="938" y="503.1563">Generated by ANTLR from DSL grammar (.g4)</text></g><!--class FigureParser--><g id="elem_FigureParser"><rect codeLine="32" fill="#F1F1F1" height="76.3125" id="FigureParser" rx="2.5" ry="2.5" style="stroke:#181818;stroke-width:0.5;" width="148" x="1401" y="456.8945"/><ellipse cx="1417" cy="487.0508" fill="#ADD1B2" rx="12" ry="12" style="stroke:#181818;stroke-width:1.0;"/><path d="M1419.1406,481.9727 Q1419.3281,481.7227 1419.5469,481.5977 Q1419.7656,481.457 1420.0156,481.457 Q1420.4531,481.457 1420.7344,481.7695 Q1421.0156,482.0664 1421.0156,482.7852 L1421.0156,484.4883 Q1421.0156,485.207 1420.7344,485.5195 Q1420.4531,485.832 1420.0156,485.832 Q1419.625,485.832 1419.375,485.5977 Q1419.125,485.3789 1419.0156,484.7695 Q1418.9531,484.3477 1418.7344,484.1289 Q1418.3438,483.6914 1417.625,483.4258 Q1416.9063,483.1602 1416.1875,483.1602 Q1415.2813,483.1602 1414.5313,483.5508 Q1413.7813,483.9414 1413.2031,484.832 Q1412.625,485.707 1412.625,486.9102 L1412.625,488.207 Q1412.625,489.6602 1413.6719,490.6289 Q1414.7344,491.5977 1416.5938,491.5977 Q1417.7031,491.5977 1418.4844,491.2852 Q1418.9219,491.1133 1419.4375,490.5977 Q1419.75,490.2852 1419.9219,490.1914 Q1420.0938,490.0977 1420.3281,490.0977 Q1420.7188,490.0977 1421.0156,490.4102 Q1421.3281,490.707 1421.3281,491.1133 Q1421.3281,491.5195 1420.9219,491.9883 Q1420.3281,492.6758 1419.3906,493.0664 Q1418.125,493.5977 1416.6094,493.5977 Q1414.8281,493.5977 1413.4063,492.8633 Q1412.25,492.2695 1411.4375,491.0039 Q1410.625,489.7383 1410.625,488.2539 L1410.625,486.8945 Q1410.625,485.332 1411.3438,483.9883 Q1412.0781,482.6289 1413.3594,481.8945 Q1414.6563,481.1602 1416.1094,481.1602 Q1416.9688,481.1602 1417.7188,481.3633 Q1418.4844,481.5664 1419.1406,481.9727 Z " fill="#000000"/><text fill="#000000" font-family="sans-serif" font-size="20" font-style="italic" lengthAdjust="spacing" textLength="116" x="1431" y="482.6563">«Generated»</text><text fill="#000000" font-family="sans-serif" font-size="20" lengthAdjust="spacing" textLength="114" x="1432" y="507.8125">FigureParser</text><line style="stroke:#181818;stroke-width:0.5;" x1="1402" x2="1548" y1="517.207" y2="517.207"/><line style="stroke:#181818;stroke-width:0.5;" x1="1402" x2="1548" y1="525.207" y2="525.207"/></g><g id="elem_GMN13"><path d="M1584,477.3945 L1584,490.8945 L1549.18,494.8945 L1584,498.8945 L1584,512.5508 A0,0 0 0 0 1584,512.5508 L2018,512.5508 A0,0 0 0 0 2018,512.5508 L2018,487.3945 L2008,477.3945 L1584,477.3945 A0,0 0 0 0 1584,477.3945 " fill="#FEFFDD" style="stroke:#181818;stroke-width:0.5;"/><path d="M2008,477.3945 L2008,487.3945 L2018,487.3945 L2008,477.3945 " fill="#FEFFDD" style="stroke:#181818;stroke-width:0.5;"/><text fill="#000000" font-family="sans-serif" font-size="20" lengthAdjust="spacing" textLength="413" x="1590" y="503.1563">Generated by ANTLR from DSL grammar (.g4)</text></g><!--link Figure to DSLDescription--><g id="link_Figure_DSLDescription"><path codeLine="41" d="M215.05,151.9445 C237.9,189.6145 268.97,240.8545 290.59,276.4945 " fill="none" id="Figure-to-DSLDescription" style="stroke:#181818;stroke-width:1.0;"/><polygon fill="#181818" points="293.44,281.1945,292.1773,271.427,290.8403,276.9235,285.3437,275.5865,293.44,281.1945" style="stroke:#181818;stroke-width:1.0;"/><text fill="#000000" font-family="sans-serif" font-size="20" lengthAdjust="spacing" textLength="136" x="248" y="203.6563">DSLDescription</text></g><!--link DSLValidate to DSLDescription--><g id="link_DSLValidate_DSLDescription"><path codeLine="42" d="M487.84,151.9445 C448.63,189.9245 395.19,241.6945 358.36,277.3645 " fill="none" id="DSLValidate-to-DSLDescription" style="stroke:#181818;stroke-width:1.0;stroke-dasharray:7.0,7.0;"/><polygon fill="#181818" points="354.4,281.1945,363.6484,277.8083,357.9923,277.7167,358.0839,272.0606,354.4,281.1945" style="stroke:#181818;stroke-width:1.0;"/><text fill="#000000" font-family="sans-serif" font-size="20" lengthAdjust="spacing" textLength="77" x="455" y="203.6563">validates</text></g><!--link DSLValidate to ANTLRDSLValidatorPlugin--><g id="link_DSLValidate_ANTLRDSLValidatorPlugin"><path codeLine="43" d="M618.61,151.9445 C673.5,186.1245 746.34,231.4645 802.14,266.1945 " fill="none" id="DSLValidate-to-ANTLRDSLValidatorPlugin" style="stroke:#181818;stroke-width:1.0;"/><polygon fill="#181818" points="806.46,268.8845,800.9357,260.7309,802.216,266.241,796.7059,267.5213,806.46,268.8845" style="stroke:#181818;stroke-width:1.0;"/><text fill="#000000" font-family="sans-serif" font-size="20" lengthAdjust="spacing" textLength="41" x="703" y="203.6563">uses</text></g><!--link ANTLRDSLValidatorPlugin to FigureLexer--><g id="link_ANTLRDSLValidatorPlugin_FigureLexer"><path codeLine="46" d="M868.23,370.1145 C858.97,396.0245 847.78,427.3545 838.96,452.0145 " fill="none" id="ANTLRDSLValidatorPlugin-to-FigureLexer" style="stroke:#181818;stroke-width:1.0;"/><polygon fill="#181818" points="837.24,456.8545,844.0175,449.7086,838.9108,452.142,836.4774,447.0352,837.24,456.8545" style="stroke:#181818;stroke-width:1.0;"/><text fill="#000000" font-family="sans-serif" font-size="20" lengthAdjust="spacing" textLength="41" x="857" y="421.6563">uses</text></g><!--link ANTLRDSLValidatorPlugin to FigureParser--><g id="link_ANTLRDSLValidatorPlugin_FigureParser"><path codeLine="47" d="M1021.26,352.8445 C1122.17,378.1645 1262.91,415.8445 1384,456.8945 C1387.95,458.2345 1391.97,459.6545 1396.02,461.1245 " fill="none" id="ANTLRDSLValidatorPlugin-to-FigureParser" style="stroke:#181818;stroke-width:1.0;"/><polygon fill="#181818" points="1400.78,462.8745,1393.7139,456.0138,1396.0873,461.1486,1390.9525,463.5221,1400.78,462.8745" style="stroke:#181818;stroke-width:1.0;"/><text fill="#000000" font-family="sans-serif" font-size="20" lengthAdjust="spacing" textLength="41" x="1290" y="421.6563">uses</text></g><!--SRC=[fLB1IiD04BtlLmprq8WqY7WgfL28zHAqMEbzcvriroIxONTJhD9_TvkiDKsD8iufpBxtvkNDc4p8acfQv2h9a073b5QvdIjfb-8DuUQQ6BHWy02oIeDK4WafQP9HZZ28L4657C15L1Uy4mAkXdF1AuqmurmZfnRhRf9JOy0_JIPtqWgxcquT2NnTmPRcWZb2j8mZD8aMfHLA1fTZM2kL8vKrTazQWgTG9xoYUONmk7x1n1xbkvIL7-JmIzHRaM2Fau2PlAL_xcJVoiDi5DCkeh3CAovacDO_UvPFusBsy1m_VLbHUb6JdAFcep-Q854CVyga2Jd6LzHExXubklKXwwOXbGj02xwneD8swJZsI8NrhZ4CgLR58K7WxcuAgY48-UrbpK39QirpAmkgpT-zDAp_cd43Xj1SAiH2PeRu6noDfjth6NSQf7qgOVWD_dCjvWHwaExRxnWgu-3Eb6yqflhW1wdsFZtzTxZFtEC_0000]--></g></svg>