<svg xmlns="http://www.w3.org/2000/svg" xmlns:xlink="http://www.w3.org/1999/xlink" contentStyleType="text/css" height="1052px" preserveAspectRatio="none" style="width:1905px;height:1052px;background:#FFFFFF;" version="1.1" viewBox="0 0 1905 1052" width="1905px" zoomAndPan="magnify"><defs/><g><rect fill="#FFFFFF" height="857.6934" style="stroke:#181818;stroke-width:1.0;" width="10" x="39.5723" y="93.6211"/><rect fill="#FFFFFF" height="834.4023" style="stroke:#181818;stroke-width:1.0;" width="10" x="278.1465" y="116.9121"/><rect fill="#FFFFFF" height="771.8203" style="stroke:#181818;stroke-width:1.0;" width="10" x="460.1182" y="148.2031"/><rect fill="#FFFFFF" height="31.291" style="stroke:#181818;stroke-width:1.0;" width="10" x="635.4727" y="179.4941"/><rect fill="#FFFFFF" height="31.291" style="stroke:#181818;stroke-width:1.0;" width="10" x="776.9653" y="210.7852"/><rect fill="#FFFFFF" height="75.582" style="stroke:#181818;stroke-width:1.0;" width="10" x="936.3579" y="242.0762"/><rect fill="#FFFFFF" height="30" style="stroke:#181818;stroke-width:1.0;" width="10" x="936.3579" y="858.7324"/><rect fill="#FFFFFF" height="31.291" style="stroke:#181818;stroke-width:1.0;" width="10" x="1086.6978" y="348.9492"/><rect fill="#FFFFFF" height="354.6191" style="stroke:#181818;stroke-width:1.0;" width="10" x="1216.1489" y="411.5313"/><rect fill="#FFFFFF" height="30" style="stroke:#181818;stroke-width:1.0;" width="10" x="1359.6104" y="797.4414"/><rect fill="#FFFFFF" height="31.291" style="stroke:#181818;stroke-width:1.0;" width="10" x="1507.334" y="505.4043"/><rect fill="#FFFFFF" height="105.582" style="stroke:#181818;stroke-width:1.0;" width="10" x="1663.5923" y="567.9863"/><rect fill="#FFFFFF" height="28" style="stroke:#181818;stroke-width:1.0;" width="10" x="1668.5923" y="607.2773"/><rect fill="#FFFFFF" height="30" style="stroke:#181818;stroke-width:1.0;" width="10" x="1821.416" y="704.8594"/><line style="stroke:#181818;stroke-width:0.5;stroke-dasharray:5.0,5.0;" x1="44" x2="44" y1="83.6211" y2="969.3145"/><line style="stroke:#181818;stroke-width:0.5;stroke-dasharray:5.0,5.0;" x1="282.833" x2="282.833" y1="83.6211" y2="969.3145"/><line style="stroke:#181818;stroke-width:0.5;stroke-dasharray:5.0,5.0;" x1="464.46" x2="464.46" y1="83.6211" y2="969.3145"/><line style="stroke:#181818;stroke-width:0.5;stroke-dasharray:5.0,5.0;" x1="639.7764" x2="639.7764" y1="83.6211" y2="969.3145"/><line style="stroke:#181818;stroke-width:0.5;stroke-dasharray:5.0,5.0;" x1="781.1689" x2="781.1689" y1="83.6211" y2="969.3145"/><line style="stroke:#181818;stroke-width:0.5;stroke-dasharray:5.0,5.0;" x1="940.7617" x2="940.7617" y1="83.6211" y2="969.3145"/><line style="stroke:#181818;stroke-width:0.5;stroke-dasharray:5.0,5.0;" x1="1091.5601" x2="1091.5601" y1="83.6211" y2="969.3145"/><line style="stroke:#181818;stroke-width:0.5;stroke-dasharray:5.0,5.0;" x1="1220.8354" x2="1220.8354" y1="83.6211" y2="969.3145"/><line style="stroke:#181818;stroke-width:0.5;stroke-dasharray:5.0,5.0;" x1="1364.4624" x2="1364.4624" y1="83.6211" y2="969.3145"/><line style="stroke:#181818;stroke-width:0.5;stroke-dasharray:5.0,5.0;" x1="1511.7583" x2="1511.7583" y1="83.6211" y2="969.3145"/><line style="stroke:#181818;stroke-width:0.5;stroke-dasharray:5.0,5.0;" x1="1667.9097" x2="1667.9097" y1="83.6211" y2="969.3145"/><line style="stroke:#181818;stroke-width:0.5;stroke-dasharray:5.0,5.0;" x1="1826.2749" x2="1826.2749" y1="83.6211" y2="969.3145"/><text fill="#000000" font-family="sans-serif" font-size="14" lengthAdjust="spacing" textLength="73.1445" x="5" y="80.1074">Drone Tech</text><ellipse cx="44.5723" cy="13.5" fill="#E2E2F0" rx="8" ry="8" style="stroke:#181818;stroke-width:0.5;"/><path d="M44.5723,21.5 L44.5723,48.5 M31.5723,29.5 L57.5723,29.5 M44.5723,48.5 L31.5723,63.5 M44.5723,48.5 L57.5723,63.5 " fill="none" style="stroke:#181818;stroke-width:0.5;"/><text fill="#000000" font-family="sans-serif" font-size="14" lengthAdjust="spacing" textLength="73.1445" x="5" y="983.4219">Drone Tech</text><ellipse cx="44.5723" cy="995.4355" fill="#E2E2F0" rx="8" ry="8" style="stroke:#181818;stroke-width:0.5;"/><path d="M44.5723,1003.4355 L44.5723,1030.4355 M31.5723,1011.4355 L57.5723,1011.4355 M44.5723,1030.4355 L31.5723,1045.4355 M44.5723,1030.4355 L57.5723,1045.4355 " fill="none" style="stroke:#181818;stroke-width:0.5;"/><rect fill="#E2E2F0" height="32.6211" rx="2.5" ry="2.5" style="stroke:#181818;stroke-width:0.5;" width="148.627" x="208.833" y="50"/><text fill="#000000" font-family="sans-serif" font-size="14" lengthAdjust="spacing" textLength="134.627" x="215.833" y="72.1074">GenerateShowDSLUI</text><rect fill="#E2E2F0" height="32.6211" rx="2.5" ry="2.5" style="stroke:#181818;stroke-width:0.5;" width="148.627" x="208.833" y="968.3145"/><text fill="#000000" font-family="sans-serif" font-size="14" lengthAdjust="spacing" textLength="134.627" x="215.833" y="990.4219">GenerateShowDSLUI</text><rect fill="#E2E2F0" height="32.6211" rx="2.5" ry="2.5" style="stroke:#181818;stroke-width:0.5;" width="195.3164" x="367.46" y="50"/><text fill="#000000" font-family="sans-serif" font-size="14" lengthAdjust="spacing" textLength="181.3164" x="374.46" y="72.1074">GenerateShowDSLController</text><rect fill="#E2E2F0" height="32.6211" rx="2.5" ry="2.5" style="stroke:#181818;stroke-width:0.5;" width="195.3164" x="367.46" y="968.3145"/><text fill="#000000" font-family="sans-serif" font-size="14" lengthAdjust="spacing" textLength="181.3164" x="374.46" y="990.4219">GenerateShowDSLController</text><rect fill="#E2E2F0" height="32.6211" rx="2.5" ry="2.5" style="stroke:#181818;stroke-width:0.5;" width="135.3926" x="572.7764" y="50"/><text fill="#000000" font-family="sans-serif" font-size="14" lengthAdjust="spacing" textLength="121.3926" x="579.7764" y="72.1074">PersistenceContext</text><rect fill="#E2E2F0" height="32.6211" rx="2.5" ry="2.5" style="stroke:#181818;stroke-width:0.5;" width="135.3926" x="572.7764" y="968.3145"/><text fill="#000000" font-family="sans-serif" font-size="14" lengthAdjust="spacing" textLength="121.3926" x="579.7764" y="990.4219">PersistenceContext</text><rect fill="#E2E2F0" height="32.6211" rx="2.5" ry="2.5" style="stroke:#181818;stroke-width:0.5;" width="127.5928" x="718.1689" y="50"/><text fill="#000000" font-family="sans-serif" font-size="14" lengthAdjust="spacing" textLength="113.5928" x="725.1689" y="72.1074">RepositoryFactory</text><rect fill="#E2E2F0" height="32.6211" rx="2.5" ry="2.5" style="stroke:#181818;stroke-width:0.5;" width="127.5928" x="718.1689" y="968.3145"/><text fill="#000000" font-family="sans-serif" font-size="14" lengthAdjust="spacing" textLength="113.5928" x="725.1689" y="990.4219">RepositoryFactory</text><rect fill="#E2E2F0" height="32.6211" rx="2.5" ry="2.5" style="stroke:#181818;stroke-width:0.5;" width="171.1924" x="855.7617" y="50"/><text fill="#000000" font-family="sans-serif" font-size="14" lengthAdjust="spacing" textLength="157.1924" x="862.7617" y="72.1074">ShowProposalRepository</text><rect fill="#E2E2F0" height="32.6211" rx="2.5" ry="2.5" style="stroke:#181818;stroke-width:0.5;" width="171.1924" x="855.7617" y="968.3145"/><text fill="#000000" font-family="sans-serif" font-size="14" lengthAdjust="spacing" textLength="157.1924" x="862.7617" y="990.4219">ShowProposalRepository</text><rect fill="#E2E2F0" height="32.6211" rx="2.5" ry="2.5" style="stroke:#181818;stroke-width:0.5;" width="104.2754" x="1039.5601" y="50"/><text fill="#000000" font-family="sans-serif" font-size="14" lengthAdjust="spacing" textLength="90.2754" x="1046.5601" y="72.1074">ShowProposal</text><rect fill="#E2E2F0" height="32.6211" rx="2.5" ry="2.5" style="stroke:#181818;stroke-width:0.5;" width="104.2754" x="1039.5601" y="968.3145"/><text fill="#000000" font-family="sans-serif" font-size="14" lengthAdjust="spacing" textLength="90.2754" x="1046.5601" y="990.4219">ShowProposal</text><rect fill="#E2E2F0" height="32.6211" rx="2.5" ry="2.5" style="stroke:#181818;stroke-width:0.5;" width="134.627" x="1153.8354" y="50"/><text fill="#000000" font-family="sans-serif" font-size="14" lengthAdjust="spacing" textLength="120.627" x="1160.8354" y="72.1074">GenerateShowDSL</text><rect fill="#E2E2F0" height="32.6211" rx="2.5" ry="2.5" style="stroke:#181818;stroke-width:0.5;" width="134.627" x="1153.8354" y="968.3145"/><text fill="#000000" font-family="sans-serif" font-size="14" lengthAdjust="spacing" textLength="120.627" x="1160.8354" y="990.4219">GenerateShowDSL</text><rect fill="#E2E2F0" height="32.6211" rx="2.5" ry="2.5" style="stroke:#181818;stroke-width:0.5;" width="132.2959" x="1298.4624" y="50"/><text fill="#000000" font-family="sans-serif" font-size="14" lengthAdjust="spacing" textLength="118.2959" x="1305.4624" y="72.1074">ShowConfiguration</text><rect fill="#E2E2F0" height="32.6211" rx="2.5" ry="2.5" style="stroke:#181818;stroke-width:0.5;" width="132.2959" x="1298.4624" y="968.3145"/><text fill="#000000" font-family="sans-serif" font-size="14" lengthAdjust="spacing" textLength="118.2959" x="1305.4624" y="990.4219">ShowConfiguration</text><rect fill="#E2E2F0" height="32.6211" rx="2.5" ry="2.5" style="stroke:#181818;stroke-width:0.5;" width="143.1514" x="1440.7583" y="50"/><text fill="#000000" font-family="sans-serif" font-size="14" lengthAdjust="spacing" textLength="129.1514" x="1447.7583" y="72.1074">ShowGrammarLexer</text><rect fill="#E2E2F0" height="32.6211" rx="2.5" ry="2.5" style="stroke:#181818;stroke-width:0.5;" width="143.1514" x="1440.7583" y="968.3145"/><text fill="#000000" font-family="sans-serif" font-size="14" lengthAdjust="spacing" textLength="129.1514" x="1447.7583" y="990.4219">ShowGrammarLexer</text><rect fill="#E2E2F0" height="32.6211" rx="2.5" ry="2.5" style="stroke:#181818;stroke-width:0.5;" width="149.3652" x="1593.9097" y="50"/><text fill="#000000" font-family="sans-serif" font-size="14" lengthAdjust="spacing" textLength="135.3652" x="1600.9097" y="72.1074">ShowGrammarParser</text><rect fill="#E2E2F0" height="32.6211" rx="2.5" ry="2.5" style="stroke:#181818;stroke-width:0.5;" width="149.3652" x="1593.9097" y="968.3145"/><text fill="#000000" font-family="sans-serif" font-size="14" lengthAdjust="spacing" textLength="135.3652" x="1600.9097" y="990.4219">ShowGrammarParser</text><rect fill="#E2E2F0" height="32.6211" rx="2.5" ry="2.5" style="stroke:#181818;stroke-width:0.5;" width="146.2822" x="1753.2749" y="50"/><text fill="#000000" font-family="sans-serif" font-size="14" lengthAdjust="spacing" textLength="132.2822" x="1760.2749" y="72.1074">ShowDSLDescription</text><rect fill="#E2E2F0" height="32.6211" rx="2.5" ry="2.5" style="stroke:#181818;stroke-width:0.5;" width="146.2822" x="1753.2749" y="968.3145"/><text fill="#000000" font-family="sans-serif" font-size="14" lengthAdjust="spacing" textLength="132.2822" x="1760.2749" y="990.4219">ShowDSLDescription</text><rect fill="#FFFFFF" height="857.6934" style="stroke:#181818;stroke-width:1.0;" width="10" x="39.5723" y="93.6211"/><rect fill="#FFFFFF" height="834.4023" style="stroke:#181818;stroke-width:1.0;" width="10" x="278.1465" y="116.9121"/><rect fill="#FFFFFF" height="771.8203" style="stroke:#181818;stroke-width:1.0;" width="10" x="460.1182" y="148.2031"/><rect fill="#FFFFFF" height="31.291" style="stroke:#181818;stroke-width:1.0;" width="10" x="635.4727" y="179.4941"/><rect fill="#FFFFFF" height="31.291" style="stroke:#181818;stroke-width:1.0;" width="10" x="776.9653" y="210.7852"/><rect fill="#FFFFFF" height="75.582" style="stroke:#181818;stroke-width:1.0;" width="10" x="936.3579" y="242.0762"/><rect fill="#FFFFFF" height="30" style="stroke:#181818;stroke-width:1.0;" width="10" x="936.3579" y="858.7324"/><rect fill="#FFFFFF" height="31.291" style="stroke:#181818;stroke-width:1.0;" width="10" x="1086.6978" y="348.9492"/><rect fill="#FFFFFF" height="354.6191" style="stroke:#181818;stroke-width:1.0;" width="10" x="1216.1489" y="411.5313"/><rect fill="#FFFFFF" height="30" style="stroke:#181818;stroke-width:1.0;" width="10" x="1359.6104" y="797.4414"/><rect fill="#FFFFFF" height="31.291" style="stroke:#181818;stroke-width:1.0;" width="10" x="1507.334" y="505.4043"/><rect fill="#FFFFFF" height="105.582" style="stroke:#181818;stroke-width:1.0;" width="10" x="1663.5923" y="567.9863"/><rect fill="#FFFFFF" height="28" style="stroke:#181818;stroke-width:1.0;" width="10" x="1668.5923" y="607.2773"/><rect fill="#FFFFFF" height="30" style="stroke:#181818;stroke-width:1.0;" width="10" x="1821.416" y="704.8594"/><polygon fill="#181818" points="266.1465,112.9121,276.1465,116.9121,266.1465,120.9121,270.1465,116.9121" style="stroke:#181818;stroke-width:1.0;"/><line style="stroke:#181818;stroke-width:1.0;" x1="49.5723" x2="272.1465" y1="116.9121" y2="116.9121"/><text fill="#000000" font-family="sans-serif" font-size="13" lengthAdjust="spacing" textLength="209.5742" x="56.5723" y="111.6494">request DSL generation for proposal</text><polygon fill="#181818" points="448.1182,144.2031,458.1182,148.2031,448.1182,152.2031,452.1182,148.2031" style="stroke:#181818;stroke-width:1.0;"/><line style="stroke:#181818;stroke-width:1.0;" x1="288.1465" x2="454.1182" y1="148.2031" y2="148.2031"/><text fill="#000000" font-family="sans-serif" font-size="13" lengthAdjust="spacing" textLength="145.9771" x="295.1465" y="142.9404">generateDSL(proposalId)</text><polygon fill="#181818" points="623.4727,175.4941,633.4727,179.4941,623.4727,183.4941,627.4727,179.4941" style="stroke:#181818;stroke-width:1.0;"/><line style="stroke:#181818;stroke-width:1.0;" x1="470.1182" x2="629.4727" y1="179.4941" y2="179.4941"/><text fill="#000000" font-family="sans-serif" font-size="13" lengthAdjust="spacing" textLength="121.3799" x="477.1182" y="174.2314">PersistenceContext()</text><polygon fill="#181818" points="764.9653,206.7852,774.9653,210.7852,764.9653,214.7852,768.9653,210.7852" style="stroke:#181818;stroke-width:1.0;"/><line style="stroke:#181818;stroke-width:1.0;" x1="640.4727" x2="770.9653" y1="210.7852" y2="210.7852"/><text fill="#000000" font-family="sans-serif" font-size="13" lengthAdjust="spacing" textLength="75.8545" x="647.4727" y="205.5225">repositories()</text><polygon fill="#181818" points="924.3579,238.0762,934.3579,242.0762,924.3579,246.0762,928.3579,242.0762" style="stroke:#181818;stroke-width:1.0;"/><line style="stroke:#181818;stroke-width:1.0;" x1="781.9653" x2="930.3579" y1="242.0762" y2="242.0762"/><text fill="#000000" font-family="sans-serif" font-size="13" lengthAdjust="spacing" textLength="96.8145" x="788.9653" y="236.8135">showProposals()</text><line style="stroke:#181818;stroke-width:1.0;" x1="946.3579" x2="988.3579" y1="273.3672" y2="273.3672"/><line style="stroke:#181818;stroke-width:1.0;" x1="988.3579" x2="988.3579" y1="273.3672" y2="286.3672"/><line style="stroke:#181818;stroke-width:1.0;" x1="947.3579" x2="988.3579" y1="286.3672" y2="286.3672"/><polygon fill="#181818" points="957.3579,282.3672,947.3579,286.3672,957.3579,290.3672,953.3579,286.3672" style="stroke:#181818;stroke-width:1.0;"/><text fill="#000000" font-family="sans-serif" font-size="13" lengthAdjust="spacing" textLength="116.3398" x="953.3579" y="268.1045">findById(proposalId)</text><polygon fill="#181818" points="481.1182,313.6582,471.1182,317.6582,481.1182,321.6582,477.1182,317.6582" style="stroke:#181818;stroke-width:1.0;"/><line style="stroke:#181818;stroke-width:1.0;stroke-dasharray:2.0,2.0;" x1="475.1182" x2="940.3579" y1="317.6582" y2="317.6582"/><text fill="#000000" font-family="sans-serif" font-size="13" lengthAdjust="spacing" textLength="49.8672" x="487.1182" y="312.3955">proposal</text><polygon fill="#181818" points="1074.6978,344.9492,1084.6978,348.9492,1074.6978,352.9492,1078.6978,348.9492" style="stroke:#181818;stroke-width:1.0;"/><line style="stroke:#181818;stroke-width:1.0;" x1="470.1182" x2="1080.6978" y1="348.9492" y2="348.9492"/><text fill="#000000" font-family="sans-serif" font-size="13" lengthAdjust="spacing" textLength="104.0571" x="477.1182" y="343.6865">getConfiguration()</text><polygon fill="#181818" points="481.1182,376.2402,471.1182,380.2402,481.1182,384.2402,477.1182,380.2402" style="stroke:#181818;stroke-width:1.0;"/><line style="stroke:#181818;stroke-width:1.0;stroke-dasharray:2.0,2.0;" x1="475.1182" x2="1090.6978" y1="380.2402" y2="380.2402"/><text fill="#000000" font-family="sans-serif" font-size="13" lengthAdjust="spacing" textLength="74.439" x="487.1182" y="374.9775">configuration</text><polygon fill="#181818" points="1204.1489,407.5313,1214.1489,411.5313,1204.1489,415.5313,1208.1489,411.5313" style="stroke:#181818;stroke-width:1.0;"/><line style="stroke:#181818;stroke-width:1.0;" x1="470.1182" x2="1210.1489" y1="411.5313" y2="411.5313"/><text fill="#000000" font-family="sans-serif" font-size="13" lengthAdjust="spacing" textLength="164.7471" x="477.1182" y="406.2686">generateFrom(configuration)</text><polygon fill="#181818" points="1352.6104,438.8223,1362.6104,442.8223,1352.6104,446.8223,1356.6104,442.8223" style="stroke:#181818;stroke-width:1.0;"/><line style="stroke:#181818;stroke-width:1.0;" x1="1226.1489" x2="1358.6104" y1="442.8223" y2="442.8223"/><text fill="#000000" font-family="sans-serif" font-size="13" lengthAdjust="spacing" textLength="70.0781" x="1233.1489" y="437.5596">getFigures()</text><polygon fill="#181818" points="1237.1489,470.1133,1227.1489,474.1133,1237.1489,478.1133,1233.1489,474.1133" style="stroke:#181818;stroke-width:1.0;"/><line style="stroke:#181818;stroke-width:1.0;stroke-dasharray:2.0,2.0;" x1="1231.1489" x2="1363.6104" y1="474.1133" y2="474.1133"/><text fill="#000000" font-family="sans-serif" font-size="13" lengthAdjust="spacing" textLength="72.9727" x="1243.1489" y="468.8506">list of figures</text><polygon fill="#181818" points="1495.334,501.4043,1505.334,505.4043,1495.334,509.4043,1499.334,505.4043" style="stroke:#181818;stroke-width:1.0;"/><line style="stroke:#181818;stroke-width:1.0;" x1="1226.1489" x2="1501.334" y1="505.4043" y2="505.4043"/><text fill="#000000" font-family="sans-serif" font-size="13" lengthAdjust="spacing" textLength="184.2344" x="1233.1489" y="500.1416">new ShowGrammarLexer(input)</text><polygon fill="#181818" points="1237.1489,532.6953,1227.1489,536.6953,1237.1489,540.6953,1233.1489,536.6953" style="stroke:#181818;stroke-width:1.0;"/><line style="stroke:#181818;stroke-width:1.0;stroke-dasharray:2.0,2.0;" x1="1231.1489" x2="1511.334" y1="536.6953" y2="536.6953"/><text fill="#000000" font-family="sans-serif" font-size="13" lengthAdjust="spacing" textLength="75.1436" x="1243.1489" y="531.4326">token stream</text><polygon fill="#181818" points="1651.5923,563.9863,1661.5923,567.9863,1651.5923,571.9863,1655.5923,567.9863" style="stroke:#181818;stroke-width:1.0;"/><line style="stroke:#181818;stroke-width:1.0;" x1="1226.1489" x2="1657.5923" y1="567.9863" y2="567.9863"/><text fill="#000000" font-family="sans-serif" font-size="13" lengthAdjust="spacing" textLength="200.1162" x="1233.1489" y="562.7236">new ShowGrammarParser(tokens)</text><line style="stroke:#181818;stroke-width:1.0;" x1="1678.5923" x2="1720.5923" y1="599.2773" y2="599.2773"/><line style="stroke:#181818;stroke-width:1.0;" x1="1720.5923" x2="1720.5923" y1="599.2773" y2="612.2773"/><line style="stroke:#181818;stroke-width:1.0;" x1="1679.5923" x2="1720.5923" y1="612.2773" y2="612.2773"/><polygon fill="#181818" points="1689.5923,608.2773,1679.5923,612.2773,1689.5923,616.2773,1685.5923,612.2773" style="stroke:#181818;stroke-width:1.0;"/><text fill="#000000" font-family="sans-serif" font-size="13" lengthAdjust="spacing" textLength="74.4009" x="1685.5923" y="594.0146">parser.start()</text><polygon fill="#181818" points="1237.1489,669.5684,1227.1489,673.5684,1237.1489,677.5684,1233.1489,673.5684" style="stroke:#181818;stroke-width:1.0;"/><line style="stroke:#181818;stroke-width:1.0;stroke-dasharray:2.0,2.0;" x1="1231.1489" x2="1667.5923" y1="673.5684" y2="673.5684"/><text fill="#000000" font-family="sans-serif" font-size="13" lengthAdjust="spacing" textLength="164.709" x="1243.1489" y="668.3057">parse result (success/errors)</text><polygon fill="#181818" points="1809.416,700.8594,1819.416,704.8594,1809.416,708.8594,1813.416,704.8594" style="stroke:#181818;stroke-width:1.0;"/><line style="stroke:#181818;stroke-width:1.0;" x1="1226.1489" x2="1815.416" y1="704.8594" y2="704.8594"/><text fill="#000000" font-family="sans-serif" font-size="13" lengthAdjust="spacing" textLength="130.0571" x="1233.1489" y="699.5967">create DSLDescription</text><polygon fill="#181818" points="481.1182,762.1504,471.1182,766.1504,481.1182,770.1504,477.1182,766.1504" style="stroke:#181818;stroke-width:1.0;"/><line style="stroke:#181818;stroke-width:1.0;stroke-dasharray:2.0,2.0;" x1="475.1182" x2="1220.1489" y1="766.1504" y2="766.1504"/><text fill="#000000" font-family="sans-serif" font-size="13" lengthAdjust="spacing" textLength="90.3145" x="487.1182" y="760.8877">DSLDescription</text><polygon fill="#181818" points="1347.6104,793.4414,1357.6104,797.4414,1347.6104,801.4414,1351.6104,797.4414" style="stroke:#181818;stroke-width:1.0;"/><line style="stroke:#181818;stroke-width:1.0;" x1="470.1182" x2="1353.6104" y1="797.4414" y2="797.4414"/><text fill="#000000" font-family="sans-serif" font-size="13" lengthAdjust="spacing" textLength="210.9771" x="477.1182" y="792.1787">addDSLDescription(DSLDescription)</text><polygon fill="#181818" points="924.3579,854.7324,934.3579,858.7324,924.3579,862.7324,928.3579,858.7324" style="stroke:#181818;stroke-width:1.0;"/><line style="stroke:#181818;stroke-width:1.0;" x1="470.1182" x2="930.3579" y1="858.7324" y2="858.7324"/><text fill="#000000" font-family="sans-serif" font-size="13" lengthAdjust="spacing" textLength="85.9854" x="477.1182" y="853.4697">save(proposal)</text><polygon fill="#181818" points="299.1465,916.0234,289.1465,920.0234,299.1465,924.0234,295.1465,920.0234" style="stroke:#181818;stroke-width:1.0;"/><line style="stroke:#181818;stroke-width:1.0;stroke-dasharray:2.0,2.0;" x1="293.1465" x2="464.1182" y1="920.0234" y2="920.0234"/><text fill="#000000" font-family="sans-serif" font-size="13" lengthAdjust="spacing" textLength="80.9199" x="305.1465" y="914.7607">show success</text><polygon fill="#181818" points="55.5723,947.3145,45.5723,951.3145,55.5723,955.3145,51.5723,951.3145" style="stroke:#181818;stroke-width:1.0;"/><line style="stroke:#181818;stroke-width:1.0;stroke-dasharray:2.0,2.0;" x1="49.5723" x2="282.1465" y1="951.3145" y2="951.3145"/><text fill="#000000" font-family="sans-serif" font-size="13" lengthAdjust="spacing" textLength="174.8716" x="61.5723" y="946.0518">show DSL generation success</text><!--SRC=[VLJBSjim3BphApW-oOSqznnwQ3tEQ2O7JvDy04U24qvbKYMf9FxxWYy991LV4f7UNO300hotIhFTGIi9x0NwzntZXhqQqCt4jHMzcBYqRFS84ZItyFokFW_FJwzTm7KtKR-Lj5gD8sYFNeyvwmJQ26D1zk0Wy6Kzd5pd-3ymAICmx-kHk_Il7Xw_SwXBvAGLulcuqZpU7Ry7XmpYuUOZFHB_nskbQr5yrLcypVYhK3ALOhsf2O-QNovSFy5NB9t_-XPtujf4OFYiaPZW0KolnRJaa5yr3TPFVE2xGlSRzvVT_SGUimUcuTyCnZeEUmiFHGuxetUcLAILto6xSzoruwWHUO0QRI9rmtxb4NyqX8awn0eeLFkb9IhKDWqbeaxqY7zGD8C0W-m1jldBRN9NKa0nPo1KCiGrXLGYhJBUT9wu2fo577vTko4hIi2K9LngJO9uoR9U4UUhRZEpPQLASWk-YjXdHgLbIjmYD9q4qlIZLfSs4oDvPDFJP0eXdvKLNdHqPz-u_CUxEe4HUydKcPq3fPRteuL02P-idBrMo6cs9DCmXu6o4Soglo2PiHhuXHOhqAhGOLZhsE6-zMg6zYiCTwHHWSb__30Mvxwj6RHluMOHgH_XjN10p3nQrfgvxy6OUz1QQRFVa2fVbUyLvo4iH-WotJUq-_IU12WtL1wfjEfD7UAltA-bk_Wmv49jViptrVPiv3yK0TFQu1-mJFo-s10tnpljPBTuM6nF4JsjKRU57JoOn1EA3Rx1n_LDJyZz3m00]--></g></svg>