<svg xmlns="http://www.w3.org/2000/svg" xmlns:xlink="http://www.w3.org/1999/xlink" contentStyleType="text/css" height="1225px" preserveAspectRatio="none" style="width:4395px;height:1225px;background:#FFFFFF;" version="1.1" viewBox="0 0 4395 1225" width="4395px" zoomAndPan="magnify"><defs/><g><!--cluster Domain--><g id="cluster_Domain"><path d="M2404.5,548.95 L2456.8379,548.95 A3.75,3.75 0 0 1 2459.3379,551.45 L2466.3379,573.5711 L4385.5,573.5711 A2.5,2.5 0 0 1 4388,576.0711 L4388,911.45 A2.5,2.5 0 0 1 4385.5,913.95 L2404.5,913.95 A2.5,2.5 0 0 1 2402,911.45 L2402,551.45 A2.5,2.5 0 0 1 2404.5,548.95 " fill="#DDDDDD" style="stroke:#000000;stroke-width:1.5;"/><line style="stroke:#000000;stroke-width:1.5;" x1="2402" x2="2466.3379" y1="573.5711" y2="573.5711"/><text fill="#000000" font-family="sans-serif" font-size="14" font-weight="bold" lengthAdjust="spacing" textLength="51.3379" x="2406" y="566.0574">Domain</text></g><!--cluster Repository --><g id="cluster_Repository "><path d="M2428.5,679.95 L2506.5137,679.95 A3.75,3.75 0 0 1 2509.0137,682.45 L2516.0137,704.5711 L4149.5,704.5711 A2.5,2.5 0 0 1 4152,707.0711 L4152,828.45 A2.5,2.5 0 0 1 4149.5,830.95 L2428.5,830.95 A2.5,2.5 0 0 1 2426,828.45 L2426,682.45 A2.5,2.5 0 0 1 2428.5,679.95 " fill="#DDDDDD" style="stroke:#000000;stroke-width:1.5;"/><line style="stroke:#000000;stroke-width:1.5;" x1="2426" x2="2516.0137" y1="704.5711" y2="704.5711"/><text fill="#000000" font-family="sans-serif" font-size="14" font-weight="bold" lengthAdjust="spacing" textLength="73.124" x="2430" y="697.0574">Repository</text></g><!--cluster UI--><g id="cluster_UI"><path d="M8.5,945.95 L23.5,945.95 A3.75,3.75 0 0 1 26,948.45 L33,970.5711 L213.5,970.5711 A2.5,2.5 0 0 1 216,973.0711 L216,1058.45 A2.5,2.5 0 0 1 213.5,1060.95 L8.5,1060.95 A2.5,2.5 0 0 1 6,1058.45 L6,948.45 A2.5,2.5 0 0 1 8.5,945.95 " fill="#DDDDDD" style="stroke:#000000;stroke-width:1.5;"/><line style="stroke:#000000;stroke-width:1.5;" x1="6" x2="33" y1="970.5711" y2="970.5711"/><text fill="#000000" font-family="sans-serif" font-size="14" font-weight="bold" lengthAdjust="spacing" textLength="14" x="10" y="963.0574">UI</text></g><!--cluster Controller--><g id="cluster_Controller"><path d="M251.5,918.95 L319.3896,918.95 A3.75,3.75 0 0 1 321.8896,921.45 L328.8896,943.5711 L775.5,943.5711 A2.5,2.5 0 0 1 778,946.0711 L778,1085.45 A2.5,2.5 0 0 1 775.5,1087.95 L251.5,1087.95 A2.5,2.5 0 0 1 249,1085.45 L249,921.45 A2.5,2.5 0 0 1 251.5,918.95 " fill="#DDDDDD" style="stroke:#000000;stroke-width:1.5;"/><line style="stroke:#000000;stroke-width:1.5;" x1="249" x2="328.8896" y1="943.5711" y2="943.5711"/><text fill="#000000" font-family="sans-serif" font-size="14" font-weight="bold" lengthAdjust="spacing" textLength="66.8896" x="253" y="936.0574">Controller</text></g><!--cluster persistence.impl.jpa--><g id="cluster_persistence.impl.jpa"><path d="M1309.5,6.95 L1445.1064,6.95 A3.75,3.75 0 0 1 1447.6064,9.45 L1454.6064,31.5711 L2247.5,31.5711 A2.5,2.5 0 0 1 2250,34.0711 L2250,251.45 A2.5,2.5 0 0 1 2247.5,253.95 L1309.5,253.95 A2.5,2.5 0 0 1 1307,251.45 L1307,9.45 A2.5,2.5 0 0 1 1309.5,6.95 " fill="#DDDDDD" style="stroke:#000000;stroke-width:1.5;"/><line style="stroke:#000000;stroke-width:1.5;" x1="1307" x2="1454.6064" y1="31.5711" y2="31.5711"/><text fill="#000000" font-family="sans-serif" font-size="14" font-weight="bold" lengthAdjust="spacing" textLength="134.6064" x="1311" y="24.0574">persistence.impl.jpa</text></g><!--cluster persistence.impl.inmemory--><g id="cluster_persistence.impl.inmemory"><path d="M1839.5,277.95 L2021.7891,277.95 A3.75,3.75 0 0 1 2024.2891,280.45 L2031.2891,302.5711 L2777.5,302.5711 A2.5,2.5 0 0 1 2780,305.0711 L2780,522.45 A2.5,2.5 0 0 1 2777.5,524.95 L1839.5,524.95 A2.5,2.5 0 0 1 1837,522.45 L1837,280.45 A2.5,2.5 0 0 1 1839.5,277.95 " fill="#DDDDDD" style="stroke:#000000;stroke-width:1.5;"/><line style="stroke:#000000;stroke-width:1.5;" x1="1837" x2="2031.2891" y1="302.5711" y2="302.5711"/><text fill="#000000" font-family="sans-serif" font-size="14" font-weight="bold" lengthAdjust="spacing" textLength="181.2891" x="1841" y="295.0574">persistence.impl.inmemory</text></g><!--cluster persistence--><g id="cluster_persistence"><path d="M889.5,665.95 L968.3203,665.95 A3.75,3.75 0 0 1 970.8203,668.45 L977.8203,690.5711 L1135.5,690.5711 A2.5,2.5 0 0 1 1138,693.0711 L1138,784.45 A2.5,2.5 0 0 1 1135.5,786.95 L889.5,786.95 A2.5,2.5 0 0 1 887,784.45 L887,668.45 A2.5,2.5 0 0 1 889.5,665.95 " fill="#DDDDDD" style="stroke:#000000;stroke-width:1.5;"/><line style="stroke:#000000;stroke-width:1.5;" x1="887" x2="977.8203" y1="690.5711" y2="690.5711"/><text fill="#000000" font-family="sans-serif" font-size="14" font-weight="bold" lengthAdjust="spacing" textLength="77.8203" x="891" y="683.0574">persistence</text></g><!--class ShowRequest--><g id="elem_ShowRequest"><rect codeLine="25" fill="#F1F1F1" height="76.543" id="ShowRequest" rx="2.5" ry="2.5" style="stroke:#181818;stroke-width:0.5;" width="119.165" x="4253" y="704.45"/><ellipse cx="4268" cy="734.7215" fill="#ADD1B2" rx="11" ry="11" style="stroke:#181818;stroke-width:1.0;"/><path d="M4270.7656,730.5965 Q4270.9219,730.3777 4271.1094,730.2684 Q4271.2969,730.159 4271.5156,730.159 Q4271.8906,730.159 4272.125,730.4246 Q4272.3594,730.6746 4272.3594,731.284 L4272.3594,732.7371 Q4272.3594,733.3465 4272.125,733.6121 Q4271.8906,733.8777 4271.5156,733.8777 Q4271.1719,733.8777 4270.9688,733.6746 Q4270.7656,733.4871 4270.6563,732.9715 Q4270.6094,732.6121 4270.4219,732.4246 Q4270.0938,732.0496 4269.4844,731.8309 Q4268.875,731.6121 4268.25,731.6121 Q4267.4844,731.6121 4266.8438,731.9402 Q4266.2188,732.2684 4265.7188,733.0184 Q4265.2344,733.7684 4265.2344,734.7996 L4265.2344,735.8934 Q4265.2344,737.1277 4266.125,737.9559 Q4267.0156,738.7684 4268.6094,738.7684 Q4269.5469,738.7684 4270.2031,738.5184 Q4270.5938,738.3621 4271.0156,737.9246 Q4271.2813,737.659 4271.4219,737.5809 Q4271.5781,737.5027 4271.7813,737.5027 Q4272.1094,737.5027 4272.3594,737.7684 Q4272.625,738.0184 4272.625,738.3621 Q4272.625,738.7059 4272.2813,739.1121 Q4271.7813,739.6902 4270.9844,740.0184 Q4269.9063,740.4715 4268.6094,740.4715 Q4267.0938,740.4715 4265.8906,739.8465 Q4264.9063,739.3465 4264.2188,738.284 Q4263.5313,737.2059 4263.5313,735.9246 L4263.5313,734.7684 Q4263.5313,733.4402 4264.1406,732.2996 Q4264.7656,731.1434 4265.8594,730.534 Q4266.9531,729.909 4268.1875,729.909 Q4268.9219,729.909 4269.5625,730.0809 Q4270.2188,730.2371 4270.7656,730.5965 Z " fill="#000000"/><text fill="#000000" font-family="sans-serif" font-size="12" font-style="italic" lengthAdjust="spacing" textLength="43.3594" x="4303.9028" y="722.3992">&#171;Entity&#187;</text><text fill="#000000" font-family="sans-serif" font-size="12" font-style="italic" lengthAdjust="spacing" textLength="34.0254" x="4308.5698" y="738.3602">&#171;root&#187;</text><text fill="#000000" font-family="sans-serif" font-size="14" lengthAdjust="spacing" textLength="87.165" x="4282" y="756.4793">ShowRequest</text><line style="stroke:#181818;stroke-width:0.5;" x1="4254" x2="4371.165" y1="764.993" y2="764.993"/><line style="stroke:#181818;stroke-width:0.5;" x1="4254" x2="4371.165" y1="772.993" y2="772.993"/></g><!--class ShowProposal--><g id="elem_ShowProposal"><rect codeLine="28" fill="#F1F1F1" height="76.543" id="ShowProposal" rx="2.5" ry="2.5" style="stroke:#181818;stroke-width:0.5;" width="122.2754" x="3885.5" y="586.45"/><ellipse cx="3900.5" cy="616.7215" fill="#ADD1B2" rx="11" ry="11" style="stroke:#181818;stroke-width:1.0;"/><path d="M3903.2656,612.5965 Q3903.4219,612.3777 3903.6094,612.2684 Q3903.7969,612.159 3904.0156,612.159 Q3904.3906,612.159 3904.625,612.4246 Q3904.8594,612.6746 3904.8594,613.284 L3904.8594,614.7371 Q3904.8594,615.3465 3904.625,615.6121 Q3904.3906,615.8777 3904.0156,615.8777 Q3903.6719,615.8777 3903.4688,615.6746 Q3903.2656,615.4871 3903.1563,614.9715 Q3903.1094,614.6121 3902.9219,614.4246 Q3902.5938,614.0496 3901.9844,613.8309 Q3901.375,613.6121 3900.75,613.6121 Q3899.9844,613.6121 3899.3438,613.9402 Q3898.7188,614.2684 3898.2188,615.0184 Q3897.7344,615.7684 3897.7344,616.7996 L3897.7344,617.8934 Q3897.7344,619.1277 3898.625,619.9559 Q3899.5156,620.7684 3901.1094,620.7684 Q3902.0469,620.7684 3902.7031,620.5184 Q3903.0938,620.3621 3903.5156,619.9246 Q3903.7813,619.659 3903.9219,619.5809 Q3904.0781,619.5027 3904.2813,619.5027 Q3904.6094,619.5027 3904.8594,619.7684 Q3905.125,620.0184 3905.125,620.3621 Q3905.125,620.7059 3904.7813,621.1121 Q3904.2813,621.6902 3903.4844,622.0184 Q3902.4063,622.4715 3901.1094,622.4715 Q3899.5938,622.4715 3898.3906,621.8465 Q3897.4063,621.3465 3896.7188,620.284 Q3896.0313,619.2059 3896.0313,617.9246 L3896.0313,616.7684 Q3896.0313,615.4402 3896.6406,614.2996 Q3897.2656,613.1434 3898.3594,612.534 Q3899.4531,611.909 3900.6875,611.909 Q3901.4219,611.909 3902.0625,612.0809 Q3902.7188,612.2371 3903.2656,612.5965 Z " fill="#000000"/><text fill="#000000" font-family="sans-serif" font-size="12" font-style="italic" lengthAdjust="spacing" textLength="43.3594" x="3937.958" y="604.3992">&#171;Entity&#187;</text><text fill="#000000" font-family="sans-serif" font-size="12" font-style="italic" lengthAdjust="spacing" textLength="34.0254" x="3942.625" y="620.3602">&#171;root&#187;</text><text fill="#000000" font-family="sans-serif" font-size="14" lengthAdjust="spacing" textLength="90.2754" x="3914.5" y="638.4793">ShowProposal</text><line style="stroke:#181818;stroke-width:0.5;" x1="3886.5" x2="4006.7754" y1="646.993" y2="646.993"/><line style="stroke:#181818;stroke-width:0.5;" x1="3886.5" x2="4006.7754" y1="654.993" y2="654.993"/></g><!--class Video--><g id="elem_Video"><rect codeLine="31" fill="#F1F1F1" height="60.582" id="Video" rx="2.5" ry="2.5" style="stroke:#181818;stroke-width:0.5;" width="110.0547" x="4257.5" y="594.45"/><ellipse cx="4272.5" cy="616.741" fill="#ADD1B2" rx="11" ry="11" style="stroke:#181818;stroke-width:1.0;"/><path d="M4275.2656,612.616 Q4275.4219,612.3973 4275.6094,612.2879 Q4275.7969,612.1785 4276.0156,612.1785 Q4276.3906,612.1785 4276.625,612.4441 Q4276.8594,612.6941 4276.8594,613.3035 L4276.8594,614.7566 Q4276.8594,615.366 4276.625,615.6316 Q4276.3906,615.8973 4276.0156,615.8973 Q4275.6719,615.8973 4275.4688,615.6941 Q4275.2656,615.5066 4275.1563,614.991 Q4275.1094,614.6316 4274.9219,614.4441 Q4274.5938,614.0691 4273.9844,613.8504 Q4273.375,613.6316 4272.75,613.6316 Q4271.9844,613.6316 4271.3438,613.9598 Q4270.7188,614.2879 4270.2188,615.0379 Q4269.7344,615.7879 4269.7344,616.8191 L4269.7344,617.9129 Q4269.7344,619.1473 4270.625,619.9754 Q4271.5156,620.7879 4273.1094,620.7879 Q4274.0469,620.7879 4274.7031,620.5379 Q4275.0938,620.3816 4275.5156,619.9441 Q4275.7813,619.6785 4275.9219,619.6004 Q4276.0781,619.5223 4276.2813,619.5223 Q4276.6094,619.5223 4276.8594,619.7879 Q4277.125,620.0379 4277.125,620.3816 Q4277.125,620.7254 4276.7813,621.1316 Q4276.2813,621.7098 4275.4844,622.0379 Q4274.4063,622.491 4273.1094,622.491 Q4271.5938,622.491 4270.3906,621.866 Q4269.4063,621.366 4268.7188,620.3035 Q4268.0313,619.2254 4268.0313,617.9441 L4268.0313,616.7879 Q4268.0313,615.4598 4268.6406,614.3191 Q4269.2656,613.1629 4270.3594,612.5535 Q4271.4531,611.9285 4272.6875,611.9285 Q4273.4219,611.9285 4274.0625,612.1004 Q4274.7188,612.2566 4275.2656,612.616 Z " fill="#000000"/><text fill="#000000" font-family="sans-serif" font-size="12" font-style="italic" lengthAdjust="spacing" textLength="82.0547" x="4284.5" y="612.3992">&#171;Value Object&#187;</text><text fill="#000000" font-family="sans-serif" font-size="14" lengthAdjust="spacing" textLength="35.8066" x="4307.624" y="630.5184">Video</text><line style="stroke:#181818;stroke-width:0.5;" x1="4258.5" x2="4366.5547" y1="639.032" y2="639.032"/><line style="stroke:#181818;stroke-width:0.5;" x1="4258.5" x2="4366.5547" y1="647.032" y2="647.032"/></g><!--class VideoList--><g id="elem_VideoList"><rect codeLine="34" fill="#F1F1F1" height="48" id="VideoList" rx="2.5" ry="2.5" style="stroke:#181818;stroke-width:0.5;" width="89.5928" x="2529.5" y="849.95"/><ellipse cx="2544.5" cy="865.95" fill="#ADD1B2" rx="11" ry="11" style="stroke:#181818;stroke-width:1.0;"/><path d="M2547.2656,861.825 Q2547.4219,861.6063 2547.6094,861.4969 Q2547.7969,861.3875 2548.0156,861.3875 Q2548.3906,861.3875 2548.625,861.6531 Q2548.8594,861.9031 2548.8594,862.5125 L2548.8594,863.9656 Q2548.8594,864.575 2548.625,864.8406 Q2548.3906,865.1063 2548.0156,865.1063 Q2547.6719,865.1063 2547.4688,864.9031 Q2547.2656,864.7156 2547.1563,864.2 Q2547.1094,863.8406 2546.9219,863.6531 Q2546.5938,863.2781 2545.9844,863.0594 Q2545.375,862.8406 2544.75,862.8406 Q2543.9844,862.8406 2543.3438,863.1688 Q2542.7188,863.4969 2542.2188,864.2469 Q2541.7344,864.9969 2541.7344,866.0281 L2541.7344,867.1219 Q2541.7344,868.3563 2542.625,869.1844 Q2543.5156,869.9969 2545.1094,869.9969 Q2546.0469,869.9969 2546.7031,869.7469 Q2547.0938,869.5906 2547.5156,869.1531 Q2547.7813,868.8875 2547.9219,868.8094 Q2548.0781,868.7313 2548.2813,868.7313 Q2548.6094,868.7313 2548.8594,868.9969 Q2549.125,869.2469 2549.125,869.5906 Q2549.125,869.9344 2548.7813,870.3406 Q2548.2813,870.9188 2547.4844,871.2469 Q2546.4063,871.7 2545.1094,871.7 Q2543.5938,871.7 2542.3906,871.075 Q2541.4063,870.575 2540.7188,869.5125 Q2540.0313,868.4344 2540.0313,867.1531 L2540.0313,865.9969 Q2540.0313,864.6688 2540.6406,863.5281 Q2541.2656,862.3719 2542.3594,861.7625 Q2543.4531,861.1375 2544.6875,861.1375 Q2545.4219,861.1375 2546.0625,861.3094 Q2546.7188,861.4656 2547.2656,861.825 Z " fill="#000000"/><text fill="#000000" font-family="sans-serif" font-size="14" lengthAdjust="spacing" textLength="57.5928" x="2558.5" y="871.7469">VideoList</text><line style="stroke:#181818;stroke-width:0.5;" x1="2530.5" x2="2618.0928" y1="881.95" y2="881.95"/><line style="stroke:#181818;stroke-width:0.5;" x1="2530.5" x2="2618.0928" y1="889.95" y2="889.95"/></g><!--class ShowProposalRepository--><g id="elem_ShowProposalRepository"><rect codeLine="8" fill="#F1F1F1" height="79.2031" id="ShowProposalRepository" rx="2.5" ry="2.5" style="stroke:#181818;stroke-width:0.5;" width="496.8115" x="3111" y="717.45"/><ellipse cx="3276.5596" cy="739.741" fill="#B4A7E5" rx="11" ry="11" style="stroke:#181818;stroke-width:1.0;"/><path d="M3277.5127,736.3816 L3277.5127,743.0379 L3279.2314,743.0379 Q3279.8408,743.0379 3280.1064,743.2723 Q3280.3721,743.5066 3280.3721,743.8973 Q3280.3721,744.2723 3280.1064,744.5066 Q3279.8408,744.741 3279.2314,744.741 L3274.0908,744.741 Q3273.4814,744.741 3273.2158,744.5066 Q3272.9502,744.2723 3272.9502,743.8816 Q3272.9502,743.5066 3273.2158,743.2723 Q3273.4814,743.0379 3274.0908,743.0379 L3275.8096,743.0379 L3275.8096,736.3816 L3274.0908,736.3816 Q3273.4814,736.3816 3273.2158,736.1473 Q3272.9502,735.9129 3272.9502,735.5223 Q3272.9502,735.1473 3273.2158,734.9129 Q3273.4814,734.6785 3274.0908,734.6785 L3279.2314,734.6785 Q3279.8408,734.6785 3280.1064,734.9129 Q3280.3721,735.1473 3280.3721,735.5223 Q3280.3721,735.9129 3280.1064,736.1473 Q3279.8408,736.3816 3279.2314,736.3816 L3277.5127,736.3816 Z " fill="#000000"/><text fill="#000000" font-family="sans-serif" font-size="12" font-style="italic" lengthAdjust="spacing" textLength="70.7051" x="3340.3032" y="735.3992">&#171;Repository&#187;</text><text fill="#000000" font-family="sans-serif" font-size="14" font-style="italic" lengthAdjust="spacing" textLength="157.1924" x="3297.0596" y="753.5184">ShowProposalRepository</text><line style="stroke:#181818;stroke-width:0.5;" x1="3112" x2="3606.8115" y1="762.032" y2="762.032"/><line style="stroke:#181818;stroke-width:0.5;" x1="3112" x2="3606.8115" y1="770.032" y2="770.032"/><ellipse cx="3122" cy="784.8426" fill="#84BE84" rx="3" ry="3" style="stroke:#038048;stroke-width:1.0;"/><text fill="#000000" font-family="sans-serif" font-size="14" lengthAdjust="spacing" textLength="470.8115" x="3131" y="789.1395">findAllTestingProposalsByShowRequest(request) : Iterable&lt;ShowProposal&gt;</text></g><!--class RepositoryFactory--><g id="elem_RepositoryFactory"><rect codeLine="13" fill="#F1F1F1" height="97.8242" id="RepositoryFactory" rx="2.5" ry="2.5" style="stroke:#181818;stroke-width:0.5;" width="264.8887" x="2442" y="716.95"/><ellipse cx="2513.3979" cy="739.241" fill="#B4A7E5" rx="11" ry="11" style="stroke:#181818;stroke-width:1.0;"/><path d="M2514.3511,735.8816 L2514.3511,742.5379 L2516.0698,742.5379 Q2516.6792,742.5379 2516.9448,742.7723 Q2517.2104,743.0066 2517.2104,743.3973 Q2517.2104,743.7723 2516.9448,744.0066 Q2516.6792,744.241 2516.0698,744.241 L2510.9292,744.241 Q2510.3198,744.241 2510.0542,744.0066 Q2509.7886,743.7723 2509.7886,743.3816 Q2509.7886,743.0066 2510.0542,742.7723 Q2510.3198,742.5379 2510.9292,742.5379 L2512.6479,742.5379 L2512.6479,735.8816 L2510.9292,735.8816 Q2510.3198,735.8816 2510.0542,735.6473 Q2509.7886,735.4129 2509.7886,735.0223 Q2509.7886,734.6473 2510.0542,734.4129 Q2510.3198,734.1785 2510.9292,734.1785 L2516.0698,734.1785 Q2516.6792,734.1785 2516.9448,734.4129 Q2517.2104,734.6473 2517.2104,735.0223 Q2517.2104,735.4129 2516.9448,735.6473 Q2516.6792,735.8816 2516.0698,735.8816 L2514.3511,735.8816 Z " fill="#000000"/><text fill="#000000" font-family="sans-serif" font-size="12" font-style="italic" lengthAdjust="spacing" textLength="53.3555" x="2564.0166" y="734.8992">&#171;Factory&#187;</text><text fill="#000000" font-family="sans-serif" font-size="14" font-style="italic" lengthAdjust="spacing" textLength="113.5928" x="2533.8979" y="753.0184">RepositoryFactory</text><line style="stroke:#181818;stroke-width:0.5;" x1="2443" x2="2705.8887" y1="761.532" y2="761.532"/><line style="stroke:#181818;stroke-width:0.5;" x1="2443" x2="2705.8887" y1="769.532" y2="769.532"/><rect fill="#F24D5C" height="6" style="stroke:#C82930;stroke-width:1.0;" width="6" x="2450" y="781.3426"/><text fill="#000000" font-family="sans-serif" font-size="14" lengthAdjust="spacing" textLength="122.917" x="2462" y="788.6395">RepositoryFactory()</text><ellipse cx="2453" cy="802.9637" fill="#84BE84" rx="3" ry="3" style="stroke:#038048;stroke-width:1.0;"/><text fill="#000000" font-family="sans-serif" font-size="14" lengthAdjust="spacing" textLength="238.8887" x="2462" y="807.2605">proposals() : ShowProposalRepository</text></g><!--class ShowRequestRepository--><g id="elem_ShowRequestRepository"><rect codeLine="18" fill="#F1F1F1" height="79.2031" id="ShowRequestRepository" rx="2.5" ry="2.5" style="stroke:#181818;stroke-width:0.5;" width="379.3086" x="3757" y="717.45"/><ellipse cx="3865.3633" cy="739.741" fill="#B4A7E5" rx="11" ry="11" style="stroke:#181818;stroke-width:1.0;"/><path d="M3866.3164,736.3816 L3866.3164,743.0379 L3868.0352,743.0379 Q3868.6445,743.0379 3868.9102,743.2723 Q3869.1758,743.5066 3869.1758,743.8973 Q3869.1758,744.2723 3868.9102,744.5066 Q3868.6445,744.741 3868.0352,744.741 L3862.8945,744.741 Q3862.2852,744.741 3862.0195,744.5066 Q3861.7539,744.2723 3861.7539,743.8816 Q3861.7539,743.5066 3862.0195,743.2723 Q3862.2852,743.0379 3862.8945,743.0379 L3864.6133,743.0379 L3864.6133,736.3816 L3862.8945,736.3816 Q3862.2852,736.3816 3862.0195,736.1473 Q3861.7539,735.9129 3861.7539,735.5223 Q3861.7539,735.1473 3862.0195,734.9129 Q3862.2852,734.6785 3862.8945,734.6785 L3868.0352,734.6785 Q3868.6445,734.6785 3868.9102,734.9129 Q3869.1758,735.1473 3869.1758,735.5223 Q3869.1758,735.9129 3868.9102,736.1473 Q3868.6445,736.3816 3868.0352,736.3816 L3866.3164,736.3816 Z " fill="#000000"/><text fill="#000000" font-family="sans-serif" font-size="12" font-style="italic" lengthAdjust="spacing" textLength="70.7051" x="3927.5518" y="735.3992">&#171;Repository&#187;</text><text fill="#000000" font-family="sans-serif" font-size="14" font-style="italic" lengthAdjust="spacing" textLength="154.082" x="3885.8633" y="753.5184">ShowRequestRepository</text><line style="stroke:#181818;stroke-width:0.5;" x1="3758" x2="4135.3086" y1="762.032" y2="762.032"/><line style="stroke:#181818;stroke-width:0.5;" x1="3758" x2="4135.3086" y1="770.032" y2="770.032"/><ellipse cx="3768" cy="784.8426" fill="#84BE84" rx="3" ry="3" style="stroke:#038048;stroke-width:1.0;"/><text fill="#000000" font-family="sans-serif" font-size="14" lengthAdjust="spacing" textLength="353.3086" x="3777" y="789.1395">findAllCreatedShowRequests() : Iterable&lt;ShowRequest&gt;</text></g><!--class AddVideoToProposalUI--><g id="elem_AddVideoToProposalUI"><rect codeLine="39" fill="#F1F1F1" height="60.582" id="AddVideoToProposalUI" rx="2.5" ry="2.5" style="stroke:#181818;stroke-width:0.5;" width="178.3096" x="22" y="983.45"/><ellipse cx="37" cy="1005.741" fill="#ADD1B2" rx="11" ry="11" style="stroke:#181818;stroke-width:1.0;"/><path d="M39.7656,1001.616 Q39.9219,1001.3973 40.1094,1001.2879 Q40.2969,1001.1785 40.5156,1001.1785 Q40.8906,1001.1785 41.125,1001.4441 Q41.3594,1001.6941 41.3594,1002.3035 L41.3594,1003.7566 Q41.3594,1004.366 41.125,1004.6316 Q40.8906,1004.8973 40.5156,1004.8973 Q40.1719,1004.8973 39.9688,1004.6941 Q39.7656,1004.5066 39.6563,1003.991 Q39.6094,1003.6316 39.4219,1003.4441 Q39.0938,1003.0691 38.4844,1002.8504 Q37.875,1002.6316 37.25,1002.6316 Q36.4844,1002.6316 35.8438,1002.9598 Q35.2188,1003.2879 34.7188,1004.0379 Q34.2344,1004.7879 34.2344,1005.8191 L34.2344,1006.9129 Q34.2344,1008.1473 35.125,1008.9754 Q36.0156,1009.7879 37.6094,1009.7879 Q38.5469,1009.7879 39.2031,1009.5379 Q39.5938,1009.3816 40.0156,1008.9441 Q40.2813,1008.6785 40.4219,1008.6004 Q40.5781,1008.5223 40.7813,1008.5223 Q41.1094,1008.5223 41.3594,1008.7879 Q41.625,1009.0379 41.625,1009.3816 Q41.625,1009.7254 41.2813,1010.1316 Q40.7813,1010.7098 39.9844,1011.0379 Q38.9063,1011.491 37.6094,1011.491 Q36.0938,1011.491 34.8906,1010.866 Q33.9063,1010.366 33.2188,1009.3035 Q32.5313,1008.2254 32.5313,1006.9441 L32.5313,1005.7879 Q32.5313,1004.4598 33.1406,1003.3191 Q33.7656,1002.1629 34.8594,1001.5535 Q35.9531,1000.9285 37.1875,1000.9285 Q37.9219,1000.9285 38.5625,1001.1004 Q39.2188,1001.2566 39.7656,1001.616 Z " fill="#000000"/><text fill="#000000" font-family="sans-serif" font-size="12" font-style="italic" lengthAdjust="spacing" textLength="25.3477" x="111.481" y="1001.3992">&#171;UI&#187;</text><text fill="#000000" font-family="sans-serif" font-size="14" lengthAdjust="spacing" textLength="146.3096" x="51" y="1019.5184">AddVideoToProposalUI</text><line style="stroke:#181818;stroke-width:0.5;" x1="23" x2="199.3096" y1="1028.032" y2="1028.032"/><line style="stroke:#181818;stroke-width:0.5;" x1="23" x2="199.3096" y1="1036.032" y2="1036.032"/></g><!--class AddVideoToProposalController--><g id="elem_AddVideoToProposalController"><rect codeLine="45" fill="#F1F1F1" height="116.4453" id="AddVideoToProposalController" rx="2.5" ry="2.5" style="stroke:#181818;stroke-width:0.5;" width="496.8115" x="265" y="955.95"/><ellipse cx="412.6563" cy="978.241" fill="#ADD1B2" rx="11" ry="11" style="stroke:#181818;stroke-width:1.0;"/><path d="M415.4219,974.116 Q415.5781,973.8973 415.7656,973.7879 Q415.9531,973.6785 416.1719,973.6785 Q416.5469,973.6785 416.7813,973.9441 Q417.0156,974.1941 417.0156,974.8035 L417.0156,976.2566 Q417.0156,976.866 416.7813,977.1316 Q416.5469,977.3973 416.1719,977.3973 Q415.8281,977.3973 415.625,977.1941 Q415.4219,977.0066 415.3125,976.491 Q415.2656,976.1316 415.0781,975.9441 Q414.75,975.5691 414.1406,975.3504 Q413.5313,975.1316 412.9063,975.1316 Q412.1406,975.1316 411.5,975.4598 Q410.875,975.7879 410.375,976.5379 Q409.8906,977.2879 409.8906,978.3191 L409.8906,979.4129 Q409.8906,980.6473 410.7813,981.4754 Q411.6719,982.2879 413.2656,982.2879 Q414.2031,982.2879 414.8594,982.0379 Q415.25,981.8816 415.6719,981.4441 Q415.9375,981.1785 416.0781,981.1004 Q416.2344,981.0223 416.4375,981.0223 Q416.7656,981.0223 417.0156,981.2879 Q417.2813,981.5379 417.2813,981.8816 Q417.2813,982.2254 416.9375,982.6316 Q416.4375,983.2098 415.6406,983.5379 Q414.5625,983.991 413.2656,983.991 Q411.75,983.991 410.5469,983.366 Q409.5625,982.866 408.875,981.8035 Q408.1875,980.7254 408.1875,979.4441 L408.1875,978.2879 Q408.1875,976.9598 408.7969,975.8191 Q409.4219,974.6629 410.5156,974.0535 Q411.6094,973.4285 412.8438,973.4285 Q413.5781,973.4285 414.2188,973.6004 Q414.875,973.7566 415.4219,974.116 Z " fill="#000000"/><text fill="#000000" font-family="sans-serif" font-size="12" font-style="italic" lengthAdjust="spacing" textLength="65.3672" x="496.9722" y="973.8992">&#171;Controller&#187;</text><text fill="#000000" font-family="sans-serif" font-size="14" lengthAdjust="spacing" textLength="192.999" x="433.1563" y="992.0184">AddVideoToProposalController</text><line style="stroke:#181818;stroke-width:0.5;" x1="266" x2="760.8115" y1="1000.532" y2="1000.532"/><line style="stroke:#181818;stroke-width:0.5;" x1="266" x2="760.8115" y1="1008.532" y2="1008.532"/><ellipse cx="276" cy="1023.3426" fill="#84BE84" rx="3" ry="3" style="stroke:#038048;stroke-width:1.0;"/><text fill="#000000" font-family="sans-serif" font-size="14" lengthAdjust="spacing" textLength="470.8115" x="285" y="1027.6395">findAllTestingProposalsByShowRequest(request) : Iterable&lt;ShowProposal&gt;</text><ellipse cx="276" cy="1041.9637" fill="#84BE84" rx="3" ry="3" style="stroke:#038048;stroke-width:1.0;"/><text fill="#000000" font-family="sans-serif" font-size="14" lengthAdjust="spacing" textLength="353.3086" x="285" y="1046.2605">findAllCreatedShowRequests() : Iterable&lt;ShowRequest&gt;</text><ellipse cx="276" cy="1060.5848" fill="#84BE84" rx="3" ry="3" style="stroke:#038048;stroke-width:1.0;"/><text fill="#000000" font-family="sans-serif" font-size="14" lengthAdjust="spacing" textLength="69.2412" x="285" y="1064.8816">listVideos()</text></g><!--class JpaShowProposalRepository--><g id="elem_JpaShowProposalRepository"><rect codeLine="53" fill="#F1F1F1" height="79.2031" id="JpaShowProposalRepository" rx="2.5" ry="2.5" style="stroke:#181818;stroke-width:0.5;" width="496.8115" x="1737" y="158.45"/><ellipse cx="1891.2734" cy="180.741" fill="#ADD1B2" rx="11" ry="11" style="stroke:#181818;stroke-width:1.0;"/><path d="M1894.0391,176.616 Q1894.1953,176.3973 1894.3828,176.2879 Q1894.5703,176.1785 1894.7891,176.1785 Q1895.1641,176.1785 1895.3984,176.4441 Q1895.6328,176.6941 1895.6328,177.3035 L1895.6328,178.7566 Q1895.6328,179.366 1895.3984,179.6316 Q1895.1641,179.8973 1894.7891,179.8973 Q1894.4453,179.8973 1894.2422,179.6941 Q1894.0391,179.5066 1893.9297,178.991 Q1893.8828,178.6316 1893.6953,178.4441 Q1893.3672,178.0691 1892.7578,177.8504 Q1892.1484,177.6316 1891.5234,177.6316 Q1890.7578,177.6316 1890.1172,177.9598 Q1889.4922,178.2879 1888.9922,179.0379 Q1888.5078,179.7879 1888.5078,180.8191 L1888.5078,181.9129 Q1888.5078,183.1473 1889.3984,183.9754 Q1890.2891,184.7879 1891.8828,184.7879 Q1892.8203,184.7879 1893.4766,184.5379 Q1893.8672,184.3816 1894.2891,183.9441 Q1894.5547,183.6785 1894.6953,183.6004 Q1894.8516,183.5223 1895.0547,183.5223 Q1895.3828,183.5223 1895.6328,183.7879 Q1895.8984,184.0379 1895.8984,184.3816 Q1895.8984,184.7254 1895.5547,185.1316 Q1895.0547,185.7098 1894.2578,186.0379 Q1893.1797,186.491 1891.8828,186.491 Q1890.3672,186.491 1889.1641,185.866 Q1888.1797,185.366 1887.4922,184.3035 Q1886.8047,183.2254 1886.8047,181.9441 L1886.8047,180.7879 Q1886.8047,179.4598 1887.4141,178.3191 Q1888.0391,177.1629 1889.1328,176.5535 Q1890.2266,175.9285 1891.4609,175.9285 Q1892.1953,175.9285 1892.8359,176.1004 Q1893.4922,176.2566 1894.0391,176.616 Z " fill="#000000"/><text fill="#000000" font-family="sans-serif" font-size="12" font-style="italic" lengthAdjust="spacing" textLength="70.7051" x="1966.3032" y="176.3992">&#171;Repository&#187;</text><text fill="#000000" font-family="sans-serif" font-size="14" lengthAdjust="spacing" textLength="179.7646" x="1911.7734" y="194.5184">JpaShowProposalRepository</text><line style="stroke:#181818;stroke-width:0.5;" x1="1738" x2="2232.8115" y1="203.032" y2="203.032"/><line style="stroke:#181818;stroke-width:0.5;" x1="1738" x2="2232.8115" y1="211.032" y2="211.032"/><ellipse cx="1748" cy="225.8426" fill="#84BE84" rx="3" ry="3" style="stroke:#038048;stroke-width:1.0;"/><text fill="#000000" font-family="sans-serif" font-size="14" lengthAdjust="spacing" textLength="470.8115" x="1757" y="230.1395">findAllTestingProposalsByShowRequest(request) : Iterable&lt;ShowProposal&gt;</text></g><!--class JpaRepositoryFactory--><g id="elem_JpaRepositoryFactory"><rect codeLine="57" fill="#F1F1F1" height="97.8242" id="JpaRepositoryFactory" rx="2.5" ry="2.5" style="stroke:#181818;stroke-width:0.5;" width="264.8887" x="1323" y="139.95"/><ellipse cx="1383.1118" cy="162.241" fill="#ADD1B2" rx="11" ry="11" style="stroke:#181818;stroke-width:1.0;"/><path d="M1385.8774,158.116 Q1386.0337,157.8973 1386.2212,157.7879 Q1386.4087,157.6785 1386.6274,157.6785 Q1387.0024,157.6785 1387.2368,157.9441 Q1387.4712,158.1941 1387.4712,158.8035 L1387.4712,160.2566 Q1387.4712,160.866 1387.2368,161.1316 Q1387.0024,161.3973 1386.6274,161.3973 Q1386.2837,161.3973 1386.0806,161.1941 Q1385.8774,161.0066 1385.7681,160.491 Q1385.7212,160.1316 1385.5337,159.9441 Q1385.2056,159.5691 1384.5962,159.3504 Q1383.9868,159.1316 1383.3618,159.1316 Q1382.5962,159.1316 1381.9556,159.4598 Q1381.3306,159.7879 1380.8306,160.5379 Q1380.3462,161.2879 1380.3462,162.3191 L1380.3462,163.4129 Q1380.3462,164.6473 1381.2368,165.4754 Q1382.1274,166.2879 1383.7212,166.2879 Q1384.6587,166.2879 1385.3149,166.0379 Q1385.7056,165.8816 1386.1274,165.4441 Q1386.3931,165.1785 1386.5337,165.1004 Q1386.6899,165.0223 1386.8931,165.0223 Q1387.2212,165.0223 1387.4712,165.2879 Q1387.7368,165.5379 1387.7368,165.8816 Q1387.7368,166.2254 1387.3931,166.6316 Q1386.8931,167.2098 1386.0962,167.5379 Q1385.0181,167.991 1383.7212,167.991 Q1382.2056,167.991 1381.0024,167.366 Q1380.0181,166.866 1379.3306,165.8035 Q1378.6431,164.7254 1378.6431,163.4441 L1378.6431,162.2879 Q1378.6431,160.9598 1379.2524,159.8191 Q1379.8774,158.6629 1380.9712,158.0535 Q1382.0649,157.4285 1383.2993,157.4285 Q1384.0337,157.4285 1384.6743,157.6004 Q1385.3306,157.7566 1385.8774,158.116 Z " fill="#000000"/><text fill="#000000" font-family="sans-serif" font-size="12" font-style="italic" lengthAdjust="spacing" textLength="53.3555" x="1445.0166" y="157.8992">&#171;Factory&#187;</text><text fill="#000000" font-family="sans-serif" font-size="14" lengthAdjust="spacing" textLength="136.165" x="1403.6118" y="176.0184">JpaRepositoryFactory</text><line style="stroke:#181818;stroke-width:0.5;" x1="1324" x2="1586.8887" y1="184.532" y2="184.532"/><line style="stroke:#181818;stroke-width:0.5;" x1="1324" x2="1586.8887" y1="192.532" y2="192.532"/><rect fill="#F24D5C" height="6" style="stroke:#C82930;stroke-width:1.0;" width="6" x="1331" y="204.3426"/><text fill="#000000" font-family="sans-serif" font-size="14" lengthAdjust="spacing" textLength="145.4893" x="1343" y="211.6395">JpaRepositoryFactory()</text><ellipse cx="1334" cy="225.9637" fill="#84BE84" rx="3" ry="3" style="stroke:#038048;stroke-width:1.0;"/><text fill="#000000" font-family="sans-serif" font-size="14" lengthAdjust="spacing" textLength="238.8887" x="1343" y="230.2605">proposals() : ShowProposalRepository</text></g><!--class JpaShowRequestRepository--><g id="elem_JpaShowRequestRepository"><rect codeLine="62" fill="#F1F1F1" height="79.2031" id="JpaShowRequestRepository" rx="2.5" ry="2.5" style="stroke:#181818;stroke-width:0.5;" width="379.3086" x="1796" y="44.45"/><ellipse cx="1893.0771" cy="66.741" fill="#ADD1B2" rx="11" ry="11" style="stroke:#181818;stroke-width:1.0;"/><path d="M1895.8428,62.616 Q1895.999,62.3973 1896.1865,62.2879 Q1896.374,62.1785 1896.5928,62.1785 Q1896.9678,62.1785 1897.2021,62.4441 Q1897.4365,62.6941 1897.4365,63.3035 L1897.4365,64.7566 Q1897.4365,65.366 1897.2021,65.6316 Q1896.9678,65.8973 1896.5928,65.8973 Q1896.249,65.8973 1896.0459,65.6941 Q1895.8428,65.5066 1895.7334,64.991 Q1895.6865,64.6316 1895.499,64.4441 Q1895.1709,64.0691 1894.5615,63.8504 Q1893.9521,63.6316 1893.3271,63.6316 Q1892.5615,63.6316 1891.9209,63.9598 Q1891.2959,64.2879 1890.7959,65.0379 Q1890.3115,65.7879 1890.3115,66.8191 L1890.3115,67.9129 Q1890.3115,69.1473 1891.2021,69.9754 Q1892.0928,70.7879 1893.6865,70.7879 Q1894.624,70.7879 1895.2803,70.5379 Q1895.6709,70.3816 1896.0928,69.9441 Q1896.3584,69.6785 1896.499,69.6004 Q1896.6553,69.5223 1896.8584,69.5223 Q1897.1865,69.5223 1897.4365,69.7879 Q1897.7021,70.0379 1897.7021,70.3816 Q1897.7021,70.7254 1897.3584,71.1316 Q1896.8584,71.7098 1896.0615,72.0379 Q1894.9834,72.491 1893.6865,72.491 Q1892.1709,72.491 1890.9678,71.866 Q1889.9834,71.366 1889.2959,70.3035 Q1888.6084,69.2254 1888.6084,67.9441 L1888.6084,66.7879 Q1888.6084,65.4598 1889.2178,64.3191 Q1889.8428,63.1629 1890.9365,62.5535 Q1892.0303,61.9285 1893.2646,61.9285 Q1893.999,61.9285 1894.6396,62.1004 Q1895.2959,62.2566 1895.8428,62.616 Z " fill="#000000"/><text fill="#000000" font-family="sans-serif" font-size="12" font-style="italic" lengthAdjust="spacing" textLength="70.7051" x="1966.5518" y="62.3992">&#171;Repository&#187;</text><text fill="#000000" font-family="sans-serif" font-size="14" lengthAdjust="spacing" textLength="176.6543" x="1913.5771" y="80.5184">JpaShowRequestRepository</text><line style="stroke:#181818;stroke-width:0.5;" x1="1797" x2="2174.3086" y1="89.032" y2="89.032"/><line style="stroke:#181818;stroke-width:0.5;" x1="1797" x2="2174.3086" y1="97.032" y2="97.032"/><ellipse cx="1807" cy="111.8426" fill="#84BE84" rx="3" ry="3" style="stroke:#038048;stroke-width:1.0;"/><text fill="#000000" font-family="sans-serif" font-size="14" lengthAdjust="spacing" textLength="353.3086" x="1816" y="116.1395">findAllCreatedShowRequests() : Iterable&lt;ShowRequest&gt;</text></g><!--class InMemoryShowProposalRepository--><g id="elem_InMemoryShowProposalRepository"><rect codeLine="68" fill="#F1F1F1" height="79.2031" id="InMemoryShowProposalRepository" rx="2.5" ry="2.5" style="stroke:#181818;stroke-width:0.5;" width="346.6123" x="2401" y="429.45"/><ellipse cx="2460.3428" cy="451.741" fill="#ADD1B2" rx="11" ry="11" style="stroke:#181818;stroke-width:1.0;"/><path d="M2463.1084,447.616 Q2463.2646,447.3973 2463.4521,447.2879 Q2463.6396,447.1785 2463.8584,447.1785 Q2464.2334,447.1785 2464.4678,447.4441 Q2464.7021,447.6941 2464.7021,448.3035 L2464.7021,449.7566 Q2464.7021,450.366 2464.4678,450.6316 Q2464.2334,450.8973 2463.8584,450.8973 Q2463.5146,450.8973 2463.3115,450.6941 Q2463.1084,450.5066 2462.999,449.991 Q2462.9521,449.6316 2462.7646,449.4441 Q2462.4365,449.0691 2461.8271,448.8504 Q2461.2178,448.6316 2460.5928,448.6316 Q2459.8271,448.6316 2459.1865,448.9598 Q2458.5615,449.2879 2458.0615,450.0379 Q2457.5771,450.7879 2457.5771,451.8191 L2457.5771,452.9129 Q2457.5771,454.1473 2458.4678,454.9754 Q2459.3584,455.7879 2460.9521,455.7879 Q2461.8896,455.7879 2462.5459,455.5379 Q2462.9365,455.3816 2463.3584,454.9441 Q2463.624,454.6785 2463.7646,454.6004 Q2463.9209,454.5223 2464.124,454.5223 Q2464.4521,454.5223 2464.7021,454.7879 Q2464.9678,455.0379 2464.9678,455.3816 Q2464.9678,455.7254 2464.624,456.1316 Q2464.124,456.7098 2463.3271,457.0379 Q2462.249,457.491 2460.9521,457.491 Q2459.4365,457.491 2458.2334,456.866 Q2457.249,456.366 2456.5615,455.3035 Q2455.874,454.2254 2455.874,452.9441 L2455.874,451.7879 Q2455.874,450.4598 2456.4834,449.3191 Q2457.1084,448.1629 2458.2021,447.5535 Q2459.2959,446.9285 2460.5303,446.9285 Q2461.2646,446.9285 2461.9053,447.1004 Q2462.5615,447.2566 2463.1084,447.616 Z " fill="#000000"/><text fill="#000000" font-family="sans-serif" font-size="12" font-style="italic" lengthAdjust="spacing" textLength="70.7051" x="2555.2036" y="447.3992">&#171;Repository&#187;</text><text fill="#000000" font-family="sans-serif" font-size="14" lengthAdjust="spacing" textLength="219.4268" x="2480.8428" y="465.5184">InMemoryShowProposalRepository</text><line style="stroke:#181818;stroke-width:0.5;" x1="2402" x2="2746.6123" y1="474.032" y2="474.032"/><line style="stroke:#181818;stroke-width:0.5;" x1="2402" x2="2746.6123" y1="482.032" y2="482.032"/><ellipse cx="2412" cy="496.8426" fill="#84BE84" rx="3" ry="3" style="stroke:#038048;stroke-width:1.0;"/><text fill="#000000" font-family="sans-serif" font-size="14" lengthAdjust="spacing" textLength="320.6123" x="2421" y="501.1395">findAllTestingProposals() : Iterable&lt;ShowProposal&gt;</text></g><!--class InMemoryRepositoryFactory--><g id="elem_InMemoryRepositoryFactory"><rect codeLine="72" fill="#F1F1F1" height="97.8242" id="InMemoryRepositoryFactory" rx="2.5" ry="2.5" style="stroke:#181818;stroke-width:0.5;" width="264.8887" x="1853" y="400.95"/><ellipse cx="1893.6777" cy="423.241" fill="#ADD1B2" rx="11" ry="11" style="stroke:#181818;stroke-width:1.0;"/><path d="M1896.4433,419.116 Q1896.5996,418.8973 1896.7871,418.7879 Q1896.9746,418.6785 1897.1933,418.6785 Q1897.5683,418.6785 1897.8027,418.9441 Q1898.0371,419.1941 1898.0371,419.8035 L1898.0371,421.2566 Q1898.0371,421.866 1897.8027,422.1316 Q1897.5683,422.3973 1897.1933,422.3973 Q1896.8496,422.3973 1896.6464,422.1941 Q1896.4433,422.0066 1896.3339,421.491 Q1896.2871,421.1316 1896.0996,420.9441 Q1895.7714,420.5691 1895.1621,420.3504 Q1894.5527,420.1316 1893.9277,420.1316 Q1893.1621,420.1316 1892.5214,420.4598 Q1891.8964,420.7879 1891.3964,421.5379 Q1890.9121,422.2879 1890.9121,423.3191 L1890.9121,424.4129 Q1890.9121,425.6473 1891.8027,426.4754 Q1892.6933,427.2879 1894.2871,427.2879 Q1895.2246,427.2879 1895.8808,427.0379 Q1896.2714,426.8816 1896.6933,426.4441 Q1896.9589,426.1785 1897.0996,426.1004 Q1897.2558,426.0223 1897.4589,426.0223 Q1897.7871,426.0223 1898.0371,426.2879 Q1898.3027,426.5379 1898.3027,426.8816 Q1898.3027,427.2254 1897.9589,427.6316 Q1897.4589,428.2098 1896.6621,428.5379 Q1895.5839,428.991 1894.2871,428.991 Q1892.7714,428.991 1891.5683,428.366 Q1890.5839,427.866 1889.8964,426.8035 Q1889.2089,425.7254 1889.2089,424.4441 L1889.2089,423.2879 Q1889.2089,421.9598 1889.8183,420.8191 Q1890.4433,419.6629 1891.5371,419.0535 Q1892.6308,418.4285 1893.8652,418.4285 Q1894.5996,418.4285 1895.2402,418.6004 Q1895.8964,418.7566 1896.4433,419.116 Z " fill="#000000"/><text fill="#000000" font-family="sans-serif" font-size="12" font-style="italic" lengthAdjust="spacing" textLength="53.3555" x="1974.6197" y="418.8992">&#171;Factory&#187;</text><text fill="#000000" font-family="sans-serif" font-size="14" lengthAdjust="spacing" textLength="175.8271" x="1913.3838" y="437.0184">InMemoryRepositoryFactory</text><line style="stroke:#181818;stroke-width:0.5;" x1="1854" x2="2116.8887" y1="445.532" y2="445.532"/><line style="stroke:#181818;stroke-width:0.5;" x1="1854" x2="2116.8887" y1="453.532" y2="453.532"/><rect fill="#F24D5C" height="6" style="stroke:#C82930;stroke-width:1.0;" width="6" x="1861" y="465.3426"/><text fill="#000000" font-family="sans-serif" font-size="14" lengthAdjust="spacing" textLength="185.1514" x="1873" y="472.6395">InMemoryRepositoryFactory()</text><ellipse cx="1864" cy="486.9637" fill="#84BE84" rx="3" ry="3" style="stroke:#038048;stroke-width:1.0;"/><text fill="#000000" font-family="sans-serif" font-size="14" lengthAdjust="spacing" textLength="238.8887" x="1873" y="491.2605">proposals() : ShowProposalRepository</text></g><!--class InMemoryShowRequestRepository--><g id="elem_InMemoryShowRequestRepository"><rect codeLine="77" fill="#F1F1F1" height="79.2031" id="InMemoryShowRequestRepository" rx="2.5" ry="2.5" style="stroke:#181818;stroke-width:0.5;" width="379.3086" x="2385" y="315.45"/><ellipse cx="2462.2461" cy="337.741" fill="#ADD1B2" rx="11" ry="11" style="stroke:#181818;stroke-width:1.0;"/><path d="M2465.0117,333.616 Q2465.168,333.3973 2465.3555,333.2879 Q2465.543,333.1785 2465.7617,333.1785 Q2466.1367,333.1785 2466.3711,333.4441 Q2466.6055,333.6941 2466.6055,334.3035 L2466.6055,335.7566 Q2466.6055,336.366 2466.3711,336.6316 Q2466.1367,336.8973 2465.7617,336.8973 Q2465.418,336.8973 2465.2148,336.6941 Q2465.0117,336.5066 2464.9023,335.991 Q2464.8555,335.6316 2464.668,335.4441 Q2464.3398,335.0691 2463.7305,334.8504 Q2463.1211,334.6316 2462.4961,334.6316 Q2461.7305,334.6316 2461.0898,334.9598 Q2460.4648,335.2879 2459.9648,336.0379 Q2459.4805,336.7879 2459.4805,337.8191 L2459.4805,338.9129 Q2459.4805,340.1473 2460.3711,340.9754 Q2461.2617,341.7879 2462.8555,341.7879 Q2463.793,341.7879 2464.4492,341.5379 Q2464.8398,341.3816 2465.2617,340.9441 Q2465.5273,340.6785 2465.668,340.6004 Q2465.8242,340.5223 2466.0273,340.5223 Q2466.3555,340.5223 2466.6055,340.7879 Q2466.8711,341.0379 2466.8711,341.3816 Q2466.8711,341.7254 2466.5273,342.1316 Q2466.0273,342.7098 2465.2305,343.0379 Q2464.1523,343.491 2462.8555,343.491 Q2461.3398,343.491 2460.1367,342.866 Q2459.1523,342.366 2458.4648,341.3035 Q2457.7773,340.2254 2457.7773,338.9441 L2457.7773,337.7879 Q2457.7773,336.4598 2458.3867,335.3191 Q2459.0117,334.1629 2460.1055,333.5535 Q2461.1992,332.9285 2462.4336,332.9285 Q2463.168,332.9285 2463.8086,333.1004 Q2464.4648,333.2566 2465.0117,333.616 Z " fill="#000000"/><text fill="#000000" font-family="sans-serif" font-size="12" font-style="italic" lengthAdjust="spacing" textLength="70.7051" x="2555.5518" y="333.3992">&#171;Repository&#187;</text><text fill="#000000" font-family="sans-serif" font-size="14" lengthAdjust="spacing" textLength="216.3164" x="2482.7461" y="351.5184">InMemoryShowRequestRepository</text><line style="stroke:#181818;stroke-width:0.5;" x1="2386" x2="2763.3086" y1="360.032" y2="360.032"/><line style="stroke:#181818;stroke-width:0.5;" x1="2386" x2="2763.3086" y1="368.032" y2="368.032"/><ellipse cx="2396" cy="382.8426" fill="#84BE84" rx="3" ry="3" style="stroke:#038048;stroke-width:1.0;"/><text fill="#000000" font-family="sans-serif" font-size="14" lengthAdjust="spacing" textLength="353.3086" x="2405" y="387.1395">findAllCreatedShowRequests() : Iterable&lt;ShowRequest&gt;</text></g><!--class PersistenceContext--><g id="elem_PersistenceContext"><rect codeLine="83" fill="#F1F1F1" height="66.6211" id="PersistenceContext" rx="2.5" ry="2.5" style="stroke:#181818;stroke-width:0.5;" width="218.9512" x="903" y="703.45"/><ellipse cx="947.5293" cy="719.45" fill="#ADD1B2" rx="11" ry="11" style="stroke:#181818;stroke-width:1.0;"/><path d="M950.2949,715.325 Q950.4512,715.1063 950.6387,714.9969 Q950.8262,714.8875 951.0449,714.8875 Q951.4199,714.8875 951.6543,715.1531 Q951.8887,715.4031 951.8887,716.0125 L951.8887,717.4656 Q951.8887,718.075 951.6543,718.3406 Q951.4199,718.6063 951.0449,718.6063 Q950.7012,718.6063 950.498,718.4031 Q950.2949,718.2156 950.1855,717.7 Q950.1387,717.3406 949.9512,717.1531 Q949.623,716.7781 949.0137,716.5594 Q948.4043,716.3406 947.7793,716.3406 Q947.0137,716.3406 946.373,716.6688 Q945.748,716.9969 945.248,717.7469 Q944.7637,718.4969 944.7637,719.5281 L944.7637,720.6219 Q944.7637,721.8563 945.6543,722.6844 Q946.5449,723.4969 948.1387,723.4969 Q949.0762,723.4969 949.7324,723.2469 Q950.123,723.0906 950.5449,722.6531 Q950.8105,722.3875 950.9512,722.3094 Q951.1074,722.2313 951.3105,722.2313 Q951.6387,722.2313 951.8887,722.4969 Q952.1543,722.7469 952.1543,723.0906 Q952.1543,723.4344 951.8105,723.8406 Q951.3105,724.4188 950.5137,724.7469 Q949.4355,725.2 948.1387,725.2 Q946.623,725.2 945.4199,724.575 Q944.4355,724.075 943.748,723.0125 Q943.0605,721.9344 943.0605,720.6531 L943.0605,719.4969 Q943.0605,718.1688 943.6699,717.0281 Q944.2949,715.8719 945.3887,715.2625 Q946.4824,714.6375 947.7168,714.6375 Q948.4512,714.6375 949.0918,714.8094 Q949.748,714.9656 950.2949,715.325 Z " fill="#000000"/><text fill="#000000" font-family="sans-serif" font-size="14" lengthAdjust="spacing" textLength="121.3926" x="968.0293" y="725.2469">PersistenceContext</text><line style="stroke:#181818;stroke-width:0.5;" x1="904" x2="1120.9512" y1="735.45" y2="735.45"/><line style="stroke:#181818;stroke-width:0.5;" x1="904" x2="1120.9512" y1="743.45" y2="743.45"/><text fill="#000000" font-family="sans-serif" font-size="14" lengthAdjust="spacing" textLength="206.9512" x="909" y="762.5574">repositories() : RepositoryFactory</text></g><!--link ShowProposal to Video--><g id="link_ShowProposal_Video"><path codeLine="90" d="M4007.61,624.95 C4077.07,624.95 4184.37,624.95 4251.25,624.95 " fill="none" id="ShowProposal-to-Video" style="stroke:#181818;stroke-width:1.0;"/><polygon fill="#181818" points="4257.25,624.95,4248.25,620.95,4252.25,624.95,4248.25,628.95,4257.25,624.95" style="stroke:#181818;stroke-width:1.0;"/><text fill="#000000" font-family="sans-serif" font-size="13" lengthAdjust="spacing" textLength="31.0781" x="4180" y="620.9783">video</text><text fill="#000000" font-family="sans-serif" font-size="13" lengthAdjust="spacing" textLength="7.23" x="4242.3672" y="640.1681">1</text></g><!--link ShowProposal to ShowRequest--><g id="link_ShowProposal_ShowRequest"><path codeLine="91" d="M4007.61,644.44 C4075.56,666.46 4179.7423,700.2402 4247.1023,722.0702 " fill="none" id="ShowProposal-to-ShowRequest" style="stroke:#181818;stroke-width:1.0;"/><polygon fill="#181818" points="4252.81,723.92,4245.4816,717.3402,4248.0535,722.3785,4243.0152,724.9505,4252.81,723.92" style="stroke:#181818;stroke-width:1.0;"/><text fill="#000000" font-family="sans-serif" font-size="13" lengthAdjust="spacing" textLength="53.4917" x="4169" y="694.9783">based on</text><text fill="#000000" font-family="sans-serif" font-size="13" lengthAdjust="spacing" textLength="7.23" x="4237.7179" y="736.6471">1</text></g><!--link RepositoryFactory to ShowProposalRepository--><g id="link_RepositoryFactory_ShowProposalRepository"><path codeLine="94" d="M2707.44,764.43 C2817.38,763.17 2971.0204,761.3987 3104.7104,759.8687 " fill="none" id="RepositoryFactory-to-ShowProposalRepository" style="stroke:#181818;stroke-width:1.0;stroke-dasharray:7.0,7.0;"/><polygon fill="#181818" points="3110.71,759.8,3101.6648,755.9033,3105.7103,759.8572,3101.7564,763.9027,3110.71,759.8" style="stroke:#181818;stroke-width:1.0;"/><text fill="#000000" font-family="sans-serif" font-size="13" lengthAdjust="spacing" textLength="65.0254" x="2906" y="756.9783">proposals()</text></g><!--link ShowProposalRepository to ShowRequestRepository--><g id="link_ShowProposalRepository_ShowRequestRepository"><path codeLine="95" d="M3608.4,766.07 C3648.07,766.66 3688.66,766.74 3727,765.95 C3736.77,765.75 3740.7925,765.6719 3750.9125,765.3819 " fill="none" id="ShowProposalRepository-to-ShowRequestRepository" style="stroke:#181818;stroke-width:1.0;stroke-dasharray:7.0,7.0;"/><polygon fill="#181818" points="3756.91,765.21,3747.7991,761.4694,3751.9121,765.3532,3748.0283,769.4662,3756.91,765.21" style="stroke:#181818;stroke-width:1.0;"/><text fill="#000000" font-family="sans-serif" font-size="13" lengthAdjust="spacing" textLength="87.4263" x="3639" y="761.9783">showRequest()</text></g><!--link ShowProposalRepository to ShowProposal--><g id="link_ShowProposalRepository_ShowProposal"><path codeLine="97" d="M3535.62,717.44 C3654.28,690.66 3797.9772,658.2408 3879.6472,639.8108 " fill="none" id="ShowProposalRepository-to-ShowProposal" style="stroke:#181818;stroke-width:1.0;"/><polygon fill="#181818" points="3885.5,638.49,3875.8402,636.5693,3880.6226,639.5906,3877.6013,644.373,3885.5,638.49" style="stroke:#181818;stroke-width:1.0;"/><text fill="#000000" font-family="sans-serif" font-size="13" lengthAdjust="spacing" textLength="56.3672" x="3654.5" y="671.9783">proposals</text><text fill="#000000" font-family="sans-serif" font-size="13" lengthAdjust="spacing" textLength="19.5127" x="3857.9223" y="655.25">0..*</text></g><!--link ShowRequestRepository to ShowRequest--><g id="link_ShowRequestRepository_ShowRequest"><path codeLine="98" d="M4136.18,756.66 C4165.27,755.91 4194.95,754.73 4223,752.95 C4232.57,752.34 4236.7213,752.052 4246.5713,751.042 " fill="none" id="ShowRequestRepository-to-ShowRequest" style="stroke:#181818;stroke-width:1.0;"/><polygon fill="#181818" points="4252.54,750.43,4243.1789,747.3689,4247.5661,750.94,4243.995,755.3272,4252.54,750.43" style="stroke:#181818;stroke-width:1.0;"/><text fill="#000000" font-family="sans-serif" font-size="13" lengthAdjust="spacing" textLength="49.8608" x="4171" y="748.9783">requests</text><text fill="#000000" font-family="sans-serif" font-size="13" lengthAdjust="spacing" textLength="19.5127" x="4225.5288" y="766.3493">0..*</text></g><!--link AddVideoToProposalUI to AddVideoToProposalController--><g id="link_AddVideoToProposalUI_AddVideoToProposalController"><path codeLine="100" d="M200.39,1013.95 C220.2,1013.95 236.16,1013.95 258.99,1013.95 " fill="none" id="AddVideoToProposalUI-to-AddVideoToProposalController" style="stroke:#181818;stroke-width:1.0;stroke-dasharray:7.0,7.0;"/><polygon fill="#181818" points="264.99,1013.95,255.99,1009.95,259.99,1013.95,255.99,1017.95,264.99,1013.95" style="stroke:#181818;stroke-width:1.0;"/></g><!--link AddVideoToProposalController to RepositoryFactory--><g id="link_AddVideoToProposalController_RepositoryFactory"><path codeLine="101" d="M652.41,955.86 C750.7,919.67 886.95,879.95 1011.5,879.95 C1011.5,879.95 1011.5,879.95 1986.5,879.95 C2073.25,879.95 2291.0664,832.7209 2435.8964,798.9909 " fill="none" id="AddVideoToProposalController-to-RepositoryFactory" style="stroke:#181818;stroke-width:1.0;stroke-dasharray:7.0,7.0;"/><polygon fill="#181818" points="2441.74,797.63,2432.0673,795.7757,2436.8703,798.7641,2433.8819,803.5672,2441.74,797.63" style="stroke:#181818;stroke-width:1.0;"/><text fill="#000000" font-family="sans-serif" font-size="13" lengthAdjust="spacing" textLength="65.0254" x="1423" y="875.9783">proposals()</text></g><!--link AddVideoToProposalController to RepositoryFactory--><g id="link_AddVideoToProposalController_RepositoryFactory"><path codeLine="102" d="M762.16,982.67 C841.66,975 930.17,968.95 1011.5,968.95 C1011.5,968.95 1011.5,968.95 1986.5,968.95 C2110.37,968.95 2143.65,953.58 2258,905.95 C2305.01,886.37 2314.08,875.27 2355,844.95 C2369.18,834.45 2369.47,827.32 2385,818.95 C2402.66,809.44 2416.5037,803.4148 2436.1037,796.8148 " fill="none" id="AddVideoToProposalController-to-RepositoryFactory-1" style="stroke:#181818;stroke-width:1.0;stroke-dasharray:7.0,7.0;"/><polygon fill="#181818" points="2441.79,794.9,2431.9841,793.9813,2437.0514,796.4956,2434.5371,801.563,2441.79,794.9" style="stroke:#181818;stroke-width:1.0;"/><text fill="#000000" font-family="sans-serif" font-size="13" lengthAdjust="spacing" textLength="87.4263" x="1412" y="964.9783">showRequest()</text></g><!--link AddVideoToProposalController to ShowRequestRepository--><g id="link_AddVideoToProposalController_ShowRequestRepository"><path codeLine="103" d="M598.61,1072.14 C694.15,1132.43 856.9,1217.95 1011.5,1217.95 C1011.5,1217.95 1011.5,1217.95 3360.5,1217.95 C3631.72,1217.95 3848.0219,913.5566 3918.4719,801.7266 " fill="none" id="AddVideoToProposalController-to-ShowRequestRepository" style="stroke:#181818;stroke-width:1.0;stroke-dasharray:7.0,7.0;"/><polygon fill="#181818" points="3921.67,796.65,3913.4884,802.1328,3919.0049,800.8805,3920.2572,806.397,3921.67,796.65" style="stroke:#181818;stroke-width:1.0;"/><text fill="#000000" font-family="sans-serif" font-size="13" lengthAdjust="spacing" textLength="87.4263" x="1942" y="1213.9783">showRequest()</text></g><!--link AddVideoToProposalController to ShowProposalRepository--><g id="link_AddVideoToProposalController_ShowProposalRepository"><path codeLine="104" d="M654.88,1072.04 C753.01,1107.45 888.08,1145.95 1011.5,1145.95 C1011.5,1145.95 1011.5,1145.95 2575.5,1145.95 C2887.05,1145.95 3197.8438,899.8516 3310.6138,800.7116 " fill="none" id="AddVideoToProposalController-to-ShowProposalRepository" style="stroke:#181818;stroke-width:1.0;stroke-dasharray:7.0,7.0;"/><polygon fill="#181818" points="3315.12,796.75,3305.7196,799.6882,3311.3648,800.0513,3311.0017,805.6965,3315.12,796.75" style="stroke:#181818;stroke-width:1.0;"/><text fill="#000000" font-family="sans-serif" font-size="13" lengthAdjust="spacing" textLength="65.0254" x="1630" y="1141.9783">proposals()</text></g><!--link AddVideoToProposalController to PersistenceContext--><g id="link_AddVideoToProposalController_PersistenceContext"><path codeLine="105" d="M614.39,955.92 C667.54,925.26 734.11,887.19 794,853.95 C845.55,825.34 899.1734,796.5288 942.6734,773.3788 " fill="none" id="AddVideoToProposalController-to-PersistenceContext" style="stroke:#181818;stroke-width:1.0;stroke-dasharray:7.0,7.0;"/><polygon fill="#181818" points="947.97,770.56,938.1458,771.2571,943.5561,772.909,941.9042,778.3193,947.97,770.56" style="stroke:#181818;stroke-width:1.0;"/><text fill="#000000" font-family="sans-serif" font-size="13" lengthAdjust="spacing" textLength="75.8545" x="795" y="810.9783">repositories()</text></g><!--link AddVideoToProposalController to VideoList--><g id="link_AddVideoToProposalController_VideoList"><path codeLine="107" d="M762.18,1044.54 C841.67,1052.03 930.18,1057.95 1011.5,1057.95 C1011.5,1057.95 1011.5,1057.95 1986.5,1057.95 C2152.65,1057.95 2198.22,1049.97 2355,994.95 C2424.15,970.68 2492.2257,929.0452 2533.9057,901.2952 " fill="none" id="AddVideoToProposalController-to-VideoList" style="stroke:#181818;stroke-width:1.0;stroke-dasharray:7.0,7.0;"/><polygon fill="#181818" points="2538.9,897.97,2529.1917,899.6282,2534.7381,900.741,2533.6253,906.2873,2538.9,897.97" style="stroke:#181818;stroke-width:1.0;"/><text fill="#000000" font-family="sans-serif" font-size="13" lengthAdjust="spacing" textLength="64.2954" x="1423.5" y="1053.9783">listVideos()</text></g><!--link PersistenceContext to JpaRepositoryFactory--><g id="link_PersistenceContext_JpaRepositoryFactory"><path codeLine="109" d="M1026.02,703.41 C1047.21,649.27 1093.75,540.74 1154,461.95 C1222.29,372.64 1317.3813,292.3174 1382.9513,241.6774 " fill="none" id="PersistenceContext-to-JpaRepositoryFactory" style="stroke:#181818;stroke-width:1.0;stroke-dasharray:7.0,7.0;"/><polygon fill="#181818" points="1387.7,238.01,1378.132,240.3454,1383.7428,241.0662,1383.0219,246.6769,1387.7,238.01" style="stroke:#181818;stroke-width:1.0;"/><text fill="#000000" font-family="sans-serif" font-size="13" lengthAdjust="spacing" textLength="135.0972" x="1155" y="321.9783">JpaRepositoryFactory()</text></g><!--link PersistenceContext to InMemoryRepositoryFactory--><g id="link_PersistenceContext_InMemoryRepositoryFactory"><path codeLine="110" d="M1122.06,704.86 C1301.45,651.84 1653.3861,547.8207 1846.9761,490.6007 " fill="none" id="PersistenceContext-to-InMemoryRepositoryFactory" style="stroke:#181818;stroke-width:1.0;stroke-dasharray:7.0,7.0;"/><polygon fill="#181818" points="1852.73,488.9,1842.9653,487.6151,1847.9351,490.3173,1845.2329,495.287,1852.73,488.9" style="stroke:#181818;stroke-width:1.0;"/><text fill="#000000" font-family="sans-serif" font-size="13" lengthAdjust="spacing" textLength="171.9263" x="1370" y="565.9783">InMemoryRepositoryFactory()</text></g><!--link PersistenceContext to RepositoryFactory--><g id="link_PersistenceContext_RepositoryFactory"><path codeLine="111" d="M1122.27,738.97 C1400.9,744.15 2133.581,757.7684 2435.801,763.3884 " fill="none" id="PersistenceContext-to-RepositoryFactory" style="stroke:#181818;stroke-width:1.0;stroke-dasharray:7.0,7.0;"/><polygon fill="#181818" points="2441.8,763.5,2432.8759,759.3334,2436.8009,763.407,2432.7272,767.332,2441.8,763.5" style="stroke:#181818;stroke-width:1.0;"/><text fill="#000000" font-family="sans-serif" font-size="13" lengthAdjust="spacing" textLength="65.0254" x="1630" y="744.9783">proposals()</text></g><!--link PersistenceContext to RepositoryFactory--><g id="link_PersistenceContext_RepositoryFactory"><path codeLine="112" d="M1122.38,748.27 C1133.06,749.24 1143.74,750.15 1154,750.95 C1686.24,792.36 1821.21,777.72 2355,769.95 C2383.07,769.54 2407.171,769.1369 2435.781,768.6269 " fill="none" id="PersistenceContext-to-RepositoryFactory-1" style="stroke:#181818;stroke-width:1.0;stroke-dasharray:7.0,7.0;"/><polygon fill="#181818" points="2441.78,768.52,2432.7101,764.681,2436.7808,768.6091,2432.8527,772.6798,2441.78,768.52" style="stroke:#181818;stroke-width:1.0;"/><text fill="#000000" font-family="sans-serif" font-size="13" lengthAdjust="spacing" textLength="87.4263" x="1619" y="773.9783">showRequest()</text></g><!--link JpaRepositoryFactory to RepositoryFactory--><g id="link_JpaRepositoryFactory_RepositoryFactory"><path codeLine="114" d="M1479.58,238.25 C1519.62,317.64 1609.99,472.13 1737,543.95 C1978.04,680.24 2095.2,527.14 2355,622.95 C2413.7,644.6 2458.3383,673.491 2500.1683,705.641 " fill="none" id="JpaRepositoryFactory-to-RepositoryFactory" style="stroke:#181818;stroke-width:1.0;stroke-dasharray:7.0,7.0;"/><polygon fill="none" points="2514.44,716.61,2503.8247,700.8838,2496.512,710.3982,2514.44,716.61" style="stroke:#181818;stroke-width:1.0;"/><text fill="#000000" font-family="sans-serif" font-size="13" lengthAdjust="spacing" textLength="65.0254" x="1953" y="539.9783">proposals()</text></g><!--link JpaRepositoryFactory to RepositoryFactory--><g id="link_JpaRepositoryFactory_RepositoryFactory"><path codeLine="115" d="M1468.52,238.22 C1495.93,337.72 1573.69,559.23 1737,630.95 C1990.58,742.31 2082.9,659.28 2355,710.95 C2383.25,716.31 2395.8002,718.8337 2424.2802,725.8337 " fill="none" id="JpaRepositoryFactory-to-RepositoryFactory-1" style="stroke:#181818;stroke-width:1.0;stroke-dasharray:7.0,7.0;"/><polygon fill="none" points="2441.76,730.13,2425.7123,720.0071,2422.8481,731.6603,2441.76,730.13" style="stroke:#181818;stroke-width:1.0;"/><text fill="#000000" font-family="sans-serif" font-size="13" lengthAdjust="spacing" textLength="87.4263" x="1942" y="626.9783">showRequest()</text></g><!--link JpaRepositoryFactory to JpaShowProposalRepository--><g id="link_JpaRepositoryFactory_JpaShowProposalRepository"><path codeLine="116" d="M1588.03,191.19 C1633.24,191.96 1679.4409,192.7472 1730.8109,193.6272 " fill="none" id="JpaRepositoryFactory-to-JpaShowProposalRepository" style="stroke:#181818;stroke-width:1.0;stroke-dasharray:7.0,7.0;"/><polygon fill="#181818" points="1736.81,193.73,1727.8798,189.5764,1731.8107,193.6444,1727.7428,197.5753,1736.81,193.73" style="stroke:#181818;stroke-width:1.0;"/></g><!--link JpaRepositoryFactory to JpaShowRequestRepository--><g id="link_JpaRepositoryFactory_JpaShowRequestRepository"><path codeLine="117" d="M1588.03,162.79 C1650.8,150.31 1721.1652,136.3201 1789.9652,122.6401 " fill="none" id="JpaRepositoryFactory-to-JpaShowRequestRepository" style="stroke:#181818;stroke-width:1.0;stroke-dasharray:7.0,7.0;"/><polygon fill="#181818" points="1795.85,121.47,1786.2427,119.302,1790.946,122.4451,1787.8029,127.1484,1795.85,121.47" style="stroke:#181818;stroke-width:1.0;"/></g><!--link JpaShowProposalRepository to ShowProposalRepository--><g id="link_JpaShowProposalRepository_ShowProposalRepository"><path codeLine="119" d="M2234.34,195.94 C2397.2,202.53 2611.92,226.55 2788,298.95 C3025.29,396.52 3231.3931,611.7797 3312.8131,703.9497 " fill="none" id="JpaShowProposalRepository-to-ShowProposalRepository" style="stroke:#181818;stroke-width:1.0;stroke-dasharray:7.0,7.0;"/><polygon fill="none" points="3324.73,717.44,3317.3099,699.9774,3308.3164,707.922,3324.73,717.44" style="stroke:#181818;stroke-width:1.0;"/><text fill="#000000" font-family="sans-serif" font-size="13" lengthAdjust="spacing" textLength="283.9751" x="2433" y="202.9783">findAllTestingProposalsByShowRequest(request)</text></g><!--link JpaShowRequestRepository to ShowRequestRepository--><g id="link_JpaShowRequestRepository_ShowRequestRepository"><path codeLine="121" d="M2175.18,59.15 C2498.55,26.87 3166.4,6 3608,306.95 C3694.74,366.06 3692.22,411.92 3727,510.95 C3757.08,596.58 3695.5,646.2 3757,712.95 C3758.37,714.43 3746.8192,703.3689 3748.2592,704.7589 " fill="none" id="JpaShowRequestRepository-to-ShowRequestRepository" style="stroke:#181818;stroke-width:1.0;stroke-dasharray:7.0,7.0;"/><polygon fill="none" points="3761.21,717.26,3752.4263,700.442,3744.0922,709.0758,3761.21,717.26" style="stroke:#181818;stroke-width:1.0;"/><text fill="#000000" font-family="sans-serif" font-size="13" lengthAdjust="spacing" textLength="177.7534" x="2850" y="49.9783">findAllCreatedShowRequests()</text></g><!--link InMemoryRepositoryFactory to RepositoryFactory--><g id="link_InMemoryRepositoryFactory_RepositoryFactory"><path codeLine="125" d="M2118.26,453.2 C2207.15,457.4 2315.22,467 2355,488.95 C2358.13,490.68 2462.1945,623.5086 2524.0345,702.6186 " fill="none" id="InMemoryRepositoryFactory-to-RepositoryFactory" style="stroke:#181818;stroke-width:1.0;stroke-dasharray:7.0,7.0;"/><polygon fill="none" points="2535.12,716.8,2528.7616,698.9235,2519.3074,706.3138,2535.12,716.8" style="stroke:#181818;stroke-width:1.0;"/><text fill="#000000" font-family="sans-serif" font-size="13" lengthAdjust="spacing" textLength="65.0254" x="2278" y="462.9783">proposals()</text></g><!--link InMemoryRepositoryFactory to RepositoryFactory--><g id="link_InMemoryRepositoryFactory_RepositoryFactory"><path codeLine="126" d="M2118.06,481.4 C2215.14,505.2 2333.88,535.8 2355,547.95 C2430.24,591.24 2486.5906,652.9246 2526.0206,702.7546 " fill="none" id="InMemoryRepositoryFactory-to-RepositoryFactory-1" style="stroke:#181818;stroke-width:1.0;stroke-dasharray:7.0,7.0;"/><polygon fill="none" points="2537.19,716.87,2530.7257,699.0315,2521.3155,706.4777,2537.19,716.87" style="stroke:#181818;stroke-width:1.0;"/><text fill="#000000" font-family="sans-serif" font-size="13" lengthAdjust="spacing" textLength="87.4263" x="2267" y="516.9783">showRequest()</text></g><!--link InMemoryRepositoryFactory to InMemoryShowProposalRepository--><g id="link_InMemoryRepositoryFactory_InMemoryShowProposalRepository"><path codeLine="128" d="M2118.41,433.7 C2188.72,427.33 2276.66,423.01 2355,429.95 C2369.97,431.28 2379.507,432.2751 2394.997,434.4251 " fill="none" id="InMemoryRepositoryFactory-to-InMemoryShowProposalRepository" style="stroke:#181818;stroke-width:1.0;stroke-dasharray:7.0,7.0;"/><polygon fill="#181818" points="2400.94,435.25,2392.5754,430.0507,2395.9875,434.5626,2391.4755,437.9747,2400.94,435.25" style="stroke:#181818;stroke-width:1.0;"/></g><!--link InMemoryRepositoryFactory to InMemoryShowRequestRepository--><g id="link_InMemoryRepositoryFactory_InMemoryShowRequestRepository"><path codeLine="129" d="M2118.23,428.63 C2196.82,415.91 2291.997,400.5084 2378.947,386.4384 " fill="none" id="InMemoryRepositoryFactory-to-InMemoryShowRequestRepository" style="stroke:#181818;stroke-width:1.0;stroke-dasharray:7.0,7.0;"/><polygon fill="#181818" points="2384.87,385.48,2375.3466,382.969,2379.9342,386.2787,2376.6245,390.8663,2384.87,385.48" style="stroke:#181818;stroke-width:1.0;"/></g><!--link InMemoryShowProposalRepository to ShowProposalRepository--><g id="link_InMemoryShowProposalRepository_ShowProposalRepository"><path codeLine="131" d="M2683.14,508.54 C2832.58,563.51 3084.4466,656.1461 3233.9166,711.1261 " fill="none" id="InMemoryShowProposalRepository-to-ShowProposalRepository" style="stroke:#181818;stroke-width:1.0;stroke-dasharray:7.0,7.0;"/><polygon fill="none" points="3250.81,717.34,3235.9879,705.4949,3231.8453,716.7572,3250.81,717.34" style="stroke:#181818;stroke-width:1.0;"/><text fill="#000000" font-family="sans-serif" font-size="13" lengthAdjust="spacing" textLength="283.9751" x="2797" y="546.9783">findAllTestingProposalsByShowRequest(request)</text></g><!--link InMemoryShowRequestRepository to ShowRequestRepository--><g id="link_InMemoryShowRequestRepository_ShowRequestRepository"><path codeLine="132" d="M2764.08,331.77 C3018.66,311.84 3469.93,318.53 3727,569.95 C3773.43,615.36 3711.6,666.52 3757,712.95 C3758.41,714.39 3746.6061,703.6107 3748.0861,704.9707 " fill="none" id="InMemoryShowRequestRepository-to-ShowRequestRepository" style="stroke:#181818;stroke-width:1.0;stroke-dasharray:7.0,7.0;"/><polygon fill="none" points="3761.34,717.15,3752.1459,700.5528,3744.0264,709.3887,3761.34,717.15" style="stroke:#181818;stroke-width:1.0;"/><text fill="#000000" font-family="sans-serif" font-size="13" lengthAdjust="spacing" textLength="177.7534" x="3271" y="329.9783">findAllCreatedShowRequests()</text></g><!--SRC=[nLPBRjim4Dtp50DtKQU1XNOh60BIf0LSj6YGnjdJrjXXAeigoRGDafod9-W9Sh5GFukII7qQ0zL6bZblvd7Up90I5KXCgA2A2uXvZ2J2ZGB5GR3jjOAG2LmhncD2I4BNt-aMONB6TvJ54tXrbZrmJmZePxz-WGcNJ7ky0zC8YcSHAnGRkaRuTir_dGkkhMbaWERpwYC836Jw7CE6nU5955sYL2pUbdZv_YvrTu4_RlN2LEJl8_1XeSFHLOHpCrn0zbuVYOLQnU0ZNHUiYbyjIhEszVIeGJefQKvJIlQDTpCoTZSwLwS2gSBGS97pgAMcM0cQDFHh_zSwebAQL3I13x5YAWq-dmlELSR2yD66bZktOUzjISYXLon4hWslQ7IBy7Lreokp7_2PQPAcqQDHoSj5iq1pv4aOPk1BNd9TBdJavQBQNDtHAO-Lu564OgZ32g4TLnyr3GzMwmSgY6E8T3QpZSYYmkjfI518RO7n6ZssIoBl9g7sX7nAwDZkFsWsYcBPandQxpEhiT7k8rgzoM5aXxz0p1xLMBp3dGvdbsuHVybM3wRVT8nMPVJXWZaH1r3DpCL_biukrdbba0uP_6qEGr6oOvY7RQMe2lbQBqRqwS_JNvI0UbmXK9a7GKb8RQxFPW5Ctato0Up3p_Hbjp2svyEAIWmXkskqrVMym7LVy4tnYCEenBTLya4Qu-E8k3nadDzwtfj9_HGpmXDxX0QoF3fzA6QLpf_rn4avTvqSfFDOIT7jFDQJzKyEwkdgTJ4iwuFSz8hVwyNI3twZ3qY_b-fcuTUFH6BndmAi9uplEaiSJjoZp-ySSWvtVRKn0jPe8EjkFSzxw0yw4beFx007xjj6BwHLkDdkd3FceQDEHzrUzc7QdREFOckghdD5prNYhg4Xwen7DogZmu5Hu0wjXeCjglNSMWufNVUbu0NoFGC0]--></g></svg>