<?xml version="1.0" encoding="UTF-8" standalone="no"?><svg xmlns="http://www.w3.org/2000/svg" xmlns:xlink="http://www.w3.org/1999/xlink" contentStyleType="text/css" height="1713px" preserveAspectRatio="none" style="width:2526px;height:1713px;background:#FFFFFF;" version="1.1" viewBox="0 0 2526 1713" width="2526px" zoomAndPan="magnify"><defs/><g><rect fill="#FFFFFF" height="1505.7813" style="stroke:#181818;stroke-width:1.0;" width="10" x="82.5" y="100.1563"/><rect fill="#FFFFFF" height="1474.625" style="stroke:#181818;stroke-width:1.0;" width="10" x="446.5" y="131.3125"/><rect fill="#FFFFFF" height="247.9375" style="stroke:#181818;stroke-width:1.0;" width="10" x="807.5" y="170.4688"/><rect fill="#FFFFFF" height="247.9375" style="stroke:#181818;stroke-width:1.0;" width="10" x="807.5" y="535.875"/><rect fill="#FFFFFF" height="169.625" style="stroke:#181818;stroke-width:1.0;" width="10" x="807.5" y="901.2813"/><rect fill="#FFFFFF" height="378.4063" style="stroke:#181818;stroke-width:1.0;" width="10" x="807.5" y="1188.375"/><rect fill="#FFFFFF" height="91.3125" style="stroke:#181818;stroke-width:1.0;" width="10" x="1007.5" y="940.4375"/><rect fill="#FFFFFF" height="39.1563" style="stroke:#181818;stroke-width:1.0;" width="10" x="1157" y="209.625"/><rect fill="#FFFFFF" height="39.1563" style="stroke:#181818;stroke-width:1.0;" width="10" x="1157" y="575.0313"/><rect fill="#FFFFFF" height="39.1563" style="stroke:#181818;stroke-width:1.0;" width="10" x="1157" y="1358"/><rect fill="#FFFFFF" height="39.1563" style="stroke:#181818;stroke-width:1.0;" width="10" x="1347" y="248.7813"/><rect fill="#FFFFFF" height="39.1563" style="stroke:#181818;stroke-width:1.0;" width="10" x="1347" y="614.1875"/><rect fill="#FFFFFF" height="39.1563" style="stroke:#181818;stroke-width:1.0;" width="10" x="1347" y="1397.1563"/><rect fill="#FFFFFF" height="91.3125" style="stroke:#181818;stroke-width:1.0;" width="10" x="1560.5" y="287.9375"/><rect fill="#FFFFFF" height="44.1563" style="stroke:#181818;stroke-width:1.0;" width="10" x="1565.5" y="335.0938"/><rect fill="#FFFFFF" height="91.3125" style="stroke:#181818;stroke-width:1.0;" width="10" x="1853.5" y="653.3438"/><rect fill="#FFFFFF" height="44.1563" style="stroke:#181818;stroke-width:1.0;" width="10" x="1858.5" y="700.5"/><rect fill="#FFFFFF" height="91.3125" style="stroke:#181818;stroke-width:1.0;" width="10" x="1853.5" y="1436.3125"/><rect fill="#FFFFFF" height="44.1563" style="stroke:#181818;stroke-width:1.0;" width="10" x="1858.5" y="1483.4688"/><rect fill="#FFFFFF" height="91.3125" style="stroke:#181818;stroke-width:1.0;" width="10" x="2359.5" y="1227.5313"/><line style="stroke:#181818;stroke-width:0.5;stroke-dasharray:5.0,5.0;" x1="87" x2="87" y1="90.1563" y2="1623.9375"/><line style="stroke:#181818;stroke-width:0.5;stroke-dasharray:5.0,5.0;" x1="451" x2="451" y1="90.1563" y2="1623.9375"/><line style="stroke:#181818;stroke-width:0.5;stroke-dasharray:5.0,5.0;" x1="812" x2="812" y1="90.1563" y2="1623.9375"/><line style="stroke:#181818;stroke-width:0.5;stroke-dasharray:5.0,5.0;" x1="1012" x2="1012" y1="90.1563" y2="1623.9375"/><line style="stroke:#181818;stroke-width:0.5;stroke-dasharray:5.0,5.0;" x1="1162" x2="1162" y1="90.1563" y2="1623.9375"/><line style="stroke:#181818;stroke-width:0.5;stroke-dasharray:5.0,5.0;" x1="1352" x2="1352" y1="90.1563" y2="1623.9375"/><line style="stroke:#181818;stroke-width:0.5;stroke-dasharray:5.0,5.0;" x1="1565" x2="1565" y1="90.1563" y2="1623.9375"/><line style="stroke:#181818;stroke-width:0.5;stroke-dasharray:5.0,5.0;" x1="1858.5" x2="1858.5" y1="90.1563" y2="1623.9375"/><line style="stroke:#181818;stroke-width:0.5;stroke-dasharray:5.0,5.0;" x1="2364" x2="2364" y1="90.1563" y2="1623.9375"/><text fill="#000000" font-family="sans-serif" font-size="20" lengthAdjust="spacing" textLength="159" x="5" y="85.7617">CRM Collaborator</text><ellipse cx="87.5" cy="13.5" fill="#E2E2F0" rx="8" ry="8" style="stroke:#181818;stroke-width:0.5;"/><path d="M87.5,21.5 L87.5,48.5 M74.5,29.5 L100.5,29.5 M87.5,48.5 L74.5,63.5 M87.5,48.5 L100.5,63.5 " fill="none" style="stroke:#181818;stroke-width:0.5;"/><text fill="#000000" font-family="sans-serif" font-size="20" lengthAdjust="spacing" textLength="159" x="5" y="1643.6992">CRM Collaborator</text><ellipse cx="87.5" cy="1656.5938" fill="#E2E2F0" rx="8" ry="8" style="stroke:#181818;stroke-width:0.5;"/><path d="M87.5,1664.5938 L87.5,1691.5938 M74.5,1672.5938 L100.5,1672.5938 M87.5,1691.5938 L74.5,1706.5938 M87.5,1691.5938 L100.5,1706.5938 " fill="none" style="stroke:#181818;stroke-width:0.5;"/><rect fill="#E2E2F0" height="39.1563" rx="2.5" ry="2.5" style="stroke:#181818;stroke-width:0.5;" width="219" x="342" y="50"/><text fill="#000000" font-family="sans-serif" font-size="20" lengthAdjust="spacing" textLength="205" x="349" y="77.7617">AddVideoToProposalUI</text><rect fill="#E2E2F0" height="39.1563" rx="2.5" ry="2.5" style="stroke:#181818;stroke-width:0.5;" width="219" x="342" y="1622.9375"/><text fill="#000000" font-family="sans-serif" font-size="20" lengthAdjust="spacing" textLength="205" x="349" y="1650.6992">AddVideoToProposalUI</text><rect fill="#E2E2F0" height="39.1563" rx="2.5" ry="2.5" style="stroke:#181818;stroke-width:0.5;" width="285" x="670" y="50"/><text fill="#000000" font-family="sans-serif" font-size="20" lengthAdjust="spacing" textLength="271" x="677" y="77.7617">AddVideoToProposalController</text><rect fill="#E2E2F0" height="39.1563" rx="2.5" ry="2.5" style="stroke:#181818;stroke-width:0.5;" width="285" x="670" y="1622.9375"/><text fill="#000000" font-family="sans-serif" font-size="20" lengthAdjust="spacing" textLength="271" x="677" y="1650.6992">AddVideoToProposalController</text><rect fill="#E2E2F0" height="39.1563" rx="2.5" ry="2.5" style="stroke:#181818;stroke-width:0.5;" width="95" x="965" y="50"/><text fill="#000000" font-family="sans-serif" font-size="20" lengthAdjust="spacing" textLength="81" x="972" y="77.7617">VideoList</text><rect fill="#E2E2F0" height="39.1563" rx="2.5" ry="2.5" style="stroke:#181818;stroke-width:0.5;" width="95" x="965" y="1622.9375"/><text fill="#000000" font-family="sans-serif" font-size="20" lengthAdjust="spacing" textLength="81" x="972" y="1650.6992">VideoList</text><rect fill="#E2E2F0" height="39.1563" rx="2.5" ry="2.5" style="stroke:#181818;stroke-width:0.5;" width="184" x="1070" y="50"/><text fill="#000000" font-family="sans-serif" font-size="20" lengthAdjust="spacing" textLength="170" x="1077" y="77.7617">PersistenceContext</text><rect fill="#E2E2F0" height="39.1563" rx="2.5" ry="2.5" style="stroke:#181818;stroke-width:0.5;" width="184" x="1070" y="1622.9375"/><text fill="#000000" font-family="sans-serif" font-size="20" lengthAdjust="spacing" textLength="170" x="1077" y="1650.6992">PersistenceContext</text><rect fill="#E2E2F0" height="39.1563" rx="2.5" ry="2.5" style="stroke:#181818;stroke-width:0.5;" width="176" x="1264" y="50"/><text fill="#000000" font-family="sans-serif" font-size="20" lengthAdjust="spacing" textLength="162" x="1271" y="77.7617">RepositoryFactory</text><rect fill="#E2E2F0" height="39.1563" rx="2.5" ry="2.5" style="stroke:#181818;stroke-width:0.5;" width="176" x="1264" y="1622.9375"/><text fill="#000000" font-family="sans-serif" font-size="20" lengthAdjust="spacing" textLength="162" x="1271" y="1650.6992">RepositoryFactory</text><rect fill="#E2E2F0" height="39.1563" rx="2.5" ry="2.5" style="stroke:#181818;stroke-width:0.5;" width="231" x="1450" y="50"/><text fill="#000000" font-family="sans-serif" font-size="20" lengthAdjust="spacing" textLength="217" x="1457" y="77.7617">ShowRequestRepository</text><rect fill="#E2E2F0" height="39.1563" rx="2.5" ry="2.5" style="stroke:#181818;stroke-width:0.5;" width="231" x="1450" y="1622.9375"/><text fill="#000000" font-family="sans-serif" font-size="20" lengthAdjust="spacing" textLength="217" x="1457" y="1650.6992">ShowRequestRepository</text><rect fill="#E2E2F0" height="39.1563" rx="2.5" ry="2.5" style="stroke:#181818;stroke-width:0.5;" width="236" x="1740.5" y="50"/><text fill="#000000" font-family="sans-serif" font-size="20" lengthAdjust="spacing" textLength="222" x="1747.5" y="77.7617">ShowProposalRepository</text><rect fill="#E2E2F0" height="39.1563" rx="2.5" ry="2.5" style="stroke:#181818;stroke-width:0.5;" width="236" x="1740.5" y="1622.9375"/><text fill="#000000" font-family="sans-serif" font-size="20" lengthAdjust="spacing" textLength="222" x="1747.5" y="1650.6992">ShowProposalRepository</text><rect fill="#E2E2F0" height="39.1563" rx="2.5" ry="2.5" style="stroke:#181818;stroke-width:0.5;" width="141" x="2294" y="50"/><text fill="#000000" font-family="sans-serif" font-size="20" lengthAdjust="spacing" textLength="127" x="2301" y="77.7617">ShowProposal</text><rect fill="#E2E2F0" height="39.1563" rx="2.5" ry="2.5" style="stroke:#181818;stroke-width:0.5;" width="141" x="2294" y="1622.9375"/><text fill="#000000" font-family="sans-serif" font-size="20" lengthAdjust="spacing" textLength="127" x="2301" y="1650.6992">ShowProposal</text><rect fill="#FFFFFF" height="1505.7813" style="stroke:#181818;stroke-width:1.0;" width="10" x="82.5" y="100.1563"/><rect fill="#FFFFFF" height="1474.625" style="stroke:#181818;stroke-width:1.0;" width="10" x="446.5" y="131.3125"/><rect fill="#FFFFFF" height="247.9375" style="stroke:#181818;stroke-width:1.0;" width="10" x="807.5" y="170.4688"/><rect fill="#FFFFFF" height="247.9375" style="stroke:#181818;stroke-width:1.0;" width="10" x="807.5" y="535.875"/><rect fill="#FFFFFF" height="169.625" style="stroke:#181818;stroke-width:1.0;" width="10" x="807.5" y="901.2813"/><rect fill="#FFFFFF" height="378.4063" style="stroke:#181818;stroke-width:1.0;" width="10" x="807.5" y="1188.375"/><rect fill="#FFFFFF" height="91.3125" style="stroke:#181818;stroke-width:1.0;" width="10" x="1007.5" y="940.4375"/><rect fill="#FFFFFF" height="39.1563" style="stroke:#181818;stroke-width:1.0;" width="10" x="1157" y="209.625"/><rect fill="#FFFFFF" height="39.1563" style="stroke:#181818;stroke-width:1.0;" width="10" x="1157" y="575.0313"/><rect fill="#FFFFFF" height="39.1563" style="stroke:#181818;stroke-width:1.0;" width="10" x="1157" y="1358"/><rect fill="#FFFFFF" height="39.1563" style="stroke:#181818;stroke-width:1.0;" width="10" x="1347" y="248.7813"/><rect fill="#FFFFFF" height="39.1563" style="stroke:#181818;stroke-width:1.0;" width="10" x="1347" y="614.1875"/><rect fill="#FFFFFF" height="39.1563" style="stroke:#181818;stroke-width:1.0;" width="10" x="1347" y="1397.1563"/><rect fill="#FFFFFF" height="91.3125" style="stroke:#181818;stroke-width:1.0;" width="10" x="1560.5" y="287.9375"/><rect fill="#FFFFFF" height="44.1563" style="stroke:#181818;stroke-width:1.0;" width="10" x="1565.5" y="335.0938"/><rect fill="#FFFFFF" height="91.3125" style="stroke:#181818;stroke-width:1.0;" width="10" x="1853.5" y="653.3438"/><rect fill="#FFFFFF" height="44.1563" style="stroke:#181818;stroke-width:1.0;" width="10" x="1858.5" y="700.5"/><rect fill="#FFFFFF" height="91.3125" style="stroke:#181818;stroke-width:1.0;" width="10" x="1853.5" y="1436.3125"/><rect fill="#FFFFFF" height="44.1563" style="stroke:#181818;stroke-width:1.0;" width="10" x="1858.5" y="1483.4688"/><rect fill="#FFFFFF" height="91.3125" style="stroke:#181818;stroke-width:1.0;" width="10" x="2359.5" y="1227.5313"/><polygon fill="#181818" points="434.5,127.3125,444.5,131.3125,434.5,135.3125,438.5,131.3125" style="stroke:#181818;stroke-width:1.0;"/><line style="stroke:#181818;stroke-width:1.0;" x1="92.5" x2="440.5" y1="131.3125" y2="131.3125"/><text fill="#000000" font-family="sans-serif" font-size="20" lengthAdjust="spacing" textLength="335" x="99.5" y="124.918">request to add a video to the proposal</text><polygon fill="#181818" points="795.5,166.4688,805.5,170.4688,795.5,174.4688,799.5,170.4688" style="stroke:#181818;stroke-width:1.0;"/><line style="stroke:#181818;stroke-width:1.0;" x1="456.5" x2="801.5" y1="170.4688" y2="170.4688"/><text fill="#000000" font-family="sans-serif" font-size="20" lengthAdjust="spacing" textLength="170" x="463.5" y="164.0742">listShowRequests()</text><polygon fill="#181818" points="1145,205.625,1155,209.625,1145,213.625,1149,209.625" style="stroke:#181818;stroke-width:1.0;"/><line style="stroke:#181818;stroke-width:1.0;" x1="817.5" x2="1151" y1="209.625" y2="209.625"/><text fill="#000000" font-family="sans-serif" font-size="20" lengthAdjust="spacing" textLength="184" x="824.5" y="203.2305">PersistenceContext()</text><polygon fill="#181818" points="1335,244.7813,1345,248.7813,1335,252.7813,1339,248.7813" style="stroke:#181818;stroke-width:1.0;"/><line style="stroke:#181818;stroke-width:1.0;" x1="1162" x2="1341" y1="248.7813" y2="248.7813"/><text fill="#000000" font-family="sans-serif" font-size="20" lengthAdjust="spacing" textLength="117" x="1169" y="242.3867">repositories()</text><polygon fill="#181818" points="1548.5,283.9375,1558.5,287.9375,1548.5,291.9375,1552.5,287.9375" style="stroke:#181818;stroke-width:1.0;"/><line style="stroke:#181818;stroke-width:1.0;" x1="1352" x2="1554.5" y1="287.9375" y2="287.9375"/><text fill="#000000" font-family="sans-serif" font-size="20" lengthAdjust="spacing" textLength="133" x="1359" y="281.543">showRequest()</text><line style="stroke:#181818;stroke-width:1.0;" x1="1570.5" x2="1617.5" y1="322.0938" y2="322.0938"/><line style="stroke:#181818;stroke-width:1.0;" x1="1617.5" x2="1617.5" y1="322.0938" y2="335.0938"/><line style="stroke:#181818;stroke-width:1.0;" x1="1576.5" x2="1617.5" y1="335.0938" y2="335.0938"/><polygon fill="#181818" points="1586.5,331.0938,1576.5,335.0938,1586.5,339.0938,1582.5,335.0938" style="stroke:#181818;stroke-width:1.0;"/><text fill="#000000" font-family="sans-serif" font-size="20" lengthAdjust="spacing" textLength="269" x="1582.5" y="315.6992">findAllCreatedShowRequests()</text><polygon fill="#181818" points="828.5,375.25,818.5,379.25,828.5,383.25,824.5,379.25" style="stroke:#181818;stroke-width:1.0;"/><line style="stroke:#181818;stroke-width:1.0;" x1="822.5" x2="1564.5" y1="379.25" y2="379.25"/><text fill="#000000" font-family="sans-serif" font-size="20" lengthAdjust="spacing" textLength="129" x="834.5" y="372.8555">showRequests</text><polygon fill="#181818" points="467.5,414.4063,457.5,418.4063,467.5,422.4063,463.5,418.4063" style="stroke:#181818;stroke-width:1.0;"/><line style="stroke:#181818;stroke-width:1.0;" x1="461.5" x2="811.5" y1="418.4063" y2="418.4063"/><text fill="#000000" font-family="sans-serif" font-size="20" lengthAdjust="spacing" textLength="129" x="473.5" y="412.0117">showRequests</text><polygon fill="#181818" points="103.5,453.5625,93.5,457.5625,103.5,461.5625,99.5,457.5625" style="stroke:#181818;stroke-width:1.0;"/><line style="stroke:#181818;stroke-width:1.0;" x1="97.5" x2="445.5" y1="457.5625" y2="457.5625"/><text fill="#000000" font-family="sans-serif" font-size="20" lengthAdjust="spacing" textLength="263" x="109.5" y="451.168">asks to select a show request</text><polygon fill="#181818" points="434.5,492.7188,444.5,496.7188,434.5,500.7188,438.5,496.7188" style="stroke:#181818;stroke-width:1.0;"/><line style="stroke:#181818;stroke-width:1.0;" x1="92.5" x2="440.5" y1="496.7188" y2="496.7188"/><text fill="#000000" font-family="sans-serif" font-size="20" lengthAdjust="spacing" textLength="203" x="99.5" y="490.3242">selects a show request</text><polygon fill="#181818" points="795.5,531.875,805.5,535.875,795.5,539.875,799.5,535.875" style="stroke:#181818;stroke-width:1.0;"/><line style="stroke:#181818;stroke-width:1.0;" x1="456.5" x2="801.5" y1="535.875" y2="535.875"/><text fill="#000000" font-family="sans-serif" font-size="20" lengthAdjust="spacing" textLength="245" x="463.5" y="529.4805">listProposals(showRequest)</text><polygon fill="#181818" points="1145,571.0313,1155,575.0313,1145,579.0313,1149,575.0313" style="stroke:#181818;stroke-width:1.0;"/><line style="stroke:#181818;stroke-width:1.0;" x1="817.5" x2="1151" y1="575.0313" y2="575.0313"/><text fill="#000000" font-family="sans-serif" font-size="20" lengthAdjust="spacing" textLength="184" x="824.5" y="568.6367">PersistenceContext()</text><polygon fill="#181818" points="1335,610.1875,1345,614.1875,1335,618.1875,1339,614.1875" style="stroke:#181818;stroke-width:1.0;"/><line style="stroke:#181818;stroke-width:1.0;" x1="1162" x2="1341" y1="614.1875" y2="614.1875"/><text fill="#000000" font-family="sans-serif" font-size="20" lengthAdjust="spacing" textLength="117" x="1169" y="607.793">repositories()</text><polygon fill="#181818" points="1841.5,649.3438,1851.5,653.3438,1841.5,657.3438,1845.5,653.3438" style="stroke:#181818;stroke-width:1.0;"/><line style="stroke:#181818;stroke-width:1.0;" x1="1352" x2="1847.5" y1="653.3438" y2="653.3438"/><text fill="#000000" font-family="sans-serif" font-size="20" lengthAdjust="spacing" textLength="100" x="1359" y="646.9492">proposals()</text><line style="stroke:#181818;stroke-width:1.0;" x1="1863.5" x2="1910.5" y1="687.5" y2="687.5"/><line style="stroke:#181818;stroke-width:1.0;" x1="1910.5" x2="1910.5" y1="687.5" y2="700.5"/><line style="stroke:#181818;stroke-width:1.0;" x1="1869.5" x2="1910.5" y1="700.5" y2="700.5"/><polygon fill="#181818" points="1879.5,696.5,1869.5,700.5,1879.5,704.5,1875.5,700.5" style="stroke:#181818;stroke-width:1.0;"/><text fill="#000000" font-family="sans-serif" font-size="20" lengthAdjust="spacing" textLength="482" x="1875.5" y="681.1055">findAllTestingProposalsByShowRequest(showRequest)</text><polygon fill="#181818" points="828.5,740.6563,818.5,744.6563,828.5,748.6563,824.5,744.6563" style="stroke:#181818;stroke-width:1.0;"/><line style="stroke:#181818;stroke-width:1.0;" x1="822.5" x2="1857.5" y1="744.6563" y2="744.6563"/><text fill="#000000" font-family="sans-serif" font-size="20" lengthAdjust="spacing" textLength="86" x="834.5" y="738.2617">proposals</text><polygon fill="#181818" points="467.5,779.8125,457.5,783.8125,467.5,787.8125,463.5,783.8125" style="stroke:#181818;stroke-width:1.0;"/><line style="stroke:#181818;stroke-width:1.0;" x1="461.5" x2="811.5" y1="783.8125" y2="783.8125"/><text fill="#000000" font-family="sans-serif" font-size="20" lengthAdjust="spacing" textLength="86" x="473.5" y="777.418">proposals</text><polygon fill="#181818" points="103.5,818.9688,93.5,822.9688,103.5,826.9688,99.5,822.9688" style="stroke:#181818;stroke-width:1.0;"/><line style="stroke:#181818;stroke-width:1.0;" x1="97.5" x2="445.5" y1="822.9688" y2="822.9688"/><text fill="#000000" font-family="sans-serif" font-size="20" lengthAdjust="spacing" textLength="221" x="109.5" y="816.5742">asks to select a proposal</text><polygon fill="#181818" points="434.5,858.125,444.5,862.125,434.5,866.125,438.5,862.125" style="stroke:#181818;stroke-width:1.0;"/><line style="stroke:#181818;stroke-width:1.0;" x1="92.5" x2="440.5" y1="862.125" y2="862.125"/><text fill="#000000" font-family="sans-serif" font-size="20" lengthAdjust="spacing" textLength="161" x="99.5" y="855.7305">selects a proposal</text><polygon fill="#181818" points="795.5,897.2813,805.5,901.2813,795.5,905.2813,799.5,901.2813" style="stroke:#181818;stroke-width:1.0;"/><line style="stroke:#181818;stroke-width:1.0;" x1="456.5" x2="801.5" y1="901.2813" y2="901.2813"/><text fill="#000000" font-family="sans-serif" font-size="20" lengthAdjust="spacing" textLength="98" x="463.5" y="894.8867">listVideos()</text><polygon fill="#181818" points="995.5,936.4375,1005.5,940.4375,995.5,944.4375,999.5,940.4375" style="stroke:#181818;stroke-width:1.0;"/><line style="stroke:#181818;stroke-width:1.0;" x1="817.5" x2="1001.5" y1="940.4375" y2="940.4375"/><text fill="#000000" font-family="sans-serif" font-size="20" lengthAdjust="spacing" textLength="102" x="824.5" y="934.043">getVideos()</text><line style="stroke:#181818;stroke-width:1.0;" x1="1017.5" x2="1059.5" y1="979.5938" y2="979.5938"/><line style="stroke:#181818;stroke-width:1.0;" x1="1059.5" x2="1059.5" y1="979.5938" y2="992.5938"/><line style="stroke:#181818;stroke-width:1.0;" x1="1018.5" x2="1059.5" y1="992.5938" y2="992.5938"/><polygon fill="#181818" points="1028.5,988.5938,1018.5,992.5938,1028.5,996.5938,1024.5,992.5938" style="stroke:#181818;stroke-width:1.0;"/><text fill="#000000" font-family="sans-serif" font-size="20" lengthAdjust="spacing" textLength="102" x="1024.5" y="973.1992">getVideos()</text><polygon fill="#181818" points="828.5,1027.75,818.5,1031.75,828.5,1035.75,824.5,1031.75" style="stroke:#181818;stroke-width:1.0;"/><line style="stroke:#181818;stroke-width:1.0;" x1="822.5" x2="1011.5" y1="1031.75" y2="1031.75"/><text fill="#000000" font-family="sans-serif" font-size="20" lengthAdjust="spacing" textLength="56" x="834.5" y="1025.3555">videos</text><polygon fill="#181818" points="467.5,1066.9063,457.5,1070.9063,467.5,1074.9063,463.5,1070.9063" style="stroke:#181818;stroke-width:1.0;"/><line style="stroke:#181818;stroke-width:1.0;" x1="461.5" x2="811.5" y1="1070.9063" y2="1070.9063"/><text fill="#000000" font-family="sans-serif" font-size="20" lengthAdjust="spacing" textLength="56" x="473.5" y="1064.5117">videos</text><polygon fill="#181818" points="103.5,1106.0625,93.5,1110.0625,103.5,1114.0625,99.5,1110.0625" style="stroke:#181818;stroke-width:1.0;"/><line style="stroke:#181818;stroke-width:1.0;" x1="97.5" x2="445.5" y1="1110.0625" y2="1110.0625"/><text fill="#000000" font-family="sans-serif" font-size="20" lengthAdjust="spacing" textLength="191" x="109.5" y="1103.668">asks to select a video</text><polygon fill="#181818" points="434.5,1145.2188,444.5,1149.2188,434.5,1153.2188,438.5,1149.2188" style="stroke:#181818;stroke-width:1.0;"/><line style="stroke:#181818;stroke-width:1.0;" x1="92.5" x2="440.5" y1="1149.2188" y2="1149.2188"/><text fill="#000000" font-family="sans-serif" font-size="20" lengthAdjust="spacing" textLength="131" x="99.5" y="1142.8242">selects a video</text><polygon fill="#181818" points="795.5,1184.375,805.5,1188.375,795.5,1192.375,799.5,1188.375" style="stroke:#181818;stroke-width:1.0;"/><line style="stroke:#181818;stroke-width:1.0;" x1="456.5" x2="801.5" y1="1188.375" y2="1188.375"/><text fill="#000000" font-family="sans-serif" font-size="20" lengthAdjust="spacing" textLength="332" x="463.5" y="1181.9805">addVideoToProposal(video, proposal)</text><polygon fill="#181818" points="2347.5,1223.5313,2357.5,1227.5313,2347.5,1231.5313,2351.5,1227.5313" style="stroke:#181818;stroke-width:1.0;"/><line style="stroke:#181818;stroke-width:1.0;" x1="817.5" x2="2353.5" y1="1227.5313" y2="1227.5313"/><text fill="#000000" font-family="sans-serif" font-size="20" lengthAdjust="spacing" textLength="143" x="824.5" y="1221.1367">addVideo(video)</text><line style="stroke:#181818;stroke-width:1.0;" x1="2369.5" x2="2411.5" y1="1266.6875" y2="1266.6875"/><line style="stroke:#181818;stroke-width:1.0;" x1="2411.5" x2="2411.5" y1="1266.6875" y2="1279.6875"/><line style="stroke:#181818;stroke-width:1.0;" x1="2370.5" x2="2411.5" y1="1279.6875" y2="1279.6875"/><polygon fill="#181818" points="2380.5,1275.6875,2370.5,1279.6875,2380.5,1283.6875,2376.5,1279.6875" style="stroke:#181818;stroke-width:1.0;"/><text fill="#000000" font-family="sans-serif" font-size="20" lengthAdjust="spacing" textLength="143" x="2376.5" y="1260.293">addVideo(video)</text><polygon fill="#181818" points="828.5,1314.8438,818.5,1318.8438,828.5,1322.8438,824.5,1318.8438" style="stroke:#181818;stroke-width:1.0;"/><line style="stroke:#181818;stroke-width:1.0;" x1="822.5" x2="2363.5" y1="1318.8438" y2="1318.8438"/><text fill="#000000" font-family="sans-serif" font-size="20" lengthAdjust="spacing" textLength="107" x="834.5" y="1312.4492">video added</text><polygon fill="#181818" points="1145,1354,1155,1358,1145,1362,1149,1358" style="stroke:#181818;stroke-width:1.0;"/><line style="stroke:#181818;stroke-width:1.0;" x1="817.5" x2="1151" y1="1358" y2="1358"/><text fill="#000000" font-family="sans-serif" font-size="20" lengthAdjust="spacing" textLength="184" x="824.5" y="1351.6055">PersistenceContext()</text><polygon fill="#181818" points="1335,1393.1563,1345,1397.1563,1335,1401.1563,1339,1397.1563" style="stroke:#181818;stroke-width:1.0;"/><line style="stroke:#181818;stroke-width:1.0;" x1="1162" x2="1341" y1="1397.1563" y2="1397.1563"/><text fill="#000000" font-family="sans-serif" font-size="20" lengthAdjust="spacing" textLength="117" x="1169" y="1390.7617">repositories()</text><polygon fill="#181818" points="1841.5,1432.3125,1851.5,1436.3125,1841.5,1440.3125,1845.5,1436.3125" style="stroke:#181818;stroke-width:1.0;"/><line style="stroke:#181818;stroke-width:1.0;" x1="1352" x2="1847.5" y1="1436.3125" y2="1436.3125"/><text fill="#000000" font-family="sans-serif" font-size="20" lengthAdjust="spacing" textLength="100" x="1359" y="1429.918">proposals()</text><line style="stroke:#181818;stroke-width:1.0;" x1="1863.5" x2="1910.5" y1="1470.4688" y2="1470.4688"/><line style="stroke:#181818;stroke-width:1.0;" x1="1910.5" x2="1910.5" y1="1470.4688" y2="1483.4688"/><line style="stroke:#181818;stroke-width:1.0;" x1="1869.5" x2="1910.5" y1="1483.4688" y2="1483.4688"/><polygon fill="#181818" points="1879.5,1479.4688,1869.5,1483.4688,1879.5,1487.4688,1875.5,1483.4688" style="stroke:#181818;stroke-width:1.0;"/><text fill="#000000" font-family="sans-serif" font-size="20" lengthAdjust="spacing" textLength="131" x="1875.5" y="1464.0742">save(proposal)</text><polygon fill="#181818" points="828.5,1523.625,818.5,1527.625,828.5,1531.625,824.5,1527.625" style="stroke:#181818;stroke-width:1.0;"/><line style="stroke:#181818;stroke-width:1.0;" x1="822.5" x2="1857.5" y1="1527.625" y2="1527.625"/><text fill="#000000" font-family="sans-serif" font-size="20" lengthAdjust="spacing" textLength="134" x="834.5" y="1521.2305">proposal saved</text><polygon fill="#181818" points="467.5,1562.7813,457.5,1566.7813,467.5,1570.7813,463.5,1566.7813" style="stroke:#181818;stroke-width:1.0;"/><line style="stroke:#181818;stroke-width:1.0;" x1="461.5" x2="811.5" y1="1566.7813" y2="1566.7813"/><text fill="#000000" font-family="sans-serif" font-size="20" lengthAdjust="spacing" textLength="212" x="473.5" y="1560.3867">video added to proposal</text><polygon fill="#181818" points="98.5,1601.9375,88.5,1605.9375,98.5,1609.9375,94.5,1605.9375" style="stroke:#181818;stroke-width:1.0;"/><line style="stroke:#181818;stroke-width:1.0;" x1="92.5" x2="450.5" y1="1605.9375" y2="1605.9375"/><text fill="#000000" font-family="sans-serif" font-size="20" lengthAdjust="spacing" textLength="212" x="104.5" y="1599.543">video added to proposal</text><!--SRC=[pLR1RXiX4Btp5SWdMsgbAiSSAgMM8bbgfSX9UgVB947UBfk5k7M_lWCios1sxOsIGoxM0kyzc9d7OBDJJIiwyRlMrGuab_0WNcfxhHjxg_u1l_Z2H6LrnnVhxG- -rdKjVkbEuCo22yFl3NGC-LPLgXMDvOihANyg2VfEttIwrKRKzvi0tPm3hd7J3dU0e9s6ET6plYjZFSfzvEitq1cSXAO29m5_0v1Cv_WjuEuA8pfS-r0F7jv_vz3R9_rd2yylO6nYUVZHIacBGOxmwD8qCGJH3vYhYjeB2w44pFtopryno_oIT-4Wt6ekfEI2xrtAtD0-0M-ZHfBOeC36qLFEKQR6T96up7ALAAGuZ91GWkGPDSfYK1LQ4qQ9gDCNm8VJfqo1EuE4SVum6qiN5L3ig3meQj9ChXdPIU-ujknORNI31zN8gxfUTu0QSYgFSxIpef1p6thiGkZKMbunxvafNLBeO17lj4iquyuuHnceeRBeCISGdPVRCK3CCMRASj7ZPadEj68VsdjdpKVlECgsGumhTjvyMODWXTpu5ht_xZ1vgdaSalhjGDoGP_YLUsQ56m8gZ9SBdLmSiUMuxcnJ3hrkof44CEv6_zhCR7tkBKBQ8oHMelc7Ydd813IkPMVmhJkFFYYD96i4ImzxEbMUF9cdk5ecIHJl-DA3FmsvdNbtUtHI33gKdPw_-4MPlAHIM9bM1mUPNUfXWrStbZTsbgdMKhQ6-PrbfB6ylQyOiOTbAkrxD0slAT-tSP02EvkdUpwZZSpXudycEd9_mlu3]--></g></svg>