<svg xmlns="http://www.w3.org/2000/svg" xmlns:xlink="http://www.w3.org/1999/xlink" contentStyleType="text/css" height="402px" preserveAspectRatio="none" style="width:152px;height:402px;background:#FFFFFF;" version="1.1" viewBox="0 0 152 402" width="152px" zoomAndPan="magnify"><defs/><g><!--class Customer--><g id="elem_Customer"><rect codeLine="3" fill="#F1F1F1" height="76.543" id="Customer" rx="2.5" ry="2.5" style="stroke:#181818;stroke-width:0.5;" width="92.6826" x="21.5" y="319"/><ellipse cx="36.5" cy="349.2715" fill="#ADD1B2" rx="11" ry="11" style="stroke:#181818;stroke-width:1.0;"/><path d="M39.2656,345.1465 Q39.4219,344.9277 39.6094,344.8184 Q39.7969,344.709 40.0156,344.709 Q40.3906,344.709 40.625,344.9746 Q40.8594,345.2246 40.8594,345.834 L40.8594,347.2871 Q40.8594,347.8965 40.625,348.1621 Q40.3906,348.4277 40.0156,348.4277 Q39.6719,348.4277 39.4688,348.2246 Q39.2656,348.0371 39.1563,347.5215 Q39.1094,347.1621 38.9219,346.9746 Q38.5938,346.5996 37.9844,346.3809 Q37.375,346.1621 36.75,346.1621 Q35.9844,346.1621 35.3438,346.4902 Q34.7188,346.8184 34.2188,347.5684 Q33.7344,348.3184 33.7344,349.3496 L33.7344,350.4434 Q33.7344,351.6777 34.625,352.5059 Q35.5156,353.3184 37.1094,353.3184 Q38.0469,353.3184 38.7031,353.0684 Q39.0938,352.9121 39.5156,352.4746 Q39.7813,352.209 39.9219,352.1309 Q40.0781,352.0527 40.2813,352.0527 Q40.6094,352.0527 40.8594,352.3184 Q41.125,352.5684 41.125,352.9121 Q41.125,353.2559 40.7813,353.6621 Q40.2813,354.2402 39.4844,354.5684 Q38.4063,355.0215 37.1094,355.0215 Q35.5938,355.0215 34.3906,354.3965 Q33.4063,353.8965 32.7188,352.834 Q32.0313,351.7559 32.0313,350.4746 L32.0313,349.3184 Q32.0313,347.9902 32.6406,346.8496 Q33.2656,345.6934 34.3594,345.084 Q35.4531,344.459 36.6875,344.459 Q37.4219,344.459 38.0625,344.6309 Q38.7188,344.7871 39.2656,345.1465 Z " fill="#000000"/><text fill="#000000" font-family="sans-serif" font-size="12" font-style="italic" lengthAdjust="spacing" textLength="43.3594" x="59.1616" y="336.9492">&#171;Entity&#187;</text><text fill="#000000" font-family="sans-serif" font-size="12" font-style="italic" lengthAdjust="spacing" textLength="34.0254" x="63.8286" y="352.9102">&#171;root&#187;</text><text fill="#000000" font-family="sans-serif" font-size="14" lengthAdjust="spacing" textLength="60.6826" x="50.5" y="371.0293">Customer</text><line style="stroke:#181818;stroke-width:0.5;" x1="22.5" x2="113.1826" y1="379.543" y2="379.543"/><line style="stroke:#181818;stroke-width:0.5;" x1="22.5" x2="113.1826" y1="387.543" y2="387.543"/></g><!--class ShowProposal--><g id="elem_ShowProposal"><rect codeLine="7" fill="#F1F1F1" height="76.543" id="ShowProposal" rx="2.5" ry="2.5" style="stroke:#181818;stroke-width:0.5;" width="122.2754" x="7" y="7"/><ellipse cx="22" cy="37.2715" fill="#ADD1B2" rx="11" ry="11" style="stroke:#181818;stroke-width:1.0;"/><path d="M24.7656,33.1465 Q24.9219,32.9277 25.1094,32.8184 Q25.2969,32.709 25.5156,32.709 Q25.8906,32.709 26.125,32.9746 Q26.3594,33.2246 26.3594,33.834 L26.3594,35.2871 Q26.3594,35.8965 26.125,36.1621 Q25.8906,36.4277 25.5156,36.4277 Q25.1719,36.4277 24.9688,36.2246 Q24.7656,36.0371 24.6563,35.5215 Q24.6094,35.1621 24.4219,34.9746 Q24.0938,34.5996 23.4844,34.3809 Q22.875,34.1621 22.25,34.1621 Q21.4844,34.1621 20.8438,34.4902 Q20.2188,34.8184 19.7188,35.5684 Q19.2344,36.3184 19.2344,37.3496 L19.2344,38.4434 Q19.2344,39.6777 20.125,40.5059 Q21.0156,41.3184 22.6094,41.3184 Q23.5469,41.3184 24.2031,41.0684 Q24.5938,40.9121 25.0156,40.4746 Q25.2813,40.209 25.4219,40.1309 Q25.5781,40.0527 25.7813,40.0527 Q26.1094,40.0527 26.3594,40.3184 Q26.625,40.5684 26.625,40.9121 Q26.625,41.2559 26.2813,41.6621 Q25.7813,42.2402 24.9844,42.5684 Q23.9063,43.0215 22.6094,43.0215 Q21.0938,43.0215 19.8906,42.3965 Q18.9063,41.8965 18.2188,40.834 Q17.5313,39.7559 17.5313,38.4746 L17.5313,37.3184 Q17.5313,35.9902 18.1406,34.8496 Q18.7656,33.6934 19.8594,33.084 Q20.9531,32.459 22.1875,32.459 Q22.9219,32.459 23.5625,32.6309 Q24.2188,32.7871 24.7656,33.1465 Z " fill="#000000"/><text fill="#000000" font-family="sans-serif" font-size="12" font-style="italic" lengthAdjust="spacing" textLength="43.3594" x="59.458" y="24.9492">&#171;Entity&#187;</text><text fill="#000000" font-family="sans-serif" font-size="12" font-style="italic" lengthAdjust="spacing" textLength="34.0254" x="64.125" y="40.9102">&#171;root&#187;</text><text fill="#000000" font-family="sans-serif" font-size="14" lengthAdjust="spacing" textLength="90.2754" x="36" y="59.0293">ShowProposal</text><line style="stroke:#181818;stroke-width:0.5;" x1="8" x2="128.2754" y1="67.543" y2="67.543"/><line style="stroke:#181818;stroke-width:0.5;" x1="8" x2="128.2754" y1="75.543" y2="75.543"/></g><!--class ShowRequest--><g id="elem_ShowRequest"><rect codeLine="10" fill="#F1F1F1" height="76.543" id="ShowRequest" rx="2.5" ry="2.5" style="stroke:#181818;stroke-width:0.5;" width="119.165" x="8.5" y="163"/><ellipse cx="23.5" cy="193.2715" fill="#ADD1B2" rx="11" ry="11" style="stroke:#181818;stroke-width:1.0;"/><path d="M26.2656,189.1465 Q26.4219,188.9277 26.6094,188.8184 Q26.7969,188.709 27.0156,188.709 Q27.3906,188.709 27.625,188.9746 Q27.8594,189.2246 27.8594,189.834 L27.8594,191.2871 Q27.8594,191.8965 27.625,192.1621 Q27.3906,192.4277 27.0156,192.4277 Q26.6719,192.4277 26.4688,192.2246 Q26.2656,192.0371 26.1563,191.5215 Q26.1094,191.1621 25.9219,190.9746 Q25.5938,190.5996 24.9844,190.3809 Q24.375,190.1621 23.75,190.1621 Q22.9844,190.1621 22.3438,190.4902 Q21.7188,190.8184 21.2188,191.5684 Q20.7344,192.3184 20.7344,193.3496 L20.7344,194.4434 Q20.7344,195.6777 21.625,196.5059 Q22.5156,197.3184 24.1094,197.3184 Q25.0469,197.3184 25.7031,197.0684 Q26.0938,196.9121 26.5156,196.4746 Q26.7813,196.209 26.9219,196.1309 Q27.0781,196.0527 27.2813,196.0527 Q27.6094,196.0527 27.8594,196.3184 Q28.125,196.5684 28.125,196.9121 Q28.125,197.2559 27.7813,197.6621 Q27.2813,198.2402 26.4844,198.5684 Q25.4063,199.0215 24.1094,199.0215 Q22.5938,199.0215 21.3906,198.3965 Q20.4063,197.8965 19.7188,196.834 Q19.0313,195.7559 19.0313,194.4746 L19.0313,193.3184 Q19.0313,191.9902 19.6406,190.8496 Q20.2656,189.6934 21.3594,189.084 Q22.4531,188.459 23.6875,188.459 Q24.4219,188.459 25.0625,188.6309 Q25.7188,188.7871 26.2656,189.1465 Z " fill="#000000"/><text fill="#000000" font-family="sans-serif" font-size="12" font-style="italic" lengthAdjust="spacing" textLength="43.3594" x="59.4028" y="180.9492">&#171;Entity&#187;</text><text fill="#000000" font-family="sans-serif" font-size="12" font-style="italic" lengthAdjust="spacing" textLength="34.0254" x="64.0698" y="196.9102">&#171;root&#187;</text><text fill="#000000" font-family="sans-serif" font-size="14" lengthAdjust="spacing" textLength="87.165" x="37.5" y="215.0293">ShowRequest</text><line style="stroke:#181818;stroke-width:0.5;" x1="9.5" x2="126.665" y1="223.543" y2="223.543"/><line style="stroke:#181818;stroke-width:0.5;" x1="9.5" x2="126.665" y1="231.543" y2="231.543"/></g><!--link ShowProposal to ShowRequest--><g id="link_ShowProposal_ShowRequest"><path codeLine="13" d="M68,84.17 C68,108.13 68,133.02 68,156.95 " fill="none" id="ShowProposal-to-ShowRequest" style="stroke:#181818;stroke-width:1.0;"/><polygon fill="#181818" points="68,162.95,72,153.95,68,157.95,64,153.95,68,162.95" style="stroke:#181818;stroke-width:1.0;"/><text fill="#000000" font-family="sans-serif" font-size="13" lengthAdjust="spacing" textLength="53.4917" x="69" y="129.0283">based on</text><text fill="#000000" font-family="sans-serif" font-size="13" lengthAdjust="spacing" textLength="19.5127" x="47.5635" y="105.4785">0..*</text><text fill="#000000" font-family="sans-serif" font-size="13" lengthAdjust="spacing" textLength="7.23" x="60.3823" y="151.6642">1</text></g><!--link ShowRequest to Customer--><g id="link_ShowRequest_Customer"><path codeLine="15" d="M68,240.17 C68,264.13 68,289.02 68,312.95 " fill="none" id="ShowRequest-to-Customer" style="stroke:#181818;stroke-width:1.0;"/><polygon fill="#181818" points="68,318.95,72,309.95,68,313.95,64,309.95,68,318.95" style="stroke:#181818;stroke-width:1.0;"/><text fill="#000000" font-family="sans-serif" font-size="13" lengthAdjust="spacing" textLength="75.1626" x="69" y="285.0283">requested by</text><text fill="#000000" font-family="sans-serif" font-size="13" lengthAdjust="spacing" textLength="19.5127" x="47.5719" y="261.4785">0..*</text><text fill="#000000" font-family="sans-serif" font-size="13" lengthAdjust="spacing" textLength="7.23" x="60.4253" y="307.6642">1</text></g><!--SRC=[TO_12i8m44Jl-Oeb5q58gzTGSX7leb-Gji4MacpDRf0Y_hl5Kh2YjnbuRs0s7VD0kYm7RoFdu8i6GzbuIwJQtbwJ3KAyAnmoCGQNeAgEaNiUZPbYGcHZ7a8y5-xIuVsKS42o_ZUxGi_kbXtnNt8r9tT5iPMWb06vbv- -XjgIQm7Zh2opNyPoGaEQWKcfHo5U]--></g></svg>