<?xml version="1.0" encoding="UTF-8" standalone="no"?><svg xmlns="http://www.w3.org/2000/svg" xmlns:xlink="http://www.w3.org/1999/xlink" contentStyleType="text/css" height="1817px" preserveAspectRatio="none" style="width:1889px;height:1817px;background:#FFFFFF;" version="1.1" viewBox="0 0 1889 1817" width="1889px" zoomAndPan="magnify"><defs/><g><!--cluster Domain--><g id="cluster_Domain"><path d="M788.5,922.4887 L869.5,922.4887 A3.75,3.75 0 0 1 872,924.9887 L879,952.0434 L1879.5,952.0434 A2.5,2.5 0 0 1 1882,954.5434 L1882,1808.0788 A2.5,2.5 0 0 1 1879.5,1810.5788 L788.5,1810.5788 A2.5,2.5 0 0 1 786,1808.0788 L786,924.9887 A2.5,2.5 0 0 1 788.5,922.4887 " fill="#DDDDDD" style="stroke:#000000;stroke-width:1.5;"/><line style="stroke:#000000;stroke-width:1.5;" x1="786" x2="879" y1="952.0434" y2="952.0434"/><text fill="#000000" font-family="sans-serif" font-size="20" font-weight="bold" lengthAdjust="spacing" textLength="80" x="790" y="943.8247">Domain</text></g><!--cluster UI--><g id="cluster_UI"><path d="M975.5,6.7188 L998.5,6.7188 A3.75,3.75 0 0 1 1001,9.2188 L1008,36.2734 L1196.5,36.2734 A2.5,2.5 0 0 1 1199,38.7734 L1199,158.8787 A2.5,2.5 0 0 1 1196.5,161.3787 L975.5,161.3787 A2.5,2.5 0 0 1 973,158.8787 L973,9.2188 A2.5,2.5 0 0 1 975.5,6.7188 " fill="#DDDDDD" style="stroke:#000000;stroke-width:1.5;"/><line style="stroke:#000000;stroke-width:1.5;" x1="973" x2="1008" y1="36.2734" y2="36.2734"/><text fill="#000000" font-family="sans-serif" font-size="20" font-weight="bold" lengthAdjust="spacing" textLength="22" x="977" y="28.0547">UI</text></g><!--cluster Controller--><g id="cluster_Controller"><path d="M860.5,218.3787 L966.5,218.3787 A3.75,3.75 0 0 1 969,220.8787 L976,247.9334 L1311.5,247.9334 A2.5,2.5 0 0 1 1314,250.4334 L1314,441.2088 A2.5,2.5 0 0 1 1311.5,443.7088 L860.5,443.7088 A2.5,2.5 0 0 1 858,441.2088 L858,220.8787 A2.5,2.5 0 0 1 860.5,218.3787 " fill="#DDDDDD" style="stroke:#000000;stroke-width:1.5;"/><line style="stroke:#000000;stroke-width:1.5;" x1="858" x2="976" y1="247.9334" y2="247.9334"/><text fill="#000000" font-family="sans-serif" font-size="20" font-weight="bold" lengthAdjust="spacing" textLength="105" x="862" y="239.7147">Controller</text></g><!--cluster persistence.impl.jpa--><g id="cluster_persistence.impl.jpa"><path d="M398.5,689.2688 L606.5,689.2688 A3.75,3.75 0 0 1 609,691.7688 L616,718.8234 L759.5,718.8234 A2.5,2.5 0 0 1 762,721.3234 L762,1074.6488 A2.5,2.5 0 0 1 759.5,1077.1488 L398.5,1077.1488 A2.5,2.5 0 0 1 396,1074.6488 L396,691.7688 A2.5,2.5 0 0 1 398.5,689.2688 " fill="#DDDDDD" style="stroke:#000000;stroke-width:1.5;"/><line style="stroke:#000000;stroke-width:1.5;" x1="396" x2="616" y1="718.8234" y2="718.8234"/><text fill="#000000" font-family="sans-serif" font-size="20" font-weight="bold" lengthAdjust="spacing" textLength="207" x="400" y="710.6047">persistence.impl.jpa</text></g><!--cluster persistence.impl.inmemory--><g id="cluster_persistence.impl.inmemory"><path d="M8.5,689.2688 L288.5,689.2688 A3.75,3.75 0 0 1 291,691.7688 L298,718.8234 L369.5,718.8234 A2.5,2.5 0 0 1 372,721.3234 L372,1074.6488 A2.5,2.5 0 0 1 369.5,1077.1488 L8.5,1077.1488 A2.5,2.5 0 0 1 6,1074.6488 L6,691.7688 A2.5,2.5 0 0 1 8.5,689.2688 " fill="#DDDDDD" style="stroke:#000000;stroke-width:1.5;"/><line style="stroke:#000000;stroke-width:1.5;" x1="6" x2="298" y1="718.8234" y2="718.8234"/><text fill="#000000" font-family="sans-serif" font-size="20" font-weight="bold" lengthAdjust="spacing" textLength="279" x="10" y="710.6047">persistence.impl.inmemory</text></g><!--cluster persistence--><g id="cluster_persistence"><path d="M471.5,500.7088 L591.5,500.7088 A3.75,3.75 0 0 1 594,503.2088 L601,530.2634 L924.5,530.2634 A2.5,2.5 0 0 1 927,532.7634 L927,629.7688 A2.5,2.5 0 0 1 924.5,632.2688 L471.5,632.2688 A2.5,2.5 0 0 1 469,629.7688 L469,503.2088 A2.5,2.5 0 0 1 471.5,500.7088 " fill="#DDDDDD" style="stroke:#000000;stroke-width:1.5;"/><line style="stroke:#000000;stroke-width:1.5;" x1="469" x2="601" y1="530.2634" y2="530.2634"/><text fill="#000000" font-family="sans-serif" font-size="20" font-weight="bold" lengthAdjust="spacing" textLength="119" x="473" y="522.0447">persistence</text></g><!--class SystemUser--><g id="elem_SystemUser"><rect codeLine="5" fill="#F1F1F1" height="143.7734" id="SystemUser" rx="2.5" ry="2.5" style="stroke:#181818;stroke-width:0.5;" width="204" x="1097" y="1398.4788"/><ellipse cx="1139.55" cy="1427.0334" fill="#ADD1B2" rx="12" ry="12" style="stroke:#181818;stroke-width:1.0;"/><path d="M1142.3566,1434.1135 Q1141.673,1434.4651 1140.9211,1434.6409 Q1140.1691,1434.8166 1139.3391,1434.8166 Q1136.3898,1434.8166 1134.8371,1432.8733 Q1133.2844,1430.9299 1133.2844,1427.258 Q1133.2844,1423.5764 1134.8371,1421.633 Q1136.3898,1419.6897 1139.3391,1419.6897 Q1140.1691,1419.6897 1140.9309,1419.8655 Q1141.6926,1420.0413 1142.3566,1420.3928 L1142.3566,1423.5959 Q1141.6145,1422.9123 1140.9162,1422.595 Q1140.218,1422.2776 1139.4758,1422.2776 Q1137.8938,1422.2776 1137.0881,1423.5325 Q1136.2824,1424.7873 1136.2824,1427.258 Q1136.2824,1429.719 1137.0881,1430.9739 Q1137.8938,1432.2288 1139.4758,1432.2288 Q1140.218,1432.2288 1140.9162,1431.9114 Q1141.6145,1431.594 1142.3566,1430.9104 Z " fill="#000000"/><text fill="#000000" font-family="sans-serif" font-size="20" font-style="italic" lengthAdjust="spacing" textLength="73" x="1179.45" y="1422.8147">«Entity»</text><text fill="#000000" font-family="sans-serif" font-size="20" lengthAdjust="spacing" textLength="111" x="1160.45" y="1446.3694">SystemUser</text><line style="stroke:#181818;stroke-width:0.5;" x1="1098" x2="1300" y1="1455.5881" y2="1455.5881"/><line style="stroke:#181818;stroke-width:0.5;" x1="1098" x2="1300" y1="1463.5881" y2="1463.5881"/><ellipse cx="1108" cy="1480.8655" fill="#84BE84" rx="3" ry="3" style="stroke:#038048;stroke-width:1.0;"/><text fill="#000000" font-family="sans-serif" font-size="20" lengthAdjust="spacing" textLength="78" x="1118" y="1486.9241">enable()</text><ellipse cx="1108" cy="1504.4202" fill="#84BE84" rx="3" ry="3" style="stroke:#038048;stroke-width:1.0;"/><text fill="#000000" font-family="sans-serif" font-size="20" lengthAdjust="spacing" textLength="84" x="1118" y="1510.4788">disable()</text><ellipse cx="1108" cy="1527.9748" fill="#84BE84" rx="3" ry="3" style="stroke:#038048;stroke-width:1.0;"/><text fill="#000000" font-family="sans-serif" font-size="20" lengthAdjust="spacing" textLength="177" x="1118" y="1534.0334">isActive(): boolean</text></g><!--class Username--><g id="elem_Username"><rect codeLine="11" fill="#F1F1F1" height="73.1094" id="Username" rx="2.5" ry="2.5" style="stroke:#181818;stroke-width:0.5;" width="172" x="802" y="1662.3587"/><ellipse cx="818" cy="1690.9134" fill="#ADD1B2" rx="12" ry="12" style="stroke:#181818;stroke-width:1.0;"/><path d="M820.8066,1697.9935 Q820.123,1698.3451 819.3711,1698.5209 Q818.6191,1698.6966 817.7891,1698.6966 Q814.8398,1698.6966 813.2871,1696.7533 Q811.7344,1694.8099 811.7344,1691.138 Q811.7344,1687.4564 813.2871,1685.513 Q814.8398,1683.5697 817.7891,1683.5697 Q818.6191,1683.5697 819.3809,1683.7455 Q820.1426,1683.9212 820.8066,1684.2728 L820.8066,1687.4759 Q820.0645,1686.7923 819.3662,1686.475 Q818.668,1686.1576 817.9258,1686.1576 Q816.3438,1686.1576 815.5381,1687.4125 Q814.7324,1688.6673 814.7324,1691.138 Q814.7324,1693.599 815.5381,1694.8539 Q816.3438,1696.1087 817.9258,1696.1087 Q818.668,1696.1087 819.3662,1695.7914 Q820.0645,1695.474 820.8066,1694.7904 Z " fill="#000000"/><text fill="#000000" font-family="sans-serif" font-size="20" font-style="italic" lengthAdjust="spacing" textLength="142" x="831" y="1686.6947">«Value Object»</text><text fill="#000000" font-family="sans-serif" font-size="20" lengthAdjust="spacing" textLength="96" x="854" y="1710.2494">Username</text><line style="stroke:#181818;stroke-width:0.5;" x1="803" x2="973" y1="1719.4681" y2="1719.4681"/><line style="stroke:#181818;stroke-width:0.5;" x1="803" x2="973" y1="1727.4681" y2="1727.4681"/></g><!--class Password--><g id="elem_Password"><rect codeLine="12" fill="#F1F1F1" height="73.1094" id="Password" rx="2.5" ry="2.5" style="stroke:#181818;stroke-width:0.5;" width="172" x="1009" y="1662.3587"/><ellipse cx="1025" cy="1690.9134" fill="#ADD1B2" rx="12" ry="12" style="stroke:#181818;stroke-width:1.0;"/><path d="M1027.8066,1697.9935 Q1027.123,1698.3451 1026.3711,1698.5209 Q1025.6191,1698.6966 1024.7891,1698.6966 Q1021.8398,1698.6966 1020.2871,1696.7533 Q1018.7344,1694.8099 1018.7344,1691.138 Q1018.7344,1687.4564 1020.2871,1685.513 Q1021.8398,1683.5697 1024.7891,1683.5697 Q1025.6191,1683.5697 1026.3809,1683.7455 Q1027.1426,1683.9212 1027.8066,1684.2728 L1027.8066,1687.4759 Q1027.0645,1686.7923 1026.3662,1686.475 Q1025.668,1686.1576 1024.9258,1686.1576 Q1023.3438,1686.1576 1022.5381,1687.4125 Q1021.7324,1688.6673 1021.7324,1691.138 Q1021.7324,1693.599 1022.5381,1694.8539 Q1023.3438,1696.1087 1024.9258,1696.1087 Q1025.668,1696.1087 1026.3662,1695.7914 Q1027.0645,1695.474 1027.8066,1694.7904 Z " fill="#000000"/><text fill="#000000" font-family="sans-serif" font-size="20" font-style="italic" lengthAdjust="spacing" textLength="142" x="1038" y="1686.6947">«Value Object»</text><text fill="#000000" font-family="sans-serif" font-size="20" lengthAdjust="spacing" textLength="90" x="1064" y="1710.2494">Password</text><line style="stroke:#181818;stroke-width:0.5;" x1="1010" x2="1180" y1="1719.4681" y2="1719.4681"/><line style="stroke:#181818;stroke-width:0.5;" x1="1010" x2="1180" y1="1727.4681" y2="1727.4681"/></g><!--class Name--><g id="elem_Name"><rect codeLine="13" fill="#F1F1F1" height="73.1094" id="Name" rx="2.5" ry="2.5" style="stroke:#181818;stroke-width:0.5;" width="172" x="1216" y="1662.3587"/><ellipse cx="1232" cy="1690.9134" fill="#ADD1B2" rx="12" ry="12" style="stroke:#181818;stroke-width:1.0;"/><path d="M1234.8066,1697.9935 Q1234.123,1698.3451 1233.3711,1698.5209 Q1232.6191,1698.6966 1231.7891,1698.6966 Q1228.8398,1698.6966 1227.2871,1696.7533 Q1225.7344,1694.8099 1225.7344,1691.138 Q1225.7344,1687.4564 1227.2871,1685.513 Q1228.8398,1683.5697 1231.7891,1683.5697 Q1232.6191,1683.5697 1233.3809,1683.7455 Q1234.1426,1683.9212 1234.8066,1684.2728 L1234.8066,1687.4759 Q1234.0645,1686.7923 1233.3662,1686.475 Q1232.668,1686.1576 1231.9258,1686.1576 Q1230.3438,1686.1576 1229.5381,1687.4125 Q1228.7324,1688.6673 1228.7324,1691.138 Q1228.7324,1693.599 1229.5381,1694.8539 Q1230.3438,1696.1087 1231.9258,1696.1087 Q1232.668,1696.1087 1233.3662,1695.7914 Q1234.0645,1695.474 1234.8066,1694.7904 Z " fill="#000000"/><text fill="#000000" font-family="sans-serif" font-size="20" font-style="italic" lengthAdjust="spacing" textLength="142" x="1245" y="1686.6947">«Value Object»</text><text fill="#000000" font-family="sans-serif" font-size="20" lengthAdjust="spacing" textLength="56" x="1288" y="1710.2494">Name</text><line style="stroke:#181818;stroke-width:0.5;" x1="1217" x2="1387" y1="1719.4681" y2="1719.4681"/><line style="stroke:#181818;stroke-width:0.5;" x1="1217" x2="1387" y1="1727.4681" y2="1727.4681"/></g><!--class PhoneNumber--><g id="elem_PhoneNumber"><rect codeLine="14" fill="#F1F1F1" height="73.1094" id="PhoneNumber" rx="2.5" ry="2.5" style="stroke:#181818;stroke-width:0.5;" width="172" x="1423" y="1662.3587"/><ellipse cx="1439" cy="1690.9134" fill="#ADD1B2" rx="12" ry="12" style="stroke:#181818;stroke-width:1.0;"/><path d="M1441.8066,1697.9935 Q1441.123,1698.3451 1440.3711,1698.5209 Q1439.6191,1698.6966 1438.7891,1698.6966 Q1435.8398,1698.6966 1434.2871,1696.7533 Q1432.7344,1694.8099 1432.7344,1691.138 Q1432.7344,1687.4564 1434.2871,1685.513 Q1435.8398,1683.5697 1438.7891,1683.5697 Q1439.6191,1683.5697 1440.3809,1683.7455 Q1441.1426,1683.9212 1441.8066,1684.2728 L1441.8066,1687.4759 Q1441.0645,1686.7923 1440.3662,1686.475 Q1439.668,1686.1576 1438.9258,1686.1576 Q1437.3438,1686.1576 1436.5381,1687.4125 Q1435.7324,1688.6673 1435.7324,1691.138 Q1435.7324,1693.599 1436.5381,1694.8539 Q1437.3438,1696.1087 1438.9258,1696.1087 Q1439.668,1696.1087 1440.3662,1695.7914 Q1441.0645,1695.474 1441.8066,1694.7904 Z " fill="#000000"/><text fill="#000000" font-family="sans-serif" font-size="20" font-style="italic" lengthAdjust="spacing" textLength="142" x="1452" y="1686.6947">«Value Object»</text><text fill="#000000" font-family="sans-serif" font-size="20" lengthAdjust="spacing" textLength="136" x="1455" y="1710.2494">PhoneNumber</text><line style="stroke:#181818;stroke-width:0.5;" x1="1424" x2="1594" y1="1719.4681" y2="1719.4681"/><line style="stroke:#181818;stroke-width:0.5;" x1="1424" x2="1594" y1="1727.4681" y2="1727.4681"/></g><!--class Role--><g id="elem_Role"><rect codeLine="16" fill="#F1F1F1" height="191.3281" id="Role" rx="2.5" ry="2.5" style="stroke:#181818;stroke-width:0.5;" width="229" x="1630.5" y="1603.2488"/><ellipse cx="1719.5" cy="1620.2488" fill="#EB937F" rx="12" ry="12" style="stroke:#181818;stroke-width:1.0;"/><path d="M1724.2227,1627.7488 L1715.1406,1627.7488 L1715.1406,1613.1687 L1724.2227,1613.1687 L1724.2227,1615.7077 L1718.0215,1615.7077 L1718.0215,1618.8523 L1723.6367,1618.8523 L1723.6367,1621.3913 L1718.0215,1621.3913 L1718.0215,1625.2097 L1724.2227,1625.2097 Z " fill="#000000"/><text fill="#000000" font-family="sans-serif" font-size="20" lengthAdjust="spacing" textLength="42" x="1741.5" y="1627.8073">Role</text><line style="stroke:#181818;stroke-width:0.5;" x1="1631.5" x2="1858.5" y1="1637.2488" y2="1637.2488"/><text fill="#000000" font-family="sans-serif" font-size="20" lengthAdjust="spacing" textLength="67" x="1636.5" y="1660.5847">ADMIN</text><text fill="#000000" font-family="sans-serif" font-size="20" lengthAdjust="spacing" textLength="152" x="1636.5" y="1684.1394">CRM_MANAGER</text><text fill="#000000" font-family="sans-serif" font-size="20" lengthAdjust="spacing" textLength="217" x="1636.5" y="1707.6941">CRM_COLLABORATOR</text><text fill="#000000" font-family="sans-serif" font-size="20" lengthAdjust="spacing" textLength="165" x="1636.5" y="1731.2488">SHOW_DESIGNER</text><text fill="#000000" font-family="sans-serif" font-size="20" lengthAdjust="spacing" textLength="133" x="1636.5" y="1754.8034">DRONE_TECH</text><text fill="#000000" font-family="sans-serif" font-size="20" lengthAdjust="spacing" textLength="109" x="1636.5" y="1778.3581">CUSTOMER</text><line style="stroke:#181818;stroke-width:0.5;" x1="1631.5" x2="1858.5" y1="1786.5769" y2="1786.5769"/></g><!--class UserRepository--><g id="elem_UserRepository"><rect codeLine="25" fill="#F1F1F1" height="143.7734" id="UserRepository" rx="2.5" ry="2.5" style="stroke:#181818;stroke-width:0.5;" width="537" x="801.5" y="1169.7088"/><ellipse cx="993" cy="1198.2634" fill="#B4A7E5" rx="12" ry="12" style="stroke:#181818;stroke-width:1.0;"/><path d="M988.6797,1193.7224 L988.6797,1191.1834 L997.3613,1191.1834 L997.3613,1193.7224 L994.4609,1193.7224 L994.4609,1203.2244 L997.3613,1203.2244 L997.3613,1205.7634 L988.6797,1205.7634 L988.6797,1203.2244 L991.5801,1203.2244 L991.5801,1193.7224 Z " fill="#000000"/><text fill="#000000" font-family="sans-serif" font-size="20" font-style="italic" lengthAdjust="spacing" textLength="122" x="1026.5" y="1194.0447">«Repository»</text><text fill="#000000" font-family="sans-serif" font-size="20" font-style="italic" lengthAdjust="spacing" textLength="145" x="1015" y="1217.5994">UserRepository</text><line style="stroke:#181818;stroke-width:0.5;" x1="802.5" x2="1337.5" y1="1226.8181" y2="1226.8181"/><line style="stroke:#181818;stroke-width:0.5;" x1="802.5" x2="1337.5" y1="1234.8181" y2="1234.8181"/><ellipse cx="812.5" cy="1252.0955" fill="#84BE84" rx="3" ry="3" style="stroke:#038048;stroke-width:1.0;"/><text fill="#000000" font-family="sans-serif" font-size="20" lengthAdjust="spacing" textLength="501" x="822.5" y="1258.1541">findByUsername(username: Username) : SystemUser</text><ellipse cx="812.5" cy="1275.6502" fill="#84BE84" rx="3" ry="3" style="stroke:#038048;stroke-width:1.0;"/><text fill="#000000" font-family="sans-serif" font-size="20" lengthAdjust="spacing" textLength="510" x="822.5" y="1281.7088">findByActive(active: boolean) : Iterable&lt;SystemUser&gt;</text><ellipse cx="812.5" cy="1299.2048" fill="#84BE84" rx="3" ry="3" style="stroke:#038048;stroke-width:1.0;"/><text fill="#000000" font-family="sans-serif" font-size="20" lengthAdjust="spacing" textLength="349" x="822.5" y="1305.2634">save(user: SystemUser) : SystemUser</text></g><!--class RepositoryFactory--><g id="elem_RepositoryFactory"><rect codeLine="31" fill="#F1F1F1" height="96.6641" id="RepositoryFactory" rx="2.5" ry="2.5" style="stroke:#181818;stroke-width:0.5;" width="341" x="801.5" y="976.2587"/><ellipse cx="882" cy="1004.8134" fill="#B4A7E5" rx="12" ry="12" style="stroke:#181818;stroke-width:1.0;"/><path d="M877.6797,1000.2724 L877.6797,997.7334 L886.3613,997.7334 L886.3613,1000.2724 L883.4609,1000.2724 L883.4609,1009.7744 L886.3613,1009.7744 L886.3613,1012.3134 L877.6797,1012.3134 L877.6797,1009.7744 L880.5801,1009.7744 L880.5801,1000.2724 Z " fill="#000000"/><text fill="#000000" font-family="sans-serif" font-size="20" font-style="italic" lengthAdjust="spacing" textLength="89" x="945" y="1000.5947">«Factory»</text><text fill="#000000" font-family="sans-serif" font-size="20" font-style="italic" lengthAdjust="spacing" textLength="171" x="904" y="1024.1494">RepositoryFactory</text><line style="stroke:#181818;stroke-width:0.5;" x1="802.5" x2="1141.5" y1="1033.3681" y2="1033.3681"/><line style="stroke:#181818;stroke-width:0.5;" x1="802.5" x2="1141.5" y1="1041.3681" y2="1041.3681"/><ellipse cx="812.5" cy="1058.6455" fill="#84BE84" rx="3" ry="3" style="stroke:#038048;stroke-width:1.0;"/><text fill="#000000" font-family="sans-serif" font-size="20" lengthAdjust="spacing" textLength="314" x="822.5" y="1064.7041">userRepository(): UserRepository</text></g><!--class AuthService--><g id="elem_AuthService"><rect codeLine="35" fill="#F1F1F1" height="120.2188" id="AuthService" rx="2.5" ry="2.5" style="stroke:#181818;stroke-width:0.5;" width="689" x="1177.5" y="964.4887"/><ellipse cx="1461.5" cy="993.0434" fill="#ADD1B2" rx="12" ry="12" style="stroke:#181818;stroke-width:1.0;"/><path d="M1464.3066,1000.1235 Q1463.623,1000.4751 1462.8711,1000.6509 Q1462.1191,1000.8266 1461.2891,1000.8266 Q1458.3398,1000.8266 1456.7871,998.8833 Q1455.2344,996.9399 1455.2344,993.268 Q1455.2344,989.5864 1456.7871,987.643 Q1458.3398,985.6997 1461.2891,985.6997 Q1462.1191,985.6997 1462.8809,985.8755 Q1463.6426,986.0512 1464.3066,986.4028 L1464.3066,989.6059 Q1463.5645,988.9223 1462.8662,988.605 Q1462.168,988.2876 1461.4258,988.2876 Q1459.8438,988.2876 1459.0381,989.5425 Q1458.2324,990.7973 1458.2324,993.268 Q1458.2324,995.729 1459.0381,996.9839 Q1459.8438,998.2387 1461.4258,998.2387 Q1462.168,998.2387 1462.8662,997.9214 Q1463.5645,997.604 1464.3066,996.9204 Z " fill="#000000"/><text fill="#000000" font-family="sans-serif" font-size="20" font-style="italic" lengthAdjust="spacing" textLength="87" x="1496" y="988.8247">«Service»</text><text fill="#000000" font-family="sans-serif" font-size="20" lengthAdjust="spacing" textLength="112" x="1483.5" y="1012.3794">AuthService</text><line style="stroke:#181818;stroke-width:0.5;" x1="1178.5" x2="1865.5" y1="1021.5981" y2="1021.5981"/><line style="stroke:#181818;stroke-width:0.5;" x1="1178.5" x2="1865.5" y1="1029.5981" y2="1029.5981"/><ellipse cx="1188.5" cy="1046.8755" fill="#84BE84" rx="3" ry="3" style="stroke:#038048;stroke-width:1.0;"/><text fill="#000000" font-family="sans-serif" font-size="20" lengthAdjust="spacing" textLength="662" x="1198.5" y="1052.9341">authenticate(username: Username, password: Password): SystemUser</text><ellipse cx="1188.5" cy="1070.4302" fill="#84BE84" rx="3" ry="3" style="stroke:#038048;stroke-width:1.0;"/><text fill="#000000" font-family="sans-serif" font-size="20" lengthAdjust="spacing" textLength="460" x="1198.5" y="1076.4888">authorize(user: SystemUser, role: Role): boolean</text></g><!--class AuthenticationUI--><g id="elem_AuthenticationUI"><rect codeLine="42" fill="#F1F1F1" height="96.6641" id="AuthenticationUI" rx="2.5" ry="2.5" style="stroke:#181818;stroke-width:0.5;" width="193" x="989.5" y="48.7188"/><ellipse cx="1005.5" cy="77.2734" fill="#ADD1B2" rx="12" ry="12" style="stroke:#181818;stroke-width:1.0;"/><path d="M1008.3066,84.3535 Q1007.623,84.7051 1006.8711,84.8809 Q1006.1191,85.0566 1005.2891,85.0566 Q1002.3398,85.0566 1000.7871,83.1133 Q999.2344,81.1699 999.2344,77.498 Q999.2344,73.8164 1000.7871,71.873 Q1002.3398,69.9297 1005.2891,69.9297 Q1006.1191,69.9297 1006.8809,70.1055 Q1007.6426,70.2813 1008.3066,70.6328 L1008.3066,73.8359 Q1007.5645,73.1523 1006.8662,72.835 Q1006.168,72.5176 1005.4258,72.5176 Q1003.8438,72.5176 1003.0381,73.7725 Q1002.2324,75.0273 1002.2324,77.498 Q1002.2324,79.959 1003.0381,81.2139 Q1003.8438,82.4688 1005.4258,82.4688 Q1006.168,82.4688 1006.8662,82.1514 Q1007.5645,81.834 1008.3066,81.1504 Z " fill="#000000"/><text fill="#000000" font-family="sans-serif" font-size="20" font-style="italic" lengthAdjust="spacing" textLength="40" x="1080" y="73.0547">«UI»</text><text fill="#000000" font-family="sans-serif" font-size="20" lengthAdjust="spacing" textLength="159" x="1020.5" y="96.6094">AuthenticationUI</text><line style="stroke:#181818;stroke-width:0.5;" x1="990.5" x2="1181.5" y1="105.8281" y2="105.8281"/><line style="stroke:#181818;stroke-width:0.5;" x1="990.5" x2="1181.5" y1="113.8281" y2="113.8281"/><ellipse cx="1000.5" cy="131.1055" fill="#84BE84" rx="3" ry="3" style="stroke:#038048;stroke-width:1.0;"/><text fill="#000000" font-family="sans-serif" font-size="20" lengthAdjust="spacing" textLength="63" x="1010.5" y="137.1641">show()</text></g><!--class AuthenticationController--><g id="elem_AuthenticationController"><rect codeLine="48" fill="#F1F1F1" height="167.3281" id="AuthenticationController" rx="2.5" ry="2.5" style="stroke:#181818;stroke-width:0.5;" width="423" x="874.5" y="260.3787"/><ellipse cx="964" cy="288.9334" fill="#ADD1B2" rx="12" ry="12" style="stroke:#181818;stroke-width:1.0;"/><path d="M966.8066,296.0135 Q966.123,296.3651 965.3711,296.5409 Q964.6191,296.7166 963.7891,296.7166 Q960.8398,296.7166 959.2871,294.7733 Q957.7344,292.8299 957.7344,289.158 Q957.7344,285.4764 959.2871,283.533 Q960.8398,281.5897 963.7891,281.5897 Q964.6191,281.5897 965.3809,281.7655 Q966.1426,281.9412 966.8066,282.2928 L966.8066,285.4959 Q966.0645,284.8123 965.3662,284.495 Q964.668,284.1776 963.9258,284.1776 Q962.3438,284.1776 961.5381,285.4325 Q960.7324,286.6873 960.7324,289.158 Q960.7324,291.619 961.5381,292.8739 Q962.3438,294.1287 963.9258,294.1287 Q964.668,294.1287 965.3662,293.8114 Q966.0645,293.494 966.8066,292.8104 Z " fill="#000000"/><text fill="#000000" font-family="sans-serif" font-size="20" font-style="italic" lengthAdjust="spacing" textLength="116" x="1045.5" y="284.7147">«Controller»</text><text fill="#000000" font-family="sans-serif" font-size="20" lengthAdjust="spacing" textLength="235" x="986" y="308.2694">AuthenticationController</text><line style="stroke:#181818;stroke-width:0.5;" x1="875.5" x2="1296.5" y1="317.4881" y2="317.4881"/><line style="stroke:#181818;stroke-width:0.5;" x1="875.5" x2="1296.5" y1="325.4881" y2="325.4881"/><ellipse cx="885.5" cy="342.7655" fill="#84BE84" rx="3" ry="3" style="stroke:#038048;stroke-width:1.0;"/><text fill="#000000" font-family="sans-serif" font-size="20" lengthAdjust="spacing" textLength="396" x="895.5" y="348.8241">login(username: String, password: String)</text><ellipse cx="885.5" cy="366.3202" fill="#84BE84" rx="3" ry="3" style="stroke:#038048;stroke-width:1.0;"/><text fill="#000000" font-family="sans-serif" font-size="20" lengthAdjust="spacing" textLength="324" x="895.5" y="372.3787">listUsers(): Iterable&lt;SystemUser&gt;</text><ellipse cx="885.5" cy="389.8748" fill="#84BE84" rx="3" ry="3" style="stroke:#038048;stroke-width:1.0;"/><text fill="#000000" font-family="sans-serif" font-size="20" lengthAdjust="spacing" textLength="283" x="895.5" y="395.9334">enableUser(username: String)</text><ellipse cx="885.5" cy="413.4295" fill="#84BE84" rx="3" ry="3" style="stroke:#038048;stroke-width:1.0;"/><text fill="#000000" font-family="sans-serif" font-size="20" lengthAdjust="spacing" textLength="289" x="895.5" y="419.4881">disableUser(username: String)</text></g><!--class JpaUserRepository--><g id="elem_JpaUserRepository"><rect codeLine="57" fill="#F1F1F1" height="73.1094" id="JpaUserRepository" rx="2.5" ry="2.5" style="stroke:#181818;stroke-width:0.5;" width="209" x="508.5" y="988.0387"/><ellipse cx="524.5" cy="1016.5934" fill="#ADD1B2" rx="12" ry="12" style="stroke:#181818;stroke-width:1.0;"/><path d="M527.3066,1023.6735 Q526.623,1024.0251 525.8711,1024.2009 Q525.1191,1024.3766 524.2891,1024.3766 Q521.3398,1024.3766 519.7871,1022.4333 Q518.2344,1020.4899 518.2344,1016.818 Q518.2344,1013.1364 519.7871,1011.193 Q521.3398,1009.2497 524.2891,1009.2497 Q525.1191,1009.2497 525.8809,1009.4255 Q526.6426,1009.6012 527.3066,1009.9528 L527.3066,1013.1559 Q526.5645,1012.4723 525.8662,1012.155 Q525.168,1011.8376 524.4258,1011.8376 Q522.8438,1011.8376 522.0381,1013.0925 Q521.2324,1014.3473 521.2324,1016.818 Q521.2324,1019.279 522.0381,1020.5339 Q522.8438,1021.7887 524.4258,1021.7887 Q525.168,1021.7887 525.8662,1021.4714 Q526.5645,1021.154 527.3066,1020.4704 Z " fill="#000000"/><text fill="#000000" font-family="sans-serif" font-size="20" font-style="italic" lengthAdjust="spacing" textLength="122" x="566" y="1012.3747">«Repository»</text><text fill="#000000" font-family="sans-serif" font-size="20" lengthAdjust="spacing" textLength="175" x="539.5" y="1035.9294">JpaUserRepository</text><line style="stroke:#181818;stroke-width:0.5;" x1="509.5" x2="716.5" y1="1045.1481" y2="1045.1481"/><line style="stroke:#181818;stroke-width:0.5;" x1="509.5" x2="716.5" y1="1053.1481" y2="1053.1481"/></g><!--class JpaRepositoryFactory--><g id="elem_JpaRepositoryFactory"><rect codeLine="60" fill="#F1F1F1" height="120.2188" id="JpaRepositoryFactory" rx="2.5" ry="2.5" style="stroke:#181818;stroke-width:0.5;" width="333" x="412.5" y="731.2688"/><ellipse cx="474" cy="759.8234" fill="#ADD1B2" rx="12" ry="12" style="stroke:#181818;stroke-width:1.0;"/><path d="M476.8066,766.9035 Q476.123,767.2551 475.3711,767.4309 Q474.6191,767.6066 473.7891,767.6066 Q470.8398,767.6066 469.2871,765.6633 Q467.7344,763.7199 467.7344,760.048 Q467.7344,756.3664 469.2871,754.423 Q470.8398,752.4797 473.7891,752.4797 Q474.6191,752.4797 475.3809,752.6555 Q476.1426,752.8313 476.8066,753.1828 L476.8066,756.3859 Q476.0645,755.7023 475.3662,755.385 Q474.668,755.0676 473.9258,755.0676 Q472.3438,755.0676 471.5381,756.3225 Q470.7324,757.5773 470.7324,760.048 Q470.7324,762.509 471.5381,763.7639 Q472.3438,765.0188 473.9258,765.0188 Q474.668,765.0188 475.3662,764.7014 Q476.0645,764.384 476.8066,763.7004 Z " fill="#000000"/><text fill="#000000" font-family="sans-serif" font-size="20" font-style="italic" lengthAdjust="spacing" textLength="89" x="552" y="755.6047">«Factory»</text><text fill="#000000" font-family="sans-serif" font-size="20" lengthAdjust="spacing" textLength="201" x="496" y="779.1594">JpaRepositoryFactory</text><line style="stroke:#181818;stroke-width:0.5;" x1="413.5" x2="744.5" y1="788.3781" y2="788.3781"/><rect fill="none" height="6" style="stroke:#C82930;stroke-width:1.0;" width="6" x="420.5" y="802.6555"/><text fill="#000000" font-family="sans-serif" font-size="20" lengthAdjust="spacing" textLength="79" x="433.5" y="811.7141">instance</text><line style="stroke:#181818;stroke-width:0.5;" x1="413.5" x2="744.5" y1="819.9328" y2="819.9328"/><ellipse cx="423.5" cy="837.2102" fill="#84BE84" rx="3" ry="3" style="stroke:#038048;stroke-width:1.0;"/><text fill="#000000" font-family="sans-serif" font-size="20" lengthAdjust="spacing" textLength="306" x="433.5" y="843.2688">getInstance(): RepositoryFactory</text></g><!--class InMemoryUserRepository--><g id="elem_InMemoryUserRepository"><rect codeLine="67" fill="#F1F1F1" height="73.1094" id="InMemoryUserRepository" rx="2.5" ry="2.5" style="stroke:#181818;stroke-width:0.5;" width="274" x="63" y="988.0387"/><ellipse cx="79" cy="1016.5934" fill="#ADD1B2" rx="12" ry="12" style="stroke:#181818;stroke-width:1.0;"/><path d="M81.8066,1023.6735 Q81.123,1024.0251 80.3711,1024.2009 Q79.6191,1024.3766 78.7891,1024.3766 Q75.8398,1024.3766 74.2871,1022.4333 Q72.7344,1020.4899 72.7344,1016.818 Q72.7344,1013.1364 74.2871,1011.193 Q75.8398,1009.2497 78.7891,1009.2497 Q79.6191,1009.2497 80.3809,1009.4255 Q81.1426,1009.6012 81.8066,1009.9528 L81.8066,1013.1559 Q81.0645,1012.4723 80.3662,1012.155 Q79.668,1011.8376 78.9258,1011.8376 Q77.3438,1011.8376 76.5381,1013.0925 Q75.7324,1014.3473 75.7324,1016.818 Q75.7324,1019.279 76.5381,1020.5339 Q77.3438,1021.7887 78.9258,1021.7887 Q79.668,1021.7887 80.3662,1021.4714 Q81.0645,1021.154 81.8066,1020.4704 Z " fill="#000000"/><text fill="#000000" font-family="sans-serif" font-size="20" font-style="italic" lengthAdjust="spacing" textLength="122" x="153" y="1012.3747">«Repository»</text><text fill="#000000" font-family="sans-serif" font-size="20" lengthAdjust="spacing" textLength="240" x="94" y="1035.9294">InMemoryUserRepository</text><line style="stroke:#181818;stroke-width:0.5;" x1="64" x2="336" y1="1045.1481" y2="1045.1481"/><line style="stroke:#181818;stroke-width:0.5;" x1="64" x2="336" y1="1053.1481" y2="1053.1481"/></g><!--class InMemoryRepositoryFactory--><g id="elem_InMemoryRepositoryFactory"><rect codeLine="70" fill="#F1F1F1" height="120.2188" id="InMemoryRepositoryFactory" rx="2.5" ry="2.5" style="stroke:#181818;stroke-width:0.5;" width="333" x="22.5" y="731.2688"/><ellipse cx="53.35" cy="759.8234" fill="#ADD1B2" rx="12" ry="12" style="stroke:#181818;stroke-width:1.0;"/><path d="M56.1566,766.9035 Q55.473,767.2551 54.7211,767.4309 Q53.9691,767.6066 53.1391,767.6066 Q50.1898,767.6066 48.6371,765.6633 Q47.0844,763.7199 47.0844,760.048 Q47.0844,756.3664 48.6371,754.423 Q50.1898,752.4797 53.1391,752.4797 Q53.9691,752.4797 54.7309,752.6555 Q55.4926,752.8313 56.1566,753.1828 L56.1566,756.3859 Q55.4145,755.7023 54.7162,755.385 Q54.018,755.0676 53.2758,755.0676 Q51.6938,755.0676 50.8881,756.3225 Q50.0824,757.5773 50.0824,760.048 Q50.0824,762.509 50.8881,763.7639 Q51.6938,765.0188 53.2758,765.0188 Q54.018,765.0188 54.7162,764.7014 Q55.4145,764.384 56.1566,763.7004 Z " fill="#000000"/><text fill="#000000" font-family="sans-serif" font-size="20" font-style="italic" lengthAdjust="spacing" textLength="89" x="160.15" y="755.6047">«Factory»</text><text fill="#000000" font-family="sans-serif" font-size="20" lengthAdjust="spacing" textLength="266" x="71.65" y="779.1594">InMemoryRepositoryFactory</text><line style="stroke:#181818;stroke-width:0.5;" x1="23.5" x2="354.5" y1="788.3781" y2="788.3781"/><rect fill="none" height="6" style="stroke:#C82930;stroke-width:1.0;" width="6" x="30.5" y="802.6555"/><text fill="#000000" font-family="sans-serif" font-size="20" lengthAdjust="spacing" textLength="79" x="43.5" y="811.7141">instance</text><line style="stroke:#181818;stroke-width:0.5;" x1="23.5" x2="354.5" y1="819.9328" y2="819.9328"/><ellipse cx="33.5" cy="837.2102" fill="#84BE84" rx="3" ry="3" style="stroke:#038048;stroke-width:1.0;"/><text fill="#000000" font-family="sans-serif" font-size="20" lengthAdjust="spacing" textLength="306" x="43.5" y="843.2688">getInstance(): RepositoryFactory</text></g><!--class PersistenceContext--><g id="elem_PersistenceContext"><rect codeLine="77" fill="#F1F1F1" height="73.5547" id="PersistenceContext" rx="2.5" ry="2.5" style="stroke:#181818;stroke-width:0.5;" width="425" x="485.5" y="542.7088"/><ellipse cx="602.5" cy="559.7088" fill="#ADD1B2" rx="12" ry="12" style="stroke:#181818;stroke-width:1.0;"/><path d="M605.3066,566.7888 Q604.623,567.1404 603.8711,567.3162 Q603.1191,567.492 602.2891,567.492 Q599.3398,567.492 597.7871,565.5486 Q596.2344,563.6052 596.2344,559.9334 Q596.2344,556.2517 597.7871,554.3084 Q599.3398,552.365 602.2891,552.365 Q603.1191,552.365 603.8809,552.5408 Q604.6426,552.7166 605.3066,553.0681 L605.3066,556.2713 Q604.5645,555.5877 603.8662,555.2703 Q603.168,554.9529 602.4258,554.9529 Q600.8438,554.9529 600.0381,556.2078 Q599.2324,557.4627 599.2324,559.9334 Q599.2324,562.3943 600.0381,563.6492 Q600.8438,564.9041 602.4258,564.9041 Q603.168,564.9041 603.8662,564.5867 Q604.5645,564.2693 605.3066,563.5857 Z " fill="#000000"/><text fill="#000000" font-family="sans-serif" font-size="20" lengthAdjust="spacing" textLength="182" x="624.5" y="567.2673">PersistenceContext</text><line style="stroke:#181818;stroke-width:0.5;" x1="486.5" x2="909.5" y1="576.7088" y2="576.7088"/><line style="stroke:#181818;stroke-width:0.5;" x1="486.5" x2="909.5" y1="584.7088" y2="584.7088"/><ellipse cx="496.5" cy="601.9861" fill="#84BE84" rx="3" ry="3" style="stroke:#038048;stroke-width:1.0;"/><text fill="#000000" font-family="sans-serif" font-size="20" lengthAdjust="spacing" textLength="398" x="506.5" y="608.0447">getRepositoryFactory(): RepositoryFactory</text></g><!--link SystemUser to Username--><g id="link_SystemUser_Username"><path codeLine="83" d="M1096.58,1531.2588 C1062.14,1552.7088 1024.08,1577.8787 991,1603.2488 C969.32,1619.8687 946.81,1640.1587 928.39,1657.6888 " fill="none" id="SystemUser-to-Username" style="stroke:#181818;stroke-width:1.0;"/><polygon fill="#181818" points="924.89,1661.0288,934.1587,1657.6983,928.5032,1657.5726,928.6289,1651.9172,924.89,1661.0288" style="stroke:#181818;stroke-width:1.0;"/></g><!--link SystemUser to Password--><g id="link_SystemUser_Password"><path codeLine="84" d="M1166.24,1542.7388 C1149.08,1580.0987 1128.68,1624.5388 1114.12,1656.2688 " fill="none" id="SystemUser-to-Password" style="stroke:#181818;stroke-width:1.0;"/><polygon fill="#181818" points="1112.1,1660.6687,1119.4826,1654.1498,1114.1808,1656.1223,1112.2083,1650.8205,1112.1,1660.6687" style="stroke:#181818;stroke-width:1.0;"/></g><!--link SystemUser to Name--><g id="link_SystemUser_Name"><path codeLine="85" d="M1231.45,1542.7388 C1248.44,1580.0987 1268.64,1624.5388 1283.07,1656.2688 " fill="none" id="SystemUser-to-Name" style="stroke:#181818;stroke-width:1.0;"/><polygon fill="#181818" points="1285.06,1660.6587,1284.9772,1650.8102,1282.991,1656.1069,1277.6943,1654.1207,1285.06,1660.6587" style="stroke:#181818;stroke-width:1.0;"/></g><!--link SystemUser to PhoneNumber--><g id="link_SystemUser_PhoneNumber"><path codeLine="86" d="M1301.44,1531.6487 C1335.57,1553.0288 1373.23,1578.0588 1406,1603.2488 C1427.66,1619.8987 1450.17,1640.1888 1468.6,1657.7088 " fill="none" id="SystemUser-to-PhoneNumber" style="stroke:#181818;stroke-width:1.0;"/><polygon fill="#181818" points="1472.1,1661.0488,1468.3611,1651.9372,1468.4868,1657.5926,1462.8313,1657.7183,1472.1,1661.0488" style="stroke:#181818;stroke-width:1.0;"/></g><!--link SystemUser to Role--><g id="link_SystemUser_Role"><path codeLine="87" d="M1301.15,1494.3587 C1387.12,1515.9287 1511.88,1552.4788 1613,1603.2488 C1616.81,1605.1587 1620.63,1607.1787 1624.45,1609.2788 " fill="none" id="SystemUser-to-Role" style="stroke:#181818;stroke-width:1.0;"/><polygon fill="#181818" points="1628.71,1611.6787,1622.8158,1603.7884,1624.3487,1609.2336,1618.9035,1610.7664,1628.71,1611.6787" style="stroke:#181818;stroke-width:1.0;"/></g><!--link UserRepository to SystemUser--><g id="link_UserRepository_SystemUser"><path codeLine="89" d="M1110.46,1313.7187 C1124.74,1338.8188 1140.86,1367.1487 1155.38,1392.6888 " fill="none" id="UserRepository-to-SystemUser" style="stroke:#181818;stroke-width:1.0;"/><polygon fill="#181818" points="1157.71,1396.7788,1156.7351,1386.9783,1155.237,1392.4331,1149.7821,1390.9351,1157.71,1396.7788" style="stroke:#181818;stroke-width:1.0;"/><text fill="#000000" font-family="sans-serif" font-size="20" lengthAdjust="spacing" textLength="86" x="1139" y="1363.8147">manages</text></g><!--link AuthService to UserRepository--><g id="link_AuthService_UserRepository"><path codeLine="91" d="M1396.69,1085.1987 C1343.78,1110.3687 1281.6,1139.9388 1225.77,1166.4988 " fill="none" id="AuthService-to-UserRepository" style="stroke:#181818;stroke-width:1.0;stroke-dasharray:7.0,7.0;"/><polygon fill="#181818" points="1221.41,1168.5688,1231.2554,1168.3096,1225.924,1166.4185,1227.8151,1161.0871,1221.41,1168.5688" style="stroke:#181818;stroke-width:1.0;"/><text fill="#000000" font-family="sans-serif" font-size="20" lengthAdjust="spacing" textLength="157" x="1324" y="1135.0447">userRepository()</text></g><!--link AuthenticationController to AuthService--><g id="link_AuthenticationController_AuthService"><path codeLine="92" d="M1139.24,427.9087 C1227.1,564.6387 1400.62,834.6987 1480.26,958.6387 " fill="none" id="AuthenticationController-to-AuthService" style="stroke:#181818;stroke-width:1.0;stroke-dasharray:7.0,7.0;"/><polygon fill="#181818" points="1482.93,962.7987,1481.4279,953.0651,1480.2262,958.5929,1474.6985,957.3912,1482.93,962.7987" style="stroke:#181818;stroke-width:1.0;"/><text fill="#000000" font-family="sans-serif" font-size="20" lengthAdjust="spacing" textLength="109" x="1294" y="668.6047">authService</text></g><!--link AuthenticationController to RepositoryFactory--><g id="link_AuthenticationController_RepositoryFactory"><path codeLine="93" d="M1093.5,427.9087 C1100.21,529.6487 1103.67,706.5487 1064,851.4887 C1052.33,894.1387 1028.64,938.0387 1008.23,970.8187 " fill="none" id="AuthenticationController-to-RepositoryFactory" style="stroke:#181818;stroke-width:1.0;stroke-dasharray:7.0,7.0;"/><polygon fill="#181818" points="1005.79,974.7087,1013.9653,969.2166,1008.4503,970.4752,1007.1916,964.9601,1005.79,974.7087" style="stroke:#181818;stroke-width:1.0;"/><text fill="#000000" font-family="sans-serif" font-size="20" lengthAdjust="spacing" textLength="166" x="1095" y="668.6047">repositoryFactory</text></g><!--link AuthenticationController to PersistenceContext--><g id="link_AuthenticationController_PersistenceContext"><path codeLine="94" d="M897.76,428.1587 C878.92,438.1587 860.35,448.7488 843,459.7088 C806.59,482.7188 769.08,513.6787 741.33,538.2288 " fill="none" id="AuthenticationController-to-PersistenceContext" style="stroke:#181818;stroke-width:1.0;stroke-dasharray:7.0,7.0;"/><polygon fill="#181818" points="737.74,541.4087,747.1298,538.4369,741.4833,538.094,741.8262,532.4476,737.74,541.4087" style="stroke:#181818;stroke-width:1.0;"/><text fill="#000000" font-family="sans-serif" font-size="20" lengthAdjust="spacing" textLength="215" x="844" y="480.0447">getRepositoryFactory()</text></g><!--link AuthenticationUI to AuthenticationController--><g id="link_AuthenticationUI_AuthenticationController"><path codeLine="95" d="M1086,145.8687 C1086,176.5387 1086,217.3187 1086,253.8187 " fill="none" id="AuthenticationUI-to-AuthenticationController" style="stroke:#181818;stroke-width:1.0;stroke-dasharray:7.0,7.0;"/><polygon fill="#181818" points="1086,258.5987,1090,249.5987,1086,253.5987,1082,249.5987,1086,258.5987" style="stroke:#181818;stroke-width:1.0;"/><text fill="#000000" font-family="sans-serif" font-size="20" lengthAdjust="spacing" textLength="232" x="1087" y="197.7147">authenticationController</text></g><!--link PersistenceContext to JpaRepositoryFactory--><g id="link_PersistenceContext_JpaRepositoryFactory"><path codeLine="97" d="M677.54,616.5687 C660.57,646.5088 636,689.8387 615.65,725.7388 " fill="none" id="PersistenceContext-to-JpaRepositoryFactory" style="stroke:#181818;stroke-width:1.0;stroke-dasharray:7.0,7.0;"/><polygon fill="#181818" points="613.42,729.6587,621.3479,723.8151,615.893,725.3131,614.3949,719.8583,613.42,729.6587" style="stroke:#181818;stroke-width:1.0;"/><text fill="#000000" font-family="sans-serif" font-size="20" lengthAdjust="spacing" textLength="123" x="660" y="668.6047">getInstance()</text></g><!--link PersistenceContext to InMemoryRepositoryFactory--><g id="link_PersistenceContext_InMemoryRepositoryFactory"><path codeLine="98" d="M574.35,616.7388 C519.01,634.2288 453.44,656.7388 396,681.2688 C364.08,694.8987 330.41,711.5787 299.72,727.7588 " fill="none" id="PersistenceContext-to-InMemoryRepositoryFactory" style="stroke:#181818;stroke-width:1.0;stroke-dasharray:7.0,7.0;"/><polygon fill="#181818" points="295.36,730.0687,305.1858,729.3958,299.7796,727.7306,301.4448,722.3244,295.36,730.0687" style="stroke:#181818;stroke-width:1.0;"/><text fill="#000000" font-family="sans-serif" font-size="20" lengthAdjust="spacing" textLength="123" x="478" y="668.6047">getInstance()</text></g><!--link PersistenceContext to RepositoryFactory--><g id="link_PersistenceContext_RepositoryFactory"><path codeLine="99" d="M761.27,616.6187 C772.88,625.6687 783.87,636.2788 792,648.2688 C844.27,725.3287 802.95,767.4187 843,851.4887 C863.82,895.1887 896.63,938.7587 923.95,971.1287 " fill="none" id="PersistenceContext-to-RepositoryFactory" style="stroke:#181818;stroke-width:1.0;stroke-dasharray:7.0,7.0;"/><polygon fill="#181818" points="926.95,974.6687,924.1679,965.221,923.7113,970.8594,918.0729,970.4029,926.95,974.6687" style="stroke:#181818;stroke-width:1.0;"/><text fill="#000000" font-family="sans-serif" font-size="20" lengthAdjust="spacing" textLength="215" x="844" y="799.2147">getRepositoryFactory()</text></g><!--link JpaUserRepository to UserRepository--><g id="link_JpaUserRepository_UserRepository"><path codeLine="101" d="M689.49,1061.5788 C746.64,1088.4687 827,1126.2688 899.15,1160.2187 " fill="none" id="JpaUserRepository-to-UserRepository" style="stroke:#181818;stroke-width:1.0;stroke-dasharray:7.0,7.0;"/><polygon fill="none" points="901.79,1153.7187,916.91,1168.5688,895.83,1166.3887,901.79,1153.7187" style="stroke:#181818;stroke-width:1.0;"/></g><!--link InMemoryUserRepository to UserRepository--><g id="link_InMemoryUserRepository_UserRepository"><path codeLine="102" d="M313.89,1061.6387 C340.72,1069.7288 369.28,1078.0188 396,1085.1488 C521.32,1118.5987 660.86,1151.4887 780.33,1178.3388 " fill="none" id="InMemoryUserRepository-to-UserRepository" style="stroke:#181818;stroke-width:1.0;stroke-dasharray:7.0,7.0;"/><polygon fill="none" points="781.78,1171.4887,799.76,1182.6987,778.71,1185.1587,781.78,1171.4887" style="stroke:#181818;stroke-width:1.0;"/></g><!--link JpaRepositoryFactory to RepositoryFactory--><g id="link_JpaRepositoryFactory_RepositoryFactory"><path codeLine="104" d="M695.85,851.9587 C713.79,861.5787 731.99,871.6287 749,881.4887 C793.7,907.3787 842.18,937.9587 882.49,964.1087 " fill="none" id="JpaRepositoryFactory-to-RepositoryFactory" style="stroke:#181818;stroke-width:1.0;stroke-dasharray:7.0,7.0;"/><polygon fill="none" points="886.19,958.1687,899.12,974.9587,878.55,969.8988,886.19,958.1687" style="stroke:#181818;stroke-width:1.0;"/></g><!--link InMemoryRepositoryFactory to RepositoryFactory--><g id="link_InMemoryRepositoryFactory_RepositoryFactory"><path codeLine="105" d="M291.84,851.8988 C337.69,877.9087 384.09,903.2788 396,906.4887 C474.56,927.6187 683.19,894.3187 762,914.4887 C803.5,925.1087 846.03,945.1687 881.87,965.2287 " fill="none" id="InMemoryRepositoryFactory-to-RepositoryFactory" style="stroke:#181818;stroke-width:1.0;stroke-dasharray:7.0,7.0;"/><polygon fill="none" points="885.37,959.1687,899.18,975.2287,878.36,971.2887,885.37,959.1687" style="stroke:#181818;stroke-width:1.0;"/></g><!--link JpaRepositoryFactory to JpaUserRepository--><g id="link_JpaRepositoryFactory_JpaUserRepository"><path codeLine="106" d="M580.78,851.7887 C581.81,869.4587 583.44,888.8087 586,906.4887 C589.65,931.6787 595.96,959.4687 601.56,981.6488 " fill="none" id="JpaRepositoryFactory-to-JpaUserRepository" style="stroke:#181818;stroke-width:1.0;stroke-dasharray:7.0,7.0;"/><polygon fill="#181818" points="602.74,986.2788,604.3772,976.5669,601.4971,981.4357,596.6283,978.5556,602.74,986.2788" style="stroke:#181818;stroke-width:1.0;"/><text fill="#000000" font-family="sans-serif" font-size="20" lengthAdjust="spacing" textLength="157" x="587" y="901.8247">userRepository()</text></g><!--link InMemoryRepositoryFactory to InMemoryUserRepository--><g id="link_InMemoryRepositoryFactory_InMemoryUserRepository"><path codeLine="107" d="M179.89,851.6987 C178.68,861.6187 177.65,871.8287 177,881.4887 C174.73,915.3287 181.33,953.2387 188.04,981.3787 " fill="none" id="InMemoryRepositoryFactory-to-InMemoryUserRepository" style="stroke:#181818;stroke-width:1.0;stroke-dasharray:7.0,7.0;"/><polygon fill="#181818" points="189.2,986.1287,190.9515,976.4369,188.0142,981.2714,183.1797,978.3341,189.2,986.1287" style="stroke:#181818;stroke-width:1.0;"/><text fill="#000000" font-family="sans-serif" font-size="20" lengthAdjust="spacing" textLength="157" x="178" y="901.8247">userRepository()</text></g><!--link RepositoryFactory to UserRepository--><g id="link_RepositoryFactory_UserRepository"><path codeLine="109" d="M993.75,1073.3088 C1005.85,1099.8587 1021.21,1133.5488 1034.96,1163.7288 " fill="none" id="RepositoryFactory-to-UserRepository" style="stroke:#181818;stroke-width:1.0;stroke-dasharray:7.0,7.0;"/><polygon fill="#181818" points="1036.88,1167.9388,1036.7856,1158.0903,1034.8056,1163.3894,1029.5066,1161.4094,1036.88,1167.9388" style="stroke:#181818;stroke-width:1.0;"/><text fill="#000000" font-family="sans-serif" font-size="20" lengthAdjust="spacing" textLength="157" x="1024" y="1135.0447">userRepository()</text></g><!--SRC=[nLNDSjem4BxhAJJfeM6QC9qUFHdF4229Ey5a8BJ7Z30AKM9B7ajEIjiyJwSFq2V8YtLb39Oj6UYfFe2q-dPN- -sFv1FZASb84eleYIxmWjwJF5ONWgif-qxnfuz8KeKbrI0bCim5fmYb97eYIugF1Y8XZ1_XTuFYmpyGml15CP4IJrTIqMGcQORFpePSCRNoVO3Wylk0AIVpc1vt3D62IKl6P2zIx1c47fuB4LF2YzDNqvlsmqb2mTSN4kSKZ-UFD5A-Rs1kuET5P8jTc72VZGUW8CoJUH5M0rRWACyJF85h6h7s1gCWtExwaz7Tg1VsBeUJcgm_lhxkdOydlTjnTJ2z6d-z6modmMLem0UJSJYykntshoeBi-djU5HYIcuOLpIx9n4j-9dGL4W6ULp1rQjD8oltZ2_ELni-Z_DouMqfxc3FIAwbMIQB57_RZ6cb02wZitjMQVk6kYJFQtUcUOSpAxOgb0lmkWwlN3LYosiiw8AgysBNLIzN3rEQFRD8bqMvQbWbWA5Gu15HBhvES5eMdhSjmKuBXTgKoA3tB29ES0P4UaLbMOtmQZJbB30RiXv9UKic-2o0S6P18nBv85xAtgiRxSD80FynpGunNg71IRLfE8l5ad63hwdA65-QRAqbvYo8cLIQ3QbpjwUUrkD5IoqdZf6p0rUd8WNlS0lA8zfbIHft7rFY9kLpIWvfkrgzWSwXvNmABI0LWNiOqIof2agffiYoTKX0Z2Sq0Qmxge2FYjD_3csZ-1_ZSqTqKm5qiT9lgbQduD9oiyVtUpYCoTkljpzKukD89F1o9h3aGkBaxRSI2o4xo7WXJq_zxRneoZSpeoaFNTZgUMeUwS61K2Dh-i30UJWX74YJ29c3hzlrcm-8PyrIr3e3jBffpYl6NBdRhMRNYeSpY_UT9XpPzLfoYgmPkRcwqxfdJlxQ4K8EhzgMixszUbMtwRRtpu46MXHTH21xTdMxFvjLW5fcWGkAdA4NIBkHsaDjKMWnxZjciADoTxdpsmQUmmvo6zYl-1S0]--></g></svg>