<?xml version="1.0" encoding="UTF-8" standalone="no"?><svg xmlns="http://www.w3.org/2000/svg" xmlns:xlink="http://www.w3.org/1999/xlink" contentStyleType="text/css" height="705px" preserveAspectRatio="none" style="width:640px;height:705px;background:#FFFFFF;" version="1.1" viewBox="0 0 640 705" width="640px" zoomAndPan="magnify"><defs/><g><!--class User--><g id="elem_User"><rect codeLine="2" fill="#F1F1F1" height="151.7813" id="User" rx="2.5" ry="2.5" style="stroke:#181818;stroke-width:0.5;" width="267" x="364" y="195"/><ellipse cx="472.5" cy="212.5781" fill="#ADD1B2" rx="12" ry="12" style="stroke:#181818;stroke-width:1.0;"/><path d="M474.6406,207.5 Q474.8281,207.25 475.0469,207.125 Q475.2656,206.9844 475.5156,206.9844 Q475.9531,206.9844 476.2344,207.2969 Q476.5156,207.5938 476.5156,208.3125 L476.5156,210.0156 Q476.5156,210.7344 476.2344,211.0469 Q475.9531,211.3594 475.5156,211.3594 Q475.125,211.3594 474.875,211.125 Q474.625,210.9063 474.5156,210.2969 Q474.4531,209.875 474.2344,209.6563 Q473.8438,209.2188 473.125,208.9531 Q472.4063,208.6875 471.6875,208.6875 Q470.7813,208.6875 470.0313,209.0781 Q469.2813,209.4688 468.7031,210.3594 Q468.125,211.2344 468.125,212.4375 L468.125,213.7344 Q468.125,215.1875 469.1719,216.1563 Q470.2344,217.125 472.0938,217.125 Q473.2031,217.125 473.9844,216.8125 Q474.4219,216.6406 474.9375,216.125 Q475.25,215.8125 475.4219,215.7188 Q475.5938,215.625 475.8281,215.625 Q476.2188,215.625 476.5156,215.9375 Q476.8281,216.2344 476.8281,216.6406 Q476.8281,217.0469 476.4219,217.5156 Q475.8281,218.2031 474.8906,218.5938 Q473.625,219.125 472.1094,219.125 Q470.3281,219.125 468.9063,218.3906 Q467.75,217.7969 466.9375,216.5313 Q466.125,215.2656 466.125,213.7813 L466.125,212.4219 Q466.125,210.8594 466.8438,209.5156 Q467.5781,208.1563 468.8594,207.4219 Q470.1563,206.6875 471.6094,206.6875 Q472.4688,206.6875 473.2188,206.8906 Q473.9844,207.0938 474.6406,207.5 Z " fill="#000000"/><text fill="#000000" font-family="sans-serif" font-size="20" lengthAdjust="spacing" textLength="41" x="494.5" y="220.7617">User</text><line style="stroke:#181818;stroke-width:0.5;" x1="365" x2="630" y1="230.1563" y2="230.1563"/><ellipse cx="375" cy="248.2344" fill="none" rx="3" ry="3" style="stroke:#038048;stroke-width:1.0;"/><text fill="#000000" font-family="sans-serif" font-size="20" lengthAdjust="spacing" textLength="118" x="385" y="254.918">userId: String</text><ellipse cx="375" cy="273.3906" fill="none" rx="3" ry="3" style="stroke:#038048;stroke-width:1.0;"/><text fill="#000000" font-family="sans-serif" font-size="20" lengthAdjust="spacing" textLength="109" x="385" y="280.0742">email: String</text><ellipse cx="375" cy="298.5469" fill="none" rx="3" ry="3" style="stroke:#038048;stroke-width:1.0;"/><text fill="#000000" font-family="sans-serif" font-size="20" lengthAdjust="spacing" textLength="149" x="385" y="305.2305">password: String</text><line style="stroke:#181818;stroke-width:0.5;" x1="365" x2="630" y1="313.625" y2="313.625"/><ellipse cx="375" cy="331.7031" fill="#84BE84" rx="3" ry="3" style="stroke:#038048;stroke-width:1.0;"/><text fill="#000000" font-family="sans-serif" font-size="20" lengthAdjust="spacing" textLength="240" x="385" y="338.3867">getRoles(): List&lt;UserRole&gt;</text></g><!--class AuthenticationToken--><g id="elem_AuthenticationToken"><rect codeLine="9" fill="#F1F1F1" height="101.4688" id="AuthenticationToken" rx="2.5" ry="2.5" style="stroke:#181818;stroke-width:0.5;" width="210" x="417.5" y="434"/><ellipse cx="433.5" cy="451.5781" fill="#ADD1B2" rx="12" ry="12" style="stroke:#181818;stroke-width:1.0;"/><path d="M435.6406,446.5 Q435.8281,446.25 436.0469,446.125 Q436.2656,445.9844 436.5156,445.9844 Q436.9531,445.9844 437.2344,446.2969 Q437.5156,446.5938 437.5156,447.3125 L437.5156,449.0156 Q437.5156,449.7344 437.2344,450.0469 Q436.9531,450.3594 436.5156,450.3594 Q436.125,450.3594 435.875,450.125 Q435.625,449.9063 435.5156,449.2969 Q435.4531,448.875 435.2344,448.6563 Q434.8438,448.2188 434.125,447.9531 Q433.4063,447.6875 432.6875,447.6875 Q431.7813,447.6875 431.0313,448.0781 Q430.2813,448.4688 429.7031,449.3594 Q429.125,450.2344 429.125,451.4375 L429.125,452.7344 Q429.125,454.1875 430.1719,455.1563 Q431.2344,456.125 433.0938,456.125 Q434.2031,456.125 434.9844,455.8125 Q435.4219,455.6406 435.9375,455.125 Q436.25,454.8125 436.4219,454.7188 Q436.5938,454.625 436.8281,454.625 Q437.2188,454.625 437.5156,454.9375 Q437.8281,455.2344 437.8281,455.6406 Q437.8281,456.0469 437.4219,456.5156 Q436.8281,457.2031 435.8906,457.5938 Q434.625,458.125 433.1094,458.125 Q431.3281,458.125 429.9063,457.3906 Q428.75,456.7969 427.9375,455.5313 Q427.125,454.2656 427.125,452.7813 L427.125,451.4219 Q427.125,449.8594 427.8438,448.5156 Q428.5781,447.1563 429.8594,446.4219 Q431.1563,445.6875 432.6094,445.6875 Q433.4688,445.6875 434.2188,445.8906 Q434.9844,446.0938 435.6406,446.5 Z " fill="#000000"/><text fill="#000000" font-family="sans-serif" font-size="20" lengthAdjust="spacing" textLength="176" x="448.5" y="459.7617">AuthenticationToken</text><line style="stroke:#181818;stroke-width:0.5;" x1="418.5" x2="626.5" y1="469.1563" y2="469.1563"/><ellipse cx="428.5" cy="487.2344" fill="none" rx="3" ry="3" style="stroke:#038048;stroke-width:1.0;"/><text fill="#000000" font-family="sans-serif" font-size="20" lengthAdjust="spacing" textLength="111" x="438.5" y="493.918">token: String</text><ellipse cx="428.5" cy="512.3906" fill="none" rx="3" ry="3" style="stroke:#038048;stroke-width:1.0;"/><text fill="#000000" font-family="sans-serif" font-size="20" lengthAdjust="spacing" textLength="148" x="438.5" y="519.0742">expiryDate: Date</text><line style="stroke:#181818;stroke-width:0.5;" x1="418.5" x2="626.5" y1="527.4688" y2="527.4688"/></g><!--class UserRole--><g id="elem_UserRole"><rect codeLine="14" fill="#F1F1F1" height="76.3125" id="UserRole" rx="2.5" ry="2.5" style="stroke:#181818;stroke-width:0.5;" width="174" x="208.5" y="446.5"/><ellipse cx="251.05" cy="464.0781" fill="#ADD1B2" rx="12" ry="12" style="stroke:#181818;stroke-width:1.0;"/><path d="M253.1906,459 Q253.3781,458.75 253.5969,458.625 Q253.8156,458.4844 254.0656,458.4844 Q254.5031,458.4844 254.7844,458.7969 Q255.0656,459.0938 255.0656,459.8125 L255.0656,461.5156 Q255.0656,462.2344 254.7844,462.5469 Q254.5031,462.8594 254.0656,462.8594 Q253.675,462.8594 253.425,462.625 Q253.175,462.4063 253.0656,461.7969 Q253.0031,461.375 252.7844,461.1563 Q252.3938,460.7188 251.675,460.4531 Q250.9563,460.1875 250.2375,460.1875 Q249.3313,460.1875 248.5813,460.5781 Q247.8313,460.9688 247.2531,461.8594 Q246.675,462.7344 246.675,463.9375 L246.675,465.2344 Q246.675,466.6875 247.7219,467.6563 Q248.7844,468.625 250.6438,468.625 Q251.7531,468.625 252.5344,468.3125 Q252.9719,468.1406 253.4875,467.625 Q253.8,467.3125 253.9719,467.2188 Q254.1438,467.125 254.3781,467.125 Q254.7688,467.125 255.0656,467.4375 Q255.3781,467.7344 255.3781,468.1406 Q255.3781,468.5469 254.9719,469.0156 Q254.3781,469.7031 253.4406,470.0938 Q252.175,470.625 250.6594,470.625 Q248.8781,470.625 247.4563,469.8906 Q246.3,469.2969 245.4875,468.0313 Q244.675,466.7656 244.675,465.2813 L244.675,463.9219 Q244.675,462.3594 245.3938,461.0156 Q246.1281,459.6563 247.4094,458.9219 Q248.7063,458.1875 250.1594,458.1875 Q251.0188,458.1875 251.7688,458.3906 Q252.5344,458.5938 253.1906,459 Z " fill="#000000"/><text fill="#000000" font-family="sans-serif" font-size="20" lengthAdjust="spacing" textLength="81" x="271.95" y="472.2617">UserRole</text><line style="stroke:#181818;stroke-width:0.5;" x1="209.5" x2="381.5" y1="481.6563" y2="481.6563"/><ellipse cx="219.5" cy="499.7344" fill="none" rx="3" ry="3" style="stroke:#038048;stroke-width:1.0;"/><text fill="#000000" font-family="sans-serif" font-size="20" lengthAdjust="spacing" textLength="147" x="229.5" y="506.418">roleName: String</text><line style="stroke:#181818;stroke-width:0.5;" x1="209.5" x2="381.5" y1="514.8125" y2="514.8125"/></g><!--class Permission--><g id="elem_Permission"><rect codeLine="18" fill="#F1F1F1" height="76.3125" id="Permission" rx="2.5" ry="2.5" style="stroke:#181818;stroke-width:0.5;" width="235" x="28" y="622"/><ellipse cx="93" cy="639.5781" fill="#ADD1B2" rx="12" ry="12" style="stroke:#181818;stroke-width:1.0;"/><path d="M95.1406,634.5 Q95.3281,634.25 95.5469,634.125 Q95.7656,633.9844 96.0156,633.9844 Q96.4531,633.9844 96.7344,634.2969 Q97.0156,634.5938 97.0156,635.3125 L97.0156,637.0156 Q97.0156,637.7344 96.7344,638.0469 Q96.4531,638.3594 96.0156,638.3594 Q95.625,638.3594 95.375,638.125 Q95.125,637.9063 95.0156,637.2969 Q94.9531,636.875 94.7344,636.6563 Q94.3438,636.2188 93.625,635.9531 Q92.9063,635.6875 92.1875,635.6875 Q91.2813,635.6875 90.5313,636.0781 Q89.7813,636.4688 89.2031,637.3594 Q88.625,638.2344 88.625,639.4375 L88.625,640.7344 Q88.625,642.1875 89.6719,643.1563 Q90.7344,644.125 92.5938,644.125 Q93.7031,644.125 94.4844,643.8125 Q94.9219,643.6406 95.4375,643.125 Q95.75,642.8125 95.9219,642.7188 Q96.0938,642.625 96.3281,642.625 Q96.7188,642.625 97.0156,642.9375 Q97.3281,643.2344 97.3281,643.6406 Q97.3281,644.0469 96.9219,644.5156 Q96.3281,645.2031 95.3906,645.5938 Q94.125,646.125 92.6094,646.125 Q90.8281,646.125 89.4063,645.3906 Q88.25,644.7969 87.4375,643.5313 Q86.625,642.2656 86.625,640.7813 L86.625,639.4219 Q86.625,637.8594 87.3438,636.5156 Q88.0781,635.1563 89.3594,634.4219 Q90.6563,633.6875 92.1094,633.6875 Q92.9688,633.6875 93.7188,633.8906 Q94.4844,634.0938 95.1406,634.5 Z " fill="#000000"/><text fill="#000000" font-family="sans-serif" font-size="20" lengthAdjust="spacing" textLength="96" x="115" y="647.7617">Permission</text><line style="stroke:#181818;stroke-width:0.5;" x1="29" x2="262" y1="657.1563" y2="657.1563"/><ellipse cx="39" cy="675.2344" fill="none" rx="3" ry="3" style="stroke:#038048;stroke-width:1.0;"/><text fill="#000000" font-family="sans-serif" font-size="20" lengthAdjust="spacing" textLength="208" x="49" y="681.918">permissionName: String</text><line style="stroke:#181818;stroke-width:0.5;" x1="29" x2="262" y1="690.3125" y2="690.3125"/></g><!--class Authentication--><g id="elem_Authentication"><rect codeLine="22" fill="#F1F1F1" height="101.4688" id="Authentication" rx="2.5" ry="2.5" style="stroke:#181818;stroke-width:0.5;" width="271" x="362" y="7"/><ellipse cx="432" cy="24.5781" fill="#ADD1B2" rx="12" ry="12" style="stroke:#181818;stroke-width:1.0;"/><path d="M434.1406,19.5 Q434.3281,19.25 434.5469,19.125 Q434.7656,18.9844 435.0156,18.9844 Q435.4531,18.9844 435.7344,19.2969 Q436.0156,19.5938 436.0156,20.3125 L436.0156,22.0156 Q436.0156,22.7344 435.7344,23.0469 Q435.4531,23.3594 435.0156,23.3594 Q434.625,23.3594 434.375,23.125 Q434.125,22.9063 434.0156,22.2969 Q433.9531,21.875 433.7344,21.6563 Q433.3438,21.2188 432.625,20.9531 Q431.9063,20.6875 431.1875,20.6875 Q430.2813,20.6875 429.5313,21.0781 Q428.7813,21.4688 428.2031,22.3594 Q427.625,23.2344 427.625,24.4375 L427.625,25.7344 Q427.625,27.1875 428.6719,28.1563 Q429.7344,29.125 431.5938,29.125 Q432.7031,29.125 433.4844,28.8125 Q433.9219,28.6406 434.4375,28.125 Q434.75,27.8125 434.9219,27.7188 Q435.0938,27.625 435.3281,27.625 Q435.7188,27.625 436.0156,27.9375 Q436.3281,28.2344 436.3281,28.6406 Q436.3281,29.0469 435.9219,29.5156 Q435.3281,30.2031 434.3906,30.5938 Q433.125,31.125 431.6094,31.125 Q429.8281,31.125 428.4063,30.3906 Q427.25,29.7969 426.4375,28.5313 Q425.625,27.2656 425.625,25.7813 L425.625,24.4219 Q425.625,22.8594 426.3438,21.5156 Q427.0781,20.1563 428.3594,19.4219 Q429.6563,18.6875 431.1094,18.6875 Q431.9688,18.6875 432.7188,18.8906 Q433.4844,19.0938 434.1406,19.5 Z " fill="#000000"/><text fill="#000000" font-family="sans-serif" font-size="20" lengthAdjust="spacing" textLength="122" x="454" y="32.7617">Authentication</text><line style="stroke:#181818;stroke-width:0.5;" x1="363" x2="632" y1="42.1563" y2="42.1563"/><ellipse cx="373" cy="60.2344" fill="none" rx="3" ry="3" style="stroke:#038048;stroke-width:1.0;"/><text fill="#000000" font-family="sans-serif" font-size="20" lengthAdjust="spacing" textLength="91" x="383" y="66.918">user: User</text><line style="stroke:#181818;stroke-width:0.5;" x1="363" x2="632" y1="75.3125" y2="75.3125"/><ellipse cx="373" cy="93.3906" fill="#84BE84" rx="3" ry="3" style="stroke:#038048;stroke-width:1.0;"/><text fill="#000000" font-family="sans-serif" font-size="20" lengthAdjust="spacing" textLength="244" x="383" y="100.0742">authenticateUser(): Boolean</text></g><!--class Authorization--><g id="elem_Authorization"><rect codeLine="27" fill="#F1F1F1" height="151.7813" id="Authorization" rx="2.5" ry="2.5" style="stroke:#181818;stroke-width:0.5;" width="271" x="7" y="195"/><ellipse cx="82" cy="212.5781" fill="#ADD1B2" rx="12" ry="12" style="stroke:#181818;stroke-width:1.0;"/><path d="M84.1406,207.5 Q84.3281,207.25 84.5469,207.125 Q84.7656,206.9844 85.0156,206.9844 Q85.4531,206.9844 85.7344,207.2969 Q86.0156,207.5938 86.0156,208.3125 L86.0156,210.0156 Q86.0156,210.7344 85.7344,211.0469 Q85.4531,211.3594 85.0156,211.3594 Q84.625,211.3594 84.375,211.125 Q84.125,210.9063 84.0156,210.2969 Q83.9531,209.875 83.7344,209.6563 Q83.3438,209.2188 82.625,208.9531 Q81.9063,208.6875 81.1875,208.6875 Q80.2813,208.6875 79.5313,209.0781 Q78.7813,209.4688 78.2031,210.3594 Q77.625,211.2344 77.625,212.4375 L77.625,213.7344 Q77.625,215.1875 78.6719,216.1563 Q79.7344,217.125 81.5938,217.125 Q82.7031,217.125 83.4844,216.8125 Q83.9219,216.6406 84.4375,216.125 Q84.75,215.8125 84.9219,215.7188 Q85.0938,215.625 85.3281,215.625 Q85.7188,215.625 86.0156,215.9375 Q86.3281,216.2344 86.3281,216.6406 Q86.3281,217.0469 85.9219,217.5156 Q85.3281,218.2031 84.3906,218.5938 Q83.125,219.125 81.6094,219.125 Q79.8281,219.125 78.4063,218.3906 Q77.25,217.7969 76.4375,216.5313 Q75.625,215.2656 75.625,213.7813 L75.625,212.4219 Q75.625,210.8594 76.3438,209.5156 Q77.0781,208.1563 78.3594,207.4219 Q79.6563,206.6875 81.1094,206.6875 Q81.9688,206.6875 82.7188,206.8906 Q83.4844,207.0938 84.1406,207.5 Z " fill="#000000"/><text fill="#000000" font-family="sans-serif" font-size="20" lengthAdjust="spacing" textLength="112" x="104" y="220.7617">Authorization</text><line style="stroke:#181818;stroke-width:0.5;" x1="8" x2="277" y1="230.1563" y2="230.1563"/><ellipse cx="18" cy="248.2344" fill="none" rx="3" ry="3" style="stroke:#038048;stroke-width:1.0;"/><text fill="#000000" font-family="sans-serif" font-size="20" lengthAdjust="spacing" textLength="91" x="28" y="254.918">user: User</text><ellipse cx="18" cy="273.3906" fill="none" rx="3" ry="3" style="stroke:#038048;stroke-width:1.0;"/><text fill="#000000" font-family="sans-serif" font-size="20" lengthAdjust="spacing" textLength="126" x="28" y="280.0742">role: UserRole</text><ellipse cx="18" cy="298.5469" fill="none" rx="3" ry="3" style="stroke:#038048;stroke-width:1.0;"/><text fill="#000000" font-family="sans-serif" font-size="20" lengthAdjust="spacing" textLength="202" x="28" y="305.2305">permission: Permission</text><line style="stroke:#181818;stroke-width:0.5;" x1="8" x2="277" y1="313.625" y2="313.625"/><ellipse cx="18" cy="331.7031" fill="#84BE84" rx="3" ry="3" style="stroke:#038048;stroke-width:1.0;"/><text fill="#000000" font-family="sans-serif" font-size="20" lengthAdjust="spacing" textLength="244" x="28" y="338.3867">checkPermission(): Boolean</text></g><!--link User to UserRole--><g id="link_User_UserRole"><path codeLine="35" d="M425.71,347.16 C395.13,379.19 360.63,415.31 334.83,442.32 " fill="none" id="User-to-UserRole" style="stroke:#181818;stroke-width:1.0;"/><polygon fill="#181818" points="331.09,446.24,340.1938,442.4823,334.5386,442.6197,334.4013,436.9645,331.09,446.24" style="stroke:#181818;stroke-width:1.0;"/><text fill="#000000" font-family="sans-serif" font-size="20" lengthAdjust="spacing" textLength="31" x="397.5" y="398.7617">has</text><text fill="#000000" font-family="sans-serif" font-size="20" lengthAdjust="spacing" textLength="11" x="324.6975" y="434.2171">1</text></g><!--link User to AuthenticationToken--><g id="link_User_AuthenticationToken"><path codeLine="36" d="M506.38,347.16 C509.56,373.99 513.07,403.69 516,428.5 " fill="none" id="User-to-AuthenticationToken" style="stroke:#181818;stroke-width:1.0;"/><polygon fill="#181818" points="516.62,433.72,519.5395,424.3138,516.035,428.7543,511.5944,425.2498,516.62,433.72" style="stroke:#181818;stroke-width:1.0;"/><text fill="#000000" font-family="sans-serif" font-size="20" lengthAdjust="spacing" textLength="88" x="513.5" y="398.7617">generates</text><text fill="#000000" font-family="sans-serif" font-size="20" lengthAdjust="spacing" textLength="31" x="483.0143" y="421.7504">0..*</text></g><!--link UserRole to Permission--><g id="link_UserRole_Permission"><path codeLine="37" d="M263.32,522.72 C239.1,550.74 205.92,589.12 180.94,618.01 " fill="none" id="UserRole-to-Permission" style="stroke:#181818;stroke-width:1.0;"/><polygon fill="#181818" points="177.63,621.84,186.5411,617.6457,180.8992,618.0568,180.4881,612.415,177.63,621.84" style="stroke:#181818;stroke-width:1.0;"/><text fill="#000000" font-family="sans-serif" font-size="20" lengthAdjust="spacing" textLength="55" x="225.5" y="586.7617">grants</text><text fill="#000000" font-family="sans-serif" font-size="20" lengthAdjust="spacing" textLength="31" x="149.2804" y="609.5153">0..*</text></g><!--link Authentication to User--><g id="link_Authentication_User"><path codeLine="38" d="M497.5,108.09 C497.5,132.34 497.5,162.14 497.5,189.54 " fill="none" id="Authentication-to-User" style="stroke:#181818;stroke-width:1.0;"/><polygon fill="#181818" points="497.5,194.63,501.5,185.63,497.5,189.63,493.5,185.63,497.5,194.63" style="stroke:#181818;stroke-width:1.0;"/><text fill="#000000" font-family="sans-serif" font-size="20" lengthAdjust="spacing" textLength="116" x="498.5" y="159.7617">authenticates</text><text fill="#000000" font-family="sans-serif" font-size="20" lengthAdjust="spacing" textLength="11" x="486.0102" y="182.4934">1</text></g><!--link Authorization to Permission--><g id="link_Authorization_Permission"><path codeLine="39" d="M136.64,347.13 C133.34,399.74 130.44,471.68 133.5,535 C134.82,562.33 137.76,592.93 140.41,616.89 " fill="none" id="Authorization-to-Permission" style="stroke:#181818;stroke-width:1.0;"/><polygon fill="#181818" points="140.97,621.9,143.9694,612.519,140.4272,616.9295,136.0167,613.3874,140.97,621.9" style="stroke:#181818;stroke-width:1.0;"/><text fill="#000000" font-family="sans-serif" font-size="20" lengthAdjust="spacing" textLength="55" x="134.5" y="492.7617">grants</text><text fill="#000000" font-family="sans-serif" font-size="20" lengthAdjust="spacing" textLength="11" x="128.3715" y="609.5849">1</text></g><!--link Authorization to UserRole--><g id="link_Authorization_UserRole"><path codeLine="40" d="M196.87,347.16 C219.95,379.06 245.96,415.01 265.47,441.99 " fill="none" id="Authorization-to-UserRole" style="stroke:#181818;stroke-width:1.0;"/><polygon fill="#181818" points="268.55,446.24,266.4874,436.6096,265.6074,442.1976,260.0194,441.3176,268.55,446.24" style="stroke:#181818;stroke-width:1.0;"/><text fill="#000000" font-family="sans-serif" font-size="20" lengthAdjust="spacing" textLength="61" x="237.5" y="398.7617">checks</text><text fill="#000000" font-family="sans-serif" font-size="20" lengthAdjust="spacing" textLength="11" x="252.5811" y="434.2171">1</text></g><!--SRC=[VL7RIiGm47tFLmnzySOkguz15XGH117PrGyOsh4DJPEIfAWh_hj9IzgqhkOX99DpcJcnjL0j6coapcigeA0txAIxryhjnO7WQiDOBj5QUBLau8k1NnUTFpyK7FRE25KEDMfGo7cfzRntRHR0ajnEIxAdPnmUXNNNGJbKjkmxcjrqhYBbH8vEQFMYQrBHsuNBmlgZ5URp3Xrn2Fka4wKZsVZp4pOqyaVaCvb6MElT8hOTAySPynxJQ7ZlEznnGb6eXgbljMy3rLnA6t7uLodqpiU9bZtoP8BXBQyehwVYmlW4TYHxFrk9rhB-UrUhBMINsHGRXmhJjyrwVPuT_HqE9IaoVie1tzCJJfAlXnfKph95Wgcx1wN93TWfeWZzI_KtCXcf3yQo7m00]--></g></svg>