<?xml version="1.0" encoding="UTF-8" standalone="no"?><svg xmlns="http://www.w3.org/2000/svg" xmlns:xlink="http://www.w3.org/1999/xlink" contentStyleType="text/css" height="514px" preserveAspectRatio="none" style="width:567px;height:514px;background:#FFFFFF;" version="1.1" viewBox="0 0 567 514" width="567px" zoomAndPan="magnify"><defs/><g><!--cluster Authentication--><g id="cluster_Authentication"><path d="M8.5,6.8945 L146.5,6.8945 A3.75,3.75 0 0 1 149,9.3945 L156,38.0508 L265.5,38.0508 A2.5,2.5 0 0 1 268,40.5508 L268,505.3945 A2.5,2.5 0 0 1 265.5,507.8945 L8.5,507.8945 A2.5,2.5 0 0 1 6,505.3945 L6,9.3945 A2.5,2.5 0 0 1 8.5,6.8945 " fill="none" style="stroke:#000000;stroke-width:1.5;"/><line style="stroke:#000000;stroke-width:1.5;" x1="6" x2="156" y1="38.0508" y2="38.0508"/><text fill="#000000" font-family="sans-serif" font-size="20" font-weight="bold" lengthAdjust="spacing" textLength="137" x="10" y="29.6563">Authentication</text><text fill="#000000" font-family="sans-serif" font-size="20" font-style="italic" lengthAdjust="spacing" textLength="111" x="85.5" y="60.8125">«aggregate»</text></g><!--cluster Authorization--><g id="cluster_Authorization"><path d="M294.5,44.3945 L421.5,44.3945 A3.75,3.75 0 0 1 424,46.8945 L431,75.5508 L557.5,75.5508 A2.5,2.5 0 0 1 560,78.0508 L560,492.3945 A2.5,2.5 0 0 1 557.5,494.8945 L294.5,494.8945 A2.5,2.5 0 0 1 292,492.3945 L292,46.8945 A2.5,2.5 0 0 1 294.5,44.3945 " fill="none" style="stroke:#000000;stroke-width:1.5;"/><line style="stroke:#000000;stroke-width:1.5;" x1="292" x2="431" y1="75.5508" y2="75.5508"/><text fill="#000000" font-family="sans-serif" font-size="20" font-weight="bold" lengthAdjust="spacing" textLength="126" x="296" y="67.1563">Authorization</text><text fill="#000000" font-family="sans-serif" font-size="20" font-style="italic" lengthAdjust="spacing" textLength="111" x="374.5" y="98.3125">«aggregate»</text></g><!--class User--><g id="elem_User"><rect codeLine="4" fill="#F1F1F1" height="202.0938" id="User" rx="2.5" ry="2.5" style="stroke:#181818;stroke-width:0.5;" width="230" x="22" y="75.8945"/><ellipse cx="99" cy="118.6289" fill="#ADD1B2" rx="12" ry="12" style="stroke:#181818;stroke-width:1.0;"/><path d="M101.1406,113.5508 Q101.3281,113.3008 101.5469,113.1758 Q101.7656,113.0352 102.0156,113.0352 Q102.4531,113.0352 102.7344,113.3477 Q103.0156,113.6445 103.0156,114.3633 L103.0156,116.0664 Q103.0156,116.7852 102.7344,117.0977 Q102.4531,117.4102 102.0156,117.4102 Q101.625,117.4102 101.375,117.1758 Q101.125,116.957 101.0156,116.3477 Q100.9531,115.9258 100.7344,115.707 Q100.3438,115.2695 99.625,115.0039 Q98.9063,114.7383 98.1875,114.7383 Q97.2813,114.7383 96.5313,115.1289 Q95.7813,115.5195 95.2031,116.4102 Q94.625,117.2852 94.625,118.4883 L94.625,119.7852 Q94.625,121.2383 95.6719,122.207 Q96.7344,123.1758 98.5938,123.1758 Q99.7031,123.1758 100.4844,122.8633 Q100.9219,122.6914 101.4375,122.1758 Q101.75,121.8633 101.9219,121.7695 Q102.0938,121.6758 102.3281,121.6758 Q102.7188,121.6758 103.0156,121.9883 Q103.3281,122.2852 103.3281,122.6914 Q103.3281,123.0977 102.9219,123.5664 Q102.3281,124.2539 101.3906,124.6445 Q100.125,125.1758 98.6094,125.1758 Q96.8281,125.1758 95.4063,124.4414 Q94.25,123.8477 93.4375,122.582 Q92.625,121.3164 92.625,119.832 L92.625,118.4727 Q92.625,116.9102 93.3438,115.5664 Q94.0781,114.207 95.3594,113.4727 Q96.6563,112.7383 98.1094,112.7383 Q98.9688,112.7383 99.7188,112.9414 Q100.4844,113.1445 101.1406,113.5508 Z " fill="#000000"/><text fill="#000000" font-family="sans-serif" font-size="20" font-style="italic" lengthAdjust="spacing" textLength="71" x="119" y="101.6563">«Entity»</text><text fill="#000000" font-family="sans-serif" font-size="20" font-style="italic" lengthAdjust="spacing" textLength="56" x="126.5" y="126.8125">«root»</text><text fill="#000000" font-family="sans-serif" font-size="20" lengthAdjust="spacing" textLength="41" x="134" y="151.9688">User</text><line style="stroke:#181818;stroke-width:0.5;" x1="23" x2="251" y1="161.3633" y2="161.3633"/><ellipse cx="33" cy="179.4414" fill="none" rx="3" ry="3" style="stroke:#038048;stroke-width:1.0;"/><text fill="#000000" font-family="sans-serif" font-size="20" lengthAdjust="spacing" textLength="118" x="43" y="186.125">userId: String</text><ellipse cx="33" cy="204.5977" fill="none" rx="3" ry="3" style="stroke:#038048;stroke-width:1.0;"/><text fill="#000000" font-family="sans-serif" font-size="20" lengthAdjust="spacing" textLength="109" x="43" y="211.2813">email: String</text><ellipse cx="33" cy="229.7539" fill="none" rx="3" ry="3" style="stroke:#038048;stroke-width:1.0;"/><text fill="#000000" font-family="sans-serif" font-size="20" lengthAdjust="spacing" textLength="149" x="43" y="236.4375">password: String</text><line style="stroke:#181818;stroke-width:0.5;" x1="23" x2="251" y1="244.832" y2="244.832"/><ellipse cx="33" cy="262.9102" fill="#84BE84" rx="3" ry="3" style="stroke:#038048;stroke-width:1.0;"/><text fill="#000000" font-family="sans-serif" font-size="20" lengthAdjust="spacing" textLength="203" x="43" y="269.5938">authenticate(): Boolean</text></g><!--class AuthenticationToken--><g id="elem_AuthenticationToken"><rect codeLine="11" fill="#F1F1F1" height="126.625" id="AuthenticationToken" rx="2.5" ry="2.5" style="stroke:#181818;stroke-width:0.5;" width="210" x="32" y="364.8945"/><ellipse cx="48" cy="395.0508" fill="#ADD1B2" rx="12" ry="12" style="stroke:#181818;stroke-width:1.0;"/><path d="M50.1406,389.9727 Q50.3281,389.7227 50.5469,389.5977 Q50.7656,389.457 51.0156,389.457 Q51.4531,389.457 51.7344,389.7695 Q52.0156,390.0664 52.0156,390.7852 L52.0156,392.4883 Q52.0156,393.207 51.7344,393.5195 Q51.4531,393.832 51.0156,393.832 Q50.625,393.832 50.375,393.5977 Q50.125,393.3789 50.0156,392.7695 Q49.9531,392.3477 49.7344,392.1289 Q49.3438,391.6914 48.625,391.4258 Q47.9063,391.1602 47.1875,391.1602 Q46.2813,391.1602 45.5313,391.5508 Q44.7813,391.9414 44.2031,392.832 Q43.625,393.707 43.625,394.9102 L43.625,396.207 Q43.625,397.6602 44.6719,398.6289 Q45.7344,399.5977 47.5938,399.5977 Q48.7031,399.5977 49.4844,399.2852 Q49.9219,399.1133 50.4375,398.5977 Q50.75,398.2852 50.9219,398.1914 Q51.0938,398.0977 51.3281,398.0977 Q51.7188,398.0977 52.0156,398.4102 Q52.3281,398.707 52.3281,399.1133 Q52.3281,399.5195 51.9219,399.9883 Q51.3281,400.6758 50.3906,401.0664 Q49.125,401.5977 47.6094,401.5977 Q45.8281,401.5977 44.4063,400.8633 Q43.25,400.2695 42.4375,399.0039 Q41.625,397.7383 41.625,396.2539 L41.625,394.8945 Q41.625,393.332 42.3438,391.9883 Q43.0781,390.6289 44.3594,389.8945 Q45.6563,389.1602 47.1094,389.1602 Q47.9688,389.1602 48.7188,389.3633 Q49.4844,389.5664 50.1406,389.9727 Z " fill="#000000"/><text fill="#000000" font-family="sans-serif" font-size="20" font-style="italic" lengthAdjust="spacing" textLength="136" x="83" y="390.6563">«Value Object»</text><text fill="#000000" font-family="sans-serif" font-size="20" lengthAdjust="spacing" textLength="176" x="63" y="415.8125">AuthenticationToken</text><line style="stroke:#181818;stroke-width:0.5;" x1="33" x2="241" y1="425.207" y2="425.207"/><ellipse cx="43" cy="443.2852" fill="none" rx="3" ry="3" style="stroke:#038048;stroke-width:1.0;"/><text fill="#000000" font-family="sans-serif" font-size="20" lengthAdjust="spacing" textLength="111" x="53" y="449.9688">token: String</text><ellipse cx="43" cy="468.4414" fill="none" rx="3" ry="3" style="stroke:#038048;stroke-width:1.0;"/><text fill="#000000" font-family="sans-serif" font-size="20" lengthAdjust="spacing" textLength="148" x="53" y="475.125">expiryDate: Date</text><line style="stroke:#181818;stroke-width:0.5;" x1="33" x2="241" y1="483.5195" y2="483.5195"/></g><!--class UserRole--><g id="elem_UserRole"><rect codeLine="22" fill="#F1F1F1" height="126.625" id="UserRole" rx="2.5" ry="2.5" style="stroke:#181818;stroke-width:0.5;" width="174" x="339" y="113.3945"/><ellipse cx="381.55" cy="156.1289" fill="#ADD1B2" rx="12" ry="12" style="stroke:#181818;stroke-width:1.0;"/><path d="M383.6906,151.0508 Q383.8781,150.8008 384.0969,150.6758 Q384.3156,150.5352 384.5656,150.5352 Q385.0031,150.5352 385.2844,150.8477 Q385.5656,151.1445 385.5656,151.8633 L385.5656,153.5664 Q385.5656,154.2852 385.2844,154.5977 Q385.0031,154.9102 384.5656,154.9102 Q384.175,154.9102 383.925,154.6758 Q383.675,154.457 383.5656,153.8477 Q383.5031,153.4258 383.2844,153.207 Q382.8938,152.7695 382.175,152.5039 Q381.4563,152.2383 380.7375,152.2383 Q379.8313,152.2383 379.0813,152.6289 Q378.3313,153.0195 377.7531,153.9102 Q377.175,154.7852 377.175,155.9883 L377.175,157.2852 Q377.175,158.7383 378.2219,159.707 Q379.2844,160.6758 381.1438,160.6758 Q382.2531,160.6758 383.0344,160.3633 Q383.4719,160.1914 383.9875,159.6758 Q384.3,159.3633 384.4719,159.2695 Q384.6438,159.1758 384.8781,159.1758 Q385.2688,159.1758 385.5656,159.4883 Q385.8781,159.7852 385.8781,160.1914 Q385.8781,160.5977 385.4719,161.0664 Q384.8781,161.7539 383.9406,162.1445 Q382.675,162.6758 381.1594,162.6758 Q379.3781,162.6758 377.9563,161.9414 Q376.8,161.3477 375.9875,160.082 Q375.175,158.8164 375.175,157.332 L375.175,155.9727 Q375.175,154.4102 375.8938,153.0664 Q376.6281,151.707 377.9094,150.9727 Q379.2063,150.2383 380.6594,150.2383 Q381.5188,150.2383 382.2688,150.4414 Q383.0344,150.6445 383.6906,151.0508 Z " fill="#000000"/><text fill="#000000" font-family="sans-serif" font-size="20" font-style="italic" lengthAdjust="spacing" textLength="71" x="407.45" y="139.1563">«Entity»</text><text fill="#000000" font-family="sans-serif" font-size="20" font-style="italic" lengthAdjust="spacing" textLength="56" x="414.95" y="164.3125">«root»</text><text fill="#000000" font-family="sans-serif" font-size="20" lengthAdjust="spacing" textLength="81" x="402.45" y="189.4688">UserRole</text><line style="stroke:#181818;stroke-width:0.5;" x1="340" x2="512" y1="198.8633" y2="198.8633"/><ellipse cx="350" cy="216.9414" fill="none" rx="3" ry="3" style="stroke:#038048;stroke-width:1.0;"/><text fill="#000000" font-family="sans-serif" font-size="20" lengthAdjust="spacing" textLength="147" x="360" y="223.625">roleName: String</text><line style="stroke:#181818;stroke-width:0.5;" x1="340" x2="512" y1="232.0195" y2="232.0195"/></g><!--class Permission--><g id="elem_Permission"><rect codeLine="26" fill="#F1F1F1" height="101.4688" id="Permission" rx="2.5" ry="2.5" style="stroke:#181818;stroke-width:0.5;" width="235" x="308.5" y="377.8945"/><ellipse cx="355.55" cy="408.0508" fill="#ADD1B2" rx="12" ry="12" style="stroke:#181818;stroke-width:1.0;"/><path d="M357.6906,402.9727 Q357.8781,402.7227 358.0969,402.5977 Q358.3156,402.457 358.5656,402.457 Q359.0031,402.457 359.2844,402.7695 Q359.5656,403.0664 359.5656,403.7852 L359.5656,405.4883 Q359.5656,406.207 359.2844,406.5195 Q359.0031,406.832 358.5656,406.832 Q358.175,406.832 357.925,406.5977 Q357.675,406.3789 357.5656,405.7695 Q357.5031,405.3477 357.2844,405.1289 Q356.8938,404.6914 356.175,404.4258 Q355.4563,404.1602 354.7375,404.1602 Q353.8313,404.1602 353.0813,404.5508 Q352.3313,404.9414 351.7531,405.832 Q351.175,406.707 351.175,407.9102 L351.175,409.207 Q351.175,410.6602 352.2219,411.6289 Q353.2844,412.5977 355.1438,412.5977 Q356.2531,412.5977 357.0344,412.2852 Q357.4719,412.1133 357.9875,411.5977 Q358.3,411.2852 358.4719,411.1914 Q358.6438,411.0977 358.8781,411.0977 Q359.2688,411.0977 359.5656,411.4102 Q359.8781,411.707 359.8781,412.1133 Q359.8781,412.5195 359.4719,412.9883 Q358.8781,413.6758 357.9406,414.0664 Q356.675,414.5977 355.1594,414.5977 Q353.3781,414.5977 351.9563,413.8633 Q350.8,413.2695 349.9875,412.0039 Q349.175,410.7383 349.175,409.2539 L349.175,407.8945 Q349.175,406.332 349.8938,404.9883 Q350.6281,403.6289 351.9094,402.8945 Q353.2063,402.1602 354.6594,402.1602 Q355.5188,402.1602 356.2688,402.3633 Q357.0344,402.5664 357.6906,402.9727 Z " fill="#000000"/><text fill="#000000" font-family="sans-serif" font-size="20" font-style="italic" lengthAdjust="spacing" textLength="136" x="375.45" y="403.6563">«Value Object»</text><text fill="#000000" font-family="sans-serif" font-size="20" lengthAdjust="spacing" textLength="96" x="395.45" y="428.8125">Permission</text><line style="stroke:#181818;stroke-width:0.5;" x1="309.5" x2="542.5" y1="438.207" y2="438.207"/><ellipse cx="319.5" cy="456.2852" fill="none" rx="3" ry="3" style="stroke:#038048;stroke-width:1.0;"/><text fill="#000000" font-family="sans-serif" font-size="20" lengthAdjust="spacing" textLength="208" x="329.5" y="462.9688">permissionName: String</text><line style="stroke:#181818;stroke-width:0.5;" x1="309.5" x2="542.5" y1="471.3633" y2="471.3633"/></g><!--link User to AuthenticationToken--><g id="link_User_AuthenticationToken"><path codeLine="17" d="M137,277.9345 C137,305.2745 137,334.2645 137,359.3645 " fill="none" id="User-to-AuthenticationToken" style="stroke:#181818;stroke-width:1.0;"/><polygon fill="#181818" points="137,364.6545,141,355.6545,137,359.6545,133,355.6545,137,364.6545" style="stroke:#181818;stroke-width:1.0;"/><text fill="#000000" font-family="sans-serif" font-size="20" lengthAdjust="spacing" textLength="88" x="138" y="329.6563">generates</text><text fill="#000000" font-family="sans-serif" font-size="20" lengthAdjust="spacing" textLength="31" x="104.4016" y="352.5814">0..*</text></g><!--link UserRole to Permission--><g id="link_UserRole_Permission"><path codeLine="31" d="M426,240.5345 C426,281.1445 426,333.5545 426,372.5245 " fill="none" id="UserRole-to-Permission" style="stroke:#181818;stroke-width:1.0;"/><polygon fill="#181818" points="426,377.6945,430,368.6945,426,372.6945,422,368.6945,426,377.6945" style="stroke:#181818;stroke-width:1.0;"/><text fill="#000000" font-family="sans-serif" font-size="20" lengthAdjust="spacing" textLength="55" x="427" y="329.6563">grants</text><text fill="#000000" font-family="sans-serif" font-size="20" lengthAdjust="spacing" textLength="31" x="393.0141" y="365.3387">0..*</text></g><!--SRC=[ZP5DJiCm48NtESKec_AZLXNBAAe40YGsW2Ym7v8Xc3XsP4y4BUfXE0GRjhqOaxIGj8GVBop5Vddl-HkVArEYmqBR9ASKKhh7IlEfDJnLSuA3SH2KcEIO4OI75J-GOPKWAsj2Y6FCCaSPCaqcy18482lHw3tSU79oVo9gdibb73jhkL71UkrNeZbB8vYoKoPhpwb0fRyVb-BxP5tF3zZseftT28wirOIc4IowhJOVS6rpCjBi5dL5S77tICbMGwuLFGMVI-Lcnv8MGRrtWmQhfvSs9SZ8eGFR6rkW1z848bw-0ZjaJAryrSD8iH3vohPn6mud48v7exsmrokI92DPJ3vORCtBEZN_txYk1DfV8tEYEPTs6qms45-IAvJt4lWhsV9BzfFTe2tLm6JXK2pVDQjIWc1ji7oJDtzoQiGTLfqkWiYXuPhF1m00]--></g></svg>