<svg xmlns="http://www.w3.org/2000/svg" xmlns:xlink="http://www.w3.org/1999/xlink" contentStyleType="text/css" height="737px" preserveAspectRatio="none" style="width:967px;height:737px;background:#FFFFFF;" version="1.1" viewBox="0 0 967 737" width="967px" zoomAndPan="magnify"><defs/><g><rect fill="none" height="161.0859" style="stroke:#000000;stroke-width:1.5;" width="632.4751" x="10" y="476.1133"/><line style="stroke:#181818;stroke-width:0.5;stroke-dasharray:5.0,5.0;" x1="79" x2="79" y1="83.6211" y2="654.1992"/><line style="stroke:#181818;stroke-width:0.5;stroke-dasharray:5.0,5.0;" x1="377.314" x2="377.314" y1="83.6211" y2="654.1992"/><line style="stroke:#181818;stroke-width:0.5;stroke-dasharray:5.0,5.0;" x1="550.8345" x2="550.8345" y1="83.6211" y2="654.1992"/><line style="stroke:#181818;stroke-width:0.5;stroke-dasharray:5.0,5.0;" x1="745.0947" x2="745.0947" y1="83.6211" y2="654.1992"/><line style="stroke:#181818;stroke-width:0.5;stroke-dasharray:5.0,5.0;" x1="900.2871" x2="900.2871" y1="83.6211" y2="654.1992"/><text fill="#000000" font-family="sans-serif" font-size="14" lengthAdjust="spacing" textLength="112.0342" x="20" y="80.1074">CRM Collaborator</text><ellipse cx="79.0171" cy="13.5" fill="#E2E2F0" rx="8" ry="8" style="stroke:#181818;stroke-width:0.5;"/><path d="M79.0171,21.5 L79.0171,48.5 M66.0171,29.5 L92.0171,29.5 M79.0171,48.5 L66.0171,63.5 M79.0171,48.5 L92.0171,63.5 " fill="none" style="stroke:#181818;stroke-width:0.5;"/><text fill="#000000" font-family="sans-serif" font-size="14" lengthAdjust="spacing" textLength="112.0342" x="20" y="668.3066">CRM Collaborator</text><ellipse cx="79.0171" cy="680.3203" fill="#E2E2F0" rx="8" ry="8" style="stroke:#181818;stroke-width:0.5;"/><path d="M79.0171,688.3203 L79.0171,715.3203 M66.0171,696.3203 L92.0171,696.3203 M79.0171,715.3203 L66.0171,730.3203 M79.0171,715.3203 L92.0171,730.3203 " fill="none" style="stroke:#181818;stroke-width:0.5;"/><rect fill="#E2E2F0" height="32.6211" rx="2.5" ry="2.5" style="stroke:#181818;stroke-width:0.5;" width="115.9512" x="320.314" y="50"/><text fill="#000000" font-family="sans-serif" font-size="14" lengthAdjust="spacing" textLength="101.9512" x="327.314" y="72.1074">SendProposalUI</text><rect fill="#E2E2F0" height="32.6211" rx="2.5" ry="2.5" style="stroke:#181818;stroke-width:0.5;" width="115.9512" x="320.314" y="653.1992"/><text fill="#000000" font-family="sans-serif" font-size="14" lengthAdjust="spacing" textLength="101.9512" x="327.314" y="675.3066">SendProposalUI</text><rect fill="#E2E2F0" height="32.6211" rx="2.5" ry="2.5" style="stroke:#181818;stroke-width:0.5;" width="162.6406" x="469.8345" y="50"/><text fill="#000000" font-family="sans-serif" font-size="14" lengthAdjust="spacing" textLength="148.6406" x="476.8345" y="72.1074">SendProposalController</text><rect fill="#E2E2F0" height="32.6211" rx="2.5" ry="2.5" style="stroke:#181818;stroke-width:0.5;" width="162.6406" x="469.8345" y="653.1992"/><text fill="#000000" font-family="sans-serif" font-size="14" lengthAdjust="spacing" textLength="148.6406" x="476.8345" y="675.3066">SendProposalController</text><rect fill="#E2E2F0" height="32.6211" rx="2.5" ry="2.5" style="stroke:#181818;stroke-width:0.5;" width="171.1924" x="660.0947" y="50"/><text fill="#000000" font-family="sans-serif" font-size="14" lengthAdjust="spacing" textLength="157.1924" x="667.0947" y="72.1074">ShowProposalRepository</text><rect fill="#E2E2F0" height="32.6211" rx="2.5" ry="2.5" style="stroke:#181818;stroke-width:0.5;" width="171.1924" x="660.0947" y="653.1992"/><text fill="#000000" font-family="sans-serif" font-size="14" lengthAdjust="spacing" textLength="157.1924" x="667.0947" y="675.3066">ShowProposalRepository</text><rect fill="#E2E2F0" height="32.6211" rx="2.5" ry="2.5" style="stroke:#181818;stroke-width:0.5;" width="119.8203" x="841.2871" y="50"/><text fill="#000000" font-family="sans-serif" font-size="14" lengthAdjust="spacing" textLength="105.8203" x="848.2871" y="72.1074">ProposalDelivery</text><rect fill="#E2E2F0" height="32.6211" rx="2.5" ry="2.5" style="stroke:#181818;stroke-width:0.5;" width="119.8203" x="841.2871" y="653.1992"/><text fill="#000000" font-family="sans-serif" font-size="14" lengthAdjust="spacing" textLength="105.8203" x="848.2871" y="675.3066">ProposalDelivery</text><polygon fill="#181818" points="366.2896,112.9121,376.2896,116.9121,366.2896,120.9121,370.2896,116.9121" style="stroke:#181818;stroke-width:1.0;"/><line style="stroke:#181818;stroke-width:1.0;" x1="79.0171" x2="372.2896" y1="116.9121" y2="116.9121"/><text fill="#000000" font-family="sans-serif" font-size="13" lengthAdjust="spacing" textLength="143.0952" x="86.0171" y="111.6494">request to send proposal</text><polygon fill="#181818" points="539.1548,144.2031,549.1548,148.2031,539.1548,152.2031,543.1548,148.2031" style="stroke:#181818;stroke-width:1.0;"/><line style="stroke:#181818;stroke-width:1.0;" x1="378.2896" x2="545.1548" y1="148.2031" y2="148.2031"/><text fill="#000000" font-family="sans-serif" font-size="13" lengthAdjust="spacing" textLength="143.0889" x="385.2896" y="142.9404">fetch available proposals</text><polygon fill="#181818" points="733.6909,175.4941,743.6909,179.4941,733.6909,183.4941,737.6909,179.4941" style="stroke:#181818;stroke-width:1.0;"/><line style="stroke:#181818;stroke-width:1.0;" x1="551.1548" x2="739.6909" y1="179.4941" y2="179.4941"/><text fill="#000000" font-family="sans-serif" font-size="13" lengthAdjust="spacing" textLength="170.5361" x="558.1548" y="174.2314">findProposalsReadyToSend()</text><polygon fill="#181818" points="562.1548,206.7852,552.1548,210.7852,562.1548,214.7852,558.1548,210.7852" style="stroke:#181818;stroke-width:1.0;"/><line style="stroke:#181818;stroke-width:1.0;stroke-dasharray:2.0,2.0;" x1="556.1548" x2="744.6909" y1="210.7852" y2="210.7852"/><text fill="#000000" font-family="sans-serif" font-size="13" lengthAdjust="spacing" textLength="90.3208" x="568.1548" y="205.5225">list of proposals</text><polygon fill="#181818" points="389.2896,238.0762,379.2896,242.0762,389.2896,246.0762,385.2896,242.0762" style="stroke:#181818;stroke-width:1.0;"/><line style="stroke:#181818;stroke-width:1.0;stroke-dasharray:2.0,2.0;" x1="383.2896" x2="550.1548" y1="242.0762" y2="242.0762"/><text fill="#000000" font-family="sans-serif" font-size="13" lengthAdjust="spacing" textLength="56.3672" x="395.2896" y="236.8135">proposals</text><polygon fill="#181818" points="90.0171,269.3672,80.0171,273.3672,90.0171,277.3672,86.0171,273.3672" style="stroke:#181818;stroke-width:1.0;"/><line style="stroke:#181818;stroke-width:1.0;" x1="84.0171" x2="377.2896" y1="273.3672" y2="273.3672"/><text fill="#000000" font-family="sans-serif" font-size="13" lengthAdjust="spacing" textLength="90.3271" x="96.0171" y="268.1045">show proposals</text><polygon fill="#181818" points="366.2896,300.6582,376.2896,304.6582,366.2896,308.6582,370.2896,304.6582" style="stroke:#181818;stroke-width:1.0;"/><line style="stroke:#181818;stroke-width:1.0;" x1="79.0171" x2="372.2896" y1="304.6582" y2="304.6582"/><text fill="#000000" font-family="sans-serif" font-size="13" lengthAdjust="spacing" textLength="87.439" x="86.0171" y="299.3955">select proposal</text><polygon fill="#181818" points="539.1548,331.9492,549.1548,335.9492,539.1548,339.9492,543.1548,335.9492" style="stroke:#181818;stroke-width:1.0;"/><line style="stroke:#181818;stroke-width:1.0;" x1="378.2896" x2="545.1548" y1="335.9492" y2="335.9492"/><text fill="#000000" font-family="sans-serif" font-size="13" lengthAdjust="spacing" textLength="148.8652" x="385.2896" y="330.6865">sendProposal(proposalId)</text><polygon fill="#181818" points="733.6909,363.2402,743.6909,367.2402,733.6909,371.2402,737.6909,367.2402" style="stroke:#181818;stroke-width:1.0;"/><line style="stroke:#181818;stroke-width:1.0;" x1="551.1548" x2="739.6909" y1="367.2402" y2="367.2402"/><text fill="#000000" font-family="sans-serif" font-size="13" lengthAdjust="spacing" textLength="167.6479" x="558.1548" y="361.9775">findProposalById(proposalId)</text><polygon fill="#181818" points="562.1548,394.5313,552.1548,398.5313,562.1548,402.5313,558.1548,398.5313" style="stroke:#181818;stroke-width:1.0;"/><line style="stroke:#181818;stroke-width:1.0;stroke-dasharray:2.0,2.0;" x1="556.1548" x2="744.6909" y1="398.5313" y2="398.5313"/><text fill="#000000" font-family="sans-serif" font-size="13" lengthAdjust="spacing" textLength="49.8672" x="568.1548" y="393.2686">proposal</text><polygon fill="#181818" points="889.1973,425.8223,899.1973,429.8223,889.1973,433.8223,893.1973,429.8223" style="stroke:#181818;stroke-width:1.0;"/><line style="stroke:#181818;stroke-width:1.0;" x1="551.1548" x2="895.1973" y1="429.8223" y2="429.8223"/><text fill="#000000" font-family="sans-serif" font-size="13" lengthAdjust="spacing" textLength="138.0234" x="558.1548" y="424.5596">sendProposal(proposal)</text><polygon fill="#181818" points="562.1548,457.1133,552.1548,461.1133,562.1548,465.1133,558.1548,461.1133" style="stroke:#181818;stroke-width:1.0;"/><line style="stroke:#181818;stroke-width:1.0;stroke-dasharray:2.0,2.0;" x1="556.1548" x2="900.1973" y1="461.1133" y2="461.1133"/><text fill="#000000" font-family="sans-serif" font-size="13" lengthAdjust="spacing" textLength="119.2153" x="568.1548" y="455.8506">delivery confirmation</text><path d="M10,476.1133 L70.1709,476.1133 L70.1709,485.4043 L60.1709,495.4043 L10,495.4043 L10,476.1133 " fill="#EEEEEE" style="stroke:#000000;stroke-width:1.5;"/><rect fill="none" height="161.0859" style="stroke:#000000;stroke-width:1.5;" width="632.4751" x="10" y="476.1133"/><text fill="#000000" font-family="sans-serif" font-size="13" font-weight="bold" lengthAdjust="spacing" textLength="15.1709" x="25" y="491.1416">alt</text><text fill="#000000" font-family="sans-serif" font-size="11" font-weight="bold" lengthAdjust="spacing" textLength="92.2969" x="85.1709" y="489.9834">[Proposal is sent]</text><polygon fill="#181818" points="389.2896,514.6953,379.2896,518.6953,389.2896,522.6953,385.2896,518.6953" style="stroke:#181818;stroke-width:1.0;"/><line style="stroke:#181818;stroke-width:1.0;stroke-dasharray:2.0,2.0;" x1="383.2896" x2="550.1548" y1="518.6953" y2="518.6953"/><text fill="#000000" font-family="sans-serif" font-size="13" lengthAdjust="spacing" textLength="22.4009" x="395.2896" y="513.4326">true</text><polygon fill="#181818" points="90.0171,545.9863,80.0171,549.9863,90.0171,553.9863,86.0171,549.9863" style="stroke:#181818;stroke-width:1.0;"/><line style="stroke:#181818;stroke-width:1.0;stroke-dasharray:2.0,2.0;" x1="84.0171" x2="377.2896" y1="549.9863" y2="549.9863"/><text fill="#000000" font-family="sans-serif" font-size="13" lengthAdjust="spacing" textLength="137.2808" x="96.0171" y="544.7236">show success message</text><line style="stroke:#000000;stroke-width:1.0;stroke-dasharray:2.0,2.0;" x1="10" x2="642.4751" y1="558.9863" y2="558.9863"/><text fill="#000000" font-family="sans-serif" font-size="11" font-weight="bold" lengthAdjust="spacing" textLength="112.4546" x="15" y="570.8564">[Proposal is not sent]</text><polygon fill="#181818" points="389.2896,593.9082,379.2896,597.9082,389.2896,601.9082,385.2896,597.9082" style="stroke:#181818;stroke-width:1.0;"/><line style="stroke:#181818;stroke-width:1.0;stroke-dasharray:2.0,2.0;" x1="383.2896" x2="550.1548" y1="597.9082" y2="597.9082"/><text fill="#000000" font-family="sans-serif" font-size="13" lengthAdjust="spacing" textLength="27.46" x="395.2896" y="592.6455">false</text><polygon fill="#181818" points="90.0171,625.1992,80.0171,629.1992,90.0171,633.1992,86.0171,629.1992" style="stroke:#181818;stroke-width:1.0;"/><line style="stroke:#181818;stroke-width:1.0;stroke-dasharray:2.0,2.0;" x1="84.0171" x2="377.2896" y1="629.1992" y2="629.1992"/><text fill="#000000" font-family="sans-serif" font-size="13" lengthAdjust="spacing" textLength="275.2725" x="96.0171" y="623.9365">show error (missing document/video/simulation)</text><!--SRC=[XPF1ReCm38RlUGghftAeUkzXXtKN3fEcRds0B35jf81P73hrxUVGfXHMDWuWuyy__-y8RI85M6nthx0bx_Kd1Irl5g0Pzen1jJf4ProhcmYBTspiMw2MMFjzUO7AUMHBJGoYYXUzePoC7EaxZ-nG7auSdFkHL8xX3BwWToUyOhbGAdc6rPFOWWq4_EgG8qG25blGNcULT8KP_0XROJH7q2VjP0aURoohEqo6agE4ko4cxr3RymUbwCj2zSHggk-T6A5gHZSx7hfNZtsU3R2iwAuvIideqSGXtADqV7SgoqoMjlW_tFEvjAE9n_66hqyayz7CcIZKZVWbQdF7K5EvKEleg57QHyWou3Z9HWLoFLfe31tspRIKoJwvCmQPePQRFg12ppXIRYZ-hLx9OSpAOmZoQorhn-oQ0rWoNIrYwvEpI6jsTUVxG8MIlVm0]--></g></svg>