<?xml version="1.0" encoding="UTF-8" standalone="no"?><svg xmlns="http://www.w3.org/2000/svg" xmlns:xlink="http://www.w3.org/1999/xlink" contentStyleType="text/css" height="1600px" preserveAspectRatio="none" style="width:4666px;height:1600px;background:#FFFFFF;" version="1.1" viewBox="0 0 4666 1600" width="4666px" zoomAndPan="magnify"><defs/><g><!--cluster UI--><g id="cluster_UI"><path d="M8.5,1081.7188 L31.5,1081.7188 A3.75,3.75 0 0 1 34,1084.2188 L41,1111.2734 L436.5,1111.2734 A2.5,2.5 0 0 1 439,1113.7734 L439,1281.2188 A2.5,2.5 0 0 1 436.5,1283.7188 L8.5,1283.7188 A2.5,2.5 0 0 1 6,1281.2188 L6,1084.2188 A2.5,2.5 0 0 1 8.5,1081.7188 " fill="#DDDDDD" style="stroke:#000000;stroke-width:1.5;"/><line style="stroke:#000000;stroke-width:1.5;" x1="6" x2="41" y1="1111.2734" y2="1111.2734"/><text fill="#000000" font-family="sans-serif" font-size="20" font-weight="bold" lengthAdjust="spacing" textLength="22" x="10" y="1103.0547">UI</text></g><!--cluster Controller--><g id="cluster_Controller"><path d="M474.5,1081.7188 L580.5,1081.7188 A3.75,3.75 0 0 1 583,1084.2188 L590,1111.2734 L1031.5,1111.2734 A2.5,2.5 0 0 1 1034,1113.7734 L1034,1281.2188 A2.5,2.5 0 0 1 1031.5,1283.7188 L474.5,1283.7188 A2.5,2.5 0 0 1 472,1281.2188 L472,1084.2188 A2.5,2.5 0 0 1 474.5,1081.7188 " fill="#DDDDDD" style="stroke:#000000;stroke-width:1.5;"/><line style="stroke:#000000;stroke-width:1.5;" x1="472" x2="590" y1="1111.2734" y2="1111.2734"/><text fill="#000000" font-family="sans-serif" font-size="20" font-weight="bold" lengthAdjust="spacing" textLength="105" x="476" y="1103.0547">Controller</text></g><!--cluster persistence.impl.jpa--><g id="cluster_persistence.impl.jpa"><path d="M1781.5,355.7188 L1989.5,355.7188 A3.75,3.75 0 0 1 1992,358.2188 L1999,385.2734 L2802,385.2734 A2.5,2.5 0 0 1 2804.5,387.7734 L2804.5,631.2188 A2.5,2.5 0 0 1 2802,633.7188 L1781.5,633.7188 A2.5,2.5 0 0 1 1779,631.2188 L1779,358.2188 A2.5,2.5 0 0 1 1781.5,355.7188 " fill="#DDDDDD" style="stroke:#000000;stroke-width:1.5;"/><line style="stroke:#000000;stroke-width:1.5;" x1="1779" x2="1999" y1="385.2734" y2="385.2734"/><text fill="#000000" font-family="sans-serif" font-size="20" font-weight="bold" lengthAdjust="spacing" textLength="207" x="1783" y="377.0547">persistence.impl.jpa</text></g><!--cluster persistence.impl.inmemory--><g id="cluster_persistence.impl.inmemory"><path d="M1781.5,6.7188 L2061.5,6.7188 A3.75,3.75 0 0 1 2064,9.2188 L2071,36.2734 L2834.5,36.2734 A2.5,2.5 0 0 1 2837,38.7734 L2837,282.2188 A2.5,2.5 0 0 1 2834.5,284.7188 L1781.5,284.7188 A2.5,2.5 0 0 1 1779,282.2188 L1779,9.2188 A2.5,2.5 0 0 1 1781.5,6.7188 " fill="#DDDDDD" style="stroke:#000000;stroke-width:1.5;"/><line style="stroke:#000000;stroke-width:1.5;" x1="1779" x2="2071" y1="36.2734" y2="36.2734"/><text fill="#000000" font-family="sans-serif" font-size="20" font-weight="bold" lengthAdjust="spacing" textLength="279" x="1783" y="28.0547">persistence.impl.inmemory</text></g><!--cluster persistence--><g id="cluster_persistence"><path d="M1285.5,697.7188 L1405.5,697.7188 A3.75,3.75 0 0 1 1408,700.2188 L1415,727.2734 L1743.5,727.2734 A2.5,2.5 0 0 1 1746,729.7734 L1746,827.2188 A2.5,2.5 0 0 1 1743.5,829.7188 L1285.5,829.7188 A2.5,2.5 0 0 1 1283,827.2188 L1283,700.2188 A2.5,2.5 0 0 1 1285.5,697.7188 " fill="#DDDDDD" style="stroke:#000000;stroke-width:1.5;"/><line style="stroke:#000000;stroke-width:1.5;" x1="1283" x2="1415" y1="727.2734" y2="727.2734"/><text fill="#000000" font-family="sans-serif" font-size="20" font-weight="bold" lengthAdjust="spacing" textLength="119" x="1287" y="719.0547">persistence</text></g><!--cluster Domain--><g id="cluster_Domain"><path d="M2872.5,385.7188 L2953.5,385.7188 A3.75,3.75 0 0 1 2956,388.2188 L2963,415.2734 L4656.5,415.2734 A2.5,2.5 0 0 1 4659,417.7734 L4659,1591.2188 A2.5,2.5 0 0 1 4656.5,1593.7188 L2872.5,1593.7188 A2.5,2.5 0 0 1 2870,1591.2188 L2870,388.2188 A2.5,2.5 0 0 1 2872.5,385.7188 " fill="#DDDDDD" style="stroke:#000000;stroke-width:1.5;"/><line style="stroke:#000000;stroke-width:1.5;" x1="2870" x2="2963" y1="415.2734" y2="415.2734"/><text fill="#000000" font-family="sans-serif" font-size="20" font-weight="bold" lengthAdjust="spacing" textLength="80" x="2874" y="407.0547">Domain</text></g><!--cluster Repository --><g id="cluster_Repository "><path d="M2896.5,444.7188 L3016.5,444.7188 A3.75,3.75 0 0 1 3019,447.2188 L3026,474.2734 L3973.5,474.2734 A2.5,2.5 0 0 1 3976,476.7734 L3976,815.2188 A2.5,2.5 0 0 1 3973.5,817.7188 L2896.5,817.7188 A2.5,2.5 0 0 1 2894,815.2188 L2894,447.2188 A2.5,2.5 0 0 1 2896.5,444.7188 " fill="#DDDDDD" style="stroke:#000000;stroke-width:1.5;"/><line style="stroke:#000000;stroke-width:1.5;" x1="2894" x2="3026" y1="474.2734" y2="474.2734"/><text fill="#000000" font-family="sans-serif" font-size="20" font-weight="bold" lengthAdjust="spacing" textLength="112" x="2898" y="466.0547">Repository</text></g><!--class EditShowRequestUI--><g id="elem_EditShowRequestUI"><rect codeLine="5" fill="#F1F1F1" height="143.7734" id="EditShowRequestUI" rx="2.5" ry="2.5" style="stroke:#181818;stroke-width:0.5;" width="401" x="22" y="1123.8288"/><ellipse cx="126" cy="1152.3834" fill="#ADD1B2" rx="12" ry="12" style="stroke:#181818;stroke-width:1.0;"/><path d="M128.8066,1159.4635 Q128.123,1159.8151 127.3711,1159.9909 Q126.6191,1160.1666 125.7891,1160.1666 Q122.8398,1160.1666 121.2871,1158.2233 Q119.7344,1156.2799 119.7344,1152.608 Q119.7344,1148.9264 121.2871,1146.983 Q122.8398,1145.0397 125.7891,1145.0397 Q126.6191,1145.0397 127.3809,1145.2155 Q128.1426,1145.3913 128.8066,1145.7428 L128.8066,1148.9459 Q128.0645,1148.2623 127.3662,1147.945 Q126.668,1147.6276 125.9258,1147.6276 Q124.3438,1147.6276 123.5381,1148.8825 Q122.7324,1150.1373 122.7324,1152.608 Q122.7324,1155.069 123.5381,1156.3239 Q124.3438,1157.5788 125.9258,1157.5788 Q126.668,1157.5788 127.3662,1157.2614 Q128.0645,1156.944 128.8066,1156.2604 Z " fill="#000000"/><text fill="#000000" font-family="sans-serif" font-size="20" font-style="italic" lengthAdjust="spacing" textLength="40" x="220" y="1148.1647">«UI»</text><text fill="#000000" font-family="sans-serif" font-size="20" lengthAdjust="spacing" textLength="184" x="148" y="1171.7194">EditShowRequestUI</text><line style="stroke:#181818;stroke-width:0.5;" x1="23" x2="422" y1="1180.9381" y2="1180.9381"/><line style="stroke:#181818;stroke-width:0.5;" x1="23" x2="422" y1="1188.9381" y2="1188.9381"/><ellipse cx="33" cy="1206.2155" fill="#84BE84" rx="3" ry="3" style="stroke:#038048;stroke-width:1.0;"/><text fill="#000000" font-family="sans-serif" font-size="20" lengthAdjust="spacing" textLength="304" x="43" y="1212.2741">editShowRequest(showRequest)</text><ellipse cx="33" cy="1229.7702" fill="#84BE84" rx="3" ry="3" style="stroke:#038048;stroke-width:1.0;"/><text fill="#000000" font-family="sans-serif" font-size="20" lengthAdjust="spacing" textLength="261" x="43" y="1235.8288">showCustomersAndSelect()</text><ellipse cx="33" cy="1253.3248" fill="#84BE84" rx="3" ry="3" style="stroke:#038048;stroke-width:1.0;"/><text fill="#000000" font-family="sans-serif" font-size="20" lengthAdjust="spacing" textLength="374" x="43" y="1259.3834">showShowRequestAndSelect(customer)</text></g><!--class EditShowRequestController--><g id="elem_EditShowRequestController"><rect codeLine="13" fill="#F1F1F1" height="143.7734" id="EditShowRequestController" rx="2.5" ry="2.5" style="stroke:#181818;stroke-width:0.5;" width="530" x="488" y="1123.8288"/><ellipse cx="618.5" cy="1152.3834" fill="#ADD1B2" rx="12" ry="12" style="stroke:#181818;stroke-width:1.0;"/><path d="M621.3066,1159.4635 Q620.623,1159.8151 619.8711,1159.9909 Q619.1191,1160.1666 618.2891,1160.1666 Q615.3398,1160.1666 613.7871,1158.2233 Q612.2344,1156.2799 612.2344,1152.608 Q612.2344,1148.9264 613.7871,1146.983 Q615.3398,1145.0397 618.2891,1145.0397 Q619.1191,1145.0397 619.8809,1145.2155 Q620.6426,1145.3913 621.3066,1145.7428 L621.3066,1148.9459 Q620.5645,1148.2623 619.8662,1147.945 Q619.168,1147.6276 618.4258,1147.6276 Q616.8438,1147.6276 616.0381,1148.8825 Q615.2324,1150.1373 615.2324,1152.608 Q615.2324,1155.069 616.0381,1156.3239 Q616.8438,1157.5788 618.4258,1157.5788 Q619.168,1157.5788 619.8662,1157.2614 Q620.5645,1156.944 621.3066,1156.2604 Z " fill="#000000"/><text fill="#000000" font-family="sans-serif" font-size="20" font-style="italic" lengthAdjust="spacing" textLength="116" x="712.5" y="1148.1647">«Controller»</text><text fill="#000000" font-family="sans-serif" font-size="20" lengthAdjust="spacing" textLength="260" x="640.5" y="1171.7194">EditShowRequestController</text><line style="stroke:#181818;stroke-width:0.5;" x1="489" x2="1017" y1="1180.9381" y2="1180.9381"/><line style="stroke:#181818;stroke-width:0.5;" x1="489" x2="1017" y1="1188.9381" y2="1188.9381"/><ellipse cx="499" cy="1206.2155" fill="#84BE84" rx="3" ry="3" style="stroke:#038048;stroke-width:1.0;"/><text fill="#000000" font-family="sans-serif" font-size="20" lengthAdjust="spacing" textLength="304" x="509" y="1212.2741">editShowRequest(showRequest)</text><ellipse cx="499" cy="1229.7702" fill="#84BE84" rx="3" ry="3" style="stroke:#038048;stroke-width:1.0;"/><text fill="#000000" font-family="sans-serif" font-size="20" lengthAdjust="spacing" textLength="356" x="509" y="1235.8288">listCustomers(): Iterable&lt;Customer&gt;</text><ellipse cx="499" cy="1253.3248" fill="#84BE84" rx="3" ry="3" style="stroke:#038048;stroke-width:1.0;"/><text fill="#000000" font-family="sans-serif" font-size="20" lengthAdjust="spacing" textLength="503" x="509" y="1259.3834">listShowRequest(customer): Iterable&lt;ShowRequest&gt;</text></g><!--class JpaRepositoryFactory--><g id="elem_JpaRepositoryFactory"><rect codeLine="21" fill="#F1F1F1" height="97.1094" id="JpaRepositoryFactory" rx="2.5" ry="2.5" style="stroke:#181818;stroke-width:0.5;" width="333" x="1795" y="520.1688"/><ellipse cx="1856.5" cy="537.1688" fill="#ADD1B2" rx="12" ry="12" style="stroke:#181818;stroke-width:1.0;"/><path d="M1859.3066,544.2488 Q1858.623,544.6004 1857.8711,544.7762 Q1857.1191,544.952 1856.2891,544.952 Q1853.3398,544.952 1851.7871,543.0086 Q1850.2344,541.0652 1850.2344,537.3934 Q1850.2344,533.7117 1851.7871,531.7684 Q1853.3398,529.825 1856.2891,529.825 Q1857.1191,529.825 1857.8809,530.0008 Q1858.6426,530.1766 1859.3066,530.5281 L1859.3066,533.7313 Q1858.5645,533.0477 1857.8662,532.7303 Q1857.168,532.4129 1856.4258,532.4129 Q1854.8438,532.4129 1854.0381,533.6678 Q1853.2324,534.9227 1853.2324,537.3934 Q1853.2324,539.8543 1854.0381,541.1092 Q1854.8438,542.3641 1856.4258,542.3641 Q1857.168,542.3641 1857.8662,542.0467 Q1858.5645,541.7293 1859.3066,541.0457 Z " fill="#000000"/><text fill="#000000" font-family="sans-serif" font-size="20" lengthAdjust="spacing" textLength="201" x="1878.5" y="544.7273">JpaRepositoryFactory</text><line style="stroke:#181818;stroke-width:0.5;" x1="1796" x2="2127" y1="554.1688" y2="554.1688"/><line style="stroke:#181818;stroke-width:0.5;" x1="1796" x2="2127" y1="562.1688" y2="562.1688"/><rect fill="#F24D5C" height="6" style="stroke:#C82930;stroke-width:1.0;" width="6" x="1803" y="576.4461"/><text fill="#000000" font-family="sans-serif" font-size="20" lengthAdjust="spacing" textLength="215" x="1816" y="585.5047">JpaRepositoryFactory()</text><ellipse cx="1806" cy="603.0008" fill="#84BE84" rx="3" ry="3" style="stroke:#038048;stroke-width:1.0;"/><text fill="#000000" font-family="sans-serif" font-size="20" lengthAdjust="spacing" textLength="306" x="1816" y="609.0594">getInstance(): RepositoryFactory</text></g><!--class JpaShowRequestRepository--><g id="elem_JpaShowRequestRepository"><rect codeLine="26" fill="#F1F1F1" height="50" id="JpaShowRequestRepository" rx="2.5" ry="2.5" style="stroke:#181818;stroke-width:0.5;" width="293" x="2495.5" y="567.7188"/><ellipse cx="2511.5" cy="584.7188" fill="#ADD1B2" rx="12" ry="12" style="stroke:#181818;stroke-width:1.0;"/><path d="M2514.3066,591.7988 Q2513.623,592.1504 2512.8711,592.3262 Q2512.1191,592.502 2511.2891,592.502 Q2508.3398,592.502 2506.7871,590.5586 Q2505.2344,588.6152 2505.2344,584.9434 Q2505.2344,581.2617 2506.7871,579.3184 Q2508.3398,577.375 2511.2891,577.375 Q2512.1191,577.375 2512.8809,577.5508 Q2513.6426,577.7266 2514.3066,578.0781 L2514.3066,581.2813 Q2513.5645,580.5977 2512.8662,580.2803 Q2512.168,579.9629 2511.4258,579.9629 Q2509.8438,579.9629 2509.0381,581.2178 Q2508.2324,582.4727 2508.2324,584.9434 Q2508.2324,587.4043 2509.0381,588.6592 Q2509.8438,589.9141 2511.4258,589.9141 Q2512.168,589.9141 2512.8662,589.5967 Q2513.5645,589.2793 2514.3066,588.5957 Z " fill="#000000"/><text fill="#000000" font-family="sans-serif" font-size="20" lengthAdjust="spacing" textLength="259" x="2526.5" y="592.2773">JpaShowRequestRepository</text><line style="stroke:#181818;stroke-width:0.5;" x1="2496.5" x2="2787.5" y1="601.7188" y2="601.7188"/><line style="stroke:#181818;stroke-width:0.5;" x1="2496.5" x2="2787.5" y1="609.7188" y2="609.7188"/></g><!--class JpaCustomersRepository--><g id="elem_JpaCustomersRepository"><rect codeLine="29" fill="#F1F1F1" height="50" id="JpaCustomersRepository" rx="2.5" ry="2.5" style="stroke:#181818;stroke-width:0.5;" width="269" x="2507.5" y="482.7188"/><ellipse cx="2523.5" cy="499.7188" fill="#ADD1B2" rx="12" ry="12" style="stroke:#181818;stroke-width:1.0;"/><path d="M2526.3066,506.7988 Q2525.623,507.1504 2524.8711,507.3262 Q2524.1191,507.502 2523.2891,507.502 Q2520.3398,507.502 2518.7871,505.5586 Q2517.2344,503.6152 2517.2344,499.9434 Q2517.2344,496.2617 2518.7871,494.3184 Q2520.3398,492.375 2523.2891,492.375 Q2524.1191,492.375 2524.8809,492.5508 Q2525.6426,492.7266 2526.3066,493.0781 L2526.3066,496.2813 Q2525.5645,495.5977 2524.8662,495.2803 Q2524.168,494.9629 2523.4258,494.9629 Q2521.8438,494.9629 2521.0381,496.2178 Q2520.2324,497.4727 2520.2324,499.9434 Q2520.2324,502.4043 2521.0381,503.6592 Q2521.8438,504.9141 2523.4258,504.9141 Q2524.168,504.9141 2524.8662,504.5967 Q2525.5645,504.2793 2526.3066,503.5957 Z " fill="#000000"/><text fill="#000000" font-family="sans-serif" font-size="20" lengthAdjust="spacing" textLength="235" x="2538.5" y="507.2773">JpaCustomersRepository</text><line style="stroke:#181818;stroke-width:0.5;" x1="2508.5" x2="2775.5" y1="516.7188" y2="516.7188"/><line style="stroke:#181818;stroke-width:0.5;" x1="2508.5" x2="2775.5" y1="524.7188" y2="524.7188"/></g><!--class JpaUsersRepository--><g id="elem_JpaUsersRepository"><rect codeLine="32" fill="#F1F1F1" height="50" id="JpaUsersRepository" rx="2.5" ry="2.5" style="stroke:#181818;stroke-width:0.5;" width="219" x="2532.5" y="397.7188"/><ellipse cx="2548.5" cy="414.7188" fill="#ADD1B2" rx="12" ry="12" style="stroke:#181818;stroke-width:1.0;"/><path d="M2551.3066,421.7988 Q2550.623,422.1504 2549.8711,422.3262 Q2549.1191,422.502 2548.2891,422.502 Q2545.3398,422.502 2543.7871,420.5586 Q2542.2344,418.6152 2542.2344,414.9434 Q2542.2344,411.2617 2543.7871,409.3184 Q2545.3398,407.375 2548.2891,407.375 Q2549.1191,407.375 2549.8809,407.5508 Q2550.6426,407.7266 2551.3066,408.0781 L2551.3066,411.2813 Q2550.5645,410.5977 2549.8662,410.2803 Q2549.168,409.9629 2548.4258,409.9629 Q2546.8438,409.9629 2546.0381,411.2178 Q2545.2324,412.4727 2545.2324,414.9434 Q2545.2324,417.4043 2546.0381,418.6592 Q2546.8438,419.9141 2548.4258,419.9141 Q2549.168,419.9141 2549.8662,419.5967 Q2550.5645,419.2793 2551.3066,418.5957 Z " fill="#000000"/><text fill="#000000" font-family="sans-serif" font-size="20" lengthAdjust="spacing" textLength="185" x="2563.5" y="422.2773">JpaUsersRepository</text><line style="stroke:#181818;stroke-width:0.5;" x1="2533.5" x2="2750.5" y1="431.7188" y2="431.7188"/><line style="stroke:#181818;stroke-width:0.5;" x1="2533.5" x2="2750.5" y1="439.7188" y2="439.7188"/></g><!--class InMemoryRepositoryFactory--><g id="elem_InMemoryRepositoryFactory"><rect codeLine="37" fill="#F1F1F1" height="97.1094" id="InMemoryRepositoryFactory" rx="2.5" ry="2.5" style="stroke:#181818;stroke-width:0.5;" width="333" x="1795" y="171.1688"/><ellipse cx="1825.85" cy="188.1688" fill="#ADD1B2" rx="12" ry="12" style="stroke:#181818;stroke-width:1.0;"/><path d="M1828.6566,195.2488 Q1827.973,195.6004 1827.2211,195.7762 Q1826.4691,195.952 1825.6391,195.952 Q1822.6898,195.952 1821.1371,194.0086 Q1819.5844,192.0652 1819.5844,188.3934 Q1819.5844,184.7117 1821.1371,182.7684 Q1822.6898,180.825 1825.6391,180.825 Q1826.4691,180.825 1827.2309,181.0008 Q1827.9926,181.1766 1828.6566,181.5281 L1828.6566,184.7313 Q1827.9145,184.0477 1827.2162,183.7303 Q1826.518,183.4129 1825.7758,183.4129 Q1824.1938,183.4129 1823.3881,184.6678 Q1822.5824,185.9227 1822.5824,188.3934 Q1822.5824,190.8543 1823.3881,192.1092 Q1824.1938,193.3641 1825.7758,193.3641 Q1826.518,193.3641 1827.2162,193.0467 Q1827.9145,192.7293 1828.6566,192.0457 Z " fill="#000000"/><text fill="#000000" font-family="sans-serif" font-size="20" lengthAdjust="spacing" textLength="266" x="1844.15" y="195.7273">InMemoryRepositoryFactory</text><line style="stroke:#181818;stroke-width:0.5;" x1="1796" x2="2127" y1="205.1688" y2="205.1688"/><line style="stroke:#181818;stroke-width:0.5;" x1="1796" x2="2127" y1="213.1688" y2="213.1688"/><rect fill="#F24D5C" height="6" style="stroke:#C82930;stroke-width:1.0;" width="6" x="1803" y="227.4461"/><text fill="#000000" font-family="sans-serif" font-size="20" lengthAdjust="spacing" textLength="280" x="1816" y="236.5047">InMemoryRepositoryFactory()</text><ellipse cx="1806" cy="254.0008" fill="#84BE84" rx="3" ry="3" style="stroke:#038048;stroke-width:1.0;"/><text fill="#000000" font-family="sans-serif" font-size="20" lengthAdjust="spacing" textLength="306" x="1816" y="260.0594">getInstance(): RepositoryFactory</text></g><!--class InMemoryShowRequestRepository--><g id="elem_InMemoryShowRequestRepository"><rect codeLine="42" fill="#F1F1F1" height="50" id="InMemoryShowRequestRepository" rx="2.5" ry="2.5" style="stroke:#181818;stroke-width:0.5;" width="358" x="2463" y="218.7188"/><ellipse cx="2479" cy="235.7188" fill="#ADD1B2" rx="12" ry="12" style="stroke:#181818;stroke-width:1.0;"/><path d="M2481.8066,242.7988 Q2481.123,243.1504 2480.3711,243.3262 Q2479.6191,243.502 2478.7891,243.502 Q2475.8398,243.502 2474.2871,241.5586 Q2472.7344,239.6152 2472.7344,235.9434 Q2472.7344,232.2617 2474.2871,230.3184 Q2475.8398,228.375 2478.7891,228.375 Q2479.6191,228.375 2480.3809,228.5508 Q2481.1426,228.7266 2481.8066,229.0781 L2481.8066,232.2813 Q2481.0645,231.5977 2480.3662,231.2803 Q2479.668,230.9629 2478.9258,230.9629 Q2477.3438,230.9629 2476.5381,232.2178 Q2475.7324,233.4727 2475.7324,235.9434 Q2475.7324,238.4043 2476.5381,239.6592 Q2477.3438,240.9141 2478.9258,240.9141 Q2479.668,240.9141 2480.3662,240.5967 Q2481.0645,240.2793 2481.8066,239.5957 Z " fill="#000000"/><text fill="#000000" font-family="sans-serif" font-size="20" lengthAdjust="spacing" textLength="324" x="2494" y="243.2773">InMemoryShowRequestRepository</text><line style="stroke:#181818;stroke-width:0.5;" x1="2464" x2="2820" y1="252.7188" y2="252.7188"/><line style="stroke:#181818;stroke-width:0.5;" x1="2464" x2="2820" y1="260.7188" y2="260.7188"/></g><!--class InMemoryCustomersRepository--><g id="elem_InMemoryCustomersRepository"><rect codeLine="45" fill="#F1F1F1" height="50" id="InMemoryCustomersRepository" rx="2.5" ry="2.5" style="stroke:#181818;stroke-width:0.5;" width="334" x="2475" y="133.7188"/><ellipse cx="2491" cy="150.7188" fill="#ADD1B2" rx="12" ry="12" style="stroke:#181818;stroke-width:1.0;"/><path d="M2493.8066,157.7988 Q2493.123,158.1504 2492.3711,158.3262 Q2491.6191,158.502 2490.7891,158.502 Q2487.8398,158.502 2486.2871,156.5586 Q2484.7344,154.6152 2484.7344,150.9434 Q2484.7344,147.2617 2486.2871,145.3184 Q2487.8398,143.375 2490.7891,143.375 Q2491.6191,143.375 2492.3809,143.5508 Q2493.1426,143.7266 2493.8066,144.0781 L2493.8066,147.2813 Q2493.0645,146.5977 2492.3662,146.2803 Q2491.668,145.9629 2490.9258,145.9629 Q2489.3438,145.9629 2488.5381,147.2178 Q2487.7324,148.4727 2487.7324,150.9434 Q2487.7324,153.4043 2488.5381,154.6592 Q2489.3438,155.9141 2490.9258,155.9141 Q2491.668,155.9141 2492.3662,155.5967 Q2493.0645,155.2793 2493.8066,154.5957 Z " fill="#000000"/><text fill="#000000" font-family="sans-serif" font-size="20" lengthAdjust="spacing" textLength="300" x="2506" y="158.2773">InMemoryCustomersRepository</text><line style="stroke:#181818;stroke-width:0.5;" x1="2476" x2="2808" y1="167.7188" y2="167.7188"/><line style="stroke:#181818;stroke-width:0.5;" x1="2476" x2="2808" y1="175.7188" y2="175.7188"/></g><!--class InMemoryUsersRepository--><g id="elem_InMemoryUsersRepository"><rect codeLine="48" fill="#F1F1F1" height="50" id="InMemoryUsersRepository" rx="2.5" ry="2.5" style="stroke:#181818;stroke-width:0.5;" width="284" x="2500" y="48.7188"/><ellipse cx="2516" cy="65.7188" fill="#ADD1B2" rx="12" ry="12" style="stroke:#181818;stroke-width:1.0;"/><path d="M2518.8066,72.7988 Q2518.123,73.1504 2517.3711,73.3262 Q2516.6191,73.502 2515.7891,73.502 Q2512.8398,73.502 2511.2871,71.5586 Q2509.7344,69.6152 2509.7344,65.9434 Q2509.7344,62.2617 2511.2871,60.3184 Q2512.8398,58.375 2515.7891,58.375 Q2516.6191,58.375 2517.3809,58.5508 Q2518.1426,58.7266 2518.8066,59.0781 L2518.8066,62.2813 Q2518.0645,61.5977 2517.3662,61.2803 Q2516.668,60.9629 2515.9258,60.9629 Q2514.3438,60.9629 2513.5381,62.2178 Q2512.7324,63.4727 2512.7324,65.9434 Q2512.7324,68.4043 2513.5381,69.6592 Q2514.3438,70.9141 2515.9258,70.9141 Q2516.668,70.9141 2517.3662,70.5967 Q2518.0645,70.2793 2518.8066,69.5957 Z " fill="#000000"/><text fill="#000000" font-family="sans-serif" font-size="20" lengthAdjust="spacing" textLength="250" x="2531" y="73.2773">InMemoryUsersRepository</text><line style="stroke:#181818;stroke-width:0.5;" x1="2501" x2="2783" y1="82.7188" y2="82.7188"/><line style="stroke:#181818;stroke-width:0.5;" x1="2501" x2="2783" y1="90.7188" y2="90.7188"/></g><!--class PersistenceContext--><g id="elem_PersistenceContext"><rect codeLine="53" fill="#F1F1F1" height="73.5547" id="PersistenceContext" rx="2.5" ry="2.5" style="stroke:#181818;stroke-width:0.5;" width="431" x="1299" y="739.9388"/><ellipse cx="1419" cy="756.9388" fill="#ADD1B2" rx="12" ry="12" style="stroke:#181818;stroke-width:1.0;"/><path d="M1421.8066,764.0188 Q1421.123,764.3704 1420.3711,764.5462 Q1419.6191,764.722 1418.7891,764.722 Q1415.8398,764.722 1414.2871,762.7786 Q1412.7344,760.8352 1412.7344,757.1634 Q1412.7344,753.4817 1414.2871,751.5384 Q1415.8398,749.595 1418.7891,749.595 Q1419.6191,749.595 1420.3809,749.7708 Q1421.1426,749.9466 1421.8066,750.2981 L1421.8066,753.5013 Q1421.0645,752.8177 1420.3662,752.5003 Q1419.668,752.1829 1418.9258,752.1829 Q1417.3438,752.1829 1416.5381,753.4378 Q1415.7324,754.6927 1415.7324,757.1634 Q1415.7324,759.6243 1416.5381,760.8792 Q1417.3438,762.1341 1418.9258,762.1341 Q1419.668,762.1341 1420.3662,761.8167 Q1421.0645,761.4993 1421.8066,760.8157 Z " fill="#000000"/><text fill="#000000" font-family="sans-serif" font-size="20" lengthAdjust="spacing" textLength="182" x="1441" y="764.4973">PersistenceContext</text><line style="stroke:#181818;stroke-width:0.5;" x1="1300" x2="1729" y1="773.9388" y2="773.9388"/><line style="stroke:#181818;stroke-width:0.5;" x1="1300" x2="1729" y1="781.9388" y2="781.9388"/><ellipse cx="1310" cy="799.2161" fill="#84BE84" rx="3" ry="3" style="stroke:#038048;stroke-width:1.0;"/><text fill="#000000" font-family="sans-serif" font-size="20" lengthAdjust="spacing" textLength="404" x="1320" y="805.2747">getRepositoryFactory() : RepositoryFactory</text></g><!--class CRMCollaborator--><g id="elem_CRMCollaborator"><rect codeLine="80" fill="#F1F1F1" height="73.1094" id="CRMCollaborator" rx="2.5" ry="2.5" style="stroke:#181818;stroke-width:0.5;" width="198" x="4410.5" y="448.2188"/><ellipse cx="4426.5" cy="476.7734" fill="#ADD1B2" rx="12" ry="12" style="stroke:#181818;stroke-width:1.0;"/><path d="M4429.3066,483.8535 Q4428.623,484.2051 4427.8711,484.3809 Q4427.1191,484.5566 4426.2891,484.5566 Q4423.3398,484.5566 4421.7871,482.6133 Q4420.2344,480.6699 4420.2344,476.998 Q4420.2344,473.3164 4421.7871,471.373 Q4423.3398,469.4297 4426.2891,469.4297 Q4427.1191,469.4297 4427.8809,469.6055 Q4428.6426,469.7813 4429.3066,470.1328 L4429.3066,473.3359 Q4428.5645,472.6523 4427.8662,472.335 Q4427.168,472.0176 4426.4258,472.0176 Q4424.8438,472.0176 4424.0381,473.2725 Q4423.2324,474.5273 4423.2324,476.998 Q4423.2324,479.459 4424.0381,480.7139 Q4424.8438,481.9688 4426.4258,481.9688 Q4427.168,481.9688 4427.8662,481.6514 Q4428.5645,481.334 4429.3066,480.6504 Z " fill="#000000"/><text fill="#000000" font-family="sans-serif" font-size="20" font-style="italic" lengthAdjust="spacing" textLength="73" x="4487" y="472.5547">«Entity»</text><text fill="#000000" font-family="sans-serif" font-size="20" lengthAdjust="spacing" textLength="164" x="4441.5" y="496.1094">CRMCollaborator</text><line style="stroke:#181818;stroke-width:0.5;" x1="4411.5" x2="4607.5" y1="505.3281" y2="505.3281"/><line style="stroke:#181818;stroke-width:0.5;" x1="4411.5" x2="4607.5" y1="513.3281" y2="513.3281"/></g><!--class Customer--><g id="elem_Customer"><rect codeLine="83" fill="#F1F1F1" height="73.1094" id="Customer" rx="2.5" ry="2.5" style="stroke:#181818;stroke-width:0.5;" width="127" x="4446" y="596.2188"/><ellipse cx="4462" cy="624.7734" fill="#ADD1B2" rx="12" ry="12" style="stroke:#181818;stroke-width:1.0;"/><path d="M4464.8066,631.8535 Q4464.123,632.2051 4463.3711,632.3809 Q4462.6191,632.5566 4461.7891,632.5566 Q4458.8398,632.5566 4457.2871,630.6133 Q4455.7344,628.6699 4455.7344,624.998 Q4455.7344,621.3164 4457.2871,619.373 Q4458.8398,617.4297 4461.7891,617.4297 Q4462.6191,617.4297 4463.3809,617.6055 Q4464.1426,617.7813 4464.8066,618.1328 L4464.8066,621.3359 Q4464.0645,620.6523 4463.3662,620.335 Q4462.668,620.0176 4461.9258,620.0176 Q4460.3438,620.0176 4459.5381,621.2725 Q4458.7324,622.5273 4458.7324,624.998 Q4458.7324,627.459 4459.5381,628.7139 Q4460.3438,629.9688 4461.9258,629.9688 Q4462.668,629.9688 4463.3662,629.6514 Q4464.0645,629.334 4464.8066,628.6504 Z " fill="#000000"/><text fill="#000000" font-family="sans-serif" font-size="20" font-style="italic" lengthAdjust="spacing" textLength="73" x="4487" y="620.5547">«Entity»</text><text fill="#000000" font-family="sans-serif" font-size="20" lengthAdjust="spacing" textLength="93" x="4477" y="644.1094">Customer</text><line style="stroke:#181818;stroke-width:0.5;" x1="4447" x2="4572" y1="653.3281" y2="653.3281"/><line style="stroke:#181818;stroke-width:0.5;" x1="4447" x2="4572" y1="661.3281" y2="661.3281"/></g><!--class Location--><g id="elem_Location"><rect codeLine="86" fill="#F1F1F1" height="73.1094" id="Location" rx="2.5" ry="2.5" style="stroke:#181818;stroke-width:0.5;" width="172" x="4423.5" y="1484.2188"/><ellipse cx="4439.5" cy="1512.7734" fill="#ADD1B2" rx="12" ry="12" style="stroke:#181818;stroke-width:1.0;"/><path d="M4442.3066,1519.8535 Q4441.623,1520.2051 4440.8711,1520.3809 Q4440.1191,1520.5566 4439.2891,1520.5566 Q4436.3398,1520.5566 4434.7871,1518.6133 Q4433.2344,1516.6699 4433.2344,1512.998 Q4433.2344,1509.3164 4434.7871,1507.373 Q4436.3398,1505.4297 4439.2891,1505.4297 Q4440.1191,1505.4297 4440.8809,1505.6055 Q4441.6426,1505.7813 4442.3066,1506.1328 L4442.3066,1509.3359 Q4441.5645,1508.6523 4440.8662,1508.335 Q4440.168,1508.0176 4439.4258,1508.0176 Q4437.8438,1508.0176 4437.0381,1509.2725 Q4436.2324,1510.5273 4436.2324,1512.998 Q4436.2324,1515.459 4437.0381,1516.7139 Q4437.8438,1517.9688 4439.4258,1517.9688 Q4440.168,1517.9688 4440.8662,1517.6514 Q4441.5645,1517.334 4442.3066,1516.6504 Z " fill="#000000"/><text fill="#000000" font-family="sans-serif" font-size="20" font-style="italic" lengthAdjust="spacing" textLength="142" x="4452.5" y="1508.5547">«Value Object»</text><text fill="#000000" font-family="sans-serif" font-size="20" lengthAdjust="spacing" textLength="81" x="4483" y="1532.1094">Location</text><line style="stroke:#181818;stroke-width:0.5;" x1="4424.5" x2="4594.5" y1="1541.3281" y2="1541.3281"/><line style="stroke:#181818;stroke-width:0.5;" x1="4424.5" x2="4594.5" y1="1549.3281" y2="1549.3281"/></g><!--class ShowRequestStatus--><g id="elem_ShowRequestStatus"><rect codeLine="89" fill="#F1F1F1" height="73.1094" id="ShowRequestStatus" rx="2.5" ry="2.5" style="stroke:#181818;stroke-width:0.5;" width="219" x="4400" y="1336.2188"/><ellipse cx="4416" cy="1364.7734" fill="#EB937F" rx="12" ry="12" style="stroke:#181818;stroke-width:1.0;"/><path d="M4420.7227,1372.2734 L4411.6406,1372.2734 L4411.6406,1357.6934 L4420.7227,1357.6934 L4420.7227,1360.2324 L4414.5215,1360.2324 L4414.5215,1363.377 L4420.1367,1363.377 L4420.1367,1365.916 L4414.5215,1365.916 L4414.5215,1369.7344 L4420.7227,1369.7344 Z " fill="#000000"/><text fill="#000000" font-family="sans-serif" font-size="20" font-style="italic" lengthAdjust="spacing" textLength="142" x="4452.5" y="1360.5547">«Value Object»</text><text fill="#000000" font-family="sans-serif" font-size="20" lengthAdjust="spacing" textLength="185" x="4431" y="1384.1094">ShowRequestStatus</text><line style="stroke:#181818;stroke-width:0.5;" x1="4401" x2="4618" y1="1393.3281" y2="1393.3281"/><line style="stroke:#181818;stroke-width:0.5;" x1="4401" x2="4618" y1="1401.3281" y2="1401.3281"/></g><!--class ShowDescription--><g id="elem_ShowDescription"><rect codeLine="92" fill="#F1F1F1" height="73.1094" id="ShowDescription" rx="2.5" ry="2.5" style="stroke:#181818;stroke-width:0.5;" width="194" x="4412.5" y="1188.2188"/><ellipse cx="4428.5" cy="1216.7734" fill="#ADD1B2" rx="12" ry="12" style="stroke:#181818;stroke-width:1.0;"/><path d="M4431.3066,1223.8535 Q4430.623,1224.2051 4429.8711,1224.3809 Q4429.1191,1224.5566 4428.2891,1224.5566 Q4425.3398,1224.5566 4423.7871,1222.6133 Q4422.2344,1220.6699 4422.2344,1216.998 Q4422.2344,1213.3164 4423.7871,1211.373 Q4425.3398,1209.4297 4428.2891,1209.4297 Q4429.1191,1209.4297 4429.8809,1209.6055 Q4430.6426,1209.7813 4431.3066,1210.1328 L4431.3066,1213.3359 Q4430.5645,1212.6523 4429.8662,1212.335 Q4429.168,1212.0176 4428.4258,1212.0176 Q4426.8438,1212.0176 4426.0381,1213.2725 Q4425.2324,1214.5273 4425.2324,1216.998 Q4425.2324,1219.459 4426.0381,1220.7139 Q4426.8438,1221.9688 4428.4258,1221.9688 Q4429.168,1221.9688 4429.8662,1221.6514 Q4430.5645,1221.334 4431.3066,1220.6504 Z " fill="#000000"/><text fill="#000000" font-family="sans-serif" font-size="20" font-style="italic" lengthAdjust="spacing" textLength="142" x="4452.5" y="1212.5547">«Value Object»</text><text fill="#000000" font-family="sans-serif" font-size="20" lengthAdjust="spacing" textLength="160" x="4443.5" y="1236.1094">ShowDescription</text><line style="stroke:#181818;stroke-width:0.5;" x1="4413.5" x2="4605.5" y1="1245.3281" y2="1245.3281"/><line style="stroke:#181818;stroke-width:0.5;" x1="4413.5" x2="4605.5" y1="1253.3281" y2="1253.3281"/></g><!--class ShowRequest--><g id="elem_ShowRequest"><rect codeLine="95" fill="#F1F1F1" height="73.1094" id="ShowRequest" rx="2.5" ry="2.5" style="stroke:#181818;stroke-width:0.5;" width="161" x="4023" y="892.1688"/><ellipse cx="4039" cy="920.7234" fill="#ADD1B2" rx="12" ry="12" style="stroke:#181818;stroke-width:1.0;"/><path d="M4041.8066,927.8035 Q4041.123,928.1551 4040.3711,928.3309 Q4039.6191,928.5066 4038.7891,928.5066 Q4035.8398,928.5066 4034.2871,926.5633 Q4032.7344,924.6199 4032.7344,920.948 Q4032.7344,917.2664 4034.2871,915.323 Q4035.8398,913.3797 4038.7891,913.3797 Q4039.6191,913.3797 4040.3809,913.5555 Q4041.1426,913.7313 4041.8066,914.0828 L4041.8066,917.2859 Q4041.0645,916.6023 4040.3662,916.285 Q4039.668,915.9676 4038.9258,915.9676 Q4037.3438,915.9676 4036.5381,917.2225 Q4035.7324,918.4773 4035.7324,920.948 Q4035.7324,923.409 4036.5381,924.6639 Q4037.3438,925.9188 4038.9258,925.9188 Q4039.668,925.9188 4040.3662,925.6014 Q4041.0645,925.284 4041.8066,924.6004 Z " fill="#000000"/><text fill="#000000" font-family="sans-serif" font-size="20" font-style="italic" lengthAdjust="spacing" textLength="73" x="4081" y="916.5047">«Entity»</text><text fill="#000000" font-family="sans-serif" font-size="20" lengthAdjust="spacing" textLength="127" x="4054" y="940.0594">ShowRequest</text><line style="stroke:#181818;stroke-width:0.5;" x1="4024" x2="4183" y1="949.2781" y2="949.2781"/><line style="stroke:#181818;stroke-width:0.5;" x1="4024" x2="4183" y1="957.2781" y2="957.2781"/></g><!--class Time--><g id="elem_Time"><rect codeLine="98" fill="#F1F1F1" height="73.1094" id="Time" rx="2.5" ry="2.5" style="stroke:#181818;stroke-width:0.5;" width="172" x="4423.5" y="1040.2188"/><ellipse cx="4439.5" cy="1068.7734" fill="#ADD1B2" rx="12" ry="12" style="stroke:#181818;stroke-width:1.0;"/><path d="M4442.3066,1075.8535 Q4441.623,1076.2051 4440.8711,1076.3809 Q4440.1191,1076.5566 4439.2891,1076.5566 Q4436.3398,1076.5566 4434.7871,1074.6133 Q4433.2344,1072.6699 4433.2344,1068.998 Q4433.2344,1065.3164 4434.7871,1063.373 Q4436.3398,1061.4297 4439.2891,1061.4297 Q4440.1191,1061.4297 4440.8809,1061.6055 Q4441.6426,1061.7813 4442.3066,1062.1328 L4442.3066,1065.3359 Q4441.5645,1064.6523 4440.8662,1064.335 Q4440.168,1064.0176 4439.4258,1064.0176 Q4437.8438,1064.0176 4437.0381,1065.2725 Q4436.2324,1066.5273 4436.2324,1068.998 Q4436.2324,1071.459 4437.0381,1072.7139 Q4437.8438,1073.9688 4439.4258,1073.9688 Q4440.168,1073.9688 4440.8662,1073.6514 Q4441.5645,1073.334 4442.3066,1072.6504 Z " fill="#000000"/><text fill="#000000" font-family="sans-serif" font-size="20" font-style="italic" lengthAdjust="spacing" textLength="142" x="4452.5" y="1064.5547">«Value Object»</text><text fill="#000000" font-family="sans-serif" font-size="20" lengthAdjust="spacing" textLength="49" x="4499" y="1088.1094">Time</text><line style="stroke:#181818;stroke-width:0.5;" x1="4424.5" x2="4594.5" y1="1097.3281" y2="1097.3281"/><line style="stroke:#181818;stroke-width:0.5;" x1="4424.5" x2="4594.5" y1="1105.3281" y2="1105.3281"/></g><!--class Date--><g id="elem_Date"><rect codeLine="101" fill="#F1F1F1" height="73.1094" id="Date" rx="2.5" ry="2.5" style="stroke:#181818;stroke-width:0.5;" width="172" x="4423.5" y="892.2188"/><ellipse cx="4439.5" cy="920.7734" fill="#ADD1B2" rx="12" ry="12" style="stroke:#181818;stroke-width:1.0;"/><path d="M4442.3066,927.8535 Q4441.623,928.2051 4440.8711,928.3809 Q4440.1191,928.5566 4439.2891,928.5566 Q4436.3398,928.5566 4434.7871,926.6133 Q4433.2344,924.6699 4433.2344,920.998 Q4433.2344,917.3164 4434.7871,915.373 Q4436.3398,913.4297 4439.2891,913.4297 Q4440.1191,913.4297 4440.8809,913.6055 Q4441.6426,913.7813 4442.3066,914.1328 L4442.3066,917.3359 Q4441.5645,916.6523 4440.8662,916.335 Q4440.168,916.0176 4439.4258,916.0176 Q4437.8438,916.0176 4437.0381,917.2725 Q4436.2324,918.5273 4436.2324,920.998 Q4436.2324,923.459 4437.0381,924.7139 Q4437.8438,925.9688 4439.4258,925.9688 Q4440.168,925.9688 4440.8662,925.6514 Q4441.5645,925.334 4442.3066,924.6504 Z " fill="#000000"/><text fill="#000000" font-family="sans-serif" font-size="20" font-style="italic" lengthAdjust="spacing" textLength="142" x="4452.5" y="916.5547">«Value Object»</text><text fill="#000000" font-family="sans-serif" font-size="20" lengthAdjust="spacing" textLength="44" x="4501.5" y="940.1094">Date</text><line style="stroke:#181818;stroke-width:0.5;" x1="4424.5" x2="4594.5" y1="949.3281" y2="949.3281"/><line style="stroke:#181818;stroke-width:0.5;" x1="4424.5" x2="4594.5" y1="957.3281" y2="957.3281"/></g><!--class QuantityOfDrones--><g id="elem_QuantityOfDrones"><rect codeLine="104" fill="#F1F1F1" height="73.1094" id="QuantityOfDrones" rx="2.5" ry="2.5" style="stroke:#181818;stroke-width:0.5;" width="206" x="4406.5" y="744.2188"/><ellipse cx="4422.5" cy="772.7734" fill="#ADD1B2" rx="12" ry="12" style="stroke:#181818;stroke-width:1.0;"/><path d="M4425.3066,779.8535 Q4424.623,780.2051 4423.8711,780.3809 Q4423.1191,780.5566 4422.2891,780.5566 Q4419.3398,780.5566 4417.7871,778.6133 Q4416.2344,776.6699 4416.2344,772.998 Q4416.2344,769.3164 4417.7871,767.373 Q4419.3398,765.4297 4422.2891,765.4297 Q4423.1191,765.4297 4423.8809,765.6055 Q4424.6426,765.7813 4425.3066,766.1328 L4425.3066,769.3359 Q4424.5645,768.6523 4423.8662,768.335 Q4423.168,768.0176 4422.4258,768.0176 Q4420.8438,768.0176 4420.0381,769.2725 Q4419.2324,770.5273 4419.2324,772.998 Q4419.2324,775.459 4420.0381,776.7139 Q4420.8438,777.9688 4422.4258,777.9688 Q4423.168,777.9688 4423.8662,777.6514 Q4424.5645,777.334 4425.3066,776.6504 Z " fill="#000000"/><text fill="#000000" font-family="sans-serif" font-size="20" font-style="italic" lengthAdjust="spacing" textLength="142" x="4452.5" y="768.5547">«Value Object»</text><text fill="#000000" font-family="sans-serif" font-size="20" lengthAdjust="spacing" textLength="172" x="4437.5" y="792.1094">QuantityOfDrones</text><line style="stroke:#181818;stroke-width:0.5;" x1="4407.5" x2="4611.5" y1="801.3281" y2="801.3281"/><line style="stroke:#181818;stroke-width:0.5;" x1="4407.5" x2="4611.5" y1="809.3281" y2="809.3281"/></g><!--class RepositoryFactory--><g id="elem_RepositoryFactory"><rect codeLine="60" fill="#F1F1F1" height="120.6641" id="RepositoryFactory" rx="2.5" ry="2.5" style="stroke:#181818;stroke-width:0.5;" width="547" x="2910" y="681.3888"/><ellipse cx="3093.5" cy="698.3888" fill="#B4A7E5" rx="12" ry="12" style="stroke:#181818;stroke-width:1.0;"/><path d="M3089.1797,693.8477 L3089.1797,691.3087 L3097.8613,691.3087 L3097.8613,693.8477 L3094.9609,693.8477 L3094.9609,703.3497 L3097.8613,703.3497 L3097.8613,705.8888 L3089.1797,705.8888 L3089.1797,703.3497 L3092.0801,703.3497 L3092.0801,693.8477 Z " fill="#000000"/><text fill="#000000" font-family="sans-serif" font-size="20" font-style="italic" lengthAdjust="spacing" textLength="171" x="3115.5" y="705.9473">RepositoryFactory</text><line style="stroke:#181818;stroke-width:0.5;" x1="2911" x2="3456" y1="715.3888" y2="715.3888"/><line style="stroke:#181818;stroke-width:0.5;" x1="2911" x2="3456" y1="723.3888" y2="723.3888"/><ellipse cx="2921" cy="740.6661" fill="#84BE84" rx="3" ry="3" style="stroke:#038048;stroke-width:1.0;"/><text fill="#000000" font-family="sans-serif" font-size="20" lengthAdjust="spacing" textLength="520" x="2931" y="746.7247">getShowRequestRepository() : ShowRequestRepository</text><ellipse cx="2921" cy="764.2208" fill="#84BE84" rx="3" ry="3" style="stroke:#038048;stroke-width:1.0;"/><text fill="#000000" font-family="sans-serif" font-size="20" lengthAdjust="spacing" textLength="452" x="2931" y="770.2794">getCustomerRepository() : CustomerRepository</text><ellipse cx="2921" cy="787.7755" fill="#84BE84" rx="3" ry="3" style="stroke:#038048;stroke-width:1.0;"/><text fill="#000000" font-family="sans-serif" font-size="20" lengthAdjust="spacing" textLength="372" x="2931" y="793.8341">getUsersRepository() : UsersRepository</text></g><!--class ShowRequestRepository--><g id="elem_ShowRequestRepository"><rect codeLine="66" fill="#F1F1F1" height="97.1094" id="ShowRequestRepository" rx="2.5" ry="2.5" style="stroke:#181818;stroke-width:0.5;" width="442" x="3518" y="704.1688"/><ellipse cx="3620" cy="721.1688" fill="#B4A7E5" rx="12" ry="12" style="stroke:#181818;stroke-width:1.0;"/><path d="M3615.6797,716.6277 L3615.6797,714.0887 L3624.3613,714.0887 L3624.3613,716.6277 L3621.4609,716.6277 L3621.4609,726.1297 L3624.3613,726.1297 L3624.3613,728.6688 L3615.6797,728.6688 L3615.6797,726.1297 L3618.5801,726.1297 L3618.5801,716.6277 Z " fill="#000000"/><text fill="#000000" font-family="sans-serif" font-size="20" font-style="italic" lengthAdjust="spacing" textLength="229" x="3642" y="728.7273">ShowRequestRepository</text><line style="stroke:#181818;stroke-width:0.5;" x1="3519" x2="3959" y1="738.1688" y2="738.1688"/><line style="stroke:#181818;stroke-width:0.5;" x1="3519" x2="3959" y1="746.1688" y2="746.1688"/><ellipse cx="3529" cy="763.4461" fill="#84BE84" rx="3" ry="3" style="stroke:#038048;stroke-width:1.0;"/><text fill="#000000" font-family="sans-serif" font-size="20" lengthAdjust="spacing" textLength="415" x="3539" y="769.5047">getShowRequest(): Iterable&lt;ShowRequest&gt;</text><ellipse cx="3529" cy="787.0008" fill="#84BE84" rx="3" ry="3" style="stroke:#038048;stroke-width:1.0;"/><text fill="#000000" font-family="sans-serif" font-size="20" lengthAdjust="spacing" textLength="321" x="3539" y="793.0594">save(showRequest): ShowRequest</text></g><!--class CustomerRepository--><g id="elem_CustomerRepository"><rect codeLine="71" fill="#F1F1F1" height="73.5547" id="CustomerRepository" rx="2.5" ry="2.5" style="stroke:#181818;stroke-width:0.5;" width="394" x="3542" y="595.9388"/><ellipse cx="3637" cy="612.9388" fill="#B4A7E5" rx="12" ry="12" style="stroke:#181818;stroke-width:1.0;"/><path d="M3632.6797,608.3977 L3632.6797,605.8587 L3641.3613,605.8587 L3641.3613,608.3977 L3638.4609,608.3977 L3638.4609,617.8997 L3641.3613,617.8997 L3641.3613,620.4388 L3632.6797,620.4388 L3632.6797,617.8997 L3635.5801,617.8997 L3635.5801,608.3977 Z " fill="#000000"/><text fill="#000000" font-family="sans-serif" font-size="20" font-style="italic" lengthAdjust="spacing" textLength="195" x="3659" y="620.4973">CustomerRepository</text><line style="stroke:#181818;stroke-width:0.5;" x1="3543" x2="3935" y1="629.9388" y2="629.9388"/><line style="stroke:#181818;stroke-width:0.5;" x1="3543" x2="3935" y1="637.9388" y2="637.9388"/><ellipse cx="3553" cy="655.2161" fill="#84BE84" rx="3" ry="3" style="stroke:#038048;stroke-width:1.0;"/><text fill="#000000" font-family="sans-serif" font-size="20" lengthAdjust="spacing" textLength="367" x="3563" y="661.2747">getCustomers(): Iterable&lt;Customers&gt;</text></g><!--class UsersRepository--><g id="elem_UsersRepository"><rect codeLine="75" fill="#F1F1F1" height="73.5547" id="UsersRepository" rx="2.5" ry="2.5" style="stroke:#181818;stroke-width:0.5;" width="294" x="3592" y="486.9388"/><ellipse cx="3657" cy="503.9388" fill="#B4A7E5" rx="12" ry="12" style="stroke:#181818;stroke-width:1.0;"/><path d="M3652.6797,499.3977 L3652.6797,496.8587 L3661.3613,496.8587 L3661.3613,499.3977 L3658.4609,499.3977 L3658.4609,508.8997 L3661.3613,508.8997 L3661.3613,511.4388 L3652.6797,511.4388 L3652.6797,508.8997 L3655.5801,508.8997 L3655.5801,499.3977 Z " fill="#000000"/><text fill="#000000" font-family="sans-serif" font-size="20" font-style="italic" lengthAdjust="spacing" textLength="155" x="3679" y="511.4973">UsersRepository</text><line style="stroke:#181818;stroke-width:0.5;" x1="3593" x2="3885" y1="520.9388" y2="520.9388"/><line style="stroke:#181818;stroke-width:0.5;" x1="3593" x2="3885" y1="528.9388" y2="528.9388"/><ellipse cx="3603" cy="546.2161" fill="#84BE84" rx="3" ry="3" style="stroke:#038048;stroke-width:1.0;"/><text fill="#000000" font-family="sans-serif" font-size="20" lengthAdjust="spacing" textLength="267" x="3613" y="552.2747">getUsers(): Iterable&lt;Users&gt;</text></g><!--link ShowRequest to ShowDescription--><g id="link_ShowRequest_ShowDescription"><path codeLine="109" d="M4133.28,965.6088 C4154.1,990.9588 4183.79,1024.4588 4214,1049.7188 C4279.99,1104.8988 4365.42,1153.5888 4427.26,1185.5088 " fill="none" id="ShowRequest-to-ShowDescription" style="stroke:#181818;stroke-width:1.0;"/><polygon fill="#181818" points="4431.45,1187.6588,4425.2769,1179.9846,4427.0039,1185.3714,4421.6171,1187.0983,4431.45,1187.6588" style="stroke:#181818;stroke-width:1.0;"/><text fill="#000000" font-family="sans-serif" font-size="20" lengthAdjust="spacing" textLength="108" x="4226" y="1045.0547">description</text><text fill="#000000" font-family="sans-serif" font-size="20" lengthAdjust="spacing" textLength="13" x="4404.4482" y="1175.8997">1</text></g><!--link ShowRequest to CRMCollaborator--><g id="link_ShowRequest_CRMCollaborator"><path codeLine="110" d="M4118.43,891.9688 C4136.5,846.9588 4170.87,769.5688 4214,711.7188 C4273.19,632.3188 4296.16,617.3088 4376,558.7188 C4392.75,546.4288 4411.75,534.6888 4430.02,524.3287 " fill="none" id="ShowRequest-to-CRMCollaborator" style="stroke:#181818;stroke-width:1.0;"/><polygon fill="#181818" points="4434.35,521.8988,4424.5458,522.8355,4429.9948,524.3548,4428.4755,529.8038,4434.35,521.8988" style="stroke:#181818;stroke-width:1.0;"/><text fill="#000000" font-family="sans-serif" font-size="20" lengthAdjust="spacing" textLength="127" x="4216.5" y="577.0547">submitted by</text><text fill="#000000" font-family="sans-serif" font-size="20" lengthAdjust="spacing" textLength="13" x="4408.8633" y="548.7726">1</text></g><!--link ShowRequest to Customer--><g id="link_ShowRequest_Customer"><path codeLine="111" d="M4132.26,891.9188 C4152.84,866.3588 4182.65,832.7188 4214,808.7188 C4266.4,768.5988 4293.94,781.2688 4346,740.7188 C4361.9,728.3388 4360.31,719.3688 4376,706.7188 C4395.49,691.0088 4418.76,676.7588 4440.32,665.0688 " fill="none" id="ShowRequest-to-Customer" style="stroke:#181818;stroke-width:1.0;"/><polygon fill="#181818" points="4444.73,662.7088,4434.9096,663.4576,4440.3286,665.081,4438.7052,670.4999,4444.73,662.7088" style="stroke:#181818;stroke-width:1.0;"/><text fill="#000000" font-family="sans-serif" font-size="20" lengthAdjust="spacing" textLength="125" x="4217.5" y="736.0547">requested by</text><text fill="#000000" font-family="sans-serif" font-size="20" lengthAdjust="spacing" textLength="13" x="4424.9732" y="686.0645">1</text></g><!--link ShowRequest to Location--><g id="link_ShowRequest_Location"><path codeLine="112" d="M4107.14,965.6788 C4113.93,1039.1788 4137.32,1206.4488 4214,1320.7188 C4263.83,1394.9688 4351.4,1449.1688 4418.14,1482.2788 " fill="none" id="ShowRequest-to-Location" style="stroke:#181818;stroke-width:1.0;"/><polygon fill="#181818" points="4422.36,1484.3488,4416.0314,1476.8023,4417.8681,1482.1527,4412.5177,1483.9894,4422.36,1484.3488" style="stroke:#181818;stroke-width:1.0;"/><text fill="#000000" font-family="sans-serif" font-size="20" lengthAdjust="spacing" textLength="51" x="4254.5" y="1316.0547">place</text><text fill="#000000" font-family="sans-serif" font-size="20" lengthAdjust="spacing" textLength="13" x="4402.5013" y="1477.1708">1</text></g><!--link ShowRequest to ShowRequestStatus--><g id="link_ShowRequest_ShowRequestStatus"><path codeLine="113" d="M4114.64,965.3688 C4129.99,1016.0887 4162.84,1108.7388 4214,1173.7188 C4269.88,1244.6888 4358.15,1299.5688 4423.49,1333.5488 " fill="none" id="ShowRequest-to-ShowRequestStatus" style="stroke:#181818;stroke-width:1.0;"/><polygon fill="#181818" points="4427.6,1335.6688,4421.4269,1327.9946,4423.1539,1333.3814,4417.7671,1335.1083,4427.6,1335.6688" style="stroke:#181818;stroke-width:1.0;"/><text fill="#000000" font-family="sans-serif" font-size="20" lengthAdjust="spacing" textLength="130" x="4215" y="1169.0547">requestStatus</text><text fill="#000000" font-family="sans-serif" font-size="20" lengthAdjust="spacing" textLength="13" x="4399.9002" y="1323.9116">1</text></g><!--link ShowRequest to Time--><g id="link_ShowRequest_Time"><path codeLine="114" d="M4184.32,957.9588 C4251.53,982.5788 4347.65,1017.7987 4417.77,1043.4788 " fill="none" id="ShowRequest-to-Time" style="stroke:#181818;stroke-width:1.0;"/><polygon fill="#181818" points="4422.2,1045.1087,4415.1339,1038.248,4417.5073,1043.3829,4412.3725,1045.7563,4422.2,1045.1087" style="stroke:#181818;stroke-width:1.0;"/><text fill="#000000" font-family="sans-serif" font-size="20" lengthAdjust="spacing" textLength="81" x="4239.5" y="968.0547">duration</text><text fill="#000000" font-family="sans-serif" font-size="20" lengthAdjust="spacing" textLength="13" x="4402.3924" y="1063.2398">1</text></g><!--link ShowRequest to Date--><g id="link_ShowRequest_Date"><path codeLine="115" d="M4184.32,928.7188 C4251.39,928.7188 4347.26,928.7188 4417.35,928.7188 " fill="none" id="ShowRequest-to-Date" style="stroke:#181818;stroke-width:1.0;"/><polygon fill="#181818" points="4422.11,928.7188,4413.11,924.7188,4417.11,928.7188,4413.11,932.7188,4422.11,928.7188" style="stroke:#181818;stroke-width:1.0;"/><text fill="#000000" font-family="sans-serif" font-size="20" lengthAdjust="spacing" textLength="92" x="4234" y="924.0547">startTime</text><text fill="#000000" font-family="sans-serif" font-size="20" lengthAdjust="spacing" textLength="13" x="4402.3924" y="949.0987">1</text></g><!--link ShowRequest to QuantityOfDrones--><g id="link_ShowRequest_QuantityOfDrones"><path codeLine="116" d="M4184.32,899.4788 C4247.06,876.4988 4334.98,844.2888 4403.44,819.2088 " fill="none" id="ShowRequest-to-QuantityOfDrones" style="stroke:#181818;stroke-width:1.0;"/><polygon fill="#181818" points="4407.75,817.6288,4397.9236,816.9645,4403.0544,819.3467,4400.6722,824.4775,4407.75,817.6288" style="stroke:#181818;stroke-width:1.0;"/><text fill="#000000" font-family="sans-serif" font-size="20" lengthAdjust="spacing" textLength="108" x="4226" y="837.0547">qnt_drones</text><text fill="#000000" font-family="sans-serif" font-size="20" lengthAdjust="spacing" textLength="13" x="4385.6539" y="841.1808">1</text></g><!--link EditShowRequestUI to EditShowRequestController--><g id="link_EditShowRequestUI_EditShowRequestController"><path codeLine="119" d="M423.3,1195.7188 C442.29,1195.7188 461.76,1195.7188 481.27,1195.7188 " fill="none" id="EditShowRequestUI-to-EditShowRequestController" style="stroke:#181818;stroke-width:1.0;stroke-dasharray:7.0,7.0;"/><polygon fill="#181818" points="486.09,1195.7188,477.09,1191.7188,481.09,1195.7188,477.09,1199.7188,486.09,1195.7188" style="stroke:#181818;stroke-width:1.0;"/></g><!--link EditShowRequestController to PersistenceContext--><g id="link_EditShowRequestController_PersistenceContext"><path codeLine="122" d="M820.55,1123.3488 C876.9,1065.7388 962.29,986.5988 1050,935.7188 C1143.7,881.3688 1258.86,841.7488 1350.94,815.6588 " fill="none" id="EditShowRequestController-to-PersistenceContext" style="stroke:#181818;stroke-width:1.0;stroke-dasharray:7.0,7.0;"/><polygon fill="#181818" points="1355.52,814.3688,1345.7723,812.9607,1350.7076,815.7254,1347.9429,820.6606,1355.52,814.3688" style="stroke:#181818;stroke-width:1.0;"/><text fill="#000000" font-family="sans-serif" font-size="20" lengthAdjust="spacing" textLength="215" x="1051" y="840.0547">getRepositoryFactory()</text></g><!--link EditShowRequestController to RepositoryFactory--><g id="link_EditShowRequestController_RepositoryFactory"><path codeLine="123" d="M861.33,1123.4988 C915.68,1090.2088 984,1053.1888 1050,1030.7188 C1247.16,963.5888 1305.23,961.7188 1513.5,961.7188 C1513.5,961.7188 1513.5,961.7188 2643,961.7188 C2809.45,961.7188 2984.83,870.8188 3088.88,805.8788 " fill="none" id="EditShowRequestController-to-RepositoryFactory" style="stroke:#181818;stroke-width:1.0;stroke-dasharray:7.0,7.0;"/><polygon fill="#181818" points="3093.11,803.2188,3083.3614,804.6204,3088.8764,805.879,3087.6178,811.3941,3093.11,803.2188" style="stroke:#181818;stroke-width:1.0;"/><text fill="#000000" font-family="sans-serif" font-size="20" lengthAdjust="spacing" textLength="239" x="1842" y="957.0547">getCustomerRepository()</text></g><!--link EditShowRequestController to RepositoryFactory--><g id="link_EditShowRequestController_RepositoryFactory"><path codeLine="124" d="M1018.28,1172.8788 C1164.19,1162.1688 1348.73,1151.7188 1513.5,1151.7188 C1513.5,1151.7188 1513.5,1151.7188 2643,1151.7188 C2867.88,1151.7188 3057.73,923.1088 3139.48,807.3088 " fill="none" id="EditShowRequestController-to-RepositoryFactory-1" style="stroke:#181818;stroke-width:1.0;stroke-dasharray:7.0,7.0;"/><polygon fill="#181818" points="3142.18,803.4588,3133.7324,808.5222,3139.305,807.5495,3140.2776,813.1221,3142.18,803.4588" style="stroke:#181818;stroke-width:1.0;"/><text fill="#000000" font-family="sans-serif" font-size="20" lengthAdjust="spacing" textLength="147" x="1888" y="1147.0547">getCustomers()</text></g><!--link EditShowRequestController to RepositoryFactory--><g id="link_EditShowRequestController_RepositoryFactory"><path codeLine="125" d="M1017.22,1123.3688 C1162.41,1089.5988 1346.61,1056.7188 1513.5,1056.7188 C1513.5,1056.7188 1513.5,1056.7188 2643,1056.7188 C2839.45,1056.7188 3027.98,899.0388 3121.46,806.7988 " fill="none" id="EditShowRequestController-to-RepositoryFactory-2" style="stroke:#181818;stroke-width:1.0;stroke-dasharray:7.0,7.0;"/><polygon fill="#181818" points="3124.76,803.5188,3115.5534,807.017,3121.2102,807.0399,3121.1873,812.6967,3124.76,803.5188" style="stroke:#181818;stroke-width:1.0;"/><text fill="#000000" font-family="sans-serif" font-size="20" lengthAdjust="spacing" textLength="97" x="1913" y="1052.0547">getUsers()</text></g><!--link EditShowRequestController to ShowRequestRepository--><g id="link_EditShowRequestController_ShowRequestRepository"><path codeLine="126" d="M880.62,1267.9688 C931.69,1293.8888 992.13,1320.6588 1050,1336.7188 C1249.43,1392.0588 1306.53,1381.7188 1513.5,1381.7188 C1513.5,1381.7188 1513.5,1381.7188 3184.5,1381.7188 C3320.86,1381.7188 3380,1419.9788 3488,1336.7188 C3661.34,1203.0888 3716.17,925.6988 3732.06,807.7288 " fill="none" id="EditShowRequestController-to-ShowRequestRepository" style="stroke:#181818;stroke-width:1.0;stroke-dasharray:7.0,7.0;"/><polygon fill="#181818" points="3732.68,803.0588,3727.532,811.455,3732.0229,808.0154,3735.4626,812.5064,3732.68,803.0588" style="stroke:#181818;stroke-width:1.0;"/><text fill="#000000" font-family="sans-serif" font-size="20" lengthAdjust="spacing" textLength="171" x="2210" y="1377.0547">getShowRequest()</text></g><!--link EditShowRequestController to ShowRequestRepository--><g id="link_EditShowRequestController_ShowRequestRepository"><path codeLine="127" d="M842.71,1268.0288 C898.79,1309.8388 974.68,1359.5988 1050,1387.7188 C1244.87,1460.4888 1305.48,1452.7188 1513.5,1452.7188 C1513.5,1452.7188 1513.5,1452.7188 3184.5,1452.7188 C3307.25,1452.7188 3358.44,1480.8888 3457,1407.7188 C3657.78,1258.6688 3716.68,936.7688 3732.58,807.7988 " fill="none" id="EditShowRequestController-to-ShowRequestRepository-1" style="stroke:#181818;stroke-width:1.0;stroke-dasharray:7.0,7.0;"/><polygon fill="#181818" points="3733.16,802.9388,3728.1075,811.3929,3732.5592,807.9025,3736.0496,812.3542,3733.16,802.9388" style="stroke:#181818;stroke-width:1.0;"/><text fill="#000000" font-family="sans-serif" font-size="20" lengthAdjust="spacing" textLength="182" x="2204.5" y="1448.0547">save(showRequest)</text></g><!--link EditShowRequestController to CustomerRepository--><g id="link_EditShowRequestController_CustomerRepository"><path codeLine="128" d="M1018.3,1260.0988 C1028.98,1262.0988 1039.58,1263.9888 1050,1265.7188 C1254.17,1299.6087 1306.53,1310.7188 1513.5,1310.7188 C1513.5,1310.7188 1513.5,1310.7188 3184.5,1310.7188 C3320.86,1310.7188 3396.29,1366.6288 3488,1265.7188 C3574.65,1170.3788 3435.9,786.0088 3518,686.7188 C3523.49,680.0788 3529.66,674.1788 3536.34,668.9388 " fill="none" id="EditShowRequestController-to-CustomerRepository" style="stroke:#181818;stroke-width:1.0;stroke-dasharray:7.0,7.0;"/><polygon fill="#181818" points="3540.33,665.9688,3530.7213,668.1304,3536.318,668.9527,3535.4957,674.5495,3540.33,665.9688" style="stroke:#181818;stroke-width:1.0;"/><text fill="#000000" font-family="sans-serif" font-size="20" lengthAdjust="spacing" textLength="147" x="2222" y="1306.0547">getCustomers()</text></g><!--link EditShowRequestController to UsersRepository--><g id="link_EditShowRequestController_UsersRepository"><path codeLine="129" d="M1018.28,1218.5588 C1164.19,1229.2688 1348.73,1239.7188 1513.5,1239.7188 C1513.5,1239.7188 1513.5,1239.7188 3184.5,1239.7188 C3407.01,1239.7188 3367.95,1023.6388 3457,819.7188 C3501.22,718.4588 3439.76,656.7288 3518,578.7188 C3536.58,560.1888 3560.4,547.5787 3585.48,539.0687 " fill="none" id="EditShowRequestController-to-UsersRepository" style="stroke:#181818;stroke-width:1.0;stroke-dasharray:7.0,7.0;"/><polygon fill="#181818" points="3590.09,537.5687,3580.2922,536.567,3585.3381,539.1242,3582.7809,544.1701,3590.09,537.5687" style="stroke:#181818;stroke-width:1.0;"/><text fill="#000000" font-family="sans-serif" font-size="20" lengthAdjust="spacing" textLength="97" x="2247" y="1235.0547">getUsers()</text></g><!--link ShowRequestRepository to ShowRequest--><g id="link_ShowRequestRepository_ShowRequest"><path codeLine="132" d="M3840.98,801.7488 C3897.57,829.2188 3967.25,863.0588 4020.46,888.8888 " fill="none" id="ShowRequestRepository-to-ShowRequest" style="stroke:#181818;stroke-width:1.0;stroke-dasharray:7.0,7.0;"/><polygon fill="#181818" points="4024.84,891.0188,4018.492,883.4886,4020.3425,888.8342,4014.9968,890.6846,4024.84,891.0188" style="stroke:#181818;stroke-width:1.0;"/></g><!--link CustomerRepository to Customer--><g id="link_CustomerRepository_Customer"><path codeLine="133" d="M3936.41,632.7188 C4101.61,632.7188 4328.25,632.7188 4440.21,632.7188 " fill="none" id="CustomerRepository-to-Customer" style="stroke:#181818;stroke-width:1.0;stroke-dasharray:7.0,7.0;"/><polygon fill="#181818" points="4444.92,632.7188,4435.92,628.7188,4439.92,632.7188,4435.92,636.7188,4444.92,632.7188" style="stroke:#181818;stroke-width:1.0;"/></g><!--link UsersRepository to CRMCollaborator--><g id="link_UsersRepository_CRMCollaborator"><path codeLine="134" d="M3886.36,516.2887 C4037.79,508.6088 4270.5,496.7987 4404.23,490.0087 " fill="none" id="UsersRepository-to-CRMCollaborator" style="stroke:#181818;stroke-width:1.0;stroke-dasharray:7.0,7.0;"/><polygon fill="#181818" points="4409.01,489.7687,4399.8164,486.2363,4404.0166,490.0256,4400.2273,494.2257,4409.01,489.7687" style="stroke:#181818;stroke-width:1.0;"/></g><!--link RepositoryFactory to ShowRequestRepository--><g id="link_RepositoryFactory_ShowRequestRepository"><path codeLine="137" d="M3457.2,747.1388 C3475.46,747.4988 3493.75,747.8688 3511.74,748.2188 " fill="none" id="RepositoryFactory-to-ShowRequestRepository" style="stroke:#181818;stroke-width:1.0;stroke-dasharray:7.0,7.0;"/><polygon fill="#181818" points="3516.32,748.3088,3507.402,744.1291,3511.321,748.2085,3507.2416,752.1275,3516.32,748.3088" style="stroke:#181818;stroke-width:1.0;"/></g><!--link RepositoryFactory to CustomerRepository--><g id="link_RepositoryFactory_CustomerRepository"><path codeLine="138" d="M3457.13,690.7788 C3467.56,688.7488 3477.88,686.7188 3488,684.7188 C3509.66,680.4288 3532.36,675.8488 3554.88,671.2388 " fill="none" id="RepositoryFactory-to-CustomerRepository" style="stroke:#181818;stroke-width:1.0;stroke-dasharray:7.0,7.0;"/><polygon fill="#181818" points="3559.74,670.2388,3550.1219,668.1192,3554.841,671.2386,3551.7216,675.9576,3559.74,670.2388" style="stroke:#181818;stroke-width:1.0;"/></g><!--link RepositoryFactory to UsersRepository--><g id="link_RepositoryFactory_UsersRepository"><path codeLine="139" d="M3293.88,681.0288 C3357.78,647.4188 3440.81,606.8788 3518,578.7188 C3539.56,570.8588 3562.71,563.7188 3585.6,557.3888 " fill="none" id="RepositoryFactory-to-UsersRepository" style="stroke:#181818;stroke-width:1.0;stroke-dasharray:7.0,7.0;"/><polygon fill="#181818" points="3590.27,556.1088,3580.5354,554.6129,3585.4455,557.4219,3582.6365,562.332,3590.27,556.1088" style="stroke:#181818;stroke-width:1.0;"/></g><!--link PersistenceContext to RepositoryFactory--><g id="link_PersistenceContext_RepositoryFactory"><path codeLine="142" d="M1730.29,790.5088 C1855.08,797.8288 2015.36,806.0588 2158,809.7188 C2280.18,812.8588 2310.9,815.2488 2433,809.7188 C2588.94,802.6588 2762.57,787.3788 2903.42,773.0888 " fill="none" id="PersistenceContext-to-RepositoryFactory" style="stroke:#181818;stroke-width:1.0;stroke-dasharray:7.0,7.0;"/><polygon fill="#181818" points="2908.17,772.6088,2898.8149,769.5295,2903.1951,773.1091,2899.6155,777.4893,2908.17,772.6088" style="stroke:#181818;stroke-width:1.0;"/><text fill="#000000" font-family="sans-serif" font-size="20" lengthAdjust="spacing" textLength="273" x="2159" y="805.0547">getShowRequestRepository()</text></g><!--link PersistenceContext to RepositoryFactory--><g id="link_PersistenceContext_RepositoryFactory"><path codeLine="143" d="M1730.35,812.5288 C1744.09,814.4088 1757.73,816.1588 1771,817.7188 C2245.07,873.4188 2372.72,886.0088 2845,816.7188 C2869.88,813.0688 2895.65,808.6088 2921.36,803.6888 " fill="none" id="PersistenceContext-to-RepositoryFactory-1" style="stroke:#181818;stroke-width:1.0;stroke-dasharray:7.0,7.0;"/><polygon fill="#181818" points="2926.06,802.7888,2916.4663,800.5614,2921.1501,803.7335,2917.9779,808.4173,2926.06,802.7888" style="stroke:#181818;stroke-width:1.0;"/><text fill="#000000" font-family="sans-serif" font-size="20" lengthAdjust="spacing" textLength="239" x="2176" y="854.0547">getCustomerRepository()</text></g><!--link PersistenceContext to RepositoryFactory--><g id="link_PersistenceContext_RepositoryFactory"><path codeLine="144" d="M1730.26,767.7088 C1740.99,767.3588 1751.62,767.0188 1762,766.7188 C2158.33,755.1888 2617.03,748.2888 2903.49,744.7388 " fill="none" id="PersistenceContext-to-RepositoryFactory-2" style="stroke:#181818;stroke-width:1.0;stroke-dasharray:7.0,7.0;"/><polygon fill="#181818" points="2908.29,744.6788,2899.2449,740.7819,2903.2903,744.7359,2899.3363,748.7813,2908.29,744.6788" style="stroke:#181818;stroke-width:1.0;"/><text fill="#000000" font-family="sans-serif" font-size="20" lengthAdjust="spacing" textLength="199" x="2196" y="748.0547">getUsersRepository()</text></g><!--link PersistenceContext to JpaRepositoryFactory--><g id="link_PersistenceContext_JpaRepositoryFactory"><path codeLine="145" d="M1595.06,739.5288 C1666.1,706.3288 1770.86,657.3588 1850.02,620.3588 " fill="none" id="PersistenceContext-to-JpaRepositoryFactory" style="stroke:#181818;stroke-width:1.0;stroke-dasharray:7.0,7.0;"/><polygon fill="#181818" points="1854.31,618.3588,1844.4628,618.5417,1849.7794,620.474,1847.8472,625.7906,1854.31,618.3588" style="stroke:#181818;stroke-width:1.0;"/></g><!--link PersistenceContext to InMemoryRepositoryFactory--><g id="link_PersistenceContext_InMemoryRepositoryFactory"><path codeLine="146" d="M1534.69,739.6988 C1573.5,666.7488 1666.53,501.1188 1771,381.7188 C1806.19,341.5087 1851.51,302.3988 1889,272.6888 " fill="none" id="PersistenceContext-to-InMemoryRepositoryFactory" style="stroke:#181818;stroke-width:1.0;stroke-dasharray:7.0,7.0;"/><polygon fill="#181818" points="1892.82,269.6788,1883.2812,272.1307,1888.9004,272.783,1888.248,278.4021,1892.82,269.6788" style="stroke:#181818;stroke-width:1.0;"/></g><!--link JpaShowRequestRepository to ShowRequestRepository--><g id="link_JpaShowRequestRepository_ShowRequestRepository"><path codeLine="149" d="M2788.95,593.4988 C2953.29,597.1188 3227.39,611.4588 3457,663.7188 C3485.25,670.1488 3490.55,677.4388 3518,686.7188 C3528.43,690.2488 3539.18,693.7788 3550.04,697.2788 " fill="none" id="JpaShowRequestRepository-to-ShowRequestRepository" style="stroke:#181818;stroke-width:1.0;"/><polygon fill="none" points="3551.97,690.5488,3568.91,703.2788,3547.73,703.8888,3551.97,690.5488" style="stroke:#181818;stroke-width:1.0;"/></g><!--link JpaCustomersRepository to CustomerRepository--><g id="link_JpaCustomersRepository_CustomerRepository"><path codeLine="150" d="M2776.65,515.7987 C2943.63,526.8387 3237.85,549.3988 3488,584.7188 C3503.13,586.8588 3518.73,589.2888 3534.4,591.8988 " fill="none" id="JpaCustomersRepository-to-CustomerRepository" style="stroke:#181818;stroke-width:1.0;"/><polygon fill="none" points="3535.37,584.9688,3553.9,595.2388,3533,598.7688,3535.37,584.9688" style="stroke:#181818;stroke-width:1.0;"/></g><!--link JpaUsersRepository to UsersRepository--><g id="link_JpaUsersRepository_UsersRepository"><path codeLine="151" d="M2751.91,405.7388 C2914.35,383.8588 3228.76,354.8488 3488,410.7188 C3547.24,423.4888 3609.34,451.4688 3656.83,476.3988 " fill="none" id="JpaUsersRepository-to-UsersRepository" style="stroke:#181818;stroke-width:1.0;"/><polygon fill="none" points="3659.95,470.1188,3674.25,485.7587,3653.32,482.4588,3659.95,470.1188" style="stroke:#181818;stroke-width:1.0;"/></g><!--link JpaRepositoryFactory to RepositoryFactory--><g id="link_JpaRepositoryFactory_RepositoryFactory"><path codeLine="152" d="M2128.3,592.2288 C2323.27,619.8788 2650.45,666.2688 2888.69,700.0588 " fill="none" id="JpaRepositoryFactory-to-RepositoryFactory" style="stroke:#181818;stroke-width:1.0;stroke-dasharray:7.0,7.0;"/><polygon fill="none" points="2889.34,693.0788,2908.15,702.8188,2887.37,706.9388,2889.34,693.0788" style="stroke:#181818;stroke-width:1.0;"/></g><!--link JpaRepositoryFactory to JpaShowRequestRepository--><g id="link_JpaRepositoryFactory_JpaShowRequestRepository"><path codeLine="153" d="M2128.48,574.5887 C2238.49,578.4788 2381.74,583.5487 2488.81,587.3388 " fill="none" id="JpaRepositoryFactory-to-JpaShowRequestRepository" style="stroke:#181818;stroke-width:1.0;stroke-dasharray:7.0,7.0;"/><polygon fill="#181818" points="2493.65,587.5088,2484.8047,583.1775,2488.6534,587.3232,2484.5077,591.1719,2493.65,587.5088" style="stroke:#181818;stroke-width:1.0;"/></g><!--link JpaRepositoryFactory to JpaCustomersRepository--><g id="link_JpaRepositoryFactory_JpaCustomersRepository"><path codeLine="154" d="M2128.48,553.7987 C2242.63,543.5387 2392.55,530.0587 2500.73,520.3287 " fill="none" id="JpaRepositoryFactory-to-JpaCustomersRepository" style="stroke:#181818;stroke-width:1.0;stroke-dasharray:7.0,7.0;"/><polygon fill="#181818" points="2505.63,519.8888,2496.3114,516.7007,2500.6496,520.3311,2497.0192,524.6694,2505.63,519.8888" style="stroke:#181818;stroke-width:1.0;"/></g><!--link JpaRepositoryFactory to JpaUsersRepository--><g id="link_JpaRepositoryFactory_JpaUsersRepository"><path codeLine="155" d="M2128.48,532.9988 C2251.79,506.4688 2416.85,470.9488 2525.93,447.4788 " fill="none" id="JpaRepositoryFactory-to-JpaUsersRepository" style="stroke:#181818;stroke-width:1.0;stroke-dasharray:7.0,7.0;"/><polygon fill="#181818" points="2530.57,446.4788,2520.9333,444.4456,2525.6802,447.5225,2522.6033,452.2694,2530.57,446.4788" style="stroke:#181818;stroke-width:1.0;"/></g><!--link InMemoryShowRequestRepository to ShowRequestRepository--><g id="link_InMemoryShowRequestRepository_ShowRequestRepository"><path codeLine="158" d="M2809.77,269.0988 C2822.87,276.0887 2834.91,284.8287 2845,295.7188 C2874.44,327.5087 2834.02,358.6288 2862,391.7188 C3043.26,606.0888 3231.77,436.1488 3457,603.7188 C3493.73,631.0488 3480.59,660.3388 3518,686.7188 C3521.19,688.9688 3524.46,691.1488 3527.8,693.2488 " fill="none" id="InMemoryShowRequestRepository-to-ShowRequestRepository" style="stroke:#181818;stroke-width:1.0;"/><polygon fill="none" points="3531.03,687.0288,3544.9,703.0488,3524.07,699.1788,3531.03,687.0288" style="stroke:#181818;stroke-width:1.0;"/></g><!--link InMemoryCustomersRepository to CustomerRepository--><g id="link_InMemoryCustomersRepository_CustomerRepository"><path codeLine="159" d="M2795.54,184.2088 C3013.3,223.7887 3397.07,306.4488 3488,410.7188 C3537.56,467.5587 3466.5,522.6288 3518,577.7188 C3520.23,580.0988 3522.54,582.3888 3524.93,584.5787 " fill="none" id="InMemoryCustomersRepository-to-CustomerRepository" style="stroke:#181818;stroke-width:1.0;"/><polygon fill="none" points="3529.13,578.9688,3540.57,596.8088,3520.5,589.9988,3529.13,578.9688" style="stroke:#181818;stroke-width:1.0;"/></g><!--link InMemoryUsersRepository to UsersRepository--><g id="link_InMemoryUsersRepository_UsersRepository"><path codeLine="160" d="M2784.38,64.0787 C2961.24,58.6088 3267.61,71.3988 3488,200.7188 C3595.84,263.9988 3673.73,393.3488 3711.77,467.7288 " fill="none" id="InMemoryUsersRepository-to-UsersRepository" style="stroke:#181818;stroke-width:1.0;"/><polygon fill="none" points="3717.89,464.3287,3720.54,485.3588,3705.36,470.5687,3717.89,464.3287" style="stroke:#181818;stroke-width:1.0;"/></g><!--link InMemoryRepositoryFactory to RepositoryFactory--><g id="link_InMemoryRepositoryFactory_RepositoryFactory"><path codeLine="161" d="M2128.5,244.8588 C2377.45,283.3287 2821.12,355.1088 2845,381.7188 C2879.24,419.8588 2831.82,570.2987 2862,611.7188 C2879.07,635.1488 2901.1,654.3688 2925.62,670.1288 " fill="none" id="InMemoryRepositoryFactory-to-RepositoryFactory" style="stroke:#181818;stroke-width:1.0;stroke-dasharray:7.0,7.0;"/><polygon fill="none" points="2928.97,663.9788,2942.57,680.2288,2921.81,676.0088,2928.97,663.9788" style="stroke:#181818;stroke-width:1.0;"/></g><!--link InMemoryRepositoryFactory to InMemoryShowRequestRepository--><g id="link_InMemoryRepositoryFactory_InMemoryShowRequestRepository"><path codeLine="162" d="M2128.48,225.5887 C2227.72,229.0988 2354,233.5687 2456.38,237.1888 " fill="none" id="InMemoryRepositoryFactory-to-InMemoryShowRequestRepository" style="stroke:#181818;stroke-width:1.0;stroke-dasharray:7.0,7.0;"/><polygon fill="#181818" points="2461.26,237.3588,2452.4151,233.0265,2456.2635,237.1726,2452.1173,241.021,2461.26,237.3588" style="stroke:#181818;stroke-width:1.0;"/></g><!--link InMemoryRepositoryFactory to InMemoryCustomersRepository--><g id="link_InMemoryRepositoryFactory_InMemoryCustomersRepository"><path codeLine="163" d="M2128.48,204.7987 C2231.66,195.5187 2364.08,183.6188 2468.47,174.2288 " fill="none" id="InMemoryRepositoryFactory-to-InMemoryCustomersRepository" style="stroke:#181818;stroke-width:1.0;stroke-dasharray:7.0,7.0;"/><polygon fill="#181818" points="2473.17,173.8087,2463.8424,170.6472,2468.1909,174.2653,2464.5728,178.6138,2473.17,173.8087" style="stroke:#181818;stroke-width:1.0;"/></g><!--link InMemoryRepositoryFactory to InMemoryUsersRepository--><g id="link_InMemoryRepositoryFactory_InMemoryUsersRepository"><path codeLine="164" d="M2128.48,183.9987 C2248.32,158.2188 2407.6,123.9388 2516.6,100.4887 " fill="none" id="InMemoryRepositoryFactory-to-InMemoryUsersRepository" style="stroke:#181818;stroke-width:1.0;stroke-dasharray:7.0,7.0;"/><polygon fill="#181818" points="2521.25,99.4887,2511.6076,97.4825,2516.3631,100.5462,2513.2995,105.3016,2521.25,99.4887" style="stroke:#181818;stroke-width:1.0;"/></g><!--SRC=[fLTTJzim57tthx2w1uecgcsFKHK9jI053S7ekjV9JM_1a2zYPuC1_trEsZIEVUssa9SszhaVvzpusXOFF2jOoT8aZnzWIPUmObKYp_DCplW_eD- -406I2gX1CYzfbcT04bX9AdDQyjixIPUyX5ZoF2EaOF43kmKwc4S3-cdQFFI5KFN42HE2dYsvdDtbVs_WiG8Xvn4TZ-TH66v0zVEPGXyq5Dt_OmrM3qyg8VCKId6QBMUGg3o69aJpr87YZTqQ_4RUjDmdYdoP9mcKUt7eu8fBz_8-JWbN3bjEm-E0HX9AjaXWt8w61bftkcMbsMdp8KAsK76K5yXY6F6qI4Rt1SDfNnJi1efSSFKPF9-pkFxf69wWyxrYt8ACCY6P2bKpiy2RxFeXjVGxWnSKkjLj5t0kK91N5fwba2emhasKNJQpNe6Se0-grFhTLweMlvzUBVemqN2PhZj0lL3WIVRMYAAEQ4FT8kZ1ftdAU6R6tKvtBgY9gPz8PLEkM0nsB0srJHELkaaLdR4TjDeRrlQmRMeKeh4pnhP6cqhs6Q8fxc0vzBOKhU6oFz3hRJr5_7dPvB6a_DrHXFuOXb1OW0RISzwCw8wjHJAvkPoehiyM-NgN78_FCidbSnWYAwhDrO_wdiUitbGLwXTBAg1NYtkrSnbOoAfKLtWccQo4tsRjlpQQWeXBNkmEqvbiulXp_ybJsCVXbCczS3ygrWIxMarBTVvmyrDMHtgM9o5z8hq1DJBuEh3O1-haitr3BSmI1rHKYvHBgKvDYsVSP5FeW9Rh6JUqhNP0YqHzfywSUsNU-bs_eaPDAHIxgcHEQaqP51_9IbdZKP1PWu0-PlBtilclL9z7n3xRZKQX-xIaZBGNzw6gTe9i785ZkzZXoMxlWQiVVyoJUA-3JV_POOmtyS1gs-zqO_Nn7NwGtdsW6cPdxcb1ZhJD3S_PO4EGZFH4YHclcUolyLxOzkHXLysfemEBRF8uqDpLoP6z3WYoD3mVb-FWSg0NTBKSvi8wnRZiiMk52-iyOVUbkxW-9QwhXUfthwvoudUCjGLILFkciOQQPSKOAZgZqIkYdWiTEYzBNWk4ZnVl_IHR-OdtHk9Js7CrSShikA3WMZk_4EhIssSH-kzUUzfYDTZFqcJt7m00]--></g></svg>