<?xml version="1.0" encoding="UTF-8" standalone="no"?><svg xmlns="http://www.w3.org/2000/svg" xmlns:xlink="http://www.w3.org/1999/xlink" contentStyleType="text/css" height="1528px" preserveAspectRatio="none" style="width:1794px;height:1528px;background:#FFFFFF;" version="1.1" viewBox="0 0 1794 1528" width="1794px" zoomAndPan="magnify"><defs/><g><!--cluster Persistence --><g id="cluster_Persistence "><path d="M596.5,420.8945 L714.5,420.8945 A3.75,3.75 0 0 1 717,423.3945 L724,452.0508 L1029.5,452.0508 A2.5,2.5 0 0 1 1032,454.5508 L1032,554.3945 A2.5,2.5 0 0 1 1029.5,556.8945 L596.5,556.8945 A2.5,2.5 0 0 1 594,554.3945 L594,423.3945 A2.5,2.5 0 0 1 596.5,420.8945 " fill="#DDDDDD" style="stroke:#000000;stroke-width:1.5;"/><line style="stroke:#000000;stroke-width:1.5;" x1="594" x2="724" y1="452.0508" y2="452.0508"/><text fill="#000000" font-family="sans-serif" font-size="20" font-weight="bold" lengthAdjust="spacing" textLength="111" x="598" y="443.6563">Persistence</text></g><!--cluster persistence.impl.jpa--><g id="cluster_persistence.impl.jpa"><path d="M1022.5,615.8945 L1212.5,615.8945 A3.75,3.75 0 0 1 1215,618.3945 L1222,647.0508 L1469.5,647.0508 A2.5,2.5 0 0 1 1472,649.5508 L1472,980.8945 A2.5,2.5 0 0 1 1469.5,983.3945 L1022.5,983.3945 A2.5,2.5 0 0 1 1020,980.8945 L1020,618.3945 A2.5,2.5 0 0 1 1022.5,615.8945 " fill="#DDDDDD" style="stroke:#000000;stroke-width:1.5;"/><line style="stroke:#000000;stroke-width:1.5;" x1="1020" x2="1222" y1="647.0508" y2="647.0508"/><text fill="#000000" font-family="sans-serif" font-size="20" font-weight="bold" lengthAdjust="spacing" textLength="189" x="1024" y="638.6563">persistence.impl.jpa</text></g><!--cluster persistence.impl.inmemory--><g id="cluster_persistence.impl.inmemory"><path d="M8.5,615.8945 L263.5,615.8945 A3.75,3.75 0 0 1 266,618.3945 L273,647.0508 L455.5,647.0508 A2.5,2.5 0 0 1 458,649.5508 L458,980.8945 A2.5,2.5 0 0 1 455.5,983.3945 L8.5,983.3945 A2.5,2.5 0 0 1 6,980.8945 L6,618.3945 A2.5,2.5 0 0 1 8.5,615.8945 " fill="#DDDDDD" style="stroke:#000000;stroke-width:1.5;"/><line style="stroke:#000000;stroke-width:1.5;" x1="6" x2="273" y1="647.0508" y2="647.0508"/><text fill="#000000" font-family="sans-serif" font-size="20" font-weight="bold" lengthAdjust="spacing" textLength="254" x="10" y="638.6563">persistence.impl.inmemory</text></g><!--cluster Domain--><g id="cluster_Domain"><path d="M484.5,807.8945 L556.5,807.8945 A3.75,3.75 0 0 1 559,810.3945 L566,839.0508 L993.5,839.0508 A2.5,2.5 0 0 1 996,841.5508 L996,1519.3945 A2.5,2.5 0 0 1 993.5,1521.8945 L484.5,1521.8945 A2.5,2.5 0 0 1 482,1519.3945 L482,810.3945 A2.5,2.5 0 0 1 484.5,807.8945 " fill="#DDDDDD" style="stroke:#000000;stroke-width:1.5;"/><line style="stroke:#000000;stroke-width:1.5;" x1="482" x2="566" y1="839.0508" y2="839.0508"/><text fill="#000000" font-family="sans-serif" font-size="20" font-weight="bold" lengthAdjust="spacing" textLength="71" x="486" y="830.6563">Domain</text></g><!--cluster Repository --><g id="cluster_Repository "><path d="M508.5,859.8945 L618.5,859.8945 A3.75,3.75 0 0 1 621,862.3945 L628,891.0508 L969.5,891.0508 A2.5,2.5 0 0 1 972,893.5508 L972,1130.3945 A2.5,2.5 0 0 1 969.5,1132.8945 L508.5,1132.8945 A2.5,2.5 0 0 1 506,1130.3945 L506,862.3945 A2.5,2.5 0 0 1 508.5,859.8945 " fill="#DDDDDD" style="stroke:#000000;stroke-width:1.5;"/><line style="stroke:#000000;stroke-width:1.5;" x1="506" x2="628" y1="891.0508" y2="891.0508"/><text fill="#000000" font-family="sans-serif" font-size="20" font-weight="bold" lengthAdjust="spacing" textLength="103" x="510" y="882.6563">Repository</text></g><!--cluster UI--><g id="cluster_UI"><path d="M656.5,6.8945 L676.5,6.8945 A3.75,3.75 0 0 1 679,9.3945 L686,38.0508 L969.5,38.0508 A2.5,2.5 0 0 1 972,40.5508 L972,165.3945 A2.5,2.5 0 0 1 969.5,167.8945 L656.5,167.8945 A2.5,2.5 0 0 1 654,165.3945 L654,9.3945 A2.5,2.5 0 0 1 656.5,6.8945 " fill="#DDDDDD" style="stroke:#000000;stroke-width:1.5;"/><line style="stroke:#000000;stroke-width:1.5;" x1="654" x2="686" y1="38.0508" y2="38.0508"/><text fill="#000000" font-family="sans-serif" font-size="20" font-weight="bold" lengthAdjust="spacing" textLength="19" x="658" y="29.6563">UI</text></g><!--cluster Controller--><g id="cluster_Controller"><path d="M654.5,200.8945 L749.5,200.8945 A3.75,3.75 0 0 1 752,203.3945 L759,232.0508 L971.5,232.0508 A2.5,2.5 0 0 1 974,234.5508 L974,359.3945 A2.5,2.5 0 0 1 971.5,361.8945 L654.5,361.8945 A2.5,2.5 0 0 1 652,359.3945 L652,203.3945 A2.5,2.5 0 0 1 654.5,200.8945 " fill="#DDDDDD" style="stroke:#000000;stroke-width:1.5;"/><line style="stroke:#000000;stroke-width:1.5;" x1="652" x2="759" y1="232.0508" y2="232.0508"/><text fill="#000000" font-family="sans-serif" font-size="20" font-weight="bold" lengthAdjust="spacing" textLength="94" x="656" y="223.6563">Controller</text></g><!--class PersistenceContext--><g id="elem_PersistenceContext"><rect codeLine="4" fill="#F1F1F1" height="76.3125" id="PersistenceContext" rx="2.5" ry="2.5" style="stroke:#181818;stroke-width:0.5;" width="405" x="610.5" y="464.8945"/><ellipse cx="723.5" cy="482.4727" fill="#ADD1B2" rx="12" ry="12" style="stroke:#181818;stroke-width:1.0;"/><path d="M725.6406,477.3945 Q725.8281,477.1445 726.0469,477.0195 Q726.2656,476.8789 726.5156,476.8789 Q726.9531,476.8789 727.2344,477.1914 Q727.5156,477.4883 727.5156,478.207 L727.5156,479.9102 Q727.5156,480.6289 727.2344,480.9414 Q726.9531,481.2539 726.5156,481.2539 Q726.125,481.2539 725.875,481.0195 Q725.625,480.8008 725.5156,480.1914 Q725.4531,479.7695 725.2344,479.5508 Q724.8438,479.1133 724.125,478.8477 Q723.4063,478.582 722.6875,478.582 Q721.7813,478.582 721.0313,478.9727 Q720.2813,479.3633 719.7031,480.2539 Q719.125,481.1289 719.125,482.332 L719.125,483.6289 Q719.125,485.082 720.1719,486.0508 Q721.2344,487.0195 723.0938,487.0195 Q724.2031,487.0195 724.9844,486.707 Q725.4219,486.5352 725.9375,486.0195 Q726.25,485.707 726.4219,485.6133 Q726.5938,485.5195 726.8281,485.5195 Q727.2188,485.5195 727.5156,485.832 Q727.8281,486.1289 727.8281,486.5352 Q727.8281,486.9414 727.4219,487.4102 Q726.8281,488.0977 725.8906,488.4883 Q724.625,489.0195 723.1094,489.0195 Q721.3281,489.0195 719.9063,488.2852 Q718.75,487.6914 717.9375,486.4258 Q717.125,485.1602 717.125,483.6758 L717.125,482.3164 Q717.125,480.7539 717.8438,479.4102 Q718.5781,478.0508 719.8594,477.3164 Q721.1563,476.582 722.6094,476.582 Q723.4688,476.582 724.2188,476.7852 Q724.9844,476.9883 725.6406,477.3945 Z " fill="#000000"/><text fill="#000000" font-family="sans-serif" font-size="20" lengthAdjust="spacing" textLength="170" x="745.5" y="490.6563">PersistenceContext</text><line style="stroke:#181818;stroke-width:0.5;" x1="611.5" x2="1014.5" y1="500.0508" y2="500.0508"/><line style="stroke:#181818;stroke-width:0.5;" x1="611.5" x2="1014.5" y1="508.0508" y2="508.0508"/><ellipse cx="621.5" cy="526.1289" fill="#84BE84" rx="3" ry="3" style="stroke:#038048;stroke-width:1.0;"/><text fill="#000000" font-family="sans-serif" font-size="20" lengthAdjust="spacing" textLength="378" x="631.5" y="532.8125">getRepositoryFactory(): RepositoryFactory</text></g><!--class JpaRepositoryFactory--><g id="elem_JpaRepositoryFactory"><rect codeLine="10" fill="#F1F1F1" height="101.4688" id="JpaRepositoryFactory" rx="2.5" ry="2.5" style="stroke:#181818;stroke-width:0.5;" width="317" x="1036.5" y="659.8945"/><ellipse cx="1093.5" cy="677.4727" fill="#ADD1B2" rx="12" ry="12" style="stroke:#181818;stroke-width:1.0;"/><path d="M1095.6406,672.3945 Q1095.8281,672.1445 1096.0469,672.0195 Q1096.2656,671.8789 1096.5156,671.8789 Q1096.9531,671.8789 1097.2344,672.1914 Q1097.5156,672.4883 1097.5156,673.207 L1097.5156,674.9102 Q1097.5156,675.6289 1097.2344,675.9414 Q1096.9531,676.2539 1096.5156,676.2539 Q1096.125,676.2539 1095.875,676.0195 Q1095.625,675.8008 1095.5156,675.1914 Q1095.4531,674.7695 1095.2344,674.5508 Q1094.8438,674.1133 1094.125,673.8477 Q1093.4063,673.582 1092.6875,673.582 Q1091.7813,673.582 1091.0313,673.9727 Q1090.2813,674.3633 1089.7031,675.2539 Q1089.125,676.1289 1089.125,677.332 L1089.125,678.6289 Q1089.125,680.082 1090.1719,681.0508 Q1091.2344,682.0195 1093.0938,682.0195 Q1094.2031,682.0195 1094.9844,681.707 Q1095.4219,681.5352 1095.9375,681.0195 Q1096.25,680.707 1096.4219,680.6133 Q1096.5938,680.5195 1096.8281,680.5195 Q1097.2188,680.5195 1097.5156,680.832 Q1097.8281,681.1289 1097.8281,681.5352 Q1097.8281,681.9414 1097.4219,682.4102 Q1096.8281,683.0977 1095.8906,683.4883 Q1094.625,684.0195 1093.1094,684.0195 Q1091.3281,684.0195 1089.9063,683.2852 Q1088.75,682.6914 1087.9375,681.4258 Q1087.125,680.1602 1087.125,678.6758 L1087.125,677.3164 Q1087.125,675.7539 1087.8438,674.4102 Q1088.5781,673.0508 1089.8594,672.3164 Q1091.1563,671.582 1092.6094,671.582 Q1093.4688,671.582 1094.2188,671.7852 Q1094.9844,671.9883 1095.6406,672.3945 Z " fill="#000000"/><text fill="#000000" font-family="sans-serif" font-size="20" lengthAdjust="spacing" textLength="194" x="1115.5" y="685.6563">JpaRepositoryFactory</text><line style="stroke:#181818;stroke-width:0.5;" x1="1037.5" x2="1352.5" y1="695.0508" y2="695.0508"/><line style="stroke:#181818;stroke-width:0.5;" x1="1037.5" x2="1352.5" y1="703.0508" y2="703.0508"/><rect fill="#F24D5C" height="6" style="stroke:#C82930;stroke-width:1.0;" width="6" x="1044.5" y="718.1289"/><text fill="#000000" font-family="sans-serif" font-size="20" lengthAdjust="spacing" textLength="208" x="1057.5" y="727.8125">JpaRepositoryFactory()</text><ellipse cx="1047.5" cy="746.2852" fill="#84BE84" rx="3" ry="3" style="stroke:#038048;stroke-width:1.0;"/><text fill="#000000" font-family="sans-serif" font-size="20" lengthAdjust="spacing" textLength="290" x="1057.5" y="752.9688">getInstance(): RepositoryFactory</text></g><!--class JpaCategoryRepository--><g id="elem_JpaCategoryRepository"><rect codeLine="15" fill="#F1F1F1" height="51.1563" id="JpaCategoryRepository" rx="2.5" ry="2.5" style="stroke:#181818;stroke-width:0.5;" width="242" x="1055" y="916.3945"/><ellipse cx="1071" cy="933.9727" fill="#ADD1B2" rx="12" ry="12" style="stroke:#181818;stroke-width:1.0;"/><path d="M1073.1406,928.8945 Q1073.3281,928.6445 1073.5469,928.5195 Q1073.7656,928.3789 1074.0156,928.3789 Q1074.4531,928.3789 1074.7344,928.6914 Q1075.0156,928.9883 1075.0156,929.707 L1075.0156,931.4102 Q1075.0156,932.1289 1074.7344,932.4414 Q1074.4531,932.7539 1074.0156,932.7539 Q1073.625,932.7539 1073.375,932.5195 Q1073.125,932.3008 1073.0156,931.6914 Q1072.9531,931.2695 1072.7344,931.0508 Q1072.3438,930.6133 1071.625,930.3477 Q1070.9063,930.082 1070.1875,930.082 Q1069.2813,930.082 1068.5313,930.4727 Q1067.7813,930.8633 1067.2031,931.7539 Q1066.625,932.6289 1066.625,933.832 L1066.625,935.1289 Q1066.625,936.582 1067.6719,937.5508 Q1068.7344,938.5195 1070.5938,938.5195 Q1071.7031,938.5195 1072.4844,938.207 Q1072.9219,938.0352 1073.4375,937.5195 Q1073.75,937.207 1073.9219,937.1133 Q1074.0938,937.0195 1074.3281,937.0195 Q1074.7188,937.0195 1075.0156,937.332 Q1075.3281,937.6289 1075.3281,938.0352 Q1075.3281,938.4414 1074.9219,938.9102 Q1074.3281,939.5977 1073.3906,939.9883 Q1072.125,940.5195 1070.6094,940.5195 Q1068.8281,940.5195 1067.4063,939.7852 Q1066.25,939.1914 1065.4375,937.9258 Q1064.625,936.6602 1064.625,935.1758 L1064.625,933.8164 Q1064.625,932.2539 1065.3438,930.9102 Q1066.0781,929.5508 1067.3594,928.8164 Q1068.6563,928.082 1070.1094,928.082 Q1070.9688,928.082 1071.7188,928.2852 Q1072.4844,928.4883 1073.1406,928.8945 Z " fill="#000000"/><text fill="#000000" font-family="sans-serif" font-size="20" lengthAdjust="spacing" textLength="208" x="1086" y="942.1563">JpaCategoryRepository</text><line style="stroke:#181818;stroke-width:0.5;" x1="1056" x2="1296" y1="951.5508" y2="951.5508"/><line style="stroke:#181818;stroke-width:0.5;" x1="1056" x2="1296" y1="959.5508" y2="959.5508"/></g><!--class InMemoryRepositoryFactory--><g id="elem_InMemoryRepositoryFactory"><rect codeLine="21" fill="#F1F1F1" height="101.4688" id="InMemoryRepositoryFactory" rx="2.5" ry="2.5" style="stroke:#181818;stroke-width:0.5;" width="317" x="22.5" y="659.8945"/><ellipse cx="53.35" cy="677.4727" fill="#ADD1B2" rx="12" ry="12" style="stroke:#181818;stroke-width:1.0;"/><path d="M55.4906,672.3945 Q55.6781,672.1445 55.8969,672.0195 Q56.1156,671.8789 56.3656,671.8789 Q56.8031,671.8789 57.0844,672.1914 Q57.3656,672.4883 57.3656,673.207 L57.3656,674.9102 Q57.3656,675.6289 57.0844,675.9414 Q56.8031,676.2539 56.3656,676.2539 Q55.975,676.2539 55.725,676.0195 Q55.475,675.8008 55.3656,675.1914 Q55.3031,674.7695 55.0844,674.5508 Q54.6938,674.1133 53.975,673.8477 Q53.2563,673.582 52.5375,673.582 Q51.6313,673.582 50.8813,673.9727 Q50.1313,674.3633 49.5531,675.2539 Q48.975,676.1289 48.975,677.332 L48.975,678.6289 Q48.975,680.082 50.0219,681.0508 Q51.0844,682.0195 52.9438,682.0195 Q54.0531,682.0195 54.8344,681.707 Q55.2719,681.5352 55.7875,681.0195 Q56.1,680.707 56.2719,680.6133 Q56.4438,680.5195 56.6781,680.5195 Q57.0688,680.5195 57.3656,680.832 Q57.6781,681.1289 57.6781,681.5352 Q57.6781,681.9414 57.2719,682.4102 Q56.6781,683.0977 55.7406,683.4883 Q54.475,684.0195 52.9594,684.0195 Q51.1781,684.0195 49.7563,683.2852 Q48.6,682.6914 47.7875,681.4258 Q46.975,680.1602 46.975,678.6758 L46.975,677.3164 Q46.975,675.7539 47.6938,674.4102 Q48.4281,673.0508 49.7094,672.3164 Q51.0063,671.582 52.4594,671.582 Q53.3188,671.582 54.0688,671.7852 Q54.8344,671.9883 55.4906,672.3945 Z " fill="#000000"/><text fill="#000000" font-family="sans-serif" font-size="20" lengthAdjust="spacing" textLength="250" x="71.65" y="685.6563">InMemoryRepositoryFactory</text><line style="stroke:#181818;stroke-width:0.5;" x1="23.5" x2="338.5" y1="695.0508" y2="695.0508"/><line style="stroke:#181818;stroke-width:0.5;" x1="23.5" x2="338.5" y1="703.0508" y2="703.0508"/><rect fill="#F24D5C" height="6" style="stroke:#C82930;stroke-width:1.0;" width="6" x="30.5" y="718.1289"/><text fill="#000000" font-family="sans-serif" font-size="20" lengthAdjust="spacing" textLength="264" x="43.5" y="727.8125">InMemoryRepositoryFactory()</text><ellipse cx="33.5" cy="746.2852" fill="#84BE84" rx="3" ry="3" style="stroke:#038048;stroke-width:1.0;"/><text fill="#000000" font-family="sans-serif" font-size="20" lengthAdjust="spacing" textLength="290" x="43.5" y="752.9688">getInstance(): RepositoryFactory</text></g><!--class InMemoryCategoryRepository--><g id="elem_InMemoryCategoryRepository"><rect codeLine="26" fill="#F1F1F1" height="51.1563" id="InMemoryCategoryRepository" rx="2.5" ry="2.5" style="stroke:#181818;stroke-width:0.5;" width="298" x="116" y="916.3945"/><ellipse cx="132" cy="933.9727" fill="#ADD1B2" rx="12" ry="12" style="stroke:#181818;stroke-width:1.0;"/><path d="M134.1406,928.8945 Q134.3281,928.6445 134.5469,928.5195 Q134.7656,928.3789 135.0156,928.3789 Q135.4531,928.3789 135.7344,928.6914 Q136.0156,928.9883 136.0156,929.707 L136.0156,931.4102 Q136.0156,932.1289 135.7344,932.4414 Q135.4531,932.7539 135.0156,932.7539 Q134.625,932.7539 134.375,932.5195 Q134.125,932.3008 134.0156,931.6914 Q133.9531,931.2695 133.7344,931.0508 Q133.3438,930.6133 132.625,930.3477 Q131.9063,930.082 131.1875,930.082 Q130.2813,930.082 129.5313,930.4727 Q128.7813,930.8633 128.2031,931.7539 Q127.625,932.6289 127.625,933.832 L127.625,935.1289 Q127.625,936.582 128.6719,937.5508 Q129.7344,938.5195 131.5938,938.5195 Q132.7031,938.5195 133.4844,938.207 Q133.9219,938.0352 134.4375,937.5195 Q134.75,937.207 134.9219,937.1133 Q135.0938,937.0195 135.3281,937.0195 Q135.7188,937.0195 136.0156,937.332 Q136.3281,937.6289 136.3281,938.0352 Q136.3281,938.4414 135.9219,938.9102 Q135.3281,939.5977 134.3906,939.9883 Q133.125,940.5195 131.6094,940.5195 Q129.8281,940.5195 128.4063,939.7852 Q127.25,939.1914 126.4375,937.9258 Q125.625,936.6602 125.625,935.1758 L125.625,933.8164 Q125.625,932.2539 126.3438,930.9102 Q127.0781,929.5508 128.3594,928.8164 Q129.6563,928.082 131.1094,928.082 Q131.9688,928.082 132.7188,928.2852 Q133.4844,928.4883 134.1406,928.8945 Z " fill="#000000"/><text fill="#000000" font-family="sans-serif" font-size="20" lengthAdjust="spacing" textLength="264" x="147" y="942.1563">InMemoryCategoryRepository</text><line style="stroke:#181818;stroke-width:0.5;" x1="117" x2="413" y1="951.5508" y2="951.5508"/><line style="stroke:#181818;stroke-width:0.5;" x1="117" x2="413" y1="959.5508" y2="959.5508"/></g><!--class Category--><g id="elem_Category"><rect codeLine="45" fill="#F1F1F1" height="101.4688" id="Category" rx="2.5" ry="2.5" style="stroke:#181818;stroke-width:0.5;" width="176" x="701" y="1241.8945"/><ellipse cx="744.45" cy="1272.0508" fill="#ADD1B2" rx="12" ry="12" style="stroke:#181818;stroke-width:1.0;"/><path d="M746.5906,1266.9727 Q746.7781,1266.7227 746.9969,1266.5977 Q747.2156,1266.457 747.4656,1266.457 Q747.9031,1266.457 748.1844,1266.7695 Q748.4656,1267.0664 748.4656,1267.7852 L748.4656,1269.4883 Q748.4656,1270.207 748.1844,1270.5195 Q747.9031,1270.832 747.4656,1270.832 Q747.075,1270.832 746.825,1270.5977 Q746.575,1270.3789 746.4656,1269.7695 Q746.4031,1269.3477 746.1844,1269.1289 Q745.7938,1268.6914 745.075,1268.4258 Q744.3563,1268.1602 743.6375,1268.1602 Q742.7313,1268.1602 741.9813,1268.5508 Q741.2313,1268.9414 740.6531,1269.832 Q740.075,1270.707 740.075,1271.9102 L740.075,1273.207 Q740.075,1274.6602 741.1219,1275.6289 Q742.1844,1276.5977 744.0438,1276.5977 Q745.1531,1276.5977 745.9344,1276.2852 Q746.3719,1276.1133 746.8875,1275.5977 Q747.2,1275.2852 747.3719,1275.1914 Q747.5438,1275.0977 747.7781,1275.0977 Q748.1688,1275.0977 748.4656,1275.4102 Q748.7781,1275.707 748.7781,1276.1133 Q748.7781,1276.5195 748.3719,1276.9883 Q747.7781,1277.6758 746.8406,1278.0664 Q745.575,1278.5977 744.0594,1278.5977 Q742.2781,1278.5977 740.8563,1277.8633 Q739.7,1277.2695 738.8875,1276.0039 Q738.075,1274.7383 738.075,1273.2539 L738.075,1271.8945 Q738.075,1270.332 738.7938,1268.9883 Q739.5281,1267.6289 740.8094,1266.8945 Q742.1063,1266.1602 743.5594,1266.1602 Q744.4188,1266.1602 745.1688,1266.3633 Q745.9344,1266.5664 746.5906,1266.9727 Z " fill="#000000"/><text fill="#000000" font-family="sans-serif" font-size="20" font-style="italic" lengthAdjust="spacing" textLength="71" x="770.55" y="1267.6563">«Entity»</text><text fill="#000000" font-family="sans-serif" font-size="20" lengthAdjust="spacing" textLength="81" x="765.55" y="1292.8125">Category</text><line style="stroke:#181818;stroke-width:0.5;" x1="702" x2="876" y1="1302.207" y2="1302.207"/><line style="stroke:#181818;stroke-width:0.5;" x1="702" x2="876" y1="1310.207" y2="1310.207"/><ellipse cx="712" cy="1328.2852" fill="#84BE84" rx="3" ry="3" style="stroke:#038048;stroke-width:1.0;"/><text fill="#000000" font-family="sans-serif" font-size="20" lengthAdjust="spacing" textLength="149" x="722" y="1334.9688">Category (name)</text></g><!--class CategoryName--><g id="elem_CategoryName"><rect codeLine="49" fill="#F1F1F1" height="76.3125" id="CategoryName" rx="2.5" ry="2.5" style="stroke:#181818;stroke-width:0.5;" width="166" x="531" y="1429.8945"/><ellipse cx="547" cy="1460.0508" fill="#ADD1B2" rx="12" ry="12" style="stroke:#181818;stroke-width:1.0;"/><path d="M549.1406,1454.9727 Q549.3281,1454.7227 549.5469,1454.5977 Q549.7656,1454.457 550.0156,1454.457 Q550.4531,1454.457 550.7344,1454.7695 Q551.0156,1455.0664 551.0156,1455.7852 L551.0156,1457.4883 Q551.0156,1458.207 550.7344,1458.5195 Q550.4531,1458.832 550.0156,1458.832 Q549.625,1458.832 549.375,1458.5977 Q549.125,1458.3789 549.0156,1457.7695 Q548.9531,1457.3477 548.7344,1457.1289 Q548.3438,1456.6914 547.625,1456.4258 Q546.9063,1456.1602 546.1875,1456.1602 Q545.2813,1456.1602 544.5313,1456.5508 Q543.7813,1456.9414 543.2031,1457.832 Q542.625,1458.707 542.625,1459.9102 L542.625,1461.207 Q542.625,1462.6602 543.6719,1463.6289 Q544.7344,1464.5977 546.5938,1464.5977 Q547.7031,1464.5977 548.4844,1464.2852 Q548.9219,1464.1133 549.4375,1463.5977 Q549.75,1463.2852 549.9219,1463.1914 Q550.0938,1463.0977 550.3281,1463.0977 Q550.7188,1463.0977 551.0156,1463.4102 Q551.3281,1463.707 551.3281,1464.1133 Q551.3281,1464.5195 550.9219,1464.9883 Q550.3281,1465.6758 549.3906,1466.0664 Q548.125,1466.5977 546.6094,1466.5977 Q544.8281,1466.5977 543.4063,1465.8633 Q542.25,1465.2695 541.4375,1464.0039 Q540.625,1462.7383 540.625,1461.2539 L540.625,1459.8945 Q540.625,1458.332 541.3438,1456.9883 Q542.0781,1455.6289 543.3594,1454.8945 Q544.6563,1454.1602 546.1094,1454.1602 Q546.9688,1454.1602 547.7188,1454.3633 Q548.4844,1454.5664 549.1406,1454.9727 Z " fill="#000000"/><text fill="#000000" font-family="sans-serif" font-size="20" font-style="italic" lengthAdjust="spacing" textLength="136" x="560" y="1455.6563">«Value Object»</text><text fill="#000000" font-family="sans-serif" font-size="20" lengthAdjust="spacing" textLength="132" x="562" y="1480.8125">CategoryName</text><line style="stroke:#181818;stroke-width:0.5;" x1="532" x2="696" y1="1490.207" y2="1490.207"/><line style="stroke:#181818;stroke-width:0.5;" x1="532" x2="696" y1="1498.207" y2="1498.207"/></g><!--class CategoryDescription--><g id="elem_CategoryDescription"><rect codeLine="52" fill="#F1F1F1" height="76.3125" id="CategoryDescription" rx="2.5" ry="2.5" style="stroke:#181818;stroke-width:0.5;" width="213" x="732.5" y="1429.8945"/><ellipse cx="748.5" cy="1460.0508" fill="#ADD1B2" rx="12" ry="12" style="stroke:#181818;stroke-width:1.0;"/><path d="M750.6406,1454.9727 Q750.8281,1454.7227 751.0469,1454.5977 Q751.2656,1454.457 751.5156,1454.457 Q751.9531,1454.457 752.2344,1454.7695 Q752.5156,1455.0664 752.5156,1455.7852 L752.5156,1457.4883 Q752.5156,1458.207 752.2344,1458.5195 Q751.9531,1458.832 751.5156,1458.832 Q751.125,1458.832 750.875,1458.5977 Q750.625,1458.3789 750.5156,1457.7695 Q750.4531,1457.3477 750.2344,1457.1289 Q749.8438,1456.6914 749.125,1456.4258 Q748.4063,1456.1602 747.6875,1456.1602 Q746.7813,1456.1602 746.0313,1456.5508 Q745.2813,1456.9414 744.7031,1457.832 Q744.125,1458.707 744.125,1459.9102 L744.125,1461.207 Q744.125,1462.6602 745.1719,1463.6289 Q746.2344,1464.5977 748.0938,1464.5977 Q749.2031,1464.5977 749.9844,1464.2852 Q750.4219,1464.1133 750.9375,1463.5977 Q751.25,1463.2852 751.4219,1463.1914 Q751.5938,1463.0977 751.8281,1463.0977 Q752.2188,1463.0977 752.5156,1463.4102 Q752.8281,1463.707 752.8281,1464.1133 Q752.8281,1464.5195 752.4219,1464.9883 Q751.8281,1465.6758 750.8906,1466.0664 Q749.625,1466.5977 748.1094,1466.5977 Q746.3281,1466.5977 744.9063,1465.8633 Q743.75,1465.2695 742.9375,1464.0039 Q742.125,1462.7383 742.125,1461.2539 L742.125,1459.8945 Q742.125,1458.332 742.8438,1456.9883 Q743.5781,1455.6289 744.8594,1454.8945 Q746.1563,1454.1602 747.6094,1454.1602 Q748.4688,1454.1602 749.2188,1454.3633 Q749.9844,1454.5664 750.6406,1454.9727 Z " fill="#000000"/><text fill="#000000" font-family="sans-serif" font-size="20" font-style="italic" lengthAdjust="spacing" textLength="136" x="785" y="1455.6563">«Value Object»</text><text fill="#000000" font-family="sans-serif" font-size="20" lengthAdjust="spacing" textLength="179" x="763.5" y="1480.8125">CategoryDescription</text><line style="stroke:#181818;stroke-width:0.5;" x1="733.5" x2="944.5" y1="1490.207" y2="1490.207"/><line style="stroke:#181818;stroke-width:0.5;" x1="733.5" x2="944.5" y1="1498.207" y2="1498.207"/></g><!--class RepositoryFactory--><g id="elem_RepositoryFactory"><rect codeLine="34" fill="#F1F1F1" height="76.3125" id="RepositoryFactory" rx="2.5" ry="2.5" style="stroke:#181818;stroke-width:0.5;" width="433" x="522.5" y="903.8945"/><ellipse cx="654" cy="921.4727" fill="#B4A7E5" rx="12" ry="12" style="stroke:#181818;stroke-width:1.0;"/><path d="M655,917.6445 L655,925.4727 L657.0313,925.4727 Q657.75,925.4727 658.0469,925.7539 Q658.3594,926.0195 658.3594,926.4727 Q658.3594,926.9102 658.0469,927.1914 Q657.75,927.4727 657.0313,927.4727 L650.9844,927.4727 Q650.25,927.4727 649.9375,927.1914 Q649.6406,926.9102 649.6406,926.4727 Q649.6406,926.0195 649.9375,925.7539 Q650.25,925.4727 650.9844,925.4727 L653,925.4727 L653,917.6445 L650.9844,917.6445 Q650.25,917.6445 649.9375,917.3633 Q649.6406,917.082 649.6406,916.6289 Q649.6406,916.1758 649.9375,915.9102 Q650.25,915.6289 650.9844,915.6289 L657.0313,915.6289 Q657.75,915.6289 658.0469,915.9102 Q658.3594,916.1758 658.3594,916.6289 Q658.3594,917.082 658.0469,917.3633 Q657.75,917.6445 657.0313,917.6445 L655,917.6445 Z " fill="#000000"/><text fill="#000000" font-family="sans-serif" font-size="20" font-style="italic" lengthAdjust="spacing" textLength="161" x="676" y="929.6563">RepositoryFactory</text><line style="stroke:#181818;stroke-width:0.5;" x1="523.5" x2="954.5" y1="939.0508" y2="939.0508"/><line style="stroke:#181818;stroke-width:0.5;" x1="523.5" x2="954.5" y1="947.0508" y2="947.0508"/><ellipse cx="533.5" cy="965.1289" fill="#84BE84" rx="3" ry="3" style="stroke:#038048;stroke-width:1.0;"/><text fill="#000000" font-family="sans-serif" font-size="20" lengthAdjust="spacing" textLength="406" x="543.5" y="971.8125">getCategoryRepository(): CategoryRepository</text></g><!--class CategoryRepository--><g id="elem_CategoryRepository"><rect codeLine="38" fill="#F1F1F1" height="76.3125" id="CategoryRepository" rx="2.5" ry="2.5" style="stroke:#181818;stroke-width:0.5;" width="286" x="646" y="1040.8945"/><ellipse cx="697" cy="1058.4727" fill="#B4A7E5" rx="12" ry="12" style="stroke:#181818;stroke-width:1.0;"/><path d="M698,1054.6445 L698,1062.4727 L700.0313,1062.4727 Q700.75,1062.4727 701.0469,1062.7539 Q701.3594,1063.0195 701.3594,1063.4727 Q701.3594,1063.9102 701.0469,1064.1914 Q700.75,1064.4727 700.0313,1064.4727 L693.9844,1064.4727 Q693.25,1064.4727 692.9375,1064.1914 Q692.6406,1063.9102 692.6406,1063.4727 Q692.6406,1063.0195 692.9375,1062.7539 Q693.25,1062.4727 693.9844,1062.4727 L696,1062.4727 L696,1054.6445 L693.9844,1054.6445 Q693.25,1054.6445 692.9375,1054.3633 Q692.6406,1054.082 692.6406,1053.6289 Q692.6406,1053.1758 692.9375,1052.9102 Q693.25,1052.6289 693.9844,1052.6289 L700.0313,1052.6289 Q700.75,1052.6289 701.0469,1052.9102 Q701.3594,1053.1758 701.3594,1053.6289 Q701.3594,1054.082 701.0469,1054.3633 Q700.75,1054.6445 700.0313,1054.6445 L698,1054.6445 Z " fill="#000000"/><text fill="#000000" font-family="sans-serif" font-size="20" font-style="italic" lengthAdjust="spacing" textLength="175" x="719" y="1066.6563">CategoryRepository</text><line style="stroke:#181818;stroke-width:0.5;" x1="647" x2="931" y1="1076.0508" y2="1076.0508"/><line style="stroke:#181818;stroke-width:0.5;" x1="647" x2="931" y1="1084.0508" y2="1084.0508"/><ellipse cx="657" cy="1102.1289" fill="#84BE84" rx="3" ry="3" style="stroke:#038048;stroke-width:1.0;"/><text fill="#000000" font-family="sans-serif" font-size="20" lengthAdjust="spacing" textLength="259" x="667" y="1108.8125">editFigureCategory(category)</text></g><!--class EditFigureCategoryUI--><g id="elem_EditFigureCategoryUI"><rect codeLine="58" fill="#F1F1F1" height="101.4688" id="EditFigureCategoryUI" rx="2.5" ry="2.5" style="stroke:#181818;stroke-width:0.5;" width="286" x="670" y="50.8945"/><ellipse cx="714.35" cy="81.0508" fill="#ADD1B2" rx="12" ry="12" style="stroke:#181818;stroke-width:1.0;"/><path d="M716.4906,75.9727 Q716.6781,75.7227 716.8969,75.5977 Q717.1156,75.457 717.3656,75.457 Q717.8031,75.457 718.0844,75.7695 Q718.3656,76.0664 718.3656,76.7852 L718.3656,78.4883 Q718.3656,79.207 718.0844,79.5195 Q717.8031,79.832 717.3656,79.832 Q716.975,79.832 716.725,79.5977 Q716.475,79.3789 716.3656,78.7695 Q716.3031,78.3477 716.0844,78.1289 Q715.6938,77.6914 714.975,77.4258 Q714.2563,77.1602 713.5375,77.1602 Q712.6313,77.1602 711.8813,77.5508 Q711.1313,77.9414 710.5531,78.832 Q709.975,79.707 709.975,80.9102 L709.975,82.207 Q709.975,83.6602 711.0219,84.6289 Q712.0844,85.5977 713.9438,85.5977 Q715.0531,85.5977 715.8344,85.2852 Q716.2719,85.1133 716.7875,84.5977 Q717.1,84.2852 717.2719,84.1914 Q717.4438,84.0977 717.6781,84.0977 Q718.0688,84.0977 718.3656,84.4102 Q718.6781,84.707 718.6781,85.1133 Q718.6781,85.5195 718.2719,85.9883 Q717.6781,86.6758 716.7406,87.0664 Q715.475,87.5977 713.9594,87.5977 Q712.1781,87.5977 710.7563,86.8633 Q709.6,86.2695 708.7875,85.0039 Q707.975,83.7383 707.975,82.2539 L707.975,80.8945 Q707.975,79.332 708.6938,77.9883 Q709.4281,76.6289 710.7094,75.8945 Q712.0063,75.1602 713.4594,75.1602 Q714.3188,75.1602 715.0688,75.3633 Q715.8344,75.5664 716.4906,75.9727 Z " fill="#000000"/><text fill="#000000" font-family="sans-serif" font-size="20" font-style="italic" lengthAdjust="spacing" textLength="41" x="809.65" y="76.6563">«UI»</text><text fill="#000000" font-family="sans-serif" font-size="20" lengthAdjust="spacing" textLength="189" x="735.65" y="101.8125">EditFigureCategoryUI</text><line style="stroke:#181818;stroke-width:0.5;" x1="671" x2="955" y1="111.207" y2="111.207"/><line style="stroke:#181818;stroke-width:0.5;" x1="671" x2="955" y1="119.207" y2="119.207"/><ellipse cx="681" cy="137.2852" fill="#84BE84" rx="3" ry="3" style="stroke:#038048;stroke-width:1.0;"/><text fill="#000000" font-family="sans-serif" font-size="20" lengthAdjust="spacing" textLength="259" x="691" y="143.9688">editFigureCategory(category)</text></g><!--class EditFigureCategoryController--><g id="elem_EditFigureCategoryController"><rect codeLine="64" fill="#F1F1F1" height="101.4688" id="EditFigureCategoryController" rx="2.5" ry="2.5" style="stroke:#181818;stroke-width:0.5;" width="289" x="668.5" y="244.8945"/><ellipse cx="684.5" cy="275.0508" fill="#ADD1B2" rx="12" ry="12" style="stroke:#181818;stroke-width:1.0;"/><path d="M686.6406,269.9727 Q686.8281,269.7227 687.0469,269.5977 Q687.2656,269.457 687.5156,269.457 Q687.9531,269.457 688.2344,269.7695 Q688.5156,270.0664 688.5156,270.7852 L688.5156,272.4883 Q688.5156,273.207 688.2344,273.5195 Q687.9531,273.832 687.5156,273.832 Q687.125,273.832 686.875,273.5977 Q686.625,273.3789 686.5156,272.7695 Q686.4531,272.3477 686.2344,272.1289 Q685.8438,271.6914 685.125,271.4258 Q684.4063,271.1602 683.6875,271.1602 Q682.7813,271.1602 682.0313,271.5508 Q681.2813,271.9414 680.7031,272.832 Q680.125,273.707 680.125,274.9102 L680.125,276.207 Q680.125,277.6602 681.1719,278.6289 Q682.2344,279.5977 684.0938,279.5977 Q685.2031,279.5977 685.9844,279.2852 Q686.4219,279.1133 686.9375,278.5977 Q687.25,278.2852 687.4219,278.1914 Q687.5938,278.0977 687.8281,278.0977 Q688.2188,278.0977 688.5156,278.4102 Q688.8281,278.707 688.8281,279.1133 Q688.8281,279.5195 688.4219,279.9883 Q687.8281,280.6758 686.8906,281.0664 Q685.625,281.5977 684.1094,281.5977 Q682.3281,281.5977 680.9063,280.8633 Q679.75,280.2695 678.9375,279.0039 Q678.125,277.7383 678.125,276.2539 L678.125,274.8945 Q678.125,273.332 678.8438,271.9883 Q679.5781,270.6289 680.8594,269.8945 Q682.1563,269.1602 683.6094,269.1602 Q684.4688,269.1602 685.2188,269.3633 Q685.9844,269.5664 686.6406,269.9727 Z " fill="#000000"/><text fill="#000000" font-family="sans-serif" font-size="20" font-style="italic" lengthAdjust="spacing" textLength="109" x="772.5" y="270.6563">«Controller»</text><text fill="#000000" font-family="sans-serif" font-size="20" lengthAdjust="spacing" textLength="255" x="699.5" y="295.8125">EditFigureCategoryController</text><line style="stroke:#181818;stroke-width:0.5;" x1="669.5" x2="956.5" y1="305.207" y2="305.207"/><line style="stroke:#181818;stroke-width:0.5;" x1="669.5" x2="956.5" y1="313.207" y2="313.207"/><ellipse cx="679.5" cy="331.2852" fill="#84BE84" rx="3" ry="3" style="stroke:#038048;stroke-width:1.0;"/><text fill="#000000" font-family="sans-serif" font-size="20" lengthAdjust="spacing" textLength="259" x="689.5" y="337.9688">editFigureCategory(category)</text></g><!--link PersistenceContext to RepositoryFactory--><g id="link_PersistenceContext_RepositoryFactory"><path codeLine="72" d="M806.69,541.1545 C792.98,622.1045 760.56,813.5845 746.13,898.7645 " fill="none" id="PersistenceContext-to-RepositoryFactory" style="stroke:#181818;stroke-width:1.0;stroke-dasharray:7.0,7.0;"/><polygon fill="#181818" points="745.29,903.7345,750.7499,895.5376,746.1328,898.8061,742.8643,894.1891,745.29,903.7345" style="stroke:#181818;stroke-width:1.0;"/><text fill="#000000" font-family="sans-serif" font-size="20" lengthAdjust="spacing" textLength="186" x="796" y="718.6563">categoryRepository()</text></g><!--link PersistenceContext to JpaRepositoryFactory--><g id="link_PersistenceContext_JpaRepositoryFactory"><path codeLine="73" d="M883.41,541.0045 C920.78,560.7545 967.45,585.5345 1009,607.8945 C1038.67,623.8645 1070.92,641.3945 1100.11,657.3345 " fill="none" id="PersistenceContext-to-JpaRepositoryFactory" style="stroke:#181818;stroke-width:1.0;stroke-dasharray:7.0,7.0;"/><polygon fill="#181818" points="1104.77,659.8745,1098.7951,652.0451,1100.3838,657.4743,1094.9546,659.063,1104.77,659.8745" style="stroke:#181818;stroke-width:1.0;"/></g><!--link PersistenceContext to InMemoryRepositoryFactory--><g id="link_PersistenceContext_InMemoryRepositoryFactory"><path codeLine="74" d="M797.4,541.2445 C786.95,561.6945 771.2,585.6945 750,599.8945 C684.95,643.4545 488.65,674.5245 344.75,692.1945 " fill="none" id="PersistenceContext-to-InMemoryRepositoryFactory" style="stroke:#181818;stroke-width:1.0;stroke-dasharray:7.0,7.0;"/><polygon fill="#181818" points="339.65,692.8145,349.0654,695.7041,344.6138,692.2137,348.1041,687.7621,339.65,692.8145" style="stroke:#181818;stroke-width:1.0;"/></g><!--link JpaCategoryRepository to CategoryRepository--><g id="link_JpaCategoryRepository_CategoryRepository"><path codeLine="79" d="M1105.47,967.4945 C1052.22,986.0745 977.76,1012.0445 914.44,1034.1345 " fill="none" id="JpaCategoryRepository-to-CategoryRepository" style="stroke:#181818;stroke-width:1.0;"/><polygon fill="none" points="916.38,1040.8745,895.19,1040.8545,911.77,1027.6545,916.38,1040.8745" style="stroke:#181818;stroke-width:1.0;"/></g><!--link JpaRepositoryFactory to RepositoryFactory--><g id="link_JpaRepositoryFactory_RepositoryFactory"><path codeLine="82" d="M1096.62,760.9145 C1017.72,800.6145 907.81,855.9345 830.73,894.7245 " fill="none" id="JpaRepositoryFactory-to-RepositoryFactory" style="stroke:#181818;stroke-width:1.0;stroke-dasharray:7.0,7.0;"/><polygon fill="none" points="833.87,900.9845,812.86,903.7245,827.58,888.4745,833.87,900.9845" style="stroke:#181818;stroke-width:1.0;"/></g><!--link JpaRepositoryFactory to JpaCategoryRepository--><g id="link_JpaRepositoryFactory_JpaCategoryRepository"><path codeLine="83" d="M1190.9,760.9145 C1187.13,806.5045 1181.65,872.6645 1178.49,910.7745 " fill="none" id="JpaRepositoryFactory-to-JpaCategoryRepository" style="stroke:#181818;stroke-width:1.0;stroke-dasharray:7.0,7.0;"/><polygon fill="#181818" points="1178.05,916.1945,1182.7815,907.5567,1178.464,911.2117,1174.809,906.8942,1178.05,916.1945" style="stroke:#181818;stroke-width:1.0;"/></g><!--link JpaRepositoryFactory to JpaRepositoryFactory--><g id="link_JpaRepositoryFactory_JpaRepositoryFactory"><path codeLine="84" d="M1353.67,697.1645 C1374.61,699.4245 1388.5,703.8345 1388.5,710.3945 C1388.5,716.3945 1376.9,720.5945 1358.91,722.9945 " fill="none" id="JpaRepositoryFactory-to-JpaRepositoryFactory" style="stroke:#181818;stroke-width:1.0;"/><polygon fill="#181818" points="1353.67,723.6245,1363.0844,726.5173,1358.634,723.0254,1362.1259,718.575,1353.67,723.6245" style="stroke:#181818;stroke-width:1.0;"/><text fill="#000000" font-family="sans-serif" font-size="20" lengthAdjust="spacing" textLength="72" x="1394.5" y="718.6563">instance</text></g><!--link InMemoryCategoryRepository to CategoryRepository--><g id="link_InMemoryCategoryRepository_CategoryRepository"><path codeLine="89" d="M360.2,967.4245 C434.33,986.5245 538.96,1013.4745 626.31,1035.9845 " fill="none" id="InMemoryCategoryRepository-to-CategoryRepository" style="stroke:#181818;stroke-width:1.0;stroke-dasharray:7.0,7.0;"/><polygon fill="none" points="628.19,1029.2345,645.81,1041.0045,624.7,1042.7945,628.19,1029.2345" style="stroke:#181818;stroke-width:1.0;"/></g><!--link InMemoryRepositoryFactory to RepositoryFactory--><g id="link_InMemoryRepositoryFactory_RepositoryFactory"><path codeLine="92" d="M339.63,757.3945 C378.76,770.0145 420.25,784.5045 458,799.8945 C525.77,827.5245 599.64,864.8945 654.63,894.2245 " fill="none" id="InMemoryRepositoryFactory-to-RepositoryFactory" style="stroke:#181818;stroke-width:1.0;stroke-dasharray:7.0,7.0;"/><polygon fill="none" points="658.21,888.2045,672.52,903.8345,651.59,900.5345,658.21,888.2045" style="stroke:#181818;stroke-width:1.0;"/></g><!--link InMemoryRepositoryFactory to InMemoryCategoryRepository--><g id="link_InMemoryRepositoryFactory_InMemoryCategoryRepository"><path codeLine="93" d="M199.12,760.9145 C215.88,806.6845 240.23,873.2045 254.15,911.2445 " fill="none" id="InMemoryRepositoryFactory-to-InMemoryCategoryRepository" style="stroke:#181818;stroke-width:1.0;stroke-dasharray:7.0,7.0;"/><polygon fill="#181818" points="255.96,916.1945,256.6243,906.3681,254.2421,911.4989,249.1113,909.1168,255.96,916.1945" style="stroke:#181818;stroke-width:1.0;"/></g><!--link InMemoryRepositoryFactory to InMemoryRepositoryFactory--><g id="link_InMemoryRepositoryFactory_InMemoryRepositoryFactory"><path codeLine="94" d="M339.67,697.1645 C360.61,699.4245 374.5,703.8345 374.5,710.3945 C374.5,716.3945 362.9,720.5945 344.91,722.9945 " fill="none" id="InMemoryRepositoryFactory-to-InMemoryRepositoryFactory" style="stroke:#181818;stroke-width:1.0;"/><polygon fill="#181818" points="339.67,723.6245,349.0844,726.5173,344.634,723.0254,348.1259,718.575,339.67,723.6245" style="stroke:#181818;stroke-width:1.0;"/><text fill="#000000" font-family="sans-serif" font-size="20" lengthAdjust="spacing" textLength="72" x="380.5" y="718.6563">instance</text></g><!--link CategoryRepository to Category--><g id="link_CategoryRepository_Category"><path codeLine="99" d="M789,1117.2245 C789,1150.2245 789,1198.8145 789,1236.2945 " fill="none" id="CategoryRepository-to-Category" style="stroke:#181818;stroke-width:1.0;stroke-dasharray:7.0,7.0;"/><polygon fill="#181818" points="789,1241.7345,793,1232.7345,789,1236.7345,785,1232.7345,789,1241.7345" style="stroke:#181818;stroke-width:1.0;"/></g><!--link RepositoryFactory to CategoryRepository--><g id="link_RepositoryFactory_CategoryRepository"><path codeLine="102" d="M752.8,980.1445 C759.19,997.4045 766.82,1017.9945 773.42,1035.8245 " fill="none" id="RepositoryFactory-to-CategoryRepository" style="stroke:#181818;stroke-width:1.0;stroke-dasharray:7.0,7.0;"/><polygon fill="#181818" points="775.25,1040.7645,775.8879,1030.9364,773.5195,1036.0735,768.3823,1033.7052,775.25,1040.7645" style="stroke:#181818;stroke-width:1.0;"/></g><!--link Category to CategoryName--><g id="link_Category_CategoryName"><path codeLine="107" d="M738.85,1343.1145 C712.28,1369.4545 680.06,1401.4045 655,1426.2445 " fill="none" id="Category-to-CategoryName" style="stroke:#181818;stroke-width:1.0;"/><polygon fill="#181818" points="651.36,1429.8545,660.5736,1426.3748,654.9169,1426.3405,654.9512,1420.6837,651.36,1429.8545" style="stroke:#181818;stroke-width:1.0;"/><text fill="#000000" font-family="sans-serif" font-size="20" lengthAdjust="spacing" textLength="48" x="707" y="1394.6563">name</text><text fill="#000000" font-family="sans-serif" font-size="20" lengthAdjust="spacing" textLength="11" x="645.4377" y="1417.549">1</text></g><!--link Category to CategoryDescription--><g id="link_Category_CategoryDescription"><path codeLine="108" d="M803.33,1343.1145 C810.79,1369.0245 819.83,1400.3545 826.93,1425.0145 " fill="none" id="Category-to-CategoryDescription" style="stroke:#181818;stroke-width:1.0;"/><polygon fill="#181818" points="828.33,1429.8545,829.6768,1420.0982,826.9432,1425.0507,821.9907,1422.3171,828.33,1429.8545" style="stroke:#181818;stroke-width:1.0;"/><text fill="#000000" font-family="sans-serif" font-size="20" lengthAdjust="spacing" textLength="95" x="819" y="1394.6563">description</text><text fill="#000000" font-family="sans-serif" font-size="20" lengthAdjust="spacing" textLength="11" x="814.7529" y="1417.549">1</text></g><!--link EditFigureCategoryUI to EditFigureCategoryController--><g id="link_EditFigureCategoryUI_EditFigureCategoryController"><path codeLine="113" d="M813,152.3345 C813,179.1145 813,212.1645 813,239.6345 " fill="none" id="EditFigureCategoryUI-to-EditFigureCategoryController" style="stroke:#181818;stroke-width:1.0;stroke-dasharray:7.0,7.0;"/><polygon fill="#181818" points="813,244.7045,817,235.7045,813,239.7045,809,235.7045,813,244.7045" style="stroke:#181818;stroke-width:1.0;"/></g><!--link EditFigureCategoryController to PersistenceContext--><g id="link_EditFigureCategoryController_PersistenceContext"><path codeLine="118" d="M813,346.1445 C813,380.8645 813,426.7245 813,459.6745 " fill="none" id="EditFigureCategoryController-to-PersistenceContext" style="stroke:#181818;stroke-width:1.0;stroke-dasharray:7.0,7.0;"/><polygon fill="#181818" points="813,464.8445,817,455.8445,813,459.8445,809,455.8445,813,464.8445" style="stroke:#181818;stroke-width:1.0;"/><text fill="#000000" font-family="sans-serif" font-size="20" lengthAdjust="spacing" textLength="204" x="814" y="399.6563">getRepositoryFactory()</text></g><!--link EditFigureCategoryController to RepositoryFactory--><g id="link_EditFigureCategoryController_RepositoryFactory"><path codeLine="119" d="M673.52,345.9945 C643.15,362.8645 614.12,384.7945 594,412.8945 C552.05,471.4645 573.8,501.0845 568,572.8945 C557.63,701.3845 649.45,834.2045 702.67,899.5145 " fill="none" id="EditFigureCategoryController-to-RepositoryFactory" style="stroke:#181818;stroke-width:1.0;stroke-dasharray:7.0,7.0;"/><polygon fill="#181818" points="706.12,903.7245,703.511,894.2275,702.9515,899.8567,697.3224,899.2972,706.12,903.7245" style="stroke:#181818;stroke-width:1.0;"/><text fill="#000000" font-family="sans-serif" font-size="20" lengthAdjust="spacing" textLength="218" x="569" y="594.6563">getCategoryRepository()</text></g><!--link EditFigureCategoryController to CategoryRepository--><g id="link_EditFigureCategoryController_CategoryRepository"><path codeLine="120" d="M957.72,308.6345 C1166.12,330.3345 1526,384.7445 1526,501.8945 C1526,501.8945 1526,501.8945 1526,942.8945 C1526,975.1545 1501.34,977.9745 1472,991.3945 C1379.63,1033.6345 1108.9,1057.9145 937.32,1069.4645 " fill="none" id="EditFigureCategoryController-to-CategoryRepository" style="stroke:#181818;stroke-width:1.0;stroke-dasharray:7.0,7.0;"/><polygon fill="#181818" points="932.28,1069.7945,941.5229,1073.1958,937.2692,1069.4667,940.9983,1065.213,932.28,1069.7945" style="stroke:#181818;stroke-width:1.0;"/><text fill="#000000" font-family="sans-serif" font-size="20" lengthAdjust="spacing" textLength="259" x="1527" y="718.6563">editFigureCategory(category)</text></g><!--SRC=[fLPDRzim3BtxLmZP8Ga66zkEHY5WQ1h0mpwA3TbTTLX3ZIqRjWAqM_lVHpl-a2DApJPT4fda8nz5FRivI5M9MXHvcHvWp_PmBuwvtfPA_v2_W7ru5pIWMGEjaovhfae5GL29z20oO8jRg1lPQ50fRjYRJRVOxu3XIdFHDCpmk4PKUDIzkLrlMGRwErHb8n7yQIlIzcUrZfdri8jv2LwCvDK47ScYogE7Ij15VAg41MYK4P8Eg_MypaGrMc0kNtdpdDT2GuR6oRjFYevU8b8LKA0xpIPHNpghdvBJwpzv3RWUSYQtJLa8gKmY9x3HmOW_fzikYJDJtmkSBn_TaOnTLKlBVZf6zjpcgPpSfbombtehisCDW_CgxV-ipy7xd-NWoJvcMGqPxeo-ZiQhgnkbfNxYtBmeetcbH05h-rm6XwzeHeoV8Zy2-tRt0AaUa4Z_3JHfBIijI-KECqzqbz1ZUMDrP9SWuYxXV7RbN-tSV81QrQZBF8VwqhHJ1AQVDlzKnjBGh_uK2KKBENliZ8GjYhWzkZ5BYK7rGL0AvVDtNd_aH0bdJuvMhP6Vmnm-S-gEZP3srJKHRMiKFNE75ZdyELsQEoGCwPx6A0CdFQGQDGXpJsreyccEg8PvrB8ZwUoQM-GjxB_gdo-8Uyfz9RXjfzCwwwd5r3TlPDkYgMqzXAT9D4-gxSlJg-fSgwrQEgwBzukPuiQibMM_dw6qCNvfZHjClKlwj9znt6wFTxbCCKhaPNO4LD6n1b9ZMq8-5KHyS-FAOyYc9v_XrUObr2TsVDHT1cYVL-nwhry6I8nGx1V_u0y0]--></g></svg>