<svg xmlns="http://www.w3.org/2000/svg" xmlns:xlink="http://www.w3.org/1999/xlink" contentStyleType="text/css" height="1286px" preserveAspectRatio="none" style="width:1427px;height:1286px;background:#FFFFFF;" version="1.1" viewBox="0 0 1427 1286" width="1427px" zoomAndPan="magnify"><defs/><g><!--cluster Persistence --><g id="cluster_Persistence "><path d="M506.5,336.22 L594.3779,336.22 A3.75,3.75 0 0 1 596.8779,338.72 L603.8779,358.7083 L841.5,358.7083 A2.5,2.5 0 0 1 844,361.2083 L844,449.21 A2.5,2.5 0 0 1 841.5,451.71 L506.5,451.71 A2.5,2.5 0 0 1 504,449.21 L504,338.72 A2.5,2.5 0 0 1 506.5,336.22 " fill="#DDDDDD" style="stroke:#000000;stroke-width:1.5;"/><line style="stroke:#000000;stroke-width:1.5;" x1="504" x2="603.8779" y1="358.7083" y2="358.7083"/><text fill="#000000" font-family="sans-serif" font-size="14" font-weight="bold" lengthAdjust="spacing" textLength="82.2637" x="508" y="351.7552">Persistence</text></g><!--cluster persistence.impl.jpa--><g id="cluster_persistence.impl.jpa"><path d="M826.5,500.71 L971.499,500.71 A3.75,3.75 0 0 1 973.999,503.21 L980.999,523.1983 L1179.5,523.1983 A2.5,2.5 0 0 1 1182,525.6983 L1182,811.43 A2.5,2.5 0 0 1 1179.5,813.93 L826.5,813.93 A2.5,2.5 0 0 1 824,811.43 L824,503.21 A2.5,2.5 0 0 1 826.5,500.71 " fill="#DDDDDD" style="stroke:#000000;stroke-width:1.5;"/><line style="stroke:#000000;stroke-width:1.5;" x1="824" x2="980.999" y1="523.1983" y2="523.1983"/><text fill="#000000" font-family="sans-serif" font-size="14" font-weight="bold" lengthAdjust="spacing" textLength="143.999" x="828" y="516.2452">persistence.impl.jpa</text></g><!--cluster persistence.impl.inmemory--><g id="cluster_persistence.impl.inmemory"><path d="M8.5,500.71 L203.9004,500.71 A3.75,3.75 0 0 1 206.4004,503.21 L213.4004,523.1983 L361.5,523.1983 A2.5,2.5 0 0 1 364,525.6983 L364,811.43 A2.5,2.5 0 0 1 361.5,813.93 L8.5,813.93 A2.5,2.5 0 0 1 6,811.43 L6,503.21 A2.5,2.5 0 0 1 8.5,500.71 " fill="#DDDDDD" style="stroke:#000000;stroke-width:1.5;"/><line style="stroke:#000000;stroke-width:1.5;" x1="6" x2="213.4004" y1="523.1983" y2="523.1983"/><text fill="#000000" font-family="sans-serif" font-size="14" font-weight="bold" lengthAdjust="spacing" textLength="194.4004" x="10" y="516.2452">persistence.impl.inmemory</text></g><!--cluster Domain--><g id="cluster_Domain"><path d="M390.5,663.68 L447.0967,663.68 A3.75,3.75 0 0 1 449.5967,666.18 L456.5967,686.1683 L797.5,686.1683 A2.5,2.5 0 0 1 800,688.6683 L800,1276.89 A2.5,2.5 0 0 1 797.5,1279.39 L390.5,1279.39 A2.5,2.5 0 0 1 388,1276.89 L388,666.18 A2.5,2.5 0 0 1 390.5,663.68 " fill="#DDDDDD" style="stroke:#000000;stroke-width:1.5;"/><line style="stroke:#000000;stroke-width:1.5;" x1="388" x2="456.5967" y1="686.1683" y2="686.1683"/><text fill="#000000" font-family="sans-serif" font-size="14" font-weight="bold" lengthAdjust="spacing" textLength="55.5967" x="392" y="679.2152">Domain</text></g><!--cluster Repository --><g id="cluster_Repository "><path d="M414.5,706.68 L497.8047,706.68 A3.75,3.75 0 0 1 500.3047,709.18 L507.3047,729.1683 L773.5,729.1683 A2.5,2.5 0 0 1 776,731.6683 L776,945.16 A2.5,2.5 0 0 1 773.5,947.66 L414.5,947.66 A2.5,2.5 0 0 1 412,945.16 L412,709.18 A2.5,2.5 0 0 1 414.5,706.68 " fill="#DDDDDD" style="stroke:#000000;stroke-width:1.5;"/><line style="stroke:#000000;stroke-width:1.5;" x1="412" x2="507.3047" y1="729.1683" y2="729.1683"/><text fill="#000000" font-family="sans-serif" font-size="14" font-weight="bold" lengthAdjust="spacing" textLength="77.6904" x="416" y="722.2152">Repository</text></g><!--cluster UI--><g id="cluster_UI"><path d="M549.5,6 L565.4502,6 A3.75,3.75 0 0 1 567.9502,8.5 L574.9502,28.4883 L798.5,28.4883 A2.5,2.5 0 0 1 801,30.9883 L801,127.61 A2.5,2.5 0 0 1 798.5,130.11 L549.5,130.11 A2.5,2.5 0 0 1 547,127.61 L547,8.5 A2.5,2.5 0 0 1 549.5,6 " fill="#DDDDDD" style="stroke:#000000;stroke-width:1.5;"/><line style="stroke:#000000;stroke-width:1.5;" x1="547" x2="574.9502" y1="28.4883" y2="28.4883"/><text fill="#000000" font-family="sans-serif" font-size="14" font-weight="bold" lengthAdjust="spacing" textLength="14.9502" x="551" y="21.5352">UI</text></g><!--cluster Controller--><g id="cluster_Controller"><path d="M545.5,163.11 L619.2617,163.11 A3.75,3.75 0 0 1 621.7617,165.61 L628.7617,185.5983 L802.5,185.5983 A2.5,2.5 0 0 1 805,188.0983 L805,284.72 A2.5,2.5 0 0 1 802.5,287.22 L545.5,287.22 A2.5,2.5 0 0 1 543,284.72 L543,165.61 A2.5,2.5 0 0 1 545.5,163.11 " fill="#DDDDDD" style="stroke:#000000;stroke-width:1.5;"/><line style="stroke:#000000;stroke-width:1.5;" x1="543" x2="628.7617" y1="185.5983" y2="185.5983"/><text fill="#000000" font-family="sans-serif" font-size="14" font-weight="bold" lengthAdjust="spacing" textLength="72.7617" x="547" y="178.6452">Controller</text></g><!--class PersistenceContext--><g id="elem_PersistenceContext"><rect codeLine="4" fill="#F1F1F1" height="64.4883" id="PersistenceContext" rx="2.5" ry="2.5" style="stroke:#181818;stroke-width:0.5;" width="308.5566" x="519.72" y="371.22"/><ellipse cx="604.6907" cy="387.22" fill="#ADD1B2" rx="11" ry="11" style="stroke:#181818;stroke-width:1.0;"/><path d="M607.6638,392.8631 Q607.0828,393.1619 606.4436,393.3113 Q605.8045,393.4607 605.0989,393.4607 Q602.5921,393.4607 601.2722,391.8089 Q599.9524,390.157 599.9524,387.0359 Q599.9524,383.9065 601.2722,382.2547 Q602.5921,380.6028 605.0989,380.6028 Q605.8045,380.6028 606.4519,380.7522 Q607.0994,380.9016 607.6638,381.2005 L607.6638,383.9231 Q607.033,383.3421 606.4395,383.0723 Q605.846,382.8025 605.2151,382.8025 Q603.8704,382.8025 603.1856,383.8692 Q602.5008,384.9358 602.5008,387.0359 Q602.5008,389.1277 603.1856,390.1944 Q603.8704,391.261 605.2151,391.261 Q605.846,391.261 606.4395,390.9912 Q607.033,390.7215 607.6638,390.1404 Z " fill="#000000"/><text fill="#000000" font-family="sans-serif" font-size="14" lengthAdjust="spacing" textLength="130.1152" x="625.1907" y="392.511">PersistenceContext</text><line style="stroke:#181818;stroke-width:0.5;" x1="520.72" x2="827.2766" y1="403.22" y2="403.22"/><line style="stroke:#181818;stroke-width:0.5;" x1="520.72" x2="827.2766" y1="411.22" y2="411.22"/><ellipse cx="530.72" cy="424.9641" fill="#84BE84" rx="3" ry="3" style="stroke:#038048;stroke-width:1.0;"/><text fill="#000000" font-family="sans-serif" font-size="14" lengthAdjust="spacing" textLength="282.5566" x="539.72" y="428.7552">getRepositoryFactory(): RepositoryFactory</text></g><!--class JpaRepositoryFactory--><g id="elem_JpaRepositoryFactory"><rect codeLine="10" fill="#F1F1F1" height="80.9766" id="JpaRepositoryFactory" rx="2.5" ry="2.5" style="stroke:#181818;stroke-width:0.5;" width="243.6289" x="840.19" y="535.71"/><ellipse cx="886.5992" cy="551.71" fill="#ADD1B2" rx="11" ry="11" style="stroke:#181818;stroke-width:1.0;"/><path d="M889.5723,557.3531 Q888.9913,557.6519 888.3521,557.8013 Q887.7129,557.9507 887.0074,557.9507 Q884.5005,557.9507 883.1807,556.2989 Q881.8609,554.647 881.8609,551.5259 Q881.8609,548.3965 883.1807,546.7447 Q884.5005,545.0928 887.0074,545.0928 Q887.7129,545.0928 888.3604,545.2422 Q889.0079,545.3916 889.5723,545.6905 L889.5723,548.4131 Q888.9415,547.8321 888.348,547.5623 Q887.7545,547.2925 887.1236,547.2925 Q885.7789,547.2925 885.0941,548.3592 Q884.4092,549.4258 884.4092,551.5259 Q884.4092,553.6177 885.0941,554.6844 Q885.7789,555.751 887.1236,555.751 Q887.7545,555.751 888.348,555.4812 Q888.9415,555.2115 889.5723,554.6304 Z " fill="#000000"/><text fill="#000000" font-family="sans-serif" font-size="14" lengthAdjust="spacing" textLength="142.3105" x="907.0992" y="557.001">JpaRepositoryFactory</text><line style="stroke:#181818;stroke-width:0.5;" x1="841.19" x2="1082.8189" y1="567.71" y2="567.71"/><line style="stroke:#181818;stroke-width:0.5;" x1="841.19" x2="1082.8189" y1="575.71" y2="575.71"/><rect fill="#F24D5C" height="6" style="stroke:#C82930;stroke-width:1.0;" width="6" x="848.19" y="586.4541"/><text fill="#000000" font-family="sans-serif" font-size="14" lengthAdjust="spacing" textLength="151.416" x="860.19" y="593.2452">JpaRepositoryFactory()</text><ellipse cx="851.19" cy="605.9424" fill="#84BE84" rx="3" ry="3" style="stroke:#038048;stroke-width:1.0;"/><text fill="#000000" font-family="sans-serif" font-size="14" lengthAdjust="spacing" textLength="217.6289" x="860.19" y="609.7334">getInstance(): RepositoryFactory</text></g><!--class JpaCategoryRepository--><g id="elem_JpaCategoryRepository"><rect codeLine="15" fill="#F1F1F1" height="48" id="JpaCategoryRepository" rx="2.5" ry="2.5" style="stroke:#181818;stroke-width:0.5;" width="185.8496" x="854.08" y="749.93"/><ellipse cx="869.08" cy="765.93" fill="#ADD1B2" rx="11" ry="11" style="stroke:#181818;stroke-width:1.0;"/><path d="M872.0531,771.5731 Q871.4721,771.8719 870.8329,772.0213 Q870.1938,772.1707 869.4882,772.1707 Q866.9814,772.1707 865.6615,770.5189 Q864.3417,768.867 864.3417,765.7459 Q864.3417,762.6165 865.6615,760.9647 Q866.9814,759.3128 869.4882,759.3128 Q870.1938,759.3128 870.8412,759.4622 Q871.4887,759.6116 872.0531,759.9105 L872.0531,762.6331 Q871.4223,762.0521 870.8288,761.7823 Q870.2353,761.5125 869.6044,761.5125 Q868.2597,761.5125 867.5749,762.5792 Q866.8901,763.6458 866.8901,765.7459 Q866.8901,767.8377 867.5749,768.9044 Q868.2597,769.971 869.6044,769.971 Q870.2353,769.971 870.8288,769.7012 Q871.4223,769.4315 872.0531,768.8504 Z " fill="#000000"/><text fill="#000000" font-family="sans-serif" font-size="14" lengthAdjust="spacing" textLength="153.8496" x="883.08" y="771.221">JpaCategoryRepository</text><line style="stroke:#181818;stroke-width:0.5;" x1="855.08" x2="1038.9296" y1="781.93" y2="781.93"/><line style="stroke:#181818;stroke-width:0.5;" x1="855.08" x2="1038.9296" y1="789.93" y2="789.93"/></g><!--class InMemoryRepositoryFactory--><g id="elem_InMemoryRepositoryFactory"><rect codeLine="21" fill="#F1F1F1" height="80.9766" id="InMemoryRepositoryFactory" rx="2.5" ry="2.5" style="stroke:#181818;stroke-width:0.5;" width="243.6289" x="22.19" y="535.71"/><ellipse cx="47.5053" cy="551.71" fill="#ADD1B2" rx="11" ry="11" style="stroke:#181818;stroke-width:1.0;"/><path d="M50.4784,557.3531 Q49.8974,557.6519 49.2582,557.8013 Q48.6191,557.9507 47.9135,557.9507 Q45.4067,557.9507 44.0868,556.2989 Q42.767,554.647 42.767,551.5259 Q42.767,548.3965 44.0868,546.7447 Q45.4067,545.0928 47.9135,545.0928 Q48.6191,545.0928 49.2665,545.2422 Q49.914,545.3916 50.4784,545.6905 L50.4784,548.4131 Q49.8476,547.8321 49.2541,547.5623 Q48.6606,547.2925 48.0297,547.2925 Q46.685,547.2925 46.0002,548.3592 Q45.3153,549.4258 45.3153,551.5259 Q45.3153,553.6177 46.0002,554.6844 Q46.685,555.751 48.0297,555.751 Q48.6606,555.751 49.2541,555.4812 Q49.8476,555.2115 50.4784,554.6304 Z " fill="#000000"/><text fill="#000000" font-family="sans-serif" font-size="14" lengthAdjust="spacing" textLength="188.7061" x="63.7976" y="557.001">InMemoryRepositoryFactory</text><line style="stroke:#181818;stroke-width:0.5;" x1="23.19" x2="264.8189" y1="567.71" y2="567.71"/><line style="stroke:#181818;stroke-width:0.5;" x1="23.19" x2="264.8189" y1="575.71" y2="575.71"/><rect fill="#F24D5C" height="6" style="stroke:#C82930;stroke-width:1.0;" width="6" x="30.19" y="586.4541"/><text fill="#000000" font-family="sans-serif" font-size="14" lengthAdjust="spacing" textLength="197.8115" x="42.19" y="593.2452">InMemoryRepositoryFactory()</text><ellipse cx="33.19" cy="605.9424" fill="#84BE84" rx="3" ry="3" style="stroke:#038048;stroke-width:1.0;"/><text fill="#000000" font-family="sans-serif" font-size="14" lengthAdjust="spacing" textLength="217.6289" x="42.19" y="609.7334">getInstance(): RepositoryFactory</text></g><!--class InMemoryCategoryRepository--><g id="elem_InMemoryCategoryRepository"><rect codeLine="26" fill="#F1F1F1" height="48" id="InMemoryCategoryRepository" rx="2.5" ry="2.5" style="stroke:#181818;stroke-width:0.5;" width="232.2451" x="93.88" y="749.93"/><ellipse cx="108.88" cy="765.93" fill="#ADD1B2" rx="11" ry="11" style="stroke:#181818;stroke-width:1.0;"/><path d="M111.8531,771.5731 Q111.2721,771.8719 110.6329,772.0213 Q109.9938,772.1707 109.2882,772.1707 Q106.7814,772.1707 105.4615,770.5189 Q104.1417,768.867 104.1417,765.7459 Q104.1417,762.6165 105.4615,760.9647 Q106.7814,759.3128 109.2882,759.3128 Q109.9938,759.3128 110.6412,759.4622 Q111.2887,759.6116 111.8531,759.9105 L111.8531,762.6331 Q111.2223,762.0521 110.6288,761.7823 Q110.0353,761.5125 109.4044,761.5125 Q108.0597,761.5125 107.3749,762.5792 Q106.6901,763.6458 106.6901,765.7459 Q106.6901,767.8377 107.3749,768.9044 Q108.0597,769.971 109.4044,769.971 Q110.0353,769.971 110.6288,769.7012 Q111.2223,769.4315 111.8531,768.8504 Z " fill="#000000"/><text fill="#000000" font-family="sans-serif" font-size="14" lengthAdjust="spacing" textLength="200.2451" x="122.88" y="771.221">InMemoryCategoryRepository</text><line style="stroke:#181818;stroke-width:0.5;" x1="94.88" x2="325.1251" y1="781.93" y2="781.93"/><line style="stroke:#181818;stroke-width:0.5;" x1="94.88" x2="325.1251" y1="789.93" y2="789.93"/></g><!--class Category--><g id="elem_Category"><rect codeLine="45" fill="#F1F1F1" height="73.1094" id="Category" rx="2.5" ry="2.5" style="stroke:#181818;stroke-width:0.5;" width="137.6514" x="564.17" y="1056.66"/><ellipse cx="599.3413" cy="1076.9705" fill="#ADD1B2" rx="11" ry="11" style="stroke:#181818;stroke-width:1.0;"/><path d="M602.3145,1082.6136 Q601.7334,1082.9124 601.0943,1083.0619 Q600.4551,1083.2113 599.7495,1083.2113 Q597.2427,1083.2113 595.9229,1081.5594 Q594.6031,1079.9076 594.6031,1076.7865 Q594.6031,1073.6571 595.9229,1072.0052 Q597.2427,1070.3534 599.7495,1070.3534 Q600.4551,1070.3534 601.1026,1070.5028 Q601.75,1070.6522 602.3145,1070.951 L602.3145,1073.6737 Q601.6836,1073.0926 601.0901,1072.8228 Q600.4966,1072.5531 599.8658,1072.5531 Q598.521,1072.5531 597.8362,1073.6197 Q597.1514,1074.6864 597.1514,1076.7865 Q597.1514,1078.8783 597.8362,1079.9449 Q598.521,1081.0116 599.8658,1081.0116 Q600.4966,1081.0116 601.0901,1080.7418 Q601.6836,1080.472 602.3145,1079.891 Z " fill="#000000"/><text fill="#000000" font-family="sans-serif" font-size="12" font-style="italic" lengthAdjust="spacing" textLength="45.2402" x="625.6168" y="1073.2616">&#171;Entity&#187;</text><text fill="#000000" font-family="sans-serif" font-size="14" lengthAdjust="spacing" textLength="60.8262" x="617.8239" y="1089.328">Category</text><line style="stroke:#181818;stroke-width:0.5;" x1="565.17" x2="700.8214" y1="1097.2811" y2="1097.2811"/><line style="stroke:#181818;stroke-width:0.5;" x1="565.17" x2="700.8214" y1="1105.2811" y2="1105.2811"/><ellipse cx="575.17" cy="1119.0252" fill="#84BE84" rx="3" ry="3" style="stroke:#038048;stroke-width:1.0;"/><text fill="#000000" font-family="sans-serif" font-size="14" lengthAdjust="spacing" textLength="111.6514" x="584.17" y="1122.8163">Category (name)</text></g><!--class CategoryName--><g id="elem_CategoryName"><rect codeLine="49" fill="#F1F1F1" height="56.6211" id="CategoryName" rx="2.5" ry="2.5" style="stroke:#181818;stroke-width:0.5;" width="131.7705" x="425.11" y="1206.77"/><ellipse cx="440.11" cy="1227.0805" fill="#ADD1B2" rx="11" ry="11" style="stroke:#181818;stroke-width:1.0;"/><path d="M443.0831,1232.7236 Q442.5021,1233.0224 441.8629,1233.1719 Q441.2238,1233.3213 440.5182,1233.3213 Q438.0114,1233.3213 436.6915,1231.6694 Q435.3717,1230.0176 435.3717,1226.8965 Q435.3717,1223.7671 436.6915,1222.1152 Q438.0114,1220.4634 440.5182,1220.4634 Q441.2238,1220.4634 441.8712,1220.6128 Q442.5187,1220.7622 443.0831,1221.061 L443.0831,1223.7837 Q442.4523,1223.2026 441.8588,1222.9328 Q441.2653,1222.6631 440.6344,1222.6631 Q439.2897,1222.6631 438.6049,1223.7297 Q437.9201,1224.7964 437.9201,1226.8965 Q437.9201,1228.9883 438.6049,1230.0549 Q439.2897,1231.1216 440.6344,1231.1216 Q441.2653,1231.1216 441.8588,1230.8518 Q442.4523,1230.582 443.0831,1230.001 Z " fill="#000000"/><text fill="#000000" font-family="sans-serif" font-size="12" font-style="italic" lengthAdjust="spacing" textLength="86.291" x="460.8497" y="1223.3716">&#171;Value Object&#187;</text><text fill="#000000" font-family="sans-serif" font-size="14" lengthAdjust="spacing" textLength="99.7705" x="454.11" y="1239.438">CategoryName</text><line style="stroke:#181818;stroke-width:0.5;" x1="426.11" x2="555.8805" y1="1247.3911" y2="1247.3911"/><line style="stroke:#181818;stroke-width:0.5;" x1="426.11" x2="555.8805" y1="1255.3911" y2="1255.3911"/></g><!--class CategoryDescription--><g id="elem_CategoryDescription"><rect codeLine="52" fill="#F1F1F1" height="56.6211" id="CategoryDescription" rx="2.5" ry="2.5" style="stroke:#181818;stroke-width:0.5;" width="170.5781" x="591.71" y="1206.77"/><ellipse cx="606.71" cy="1227.0805" fill="#ADD1B2" rx="11" ry="11" style="stroke:#181818;stroke-width:1.0;"/><path d="M609.6831,1232.7236 Q609.1021,1233.0224 608.4629,1233.1719 Q607.8238,1233.3213 607.1182,1233.3213 Q604.6114,1233.3213 603.2915,1231.6694 Q601.9717,1230.0176 601.9717,1226.8965 Q601.9717,1223.7671 603.2915,1222.1152 Q604.6114,1220.4634 607.1182,1220.4634 Q607.8238,1220.4634 608.4712,1220.6128 Q609.1187,1220.7622 609.6831,1221.061 L609.6831,1223.7837 Q609.0523,1223.2026 608.4588,1222.9328 Q607.8653,1222.6631 607.2344,1222.6631 Q605.8897,1222.6631 605.2049,1223.7297 Q604.5201,1224.7964 604.5201,1226.8965 Q604.5201,1228.9883 605.2049,1230.0549 Q605.8897,1231.1216 607.2344,1231.1216 Q607.8653,1231.1216 608.4588,1230.8518 Q609.0523,1230.582 609.6831,1230.001 Z " fill="#000000"/><text fill="#000000" font-family="sans-serif" font-size="12" font-style="italic" lengthAdjust="spacing" textLength="86.291" x="646.8536" y="1223.3716">&#171;Value Object&#187;</text><text fill="#000000" font-family="sans-serif" font-size="14" lengthAdjust="spacing" textLength="138.5781" x="620.71" y="1239.438">CategoryDescription</text><line style="stroke:#181818;stroke-width:0.5;" x1="592.71" x2="761.2881" y1="1247.3911" y2="1247.3911"/><line style="stroke:#181818;stroke-width:0.5;" x1="592.71" x2="761.2881" y1="1255.3911" y2="1255.3911"/></g><!--class RepositoryFactory--><g id="elem_RepositoryFactory"><rect codeLine="34" fill="#F1F1F1" height="64.4883" id="RepositoryFactory" rx="2.5" ry="2.5" style="stroke:#181818;stroke-width:0.5;" width="331.6348" x="428.18" y="741.68"/><ellipse cx="529.0408" cy="757.68" fill="#B4A7E5" rx="11" ry="11" style="stroke:#181818;stroke-width:1.0;"/><path d="M524.9686,753.4451 L524.9686,751.2869 L532.348,751.2869 L532.348,753.4451 L529.8826,753.4451 L529.8826,761.5218 L532.348,761.5218 L532.348,763.68 L524.9686,763.68 L524.9686,761.5218 L527.4339,761.5218 L527.4339,753.4451 Z " fill="#000000"/><text fill="#000000" font-family="sans-serif" font-size="14" font-style="italic" lengthAdjust="spacing" textLength="121.4131" x="549.5408" y="762.971">RepositoryFactory</text><line style="stroke:#181818;stroke-width:0.5;" x1="429.18" x2="758.8148" y1="773.68" y2="773.68"/><line style="stroke:#181818;stroke-width:0.5;" x1="429.18" x2="758.8148" y1="781.68" y2="781.68"/><ellipse cx="439.18" cy="795.4241" fill="#84BE84" rx="3" ry="3" style="stroke:#038048;stroke-width:1.0;"/><text fill="#000000" font-family="sans-serif" font-size="14" lengthAdjust="spacing" textLength="305.6348" x="448.18" y="799.2152">getCategoryRepository(): CategoryRepository</text></g><!--class CategoryRepository--><g id="elem_CategoryRepository"><rect codeLine="38" fill="#F1F1F1" height="64.4883" id="CategoryRepository" rx="2.5" ry="2.5" style="stroke:#181818;stroke-width:0.5;" width="222.6357" x="521.68" y="867.17"/><ellipse cx="562.6376" cy="883.17" fill="#B4A7E5" rx="11" ry="11" style="stroke:#181818;stroke-width:1.0;"/><path d="M558.5654,878.9351 L558.5654,876.7769 L565.9447,876.7769 L565.9447,878.9351 L563.4794,878.9351 L563.4794,887.0118 L565.9447,887.0118 L565.9447,889.17 L558.5654,889.17 L558.5654,887.0118 L561.0307,887.0118 L561.0307,878.9351 Z " fill="#000000"/><text fill="#000000" font-family="sans-serif" font-size="14" font-style="italic" lengthAdjust="spacing" textLength="132.9521" x="582.406" y="888.461">CategoryRepository</text><line style="stroke:#181818;stroke-width:0.5;" x1="522.68" x2="743.3157" y1="899.17" y2="899.17"/><line style="stroke:#181818;stroke-width:0.5;" x1="522.68" x2="743.3157" y1="907.17" y2="907.17"/><ellipse cx="532.68" cy="920.9141" fill="#84BE84" rx="3" ry="3" style="stroke:#038048;stroke-width:1.0;"/><text fill="#000000" font-family="sans-serif" font-size="14" lengthAdjust="spacing" textLength="196.6357" x="541.68" y="924.7052">editFigureCategory(category)</text></g><!--class EditFigureCategoryUI--><g id="elem_EditFigureCategoryUI"><rect codeLine="58" fill="#F1F1F1" height="73.1094" id="EditFigureCategoryUI" rx="2.5" ry="2.5" style="stroke:#181818;stroke-width:0.5;" width="222.6357" x="562.68" y="41"/><ellipse cx="599.2325" cy="61.3105" fill="#ADD1B2" rx="11" ry="11" style="stroke:#181818;stroke-width:1.0;"/><path d="M602.2057,66.9536 Q601.6246,67.2524 600.9855,67.4019 Q600.3463,67.5513 599.6407,67.5513 Q597.1339,67.5513 595.8141,65.8994 Q594.4943,64.2476 594.4943,61.1265 Q594.4943,57.9971 595.8141,56.3452 Q597.1339,54.6934 599.6407,54.6934 Q600.3463,54.6934 600.9938,54.8428 Q601.6412,54.9922 602.2057,55.291 L602.2057,58.0137 Q601.5748,57.4326 600.9813,57.1628 Q600.3878,56.8931 599.757,56.8931 Q598.4122,56.8931 597.7274,57.9597 Q597.0426,59.0264 597.0426,61.1265 Q597.0426,63.2183 597.7274,64.2849 Q598.4122,65.3516 599.757,65.3516 Q600.3878,65.3516 600.9813,65.0818 Q601.5748,64.812 602.2057,64.231 Z " fill="#000000"/><text fill="#000000" font-family="sans-serif" font-size="12" font-style="italic" lengthAdjust="spacing" textLength="24.3457" x="677.2197" y="57.6016">&#171;UI&#187;</text><text fill="#000000" font-family="sans-serif" font-size="14" lengthAdjust="spacing" textLength="142.7412" x="618.022" y="73.668">EditFigureCategoryUI</text><line style="stroke:#181818;stroke-width:0.5;" x1="563.68" x2="784.3157" y1="81.6211" y2="81.6211"/><line style="stroke:#181818;stroke-width:0.5;" x1="563.68" x2="784.3157" y1="89.6211" y2="89.6211"/><ellipse cx="573.68" cy="103.3652" fill="#84BE84" rx="3" ry="3" style="stroke:#038048;stroke-width:1.0;"/><text fill="#000000" font-family="sans-serif" font-size="14" lengthAdjust="spacing" textLength="196.6357" x="582.68" y="107.1563">editFigureCategory(category)</text></g><!--class EditFigureCategoryController--><g id="elem_EditFigureCategoryController"><rect codeLine="64" fill="#F1F1F1" height="73.1094" id="EditFigureCategoryController" rx="2.5" ry="2.5" style="stroke:#181818;stroke-width:0.5;" width="229.1689" x="559.42" y="198.11"/><ellipse cx="574.42" cy="218.4205" fill="#ADD1B2" rx="11" ry="11" style="stroke:#181818;stroke-width:1.0;"/><path d="M577.3931,224.0636 Q576.8121,224.3624 576.1729,224.5119 Q575.5338,224.6613 574.8282,224.6613 Q572.3214,224.6613 571.0015,223.0094 Q569.6817,221.3576 569.6817,218.2365 Q569.6817,215.1071 571.0015,213.4552 Q572.3214,211.8034 574.8282,211.8034 Q575.5338,211.8034 576.1812,211.9528 Q576.8287,212.1022 577.3931,212.401 L577.3931,215.1237 Q576.7623,214.5426 576.1688,214.2728 Q575.5753,214.0031 574.9444,214.0031 Q573.5997,214.0031 572.9149,215.0697 Q572.2301,216.1364 572.2301,218.2365 Q572.2301,220.3283 572.9149,221.3949 Q573.5997,222.4616 574.9444,222.4616 Q575.5753,222.4616 576.1688,222.1918 Q576.7623,221.922 577.3931,221.341 Z " fill="#000000"/><text fill="#000000" font-family="sans-serif" font-size="12" font-style="italic" lengthAdjust="spacing" textLength="70.998" x="651.5054" y="214.7116">&#171;Controller&#187;</text><text fill="#000000" font-family="sans-serif" font-size="14" lengthAdjust="spacing" textLength="197.1689" x="588.42" y="230.778">EditFigureCategoryController</text><line style="stroke:#181818;stroke-width:0.5;" x1="560.42" x2="787.5889" y1="238.7311" y2="238.7311"/><line style="stroke:#181818;stroke-width:0.5;" x1="560.42" x2="787.5889" y1="246.7311" y2="246.7311"/><ellipse cx="570.42" cy="260.4752" fill="#84BE84" rx="3" ry="3" style="stroke:#038048;stroke-width:1.0;"/><text fill="#000000" font-family="sans-serif" font-size="14" lengthAdjust="spacing" textLength="196.6357" x="579.42" y="264.2663">editFigureCategory(category)</text></g><!--link PersistenceContext to RepositoryFactory--><g id="link_PersistenceContext_RepositoryFactory"><path codeLine="72" d="M667.11,436.2 C651.97,505.93 617.213,665.9866 602.113,735.5366 " fill="none" id="PersistenceContext-to-RepositoryFactory" style="stroke:#181818;stroke-width:1.0;stroke-dasharray:7.0,7.0;"/><polygon fill="#181818" points="600.84,741.4,606.6584,733.4536,601.9008,736.5138,598.8406,731.7562,600.84,741.4" style="stroke:#181818;stroke-width:1.0;"/><text fill="#000000" font-family="sans-serif" font-size="13" lengthAdjust="spacing" textLength="129.5747" x="655" y="581.2584">categoryRepository()</text></g><!--link PersistenceContext to JpaRepositoryFactory--><g id="link_PersistenceContext_JpaRepositoryFactory"><path codeLine="73" d="M727.5,436.18 C774.67,464.14 838.4784,501.9709 889.4184,532.1609 " fill="none" id="PersistenceContext-to-JpaRepositoryFactory" style="stroke:#181818;stroke-width:1.0;stroke-dasharray:7.0,7.0;"/><polygon fill="#181818" points="894.58,535.22,888.877,527.1903,890.2787,532.6708,884.7982,534.0725,894.58,535.22" style="stroke:#181818;stroke-width:1.0;"/></g><!--link PersistenceContext to InMemoryRepositoryFactory--><g id="link_PersistenceContext_InMemoryRepositoryFactory"><path codeLine="74" d="M656.75,436.12 C645.85,453.14 630.2,472.98 611,484.71 C554.31,519.33 390.4014,545.4075 271.9914,560.5775 " fill="none" id="PersistenceContext-to-InMemoryRepositoryFactory" style="stroke:#181818;stroke-width:1.0;stroke-dasharray:7.0,7.0;"/><polygon fill="#181818" points="266.04,561.34,275.4753,564.1639,270.9995,560.7046,274.4587,556.2287,266.04,561.34" style="stroke:#181818;stroke-width:1.0;"/></g><!--link JpaCategoryRepository to CategoryRepository--><g id="link_JpaCategoryRepository_CategoryRepository"><path codeLine="79" d="M887.57,798.3 C838.32,817.67 784.6014,838.7929 730.2814,860.1529 " fill="none" id="JpaCategoryRepository-to-CategoryRepository" style="stroke:#181818;stroke-width:1.0;"/><polygon fill="none" points="713.53,866.74,732.4771,865.7367,728.0857,854.5691,713.53,866.74" style="stroke:#181818;stroke-width:1.0;"/></g><!--link JpaRepositoryFactory to RepositoryFactory--><g id="link_JpaRepositoryFactory_RepositoryFactory"><path codeLine="82" d="M887.09,617.04 C818.16,653.7 733.1528,698.919 669.5328,732.749 " fill="none" id="JpaRepositoryFactory-to-RepositoryFactory" style="stroke:#181818;stroke-width:1.0;stroke-dasharray:7.0,7.0;"/><polygon fill="none" points="653.64,741.2,672.3498,738.0466,666.7158,727.4514,653.64,741.2" style="stroke:#181818;stroke-width:1.0;"/></g><!--link JpaRepositoryFactory to JpaCategoryRepository--><g id="link_JpaRepositoryFactory_JpaCategoryRepository"><path codeLine="83" d="M958.96,616.8 C955.91,656.68 951.7581,710.8675 949.2481,743.6475 " fill="none" id="JpaRepositoryFactory-to-JpaCategoryRepository" style="stroke:#181818;stroke-width:1.0;stroke-dasharray:7.0,7.0;"/><polygon fill="#181818" points="948.79,749.63,953.4655,740.9617,949.1717,744.6446,945.4888,740.3509,948.79,749.63" style="stroke:#181818;stroke-width:1.0;"/></g><!--link JpaRepositoryFactory to JpaRepositoryFactory--><g id="link_JpaRepositoryFactory_JpaRepositoryFactory"><path codeLine="84" d="M1084.29,563.82 C1104.72,565.55 1118.81,569.68 1118.81,576.19 C1118.81,582.71 1110.6984,586.3208 1090.2684,588.0608 " fill="none" id="JpaRepositoryFactory-to-JpaRepositoryFactory" style="stroke:#181818;stroke-width:1.0;"/><polygon fill="#181818" points="1084.29,588.57,1093.597,591.7918,1089.272,588.1457,1092.9181,583.8207,1084.29,588.57" style="stroke:#181818;stroke-width:1.0;"/><text fill="#000000" font-family="sans-serif" font-size="13" lengthAdjust="spacing" textLength="52.4634" x="1124.81" y="581.2584">instance</text></g><!--link InMemoryCategoryRepository to CategoryRepository--><g id="link_InMemoryCategoryRepository_CategoryRepository"><path codeLine="89" d="M290.06,798.3 C356.41,817.67 434.0612,840.3359 507.2312,861.6959 " fill="none" id="InMemoryCategoryRepository-to-CategoryRepository" style="stroke:#181818;stroke-width:1.0;stroke-dasharray:7.0,7.0;"/><polygon fill="none" points="524.51,866.74,508.9126,855.9363,505.5498,867.4555,524.51,866.74" style="stroke:#181818;stroke-width:1.0;"/></g><!--link InMemoryRepositoryFactory to RepositoryFactory--><g id="link_InMemoryRepositoryFactory_RepositoryFactory"><path codeLine="92" d="M264.69,617.1 C297.25,628.72 332.25,642 364,655.68 C424.3,681.68 475.0699,707.7521 521.0199,732.6221 " fill="none" id="InMemoryRepositoryFactory-to-RepositoryFactory" style="stroke:#181818;stroke-width:1.0;stroke-dasharray:7.0,7.0;"/><polygon fill="none" points="536.85,741.19,523.8759,727.3454,518.164,737.8988,536.85,741.19" style="stroke:#181818;stroke-width:1.0;"/></g><!--link InMemoryRepositoryFactory to InMemoryCategoryRepository--><g id="link_InMemoryRepositoryFactory_InMemoryCategoryRepository"><path codeLine="93" d="M157.36,616.8 C170.8,656.68 189.1734,711.1644 200.2234,743.9444 " fill="none" id="InMemoryRepositoryFactory-to-InMemoryCategoryRepository" style="stroke:#181818;stroke-width:1.0;stroke-dasharray:7.0,7.0;"/><polygon fill="#181818" points="202.14,749.63,203.0555,739.8238,200.5428,744.892,195.4747,742.3793,202.14,749.63" style="stroke:#181818;stroke-width:1.0;"/></g><!--link InMemoryRepositoryFactory to InMemoryRepositoryFactory--><g id="link_InMemoryRepositoryFactory_InMemoryRepositoryFactory"><path codeLine="94" d="M266.29,563.82 C286.72,565.55 300.81,569.68 300.81,576.19 C300.81,582.71 292.6984,586.3208 272.2684,588.0608 " fill="none" id="InMemoryRepositoryFactory-to-InMemoryRepositoryFactory" style="stroke:#181818;stroke-width:1.0;"/><polygon fill="#181818" points="266.29,588.57,275.597,591.7918,271.272,588.1457,274.9181,583.8207,266.29,588.57" style="stroke:#181818;stroke-width:1.0;"/><text fill="#000000" font-family="sans-serif" font-size="13" lengthAdjust="spacing" textLength="52.4634" x="306.81" y="581.2584">instance</text></g><!--link CategoryRepository to Category--><g id="link_CategoryRepository_Category"><path codeLine="99" d="M633,932.09 C633,966.24 633,1014.51 633,1050.25 " fill="none" id="CategoryRepository-to-Category" style="stroke:#181818;stroke-width:1.0;stroke-dasharray:7.0,7.0;"/><polygon fill="#181818" points="633,1056.25,637,1047.25,633,1051.25,629,1047.25,633,1056.25" style="stroke:#181818;stroke-width:1.0;"/></g><!--link RepositoryFactory to CategoryRepository--><g id="link_RepositoryFactory_CategoryRepository"><path codeLine="102" d="M603.94,806.41 C609.81,824.99 615.4016,842.699 621.2716,861.269 " fill="none" id="RepositoryFactory-to-CategoryRepository" style="stroke:#181818;stroke-width:1.0;stroke-dasharray:7.0,7.0;"/><polygon fill="#181818" points="623.08,866.99,624.1814,857.2029,621.573,862.2225,616.5534,859.6141,623.08,866.99" style="stroke:#181818;stroke-width:1.0;"/></g><!--link Category to CategoryName--><g id="link_Category_CategoryName"><path codeLine="107" d="M596.43,1130.23 C572.27,1154.03 545.3653,1180.5303 523.1953,1202.3603 " fill="none" id="Category-to-CategoryName" style="stroke:#181818;stroke-width:1.0;"/><polygon fill="#181818" points="518.92,1206.57,528.1394,1203.1056,522.4827,1203.0619,522.5265,1197.4052,518.92,1206.57" style="stroke:#181818;stroke-width:1.0;"/><text fill="#000000" font-family="sans-serif" font-size="13" lengthAdjust="spacing" textLength="34.6265" x="567" y="1173.3384">name</text><text fill="#000000" font-family="sans-serif" font-size="13" lengthAdjust="spacing" textLength="8.2202" x="516.4781" y="1195.8468">1</text></g><!--link Category to CategoryDescription--><g id="link_Category_CategoryDescription"><path codeLine="108" d="M644.33,1130.23 C651.82,1154.03 659.6789,1179.0167 666.5489,1200.8467 " fill="none" id="Category-to-CategoryDescription" style="stroke:#181818;stroke-width:1.0;"/><polygon fill="#181818" points="668.35,1206.57,669.4638,1196.7843,666.849,1201.8006,661.8328,1199.1858,668.35,1206.57" style="stroke:#181818;stroke-width:1.0;"/><text fill="#000000" font-family="sans-serif" font-size="13" lengthAdjust="spacing" textLength="70.6431" x="659" y="1173.3384">description</text><text fill="#000000" font-family="sans-serif" font-size="13" lengthAdjust="spacing" textLength="8.2202" x="657.4504" y="1195.8468">1</text></g><!--link EditFigureCategoryUI to EditFigureCategoryController--><g id="link_EditFigureCategoryUI_EditFigureCategoryController"><path codeLine="113" d="M674,114.53 C674,139.5 674,166.63 674,191.62 " fill="none" id="EditFigureCategoryUI-to-EditFigureCategoryController" style="stroke:#181818;stroke-width:1.0;stroke-dasharray:7.0,7.0;"/><polygon fill="#181818" points="674,197.62,678,188.62,674,192.62,670,188.62,674,197.62" style="stroke:#181818;stroke-width:1.0;"/></g><!--link EditFigureCategoryController to PersistenceContext--><g id="link_EditFigureCategoryController_PersistenceContext"><path codeLine="118" d="M674,271.45 C674,301.02 674,336.62 674,364.96 " fill="none" id="EditFigureCategoryController-to-PersistenceContext" style="stroke:#181818;stroke-width:1.0;stroke-dasharray:7.0,7.0;"/><polygon fill="#181818" points="674,370.96,678,361.96,674,365.96,670,361.96,674,370.96" style="stroke:#181818;stroke-width:1.0;"/><text fill="#000000" font-family="sans-serif" font-size="13" lengthAdjust="spacing" textLength="141.4067" x="675" y="316.7884">getRepositoryFactory()</text></g><!--link EditFigureCategoryController to RepositoryFactory--><g id="link_EditFigureCategoryController_RepositoryFactory"><path codeLine="119" d="M569.8,271.51 C544.24,285.28 519.73,303.78 504,328.22 C417.35,462.84 521.8492,658.9263 569.8992,736.1163 " fill="none" id="EditFigureCategoryController-to-RepositoryFactory" style="stroke:#181818;stroke-width:1.0;stroke-dasharray:7.0,7.0;"/><polygon fill="#181818" points="573.07,741.21,571.7096,731.4555,570.4277,736.9652,564.918,735.6833,573.07,741.21" style="stroke:#181818;stroke-width:1.0;"/><text fill="#000000" font-family="sans-serif" font-size="13" lengthAdjust="spacing" textLength="152.1216" x="474" y="481.2784">getCategoryRepository()</text></g><!--link EditFigureCategoryController to CategoryRepository--><g id="link_EditFigureCategoryController_CategoryRepository"><path codeLine="120" d="M788.75,246.32 C953.12,264.8 1236,310.04 1236,402.46 C1236,402.46 1236,402.46 1236,774.93 C1236,874.11 924.9587,894.254 750.6487,897.914 " fill="none" id="EditFigureCategoryController-to-CategoryRepository" style="stroke:#181818;stroke-width:1.0;stroke-dasharray:7.0,7.0;"/><polygon fill="#181818" points="744.65,898.04,753.732,901.8502,749.6489,897.935,753.564,893.8519,744.65,898.04" style="stroke:#181818;stroke-width:1.0;"/><text fill="#000000" font-family="sans-serif" font-size="13" lengthAdjust="spacing" textLength="182.5903" x="1237" y="581.2584">editFigureCategory(category)</text></g><!--SRC=[fLPHRvim47xdLrZPGn9D8EqLLPQcffMOjgwQbBsxz8RSWK7WIAtQ_lSTn829psxM-eMOk_lkllFv8nrera4ZMg7hbgbQGHGr8lyh2c2hMsWxsMbGEMxOfzsms7F4SEMbw3fcULpMIiEZDkP-VMO5w5_Gr9r4yAThaVUFpJPbpiiXvZLwjP8tCtGYgwPC7Xf15_6j4GwWLKPCEcosopeprMc1kKBbBNDU2Wq56cTlanGTWqIagg12TvfDfduCrZ0bhzS7UOsu0N8sjrrT2Qbi8aUmoS6AFwNRBuapq_uHE5yXkXCPjwgUbljsYZJSbgcytEPSS2_rjImEBOpEczpys9w2cyTwz6HVYwA50dTMNoVZnSMLqb8_SMvVbCcyKQA2hNikeyCDcX7ZjoWFm7xUFK2kHoJIVmTTtif6orhvm-mJtMVqM5uv7TbdYBZFE5zS-JSxjnoWNZNQkYoXFJVj787fvysxobXR-cLEaL2qcBF7mKZOaeIxevkod1ZK40IbK25_x_L7JfHm6dAqQatyFERuXLDtR89qhwwDw5gJv8LxjCZZp-dI_25nJFSqHHauwY7Lg56O3RMnoSSveXeMKCk1fBThVf5tiF-hVw4W7YZtZU2-dLxhegSEqz2yaMrBvhOPY42JQ9vKszV7JzMfLZkr35nNNrOBnKrPByjXFqjfKtO_Rp3rFZDfl-EutHxkIfbZb2ZhuW2eebCDfCRsX48gYFZsnfV7air0FikhpqkeJ-hvKtSUe7jUgU-xVXuWCK9fMFoZVm00]--></g></svg>