<svg xmlns="http://www.w3.org/2000/svg" xmlns:xlink="http://www.w3.org/1999/xlink" contentStyleType="text/css" height="284px" preserveAspectRatio="none" style="width:382px;height:284px;background:#FFFFFF;" version="1.1" viewBox="0 0 382 284" width="382px" zoomAndPan="magnify"><defs/><g><!--cluster Category --><g id="cluster_Category "><path d="M8.5,6 L78.8984,6 A3.75,3.75 0 0 1 81.3984,8.5 L88.3984,28.4883 L372.5,28.4883 A2.5,2.5 0 0 1 375,30.9883 L375,274.87 A2.5,2.5 0 0 1 372.5,277.37 L8.5,277.37 A2.5,2.5 0 0 1 6,274.87 L6,8.5 A2.5,2.5 0 0 1 8.5,6 " fill="none" style="stroke:#000000;stroke-width:1.5;"/><line style="stroke:#000000;stroke-width:1.5;" x1="6" x2="88.3984" y1="28.4883" y2="28.4883"/><text fill="#000000" font-family="sans-serif" font-size="14" font-weight="bold" lengthAdjust="spacing" textLength="64.7842" x="10" y="21.5352">Category</text><text fill="#000000" font-family="sans-serif" font-size="14" font-style="italic" lengthAdjust="spacing" textLength="82.8857" x="153.0571" y="44.0234">&#171;aggregate&#187;</text></g><!--class Category--><g id="elem_Category"><rect codeLine="4" fill="#F1F1F1" height="70.7539" id="Category" rx="2.5" ry="2.5" style="stroke:#181818;stroke-width:0.5;" width="92.8262" x="106.59" y="57"/><ellipse cx="121.59" cy="84.377" fill="#ADD1B2" rx="11" ry="11" style="stroke:#181818;stroke-width:1.0;"/><path d="M124.5631,90.02 Q123.9821,90.3188 123.3429,90.4683 Q122.7038,90.6177 121.9982,90.6177 Q119.4914,90.6177 118.1715,88.9658 Q116.8517,87.314 116.8517,84.1929 Q116.8517,81.0635 118.1715,79.4116 Q119.4914,77.7598 121.9982,77.7598 Q122.7038,77.7598 123.3512,77.9092 Q123.9987,78.0586 124.5631,78.3574 L124.5631,81.0801 Q123.9323,80.499 123.3388,80.2292 Q122.7453,79.9595 122.1144,79.9595 Q120.7697,79.9595 120.0849,81.0261 Q119.4001,82.0928 119.4001,84.1929 Q119.4001,86.2847 120.0849,87.3513 Q120.7697,88.418 122.1144,88.418 Q122.7453,88.418 123.3388,88.1482 Q123.9323,87.8784 124.5631,87.2974 Z " fill="#000000"/><text fill="#000000" font-family="sans-serif" font-size="12" font-style="italic" lengthAdjust="spacing" textLength="45.2402" x="143.383" y="73.6016">&#171;Entity&#187;</text><text fill="#000000" font-family="sans-serif" font-size="12" font-style="italic" lengthAdjust="spacing" textLength="36.7148" x="147.6457" y="87.7344">&#171;root&#187;</text><text fill="#000000" font-family="sans-serif" font-size="14" lengthAdjust="spacing" textLength="60.8262" x="135.59" y="103.8008">Category</text><line style="stroke:#181818;stroke-width:0.5;" x1="107.59" x2="198.4162" y1="111.7539" y2="111.7539"/><line style="stroke:#181818;stroke-width:0.5;" x1="107.59" x2="198.4162" y1="119.7539" y2="119.7539"/></g><!--class CategoryName--><g id="elem_CategoryName"><rect codeLine="7" fill="#F1F1F1" height="56.6211" id="CategoryName" rx="2.5" ry="2.5" style="stroke:#181818;stroke-width:0.5;" width="131.7705" x="22.11" y="204.75"/><ellipse cx="37.11" cy="225.0605" fill="#ADD1B2" rx="11" ry="11" style="stroke:#181818;stroke-width:1.0;"/><path d="M40.0831,230.7036 Q39.5021,231.0024 38.8629,231.1519 Q38.2238,231.3013 37.5182,231.3013 Q35.0114,231.3013 33.6915,229.6494 Q32.3717,227.9976 32.3717,224.8765 Q32.3717,221.7471 33.6915,220.0952 Q35.0114,218.4434 37.5182,218.4434 Q38.2238,218.4434 38.8712,218.5928 Q39.5187,218.7422 40.0831,219.041 L40.0831,221.7637 Q39.4523,221.1826 38.8588,220.9128 Q38.2653,220.6431 37.6344,220.6431 Q36.2897,220.6431 35.6049,221.7097 Q34.9201,222.7764 34.9201,224.8765 Q34.9201,226.9683 35.6049,228.0349 Q36.2897,229.1016 37.6344,229.1016 Q38.2653,229.1016 38.8588,228.8318 Q39.4523,228.562 40.0831,227.981 Z " fill="#000000"/><text fill="#000000" font-family="sans-serif" font-size="12" font-style="italic" lengthAdjust="spacing" textLength="86.291" x="57.8497" y="221.3516">&#171;Value Object&#187;</text><text fill="#000000" font-family="sans-serif" font-size="14" lengthAdjust="spacing" textLength="99.7705" x="51.11" y="237.418">CategoryName</text><line style="stroke:#181818;stroke-width:0.5;" x1="23.11" x2="152.8805" y1="245.3711" y2="245.3711"/><line style="stroke:#181818;stroke-width:0.5;" x1="23.11" x2="152.8805" y1="253.3711" y2="253.3711"/></g><!--class CategoryDescription--><g id="elem_CategoryDescription"><rect codeLine="10" fill="#F1F1F1" height="56.6211" id="CategoryDescription" rx="2.5" ry="2.5" style="stroke:#181818;stroke-width:0.5;" width="170.5781" x="188.71" y="204.75"/><ellipse cx="203.71" cy="225.0605" fill="#ADD1B2" rx="11" ry="11" style="stroke:#181818;stroke-width:1.0;"/><path d="M206.6831,230.7036 Q206.1021,231.0024 205.4629,231.1519 Q204.8238,231.3013 204.1182,231.3013 Q201.6114,231.3013 200.2915,229.6494 Q198.9717,227.9976 198.9717,224.8765 Q198.9717,221.7471 200.2915,220.0952 Q201.6114,218.4434 204.1182,218.4434 Q204.8238,218.4434 205.4712,218.5928 Q206.1187,218.7422 206.6831,219.041 L206.6831,221.7637 Q206.0523,221.1826 205.4588,220.9128 Q204.8653,220.6431 204.2344,220.6431 Q202.8897,220.6431 202.2049,221.7097 Q201.5201,222.7764 201.5201,224.8765 Q201.5201,226.9683 202.2049,228.0349 Q202.8897,229.1016 204.2344,229.1016 Q204.8653,229.1016 205.4588,228.8318 Q206.0523,228.562 206.6831,227.981 Z " fill="#000000"/><text fill="#000000" font-family="sans-serif" font-size="12" font-style="italic" lengthAdjust="spacing" textLength="86.291" x="243.8536" y="221.3516">&#171;Value Object&#187;</text><text fill="#000000" font-family="sans-serif" font-size="14" lengthAdjust="spacing" textLength="138.5781" x="217.71" y="237.418">CategoryDescription</text><line style="stroke:#181818;stroke-width:0.5;" x1="189.71" x2="358.2881" y1="245.3711" y2="245.3711"/><line style="stroke:#181818;stroke-width:0.5;" x1="189.71" x2="358.2881" y1="253.3711" y2="253.3711"/></g><!--link Category to CategoryName--><g id="link_Category_CategoryName"><path codeLine="14" d="M136.77,128.01 C125.71,151.6 113.8168,176.9773 103.5268,198.9273 " fill="none" id="Category-to-CategoryName" style="stroke:#181818;stroke-width:1.0;"/><polygon fill="#181818" points="100.98,204.36,108.422,197.9089,103.1023,199.8328,101.1784,194.5131,100.98,204.36" style="stroke:#181818;stroke-width:1.0;"/><text fill="#000000" font-family="sans-serif" font-size="13" lengthAdjust="spacing" textLength="34.6265" x="123" y="171.3184">name</text><text fill="#000000" font-family="sans-serif" font-size="13" lengthAdjust="spacing" textLength="8.2202" x="94.9695" y="194.0435">1</text></g><!--link Category to CategoryDescription--><g id="link_Category_CategoryDescription"><path codeLine="15" d="M183.22,128.01 C203.8,151.6 226.7344,177.8898 245.8944,199.8398 " fill="none" id="Category-to-CategoryDescription" style="stroke:#181818;stroke-width:1.0;"/><polygon fill="#181818" points="249.84,204.36,246.935,194.9493,246.552,200.5932,240.9081,200.2102,249.84,204.36" style="stroke:#181818;stroke-width:1.0;"/><text fill="#000000" font-family="sans-serif" font-size="13" lengthAdjust="spacing" textLength="70.6431" x="221" y="171.3184">description</text><text fill="#000000" font-family="sans-serif" font-size="13" lengthAdjust="spacing" textLength="8.2202" x="235.7043" y="194.0435">1</text></g><!--SRC=[AqXCpavCJrLGSauiIKtFBwfKK5AmiKbCJozAJGUAsDbLSt4f045oJc9niG9SaOsDQrv9PacbdHsGMPIVNm9I259NYqsvNs9kAb1TM69EQQg2Vr9MQZ9-zIwfnSb5cGKbcVbv-BMfmnsaQwTG0HP2Y025b0oLK1nXfP079F6hGxBSIY45mU420000]--></g></svg>