<?xml version="1.0" encoding="UTF-8" standalone="no"?><svg xmlns="http://www.w3.org/2000/svg" xmlns:xlink="http://www.w3.org/1999/xlink" contentStyleType="text/css" height="928px" preserveAspectRatio="none" style="width:2165px;height:928px;background:#FFFFFF;" version="1.1" viewBox="0 0 2165 928" width="2165px" zoomAndPan="magnify"><defs/><g><rect fill="#FFFFFF" height="721.125" style="stroke:#181818;stroke-width:1.0;" width="10" x="54" y="100.1563"/><rect fill="#FFFFFF" height="689.9688" style="stroke:#181818;stroke-width:1.0;" width="10" x="568" y="131.3125"/><rect fill="#FFFFFF" height="619.6563" style="stroke:#181818;stroke-width:1.0;" width="10" x="1229" y="170.4688"/><rect fill="#FFFFFF" height="39.1563" style="stroke:#181818;stroke-width:1.0;" width="10" x="1477" y="209.625"/><rect fill="#FFFFFF" height="39.1563" style="stroke:#181818;stroke-width:1.0;" width="10" x="1639.5" y="287.9375"/><rect fill="#FFFFFF" height="39.1563" style="stroke:#181818;stroke-width:1.0;" width="10" x="1639.5" y="366.25"/><rect fill="#FFFFFF" height="39.1563" style="stroke:#181818;stroke-width:1.0;" width="10" x="1824.5" y="444.5625"/><rect fill="#FFFFFF" height="39.1563" style="stroke:#181818;stroke-width:1.0;" width="10" x="2031.5" y="567.1875"/><rect fill="#FFFFFF" height="39.1563" style="stroke:#181818;stroke-width:1.0;" width="10" x="2031.5" y="645.5"/><rect fill="none" height="284.4063" style="stroke:#000000;stroke-width:1.5;" width="1681.5" x="478" y="498.7188"/><rect fill="none" height="76.4688" style="stroke:#000000;stroke-width:1.5;" width="864" x="488" y="699.6563"/><line style="stroke:#181818;stroke-width:0.5;stroke-dasharray:5.0,5.0;" x1="59" x2="59" y1="90.1563" y2="839.2813"/><line style="stroke:#181818;stroke-width:0.5;stroke-dasharray:5.0,5.0;" x1="573" x2="573" y1="90.1563" y2="839.2813"/><line style="stroke:#181818;stroke-width:0.5;stroke-dasharray:5.0,5.0;" x1="1234" x2="1234" y1="90.1563" y2="839.2813"/><line style="stroke:#181818;stroke-width:0.5;stroke-dasharray:5.0,5.0;" x1="1481.5" x2="1481.5" y1="90.1563" y2="839.2813"/><line style="stroke:#181818;stroke-width:0.5;stroke-dasharray:5.0,5.0;" x1="1644.5" x2="1644.5" y1="90.1563" y2="839.2813"/><line style="stroke:#181818;stroke-width:0.5;stroke-dasharray:5.0,5.0;" x1="1829.5" x2="1829.5" y1="90.1563" y2="839.2813"/><line style="stroke:#181818;stroke-width:0.5;stroke-dasharray:5.0,5.0;" x1="2036.5" x2="2036.5" y1="90.1563" y2="839.2813"/><text fill="#000000" font-family="sans-serif" font-size="20" lengthAdjust="spacing" textLength="102" x="5" y="85.7617">Drone Tech</text><ellipse cx="59" cy="13.5" fill="#E2E2F0" rx="8" ry="8" style="stroke:#181818;stroke-width:0.5;"/><path d="M59,21.5 L59,48.5 M46,29.5 L72,29.5 M59,48.5 L46,63.5 M59,48.5 L72,63.5 " fill="none" style="stroke:#181818;stroke-width:0.5;"/><text fill="#000000" font-family="sans-serif" font-size="20" lengthAdjust="spacing" textLength="102" x="5" y="859.043">Drone Tech</text><ellipse cx="59" cy="871.9375" fill="#E2E2F0" rx="8" ry="8" style="stroke:#181818;stroke-width:0.5;"/><path d="M59,879.9375 L59,906.9375 M46,887.9375 L72,887.9375 M59,906.9375 L46,921.9375 M59,906.9375 L72,921.9375 " fill="none" style="stroke:#181818;stroke-width:0.5;"/><rect fill="#E2E2F0" height="39.1563" rx="2.5" ry="2.5" style="stroke:#181818;stroke-width:0.5;" width="150" x="498" y="50"/><text fill="#000000" font-family="sans-serif" font-size="20" lengthAdjust="spacing" textLength="136" x="505" y="77.7617">:MaintenanceUI</text><rect fill="#E2E2F0" height="39.1563" rx="2.5" ry="2.5" style="stroke:#181818;stroke-width:0.5;" width="150" x="498" y="838.2813"/><text fill="#000000" font-family="sans-serif" font-size="20" lengthAdjust="spacing" textLength="136" x="505" y="866.043">:MaintenanceUI</text><rect fill="#E2E2F0" height="39.1563" rx="2.5" ry="2.5" style="stroke:#181818;stroke-width:0.5;" width="216" x="1126" y="50"/><text fill="#000000" font-family="sans-serif" font-size="20" lengthAdjust="spacing" textLength="202" x="1133" y="77.7617">:MaintenanceController</text><rect fill="#E2E2F0" height="39.1563" rx="2.5" ry="2.5" style="stroke:#181818;stroke-width:0.5;" width="216" x="1126" y="838.2813"/><text fill="#000000" font-family="sans-serif" font-size="20" lengthAdjust="spacing" textLength="202" x="1133" y="866.043">:MaintenanceController</text><rect fill="#E2E2F0" height="39.1563" rx="2.5" ry="2.5" style="stroke:#181818;stroke-width:0.5;" width="123" x="1420.5" y="50"/><text fill="#000000" font-family="sans-serif" font-size="20" lengthAdjust="spacing" textLength="109" x="1427.5" y="77.7617">:Persistence</text><rect fill="#E2E2F0" height="39.1563" rx="2.5" ry="2.5" style="stroke:#181818;stroke-width:0.5;" width="123" x="1420.5" y="838.2813"/><text fill="#000000" font-family="sans-serif" font-size="20" lengthAdjust="spacing" textLength="109" x="1427.5" y="866.043">:Persistence</text><rect fill="#E2E2F0" height="39.1563" rx="2.5" ry="2.5" style="stroke:#181818;stroke-width:0.5;" width="182" x="1553.5" y="50"/><text fill="#000000" font-family="sans-serif" font-size="20" lengthAdjust="spacing" textLength="168" x="1560.5" y="77.7617">:RepositoryFactory</text><rect fill="#E2E2F0" height="39.1563" rx="2.5" ry="2.5" style="stroke:#181818;stroke-width:0.5;" width="182" x="1553.5" y="838.2813"/><text fill="#000000" font-family="sans-serif" font-size="20" lengthAdjust="spacing" textLength="168" x="1560.5" y="866.043">:RepositoryFactory</text><rect fill="#E2E2F0" height="39.1563" rx="2.5" ry="2.5" style="stroke:#181818;stroke-width:0.5;" width="168" x="1745.5" y="50"/><text fill="#000000" font-family="sans-serif" font-size="20" lengthAdjust="spacing" textLength="154" x="1752.5" y="77.7617">:DroneRepository</text><rect fill="#E2E2F0" height="39.1563" rx="2.5" ry="2.5" style="stroke:#181818;stroke-width:0.5;" width="168" x="1745.5" y="838.2813"/><text fill="#000000" font-family="sans-serif" font-size="20" lengthAdjust="spacing" textLength="154" x="1752.5" y="866.043">:DroneRepository</text><rect fill="#E2E2F0" height="39.1563" rx="2.5" ry="2.5" style="stroke:#181818;stroke-width:0.5;" width="226" x="1923.5" y="50"/><text fill="#000000" font-family="sans-serif" font-size="20" lengthAdjust="spacing" textLength="212" x="1930.5" y="77.7617">:MaintenanceRepository</text><rect fill="#E2E2F0" height="39.1563" rx="2.5" ry="2.5" style="stroke:#181818;stroke-width:0.5;" width="226" x="1923.5" y="838.2813"/><text fill="#000000" font-family="sans-serif" font-size="20" lengthAdjust="spacing" textLength="212" x="1930.5" y="866.043">:MaintenanceRepository</text><rect fill="#FFFFFF" height="721.125" style="stroke:#181818;stroke-width:1.0;" width="10" x="54" y="100.1563"/><rect fill="#FFFFFF" height="689.9688" style="stroke:#181818;stroke-width:1.0;" width="10" x="568" y="131.3125"/><rect fill="#FFFFFF" height="619.6563" style="stroke:#181818;stroke-width:1.0;" width="10" x="1229" y="170.4688"/><rect fill="#FFFFFF" height="39.1563" style="stroke:#181818;stroke-width:1.0;" width="10" x="1477" y="209.625"/><rect fill="#FFFFFF" height="39.1563" style="stroke:#181818;stroke-width:1.0;" width="10" x="1639.5" y="287.9375"/><rect fill="#FFFFFF" height="39.1563" style="stroke:#181818;stroke-width:1.0;" width="10" x="1639.5" y="366.25"/><rect fill="#FFFFFF" height="39.1563" style="stroke:#181818;stroke-width:1.0;" width="10" x="1824.5" y="444.5625"/><rect fill="#FFFFFF" height="39.1563" style="stroke:#181818;stroke-width:1.0;" width="10" x="2031.5" y="567.1875"/><rect fill="#FFFFFF" height="39.1563" style="stroke:#181818;stroke-width:1.0;" width="10" x="2031.5" y="645.5"/><polygon fill="#181818" points="556,127.3125,566,131.3125,556,135.3125,560,131.3125" style="stroke:#181818;stroke-width:1.0;"/><line style="stroke:#181818;stroke-width:1.0;" x1="64" x2="562" y1="131.3125" y2="131.3125"/><text fill="#000000" font-family="sans-serif" font-size="20" font-weight="bold" lengthAdjust="spacing" textLength="11" x="71" y="124.918">1</text><text fill="#000000" font-family="sans-serif" font-size="20" lengthAdjust="spacing" textLength="470" x="86" y="124.918">request to list drones needing preventive maintenance</text><polygon fill="#181818" points="1217,166.4688,1227,170.4688,1217,174.4688,1221,170.4688" style="stroke:#181818;stroke-width:1.0;"/><line style="stroke:#181818;stroke-width:1.0;" x1="578" x2="1223" y1="170.4688" y2="170.4688"/><text fill="#000000" font-family="sans-serif" font-size="20" font-weight="bold" lengthAdjust="spacing" textLength="11" x="585" y="164.0742">2</text><text fill="#000000" font-family="sans-serif" font-size="20" lengthAdjust="spacing" textLength="287" x="600" y="164.0742">getDronesNeedingMaintenance()</text><polygon fill="#181818" points="1465,205.625,1475,209.625,1465,213.625,1469,209.625" style="stroke:#181818;stroke-width:1.0;"/><line style="stroke:#181818;stroke-width:1.0;stroke-dasharray:2.0,2.0;" x1="1239" x2="1471" y1="209.625" y2="209.625"/><text fill="#000000" font-family="sans-serif" font-size="20" font-weight="bold" lengthAdjust="spacing" textLength="11" x="1246" y="203.2305">3</text><text fill="#000000" font-family="sans-serif" font-size="20" lengthAdjust="spacing" textLength="204" x="1261" y="203.2305">getRepositoryFactory()</text><polygon fill="#181818" points="1250,244.7813,1240,248.7813,1250,252.7813,1246,248.7813" style="stroke:#181818;stroke-width:1.0;"/><line style="stroke:#181818;stroke-width:1.0;stroke-dasharray:2.0,2.0;" x1="1244" x2="1481" y1="248.7813" y2="248.7813"/><text fill="#000000" font-family="sans-serif" font-size="20" font-weight="bold" lengthAdjust="spacing" textLength="11" x="1256" y="242.3867">4</text><text fill="#000000" font-family="sans-serif" font-size="20" lengthAdjust="spacing" textLength="155" x="1271" y="242.3867">repositoryFactory</text><polygon fill="#181818" points="1627.5,283.9375,1637.5,287.9375,1627.5,291.9375,1631.5,287.9375" style="stroke:#181818;stroke-width:1.0;"/><line style="stroke:#181818;stroke-width:1.0;" x1="1239" x2="1633.5" y1="287.9375" y2="287.9375"/><text fill="#000000" font-family="sans-serif" font-size="20" font-weight="bold" lengthAdjust="spacing" textLength="11" x="1246" y="281.543">5</text><text fill="#000000" font-family="sans-serif" font-size="20" lengthAdjust="spacing" textLength="116" x="1261" y="281.543">getInstance()</text><polygon fill="#181818" points="1250,323.0938,1240,327.0938,1250,331.0938,1246,327.0938" style="stroke:#181818;stroke-width:1.0;"/><line style="stroke:#181818;stroke-width:1.0;stroke-dasharray:2.0,2.0;" x1="1244" x2="1643.5" y1="327.0938" y2="327.0938"/><text fill="#000000" font-family="sans-serif" font-size="20" font-weight="bold" lengthAdjust="spacing" textLength="11" x="1256" y="320.6992">6</text><text fill="#000000" font-family="sans-serif" font-size="20" lengthAdjust="spacing" textLength="103" x="1271" y="320.6992">repositories</text><polygon fill="#181818" points="1627.5,362.25,1637.5,366.25,1627.5,370.25,1631.5,366.25" style="stroke:#181818;stroke-width:1.0;"/><line style="stroke:#181818;stroke-width:1.0;" x1="1239" x2="1633.5" y1="366.25" y2="366.25"/><text fill="#000000" font-family="sans-serif" font-size="20" font-weight="bold" lengthAdjust="spacing" textLength="11" x="1246" y="359.8555">7</text><text fill="#000000" font-family="sans-serif" font-size="20" lengthAdjust="spacing" textLength="190" x="1261" y="359.8555">getDroneRepository()</text><polygon fill="#181818" points="1250,401.4063,1240,405.4063,1250,409.4063,1246,405.4063" style="stroke:#181818;stroke-width:1.0;"/><line style="stroke:#181818;stroke-width:1.0;stroke-dasharray:2.0,2.0;" x1="1244" x2="1643.5" y1="405.4063" y2="405.4063"/><text fill="#000000" font-family="sans-serif" font-size="20" font-weight="bold" lengthAdjust="spacing" textLength="11" x="1256" y="399.0117">8</text><text fill="#000000" font-family="sans-serif" font-size="20" lengthAdjust="spacing" textLength="145" x="1271" y="399.0117">droneRepository</text><polygon fill="#181818" points="1812.5,440.5625,1822.5,444.5625,1812.5,448.5625,1816.5,444.5625" style="stroke:#181818;stroke-width:1.0;"/><line style="stroke:#181818;stroke-width:1.0;" x1="1239" x2="1818.5" y1="444.5625" y2="444.5625"/><text fill="#000000" font-family="sans-serif" font-size="20" font-weight="bold" lengthAdjust="spacing" textLength="11" x="1246" y="438.168">9</text><text fill="#000000" font-family="sans-serif" font-size="20" lengthAdjust="spacing" textLength="161" x="1261" y="438.168">findActiveDrones()</text><polygon fill="#181818" points="1250,479.7188,1240,483.7188,1250,487.7188,1246,483.7188" style="stroke:#181818;stroke-width:1.0;"/><line style="stroke:#181818;stroke-width:1.0;stroke-dasharray:2.0,2.0;" x1="1244" x2="1828.5" y1="483.7188" y2="483.7188"/><text fill="#000000" font-family="sans-serif" font-size="20" font-weight="bold" lengthAdjust="spacing" textLength="22" x="1256" y="477.3242">10</text><text fill="#000000" font-family="sans-serif" font-size="20" lengthAdjust="spacing" textLength="145" x="1282" y="477.3242">activeDronesList</text><path d="M478,498.7188 L564,498.7188 L564,515.875 L554,525.875 L478,525.875 L478,498.7188 " fill="#EEEEEE" style="stroke:#000000;stroke-width:1.5;"/><rect fill="none" height="284.4063" style="stroke:#000000;stroke-width:1.5;" width="1681.5" x="478" y="498.7188"/><text fill="#000000" font-family="sans-serif" font-size="20" font-weight="bold" lengthAdjust="spacing" textLength="41" x="493" y="520.4805">loop</text><text fill="#000000" font-family="sans-serif" font-size="20" font-weight="bold" lengthAdjust="spacing" textLength="341" x="579" y="521.4805">[for each drone in activeDronesList]</text><polygon fill="#181818" points="2019.5,563.1875,2029.5,567.1875,2019.5,571.1875,2023.5,567.1875" style="stroke:#181818;stroke-width:1.0;"/><line style="stroke:#181818;stroke-width:1.0;" x1="1239" x2="2025.5" y1="567.1875" y2="567.1875"/><text fill="#000000" font-family="sans-serif" font-size="20" font-weight="bold" lengthAdjust="spacing" textLength="22" x="1246" y="560.793">11</text><text fill="#000000" font-family="sans-serif" font-size="20" lengthAdjust="spacing" textLength="212" x="1272" y="560.793">getUsageTime(drone.id)</text><polygon fill="#181818" points="1250,602.3438,1240,606.3438,1250,610.3438,1246,606.3438" style="stroke:#181818;stroke-width:1.0;"/><line style="stroke:#181818;stroke-width:1.0;stroke-dasharray:2.0,2.0;" x1="1244" x2="2035.5" y1="606.3438" y2="606.3438"/><text fill="#000000" font-family="sans-serif" font-size="20" font-weight="bold" lengthAdjust="spacing" textLength="22" x="1256" y="599.9492">12</text><text fill="#000000" font-family="sans-serif" font-size="20" lengthAdjust="spacing" textLength="96" x="1282" y="599.9492">usageTime</text><polygon fill="#181818" points="2019.5,641.5,2029.5,645.5,2019.5,649.5,2023.5,645.5" style="stroke:#181818;stroke-width:1.0;"/><line style="stroke:#181818;stroke-width:1.0;" x1="1239" x2="2025.5" y1="645.5" y2="645.5"/><text fill="#000000" font-family="sans-serif" font-size="20" font-weight="bold" lengthAdjust="spacing" textLength="22" x="1246" y="639.1055">13</text><text fill="#000000" font-family="sans-serif" font-size="20" lengthAdjust="spacing" textLength="303" x="1272" y="639.1055">getMaintenanceLimit(drone.model)</text><polygon fill="#181818" points="1250,680.6563,1240,684.6563,1250,688.6563,1246,684.6563" style="stroke:#181818;stroke-width:1.0;"/><line style="stroke:#181818;stroke-width:1.0;stroke-dasharray:2.0,2.0;" x1="1244" x2="2035.5" y1="684.6563" y2="684.6563"/><text fill="#000000" font-family="sans-serif" font-size="20" font-weight="bold" lengthAdjust="spacing" textLength="22" x="1256" y="678.2617">14</text><text fill="#000000" font-family="sans-serif" font-size="20" lengthAdjust="spacing" textLength="151" x="1282" y="678.2617">maintenanceLimit</text><path d="M488,699.6563 L556,699.6563 L556,716.8125 L546,726.8125 L488,726.8125 L488,699.6563 " fill="#EEEEEE" style="stroke:#000000;stroke-width:1.5;"/><rect fill="none" height="76.4688" style="stroke:#000000;stroke-width:1.5;" width="864" x="488" y="699.6563"/><text fill="#000000" font-family="sans-serif" font-size="20" font-weight="bold" lengthAdjust="spacing" textLength="23" x="503" y="721.418">alt</text><text fill="#000000" font-family="sans-serif" font-size="20" font-weight="bold" lengthAdjust="spacing" textLength="391" x="571" y="722.418">[if usageTime exceeds maintenanceLimit]</text><polygon fill="#181818" points="589,764.125,579,768.125,589,772.125,585,768.125" style="stroke:#181818;stroke-width:1.0;"/><line style="stroke:#181818;stroke-width:1.0;" x1="583" x2="1228" y1="768.125" y2="768.125"/><text fill="#000000" font-family="sans-serif" font-size="20" font-weight="bold" lengthAdjust="spacing" textLength="22" x="595" y="761.7305">15</text><text fill="#000000" font-family="sans-serif" font-size="20" lengthAdjust="spacing" textLength="601" x="621" y="761.7305">showDroneNeedsMaintenance(drone, usageTime, maintenanceLimit)</text><polygon fill="#181818" points="70,817.2813,60,821.2813,70,825.2813,66,821.2813" style="stroke:#181818;stroke-width:1.0;"/><line style="stroke:#181818;stroke-width:1.0;stroke-dasharray:2.0,2.0;" x1="64" x2="572" y1="821.2813" y2="821.2813"/><text fill="#000000" font-family="sans-serif" font-size="20" font-weight="bold" lengthAdjust="spacing" textLength="22" x="76" y="814.8867">16</text><text fill="#000000" font-family="sans-serif" font-size="20" lengthAdjust="spacing" textLength="370" x="102" y="814.8867">display list of drones needing maintenance</text><!--SRC=[fLJDRXen4BxlKuouD952LVMOGwGe40c940JBkNBNiwo5rzwkJLBwz1tRXPqueAOg5v3v_cOy7hTJfXEzQBMjTYX1OYtssZzQuzVg5yBNByKdTyH0QusjcjwsM1J3QIUgdTZYsXyqGe-L5sQhaG5S8wHzLMOBjT2Ek6BlhTcttx6dtvMtFOmclJK89LRD28I3ILaGrwjATS9u6Dq-2MKy6c4gtCmYP3Ex37cW_BtL6li8VIXNymoynDufH_0A8sGvNQqpo0exwnIbEpp6a8S8N4sNppaoXX_WgOBLysBwBQ0lnymeJ_UpHPaeeItgHNWCdIWc9Oplg62ufVx-sAFpu2reoWyoM3imY38qkEln1GrH4Th1Pr2ZfW5zI8e4Grj8Sei-5k0MIOG5lBgEy1CzDZ8UHUwOH4BZaiYxVkNisEDm4ZdZ8K6VCoDAubicyxrBrv1yPyRvSs7JJOMZ13vdgD3bNebsoIoxwd_mb6-P7x0THeZejJBoFe0nNLRkpEOjd3Ckoo2Om9p69m_1HE9VsjeEQdgV16bI1Q3CUHcUV9ZarBMDemLHgXQleiPd9QzFd9Cv6__ZVqo7LR4_gfrmh0J-YFuMYqtwNBNA_qdNMedwVmAscUv7SmhjGTL3VO0_AtgJxh8Whoxk1zVOrtWnuJ4x_fHZRJU3-CqxrQ5aDBBWtontMW5XWOG9BSDWAzTfSKZxoDRvIk9xYEdG9kA3L_u6]--></g></svg>