<?xml version="1.0" encoding="UTF-8" standalone="no"?><svg xmlns="http://www.w3.org/2000/svg" xmlns:xlink="http://www.w3.org/1999/xlink" contentStyleType="text/css" height="1657px" preserveAspectRatio="none" style="width:2210px;height:1657px;background:#FFFFFF;" version="1.1" viewBox="0 0 2210 1657" width="2210px" zoomAndPan="magnify"><defs/><g><rect fill="#FFFFFF" height="1449.625" style="stroke:#181818;stroke-width:1.0;" width="10" x="51" y="100.1563"/><rect fill="#FFFFFF" height="430.7188" style="stroke:#181818;stroke-width:1.0;" width="10" x="532" y="131.3125"/><rect fill="#FFFFFF" height="39.1563" style="stroke:#181818;stroke-width:1.0;" width="10" x="532" y="601.1875"/><rect fill="#FFFFFF" height="39.1563" style="stroke:#181818;stroke-width:1.0;" width="10" x="532" y="679.5"/><rect fill="#FFFFFF" height="791.9688" style="stroke:#181818;stroke-width:1.0;" width="10" x="532" y="757.8125"/><rect fill="#FFFFFF" height="352.4063" style="stroke:#181818;stroke-width:1.0;" width="10" x="967" y="170.4688"/><rect fill="#FFFFFF" height="713.6563" style="stroke:#181818;stroke-width:1.0;" width="10" x="967" y="796.9688"/><rect fill="#FFFFFF" height="285.0938" style="stroke:#181818;stroke-width:1.0;" width="10" x="972" y="844.125"/><rect fill="#FFFFFF" height="39.1563" style="stroke:#181818;stroke-width:1.0;" width="10" x="1217" y="209.625"/><rect fill="#FFFFFF" height="39.1563" style="stroke:#181818;stroke-width:1.0;" width="10" x="1217" y="888.2813"/><rect fill="#FFFFFF" height="39.1563" style="stroke:#181818;stroke-width:1.0;" width="10" x="1379.5" y="287.9375"/><rect fill="#FFFFFF" height="39.1563" style="stroke:#181818;stroke-width:1.0;" width="10" x="1379.5" y="966.5938"/><rect fill="#FFFFFF" height="39.1563" style="stroke:#181818;stroke-width:1.0;" width="10" x="1574.5" y="366.25"/><rect fill="#FFFFFF" height="39.1563" style="stroke:#181818;stroke-width:1.0;" width="10" x="1574.5" y="1044.9063"/><rect fill="#FFFFFF" height="39.1563" style="stroke:#181818;stroke-width:1.0;" width="10" x="1762.5" y="444.5625"/><rect fill="#FFFFFF" height="296.0938" style="stroke:#181818;stroke-width:1.0;" width="10" x="1762.5" y="1175.375"/><rect fill="#FFFFFF" height="50.1563" style="stroke:#181818;stroke-width:1.0;" width="10" x="1767.5" y="1222.5313"/><line style="stroke:#181818;stroke-width:0.5;stroke-dasharray:5.0,5.0;" x1="56" x2="56" y1="90.1563" y2="1567.7813"/><line style="stroke:#181818;stroke-width:0.5;stroke-dasharray:5.0,5.0;" x1="537" x2="537" y1="90.1563" y2="1567.7813"/><line style="stroke:#181818;stroke-width:0.5;stroke-dasharray:5.0,5.0;" x1="972" x2="972" y1="90.1563" y2="1567.7813"/><line style="stroke:#181818;stroke-width:0.5;stroke-dasharray:5.0,5.0;" x1="1221.5" x2="1221.5" y1="90.1563" y2="1567.7813"/><line style="stroke:#181818;stroke-width:0.5;stroke-dasharray:5.0,5.0;" x1="1384.5" x2="1384.5" y1="90.1563" y2="1567.7813"/><line style="stroke:#181818;stroke-width:0.5;stroke-dasharray:5.0,5.0;" x1="1579.5" x2="1579.5" y1="90.1563" y2="1567.7813"/><line style="stroke:#181818;stroke-width:0.5;stroke-dasharray:5.0,5.0;" x1="1767.5" x2="1767.5" y1="90.1563" y2="1567.7813"/><line style="stroke:#181818;stroke-width:0.5;stroke-dasharray:5.0,5.0;" x1="2167.5" x2="2167.5" y1="1412.6563" y2="1567.7813"/><text fill="#000000" font-family="sans-serif" font-size="20" lengthAdjust="spacing" textLength="96" x="5" y="85.7617">DroneTech</text><ellipse cx="56" cy="13.5" fill="#E2E2F0" rx="8" ry="8" style="stroke:#181818;stroke-width:0.5;"/><path d="M56,21.5 L56,48.5 M43,29.5 L69,29.5 M56,48.5 L43,63.5 M56,48.5 L69,63.5 " fill="none" style="stroke:#181818;stroke-width:0.5;"/><text fill="#000000" font-family="sans-serif" font-size="20" lengthAdjust="spacing" textLength="96" x="5" y="1587.543">DroneTech</text><ellipse cx="56" cy="1600.4375" fill="#E2E2F0" rx="8" ry="8" style="stroke:#181818;stroke-width:0.5;"/><path d="M56,1608.4375 L56,1635.4375 M43,1616.4375 L69,1616.4375 M56,1635.4375 L43,1650.4375 M56,1635.4375 L69,1650.4375 " fill="none" style="stroke:#181818;stroke-width:0.5;"/><rect fill="#E2E2F0" height="39.1563" rx="2.5" ry="2.5" style="stroke:#181818;stroke-width:0.5;" width="164" x="455" y="50"/><text fill="#000000" font-family="sans-serif" font-size="20" lengthAdjust="spacing" textLength="150" x="462" y="77.7617">:RemoveDroneUI</text><rect fill="#E2E2F0" height="39.1563" rx="2.5" ry="2.5" style="stroke:#181818;stroke-width:0.5;" width="164" x="455" y="1566.7813"/><text fill="#000000" font-family="sans-serif" font-size="20" lengthAdjust="spacing" textLength="150" x="462" y="1594.543">:RemoveDroneUI</text><rect fill="#E2E2F0" height="39.1563" rx="2.5" ry="2.5" style="stroke:#181818;stroke-width:0.5;" width="230" x="857" y="50"/><text fill="#000000" font-family="sans-serif" font-size="20" lengthAdjust="spacing" textLength="216" x="864" y="77.7617">:RemoveDroneController</text><rect fill="#E2E2F0" height="39.1563" rx="2.5" ry="2.5" style="stroke:#181818;stroke-width:0.5;" width="230" x="857" y="1566.7813"/><text fill="#000000" font-family="sans-serif" font-size="20" lengthAdjust="spacing" textLength="216" x="864" y="1594.543">:RemoveDroneController</text><rect fill="#E2E2F0" height="39.1563" rx="2.5" ry="2.5" style="stroke:#181818;stroke-width:0.5;" width="123" x="1160.5" y="50"/><text fill="#000000" font-family="sans-serif" font-size="20" lengthAdjust="spacing" textLength="109" x="1167.5" y="77.7617">:Persistence</text><rect fill="#E2E2F0" height="39.1563" rx="2.5" ry="2.5" style="stroke:#181818;stroke-width:0.5;" width="123" x="1160.5" y="1566.7813"/><text fill="#000000" font-family="sans-serif" font-size="20" lengthAdjust="spacing" textLength="109" x="1167.5" y="1594.543">:Persistence</text><rect fill="#E2E2F0" height="39.1563" rx="2.5" ry="2.5" style="stroke:#181818;stroke-width:0.5;" width="182" x="1293.5" y="50"/><text fill="#000000" font-family="sans-serif" font-size="20" lengthAdjust="spacing" textLength="168" x="1300.5" y="77.7617">:RepositoryFactory</text><rect fill="#E2E2F0" height="39.1563" rx="2.5" ry="2.5" style="stroke:#181818;stroke-width:0.5;" width="182" x="1293.5" y="1566.7813"/><text fill="#000000" font-family="sans-serif" font-size="20" lengthAdjust="spacing" textLength="168" x="1300.5" y="1594.543">:RepositoryFactory</text><rect fill="#E2E2F0" height="64.3125" rx="2.5" ry="2.5" style="stroke:#181818;stroke-width:0.5;" width="188" x="1485.5" y="24.8438"/><text fill="#000000" font-family="sans-serif" font-size="20" lengthAdjust="spacing" textLength="161" x="1499" y="52.6055">:repositoryFactory</text><text fill="#000000" font-family="sans-serif" font-size="20" lengthAdjust="spacing" textLength="174" x="1492.5" y="77.7617">::RepositoryFactory</text><rect fill="#E2E2F0" height="64.3125" rx="2.5" ry="2.5" style="stroke:#181818;stroke-width:0.5;" width="188" x="1485.5" y="1566.7813"/><text fill="#000000" font-family="sans-serif" font-size="20" lengthAdjust="spacing" textLength="161" x="1499" y="1594.543">:repositoryFactory</text><text fill="#000000" font-family="sans-serif" font-size="20" lengthAdjust="spacing" textLength="174" x="1492.5" y="1619.6992">::RepositoryFactory</text><rect fill="#E2E2F0" height="64.3125" rx="2.5" ry="2.5" style="stroke:#181818;stroke-width:0.5;" width="168" x="1683.5" y="24.8438"/><text fill="#000000" font-family="sans-serif" font-size="20" lengthAdjust="spacing" textLength="145" x="1695" y="52.6055">droneRepository</text><text fill="#000000" font-family="sans-serif" font-size="20" lengthAdjust="spacing" textLength="154" x="1690.5" y="77.7617">:DroneRepository</text><rect fill="#E2E2F0" height="64.3125" rx="2.5" ry="2.5" style="stroke:#181818;stroke-width:0.5;" width="168" x="1683.5" y="1566.7813"/><text fill="#000000" font-family="sans-serif" font-size="20" lengthAdjust="spacing" textLength="145" x="1695" y="1594.543">droneRepository</text><text fill="#000000" font-family="sans-serif" font-size="20" lengthAdjust="spacing" textLength="154" x="1690.5" y="1619.6992">:DroneRepository</text><rect fill="#E2E2F0" height="64.3125" rx="2.5" ry="2.5" style="stroke:#181818;stroke-width:0.5;" width="73" x="2131.5" y="1566.7813"/><text fill="#000000" font-family="sans-serif" font-size="20" lengthAdjust="spacing" textLength="50" x="2143" y="1594.543">drone</text><text fill="#000000" font-family="sans-serif" font-size="20" lengthAdjust="spacing" textLength="59" x="2138.5" y="1619.6992">:Drone</text><rect fill="#FFFFFF" height="1449.625" style="stroke:#181818;stroke-width:1.0;" width="10" x="51" y="100.1563"/><rect fill="#FFFFFF" height="430.7188" style="stroke:#181818;stroke-width:1.0;" width="10" x="532" y="131.3125"/><rect fill="#FFFFFF" height="39.1563" style="stroke:#181818;stroke-width:1.0;" width="10" x="532" y="601.1875"/><rect fill="#FFFFFF" height="39.1563" style="stroke:#181818;stroke-width:1.0;" width="10" x="532" y="679.5"/><rect fill="#FFFFFF" height="791.9688" style="stroke:#181818;stroke-width:1.0;" width="10" x="532" y="757.8125"/><rect fill="#FFFFFF" height="352.4063" style="stroke:#181818;stroke-width:1.0;" width="10" x="967" y="170.4688"/><rect fill="#FFFFFF" height="713.6563" style="stroke:#181818;stroke-width:1.0;" width="10" x="967" y="796.9688"/><rect fill="#FFFFFF" height="285.0938" style="stroke:#181818;stroke-width:1.0;" width="10" x="972" y="844.125"/><rect fill="#FFFFFF" height="39.1563" style="stroke:#181818;stroke-width:1.0;" width="10" x="1217" y="209.625"/><rect fill="#FFFFFF" height="39.1563" style="stroke:#181818;stroke-width:1.0;" width="10" x="1217" y="888.2813"/><rect fill="#FFFFFF" height="39.1563" style="stroke:#181818;stroke-width:1.0;" width="10" x="1379.5" y="287.9375"/><rect fill="#FFFFFF" height="39.1563" style="stroke:#181818;stroke-width:1.0;" width="10" x="1379.5" y="966.5938"/><rect fill="#FFFFFF" height="39.1563" style="stroke:#181818;stroke-width:1.0;" width="10" x="1574.5" y="366.25"/><rect fill="#FFFFFF" height="39.1563" style="stroke:#181818;stroke-width:1.0;" width="10" x="1574.5" y="1044.9063"/><rect fill="#FFFFFF" height="39.1563" style="stroke:#181818;stroke-width:1.0;" width="10" x="1762.5" y="444.5625"/><rect fill="#FFFFFF" height="296.0938" style="stroke:#181818;stroke-width:1.0;" width="10" x="1762.5" y="1175.375"/><rect fill="#FFFFFF" height="50.1563" style="stroke:#181818;stroke-width:1.0;" width="10" x="1767.5" y="1222.5313"/><polygon fill="#181818" points="520,127.3125,530,131.3125,520,135.3125,524,131.3125" style="stroke:#181818;stroke-width:1.0;"/><line style="stroke:#181818;stroke-width:1.0;" x1="61" x2="526" y1="131.3125" y2="131.3125"/><text fill="#000000" font-family="sans-serif" font-size="20" font-weight="bold" lengthAdjust="spacing" textLength="11" x="68" y="124.918">1</text><text fill="#000000" font-family="sans-serif" font-size="20" lengthAdjust="spacing" textLength="380" x="83" y="124.918">requests to remove a drone in the inventory</text><polygon fill="#181818" points="955,166.4688,965,170.4688,955,174.4688,959,170.4688" style="stroke:#181818;stroke-width:1.0;"/><line style="stroke:#181818;stroke-width:1.0;" x1="542" x2="961" y1="170.4688" y2="170.4688"/><text fill="#000000" font-family="sans-serif" font-size="20" font-weight="bold" lengthAdjust="spacing" textLength="11" x="549" y="164.0742">2</text><text fill="#000000" font-family="sans-serif" font-size="20" lengthAdjust="spacing" textLength="101" x="564" y="164.0742">listDrones()</text><polygon fill="#181818" points="1205,205.625,1215,209.625,1205,213.625,1209,209.625" style="stroke:#181818;stroke-width:1.0;"/><line style="stroke:#181818;stroke-width:1.0;" x1="977" x2="1211" y1="209.625" y2="209.625"/><text fill="#000000" font-family="sans-serif" font-size="20" font-weight="bold" lengthAdjust="spacing" textLength="11" x="984" y="203.2305">3</text><text fill="#000000" font-family="sans-serif" font-size="20" lengthAdjust="spacing" textLength="190" x="999" y="203.2305">getRepositoryFactory</text><polygon fill="#181818" points="988,244.7813,978,248.7813,988,252.7813,984,248.7813" style="stroke:#181818;stroke-width:1.0;"/><line style="stroke:#181818;stroke-width:1.0;stroke-dasharray:2.0,2.0;" x1="982" x2="1221" y1="248.7813" y2="248.7813"/><text fill="#000000" font-family="sans-serif" font-size="20" font-weight="bold" lengthAdjust="spacing" textLength="11" x="994" y="242.3867">4</text><text fill="#000000" font-family="sans-serif" font-size="20" lengthAdjust="spacing" textLength="155" x="1009" y="242.3867">repositoryFactory</text><polygon fill="#181818" points="1367.5,283.9375,1377.5,287.9375,1367.5,291.9375,1371.5,287.9375" style="stroke:#181818;stroke-width:1.0;"/><line style="stroke:#181818;stroke-width:1.0;" x1="977" x2="1373.5" y1="287.9375" y2="287.9375"/><text fill="#000000" font-family="sans-serif" font-size="20" font-weight="bold" lengthAdjust="spacing" textLength="11" x="984" y="281.543">5</text><text fill="#000000" font-family="sans-serif" font-size="20" lengthAdjust="spacing" textLength="116" x="999" y="281.543">getInstance()</text><polygon fill="#181818" points="988,323.0938,978,327.0938,988,331.0938,984,327.0938" style="stroke:#181818;stroke-width:1.0;"/><line style="stroke:#181818;stroke-width:1.0;stroke-dasharray:2.0,2.0;" x1="982" x2="1383.5" y1="327.0938" y2="327.0938"/><text fill="#000000" font-family="sans-serif" font-size="20" font-weight="bold" lengthAdjust="spacing" textLength="11" x="994" y="320.6992">6</text><text fill="#000000" font-family="sans-serif" font-size="20" lengthAdjust="spacing" textLength="103" x="1009" y="320.6992">repositories</text><polygon fill="#181818" points="1562.5,362.25,1572.5,366.25,1562.5,370.25,1566.5,366.25" style="stroke:#181818;stroke-width:1.0;"/><line style="stroke:#181818;stroke-width:1.0;" x1="977" x2="1568.5" y1="366.25" y2="366.25"/><text fill="#000000" font-family="sans-serif" font-size="20" font-weight="bold" lengthAdjust="spacing" textLength="11" x="984" y="359.8555">7</text><text fill="#000000" font-family="sans-serif" font-size="20" lengthAdjust="spacing" textLength="191" x="999" y="359.8555">getModelRepository()</text><polygon fill="#181818" points="988,401.4063,978,405.4063,988,409.4063,984,405.4063" style="stroke:#181818;stroke-width:1.0;"/><line style="stroke:#181818;stroke-width:1.0;stroke-dasharray:2.0,2.0;" x1="982" x2="1578.5" y1="405.4063" y2="405.4063"/><text fill="#000000" font-family="sans-serif" font-size="20" font-weight="bold" lengthAdjust="spacing" textLength="11" x="994" y="399.0117">8</text><text fill="#000000" font-family="sans-serif" font-size="20" lengthAdjust="spacing" textLength="148" x="1009" y="399.0117">modelRepository</text><polygon fill="#181818" points="1750.5,440.5625,1760.5,444.5625,1750.5,448.5625,1754.5,444.5625" style="stroke:#181818;stroke-width:1.0;"/><line style="stroke:#181818;stroke-width:1.0;" x1="977" x2="1756.5" y1="444.5625" y2="444.5625"/><text fill="#000000" font-family="sans-serif" font-size="20" font-weight="bold" lengthAdjust="spacing" textLength="11" x="984" y="438.168">9</text><text fill="#000000" font-family="sans-serif" font-size="20" lengthAdjust="spacing" textLength="111" x="999" y="438.168">listDroness()</text><polygon fill="#181818" points="988,479.7188,978,483.7188,988,487.7188,984,483.7188" style="stroke:#181818;stroke-width:1.0;"/><line style="stroke:#181818;stroke-width:1.0;stroke-dasharray:2.0,2.0;" x1="982" x2="1766.5" y1="483.7188" y2="483.7188"/><text fill="#000000" font-family="sans-serif" font-size="20" font-weight="bold" lengthAdjust="spacing" textLength="22" x="994" y="477.3242">10</text><text fill="#000000" font-family="sans-serif" font-size="20" lengthAdjust="spacing" textLength="81" x="1020" y="477.3242">droneList</text><polygon fill="#181818" points="553,518.875,543,522.875,553,526.875,549,522.875" style="stroke:#181818;stroke-width:1.0;"/><line style="stroke:#181818;stroke-width:1.0;stroke-dasharray:2.0,2.0;" x1="547" x2="971" y1="522.875" y2="522.875"/><text fill="#000000" font-family="sans-serif" font-size="20" font-weight="bold" lengthAdjust="spacing" textLength="22" x="559" y="516.4805">11</text><text fill="#000000" font-family="sans-serif" font-size="20" lengthAdjust="spacing" textLength="81" x="585" y="516.4805">droneList</text><polygon fill="#181818" points="72,558.0313,62,562.0313,72,566.0313,68,562.0313" style="stroke:#181818;stroke-width:1.0;"/><line style="stroke:#181818;stroke-width:1.0;stroke-dasharray:2.0,2.0;" x1="66" x2="536" y1="562.0313" y2="562.0313"/><text fill="#000000" font-family="sans-serif" font-size="20" font-weight="bold" lengthAdjust="spacing" textLength="22" x="78" y="555.6367">12</text><text fill="#000000" font-family="sans-serif" font-size="20" lengthAdjust="spacing" textLength="421" x="104" y="555.6367">shows a list of all drones and asks to select one</text><polygon fill="#181818" points="520,597.1875,530,601.1875,520,605.1875,524,601.1875" style="stroke:#181818;stroke-width:1.0;"/><line style="stroke:#181818;stroke-width:1.0;" x1="61" x2="526" y1="601.1875" y2="601.1875"/><text fill="#000000" font-family="sans-serif" font-size="20" font-weight="bold" lengthAdjust="spacing" textLength="22" x="68" y="594.793">13</text><text fill="#000000" font-family="sans-serif" font-size="20" lengthAdjust="spacing" textLength="100" x="94" y="594.793">selects one</text><polygon fill="#181818" points="72,636.3438,62,640.3438,72,644.3438,68,640.3438" style="stroke:#181818;stroke-width:1.0;"/><line style="stroke:#181818;stroke-width:1.0;stroke-dasharray:2.0,2.0;" x1="66" x2="536" y1="640.3438" y2="640.3438"/><text fill="#000000" font-family="sans-serif" font-size="20" font-weight="bold" lengthAdjust="spacing" textLength="22" x="78" y="633.9492">14</text><text fill="#000000" font-family="sans-serif" font-size="20" lengthAdjust="spacing" textLength="275" x="104" y="633.9492">asks for the reason for removal</text><polygon fill="#181818" points="520,675.5,530,679.5,520,683.5,524,679.5" style="stroke:#181818;stroke-width:1.0;"/><line style="stroke:#181818;stroke-width:1.0;" x1="61" x2="526" y1="679.5" y2="679.5"/><text fill="#000000" font-family="sans-serif" font-size="20" font-weight="bold" lengthAdjust="spacing" textLength="22" x="68" y="673.1055">15</text><text fill="#000000" font-family="sans-serif" font-size="20" lengthAdjust="spacing" textLength="112" x="94" y="673.1055">submits data</text><polygon fill="#181818" points="72,714.6563,62,718.6563,72,722.6563,68,718.6563" style="stroke:#181818;stroke-width:1.0;"/><line style="stroke:#181818;stroke-width:1.0;stroke-dasharray:2.0,2.0;" x1="66" x2="536" y1="718.6563" y2="718.6563"/><text fill="#000000" font-family="sans-serif" font-size="20" font-weight="bold" lengthAdjust="spacing" textLength="22" x="78" y="712.2617">16</text><text fill="#000000" font-family="sans-serif" font-size="20" lengthAdjust="spacing" textLength="315" x="104" y="712.2617">shows all data asks for confirmation</text><polygon fill="#181818" points="520,753.8125,530,757.8125,520,761.8125,524,757.8125" style="stroke:#181818;stroke-width:1.0;"/><line style="stroke:#181818;stroke-width:1.0;" x1="61" x2="526" y1="757.8125" y2="757.8125"/><text fill="#000000" font-family="sans-serif" font-size="20" font-weight="bold" lengthAdjust="spacing" textLength="22" x="68" y="751.418">17</text><text fill="#000000" font-family="sans-serif" font-size="20" lengthAdjust="spacing" textLength="119" x="94" y="751.418">confirms data</text><polygon fill="#181818" points="955,792.9688,965,796.9688,955,800.9688,959,796.9688" style="stroke:#181818;stroke-width:1.0;"/><line style="stroke:#181818;stroke-width:1.0;" x1="542" x2="961" y1="796.9688" y2="796.9688"/><text fill="#000000" font-family="sans-serif" font-size="20" font-weight="bold" lengthAdjust="spacing" textLength="22" x="549" y="790.5742">18</text><text fill="#000000" font-family="sans-serif" font-size="20" lengthAdjust="spacing" textLength="380" x="575" y="790.5742">removeDrone(serialNumber, removReason)</text><line style="stroke:#181818;stroke-width:1.0;" x1="977" x2="1024" y1="831.125" y2="831.125"/><line style="stroke:#181818;stroke-width:1.0;" x1="1024" x2="1024" y1="831.125" y2="844.125"/><line style="stroke:#181818;stroke-width:1.0;" x1="983" x2="1024" y1="844.125" y2="844.125"/><polygon fill="#181818" points="993,840.125,983,844.125,993,848.125,989,844.125" style="stroke:#181818;stroke-width:1.0;"/><text fill="#000000" font-family="sans-serif" font-size="20" font-weight="bold" lengthAdjust="spacing" textLength="22" x="989" y="824.7305">19</text><text fill="#000000" font-family="sans-serif" font-size="20" lengthAdjust="spacing" textLength="190" x="1015" y="824.7305">getDroneRepository()</text><polygon fill="#181818" points="1205,884.2813,1215,888.2813,1205,892.2813,1209,888.2813" style="stroke:#181818;stroke-width:1.0;"/><line style="stroke:#181818;stroke-width:1.0;" x1="982" x2="1211" y1="888.2813" y2="888.2813"/><text fill="#000000" font-family="sans-serif" font-size="20" font-weight="bold" lengthAdjust="spacing" textLength="22" x="989" y="881.8867">20</text><text fill="#000000" font-family="sans-serif" font-size="20" lengthAdjust="spacing" textLength="190" x="1015" y="881.8867">getRepositoryFactory</text><polygon fill="#181818" points="993,923.4375,983,927.4375,993,931.4375,989,927.4375" style="stroke:#181818;stroke-width:1.0;"/><line style="stroke:#181818;stroke-width:1.0;stroke-dasharray:2.0,2.0;" x1="987" x2="1221" y1="927.4375" y2="927.4375"/><text fill="#000000" font-family="sans-serif" font-size="20" font-weight="bold" lengthAdjust="spacing" textLength="22" x="999" y="921.043">21</text><text fill="#000000" font-family="sans-serif" font-size="20" lengthAdjust="spacing" textLength="155" x="1025" y="921.043">repositoryFactory</text><polygon fill="#181818" points="1367.5,962.5938,1377.5,966.5938,1367.5,970.5938,1371.5,966.5938" style="stroke:#181818;stroke-width:1.0;"/><line style="stroke:#181818;stroke-width:1.0;" x1="982" x2="1373.5" y1="966.5938" y2="966.5938"/><text fill="#000000" font-family="sans-serif" font-size="20" font-weight="bold" lengthAdjust="spacing" textLength="22" x="989" y="960.1992">22</text><text fill="#000000" font-family="sans-serif" font-size="20" lengthAdjust="spacing" textLength="116" x="1015" y="960.1992">getInstance()</text><polygon fill="#181818" points="993,1001.75,983,1005.75,993,1009.75,989,1005.75" style="stroke:#181818;stroke-width:1.0;"/><line style="stroke:#181818;stroke-width:1.0;stroke-dasharray:2.0,2.0;" x1="987" x2="1383.5" y1="1005.75" y2="1005.75"/><text fill="#000000" font-family="sans-serif" font-size="20" font-weight="bold" lengthAdjust="spacing" textLength="22" x="999" y="999.3555">23</text><text fill="#000000" font-family="sans-serif" font-size="20" lengthAdjust="spacing" textLength="103" x="1025" y="999.3555">repositories</text><polygon fill="#181818" points="1562.5,1040.9063,1572.5,1044.9063,1562.5,1048.9063,1566.5,1044.9063" style="stroke:#181818;stroke-width:1.0;"/><line style="stroke:#181818;stroke-width:1.0;" x1="982" x2="1568.5" y1="1044.9063" y2="1044.9063"/><text fill="#000000" font-family="sans-serif" font-size="20" font-weight="bold" lengthAdjust="spacing" textLength="22" x="989" y="1038.5117">24</text><text fill="#000000" font-family="sans-serif" font-size="20" lengthAdjust="spacing" textLength="190" x="1015" y="1038.5117">getDroneRepository()</text><polygon fill="#181818" points="993,1080.0625,983,1084.0625,993,1088.0625,989,1084.0625" style="stroke:#181818;stroke-width:1.0;"/><line style="stroke:#181818;stroke-width:1.0;stroke-dasharray:2.0,2.0;" x1="987" x2="1578.5" y1="1084.0625" y2="1084.0625"/><text fill="#000000" font-family="sans-serif" font-size="20" font-weight="bold" lengthAdjust="spacing" textLength="22" x="999" y="1077.668">25</text><text fill="#000000" font-family="sans-serif" font-size="20" lengthAdjust="spacing" textLength="145" x="1025" y="1077.668">droneRepository</text><line style="stroke:#181818;stroke-width:1.0;stroke-dasharray:2.0,2.0;" x1="982" x2="1024" y1="1128.2188" y2="1128.2188"/><line style="stroke:#181818;stroke-width:1.0;stroke-dasharray:2.0,2.0;" x1="1024" x2="1024" y1="1128.2188" y2="1141.2188"/><line style="stroke:#181818;stroke-width:1.0;stroke-dasharray:2.0,2.0;" x1="977" x2="1024" y1="1141.2188" y2="1141.2188"/><polygon fill="#181818" points="987,1137.2188,977,1141.2188,987,1145.2188,983,1141.2188" style="stroke:#181818;stroke-width:1.0;"/><text fill="#000000" font-family="sans-serif" font-size="20" font-weight="bold" lengthAdjust="spacing" textLength="22" x="989" y="1121.8242">26</text><text fill="#000000" font-family="sans-serif" font-size="20" lengthAdjust="spacing" textLength="145" x="1015" y="1121.8242">droneRepository</text><polygon fill="#181818" points="1750.5,1171.375,1760.5,1175.375,1750.5,1179.375,1754.5,1175.375" style="stroke:#181818;stroke-width:1.0;"/><line style="stroke:#181818;stroke-width:1.0;" x1="977" x2="1756.5" y1="1175.375" y2="1175.375"/><text fill="#000000" font-family="sans-serif" font-size="20" font-weight="bold" lengthAdjust="spacing" textLength="22" x="984" y="1168.9805">27</text><text fill="#000000" font-family="sans-serif" font-size="20" lengthAdjust="spacing" textLength="380" x="1010" y="1168.9805">removeDrone(serialNumber, removReason)</text><line style="stroke:#181818;stroke-width:1.0;" x1="1772.5" x2="1819.5" y1="1209.5313" y2="1209.5313"/><line style="stroke:#181818;stroke-width:1.0;" x1="1819.5" x2="1819.5" y1="1209.5313" y2="1222.5313"/><line style="stroke:#181818;stroke-width:1.0;" x1="1778.5" x2="1819.5" y1="1222.5313" y2="1222.5313"/><polygon fill="#181818" points="1788.5,1218.5313,1778.5,1222.5313,1788.5,1226.5313,1784.5,1222.5313" style="stroke:#181818;stroke-width:1.0;"/><text fill="#000000" font-family="sans-serif" font-size="20" font-weight="bold" lengthAdjust="spacing" textLength="22" x="1784.5" y="1203.1367">28</text><text fill="#000000" font-family="sans-serif" font-size="20" lengthAdjust="spacing" textLength="272" x="1810.5" y="1203.1367">validateRemoval(serialNumber)</text><line style="stroke:#181818;stroke-width:1.0;stroke-dasharray:2.0,2.0;" x1="1777.5" x2="1819.5" y1="1271.6875" y2="1271.6875"/><line style="stroke:#181818;stroke-width:1.0;stroke-dasharray:2.0,2.0;" x1="1819.5" x2="1819.5" y1="1271.6875" y2="1284.6875"/><line style="stroke:#181818;stroke-width:1.0;stroke-dasharray:2.0,2.0;" x1="1772.5" x2="1819.5" y1="1284.6875" y2="1284.6875"/><polygon fill="#181818" points="1782.5,1280.6875,1772.5,1284.6875,1782.5,1288.6875,1778.5,1284.6875" style="stroke:#181818;stroke-width:1.0;"/><text fill="#000000" font-family="sans-serif" font-size="20" font-weight="bold" lengthAdjust="spacing" textLength="22" x="1784.5" y="1265.293">29</text><text fill="#000000" font-family="sans-serif" font-size="20" lengthAdjust="spacing" textLength="34" x="1810.5" y="1265.293">true</text><line style="stroke:#181818;stroke-width:1.0;" x1="1772.5" x2="1814.5" y1="1344" y2="1344"/><line style="stroke:#181818;stroke-width:1.0;" x1="1814.5" x2="1814.5" y1="1344" y2="1357"/><line style="stroke:#181818;stroke-width:1.0;" x1="1773.5" x2="1814.5" y1="1357" y2="1357"/><polygon fill="#181818" points="1783.5,1353,1773.5,1357,1783.5,1361,1779.5,1357" style="stroke:#181818;stroke-width:1.0;"/><text fill="#000000" font-family="sans-serif" font-size="20" font-weight="bold" lengthAdjust="spacing" textLength="22" x="1779.5" y="1325.0273">30</text><text fill="#000000" font-family="sans-serif" font-size="20" lengthAdjust="spacing" textLength="295" x="1805.5" y="1312.4492">addDrnRemovData(serialNumber,</text><text fill="#000000" font-family="sans-serif" font-size="20" lengthAdjust="spacing" textLength="128" x="1805.5" y="1337.6055">removReason)</text><polygon fill="#181818" points="2119.5,1392.1563,2129.5,1396.1563,2119.5,1400.1563,2123.5,1396.1563" style="stroke:#181818;stroke-width:1.0;"/><line style="stroke:#181818;stroke-width:1.0;" x1="1772.5" x2="2125.5" y1="1396.1563" y2="1396.1563"/><text fill="#000000" font-family="sans-serif" font-size="20" font-weight="bold" lengthAdjust="spacing" textLength="22" x="1779.5" y="1389.7617">31</text><text fill="#000000" font-family="sans-serif" font-size="20" lengthAdjust="spacing" textLength="309" x="1805.5" y="1389.7617">changeDrnStatRemv(serialNumber)</text><rect fill="#E2E2F0" height="64.3125" rx="2.5" ry="2.5" style="stroke:#181818;stroke-width:0.5;" width="73" x="2131.5" y="1365"/><text fill="#000000" font-family="sans-serif" font-size="20" lengthAdjust="spacing" textLength="50" x="2143" y="1392.7617">drone</text><text fill="#000000" font-family="sans-serif" font-size="20" lengthAdjust="spacing" textLength="59" x="2138.5" y="1417.918">:Drone</text><polygon fill="#181818" points="988,1467.4688,978,1471.4688,988,1475.4688,984,1471.4688" style="stroke:#181818;stroke-width:1.0;"/><line style="stroke:#181818;stroke-width:1.0;stroke-dasharray:2.0,2.0;" x1="982" x2="1766.5" y1="1471.4688" y2="1471.4688"/><text fill="#000000" font-family="sans-serif" font-size="20" font-weight="bold" lengthAdjust="spacing" textLength="22" x="994" y="1465.0742">32</text><text fill="#000000" font-family="sans-serif" font-size="20" lengthAdjust="spacing" textLength="34" x="1020" y="1465.0742">true</text><polygon fill="#181818" points="553,1506.625,543,1510.625,553,1514.625,549,1510.625" style="stroke:#181818;stroke-width:1.0;"/><line style="stroke:#181818;stroke-width:1.0;stroke-dasharray:2.0,2.0;" x1="547" x2="971" y1="1510.625" y2="1510.625"/><text fill="#000000" font-family="sans-serif" font-size="20" font-weight="bold" lengthAdjust="spacing" textLength="22" x="559" y="1504.2305">33</text><text fill="#000000" font-family="sans-serif" font-size="20" lengthAdjust="spacing" textLength="34" x="585" y="1504.2305">true</text><polygon fill="#181818" points="67,1545.7813,57,1549.7813,67,1553.7813,63,1549.7813" style="stroke:#181818;stroke-width:1.0;"/><line style="stroke:#181818;stroke-width:1.0;stroke-dasharray:2.0,2.0;" x1="61" x2="536" y1="1549.7813" y2="1549.7813"/><text fill="#000000" font-family="sans-serif" font-size="20" font-weight="bold" lengthAdjust="spacing" textLength="22" x="73" y="1543.3867">34</text><text fill="#000000" font-family="sans-serif" font-size="20" lengthAdjust="spacing" textLength="234" x="99" y="1543.3867">displays success message</text><!--SRC=[hLR1JkCm4BtxAwnU5X18gptsi1SAgqfigT9mGq8ccRPM7RjhkqNThz-nGn8dJKpOtHoWX7dptenddcjsNEwPPeLGsGvociEQ7OIzLzAk-6-WtxwIBwQAeOMIAjjgLG0XpTizotPi0ojx4a0rP9R9ZO0Wm6nPhjwutD0r4mQnx62LF1IleF5pPfMcavbM4bB8jXFA39sb1A6MPtpFfAMJQGA5Ee8FUfhxaAVvSCWjojTA2D0-z3PD7Zh1Iz266mio0n-ol4jMP_dsod0KTxht6ay-CBbRFdOZTJVoMKvZy9VLVF7ZuIvzNBGJvKvxWyCii_QRiZV9uiMbwS5MY2hETvSVcGNNKJ9BwSrtR1oTuZ7zEe2nXbg5drtZAAC-1-MIsgtxTGJfI9iSs784OmhNK4mYi8EUprnS4efF7UaxJeF78n3f-ep83TYp_hJYOq_DuWzjBCeptpJYzL_pvp2ieAhJdtDPw5mQt8WCtdjqLaKvKLsICa6VNWw63CWfKmqBQWQlbFPJvI2QWuWg38QsLskGEr1Tj1cYmWC64agl1hurSMSZLwy5AT4rAb3Z1_m1Sv0EVmrkUAjD6SJKC-vsmibCCTfirPl1LN92gLfJ9aIP0L_A7DTovrVEW42VfFYUz7G3zwn-7Uni2J8jr1ac5EFPrkYkRfyrCAEa_zClF1DaW3QaFBmM72bpPXdfyWtKxYh6y8OzKtBDTS4iLxA7iqFv7lq1Px0MjUjV6D2SYOM_MAxB_oI-wfWxLLDMviEbw7Xki1Jn1FzgRP-tjVzZQKDsDixA8ZOspiA6xIjgNIDEAMPR4SlgtC9aX5sr5G-dwiirU5K6jlU98J_hGk2BVQVVs6J3EANe3Xpt3vBIALgaboGwlIqhZJEsYxJw0EI30MsAYUbtrfVdCosz_1dwIAThpxAtRvrSLrVEZhRuRHPRBrUMuM8Nnn6zwBjwV7LaL4dj-wS1TeU6XEQRSxCNx6JGihCChqTQu0_yLaxQPXiIf-GF]--></g></svg>