<?xml version="1.0" encoding="us-ascii" standalone="no"?><svg xmlns="http://www.w3.org/2000/svg" xmlns:xlink="http://www.w3.org/1999/xlink" contentStyleType="text/css" height="970px" preserveAspectRatio="none" style="width:1348px;height:970px;background:#FFFFFF;" version="1.1" viewBox="0 0 1348 970" width="1348px" zoomAndPan="magnify"><defs/><g><rect fill="#FFFFFF" height="775.3535" style="stroke:#181818;stroke-width:1.0;" width="10" x="38.5" y="93.6211"/><rect fill="#FFFFFF" height="31.291" style="stroke:#181818;stroke-width:1.0;" width="10" x="403.5" y="116.9121"/><rect fill="#FFFFFF" height="75.582" style="stroke:#181818;stroke-width:1.0;" width="10" x="403.5" y="179.4941"/><rect fill="#FFFFFF" height="582.6074" style="stroke:#181818;stroke-width:1.0;" width="10" x="403.5" y="286.3672"/><rect fill="#FFFFFF" height="520.0254" style="stroke:#181818;stroke-width:1.0;" width="10" x="688.5" y="317.6582"/><rect fill="#FFFFFF" height="167.4551" style="stroke:#181818;stroke-width:1.0;" width="10" x="693.5" y="356.9492"/><rect fill="#FFFFFF" height="31.291" style="stroke:#181818;stroke-width:1.0;" width="10" x="845.5" y="393.2402"/><rect fill="#FFFFFF" height="31.291" style="stroke:#181818;stroke-width:1.0;" width="10" x="950.5" y="455.8223"/><rect fill="#FFFFFF" height="243.6973" style="stroke:#181818;stroke-width:1.0;" width="10" x="1071.5" y="562.6953"/><rect fill="#FFFFFF" height="42.291" style="stroke:#181818;stroke-width:1.0;" width="10" x="1076.5" y="664.2285"/><line style="stroke:#181818;stroke-width:0.5;stroke-dasharray:5.0,5.0;" x1="43" x2="43" y1="83.6211" y2="886.9746"/><line style="stroke:#181818;stroke-width:0.5;stroke-dasharray:5.0,5.0;" x1="408.5" x2="408.5" y1="83.6211" y2="886.9746"/><line style="stroke:#181818;stroke-width:0.5;stroke-dasharray:5.0,5.0;" x1="693" x2="693" y1="83.6211" y2="886.9746"/><line style="stroke:#181818;stroke-width:0.5;stroke-dasharray:5.0,5.0;" x1="850" x2="850" y1="83.6211" y2="886.9746"/><line style="stroke:#181818;stroke-width:0.5;stroke-dasharray:5.0,5.0;" x1="955" x2="955" y1="83.6211" y2="886.9746"/><line style="stroke:#181818;stroke-width:0.5;stroke-dasharray:5.0,5.0;" x1="1076" x2="1076" y1="83.6211" y2="886.9746"/><line style="stroke:#181818;stroke-width:0.5;stroke-dasharray:5.0,5.0;" x1="1313" x2="1313" y1="611.8164" y2="886.9746"/><text fill="#000000" font-family="sans-serif" font-size="14" lengthAdjust="spacing" textLength="71" x="5" y="80.1074">DroneTech</text><ellipse cx="43.5" cy="13.5" fill="#E2E2F0" rx="8" ry="8" style="stroke:#181818;stroke-width:0.5;"/><path d="M43.5,21.5 L43.5,48.5 M30.5,29.5 L56.5,29.5 M43.5,48.5 L30.5,63.5 M43.5,48.5 L56.5,63.5 " fill="none" style="stroke:#181818;stroke-width:0.5;"/><text fill="#000000" font-family="sans-serif" font-size="14" lengthAdjust="spacing" textLength="71" x="5" y="901.082">DroneTech</text><ellipse cx="43.5" cy="913.0957" fill="#E2E2F0" rx="8" ry="8" style="stroke:#181818;stroke-width:0.5;"/><path d="M43.5,921.0957 L43.5,948.0957 M30.5,929.0957 L56.5,929.0957 M43.5,948.0957 L30.5,963.0957 M43.5,948.0957 L56.5,963.0957 " fill="none" style="stroke:#181818;stroke-width:0.5;"/><rect fill="#E2E2F0" height="32.6211" rx="2.5" ry="2.5" style="stroke:#181818;stroke-width:0.5;" width="124" x="346.5" y="50"/><text fill="#000000" font-family="sans-serif" font-size="14" lengthAdjust="spacing" textLength="110" x="353.5" y="72.1074">:RemoveDronelUI</text><rect fill="#E2E2F0" height="32.6211" rx="2.5" ry="2.5" style="stroke:#181818;stroke-width:0.5;" width="124" x="346.5" y="885.9746"/><text fill="#000000" font-family="sans-serif" font-size="14" lengthAdjust="spacing" textLength="110" x="353.5" y="908.082">:RemoveDronelUI</text><rect fill="#E2E2F0" height="32.6211" rx="2.5" ry="2.5" style="stroke:#181818;stroke-width:0.5;" width="171" x="608" y="50"/><text fill="#000000" font-family="sans-serif" font-size="14" lengthAdjust="spacing" textLength="157" x="615" y="72.1074">:RemoveDroneController</text><rect fill="#E2E2F0" height="32.6211" rx="2.5" ry="2.5" style="stroke:#181818;stroke-width:0.5;" width="171" x="608" y="885.9746"/><text fill="#000000" font-family="sans-serif" font-size="14" lengthAdjust="spacing" textLength="157" x="615" y="908.082">:RemoveDroneController</text><rect fill="#E2E2F0" height="32.6211" rx="2.5" ry="2.5" style="stroke:#181818;stroke-width:0.5;" width="93" x="804" y="50"/><text fill="#000000" font-family="sans-serif" font-size="14" lengthAdjust="spacing" textLength="79" x="811" y="72.1074">Repositories</text><rect fill="#E2E2F0" height="32.6211" rx="2.5" ry="2.5" style="stroke:#181818;stroke-width:0.5;" width="93" x="804" y="885.9746"/><text fill="#000000" font-family="sans-serif" font-size="14" lengthAdjust="spacing" textLength="79" x="811" y="908.082">Repositories</text><rect fill="#E2E2F0" height="51.2422" rx="2.5" ry="2.5" style="stroke:#181818;stroke-width:0.5;" width="97" x="907" y="31.3789"/><text fill="#000000" font-family="sans-serif" font-size="14" lengthAdjust="spacing" textLength="74" x="918.5" y="53.4863">repositories</text><text fill="#000000" font-family="sans-serif" font-size="14" lengthAdjust="spacing" textLength="83" x="914" y="72.1074">:Repositories</text><rect fill="#E2E2F0" height="51.2422" rx="2.5" ry="2.5" style="stroke:#181818;stroke-width:0.5;" width="97" x="907" y="885.9746"/><text fill="#000000" font-family="sans-serif" font-size="14" lengthAdjust="spacing" textLength="74" x="918.5" y="908.082">repositories</text><text fill="#000000" font-family="sans-serif" font-size="14" lengthAdjust="spacing" textLength="83" x="914" y="926.7031">:Repositories</text><rect fill="#E2E2F0" height="51.2422" rx="2.5" ry="2.5" style="stroke:#181818;stroke-width:0.5;" width="125" x="1014" y="31.3789"/><text fill="#000000" font-family="sans-serif" font-size="14" lengthAdjust="spacing" textLength="105" x="1024" y="53.4863">droneRepository</text><text fill="#000000" font-family="sans-serif" font-size="14" lengthAdjust="spacing" textLength="111" x="1021" y="72.1074">:DroneRepository</text><rect fill="#E2E2F0" height="51.2422" rx="2.5" ry="2.5" style="stroke:#181818;stroke-width:0.5;" width="125" x="1014" y="885.9746"/><text fill="#000000" font-family="sans-serif" font-size="14" lengthAdjust="spacing" textLength="105" x="1024" y="908.082">droneRepository</text><text fill="#000000" font-family="sans-serif" font-size="14" lengthAdjust="spacing" textLength="111" x="1021" y="926.7031">:DroneRepository</text><rect fill="#E2E2F0" height="51.2422" rx="2.5" ry="2.5" style="stroke:#181818;stroke-width:0.5;" width="57" x="1285" y="885.9746"/><text fill="#000000" font-family="sans-serif" font-size="14" lengthAdjust="spacing" textLength="37" x="1295" y="908.082">drone</text><text fill="#000000" font-family="sans-serif" font-size="14" lengthAdjust="spacing" textLength="43" x="1292" y="926.7031">:Drone</text><rect fill="#FFFFFF" height="775.3535" style="stroke:#181818;stroke-width:1.0;" width="10" x="38.5" y="93.6211"/><rect fill="#FFFFFF" height="31.291" style="stroke:#181818;stroke-width:1.0;" width="10" x="403.5" y="116.9121"/><rect fill="#FFFFFF" height="75.582" style="stroke:#181818;stroke-width:1.0;" width="10" x="403.5" y="179.4941"/><rect fill="#FFFFFF" height="582.6074" style="stroke:#181818;stroke-width:1.0;" width="10" x="403.5" y="286.3672"/><rect fill="#FFFFFF" height="520.0254" style="stroke:#181818;stroke-width:1.0;" width="10" x="688.5" y="317.6582"/><rect fill="#FFFFFF" height="167.4551" style="stroke:#181818;stroke-width:1.0;" width="10" x="693.5" y="356.9492"/><rect fill="#FFFFFF" height="31.291" style="stroke:#181818;stroke-width:1.0;" width="10" x="845.5" y="393.2402"/><rect fill="#FFFFFF" height="31.291" style="stroke:#181818;stroke-width:1.0;" width="10" x="950.5" y="455.8223"/><rect fill="#FFFFFF" height="243.6973" style="stroke:#181818;stroke-width:1.0;" width="10" x="1071.5" y="562.6953"/><rect fill="#FFFFFF" height="42.291" style="stroke:#181818;stroke-width:1.0;" width="10" x="1076.5" y="664.2285"/><polygon fill="#181818" points="391.5,112.9121,401.5,116.9121,391.5,120.9121,395.5,116.9121" style="stroke:#181818;stroke-width:1.0;"/><line style="stroke:#181818;stroke-width:1.0;" x1="48.5" x2="397.5" y1="116.9121" y2="116.9121"/><text fill="#000000" font-family="sans-serif" font-size="13" font-weight="bold" lengthAdjust="spacing" textLength="7" x="55.5" y="111.6494">1</text><text fill="#000000" font-family="sans-serif" font-size="13" lengthAdjust="spacing" textLength="248" x="66.5" y="111.6494">requests to remove a drone in the inventory</text><polygon fill="#181818" points="59.5,144.2031,49.5,148.2031,59.5,152.2031,55.5,148.2031" style="stroke:#181818;stroke-width:1.0;"/><line style="stroke:#181818;stroke-width:1.0;stroke-dasharray:2.0,2.0;" x1="53.5" x2="407.5" y1="148.2031" y2="148.2031"/><text fill="#000000" font-family="sans-serif" font-size="13" font-weight="bold" lengthAdjust="spacing" textLength="7" x="65.5" y="142.9404">2</text><text fill="#000000" font-family="sans-serif" font-size="13" lengthAdjust="spacing" textLength="320" x="76.5" y="142.9404">asks for drone serial number and the reason for removal</text><polygon fill="#181818" points="391.5,175.4941,401.5,179.4941,391.5,183.4941,395.5,179.4941" style="stroke:#181818;stroke-width:1.0;"/><line style="stroke:#181818;stroke-width:1.0;" x1="48.5" x2="397.5" y1="179.4941" y2="179.4941"/><text fill="#000000" font-family="sans-serif" font-size="13" font-weight="bold" lengthAdjust="spacing" textLength="7" x="55.5" y="174.2314">3</text><text fill="#000000" font-family="sans-serif" font-size="13" lengthAdjust="spacing" textLength="75" x="66.5" y="174.2314">submits data</text><line style="stroke:#181818;stroke-width:1.0;stroke-dasharray:2.0,2.0;" x1="413.5" x2="455.5" y1="210.7852" y2="210.7852"/><line style="stroke:#181818;stroke-width:1.0;stroke-dasharray:2.0,2.0;" x1="455.5" x2="455.5" y1="210.7852" y2="223.7852"/><line style="stroke:#181818;stroke-width:1.0;stroke-dasharray:2.0,2.0;" x1="414.5" x2="455.5" y1="223.7852" y2="223.7852"/><polygon fill="#181818" points="424.5,219.7852,414.5,223.7852,424.5,227.7852,420.5,223.7852" style="stroke:#181818;stroke-width:1.0;"/><text fill="#000000" font-family="sans-serif" font-size="13" font-weight="bold" lengthAdjust="spacing" textLength="7" x="420.5" y="205.5225">4</text><text fill="#000000" font-family="sans-serif" font-size="13" lengthAdjust="spacing" textLength="225" x="431.5" y="205.5225">keepData(serialNumber, removReason)</text><polygon fill="#181818" points="59.5,251.0762,49.5,255.0762,59.5,259.0762,55.5,255.0762" style="stroke:#181818;stroke-width:1.0;"/><line style="stroke:#181818;stroke-width:1.0;stroke-dasharray:2.0,2.0;" x1="53.5" x2="407.5" y1="255.0762" y2="255.0762"/><text fill="#000000" font-family="sans-serif" font-size="13" font-weight="bold" lengthAdjust="spacing" textLength="7" x="65.5" y="249.8135">5</text><text fill="#000000" font-family="sans-serif" font-size="13" lengthAdjust="spacing" textLength="120" x="76.5" y="249.8135">asks for confirmation</text><polygon fill="#181818" points="391.5,282.3672,401.5,286.3672,391.5,290.3672,395.5,286.3672" style="stroke:#181818;stroke-width:1.0;"/><line style="stroke:#181818;stroke-width:1.0;" x1="48.5" x2="397.5" y1="286.3672" y2="286.3672"/><text fill="#000000" font-family="sans-serif" font-size="13" font-weight="bold" lengthAdjust="spacing" textLength="7" x="55.5" y="281.1045">6</text><text fill="#000000" font-family="sans-serif" font-size="13" lengthAdjust="spacing" textLength="78" x="66.5" y="281.1045">confirms data</text><polygon fill="#181818" points="676.5,313.6582,686.5,317.6582,676.5,321.6582,680.5,317.6582" style="stroke:#181818;stroke-width:1.0;"/><line style="stroke:#181818;stroke-width:1.0;" x1="413.5" x2="682.5" y1="317.6582" y2="317.6582"/><text fill="#000000" font-family="sans-serif" font-size="13" font-weight="bold" lengthAdjust="spacing" textLength="7" x="420.5" y="312.3955">7</text><text fill="#000000" font-family="sans-serif" font-size="13" lengthAdjust="spacing" textLength="245" x="431.5" y="312.3955">removeDrone(serialNumber, removReason)</text><line style="stroke:#181818;stroke-width:1.0;" x1="698.5" x2="745.5" y1="343.9492" y2="343.9492"/><line style="stroke:#181818;stroke-width:1.0;" x1="745.5" x2="745.5" y1="343.9492" y2="356.9492"/><line style="stroke:#181818;stroke-width:1.0;" x1="704.5" x2="745.5" y1="356.9492" y2="356.9492"/><polygon fill="#181818" points="714.5,352.9492,704.5,356.9492,714.5,360.9492,710.5,356.9492" style="stroke:#181818;stroke-width:1.0;"/><text fill="#000000" font-family="sans-serif" font-size="13" font-weight="bold" lengthAdjust="spacing" textLength="7" x="710.5" y="338.6865">8</text><text fill="#000000" font-family="sans-serif" font-size="13" lengthAdjust="spacing" textLength="122" x="721.5" y="338.6865">getDroneRepository()</text><polygon fill="#181818" points="833.5,389.2402,843.5,393.2402,833.5,397.2402,837.5,393.2402" style="stroke:#181818;stroke-width:1.0;"/><line style="stroke:#181818;stroke-width:1.0;" x1="703.5" x2="839.5" y1="393.2402" y2="393.2402"/><text fill="#000000" font-family="sans-serif" font-size="13" font-weight="bold" lengthAdjust="spacing" textLength="7" x="710.5" y="387.9775">9</text><text fill="#000000" font-family="sans-serif" font-size="13" lengthAdjust="spacing" textLength="75" x="721.5" y="387.9775">getInstance()</text><polygon fill="#181818" points="714.5,420.5313,704.5,424.5313,714.5,428.5313,710.5,424.5313" style="stroke:#181818;stroke-width:1.0;"/><line style="stroke:#181818;stroke-width:1.0;stroke-dasharray:2.0,2.0;" x1="708.5" x2="849.5" y1="424.5313" y2="424.5313"/><text fill="#000000" font-family="sans-serif" font-size="13" font-weight="bold" lengthAdjust="spacing" textLength="14" x="720.5" y="419.2686">10</text><text fill="#000000" font-family="sans-serif" font-size="13" lengthAdjust="spacing" textLength="67" x="738.5" y="419.2686">repositories</text><polygon fill="#181818" points="938.5,451.8223,948.5,455.8223,938.5,459.8223,942.5,455.8223" style="stroke:#181818;stroke-width:1.0;"/><line style="stroke:#181818;stroke-width:1.0;" x1="703.5" x2="944.5" y1="455.8223" y2="455.8223"/><text fill="#000000" font-family="sans-serif" font-size="13" font-weight="bold" lengthAdjust="spacing" textLength="14" x="710.5" y="450.5596">11</text><text fill="#000000" font-family="sans-serif" font-size="13" lengthAdjust="spacing" textLength="122" x="728.5" y="450.5596">getDroneRepository()</text><polygon fill="#181818" points="714.5,483.1133,704.5,487.1133,714.5,491.1133,710.5,487.1133" style="stroke:#181818;stroke-width:1.0;"/><line style="stroke:#181818;stroke-width:1.0;stroke-dasharray:2.0,2.0;" x1="708.5" x2="954.5" y1="487.1133" y2="487.1133"/><text fill="#000000" font-family="sans-serif" font-size="13" font-weight="bold" lengthAdjust="spacing" textLength="14" x="720.5" y="481.8506">12</text><text fill="#000000" font-family="sans-serif" font-size="13" lengthAdjust="spacing" textLength="94" x="738.5" y="481.8506">droneRepository</text><line style="stroke:#181818;stroke-width:1.0;stroke-dasharray:2.0,2.0;" x1="703.5" x2="745.5" y1="523.4043" y2="523.4043"/><line style="stroke:#181818;stroke-width:1.0;stroke-dasharray:2.0,2.0;" x1="745.5" x2="745.5" y1="523.4043" y2="536.4043"/><line style="stroke:#181818;stroke-width:1.0;stroke-dasharray:2.0,2.0;" x1="698.5" x2="745.5" y1="536.4043" y2="536.4043"/><polygon fill="#181818" points="708.5,532.4043,698.5,536.4043,708.5,540.4043,704.5,536.4043" style="stroke:#181818;stroke-width:1.0;"/><text fill="#000000" font-family="sans-serif" font-size="13" font-weight="bold" lengthAdjust="spacing" textLength="14" x="710.5" y="518.1416">13</text><text fill="#000000" font-family="sans-serif" font-size="13" lengthAdjust="spacing" textLength="94" x="728.5" y="518.1416">droneRepository</text><polygon fill="#181818" points="1059.5,558.6953,1069.5,562.6953,1059.5,566.6953,1063.5,562.6953" style="stroke:#181818;stroke-width:1.0;"/><line style="stroke:#181818;stroke-width:1.0;" x1="698.5" x2="1065.5" y1="562.6953" y2="562.6953"/><text fill="#000000" font-family="sans-serif" font-size="13" font-weight="bold" lengthAdjust="spacing" textLength="14" x="705.5" y="557.4326">14</text><text fill="#000000" font-family="sans-serif" font-size="13" lengthAdjust="spacing" textLength="245" x="723.5" y="557.4326">removeDrone(serialNumber, removReason)</text><polygon fill="#181818" points="1273,589.9863,1283,593.9863,1273,597.9863,1277,593.9863" style="stroke:#181818;stroke-width:1.0;"/><line style="stroke:#181818;stroke-width:1.0;" x1="1081.5" x2="1279" y1="593.9863" y2="593.9863"/><text fill="#000000" font-family="sans-serif" font-size="13" font-weight="bold" lengthAdjust="spacing" textLength="14" x="1088.5" y="588.7236">15</text><text fill="#000000" font-family="sans-serif" font-size="13" lengthAdjust="spacing" textLength="125" x="1106.5" y="588.7236">remove(serialNumber)</text><rect fill="#E2E2F0" height="51.2422" rx="2.5" ry="2.5" style="stroke:#181818;stroke-width:0.5;" width="57" x="1285" y="570.6953"/><text fill="#000000" font-family="sans-serif" font-size="14" lengthAdjust="spacing" textLength="37" x="1295" y="592.8027">drone</text><text fill="#000000" font-family="sans-serif" font-size="14" lengthAdjust="spacing" textLength="43" x="1292" y="611.4238">:Drone</text><line style="stroke:#181818;stroke-width:1.0;" x1="1081.5" x2="1128.5" y1="651.2285" y2="651.2285"/><line style="stroke:#181818;stroke-width:1.0;" x1="1128.5" x2="1128.5" y1="651.2285" y2="664.2285"/><line style="stroke:#181818;stroke-width:1.0;" x1="1087.5" x2="1128.5" y1="664.2285" y2="664.2285"/><polygon fill="#181818" points="1097.5,660.2285,1087.5,664.2285,1097.5,668.2285,1093.5,664.2285" style="stroke:#181818;stroke-width:1.0;"/><text fill="#000000" font-family="sans-serif" font-size="13" font-weight="bold" lengthAdjust="spacing" textLength="14" x="1093.5" y="645.9658">16</text><text fill="#000000" font-family="sans-serif" font-size="13" lengthAdjust="spacing" textLength="176" x="1111.5" y="645.9658">validateRemoval(serialNumber)</text><line style="stroke:#181818;stroke-width:1.0;stroke-dasharray:2.0,2.0;" x1="1086.5" x2="1128.5" y1="705.5195" y2="705.5195"/><line style="stroke:#181818;stroke-width:1.0;stroke-dasharray:2.0,2.0;" x1="1128.5" x2="1128.5" y1="705.5195" y2="718.5195"/><line style="stroke:#181818;stroke-width:1.0;stroke-dasharray:2.0,2.0;" x1="1081.5" x2="1128.5" y1="718.5195" y2="718.5195"/><polygon fill="#181818" points="1091.5,714.5195,1081.5,718.5195,1091.5,722.5195,1087.5,718.5195" style="stroke:#181818;stroke-width:1.0;"/><text fill="#000000" font-family="sans-serif" font-size="13" font-weight="bold" lengthAdjust="spacing" textLength="14" x="1093.5" y="700.2568">17</text><text fill="#000000" font-family="sans-serif" font-size="13" lengthAdjust="spacing" textLength="22" x="1111.5" y="700.2568">true</text><line style="stroke:#181818;stroke-width:1.0;" x1="1081.5" x2="1123.5" y1="762.1016" y2="762.1016"/><line style="stroke:#181818;stroke-width:1.0;" x1="1123.5" x2="1123.5" y1="762.1016" y2="775.1016"/><line style="stroke:#181818;stroke-width:1.0;" x1="1082.5" x2="1123.5" y1="775.1016" y2="775.1016"/><polygon fill="#181818" points="1092.5,771.1016,1082.5,775.1016,1092.5,779.1016,1088.5,775.1016" style="stroke:#181818;stroke-width:1.0;"/><text fill="#000000" font-family="sans-serif" font-size="13" font-weight="bold" lengthAdjust="spacing" textLength="14" x="1088.5" y="748.1934">18</text><text fill="#000000" font-family="sans-serif" font-size="13" lengthAdjust="spacing" textLength="191" x="1106.5" y="739.5479">addDrnRemovData(serialNumber,</text><text fill="#000000" font-family="sans-serif" font-size="13" lengthAdjust="spacing" textLength="82" x="1106.5" y="756.8389">removReason)</text><polygon fill="#181818" points="709.5,802.3926,699.5,806.3926,709.5,810.3926,705.5,806.3926" style="stroke:#181818;stroke-width:1.0;"/><line style="stroke:#181818;stroke-width:1.0;stroke-dasharray:2.0,2.0;" x1="703.5" x2="1075.5" y1="806.3926" y2="806.3926"/><text fill="#000000" font-family="sans-serif" font-size="13" font-weight="bold" lengthAdjust="spacing" textLength="14" x="715.5" y="801.1299">19</text><text fill="#000000" font-family="sans-serif" font-size="13" lengthAdjust="spacing" textLength="22" x="733.5" y="801.1299">true</text><polygon fill="#181818" points="424.5,833.6836,414.5,837.6836,424.5,841.6836,420.5,837.6836" style="stroke:#181818;stroke-width:1.0;"/><line style="stroke:#181818;stroke-width:1.0;stroke-dasharray:2.0,2.0;" x1="418.5" x2="692.5" y1="837.6836" y2="837.6836"/><text fill="#000000" font-family="sans-serif" font-size="13" font-weight="bold" lengthAdjust="spacing" textLength="14" x="430.5" y="832.4209">20</text><text fill="#000000" font-family="sans-serif" font-size="13" lengthAdjust="spacing" textLength="22" x="448.5" y="832.4209">true</text><polygon fill="#181818" points="54.5,864.9746,44.5,868.9746,54.5,872.9746,50.5,868.9746" style="stroke:#181818;stroke-width:1.0;"/><line style="stroke:#181818;stroke-width:1.0;stroke-dasharray:2.0,2.0;" x1="48.5" x2="407.5" y1="868.9746" y2="868.9746"/><text fill="#000000" font-family="sans-serif" font-size="13" font-weight="bold" lengthAdjust="spacing" textLength="14" x="60.5" y="863.7119">21</text><text fill="#000000" font-family="sans-serif" font-size="13" lengthAdjust="spacing" textLength="158" x="78.5" y="863.7119">displays success message</text><!--SRC=[bLLDRwCm4BtpAqQvz4ERFv13BoLQHQgIYj1RfSg5IM85RDOsMUNVxp1EmH1ekZua2DvxypoyCNVsA5KbZ2YXr4fd1wDBZABkRYMoezZZrfqB18EP4sfVO02m1v7hlrBjOISAIrnHEwtgyXCDNMTE6vZ5HYjCCJlCG5Y8quYeJcQo4ih1R95WgK_8eE9jnPYtrJJcMIjdT56WOUXpchpqmGbMsaggBD4o95c-RhPzZ0amxsenJldOhjQ_NvRfPjqdvusDbd8cVjo_u_UPh3yQcH7k5-E2swoNt2jv4WwR_aHn2lCdwW8igEb_QhJEWjDqtNG11B0AI0NkqFoTK3LbEmtg7z0YWJdfaDg2AXqjxEXrUAv58qK1_as1K3bB6HHMAuPnBL6mJev3vS2WhJzBIVvouGG_ct31u2DY5HFmtjTVS_bVlbZ2nH-cdMTQxQGfXPDQtVPrGTymziG1uZwt2RjbhjNXxC5biKwhjqSt2CNzGmlzNe2pHuv8OgKiJLo6OroVQWYM9yx3FNMnRf51qxp4k84k_DxA3tOp79ehRu5cu78mJfD6HvIzuscfCQrUpyDjVmti_uNXgWljtBUFMs4kGjF- -DZMwCdt5SVf_de1D9kIaes9dzCVw5mxX8dLLUotnPaQHqb1Uw_4n-mtKvtdiL7iVkH0U5UzHaStNLu2m0wZxsnTPuTFYuuuZ4eKdaMvj5KXpfPElIn3Qw6a7_f0HlsZA2oSHly0]--></g></svg>