<?xml version="1.0" encoding="us-ascii" standalone="no"?><svg xmlns="http://www.w3.org/2000/svg" xmlns:xlink="http://www.w3.org/1999/xlink" contentStyleType="text/css" height="908px" preserveAspectRatio="none" style="width:1166px;height:908px;background:#FFFFFF;" version="1.1" viewBox="0 0 1166 908" width="1166px" zoomAndPan="magnify"><defs/><g><rect fill="#FFFFFF" height="713.7715" style="stroke:#181818;stroke-width:1.0;" width="10" x="38.5" y="93.6211"/><rect fill="#FFFFFF" height="31.291" style="stroke:#181818;stroke-width:1.0;" width="10" x="326.5" y="116.9121"/><rect fill="#FFFFFF" height="75.582" style="stroke:#181818;stroke-width:1.0;" width="10" x="326.5" y="179.4941"/><rect fill="#FFFFFF" height="521.0254" style="stroke:#181818;stroke-width:1.0;" width="10" x="326.5" y="286.3672"/><rect fill="#FFFFFF" height="458.4434" style="stroke:#181818;stroke-width:1.0;" width="10" x="525.5" y="317.6582"/><rect fill="#FFFFFF" height="167.4551" style="stroke:#181818;stroke-width:1.0;" width="10" x="530.5" y="356.9492"/><rect fill="#FFFFFF" height="31.291" style="stroke:#181818;stroke-width:1.0;" width="10" x="682.5" y="393.2402"/><rect fill="#FFFFFF" height="31.291" style="stroke:#181818;stroke-width:1.0;" width="10" x="787.5" y="455.8223"/><rect fill="#FFFFFF" height="182.1152" style="stroke:#181818;stroke-width:1.0;" width="10" x="908.5" y="562.6953"/><rect fill="#FFFFFF" height="42.291" style="stroke:#181818;stroke-width:1.0;" width="10" x="913.5" y="664.2285"/><line style="stroke:#181818;stroke-width:0.5;stroke-dasharray:5.0,5.0;" x1="43" x2="43" y1="83.6211" y2="825.3926"/><line style="stroke:#181818;stroke-width:0.5;stroke-dasharray:5.0,5.0;" x1="331.5" x2="331.5" y1="83.6211" y2="825.3926"/><line style="stroke:#181818;stroke-width:0.5;stroke-dasharray:5.0,5.0;" x1="530" x2="530" y1="83.6211" y2="825.3926"/><line style="stroke:#181818;stroke-width:0.5;stroke-dasharray:5.0,5.0;" x1="687" x2="687" y1="83.6211" y2="825.3926"/><line style="stroke:#181818;stroke-width:0.5;stroke-dasharray:5.0,5.0;" x1="792" x2="792" y1="83.6211" y2="825.3926"/><line style="stroke:#181818;stroke-width:0.5;stroke-dasharray:5.0,5.0;" x1="913" x2="913" y1="83.6211" y2="825.3926"/><line style="stroke:#181818;stroke-width:0.5;stroke-dasharray:5.0,5.0;" x1="1131" x2="1131" y1="611.8164" y2="825.3926"/><text fill="#000000" font-family="sans-serif" font-size="14" lengthAdjust="spacing" textLength="71" x="5" y="80.1074">DroneTech</text><ellipse cx="43.5" cy="13.5" fill="#E2E2F0" rx="8" ry="8" style="stroke:#181818;stroke-width:0.5;"/><path d="M43.5,21.5 L43.5,48.5 M30.5,29.5 L56.5,29.5 M43.5,48.5 L30.5,63.5 M43.5,48.5 L56.5,63.5 " fill="none" style="stroke:#181818;stroke-width:0.5;"/><text fill="#000000" font-family="sans-serif" font-size="14" lengthAdjust="spacing" textLength="71" x="5" y="839.5">DroneTech</text><ellipse cx="43.5" cy="851.5137" fill="#E2E2F0" rx="8" ry="8" style="stroke:#181818;stroke-width:0.5;"/><path d="M43.5,859.5137 L43.5,886.5137 M30.5,867.5137 L56.5,867.5137 M43.5,886.5137 L30.5,901.5137 M43.5,886.5137 L56.5,901.5137 " fill="none" style="stroke:#181818;stroke-width:0.5;"/><rect fill="#E2E2F0" height="32.6211" rx="2.5" ry="2.5" style="stroke:#181818;stroke-width:0.5;" width="124" x="269.5" y="50"/><text fill="#000000" font-family="sans-serif" font-size="14" lengthAdjust="spacing" textLength="110" x="276.5" y="72.1074">:RemoveDronelUI</text><rect fill="#E2E2F0" height="32.6211" rx="2.5" ry="2.5" style="stroke:#181818;stroke-width:0.5;" width="124" x="269.5" y="824.3926"/><text fill="#000000" font-family="sans-serif" font-size="14" lengthAdjust="spacing" textLength="110" x="276.5" y="846.5">:RemoveDronelUI</text><rect fill="#E2E2F0" height="32.6211" rx="2.5" ry="2.5" style="stroke:#181818;stroke-width:0.5;" width="171" x="445" y="50"/><text fill="#000000" font-family="sans-serif" font-size="14" lengthAdjust="spacing" textLength="157" x="452" y="72.1074">:RemoveDroneController</text><rect fill="#E2E2F0" height="32.6211" rx="2.5" ry="2.5" style="stroke:#181818;stroke-width:0.5;" width="171" x="445" y="824.3926"/><text fill="#000000" font-family="sans-serif" font-size="14" lengthAdjust="spacing" textLength="157" x="452" y="846.5">:RemoveDroneController</text><rect fill="#E2E2F0" height="32.6211" rx="2.5" ry="2.5" style="stroke:#181818;stroke-width:0.5;" width="93" x="641" y="50"/><text fill="#000000" font-family="sans-serif" font-size="14" lengthAdjust="spacing" textLength="79" x="648" y="72.1074">Repositories</text><rect fill="#E2E2F0" height="32.6211" rx="2.5" ry="2.5" style="stroke:#181818;stroke-width:0.5;" width="93" x="641" y="824.3926"/><text fill="#000000" font-family="sans-serif" font-size="14" lengthAdjust="spacing" textLength="79" x="648" y="846.5">Repositories</text><rect fill="#E2E2F0" height="51.2422" rx="2.5" ry="2.5" style="stroke:#181818;stroke-width:0.5;" width="97" x="744" y="31.3789"/><text fill="#000000" font-family="sans-serif" font-size="14" lengthAdjust="spacing" textLength="74" x="755.5" y="53.4863">repositories</text><text fill="#000000" font-family="sans-serif" font-size="14" lengthAdjust="spacing" textLength="83" x="751" y="72.1074">:Repositories</text><rect fill="#E2E2F0" height="51.2422" rx="2.5" ry="2.5" style="stroke:#181818;stroke-width:0.5;" width="97" x="744" y="824.3926"/><text fill="#000000" font-family="sans-serif" font-size="14" lengthAdjust="spacing" textLength="74" x="755.5" y="846.5">repositories</text><text fill="#000000" font-family="sans-serif" font-size="14" lengthAdjust="spacing" textLength="83" x="751" y="865.1211">:Repositories</text><rect fill="#E2E2F0" height="51.2422" rx="2.5" ry="2.5" style="stroke:#181818;stroke-width:0.5;" width="125" x="851" y="31.3789"/><text fill="#000000" font-family="sans-serif" font-size="14" lengthAdjust="spacing" textLength="105" x="861" y="53.4863">droneRepository</text><text fill="#000000" font-family="sans-serif" font-size="14" lengthAdjust="spacing" textLength="111" x="858" y="72.1074">:DroneRepository</text><rect fill="#E2E2F0" height="51.2422" rx="2.5" ry="2.5" style="stroke:#181818;stroke-width:0.5;" width="125" x="851" y="824.3926"/><text fill="#000000" font-family="sans-serif" font-size="14" lengthAdjust="spacing" textLength="105" x="861" y="846.5">droneRepository</text><text fill="#000000" font-family="sans-serif" font-size="14" lengthAdjust="spacing" textLength="111" x="858" y="865.1211">:DroneRepository</text><rect fill="#E2E2F0" height="51.2422" rx="2.5" ry="2.5" style="stroke:#181818;stroke-width:0.5;" width="57" x="1103" y="824.3926"/><text fill="#000000" font-family="sans-serif" font-size="14" lengthAdjust="spacing" textLength="37" x="1113" y="846.5">drone</text><text fill="#000000" font-family="sans-serif" font-size="14" lengthAdjust="spacing" textLength="43" x="1110" y="865.1211">:Drone</text><rect fill="#FFFFFF" height="713.7715" style="stroke:#181818;stroke-width:1.0;" width="10" x="38.5" y="93.6211"/><rect fill="#FFFFFF" height="31.291" style="stroke:#181818;stroke-width:1.0;" width="10" x="326.5" y="116.9121"/><rect fill="#FFFFFF" height="75.582" style="stroke:#181818;stroke-width:1.0;" width="10" x="326.5" y="179.4941"/><rect fill="#FFFFFF" height="521.0254" style="stroke:#181818;stroke-width:1.0;" width="10" x="326.5" y="286.3672"/><rect fill="#FFFFFF" height="458.4434" style="stroke:#181818;stroke-width:1.0;" width="10" x="525.5" y="317.6582"/><rect fill="#FFFFFF" height="167.4551" style="stroke:#181818;stroke-width:1.0;" width="10" x="530.5" y="356.9492"/><rect fill="#FFFFFF" height="31.291" style="stroke:#181818;stroke-width:1.0;" width="10" x="682.5" y="393.2402"/><rect fill="#FFFFFF" height="31.291" style="stroke:#181818;stroke-width:1.0;" width="10" x="787.5" y="455.8223"/><rect fill="#FFFFFF" height="182.1152" style="stroke:#181818;stroke-width:1.0;" width="10" x="908.5" y="562.6953"/><rect fill="#FFFFFF" height="42.291" style="stroke:#181818;stroke-width:1.0;" width="10" x="913.5" y="664.2285"/><polygon fill="#181818" points="314.5,112.9121,324.5,116.9121,314.5,120.9121,318.5,116.9121" style="stroke:#181818;stroke-width:1.0;"/><line style="stroke:#181818;stroke-width:1.0;" x1="48.5" x2="320.5" y1="116.9121" y2="116.9121"/><text fill="#000000" font-family="sans-serif" font-size="13" font-weight="bold" lengthAdjust="spacing" textLength="7" x="55.5" y="111.6494">1</text><text fill="#000000" font-family="sans-serif" font-size="13" lengthAdjust="spacing" textLength="248" x="66.5" y="111.6494">requests to remove a drone in the inventory</text><polygon fill="#181818" points="59.5,144.2031,49.5,148.2031,59.5,152.2031,55.5,148.2031" style="stroke:#181818;stroke-width:1.0;"/><line style="stroke:#181818;stroke-width:1.0;stroke-dasharray:2.0,2.0;" x1="53.5" x2="330.5" y1="148.2031" y2="148.2031"/><text fill="#000000" font-family="sans-serif" font-size="13" font-weight="bold" lengthAdjust="spacing" textLength="7" x="65.5" y="142.9404">2</text><text fill="#000000" font-family="sans-serif" font-size="13" lengthAdjust="spacing" textLength="164" x="76.5" y="142.9404">asks for drone serial number</text><polygon fill="#181818" points="314.5,175.4941,324.5,179.4941,314.5,183.4941,318.5,179.4941" style="stroke:#181818;stroke-width:1.0;"/><line style="stroke:#181818;stroke-width:1.0;" x1="48.5" x2="320.5" y1="179.4941" y2="179.4941"/><text fill="#000000" font-family="sans-serif" font-size="13" font-weight="bold" lengthAdjust="spacing" textLength="7" x="55.5" y="174.2314">3</text><text fill="#000000" font-family="sans-serif" font-size="13" lengthAdjust="spacing" textLength="75" x="66.5" y="174.2314">submits data</text><line style="stroke:#181818;stroke-width:1.0;stroke-dasharray:2.0,2.0;" x1="336.5" x2="378.5" y1="210.7852" y2="210.7852"/><line style="stroke:#181818;stroke-width:1.0;stroke-dasharray:2.0,2.0;" x1="378.5" x2="378.5" y1="210.7852" y2="223.7852"/><line style="stroke:#181818;stroke-width:1.0;stroke-dasharray:2.0,2.0;" x1="337.5" x2="378.5" y1="223.7852" y2="223.7852"/><polygon fill="#181818" points="347.5,219.7852,337.5,223.7852,347.5,227.7852,343.5,223.7852" style="stroke:#181818;stroke-width:1.0;"/><text fill="#000000" font-family="sans-serif" font-size="13" font-weight="bold" lengthAdjust="spacing" textLength="7" x="343.5" y="205.5225">4</text><text fill="#000000" font-family="sans-serif" font-size="13" lengthAdjust="spacing" textLength="139" x="354.5" y="205.5225">keepData(serialNumber)</text><polygon fill="#181818" points="59.5,251.0762,49.5,255.0762,59.5,259.0762,55.5,255.0762" style="stroke:#181818;stroke-width:1.0;"/><line style="stroke:#181818;stroke-width:1.0;stroke-dasharray:2.0,2.0;" x1="53.5" x2="330.5" y1="255.0762" y2="255.0762"/><text fill="#000000" font-family="sans-serif" font-size="13" font-weight="bold" lengthAdjust="spacing" textLength="7" x="65.5" y="249.8135">5</text><text fill="#000000" font-family="sans-serif" font-size="13" lengthAdjust="spacing" textLength="120" x="76.5" y="249.8135">asks for confirmation</text><polygon fill="#181818" points="314.5,282.3672,324.5,286.3672,314.5,290.3672,318.5,286.3672" style="stroke:#181818;stroke-width:1.0;"/><line style="stroke:#181818;stroke-width:1.0;" x1="48.5" x2="320.5" y1="286.3672" y2="286.3672"/><text fill="#000000" font-family="sans-serif" font-size="13" font-weight="bold" lengthAdjust="spacing" textLength="7" x="55.5" y="281.1045">6</text><text fill="#000000" font-family="sans-serif" font-size="13" lengthAdjust="spacing" textLength="78" x="66.5" y="281.1045">confirms data</text><polygon fill="#181818" points="513.5,313.6582,523.5,317.6582,513.5,321.6582,517.5,317.6582" style="stroke:#181818;stroke-width:1.0;"/><line style="stroke:#181818;stroke-width:1.0;" x1="336.5" x2="519.5" y1="317.6582" y2="317.6582"/><text fill="#000000" font-family="sans-serif" font-size="13" font-weight="bold" lengthAdjust="spacing" textLength="7" x="343.5" y="312.3955">7</text><text fill="#000000" font-family="sans-serif" font-size="13" lengthAdjust="spacing" textLength="159" x="354.5" y="312.3955">removeDrone(serialNumber)</text><line style="stroke:#181818;stroke-width:1.0;stroke-dasharray:2.0,2.0;" x1="535.5" x2="582.5" y1="343.9492" y2="343.9492"/><line style="stroke:#181818;stroke-width:1.0;stroke-dasharray:2.0,2.0;" x1="582.5" x2="582.5" y1="343.9492" y2="356.9492"/><line style="stroke:#181818;stroke-width:1.0;stroke-dasharray:2.0,2.0;" x1="541.5" x2="582.5" y1="356.9492" y2="356.9492"/><polygon fill="#181818" points="551.5,352.9492,541.5,356.9492,551.5,360.9492,547.5,356.9492" style="stroke:#181818;stroke-width:1.0;"/><text fill="#000000" font-family="sans-serif" font-size="13" font-weight="bold" lengthAdjust="spacing" textLength="7" x="547.5" y="338.6865">8</text><text fill="#000000" font-family="sans-serif" font-size="13" lengthAdjust="spacing" textLength="122" x="558.5" y="338.6865">getDroneRepository()</text><polygon fill="#181818" points="670.5,389.2402,680.5,393.2402,670.5,397.2402,674.5,393.2402" style="stroke:#181818;stroke-width:1.0;"/><line style="stroke:#181818;stroke-width:1.0;" x1="540.5" x2="676.5" y1="393.2402" y2="393.2402"/><text fill="#000000" font-family="sans-serif" font-size="13" font-weight="bold" lengthAdjust="spacing" textLength="7" x="547.5" y="387.9775">9</text><text fill="#000000" font-family="sans-serif" font-size="13" lengthAdjust="spacing" textLength="75" x="558.5" y="387.9775">getInstance()</text><polygon fill="#181818" points="551.5,420.5313,541.5,424.5313,551.5,428.5313,547.5,424.5313" style="stroke:#181818;stroke-width:1.0;"/><line style="stroke:#181818;stroke-width:1.0;stroke-dasharray:2.0,2.0;" x1="545.5" x2="686.5" y1="424.5313" y2="424.5313"/><text fill="#000000" font-family="sans-serif" font-size="13" font-weight="bold" lengthAdjust="spacing" textLength="14" x="557.5" y="419.2686">10</text><text fill="#000000" font-family="sans-serif" font-size="13" lengthAdjust="spacing" textLength="67" x="575.5" y="419.2686">repositories</text><polygon fill="#181818" points="775.5,451.8223,785.5,455.8223,775.5,459.8223,779.5,455.8223" style="stroke:#181818;stroke-width:1.0;"/><line style="stroke:#181818;stroke-width:1.0;" x1="540.5" x2="781.5" y1="455.8223" y2="455.8223"/><text fill="#000000" font-family="sans-serif" font-size="13" font-weight="bold" lengthAdjust="spacing" textLength="14" x="547.5" y="450.5596">11</text><text fill="#000000" font-family="sans-serif" font-size="13" lengthAdjust="spacing" textLength="122" x="565.5" y="450.5596">getDroneRepository()</text><polygon fill="#181818" points="551.5,483.1133,541.5,487.1133,551.5,491.1133,547.5,487.1133" style="stroke:#181818;stroke-width:1.0;"/><line style="stroke:#181818;stroke-width:1.0;stroke-dasharray:2.0,2.0;" x1="545.5" x2="791.5" y1="487.1133" y2="487.1133"/><text fill="#000000" font-family="sans-serif" font-size="13" font-weight="bold" lengthAdjust="spacing" textLength="14" x="557.5" y="481.8506">12</text><text fill="#000000" font-family="sans-serif" font-size="13" lengthAdjust="spacing" textLength="94" x="575.5" y="481.8506">droneRepository</text><line style="stroke:#181818;stroke-width:1.0;stroke-dasharray:2.0,2.0;" x1="540.5" x2="582.5" y1="523.4043" y2="523.4043"/><line style="stroke:#181818;stroke-width:1.0;stroke-dasharray:2.0,2.0;" x1="582.5" x2="582.5" y1="523.4043" y2="536.4043"/><line style="stroke:#181818;stroke-width:1.0;stroke-dasharray:2.0,2.0;" x1="535.5" x2="582.5" y1="536.4043" y2="536.4043"/><polygon fill="#181818" points="545.5,532.4043,535.5,536.4043,545.5,540.4043,541.5,536.4043" style="stroke:#181818;stroke-width:1.0;"/><text fill="#000000" font-family="sans-serif" font-size="13" font-weight="bold" lengthAdjust="spacing" textLength="14" x="547.5" y="518.1416">13</text><text fill="#000000" font-family="sans-serif" font-size="13" lengthAdjust="spacing" textLength="94" x="565.5" y="518.1416">droneRepository</text><polygon fill="#181818" points="896.5,558.6953,906.5,562.6953,896.5,566.6953,900.5,562.6953" style="stroke:#181818;stroke-width:1.0;"/><line style="stroke:#181818;stroke-width:1.0;" x1="535.5" x2="902.5" y1="562.6953" y2="562.6953"/><text fill="#000000" font-family="sans-serif" font-size="13" font-weight="bold" lengthAdjust="spacing" textLength="14" x="542.5" y="557.4326">14</text><text fill="#000000" font-family="sans-serif" font-size="13" lengthAdjust="spacing" textLength="159" x="560.5" y="557.4326">removeDrone(serialNumber)</text><polygon fill="#181818" points="1091,589.9863,1101,593.9863,1091,597.9863,1095,593.9863" style="stroke:#181818;stroke-width:1.0;"/><line style="stroke:#181818;stroke-width:1.0;" x1="918.5" x2="1097" y1="593.9863" y2="593.9863"/><text fill="#000000" font-family="sans-serif" font-size="13" font-weight="bold" lengthAdjust="spacing" textLength="14" x="925.5" y="588.7236">15</text><text fill="#000000" font-family="sans-serif" font-size="13" lengthAdjust="spacing" textLength="125" x="943.5" y="588.7236">remove(serialNumber)</text><rect fill="#E2E2F0" height="51.2422" rx="2.5" ry="2.5" style="stroke:#181818;stroke-width:0.5;" width="57" x="1103" y="570.6953"/><text fill="#000000" font-family="sans-serif" font-size="14" lengthAdjust="spacing" textLength="37" x="1113" y="592.8027">drone</text><text fill="#000000" font-family="sans-serif" font-size="14" lengthAdjust="spacing" textLength="43" x="1110" y="611.4238">:Drone</text><line style="stroke:#181818;stroke-width:1.0;" x1="918.5" x2="965.5" y1="651.2285" y2="651.2285"/><line style="stroke:#181818;stroke-width:1.0;" x1="965.5" x2="965.5" y1="651.2285" y2="664.2285"/><line style="stroke:#181818;stroke-width:1.0;" x1="924.5" x2="965.5" y1="664.2285" y2="664.2285"/><polygon fill="#181818" points="934.5,660.2285,924.5,664.2285,934.5,668.2285,930.5,664.2285" style="stroke:#181818;stroke-width:1.0;"/><text fill="#000000" font-family="sans-serif" font-size="13" font-weight="bold" lengthAdjust="spacing" textLength="14" x="930.5" y="645.9658">16</text><text fill="#000000" font-family="sans-serif" font-size="13" lengthAdjust="spacing" textLength="176" x="948.5" y="645.9658">validateRemoval(serialNumber)</text><line style="stroke:#181818;stroke-width:1.0;stroke-dasharray:2.0,2.0;" x1="923.5" x2="965.5" y1="705.5195" y2="705.5195"/><line style="stroke:#181818;stroke-width:1.0;stroke-dasharray:2.0,2.0;" x1="965.5" x2="965.5" y1="705.5195" y2="718.5195"/><line style="stroke:#181818;stroke-width:1.0;stroke-dasharray:2.0,2.0;" x1="918.5" x2="965.5" y1="718.5195" y2="718.5195"/><polygon fill="#181818" points="928.5,714.5195,918.5,718.5195,928.5,722.5195,924.5,718.5195" style="stroke:#181818;stroke-width:1.0;"/><text fill="#000000" font-family="sans-serif" font-size="13" font-weight="bold" lengthAdjust="spacing" textLength="14" x="930.5" y="700.2568">17</text><text fill="#000000" font-family="sans-serif" font-size="13" lengthAdjust="spacing" textLength="22" x="948.5" y="700.2568">true</text><polygon fill="#181818" points="546.5,740.8105,536.5,744.8105,546.5,748.8105,542.5,744.8105" style="stroke:#181818;stroke-width:1.0;"/><line style="stroke:#181818;stroke-width:1.0;stroke-dasharray:2.0,2.0;" x1="540.5" x2="912.5" y1="744.8105" y2="744.8105"/><text fill="#000000" font-family="sans-serif" font-size="13" font-weight="bold" lengthAdjust="spacing" textLength="14" x="552.5" y="739.5479">18</text><text fill="#000000" font-family="sans-serif" font-size="13" lengthAdjust="spacing" textLength="22" x="570.5" y="739.5479">true</text><polygon fill="#181818" points="347.5,772.1016,337.5,776.1016,347.5,780.1016,343.5,776.1016" style="stroke:#181818;stroke-width:1.0;"/><line style="stroke:#181818;stroke-width:1.0;stroke-dasharray:2.0,2.0;" x1="341.5" x2="529.5" y1="776.1016" y2="776.1016"/><text fill="#000000" font-family="sans-serif" font-size="13" font-weight="bold" lengthAdjust="spacing" textLength="14" x="353.5" y="770.8389">19</text><text fill="#000000" font-family="sans-serif" font-size="13" lengthAdjust="spacing" textLength="22" x="371.5" y="770.8389">true</text><polygon fill="#181818" points="54.5,803.3926,44.5,807.3926,54.5,811.3926,50.5,807.3926" style="stroke:#181818;stroke-width:1.0;"/><line style="stroke:#181818;stroke-width:1.0;stroke-dasharray:2.0,2.0;" x1="48.5" x2="330.5" y1="807.3926" y2="807.3926"/><text fill="#000000" font-family="sans-serif" font-size="13" font-weight="bold" lengthAdjust="spacing" textLength="14" x="60.5" y="802.1299">20</text><text fill="#000000" font-family="sans-serif" font-size="13" lengthAdjust="spacing" textLength="158" x="78.5" y="802.1299">displays success message</text><!--SRC=[ZLN1RgCm4Btp5QDSjgsK7-2GIubMaIfI4NfRgN9XabW1cxLDLldx7GmrXkAcFYI8lFVc-Nd6-QKlN3HCiHfgAMHnLhB6A1hVDgoui1CUpAr2K5WO9auLUW1zPgNynyK9ZgpIn6MjaQAjFr3HSs6aWbMYfC0SY_CAc8OaZuXgUC4R9WoiuWnhUKKBgjvs5lEs2sEUfJ1ALXKg2ttEivSfECD6QawLEMeBoRQl-yCKeppC7n4lKzuFk_JtopRVfrDosTbmb1lna-cRVfzP-jx9B70_6GDkdsvjLlpA37RvH4aEwmsb0365_hT5RJGOISzT2i30gW0NOCxTrnL5LtRKeFo05WciIOVKOgfqqN2au-Yv6XLd5GmdrO5BdDCz5xhzg3cPA9bXzhT0AGk-83O90H_w8gcjyHXsL4XnvAfcXajntyg0lkDbOnl3vkSwPy6FezesWc5PwjffdD3C3lZXqM6_KzZqVKGkI68dD4rFWKlSlaF1MprnxUzZR567z8Bg9PODZ8tSM_d1RkO3yCMRf-cvd8r6qAZ7Xb3iGR4brKdwVW2VOtYt5Rv4u0RO_Uoqh2wDxTEJamqeUXRxGOU5DTNjdsEuiefJZwEz-rZrZUMmTGYiiU8q8gDQN2HDzZ7F9QWy7AHLZNuavNh0plf8d1zrvDya9TTDnMwQhgcYGAsXfW_wsugc5ubVE8_-0m00]--></g></svg>