<?xml version="1.0" encoding="us-ascii" standalone="no"?><svg xmlns="http://www.w3.org/2000/svg" xmlns:xlink="http://www.w3.org/1999/xlink" contentStyleType="text/css" height="1076px" preserveAspectRatio="none" style="width:1544px;height:1076px;background:#FFFFFF;" version="1.1" viewBox="0 0 1544 1076" width="1544px" zoomAndPan="magnify"><defs/><g><rect fill="#FFFFFF" height="882.2266" style="stroke:#181818;stroke-width:1.0;" width="10" x="38.5" y="93.6211"/><rect fill="#FFFFFF" height="31.291" style="stroke:#181818;stroke-width:1.0;" width="10" x="403.5" y="116.9121"/><rect fill="#FFFFFF" height="75.582" style="stroke:#181818;stroke-width:1.0;" width="10" x="403.5" y="179.4941"/><rect fill="#FFFFFF" height="689.4805" style="stroke:#181818;stroke-width:1.0;" width="10" x="403.5" y="286.3672"/><rect fill="#FFFFFF" height="626.8984" style="stroke:#181818;stroke-width:1.0;" width="10" x="688.5" y="317.6582"/><rect fill="#FFFFFF" height="230.0371" style="stroke:#181818;stroke-width:1.0;" width="10" x="693.5" y="356.9492"/><rect fill="#FFFFFF" height="31.291" style="stroke:#181818;stroke-width:1.0;" width="10" x="857.5" y="393.2402"/><rect fill="#FFFFFF" height="31.291" style="stroke:#181818;stroke-width:1.0;" width="10" x="980.5" y="455.8223"/><rect fill="#FFFFFF" height="31.291" style="stroke:#181818;stroke-width:1.0;" width="10" x="1126.5" y="518.4043"/><rect fill="#FFFFFF" height="287.9883" style="stroke:#181818;stroke-width:1.0;" width="10" x="1268" y="625.2773"/><rect fill="#FFFFFF" height="42.291" style="stroke:#181818;stroke-width:1.0;" width="10" x="1273" y="726.8105"/><line style="stroke:#181818;stroke-width:0.5;stroke-dasharray:5.0,5.0;" x1="43" x2="43" y1="83.6211" y2="993.8477"/><line style="stroke:#181818;stroke-width:0.5;stroke-dasharray:5.0,5.0;" x1="408.5" x2="408.5" y1="83.6211" y2="993.8477"/><line style="stroke:#181818;stroke-width:0.5;stroke-dasharray:5.0,5.0;" x1="693" x2="693" y1="83.6211" y2="993.8477"/><line style="stroke:#181818;stroke-width:0.5;stroke-dasharray:5.0,5.0;" x1="862.5" x2="862.5" y1="83.6211" y2="993.8477"/><line style="stroke:#181818;stroke-width:0.5;stroke-dasharray:5.0,5.0;" x1="985.5" x2="985.5" y1="83.6211" y2="993.8477"/><line style="stroke:#181818;stroke-width:0.5;stroke-dasharray:5.0,5.0;" x1="1131.5" x2="1131.5" y1="83.6211" y2="993.8477"/><line style="stroke:#181818;stroke-width:0.5;stroke-dasharray:5.0,5.0;" x1="1272.5" x2="1272.5" y1="83.6211" y2="993.8477"/><line style="stroke:#181818;stroke-width:0.5;stroke-dasharray:5.0,5.0;" x1="1509.5" x2="1509.5" y1="674.3984" y2="993.8477"/><text fill="#000000" font-family="sans-serif" font-size="14" lengthAdjust="spacing" textLength="71" x="5" y="80.1074">DroneTech</text><ellipse cx="43.5" cy="13.5" fill="#E2E2F0" rx="8" ry="8" style="stroke:#181818;stroke-width:0.5;"/><path d="M43.5,21.5 L43.5,48.5 M30.5,29.5 L56.5,29.5 M43.5,48.5 L30.5,63.5 M43.5,48.5 L56.5,63.5 " fill="none" style="stroke:#181818;stroke-width:0.5;"/><text fill="#000000" font-family="sans-serif" font-size="14" lengthAdjust="spacing" textLength="71" x="5" y="1007.9551">DroneTech</text><ellipse cx="43.5" cy="1019.9688" fill="#E2E2F0" rx="8" ry="8" style="stroke:#181818;stroke-width:0.5;"/><path d="M43.5,1027.9688 L43.5,1054.9688 M30.5,1035.9688 L56.5,1035.9688 M43.5,1054.9688 L30.5,1069.9688 M43.5,1054.9688 L56.5,1069.9688 " fill="none" style="stroke:#181818;stroke-width:0.5;"/><rect fill="#E2E2F0" height="32.6211" rx="2.5" ry="2.5" style="stroke:#181818;stroke-width:0.5;" width="124" x="346.5" y="50"/><text fill="#000000" font-family="sans-serif" font-size="14" lengthAdjust="spacing" textLength="110" x="353.5" y="72.1074">:RemoveDronelUI</text><rect fill="#E2E2F0" height="32.6211" rx="2.5" ry="2.5" style="stroke:#181818;stroke-width:0.5;" width="124" x="346.5" y="992.8477"/><text fill="#000000" font-family="sans-serif" font-size="14" lengthAdjust="spacing" textLength="110" x="353.5" y="1014.9551">:RemoveDronelUI</text><rect fill="#E2E2F0" height="32.6211" rx="2.5" ry="2.5" style="stroke:#181818;stroke-width:0.5;" width="171" x="608" y="50"/><text fill="#000000" font-family="sans-serif" font-size="14" lengthAdjust="spacing" textLength="157" x="615" y="72.1074">:RemoveDroneController</text><rect fill="#E2E2F0" height="32.6211" rx="2.5" ry="2.5" style="stroke:#181818;stroke-width:0.5;" width="171" x="608" y="992.8477"/><text fill="#000000" font-family="sans-serif" font-size="14" lengthAdjust="spacing" textLength="157" x="615" y="1014.9551">:RemoveDroneController</text><rect fill="#E2E2F0" height="32.6211" rx="2.5" ry="2.5" style="stroke:#181818;stroke-width:0.5;" width="92" x="816.5" y="50"/><text fill="#000000" font-family="sans-serif" font-size="14" lengthAdjust="spacing" textLength="78" x="823.5" y="72.1074">:Persistence</text><rect fill="#E2E2F0" height="32.6211" rx="2.5" ry="2.5" style="stroke:#181818;stroke-width:0.5;" width="92" x="816.5" y="992.8477"/><text fill="#000000" font-family="sans-serif" font-size="14" lengthAdjust="spacing" textLength="78" x="823.5" y="1014.9551">:Persistence</text><rect fill="#E2E2F0" height="32.6211" rx="2.5" ry="2.5" style="stroke:#181818;stroke-width:0.5;" width="134" x="918.5" y="50"/><text fill="#000000" font-family="sans-serif" font-size="14" lengthAdjust="spacing" textLength="120" x="925.5" y="72.1074">:RepositoryFactory</text><rect fill="#E2E2F0" height="32.6211" rx="2.5" ry="2.5" style="stroke:#181818;stroke-width:0.5;" width="134" x="918.5" y="992.8477"/><text fill="#000000" font-family="sans-serif" font-size="14" lengthAdjust="spacing" textLength="120" x="925.5" y="1014.9551">:RepositoryFactory</text><rect fill="#E2E2F0" height="51.2422" rx="2.5" ry="2.5" style="stroke:#181818;stroke-width:0.5;" width="138" x="1062.5" y="31.3789"/><text fill="#000000" font-family="sans-serif" font-size="14" lengthAdjust="spacing" textLength="115" x="1074" y="53.4863">:repositoryFactory</text><text fill="#000000" font-family="sans-serif" font-size="14" lengthAdjust="spacing" textLength="124" x="1069.5" y="72.1074">::RepositoryFactory</text><rect fill="#E2E2F0" height="51.2422" rx="2.5" ry="2.5" style="stroke:#181818;stroke-width:0.5;" width="138" x="1062.5" y="992.8477"/><text fill="#000000" font-family="sans-serif" font-size="14" lengthAdjust="spacing" textLength="115" x="1074" y="1014.9551">:repositoryFactory</text><text fill="#000000" font-family="sans-serif" font-size="14" lengthAdjust="spacing" textLength="124" x="1069.5" y="1033.5762">::RepositoryFactory</text><rect fill="#E2E2F0" height="51.2422" rx="2.5" ry="2.5" style="stroke:#181818;stroke-width:0.5;" width="125" x="1210.5" y="31.3789"/><text fill="#000000" font-family="sans-serif" font-size="14" lengthAdjust="spacing" textLength="105" x="1220.5" y="53.4863">droneRepository</text><text fill="#000000" font-family="sans-serif" font-size="14" lengthAdjust="spacing" textLength="111" x="1217.5" y="72.1074">:DroneRepository</text><rect fill="#E2E2F0" height="51.2422" rx="2.5" ry="2.5" style="stroke:#181818;stroke-width:0.5;" width="125" x="1210.5" y="992.8477"/><text fill="#000000" font-family="sans-serif" font-size="14" lengthAdjust="spacing" textLength="105" x="1220.5" y="1014.9551">droneRepository</text><text fill="#000000" font-family="sans-serif" font-size="14" lengthAdjust="spacing" textLength="111" x="1217.5" y="1033.5762">:DroneRepository</text><rect fill="#E2E2F0" height="51.2422" rx="2.5" ry="2.5" style="stroke:#181818;stroke-width:0.5;" width="57" x="1481.5" y="992.8477"/><text fill="#000000" font-family="sans-serif" font-size="14" lengthAdjust="spacing" textLength="37" x="1491.5" y="1014.9551">drone</text><text fill="#000000" font-family="sans-serif" font-size="14" lengthAdjust="spacing" textLength="43" x="1488.5" y="1033.5762">:Drone</text><rect fill="#FFFFFF" height="882.2266" style="stroke:#181818;stroke-width:1.0;" width="10" x="38.5" y="93.6211"/><rect fill="#FFFFFF" height="31.291" style="stroke:#181818;stroke-width:1.0;" width="10" x="403.5" y="116.9121"/><rect fill="#FFFFFF" height="75.582" style="stroke:#181818;stroke-width:1.0;" width="10" x="403.5" y="179.4941"/><rect fill="#FFFFFF" height="689.4805" style="stroke:#181818;stroke-width:1.0;" width="10" x="403.5" y="286.3672"/><rect fill="#FFFFFF" height="626.8984" style="stroke:#181818;stroke-width:1.0;" width="10" x="688.5" y="317.6582"/><rect fill="#FFFFFF" height="230.0371" style="stroke:#181818;stroke-width:1.0;" width="10" x="693.5" y="356.9492"/><rect fill="#FFFFFF" height="31.291" style="stroke:#181818;stroke-width:1.0;" width="10" x="857.5" y="393.2402"/><rect fill="#FFFFFF" height="31.291" style="stroke:#181818;stroke-width:1.0;" width="10" x="980.5" y="455.8223"/><rect fill="#FFFFFF" height="31.291" style="stroke:#181818;stroke-width:1.0;" width="10" x="1126.5" y="518.4043"/><rect fill="#FFFFFF" height="287.9883" style="stroke:#181818;stroke-width:1.0;" width="10" x="1268" y="625.2773"/><rect fill="#FFFFFF" height="42.291" style="stroke:#181818;stroke-width:1.0;" width="10" x="1273" y="726.8105"/><polygon fill="#181818" points="391.5,112.9121,401.5,116.9121,391.5,120.9121,395.5,116.9121" style="stroke:#181818;stroke-width:1.0;"/><line style="stroke:#181818;stroke-width:1.0;" x1="48.5" x2="397.5" y1="116.9121" y2="116.9121"/><text fill="#000000" font-family="sans-serif" font-size="13" font-weight="bold" lengthAdjust="spacing" textLength="7" x="55.5" y="111.6494">1</text><text fill="#000000" font-family="sans-serif" font-size="13" lengthAdjust="spacing" textLength="248" x="66.5" y="111.6494">requests to remove a drone in the inventory</text><polygon fill="#181818" points="59.5,144.2031,49.5,148.2031,59.5,152.2031,55.5,148.2031" style="stroke:#181818;stroke-width:1.0;"/><line style="stroke:#181818;stroke-width:1.0;stroke-dasharray:2.0,2.0;" x1="53.5" x2="407.5" y1="148.2031" y2="148.2031"/><text fill="#000000" font-family="sans-serif" font-size="13" font-weight="bold" lengthAdjust="spacing" textLength="7" x="65.5" y="142.9404">2</text><text fill="#000000" font-family="sans-serif" font-size="13" lengthAdjust="spacing" textLength="320" x="76.5" y="142.9404">asks for drone serial number and the reason for removal</text><polygon fill="#181818" points="391.5,175.4941,401.5,179.4941,391.5,183.4941,395.5,179.4941" style="stroke:#181818;stroke-width:1.0;"/><line style="stroke:#181818;stroke-width:1.0;" x1="48.5" x2="397.5" y1="179.4941" y2="179.4941"/><text fill="#000000" font-family="sans-serif" font-size="13" font-weight="bold" lengthAdjust="spacing" textLength="7" x="55.5" y="174.2314">3</text><text fill="#000000" font-family="sans-serif" font-size="13" lengthAdjust="spacing" textLength="75" x="66.5" y="174.2314">submits data</text><line style="stroke:#181818;stroke-width:1.0;stroke-dasharray:2.0,2.0;" x1="413.5" x2="455.5" y1="210.7852" y2="210.7852"/><line style="stroke:#181818;stroke-width:1.0;stroke-dasharray:2.0,2.0;" x1="455.5" x2="455.5" y1="210.7852" y2="223.7852"/><line style="stroke:#181818;stroke-width:1.0;stroke-dasharray:2.0,2.0;" x1="414.5" x2="455.5" y1="223.7852" y2="223.7852"/><polygon fill="#181818" points="424.5,219.7852,414.5,223.7852,424.5,227.7852,420.5,223.7852" style="stroke:#181818;stroke-width:1.0;"/><text fill="#000000" font-family="sans-serif" font-size="13" font-weight="bold" lengthAdjust="spacing" textLength="7" x="420.5" y="205.5225">4</text><text fill="#000000" font-family="sans-serif" font-size="13" lengthAdjust="spacing" textLength="225" x="431.5" y="205.5225">keepData(serialNumber, removReason)</text><polygon fill="#181818" points="59.5,251.0762,49.5,255.0762,59.5,259.0762,55.5,255.0762" style="stroke:#181818;stroke-width:1.0;"/><line style="stroke:#181818;stroke-width:1.0;stroke-dasharray:2.0,2.0;" x1="53.5" x2="407.5" y1="255.0762" y2="255.0762"/><text fill="#000000" font-family="sans-serif" font-size="13" font-weight="bold" lengthAdjust="spacing" textLength="7" x="65.5" y="249.8135">5</text><text fill="#000000" font-family="sans-serif" font-size="13" lengthAdjust="spacing" textLength="120" x="76.5" y="249.8135">asks for confirmation</text><polygon fill="#181818" points="391.5,282.3672,401.5,286.3672,391.5,290.3672,395.5,286.3672" style="stroke:#181818;stroke-width:1.0;"/><line style="stroke:#181818;stroke-width:1.0;" x1="48.5" x2="397.5" y1="286.3672" y2="286.3672"/><text fill="#000000" font-family="sans-serif" font-size="13" font-weight="bold" lengthAdjust="spacing" textLength="7" x="55.5" y="281.1045">6</text><text fill="#000000" font-family="sans-serif" font-size="13" lengthAdjust="spacing" textLength="78" x="66.5" y="281.1045">confirms data</text><polygon fill="#181818" points="676.5,313.6582,686.5,317.6582,676.5,321.6582,680.5,317.6582" style="stroke:#181818;stroke-width:1.0;"/><line style="stroke:#181818;stroke-width:1.0;" x1="413.5" x2="682.5" y1="317.6582" y2="317.6582"/><text fill="#000000" font-family="sans-serif" font-size="13" font-weight="bold" lengthAdjust="spacing" textLength="7" x="420.5" y="312.3955">7</text><text fill="#000000" font-family="sans-serif" font-size="13" lengthAdjust="spacing" textLength="245" x="431.5" y="312.3955">removeDrone(serialNumber, removReason)</text><line style="stroke:#181818;stroke-width:1.0;" x1="698.5" x2="745.5" y1="343.9492" y2="343.9492"/><line style="stroke:#181818;stroke-width:1.0;" x1="745.5" x2="745.5" y1="343.9492" y2="356.9492"/><line style="stroke:#181818;stroke-width:1.0;" x1="704.5" x2="745.5" y1="356.9492" y2="356.9492"/><polygon fill="#181818" points="714.5,352.9492,704.5,356.9492,714.5,360.9492,710.5,356.9492" style="stroke:#181818;stroke-width:1.0;"/><text fill="#000000" font-family="sans-serif" font-size="13" font-weight="bold" lengthAdjust="spacing" textLength="7" x="710.5" y="338.6865">8</text><text fill="#000000" font-family="sans-serif" font-size="13" lengthAdjust="spacing" textLength="122" x="721.5" y="338.6865">getDroneRepository()</text><polygon fill="#181818" points="845.5,389.2402,855.5,393.2402,845.5,397.2402,849.5,393.2402" style="stroke:#181818;stroke-width:1.0;"/><line style="stroke:#181818;stroke-width:1.0;" x1="703.5" x2="851.5" y1="393.2402" y2="393.2402"/><text fill="#000000" font-family="sans-serif" font-size="13" font-weight="bold" lengthAdjust="spacing" textLength="7" x="710.5" y="387.9775">9</text><text fill="#000000" font-family="sans-serif" font-size="13" lengthAdjust="spacing" textLength="124" x="721.5" y="387.9775">getRepositoryFactory</text><polygon fill="#181818" points="714.5,420.5313,704.5,424.5313,714.5,428.5313,710.5,424.5313" style="stroke:#181818;stroke-width:1.0;"/><line style="stroke:#181818;stroke-width:1.0;stroke-dasharray:2.0,2.0;" x1="708.5" x2="861.5" y1="424.5313" y2="424.5313"/><text fill="#000000" font-family="sans-serif" font-size="13" font-weight="bold" lengthAdjust="spacing" textLength="14" x="720.5" y="419.2686">10</text><text fill="#000000" font-family="sans-serif" font-size="13" lengthAdjust="spacing" textLength="101" x="738.5" y="419.2686">repositoryFactory</text><polygon fill="#181818" points="968.5,451.8223,978.5,455.8223,968.5,459.8223,972.5,455.8223" style="stroke:#181818;stroke-width:1.0;"/><line style="stroke:#181818;stroke-width:1.0;" x1="703.5" x2="974.5" y1="455.8223" y2="455.8223"/><text fill="#000000" font-family="sans-serif" font-size="13" font-weight="bold" lengthAdjust="spacing" textLength="14" x="710.5" y="450.5596">11</text><text fill="#000000" font-family="sans-serif" font-size="13" lengthAdjust="spacing" textLength="75" x="728.5" y="450.5596">getInstance()</text><polygon fill="#181818" points="714.5,483.1133,704.5,487.1133,714.5,491.1133,710.5,487.1133" style="stroke:#181818;stroke-width:1.0;"/><line style="stroke:#181818;stroke-width:1.0;stroke-dasharray:2.0,2.0;" x1="708.5" x2="984.5" y1="487.1133" y2="487.1133"/><text fill="#000000" font-family="sans-serif" font-size="13" font-weight="bold" lengthAdjust="spacing" textLength="14" x="720.5" y="481.8506">12</text><text fill="#000000" font-family="sans-serif" font-size="13" lengthAdjust="spacing" textLength="67" x="738.5" y="481.8506">repositories</text><polygon fill="#181818" points="1114.5,514.4043,1124.5,518.4043,1114.5,522.4043,1118.5,518.4043" style="stroke:#181818;stroke-width:1.0;"/><line style="stroke:#181818;stroke-width:1.0;" x1="703.5" x2="1120.5" y1="518.4043" y2="518.4043"/><text fill="#000000" font-family="sans-serif" font-size="13" font-weight="bold" lengthAdjust="spacing" textLength="14" x="710.5" y="513.1416">13</text><text fill="#000000" font-family="sans-serif" font-size="13" lengthAdjust="spacing" textLength="122" x="728.5" y="513.1416">getDroneRepository()</text><polygon fill="#181818" points="714.5,545.6953,704.5,549.6953,714.5,553.6953,710.5,549.6953" style="stroke:#181818;stroke-width:1.0;"/><line style="stroke:#181818;stroke-width:1.0;stroke-dasharray:2.0,2.0;" x1="708.5" x2="1130.5" y1="549.6953" y2="549.6953"/><text fill="#000000" font-family="sans-serif" font-size="13" font-weight="bold" lengthAdjust="spacing" textLength="14" x="720.5" y="544.4326">14</text><text fill="#000000" font-family="sans-serif" font-size="13" lengthAdjust="spacing" textLength="94" x="738.5" y="544.4326">droneRepository</text><line style="stroke:#181818;stroke-width:1.0;stroke-dasharray:2.0,2.0;" x1="703.5" x2="745.5" y1="585.9863" y2="585.9863"/><line style="stroke:#181818;stroke-width:1.0;stroke-dasharray:2.0,2.0;" x1="745.5" x2="745.5" y1="585.9863" y2="598.9863"/><line style="stroke:#181818;stroke-width:1.0;stroke-dasharray:2.0,2.0;" x1="698.5" x2="745.5" y1="598.9863" y2="598.9863"/><polygon fill="#181818" points="708.5,594.9863,698.5,598.9863,708.5,602.9863,704.5,598.9863" style="stroke:#181818;stroke-width:1.0;"/><text fill="#000000" font-family="sans-serif" font-size="13" font-weight="bold" lengthAdjust="spacing" textLength="14" x="710.5" y="580.7236">15</text><text fill="#000000" font-family="sans-serif" font-size="13" lengthAdjust="spacing" textLength="94" x="728.5" y="580.7236">droneRepository</text><polygon fill="#181818" points="1256,621.2773,1266,625.2773,1256,629.2773,1260,625.2773" style="stroke:#181818;stroke-width:1.0;"/><line style="stroke:#181818;stroke-width:1.0;" x1="698.5" x2="1262" y1="625.2773" y2="625.2773"/><text fill="#000000" font-family="sans-serif" font-size="13" font-weight="bold" lengthAdjust="spacing" textLength="14" x="705.5" y="620.0146">16</text><text fill="#000000" font-family="sans-serif" font-size="13" lengthAdjust="spacing" textLength="245" x="723.5" y="620.0146">removeDrone(serialNumber, removReason)</text><polygon fill="#181818" points="1469.5,652.5684,1479.5,656.5684,1469.5,660.5684,1473.5,656.5684" style="stroke:#181818;stroke-width:1.0;"/><line style="stroke:#181818;stroke-width:1.0;" x1="1278" x2="1475.5" y1="656.5684" y2="656.5684"/><text fill="#000000" font-family="sans-serif" font-size="13" font-weight="bold" lengthAdjust="spacing" textLength="14" x="1285" y="651.3057">17</text><text fill="#000000" font-family="sans-serif" font-size="13" lengthAdjust="spacing" textLength="125" x="1303" y="651.3057">remove(serialNumber)</text><rect fill="#E2E2F0" height="51.2422" rx="2.5" ry="2.5" style="stroke:#181818;stroke-width:0.5;" width="57" x="1481.5" y="633.2773"/><text fill="#000000" font-family="sans-serif" font-size="14" lengthAdjust="spacing" textLength="37" x="1491.5" y="655.3848">drone</text><text fill="#000000" font-family="sans-serif" font-size="14" lengthAdjust="spacing" textLength="43" x="1488.5" y="674.0059">:Drone</text><line style="stroke:#181818;stroke-width:1.0;" x1="1278" x2="1325" y1="713.8105" y2="713.8105"/><line style="stroke:#181818;stroke-width:1.0;" x1="1325" x2="1325" y1="713.8105" y2="726.8105"/><line style="stroke:#181818;stroke-width:1.0;" x1="1284" x2="1325" y1="726.8105" y2="726.8105"/><polygon fill="#181818" points="1294,722.8105,1284,726.8105,1294,730.8105,1290,726.8105" style="stroke:#181818;stroke-width:1.0;"/><text fill="#000000" font-family="sans-serif" font-size="13" font-weight="bold" lengthAdjust="spacing" textLength="14" x="1290" y="708.5479">18</text><text fill="#000000" font-family="sans-serif" font-size="13" lengthAdjust="spacing" textLength="176" x="1308" y="708.5479">validateRemoval(serialNumber)</text><line style="stroke:#181818;stroke-width:1.0;stroke-dasharray:2.0,2.0;" x1="1283" x2="1325" y1="768.1016" y2="768.1016"/><line style="stroke:#181818;stroke-width:1.0;stroke-dasharray:2.0,2.0;" x1="1325" x2="1325" y1="768.1016" y2="781.1016"/><line style="stroke:#181818;stroke-width:1.0;stroke-dasharray:2.0,2.0;" x1="1278" x2="1325" y1="781.1016" y2="781.1016"/><polygon fill="#181818" points="1288,777.1016,1278,781.1016,1288,785.1016,1284,781.1016" style="stroke:#181818;stroke-width:1.0;"/><text fill="#000000" font-family="sans-serif" font-size="13" font-weight="bold" lengthAdjust="spacing" textLength="14" x="1290" y="762.8389">19</text><text fill="#000000" font-family="sans-serif" font-size="13" lengthAdjust="spacing" textLength="22" x="1308" y="762.8389">true</text><line style="stroke:#181818;stroke-width:1.0;" x1="1278" x2="1320" y1="824.6836" y2="824.6836"/><line style="stroke:#181818;stroke-width:1.0;" x1="1320" x2="1320" y1="824.6836" y2="837.6836"/><line style="stroke:#181818;stroke-width:1.0;" x1="1279" x2="1320" y1="837.6836" y2="837.6836"/><polygon fill="#181818" points="1289,833.6836,1279,837.6836,1289,841.6836,1285,837.6836" style="stroke:#181818;stroke-width:1.0;"/><text fill="#000000" font-family="sans-serif" font-size="13" font-weight="bold" lengthAdjust="spacing" textLength="14" x="1285" y="810.7754">20</text><text fill="#000000" font-family="sans-serif" font-size="13" lengthAdjust="spacing" textLength="191" x="1303" y="802.1299">addDrnRemovData(serialNumber,</text><text fill="#000000" font-family="sans-serif" font-size="13" lengthAdjust="spacing" textLength="82" x="1303" y="819.4209">removReason)</text><line style="stroke:#181818;stroke-width:1.0;" x1="1278" x2="1320" y1="868.9746" y2="868.9746"/><line style="stroke:#181818;stroke-width:1.0;" x1="1320" x2="1320" y1="868.9746" y2="881.9746"/><line style="stroke:#181818;stroke-width:1.0;" x1="1279" x2="1320" y1="881.9746" y2="881.9746"/><polygon fill="#181818" points="1289,877.9746,1279,881.9746,1289,885.9746,1285,881.9746" style="stroke:#181818;stroke-width:1.0;"/><text fill="#000000" font-family="sans-serif" font-size="13" font-weight="bold" lengthAdjust="spacing" textLength="14" x="1285" y="863.7119">21</text><text fill="#000000" font-family="sans-serif" font-size="13" lengthAdjust="spacing" textLength="170" x="1303" y="863.7119">changeDrnStat(serialNumber)</text><polygon fill="#181818" points="709.5,909.2656,699.5,913.2656,709.5,917.2656,705.5,913.2656" style="stroke:#181818;stroke-width:1.0;"/><line style="stroke:#181818;stroke-width:1.0;stroke-dasharray:2.0,2.0;" x1="703.5" x2="1272" y1="913.2656" y2="913.2656"/><text fill="#000000" font-family="sans-serif" font-size="13" font-weight="bold" lengthAdjust="spacing" textLength="14" x="715.5" y="908.0029">22</text><text fill="#000000" font-family="sans-serif" font-size="13" lengthAdjust="spacing" textLength="22" x="733.5" y="908.0029">true</text><polygon fill="#181818" points="424.5,940.5566,414.5,944.5566,424.5,948.5566,420.5,944.5566" style="stroke:#181818;stroke-width:1.0;"/><line style="stroke:#181818;stroke-width:1.0;stroke-dasharray:2.0,2.0;" x1="418.5" x2="692.5" y1="944.5566" y2="944.5566"/><text fill="#000000" font-family="sans-serif" font-size="13" font-weight="bold" lengthAdjust="spacing" textLength="14" x="430.5" y="939.2939">23</text><text fill="#000000" font-family="sans-serif" font-size="13" lengthAdjust="spacing" textLength="22" x="448.5" y="939.2939">true</text><polygon fill="#181818" points="54.5,971.8477,44.5,975.8477,54.5,979.8477,50.5,975.8477" style="stroke:#181818;stroke-width:1.0;"/><line style="stroke:#181818;stroke-width:1.0;stroke-dasharray:2.0,2.0;" x1="48.5" x2="407.5" y1="975.8477" y2="975.8477"/><text fill="#000000" font-family="sans-serif" font-size="13" font-weight="bold" lengthAdjust="spacing" textLength="14" x="60.5" y="970.585">24</text><text fill="#000000" font-family="sans-serif" font-size="13" lengthAdjust="spacing" textLength="158" x="78.5" y="970.585">displays success message</text><!--SRC=[dLPDR-8m4BtdLrXSjbJB7-3GIyEkaAg0GdghLBdE01Q9dRKDA_xzJiQGxm3T720ARzvx7ZzF-64FKXNSy9pbMccnDpg78AYV5bmS-0usxfm1Co0SLxiC6W2xvwd-AzMERNbciPOVdLR7_0iCtWkd3Pk4HYj8GEmdZ5iM9W6MEYbamPLZataCkJu1WRBt9M7Ub-EOLwsSqLa6Xg2lIVpM0Q_1M6aTA044MI_YJO-lq5QYk_ClCdacOBnOhxf8qqL-gFcjyi_DClhzjaXMKPieBRtNTSWIjf_uviJHPqapK7kjkE1MqO8QB4_SGTdK84pOx0LRn-QuKt-EO9rbJkDzsJh66R4mgPZRbrydKALipO5DPtWXmGnva6sEIWVBjhY7ljQ2aJnZVdiPLobH6U1MAuAH5i-89uKkSyEWFNxb4lsbt77wRSG5WGy0HOZ09wyVaVnFBnQJ-7JSkT1gAqtEdTJglgyB-ewn5qeTzRcAvJrp5Gy5bbqkugduTk0weNYQLj3R16N6qH0ozB9POMzT5JiTbaSgI77MxCN_w3PsewLyNHUTAR-mfR8uVWGCzSIVt2QnBnpo9y460_AUOjX0VQYzbGTsgJiCUjuQd0sNdJ4nQdI0sJiUfnhYQcMfkUph8FfUo7jTgEPPzND5J28unPwVAuqM_NGmF-roVpzdE7CadbY8_VnvWAVlS2oXjMAxBSuS8RWJwHxvaFroMgLfQ1Iv7nXq7sgmqIDSOe_lQDmkjN7SVQkZTNHeRS6j1VLJH_EpBko6B6XEvrJQ8kDdY-y18S1QbkC7_iy8siEvAPm4_m00]--></g></svg>