<?xml version="1.0" encoding="UTF-8" standalone="no"?><svg xmlns="http://www.w3.org/2000/svg" xmlns:xlink="http://www.w3.org/1999/xlink" contentStyleType="text/css" height="1523px" preserveAspectRatio="none" style="width:2172px;height:1523px;background:#FFFFFF;" version="1.1" viewBox="0 0 2172 1523" width="2172px" zoomAndPan="magnify"><defs/><g><!--cluster Persistence --><g id="cluster_Persistence "><path d="M912.5,406.0487 L1038.5,406.0487 A3.75,3.75 0 0 1 1041,408.5487 L1048,435.6034 L1365.5,435.6034 A2.5,2.5 0 0 1 1368,438.1034 L1368,535.1088 A2.5,2.5 0 0 1 1365.5,537.6088 L912.5,537.6088 A2.5,2.5 0 0 1 910,535.1088 L910,408.5487 A2.5,2.5 0 0 1 912.5,406.0487 " fill="#DDDDDD" style="stroke:#000000;stroke-width:1.5;"/><line style="stroke:#000000;stroke-width:1.5;" x1="910" x2="1048" y1="435.6034" y2="435.6034"/><text fill="#000000" font-family="sans-serif" font-size="20" font-weight="bold" lengthAdjust="spacing" textLength="118" x="914" y="427.3847">Persistence</text></g><!--cluster persistence.impl.jpa--><g id="cluster_persistence.impl.jpa"><path d="M1359.5,594.6088 L1567.5,594.6088 A3.75,3.75 0 0 1 1570,597.1088 L1577,624.1634 L1829.5,624.1634 A2.5,2.5 0 0 1 1832,626.6634 L1832,947.9888 A2.5,2.5 0 0 1 1829.5,950.4888 L1359.5,950.4888 A2.5,2.5 0 0 1 1357,947.9888 L1357,597.1088 A2.5,2.5 0 0 1 1359.5,594.6088 " fill="#DDDDDD" style="stroke:#000000;stroke-width:1.5;"/><line style="stroke:#000000;stroke-width:1.5;" x1="1357" x2="1577" y1="624.1634" y2="624.1634"/><text fill="#000000" font-family="sans-serif" font-size="20" font-weight="bold" lengthAdjust="spacing" textLength="207" x="1361" y="615.9447">persistence.impl.jpa</text></g><!--cluster persistence.impl.inmemory--><g id="cluster_persistence.impl.inmemory"><path d="M8.5,594.6088 L288.5,594.6088 A3.75,3.75 0 0 1 291,597.1088 L298,624.1634 L478.5,624.1634 A2.5,2.5 0 0 1 481,626.6634 L481,947.9888 A2.5,2.5 0 0 1 478.5,950.4888 L8.5,950.4888 A2.5,2.5 0 0 1 6,947.9888 L6,597.1088 A2.5,2.5 0 0 1 8.5,594.6088 " fill="#DDDDDD" style="stroke:#000000;stroke-width:1.5;"/><line style="stroke:#000000;stroke-width:1.5;" x1="6" x2="298" y1="624.1634" y2="624.1634"/><text fill="#000000" font-family="sans-serif" font-size="20" font-weight="bold" lengthAdjust="spacing" textLength="279" x="10" y="615.9447">persistence.impl.inmemory</text></g><!--cluster Domain--><g id="cluster_Domain"><path d="M507.5,780.7188 L588.5,780.7188 A3.75,3.75 0 0 1 591,783.2188 L598,810.2734 L1330.5,810.2734 A2.5,2.5 0 0 1 1333,812.7734 L1333,1513.9888 A2.5,2.5 0 0 1 1330.5,1516.4888 L507.5,1516.4888 A2.5,2.5 0 0 1 505,1513.9888 L505,783.2188 A2.5,2.5 0 0 1 507.5,780.7188 " fill="#DDDDDD" style="stroke:#000000;stroke-width:1.5;"/><line style="stroke:#000000;stroke-width:1.5;" x1="505" x2="598" y1="810.2734" y2="810.2734"/><text fill="#000000" font-family="sans-serif" font-size="20" font-weight="bold" lengthAdjust="spacing" textLength="80" x="509" y="802.0547">Domain</text></g><!--cluster Repository --><g id="cluster_Repository "><path d="M737.5,830.7188 L857.5,830.7188 A3.75,3.75 0 0 1 860,833.2188 L867,860.2734 L1220.5,860.2734 A2.5,2.5 0 0 1 1223,862.7734 L1223,1094.3288 A2.5,2.5 0 0 1 1220.5,1096.8288 L737.5,1096.8288 A2.5,2.5 0 0 1 735,1094.3288 L735,833.2188 A2.5,2.5 0 0 1 737.5,830.7188 " fill="#DDDDDD" style="stroke:#000000;stroke-width:1.5;"/><line style="stroke:#000000;stroke-width:1.5;" x1="735" x2="867" y1="860.2734" y2="860.2734"/><text fill="#000000" font-family="sans-serif" font-size="20" font-weight="bold" lengthAdjust="spacing" textLength="112" x="739" y="852.0547">Repository</text></g><!--cluster UI--><g id="cluster_UI"><path d="M973.5,6.7188 L996.5,6.7188 A3.75,3.75 0 0 1 999,9.2188 L1006,36.2734 L1304.5,36.2734 A2.5,2.5 0 0 1 1307,38.7734 L1307,158.8888 A2.5,2.5 0 0 1 1304.5,161.3888 L973.5,161.3888 A2.5,2.5 0 0 1 971,158.8888 L971,9.2188 A2.5,2.5 0 0 1 973.5,6.7188 " fill="#DDDDDD" style="stroke:#000000;stroke-width:1.5;"/><line style="stroke:#000000;stroke-width:1.5;" x1="971" x2="1006" y1="36.2734" y2="36.2734"/><text fill="#000000" font-family="sans-serif" font-size="20" font-weight="bold" lengthAdjust="spacing" textLength="22" x="975" y="28.0547">UI</text></g><!--cluster Controller--><g id="cluster_Controller"><path d="M967.5,194.3888 L1073.5,194.3888 A3.75,3.75 0 0 1 1076,196.8888 L1083,223.9434 L1310.5,223.9434 A2.5,2.5 0 0 1 1313,226.4434 L1313,346.5487 A2.5,2.5 0 0 1 1310.5,349.0487 L967.5,349.0487 A2.5,2.5 0 0 1 965,346.5487 L965,196.8888 A2.5,2.5 0 0 1 967.5,194.3888 " fill="#DDDDDD" style="stroke:#000000;stroke-width:1.5;"/><line style="stroke:#000000;stroke-width:1.5;" x1="965" x2="1083" y1="223.9434" y2="223.9434"/><text fill="#000000" font-family="sans-serif" font-size="20" font-weight="bold" lengthAdjust="spacing" textLength="105" x="969" y="215.7247">Controller</text></g><!--class PersistenceContext--><g id="elem_PersistenceContext"><rect codeLine="4" fill="#F1F1F1" height="73.5547" id="PersistenceContext" rx="2.5" ry="2.5" style="stroke:#181818;stroke-width:0.5;" width="425" x="926.5" y="448.0487"/><ellipse cx="1043.5" cy="465.0487" fill="#ADD1B2" rx="12" ry="12" style="stroke:#181818;stroke-width:1.0;"/><path d="M1046.3066,472.1288 Q1045.623,472.4804 1044.8711,472.6562 Q1044.1191,472.832 1043.2891,472.832 Q1040.3398,472.832 1038.7871,470.8886 Q1037.2344,468.9452 1037.2344,465.2734 Q1037.2344,461.5917 1038.7871,459.6484 Q1040.3398,457.705 1043.2891,457.705 Q1044.1191,457.705 1044.8809,457.8808 Q1045.6426,458.0566 1046.3066,458.4081 L1046.3066,461.6112 Q1045.5645,460.9277 1044.8662,460.6103 Q1044.168,460.2929 1043.4258,460.2929 Q1041.8438,460.2929 1041.0381,461.5478 Q1040.2324,462.8027 1040.2324,465.2734 Q1040.2324,467.7343 1041.0381,468.9892 Q1041.8438,470.2441 1043.4258,470.2441 Q1044.168,470.2441 1044.8662,469.9267 Q1045.5645,469.6093 1046.3066,468.9257 Z " fill="#000000"/><text fill="#000000" font-family="sans-serif" font-size="20" lengthAdjust="spacing" textLength="182" x="1065.5" y="472.6073">PersistenceContext</text><line style="stroke:#181818;stroke-width:0.5;" x1="927.5" x2="1350.5" y1="482.0487" y2="482.0487"/><line style="stroke:#181818;stroke-width:0.5;" x1="927.5" x2="1350.5" y1="490.0487" y2="490.0487"/><ellipse cx="937.5" cy="507.3261" fill="#84BE84" rx="3" ry="3" style="stroke:#038048;stroke-width:1.0;"/><text fill="#000000" font-family="sans-serif" font-size="20" lengthAdjust="spacing" textLength="398" x="947.5" y="513.3847">getRepositoryFactory(): RepositoryFactory</text></g><!--class JpaRepositoryFactory--><g id="elem_JpaRepositoryFactory"><rect codeLine="10" fill="#F1F1F1" height="97.1094" id="JpaRepositoryFactory" rx="2.5" ry="2.5" style="stroke:#181818;stroke-width:0.5;" width="333" x="1373.5" y="636.6088"/><ellipse cx="1435" cy="653.6088" fill="#ADD1B2" rx="12" ry="12" style="stroke:#181818;stroke-width:1.0;"/><path d="M1437.8066,660.6888 Q1437.123,661.0404 1436.3711,661.2162 Q1435.6191,661.392 1434.7891,661.392 Q1431.8398,661.392 1430.2871,659.4486 Q1428.7344,657.5052 1428.7344,653.8334 Q1428.7344,650.1517 1430.2871,648.2084 Q1431.8398,646.265 1434.7891,646.265 Q1435.6191,646.265 1436.3809,646.4408 Q1437.1426,646.6166 1437.8066,646.9681 L1437.8066,650.1713 Q1437.0645,649.4877 1436.3662,649.1703 Q1435.668,648.8529 1434.9258,648.8529 Q1433.3438,648.8529 1432.5381,650.1078 Q1431.7324,651.3627 1431.7324,653.8334 Q1431.7324,656.2943 1432.5381,657.5492 Q1433.3438,658.8041 1434.9258,658.8041 Q1435.668,658.8041 1436.3662,658.4867 Q1437.0645,658.1693 1437.8066,657.4857 Z " fill="#000000"/><text fill="#000000" font-family="sans-serif" font-size="20" lengthAdjust="spacing" textLength="201" x="1457" y="661.1673">JpaRepositoryFactory</text><line style="stroke:#181818;stroke-width:0.5;" x1="1374.5" x2="1705.5" y1="670.6088" y2="670.6088"/><line style="stroke:#181818;stroke-width:0.5;" x1="1374.5" x2="1705.5" y1="678.6088" y2="678.6088"/><rect fill="#F24D5C" height="6" style="stroke:#C82930;stroke-width:1.0;" width="6" x="1381.5" y="692.8861"/><text fill="#000000" font-family="sans-serif" font-size="20" lengthAdjust="spacing" textLength="215" x="1394.5" y="701.9447">JpaRepositoryFactory()</text><ellipse cx="1384.5" cy="719.4408" fill="#84BE84" rx="3" ry="3" style="stroke:#038048;stroke-width:1.0;"/><text fill="#000000" font-family="sans-serif" font-size="20" lengthAdjust="spacing" textLength="306" x="1394.5" y="725.4994">getInstance(): RepositoryFactory</text></g><!--class JpaCategoryRepository--><g id="elem_JpaCategoryRepository"><rect codeLine="15" fill="#F1F1F1" height="50" id="JpaCategoryRepository" rx="2.5" ry="2.5" style="stroke:#181818;stroke-width:0.5;" width="251" x="1393.5" y="884.4888"/><ellipse cx="1409.5" cy="901.4888" fill="#ADD1B2" rx="12" ry="12" style="stroke:#181818;stroke-width:1.0;"/><path d="M1412.3066,908.5688 Q1411.623,908.9204 1410.8711,909.0962 Q1410.1191,909.272 1409.2891,909.272 Q1406.3398,909.272 1404.7871,907.3286 Q1403.2344,905.3852 1403.2344,901.7134 Q1403.2344,898.0317 1404.7871,896.0884 Q1406.3398,894.145 1409.2891,894.145 Q1410.1191,894.145 1410.8809,894.3208 Q1411.6426,894.4966 1412.3066,894.8481 L1412.3066,898.0513 Q1411.5645,897.3677 1410.8662,897.0503 Q1410.168,896.7329 1409.4258,896.7329 Q1407.8438,896.7329 1407.0381,897.9878 Q1406.2324,899.2427 1406.2324,901.7134 Q1406.2324,904.1743 1407.0381,905.4292 Q1407.8438,906.6841 1409.4258,906.6841 Q1410.168,906.6841 1410.8662,906.3667 Q1411.5645,906.0493 1412.3066,905.3657 Z " fill="#000000"/><text fill="#000000" font-family="sans-serif" font-size="20" lengthAdjust="spacing" textLength="217" x="1424.5" y="909.0473">JpaCategoryRepository</text><line style="stroke:#181818;stroke-width:0.5;" x1="1394.5" x2="1643.5" y1="918.4888" y2="918.4888"/><line style="stroke:#181818;stroke-width:0.5;" x1="1394.5" x2="1643.5" y1="926.4888" y2="926.4888"/></g><!--class InMemoryRepositoryFactory--><g id="elem_InMemoryRepositoryFactory"><rect codeLine="21" fill="#F1F1F1" height="97.1094" id="InMemoryRepositoryFactory" rx="2.5" ry="2.5" style="stroke:#181818;stroke-width:0.5;" width="333" x="22.5" y="636.6088"/><ellipse cx="53.35" cy="653.6088" fill="#ADD1B2" rx="12" ry="12" style="stroke:#181818;stroke-width:1.0;"/><path d="M56.1566,660.6888 Q55.473,661.0404 54.7211,661.2162 Q53.9691,661.392 53.1391,661.392 Q50.1898,661.392 48.6371,659.4486 Q47.0844,657.5052 47.0844,653.8334 Q47.0844,650.1517 48.6371,648.2084 Q50.1898,646.265 53.1391,646.265 Q53.9691,646.265 54.7309,646.4408 Q55.4926,646.6166 56.1566,646.9681 L56.1566,650.1713 Q55.4145,649.4877 54.7162,649.1703 Q54.018,648.8529 53.2758,648.8529 Q51.6938,648.8529 50.8881,650.1078 Q50.0824,651.3627 50.0824,653.8334 Q50.0824,656.2943 50.8881,657.5492 Q51.6938,658.8041 53.2758,658.8041 Q54.018,658.8041 54.7162,658.4867 Q55.4145,658.1693 56.1566,657.4857 Z " fill="#000000"/><text fill="#000000" font-family="sans-serif" font-size="20" lengthAdjust="spacing" textLength="266" x="71.65" y="661.1673">InMemoryRepositoryFactory</text><line style="stroke:#181818;stroke-width:0.5;" x1="23.5" x2="354.5" y1="670.6088" y2="670.6088"/><line style="stroke:#181818;stroke-width:0.5;" x1="23.5" x2="354.5" y1="678.6088" y2="678.6088"/><rect fill="#F24D5C" height="6" style="stroke:#C82930;stroke-width:1.0;" width="6" x="30.5" y="692.8861"/><text fill="#000000" font-family="sans-serif" font-size="20" lengthAdjust="spacing" textLength="280" x="43.5" y="701.9447">InMemoryRepositoryFactory()</text><ellipse cx="33.5" cy="719.4408" fill="#84BE84" rx="3" ry="3" style="stroke:#038048;stroke-width:1.0;"/><text fill="#000000" font-family="sans-serif" font-size="20" lengthAdjust="spacing" textLength="306" x="43.5" y="725.4994">getInstance(): RepositoryFactory</text></g><!--class InMemoryCategoryRepository--><g id="elem_InMemoryCategoryRepository"><rect codeLine="26" fill="#F1F1F1" height="50" id="InMemoryCategoryRepository" rx="2.5" ry="2.5" style="stroke:#181818;stroke-width:0.5;" width="316" x="119" y="884.4888"/><ellipse cx="135" cy="901.4888" fill="#ADD1B2" rx="12" ry="12" style="stroke:#181818;stroke-width:1.0;"/><path d="M137.8066,908.5688 Q137.123,908.9204 136.3711,909.0962 Q135.6191,909.272 134.7891,909.272 Q131.8398,909.272 130.2871,907.3286 Q128.7344,905.3852 128.7344,901.7134 Q128.7344,898.0317 130.2871,896.0884 Q131.8398,894.145 134.7891,894.145 Q135.6191,894.145 136.3809,894.3208 Q137.1426,894.4966 137.8066,894.8481 L137.8066,898.0513 Q137.0645,897.3677 136.3662,897.0503 Q135.668,896.7329 134.9258,896.7329 Q133.3438,896.7329 132.5381,897.9878 Q131.7324,899.2427 131.7324,901.7134 Q131.7324,904.1743 132.5381,905.4292 Q133.3438,906.6841 134.9258,906.6841 Q135.668,906.6841 136.3662,906.3667 Q137.0645,906.0493 137.8066,905.3657 Z " fill="#000000"/><text fill="#000000" font-family="sans-serif" font-size="20" lengthAdjust="spacing" textLength="282" x="150" y="909.0473">InMemoryCategoryRepository</text><line style="stroke:#181818;stroke-width:0.5;" x1="120" x2="434" y1="918.4888" y2="918.4888"/><line style="stroke:#181818;stroke-width:0.5;" x1="120" x2="434" y1="926.4888" y2="926.4888"/></g><!--class Category--><g id="elem_Category"><rect codeLine="45" fill="#F1F1F1" height="96.6641" id="Category" rx="2.5" ry="2.5" style="stroke:#181818;stroke-width:0.5;" width="305" x="804.5" y="1205.8288"/><ellipse cx="910" cy="1234.3834" fill="#ADD1B2" rx="12" ry="12" style="stroke:#181818;stroke-width:1.0;"/><path d="M912.8066,1241.4635 Q912.123,1241.8151 911.3711,1241.9909 Q910.6191,1242.1666 909.7891,1242.1666 Q906.8398,1242.1666 905.2871,1240.2233 Q903.7344,1238.2799 903.7344,1234.608 Q903.7344,1230.9264 905.2871,1228.983 Q906.8398,1227.0397 909.7891,1227.0397 Q910.6191,1227.0397 911.3809,1227.2155 Q912.1426,1227.3913 912.8066,1227.7428 L912.8066,1230.9459 Q912.0645,1230.2623 911.3662,1229.945 Q910.668,1229.6276 909.9258,1229.6276 Q908.3438,1229.6276 907.5381,1230.8825 Q906.7324,1232.1373 906.7324,1234.608 Q906.7324,1237.069 907.5381,1238.3239 Q908.3438,1239.5788 909.9258,1239.5788 Q910.668,1239.5788 911.3662,1239.2614 Q912.0645,1238.944 912.8066,1238.2604 Z " fill="#000000"/><text fill="#000000" font-family="sans-serif" font-size="20" font-style="italic" lengthAdjust="spacing" textLength="73" x="938" y="1230.1647">«Entity»</text><text fill="#000000" font-family="sans-serif" font-size="20" lengthAdjust="spacing" textLength="85" x="932" y="1253.7194">Category</text><line style="stroke:#181818;stroke-width:0.5;" x1="805.5" x2="1108.5" y1="1262.9381" y2="1262.9381"/><line style="stroke:#181818;stroke-width:0.5;" x1="805.5" x2="1108.5" y1="1270.9381" y2="1270.9381"/><ellipse cx="815.5" cy="1288.2155" fill="#84BE84" rx="3" ry="3" style="stroke:#038048;stroke-width:1.0;"/><text fill="#000000" font-family="sans-serif" font-size="20" lengthAdjust="spacing" textLength="278" x="825.5" y="1294.2741">Category (name, description)</text></g><!--class CategoryStatus--><g id="elem_CategoryStatus"><rect codeLine="49" fill="#F1F1F1" height="73.1094" id="CategoryStatus" rx="2.5" ry="2.5" style="stroke:#181818;stroke-width:0.5;" width="177" x="545.5" y="1407.4888"/><ellipse cx="561.5" cy="1436.0434" fill="#EB937F" rx="12" ry="12" style="stroke:#181818;stroke-width:1.0;"/><path d="M566.2227,1443.5434 L557.1406,1443.5434 L557.1406,1428.9634 L566.2227,1428.9634 L566.2227,1431.5024 L560.0215,1431.5024 L560.0215,1434.647 L565.6367,1434.647 L565.6367,1437.186 L560.0215,1437.186 L560.0215,1441.0044 L566.2227,1441.0044 Z " fill="#000000"/><text fill="#000000" font-family="sans-serif" font-size="20" font-style="italic" lengthAdjust="spacing" textLength="142" x="577" y="1431.8247">«Value Object»</text><text fill="#000000" font-family="sans-serif" font-size="20" lengthAdjust="spacing" textLength="143" x="576.5" y="1455.3794">CategoryStatus</text><line style="stroke:#181818;stroke-width:0.5;" x1="546.5" x2="721.5" y1="1464.5981" y2="1464.5981"/><line style="stroke:#181818;stroke-width:0.5;" x1="546.5" x2="721.5" y1="1472.5981" y2="1472.5981"/></g><!--class CategoryName--><g id="elem_CategoryName"><rect codeLine="52" fill="#F1F1F1" height="73.1094" id="CategoryName" rx="2.5" ry="2.5" style="stroke:#181818;stroke-width:0.5;" width="175" x="805.5" y="1407.4888"/><ellipse cx="821.5" cy="1436.0434" fill="#ADD1B2" rx="12" ry="12" style="stroke:#181818;stroke-width:1.0;"/><path d="M824.3066,1443.1235 Q823.623,1443.4751 822.8711,1443.6509 Q822.1191,1443.8266 821.2891,1443.8266 Q818.3398,1443.8266 816.7871,1441.8833 Q815.2344,1439.9399 815.2344,1436.268 Q815.2344,1432.5864 816.7871,1430.643 Q818.3398,1428.6997 821.2891,1428.6997 Q822.1191,1428.6997 822.8809,1428.8755 Q823.6426,1429.0513 824.3066,1429.4028 L824.3066,1432.6059 Q823.5645,1431.9223 822.8662,1431.605 Q822.168,1431.2876 821.4258,1431.2876 Q819.8438,1431.2876 819.0381,1432.5425 Q818.2324,1433.7973 818.2324,1436.268 Q818.2324,1438.729 819.0381,1439.9839 Q819.8438,1441.2388 821.4258,1441.2388 Q822.168,1441.2388 822.8662,1440.9214 Q823.5645,1440.604 824.3066,1439.9204 Z " fill="#000000"/><text fill="#000000" font-family="sans-serif" font-size="20" font-style="italic" lengthAdjust="spacing" textLength="142" x="836" y="1431.8247">«Value Object»</text><text fill="#000000" font-family="sans-serif" font-size="20" lengthAdjust="spacing" textLength="141" x="836.5" y="1455.3794">CategoryName</text><line style="stroke:#181818;stroke-width:0.5;" x1="806.5" x2="979.5" y1="1464.5981" y2="1464.5981"/><line style="stroke:#181818;stroke-width:0.5;" x1="806.5" x2="979.5" y1="1472.5981" y2="1472.5981"/></g><!--class CategoryDescription--><g id="elem_CategoryDescription"><rect codeLine="55" fill="#F1F1F1" height="73.1094" id="CategoryDescription" rx="2.5" ry="2.5" style="stroke:#181818;stroke-width:0.5;" width="229" x="1063.5" y="1407.4888"/><ellipse cx="1079.5" cy="1436.0434" fill="#ADD1B2" rx="12" ry="12" style="stroke:#181818;stroke-width:1.0;"/><path d="M1082.3066,1443.1235 Q1081.623,1443.4751 1080.8711,1443.6509 Q1080.1191,1443.8266 1079.2891,1443.8266 Q1076.3398,1443.8266 1074.7871,1441.8833 Q1073.2344,1439.9399 1073.2344,1436.268 Q1073.2344,1432.5864 1074.7871,1430.643 Q1076.3398,1428.6997 1079.2891,1428.6997 Q1080.1191,1428.6997 1080.8809,1428.8755 Q1081.6426,1429.0513 1082.3066,1429.4028 L1082.3066,1432.6059 Q1081.5645,1431.9223 1080.8662,1431.605 Q1080.168,1431.2876 1079.4258,1431.2876 Q1077.8438,1431.2876 1077.0381,1432.5425 Q1076.2324,1433.7973 1076.2324,1436.268 Q1076.2324,1438.729 1077.0381,1439.9839 Q1077.8438,1441.2388 1079.4258,1441.2388 Q1080.168,1441.2388 1080.8662,1440.9214 Q1081.5645,1440.604 1082.3066,1439.9204 Z " fill="#000000"/><text fill="#000000" font-family="sans-serif" font-size="20" font-style="italic" lengthAdjust="spacing" textLength="142" x="1121" y="1431.8247">«Value Object»</text><text fill="#000000" font-family="sans-serif" font-size="20" lengthAdjust="spacing" textLength="195" x="1094.5" y="1455.3794">CategoryDescription</text><line style="stroke:#181818;stroke-width:0.5;" x1="1064.5" x2="1291.5" y1="1464.5981" y2="1464.5981"/><line style="stroke:#181818;stroke-width:0.5;" x1="1064.5" x2="1291.5" y1="1472.5981" y2="1472.5981"/></g><!--class RepositoryFactory--><g id="elem_RepositoryFactory"><rect codeLine="34" fill="#F1F1F1" height="73.5547" id="RepositoryFactory" rx="2.5" ry="2.5" style="stroke:#181818;stroke-width:0.5;" width="457" x="750.5" y="872.7188"/><ellipse cx="889" cy="889.7188" fill="#B4A7E5" rx="12" ry="12" style="stroke:#181818;stroke-width:1.0;"/><path d="M884.6797,885.1777 L884.6797,882.6387 L893.3613,882.6387 L893.3613,885.1777 L890.4609,885.1777 L890.4609,894.6797 L893.3613,894.6797 L893.3613,897.2188 L884.6797,897.2188 L884.6797,894.6797 L887.5801,894.6797 L887.5801,885.1777 Z " fill="#000000"/><text fill="#000000" font-family="sans-serif" font-size="20" font-style="italic" lengthAdjust="spacing" textLength="171" x="911" y="897.2773">RepositoryFactory</text><line style="stroke:#181818;stroke-width:0.5;" x1="751.5" x2="1206.5" y1="906.7188" y2="906.7188"/><line style="stroke:#181818;stroke-width:0.5;" x1="751.5" x2="1206.5" y1="914.7188" y2="914.7188"/><ellipse cx="761.5" cy="931.9961" fill="#84BE84" rx="3" ry="3" style="stroke:#038048;stroke-width:1.0;"/><text fill="#000000" font-family="sans-serif" font-size="20" lengthAdjust="spacing" textLength="430" x="771.5" y="938.0547">getCategoryRepository(): CategoryRepository</text></g><!--class CategoryRepository--><g id="elem_CategoryRepository"><rect codeLine="38" fill="#F1F1F1" height="73.5547" id="CategoryRepository" rx="2.5" ry="2.5" style="stroke:#181818;stroke-width:0.5;" width="304" x="827" y="1007.2688"/><ellipse cx="881" cy="1024.2688" fill="#B4A7E5" rx="12" ry="12" style="stroke:#181818;stroke-width:1.0;"/><path d="M876.6797,1019.7277 L876.6797,1017.1887 L885.3613,1017.1887 L885.3613,1019.7277 L882.4609,1019.7277 L882.4609,1029.2297 L885.3613,1029.2297 L885.3613,1031.7688 L876.6797,1031.7688 L876.6797,1029.2297 L879.5801,1029.2297 L879.5801,1019.7277 Z " fill="#000000"/><text fill="#000000" font-family="sans-serif" font-size="20" font-style="italic" lengthAdjust="spacing" textLength="187" x="903" y="1031.8273">CategoryRepository</text><line style="stroke:#181818;stroke-width:0.5;" x1="828" x2="1130" y1="1041.2688" y2="1041.2688"/><line style="stroke:#181818;stroke-width:0.5;" x1="828" x2="1130" y1="1049.2688" y2="1049.2688"/><ellipse cx="838" cy="1066.5461" fill="#84BE84" rx="3" ry="3" style="stroke:#038048;stroke-width:1.0;"/><text fill="#000000" font-family="sans-serif" font-size="20" lengthAdjust="spacing" textLength="277" x="848" y="1072.6047">addFigureCategory(category)</text></g><!--class AddFigureCategoryUI--><g id="elem_AddFigureCategoryUI"><rect codeLine="60" fill="#F1F1F1" height="96.6641" id="AddFigureCategoryUI" rx="2.5" ry="2.5" style="stroke:#181818;stroke-width:0.5;" width="304" x="987" y="48.7188"/><ellipse cx="1032.25" cy="77.2734" fill="#ADD1B2" rx="12" ry="12" style="stroke:#181818;stroke-width:1.0;"/><path d="M1035.0566,84.3535 Q1034.373,84.7051 1033.6211,84.8809 Q1032.8691,85.0566 1032.0391,85.0566 Q1029.0898,85.0566 1027.5371,83.1133 Q1025.9844,81.1699 1025.9844,77.498 Q1025.9844,73.8164 1027.5371,71.873 Q1029.0898,69.9297 1032.0391,69.9297 Q1032.8691,69.9297 1033.6309,70.1055 Q1034.3926,70.2813 1035.0566,70.6328 L1035.0566,73.8359 Q1034.3145,73.1523 1033.6162,72.835 Q1032.918,72.5176 1032.1758,72.5176 Q1030.5938,72.5176 1029.7881,73.7725 Q1028.9824,75.0273 1028.9824,77.498 Q1028.9824,79.959 1029.7881,81.2139 Q1030.5938,82.4688 1032.1758,82.4688 Q1032.918,82.4688 1033.6162,82.1514 Q1034.3145,81.834 1035.0566,81.1504 Z " fill="#000000"/><text fill="#000000" font-family="sans-serif" font-size="20" font-style="italic" lengthAdjust="spacing" textLength="40" x="1136.25" y="73.0547">«UI»</text><text fill="#000000" font-family="sans-serif" font-size="20" lengthAdjust="spacing" textLength="205" x="1053.75" y="96.6094">AddFigureCategoryUI</text><line style="stroke:#181818;stroke-width:0.5;" x1="988" x2="1290" y1="105.8281" y2="105.8281"/><line style="stroke:#181818;stroke-width:0.5;" x1="988" x2="1290" y1="113.8281" y2="113.8281"/><ellipse cx="998" cy="131.1055" fill="#84BE84" rx="3" ry="3" style="stroke:#038048;stroke-width:1.0;"/><text fill="#000000" font-family="sans-serif" font-size="20" lengthAdjust="spacing" textLength="277" x="1008" y="137.1641">addFigureCategory(category)</text></g><!--class AddFigureCategoryController--><g id="elem_AddFigureCategoryController"><rect codeLine="66" fill="#F1F1F1" height="96.6641" id="AddFigureCategoryController" rx="2.5" ry="2.5" style="stroke:#181818;stroke-width:0.5;" width="315" x="981.5" y="236.3888"/><ellipse cx="997.5" cy="264.9434" fill="#ADD1B2" rx="12" ry="12" style="stroke:#181818;stroke-width:1.0;"/><path d="M1000.3066,272.0235 Q999.623,272.3751 998.8711,272.5509 Q998.1191,272.7266 997.2891,272.7266 Q994.3398,272.7266 992.7871,270.7833 Q991.2344,268.8399 991.2344,265.168 Q991.2344,261.4864 992.7871,259.543 Q994.3398,257.5997 997.2891,257.5997 Q998.1191,257.5997 998.8809,257.7755 Q999.6426,257.9513 1000.3066,258.3028 L1000.3066,261.5059 Q999.5645,260.8223 998.8662,260.505 Q998.168,260.1876 997.4258,260.1876 Q995.8438,260.1876 995.0381,261.4425 Q994.2324,262.6973 994.2324,265.168 Q994.2324,267.629 995.0381,268.8839 Q995.8438,270.1388 997.4258,270.1388 Q998.168,270.1388 998.8662,269.8214 Q999.5645,269.504 1000.3066,268.8204 Z " fill="#000000"/><text fill="#000000" font-family="sans-serif" font-size="20" font-style="italic" lengthAdjust="spacing" textLength="116" x="1095" y="260.7247">«Controller»</text><text fill="#000000" font-family="sans-serif" font-size="20" lengthAdjust="spacing" textLength="281" x="1012.5" y="284.2794">AddFigureCategoryController</text><line style="stroke:#181818;stroke-width:0.5;" x1="982.5" x2="1295.5" y1="293.4981" y2="293.4981"/><line style="stroke:#181818;stroke-width:0.5;" x1="982.5" x2="1295.5" y1="301.4981" y2="301.4981"/><ellipse cx="992.5" cy="318.7755" fill="#84BE84" rx="3" ry="3" style="stroke:#038048;stroke-width:1.0;"/><text fill="#000000" font-family="sans-serif" font-size="20" lengthAdjust="spacing" textLength="277" x="1002.5" y="324.8341">addFigureCategory(category)</text></g><!--link PersistenceContext to RepositoryFactory--><g id="link_PersistenceContext_RepositoryFactory"><path codeLine="74" d="M1130.91,521.8488 C1126.7,539.1788 1121.16,560.1388 1115,578.6088 C1079.67,684.4888 1026.7,804.7488 998.42,866.6888 " fill="none" id="PersistenceContext-to-RepositoryFactory" style="stroke:#181818;stroke-width:1.0;stroke-dasharray:7.0,7.0;"/><polygon fill="#181818" points="996.39,871.1288,1003.7804,864.6186,998.4762,866.5848,996.51,861.2806,996.39,871.1288" style="stroke:#181818;stroke-width:1.0;"/><text fill="#000000" font-family="sans-serif" font-size="20" lengthAdjust="spacing" textLength="197" x="1112" y="692.9947">categoryRepository()</text></g><!--link PersistenceContext to JpaRepositoryFactory--><g id="link_PersistenceContext_JpaRepositoryFactory"><path codeLine="75" d="M1213.85,521.9788 C1253.23,541.0788 1302.29,564.9788 1346,586.6088 C1376.54,601.7188 1409.69,618.3188 1439.81,633.4688 " fill="none" id="PersistenceContext-to-JpaRepositoryFactory" style="stroke:#181818;stroke-width:1.0;stroke-dasharray:7.0,7.0;"/><polygon fill="#181818" points="1444.04,635.5988,1437.7887,627.9881,1439.5707,633.357,1434.2019,635.139,1444.04,635.5988" style="stroke:#181818;stroke-width:1.0;"/></g><!--link PersistenceContext to InMemoryRepositoryFactory--><g id="link_PersistenceContext_InMemoryRepositoryFactory"><path codeLine="76" d="M1123.71,522.0387 C1113.29,542.0988 1097.46,565.5588 1076,578.6088 C959.66,649.3588 585.56,672.7088 362.07,680.3988 " fill="none" id="PersistenceContext-to-InMemoryRepositoryFactory" style="stroke:#181818;stroke-width:1.0;stroke-dasharray:7.0,7.0;"/><polygon fill="#181818" points="357.34,680.5588,366.4718,684.248,362.3371,680.3874,366.1977,676.2527,357.34,680.5588" style="stroke:#181818;stroke-width:1.0;"/></g><!--link JpaCategoryRepository to CategoryRepository--><g id="link_JpaCategoryRepository_CategoryRepository"><path codeLine="81" d="M1419.33,934.9588 C1343.28,953.6288 1236.77,979.7688 1147.56,1001.6687 " fill="none" id="JpaCategoryRepository-to-CategoryRepository" style="stroke:#181818;stroke-width:1.0;"/><polygon fill="none" points="1149.31,1008.4488,1128.22,1006.4187,1145.98,994.8488,1149.31,1008.4488" style="stroke:#181818;stroke-width:1.0;"/></g><!--link JpaRepositoryFactory to RepositoryFactory--><g id="link_JpaRepositoryFactory_RepositoryFactory"><path codeLine="84" d="M1418.96,734.1288 C1321.33,772.8188 1185.11,826.8088 1090.2,864.4187 " fill="none" id="JpaRepositoryFactory-to-RepositoryFactory" style="stroke:#181818;stroke-width:1.0;stroke-dasharray:7.0,7.0;"/><polygon fill="none" points="1092.88,870.8888,1071.71,871.7488,1087.72,857.8788,1092.88,870.8888" style="stroke:#181818;stroke-width:1.0;"/></g><!--link JpaRepositoryFactory to JpaCategoryRepository--><g id="link_JpaRepositoryFactory_JpaCategoryRepository"><path codeLine="85" d="M1535.47,734.1288 C1531.34,777.8088 1525.38,840.9988 1521.87,878.0988 " fill="none" id="JpaRepositoryFactory-to-JpaCategoryRepository" style="stroke:#181818;stroke-width:1.0;stroke-dasharray:7.0,7.0;"/><polygon fill="#181818" points="1521.43,882.7588,1526.2373,874.1628,1521.8878,877.7798,1518.2709,873.4303,1521.43,882.7588" style="stroke:#181818;stroke-width:1.0;"/></g><!--link JpaRepositoryFactory to JpaRepositoryFactory--><g id="link_JpaRepositoryFactory_JpaRepositoryFactory"><path codeLine="86" d="M1706.77,672.2488 C1727.72,674.5288 1741.5,678.8288 1741.5,685.1587 C1741.5,690.8488 1730.37,694.8988 1712.93,697.3088 " fill="none" id="JpaRepositoryFactory-to-JpaRepositoryFactory" style="stroke:#181818;stroke-width:1.0;"/><polygon fill="#181818" points="1708.28,697.8888,1717.6954,700.7783,1713.2438,697.2879,1716.7341,692.8363,1708.28,697.8888" style="stroke:#181818;stroke-width:1.0;"/><text fill="#000000" font-family="sans-serif" font-size="20" lengthAdjust="spacing" textLength="79" x="1747.5" y="692.9947">instance</text></g><!--link InMemoryCategoryRepository to CategoryRepository--><g id="link_InMemoryCategoryRepository_CategoryRepository"><path codeLine="91" d="M406.58,934.9588 C518.83,956.1587 682.16,986.9988 805.65,1010.3187 " fill="none" id="InMemoryCategoryRepository-to-CategoryRepository" style="stroke:#181818;stroke-width:1.0;stroke-dasharray:7.0,7.0;"/><polygon fill="none" points="806.83,1003.4087,825.18,1013.9988,804.23,1017.1687,806.83,1003.4087" style="stroke:#181818;stroke-width:1.0;"/></g><!--link InMemoryRepositoryFactory to RepositoryFactory--><g id="link_InMemoryRepositoryFactory_RepositoryFactory"><path codeLine="94" d="M355.57,733.0387 C495.8,772.5088 694.55,828.4388 829.67,866.4688 " fill="none" id="InMemoryRepositoryFactory-to-RepositoryFactory" style="stroke:#181818;stroke-width:1.0;stroke-dasharray:7.0,7.0;"/><polygon fill="none" points="831.57,859.7288,848.92,871.8888,827.77,873.2088,831.57,859.7288" style="stroke:#181818;stroke-width:1.0;"/></g><!--link InMemoryRepositoryFactory to InMemoryCategoryRepository--><g id="link_InMemoryRepositoryFactory_InMemoryCategoryRepository"><path codeLine="95" d="M207.99,734.1288 C225.35,777.9988 250.49,841.5188 265.15,878.5588 " fill="none" id="InMemoryRepositoryFactory-to-InMemoryCategoryRepository" style="stroke:#181818;stroke-width:1.0;stroke-dasharray:7.0,7.0;"/><polygon fill="#181818" points="266.85,882.8588,267.2475,873.0179,265.0054,878.2115,259.8118,875.9693,266.85,882.8588" style="stroke:#181818;stroke-width:1.0;"/></g><!--link InMemoryRepositoryFactory to InMemoryRepositoryFactory--><g id="link_InMemoryRepositoryFactory_InMemoryRepositoryFactory"><path codeLine="96" d="M355.77,672.2488 C376.72,674.5288 390.5,678.8288 390.5,685.1587 C390.5,690.8488 379.37,694.8988 361.93,697.3088 " fill="none" id="InMemoryRepositoryFactory-to-InMemoryRepositoryFactory" style="stroke:#181818;stroke-width:1.0;"/><polygon fill="#181818" points="357.28,697.8888,366.6954,700.7783,362.2438,697.2879,365.7341,692.8363,357.28,697.8888" style="stroke:#181818;stroke-width:1.0;"/><text fill="#000000" font-family="sans-serif" font-size="20" lengthAdjust="spacing" textLength="79" x="396.5" y="692.9947">instance</text></g><!--link CategoryRepository to Category--><g id="link_CategoryRepository_Category"><path codeLine="101" d="M975.17,1081.2988 C971.72,1113.8787 966.62,1162.1788 962.69,1199.2888 " fill="none" id="CategoryRepository-to-Category" style="stroke:#181818;stroke-width:1.0;stroke-dasharray:7.0,7.0;"/><polygon fill="#181818" points="962.19,1204.0988,967.1191,1195.5721,962.7186,1199.1268,959.164,1194.7263,962.19,1204.0988" style="stroke:#181818;stroke-width:1.0;"/></g><!--link RepositoryFactory to CategoryRepository--><g id="link_RepositoryFactory_CategoryRepository"><path codeLine="104" d="M979,946.7188 C979,963.3688 979,983.2388 979,1000.5988 " fill="none" id="RepositoryFactory-to-CategoryRepository" style="stroke:#181818;stroke-width:1.0;stroke-dasharray:7.0,7.0;"/><polygon fill="#181818" points="979,1005.3588,983,996.3588,979,1000.3588,975,996.3588,979,1005.3588" style="stroke:#181818;stroke-width:1.0;"/></g><!--link Category to CategoryStatus--><g id="link_Category_CategoryStatus"><path codeLine="109" d="M831.74,1302.7688 C811.98,1311.7888 792.11,1321.7788 774,1332.4888 C739.62,1352.8188 704.35,1380.7088 677.81,1403.3787 " fill="none" id="Category-to-CategoryStatus" style="stroke:#181818;stroke-width:1.0;"/><polygon fill="#181818" points="674.11,1406.5688,683.5465,1403.7487,677.9063,1403.3148,678.3401,1397.6746,674.11,1406.5688" style="stroke:#181818;stroke-width:1.0;"/><text fill="#000000" font-family="sans-serif" font-size="20" lengthAdjust="spacing" textLength="139" x="775" y="1352.8247">categoryStatus</text><text fill="#000000" font-family="sans-serif" font-size="20" lengthAdjust="spacing" textLength="13" x="665.7419" y="1395.385">1</text></g><!--link Category to CategoryName--><g id="link_Category_CategoryName"><path codeLine="110" d="M940.85,1302.5588 C930.44,1333.0988 917.05,1372.4188 907.08,1401.6788 " fill="none" id="Category-to-CategoryName" style="stroke:#181818;stroke-width:1.0;"/><polygon fill="#181818" points="905.49,1406.3288,912.1832,1399.1037,907.1054,1401.5969,904.6122,1396.5191,905.49,1406.3288" style="stroke:#181818;stroke-width:1.0;"/><text fill="#000000" font-family="sans-serif" font-size="20" lengthAdjust="spacing" textLength="53" x="929" y="1352.8247">name</text><text fill="#000000" font-family="sans-serif" font-size="20" lengthAdjust="spacing" textLength="13" x="893.0141" y="1395.3355">1</text></g><!--link Category to CategoryDescription--><g id="link_Category_CategoryDescription"><path codeLine="111" d="M1013.05,1302.7988 C1049.77,1333.9988 1097.17,1374.2888 1131.74,1403.6688 " fill="none" id="Category-to-CategoryDescription" style="stroke:#181818;stroke-width:1.0;"/><polygon fill="#181818" points="1135.16,1406.5788,1130.8912,1397.7031,1131.3496,1403.3413,1125.7113,1403.7997,1135.16,1406.5788" style="stroke:#181818;stroke-width:1.0;"/><text fill="#000000" font-family="sans-serif" font-size="20" lengthAdjust="spacing" textLength="108" x="1075" y="1352.8247">description</text><text fill="#000000" font-family="sans-serif" font-size="20" lengthAdjust="spacing" textLength="13" x="1114.7262" y="1395.3968">1</text></g><!--link AddFigureCategoryUI to AddFigureCategoryController--><g id="link_AddFigureCategoryUI_AddFigureCategoryController"><path codeLine="116" d="M1139,145.8688 C1139,171.5287 1139,203.2487 1139,229.7887 " fill="none" id="AddFigureCategoryUI-to-AddFigureCategoryController" style="stroke:#181818;stroke-width:1.0;stroke-dasharray:7.0,7.0;"/><polygon fill="#181818" points="1139,234.5587,1143,225.5587,1139,229.5587,1135,225.5587,1139,234.5587" style="stroke:#181818;stroke-width:1.0;"/></g><!--link AddFigureCategoryController to PersistenceContext--><g id="link_AddFigureCategoryController_PersistenceContext"><path codeLine="121" d="M1139,333.4188 C1139,366.3788 1139,409.8087 1139,441.5287 " fill="none" id="AddFigureCategoryController-to-PersistenceContext" style="stroke:#181818;stroke-width:1.0;stroke-dasharray:7.0,7.0;"/><polygon fill="#181818" points="1139,446.1888,1143,437.1888,1139,441.1888,1135,437.1888,1139,446.1888" style="stroke:#181818;stroke-width:1.0;"/><text fill="#000000" font-family="sans-serif" font-size="20" lengthAdjust="spacing" textLength="215" x="1140" y="385.3847">getRepositoryFactory()</text></g><!--link AddFigureCategoryController to RepositoryFactory--><g id="link_AddFigureCategoryController_RepositoryFactory"><path codeLine="122" d="M992.86,333.4288 C961.7,349.5987 931.69,370.7388 910,398.0487 C798.5,538.4688 903.99,772.0588 954.96,866.7288 " fill="none" id="AddFigureCategoryController-to-RepositoryFactory" style="stroke:#181818;stroke-width:1.0;stroke-dasharray:7.0,7.0;"/><polygon fill="#181818" points="957.22,870.8888,956.4331,861.0714,954.8308,866.4965,949.4056,864.8942,957.22,870.8888" style="stroke:#181818;stroke-width:1.0;"/><text fill="#000000" font-family="sans-serif" font-size="20" lengthAdjust="spacing" textLength="231" x="862" y="573.9447">getCategoryRepository()</text></g><!--link AddFigureCategoryController to CategoryRepository--><g id="link_AddFigureCategoryController_CategoryRepository"><path codeLine="123" d="M1296.96,295.7687 C1516.18,314.1188 1886,362.9888 1886,483.8287 C1886,483.8287 1886,483.8287 1886,910.4888 C1886,942.5988 1861.41,945.6088 1832,958.4888 C1711.27,1011.3587 1349.25,1031.5488 1137.63,1038.9688 " fill="none" id="AddFigureCategoryController-to-CategoryRepository" style="stroke:#181818;stroke-width:1.0;stroke-dasharray:7.0,7.0;"/><polygon fill="#181818" points="1132.93,1039.1287,1142.0723,1042.7919,1137.9266,1038.9432,1141.7753,1034.7975,1132.93,1039.1287" style="stroke:#181818;stroke-width:1.0;"/><text fill="#000000" font-family="sans-serif" font-size="20" lengthAdjust="spacing" textLength="277" x="1887" y="692.9947">addFigureCategory(category)</text></g><!--SRC=[fLRRRjim37ttLmZPGn9iCROz6eM1eba03xiKAz9trM4DDRPiM3BGRks_Zt9yaQrBqqqlYKpoa8UcZYoEZ5UqfaLUfaSua0FSqoQNkvBB6_ORoEUFWG1912WdMTQ4bno2eABfaMP05jTG2oOay1GtvDssNUHFG72bEHM2Q1vNY0gFiZEhzPva87z1LGg6u4yxcggVrJeYniCsvYLuqP9N8tJ8YYeF7ofgB-9hHGr0hOoDrM6rdjQPS24fvlALDyrvHILaQ1ozkwJew2N2U045kjlP9FnxQ_LJSdhz9wyUrqDEvxOj2yguJkG4DZXeyNEwQZ6ScVgUudpvw0vapAeKBVFf4DbncwPoSXjpqSDXnxAcXjvtbNP_rdFixcVPUvBBBAiXmvtMri5uSV65IoQVubW_9uDvnMa17_2WYhHcbMGbN-j9W3V5u7mZgMm48jxIl07oy-u1KjdZJbvg7_43mT_YlntBS8Rfqx1Fx2DzEU_cFa6yVHB74xLuhUdJP4flwZBFeJupwHY0oSVDlnInr7IlU_qM9Tp4vB4rMcnX69iZ7v7KCk0-29ko-VoTie6SR8BRaREhtS3FOTuynxQpEK2QHrv7DArX-1mxDCpX7zjBSuTiDlQUHYWV9nsrDQeNz8vQt-JJ7DaQvb7PbgIpQ-xBmS1-K_zyGR6dt5U2LJkTrabF3QQ-UREsBHpRra5uccJdQMlxydJ5pKNUgANbklYqcCdpUAHFUt-C4kY8g3l0xwS9SwHV5bZkFkbA_OOZUjtSvIp5A9gNMGCekqFTDarMFV389gBh6rSMJMVTsJGdbTKYLv7Zw_4iFFFzHgxlXxFmB1CNUQ-Au2y0]--></g></svg>