<svg xmlns="http://www.w3.org/2000/svg" xmlns:xlink="http://www.w3.org/1999/xlink" contentStyleType="text/css" height="1286px" preserveAspectRatio="none" style="width:1497px;height:1286px;background:#FFFFFF;" version="1.1" viewBox="0 0 1497 1286" width="1497px" zoomAndPan="magnify"><defs/><g><!--cluster Persistence --><g id="cluster_Persistence "><path d="M576.5,336.22 L664.3779,336.22 A3.75,3.75 0 0 1 666.8779,338.72 L673.8779,358.7083 L911.5,358.7083 A2.5,2.5 0 0 1 914,361.2083 L914,449.21 A2.5,2.5 0 0 1 911.5,451.71 L576.5,451.71 A2.5,2.5 0 0 1 574,449.21 L574,338.72 A2.5,2.5 0 0 1 576.5,336.22 " fill="#DDDDDD" style="stroke:#000000;stroke-width:1.5;"/><line style="stroke:#000000;stroke-width:1.5;" x1="574" x2="673.8779" y1="358.7083" y2="358.7083"/><text fill="#000000" font-family="sans-serif" font-size="14" font-weight="bold" lengthAdjust="spacing" textLength="82.2637" x="578" y="351.7552">Persistence</text></g><!--cluster persistence.impl.jpa--><g id="cluster_persistence.impl.jpa"><path d="M896.5,500.71 L1041.499,500.71 A3.75,3.75 0 0 1 1043.999,503.21 L1050.999,523.1983 L1249.5,523.1983 A2.5,2.5 0 0 1 1252,525.6983 L1252,811.43 A2.5,2.5 0 0 1 1249.5,813.93 L896.5,813.93 A2.5,2.5 0 0 1 894,811.43 L894,503.21 A2.5,2.5 0 0 1 896.5,500.71 " fill="#DDDDDD" style="stroke:#000000;stroke-width:1.5;"/><line style="stroke:#000000;stroke-width:1.5;" x1="894" x2="1050.999" y1="523.1983" y2="523.1983"/><text fill="#000000" font-family="sans-serif" font-size="14" font-weight="bold" lengthAdjust="spacing" textLength="143.999" x="898" y="516.2452">persistence.impl.jpa</text></g><!--cluster persistence.impl.inmemory--><g id="cluster_persistence.impl.inmemory"><path d="M8.5,500.71 L203.9004,500.71 A3.75,3.75 0 0 1 206.4004,503.21 L213.4004,523.1983 L361.5,523.1983 A2.5,2.5 0 0 1 364,525.6983 L364,811.43 A2.5,2.5 0 0 1 361.5,813.93 L8.5,813.93 A2.5,2.5 0 0 1 6,811.43 L6,503.21 A2.5,2.5 0 0 1 8.5,500.71 " fill="#DDDDDD" style="stroke:#000000;stroke-width:1.5;"/><line style="stroke:#000000;stroke-width:1.5;" x1="6" x2="213.4004" y1="523.1983" y2="523.1983"/><text fill="#000000" font-family="sans-serif" font-size="14" font-weight="bold" lengthAdjust="spacing" textLength="194.4004" x="10" y="516.2452">persistence.impl.inmemory</text></g><!--cluster Domain--><g id="cluster_Domain"><path d="M390.5,663.68 L447.0967,663.68 A3.75,3.75 0 0 1 449.5967,666.18 L456.5967,686.1683 L867.5,686.1683 A2.5,2.5 0 0 1 870,688.6683 L870,1276.89 A2.5,2.5 0 0 1 867.5,1279.39 L390.5,1279.39 A2.5,2.5 0 0 1 388,1276.89 L388,666.18 A2.5,2.5 0 0 1 390.5,663.68 " fill="#DDDDDD" style="stroke:#000000;stroke-width:1.5;"/><line style="stroke:#000000;stroke-width:1.5;" x1="388" x2="456.5967" y1="686.1683" y2="686.1683"/><text fill="#000000" font-family="sans-serif" font-size="14" font-weight="bold" lengthAdjust="spacing" textLength="55.5967" x="392" y="679.2152">Domain</text></g><!--cluster Repository --><g id="cluster_Repository "><path d="M462.5,706.68 L545.8047,706.68 A3.75,3.75 0 0 1 548.3047,709.18 L555.3047,729.1683 L821.5,729.1683 A2.5,2.5 0 0 1 824,731.6683 L824,945.16 A2.5,2.5 0 0 1 821.5,947.66 L462.5,947.66 A2.5,2.5 0 0 1 460,945.16 L460,709.18 A2.5,2.5 0 0 1 462.5,706.68 " fill="#DDDDDD" style="stroke:#000000;stroke-width:1.5;"/><line style="stroke:#000000;stroke-width:1.5;" x1="460" x2="555.3047" y1="729.1683" y2="729.1683"/><text fill="#000000" font-family="sans-serif" font-size="14" font-weight="bold" lengthAdjust="spacing" textLength="77.6904" x="464" y="722.2152">Repository</text></g><!--cluster UI--><g id="cluster_UI"><path d="M619.5,6 L635.4502,6 A3.75,3.75 0 0 1 637.9502,8.5 L644.9502,28.4883 L868.5,28.4883 A2.5,2.5 0 0 1 871,30.9883 L871,127.61 A2.5,2.5 0 0 1 868.5,130.11 L619.5,130.11 A2.5,2.5 0 0 1 617,127.61 L617,8.5 A2.5,2.5 0 0 1 619.5,6 " fill="#DDDDDD" style="stroke:#000000;stroke-width:1.5;"/><line style="stroke:#000000;stroke-width:1.5;" x1="617" x2="644.9502" y1="28.4883" y2="28.4883"/><text fill="#000000" font-family="sans-serif" font-size="14" font-weight="bold" lengthAdjust="spacing" textLength="14.9502" x="621" y="21.5352">UI</text></g><!--cluster Controller--><g id="cluster_Controller"><path d="M615.5,163.11 L689.2617,163.11 A3.75,3.75 0 0 1 691.7617,165.61 L698.7617,185.5983 L872.5,185.5983 A2.5,2.5 0 0 1 875,188.0983 L875,284.72 A2.5,2.5 0 0 1 872.5,287.22 L615.5,287.22 A2.5,2.5 0 0 1 613,284.72 L613,165.61 A2.5,2.5 0 0 1 615.5,163.11 " fill="#DDDDDD" style="stroke:#000000;stroke-width:1.5;"/><line style="stroke:#000000;stroke-width:1.5;" x1="613" x2="698.7617" y1="185.5983" y2="185.5983"/><text fill="#000000" font-family="sans-serif" font-size="14" font-weight="bold" lengthAdjust="spacing" textLength="72.7617" x="617" y="178.6452">Controller</text></g><!--class PersistenceContext--><g id="elem_PersistenceContext"><rect codeLine="4" fill="#F1F1F1" height="64.4883" id="PersistenceContext" rx="2.5" ry="2.5" style="stroke:#181818;stroke-width:0.5;" width="308.5566" x="589.72" y="371.22"/><ellipse cx="674.6907" cy="387.22" fill="#ADD1B2" rx="11" ry="11" style="stroke:#181818;stroke-width:1.0;"/><path d="M677.6638,392.8631 Q677.0828,393.1619 676.4436,393.3113 Q675.8045,393.4607 675.0989,393.4607 Q672.5921,393.4607 671.2722,391.8089 Q669.9524,390.157 669.9524,387.0359 Q669.9524,383.9065 671.2722,382.2547 Q672.5921,380.6028 675.0989,380.6028 Q675.8045,380.6028 676.4519,380.7522 Q677.0994,380.9016 677.6638,381.2005 L677.6638,383.9231 Q677.033,383.3421 676.4395,383.0723 Q675.846,382.8025 675.2151,382.8025 Q673.8704,382.8025 673.1856,383.8692 Q672.5008,384.9358 672.5008,387.0359 Q672.5008,389.1277 673.1856,390.1944 Q673.8704,391.261 675.2151,391.261 Q675.846,391.261 676.4395,390.9912 Q677.033,390.7215 677.6638,390.1404 Z " fill="#000000"/><text fill="#000000" font-family="sans-serif" font-size="14" lengthAdjust="spacing" textLength="130.1152" x="695.1907" y="392.511">PersistenceContext</text><line style="stroke:#181818;stroke-width:0.5;" x1="590.72" x2="897.2766" y1="403.22" y2="403.22"/><line style="stroke:#181818;stroke-width:0.5;" x1="590.72" x2="897.2766" y1="411.22" y2="411.22"/><ellipse cx="600.72" cy="424.9641" fill="#84BE84" rx="3" ry="3" style="stroke:#038048;stroke-width:1.0;"/><text fill="#000000" font-family="sans-serif" font-size="14" lengthAdjust="spacing" textLength="282.5566" x="609.72" y="428.7552">getRepositoryFactory(): RepositoryFactory</text></g><!--class JpaRepositoryFactory--><g id="elem_JpaRepositoryFactory"><rect codeLine="10" fill="#F1F1F1" height="80.9766" id="JpaRepositoryFactory" rx="2.5" ry="2.5" style="stroke:#181818;stroke-width:0.5;" width="243.6289" x="910.19" y="535.71"/><ellipse cx="956.5992" cy="551.71" fill="#ADD1B2" rx="11" ry="11" style="stroke:#181818;stroke-width:1.0;"/><path d="M959.5723,557.3531 Q958.9913,557.6519 958.3521,557.8013 Q957.7129,557.9507 957.0074,557.9507 Q954.5005,557.9507 953.1807,556.2989 Q951.8609,554.647 951.8609,551.5259 Q951.8609,548.3965 953.1807,546.7447 Q954.5005,545.0928 957.0074,545.0928 Q957.7129,545.0928 958.3604,545.2422 Q959.0079,545.3916 959.5723,545.6905 L959.5723,548.4131 Q958.9415,547.8321 958.348,547.5623 Q957.7545,547.2925 957.1236,547.2925 Q955.7789,547.2925 955.0941,548.3592 Q954.4092,549.4258 954.4092,551.5259 Q954.4092,553.6177 955.0941,554.6844 Q955.7789,555.751 957.1236,555.751 Q957.7545,555.751 958.348,555.4812 Q958.9415,555.2115 959.5723,554.6304 Z " fill="#000000"/><text fill="#000000" font-family="sans-serif" font-size="14" lengthAdjust="spacing" textLength="142.3105" x="977.0992" y="557.001">JpaRepositoryFactory</text><line style="stroke:#181818;stroke-width:0.5;" x1="911.19" x2="1152.8189" y1="567.71" y2="567.71"/><line style="stroke:#181818;stroke-width:0.5;" x1="911.19" x2="1152.8189" y1="575.71" y2="575.71"/><rect fill="#F24D5C" height="6" style="stroke:#C82930;stroke-width:1.0;" width="6" x="918.19" y="586.4541"/><text fill="#000000" font-family="sans-serif" font-size="14" lengthAdjust="spacing" textLength="151.416" x="930.19" y="593.2452">JpaRepositoryFactory()</text><ellipse cx="921.19" cy="605.9424" fill="#84BE84" rx="3" ry="3" style="stroke:#038048;stroke-width:1.0;"/><text fill="#000000" font-family="sans-serif" font-size="14" lengthAdjust="spacing" textLength="217.6289" x="930.19" y="609.7334">getInstance(): RepositoryFactory</text></g><!--class JpaCategoryRepository--><g id="elem_JpaCategoryRepository"><rect codeLine="15" fill="#F1F1F1" height="48" id="JpaCategoryRepository" rx="2.5" ry="2.5" style="stroke:#181818;stroke-width:0.5;" width="185.8496" x="924.08" y="749.93"/><ellipse cx="939.08" cy="765.93" fill="#ADD1B2" rx="11" ry="11" style="stroke:#181818;stroke-width:1.0;"/><path d="M942.0531,771.5731 Q941.4721,771.8719 940.8329,772.0213 Q940.1938,772.1707 939.4882,772.1707 Q936.9814,772.1707 935.6615,770.5189 Q934.3417,768.867 934.3417,765.7459 Q934.3417,762.6165 935.6615,760.9647 Q936.9814,759.3128 939.4882,759.3128 Q940.1938,759.3128 940.8412,759.4622 Q941.4887,759.6116 942.0531,759.9105 L942.0531,762.6331 Q941.4223,762.0521 940.8288,761.7823 Q940.2353,761.5125 939.6044,761.5125 Q938.2597,761.5125 937.5749,762.5792 Q936.8901,763.6458 936.8901,765.7459 Q936.8901,767.8377 937.5749,768.9044 Q938.2597,769.971 939.6044,769.971 Q940.2353,769.971 940.8288,769.7012 Q941.4223,769.4315 942.0531,768.8504 Z " fill="#000000"/><text fill="#000000" font-family="sans-serif" font-size="14" lengthAdjust="spacing" textLength="153.8496" x="953.08" y="771.221">JpaCategoryRepository</text><line style="stroke:#181818;stroke-width:0.5;" x1="925.08" x2="1108.9296" y1="781.93" y2="781.93"/><line style="stroke:#181818;stroke-width:0.5;" x1="925.08" x2="1108.9296" y1="789.93" y2="789.93"/></g><!--class InMemoryRepositoryFactory--><g id="elem_InMemoryRepositoryFactory"><rect codeLine="21" fill="#F1F1F1" height="80.9766" id="InMemoryRepositoryFactory" rx="2.5" ry="2.5" style="stroke:#181818;stroke-width:0.5;" width="243.6289" x="22.19" y="535.71"/><ellipse cx="47.5053" cy="551.71" fill="#ADD1B2" rx="11" ry="11" style="stroke:#181818;stroke-width:1.0;"/><path d="M50.4784,557.3531 Q49.8974,557.6519 49.2582,557.8013 Q48.6191,557.9507 47.9135,557.9507 Q45.4067,557.9507 44.0868,556.2989 Q42.767,554.647 42.767,551.5259 Q42.767,548.3965 44.0868,546.7447 Q45.4067,545.0928 47.9135,545.0928 Q48.6191,545.0928 49.2665,545.2422 Q49.914,545.3916 50.4784,545.6905 L50.4784,548.4131 Q49.8476,547.8321 49.2541,547.5623 Q48.6606,547.2925 48.0297,547.2925 Q46.685,547.2925 46.0002,548.3592 Q45.3153,549.4258 45.3153,551.5259 Q45.3153,553.6177 46.0002,554.6844 Q46.685,555.751 48.0297,555.751 Q48.6606,555.751 49.2541,555.4812 Q49.8476,555.2115 50.4784,554.6304 Z " fill="#000000"/><text fill="#000000" font-family="sans-serif" font-size="14" lengthAdjust="spacing" textLength="188.7061" x="63.7976" y="557.001">InMemoryRepositoryFactory</text><line style="stroke:#181818;stroke-width:0.5;" x1="23.19" x2="264.8189" y1="567.71" y2="567.71"/><line style="stroke:#181818;stroke-width:0.5;" x1="23.19" x2="264.8189" y1="575.71" y2="575.71"/><rect fill="#F24D5C" height="6" style="stroke:#C82930;stroke-width:1.0;" width="6" x="30.19" y="586.4541"/><text fill="#000000" font-family="sans-serif" font-size="14" lengthAdjust="spacing" textLength="197.8115" x="42.19" y="593.2452">InMemoryRepositoryFactory()</text><ellipse cx="33.19" cy="605.9424" fill="#84BE84" rx="3" ry="3" style="stroke:#038048;stroke-width:1.0;"/><text fill="#000000" font-family="sans-serif" font-size="14" lengthAdjust="spacing" textLength="217.6289" x="42.19" y="609.7334">getInstance(): RepositoryFactory</text></g><!--class InMemoryCategoryRepository--><g id="elem_InMemoryCategoryRepository"><rect codeLine="26" fill="#F1F1F1" height="48" id="InMemoryCategoryRepository" rx="2.5" ry="2.5" style="stroke:#181818;stroke-width:0.5;" width="232.2451" x="93.88" y="749.93"/><ellipse cx="108.88" cy="765.93" fill="#ADD1B2" rx="11" ry="11" style="stroke:#181818;stroke-width:1.0;"/><path d="M111.8531,771.5731 Q111.2721,771.8719 110.6329,772.0213 Q109.9938,772.1707 109.2882,772.1707 Q106.7814,772.1707 105.4615,770.5189 Q104.1417,768.867 104.1417,765.7459 Q104.1417,762.6165 105.4615,760.9647 Q106.7814,759.3128 109.2882,759.3128 Q109.9938,759.3128 110.6412,759.4622 Q111.2887,759.6116 111.8531,759.9105 L111.8531,762.6331 Q111.2223,762.0521 110.6288,761.7823 Q110.0353,761.5125 109.4044,761.5125 Q108.0597,761.5125 107.3749,762.5792 Q106.6901,763.6458 106.6901,765.7459 Q106.6901,767.8377 107.3749,768.9044 Q108.0597,769.971 109.4044,769.971 Q110.0353,769.971 110.6288,769.7012 Q111.2223,769.4315 111.8531,768.8504 Z " fill="#000000"/><text fill="#000000" font-family="sans-serif" font-size="14" lengthAdjust="spacing" textLength="200.2451" x="122.88" y="771.221">InMemoryCategoryRepository</text><line style="stroke:#181818;stroke-width:0.5;" x1="94.88" x2="325.1251" y1="781.93" y2="781.93"/><line style="stroke:#181818;stroke-width:0.5;" x1="94.88" x2="325.1251" y1="789.93" y2="789.93"/></g><!--class Category--><g id="elem_Category"><rect codeLine="45" fill="#F1F1F1" height="73.1094" id="Category" rx="2.5" ry="2.5" style="stroke:#181818;stroke-width:0.5;" width="137.6514" x="566.17" y="1056.66"/><ellipse cx="601.3413" cy="1076.9705" fill="#ADD1B2" rx="11" ry="11" style="stroke:#181818;stroke-width:1.0;"/><path d="M604.3145,1082.6136 Q603.7334,1082.9124 603.0943,1083.0619 Q602.4551,1083.2113 601.7495,1083.2113 Q599.2427,1083.2113 597.9229,1081.5594 Q596.6031,1079.9076 596.6031,1076.7865 Q596.6031,1073.6571 597.9229,1072.0052 Q599.2427,1070.3534 601.7495,1070.3534 Q602.4551,1070.3534 603.1026,1070.5028 Q603.75,1070.6522 604.3145,1070.951 L604.3145,1073.6737 Q603.6836,1073.0926 603.0901,1072.8228 Q602.4966,1072.5531 601.8658,1072.5531 Q600.521,1072.5531 599.8362,1073.6197 Q599.1514,1074.6864 599.1514,1076.7865 Q599.1514,1078.8783 599.8362,1079.9449 Q600.521,1081.0116 601.8658,1081.0116 Q602.4966,1081.0116 603.0901,1080.7418 Q603.6836,1080.472 604.3145,1079.891 Z " fill="#000000"/><text fill="#000000" font-family="sans-serif" font-size="12" font-style="italic" lengthAdjust="spacing" textLength="45.2402" x="627.6168" y="1073.2616">&#171;Entity&#187;</text><text fill="#000000" font-family="sans-serif" font-size="14" lengthAdjust="spacing" textLength="60.8262" x="619.8239" y="1089.328">Category</text><line style="stroke:#181818;stroke-width:0.5;" x1="567.17" x2="702.8214" y1="1097.2811" y2="1097.2811"/><line style="stroke:#181818;stroke-width:0.5;" x1="567.17" x2="702.8214" y1="1105.2811" y2="1105.2811"/><ellipse cx="577.17" cy="1119.0252" fill="#84BE84" rx="3" ry="3" style="stroke:#038048;stroke-width:1.0;"/><text fill="#000000" font-family="sans-serif" font-size="14" lengthAdjust="spacing" textLength="111.6514" x="586.17" y="1122.8163">Category (name)</text></g><!--class IDCategory--><g id="elem_IDCategory"><rect codeLine="49" fill="#F1F1F1" height="56.6211" id="IDCategory" rx="2.5" ry="2.5" style="stroke:#181818;stroke-width:0.5;" width="114.291" x="403.85" y="1206.77"/><ellipse cx="418.85" cy="1227.0805" fill="#ADD1B2" rx="11" ry="11" style="stroke:#181818;stroke-width:1.0;"/><path d="M421.8231,1232.7236 Q421.2421,1233.0224 420.6029,1233.1719 Q419.9638,1233.3213 419.2582,1233.3213 Q416.7514,1233.3213 415.4315,1231.6694 Q414.1117,1230.0176 414.1117,1226.8965 Q414.1117,1223.7671 415.4315,1222.1152 Q416.7514,1220.4634 419.2582,1220.4634 Q419.9638,1220.4634 420.6112,1220.6128 Q421.2587,1220.7622 421.8231,1221.061 L421.8231,1223.7837 Q421.1923,1223.2026 420.5988,1222.9328 Q420.0053,1222.6631 419.3744,1222.6631 Q418.0297,1222.6631 417.3449,1223.7297 Q416.6601,1224.7964 416.6601,1226.8965 Q416.6601,1228.9883 417.3449,1230.0549 Q418.0297,1231.1216 419.3744,1231.1216 Q420.0053,1231.1216 420.5988,1230.8518 Q421.1923,1230.582 421.8231,1230.001 Z " fill="#000000"/><text fill="#000000" font-family="sans-serif" font-size="12" font-style="italic" lengthAdjust="spacing" textLength="86.291" x="430.85" y="1223.3716">&#171;Value Object&#187;</text><text fill="#000000" font-family="sans-serif" font-size="14" lengthAdjust="spacing" textLength="75.3457" x="436.3227" y="1239.438">IDCategory</text><line style="stroke:#181818;stroke-width:0.5;" x1="404.85" x2="517.141" y1="1247.3911" y2="1247.3911"/><line style="stroke:#181818;stroke-width:0.5;" x1="404.85" x2="517.141" y1="1255.3911" y2="1255.3911"/></g><!--class CategoryStatus--><g id="elem_CategoryStatus"><rect codeLine="52" fill="#F1F1F1" height="56.6211" id="CategoryStatus" rx="2.5" ry="2.5" style="stroke:#181818;stroke-width:0.5;" width="134.3955" x="552.8" y="1206.77"/><ellipse cx="567.8" cy="1227.0805" fill="#EB937F" rx="11" ry="11" style="stroke:#181818;stroke-width:1.0;"/><path d="M571.9143,1233.0805 L564.1945,1233.0805 L564.1945,1220.6875 L571.9143,1220.6875 L571.9143,1222.8457 L566.6433,1222.8457 L566.6433,1225.5185 L571.4162,1225.5185 L571.4162,1227.6767 L566.6433,1227.6767 L566.6433,1230.9223 L571.9143,1230.9223 Z " fill="#000000"/><text fill="#000000" font-family="sans-serif" font-size="12" font-style="italic" lengthAdjust="spacing" textLength="86.291" x="589.8522" y="1223.3716">&#171;Value Object&#187;</text><text fill="#000000" font-family="sans-serif" font-size="14" lengthAdjust="spacing" textLength="102.3955" x="581.8" y="1239.438">CategoryStatus</text><line style="stroke:#181818;stroke-width:0.5;" x1="553.8" x2="686.1955" y1="1247.3911" y2="1247.3911"/><line style="stroke:#181818;stroke-width:0.5;" x1="553.8" x2="686.1955" y1="1255.3911" y2="1255.3911"/></g><!--class CategoryName--><g id="elem_CategoryName"><rect codeLine="55" fill="#F1F1F1" height="56.6211" id="CategoryName" rx="2.5" ry="2.5" style="stroke:#181818;stroke-width:0.5;" width="131.7705" x="722.11" y="1206.77"/><ellipse cx="737.11" cy="1227.0805" fill="#ADD1B2" rx="11" ry="11" style="stroke:#181818;stroke-width:1.0;"/><path d="M740.0831,1232.7236 Q739.5021,1233.0224 738.8629,1233.1719 Q738.2238,1233.3213 737.5182,1233.3213 Q735.0114,1233.3213 733.6915,1231.6694 Q732.3717,1230.0176 732.3717,1226.8965 Q732.3717,1223.7671 733.6915,1222.1152 Q735.0114,1220.4634 737.5182,1220.4634 Q738.2238,1220.4634 738.8712,1220.6128 Q739.5187,1220.7622 740.0831,1221.061 L740.0831,1223.7837 Q739.4523,1223.2026 738.8588,1222.9328 Q738.2653,1222.6631 737.6344,1222.6631 Q736.2897,1222.6631 735.6049,1223.7297 Q734.9201,1224.7964 734.9201,1226.8965 Q734.9201,1228.9883 735.6049,1230.0549 Q736.2897,1231.1216 737.6344,1231.1216 Q738.2653,1231.1216 738.8588,1230.8518 Q739.4523,1230.582 740.0831,1230.001 Z " fill="#000000"/><text fill="#000000" font-family="sans-serif" font-size="12" font-style="italic" lengthAdjust="spacing" textLength="86.291" x="757.8497" y="1223.3716">&#171;Value Object&#187;</text><text fill="#000000" font-family="sans-serif" font-size="14" lengthAdjust="spacing" textLength="99.7705" x="751.11" y="1239.438">CategoryName</text><line style="stroke:#181818;stroke-width:0.5;" x1="723.11" x2="852.8805" y1="1247.3911" y2="1247.3911"/><line style="stroke:#181818;stroke-width:0.5;" x1="723.11" x2="852.8805" y1="1255.3911" y2="1255.3911"/></g><!--class RepositoryFactory--><g id="elem_RepositoryFactory"><rect codeLine="34" fill="#F1F1F1" height="64.4883" id="RepositoryFactory" rx="2.5" ry="2.5" style="stroke:#181818;stroke-width:0.5;" width="331.6348" x="476.18" y="741.68"/><ellipse cx="577.0408" cy="757.68" fill="#B4A7E5" rx="11" ry="11" style="stroke:#181818;stroke-width:1.0;"/><path d="M572.9686,753.4451 L572.9686,751.2869 L580.348,751.2869 L580.348,753.4451 L577.8826,753.4451 L577.8826,761.5218 L580.348,761.5218 L580.348,763.68 L572.9686,763.68 L572.9686,761.5218 L575.4339,761.5218 L575.4339,753.4451 Z " fill="#000000"/><text fill="#000000" font-family="sans-serif" font-size="14" font-style="italic" lengthAdjust="spacing" textLength="121.4131" x="597.5408" y="762.971">RepositoryFactory</text><line style="stroke:#181818;stroke-width:0.5;" x1="477.18" x2="806.8148" y1="773.68" y2="773.68"/><line style="stroke:#181818;stroke-width:0.5;" x1="477.18" x2="806.8148" y1="781.68" y2="781.68"/><ellipse cx="487.18" cy="795.4241" fill="#84BE84" rx="3" ry="3" style="stroke:#038048;stroke-width:1.0;"/><text fill="#000000" font-family="sans-serif" font-size="14" lengthAdjust="spacing" textLength="305.6348" x="496.18" y="799.2152">getCategoryRepository(): CategoryRepository</text></g><!--class CategoryRepository--><g id="elem_CategoryRepository"><rect codeLine="38" fill="#F1F1F1" height="64.4883" id="CategoryRepository" rx="2.5" ry="2.5" style="stroke:#181818;stroke-width:0.5;" width="222.0957" x="530.95" y="867.17"/><ellipse cx="571.6646" cy="883.17" fill="#B4A7E5" rx="11" ry="11" style="stroke:#181818;stroke-width:1.0;"/><path d="M567.5923,878.9351 L567.5923,876.7769 L574.9717,876.7769 L574.9717,878.9351 L572.5064,878.9351 L572.5064,887.0118 L574.9717,887.0118 L574.9717,889.17 L567.5923,889.17 L567.5923,887.0118 L570.0577,887.0118 L570.0577,878.9351 Z " fill="#000000"/><text fill="#000000" font-family="sans-serif" font-size="14" font-style="italic" lengthAdjust="spacing" textLength="132.9521" x="591.379" y="888.461">CategoryRepository</text><line style="stroke:#181818;stroke-width:0.5;" x1="531.95" x2="752.0457" y1="899.17" y2="899.17"/><line style="stroke:#181818;stroke-width:0.5;" x1="531.95" x2="752.0457" y1="907.17" y2="907.17"/><ellipse cx="541.95" cy="920.9141" fill="#84BE84" rx="3" ry="3" style="stroke:#038048;stroke-width:1.0;"/><text fill="#000000" font-family="sans-serif" font-size="14" lengthAdjust="spacing" textLength="196.0957" x="550.95" y="924.7052">addFigureCategory(category)</text></g><!--class AddFigureCategoryUI--><g id="elem_AddFigureCategoryUI"><rect codeLine="61" fill="#F1F1F1" height="73.1094" id="AddFigureCategoryUI" rx="2.5" ry="2.5" style="stroke:#181818;stroke-width:0.5;" width="222.0957" x="632.95" y="41"/><ellipse cx="668.5397" cy="61.3105" fill="#ADD1B2" rx="11" ry="11" style="stroke:#181818;stroke-width:1.0;"/><path d="M671.5128,66.9536 Q670.9318,67.2524 670.2926,67.4019 Q669.6535,67.5513 668.9479,67.5513 Q666.4411,67.5513 665.1212,65.8994 Q663.8014,64.2476 663.8014,61.1265 Q663.8014,57.9971 665.1212,56.3452 Q666.4411,54.6934 668.9479,54.6934 Q669.6535,54.6934 670.3009,54.8428 Q670.9484,54.9922 671.5128,55.291 L671.5128,58.0137 Q670.882,57.4326 670.2885,57.1628 Q669.695,56.8931 669.0641,56.8931 Q667.7194,56.8931 667.0346,57.9597 Q666.3498,59.0264 666.3498,61.1265 Q666.3498,63.2183 667.0346,64.2849 Q667.7194,65.3516 669.0641,65.3516 Q669.695,65.3516 670.2885,65.0818 Q670.882,64.812 671.5128,64.231 Z " fill="#000000"/><text fill="#000000" font-family="sans-serif" font-size="12" font-style="italic" lengthAdjust="spacing" textLength="24.3457" x="747.1127" y="57.6016">&#171;UI&#187;</text><text fill="#000000" font-family="sans-serif" font-size="14" lengthAdjust="spacing" textLength="144.3408" x="687.1152" y="73.668">AddFigureCategoryUI</text><line style="stroke:#181818;stroke-width:0.5;" x1="633.95" x2="854.0457" y1="81.6211" y2="81.6211"/><line style="stroke:#181818;stroke-width:0.5;" x1="633.95" x2="854.0457" y1="89.6211" y2="89.6211"/><ellipse cx="643.95" cy="103.3652" fill="#84BE84" rx="3" ry="3" style="stroke:#038048;stroke-width:1.0;"/><text fill="#000000" font-family="sans-serif" font-size="14" lengthAdjust="spacing" textLength="196.0957" x="652.95" y="107.1563">addFigureCategory(category)</text></g><!--class AddFigureCategoryController--><g id="elem_AddFigureCategoryController"><rect codeLine="67" fill="#F1F1F1" height="73.1094" id="AddFigureCategoryController" rx="2.5" ry="2.5" style="stroke:#181818;stroke-width:0.5;" width="230.7686" x="628.62" y="198.11"/><ellipse cx="643.62" cy="218.4205" fill="#ADD1B2" rx="11" ry="11" style="stroke:#181818;stroke-width:1.0;"/><path d="M646.5931,224.0636 Q646.0121,224.3624 645.3729,224.5119 Q644.7338,224.6613 644.0282,224.6613 Q641.5214,224.6613 640.2015,223.0094 Q638.8817,221.3576 638.8817,218.2365 Q638.8817,215.1071 640.2015,213.4552 Q641.5214,211.8034 644.0282,211.8034 Q644.7338,211.8034 645.3812,211.9528 Q646.0287,212.1022 646.5931,212.401 L646.5931,215.1237 Q645.9623,214.5426 645.3688,214.2728 Q644.7753,214.0031 644.1444,214.0031 Q642.7997,214.0031 642.1149,215.0697 Q641.4301,216.1364 641.4301,218.2365 Q641.4301,220.3283 642.1149,221.3949 Q642.7997,222.4616 644.1444,222.4616 Q644.7753,222.4616 645.3688,222.1918 Q645.9623,221.922 646.5931,221.341 Z " fill="#000000"/><text fill="#000000" font-family="sans-serif" font-size="12" font-style="italic" lengthAdjust="spacing" textLength="70.998" x="721.5053" y="214.7116">&#171;Controller&#187;</text><text fill="#000000" font-family="sans-serif" font-size="14" lengthAdjust="spacing" textLength="198.7686" x="657.62" y="230.778">AddFigureCategoryController</text><line style="stroke:#181818;stroke-width:0.5;" x1="629.62" x2="858.3886" y1="238.7311" y2="238.7311"/><line style="stroke:#181818;stroke-width:0.5;" x1="629.62" x2="858.3886" y1="246.7311" y2="246.7311"/><ellipse cx="639.62" cy="260.4752" fill="#84BE84" rx="3" ry="3" style="stroke:#038048;stroke-width:1.0;"/><text fill="#000000" font-family="sans-serif" font-size="14" lengthAdjust="spacing" textLength="196.0957" x="648.62" y="264.2663">addFigureCategory(category)</text></g><!--link PersistenceContext to RepositoryFactory--><g id="link_PersistenceContext_RepositoryFactory"><path codeLine="75" d="M735.22,436.2 C715.91,505.93 671.5805,666.0674 652.3305,735.6174 " fill="none" id="PersistenceContext-to-RepositoryFactory" style="stroke:#181818;stroke-width:1.0;stroke-dasharray:7.0,7.0;"/><polygon fill="#181818" points="650.73,741.4,656.9858,733.7931,652.0638,736.5812,649.2757,731.6591,650.73,741.4" style="stroke:#181818;stroke-width:1.0;"/><text fill="#000000" font-family="sans-serif" font-size="13" lengthAdjust="spacing" textLength="129.5747" x="720" y="581.2584">categoryRepository()</text></g><!--link PersistenceContext to JpaRepositoryFactory--><g id="link_PersistenceContext_JpaRepositoryFactory"><path codeLine="76" d="M797.5,436.18 C844.67,464.14 908.4784,501.9709 959.4184,532.1609 " fill="none" id="PersistenceContext-to-JpaRepositoryFactory" style="stroke:#181818;stroke-width:1.0;stroke-dasharray:7.0,7.0;"/><polygon fill="#181818" points="964.58,535.22,958.877,527.1903,960.2787,532.6708,954.7982,534.0725,964.58,535.22" style="stroke:#181818;stroke-width:1.0;"/></g><!--link PersistenceContext to InMemoryRepositoryFactory--><g id="link_PersistenceContext_InMemoryRepositoryFactory"><path codeLine="77" d="M727.12,435.9 C716.24,453.07 700.49,473.13 681,484.71 C612.67,525.3 408.4517,551.018 272.2017,564.298 " fill="none" id="PersistenceContext-to-InMemoryRepositoryFactory" style="stroke:#181818;stroke-width:1.0;stroke-dasharray:7.0,7.0;"/><polygon fill="#181818" points="266.23,564.88,275.5756,567.9881,271.2064,564.395,274.7995,560.0258,266.23,564.88" style="stroke:#181818;stroke-width:1.0;"/></g><!--link JpaCategoryRepository to CategoryRepository--><g id="link_JpaCategoryRepository_CategoryRepository"><path codeLine="82" d="M946.02,798.3 C887.21,817.67 820.1367,839.7496 755.2767,861.1096 " fill="none" id="JpaCategoryRepository-to-CategoryRepository" style="stroke:#181818;stroke-width:1.0;"/><polygon fill="none" points="738.18,866.74,757.1535,866.8085,753.4,855.4107,738.18,866.74" style="stroke:#181818;stroke-width:1.0;"/></g><!--link JpaRepositoryFactory to RepositoryFactory--><g id="link_JpaRepositoryFactory_RepositoryFactory"><path codeLine="85" d="M952.61,617.04 C879.56,653.7 788.7182,699.2973 721.2982,733.1273 " fill="none" id="JpaRepositoryFactory-to-RepositoryFactory" style="stroke:#181818;stroke-width:1.0;stroke-dasharray:7.0,7.0;"/><polygon fill="none" points="705.21,741.2,723.9891,738.49,718.6073,727.7645,705.21,741.2" style="stroke:#181818;stroke-width:1.0;"/></g><!--link JpaRepositoryFactory to JpaCategoryRepository--><g id="link_JpaRepositoryFactory_JpaCategoryRepository"><path codeLine="86" d="M1028.96,616.8 C1025.91,656.68 1021.7581,710.8675 1019.2481,743.6475 " fill="none" id="JpaRepositoryFactory-to-JpaCategoryRepository" style="stroke:#181818;stroke-width:1.0;stroke-dasharray:7.0,7.0;"/><polygon fill="#181818" points="1018.79,749.63,1023.4655,740.9617,1019.1717,744.6446,1015.4888,740.3509,1018.79,749.63" style="stroke:#181818;stroke-width:1.0;"/></g><!--link JpaRepositoryFactory to JpaRepositoryFactory--><g id="link_JpaRepositoryFactory_JpaRepositoryFactory"><path codeLine="87" d="M1154.29,563.82 C1174.72,565.55 1188.81,569.68 1188.81,576.19 C1188.81,582.71 1180.6984,586.3208 1160.2684,588.0608 " fill="none" id="JpaRepositoryFactory-to-JpaRepositoryFactory" style="stroke:#181818;stroke-width:1.0;"/><polygon fill="#181818" points="1154.29,588.57,1163.597,591.7918,1159.272,588.1457,1162.9181,583.8207,1154.29,588.57" style="stroke:#181818;stroke-width:1.0;"/><text fill="#000000" font-family="sans-serif" font-size="13" lengthAdjust="spacing" textLength="52.4634" x="1194.81" y="581.2584">instance</text></g><!--link InMemoryCategoryRepository to CategoryRepository--><g id="link_InMemoryCategoryRepository_CategoryRepository"><path codeLine="92" d="M292.02,798.37 C359.8,817.75 439.3733,840.4926 514.0233,861.8326 " fill="none" id="InMemoryCategoryRepository-to-CategoryRepository" style="stroke:#181818;stroke-width:1.0;stroke-dasharray:7.0,7.0;"/><polygon fill="none" points="531.33,866.78,515.6724,856.0637,512.3741,867.6015,531.33,866.78" style="stroke:#181818;stroke-width:1.0;"/></g><!--link InMemoryRepositoryFactory to RepositoryFactory--><g id="link_InMemoryRepositoryFactory_RepositoryFactory"><path codeLine="95" d="M259.77,617.12 C293.52,629.13 330.36,642.6 364,655.68 C434.54,683.12 497.5092,709.771 553.3592,734.021 " fill="none" id="InMemoryRepositoryFactory-to-RepositoryFactory" style="stroke:#181818;stroke-width:1.0;stroke-dasharray:7.0,7.0;"/><polygon fill="none" points="569.87,741.19,555.7489,728.5174,550.9696,739.5246,569.87,741.19" style="stroke:#181818;stroke-width:1.0;"/></g><!--link InMemoryRepositoryFactory to InMemoryCategoryRepository--><g id="link_InMemoryRepositoryFactory_InMemoryCategoryRepository"><path codeLine="96" d="M157.36,616.8 C170.8,656.68 189.1734,711.1644 200.2234,743.9444 " fill="none" id="InMemoryRepositoryFactory-to-InMemoryCategoryRepository" style="stroke:#181818;stroke-width:1.0;stroke-dasharray:7.0,7.0;"/><polygon fill="#181818" points="202.14,749.63,203.0555,739.8238,200.5428,744.892,195.4747,742.3793,202.14,749.63" style="stroke:#181818;stroke-width:1.0;"/></g><!--link InMemoryRepositoryFactory to InMemoryRepositoryFactory--><g id="link_InMemoryRepositoryFactory_InMemoryRepositoryFactory"><path codeLine="97" d="M266.29,563.82 C286.72,565.55 300.81,569.68 300.81,576.19 C300.81,582.71 292.6984,586.3208 272.2684,588.0608 " fill="none" id="InMemoryRepositoryFactory-to-InMemoryRepositoryFactory" style="stroke:#181818;stroke-width:1.0;"/><polygon fill="#181818" points="266.29,588.57,275.597,591.7918,271.272,588.1457,274.9181,583.8207,266.29,588.57" style="stroke:#181818;stroke-width:1.0;"/><text fill="#000000" font-family="sans-serif" font-size="13" lengthAdjust="spacing" textLength="52.4634" x="306.81" y="581.2584">instance</text></g><!--link CategoryRepository to Category--><g id="link_CategoryRepository_Category"><path codeLine="102" d="M640.84,932.09 C639.6,966.24 637.8398,1014.514 636.5298,1050.254 " fill="none" id="CategoryRepository-to-Category" style="stroke:#181818;stroke-width:1.0;stroke-dasharray:7.0,7.0;"/><polygon fill="#181818" points="636.31,1056.25,640.637,1047.4026,636.4931,1051.2534,632.6423,1047.1095,636.31,1056.25" style="stroke:#181818;stroke-width:1.0;"/></g><!--link RepositoryFactory to CategoryRepository--><g id="link_RepositoryFactory_CategoryRepository"><path codeLine="105" d="M642,806.41 C642,824.99 642,842.42 642,860.99 " fill="none" id="RepositoryFactory-to-CategoryRepository" style="stroke:#181818;stroke-width:1.0;stroke-dasharray:7.0,7.0;"/><polygon fill="#181818" points="642,866.99,646,857.99,642,861.99,638,857.99,642,866.99" style="stroke:#181818;stroke-width:1.0;"/></g><!--link Category to IDCategory--><g id="link_Category_IDCategory"><path codeLine="110" d="M590.19,1130.23 C560.69,1153.95 527.3161,1180.7705 500.1761,1202.5905 " fill="none" id="Category-to-IDCategory" style="stroke:#181818;stroke-width:1.0;"/><polygon fill="#181818" points="495.5,1206.35,505.0205,1203.8282,499.3968,1203.2171,500.0078,1197.5933,495.5,1206.35" style="stroke:#181818;stroke-width:1.0;"/><text fill="#000000" font-family="sans-serif" font-size="13" lengthAdjust="spacing" textLength="11.9399" x="554" y="1173.3384">id</text><text fill="#000000" font-family="sans-serif" font-size="13" lengthAdjust="spacing" textLength="8.2202" x="494.1969" y="1196.0269">1</text></g><!--link Category to CategoryStatus--><g id="link_Category_CategoryStatus"><path codeLine="111" d="M631.14,1130.23 C628.59,1154.03 625.9295,1178.7742 623.5895,1200.6042 " fill="none" id="Category-to-CategoryStatus" style="stroke:#181818;stroke-width:1.0;"/><polygon fill="#181818" points="622.95,1206.57,627.8864,1198.0476,623.4829,1201.5985,619.932,1197.1949,622.95,1206.57" style="stroke:#181818;stroke-width:1.0;"/><text fill="#000000" font-family="sans-serif" font-size="13" lengthAdjust="spacing" textLength="92.7456" x="628" y="1173.3384">categoryStatus</text><text fill="#000000" font-family="sans-serif" font-size="13" lengthAdjust="spacing" textLength="8.2202" x="614.7332" y="1195.8468">1</text></g><!--link Category to CategoryName--><g id="link_Category_CategoryName"><path codeLine="112" d="M692.23,1130.16 C704.88,1139.17 717.84,1149.28 729,1159.77 C743.89,1173.76 754.6391,1186.7936 765.4391,1201.5036 " fill="none" id="Category-to-CategoryName" style="stroke:#181818;stroke-width:1.0;"/><polygon fill="#181818" points="768.99,1206.34,766.888,1196.7181,766.0309,1202.3096,760.4394,1201.4526,768.99,1206.34" style="stroke:#181818;stroke-width:1.0;"/><text fill="#000000" font-family="sans-serif" font-size="13" lengthAdjust="spacing" textLength="34.6265" x="746" y="1173.3384">name</text><text fill="#000000" font-family="sans-serif" font-size="13" lengthAdjust="spacing" textLength="8.2202" x="755.9817" y="1196.0147">1</text></g><!--link AddFigureCategoryUI to AddFigureCategoryController--><g id="link_AddFigureCategoryUI_AddFigureCategoryController"><path codeLine="117" d="M744,114.53 C744,139.5 744,166.63 744,191.62 " fill="none" id="AddFigureCategoryUI-to-AddFigureCategoryController" style="stroke:#181818;stroke-width:1.0;stroke-dasharray:7.0,7.0;"/><polygon fill="#181818" points="744,197.62,748,188.62,744,192.62,740,188.62,744,197.62" style="stroke:#181818;stroke-width:1.0;"/></g><!--link AddFigureCategoryController to PersistenceContext--><g id="link_AddFigureCategoryController_PersistenceContext"><path codeLine="122" d="M744,271.45 C744,301.02 744,336.62 744,364.96 " fill="none" id="AddFigureCategoryController-to-PersistenceContext" style="stroke:#181818;stroke-width:1.0;stroke-dasharray:7.0,7.0;"/><polygon fill="#181818" points="744,370.96,748,361.96,744,365.96,740,361.96,744,370.96" style="stroke:#181818;stroke-width:1.0;"/><text fill="#000000" font-family="sans-serif" font-size="13" lengthAdjust="spacing" textLength="141.4067" x="745" y="316.7884">getRepositoryFactory()</text></g><!--link AddFigureCategoryController to RepositoryFactory--><g id="link_AddFigureCategoryController_RepositoryFactory"><path codeLine="123" d="M640.81,271.65 C615.1,285.45 590.26,303.92 574,328.22 C485.51,460.48 578.058,658.6529 620.708,736.1829 " fill="none" id="AddFigureCategoryController-to-RepositoryFactory" style="stroke:#181818;stroke-width:1.0;stroke-dasharray:7.0,7.0;"/><polygon fill="#181818" points="623.6,741.44,622.7668,731.6265,621.19,737.0591,615.7574,735.4824,623.6,741.44" style="stroke:#181818;stroke-width:1.0;"/><text fill="#000000" font-family="sans-serif" font-size="13" lengthAdjust="spacing" textLength="152.1216" x="539" y="481.2784">getCategoryRepository()</text></g><!--link AddFigureCategoryController to CategoryRepository--><g id="link_AddFigureCategoryController_CategoryRepository"><path codeLine="124" d="M859.77,246.43 C1024.28,264.99 1306,310.23 1306,402.46 C1306,402.46 1306,402.46 1306,774.93 C1306,806.74 1281.05,808.94 1252,821.93 C1165.34,860.67 910.5976,882.1147 759.5376,891.8347 " fill="none" id="AddFigureCategoryController-to-CategoryRepository" style="stroke:#181818;stroke-width:1.0;stroke-dasharray:7.0,7.0;"/><polygon fill="#181818" points="753.55,892.22,762.7883,895.6338,758.5397,891.8989,762.2746,887.6503,753.55,892.22" style="stroke:#181818;stroke-width:1.0;"/><text fill="#000000" font-family="sans-serif" font-size="13" lengthAdjust="spacing" textLength="182.0889" x="1307" y="581.2584">addFigureCategory(category)</text></g><!--SRC=[fLPDRvmm4BtpAwpjONSLWTGhYYn5sKQYwaVKQdjtM1UHWa7OI8cQ_FUEmO1PZvrjosNNpCoRUUFnCv8h8ddBEgQQZeX6y2XgMVwB5PnixdadIwcuo651tXs6X_oE23nvnQGabiTj8nH_KiQidojISFMDjuqi0VpvZkNwPxTFYVDoY7cDNgtaxGATb7LR9Oyjmulus387q2eZHXrs-tMTcP2AGQvGUUkSjqpn0eoBjqaAZa4YfQXv3Uuucqny7gnXIbwl_-GruGR8sTmEJSrAOHCPmMO7A_wShdvAc9dk9uFv2j6ToRXLQLhkspdIS5kdyd9RSh7JwQui-evFlhlS_DcVOvkVxUH9RegYumMihBREnklh3qALwfbI-vpCvfrWDTyZstAm47wmgkVawyCZpzM4OxovwEiPxRjYgfVXW7LvNo2xtz_U-6E6J-_DUUEE6G0UCqfNml1MVzTJfgMbQwgATnScNG8W-RBuboAsbiIPdKP4BwRaQJ0YjYIXxdId94TcEGI1YLZ8twiGm0dJLaCE5xQPdySSlr3i6CwGxkcs4LrhahnGZrnv_2bUcZyaZl6Ufg0KesHYZPgqsr2RcZpE4TQmWA0E9BrTyzy33lPVzIyKH0FblX6is-crhdhgC0tD6zgsP6cRWGWq2UU9jNqxtcRdUkxKCd3TlDzOgWm4JxZFMeoNOp-kmp5QZbEYhmGexfYPmZx1GDxt3rMPWn-hcgBd8B9pbPW2QyO1aGHqU-7BOgcgFvlbfBCYufHwFWilmdDtC_Lz65o4XynN6hmOeZy0]--></g></svg>