<?xml version="1.0" encoding="UTF-8" standalone="no"?><svg xmlns="http://www.w3.org/2000/svg" xmlns:xlink="http://www.w3.org/1999/xlink" contentStyleType="text/css" height="390px" preserveAspectRatio="none" style="width:841px;height:390px;background:#FFFFFF;" version="1.1" viewBox="0 0 841 390" width="841px" zoomAndPan="magnify"><defs/><g><!--cluster Category --><g id="cluster_Category "><path d="M8.5,6.7188 L109.5,6.7188 A3.75,3.75 0 0 1 112,9.2188 L119,36.2734 L831.5,36.2734 A2.5,2.5 0 0 1 834,38.7734 L834,380.8788 A2.5,2.5 0 0 1 831.5,383.3788 L8.5,383.3788 A2.5,2.5 0 0 1 6,380.8788 L6,9.2188 A2.5,2.5 0 0 1 8.5,6.7188 " fill="none" style="stroke:#000000;stroke-width:1.5;"/><line style="stroke:#000000;stroke-width:1.5;" x1="6" x2="119" y1="36.2734" y2="36.2734"/><text fill="#000000" font-family="sans-serif" font-size="20" font-weight="bold" lengthAdjust="spacing" textLength="93" x="10" y="28.0547">Category</text><text fill="#000000" font-family="sans-serif" font-size="20" font-style="italic" lengthAdjust="spacing" textLength="115" x="366.5" y="57.6094">«aggregate»</text></g><!--class Category--><g id="elem_Category"><rect codeLine="4" fill="#F1F1F1" height="96.6641" id="Category" rx="2.5" ry="2.5" style="stroke:#181818;stroke-width:0.5;" width="119" x="387.5" y="72.7188"/><ellipse cx="403.5" cy="113.0508" fill="#ADD1B2" rx="12" ry="12" style="stroke:#181818;stroke-width:1.0;"/><path d="M406.3066,120.1309 Q405.623,120.4824 404.8711,120.6582 Q404.1191,120.834 403.2891,120.834 Q400.3398,120.834 398.7871,118.8906 Q397.2344,116.9473 397.2344,113.2754 Q397.2344,109.5938 398.7871,107.6504 Q400.3398,105.707 403.2891,105.707 Q404.1191,105.707 404.8809,105.8828 Q405.6426,106.0586 406.3066,106.4102 L406.3066,109.6133 Q405.5645,108.9297 404.8662,108.6123 Q404.168,108.2949 403.4258,108.2949 Q401.8438,108.2949 401.0381,109.5498 Q400.2324,110.8047 400.2324,113.2754 Q400.2324,115.7363 401.0381,116.9912 Q401.8438,118.2461 403.4258,118.2461 Q404.168,118.2461 404.8662,117.9287 Q405.5645,117.6113 406.3066,116.9277 Z " fill="#000000"/><text fill="#000000" font-family="sans-serif" font-size="20" font-style="italic" lengthAdjust="spacing" textLength="73" x="424.5" y="97.0547">«Entity»</text><text fill="#000000" font-family="sans-serif" font-size="20" font-style="italic" lengthAdjust="spacing" textLength="59" x="431.5" y="120.6094">«root»</text><text fill="#000000" font-family="sans-serif" font-size="20" lengthAdjust="spacing" textLength="85" x="418.5" y="144.1641">Category</text><line style="stroke:#181818;stroke-width:0.5;" x1="388.5" x2="505.5" y1="153.3828" y2="153.3828"/><line style="stroke:#181818;stroke-width:0.5;" x1="388.5" x2="505.5" y1="161.3828" y2="161.3828"/></g><!--class CategoryDescription--><g id="elem_CategoryDescription"><rect codeLine="7" fill="#F1F1F1" height="73.1094" id="CategoryDescription" rx="2.5" ry="2.5" style="stroke:#181818;stroke-width:0.5;" width="229" x="46.5" y="274.3788"/><ellipse cx="62.5" cy="302.9334" fill="#ADD1B2" rx="12" ry="12" style="stroke:#181818;stroke-width:1.0;"/><path d="M65.3066,310.0135 Q64.623,310.3651 63.8711,310.5409 Q63.1191,310.7166 62.2891,310.7166 Q59.3398,310.7166 57.7871,308.7733 Q56.2344,306.8299 56.2344,303.158 Q56.2344,299.4764 57.7871,297.533 Q59.3398,295.5897 62.2891,295.5897 Q63.1191,295.5897 63.8809,295.7655 Q64.6426,295.9413 65.3066,296.2928 L65.3066,299.4959 Q64.5645,298.8123 63.8662,298.495 Q63.168,298.1776 62.4258,298.1776 Q60.8438,298.1776 60.0381,299.4325 Q59.2324,300.6873 59.2324,303.158 Q59.2324,305.619 60.0381,306.8739 Q60.8438,308.1288 62.4258,308.1288 Q63.168,308.1288 63.8662,307.8114 Q64.5645,307.494 65.3066,306.8104 Z " fill="#000000"/><text fill="#000000" font-family="sans-serif" font-size="20" font-style="italic" lengthAdjust="spacing" textLength="142" x="104" y="298.7147">«Value Object»</text><text fill="#000000" font-family="sans-serif" font-size="20" lengthAdjust="spacing" textLength="195" x="77.5" y="322.2694">CategoryDescription</text><line style="stroke:#181818;stroke-width:0.5;" x1="47.5" x2="274.5" y1="331.4881" y2="331.4881"/><line style="stroke:#181818;stroke-width:0.5;" x1="47.5" x2="274.5" y1="339.4881" y2="339.4881"/></g><!--class CategoryStatus--><g id="elem_CategoryStatus"><rect codeLine="10" fill="#F1F1F1" height="73.1094" id="CategoryStatus" rx="2.5" ry="2.5" style="stroke:#181818;stroke-width:0.5;" width="177" x="358.5" y="274.3788"/><ellipse cx="374.5" cy="302.9334" fill="#EB937F" rx="12" ry="12" style="stroke:#181818;stroke-width:1.0;"/><path d="M379.2227,310.4334 L370.1406,310.4334 L370.1406,295.8534 L379.2227,295.8534 L379.2227,298.3924 L373.0215,298.3924 L373.0215,301.537 L378.6367,301.537 L378.6367,304.076 L373.0215,304.076 L373.0215,307.8944 L379.2227,307.8944 Z " fill="#000000"/><text fill="#000000" font-family="sans-serif" font-size="20" font-style="italic" lengthAdjust="spacing" textLength="142" x="390" y="298.7147">«Value Object»</text><text fill="#000000" font-family="sans-serif" font-size="20" lengthAdjust="spacing" textLength="143" x="389.5" y="322.2694">CategoryStatus</text><line style="stroke:#181818;stroke-width:0.5;" x1="359.5" x2="534.5" y1="331.4881" y2="331.4881"/><line style="stroke:#181818;stroke-width:0.5;" x1="359.5" x2="534.5" y1="339.4881" y2="339.4881"/></g><!--class CategoryName--><g id="elem_CategoryName"><rect codeLine="13" fill="#F1F1F1" height="73.1094" id="CategoryName" rx="2.5" ry="2.5" style="stroke:#181818;stroke-width:0.5;" width="175" x="618.5" y="274.3788"/><ellipse cx="634.5" cy="302.9334" fill="#ADD1B2" rx="12" ry="12" style="stroke:#181818;stroke-width:1.0;"/><path d="M637.3066,310.0135 Q636.623,310.3651 635.8711,310.5409 Q635.1191,310.7166 634.2891,310.7166 Q631.3398,310.7166 629.7871,308.7733 Q628.2344,306.8299 628.2344,303.158 Q628.2344,299.4764 629.7871,297.533 Q631.3398,295.5897 634.2891,295.5897 Q635.1191,295.5897 635.8809,295.7655 Q636.6426,295.9413 637.3066,296.2928 L637.3066,299.4959 Q636.5645,298.8123 635.8662,298.495 Q635.168,298.1776 634.4258,298.1776 Q632.8438,298.1776 632.0381,299.4325 Q631.2324,300.6873 631.2324,303.158 Q631.2324,305.619 632.0381,306.8739 Q632.8438,308.1288 634.4258,308.1288 Q635.168,308.1288 635.8662,307.8114 Q636.5645,307.494 637.3066,306.8104 Z " fill="#000000"/><text fill="#000000" font-family="sans-serif" font-size="20" font-style="italic" lengthAdjust="spacing" textLength="142" x="649" y="298.7147">«Value Object»</text><text fill="#000000" font-family="sans-serif" font-size="20" lengthAdjust="spacing" textLength="141" x="649.5" y="322.2694">CategoryName</text><line style="stroke:#181818;stroke-width:0.5;" x1="619.5" x2="792.5" y1="331.4881" y2="331.4881"/><line style="stroke:#181818;stroke-width:0.5;" x1="619.5" x2="792.5" y1="339.4881" y2="339.4881"/></g><!--link Category to CategoryStatus--><g id="link_Category_CategoryStatus"><path codeLine="17" d="M447,169.4488 C447,199.8588 447,238.9788 447,268.1988 " fill="none" id="Category-to-CategoryStatus" style="stroke:#181818;stroke-width:1.0;"/><polygon fill="#181818" points="447,273.1388,451,264.1388,447,268.1388,443,264.1388,447,273.1388" style="stroke:#181818;stroke-width:1.0;"/><text fill="#000000" font-family="sans-serif" font-size="20" lengthAdjust="spacing" textLength="139" x="448" y="219.7147">categoryStatus</text><text fill="#000000" font-family="sans-serif" font-size="20" lengthAdjust="spacing" textLength="13" x="432.8016" y="262.2255">1</text></g><!--link Category to CategoryName--><g id="link_Category_CategoryName"><path codeLine="18" d="M506.77,147.8388 C535.03,161.3188 568.51,179.1988 596,199.3788 C623.81,219.7888 651.19,247.2588 671.68,269.7088 " fill="none" id="Category-to-CategoryName" style="stroke:#181818;stroke-width:1.0;"/><polygon fill="#181818" points="674.93,273.2988,671.8825,263.9332,671.5852,269.5823,665.9361,269.285,674.93,273.2988" style="stroke:#181818;stroke-width:1.0;"/><text fill="#000000" font-family="sans-serif" font-size="20" lengthAdjust="spacing" textLength="53" x="626" y="219.7147">name</text><text fill="#000000" font-family="sans-serif" font-size="20" lengthAdjust="spacing" textLength="13" x="656.4278" y="262.2515">1</text></g><!--link Category to CategoryDescription--><g id="link_Category_CategoryDescription"><path codeLine="19" d="M387.26,161.1688 C368.6,173.3988 347.94,186.9488 329,199.3788 C292.71,223.1988 252.04,249.9588 219.8,271.1688 " fill="none" id="Category-to-CategoryDescription" style="stroke:#181818;stroke-width:1.0;"/><polygon fill="#181818" points="215.97,273.6888,225.6863,272.0784,220.1455,270.9383,221.2856,265.3975,215.97,273.6888" style="stroke:#181818;stroke-width:1.0;"/><text fill="#000000" font-family="sans-serif" font-size="20" lengthAdjust="spacing" textLength="108" x="330" y="219.7147">description</text><text fill="#000000" font-family="sans-serif" font-size="20" lengthAdjust="spacing" textLength="13" x="210.4025" y="262.0716">1</text></g><!--SRC=[VP4_2y8m4CNtV8gZYvEWZgLayS-eGy7zJCyGsoObkO9L_Ewc3jKMwGtXxl5xl4iIIcCRz5XNJfLKG45NR2i-ECkvUH1iLa8qg4hK1CaMcRJp7IIGPQYr9nqLAPz2G2nLOGWmG5csjsouapAstZdkmPvx_SDt59Gt3Hjd8tx6gYKuNMwafZQoRJsuSaPkmxnXd7F4ckRvnN23fOJxH_egKKhMoIG_1JMQvptz1YdOUCvpFo-IndyP1l46]--></g></svg>