<svg xmlns="http://www.w3.org/2000/svg" xmlns:xlink="http://www.w3.org/1999/xlink" contentStyleType="text/css" height="284px" preserveAspectRatio="none" style="width:551px;height:284px;background:#FFFFFF;" version="1.1" viewBox="0 0 551 284" width="551px" zoomAndPan="magnify"><defs/><g><!--cluster Category --><g id="cluster_Category "><path d="M8.5,6 L78.8984,6 A3.75,3.75 0 0 1 81.3984,8.5 L88.3984,28.4883 L541.5,28.4883 A2.5,2.5 0 0 1 544,30.9883 L544,274.87 A2.5,2.5 0 0 1 541.5,277.37 L8.5,277.37 A2.5,2.5 0 0 1 6,274.87 L6,8.5 A2.5,2.5 0 0 1 8.5,6 " fill="none" style="stroke:#000000;stroke-width:1.5;"/><line style="stroke:#000000;stroke-width:1.5;" x1="6" x2="88.3984" y1="28.4883" y2="28.4883"/><text fill="#000000" font-family="sans-serif" font-size="14" font-weight="bold" lengthAdjust="spacing" textLength="64.7842" x="10" y="21.5352">Category</text><text fill="#000000" font-family="sans-serif" font-size="14" font-style="italic" lengthAdjust="spacing" textLength="82.8857" x="237.5571" y="44.0234">&#171;aggregate&#187;</text></g><!--class Category--><g id="elem_Category"><rect codeLine="4" fill="#F1F1F1" height="70.7539" id="Category" rx="2.5" ry="2.5" style="stroke:#181818;stroke-width:0.5;" width="92.8262" x="247.59" y="57"/><ellipse cx="262.59" cy="84.377" fill="#ADD1B2" rx="11" ry="11" style="stroke:#181818;stroke-width:1.0;"/><path d="M265.5631,90.02 Q264.9821,90.3188 264.3429,90.4683 Q263.7038,90.6177 262.9982,90.6177 Q260.4914,90.6177 259.1715,88.9658 Q257.8517,87.314 257.8517,84.1929 Q257.8517,81.0635 259.1715,79.4116 Q260.4914,77.7598 262.9982,77.7598 Q263.7038,77.7598 264.3512,77.9092 Q264.9987,78.0586 265.5631,78.3574 L265.5631,81.0801 Q264.9323,80.499 264.3388,80.2292 Q263.7453,79.9595 263.1144,79.9595 Q261.7697,79.9595 261.0849,81.0261 Q260.4001,82.0928 260.4001,84.1929 Q260.4001,86.2847 261.0849,87.3513 Q261.7697,88.418 263.1144,88.418 Q263.7453,88.418 264.3388,88.1482 Q264.9323,87.8784 265.5631,87.2974 Z " fill="#000000"/><text fill="#000000" font-family="sans-serif" font-size="12" font-style="italic" lengthAdjust="spacing" textLength="45.2402" x="284.383" y="73.6016">&#171;Entity&#187;</text><text fill="#000000" font-family="sans-serif" font-size="12" font-style="italic" lengthAdjust="spacing" textLength="36.7148" x="288.6457" y="87.7344">&#171;root&#187;</text><text fill="#000000" font-family="sans-serif" font-size="14" lengthAdjust="spacing" textLength="60.8262" x="276.59" y="103.8008">Category</text><line style="stroke:#181818;stroke-width:0.5;" x1="248.59" x2="339.4162" y1="111.7539" y2="111.7539"/><line style="stroke:#181818;stroke-width:0.5;" x1="248.59" x2="339.4162" y1="119.7539" y2="119.7539"/></g><!--class CategoryDescription--><g id="elem_CategoryDescription"><rect codeLine="7" fill="#F1F1F1" height="56.6211" id="CategoryDescription" rx="2.5" ry="2.5" style="stroke:#181818;stroke-width:0.5;" width="170.5781" x="21.71" y="204.75"/><ellipse cx="36.71" cy="225.0605" fill="#ADD1B2" rx="11" ry="11" style="stroke:#181818;stroke-width:1.0;"/><path d="M39.6831,230.7036 Q39.1021,231.0024 38.4629,231.1519 Q37.8238,231.3013 37.1182,231.3013 Q34.6114,231.3013 33.2915,229.6494 Q31.9717,227.9976 31.9717,224.8765 Q31.9717,221.7471 33.2915,220.0952 Q34.6114,218.4434 37.1182,218.4434 Q37.8238,218.4434 38.4712,218.5928 Q39.1187,218.7422 39.6831,219.041 L39.6831,221.7637 Q39.0523,221.1826 38.4588,220.9128 Q37.8653,220.6431 37.2344,220.6431 Q35.8897,220.6431 35.2049,221.7097 Q34.5201,222.7764 34.5201,224.8765 Q34.5201,226.9683 35.2049,228.0349 Q35.8897,229.1016 37.2344,229.1016 Q37.8653,229.1016 38.4588,228.8318 Q39.0523,228.562 39.6831,227.981 Z " fill="#000000"/><text fill="#000000" font-family="sans-serif" font-size="12" font-style="italic" lengthAdjust="spacing" textLength="86.291" x="76.8536" y="221.3516">&#171;Value Object&#187;</text><text fill="#000000" font-family="sans-serif" font-size="14" lengthAdjust="spacing" textLength="138.5781" x="50.71" y="237.418">CategoryDescription</text><line style="stroke:#181818;stroke-width:0.5;" x1="22.71" x2="191.2881" y1="245.3711" y2="245.3711"/><line style="stroke:#181818;stroke-width:0.5;" x1="22.71" x2="191.2881" y1="253.3711" y2="253.3711"/></g><!--class CategoryStatus--><g id="elem_CategoryStatus"><rect codeLine="10" fill="#F1F1F1" height="56.6211" id="CategoryStatus" rx="2.5" ry="2.5" style="stroke:#181818;stroke-width:0.5;" width="134.3955" x="226.8" y="204.75"/><ellipse cx="241.8" cy="225.0605" fill="#EB937F" rx="11" ry="11" style="stroke:#181818;stroke-width:1.0;"/><path d="M245.9143,231.0605 L238.1945,231.0605 L238.1945,218.6675 L245.9143,218.6675 L245.9143,220.8257 L240.6433,220.8257 L240.6433,223.4985 L245.4162,223.4985 L245.4162,225.6567 L240.6433,225.6567 L240.6433,228.9023 L245.9143,228.9023 Z " fill="#000000"/><text fill="#000000" font-family="sans-serif" font-size="12" font-style="italic" lengthAdjust="spacing" textLength="86.291" x="263.8522" y="221.3516">&#171;Value Object&#187;</text><text fill="#000000" font-family="sans-serif" font-size="14" lengthAdjust="spacing" textLength="102.3955" x="255.8" y="237.418">CategoryStatus</text><line style="stroke:#181818;stroke-width:0.5;" x1="227.8" x2="360.1955" y1="245.3711" y2="245.3711"/><line style="stroke:#181818;stroke-width:0.5;" x1="227.8" x2="360.1955" y1="253.3711" y2="253.3711"/></g><!--class CategoryName--><g id="elem_CategoryName"><rect codeLine="13" fill="#F1F1F1" height="56.6211" id="CategoryName" rx="2.5" ry="2.5" style="stroke:#181818;stroke-width:0.5;" width="131.7705" x="396.11" y="204.75"/><ellipse cx="411.11" cy="225.0605" fill="#ADD1B2" rx="11" ry="11" style="stroke:#181818;stroke-width:1.0;"/><path d="M414.0831,230.7036 Q413.5021,231.0024 412.8629,231.1519 Q412.2238,231.3013 411.5182,231.3013 Q409.0114,231.3013 407.6915,229.6494 Q406.3717,227.9976 406.3717,224.8765 Q406.3717,221.7471 407.6915,220.0952 Q409.0114,218.4434 411.5182,218.4434 Q412.2238,218.4434 412.8712,218.5928 Q413.5187,218.7422 414.0831,219.041 L414.0831,221.7637 Q413.4523,221.1826 412.8588,220.9128 Q412.2653,220.6431 411.6344,220.6431 Q410.2897,220.6431 409.6049,221.7097 Q408.9201,222.7764 408.9201,224.8765 Q408.9201,226.9683 409.6049,228.0349 Q410.2897,229.1016 411.6344,229.1016 Q412.2653,229.1016 412.8588,228.8318 Q413.4523,228.562 414.0831,227.981 Z " fill="#000000"/><text fill="#000000" font-family="sans-serif" font-size="12" font-style="italic" lengthAdjust="spacing" textLength="86.291" x="431.8497" y="221.3516">&#171;Value Object&#187;</text><text fill="#000000" font-family="sans-serif" font-size="14" lengthAdjust="spacing" textLength="99.7705" x="425.11" y="237.418">CategoryName</text><line style="stroke:#181818;stroke-width:0.5;" x1="397.11" x2="526.8805" y1="245.3711" y2="245.3711"/><line style="stroke:#181818;stroke-width:0.5;" x1="397.11" x2="526.8805" y1="253.3711" y2="253.3711"/></g><!--link Category to CategoryStatus--><g id="link_Category_CategoryStatus"><path codeLine="17" d="M294,128.01 C294,151.6 294,176.41 294,198.36 " fill="none" id="Category-to-CategoryStatus" style="stroke:#181818;stroke-width:1.0;"/><polygon fill="#181818" points="294,204.36,298,195.36,294,199.36,290,195.36,294,204.36" style="stroke:#181818;stroke-width:1.0;"/><text fill="#000000" font-family="sans-serif" font-size="13" lengthAdjust="spacing" textLength="92.7456" x="295" y="171.3184">categoryStatus</text><text fill="#000000" font-family="sans-serif" font-size="13" lengthAdjust="spacing" textLength="8.2202" x="285.1496" y="194.0435">1</text></g><!--link Category to CategoryName--><g id="link_Category_CategoryName"><path codeLine="18" d="M340.85,119.14 C358.87,130.01 379.16,143.45 396,157.75 C412.44,171.71 424.7451,185.119 436.9451,199.929 " fill="none" id="Category-to-CategoryName" style="stroke:#181818;stroke-width:1.0;"/><polygon fill="#181818" points="440.76,204.56,438.125,195.0702,437.5809,200.7008,431.9503,200.1567,440.76,204.56" style="stroke:#181818;stroke-width:1.0;"/><text fill="#000000" font-family="sans-serif" font-size="13" lengthAdjust="spacing" textLength="34.6265" x="414" y="171.3184">name</text><text fill="#000000" font-family="sans-serif" font-size="13" lengthAdjust="spacing" textLength="8.2202" x="426.9498" y="193.8391">1</text></g><!--link Category to CategoryDescription--><g id="link_Category_CategoryDescription"><path codeLine="19" d="M247.29,128.01 C215.49,151.6 178.7695,178.8361 149.1695,200.7861 " fill="none" id="Category-to-CategoryDescription" style="stroke:#181818;stroke-width:1.0;"/><polygon fill="#181818" points="144.35,204.36,153.9618,202.2121,148.3662,201.3818,149.1966,195.7862,144.35,204.36" style="stroke:#181818;stroke-width:1.0;"/><text fill="#000000" font-family="sans-serif" font-size="13" lengthAdjust="spacing" textLength="70.6431" x="207" y="171.3184">description</text><text fill="#000000" font-family="sans-serif" font-size="13" lengthAdjust="spacing" textLength="8.2202" x="143.6696" y="194.0435">1</text></g><!--SRC=[VP0z2y8m48Rt_eeZYvE3QmbPr5K7eViPZn1jav9SmIB-TrE7r1R93SVTo_Do7ptg1ne2iKScuyC80gH4OmAPf2ZrgYf8eLkC4J8avT6nvL6fL0RlUG8dxlqFFr3KmVPilKjuW-r0SBxUIQzjv8OkkowCFCIoOJddX1sL-Ks-OAlW-PLc9KbY9rRpQz2BlkoPDgZ1fLpcVZvImsrkgWy0]--></g></svg>