<svg xmlns="http://www.w3.org/2000/svg" xmlns:xlink="http://www.w3.org/1999/xlink" contentStyleType="text/css" height="284px" preserveAspectRatio="none" style="width:495px;height:284px;background:#FFFFFF;" version="1.1" viewBox="0 0 495 284" width="495px" zoomAndPan="magnify"><defs/><g><!--cluster Category --><g id="cluster_Category "><path d="M8.5,6 L78.8984,6 A3.75,3.75 0 0 1 81.3984,8.5 L88.3984,28.4883 L485.5,28.4883 A2.5,2.5 0 0 1 488,30.9883 L488,274.87 A2.5,2.5 0 0 1 485.5,277.37 L8.5,277.37 A2.5,2.5 0 0 1 6,274.87 L6,8.5 A2.5,2.5 0 0 1 8.5,6 " fill="none" style="stroke:#000000;stroke-width:1.5;"/><line style="stroke:#000000;stroke-width:1.5;" x1="6" x2="88.3984" y1="28.4883" y2="28.4883"/><text fill="#000000" font-family="sans-serif" font-size="14" font-weight="bold" lengthAdjust="spacing" textLength="64.7842" x="10" y="21.5352">Category</text><text fill="#000000" font-family="sans-serif" font-size="14" font-style="italic" lengthAdjust="spacing" textLength="82.8857" x="209.5571" y="44.0234">&#171;aggregate&#187;</text></g><!--class Category--><g id="elem_Category"><rect codeLine="4" fill="#F1F1F1" height="70.7539" id="Category" rx="2.5" ry="2.5" style="stroke:#181818;stroke-width:0.5;" width="92.8262" x="191.59" y="57"/><ellipse cx="206.59" cy="84.377" fill="#ADD1B2" rx="11" ry="11" style="stroke:#181818;stroke-width:1.0;"/><path d="M209.5631,90.02 Q208.9821,90.3188 208.3429,90.4683 Q207.7038,90.6177 206.9982,90.6177 Q204.4914,90.6177 203.1715,88.9658 Q201.8517,87.314 201.8517,84.1929 Q201.8517,81.0635 203.1715,79.4116 Q204.4914,77.7598 206.9982,77.7598 Q207.7038,77.7598 208.3512,77.9092 Q208.9987,78.0586 209.5631,78.3574 L209.5631,81.0801 Q208.9323,80.499 208.3388,80.2292 Q207.7453,79.9595 207.1144,79.9595 Q205.7697,79.9595 205.0849,81.0261 Q204.4001,82.0928 204.4001,84.1929 Q204.4001,86.2847 205.0849,87.3513 Q205.7697,88.418 207.1144,88.418 Q207.7453,88.418 208.3388,88.1482 Q208.9323,87.8784 209.5631,87.2974 Z " fill="#000000"/><text fill="#000000" font-family="sans-serif" font-size="12" font-style="italic" lengthAdjust="spacing" textLength="45.2402" x="228.383" y="73.6016">&#171;Entity&#187;</text><text fill="#000000" font-family="sans-serif" font-size="12" font-style="italic" lengthAdjust="spacing" textLength="36.7148" x="232.6457" y="87.7344">&#171;root&#187;</text><text fill="#000000" font-family="sans-serif" font-size="14" lengthAdjust="spacing" textLength="60.8262" x="220.59" y="103.8008">Category</text><line style="stroke:#181818;stroke-width:0.5;" x1="192.59" x2="283.4162" y1="111.7539" y2="111.7539"/><line style="stroke:#181818;stroke-width:0.5;" x1="192.59" x2="283.4162" y1="119.7539" y2="119.7539"/></g><!--class IDCategory--><g id="elem_IDCategory"><rect codeLine="7" fill="#F1F1F1" height="56.6211" id="IDCategory" rx="2.5" ry="2.5" style="stroke:#181818;stroke-width:0.5;" width="114.291" x="21.85" y="204.75"/><ellipse cx="36.85" cy="225.0605" fill="#ADD1B2" rx="11" ry="11" style="stroke:#181818;stroke-width:1.0;"/><path d="M39.8231,230.7036 Q39.2421,231.0024 38.6029,231.1519 Q37.9638,231.3013 37.2582,231.3013 Q34.7514,231.3013 33.4315,229.6494 Q32.1117,227.9976 32.1117,224.8765 Q32.1117,221.7471 33.4315,220.0952 Q34.7514,218.4434 37.2582,218.4434 Q37.9638,218.4434 38.6112,218.5928 Q39.2587,218.7422 39.8231,219.041 L39.8231,221.7637 Q39.1923,221.1826 38.5988,220.9128 Q38.0053,220.6431 37.3744,220.6431 Q36.0297,220.6431 35.3449,221.7097 Q34.6601,222.7764 34.6601,224.8765 Q34.6601,226.9683 35.3449,228.0349 Q36.0297,229.1016 37.3744,229.1016 Q38.0053,229.1016 38.5988,228.8318 Q39.1923,228.562 39.8231,227.981 Z " fill="#000000"/><text fill="#000000" font-family="sans-serif" font-size="12" font-style="italic" lengthAdjust="spacing" textLength="86.291" x="48.85" y="221.3516">&#171;Value Object&#187;</text><text fill="#000000" font-family="sans-serif" font-size="14" lengthAdjust="spacing" textLength="75.3457" x="54.3227" y="237.418">IDCategory</text><line style="stroke:#181818;stroke-width:0.5;" x1="22.85" x2="135.141" y1="245.3711" y2="245.3711"/><line style="stroke:#181818;stroke-width:0.5;" x1="22.85" x2="135.141" y1="253.3711" y2="253.3711"/></g><!--class CategoryStatus--><g id="elem_CategoryStatus"><rect codeLine="10" fill="#F1F1F1" height="56.6211" id="CategoryStatus" rx="2.5" ry="2.5" style="stroke:#181818;stroke-width:0.5;" width="134.3955" x="170.8" y="204.75"/><ellipse cx="185.8" cy="225.0605" fill="#EB937F" rx="11" ry="11" style="stroke:#181818;stroke-width:1.0;"/><path d="M189.9143,231.0605 L182.1945,231.0605 L182.1945,218.6675 L189.9143,218.6675 L189.9143,220.8257 L184.6433,220.8257 L184.6433,223.4985 L189.4162,223.4985 L189.4162,225.6567 L184.6433,225.6567 L184.6433,228.9023 L189.9143,228.9023 Z " fill="#000000"/><text fill="#000000" font-family="sans-serif" font-size="12" font-style="italic" lengthAdjust="spacing" textLength="86.291" x="207.8522" y="221.3516">&#171;Value Object&#187;</text><text fill="#000000" font-family="sans-serif" font-size="14" lengthAdjust="spacing" textLength="102.3955" x="199.8" y="237.418">CategoryStatus</text><line style="stroke:#181818;stroke-width:0.5;" x1="171.8" x2="304.1955" y1="245.3711" y2="245.3711"/><line style="stroke:#181818;stroke-width:0.5;" x1="171.8" x2="304.1955" y1="253.3711" y2="253.3711"/></g><!--class CategoryName--><g id="elem_CategoryName"><rect codeLine="13" fill="#F1F1F1" height="56.6211" id="CategoryName" rx="2.5" ry="2.5" style="stroke:#181818;stroke-width:0.5;" width="131.7705" x="340.11" y="204.75"/><ellipse cx="355.11" cy="225.0605" fill="#ADD1B2" rx="11" ry="11" style="stroke:#181818;stroke-width:1.0;"/><path d="M358.0831,230.7036 Q357.5021,231.0024 356.8629,231.1519 Q356.2238,231.3013 355.5182,231.3013 Q353.0114,231.3013 351.6915,229.6494 Q350.3717,227.9976 350.3717,224.8765 Q350.3717,221.7471 351.6915,220.0952 Q353.0114,218.4434 355.5182,218.4434 Q356.2238,218.4434 356.8712,218.5928 Q357.5187,218.7422 358.0831,219.041 L358.0831,221.7637 Q357.4523,221.1826 356.8588,220.9128 Q356.2653,220.6431 355.6344,220.6431 Q354.2897,220.6431 353.6049,221.7097 Q352.9201,222.7764 352.9201,224.8765 Q352.9201,226.9683 353.6049,228.0349 Q354.2897,229.1016 355.6344,229.1016 Q356.2653,229.1016 356.8588,228.8318 Q357.4523,228.562 358.0831,227.981 Z " fill="#000000"/><text fill="#000000" font-family="sans-serif" font-size="12" font-style="italic" lengthAdjust="spacing" textLength="86.291" x="375.8497" y="221.3516">&#171;Value Object&#187;</text><text fill="#000000" font-family="sans-serif" font-size="14" lengthAdjust="spacing" textLength="99.7705" x="369.11" y="237.418">CategoryName</text><line style="stroke:#181818;stroke-width:0.5;" x1="341.11" x2="470.8805" y1="245.3711" y2="245.3711"/><line style="stroke:#181818;stroke-width:0.5;" x1="341.11" x2="470.8805" y1="253.3711" y2="253.3711"/></g><!--link Category to IDCategory--><g id="link_Category_IDCategory"><path codeLine="17" d="M198.29,128.01 C171.25,151.6 140.4528,178.4674 115.2728,200.4174 " fill="none" id="Category-to-IDCategory" style="stroke:#181818;stroke-width:1.0;"/><polygon fill="#181818" points="110.75,204.36,120.1626,201.4613,114.519,201.0745,114.9058,195.4309,110.75,204.36" style="stroke:#181818;stroke-width:1.0;"/><text fill="#000000" font-family="sans-serif" font-size="13" lengthAdjust="spacing" textLength="11.9399" x="164" y="171.3184">id</text><text fill="#000000" font-family="sans-serif" font-size="13" lengthAdjust="spacing" textLength="8.2202" x="108.8454" y="194.0435">1</text></g><!--link Category to CategoryStatus--><g id="link_Category_CategoryStatus"><path codeLine="18" d="M238,128.01 C238,151.6 238,176.41 238,198.36 " fill="none" id="Category-to-CategoryStatus" style="stroke:#181818;stroke-width:1.0;"/><polygon fill="#181818" points="238,204.36,242,195.36,238,199.36,234,195.36,238,204.36" style="stroke:#181818;stroke-width:1.0;"/><text fill="#000000" font-family="sans-serif" font-size="13" lengthAdjust="spacing" textLength="92.7456" x="239" y="171.3184">categoryStatus</text><text fill="#000000" font-family="sans-serif" font-size="13" lengthAdjust="spacing" textLength="8.2202" x="229.1496" y="194.0435">1</text></g><!--link Category to CategoryName--><g id="link_Category_CategoryName"><path codeLine="19" d="M284.85,119.14 C302.87,130.01 323.16,143.45 340,157.75 C356.44,171.71 368.7451,185.119 380.9451,199.929 " fill="none" id="Category-to-CategoryName" style="stroke:#181818;stroke-width:1.0;"/><polygon fill="#181818" points="384.76,204.56,382.125,195.0702,381.5809,200.7008,375.9503,200.1567,384.76,204.56" style="stroke:#181818;stroke-width:1.0;"/><text fill="#000000" font-family="sans-serif" font-size="13" lengthAdjust="spacing" textLength="34.6265" x="358" y="171.3184">name</text><text fill="#000000" font-family="sans-serif" font-size="13" lengthAdjust="spacing" textLength="8.2202" x="370.9498" y="193.8391">1</text></g><!--SRC=[AqXCpavCJrLGSauiIKtFBwfKK5AmiKbCJozAJGUAsDbLSt4f045oJc9niG9SaOsDQrv9PacbdHsGMPIVNm9I259NYwpSqmL9GrXYJccgWdzILceokkhKlD9SkDd19OabfSNuDQ2wnYynDnM_UdMuEtJj52h0GWWHe92IeHAIOwqKCbEmgq5revL2CWeVlnwGAwqKye0aM1q0]--></g></svg>