<?xml version="1.0" encoding="UTF-8" standalone="no"?><svg xmlns="http://www.w3.org/2000/svg" xmlns:xlink="http://www.w3.org/1999/xlink" contentStyleType="text/css" height="390px" preserveAspectRatio="none" style="width:841px;height:390px;background:#FFFFFF;" version="1.1" viewBox="0 0 841 390" width="841px" zoomAndPan="magnify"><defs/><g><!--cluster Category --><g id="cluster_Category "><path d="M8.5,6.7188 L109.5,6.7188 A3.75,3.75 0 0 1 112,9.2188 L119,36.2734 L831.5,36.2734 A2.5,2.5 0 0 1 834,38.7734 L834,380.8788 A2.5,2.5 0 0 1 831.5,383.3788 L8.5,383.3788 A2.5,2.5 0 0 1 6,380.8788 L6,9.2188 A2.5,2.5 0 0 1 8.5,6.7188 " fill="none" style="stroke:#000000;stroke-width:1.5;"/><line style="stroke:#000000;stroke-width:1.5;" x1="6" x2="119" y1="36.2734" y2="36.2734"/><text fill="#000000" font-family="sans-serif" font-size="20" font-weight="bold" lengthAdjust="spacing" textLength="93" x="10" y="28.0547">Category</text><text fill="#000000" font-family="sans-serif" font-size="20" font-style="italic" lengthAdjust="spacing" textLength="115" x="366.5" y="57.6094">«aggregate»</text></g><!--class Category--><g id="elem_Category"><rect codeLine="4" fill="#F1F1F1" height="96.6641" id="Category" rx="2.5" ry="2.5" style="stroke:#181818;stroke-width:0.5;" width="119" x="359.5" y="72.7188"/><ellipse cx="375.5" cy="113.0508" fill="#ADD1B2" rx="12" ry="12" style="stroke:#181818;stroke-width:1.0;"/><path d="M378.3066,120.1309 Q377.623,120.4824 376.8711,120.6582 Q376.1191,120.834 375.2891,120.834 Q372.3398,120.834 370.7871,118.8906 Q369.2344,116.9473 369.2344,113.2754 Q369.2344,109.5938 370.7871,107.6504 Q372.3398,105.707 375.2891,105.707 Q376.1191,105.707 376.8809,105.8828 Q377.6426,106.0586 378.3066,106.4102 L378.3066,109.6133 Q377.5645,108.9297 376.8662,108.6123 Q376.168,108.2949 375.4258,108.2949 Q373.8438,108.2949 373.0381,109.5498 Q372.2324,110.8047 372.2324,113.2754 Q372.2324,115.7363 373.0381,116.9912 Q373.8438,118.2461 375.4258,118.2461 Q376.168,118.2461 376.8662,117.9287 Q377.5645,117.6113 378.3066,116.9277 Z " fill="#000000"/><text fill="#000000" font-family="sans-serif" font-size="20" font-style="italic" lengthAdjust="spacing" textLength="73" x="396.5" y="97.0547">«Entity»</text><text fill="#000000" font-family="sans-serif" font-size="20" font-style="italic" lengthAdjust="spacing" textLength="59" x="403.5" y="120.6094">«root»</text><text fill="#000000" font-family="sans-serif" font-size="20" lengthAdjust="spacing" textLength="85" x="390.5" y="144.1641">Category</text><line style="stroke:#181818;stroke-width:0.5;" x1="360.5" x2="477.5" y1="153.3828" y2="153.3828"/><line style="stroke:#181818;stroke-width:0.5;" x1="360.5" x2="477.5" y1="161.3828" y2="161.3828"/></g><!--class CategoryName--><g id="elem_CategoryName"><rect codeLine="7" fill="#F1F1F1" height="73.1094" id="CategoryName" rx="2.5" ry="2.5" style="stroke:#181818;stroke-width:0.5;" width="175" x="46.5" y="274.3788"/><ellipse cx="62.5" cy="302.9334" fill="#ADD1B2" rx="12" ry="12" style="stroke:#181818;stroke-width:1.0;"/><path d="M65.3066,310.0135 Q64.623,310.3651 63.8711,310.5409 Q63.1191,310.7166 62.2891,310.7166 Q59.3398,310.7166 57.7871,308.7733 Q56.2344,306.8299 56.2344,303.158 Q56.2344,299.4764 57.7871,297.533 Q59.3398,295.5897 62.2891,295.5897 Q63.1191,295.5897 63.8809,295.7655 Q64.6426,295.9413 65.3066,296.2928 L65.3066,299.4959 Q64.5645,298.8123 63.8662,298.495 Q63.168,298.1776 62.4258,298.1776 Q60.8438,298.1776 60.0381,299.4325 Q59.2324,300.6873 59.2324,303.158 Q59.2324,305.619 60.0381,306.8739 Q60.8438,308.1288 62.4258,308.1288 Q63.168,308.1288 63.8662,307.8114 Q64.5645,307.494 65.3066,306.8104 Z " fill="#000000"/><text fill="#000000" font-family="sans-serif" font-size="20" font-style="italic" lengthAdjust="spacing" textLength="142" x="77" y="298.7147">«Value Object»</text><text fill="#000000" font-family="sans-serif" font-size="20" lengthAdjust="spacing" textLength="141" x="77.5" y="322.2694">CategoryName</text><line style="stroke:#181818;stroke-width:0.5;" x1="47.5" x2="220.5" y1="331.4881" y2="331.4881"/><line style="stroke:#181818;stroke-width:0.5;" x1="47.5" x2="220.5" y1="339.4881" y2="339.4881"/></g><!--class CategoryDescription--><g id="elem_CategoryDescription"><rect codeLine="10" fill="#F1F1F1" height="73.1094" id="CategoryDescription" rx="2.5" ry="2.5" style="stroke:#181818;stroke-width:0.5;" width="229" x="304.5" y="274.3788"/><ellipse cx="320.5" cy="302.9334" fill="#ADD1B2" rx="12" ry="12" style="stroke:#181818;stroke-width:1.0;"/><path d="M323.3066,310.0135 Q322.623,310.3651 321.8711,310.5409 Q321.1191,310.7166 320.2891,310.7166 Q317.3398,310.7166 315.7871,308.7733 Q314.2344,306.8299 314.2344,303.158 Q314.2344,299.4764 315.7871,297.533 Q317.3398,295.5897 320.2891,295.5897 Q321.1191,295.5897 321.8809,295.7655 Q322.6426,295.9413 323.3066,296.2928 L323.3066,299.4959 Q322.5645,298.8123 321.8662,298.495 Q321.168,298.1776 320.4258,298.1776 Q318.8438,298.1776 318.0381,299.4325 Q317.2324,300.6873 317.2324,303.158 Q317.2324,305.619 318.0381,306.8739 Q318.8438,308.1288 320.4258,308.1288 Q321.168,308.1288 321.8662,307.8114 Q322.5645,307.494 323.3066,306.8104 Z " fill="#000000"/><text fill="#000000" font-family="sans-serif" font-size="20" font-style="italic" lengthAdjust="spacing" textLength="142" x="362" y="298.7147">«Value Object»</text><text fill="#000000" font-family="sans-serif" font-size="20" lengthAdjust="spacing" textLength="195" x="335.5" y="322.2694">CategoryDescription</text><line style="stroke:#181818;stroke-width:0.5;" x1="305.5" x2="532.5" y1="331.4881" y2="331.4881"/><line style="stroke:#181818;stroke-width:0.5;" x1="305.5" x2="532.5" y1="339.4881" y2="339.4881"/></g><!--class CategoryStatus--><g id="elem_CategoryStatus"><rect codeLine="13" fill="#F1F1F1" height="73.1094" id="CategoryStatus" rx="2.5" ry="2.5" style="stroke:#181818;stroke-width:0.5;" width="177" x="616.5" y="274.3788"/><ellipse cx="632.5" cy="302.9334" fill="#EB937F" rx="12" ry="12" style="stroke:#181818;stroke-width:1.0;"/><path d="M637.2227,310.4334 L628.1406,310.4334 L628.1406,295.8534 L637.2227,295.8534 L637.2227,298.3924 L631.0215,298.3924 L631.0215,301.537 L636.6367,301.537 L636.6367,304.076 L631.0215,304.076 L631.0215,307.8944 L637.2227,307.8944 Z " fill="#000000"/><text fill="#000000" font-family="sans-serif" font-size="20" font-style="italic" lengthAdjust="spacing" textLength="142" x="648" y="298.7147">«Value Object»</text><text fill="#000000" font-family="sans-serif" font-size="20" lengthAdjust="spacing" textLength="143" x="647.5" y="322.2694">CategoryStatus</text><line style="stroke:#181818;stroke-width:0.5;" x1="617.5" x2="792.5" y1="331.4881" y2="331.4881"/><line style="stroke:#181818;stroke-width:0.5;" x1="617.5" x2="792.5" y1="339.4881" y2="339.4881"/></g><!--link Category to CategoryName--><g id="link_Category_CategoryName"><path codeLine="17" d="M359.25,161.4188 C310.28,193.6988 241.34,239.1388 192.66,271.2188 " fill="none" id="Category-to-CategoryName" style="stroke:#181818;stroke-width:1.0;"/><polygon fill="#181818" points="188.68,273.8388,198.3976,272.2363,192.8578,271.0917,194.0024,265.5519,188.68,273.8388" style="stroke:#181818;stroke-width:1.0;"/><text fill="#000000" font-family="sans-serif" font-size="20" lengthAdjust="spacing" textLength="53" x="294" y="219.7147">name</text><text fill="#000000" font-family="sans-serif" font-size="20" lengthAdjust="spacing" textLength="13" x="183.0709" y="262.2492">1</text></g><!--link Category to CategoryDescription--><g id="link_Category_CategoryDescription"><path codeLine="18" d="M419,169.4488 C419,199.8588 419,238.9788 419,268.1988 " fill="none" id="Category-to-CategoryDescription" style="stroke:#181818;stroke-width:1.0;"/><polygon fill="#181818" points="419,273.1388,423,264.1388,419,268.1388,415,264.1388,419,273.1388" style="stroke:#181818;stroke-width:1.0;"/><text fill="#000000" font-family="sans-serif" font-size="20" lengthAdjust="spacing" textLength="108" x="420" y="219.7147">description</text><text fill="#000000" font-family="sans-serif" font-size="20" lengthAdjust="spacing" textLength="13" x="404.8016" y="262.2255">1</text></g><!--link Category to CategoryStatus--><g id="link_Category_CategoryStatus"><path codeLine="19" d="M478.74,161.1688 C497.4,173.3988 518.06,186.9488 537,199.3788 C573.29,223.1988 613.96,249.9588 646.2,271.1688 " fill="none" id="Category-to-CategoryStatus" style="stroke:#181818;stroke-width:1.0;"/><polygon fill="#181818" points="650.03,273.6888,644.7144,265.3975,645.8545,270.9383,640.3137,272.0784,650.03,273.6888" style="stroke:#181818;stroke-width:1.0;"/><text fill="#000000" font-family="sans-serif" font-size="20" lengthAdjust="spacing" textLength="139" x="574" y="219.7147">categoryStatus</text><text fill="#000000" font-family="sans-serif" font-size="20" lengthAdjust="spacing" textLength="13" x="627.2006" y="262.0716">1</text></g><!--SRC=[VP1F2y8m3CNl_HHX5q-2UXoZ5_ySzJ3m7hjOwhPsj1aunUzkfp0Lf3c4vF5xy99G6zkXnxPnggOAAZfZt_3EMIxDZM2r4A93LQCcoDR8f9qV88EYGAqzwQX8UHS2Oga6Gu09AegjPSE3b77qpl48ZjpZ7xx7bY9tnAOdE9mkfDByXeBofcFZRDf6jcydLyd8VKWRPjC5SmdNb_HHefGjiv_KETZOqznNsZp-U5hIhdVQ7DJFBfu0]--></g></svg>