<?xml version="1.0" encoding="UTF-8" standalone="no"?><svg xmlns="http://www.w3.org/2000/svg" xmlns:xlink="http://www.w3.org/1999/xlink" contentStyleType="text/css" height="362px" preserveAspectRatio="none" style="width:460px;height:362px;background:#FFFFFF;" version="1.1" viewBox="0 0 460 362" width="460px" zoomAndPan="magnify"><defs/><g><!--cluster Category --><g id="cluster_Category "><path d="M8.5,6.8945 L101.5,6.8945 A3.75,3.75 0 0 1 104,9.3945 L111,38.0508 L450.5,38.0508 A2.5,2.5 0 0 1 453,40.5508 L453,353.3945 A2.5,2.5 0 0 1 450.5,355.8945 L8.5,355.8945 A2.5,2.5 0 0 1 6,353.3945 L6,9.3945 A2.5,2.5 0 0 1 8.5,6.8945 " fill="none" style="stroke:#000000;stroke-width:1.5;"/><line style="stroke:#000000;stroke-width:1.5;" x1="6" x2="111" y1="38.0508" y2="38.0508"/><text fill="#000000" font-family="sans-serif" font-size="20" font-weight="bold" lengthAdjust="spacing" textLength="86" x="10" y="29.6563">Category</text><text fill="#000000" font-family="sans-serif" font-size="20" font-style="italic" lengthAdjust="spacing" textLength="111" x="178" y="60.8125">«aggregate»</text></g><!--class Category--><g id="elem_Category"><rect codeLine="4" fill="#F1F1F1" height="101.4688" id="Category" rx="2.5" ry="2.5" style="stroke:#181818;stroke-width:0.5;" width="115" x="126.5" y="75.8945"/><ellipse cx="142.5" cy="118.6289" fill="#ADD1B2" rx="12" ry="12" style="stroke:#181818;stroke-width:1.0;"/><path d="M144.6406,113.5508 Q144.8281,113.3008 145.0469,113.1758 Q145.2656,113.0352 145.5156,113.0352 Q145.9531,113.0352 146.2344,113.3477 Q146.5156,113.6445 146.5156,114.3633 L146.5156,116.0664 Q146.5156,116.7852 146.2344,117.0977 Q145.9531,117.4102 145.5156,117.4102 Q145.125,117.4102 144.875,117.1758 Q144.625,116.957 144.5156,116.3477 Q144.4531,115.9258 144.2344,115.707 Q143.8438,115.2695 143.125,115.0039 Q142.4063,114.7383 141.6875,114.7383 Q140.7813,114.7383 140.0313,115.1289 Q139.2813,115.5195 138.7031,116.4102 Q138.125,117.2852 138.125,118.4883 L138.125,119.7852 Q138.125,121.2383 139.1719,122.207 Q140.2344,123.1758 142.0938,123.1758 Q143.2031,123.1758 143.9844,122.8633 Q144.4219,122.6914 144.9375,122.1758 Q145.25,121.8633 145.4219,121.7695 Q145.5938,121.6758 145.8281,121.6758 Q146.2188,121.6758 146.5156,121.9883 Q146.8281,122.2852 146.8281,122.6914 Q146.8281,123.0977 146.4219,123.5664 Q145.8281,124.2539 144.8906,124.6445 Q143.625,125.1758 142.1094,125.1758 Q140.3281,125.1758 138.9063,124.4414 Q137.75,123.8477 136.9375,122.582 Q136.125,121.3164 136.125,119.832 L136.125,118.4727 Q136.125,116.9102 136.8438,115.5664 Q137.5781,114.207 138.8594,113.4727 Q140.1563,112.7383 141.6094,112.7383 Q142.4688,112.7383 143.2188,112.9414 Q143.9844,113.1445 144.6406,113.5508 Z " fill="#000000"/><text fill="#000000" font-family="sans-serif" font-size="20" font-style="italic" lengthAdjust="spacing" textLength="71" x="162.5" y="101.6563">«Entity»</text><text fill="#000000" font-family="sans-serif" font-size="20" font-style="italic" lengthAdjust="spacing" textLength="56" x="170" y="126.8125">«root»</text><text fill="#000000" font-family="sans-serif" font-size="20" lengthAdjust="spacing" textLength="81" x="157.5" y="151.9688">Category</text><line style="stroke:#181818;stroke-width:0.5;" x1="127.5" x2="240.5" y1="161.3633" y2="161.3633"/><line style="stroke:#181818;stroke-width:0.5;" x1="127.5" x2="240.5" y1="169.3633" y2="169.3633"/></g><!--class CategoryName--><g id="elem_CategoryName"><rect codeLine="7" fill="#F1F1F1" height="76.3125" id="CategoryName" rx="2.5" ry="2.5" style="stroke:#181818;stroke-width:0.5;" width="166" x="22" y="263.8945"/><ellipse cx="38" cy="294.0508" fill="#ADD1B2" rx="12" ry="12" style="stroke:#181818;stroke-width:1.0;"/><path d="M40.1406,288.9727 Q40.3281,288.7227 40.5469,288.5977 Q40.7656,288.457 41.0156,288.457 Q41.4531,288.457 41.7344,288.7695 Q42.0156,289.0664 42.0156,289.7852 L42.0156,291.4883 Q42.0156,292.207 41.7344,292.5195 Q41.4531,292.832 41.0156,292.832 Q40.625,292.832 40.375,292.5977 Q40.125,292.3789 40.0156,291.7695 Q39.9531,291.3477 39.7344,291.1289 Q39.3438,290.6914 38.625,290.4258 Q37.9063,290.1602 37.1875,290.1602 Q36.2813,290.1602 35.5313,290.5508 Q34.7813,290.9414 34.2031,291.832 Q33.625,292.707 33.625,293.9102 L33.625,295.207 Q33.625,296.6602 34.6719,297.6289 Q35.7344,298.5977 37.5938,298.5977 Q38.7031,298.5977 39.4844,298.2852 Q39.9219,298.1133 40.4375,297.5977 Q40.75,297.2852 40.9219,297.1914 Q41.0938,297.0977 41.3281,297.0977 Q41.7188,297.0977 42.0156,297.4102 Q42.3281,297.707 42.3281,298.1133 Q42.3281,298.5195 41.9219,298.9883 Q41.3281,299.6758 40.3906,300.0664 Q39.125,300.5977 37.6094,300.5977 Q35.8281,300.5977 34.4063,299.8633 Q33.25,299.2695 32.4375,298.0039 Q31.625,296.7383 31.625,295.2539 L31.625,293.8945 Q31.625,292.332 32.3438,290.9883 Q33.0781,289.6289 34.3594,288.8945 Q35.6563,288.1602 37.1094,288.1602 Q37.9688,288.1602 38.7188,288.3633 Q39.4844,288.5664 40.1406,288.9727 Z " fill="#000000"/><text fill="#000000" font-family="sans-serif" font-size="20" font-style="italic" lengthAdjust="spacing" textLength="136" x="51" y="289.6563">«Value Object»</text><text fill="#000000" font-family="sans-serif" font-size="20" lengthAdjust="spacing" textLength="132" x="53" y="314.8125">CategoryName</text><line style="stroke:#181818;stroke-width:0.5;" x1="23" x2="187" y1="324.207" y2="324.207"/><line style="stroke:#181818;stroke-width:0.5;" x1="23" x2="187" y1="332.207" y2="332.207"/></g><!--class CategoryDescription--><g id="elem_CategoryDescription"><rect codeLine="10" fill="#F1F1F1" height="76.3125" id="CategoryDescription" rx="2.5" ry="2.5" style="stroke:#181818;stroke-width:0.5;" width="213" x="223.5" y="263.8945"/><ellipse cx="239.5" cy="294.0508" fill="#ADD1B2" rx="12" ry="12" style="stroke:#181818;stroke-width:1.0;"/><path d="M241.6406,288.9727 Q241.8281,288.7227 242.0469,288.5977 Q242.2656,288.457 242.5156,288.457 Q242.9531,288.457 243.2344,288.7695 Q243.5156,289.0664 243.5156,289.7852 L243.5156,291.4883 Q243.5156,292.207 243.2344,292.5195 Q242.9531,292.832 242.5156,292.832 Q242.125,292.832 241.875,292.5977 Q241.625,292.3789 241.5156,291.7695 Q241.4531,291.3477 241.2344,291.1289 Q240.8438,290.6914 240.125,290.4258 Q239.4063,290.1602 238.6875,290.1602 Q237.7813,290.1602 237.0313,290.5508 Q236.2813,290.9414 235.7031,291.832 Q235.125,292.707 235.125,293.9102 L235.125,295.207 Q235.125,296.6602 236.1719,297.6289 Q237.2344,298.5977 239.0938,298.5977 Q240.2031,298.5977 240.9844,298.2852 Q241.4219,298.1133 241.9375,297.5977 Q242.25,297.2852 242.4219,297.1914 Q242.5938,297.0977 242.8281,297.0977 Q243.2188,297.0977 243.5156,297.4102 Q243.8281,297.707 243.8281,298.1133 Q243.8281,298.5195 243.4219,298.9883 Q242.8281,299.6758 241.8906,300.0664 Q240.625,300.5977 239.1094,300.5977 Q237.3281,300.5977 235.9063,299.8633 Q234.75,299.2695 233.9375,298.0039 Q233.125,296.7383 233.125,295.2539 L233.125,293.8945 Q233.125,292.332 233.8438,290.9883 Q234.5781,289.6289 235.8594,288.8945 Q237.1563,288.1602 238.6094,288.1602 Q239.4688,288.1602 240.2188,288.3633 Q240.9844,288.5664 241.6406,288.9727 Z " fill="#000000"/><text fill="#000000" font-family="sans-serif" font-size="20" font-style="italic" lengthAdjust="spacing" textLength="136" x="276" y="289.6563">«Value Object»</text><text fill="#000000" font-family="sans-serif" font-size="20" lengthAdjust="spacing" textLength="179" x="254.5" y="314.8125">CategoryDescription</text><line style="stroke:#181818;stroke-width:0.5;" x1="224.5" x2="435.5" y1="324.207" y2="324.207"/><line style="stroke:#181818;stroke-width:0.5;" x1="224.5" x2="435.5" y1="332.207" y2="332.207"/></g><!--link Category to CategoryName--><g id="link_Category_CategoryName"><path codeLine="14" d="M161.36,177.1145 C149.56,203.0245 135.3,234.3545 124.07,259.0145 " fill="none" id="Category-to-CategoryName" style="stroke:#181818;stroke-width:1.0;"/><polygon fill="#181818" points="121.86,263.8545,129.2257,257.3164,123.929,259.3027,121.9428,254.006,121.86,263.8545" style="stroke:#181818;stroke-width:1.0;"/><text fill="#000000" font-family="sans-serif" font-size="20" lengthAdjust="spacing" textLength="48" x="147" y="228.6563">name</text><text fill="#000000" font-family="sans-serif" font-size="20" lengthAdjust="spacing" textLength="11" x="112.6705" y="251.549">1</text></g><!--link Category to CategoryDescription--><g id="link_Category_CategoryDescription"><path codeLine="15" d="M225.84,177.1145 C247.91,203.3445 274.67,235.1445 295.54,259.9445 " fill="none" id="Category-to-CategoryDescription" style="stroke:#181818;stroke-width:1.0;"/><polygon fill="#181818" points="298.83,263.8545,296.1066,254.3897,295.615,260.0252,289.9796,259.5336,298.83,263.8545" style="stroke:#181818;stroke-width:1.0;"/><text fill="#000000" font-family="sans-serif" font-size="20" lengthAdjust="spacing" textLength="95" x="271" y="228.6563">description</text><text fill="#000000" font-family="sans-serif" font-size="20" lengthAdjust="spacing" textLength="11" x="281.9857" y="251.549">1</text></g><!--SRC=[VP2z2W8n383tFaNeuYIeur6w-3Fg8BZ7NYprUcrfU-0flhizXrD1BaD8FhwGaDGO5p1YQxrgg8QQBjZPlFCk7ysTOBLWBA1gK1FmDMRIFlR0GGZKEf8kHCe7Or12MKm9Hac8hSiczrAMCdgV1t7mdl_qFRPKl1FQZk1mlfAQzZUKL3GX6- -cnsRZGNC9jpVwa8BualySKO4hUThxMbwLbuqDUm40]--></g></svg>