<?xml version="1.0" encoding="UTF-8" standalone="no"?><svg xmlns="http://www.w3.org/2000/svg" xmlns:xlink="http://www.w3.org/1999/xlink" contentStyleType="text/css" height="694px" preserveAspectRatio="none" style="width:2906px;height:694px;background:#FFFFFF;" version="1.1" viewBox="0 0 2906 694" width="2906px" zoomAndPan="magnify"><defs/><g><!--cluster ShowProposal --><g id="cluster_ShowProposal "><path d="M8.5,6.8945 L151.5,6.8945 A3.75,3.75 0 0 1 154,9.3945 L161,38.0508 L2194.5,38.0508 A2.5,2.5 0 0 1 2197,40.5508 L2197,516.3945 A2.5,2.5 0 0 1 2194.5,518.8945 L8.5,518.8945 A2.5,2.5 0 0 1 6,516.3945 L6,9.3945 A2.5,2.5 0 0 1 8.5,6.8945 " fill="none" style="stroke:#000000;stroke-width:1.5;"/><line style="stroke:#000000;stroke-width:1.5;" x1="6" x2="161" y1="38.0508" y2="38.0508"/><text fill="#000000" font-family="sans-serif" font-size="20" font-weight="bold" lengthAdjust="spacing" textLength="136" x="10" y="29.6563">ShowProposal</text><text fill="#000000" font-family="sans-serif" font-size="20" font-style="italic" lengthAdjust="spacing" textLength="111" x="1050" y="60.8125">«aggregate»</text></g><!--cluster Shared--><g id="cluster_Shared"><path d="M2074.5,551.8945 L2142.5,551.8945 A3.75,3.75 0 0 1 2145,554.3945 L2152,583.0508 L2896.5,583.0508 A2.5,2.5 0 0 1 2899,585.5508 L2899,685.3945 A2.5,2.5 0 0 1 2896.5,687.8945 L2074.5,687.8945 A2.5,2.5 0 0 1 2072,685.3945 L2072,554.3945 A2.5,2.5 0 0 1 2074.5,551.8945 " fill="none" style="stroke:#000000;stroke-width:1.5;"/><line style="stroke:#000000;stroke-width:1.5;" x1="2072" x2="2152" y1="583.0508" y2="583.0508"/><text fill="#000000" font-family="sans-serif" font-size="20" font-weight="bold" lengthAdjust="spacing" textLength="67" x="2076" y="574.6563">Shared</text></g><!--class ShowProposalStatus--><g id="elem_ShowProposalStatus"><rect codeLine="3" fill="#F1F1F1" height="76.3125" id="ShowProposalStatus" rx="2.5" ry="2.5" style="stroke:#181818;stroke-width:0.5;" width="217" x="672.5" y="263.8945"/><ellipse cx="688.5" cy="294.0508" fill="#EB937F" rx="12" ry="12" style="stroke:#181818;stroke-width:1.0;"/><path d="M686.4531,295.1133 L686.4531,298.0508 L691.5469,298.0508 L691.5469,296.957 Q691.5469,296.2383 691.8281,295.9414 Q692.1094,295.6289 692.5625,295.6289 Q693,295.6289 693.2813,295.9414 Q693.5625,296.2383 693.5625,296.957 L693.5625,300.0508 L684.125,300.0508 Q683.4063,300.0508 683.0938,299.7695 Q682.7969,299.4883 682.7969,299.0508 Q682.7969,298.5977 683.1094,298.332 Q683.4219,298.0508 684.125,298.0508 L684.4375,298.0508 L684.4375,290.2227 L684.125,290.2227 Q683.4063,290.2227 683.0938,289.9414 Q682.7969,289.6602 682.7969,289.207 Q682.7969,288.7539 683.0938,288.4883 Q683.4063,288.207 684.125,288.207 L693.1094,288.207 L693.1094,291.2539 Q693.1094,291.9727 692.8281,292.2852 Q692.5625,292.582 692.125,292.582 Q691.6719,292.582 691.3906,292.2852 Q691.1094,291.9883 691.1094,291.2539 L691.1094,290.2227 L686.4531,290.2227 L686.4531,293.1133 L688.2031,293.1133 Q688.2031,292.332 688.3438,292.0977 Q688.6563,291.6289 689.2031,291.6289 Q689.6563,291.6289 689.9219,291.9414 Q690.2031,292.2383 690.2031,292.957 L690.2031,295.2695 Q690.2031,295.9258 690.0469,296.1445 Q689.7344,296.5977 689.2031,296.5977 Q688.6563,296.5977 688.3438,296.1289 Q688.2031,295.8945 688.2031,295.1133 L686.4531,295.1133 Z " fill="#000000"/><text fill="#000000" font-family="sans-serif" font-size="20" font-style="italic" lengthAdjust="spacing" textLength="136" x="727" y="289.6563">«Value Object»</text><text fill="#000000" font-family="sans-serif" font-size="20" lengthAdjust="spacing" textLength="183" x="703.5" y="314.8125">ShowProposalStatus</text><line style="stroke:#181818;stroke-width:0.5;" x1="673.5" x2="888.5" y1="324.207" y2="324.207"/><line style="stroke:#181818;stroke-width:0.5;" x1="673.5" x2="888.5" y1="332.207" y2="332.207"/></g><!--class ShowProposal--><g id="elem_ShowProposal"><rect codeLine="6" fill="#F1F1F1" height="101.4688" id="ShowProposal" rx="2.5" ry="2.5" style="stroke:#181818;stroke-width:0.5;" width="161" x="1633.5" y="75.8945"/><ellipse cx="1649.5" cy="118.6289" fill="#ADD1B2" rx="12" ry="12" style="stroke:#181818;stroke-width:1.0;"/><path d="M1651.6406,113.5508 Q1651.8281,113.3008 1652.0469,113.1758 Q1652.2656,113.0352 1652.5156,113.0352 Q1652.9531,113.0352 1653.2344,113.3477 Q1653.5156,113.6445 1653.5156,114.3633 L1653.5156,116.0664 Q1653.5156,116.7852 1653.2344,117.0977 Q1652.9531,117.4102 1652.5156,117.4102 Q1652.125,117.4102 1651.875,117.1758 Q1651.625,116.957 1651.5156,116.3477 Q1651.4531,115.9258 1651.2344,115.707 Q1650.8438,115.2695 1650.125,115.0039 Q1649.4063,114.7383 1648.6875,114.7383 Q1647.7813,114.7383 1647.0313,115.1289 Q1646.2813,115.5195 1645.7031,116.4102 Q1645.125,117.2852 1645.125,118.4883 L1645.125,119.7852 Q1645.125,121.2383 1646.1719,122.207 Q1647.2344,123.1758 1649.0938,123.1758 Q1650.2031,123.1758 1650.9844,122.8633 Q1651.4219,122.6914 1651.9375,122.1758 Q1652.25,121.8633 1652.4219,121.7695 Q1652.5938,121.6758 1652.8281,121.6758 Q1653.2188,121.6758 1653.5156,121.9883 Q1653.8281,122.2852 1653.8281,122.6914 Q1653.8281,123.0977 1653.4219,123.5664 Q1652.8281,124.2539 1651.8906,124.6445 Q1650.625,125.1758 1649.1094,125.1758 Q1647.3281,125.1758 1645.9063,124.4414 Q1644.75,123.8477 1643.9375,122.582 Q1643.125,121.3164 1643.125,119.832 L1643.125,118.4727 Q1643.125,116.9102 1643.8438,115.5664 Q1644.5781,114.207 1645.8594,113.4727 Q1647.1563,112.7383 1648.6094,112.7383 Q1649.4688,112.7383 1650.2188,112.9414 Q1650.9844,113.1445 1651.6406,113.5508 Z " fill="#000000"/><text fill="#000000" font-family="sans-serif" font-size="20" font-style="italic" lengthAdjust="spacing" textLength="71" x="1692.5" y="101.6563">«Entity»</text><text fill="#000000" font-family="sans-serif" font-size="20" font-style="italic" lengthAdjust="spacing" textLength="56" x="1700" y="126.8125">«root»</text><text fill="#000000" font-family="sans-serif" font-size="20" lengthAdjust="spacing" textLength="127" x="1664.5" y="151.9688">ShowProposal</text><line style="stroke:#181818;stroke-width:0.5;" x1="1634.5" x2="1793.5" y1="161.3633" y2="161.3633"/><line style="stroke:#181818;stroke-width:0.5;" x1="1634.5" x2="1793.5" y1="169.3633" y2="169.3633"/></g><!--class ShowProposalDocument--><g id="elem_ShowProposalDocument"><rect codeLine="9" fill="#F1F1F1" height="76.3125" id="ShowProposalDocument" rx="2.5" ry="2.5" style="stroke:#181818;stroke-width:0.5;" width="249" x="388.5" y="263.8945"/><ellipse cx="404.5" cy="294.0508" fill="#ADD1B2" rx="12" ry="12" style="stroke:#181818;stroke-width:1.0;"/><path d="M406.6406,288.9727 Q406.8281,288.7227 407.0469,288.5977 Q407.2656,288.457 407.5156,288.457 Q407.9531,288.457 408.2344,288.7695 Q408.5156,289.0664 408.5156,289.7852 L408.5156,291.4883 Q408.5156,292.207 408.2344,292.5195 Q407.9531,292.832 407.5156,292.832 Q407.125,292.832 406.875,292.5977 Q406.625,292.3789 406.5156,291.7695 Q406.4531,291.3477 406.2344,291.1289 Q405.8438,290.6914 405.125,290.4258 Q404.4063,290.1602 403.6875,290.1602 Q402.7813,290.1602 402.0313,290.5508 Q401.2813,290.9414 400.7031,291.832 Q400.125,292.707 400.125,293.9102 L400.125,295.207 Q400.125,296.6602 401.1719,297.6289 Q402.2344,298.5977 404.0938,298.5977 Q405.2031,298.5977 405.9844,298.2852 Q406.4219,298.1133 406.9375,297.5977 Q407.25,297.2852 407.4219,297.1914 Q407.5938,297.0977 407.8281,297.0977 Q408.2188,297.0977 408.5156,297.4102 Q408.8281,297.707 408.8281,298.1133 Q408.8281,298.5195 408.4219,298.9883 Q407.8281,299.6758 406.8906,300.0664 Q405.625,300.5977 404.1094,300.5977 Q402.3281,300.5977 400.9063,299.8633 Q399.75,299.2695 398.9375,298.0039 Q398.125,296.7383 398.125,295.2539 L398.125,293.8945 Q398.125,292.332 398.8438,290.9883 Q399.5781,289.6289 400.8594,288.8945 Q402.1563,288.1602 403.6094,288.1602 Q404.4688,288.1602 405.2188,288.3633 Q405.9844,288.5664 406.6406,288.9727 Z " fill="#000000"/><text fill="#000000" font-family="sans-serif" font-size="20" font-style="italic" lengthAdjust="spacing" textLength="136" x="459" y="289.6563">«Value Object»</text><text fill="#000000" font-family="sans-serif" font-size="20" lengthAdjust="spacing" textLength="215" x="419.5" y="314.8125">ShowProposalDocument</text><line style="stroke:#181818;stroke-width:0.5;" x1="389.5" x2="636.5" y1="324.207" y2="324.207"/><line style="stroke:#181818;stroke-width:0.5;" x1="389.5" x2="636.5" y1="332.207" y2="332.207"/></g><!--class ShowProposalNumber--><g id="elem_ShowProposalNumber"><rect codeLine="12" fill="#F1F1F1" height="76.3125" id="ShowProposalNumber" rx="2.5" ry="2.5" style="stroke:#181818;stroke-width:0.5;" width="229" x="924.5" y="263.8945"/><ellipse cx="940.5" cy="294.0508" fill="#ADD1B2" rx="12" ry="12" style="stroke:#181818;stroke-width:1.0;"/><path d="M942.6406,288.9727 Q942.8281,288.7227 943.0469,288.5977 Q943.2656,288.457 943.5156,288.457 Q943.9531,288.457 944.2344,288.7695 Q944.5156,289.0664 944.5156,289.7852 L944.5156,291.4883 Q944.5156,292.207 944.2344,292.5195 Q943.9531,292.832 943.5156,292.832 Q943.125,292.832 942.875,292.5977 Q942.625,292.3789 942.5156,291.7695 Q942.4531,291.3477 942.2344,291.1289 Q941.8438,290.6914 941.125,290.4258 Q940.4063,290.1602 939.6875,290.1602 Q938.7813,290.1602 938.0313,290.5508 Q937.2813,290.9414 936.7031,291.832 Q936.125,292.707 936.125,293.9102 L936.125,295.207 Q936.125,296.6602 937.1719,297.6289 Q938.2344,298.5977 940.0938,298.5977 Q941.2031,298.5977 941.9844,298.2852 Q942.4219,298.1133 942.9375,297.5977 Q943.25,297.2852 943.4219,297.1914 Q943.5938,297.0977 943.8281,297.0977 Q944.2188,297.0977 944.5156,297.4102 Q944.8281,297.707 944.8281,298.1133 Q944.8281,298.5195 944.4219,298.9883 Q943.8281,299.6758 942.8906,300.0664 Q941.625,300.5977 940.1094,300.5977 Q938.3281,300.5977 936.9063,299.8633 Q935.75,299.2695 934.9375,298.0039 Q934.125,296.7383 934.125,295.2539 L934.125,293.8945 Q934.125,292.332 934.8438,290.9883 Q935.5781,289.6289 936.8594,288.8945 Q938.1563,288.1602 939.6094,288.1602 Q940.4688,288.1602 941.2188,288.3633 Q941.9844,288.5664 942.6406,288.9727 Z " fill="#000000"/><text fill="#000000" font-family="sans-serif" font-size="20" font-style="italic" lengthAdjust="spacing" textLength="136" x="985" y="289.6563">«Value Object»</text><text fill="#000000" font-family="sans-serif" font-size="20" lengthAdjust="spacing" textLength="195" x="955.5" y="314.8125">ShowProposalNumber</text><line style="stroke:#181818;stroke-width:0.5;" x1="925.5" x2="1152.5" y1="324.207" y2="324.207"/><line style="stroke:#181818;stroke-width:0.5;" x1="925.5" x2="1152.5" y1="332.207" y2="332.207"/></g><!--class Insurance--><g id="elem_Insurance"><rect codeLine="15" fill="#F1F1F1" height="76.3125" id="Insurance" rx="2.5" ry="2.5" style="stroke:#181818;stroke-width:0.5;" width="166" x="1189" y="263.8945"/><ellipse cx="1205" cy="294.0508" fill="#ADD1B2" rx="12" ry="12" style="stroke:#181818;stroke-width:1.0;"/><path d="M1207.1406,288.9727 Q1207.3281,288.7227 1207.5469,288.5977 Q1207.7656,288.457 1208.0156,288.457 Q1208.4531,288.457 1208.7344,288.7695 Q1209.0156,289.0664 1209.0156,289.7852 L1209.0156,291.4883 Q1209.0156,292.207 1208.7344,292.5195 Q1208.4531,292.832 1208.0156,292.832 Q1207.625,292.832 1207.375,292.5977 Q1207.125,292.3789 1207.0156,291.7695 Q1206.9531,291.3477 1206.7344,291.1289 Q1206.3438,290.6914 1205.625,290.4258 Q1204.9063,290.1602 1204.1875,290.1602 Q1203.2813,290.1602 1202.5313,290.5508 Q1201.7813,290.9414 1201.2031,291.832 Q1200.625,292.707 1200.625,293.9102 L1200.625,295.207 Q1200.625,296.6602 1201.6719,297.6289 Q1202.7344,298.5977 1204.5938,298.5977 Q1205.7031,298.5977 1206.4844,298.2852 Q1206.9219,298.1133 1207.4375,297.5977 Q1207.75,297.2852 1207.9219,297.1914 Q1208.0938,297.0977 1208.3281,297.0977 Q1208.7188,297.0977 1209.0156,297.4102 Q1209.3281,297.707 1209.3281,298.1133 Q1209.3281,298.5195 1208.9219,298.9883 Q1208.3281,299.6758 1207.3906,300.0664 Q1206.125,300.5977 1204.6094,300.5977 Q1202.8281,300.5977 1201.4063,299.8633 Q1200.25,299.2695 1199.4375,298.0039 Q1198.625,296.7383 1198.625,295.2539 L1198.625,293.8945 Q1198.625,292.332 1199.3438,290.9883 Q1200.0781,289.6289 1201.3594,288.8945 Q1202.6563,288.1602 1204.1094,288.1602 Q1204.9688,288.1602 1205.7188,288.3633 Q1206.4844,288.5664 1207.1406,288.9727 Z " fill="#000000"/><text fill="#000000" font-family="sans-serif" font-size="20" font-style="italic" lengthAdjust="spacing" textLength="136" x="1218" y="289.6563">«Value Object»</text><text fill="#000000" font-family="sans-serif" font-size="20" lengthAdjust="spacing" textLength="85" x="1243.5" y="314.8125">Insurance</text><line style="stroke:#181818;stroke-width:0.5;" x1="1190" x2="1354" y1="324.207" y2="324.207"/><line style="stroke:#181818;stroke-width:0.5;" x1="1190" x2="1354" y1="332.207" y2="332.207"/></g><!--class CustomerFeedback--><g id="elem_CustomerFeedback"><rect codeLine="18" fill="#F1F1F1" height="76.3125" id="CustomerFeedback" rx="2.5" ry="2.5" style="stroke:#181818;stroke-width:0.5;" width="206" x="1390" y="263.8945"/><ellipse cx="1406" cy="294.0508" fill="#ADD1B2" rx="12" ry="12" style="stroke:#181818;stroke-width:1.0;"/><path d="M1408.1406,288.9727 Q1408.3281,288.7227 1408.5469,288.5977 Q1408.7656,288.457 1409.0156,288.457 Q1409.4531,288.457 1409.7344,288.7695 Q1410.0156,289.0664 1410.0156,289.7852 L1410.0156,291.4883 Q1410.0156,292.207 1409.7344,292.5195 Q1409.4531,292.832 1409.0156,292.832 Q1408.625,292.832 1408.375,292.5977 Q1408.125,292.3789 1408.0156,291.7695 Q1407.9531,291.3477 1407.7344,291.1289 Q1407.3438,290.6914 1406.625,290.4258 Q1405.9063,290.1602 1405.1875,290.1602 Q1404.2813,290.1602 1403.5313,290.5508 Q1402.7813,290.9414 1402.2031,291.832 Q1401.625,292.707 1401.625,293.9102 L1401.625,295.207 Q1401.625,296.6602 1402.6719,297.6289 Q1403.7344,298.5977 1405.5938,298.5977 Q1406.7031,298.5977 1407.4844,298.2852 Q1407.9219,298.1133 1408.4375,297.5977 Q1408.75,297.2852 1408.9219,297.1914 Q1409.0938,297.0977 1409.3281,297.0977 Q1409.7188,297.0977 1410.0156,297.4102 Q1410.3281,297.707 1410.3281,298.1133 Q1410.3281,298.5195 1409.9219,298.9883 Q1409.3281,299.6758 1408.3906,300.0664 Q1407.125,300.5977 1405.6094,300.5977 Q1403.8281,300.5977 1402.4063,299.8633 Q1401.25,299.2695 1400.4375,298.0039 Q1399.625,296.7383 1399.625,295.2539 L1399.625,293.8945 Q1399.625,292.332 1400.3438,290.9883 Q1401.0781,289.6289 1402.3594,288.8945 Q1403.6563,288.1602 1405.1094,288.1602 Q1405.9688,288.1602 1406.7188,288.3633 Q1407.4844,288.5664 1408.1406,288.9727 Z " fill="#000000"/><text fill="#000000" font-family="sans-serif" font-size="20" font-style="italic" lengthAdjust="spacing" textLength="136" x="1439" y="289.6563">«Value Object»</text><text fill="#000000" font-family="sans-serif" font-size="20" lengthAdjust="spacing" textLength="172" x="1421" y="314.8125">CustomerFeedback</text><line style="stroke:#181818;stroke-width:0.5;" x1="1391" x2="1595" y1="324.207" y2="324.207"/><line style="stroke:#181818;stroke-width:0.5;" x1="1391" x2="1595" y1="332.207" y2="332.207"/></g><!--class ShowConfiguration--><g id="elem_ShowConfiguration"><rect codeLine="21" fill="#F1F1F1" height="76.3125" id="ShowConfiguration" rx="2.5" ry="2.5" style="stroke:#181818;stroke-width:0.5;" width="198" x="155" y="263.8945"/><ellipse cx="171" cy="294.0508" fill="#ADD1B2" rx="12" ry="12" style="stroke:#181818;stroke-width:1.0;"/><path d="M173.1406,288.9727 Q173.3281,288.7227 173.5469,288.5977 Q173.7656,288.457 174.0156,288.457 Q174.4531,288.457 174.7344,288.7695 Q175.0156,289.0664 175.0156,289.7852 L175.0156,291.4883 Q175.0156,292.207 174.7344,292.5195 Q174.4531,292.832 174.0156,292.832 Q173.625,292.832 173.375,292.5977 Q173.125,292.3789 173.0156,291.7695 Q172.9531,291.3477 172.7344,291.1289 Q172.3438,290.6914 171.625,290.4258 Q170.9063,290.1602 170.1875,290.1602 Q169.2813,290.1602 168.5313,290.5508 Q167.7813,290.9414 167.2031,291.832 Q166.625,292.707 166.625,293.9102 L166.625,295.207 Q166.625,296.6602 167.6719,297.6289 Q168.7344,298.5977 170.5938,298.5977 Q171.7031,298.5977 172.4844,298.2852 Q172.9219,298.1133 173.4375,297.5977 Q173.75,297.2852 173.9219,297.1914 Q174.0938,297.0977 174.3281,297.0977 Q174.7188,297.0977 175.0156,297.4102 Q175.3281,297.707 175.3281,298.1133 Q175.3281,298.5195 174.9219,298.9883 Q174.3281,299.6758 173.3906,300.0664 Q172.125,300.5977 170.6094,300.5977 Q168.8281,300.5977 167.4063,299.8633 Q166.25,299.2695 165.4375,298.0039 Q164.625,296.7383 164.625,295.2539 L164.625,293.8945 Q164.625,292.332 165.3438,290.9883 Q166.0781,289.6289 167.3594,288.8945 Q168.6563,288.1602 170.1094,288.1602 Q170.9688,288.1602 171.7188,288.3633 Q172.4844,288.5664 173.1406,288.9727 Z " fill="#000000"/><text fill="#000000" font-family="sans-serif" font-size="20" font-style="italic" lengthAdjust="spacing" textLength="71" x="232.5" y="289.6563">«Entity»</text><text fill="#000000" font-family="sans-serif" font-size="20" lengthAdjust="spacing" textLength="164" x="186" y="314.8125">ShowConfiguration</text><line style="stroke:#181818;stroke-width:0.5;" x1="156" x2="352" y1="324.207" y2="324.207"/><line style="stroke:#181818;stroke-width:0.5;" x1="156" x2="352" y1="332.207" y2="332.207"/></g><!--class Video--><g id="elem_Video"><rect codeLine="24" fill="#F1F1F1" height="76.3125" id="Video" rx="2.5" ry="2.5" style="stroke:#181818;stroke-width:0.5;" width="166" x="1631" y="263.8945"/><ellipse cx="1647" cy="294.0508" fill="#ADD1B2" rx="12" ry="12" style="stroke:#181818;stroke-width:1.0;"/><path d="M1649.1406,288.9727 Q1649.3281,288.7227 1649.5469,288.5977 Q1649.7656,288.457 1650.0156,288.457 Q1650.4531,288.457 1650.7344,288.7695 Q1651.0156,289.0664 1651.0156,289.7852 L1651.0156,291.4883 Q1651.0156,292.207 1650.7344,292.5195 Q1650.4531,292.832 1650.0156,292.832 Q1649.625,292.832 1649.375,292.5977 Q1649.125,292.3789 1649.0156,291.7695 Q1648.9531,291.3477 1648.7344,291.1289 Q1648.3438,290.6914 1647.625,290.4258 Q1646.9063,290.1602 1646.1875,290.1602 Q1645.2813,290.1602 1644.5313,290.5508 Q1643.7813,290.9414 1643.2031,291.832 Q1642.625,292.707 1642.625,293.9102 L1642.625,295.207 Q1642.625,296.6602 1643.6719,297.6289 Q1644.7344,298.5977 1646.5938,298.5977 Q1647.7031,298.5977 1648.4844,298.2852 Q1648.9219,298.1133 1649.4375,297.5977 Q1649.75,297.2852 1649.9219,297.1914 Q1650.0938,297.0977 1650.3281,297.0977 Q1650.7188,297.0977 1651.0156,297.4102 Q1651.3281,297.707 1651.3281,298.1133 Q1651.3281,298.5195 1650.9219,298.9883 Q1650.3281,299.6758 1649.3906,300.0664 Q1648.125,300.5977 1646.6094,300.5977 Q1644.8281,300.5977 1643.4063,299.8633 Q1642.25,299.2695 1641.4375,298.0039 Q1640.625,296.7383 1640.625,295.2539 L1640.625,293.8945 Q1640.625,292.332 1641.3438,290.9883 Q1642.0781,289.6289 1643.3594,288.8945 Q1644.6563,288.1602 1646.1094,288.1602 Q1646.9688,288.1602 1647.7188,288.3633 Q1648.4844,288.5664 1649.1406,288.9727 Z " fill="#000000"/><text fill="#000000" font-family="sans-serif" font-size="20" font-style="italic" lengthAdjust="spacing" textLength="136" x="1660" y="289.6563">«Value Object»</text><text fill="#000000" font-family="sans-serif" font-size="20" lengthAdjust="spacing" textLength="50" x="1703" y="314.8125">Video</text><line style="stroke:#181818;stroke-width:0.5;" x1="1632" x2="1796" y1="324.207" y2="324.207"/><line style="stroke:#181818;stroke-width:0.5;" x1="1632" x2="1796" y1="332.207" y2="332.207"/></g><!--class DocumentValidate--><g id="elem_DocumentValidate"><rect codeLine="27" fill="#F1F1F1" height="76.3125" id="DocumentValidate" rx="2.5" ry="2.5" style="stroke:#181818;stroke-width:0.5;" width="193" x="416.5" y="88.3945"/><ellipse cx="432.5" cy="118.5508" fill="#ADD1B2" rx="12" ry="12" style="stroke:#181818;stroke-width:1.0;"/><path d="M434.6406,113.4727 Q434.8281,113.2227 435.0469,113.0977 Q435.2656,112.957 435.5156,112.957 Q435.9531,112.957 436.2344,113.2695 Q436.5156,113.5664 436.5156,114.2852 L436.5156,115.9883 Q436.5156,116.707 436.2344,117.0195 Q435.9531,117.332 435.5156,117.332 Q435.125,117.332 434.875,117.0977 Q434.625,116.8789 434.5156,116.2695 Q434.4531,115.8477 434.2344,115.6289 Q433.8438,115.1914 433.125,114.9258 Q432.4063,114.6602 431.6875,114.6602 Q430.7813,114.6602 430.0313,115.0508 Q429.2813,115.4414 428.7031,116.332 Q428.125,117.207 428.125,118.4102 L428.125,119.707 Q428.125,121.1602 429.1719,122.1289 Q430.2344,123.0977 432.0938,123.0977 Q433.2031,123.0977 433.9844,122.7852 Q434.4219,122.6133 434.9375,122.0977 Q435.25,121.7852 435.4219,121.6914 Q435.5938,121.5977 435.8281,121.5977 Q436.2188,121.5977 436.5156,121.9102 Q436.8281,122.207 436.8281,122.6133 Q436.8281,123.0195 436.4219,123.4883 Q435.8281,124.1758 434.8906,124.5664 Q433.625,125.0977 432.1094,125.0977 Q430.3281,125.0977 428.9063,124.3633 Q427.75,123.7695 426.9375,122.5039 Q426.125,121.2383 426.125,119.7539 L426.125,118.3945 Q426.125,116.832 426.8438,115.4883 Q427.5781,114.1289 428.8594,113.3945 Q430.1563,112.6602 431.6094,112.6602 Q432.4688,112.6602 433.2188,112.8633 Q433.9844,113.0664 434.6406,113.4727 Z " fill="#000000"/><text fill="#000000" font-family="sans-serif" font-size="20" font-style="italic" lengthAdjust="spacing" textLength="89" x="482.5" y="114.1563">«Service»</text><text fill="#000000" font-family="sans-serif" font-size="20" lengthAdjust="spacing" textLength="159" x="447.5" y="139.3125">DocumentValidate</text><line style="stroke:#181818;stroke-width:0.5;" x1="417.5" x2="608.5" y1="148.707" y2="148.707"/><line style="stroke:#181818;stroke-width:0.5;" x1="417.5" x2="608.5" y1="156.707" y2="156.707"/></g><!--class ShowDSLDescription--><g id="elem_ShowDSLDescription"><rect codeLine="30" fill="#F1F1F1" height="76.3125" id="ShowDSLDescription" rx="2.5" ry="2.5" style="stroke:#181818;stroke-width:0.5;" width="219" x="83.5" y="426.8945"/><ellipse cx="99.5" cy="457.0508" fill="#ADD1B2" rx="12" ry="12" style="stroke:#181818;stroke-width:1.0;"/><path d="M101.6406,451.9727 Q101.8281,451.7227 102.0469,451.5977 Q102.2656,451.457 102.5156,451.457 Q102.9531,451.457 103.2344,451.7695 Q103.5156,452.0664 103.5156,452.7852 L103.5156,454.4883 Q103.5156,455.207 103.2344,455.5195 Q102.9531,455.832 102.5156,455.832 Q102.125,455.832 101.875,455.5977 Q101.625,455.3789 101.5156,454.7695 Q101.4531,454.3477 101.2344,454.1289 Q100.8438,453.6914 100.125,453.4258 Q99.4063,453.1602 98.6875,453.1602 Q97.7813,453.1602 97.0313,453.5508 Q96.2813,453.9414 95.7031,454.832 Q95.125,455.707 95.125,456.9102 L95.125,458.207 Q95.125,459.6602 96.1719,460.6289 Q97.2344,461.5977 99.0938,461.5977 Q100.2031,461.5977 100.9844,461.2852 Q101.4219,461.1133 101.9375,460.5977 Q102.25,460.2852 102.4219,460.1914 Q102.5938,460.0977 102.8281,460.0977 Q103.2188,460.0977 103.5156,460.4102 Q103.8281,460.707 103.8281,461.1133 Q103.8281,461.5195 103.4219,461.9883 Q102.8281,462.6758 101.8906,463.0664 Q100.625,463.5977 99.1094,463.5977 Q97.3281,463.5977 95.9063,462.8633 Q94.75,462.2695 93.9375,461.0039 Q93.125,459.7383 93.125,458.2539 L93.125,456.8945 Q93.125,455.332 93.8438,453.9883 Q94.5781,452.6289 95.8594,451.8945 Q97.1563,451.1602 98.6094,451.1602 Q99.4688,451.1602 100.2188,451.3633 Q100.9844,451.5664 101.6406,451.9727 Z " fill="#000000"/><text fill="#000000" font-family="sans-serif" font-size="20" font-style="italic" lengthAdjust="spacing" textLength="136" x="139" y="452.6563">«Value Object»</text><text fill="#000000" font-family="sans-serif" font-size="20" lengthAdjust="spacing" textLength="185" x="114.5" y="477.8125">ShowDSLDescription</text><line style="stroke:#181818;stroke-width:0.5;" x1="84.5" x2="301.5" y1="487.207" y2="487.207"/><line style="stroke:#181818;stroke-width:0.5;" x1="84.5" x2="301.5" y1="495.207" y2="495.207"/></g><!--class GenerateShowDSL--><g id="elem_GenerateShowDSL"><rect codeLine="33" fill="#F1F1F1" height="76.3125" id="GenerateShowDSL" rx="2.5" ry="2.5" style="stroke:#181818;stroke-width:0.5;" width="204" x="55" y="88.3945"/><ellipse cx="71" cy="118.5508" fill="#ADD1B2" rx="12" ry="12" style="stroke:#181818;stroke-width:1.0;"/><path d="M73.1406,113.4727 Q73.3281,113.2227 73.5469,113.0977 Q73.7656,112.957 74.0156,112.957 Q74.4531,112.957 74.7344,113.2695 Q75.0156,113.5664 75.0156,114.2852 L75.0156,115.9883 Q75.0156,116.707 74.7344,117.0195 Q74.4531,117.332 74.0156,117.332 Q73.625,117.332 73.375,117.0977 Q73.125,116.8789 73.0156,116.2695 Q72.9531,115.8477 72.7344,115.6289 Q72.3438,115.1914 71.625,114.9258 Q70.9063,114.6602 70.1875,114.6602 Q69.2813,114.6602 68.5313,115.0508 Q67.7813,115.4414 67.2031,116.332 Q66.625,117.207 66.625,118.4102 L66.625,119.707 Q66.625,121.1602 67.6719,122.1289 Q68.7344,123.0977 70.5938,123.0977 Q71.7031,123.0977 72.4844,122.7852 Q72.9219,122.6133 73.4375,122.0977 Q73.75,121.7852 73.9219,121.6914 Q74.0938,121.5977 74.3281,121.5977 Q74.7188,121.5977 75.0156,121.9102 Q75.3281,122.207 75.3281,122.6133 Q75.3281,123.0195 74.9219,123.4883 Q74.3281,124.1758 73.3906,124.5664 Q72.125,125.0977 70.6094,125.0977 Q68.8281,125.0977 67.4063,124.3633 Q66.25,123.7695 65.4375,122.5039 Q64.625,121.2383 64.625,119.7539 L64.625,118.3945 Q64.625,116.832 65.3438,115.4883 Q66.0781,114.1289 67.3594,113.3945 Q68.6563,112.6602 70.1094,112.6602 Q70.9688,112.6602 71.7188,112.8633 Q72.4844,113.0664 73.1406,113.4727 Z " fill="#000000"/><text fill="#000000" font-family="sans-serif" font-size="20" font-style="italic" lengthAdjust="spacing" textLength="89" x="126.5" y="114.1563">«Service»</text><text fill="#000000" font-family="sans-serif" font-size="20" lengthAdjust="spacing" textLength="170" x="86" y="139.3125">GenerateShowDSL</text><line style="stroke:#181818;stroke-width:0.5;" x1="56" x2="258" y1="148.707" y2="148.707"/><line style="stroke:#181818;stroke-width:0.5;" x1="56" x2="258" y1="156.707" y2="156.707"/></g><!--class CRMManager--><g id="elem_CRMManager"><rect fill="#F1F1F1" height="51.1563" id="CRMManager" rx="2.5" ry="2.5" style="stroke:#181818;stroke-width:0.5;" width="157" x="1832.5" y="276.3945"/><ellipse cx="1848.5" cy="293.9727" fill="#ADD1B2" rx="12" ry="12" style="stroke:#181818;stroke-width:1.0;"/><path d="M1850.6406,288.8945 Q1850.8281,288.6445 1851.0469,288.5195 Q1851.2656,288.3789 1851.5156,288.3789 Q1851.9531,288.3789 1852.2344,288.6914 Q1852.5156,288.9883 1852.5156,289.707 L1852.5156,291.4102 Q1852.5156,292.1289 1852.2344,292.4414 Q1851.9531,292.7539 1851.5156,292.7539 Q1851.125,292.7539 1850.875,292.5195 Q1850.625,292.3008 1850.5156,291.6914 Q1850.4531,291.2695 1850.2344,291.0508 Q1849.8438,290.6133 1849.125,290.3477 Q1848.4063,290.082 1847.6875,290.082 Q1846.7813,290.082 1846.0313,290.4727 Q1845.2813,290.8633 1844.7031,291.7539 Q1844.125,292.6289 1844.125,293.832 L1844.125,295.1289 Q1844.125,296.582 1845.1719,297.5508 Q1846.2344,298.5195 1848.0938,298.5195 Q1849.2031,298.5195 1849.9844,298.207 Q1850.4219,298.0352 1850.9375,297.5195 Q1851.25,297.207 1851.4219,297.1133 Q1851.5938,297.0195 1851.8281,297.0195 Q1852.2188,297.0195 1852.5156,297.332 Q1852.8281,297.6289 1852.8281,298.0352 Q1852.8281,298.4414 1852.4219,298.9102 Q1851.8281,299.5977 1850.8906,299.9883 Q1849.625,300.5195 1848.1094,300.5195 Q1846.3281,300.5195 1844.9063,299.7852 Q1843.75,299.1914 1842.9375,297.9258 Q1842.125,296.6602 1842.125,295.1758 L1842.125,293.8164 Q1842.125,292.2539 1842.8438,290.9102 Q1843.5781,289.5508 1844.8594,288.8164 Q1846.1563,288.082 1847.6094,288.082 Q1848.4688,288.082 1849.2188,288.2852 Q1849.9844,288.4883 1850.6406,288.8945 Z " fill="#000000"/><text fill="#000000" font-family="sans-serif" font-size="20" lengthAdjust="spacing" textLength="123" x="1863.5" y="302.1563">CRMManager</text><line style="stroke:#181818;stroke-width:0.5;" x1="1833.5" x2="1988.5" y1="311.5508" y2="311.5508"/><line style="stroke:#181818;stroke-width:0.5;" x1="1833.5" x2="1988.5" y1="319.5508" y2="319.5508"/></g><!--class ShowRequest--><g id="elem_ShowRequest"><rect fill="#F1F1F1" height="51.1563" id="ShowRequest" rx="2.5" ry="2.5" style="stroke:#181818;stroke-width:0.5;" width="156" x="2025" y="276.3945"/><ellipse cx="2041" cy="293.9727" fill="#ADD1B2" rx="12" ry="12" style="stroke:#181818;stroke-width:1.0;"/><path d="M2043.1406,288.8945 Q2043.3281,288.6445 2043.5469,288.5195 Q2043.7656,288.3789 2044.0156,288.3789 Q2044.4531,288.3789 2044.7344,288.6914 Q2045.0156,288.9883 2045.0156,289.707 L2045.0156,291.4102 Q2045.0156,292.1289 2044.7344,292.4414 Q2044.4531,292.7539 2044.0156,292.7539 Q2043.625,292.7539 2043.375,292.5195 Q2043.125,292.3008 2043.0156,291.6914 Q2042.9531,291.2695 2042.7344,291.0508 Q2042.3438,290.6133 2041.625,290.3477 Q2040.9063,290.082 2040.1875,290.082 Q2039.2813,290.082 2038.5313,290.4727 Q2037.7813,290.8633 2037.2031,291.7539 Q2036.625,292.6289 2036.625,293.832 L2036.625,295.1289 Q2036.625,296.582 2037.6719,297.5508 Q2038.7344,298.5195 2040.5938,298.5195 Q2041.7031,298.5195 2042.4844,298.207 Q2042.9219,298.0352 2043.4375,297.5195 Q2043.75,297.207 2043.9219,297.1133 Q2044.0938,297.0195 2044.3281,297.0195 Q2044.7188,297.0195 2045.0156,297.332 Q2045.3281,297.6289 2045.3281,298.0352 Q2045.3281,298.4414 2044.9219,298.9102 Q2044.3281,299.5977 2043.3906,299.9883 Q2042.125,300.5195 2040.6094,300.5195 Q2038.8281,300.5195 2037.4063,299.7852 Q2036.25,299.1914 2035.4375,297.9258 Q2034.625,296.6602 2034.625,295.1758 L2034.625,293.8164 Q2034.625,292.2539 2035.3438,290.9102 Q2036.0781,289.5508 2037.3594,288.8164 Q2038.6563,288.082 2040.1094,288.082 Q2040.9688,288.082 2041.7188,288.2852 Q2042.4844,288.4883 2043.1406,288.8945 Z " fill="#000000"/><text fill="#000000" font-family="sans-serif" font-size="20" lengthAdjust="spacing" textLength="122" x="2056" y="302.1563">ShowRequest</text><line style="stroke:#181818;stroke-width:0.5;" x1="2026" x2="2180" y1="311.5508" y2="311.5508"/><line style="stroke:#181818;stroke-width:0.5;" x1="2026" x2="2180" y1="319.5508" y2="319.5508"/></g><!--class Time--><g id="elem_Time"><rect codeLine="61" fill="#F1F1F1" height="76.3125" id="Time" rx="2.5" ry="2.5" style="stroke:#181818;stroke-width:0.5;" width="166" x="2088" y="595.8945"/><ellipse cx="2104" cy="626.0508" fill="#ADD1B2" rx="12" ry="12" style="stroke:#181818;stroke-width:1.0;"/><path d="M2106.1406,620.9727 Q2106.3281,620.7227 2106.5469,620.5977 Q2106.7656,620.457 2107.0156,620.457 Q2107.4531,620.457 2107.7344,620.7695 Q2108.0156,621.0664 2108.0156,621.7852 L2108.0156,623.4883 Q2108.0156,624.207 2107.7344,624.5195 Q2107.4531,624.832 2107.0156,624.832 Q2106.625,624.832 2106.375,624.5977 Q2106.125,624.3789 2106.0156,623.7695 Q2105.9531,623.3477 2105.7344,623.1289 Q2105.3438,622.6914 2104.625,622.4258 Q2103.9063,622.1602 2103.1875,622.1602 Q2102.2813,622.1602 2101.5313,622.5508 Q2100.7813,622.9414 2100.2031,623.832 Q2099.625,624.707 2099.625,625.9102 L2099.625,627.207 Q2099.625,628.6602 2100.6719,629.6289 Q2101.7344,630.5977 2103.5938,630.5977 Q2104.7031,630.5977 2105.4844,630.2852 Q2105.9219,630.1133 2106.4375,629.5977 Q2106.75,629.2852 2106.9219,629.1914 Q2107.0938,629.0977 2107.3281,629.0977 Q2107.7188,629.0977 2108.0156,629.4102 Q2108.3281,629.707 2108.3281,630.1133 Q2108.3281,630.5195 2107.9219,630.9883 Q2107.3281,631.6758 2106.3906,632.0664 Q2105.125,632.5977 2103.6094,632.5977 Q2101.8281,632.5977 2100.4063,631.8633 Q2099.25,631.2695 2098.4375,630.0039 Q2097.625,628.7383 2097.625,627.2539 L2097.625,625.8945 Q2097.625,624.332 2098.3438,622.9883 Q2099.0781,621.6289 2100.3594,620.8945 Q2101.6563,620.1602 2103.1094,620.1602 Q2103.9688,620.1602 2104.7188,620.3633 Q2105.4844,620.5664 2106.1406,620.9727 Z " fill="#000000"/><text fill="#000000" font-family="sans-serif" font-size="20" font-style="italic" lengthAdjust="spacing" textLength="136" x="2117" y="621.6563">«Value Object»</text><text fill="#000000" font-family="sans-serif" font-size="20" lengthAdjust="spacing" textLength="43" x="2163.5" y="646.8125">Time</text><line style="stroke:#181818;stroke-width:0.5;" x1="2089" x2="2253" y1="656.207" y2="656.207"/><line style="stroke:#181818;stroke-width:0.5;" x1="2089" x2="2253" y1="664.207" y2="664.207"/></g><!--class Date--><g id="elem_Date"><rect codeLine="64" fill="#F1F1F1" height="76.3125" id="Date" rx="2.5" ry="2.5" style="stroke:#181818;stroke-width:0.5;" width="166" x="2289" y="595.8945"/><ellipse cx="2305" cy="626.0508" fill="#ADD1B2" rx="12" ry="12" style="stroke:#181818;stroke-width:1.0;"/><path d="M2307.1406,620.9727 Q2307.3281,620.7227 2307.5469,620.5977 Q2307.7656,620.457 2308.0156,620.457 Q2308.4531,620.457 2308.7344,620.7695 Q2309.0156,621.0664 2309.0156,621.7852 L2309.0156,623.4883 Q2309.0156,624.207 2308.7344,624.5195 Q2308.4531,624.832 2308.0156,624.832 Q2307.625,624.832 2307.375,624.5977 Q2307.125,624.3789 2307.0156,623.7695 Q2306.9531,623.3477 2306.7344,623.1289 Q2306.3438,622.6914 2305.625,622.4258 Q2304.9063,622.1602 2304.1875,622.1602 Q2303.2813,622.1602 2302.5313,622.5508 Q2301.7813,622.9414 2301.2031,623.832 Q2300.625,624.707 2300.625,625.9102 L2300.625,627.207 Q2300.625,628.6602 2301.6719,629.6289 Q2302.7344,630.5977 2304.5938,630.5977 Q2305.7031,630.5977 2306.4844,630.2852 Q2306.9219,630.1133 2307.4375,629.5977 Q2307.75,629.2852 2307.9219,629.1914 Q2308.0938,629.0977 2308.3281,629.0977 Q2308.7188,629.0977 2309.0156,629.4102 Q2309.3281,629.707 2309.3281,630.1133 Q2309.3281,630.5195 2308.9219,630.9883 Q2308.3281,631.6758 2307.3906,632.0664 Q2306.125,632.5977 2304.6094,632.5977 Q2302.8281,632.5977 2301.4063,631.8633 Q2300.25,631.2695 2299.4375,630.0039 Q2298.625,628.7383 2298.625,627.2539 L2298.625,625.8945 Q2298.625,624.332 2299.3438,622.9883 Q2300.0781,621.6289 2301.3594,620.8945 Q2302.6563,620.1602 2304.1094,620.1602 Q2304.9688,620.1602 2305.7188,620.3633 Q2306.4844,620.5664 2307.1406,620.9727 Z " fill="#000000"/><text fill="#000000" font-family="sans-serif" font-size="20" font-style="italic" lengthAdjust="spacing" textLength="136" x="2318" y="621.6563">«Value Object»</text><text fill="#000000" font-family="sans-serif" font-size="20" lengthAdjust="spacing" textLength="42" x="2365" y="646.8125">Date</text><line style="stroke:#181818;stroke-width:0.5;" x1="2290" x2="2454" y1="656.207" y2="656.207"/><line style="stroke:#181818;stroke-width:0.5;" x1="2290" x2="2454" y1="664.207" y2="664.207"/></g><!--class Duration--><g id="elem_Duration"><rect codeLine="67" fill="#F1F1F1" height="76.3125" id="Duration" rx="2.5" ry="2.5" style="stroke:#181818;stroke-width:0.5;" width="166" x="2490" y="595.8945"/><ellipse cx="2506" cy="626.0508" fill="#ADD1B2" rx="12" ry="12" style="stroke:#181818;stroke-width:1.0;"/><path d="M2508.1406,620.9727 Q2508.3281,620.7227 2508.5469,620.5977 Q2508.7656,620.457 2509.0156,620.457 Q2509.4531,620.457 2509.7344,620.7695 Q2510.0156,621.0664 2510.0156,621.7852 L2510.0156,623.4883 Q2510.0156,624.207 2509.7344,624.5195 Q2509.4531,624.832 2509.0156,624.832 Q2508.625,624.832 2508.375,624.5977 Q2508.125,624.3789 2508.0156,623.7695 Q2507.9531,623.3477 2507.7344,623.1289 Q2507.3438,622.6914 2506.625,622.4258 Q2505.9063,622.1602 2505.1875,622.1602 Q2504.2813,622.1602 2503.5313,622.5508 Q2502.7813,622.9414 2502.2031,623.832 Q2501.625,624.707 2501.625,625.9102 L2501.625,627.207 Q2501.625,628.6602 2502.6719,629.6289 Q2503.7344,630.5977 2505.5938,630.5977 Q2506.7031,630.5977 2507.4844,630.2852 Q2507.9219,630.1133 2508.4375,629.5977 Q2508.75,629.2852 2508.9219,629.1914 Q2509.0938,629.0977 2509.3281,629.0977 Q2509.7188,629.0977 2510.0156,629.4102 Q2510.3281,629.707 2510.3281,630.1133 Q2510.3281,630.5195 2509.9219,630.9883 Q2509.3281,631.6758 2508.3906,632.0664 Q2507.125,632.5977 2505.6094,632.5977 Q2503.8281,632.5977 2502.4063,631.8633 Q2501.25,631.2695 2500.4375,630.0039 Q2499.625,628.7383 2499.625,627.2539 L2499.625,625.8945 Q2499.625,624.332 2500.3438,622.9883 Q2501.0781,621.6289 2502.3594,620.8945 Q2503.6563,620.1602 2505.1094,620.1602 Q2505.9688,620.1602 2506.7188,620.3633 Q2507.4844,620.5664 2508.1406,620.9727 Z " fill="#000000"/><text fill="#000000" font-family="sans-serif" font-size="20" font-style="italic" lengthAdjust="spacing" textLength="136" x="2519" y="621.6563">«Value Object»</text><text fill="#000000" font-family="sans-serif" font-size="20" lengthAdjust="spacing" textLength="73" x="2550.5" y="646.8125">Duration</text><line style="stroke:#181818;stroke-width:0.5;" x1="2491" x2="2655" y1="656.207" y2="656.207"/><line style="stroke:#181818;stroke-width:0.5;" x1="2491" x2="2655" y1="664.207" y2="664.207"/></g><!--class QuantityOfDrones--><g id="elem_QuantityOfDrones"><rect codeLine="70" fill="#F1F1F1" height="76.3125" id="QuantityOfDrones" rx="2.5" ry="2.5" style="stroke:#181818;stroke-width:0.5;" width="192" x="2691" y="595.8945"/><ellipse cx="2707" cy="626.0508" fill="#ADD1B2" rx="12" ry="12" style="stroke:#181818;stroke-width:1.0;"/><path d="M2709.1406,620.9727 Q2709.3281,620.7227 2709.5469,620.5977 Q2709.7656,620.457 2710.0156,620.457 Q2710.4531,620.457 2710.7344,620.7695 Q2711.0156,621.0664 2711.0156,621.7852 L2711.0156,623.4883 Q2711.0156,624.207 2710.7344,624.5195 Q2710.4531,624.832 2710.0156,624.832 Q2709.625,624.832 2709.375,624.5977 Q2709.125,624.3789 2709.0156,623.7695 Q2708.9531,623.3477 2708.7344,623.1289 Q2708.3438,622.6914 2707.625,622.4258 Q2706.9063,622.1602 2706.1875,622.1602 Q2705.2813,622.1602 2704.5313,622.5508 Q2703.7813,622.9414 2703.2031,623.832 Q2702.625,624.707 2702.625,625.9102 L2702.625,627.207 Q2702.625,628.6602 2703.6719,629.6289 Q2704.7344,630.5977 2706.5938,630.5977 Q2707.7031,630.5977 2708.4844,630.2852 Q2708.9219,630.1133 2709.4375,629.5977 Q2709.75,629.2852 2709.9219,629.1914 Q2710.0938,629.0977 2710.3281,629.0977 Q2710.7188,629.0977 2711.0156,629.4102 Q2711.3281,629.707 2711.3281,630.1133 Q2711.3281,630.5195 2710.9219,630.9883 Q2710.3281,631.6758 2709.3906,632.0664 Q2708.125,632.5977 2706.6094,632.5977 Q2704.8281,632.5977 2703.4063,631.8633 Q2702.25,631.2695 2701.4375,630.0039 Q2700.625,628.7383 2700.625,627.2539 L2700.625,625.8945 Q2700.625,624.332 2701.3438,622.9883 Q2702.0781,621.6289 2703.3594,620.8945 Q2704.6563,620.1602 2706.1094,620.1602 Q2706.9688,620.1602 2707.7188,620.3633 Q2708.4844,620.5664 2709.1406,620.9727 Z " fill="#000000"/><text fill="#000000" font-family="sans-serif" font-size="20" font-style="italic" lengthAdjust="spacing" textLength="136" x="2733" y="621.6563">«Value Object»</text><text fill="#000000" font-family="sans-serif" font-size="20" lengthAdjust="spacing" textLength="158" x="2722" y="646.8125">QuantityOfDrones</text><line style="stroke:#181818;stroke-width:0.5;" x1="2692" x2="2882" y1="656.207" y2="656.207"/><line style="stroke:#181818;stroke-width:0.5;" x1="2692" x2="2882" y1="664.207" y2="664.207"/></g><!--link ShowProposal to CustomerFeedback--><g id="link_ShowProposal_CustomerFeedback"><path codeLine="37" d="M1633.06,149.5645 C1599.69,161.9945 1562.68,180.4545 1536,206.8945 C1521.67,221.0945 1511.63,240.9545 1504.88,258.7645 " fill="none" id="ShowProposal-to-CustomerFeedback" style="stroke:#181818;stroke-width:1.0;"/><polygon fill="#181818" points="1503.06,263.7245,1509.9207,256.6584,1504.7859,259.0318,1502.4124,253.897,1503.06,263.7245" style="stroke:#181818;stroke-width:1.0;"/><text fill="#000000" font-family="sans-serif" font-size="20" lengthAdjust="spacing" textLength="168" x="1537" y="228.6563">customerFeedback</text><text fill="#000000" font-family="sans-serif" font-size="20" lengthAdjust="spacing" textLength="11" x="1492.7868" y="251.3983">1</text></g><!--link ShowProposal to CRMManager--><g id="link_ShowProposal_CRMManager"><path codeLine="38" d="M1764.09,176.9245 C1783.12,195.2245 1805.21,215.8845 1826,233.8945 C1841.32,247.1645 1858.82,261.1445 1873.94,272.8845 " fill="none" id="ShowProposal-to-CRMManager" style="stroke:#181818;stroke-width:1.0;"/><polygon fill="#181818" points="1878.14,276.1345,1873.4829,267.4563,1874.1902,273.0688,1868.5777,273.776,1878.14,276.1345" style="stroke:#181818;stroke-width:1.0;"/><text fill="#000000" font-family="sans-serif" font-size="20" lengthAdjust="spacing" textLength="200" x="1827" y="228.6563">template configured by</text><text fill="#000000" font-family="sans-serif" font-size="20" lengthAdjust="spacing" textLength="11" x="1859.2283" y="264.0051">1</text></g><!--link ShowProposal to ShowRequest--><g id="link_ShowProposal_ShowRequest"><path codeLine="39" d="M1794.77,132.6545 C1862.9,140.4045 1960.45,159.5645 2032,206.8945 C2056.52,223.1145 2075.9,250.7645 2088.17,271.8945 " fill="none" id="ShowProposal-to-ShowRequest" style="stroke:#181818;stroke-width:1.0;"/><polygon fill="#181818" points="2090.68,276.2945,2089.7051,266.494,2088.207,271.9489,2082.7521,270.4508,2090.68,276.2945" style="stroke:#181818;stroke-width:1.0;"/><text fill="#000000" font-family="sans-serif" font-size="20" lengthAdjust="spacing" textLength="81" x="2062" y="228.6563">based on</text><text fill="#000000" font-family="sans-serif" font-size="20" lengthAdjust="spacing" textLength="11" x="2076.0046" y="264.1981">1</text></g><!--link ShowProposal to ShowProposalStatus--><g id="link_ShowProposal_ShowProposalStatus"><path codeLine="40" d="M1633.46,129.6045 C1502.24,134.7545 1234.94,151.7045 1016,206.8945 C1008.53,208.7745 938.62,236.8445 876.98,261.8245 " fill="none" id="ShowProposal-to-ShowProposalStatus" style="stroke:#181818;stroke-width:1.0;"/><polygon fill="#181818" points="872.18,263.7745,882.0232,264.1093,876.8154,261.9003,879.0244,256.6926,872.18,263.7745" style="stroke:#181818;stroke-width:1.0;"/><text fill="#000000" font-family="sans-serif" font-size="20" lengthAdjust="spacing" textLength="132" x="1017" y="228.6563">proposalStatus</text><text fill="#000000" font-family="sans-serif" font-size="20" lengthAdjust="spacing" textLength="11" x="874.8353" y="251.4562">1</text></g><!--link ShowProposal to ShowProposalDocument--><g id="link_ShowProposal_ShowProposalDocument"><path codeLine="41" d="M1633.43,130.5245 C1448.15,138.4245 996.64,161.8045 852,206.8945 C828.63,214.1745 826.95,225.3745 804,233.8945 C740.67,257.4045 720.82,248.7045 655,263.8945 C650.9,264.8445 646.73,265.8245 642.53,266.8245 " fill="none" id="ShowProposal-to-ShowProposalDocument" style="stroke:#181818;stroke-width:1.0;"/><polygon fill="#181818" points="637.58,268.0145,647.267,269.793,642.4406,266.8423,645.3913,262.0159,637.58,268.0145" style="stroke:#181818;stroke-width:1.0;"/><text fill="#000000" font-family="sans-serif" font-size="20" lengthAdjust="spacing" textLength="85" x="853" y="228.6563">document</text><text fill="#000000" font-family="sans-serif" font-size="20" lengthAdjust="spacing" textLength="11" x="645.5068" y="260.9452">1</text></g><!--link ShowProposal to ShowProposalNumber--><g id="link_ShowProposal_ShowProposalNumber"><path codeLine="42" d="M1633.25,132.3745 C1533.67,140.3045 1360.27,160.0345 1219,206.8945 C1178.49,220.3345 1136.04,242.0845 1102.54,261.2745 " fill="none" id="ShowProposal-to-ShowProposalNumber" style="stroke:#181818;stroke-width:1.0;"/><polygon fill="#181818" points="1098.09,263.8445,1107.8841,262.8071,1102.4197,261.3439,1103.883,255.8795,1098.09,263.8445" style="stroke:#181818;stroke-width:1.0;"/><text fill="#000000" font-family="sans-serif" font-size="20" lengthAdjust="spacing" textLength="144" x="1220" y="228.6563">proposalNumber</text><text fill="#000000" font-family="sans-serif" font-size="20" lengthAdjust="spacing" textLength="11" x="1095.6309" y="251.5374">1</text></g><!--link ShowProposal to Insurance--><g id="link_ShowProposal_Insurance"><path codeLine="43" d="M1633.43,143.1345 C1574.28,156.2245 1492.78,177.4645 1425,206.8945 C1391.48,221.4545 1356.57,242.3845 1328.58,260.8045 " fill="none" id="ShowProposal-to-Insurance" style="stroke:#181818;stroke-width:1.0;"/><polygon fill="#181818" points="1324.15,263.7445,1333.8599,262.0958,1328.3146,260.9776,1329.4328,255.4324,1324.15,263.7445" style="stroke:#181818;stroke-width:1.0;"/><text fill="#000000" font-family="sans-serif" font-size="20" lengthAdjust="spacing" textLength="83" x="1426" y="228.6563">insurance</text><text fill="#000000" font-family="sans-serif" font-size="20" lengthAdjust="spacing" textLength="11" x="1320.5848" y="251.4215">1</text></g><!--link ShowProposal to ShowConfiguration--><g id="link_ShowProposal_ShowConfiguration"><path codeLine="44" d="M1633.31,127.8645 C1415.11,129.9845 817.43,141.7645 633,206.8945 C613.12,213.9145 613.66,226.2745 594,233.8945 C500.75,270.0245 468.59,242.0745 371,263.8945 C366.82,264.8345 362.57,265.8445 358.29,266.9245 " fill="none" id="ShowProposal-to-ShowConfiguration" style="stroke:#181818;stroke-width:1.0;"/><polygon fill="#181818" points="353.25,268.2245,362.9618,269.8617,358.0931,266.9816,360.9732,262.1129,353.25,268.2245" style="stroke:#181818;stroke-width:1.0;"/><text fill="#000000" font-family="sans-serif" font-size="20" lengthAdjust="spacing" textLength="161" x="634" y="228.6563">showConfiguration</text><text fill="#000000" font-family="sans-serif" font-size="20" lengthAdjust="spacing" textLength="11" x="360.9426" y="260.5899">1</text></g><!--link ShowProposal to Video--><g id="link_ShowProposal_Video"><path codeLine="45" d="M1714,177.1145 C1714,202.9145 1714,234.0945 1714,258.7045 " fill="none" id="ShowProposal-to-Video" style="stroke:#181818;stroke-width:1.0;"/><polygon fill="#181818" points="1714,263.8545,1718,254.8545,1714,258.8545,1710,254.8545,1714,263.8545" style="stroke:#181818;stroke-width:1.0;"/><text fill="#000000" font-family="sans-serif" font-size="20" lengthAdjust="spacing" textLength="46" x="1715" y="228.6563">video</text><text fill="#000000" font-family="sans-serif" font-size="20" lengthAdjust="spacing" textLength="11" x="1702.1234" y="251.549">1</text></g><!--link GenerateShowDSL to ShowConfiguration--><g id="link_GenerateShowDSL_ShowConfiguration"><path codeLine="48" d="M177.81,164.6145 C193.34,192.4045 214.58,230.3845 230.69,259.1945 " fill="none" id="GenerateShowDSL-to-ShowConfiguration" style="stroke:#181818;stroke-width:1.0;stroke-dasharray:7.0,7.0;"/><polygon fill="#181818" points="233.23,263.7345,232.3177,253.928,230.7848,259.3732,225.3396,257.8403,233.23,263.7345" style="stroke:#181818;stroke-width:1.0;"/><text fill="#000000" font-family="sans-serif" font-size="20" lengthAdjust="spacing" textLength="41" x="216" y="228.6563">uses</text></g><!--link GenerateShowDSL to ShowDSLDescription--><g id="link_GenerateShowDSL_ShowDSLDescription"><path codeLine="49" d="M124.64,164.7145 C91.9,207.2245 49.39,278.7145 74,339.8945 C87.16,372.6045 113.53,401.5445 138.11,423.2145 " fill="none" id="GenerateShowDSL-to-ShowDSLDescription" style="stroke:#181818;stroke-width:1.0;"/><polygon fill="#181818" points="142.03,426.6345,137.8716,417.7066,138.26,423.3501,132.6165,423.7385,142.03,426.6345" style="stroke:#181818;stroke-width:1.0;"/><text fill="#000000" font-family="sans-serif" font-size="20" lengthAdjust="spacing" textLength="61" x="75" y="310.1563">returns</text></g><!--link DocumentValidate to ShowProposalDocument--><g id="link_DocumentValidate_ShowProposalDocument"><path codeLine="52" d="M511.68,164.8545 C511.12,185.2645 510.66,210.9645 511,233.8945 C511.12,241.8945 511.32,250.4245 511.55,258.6345 " fill="none" id="DocumentValidate-to-ShowProposalDocument" style="stroke:#181818;stroke-width:1.0;stroke-dasharray:7.0,7.0;"/><polygon fill="#181818" points="511.69,263.6845,515.4313,254.574,511.5472,258.6866,507.4346,254.8024,511.69,263.6845" style="stroke:#181818;stroke-width:1.0;"/><text fill="#000000" font-family="sans-serif" font-size="20" lengthAdjust="spacing" textLength="77" x="512" y="228.6563">validates</text><text fill="#000000" font-family="sans-serif" font-size="20" lengthAdjust="spacing" textLength="11" x="499.6047" y="251.3519">1</text></g><!--link ShowConfiguration to ShowDSLDescription--><g id="link_ShowConfiguration_ShowDSLDescription"><path codeLine="55" d="M239.85,340.2345 C230.61,364.6245 218.53,396.5045 208.95,421.7945 " fill="none" id="ShowConfiguration-to-ShowDSLDescription" style="stroke:#181818;stroke-width:1.0;"/><polygon fill="#181818" points="207.07,426.7545,214.0012,419.7575,208.8428,422.0794,206.521,416.921,207.07,426.7545" style="stroke:#181818;stroke-width:1.0;"/><text fill="#000000" font-family="sans-serif" font-size="20" lengthAdjust="spacing" textLength="182" x="229" y="391.6563">showDSLDescription</text><text fill="#000000" font-family="sans-serif" font-size="20" lengthAdjust="spacing" textLength="34" x="172.603" y="414.433">0..1</text></g><!--link ShowProposal to QuantityOfDrones--><g id="link_ShowProposal_QuantityOfDrones"><path codeLine="74" d="M1794.85,130.8745 C1908.41,137.4645 2120.65,156.0145 2294,206.8945 C2459.04,255.3345 2519.76,251.9945 2645,369.8945 C2711.56,432.5645 2753.76,533.5345 2773.61,590.4145 " fill="none" id="ShowProposal-to-QuantityOfDrones" style="stroke:#181818;stroke-width:1.0;"/><polygon fill="#181818" points="2775.34,595.4445,2776.1912,585.6325,2773.7118,590.7171,2768.6273,588.2376,2775.34,595.4445" style="stroke:#181818;stroke-width:1.0;"/><text fill="#000000" font-family="sans-serif" font-size="20" lengthAdjust="spacing" textLength="98" x="2669" y="391.6563">qnt_drones</text><text fill="#000000" font-family="sans-serif" font-size="20" lengthAdjust="spacing" textLength="11" x="2761.7124" y="583.3926">1</text></g><!--link ShowProposal to Time--><g id="link_ShowProposal_Time"><path codeLine="75" d="M1794.73,135.2645 C1904.2,147.0645 2092.85,171.7845 2152,206.8945 C2279.12,282.3445 2219.49,499.2645 2187.11,591.0645 " fill="none" id="ShowProposal-to-Time" style="stroke:#181818;stroke-width:1.0;"/><polygon fill="#181818" points="2185.39,595.8645,2192.1675,588.7186,2187.0608,591.152,2184.6274,586.0452,2185.39,595.8645" style="stroke:#181818;stroke-width:1.0;"/><text fill="#000000" font-family="sans-serif" font-size="20" lengthAdjust="spacing" textLength="108" x="2231" y="391.6563">timeOfShow</text><text fill="#000000" font-family="sans-serif" font-size="20" lengthAdjust="spacing" textLength="11" x="2175.8068" y="583.5606">1</text></g><!--link ShowProposal to Date--><g id="link_ShowProposal_Date"><path codeLine="76" d="M1794.84,134.3545 C1913.3,145.6145 2127.33,170.3345 2195,206.8945 C2281.62,253.6945 2304.58,280.1245 2345,369.8945 C2377.59,442.2645 2378.47,536.8645 2375.61,590.6445 " fill="none" id="ShowProposal-to-Date" style="stroke:#181818;stroke-width:1.0;"/><polygon fill="#181818" points="2375.32,595.7145,2379.8284,586.9581,2375.6061,590.7227,2371.8415,586.5004,2375.32,595.7145" style="stroke:#181818;stroke-width:1.0;"/><text fill="#000000" font-family="sans-serif" font-size="20" lengthAdjust="spacing" textLength="110" x="2357" y="391.6563">dateOfShow</text><text fill="#000000" font-family="sans-serif" font-size="20" lengthAdjust="spacing" textLength="11" x="2363.9726" y="583.3867">1</text></g><!--link ShowProposal to Duration--><g id="link_ShowProposal_Duration"><path codeLine="77" d="M1794.78,128.9645 C1901.06,133.3645 2092.15,149.4245 2244,206.8945 C2291.96,225.0445 2473.46,366.5145 2476,369.8945 C2527,437.7145 2553.53,535.1645 2565.26,590.4145 " fill="none" id="ShowProposal-to-Duration" style="stroke:#181818;stroke-width:1.0;"/><polygon fill="#181818" points="2566.35,595.6345,2568.4158,586.0048,2565.3228,590.7412,2560.5864,587.6482,2566.35,595.6345" style="stroke:#181818;stroke-width:1.0;"/><text fill="#000000" font-family="sans-serif" font-size="20" lengthAdjust="spacing" textLength="141" x="2495" y="391.6563">durationOfShow</text><text fill="#000000" font-family="sans-serif" font-size="20" lengthAdjust="spacing" textLength="11" x="2553.4895" y="583.6117">1</text></g><!--SRC=[bLHDRzim3BtdLn2vxBIWsr4eVAdNOS2wRFNGwo3BZAl5bbnzPEkA_VTHYUB6TknuEJWqzPv8au-qMwaQRdXTQR750WhSS5-vMwrS9lyWlBzQD5niUOcmp1xrhwz6Dzho2fPmVStBqc397IR9os81z4FbQpZ5POuxRmdxm2kFiCv_ed017j1_3oHHSMixBC9_K4wwvoGXqsXzcP9guMjKxdz3VV5rZcOEwvEotd0bS0xunbkdQpItY4LE1PoRrerM6rbI72UrEYd36VY3B53FkVTO6WBAWhf5d0pDJWhg6upaaMQVKxJ2o2OcqeroZlOH5LBU6EdZKTvqMlqsWTzxTzTBxkMxvQ2E34JFCy6zlxlZYgHh63YicofykuW59gtdp-FSuBp79u_MCSYv9RXMq_2kv1aqdVTvt6Eh61JHciSxgFWrvk5zdDjgcO4ycjEHEi9aOFkkSVPUfmnsuIyAe2-LLWFzWzKgEHVTMxHdyI7cKBuC33flb8tX1mFHnX-SX0J6cxIBC7iYxEu4TzJTEmhrkLgjuktzbEt0jw3vQRTnziY3XbzE9_2xh6Sjf_Im12xZNlVGHUmtp_UhQhr9ZLPuOUNFMm571VNlPl2at8zYRq_nGZrezEcvtWJ853RKXAQEdZEmhH2BQ4KETUWV]--></g></svg>