<?xml version="1.0" encoding="us-ascii" standalone="no"?><svg xmlns="http://www.w3.org/2000/svg" xmlns:xlink="http://www.w3.org/1999/xlink" contentStyleType="text/css" height="294.5px" preserveAspectRatio="none" style="width:1136px;height:294px;background:#FFFFFF;" version="1.1" viewBox="0 0 1136 294" width="1136px" zoomAndPan="magnify"><defs/><g><!--cluster ShowProposal --><g id="cluster_ShowProposal "><path d="M4.25,3.0068 L56.75,3.0068 A1.875,1.875 0 0 1 58,4.2568 L61.5,15.3174 L860.25,15.3174 A1.25,1.25 0 0 1 861.5,16.5674 L861.5,216.2568 A1.25,1.25 0 0 1 860.25,217.5068 L4.25,217.5068 A1.25,1.25 0 0 1 3,216.2568 L3,4.2568 A1.25,1.25 0 0 1 4.25,3.0068 " fill="none" style="stroke:#000000;stroke-width:0.75;"/><line style="stroke:#000000;stroke-width:0.75;" x1="3" x2="61.5" y1="15.3174" y2="15.3174"/><text fill="#000000" font-family="sans-serif" font-size="7" font-weight="bold" lengthAdjust="spacing" textLength="50" x="5" y="11.5605">ShowProposal</text><text fill="#000000" font-family="sans-serif" font-size="7" font-style="italic" lengthAdjust="spacing" textLength="40.5" x="414" y="23.8711">&#171;aggregate&#187;</text></g><!--cluster Shared--><g id="cluster_Shared"><path d="M822.25,234.0068 L847.75,234.0068 A1.875,1.875 0 0 1 849,235.2568 L852.5,246.3174 L1131.25,246.3174 A1.25,1.25 0 0 1 1132.5,247.5674 L1132.5,289.7568 A1.25,1.25 0 0 1 1131.25,291.0068 L822.25,291.0068 A1.25,1.25 0 0 1 821,289.7568 L821,235.2568 A1.25,1.25 0 0 1 822.25,234.0068 " fill="none" style="stroke:#000000;stroke-width:0.75;"/><line style="stroke:#000000;stroke-width:0.75;" x1="821" x2="852.5" y1="246.3174" y2="246.3174"/><text fill="#000000" font-family="sans-serif" font-size="7" font-weight="bold" lengthAdjust="spacing" textLength="25" x="823" y="242.5605">Shared</text></g><!--class ShowProposalStatus--><g id="elem_ShowProposalStatus"><rect codeLine="3" fill="#F1F1F1" height="30.291" id="ShowProposalStatus" rx="1.25" ry="1.25" style="stroke:#181818;stroke-width:0.25;" width="81" x="271" y="109.0068"/><ellipse cx="278.5" cy="120.1523" fill="#EB937F" rx="5.5" ry="5.5" style="stroke:#181818;stroke-width:0.5;"/><path d="M277.9297,120.5508 L277.9297,121.8008 L280.0938,121.8008 L280.0938,121.3398 Q280.0938,121.0352 280.2109,120.9023 Q280.3359,120.7695 280.5234,120.7695 Q280.7109,120.7695 280.8281,120.9023 Q280.9453,121.0352 280.9453,121.3398 L280.9453,122.6523 L276.9453,122.6523 Q276.6328,122.6523 276.5,122.5352 Q276.375,122.418 276.375,122.2227 Q276.375,122.0352 276.5078,121.918 Q276.6406,121.8008 276.9453,121.8008 L277.0781,121.8008 L277.0781,118.4727 L276.9453,118.4727 Q276.6328,118.4727 276.5,118.3555 Q276.375,118.2383 276.375,118.043 Q276.375,117.8555 276.5,117.7383 Q276.6328,117.6211 276.9453,117.6211 L280.7578,117.6211 L280.7578,118.918 Q280.7578,119.2227 280.6406,119.3555 Q280.5313,119.4805 280.3359,119.4805 Q280.1484,119.4805 280.0313,119.3555 Q279.9141,119.2227 279.9141,118.918 L279.9141,118.4727 L277.9297,118.4727 L277.9297,119.6992 L278.6719,119.6992 Q278.6719,119.3711 278.7344,119.2773 Q278.8672,119.0742 279.1016,119.0742 Q279.2891,119.0742 279.4063,119.207 Q279.5234,119.332 279.5234,119.6367 L279.5234,120.6211 Q279.5234,120.8945 279.4609,120.9883 Q279.3281,121.1836 279.1016,121.1836 Q278.8672,121.1836 278.7344,120.9805 Q278.6719,120.8867 278.6719,120.5508 L277.9297,120.5508 Z " fill="#000000"/><text fill="#000000" font-family="sans-serif" font-size="6" font-style="italic" lengthAdjust="spacing" textLength="42.5" x="296.75" y="117.9814">&#171;Value Object&#187;</text><text fill="#000000" font-family="sans-serif" font-size="7" lengthAdjust="spacing" textLength="65" x="285.5" y="127.041">ShowProposalStatus</text><line style="stroke:#181818;stroke-width:0.25;" x1="271.5" x2="351.5" y1="131.2979" y2="131.2979"/><line style="stroke:#181818;stroke-width:0.25;" x1="271.5" x2="351.5" y1="135.2979" y2="135.2979"/></g><!--class ShowProposal--><g id="elem_ShowProposal"><rect codeLine="6" fill="#F1F1F1" height="38.2715" id="ShowProposal" rx="1.25" ry="1.25" style="stroke:#181818;stroke-width:0.25;" width="61" x="640.5" y="31.0068"/><ellipse cx="648" cy="46.1426" fill="#ADD1B2" rx="5.5" ry="5.5" style="stroke:#181818;stroke-width:0.5;"/><path d="M649.3828,44.0801 Q649.4609,43.9707 649.5547,43.916 Q649.6484,43.8613 649.7578,43.8613 Q649.9453,43.8613 650.0625,43.9941 Q650.1797,44.1191 650.1797,44.4238 L650.1797,45.1504 Q650.1797,45.4551 650.0625,45.5879 Q649.9453,45.7207 649.7578,45.7207 Q649.5859,45.7207 649.4844,45.6191 Q649.3828,45.5254 649.3281,45.2676 Q649.3047,45.0879 649.2109,44.9941 Q649.0469,44.8066 648.7422,44.6973 Q648.4375,44.5879 648.125,44.5879 Q647.7422,44.5879 647.4219,44.752 Q647.1094,44.916 646.8594,45.291 Q646.6172,45.666 646.6172,46.1816 L646.6172,46.7285 Q646.6172,47.3457 647.0625,47.7598 Q647.5078,48.166 648.3047,48.166 Q648.7734,48.166 649.1016,48.041 Q649.2969,47.9629 649.5078,47.7441 Q649.6406,47.6113 649.7109,47.5723 Q649.7891,47.5332 649.8906,47.5332 Q650.0547,47.5332 650.1797,47.666 Q650.3125,47.791 650.3125,47.9629 Q650.3125,48.1348 650.1406,48.3379 Q649.8906,48.627 649.4922,48.791 Q648.9531,49.0176 648.3047,49.0176 Q647.5469,49.0176 646.9453,48.7051 Q646.4531,48.4551 646.1094,47.9238 Q645.7656,47.3848 645.7656,46.7441 L645.7656,46.166 Q645.7656,45.502 646.0703,44.9316 Q646.3828,44.3535 646.9297,44.0488 Q647.4766,43.7363 648.0938,43.7363 Q648.4609,43.7363 648.7813,43.8223 Q649.1094,43.9004 649.3828,44.0801 Z " fill="#000000"/><text fill="#000000" font-family="sans-serif" font-size="6" font-style="italic" lengthAdjust="spacing" textLength="22" x="666.5" y="39.9814">&#171;Entity&#187;</text><text fill="#000000" font-family="sans-serif" font-size="6" font-style="italic" lengthAdjust="spacing" textLength="17.5" x="668.75" y="47.9619">&#171;root&#187;</text><text fill="#000000" font-family="sans-serif" font-size="7" lengthAdjust="spacing" textLength="45" x="655" y="57.0215">ShowProposal</text><line style="stroke:#181818;stroke-width:0.25;" x1="641" x2="701" y1="61.2783" y2="61.2783"/><line style="stroke:#181818;stroke-width:0.25;" x1="641" x2="701" y1="65.2783" y2="65.2783"/></g><!--class ShowProposalDocument--><g id="elem_ShowProposalDocument"><rect codeLine="9" fill="#F1F1F1" height="30.291" id="ShowProposalDocument" rx="1.25" ry="1.25" style="stroke:#181818;stroke-width:0.25;" width="93" x="160.5" y="109.0068"/><ellipse cx="168" cy="120.1523" fill="#ADD1B2" rx="5.5" ry="5.5" style="stroke:#181818;stroke-width:0.5;"/><path d="M169.3828,118.0898 Q169.4609,117.9805 169.5547,117.9258 Q169.6484,117.8711 169.7578,117.8711 Q169.9453,117.8711 170.0625,118.0039 Q170.1797,118.1289 170.1797,118.4336 L170.1797,119.1602 Q170.1797,119.4648 170.0625,119.5977 Q169.9453,119.7305 169.7578,119.7305 Q169.5859,119.7305 169.4844,119.6289 Q169.3828,119.5352 169.3281,119.2773 Q169.3047,119.0977 169.2109,119.0039 Q169.0469,118.8164 168.7422,118.707 Q168.4375,118.5977 168.125,118.5977 Q167.7422,118.5977 167.4219,118.7617 Q167.1094,118.9258 166.8594,119.3008 Q166.6172,119.6758 166.6172,120.1914 L166.6172,120.7383 Q166.6172,121.3555 167.0625,121.7695 Q167.5078,122.1758 168.3047,122.1758 Q168.7734,122.1758 169.1016,122.0508 Q169.2969,121.9727 169.5078,121.7539 Q169.6406,121.6211 169.7109,121.582 Q169.7891,121.543 169.8906,121.543 Q170.0547,121.543 170.1797,121.6758 Q170.3125,121.8008 170.3125,121.9727 Q170.3125,122.1445 170.1406,122.3477 Q169.8906,122.6367 169.4922,122.8008 Q168.9531,123.0273 168.3047,123.0273 Q167.5469,123.0273 166.9453,122.7148 Q166.4531,122.4648 166.1094,121.9336 Q165.7656,121.3945 165.7656,120.7539 L165.7656,120.1758 Q165.7656,119.5117 166.0703,118.9414 Q166.3828,118.3633 166.9297,118.0586 Q167.4766,117.7461 168.0938,117.7461 Q168.4609,117.7461 168.7813,117.832 Q169.1094,117.9102 169.3828,118.0898 Z " fill="#000000"/><text fill="#000000" font-family="sans-serif" font-size="6" font-style="italic" lengthAdjust="spacing" textLength="42.5" x="192.25" y="117.9814">&#171;Value Object&#187;</text><text fill="#000000" font-family="sans-serif" font-size="7" lengthAdjust="spacing" textLength="77" x="175" y="127.041">ShowProposalDocument</text><line style="stroke:#181818;stroke-width:0.25;" x1="161" x2="253" y1="131.2979" y2="131.2979"/><line style="stroke:#181818;stroke-width:0.25;" x1="161" x2="253" y1="135.2979" y2="135.2979"/></g><!--class ShowProposalNumber--><g id="elem_ShowProposalNumber"><rect codeLine="12" fill="#F1F1F1" height="30.291" id="ShowProposalNumber" rx="1.25" ry="1.25" style="stroke:#181818;stroke-width:0.25;" width="85.5" x="369.75" y="109.0068"/><ellipse cx="377.25" cy="120.1523" fill="#ADD1B2" rx="5.5" ry="5.5" style="stroke:#181818;stroke-width:0.5;"/><path d="M378.6328,118.0898 Q378.7109,117.9805 378.8047,117.9258 Q378.8984,117.8711 379.0078,117.8711 Q379.1953,117.8711 379.3125,118.0039 Q379.4297,118.1289 379.4297,118.4336 L379.4297,119.1602 Q379.4297,119.4648 379.3125,119.5977 Q379.1953,119.7305 379.0078,119.7305 Q378.8359,119.7305 378.7344,119.6289 Q378.6328,119.5352 378.5781,119.2773 Q378.5547,119.0977 378.4609,119.0039 Q378.2969,118.8164 377.9922,118.707 Q377.6875,118.5977 377.375,118.5977 Q376.9922,118.5977 376.6719,118.7617 Q376.3594,118.9258 376.1094,119.3008 Q375.8672,119.6758 375.8672,120.1914 L375.8672,120.7383 Q375.8672,121.3555 376.3125,121.7695 Q376.7578,122.1758 377.5547,122.1758 Q378.0234,122.1758 378.3516,122.0508 Q378.5469,121.9727 378.7578,121.7539 Q378.8906,121.6211 378.9609,121.582 Q379.0391,121.543 379.1406,121.543 Q379.3047,121.543 379.4297,121.6758 Q379.5625,121.8008 379.5625,121.9727 Q379.5625,122.1445 379.3906,122.3477 Q379.1406,122.6367 378.7422,122.8008 Q378.2031,123.0273 377.5547,123.0273 Q376.7969,123.0273 376.1953,122.7148 Q375.7031,122.4648 375.3594,121.9336 Q375.0156,121.3945 375.0156,120.7539 L375.0156,120.1758 Q375.0156,119.5117 375.3203,118.9414 Q375.6328,118.3633 376.1797,118.0586 Q376.7266,117.7461 377.3438,117.7461 Q377.7109,117.7461 378.0313,117.832 Q378.3594,117.9102 378.6328,118.0898 Z " fill="#000000"/><text fill="#000000" font-family="sans-serif" font-size="6" font-style="italic" lengthAdjust="spacing" textLength="42.5" x="397.75" y="117.9814">&#171;Value Object&#187;</text><text fill="#000000" font-family="sans-serif" font-size="7" lengthAdjust="spacing" textLength="69.5" x="384.25" y="127.041">ShowProposalNumber</text><line style="stroke:#181818;stroke-width:0.25;" x1="370.25" x2="454.75" y1="131.2979" y2="131.2979"/><line style="stroke:#181818;stroke-width:0.25;" x1="370.25" x2="454.75" y1="135.2979" y2="135.2979"/></g><!--class Insurance--><g id="elem_Insurance"><rect codeLine="15" fill="#F1F1F1" height="30.291" id="Insurance" rx="1.25" ry="1.25" style="stroke:#181818;stroke-width:0.25;" width="56.5" x="472.75" y="109.0068"/><ellipse cx="480.25" cy="120.1523" fill="#ADD1B2" rx="5.5" ry="5.5" style="stroke:#181818;stroke-width:0.5;"/><path d="M481.6328,118.0898 Q481.7109,117.9805 481.8047,117.9258 Q481.8984,117.8711 482.0078,117.8711 Q482.1953,117.8711 482.3125,118.0039 Q482.4297,118.1289 482.4297,118.4336 L482.4297,119.1602 Q482.4297,119.4648 482.3125,119.5977 Q482.1953,119.7305 482.0078,119.7305 Q481.8359,119.7305 481.7344,119.6289 Q481.6328,119.5352 481.5781,119.2773 Q481.5547,119.0977 481.4609,119.0039 Q481.2969,118.8164 480.9922,118.707 Q480.6875,118.5977 480.375,118.5977 Q479.9922,118.5977 479.6719,118.7617 Q479.3594,118.9258 479.1094,119.3008 Q478.8672,119.6758 478.8672,120.1914 L478.8672,120.7383 Q478.8672,121.3555 479.3125,121.7695 Q479.7578,122.1758 480.5547,122.1758 Q481.0234,122.1758 481.3516,122.0508 Q481.5469,121.9727 481.7578,121.7539 Q481.8906,121.6211 481.9609,121.582 Q482.0391,121.543 482.1406,121.543 Q482.3047,121.543 482.4297,121.6758 Q482.5625,121.8008 482.5625,121.9727 Q482.5625,122.1445 482.3906,122.3477 Q482.1406,122.6367 481.7422,122.8008 Q481.2031,123.0273 480.5547,123.0273 Q479.7969,123.0273 479.1953,122.7148 Q478.7031,122.4648 478.3594,121.9336 Q478.0156,121.3945 478.0156,120.7539 L478.0156,120.1758 Q478.0156,119.5117 478.3203,118.9414 Q478.6328,118.3633 479.1797,118.0586 Q479.7266,117.7461 480.3438,117.7461 Q480.7109,117.7461 481.0313,117.832 Q481.3594,117.9102 481.6328,118.0898 Z " fill="#000000"/><text fill="#000000" font-family="sans-serif" font-size="6" font-style="italic" lengthAdjust="spacing" textLength="42.5" x="486.25" y="117.9814">&#171;Value Object&#187;</text><text fill="#000000" font-family="sans-serif" font-size="7" lengthAdjust="spacing" textLength="31" x="492" y="127.041">Insurance</text><line style="stroke:#181818;stroke-width:0.25;" x1="473.25" x2="528.75" y1="131.2979" y2="131.2979"/><line style="stroke:#181818;stroke-width:0.25;" x1="473.25" x2="528.75" y1="135.2979" y2="135.2979"/></g><!--class CustomerFeedback--><g id="elem_CustomerFeedback"><rect codeLine="18" fill="#F1F1F1" height="30.291" id="CustomerFeedback" rx="1.25" ry="1.25" style="stroke:#181818;stroke-width:0.25;" width="78" x="547" y="109.0068"/><ellipse cx="554.5" cy="120.1523" fill="#ADD1B2" rx="5.5" ry="5.5" style="stroke:#181818;stroke-width:0.5;"/><path d="M555.8828,118.0898 Q555.9609,117.9805 556.0547,117.9258 Q556.1484,117.8711 556.2578,117.8711 Q556.4453,117.8711 556.5625,118.0039 Q556.6797,118.1289 556.6797,118.4336 L556.6797,119.1602 Q556.6797,119.4648 556.5625,119.5977 Q556.4453,119.7305 556.2578,119.7305 Q556.0859,119.7305 555.9844,119.6289 Q555.8828,119.5352 555.8281,119.2773 Q555.8047,119.0977 555.7109,119.0039 Q555.5469,118.8164 555.2422,118.707 Q554.9375,118.5977 554.625,118.5977 Q554.2422,118.5977 553.9219,118.7617 Q553.6094,118.9258 553.3594,119.3008 Q553.1172,119.6758 553.1172,120.1914 L553.1172,120.7383 Q553.1172,121.3555 553.5625,121.7695 Q554.0078,122.1758 554.8047,122.1758 Q555.2734,122.1758 555.6016,122.0508 Q555.7969,121.9727 556.0078,121.7539 Q556.1406,121.6211 556.2109,121.582 Q556.2891,121.543 556.3906,121.543 Q556.5547,121.543 556.6797,121.6758 Q556.8125,121.8008 556.8125,121.9727 Q556.8125,122.1445 556.6406,122.3477 Q556.3906,122.6367 555.9922,122.8008 Q555.4531,123.0273 554.8047,123.0273 Q554.0469,123.0273 553.4453,122.7148 Q552.9531,122.4648 552.6094,121.9336 Q552.2656,121.3945 552.2656,120.7539 L552.2656,120.1758 Q552.2656,119.5117 552.5703,118.9414 Q552.8828,118.3633 553.4297,118.0586 Q553.9766,117.7461 554.5938,117.7461 Q554.9609,117.7461 555.2813,117.832 Q555.6094,117.9102 555.8828,118.0898 Z " fill="#000000"/><text fill="#000000" font-family="sans-serif" font-size="6" font-style="italic" lengthAdjust="spacing" textLength="42.5" x="571.25" y="117.9814">&#171;Value Object&#187;</text><text fill="#000000" font-family="sans-serif" font-size="7" lengthAdjust="spacing" textLength="62" x="561.5" y="127.041">CustomerFeedback</text><line style="stroke:#181818;stroke-width:0.25;" x1="547.5" x2="624.5" y1="131.2979" y2="131.2979"/><line style="stroke:#181818;stroke-width:0.25;" x1="547.5" x2="624.5" y1="135.2979" y2="135.2979"/></g><!--class ShowConfiguration--><g id="elem_ShowConfiguration"><rect codeLine="21" fill="#F1F1F1" height="30.291" id="ShowConfiguration" rx="1.25" ry="1.25" style="stroke:#181818;stroke-width:0.25;" width="75.5" x="67.25" y="109.0068"/><ellipse cx="74.75" cy="120.1523" fill="#ADD1B2" rx="5.5" ry="5.5" style="stroke:#181818;stroke-width:0.5;"/><path d="M76.1328,118.0898 Q76.2109,117.9805 76.3047,117.9258 Q76.3984,117.8711 76.5078,117.8711 Q76.6953,117.8711 76.8125,118.0039 Q76.9297,118.1289 76.9297,118.4336 L76.9297,119.1602 Q76.9297,119.4648 76.8125,119.5977 Q76.6953,119.7305 76.5078,119.7305 Q76.3359,119.7305 76.2344,119.6289 Q76.1328,119.5352 76.0781,119.2773 Q76.0547,119.0977 75.9609,119.0039 Q75.7969,118.8164 75.4922,118.707 Q75.1875,118.5977 74.875,118.5977 Q74.4922,118.5977 74.1719,118.7617 Q73.8594,118.9258 73.6094,119.3008 Q73.3672,119.6758 73.3672,120.1914 L73.3672,120.7383 Q73.3672,121.3555 73.8125,121.7695 Q74.2578,122.1758 75.0547,122.1758 Q75.5234,122.1758 75.8516,122.0508 Q76.0469,121.9727 76.2578,121.7539 Q76.3906,121.6211 76.4609,121.582 Q76.5391,121.543 76.6406,121.543 Q76.8047,121.543 76.9297,121.6758 Q77.0625,121.8008 77.0625,121.9727 Q77.0625,122.1445 76.8906,122.3477 Q76.6406,122.6367 76.2422,122.8008 Q75.7031,123.0273 75.0547,123.0273 Q74.2969,123.0273 73.6953,122.7148 Q73.2031,122.4648 72.8594,121.9336 Q72.5156,121.3945 72.5156,120.7539 L72.5156,120.1758 Q72.5156,119.5117 72.8203,118.9414 Q73.1328,118.3633 73.6797,118.0586 Q74.2266,117.7461 74.8438,117.7461 Q75.2109,117.7461 75.5313,117.832 Q75.8594,117.9102 76.1328,118.0898 Z " fill="#000000"/><text fill="#000000" font-family="sans-serif" font-size="6" font-style="italic" lengthAdjust="spacing" textLength="22" x="100.5" y="117.9814">&#171;Entity&#187;</text><text fill="#000000" font-family="sans-serif" font-size="7" lengthAdjust="spacing" textLength="59.5" x="81.75" y="127.041">ShowConfiguration</text><line style="stroke:#181818;stroke-width:0.25;" x1="67.75" x2="142.25" y1="131.2979" y2="131.2979"/><line style="stroke:#181818;stroke-width:0.25;" x1="67.75" x2="142.25" y1="135.2979" y2="135.2979"/></g><!--class Video--><g id="elem_Video"><rect codeLine="24" fill="#F1F1F1" height="30.291" id="Video" rx="1.25" ry="1.25" style="stroke:#181818;stroke-width:0.25;" width="56.5" x="642.75" y="109.0068"/><ellipse cx="650.25" cy="120.1523" fill="#ADD1B2" rx="5.5" ry="5.5" style="stroke:#181818;stroke-width:0.5;"/><path d="M651.6328,118.0898 Q651.7109,117.9805 651.8047,117.9258 Q651.8984,117.8711 652.0078,117.8711 Q652.1953,117.8711 652.3125,118.0039 Q652.4297,118.1289 652.4297,118.4336 L652.4297,119.1602 Q652.4297,119.4648 652.3125,119.5977 Q652.1953,119.7305 652.0078,119.7305 Q651.8359,119.7305 651.7344,119.6289 Q651.6328,119.5352 651.5781,119.2773 Q651.5547,119.0977 651.4609,119.0039 Q651.2969,118.8164 650.9922,118.707 Q650.6875,118.5977 650.375,118.5977 Q649.9922,118.5977 649.6719,118.7617 Q649.3594,118.9258 649.1094,119.3008 Q648.8672,119.6758 648.8672,120.1914 L648.8672,120.7383 Q648.8672,121.3555 649.3125,121.7695 Q649.7578,122.1758 650.5547,122.1758 Q651.0234,122.1758 651.3516,122.0508 Q651.5469,121.9727 651.7578,121.7539 Q651.8906,121.6211 651.9609,121.582 Q652.0391,121.543 652.1406,121.543 Q652.3047,121.543 652.4297,121.6758 Q652.5625,121.8008 652.5625,121.9727 Q652.5625,122.1445 652.3906,122.3477 Q652.1406,122.6367 651.7422,122.8008 Q651.2031,123.0273 650.5547,123.0273 Q649.7969,123.0273 649.1953,122.7148 Q648.7031,122.4648 648.3594,121.9336 Q648.0156,121.3945 648.0156,120.7539 L648.0156,120.1758 Q648.0156,119.5117 648.3203,118.9414 Q648.6328,118.3633 649.1797,118.0586 Q649.7266,117.7461 650.3438,117.7461 Q650.7109,117.7461 651.0313,117.832 Q651.3594,117.9102 651.6328,118.0898 Z " fill="#000000"/><text fill="#000000" font-family="sans-serif" font-size="6" font-style="italic" lengthAdjust="spacing" textLength="42.5" x="656.25" y="117.9814">&#171;Value Object&#187;</text><text fill="#000000" font-family="sans-serif" font-size="7" lengthAdjust="spacing" textLength="18" x="668.5" y="127.041">Video</text><line style="stroke:#181818;stroke-width:0.25;" x1="643.25" x2="698.75" y1="131.2979" y2="131.2979"/><line style="stroke:#181818;stroke-width:0.25;" x1="643.25" x2="698.75" y1="135.2979" y2="135.2979"/></g><!--class DocumentValidate--><g id="elem_DocumentValidate"><rect codeLine="27" fill="#F1F1F1" height="30.291" id="DocumentValidate" rx="1.25" ry="1.25" style="stroke:#181818;stroke-width:0.25;" width="73.5" x="170.25" y="35.0068"/><ellipse cx="177.75" cy="46.1523" fill="#ADD1B2" rx="5.5" ry="5.5" style="stroke:#181818;stroke-width:0.5;"/><path d="M179.1328,44.0898 Q179.2109,43.9805 179.3047,43.9258 Q179.3984,43.8711 179.5078,43.8711 Q179.6953,43.8711 179.8125,44.0039 Q179.9297,44.1289 179.9297,44.4336 L179.9297,45.1602 Q179.9297,45.4648 179.8125,45.5977 Q179.6953,45.7305 179.5078,45.7305 Q179.3359,45.7305 179.2344,45.6289 Q179.1328,45.5352 179.0781,45.2773 Q179.0547,45.0977 178.9609,45.0039 Q178.7969,44.8164 178.4922,44.707 Q178.1875,44.5977 177.875,44.5977 Q177.4922,44.5977 177.1719,44.7617 Q176.8594,44.9258 176.6094,45.3008 Q176.3672,45.6758 176.3672,46.1914 L176.3672,46.7383 Q176.3672,47.3555 176.8125,47.7695 Q177.2578,48.1758 178.0547,48.1758 Q178.5234,48.1758 178.8516,48.0508 Q179.0469,47.9727 179.2578,47.7539 Q179.3906,47.6211 179.4609,47.582 Q179.5391,47.543 179.6406,47.543 Q179.8047,47.543 179.9297,47.6758 Q180.0625,47.8008 180.0625,47.9727 Q180.0625,48.1445 179.8906,48.3477 Q179.6406,48.6367 179.2422,48.8008 Q178.7031,49.0273 178.0547,49.0273 Q177.2969,49.0273 176.6953,48.7148 Q176.2031,48.4648 175.8594,47.9336 Q175.5156,47.3945 175.5156,46.7539 L175.5156,46.1758 Q175.5156,45.5117 175.8203,44.9414 Q176.1328,44.3633 176.6797,44.0586 Q177.2266,43.7461 177.8438,43.7461 Q178.2109,43.7461 178.5313,43.832 Q178.8594,43.9102 179.1328,44.0898 Z " fill="#000000"/><text fill="#000000" font-family="sans-serif" font-size="6" font-style="italic" lengthAdjust="spacing" textLength="27.5" x="199.75" y="43.9814">&#171;Service&#187;</text><text fill="#000000" font-family="sans-serif" font-size="7" lengthAdjust="spacing" textLength="57.5" x="184.75" y="53.041">DocumentValidate</text><line style="stroke:#181818;stroke-width:0.25;" x1="170.75" x2="243.25" y1="57.2979" y2="57.2979"/><line style="stroke:#181818;stroke-width:0.25;" x1="170.75" x2="243.25" y1="61.2979" y2="61.2979"/></g><!--class ShowDSLDescription--><g id="elem_ShowDSLDescription"><rect codeLine="30" fill="#F1F1F1" height="30.291" id="ShowDSLDescription" rx="1.25" ry="1.25" style="stroke:#181818;stroke-width:0.25;" width="82" x="37.5" y="179.0068"/><ellipse cx="45" cy="190.1523" fill="#ADD1B2" rx="5.5" ry="5.5" style="stroke:#181818;stroke-width:0.5;"/><path d="M46.3828,188.0898 Q46.4609,187.9805 46.5547,187.9258 Q46.6484,187.8711 46.7578,187.8711 Q46.9453,187.8711 47.0625,188.0039 Q47.1797,188.1289 47.1797,188.4336 L47.1797,189.1602 Q47.1797,189.4648 47.0625,189.5977 Q46.9453,189.7305 46.7578,189.7305 Q46.5859,189.7305 46.4844,189.6289 Q46.3828,189.5352 46.3281,189.2773 Q46.3047,189.0977 46.2109,189.0039 Q46.0469,188.8164 45.7422,188.707 Q45.4375,188.5977 45.125,188.5977 Q44.7422,188.5977 44.4219,188.7617 Q44.1094,188.9258 43.8594,189.3008 Q43.6172,189.6758 43.6172,190.1914 L43.6172,190.7383 Q43.6172,191.3555 44.0625,191.7695 Q44.5078,192.1758 45.3047,192.1758 Q45.7734,192.1758 46.1016,192.0508 Q46.2969,191.9727 46.5078,191.7539 Q46.6406,191.6211 46.7109,191.582 Q46.7891,191.543 46.8906,191.543 Q47.0547,191.543 47.1797,191.6758 Q47.3125,191.8008 47.3125,191.9727 Q47.3125,192.1445 47.1406,192.3477 Q46.8906,192.6367 46.4922,192.8008 Q45.9531,193.0273 45.3047,193.0273 Q44.5469,193.0273 43.9453,192.7148 Q43.4531,192.4648 43.1094,191.9336 Q42.7656,191.3945 42.7656,190.7539 L42.7656,190.1758 Q42.7656,189.5117 43.0703,188.9414 Q43.3828,188.3633 43.9297,188.0586 Q44.4766,187.7461 45.0938,187.7461 Q45.4609,187.7461 45.7813,187.832 Q46.1094,187.9102 46.3828,188.0898 Z " fill="#000000"/><text fill="#000000" font-family="sans-serif" font-size="6" font-style="italic" lengthAdjust="spacing" textLength="42.5" x="63.75" y="187.9814">&#171;Value Object&#187;</text><text fill="#000000" font-family="sans-serif" font-size="7" lengthAdjust="spacing" textLength="66" x="52" y="197.041">ShowDSLDescription</text><line style="stroke:#181818;stroke-width:0.25;" x1="38" x2="119" y1="201.2979" y2="201.2979"/><line style="stroke:#181818;stroke-width:0.25;" x1="38" x2="119" y1="205.2979" y2="205.2979"/></g><!--class GenerateShowDSL--><g id="elem_GenerateShowDSL"><rect codeLine="33" fill="#F1F1F1" height="30.291" id="GenerateShowDSL" rx="1.25" ry="1.25" style="stroke:#181818;stroke-width:0.25;" width="76.5" x="25.25" y="35.0068"/><ellipse cx="32.75" cy="46.1523" fill="#ADD1B2" rx="5.5" ry="5.5" style="stroke:#181818;stroke-width:0.5;"/><path d="M34.1328,44.0898 Q34.2109,43.9805 34.3047,43.9258 Q34.3984,43.8711 34.5078,43.8711 Q34.6953,43.8711 34.8125,44.0039 Q34.9297,44.1289 34.9297,44.4336 L34.9297,45.1602 Q34.9297,45.4648 34.8125,45.5977 Q34.6953,45.7305 34.5078,45.7305 Q34.3359,45.7305 34.2344,45.6289 Q34.1328,45.5352 34.0781,45.2773 Q34.0547,45.0977 33.9609,45.0039 Q33.7969,44.8164 33.4922,44.707 Q33.1875,44.5977 32.875,44.5977 Q32.4922,44.5977 32.1719,44.7617 Q31.8594,44.9258 31.6094,45.3008 Q31.3672,45.6758 31.3672,46.1914 L31.3672,46.7383 Q31.3672,47.3555 31.8125,47.7695 Q32.2578,48.1758 33.0547,48.1758 Q33.5234,48.1758 33.8516,48.0508 Q34.0469,47.9727 34.2578,47.7539 Q34.3906,47.6211 34.4609,47.582 Q34.5391,47.543 34.6406,47.543 Q34.8047,47.543 34.9297,47.6758 Q35.0625,47.8008 35.0625,47.9727 Q35.0625,48.1445 34.8906,48.3477 Q34.6406,48.6367 34.2422,48.8008 Q33.7031,49.0273 33.0547,49.0273 Q32.2969,49.0273 31.6953,48.7148 Q31.2031,48.4648 30.8594,47.9336 Q30.5156,47.3945 30.5156,46.7539 L30.5156,46.1758 Q30.5156,45.5117 30.8203,44.9414 Q31.1328,44.3633 31.6797,44.0586 Q32.2266,43.7461 32.8438,43.7461 Q33.2109,43.7461 33.5313,43.832 Q33.8594,43.9102 34.1328,44.0898 Z " fill="#000000"/><text fill="#000000" font-family="sans-serif" font-size="6" font-style="italic" lengthAdjust="spacing" textLength="27.5" x="56.25" y="43.9814">&#171;Service&#187;</text><text fill="#000000" font-family="sans-serif" font-size="7" lengthAdjust="spacing" textLength="60.5" x="39.75" y="53.041">GenerateShowDSL</text><line style="stroke:#181818;stroke-width:0.25;" x1="25.75" x2="101.25" y1="57.2979" y2="57.2979"/><line style="stroke:#181818;stroke-width:0.25;" x1="25.75" x2="101.25" y1="61.2979" y2="61.2979"/></g><!--class CRMManager--><g id="elem_CRMManager"><rect fill="#F1F1F1" height="24" id="CRMManager" rx="1.25" ry="1.25" style="stroke:#181818;stroke-width:0.25;" width="59.5" x="716.75" y="112.2568"/><ellipse cx="724.25" cy="120.2568" fill="#ADD1B2" rx="5.5" ry="5.5" style="stroke:#181818;stroke-width:0.5;"/><path d="M725.6328,118.1943 Q725.7109,118.085 725.8047,118.0303 Q725.8984,117.9756 726.0078,117.9756 Q726.1953,117.9756 726.3125,118.1084 Q726.4297,118.2334 726.4297,118.5381 L726.4297,119.2646 Q726.4297,119.5693 726.3125,119.7021 Q726.1953,119.835 726.0078,119.835 Q725.8359,119.835 725.7344,119.7334 Q725.6328,119.6396 725.5781,119.3818 Q725.5547,119.2021 725.4609,119.1084 Q725.2969,118.9209 724.9922,118.8115 Q724.6875,118.7021 724.375,118.7021 Q723.9922,118.7021 723.6719,118.8662 Q723.3594,119.0303 723.1094,119.4053 Q722.8672,119.7803 722.8672,120.2959 L722.8672,120.8428 Q722.8672,121.46 723.3125,121.874 Q723.7578,122.2803 724.5547,122.2803 Q725.0234,122.2803 725.3516,122.1553 Q725.5469,122.0771 725.7578,121.8584 Q725.8906,121.7256 725.9609,121.6865 Q726.0391,121.6475 726.1406,121.6475 Q726.3047,121.6475 726.4297,121.7803 Q726.5625,121.9053 726.5625,122.0771 Q726.5625,122.249 726.3906,122.4521 Q726.1406,122.7412 725.7422,122.9053 Q725.2031,123.1318 724.5547,123.1318 Q723.7969,123.1318 723.1953,122.8193 Q722.7031,122.5693 722.3594,122.0381 Q722.0156,121.499 722.0156,120.8584 L722.0156,120.2803 Q722.0156,119.6162 722.3203,119.0459 Q722.6328,118.4678 723.1797,118.1631 Q723.7266,117.8506 724.3438,117.8506 Q724.7109,117.8506 725.0313,117.9365 Q725.3594,118.0146 725.6328,118.1943 Z " fill="#000000"/><text fill="#000000" font-family="sans-serif" font-size="7" lengthAdjust="spacing" textLength="43.5" x="731.25" y="123.1553">CRMManager</text><line style="stroke:#181818;stroke-width:0.25;" x1="717.25" x2="775.75" y1="128.2568" y2="128.2568"/><line style="stroke:#181818;stroke-width:0.25;" x1="717.25" x2="775.75" y1="132.2568" y2="132.2568"/></g><!--class ShowRequest--><g id="elem_ShowRequest"><rect fill="#F1F1F1" height="24" id="ShowRequest" rx="1.25" ry="1.25" style="stroke:#181818;stroke-width:0.25;" width="59.5" x="793.75" y="112.2568"/><ellipse cx="801.25" cy="120.2568" fill="#ADD1B2" rx="5.5" ry="5.5" style="stroke:#181818;stroke-width:0.5;"/><path d="M802.6328,118.1943 Q802.7109,118.085 802.8047,118.0303 Q802.8984,117.9756 803.0078,117.9756 Q803.1953,117.9756 803.3125,118.1084 Q803.4297,118.2334 803.4297,118.5381 L803.4297,119.2646 Q803.4297,119.5693 803.3125,119.7021 Q803.1953,119.835 803.0078,119.835 Q802.8359,119.835 802.7344,119.7334 Q802.6328,119.6396 802.5781,119.3818 Q802.5547,119.2021 802.4609,119.1084 Q802.2969,118.9209 801.9922,118.8115 Q801.6875,118.7021 801.375,118.7021 Q800.9922,118.7021 800.6719,118.8662 Q800.3594,119.0303 800.1094,119.4053 Q799.8672,119.7803 799.8672,120.2959 L799.8672,120.8428 Q799.8672,121.46 800.3125,121.874 Q800.7578,122.2803 801.5547,122.2803 Q802.0234,122.2803 802.3516,122.1553 Q802.5469,122.0771 802.7578,121.8584 Q802.8906,121.7256 802.9609,121.6865 Q803.0391,121.6475 803.1406,121.6475 Q803.3047,121.6475 803.4297,121.7803 Q803.5625,121.9053 803.5625,122.0771 Q803.5625,122.249 803.3906,122.4521 Q803.1406,122.7412 802.7422,122.9053 Q802.2031,123.1318 801.5547,123.1318 Q800.7969,123.1318 800.1953,122.8193 Q799.7031,122.5693 799.3594,122.0381 Q799.0156,121.499 799.0156,120.8584 L799.0156,120.2803 Q799.0156,119.6162 799.3203,119.0459 Q799.6328,118.4678 800.1797,118.1631 Q800.7266,117.8506 801.3438,117.8506 Q801.7109,117.8506 802.0313,117.9365 Q802.3594,118.0146 802.6328,118.1943 Z " fill="#000000"/><text fill="#000000" font-family="sans-serif" font-size="7" lengthAdjust="spacing" textLength="43.5" x="808.25" y="123.1553">ShowRequest</text><line style="stroke:#181818;stroke-width:0.25;" x1="794.25" x2="852.75" y1="128.2568" y2="128.2568"/><line style="stroke:#181818;stroke-width:0.25;" x1="794.25" x2="852.75" y1="132.2568" y2="132.2568"/></g><!--class Time--><g id="elem_Time"><rect codeLine="61" fill="#F1F1F1" height="30.291" id="Time" rx="1.25" ry="1.25" style="stroke:#181818;stroke-width:0.25;" width="56.5" x="829.25" y="252.5068"/><ellipse cx="836.75" cy="263.6523" fill="#ADD1B2" rx="5.5" ry="5.5" style="stroke:#181818;stroke-width:0.5;"/><path d="M838.1328,261.5898 Q838.2109,261.4805 838.3047,261.4258 Q838.3984,261.3711 838.5078,261.3711 Q838.6953,261.3711 838.8125,261.5039 Q838.9297,261.6289 838.9297,261.9336 L838.9297,262.6602 Q838.9297,262.9648 838.8125,263.0977 Q838.6953,263.2305 838.5078,263.2305 Q838.3359,263.2305 838.2344,263.1289 Q838.1328,263.0352 838.0781,262.7773 Q838.0547,262.5977 837.9609,262.5039 Q837.7969,262.3164 837.4922,262.207 Q837.1875,262.0977 836.875,262.0977 Q836.4922,262.0977 836.1719,262.2617 Q835.8594,262.4258 835.6094,262.8008 Q835.3672,263.1758 835.3672,263.6914 L835.3672,264.2383 Q835.3672,264.8555 835.8125,265.2695 Q836.2578,265.6758 837.0547,265.6758 Q837.5234,265.6758 837.8516,265.5508 Q838.0469,265.4727 838.2578,265.2539 Q838.3906,265.1211 838.4609,265.082 Q838.5391,265.043 838.6406,265.043 Q838.8047,265.043 838.9297,265.1758 Q839.0625,265.3008 839.0625,265.4727 Q839.0625,265.6445 838.8906,265.8477 Q838.6406,266.1367 838.2422,266.3008 Q837.7031,266.5273 837.0547,266.5273 Q836.2969,266.5273 835.6953,266.2148 Q835.2031,265.9648 834.8594,265.4336 Q834.5156,264.8945 834.5156,264.2539 L834.5156,263.6758 Q834.5156,263.0117 834.8203,262.4414 Q835.1328,261.8633 835.6797,261.5586 Q836.2266,261.2461 836.8438,261.2461 Q837.2109,261.2461 837.5313,261.332 Q837.8594,261.4102 838.1328,261.5898 Z " fill="#000000"/><text fill="#000000" font-family="sans-serif" font-size="6" font-style="italic" lengthAdjust="spacing" textLength="42.5" x="842.75" y="261.4814">&#171;Value Object&#187;</text><text fill="#000000" font-family="sans-serif" font-size="7" lengthAdjust="spacing" textLength="15.5" x="856.25" y="270.541">Time</text><line style="stroke:#181818;stroke-width:0.25;" x1="829.75" x2="885.25" y1="274.7979" y2="274.7979"/><line style="stroke:#181818;stroke-width:0.25;" x1="829.75" x2="885.25" y1="278.7979" y2="278.7979"/></g><!--class Date--><g id="elem_Date"><rect codeLine="64" fill="#F1F1F1" height="30.291" id="Date" rx="1.25" ry="1.25" style="stroke:#181818;stroke-width:0.25;" width="56.5" x="903.25" y="252.5068"/><ellipse cx="910.75" cy="263.6523" fill="#ADD1B2" rx="5.5" ry="5.5" style="stroke:#181818;stroke-width:0.5;"/><path d="M912.1328,261.5898 Q912.2109,261.4805 912.3047,261.4258 Q912.3984,261.3711 912.5078,261.3711 Q912.6953,261.3711 912.8125,261.5039 Q912.9297,261.6289 912.9297,261.9336 L912.9297,262.6602 Q912.9297,262.9648 912.8125,263.0977 Q912.6953,263.2305 912.5078,263.2305 Q912.3359,263.2305 912.2344,263.1289 Q912.1328,263.0352 912.0781,262.7773 Q912.0547,262.5977 911.9609,262.5039 Q911.7969,262.3164 911.4922,262.207 Q911.1875,262.0977 910.875,262.0977 Q910.4922,262.0977 910.1719,262.2617 Q909.8594,262.4258 909.6094,262.8008 Q909.3672,263.1758 909.3672,263.6914 L909.3672,264.2383 Q909.3672,264.8555 909.8125,265.2695 Q910.2578,265.6758 911.0547,265.6758 Q911.5234,265.6758 911.8516,265.5508 Q912.0469,265.4727 912.2578,265.2539 Q912.3906,265.1211 912.4609,265.082 Q912.5391,265.043 912.6406,265.043 Q912.8047,265.043 912.9297,265.1758 Q913.0625,265.3008 913.0625,265.4727 Q913.0625,265.6445 912.8906,265.8477 Q912.6406,266.1367 912.2422,266.3008 Q911.7031,266.5273 911.0547,266.5273 Q910.2969,266.5273 909.6953,266.2148 Q909.2031,265.9648 908.8594,265.4336 Q908.5156,264.8945 908.5156,264.2539 L908.5156,263.6758 Q908.5156,263.0117 908.8203,262.4414 Q909.1328,261.8633 909.6797,261.5586 Q910.2266,261.2461 910.8438,261.2461 Q911.2109,261.2461 911.5313,261.332 Q911.8594,261.4102 912.1328,261.5898 Z " fill="#000000"/><text fill="#000000" font-family="sans-serif" font-size="6" font-style="italic" lengthAdjust="spacing" textLength="42.5" x="916.75" y="261.4814">&#171;Value Object&#187;</text><text fill="#000000" font-family="sans-serif" font-size="7" lengthAdjust="spacing" textLength="15" x="930.5" y="270.541">Date</text><line style="stroke:#181818;stroke-width:0.25;" x1="903.75" x2="959.25" y1="274.7979" y2="274.7979"/><line style="stroke:#181818;stroke-width:0.25;" x1="903.75" x2="959.25" y1="278.7979" y2="278.7979"/></g><!--class Duration--><g id="elem_Duration"><rect codeLine="67" fill="#F1F1F1" height="30.291" id="Duration" rx="1.25" ry="1.25" style="stroke:#181818;stroke-width:0.25;" width="56.5" x="977.25" y="252.5068"/><ellipse cx="984.75" cy="263.6523" fill="#ADD1B2" rx="5.5" ry="5.5" style="stroke:#181818;stroke-width:0.5;"/><path d="M986.1328,261.5898 Q986.2109,261.4805 986.3047,261.4258 Q986.3984,261.3711 986.5078,261.3711 Q986.6953,261.3711 986.8125,261.5039 Q986.9297,261.6289 986.9297,261.9336 L986.9297,262.6602 Q986.9297,262.9648 986.8125,263.0977 Q986.6953,263.2305 986.5078,263.2305 Q986.3359,263.2305 986.2344,263.1289 Q986.1328,263.0352 986.0781,262.7773 Q986.0547,262.5977 985.9609,262.5039 Q985.7969,262.3164 985.4922,262.207 Q985.1875,262.0977 984.875,262.0977 Q984.4922,262.0977 984.1719,262.2617 Q983.8594,262.4258 983.6094,262.8008 Q983.3672,263.1758 983.3672,263.6914 L983.3672,264.2383 Q983.3672,264.8555 983.8125,265.2695 Q984.2578,265.6758 985.0547,265.6758 Q985.5234,265.6758 985.8516,265.5508 Q986.0469,265.4727 986.2578,265.2539 Q986.3906,265.1211 986.4609,265.082 Q986.5391,265.043 986.6406,265.043 Q986.8047,265.043 986.9297,265.1758 Q987.0625,265.3008 987.0625,265.4727 Q987.0625,265.6445 986.8906,265.8477 Q986.6406,266.1367 986.2422,266.3008 Q985.7031,266.5273 985.0547,266.5273 Q984.2969,266.5273 983.6953,266.2148 Q983.2031,265.9648 982.8594,265.4336 Q982.5156,264.8945 982.5156,264.2539 L982.5156,263.6758 Q982.5156,263.0117 982.8203,262.4414 Q983.1328,261.8633 983.6797,261.5586 Q984.2266,261.2461 984.8438,261.2461 Q985.2109,261.2461 985.5313,261.332 Q985.8594,261.4102 986.1328,261.5898 Z " fill="#000000"/><text fill="#000000" font-family="sans-serif" font-size="6" font-style="italic" lengthAdjust="spacing" textLength="42.5" x="990.75" y="261.4814">&#171;Value Object&#187;</text><text fill="#000000" font-family="sans-serif" font-size="7" lengthAdjust="spacing" textLength="27" x="998.5" y="270.541">Duration</text><line style="stroke:#181818;stroke-width:0.25;" x1="977.75" x2="1033.25" y1="274.7979" y2="274.7979"/><line style="stroke:#181818;stroke-width:0.25;" x1="977.75" x2="1033.25" y1="278.7979" y2="278.7979"/></g><!--class QuantityOfDrones--><g id="elem_QuantityOfDrones"><rect codeLine="70" fill="#F1F1F1" height="30.291" id="QuantityOfDrones" rx="1.25" ry="1.25" style="stroke:#181818;stroke-width:0.25;" width="73" x="1051.5" y="252.5068"/><ellipse cx="1059" cy="263.6523" fill="#ADD1B2" rx="5.5" ry="5.5" style="stroke:#181818;stroke-width:0.5;"/><path d="M1060.3828,261.5898 Q1060.4609,261.4805 1060.5547,261.4258 Q1060.6484,261.3711 1060.7578,261.3711 Q1060.9453,261.3711 1061.0625,261.5039 Q1061.1797,261.6289 1061.1797,261.9336 L1061.1797,262.6602 Q1061.1797,262.9648 1061.0625,263.0977 Q1060.9453,263.2305 1060.7578,263.2305 Q1060.5859,263.2305 1060.4844,263.1289 Q1060.3828,263.0352 1060.3281,262.7773 Q1060.3047,262.5977 1060.2109,262.5039 Q1060.0469,262.3164 1059.7422,262.207 Q1059.4375,262.0977 1059.125,262.0977 Q1058.7422,262.0977 1058.4219,262.2617 Q1058.1094,262.4258 1057.8594,262.8008 Q1057.6172,263.1758 1057.6172,263.6914 L1057.6172,264.2383 Q1057.6172,264.8555 1058.0625,265.2695 Q1058.5078,265.6758 1059.3047,265.6758 Q1059.7734,265.6758 1060.1016,265.5508 Q1060.2969,265.4727 1060.5078,265.2539 Q1060.6406,265.1211 1060.7109,265.082 Q1060.7891,265.043 1060.8906,265.043 Q1061.0547,265.043 1061.1797,265.1758 Q1061.3125,265.3008 1061.3125,265.4727 Q1061.3125,265.6445 1061.1406,265.8477 Q1060.8906,266.1367 1060.4922,266.3008 Q1059.9531,266.5273 1059.3047,266.5273 Q1058.5469,266.5273 1057.9453,266.2148 Q1057.4531,265.9648 1057.1094,265.4336 Q1056.7656,264.8945 1056.7656,264.2539 L1056.7656,263.6758 Q1056.7656,263.0117 1057.0703,262.4414 Q1057.3828,261.8633 1057.9297,261.5586 Q1058.4766,261.2461 1059.0938,261.2461 Q1059.4609,261.2461 1059.7813,261.332 Q1060.1094,261.4102 1060.3828,261.5898 Z " fill="#000000"/><text fill="#000000" font-family="sans-serif" font-size="6" font-style="italic" lengthAdjust="spacing" textLength="42.5" x="1073.25" y="261.4814">&#171;Value Object&#187;</text><text fill="#000000" font-family="sans-serif" font-size="7" lengthAdjust="spacing" textLength="57" x="1066" y="270.541">QuantityOfDrones</text><line style="stroke:#181818;stroke-width:0.25;" x1="1052" x2="1124" y1="274.7979" y2="274.7979"/><line style="stroke:#181818;stroke-width:0.25;" x1="1052" x2="1124" y1="278.7979" y2="278.7979"/></g><!--link ShowProposal to CustomerFeedback--><g id="link_ShowProposal_CustomerFeedback"><path codeLine="37" d="M640.375,64.0068 C630.125,69.3918 619.125,76.2968 610.5,84.5068 C603.23,91.4318 598.6308,98.3069 594.3858,106.2369 " fill="none" id="ShowProposal-to-CustomerFeedback" style="stroke:#181818;stroke-width:0.5;"/><polygon fill="#181818" points="592.97,108.8818,596.857,105.8584,594.1499,106.6778,593.3305,103.9706,592.97,108.8818" style="stroke:#181818;stroke-width:0.5;"/><text fill="#000000" font-family="sans-serif" font-size="6.5" lengthAdjust="spacing" textLength="55.5" x="611" y="92.021">customerFeedback</text><text fill="#000000" font-family="sans-serif" font-size="6.5" lengthAdjust="spacing" textLength="3.5" x="590.5466" y="103.3849">1</text></g><!--link ShowProposal to CRMManager--><g id="link_ShowProposal_CRMManager"><path codeLine="38" d="M690.445,69.5568 C704.335,82.9918 720.438,98.5618 732.283,110.0118 " fill="none" id="ShowProposal-to-CRMManager" style="stroke:#181818;stroke-width:0.5;"/><polygon fill="#181818" points="734.44,112.0968,732.5946,107.5313,732.6425,110.3593,729.8145,110.4072,734.44,112.0968" style="stroke:#181818;stroke-width:0.5;"/><text fill="#000000" font-family="sans-serif" font-size="6.5" lengthAdjust="spacing" textLength="65.5" x="716.5" y="92.021">template configured by</text><text fill="#000000" font-family="sans-serif" font-size="6.5" lengthAdjust="spacing" textLength="3.5" x="727.5738" y="106.6288">1</text></g><!--link ShowProposal to ShowRequest--><g id="link_ShowProposal_ShowRequest"><path codeLine="39" d="M701.745,55.1768 C726.115,59.7168 760.315,68.4668 786.5,84.5068 C798.16,91.6468 806.7227,101.0364 813.5027,109.8264 " fill="none" id="ShowProposal-to-ShowRequest" style="stroke:#181818;stroke-width:0.5;"/><polygon fill="#181818" points="815.335,112.2018,814.1702,107.4171,813.8081,110.2223,811.003,109.8602,815.335,112.2018" style="stroke:#181818;stroke-width:0.5;"/><text fill="#000000" font-family="sans-serif" font-size="6.5" lengthAdjust="spacing" textLength="26.5" x="799" y="92.021">based on</text><text fill="#000000" font-family="sans-serif" font-size="6.5" lengthAdjust="spacing" textLength="3.5" x="809.2943" y="106.5565">1</text></g><!--link ShowProposal to ShowProposalStatus--><g id="link_ShowProposal_ShowProposalStatus"><path codeLine="40" d="M640.48,53.1268 C594.025,57.1518 502.99,66.6718 427.5,84.5068 C400.86,90.8018 374.4894,99.6529 352.0594,107.9329 " fill="none" id="ShowProposal-to-ShowProposalStatus" style="stroke:#181818;stroke-width:0.5;"/><polygon fill="#181818" points="349.245,108.9718,354.1592,109.2897,351.5903,108.1061,352.7739,105.5372,349.245,108.9718" style="stroke:#181818;stroke-width:0.5;"/><text fill="#000000" font-family="sans-serif" font-size="6.5" lengthAdjust="spacing" textLength="43.5" x="428" y="92.021">proposalStatus</text><text fill="#000000" font-family="sans-serif" font-size="6.5" lengthAdjust="spacing" textLength="3.5" x="353.169" y="103.4935">1</text></g><!--link ShowProposal to ShowProposalDocument--><g id="link_ShowProposal_ShowProposalDocument"><path codeLine="41" d="M640.33,52.7618 C584.595,56.7068 463.11,66.6768 362,84.5068 C316.935,92.4518 306.325,97.6368 262,109.0068 C259.27,109.7068 259.3724,109.6729 256.5424,110.4129 " fill="none" id="ShowProposal-to-ShowProposalDocument" style="stroke:#181818;stroke-width:0.5;"/><polygon fill="#181818" points="253.64,111.1718,258.4996,111.9684,256.0587,110.5394,257.4877,108.0985,253.64,111.1718" style="stroke:#181818;stroke-width:0.5;"/><text fill="#000000" font-family="sans-serif" font-size="6.5" lengthAdjust="spacing" textLength="28.5" x="362.5" y="92.021">document</text><text fill="#000000" font-family="sans-serif" font-size="6.5" lengthAdjust="spacing" textLength="3.5" x="257.4961" y="108.3187">1</text></g><!--link ShowProposal to ShowProposalNumber--><g id="link_ShowProposal_ShowProposalNumber"><path codeLine="42" d="M640.455,54.6968 C605.93,59.6268 548.315,69.3218 500.5,84.5068 C480.09,90.9868 460.7895,99.4932 443.8945,107.6832 " fill="none" id="ShowProposal-to-ShowProposalNumber" style="stroke:#181818;stroke-width:0.5;"/><polygon fill="#181818" points="441.195,108.9918,446.1167,108.8286,443.4446,107.9013,444.3719,105.2292,441.195,108.9918" style="stroke:#181818;stroke-width:0.5;"/><text fill="#000000" font-family="sans-serif" font-size="6.5" lengthAdjust="spacing" textLength="47" x="501" y="92.021">proposalNumber</text><text fill="#000000" font-family="sans-serif" font-size="6.5" lengthAdjust="spacing" textLength="3.5" x="443.5892" y="103.2759">1</text></g><!--link ShowProposal to Insurance--><g id="link_ShowProposal_Insurance"><path codeLine="43" d="M640.365,59.2968 C620.03,65.3718 592.96,74.2568 570,84.5068 C554.27,91.5268 540.0183,99.5014 526.9233,107.4064 " fill="none" id="ShowProposal-to-Insurance" style="stroke:#181818;stroke-width:0.5;"/><polygon fill="#181818" points="524.355,108.9568,529.2411,108.3434,526.4953,107.6648,527.1739,104.919,524.355,108.9568" style="stroke:#181818;stroke-width:0.5;"/><text fill="#000000" font-family="sans-serif" font-size="6.5" lengthAdjust="spacing" textLength="28" x="570.5" y="92.021">insurance</text><text fill="#000000" font-family="sans-serif" font-size="6.5" lengthAdjust="spacing" textLength="3.5" x="525.311" y="103.4754">1</text></g><!--link ShowProposal to ShowConfiguration--><g id="link_ShowProposal_ShowConfiguration"><path codeLine="44" d="M640.38,50.5568 C571.68,50.7018 400.345,54.3418 261,84.5068 C248.77,87.1518 246.585,90.7718 234.5,94.0068 C198.29,103.6968 187.885,99.9868 151.5,109.0068 C148.665,109.7118 148.6373,109.6775 145.7123,110.5025 " fill="none" id="ShowProposal-to-ShowConfiguration" style="stroke:#181818;stroke-width:0.5;"/><polygon fill="#181818" points="142.825,111.3168,147.6989,112.0202,145.2311,110.6382,146.6131,108.1704,142.825,111.3168" style="stroke:#181818;stroke-width:0.5;"/><text fill="#000000" font-family="sans-serif" font-size="6.5" lengthAdjust="spacing" textLength="52.5" x="261.5" y="92.021">showConfiguration</text><text fill="#000000" font-family="sans-serif" font-size="6.5" lengthAdjust="spacing" textLength="3.5" x="146.7207" y="108.1563">1</text></g><!--link ShowProposal to Video--><g id="link_ShowProposal_Video"><path codeLine="45" d="M671,69.5568 C671,81.8068 671,94.5668 671,105.9318 " fill="none" id="ShowProposal-to-Video" style="stroke:#181818;stroke-width:0.5;"/><polygon fill="#181818" points="671,108.9318,673,104.4318,671,106.4318,669,104.4318,671,108.9318" style="stroke:#181818;stroke-width:0.5;"/><text fill="#000000" font-family="sans-serif" font-size="6.5" lengthAdjust="spacing" textLength="14.5" x="671.5" y="92.021">video</text><text fill="#000000" font-family="sans-serif" font-size="6.5" lengthAdjust="spacing" textLength="3.5" x="667.1391" y="103.4452">1</text></g><!--link GenerateShowDSL to ShowConfiguration--><g id="link_GenerateShowDSL_ShowConfiguration"><path codeLine="48" d="M71.9,65.5318 C79.1,78.1968 87.9377,93.7386 95.1327,106.3986 " fill="none" id="GenerateShowDSL-to-ShowConfiguration" style="stroke:#181818;stroke-width:0.5;stroke-dasharray:7.0,7.0;"/><polygon fill="#181818" points="96.615,109.0068,96.1303,104.1063,95.3797,106.8333,92.6527,106.0827,96.615,109.0068" style="stroke:#181818;stroke-width:0.5;"/><text fill="#000000" font-family="sans-serif" font-size="6.5" lengthAdjust="spacing" textLength="14" x="88.5" y="92.021">uses</text></g><!--link GenerateShowDSL to ShowDSLDescription--><g id="link_GenerateShowDSL_ShowDSLDescription"><path codeLine="49" d="M53.545,65.6268 C42.965,83.3418 28.87,113.7818 37.5,139.5068 C42.57,154.6168 51.6484,166.6786 61.0334,176.7836 " fill="none" id="GenerateShowDSL-to-ShowDSLDescription" style="stroke:#181818;stroke-width:0.5;"/><polygon fill="#181818" points="63.075,178.9818,61.4781,174.3235,61.3737,177.15,58.5472,177.0456,63.075,178.9818" style="stroke:#181818;stroke-width:0.5;"/><text fill="#000000" font-family="sans-serif" font-size="6.5" lengthAdjust="spacing" textLength="20" x="38" y="127.021">returns</text></g><!--link DocumentValidate to ShowProposalDocument--><g id="link_DocumentValidate_ShowProposalDocument"><path codeLine="52" d="M206.685,65.5668 C206.54,73.9218 206.42,84.5468 206.5,94.0068 C206.54,98.8618 206.5696,101.1623 206.6496,105.9273 " fill="none" id="DocumentValidate-to-ShowProposalDocument" style="stroke:#181818;stroke-width:0.5;stroke-dasharray:7.0,7.0;"/><polygon fill="#181818" points="206.7,108.9268,208.6242,104.3939,206.658,106.4272,204.6247,104.461,206.7,108.9268" style="stroke:#181818;stroke-width:0.5;"/><text fill="#000000" font-family="sans-serif" font-size="6.5" lengthAdjust="spacing" textLength="25" x="207" y="92.021">validates</text><text fill="#000000" font-family="sans-serif" font-size="6.5" lengthAdjust="spacing" textLength="3.5" x="202.7772" y="103.4392">1</text></g><!--link ShowConfiguration to ShowDSLDescription--><g id="link_ShowConfiguration_ShowDSLDescription"><path codeLine="55" d="M99.315,139.5568 C94.845,151.2018 89.7209,164.5414 85.2509,176.1764 " fill="none" id="ShowConfiguration-to-ShowDSLDescription" style="stroke:#181818;stroke-width:0.5;"/><polygon fill="#181818" points="84.175,178.9768,87.6558,175.4934,85.0716,176.6431,83.9219,174.0589,84.175,178.9768" style="stroke:#181818;stroke-width:0.5;"/><text fill="#000000" font-family="sans-serif" font-size="6.5" lengthAdjust="spacing" textLength="60" x="94" y="162.021">showDSLDescription</text><text fill="#000000" font-family="sans-serif" font-size="6.5" lengthAdjust="spacing" textLength="11" x="73.2133" y="173.2576">0..1</text></g><!--link ShowProposal to QuantityOfDrones--><g id="link_ShowProposal_QuantityOfDrones"><path codeLine="74" d="M701.56,52.2118 C745.965,55.0118 830.495,62.9168 899,84.5068 C922.22,91.8268 926.995,96.6968 948,109.0068 C979.055,127.2068 989.83,128.7768 1015,154.5068 C1044.84,185.0118 1067.9704,226.8425 1079.5054,249.7425 " fill="none" id="ShowProposal-to-QuantityOfDrones" style="stroke:#181818;stroke-width:0.5;"/><polygon fill="#181818" points="1080.855,252.4218,1080.6168,247.5032,1079.7303,250.1891,1077.0444,249.3026,1080.855,252.4218" style="stroke:#181818;stroke-width:0.5;"/><text fill="#000000" font-family="sans-serif" font-size="6.5" lengthAdjust="spacing" textLength="32" x="1024" y="162.021">qnt_drones</text><text fill="#000000" font-family="sans-serif" font-size="6.5" lengthAdjust="spacing" textLength="3.5" x="1075.5204" y="246.9331">1</text></g><!--link ShowProposal to Time--><g id="link_ShowProposal_Time"><path codeLine="75" d="M701.555,53.2068 C734.53,56.7518 787.96,65.1618 830,84.5068 C846.27,91.9968 854.07,92.9468 862,109.0068 C885.61,156.8168 871.6894,220.1666 863.1594,249.4366 " fill="none" id="ShowProposal-to-Time" style="stroke:#181818;stroke-width:0.5;"/><polygon fill="#181818" points="862.32,252.3168,865.4992,248.5561,863.0195,249.9167,861.6589,247.437,862.32,252.3168" style="stroke:#181818;stroke-width:0.5;"/><text fill="#000000" font-family="sans-serif" font-size="6.5" lengthAdjust="spacing" textLength="35" x="875.5" y="162.021">timeOfShow</text><text fill="#000000" font-family="sans-serif" font-size="6.5" lengthAdjust="spacing" textLength="3.5" x="859.4532" y="246.8065">1</text></g><!--link ShowProposal to Date--><g id="link_ShowProposal_Date"><path codeLine="76" d="M701.585,51.3768 C739.1,53.2418 803.765,60.1068 853,84.5068 C890.235,102.9618 898.795,116.2368 915,154.5068 C928.96,187.4818 931.3969,227.192 931.6419,249.387 " fill="none" id="ShowProposal-to-Date" style="stroke:#181818;stroke-width:0.5;"/><polygon fill="#181818" points="931.675,252.3868,933.6252,247.865,931.6474,249.887,929.6255,247.9092,931.675,252.3868" style="stroke:#181818;stroke-width:0.5;"/><text fill="#000000" font-family="sans-serif" font-size="6.5" lengthAdjust="spacing" textLength="35" x="919.5" y="162.021">dateOfShow</text><text fill="#000000" font-family="sans-serif" font-size="6.5" lengthAdjust="spacing" textLength="3.5" x="927.8502" y="246.8909">1</text></g><!--link ShowProposal to Duration--><g id="link_ShowProposal_Duration"><path codeLine="77" d="M701.61,51.8468 C742.46,54.1768 816.445,61.4968 875,84.5068 C920.23,102.2818 931.705,114.2968 959,154.5068 C980.645,186.3918 994.1826,227.0446 1000.6826,249.5496 " fill="none" id="ShowProposal-to-Duration" style="stroke:#181818;stroke-width:0.5;"/><polygon fill="#181818" points="1001.515,252.4318,1002.1878,247.5536,1000.8213,250.03,998.3449,248.6635,1001.515,252.4318" style="stroke:#181818;stroke-width:0.5;"/><text fill="#000000" font-family="sans-serif" font-size="6.5" lengthAdjust="spacing" textLength="45.5" x="965" y="162.021">durationOfShow</text><text fill="#000000" font-family="sans-serif" font-size="6.5" lengthAdjust="spacing" textLength="3.5" x="996.8322" y="246.9452">1</text></g><!--SRC=[bLHDRzim3BtdLn2vxDHWkmg5B_LM36YNjXvw7MIRSRN5agkFT4Mn_pugKTB8ZXqr1uUctXDfyf4Th_xm1c5UFAcNEwqwPVWQvd1voPj6OyCjPjdRR0RqG-bQECOLbbjd2Fl8rmvXMVx6odguH__RaQerDoPY4VwhjCA-PXcPMgdpb5nLhaLfFnhgXsjBr2cixz8upMM5AU0hPwngKNz3h4igO6fQLqgkH4Dnh53og0mdu8-YHfLoxxuq11GrTOiu1UgDgAXlC997NjpaQ2ejkf187EKKxHebKjuOwEDHFaMjliZWxzOTUyaz_p8Vr951rVDCS1zkRxaawMe65jjkxR-z2WN66ihNSQvtFk2pGsCPbDmGNCbfU2nv1btqdiRTjuf17Qmqtax5xp5tx-FSWvOPYBqv7IaI9WFJTuspjpfbiF5_GG1zgHmqq3zOBB9JqPr1SnBlOmxboq2ZTLgQ47um48VuWnEVm7YJDW5cZeGTJt2axjwHhy_dnIBSta_P37mpcfzP5xPnySIzXj-E9_2dQ9EMKxvR0kTnxtleBFRUyUsgMgvohIIUMVbfAs2leFxT39wb_LLlxIcUhmUDFZsNAm-PmlgQqDJHCm5x468ThC2X3lq7]--></g></svg>