<?xml version="1.0" encoding="UTF-8" standalone="no"?><svg xmlns="http://www.w3.org/2000/svg" xmlns:xlink="http://www.w3.org/1999/xlink" contentStyleType="text/css" height="654px" preserveAspectRatio="none" style="width:276px;height:654px;background:#FFFFFF;" version="1.1" viewBox="0 0 276 654" width="276px" zoomAndPan="magnify"><defs/><g><!--class ShowProposal--><g id="elem_ShowProposal"><rect codeLine="5" fill="#F1F1F1" height="101.4688" id="ShowProposal" rx="2.5" ry="2.5" style="stroke:#181818;stroke-width:0.5;" width="161" x="25.5" y="7"/><ellipse cx="41.5" cy="49.7344" fill="#ADD1B2" rx="12" ry="12" style="stroke:#181818;stroke-width:1.0;"/><path d="M43.6406,44.6563 Q43.8281,44.4063 44.0469,44.2813 Q44.2656,44.1406 44.5156,44.1406 Q44.9531,44.1406 45.2344,44.4531 Q45.5156,44.75 45.5156,45.4688 L45.5156,47.1719 Q45.5156,47.8906 45.2344,48.2031 Q44.9531,48.5156 44.5156,48.5156 Q44.125,48.5156 43.875,48.2813 Q43.625,48.0625 43.5156,47.4531 Q43.4531,47.0313 43.2344,46.8125 Q42.8438,46.375 42.125,46.1094 Q41.4063,45.8438 40.6875,45.8438 Q39.7813,45.8438 39.0313,46.2344 Q38.2813,46.625 37.7031,47.5156 Q37.125,48.3906 37.125,49.5938 L37.125,50.8906 Q37.125,52.3438 38.1719,53.3125 Q39.2344,54.2813 41.0938,54.2813 Q42.2031,54.2813 42.9844,53.9688 Q43.4219,53.7969 43.9375,53.2813 Q44.25,52.9688 44.4219,52.875 Q44.5938,52.7813 44.8281,52.7813 Q45.2188,52.7813 45.5156,53.0938 Q45.8281,53.3906 45.8281,53.7969 Q45.8281,54.2031 45.4219,54.6719 Q44.8281,55.3594 43.8906,55.75 Q42.625,56.2813 41.1094,56.2813 Q39.3281,56.2813 37.9063,55.5469 Q36.75,54.9531 35.9375,53.6875 Q35.125,52.4219 35.125,50.9375 L35.125,49.5781 Q35.125,48.0156 35.8438,46.6719 Q36.5781,45.3125 37.8594,44.5781 Q39.1563,43.8438 40.6094,43.8438 Q41.4688,43.8438 42.2188,44.0469 Q42.9844,44.25 43.6406,44.6563 Z " fill="#000000"/><text fill="#000000" font-family="sans-serif" font-size="20" font-style="italic" lengthAdjust="spacing" textLength="71" x="84.5" y="32.7617">«Entity»</text><text fill="#000000" font-family="sans-serif" font-size="20" font-style="italic" lengthAdjust="spacing" textLength="56" x="92" y="57.918">«root»</text><text fill="#000000" font-family="sans-serif" font-size="20" lengthAdjust="spacing" textLength="127" x="56.5" y="83.0742">ShowProposal</text><line style="stroke:#181818;stroke-width:0.5;" x1="26.5" x2="185.5" y1="92.4688" y2="92.4688"/><line style="stroke:#181818;stroke-width:0.5;" x1="26.5" x2="185.5" y1="100.4688" y2="100.4688"/></g><!--class ShowConfiguration--><g id="elem_ShowConfiguration"><rect codeLine="8" fill="#F1F1F1" height="76.3125" id="ShowConfiguration" rx="2.5" ry="2.5" style="stroke:#181818;stroke-width:0.5;" width="198" x="7" y="195"/><ellipse cx="23" cy="225.1563" fill="#ADD1B2" rx="12" ry="12" style="stroke:#181818;stroke-width:1.0;"/><path d="M25.1406,220.0781 Q25.3281,219.8281 25.5469,219.7031 Q25.7656,219.5625 26.0156,219.5625 Q26.4531,219.5625 26.7344,219.875 Q27.0156,220.1719 27.0156,220.8906 L27.0156,222.5938 Q27.0156,223.3125 26.7344,223.625 Q26.4531,223.9375 26.0156,223.9375 Q25.625,223.9375 25.375,223.7031 Q25.125,223.4844 25.0156,222.875 Q24.9531,222.4531 24.7344,222.2344 Q24.3438,221.7969 23.625,221.5313 Q22.9063,221.2656 22.1875,221.2656 Q21.2813,221.2656 20.5313,221.6563 Q19.7813,222.0469 19.2031,222.9375 Q18.625,223.8125 18.625,225.0156 L18.625,226.3125 Q18.625,227.7656 19.6719,228.7344 Q20.7344,229.7031 22.5938,229.7031 Q23.7031,229.7031 24.4844,229.3906 Q24.9219,229.2188 25.4375,228.7031 Q25.75,228.3906 25.9219,228.2969 Q26.0938,228.2031 26.3281,228.2031 Q26.7188,228.2031 27.0156,228.5156 Q27.3281,228.8125 27.3281,229.2188 Q27.3281,229.625 26.9219,230.0938 Q26.3281,230.7813 25.3906,231.1719 Q24.125,231.7031 22.6094,231.7031 Q20.8281,231.7031 19.4063,230.9688 Q18.25,230.375 17.4375,229.1094 Q16.625,227.8438 16.625,226.3594 L16.625,225 Q16.625,223.4375 17.3438,222.0938 Q18.0781,220.7344 19.3594,220 Q20.6563,219.2656 22.1094,219.2656 Q22.9688,219.2656 23.7188,219.4688 Q24.4844,219.6719 25.1406,220.0781 Z " fill="#000000"/><text fill="#000000" font-family="sans-serif" font-size="20" font-style="italic" lengthAdjust="spacing" textLength="71" x="84.5" y="220.7617">«Entity»</text><text fill="#000000" font-family="sans-serif" font-size="20" lengthAdjust="spacing" textLength="164" x="38" y="245.918">ShowConfiguration</text><line style="stroke:#181818;stroke-width:0.5;" x1="8" x2="204" y1="255.3125" y2="255.3125"/><line style="stroke:#181818;stroke-width:0.5;" x1="8" x2="204" y1="263.3125" y2="263.3125"/></g><!--class Drone--><g id="elem_Drone"><rect codeLine="11" fill="#F1F1F1" height="101.4688" id="Drone" rx="2.5" ry="2.5" style="stroke:#181818;stroke-width:0.5;" width="101" x="55.5" y="358"/><ellipse cx="71.5" cy="400.7344" fill="#ADD1B2" rx="12" ry="12" style="stroke:#181818;stroke-width:1.0;"/><path d="M73.6406,395.6563 Q73.8281,395.4063 74.0469,395.2813 Q74.2656,395.1406 74.5156,395.1406 Q74.9531,395.1406 75.2344,395.4531 Q75.5156,395.75 75.5156,396.4688 L75.5156,398.1719 Q75.5156,398.8906 75.2344,399.2031 Q74.9531,399.5156 74.5156,399.5156 Q74.125,399.5156 73.875,399.2813 Q73.625,399.0625 73.5156,398.4531 Q73.4531,398.0313 73.2344,397.8125 Q72.8438,397.375 72.125,397.1094 Q71.4063,396.8438 70.6875,396.8438 Q69.7813,396.8438 69.0313,397.2344 Q68.2813,397.625 67.7031,398.5156 Q67.125,399.3906 67.125,400.5938 L67.125,401.8906 Q67.125,403.3438 68.1719,404.3125 Q69.2344,405.2813 71.0938,405.2813 Q72.2031,405.2813 72.9844,404.9688 Q73.4219,404.7969 73.9375,404.2813 Q74.25,403.9688 74.4219,403.875 Q74.5938,403.7813 74.8281,403.7813 Q75.2188,403.7813 75.5156,404.0938 Q75.8281,404.3906 75.8281,404.7969 Q75.8281,405.2031 75.4219,405.6719 Q74.8281,406.3594 73.8906,406.75 Q72.625,407.2813 71.1094,407.2813 Q69.3281,407.2813 67.9063,406.5469 Q66.75,405.9531 65.9375,404.6875 Q65.125,403.4219 65.125,401.9375 L65.125,400.5781 Q65.125,399.0156 65.8438,397.6719 Q66.5781,396.3125 67.8594,395.5781 Q69.1563,394.8438 70.6094,394.8438 Q71.4688,394.8438 72.2188,395.0469 Q72.9844,395.25 73.6406,395.6563 Z " fill="#000000"/><text fill="#000000" font-family="sans-serif" font-size="20" font-style="italic" lengthAdjust="spacing" textLength="71" x="84.5" y="383.7617">«Entity»</text><text fill="#000000" font-family="sans-serif" font-size="20" font-style="italic" lengthAdjust="spacing" textLength="56" x="92" y="408.918">«root»</text><text fill="#000000" font-family="sans-serif" font-size="20" lengthAdjust="spacing" textLength="53" x="93.5" y="434.0742">Drone</text><line style="stroke:#181818;stroke-width:0.5;" x1="56.5" x2="155.5" y1="443.4688" y2="443.4688"/><line style="stroke:#181818;stroke-width:0.5;" x1="56.5" x2="155.5" y1="451.4688" y2="451.4688"/></g><!--class Model--><g id="elem_Model"><rect codeLine="14" fill="#F1F1F1" height="101.4688" id="Model" rx="2.5" ry="2.5" style="stroke:#181818;stroke-width:0.5;" width="101" x="55.5" y="546"/><ellipse cx="71.5" cy="588.7344" fill="#ADD1B2" rx="12" ry="12" style="stroke:#181818;stroke-width:1.0;"/><path d="M73.6406,583.6563 Q73.8281,583.4063 74.0469,583.2813 Q74.2656,583.1406 74.5156,583.1406 Q74.9531,583.1406 75.2344,583.4531 Q75.5156,583.75 75.5156,584.4688 L75.5156,586.1719 Q75.5156,586.8906 75.2344,587.2031 Q74.9531,587.5156 74.5156,587.5156 Q74.125,587.5156 73.875,587.2813 Q73.625,587.0625 73.5156,586.4531 Q73.4531,586.0313 73.2344,585.8125 Q72.8438,585.375 72.125,585.1094 Q71.4063,584.8438 70.6875,584.8438 Q69.7813,584.8438 69.0313,585.2344 Q68.2813,585.625 67.7031,586.5156 Q67.125,587.3906 67.125,588.5938 L67.125,589.8906 Q67.125,591.3438 68.1719,592.3125 Q69.2344,593.2813 71.0938,593.2813 Q72.2031,593.2813 72.9844,592.9688 Q73.4219,592.7969 73.9375,592.2813 Q74.25,591.9688 74.4219,591.875 Q74.5938,591.7813 74.8281,591.7813 Q75.2188,591.7813 75.5156,592.0938 Q75.8281,592.3906 75.8281,592.7969 Q75.8281,593.2031 75.4219,593.6719 Q74.8281,594.3594 73.8906,594.75 Q72.625,595.2813 71.1094,595.2813 Q69.3281,595.2813 67.9063,594.5469 Q66.75,593.9531 65.9375,592.6875 Q65.125,591.4219 65.125,589.9375 L65.125,588.5781 Q65.125,587.0156 65.8438,585.6719 Q66.5781,584.3125 67.8594,583.5781 Q69.1563,582.8438 70.6094,582.8438 Q71.4688,582.8438 72.2188,583.0469 Q72.9844,583.25 73.6406,583.6563 Z " fill="#000000"/><text fill="#000000" font-family="sans-serif" font-size="20" font-style="italic" lengthAdjust="spacing" textLength="71" x="84.5" y="571.7617">«Entity»</text><text fill="#000000" font-family="sans-serif" font-size="20" font-style="italic" lengthAdjust="spacing" textLength="56" x="92" y="596.918">«root»</text><text fill="#000000" font-family="sans-serif" font-size="20" lengthAdjust="spacing" textLength="54" x="93" y="622.0742">Model</text><line style="stroke:#181818;stroke-width:0.5;" x1="56.5" x2="155.5" y1="631.4688" y2="631.4688"/><line style="stroke:#181818;stroke-width:0.5;" x1="56.5" x2="155.5" y1="639.4688" y2="639.4688"/></g><!--link ShowProposal to ShowConfiguration--><g id="link_ShowProposal_ShowConfiguration"><path codeLine="18" d="M106,108.22 C106,134.02 106,165.2 106,189.81 " fill="none" id="ShowProposal-to-ShowConfiguration" style="stroke:#181818;stroke-width:1.0;"/><polygon fill="#181818" points="106,194.96,110,185.96,106,189.96,102,185.96,106,194.96" style="stroke:#181818;stroke-width:1.0;"/><text fill="#000000" font-family="sans-serif" font-size="20" lengthAdjust="spacing" textLength="161" x="107" y="159.7617">showConfiguration</text><text fill="#000000" font-family="sans-serif" font-size="20" lengthAdjust="spacing" textLength="11" x="94.1234" y="182.6545">1</text></g><!--link Drone to Model--><g id="link_Drone_Model"><path codeLine="19" d="M106,459.34 C106,484.46 106,514.98 106,540.75 " fill="none" id="Drone-to-Model" style="stroke:#181818;stroke-width:1.0;"/><polygon fill="#181818" points="106,545.84,110,536.84,106,540.84,102,536.84,106,545.84" style="stroke:#181818;stroke-width:1.0;"/><text fill="#000000" font-family="sans-serif" font-size="20" lengthAdjust="spacing" textLength="53" x="107" y="510.7617">model</text><text fill="#000000" font-family="sans-serif" font-size="20" lengthAdjust="spacing" textLength="11" x="94.2953" y="533.4893">1</text></g><!--link ShowConfiguration to Drone--><g id="link_ShowConfiguration_Drone"><path codeLine="20" d="M106,271.22 C106,294.93 106,326.06 106,352.59 " fill="none" id="ShowConfiguration-to-Drone" style="stroke:#181818;stroke-width:1.0;"/><polygon fill="#181818" points="106,357.83,110,348.83,106,352.83,102,348.83,106,357.83" style="stroke:#181818;stroke-width:1.0;"/><text fill="#000000" font-family="sans-serif" font-size="20" lengthAdjust="spacing" textLength="50" x="107" y="322.7617">drone</text><text fill="#000000" font-family="sans-serif" font-size="20" lengthAdjust="spacing" textLength="31" x="73.0141" y="345.478">1..*</text></g><!--SRC=[ZO_D2i8m383lUugmoq3OfXw7zEBFJH1yWh9MBNRDR3FymtUtimusHJ2NXERxqiGTbQcvvPN6yYW52BdZZQOL6jggcuJfE4eEHBKhyhpMt51JwQp4AdVor4XJobGellT-v0EWrDmvs1xmlB5Oe-CQPhEb8KLNndnf4OcnkoS17gtGC-PeTchVM4uAJKyBz91VM3Joz-WExl0r2gd_m9C0fWmkxyRWbDGtuadylMq1xlFfxOT5E_4rle2gJRqFXfS7ECj6SR0B46sAeYS0]--></g></svg>