<?xml version="1.0" encoding="us-ascii" standalone="no"?><svg xmlns="http://www.w3.org/2000/svg" xmlns:xlink="http://www.w3.org/1999/xlink" contentStyleType="text/css" height="589px" preserveAspectRatio="none" style="width:2657px;height:589px;background:#FFFFFF;" version="1.1" viewBox="0 0 2657 589" width="2657px" zoomAndPan="magnify"><defs/><g><!--cluster ShowProposal --><g id="cluster_ShowProposal "><path d="M8.5,6.0137 L113.5,6.0137 A3.75,3.75 0 0 1 116,8.5137 L123,30.6348 L2105.5,30.6348 A2.5,2.5 0 0 1 2108,33.1348 L2108,432.5137 A2.5,2.5 0 0 1 2105.5,435.0137 L8.5,435.0137 A2.5,2.5 0 0 1 6,432.5137 L6,8.5137 A2.5,2.5 0 0 1 8.5,6.0137 " fill="none" style="stroke:#000000;stroke-width:1.5;"/><line style="stroke:#000000;stroke-width:1.5;" x1="6" x2="123" y1="30.6348" y2="30.6348"/><text fill="#000000" font-family="sans-serif" font-size="14" font-weight="bold" lengthAdjust="spacing" textLength="100" x="10" y="23.1211">ShowProposal</text><text fill="#000000" font-family="sans-serif" font-size="14" font-style="italic" lengthAdjust="spacing" textLength="81" x="1020.5" y="47.7422">&#171;aggregate&#187;</text></g><!--cluster Shared--><g id="cluster_Shared"><path d="M2029.5,468.0137 L2080.5,468.0137 A3.75,3.75 0 0 1 2083,470.5137 L2090,492.6348 L2647.5,492.6348 A2.5,2.5 0 0 1 2650,495.1348 L2650,579.5137 A2.5,2.5 0 0 1 2647.5,582.0137 L2029.5,582.0137 A2.5,2.5 0 0 1 2027,579.5137 L2027,470.5137 A2.5,2.5 0 0 1 2029.5,468.0137 " fill="none" style="stroke:#000000;stroke-width:1.5;"/><line style="stroke:#000000;stroke-width:1.5;" x1="2027" x2="2090" y1="492.6348" y2="492.6348"/><text fill="#000000" font-family="sans-serif" font-size="14" font-weight="bold" lengthAdjust="spacing" textLength="50" x="2031" y="485.1211">Shared</text></g><!--class ShowProposalStatus--><g id="elem_ShowProposalStatus"><rect codeLine="3" fill="#F1F1F1" height="60.582" id="ShowProposalStatus" rx="2.5" ry="2.5" style="stroke:#181818;stroke-width:0.5;" width="162" x="1059" y="218.0137"/><ellipse cx="1074" cy="240.3047" fill="#EB937F" rx="11" ry="11" style="stroke:#181818;stroke-width:1.0;"/><path d="M1072.8594,241.1016 L1072.8594,243.6016 L1077.1875,243.6016 L1077.1875,242.6797 Q1077.1875,242.0703 1077.4219,241.8047 Q1077.6719,241.5391 1078.0469,241.5391 Q1078.4219,241.5391 1078.6563,241.8047 Q1078.8906,242.0703 1078.8906,242.6797 L1078.8906,245.3047 L1070.8906,245.3047 Q1070.2656,245.3047 1070,245.0703 Q1069.75,244.8359 1069.75,244.4453 Q1069.75,244.0703 1070.0156,243.8359 Q1070.2813,243.6016 1070.8906,243.6016 L1071.1563,243.6016 L1071.1563,236.9453 L1070.8906,236.9453 Q1070.2656,236.9453 1070,236.7109 Q1069.75,236.4766 1069.75,236.0859 Q1069.75,235.7109 1070,235.4766 Q1070.2656,235.2422 1070.8906,235.2422 L1078.5156,235.2422 L1078.5156,237.8359 Q1078.5156,238.4453 1078.2813,238.7109 Q1078.0625,238.9609 1077.6719,238.9609 Q1077.2969,238.9609 1077.0625,238.7109 Q1076.8281,238.4453 1076.8281,237.8359 L1076.8281,236.9453 L1072.8594,236.9453 L1072.8594,239.3984 L1074.3438,239.3984 Q1074.3438,238.7422 1074.4688,238.5547 Q1074.7344,238.1484 1075.2031,238.1484 Q1075.5781,238.1484 1075.8125,238.4141 Q1076.0469,238.6641 1076.0469,239.2734 L1076.0469,241.2422 Q1076.0469,241.7891 1075.9219,241.9766 Q1075.6563,242.3672 1075.2031,242.3672 Q1074.7344,242.3672 1074.4688,241.9609 Q1074.3438,241.7734 1074.3438,241.1016 L1072.8594,241.1016 Z " fill="#000000"/><text fill="#000000" font-family="sans-serif" font-size="12" font-style="italic" lengthAdjust="spacing" textLength="85" x="1110.5" y="235.9629">&#171;Value Object&#187;</text><text fill="#000000" font-family="sans-serif" font-size="14" lengthAdjust="spacing" textLength="130" x="1088" y="254.082">ShowProposalStatus</text><line style="stroke:#181818;stroke-width:0.5;" x1="1060" x2="1220" y1="262.5957" y2="262.5957"/><line style="stroke:#181818;stroke-width:0.5;" x1="1060" x2="1220" y1="270.5957" y2="270.5957"/></g><!--class ShowProposal--><g id="elem_ShowProposal"><rect codeLine="6" fill="#F1F1F1" height="76.543" id="ShowProposal" rx="2.5" ry="2.5" style="stroke:#181818;stroke-width:0.5;" width="122" x="1567" y="62.0137"/><ellipse cx="1582" cy="92.2852" fill="#ADD1B2" rx="11" ry="11" style="stroke:#181818;stroke-width:1.0;"/><path d="M1584.7656,88.1602 Q1584.9219,87.9414 1585.1094,87.832 Q1585.2969,87.7227 1585.5156,87.7227 Q1585.8906,87.7227 1586.125,87.9883 Q1586.3594,88.2383 1586.3594,88.8477 L1586.3594,90.3008 Q1586.3594,90.9102 1586.125,91.1758 Q1585.8906,91.4414 1585.5156,91.4414 Q1585.1719,91.4414 1584.9688,91.2383 Q1584.7656,91.0508 1584.6563,90.5352 Q1584.6094,90.1758 1584.4219,89.9883 Q1584.0938,89.6133 1583.4844,89.3945 Q1582.875,89.1758 1582.25,89.1758 Q1581.4844,89.1758 1580.8438,89.5039 Q1580.2188,89.832 1579.7188,90.582 Q1579.2344,91.332 1579.2344,92.3633 L1579.2344,93.457 Q1579.2344,94.6914 1580.125,95.5195 Q1581.0156,96.332 1582.6094,96.332 Q1583.5469,96.332 1584.2031,96.082 Q1584.5938,95.9258 1585.0156,95.4883 Q1585.2813,95.2227 1585.4219,95.1445 Q1585.5781,95.0664 1585.7813,95.0664 Q1586.1094,95.0664 1586.3594,95.332 Q1586.625,95.582 1586.625,95.9258 Q1586.625,96.2695 1586.2813,96.6758 Q1585.7813,97.2539 1584.9844,97.582 Q1583.9063,98.0352 1582.6094,98.0352 Q1581.0938,98.0352 1579.8906,97.4102 Q1578.9063,96.9102 1578.2188,95.8477 Q1577.5313,94.7695 1577.5313,93.4883 L1577.5313,92.332 Q1577.5313,91.0039 1578.1406,89.8633 Q1578.7656,88.707 1579.8594,88.0977 Q1580.9531,87.4727 1582.1875,87.4727 Q1582.9219,87.4727 1583.5625,87.6445 Q1584.2188,87.8008 1584.7656,88.1602 Z " fill="#000000"/><text fill="#000000" font-family="sans-serif" font-size="12" font-style="italic" lengthAdjust="spacing" textLength="44" x="1619" y="79.9629">&#171;Entity&#187;</text><text fill="#000000" font-family="sans-serif" font-size="12" font-style="italic" lengthAdjust="spacing" textLength="35" x="1623.5" y="95.9238">&#171;root&#187;</text><text fill="#000000" font-family="sans-serif" font-size="14" lengthAdjust="spacing" textLength="90" x="1596" y="114.043">ShowProposal</text><line style="stroke:#181818;stroke-width:0.5;" x1="1568" x2="1688" y1="122.5566" y2="122.5566"/><line style="stroke:#181818;stroke-width:0.5;" x1="1568" x2="1688" y1="130.5566" y2="130.5566"/></g><!--class ShowProposalDocument--><g id="elem_ShowProposalDocument"><rect codeLine="9" fill="#F1F1F1" height="60.582" id="ShowProposalDocument" rx="2.5" ry="2.5" style="stroke:#181818;stroke-width:0.5;" width="186" x="529" y="218.0137"/><ellipse cx="544" cy="240.3047" fill="#ADD1B2" rx="11" ry="11" style="stroke:#181818;stroke-width:1.0;"/><path d="M546.7656,236.1797 Q546.9219,235.9609 547.1094,235.8516 Q547.2969,235.7422 547.5156,235.7422 Q547.8906,235.7422 548.125,236.0078 Q548.3594,236.2578 548.3594,236.8672 L548.3594,238.3203 Q548.3594,238.9297 548.125,239.1953 Q547.8906,239.4609 547.5156,239.4609 Q547.1719,239.4609 546.9688,239.2578 Q546.7656,239.0703 546.6563,238.5547 Q546.6094,238.1953 546.4219,238.0078 Q546.0938,237.6328 545.4844,237.4141 Q544.875,237.1953 544.25,237.1953 Q543.4844,237.1953 542.8438,237.5234 Q542.2188,237.8516 541.7188,238.6016 Q541.2344,239.3516 541.2344,240.3828 L541.2344,241.4766 Q541.2344,242.7109 542.125,243.5391 Q543.0156,244.3516 544.6094,244.3516 Q545.5469,244.3516 546.2031,244.1016 Q546.5938,243.9453 547.0156,243.5078 Q547.2813,243.2422 547.4219,243.1641 Q547.5781,243.0859 547.7813,243.0859 Q548.1094,243.0859 548.3594,243.3516 Q548.625,243.6016 548.625,243.9453 Q548.625,244.2891 548.2813,244.6953 Q547.7813,245.2734 546.9844,245.6016 Q545.9063,246.0547 544.6094,246.0547 Q543.0938,246.0547 541.8906,245.4297 Q540.9063,244.9297 540.2188,243.8672 Q539.5313,242.7891 539.5313,241.5078 L539.5313,240.3516 Q539.5313,239.0234 540.1406,237.8828 Q540.7656,236.7266 541.8594,236.1172 Q542.9531,235.4922 544.1875,235.4922 Q544.9219,235.4922 545.5625,235.6641 Q546.2188,235.8203 546.7656,236.1797 Z " fill="#000000"/><text fill="#000000" font-family="sans-serif" font-size="12" font-style="italic" lengthAdjust="spacing" textLength="85" x="592.5" y="235.9629">&#171;Value Object&#187;</text><text fill="#000000" font-family="sans-serif" font-size="14" lengthAdjust="spacing" textLength="154" x="558" y="254.082">ShowProposalDocument</text><line style="stroke:#181818;stroke-width:0.5;" x1="530" x2="714" y1="262.5957" y2="262.5957"/><line style="stroke:#181818;stroke-width:0.5;" x1="530" x2="714" y1="270.5957" y2="270.5957"/></g><!--class ShowProposalNumber--><g id="elem_ShowProposalNumber"><rect codeLine="12" fill="#F1F1F1" height="60.582" id="ShowProposalNumber" rx="2.5" ry="2.5" style="stroke:#181818;stroke-width:0.5;" width="171" x="1256.5" y="218.0137"/><ellipse cx="1271.5" cy="240.3047" fill="#ADD1B2" rx="11" ry="11" style="stroke:#181818;stroke-width:1.0;"/><path d="M1274.2656,236.1797 Q1274.4219,235.9609 1274.6094,235.8516 Q1274.7969,235.7422 1275.0156,235.7422 Q1275.3906,235.7422 1275.625,236.0078 Q1275.8594,236.2578 1275.8594,236.8672 L1275.8594,238.3203 Q1275.8594,238.9297 1275.625,239.1953 Q1275.3906,239.4609 1275.0156,239.4609 Q1274.6719,239.4609 1274.4688,239.2578 Q1274.2656,239.0703 1274.1563,238.5547 Q1274.1094,238.1953 1273.9219,238.0078 Q1273.5938,237.6328 1272.9844,237.4141 Q1272.375,237.1953 1271.75,237.1953 Q1270.9844,237.1953 1270.3438,237.5234 Q1269.7188,237.8516 1269.2188,238.6016 Q1268.7344,239.3516 1268.7344,240.3828 L1268.7344,241.4766 Q1268.7344,242.7109 1269.625,243.5391 Q1270.5156,244.3516 1272.1094,244.3516 Q1273.0469,244.3516 1273.7031,244.1016 Q1274.0938,243.9453 1274.5156,243.5078 Q1274.7813,243.2422 1274.9219,243.1641 Q1275.0781,243.0859 1275.2813,243.0859 Q1275.6094,243.0859 1275.8594,243.3516 Q1276.125,243.6016 1276.125,243.9453 Q1276.125,244.2891 1275.7813,244.6953 Q1275.2813,245.2734 1274.4844,245.6016 Q1273.4063,246.0547 1272.1094,246.0547 Q1270.5938,246.0547 1269.3906,245.4297 Q1268.4063,244.9297 1267.7188,243.8672 Q1267.0313,242.7891 1267.0313,241.5078 L1267.0313,240.3516 Q1267.0313,239.0234 1267.6406,237.8828 Q1268.2656,236.7266 1269.3594,236.1172 Q1270.4531,235.4922 1271.6875,235.4922 Q1272.4219,235.4922 1273.0625,235.6641 Q1273.7188,235.8203 1274.2656,236.1797 Z " fill="#000000"/><text fill="#000000" font-family="sans-serif" font-size="12" font-style="italic" lengthAdjust="spacing" textLength="85" x="1312.5" y="235.9629">&#171;Value Object&#187;</text><text fill="#000000" font-family="sans-serif" font-size="14" lengthAdjust="spacing" textLength="139" x="1285.5" y="254.082">ShowProposalNumber</text><line style="stroke:#181818;stroke-width:0.5;" x1="1257.5" x2="1426.5" y1="262.5957" y2="262.5957"/><line style="stroke:#181818;stroke-width:0.5;" x1="1257.5" x2="1426.5" y1="270.5957" y2="270.5957"/></g><!--class Insurance--><g id="elem_Insurance"><rect codeLine="15" fill="#F1F1F1" height="60.582" id="Insurance" rx="2.5" ry="2.5" style="stroke:#181818;stroke-width:0.5;" width="113" x="1462.5" y="218.0137"/><ellipse cx="1477.5" cy="240.3047" fill="#ADD1B2" rx="11" ry="11" style="stroke:#181818;stroke-width:1.0;"/><path d="M1480.2656,236.1797 Q1480.4219,235.9609 1480.6094,235.8516 Q1480.7969,235.7422 1481.0156,235.7422 Q1481.3906,235.7422 1481.625,236.0078 Q1481.8594,236.2578 1481.8594,236.8672 L1481.8594,238.3203 Q1481.8594,238.9297 1481.625,239.1953 Q1481.3906,239.4609 1481.0156,239.4609 Q1480.6719,239.4609 1480.4688,239.2578 Q1480.2656,239.0703 1480.1563,238.5547 Q1480.1094,238.1953 1479.9219,238.0078 Q1479.5938,237.6328 1478.9844,237.4141 Q1478.375,237.1953 1477.75,237.1953 Q1476.9844,237.1953 1476.3438,237.5234 Q1475.7188,237.8516 1475.2188,238.6016 Q1474.7344,239.3516 1474.7344,240.3828 L1474.7344,241.4766 Q1474.7344,242.7109 1475.625,243.5391 Q1476.5156,244.3516 1478.1094,244.3516 Q1479.0469,244.3516 1479.7031,244.1016 Q1480.0938,243.9453 1480.5156,243.5078 Q1480.7813,243.2422 1480.9219,243.1641 Q1481.0781,243.0859 1481.2813,243.0859 Q1481.6094,243.0859 1481.8594,243.3516 Q1482.125,243.6016 1482.125,243.9453 Q1482.125,244.2891 1481.7813,244.6953 Q1481.2813,245.2734 1480.4844,245.6016 Q1479.4063,246.0547 1478.1094,246.0547 Q1476.5938,246.0547 1475.3906,245.4297 Q1474.4063,244.9297 1473.7188,243.8672 Q1473.0313,242.7891 1473.0313,241.5078 L1473.0313,240.3516 Q1473.0313,239.0234 1473.6406,237.8828 Q1474.2656,236.7266 1475.3594,236.1172 Q1476.4531,235.4922 1477.6875,235.4922 Q1478.4219,235.4922 1479.0625,235.6641 Q1479.7188,235.8203 1480.2656,236.1797 Z " fill="#000000"/><text fill="#000000" font-family="sans-serif" font-size="12" font-style="italic" lengthAdjust="spacing" textLength="85" x="1489.5" y="235.9629">&#171;Value Object&#187;</text><text fill="#000000" font-family="sans-serif" font-size="14" lengthAdjust="spacing" textLength="62" x="1501" y="254.082">Insurance</text><line style="stroke:#181818;stroke-width:0.5;" x1="1463.5" x2="1574.5" y1="262.5957" y2="262.5957"/><line style="stroke:#181818;stroke-width:0.5;" x1="1463.5" x2="1574.5" y1="270.5957" y2="270.5957"/></g><!--class CustomerFeedback--><g id="elem_CustomerFeedback"><rect codeLine="18" fill="#F1F1F1" height="60.582" id="CustomerFeedback" rx="2.5" ry="2.5" style="stroke:#181818;stroke-width:0.5;" width="156" x="1611" y="218.0137"/><ellipse cx="1626" cy="240.3047" fill="#ADD1B2" rx="11" ry="11" style="stroke:#181818;stroke-width:1.0;"/><path d="M1628.7656,236.1797 Q1628.9219,235.9609 1629.1094,235.8516 Q1629.2969,235.7422 1629.5156,235.7422 Q1629.8906,235.7422 1630.125,236.0078 Q1630.3594,236.2578 1630.3594,236.8672 L1630.3594,238.3203 Q1630.3594,238.9297 1630.125,239.1953 Q1629.8906,239.4609 1629.5156,239.4609 Q1629.1719,239.4609 1628.9688,239.2578 Q1628.7656,239.0703 1628.6563,238.5547 Q1628.6094,238.1953 1628.4219,238.0078 Q1628.0938,237.6328 1627.4844,237.4141 Q1626.875,237.1953 1626.25,237.1953 Q1625.4844,237.1953 1624.8438,237.5234 Q1624.2188,237.8516 1623.7188,238.6016 Q1623.2344,239.3516 1623.2344,240.3828 L1623.2344,241.4766 Q1623.2344,242.7109 1624.125,243.5391 Q1625.0156,244.3516 1626.6094,244.3516 Q1627.5469,244.3516 1628.2031,244.1016 Q1628.5938,243.9453 1629.0156,243.5078 Q1629.2813,243.2422 1629.4219,243.1641 Q1629.5781,243.0859 1629.7813,243.0859 Q1630.1094,243.0859 1630.3594,243.3516 Q1630.625,243.6016 1630.625,243.9453 Q1630.625,244.2891 1630.2813,244.6953 Q1629.7813,245.2734 1628.9844,245.6016 Q1627.9063,246.0547 1626.6094,246.0547 Q1625.0938,246.0547 1623.8906,245.4297 Q1622.9063,244.9297 1622.2188,243.8672 Q1621.5313,242.7891 1621.5313,241.5078 L1621.5313,240.3516 Q1621.5313,239.0234 1622.1406,237.8828 Q1622.7656,236.7266 1623.8594,236.1172 Q1624.9531,235.4922 1626.1875,235.4922 Q1626.9219,235.4922 1627.5625,235.6641 Q1628.2188,235.8203 1628.7656,236.1797 Z " fill="#000000"/><text fill="#000000" font-family="sans-serif" font-size="12" font-style="italic" lengthAdjust="spacing" textLength="85" x="1659.5" y="235.9629">&#171;Value Object&#187;</text><text fill="#000000" font-family="sans-serif" font-size="14" lengthAdjust="spacing" textLength="124" x="1640" y="254.082">CustomerFeedback</text><line style="stroke:#181818;stroke-width:0.5;" x1="1612" x2="1766" y1="262.5957" y2="262.5957"/><line style="stroke:#181818;stroke-width:0.5;" x1="1612" x2="1766" y1="270.5957" y2="270.5957"/></g><!--class ShowConfiguration--><g id="elem_ShowConfiguration"><rect codeLine="21" fill="#F1F1F1" height="60.582" id="ShowConfiguration" rx="2.5" ry="2.5" style="stroke:#181818;stroke-width:0.5;" width="151" x="22.5" y="218.0137"/><ellipse cx="37.5" cy="240.3047" fill="#ADD1B2" rx="11" ry="11" style="stroke:#181818;stroke-width:1.0;"/><path d="M40.2656,236.1797 Q40.4219,235.9609 40.6094,235.8516 Q40.7969,235.7422 41.0156,235.7422 Q41.3906,235.7422 41.625,236.0078 Q41.8594,236.2578 41.8594,236.8672 L41.8594,238.3203 Q41.8594,238.9297 41.625,239.1953 Q41.3906,239.4609 41.0156,239.4609 Q40.6719,239.4609 40.4688,239.2578 Q40.2656,239.0703 40.1563,238.5547 Q40.1094,238.1953 39.9219,238.0078 Q39.5938,237.6328 38.9844,237.4141 Q38.375,237.1953 37.75,237.1953 Q36.9844,237.1953 36.3438,237.5234 Q35.7188,237.8516 35.2188,238.6016 Q34.7344,239.3516 34.7344,240.3828 L34.7344,241.4766 Q34.7344,242.7109 35.625,243.5391 Q36.5156,244.3516 38.1094,244.3516 Q39.0469,244.3516 39.7031,244.1016 Q40.0938,243.9453 40.5156,243.5078 Q40.7813,243.2422 40.9219,243.1641 Q41.0781,243.0859 41.2813,243.0859 Q41.6094,243.0859 41.8594,243.3516 Q42.125,243.6016 42.125,243.9453 Q42.125,244.2891 41.7813,244.6953 Q41.2813,245.2734 40.4844,245.6016 Q39.4063,246.0547 38.1094,246.0547 Q36.5938,246.0547 35.3906,245.4297 Q34.4063,244.9297 33.7188,243.8672 Q33.0313,242.7891 33.0313,241.5078 L33.0313,240.3516 Q33.0313,239.0234 33.6406,237.8828 Q34.2656,236.7266 35.3594,236.1172 Q36.4531,235.4922 37.6875,235.4922 Q38.4219,235.4922 39.0625,235.6641 Q39.7188,235.8203 40.2656,236.1797 Z " fill="#000000"/><text fill="#000000" font-family="sans-serif" font-size="12" font-style="italic" lengthAdjust="spacing" textLength="44" x="89" y="235.9629">&#171;Entity&#187;</text><text fill="#000000" font-family="sans-serif" font-size="14" lengthAdjust="spacing" textLength="119" x="51.5" y="254.082">ShowConfiguration</text><line style="stroke:#181818;stroke-width:0.5;" x1="23.5" x2="172.5" y1="262.5957" y2="262.5957"/><line style="stroke:#181818;stroke-width:0.5;" x1="23.5" x2="172.5" y1="270.5957" y2="270.5957"/></g><!--class ShowConfigurationFigure--><g id="elem_ShowConfigurationFigure"><rect codeLine="24" fill="#F1F1F1" height="60.582" id="ShowConfigurationFigure" rx="2.5" ry="2.5" style="stroke:#181818;stroke-width:0.5;" width="192" x="22" y="358.0137"/><ellipse cx="37" cy="380.3047" fill="#ADD1B2" rx="11" ry="11" style="stroke:#181818;stroke-width:1.0;"/><path d="M39.7656,376.1797 Q39.9219,375.9609 40.1094,375.8516 Q40.2969,375.7422 40.5156,375.7422 Q40.8906,375.7422 41.125,376.0078 Q41.3594,376.2578 41.3594,376.8672 L41.3594,378.3203 Q41.3594,378.9297 41.125,379.1953 Q40.8906,379.4609 40.5156,379.4609 Q40.1719,379.4609 39.9688,379.2578 Q39.7656,379.0703 39.6563,378.5547 Q39.6094,378.1953 39.4219,378.0078 Q39.0938,377.6328 38.4844,377.4141 Q37.875,377.1953 37.25,377.1953 Q36.4844,377.1953 35.8438,377.5234 Q35.2188,377.8516 34.7188,378.6016 Q34.2344,379.3516 34.2344,380.3828 L34.2344,381.4766 Q34.2344,382.7109 35.125,383.5391 Q36.0156,384.3516 37.6094,384.3516 Q38.5469,384.3516 39.2031,384.1016 Q39.5938,383.9453 40.0156,383.5078 Q40.2813,383.2422 40.4219,383.1641 Q40.5781,383.0859 40.7813,383.0859 Q41.1094,383.0859 41.3594,383.3516 Q41.625,383.6016 41.625,383.9453 Q41.625,384.2891 41.2813,384.6953 Q40.7813,385.2734 39.9844,385.6016 Q38.9063,386.0547 37.6094,386.0547 Q36.0938,386.0547 34.8906,385.4297 Q33.9063,384.9297 33.2188,383.8672 Q32.5313,382.7891 32.5313,381.5078 L32.5313,380.3516 Q32.5313,379.0234 33.1406,377.8828 Q33.7656,376.7266 34.8594,376.1172 Q35.9531,375.4922 37.1875,375.4922 Q37.9219,375.4922 38.5625,375.6641 Q39.2188,375.8203 39.7656,376.1797 Z " fill="#000000"/><text fill="#000000" font-family="sans-serif" font-size="12" font-style="italic" lengthAdjust="spacing" textLength="85" x="88.5" y="375.9629">&#171;Value Object&#187;</text><text fill="#000000" font-family="sans-serif" font-size="14" lengthAdjust="spacing" textLength="160" x="51" y="394.082">ShowConfigurationFigure</text><line style="stroke:#181818;stroke-width:0.5;" x1="23" x2="213" y1="402.5957" y2="402.5957"/><line style="stroke:#181818;stroke-width:0.5;" x1="23" x2="213" y1="410.5957" y2="410.5957"/></g><!--class Video--><g id="elem_Video"><rect codeLine="27" fill="#F1F1F1" height="60.582" id="Video" rx="2.5" ry="2.5" style="stroke:#181818;stroke-width:0.5;" width="113" x="1802.5" y="218.0137"/><ellipse cx="1817.5" cy="240.3047" fill="#ADD1B2" rx="11" ry="11" style="stroke:#181818;stroke-width:1.0;"/><path d="M1820.2656,236.1797 Q1820.4219,235.9609 1820.6094,235.8516 Q1820.7969,235.7422 1821.0156,235.7422 Q1821.3906,235.7422 1821.625,236.0078 Q1821.8594,236.2578 1821.8594,236.8672 L1821.8594,238.3203 Q1821.8594,238.9297 1821.625,239.1953 Q1821.3906,239.4609 1821.0156,239.4609 Q1820.6719,239.4609 1820.4688,239.2578 Q1820.2656,239.0703 1820.1563,238.5547 Q1820.1094,238.1953 1819.9219,238.0078 Q1819.5938,237.6328 1818.9844,237.4141 Q1818.375,237.1953 1817.75,237.1953 Q1816.9844,237.1953 1816.3438,237.5234 Q1815.7188,237.8516 1815.2188,238.6016 Q1814.7344,239.3516 1814.7344,240.3828 L1814.7344,241.4766 Q1814.7344,242.7109 1815.625,243.5391 Q1816.5156,244.3516 1818.1094,244.3516 Q1819.0469,244.3516 1819.7031,244.1016 Q1820.0938,243.9453 1820.5156,243.5078 Q1820.7813,243.2422 1820.9219,243.1641 Q1821.0781,243.0859 1821.2813,243.0859 Q1821.6094,243.0859 1821.8594,243.3516 Q1822.125,243.6016 1822.125,243.9453 Q1822.125,244.2891 1821.7813,244.6953 Q1821.2813,245.2734 1820.4844,245.6016 Q1819.4063,246.0547 1818.1094,246.0547 Q1816.5938,246.0547 1815.3906,245.4297 Q1814.4063,244.9297 1813.7188,243.8672 Q1813.0313,242.7891 1813.0313,241.5078 L1813.0313,240.3516 Q1813.0313,239.0234 1813.6406,237.8828 Q1814.2656,236.7266 1815.3594,236.1172 Q1816.4531,235.4922 1817.6875,235.4922 Q1818.4219,235.4922 1819.0625,235.6641 Q1819.7188,235.8203 1820.2656,236.1797 Z " fill="#000000"/><text fill="#000000" font-family="sans-serif" font-size="12" font-style="italic" lengthAdjust="spacing" textLength="85" x="1829.5" y="235.9629">&#171;Value Object&#187;</text><text fill="#000000" font-family="sans-serif" font-size="14" lengthAdjust="spacing" textLength="36" x="1854" y="254.082">Video</text><line style="stroke:#181818;stroke-width:0.5;" x1="1803.5" x2="1914.5" y1="262.5957" y2="262.5957"/><line style="stroke:#181818;stroke-width:0.5;" x1="1803.5" x2="1914.5" y1="270.5957" y2="270.5957"/></g><!--class ProposalDocumentGenerator--><g id="elem_ProposalDocumentGenerator"><rect codeLine="30" fill="#F1F1F1" height="60.582" id="ProposalDocumentGenerator" rx="2.5" ry="2.5" style="stroke:#181818;stroke-width:0.5;" width="217" x="513.5" y="70.0137"/><ellipse cx="528.5" cy="92.3047" fill="#ADD1B2" rx="11" ry="11" style="stroke:#181818;stroke-width:1.0;"/><path d="M531.2656,88.1797 Q531.4219,87.9609 531.6094,87.8516 Q531.7969,87.7422 532.0156,87.7422 Q532.3906,87.7422 532.625,88.0078 Q532.8594,88.2578 532.8594,88.8672 L532.8594,90.3203 Q532.8594,90.9297 532.625,91.1953 Q532.3906,91.4609 532.0156,91.4609 Q531.6719,91.4609 531.4688,91.2578 Q531.2656,91.0703 531.1563,90.5547 Q531.1094,90.1953 530.9219,90.0078 Q530.5938,89.6328 529.9844,89.4141 Q529.375,89.1953 528.75,89.1953 Q527.9844,89.1953 527.3438,89.5234 Q526.7188,89.8516 526.2188,90.6016 Q525.7344,91.3516 525.7344,92.3828 L525.7344,93.4766 Q525.7344,94.7109 526.625,95.5391 Q527.5156,96.3516 529.1094,96.3516 Q530.0469,96.3516 530.7031,96.1016 Q531.0938,95.9453 531.5156,95.5078 Q531.7813,95.2422 531.9219,95.1641 Q532.0781,95.0859 532.2813,95.0859 Q532.6094,95.0859 532.8594,95.3516 Q533.125,95.6016 533.125,95.9453 Q533.125,96.2891 532.7813,96.6953 Q532.2813,97.2734 531.4844,97.6016 Q530.4063,98.0547 529.1094,98.0547 Q527.5938,98.0547 526.3906,97.4297 Q525.4063,96.9297 524.7188,95.8672 Q524.0313,94.7891 524.0313,93.5078 L524.0313,92.3516 Q524.0313,91.0234 524.6406,89.8828 Q525.2656,88.7266 526.3594,88.1172 Q527.4531,87.4922 528.6875,87.4922 Q529.4219,87.4922 530.0625,87.6641 Q530.7188,87.8203 531.2656,88.1797 Z " fill="#000000"/><text fill="#000000" font-family="sans-serif" font-size="12" font-style="italic" lengthAdjust="spacing" textLength="55" x="607.5" y="87.9629">&#171;Service&#187;</text><text fill="#000000" font-family="sans-serif" font-size="14" lengthAdjust="spacing" textLength="185" x="542.5" y="106.082">ProposalDocumentGenerator</text><line style="stroke:#181818;stroke-width:0.5;" x1="514.5" x2="729.5" y1="114.5957" y2="114.5957"/><line style="stroke:#181818;stroke-width:0.5;" x1="514.5" x2="729.5" y1="122.5957" y2="122.5957"/></g><!--class ShowDSLDescription--><g id="elem_ShowDSLDescription"><rect codeLine="33" fill="#F1F1F1" height="60.582" id="ShowDSLDescription" rx="2.5" ry="2.5" style="stroke:#181818;stroke-width:0.5;" width="164" x="330" y="218.0137"/><ellipse cx="345" cy="240.3047" fill="#ADD1B2" rx="11" ry="11" style="stroke:#181818;stroke-width:1.0;"/><path d="M347.7656,236.1797 Q347.9219,235.9609 348.1094,235.8516 Q348.2969,235.7422 348.5156,235.7422 Q348.8906,235.7422 349.125,236.0078 Q349.3594,236.2578 349.3594,236.8672 L349.3594,238.3203 Q349.3594,238.9297 349.125,239.1953 Q348.8906,239.4609 348.5156,239.4609 Q348.1719,239.4609 347.9688,239.2578 Q347.7656,239.0703 347.6563,238.5547 Q347.6094,238.1953 347.4219,238.0078 Q347.0938,237.6328 346.4844,237.4141 Q345.875,237.1953 345.25,237.1953 Q344.4844,237.1953 343.8438,237.5234 Q343.2188,237.8516 342.7188,238.6016 Q342.2344,239.3516 342.2344,240.3828 L342.2344,241.4766 Q342.2344,242.7109 343.125,243.5391 Q344.0156,244.3516 345.6094,244.3516 Q346.5469,244.3516 347.2031,244.1016 Q347.5938,243.9453 348.0156,243.5078 Q348.2813,243.2422 348.4219,243.1641 Q348.5781,243.0859 348.7813,243.0859 Q349.1094,243.0859 349.3594,243.3516 Q349.625,243.6016 349.625,243.9453 Q349.625,244.2891 349.2813,244.6953 Q348.7813,245.2734 347.9844,245.6016 Q346.9063,246.0547 345.6094,246.0547 Q344.0938,246.0547 342.8906,245.4297 Q341.9063,244.9297 341.2188,243.8672 Q340.5313,242.7891 340.5313,241.5078 L340.5313,240.3516 Q340.5313,239.0234 341.1406,237.8828 Q341.7656,236.7266 342.8594,236.1172 Q343.9531,235.4922 345.1875,235.4922 Q345.9219,235.4922 346.5625,235.6641 Q347.2188,235.8203 347.7656,236.1797 Z " fill="#000000"/><text fill="#000000" font-family="sans-serif" font-size="12" font-style="italic" lengthAdjust="spacing" textLength="85" x="382.5" y="235.9629">&#171;Value Object&#187;</text><text fill="#000000" font-family="sans-serif" font-size="14" lengthAdjust="spacing" textLength="132" x="359" y="254.082">ShowDSLDescription</text><line style="stroke:#181818;stroke-width:0.5;" x1="331" x2="493" y1="262.5957" y2="262.5957"/><line style="stroke:#181818;stroke-width:0.5;" x1="331" x2="493" y1="270.5957" y2="270.5957"/></g><!--class GenerateShowDSL--><g id="elem_GenerateShowDSL"><rect codeLine="36" fill="#F1F1F1" height="60.582" id="GenerateShowDSL" rx="2.5" ry="2.5" style="stroke:#181818;stroke-width:0.5;" width="153" x="174.5" y="70.0137"/><ellipse cx="189.5" cy="92.3047" fill="#ADD1B2" rx="11" ry="11" style="stroke:#181818;stroke-width:1.0;"/><path d="M192.2656,88.1797 Q192.4219,87.9609 192.6094,87.8516 Q192.7969,87.7422 193.0156,87.7422 Q193.3906,87.7422 193.625,88.0078 Q193.8594,88.2578 193.8594,88.8672 L193.8594,90.3203 Q193.8594,90.9297 193.625,91.1953 Q193.3906,91.4609 193.0156,91.4609 Q192.6719,91.4609 192.4688,91.2578 Q192.2656,91.0703 192.1563,90.5547 Q192.1094,90.1953 191.9219,90.0078 Q191.5938,89.6328 190.9844,89.4141 Q190.375,89.1953 189.75,89.1953 Q188.9844,89.1953 188.3438,89.5234 Q187.7188,89.8516 187.2188,90.6016 Q186.7344,91.3516 186.7344,92.3828 L186.7344,93.4766 Q186.7344,94.7109 187.625,95.5391 Q188.5156,96.3516 190.1094,96.3516 Q191.0469,96.3516 191.7031,96.1016 Q192.0938,95.9453 192.5156,95.5078 Q192.7813,95.2422 192.9219,95.1641 Q193.0781,95.0859 193.2813,95.0859 Q193.6094,95.0859 193.8594,95.3516 Q194.125,95.6016 194.125,95.9453 Q194.125,96.2891 193.7813,96.6953 Q193.2813,97.2734 192.4844,97.6016 Q191.4063,98.0547 190.1094,98.0547 Q188.5938,98.0547 187.3906,97.4297 Q186.4063,96.9297 185.7188,95.8672 Q185.0313,94.7891 185.0313,93.5078 L185.0313,92.3516 Q185.0313,91.0234 185.6406,89.8828 Q186.2656,88.7266 187.3594,88.1172 Q188.4531,87.4922 189.6875,87.4922 Q190.4219,87.4922 191.0625,87.6641 Q191.7188,87.8203 192.2656,88.1797 Z " fill="#000000"/><text fill="#000000" font-family="sans-serif" font-size="12" font-style="italic" lengthAdjust="spacing" textLength="55" x="236.5" y="87.9629">&#171;Service&#187;</text><text fill="#000000" font-family="sans-serif" font-size="14" lengthAdjust="spacing" textLength="121" x="203.5" y="106.082">GenerateShowDSL</text><line style="stroke:#181818;stroke-width:0.5;" x1="175.5" x2="326.5" y1="114.5957" y2="114.5957"/><line style="stroke:#181818;stroke-width:0.5;" x1="175.5" x2="326.5" y1="122.5957" y2="122.5957"/></g><!--class CRMCollaborator--><g id="elem_CRMCollaborator"><rect fill="#F1F1F1" height="48" id="CRMCollaborator" rx="2.5" ry="2.5" style="stroke:#181818;stroke-width:0.5;" width="141" x="1950.5" y="224.5137"/><ellipse cx="1965.5" cy="240.5137" fill="#ADD1B2" rx="11" ry="11" style="stroke:#181818;stroke-width:1.0;"/><path d="M1968.2656,236.3887 Q1968.4219,236.1699 1968.6094,236.0605 Q1968.7969,235.9512 1969.0156,235.9512 Q1969.3906,235.9512 1969.625,236.2168 Q1969.8594,236.4668 1969.8594,237.0762 L1969.8594,238.5293 Q1969.8594,239.1387 1969.625,239.4043 Q1969.3906,239.6699 1969.0156,239.6699 Q1968.6719,239.6699 1968.4688,239.4668 Q1968.2656,239.2793 1968.1563,238.7637 Q1968.1094,238.4043 1967.9219,238.2168 Q1967.5938,237.8418 1966.9844,237.623 Q1966.375,237.4043 1965.75,237.4043 Q1964.9844,237.4043 1964.3438,237.7324 Q1963.7188,238.0605 1963.2188,238.8105 Q1962.7344,239.5605 1962.7344,240.5918 L1962.7344,241.6855 Q1962.7344,242.9199 1963.625,243.748 Q1964.5156,244.5605 1966.1094,244.5605 Q1967.0469,244.5605 1967.7031,244.3105 Q1968.0938,244.1543 1968.5156,243.7168 Q1968.7813,243.4512 1968.9219,243.373 Q1969.0781,243.2949 1969.2813,243.2949 Q1969.6094,243.2949 1969.8594,243.5605 Q1970.125,243.8105 1970.125,244.1543 Q1970.125,244.498 1969.7813,244.9043 Q1969.2813,245.4824 1968.4844,245.8105 Q1967.4063,246.2637 1966.1094,246.2637 Q1964.5938,246.2637 1963.3906,245.6387 Q1962.4063,245.1387 1961.7188,244.0762 Q1961.0313,242.998 1961.0313,241.7168 L1961.0313,240.5605 Q1961.0313,239.2324 1961.6406,238.0918 Q1962.2656,236.9355 1963.3594,236.3262 Q1964.4531,235.7012 1965.6875,235.7012 Q1966.4219,235.7012 1967.0625,235.873 Q1967.7188,236.0293 1968.2656,236.3887 Z " fill="#000000"/><text fill="#000000" font-family="sans-serif" font-size="14" lengthAdjust="spacing" textLength="109" x="1979.5" y="246.3105">CRMCollaborator</text><line style="stroke:#181818;stroke-width:0.5;" x1="1951.5" x2="2090.5" y1="256.5137" y2="256.5137"/><line style="stroke:#181818;stroke-width:0.5;" x1="1951.5" x2="2090.5" y1="264.5137" y2="264.5137"/></g><!--class CRMManager--><g id="elem_CRMManager"><rect fill="#F1F1F1" height="48" id="CRMManager" rx="2.5" ry="2.5" style="stroke:#181818;stroke-width:0.5;" width="119" x="750.5" y="224.5137"/><ellipse cx="765.5" cy="240.5137" fill="#ADD1B2" rx="11" ry="11" style="stroke:#181818;stroke-width:1.0;"/><path d="M768.2656,236.3887 Q768.4219,236.1699 768.6094,236.0605 Q768.7969,235.9512 769.0156,235.9512 Q769.3906,235.9512 769.625,236.2168 Q769.8594,236.4668 769.8594,237.0762 L769.8594,238.5293 Q769.8594,239.1387 769.625,239.4043 Q769.3906,239.6699 769.0156,239.6699 Q768.6719,239.6699 768.4688,239.4668 Q768.2656,239.2793 768.1563,238.7637 Q768.1094,238.4043 767.9219,238.2168 Q767.5938,237.8418 766.9844,237.623 Q766.375,237.4043 765.75,237.4043 Q764.9844,237.4043 764.3438,237.7324 Q763.7188,238.0605 763.2188,238.8105 Q762.7344,239.5605 762.7344,240.5918 L762.7344,241.6855 Q762.7344,242.9199 763.625,243.748 Q764.5156,244.5605 766.1094,244.5605 Q767.0469,244.5605 767.7031,244.3105 Q768.0938,244.1543 768.5156,243.7168 Q768.7813,243.4512 768.9219,243.373 Q769.0781,243.2949 769.2813,243.2949 Q769.6094,243.2949 769.8594,243.5605 Q770.125,243.8105 770.125,244.1543 Q770.125,244.498 769.7813,244.9043 Q769.2813,245.4824 768.4844,245.8105 Q767.4063,246.2637 766.1094,246.2637 Q764.5938,246.2637 763.3906,245.6387 Q762.4063,245.1387 761.7188,244.0762 Q761.0313,242.998 761.0313,241.7168 L761.0313,240.5605 Q761.0313,239.2324 761.6406,238.0918 Q762.2656,236.9355 763.3594,236.3262 Q764.4531,235.7012 765.6875,235.7012 Q766.4219,235.7012 767.0625,235.873 Q767.7188,236.0293 768.2656,236.3887 Z " fill="#000000"/><text fill="#000000" font-family="sans-serif" font-size="14" lengthAdjust="spacing" textLength="87" x="779.5" y="246.3105">CRMManager</text><line style="stroke:#181818;stroke-width:0.5;" x1="751.5" x2="868.5" y1="256.5137" y2="256.5137"/><line style="stroke:#181818;stroke-width:0.5;" x1="751.5" x2="868.5" y1="264.5137" y2="264.5137"/></g><!--class ShowRequest--><g id="elem_ShowRequest"><rect fill="#F1F1F1" height="48" id="ShowRequest" rx="2.5" ry="2.5" style="stroke:#181818;stroke-width:0.5;" width="119" x="904.5" y="224.5137"/><ellipse cx="919.5" cy="240.5137" fill="#ADD1B2" rx="11" ry="11" style="stroke:#181818;stroke-width:1.0;"/><path d="M922.2656,236.3887 Q922.4219,236.1699 922.6094,236.0605 Q922.7969,235.9512 923.0156,235.9512 Q923.3906,235.9512 923.625,236.2168 Q923.8594,236.4668 923.8594,237.0762 L923.8594,238.5293 Q923.8594,239.1387 923.625,239.4043 Q923.3906,239.6699 923.0156,239.6699 Q922.6719,239.6699 922.4688,239.4668 Q922.2656,239.2793 922.1563,238.7637 Q922.1094,238.4043 921.9219,238.2168 Q921.5938,237.8418 920.9844,237.623 Q920.375,237.4043 919.75,237.4043 Q918.9844,237.4043 918.3438,237.7324 Q917.7188,238.0605 917.2188,238.8105 Q916.7344,239.5605 916.7344,240.5918 L916.7344,241.6855 Q916.7344,242.9199 917.625,243.748 Q918.5156,244.5605 920.1094,244.5605 Q921.0469,244.5605 921.7031,244.3105 Q922.0938,244.1543 922.5156,243.7168 Q922.7813,243.4512 922.9219,243.373 Q923.0781,243.2949 923.2813,243.2949 Q923.6094,243.2949 923.8594,243.5605 Q924.125,243.8105 924.125,244.1543 Q924.125,244.498 923.7813,244.9043 Q923.2813,245.4824 922.4844,245.8105 Q921.4063,246.2637 920.1094,246.2637 Q918.5938,246.2637 917.3906,245.6387 Q916.4063,245.1387 915.7188,244.0762 Q915.0313,242.998 915.0313,241.7168 L915.0313,240.5605 Q915.0313,239.2324 915.6406,238.0918 Q916.2656,236.9355 917.3594,236.3262 Q918.4531,235.7012 919.6875,235.7012 Q920.4219,235.7012 921.0625,235.873 Q921.7188,236.0293 922.2656,236.3887 Z " fill="#000000"/><text fill="#000000" font-family="sans-serif" font-size="14" lengthAdjust="spacing" textLength="87" x="933.5" y="246.3105">ShowRequest</text><line style="stroke:#181818;stroke-width:0.5;" x1="905.5" x2="1022.5" y1="256.5137" y2="256.5137"/><line style="stroke:#181818;stroke-width:0.5;" x1="905.5" x2="1022.5" y1="264.5137" y2="264.5137"/></g><!--class Time--><g id="elem_Time"><rect codeLine="68" fill="#F1F1F1" height="60.582" id="Time" rx="2.5" ry="2.5" style="stroke:#181818;stroke-width:0.5;" width="113" x="2043.5" y="505.0137"/><ellipse cx="2058.5" cy="527.3047" fill="#ADD1B2" rx="11" ry="11" style="stroke:#181818;stroke-width:1.0;"/><path d="M2061.2656,523.1797 Q2061.4219,522.9609 2061.6094,522.8516 Q2061.7969,522.7422 2062.0156,522.7422 Q2062.3906,522.7422 2062.625,523.0078 Q2062.8594,523.2578 2062.8594,523.8672 L2062.8594,525.3203 Q2062.8594,525.9297 2062.625,526.1953 Q2062.3906,526.4609 2062.0156,526.4609 Q2061.6719,526.4609 2061.4688,526.2578 Q2061.2656,526.0703 2061.1563,525.5547 Q2061.1094,525.1953 2060.9219,525.0078 Q2060.5938,524.6328 2059.9844,524.4141 Q2059.375,524.1953 2058.75,524.1953 Q2057.9844,524.1953 2057.3438,524.5234 Q2056.7188,524.8516 2056.2188,525.6016 Q2055.7344,526.3516 2055.7344,527.3828 L2055.7344,528.4766 Q2055.7344,529.7109 2056.625,530.5391 Q2057.5156,531.3516 2059.1094,531.3516 Q2060.0469,531.3516 2060.7031,531.1016 Q2061.0938,530.9453 2061.5156,530.5078 Q2061.7813,530.2422 2061.9219,530.1641 Q2062.0781,530.0859 2062.2813,530.0859 Q2062.6094,530.0859 2062.8594,530.3516 Q2063.125,530.6016 2063.125,530.9453 Q2063.125,531.2891 2062.7813,531.6953 Q2062.2813,532.2734 2061.4844,532.6016 Q2060.4063,533.0547 2059.1094,533.0547 Q2057.5938,533.0547 2056.3906,532.4297 Q2055.4063,531.9297 2054.7188,530.8672 Q2054.0313,529.7891 2054.0313,528.5078 L2054.0313,527.3516 Q2054.0313,526.0234 2054.6406,524.8828 Q2055.2656,523.7266 2056.3594,523.1172 Q2057.4531,522.4922 2058.6875,522.4922 Q2059.4219,522.4922 2060.0625,522.6641 Q2060.7188,522.8203 2061.2656,523.1797 Z " fill="#000000"/><text fill="#000000" font-family="sans-serif" font-size="12" font-style="italic" lengthAdjust="spacing" textLength="85" x="2070.5" y="522.9629">&#171;Value Object&#187;</text><text fill="#000000" font-family="sans-serif" font-size="14" lengthAdjust="spacing" textLength="31" x="2097.5" y="541.082">Time</text><line style="stroke:#181818;stroke-width:0.5;" x1="2044.5" x2="2155.5" y1="549.5957" y2="549.5957"/><line style="stroke:#181818;stroke-width:0.5;" x1="2044.5" x2="2155.5" y1="557.5957" y2="557.5957"/></g><!--class Date--><g id="elem_Date"><rect codeLine="71" fill="#F1F1F1" height="60.582" id="Date" rx="2.5" ry="2.5" style="stroke:#181818;stroke-width:0.5;" width="113" x="2191.5" y="505.0137"/><ellipse cx="2206.5" cy="527.3047" fill="#ADD1B2" rx="11" ry="11" style="stroke:#181818;stroke-width:1.0;"/><path d="M2209.2656,523.1797 Q2209.4219,522.9609 2209.6094,522.8516 Q2209.7969,522.7422 2210.0156,522.7422 Q2210.3906,522.7422 2210.625,523.0078 Q2210.8594,523.2578 2210.8594,523.8672 L2210.8594,525.3203 Q2210.8594,525.9297 2210.625,526.1953 Q2210.3906,526.4609 2210.0156,526.4609 Q2209.6719,526.4609 2209.4688,526.2578 Q2209.2656,526.0703 2209.1563,525.5547 Q2209.1094,525.1953 2208.9219,525.0078 Q2208.5938,524.6328 2207.9844,524.4141 Q2207.375,524.1953 2206.75,524.1953 Q2205.9844,524.1953 2205.3438,524.5234 Q2204.7188,524.8516 2204.2188,525.6016 Q2203.7344,526.3516 2203.7344,527.3828 L2203.7344,528.4766 Q2203.7344,529.7109 2204.625,530.5391 Q2205.5156,531.3516 2207.1094,531.3516 Q2208.0469,531.3516 2208.7031,531.1016 Q2209.0938,530.9453 2209.5156,530.5078 Q2209.7813,530.2422 2209.9219,530.1641 Q2210.0781,530.0859 2210.2813,530.0859 Q2210.6094,530.0859 2210.8594,530.3516 Q2211.125,530.6016 2211.125,530.9453 Q2211.125,531.2891 2210.7813,531.6953 Q2210.2813,532.2734 2209.4844,532.6016 Q2208.4063,533.0547 2207.1094,533.0547 Q2205.5938,533.0547 2204.3906,532.4297 Q2203.4063,531.9297 2202.7188,530.8672 Q2202.0313,529.7891 2202.0313,528.5078 L2202.0313,527.3516 Q2202.0313,526.0234 2202.6406,524.8828 Q2203.2656,523.7266 2204.3594,523.1172 Q2205.4531,522.4922 2206.6875,522.4922 Q2207.4219,522.4922 2208.0625,522.6641 Q2208.7188,522.8203 2209.2656,523.1797 Z " fill="#000000"/><text fill="#000000" font-family="sans-serif" font-size="12" font-style="italic" lengthAdjust="spacing" textLength="85" x="2218.5" y="522.9629">&#171;Value Object&#187;</text><text fill="#000000" font-family="sans-serif" font-size="14" lengthAdjust="spacing" textLength="30" x="2246" y="541.082">Date</text><line style="stroke:#181818;stroke-width:0.5;" x1="2192.5" x2="2303.5" y1="549.5957" y2="549.5957"/><line style="stroke:#181818;stroke-width:0.5;" x1="2192.5" x2="2303.5" y1="557.5957" y2="557.5957"/></g><!--class Duration--><g id="elem_Duration"><rect codeLine="74" fill="#F1F1F1" height="60.582" id="Duration" rx="2.5" ry="2.5" style="stroke:#181818;stroke-width:0.5;" width="113" x="2339.5" y="505.0137"/><ellipse cx="2354.5" cy="527.3047" fill="#ADD1B2" rx="11" ry="11" style="stroke:#181818;stroke-width:1.0;"/><path d="M2357.2656,523.1797 Q2357.4219,522.9609 2357.6094,522.8516 Q2357.7969,522.7422 2358.0156,522.7422 Q2358.3906,522.7422 2358.625,523.0078 Q2358.8594,523.2578 2358.8594,523.8672 L2358.8594,525.3203 Q2358.8594,525.9297 2358.625,526.1953 Q2358.3906,526.4609 2358.0156,526.4609 Q2357.6719,526.4609 2357.4688,526.2578 Q2357.2656,526.0703 2357.1563,525.5547 Q2357.1094,525.1953 2356.9219,525.0078 Q2356.5938,524.6328 2355.9844,524.4141 Q2355.375,524.1953 2354.75,524.1953 Q2353.9844,524.1953 2353.3438,524.5234 Q2352.7188,524.8516 2352.2188,525.6016 Q2351.7344,526.3516 2351.7344,527.3828 L2351.7344,528.4766 Q2351.7344,529.7109 2352.625,530.5391 Q2353.5156,531.3516 2355.1094,531.3516 Q2356.0469,531.3516 2356.7031,531.1016 Q2357.0938,530.9453 2357.5156,530.5078 Q2357.7813,530.2422 2357.9219,530.1641 Q2358.0781,530.0859 2358.2813,530.0859 Q2358.6094,530.0859 2358.8594,530.3516 Q2359.125,530.6016 2359.125,530.9453 Q2359.125,531.2891 2358.7813,531.6953 Q2358.2813,532.2734 2357.4844,532.6016 Q2356.4063,533.0547 2355.1094,533.0547 Q2353.5938,533.0547 2352.3906,532.4297 Q2351.4063,531.9297 2350.7188,530.8672 Q2350.0313,529.7891 2350.0313,528.5078 L2350.0313,527.3516 Q2350.0313,526.0234 2350.6406,524.8828 Q2351.2656,523.7266 2352.3594,523.1172 Q2353.4531,522.4922 2354.6875,522.4922 Q2355.4219,522.4922 2356.0625,522.6641 Q2356.7188,522.8203 2357.2656,523.1797 Z " fill="#000000"/><text fill="#000000" font-family="sans-serif" font-size="12" font-style="italic" lengthAdjust="spacing" textLength="85" x="2366.5" y="522.9629">&#171;Value Object&#187;</text><text fill="#000000" font-family="sans-serif" font-size="14" lengthAdjust="spacing" textLength="54" x="2382" y="541.082">Duration</text><line style="stroke:#181818;stroke-width:0.5;" x1="2340.5" x2="2451.5" y1="549.5957" y2="549.5957"/><line style="stroke:#181818;stroke-width:0.5;" x1="2340.5" x2="2451.5" y1="557.5957" y2="557.5957"/></g><!--class QuantityOfDrones--><g id="elem_QuantityOfDrones"><rect codeLine="77" fill="#F1F1F1" height="60.582" id="QuantityOfDrones" rx="2.5" ry="2.5" style="stroke:#181818;stroke-width:0.5;" width="146" x="2488" y="505.0137"/><ellipse cx="2503" cy="527.3047" fill="#ADD1B2" rx="11" ry="11" style="stroke:#181818;stroke-width:1.0;"/><path d="M2505.7656,523.1797 Q2505.9219,522.9609 2506.1094,522.8516 Q2506.2969,522.7422 2506.5156,522.7422 Q2506.8906,522.7422 2507.125,523.0078 Q2507.3594,523.2578 2507.3594,523.8672 L2507.3594,525.3203 Q2507.3594,525.9297 2507.125,526.1953 Q2506.8906,526.4609 2506.5156,526.4609 Q2506.1719,526.4609 2505.9688,526.2578 Q2505.7656,526.0703 2505.6563,525.5547 Q2505.6094,525.1953 2505.4219,525.0078 Q2505.0938,524.6328 2504.4844,524.4141 Q2503.875,524.1953 2503.25,524.1953 Q2502.4844,524.1953 2501.8438,524.5234 Q2501.2188,524.8516 2500.7188,525.6016 Q2500.2344,526.3516 2500.2344,527.3828 L2500.2344,528.4766 Q2500.2344,529.7109 2501.125,530.5391 Q2502.0156,531.3516 2503.6094,531.3516 Q2504.5469,531.3516 2505.2031,531.1016 Q2505.5938,530.9453 2506.0156,530.5078 Q2506.2813,530.2422 2506.4219,530.1641 Q2506.5781,530.0859 2506.7813,530.0859 Q2507.1094,530.0859 2507.3594,530.3516 Q2507.625,530.6016 2507.625,530.9453 Q2507.625,531.2891 2507.2813,531.6953 Q2506.7813,532.2734 2505.9844,532.6016 Q2504.9063,533.0547 2503.6094,533.0547 Q2502.0938,533.0547 2500.8906,532.4297 Q2499.9063,531.9297 2499.2188,530.8672 Q2498.5313,529.7891 2498.5313,528.5078 L2498.5313,527.3516 Q2498.5313,526.0234 2499.1406,524.8828 Q2499.7656,523.7266 2500.8594,523.1172 Q2501.9531,522.4922 2503.1875,522.4922 Q2503.9219,522.4922 2504.5625,522.6641 Q2505.2188,522.8203 2505.7656,523.1797 Z " fill="#000000"/><text fill="#000000" font-family="sans-serif" font-size="12" font-style="italic" lengthAdjust="spacing" textLength="85" x="2531.5" y="522.9629">&#171;Value Object&#187;</text><text fill="#000000" font-family="sans-serif" font-size="14" lengthAdjust="spacing" textLength="114" x="2517" y="541.082">QuantityOfDrones</text><line style="stroke:#181818;stroke-width:0.5;" x1="2489" x2="2633" y1="549.5957" y2="549.5957"/><line style="stroke:#181818;stroke-width:0.5;" x1="2489" x2="2633" y1="557.5957" y2="557.5957"/></g><!--link ShowProposal to CustomerFeedback--><g id="link_ShowProposal_CustomerFeedback"><path codeLine="40" d="M1643.71,139.1137 C1653.95,163.6137 1664.8083,189.5969 1674.2983,212.3269 " fill="none" id="ShowProposal-to-CustomerFeedback" style="stroke:#181818;stroke-width:1.0;"/><polygon fill="#181818" points="1676.61,217.8637,1676.8337,208.0174,1674.6836,213.2497,1669.4513,211.0996,1676.61,217.8637" style="stroke:#181818;stroke-width:1.0;"/><text fill="#000000" font-family="sans-serif" font-size="13" lengthAdjust="spacing" textLength="111" x="1665" y="184.042">customerFeedback</text><text fill="#000000" font-family="sans-serif" font-size="13" lengthAdjust="spacing" textLength="7" x="1666.3327" y="206.8904">1</text></g><!--link ShowProposal to CRMCollaborator--><g id="link_ShowProposal_CRMCollaborator"><path codeLine="41" d="M1689.11,118.1337 C1733.42,130.7137 1794.53,149.1737 1847,169.0137 C1890.86,185.5937 1933.988,205.2333 1968.628,221.8133 " fill="none" id="ShowProposal-to-CRMCollaborator" style="stroke:#181818;stroke-width:1.0;"/><polygon fill="#181818" points="1974.04,224.4037,1967.6489,216.9101,1969.53,222.245,1964.1951,224.1261,1974.04,224.4037" style="stroke:#181818;stroke-width:1.0;"/><text fill="#000000" font-family="sans-serif" font-size="13" lengthAdjust="spacing" textLength="61" x="1892" y="184.042">created by</text><text fill="#000000" font-family="sans-serif" font-size="13" lengthAdjust="spacing" textLength="7" x="1954.1096" y="213.113">1</text></g><!--link ShowProposal to CRMManager--><g id="link_ShowProposal_CRMManager"><path codeLine="42" d="M1566.79,105.3537 C1436.39,114.0537 1135.19,137.0037 1038,169.0137 C1021.93,174.3037 1020.68,181.6437 1005,188.0137 C954.86,208.3737 938.58,201.6437 887,218.0137 C880.86,219.9637 880.1458,220.1026 873.8358,222.3726 " fill="none" id="ShowProposal-to-CRMManager" style="stroke:#181818;stroke-width:1.0;"/><polygon fill="#181818" points="868.19,224.4037,878.0127,225.121,872.8948,222.7111,875.3046,217.5932,868.19,224.4037" style="stroke:#181818;stroke-width:1.0;"/><text fill="#000000" font-family="sans-serif" font-size="13" lengthAdjust="spacing" textLength="131" x="1039" y="184.042">template configured by</text><text fill="#000000" font-family="sans-serif" font-size="13" lengthAdjust="spacing" textLength="7" x="875.2043" y="213.113">1</text></g><!--link ShowProposal to ShowRequest--><g id="link_ShowProposal_ShowRequest"><path codeLine="43" d="M1566.76,105.8037 C1485.24,112.7937 1337.39,130.0237 1217,169.0137 C1199.04,174.8337 1196.81,181.7337 1179,188.0137 C1119.8,208.8737 1101.15,200.0637 1041,218.0137 C1034.55,219.9337 1033.5414,220.1666 1026.9314,222.4866 " fill="none" id="ShowProposal-to-ShowRequest" style="stroke:#181818;stroke-width:1.0;"/><polygon fill="#181818" points="1021.27,224.4737,1031.0868,225.2674,1025.9878,222.8178,1028.4374,217.7188,1021.27,224.4737" style="stroke:#181818;stroke-width:1.0;"/><text fill="#000000" font-family="sans-serif" font-size="13" lengthAdjust="spacing" textLength="53" x="1218" y="184.042">based on</text><text fill="#000000" font-family="sans-serif" font-size="13" lengthAdjust="spacing" textLength="7" x="1028.0486" y="213.2009">1</text></g><!--link ShowProposal to ShowProposalStatus--><g id="link_ShowProposal_ShowProposalStatus"><path codeLine="44" d="M1566.78,112.5237 C1506.58,124.0537 1412.42,143.9537 1333,169.0137 C1289.53,182.7237 1247.6062,199.57 1210.6462,215.57 " fill="none" id="ShowProposal-to-ShowProposalStatus" style="stroke:#181818;stroke-width:1.0;"/><polygon fill="#181818" points="1205.14,217.9537,1214.9884,218.049,1209.7285,215.9673,1211.8102,210.7074,1205.14,217.9537" style="stroke:#181818;stroke-width:1.0;"/><text fill="#000000" font-family="sans-serif" font-size="13" lengthAdjust="spacing" textLength="87" x="1334" y="184.042">proposalStatus</text><text fill="#000000" font-family="sans-serif" font-size="13" lengthAdjust="spacing" textLength="7" x="1211.6238" y="206.5152">1</text></g><!--link ShowProposal to ShowProposalDocument--><g id="link_ShowProposal_ShowProposalDocument"><path codeLine="45" d="M1566.81,104.3737 C1420.69,111.7137 1054.88,133.1837 938,169.0137 C921.08,174.2037 919.71,182.1737 903,188.0137 C830.57,213.3137 807.92,201.4837 733,218.0137 C727.16,219.3037 726.9937,219.2909 720.9637,220.7409 " fill="none" id="ShowProposal-to-ShowProposalDocument" style="stroke:#181818;stroke-width:1.0;"/><polygon fill="#181818" points="715.13,222.1437,724.8158,223.9286,719.9914,220.9747,722.9454,216.1503,715.13,222.1437" style="stroke:#181818;stroke-width:1.0;"/><text fill="#000000" font-family="sans-serif" font-size="13" lengthAdjust="spacing" textLength="57" x="939" y="184.042">document</text><text fill="#000000" font-family="sans-serif" font-size="13" lengthAdjust="spacing" textLength="7" x="723.1322" y="216.3137">1</text></g><!--link ShowProposal to ShowProposalNumber--><g id="link_ShowProposal_ShowProposalNumber"><path codeLine="46" d="M1566.78,122.6537 C1534.33,134.7237 1494.21,151.0037 1460,169.0137 C1432.89,183.2837 1409.1436,198.7861 1386.8636,214.4961 " fill="none" id="ShowProposal-to-ShowProposalNumber" style="stroke:#181818;stroke-width:1.0;"/><polygon fill="#181818" points="1381.96,217.9537,1391.6204,216.0363,1386.0463,215.0723,1387.0103,209.4982,1381.96,217.9537" style="stroke:#181818;stroke-width:1.0;"/><text fill="#000000" font-family="sans-serif" font-size="13" lengthAdjust="spacing" textLength="94" x="1461" y="184.042">proposalNumber</text><text fill="#000000" font-family="sans-serif" font-size="13" lengthAdjust="spacing" textLength="7" x="1382.9356" y="206.5152">1</text></g><!--link ShowProposal to Insurance--><g id="link_ShowProposal_Insurance"><path codeLine="47" d="M1599.93,139.1137 C1581.64,163.6137 1561.6895,190.3258 1544.7195,213.0558 " fill="none" id="ShowProposal-to-Insurance" style="stroke:#181818;stroke-width:1.0;"/><polygon fill="#181818" points="1541.13,217.8637,1549.7195,213.0449,1544.1212,213.8571,1543.309,208.2589,1541.13,217.8637" style="stroke:#181818;stroke-width:1.0;"/><text fill="#000000" font-family="sans-serif" font-size="13" lengthAdjust="spacing" textLength="56" x="1578" y="184.042">insurance</text><text fill="#000000" font-family="sans-serif" font-size="13" lengthAdjust="spacing" textLength="7" x="1537.9724" y="206.8904">1</text></g><!--link ShowProposal to ShowConfiguration--><g id="link_ShowProposal_ShowConfiguration"><path codeLine="48" d="M1566.85,103.4037 C1399.16,109.0637 934.83,128.0737 788,169.0137 C769.81,174.0837 768.22,183.0537 750,188.0137 C561.74,239.3137 506.09,198.0137 312,218.0137 C265.93,222.7637 220.4362,228.9212 179.5462,234.9312 " fill="none" id="ShowProposal-to-ShowConfiguration" style="stroke:#181818;stroke-width:1.0;"/><polygon fill="#181818" points="173.61,235.8037,183.096,238.4524,178.5569,235.0766,181.9327,230.5374,173.61,235.8037" style="stroke:#181818;stroke-width:1.0;"/><text fill="#000000" font-family="sans-serif" font-size="13" lengthAdjust="spacing" textLength="105" x="789" y="184.042">showConfiguration</text><text fill="#000000" font-family="sans-serif" font-size="13" lengthAdjust="spacing" textLength="7" x="181.3974" y="230.779">1</text></g><!--link ShowProposal to Video--><g id="link_ShowProposal_Video"><path codeLine="49" d="M1689.15,121.1437 C1719.51,132.4937 1755.83,148.6037 1785,169.0137 C1804.34,182.5437 1818.6914,197.1874 1832.2214,213.2274 " fill="none" id="ShowProposal-to-Video" style="stroke:#181818;stroke-width:1.0;"/><polygon fill="#181818" points="1836.09,217.8137,1833.3446,208.3552,1832.8662,213.9918,1827.2296,213.5133,1836.09,217.8137" style="stroke:#181818;stroke-width:1.0;"/><text fill="#000000" font-family="sans-serif" font-size="13" lengthAdjust="spacing" textLength="29" x="1809" y="184.042">video</text><text fill="#000000" font-family="sans-serif" font-size="13" lengthAdjust="spacing" textLength="7" x="1823.6429" y="206.8301">1</text></g><!--link GenerateShowDSL to ShowConfiguration--><g id="link_GenerateShowDSL_ShowConfiguration"><path codeLine="52" d="M220.04,131.0637 C193.49,156.3937 159.7905,188.5512 133.2605,213.8712 " fill="none" id="GenerateShowDSL-to-ShowConfiguration" style="stroke:#181818;stroke-width:1.0;stroke-dasharray:7.0,7.0;"/><polygon fill="#181818" points="128.92,218.0137,138.1924,214.6936,132.5371,214.5616,132.669,208.9063,128.92,218.0137" style="stroke:#181818;stroke-width:1.0;"/><text fill="#000000" font-family="sans-serif" font-size="13" lengthAdjust="spacing" textLength="28" x="181" y="184.042">uses</text></g><!--link GenerateShowDSL to ShowDSLDescription--><g id="link_GenerateShowDSL_ShowDSLDescription"><path codeLine="53" d="M283.58,131.0637 C311.51,156.3937 347.1055,188.663 375.0255,213.983 " fill="none" id="GenerateShowDSL-to-ShowDSLDescription" style="stroke:#181818;stroke-width:1.0;"/><polygon fill="#181818" points="379.47,218.0137,375.4903,209.0047,375.7662,214.6548,370.1161,214.9307,379.47,218.0137" style="stroke:#181818;stroke-width:1.0;"/><text fill="#000000" font-family="sans-serif" font-size="13" lengthAdjust="spacing" textLength="40" x="347" y="184.042">returns</text></g><!--link ProposalDocumentGenerator to ShowProposalDocument--><g id="link_ProposalDocumentGenerator_ShowProposalDocument"><path codeLine="56" d="M620.73,131.1337 C620.16,147.8437 619.68,169.0937 620,188.0137 C620.16,197.7237 620.2724,202.3373 620.6024,211.8673 " fill="none" id="ProposalDocumentGenerator-to-ShowProposalDocument" style="stroke:#181818;stroke-width:1.0;stroke-dasharray:7.0,7.0;"/><polygon fill="#181818" points="620.81,217.8637,624.4961,208.7306,620.637,212.8667,616.5009,209.0075,620.81,217.8637" style="stroke:#181818;stroke-width:1.0;"/><text fill="#000000" font-family="sans-serif" font-size="13" lengthAdjust="spacing" textLength="124" x="621" y="184.042">validates &amp; generates</text><text fill="#000000" font-family="sans-serif" font-size="13" lengthAdjust="spacing" textLength="7" x="612.8427" y="206.8904">1</text></g><!--link ShowConfiguration to ShowConfigurationFigure--><g id="link_ShowConfiguration_ShowConfigurationFigure"><path codeLine="59" d="M102.29,279.1137 C105.66,302.4037 109.4775,328.746 112.8575,352.016 " fill="none" id="ShowConfiguration-to-ShowConfigurationFigure" style="stroke:#181818;stroke-width:1.0;"/><polygon fill="#181818" points="113.72,357.9537,116.3848,348.4722,113.0013,353.0056,108.4679,349.6221,113.72,357.9537" style="stroke:#181818;stroke-width:1.0;"/><text fill="#000000" font-family="sans-serif" font-size="13" lengthAdjust="spacing" textLength="38" x="111" y="324.042">figures</text><text fill="#000000" font-family="sans-serif" font-size="13" lengthAdjust="spacing" textLength="20" x="90.5963" y="346.5152">1..*</text></g><!--link ShowConfiguration to ShowDSLDescription--><g id="link_ShowConfiguration_ShowDSLDescription"><path codeLine="60" d="M173.61,248.5137 C220.79,248.5137 275.53,248.5137 323.89,248.5137 " fill="none" id="ShowConfiguration-to-ShowDSLDescription" style="stroke:#181818;stroke-width:1.0;"/><polygon fill="#181818" points="329.89,248.5137,320.89,244.5137,324.89,248.5137,320.89,252.5137,329.89,248.5137" style="stroke:#181818;stroke-width:1.0;"/><text fill="#000000" font-family="sans-serif" font-size="13" lengthAdjust="spacing" textLength="120" x="191.75" y="241.542">showDSLDescription</text><text fill="#000000" font-family="sans-serif" font-size="13" lengthAdjust="spacing" textLength="22" x="299.8884" y="263.3029">0..1</text></g><!--link ShowProposal to QuantityOfDrones--><g id="link_ShowProposal_QuantityOfDrones"><path codeLine="81" d="M1689.34,102.4737 C1791.54,105.5237 2002.23,118.0737 2172,169.0137 C2219.02,183.1237 2228.55,193.3537 2271,218.0137 C2333.56,254.3637 2354.6,258.0837 2406,309.0137 C2467.75,370.2037 2517.5411,453.8795 2542.5611,499.6295 " fill="none" id="ShowProposal-to-QuantityOfDrones" style="stroke:#181818;stroke-width:1.0;"/><polygon fill="#181818" points="2545.44,504.8937,2544.6311,495.0781,2543.0409,500.5068,2537.6122,498.9166,2545.44,504.8937" style="stroke:#181818;stroke-width:1.0;"/><text fill="#000000" font-family="sans-serif" font-size="13" lengthAdjust="spacing" textLength="64" x="2424" y="324.042">qnt_drones</text><text fill="#000000" font-family="sans-serif" font-size="13" lengthAdjust="spacing" textLength="7" x="2534.5089" y="493.9266">1</text></g><!--link ShowProposal to Time--><g id="link_ShowProposal_Time"><path codeLine="82" d="M1689.03,106.6737 C1807.22,118.1137 2060.08,150.1437 2109,218.0137 C2141.58,263.2237 2117.9015,429.4262 2106.2315,499.0762 " fill="none" id="ShowProposal-to-Time" style="stroke:#181818;stroke-width:1.0;"/><polygon fill="#181818" points="2105.24,504.9937,2110.6722,496.7784,2106.0662,500.0624,2102.7822,495.4564,2105.24,504.9937" style="stroke:#181818;stroke-width:1.0;"/><text fill="#000000" font-family="sans-serif" font-size="13" lengthAdjust="spacing" textLength="70" x="2127" y="324.042">timeOfShow</text><text fill="#000000" font-family="sans-serif" font-size="13" lengthAdjust="spacing" textLength="7" x="2098.6206" y="493.5639">1</text></g><!--link ShowProposal to Date--><g id="link_ShowProposal_Date"><path codeLine="83" d="M1689.32,101.4437 C1778.16,103.3737 1946.34,114.7037 2077,169.0137 C2155.13,201.4837 2173.45,230.9137 2206,309.0137 C2233.73,375.5437 2242.8067,454.7393 2246.0067,498.9393 " fill="none" id="ShowProposal-to-Date" style="stroke:#181818;stroke-width:1.0;"/><polygon fill="#181818" points="2246.44,504.9237,2249.7797,495.6583,2246.079,499.9367,2241.8006,496.236,2246.44,504.9237" style="stroke:#181818;stroke-width:1.0;"/><text fill="#000000" font-family="sans-serif" font-size="13" lengthAdjust="spacing" textLength="70" x="2215" y="324.042">dateOfShow</text><text fill="#000000" font-family="sans-serif" font-size="13" lengthAdjust="spacing" textLength="7" x="2238.3964" y="493.9628">1</text></g><!--link ShowProposal to Duration--><g id="link_ShowProposal_Duration"><path codeLine="84" d="M1689.05,101.5237 C1784.54,103.3537 1973.76,114.3437 2123,169.0137 C2215.23,202.7937 2237.47,228.6837 2294,309.0137 C2339,372.9637 2369.6628,454.2749 2384.7328,499.2249 " fill="none" id="ShowProposal-to-Duration" style="stroke:#181818;stroke-width:1.0;"/><polygon fill="#181818" points="2386.64,504.9137,2387.5717,495.109,2385.0506,500.173,2379.9866,497.652,2386.64,504.9137" style="stroke:#181818;stroke-width:1.0;"/><text fill="#000000" font-family="sans-serif" font-size="13" lengthAdjust="spacing" textLength="91" x="2306" y="324.042">durationOfShow</text><text fill="#000000" font-family="sans-serif" font-size="13" lengthAdjust="spacing" textLength="7" x="2376.9876" y="493.9507">1</text></g><!--SRC=[bLLDRvj04BtpAqO-j5AbelQwYhYOfehKr6seSgqM61DQs2NxuJQA-jyx2sl7O8CtFk1XU6zdc9atTBpupIk4LVOW_tnJifEQDx22gojULGehRZ19dgC8w8V2jd2CommtLXFsdZSMOPF_mi8uk4F_6qX5mxKUiGZ_IPZQF2K9cKhAovHK5hP5OLuRwgjjSrGXh1kXhUAYm13msceZMrJNY6LE1GnDQot5jgueZgcbE2f32FpQMK7PtTSboX3WjBgVKI05awvW6QfTNL3lOIQvDFkIeYvKtVcN6OSxH_FdewVFHtax6fVt2VpjtMClkLSVLoUzO51CF0lSkzkrR1gUo_wrYQgGyYiXVreatN91cY6ymRPhY065RzK5hdFUuQD5RHZaN1DSYcNuM6iCkj5z67VVO0Qbjy9uWtnUOWxtyzo3Y1ZKUtCvqcZ46UYfQvxTJpc3dVlpKpEThyFWJ1_4SN8kkjMep-9TpDEPPw3GM2Mq3pylfqCYyn2NqdpRThofIqf8mnkeV7BwI2lZnJ8IpEHHNxquVhUQsp0CXa4UAZ5p2Xto8OvzkjEgw1DV54MaxAZptvhiWJkXF1_lXXzr6xJSKgUs4DpBbhs8_MvvluWtsrH9WHS-Q67BQJ-cqxCPF0hpi-pj9Pwh1-qNkcws3hA4TJKXQTCr07kOzj9RdaCT-Wy0]--></g></svg>