<?xml version="1.0" encoding="UTF-8" standalone="no"?><svg xmlns="http://www.w3.org/2000/svg" xmlns:xlink="http://www.w3.org/1999/xlink" contentStyleType="text/css" height="1594px" preserveAspectRatio="none" style="width:1809px;height:1594px;background:#FFFFFF;" version="1.1" viewBox="0 0 1809 1594" width="1809px" zoomAndPan="magnify"><defs/><g><!--cluster Persistence --><g id="cluster_Persistence "><path d="M762.5,453.1588 L888.5,453.1588 A3.75,3.75 0 0 1 891,455.6588 L898,482.7134 L1215.5,482.7134 A2.5,2.5 0 0 1 1218,485.2134 L1218,582.2088 A2.5,2.5 0 0 1 1215.5,584.7088 L762.5,584.7088 A2.5,2.5 0 0 1 760,582.2088 L760,455.6588 A2.5,2.5 0 0 1 762.5,453.1588 " fill="#DDDDDD" style="stroke:#000000;stroke-width:1.5;"/><line style="stroke:#000000;stroke-width:1.5;" x1="760" x2="898" y1="482.7134" y2="482.7134"/><text fill="#000000" font-family="sans-serif" font-size="20" font-weight="bold" lengthAdjust="spacing" textLength="118" x="764" y="474.4947">Persistence</text></g><!--cluster persistence.impl.jpa--><g id="cluster_persistence.impl.jpa"><path d="M1184.5,641.7088 L1392.5,641.7088 A3.75,3.75 0 0 1 1395,644.2088 L1402,671.2634 L1545.5,671.2634 A2.5,2.5 0 0 1 1548,673.7634 L1548,995.0988 A2.5,2.5 0 0 1 1545.5,997.5988 L1184.5,997.5988 A2.5,2.5 0 0 1 1182,995.0988 L1182,644.2088 A2.5,2.5 0 0 1 1184.5,641.7088 " fill="#DDDDDD" style="stroke:#000000;stroke-width:1.5;"/><line style="stroke:#000000;stroke-width:1.5;" x1="1182" x2="1402" y1="671.2634" y2="671.2634"/><text fill="#000000" font-family="sans-serif" font-size="20" font-weight="bold" lengthAdjust="spacing" textLength="207" x="1186" y="663.0447">persistence.impl.jpa</text></g><!--cluster persistence.impl.inmemory--><g id="cluster_persistence.impl.inmemory"><path d="M8.5,641.7088 L288.5,641.7088 A3.75,3.75 0 0 1 291,644.2088 L298,671.2634 L369.5,671.2634 A2.5,2.5 0 0 1 372,673.7634 L372,995.0988 A2.5,2.5 0 0 1 369.5,997.5988 L8.5,997.5988 A2.5,2.5 0 0 1 6,995.0988 L6,644.2088 A2.5,2.5 0 0 1 8.5,641.7088 " fill="#DDDDDD" style="stroke:#000000;stroke-width:1.5;"/><line style="stroke:#000000;stroke-width:1.5;" x1="6" x2="298" y1="671.2634" y2="671.2634"/><text fill="#000000" font-family="sans-serif" font-size="20" font-weight="bold" lengthAdjust="spacing" textLength="279" x="10" y="663.0447">persistence.impl.inmemory</text></g><!--cluster Domain--><g id="cluster_Domain"><path d="M398.5,827.8188 L479.5,827.8188 A3.75,3.75 0 0 1 482,830.3188 L489,857.3734 L1155.5,857.3734 A2.5,2.5 0 0 1 1158,859.8734 L1158,1584.6488 A2.5,2.5 0 0 1 1155.5,1587.1488 L398.5,1587.1488 A2.5,2.5 0 0 1 396,1584.6488 L396,830.3188 A2.5,2.5 0 0 1 398.5,827.8188 " fill="#DDDDDD" style="stroke:#000000;stroke-width:1.5;"/><line style="stroke:#000000;stroke-width:1.5;" x1="396" x2="489" y1="857.3734" y2="857.3734"/><text fill="#000000" font-family="sans-serif" font-size="20" font-weight="bold" lengthAdjust="spacing" textLength="80" x="400" y="849.1547">Domain</text></g><!--cluster Repository --><g id="cluster_Repository "><path d="M628.5,877.8188 L748.5,877.8188 A3.75,3.75 0 0 1 751,880.3188 L758,907.3734 L1063.5,907.3734 A2.5,2.5 0 0 1 1066,909.8734 L1066,1141.4288 A2.5,2.5 0 0 1 1063.5,1143.9288 L628.5,1143.9288 A2.5,2.5 0 0 1 626,1141.4288 L626,880.3188 A2.5,2.5 0 0 1 628.5,877.8188 " fill="#DDDDDD" style="stroke:#000000;stroke-width:1.5;"/><line style="stroke:#000000;stroke-width:1.5;" x1="626" x2="758" y1="907.3734" y2="907.3734"/><text fill="#000000" font-family="sans-serif" font-size="20" font-weight="bold" lengthAdjust="spacing" textLength="112" x="630" y="899.1547">Repository</text></g><!--cluster UI--><g id="cluster_UI"><path d="M802.5,6.7188 L825.5,6.7188 A3.75,3.75 0 0 1 828,9.2188 L835,36.2734 L1175.5,36.2734 A2.5,2.5 0 0 1 1178,38.7734 L1178,205.9887 A2.5,2.5 0 0 1 1175.5,208.4887 L802.5,208.4887 A2.5,2.5 0 0 1 800,205.9887 L800,9.2188 A2.5,2.5 0 0 1 802.5,6.7188 " fill="#DDDDDD" style="stroke:#000000;stroke-width:1.5;"/><line style="stroke:#000000;stroke-width:1.5;" x1="800" x2="835" y1="36.2734" y2="36.2734"/><text fill="#000000" font-family="sans-serif" font-size="20" font-weight="bold" lengthAdjust="spacing" textLength="22" x="804" y="28.0547">UI</text></g><!--cluster Controller--><g id="cluster_Controller"><path d="M794.5,241.4887 L900.5,241.4887 A3.75,3.75 0 0 1 903,243.9887 L910,271.0434 L1183.5,271.0434 A2.5,2.5 0 0 1 1186,273.5434 L1186,393.6588 A2.5,2.5 0 0 1 1183.5,396.1588 L794.5,396.1588 A2.5,2.5 0 0 1 792,393.6588 L792,243.9887 A2.5,2.5 0 0 1 794.5,241.4887 " fill="#DDDDDD" style="stroke:#000000;stroke-width:1.5;"/><line style="stroke:#000000;stroke-width:1.5;" x1="792" x2="910" y1="271.0434" y2="271.0434"/><text fill="#000000" font-family="sans-serif" font-size="20" font-weight="bold" lengthAdjust="spacing" textLength="105" x="796" y="262.8247">Controller</text></g><!--class PersistenceContext--><g id="elem_PersistenceContext"><rect codeLine="4" fill="#F1F1F1" height="73.5547" id="PersistenceContext" rx="2.5" ry="2.5" style="stroke:#181818;stroke-width:0.5;" width="425" x="776.5" y="495.1588"/><ellipse cx="893.5" cy="512.1588" fill="#ADD1B2" rx="12" ry="12" style="stroke:#181818;stroke-width:1.0;"/><path d="M896.3066,519.2388 Q895.623,519.5904 894.8711,519.7662 Q894.1191,519.942 893.2891,519.942 Q890.3398,519.942 888.7871,517.9986 Q887.2344,516.0552 887.2344,512.3834 Q887.2344,508.7017 888.7871,506.7584 Q890.3398,504.815 893.2891,504.815 Q894.1191,504.815 894.8809,504.9908 Q895.6426,505.1666 896.3066,505.5181 L896.3066,508.7213 Q895.5645,508.0377 894.8662,507.7203 Q894.168,507.4029 893.4258,507.4029 Q891.8438,507.4029 891.0381,508.6578 Q890.2324,509.9127 890.2324,512.3834 Q890.2324,514.8443 891.0381,516.0992 Q891.8438,517.3541 893.4258,517.3541 Q894.168,517.3541 894.8662,517.0367 Q895.5645,516.7193 896.3066,516.0357 Z " fill="#000000"/><text fill="#000000" font-family="sans-serif" font-size="20" lengthAdjust="spacing" textLength="182" x="915.5" y="519.7173">PersistenceContext</text><line style="stroke:#181818;stroke-width:0.5;" x1="777.5" x2="1200.5" y1="529.1588" y2="529.1588"/><line style="stroke:#181818;stroke-width:0.5;" x1="777.5" x2="1200.5" y1="537.1588" y2="537.1588"/><ellipse cx="787.5" cy="554.4361" fill="#84BE84" rx="3" ry="3" style="stroke:#038048;stroke-width:1.0;"/><text fill="#000000" font-family="sans-serif" font-size="20" lengthAdjust="spacing" textLength="398" x="797.5" y="560.4947">getRepositoryFactory(): RepositoryFactory</text></g><!--class JpaRepositoryFactory--><g id="elem_JpaRepositoryFactory"><rect codeLine="10" fill="#F1F1F1" height="97.1094" id="JpaRepositoryFactory" rx="2.5" ry="2.5" style="stroke:#181818;stroke-width:0.5;" width="333" x="1198.5" y="683.7088"/><ellipse cx="1260" cy="700.7088" fill="#ADD1B2" rx="12" ry="12" style="stroke:#181818;stroke-width:1.0;"/><path d="M1262.8066,707.7888 Q1262.123,708.1404 1261.3711,708.3162 Q1260.6191,708.492 1259.7891,708.492 Q1256.8398,708.492 1255.2871,706.5486 Q1253.7344,704.6052 1253.7344,700.9334 Q1253.7344,697.2517 1255.2871,695.3084 Q1256.8398,693.365 1259.7891,693.365 Q1260.6191,693.365 1261.3809,693.5408 Q1262.1426,693.7166 1262.8066,694.0681 L1262.8066,697.2713 Q1262.0645,696.5877 1261.3662,696.2703 Q1260.668,695.9529 1259.9258,695.9529 Q1258.3438,695.9529 1257.5381,697.2078 Q1256.7324,698.4627 1256.7324,700.9334 Q1256.7324,703.3943 1257.5381,704.6492 Q1258.3438,705.9041 1259.9258,705.9041 Q1260.668,705.9041 1261.3662,705.5867 Q1262.0645,705.2693 1262.8066,704.5857 Z " fill="#000000"/><text fill="#000000" font-family="sans-serif" font-size="20" lengthAdjust="spacing" textLength="201" x="1282" y="708.2673">JpaRepositoryFactory</text><line style="stroke:#181818;stroke-width:0.5;" x1="1199.5" x2="1530.5" y1="717.7088" y2="717.7088"/><line style="stroke:#181818;stroke-width:0.5;" x1="1199.5" x2="1530.5" y1="725.7088" y2="725.7088"/><rect fill="#F24D5C" height="6" style="stroke:#C82930;stroke-width:1.0;" width="6" x="1206.5" y="739.9861"/><text fill="#000000" font-family="sans-serif" font-size="20" lengthAdjust="spacing" textLength="215" x="1219.5" y="749.0447">JpaRepositoryFactory()</text><ellipse cx="1209.5" cy="766.5408" fill="#84BE84" rx="3" ry="3" style="stroke:#038048;stroke-width:1.0;"/><text fill="#000000" font-family="sans-serif" font-size="20" lengthAdjust="spacing" textLength="306" x="1219.5" y="772.5994">getInstance(): RepositoryFactory</text></g><!--class JpaFigureRepository--><g id="elem_JpaFigureRepository"><rect codeLine="15" fill="#F1F1F1" height="50" id="JpaFigureRepository" rx="2.5" ry="2.5" style="stroke:#181818;stroke-width:0.5;" width="226" x="1225" y="931.5988"/><ellipse cx="1241" cy="948.5988" fill="#ADD1B2" rx="12" ry="12" style="stroke:#181818;stroke-width:1.0;"/><path d="M1243.8066,955.6788 Q1243.123,956.0304 1242.3711,956.2062 Q1241.6191,956.382 1240.7891,956.382 Q1237.8398,956.382 1236.2871,954.4386 Q1234.7344,952.4952 1234.7344,948.8234 Q1234.7344,945.1417 1236.2871,943.1984 Q1237.8398,941.255 1240.7891,941.255 Q1241.6191,941.255 1242.3809,941.4308 Q1243.1426,941.6066 1243.8066,941.9581 L1243.8066,945.1613 Q1243.0645,944.4777 1242.3662,944.1603 Q1241.668,943.8429 1240.9258,943.8429 Q1239.3438,943.8429 1238.5381,945.0978 Q1237.7324,946.3527 1237.7324,948.8234 Q1237.7324,951.2843 1238.5381,952.5392 Q1239.3438,953.7941 1240.9258,953.7941 Q1241.668,953.7941 1242.3662,953.4767 Q1243.0645,953.1593 1243.8066,952.4757 Z " fill="#000000"/><text fill="#000000" font-family="sans-serif" font-size="20" lengthAdjust="spacing" textLength="192" x="1256" y="956.1573">JpaFigureRepository</text><line style="stroke:#181818;stroke-width:0.5;" x1="1226" x2="1450" y1="965.5988" y2="965.5988"/><line style="stroke:#181818;stroke-width:0.5;" x1="1226" x2="1450" y1="973.5988" y2="973.5988"/></g><!--class InMemoryRepositoryFactory--><g id="elem_InMemoryRepositoryFactory"><rect codeLine="21" fill="#F1F1F1" height="97.1094" id="InMemoryRepositoryFactory" rx="2.5" ry="2.5" style="stroke:#181818;stroke-width:0.5;" width="333" x="22.5" y="683.7088"/><ellipse cx="53.35" cy="700.7088" fill="#ADD1B2" rx="12" ry="12" style="stroke:#181818;stroke-width:1.0;"/><path d="M56.1566,707.7888 Q55.473,708.1404 54.7211,708.3162 Q53.9691,708.492 53.1391,708.492 Q50.1898,708.492 48.6371,706.5486 Q47.0844,704.6052 47.0844,700.9334 Q47.0844,697.2517 48.6371,695.3084 Q50.1898,693.365 53.1391,693.365 Q53.9691,693.365 54.7309,693.5408 Q55.4926,693.7166 56.1566,694.0681 L56.1566,697.2713 Q55.4145,696.5877 54.7162,696.2703 Q54.018,695.9529 53.2758,695.9529 Q51.6938,695.9529 50.8881,697.2078 Q50.0824,698.4627 50.0824,700.9334 Q50.0824,703.3943 50.8881,704.6492 Q51.6938,705.9041 53.2758,705.9041 Q54.018,705.9041 54.7162,705.5867 Q55.4145,705.2693 56.1566,704.5857 Z " fill="#000000"/><text fill="#000000" font-family="sans-serif" font-size="20" lengthAdjust="spacing" textLength="266" x="71.65" y="708.2673">InMemoryRepositoryFactory</text><line style="stroke:#181818;stroke-width:0.5;" x1="23.5" x2="354.5" y1="717.7088" y2="717.7088"/><line style="stroke:#181818;stroke-width:0.5;" x1="23.5" x2="354.5" y1="725.7088" y2="725.7088"/><rect fill="#F24D5C" height="6" style="stroke:#C82930;stroke-width:1.0;" width="6" x="30.5" y="739.9861"/><text fill="#000000" font-family="sans-serif" font-size="20" lengthAdjust="spacing" textLength="280" x="43.5" y="749.0447">InMemoryRepositoryFactory()</text><ellipse cx="33.5" cy="766.5408" fill="#84BE84" rx="3" ry="3" style="stroke:#038048;stroke-width:1.0;"/><text fill="#000000" font-family="sans-serif" font-size="20" lengthAdjust="spacing" textLength="306" x="43.5" y="772.5994">getInstance(): RepositoryFactory</text></g><!--class InMemoryFigureRepository--><g id="elem_InMemoryFigureRepository"><rect codeLine="26" fill="#F1F1F1" height="50" id="InMemoryFigureRepository" rx="2.5" ry="2.5" style="stroke:#181818;stroke-width:0.5;" width="291" x="58.5" y="931.5988"/><ellipse cx="74.5" cy="948.5988" fill="#ADD1B2" rx="12" ry="12" style="stroke:#181818;stroke-width:1.0;"/><path d="M77.3066,955.6788 Q76.623,956.0304 75.8711,956.2062 Q75.1191,956.382 74.2891,956.382 Q71.3398,956.382 69.7871,954.4386 Q68.2344,952.4952 68.2344,948.8234 Q68.2344,945.1417 69.7871,943.1984 Q71.3398,941.255 74.2891,941.255 Q75.1191,941.255 75.8809,941.4308 Q76.6426,941.6066 77.3066,941.9581 L77.3066,945.1613 Q76.5645,944.4777 75.8662,944.1603 Q75.168,943.8429 74.4258,943.8429 Q72.8438,943.8429 72.0381,945.0978 Q71.2324,946.3527 71.2324,948.8234 Q71.2324,951.2843 72.0381,952.5392 Q72.8438,953.7941 74.4258,953.7941 Q75.168,953.7941 75.8662,953.4767 Q76.5645,953.1593 77.3066,952.4757 Z " fill="#000000"/><text fill="#000000" font-family="sans-serif" font-size="20" lengthAdjust="spacing" textLength="257" x="89.5" y="956.1573">InMemoryFigureRepository</text><line style="stroke:#181818;stroke-width:0.5;" x1="59.5" x2="348.5" y1="965.5988" y2="965.5988"/><line style="stroke:#181818;stroke-width:0.5;" x1="59.5" x2="348.5" y1="973.5988" y2="973.5988"/></g><!--class Figure--><g id="elem_Figure"><rect codeLine="45" fill="#F1F1F1" height="120.2188" id="Figure" rx="2.5" ry="2.5" style="stroke:#181818;stroke-width:0.5;" width="210" x="723" y="1252.9288"/><ellipse cx="789" cy="1281.4834" fill="#ADD1B2" rx="12" ry="12" style="stroke:#181818;stroke-width:1.0;"/><path d="M791.8066,1288.5635 Q791.123,1288.9151 790.3711,1289.0909 Q789.6191,1289.2666 788.7891,1289.2666 Q785.8398,1289.2666 784.2871,1287.3233 Q782.7344,1285.3799 782.7344,1281.708 Q782.7344,1278.0264 784.2871,1276.083 Q785.8398,1274.1397 788.7891,1274.1397 Q789.6191,1274.1397 790.3809,1274.3155 Q791.1426,1274.4913 791.8066,1274.8428 L791.8066,1278.0459 Q791.0645,1277.3623 790.3662,1277.045 Q789.668,1276.7276 788.9258,1276.7276 Q787.3438,1276.7276 786.5381,1277.9825 Q785.7324,1279.2373 785.7324,1281.708 Q785.7324,1284.169 786.5381,1285.4239 Q787.3438,1286.6788 788.9258,1286.6788 Q789.668,1286.6788 790.3662,1286.3614 Q791.0645,1286.044 791.8066,1285.3604 Z " fill="#000000"/><text fill="#000000" font-family="sans-serif" font-size="20" font-style="italic" lengthAdjust="spacing" textLength="73" x="809" y="1277.2647">«Entity»</text><text fill="#000000" font-family="sans-serif" font-size="20" lengthAdjust="spacing" textLength="60" x="815.5" y="1300.8194">Figure</text><line style="stroke:#181818;stroke-width:0.5;" x1="724" x2="932" y1="1310.0381" y2="1310.0381"/><line style="stroke:#181818;stroke-width:0.5;" x1="724" x2="932" y1="1318.0381" y2="1318.0381"/><ellipse cx="734" cy="1335.3155" fill="#84BE84" rx="3" ry="3" style="stroke:#038048;stroke-width:1.0;"/><text fill="#000000" font-family="sans-serif" font-size="20" lengthAdjust="spacing" textLength="183" x="744" y="1341.3741">isPublic() : boolean</text><ellipse cx="734" cy="1358.8702" fill="#84BE84" rx="3" ry="3" style="stroke:#038048;stroke-width:1.0;"/><text fill="#000000" font-family="sans-serif" font-size="20" lengthAdjust="spacing" textLength="183" x="744" y="1364.9288">isActive() : boolean</text></g><!--class Code--><g id="elem_Code"><rect codeLine="50" fill="#F1F1F1" height="73.1094" id="Code" rx="2.5" ry="2.5" style="stroke:#181818;stroke-width:0.5;" width="172" x="436" y="1478.1488"/><ellipse cx="452" cy="1506.7034" fill="#ADD1B2" rx="12" ry="12" style="stroke:#181818;stroke-width:1.0;"/><path d="M454.8066,1513.7835 Q454.123,1514.1351 453.3711,1514.3109 Q452.6191,1514.4866 451.7891,1514.4866 Q448.8398,1514.4866 447.2871,1512.5433 Q445.7344,1510.5999 445.7344,1506.928 Q445.7344,1503.2464 447.2871,1501.303 Q448.8398,1499.3597 451.7891,1499.3597 Q452.6191,1499.3597 453.3809,1499.5355 Q454.1426,1499.7113 454.8066,1500.0628 L454.8066,1503.2659 Q454.0645,1502.5823 453.3662,1502.265 Q452.668,1501.9476 451.9258,1501.9476 Q450.3438,1501.9476 449.5381,1503.2025 Q448.7324,1504.4573 448.7324,1506.928 Q448.7324,1509.389 449.5381,1510.6439 Q450.3438,1511.8988 451.9258,1511.8988 Q452.668,1511.8988 453.3662,1511.5814 Q454.0645,1511.264 454.8066,1510.5804 Z " fill="#000000"/><text fill="#000000" font-family="sans-serif" font-size="20" font-style="italic" lengthAdjust="spacing" textLength="142" x="465" y="1502.4847">«Value Object»</text><text fill="#000000" font-family="sans-serif" font-size="20" lengthAdjust="spacing" textLength="50" x="511" y="1526.0394">Code</text><line style="stroke:#181818;stroke-width:0.5;" x1="437" x2="607" y1="1535.2581" y2="1535.2581"/><line style="stroke:#181818;stroke-width:0.5;" x1="437" x2="607" y1="1543.2581" y2="1543.2581"/></g><!--class Version--><g id="elem_Version"><rect codeLine="53" fill="#F1F1F1" height="73.1094" id="Version" rx="2.5" ry="2.5" style="stroke:#181818;stroke-width:0.5;" width="172" x="691" y="1478.1488"/><ellipse cx="707" cy="1506.7034" fill="#ADD1B2" rx="12" ry="12" style="stroke:#181818;stroke-width:1.0;"/><path d="M709.8066,1513.7835 Q709.123,1514.1351 708.3711,1514.3109 Q707.6191,1514.4866 706.7891,1514.4866 Q703.8398,1514.4866 702.2871,1512.5433 Q700.7344,1510.5999 700.7344,1506.928 Q700.7344,1503.2464 702.2871,1501.303 Q703.8398,1499.3597 706.7891,1499.3597 Q707.6191,1499.3597 708.3809,1499.5355 Q709.1426,1499.7113 709.8066,1500.0628 L709.8066,1503.2659 Q709.0645,1502.5823 708.3662,1502.265 Q707.668,1501.9476 706.9258,1501.9476 Q705.3438,1501.9476 704.5381,1503.2025 Q703.7324,1504.4573 703.7324,1506.928 Q703.7324,1509.389 704.5381,1510.6439 Q705.3438,1511.8988 706.9258,1511.8988 Q707.668,1511.8988 708.3662,1511.5814 Q709.0645,1511.264 709.8066,1510.5804 Z " fill="#000000"/><text fill="#000000" font-family="sans-serif" font-size="20" font-style="italic" lengthAdjust="spacing" textLength="142" x="720" y="1502.4847">«Value Object»</text><text fill="#000000" font-family="sans-serif" font-size="20" lengthAdjust="spacing" textLength="72" x="755" y="1526.0394">Version</text><line style="stroke:#181818;stroke-width:0.5;" x1="692" x2="862" y1="1535.2581" y2="1535.2581"/><line style="stroke:#181818;stroke-width:0.5;" x1="692" x2="862" y1="1543.2581" y2="1543.2581"/></g><!--class Description--><g id="elem_Description"><rect codeLine="56" fill="#F1F1F1" height="73.1094" id="Description" rx="2.5" ry="2.5" style="stroke:#181818;stroke-width:0.5;" width="172" x="946" y="1478.1488"/><ellipse cx="962" cy="1506.7034" fill="#ADD1B2" rx="12" ry="12" style="stroke:#181818;stroke-width:1.0;"/><path d="M964.8066,1513.7835 Q964.123,1514.1351 963.3711,1514.3109 Q962.6191,1514.4866 961.7891,1514.4866 Q958.8398,1514.4866 957.2871,1512.5433 Q955.7344,1510.5999 955.7344,1506.928 Q955.7344,1503.2464 957.2871,1501.303 Q958.8398,1499.3597 961.7891,1499.3597 Q962.6191,1499.3597 963.3809,1499.5355 Q964.1426,1499.7113 964.8066,1500.0628 L964.8066,1503.2659 Q964.0645,1502.5823 963.3662,1502.265 Q962.668,1501.9476 961.9258,1501.9476 Q960.3438,1501.9476 959.5381,1503.2025 Q958.7324,1504.4573 958.7324,1506.928 Q958.7324,1509.389 959.5381,1510.6439 Q960.3438,1511.8988 961.9258,1511.8988 Q962.668,1511.8988 963.3662,1511.5814 Q964.0645,1511.264 964.8066,1510.5804 Z " fill="#000000"/><text fill="#000000" font-family="sans-serif" font-size="20" font-style="italic" lengthAdjust="spacing" textLength="142" x="975" y="1502.4847">«Value Object»</text><text fill="#000000" font-family="sans-serif" font-size="20" lengthAdjust="spacing" textLength="110" x="991" y="1526.0394">Description</text><line style="stroke:#181818;stroke-width:0.5;" x1="947" x2="1117" y1="1535.2581" y2="1535.2581"/><line style="stroke:#181818;stroke-width:0.5;" x1="947" x2="1117" y1="1543.2581" y2="1543.2581"/></g><!--class RepositoryFactory--><g id="elem_RepositoryFactory"><rect codeLine="34" fill="#F1F1F1" height="73.5547" id="RepositoryFactory" rx="2.5" ry="2.5" style="stroke:#181818;stroke-width:0.5;" width="407" x="642.5" y="919.8188"/><ellipse cx="756" cy="936.8188" fill="#B4A7E5" rx="12" ry="12" style="stroke:#181818;stroke-width:1.0;"/><path d="M751.6797,932.2777 L751.6797,929.7387 L760.3613,929.7387 L760.3613,932.2777 L757.4609,932.2777 L757.4609,941.7797 L760.3613,941.7797 L760.3613,944.3188 L751.6797,944.3188 L751.6797,941.7797 L754.5801,941.7797 L754.5801,932.2777 Z " fill="#000000"/><text fill="#000000" font-family="sans-serif" font-size="20" font-style="italic" lengthAdjust="spacing" textLength="171" x="778" y="944.3773">RepositoryFactory</text><line style="stroke:#181818;stroke-width:0.5;" x1="643.5" x2="1048.5" y1="953.8188" y2="953.8188"/><line style="stroke:#181818;stroke-width:0.5;" x1="643.5" x2="1048.5" y1="961.8188" y2="961.8188"/><ellipse cx="653.5" cy="979.0961" fill="#84BE84" rx="3" ry="3" style="stroke:#038048;stroke-width:1.0;"/><text fill="#000000" font-family="sans-serif" font-size="20" lengthAdjust="spacing" textLength="380" x="663.5" y="985.1547">getFigureRepository(): FigureRepository</text></g><!--class FigureRepository--><g id="elem_FigureRepository"><rect codeLine="38" fill="#F1F1F1" height="73.5547" id="FigureRepository" rx="2.5" ry="2.5" style="stroke:#181818;stroke-width:0.5;" width="369" x="661.5" y="1054.3788"/><ellipse cx="760.5" cy="1071.3788" fill="#B4A7E5" rx="12" ry="12" style="stroke:#181818;stroke-width:1.0;"/><path d="M756.1797,1066.8377 L756.1797,1064.2987 L764.8613,1064.2987 L764.8613,1066.8377 L761.9609,1066.8377 L761.9609,1076.3397 L764.8613,1076.3397 L764.8613,1078.8788 L756.1797,1078.8788 L756.1797,1076.3397 L759.0801,1076.3397 L759.0801,1066.8377 Z " fill="#000000"/><text fill="#000000" font-family="sans-serif" font-size="20" font-style="italic" lengthAdjust="spacing" textLength="162" x="782.5" y="1078.9373">FigureRepository</text><line style="stroke:#181818;stroke-width:0.5;" x1="662.5" x2="1029.5" y1="1088.3788" y2="1088.3788"/><line style="stroke:#181818;stroke-width:0.5;" x1="662.5" x2="1029.5" y1="1096.3788" y2="1096.3788"/><ellipse cx="672.5" cy="1113.6561" fill="#84BE84" rx="3" ry="3" style="stroke:#038048;stroke-width:1.0;"/><text fill="#000000" font-family="sans-serif" font-size="20" lengthAdjust="spacing" textLength="342" x="682.5" y="1119.7147">getPublicCatalogue() : List&lt;Figure&gt;</text></g><!--class ListPublicCatalogueUI--><g id="elem_ListPublicCatalogueUI"><rect codeLine="62" fill="#F1F1F1" height="143.7734" id="ListPublicCatalogueUI" rx="2.5" ry="2.5" style="stroke:#181818;stroke-width:0.5;" width="347" x="815.5" y="48.7188"/><ellipse cx="880.5" cy="77.2734" fill="#ADD1B2" rx="12" ry="12" style="stroke:#181818;stroke-width:1.0;"/><path d="M883.3066,84.3535 Q882.623,84.7051 881.8711,84.8809 Q881.1191,85.0566 880.2891,85.0566 Q877.3398,85.0566 875.7871,83.1133 Q874.2344,81.1699 874.2344,77.498 Q874.2344,73.8164 875.7871,71.873 Q877.3398,69.9297 880.2891,69.9297 Q881.1191,69.9297 881.8809,70.1055 Q882.6426,70.2813 883.3066,70.6328 L883.3066,73.8359 Q882.5645,73.1523 881.8662,72.835 Q881.168,72.5176 880.4258,72.5176 Q878.8438,72.5176 878.0381,73.7725 Q877.2324,75.0273 877.2324,77.498 Q877.2324,79.959 878.0381,81.2139 Q878.8438,82.4688 880.4258,82.4688 Q881.168,82.4688 881.8662,82.1514 Q882.5645,81.834 883.3066,81.1504 Z " fill="#000000"/><text fill="#000000" font-family="sans-serif" font-size="20" font-style="italic" lengthAdjust="spacing" textLength="40" x="986.5" y="73.0547">«UI»</text><text fill="#000000" font-family="sans-serif" font-size="20" lengthAdjust="spacing" textLength="208" x="902.5" y="96.6094">ListPublicCatalogueUI</text><line style="stroke:#181818;stroke-width:0.5;" x1="816.5" x2="1161.5" y1="105.8281" y2="105.8281"/><line style="stroke:#181818;stroke-width:0.5;" x1="816.5" x2="1161.5" y1="113.8281" y2="113.8281"/><ellipse cx="826.5" cy="131.1055" fill="#84BE84" rx="3" ry="3" style="stroke:#038048;stroke-width:1.0;"/><text fill="#000000" font-family="sans-serif" font-size="20" lengthAdjust="spacing" textLength="278" x="836.5" y="137.1641">elements(): Iterable&lt;Figure&gt;</text><ellipse cx="826.5" cy="154.6602" fill="#84BE84" rx="3" ry="3" style="stroke:#038048;stroke-width:1.0;"/><text fill="#000000" font-family="sans-serif" font-size="20" lengthAdjust="spacing" textLength="320" x="836.5" y="160.7188">elementPrinter(): Visitor&lt;Figure&gt;</text><ellipse cx="826.5" cy="178.2148" fill="#84BE84" rx="3" ry="3" style="stroke:#038048;stroke-width:1.0;"/><text fill="#000000" font-family="sans-serif" font-size="20" lengthAdjust="spacing" textLength="89" x="836.5" y="184.2734">doShow()</text></g><!--class ListPublicCatalogueController--><g id="elem_ListPublicCatalogueController"><rect codeLine="70" fill="#F1F1F1" height="96.6641" id="ListPublicCatalogueController" rx="2.5" ry="2.5" style="stroke:#181818;stroke-width:0.5;" width="362" x="808" y="283.4888"/><ellipse cx="843.8" cy="312.0434" fill="#ADD1B2" rx="12" ry="12" style="stroke:#181818;stroke-width:1.0;"/><path d="M846.6066,319.1235 Q845.923,319.4751 845.1711,319.6509 Q844.4191,319.8266 843.5891,319.8266 Q840.6398,319.8266 839.0871,317.8833 Q837.5344,315.9399 837.5344,312.268 Q837.5344,308.5864 839.0871,306.643 Q840.6398,304.6997 843.5891,304.6997 Q844.4191,304.6997 845.1809,304.8755 Q845.9426,305.0513 846.6066,305.4028 L846.6066,308.6059 Q845.8645,307.9223 845.1662,307.605 Q844.468,307.2876 843.7258,307.2876 Q842.1438,307.2876 841.3381,308.5425 Q840.5324,309.7973 840.5324,312.268 Q840.5324,314.729 841.3381,315.9839 Q842.1438,317.2388 843.7258,317.2388 Q844.468,317.2388 845.1662,316.9214 Q845.8645,316.604 846.6066,315.9204 Z " fill="#000000"/><text fill="#000000" font-family="sans-serif" font-size="20" font-style="italic" lengthAdjust="spacing" textLength="116" x="947.2" y="307.8247">«Controller»</text><text fill="#000000" font-family="sans-serif" font-size="20" lengthAdjust="spacing" textLength="284" x="863.2" y="331.3794">ListPublicCatalogueController</text><line style="stroke:#181818;stroke-width:0.5;" x1="809" x2="1169" y1="340.5981" y2="340.5981"/><line style="stroke:#181818;stroke-width:0.5;" x1="809" x2="1169" y1="348.5981" y2="348.5981"/><ellipse cx="819" cy="365.8755" fill="#84BE84" rx="3" ry="3" style="stroke:#038048;stroke-width:1.0;"/><text fill="#000000" font-family="sans-serif" font-size="20" lengthAdjust="spacing" textLength="335" x="829" y="371.9341">listPublicCatalogue(): List&lt;Figure&gt;</text></g><!--link PersistenceContext to RepositoryFactory--><g id="link_PersistenceContext_RepositoryFactory"><path codeLine="78" d="M980.54,568.8388 C976.25,586.1388 970.75,607.1088 965,625.7088 C932.61,730.5288 886.86,851.2188 862.61,913.5188 " fill="none" id="PersistenceContext-to-RepositoryFactory" style="stroke:#181818;stroke-width:1.0;stroke-dasharray:7.0,7.0;"/><polygon fill="#181818" points="860.88,917.9488,867.867,911.0074,862.6902,913.2879,860.4096,908.1111,860.88,917.9488" style="stroke:#181818;stroke-width:1.0;"/><text fill="#000000" font-family="sans-serif" font-size="20" lengthAdjust="spacing" textLength="172" x="962" y="740.1047">figureRepository()</text></g><!--link PersistenceContext to JpaRepositoryFactory--><g id="link_PersistenceContext_JpaRepositoryFactory"><path codeLine="79" d="M1057.53,569.0788 C1116.55,600.2188 1202.41,645.4988 1268.41,680.3188 " fill="none" id="PersistenceContext-to-JpaRepositoryFactory" style="stroke:#181818;stroke-width:1.0;stroke-dasharray:7.0,7.0;"/><polygon fill="#181818" points="1272.58,682.5188,1266.4756,674.7898,1268.1545,680.1918,1262.7525,681.8706,1272.58,682.5188" style="stroke:#181818;stroke-width:1.0;"/></g><!--link PersistenceContext to InMemoryRepositoryFactory--><g id="link_PersistenceContext_InMemoryRepositoryFactory"><path codeLine="80" d="M973.6,568.9588 C963.13,588.9488 947.3,612.4088 926,625.7088 C834.6,682.7888 549.64,710.2988 362.01,722.5388 " fill="none" id="PersistenceContext-to-InMemoryRepositoryFactory" style="stroke:#181818;stroke-width:1.0;stroke-dasharray:7.0,7.0;"/><polygon fill="#181818" points="357.16,722.8488,366.4036,726.2483,362.1492,722.52,365.8775,718.2656,357.16,722.8488" style="stroke:#181818;stroke-width:1.0;"/></g><!--link JpaFigureRepository to FigureRepository--><g id="link_JpaFigureRepository_FigureRepository"><path codeLine="85" d="M1247.19,982.0688 C1178.35,1000.6088 1082.11,1026.5388 1001.15,1048.3488 " fill="none" id="JpaFigureRepository-to-FigureRepository" style="stroke:#181818;stroke-width:1.0;"/><polygon fill="none" points="1002.98,1055.1088,981.84,1053.5488,999.33,1041.5888,1002.98,1055.1088" style="stroke:#181818;stroke-width:1.0;"/></g><!--link JpaRepositoryFactory to RepositoryFactory--><g id="link_JpaRepositoryFactory_RepositoryFactory"><path codeLine="88" d="M1253.02,781.2388 C1163.08,819.7688 1037.73,873.4588 949.98,911.0588 " fill="none" id="JpaRepositoryFactory-to-RepositoryFactory" style="stroke:#181818;stroke-width:1.0;stroke-dasharray:7.0,7.0;"/><polygon fill="none" points="953,917.3788,931.86,918.8188,947.49,904.5088,953,917.3788" style="stroke:#181818;stroke-width:1.0;"/></g><!--link JpaRepositoryFactory to JpaFigureRepository--><g id="link_JpaRepositoryFactory_JpaFigureRepository"><path codeLine="89" d="M1359.17,781.2388 C1353.87,824.9188 1346.2,888.0988 1341.69,925.1988 " fill="none" id="JpaRepositoryFactory-to-JpaFigureRepository" style="stroke:#181818;stroke-width:1.0;stroke-dasharray:7.0,7.0;"/><polygon fill="#181818" points="1341.12,929.8688,1346.1964,921.429,1341.7349,924.9067,1338.2572,920.4452,1341.12,929.8688" style="stroke:#181818;stroke-width:1.0;"/></g><!--link InMemoryFigureRepository to FigureRepository--><g id="link_InMemoryFigureRepository_FigureRepository"><path codeLine="94" d="M322.5,982.0688 C413.96,1000.9488 542.48,1027.4788 649.28,1049.5388 " fill="none" id="InMemoryFigureRepository-to-FigureRepository" style="stroke:#181818;stroke-width:1.0;stroke-dasharray:7.0,7.0;"/><polygon fill="none" points="650.69,1042.6788,668.86,1053.5788,647.86,1056.3888,650.69,1042.6788" style="stroke:#181818;stroke-width:1.0;"/></g><!--link InMemoryRepositoryFactory to RepositoryFactory--><g id="link_InMemoryRepositoryFactory_RepositoryFactory"><path codeLine="97" d="M330.75,781.2388 C446.08,820.2588 607.39,874.8488 718.65,912.4988 " fill="none" id="InMemoryRepositoryFactory-to-RepositoryFactory" style="stroke:#181818;stroke-width:1.0;stroke-dasharray:7.0,7.0;"/><polygon fill="none" points="720.68,905.7988,737.38,918.8388,716.19,919.0588,720.68,905.7988" style="stroke:#181818;stroke-width:1.0;"/></g><!--link InMemoryRepositoryFactory to InMemoryFigureRepository--><g id="link_InMemoryRepositoryFactory_InMemoryFigureRepository"><path codeLine="98" d="M192.24,781.2388 C195.18,824.9188 199.45,888.0988 201.95,925.1988 " fill="none" id="InMemoryRepositoryFactory-to-InMemoryFigureRepository" style="stroke:#181818;stroke-width:1.0;stroke-dasharray:7.0,7.0;"/><polygon fill="#181818" points="202.26,929.8588,205.6331,920.6055,201.917,924.8705,197.652,921.1544,202.26,929.8588" style="stroke:#181818;stroke-width:1.0;"/></g><!--link FigureRepository to Figure--><g id="link_FigureRepository_Figure"><path codeLine="103" d="M843.07,1127.9688 C840.45,1159.9688 836.55,1207.6488 833.37,1246.4588 " fill="none" id="FigureRepository-to-Figure" style="stroke:#181818;stroke-width:1.0;stroke-dasharray:7.0,7.0;"/><polygon fill="#181818" points="832.99,1251.0988,837.6969,1242.4475,833.3899,1246.1148,829.7226,1241.8077,832.99,1251.0988" style="stroke:#181818;stroke-width:1.0;"/></g><!--link RepositoryFactory to FigureRepository--><g id="link_RepositoryFactory_FigureRepository"><path codeLine="106" d="M846,993.8188 C846,1010.4788 846,1030.3488 846,1047.7088 " fill="none" id="RepositoryFactory-to-FigureRepository" style="stroke:#181818;stroke-width:1.0;stroke-dasharray:7.0,7.0;"/><polygon fill="#181818" points="846,1052.4588,850,1043.4588,846,1047.4588,842,1043.4588,846,1052.4588" style="stroke:#181818;stroke-width:1.0;"/></g><!--link Figure to Code--><g id="link_Figure_Code"><path codeLine="111" d="M737.02,1373.3888 C686.74,1406.1888 625.7,1445.9988 581.53,1474.8188 " fill="none" id="Figure-to-Code" style="stroke:#181818;stroke-width:1.0;"/><polygon fill="#181818" points="577.49,1477.4488,587.2126,1475.8767,581.6764,1474.7148,582.8383,1469.1786,577.49,1477.4488" style="stroke:#181818;stroke-width:1.0;"/><text fill="#000000" font-family="sans-serif" font-size="20" lengthAdjust="spacing" textLength="46" x="685" y="1423.4847">code</text><text fill="#000000" font-family="sans-serif" font-size="20" lengthAdjust="spacing" textLength="13" x="572.0184" y="1465.8297">1</text></g><!--link Figure to Version--><g id="link_Figure_Version"><path codeLine="112" d="M812.84,1373.3888 C804.73,1405.1188 794.94,1443.4188 787.65,1471.9688 " fill="none" id="Figure-to-Version" style="stroke:#181818;stroke-width:1.0;"/><polygon fill="#181818" points="786.41,1476.8088,792.4948,1469.0644,787.6361,1471.9614,784.7391,1467.1027,786.41,1476.8088" style="stroke:#181818;stroke-width:1.0;"/><text fill="#000000" font-family="sans-serif" font-size="20" lengthAdjust="spacing" textLength="69" x="805" y="1423.4847">version</text><text fill="#000000" font-family="sans-serif" font-size="20" lengthAdjust="spacing" textLength="13" x="773.5083" y="1465.8297">1</text></g><!--link Figure to Description--><g id="link_Figure_Description"><path codeLine="113" d="M888.65,1373.3888 C921.77,1405.7888 961.87,1445.0288 991.23,1473.7588 " fill="none" id="Figure-to-Description" style="stroke:#181818;stroke-width:1.0;"/><polygon fill="#181818" points="994.77,1477.2188,991.1418,1468.0625,991.1989,1473.7191,985.5424,1473.7762,994.77,1477.2188" style="stroke:#181818;stroke-width:1.0;"/><text fill="#000000" font-family="sans-serif" font-size="20" lengthAdjust="spacing" textLength="108" x="943" y="1423.4847">description</text><text fill="#000000" font-family="sans-serif" font-size="20" lengthAdjust="spacing" textLength="13" x="974.9864" y="1465.8297">1</text></g><!--link ListPublicCatalogueUI to ListPublicCatalogueController--><g id="link_ListPublicCatalogueUI_ListPublicCatalogueController"><path codeLine="118" d="M989,192.7288 C989,220.2487 989,251.2288 989,276.8588 " fill="none" id="ListPublicCatalogueUI-to-ListPublicCatalogueController" style="stroke:#181818;stroke-width:1.0;stroke-dasharray:7.0,7.0;"/><polygon fill="#181818" points="989,281.7388,993,272.7388,989,276.7388,985,272.7388,989,281.7388" style="stroke:#181818;stroke-width:1.0;"/></g><!--link ListPublicCatalogueController to PersistenceContext--><g id="link_ListPublicCatalogueController_PersistenceContext"><path codeLine="123" d="M989,380.5288 C989,413.4788 989,456.9088 989,488.6288 " fill="none" id="ListPublicCatalogueController-to-PersistenceContext" style="stroke:#181818;stroke-width:1.0;stroke-dasharray:7.0,7.0;"/><polygon fill="#181818" points="989,493.2988,993,484.2988,989,488.2988,985,484.2988,989,493.2988" style="stroke:#181818;stroke-width:1.0;"/><text fill="#000000" font-family="sans-serif" font-size="20" lengthAdjust="spacing" textLength="215" x="990" y="432.4947">getRepositoryFactory()</text></g><!--link ListPublicCatalogueController to RepositoryFactory--><g id="link_ListPublicCatalogueController_RepositoryFactory"><path codeLine="124" d="M835.27,380.5688 C805.89,396.5588 778.55,417.6088 760,445.1588 C659.82,593.9188 768.1,820.9488 820.7,913.8088 " fill="none" id="ListPublicCatalogueController-to-RepositoryFactory" style="stroke:#181818;stroke-width:1.0;stroke-dasharray:7.0,7.0;"/><polygon fill="#181818" points="823.18,918.1488,822.1808,908.3507,820.6962,913.8093,815.2377,912.3247,823.18,918.1488" style="stroke:#181818;stroke-width:1.0;"/><text fill="#000000" font-family="sans-serif" font-size="20" lengthAdjust="spacing" textLength="206" x="721" y="621.0447">getFigureRepository()</text></g><!--link ListPublicCatalogueController to FigureRepository--><g id="link_ListPublicCatalogueController_FigureRepository"><path codeLine="125" d="M1170.43,355.7888 C1351.19,383.8788 1602,439.3588 1602,530.9388 C1602,530.9388 1602,530.9388 1602,957.5988 C1602,989.7088 1577.28,992.4088 1548,1005.5988 C1459.62,1045.4088 1213.14,1068.2788 1037.24,1079.9588 " fill="none" id="ListPublicCatalogueController-to-FigureRepository" style="stroke:#181818;stroke-width:1.0;stroke-dasharray:7.0,7.0;"/><polygon fill="#181818" points="1032.27,1080.2888,1041.5129,1083.69,1037.2592,1079.9609,1040.9883,1075.7072,1032.27,1080.2888" style="stroke:#181818;stroke-width:1.0;"/><text fill="#000000" font-family="sans-serif" font-size="20" lengthAdjust="spacing" textLength="198" x="1603" y="740.1047">getPublicCatalogue()</text></g><!--SRC=[fLR1Zfim4Btp5LPws5rLGMsFABAqIXg9gbMZhh9tXqoeDyP6u6ntsys_roQ463n6gSeX1EPvvZrx_4ozvx9a5Ik4olQm9LlOiOFGIoNr0_yDvDE7g0PDQh0WhIeYbOGeAbcsPpcGoGggcjSQP6OUoBj5Sv4_4J5N9bXT4mSnDrdXHRTXUxqdEUWVKAgQc-IlIvRPs-rTGhoNpPXZT7IAbvVKCIzA4J-L32VnfMHUGeV650NStlLvfhBMpDGQezUlkUJveO8BjYrfOACok2oWC71SIog_DT5nGK7KVwewvmrASvKjLC6uT6Kqe2xk3FT0zkAcNweTCxqr9hQJCkHa9GtVTQEEM9c0gbwLrM4ZU3PdcWcL7yoyaOHyDUitEmscmmhjxUOK9lTvNa7ED3YJsePciyzIS_rAgRj3U7sgs1JQA2M0oLxuFjFy6RnmRzdcQclpFp9n0F9zymIPFbVfuHvjBofv3NG1TLRnKe_2tMvOftX3syaRJEewDIdNAQKzhm011KXTstLDpPAnZG1lrZlOgchMrO8VURES27Qh7dwgN-sUw3UlTQjA2G7LrRGlGmpzoyD0Xl07Mf9U3pLqRXp_R1i9STGf9IzD48d5CVMtJq9stcOPIu3vunW-Q3z64MRRhJJCCpjjQ73wHlqztYNpRSFDvaVZ-8q6N320fnWjJEJPr5joGH_j20OH3Sc0vl3XuENz9_LZWsYGgfa7Zs5OC28qFWjj1u_8mfaXZ4w7Kj-K1nnCMr4o-JXfR3CXcVd5egrP9kJvz0V3E2wPcA-hxi4GMQSj2Tm0EqvusAeRjI1JmNq8LN8yQwoY0xELaMsV1Bxbhipehr-2d-bNvlEwAK4FxoZw2m00]--></g></svg>