<?xml version="1.0" encoding="UTF-8" standalone="no"?><svg xmlns="http://www.w3.org/2000/svg" xmlns:xlink="http://www.w3.org/1999/xlink" contentStyleType="text/css" height="1554px" preserveAspectRatio="none" style="width:1600px;height:1554px;background:#FFFFFF;" version="1.1" viewBox="0 0 1600 1554" width="1600px" zoomAndPan="magnify"><defs/><g><!--cluster Persistence --><g id="cluster_Persistence "><path d="M608.5,420.8945 L726.5,420.8945 A3.75,3.75 0 0 1 729,423.3945 L736,452.0508 L1041.5,452.0508 A2.5,2.5 0 0 1 1044,454.5508 L1044,554.3945 A2.5,2.5 0 0 1 1041.5,556.8945 L608.5,556.8945 A2.5,2.5 0 0 1 606,554.3945 L606,423.3945 A2.5,2.5 0 0 1 608.5,420.8945 " fill="#DDDDDD" style="stroke:#000000;stroke-width:1.5;"/><line style="stroke:#000000;stroke-width:1.5;" x1="606" x2="736" y1="452.0508" y2="452.0508"/><text fill="#000000" font-family="sans-serif" font-size="20" font-weight="bold" lengthAdjust="spacing" textLength="111" x="610" y="443.6563">Persistence</text></g><!--cluster persistence.impl.jpa--><g id="cluster_persistence.impl.jpa"><path d="M1006.5,615.8945 L1196.5,615.8945 A3.75,3.75 0 0 1 1199,618.3945 L1206,647.0508 L1351.5,647.0508 A2.5,2.5 0 0 1 1354,649.5508 L1354,980.8945 A2.5,2.5 0 0 1 1351.5,983.3945 L1006.5,983.3945 A2.5,2.5 0 0 1 1004,980.8945 L1004,618.3945 A2.5,2.5 0 0 1 1006.5,615.8945 " fill="#DDDDDD" style="stroke:#000000;stroke-width:1.5;"/><line style="stroke:#000000;stroke-width:1.5;" x1="1004" x2="1206" y1="647.0508" y2="647.0508"/><text fill="#000000" font-family="sans-serif" font-size="20" font-weight="bold" lengthAdjust="spacing" textLength="189" x="1008" y="638.6563">persistence.impl.jpa</text></g><!--cluster persistence.impl.inmemory--><g id="cluster_persistence.impl.inmemory"><path d="M8.5,615.8945 L263.5,615.8945 A3.75,3.75 0 0 1 266,618.3945 L273,647.0508 L353.5,647.0508 A2.5,2.5 0 0 1 356,649.5508 L356,980.8945 A2.5,2.5 0 0 1 353.5,983.3945 L8.5,983.3945 A2.5,2.5 0 0 1 6,980.8945 L6,618.3945 A2.5,2.5 0 0 1 8.5,615.8945 " fill="#DDDDDD" style="stroke:#000000;stroke-width:1.5;"/><line style="stroke:#000000;stroke-width:1.5;" x1="6" x2="273" y1="647.0508" y2="647.0508"/><text fill="#000000" font-family="sans-serif" font-size="20" font-weight="bold" lengthAdjust="spacing" textLength="254" x="10" y="638.6563">persistence.impl.inmemory</text></g><!--cluster Domain--><g id="cluster_Domain"><path d="M382.5,807.8945 L454.5,807.8945 A3.75,3.75 0 0 1 457,810.3945 L464,839.0508 L977.5,839.0508 A2.5,2.5 0 0 1 980,841.5508 L980,1545.3945 A2.5,2.5 0 0 1 977.5,1547.8945 L382.5,1547.8945 A2.5,2.5 0 0 1 380,1545.3945 L380,810.3945 A2.5,2.5 0 0 1 382.5,807.8945 " fill="#DDDDDD" style="stroke:#000000;stroke-width:1.5;"/><line style="stroke:#000000;stroke-width:1.5;" x1="380" x2="464" y1="839.0508" y2="839.0508"/><text fill="#000000" font-family="sans-serif" font-size="20" font-weight="bold" lengthAdjust="spacing" textLength="71" x="384" y="830.6563">Domain</text></g><!--cluster Repository --><g id="cluster_Repository "><path d="M510.5,859.8945 L620.5,859.8945 A3.75,3.75 0 0 1 623,862.3945 L630,891.0508 L919.5,891.0508 A2.5,2.5 0 0 1 922,893.5508 L922,1130.3945 A2.5,2.5 0 0 1 919.5,1132.8945 L510.5,1132.8945 A2.5,2.5 0 0 1 508,1130.3945 L508,862.3945 A2.5,2.5 0 0 1 510.5,859.8945 " fill="#DDDDDD" style="stroke:#000000;stroke-width:1.5;"/><line style="stroke:#000000;stroke-width:1.5;" x1="508" x2="630" y1="891.0508" y2="891.0508"/><text fill="#000000" font-family="sans-serif" font-size="20" font-weight="bold" lengthAdjust="spacing" textLength="103" x="512" y="882.6563">Repository</text></g><!--cluster UI--><g id="cluster_UI"><path d="M698.5,6.8945 L718.5,6.8945 A3.75,3.75 0 0 1 721,9.3945 L728,38.0508 L951.5,38.0508 A2.5,2.5 0 0 1 954,40.5508 L954,165.3945 A2.5,2.5 0 0 1 951.5,167.8945 L698.5,167.8945 A2.5,2.5 0 0 1 696,165.3945 L696,9.3945 A2.5,2.5 0 0 1 698.5,6.8945 " fill="#DDDDDD" style="stroke:#000000;stroke-width:1.5;"/><line style="stroke:#000000;stroke-width:1.5;" x1="696" x2="728" y1="38.0508" y2="38.0508"/><text fill="#000000" font-family="sans-serif" font-size="20" font-weight="bold" lengthAdjust="spacing" textLength="19" x="700" y="29.6563">UI</text></g><!--cluster Controller--><g id="cluster_Controller"><path d="M647.5,200.8945 L742.5,200.8945 A3.75,3.75 0 0 1 745,203.3945 L752,232.0508 L1002.5,232.0508 A2.5,2.5 0 0 1 1005,234.5508 L1005,359.3945 A2.5,2.5 0 0 1 1002.5,361.8945 L647.5,361.8945 A2.5,2.5 0 0 1 645,359.3945 L645,203.3945 A2.5,2.5 0 0 1 647.5,200.8945 " fill="#DDDDDD" style="stroke:#000000;stroke-width:1.5;"/><line style="stroke:#000000;stroke-width:1.5;" x1="645" x2="752" y1="232.0508" y2="232.0508"/><text fill="#000000" font-family="sans-serif" font-size="20" font-weight="bold" lengthAdjust="spacing" textLength="94" x="649" y="223.6563">Controller</text></g><!--class PersistenceContext--><g id="elem_PersistenceContext"><rect codeLine="4" fill="#F1F1F1" height="76.3125" id="PersistenceContext" rx="2.5" ry="2.5" style="stroke:#181818;stroke-width:0.5;" width="405" x="622.5" y="464.8945"/><ellipse cx="735.5" cy="482.4727" fill="#ADD1B2" rx="12" ry="12" style="stroke:#181818;stroke-width:1.0;"/><path d="M737.6406,477.3945 Q737.8281,477.1445 738.0469,477.0195 Q738.2656,476.8789 738.5156,476.8789 Q738.9531,476.8789 739.2344,477.1914 Q739.5156,477.4883 739.5156,478.207 L739.5156,479.9102 Q739.5156,480.6289 739.2344,480.9414 Q738.9531,481.2539 738.5156,481.2539 Q738.125,481.2539 737.875,481.0195 Q737.625,480.8008 737.5156,480.1914 Q737.4531,479.7695 737.2344,479.5508 Q736.8438,479.1133 736.125,478.8477 Q735.4063,478.582 734.6875,478.582 Q733.7813,478.582 733.0313,478.9727 Q732.2813,479.3633 731.7031,480.2539 Q731.125,481.1289 731.125,482.332 L731.125,483.6289 Q731.125,485.082 732.1719,486.0508 Q733.2344,487.0195 735.0938,487.0195 Q736.2031,487.0195 736.9844,486.707 Q737.4219,486.5352 737.9375,486.0195 Q738.25,485.707 738.4219,485.6133 Q738.5938,485.5195 738.8281,485.5195 Q739.2188,485.5195 739.5156,485.832 Q739.8281,486.1289 739.8281,486.5352 Q739.8281,486.9414 739.4219,487.4102 Q738.8281,488.0977 737.8906,488.4883 Q736.625,489.0195 735.1094,489.0195 Q733.3281,489.0195 731.9063,488.2852 Q730.75,487.6914 729.9375,486.4258 Q729.125,485.1602 729.125,483.6758 L729.125,482.3164 Q729.125,480.7539 729.8438,479.4102 Q730.5781,478.0508 731.8594,477.3164 Q733.1563,476.582 734.6094,476.582 Q735.4688,476.582 736.2188,476.7852 Q736.9844,476.9883 737.6406,477.3945 Z " fill="#000000"/><text fill="#000000" font-family="sans-serif" font-size="20" lengthAdjust="spacing" textLength="170" x="757.5" y="490.6563">PersistenceContext</text><line style="stroke:#181818;stroke-width:0.5;" x1="623.5" x2="1026.5" y1="500.0508" y2="500.0508"/><line style="stroke:#181818;stroke-width:0.5;" x1="623.5" x2="1026.5" y1="508.0508" y2="508.0508"/><ellipse cx="633.5" cy="526.1289" fill="#84BE84" rx="3" ry="3" style="stroke:#038048;stroke-width:1.0;"/><text fill="#000000" font-family="sans-serif" font-size="20" lengthAdjust="spacing" textLength="378" x="643.5" y="532.8125">getRepositoryFactory(): RepositoryFactory</text></g><!--class JpaRepositoryFactory--><g id="elem_JpaRepositoryFactory"><rect codeLine="10" fill="#F1F1F1" height="101.4688" id="JpaRepositoryFactory" rx="2.5" ry="2.5" style="stroke:#181818;stroke-width:0.5;" width="317" x="1020.5" y="659.8945"/><ellipse cx="1077.5" cy="677.4727" fill="#ADD1B2" rx="12" ry="12" style="stroke:#181818;stroke-width:1.0;"/><path d="M1079.6406,672.3945 Q1079.8281,672.1445 1080.0469,672.0195 Q1080.2656,671.8789 1080.5156,671.8789 Q1080.9531,671.8789 1081.2344,672.1914 Q1081.5156,672.4883 1081.5156,673.207 L1081.5156,674.9102 Q1081.5156,675.6289 1081.2344,675.9414 Q1080.9531,676.2539 1080.5156,676.2539 Q1080.125,676.2539 1079.875,676.0195 Q1079.625,675.8008 1079.5156,675.1914 Q1079.4531,674.7695 1079.2344,674.5508 Q1078.8438,674.1133 1078.125,673.8477 Q1077.4063,673.582 1076.6875,673.582 Q1075.7813,673.582 1075.0313,673.9727 Q1074.2813,674.3633 1073.7031,675.2539 Q1073.125,676.1289 1073.125,677.332 L1073.125,678.6289 Q1073.125,680.082 1074.1719,681.0508 Q1075.2344,682.0195 1077.0938,682.0195 Q1078.2031,682.0195 1078.9844,681.707 Q1079.4219,681.5352 1079.9375,681.0195 Q1080.25,680.707 1080.4219,680.6133 Q1080.5938,680.5195 1080.8281,680.5195 Q1081.2188,680.5195 1081.5156,680.832 Q1081.8281,681.1289 1081.8281,681.5352 Q1081.8281,681.9414 1081.4219,682.4102 Q1080.8281,683.0977 1079.8906,683.4883 Q1078.625,684.0195 1077.1094,684.0195 Q1075.3281,684.0195 1073.9063,683.2852 Q1072.75,682.6914 1071.9375,681.4258 Q1071.125,680.1602 1071.125,678.6758 L1071.125,677.3164 Q1071.125,675.7539 1071.8438,674.4102 Q1072.5781,673.0508 1073.8594,672.3164 Q1075.1563,671.582 1076.6094,671.582 Q1077.4688,671.582 1078.2188,671.7852 Q1078.9844,671.9883 1079.6406,672.3945 Z " fill="#000000"/><text fill="#000000" font-family="sans-serif" font-size="20" lengthAdjust="spacing" textLength="194" x="1099.5" y="685.6563">JpaRepositoryFactory</text><line style="stroke:#181818;stroke-width:0.5;" x1="1021.5" x2="1336.5" y1="695.0508" y2="695.0508"/><line style="stroke:#181818;stroke-width:0.5;" x1="1021.5" x2="1336.5" y1="703.0508" y2="703.0508"/><rect fill="#F24D5C" height="6" style="stroke:#C82930;stroke-width:1.0;" width="6" x="1028.5" y="718.1289"/><text fill="#000000" font-family="sans-serif" font-size="20" lengthAdjust="spacing" textLength="208" x="1041.5" y="727.8125">JpaRepositoryFactory()</text><ellipse cx="1031.5" cy="746.2852" fill="#84BE84" rx="3" ry="3" style="stroke:#038048;stroke-width:1.0;"/><text fill="#000000" font-family="sans-serif" font-size="20" lengthAdjust="spacing" textLength="290" x="1041.5" y="752.9688">getInstance(): RepositoryFactory</text></g><!--class JpaFigureRepository--><g id="elem_JpaFigureRepository"><rect codeLine="15" fill="#F1F1F1" height="51.1563" id="JpaFigureRepository" rx="2.5" ry="2.5" style="stroke:#181818;stroke-width:0.5;" width="216" x="1045" y="916.3945"/><ellipse cx="1061" cy="933.9727" fill="#ADD1B2" rx="12" ry="12" style="stroke:#181818;stroke-width:1.0;"/><path d="M1063.1406,928.8945 Q1063.3281,928.6445 1063.5469,928.5195 Q1063.7656,928.3789 1064.0156,928.3789 Q1064.4531,928.3789 1064.7344,928.6914 Q1065.0156,928.9883 1065.0156,929.707 L1065.0156,931.4102 Q1065.0156,932.1289 1064.7344,932.4414 Q1064.4531,932.7539 1064.0156,932.7539 Q1063.625,932.7539 1063.375,932.5195 Q1063.125,932.3008 1063.0156,931.6914 Q1062.9531,931.2695 1062.7344,931.0508 Q1062.3438,930.6133 1061.625,930.3477 Q1060.9063,930.082 1060.1875,930.082 Q1059.2813,930.082 1058.5313,930.4727 Q1057.7813,930.8633 1057.2031,931.7539 Q1056.625,932.6289 1056.625,933.832 L1056.625,935.1289 Q1056.625,936.582 1057.6719,937.5508 Q1058.7344,938.5195 1060.5938,938.5195 Q1061.7031,938.5195 1062.4844,938.207 Q1062.9219,938.0352 1063.4375,937.5195 Q1063.75,937.207 1063.9219,937.1133 Q1064.0938,937.0195 1064.3281,937.0195 Q1064.7188,937.0195 1065.0156,937.332 Q1065.3281,937.6289 1065.3281,938.0352 Q1065.3281,938.4414 1064.9219,938.9102 Q1064.3281,939.5977 1063.3906,939.9883 Q1062.125,940.5195 1060.6094,940.5195 Q1058.8281,940.5195 1057.4063,939.7852 Q1056.25,939.1914 1055.4375,937.9258 Q1054.625,936.6602 1054.625,935.1758 L1054.625,933.8164 Q1054.625,932.2539 1055.3438,930.9102 Q1056.0781,929.5508 1057.3594,928.8164 Q1058.6563,928.082 1060.1094,928.082 Q1060.9688,928.082 1061.7188,928.2852 Q1062.4844,928.4883 1063.1406,928.8945 Z " fill="#000000"/><text fill="#000000" font-family="sans-serif" font-size="20" lengthAdjust="spacing" textLength="182" x="1076" y="942.1563">JpaFigureRepository</text><line style="stroke:#181818;stroke-width:0.5;" x1="1046" x2="1260" y1="951.5508" y2="951.5508"/><line style="stroke:#181818;stroke-width:0.5;" x1="1046" x2="1260" y1="959.5508" y2="959.5508"/></g><!--class InMemoryRepositoryFactory--><g id="elem_InMemoryRepositoryFactory"><rect codeLine="21" fill="#F1F1F1" height="101.4688" id="InMemoryRepositoryFactory" rx="2.5" ry="2.5" style="stroke:#181818;stroke-width:0.5;" width="317" x="22.5" y="659.8945"/><ellipse cx="53.35" cy="677.4727" fill="#ADD1B2" rx="12" ry="12" style="stroke:#181818;stroke-width:1.0;"/><path d="M55.4906,672.3945 Q55.6781,672.1445 55.8969,672.0195 Q56.1156,671.8789 56.3656,671.8789 Q56.8031,671.8789 57.0844,672.1914 Q57.3656,672.4883 57.3656,673.207 L57.3656,674.9102 Q57.3656,675.6289 57.0844,675.9414 Q56.8031,676.2539 56.3656,676.2539 Q55.975,676.2539 55.725,676.0195 Q55.475,675.8008 55.3656,675.1914 Q55.3031,674.7695 55.0844,674.5508 Q54.6938,674.1133 53.975,673.8477 Q53.2563,673.582 52.5375,673.582 Q51.6313,673.582 50.8813,673.9727 Q50.1313,674.3633 49.5531,675.2539 Q48.975,676.1289 48.975,677.332 L48.975,678.6289 Q48.975,680.082 50.0219,681.0508 Q51.0844,682.0195 52.9438,682.0195 Q54.0531,682.0195 54.8344,681.707 Q55.2719,681.5352 55.7875,681.0195 Q56.1,680.707 56.2719,680.6133 Q56.4438,680.5195 56.6781,680.5195 Q57.0688,680.5195 57.3656,680.832 Q57.6781,681.1289 57.6781,681.5352 Q57.6781,681.9414 57.2719,682.4102 Q56.6781,683.0977 55.7406,683.4883 Q54.475,684.0195 52.9594,684.0195 Q51.1781,684.0195 49.7563,683.2852 Q48.6,682.6914 47.7875,681.4258 Q46.975,680.1602 46.975,678.6758 L46.975,677.3164 Q46.975,675.7539 47.6938,674.4102 Q48.4281,673.0508 49.7094,672.3164 Q51.0063,671.582 52.4594,671.582 Q53.3188,671.582 54.0688,671.7852 Q54.8344,671.9883 55.4906,672.3945 Z " fill="#000000"/><text fill="#000000" font-family="sans-serif" font-size="20" lengthAdjust="spacing" textLength="250" x="71.65" y="685.6563">InMemoryRepositoryFactory</text><line style="stroke:#181818;stroke-width:0.5;" x1="23.5" x2="338.5" y1="695.0508" y2="695.0508"/><line style="stroke:#181818;stroke-width:0.5;" x1="23.5" x2="338.5" y1="703.0508" y2="703.0508"/><rect fill="#F24D5C" height="6" style="stroke:#C82930;stroke-width:1.0;" width="6" x="30.5" y="718.1289"/><text fill="#000000" font-family="sans-serif" font-size="20" lengthAdjust="spacing" textLength="264" x="43.5" y="727.8125">InMemoryRepositoryFactory()</text><ellipse cx="33.5" cy="746.2852" fill="#84BE84" rx="3" ry="3" style="stroke:#038048;stroke-width:1.0;"/><text fill="#000000" font-family="sans-serif" font-size="20" lengthAdjust="spacing" textLength="290" x="43.5" y="752.9688">getInstance(): RepositoryFactory</text></g><!--class InMemoryFigureRepository--><g id="elem_InMemoryFigureRepository"><rect codeLine="26" fill="#F1F1F1" height="51.1563" id="InMemoryFigureRepository" rx="2.5" ry="2.5" style="stroke:#181818;stroke-width:0.5;" width="272" x="62" y="916.3945"/><ellipse cx="78" cy="933.9727" fill="#ADD1B2" rx="12" ry="12" style="stroke:#181818;stroke-width:1.0;"/><path d="M80.1406,928.8945 Q80.3281,928.6445 80.5469,928.5195 Q80.7656,928.3789 81.0156,928.3789 Q81.4531,928.3789 81.7344,928.6914 Q82.0156,928.9883 82.0156,929.707 L82.0156,931.4102 Q82.0156,932.1289 81.7344,932.4414 Q81.4531,932.7539 81.0156,932.7539 Q80.625,932.7539 80.375,932.5195 Q80.125,932.3008 80.0156,931.6914 Q79.9531,931.2695 79.7344,931.0508 Q79.3438,930.6133 78.625,930.3477 Q77.9063,930.082 77.1875,930.082 Q76.2813,930.082 75.5313,930.4727 Q74.7813,930.8633 74.2031,931.7539 Q73.625,932.6289 73.625,933.832 L73.625,935.1289 Q73.625,936.582 74.6719,937.5508 Q75.7344,938.5195 77.5938,938.5195 Q78.7031,938.5195 79.4844,938.207 Q79.9219,938.0352 80.4375,937.5195 Q80.75,937.207 80.9219,937.1133 Q81.0938,937.0195 81.3281,937.0195 Q81.7188,937.0195 82.0156,937.332 Q82.3281,937.6289 82.3281,938.0352 Q82.3281,938.4414 81.9219,938.9102 Q81.3281,939.5977 80.3906,939.9883 Q79.125,940.5195 77.6094,940.5195 Q75.8281,940.5195 74.4063,939.7852 Q73.25,939.1914 72.4375,937.9258 Q71.625,936.6602 71.625,935.1758 L71.625,933.8164 Q71.625,932.2539 72.3438,930.9102 Q73.0781,929.5508 74.3594,928.8164 Q75.6563,928.082 77.1094,928.082 Q77.9688,928.082 78.7188,928.2852 Q79.4844,928.4883 80.1406,928.8945 Z " fill="#000000"/><text fill="#000000" font-family="sans-serif" font-size="20" lengthAdjust="spacing" textLength="238" x="93" y="942.1563">InMemoryFigureRepository</text><line style="stroke:#181818;stroke-width:0.5;" x1="63" x2="333" y1="951.5508" y2="951.5508"/><line style="stroke:#181818;stroke-width:0.5;" x1="63" x2="333" y1="959.5508" y2="959.5508"/></g><!--class Figure--><g id="elem_Figure"><rect codeLine="45" fill="#F1F1F1" height="126.625" id="Figure" rx="2.5" ry="2.5" style="stroke:#181818;stroke-width:0.5;" width="195" x="608.5" y="1241.8945"/><ellipse cx="668" cy="1272.0508" fill="#ADD1B2" rx="12" ry="12" style="stroke:#181818;stroke-width:1.0;"/><path d="M670.1406,1266.9727 Q670.3281,1266.7227 670.5469,1266.5977 Q670.7656,1266.457 671.0156,1266.457 Q671.4531,1266.457 671.7344,1266.7695 Q672.0156,1267.0664 672.0156,1267.7852 L672.0156,1269.4883 Q672.0156,1270.207 671.7344,1270.5195 Q671.4531,1270.832 671.0156,1270.832 Q670.625,1270.832 670.375,1270.5977 Q670.125,1270.3789 670.0156,1269.7695 Q669.9531,1269.3477 669.7344,1269.1289 Q669.3438,1268.6914 668.625,1268.4258 Q667.9063,1268.1602 667.1875,1268.1602 Q666.2813,1268.1602 665.5313,1268.5508 Q664.7813,1268.9414 664.2031,1269.832 Q663.625,1270.707 663.625,1271.9102 L663.625,1273.207 Q663.625,1274.6602 664.6719,1275.6289 Q665.7344,1276.5977 667.5938,1276.5977 Q668.7031,1276.5977 669.4844,1276.2852 Q669.9219,1276.1133 670.4375,1275.5977 Q670.75,1275.2852 670.9219,1275.1914 Q671.0938,1275.0977 671.3281,1275.0977 Q671.7188,1275.0977 672.0156,1275.4102 Q672.3281,1275.707 672.3281,1276.1133 Q672.3281,1276.5195 671.9219,1276.9883 Q671.3281,1277.6758 670.3906,1278.0664 Q669.125,1278.5977 667.6094,1278.5977 Q665.8281,1278.5977 664.4063,1277.8633 Q663.25,1277.2695 662.4375,1276.0039 Q661.625,1274.7383 661.625,1273.2539 L661.625,1271.8945 Q661.625,1270.332 662.3438,1268.9883 Q663.0781,1267.6289 664.3594,1266.8945 Q665.6563,1266.1602 667.1094,1266.1602 Q667.9688,1266.1602 668.7188,1266.3633 Q669.4844,1266.5664 670.1406,1266.9727 Z " fill="#000000"/><text fill="#000000" font-family="sans-serif" font-size="20" font-style="italic" lengthAdjust="spacing" textLength="71" x="688" y="1267.6563">«Entity»</text><text fill="#000000" font-family="sans-serif" font-size="20" lengthAdjust="spacing" textLength="55" x="696" y="1292.8125">Figure</text><line style="stroke:#181818;stroke-width:0.5;" x1="609.5" x2="802.5" y1="1302.207" y2="1302.207"/><line style="stroke:#181818;stroke-width:0.5;" x1="609.5" x2="802.5" y1="1310.207" y2="1310.207"/><ellipse cx="619.5" cy="1328.2852" fill="#84BE84" rx="3" ry="3" style="stroke:#038048;stroke-width:1.0;"/><text fill="#000000" font-family="sans-serif" font-size="20" lengthAdjust="spacing" textLength="167" x="629.5" y="1334.9688">isPublic() : boolean</text><ellipse cx="619.5" cy="1353.4414" fill="#84BE84" rx="3" ry="3" style="stroke:#038048;stroke-width:1.0;"/><text fill="#000000" font-family="sans-serif" font-size="20" lengthAdjust="spacing" textLength="168" x="629.5" y="1360.125">isActive() : boolean</text></g><!--class Code--><g id="elem_Code"><rect codeLine="50" fill="#F1F1F1" height="76.3125" id="Code" rx="2.5" ry="2.5" style="stroke:#181818;stroke-width:0.5;" width="166" x="396" y="1455.8945"/><ellipse cx="412" cy="1486.0508" fill="#ADD1B2" rx="12" ry="12" style="stroke:#181818;stroke-width:1.0;"/><path d="M414.1406,1480.9727 Q414.3281,1480.7227 414.5469,1480.5977 Q414.7656,1480.457 415.0156,1480.457 Q415.4531,1480.457 415.7344,1480.7695 Q416.0156,1481.0664 416.0156,1481.7852 L416.0156,1483.4883 Q416.0156,1484.207 415.7344,1484.5195 Q415.4531,1484.832 415.0156,1484.832 Q414.625,1484.832 414.375,1484.5977 Q414.125,1484.3789 414.0156,1483.7695 Q413.9531,1483.3477 413.7344,1483.1289 Q413.3438,1482.6914 412.625,1482.4258 Q411.9063,1482.1602 411.1875,1482.1602 Q410.2813,1482.1602 409.5313,1482.5508 Q408.7813,1482.9414 408.2031,1483.832 Q407.625,1484.707 407.625,1485.9102 L407.625,1487.207 Q407.625,1488.6602 408.6719,1489.6289 Q409.7344,1490.5977 411.5938,1490.5977 Q412.7031,1490.5977 413.4844,1490.2852 Q413.9219,1490.1133 414.4375,1489.5977 Q414.75,1489.2852 414.9219,1489.1914 Q415.0938,1489.0977 415.3281,1489.0977 Q415.7188,1489.0977 416.0156,1489.4102 Q416.3281,1489.707 416.3281,1490.1133 Q416.3281,1490.5195 415.9219,1490.9883 Q415.3281,1491.6758 414.3906,1492.0664 Q413.125,1492.5977 411.6094,1492.5977 Q409.8281,1492.5977 408.4063,1491.8633 Q407.25,1491.2695 406.4375,1490.0039 Q405.625,1488.7383 405.625,1487.2539 L405.625,1485.8945 Q405.625,1484.332 406.3438,1482.9883 Q407.0781,1481.6289 408.3594,1480.8945 Q409.6563,1480.1602 411.1094,1480.1602 Q411.9688,1480.1602 412.7188,1480.3633 Q413.4844,1480.5664 414.1406,1480.9727 Z " fill="#000000"/><text fill="#000000" font-family="sans-serif" font-size="20" font-style="italic" lengthAdjust="spacing" textLength="136" x="425" y="1481.6563">«Value Object»</text><text fill="#000000" font-family="sans-serif" font-size="20" lengthAdjust="spacing" textLength="47" x="469.5" y="1506.8125">Code</text><line style="stroke:#181818;stroke-width:0.5;" x1="397" x2="561" y1="1516.207" y2="1516.207"/><line style="stroke:#181818;stroke-width:0.5;" x1="397" x2="561" y1="1524.207" y2="1524.207"/></g><!--class Version--><g id="elem_Version"><rect codeLine="53" fill="#F1F1F1" height="76.3125" id="Version" rx="2.5" ry="2.5" style="stroke:#181818;stroke-width:0.5;" width="166" x="597" y="1455.8945"/><ellipse cx="613" cy="1486.0508" fill="#ADD1B2" rx="12" ry="12" style="stroke:#181818;stroke-width:1.0;"/><path d="M615.1406,1480.9727 Q615.3281,1480.7227 615.5469,1480.5977 Q615.7656,1480.457 616.0156,1480.457 Q616.4531,1480.457 616.7344,1480.7695 Q617.0156,1481.0664 617.0156,1481.7852 L617.0156,1483.4883 Q617.0156,1484.207 616.7344,1484.5195 Q616.4531,1484.832 616.0156,1484.832 Q615.625,1484.832 615.375,1484.5977 Q615.125,1484.3789 615.0156,1483.7695 Q614.9531,1483.3477 614.7344,1483.1289 Q614.3438,1482.6914 613.625,1482.4258 Q612.9063,1482.1602 612.1875,1482.1602 Q611.2813,1482.1602 610.5313,1482.5508 Q609.7813,1482.9414 609.2031,1483.832 Q608.625,1484.707 608.625,1485.9102 L608.625,1487.207 Q608.625,1488.6602 609.6719,1489.6289 Q610.7344,1490.5977 612.5938,1490.5977 Q613.7031,1490.5977 614.4844,1490.2852 Q614.9219,1490.1133 615.4375,1489.5977 Q615.75,1489.2852 615.9219,1489.1914 Q616.0938,1489.0977 616.3281,1489.0977 Q616.7188,1489.0977 617.0156,1489.4102 Q617.3281,1489.707 617.3281,1490.1133 Q617.3281,1490.5195 616.9219,1490.9883 Q616.3281,1491.6758 615.3906,1492.0664 Q614.125,1492.5977 612.6094,1492.5977 Q610.8281,1492.5977 609.4063,1491.8633 Q608.25,1491.2695 607.4375,1490.0039 Q606.625,1488.7383 606.625,1487.2539 L606.625,1485.8945 Q606.625,1484.332 607.3438,1482.9883 Q608.0781,1481.6289 609.3594,1480.8945 Q610.6563,1480.1602 612.1094,1480.1602 Q612.9688,1480.1602 613.7188,1480.3633 Q614.4844,1480.5664 615.1406,1480.9727 Z " fill="#000000"/><text fill="#000000" font-family="sans-serif" font-size="20" font-style="italic" lengthAdjust="spacing" textLength="136" x="626" y="1481.6563">«Value Object»</text><text fill="#000000" font-family="sans-serif" font-size="20" lengthAdjust="spacing" textLength="66" x="661" y="1506.8125">Version</text><line style="stroke:#181818;stroke-width:0.5;" x1="598" x2="762" y1="1516.207" y2="1516.207"/><line style="stroke:#181818;stroke-width:0.5;" x1="598" x2="762" y1="1524.207" y2="1524.207"/></g><!--class Description--><g id="elem_Description"><rect codeLine="56" fill="#F1F1F1" height="76.3125" id="Description" rx="2.5" ry="2.5" style="stroke:#181818;stroke-width:0.5;" width="166" x="798" y="1455.8945"/><ellipse cx="814" cy="1486.0508" fill="#ADD1B2" rx="12" ry="12" style="stroke:#181818;stroke-width:1.0;"/><path d="M816.1406,1480.9727 Q816.3281,1480.7227 816.5469,1480.5977 Q816.7656,1480.457 817.0156,1480.457 Q817.4531,1480.457 817.7344,1480.7695 Q818.0156,1481.0664 818.0156,1481.7852 L818.0156,1483.4883 Q818.0156,1484.207 817.7344,1484.5195 Q817.4531,1484.832 817.0156,1484.832 Q816.625,1484.832 816.375,1484.5977 Q816.125,1484.3789 816.0156,1483.7695 Q815.9531,1483.3477 815.7344,1483.1289 Q815.3438,1482.6914 814.625,1482.4258 Q813.9063,1482.1602 813.1875,1482.1602 Q812.2813,1482.1602 811.5313,1482.5508 Q810.7813,1482.9414 810.2031,1483.832 Q809.625,1484.707 809.625,1485.9102 L809.625,1487.207 Q809.625,1488.6602 810.6719,1489.6289 Q811.7344,1490.5977 813.5938,1490.5977 Q814.7031,1490.5977 815.4844,1490.2852 Q815.9219,1490.1133 816.4375,1489.5977 Q816.75,1489.2852 816.9219,1489.1914 Q817.0938,1489.0977 817.3281,1489.0977 Q817.7188,1489.0977 818.0156,1489.4102 Q818.3281,1489.707 818.3281,1490.1133 Q818.3281,1490.5195 817.9219,1490.9883 Q817.3281,1491.6758 816.3906,1492.0664 Q815.125,1492.5977 813.6094,1492.5977 Q811.8281,1492.5977 810.4063,1491.8633 Q809.25,1491.2695 808.4375,1490.0039 Q807.625,1488.7383 807.625,1487.2539 L807.625,1485.8945 Q807.625,1484.332 808.3438,1482.9883 Q809.0781,1481.6289 810.3594,1480.8945 Q811.6563,1480.1602 813.1094,1480.1602 Q813.9688,1480.1602 814.7188,1480.3633 Q815.4844,1480.5664 816.1406,1480.9727 Z " fill="#000000"/><text fill="#000000" font-family="sans-serif" font-size="20" font-style="italic" lengthAdjust="spacing" textLength="136" x="827" y="1481.6563">«Value Object»</text><text fill="#000000" font-family="sans-serif" font-size="20" lengthAdjust="spacing" textLength="98" x="846" y="1506.8125">Description</text><line style="stroke:#181818;stroke-width:0.5;" x1="799" x2="963" y1="1516.207" y2="1516.207"/><line style="stroke:#181818;stroke-width:0.5;" x1="799" x2="963" y1="1524.207" y2="1524.207"/></g><!--class RepositoryFactory--><g id="elem_RepositoryFactory"><rect codeLine="34" fill="#F1F1F1" height="76.3125" id="RepositoryFactory" rx="2.5" ry="2.5" style="stroke:#181818;stroke-width:0.5;" width="381" x="524.5" y="903.8945"/><ellipse cx="630" cy="921.4727" fill="#B4A7E5" rx="12" ry="12" style="stroke:#181818;stroke-width:1.0;"/><path d="M631,917.6445 L631,925.4727 L633.0313,925.4727 Q633.75,925.4727 634.0469,925.7539 Q634.3594,926.0195 634.3594,926.4727 Q634.3594,926.9102 634.0469,927.1914 Q633.75,927.4727 633.0313,927.4727 L626.9844,927.4727 Q626.25,927.4727 625.9375,927.1914 Q625.6406,926.9102 625.6406,926.4727 Q625.6406,926.0195 625.9375,925.7539 Q626.25,925.4727 626.9844,925.4727 L629,925.4727 L629,917.6445 L626.9844,917.6445 Q626.25,917.6445 625.9375,917.3633 Q625.6406,917.082 625.6406,916.6289 Q625.6406,916.1758 625.9375,915.9102 Q626.25,915.6289 626.9844,915.6289 L633.0313,915.6289 Q633.75,915.6289 634.0469,915.9102 Q634.3594,916.1758 634.3594,916.6289 Q634.3594,917.082 634.0469,917.3633 Q633.75,917.6445 633.0313,917.6445 L631,917.6445 Z " fill="#000000"/><text fill="#000000" font-family="sans-serif" font-size="20" font-style="italic" lengthAdjust="spacing" textLength="161" x="652" y="929.6563">RepositoryFactory</text><line style="stroke:#181818;stroke-width:0.5;" x1="525.5" x2="904.5" y1="939.0508" y2="939.0508"/><line style="stroke:#181818;stroke-width:0.5;" x1="525.5" x2="904.5" y1="947.0508" y2="947.0508"/><ellipse cx="535.5" cy="965.1289" fill="#84BE84" rx="3" ry="3" style="stroke:#038048;stroke-width:1.0;"/><text fill="#000000" font-family="sans-serif" font-size="20" lengthAdjust="spacing" textLength="354" x="545.5" y="971.8125">getFigureRepository(): FigureRepository</text></g><!--class FigureRepository--><g id="elem_FigureRepository"><rect codeLine="38" fill="#F1F1F1" height="76.3125" id="FigureRepository" rx="2.5" ry="2.5" style="stroke:#181818;stroke-width:0.5;" width="338" x="546" y="1040.8945"/><ellipse cx="634.5" cy="1058.4727" fill="#B4A7E5" rx="12" ry="12" style="stroke:#181818;stroke-width:1.0;"/><path d="M635.5,1054.6445 L635.5,1062.4727 L637.5313,1062.4727 Q638.25,1062.4727 638.5469,1062.7539 Q638.8594,1063.0195 638.8594,1063.4727 Q638.8594,1063.9102 638.5469,1064.1914 Q638.25,1064.4727 637.5313,1064.4727 L631.4844,1064.4727 Q630.75,1064.4727 630.4375,1064.1914 Q630.1406,1063.9102 630.1406,1063.4727 Q630.1406,1063.0195 630.4375,1062.7539 Q630.75,1062.4727 631.4844,1062.4727 L633.5,1062.4727 L633.5,1054.6445 L631.4844,1054.6445 Q630.75,1054.6445 630.4375,1054.3633 Q630.1406,1054.082 630.1406,1053.6289 Q630.1406,1053.1758 630.4375,1052.9102 Q630.75,1052.6289 631.4844,1052.6289 L637.5313,1052.6289 Q638.25,1052.6289 638.5469,1052.9102 Q638.8594,1053.1758 638.8594,1053.6289 Q638.8594,1054.082 638.5469,1054.3633 Q638.25,1054.6445 637.5313,1054.6445 L635.5,1054.6445 Z " fill="#000000"/><text fill="#000000" font-family="sans-serif" font-size="20" font-style="italic" lengthAdjust="spacing" textLength="152" x="656.5" y="1066.6563">FigureRepository</text><line style="stroke:#181818;stroke-width:0.5;" x1="547" x2="883" y1="1076.0508" y2="1076.0508"/><line style="stroke:#181818;stroke-width:0.5;" x1="547" x2="883" y1="1084.0508" y2="1084.0508"/><ellipse cx="557" cy="1102.1289" fill="#84BE84" rx="3" ry="3" style="stroke:#038048;stroke-width:1.0;"/><text fill="#000000" font-family="sans-serif" font-size="20" lengthAdjust="spacing" textLength="311" x="567" y="1108.8125">getPublicCatalogue() : List&lt;Figure&gt;</text></g><!--class ListPublicCatalogueUI--><g id="elem_ListPublicCatalogueUI"><rect codeLine="62" fill="#F1F1F1" height="101.4688" id="ListPublicCatalogueUI" rx="2.5" ry="2.5" style="stroke:#181818;stroke-width:0.5;" width="225" x="712.5" y="50.8945"/><ellipse cx="728.5" cy="81.0508" fill="#ADD1B2" rx="12" ry="12" style="stroke:#181818;stroke-width:1.0;"/><path d="M730.6406,75.9727 Q730.8281,75.7227 731.0469,75.5977 Q731.2656,75.457 731.5156,75.457 Q731.9531,75.457 732.2344,75.7695 Q732.5156,76.0664 732.5156,76.7852 L732.5156,78.4883 Q732.5156,79.207 732.2344,79.5195 Q731.9531,79.832 731.5156,79.832 Q731.125,79.832 730.875,79.5977 Q730.625,79.3789 730.5156,78.7695 Q730.4531,78.3477 730.2344,78.1289 Q729.8438,77.6914 729.125,77.4258 Q728.4063,77.1602 727.6875,77.1602 Q726.7813,77.1602 726.0313,77.5508 Q725.2813,77.9414 724.7031,78.832 Q724.125,79.707 724.125,80.9102 L724.125,82.207 Q724.125,83.6602 725.1719,84.6289 Q726.2344,85.5977 728.0938,85.5977 Q729.2031,85.5977 729.9844,85.2852 Q730.4219,85.1133 730.9375,84.5977 Q731.25,84.2852 731.4219,84.1914 Q731.5938,84.0977 731.8281,84.0977 Q732.2188,84.0977 732.5156,84.4102 Q732.8281,84.707 732.8281,85.1133 Q732.8281,85.5195 732.4219,85.9883 Q731.8281,86.6758 730.8906,87.0664 Q729.625,87.5977 728.1094,87.5977 Q726.3281,87.5977 724.9063,86.8633 Q723.75,86.2695 722.9375,85.0039 Q722.125,83.7383 722.125,82.2539 L722.125,80.8945 Q722.125,79.332 722.8438,77.9883 Q723.5781,76.6289 724.8594,75.8945 Q726.1563,75.1602 727.6094,75.1602 Q728.4688,75.1602 729.2188,75.3633 Q729.9844,75.5664 730.6406,75.9727 Z " fill="#000000"/><text fill="#000000" font-family="sans-serif" font-size="20" font-style="italic" lengthAdjust="spacing" textLength="41" x="818.5" y="76.6563">«UI»</text><text fill="#000000" font-family="sans-serif" font-size="20" lengthAdjust="spacing" textLength="191" x="743.5" y="101.8125">ListPublicCatalogueUI</text><line style="stroke:#181818;stroke-width:0.5;" x1="713.5" x2="936.5" y1="111.207" y2="111.207"/><line style="stroke:#181818;stroke-width:0.5;" x1="713.5" x2="936.5" y1="119.207" y2="119.207"/><ellipse cx="723.5" cy="137.2852" fill="#84BE84" rx="3" ry="3" style="stroke:#038048;stroke-width:1.0;"/><text fill="#000000" font-family="sans-serif" font-size="20" lengthAdjust="spacing" textLength="177" x="733.5" y="143.9688">showPublicFigures()</text></g><!--class ListPublicCatalogueController--><g id="elem_ListPublicCatalogueController"><rect codeLine="68" fill="#F1F1F1" height="101.4688" id="ListPublicCatalogueController" rx="2.5" ry="2.5" style="stroke:#181818;stroke-width:0.5;" width="328" x="661" y="244.8945"/><ellipse cx="693.65" cy="275.0508" fill="#ADD1B2" rx="12" ry="12" style="stroke:#181818;stroke-width:1.0;"/><path d="M695.7906,269.9727 Q695.9781,269.7227 696.1969,269.5977 Q696.4156,269.457 696.6656,269.457 Q697.1031,269.457 697.3844,269.7695 Q697.6656,270.0664 697.6656,270.7852 L697.6656,272.4883 Q697.6656,273.207 697.3844,273.5195 Q697.1031,273.832 696.6656,273.832 Q696.275,273.832 696.025,273.5977 Q695.775,273.3789 695.6656,272.7695 Q695.6031,272.3477 695.3844,272.1289 Q694.9938,271.6914 694.275,271.4258 Q693.5563,271.1602 692.8375,271.1602 Q691.9313,271.1602 691.1813,271.5508 Q690.4313,271.9414 689.8531,272.832 Q689.275,273.707 689.275,274.9102 L689.275,276.207 Q689.275,277.6602 690.3219,278.6289 Q691.3844,279.5977 693.2438,279.5977 Q694.3531,279.5977 695.1344,279.2852 Q695.5719,279.1133 696.0875,278.5977 Q696.4,278.2852 696.5719,278.1914 Q696.7438,278.0977 696.9781,278.0977 Q697.3688,278.0977 697.6656,278.4102 Q697.9781,278.707 697.9781,279.1133 Q697.9781,279.5195 697.5719,279.9883 Q696.9781,280.6758 696.0406,281.0664 Q694.775,281.5977 693.2594,281.5977 Q691.4781,281.5977 690.0563,280.8633 Q688.9,280.2695 688.0875,279.0039 Q687.275,277.7383 687.275,276.2539 L687.275,274.8945 Q687.275,273.332 687.9938,271.9883 Q688.7281,270.6289 690.0094,269.8945 Q691.3063,269.1602 692.7594,269.1602 Q693.6188,269.1602 694.3688,269.3633 Q695.1344,269.5664 695.7906,269.9727 Z " fill="#000000"/><text fill="#000000" font-family="sans-serif" font-size="20" font-style="italic" lengthAdjust="spacing" textLength="109" x="786.35" y="270.6563">«Controller»</text><text fill="#000000" font-family="sans-serif" font-size="20" lengthAdjust="spacing" textLength="257" x="712.35" y="295.8125">ListPublicCatalogueController</text><line style="stroke:#181818;stroke-width:0.5;" x1="662" x2="988" y1="305.207" y2="305.207"/><line style="stroke:#181818;stroke-width:0.5;" x1="662" x2="988" y1="313.207" y2="313.207"/><ellipse cx="672" cy="331.2852" fill="#84BE84" rx="3" ry="3" style="stroke:#038048;stroke-width:1.0;"/><text fill="#000000" font-family="sans-serif" font-size="20" lengthAdjust="spacing" textLength="301" x="682" y="337.9688">listPublicCatalogue(): List&lt;Figure&gt;</text></g><!--link PersistenceContext to RepositoryFactory--><g id="link_PersistenceContext_RepositoryFactory"><path codeLine="76" d="M815.67,541.2845 C811.24,559.0445 805.85,580.5645 801,599.8945 C773.94,707.6745 741.88,834.5645 725.62,898.9145 " fill="none" id="PersistenceContext-to-RepositoryFactory" style="stroke:#181818;stroke-width:1.0;stroke-dasharray:7.0,7.0;"/><polygon fill="#181818" points="724.38,903.8145,730.4703,896.0745,725.6095,898.9681,722.7159,894.1073,724.38,903.8145" style="stroke:#181818;stroke-width:1.0;"/><text fill="#000000" font-family="sans-serif" font-size="20" lengthAdjust="spacing" textLength="158" x="799" y="718.6563">figureRepository()</text></g><!--link PersistenceContext to JpaRepositoryFactory--><g id="link_PersistenceContext_JpaRepositoryFactory"><path codeLine="77" d="M889.11,541.1045 C945.05,573.5845 1026.81,621.0445 1089.25,657.2945 " fill="none" id="PersistenceContext-to-JpaRepositoryFactory" style="stroke:#181818;stroke-width:1.0;stroke-dasharray:7.0,7.0;"/><polygon fill="#181818" points="1093.71,659.8845,1087.9482,651.8969,1089.3901,657.367,1083.9201,658.8088,1093.71,659.8845" style="stroke:#181818;stroke-width:1.0;"/></g><!--link PersistenceContext to InMemoryRepositoryFactory--><g id="link_PersistenceContext_InMemoryRepositoryFactory"><path codeLine="78" d="M809.42,541.2745 C798.98,561.7345 783.23,585.7345 762,599.8945 C695.06,644.5345 492.24,675.5645 345.05,692.9145 " fill="none" id="PersistenceContext-to-InMemoryRepositoryFactory" style="stroke:#181818;stroke-width:1.0;stroke-dasharray:7.0,7.0;"/><polygon fill="#181818" points="339.84,693.5245,349.2389,696.4676,344.8071,692.952,348.3227,688.5202,339.84,693.5245" style="stroke:#181818;stroke-width:1.0;"/></g><!--link JpaFigureRepository to FigureRepository--><g id="link_JpaFigureRepository_FigureRepository"><path codeLine="83" d="M1073.43,967.4245 C1012.54,986.1845 927.04,1012.5345 854.82,1034.7945 " fill="none" id="JpaFigureRepository-to-FigureRepository" style="stroke:#181818;stroke-width:1.0;"/><polygon fill="none" points="856.49,1041.6045,835.32,1040.8145,852.37,1028.2245,856.49,1041.6045" style="stroke:#181818;stroke-width:1.0;"/></g><!--link JpaRepositoryFactory to RepositoryFactory--><g id="link_JpaRepositoryFactory_RepositoryFactory"><path codeLine="86" d="M1078.89,760.9145 C998.61,800.6145 886.78,855.9345 808.34,894.7245 " fill="none" id="JpaRepositoryFactory-to-RepositoryFactory" style="stroke:#181818;stroke-width:1.0;stroke-dasharray:7.0,7.0;"/><polygon fill="none" points="811.19,901.1345,790.15,903.7245,804.98,888.5845,811.19,901.1345" style="stroke:#181818;stroke-width:1.0;"/></g><!--link JpaRepositoryFactory to JpaFigureRepository--><g id="link_JpaRepositoryFactory_JpaFigureRepository"><path codeLine="87" d="M1173.39,760.9145 C1168.23,806.5045 1160.73,872.6645 1156.41,910.7745 " fill="none" id="JpaRepositoryFactory-to-JpaFigureRepository" style="stroke:#181818;stroke-width:1.0;stroke-dasharray:7.0,7.0;"/><polygon fill="#181818" points="1155.8,916.1945,1160.7775,907.696,1156.3569,911.2256,1152.8272,906.805,1155.8,916.1945" style="stroke:#181818;stroke-width:1.0;"/></g><!--link InMemoryFigureRepository to FigureRepository--><g id="link_InMemoryFigureRepository_FigureRepository"><path codeLine="92" d="M291.92,967.4245 C364.79,986.4445 467.52,1013.2745 553.5,1035.7245 " fill="none" id="InMemoryFigureRepository-to-FigureRepository" style="stroke:#181818;stroke-width:1.0;stroke-dasharray:7.0,7.0;"/><polygon fill="none" points="555.4,1028.9845,572.98,1040.8145,551.86,1042.5345,555.4,1028.9845" style="stroke:#181818;stroke-width:1.0;"/></g><!--link InMemoryRepositoryFactory to RepositoryFactory--><g id="link_InMemoryRepositoryFactory_RepositoryFactory"><path codeLine="95" d="M296.21,760.9145 C389.38,800.9545 519.48,856.8645 609.85,895.7045 " fill="none" id="InMemoryRepositoryFactory-to-RepositoryFactory" style="stroke:#181818;stroke-width:1.0;stroke-dasharray:7.0,7.0;"/><polygon fill="none" points="612.9,889.3945,628.51,903.7245,607.37,902.2545,612.9,889.3945" style="stroke:#181818;stroke-width:1.0;"/></g><!--link InMemoryRepositoryFactory to InMemoryFigureRepository--><g id="link_InMemoryRepositoryFactory_InMemoryFigureRepository"><path codeLine="96" d="M184.67,760.9145 C188.04,806.5045 192.95,872.6645 195.77,910.7745 " fill="none" id="InMemoryRepositoryFactory-to-InMemoryFigureRepository" style="stroke:#181818;stroke-width:1.0;stroke-dasharray:7.0,7.0;"/><polygon fill="#181818" points="196.17,916.1945,199.4903,906.9222,195.7985,911.2083,191.5124,907.5166,196.17,916.1945" style="stroke:#181818;stroke-width:1.0;"/></g><!--link FigureRepository to Figure--><g id="link_FigureRepository_Figure"><path codeLine="101" d="M713.51,1116.9645 C712.21,1149.3845 710.29,1197.2845 708.72,1236.5545 " fill="none" id="FigureRepository-to-Figure" style="stroke:#181818;stroke-width:1.0;stroke-dasharray:7.0,7.0;"/><polygon fill="#181818" points="708.51,1241.7845,712.8665,1232.9516,708.7098,1236.7885,704.8729,1232.6319,708.51,1241.7845" style="stroke:#181818;stroke-width:1.0;"/></g><!--link RepositoryFactory to FigureRepository--><g id="link_RepositoryFactory_FigureRepository"><path codeLine="104" d="M715,980.1445 C715,997.2545 715,1017.6445 715,1035.3645 " fill="none" id="RepositoryFactory-to-FigureRepository" style="stroke:#181818;stroke-width:1.0;stroke-dasharray:7.0,7.0;"/><polygon fill="#181818" points="715,1040.7645,719,1031.7645,715,1035.7645,711,1031.7645,715,1040.7645" style="stroke:#181818;stroke-width:1.0;"/></g><!--link Figure to Code--><g id="link_Figure_Code"><path codeLine="109" d="M629.78,1369.0145 C596.25,1396.5645 557.84,1428.1245 528.18,1452.4845 " fill="none" id="Figure-to-Code" style="stroke:#181818;stroke-width:1.0;"/><polygon fill="#181818" points="524.24,1455.7245,533.7323,1453.0983,528.1021,1452.549,528.6514,1446.9189,524.24,1455.7245" style="stroke:#181818;stroke-width:1.0;"/><text fill="#000000" font-family="sans-serif" font-size="20" lengthAdjust="spacing" textLength="43" x="593" y="1420.6563">code</text><text fill="#000000" font-family="sans-serif" font-size="20" lengthAdjust="spacing" textLength="11" x="519.5736" y="1443.3983">1</text></g><!--link Figure to Version--><g id="link_Figure_Version"><path codeLine="110" d="M697.27,1369.0145 C693.52,1395.8845 689.25,1426.5745 685.88,1450.6845 " fill="none" id="Figure-to-Version" style="stroke:#181818;stroke-width:1.0;"/><polygon fill="#181818" points="685.18,1455.7245,690.3755,1447.3575,685.8651,1450.7717,682.4509,1446.2613,685.18,1455.7245" style="stroke:#181818;stroke-width:1.0;"/><text fill="#000000" font-family="sans-serif" font-size="20" lengthAdjust="spacing" textLength="62" x="694" y="1420.6563">version</text><text fill="#000000" font-family="sans-serif" font-size="20" lengthAdjust="spacing" textLength="11" x="674.129" y="1443.3983">1</text></g><!--link Figure to Description--><g id="link_Figure_Description"><path codeLine="111" d="M764.76,1369.0145 C790.4,1396.3345 819.74,1427.6045 842.53,1451.8945 " fill="none" id="Figure-to-Description" style="stroke:#181818;stroke-width:1.0;"/><polygon fill="#181818" points="846.12,1455.7245,842.8839,1446.4225,842.7008,1452.0764,837.0469,1451.8933,846.12,1455.7245" style="stroke:#181818;stroke-width:1.0;"/><text fill="#000000" font-family="sans-serif" font-size="20" lengthAdjust="spacing" textLength="95" x="815" y="1420.6563">description</text><text fill="#000000" font-family="sans-serif" font-size="20" lengthAdjust="spacing" textLength="11" x="828.6844" y="1443.3983">1</text></g><!--link ListPublicCatalogueUI to ListPublicCatalogueController--><g id="link_ListPublicCatalogueUI_ListPublicCatalogueController"><path codeLine="116" d="M825,152.3345 C825,179.1145 825,212.1645 825,239.6345 " fill="none" id="ListPublicCatalogueUI-to-ListPublicCatalogueController" style="stroke:#181818;stroke-width:1.0;stroke-dasharray:7.0,7.0;"/><polygon fill="#181818" points="825,244.7045,829,235.7045,825,239.7045,821,235.7045,825,244.7045" style="stroke:#181818;stroke-width:1.0;"/></g><!--link ListPublicCatalogueController to PersistenceContext--><g id="link_ListPublicCatalogueController_PersistenceContext"><path codeLine="121" d="M825,346.1445 C825,380.8645 825,426.7245 825,459.6745 " fill="none" id="ListPublicCatalogueController-to-PersistenceContext" style="stroke:#181818;stroke-width:1.0;stroke-dasharray:7.0,7.0;"/><polygon fill="#181818" points="825,464.8445,829,455.8445,825,459.8445,821,455.8445,825,464.8445" style="stroke:#181818;stroke-width:1.0;"/><text fill="#000000" font-family="sans-serif" font-size="20" lengthAdjust="spacing" textLength="204" x="826" y="399.6563">getRepositoryFactory()</text></g><!--link ListPublicCatalogueController to RepositoryFactory--><g id="link_ListPublicCatalogueController_RepositoryFactory"><path codeLine="122" d="M680.32,345.9945 C651.08,362.7145 623.87,384.5745 606,412.8945 C505.96,571.4745 629.22,805.1745 687.58,899.3345 " fill="none" id="ListPublicCatalogueController-to-RepositoryFactory" style="stroke:#181818;stroke-width:1.0;stroke-dasharray:7.0,7.0;"/><polygon fill="#181818" points="690.3,903.7145,688.9368,893.9605,687.6564,899.4705,682.1464,898.1902,690.3,903.7145" style="stroke:#181818;stroke-width:1.0;"/><text fill="#000000" font-family="sans-serif" font-size="20" lengthAdjust="spacing" textLength="192" x="571" y="594.6563">getFigureRepository()</text></g><!--link ListPublicCatalogueController to FigureRepository--><g id="link_ListPublicCatalogueController_FigureRepository"><path codeLine="123" d="M989.34,321.4945 C1161.76,352.5845 1408,412.6145 1408,501.8945 C1408,501.8945 1408,501.8945 1408,942.8945 C1408,975.1545 1383.28,977.8545 1354,991.3945 C1273.77,1028.4945 1049.39,1052.7345 889.22,1065.8645 " fill="none" id="ListPublicCatalogueController-to-FigureRepository" style="stroke:#181818;stroke-width:1.0;stroke-dasharray:7.0,7.0;"/><polygon fill="#181818" points="884.02,1066.2945,893.3203,1069.5355,889.0028,1065.8805,892.6579,1061.563,884.02,1066.2945" style="stroke:#181818;stroke-width:1.0;"/><text fill="#000000" font-family="sans-serif" font-size="20" lengthAdjust="spacing" textLength="183" x="1409" y="718.6563">getPublicCatalogue()</text></g><!--SRC=[fLRHRjem57tFLrZqeQqgecsF4R9KmP0oRLgrYRwRO58NOqUnwTgj_Flin0GdlewObWSWtEDxpd5kJg9sJ5Ia9dikYntTe0tTaWFNIodqJ_QReayV4aKrKjI2jAoHa88cIKMA7IafcZpGMZ6bgIZC2RfQD0Vwao1p59meXJp4t7IbhzgLxN67Igf_q4egPfg_BKbXlsvkCnJysQmv9aUFl3gtJjc-ukbpHM0HNoeIDFHaJ470pMrVPowK9ePhJ5wVSydAGqtFM4TfOACscDZJlO73NdBnhQcE6ugY_jFLgM_Kckzi8VU42Tz60-hgtl80P0zcvgNU4ZDROsOxAqDDrjBmlsxL4QA9kEgnF1pMd1LpeWcNvS7i6yhGLtFzPkrYF6HmNzTj6TsNPKrBegctgQuqctqMckatZFqxXAcMiI5QIyaf4RtoVQ7P2mtAlSisbnlR_v7m0qNVry-qq2UM7kxHpg8Kbq0NL1Krg_Get9-6LGuFjDsymQQkSjDobMFSomhr97-rm7R3b9lb_j3PbAabvxI-cEwynD2UJmRqF5ne9oouzesSQo_tt000IJZ5wBKf0hKqnU7OPsWR3FbO0oZNnl3Hs32EeBXrrg2iwxo1nUax3k_Dhbbuk_lTmcgQlkD8UaNm6985cJo5iHCNpRzEO1JHY8nuZeTwqFUVt8yjmb6fPXy2XN73WD7qPDGj7h45AmCKjG-JVfWED9YnmcZoSTB4NOOAymbLNSXbwANz0M6yTClCMr5tOeIiSYS23gvE4rosxaOZo33u9p4cBxF663sOPGPk-opo3dPXn_3wPV2p-C9-mJHbu4CtIVu2]--></g></svg>