<?xml version="1.0" encoding="UTF-8" standalone="no"?><svg xmlns="http://www.w3.org/2000/svg" xmlns:xlink="http://www.w3.org/1999/xlink" contentStyleType="text/css" height="605px" preserveAspectRatio="none" style="width:1396px;height:605px;background:#FFFFFF;" version="1.1" viewBox="0 0 1396 605" width="1396px" zoomAndPan="magnify"><defs/><g><!--cluster Figure --><g id="cluster_Figure "><path d="M8.5,6.8945 L75.5,6.8945 A3.75,3.75 0 0 1 78,9.3945 L85,38.0508 L1164.5,38.0508 A2.5,2.5 0 0 1 1167,40.5508 L1167,420.8945 A2.5,2.5 0 0 1 1164.5,423.3945 L8.5,423.3945 A2.5,2.5 0 0 1 6,420.8945 L6,9.3945 A2.5,2.5 0 0 1 8.5,6.8945 " fill="none" style="stroke:#000000;stroke-width:1.5;"/><line style="stroke:#000000;stroke-width:1.5;" x1="6" x2="85" y1="38.0508" y2="38.0508"/><text fill="#000000" font-family="sans-serif" font-size="20" font-weight="bold" lengthAdjust="spacing" textLength="60" x="10" y="29.6563">Figure</text><text fill="#000000" font-family="sans-serif" font-size="20" font-style="italic" lengthAdjust="spacing" textLength="111" x="535" y="60.8125">«aggregate»</text></g><!--cluster Category --><g id="cluster_Category "><path d="M1193.5,249.8945 L1286.5,249.8945 A3.75,3.75 0 0 1 1289,252.3945 L1296,281.0508 L1386.5,281.0508 A2.5,2.5 0 0 1 1389,283.5508 L1389,596.3945 A2.5,2.5 0 0 1 1386.5,598.8945 L1193.5,598.8945 A2.5,2.5 0 0 1 1191,596.3945 L1191,252.3945 A2.5,2.5 0 0 1 1193.5,249.8945 " fill="none" style="stroke:#000000;stroke-width:1.5;"/><line style="stroke:#000000;stroke-width:1.5;" x1="1191" x2="1296" y1="281.0508" y2="281.0508"/><text fill="#000000" font-family="sans-serif" font-size="20" font-weight="bold" lengthAdjust="spacing" textLength="86" x="1195" y="272.6563">Category</text><text fill="#000000" font-family="sans-serif" font-size="20" font-style="italic" lengthAdjust="spacing" textLength="111" x="1238.5" y="303.8125">«aggregate»</text></g><!--class Figure--><g id="elem_Figure"><rect codeLine="4" fill="#F1F1F1" height="101.4688" id="Figure" rx="2.5" ry="2.5" style="stroke:#181818;stroke-width:0.5;" width="101" x="657.5" y="75.8945"/><ellipse cx="673.5" cy="118.6289" fill="#ADD1B2" rx="12" ry="12" style="stroke:#181818;stroke-width:1.0;"/><path d="M675.6406,113.5508 Q675.8281,113.3008 676.0469,113.1758 Q676.2656,113.0352 676.5156,113.0352 Q676.9531,113.0352 677.2344,113.3477 Q677.5156,113.6445 677.5156,114.3633 L677.5156,116.0664 Q677.5156,116.7852 677.2344,117.0977 Q676.9531,117.4102 676.5156,117.4102 Q676.125,117.4102 675.875,117.1758 Q675.625,116.957 675.5156,116.3477 Q675.4531,115.9258 675.2344,115.707 Q674.8438,115.2695 674.125,115.0039 Q673.4063,114.7383 672.6875,114.7383 Q671.7813,114.7383 671.0313,115.1289 Q670.2813,115.5195 669.7031,116.4102 Q669.125,117.2852 669.125,118.4883 L669.125,119.7852 Q669.125,121.2383 670.1719,122.207 Q671.2344,123.1758 673.0938,123.1758 Q674.2031,123.1758 674.9844,122.8633 Q675.4219,122.6914 675.9375,122.1758 Q676.25,121.8633 676.4219,121.7695 Q676.5938,121.6758 676.8281,121.6758 Q677.2188,121.6758 677.5156,121.9883 Q677.8281,122.2852 677.8281,122.6914 Q677.8281,123.0977 677.4219,123.5664 Q676.8281,124.2539 675.8906,124.6445 Q674.625,125.1758 673.1094,125.1758 Q671.3281,125.1758 669.9063,124.4414 Q668.75,123.8477 667.9375,122.582 Q667.125,121.3164 667.125,119.832 L667.125,118.4727 Q667.125,116.9102 667.8438,115.5664 Q668.5781,114.207 669.8594,113.4727 Q671.1563,112.7383 672.6094,112.7383 Q673.4688,112.7383 674.2188,112.9414 Q674.9844,113.1445 675.6406,113.5508 Z " fill="#000000"/><text fill="#000000" font-family="sans-serif" font-size="20" font-style="italic" lengthAdjust="spacing" textLength="71" x="686.5" y="101.6563">«Entity»</text><text fill="#000000" font-family="sans-serif" font-size="20" font-style="italic" lengthAdjust="spacing" textLength="56" x="694" y="126.8125">«root»</text><text fill="#000000" font-family="sans-serif" font-size="20" lengthAdjust="spacing" textLength="55" x="694.5" y="151.9688">Figure</text><line style="stroke:#181818;stroke-width:0.5;" x1="658.5" x2="757.5" y1="161.3633" y2="161.3633"/><line style="stroke:#181818;stroke-width:0.5;" x1="658.5" x2="757.5" y1="169.3633" y2="169.3633"/></g><!--class Code--><g id="elem_Code"><rect codeLine="7" fill="#F1F1F1" height="76.3125" id="Code" rx="2.5" ry="2.5" style="stroke:#181818;stroke-width:0.5;" width="166" x="22" y="331.3945"/><ellipse cx="38" cy="361.5508" fill="#ADD1B2" rx="12" ry="12" style="stroke:#181818;stroke-width:1.0;"/><path d="M40.1406,356.4727 Q40.3281,356.2227 40.5469,356.0977 Q40.7656,355.957 41.0156,355.957 Q41.4531,355.957 41.7344,356.2695 Q42.0156,356.5664 42.0156,357.2852 L42.0156,358.9883 Q42.0156,359.707 41.7344,360.0195 Q41.4531,360.332 41.0156,360.332 Q40.625,360.332 40.375,360.0977 Q40.125,359.8789 40.0156,359.2695 Q39.9531,358.8477 39.7344,358.6289 Q39.3438,358.1914 38.625,357.9258 Q37.9063,357.6602 37.1875,357.6602 Q36.2813,357.6602 35.5313,358.0508 Q34.7813,358.4414 34.2031,359.332 Q33.625,360.207 33.625,361.4102 L33.625,362.707 Q33.625,364.1602 34.6719,365.1289 Q35.7344,366.0977 37.5938,366.0977 Q38.7031,366.0977 39.4844,365.7852 Q39.9219,365.6133 40.4375,365.0977 Q40.75,364.7852 40.9219,364.6914 Q41.0938,364.5977 41.3281,364.5977 Q41.7188,364.5977 42.0156,364.9102 Q42.3281,365.207 42.3281,365.6133 Q42.3281,366.0195 41.9219,366.4883 Q41.3281,367.1758 40.3906,367.5664 Q39.125,368.0977 37.6094,368.0977 Q35.8281,368.0977 34.4063,367.3633 Q33.25,366.7695 32.4375,365.5039 Q31.625,364.2383 31.625,362.7539 L31.625,361.3945 Q31.625,359.832 32.3438,358.4883 Q33.0781,357.1289 34.3594,356.3945 Q35.6563,355.6602 37.1094,355.6602 Q37.9688,355.6602 38.7188,355.8633 Q39.4844,356.0664 40.1406,356.4727 Z " fill="#000000"/><text fill="#000000" font-family="sans-serif" font-size="20" font-style="italic" lengthAdjust="spacing" textLength="136" x="51" y="357.1563">«Value Object»</text><text fill="#000000" font-family="sans-serif" font-size="20" lengthAdjust="spacing" textLength="47" x="95.5" y="382.3125">Code</text><line style="stroke:#181818;stroke-width:0.5;" x1="23" x2="187" y1="391.707" y2="391.707"/><line style="stroke:#181818;stroke-width:0.5;" x1="23" x2="187" y1="399.707" y2="399.707"/></g><!--class Version--><g id="elem_Version"><rect codeLine="10" fill="#F1F1F1" height="76.3125" id="Version" rx="2.5" ry="2.5" style="stroke:#181818;stroke-width:0.5;" width="166" x="223" y="331.3945"/><ellipse cx="239" cy="361.5508" fill="#ADD1B2" rx="12" ry="12" style="stroke:#181818;stroke-width:1.0;"/><path d="M241.1406,356.4727 Q241.3281,356.2227 241.5469,356.0977 Q241.7656,355.957 242.0156,355.957 Q242.4531,355.957 242.7344,356.2695 Q243.0156,356.5664 243.0156,357.2852 L243.0156,358.9883 Q243.0156,359.707 242.7344,360.0195 Q242.4531,360.332 242.0156,360.332 Q241.625,360.332 241.375,360.0977 Q241.125,359.8789 241.0156,359.2695 Q240.9531,358.8477 240.7344,358.6289 Q240.3438,358.1914 239.625,357.9258 Q238.9063,357.6602 238.1875,357.6602 Q237.2813,357.6602 236.5313,358.0508 Q235.7813,358.4414 235.2031,359.332 Q234.625,360.207 234.625,361.4102 L234.625,362.707 Q234.625,364.1602 235.6719,365.1289 Q236.7344,366.0977 238.5938,366.0977 Q239.7031,366.0977 240.4844,365.7852 Q240.9219,365.6133 241.4375,365.0977 Q241.75,364.7852 241.9219,364.6914 Q242.0938,364.5977 242.3281,364.5977 Q242.7188,364.5977 243.0156,364.9102 Q243.3281,365.207 243.3281,365.6133 Q243.3281,366.0195 242.9219,366.4883 Q242.3281,367.1758 241.3906,367.5664 Q240.125,368.0977 238.6094,368.0977 Q236.8281,368.0977 235.4063,367.3633 Q234.25,366.7695 233.4375,365.5039 Q232.625,364.2383 232.625,362.7539 L232.625,361.3945 Q232.625,359.832 233.3438,358.4883 Q234.0781,357.1289 235.3594,356.3945 Q236.6563,355.6602 238.1094,355.6602 Q238.9688,355.6602 239.7188,355.8633 Q240.4844,356.0664 241.1406,356.4727 Z " fill="#000000"/><text fill="#000000" font-family="sans-serif" font-size="20" font-style="italic" lengthAdjust="spacing" textLength="136" x="252" y="357.1563">«Value Object»</text><text fill="#000000" font-family="sans-serif" font-size="20" lengthAdjust="spacing" textLength="66" x="287" y="382.3125">Version</text><line style="stroke:#181818;stroke-width:0.5;" x1="224" x2="388" y1="391.707" y2="391.707"/><line style="stroke:#181818;stroke-width:0.5;" x1="224" x2="388" y1="399.707" y2="399.707"/></g><!--class Description--><g id="elem_Description"><rect codeLine="13" fill="#F1F1F1" height="76.3125" id="Description" rx="2.5" ry="2.5" style="stroke:#181818;stroke-width:0.5;" width="166" x="424" y="331.3945"/><ellipse cx="440" cy="361.5508" fill="#ADD1B2" rx="12" ry="12" style="stroke:#181818;stroke-width:1.0;"/><path d="M442.1406,356.4727 Q442.3281,356.2227 442.5469,356.0977 Q442.7656,355.957 443.0156,355.957 Q443.4531,355.957 443.7344,356.2695 Q444.0156,356.5664 444.0156,357.2852 L444.0156,358.9883 Q444.0156,359.707 443.7344,360.0195 Q443.4531,360.332 443.0156,360.332 Q442.625,360.332 442.375,360.0977 Q442.125,359.8789 442.0156,359.2695 Q441.9531,358.8477 441.7344,358.6289 Q441.3438,358.1914 440.625,357.9258 Q439.9063,357.6602 439.1875,357.6602 Q438.2813,357.6602 437.5313,358.0508 Q436.7813,358.4414 436.2031,359.332 Q435.625,360.207 435.625,361.4102 L435.625,362.707 Q435.625,364.1602 436.6719,365.1289 Q437.7344,366.0977 439.5938,366.0977 Q440.7031,366.0977 441.4844,365.7852 Q441.9219,365.6133 442.4375,365.0977 Q442.75,364.7852 442.9219,364.6914 Q443.0938,364.5977 443.3281,364.5977 Q443.7188,364.5977 444.0156,364.9102 Q444.3281,365.207 444.3281,365.6133 Q444.3281,366.0195 443.9219,366.4883 Q443.3281,367.1758 442.3906,367.5664 Q441.125,368.0977 439.6094,368.0977 Q437.8281,368.0977 436.4063,367.3633 Q435.25,366.7695 434.4375,365.5039 Q433.625,364.2383 433.625,362.7539 L433.625,361.3945 Q433.625,359.832 434.3438,358.4883 Q435.0781,357.1289 436.3594,356.3945 Q437.6563,355.6602 439.1094,355.6602 Q439.9688,355.6602 440.7188,355.8633 Q441.4844,356.0664 442.1406,356.4727 Z " fill="#000000"/><text fill="#000000" font-family="sans-serif" font-size="20" font-style="italic" lengthAdjust="spacing" textLength="136" x="453" y="357.1563">«Value Object»</text><text fill="#000000" font-family="sans-serif" font-size="20" lengthAdjust="spacing" textLength="98" x="472" y="382.3125">Description</text><line style="stroke:#181818;stroke-width:0.5;" x1="425" x2="589" y1="391.707" y2="391.707"/><line style="stroke:#181818;stroke-width:0.5;" x1="425" x2="589" y1="399.707" y2="399.707"/></g><!--class FigureStatus--><g id="elem_FigureStatus"><rect codeLine="16" fill="#F1F1F1" height="76.3125" id="FigureStatus" rx="2.5" ry="2.5" style="stroke:#181818;stroke-width:0.5;" width="166" x="625" y="331.3945"/><ellipse cx="641" cy="361.5508" fill="#EB937F" rx="12" ry="12" style="stroke:#181818;stroke-width:1.0;"/><path d="M638.9531,362.6133 L638.9531,365.5508 L644.0469,365.5508 L644.0469,364.457 Q644.0469,363.7383 644.3281,363.4414 Q644.6094,363.1289 645.0625,363.1289 Q645.5,363.1289 645.7813,363.4414 Q646.0625,363.7383 646.0625,364.457 L646.0625,367.5508 L636.625,367.5508 Q635.9063,367.5508 635.5938,367.2695 Q635.2969,366.9883 635.2969,366.5508 Q635.2969,366.0977 635.6094,365.832 Q635.9219,365.5508 636.625,365.5508 L636.9375,365.5508 L636.9375,357.7227 L636.625,357.7227 Q635.9063,357.7227 635.5938,357.4414 Q635.2969,357.1602 635.2969,356.707 Q635.2969,356.2539 635.5938,355.9883 Q635.9063,355.707 636.625,355.707 L645.6094,355.707 L645.6094,358.7539 Q645.6094,359.4727 645.3281,359.7852 Q645.0625,360.082 644.625,360.082 Q644.1719,360.082 643.8906,359.7852 Q643.6094,359.4883 643.6094,358.7539 L643.6094,357.7227 L638.9531,357.7227 L638.9531,360.6133 L640.7031,360.6133 Q640.7031,359.832 640.8438,359.5977 Q641.1563,359.1289 641.7031,359.1289 Q642.1563,359.1289 642.4219,359.4414 Q642.7031,359.7383 642.7031,360.457 L642.7031,362.7695 Q642.7031,363.4258 642.5469,363.6445 Q642.2344,364.0977 641.7031,364.0977 Q641.1563,364.0977 640.8438,363.6289 Q640.7031,363.3945 640.7031,362.6133 L638.9531,362.6133 Z " fill="#000000"/><text fill="#000000" font-family="sans-serif" font-size="20" font-style="italic" lengthAdjust="spacing" textLength="136" x="654" y="357.1563">«Value Object»</text><text fill="#000000" font-family="sans-serif" font-size="20" lengthAdjust="spacing" textLength="111" x="666.5" y="382.3125">FigureStatus</text><line style="stroke:#181818;stroke-width:0.5;" x1="626" x2="790" y1="391.707" y2="391.707"/><line style="stroke:#181818;stroke-width:0.5;" x1="626" x2="790" y1="399.707" y2="399.707"/></g><!--class Keyword--><g id="elem_Keyword"><rect codeLine="19" fill="#F1F1F1" height="76.3125" id="Keyword" rx="2.5" ry="2.5" style="stroke:#181818;stroke-width:0.5;" width="166" x="826" y="331.3945"/><ellipse cx="842" cy="361.5508" fill="#ADD1B2" rx="12" ry="12" style="stroke:#181818;stroke-width:1.0;"/><path d="M844.1406,356.4727 Q844.3281,356.2227 844.5469,356.0977 Q844.7656,355.957 845.0156,355.957 Q845.4531,355.957 845.7344,356.2695 Q846.0156,356.5664 846.0156,357.2852 L846.0156,358.9883 Q846.0156,359.707 845.7344,360.0195 Q845.4531,360.332 845.0156,360.332 Q844.625,360.332 844.375,360.0977 Q844.125,359.8789 844.0156,359.2695 Q843.9531,358.8477 843.7344,358.6289 Q843.3438,358.1914 842.625,357.9258 Q841.9063,357.6602 841.1875,357.6602 Q840.2813,357.6602 839.5313,358.0508 Q838.7813,358.4414 838.2031,359.332 Q837.625,360.207 837.625,361.4102 L837.625,362.707 Q837.625,364.1602 838.6719,365.1289 Q839.7344,366.0977 841.5938,366.0977 Q842.7031,366.0977 843.4844,365.7852 Q843.9219,365.6133 844.4375,365.0977 Q844.75,364.7852 844.9219,364.6914 Q845.0938,364.5977 845.3281,364.5977 Q845.7188,364.5977 846.0156,364.9102 Q846.3281,365.207 846.3281,365.6133 Q846.3281,366.0195 845.9219,366.4883 Q845.3281,367.1758 844.3906,367.5664 Q843.125,368.0977 841.6094,368.0977 Q839.8281,368.0977 838.4063,367.3633 Q837.25,366.7695 836.4375,365.5039 Q835.625,364.2383 835.625,362.7539 L835.625,361.3945 Q835.625,359.832 836.3438,358.4883 Q837.0781,357.1289 838.3594,356.3945 Q839.6563,355.6602 841.1094,355.6602 Q841.9688,355.6602 842.7188,355.8633 Q843.4844,356.0664 844.1406,356.4727 Z " fill="#000000"/><text fill="#000000" font-family="sans-serif" font-size="20" font-style="italic" lengthAdjust="spacing" textLength="136" x="855" y="357.1563">«Value Object»</text><text fill="#000000" font-family="sans-serif" font-size="20" lengthAdjust="spacing" textLength="78" x="884" y="382.3125">Keyword</text><line style="stroke:#181818;stroke-width:0.5;" x1="827" x2="991" y1="391.707" y2="391.707"/><line style="stroke:#181818;stroke-width:0.5;" x1="827" x2="991" y1="399.707" y2="399.707"/></g><!--class Exclusivity--><g id="elem_Exclusivity"><rect codeLine="22" fill="#F1F1F1" height="76.3125" id="Exclusivity" rx="2.5" ry="2.5" style="stroke:#181818;stroke-width:0.5;" width="123" x="1027.5" y="331.3945"/><ellipse cx="1043.5" cy="361.5508" fill="#ADD1B2" rx="12" ry="12" style="stroke:#181818;stroke-width:1.0;"/><path d="M1045.6406,356.4727 Q1045.8281,356.2227 1046.0469,356.0977 Q1046.2656,355.957 1046.5156,355.957 Q1046.9531,355.957 1047.2344,356.2695 Q1047.5156,356.5664 1047.5156,357.2852 L1047.5156,358.9883 Q1047.5156,359.707 1047.2344,360.0195 Q1046.9531,360.332 1046.5156,360.332 Q1046.125,360.332 1045.875,360.0977 Q1045.625,359.8789 1045.5156,359.2695 Q1045.4531,358.8477 1045.2344,358.6289 Q1044.8438,358.1914 1044.125,357.9258 Q1043.4063,357.6602 1042.6875,357.6602 Q1041.7813,357.6602 1041.0313,358.0508 Q1040.2813,358.4414 1039.7031,359.332 Q1039.125,360.207 1039.125,361.4102 L1039.125,362.707 Q1039.125,364.1602 1040.1719,365.1289 Q1041.2344,366.0977 1043.0938,366.0977 Q1044.2031,366.0977 1044.9844,365.7852 Q1045.4219,365.6133 1045.9375,365.0977 Q1046.25,364.7852 1046.4219,364.6914 Q1046.5938,364.5977 1046.8281,364.5977 Q1047.2188,364.5977 1047.5156,364.9102 Q1047.8281,365.207 1047.8281,365.6133 Q1047.8281,366.0195 1047.4219,366.4883 Q1046.8281,367.1758 1045.8906,367.5664 Q1044.625,368.0977 1043.1094,368.0977 Q1041.3281,368.0977 1039.9063,367.3633 Q1038.75,366.7695 1037.9375,365.5039 Q1037.125,364.2383 1037.125,362.7539 L1037.125,361.3945 Q1037.125,359.832 1037.8438,358.4883 Q1038.5781,357.1289 1039.8594,356.3945 Q1041.1563,355.6602 1042.6094,355.6602 Q1043.4688,355.6602 1044.2188,355.8633 Q1044.9844,356.0664 1045.6406,356.4727 Z " fill="#000000"/><text fill="#000000" font-family="sans-serif" font-size="20" font-style="italic" lengthAdjust="spacing" textLength="71" x="1067.5" y="357.1563">«Entity»</text><text fill="#000000" font-family="sans-serif" font-size="20" lengthAdjust="spacing" textLength="89" x="1058.5" y="382.3125">Exclusivity</text><line style="stroke:#181818;stroke-width:0.5;" x1="1028.5" x2="1149.5" y1="391.707" y2="391.707"/><line style="stroke:#181818;stroke-width:0.5;" x1="1028.5" x2="1149.5" y1="399.707" y2="399.707"/></g><!--class Category--><g id="elem_Category"><rect codeLine="37" fill="#F1F1F1" height="101.4688" id="Category" rx="2.5" ry="2.5" style="stroke:#181818;stroke-width:0.5;" width="115" x="1219.5" y="318.8945"/><ellipse cx="1235.5" cy="361.6289" fill="#ADD1B2" rx="12" ry="12" style="stroke:#181818;stroke-width:1.0;"/><path d="M1237.6406,356.5508 Q1237.8281,356.3008 1238.0469,356.1758 Q1238.2656,356.0352 1238.5156,356.0352 Q1238.9531,356.0352 1239.2344,356.3477 Q1239.5156,356.6445 1239.5156,357.3633 L1239.5156,359.0664 Q1239.5156,359.7852 1239.2344,360.0977 Q1238.9531,360.4102 1238.5156,360.4102 Q1238.125,360.4102 1237.875,360.1758 Q1237.625,359.957 1237.5156,359.3477 Q1237.4531,358.9258 1237.2344,358.707 Q1236.8438,358.2695 1236.125,358.0039 Q1235.4063,357.7383 1234.6875,357.7383 Q1233.7813,357.7383 1233.0313,358.1289 Q1232.2813,358.5195 1231.7031,359.4102 Q1231.125,360.2852 1231.125,361.4883 L1231.125,362.7852 Q1231.125,364.2383 1232.1719,365.207 Q1233.2344,366.1758 1235.0938,366.1758 Q1236.2031,366.1758 1236.9844,365.8633 Q1237.4219,365.6914 1237.9375,365.1758 Q1238.25,364.8633 1238.4219,364.7695 Q1238.5938,364.6758 1238.8281,364.6758 Q1239.2188,364.6758 1239.5156,364.9883 Q1239.8281,365.2852 1239.8281,365.6914 Q1239.8281,366.0977 1239.4219,366.5664 Q1238.8281,367.2539 1237.8906,367.6445 Q1236.625,368.1758 1235.1094,368.1758 Q1233.3281,368.1758 1231.9063,367.4414 Q1230.75,366.8477 1229.9375,365.582 Q1229.125,364.3164 1229.125,362.832 L1229.125,361.4727 Q1229.125,359.9102 1229.8438,358.5664 Q1230.5781,357.207 1231.8594,356.4727 Q1233.1563,355.7383 1234.6094,355.7383 Q1235.4688,355.7383 1236.2188,355.9414 Q1236.9844,356.1445 1237.6406,356.5508 Z " fill="#000000"/><text fill="#000000" font-family="sans-serif" font-size="20" font-style="italic" lengthAdjust="spacing" textLength="71" x="1255.5" y="344.6563">«Entity»</text><text fill="#000000" font-family="sans-serif" font-size="20" font-style="italic" lengthAdjust="spacing" textLength="56" x="1263" y="369.8125">«root»</text><text fill="#000000" font-family="sans-serif" font-size="20" lengthAdjust="spacing" textLength="81" x="1250.5" y="394.9688">Category</text><line style="stroke:#181818;stroke-width:0.5;" x1="1220.5" x2="1333.5" y1="404.3633" y2="404.3633"/><line style="stroke:#181818;stroke-width:0.5;" x1="1220.5" x2="1333.5" y1="412.3633" y2="412.3633"/></g><!--class CategoryName--><g id="elem_CategoryName"><rect codeLine="40" fill="#F1F1F1" height="76.3125" id="CategoryName" rx="2.5" ry="2.5" style="stroke:#181818;stroke-width:0.5;" width="166" x="1207" y="506.8945"/><ellipse cx="1223" cy="537.0508" fill="#ADD1B2" rx="12" ry="12" style="stroke:#181818;stroke-width:1.0;"/><path d="M1225.1406,531.9727 Q1225.3281,531.7227 1225.5469,531.5977 Q1225.7656,531.457 1226.0156,531.457 Q1226.4531,531.457 1226.7344,531.7695 Q1227.0156,532.0664 1227.0156,532.7852 L1227.0156,534.4883 Q1227.0156,535.207 1226.7344,535.5195 Q1226.4531,535.832 1226.0156,535.832 Q1225.625,535.832 1225.375,535.5977 Q1225.125,535.3789 1225.0156,534.7695 Q1224.9531,534.3477 1224.7344,534.1289 Q1224.3438,533.6914 1223.625,533.4258 Q1222.9063,533.1602 1222.1875,533.1602 Q1221.2813,533.1602 1220.5313,533.5508 Q1219.7813,533.9414 1219.2031,534.832 Q1218.625,535.707 1218.625,536.9102 L1218.625,538.207 Q1218.625,539.6602 1219.6719,540.6289 Q1220.7344,541.5977 1222.5938,541.5977 Q1223.7031,541.5977 1224.4844,541.2852 Q1224.9219,541.1133 1225.4375,540.5977 Q1225.75,540.2852 1225.9219,540.1914 Q1226.0938,540.0977 1226.3281,540.0977 Q1226.7188,540.0977 1227.0156,540.4102 Q1227.3281,540.707 1227.3281,541.1133 Q1227.3281,541.5195 1226.9219,541.9883 Q1226.3281,542.6758 1225.3906,543.0664 Q1224.125,543.5977 1222.6094,543.5977 Q1220.8281,543.5977 1219.4063,542.8633 Q1218.25,542.2695 1217.4375,541.0039 Q1216.625,539.7383 1216.625,538.2539 L1216.625,536.8945 Q1216.625,535.332 1217.3438,533.9883 Q1218.0781,532.6289 1219.3594,531.8945 Q1220.6563,531.1602 1222.1094,531.1602 Q1222.9688,531.1602 1223.7188,531.3633 Q1224.4844,531.5664 1225.1406,531.9727 Z " fill="#000000"/><text fill="#000000" font-family="sans-serif" font-size="20" font-style="italic" lengthAdjust="spacing" textLength="136" x="1236" y="532.6563">«Value Object»</text><text fill="#000000" font-family="sans-serif" font-size="20" lengthAdjust="spacing" textLength="132" x="1238" y="557.8125">CategoryName</text><line style="stroke:#181818;stroke-width:0.5;" x1="1208" x2="1372" y1="567.207" y2="567.207"/><line style="stroke:#181818;stroke-width:0.5;" x1="1208" x2="1372" y1="575.207" y2="575.207"/></g><!--link Figure to Keyword--><g id="link_Figure_Keyword"><path codeLine="27" d="M758.77,155.1045 C780.43,168.6845 804.84,186.5045 823,206.8945 C854.61,242.3945 878.65,291.5745 893.17,326.3045 " fill="none" id="Figure-to-Keyword" style="stroke:#181818;stroke-width:1.0;"/><polygon fill="#181818" points="895.25,331.3245,895.4959,321.4787,893.334,326.7062,888.1066,324.5443,895.25,331.3245" style="stroke:#181818;stroke-width:1.0;"/><text fill="#000000" font-family="sans-serif" font-size="20" lengthAdjust="spacing" textLength="85" x="842" y="228.6563">keywords</text><text fill="#000000" font-family="sans-serif" font-size="20" lengthAdjust="spacing" textLength="31" x="859.5883" y="319.0142">1..*</text></g><!--link Figure to Exclusivity--><g id="link_Figure_Exclusivity"><path codeLine="28" d="M758.67,135.1445 C823.79,147.4445 937.11,177.0345 1010,241.8945 C1036.33,265.3245 1057,299.6045 1070.58,326.5745 " fill="none" id="Figure-to-Exclusivity" style="stroke:#181818;stroke-width:1.0;"/><polygon fill="#181818" points="1072.86,331.1745,1072.4379,321.3347,1070.6353,326.6967,1065.2734,324.8942,1072.86,331.1745" style="stroke:#181818;stroke-width:1.0;"/><text fill="#000000" font-family="sans-serif" font-size="20" lengthAdjust="spacing" textLength="87" x="997" y="228.6563">exclusivity</text><text fill="#000000" font-family="sans-serif" font-size="20" lengthAdjust="spacing" textLength="11" x="1058.5464" y="319.1578">1</text></g><!--link Figure to Code--><g id="link_Figure_Code"><path codeLine="29" d="M657.42,128.0545 C561.75,131.5145 350.81,149.9045 205,241.8945 C171.85,262.8045 145.05,298.6845 127.57,326.9045 " fill="none" id="Figure-to-Code" style="stroke:#181818;stroke-width:1.0;"/><polygon fill="#181818" points="124.84,331.3645,132.9447,325.7686,127.4461,327.0974,126.1173,321.5988,124.84,331.3645" style="stroke:#181818;stroke-width:1.0;"/><text fill="#000000" font-family="sans-serif" font-size="20" lengthAdjust="spacing" textLength="43" x="268" y="228.6563">code</text><text fill="#000000" font-family="sans-serif" font-size="20" lengthAdjust="spacing" textLength="11" x="116.1254" y="319.0606">1</text></g><!--link Figure to Version--><g id="link_Figure_Version"><path codeLine="30" d="M657.48,137.7545 C594.03,152.6245 484.03,184.7445 406,241.8945 C374.91,264.6645 348.35,299.5145 330.43,326.8745 " fill="none" id="Figure-to-Version" style="stroke:#181818;stroke-width:1.0;"/><polygon fill="#181818" points="327.63,331.1945,335.8829,325.8196,330.3504,326.9994,329.1706,321.4669,327.63,331.1945" style="stroke:#181818;stroke-width:1.0;"/><text fill="#000000" font-family="sans-serif" font-size="20" lengthAdjust="spacing" textLength="62" x="460" y="228.6563">version</text><text fill="#000000" font-family="sans-serif" font-size="20" lengthAdjust="spacing" textLength="11" x="319.2007" y="318.8635">1</text></g><!--link Figure to Description--><g id="link_Figure_Description"><path codeLine="31" d="M657.4,159.6345 C638.96,172.8845 618.77,189.2545 603,206.8945 C570.54,243.1945 543.29,292.0845 526.21,326.5345 " fill="none" id="Figure-to-Description" style="stroke:#181818;stroke-width:1.0;"/><polygon fill="#181818" points="523.98,331.0845,531.5344,324.7654,526.1817,326.5954,524.3517,321.2427,523.98,331.0845" style="stroke:#181818;stroke-width:1.0;"/><text fill="#000000" font-family="sans-serif" font-size="20" lengthAdjust="spacing" textLength="95" x="604" y="228.6563">description</text><text fill="#000000" font-family="sans-serif" font-size="20" lengthAdjust="spacing" textLength="11" x="514.7379" y="319.054">1</text></g><!--link Figure to FigureStatus--><g id="link_Figure_FigureStatus"><path codeLine="32" d="M708,177.0345 C708,220.9045 708,284.2145 708,325.8145 " fill="none" id="Figure-to-FigureStatus" style="stroke:#181818;stroke-width:1.0;"/><polygon fill="#181818" points="708,331.0345,712,322.0345,708,326.0345,704,322.0345,708,331.0345" style="stroke:#181818;stroke-width:1.0;"/><text fill="#000000" font-family="sans-serif" font-size="20" lengthAdjust="spacing" textLength="105" x="709" y="228.6563">figureStatus</text><text fill="#000000" font-family="sans-serif" font-size="20" lengthAdjust="spacing" textLength="11" x="696.1578" y="318.9963">1</text></g><!--link Category to CategoryName--><g id="link_Category_CategoryName"><path codeLine="44" d="M1280.73,420.1145 C1282.66,445.9145 1284.99,477.0945 1286.84,501.7045 " fill="none" id="Category-to-CategoryName" style="stroke:#181818;stroke-width:1.0;"/><polygon fill="#181818" points="1287.22,506.8545,1290.5403,497.5822,1286.8485,501.8683,1282.5624,498.1766,1287.22,506.8545" style="stroke:#181818;stroke-width:1.0;"/><text fill="#000000" font-family="sans-serif" font-size="20" lengthAdjust="spacing" textLength="48" x="1285" y="471.6563">name</text><text fill="#000000" font-family="sans-serif" font-size="20" lengthAdjust="spacing" textLength="11" x="1274.9004" y="494.549">1</text></g><!--link Figure to Category--><g id="link_Figure_Category"><path codeLine="47" d="M758.64,127.4945 C849.53,130.1845 1042.46,147.5345 1167,241.8945 C1193.86,262.2445 1218.93,290.0745 1238.33,314.4445 " fill="none" id="Figure-to-Category" style="stroke:#181818;stroke-width:1.0;"/><polygon fill="#181818" points="1241.64,318.6345,1239.205,309.0914,1238.5427,314.7094,1232.9248,314.0471,1241.64,318.6345" style="stroke:#181818;stroke-width:1.0;"/><text fill="#000000" font-family="sans-serif" font-size="20" lengthAdjust="spacing" textLength="77" x="1147" y="228.6563">category</text><text fill="#000000" font-family="sans-serif" font-size="20" lengthAdjust="spacing" textLength="11" x="1225.6602" y="306.6674">1</text></g><!--SRC=[ZP8zRyCW48Pt_ugJbqYL6gKT4VAI9akbTeYKdU8BehR1uYED6-M_bpZ-eAsbc07kZiU7UNbj8LND3AjApGlC8SS3ywNRQkLsyXlXUPKaDUC54mZfLWflmWgKCY4C2kOmo-2S9106Bvcrq36KRfIJhWdRb1gjNPQTM-eImskTNz4zApt2-ySdycbkZyPAhUQWBsYvaRMxYwFoLVUtEyUSjtEwlsBpfKq-1zsSUEcjF0OH8ZK6i5qNdLgF6PpQGf-7GlgqN3wa_Oa4YbjW_tDfV1O179Cfzgev0HxcgTrEQGB7Mp35H1AJO9WXcM9ZWGaSeYovHCvQ1oS9RPg_tlfbhG6QQQuEVsFL7PCjXix3GuoLNhQe6m4LvZbFE7uN9E-YSF4V]--></g></svg>