<svg xmlns="http://www.w3.org/2000/svg" xmlns:xlink="http://www.w3.org/1999/xlink" contentStyleType="text/css" height="364px" preserveAspectRatio="none" style="width:1126px;height:364px;background:#FFFFFF;" version="1.1" viewBox="0 0 1126 364" width="1126px" zoomAndPan="magnify"><defs/><g><!--class Figure--><g id="elem_Figure"><rect codeLine="2" fill="#F1F1F1" height="76.543" id="Figure" rx="2.5" ry="2.5" style="stroke:#181818;stroke-width:0.5;" width="71.6826" x="535" y="7"/><ellipse cx="550" cy="37.2715" fill="#ADD1B2" rx="11" ry="11" style="stroke:#181818;stroke-width:1.0;"/><path d="M552.7656,33.1465 Q552.9219,32.9277 553.1094,32.8184 Q553.2969,32.709 553.5156,32.709 Q553.8906,32.709 554.125,32.9746 Q554.3594,33.2246 554.3594,33.834 L554.3594,35.2871 Q554.3594,35.8965 554.125,36.1621 Q553.8906,36.4277 553.5156,36.4277 Q553.1719,36.4277 552.9688,36.2246 Q552.7656,36.0371 552.6563,35.5215 Q552.6094,35.1621 552.4219,34.9746 Q552.0938,34.5996 551.4844,34.3809 Q550.875,34.1621 550.25,34.1621 Q549.4844,34.1621 548.8438,34.4902 Q548.2188,34.8184 547.7188,35.5684 Q547.2344,36.3184 547.2344,37.3496 L547.2344,38.4434 Q547.2344,39.6777 548.125,40.5059 Q549.0156,41.3184 550.6094,41.3184 Q551.5469,41.3184 552.2031,41.0684 Q552.5938,40.9121 553.0156,40.4746 Q553.2813,40.209 553.4219,40.1309 Q553.5781,40.0527 553.7813,40.0527 Q554.1094,40.0527 554.3594,40.3184 Q554.625,40.5684 554.625,40.9121 Q554.625,41.2559 554.2813,41.6621 Q553.7813,42.2402 552.9844,42.5684 Q551.9063,43.0215 550.6094,43.0215 Q549.0938,43.0215 547.8906,42.3965 Q546.9063,41.8965 546.2188,40.834 Q545.5313,39.7559 545.5313,38.4746 L545.5313,37.3184 Q545.5313,35.9902 546.1406,34.8496 Q546.7656,33.6934 547.8594,33.084 Q548.9531,32.459 550.1875,32.459 Q550.9219,32.459 551.5625,32.6309 Q552.2188,32.7871 552.7656,33.1465 Z " fill="#000000"/><text fill="#000000" font-family="sans-serif" font-size="12" font-style="italic" lengthAdjust="spacing" textLength="43.3594" x="562.1616" y="24.9492">&#171;Entity&#187;</text><text fill="#000000" font-family="sans-serif" font-size="12" font-style="italic" lengthAdjust="spacing" textLength="34.0254" x="566.8286" y="40.9102">&#171;root&#187;</text><text fill="#000000" font-family="sans-serif" font-size="14" lengthAdjust="spacing" textLength="39.6826" x="564" y="59.0293">Figure</text><line style="stroke:#181818;stroke-width:0.5;" x1="536" x2="605.6826" y1="67.543" y2="67.543"/><line style="stroke:#181818;stroke-width:0.5;" x1="536" x2="605.6826" y1="75.543" y2="75.543"/></g><!--class Code--><g id="elem_Code"><rect codeLine="5" fill="#F1F1F1" height="60.582" id="Code" rx="2.5" ry="2.5" style="stroke:#181818;stroke-width:0.5;" width="110.0547" x="7" y="152"/><ellipse cx="22" cy="174.291" fill="#ADD1B2" rx="11" ry="11" style="stroke:#181818;stroke-width:1.0;"/><path d="M24.7656,170.166 Q24.9219,169.9473 25.1094,169.8379 Q25.2969,169.7285 25.5156,169.7285 Q25.8906,169.7285 26.125,169.9941 Q26.3594,170.2441 26.3594,170.8535 L26.3594,172.3066 Q26.3594,172.916 26.125,173.1816 Q25.8906,173.4473 25.5156,173.4473 Q25.1719,173.4473 24.9688,173.2441 Q24.7656,173.0566 24.6563,172.541 Q24.6094,172.1816 24.4219,171.9941 Q24.0938,171.6191 23.4844,171.4004 Q22.875,171.1816 22.25,171.1816 Q21.4844,171.1816 20.8438,171.5098 Q20.2188,171.8379 19.7188,172.5879 Q19.2344,173.3379 19.2344,174.3691 L19.2344,175.4629 Q19.2344,176.6973 20.125,177.5254 Q21.0156,178.3379 22.6094,178.3379 Q23.5469,178.3379 24.2031,178.0879 Q24.5938,177.9316 25.0156,177.4941 Q25.2813,177.2285 25.4219,177.1504 Q25.5781,177.0723 25.7813,177.0723 Q26.1094,177.0723 26.3594,177.3379 Q26.625,177.5879 26.625,177.9316 Q26.625,178.2754 26.2813,178.6816 Q25.7813,179.2598 24.9844,179.5879 Q23.9063,180.041 22.6094,180.041 Q21.0938,180.041 19.8906,179.416 Q18.9063,178.916 18.2188,177.8535 Q17.5313,176.7754 17.5313,175.4941 L17.5313,174.3379 Q17.5313,173.0098 18.1406,171.8691 Q18.7656,170.7129 19.8594,170.1035 Q20.9531,169.4785 22.1875,169.4785 Q22.9219,169.4785 23.5625,169.6504 Q24.2188,169.8066 24.7656,170.166 Z " fill="#000000"/><text fill="#000000" font-family="sans-serif" font-size="12" font-style="italic" lengthAdjust="spacing" textLength="82.0547" x="34" y="169.9492">&#171;Value Object&#187;</text><text fill="#000000" font-family="sans-serif" font-size="14" lengthAdjust="spacing" textLength="33.4688" x="58.293" y="188.0684">Code</text><line style="stroke:#181818;stroke-width:0.5;" x1="8" x2="116.0547" y1="196.582" y2="196.582"/><line style="stroke:#181818;stroke-width:0.5;" x1="8" x2="116.0547" y1="204.582" y2="204.582"/></g><!--class Version--><g id="elem_Version"><rect codeLine="6" fill="#F1F1F1" height="60.582" id="Version" rx="2.5" ry="2.5" style="stroke:#181818;stroke-width:0.5;" width="110.0547" x="152" y="152"/><ellipse cx="167" cy="174.291" fill="#ADD1B2" rx="11" ry="11" style="stroke:#181818;stroke-width:1.0;"/><path d="M169.7656,170.166 Q169.9219,169.9473 170.1094,169.8379 Q170.2969,169.7285 170.5156,169.7285 Q170.8906,169.7285 171.125,169.9941 Q171.3594,170.2441 171.3594,170.8535 L171.3594,172.3066 Q171.3594,172.916 171.125,173.1816 Q170.8906,173.4473 170.5156,173.4473 Q170.1719,173.4473 169.9688,173.2441 Q169.7656,173.0566 169.6563,172.541 Q169.6094,172.1816 169.4219,171.9941 Q169.0938,171.6191 168.4844,171.4004 Q167.875,171.1816 167.25,171.1816 Q166.4844,171.1816 165.8438,171.5098 Q165.2188,171.8379 164.7188,172.5879 Q164.2344,173.3379 164.2344,174.3691 L164.2344,175.4629 Q164.2344,176.6973 165.125,177.5254 Q166.0156,178.3379 167.6094,178.3379 Q168.5469,178.3379 169.2031,178.0879 Q169.5938,177.9316 170.0156,177.4941 Q170.2813,177.2285 170.4219,177.1504 Q170.5781,177.0723 170.7813,177.0723 Q171.1094,177.0723 171.3594,177.3379 Q171.625,177.5879 171.625,177.9316 Q171.625,178.2754 171.2813,178.6816 Q170.7813,179.2598 169.9844,179.5879 Q168.9063,180.041 167.6094,180.041 Q166.0938,180.041 164.8906,179.416 Q163.9063,178.916 163.2188,177.8535 Q162.5313,176.7754 162.5313,175.4941 L162.5313,174.3379 Q162.5313,173.0098 163.1406,171.8691 Q163.7656,170.7129 164.8594,170.1035 Q165.9531,169.4785 167.1875,169.4785 Q167.9219,169.4785 168.5625,169.6504 Q169.2188,169.8066 169.7656,170.166 Z " fill="#000000"/><text fill="#000000" font-family="sans-serif" font-size="12" font-style="italic" lengthAdjust="spacing" textLength="82.0547" x="179" y="169.9492">&#171;Value Object&#187;</text><text fill="#000000" font-family="sans-serif" font-size="14" lengthAdjust="spacing" textLength="47.4688" x="196.293" y="188.0684">Version</text><line style="stroke:#181818;stroke-width:0.5;" x1="153" x2="261.0547" y1="196.582" y2="196.582"/><line style="stroke:#181818;stroke-width:0.5;" x1="153" x2="261.0547" y1="204.582" y2="204.582"/></g><!--class Description--><g id="elem_Description"><rect codeLine="7" fill="#F1F1F1" height="60.582" id="Description" rx="2.5" ry="2.5" style="stroke:#181818;stroke-width:0.5;" width="110.0547" x="297" y="152"/><ellipse cx="312" cy="174.291" fill="#ADD1B2" rx="11" ry="11" style="stroke:#181818;stroke-width:1.0;"/><path d="M314.7656,170.166 Q314.9219,169.9473 315.1094,169.8379 Q315.2969,169.7285 315.5156,169.7285 Q315.8906,169.7285 316.125,169.9941 Q316.3594,170.2441 316.3594,170.8535 L316.3594,172.3066 Q316.3594,172.916 316.125,173.1816 Q315.8906,173.4473 315.5156,173.4473 Q315.1719,173.4473 314.9688,173.2441 Q314.7656,173.0566 314.6563,172.541 Q314.6094,172.1816 314.4219,171.9941 Q314.0938,171.6191 313.4844,171.4004 Q312.875,171.1816 312.25,171.1816 Q311.4844,171.1816 310.8438,171.5098 Q310.2188,171.8379 309.7188,172.5879 Q309.2344,173.3379 309.2344,174.3691 L309.2344,175.4629 Q309.2344,176.6973 310.125,177.5254 Q311.0156,178.3379 312.6094,178.3379 Q313.5469,178.3379 314.2031,178.0879 Q314.5938,177.9316 315.0156,177.4941 Q315.2813,177.2285 315.4219,177.1504 Q315.5781,177.0723 315.7813,177.0723 Q316.1094,177.0723 316.3594,177.3379 Q316.625,177.5879 316.625,177.9316 Q316.625,178.2754 316.2813,178.6816 Q315.7813,179.2598 314.9844,179.5879 Q313.9063,180.041 312.6094,180.041 Q311.0938,180.041 309.8906,179.416 Q308.9063,178.916 308.2188,177.8535 Q307.5313,176.7754 307.5313,175.4941 L307.5313,174.3379 Q307.5313,173.0098 308.1406,171.8691 Q308.7656,170.7129 309.8594,170.1035 Q310.9531,169.4785 312.1875,169.4785 Q312.9219,169.4785 313.5625,169.6504 Q314.2188,169.8066 314.7656,170.166 Z " fill="#000000"/><text fill="#000000" font-family="sans-serif" font-size="12" font-style="italic" lengthAdjust="spacing" textLength="82.0547" x="324" y="169.9492">&#171;Value Object&#187;</text><text fill="#000000" font-family="sans-serif" font-size="14" lengthAdjust="spacing" textLength="70.0273" x="330.0137" y="188.0684">Description</text><line style="stroke:#181818;stroke-width:0.5;" x1="298" x2="406.0547" y1="196.582" y2="196.582"/><line style="stroke:#181818;stroke-width:0.5;" x1="298" x2="406.0547" y1="204.582" y2="204.582"/></g><!--class FigureStatus--><g id="elem_FigureStatus"><rect codeLine="8" fill="#F1F1F1" height="60.582" id="FigureStatus" rx="2.5" ry="2.5" style="stroke:#181818;stroke-width:0.5;" width="111.3721" x="442.5" y="152"/><ellipse cx="457.5" cy="174.291" fill="#EB937F" rx="11" ry="11" style="stroke:#181818;stroke-width:1.0;"/><path d="M456.3594,175.0879 L456.3594,177.5879 L460.6875,177.5879 L460.6875,176.666 Q460.6875,176.0566 460.9219,175.791 Q461.1719,175.5254 461.5469,175.5254 Q461.9219,175.5254 462.1563,175.791 Q462.3906,176.0566 462.3906,176.666 L462.3906,179.291 L454.3906,179.291 Q453.7656,179.291 453.5,179.0566 Q453.25,178.8223 453.25,178.4316 Q453.25,178.0566 453.5156,177.8223 Q453.7813,177.5879 454.3906,177.5879 L454.6563,177.5879 L454.6563,170.9316 L454.3906,170.9316 Q453.7656,170.9316 453.5,170.6973 Q453.25,170.4629 453.25,170.0723 Q453.25,169.6973 453.5,169.4629 Q453.7656,169.2285 454.3906,169.2285 L462.0156,169.2285 L462.0156,171.8223 Q462.0156,172.4316 461.7813,172.6973 Q461.5625,172.9473 461.1719,172.9473 Q460.7969,172.9473 460.5625,172.6973 Q460.3281,172.4316 460.3281,171.8223 L460.3281,170.9316 L456.3594,170.9316 L456.3594,173.3848 L457.8438,173.3848 Q457.8438,172.7285 457.9688,172.541 Q458.2344,172.1348 458.7031,172.1348 Q459.0781,172.1348 459.3125,172.4004 Q459.5469,172.6504 459.5469,173.2598 L459.5469,175.2285 Q459.5469,175.7754 459.4219,175.9629 Q459.1563,176.3535 458.7031,176.3535 Q458.2344,176.3535 457.9688,175.9473 Q457.8438,175.7598 457.8438,175.0879 L456.3594,175.0879 Z " fill="#000000"/><text fill="#000000" font-family="sans-serif" font-size="12" font-style="italic" lengthAdjust="spacing" textLength="82.0547" x="470.1587" y="169.9492">&#171;Value Object&#187;</text><text fill="#000000" font-family="sans-serif" font-size="14" lengthAdjust="spacing" textLength="79.3721" x="471.5" y="188.0684">FigureStatus</text><line style="stroke:#181818;stroke-width:0.5;" x1="443.5" x2="552.8721" y1="196.582" y2="196.582"/><line style="stroke:#181818;stroke-width:0.5;" x1="443.5" x2="552.8721" y1="204.582" y2="204.582"/></g><!--class Keyword--><g id="elem_Keyword"><rect codeLine="9" fill="#F1F1F1" height="60.582" id="Keyword" rx="2.5" ry="2.5" style="stroke:#181818;stroke-width:0.5;" width="110.0547" x="589" y="152"/><ellipse cx="604" cy="174.291" fill="#ADD1B2" rx="11" ry="11" style="stroke:#181818;stroke-width:1.0;"/><path d="M606.7656,170.166 Q606.9219,169.9473 607.1094,169.8379 Q607.2969,169.7285 607.5156,169.7285 Q607.8906,169.7285 608.125,169.9941 Q608.3594,170.2441 608.3594,170.8535 L608.3594,172.3066 Q608.3594,172.916 608.125,173.1816 Q607.8906,173.4473 607.5156,173.4473 Q607.1719,173.4473 606.9688,173.2441 Q606.7656,173.0566 606.6563,172.541 Q606.6094,172.1816 606.4219,171.9941 Q606.0938,171.6191 605.4844,171.4004 Q604.875,171.1816 604.25,171.1816 Q603.4844,171.1816 602.8438,171.5098 Q602.2188,171.8379 601.7188,172.5879 Q601.2344,173.3379 601.2344,174.3691 L601.2344,175.4629 Q601.2344,176.6973 602.125,177.5254 Q603.0156,178.3379 604.6094,178.3379 Q605.5469,178.3379 606.2031,178.0879 Q606.5938,177.9316 607.0156,177.4941 Q607.2813,177.2285 607.4219,177.1504 Q607.5781,177.0723 607.7813,177.0723 Q608.1094,177.0723 608.3594,177.3379 Q608.625,177.5879 608.625,177.9316 Q608.625,178.2754 608.2813,178.6816 Q607.7813,179.2598 606.9844,179.5879 Q605.9063,180.041 604.6094,180.041 Q603.0938,180.041 601.8906,179.416 Q600.9063,178.916 600.2188,177.8535 Q599.5313,176.7754 599.5313,175.4941 L599.5313,174.3379 Q599.5313,173.0098 600.1406,171.8691 Q600.7656,170.7129 601.8594,170.1035 Q602.9531,169.4785 604.1875,169.4785 Q604.9219,169.4785 605.5625,169.6504 Q606.2188,169.8066 606.7656,170.166 Z " fill="#000000"/><text fill="#000000" font-family="sans-serif" font-size="12" font-style="italic" lengthAdjust="spacing" textLength="82.0547" x="616" y="169.9492">&#171;Value Object&#187;</text><text fill="#000000" font-family="sans-serif" font-size="14" lengthAdjust="spacing" textLength="54.4688" x="629.793" y="188.0684">Keyword</text><line style="stroke:#181818;stroke-width:0.5;" x1="590" x2="698.0547" y1="196.582" y2="196.582"/><line style="stroke:#181818;stroke-width:0.5;" x1="590" x2="698.0547" y1="204.582" y2="204.582"/></g><!--class Exclusivity--><g id="elem_Exclusivity"><rect codeLine="11" fill="#F1F1F1" height="60.582" id="Exclusivity" rx="2.5" ry="2.5" style="stroke:#181818;stroke-width:0.5;" width="97.3447" x="734.5" y="152"/><ellipse cx="749.5" cy="174.291" fill="#ADD1B2" rx="11" ry="11" style="stroke:#181818;stroke-width:1.0;"/><path d="M752.2656,170.166 Q752.4219,169.9473 752.6094,169.8379 Q752.7969,169.7285 753.0156,169.7285 Q753.3906,169.7285 753.625,169.9941 Q753.8594,170.2441 753.8594,170.8535 L753.8594,172.3066 Q753.8594,172.916 753.625,173.1816 Q753.3906,173.4473 753.0156,173.4473 Q752.6719,173.4473 752.4688,173.2441 Q752.2656,173.0566 752.1563,172.541 Q752.1094,172.1816 751.9219,171.9941 Q751.5938,171.6191 750.9844,171.4004 Q750.375,171.1816 749.75,171.1816 Q748.9844,171.1816 748.3438,171.5098 Q747.7188,171.8379 747.2188,172.5879 Q746.7344,173.3379 746.7344,174.3691 L746.7344,175.4629 Q746.7344,176.6973 747.625,177.5254 Q748.5156,178.3379 750.1094,178.3379 Q751.0469,178.3379 751.7031,178.0879 Q752.0938,177.9316 752.5156,177.4941 Q752.7813,177.2285 752.9219,177.1504 Q753.0781,177.0723 753.2813,177.0723 Q753.6094,177.0723 753.8594,177.3379 Q754.125,177.5879 754.125,177.9316 Q754.125,178.2754 753.7813,178.6816 Q753.2813,179.2598 752.4844,179.5879 Q751.4063,180.041 750.1094,180.041 Q748.5938,180.041 747.3906,179.416 Q746.4063,178.916 745.7188,177.8535 Q745.0313,176.7754 745.0313,175.4941 L745.0313,174.3379 Q745.0313,173.0098 745.6406,171.8691 Q746.2656,170.7129 747.3594,170.1035 Q748.4531,169.4785 749.6875,169.4785 Q750.4219,169.4785 751.0625,169.6504 Q751.7188,169.8066 752.2656,170.166 Z " fill="#000000"/><text fill="#000000" font-family="sans-serif" font-size="12" font-style="italic" lengthAdjust="spacing" textLength="43.3594" x="774.4927" y="169.9492">&#171;Entity&#187;</text><text fill="#000000" font-family="sans-serif" font-size="14" lengthAdjust="spacing" textLength="65.3447" x="763.5" y="188.0684">Exclusivity</text><line style="stroke:#181818;stroke-width:0.5;" x1="735.5" x2="830.8447" y1="196.582" y2="196.582"/><line style="stroke:#181818;stroke-width:0.5;" x1="735.5" x2="830.8447" y1="204.582" y2="204.582"/></g><!--class Customer--><g id="elem_Customer"><rect codeLine="12" fill="#F1F1F1" height="76.543" id="Customer" rx="2.5" ry="2.5" style="stroke:#181818;stroke-width:0.5;" width="92.6826" x="719.5" y="281"/><ellipse cx="734.5" cy="311.2715" fill="#ADD1B2" rx="11" ry="11" style="stroke:#181818;stroke-width:1.0;"/><path d="M737.2656,307.1465 Q737.4219,306.9277 737.6094,306.8184 Q737.7969,306.709 738.0156,306.709 Q738.3906,306.709 738.625,306.9746 Q738.8594,307.2246 738.8594,307.834 L738.8594,309.2871 Q738.8594,309.8965 738.625,310.1621 Q738.3906,310.4277 738.0156,310.4277 Q737.6719,310.4277 737.4688,310.2246 Q737.2656,310.0371 737.1563,309.5215 Q737.1094,309.1621 736.9219,308.9746 Q736.5938,308.5996 735.9844,308.3809 Q735.375,308.1621 734.75,308.1621 Q733.9844,308.1621 733.3438,308.4902 Q732.7188,308.8184 732.2188,309.5684 Q731.7344,310.3184 731.7344,311.3496 L731.7344,312.4434 Q731.7344,313.6777 732.625,314.5059 Q733.5156,315.3184 735.1094,315.3184 Q736.0469,315.3184 736.7031,315.0684 Q737.0938,314.9121 737.5156,314.4746 Q737.7813,314.209 737.9219,314.1309 Q738.0781,314.0527 738.2813,314.0527 Q738.6094,314.0527 738.8594,314.3184 Q739.125,314.5684 739.125,314.9121 Q739.125,315.2559 738.7813,315.6621 Q738.2813,316.2402 737.4844,316.5684 Q736.4063,317.0215 735.1094,317.0215 Q733.5938,317.0215 732.3906,316.3965 Q731.4063,315.8965 730.7188,314.834 Q730.0313,313.7559 730.0313,312.4746 L730.0313,311.3184 Q730.0313,309.9902 730.6406,308.8496 Q731.2656,307.6934 732.3594,307.084 Q733.4531,306.459 734.6875,306.459 Q735.4219,306.459 736.0625,306.6309 Q736.7188,306.7871 737.2656,307.1465 Z " fill="#000000"/><text fill="#000000" font-family="sans-serif" font-size="12" font-style="italic" lengthAdjust="spacing" textLength="43.3594" x="757.1616" y="298.9492">&#171;Entity&#187;</text><text fill="#000000" font-family="sans-serif" font-size="12" font-style="italic" lengthAdjust="spacing" textLength="34.0254" x="761.8286" y="314.9102">&#171;root&#187;</text><text fill="#000000" font-family="sans-serif" font-size="14" lengthAdjust="spacing" textLength="60.6826" x="748.5" y="333.0293">Customer</text><line style="stroke:#181818;stroke-width:0.5;" x1="720.5" x2="811.1826" y1="341.543" y2="341.543"/><line style="stroke:#181818;stroke-width:0.5;" x1="720.5" x2="811.1826" y1="349.543" y2="349.543"/></g><!--class Category--><g id="elem_Category"><rect codeLine="14" fill="#F1F1F1" height="76.543" id="Category" rx="2.5" ry="2.5" style="stroke:#181818;stroke-width:0.5;" width="88.8066" x="866.5" y="144"/><ellipse cx="881.5" cy="174.2715" fill="#ADD1B2" rx="11" ry="11" style="stroke:#181818;stroke-width:1.0;"/><path d="M884.2656,170.1465 Q884.4219,169.9277 884.6094,169.8184 Q884.7969,169.709 885.0156,169.709 Q885.3906,169.709 885.625,169.9746 Q885.8594,170.2246 885.8594,170.834 L885.8594,172.2871 Q885.8594,172.8965 885.625,173.1621 Q885.3906,173.4277 885.0156,173.4277 Q884.6719,173.4277 884.4688,173.2246 Q884.2656,173.0371 884.1563,172.5215 Q884.1094,172.1621 883.9219,171.9746 Q883.5938,171.5996 882.9844,171.3809 Q882.375,171.1621 881.75,171.1621 Q880.9844,171.1621 880.3438,171.4902 Q879.7188,171.8184 879.2188,172.5684 Q878.7344,173.3184 878.7344,174.3496 L878.7344,175.4434 Q878.7344,176.6777 879.625,177.5059 Q880.5156,178.3184 882.1094,178.3184 Q883.0469,178.3184 883.7031,178.0684 Q884.0938,177.9121 884.5156,177.4746 Q884.7813,177.209 884.9219,177.1309 Q885.0781,177.0527 885.2813,177.0527 Q885.6094,177.0527 885.8594,177.3184 Q886.125,177.5684 886.125,177.9121 Q886.125,178.2559 885.7813,178.6621 Q885.2813,179.2402 884.4844,179.5684 Q883.4063,180.0215 882.1094,180.0215 Q880.5938,180.0215 879.3906,179.3965 Q878.4063,178.8965 877.7188,177.834 Q877.0313,176.7559 877.0313,175.4746 L877.0313,174.3184 Q877.0313,172.9902 877.6406,171.8496 Q878.2656,170.6934 879.3594,170.084 Q880.4531,169.459 881.6875,169.459 Q882.4219,169.459 883.0625,169.6309 Q883.7188,169.7871 884.2656,170.1465 Z " fill="#000000"/><text fill="#000000" font-family="sans-serif" font-size="12" font-style="italic" lengthAdjust="spacing" textLength="43.3594" x="902.2236" y="161.9492">&#171;Entity&#187;</text><text fill="#000000" font-family="sans-serif" font-size="12" font-style="italic" lengthAdjust="spacing" textLength="34.0254" x="906.8906" y="177.9102">&#171;root&#187;</text><text fill="#000000" font-family="sans-serif" font-size="14" lengthAdjust="spacing" textLength="56.8066" x="895.5" y="196.0293">Category</text><line style="stroke:#181818;stroke-width:0.5;" x1="867.5" x2="954.3066" y1="204.543" y2="204.543"/><line style="stroke:#181818;stroke-width:0.5;" x1="867.5" x2="954.3066" y1="212.543" y2="212.543"/></g><!--class CategoryName--><g id="elem_CategoryName"><rect codeLine="15" fill="#F1F1F1" height="60.582" id="CategoryName" rx="2.5" ry="2.5" style="stroke:#181818;stroke-width:0.5;" width="126.1514" x="848" y="289"/><ellipse cx="863" cy="311.291" fill="#ADD1B2" rx="11" ry="11" style="stroke:#181818;stroke-width:1.0;"/><path d="M865.7656,307.166 Q865.9219,306.9473 866.1094,306.8379 Q866.2969,306.7285 866.5156,306.7285 Q866.8906,306.7285 867.125,306.9941 Q867.3594,307.2441 867.3594,307.8535 L867.3594,309.3066 Q867.3594,309.916 867.125,310.1816 Q866.8906,310.4473 866.5156,310.4473 Q866.1719,310.4473 865.9688,310.2441 Q865.7656,310.0566 865.6563,309.541 Q865.6094,309.1816 865.4219,308.9941 Q865.0938,308.6191 864.4844,308.4004 Q863.875,308.1816 863.25,308.1816 Q862.4844,308.1816 861.8438,308.5098 Q861.2188,308.8379 860.7188,309.5879 Q860.2344,310.3379 860.2344,311.3691 L860.2344,312.4629 Q860.2344,313.6973 861.125,314.5254 Q862.0156,315.3379 863.6094,315.3379 Q864.5469,315.3379 865.2031,315.0879 Q865.5938,314.9316 866.0156,314.4941 Q866.2813,314.2285 866.4219,314.1504 Q866.5781,314.0723 866.7813,314.0723 Q867.1094,314.0723 867.3594,314.3379 Q867.625,314.5879 867.625,314.9316 Q867.625,315.2754 867.2813,315.6816 Q866.7813,316.2598 865.9844,316.5879 Q864.9063,317.041 863.6094,317.041 Q862.0938,317.041 860.8906,316.416 Q859.9063,315.916 859.2188,314.8535 Q858.5313,313.7754 858.5313,312.4941 L858.5313,311.3379 Q858.5313,310.0098 859.1406,308.8691 Q859.7656,307.7129 860.8594,307.1035 Q861.9531,306.4785 863.1875,306.4785 Q863.9219,306.4785 864.5625,306.6504 Q865.2188,306.8066 865.7656,307.166 Z " fill="#000000"/><text fill="#000000" font-family="sans-serif" font-size="12" font-style="italic" lengthAdjust="spacing" textLength="82.0547" x="883.0483" y="306.9492">&#171;Value Object&#187;</text><text fill="#000000" font-family="sans-serif" font-size="14" lengthAdjust="spacing" textLength="94.1514" x="877" y="325.0684">CategoryName</text><line style="stroke:#181818;stroke-width:0.5;" x1="849" x2="973.1514" y1="333.582" y2="333.582"/><line style="stroke:#181818;stroke-width:0.5;" x1="849" x2="973.1514" y1="341.582" y2="341.582"/></g><!--class ShowDesigner--><g id="elem_ShowDesigner"><rect codeLine="17" fill="#F1F1F1" height="76.543" id="ShowDesigner" rx="2.5" ry="2.5" style="stroke:#181818;stroke-width:0.5;" width="123.0479" x="996.5" y="144"/><ellipse cx="1011.5" cy="174.2715" fill="#ADD1B2" rx="11" ry="11" style="stroke:#181818;stroke-width:1.0;"/><path d="M1014.2656,170.1465 Q1014.4219,169.9277 1014.6094,169.8184 Q1014.7969,169.709 1015.0156,169.709 Q1015.3906,169.709 1015.625,169.9746 Q1015.8594,170.2246 1015.8594,170.834 L1015.8594,172.2871 Q1015.8594,172.8965 1015.625,173.1621 Q1015.3906,173.4277 1015.0156,173.4277 Q1014.6719,173.4277 1014.4688,173.2246 Q1014.2656,173.0371 1014.1563,172.5215 Q1014.1094,172.1621 1013.9219,171.9746 Q1013.5938,171.5996 1012.9844,171.3809 Q1012.375,171.1621 1011.75,171.1621 Q1010.9844,171.1621 1010.3438,171.4902 Q1009.7188,171.8184 1009.2188,172.5684 Q1008.7344,173.3184 1008.7344,174.3496 L1008.7344,175.4434 Q1008.7344,176.6777 1009.625,177.5059 Q1010.5156,178.3184 1012.1094,178.3184 Q1013.0469,178.3184 1013.7031,178.0684 Q1014.0938,177.9121 1014.5156,177.4746 Q1014.7813,177.209 1014.9219,177.1309 Q1015.0781,177.0527 1015.2813,177.0527 Q1015.6094,177.0527 1015.8594,177.3184 Q1016.125,177.5684 1016.125,177.9121 Q1016.125,178.2559 1015.7813,178.6621 Q1015.2813,179.2402 1014.4844,179.5684 Q1013.4063,180.0215 1012.1094,180.0215 Q1010.5938,180.0215 1009.3906,179.3965 Q1008.4063,178.8965 1007.7188,177.834 Q1007.0313,176.7559 1007.0313,175.4746 L1007.0313,174.3184 Q1007.0313,172.9902 1007.6406,171.8496 Q1008.2656,170.6934 1009.3594,170.084 Q1010.4531,169.459 1011.6875,169.459 Q1012.4219,169.459 1013.0625,169.6309 Q1013.7188,169.7871 1014.2656,170.1465 Z " fill="#000000"/><text fill="#000000" font-family="sans-serif" font-size="12" font-style="italic" lengthAdjust="spacing" textLength="43.3594" x="1049.3442" y="161.9492">&#171;Entity&#187;</text><text fill="#000000" font-family="sans-serif" font-size="12" font-style="italic" lengthAdjust="spacing" textLength="34.0254" x="1054.0112" y="177.9102">&#171;root&#187;</text><text fill="#000000" font-family="sans-serif" font-size="14" lengthAdjust="spacing" textLength="91.0479" x="1025.5" y="196.0293">ShowDesigner</text><line style="stroke:#181818;stroke-width:0.5;" x1="997.5" x2="1118.5479" y1="204.543" y2="204.543"/><line style="stroke:#181818;stroke-width:0.5;" x1="997.5" x2="1118.5479" y1="212.543" y2="212.543"/></g><!--class Name--><g id="elem_Name"><rect codeLine="18" fill="#F1F1F1" height="60.582" id="Name" rx="2.5" ry="2.5" style="stroke:#181818;stroke-width:0.5;" width="110.0547" x="1009" y="289"/><ellipse cx="1024" cy="311.291" fill="#ADD1B2" rx="11" ry="11" style="stroke:#181818;stroke-width:1.0;"/><path d="M1026.7656,307.166 Q1026.9219,306.9473 1027.1094,306.8379 Q1027.2969,306.7285 1027.5156,306.7285 Q1027.8906,306.7285 1028.125,306.9941 Q1028.3594,307.2441 1028.3594,307.8535 L1028.3594,309.3066 Q1028.3594,309.916 1028.125,310.1816 Q1027.8906,310.4473 1027.5156,310.4473 Q1027.1719,310.4473 1026.9688,310.2441 Q1026.7656,310.0566 1026.6563,309.541 Q1026.6094,309.1816 1026.4219,308.9941 Q1026.0938,308.6191 1025.4844,308.4004 Q1024.875,308.1816 1024.25,308.1816 Q1023.4844,308.1816 1022.8438,308.5098 Q1022.2188,308.8379 1021.7188,309.5879 Q1021.2344,310.3379 1021.2344,311.3691 L1021.2344,312.4629 Q1021.2344,313.6973 1022.125,314.5254 Q1023.0156,315.3379 1024.6094,315.3379 Q1025.5469,315.3379 1026.2031,315.0879 Q1026.5938,314.9316 1027.0156,314.4941 Q1027.2813,314.2285 1027.4219,314.1504 Q1027.5781,314.0723 1027.7813,314.0723 Q1028.1094,314.0723 1028.3594,314.3379 Q1028.625,314.5879 1028.625,314.9316 Q1028.625,315.2754 1028.2813,315.6816 Q1027.7813,316.2598 1026.9844,316.5879 Q1025.9063,317.041 1024.6094,317.041 Q1023.0938,317.041 1021.8906,316.416 Q1020.9063,315.916 1020.2188,314.8535 Q1019.5313,313.7754 1019.5313,312.4941 L1019.5313,311.3379 Q1019.5313,310.0098 1020.1406,308.8691 Q1020.7656,307.7129 1021.8594,307.1035 Q1022.9531,306.4785 1024.1875,306.4785 Q1024.9219,306.4785 1025.5625,306.6504 Q1026.2188,306.8066 1026.7656,307.166 Z " fill="#000000"/><text fill="#000000" font-family="sans-serif" font-size="12" font-style="italic" lengthAdjust="spacing" textLength="82.0547" x="1036" y="306.9492">&#171;Value Object&#187;</text><text fill="#000000" font-family="sans-serif" font-size="14" lengthAdjust="spacing" textLength="37.3447" x="1058.355" y="325.0684">Name</text><line style="stroke:#181818;stroke-width:0.5;" x1="1010" x2="1118.0547" y1="333.582" y2="333.582"/><line style="stroke:#181818;stroke-width:0.5;" x1="1010" x2="1118.0547" y1="341.582" y2="341.582"/></g><!--link Figure to Code--><g id="link_Figure_Code"><path codeLine="21" d="M534.99,51.29 C459.09,62.07 277.86,91.51 134,144 C127.78,146.27 126.8511,146.4413 120.6111,149.3413 " fill="none" id="Figure-to-Code" style="stroke:#181818;stroke-width:1.0;"/><polygon fill="#181818" points="115.17,151.87,125.0175,151.7043,119.7043,149.7627,121.6458,144.4495,115.17,151.87" style="stroke:#181818;stroke-width:1.0;"/><text fill="#000000" font-family="sans-serif" font-size="13" lengthAdjust="spacing" textLength="7.23" x="118.4325" y="140.9009">1</text></g><!--link Figure to Version--><g id="link_Figure_Version"><path codeLine="22" d="M534.82,56.58 C478.96,72.58 368.79,105.91 279,144 C273.29,146.42 272.8214,146.5076 267.0114,149.3176 " fill="none" id="Figure-to-Version" style="stroke:#181818;stroke-width:1.0;"/><polygon fill="#181818" points="261.61,151.93,271.4537,151.6124,266.1112,149.753,267.9705,144.4105,261.61,151.93" style="stroke:#181818;stroke-width:1.0;"/><text fill="#000000" font-family="sans-serif" font-size="13" lengthAdjust="spacing" textLength="7.23" x="265.1695" y="140.9732">1</text></g><!--link Figure to Description--><g id="link_Figure_Description"><path codeLine="23" d="M534.84,68.79 C498.03,91.48 445.8579,123.642 405.2279,148.682 " fill="none" id="Figure-to-Description" style="stroke:#181818;stroke-width:1.0;"/><polygon fill="#181818" points="400.12,151.83,409.8804,150.5133,404.3766,149.2067,405.6832,143.7028,400.12,151.83" style="stroke:#181818;stroke-width:1.0;"/><text fill="#000000" font-family="sans-serif" font-size="13" lengthAdjust="spacing" textLength="7.23" x="402.341" y="140.8526">1</text></g><!--link Figure to FigureStatus--><g id="link_Figure_FigureStatus"><path codeLine="24" d="M550.67,84.11 C539.11,105.48 527.6936,126.592 516.9236,146.512 " fill="none" id="Figure-to-FigureStatus" style="stroke:#181818;stroke-width:1.0;"/><polygon fill="#181818" points="514.07,151.79,521.869,145.7754,516.448,147.3917,514.8318,141.9706,514.07,151.79" style="stroke:#181818;stroke-width:1.0;"/><text fill="#000000" font-family="sans-serif" font-size="13" lengthAdjust="spacing" textLength="7.23" x="509.6479" y="140.8044">1</text></g><!--link Figure to Keyword--><g id="link_Figure_Keyword"><path codeLine="25" d="M591.33,84.11 C602.89,105.48 614.3064,126.592 625.0764,146.512 " fill="none" id="Figure-to-Keyword" style="stroke:#181818;stroke-width:1.0;"/><polygon fill="#181818" points="627.93,151.79,627.1682,141.9706,625.552,147.3917,620.131,145.7754,627.93,151.79" style="stroke:#181818;stroke-width:1.0;"/><text fill="#000000" font-family="sans-serif" font-size="13" lengthAdjust="spacing" textLength="19.5127" x="603.7034" y="140.8044">1..*</text></g><!--link Figure to Category--><g id="link_Figure_Category"><path codeLine="26" d="M607.04,56.53 C660.97,72.12 765.27,104.52 849,144 C854.69,146.68 855.2842,146.8198 860.9842,150.0098 " fill="none" id="Figure-to-Category" style="stroke:#181818;stroke-width:1.0;"/><polygon fill="#181818" points="866.22,152.94,860.3198,145.0541,861.8568,150.4981,856.4128,152.0352,866.22,152.94" style="stroke:#181818;stroke-width:1.0;"/><text fill="#000000" font-family="sans-serif" font-size="13" lengthAdjust="spacing" textLength="7.23" x="851.2587" y="143.7266">1</text></g><!--link Figure to Exclusivity--><g id="link_Figure_Exclusivity"><path codeLine="27" d="M607.44,69.71 C643.2,92.47 692.789,124.0572 731.609,148.7772 " fill="none" id="Figure-to-Exclusivity" style="stroke:#181818;stroke-width:1.0;"/><polygon fill="#181818" points="736.67,152,731.227,143.7918,732.4525,149.3144,726.93,150.5398,736.67,152" style="stroke:#181818;stroke-width:1.0;"/><text fill="#000000" font-family="sans-serif" font-size="13" lengthAdjust="spacing" textLength="21.6836" x="704.8691" y="141.6615">0..1</text></g><!--link Figure to ShowDesigner--><g id="link_Figure_ShowDesigner"><path codeLine="28" d="M607.1,53.02 C678.23,66.35 841.05,99.29 973,144 C980.64,146.59 982.9721,147.3396 990.7421,150.4996 " fill="none" id="Figure-to-ShowDesigner" style="stroke:#181818;stroke-width:1.0;"/><polygon fill="#181818" points="996.3,152.76,989.47,145.6641,991.6684,150.8764,986.4562,153.0747,996.3,152.76" style="stroke:#181818;stroke-width:1.0;"/><text fill="#000000" font-family="sans-serif" font-size="13" lengthAdjust="spacing" textLength="7.23" x="981.3648" y="145.1734">1</text></g><!--link Exclusivity to Customer--><g id="link_Exclusivity_Customer"><path codeLine="30" d="M779.27,213.13 C776.77,233 774.199,253.3869 771.509,274.7669 " fill="none" id="Exclusivity-to-Customer" style="stroke:#181818;stroke-width:1.0;"/><polygon fill="#181818" points="770.76,280.72,775.8522,272.2897,771.3842,275.7591,767.9148,271.2911,770.76,280.72" style="stroke:#181818;stroke-width:1.0;"/><text fill="#000000" font-family="sans-serif" font-size="13" lengthAdjust="spacing" textLength="7.23" x="764.0236" y="269.6864">1</text></g><!--link Category to CategoryName--><g id="link_Category_CategoryName"><path codeLine="32" d="M911,221.11 C911,242.48 911,262.87 911,282.79 " fill="none" id="Category-to-CategoryName" style="stroke:#181818;stroke-width:1.0;"/><polygon fill="#181818" points="911,288.79,915,279.79,911,283.79,907,279.79,911,288.79" style="stroke:#181818;stroke-width:1.0;"/><text fill="#000000" font-family="sans-serif" font-size="13" lengthAdjust="spacing" textLength="7.23" x="903.2862" y="277.8044">1</text></g><!--link ShowDesigner to Name--><g id="link_ShowDesigner_Name"><path codeLine="33" d="M1059.67,221.11 C1060.62,242.48 1061.5222,262.876 1062.4122,282.796 " fill="none" id="ShowDesigner-to-Name" style="stroke:#181818;stroke-width:1.0;"/><polygon fill="#181818" points="1062.68,288.79,1066.2743,279.6204,1062.4568,283.795,1058.2823,279.9775,1062.68,288.79" style="stroke:#181818;stroke-width:1.0;"/><text fill="#000000" font-family="sans-serif" font-size="13" lengthAdjust="spacing" textLength="7.23" x="1054.704" y="277.8044">1</text></g><!--SRC=[TL7BJiCm4BplLrYv824relSg5oWN991QgNVZhiAYn8xye4I8x-4B-8B-66vm8iUDRwkTsSVCY8ORmnwfTXhPPhELbcnVLRxKIbbVVC4tW1XOz-fuuHnuuv2zlBwZy8I07L0RKZ87Fw0HcZgxI47fsl32tdBhJ6xB4_OdfO_NSC2tdw9nXZwyX4ZB-BqpLhMebrHE2hd5Mkb-aJEdFFCMiu_itzJ9IwPQPkxzqp8xRjWE6tx-EV-YOPqcAQZZP22aj5fLh5WNGnnfByIGjYFxKoZsVOwLvMqnMdvrExWmwz-LfOUY4DAfs1Q0EArfRmW9O8eYFNan3MO6Zum1-GC0]--></g></svg>