<?xml version="1.0" encoding="UTF-8" standalone="no"?><svg xmlns="http://www.w3.org/2000/svg" xmlns:xlink="http://www.w3.org/1999/xlink" contentStyleType="text/css" height="360px" preserveAspectRatio="none" style="width:424px;height:360px;background:#FFFFFF;" version="1.1" viewBox="0 0 424 360" width="424px" zoomAndPan="magnify"><defs/><g><!--class User--><g id="elem_User"><rect codeLine="2" fill="#F1F1F1" height="144.2188" id="User" rx="2.5" ry="2.5" style="stroke:#181818;stroke-width:0.5;" width="197" x="107.5" y="7"/><ellipse cx="180" cy="24" fill="#ADD1B2" rx="12" ry="12" style="stroke:#181818;stroke-width:1.0;"/><path d="M182.8066,31.0801 Q182.123,31.4316 181.3711,31.6074 Q180.6191,31.7832 179.7891,31.7832 Q176.8398,31.7832 175.2871,29.8398 Q173.7344,27.8965 173.7344,24.2246 Q173.7344,20.543 175.2871,18.5996 Q176.8398,16.6563 179.7891,16.6563 Q180.6191,16.6563 181.3809,16.832 Q182.1426,17.0078 182.8066,17.3594 L182.8066,20.5625 Q182.0645,19.8789 181.3662,19.5615 Q180.668,19.2441 179.9258,19.2441 Q178.3438,19.2441 177.5381,20.499 Q176.7324,21.7539 176.7324,24.2246 Q176.7324,26.6855 177.5381,27.9404 Q178.3438,29.1953 179.9258,29.1953 Q180.668,29.1953 181.3662,28.8779 Q182.0645,28.5605 182.8066,27.877 Z " fill="#000000"/><text fill="#000000" font-family="sans-serif" font-size="20" lengthAdjust="spacing" textLength="43" x="202" y="31.5586">User</text><line style="stroke:#181818;stroke-width:0.5;" x1="108.5" x2="303.5" y1="41" y2="41"/><ellipse cx="118.5" cy="58.2773" fill="none" rx="3" ry="3" style="stroke:#038048;stroke-width:1.0;"/><text fill="#000000" font-family="sans-serif" font-size="20" lengthAdjust="spacing" textLength="87" x="128.5" y="64.3359">id: String</text><ellipse cx="118.5" cy="81.832" fill="none" rx="3" ry="3" style="stroke:#038048;stroke-width:1.0;"/><text fill="#000000" font-family="sans-serif" font-size="20" lengthAdjust="spacing" textLength="121" x="128.5" y="87.8906">name: String</text><ellipse cx="118.5" cy="105.3867" fill="none" rx="3" ry="3" style="stroke:#038048;stroke-width:1.0;"/><text fill="#000000" font-family="sans-serif" font-size="20" lengthAdjust="spacing" textLength="121" x="128.5" y="111.4453">email: String</text><ellipse cx="118.5" cy="128.9414" fill="none" rx="3" ry="3" style="stroke:#038048;stroke-width:1.0;"/><text fill="#000000" font-family="sans-serif" font-size="20" lengthAdjust="spacing" textLength="170" x="128.5" y="135">status: UserStatus</text><line style="stroke:#181818;stroke-width:0.5;" x1="108.5" x2="303.5" y1="143.2188" y2="143.2188"/></g><!--class UserStatus--><g id="elem_UserStatus"><rect codeLine="9" fill="#F1F1F1" height="73.5547" id="UserStatus" rx="2.5" ry="2.5" style="stroke:#181818;stroke-width:0.5;" width="152" x="7" y="268.22"/><ellipse cx="30.65" cy="285.22" fill="#ADD1B2" rx="12" ry="12" style="stroke:#181818;stroke-width:1.0;"/><path d="M33.4566,292.3001 Q32.773,292.6516 32.0211,292.8274 Q31.2691,293.0032 30.4391,293.0032 Q27.4898,293.0032 25.9371,291.0598 Q24.3844,289.1165 24.3844,285.4446 Q24.3844,281.763 25.9371,279.8196 Q27.4898,277.8763 30.4391,277.8763 Q31.2691,277.8763 32.0309,278.052 Q32.7926,278.2278 33.4566,278.5794 L33.4566,281.7825 Q32.7145,281.0989 32.0162,280.7815 Q31.318,280.4641 30.5758,280.4641 Q28.9938,280.4641 28.1881,281.719 Q27.3824,282.9739 27.3824,285.4446 Q27.3824,287.9055 28.1881,289.1604 Q28.9938,290.4153 30.5758,290.4153 Q31.318,290.4153 32.0162,290.0979 Q32.7145,289.7805 33.4566,289.097 Z " fill="#000000"/><text fill="#000000" font-family="sans-serif" font-size="20" lengthAdjust="spacing" textLength="101" x="47.35" y="292.7786">UserStatus</text><line style="stroke:#181818;stroke-width:0.5;" x1="8" x2="158" y1="302.22" y2="302.22"/><ellipse cx="18" cy="319.4973" fill="none" rx="3" ry="3" style="stroke:#038048;stroke-width:1.0;"/><text fill="#000000" font-family="sans-serif" font-size="20" lengthAdjust="spacing" textLength="125" x="28" y="325.5559">status: String</text><line style="stroke:#181818;stroke-width:0.5;" x1="8" x2="158" y1="333.7747" y2="333.7747"/></g><!--class Admin--><g id="elem_Admin"><rect codeLine="13" fill="#F1F1F1" height="97.1094" id="Admin" rx="2.5" ry="2.5" style="stroke:#181818;stroke-width:0.5;" width="175" x="242.5" y="256.22"/><ellipse cx="293.5" cy="273.22" fill="#ADD1B2" rx="12" ry="12" style="stroke:#181818;stroke-width:1.0;"/><path d="M296.3066,280.3001 Q295.623,280.6516 294.8711,280.8274 Q294.1191,281.0032 293.2891,281.0032 Q290.3398,281.0032 288.7871,279.0598 Q287.2344,277.1165 287.2344,273.4446 Q287.2344,269.763 288.7871,267.8196 Q290.3398,265.8763 293.2891,265.8763 Q294.1191,265.8763 294.8809,266.052 Q295.6426,266.2278 296.3066,266.5794 L296.3066,269.7825 Q295.5645,269.0989 294.8662,268.7815 Q294.168,268.4641 293.4258,268.4641 Q291.8438,268.4641 291.0381,269.719 Q290.2324,270.9739 290.2324,273.4446 Q290.2324,275.9055 291.0381,277.1604 Q291.8438,278.4153 293.4258,278.4153 Q294.168,278.4153 294.8662,278.0979 Q295.5645,277.7805 296.3066,277.097 Z " fill="#000000"/><text fill="#000000" font-family="sans-serif" font-size="20" lengthAdjust="spacing" textLength="64" x="315.5" y="280.7786">Admin</text><line style="stroke:#181818;stroke-width:0.5;" x1="243.5" x2="416.5" y1="290.22" y2="290.22"/><ellipse cx="253.5" cy="307.4973" fill="none" rx="3" ry="3" style="stroke:#038048;stroke-width:1.0;"/><text fill="#000000" font-family="sans-serif" font-size="20" lengthAdjust="spacing" textLength="148" x="263.5" y="313.5559">adminId: String</text><ellipse cx="253.5" cy="331.052" fill="none" rx="3" ry="3" style="stroke:#038048;stroke-width:1.0;"/><text fill="#000000" font-family="sans-serif" font-size="20" lengthAdjust="spacing" textLength="105" x="263.5" y="337.1106">role: String</text><line style="stroke:#181818;stroke-width:0.5;" x1="243.5" x2="416.5" y1="345.3294" y2="345.3294"/></g><!--link User to UserStatus--><g id="link_User_UserStatus"><path codeLine="19" d="M166.74,151.48 C146.56,188.18 122.67,231.59 105.59,262.65 " fill="none" id="User-to-UserStatus" style="stroke:#181818;stroke-width:1.0;"/><polygon fill="#181818" points="103.21,266.98,111.0626,261.0355,105.6273,262.6032,104.0596,257.1679,103.21,266.98" style="stroke:#181818;stroke-width:1.0;"/><text fill="#000000" font-family="sans-serif" font-size="20" lengthAdjust="spacing" textLength="33" x="150" y="201.5559">has</text><text fill="#000000" font-family="sans-serif" font-size="20" lengthAdjust="spacing" textLength="13" x="91.7921" y="256.1002">1</text></g><!--link User to Admin--><g id="link_User_Admin"><path codeLine="20" d="M245.58,151.48 C263.46,183.72 284.22,221.16 300.67,250.84 " fill="none" id="User-to-Admin" style="stroke:#181818;stroke-width:1.0;"/><polygon fill="#181818" points="302.96,254.96,302.0858,245.15,300.5318,250.5892,295.0926,249.0352,302.96,254.96" style="stroke:#181818;stroke-width:1.0;"/><text fill="#000000" font-family="sans-serif" font-size="20" lengthAdjust="spacing" textLength="118" x="276" y="201.5559">managed by</text><text fill="#000000" font-family="sans-serif" font-size="20" lengthAdjust="spacing" textLength="13" x="285.8825" y="243.8564">1</text></g><!--SRC=[NL0z3u903DtlLpGi3eP47MymSJ5nbVW3AbUXuJx8zHZK-Dz540DsQbzVtsih3ViM8peRoeOC6BfXPzCn-5JmWs2tKQgqA08NeGXF1NsisMWeKcHVZRL7Hqk47B9TGf8mTQ87eMB8rMikFcAJnSJ-AloO1-FOJoJy5AU_PMAmD9zRmPai9WvUQcv53OVa-HwoRJOtrb3ZNtSqq-3GOzL_vtfNRm00]--></g></svg>