<?xml version="1.0" encoding="UTF-8" standalone="no"?><svg xmlns="http://www.w3.org/2000/svg" xmlns:xlink="http://www.w3.org/1999/xlink" contentStyleType="text/css" height="488px" preserveAspectRatio="none" style="width:429px;height:488px;background:#FFFFFF;" version="1.1" viewBox="0 0 429 488" width="429px" zoomAndPan="magnify"><defs/><g><!--cluster User Management--><g id="cluster_User Management"><path d="M8.5,6.8945 L180.5,6.8945 A3.75,3.75 0 0 1 183,9.3945 L190,38.0508 L419.5,38.0508 A2.5,2.5 0 0 1 422,40.5508 L422,479.3945 A2.5,2.5 0 0 1 419.5,481.8945 L8.5,481.8945 A2.5,2.5 0 0 1 6,479.3945 L6,9.3945 A2.5,2.5 0 0 1 8.5,6.8945 " fill="none" style="stroke:#000000;stroke-width:1.5;"/><line style="stroke:#000000;stroke-width:1.5;" x1="6" x2="190" y1="38.0508" y2="38.0508"/><text fill="#000000" font-family="sans-serif" font-size="20" font-weight="bold" lengthAdjust="spacing" textLength="171" x="10" y="29.6563">User Management</text><text fill="#000000" font-family="sans-serif" font-size="20" font-style="italic" lengthAdjust="spacing" textLength="111" x="162.5" y="60.8125">«aggregate»</text></g><!--class User--><g id="elem_User"><rect codeLine="4" fill="#F1F1F1" height="202.0938" id="User" rx="2.5" ry="2.5" style="stroke:#181818;stroke-width:0.5;" width="189" x="216.5" y="75.8945"/><ellipse cx="273" cy="118.6289" fill="#ADD1B2" rx="12" ry="12" style="stroke:#181818;stroke-width:1.0;"/><path d="M275.1406,113.5508 Q275.3281,113.3008 275.5469,113.1758 Q275.7656,113.0352 276.0156,113.0352 Q276.4531,113.0352 276.7344,113.3477 Q277.0156,113.6445 277.0156,114.3633 L277.0156,116.0664 Q277.0156,116.7852 276.7344,117.0977 Q276.4531,117.4102 276.0156,117.4102 Q275.625,117.4102 275.375,117.1758 Q275.125,116.957 275.0156,116.3477 Q274.9531,115.9258 274.7344,115.707 Q274.3438,115.2695 273.625,115.0039 Q272.9063,114.7383 272.1875,114.7383 Q271.2813,114.7383 270.5313,115.1289 Q269.7813,115.5195 269.2031,116.4102 Q268.625,117.2852 268.625,118.4883 L268.625,119.7852 Q268.625,121.2383 269.6719,122.207 Q270.7344,123.1758 272.5938,123.1758 Q273.7031,123.1758 274.4844,122.8633 Q274.9219,122.6914 275.4375,122.1758 Q275.75,121.8633 275.9219,121.7695 Q276.0938,121.6758 276.3281,121.6758 Q276.7188,121.6758 277.0156,121.9883 Q277.3281,122.2852 277.3281,122.6914 Q277.3281,123.0977 276.9219,123.5664 Q276.3281,124.2539 275.3906,124.6445 Q274.125,125.1758 272.6094,125.1758 Q270.8281,125.1758 269.4063,124.4414 Q268.25,123.8477 267.4375,122.582 Q266.625,121.3164 266.625,119.832 L266.625,118.4727 Q266.625,116.9102 267.3438,115.5664 Q268.0781,114.207 269.3594,113.4727 Q270.6563,112.7383 272.1094,112.7383 Q272.9688,112.7383 273.7188,112.9414 Q274.4844,113.1445 275.1406,113.5508 Z " fill="#000000"/><text fill="#000000" font-family="sans-serif" font-size="20" font-style="italic" lengthAdjust="spacing" textLength="71" x="293" y="101.6563">«Entity»</text><text fill="#000000" font-family="sans-serif" font-size="20" font-style="italic" lengthAdjust="spacing" textLength="56" x="300.5" y="126.8125">«root»</text><text fill="#000000" font-family="sans-serif" font-size="20" lengthAdjust="spacing" textLength="41" x="308" y="151.9688">User</text><line style="stroke:#181818;stroke-width:0.5;" x1="217.5" x2="404.5" y1="161.3633" y2="161.3633"/><ellipse cx="227.5" cy="179.4414" fill="none" rx="3" ry="3" style="stroke:#038048;stroke-width:1.0;"/><text fill="#000000" font-family="sans-serif" font-size="20" lengthAdjust="spacing" textLength="78" x="237.5" y="186.125">id: String</text><ellipse cx="227.5" cy="204.5977" fill="none" rx="3" ry="3" style="stroke:#038048;stroke-width:1.0;"/><text fill="#000000" font-family="sans-serif" font-size="20" lengthAdjust="spacing" textLength="111" x="237.5" y="211.2813">name: String</text><ellipse cx="227.5" cy="229.7539" fill="none" rx="3" ry="3" style="stroke:#038048;stroke-width:1.0;"/><text fill="#000000" font-family="sans-serif" font-size="20" lengthAdjust="spacing" textLength="109" x="237.5" y="236.4375">email: String</text><ellipse cx="227.5" cy="254.9102" fill="none" rx="3" ry="3" style="stroke:#038048;stroke-width:1.0;"/><text fill="#000000" font-family="sans-serif" font-size="20" lengthAdjust="spacing" textLength="162" x="237.5" y="261.5938">status: UserStatus</text><line style="stroke:#181818;stroke-width:0.5;" x1="217.5" x2="404.5" y1="269.9883" y2="269.9883"/></g><!--class UserStatus--><g id="elem_UserStatus"><rect codeLine="11" fill="#F1F1F1" height="101.4688" id="UserStatus" rx="2.5" ry="2.5" style="stroke:#181818;stroke-width:0.5;" width="166" x="228" y="364.8945"/><ellipse cx="244" cy="395.0508" fill="#ADD1B2" rx="12" ry="12" style="stroke:#181818;stroke-width:1.0;"/><path d="M246.1406,389.9727 Q246.3281,389.7227 246.5469,389.5977 Q246.7656,389.457 247.0156,389.457 Q247.4531,389.457 247.7344,389.7695 Q248.0156,390.0664 248.0156,390.7852 L248.0156,392.4883 Q248.0156,393.207 247.7344,393.5195 Q247.4531,393.832 247.0156,393.832 Q246.625,393.832 246.375,393.5977 Q246.125,393.3789 246.0156,392.7695 Q245.9531,392.3477 245.7344,392.1289 Q245.3438,391.6914 244.625,391.4258 Q243.9063,391.1602 243.1875,391.1602 Q242.2813,391.1602 241.5313,391.5508 Q240.7813,391.9414 240.2031,392.832 Q239.625,393.707 239.625,394.9102 L239.625,396.207 Q239.625,397.6602 240.6719,398.6289 Q241.7344,399.5977 243.5938,399.5977 Q244.7031,399.5977 245.4844,399.2852 Q245.9219,399.1133 246.4375,398.5977 Q246.75,398.2852 246.9219,398.1914 Q247.0938,398.0977 247.3281,398.0977 Q247.7188,398.0977 248.0156,398.4102 Q248.3281,398.707 248.3281,399.1133 Q248.3281,399.5195 247.9219,399.9883 Q247.3281,400.6758 246.3906,401.0664 Q245.125,401.5977 243.6094,401.5977 Q241.8281,401.5977 240.4063,400.8633 Q239.25,400.2695 238.4375,399.0039 Q237.625,397.7383 237.625,396.2539 L237.625,394.8945 Q237.625,393.332 238.3438,391.9883 Q239.0781,390.6289 240.3594,389.8945 Q241.6563,389.1602 243.1094,389.1602 Q243.9688,389.1602 244.7188,389.3633 Q245.4844,389.5664 246.1406,389.9727 Z " fill="#000000"/><text fill="#000000" font-family="sans-serif" font-size="20" font-style="italic" lengthAdjust="spacing" textLength="136" x="257" y="390.6563">«Value Object»</text><text fill="#000000" font-family="sans-serif" font-size="20" lengthAdjust="spacing" textLength="97" x="276.5" y="415.8125">UserStatus</text><line style="stroke:#181818;stroke-width:0.5;" x1="229" x2="393" y1="425.207" y2="425.207"/><ellipse cx="239" cy="443.2852" fill="none" rx="3" ry="3" style="stroke:#038048;stroke-width:1.0;"/><text fill="#000000" font-family="sans-serif" font-size="20" lengthAdjust="spacing" textLength="116" x="249" y="449.9688">status: String</text><line style="stroke:#181818;stroke-width:0.5;" x1="229" x2="393" y1="458.3633" y2="458.3633"/></g><!--class Admin--><g id="elem_Admin"><rect codeLine="15" fill="#F1F1F1" height="126.625" id="Admin" rx="2.5" ry="2.5" style="stroke:#181818;stroke-width:0.5;" width="159" x="22.5" y="113.3945"/><ellipse cx="64.6" cy="143.5508" fill="#ADD1B2" rx="12" ry="12" style="stroke:#181818;stroke-width:1.0;"/><path d="M66.7406,138.4727 Q66.9281,138.2227 67.1469,138.0977 Q67.3656,137.957 67.6156,137.957 Q68.0531,137.957 68.3344,138.2695 Q68.6156,138.5664 68.6156,139.2852 L68.6156,140.9883 Q68.6156,141.707 68.3344,142.0195 Q68.0531,142.332 67.6156,142.332 Q67.225,142.332 66.975,142.0977 Q66.725,141.8789 66.6156,141.2695 Q66.5531,140.8477 66.3344,140.6289 Q65.9438,140.1914 65.225,139.9258 Q64.5063,139.6602 63.7875,139.6602 Q62.8812,139.6602 62.1312,140.0508 Q61.3812,140.4414 60.8031,141.332 Q60.225,142.207 60.225,143.4102 L60.225,144.707 Q60.225,146.1602 61.2719,147.1289 Q62.3344,148.0977 64.1938,148.0977 Q65.3031,148.0977 66.0844,147.7852 Q66.5219,147.6133 67.0375,147.0977 Q67.35,146.7852 67.5219,146.6914 Q67.6938,146.5977 67.9281,146.5977 Q68.3188,146.5977 68.6156,146.9102 Q68.9281,147.207 68.9281,147.6133 Q68.9281,148.0195 68.5219,148.4883 Q67.9281,149.1758 66.9906,149.5664 Q65.725,150.0977 64.2094,150.0977 Q62.4281,150.0977 61.0062,149.3633 Q59.85,148.7695 59.0375,147.5039 Q58.225,146.2383 58.225,144.7539 L58.225,143.3945 Q58.225,141.832 58.9437,140.4883 Q59.6781,139.1289 60.9594,138.3945 Q62.2562,137.6602 63.7094,137.6602 Q64.5688,137.6602 65.3188,137.8633 Q66.0844,138.0664 66.7406,138.4727 Z " fill="#000000"/><text fill="#000000" font-family="sans-serif" font-size="20" font-style="italic" lengthAdjust="spacing" textLength="71" x="83.4" y="139.1563">«Entity»</text><text fill="#000000" font-family="sans-serif" font-size="20" lengthAdjust="spacing" textLength="54" x="91.9" y="164.3125">Admin</text><line style="stroke:#181818;stroke-width:0.5;" x1="23.5" x2="180.5" y1="173.707" y2="173.707"/><ellipse cx="33.5" cy="191.7852" fill="none" rx="3" ry="3" style="stroke:#038048;stroke-width:1.0;"/><text fill="#000000" font-family="sans-serif" font-size="20" lengthAdjust="spacing" textLength="132" x="43.5" y="198.4688">adminId: String</text><ellipse cx="33.5" cy="216.9414" fill="none" rx="3" ry="3" style="stroke:#038048;stroke-width:1.0;"/><text fill="#000000" font-family="sans-serif" font-size="20" lengthAdjust="spacing" textLength="96" x="43.5" y="223.625">role: String</text><line style="stroke:#181818;stroke-width:0.5;" x1="23.5" x2="180.5" y1="232.0195" y2="232.0195"/></g><!--link User to UserStatus--><g id="link_User_UserStatus"><path codeLine="21" d="M311,278.1945 C311,306.1645 311,335.5145 311,359.7645 " fill="none" id="User-to-UserStatus" style="stroke:#181818;stroke-width:1.0;"/><polygon fill="#181818" points="311,364.8645,315,355.8645,311,359.8645,307,355.8645,311,364.8645" style="stroke:#181818;stroke-width:1.0;"/><text fill="#000000" font-family="sans-serif" font-size="20" lengthAdjust="spacing" textLength="31" x="312" y="329.6563">has</text><text fill="#000000" font-family="sans-serif" font-size="20" lengthAdjust="spacing" textLength="11" x="299.2953" y="352.5305">1</text></g><!--SRC=[RL0xJyGm3DxpAwmk3EWaOAoYIWmWtO0OAjXDOu9f7bNY877e_Zkz54IvEq-EFtyF9uyS9apeNHn6Cc3e5OkJ-nYavnt1pPLI4muZMeBcALE21mppmrEG1hH6QnDP5Eew-58AvXeSvWnrL-kx82oVCwXrYb7g5lpK9PiMUaaSxDyieAVJANbaTphEWb9oMytwsbTiVnnamUOCp-WAmUFBEmr7MNwbLXR_P6wDvx0-QCN50xOzSqoAZiv9NYpV8-IXU5YiWM2AXk00V70kw7Y79i94BYxkbLg9cqq7pNMplgs5Dynghxu1]--></g></svg>