<?xml version="1.0" encoding="us-ascii" standalone="no"?><svg xmlns="http://www.w3.org/2000/svg" xmlns:xlink="http://www.w3.org/1999/xlink" contentStyleType="text/css" height="703.5px" preserveAspectRatio="none" style="width:1019px;height:703px;background:#FFFFFF;" version="1.1" viewBox="0 0 1019 703" width="1019.9px" zoomAndPan="magnify"><defs/><g><rect fill="#FFFFFF" height="567.1928" style="stroke:#181818;stroke-width:0.6999999999999998;" width="7" x="26.95" y="65.5348"/><rect fill="#FFFFFF" height="21.9037" style="stroke:#181818;stroke-width:0.6999999999999998;" width="7" x="207.55" y="81.8385"/><rect fill="#FFFFFF" height="65.0111" style="stroke:#181818;stroke-width:0.6999999999999998;" width="7" x="207.55" y="125.6459"/><rect fill="#FFFFFF" height="420.1668" style="stroke:#181818;stroke-width:0.6999999999999998;" width="7" x="207.55" y="212.5607"/><rect fill="#FFFFFF" height="364.2557" style="stroke:#181818;stroke-width:0.6999999999999998;" width="7" x="398.65" y="246.5682"/><rect fill="#FFFFFF" height="125.1223" style="stroke:#181818;stroke-width:0.6999999999999998;" width="7" x="402.15" y="274.0719"/><rect fill="#FFFFFF" height="21.9037" style="stroke:#181818;stroke-width:0.6999999999999998;" width="7" x="509.25" y="299.4756"/><rect fill="#FFFFFF" height="21.9037" style="stroke:#181818;stroke-width:0.6999999999999998;" width="7" x="582.75" y="343.283"/><rect fill="#FFFFFF" height="189.726" style="stroke:#181818;stroke-width:0.6999999999999998;" width="7" x="667.1" y="399.1941"/><rect fill="#FFFFFF" height="29.6037" style="stroke:#181818;stroke-width:0.6999999999999998;" width="7" x="670.6" y="426.6979"/><rect fill="#FFFFFF" height="29.6037" style="stroke:#181818;stroke-width:0.6999999999999998;" width="7" x="670.6" y="532.5127"/><rect fill="#FFFFFF" height="21.9037" style="stroke:#181818;stroke-width:0.6999999999999998;" width="7" x="992.6" y="483.1053"/><line style="stroke:#181818;stroke-width:0.3499999999999999;stroke-dasharray:5.0,5.0;" x1="30.1" x2="30.1" y1="58.5348" y2="645.3275"/><line style="stroke:#181818;stroke-width:0.3499999999999999;stroke-dasharray:5.0,5.0;" x1="210.7" x2="210.7" y1="58.5348" y2="645.3275"/><line style="stroke:#181818;stroke-width:0.3499999999999999;stroke-dasharray:5.0,5.0;" x1="401.8" x2="401.8" y1="58.5348" y2="645.3275"/><line style="stroke:#181818;stroke-width:0.3499999999999999;stroke-dasharray:5.0,5.0;" x1="512.4" x2="512.4" y1="58.5348" y2="645.3275"/><line style="stroke:#181818;stroke-width:0.3499999999999999;stroke-dasharray:5.0,5.0;" x1="585.9" x2="585.9" y1="58.5348" y2="645.3275"/><line style="stroke:#181818;stroke-width:0.3499999999999999;stroke-dasharray:5.0,5.0;" x1="670.6" x2="670.6" y1="58.5348" y2="645.3275"/><line style="stroke:#181818;stroke-width:0.3499999999999999;stroke-dasharray:5.0,5.0;" x1="996.1" x2="996.1" y1="58.5348" y2="645.3275"/><text fill="#000000" font-family="sans-serif" font-size="9.8" lengthAdjust="spacing" textLength="49.7" x="3.5" y="56.0752">DroneTech</text><ellipse cx="30.45" cy="9.45" fill="#E2E2F0" rx="5.6" ry="5.6" style="stroke:#181818;stroke-width:0.3499999999999999;"/><path d="M30.45,15.05 L30.45,33.95 M21.35,20.65 L39.55,20.65 M30.45,33.95 L21.35,44.45 M30.45,33.95 L39.55,44.45 " fill="none" style="stroke:#181818;stroke-width:0.3499999999999999;"/><text fill="#000000" font-family="sans-serif" font-size="9.8" lengthAdjust="spacing" textLength="49.7" x="3.5" y="655.2027">DroneTech</text><ellipse cx="30.45" cy="663.6123" fill="#E2E2F0" rx="5.6" ry="5.6" style="stroke:#181818;stroke-width:0.3499999999999999;"/><path d="M30.45,669.2123 L30.45,688.1123 M21.35,674.8123 L39.55,674.8123 M30.45,688.1123 L21.35,698.6123 M30.45,688.1123 L39.55,698.6123 " fill="none" style="stroke:#181818;stroke-width:0.3499999999999999;"/><rect fill="#E2E2F0" height="22.8348" rx="1.75" ry="1.75" style="stroke:#181818;stroke-width:0.3499999999999999;" width="77.7" x="172.2" y="35"/><text fill="#000000" font-family="sans-serif" font-size="9.8" lengthAdjust="spacing" textLength="67.9" x="177.1" y="50.4752">:CreateModelUI</text><rect fill="#E2E2F0" height="22.8348" rx="1.75" ry="1.75" style="stroke:#181818;stroke-width:0.3499999999999999;" width="77.7" x="172.2" y="644.6275"/><text fill="#000000" font-family="sans-serif" font-size="9.8" lengthAdjust="spacing" textLength="67.9" x="177.1" y="660.1027">:CreateModelUI</text><rect fill="#E2E2F0" height="22.8348" rx="1.75" ry="1.75" style="stroke:#181818;stroke-width:0.3499999999999999;" width="112.7" x="345.8" y="35"/><text fill="#000000" font-family="sans-serif" font-size="9.8" lengthAdjust="spacing" textLength="102.9" x="350.7" y="50.4752">:CreateModelController</text><rect fill="#E2E2F0" height="22.8348" rx="1.75" ry="1.75" style="stroke:#181818;stroke-width:0.3499999999999999;" width="112.7" x="345.8" y="644.6275"/><text fill="#000000" font-family="sans-serif" font-size="9.8" lengthAdjust="spacing" textLength="102.9" x="350.7" y="660.1027">:CreateModelController</text><rect fill="#E2E2F0" height="22.8348" rx="1.75" ry="1.75" style="stroke:#181818;stroke-width:0.3499999999999999;" width="65.1" x="480.2" y="35"/><text fill="#000000" font-family="sans-serif" font-size="9.8" lengthAdjust="spacing" textLength="55.3" x="485.1" y="50.4752">Repositories</text><rect fill="#E2E2F0" height="22.8348" rx="1.75" ry="1.75" style="stroke:#181818;stroke-width:0.3499999999999999;" width="65.1" x="480.2" y="644.6275"/><text fill="#000000" font-family="sans-serif" font-size="9.8" lengthAdjust="spacing" textLength="55.3" x="485.1" y="660.1027">Repositories</text><rect fill="#E2E2F0" height="35.8695" rx="1.75" ry="1.75" style="stroke:#181818;stroke-width:0.3499999999999999;" width="67.9" x="552.3" y="21.9652"/><text fill="#000000" font-family="sans-serif" font-size="9.8" lengthAdjust="spacing" textLength="51.8" x="560.35" y="37.4404">repositories</text><text fill="#000000" font-family="sans-serif" font-size="9.8" lengthAdjust="spacing" textLength="58.1" x="557.2" y="50.4752">:Repositories</text><rect fill="#E2E2F0" height="35.8695" rx="1.75" ry="1.75" style="stroke:#181818;stroke-width:0.3499999999999999;" width="67.9" x="552.3" y="644.6275"/><text fill="#000000" font-family="sans-serif" font-size="9.8" lengthAdjust="spacing" textLength="51.8" x="560.35" y="660.1027">repositories</text><text fill="#000000" font-family="sans-serif" font-size="9.8" lengthAdjust="spacing" textLength="58.1" x="557.2" y="673.1375">:Repositories</text><rect fill="#E2E2F0" height="35.8695" rx="1.75" ry="1.75" style="stroke:#181818;stroke-width:0.3499999999999999;" width="86.8" x="627.2" y="21.9652"/><text fill="#000000" font-family="sans-serif" font-size="9.8" lengthAdjust="spacing" textLength="74.2" x="633.5" y="37.4404">modelRepository</text><text fill="#000000" font-family="sans-serif" font-size="9.8" lengthAdjust="spacing" textLength="77" x="632.1" y="50.4752">:ModelRepository</text><rect fill="#E2E2F0" height="35.8695" rx="1.75" ry="1.75" style="stroke:#181818;stroke-width:0.3499999999999999;" width="86.8" x="627.2" y="644.6275"/><text fill="#000000" font-family="sans-serif" font-size="9.8" lengthAdjust="spacing" textLength="74.2" x="633.5" y="660.1027">modelRepository</text><text fill="#000000" font-family="sans-serif" font-size="9.8" lengthAdjust="spacing" textLength="77" x="632.1" y="673.1375">:ModelRepository</text><rect fill="#E2E2F0" height="35.8695" rx="1.75" ry="1.75" style="stroke:#181818;stroke-width:0.3499999999999999;" width="39.2" x="976.5" y="21.9652"/><text fill="#000000" font-family="sans-serif" font-size="9.8" lengthAdjust="spacing" textLength="26.6" x="982.8" y="37.4404">model</text><text fill="#000000" font-family="sans-serif" font-size="9.8" lengthAdjust="spacing" textLength="29.4" x="981.4" y="50.4752">:Model</text><rect fill="#E2E2F0" height="35.8695" rx="1.75" ry="1.75" style="stroke:#181818;stroke-width:0.3499999999999999;" width="39.2" x="976.5" y="644.6275"/><text fill="#000000" font-family="sans-serif" font-size="9.8" lengthAdjust="spacing" textLength="26.6" x="982.8" y="660.1027">model</text><text fill="#000000" font-family="sans-serif" font-size="9.8" lengthAdjust="spacing" textLength="29.4" x="981.4" y="673.1375">:Model</text><rect fill="#FFFFFF" height="567.1928" style="stroke:#181818;stroke-width:0.6999999999999998;" width="7" x="26.95" y="65.5348"/><rect fill="#FFFFFF" height="21.9037" style="stroke:#181818;stroke-width:0.6999999999999998;" width="7" x="207.55" y="81.8385"/><rect fill="#FFFFFF" height="65.0111" style="stroke:#181818;stroke-width:0.6999999999999998;" width="7" x="207.55" y="125.6459"/><rect fill="#FFFFFF" height="420.1668" style="stroke:#181818;stroke-width:0.6999999999999998;" width="7" x="207.55" y="212.5607"/><rect fill="#FFFFFF" height="364.2557" style="stroke:#181818;stroke-width:0.6999999999999998;" width="7" x="398.65" y="246.5682"/><rect fill="#FFFFFF" height="125.1223" style="stroke:#181818;stroke-width:0.6999999999999998;" width="7" x="402.15" y="274.0719"/><rect fill="#FFFFFF" height="21.9037" style="stroke:#181818;stroke-width:0.6999999999999998;" width="7" x="509.25" y="299.4756"/><rect fill="#FFFFFF" height="21.9037" style="stroke:#181818;stroke-width:0.6999999999999998;" width="7" x="582.75" y="343.283"/><rect fill="#FFFFFF" height="189.726" style="stroke:#181818;stroke-width:0.6999999999999998;" width="7" x="667.1" y="399.1941"/><rect fill="#FFFFFF" height="29.6037" style="stroke:#181818;stroke-width:0.6999999999999998;" width="7" x="670.6" y="426.6979"/><rect fill="#FFFFFF" height="29.6037" style="stroke:#181818;stroke-width:0.6999999999999998;" width="7" x="670.6" y="532.5127"/><rect fill="#FFFFFF" height="21.9037" style="stroke:#181818;stroke-width:0.6999999999999998;" width="7" x="992.6" y="483.1053"/><polygon fill="#181818" points="199.15,79.0385,206.15,81.8385,199.15,84.6385,201.95,81.8385" style="stroke:#181818;stroke-width:0.6999999999999998;"/><line style="stroke:#181818;stroke-width:0.6999999999999998;" x1="33.95" x2="203.35" y1="81.8385" y2="81.8385"/><text fill="#000000" font-family="sans-serif" font-size="9.1" font-weight="bold" lengthAdjust="spacing" textLength="4.9" x="38.85" y="78.1546">1</text><text fill="#000000" font-family="sans-serif" font-size="9.1" lengthAdjust="spacing" textLength="152.6" x="46.55" y="78.1546">requests to create a new drone model</text><polygon fill="#181818" points="41.65,100.9422,34.65,103.7422,41.65,106.5422,38.85,103.7422" style="stroke:#181818;stroke-width:0.6999999999999998;"/><line style="stroke:#181818;stroke-width:0.6999999999999998;stroke-dasharray:2.0,2.0;" x1="37.45" x2="210.35" y1="103.7422" y2="103.7422"/><text fill="#000000" font-family="sans-serif" font-size="9.1" font-weight="bold" lengthAdjust="spacing" textLength="4.9" x="45.85" y="100.0583">2</text><text fill="#000000" font-family="sans-serif" font-size="9.1" lengthAdjust="spacing" textLength="79.8" x="53.55" y="100.0583">asks for model data</text><polygon fill="#181818" points="199.15,122.8459,206.15,125.6459,199.15,128.4459,201.95,125.6459" style="stroke:#181818;stroke-width:0.6999999999999998;"/><line style="stroke:#181818;stroke-width:0.6999999999999998;" x1="33.95" x2="203.35" y1="125.6459" y2="125.6459"/><text fill="#000000" font-family="sans-serif" font-size="9.1" font-weight="bold" lengthAdjust="spacing" textLength="4.9" x="38.85" y="121.962">3</text><text fill="#000000" font-family="sans-serif" font-size="9.1" lengthAdjust="spacing" textLength="52.5" x="46.55" y="121.962">submits data</text><line style="stroke:#181818;stroke-width:0.6999999999999998;stroke-dasharray:2.0,2.0;" x1="214.55" x2="243.95" y1="159.6533" y2="159.6533"/><line style="stroke:#181818;stroke-width:0.6999999999999998;stroke-dasharray:2.0,2.0;" x1="243.95" x2="243.95" y1="159.6533" y2="168.7533"/><line style="stroke:#181818;stroke-width:0.6999999999999998;stroke-dasharray:2.0,2.0;" x1="215.25" x2="243.95" y1="168.7533" y2="168.7533"/><polygon fill="#181818" points="222.25,165.9533,215.25,168.7533,222.25,171.5533,219.45,168.7533" style="stroke:#181818;stroke-width:0.6999999999999998;"/><text fill="#000000" font-family="sans-serif" font-size="9.1" font-weight="bold" lengthAdjust="spacing" textLength="4.9" x="219.45" y="149.9176">4</text><text fill="#000000" font-family="sans-serif" font-size="9.1" lengthAdjust="spacing" textLength="101.5" x="227.15" y="143.8657">keepData(windTolerance,</text><text fill="#000000" font-family="sans-serif" font-size="9.1" lengthAdjust="spacing" textLength="163.1" x="227.15" y="155.9694">windSpeed, posTolerance, safetyStatus)</text><polygon fill="#181818" points="41.65,187.857,34.65,190.657,41.65,193.457,38.85,190.657" style="stroke:#181818;stroke-width:0.6999999999999998;"/><line style="stroke:#181818;stroke-width:0.6999999999999998;stroke-dasharray:2.0,2.0;" x1="37.45" x2="210.35" y1="190.657" y2="190.657"/><text fill="#000000" font-family="sans-serif" font-size="9.1" font-weight="bold" lengthAdjust="spacing" textLength="4.9" x="45.85" y="186.9731">5</text><text fill="#000000" font-family="sans-serif" font-size="9.1" lengthAdjust="spacing" textLength="84" x="53.55" y="186.9731">asks for confirmation</text><polygon fill="#181818" points="199.15,209.7607,206.15,212.5607,199.15,215.3607,201.95,212.5607" style="stroke:#181818;stroke-width:0.6999999999999998;"/><line style="stroke:#181818;stroke-width:0.6999999999999998;" x1="33.95" x2="203.35" y1="212.5607" y2="212.5607"/><text fill="#000000" font-family="sans-serif" font-size="9.1" font-weight="bold" lengthAdjust="spacing" textLength="4.9" x="38.85" y="208.8769">6</text><text fill="#000000" font-family="sans-serif" font-size="9.1" lengthAdjust="spacing" textLength="54.6" x="46.55" y="208.8769">confirms data</text><polygon fill="#181818" points="390.25,243.7682,397.25,246.5682,390.25,249.3682,393.05,246.5682" style="stroke:#181818;stroke-width:0.6999999999999998;"/><line style="stroke:#181818;stroke-width:0.6999999999999998;" x1="214.55" x2="394.45" y1="246.5682" y2="246.5682"/><text fill="#000000" font-family="sans-serif" font-size="9.1" font-weight="bold" lengthAdjust="spacing" textLength="4.9" x="219.45" y="236.8324">7</text><text fill="#000000" font-family="sans-serif" font-size="9.1" lengthAdjust="spacing" textLength="112.7" x="227.15" y="230.7806">createModel(windTolerance,</text><text fill="#000000" font-family="sans-serif" font-size="9.1" lengthAdjust="spacing" textLength="163.1" x="227.15" y="242.8843">windSpeed, posTolerance, safetyStatus)</text><line style="stroke:#181818;stroke-width:0.6999999999999998;stroke-dasharray:2.0,2.0;" x1="405.65" x2="438.55" y1="264.9719" y2="264.9719"/><line style="stroke:#181818;stroke-width:0.6999999999999998;stroke-dasharray:2.0,2.0;" x1="438.55" x2="438.55" y1="264.9719" y2="274.0719"/><line style="stroke:#181818;stroke-width:0.6999999999999998;stroke-dasharray:2.0,2.0;" x1="409.85" x2="438.55" y1="274.0719" y2="274.0719"/><polygon fill="#181818" points="416.85,271.2719,409.85,274.0719,416.85,276.8719,414.05,274.0719" style="stroke:#181818;stroke-width:0.6999999999999998;"/><text fill="#000000" font-family="sans-serif" font-size="9.1" font-weight="bold" lengthAdjust="spacing" textLength="4.9" x="414.05" y="261.288">8</text><text fill="#000000" font-family="sans-serif" font-size="9.1" lengthAdjust="spacing" textLength="86.1" x="421.75" y="261.288">getModelRepository()</text><polygon fill="#181818" points="500.85,296.6756,507.85,299.4756,500.85,302.2756,503.65,299.4756" style="stroke:#181818;stroke-width:0.6999999999999998;"/><line style="stroke:#181818;stroke-width:0.6999999999999998;" x1="409.15" x2="505.05" y1="299.4756" y2="299.4756"/><text fill="#000000" font-family="sans-serif" font-size="9.1" font-weight="bold" lengthAdjust="spacing" textLength="4.9" x="414.05" y="295.7917">9</text><text fill="#000000" font-family="sans-serif" font-size="9.1" lengthAdjust="spacing" textLength="52.5" x="421.75" y="295.7917">getInstance()</text><polygon fill="#181818" points="416.85,318.5793,409.85,321.3793,416.85,324.1793,414.05,321.3793" style="stroke:#181818;stroke-width:0.6999999999999998;"/><line style="stroke:#181818;stroke-width:0.6999999999999998;stroke-dasharray:2.0,2.0;" x1="412.65" x2="512.05" y1="321.3793" y2="321.3793"/><text fill="#000000" font-family="sans-serif" font-size="9.1" font-weight="bold" lengthAdjust="spacing" textLength="9.8" x="421.05" y="317.6954">10</text><text fill="#000000" font-family="sans-serif" font-size="9.1" lengthAdjust="spacing" textLength="46.9" x="433.65" y="317.6954">repositories</text><polygon fill="#181818" points="574.35,340.483,581.35,343.283,574.35,346.083,577.15,343.283" style="stroke:#181818;stroke-width:0.6999999999999998;"/><line style="stroke:#181818;stroke-width:0.6999999999999998;" x1="409.15" x2="578.55" y1="343.283" y2="343.283"/><text fill="#000000" font-family="sans-serif" font-size="9.1" font-weight="bold" lengthAdjust="spacing" textLength="9.8" x="414.05" y="339.5991">11</text><text fill="#000000" font-family="sans-serif" font-size="9.1" lengthAdjust="spacing" textLength="86.1" x="426.65" y="339.5991">getModelRepository()</text><polygon fill="#181818" points="416.85,362.3867,409.85,365.1867,416.85,367.9867,414.05,365.1867" style="stroke:#181818;stroke-width:0.6999999999999998;"/><line style="stroke:#181818;stroke-width:0.6999999999999998;stroke-dasharray:2.0,2.0;" x1="412.65" x2="585.55" y1="365.1867" y2="365.1867"/><text fill="#000000" font-family="sans-serif" font-size="9.1" font-weight="bold" lengthAdjust="spacing" textLength="9.8" x="421.05" y="361.5028">12</text><text fill="#000000" font-family="sans-serif" font-size="9.1" lengthAdjust="spacing" textLength="67.9" x="433.65" y="361.5028">modelRepository</text><polygon fill="#181818" points="658.7,396.3941,665.7,399.1941,658.7,401.9941,661.5,399.1941" style="stroke:#181818;stroke-width:0.6999999999999998;"/><line style="stroke:#181818;stroke-width:0.6999999999999998;" x1="405.65" x2="662.9" y1="399.1941" y2="399.1941"/><text fill="#000000" font-family="sans-serif" font-size="9.1" font-weight="bold" lengthAdjust="spacing" textLength="9.8" x="410.55" y="389.4584">13</text><text fill="#000000" font-family="sans-serif" font-size="9.1" lengthAdjust="spacing" textLength="112.7" x="423.15" y="383.4065">createModel(windTolerance,</text><text fill="#000000" font-family="sans-serif" font-size="9.1" lengthAdjust="spacing" textLength="163.1" x="423.15" y="395.5103">windSpeed, posTolerance, safetyStatus)</text><line style="stroke:#181818;stroke-width:0.6999999999999998;" x1="674.1" x2="707" y1="417.5979" y2="417.5979"/><line style="stroke:#181818;stroke-width:0.6999999999999998;" x1="707" x2="707" y1="417.5979" y2="426.6979"/><line style="stroke:#181818;stroke-width:0.6999999999999998;" x1="678.3" x2="707" y1="426.6979" y2="426.6979"/><polygon fill="#181818" points="685.3,423.8979,678.3,426.6979,685.3,429.4979,682.5,426.6979" style="stroke:#181818;stroke-width:0.6999999999999998;"/><text fill="#000000" font-family="sans-serif" font-size="9.1" font-weight="bold" lengthAdjust="spacing" textLength="9.8" x="682.5" y="413.914">14</text><text fill="#000000" font-family="sans-serif" font-size="9.1" lengthAdjust="spacing" textLength="44.1" x="695.1" y="413.914">getNextId()</text><line style="stroke:#181818;stroke-width:0.6999999999999998;stroke-dasharray:2.0,2.0;" x1="677.6" x2="707" y1="455.6016" y2="455.6016"/><line style="stroke:#181818;stroke-width:0.6999999999999998;stroke-dasharray:2.0,2.0;" x1="707" x2="707" y1="455.6016" y2="464.7016"/><line style="stroke:#181818;stroke-width:0.6999999999999998;stroke-dasharray:2.0,2.0;" x1="674.1" x2="707" y1="464.7016" y2="464.7016"/><polygon fill="#181818" points="681.1,461.9016,674.1,464.7016,681.1,467.5016,678.3,464.7016" style="stroke:#181818;stroke-width:0.6999999999999998;"/><text fill="#000000" font-family="sans-serif" font-size="9.1" font-weight="bold" lengthAdjust="spacing" textLength="9.8" x="682.5" y="451.9177">15</text><text fill="#000000" font-family="sans-serif" font-size="9.1" lengthAdjust="spacing" textLength="32.9" x="695.1" y="451.9177">modelID</text><polygon fill="#181818" points="984.2,480.3053,991.2,483.1053,984.2,485.9053,987,483.1053" style="stroke:#181818;stroke-width:0.6999999999999998;"/><line style="stroke:#181818;stroke-width:0.6999999999999998;" x1="674.1" x2="988.4" y1="483.1053" y2="483.1053"/><text fill="#000000" font-family="sans-serif" font-size="9.1" font-weight="bold" lengthAdjust="spacing" textLength="9.8" x="679" y="479.4214">16</text><text fill="#000000" font-family="sans-serif" font-size="9.1" lengthAdjust="spacing" textLength="292.6" x="691.6" y="479.4214">create(modelID, windTolerance, windSpeed, posTolerance, safetyStatus)</text><polygon fill="#181818" points="681.8,502.209,674.8,505.009,681.8,507.809,679,505.009" style="stroke:#181818;stroke-width:0.6999999999999998;"/><line style="stroke:#181818;stroke-width:0.6999999999999998;stroke-dasharray:2.0,2.0;" x1="677.6" x2="995.4" y1="505.009" y2="505.009"/><text fill="#000000" font-family="sans-serif" font-size="9.1" font-weight="bold" lengthAdjust="spacing" textLength="9.8" x="686" y="501.3251">17</text><text fill="#000000" font-family="sans-serif" font-size="9.1" lengthAdjust="spacing" textLength="56" x="698.6" y="501.3251">modelCreated</text><line style="stroke:#181818;stroke-width:0.6999999999999998;" x1="674.1" x2="707" y1="523.4127" y2="523.4127"/><line style="stroke:#181818;stroke-width:0.6999999999999998;" x1="707" x2="707" y1="523.4127" y2="532.5127"/><line style="stroke:#181818;stroke-width:0.6999999999999998;" x1="678.3" x2="707" y1="532.5127" y2="532.5127"/><polygon fill="#181818" points="685.3,529.7127,678.3,532.5127,685.3,535.3127,682.5,532.5127" style="stroke:#181818;stroke-width:0.6999999999999998;"/><text fill="#000000" font-family="sans-serif" font-size="9.1" font-weight="bold" lengthAdjust="spacing" textLength="9.8" x="682.5" y="519.7288">18</text><text fill="#000000" font-family="sans-serif" font-size="9.1" lengthAdjust="spacing" textLength="116.2" x="695.1" y="519.7288">validateModel(modelCreated)</text><line style="stroke:#181818;stroke-width:0.6999999999999998;stroke-dasharray:2.0,2.0;" x1="677.6" x2="707" y1="561.4164" y2="561.4164"/><line style="stroke:#181818;stroke-width:0.6999999999999998;stroke-dasharray:2.0,2.0;" x1="707" x2="707" y1="561.4164" y2="570.5164"/><line style="stroke:#181818;stroke-width:0.6999999999999998;stroke-dasharray:2.0,2.0;" x1="674.1" x2="707" y1="570.5164" y2="570.5164"/><polygon fill="#181818" points="681.1,567.7164,674.1,570.5164,681.1,573.3164,678.3,570.5164" style="stroke:#181818;stroke-width:0.6999999999999998;"/><text fill="#000000" font-family="sans-serif" font-size="9.1" font-weight="bold" lengthAdjust="spacing" textLength="9.8" x="682.5" y="557.7325">19</text><text fill="#000000" font-family="sans-serif" font-size="9.1" lengthAdjust="spacing" textLength="15.4" x="695.1" y="557.7325">true</text><polygon fill="#181818" points="413.35,586.1201,406.35,588.9201,413.35,591.7201,410.55,588.9201" style="stroke:#181818;stroke-width:0.6999999999999998;"/><line style="stroke:#181818;stroke-width:0.6999999999999998;stroke-dasharray:2.0,2.0;" x1="409.15" x2="669.9" y1="588.9201" y2="588.9201"/><text fill="#000000" font-family="sans-serif" font-size="9.1" font-weight="bold" lengthAdjust="spacing" textLength="9.8" x="417.55" y="585.2362">20</text><text fill="#000000" font-family="sans-serif" font-size="9.1" lengthAdjust="spacing" textLength="15.4" x="430.15" y="585.2362">true</text><polygon fill="#181818" points="222.25,608.0238,215.25,610.8238,222.25,613.6238,219.45,610.8238" style="stroke:#181818;stroke-width:0.6999999999999998;"/><line style="stroke:#181818;stroke-width:0.6999999999999998;stroke-dasharray:2.0,2.0;" x1="218.05" x2="401.45" y1="610.8238" y2="610.8238"/><text fill="#000000" font-family="sans-serif" font-size="9.1" font-weight="bold" lengthAdjust="spacing" textLength="9.8" x="226.45" y="607.1399">21</text><text fill="#000000" font-family="sans-serif" font-size="9.1" lengthAdjust="spacing" textLength="15.4" x="239.05" y="607.1399">true</text><polygon fill="#181818" points="38.15,629.9275,31.15,632.7275,38.15,635.5275,35.35,632.7275" style="stroke:#181818;stroke-width:0.6999999999999998;"/><line style="stroke:#181818;stroke-width:0.6999999999999998;stroke-dasharray:2.0,2.0;" x1="33.95" x2="210.35" y1="632.7275" y2="632.7275"/><text fill="#000000" font-family="sans-serif" font-size="9.1" font-weight="bold" lengthAdjust="spacing" textLength="9.8" x="42.35" y="629.0437">22</text><text fill="#000000" font-family="sans-serif" font-size="9.1" lengthAdjust="spacing" textLength="110.6" x="54.95" y="629.0437">displays success message</text><!--SRC=[hLPDZzem4BtdLuou52Ju0nouaAX2ugE2x6sbbJSP82AnKzlPBV- -4mSIEtLWgzO71CwRDyzlPXo-gKl6IoPP0ONW8ZbBKI04GRTTikJ2JdZGrnn1Og8PF-Le0TIPfU8puoSuibnX4B1A2ruLxoZfUwA5X54e1SSOa_C8c88m3YXKPqbMCgvXD5zAP1et8iNyPMKWBwjXo59mBKMUepJGPRnVk-0zba9bb3X3PI3xwCVku6AaXNdbSt_8ss6r_RwEujtM3Ivg6Mt8bU8txewXsEp2jvh64tkFkEEYjR4g-w0prlO4OGop1Ra0S_ByPuLAAz024kC2CE3u2MbjAXY-BfYC0reKEIC2efbJYek28vN1G25bcXbCYlqeAwkgtekCahReWGm6V44iGmAEgGtIM51b64zm2g-ytZYKYEaKo1lhaM97rDU3PhfIas79YU37J1PCPu8_5tr3Fr6zC2rJmxkU-YVbRHBJYd1R9icipNP2tMkIyQJ5Fc9ODBr8UebYnPMkPVXYcou7QpM1dGQmkxv5MfOs57u1tJ0qKhvmcluG_Q7DuhHKziPhKEW0yrtrVVx-OwKzIfoAEQTlv__-f1NaYYClj_XBhrAVXGz8N1PZsYhqcTLo32c9kcaOttYcqFFfBrsoaqThEt5afgAllBdVqm7vaMln8qFdyC7oB6tBRRDFl2p3NW_dSxtNia9laAy8VkhWQRxRS7XpVQtgxOraBak7AF1rTM1VoMccofnT5RqPaWILWe8-w8z1uDx8rYzwZ_q6]--></g></svg>