<?xml version="1.0" encoding="UTF-8" standalone="no"?><svg xmlns="http://www.w3.org/2000/svg" xmlns:xlink="http://www.w3.org/1999/xlink" contentStyleType="text/css" height="1266px" preserveAspectRatio="none" style="width:2104px;height:1266px;background:#FFFFFF;" version="1.1" viewBox="0 0 2104 1266" width="2104px" zoomAndPan="magnify"><defs/><g><rect fill="#FFFFFF" height="1059.0625" style="stroke:#181818;stroke-width:1.0;" width="10" x="51" y="100.1563"/><rect fill="#FFFFFF" height="39.1563" style="stroke:#181818;stroke-width:1.0;" width="10" x="430" y="131.3125"/><rect fill="#FFFFFF" height="116.4688" style="stroke:#181818;stroke-width:1.0;" width="10" x="430" y="209.625"/><rect fill="#FFFFFF" height="793.9688" style="stroke:#181818;stroke-width:1.0;" width="10" x="430" y="365.25"/><rect fill="#FFFFFF" height="690.5" style="stroke:#181818;stroke-width:1.0;" width="10" x="831" y="429.5625"/><rect fill="#FFFFFF" height="206.7813" style="stroke:#181818;stroke-width:1.0;" width="10" x="836" y="476.7188"/><rect fill="#FFFFFF" height="39.1563" style="stroke:#181818;stroke-width:1.0;" width="10" x="1061" y="520.875"/><rect fill="#FFFFFF" height="84.3125" style="stroke:#181818;stroke-width:1.0;" width="10" x="1198" y="599.1875"/><rect fill="#FFFFFF" height="326.0938" style="stroke:#181818;stroke-width:1.0;" width="10" x="1357.5" y="754.8125"/><rect fill="#FFFFFF" height="50.1563" style="stroke:#181818;stroke-width:1.0;" width="10" x="1362.5" y="801.9688"/><rect fill="#FFFFFF" height="50.1563" style="stroke:#181818;stroke-width:1.0;" width="10" x="1362.5" y="984.5938"/><rect fill="#FFFFFF" height="39.1563" style="stroke:#181818;stroke-width:1.0;" width="10" x="2056.5" y="898.2813"/><line style="stroke:#181818;stroke-width:0.5;stroke-dasharray:5.0,5.0;" x1="56" x2="56" y1="90.1563" y2="1177.2188"/><line style="stroke:#181818;stroke-width:0.5;stroke-dasharray:5.0,5.0;" x1="434.5" x2="434.5" y1="90.1563" y2="1177.2188"/><line style="stroke:#181818;stroke-width:0.5;stroke-dasharray:5.0,5.0;" x1="835.5" x2="835.5" y1="90.1563" y2="1177.2188"/><line style="stroke:#181818;stroke-width:0.5;stroke-dasharray:5.0,5.0;" x1="1066" x2="1066" y1="90.1563" y2="1177.2188"/><line style="stroke:#181818;stroke-width:0.5;stroke-dasharray:5.0,5.0;" x1="1203" x2="1203" y1="90.1563" y2="1177.2188"/><line style="stroke:#181818;stroke-width:0.5;stroke-dasharray:5.0,5.0;" x1="1362" x2="1362" y1="90.1563" y2="1177.2188"/><line style="stroke:#181818;stroke-width:0.5;stroke-dasharray:5.0,5.0;" x1="2061.5" x2="2061.5" y1="90.1563" y2="1177.2188"/><text fill="#000000" font-family="sans-serif" font-size="20" lengthAdjust="spacing" textLength="96" x="5" y="85.7617">DroneTech</text><ellipse cx="56" cy="13.5" fill="#E2E2F0" rx="8" ry="8" style="stroke:#181818;stroke-width:0.5;"/><path d="M56,21.5 L56,48.5 M43,29.5 L69,29.5 M56,48.5 L43,63.5 M56,48.5 L69,63.5 " fill="none" style="stroke:#181818;stroke-width:0.5;"/><text fill="#000000" font-family="sans-serif" font-size="20" lengthAdjust="spacing" textLength="96" x="5" y="1196.9805">DroneTech</text><ellipse cx="56" cy="1209.875" fill="#E2E2F0" rx="8" ry="8" style="stroke:#181818;stroke-width:0.5;"/><path d="M56,1217.875 L56,1244.875 M43,1225.875 L69,1225.875 M56,1244.875 L43,1259.875 M56,1244.875 L69,1259.875 " fill="none" style="stroke:#181818;stroke-width:0.5;"/><rect fill="#E2E2F0" height="39.1563" rx="2.5" ry="2.5" style="stroke:#181818;stroke-width:0.5;" width="153" x="358.5" y="50"/><text fill="#000000" font-family="sans-serif" font-size="20" lengthAdjust="spacing" textLength="139" x="365.5" y="77.7617">:CreateModelUI</text><rect fill="#E2E2F0" height="39.1563" rx="2.5" ry="2.5" style="stroke:#181818;stroke-width:0.5;" width="153" x="358.5" y="1176.2188"/><text fill="#000000" font-family="sans-serif" font-size="20" lengthAdjust="spacing" textLength="139" x="365.5" y="1203.9805">:CreateModelUI</text><rect fill="#E2E2F0" height="39.1563" rx="2.5" ry="2.5" style="stroke:#181818;stroke-width:0.5;" width="219" x="726.5" y="50"/><text fill="#000000" font-family="sans-serif" font-size="20" lengthAdjust="spacing" textLength="205" x="733.5" y="77.7617">:CreateModelController</text><rect fill="#E2E2F0" height="39.1563" rx="2.5" ry="2.5" style="stroke:#181818;stroke-width:0.5;" width="219" x="726.5" y="1176.2188"/><text fill="#000000" font-family="sans-serif" font-size="20" lengthAdjust="spacing" textLength="205" x="733.5" y="1203.9805">:CreateModelController</text><rect fill="#E2E2F0" height="39.1563" rx="2.5" ry="2.5" style="stroke:#181818;stroke-width:0.5;" width="124" x="1004" y="50"/><text fill="#000000" font-family="sans-serif" font-size="20" lengthAdjust="spacing" textLength="110" x="1011" y="77.7617">Repositories</text><rect fill="#E2E2F0" height="39.1563" rx="2.5" ry="2.5" style="stroke:#181818;stroke-width:0.5;" width="124" x="1004" y="1176.2188"/><text fill="#000000" font-family="sans-serif" font-size="20" lengthAdjust="spacing" textLength="110" x="1011" y="1203.9805">Repositories</text><rect fill="#E2E2F0" height="64.3125" rx="2.5" ry="2.5" style="stroke:#181818;stroke-width:0.5;" width="130" x="1138" y="24.8438"/><text fill="#000000" font-family="sans-serif" font-size="20" lengthAdjust="spacing" textLength="103" x="1151.5" y="52.6055">repositories</text><text fill="#000000" font-family="sans-serif" font-size="20" lengthAdjust="spacing" textLength="116" x="1145" y="77.7617">:Repositories</text><rect fill="#E2E2F0" height="64.3125" rx="2.5" ry="2.5" style="stroke:#181818;stroke-width:0.5;" width="130" x="1138" y="1176.2188"/><text fill="#000000" font-family="sans-serif" font-size="20" lengthAdjust="spacing" textLength="103" x="1151.5" y="1203.9805">repositories</text><text fill="#000000" font-family="sans-serif" font-size="20" lengthAdjust="spacing" textLength="116" x="1145" y="1229.1367">:Repositories</text><rect fill="#E2E2F0" height="64.3125" rx="2.5" ry="2.5" style="stroke:#181818;stroke-width:0.5;" width="169" x="1278" y="24.8438"/><text fill="#000000" font-family="sans-serif" font-size="20" lengthAdjust="spacing" textLength="148" x="1288.5" y="52.6055">modelRepository</text><text fill="#000000" font-family="sans-serif" font-size="20" lengthAdjust="spacing" textLength="155" x="1285" y="77.7617">:ModelRepository</text><rect fill="#E2E2F0" height="64.3125" rx="2.5" ry="2.5" style="stroke:#181818;stroke-width:0.5;" width="169" x="1278" y="1176.2188"/><text fill="#000000" font-family="sans-serif" font-size="20" lengthAdjust="spacing" textLength="148" x="1288.5" y="1203.9805">modelRepository</text><text fill="#000000" font-family="sans-serif" font-size="20" lengthAdjust="spacing" textLength="155" x="1285" y="1229.1367">:ModelRepository</text><rect fill="#E2E2F0" height="64.3125" rx="2.5" ry="2.5" style="stroke:#181818;stroke-width:0.5;" width="74" x="2024.5" y="24.8438"/><text fill="#000000" font-family="sans-serif" font-size="20" lengthAdjust="spacing" textLength="53" x="2035" y="52.6055">model</text><text fill="#000000" font-family="sans-serif" font-size="20" lengthAdjust="spacing" textLength="60" x="2031.5" y="77.7617">:Model</text><rect fill="#E2E2F0" height="64.3125" rx="2.5" ry="2.5" style="stroke:#181818;stroke-width:0.5;" width="74" x="2024.5" y="1176.2188"/><text fill="#000000" font-family="sans-serif" font-size="20" lengthAdjust="spacing" textLength="53" x="2035" y="1203.9805">model</text><text fill="#000000" font-family="sans-serif" font-size="20" lengthAdjust="spacing" textLength="60" x="2031.5" y="1229.1367">:Model</text><rect fill="#FFFFFF" height="1059.0625" style="stroke:#181818;stroke-width:1.0;" width="10" x="51" y="100.1563"/><rect fill="#FFFFFF" height="39.1563" style="stroke:#181818;stroke-width:1.0;" width="10" x="430" y="131.3125"/><rect fill="#FFFFFF" height="116.4688" style="stroke:#181818;stroke-width:1.0;" width="10" x="430" y="209.625"/><rect fill="#FFFFFF" height="793.9688" style="stroke:#181818;stroke-width:1.0;" width="10" x="430" y="365.25"/><rect fill="#FFFFFF" height="690.5" style="stroke:#181818;stroke-width:1.0;" width="10" x="831" y="429.5625"/><rect fill="#FFFFFF" height="206.7813" style="stroke:#181818;stroke-width:1.0;" width="10" x="836" y="476.7188"/><rect fill="#FFFFFF" height="39.1563" style="stroke:#181818;stroke-width:1.0;" width="10" x="1061" y="520.875"/><rect fill="#FFFFFF" height="84.3125" style="stroke:#181818;stroke-width:1.0;" width="10" x="1198" y="599.1875"/><rect fill="#FFFFFF" height="326.0938" style="stroke:#181818;stroke-width:1.0;" width="10" x="1357.5" y="754.8125"/><rect fill="#FFFFFF" height="50.1563" style="stroke:#181818;stroke-width:1.0;" width="10" x="1362.5" y="801.9688"/><rect fill="#FFFFFF" height="50.1563" style="stroke:#181818;stroke-width:1.0;" width="10" x="1362.5" y="984.5938"/><rect fill="#FFFFFF" height="39.1563" style="stroke:#181818;stroke-width:1.0;" width="10" x="2056.5" y="898.2813"/><polygon fill="#181818" points="418,127.3125,428,131.3125,418,135.3125,422,131.3125" style="stroke:#181818;stroke-width:1.0;"/><line style="stroke:#181818;stroke-width:1.0;" x1="61" x2="424" y1="131.3125" y2="131.3125"/><text fill="#000000" font-family="sans-serif" font-size="20" font-weight="bold" lengthAdjust="spacing" textLength="11" x="68" y="124.918">1</text><text fill="#000000" font-family="sans-serif" font-size="20" lengthAdjust="spacing" textLength="335" x="83" y="124.918">requests to create a new drone model</text><polygon fill="#181818" points="72,166.4688,62,170.4688,72,174.4688,68,170.4688" style="stroke:#181818;stroke-width:1.0;"/><line style="stroke:#181818;stroke-width:1.0;stroke-dasharray:2.0,2.0;" x1="66" x2="434" y1="170.4688" y2="170.4688"/><text fill="#000000" font-family="sans-serif" font-size="20" font-weight="bold" lengthAdjust="spacing" textLength="11" x="78" y="164.0742">2</text><text fill="#000000" font-family="sans-serif" font-size="20" lengthAdjust="spacing" textLength="175" x="93" y="164.0742">asks for model data</text><polygon fill="#181818" points="418,205.625,428,209.625,418,213.625,422,209.625" style="stroke:#181818;stroke-width:1.0;"/><line style="stroke:#181818;stroke-width:1.0;" x1="61" x2="424" y1="209.625" y2="209.625"/><text fill="#000000" font-family="sans-serif" font-size="20" font-weight="bold" lengthAdjust="spacing" textLength="11" x="68" y="203.2305">3</text><text fill="#000000" font-family="sans-serif" font-size="20" lengthAdjust="spacing" textLength="112" x="83" y="203.2305">submits data</text><line style="stroke:#181818;stroke-width:1.0;stroke-dasharray:2.0,2.0;" x1="440" x2="482" y1="273.9375" y2="273.9375"/><line style="stroke:#181818;stroke-width:1.0;stroke-dasharray:2.0,2.0;" x1="482" x2="482" y1="273.9375" y2="286.9375"/><line style="stroke:#181818;stroke-width:1.0;stroke-dasharray:2.0,2.0;" x1="441" x2="482" y1="286.9375" y2="286.9375"/><polygon fill="#181818" points="451,282.9375,441,286.9375,451,290.9375,447,286.9375" style="stroke:#181818;stroke-width:1.0;"/><text fill="#000000" font-family="sans-serif" font-size="20" font-weight="bold" lengthAdjust="spacing" textLength="11" x="447" y="254.9648">4</text><text fill="#000000" font-family="sans-serif" font-size="20" lengthAdjust="spacing" textLength="225" x="462" y="242.3867">keepData(windTolerance,</text><text fill="#000000" font-family="sans-serif" font-size="20" lengthAdjust="spacing" textLength="357" x="462" y="267.543">windSpeed, posTolerance, safetyStatus)</text><polygon fill="#181818" points="72,322.0938,62,326.0938,72,330.0938,68,326.0938" style="stroke:#181818;stroke-width:1.0;"/><line style="stroke:#181818;stroke-width:1.0;stroke-dasharray:2.0,2.0;" x1="66" x2="434" y1="326.0938" y2="326.0938"/><text fill="#000000" font-family="sans-serif" font-size="20" font-weight="bold" lengthAdjust="spacing" textLength="11" x="78" y="319.6992">5</text><text fill="#000000" font-family="sans-serif" font-size="20" lengthAdjust="spacing" textLength="183" x="93" y="319.6992">asks for confirmation</text><polygon fill="#181818" points="418,361.25,428,365.25,418,369.25,422,365.25" style="stroke:#181818;stroke-width:1.0;"/><line style="stroke:#181818;stroke-width:1.0;" x1="61" x2="424" y1="365.25" y2="365.25"/><text fill="#000000" font-family="sans-serif" font-size="20" font-weight="bold" lengthAdjust="spacing" textLength="11" x="68" y="358.8555">6</text><text fill="#000000" font-family="sans-serif" font-size="20" lengthAdjust="spacing" textLength="119" x="83" y="358.8555">confirms data</text><polygon fill="#181818" points="819,425.5625,829,429.5625,819,433.5625,823,429.5625" style="stroke:#181818;stroke-width:1.0;"/><line style="stroke:#181818;stroke-width:1.0;" x1="440" x2="825" y1="429.5625" y2="429.5625"/><text fill="#000000" font-family="sans-serif" font-size="20" font-weight="bold" lengthAdjust="spacing" textLength="11" x="447" y="410.5898">7</text><text fill="#000000" font-family="sans-serif" font-size="20" lengthAdjust="spacing" textLength="250" x="462" y="398.0117">createModel(windTolerance,</text><text fill="#000000" font-family="sans-serif" font-size="20" lengthAdjust="spacing" textLength="357" x="462" y="423.168">windSpeed, posTolerance, safetyStatus)</text><line style="stroke:#181818;stroke-width:1.0;stroke-dasharray:2.0,2.0;" x1="841" x2="888" y1="463.7188" y2="463.7188"/><line style="stroke:#181818;stroke-width:1.0;stroke-dasharray:2.0,2.0;" x1="888" x2="888" y1="463.7188" y2="476.7188"/><line style="stroke:#181818;stroke-width:1.0;stroke-dasharray:2.0,2.0;" x1="847" x2="888" y1="476.7188" y2="476.7188"/><polygon fill="#181818" points="857,472.7188,847,476.7188,857,480.7188,853,476.7188" style="stroke:#181818;stroke-width:1.0;"/><text fill="#000000" font-family="sans-serif" font-size="20" font-weight="bold" lengthAdjust="spacing" textLength="11" x="853" y="457.3242">8</text><text fill="#000000" font-family="sans-serif" font-size="20" lengthAdjust="spacing" textLength="191" x="868" y="457.3242">getModelRepository()</text><polygon fill="#181818" points="1049,516.875,1059,520.875,1049,524.875,1053,520.875" style="stroke:#181818;stroke-width:1.0;"/><line style="stroke:#181818;stroke-width:1.0;" x1="846" x2="1055" y1="520.875" y2="520.875"/><text fill="#000000" font-family="sans-serif" font-size="20" font-weight="bold" lengthAdjust="spacing" textLength="11" x="853" y="514.4805">9</text><text fill="#000000" font-family="sans-serif" font-size="20" lengthAdjust="spacing" textLength="116" x="868" y="514.4805">getInstance()</text><polygon fill="#181818" points="857,556.0313,847,560.0313,857,564.0313,853,560.0313" style="stroke:#181818;stroke-width:1.0;"/><line style="stroke:#181818;stroke-width:1.0;stroke-dasharray:2.0,2.0;" x1="851" x2="1065" y1="560.0313" y2="560.0313"/><text fill="#000000" font-family="sans-serif" font-size="20" font-weight="bold" lengthAdjust="spacing" textLength="22" x="863" y="553.6367">10</text><text fill="#000000" font-family="sans-serif" font-size="20" lengthAdjust="spacing" textLength="103" x="889" y="553.6367">repositories</text><polygon fill="#181818" points="1186,595.1875,1196,599.1875,1186,603.1875,1190,599.1875" style="stroke:#181818;stroke-width:1.0;"/><line style="stroke:#181818;stroke-width:1.0;" x1="846" x2="1192" y1="599.1875" y2="599.1875"/><text fill="#000000" font-family="sans-serif" font-size="20" font-weight="bold" lengthAdjust="spacing" textLength="22" x="853" y="592.793">11</text><text fill="#000000" font-family="sans-serif" font-size="20" lengthAdjust="spacing" textLength="191" x="879" y="592.793">getModelRepository()</text><polygon fill="#181818" points="857,634.3438,847,638.3438,857,642.3438,853,638.3438" style="stroke:#181818;stroke-width:1.0;"/><line style="stroke:#181818;stroke-width:1.0;stroke-dasharray:2.0,2.0;" x1="851" x2="1197" y1="638.3438" y2="638.3438"/><text fill="#000000" font-family="sans-serif" font-size="20" font-weight="bold" lengthAdjust="spacing" textLength="22" x="863" y="631.9492">12</text><text fill="#000000" font-family="sans-serif" font-size="20" lengthAdjust="spacing" textLength="148" x="889" y="631.9492">modelRepository</text><line style="stroke:#181818;stroke-width:1.0;stroke-dasharray:2.0,2.0;" x1="846" x2="888" y1="682.5" y2="682.5"/><line style="stroke:#181818;stroke-width:1.0;stroke-dasharray:2.0,2.0;" x1="888" x2="888" y1="682.5" y2="695.5"/><line style="stroke:#181818;stroke-width:1.0;stroke-dasharray:2.0,2.0;" x1="841" x2="888" y1="695.5" y2="695.5"/><polygon fill="#181818" points="851,691.5,841,695.5,851,699.5,847,695.5" style="stroke:#181818;stroke-width:1.0;"/><text fill="#000000" font-family="sans-serif" font-size="20" font-weight="bold" lengthAdjust="spacing" textLength="22" x="853" y="676.1055">13</text><text fill="#000000" font-family="sans-serif" font-size="20" lengthAdjust="spacing" textLength="148" x="879" y="676.1055">modelRepository</text><polygon fill="#181818" points="1345.5,750.8125,1355.5,754.8125,1345.5,758.8125,1349.5,754.8125" style="stroke:#181818;stroke-width:1.0;"/><line style="stroke:#181818;stroke-width:1.0;" x1="841" x2="1351.5" y1="754.8125" y2="754.8125"/><text fill="#000000" font-family="sans-serif" font-size="20" font-weight="bold" lengthAdjust="spacing" textLength="22" x="848" y="735.8398">14</text><text fill="#000000" font-family="sans-serif" font-size="20" lengthAdjust="spacing" textLength="250" x="874" y="723.2617">createModel(windTolerance,</text><text fill="#000000" font-family="sans-serif" font-size="20" lengthAdjust="spacing" textLength="357" x="874" y="748.418">windSpeed, posTolerance, safetyStatus)</text><line style="stroke:#181818;stroke-width:1.0;" x1="1367.5" x2="1414.5" y1="788.9688" y2="788.9688"/><line style="stroke:#181818;stroke-width:1.0;" x1="1414.5" x2="1414.5" y1="788.9688" y2="801.9688"/><line style="stroke:#181818;stroke-width:1.0;" x1="1373.5" x2="1414.5" y1="801.9688" y2="801.9688"/><polygon fill="#181818" points="1383.5,797.9688,1373.5,801.9688,1383.5,805.9688,1379.5,801.9688" style="stroke:#181818;stroke-width:1.0;"/><text fill="#000000" font-family="sans-serif" font-size="20" font-weight="bold" lengthAdjust="spacing" textLength="22" x="1379.5" y="782.5742">15</text><text fill="#000000" font-family="sans-serif" font-size="20" lengthAdjust="spacing" textLength="98" x="1405.5" y="782.5742">getNextId()</text><line style="stroke:#181818;stroke-width:1.0;stroke-dasharray:2.0,2.0;" x1="1372.5" x2="1414.5" y1="851.125" y2="851.125"/><line style="stroke:#181818;stroke-width:1.0;stroke-dasharray:2.0,2.0;" x1="1414.5" x2="1414.5" y1="851.125" y2="864.125"/><line style="stroke:#181818;stroke-width:1.0;stroke-dasharray:2.0,2.0;" x1="1367.5" x2="1414.5" y1="864.125" y2="864.125"/><polygon fill="#181818" points="1377.5,860.125,1367.5,864.125,1377.5,868.125,1373.5,864.125" style="stroke:#181818;stroke-width:1.0;"/><text fill="#000000" font-family="sans-serif" font-size="20" font-weight="bold" lengthAdjust="spacing" textLength="22" x="1379.5" y="844.7305">16</text><text fill="#000000" font-family="sans-serif" font-size="20" lengthAdjust="spacing" textLength="73" x="1405.5" y="844.7305">modelID</text><polygon fill="#181818" points="2044.5,894.2813,2054.5,898.2813,2044.5,902.2813,2048.5,898.2813" style="stroke:#181818;stroke-width:1.0;"/><line style="stroke:#181818;stroke-width:1.0;" x1="1367.5" x2="2050.5" y1="898.2813" y2="898.2813"/><text fill="#000000" font-family="sans-serif" font-size="20" font-weight="bold" lengthAdjust="spacing" textLength="22" x="1374.5" y="891.8867">17</text><text fill="#000000" font-family="sans-serif" font-size="20" lengthAdjust="spacing" textLength="644" x="1400.5" y="891.8867">create(modelID, windTolerance, windSpeed, posTolerance, safetyStatus)</text><polygon fill="#181818" points="1378.5,933.4375,1368.5,937.4375,1378.5,941.4375,1374.5,937.4375" style="stroke:#181818;stroke-width:1.0;"/><line style="stroke:#181818;stroke-width:1.0;stroke-dasharray:2.0,2.0;" x1="1372.5" x2="2060.5" y1="937.4375" y2="937.4375"/><text fill="#000000" font-family="sans-serif" font-size="20" font-weight="bold" lengthAdjust="spacing" textLength="22" x="1384.5" y="931.043">18</text><text fill="#000000" font-family="sans-serif" font-size="20" lengthAdjust="spacing" textLength="124" x="1410.5" y="931.043">modelCreated</text><line style="stroke:#181818;stroke-width:1.0;" x1="1367.5" x2="1414.5" y1="971.5938" y2="971.5938"/><line style="stroke:#181818;stroke-width:1.0;" x1="1414.5" x2="1414.5" y1="971.5938" y2="984.5938"/><line style="stroke:#181818;stroke-width:1.0;" x1="1373.5" x2="1414.5" y1="984.5938" y2="984.5938"/><polygon fill="#181818" points="1383.5,980.5938,1373.5,984.5938,1383.5,988.5938,1379.5,984.5938" style="stroke:#181818;stroke-width:1.0;"/><text fill="#000000" font-family="sans-serif" font-size="20" font-weight="bold" lengthAdjust="spacing" textLength="22" x="1379.5" y="965.1992">19</text><text fill="#000000" font-family="sans-serif" font-size="20" lengthAdjust="spacing" textLength="259" x="1405.5" y="965.1992">validateModel(modelCreated)</text><line style="stroke:#181818;stroke-width:1.0;stroke-dasharray:2.0,2.0;" x1="1372.5" x2="1414.5" y1="1033.75" y2="1033.75"/><line style="stroke:#181818;stroke-width:1.0;stroke-dasharray:2.0,2.0;" x1="1414.5" x2="1414.5" y1="1033.75" y2="1046.75"/><line style="stroke:#181818;stroke-width:1.0;stroke-dasharray:2.0,2.0;" x1="1367.5" x2="1414.5" y1="1046.75" y2="1046.75"/><polygon fill="#181818" points="1377.5,1042.75,1367.5,1046.75,1377.5,1050.75,1373.5,1046.75" style="stroke:#181818;stroke-width:1.0;"/><text fill="#000000" font-family="sans-serif" font-size="20" font-weight="bold" lengthAdjust="spacing" textLength="22" x="1379.5" y="1027.3555">20</text><text fill="#000000" font-family="sans-serif" font-size="20" lengthAdjust="spacing" textLength="34" x="1405.5" y="1027.3555">true</text><polygon fill="#181818" points="852,1076.9063,842,1080.9063,852,1084.9063,848,1080.9063" style="stroke:#181818;stroke-width:1.0;"/><line style="stroke:#181818;stroke-width:1.0;stroke-dasharray:2.0,2.0;" x1="846" x2="1361.5" y1="1080.9063" y2="1080.9063"/><text fill="#000000" font-family="sans-serif" font-size="20" font-weight="bold" lengthAdjust="spacing" textLength="22" x="858" y="1074.5117">21</text><text fill="#000000" font-family="sans-serif" font-size="20" lengthAdjust="spacing" textLength="34" x="884" y="1074.5117">true</text><polygon fill="#181818" points="451,1116.0625,441,1120.0625,451,1124.0625,447,1120.0625" style="stroke:#181818;stroke-width:1.0;"/><line style="stroke:#181818;stroke-width:1.0;stroke-dasharray:2.0,2.0;" x1="445" x2="835" y1="1120.0625" y2="1120.0625"/><text fill="#000000" font-family="sans-serif" font-size="20" font-weight="bold" lengthAdjust="spacing" textLength="22" x="457" y="1113.668">22</text><text fill="#000000" font-family="sans-serif" font-size="20" lengthAdjust="spacing" textLength="34" x="483" y="1113.668">true</text><polygon fill="#181818" points="67,1155.2188,57,1159.2188,67,1163.2188,63,1159.2188" style="stroke:#181818;stroke-width:1.0;"/><line style="stroke:#181818;stroke-width:1.0;stroke-dasharray:2.0,2.0;" x1="61" x2="434" y1="1159.2188" y2="1159.2188"/><text fill="#000000" font-family="sans-serif" font-size="20" font-weight="bold" lengthAdjust="spacing" textLength="22" x="73" y="1152.8242">23</text><text fill="#000000" font-family="sans-serif" font-size="20" lengthAdjust="spacing" textLength="234" x="99" y="1152.8242">displays success message</text><!--SRC=[hLPDZvim4BtpAqQvD94sKjLZ3haaR8MKZogmjvLMNZn9h81DiTbj-kixc0GC2ybMBOSeWVVUF3_FcEYJa1dBMPge-8GSEEvPaPX79KqeVYDy- -fzqLSCf4gg-9Yh53slkPkn-CGE69fpWf1ZR9Wy9EW0z95nzIxa0VOiqSHbXL6oI5ynf- -nKJcCbhcI665y707Ji8myeXeHYun90wFP8aTcSAqu9a-1XJm5mv05sSzLac1keOjejsg3TvWfBQYmG6qXE__7DcnZSWVpB6Vzb9Sms7nV-T5sqoQdfOsQSYR-kdt7IgotovTIfeTxPLnn_if69TveZMKytZA2wPnIW1bb_hD0RJGO1R5D0HX8V0TUXWfMho5JS40NCQSaG38pAd7IiATji53Wp32BuTXbELLryPeAAbgZ1ofOy0anMn9mJ6t08qKxmsIC3_0ionjXXiWVWB9n7ccsHtCE3JE5dWnRZfNSYpnbHYXvt_G5VSVrtBPC2Mzwwf-SrqLiAyBbiaMcTRK3cawJZ2SrzfR2lEf5yaiIWTIcjD77hReSdAiYDXx0xVeQwKHQIVGRQ8QXilA9rNI7w8CtHzDnsHcl3udUWNNNqsF0WRGITnTz7T__r2Yj6dNr-eouFgchjXrGtXlyPGBU5_CDaRQAJInOziLGQmmvyPk96Lzq7g0Jnb_CJ7S1_iejxDjzxZgltW5ymBxVtiPRWSxWZIM2rtlggazwLOQp7gxNpjxa1VQIRcx2eF9b1gpgv_QpFe_iKTaGkxFWkGSn5pfBs5dJ-o2EKMj8wOF-3dZjSzZvHM-lFm00]--></g></svg>