<?xml version="1.0" encoding="UTF-8" standalone="no"?><svg xmlns="http://www.w3.org/2000/svg" xmlns:xlink="http://www.w3.org/1999/xlink" contentStyleType="text/css" height="1113px" preserveAspectRatio="none" style="width:2411px;height:1113px;background:#FFFFFF;" version="1.1" viewBox="0 0 2411 1113" width="2411px" zoomAndPan="magnify"><defs/><g><rect fill="#FFFFFF" height="905.4375" style="stroke:#181818;stroke-width:1.0;" width="10" x="51" y="100.1563"/><rect fill="#FFFFFF" height="39.1563" style="stroke:#181818;stroke-width:1.0;" width="10" x="484" y="131.3125"/><rect fill="#FFFFFF" height="39.1563" style="stroke:#181818;stroke-width:1.0;" width="10" x="484" y="209.625"/><rect fill="#FFFFFF" height="717.6563" style="stroke:#181818;stroke-width:1.0;" width="10" x="484" y="287.9375"/><rect fill="#FFFFFF" height="639.3438" style="stroke:#181818;stroke-width:1.0;" width="10" x="879" y="327.0938"/><rect fill="#FFFFFF" height="285.0938" style="stroke:#181818;stroke-width:1.0;" width="10" x="884" y="374.25"/><rect fill="#FFFFFF" height="39.1563" style="stroke:#181818;stroke-width:1.0;" width="10" x="1118" y="418.4063"/><rect fill="#FFFFFF" height="39.1563" style="stroke:#181818;stroke-width:1.0;" width="10" x="1280.5" y="496.7188"/><rect fill="#FFFFFF" height="39.1563" style="stroke:#181818;stroke-width:1.0;" width="10" x="1475.5" y="575.0313"/><rect fill="#FFFFFF" height="221.7813" style="stroke:#181818;stroke-width:1.0;" width="10" x="1664" y="705.5"/><rect fill="#FFFFFF" height="50.1563" style="stroke:#181818;stroke-width:1.0;" width="10" x="1669" y="752.6563"/><rect fill="#FFFFFF" height="39.1563" style="stroke:#181818;stroke-width:1.0;" width="10" x="2363" y="848.9688"/><line style="stroke:#181818;stroke-width:0.5;stroke-dasharray:5.0,5.0;" x1="56" x2="56" y1="90.1563" y2="1023.5938"/><line style="stroke:#181818;stroke-width:0.5;stroke-dasharray:5.0,5.0;" x1="488.5" x2="488.5" y1="90.1563" y2="1023.5938"/><line style="stroke:#181818;stroke-width:0.5;stroke-dasharray:5.0,5.0;" x1="883.5" x2="883.5" y1="90.1563" y2="1023.5938"/><line style="stroke:#181818;stroke-width:0.5;stroke-dasharray:5.0,5.0;" x1="1122.5" x2="1122.5" y1="90.1563" y2="1023.5938"/><line style="stroke:#181818;stroke-width:0.5;stroke-dasharray:5.0,5.0;" x1="1285.5" x2="1285.5" y1="90.1563" y2="1023.5938"/><line style="stroke:#181818;stroke-width:0.5;stroke-dasharray:5.0,5.0;" x1="1480.5" x2="1480.5" y1="90.1563" y2="1023.5938"/><line style="stroke:#181818;stroke-width:0.5;stroke-dasharray:5.0,5.0;" x1="1668.5" x2="1668.5" y1="90.1563" y2="1023.5938"/><line style="stroke:#181818;stroke-width:0.5;stroke-dasharray:5.0,5.0;" x1="2368" x2="2368" y1="90.1563" y2="1023.5938"/><text fill="#000000" font-family="sans-serif" font-size="20" lengthAdjust="spacing" textLength="96" x="5" y="85.7617">DroneTech</text><ellipse cx="56" cy="13.5" fill="#E2E2F0" rx="8" ry="8" style="stroke:#181818;stroke-width:0.5;"/><path d="M56,21.5 L56,48.5 M43,29.5 L69,29.5 M56,48.5 L43,63.5 M56,48.5 L69,63.5 " fill="none" style="stroke:#181818;stroke-width:0.5;"/><text fill="#000000" font-family="sans-serif" font-size="20" lengthAdjust="spacing" textLength="96" x="5" y="1043.3555">DroneTech</text><ellipse cx="56" cy="1056.25" fill="#E2E2F0" rx="8" ry="8" style="stroke:#181818;stroke-width:0.5;"/><path d="M56,1064.25 L56,1091.25 M43,1072.25 L69,1072.25 M56,1091.25 L43,1106.25 M56,1091.25 L69,1106.25 " fill="none" style="stroke:#181818;stroke-width:0.5;"/><rect fill="#E2E2F0" height="39.1563" rx="2.5" ry="2.5" style="stroke:#181818;stroke-width:0.5;" width="153" x="412.5" y="50"/><text fill="#000000" font-family="sans-serif" font-size="20" lengthAdjust="spacing" textLength="139" x="419.5" y="77.7617">:CreateModelUI</text><rect fill="#E2E2F0" height="39.1563" rx="2.5" ry="2.5" style="stroke:#181818;stroke-width:0.5;" width="153" x="412.5" y="1022.5938"/><text fill="#000000" font-family="sans-serif" font-size="20" lengthAdjust="spacing" textLength="139" x="419.5" y="1050.3555">:CreateModelUI</text><rect fill="#E2E2F0" height="39.1563" rx="2.5" ry="2.5" style="stroke:#181818;stroke-width:0.5;" width="219" x="774.5" y="50"/><text fill="#000000" font-family="sans-serif" font-size="20" lengthAdjust="spacing" textLength="205" x="781.5" y="77.7617">:CreateModelController</text><rect fill="#E2E2F0" height="39.1563" rx="2.5" ry="2.5" style="stroke:#181818;stroke-width:0.5;" width="219" x="774.5" y="1022.5938"/><text fill="#000000" font-family="sans-serif" font-size="20" lengthAdjust="spacing" textLength="205" x="781.5" y="1050.3555">:CreateModelController</text><rect fill="#E2E2F0" height="39.1563" rx="2.5" ry="2.5" style="stroke:#181818;stroke-width:0.5;" width="123" x="1061.5" y="50"/><text fill="#000000" font-family="sans-serif" font-size="20" lengthAdjust="spacing" textLength="109" x="1068.5" y="77.7617">:Persistence</text><rect fill="#E2E2F0" height="39.1563" rx="2.5" ry="2.5" style="stroke:#181818;stroke-width:0.5;" width="123" x="1061.5" y="1022.5938"/><text fill="#000000" font-family="sans-serif" font-size="20" lengthAdjust="spacing" textLength="109" x="1068.5" y="1050.3555">:Persistence</text><rect fill="#E2E2F0" height="39.1563" rx="2.5" ry="2.5" style="stroke:#181818;stroke-width:0.5;" width="182" x="1194.5" y="50"/><text fill="#000000" font-family="sans-serif" font-size="20" lengthAdjust="spacing" textLength="168" x="1201.5" y="77.7617">:RepositoryFactory</text><rect fill="#E2E2F0" height="39.1563" rx="2.5" ry="2.5" style="stroke:#181818;stroke-width:0.5;" width="182" x="1194.5" y="1022.5938"/><text fill="#000000" font-family="sans-serif" font-size="20" lengthAdjust="spacing" textLength="168" x="1201.5" y="1050.3555">:RepositoryFactory</text><rect fill="#E2E2F0" height="64.3125" rx="2.5" ry="2.5" style="stroke:#181818;stroke-width:0.5;" width="188" x="1386.5" y="24.8438"/><text fill="#000000" font-family="sans-serif" font-size="20" lengthAdjust="spacing" textLength="161" x="1400" y="52.6055">:repositoryFactory</text><text fill="#000000" font-family="sans-serif" font-size="20" lengthAdjust="spacing" textLength="174" x="1393.5" y="77.7617">::RepositoryFactory</text><rect fill="#E2E2F0" height="64.3125" rx="2.5" ry="2.5" style="stroke:#181818;stroke-width:0.5;" width="188" x="1386.5" y="1022.5938"/><text fill="#000000" font-family="sans-serif" font-size="20" lengthAdjust="spacing" textLength="161" x="1400" y="1050.3555">:repositoryFactory</text><text fill="#000000" font-family="sans-serif" font-size="20" lengthAdjust="spacing" textLength="174" x="1393.5" y="1075.5117">::RepositoryFactory</text><rect fill="#E2E2F0" height="64.3125" rx="2.5" ry="2.5" style="stroke:#181818;stroke-width:0.5;" width="169" x="1584.5" y="24.8438"/><text fill="#000000" font-family="sans-serif" font-size="20" lengthAdjust="spacing" textLength="148" x="1595" y="52.6055">modelRepository</text><text fill="#000000" font-family="sans-serif" font-size="20" lengthAdjust="spacing" textLength="155" x="1591.5" y="77.7617">:ModelRepository</text><rect fill="#E2E2F0" height="64.3125" rx="2.5" ry="2.5" style="stroke:#181818;stroke-width:0.5;" width="169" x="1584.5" y="1022.5938"/><text fill="#000000" font-family="sans-serif" font-size="20" lengthAdjust="spacing" textLength="148" x="1595" y="1050.3555">modelRepository</text><text fill="#000000" font-family="sans-serif" font-size="20" lengthAdjust="spacing" textLength="155" x="1591.5" y="1075.5117">:ModelRepository</text><rect fill="#E2E2F0" height="64.3125" rx="2.5" ry="2.5" style="stroke:#181818;stroke-width:0.5;" width="74" x="2331" y="24.8438"/><text fill="#000000" font-family="sans-serif" font-size="20" lengthAdjust="spacing" textLength="53" x="2341.5" y="52.6055">model</text><text fill="#000000" font-family="sans-serif" font-size="20" lengthAdjust="spacing" textLength="60" x="2338" y="77.7617">:Model</text><rect fill="#E2E2F0" height="64.3125" rx="2.5" ry="2.5" style="stroke:#181818;stroke-width:0.5;" width="74" x="2331" y="1022.5938"/><text fill="#000000" font-family="sans-serif" font-size="20" lengthAdjust="spacing" textLength="53" x="2341.5" y="1050.3555">model</text><text fill="#000000" font-family="sans-serif" font-size="20" lengthAdjust="spacing" textLength="60" x="2338" y="1075.5117">:Model</text><rect fill="#FFFFFF" height="905.4375" style="stroke:#181818;stroke-width:1.0;" width="10" x="51" y="100.1563"/><rect fill="#FFFFFF" height="39.1563" style="stroke:#181818;stroke-width:1.0;" width="10" x="484" y="131.3125"/><rect fill="#FFFFFF" height="39.1563" style="stroke:#181818;stroke-width:1.0;" width="10" x="484" y="209.625"/><rect fill="#FFFFFF" height="717.6563" style="stroke:#181818;stroke-width:1.0;" width="10" x="484" y="287.9375"/><rect fill="#FFFFFF" height="639.3438" style="stroke:#181818;stroke-width:1.0;" width="10" x="879" y="327.0938"/><rect fill="#FFFFFF" height="285.0938" style="stroke:#181818;stroke-width:1.0;" width="10" x="884" y="374.25"/><rect fill="#FFFFFF" height="39.1563" style="stroke:#181818;stroke-width:1.0;" width="10" x="1118" y="418.4063"/><rect fill="#FFFFFF" height="39.1563" style="stroke:#181818;stroke-width:1.0;" width="10" x="1280.5" y="496.7188"/><rect fill="#FFFFFF" height="39.1563" style="stroke:#181818;stroke-width:1.0;" width="10" x="1475.5" y="575.0313"/><rect fill="#FFFFFF" height="221.7813" style="stroke:#181818;stroke-width:1.0;" width="10" x="1664" y="705.5"/><rect fill="#FFFFFF" height="50.1563" style="stroke:#181818;stroke-width:1.0;" width="10" x="1669" y="752.6563"/><rect fill="#FFFFFF" height="39.1563" style="stroke:#181818;stroke-width:1.0;" width="10" x="2363" y="848.9688"/><polygon fill="#181818" points="472,127.3125,482,131.3125,472,135.3125,476,131.3125" style="stroke:#181818;stroke-width:1.0;"/><line style="stroke:#181818;stroke-width:1.0;" x1="61" x2="478" y1="131.3125" y2="131.3125"/><text fill="#000000" font-family="sans-serif" font-size="20" font-weight="bold" lengthAdjust="spacing" textLength="11" x="68" y="124.918">1</text><text fill="#000000" font-family="sans-serif" font-size="20" lengthAdjust="spacing" textLength="335" x="83" y="124.918">requests to create a new drone model</text><polygon fill="#181818" points="72,166.4688,62,170.4688,72,174.4688,68,170.4688" style="stroke:#181818;stroke-width:1.0;"/><line style="stroke:#181818;stroke-width:1.0;stroke-dasharray:2.0,2.0;" x1="66" x2="488" y1="170.4688" y2="170.4688"/><text fill="#000000" font-family="sans-serif" font-size="20" font-weight="bold" lengthAdjust="spacing" textLength="11" x="78" y="164.0742">2</text><text fill="#000000" font-family="sans-serif" font-size="20" lengthAdjust="spacing" textLength="384" x="93" y="164.0742">asks for model name and configuration data</text><polygon fill="#181818" points="472,205.625,482,209.625,472,213.625,476,209.625" style="stroke:#181818;stroke-width:1.0;"/><line style="stroke:#181818;stroke-width:1.0;" x1="61" x2="478" y1="209.625" y2="209.625"/><text fill="#000000" font-family="sans-serif" font-size="20" font-weight="bold" lengthAdjust="spacing" textLength="11" x="68" y="203.2305">3</text><text fill="#000000" font-family="sans-serif" font-size="20" lengthAdjust="spacing" textLength="112" x="83" y="203.2305">submits data</text><polygon fill="#181818" points="72,244.7813,62,248.7813,72,252.7813,68,248.7813" style="stroke:#181818;stroke-width:1.0;"/><line style="stroke:#181818;stroke-width:1.0;stroke-dasharray:2.0,2.0;" x1="66" x2="488" y1="248.7813" y2="248.7813"/><text fill="#000000" font-family="sans-serif" font-size="20" font-weight="bold" lengthAdjust="spacing" textLength="11" x="78" y="242.3867">4</text><text fill="#000000" font-family="sans-serif" font-size="20" lengthAdjust="spacing" textLength="183" x="93" y="242.3867">asks for confirmation</text><polygon fill="#181818" points="472,283.9375,482,287.9375,472,291.9375,476,287.9375" style="stroke:#181818;stroke-width:1.0;"/><line style="stroke:#181818;stroke-width:1.0;" x1="61" x2="478" y1="287.9375" y2="287.9375"/><text fill="#000000" font-family="sans-serif" font-size="20" font-weight="bold" lengthAdjust="spacing" textLength="11" x="68" y="281.543">5</text><text fill="#000000" font-family="sans-serif" font-size="20" lengthAdjust="spacing" textLength="119" x="83" y="281.543">confirms data</text><polygon fill="#181818" points="867,323.0938,877,327.0938,867,331.0938,871,327.0938" style="stroke:#181818;stroke-width:1.0;"/><line style="stroke:#181818;stroke-width:1.0;" x1="494" x2="873" y1="327.0938" y2="327.0938"/><text fill="#000000" font-family="sans-serif" font-size="20" font-weight="bold" lengthAdjust="spacing" textLength="11" x="501" y="320.6992">6</text><text fill="#000000" font-family="sans-serif" font-size="20" lengthAdjust="spacing" textLength="351" x="516" y="320.6992">createModel(modelName, configuration)</text><line style="stroke:#181818;stroke-width:1.0;stroke-dasharray:2.0,2.0;" x1="889" x2="936" y1="361.25" y2="361.25"/><line style="stroke:#181818;stroke-width:1.0;stroke-dasharray:2.0,2.0;" x1="936" x2="936" y1="361.25" y2="374.25"/><line style="stroke:#181818;stroke-width:1.0;stroke-dasharray:2.0,2.0;" x1="895" x2="936" y1="374.25" y2="374.25"/><polygon fill="#181818" points="905,370.25,895,374.25,905,378.25,901,374.25" style="stroke:#181818;stroke-width:1.0;"/><text fill="#000000" font-family="sans-serif" font-size="20" font-weight="bold" lengthAdjust="spacing" textLength="11" x="901" y="354.8555">7</text><text fill="#000000" font-family="sans-serif" font-size="20" lengthAdjust="spacing" textLength="191" x="916" y="354.8555">getModelRepository()</text><polygon fill="#181818" points="1106,414.4063,1116,418.4063,1106,422.4063,1110,418.4063" style="stroke:#181818;stroke-width:1.0;"/><line style="stroke:#181818;stroke-width:1.0;" x1="894" x2="1112" y1="418.4063" y2="418.4063"/><text fill="#000000" font-family="sans-serif" font-size="20" font-weight="bold" lengthAdjust="spacing" textLength="11" x="901" y="412.0117">8</text><text fill="#000000" font-family="sans-serif" font-size="20" lengthAdjust="spacing" textLength="190" x="916" y="412.0117">getRepositoryFactory</text><polygon fill="#181818" points="905,453.5625,895,457.5625,905,461.5625,901,457.5625" style="stroke:#181818;stroke-width:1.0;"/><line style="stroke:#181818;stroke-width:1.0;stroke-dasharray:2.0,2.0;" x1="899" x2="1122" y1="457.5625" y2="457.5625"/><text fill="#000000" font-family="sans-serif" font-size="20" font-weight="bold" lengthAdjust="spacing" textLength="11" x="911" y="451.168">9</text><text fill="#000000" font-family="sans-serif" font-size="20" lengthAdjust="spacing" textLength="155" x="926" y="451.168">repositoryFactory</text><polygon fill="#181818" points="1268.5,492.7188,1278.5,496.7188,1268.5,500.7188,1272.5,496.7188" style="stroke:#181818;stroke-width:1.0;"/><line style="stroke:#181818;stroke-width:1.0;" x1="894" x2="1274.5" y1="496.7188" y2="496.7188"/><text fill="#000000" font-family="sans-serif" font-size="20" font-weight="bold" lengthAdjust="spacing" textLength="22" x="901" y="490.3242">10</text><text fill="#000000" font-family="sans-serif" font-size="20" lengthAdjust="spacing" textLength="116" x="927" y="490.3242">getInstance()</text><polygon fill="#181818" points="905,531.875,895,535.875,905,539.875,901,535.875" style="stroke:#181818;stroke-width:1.0;"/><line style="stroke:#181818;stroke-width:1.0;stroke-dasharray:2.0,2.0;" x1="899" x2="1284.5" y1="535.875" y2="535.875"/><text fill="#000000" font-family="sans-serif" font-size="20" font-weight="bold" lengthAdjust="spacing" textLength="22" x="911" y="529.4805">11</text><text fill="#000000" font-family="sans-serif" font-size="20" lengthAdjust="spacing" textLength="103" x="937" y="529.4805">repositories</text><polygon fill="#181818" points="1463.5,571.0313,1473.5,575.0313,1463.5,579.0313,1467.5,575.0313" style="stroke:#181818;stroke-width:1.0;"/><line style="stroke:#181818;stroke-width:1.0;" x1="894" x2="1469.5" y1="575.0313" y2="575.0313"/><text fill="#000000" font-family="sans-serif" font-size="20" font-weight="bold" lengthAdjust="spacing" textLength="22" x="901" y="568.6367">12</text><text fill="#000000" font-family="sans-serif" font-size="20" lengthAdjust="spacing" textLength="191" x="927" y="568.6367">getModelRepository()</text><polygon fill="#181818" points="905,610.1875,895,614.1875,905,618.1875,901,614.1875" style="stroke:#181818;stroke-width:1.0;"/><line style="stroke:#181818;stroke-width:1.0;stroke-dasharray:2.0,2.0;" x1="899" x2="1479.5" y1="614.1875" y2="614.1875"/><text fill="#000000" font-family="sans-serif" font-size="20" font-weight="bold" lengthAdjust="spacing" textLength="22" x="911" y="607.793">13</text><text fill="#000000" font-family="sans-serif" font-size="20" lengthAdjust="spacing" textLength="148" x="937" y="607.793">modelRepository</text><line style="stroke:#181818;stroke-width:1.0;stroke-dasharray:2.0,2.0;" x1="894" x2="936" y1="658.3438" y2="658.3438"/><line style="stroke:#181818;stroke-width:1.0;stroke-dasharray:2.0,2.0;" x1="936" x2="936" y1="658.3438" y2="671.3438"/><line style="stroke:#181818;stroke-width:1.0;stroke-dasharray:2.0,2.0;" x1="889" x2="936" y1="671.3438" y2="671.3438"/><polygon fill="#181818" points="899,667.3438,889,671.3438,899,675.3438,895,671.3438" style="stroke:#181818;stroke-width:1.0;"/><text fill="#000000" font-family="sans-serif" font-size="20" font-weight="bold" lengthAdjust="spacing" textLength="22" x="901" y="651.9492">14</text><text fill="#000000" font-family="sans-serif" font-size="20" lengthAdjust="spacing" textLength="148" x="927" y="651.9492">modelRepository</text><polygon fill="#181818" points="1652,701.5,1662,705.5,1652,709.5,1656,705.5" style="stroke:#181818;stroke-width:1.0;"/><line style="stroke:#181818;stroke-width:1.0;" x1="889" x2="1658" y1="705.5" y2="705.5"/><text fill="#000000" font-family="sans-serif" font-size="20" font-weight="bold" lengthAdjust="spacing" textLength="22" x="896" y="699.1055">15</text><text fill="#000000" font-family="sans-serif" font-size="20" lengthAdjust="spacing" textLength="351" x="922" y="699.1055">createModel(modelName, configuration)</text><line style="stroke:#181818;stroke-width:1.0;" x1="1674" x2="1721" y1="739.6563" y2="739.6563"/><line style="stroke:#181818;stroke-width:1.0;" x1="1721" x2="1721" y1="739.6563" y2="752.6563"/><line style="stroke:#181818;stroke-width:1.0;" x1="1680" x2="1721" y1="752.6563" y2="752.6563"/><polygon fill="#181818" points="1690,748.6563,1680,752.6563,1690,756.6563,1686,752.6563" style="stroke:#181818;stroke-width:1.0;"/><text fill="#000000" font-family="sans-serif" font-size="20" font-weight="bold" lengthAdjust="spacing" textLength="22" x="1686" y="733.2617">16</text><text fill="#000000" font-family="sans-serif" font-size="20" lengthAdjust="spacing" textLength="239" x="1712" y="733.2617">validateModel(modelName)</text><line style="stroke:#181818;stroke-width:1.0;stroke-dasharray:2.0,2.0;" x1="1679" x2="1721" y1="801.8125" y2="801.8125"/><line style="stroke:#181818;stroke-width:1.0;stroke-dasharray:2.0,2.0;" x1="1721" x2="1721" y1="801.8125" y2="814.8125"/><line style="stroke:#181818;stroke-width:1.0;stroke-dasharray:2.0,2.0;" x1="1674" x2="1721" y1="814.8125" y2="814.8125"/><polygon fill="#181818" points="1684,810.8125,1674,814.8125,1684,818.8125,1680,814.8125" style="stroke:#181818;stroke-width:1.0;"/><text fill="#000000" font-family="sans-serif" font-size="20" font-weight="bold" lengthAdjust="spacing" textLength="22" x="1686" y="795.418">17</text><text fill="#000000" font-family="sans-serif" font-size="20" lengthAdjust="spacing" textLength="34" x="1712" y="795.418">true</text><polygon fill="#181818" points="2351,844.9688,2361,848.9688,2351,852.9688,2355,848.9688" style="stroke:#181818;stroke-width:1.0;"/><line style="stroke:#181818;stroke-width:1.0;" x1="1674" x2="2357" y1="848.9688" y2="848.9688"/><text fill="#000000" font-family="sans-serif" font-size="20" font-weight="bold" lengthAdjust="spacing" textLength="22" x="1681" y="842.5742">18</text><text fill="#000000" font-family="sans-serif" font-size="20" lengthAdjust="spacing" textLength="644" x="1707" y="842.5742">create(modelID, windTolerance, windSpeed, posTolerance, safetyStatus)</text><polygon fill="#181818" points="1685,884.125,1675,888.125,1685,892.125,1681,888.125" style="stroke:#181818;stroke-width:1.0;"/><line style="stroke:#181818;stroke-width:1.0;stroke-dasharray:2.0,2.0;" x1="1679" x2="2367" y1="888.125" y2="888.125"/><text fill="#000000" font-family="sans-serif" font-size="20" font-weight="bold" lengthAdjust="spacing" textLength="22" x="1691" y="881.7305">19</text><text fill="#000000" font-family="sans-serif" font-size="20" lengthAdjust="spacing" textLength="34" x="1717" y="881.7305">true</text><polygon fill="#181818" points="900,923.2813,890,927.2813,900,931.2813,896,927.2813" style="stroke:#181818;stroke-width:1.0;"/><line style="stroke:#181818;stroke-width:1.0;stroke-dasharray:2.0,2.0;" x1="894" x2="1668" y1="927.2813" y2="927.2813"/><text fill="#000000" font-family="sans-serif" font-size="20" font-weight="bold" lengthAdjust="spacing" textLength="22" x="906" y="920.8867">20</text><text fill="#000000" font-family="sans-serif" font-size="20" lengthAdjust="spacing" textLength="34" x="932" y="920.8867">true</text><polygon fill="#181818" points="505,962.4375,495,966.4375,505,970.4375,501,966.4375" style="stroke:#181818;stroke-width:1.0;"/><line style="stroke:#181818;stroke-width:1.0;stroke-dasharray:2.0,2.0;" x1="499" x2="883" y1="966.4375" y2="966.4375"/><text fill="#000000" font-family="sans-serif" font-size="20" font-weight="bold" lengthAdjust="spacing" textLength="22" x="511" y="960.043">21</text><text fill="#000000" font-family="sans-serif" font-size="20" lengthAdjust="spacing" textLength="34" x="537" y="960.043">true</text><polygon fill="#181818" points="67,1001.5938,57,1005.5938,67,1009.5938,63,1005.5938" style="stroke:#181818;stroke-width:1.0;"/><line style="stroke:#181818;stroke-width:1.0;stroke-dasharray:2.0,2.0;" x1="61" x2="488" y1="1005.5938" y2="1005.5938"/><text fill="#000000" font-family="sans-serif" font-size="20" font-weight="bold" lengthAdjust="spacing" textLength="22" x="73" y="999.1992">22</text><text fill="#000000" font-family="sans-serif" font-size="20" lengthAdjust="spacing" textLength="234" x="99" y="999.1992">displays success message</text><!--SRC=[fLPDZzem4BtxLuouT950gdham0Mo5H9V8jbRfPNN6S0YiQdjx8h- -auSo1VXeseEY8GtRzxCF4-m1wcEtF0qqUA0CSIuvLdYNhLoeVo3yECx-sOl64Yrqc9lT8gCLK-FN1pu3aDtIX0C2iVLBi4QmEvvhB-asi6M9vPYUUQqoj8FDFHTE6sWDpLQOOHYtmDkOHen2dLIo2DN3dgZYK7kSA5ZJDvc7l8skmsPa7oZamIDXqwYpRm5NgEnqZfK0Zra7Mp25cI3HsqbYJkzUeqd3zm4wrKRQTh8NsfqB_mzd2r_peDejMmIfRdsAevO5iqddcAnchxdD1snbuWBBfZx_ifFQapUKpQDO3Ycri681lKxG-iiE0t2jmuuAFo2E9y4UBugcBeDT57aa0Y8PaGf3XQsD3iF1SLJOb0n2AssSfSPxgHM47F7VMYCRRAQ69jzf9AqbEYd4ljC9lM97kSuenya6NktvF3AJY- -mYKLE6XMrs_IU9_1-V8qmv9lXwurp9T-YRt7CFRU9474SEMf4lliLMRoXl_NQA-agWdCV-kfJQoXw5AxFoz5yJDbQRC8xEfRSIhhn4LWbrQ9bdMaBoYw1LG7jf3on2JR1_rAMuspfhAr0jYDNjrYlvZk1bjNtGtBrIk_x9cdpmBhD5gvhkvueqnLIpk2Jvx8-3fldzqrTfdlSR9caSvao1vuz8gyfJoeDaSXU3OT0BtvuaZJooXtRt4R7X7Z0T1WQZzOlaLt2XrtcUrmLB7FQuc3-RqAcgg3ENlOYxDfF0kxL_prZlCBjWfisulLrtSixJ7X9qjBNmYq5bBweFyFhBczQtVqvleB]--></g></svg>