<?xml version="1.0" encoding="us-ascii" standalone="no"?><svg xmlns="http://www.w3.org/2000/svg" xmlns:xlink="http://www.w3.org/1999/xlink" contentStyleType="text/css" height="230px" preserveAspectRatio="none" style="width:150px;height:230px;background:#FFFFFF;" version="1.1" viewBox="0 0 150 230" width="150px" zoomAndPan="magnify"><defs/><g><!--class Drone--><g id="elem_Drone"><rect codeLine="4" fill="#F1F1F1" height="76.543" id="Drone" rx="2.5" ry="2.5" style="stroke:#181818;stroke-width:0.5;" width="72" x="29.5" y="7"/><ellipse cx="44.5" cy="37.2715" fill="#ADD1B2" rx="11" ry="11" style="stroke:#181818;stroke-width:1.0;"/><path d="M47.2656,33.1465 Q47.4219,32.9277 47.6094,32.8184 Q47.7969,32.709 48.0156,32.709 Q48.3906,32.709 48.625,32.9746 Q48.8594,33.2246 48.8594,33.834 L48.8594,35.2871 Q48.8594,35.8965 48.625,36.1621 Q48.3906,36.4277 48.0156,36.4277 Q47.6719,36.4277 47.4688,36.2246 Q47.2656,36.0371 47.1563,35.5215 Q47.1094,35.1621 46.9219,34.9746 Q46.5938,34.5996 45.9844,34.3809 Q45.375,34.1621 44.75,34.1621 Q43.9844,34.1621 43.3438,34.4902 Q42.7188,34.8184 42.2188,35.5684 Q41.7344,36.3184 41.7344,37.3496 L41.7344,38.4434 Q41.7344,39.6777 42.625,40.5059 Q43.5156,41.3184 45.1094,41.3184 Q46.0469,41.3184 46.7031,41.0684 Q47.0938,40.9121 47.5156,40.4746 Q47.7813,40.209 47.9219,40.1309 Q48.0781,40.0527 48.2813,40.0527 Q48.6094,40.0527 48.8594,40.3184 Q49.125,40.5684 49.125,40.9121 Q49.125,41.2559 48.7813,41.6621 Q48.2813,42.2402 47.4844,42.5684 Q46.4063,43.0215 45.1094,43.0215 Q43.5938,43.0215 42.3906,42.3965 Q41.4063,41.8965 40.7188,40.834 Q40.0313,39.7559 40.0313,38.4746 L40.0313,37.3184 Q40.0313,35.9902 40.6406,34.8496 Q41.2656,33.6934 42.3594,33.084 Q43.4531,32.459 44.6875,32.459 Q45.4219,32.459 46.0625,32.6309 Q46.7188,32.7871 47.2656,33.1465 Z " fill="#000000"/><text fill="#000000" font-family="sans-serif" font-size="12" font-style="italic" lengthAdjust="spacing" textLength="44" x="56.5" y="24.9492">&#171;Entity&#187;</text><text fill="#000000" font-family="sans-serif" font-size="12" font-style="italic" lengthAdjust="spacing" textLength="35" x="61" y="40.9102">&#171;root&#187;</text><text fill="#000000" font-family="sans-serif" font-size="14" lengthAdjust="spacing" textLength="39" x="59" y="59.0293">Drone</text><line style="stroke:#181818;stroke-width:0.5;" x1="30.5" x2="100.5" y1="67.543" y2="67.543"/><line style="stroke:#181818;stroke-width:0.5;" x1="30.5" x2="100.5" y1="75.543" y2="75.543"/></g><!--class SerialNumber--><g id="elem_SerialNumber"><rect codeLine="7" fill="#F1F1F1" height="60.582" id="SerialNumber" rx="2.5" ry="2.5" style="stroke:#181818;stroke-width:0.5;" width="117" x="7" y="163"/><ellipse cx="22" cy="185.291" fill="#ADD1B2" rx="11" ry="11" style="stroke:#181818;stroke-width:1.0;"/><path d="M24.7656,181.166 Q24.9219,180.9473 25.1094,180.8379 Q25.2969,180.7285 25.5156,180.7285 Q25.8906,180.7285 26.125,180.9941 Q26.3594,181.2441 26.3594,181.8535 L26.3594,183.3066 Q26.3594,183.916 26.125,184.1816 Q25.8906,184.4473 25.5156,184.4473 Q25.1719,184.4473 24.9688,184.2441 Q24.7656,184.0566 24.6563,183.541 Q24.6094,183.1816 24.4219,182.9941 Q24.0938,182.6191 23.4844,182.4004 Q22.875,182.1816 22.25,182.1816 Q21.4844,182.1816 20.8438,182.5098 Q20.2188,182.8379 19.7188,183.5879 Q19.2344,184.3379 19.2344,185.3691 L19.2344,186.4629 Q19.2344,187.6973 20.125,188.5254 Q21.0156,189.3379 22.6094,189.3379 Q23.5469,189.3379 24.2031,189.0879 Q24.5938,188.9316 25.0156,188.4941 Q25.2813,188.2285 25.4219,188.1504 Q25.5781,188.0723 25.7813,188.0723 Q26.1094,188.0723 26.3594,188.3379 Q26.625,188.5879 26.625,188.9316 Q26.625,189.2754 26.2813,189.6816 Q25.7813,190.2598 24.9844,190.5879 Q23.9063,191.041 22.6094,191.041 Q21.0938,191.041 19.8906,190.416 Q18.9063,189.916 18.2188,188.8535 Q17.5313,187.7754 17.5313,186.4941 L17.5313,185.3379 Q17.5313,184.0098 18.1406,182.8691 Q18.7656,181.7129 19.8594,181.1035 Q20.9531,180.4785 22.1875,180.4785 Q22.9219,180.4785 23.5625,180.6504 Q24.2188,180.8066 24.7656,181.166 Z " fill="#000000"/><text fill="#000000" font-family="sans-serif" font-size="12" font-style="italic" lengthAdjust="spacing" textLength="85" x="36" y="180.9492">&#171;Value Object&#187;</text><text fill="#000000" font-family="sans-serif" font-size="14" lengthAdjust="spacing" textLength="85" x="36" y="199.0684">SerialNumber</text><line style="stroke:#181818;stroke-width:0.5;" x1="8" x2="123" y1="207.582" y2="207.582"/><line style="stroke:#181818;stroke-width:0.5;" x1="8" x2="123" y1="215.582" y2="215.582"/></g><!--link Drone to SerialNumber--><g id="link_Drone_SerialNumber"><path codeLine="11" d="M65.5,84.1 C65.5,108.6 65.5,134.12 65.5,156.85 " fill="none" id="Drone-to-SerialNumber" style="stroke:#181818;stroke-width:1.0;"/><polygon fill="#181818" points="65.5,162.85,69.5,153.85,65.5,157.85,61.5,153.85,65.5,162.85" style="stroke:#181818;stroke-width:1.0;"/><text fill="#000000" font-family="sans-serif" font-size="13" lengthAdjust="spacing" textLength="76" x="66.5" y="129.0283">serialNumber</text><text fill="#000000" font-family="sans-serif" font-size="13" lengthAdjust="spacing" textLength="7" x="57.7781" y="151.8767">1</text></g><!--SRC=[NOoz2i8m54RtFCMbIwSQN4l9fAiEWljjl6WaFpNt1XJntGsjWpfztu73QIyY4_TQJnwZbE1NDWNDT2iKBNKdX-UCGIa5O3qomoQdI30CsoXE7iRKcrCIOvvL0NYfUHRtGDcXtvKmKgxU4NqXs8zNilz-ksGx0_UPFrYvMJS_dHxuYzu0]--></g></svg>