<?xml version="1.0" encoding="us-ascii" standalone="no"?><svg xmlns="http://www.w3.org/2000/svg" xmlns:xlink="http://www.w3.org/1999/xlink" contentStyleType="text/css" height="230px" preserveAspectRatio="none" style="width:279px;height:230px;background:#FFFFFF;" version="1.1" viewBox="0 0 279 230" width="279px" zoomAndPan="magnify"><defs/><g><!--class Drone--><g id="elem_Drone"><rect codeLine="4" fill="#F1F1F1" height="76.543" id="Drone" rx="2.5" ry="2.5" style="stroke:#181818;stroke-width:0.5;" width="72" x="104.5" y="7"/><ellipse cx="119.5" cy="37.2715" fill="#ADD1B2" rx="11" ry="11" style="stroke:#181818;stroke-width:1.0;"/><path d="M122.2656,33.1465 Q122.4219,32.9277 122.6094,32.8184 Q122.7969,32.709 123.0156,32.709 Q123.3906,32.709 123.625,32.9746 Q123.8594,33.2246 123.8594,33.834 L123.8594,35.2871 Q123.8594,35.8965 123.625,36.1621 Q123.3906,36.4277 123.0156,36.4277 Q122.6719,36.4277 122.4688,36.2246 Q122.2656,36.0371 122.1563,35.5215 Q122.1094,35.1621 121.9219,34.9746 Q121.5938,34.5996 120.9844,34.3809 Q120.375,34.1621 119.75,34.1621 Q118.9844,34.1621 118.3438,34.4902 Q117.7188,34.8184 117.2188,35.5684 Q116.7344,36.3184 116.7344,37.3496 L116.7344,38.4434 Q116.7344,39.6777 117.625,40.5059 Q118.5156,41.3184 120.1094,41.3184 Q121.0469,41.3184 121.7031,41.0684 Q122.0938,40.9121 122.5156,40.4746 Q122.7813,40.209 122.9219,40.1309 Q123.0781,40.0527 123.2813,40.0527 Q123.6094,40.0527 123.8594,40.3184 Q124.125,40.5684 124.125,40.9121 Q124.125,41.2559 123.7813,41.6621 Q123.2813,42.2402 122.4844,42.5684 Q121.4063,43.0215 120.1094,43.0215 Q118.5938,43.0215 117.3906,42.3965 Q116.4063,41.8965 115.7188,40.834 Q115.0313,39.7559 115.0313,38.4746 L115.0313,37.3184 Q115.0313,35.9902 115.6406,34.8496 Q116.2656,33.6934 117.3594,33.084 Q118.4531,32.459 119.6875,32.459 Q120.4219,32.459 121.0625,32.6309 Q121.7188,32.7871 122.2656,33.1465 Z " fill="#000000"/><text fill="#000000" font-family="sans-serif" font-size="12" font-style="italic" lengthAdjust="spacing" textLength="44" x="131.5" y="24.9492">&#171;Entity&#187;</text><text fill="#000000" font-family="sans-serif" font-size="12" font-style="italic" lengthAdjust="spacing" textLength="35" x="136" y="40.9102">&#171;root&#187;</text><text fill="#000000" font-family="sans-serif" font-size="14" lengthAdjust="spacing" textLength="39" x="134" y="59.0293">Drone</text><line style="stroke:#181818;stroke-width:0.5;" x1="105.5" x2="175.5" y1="67.543" y2="67.543"/><line style="stroke:#181818;stroke-width:0.5;" x1="105.5" x2="175.5" y1="75.543" y2="75.543"/></g><!--class SerialNumber--><g id="elem_SerialNumber"><rect codeLine="7" fill="#F1F1F1" height="60.582" id="SerialNumber" rx="2.5" ry="2.5" style="stroke:#181818;stroke-width:0.5;" width="117" x="7" y="163"/><ellipse cx="22" cy="185.291" fill="#ADD1B2" rx="11" ry="11" style="stroke:#181818;stroke-width:1.0;"/><path d="M24.7656,181.166 Q24.9219,180.9473 25.1094,180.8379 Q25.2969,180.7285 25.5156,180.7285 Q25.8906,180.7285 26.125,180.9941 Q26.3594,181.2441 26.3594,181.8535 L26.3594,183.3066 Q26.3594,183.916 26.125,184.1816 Q25.8906,184.4473 25.5156,184.4473 Q25.1719,184.4473 24.9688,184.2441 Q24.7656,184.0566 24.6563,183.541 Q24.6094,183.1816 24.4219,182.9941 Q24.0938,182.6191 23.4844,182.4004 Q22.875,182.1816 22.25,182.1816 Q21.4844,182.1816 20.8438,182.5098 Q20.2188,182.8379 19.7188,183.5879 Q19.2344,184.3379 19.2344,185.3691 L19.2344,186.4629 Q19.2344,187.6973 20.125,188.5254 Q21.0156,189.3379 22.6094,189.3379 Q23.5469,189.3379 24.2031,189.0879 Q24.5938,188.9316 25.0156,188.4941 Q25.2813,188.2285 25.4219,188.1504 Q25.5781,188.0723 25.7813,188.0723 Q26.1094,188.0723 26.3594,188.3379 Q26.625,188.5879 26.625,188.9316 Q26.625,189.2754 26.2813,189.6816 Q25.7813,190.2598 24.9844,190.5879 Q23.9063,191.041 22.6094,191.041 Q21.0938,191.041 19.8906,190.416 Q18.9063,189.916 18.2188,188.8535 Q17.5313,187.7754 17.5313,186.4941 L17.5313,185.3379 Q17.5313,184.0098 18.1406,182.8691 Q18.7656,181.7129 19.8594,181.1035 Q20.9531,180.4785 22.1875,180.4785 Q22.9219,180.4785 23.5625,180.6504 Q24.2188,180.8066 24.7656,181.166 Z " fill="#000000"/><text fill="#000000" font-family="sans-serif" font-size="12" font-style="italic" lengthAdjust="spacing" textLength="85" x="36" y="180.9492">&#171;Value Object&#187;</text><text fill="#000000" font-family="sans-serif" font-size="14" lengthAdjust="spacing" textLength="85" x="36" y="199.0684">SerialNumber</text><line style="stroke:#181818;stroke-width:0.5;" x1="8" x2="123" y1="207.582" y2="207.582"/><line style="stroke:#181818;stroke-width:0.5;" x1="8" x2="123" y1="215.582" y2="215.582"/></g><!--class DroneStatus--><g id="elem_DroneStatus"><rect codeLine="10" fill="#F1F1F1" height="60.582" id="DroneStatus" rx="2.5" ry="2.5" style="stroke:#181818;stroke-width:0.5;" width="113" x="159" y="163"/><ellipse cx="174" cy="185.291" fill="#EB937F" rx="11" ry="11" style="stroke:#181818;stroke-width:1.0;"/><path d="M172.8594,186.0879 L172.8594,188.5879 L177.1875,188.5879 L177.1875,187.666 Q177.1875,187.0566 177.4219,186.791 Q177.6719,186.5254 178.0469,186.5254 Q178.4219,186.5254 178.6563,186.791 Q178.8906,187.0566 178.8906,187.666 L178.8906,190.291 L170.8906,190.291 Q170.2656,190.291 170,190.0566 Q169.75,189.8223 169.75,189.4316 Q169.75,189.0566 170.0156,188.8223 Q170.2813,188.5879 170.8906,188.5879 L171.1563,188.5879 L171.1563,181.9316 L170.8906,181.9316 Q170.2656,181.9316 170,181.6973 Q169.75,181.4629 169.75,181.0723 Q169.75,180.6973 170,180.4629 Q170.2656,180.2285 170.8906,180.2285 L178.5156,180.2285 L178.5156,182.8223 Q178.5156,183.4316 178.2813,183.6973 Q178.0625,183.9473 177.6719,183.9473 Q177.2969,183.9473 177.0625,183.6973 Q176.8281,183.4316 176.8281,182.8223 L176.8281,181.9316 L172.8594,181.9316 L172.8594,184.3848 L174.3438,184.3848 Q174.3438,183.7285 174.4688,183.541 Q174.7344,183.1348 175.2031,183.1348 Q175.5781,183.1348 175.8125,183.4004 Q176.0469,183.6504 176.0469,184.2598 L176.0469,186.2285 Q176.0469,186.7754 175.9219,186.9629 Q175.6563,187.3535 175.2031,187.3535 Q174.7344,187.3535 174.4688,186.9473 Q174.3438,186.7598 174.3438,186.0879 L172.8594,186.0879 Z " fill="#000000"/><text fill="#000000" font-family="sans-serif" font-size="12" font-style="italic" lengthAdjust="spacing" textLength="85" x="186" y="180.9492">&#171;Value Object&#187;</text><text fill="#000000" font-family="sans-serif" font-size="14" lengthAdjust="spacing" textLength="79" x="189" y="199.0684">DroneStatus</text><line style="stroke:#181818;stroke-width:0.5;" x1="160" x2="271" y1="207.582" y2="207.582"/><line style="stroke:#181818;stroke-width:0.5;" x1="160" x2="271" y1="215.582" y2="215.582"/></g><!--link Drone to SerialNumber--><g id="link_Drone_SerialNumber"><path codeLine="15" d="M112.54,84.05 C106.14,93.54 99.7,103.92 94.5,114 C86.51,129.5 81.5556,142.024 76.5056,157.014 " fill="none" id="Drone-to-SerialNumber" style="stroke:#181818;stroke-width:1.0;"/><polygon fill="#181818" points="74.59,162.7,81.254,155.448,76.1863,157.9617,73.6727,152.894,74.59,162.7" style="stroke:#181818;stroke-width:1.0;"/><text fill="#000000" font-family="sans-serif" font-size="13" lengthAdjust="spacing" textLength="76" x="95.5" y="129.0283">serialNumber</text><text fill="#000000" font-family="sans-serif" font-size="13" lengthAdjust="spacing" textLength="7" x="68.7429" y="151.6958">1</text></g><!--link Drone to DroneStatus--><g id="link_Drone_DroneStatus"><path codeLine="16" d="M160.88,84.24 C166.03,93.91 171.51,104.32 176.5,114 C184.79,130.1 191.1489,142.8075 198.4189,157.5675 " fill="none" id="Drone-to-DroneStatus" style="stroke:#181818;stroke-width:1.0;"/><polygon fill="#181818" points="201.07,162.95,200.6816,153.1088,198.8607,158.4646,193.5049,156.6437,201.07,162.95" style="stroke:#181818;stroke-width:1.0;"/><text fill="#000000" font-family="sans-serif" font-size="13" lengthAdjust="spacing" textLength="36" x="185.5" y="129.0283">status</text><text fill="#000000" font-family="sans-serif" font-size="13" lengthAdjust="spacing" textLength="7" x="190.1478" y="151.5137">1</text></g><!--SRC=[TOuz2y8m48Rt_8gZIwTQN4l9fAiE1VThFBIIZvfSG17_ko5ngABBlVV0Sn_rcNaENTlE6Yr7erVAcJRGDP9Lr1mdF7aqGWW0fJ44s7Xd2Vf-QtdYkvIfzSwnb8-a03n5Zk8Ev2VKksX6yiaxe8u4-_52wjid6qrPFJ1o37_iN1PZTVccaN3B_CR4rRhwEDz1MD0FUN4ykJd52m00]--></g></svg>