<?xml version="1.0" encoding="UTF-8" standalone="no"?><svg xmlns="http://www.w3.org/2000/svg" xmlns:xlink="http://www.w3.org/1999/xlink" contentStyleType="text/css" height="1843px" preserveAspectRatio="none" style="width:2323px;height:1843px;background:#FFFFFF;" version="1.1" viewBox="0 0 2323 1843" width="2323px" zoomAndPan="magnify"><defs/><g><rect fill="#FFFFFF" height="1635.9375" style="stroke:#181818;stroke-width:1.0;" width="10" x="51" y="100.1563"/><rect fill="#FFFFFF" height="39.1563" style="stroke:#181818;stroke-width:1.0;" width="10" x="481" y="131.3125"/><rect fill="#FFFFFF" height="743.6563" style="stroke:#181818;stroke-width:1.0;" width="10" x="481" y="209.625"/><rect fill="#FFFFFF" height="743.6563" style="stroke:#181818;stroke-width:1.0;" width="10" x="481" y="992.4375"/><rect fill="#FFFFFF" height="561.0313" style="stroke:#181818;stroke-width:1.0;" width="10" x="867" y="300.9375"/><rect fill="#FFFFFF" height="285.0938" style="stroke:#181818;stroke-width:1.0;" width="10" x="872" y="348.0938"/><rect fill="#FFFFFF" height="665.3438" style="stroke:#181818;stroke-width:1.0;" width="10" x="867" y="1031.5938"/><rect fill="#FFFFFF" height="285.0938" style="stroke:#181818;stroke-width:1.0;" width="10" x="872" y="1078.75"/><rect fill="#FFFFFF" height="39.1563" style="stroke:#181818;stroke-width:1.0;" width="10" x="1117" y="392.25"/><rect fill="#FFFFFF" height="39.1563" style="stroke:#181818;stroke-width:1.0;" width="10" x="1117" y="1122.9063"/><rect fill="#FFFFFF" height="39.1563" style="stroke:#181818;stroke-width:1.0;" width="10" x="1279.5" y="470.5625"/><rect fill="#FFFFFF" height="39.1563" style="stroke:#181818;stroke-width:1.0;" width="10" x="1279.5" y="1201.2188"/><rect fill="#FFFFFF" height="39.1563" style="stroke:#181818;stroke-width:1.0;" width="10" x="1474.5" y="548.875"/><rect fill="#FFFFFF" height="39.1563" style="stroke:#181818;stroke-width:1.0;" width="10" x="1474.5" y="1279.5313"/><rect fill="#FFFFFF" height="247.7813" style="stroke:#181818;stroke-width:1.0;" width="10" x="1662.5" y="1410"/><rect fill="#FFFFFF" height="154.4688" style="stroke:#181818;stroke-width:1.0;" width="10" x="1667.5" y="1457.1563"/><rect fill="#FFFFFF" height="50.1563" style="stroke:#181818;stroke-width:1.0;" width="10" x="1672.5" y="1509.3125"/><rect fill="#FFFFFF" height="143.4688" style="stroke:#181818;stroke-width:1.0;" width="10" x="2049.5" y="679.3438"/><rect fill="#FFFFFF" height="50.1563" style="stroke:#181818;stroke-width:1.0;" width="10" x="2054.5" y="726.5"/><line style="stroke:#181818;stroke-width:0.5;stroke-dasharray:5.0,5.0;" x1="56" x2="56" y1="90.1563" y2="1754.0938"/><line style="stroke:#181818;stroke-width:0.5;stroke-dasharray:5.0,5.0;" x1="485.5" x2="485.5" y1="90.1563" y2="1754.0938"/><line style="stroke:#181818;stroke-width:0.5;stroke-dasharray:5.0,5.0;" x1="871.5" x2="871.5" y1="90.1563" y2="1754.0938"/><line style="stroke:#181818;stroke-width:0.5;stroke-dasharray:5.0,5.0;" x1="1121.5" x2="1121.5" y1="90.1563" y2="1754.0938"/><line style="stroke:#181818;stroke-width:0.5;stroke-dasharray:5.0,5.0;" x1="1284.5" x2="1284.5" y1="90.1563" y2="1754.0938"/><line style="stroke:#181818;stroke-width:0.5;stroke-dasharray:5.0,5.0;" x1="1479.5" x2="1479.5" y1="90.1563" y2="1754.0938"/><line style="stroke:#181818;stroke-width:0.5;stroke-dasharray:5.0,5.0;" x1="1667.5" x2="1667.5" y1="90.1563" y2="1754.0938"/><line style="stroke:#181818;stroke-width:0.5;stroke-dasharray:5.0,5.0;" x1="2054" x2="2054" y1="90.1563" y2="1754.0938"/><text fill="#000000" font-family="sans-serif" font-size="20" lengthAdjust="spacing" textLength="96" x="5" y="85.7617">DroneTech</text><ellipse cx="56" cy="13.5" fill="#E2E2F0" rx="8" ry="8" style="stroke:#181818;stroke-width:0.5;"/><path d="M56,21.5 L56,48.5 M43,29.5 L69,29.5 M56,48.5 L43,63.5 M56,48.5 L69,63.5 " fill="none" style="stroke:#181818;stroke-width:0.5;"/><text fill="#000000" font-family="sans-serif" font-size="20" lengthAdjust="spacing" textLength="96" x="5" y="1773.8555">DroneTech</text><ellipse cx="56" cy="1786.75" fill="#E2E2F0" rx="8" ry="8" style="stroke:#181818;stroke-width:0.5;"/><path d="M56,1794.75 L56,1821.75 M43,1802.75 L69,1802.75 M56,1821.75 L43,1836.75 M56,1821.75 L69,1836.75 " fill="none" style="stroke:#181818;stroke-width:0.5;"/><rect fill="#E2E2F0" height="39.1563" rx="2.5" ry="2.5" style="stroke:#181818;stroke-width:0.5;" width="127" x="422.5" y="50"/><text fill="#000000" font-family="sans-serif" font-size="20" lengthAdjust="spacing" textLength="113" x="429.5" y="77.7617">:AddDroneUI</text><rect fill="#E2E2F0" height="39.1563" rx="2.5" ry="2.5" style="stroke:#181818;stroke-width:0.5;" width="127" x="422.5" y="1753.0938"/><text fill="#000000" font-family="sans-serif" font-size="20" lengthAdjust="spacing" textLength="113" x="429.5" y="1780.8555">:AddDroneUI</text><rect fill="#E2E2F0" height="39.1563" rx="2.5" ry="2.5" style="stroke:#181818;stroke-width:0.5;" width="193" x="775.5" y="50"/><text fill="#000000" font-family="sans-serif" font-size="20" lengthAdjust="spacing" textLength="179" x="782.5" y="77.7617">:AddDroneController</text><rect fill="#E2E2F0" height="39.1563" rx="2.5" ry="2.5" style="stroke:#181818;stroke-width:0.5;" width="193" x="775.5" y="1753.0938"/><text fill="#000000" font-family="sans-serif" font-size="20" lengthAdjust="spacing" textLength="179" x="782.5" y="1780.8555">:AddDroneController</text><rect fill="#E2E2F0" height="39.1563" rx="2.5" ry="2.5" style="stroke:#181818;stroke-width:0.5;" width="123" x="1060.5" y="50"/><text fill="#000000" font-family="sans-serif" font-size="20" lengthAdjust="spacing" textLength="109" x="1067.5" y="77.7617">:Persistence</text><rect fill="#E2E2F0" height="39.1563" rx="2.5" ry="2.5" style="stroke:#181818;stroke-width:0.5;" width="123" x="1060.5" y="1753.0938"/><text fill="#000000" font-family="sans-serif" font-size="20" lengthAdjust="spacing" textLength="109" x="1067.5" y="1780.8555">:Persistence</text><rect fill="#E2E2F0" height="39.1563" rx="2.5" ry="2.5" style="stroke:#181818;stroke-width:0.5;" width="182" x="1193.5" y="50"/><text fill="#000000" font-family="sans-serif" font-size="20" lengthAdjust="spacing" textLength="168" x="1200.5" y="77.7617">:RepositoryFactory</text><rect fill="#E2E2F0" height="39.1563" rx="2.5" ry="2.5" style="stroke:#181818;stroke-width:0.5;" width="182" x="1193.5" y="1753.0938"/><text fill="#000000" font-family="sans-serif" font-size="20" lengthAdjust="spacing" textLength="168" x="1200.5" y="1780.8555">:RepositoryFactory</text><rect fill="#E2E2F0" height="64.3125" rx="2.5" ry="2.5" style="stroke:#181818;stroke-width:0.5;" width="188" x="1385.5" y="24.8438"/><text fill="#000000" font-family="sans-serif" font-size="20" lengthAdjust="spacing" textLength="161" x="1399" y="52.6055">:repositoryFactory</text><text fill="#000000" font-family="sans-serif" font-size="20" lengthAdjust="spacing" textLength="174" x="1392.5" y="77.7617">::RepositoryFactory</text><rect fill="#E2E2F0" height="64.3125" rx="2.5" ry="2.5" style="stroke:#181818;stroke-width:0.5;" width="188" x="1385.5" y="1753.0938"/><text fill="#000000" font-family="sans-serif" font-size="20" lengthAdjust="spacing" textLength="161" x="1399" y="1780.8555">:repositoryFactory</text><text fill="#000000" font-family="sans-serif" font-size="20" lengthAdjust="spacing" textLength="174" x="1392.5" y="1806.0117">::RepositoryFactory</text><rect fill="#E2E2F0" height="64.3125" rx="2.5" ry="2.5" style="stroke:#181818;stroke-width:0.5;" width="168" x="1583.5" y="24.8438"/><text fill="#000000" font-family="sans-serif" font-size="20" lengthAdjust="spacing" textLength="145" x="1595" y="52.6055">droneRepository</text><text fill="#000000" font-family="sans-serif" font-size="20" lengthAdjust="spacing" textLength="154" x="1590.5" y="77.7617">:DroneRepository</text><rect fill="#E2E2F0" height="64.3125" rx="2.5" ry="2.5" style="stroke:#181818;stroke-width:0.5;" width="168" x="1583.5" y="1753.0938"/><text fill="#000000" font-family="sans-serif" font-size="20" lengthAdjust="spacing" textLength="145" x="1595" y="1780.8555">droneRepository</text><text fill="#000000" font-family="sans-serif" font-size="20" lengthAdjust="spacing" textLength="154" x="1590.5" y="1806.0117">:DroneRepository</text><rect fill="#E2E2F0" height="64.3125" rx="2.5" ry="2.5" style="stroke:#181818;stroke-width:0.5;" width="169" x="1970" y="24.8438"/><text fill="#000000" font-family="sans-serif" font-size="20" lengthAdjust="spacing" textLength="148" x="1980.5" y="52.6055">modelRepository</text><text fill="#000000" font-family="sans-serif" font-size="20" lengthAdjust="spacing" textLength="155" x="1977" y="77.7617">:ModelRepository</text><rect fill="#E2E2F0" height="64.3125" rx="2.5" ry="2.5" style="stroke:#181818;stroke-width:0.5;" width="169" x="1970" y="1753.0938"/><text fill="#000000" font-family="sans-serif" font-size="20" lengthAdjust="spacing" textLength="148" x="1980.5" y="1780.8555">modelRepository</text><text fill="#000000" font-family="sans-serif" font-size="20" lengthAdjust="spacing" textLength="155" x="1977" y="1806.0117">:ModelRepository</text><rect fill="#FFFFFF" height="1635.9375" style="stroke:#181818;stroke-width:1.0;" width="10" x="51" y="100.1563"/><rect fill="#FFFFFF" height="39.1563" style="stroke:#181818;stroke-width:1.0;" width="10" x="481" y="131.3125"/><rect fill="#FFFFFF" height="743.6563" style="stroke:#181818;stroke-width:1.0;" width="10" x="481" y="209.625"/><rect fill="#FFFFFF" height="743.6563" style="stroke:#181818;stroke-width:1.0;" width="10" x="481" y="992.4375"/><rect fill="#FFFFFF" height="561.0313" style="stroke:#181818;stroke-width:1.0;" width="10" x="867" y="300.9375"/><rect fill="#FFFFFF" height="285.0938" style="stroke:#181818;stroke-width:1.0;" width="10" x="872" y="348.0938"/><rect fill="#FFFFFF" height="665.3438" style="stroke:#181818;stroke-width:1.0;" width="10" x="867" y="1031.5938"/><rect fill="#FFFFFF" height="285.0938" style="stroke:#181818;stroke-width:1.0;" width="10" x="872" y="1078.75"/><rect fill="#FFFFFF" height="39.1563" style="stroke:#181818;stroke-width:1.0;" width="10" x="1117" y="392.25"/><rect fill="#FFFFFF" height="39.1563" style="stroke:#181818;stroke-width:1.0;" width="10" x="1117" y="1122.9063"/><rect fill="#FFFFFF" height="39.1563" style="stroke:#181818;stroke-width:1.0;" width="10" x="1279.5" y="470.5625"/><rect fill="#FFFFFF" height="39.1563" style="stroke:#181818;stroke-width:1.0;" width="10" x="1279.5" y="1201.2188"/><rect fill="#FFFFFF" height="39.1563" style="stroke:#181818;stroke-width:1.0;" width="10" x="1474.5" y="548.875"/><rect fill="#FFFFFF" height="39.1563" style="stroke:#181818;stroke-width:1.0;" width="10" x="1474.5" y="1279.5313"/><rect fill="#FFFFFF" height="247.7813" style="stroke:#181818;stroke-width:1.0;" width="10" x="1662.5" y="1410"/><rect fill="#FFFFFF" height="154.4688" style="stroke:#181818;stroke-width:1.0;" width="10" x="1667.5" y="1457.1563"/><rect fill="#FFFFFF" height="50.1563" style="stroke:#181818;stroke-width:1.0;" width="10" x="1672.5" y="1509.3125"/><rect fill="#FFFFFF" height="143.4688" style="stroke:#181818;stroke-width:1.0;" width="10" x="2049.5" y="679.3438"/><rect fill="#FFFFFF" height="50.1563" style="stroke:#181818;stroke-width:1.0;" width="10" x="2054.5" y="726.5"/><polygon fill="#181818" points="469,127.3125,479,131.3125,469,135.3125,473,131.3125" style="stroke:#181818;stroke-width:1.0;"/><line style="stroke:#181818;stroke-width:1.0;" x1="61" x2="475" y1="131.3125" y2="131.3125"/><text fill="#000000" font-family="sans-serif" font-size="20" font-weight="bold" lengthAdjust="spacing" textLength="11" x="68" y="124.918">1</text><text fill="#000000" font-family="sans-serif" font-size="20" lengthAdjust="spacing" textLength="351" x="83" y="124.918">requests to add a drone to the inventory</text><polygon fill="#181818" points="72,166.4688,62,170.4688,72,174.4688,68,170.4688" style="stroke:#181818;stroke-width:1.0;"/><line style="stroke:#181818;stroke-width:1.0;stroke-dasharray:2.0,2.0;" x1="66" x2="485" y1="170.4688" y2="170.4688"/><text fill="#000000" font-family="sans-serif" font-size="20" font-weight="bold" lengthAdjust="spacing" textLength="11" x="78" y="164.0742">2</text><text fill="#000000" font-family="sans-serif" font-size="20" lengthAdjust="spacing" textLength="381" x="93" y="164.0742">asks for the drone serial number and model</text><polygon fill="#181818" points="469,205.625,479,209.625,469,213.625,473,209.625" style="stroke:#181818;stroke-width:1.0;"/><line style="stroke:#181818;stroke-width:1.0;" x1="61" x2="475" y1="209.625" y2="209.625"/><text fill="#000000" font-family="sans-serif" font-size="20" font-weight="bold" lengthAdjust="spacing" textLength="11" x="68" y="203.2305">3</text><text fill="#000000" font-family="sans-serif" font-size="20" lengthAdjust="spacing" textLength="112" x="83" y="203.2305">submits data</text><line style="stroke:#181818;stroke-width:1.0;stroke-dasharray:2.0,2.0;" x1="491" x2="533" y1="248.7813" y2="248.7813"/><line style="stroke:#181818;stroke-width:1.0;stroke-dasharray:2.0,2.0;" x1="533" x2="533" y1="248.7813" y2="261.7813"/><line style="stroke:#181818;stroke-width:1.0;stroke-dasharray:2.0,2.0;" x1="492" x2="533" y1="261.7813" y2="261.7813"/><polygon fill="#181818" points="502,257.7813,492,261.7813,502,265.7813,498,261.7813" style="stroke:#181818;stroke-width:1.0;"/><text fill="#000000" font-family="sans-serif" font-size="20" font-weight="bold" lengthAdjust="spacing" textLength="11" x="498" y="242.3867">4</text><text fill="#000000" font-family="sans-serif" font-size="20" lengthAdjust="spacing" textLength="214" x="513" y="242.3867">keepData(serialNumber)</text><polygon fill="#181818" points="855,296.9375,865,300.9375,855,304.9375,859,300.9375" style="stroke:#181818;stroke-width:1.0;"/><line style="stroke:#181818;stroke-width:1.0;" x1="491" x2="861" y1="300.9375" y2="300.9375"/><text fill="#000000" font-family="sans-serif" font-size="20" font-weight="bold" lengthAdjust="spacing" textLength="11" x="498" y="294.543">5</text><text fill="#000000" font-family="sans-serif" font-size="20" lengthAdjust="spacing" textLength="219" x="513" y="294.543">verifyModel(modelName)</text><line style="stroke:#181818;stroke-width:1.0;" x1="877" x2="924" y1="335.0938" y2="335.0938"/><line style="stroke:#181818;stroke-width:1.0;" x1="924" x2="924" y1="335.0938" y2="348.0938"/><line style="stroke:#181818;stroke-width:1.0;" x1="883" x2="924" y1="348.0938" y2="348.0938"/><polygon fill="#181818" points="893,344.0938,883,348.0938,893,352.0938,889,348.0938" style="stroke:#181818;stroke-width:1.0;"/><text fill="#000000" font-family="sans-serif" font-size="20" font-weight="bold" lengthAdjust="spacing" textLength="11" x="889" y="328.6992">6</text><text fill="#000000" font-family="sans-serif" font-size="20" lengthAdjust="spacing" textLength="191" x="904" y="328.6992">getModelRepository()</text><polygon fill="#181818" points="1105,388.25,1115,392.25,1105,396.25,1109,392.25" style="stroke:#181818;stroke-width:1.0;"/><line style="stroke:#181818;stroke-width:1.0;" x1="882" x2="1111" y1="392.25" y2="392.25"/><text fill="#000000" font-family="sans-serif" font-size="20" font-weight="bold" lengthAdjust="spacing" textLength="11" x="889" y="385.8555">7</text><text fill="#000000" font-family="sans-serif" font-size="20" lengthAdjust="spacing" textLength="190" x="904" y="385.8555">getRepositoryFactory</text><polygon fill="#181818" points="893,427.4063,883,431.4063,893,435.4063,889,431.4063" style="stroke:#181818;stroke-width:1.0;"/><line style="stroke:#181818;stroke-width:1.0;stroke-dasharray:2.0,2.0;" x1="887" x2="1121" y1="431.4063" y2="431.4063"/><text fill="#000000" font-family="sans-serif" font-size="20" font-weight="bold" lengthAdjust="spacing" textLength="11" x="899" y="425.0117">8</text><text fill="#000000" font-family="sans-serif" font-size="20" lengthAdjust="spacing" textLength="155" x="914" y="425.0117">repositoryFactory</text><polygon fill="#181818" points="1267.5,466.5625,1277.5,470.5625,1267.5,474.5625,1271.5,470.5625" style="stroke:#181818;stroke-width:1.0;"/><line style="stroke:#181818;stroke-width:1.0;" x1="882" x2="1273.5" y1="470.5625" y2="470.5625"/><text fill="#000000" font-family="sans-serif" font-size="20" font-weight="bold" lengthAdjust="spacing" textLength="11" x="889" y="464.168">9</text><text fill="#000000" font-family="sans-serif" font-size="20" lengthAdjust="spacing" textLength="116" x="904" y="464.168">getInstance()</text><polygon fill="#181818" points="893,505.7188,883,509.7188,893,513.7188,889,509.7188" style="stroke:#181818;stroke-width:1.0;"/><line style="stroke:#181818;stroke-width:1.0;stroke-dasharray:2.0,2.0;" x1="887" x2="1283.5" y1="509.7188" y2="509.7188"/><text fill="#000000" font-family="sans-serif" font-size="20" font-weight="bold" lengthAdjust="spacing" textLength="22" x="899" y="503.3242">10</text><text fill="#000000" font-family="sans-serif" font-size="20" lengthAdjust="spacing" textLength="103" x="925" y="503.3242">repositories</text><polygon fill="#181818" points="1462.5,544.875,1472.5,548.875,1462.5,552.875,1466.5,548.875" style="stroke:#181818;stroke-width:1.0;"/><line style="stroke:#181818;stroke-width:1.0;" x1="882" x2="1468.5" y1="548.875" y2="548.875"/><text fill="#000000" font-family="sans-serif" font-size="20" font-weight="bold" lengthAdjust="spacing" textLength="22" x="889" y="542.4805">11</text><text fill="#000000" font-family="sans-serif" font-size="20" lengthAdjust="spacing" textLength="191" x="915" y="542.4805">getModelRepository()</text><polygon fill="#181818" points="893,584.0313,883,588.0313,893,592.0313,889,588.0313" style="stroke:#181818;stroke-width:1.0;"/><line style="stroke:#181818;stroke-width:1.0;stroke-dasharray:2.0,2.0;" x1="887" x2="1478.5" y1="588.0313" y2="588.0313"/><text fill="#000000" font-family="sans-serif" font-size="20" font-weight="bold" lengthAdjust="spacing" textLength="22" x="899" y="581.6367">12</text><text fill="#000000" font-family="sans-serif" font-size="20" lengthAdjust="spacing" textLength="148" x="925" y="581.6367">modelRepository</text><line style="stroke:#181818;stroke-width:1.0;stroke-dasharray:2.0,2.0;" x1="882" x2="924" y1="632.1875" y2="632.1875"/><line style="stroke:#181818;stroke-width:1.0;stroke-dasharray:2.0,2.0;" x1="924" x2="924" y1="632.1875" y2="645.1875"/><line style="stroke:#181818;stroke-width:1.0;stroke-dasharray:2.0,2.0;" x1="877" x2="924" y1="645.1875" y2="645.1875"/><polygon fill="#181818" points="887,641.1875,877,645.1875,887,649.1875,883,645.1875" style="stroke:#181818;stroke-width:1.0;"/><text fill="#000000" font-family="sans-serif" font-size="20" font-weight="bold" lengthAdjust="spacing" textLength="22" x="889" y="625.793">13</text><text fill="#000000" font-family="sans-serif" font-size="20" lengthAdjust="spacing" textLength="148" x="915" y="625.793">modelRepository</text><polygon fill="#181818" points="2037.5,675.3438,2047.5,679.3438,2037.5,683.3438,2041.5,679.3438" style="stroke:#181818;stroke-width:1.0;"/><line style="stroke:#181818;stroke-width:1.0;" x1="877" x2="2043.5" y1="679.3438" y2="679.3438"/><text fill="#000000" font-family="sans-serif" font-size="20" font-weight="bold" lengthAdjust="spacing" textLength="22" x="884" y="672.9492">14</text><text fill="#000000" font-family="sans-serif" font-size="20" lengthAdjust="spacing" textLength="219" x="910" y="672.9492">verifyModel(modelName)</text><line style="stroke:#181818;stroke-width:1.0;" x1="2059.5" x2="2106.5" y1="713.5" y2="713.5"/><line style="stroke:#181818;stroke-width:1.0;" x1="2106.5" x2="2106.5" y1="713.5" y2="726.5"/><line style="stroke:#181818;stroke-width:1.0;" x1="2065.5" x2="2106.5" y1="726.5" y2="726.5"/><polygon fill="#181818" points="2075.5,722.5,2065.5,726.5,2075.5,730.5,2071.5,726.5" style="stroke:#181818;stroke-width:1.0;"/><text fill="#000000" font-family="sans-serif" font-size="20" font-weight="bold" lengthAdjust="spacing" textLength="22" x="2071.5" y="707.1055">15</text><text fill="#000000" font-family="sans-serif" font-size="20" lengthAdjust="spacing" textLength="219" x="2097.5" y="707.1055">verifyModel(modelName)</text><line style="stroke:#181818;stroke-width:1.0;stroke-dasharray:2.0,2.0;" x1="2064.5" x2="2106.5" y1="775.6563" y2="775.6563"/><line style="stroke:#181818;stroke-width:1.0;stroke-dasharray:2.0,2.0;" x1="2106.5" x2="2106.5" y1="775.6563" y2="788.6563"/><line style="stroke:#181818;stroke-width:1.0;stroke-dasharray:2.0,2.0;" x1="2059.5" x2="2106.5" y1="788.6563" y2="788.6563"/><polygon fill="#181818" points="2069.5,784.6563,2059.5,788.6563,2069.5,792.6563,2065.5,788.6563" style="stroke:#181818;stroke-width:1.0;"/><text fill="#000000" font-family="sans-serif" font-size="20" font-weight="bold" lengthAdjust="spacing" textLength="22" x="2071.5" y="769.2617">16</text><text fill="#000000" font-family="sans-serif" font-size="20" lengthAdjust="spacing" textLength="34" x="2097.5" y="769.2617">true</text><polygon fill="#181818" points="888,818.8125,878,822.8125,888,826.8125,884,822.8125" style="stroke:#181818;stroke-width:1.0;"/><line style="stroke:#181818;stroke-width:1.0;stroke-dasharray:2.0,2.0;" x1="882" x2="2053.5" y1="822.8125" y2="822.8125"/><text fill="#000000" font-family="sans-serif" font-size="20" font-weight="bold" lengthAdjust="spacing" textLength="22" x="894" y="816.418">17</text><text fill="#000000" font-family="sans-serif" font-size="20" lengthAdjust="spacing" textLength="34" x="920" y="816.418">true</text><polygon fill="#181818" points="502,857.9688,492,861.9688,502,865.9688,498,861.9688" style="stroke:#181818;stroke-width:1.0;"/><line style="stroke:#181818;stroke-width:1.0;stroke-dasharray:2.0,2.0;" x1="496" x2="871" y1="861.9688" y2="861.9688"/><text fill="#000000" font-family="sans-serif" font-size="20" font-weight="bold" lengthAdjust="spacing" textLength="22" x="508" y="855.5742">18</text><text fill="#000000" font-family="sans-serif" font-size="20" lengthAdjust="spacing" textLength="34" x="534" y="855.5742">true</text><line style="stroke:#181818;stroke-width:1.0;stroke-dasharray:2.0,2.0;" x1="491" x2="533" y1="901.125" y2="901.125"/><line style="stroke:#181818;stroke-width:1.0;stroke-dasharray:2.0,2.0;" x1="533" x2="533" y1="901.125" y2="914.125"/><line style="stroke:#181818;stroke-width:1.0;stroke-dasharray:2.0,2.0;" x1="492" x2="533" y1="914.125" y2="914.125"/><polygon fill="#181818" points="502,910.125,492,914.125,502,918.125,498,914.125" style="stroke:#181818;stroke-width:1.0;"/><text fill="#000000" font-family="sans-serif" font-size="20" font-weight="bold" lengthAdjust="spacing" textLength="22" x="498" y="894.7305">19</text><text fill="#000000" font-family="sans-serif" font-size="20" lengthAdjust="spacing" textLength="203" x="524" y="894.7305">keepData(modelName)</text><polygon fill="#181818" points="72,949.2813,62,953.2813,72,957.2813,68,953.2813" style="stroke:#181818;stroke-width:1.0;"/><line style="stroke:#181818;stroke-width:1.0;stroke-dasharray:2.0,2.0;" x1="66" x2="485" y1="953.2813" y2="953.2813"/><text fill="#000000" font-family="sans-serif" font-size="20" font-weight="bold" lengthAdjust="spacing" textLength="22" x="78" y="946.8867">20</text><text fill="#000000" font-family="sans-serif" font-size="20" lengthAdjust="spacing" textLength="183" x="104" y="946.8867">asks for confirmation</text><polygon fill="#181818" points="469,988.4375,479,992.4375,469,996.4375,473,992.4375" style="stroke:#181818;stroke-width:1.0;"/><line style="stroke:#181818;stroke-width:1.0;" x1="61" x2="475" y1="992.4375" y2="992.4375"/><text fill="#000000" font-family="sans-serif" font-size="20" font-weight="bold" lengthAdjust="spacing" textLength="22" x="68" y="986.043">21</text><text fill="#000000" font-family="sans-serif" font-size="20" lengthAdjust="spacing" textLength="119" x="94" y="986.043">confirms data</text><polygon fill="#181818" points="855,1027.5938,865,1031.5938,855,1035.5938,859,1031.5938" style="stroke:#181818;stroke-width:1.0;"/><line style="stroke:#181818;stroke-width:1.0;" x1="491" x2="861" y1="1031.5938" y2="1031.5938"/><text fill="#000000" font-family="sans-serif" font-size="20" font-weight="bold" lengthAdjust="spacing" textLength="22" x="498" y="1025.1992">22</text><text fill="#000000" font-family="sans-serif" font-size="20" lengthAdjust="spacing" textLength="331" x="524" y="1025.1992">addDrone(serialNumber, modelName)</text><line style="stroke:#181818;stroke-width:1.0;" x1="877" x2="924" y1="1065.75" y2="1065.75"/><line style="stroke:#181818;stroke-width:1.0;" x1="924" x2="924" y1="1065.75" y2="1078.75"/><line style="stroke:#181818;stroke-width:1.0;" x1="883" x2="924" y1="1078.75" y2="1078.75"/><polygon fill="#181818" points="893,1074.75,883,1078.75,893,1082.75,889,1078.75" style="stroke:#181818;stroke-width:1.0;"/><text fill="#000000" font-family="sans-serif" font-size="20" font-weight="bold" lengthAdjust="spacing" textLength="22" x="889" y="1059.3555">23</text><text fill="#000000" font-family="sans-serif" font-size="20" lengthAdjust="spacing" textLength="190" x="915" y="1059.3555">getDroneRepository()</text><polygon fill="#181818" points="1105,1118.9063,1115,1122.9063,1105,1126.9063,1109,1122.9063" style="stroke:#181818;stroke-width:1.0;"/><line style="stroke:#181818;stroke-width:1.0;" x1="882" x2="1111" y1="1122.9063" y2="1122.9063"/><text fill="#000000" font-family="sans-serif" font-size="20" font-weight="bold" lengthAdjust="spacing" textLength="22" x="889" y="1116.5117">24</text><text fill="#000000" font-family="sans-serif" font-size="20" lengthAdjust="spacing" textLength="190" x="915" y="1116.5117">getRepositoryFactory</text><polygon fill="#181818" points="893,1158.0625,883,1162.0625,893,1166.0625,889,1162.0625" style="stroke:#181818;stroke-width:1.0;"/><line style="stroke:#181818;stroke-width:1.0;stroke-dasharray:2.0,2.0;" x1="887" x2="1121" y1="1162.0625" y2="1162.0625"/><text fill="#000000" font-family="sans-serif" font-size="20" font-weight="bold" lengthAdjust="spacing" textLength="22" x="899" y="1155.668">25</text><text fill="#000000" font-family="sans-serif" font-size="20" lengthAdjust="spacing" textLength="155" x="925" y="1155.668">repositoryFactory</text><polygon fill="#181818" points="1267.5,1197.2188,1277.5,1201.2188,1267.5,1205.2188,1271.5,1201.2188" style="stroke:#181818;stroke-width:1.0;"/><line style="stroke:#181818;stroke-width:1.0;" x1="882" x2="1273.5" y1="1201.2188" y2="1201.2188"/><text fill="#000000" font-family="sans-serif" font-size="20" font-weight="bold" lengthAdjust="spacing" textLength="22" x="889" y="1194.8242">26</text><text fill="#000000" font-family="sans-serif" font-size="20" lengthAdjust="spacing" textLength="116" x="915" y="1194.8242">getInstance()</text><polygon fill="#181818" points="893,1236.375,883,1240.375,893,1244.375,889,1240.375" style="stroke:#181818;stroke-width:1.0;"/><line style="stroke:#181818;stroke-width:1.0;stroke-dasharray:2.0,2.0;" x1="887" x2="1283.5" y1="1240.375" y2="1240.375"/><text fill="#000000" font-family="sans-serif" font-size="20" font-weight="bold" lengthAdjust="spacing" textLength="22" x="899" y="1233.9805">27</text><text fill="#000000" font-family="sans-serif" font-size="20" lengthAdjust="spacing" textLength="103" x="925" y="1233.9805">repositories</text><polygon fill="#181818" points="1462.5,1275.5313,1472.5,1279.5313,1462.5,1283.5313,1466.5,1279.5313" style="stroke:#181818;stroke-width:1.0;"/><line style="stroke:#181818;stroke-width:1.0;" x1="882" x2="1468.5" y1="1279.5313" y2="1279.5313"/><text fill="#000000" font-family="sans-serif" font-size="20" font-weight="bold" lengthAdjust="spacing" textLength="22" x="889" y="1273.1367">28</text><text fill="#000000" font-family="sans-serif" font-size="20" lengthAdjust="spacing" textLength="190" x="915" y="1273.1367">getDroneRepository()</text><polygon fill="#181818" points="893,1314.6875,883,1318.6875,893,1322.6875,889,1318.6875" style="stroke:#181818;stroke-width:1.0;"/><line style="stroke:#181818;stroke-width:1.0;stroke-dasharray:2.0,2.0;" x1="887" x2="1478.5" y1="1318.6875" y2="1318.6875"/><text fill="#000000" font-family="sans-serif" font-size="20" font-weight="bold" lengthAdjust="spacing" textLength="22" x="899" y="1312.293">29</text><text fill="#000000" font-family="sans-serif" font-size="20" lengthAdjust="spacing" textLength="145" x="925" y="1312.293">droneRepository</text><line style="stroke:#181818;stroke-width:1.0;stroke-dasharray:2.0,2.0;" x1="882" x2="924" y1="1362.8438" y2="1362.8438"/><line style="stroke:#181818;stroke-width:1.0;stroke-dasharray:2.0,2.0;" x1="924" x2="924" y1="1362.8438" y2="1375.8438"/><line style="stroke:#181818;stroke-width:1.0;stroke-dasharray:2.0,2.0;" x1="877" x2="924" y1="1375.8438" y2="1375.8438"/><polygon fill="#181818" points="887,1371.8438,877,1375.8438,887,1379.8438,883,1375.8438" style="stroke:#181818;stroke-width:1.0;"/><text fill="#000000" font-family="sans-serif" font-size="20" font-weight="bold" lengthAdjust="spacing" textLength="22" x="889" y="1356.4492">30</text><text fill="#000000" font-family="sans-serif" font-size="20" lengthAdjust="spacing" textLength="145" x="915" y="1356.4492">droneRepository</text><polygon fill="#181818" points="1650.5,1406,1660.5,1410,1650.5,1414,1654.5,1410" style="stroke:#181818;stroke-width:1.0;"/><line style="stroke:#181818;stroke-width:1.0;" x1="877" x2="1656.5" y1="1410" y2="1410"/><text fill="#000000" font-family="sans-serif" font-size="20" font-weight="bold" lengthAdjust="spacing" textLength="22" x="884" y="1403.6055">31</text><text fill="#000000" font-family="sans-serif" font-size="20" lengthAdjust="spacing" textLength="324" x="910" y="1403.6055">addDrone(serialNumbe, modelName)</text><line style="stroke:#181818;stroke-width:1.0;" x1="1672.5" x2="1719.5" y1="1444.1563" y2="1444.1563"/><line style="stroke:#181818;stroke-width:1.0;" x1="1719.5" x2="1719.5" y1="1444.1563" y2="1457.1563"/><line style="stroke:#181818;stroke-width:1.0;" x1="1678.5" x2="1719.5" y1="1457.1563" y2="1457.1563"/><polygon fill="#181818" points="1688.5,1453.1563,1678.5,1457.1563,1688.5,1461.1563,1684.5,1457.1563" style="stroke:#181818;stroke-width:1.0;"/><text fill="#000000" font-family="sans-serif" font-size="20" font-weight="bold" lengthAdjust="spacing" textLength="22" x="1684.5" y="1437.7617">32</text><text fill="#000000" font-family="sans-serif" font-size="20" lengthAdjust="spacing" textLength="337" x="1710.5" y="1437.7617">addDrone (serialNumber, modelName)</text><line style="stroke:#181818;stroke-width:1.0;" x1="1677.5" x2="1724.5" y1="1496.3125" y2="1496.3125"/><line style="stroke:#181818;stroke-width:1.0;" x1="1724.5" x2="1724.5" y1="1496.3125" y2="1509.3125"/><line style="stroke:#181818;stroke-width:1.0;" x1="1683.5" x2="1724.5" y1="1509.3125" y2="1509.3125"/><polygon fill="#181818" points="1693.5,1505.3125,1683.5,1509.3125,1693.5,1513.3125,1689.5,1509.3125" style="stroke:#181818;stroke-width:1.0;"/><text fill="#000000" font-family="sans-serif" font-size="20" font-weight="bold" lengthAdjust="spacing" textLength="22" x="1689.5" y="1489.918">33</text><text fill="#000000" font-family="sans-serif" font-size="20" lengthAdjust="spacing" textLength="249" x="1715.5" y="1489.918">validateDrone(serialNumber)</text><line style="stroke:#181818;stroke-width:1.0;stroke-dasharray:2.0,2.0;" x1="1682.5" x2="1724.5" y1="1558.4688" y2="1558.4688"/><line style="stroke:#181818;stroke-width:1.0;stroke-dasharray:2.0,2.0;" x1="1724.5" x2="1724.5" y1="1558.4688" y2="1571.4688"/><line style="stroke:#181818;stroke-width:1.0;stroke-dasharray:2.0,2.0;" x1="1677.5" x2="1724.5" y1="1571.4688" y2="1571.4688"/><polygon fill="#181818" points="1687.5,1567.4688,1677.5,1571.4688,1687.5,1575.4688,1683.5,1571.4688" style="stroke:#181818;stroke-width:1.0;"/><text fill="#000000" font-family="sans-serif" font-size="20" font-weight="bold" lengthAdjust="spacing" textLength="22" x="1689.5" y="1552.0742">34</text><text fill="#000000" font-family="sans-serif" font-size="20" lengthAdjust="spacing" textLength="34" x="1715.5" y="1552.0742">true</text><line style="stroke:#181818;stroke-width:1.0;stroke-dasharray:2.0,2.0;" x1="1677.5" x2="1719.5" y1="1610.625" y2="1610.625"/><line style="stroke:#181818;stroke-width:1.0;stroke-dasharray:2.0,2.0;" x1="1719.5" x2="1719.5" y1="1610.625" y2="1623.625"/><line style="stroke:#181818;stroke-width:1.0;stroke-dasharray:2.0,2.0;" x1="1672.5" x2="1719.5" y1="1623.625" y2="1623.625"/><polygon fill="#181818" points="1682.5,1619.625,1672.5,1623.625,1682.5,1627.625,1678.5,1623.625" style="stroke:#181818;stroke-width:1.0;"/><text fill="#000000" font-family="sans-serif" font-size="20" font-weight="bold" lengthAdjust="spacing" textLength="22" x="1684.5" y="1604.2305">35</text><text fill="#000000" font-family="sans-serif" font-size="20" lengthAdjust="spacing" textLength="34" x="1710.5" y="1604.2305">true</text><polygon fill="#181818" points="888,1653.7813,878,1657.7813,888,1661.7813,884,1657.7813" style="stroke:#181818;stroke-width:1.0;"/><line style="stroke:#181818;stroke-width:1.0;stroke-dasharray:2.0,2.0;" x1="882" x2="1666.5" y1="1657.7813" y2="1657.7813"/><text fill="#000000" font-family="sans-serif" font-size="20" font-weight="bold" lengthAdjust="spacing" textLength="22" x="894" y="1651.3867">36</text><text fill="#000000" font-family="sans-serif" font-size="20" lengthAdjust="spacing" textLength="34" x="920" y="1651.3867">true</text><polygon fill="#181818" points="502,1692.9375,492,1696.9375,502,1700.9375,498,1696.9375" style="stroke:#181818;stroke-width:1.0;"/><line style="stroke:#181818;stroke-width:1.0;stroke-dasharray:2.0,2.0;" x1="496" x2="871" y1="1696.9375" y2="1696.9375"/><text fill="#000000" font-family="sans-serif" font-size="20" font-weight="bold" lengthAdjust="spacing" textLength="22" x="508" y="1690.543">37</text><text fill="#000000" font-family="sans-serif" font-size="20" lengthAdjust="spacing" textLength="34" x="534" y="1690.543">true</text><polygon fill="#181818" points="67,1732.0938,57,1736.0938,67,1740.0938,63,1736.0938" style="stroke:#181818;stroke-width:1.0;"/><line style="stroke:#181818;stroke-width:1.0;stroke-dasharray:2.0,2.0;" x1="61" x2="485" y1="1736.0938" y2="1736.0938"/><text fill="#000000" font-family="sans-serif" font-size="20" font-weight="bold" lengthAdjust="spacing" textLength="22" x="73" y="1729.6992">38</text><text fill="#000000" font-family="sans-serif" font-size="20" lengthAdjust="spacing" textLength="234" x="99" y="1729.6992">displays success message</text><!--SRC=[hLV1Zjem4BtxAqPS2bAHgXuv85KBMo6nB0BsLcdbZGUmI6ng6ohwzNMSJKYSn6Itv80WdlVcUJpp4lI1YoDLD8bbT4063BVq59j7ASoQ_qNu_eryqNaC95B8QAzaWc3K2SbrvKYZ0ztXsbnY18MHeM8NbmFqdZBvXuiTR6ciaH1wCbASaZTKzdjaf8BUH4c16upsFQ0Q9XjYeOP7_4Y5WTxe1sCkucNcrbzcBUiFLhoISOpAnJriLdClSebASsrGHEX2bjFLsWjPuL5gRcLT7fswYmjSJPVFVgJo8t-9KGZ-kfujViwdc-T5bOYbsgyuopAfticgibgyfZHLR28PnXNiK_MEmpvDvXasBJW_KuDfaSba0yEnBIUCxCdzFg4s6em4oXXGSAhIdsQFmCKPHKft9R2d0FQowA4biLGZc-cWOMiFD8LaU8sAqnYoymOg63Z53ffU37t2aYXzUakurSIeeMwj9RaBFY0U9pQmdwLSk8m3KiIDNJ_OmBDTtrvScVfEp88cEAZokzP9xpXCWTsXyShR7nHRQIR8hvmexJWhmZBLEgKI7xgABAvzkw9Svk6r3khJ-Kk7LbEGxzDrVBRHcT3M5I9igrKsMtwIZA19BqTDMkHaLEs2hYEOIUjuclxuDcejSPTKUmCQ5DwI8Tl1SFmnnbeBvoRGSGGApqZl5jYxyLI9t4F5sq0xyBqGDq5vuJA3Q0elYjJe9AKjjNjT9CMMguGQBWMvQMdlqJSyhTWYVN-oLKpjAzoqhKRhyfugfMOF4zp3ilxFkkvlORUih9kD1IoictsrMrVGjZgSPCXG0dRblOkG3rYLPrCTc5eValcxJii4r0QWjllYPQbOBYXBz5Ts20zOE4TJNpMdEzEOsy77-amFI71QWhcg-QhbAqmlqFZrOdsQkOcrbSotyPkoElevAViqu_eOquksBvDHX5f3OZ_i7nPIjUbotWtv1m00]--></g></svg>