<?xml version="1.0" encoding="us-ascii" standalone="no"?><svg xmlns="http://www.w3.org/2000/svg" xmlns:xlink="http://www.w3.org/1999/xlink" contentStyleType="text/css" height="1062.4px" preserveAspectRatio="none" style="width:1269px;height:1062px;background:#FFFFFF;" version="1.1" viewBox="0 0 1269 1062" width="1269.6px" zoomAndPan="magnify"><defs/><g><rect fill="#FFFFFF" height="907.1156" style="stroke:#181818;stroke-width:0.8000000000000002;" width="8" x="30.8" y="74.8969"/><rect fill="#FFFFFF" height="25.0328" style="stroke:#181818;stroke-width:0.8000000000000002;" width="8" x="298" y="93.5297"/><rect fill="#FFFFFF" height="275.3609" style="stroke:#181818;stroke-width:0.8000000000000002;" width="8" x="298" y="143.5953"/><rect fill="#FFFFFF" height="25.0328" style="stroke:#181818;stroke-width:0.8000000000000002;" width="8" x="298" y="443.9891"/><rect fill="#FFFFFF" height="487.9578" style="stroke:#181818;stroke-width:0.8000000000000002;" width="8" x="298" y="494.0547"/><rect fill="#FFFFFF" height="225.2953" style="stroke:#181818;stroke-width:0.8000000000000002;" width="8" x="520.4" y="168.6281"/><rect fill="#FFFFFF" height="437.8922" style="stroke:#181818;stroke-width:0.8000000000000002;" width="8" x="520.4" y="519.0875"/><rect fill="#FFFFFF" height="184.0297" style="stroke:#181818;stroke-width:0.8000000000000002;" width="8" x="524.4" y="550.5203"/><rect fill="#FFFFFF" height="25.0328" style="stroke:#181818;stroke-width:0.8000000000000002;" width="8" x="661.2" y="193.6609"/><rect fill="#FFFFFF" height="25.0328" style="stroke:#181818;stroke-width:0.8000000000000002;" width="8" x="661.2" y="579.5531"/><rect fill="#FFFFFF" height="25.0328" style="stroke:#181818;stroke-width:0.8000000000000002;" width="8" x="759.6" y="243.7266"/><rect fill="#FFFFFF" height="25.0328" style="stroke:#181818;stroke-width:0.8000000000000002;" width="8" x="759.6" y="629.6188"/><rect fill="#FFFFFF" height="25.0328" style="stroke:#181818;stroke-width:0.8000000000000002;" width="8" x="876.4" y="293.7922"/><rect fill="#FFFFFF" height="25.0328" style="stroke:#181818;stroke-width:0.8000000000000002;" width="8" x="876.4" y="679.6844"/><rect fill="#FFFFFF" height="166.7641" style="stroke:#181818;stroke-width:0.8000000000000002;" width="8" x="989.6" y="765.1828"/><rect fill="#FFFFFF" height="104.6984" style="stroke:#181818;stroke-width:0.8000000000000002;" width="8" x="993.6" y="796.6156"/><rect fill="#FFFFFF" height="33.8328" style="stroke:#181818;stroke-width:0.8000000000000002;" width="8" x="997.6" y="832.0484"/><rect fill="#FFFFFF" height="25.0328" style="stroke:#181818;stroke-width:0.8000000000000002;" width="8" x="1211.2" y="343.8578"/><line style="stroke:#181818;stroke-width:0.4000000000000001;stroke-dasharray:5.0,5.0;" x1="34.4" x2="34.4" y1="66.8969" y2="996.4125"/><line style="stroke:#181818;stroke-width:0.4000000000000001;stroke-dasharray:5.0,5.0;" x1="302" x2="302" y1="66.8969" y2="996.4125"/><line style="stroke:#181818;stroke-width:0.4000000000000001;stroke-dasharray:5.0,5.0;" x1="524.4" x2="524.4" y1="66.8969" y2="996.4125"/><line style="stroke:#181818;stroke-width:0.4000000000000001;stroke-dasharray:5.0,5.0;" x1="665.2" x2="665.2" y1="66.8969" y2="996.4125"/><line style="stroke:#181818;stroke-width:0.4000000000000001;stroke-dasharray:5.0,5.0;" x1="763.6" x2="763.6" y1="66.8969" y2="996.4125"/><line style="stroke:#181818;stroke-width:0.4000000000000001;stroke-dasharray:5.0,5.0;" x1="880.4" x2="880.4" y1="66.8969" y2="996.4125"/><line style="stroke:#181818;stroke-width:0.4000000000000001;stroke-dasharray:5.0,5.0;" x1="993.2" x2="993.2" y1="66.8969" y2="996.4125"/><line style="stroke:#181818;stroke-width:0.4000000000000001;stroke-dasharray:5.0,5.0;" x1="1215.2" x2="1215.2" y1="66.8969" y2="996.4125"/><text fill="#000000" font-family="sans-serif" font-size="11.2" lengthAdjust="spacing" textLength="56.8" x="4" y="64.0859">DroneTech</text><ellipse cx="34.8" cy="10.8" fill="#E2E2F0" rx="6.4" ry="6.4" style="stroke:#181818;stroke-width:0.4000000000000001;"/><path d="M34.8,17.2 L34.8,38.8 M24.4,23.6 L45.2,23.6 M34.8,38.8 L24.4,50.8 M34.8,38.8 L45.2,50.8 " fill="none" style="stroke:#181818;stroke-width:0.4000000000000001;"/><text fill="#000000" font-family="sans-serif" font-size="11.2" lengthAdjust="spacing" textLength="56.8" x="4" y="1007.6984">DroneTech</text><ellipse cx="34.8" cy="1017.3094" fill="#E2E2F0" rx="6.4" ry="6.4" style="stroke:#181818;stroke-width:0.4000000000000001;"/><path d="M34.8,1023.7094 L34.8,1045.3094 M24.4,1030.1094 L45.2,1030.1094 M34.8,1045.3094 L24.4,1057.3094 M34.8,1045.3094 L45.2,1057.3094 " fill="none" style="stroke:#181818;stroke-width:0.4000000000000001;"/><rect fill="#E2E2F0" height="26.0969" rx="2" ry="2" style="stroke:#181818;stroke-width:0.4000000000000001;" width="75.2" x="264.4" y="40"/><text fill="#000000" font-family="sans-serif" font-size="11.2" lengthAdjust="spacing" textLength="64" x="270" y="57.6859">:AddDroneUI</text><rect fill="#E2E2F0" height="26.0969" rx="2" ry="2" style="stroke:#181818;stroke-width:0.4000000000000001;" width="75.2" x="264.4" y="995.6125"/><text fill="#000000" font-family="sans-serif" font-size="11.2" lengthAdjust="spacing" textLength="64" x="270" y="1013.2984">:AddDroneUI</text><rect fill="#E2E2F0" height="26.0969" rx="2" ry="2" style="stroke:#181818;stroke-width:0.4000000000000001;" width="115.2" x="466.8" y="40"/><text fill="#000000" font-family="sans-serif" font-size="11.2" lengthAdjust="spacing" textLength="104" x="472.4" y="57.6859">:AddDroneController</text><rect fill="#E2E2F0" height="26.0969" rx="2" ry="2" style="stroke:#181818;stroke-width:0.4000000000000001;" width="115.2" x="466.8" y="995.6125"/><text fill="#000000" font-family="sans-serif" font-size="11.2" lengthAdjust="spacing" textLength="104" x="472.4" y="1013.2984">:AddDroneController</text><rect fill="#E2E2F0" height="26.0969" rx="2" ry="2" style="stroke:#181818;stroke-width:0.4000000000000001;" width="73.6" x="628.4" y="40"/><text fill="#000000" font-family="sans-serif" font-size="11.2" lengthAdjust="spacing" textLength="62.4" x="634" y="57.6859">:Persistence</text><rect fill="#E2E2F0" height="26.0969" rx="2" ry="2" style="stroke:#181818;stroke-width:0.4000000000000001;" width="73.6" x="628.4" y="995.6125"/><text fill="#000000" font-family="sans-serif" font-size="11.2" lengthAdjust="spacing" textLength="62.4" x="634" y="1013.2984">:Persistence</text><rect fill="#E2E2F0" height="26.0969" rx="2" ry="2" style="stroke:#181818;stroke-width:0.4000000000000001;" width="107.2" x="710" y="40"/><text fill="#000000" font-family="sans-serif" font-size="11.2" lengthAdjust="spacing" textLength="96" x="715.6" y="57.6859">:RepositoryFactory</text><rect fill="#E2E2F0" height="26.0969" rx="2" ry="2" style="stroke:#181818;stroke-width:0.4000000000000001;" width="107.2" x="710" y="995.6125"/><text fill="#000000" font-family="sans-serif" font-size="11.2" lengthAdjust="spacing" textLength="96" x="715.6" y="1013.2984">:RepositoryFactory</text><rect fill="#E2E2F0" height="40.9938" rx="2" ry="2" style="stroke:#181818;stroke-width:0.4000000000000001;" width="110.4" x="825.2" y="25.1031"/><text fill="#000000" font-family="sans-serif" font-size="11.2" lengthAdjust="spacing" textLength="92" x="834.4" y="42.7891">:repositoryFactory</text><text fill="#000000" font-family="sans-serif" font-size="11.2" lengthAdjust="spacing" textLength="99.2" x="830.8" y="57.6859">::RepositoryFactory</text><rect fill="#E2E2F0" height="40.9938" rx="2" ry="2" style="stroke:#181818;stroke-width:0.4000000000000001;" width="110.4" x="825.2" y="995.6125"/><text fill="#000000" font-family="sans-serif" font-size="11.2" lengthAdjust="spacing" textLength="92" x="834.4" y="1013.2984">:repositoryFactory</text><text fill="#000000" font-family="sans-serif" font-size="11.2" lengthAdjust="spacing" textLength="99.2" x="830.8" y="1028.1953">::RepositoryFactory</text><rect fill="#E2E2F0" height="40.9938" rx="2" ry="2" style="stroke:#181818;stroke-width:0.4000000000000001;" width="100" x="943.6" y="25.1031"/><text fill="#000000" font-family="sans-serif" font-size="11.2" lengthAdjust="spacing" textLength="84" x="951.6" y="42.7891">droneRepository</text><text fill="#000000" font-family="sans-serif" font-size="11.2" lengthAdjust="spacing" textLength="88.8" x="949.2" y="57.6859">:DroneRepository</text><rect fill="#E2E2F0" height="40.9938" rx="2" ry="2" style="stroke:#181818;stroke-width:0.4000000000000001;" width="100" x="943.6" y="995.6125"/><text fill="#000000" font-family="sans-serif" font-size="11.2" lengthAdjust="spacing" textLength="84" x="951.6" y="1013.2984">droneRepository</text><text fill="#000000" font-family="sans-serif" font-size="11.2" lengthAdjust="spacing" textLength="88.8" x="949.2" y="1028.1953">:DroneRepository</text><rect fill="#E2E2F0" height="40.9938" rx="2" ry="2" style="stroke:#181818;stroke-width:0.4000000000000001;" width="99.2" x="1165.6" y="25.1031"/><text fill="#000000" font-family="sans-serif" font-size="11.2" lengthAdjust="spacing" textLength="84.8" x="1172.8" y="42.7891">modelRepository</text><text fill="#000000" font-family="sans-serif" font-size="11.2" lengthAdjust="spacing" textLength="88" x="1171.2" y="57.6859">:ModelRepository</text><rect fill="#E2E2F0" height="40.9938" rx="2" ry="2" style="stroke:#181818;stroke-width:0.4000000000000001;" width="99.2" x="1165.6" y="995.6125"/><text fill="#000000" font-family="sans-serif" font-size="11.2" lengthAdjust="spacing" textLength="84.8" x="1172.8" y="1013.2984">modelRepository</text><text fill="#000000" font-family="sans-serif" font-size="11.2" lengthAdjust="spacing" textLength="88" x="1171.2" y="1028.1953">:ModelRepository</text><rect fill="#FFFFFF" height="907.1156" style="stroke:#181818;stroke-width:0.8000000000000002;" width="8" x="30.8" y="74.8969"/><rect fill="#FFFFFF" height="25.0328" style="stroke:#181818;stroke-width:0.8000000000000002;" width="8" x="298" y="93.5297"/><rect fill="#FFFFFF" height="275.3609" style="stroke:#181818;stroke-width:0.8000000000000002;" width="8" x="298" y="143.5953"/><rect fill="#FFFFFF" height="25.0328" style="stroke:#181818;stroke-width:0.8000000000000002;" width="8" x="298" y="443.9891"/><rect fill="#FFFFFF" height="487.9578" style="stroke:#181818;stroke-width:0.8000000000000002;" width="8" x="298" y="494.0547"/><rect fill="#FFFFFF" height="225.2953" style="stroke:#181818;stroke-width:0.8000000000000002;" width="8" x="520.4" y="168.6281"/><rect fill="#FFFFFF" height="437.8922" style="stroke:#181818;stroke-width:0.8000000000000002;" width="8" x="520.4" y="519.0875"/><rect fill="#FFFFFF" height="184.0297" style="stroke:#181818;stroke-width:0.8000000000000002;" width="8" x="524.4" y="550.5203"/><rect fill="#FFFFFF" height="25.0328" style="stroke:#181818;stroke-width:0.8000000000000002;" width="8" x="661.2" y="193.6609"/><rect fill="#FFFFFF" height="25.0328" style="stroke:#181818;stroke-width:0.8000000000000002;" width="8" x="661.2" y="579.5531"/><rect fill="#FFFFFF" height="25.0328" style="stroke:#181818;stroke-width:0.8000000000000002;" width="8" x="759.6" y="243.7266"/><rect fill="#FFFFFF" height="25.0328" style="stroke:#181818;stroke-width:0.8000000000000002;" width="8" x="759.6" y="629.6188"/><rect fill="#FFFFFF" height="25.0328" style="stroke:#181818;stroke-width:0.8000000000000002;" width="8" x="876.4" y="293.7922"/><rect fill="#FFFFFF" height="25.0328" style="stroke:#181818;stroke-width:0.8000000000000002;" width="8" x="876.4" y="679.6844"/><rect fill="#FFFFFF" height="166.7641" style="stroke:#181818;stroke-width:0.8000000000000002;" width="8" x="989.6" y="765.1828"/><rect fill="#FFFFFF" height="104.6984" style="stroke:#181818;stroke-width:0.8000000000000002;" width="8" x="993.6" y="796.6156"/><rect fill="#FFFFFF" height="33.8328" style="stroke:#181818;stroke-width:0.8000000000000002;" width="8" x="997.6" y="832.0484"/><rect fill="#FFFFFF" height="25.0328" style="stroke:#181818;stroke-width:0.8000000000000002;" width="8" x="1211.2" y="343.8578"/><polygon fill="#181818" points="288.4,90.3297,296.4,93.5297,288.4,96.7297,291.6,93.5297" style="stroke:#181818;stroke-width:0.8000000000000002;"/><line style="stroke:#181818;stroke-width:0.8000000000000002;" x1="38.8" x2="293.2" y1="93.5297" y2="93.5297"/><text fill="#000000" font-family="sans-serif" font-size="10.4" font-weight="bold" lengthAdjust="spacing" textLength="5.6" x="44.4" y="89.3195">1</text><text fill="#000000" font-family="sans-serif" font-size="10.4" lengthAdjust="spacing" textLength="183.2" x="53.2" y="89.3195">requests to add a drone to the inventory</text><polygon fill="#181818" points="47.6,115.3625,39.6,118.5625,47.6,121.7625,44.4,118.5625" style="stroke:#181818;stroke-width:0.8000000000000002;"/><line style="stroke:#181818;stroke-width:0.8000000000000002;stroke-dasharray:2.0,2.0;" x1="42.8" x2="301.2" y1="118.5625" y2="118.5625"/><text fill="#000000" font-family="sans-serif" font-size="10.4" font-weight="bold" lengthAdjust="spacing" textLength="5.6" x="52.4" y="114.3523">2</text><text fill="#000000" font-family="sans-serif" font-size="10.4" lengthAdjust="spacing" textLength="148.8" x="61.2" y="114.3523">asks for the drone serial number</text><polygon fill="#181818" points="288.4,140.3953,296.4,143.5953,288.4,146.7953,291.6,143.5953" style="stroke:#181818;stroke-width:0.8000000000000002;"/><line style="stroke:#181818;stroke-width:0.8000000000000002;" x1="38.8" x2="293.2" y1="143.5953" y2="143.5953"/><text fill="#000000" font-family="sans-serif" font-size="10.4" font-weight="bold" lengthAdjust="spacing" textLength="5.6" x="44.4" y="139.3852">3</text><text fill="#000000" font-family="sans-serif" font-size="10.4" lengthAdjust="spacing" textLength="60" x="53.2" y="139.3852">submits data</text><polygon fill="#181818" points="510.8,165.4281,518.8,168.6281,510.8,171.8281,514,168.6281" style="stroke:#181818;stroke-width:0.8000000000000002;"/><line style="stroke:#181818;stroke-width:0.8000000000000002;" x1="306" x2="515.6" y1="168.6281" y2="168.6281"/><text fill="#000000" font-family="sans-serif" font-size="10.4" font-weight="bold" lengthAdjust="spacing" textLength="5.6" x="311.6" y="164.418">4</text><text fill="#000000" font-family="sans-serif" font-size="10.4" lengthAdjust="spacing" textLength="53.6" x="320.4" y="164.418">listModels()</text><polygon fill="#181818" points="651.6,190.4609,659.6,193.6609,651.6,196.8609,654.8,193.6609" style="stroke:#181818;stroke-width:0.8000000000000002;"/><line style="stroke:#181818;stroke-width:0.8000000000000002;" x1="528.4" x2="656.4" y1="193.6609" y2="193.6609"/><text fill="#000000" font-family="sans-serif" font-size="10.4" font-weight="bold" lengthAdjust="spacing" textLength="5.6" x="534" y="189.4508">5</text><text fill="#000000" font-family="sans-serif" font-size="10.4" lengthAdjust="spacing" textLength="99.2" x="542.8" y="189.4508">getRepositoryFactory</text><polygon fill="#181818" points="537.2,215.4938,529.2,218.6938,537.2,221.8938,534,218.6938" style="stroke:#181818;stroke-width:0.8000000000000002;"/><line style="stroke:#181818;stroke-width:0.8000000000000002;stroke-dasharray:2.0,2.0;" x1="532.4" x2="664.4" y1="218.6938" y2="218.6938"/><text fill="#000000" font-family="sans-serif" font-size="10.4" font-weight="bold" lengthAdjust="spacing" textLength="5.6" x="542" y="214.4836">6</text><text fill="#000000" font-family="sans-serif" font-size="10.4" lengthAdjust="spacing" textLength="80.8" x="550.8" y="214.4836">repositoryFactory</text><polygon fill="#181818" points="750,240.5266,758,243.7266,750,246.9266,753.2,243.7266" style="stroke:#181818;stroke-width:0.8000000000000002;"/><line style="stroke:#181818;stroke-width:0.8000000000000002;" x1="528.4" x2="754.8" y1="243.7266" y2="243.7266"/><text fill="#000000" font-family="sans-serif" font-size="10.4" font-weight="bold" lengthAdjust="spacing" textLength="5.6" x="534" y="239.5164">7</text><text fill="#000000" font-family="sans-serif" font-size="10.4" lengthAdjust="spacing" textLength="60" x="542.8" y="239.5164">getInstance()</text><polygon fill="#181818" points="537.2,265.5594,529.2,268.7594,537.2,271.9594,534,268.7594" style="stroke:#181818;stroke-width:0.8000000000000002;"/><line style="stroke:#181818;stroke-width:0.8000000000000002;stroke-dasharray:2.0,2.0;" x1="532.4" x2="762.8" y1="268.7594" y2="268.7594"/><text fill="#000000" font-family="sans-serif" font-size="10.4" font-weight="bold" lengthAdjust="spacing" textLength="5.6" x="542" y="264.5492">8</text><text fill="#000000" font-family="sans-serif" font-size="10.4" lengthAdjust="spacing" textLength="53.6" x="550.8" y="264.5492">repositories</text><polygon fill="#181818" points="866.8,290.5922,874.8,293.7922,866.8,296.9922,870,293.7922" style="stroke:#181818;stroke-width:0.8000000000000002;"/><line style="stroke:#181818;stroke-width:0.8000000000000002;" x1="528.4" x2="871.6" y1="293.7922" y2="293.7922"/><text fill="#000000" font-family="sans-serif" font-size="10.4" font-weight="bold" lengthAdjust="spacing" textLength="5.6" x="534" y="289.582">9</text><text fill="#000000" font-family="sans-serif" font-size="10.4" lengthAdjust="spacing" textLength="98.4" x="542.8" y="289.582">getModelRepository()</text><polygon fill="#181818" points="537.2,315.625,529.2,318.825,537.2,322.025,534,318.825" style="stroke:#181818;stroke-width:0.8000000000000002;"/><line style="stroke:#181818;stroke-width:0.8000000000000002;stroke-dasharray:2.0,2.0;" x1="532.4" x2="879.6" y1="318.825" y2="318.825"/><text fill="#000000" font-family="sans-serif" font-size="10.4" font-weight="bold" lengthAdjust="spacing" textLength="11.2" x="542" y="314.6148">10</text><text fill="#000000" font-family="sans-serif" font-size="10.4" lengthAdjust="spacing" textLength="77.6" x="556.4" y="314.6148">modelRepository</text><polygon fill="#181818" points="1201.6,340.6578,1209.6,343.8578,1201.6,347.0578,1204.8,343.8578" style="stroke:#181818;stroke-width:0.8000000000000002;"/><line style="stroke:#181818;stroke-width:0.8000000000000002;" x1="528.4" x2="1206.4" y1="343.8578" y2="343.8578"/><text fill="#000000" font-family="sans-serif" font-size="10.4" font-weight="bold" lengthAdjust="spacing" textLength="11.2" x="534" y="339.6477">11</text><text fill="#000000" font-family="sans-serif" font-size="10.4" lengthAdjust="spacing" textLength="53.6" x="548.4" y="339.6477">listModels()</text><polygon fill="#181818" points="537.2,365.6906,529.2,368.8906,537.2,372.0906,534,368.8906" style="stroke:#181818;stroke-width:0.8000000000000002;"/><line style="stroke:#181818;stroke-width:0.8000000000000002;stroke-dasharray:2.0,2.0;" x1="532.4" x2="1214.4" y1="368.8906" y2="368.8906"/><text fill="#000000" font-family="sans-serif" font-size="10.4" font-weight="bold" lengthAdjust="spacing" textLength="11.2" x="542" y="364.6805">12</text><text fill="#000000" font-family="sans-serif" font-size="10.4" lengthAdjust="spacing" textLength="44.8" x="556.4" y="364.6805">modelList</text><polygon fill="#181818" points="314.8,390.7234,306.8,393.9234,314.8,397.1234,311.6,393.9234" style="stroke:#181818;stroke-width:0.8000000000000002;"/><line style="stroke:#181818;stroke-width:0.8000000000000002;stroke-dasharray:2.0,2.0;" x1="310" x2="523.6" y1="393.9234" y2="393.9234"/><text fill="#000000" font-family="sans-serif" font-size="10.4" font-weight="bold" lengthAdjust="spacing" textLength="11.2" x="319.6" y="389.7133">13</text><text fill="#000000" font-family="sans-serif" font-size="10.4" lengthAdjust="spacing" textLength="44.8" x="334" y="389.7133">modelList</text><polygon fill="#181818" points="47.6,415.7563,39.6,418.9563,47.6,422.1563,44.4,418.9563" style="stroke:#181818;stroke-width:0.8000000000000002;"/><line style="stroke:#181818;stroke-width:0.8000000000000002;stroke-dasharray:2.0,2.0;" x1="42.8" x2="301.2" y1="418.9563" y2="418.9563"/><text fill="#000000" font-family="sans-serif" font-size="10.4" font-weight="bold" lengthAdjust="spacing" textLength="11.2" x="52.4" y="414.7461">14</text><text fill="#000000" font-family="sans-serif" font-size="10.4" lengthAdjust="spacing" textLength="225.6" x="66.8" y="414.7461">shows a list of all models and asks to select one</text><polygon fill="#181818" points="288.4,440.7891,296.4,443.9891,288.4,447.1891,291.6,443.9891" style="stroke:#181818;stroke-width:0.8000000000000002;"/><line style="stroke:#181818;stroke-width:0.8000000000000002;" x1="38.8" x2="293.2" y1="443.9891" y2="443.9891"/><text fill="#000000" font-family="sans-serif" font-size="10.4" font-weight="bold" lengthAdjust="spacing" textLength="11.2" x="44.4" y="439.7789">15</text><text fill="#000000" font-family="sans-serif" font-size="10.4" lengthAdjust="spacing" textLength="53.6" x="58.8" y="439.7789">selects one</text><polygon fill="#181818" points="47.6,465.8219,39.6,469.0219,47.6,472.2219,44.4,469.0219" style="stroke:#181818;stroke-width:0.8000000000000002;"/><line style="stroke:#181818;stroke-width:0.8000000000000002;stroke-dasharray:2.0,2.0;" x1="42.8" x2="301.2" y1="469.0219" y2="469.0219"/><text fill="#000000" font-family="sans-serif" font-size="10.4" font-weight="bold" lengthAdjust="spacing" textLength="11.2" x="52.4" y="464.8117">16</text><text fill="#000000" font-family="sans-serif" font-size="10.4" lengthAdjust="spacing" textLength="165.6" x="66.8" y="464.8117">shows all data asks for confirmation</text><polygon fill="#181818" points="288.4,490.8547,296.4,494.0547,288.4,497.2547,291.6,494.0547" style="stroke:#181818;stroke-width:0.8000000000000002;"/><line style="stroke:#181818;stroke-width:0.8000000000000002;" x1="38.8" x2="293.2" y1="494.0547" y2="494.0547"/><text fill="#000000" font-family="sans-serif" font-size="10.4" font-weight="bold" lengthAdjust="spacing" textLength="11.2" x="44.4" y="489.8445">17</text><text fill="#000000" font-family="sans-serif" font-size="10.4" lengthAdjust="spacing" textLength="62.4" x="58.8" y="489.8445">confirms data</text><polygon fill="#181818" points="510.8,515.8875,518.8,519.0875,510.8,522.2875,514,519.0875" style="stroke:#181818;stroke-width:0.8000000000000002;"/><line style="stroke:#181818;stroke-width:0.8000000000000002;" x1="306" x2="515.6" y1="519.0875" y2="519.0875"/><text fill="#000000" font-family="sans-serif" font-size="10.4" font-weight="bold" lengthAdjust="spacing" textLength="11.2" x="311.6" y="514.8773">18</text><text fill="#000000" font-family="sans-serif" font-size="10.4" lengthAdjust="spacing" textLength="184.8" x="326" y="514.8773">addDrone(serialNumber, selectedModel)</text><line style="stroke:#181818;stroke-width:0.8000000000000002;" x1="528.4" x2="566" y1="540.1203" y2="540.1203"/><line style="stroke:#181818;stroke-width:0.8000000000000002;" x1="566" x2="566" y1="540.1203" y2="550.5203"/><line style="stroke:#181818;stroke-width:0.8000000000000002;" x1="533.2" x2="566" y1="550.5203" y2="550.5203"/><polygon fill="#181818" points="541.2,547.3203,533.2,550.5203,541.2,553.7203,538,550.5203" style="stroke:#181818;stroke-width:0.8000000000000002;"/><text fill="#000000" font-family="sans-serif" font-size="10.4" font-weight="bold" lengthAdjust="spacing" textLength="11.2" x="538" y="535.9102">19</text><text fill="#000000" font-family="sans-serif" font-size="10.4" lengthAdjust="spacing" textLength="97.6" x="552.4" y="535.9102">getDroneRepository()</text><polygon fill="#181818" points="651.6,576.3531,659.6,579.5531,651.6,582.7531,654.8,579.5531" style="stroke:#181818;stroke-width:0.8000000000000002;"/><line style="stroke:#181818;stroke-width:0.8000000000000002;" x1="532.4" x2="656.4" y1="579.5531" y2="579.5531"/><text fill="#000000" font-family="sans-serif" font-size="10.4" font-weight="bold" lengthAdjust="spacing" textLength="11.2" x="538" y="575.343">20</text><text fill="#000000" font-family="sans-serif" font-size="10.4" lengthAdjust="spacing" textLength="99.2" x="552.4" y="575.343">getRepositoryFactory</text><polygon fill="#181818" points="541.2,601.3859,533.2,604.5859,541.2,607.7859,538,604.5859" style="stroke:#181818;stroke-width:0.8000000000000002;"/><line style="stroke:#181818;stroke-width:0.8000000000000002;stroke-dasharray:2.0,2.0;" x1="536.4" x2="664.4" y1="604.5859" y2="604.5859"/><text fill="#000000" font-family="sans-serif" font-size="10.4" font-weight="bold" lengthAdjust="spacing" textLength="11.2" x="546" y="600.3758">21</text><text fill="#000000" font-family="sans-serif" font-size="10.4" lengthAdjust="spacing" textLength="80.8" x="560.4" y="600.3758">repositoryFactory</text><polygon fill="#181818" points="750,626.4188,758,629.6188,750,632.8188,753.2,629.6188" style="stroke:#181818;stroke-width:0.8000000000000002;"/><line style="stroke:#181818;stroke-width:0.8000000000000002;" x1="532.4" x2="754.8" y1="629.6188" y2="629.6188"/><text fill="#000000" font-family="sans-serif" font-size="10.4" font-weight="bold" lengthAdjust="spacing" textLength="11.2" x="538" y="625.4086">22</text><text fill="#000000" font-family="sans-serif" font-size="10.4" lengthAdjust="spacing" textLength="60" x="552.4" y="625.4086">getInstance()</text><polygon fill="#181818" points="541.2,651.4516,533.2,654.6516,541.2,657.8516,538,654.6516" style="stroke:#181818;stroke-width:0.8000000000000002;"/><line style="stroke:#181818;stroke-width:0.8000000000000002;stroke-dasharray:2.0,2.0;" x1="536.4" x2="762.8" y1="654.6516" y2="654.6516"/><text fill="#000000" font-family="sans-serif" font-size="10.4" font-weight="bold" lengthAdjust="spacing" textLength="11.2" x="546" y="650.4414">23</text><text fill="#000000" font-family="sans-serif" font-size="10.4" lengthAdjust="spacing" textLength="53.6" x="560.4" y="650.4414">repositories</text><polygon fill="#181818" points="866.8,676.4844,874.8,679.6844,866.8,682.8844,870,679.6844" style="stroke:#181818;stroke-width:0.8000000000000002;"/><line style="stroke:#181818;stroke-width:0.8000000000000002;" x1="532.4" x2="871.6" y1="679.6844" y2="679.6844"/><text fill="#000000" font-family="sans-serif" font-size="10.4" font-weight="bold" lengthAdjust="spacing" textLength="11.2" x="538" y="675.4742">24</text><text fill="#000000" font-family="sans-serif" font-size="10.4" lengthAdjust="spacing" textLength="97.6" x="552.4" y="675.4742">getDroneRepository()</text><polygon fill="#181818" points="541.2,701.5172,533.2,704.7172,541.2,707.9172,538,704.7172" style="stroke:#181818;stroke-width:0.8000000000000002;"/><line style="stroke:#181818;stroke-width:0.8000000000000002;stroke-dasharray:2.0,2.0;" x1="536.4" x2="879.6" y1="704.7172" y2="704.7172"/><text fill="#000000" font-family="sans-serif" font-size="10.4" font-weight="bold" lengthAdjust="spacing" textLength="11.2" x="546" y="700.507">25</text><text fill="#000000" font-family="sans-serif" font-size="10.4" lengthAdjust="spacing" textLength="75.2" x="560.4" y="700.507">droneRepository</text><line style="stroke:#181818;stroke-width:0.8000000000000002;stroke-dasharray:2.0,2.0;" x1="532.4" x2="566" y1="733.75" y2="733.75"/><line style="stroke:#181818;stroke-width:0.8000000000000002;stroke-dasharray:2.0,2.0;" x1="566" x2="566" y1="733.75" y2="744.15"/><line style="stroke:#181818;stroke-width:0.8000000000000002;stroke-dasharray:2.0,2.0;" x1="528.4" x2="566" y1="744.15" y2="744.15"/><polygon fill="#181818" points="536.4,740.95,528.4,744.15,536.4,747.35,533.2,744.15" style="stroke:#181818;stroke-width:0.8000000000000002;"/><text fill="#000000" font-family="sans-serif" font-size="10.4" font-weight="bold" lengthAdjust="spacing" textLength="11.2" x="538" y="729.5398">26</text><text fill="#000000" font-family="sans-serif" font-size="10.4" lengthAdjust="spacing" textLength="75.2" x="552.4" y="729.5398">droneRepository</text><polygon fill="#181818" points="980,761.9828,988,765.1828,980,768.3828,983.2,765.1828" style="stroke:#181818;stroke-width:0.8000000000000002;"/><line style="stroke:#181818;stroke-width:0.8000000000000002;" x1="528.4" x2="984.8" y1="765.1828" y2="765.1828"/><text fill="#000000" font-family="sans-serif" font-size="10.4" font-weight="bold" lengthAdjust="spacing" textLength="11.2" x="534" y="760.9727">27</text><text fill="#000000" font-family="sans-serif" font-size="10.4" lengthAdjust="spacing" textLength="181.6" x="548.4" y="760.9727">addDrone(serialNumbe, selectedModel)</text><line style="stroke:#181818;stroke-width:0.8000000000000002;" x1="997.6" x2="1035.2" y1="786.2156" y2="786.2156"/><line style="stroke:#181818;stroke-width:0.8000000000000002;" x1="1035.2" x2="1035.2" y1="786.2156" y2="796.6156"/><line style="stroke:#181818;stroke-width:0.8000000000000002;" x1="1002.4" x2="1035.2" y1="796.6156" y2="796.6156"/><polygon fill="#181818" points="1010.4,793.4156,1002.4,796.6156,1010.4,799.8156,1007.2,796.6156" style="stroke:#181818;stroke-width:0.8000000000000002;"/><text fill="#000000" font-family="sans-serif" font-size="10.4" font-weight="bold" lengthAdjust="spacing" textLength="11.2" x="1007.2" y="782.0055">28</text><text fill="#000000" font-family="sans-serif" font-size="10.4" lengthAdjust="spacing" textLength="188" x="1021.6" y="782.0055">addDrone (serialNumber, selectedModel)</text><line style="stroke:#181818;stroke-width:0.8000000000000002;" x1="1001.6" x2="1039.2" y1="821.6484" y2="821.6484"/><line style="stroke:#181818;stroke-width:0.8000000000000002;" x1="1039.2" x2="1039.2" y1="821.6484" y2="832.0484"/><line style="stroke:#181818;stroke-width:0.8000000000000002;" x1="1006.4" x2="1039.2" y1="832.0484" y2="832.0484"/><polygon fill="#181818" points="1014.4,828.8484,1006.4,832.0484,1014.4,835.2484,1011.2,832.0484" style="stroke:#181818;stroke-width:0.8000000000000002;"/><text fill="#000000" font-family="sans-serif" font-size="10.4" font-weight="bold" lengthAdjust="spacing" textLength="11.2" x="1011.2" y="817.4383">29</text><text fill="#000000" font-family="sans-serif" font-size="10.4" lengthAdjust="spacing" textLength="128.8" x="1025.6" y="817.4383">validateDrone(serialNumber)</text><line style="stroke:#181818;stroke-width:0.8000000000000002;stroke-dasharray:2.0,2.0;" x1="1005.6" x2="1039.2" y1="865.0813" y2="865.0813"/><line style="stroke:#181818;stroke-width:0.8000000000000002;stroke-dasharray:2.0,2.0;" x1="1039.2" x2="1039.2" y1="865.0813" y2="875.4813"/><line style="stroke:#181818;stroke-width:0.8000000000000002;stroke-dasharray:2.0,2.0;" x1="1001.6" x2="1039.2" y1="875.4813" y2="875.4813"/><polygon fill="#181818" points="1009.6,872.2813,1001.6,875.4813,1009.6,878.6813,1006.4,875.4813" style="stroke:#181818;stroke-width:0.8000000000000002;"/><text fill="#000000" font-family="sans-serif" font-size="10.4" font-weight="bold" lengthAdjust="spacing" textLength="11.2" x="1011.2" y="860.8711">30</text><text fill="#000000" font-family="sans-serif" font-size="10.4" lengthAdjust="spacing" textLength="17.6" x="1025.6" y="860.8711">true</text><line style="stroke:#181818;stroke-width:0.8000000000000002;stroke-dasharray:2.0,2.0;" x1="1001.6" x2="1035.2" y1="900.5141" y2="900.5141"/><line style="stroke:#181818;stroke-width:0.8000000000000002;stroke-dasharray:2.0,2.0;" x1="1035.2" x2="1035.2" y1="900.5141" y2="910.9141"/><line style="stroke:#181818;stroke-width:0.8000000000000002;stroke-dasharray:2.0,2.0;" x1="997.6" x2="1035.2" y1="910.9141" y2="910.9141"/><polygon fill="#181818" points="1005.6,907.7141,997.6,910.9141,1005.6,914.1141,1002.4,910.9141" style="stroke:#181818;stroke-width:0.8000000000000002;"/><text fill="#000000" font-family="sans-serif" font-size="10.4" font-weight="bold" lengthAdjust="spacing" textLength="11.2" x="1007.2" y="896.3039">31</text><text fill="#000000" font-family="sans-serif" font-size="10.4" lengthAdjust="spacing" textLength="17.6" x="1021.6" y="896.3039">true</text><polygon fill="#181818" points="537.2,928.7469,529.2,931.9469,537.2,935.1469,534,931.9469" style="stroke:#181818;stroke-width:0.8000000000000002;"/><line style="stroke:#181818;stroke-width:0.8000000000000002;stroke-dasharray:2.0,2.0;" x1="532.4" x2="992.8" y1="931.9469" y2="931.9469"/><text fill="#000000" font-family="sans-serif" font-size="10.4" font-weight="bold" lengthAdjust="spacing" textLength="11.2" x="542" y="927.7367">32</text><text fill="#000000" font-family="sans-serif" font-size="10.4" lengthAdjust="spacing" textLength="17.6" x="556.4" y="927.7367">true</text><polygon fill="#181818" points="314.8,953.7797,306.8,956.9797,314.8,960.1797,311.6,956.9797" style="stroke:#181818;stroke-width:0.8000000000000002;"/><line style="stroke:#181818;stroke-width:0.8000000000000002;stroke-dasharray:2.0,2.0;" x1="310" x2="523.6" y1="956.9797" y2="956.9797"/><text fill="#000000" font-family="sans-serif" font-size="10.4" font-weight="bold" lengthAdjust="spacing" textLength="11.2" x="319.6" y="952.7695">33</text><text fill="#000000" font-family="sans-serif" font-size="10.4" lengthAdjust="spacing" textLength="17.6" x="334" y="952.7695">true</text><polygon fill="#181818" points="43.6,978.8125,35.6,982.0125,43.6,985.2125,40.4,982.0125" style="stroke:#181818;stroke-width:0.8000000000000002;"/><line style="stroke:#181818;stroke-width:0.8000000000000002;stroke-dasharray:2.0,2.0;" x1="38.8" x2="301.2" y1="982.0125" y2="982.0125"/><text fill="#000000" font-family="sans-serif" font-size="10.4" font-weight="bold" lengthAdjust="spacing" textLength="11.2" x="48.4" y="977.8023">34</text><text fill="#000000" font-family="sans-serif" font-size="10.4" lengthAdjust="spacing" textLength="126.4" x="62.8" y="977.8023">displays success message</text><!--SRC=[hLR1JkCm5BpxAomk2zBs1tf0Mb4MLIe5bN9R2PdajRNgs5tR1VNlzyLE4zjft8eb1qIJD_CcVfw9VvWjbpkcMKKh9LMnqQe2QlKUIFTanuejMyEBFGYW6WhBv5g41MR3IlN9vPgkc3102DjR9VVLEsZylx1Aqwk9LXAMK6okA3DqiYG8jRpWEoOjlHh_AajNyJfrpr-d0y_lbBHQ2G7QrTqj5xEayXcquSQ2BC2LFDylNfAI1UoKuIZhyDkfExZ2nVtpKrgfqye_Sfo3lxrCvm-p- -NJF2OgQ-qT3bacyHs_AelvMqqJOojLWeYmZ_4TXtsSp3osNd3-mIpKYqmcIpgwnUMaOvpStpqOQwXLb9KbPTIfgd_Q3L0kFq3MT1q1Je7YXUWHaY3L63jj3LtXG6k8nnlGd0dQp9isLmafJI35xDyhZafAPfbx5jQsFM_TUB5Su3pTEvlhcxZSpPy6bqCWifuw8jTWUzEAwdDNsyLjeKjHhlEe4w-_t3zOmfw2utkwNUTVT2eDEhE0PerwR-7tTzh44vpIoy6G0JcUQbXGPmClBTcmMOM1XKvg3RW3rOb9iiA33YIKVhHGTiTrFlFW5fIAcI45ITgtuAxjqHA3c7QBXpOq6_LfqC6rJgfMb0dX6V2cBBrBqTS61COrHPTcV9bwqs5C1CebGYC51THkxWAYK7B5TSKiLvASJOIcUY0IUed0ci_1jG-VkSkUdursADteSb5n7BcdmnsQn76mG_C4tv4p_vSttvyxv_Bdikp9vCvbcJESDzcikM2IkPp9P4po4ISNv4kiU7HxETFWb-ruI1XmmKaJz5QWFMbq2N2a3Lfq7UXve-NxdDfVfrj-CC4n1A3lxnkITKssLzmlNaPtt3rZWFw2VPdv5EiWMRDX8gAihFYhqkBIdKN222-vsGbsC7WkAmemXbRu1q_y98xiiE-I_0C0]--></g></svg>