<?xml version="1.0" encoding="us-ascii" standalone="no"?><svg xmlns="http://www.w3.org/2000/svg" xmlns:xlink="http://www.w3.org/1999/xlink" contentStyleType="text/css" height="918.6px" preserveAspectRatio="none" style="width:979px;height:918px;background:#FFFFFF;" version="1.1" viewBox="0 0 979 918" width="979.8px" zoomAndPan="magnify"><defs/><g><rect fill="#FFFFFF" height="802.2352" style="stroke:#181818;stroke-width:0.6;" width="6" x="23.1" y="56.1727"/><rect fill="#FFFFFF" height="18.7746" style="stroke:#181818;stroke-width:0.6;" width="6" x="200.1" y="70.1473"/><rect fill="#FFFFFF" height="365.9684" style="stroke:#181818;stroke-width:0.6;" width="6" x="200.1" y="107.6965"/><rect fill="#FFFFFF" height="365.9684" style="stroke:#181818;stroke-width:0.6;" width="6" x="200.1" y="492.4395"/><rect fill="#FFFFFF" height="275.2699" style="stroke:#181818;stroke-width:0.6;" width="6" x="357.9" y="153.0457"/><rect fill="#FFFFFF" height="138.0223" style="stroke:#181818;stroke-width:0.6;" width="6" x="360.9" y="176.6203"/><rect fill="#FFFFFF" height="328.4191" style="stroke:#181818;stroke-width:0.6;" width="6" x="357.9" y="511.2141"/><rect fill="#FFFFFF" height="138.0223" style="stroke:#181818;stroke-width:0.6;" width="6" x="360.9" y="534.7887"/><rect fill="#FFFFFF" height="18.7746" style="stroke:#181818;stroke-width:0.6;" width="6" x="463.5" y="198.3949"/><rect fill="#FFFFFF" height="18.7746" style="stroke:#181818;stroke-width:0.6;" width="6" x="463.5" y="556.5633"/><rect fill="#FFFFFF" height="18.7746" style="stroke:#181818;stroke-width:0.6;" width="6" x="537.3" y="235.9441"/><rect fill="#FFFFFF" height="18.7746" style="stroke:#181818;stroke-width:0.6;" width="6" x="537.3" y="594.1125"/><rect fill="#FFFFFF" height="18.7746" style="stroke:#181818;stroke-width:0.6;" width="6" x="624.9" y="273.4934"/><rect fill="#FFFFFF" height="18.7746" style="stroke:#181818;stroke-width:0.6;" width="6" x="624.9" y="631.6617"/><rect fill="#FFFFFF" height="125.073" style="stroke:#181818;stroke-width:0.6;" width="6" x="709.8" y="695.7855"/><rect fill="#FFFFFF" height="78.5238" style="stroke:#181818;stroke-width:0.6;" width="6" x="712.8" y="719.3602"/><rect fill="#FFFFFF" height="25.3746" style="stroke:#181818;stroke-width:0.6;" width="6" x="715.8" y="745.9348"/><rect fill="#FFFFFF" height="71.9238" style="stroke:#181818;stroke-width:0.6;" width="6" x="867" y="337.6172"/><rect fill="#FFFFFF" height="25.3746" style="stroke:#181818;stroke-width:0.6;" width="6" x="870" y="361.1918"/><line style="stroke:#181818;stroke-width:0.3;stroke-dasharray:5.0,5.0;" x1="25.8" x2="25.8" y1="50.1727" y2="869.2078"/><line style="stroke:#181818;stroke-width:0.3;stroke-dasharray:5.0,5.0;" x1="203.1" x2="203.1" y1="50.1727" y2="869.2078"/><line style="stroke:#181818;stroke-width:0.3;stroke-dasharray:5.0,5.0;" x1="360.9" x2="360.9" y1="50.1727" y2="869.2078"/><line style="stroke:#181818;stroke-width:0.3;stroke-dasharray:5.0,5.0;" x1="466.5" x2="466.5" y1="50.1727" y2="869.2078"/><line style="stroke:#181818;stroke-width:0.3;stroke-dasharray:5.0,5.0;" x1="540.3" x2="540.3" y1="50.1727" y2="869.2078"/><line style="stroke:#181818;stroke-width:0.3;stroke-dasharray:5.0,5.0;" x1="627.9" x2="627.9" y1="50.1727" y2="869.2078"/><line style="stroke:#181818;stroke-width:0.3;stroke-dasharray:5.0,5.0;" x1="712.5" x2="712.5" y1="50.1727" y2="869.2078"/><line style="stroke:#181818;stroke-width:0.3;stroke-dasharray:5.0,5.0;" x1="870" x2="870" y1="50.1727" y2="869.2078"/><text fill="#000000" font-family="sans-serif" font-size="8.4" lengthAdjust="spacing" textLength="42.6" x="3" y="48.0645">DroneTech</text><ellipse cx="26.1" cy="8.1" fill="#E2E2F0" rx="4.8" ry="4.8" style="stroke:#181818;stroke-width:0.3;"/><path d="M26.1,12.9 L26.1,29.1 M18.3,17.7 L33.9,17.7 M26.1,29.1 L18.3,38.1 M26.1,29.1 L33.9,38.1 " fill="none" style="stroke:#181818;stroke-width:0.3;"/><text fill="#000000" font-family="sans-serif" font-size="8.4" lengthAdjust="spacing" textLength="42.6" x="3" y="877.6723">DroneTech</text><ellipse cx="26.1" cy="884.8805" fill="#E2E2F0" rx="4.8" ry="4.8" style="stroke:#181818;stroke-width:0.3;"/><path d="M26.1,889.6805 L26.1,905.8805 M18.3,894.4805 L33.9,894.4805 M26.1,905.8805 L18.3,914.8805 M26.1,905.8805 L33.9,914.8805 " fill="none" style="stroke:#181818;stroke-width:0.3;"/><rect fill="#E2E2F0" height="19.5727" rx="1.5" ry="1.5" style="stroke:#181818;stroke-width:0.3;" width="56.4" x="174.9" y="30"/><text fill="#000000" font-family="sans-serif" font-size="8.4" lengthAdjust="spacing" textLength="48" x="179.1" y="43.2645">:AddDroneUI</text><rect fill="#E2E2F0" height="19.5727" rx="1.5" ry="1.5" style="stroke:#181818;stroke-width:0.3;" width="56.4" x="174.9" y="868.6078"/><text fill="#000000" font-family="sans-serif" font-size="8.4" lengthAdjust="spacing" textLength="48" x="179.1" y="881.8723">:AddDroneUI</text><rect fill="#E2E2F0" height="19.5727" rx="1.5" ry="1.5" style="stroke:#181818;stroke-width:0.3;" width="86.4" x="317.7" y="30"/><text fill="#000000" font-family="sans-serif" font-size="8.4" lengthAdjust="spacing" textLength="78" x="321.9" y="43.2645">:AddDroneController</text><rect fill="#E2E2F0" height="19.5727" rx="1.5" ry="1.5" style="stroke:#181818;stroke-width:0.3;" width="86.4" x="317.7" y="868.6078"/><text fill="#000000" font-family="sans-serif" font-size="8.4" lengthAdjust="spacing" textLength="78" x="321.9" y="881.8723">:AddDroneController</text><rect fill="#E2E2F0" height="19.5727" rx="1.5" ry="1.5" style="stroke:#181818;stroke-width:0.3;" width="55.2" x="438.9" y="30"/><text fill="#000000" font-family="sans-serif" font-size="8.4" lengthAdjust="spacing" textLength="46.8" x="443.1" y="43.2645">:Persistence</text><rect fill="#E2E2F0" height="19.5727" rx="1.5" ry="1.5" style="stroke:#181818;stroke-width:0.3;" width="55.2" x="438.9" y="868.6078"/><text fill="#000000" font-family="sans-serif" font-size="8.4" lengthAdjust="spacing" textLength="46.8" x="443.1" y="881.8723">:Persistence</text><rect fill="#E2E2F0" height="19.5727" rx="1.5" ry="1.5" style="stroke:#181818;stroke-width:0.3;" width="80.4" x="500.1" y="30"/><text fill="#000000" font-family="sans-serif" font-size="8.4" lengthAdjust="spacing" textLength="72" x="504.3" y="43.2645">:RepositoryFactory</text><rect fill="#E2E2F0" height="19.5727" rx="1.5" ry="1.5" style="stroke:#181818;stroke-width:0.3;" width="80.4" x="500.1" y="868.6078"/><text fill="#000000" font-family="sans-serif" font-size="8.4" lengthAdjust="spacing" textLength="72" x="504.3" y="881.8723">:RepositoryFactory</text><rect fill="#E2E2F0" height="30.7453" rx="1.5" ry="1.5" style="stroke:#181818;stroke-width:0.3;" width="82.8" x="586.5" y="18.8273"/><text fill="#000000" font-family="sans-serif" font-size="8.4" lengthAdjust="spacing" textLength="69" x="593.4" y="32.0918">:repositoryFactory</text><text fill="#000000" font-family="sans-serif" font-size="8.4" lengthAdjust="spacing" textLength="74.4" x="590.7" y="43.2645">::RepositoryFactory</text><rect fill="#E2E2F0" height="30.7453" rx="1.5" ry="1.5" style="stroke:#181818;stroke-width:0.3;" width="82.8" x="586.5" y="868.6078"/><text fill="#000000" font-family="sans-serif" font-size="8.4" lengthAdjust="spacing" textLength="69" x="593.4" y="881.8723">:repositoryFactory</text><text fill="#000000" font-family="sans-serif" font-size="8.4" lengthAdjust="spacing" textLength="74.4" x="590.7" y="893.0449">::RepositoryFactory</text><rect fill="#E2E2F0" height="30.7453" rx="1.5" ry="1.5" style="stroke:#181818;stroke-width:0.3;" width="75" x="675.3" y="18.8273"/><text fill="#000000" font-family="sans-serif" font-size="8.4" lengthAdjust="spacing" textLength="63" x="681.3" y="32.0918">droneRepository</text><text fill="#000000" font-family="sans-serif" font-size="8.4" lengthAdjust="spacing" textLength="66.6" x="679.5" y="43.2645">:DroneRepository</text><rect fill="#E2E2F0" height="30.7453" rx="1.5" ry="1.5" style="stroke:#181818;stroke-width:0.3;" width="75" x="675.3" y="868.6078"/><text fill="#000000" font-family="sans-serif" font-size="8.4" lengthAdjust="spacing" textLength="63" x="681.3" y="881.8723">droneRepository</text><text fill="#000000" font-family="sans-serif" font-size="8.4" lengthAdjust="spacing" textLength="66.6" x="679.5" y="893.0449">:DroneRepository</text><rect fill="#E2E2F0" height="30.7453" rx="1.5" ry="1.5" style="stroke:#181818;stroke-width:0.3;" width="74.4" x="832.8" y="18.8273"/><text fill="#000000" font-family="sans-serif" font-size="8.4" lengthAdjust="spacing" textLength="63.6" x="838.2" y="32.0918">modelRepository</text><text fill="#000000" font-family="sans-serif" font-size="8.4" lengthAdjust="spacing" textLength="66" x="837" y="43.2645">:ModelRepository</text><rect fill="#E2E2F0" height="30.7453" rx="1.5" ry="1.5" style="stroke:#181818;stroke-width:0.3;" width="74.4" x="832.8" y="868.6078"/><text fill="#000000" font-family="sans-serif" font-size="8.4" lengthAdjust="spacing" textLength="63.6" x="838.2" y="881.8723">modelRepository</text><text fill="#000000" font-family="sans-serif" font-size="8.4" lengthAdjust="spacing" textLength="66" x="837" y="893.0449">:ModelRepository</text><rect fill="#FFFFFF" height="802.2352" style="stroke:#181818;stroke-width:0.6;" width="6" x="23.1" y="56.1727"/><rect fill="#FFFFFF" height="18.7746" style="stroke:#181818;stroke-width:0.6;" width="6" x="200.1" y="70.1473"/><rect fill="#FFFFFF" height="365.9684" style="stroke:#181818;stroke-width:0.6;" width="6" x="200.1" y="107.6965"/><rect fill="#FFFFFF" height="365.9684" style="stroke:#181818;stroke-width:0.6;" width="6" x="200.1" y="492.4395"/><rect fill="#FFFFFF" height="275.2699" style="stroke:#181818;stroke-width:0.6;" width="6" x="357.9" y="153.0457"/><rect fill="#FFFFFF" height="138.0223" style="stroke:#181818;stroke-width:0.6;" width="6" x="360.9" y="176.6203"/><rect fill="#FFFFFF" height="328.4191" style="stroke:#181818;stroke-width:0.6;" width="6" x="357.9" y="511.2141"/><rect fill="#FFFFFF" height="138.0223" style="stroke:#181818;stroke-width:0.6;" width="6" x="360.9" y="534.7887"/><rect fill="#FFFFFF" height="18.7746" style="stroke:#181818;stroke-width:0.6;" width="6" x="463.5" y="198.3949"/><rect fill="#FFFFFF" height="18.7746" style="stroke:#181818;stroke-width:0.6;" width="6" x="463.5" y="556.5633"/><rect fill="#FFFFFF" height="18.7746" style="stroke:#181818;stroke-width:0.6;" width="6" x="537.3" y="235.9441"/><rect fill="#FFFFFF" height="18.7746" style="stroke:#181818;stroke-width:0.6;" width="6" x="537.3" y="594.1125"/><rect fill="#FFFFFF" height="18.7746" style="stroke:#181818;stroke-width:0.6;" width="6" x="624.9" y="273.4934"/><rect fill="#FFFFFF" height="18.7746" style="stroke:#181818;stroke-width:0.6;" width="6" x="624.9" y="631.6617"/><rect fill="#FFFFFF" height="125.073" style="stroke:#181818;stroke-width:0.6;" width="6" x="709.8" y="695.7855"/><rect fill="#FFFFFF" height="78.5238" style="stroke:#181818;stroke-width:0.6;" width="6" x="712.8" y="719.3602"/><rect fill="#FFFFFF" height="25.3746" style="stroke:#181818;stroke-width:0.6;" width="6" x="715.8" y="745.9348"/><rect fill="#FFFFFF" height="71.9238" style="stroke:#181818;stroke-width:0.6;" width="6" x="867" y="337.6172"/><rect fill="#FFFFFF" height="25.3746" style="stroke:#181818;stroke-width:0.6;" width="6" x="870" y="361.1918"/><polygon fill="#181818" points="192.9,67.7473,198.9,70.1473,192.9,72.5473,195.3,70.1473" style="stroke:#181818;stroke-width:0.6;"/><line style="stroke:#181818;stroke-width:0.6;" x1="29.1" x2="196.5" y1="70.1473" y2="70.1473"/><text fill="#000000" font-family="sans-serif" font-size="7.8" font-weight="bold" lengthAdjust="spacing" textLength="4.2" x="33.3" y="66.9896">1</text><text fill="#000000" font-family="sans-serif" font-size="7.8" lengthAdjust="spacing" textLength="137.4" x="39.9" y="66.9896">requests to add a drone to the inventory</text><polygon fill="#181818" points="35.7,86.5219,29.7,88.9219,35.7,91.3219,33.3,88.9219" style="stroke:#181818;stroke-width:0.6;"/><line style="stroke:#181818;stroke-width:0.6;stroke-dasharray:2.0,2.0;" x1="32.1" x2="202.5" y1="88.9219" y2="88.9219"/><text fill="#000000" font-family="sans-serif" font-size="7.8" font-weight="bold" lengthAdjust="spacing" textLength="4.2" x="39.3" y="85.7643">2</text><text fill="#000000" font-family="sans-serif" font-size="7.8" lengthAdjust="spacing" textLength="150" x="45.9" y="85.7643">asks for the drone serial number and model</text><polygon fill="#181818" points="192.9,105.2965,198.9,107.6965,192.9,110.0965,195.3,107.6965" style="stroke:#181818;stroke-width:0.6;"/><line style="stroke:#181818;stroke-width:0.6;" x1="29.1" x2="196.5" y1="107.6965" y2="107.6965"/><text fill="#000000" font-family="sans-serif" font-size="7.8" font-weight="bold" lengthAdjust="spacing" textLength="4.2" x="33.3" y="104.5389">3</text><text fill="#000000" font-family="sans-serif" font-size="7.8" lengthAdjust="spacing" textLength="45" x="39.9" y="104.5389">submits data</text><line style="stroke:#181818;stroke-width:0.6;stroke-dasharray:2.0,2.0;" x1="206.1" x2="231.3" y1="126.4711" y2="126.4711"/><line style="stroke:#181818;stroke-width:0.6;stroke-dasharray:2.0,2.0;" x1="231.3" x2="231.3" y1="126.4711" y2="134.2711"/><line style="stroke:#181818;stroke-width:0.6;stroke-dasharray:2.0,2.0;" x1="206.7" x2="231.3" y1="134.2711" y2="134.2711"/><polygon fill="#181818" points="212.7,131.8711,206.7,134.2711,212.7,136.6711,210.3,134.2711" style="stroke:#181818;stroke-width:0.6;"/><text fill="#000000" font-family="sans-serif" font-size="7.8" font-weight="bold" lengthAdjust="spacing" textLength="4.2" x="210.3" y="123.3135">4</text><text fill="#000000" font-family="sans-serif" font-size="7.8" lengthAdjust="spacing" textLength="83.4" x="216.9" y="123.3135">keepData(serialNumber)</text><polygon fill="#181818" points="350.7,150.6457,356.7,153.0457,350.7,155.4457,353.1,153.0457" style="stroke:#181818;stroke-width:0.6;"/><line style="stroke:#181818;stroke-width:0.6;" x1="206.1" x2="354.3" y1="153.0457" y2="153.0457"/><text fill="#000000" font-family="sans-serif" font-size="7.8" font-weight="bold" lengthAdjust="spacing" textLength="4.2" x="210.3" y="149.8881">5</text><text fill="#000000" font-family="sans-serif" font-size="7.8" lengthAdjust="spacing" textLength="84.6" x="216.9" y="149.8881">verifyModel(modelName)</text><line style="stroke:#181818;stroke-width:0.6;" x1="363.9" x2="392.1" y1="168.8203" y2="168.8203"/><line style="stroke:#181818;stroke-width:0.6;" x1="392.1" x2="392.1" y1="168.8203" y2="176.6203"/><line style="stroke:#181818;stroke-width:0.6;" x1="367.5" x2="392.1" y1="176.6203" y2="176.6203"/><polygon fill="#181818" points="373.5,174.2203,367.5,176.6203,373.5,179.0203,371.1,176.6203" style="stroke:#181818;stroke-width:0.6;"/><text fill="#000000" font-family="sans-serif" font-size="7.8" font-weight="bold" lengthAdjust="spacing" textLength="4.2" x="371.1" y="165.6627">6</text><text fill="#000000" font-family="sans-serif" font-size="7.8" lengthAdjust="spacing" textLength="73.8" x="377.7" y="165.6627">getModelRepository()</text><polygon fill="#181818" points="456.3,195.9949,462.3,198.3949,456.3,200.7949,458.7,198.3949" style="stroke:#181818;stroke-width:0.6;"/><line style="stroke:#181818;stroke-width:0.6;" x1="366.9" x2="459.9" y1="198.3949" y2="198.3949"/><text fill="#000000" font-family="sans-serif" font-size="7.8" font-weight="bold" lengthAdjust="spacing" textLength="4.2" x="371.1" y="195.2373">7</text><text fill="#000000" font-family="sans-serif" font-size="7.8" lengthAdjust="spacing" textLength="74.4" x="377.7" y="195.2373">getRepositoryFactory</text><polygon fill="#181818" points="373.5,214.7695,367.5,217.1695,373.5,219.5695,371.1,217.1695" style="stroke:#181818;stroke-width:0.6;"/><line style="stroke:#181818;stroke-width:0.6;stroke-dasharray:2.0,2.0;" x1="369.9" x2="465.9" y1="217.1695" y2="217.1695"/><text fill="#000000" font-family="sans-serif" font-size="7.8" font-weight="bold" lengthAdjust="spacing" textLength="4.2" x="377.1" y="214.0119">8</text><text fill="#000000" font-family="sans-serif" font-size="7.8" lengthAdjust="spacing" textLength="60.6" x="383.7" y="214.0119">repositoryFactory</text><polygon fill="#181818" points="530.1,233.5441,536.1,235.9441,530.1,238.3441,532.5,235.9441" style="stroke:#181818;stroke-width:0.6;"/><line style="stroke:#181818;stroke-width:0.6;" x1="366.9" x2="533.7" y1="235.9441" y2="235.9441"/><text fill="#000000" font-family="sans-serif" font-size="7.8" font-weight="bold" lengthAdjust="spacing" textLength="4.2" x="371.1" y="232.7865">9</text><text fill="#000000" font-family="sans-serif" font-size="7.8" lengthAdjust="spacing" textLength="45" x="377.7" y="232.7865">getInstance()</text><polygon fill="#181818" points="373.5,252.3188,367.5,254.7188,373.5,257.1188,371.1,254.7188" style="stroke:#181818;stroke-width:0.6;"/><line style="stroke:#181818;stroke-width:0.6;stroke-dasharray:2.0,2.0;" x1="369.9" x2="539.7" y1="254.7188" y2="254.7188"/><text fill="#000000" font-family="sans-serif" font-size="7.8" font-weight="bold" lengthAdjust="spacing" textLength="8.4" x="377.1" y="251.5611">10</text><text fill="#000000" font-family="sans-serif" font-size="7.8" lengthAdjust="spacing" textLength="40.2" x="387.9" y="251.5611">repositories</text><polygon fill="#181818" points="617.7,271.0934,623.7,273.4934,617.7,275.8934,620.1,273.4934" style="stroke:#181818;stroke-width:0.6;"/><line style="stroke:#181818;stroke-width:0.6;" x1="366.9" x2="621.3" y1="273.4934" y2="273.4934"/><text fill="#000000" font-family="sans-serif" font-size="7.8" font-weight="bold" lengthAdjust="spacing" textLength="8.4" x="371.1" y="270.3357">11</text><text fill="#000000" font-family="sans-serif" font-size="7.8" lengthAdjust="spacing" textLength="73.8" x="381.9" y="270.3357">getModelRepository()</text><polygon fill="#181818" points="373.5,289.868,367.5,292.268,373.5,294.668,371.1,292.268" style="stroke:#181818;stroke-width:0.6;"/><line style="stroke:#181818;stroke-width:0.6;stroke-dasharray:2.0,2.0;" x1="369.9" x2="627.3" y1="292.268" y2="292.268"/><text fill="#000000" font-family="sans-serif" font-size="7.8" font-weight="bold" lengthAdjust="spacing" textLength="8.4" x="377.1" y="289.1104">12</text><text fill="#000000" font-family="sans-serif" font-size="7.8" lengthAdjust="spacing" textLength="58.2" x="387.9" y="289.1104">modelRepository</text><line style="stroke:#181818;stroke-width:0.6;stroke-dasharray:2.0,2.0;" x1="366.9" x2="392.1" y1="314.0426" y2="314.0426"/><line style="stroke:#181818;stroke-width:0.6;stroke-dasharray:2.0,2.0;" x1="392.1" x2="392.1" y1="314.0426" y2="321.8426"/><line style="stroke:#181818;stroke-width:0.6;stroke-dasharray:2.0,2.0;" x1="363.9" x2="392.1" y1="321.8426" y2="321.8426"/><polygon fill="#181818" points="369.9,319.4426,363.9,321.8426,369.9,324.2426,367.5,321.8426" style="stroke:#181818;stroke-width:0.6;"/><text fill="#000000" font-family="sans-serif" font-size="7.8" font-weight="bold" lengthAdjust="spacing" textLength="8.4" x="371.1" y="310.885">13</text><text fill="#000000" font-family="sans-serif" font-size="7.8" lengthAdjust="spacing" textLength="58.2" x="381.9" y="310.885">modelRepository</text><polygon fill="#181818" points="859.8,335.2172,865.8,337.6172,859.8,340.0172,862.2,337.6172" style="stroke:#181818;stroke-width:0.6;"/><line style="stroke:#181818;stroke-width:0.6;" x1="363.9" x2="863.4" y1="337.6172" y2="337.6172"/><text fill="#000000" font-family="sans-serif" font-size="7.8" font-weight="bold" lengthAdjust="spacing" textLength="8.4" x="368.1" y="334.4596">14</text><text fill="#000000" font-family="sans-serif" font-size="7.8" lengthAdjust="spacing" textLength="84.6" x="378.9" y="334.4596">verifyModel(modelName)</text><line style="stroke:#181818;stroke-width:0.6;" x1="873" x2="901.2" y1="353.3918" y2="353.3918"/><line style="stroke:#181818;stroke-width:0.6;" x1="901.2" x2="901.2" y1="353.3918" y2="361.1918"/><line style="stroke:#181818;stroke-width:0.6;" x1="876.6" x2="901.2" y1="361.1918" y2="361.1918"/><polygon fill="#181818" points="882.6,358.7918,876.6,361.1918,882.6,363.5918,880.2,361.1918" style="stroke:#181818;stroke-width:0.6;"/><text fill="#000000" font-family="sans-serif" font-size="7.8" font-weight="bold" lengthAdjust="spacing" textLength="8.4" x="880.2" y="350.2342">15</text><text fill="#000000" font-family="sans-serif" font-size="7.8" lengthAdjust="spacing" textLength="84.6" x="891" y="350.2342">verifyModel(modelName)</text><line style="stroke:#181818;stroke-width:0.6;stroke-dasharray:2.0,2.0;" x1="876" x2="901.2" y1="385.9664" y2="385.9664"/><line style="stroke:#181818;stroke-width:0.6;stroke-dasharray:2.0,2.0;" x1="901.2" x2="901.2" y1="385.9664" y2="393.7664"/><line style="stroke:#181818;stroke-width:0.6;stroke-dasharray:2.0,2.0;" x1="873" x2="901.2" y1="393.7664" y2="393.7664"/><polygon fill="#181818" points="879,391.3664,873,393.7664,879,396.1664,876.6,393.7664" style="stroke:#181818;stroke-width:0.6;"/><text fill="#000000" font-family="sans-serif" font-size="7.8" font-weight="bold" lengthAdjust="spacing" textLength="8.4" x="880.2" y="382.8088">16</text><text fill="#000000" font-family="sans-serif" font-size="7.8" lengthAdjust="spacing" textLength="13.2" x="891" y="382.8088">true</text><polygon fill="#181818" points="370.5,407.141,364.5,409.541,370.5,411.941,368.1,409.541" style="stroke:#181818;stroke-width:0.6;"/><line style="stroke:#181818;stroke-width:0.6;stroke-dasharray:2.0,2.0;" x1="366.9" x2="869.4" y1="409.541" y2="409.541"/><text fill="#000000" font-family="sans-serif" font-size="7.8" font-weight="bold" lengthAdjust="spacing" textLength="8.4" x="374.1" y="406.3834">17</text><text fill="#000000" font-family="sans-serif" font-size="7.8" lengthAdjust="spacing" textLength="13.2" x="384.9" y="406.3834">true</text><polygon fill="#181818" points="212.7,425.9156,206.7,428.3156,212.7,430.7156,210.3,428.3156" style="stroke:#181818;stroke-width:0.6;"/><line style="stroke:#181818;stroke-width:0.6;stroke-dasharray:2.0,2.0;" x1="209.1" x2="360.3" y1="428.3156" y2="428.3156"/><text fill="#000000" font-family="sans-serif" font-size="7.8" font-weight="bold" lengthAdjust="spacing" textLength="8.4" x="216.3" y="425.158">18</text><text fill="#000000" font-family="sans-serif" font-size="7.8" lengthAdjust="spacing" textLength="13.2" x="227.1" y="425.158">true</text><line style="stroke:#181818;stroke-width:0.6;stroke-dasharray:2.0,2.0;" x1="206.1" x2="231.3" y1="447.0902" y2="447.0902"/><line style="stroke:#181818;stroke-width:0.6;stroke-dasharray:2.0,2.0;" x1="231.3" x2="231.3" y1="447.0902" y2="454.8902"/><line style="stroke:#181818;stroke-width:0.6;stroke-dasharray:2.0,2.0;" x1="206.7" x2="231.3" y1="454.8902" y2="454.8902"/><polygon fill="#181818" points="212.7,452.4902,206.7,454.8902,212.7,457.2902,210.3,454.8902" style="stroke:#181818;stroke-width:0.6;"/><text fill="#000000" font-family="sans-serif" font-size="7.8" font-weight="bold" lengthAdjust="spacing" textLength="8.4" x="210.3" y="443.9326">19</text><text fill="#000000" font-family="sans-serif" font-size="7.8" lengthAdjust="spacing" textLength="79.2" x="221.1" y="443.9326">keepData(modelName)</text><polygon fill="#181818" points="35.7,471.2648,29.7,473.6648,35.7,476.0648,33.3,473.6648" style="stroke:#181818;stroke-width:0.6;"/><line style="stroke:#181818;stroke-width:0.6;stroke-dasharray:2.0,2.0;" x1="32.1" x2="202.5" y1="473.6648" y2="473.6648"/><text fill="#000000" font-family="sans-serif" font-size="7.8" font-weight="bold" lengthAdjust="spacing" textLength="8.4" x="39.3" y="470.5072">20</text><text fill="#000000" font-family="sans-serif" font-size="7.8" lengthAdjust="spacing" textLength="72" x="50.1" y="470.5072">asks for confirmation</text><polygon fill="#181818" points="192.9,490.0395,198.9,492.4395,192.9,494.8395,195.3,492.4395" style="stroke:#181818;stroke-width:0.6;"/><line style="stroke:#181818;stroke-width:0.6;" x1="29.1" x2="196.5" y1="492.4395" y2="492.4395"/><text fill="#000000" font-family="sans-serif" font-size="7.8" font-weight="bold" lengthAdjust="spacing" textLength="8.4" x="33.3" y="489.2818">21</text><text fill="#000000" font-family="sans-serif" font-size="7.8" lengthAdjust="spacing" textLength="46.8" x="44.1" y="489.2818">confirms data</text><polygon fill="#181818" points="350.7,508.8141,356.7,511.2141,350.7,513.6141,353.1,511.2141" style="stroke:#181818;stroke-width:0.6;"/><line style="stroke:#181818;stroke-width:0.6;" x1="206.1" x2="354.3" y1="511.2141" y2="511.2141"/><text fill="#000000" font-family="sans-serif" font-size="7.8" font-weight="bold" lengthAdjust="spacing" textLength="8.4" x="210.3" y="508.0564">22</text><text fill="#000000" font-family="sans-serif" font-size="7.8" lengthAdjust="spacing" textLength="129.6" x="221.1" y="508.0564">addDrone(serialNumber, modelName)</text><line style="stroke:#181818;stroke-width:0.6;" x1="363.9" x2="392.1" y1="526.9887" y2="526.9887"/><line style="stroke:#181818;stroke-width:0.6;" x1="392.1" x2="392.1" y1="526.9887" y2="534.7887"/><line style="stroke:#181818;stroke-width:0.6;" x1="367.5" x2="392.1" y1="534.7887" y2="534.7887"/><polygon fill="#181818" points="373.5,532.3887,367.5,534.7887,373.5,537.1887,371.1,534.7887" style="stroke:#181818;stroke-width:0.6;"/><text fill="#000000" font-family="sans-serif" font-size="7.8" font-weight="bold" lengthAdjust="spacing" textLength="8.4" x="371.1" y="523.8311">23</text><text fill="#000000" font-family="sans-serif" font-size="7.8" lengthAdjust="spacing" textLength="73.2" x="381.9" y="523.8311">getDroneRepository()</text><polygon fill="#181818" points="456.3,554.1633,462.3,556.5633,456.3,558.9633,458.7,556.5633" style="stroke:#181818;stroke-width:0.6;"/><line style="stroke:#181818;stroke-width:0.6;" x1="366.9" x2="459.9" y1="556.5633" y2="556.5633"/><text fill="#000000" font-family="sans-serif" font-size="7.8" font-weight="bold" lengthAdjust="spacing" textLength="8.4" x="371.1" y="553.4057">24</text><text fill="#000000" font-family="sans-serif" font-size="7.8" lengthAdjust="spacing" textLength="74.4" x="381.9" y="553.4057">getRepositoryFactory</text><polygon fill="#181818" points="373.5,572.9379,367.5,575.3379,373.5,577.7379,371.1,575.3379" style="stroke:#181818;stroke-width:0.6;"/><line style="stroke:#181818;stroke-width:0.6;stroke-dasharray:2.0,2.0;" x1="369.9" x2="465.9" y1="575.3379" y2="575.3379"/><text fill="#000000" font-family="sans-serif" font-size="7.8" font-weight="bold" lengthAdjust="spacing" textLength="8.4" x="377.1" y="572.1803">25</text><text fill="#000000" font-family="sans-serif" font-size="7.8" lengthAdjust="spacing" textLength="60.6" x="387.9" y="572.1803">repositoryFactory</text><polygon fill="#181818" points="530.1,591.7125,536.1,594.1125,530.1,596.5125,532.5,594.1125" style="stroke:#181818;stroke-width:0.6;"/><line style="stroke:#181818;stroke-width:0.6;" x1="366.9" x2="533.7" y1="594.1125" y2="594.1125"/><text fill="#000000" font-family="sans-serif" font-size="7.8" font-weight="bold" lengthAdjust="spacing" textLength="8.4" x="371.1" y="590.9549">26</text><text fill="#000000" font-family="sans-serif" font-size="7.8" lengthAdjust="spacing" textLength="45" x="381.9" y="590.9549">getInstance()</text><polygon fill="#181818" points="373.5,610.4871,367.5,612.8871,373.5,615.2871,371.1,612.8871" style="stroke:#181818;stroke-width:0.6;"/><line style="stroke:#181818;stroke-width:0.6;stroke-dasharray:2.0,2.0;" x1="369.9" x2="539.7" y1="612.8871" y2="612.8871"/><text fill="#000000" font-family="sans-serif" font-size="7.8" font-weight="bold" lengthAdjust="spacing" textLength="8.4" x="377.1" y="609.7295">27</text><text fill="#000000" font-family="sans-serif" font-size="7.8" lengthAdjust="spacing" textLength="40.2" x="387.9" y="609.7295">repositories</text><polygon fill="#181818" points="617.7,629.2617,623.7,631.6617,617.7,634.0617,620.1,631.6617" style="stroke:#181818;stroke-width:0.6;"/><line style="stroke:#181818;stroke-width:0.6;" x1="366.9" x2="621.3" y1="631.6617" y2="631.6617"/><text fill="#000000" font-family="sans-serif" font-size="7.8" font-weight="bold" lengthAdjust="spacing" textLength="8.4" x="371.1" y="628.5041">28</text><text fill="#000000" font-family="sans-serif" font-size="7.8" lengthAdjust="spacing" textLength="73.2" x="381.9" y="628.5041">getDroneRepository()</text><polygon fill="#181818" points="373.5,648.0363,367.5,650.4363,373.5,652.8363,371.1,650.4363" style="stroke:#181818;stroke-width:0.6;"/><line style="stroke:#181818;stroke-width:0.6;stroke-dasharray:2.0,2.0;" x1="369.9" x2="627.3" y1="650.4363" y2="650.4363"/><text fill="#000000" font-family="sans-serif" font-size="7.8" font-weight="bold" lengthAdjust="spacing" textLength="8.4" x="377.1" y="647.2787">29</text><text fill="#000000" font-family="sans-serif" font-size="7.8" lengthAdjust="spacing" textLength="56.4" x="387.9" y="647.2787">droneRepository</text><line style="stroke:#181818;stroke-width:0.6;stroke-dasharray:2.0,2.0;" x1="366.9" x2="392.1" y1="672.2109" y2="672.2109"/><line style="stroke:#181818;stroke-width:0.6;stroke-dasharray:2.0,2.0;" x1="392.1" x2="392.1" y1="672.2109" y2="680.0109"/><line style="stroke:#181818;stroke-width:0.6;stroke-dasharray:2.0,2.0;" x1="363.9" x2="392.1" y1="680.0109" y2="680.0109"/><polygon fill="#181818" points="369.9,677.6109,363.9,680.0109,369.9,682.4109,367.5,680.0109" style="stroke:#181818;stroke-width:0.6;"/><text fill="#000000" font-family="sans-serif" font-size="7.8" font-weight="bold" lengthAdjust="spacing" textLength="8.4" x="371.1" y="669.0533">30</text><text fill="#000000" font-family="sans-serif" font-size="7.8" lengthAdjust="spacing" textLength="56.4" x="381.9" y="669.0533">droneRepository</text><polygon fill="#181818" points="702.6,693.3855,708.6,695.7855,702.6,698.1855,705,695.7855" style="stroke:#181818;stroke-width:0.6;"/><line style="stroke:#181818;stroke-width:0.6;" x1="363.9" x2="706.2" y1="695.7855" y2="695.7855"/><text fill="#000000" font-family="sans-serif" font-size="7.8" font-weight="bold" lengthAdjust="spacing" textLength="8.4" x="368.1" y="692.6279">31</text><text fill="#000000" font-family="sans-serif" font-size="7.8" lengthAdjust="spacing" textLength="127.2" x="378.9" y="692.6279">addDrone(serialNumbe, modelName)</text><line style="stroke:#181818;stroke-width:0.6;" x1="715.8" x2="744" y1="711.5602" y2="711.5602"/><line style="stroke:#181818;stroke-width:0.6;" x1="744" x2="744" y1="711.5602" y2="719.3602"/><line style="stroke:#181818;stroke-width:0.6;" x1="719.4" x2="744" y1="719.3602" y2="719.3602"/><polygon fill="#181818" points="725.4,716.9602,719.4,719.3602,725.4,721.7602,723,719.3602" style="stroke:#181818;stroke-width:0.6;"/><text fill="#000000" font-family="sans-serif" font-size="7.8" font-weight="bold" lengthAdjust="spacing" textLength="8.4" x="723" y="708.4025">32</text><text fill="#000000" font-family="sans-serif" font-size="7.8" lengthAdjust="spacing" textLength="132" x="733.8" y="708.4025">addDrone (serialNumber, modelName)</text><line style="stroke:#181818;stroke-width:0.6;" x1="718.8" x2="747" y1="738.1348" y2="738.1348"/><line style="stroke:#181818;stroke-width:0.6;" x1="747" x2="747" y1="738.1348" y2="745.9348"/><line style="stroke:#181818;stroke-width:0.6;" x1="722.4" x2="747" y1="745.9348" y2="745.9348"/><polygon fill="#181818" points="728.4,743.5348,722.4,745.9348,728.4,748.3348,726,745.9348" style="stroke:#181818;stroke-width:0.6;"/><text fill="#000000" font-family="sans-serif" font-size="7.8" font-weight="bold" lengthAdjust="spacing" textLength="8.4" x="726" y="734.9771">33</text><text fill="#000000" font-family="sans-serif" font-size="7.8" lengthAdjust="spacing" textLength="96.6" x="736.8" y="734.9771">validateDrone(serialNumber)</text><line style="stroke:#181818;stroke-width:0.6;stroke-dasharray:2.0,2.0;" x1="721.8" x2="747" y1="770.7094" y2="770.7094"/><line style="stroke:#181818;stroke-width:0.6;stroke-dasharray:2.0,2.0;" x1="747" x2="747" y1="770.7094" y2="778.5094"/><line style="stroke:#181818;stroke-width:0.6;stroke-dasharray:2.0,2.0;" x1="718.8" x2="747" y1="778.5094" y2="778.5094"/><polygon fill="#181818" points="724.8,776.1094,718.8,778.5094,724.8,780.9094,722.4,778.5094" style="stroke:#181818;stroke-width:0.6;"/><text fill="#000000" font-family="sans-serif" font-size="7.8" font-weight="bold" lengthAdjust="spacing" textLength="8.4" x="726" y="767.5518">34</text><text fill="#000000" font-family="sans-serif" font-size="7.8" lengthAdjust="spacing" textLength="13.2" x="736.8" y="767.5518">true</text><line style="stroke:#181818;stroke-width:0.6;stroke-dasharray:2.0,2.0;" x1="718.8" x2="744" y1="797.284" y2="797.284"/><line style="stroke:#181818;stroke-width:0.6;stroke-dasharray:2.0,2.0;" x1="744" x2="744" y1="797.284" y2="805.084"/><line style="stroke:#181818;stroke-width:0.6;stroke-dasharray:2.0,2.0;" x1="715.8" x2="744" y1="805.084" y2="805.084"/><polygon fill="#181818" points="721.8,802.684,715.8,805.084,721.8,807.484,719.4,805.084" style="stroke:#181818;stroke-width:0.6;"/><text fill="#000000" font-family="sans-serif" font-size="7.8" font-weight="bold" lengthAdjust="spacing" textLength="8.4" x="723" y="794.1264">35</text><text fill="#000000" font-family="sans-serif" font-size="7.8" lengthAdjust="spacing" textLength="13.2" x="733.8" y="794.1264">true</text><polygon fill="#181818" points="370.5,818.4586,364.5,820.8586,370.5,823.2586,368.1,820.8586" style="stroke:#181818;stroke-width:0.6;"/><line style="stroke:#181818;stroke-width:0.6;stroke-dasharray:2.0,2.0;" x1="366.9" x2="712.2" y1="820.8586" y2="820.8586"/><text fill="#000000" font-family="sans-serif" font-size="7.8" font-weight="bold" lengthAdjust="spacing" textLength="8.4" x="374.1" y="817.701">36</text><text fill="#000000" font-family="sans-serif" font-size="7.8" lengthAdjust="spacing" textLength="13.2" x="384.9" y="817.701">true</text><polygon fill="#181818" points="212.7,837.2332,206.7,839.6332,212.7,842.0332,210.3,839.6332" style="stroke:#181818;stroke-width:0.6;"/><line style="stroke:#181818;stroke-width:0.6;stroke-dasharray:2.0,2.0;" x1="209.1" x2="360.3" y1="839.6332" y2="839.6332"/><text fill="#000000" font-family="sans-serif" font-size="7.8" font-weight="bold" lengthAdjust="spacing" textLength="8.4" x="216.3" y="836.4756">37</text><text fill="#000000" font-family="sans-serif" font-size="7.8" lengthAdjust="spacing" textLength="13.2" x="227.1" y="836.4756">true</text><polygon fill="#181818" points="32.7,856.0078,26.7,858.4078,32.7,860.8078,30.3,858.4078" style="stroke:#181818;stroke-width:0.6;"/><line style="stroke:#181818;stroke-width:0.6;stroke-dasharray:2.0,2.0;" x1="29.1" x2="202.5" y1="858.4078" y2="858.4078"/><text fill="#000000" font-family="sans-serif" font-size="7.8" font-weight="bold" lengthAdjust="spacing" textLength="8.4" x="36.3" y="855.2502">38</text><text fill="#000000" font-family="sans-serif" font-size="7.8" lengthAdjust="spacing" textLength="94.8" x="47.1" y="855.2502">displays success message</text><!--SRC=[hLTDZzem4BtxLrXxAKZb3t10gZQqGc9P1DbRfPKt6S0YiLFRKF7lwpZaoucTx9OS4CJptZoFPrx2DtccB2E2f3ZbZ4SdmLF0Ibm0rIiPYSxa27jrIm0BY1HXnwGP84yavdyfE-83IIGWH2wAiqlw0K9_ZnGN-2aGd448qUa94uc346ceeX7D25FuQVuZZat4sygilwqSwy-SAS6J18I9UmvtQojo2q9IgO15O4AsoztU2jb1nYNLicu_ZRgR2TmjjwzsfB0ZVxEv3_w-Nsr-hPVXwwPD5EVQQvnc2TftYghiDkyvJHkRyXYI5lQbVSTWNu9rWSqBJgz4GLva58Hujj3bn7DzSdyk89N4YcCInvXWeoh_gKw0ARi2o-bg0dqAM5yQFTCaccgkCvqbFkW3pI45NeAW9C75UMF2OcmK6sX-nM0JDaJ9oqTAjQQOA6BM7CbDy1aW2tJWf4YvCHcdg8fRc7xGWLUzVhYPCasCc0r9OThcDwsJtp6O2di4PPLtCgssqazGNYLHtd5QX6RgT4ehtdTLMKpxZaMPpBEw3kBB-Hk7rb5GxjDqVB7H5PFQ5I9mrQgOBJj9GT2dbu943Za5bLjGFOA5j96dQOzlhzO6TqErDQ1UuOuCnGvcYyynTbguD86H8r1vHdwtmZwCfqra7YhM1jp0Uo46GMNX2eFe2w-ArEiaZIsvlIxYx415IXJb30rQsZrwmDEgBPBxawrbQj_ne6trMfVrL6aqkv_W4PRrVzRrU0iRih9nDkQni77svROkhssDE4cVeNZiodeNGP-mAikcHZ0v7vBbkuvZ0Ze3qDbzzR9KBLUK3VgQ7Vi7p9-Zhw_wqrr9GlNWGtUcfyWxBTvSxNpjybMcvsdyRh6-pDp7wYIpRNnGraW_HqsVZgdC4dAJ-cKoYa1AdEeF_OS5jMswcJT4_m00]--></g></svg>