<?xml version="1.0" encoding="UTF-8" standalone="no"?><svg xmlns="http://www.w3.org/2000/svg" xmlns:xlink="http://www.w3.org/1999/xlink" contentStyleType="text/css" height="1609px" preserveAspectRatio="none" style="width:2247px;height:1609px;background:#FFFFFF;" version="1.1" viewBox="0 0 2247 1609" width="2247px" zoomAndPan="magnify"><defs/><g><rect fill="#FFFFFF" height="1401.3125" style="stroke:#181818;stroke-width:1.0;" width="10" x="51" y="100.1563"/><rect fill="#FFFFFF" height="39.1563" style="stroke:#181818;stroke-width:1.0;" width="10" x="535" y="131.3125"/><rect fill="#FFFFFF" height="430.7188" style="stroke:#181818;stroke-width:1.0;" width="10" x="535" y="209.625"/><rect fill="#FFFFFF" height="39.1563" style="stroke:#181818;stroke-width:1.0;" width="10" x="535" y="679.5"/><rect fill="#FFFFFF" height="743.6563" style="stroke:#181818;stroke-width:1.0;" width="10" x="535" y="757.8125"/><rect fill="#FFFFFF" height="352.4063" style="stroke:#181818;stroke-width:1.0;" width="10" x="945" y="248.7813"/><rect fill="#FFFFFF" height="665.3438" style="stroke:#181818;stroke-width:1.0;" width="10" x="945" y="796.9688"/><rect fill="#FFFFFF" height="285.0938" style="stroke:#181818;stroke-width:1.0;" width="10" x="950" y="844.125"/><rect fill="#FFFFFF" height="39.1563" style="stroke:#181818;stroke-width:1.0;" width="10" x="1195" y="287.9375"/><rect fill="#FFFFFF" height="39.1563" style="stroke:#181818;stroke-width:1.0;" width="10" x="1195" y="888.2813"/><rect fill="#FFFFFF" height="39.1563" style="stroke:#181818;stroke-width:1.0;" width="10" x="1357.5" y="366.25"/><rect fill="#FFFFFF" height="39.1563" style="stroke:#181818;stroke-width:1.0;" width="10" x="1357.5" y="966.5938"/><rect fill="#FFFFFF" height="39.1563" style="stroke:#181818;stroke-width:1.0;" width="10" x="1552.5" y="444.5625"/><rect fill="#FFFFFF" height="39.1563" style="stroke:#181818;stroke-width:1.0;" width="10" x="1552.5" y="1044.9063"/><rect fill="#FFFFFF" height="247.7813" style="stroke:#181818;stroke-width:1.0;" width="10" x="1740.5" y="1175.375"/><rect fill="#FFFFFF" height="154.4688" style="stroke:#181818;stroke-width:1.0;" width="10" x="1745.5" y="1222.5313"/><rect fill="#FFFFFF" height="50.1563" style="stroke:#181818;stroke-width:1.0;" width="10" x="1750.5" y="1274.6875"/><rect fill="#FFFFFF" height="39.1563" style="stroke:#181818;stroke-width:1.0;" width="10" x="2151.5" y="522.875"/><line style="stroke:#181818;stroke-width:0.5;stroke-dasharray:5.0,5.0;" x1="56" x2="56" y1="90.1563" y2="1519.4688"/><line style="stroke:#181818;stroke-width:0.5;stroke-dasharray:5.0,5.0;" x1="539.5" x2="539.5" y1="90.1563" y2="1519.4688"/><line style="stroke:#181818;stroke-width:0.5;stroke-dasharray:5.0,5.0;" x1="949.5" x2="949.5" y1="90.1563" y2="1519.4688"/><line style="stroke:#181818;stroke-width:0.5;stroke-dasharray:5.0,5.0;" x1="1199.5" x2="1199.5" y1="90.1563" y2="1519.4688"/><line style="stroke:#181818;stroke-width:0.5;stroke-dasharray:5.0,5.0;" x1="1362.5" x2="1362.5" y1="90.1563" y2="1519.4688"/><line style="stroke:#181818;stroke-width:0.5;stroke-dasharray:5.0,5.0;" x1="1557.5" x2="1557.5" y1="90.1563" y2="1519.4688"/><line style="stroke:#181818;stroke-width:0.5;stroke-dasharray:5.0,5.0;" x1="1745.5" x2="1745.5" y1="90.1563" y2="1519.4688"/><line style="stroke:#181818;stroke-width:0.5;stroke-dasharray:5.0,5.0;" x1="2156" x2="2156" y1="90.1563" y2="1519.4688"/><text fill="#000000" font-family="sans-serif" font-size="20" lengthAdjust="spacing" textLength="96" x="5" y="85.7617">DroneTech</text><ellipse cx="56" cy="13.5" fill="#E2E2F0" rx="8" ry="8" style="stroke:#181818;stroke-width:0.5;"/><path d="M56,21.5 L56,48.5 M43,29.5 L69,29.5 M56,48.5 L43,63.5 M56,48.5 L69,63.5 " fill="none" style="stroke:#181818;stroke-width:0.5;"/><text fill="#000000" font-family="sans-serif" font-size="20" lengthAdjust="spacing" textLength="96" x="5" y="1539.2305">DroneTech</text><ellipse cx="56" cy="1552.125" fill="#E2E2F0" rx="8" ry="8" style="stroke:#181818;stroke-width:0.5;"/><path d="M56,1560.125 L56,1587.125 M43,1568.125 L69,1568.125 M56,1587.125 L43,1602.125 M56,1587.125 L69,1602.125 " fill="none" style="stroke:#181818;stroke-width:0.5;"/><rect fill="#E2E2F0" height="39.1563" rx="2.5" ry="2.5" style="stroke:#181818;stroke-width:0.5;" width="127" x="476.5" y="50"/><text fill="#000000" font-family="sans-serif" font-size="20" lengthAdjust="spacing" textLength="113" x="483.5" y="77.7617">:AddDroneUI</text><rect fill="#E2E2F0" height="39.1563" rx="2.5" ry="2.5" style="stroke:#181818;stroke-width:0.5;" width="127" x="476.5" y="1518.4688"/><text fill="#000000" font-family="sans-serif" font-size="20" lengthAdjust="spacing" textLength="113" x="483.5" y="1546.2305">:AddDroneUI</text><rect fill="#E2E2F0" height="39.1563" rx="2.5" ry="2.5" style="stroke:#181818;stroke-width:0.5;" width="193" x="853.5" y="50"/><text fill="#000000" font-family="sans-serif" font-size="20" lengthAdjust="spacing" textLength="179" x="860.5" y="77.7617">:AddDroneController</text><rect fill="#E2E2F0" height="39.1563" rx="2.5" ry="2.5" style="stroke:#181818;stroke-width:0.5;" width="193" x="853.5" y="1518.4688"/><text fill="#000000" font-family="sans-serif" font-size="20" lengthAdjust="spacing" textLength="179" x="860.5" y="1546.2305">:AddDroneController</text><rect fill="#E2E2F0" height="39.1563" rx="2.5" ry="2.5" style="stroke:#181818;stroke-width:0.5;" width="123" x="1138.5" y="50"/><text fill="#000000" font-family="sans-serif" font-size="20" lengthAdjust="spacing" textLength="109" x="1145.5" y="77.7617">:Persistence</text><rect fill="#E2E2F0" height="39.1563" rx="2.5" ry="2.5" style="stroke:#181818;stroke-width:0.5;" width="123" x="1138.5" y="1518.4688"/><text fill="#000000" font-family="sans-serif" font-size="20" lengthAdjust="spacing" textLength="109" x="1145.5" y="1546.2305">:Persistence</text><rect fill="#E2E2F0" height="39.1563" rx="2.5" ry="2.5" style="stroke:#181818;stroke-width:0.5;" width="182" x="1271.5" y="50"/><text fill="#000000" font-family="sans-serif" font-size="20" lengthAdjust="spacing" textLength="168" x="1278.5" y="77.7617">:RepositoryFactory</text><rect fill="#E2E2F0" height="39.1563" rx="2.5" ry="2.5" style="stroke:#181818;stroke-width:0.5;" width="182" x="1271.5" y="1518.4688"/><text fill="#000000" font-family="sans-serif" font-size="20" lengthAdjust="spacing" textLength="168" x="1278.5" y="1546.2305">:RepositoryFactory</text><rect fill="#E2E2F0" height="64.3125" rx="2.5" ry="2.5" style="stroke:#181818;stroke-width:0.5;" width="188" x="1463.5" y="24.8438"/><text fill="#000000" font-family="sans-serif" font-size="20" lengthAdjust="spacing" textLength="161" x="1477" y="52.6055">:repositoryFactory</text><text fill="#000000" font-family="sans-serif" font-size="20" lengthAdjust="spacing" textLength="174" x="1470.5" y="77.7617">::RepositoryFactory</text><rect fill="#E2E2F0" height="64.3125" rx="2.5" ry="2.5" style="stroke:#181818;stroke-width:0.5;" width="188" x="1463.5" y="1518.4688"/><text fill="#000000" font-family="sans-serif" font-size="20" lengthAdjust="spacing" textLength="161" x="1477" y="1546.2305">:repositoryFactory</text><text fill="#000000" font-family="sans-serif" font-size="20" lengthAdjust="spacing" textLength="174" x="1470.5" y="1571.3867">::RepositoryFactory</text><rect fill="#E2E2F0" height="64.3125" rx="2.5" ry="2.5" style="stroke:#181818;stroke-width:0.5;" width="168" x="1661.5" y="24.8438"/><text fill="#000000" font-family="sans-serif" font-size="20" lengthAdjust="spacing" textLength="145" x="1673" y="52.6055">droneRepository</text><text fill="#000000" font-family="sans-serif" font-size="20" lengthAdjust="spacing" textLength="154" x="1668.5" y="77.7617">:DroneRepository</text><rect fill="#E2E2F0" height="64.3125" rx="2.5" ry="2.5" style="stroke:#181818;stroke-width:0.5;" width="168" x="1661.5" y="1518.4688"/><text fill="#000000" font-family="sans-serif" font-size="20" lengthAdjust="spacing" textLength="145" x="1673" y="1546.2305">droneRepository</text><text fill="#000000" font-family="sans-serif" font-size="20" lengthAdjust="spacing" textLength="154" x="1668.5" y="1571.3867">:DroneRepository</text><rect fill="#E2E2F0" height="64.3125" rx="2.5" ry="2.5" style="stroke:#181818;stroke-width:0.5;" width="169" x="2072" y="24.8438"/><text fill="#000000" font-family="sans-serif" font-size="20" lengthAdjust="spacing" textLength="148" x="2082.5" y="52.6055">modelRepository</text><text fill="#000000" font-family="sans-serif" font-size="20" lengthAdjust="spacing" textLength="155" x="2079" y="77.7617">:ModelRepository</text><rect fill="#E2E2F0" height="64.3125" rx="2.5" ry="2.5" style="stroke:#181818;stroke-width:0.5;" width="169" x="2072" y="1518.4688"/><text fill="#000000" font-family="sans-serif" font-size="20" lengthAdjust="spacing" textLength="148" x="2082.5" y="1546.2305">modelRepository</text><text fill="#000000" font-family="sans-serif" font-size="20" lengthAdjust="spacing" textLength="155" x="2079" y="1571.3867">:ModelRepository</text><rect fill="#FFFFFF" height="1401.3125" style="stroke:#181818;stroke-width:1.0;" width="10" x="51" y="100.1563"/><rect fill="#FFFFFF" height="39.1563" style="stroke:#181818;stroke-width:1.0;" width="10" x="535" y="131.3125"/><rect fill="#FFFFFF" height="430.7188" style="stroke:#181818;stroke-width:1.0;" width="10" x="535" y="209.625"/><rect fill="#FFFFFF" height="39.1563" style="stroke:#181818;stroke-width:1.0;" width="10" x="535" y="679.5"/><rect fill="#FFFFFF" height="743.6563" style="stroke:#181818;stroke-width:1.0;" width="10" x="535" y="757.8125"/><rect fill="#FFFFFF" height="352.4063" style="stroke:#181818;stroke-width:1.0;" width="10" x="945" y="248.7813"/><rect fill="#FFFFFF" height="665.3438" style="stroke:#181818;stroke-width:1.0;" width="10" x="945" y="796.9688"/><rect fill="#FFFFFF" height="285.0938" style="stroke:#181818;stroke-width:1.0;" width="10" x="950" y="844.125"/><rect fill="#FFFFFF" height="39.1563" style="stroke:#181818;stroke-width:1.0;" width="10" x="1195" y="287.9375"/><rect fill="#FFFFFF" height="39.1563" style="stroke:#181818;stroke-width:1.0;" width="10" x="1195" y="888.2813"/><rect fill="#FFFFFF" height="39.1563" style="stroke:#181818;stroke-width:1.0;" width="10" x="1357.5" y="366.25"/><rect fill="#FFFFFF" height="39.1563" style="stroke:#181818;stroke-width:1.0;" width="10" x="1357.5" y="966.5938"/><rect fill="#FFFFFF" height="39.1563" style="stroke:#181818;stroke-width:1.0;" width="10" x="1552.5" y="444.5625"/><rect fill="#FFFFFF" height="39.1563" style="stroke:#181818;stroke-width:1.0;" width="10" x="1552.5" y="1044.9063"/><rect fill="#FFFFFF" height="247.7813" style="stroke:#181818;stroke-width:1.0;" width="10" x="1740.5" y="1175.375"/><rect fill="#FFFFFF" height="154.4688" style="stroke:#181818;stroke-width:1.0;" width="10" x="1745.5" y="1222.5313"/><rect fill="#FFFFFF" height="50.1563" style="stroke:#181818;stroke-width:1.0;" width="10" x="1750.5" y="1274.6875"/><rect fill="#FFFFFF" height="39.1563" style="stroke:#181818;stroke-width:1.0;" width="10" x="2151.5" y="522.875"/><polygon fill="#181818" points="523,127.3125,533,131.3125,523,135.3125,527,131.3125" style="stroke:#181818;stroke-width:1.0;"/><line style="stroke:#181818;stroke-width:1.0;" x1="61" x2="529" y1="131.3125" y2="131.3125"/><text fill="#000000" font-family="sans-serif" font-size="20" font-weight="bold" lengthAdjust="spacing" textLength="11" x="68" y="124.918">1</text><text fill="#000000" font-family="sans-serif" font-size="20" lengthAdjust="spacing" textLength="351" x="83" y="124.918">requests to add a drone to the inventory</text><polygon fill="#181818" points="72,166.4688,62,170.4688,72,174.4688,68,170.4688" style="stroke:#181818;stroke-width:1.0;"/><line style="stroke:#181818;stroke-width:1.0;stroke-dasharray:2.0,2.0;" x1="66" x2="539" y1="170.4688" y2="170.4688"/><text fill="#000000" font-family="sans-serif" font-size="20" font-weight="bold" lengthAdjust="spacing" textLength="11" x="78" y="164.0742">2</text><text fill="#000000" font-family="sans-serif" font-size="20" lengthAdjust="spacing" textLength="284" x="93" y="164.0742">asks for the drone serial number</text><polygon fill="#181818" points="523,205.625,533,209.625,523,213.625,527,209.625" style="stroke:#181818;stroke-width:1.0;"/><line style="stroke:#181818;stroke-width:1.0;" x1="61" x2="529" y1="209.625" y2="209.625"/><text fill="#000000" font-family="sans-serif" font-size="20" font-weight="bold" lengthAdjust="spacing" textLength="11" x="68" y="203.2305">3</text><text fill="#000000" font-family="sans-serif" font-size="20" lengthAdjust="spacing" textLength="112" x="83" y="203.2305">submits data</text><polygon fill="#181818" points="933,244.7813,943,248.7813,933,252.7813,937,248.7813" style="stroke:#181818;stroke-width:1.0;"/><line style="stroke:#181818;stroke-width:1.0;" x1="545" x2="939" y1="248.7813" y2="248.7813"/><text fill="#000000" font-family="sans-serif" font-size="20" font-weight="bold" lengthAdjust="spacing" textLength="11" x="552" y="242.3867">4</text><text fill="#000000" font-family="sans-serif" font-size="20" lengthAdjust="spacing" textLength="102" x="567" y="242.3867">listModels()</text><polygon fill="#181818" points="1183,283.9375,1193,287.9375,1183,291.9375,1187,287.9375" style="stroke:#181818;stroke-width:1.0;"/><line style="stroke:#181818;stroke-width:1.0;" x1="955" x2="1189" y1="287.9375" y2="287.9375"/><text fill="#000000" font-family="sans-serif" font-size="20" font-weight="bold" lengthAdjust="spacing" textLength="11" x="962" y="281.543">5</text><text fill="#000000" font-family="sans-serif" font-size="20" lengthAdjust="spacing" textLength="190" x="977" y="281.543">getRepositoryFactory</text><polygon fill="#181818" points="966,323.0938,956,327.0938,966,331.0938,962,327.0938" style="stroke:#181818;stroke-width:1.0;"/><line style="stroke:#181818;stroke-width:1.0;stroke-dasharray:2.0,2.0;" x1="960" x2="1199" y1="327.0938" y2="327.0938"/><text fill="#000000" font-family="sans-serif" font-size="20" font-weight="bold" lengthAdjust="spacing" textLength="11" x="972" y="320.6992">6</text><text fill="#000000" font-family="sans-serif" font-size="20" lengthAdjust="spacing" textLength="155" x="987" y="320.6992">repositoryFactory</text><polygon fill="#181818" points="1345.5,362.25,1355.5,366.25,1345.5,370.25,1349.5,366.25" style="stroke:#181818;stroke-width:1.0;"/><line style="stroke:#181818;stroke-width:1.0;" x1="955" x2="1351.5" y1="366.25" y2="366.25"/><text fill="#000000" font-family="sans-serif" font-size="20" font-weight="bold" lengthAdjust="spacing" textLength="11" x="962" y="359.8555">7</text><text fill="#000000" font-family="sans-serif" font-size="20" lengthAdjust="spacing" textLength="116" x="977" y="359.8555">getInstance()</text><polygon fill="#181818" points="966,401.4063,956,405.4063,966,409.4063,962,405.4063" style="stroke:#181818;stroke-width:1.0;"/><line style="stroke:#181818;stroke-width:1.0;stroke-dasharray:2.0,2.0;" x1="960" x2="1361.5" y1="405.4063" y2="405.4063"/><text fill="#000000" font-family="sans-serif" font-size="20" font-weight="bold" lengthAdjust="spacing" textLength="11" x="972" y="399.0117">8</text><text fill="#000000" font-family="sans-serif" font-size="20" lengthAdjust="spacing" textLength="103" x="987" y="399.0117">repositories</text><polygon fill="#181818" points="1540.5,440.5625,1550.5,444.5625,1540.5,448.5625,1544.5,444.5625" style="stroke:#181818;stroke-width:1.0;"/><line style="stroke:#181818;stroke-width:1.0;" x1="955" x2="1546.5" y1="444.5625" y2="444.5625"/><text fill="#000000" font-family="sans-serif" font-size="20" font-weight="bold" lengthAdjust="spacing" textLength="11" x="962" y="438.168">9</text><text fill="#000000" font-family="sans-serif" font-size="20" lengthAdjust="spacing" textLength="191" x="977" y="438.168">getModelRepository()</text><polygon fill="#181818" points="966,479.7188,956,483.7188,966,487.7188,962,483.7188" style="stroke:#181818;stroke-width:1.0;"/><line style="stroke:#181818;stroke-width:1.0;stroke-dasharray:2.0,2.0;" x1="960" x2="1556.5" y1="483.7188" y2="483.7188"/><text fill="#000000" font-family="sans-serif" font-size="20" font-weight="bold" lengthAdjust="spacing" textLength="22" x="972" y="477.3242">10</text><text fill="#000000" font-family="sans-serif" font-size="20" lengthAdjust="spacing" textLength="148" x="998" y="477.3242">modelRepository</text><polygon fill="#181818" points="2139.5,518.875,2149.5,522.875,2139.5,526.875,2143.5,522.875" style="stroke:#181818;stroke-width:1.0;"/><line style="stroke:#181818;stroke-width:1.0;" x1="955" x2="2145.5" y1="522.875" y2="522.875"/><text fill="#000000" font-family="sans-serif" font-size="20" font-weight="bold" lengthAdjust="spacing" textLength="22" x="962" y="516.4805">11</text><text fill="#000000" font-family="sans-serif" font-size="20" lengthAdjust="spacing" textLength="102" x="988" y="516.4805">listModels()</text><polygon fill="#181818" points="966,558.0313,956,562.0313,966,566.0313,962,562.0313" style="stroke:#181818;stroke-width:1.0;"/><line style="stroke:#181818;stroke-width:1.0;stroke-dasharray:2.0,2.0;" x1="960" x2="2155.5" y1="562.0313" y2="562.0313"/><text fill="#000000" font-family="sans-serif" font-size="20" font-weight="bold" lengthAdjust="spacing" textLength="22" x="972" y="555.6367">12</text><text fill="#000000" font-family="sans-serif" font-size="20" lengthAdjust="spacing" textLength="84" x="998" y="555.6367">modelList</text><polygon fill="#181818" points="556,597.1875,546,601.1875,556,605.1875,552,601.1875" style="stroke:#181818;stroke-width:1.0;"/><line style="stroke:#181818;stroke-width:1.0;stroke-dasharray:2.0,2.0;" x1="550" x2="949" y1="601.1875" y2="601.1875"/><text fill="#000000" font-family="sans-serif" font-size="20" font-weight="bold" lengthAdjust="spacing" textLength="22" x="562" y="594.793">13</text><text fill="#000000" font-family="sans-serif" font-size="20" lengthAdjust="spacing" textLength="84" x="588" y="594.793">modelList</text><polygon fill="#181818" points="72,636.3438,62,640.3438,72,644.3438,68,640.3438" style="stroke:#181818;stroke-width:1.0;"/><line style="stroke:#181818;stroke-width:1.0;stroke-dasharray:2.0,2.0;" x1="66" x2="539" y1="640.3438" y2="640.3438"/><text fill="#000000" font-family="sans-serif" font-size="20" font-weight="bold" lengthAdjust="spacing" textLength="22" x="78" y="633.9492">14</text><text fill="#000000" font-family="sans-serif" font-size="20" lengthAdjust="spacing" textLength="424" x="104" y="633.9492">shows a list of all models and asks to select one</text><polygon fill="#181818" points="523,675.5,533,679.5,523,683.5,527,679.5" style="stroke:#181818;stroke-width:1.0;"/><line style="stroke:#181818;stroke-width:1.0;" x1="61" x2="529" y1="679.5" y2="679.5"/><text fill="#000000" font-family="sans-serif" font-size="20" font-weight="bold" lengthAdjust="spacing" textLength="22" x="68" y="673.1055">15</text><text fill="#000000" font-family="sans-serif" font-size="20" lengthAdjust="spacing" textLength="100" x="94" y="673.1055">selects one</text><polygon fill="#181818" points="72,714.6563,62,718.6563,72,722.6563,68,718.6563" style="stroke:#181818;stroke-width:1.0;"/><line style="stroke:#181818;stroke-width:1.0;stroke-dasharray:2.0,2.0;" x1="66" x2="539" y1="718.6563" y2="718.6563"/><text fill="#000000" font-family="sans-serif" font-size="20" font-weight="bold" lengthAdjust="spacing" textLength="22" x="78" y="712.2617">16</text><text fill="#000000" font-family="sans-serif" font-size="20" lengthAdjust="spacing" textLength="315" x="104" y="712.2617">shows all data asks for confirmation</text><polygon fill="#181818" points="523,753.8125,533,757.8125,523,761.8125,527,757.8125" style="stroke:#181818;stroke-width:1.0;"/><line style="stroke:#181818;stroke-width:1.0;" x1="61" x2="529" y1="757.8125" y2="757.8125"/><text fill="#000000" font-family="sans-serif" font-size="20" font-weight="bold" lengthAdjust="spacing" textLength="22" x="68" y="751.418">17</text><text fill="#000000" font-family="sans-serif" font-size="20" lengthAdjust="spacing" textLength="119" x="94" y="751.418">confirms data</text><polygon fill="#181818" points="933,792.9688,943,796.9688,933,800.9688,937,796.9688" style="stroke:#181818;stroke-width:1.0;"/><line style="stroke:#181818;stroke-width:1.0;" x1="545" x2="939" y1="796.9688" y2="796.9688"/><text fill="#000000" font-family="sans-serif" font-size="20" font-weight="bold" lengthAdjust="spacing" textLength="22" x="552" y="790.5742">18</text><text fill="#000000" font-family="sans-serif" font-size="20" lengthAdjust="spacing" textLength="355" x="578" y="790.5742">addDrone(serialNumber, selectedModel)</text><line style="stroke:#181818;stroke-width:1.0;" x1="955" x2="1002" y1="831.125" y2="831.125"/><line style="stroke:#181818;stroke-width:1.0;" x1="1002" x2="1002" y1="831.125" y2="844.125"/><line style="stroke:#181818;stroke-width:1.0;" x1="961" x2="1002" y1="844.125" y2="844.125"/><polygon fill="#181818" points="971,840.125,961,844.125,971,848.125,967,844.125" style="stroke:#181818;stroke-width:1.0;"/><text fill="#000000" font-family="sans-serif" font-size="20" font-weight="bold" lengthAdjust="spacing" textLength="22" x="967" y="824.7305">19</text><text fill="#000000" font-family="sans-serif" font-size="20" lengthAdjust="spacing" textLength="190" x="993" y="824.7305">getDroneRepository()</text><polygon fill="#181818" points="1183,884.2813,1193,888.2813,1183,892.2813,1187,888.2813" style="stroke:#181818;stroke-width:1.0;"/><line style="stroke:#181818;stroke-width:1.0;" x1="960" x2="1189" y1="888.2813" y2="888.2813"/><text fill="#000000" font-family="sans-serif" font-size="20" font-weight="bold" lengthAdjust="spacing" textLength="22" x="967" y="881.8867">20</text><text fill="#000000" font-family="sans-serif" font-size="20" lengthAdjust="spacing" textLength="190" x="993" y="881.8867">getRepositoryFactory</text><polygon fill="#181818" points="971,923.4375,961,927.4375,971,931.4375,967,927.4375" style="stroke:#181818;stroke-width:1.0;"/><line style="stroke:#181818;stroke-width:1.0;stroke-dasharray:2.0,2.0;" x1="965" x2="1199" y1="927.4375" y2="927.4375"/><text fill="#000000" font-family="sans-serif" font-size="20" font-weight="bold" lengthAdjust="spacing" textLength="22" x="977" y="921.043">21</text><text fill="#000000" font-family="sans-serif" font-size="20" lengthAdjust="spacing" textLength="155" x="1003" y="921.043">repositoryFactory</text><polygon fill="#181818" points="1345.5,962.5938,1355.5,966.5938,1345.5,970.5938,1349.5,966.5938" style="stroke:#181818;stroke-width:1.0;"/><line style="stroke:#181818;stroke-width:1.0;" x1="960" x2="1351.5" y1="966.5938" y2="966.5938"/><text fill="#000000" font-family="sans-serif" font-size="20" font-weight="bold" lengthAdjust="spacing" textLength="22" x="967" y="960.1992">22</text><text fill="#000000" font-family="sans-serif" font-size="20" lengthAdjust="spacing" textLength="116" x="993" y="960.1992">getInstance()</text><polygon fill="#181818" points="971,1001.75,961,1005.75,971,1009.75,967,1005.75" style="stroke:#181818;stroke-width:1.0;"/><line style="stroke:#181818;stroke-width:1.0;stroke-dasharray:2.0,2.0;" x1="965" x2="1361.5" y1="1005.75" y2="1005.75"/><text fill="#000000" font-family="sans-serif" font-size="20" font-weight="bold" lengthAdjust="spacing" textLength="22" x="977" y="999.3555">23</text><text fill="#000000" font-family="sans-serif" font-size="20" lengthAdjust="spacing" textLength="103" x="1003" y="999.3555">repositories</text><polygon fill="#181818" points="1540.5,1040.9063,1550.5,1044.9063,1540.5,1048.9063,1544.5,1044.9063" style="stroke:#181818;stroke-width:1.0;"/><line style="stroke:#181818;stroke-width:1.0;" x1="960" x2="1546.5" y1="1044.9063" y2="1044.9063"/><text fill="#000000" font-family="sans-serif" font-size="20" font-weight="bold" lengthAdjust="spacing" textLength="22" x="967" y="1038.5117">24</text><text fill="#000000" font-family="sans-serif" font-size="20" lengthAdjust="spacing" textLength="190" x="993" y="1038.5117">getDroneRepository()</text><polygon fill="#181818" points="971,1080.0625,961,1084.0625,971,1088.0625,967,1084.0625" style="stroke:#181818;stroke-width:1.0;"/><line style="stroke:#181818;stroke-width:1.0;stroke-dasharray:2.0,2.0;" x1="965" x2="1556.5" y1="1084.0625" y2="1084.0625"/><text fill="#000000" font-family="sans-serif" font-size="20" font-weight="bold" lengthAdjust="spacing" textLength="22" x="977" y="1077.668">25</text><text fill="#000000" font-family="sans-serif" font-size="20" lengthAdjust="spacing" textLength="145" x="1003" y="1077.668">droneRepository</text><line style="stroke:#181818;stroke-width:1.0;stroke-dasharray:2.0,2.0;" x1="960" x2="1002" y1="1128.2188" y2="1128.2188"/><line style="stroke:#181818;stroke-width:1.0;stroke-dasharray:2.0,2.0;" x1="1002" x2="1002" y1="1128.2188" y2="1141.2188"/><line style="stroke:#181818;stroke-width:1.0;stroke-dasharray:2.0,2.0;" x1="955" x2="1002" y1="1141.2188" y2="1141.2188"/><polygon fill="#181818" points="965,1137.2188,955,1141.2188,965,1145.2188,961,1141.2188" style="stroke:#181818;stroke-width:1.0;"/><text fill="#000000" font-family="sans-serif" font-size="20" font-weight="bold" lengthAdjust="spacing" textLength="22" x="967" y="1121.8242">26</text><text fill="#000000" font-family="sans-serif" font-size="20" lengthAdjust="spacing" textLength="145" x="993" y="1121.8242">droneRepository</text><polygon fill="#181818" points="1728.5,1171.375,1738.5,1175.375,1728.5,1179.375,1732.5,1175.375" style="stroke:#181818;stroke-width:1.0;"/><line style="stroke:#181818;stroke-width:1.0;" x1="955" x2="1734.5" y1="1175.375" y2="1175.375"/><text fill="#000000" font-family="sans-serif" font-size="20" font-weight="bold" lengthAdjust="spacing" textLength="22" x="962" y="1168.9805">27</text><text fill="#000000" font-family="sans-serif" font-size="20" lengthAdjust="spacing" textLength="348" x="988" y="1168.9805">addDrone(serialNumbe, selectedModel)</text><line style="stroke:#181818;stroke-width:1.0;" x1="1750.5" x2="1797.5" y1="1209.5313" y2="1209.5313"/><line style="stroke:#181818;stroke-width:1.0;" x1="1797.5" x2="1797.5" y1="1209.5313" y2="1222.5313"/><line style="stroke:#181818;stroke-width:1.0;" x1="1756.5" x2="1797.5" y1="1222.5313" y2="1222.5313"/><polygon fill="#181818" points="1766.5,1218.5313,1756.5,1222.5313,1766.5,1226.5313,1762.5,1222.5313" style="stroke:#181818;stroke-width:1.0;"/><text fill="#000000" font-family="sans-serif" font-size="20" font-weight="bold" lengthAdjust="spacing" textLength="22" x="1762.5" y="1203.1367">28</text><text fill="#000000" font-family="sans-serif" font-size="20" lengthAdjust="spacing" textLength="361" x="1788.5" y="1203.1367">addDrone (serialNumber, selectedModel)</text><line style="stroke:#181818;stroke-width:1.0;" x1="1755.5" x2="1802.5" y1="1261.6875" y2="1261.6875"/><line style="stroke:#181818;stroke-width:1.0;" x1="1802.5" x2="1802.5" y1="1261.6875" y2="1274.6875"/><line style="stroke:#181818;stroke-width:1.0;" x1="1761.5" x2="1802.5" y1="1274.6875" y2="1274.6875"/><polygon fill="#181818" points="1771.5,1270.6875,1761.5,1274.6875,1771.5,1278.6875,1767.5,1274.6875" style="stroke:#181818;stroke-width:1.0;"/><text fill="#000000" font-family="sans-serif" font-size="20" font-weight="bold" lengthAdjust="spacing" textLength="22" x="1767.5" y="1255.293">29</text><text fill="#000000" font-family="sans-serif" font-size="20" lengthAdjust="spacing" textLength="249" x="1793.5" y="1255.293">validateDrone(serialNumber)</text><line style="stroke:#181818;stroke-width:1.0;stroke-dasharray:2.0,2.0;" x1="1760.5" x2="1802.5" y1="1323.8438" y2="1323.8438"/><line style="stroke:#181818;stroke-width:1.0;stroke-dasharray:2.0,2.0;" x1="1802.5" x2="1802.5" y1="1323.8438" y2="1336.8438"/><line style="stroke:#181818;stroke-width:1.0;stroke-dasharray:2.0,2.0;" x1="1755.5" x2="1802.5" y1="1336.8438" y2="1336.8438"/><polygon fill="#181818" points="1765.5,1332.8438,1755.5,1336.8438,1765.5,1340.8438,1761.5,1336.8438" style="stroke:#181818;stroke-width:1.0;"/><text fill="#000000" font-family="sans-serif" font-size="20" font-weight="bold" lengthAdjust="spacing" textLength="22" x="1767.5" y="1317.4492">30</text><text fill="#000000" font-family="sans-serif" font-size="20" lengthAdjust="spacing" textLength="34" x="1793.5" y="1317.4492">true</text><line style="stroke:#181818;stroke-width:1.0;stroke-dasharray:2.0,2.0;" x1="1755.5" x2="1797.5" y1="1376" y2="1376"/><line style="stroke:#181818;stroke-width:1.0;stroke-dasharray:2.0,2.0;" x1="1797.5" x2="1797.5" y1="1376" y2="1389"/><line style="stroke:#181818;stroke-width:1.0;stroke-dasharray:2.0,2.0;" x1="1750.5" x2="1797.5" y1="1389" y2="1389"/><polygon fill="#181818" points="1760.5,1385,1750.5,1389,1760.5,1393,1756.5,1389" style="stroke:#181818;stroke-width:1.0;"/><text fill="#000000" font-family="sans-serif" font-size="20" font-weight="bold" lengthAdjust="spacing" textLength="22" x="1762.5" y="1369.6055">31</text><text fill="#000000" font-family="sans-serif" font-size="20" lengthAdjust="spacing" textLength="34" x="1788.5" y="1369.6055">true</text><polygon fill="#181818" points="966,1419.1563,956,1423.1563,966,1427.1563,962,1423.1563" style="stroke:#181818;stroke-width:1.0;"/><line style="stroke:#181818;stroke-width:1.0;stroke-dasharray:2.0,2.0;" x1="960" x2="1744.5" y1="1423.1563" y2="1423.1563"/><text fill="#000000" font-family="sans-serif" font-size="20" font-weight="bold" lengthAdjust="spacing" textLength="22" x="972" y="1416.7617">32</text><text fill="#000000" font-family="sans-serif" font-size="20" lengthAdjust="spacing" textLength="34" x="998" y="1416.7617">true</text><polygon fill="#181818" points="556,1458.3125,546,1462.3125,556,1466.3125,552,1462.3125" style="stroke:#181818;stroke-width:1.0;"/><line style="stroke:#181818;stroke-width:1.0;stroke-dasharray:2.0,2.0;" x1="550" x2="949" y1="1462.3125" y2="1462.3125"/><text fill="#000000" font-family="sans-serif" font-size="20" font-weight="bold" lengthAdjust="spacing" textLength="22" x="562" y="1455.918">33</text><text fill="#000000" font-family="sans-serif" font-size="20" lengthAdjust="spacing" textLength="34" x="588" y="1455.918">true</text><polygon fill="#181818" points="67,1497.4688,57,1501.4688,67,1505.4688,63,1501.4688" style="stroke:#181818;stroke-width:1.0;"/><line style="stroke:#181818;stroke-width:1.0;stroke-dasharray:2.0,2.0;" x1="61" x2="539" y1="1501.4688" y2="1501.4688"/><text fill="#000000" font-family="sans-serif" font-size="20" font-weight="bold" lengthAdjust="spacing" textLength="22" x="73" y="1495.0742">34</text><text fill="#000000" font-family="sans-serif" font-size="20" lengthAdjust="spacing" textLength="234" x="99" y="1495.0742">displays success message</text><!--SRC=[hLPTQzim57tNhn1zMGiBZ3tceJ2QTWJIj2Jfss2eraqY8akPfRHaltxNyfSanqheweVIsFUSUwohSoop4shF2fPBdUs0KmvhTf3sGIkx57-1Vlz6lfYcXkPQwMnRw1oeBGv0kYTxbktO1fRsA84Ma5ccDj8lC5l6zRjG6xfcqW0Xx62rEkIlKE3_cTK5lPeKMi4AikqLPOPELWIXLcHYpvIbL-CVdBkAbwbx_Z8TU7w7uWij9HIkxcwrc4MLpr0OOIoe35p9y_rY6PKiOA-DG5d71wVkw0eNzyzFSMKHL_vIunJyzt8w_pcxNptDGo9UQkzmo389xrIhifZ_Bcb2RAuvo03x6DvnsCV9hCAM2oxUc8LoaSbaHKUtk9nqZ9FxSm1Z3RMQCiufeqvL-TDkWGhr1ggawmXm2XGlH8-G1Ad6s6bdw1e7Ma8gl852C4dhUTFwuX3JU5BCuJKNg8GpozmplxRjUUl6Y-KIv-dUsLpVXELk_jIx70AHvTGHkG7RcrPGdxhQBcuBNOfodKUT-EB3_Rqbx2betjFjkkf5fygWCpEerwZt5jN-ZfjK1AVq2Z1aG4v5DIoeiq4bBTgmIOMUXKvgzRWzrP59aiAz3iINtbWekUCwdrNW5XIBcI45YTgtuAvjOub1JBl5VHkQhNutwE1I9zLhogIi6F2cufLBqTS69COrHPScV1bxqs5C04ebGYq51PHkxW8YqsejYfnPeHKvcmXrzK0az1A1rP-3wofyvYvxljRQWRlHfQAY6Nb5XpiqYcDlXwO9FYDd_YzlFZztpkNFPTcJo9tBCcSuRv9PSy4aKpcJo9Ze8quko9TGyUZsSgR1BrjpI1XmmKaJz5QWFMbq2T3GUYsw3lIyqT9zJkslqotVc1GO0j3tzmr9kYRPA-mNBgCxxfunG7_1FinyYdMGhDum0L5ILlXLQN7npY9-X7DXzf8T3PxBiWoCeJd-mHC_2IFRxxiY_m00]--></g></svg>