<?xml version="1.0" encoding="UTF-8" standalone="no"?><svg xmlns="http://www.w3.org/2000/svg" xmlns:xlink="http://www.w3.org/1999/xlink" contentStyleType="text/css" height="1674px" preserveAspectRatio="none" style="width:2688px;height:1674px;background:#FFFFFF;" version="1.1" viewBox="0 0 2688 1674" width="2688px" zoomAndPan="magnify"><defs/><g><rect fill="#FFFFFF" height="1466.625" style="stroke:#181818;stroke-width:1.0;" width="10" x="82.5" y="100.1563"/><rect fill="#FFFFFF" height="1435.4688" style="stroke:#181818;stroke-width:1.0;" width="10" x="508.5" y="131.3125"/><rect fill="#FFFFFF" height="1200.5313" style="stroke:#181818;stroke-width:1.0;" width="10" x="776.5" y="170.4688"/><rect fill="#FFFFFF" height="579.1875" style="stroke:#181818;stroke-width:1.0;" width="10" x="781.5" y="217.625"/><rect fill="#FFFFFF" height="39.1563" style="stroke:#181818;stroke-width:1.0;" width="10" x="776.5" y="1488.4688"/><rect fill="#FFFFFF" height="247.9375" style="stroke:#181818;stroke-width:1.0;" width="10" x="1213.5" y="261.7813"/><rect fill="#FFFFFF" height="122.4688" style="stroke:#181818;stroke-width:1.0;" width="10" x="1218.5" y="348.0938"/><rect fill="#FFFFFF" height="247.9375" style="stroke:#181818;stroke-width:1.0;" width="10" x="1213.5" y="548.875"/><rect fill="#FFFFFF" height="122.4688" style="stroke:#181818;stroke-width:1.0;" width="10" x="1218.5" y="635.1875"/><rect fill="#FFFFFF" height="495.875" style="stroke:#181818;stroke-width:1.0;" width="10" x="1213.5" y="835.9688"/><rect fill="#FFFFFF" height="122.4688" style="stroke:#181818;stroke-width:1.0;" width="10" x="1218.5" y="922.2813"/><rect fill="#FFFFFF" height="122.4688" style="stroke:#181818;stroke-width:1.0;" width="10" x="1218.5" y="1131.0625"/><rect fill="#FFFFFF" height="78.3125" style="stroke:#181818;stroke-width:1.0;" width="10" x="1729.5" y="392.25"/><rect fill="#FFFFFF" height="78.3125" style="stroke:#181818;stroke-width:1.0;" width="10" x="1729.5" y="679.3438"/><rect fill="#FFFFFF" height="78.3125" style="stroke:#181818;stroke-width:1.0;" width="10" x="1729.5" y="966.4375"/><rect fill="#FFFFFF" height="78.3125" style="stroke:#181818;stroke-width:1.0;" width="10" x="1729.5" y="1175.2188"/><line style="stroke:#181818;stroke-width:0.5;stroke-dasharray:5.0,5.0;" x1="87" x2="87" y1="90.1563" y2="1584.7813"/><line style="stroke:#181818;stroke-width:0.5;stroke-dasharray:5.0,5.0;" x1="513" x2="513" y1="90.1563" y2="1584.7813"/><line style="stroke:#181818;stroke-width:0.5;stroke-dasharray:5.0,5.0;" x1="781" x2="781" y1="90.1563" y2="1584.7813"/><line style="stroke:#181818;stroke-width:0.5;stroke-dasharray:5.0,5.0;" x1="1218.5" x2="1218.5" y1="90.1563" y2="1584.7813"/><line style="stroke:#181818;stroke-width:0.5;stroke-dasharray:5.0,5.0;" x1="1734.5" x2="1734.5" y1="90.1563" y2="1584.7813"/><line style="stroke:#181818;stroke-width:0.5;stroke-dasharray:5.0,5.0;" x1="1944" x2="1944" y1="90.1563" y2="1584.7813"/><line style="stroke:#181818;stroke-width:0.5;stroke-dasharray:5.0,5.0;" x1="2115" x2="2115" y1="90.1563" y2="1584.7813"/><line style="stroke:#181818;stroke-width:0.5;stroke-dasharray:5.0,5.0;" x1="2287" x2="2287" y1="90.1563" y2="1584.7813"/><line style="stroke:#181818;stroke-width:0.5;stroke-dasharray:5.0,5.0;" x1="2478" x2="2478" y1="90.1563" y2="1584.7813"/><line style="stroke:#181818;stroke-width:0.5;stroke-dasharray:5.0,5.0;" x1="2629" x2="2629" y1="90.1563" y2="1584.7813"/><text fill="#000000" font-family="sans-serif" font-size="20" lengthAdjust="spacing" textLength="159" x="5" y="85.7617">CRM Collaborator</text><ellipse cx="87.5" cy="13.5" fill="#E2E2F0" rx="8" ry="8" style="stroke:#181818;stroke-width:0.5;"/><path d="M87.5,21.5 L87.5,48.5 M74.5,29.5 L100.5,29.5 M87.5,48.5 L74.5,63.5 M87.5,48.5 L100.5,63.5 " fill="none" style="stroke:#181818;stroke-width:0.5;"/><text fill="#000000" font-family="sans-serif" font-size="20" lengthAdjust="spacing" textLength="159" x="5" y="1604.543">CRM Collaborator</text><ellipse cx="87.5" cy="1617.4375" fill="#E2E2F0" rx="8" ry="8" style="stroke:#181818;stroke-width:0.5;"/><path d="M87.5,1625.4375 L87.5,1652.4375 M74.5,1633.4375 L100.5,1633.4375 M87.5,1652.4375 L74.5,1667.4375 M87.5,1652.4375 L100.5,1667.4375 " fill="none" style="stroke:#181818;stroke-width:0.5;"/><rect fill="#E2E2F0" height="39.1563" rx="2.5" ry="2.5" style="stroke:#181818;stroke-width:0.5;" width="115" x="456" y="50"/><text fill="#000000" font-family="sans-serif" font-size="20" lengthAdjust="spacing" textLength="101" x="463" y="77.7617">ShowInfoUI</text><rect fill="#E2E2F0" height="39.1563" rx="2.5" ry="2.5" style="stroke:#181818;stroke-width:0.5;" width="115" x="456" y="1583.7813"/><text fill="#000000" font-family="sans-serif" font-size="20" lengthAdjust="spacing" textLength="101" x="463" y="1611.543">ShowInfoUI</text><rect fill="#E2E2F0" height="39.1563" rx="2.5" ry="2.5" style="stroke:#181818;stroke-width:0.5;" width="181" x="691" y="50"/><text fill="#000000" font-family="sans-serif" font-size="20" lengthAdjust="spacing" textLength="167" x="698" y="77.7617">ShowInfoController</text><rect fill="#E2E2F0" height="39.1563" rx="2.5" ry="2.5" style="stroke:#181818;stroke-width:0.5;" width="181" x="691" y="1583.7813"/><text fill="#000000" font-family="sans-serif" font-size="20" lengthAdjust="spacing" textLength="167" x="698" y="1611.543">ShowInfoController</text><rect fill="#E2E2F0" height="39.1563" rx="2.5" ry="2.5" style="stroke:#181818;stroke-width:0.5;" width="192" x="1122.5" y="50"/><text fill="#000000" font-family="sans-serif" font-size="20" lengthAdjust="spacing" textLength="178" x="1129.5" y="77.7617">CustomerAppServer</text><rect fill="#E2E2F0" height="39.1563" rx="2.5" ry="2.5" style="stroke:#181818;stroke-width:0.5;" width="192" x="1122.5" y="1583.7813"/><text fill="#000000" font-family="sans-serif" font-size="20" lengthAdjust="spacing" textLength="178" x="1129.5" y="1611.543">CustomerAppServer</text><rect fill="#E2E2F0" height="39.1563" rx="2.5" ry="2.5" style="stroke:#181818;stroke-width:0.5;" width="190" x="1639.5" y="50"/><text fill="#000000" font-family="sans-serif" font-size="20" lengthAdjust="spacing" textLength="176" x="1646.5" y="77.7617">MarshlerUnmarshler</text><rect fill="#E2E2F0" height="39.1563" rx="2.5" ry="2.5" style="stroke:#181818;stroke-width:0.5;" width="190" x="1639.5" y="1583.7813"/><text fill="#000000" font-family="sans-serif" font-size="20" lengthAdjust="spacing" textLength="176" x="1646.5" y="1611.543">MarshlerUnmarshler</text><rect fill="#E2E2F0" height="39.1563" rx="2.5" ry="2.5" style="stroke:#181818;stroke-width:0.5;" width="181" x="1854" y="50"/><text fill="#000000" font-family="sans-serif" font-size="20" lengthAdjust="spacing" textLength="167" x="1861" y="77.7617">ShodroneUserDTO</text><rect fill="#E2E2F0" height="39.1563" rx="2.5" ry="2.5" style="stroke:#181818;stroke-width:0.5;" width="181" x="1854" y="1583.7813"/><text fill="#000000" font-family="sans-serif" font-size="20" lengthAdjust="spacing" textLength="167" x="1861" y="1611.543">ShodroneUserDTO</text><rect fill="#E2E2F0" height="39.1563" rx="2.5" ry="2.5" style="stroke:#181818;stroke-width:0.5;" width="141" x="2045" y="50"/><text fill="#000000" font-family="sans-serif" font-size="20" lengthAdjust="spacing" textLength="127" x="2052" y="77.7617">CustomerDTO</text><rect fill="#E2E2F0" height="39.1563" rx="2.5" ry="2.5" style="stroke:#181818;stroke-width:0.5;" width="141" x="2045" y="1583.7813"/><text fill="#000000" font-family="sans-serif" font-size="20" lengthAdjust="spacing" textLength="127" x="2052" y="1611.543">CustomerDTO</text><rect fill="#E2E2F0" height="39.1563" rx="2.5" ry="2.5" style="stroke:#181818;stroke-width:0.5;" width="183" x="2196" y="50"/><text fill="#000000" font-family="sans-serif" font-size="20" lengthAdjust="spacing" textLength="169" x="2203" y="77.7617">ShowProposalDTO</text><rect fill="#E2E2F0" height="39.1563" rx="2.5" ry="2.5" style="stroke:#181818;stroke-width:0.5;" width="183" x="2196" y="1583.7813"/><text fill="#000000" font-family="sans-serif" font-size="20" lengthAdjust="spacing" textLength="169" x="2203" y="1611.543">ShowProposalDTO</text><rect fill="#E2E2F0" height="39.1563" rx="2.5" ry="2.5" style="stroke:#181818;stroke-width:0.5;" width="178" x="2389" y="50"/><text fill="#000000" font-family="sans-serif" font-size="20" lengthAdjust="spacing" textLength="164" x="2396" y="77.7617">ShowRequestDTO</text><rect fill="#E2E2F0" height="39.1563" rx="2.5" ry="2.5" style="stroke:#181818;stroke-width:0.5;" width="178" x="2389" y="1583.7813"/><text fill="#000000" font-family="sans-serif" font-size="20" lengthAdjust="spacing" textLength="164" x="2396" y="1611.543">ShowRequestDTO</text><rect fill="#E2E2F0" height="39.1563" rx="2.5" ry="2.5" style="stroke:#181818;stroke-width:0.5;" width="105" x="2577" y="50"/><text fill="#000000" font-family="sans-serif" font-size="20" lengthAdjust="spacing" textLength="91" x="2584" y="77.7617">ShowDTO</text><rect fill="#E2E2F0" height="39.1563" rx="2.5" ry="2.5" style="stroke:#181818;stroke-width:0.5;" width="105" x="2577" y="1583.7813"/><text fill="#000000" font-family="sans-serif" font-size="20" lengthAdjust="spacing" textLength="91" x="2584" y="1611.543">ShowDTO</text><rect fill="#FFFFFF" height="1466.625" style="stroke:#181818;stroke-width:1.0;" width="10" x="82.5" y="100.1563"/><rect fill="#FFFFFF" height="1435.4688" style="stroke:#181818;stroke-width:1.0;" width="10" x="508.5" y="131.3125"/><rect fill="#FFFFFF" height="1200.5313" style="stroke:#181818;stroke-width:1.0;" width="10" x="776.5" y="170.4688"/><rect fill="#FFFFFF" height="579.1875" style="stroke:#181818;stroke-width:1.0;" width="10" x="781.5" y="217.625"/><rect fill="#FFFFFF" height="39.1563" style="stroke:#181818;stroke-width:1.0;" width="10" x="776.5" y="1488.4688"/><rect fill="#FFFFFF" height="247.9375" style="stroke:#181818;stroke-width:1.0;" width="10" x="1213.5" y="261.7813"/><rect fill="#FFFFFF" height="122.4688" style="stroke:#181818;stroke-width:1.0;" width="10" x="1218.5" y="348.0938"/><rect fill="#FFFFFF" height="247.9375" style="stroke:#181818;stroke-width:1.0;" width="10" x="1213.5" y="548.875"/><rect fill="#FFFFFF" height="122.4688" style="stroke:#181818;stroke-width:1.0;" width="10" x="1218.5" y="635.1875"/><rect fill="#FFFFFF" height="495.875" style="stroke:#181818;stroke-width:1.0;" width="10" x="1213.5" y="835.9688"/><rect fill="#FFFFFF" height="122.4688" style="stroke:#181818;stroke-width:1.0;" width="10" x="1218.5" y="922.2813"/><rect fill="#FFFFFF" height="122.4688" style="stroke:#181818;stroke-width:1.0;" width="10" x="1218.5" y="1131.0625"/><rect fill="#FFFFFF" height="78.3125" style="stroke:#181818;stroke-width:1.0;" width="10" x="1729.5" y="392.25"/><rect fill="#FFFFFF" height="78.3125" style="stroke:#181818;stroke-width:1.0;" width="10" x="1729.5" y="679.3438"/><rect fill="#FFFFFF" height="78.3125" style="stroke:#181818;stroke-width:1.0;" width="10" x="1729.5" y="966.4375"/><rect fill="#FFFFFF" height="78.3125" style="stroke:#181818;stroke-width:1.0;" width="10" x="1729.5" y="1175.2188"/><polygon fill="#181818" points="496.5,127.3125,506.5,131.3125,496.5,135.3125,500.5,131.3125" style="stroke:#181818;stroke-width:1.0;"/><line style="stroke:#181818;stroke-width:1.0;" x1="92.5" x2="502.5" y1="131.3125" y2="131.3125"/><text fill="#000000" font-family="sans-serif" font-size="20" lengthAdjust="spacing" textLength="397" x="99.5" y="124.918">request to show the info of a scheduled show</text><polygon fill="#181818" points="764.5,166.4688,774.5,170.4688,764.5,174.4688,768.5,170.4688" style="stroke:#181818;stroke-width:1.0;"/><line style="stroke:#181818;stroke-width:1.0;" x1="518.5" x2="770.5" y1="170.4688" y2="170.4688"/><text fill="#000000" font-family="sans-serif" font-size="20" lengthAdjust="spacing" textLength="97" x="525.5" y="164.0742">listShows()</text><line style="stroke:#181818;stroke-width:1.0;" x1="786.5" x2="833.5" y1="204.625" y2="204.625"/><line style="stroke:#181818;stroke-width:1.0;" x1="833.5" x2="833.5" y1="204.625" y2="217.625"/><line style="stroke:#181818;stroke-width:1.0;" x1="792.5" x2="833.5" y1="217.625" y2="217.625"/><polygon fill="#181818" points="802.5,213.625,792.5,217.625,802.5,221.625,798.5,217.625" style="stroke:#181818;stroke-width:1.0;"/><text fill="#000000" font-family="sans-serif" font-size="20" lengthAdjust="spacing" textLength="262" x="798.5" y="198.2305">getRepresenteeOfCustomer()</text><polygon fill="#181818" points="1201.5,257.7813,1211.5,261.7813,1201.5,265.7813,1205.5,261.7813" style="stroke:#181818;stroke-width:1.0;"/><line style="stroke:#181818;stroke-width:1.0;" x1="791.5" x2="1207.5" y1="261.7813" y2="261.7813"/><text fill="#000000" font-family="sans-serif" font-size="20" lengthAdjust="spacing" textLength="325" x="798.5" y="255.3867">getShodroneUser(authenticatedUser)</text><polygon fill="#181818" points="1932.5,296.9375,1942.5,300.9375,1932.5,304.9375,1936.5,300.9375" style="stroke:#181818;stroke-width:1.0;"/><line style="stroke:#181818;stroke-width:1.0;" x1="1223.5" x2="1938.5" y1="300.9375" y2="300.9375"/><text fill="#000000" font-family="sans-serif" font-size="20" lengthAdjust="spacing" textLength="262" x="1230.5" y="294.543">toRequest(authenticatedUser)</text><line style="stroke:#181818;stroke-width:1.0;" x1="1223.5" x2="1270.5" y1="335.0938" y2="335.0938"/><line style="stroke:#181818;stroke-width:1.0;" x1="1270.5" x2="1270.5" y1="335.0938" y2="348.0938"/><line style="stroke:#181818;stroke-width:1.0;" x1="1229.5" x2="1270.5" y1="348.0938" y2="348.0938"/><polygon fill="#181818" points="1239.5,344.0938,1229.5,348.0938,1239.5,352.0938,1235.5,348.0938" style="stroke:#181818;stroke-width:1.0;"/><text fill="#000000" font-family="sans-serif" font-size="20" lengthAdjust="spacing" textLength="264" x="1235.5" y="328.6992">socket.sendAndRecv(request)</text><polygon fill="#181818" points="1717.5,388.25,1727.5,392.25,1717.5,396.25,1721.5,392.25" style="stroke:#181818;stroke-width:1.0;"/><line style="stroke:#181818;stroke-width:1.0;" x1="1228.5" x2="1723.5" y1="392.25" y2="392.25"/><text fill="#000000" font-family="sans-serif" font-size="20" lengthAdjust="spacing" textLength="439" x="1235.5" y="385.8555">parseResponseMessageShodroneUser(response)</text><polygon fill="#181818" points="1932.5,427.4063,1942.5,431.4063,1932.5,435.4063,1936.5,431.4063" style="stroke:#181818;stroke-width:1.0;"/><line style="stroke:#181818;stroke-width:1.0;" x1="1739.5" x2="1938.5" y1="431.4063" y2="431.4063"/><text fill="#000000" font-family="sans-serif" font-size="20" lengthAdjust="spacing" textLength="181" x="1746.5" y="425.0117">ShodroneUserDTO()</text><polygon fill="#181818" points="1234.5,466.5625,1224.5,470.5625,1234.5,474.5625,1230.5,470.5625" style="stroke:#181818;stroke-width:1.0;"/><line style="stroke:#181818;stroke-width:1.0;" x1="1228.5" x2="1733.5" y1="470.5625" y2="470.5625"/><text fill="#000000" font-family="sans-serif" font-size="20" lengthAdjust="spacing" textLength="475" x="1240.5" y="464.168">parseResponseMessageLineShodroneUser(response)</text><polygon fill="#181818" points="802.5,505.7188,792.5,509.7188,802.5,513.7188,798.5,509.7188" style="stroke:#181818;stroke-width:1.0;"/><line style="stroke:#181818;stroke-width:1.0;" x1="796.5" x2="1217.5" y1="509.7188" y2="509.7188"/><text fill="#000000" font-family="sans-serif" font-size="20" lengthAdjust="spacing" textLength="122" x="808.5" y="503.3242">shodroneUser</text><polygon fill="#181818" points="1201.5,544.875,1211.5,548.875,1201.5,552.875,1205.5,548.875" style="stroke:#181818;stroke-width:1.0;"/><line style="stroke:#181818;stroke-width:1.0;" x1="791.5" x2="1207.5" y1="548.875" y2="548.875"/><text fill="#000000" font-family="sans-serif" font-size="20" lengthAdjust="spacing" textLength="403" x="798.5" y="542.4805">getCustomerOfRepresentative(shodroneUser)</text><polygon fill="#181818" points="2103.5,584.0313,2113.5,588.0313,2103.5,592.0313,2107.5,588.0313" style="stroke:#181818;stroke-width:1.0;"/><line style="stroke:#181818;stroke-width:1.0;" x1="1223.5" x2="2109.5" y1="588.0313" y2="588.0313"/><text fill="#000000" font-family="sans-serif" font-size="20" lengthAdjust="spacing" textLength="262" x="1230.5" y="581.6367">toRequest(authenticatedUser)</text><line style="stroke:#181818;stroke-width:1.0;" x1="1223.5" x2="1270.5" y1="622.1875" y2="622.1875"/><line style="stroke:#181818;stroke-width:1.0;" x1="1270.5" x2="1270.5" y1="622.1875" y2="635.1875"/><line style="stroke:#181818;stroke-width:1.0;" x1="1229.5" x2="1270.5" y1="635.1875" y2="635.1875"/><polygon fill="#181818" points="1239.5,631.1875,1229.5,635.1875,1239.5,639.1875,1235.5,635.1875" style="stroke:#181818;stroke-width:1.0;"/><text fill="#000000" font-family="sans-serif" font-size="20" lengthAdjust="spacing" textLength="264" x="1235.5" y="615.793">socket.sendAndRecv(request)</text><polygon fill="#181818" points="1717.5,675.3438,1727.5,679.3438,1717.5,683.3438,1721.5,679.3438" style="stroke:#181818;stroke-width:1.0;"/><line style="stroke:#181818;stroke-width:1.0;" x1="1228.5" x2="1723.5" y1="679.3438" y2="679.3438"/><text fill="#000000" font-family="sans-serif" font-size="20" lengthAdjust="spacing" textLength="399" x="1235.5" y="672.9492">parseResponseMessageCustomer(response)</text><polygon fill="#181818" points="2103.5,714.5,2113.5,718.5,2103.5,722.5,2107.5,718.5" style="stroke:#181818;stroke-width:1.0;"/><line style="stroke:#181818;stroke-width:1.0;" x1="1739.5" x2="2109.5" y1="718.5" y2="718.5"/><text fill="#000000" font-family="sans-serif" font-size="20" lengthAdjust="spacing" textLength="141" x="1746.5" y="712.1055">CustomerDTO()</text><polygon fill="#181818" points="1234.5,753.6563,1224.5,757.6563,1234.5,761.6563,1230.5,757.6563" style="stroke:#181818;stroke-width:1.0;"/><line style="stroke:#181818;stroke-width:1.0;" x1="1228.5" x2="1733.5" y1="757.6563" y2="757.6563"/><text fill="#000000" font-family="sans-serif" font-size="20" lengthAdjust="spacing" textLength="435" x="1240.5" y="751.2617">parseResponseMessageLineCustomer(response)</text><polygon fill="#181818" points="797.5,792.8125,787.5,796.8125,797.5,800.8125,793.5,796.8125" style="stroke:#181818;stroke-width:1.0;"/><line style="stroke:#181818;stroke-width:1.0;" x1="791.5" x2="1217.5" y1="796.8125" y2="796.8125"/><text fill="#000000" font-family="sans-serif" font-size="20" lengthAdjust="spacing" textLength="81" x="803.5" y="790.418">customer</text><polygon fill="#181818" points="1201.5,831.9688,1211.5,835.9688,1201.5,839.9688,1205.5,835.9688" style="stroke:#181818;stroke-width:1.0;"/><line style="stroke:#181818;stroke-width:1.0;" x1="786.5" x2="1207.5" y1="835.9688" y2="835.9688"/><text fill="#000000" font-family="sans-serif" font-size="20" lengthAdjust="spacing" textLength="290" x="793.5" y="829.5742">getShowsByCustomer(customer)</text><polygon fill="#181818" points="2466,871.125,2476,875.125,2466,879.125,2470,875.125" style="stroke:#181818;stroke-width:1.0;"/><line style="stroke:#181818;stroke-width:1.0;" x1="1223.5" x2="2472" y1="875.125" y2="875.125"/><text fill="#000000" font-family="sans-serif" font-size="20" lengthAdjust="spacing" textLength="185" x="1230.5" y="868.7305">toRequest(customer)</text><line style="stroke:#181818;stroke-width:1.0;" x1="1223.5" x2="1270.5" y1="909.2813" y2="909.2813"/><line style="stroke:#181818;stroke-width:1.0;" x1="1270.5" x2="1270.5" y1="909.2813" y2="922.2813"/><line style="stroke:#181818;stroke-width:1.0;" x1="1229.5" x2="1270.5" y1="922.2813" y2="922.2813"/><polygon fill="#181818" points="1239.5,918.2813,1229.5,922.2813,1239.5,926.2813,1235.5,922.2813" style="stroke:#181818;stroke-width:1.0;"/><text fill="#000000" font-family="sans-serif" font-size="20" lengthAdjust="spacing" textLength="264" x="1235.5" y="902.8867">socket.sendAndRecv(request)</text><polygon fill="#181818" points="1717.5,962.4375,1727.5,966.4375,1717.5,970.4375,1721.5,966.4375" style="stroke:#181818;stroke-width:1.0;"/><line style="stroke:#181818;stroke-width:1.0;" x1="1228.5" x2="1723.5" y1="966.4375" y2="966.4375"/><text fill="#000000" font-family="sans-serif" font-size="20" lengthAdjust="spacing" textLength="436" x="1235.5" y="960.043">parseResponseMessageShowRequest(response)</text><polygon fill="#181818" points="2466,1001.5938,2476,1005.5938,2466,1009.5938,2470,1005.5938" style="stroke:#181818;stroke-width:1.0;"/><line style="stroke:#181818;stroke-width:1.0;" x1="1739.5" x2="2472" y1="1005.5938" y2="1005.5938"/><text fill="#000000" font-family="sans-serif" font-size="20" lengthAdjust="spacing" textLength="178" x="1746.5" y="999.1992">ShowRequestDTO()</text><polygon fill="#181818" points="1234.5,1040.75,1224.5,1044.75,1234.5,1048.75,1230.5,1044.75" style="stroke:#181818;stroke-width:1.0;"/><line style="stroke:#181818;stroke-width:1.0;" x1="1228.5" x2="1733.5" y1="1044.75" y2="1044.75"/><text fill="#000000" font-family="sans-serif" font-size="20" lengthAdjust="spacing" textLength="472" x="1240.5" y="1038.3555">parseResponseMessageLineShowRequest(response)</text><polygon fill="#181818" points="2275.5,1079.9063,2285.5,1083.9063,2275.5,1087.9063,2279.5,1083.9063" style="stroke:#181818;stroke-width:1.0;"/><line style="stroke:#181818;stroke-width:1.0;" x1="1223.5" x2="2281.5" y1="1083.9063" y2="1083.9063"/><text fill="#000000" font-family="sans-serif" font-size="20" lengthAdjust="spacing" textLength="185" x="1230.5" y="1077.5117">toRequest(customer)</text><line style="stroke:#181818;stroke-width:1.0;" x1="1223.5" x2="1270.5" y1="1118.0625" y2="1118.0625"/><line style="stroke:#181818;stroke-width:1.0;" x1="1270.5" x2="1270.5" y1="1118.0625" y2="1131.0625"/><line style="stroke:#181818;stroke-width:1.0;" x1="1229.5" x2="1270.5" y1="1131.0625" y2="1131.0625"/><polygon fill="#181818" points="1239.5,1127.0625,1229.5,1131.0625,1239.5,1135.0625,1235.5,1131.0625" style="stroke:#181818;stroke-width:1.0;"/><text fill="#000000" font-family="sans-serif" font-size="20" lengthAdjust="spacing" textLength="274" x="1235.5" y="1111.668">socket.sendAndRecv(requests)</text><polygon fill="#181818" points="1717.5,1171.2188,1727.5,1175.2188,1717.5,1179.2188,1721.5,1175.2188" style="stroke:#181818;stroke-width:1.0;"/><line style="stroke:#181818;stroke-width:1.0;" x1="1228.5" x2="1723.5" y1="1175.2188" y2="1175.2188"/><text fill="#000000" font-family="sans-serif" font-size="20" lengthAdjust="spacing" textLength="441" x="1235.5" y="1168.8242">parseResponseMessageShowProposal(response)</text><polygon fill="#181818" points="2275.5,1210.375,2285.5,1214.375,2275.5,1218.375,2279.5,1214.375" style="stroke:#181818;stroke-width:1.0;"/><line style="stroke:#181818;stroke-width:1.0;" x1="1739.5" x2="2281.5" y1="1214.375" y2="1214.375"/><text fill="#000000" font-family="sans-serif" font-size="20" lengthAdjust="spacing" textLength="183" x="1746.5" y="1207.9805">ShowProposalDTO()</text><polygon fill="#181818" points="1234.5,1249.5313,1224.5,1253.5313,1234.5,1257.5313,1230.5,1253.5313" style="stroke:#181818;stroke-width:1.0;"/><line style="stroke:#181818;stroke-width:1.0;" x1="1228.5" x2="1733.5" y1="1253.5313" y2="1253.5313"/><text fill="#000000" font-family="sans-serif" font-size="20" lengthAdjust="spacing" textLength="477" x="1240.5" y="1247.1367">parseResponseMessageLineShowProposal(response)</text><polygon fill="#181818" points="2617.5,1288.6875,2627.5,1292.6875,2617.5,1296.6875,2621.5,1292.6875" style="stroke:#181818;stroke-width:1.0;"/><line style="stroke:#181818;stroke-width:1.0;" x1="1223.5" x2="2623.5" y1="1292.6875" y2="1292.6875"/><text fill="#000000" font-family="sans-serif" font-size="20" lengthAdjust="spacing" textLength="645" x="1230.5" y="1286.293">createShowDTOsFromShowProposalsAndRequests(proposals, requests)</text><polygon fill="#181818" points="797.5,1327.8438,787.5,1331.8438,797.5,1335.8438,793.5,1331.8438" style="stroke:#181818;stroke-width:1.0;"/><line style="stroke:#181818;stroke-width:1.0;" x1="791.5" x2="1217.5" y1="1331.8438" y2="1331.8438"/><text fill="#000000" font-family="sans-serif" font-size="20" lengthAdjust="spacing" textLength="56" x="803.5" y="1325.4492">shows</text><polygon fill="#181818" points="529.5,1367,519.5,1371,529.5,1375,525.5,1371" style="stroke:#181818;stroke-width:1.0;"/><line style="stroke:#181818;stroke-width:1.0;" x1="523.5" x2="780.5" y1="1371" y2="1371"/><text fill="#000000" font-family="sans-serif" font-size="20" lengthAdjust="spacing" textLength="56" x="535.5" y="1364.6055">shows</text><polygon fill="#181818" points="103.5,1406.1563,93.5,1410.1563,103.5,1414.1563,99.5,1410.1563" style="stroke:#181818;stroke-width:1.0;"/><line style="stroke:#181818;stroke-width:1.0;" x1="97.5" x2="507.5" y1="1410.1563" y2="1410.1563"/><text fill="#000000" font-family="sans-serif" font-size="20" lengthAdjust="spacing" textLength="191" x="109.5" y="1403.7617">asks to select a show</text><polygon fill="#181818" points="496.5,1445.3125,506.5,1449.3125,496.5,1453.3125,500.5,1449.3125" style="stroke:#181818;stroke-width:1.0;"/><line style="stroke:#181818;stroke-width:1.0;" x1="92.5" x2="502.5" y1="1449.3125" y2="1449.3125"/><text fill="#000000" font-family="sans-serif" font-size="20" lengthAdjust="spacing" textLength="131" x="99.5" y="1442.918">selects a show</text><polygon fill="#181818" points="764.5,1484.4688,774.5,1488.4688,764.5,1492.4688,768.5,1488.4688" style="stroke:#181818;stroke-width:1.0;"/><line style="stroke:#181818;stroke-width:1.0;" x1="518.5" x2="770.5" y1="1488.4688" y2="1488.4688"/><text fill="#000000" font-family="sans-serif" font-size="20" lengthAdjust="spacing" textLength="239" x="525.5" y="1482.0742">obtainShow(selectedShow)</text><polygon fill="#181818" points="529.5,1523.625,519.5,1527.625,529.5,1531.625,525.5,1527.625" style="stroke:#181818;stroke-width:1.0;"/><line style="stroke:#181818;stroke-width:1.0;" x1="523.5" x2="780.5" y1="1527.625" y2="1527.625"/><text fill="#000000" font-family="sans-serif" font-size="20" lengthAdjust="spacing" textLength="46" x="535.5" y="1521.2305">show</text><polygon fill="#181818" points="98.5,1562.7813,88.5,1566.7813,98.5,1570.7813,94.5,1566.7813" style="stroke:#181818;stroke-width:1.0;"/><line style="stroke:#181818;stroke-width:1.0;" x1="92.5" x2="512.5" y1="1566.7813" y2="1566.7813"/><text fill="#000000" font-family="sans-serif" font-size="20" lengthAdjust="spacing" textLength="158" x="104.5" y="1560.3867">show info of show</text><!--SRC=[pLR1Zfim4Btp5LPEL6ghQezxgBJDQgL8HQcIvWEyCDcW49lrc4JjrtUC3TZ1GMHFlI2CtxmPlsTxm6CfQgxugPBv4GfMm9utbNwHGc_Bly0UlYKyrrAnnNAJiQMiAlug5QSl2yQHxH1KGl6wpCkQ2yqMsuEyhCHUxbOMi8fFBoc18ZQmFCCmX2yRrF84wgckjw3E3crVGsJ65HueVYTExgs5PhjaL42Xf01J-VFlTR-APotZgJkG6Oz0PZc_bAmbyge3cd4Kk87t1eZ4uMWOXNNpxJi1Z07bcMkmQYVcoRvy9sdP8rEMasd9aF1C7u2Lf2-JUyOPvWSecefyDPCUqOfeLePa49x8gXAroOhffm7hMPDuwElODz0Rg1KW20smtdVo4TKSBckfvV4jIdb3InAa4CKNvelFvpP2ugADADPA8jBIwHsb62Bwp6XEWFvA2oYUHB61_9mwTQTJPZiA9XSHDe2r50WP8F8t2DQXt9pFPJOdHGTbN-rF8v-5z7N6KlqinSrq1GG9_V5uCO6dw356usvxsDc_tlUxWbCmf3ud5JSIrYl57hZ_mif-Dq_RE9JitHvtM1XBSsNVVFToHnOByJxDFfCN_F6dBx0ZdzRJNd61WqFWdRxTtYXJ1x2xT3r5VJcjBtsPuIrDniq_Uf54eNEJnhcUSKEf-wJ23slLTR99iOPIhvhVVLTLBDazMzrrHxFF5H34TKvyKVBaqsEhZXKchRkFdzaWriJjTy5O5U4fQTkmnSPFbMsqRTT-fBv-nBPPGmMvDYtQDEQmfziv72R7dLg-QbuAiyxKeg4mWtczjgyucLDn-rlH_LACekXFmX-PHl4F]--></g></svg>