<svg xmlns="http://www.w3.org/2000/svg" xmlns:xlink="http://www.w3.org/1999/xlink" contentStyleType="text/css" height="1928px" preserveAspectRatio="none" style="width:2741px;height:1928px;background:#FFFFFF;" version="1.1" viewBox="0 0 2741 1928" width="2741px" zoomAndPan="magnify"><defs/><g><rect fill="#FFFFFF" height="1733.7148" style="stroke:#181818;stroke-width:1.0;" width="10" x="82.3687" y="93.6211"/><rect fill="#FFFFFF" height="1710.4238" style="stroke:#181818;stroke-width:1.0;" width="10" x="371.5337" y="116.9121"/><rect fill="#FFFFFF" height="1522.6777" style="stroke:#181818;stroke-width:1.0;" width="10" x="558.0698" y="148.2031"/><rect fill="#FFFFFF" height="969.7305" style="stroke:#181818;stroke-width:1.0;" width="10" x="563.0698" y="187.4941"/><rect fill="#FFFFFF" height="31.291" style="stroke:#181818;stroke-width:1.0;" width="10" x="558.0698" y="1764.7539"/><rect fill="#FFFFFF" height="451.0742" style="stroke:#181818;stroke-width:1.0;" width="10" x="857.9668" y="223.7852"/><rect fill="#FFFFFF" height="349.2012" style="stroke:#181818;stroke-width:1.0;" width="10" x="862.9668" y="294.3672"/><rect fill="#FFFFFF" height="451.0742" style="stroke:#181818;stroke-width:1.0;" width="10" x="857.9668" y="706.1504"/><rect fill="#FFFFFF" height="349.2012" style="stroke:#181818;stroke-width:1.0;" width="10" x="862.9668" y="776.7324"/><rect fill="#FFFFFF" height="451.0742" style="stroke:#181818;stroke-width:1.0;" width="10" x="857.9668" y="1188.5156"/><rect fill="#FFFFFF" height="349.2012" style="stroke:#181818;stroke-width:1.0;" width="10" x="862.9668" y="1259.0977"/><rect fill="#FFFFFF" height="219.0371" style="stroke:#181818;stroke-width:1.0;" width="10" x="1066.1084" y="330.6582"/><rect fill="#FFFFFF" height="219.0371" style="stroke:#181818;stroke-width:1.0;" width="10" x="1066.1084" y="813.0234"/><rect fill="#FFFFFF" height="219.0371" style="stroke:#181818;stroke-width:1.0;" width="10" x="1066.1084" y="1295.3887"/><rect fill="#FFFFFF" height="125.1641" style="stroke:#181818;stroke-width:1.0;" width="10" x="1245.3389" y="393.2402"/><rect fill="#FFFFFF" height="125.1641" style="stroke:#181818;stroke-width:1.0;" width="10" x="1245.3389" y="875.6055"/><rect fill="#FFFFFF" height="125.1641" style="stroke:#181818;stroke-width:1.0;" width="10" x="1245.3389" y="1357.9707"/><rect fill="#FFFFFF" height="62.582" style="stroke:#181818;stroke-width:1.0;" width="10" x="1439.3521" y="424.5313"/><rect fill="#FFFFFF" height="62.582" style="stroke:#181818;stroke-width:1.0;" width="10" x="1439.3521" y="906.8965"/><rect fill="#FFFFFF" height="62.582" style="stroke:#181818;stroke-width:1.0;" width="10" x="1439.3521" y="1389.2617"/><rect fill="#FFFFFF" height="62.582" style="stroke:#181818;stroke-width:1.0;" width="10" x="1604.9517" y="580.9863"/><rect fill="#FFFFFF" height="62.582" style="stroke:#181818;stroke-width:1.0;" width="10" x="1604.9517" y="1063.3516"/><rect fill="#FFFFFF" height="62.582" style="stroke:#181818;stroke-width:1.0;" width="10" x="1604.9517" y="1545.7168"/><line style="stroke:#181818;stroke-width:0.5;stroke-dasharray:5.0,5.0;" x1="87" x2="87" y1="83.6211" y2="1845.3359"/><line style="stroke:#181818;stroke-width:0.5;stroke-dasharray:5.0,5.0;" x1="376.3477" x2="376.3477" y1="83.6211" y2="1845.3359"/><line style="stroke:#181818;stroke-width:0.5;stroke-dasharray:5.0,5.0;" x1="562.5391" x2="562.5391" y1="83.6211" y2="1845.3359"/><line style="stroke:#181818;stroke-width:0.5;stroke-dasharray:5.0,5.0;" x1="862.5981" x2="862.5981" y1="83.6211" y2="1845.3359"/><line style="stroke:#181818;stroke-width:0.5;stroke-dasharray:5.0,5.0;" x1="1070.6948" x2="1070.6948" y1="83.6211" y2="1845.3359"/><line style="stroke:#181818;stroke-width:0.5;stroke-dasharray:5.0,5.0;" x1="1249.522" x2="1249.522" y1="83.6211" y2="1845.3359"/><line style="stroke:#181818;stroke-width:0.5;stroke-dasharray:5.0,5.0;" x1="1444.1558" x2="1444.1558" y1="83.6211" y2="1845.3359"/><line style="stroke:#181818;stroke-width:0.5;stroke-dasharray:5.0,5.0;" x1="1609.5483" x2="1609.5483" y1="83.6211" y2="1845.3359"/><line style="stroke:#181818;stroke-width:0.5;stroke-dasharray:5.0,5.0;" x1="1779.355" x2="1779.355" y1="83.6211" y2="1845.3359"/><line style="stroke:#181818;stroke-width:0.5;stroke-dasharray:5.0,5.0;" x1="1945.3403" x2="1945.3403" y1="83.6211" y2="1845.3359"/><line style="stroke:#181818;stroke-width:0.5;stroke-dasharray:5.0,5.0;" x1="2075.1675" x2="2075.1675" y1="83.6211" y2="1845.3359"/><line style="stroke:#181818;stroke-width:0.5;stroke-dasharray:5.0,5.0;" x1="2176.4019" x2="2176.4019" y1="83.6211" y2="1845.3359"/><line style="stroke:#181818;stroke-width:0.5;stroke-dasharray:5.0,5.0;" x1="2310.9741" x2="2310.9741" y1="83.6211" y2="1845.3359"/><line style="stroke:#181818;stroke-width:0.5;stroke-dasharray:5.0,5.0;" x1="2477.1665" x2="2477.1665" y1="83.6211" y2="1845.3359"/><line style="stroke:#181818;stroke-width:0.5;stroke-dasharray:5.0,5.0;" x1="2646.7661" x2="2646.7661" y1="83.6211" y2="1845.3359"/><text fill="#000000" font-family="sans-serif" font-size="14" lengthAdjust="spacing" textLength="158.7373" x="5" y="80.1074">Customer Representative</text><ellipse cx="87.3687" cy="13.5" fill="#E2E2F0" rx="8" ry="8" style="stroke:#181818;stroke-width:0.5;"/><path d="M87.3687,21.5 L87.3687,48.5 M74.3687,29.5 L100.3687,29.5 M87.3687,48.5 L74.3687,63.5 M87.3687,48.5 L100.3687,63.5 " fill="none" style="stroke:#181818;stroke-width:0.5;"/><text fill="#000000" font-family="sans-serif" font-size="14" lengthAdjust="spacing" textLength="158.7373" x="5" y="1859.4434">Customer Representative</text><ellipse cx="87.3687" cy="1871.457" fill="#E2E2F0" rx="8" ry="8" style="stroke:#181818;stroke-width:0.5;"/><path d="M87.3687,1879.457 L87.3687,1906.457 M74.3687,1887.457 L100.3687,1887.457 M87.3687,1906.457 L74.3687,1921.457 M87.3687,1906.457 L100.3687,1921.457 " fill="none" style="stroke:#181818;stroke-width:0.5;"/><rect fill="#E2E2F0" height="32.6211" rx="2.5" ry="2.5" style="stroke:#181818;stroke-width:0.5;" width="86.3721" x="333.3477" y="50"/><text fill="#000000" font-family="sans-serif" font-size="14" lengthAdjust="spacing" textLength="72.3721" x="340.3477" y="72.1074">ShowInfoUI</text><rect fill="#E2E2F0" height="32.6211" rx="2.5" ry="2.5" style="stroke:#181818;stroke-width:0.5;" width="86.3721" x="333.3477" y="1844.3359"/><text fill="#000000" font-family="sans-serif" font-size="14" lengthAdjust="spacing" textLength="72.3721" x="340.3477" y="1866.4434">ShowInfoUI</text><rect fill="#E2E2F0" height="32.6211" rx="2.5" ry="2.5" style="stroke:#181818;stroke-width:0.5;" width="133.0615" x="496.5391" y="50"/><text fill="#000000" font-family="sans-serif" font-size="14" lengthAdjust="spacing" textLength="119.0615" x="503.5391" y="72.1074">ShowInfoController</text><rect fill="#E2E2F0" height="32.6211" rx="2.5" ry="2.5" style="stroke:#181818;stroke-width:0.5;" width="133.0615" x="496.5391" y="1844.3359"/><text fill="#000000" font-family="sans-serif" font-size="14" lengthAdjust="spacing" textLength="119.0615" x="503.5391" y="1866.4434">ShowInfoController</text><rect fill="#E2E2F0" height="32.6211" rx="2.5" ry="2.5" style="stroke:#181818;stroke-width:0.5;" width="186.7373" x="769.5981" y="50"/><text fill="#000000" font-family="sans-serif" font-size="14" lengthAdjust="spacing" textLength="172.7373" x="776.5981" y="72.1074">CustomerAppProtocolProxy</text><rect fill="#E2E2F0" height="32.6211" rx="2.5" ry="2.5" style="stroke:#181818;stroke-width:0.5;" width="186.7373" x="769.5981" y="1844.3359"/><text fill="#000000" font-family="sans-serif" font-size="14" lengthAdjust="spacing" textLength="172.7373" x="776.5981" y="1866.4434">CustomerAppProtocolProxy</text><rect fill="#E2E2F0" height="32.6211" rx="2.5" ry="2.5" style="stroke:#181818;stroke-width:0.5;" width="140.8271" x="1000.6948" y="50"/><text fill="#000000" font-family="sans-serif" font-size="14" lengthAdjust="spacing" textLength="126.8271" x="1007.6948" y="72.1074">CustomerAppServer</text><rect fill="#E2E2F0" height="32.6211" rx="2.5" ry="2.5" style="stroke:#181818;stroke-width:0.5;" width="140.8271" x="1000.6948" y="1844.3359"/><text fill="#000000" font-family="sans-serif" font-size="14" lengthAdjust="spacing" textLength="126.8271" x="1007.6948" y="1866.4434">CustomerAppServer</text><rect fill="#E2E2F0" height="32.6211" rx="2.5" ry="2.5" style="stroke:#181818;stroke-width:0.5;" width="197.6338" x="1151.522" y="50"/><text fill="#000000" font-family="sans-serif" font-size="14" lengthAdjust="spacing" textLength="183.6338" x="1158.522" y="72.1074">CustomerAppMessageParser</text><rect fill="#E2E2F0" height="32.6211" rx="2.5" ry="2.5" style="stroke:#181818;stroke-width:0.5;" width="197.6338" x="1151.522" y="1844.3359"/><text fill="#000000" font-family="sans-serif" font-size="14" lengthAdjust="spacing" textLength="183.6338" x="1158.522" y="1866.4434">CustomerAppMessageParser</text><rect fill="#E2E2F0" height="32.6211" rx="2.5" ry="2.5" style="stroke:#181818;stroke-width:0.5;" width="170.3926" x="1359.1558" y="50"/><text fill="#000000" font-family="sans-serif" font-size="14" lengthAdjust="spacing" textLength="156.3926" x="1366.1558" y="72.1074">UserAppServerController</text><rect fill="#E2E2F0" height="32.6211" rx="2.5" ry="2.5" style="stroke:#181818;stroke-width:0.5;" width="170.3926" x="1359.1558" y="1844.3359"/><text fill="#000000" font-family="sans-serif" font-size="14" lengthAdjust="spacing" textLength="156.3926" x="1366.1558" y="1866.4434">UserAppServerController</text><rect fill="#E2E2F0" height="32.6211" rx="2.5" ry="2.5" style="stroke:#181818;stroke-width:0.5;" width="140.8066" x="1539.5483" y="50"/><text fill="#000000" font-family="sans-serif" font-size="14" lengthAdjust="spacing" textLength="126.8066" x="1546.5483" y="72.1074">MarshlerUnmarshler</text><rect fill="#E2E2F0" height="32.6211" rx="2.5" ry="2.5" style="stroke:#181818;stroke-width:0.5;" width="140.8066" x="1539.5483" y="1844.3359"/><text fill="#000000" font-family="sans-serif" font-size="14" lengthAdjust="spacing" textLength="126.8066" x="1546.5483" y="1866.4434">MarshlerUnmarshler</text><rect fill="#E2E2F0" height="32.6211" rx="2.5" ry="2.5" style="stroke:#181818;stroke-width:0.5;" width="178.9854" x="1690.355" y="50"/><text fill="#000000" font-family="sans-serif" font-size="14" lengthAdjust="spacing" textLength="164.9854" x="1697.355" y="72.1074">GetShodroneUserRequest</text><rect fill="#E2E2F0" height="32.6211" rx="2.5" ry="2.5" style="stroke:#181818;stroke-width:0.5;" width="178.9854" x="1690.355" y="1844.3359"/><text fill="#000000" font-family="sans-serif" font-size="14" lengthAdjust="spacing" textLength="164.9854" x="1697.355" y="1866.4434">GetShodroneUserRequest</text><rect fill="#E2E2F0" height="32.6211" rx="2.5" ry="2.5" style="stroke:#181818;stroke-width:0.5;" width="133.8271" x="1879.3403" y="50"/><text fill="#000000" font-family="sans-serif" font-size="14" lengthAdjust="spacing" textLength="119.8271" x="1886.3403" y="72.1074">ShodroneUserDTO</text><rect fill="#E2E2F0" height="32.6211" rx="2.5" ry="2.5" style="stroke:#181818;stroke-width:0.5;" width="133.8271" x="1879.3403" y="1844.3359"/><text fill="#000000" font-family="sans-serif" font-size="14" lengthAdjust="spacing" textLength="119.8271" x="1886.3403" y="1866.4434">ShodroneUserDTO</text><rect fill="#E2E2F0" height="32.6211" rx="2.5" ry="2.5" style="stroke:#181818;stroke-width:0.5;" width="104.2344" x="2023.1675" y="50"/><text fill="#000000" font-family="sans-serif" font-size="14" lengthAdjust="spacing" textLength="90.2344" x="2030.1675" y="72.1074">CustomerDTO</text><rect fill="#E2E2F0" height="32.6211" rx="2.5" ry="2.5" style="stroke:#181818;stroke-width:0.5;" width="104.2344" x="2023.1675" y="1844.3359"/><text fill="#000000" font-family="sans-serif" font-size="14" lengthAdjust="spacing" textLength="90.2344" x="2030.1675" y="1866.4434">CustomerDTO</text><rect fill="#E2E2F0" height="32.6211" rx="2.5" ry="2.5" style="stroke:#181818;stroke-width:0.5;" width="78.5723" x="2137.4019" y="50"/><text fill="#000000" font-family="sans-serif" font-size="14" lengthAdjust="spacing" textLength="64.5723" x="2144.4019" y="72.1074">ShowDTO</text><rect fill="#E2E2F0" height="32.6211" rx="2.5" ry="2.5" style="stroke:#181818;stroke-width:0.5;" width="78.5723" x="2137.4019" y="1844.3359"/><text fill="#000000" font-family="sans-serif" font-size="14" lengthAdjust="spacing" textLength="64.5723" x="2144.4019" y="1866.4434">ShowDTO</text><rect fill="#E2E2F0" height="32.6211" rx="2.5" ry="2.5" style="stroke:#181818;stroke-width:0.5;" width="171.1924" x="2225.9741" y="50"/><text fill="#000000" font-family="sans-serif" font-size="14" lengthAdjust="spacing" textLength="157.1924" x="2232.9741" y="72.1074">ShodroneUserRepository</text><rect fill="#E2E2F0" height="32.6211" rx="2.5" ry="2.5" style="stroke:#181818;stroke-width:0.5;" width="171.1924" x="2225.9741" y="1844.3359"/><text fill="#000000" font-family="sans-serif" font-size="14" lengthAdjust="spacing" textLength="157.1924" x="2232.9741" y="1866.4434">ShodroneUserRepository</text><rect fill="#E2E2F0" height="32.6211" rx="2.5" ry="2.5" style="stroke:#181818;stroke-width:0.5;" width="141.5996" x="2407.1665" y="50"/><text fill="#000000" font-family="sans-serif" font-size="14" lengthAdjust="spacing" textLength="127.5996" x="2414.1665" y="72.1074">CustomerRepository</text><rect fill="#E2E2F0" height="32.6211" rx="2.5" ry="2.5" style="stroke:#181818;stroke-width:0.5;" width="141.5996" x="2407.1665" y="1844.3359"/><text fill="#000000" font-family="sans-serif" font-size="14" lengthAdjust="spacing" textLength="127.5996" x="2414.1665" y="1866.4434">CustomerRepository</text><rect fill="#E2E2F0" height="32.6211" rx="2.5" ry="2.5" style="stroke:#181818;stroke-width:0.5;" width="176.6406" x="2558.7661" y="50"/><text fill="#000000" font-family="sans-serif" font-size="14" lengthAdjust="spacing" textLength="162.6406" x="2565.7661" y="72.1074">ShowReportingRepository</text><rect fill="#E2E2F0" height="32.6211" rx="2.5" ry="2.5" style="stroke:#181818;stroke-width:0.5;" width="176.6406" x="2558.7661" y="1844.3359"/><text fill="#000000" font-family="sans-serif" font-size="14" lengthAdjust="spacing" textLength="162.6406" x="2565.7661" y="1866.4434">ShowReportingRepository</text><rect fill="#FFFFFF" height="1733.7148" style="stroke:#181818;stroke-width:1.0;" width="10" x="82.3687" y="93.6211"/><rect fill="#FFFFFF" height="1710.4238" style="stroke:#181818;stroke-width:1.0;" width="10" x="371.5337" y="116.9121"/><rect fill="#FFFFFF" height="1522.6777" style="stroke:#181818;stroke-width:1.0;" width="10" x="558.0698" y="148.2031"/><rect fill="#FFFFFF" height="969.7305" style="stroke:#181818;stroke-width:1.0;" width="10" x="563.0698" y="187.4941"/><rect fill="#FFFFFF" height="31.291" style="stroke:#181818;stroke-width:1.0;" width="10" x="558.0698" y="1764.7539"/><rect fill="#FFFFFF" height="451.0742" style="stroke:#181818;stroke-width:1.0;" width="10" x="857.9668" y="223.7852"/><rect fill="#FFFFFF" height="349.2012" style="stroke:#181818;stroke-width:1.0;" width="10" x="862.9668" y="294.3672"/><rect fill="#FFFFFF" height="451.0742" style="stroke:#181818;stroke-width:1.0;" width="10" x="857.9668" y="706.1504"/><rect fill="#FFFFFF" height="349.2012" style="stroke:#181818;stroke-width:1.0;" width="10" x="862.9668" y="776.7324"/><rect fill="#FFFFFF" height="451.0742" style="stroke:#181818;stroke-width:1.0;" width="10" x="857.9668" y="1188.5156"/><rect fill="#FFFFFF" height="349.2012" style="stroke:#181818;stroke-width:1.0;" width="10" x="862.9668" y="1259.0977"/><rect fill="#FFFFFF" height="219.0371" style="stroke:#181818;stroke-width:1.0;" width="10" x="1066.1084" y="330.6582"/><rect fill="#FFFFFF" height="219.0371" style="stroke:#181818;stroke-width:1.0;" width="10" x="1066.1084" y="813.0234"/><rect fill="#FFFFFF" height="219.0371" style="stroke:#181818;stroke-width:1.0;" width="10" x="1066.1084" y="1295.3887"/><rect fill="#FFFFFF" height="125.1641" style="stroke:#181818;stroke-width:1.0;" width="10" x="1245.3389" y="393.2402"/><rect fill="#FFFFFF" height="125.1641" style="stroke:#181818;stroke-width:1.0;" width="10" x="1245.3389" y="875.6055"/><rect fill="#FFFFFF" height="125.1641" style="stroke:#181818;stroke-width:1.0;" width="10" x="1245.3389" y="1357.9707"/><rect fill="#FFFFFF" height="62.582" style="stroke:#181818;stroke-width:1.0;" width="10" x="1439.3521" y="424.5313"/><rect fill="#FFFFFF" height="62.582" style="stroke:#181818;stroke-width:1.0;" width="10" x="1439.3521" y="906.8965"/><rect fill="#FFFFFF" height="62.582" style="stroke:#181818;stroke-width:1.0;" width="10" x="1439.3521" y="1389.2617"/><rect fill="#FFFFFF" height="62.582" style="stroke:#181818;stroke-width:1.0;" width="10" x="1604.9517" y="580.9863"/><rect fill="#FFFFFF" height="62.582" style="stroke:#181818;stroke-width:1.0;" width="10" x="1604.9517" y="1063.3516"/><rect fill="#FFFFFF" height="62.582" style="stroke:#181818;stroke-width:1.0;" width="10" x="1604.9517" y="1545.7168"/><polygon fill="#181818" points="359.5337,112.9121,369.5337,116.9121,359.5337,120.9121,363.5337,116.9121" style="stroke:#181818;stroke-width:1.0;"/><line style="stroke:#181818;stroke-width:1.0;" x1="92.3687" x2="365.5337" y1="116.9121" y2="116.9121"/><text fill="#000000" font-family="sans-serif" font-size="13" lengthAdjust="spacing" textLength="260.165" x="99.3687" y="111.6494">request to show the info of a scheduled show</text><polygon fill="#181818" points="546.0698,144.2031,556.0698,148.2031,546.0698,152.2031,550.0698,148.2031" style="stroke:#181818;stroke-width:1.0;"/><line style="stroke:#181818;stroke-width:1.0;" x1="381.5337" x2="552.0698" y1="148.2031" y2="148.2031"/><text fill="#000000" font-family="sans-serif" font-size="13" lengthAdjust="spacing" textLength="63.5654" x="388.5337" y="142.9404">listShows()</text><line style="stroke:#181818;stroke-width:1.0;" x1="568.0698" x2="615.0698" y1="174.4941" y2="174.4941"/><line style="stroke:#181818;stroke-width:1.0;" x1="615.0698" x2="615.0698" y1="174.4941" y2="187.4941"/><line style="stroke:#181818;stroke-width:1.0;" x1="574.0698" x2="615.0698" y1="187.4941" y2="187.4941"/><polygon fill="#181818" points="584.0698,183.4941,574.0698,187.4941,584.0698,191.4941,580.0698,187.4941" style="stroke:#181818;stroke-width:1.0;"/><text fill="#000000" font-family="sans-serif" font-size="13" lengthAdjust="spacing" textLength="171.2407" x="580.0698" y="169.2314">getRepresenteeOfCustomer()</text><polygon fill="#181818" points="845.9668,219.7852,855.9668,223.7852,845.9668,227.7852,849.9668,223.7852" style="stroke:#181818;stroke-width:1.0;"/><line style="stroke:#181818;stroke-width:1.0;" x1="573.0698" x2="851.9668" y1="223.7852" y2="223.7852"/><text fill="#000000" font-family="sans-serif" font-size="13" lengthAdjust="spacing" textLength="216.0679" x="580.0698" y="218.5225">getShodroneUser(authenticatedUser)</text><polygon fill="#181818" points="1767.8477,251.0762,1777.8477,255.0762,1767.8477,259.0762,1771.8477,255.0762" style="stroke:#181818;stroke-width:1.0;"/><line style="stroke:#181818;stroke-width:1.0;" x1="867.9668" x2="1773.8477" y1="255.0762" y2="255.0762"/><text fill="#000000" font-family="sans-serif" font-size="13" lengthAdjust="spacing" textLength="173.4307" x="874.9668" y="249.8135">toRequest(authenticatedUser)</text><line style="stroke:#181818;stroke-width:1.0;" x1="867.9668" x2="914.9668" y1="281.3672" y2="281.3672"/><line style="stroke:#181818;stroke-width:1.0;" x1="914.9668" x2="914.9668" y1="281.3672" y2="294.3672"/><line style="stroke:#181818;stroke-width:1.0;" x1="873.9668" x2="914.9668" y1="294.3672" y2="294.3672"/><polygon fill="#181818" points="883.9668,290.3672,873.9668,294.3672,883.9668,298.3672,879.9668,294.3672" style="stroke:#181818;stroke-width:1.0;"/><text fill="#000000" font-family="sans-serif" font-size="13" lengthAdjust="spacing" textLength="174.1416" x="879.9668" y="276.1045">socket.sendAndRecv(request)</text><polygon fill="#181818" points="1054.1084,326.6582,1064.1084,330.6582,1054.1084,334.6582,1058.1084,330.6582" style="stroke:#181818;stroke-width:1.0;"/><line style="stroke:#181818;stroke-width:1.0;" x1="872.9668" x2="1060.1084" y1="330.6582" y2="330.6582"/><text fill="#000000" font-family="sans-serif" font-size="13" lengthAdjust="spacing" textLength="128.6289" x="879.9668" y="325.3955">sendRequest(request)</text><polygon fill="#181818" points="1238.3389,357.9492,1248.3389,361.9492,1238.3389,365.9492,1242.3389,361.9492" style="stroke:#181818;stroke-width:1.0;"/><line style="stroke:#181818;stroke-width:1.0;" x1="1076.1084" x2="1244.3389" y1="361.9492" y2="361.9492"/><text fill="#000000" font-family="sans-serif" font-size="13" lengthAdjust="spacing" textLength="84.5381" x="1083.1084" y="356.6865">parse(request)</text><polygon fill="#181818" points="1233.3389,389.2402,1243.3389,393.2402,1233.3389,397.2402,1237.3389,393.2402" style="stroke:#181818;stroke-width:1.0;"/><line style="stroke:#181818;stroke-width:1.0;" x1="1076.1084" x2="1239.3389" y1="393.2402" y2="393.2402"/><text fill="#000000" font-family="sans-serif" font-size="13" lengthAdjust="spacing" textLength="97.5508" x="1083.1084" y="387.9775">execute(request)</text><polygon fill="#181818" points="1427.3521,420.5313,1437.3521,424.5313,1427.3521,428.5313,1431.3521,424.5313" style="stroke:#181818;stroke-width:1.0;"/><line style="stroke:#181818;stroke-width:1.0;" x1="1255.3389" x2="1433.3521" y1="424.5313" y2="424.5313"/><text fill="#000000" font-family="sans-serif" font-size="13" lengthAdjust="spacing" textLength="145.958" x="1262.3389" y="419.2686">parseGetShodroneUser()</text><polygon fill="#181818" points="2299.5703,451.8223,2309.5703,455.8223,2299.5703,459.8223,2303.5703,455.8223" style="stroke:#181818;stroke-width:1.0;"/><line style="stroke:#181818;stroke-width:1.0;" x1="1449.3521" x2="2305.5703" y1="455.8223" y2="455.8223"/><text fill="#000000" font-family="sans-serif" font-size="13" lengthAdjust="spacing" textLength="243.5024" x="1456.3521" y="450.5596">getShodroneUserByUsername(username)</text><polygon fill="#181818" points="1266.3389,483.1133,1256.3389,487.1133,1266.3389,491.1133,1262.3389,487.1133" style="stroke:#181818;stroke-width:1.0;"/><line style="stroke:#181818;stroke-width:1.0;" x1="1260.3389" x2="1443.3521" y1="487.1133" y2="487.1133"/><text fill="#000000" font-family="sans-serif" font-size="13" lengthAdjust="spacing" textLength="53.479" x="1272.3389" y="481.8506">response</text><polygon fill="#181818" points="1087.1084,514.4043,1077.1084,518.4043,1087.1084,522.4043,1083.1084,518.4043" style="stroke:#181818;stroke-width:1.0;"/><line style="stroke:#181818;stroke-width:1.0;" x1="1081.1084" x2="1249.3389" y1="518.4043" y2="518.4043"/><text fill="#000000" font-family="sans-serif" font-size="13" lengthAdjust="spacing" textLength="53.479" x="1093.1084" y="513.1416">response</text><polygon fill="#181818" points="883.9668,545.6953,873.9668,549.6953,883.9668,553.6953,879.9668,549.6953" style="stroke:#181818;stroke-width:1.0;"/><line style="stroke:#181818;stroke-width:1.0;" x1="877.9668" x2="1070.1084" y1="549.6953" y2="549.6953"/><text fill="#000000" font-family="sans-serif" font-size="13" lengthAdjust="spacing" textLength="53.479" x="889.9668" y="544.4326">response</text><polygon fill="#181818" points="1592.9517,576.9863,1602.9517,580.9863,1592.9517,584.9863,1596.9517,580.9863" style="stroke:#181818;stroke-width:1.0;"/><line style="stroke:#181818;stroke-width:1.0;" x1="872.9668" x2="1598.9517" y1="580.9863" y2="580.9863"/><text fill="#000000" font-family="sans-serif" font-size="13" lengthAdjust="spacing" textLength="289.7705" x="879.9668" y="575.7236">parseResponseMessageShodroneUser(response)</text><polygon fill="#181818" points="1934.2539,608.2773,1944.2539,612.2773,1934.2539,616.2773,1938.2539,612.2773" style="stroke:#181818;stroke-width:1.0;"/><line style="stroke:#181818;stroke-width:1.0;" x1="1614.9517" x2="1940.2539" y1="612.2773" y2="612.2773"/><text fill="#000000" font-family="sans-serif" font-size="13" lengthAdjust="spacing" textLength="119.9263" x="1621.9517" y="607.0146">ShodroneUserDTO()</text><polygon fill="#181818" points="878.9668,639.5684,868.9668,643.5684,878.9668,647.5684,874.9668,643.5684" style="stroke:#181818;stroke-width:1.0;"/><line style="stroke:#181818;stroke-width:1.0;" x1="872.9668" x2="1608.9517" y1="643.5684" y2="643.5684"/><text fill="#000000" font-family="sans-serif" font-size="13" lengthAdjust="spacing" textLength="314.3486" x="884.9668" y="638.3057">parseResponseMessageLineShodroneUser(response)</text><polygon fill="#181818" points="584.0698,670.8594,574.0698,674.8594,584.0698,678.8594,580.0698,674.8594" style="stroke:#181818;stroke-width:1.0;"/><line style="stroke:#181818;stroke-width:1.0;" x1="578.0698" x2="861.9668" y1="674.8594" y2="674.8594"/><text fill="#000000" font-family="sans-serif" font-size="13" lengthAdjust="spacing" textLength="81.6563" x="590.0698" y="669.5967">shodroneUser</text><polygon fill="#181818" points="845.9668,702.1504,855.9668,706.1504,845.9668,710.1504,849.9668,706.1504" style="stroke:#181818;stroke-width:1.0;"/><line style="stroke:#181818;stroke-width:1.0;" x1="573.0698" x2="851.9668" y1="706.1504" y2="706.1504"/><text fill="#000000" font-family="sans-serif" font-size="13" lengthAdjust="spacing" textLength="265.897" x="580.0698" y="700.8877">getCustomerOfRepresentative(shodroneUser)</text><polygon fill="#181818" points="2063.2847,733.4414,2073.2847,737.4414,2063.2847,741.4414,2067.2847,737.4414" style="stroke:#181818;stroke-width:1.0;"/><line style="stroke:#181818;stroke-width:1.0;" x1="867.9668" x2="2069.2847" y1="737.4414" y2="737.4414"/><text fill="#000000" font-family="sans-serif" font-size="13" lengthAdjust="spacing" textLength="173.4307" x="874.9668" y="732.1787">toRequest(authenticatedUser)</text><line style="stroke:#181818;stroke-width:1.0;" x1="867.9668" x2="914.9668" y1="763.7324" y2="763.7324"/><line style="stroke:#181818;stroke-width:1.0;" x1="914.9668" x2="914.9668" y1="763.7324" y2="776.7324"/><line style="stroke:#181818;stroke-width:1.0;" x1="873.9668" x2="914.9668" y1="776.7324" y2="776.7324"/><polygon fill="#181818" points="883.9668,772.7324,873.9668,776.7324,883.9668,780.7324,879.9668,776.7324" style="stroke:#181818;stroke-width:1.0;"/><text fill="#000000" font-family="sans-serif" font-size="13" lengthAdjust="spacing" textLength="174.1416" x="879.9668" y="758.4697">socket.sendAndRecv(request)</text><polygon fill="#181818" points="1054.1084,809.0234,1064.1084,813.0234,1054.1084,817.0234,1058.1084,813.0234" style="stroke:#181818;stroke-width:1.0;"/><line style="stroke:#181818;stroke-width:1.0;" x1="872.9668" x2="1060.1084" y1="813.0234" y2="813.0234"/><text fill="#000000" font-family="sans-serif" font-size="13" lengthAdjust="spacing" textLength="128.6289" x="879.9668" y="807.7607">sendRequest(request)</text><polygon fill="#181818" points="1238.3389,840.3145,1248.3389,844.3145,1238.3389,848.3145,1242.3389,844.3145" style="stroke:#181818;stroke-width:1.0;"/><line style="stroke:#181818;stroke-width:1.0;" x1="1076.1084" x2="1244.3389" y1="844.3145" y2="844.3145"/><text fill="#000000" font-family="sans-serif" font-size="13" lengthAdjust="spacing" textLength="84.5381" x="1083.1084" y="839.0518">parse(request)</text><polygon fill="#181818" points="1233.3389,871.6055,1243.3389,875.6055,1233.3389,879.6055,1237.3389,875.6055" style="stroke:#181818;stroke-width:1.0;"/><line style="stroke:#181818;stroke-width:1.0;" x1="1076.1084" x2="1239.3389" y1="875.6055" y2="875.6055"/><text fill="#000000" font-family="sans-serif" font-size="13" lengthAdjust="spacing" textLength="97.5508" x="1083.1084" y="870.3428">execute(request)</text><polygon fill="#181818" points="1427.3521,902.8965,1437.3521,906.8965,1427.3521,910.8965,1431.3521,906.8965" style="stroke:#181818;stroke-width:1.0;"/><line style="stroke:#181818;stroke-width:1.0;" x1="1255.3389" x2="1433.3521" y1="906.8965" y2="906.8965"/><text fill="#000000" font-family="sans-serif" font-size="13" lengthAdjust="spacing" textLength="134.3799" x="1262.3389" y="901.6338">GetCustomerRequest()</text><polygon fill="#181818" points="2465.9663,934.1875,2475.9663,938.1875,2465.9663,942.1875,2469.9663,938.1875" style="stroke:#181818;stroke-width:1.0;"/><line style="stroke:#181818;stroke-width:1.0;" x1="1449.3521" x2="2471.9663" y1="938.1875" y2="938.1875"/><text fill="#000000" font-family="sans-serif" font-size="13" lengthAdjust="spacing" textLength="307.0615" x="1456.3521" y="932.9248">getCustomerByRepresentativeEmail(String repEmail)</text><polygon fill="#181818" points="1266.3389,965.4785,1256.3389,969.4785,1266.3389,973.4785,1262.3389,969.4785" style="stroke:#181818;stroke-width:1.0;"/><line style="stroke:#181818;stroke-width:1.0;" x1="1260.3389" x2="1443.3521" y1="969.4785" y2="969.4785"/><text fill="#000000" font-family="sans-serif" font-size="13" lengthAdjust="spacing" textLength="53.479" x="1272.3389" y="964.2158">response</text><polygon fill="#181818" points="1087.1084,996.7695,1077.1084,1000.7695,1087.1084,1004.7695,1083.1084,1000.7695" style="stroke:#181818;stroke-width:1.0;"/><line style="stroke:#181818;stroke-width:1.0;" x1="1081.1084" x2="1249.3389" y1="1000.7695" y2="1000.7695"/><text fill="#000000" font-family="sans-serif" font-size="13" lengthAdjust="spacing" textLength="53.479" x="1093.1084" y="995.5068">response</text><polygon fill="#181818" points="883.9668,1028.0605,873.9668,1032.0605,883.9668,1036.0605,879.9668,1032.0605" style="stroke:#181818;stroke-width:1.0;"/><line style="stroke:#181818;stroke-width:1.0;" x1="877.9668" x2="1070.1084" y1="1032.0605" y2="1032.0605"/><text fill="#000000" font-family="sans-serif" font-size="13" lengthAdjust="spacing" textLength="53.479" x="889.9668" y="1026.7979">response</text><polygon fill="#181818" points="1592.9517,1059.3516,1602.9517,1063.3516,1592.9517,1067.3516,1596.9517,1063.3516" style="stroke:#181818;stroke-width:1.0;"/><line style="stroke:#181818;stroke-width:1.0;" x1="872.9668" x2="1598.9517" y1="1063.3516" y2="1063.3516"/><text fill="#000000" font-family="sans-serif" font-size="13" lengthAdjust="spacing" textLength="262.2915" x="879.9668" y="1058.0889">parseResponseMessageCustomer(response)</text><polygon fill="#181818" points="2063.2847,1090.6426,2073.2847,1094.6426,2063.2847,1098.6426,2067.2847,1094.6426" style="stroke:#181818;stroke-width:1.0;"/><line style="stroke:#181818;stroke-width:1.0;" x1="1614.9517" x2="2069.2847" y1="1094.6426" y2="1094.6426"/><text fill="#000000" font-family="sans-serif" font-size="13" lengthAdjust="spacing" textLength="92.4473" x="1621.9517" y="1089.3799">CustomerDTO()</text><polygon fill="#181818" points="878.9668,1121.9336,868.9668,1125.9336,878.9668,1129.9336,874.9668,1125.9336" style="stroke:#181818;stroke-width:1.0;"/><line style="stroke:#181818;stroke-width:1.0;" x1="872.9668" x2="1608.9517" y1="1125.9336" y2="1125.9336"/><text fill="#000000" font-family="sans-serif" font-size="13" lengthAdjust="spacing" textLength="286.8696" x="884.9668" y="1120.6709">parseResponseMessageLineCustomer(response)</text><polygon fill="#181818" points="579.0698,1153.2246,569.0698,1157.2246,579.0698,1161.2246,575.0698,1157.2246" style="stroke:#181818;stroke-width:1.0;"/><line style="stroke:#181818;stroke-width:1.0;" x1="573.0698" x2="861.9668" y1="1157.2246" y2="1157.2246"/><text fill="#000000" font-family="sans-serif" font-size="13" lengthAdjust="spacing" textLength="53.46" x="585.0698" y="1151.9619">customer</text><polygon fill="#181818" points="845.9668,1184.5156,855.9668,1188.5156,845.9668,1192.5156,849.9668,1188.5156" style="stroke:#181818;stroke-width:1.0;"/><line style="stroke:#181818;stroke-width:1.0;" x1="568.0698" x2="851.9668" y1="1188.5156" y2="1188.5156"/><text fill="#000000" font-family="sans-serif" font-size="13" lengthAdjust="spacing" textLength="190.728" x="575.0698" y="1183.2529">getShowsByCustomer(customer)</text><polygon fill="#181818" points="2164.688,1215.8066,2174.688,1219.8066,2164.688,1223.8066,2168.688,1219.8066" style="stroke:#181818;stroke-width:1.0;"/><line style="stroke:#181818;stroke-width:1.0;" x1="867.9668" x2="2170.688" y1="1219.8066" y2="1219.8066"/><text fill="#000000" font-family="sans-serif" font-size="13" lengthAdjust="spacing" textLength="121.3799" x="874.9668" y="1214.5439">toRequest(customer)</text><line style="stroke:#181818;stroke-width:1.0;" x1="867.9668" x2="914.9668" y1="1246.0977" y2="1246.0977"/><line style="stroke:#181818;stroke-width:1.0;" x1="914.9668" x2="914.9668" y1="1246.0977" y2="1259.0977"/><line style="stroke:#181818;stroke-width:1.0;" x1="873.9668" x2="914.9668" y1="1259.0977" y2="1259.0977"/><polygon fill="#181818" points="883.9668,1255.0977,873.9668,1259.0977,883.9668,1263.0977,879.9668,1259.0977" style="stroke:#181818;stroke-width:1.0;"/><text fill="#000000" font-family="sans-serif" font-size="13" lengthAdjust="spacing" textLength="174.1416" x="879.9668" y="1240.835">socket.sendAndRecv(request)</text><polygon fill="#181818" points="1054.1084,1291.3887,1064.1084,1295.3887,1054.1084,1299.3887,1058.1084,1295.3887" style="stroke:#181818;stroke-width:1.0;"/><line style="stroke:#181818;stroke-width:1.0;" x1="872.9668" x2="1060.1084" y1="1295.3887" y2="1295.3887"/><text fill="#000000" font-family="sans-serif" font-size="13" lengthAdjust="spacing" textLength="128.6289" x="879.9668" y="1290.126">sendRequest(request)</text><polygon fill="#181818" points="1238.3389,1322.6797,1248.3389,1326.6797,1238.3389,1330.6797,1242.3389,1326.6797" style="stroke:#181818;stroke-width:1.0;"/><line style="stroke:#181818;stroke-width:1.0;" x1="1076.1084" x2="1244.3389" y1="1326.6797" y2="1326.6797"/><text fill="#000000" font-family="sans-serif" font-size="13" lengthAdjust="spacing" textLength="84.5381" x="1083.1084" y="1321.417">parse(request)</text><polygon fill="#181818" points="1233.3389,1353.9707,1243.3389,1357.9707,1233.3389,1361.9707,1237.3389,1357.9707" style="stroke:#181818;stroke-width:1.0;"/><line style="stroke:#181818;stroke-width:1.0;" x1="1076.1084" x2="1239.3389" y1="1357.9707" y2="1357.9707"/><text fill="#000000" font-family="sans-serif" font-size="13" lengthAdjust="spacing" textLength="97.5508" x="1083.1084" y="1352.708">execute(request)</text><polygon fill="#181818" points="1427.3521,1385.2617,1437.3521,1389.2617,1427.3521,1393.2617,1431.3521,1389.2617" style="stroke:#181818;stroke-width:1.0;"/><line style="stroke:#181818;stroke-width:1.0;" x1="1255.3389" x2="1433.3521" y1="1389.2617" y2="1389.2617"/><text fill="#000000" font-family="sans-serif" font-size="13" lengthAdjust="spacing" textLength="117.0508" x="1262.3389" y="1383.999">GetShowsRequest()</text><polygon fill="#181818" points="2635.0864,1416.5527,2645.0864,1420.5527,2635.0864,1424.5527,2639.0864,1420.5527" style="stroke:#181818;stroke-width:1.0;"/><line style="stroke:#181818;stroke-width:1.0;" x1="1449.3521" x2="2641.0864" y1="1420.5527" y2="1420.5527"/><text fill="#000000" font-family="sans-serif" font-size="13" lengthAdjust="spacing" textLength="202.2871" x="1456.3521" y="1415.29">findShowsOfCustomer(vatNumber)</text><polygon fill="#181818" points="1266.3389,1447.8438,1256.3389,1451.8438,1266.3389,1455.8438,1262.3389,1451.8438" style="stroke:#181818;stroke-width:1.0;"/><line style="stroke:#181818;stroke-width:1.0;" x1="1260.3389" x2="1443.3521" y1="1451.8438" y2="1451.8438"/><text fill="#000000" font-family="sans-serif" font-size="13" lengthAdjust="spacing" textLength="53.479" x="1272.3389" y="1446.5811">response</text><polygon fill="#181818" points="1087.1084,1479.1348,1077.1084,1483.1348,1087.1084,1487.1348,1083.1084,1483.1348" style="stroke:#181818;stroke-width:1.0;"/><line style="stroke:#181818;stroke-width:1.0;" x1="1081.1084" x2="1249.3389" y1="1483.1348" y2="1483.1348"/><text fill="#000000" font-family="sans-serif" font-size="13" lengthAdjust="spacing" textLength="53.479" x="1093.1084" y="1477.8721">response</text><polygon fill="#181818" points="883.9668,1510.4258,873.9668,1514.4258,883.9668,1518.4258,879.9668,1514.4258" style="stroke:#181818;stroke-width:1.0;"/><line style="stroke:#181818;stroke-width:1.0;" x1="877.9668" x2="1070.1084" y1="1514.4258" y2="1514.4258"/><text fill="#000000" font-family="sans-serif" font-size="13" lengthAdjust="spacing" textLength="53.479" x="889.9668" y="1509.1631">response</text><polygon fill="#181818" points="1592.9517,1541.7168,1602.9517,1545.7168,1592.9517,1549.7168,1596.9517,1545.7168" style="stroke:#181818;stroke-width:1.0;"/><line style="stroke:#181818;stroke-width:1.0;" x1="872.9668" x2="1598.9517" y1="1545.7168" y2="1545.7168"/><text fill="#000000" font-family="sans-serif" font-size="13" lengthAdjust="spacing" textLength="238.4624" x="879.9668" y="1540.4541">parseResponseMessageShow(response)</text><polygon fill="#181818" points="2164.688,1573.0078,2174.688,1577.0078,2164.688,1581.0078,2168.688,1577.0078" style="stroke:#181818;stroke-width:1.0;"/><line style="stroke:#181818;stroke-width:1.0;" x1="1614.9517" x2="2170.688" y1="1577.0078" y2="1577.0078"/><text fill="#000000" font-family="sans-serif" font-size="13" lengthAdjust="spacing" textLength="68.6182" x="1621.9517" y="1571.7451">ShowDTO()</text><polygon fill="#181818" points="878.9668,1604.2988,868.9668,1608.2988,878.9668,1612.2988,874.9668,1608.2988" style="stroke:#181818;stroke-width:1.0;"/><line style="stroke:#181818;stroke-width:1.0;" x1="872.9668" x2="1608.9517" y1="1608.2988" y2="1608.2988"/><text fill="#000000" font-family="sans-serif" font-size="13" lengthAdjust="spacing" textLength="263.0405" x="884.9668" y="1603.0361">parseResponseMessageLineShow(response)</text><polygon fill="#181818" points="579.0698,1635.5898,569.0698,1639.5898,579.0698,1643.5898,575.0698,1639.5898" style="stroke:#181818;stroke-width:1.0;"/><line style="stroke:#181818;stroke-width:1.0;" x1="573.0698" x2="861.9668" y1="1639.5898" y2="1639.5898"/><text fill="#000000" font-family="sans-serif" font-size="13" lengthAdjust="spacing" textLength="36.8481" x="585.0698" y="1634.3271">shows</text><polygon fill="#181818" points="392.5337,1666.8809,382.5337,1670.8809,392.5337,1674.8809,388.5337,1670.8809" style="stroke:#181818;stroke-width:1.0;"/><line style="stroke:#181818;stroke-width:1.0;" x1="386.5337" x2="562.0698" y1="1670.8809" y2="1670.8809"/><text fill="#000000" font-family="sans-serif" font-size="13" lengthAdjust="spacing" textLength="36.8481" x="398.5337" y="1665.6182">shows</text><polygon fill="#181818" points="103.3687,1698.1719,93.3687,1702.1719,103.3687,1706.1719,99.3687,1702.1719" style="stroke:#181818;stroke-width:1.0;"/><line style="stroke:#181818;stroke-width:1.0;" x1="97.3687" x2="370.5337" y1="1702.1719" y2="1702.1719"/><text fill="#000000" font-family="sans-serif" font-size="13" lengthAdjust="spacing" textLength="123.5571" x="109.3687" y="1696.9092">asks to select a show</text><polygon fill="#181818" points="359.5337,1729.4629,369.5337,1733.4629,359.5337,1737.4629,363.5337,1733.4629" style="stroke:#181818;stroke-width:1.0;"/><line style="stroke:#181818;stroke-width:1.0;" x1="92.3687" x2="365.5337" y1="1733.4629" y2="1733.4629"/><text fill="#000000" font-family="sans-serif" font-size="13" lengthAdjust="spacing" textLength="85.2617" x="99.3687" y="1728.2002">selects a show</text><polygon fill="#181818" points="546.0698,1760.7539,556.0698,1764.7539,546.0698,1768.7539,550.0698,1764.7539" style="stroke:#181818;stroke-width:1.0;"/><line style="stroke:#181818;stroke-width:1.0;" x1="381.5337" x2="552.0698" y1="1764.7539" y2="1764.7539"/><text fill="#000000" font-family="sans-serif" font-size="13" lengthAdjust="spacing" textLength="157.5361" x="388.5337" y="1759.4912">obtainShow(selectedShow)</text><polygon fill="#181818" points="392.5337,1792.0449,382.5337,1796.0449,392.5337,1800.0449,388.5337,1796.0449" style="stroke:#181818;stroke-width:1.0;"/><line style="stroke:#181818;stroke-width:1.0;" x1="386.5337" x2="562.0698" y1="1796.0449" y2="1796.0449"/><text fill="#000000" font-family="sans-serif" font-size="13" lengthAdjust="spacing" textLength="30.3481" x="398.5337" y="1790.7822">show</text><polygon fill="#181818" points="98.3687,1823.3359,88.3687,1827.3359,98.3687,1831.3359,94.3687,1827.3359" style="stroke:#181818;stroke-width:1.0;"/><line style="stroke:#181818;stroke-width:1.0;" x1="92.3687" x2="375.5337" y1="1827.3359" y2="1827.3359"/><text fill="#000000" font-family="sans-serif" font-size="13" lengthAdjust="spacing" textLength="103.3335" x="104.3687" y="1822.0732">show info of show</text><!--SRC=[xLVDRjim3BxxAOIUlCFs03iCwCzG15ZM8bqUGBMPngWZUPBSD6y_KZ-sP2jfkbk7NLfPvlUH8lbP3A-CLEpYkjT6xa2n5NGAD0Z3JVC25unhjjQWYeuhqrHDnuLX5mzRkL-8ZLmldC4Y__fQ2gDasuAoPkDZQXvyNtRTlP96LhB5_wy72xAhe_OFe5uykriUjLo2rlm9xhdI7k2MAO2EEj1EmfzkfiWbicrnTorsVcL1otLgTWi6irChAO1yhU1t3zfOKrndCpqOt_ow6-fnOsJ-gC68dcT6L9XWODSPWoYsJke6k-CGx9DNUVSJ46tFZSarxUAMU9gxiU-AWbVOWTo0wx-2_hBFtx3Ps5UcNDwOaKmZW9aji0OxZiaDuqnNMwZx5chxCY9Q8Cs2ICOg8bdRQ2hANfUVHjkepaLaFSK-WHaK0t2t2Nb0gdEuR7SxcZY_9U_nH08pXl2QTc8w9ud2OP74DmxI6EaRAaim089NBQjdC5ymzlfIr2keNagVs5Fkd0u83WHo_Z8uByZ2svDVgpX4ThI8C1aJU8MgDv0Do0ctyBP3I4bXh8k9sifvU75fPYp4FEdwUQsk3lHNy1sKlL-WcopPS3ZibquA3KLHmuc0fWUCaH7GvoDAeg_l2JSOuLZHvJeaREKH_ckP92-mnKd4prk1Q9Ab-oWXqUIJHKbt9Y6idASVZJZgBGgU_2L7d_HcqW8wuikXZaenYFXkazw6PSn8HPumZc6uZ-z_HSRbk1qJ6s9ylnx3XP8MwkgG5khxZZTj-M0KtY-eWiu-VmnLlYtAuOevBSYn1wFHu7mnvhnCX7Yk3YjFbG54E-TUadjzTHY22zGdrU46dKIC4UvT6lpu4hGP_7lzXV4CoJQDg2rRDFKWqyz-z-Y-Zl-2sEY0aGJY_dSw6hlB3zVlkkzYxZVLTVoQs-kCVPfuEpOxqxpet63i1qckdxKThg65oj18JODqEeExTtfyEP-ivQFXZR3dTDPWE-QysNY8k3WdOlip8Fm4cA5mye-Vg5V-0000]--></g></svg>