<svg xmlns="http://www.w3.org/2000/svg" xmlns:xlink="http://www.w3.org/1999/xlink" contentStyleType="text/css" height="1102.4px" preserveAspectRatio="none" style="width:1521px;height:1102px;background:#FFFFFF;" version="1.1" viewBox="0 0 1521 1102" width="1521.6px" zoomAndPan="magnify"><defs/><g><rect fill="#FFFFFF" height="946.7813" style="stroke:#181818;stroke-width:0.8000000000000002;" width="8" x="47.2137" y="74.8969"/><rect fill="#FFFFFF" height="928.1484" style="stroke:#181818;stroke-width:0.8000000000000002;" width="8" x="278.5457" y="93.5297"/><rect fill="#FFFFFF" height="777.9516" style="stroke:#181818;stroke-width:0.8000000000000002;" width="8" x="427.7746" y="118.5625"/><rect fill="#FFFFFF" height="375.2594" style="stroke:#181818;stroke-width:0.8000000000000002;" width="8" x="431.7746" y="149.9953"/><rect fill="#FFFFFF" height="25.0328" style="stroke:#181818;stroke-width:0.8000000000000002;" width="8" x="427.7746" y="971.6125"/><rect fill="#FFFFFF" height="160.5969" style="stroke:#181818;stroke-width:0.8000000000000002;" width="8" x="667.6922" y="179.0281"/><rect fill="#FFFFFF" height="79.0984" style="stroke:#181818;stroke-width:0.8000000000000002;" width="8" x="671.6922" y="235.4938"/><rect fill="#FFFFFF" height="160.5969" style="stroke:#181818;stroke-width:0.8000000000000002;" width="8" x="667.6922" y="364.6578"/><rect fill="#FFFFFF" height="79.0984" style="stroke:#181818;stroke-width:0.8000000000000002;" width="8" x="671.6922" y="421.1234"/><rect fill="#FFFFFF" height="321.1938" style="stroke:#181818;stroke-width:0.8000000000000002;" width="8" x="667.6922" y="550.2875"/><rect fill="#FFFFFF" height="79.0984" style="stroke:#181818;stroke-width:0.8000000000000002;" width="8" x="671.6922" y="606.7531"/><rect fill="#FFFFFF" height="79.0984" style="stroke:#181818;stroke-width:0.8000000000000002;" width="8" x="671.6922" y="742.3172"/><rect fill="#FFFFFF" height="50.0656" style="stroke:#181818;stroke-width:0.8000000000000002;" width="8" x="950.3711" y="264.5266"/><rect fill="#FFFFFF" height="50.0656" style="stroke:#181818;stroke-width:0.8000000000000002;" width="8" x="950.3711" y="450.1563"/><rect fill="#FFFFFF" height="50.0656" style="stroke:#181818;stroke-width:0.8000000000000002;" width="8" x="950.3711" y="635.7859"/><rect fill="#FFFFFF" height="50.0656" style="stroke:#181818;stroke-width:0.8000000000000002;" width="8" x="950.3711" y="771.35"/><line style="stroke:#181818;stroke-width:0.4000000000000001;stroke-dasharray:5.0,5.0;" x1="51.2" x2="51.2" y1="66.8969" y2="1036.0781"/><line style="stroke:#181818;stroke-width:0.4000000000000001;stroke-dasharray:5.0,5.0;" x1="282.3969" x2="282.3969" y1="66.8969" y2="1036.0781"/><line style="stroke:#181818;stroke-width:0.4000000000000001;stroke-dasharray:5.0,5.0;" x1="431.35" x2="431.35" y1="66.8969" y2="1036.0781"/><line style="stroke:#181818;stroke-width:0.4000000000000001;stroke-dasharray:5.0,5.0;" x1="671.3613" x2="671.3613" y1="66.8969" y2="1036.0781"/><line style="stroke:#181818;stroke-width:0.4000000000000001;stroke-dasharray:5.0,5.0;" x1="954.0484" x2="954.0484" y1="66.8969" y2="1036.0781"/><line style="stroke:#181818;stroke-width:0.4000000000000001;stroke-dasharray:5.0,5.0;" x1="1072.7813" x2="1072.7813" y1="66.8969" y2="1036.0781"/><line style="stroke:#181818;stroke-width:0.4000000000000001;stroke-dasharray:5.0,5.0;" x1="1176.643" x2="1176.643" y1="66.8969" y2="1036.0781"/><line style="stroke:#181818;stroke-width:0.4000000000000001;stroke-dasharray:5.0,5.0;" x1="1279.2305" x2="1279.2305" y1="66.8969" y2="1036.0781"/><line style="stroke:#181818;stroke-width:0.4000000000000001;stroke-dasharray:5.0,5.0;" x1="1393.4922" x2="1393.4922" y1="66.8969" y2="1036.0781"/><line style="stroke:#181818;stroke-width:0.4000000000000001;stroke-dasharray:5.0,5.0;" x1="1485.2656" x2="1485.2656" y1="66.8969" y2="1036.0781"/><text fill="#000000" font-family="sans-serif" font-size="11.2" lengthAdjust="spacing" textLength="89.6273" x="4" y="64.0859">CRM Collaborator</text><ellipse cx="51.2137" cy="10.8" fill="#E2E2F0" rx="6.4" ry="6.4" style="stroke:#181818;stroke-width:0.4000000000000001;"/><path d="M51.2137,17.2 L51.2137,38.8 M40.8137,23.6 L61.6137,23.6 M51.2137,38.8 L40.8137,50.8 M51.2137,38.8 L61.6137,50.8 " fill="none" style="stroke:#181818;stroke-width:0.4000000000000001;"/><text fill="#000000" font-family="sans-serif" font-size="11.2" lengthAdjust="spacing" textLength="89.6273" x="4" y="1047.3641">CRM Collaborator</text><ellipse cx="51.2137" cy="1056.975" fill="#E2E2F0" rx="6.4" ry="6.4" style="stroke:#181818;stroke-width:0.4000000000000001;"/><path d="M51.2137,1063.375 L51.2137,1084.975 M40.8137,1069.775 L61.6137,1069.775 M51.2137,1084.975 L40.8137,1096.975 M51.2137,1084.975 L61.6137,1096.975 " fill="none" style="stroke:#181818;stroke-width:0.4000000000000001;"/><rect fill="#E2E2F0" height="26.0969" rx="2" ry="2" style="stroke:#181818;stroke-width:0.4000000000000001;" width="69.0977" x="247.9969" y="40"/><text fill="#000000" font-family="sans-serif" font-size="11.2" lengthAdjust="spacing" textLength="57.8977" x="253.5969" y="57.6859">ShowInfoUI</text><rect fill="#E2E2F0" height="26.0969" rx="2" ry="2" style="stroke:#181818;stroke-width:0.4000000000000001;" width="69.0977" x="247.9969" y="1035.2781"/><text fill="#000000" font-family="sans-serif" font-size="11.2" lengthAdjust="spacing" textLength="57.8977" x="253.5969" y="1052.9641">ShowInfoUI</text><rect fill="#E2E2F0" height="26.0969" rx="2" ry="2" style="stroke:#181818;stroke-width:0.4000000000000001;" width="106.4492" x="378.55" y="40"/><text fill="#000000" font-family="sans-serif" font-size="11.2" lengthAdjust="spacing" textLength="95.2492" x="384.15" y="57.6859">ShowInfoController</text><rect fill="#E2E2F0" height="26.0969" rx="2" ry="2" style="stroke:#181818;stroke-width:0.4000000000000001;" width="106.4492" x="378.55" y="1035.2781"/><text fill="#000000" font-family="sans-serif" font-size="11.2" lengthAdjust="spacing" textLength="95.2492" x="384.15" y="1052.9641">ShowInfoController</text><rect fill="#E2E2F0" height="26.0969" rx="2" ry="2" style="stroke:#181818;stroke-width:0.4000000000000001;" width="112.6617" x="615.3613" y="40"/><text fill="#000000" font-family="sans-serif" font-size="11.2" lengthAdjust="spacing" textLength="101.4617" x="620.9613" y="57.6859">CustomerAppServer</text><rect fill="#E2E2F0" height="26.0969" rx="2" ry="2" style="stroke:#181818;stroke-width:0.4000000000000001;" width="112.6617" x="615.3613" y="1035.2781"/><text fill="#000000" font-family="sans-serif" font-size="11.2" lengthAdjust="spacing" textLength="101.4617" x="620.9613" y="1052.9641">CustomerAppServer</text><rect fill="#E2E2F0" height="26.0969" rx="2" ry="2" style="stroke:#181818;stroke-width:0.4000000000000001;" width="112.6453" x="898.0484" y="40"/><text fill="#000000" font-family="sans-serif" font-size="11.2" lengthAdjust="spacing" textLength="101.4453" x="903.6484" y="57.6859">MarshlerUnmarshler</text><rect fill="#E2E2F0" height="26.0969" rx="2" ry="2" style="stroke:#181818;stroke-width:0.4000000000000001;" width="112.6453" x="898.0484" y="1035.2781"/><text fill="#000000" font-family="sans-serif" font-size="11.2" lengthAdjust="spacing" textLength="101.4453" x="903.6484" y="1052.9641">MarshlerUnmarshler</text><rect fill="#E2E2F0" height="26.0969" rx="2" ry="2" style="stroke:#181818;stroke-width:0.4000000000000001;" width="107.0617" x="1019.9813" y="40"/><text fill="#000000" font-family="sans-serif" font-size="11.2" lengthAdjust="spacing" textLength="95.8617" x="1025.5813" y="57.6859">ShodroneUserDTO</text><rect fill="#E2E2F0" height="26.0969" rx="2" ry="2" style="stroke:#181818;stroke-width:0.4000000000000001;" width="107.0617" x="1019.9813" y="1035.2781"/><text fill="#000000" font-family="sans-serif" font-size="11.2" lengthAdjust="spacing" textLength="95.8617" x="1025.5813" y="1052.9641">ShodroneUserDTO</text><rect fill="#E2E2F0" height="26.0969" rx="2" ry="2" style="stroke:#181818;stroke-width:0.4000000000000001;" width="83.3875" x="1135.043" y="40"/><text fill="#000000" font-family="sans-serif" font-size="11.2" lengthAdjust="spacing" textLength="72.1875" x="1140.643" y="57.6859">CustomerDTO</text><rect fill="#E2E2F0" height="26.0969" rx="2" ry="2" style="stroke:#181818;stroke-width:0.4000000000000001;" width="83.3875" x="1135.043" y="1035.2781"/><text fill="#000000" font-family="sans-serif" font-size="11.2" lengthAdjust="spacing" textLength="72.1875" x="1140.643" y="1052.9641">CustomerDTO</text><rect fill="#E2E2F0" height="26.0969" rx="2" ry="2" style="stroke:#181818;stroke-width:0.4000000000000001;" width="107.0617" x="1226.4305" y="40"/><text fill="#000000" font-family="sans-serif" font-size="11.2" lengthAdjust="spacing" textLength="95.8617" x="1232.0305" y="57.6859">ShowProposalDTO</text><rect fill="#E2E2F0" height="26.0969" rx="2" ry="2" style="stroke:#181818;stroke-width:0.4000000000000001;" width="107.0617" x="1226.4305" y="1035.2781"/><text fill="#000000" font-family="sans-serif" font-size="11.2" lengthAdjust="spacing" textLength="95.8617" x="1232.0305" y="1052.9641">ShowProposalDTO</text><rect fill="#E2E2F0" height="26.0969" rx="2" ry="2" style="stroke:#181818;stroke-width:0.4000000000000001;" width="104.5734" x="1341.4922" y="40"/><text fill="#000000" font-family="sans-serif" font-size="11.2" lengthAdjust="spacing" textLength="93.3734" x="1347.0922" y="57.6859">ShowRequestDTO</text><rect fill="#E2E2F0" height="26.0969" rx="2" ry="2" style="stroke:#181818;stroke-width:0.4000000000000001;" width="104.5734" x="1341.4922" y="1035.2781"/><text fill="#000000" font-family="sans-serif" font-size="11.2" lengthAdjust="spacing" textLength="93.3734" x="1347.0922" y="1052.9641">ShowRequestDTO</text><rect fill="#E2E2F0" height="26.0969" rx="2" ry="2" style="stroke:#181818;stroke-width:0.4000000000000001;" width="62.8578" x="1454.0656" y="40"/><text fill="#000000" font-family="sans-serif" font-size="11.2" lengthAdjust="spacing" textLength="51.6578" x="1459.6656" y="57.6859">ShowDTO</text><rect fill="#E2E2F0" height="26.0969" rx="2" ry="2" style="stroke:#181818;stroke-width:0.4000000000000001;" width="62.8578" x="1454.0656" y="1035.2781"/><text fill="#000000" font-family="sans-serif" font-size="11.2" lengthAdjust="spacing" textLength="51.6578" x="1459.6656" y="1052.9641">ShowDTO</text><rect fill="#FFFFFF" height="946.7813" style="stroke:#181818;stroke-width:0.8000000000000002;" width="8" x="47.2137" y="74.8969"/><rect fill="#FFFFFF" height="928.1484" style="stroke:#181818;stroke-width:0.8000000000000002;" width="8" x="278.5457" y="93.5297"/><rect fill="#FFFFFF" height="777.9516" style="stroke:#181818;stroke-width:0.8000000000000002;" width="8" x="427.7746" y="118.5625"/><rect fill="#FFFFFF" height="375.2594" style="stroke:#181818;stroke-width:0.8000000000000002;" width="8" x="431.7746" y="149.9953"/><rect fill="#FFFFFF" height="25.0328" style="stroke:#181818;stroke-width:0.8000000000000002;" width="8" x="427.7746" y="971.6125"/><rect fill="#FFFFFF" height="160.5969" style="stroke:#181818;stroke-width:0.8000000000000002;" width="8" x="667.6922" y="179.0281"/><rect fill="#FFFFFF" height="79.0984" style="stroke:#181818;stroke-width:0.8000000000000002;" width="8" x="671.6922" y="235.4938"/><rect fill="#FFFFFF" height="160.5969" style="stroke:#181818;stroke-width:0.8000000000000002;" width="8" x="667.6922" y="364.6578"/><rect fill="#FFFFFF" height="79.0984" style="stroke:#181818;stroke-width:0.8000000000000002;" width="8" x="671.6922" y="421.1234"/><rect fill="#FFFFFF" height="321.1938" style="stroke:#181818;stroke-width:0.8000000000000002;" width="8" x="667.6922" y="550.2875"/><rect fill="#FFFFFF" height="79.0984" style="stroke:#181818;stroke-width:0.8000000000000002;" width="8" x="671.6922" y="606.7531"/><rect fill="#FFFFFF" height="79.0984" style="stroke:#181818;stroke-width:0.8000000000000002;" width="8" x="671.6922" y="742.3172"/><rect fill="#FFFFFF" height="50.0656" style="stroke:#181818;stroke-width:0.8000000000000002;" width="8" x="950.3711" y="264.5266"/><rect fill="#FFFFFF" height="50.0656" style="stroke:#181818;stroke-width:0.8000000000000002;" width="8" x="950.3711" y="450.1563"/><rect fill="#FFFFFF" height="50.0656" style="stroke:#181818;stroke-width:0.8000000000000002;" width="8" x="950.3711" y="635.7859"/><rect fill="#FFFFFF" height="50.0656" style="stroke:#181818;stroke-width:0.8000000000000002;" width="8" x="950.3711" y="771.35"/><polygon fill="#181818" points="268.9457,90.3297,276.9457,93.5297,268.9457,96.7297,272.1457,93.5297" style="stroke:#181818;stroke-width:0.8000000000000002;"/><line style="stroke:#181818;stroke-width:0.8000000000000002;" x1="55.2137" x2="273.7457" y1="93.5297" y2="93.5297"/><text fill="#000000" font-family="sans-serif" font-size="10.4" lengthAdjust="spacing" textLength="208.132" x="60.8137" y="89.3195">request to show the info of a scheduled show</text><polygon fill="#181818" points="418.1746,115.3625,426.1746,118.5625,418.1746,121.7625,421.3746,118.5625" style="stroke:#181818;stroke-width:0.8000000000000002;"/><line style="stroke:#181818;stroke-width:0.8000000000000002;" x1="286.5457" x2="422.9746" y1="118.5625" y2="118.5625"/><text fill="#000000" font-family="sans-serif" font-size="10.4" lengthAdjust="spacing" textLength="50.8523" x="292.1457" y="114.3523">listShows()</text><line style="stroke:#181818;stroke-width:0.8000000000000002;" x1="435.7746" x2="473.3746" y1="139.5953" y2="139.5953"/><line style="stroke:#181818;stroke-width:0.8000000000000002;" x1="473.3746" x2="473.3746" y1="139.5953" y2="149.9953"/><line style="stroke:#181818;stroke-width:0.8000000000000002;" x1="440.5746" x2="473.3746" y1="149.9953" y2="149.9953"/><polygon fill="#181818" points="448.5746,146.7953,440.5746,149.9953,448.5746,153.1953,445.3746,149.9953" style="stroke:#181818;stroke-width:0.8000000000000002;"/><text fill="#000000" font-family="sans-serif" font-size="10.4" lengthAdjust="spacing" textLength="136.9926" x="445.3746" y="135.3852">getRepresenteeOfCustomer()</text><polygon fill="#181818" points="658.0922,175.8281,666.0922,179.0281,658.0922,182.2281,661.2922,179.0281" style="stroke:#181818;stroke-width:0.8000000000000002;"/><line style="stroke:#181818;stroke-width:0.8000000000000002;" x1="439.7746" x2="662.8922" y1="179.0281" y2="179.0281"/><text fill="#000000" font-family="sans-serif" font-size="10.4" lengthAdjust="spacing" textLength="172.8543" x="445.3746" y="174.818">getShodroneUser(authenticatedUser)</text><polygon fill="#181818" points="1063.9121,200.8609,1071.9121,204.0609,1063.9121,207.2609,1067.1121,204.0609" style="stroke:#181818;stroke-width:0.8000000000000002;"/><line style="stroke:#181818;stroke-width:0.8000000000000002;" x1="675.6922" x2="1068.7121" y1="204.0609" y2="204.0609"/><text fill="#000000" font-family="sans-serif" font-size="10.4" lengthAdjust="spacing" textLength="138.7445" x="681.2922" y="199.8508">toRequest(authenticatedUser)</text><line style="stroke:#181818;stroke-width:0.8000000000000002;" x1="675.6922" x2="713.2922" y1="225.0938" y2="225.0938"/><line style="stroke:#181818;stroke-width:0.8000000000000002;" x1="713.2922" x2="713.2922" y1="225.0938" y2="235.4938"/><line style="stroke:#181818;stroke-width:0.8000000000000002;" x1="680.4922" x2="713.2922" y1="235.4938" y2="235.4938"/><polygon fill="#181818" points="688.4922,232.2938,680.4922,235.4938,688.4922,238.6938,685.2922,235.4938" style="stroke:#181818;stroke-width:0.8000000000000002;"/><text fill="#000000" font-family="sans-serif" font-size="10.4" lengthAdjust="spacing" textLength="139.3133" x="685.2922" y="220.8836">socket.sendAndRecv(request)</text><polygon fill="#181818" points="940.7711,261.3266,948.7711,264.5266,940.7711,267.7266,943.9711,264.5266" style="stroke:#181818;stroke-width:0.8000000000000002;"/><line style="stroke:#181818;stroke-width:0.8000000000000002;" x1="679.6922" x2="945.5711" y1="264.5266" y2="264.5266"/><text fill="#000000" font-family="sans-serif" font-size="10.4" lengthAdjust="spacing" textLength="231.8164" x="685.2922" y="260.3164">parseResponseMessageShodroneUser(response)</text><polygon fill="#181818" points="1063.9121,286.3594,1071.9121,289.5594,1063.9121,292.7594,1067.1121,289.5594" style="stroke:#181818;stroke-width:0.8000000000000002;"/><line style="stroke:#181818;stroke-width:0.8000000000000002;" x1="958.3711" x2="1068.7121" y1="289.5594" y2="289.5594"/><text fill="#000000" font-family="sans-serif" font-size="10.4" lengthAdjust="spacing" textLength="95.941" x="963.9711" y="285.3492">ShodroneUserDTO()</text><polygon fill="#181818" points="684.4922,311.3922,676.4922,314.5922,684.4922,317.7922,681.2922,314.5922" style="stroke:#181818;stroke-width:0.8000000000000002;"/><line style="stroke:#181818;stroke-width:0.8000000000000002;" x1="679.6922" x2="953.5711" y1="314.5922" y2="314.5922"/><text fill="#000000" font-family="sans-serif" font-size="10.4" lengthAdjust="spacing" textLength="251.4789" x="689.2922" y="310.382">parseResponseMessageLineShodroneUser(response)</text><polygon fill="#181818" points="448.5746,336.425,440.5746,339.625,448.5746,342.825,445.3746,339.625" style="stroke:#181818;stroke-width:0.8000000000000002;"/><line style="stroke:#181818;stroke-width:0.8000000000000002;" x1="443.7746" x2="670.8922" y1="339.625" y2="339.625"/><text fill="#000000" font-family="sans-serif" font-size="10.4" lengthAdjust="spacing" textLength="65.325" x="453.3746" y="335.4148">shodroneUser</text><polygon fill="#181818" points="658.0922,361.4578,666.0922,364.6578,658.0922,367.8578,661.2922,364.6578" style="stroke:#181818;stroke-width:0.8000000000000002;"/><line style="stroke:#181818;stroke-width:0.8000000000000002;" x1="439.7746" x2="662.8922" y1="364.6578" y2="364.6578"/><text fill="#000000" font-family="sans-serif" font-size="10.4" lengthAdjust="spacing" textLength="212.7176" x="445.3746" y="360.4477">getCustomerOfRepresentative(shodroneUser)</text><polygon fill="#181818" points="1167.1367,386.4906,1175.1367,389.6906,1167.1367,392.8906,1170.3367,389.6906" style="stroke:#181818;stroke-width:0.8000000000000002;"/><line style="stroke:#181818;stroke-width:0.8000000000000002;" x1="675.6922" x2="1171.9367" y1="389.6906" y2="389.6906"/><text fill="#000000" font-family="sans-serif" font-size="10.4" lengthAdjust="spacing" textLength="138.7445" x="681.2922" y="385.4805">toRequest(authenticatedUser)</text><line style="stroke:#181818;stroke-width:0.8000000000000002;" x1="675.6922" x2="713.2922" y1="410.7234" y2="410.7234"/><line style="stroke:#181818;stroke-width:0.8000000000000002;" x1="713.2922" x2="713.2922" y1="410.7234" y2="421.1234"/><line style="stroke:#181818;stroke-width:0.8000000000000002;" x1="680.4922" x2="713.2922" y1="421.1234" y2="421.1234"/><polygon fill="#181818" points="688.4922,417.9234,680.4922,421.1234,688.4922,424.3234,685.2922,421.1234" style="stroke:#181818;stroke-width:0.8000000000000002;"/><text fill="#000000" font-family="sans-serif" font-size="10.4" lengthAdjust="spacing" textLength="139.3133" x="685.2922" y="406.5133">socket.sendAndRecv(request)</text><polygon fill="#181818" points="940.7711,446.9563,948.7711,450.1563,940.7711,453.3563,943.9711,450.1563" style="stroke:#181818;stroke-width:0.8000000000000002;"/><line style="stroke:#181818;stroke-width:0.8000000000000002;" x1="679.6922" x2="945.5711" y1="450.1563" y2="450.1563"/><text fill="#000000" font-family="sans-serif" font-size="10.4" lengthAdjust="spacing" textLength="209.8332" x="685.2922" y="445.9461">parseResponseMessageCustomer(response)</text><polygon fill="#181818" points="1167.1367,471.9891,1175.1367,475.1891,1167.1367,478.3891,1170.3367,475.1891" style="stroke:#181818;stroke-width:0.8000000000000002;"/><line style="stroke:#181818;stroke-width:0.8000000000000002;" x1="958.3711" x2="1171.9367" y1="475.1891" y2="475.1891"/><text fill="#000000" font-family="sans-serif" font-size="10.4" lengthAdjust="spacing" textLength="73.9578" x="963.9711" y="470.9789">CustomerDTO()</text><polygon fill="#181818" points="684.4922,497.0219,676.4922,500.2219,684.4922,503.4219,681.2922,500.2219" style="stroke:#181818;stroke-width:0.8000000000000002;"/><line style="stroke:#181818;stroke-width:0.8000000000000002;" x1="679.6922" x2="953.5711" y1="500.2219" y2="500.2219"/><text fill="#000000" font-family="sans-serif" font-size="10.4" lengthAdjust="spacing" textLength="229.4957" x="689.2922" y="496.0117">parseResponseMessageLineCustomer(response)</text><polygon fill="#181818" points="444.5746,522.0547,436.5746,525.2547,444.5746,528.4547,441.3746,525.2547" style="stroke:#181818;stroke-width:0.8000000000000002;"/><line style="stroke:#181818;stroke-width:0.8000000000000002;" x1="439.7746" x2="670.8922" y1="525.2547" y2="525.2547"/><text fill="#000000" font-family="sans-serif" font-size="10.4" lengthAdjust="spacing" textLength="42.768" x="449.3746" y="521.0445">customer</text><polygon fill="#181818" points="658.0922,547.0875,666.0922,550.2875,658.0922,553.4875,661.2922,550.2875" style="stroke:#181818;stroke-width:0.8000000000000002;"/><line style="stroke:#181818;stroke-width:0.8000000000000002;" x1="435.7746" x2="662.8922" y1="550.2875" y2="550.2875"/><text fill="#000000" font-family="sans-serif" font-size="10.4" lengthAdjust="spacing" textLength="152.5824" x="441.3746" y="546.0773">getShowsByCustomer(customer)</text><polygon fill="#181818" points="1384.1789,572.1203,1392.1789,575.3203,1384.1789,578.5203,1387.3789,575.3203" style="stroke:#181818;stroke-width:0.8000000000000002;"/><line style="stroke:#181818;stroke-width:0.8000000000000002;" x1="675.6922" x2="1388.9789" y1="575.3203" y2="575.3203"/><text fill="#000000" font-family="sans-serif" font-size="10.4" lengthAdjust="spacing" textLength="97.1039" x="681.2922" y="571.1102">toRequest(customer)</text><line style="stroke:#181818;stroke-width:0.8000000000000002;" x1="675.6922" x2="713.2922" y1="596.3531" y2="596.3531"/><line style="stroke:#181818;stroke-width:0.8000000000000002;" x1="713.2922" x2="713.2922" y1="596.3531" y2="606.7531"/><line style="stroke:#181818;stroke-width:0.8000000000000002;" x1="680.4922" x2="713.2922" y1="606.7531" y2="606.7531"/><polygon fill="#181818" points="688.4922,603.5531,680.4922,606.7531,688.4922,609.9531,685.2922,606.7531" style="stroke:#181818;stroke-width:0.8000000000000002;"/><text fill="#000000" font-family="sans-serif" font-size="10.4" lengthAdjust="spacing" textLength="139.3133" x="685.2922" y="592.143">socket.sendAndRecv(request)</text><polygon fill="#181818" points="940.7711,632.5859,948.7711,635.7859,940.7711,638.9859,943.9711,635.7859" style="stroke:#181818;stroke-width:0.8000000000000002;"/><line style="stroke:#181818;stroke-width:0.8000000000000002;" x1="679.6922" x2="945.5711" y1="635.7859" y2="635.7859"/><text fill="#000000" font-family="sans-serif" font-size="10.4" lengthAdjust="spacing" textLength="229.5059" x="685.2922" y="631.5758">parseResponseMessageShowRequest(response)</text><polygon fill="#181818" points="1384.1789,657.6188,1392.1789,660.8188,1384.1789,664.0188,1387.3789,660.8188" style="stroke:#181818;stroke-width:0.8000000000000002;"/><line style="stroke:#181818;stroke-width:0.8000000000000002;" x1="958.3711" x2="1388.9789" y1="660.8188" y2="660.8188"/><text fill="#000000" font-family="sans-serif" font-size="10.4" lengthAdjust="spacing" textLength="93.6305" x="963.9711" y="656.6086">ShowRequestDTO()</text><polygon fill="#181818" points="684.4922,682.6516,676.4922,685.8516,684.4922,689.0516,681.2922,685.8516" style="stroke:#181818;stroke-width:0.8000000000000002;"/><line style="stroke:#181818;stroke-width:0.8000000000000002;" x1="679.6922" x2="953.5711" y1="685.8516" y2="685.8516"/><text fill="#000000" font-family="sans-serif" font-size="10.4" lengthAdjust="spacing" textLength="249.1684" x="689.2922" y="681.6414">parseResponseMessageLineShowRequest(response)</text><polygon fill="#181818" points="1270.3613,707.6844,1278.3613,710.8844,1270.3613,714.0844,1273.5613,710.8844" style="stroke:#181818;stroke-width:0.8000000000000002;"/><line style="stroke:#181818;stroke-width:0.8000000000000002;" x1="675.6922" x2="1275.1613" y1="710.8844" y2="710.8844"/><text fill="#000000" font-family="sans-serif" font-size="10.4" lengthAdjust="spacing" textLength="97.1039" x="681.2922" y="706.6742">toRequest(customer)</text><line style="stroke:#181818;stroke-width:0.8000000000000002;" x1="675.6922" x2="713.2922" y1="731.9172" y2="731.9172"/><line style="stroke:#181818;stroke-width:0.8000000000000002;" x1="713.2922" x2="713.2922" y1="731.9172" y2="742.3172"/><line style="stroke:#181818;stroke-width:0.8000000000000002;" x1="680.4922" x2="713.2922" y1="742.3172" y2="742.3172"/><polygon fill="#181818" points="688.4922,739.1172,680.4922,742.3172,688.4922,745.5172,685.2922,742.3172" style="stroke:#181818;stroke-width:0.8000000000000002;"/><text fill="#000000" font-family="sans-serif" font-size="10.4" lengthAdjust="spacing" textLength="144.5133" x="685.2922" y="727.707">socket.sendAndRecv(requests)</text><polygon fill="#181818" points="940.7711,768.15,948.7711,771.35,940.7711,774.55,943.9711,771.35" style="stroke:#181818;stroke-width:0.8000000000000002;"/><line style="stroke:#181818;stroke-width:0.8000000000000002;" x1="679.6922" x2="945.5711" y1="771.35" y2="771.35"/><text fill="#000000" font-family="sans-serif" font-size="10.4" lengthAdjust="spacing" textLength="231.8164" x="685.2922" y="767.1398">parseResponseMessageShowProposal(response)</text><polygon fill="#181818" points="1270.3613,793.1828,1278.3613,796.3828,1270.3613,799.5828,1273.5613,796.3828" style="stroke:#181818;stroke-width:0.8000000000000002;"/><line style="stroke:#181818;stroke-width:0.8000000000000002;" x1="958.3711" x2="1275.1613" y1="796.3828" y2="796.3828"/><text fill="#000000" font-family="sans-serif" font-size="10.4" lengthAdjust="spacing" textLength="95.941" x="963.9711" y="792.1727">ShowProposalDTO()</text><polygon fill="#181818" points="684.4922,818.2156,676.4922,821.4156,684.4922,824.6156,681.2922,821.4156" style="stroke:#181818;stroke-width:0.8000000000000002;"/><line style="stroke:#181818;stroke-width:0.8000000000000002;" x1="679.6922" x2="953.5711" y1="821.4156" y2="821.4156"/><text fill="#000000" font-family="sans-serif" font-size="10.4" lengthAdjust="spacing" textLength="251.4789" x="689.2922" y="817.2055">parseResponseMessageLineShowProposal(response)</text><polygon fill="#181818" points="1475.8945,843.2484,1483.8945,846.4484,1475.8945,849.6484,1479.0945,846.4484" style="stroke:#181818;stroke-width:0.8000000000000002;"/><line style="stroke:#181818;stroke-width:0.8000000000000002;" x1="675.6922" x2="1480.6945" y1="846.4484" y2="846.4484"/><text fill="#000000" font-family="sans-serif" font-size="10.4" lengthAdjust="spacing" textLength="338.7262" x="681.2922" y="842.2383">createShowDTOsFromShowProposalsAndRequests(proposals, requests)</text><polygon fill="#181818" points="444.5746,868.2813,436.5746,871.4813,444.5746,874.6813,441.3746,871.4813" style="stroke:#181818;stroke-width:0.8000000000000002;"/><line style="stroke:#181818;stroke-width:0.8000000000000002;" x1="439.7746" x2="670.8922" y1="871.4813" y2="871.4813"/><text fill="#000000" font-family="sans-serif" font-size="10.4" lengthAdjust="spacing" textLength="29.4785" x="449.3746" y="867.2711">shows</text><polygon fill="#181818" points="295.3457,893.3141,287.3457,896.5141,295.3457,899.7141,292.1457,896.5141" style="stroke:#181818;stroke-width:0.8000000000000002;"/><line style="stroke:#181818;stroke-width:0.8000000000000002;" x1="290.5457" x2="430.9746" y1="896.5141" y2="896.5141"/><text fill="#000000" font-family="sans-serif" font-size="10.4" lengthAdjust="spacing" textLength="29.4785" x="300.1457" y="892.3039">shows</text><polygon fill="#181818" points="64.0137,918.3469,56.0137,921.5469,64.0137,924.7469,60.8137,921.5469" style="stroke:#181818;stroke-width:0.8000000000000002;"/><line style="stroke:#181818;stroke-width:0.8000000000000002;" x1="59.2137" x2="277.7457" y1="921.5469" y2="921.5469"/><text fill="#000000" font-family="sans-serif" font-size="10.4" lengthAdjust="spacing" textLength="98.8457" x="68.8137" y="917.3367">asks to select a show</text><polygon fill="#181818" points="268.9457,943.3797,276.9457,946.5797,268.9457,949.7797,272.1457,946.5797" style="stroke:#181818;stroke-width:0.8000000000000002;"/><line style="stroke:#181818;stroke-width:0.8000000000000002;" x1="55.2137" x2="273.7457" y1="946.5797" y2="946.5797"/><text fill="#000000" font-family="sans-serif" font-size="10.4" lengthAdjust="spacing" textLength="68.2094" x="60.8137" y="942.3695">selects a show</text><polygon fill="#181818" points="418.1746,968.4125,426.1746,971.6125,418.1746,974.8125,421.3746,971.6125" style="stroke:#181818;stroke-width:0.8000000000000002;"/><line style="stroke:#181818;stroke-width:0.8000000000000002;" x1="286.5457" x2="422.9746" y1="971.6125" y2="971.6125"/><text fill="#000000" font-family="sans-serif" font-size="10.4" lengthAdjust="spacing" textLength="126.0289" x="292.1457" y="967.4023">obtainShow(selectedShow)</text><polygon fill="#181818" points="295.3457,993.4453,287.3457,996.6453,295.3457,999.8453,292.1457,996.6453" style="stroke:#181818;stroke-width:0.8000000000000002;"/><line style="stroke:#181818;stroke-width:0.8000000000000002;" x1="290.5457" x2="430.9746" y1="996.6453" y2="996.6453"/><text fill="#000000" font-family="sans-serif" font-size="10.4" lengthAdjust="spacing" textLength="24.2785" x="300.1457" y="992.4352">show</text><polygon fill="#181818" points="60.0137,1018.4781,52.0137,1021.6781,60.0137,1024.8781,56.8137,1021.6781" style="stroke:#181818;stroke-width:0.8000000000000002;"/><line style="stroke:#181818;stroke-width:0.8000000000000002;" x1="55.2137" x2="281.7457" y1="1021.6781" y2="1021.6781"/><text fill="#000000" font-family="sans-serif" font-size="10.4" lengthAdjust="spacing" textLength="82.6668" x="64.8137" y="1017.468">show info of show</text><!--SRC=[pLR1Zfim4Btp5LPEL6hx0NjOQPjLfKX5MR7b0xmmsQ0bDlKuYVht7MC3Td0GxAaNXF6RD-FtR0-yr5AnpJRFs5Os3N-JYjEN3UF82WILj5pfkgnRBZJRl1xbTISEijXPm2u-lPL2As83opCEG_ZsZ5gUG3srxIkeYqFRrn2PSOL7YY_4oRrrqAn89WLKIWembJ__tW-hUDOodhe7cV44P9RpecGhaJSzq8oZm1p-d85878w6KLW_txqJ8E6bhYzSWrKxCK_sxP6aPGzCMKwc9KF2Ctq4LfE-J1uOPrWUeJetK7MJ7j6EQ7Q6P1IUo9eQjScAwPSHwrcJUEZRs7VGERGA48G6s1zw-OXg2PUrrFBu5gNyJ4iIf135L-QBp-SsGkAYZIZMIYBIqkaTfHWZXimeom_Gtsa1rPEeSYWlgLDtFcLMK32vY903jb8WP838to5OXt9pFfVPd1GTb7spFury5ZBK6KlrgnPtqrKG9FJ7qyK4dgB768sxxs5l__umx0fEmP3wd5JSH5Yl57lW_WihXzqyR-DOidTxhB0mbkR6lkNkbOui5k9zMdmch_ZZxr1WJpwlfxtY0WV7m9M-tTyeSmUmltGzHNqvhIz3cU4jJSOjFtgHHA5piyQvdd57gNLIuQUrwZlPh5XZgJVDRzrL5KksPgkxxcZskGA2kCw9FvKy-VJOgME5ITl-urSsYZLp-rqnLaLuIhesRB7nKsKRRTUr7wYlVs3NhA61KfiMRHfpsDFj78wJqqujtpIlXLbdQj5GcS6oNZjKd2ofkFkjw7yf9b7q9-6FJAFu1m00]--></g></svg>