<?xml version="1.0" encoding="UTF-8" standalone="no"?><svg xmlns="http://www.w3.org/2000/svg" xmlns:xlink="http://www.w3.org/1999/xlink" contentStyleType="text/css" height="2366px" preserveAspectRatio="none" style="width:3780px;height:2366px;background:#FFFFFF;" version="1.1" viewBox="0 0 3780 2366" width="3780px" zoomAndPan="magnify"><defs/><g><rect fill="#FFFFFF" height="2158.4375" style="stroke:#181818;stroke-width:1.0;" width="10" x="114.5" y="100.1563"/><rect fill="#FFFFFF" height="2127.2813" style="stroke:#181818;stroke-width:1.0;" width="10" x="540.5" y="131.3125"/><rect fill="#FFFFFF" height="1892.3438" style="stroke:#181818;stroke-width:1.0;" width="10" x="808.5" y="170.4688"/><rect fill="#FFFFFF" height="1205.6875" style="stroke:#181818;stroke-width:1.0;" width="10" x="813.5" y="217.625"/><rect fill="#FFFFFF" height="39.1563" style="stroke:#181818;stroke-width:1.0;" width="10" x="808.5" y="2180.2813"/><rect fill="#FFFFFF" height="561.1875" style="stroke:#181818;stroke-width:1.0;" width="10" x="1245.5" y="261.7813"/><rect fill="#FFFFFF" height="435.7188" style="stroke:#181818;stroke-width:1.0;" width="10" x="1250.5" y="348.0938"/><rect fill="#FFFFFF" height="561.1875" style="stroke:#181818;stroke-width:1.0;" width="10" x="1245.5" y="862.125"/><rect fill="#FFFFFF" height="435.7188" style="stroke:#181818;stroke-width:1.0;" width="10" x="1250.5" y="948.4375"/><rect fill="#FFFFFF" height="561.1875" style="stroke:#181818;stroke-width:1.0;" width="10" x="1245.5" y="1462.4688"/><rect fill="#FFFFFF" height="435.7188" style="stroke:#181818;stroke-width:1.0;" width="10" x="1250.5" y="1548.7813"/><rect fill="#FFFFFF" height="274.0938" style="stroke:#181818;stroke-width:1.0;" width="10" x="1533.5" y="392.25"/><rect fill="#FFFFFF" height="274.0938" style="stroke:#181818;stroke-width:1.0;" width="10" x="1533.5" y="992.5938"/><rect fill="#FFFFFF" height="274.0938" style="stroke:#181818;stroke-width:1.0;" width="10" x="1533.5" y="1592.9375"/><rect fill="#FFFFFF" height="156.625" style="stroke:#181818;stroke-width:1.0;" width="10" x="1776.5" y="470.5625"/><rect fill="#FFFFFF" height="156.625" style="stroke:#181818;stroke-width:1.0;" width="10" x="1776.5" y="1070.9063"/><rect fill="#FFFFFF" height="156.625" style="stroke:#181818;stroke-width:1.0;" width="10" x="1776.5" y="1671.25"/><rect fill="#FFFFFF" height="78.3125" style="stroke:#181818;stroke-width:1.0;" width="10" x="2040" y="509.7188"/><rect fill="#FFFFFF" height="78.3125" style="stroke:#181818;stroke-width:1.0;" width="10" x="2040" y="1110.0625"/><rect fill="#FFFFFF" height="78.3125" style="stroke:#181818;stroke-width:1.0;" width="10" x="2040" y="1710.4063"/><rect fill="#FFFFFF" height="78.3125" style="stroke:#181818;stroke-width:1.0;" width="10" x="2261.5" y="705.5"/><rect fill="#FFFFFF" height="78.3125" style="stroke:#181818;stroke-width:1.0;" width="10" x="2261.5" y="1305.8438"/><rect fill="#FFFFFF" height="78.3125" style="stroke:#181818;stroke-width:1.0;" width="10" x="2261.5" y="1906.1875"/><line style="stroke:#181818;stroke-width:0.5;stroke-dasharray:5.0,5.0;" x1="119" x2="119" y1="90.1563" y2="2276.5938"/><line style="stroke:#181818;stroke-width:0.5;stroke-dasharray:5.0,5.0;" x1="545" x2="545" y1="90.1563" y2="2276.5938"/><line style="stroke:#181818;stroke-width:0.5;stroke-dasharray:5.0,5.0;" x1="813" x2="813" y1="90.1563" y2="2276.5938"/><line style="stroke:#181818;stroke-width:0.5;stroke-dasharray:5.0,5.0;" x1="1250" x2="1250" y1="90.1563" y2="2276.5938"/><line style="stroke:#181818;stroke-width:0.5;stroke-dasharray:5.0,5.0;" x1="1538.5" x2="1538.5" y1="90.1563" y2="2276.5938"/><line style="stroke:#181818;stroke-width:0.5;stroke-dasharray:5.0,5.0;" x1="1781.5" x2="1781.5" y1="90.1563" y2="2276.5938"/><line style="stroke:#181818;stroke-width:0.5;stroke-dasharray:5.0,5.0;" x1="2044.5" x2="2044.5" y1="90.1563" y2="2276.5938"/><line style="stroke:#181818;stroke-width:0.5;stroke-dasharray:5.0,5.0;" x1="2266.5" x2="2266.5" y1="90.1563" y2="2276.5938"/><line style="stroke:#181818;stroke-width:0.5;stroke-dasharray:5.0,5.0;" x1="2493.5" x2="2493.5" y1="90.1563" y2="2276.5938"/><line style="stroke:#181818;stroke-width:0.5;stroke-dasharray:5.0,5.0;" x1="2716.5" x2="2716.5" y1="90.1563" y2="2276.5938"/><line style="stroke:#181818;stroke-width:0.5;stroke-dasharray:5.0,5.0;" x1="2887.5" x2="2887.5" y1="90.1563" y2="2276.5938"/><line style="stroke:#181818;stroke-width:0.5;stroke-dasharray:5.0,5.0;" x1="3020.5" x2="3020.5" y1="90.1563" y2="2276.5938"/><line style="stroke:#181818;stroke-width:0.5;stroke-dasharray:5.0,5.0;" x1="3200.5" x2="3200.5" y1="90.1563" y2="2276.5938"/><line style="stroke:#181818;stroke-width:0.5;stroke-dasharray:5.0,5.0;" x1="3424.5" x2="3424.5" y1="90.1563" y2="2276.5938"/><line style="stroke:#181818;stroke-width:0.5;stroke-dasharray:5.0,5.0;" x1="3652.5" x2="3652.5" y1="90.1563" y2="2276.5938"/><text fill="#000000" font-family="sans-serif" font-size="20" lengthAdjust="spacing" textLength="223" x="5" y="85.7617">Customer Representative</text><ellipse cx="119.5" cy="13.5" fill="#E2E2F0" rx="8" ry="8" style="stroke:#181818;stroke-width:0.5;"/><path d="M119.5,21.5 L119.5,48.5 M106.5,29.5 L132.5,29.5 M119.5,48.5 L106.5,63.5 M119.5,48.5 L132.5,63.5 " fill="none" style="stroke:#181818;stroke-width:0.5;"/><text fill="#000000" font-family="sans-serif" font-size="20" lengthAdjust="spacing" textLength="223" x="5" y="2296.3555">Customer Representative</text><ellipse cx="119.5" cy="2309.25" fill="#E2E2F0" rx="8" ry="8" style="stroke:#181818;stroke-width:0.5;"/><path d="M119.5,2317.25 L119.5,2344.25 M106.5,2325.25 L132.5,2325.25 M119.5,2344.25 L106.5,2359.25 M119.5,2344.25 L132.5,2359.25 " fill="none" style="stroke:#181818;stroke-width:0.5;"/><rect fill="#E2E2F0" height="39.1563" rx="2.5" ry="2.5" style="stroke:#181818;stroke-width:0.5;" width="115" x="488" y="50"/><text fill="#000000" font-family="sans-serif" font-size="20" lengthAdjust="spacing" textLength="101" x="495" y="77.7617">ShowInfoUI</text><rect fill="#E2E2F0" height="39.1563" rx="2.5" ry="2.5" style="stroke:#181818;stroke-width:0.5;" width="115" x="488" y="2275.5938"/><text fill="#000000" font-family="sans-serif" font-size="20" lengthAdjust="spacing" textLength="101" x="495" y="2303.3555">ShowInfoUI</text><rect fill="#E2E2F0" height="39.1563" rx="2.5" ry="2.5" style="stroke:#181818;stroke-width:0.5;" width="181" x="723" y="50"/><text fill="#000000" font-family="sans-serif" font-size="20" lengthAdjust="spacing" textLength="167" x="730" y="77.7617">ShowInfoController</text><rect fill="#E2E2F0" height="39.1563" rx="2.5" ry="2.5" style="stroke:#181818;stroke-width:0.5;" width="181" x="723" y="2275.5938"/><text fill="#000000" font-family="sans-serif" font-size="20" lengthAdjust="spacing" textLength="167" x="730" y="2303.3555">ShowInfoController</text><rect fill="#E2E2F0" height="39.1563" rx="2.5" ry="2.5" style="stroke:#181818;stroke-width:0.5;" width="257" x="1122" y="50"/><text fill="#000000" font-family="sans-serif" font-size="20" lengthAdjust="spacing" textLength="243" x="1129" y="77.7617">CustomerAppProtocolProxy</text><rect fill="#E2E2F0" height="39.1563" rx="2.5" ry="2.5" style="stroke:#181818;stroke-width:0.5;" width="257" x="1122" y="2275.5938"/><text fill="#000000" font-family="sans-serif" font-size="20" lengthAdjust="spacing" textLength="243" x="1129" y="2303.3555">CustomerAppProtocolProxy</text><rect fill="#E2E2F0" height="39.1563" rx="2.5" ry="2.5" style="stroke:#181818;stroke-width:0.5;" width="192" x="1442.5" y="50"/><text fill="#000000" font-family="sans-serif" font-size="20" lengthAdjust="spacing" textLength="178" x="1449.5" y="77.7617">CustomerAppServer</text><rect fill="#E2E2F0" height="39.1563" rx="2.5" ry="2.5" style="stroke:#181818;stroke-width:0.5;" width="192" x="1442.5" y="2275.5938"/><text fill="#000000" font-family="sans-serif" font-size="20" lengthAdjust="spacing" textLength="178" x="1449.5" y="2303.3555">CustomerAppServer</text><rect fill="#E2E2F0" height="39.1563" rx="2.5" ry="2.5" style="stroke:#181818;stroke-width:0.5;" width="274" x="1644.5" y="50"/><text fill="#000000" font-family="sans-serif" font-size="20" lengthAdjust="spacing" textLength="260" x="1651.5" y="77.7617">CustomerAppMessageParser</text><rect fill="#E2E2F0" height="39.1563" rx="2.5" ry="2.5" style="stroke:#181818;stroke-width:0.5;" width="274" x="1644.5" y="2275.5938"/><text fill="#000000" font-family="sans-serif" font-size="20" lengthAdjust="spacing" textLength="260" x="1651.5" y="2303.3555">CustomerAppMessageParser</text><rect fill="#E2E2F0" height="39.1563" rx="2.5" ry="2.5" style="stroke:#181818;stroke-width:0.5;" width="233" x="1928.5" y="50"/><text fill="#000000" font-family="sans-serif" font-size="20" lengthAdjust="spacing" textLength="219" x="1935.5" y="77.7617">UserAppServerController</text><rect fill="#E2E2F0" height="39.1563" rx="2.5" ry="2.5" style="stroke:#181818;stroke-width:0.5;" width="233" x="1928.5" y="2275.5938"/><text fill="#000000" font-family="sans-serif" font-size="20" lengthAdjust="spacing" textLength="219" x="1935.5" y="2303.3555">UserAppServerController</text><rect fill="#E2E2F0" height="39.1563" rx="2.5" ry="2.5" style="stroke:#181818;stroke-width:0.5;" width="190" x="2171.5" y="50"/><text fill="#000000" font-family="sans-serif" font-size="20" lengthAdjust="spacing" textLength="176" x="2178.5" y="77.7617">MarshlerUnmarshler</text><rect fill="#E2E2F0" height="39.1563" rx="2.5" ry="2.5" style="stroke:#181818;stroke-width:0.5;" width="190" x="2171.5" y="2275.5938"/><text fill="#000000" font-family="sans-serif" font-size="20" lengthAdjust="spacing" textLength="176" x="2178.5" y="2303.3555">MarshlerUnmarshler</text><rect fill="#E2E2F0" height="39.1563" rx="2.5" ry="2.5" style="stroke:#181818;stroke-width:0.5;" width="245" x="2371.5" y="50"/><text fill="#000000" font-family="sans-serif" font-size="20" lengthAdjust="spacing" textLength="231" x="2378.5" y="77.7617">GetShodroneUserRequest</text><rect fill="#E2E2F0" height="39.1563" rx="2.5" ry="2.5" style="stroke:#181818;stroke-width:0.5;" width="245" x="2371.5" y="2275.5938"/><text fill="#000000" font-family="sans-serif" font-size="20" lengthAdjust="spacing" textLength="231" x="2378.5" y="2303.3555">GetShodroneUserRequest</text><rect fill="#E2E2F0" height="39.1563" rx="2.5" ry="2.5" style="stroke:#181818;stroke-width:0.5;" width="181" x="2626.5" y="50"/><text fill="#000000" font-family="sans-serif" font-size="20" lengthAdjust="spacing" textLength="167" x="2633.5" y="77.7617">ShodroneUserDTO</text><rect fill="#E2E2F0" height="39.1563" rx="2.5" ry="2.5" style="stroke:#181818;stroke-width:0.5;" width="181" x="2626.5" y="2275.5938"/><text fill="#000000" font-family="sans-serif" font-size="20" lengthAdjust="spacing" textLength="167" x="2633.5" y="2303.3555">ShodroneUserDTO</text><rect fill="#E2E2F0" height="39.1563" rx="2.5" ry="2.5" style="stroke:#181818;stroke-width:0.5;" width="141" x="2817.5" y="50"/><text fill="#000000" font-family="sans-serif" font-size="20" lengthAdjust="spacing" textLength="127" x="2824.5" y="77.7617">CustomerDTO</text><rect fill="#E2E2F0" height="39.1563" rx="2.5" ry="2.5" style="stroke:#181818;stroke-width:0.5;" width="141" x="2817.5" y="2275.5938"/><text fill="#000000" font-family="sans-serif" font-size="20" lengthAdjust="spacing" textLength="127" x="2824.5" y="2303.3555">CustomerDTO</text><rect fill="#E2E2F0" height="39.1563" rx="2.5" ry="2.5" style="stroke:#181818;stroke-width:0.5;" width="105" x="2968.5" y="50"/><text fill="#000000" font-family="sans-serif" font-size="20" lengthAdjust="spacing" textLength="91" x="2975.5" y="77.7617">ShowDTO</text><rect fill="#E2E2F0" height="39.1563" rx="2.5" ry="2.5" style="stroke:#181818;stroke-width:0.5;" width="105" x="2968.5" y="2275.5938"/><text fill="#000000" font-family="sans-serif" font-size="20" lengthAdjust="spacing" textLength="91" x="2975.5" y="2303.3555">ShowDTO</text><rect fill="#E2E2F0" height="39.1563" rx="2.5" ry="2.5" style="stroke:#181818;stroke-width:0.5;" width="234" x="3083.5" y="50"/><text fill="#000000" font-family="sans-serif" font-size="20" lengthAdjust="spacing" textLength="220" x="3090.5" y="77.7617">ShodroneUserRepository</text><rect fill="#E2E2F0" height="39.1563" rx="2.5" ry="2.5" style="stroke:#181818;stroke-width:0.5;" width="234" x="3083.5" y="2275.5938"/><text fill="#000000" font-family="sans-serif" font-size="20" lengthAdjust="spacing" textLength="220" x="3090.5" y="2303.3555">ShodroneUserRepository</text><rect fill="#E2E2F0" height="39.1563" rx="2.5" ry="2.5" style="stroke:#181818;stroke-width:0.5;" width="194" x="3327.5" y="50"/><text fill="#000000" font-family="sans-serif" font-size="20" lengthAdjust="spacing" textLength="180" x="3334.5" y="77.7617">CustomerRepository</text><rect fill="#E2E2F0" height="39.1563" rx="2.5" ry="2.5" style="stroke:#181818;stroke-width:0.5;" width="194" x="3327.5" y="2275.5938"/><text fill="#000000" font-family="sans-serif" font-size="20" lengthAdjust="spacing" textLength="180" x="3334.5" y="2303.3555">CustomerRepository</text><rect fill="#E2E2F0" height="39.1563" rx="2.5" ry="2.5" style="stroke:#181818;stroke-width:0.5;" width="243" x="3531.5" y="50"/><text fill="#000000" font-family="sans-serif" font-size="20" lengthAdjust="spacing" textLength="229" x="3538.5" y="77.7617">ShowReportingRepository</text><rect fill="#E2E2F0" height="39.1563" rx="2.5" ry="2.5" style="stroke:#181818;stroke-width:0.5;" width="243" x="3531.5" y="2275.5938"/><text fill="#000000" font-family="sans-serif" font-size="20" lengthAdjust="spacing" textLength="229" x="3538.5" y="2303.3555">ShowReportingRepository</text><rect fill="#FFFFFF" height="2158.4375" style="stroke:#181818;stroke-width:1.0;" width="10" x="114.5" y="100.1563"/><rect fill="#FFFFFF" height="2127.2813" style="stroke:#181818;stroke-width:1.0;" width="10" x="540.5" y="131.3125"/><rect fill="#FFFFFF" height="1892.3438" style="stroke:#181818;stroke-width:1.0;" width="10" x="808.5" y="170.4688"/><rect fill="#FFFFFF" height="1205.6875" style="stroke:#181818;stroke-width:1.0;" width="10" x="813.5" y="217.625"/><rect fill="#FFFFFF" height="39.1563" style="stroke:#181818;stroke-width:1.0;" width="10" x="808.5" y="2180.2813"/><rect fill="#FFFFFF" height="561.1875" style="stroke:#181818;stroke-width:1.0;" width="10" x="1245.5" y="261.7813"/><rect fill="#FFFFFF" height="435.7188" style="stroke:#181818;stroke-width:1.0;" width="10" x="1250.5" y="348.0938"/><rect fill="#FFFFFF" height="561.1875" style="stroke:#181818;stroke-width:1.0;" width="10" x="1245.5" y="862.125"/><rect fill="#FFFFFF" height="435.7188" style="stroke:#181818;stroke-width:1.0;" width="10" x="1250.5" y="948.4375"/><rect fill="#FFFFFF" height="561.1875" style="stroke:#181818;stroke-width:1.0;" width="10" x="1245.5" y="1462.4688"/><rect fill="#FFFFFF" height="435.7188" style="stroke:#181818;stroke-width:1.0;" width="10" x="1250.5" y="1548.7813"/><rect fill="#FFFFFF" height="274.0938" style="stroke:#181818;stroke-width:1.0;" width="10" x="1533.5" y="392.25"/><rect fill="#FFFFFF" height="274.0938" style="stroke:#181818;stroke-width:1.0;" width="10" x="1533.5" y="992.5938"/><rect fill="#FFFFFF" height="274.0938" style="stroke:#181818;stroke-width:1.0;" width="10" x="1533.5" y="1592.9375"/><rect fill="#FFFFFF" height="156.625" style="stroke:#181818;stroke-width:1.0;" width="10" x="1776.5" y="470.5625"/><rect fill="#FFFFFF" height="156.625" style="stroke:#181818;stroke-width:1.0;" width="10" x="1776.5" y="1070.9063"/><rect fill="#FFFFFF" height="156.625" style="stroke:#181818;stroke-width:1.0;" width="10" x="1776.5" y="1671.25"/><rect fill="#FFFFFF" height="78.3125" style="stroke:#181818;stroke-width:1.0;" width="10" x="2040" y="509.7188"/><rect fill="#FFFFFF" height="78.3125" style="stroke:#181818;stroke-width:1.0;" width="10" x="2040" y="1110.0625"/><rect fill="#FFFFFF" height="78.3125" style="stroke:#181818;stroke-width:1.0;" width="10" x="2040" y="1710.4063"/><rect fill="#FFFFFF" height="78.3125" style="stroke:#181818;stroke-width:1.0;" width="10" x="2261.5" y="705.5"/><rect fill="#FFFFFF" height="78.3125" style="stroke:#181818;stroke-width:1.0;" width="10" x="2261.5" y="1305.8438"/><rect fill="#FFFFFF" height="78.3125" style="stroke:#181818;stroke-width:1.0;" width="10" x="2261.5" y="1906.1875"/><polygon fill="#181818" points="528.5,127.3125,538.5,131.3125,528.5,135.3125,532.5,131.3125" style="stroke:#181818;stroke-width:1.0;"/><line style="stroke:#181818;stroke-width:1.0;" x1="124.5" x2="534.5" y1="131.3125" y2="131.3125"/><text fill="#000000" font-family="sans-serif" font-size="20" lengthAdjust="spacing" textLength="397" x="131.5" y="124.918">request to show the info of a scheduled show</text><polygon fill="#181818" points="796.5,166.4688,806.5,170.4688,796.5,174.4688,800.5,170.4688" style="stroke:#181818;stroke-width:1.0;"/><line style="stroke:#181818;stroke-width:1.0;" x1="550.5" x2="802.5" y1="170.4688" y2="170.4688"/><text fill="#000000" font-family="sans-serif" font-size="20" lengthAdjust="spacing" textLength="97" x="557.5" y="164.0742">listShows()</text><line style="stroke:#181818;stroke-width:1.0;" x1="818.5" x2="865.5" y1="204.625" y2="204.625"/><line style="stroke:#181818;stroke-width:1.0;" x1="865.5" x2="865.5" y1="204.625" y2="217.625"/><line style="stroke:#181818;stroke-width:1.0;" x1="824.5" x2="865.5" y1="217.625" y2="217.625"/><polygon fill="#181818" points="834.5,213.625,824.5,217.625,834.5,221.625,830.5,217.625" style="stroke:#181818;stroke-width:1.0;"/><text fill="#000000" font-family="sans-serif" font-size="20" lengthAdjust="spacing" textLength="262" x="830.5" y="198.2305">getRepresenteeOfCustomer()</text><polygon fill="#181818" points="1233.5,257.7813,1243.5,261.7813,1233.5,265.7813,1237.5,261.7813" style="stroke:#181818;stroke-width:1.0;"/><line style="stroke:#181818;stroke-width:1.0;" x1="823.5" x2="1239.5" y1="261.7813" y2="261.7813"/><text fill="#000000" font-family="sans-serif" font-size="20" lengthAdjust="spacing" textLength="325" x="830.5" y="255.3867">getShodroneUser(authenticatedUser)</text><polygon fill="#181818" points="2482,296.9375,2492,300.9375,2482,304.9375,2486,300.9375" style="stroke:#181818;stroke-width:1.0;"/><line style="stroke:#181818;stroke-width:1.0;" x1="1255.5" x2="2488" y1="300.9375" y2="300.9375"/><text fill="#000000" font-family="sans-serif" font-size="20" lengthAdjust="spacing" textLength="262" x="1262.5" y="294.543">toRequest(authenticatedUser)</text><line style="stroke:#181818;stroke-width:1.0;" x1="1255.5" x2="1302.5" y1="335.0938" y2="335.0938"/><line style="stroke:#181818;stroke-width:1.0;" x1="1302.5" x2="1302.5" y1="335.0938" y2="348.0938"/><line style="stroke:#181818;stroke-width:1.0;" x1="1261.5" x2="1302.5" y1="348.0938" y2="348.0938"/><polygon fill="#181818" points="1271.5,344.0938,1261.5,348.0938,1271.5,352.0938,1267.5,348.0938" style="stroke:#181818;stroke-width:1.0;"/><text fill="#000000" font-family="sans-serif" font-size="20" lengthAdjust="spacing" textLength="264" x="1267.5" y="328.6992">socket.sendAndRecv(request)</text><polygon fill="#181818" points="1521.5,388.25,1531.5,392.25,1521.5,396.25,1525.5,392.25" style="stroke:#181818;stroke-width:1.0;"/><line style="stroke:#181818;stroke-width:1.0;" x1="1260.5" x2="1527.5" y1="392.25" y2="392.25"/><text fill="#000000" font-family="sans-serif" font-size="20" lengthAdjust="spacing" textLength="195" x="1267.5" y="385.8555">sendRequest(request)</text><polygon fill="#181818" points="1769.5,427.4063,1779.5,431.4063,1769.5,435.4063,1773.5,431.4063" style="stroke:#181818;stroke-width:1.0;"/><line style="stroke:#181818;stroke-width:1.0;" x1="1543.5" x2="1775.5" y1="431.4063" y2="431.4063"/><text fill="#000000" font-family="sans-serif" font-size="20" lengthAdjust="spacing" textLength="130" x="1550.5" y="425.0117">parse(request)</text><polygon fill="#181818" points="1764.5,466.5625,1774.5,470.5625,1764.5,474.5625,1768.5,470.5625" style="stroke:#181818;stroke-width:1.0;"/><line style="stroke:#181818;stroke-width:1.0;" x1="1543.5" x2="1770.5" y1="470.5625" y2="470.5625"/><text fill="#000000" font-family="sans-serif" font-size="20" lengthAdjust="spacing" textLength="148" x="1550.5" y="464.168">execute(request)</text><polygon fill="#181818" points="2028,505.7188,2038,509.7188,2028,513.7188,2032,509.7188" style="stroke:#181818;stroke-width:1.0;"/><line style="stroke:#181818;stroke-width:1.0;" x1="1786.5" x2="2034" y1="509.7188" y2="509.7188"/><text fill="#000000" font-family="sans-serif" font-size="20" lengthAdjust="spacing" textLength="222" x="1793.5" y="503.3242">parseGetShodroneUser()</text><polygon fill="#181818" points="3188.5,544.875,3198.5,548.875,3188.5,552.875,3192.5,548.875" style="stroke:#181818;stroke-width:1.0;"/><line style="stroke:#181818;stroke-width:1.0;" x1="2050" x2="3194.5" y1="548.875" y2="548.875"/><text fill="#000000" font-family="sans-serif" font-size="20" lengthAdjust="spacing" textLength="365" x="2057" y="542.4805">getShodroneUserByUsername(username)</text><polygon fill="#181818" points="1797.5,584.0313,1787.5,588.0313,1797.5,592.0313,1793.5,588.0313" style="stroke:#181818;stroke-width:1.0;"/><line style="stroke:#181818;stroke-width:1.0;" x1="1791.5" x2="2044" y1="588.0313" y2="588.0313"/><text fill="#000000" font-family="sans-serif" font-size="20" lengthAdjust="spacing" textLength="81" x="1803.5" y="581.6367">response</text><polygon fill="#181818" points="1554.5,623.1875,1544.5,627.1875,1554.5,631.1875,1550.5,627.1875" style="stroke:#181818;stroke-width:1.0;"/><line style="stroke:#181818;stroke-width:1.0;" x1="1548.5" x2="1780.5" y1="627.1875" y2="627.1875"/><text fill="#000000" font-family="sans-serif" font-size="20" lengthAdjust="spacing" textLength="81" x="1560.5" y="620.793">response</text><polygon fill="#181818" points="1271.5,662.3438,1261.5,666.3438,1271.5,670.3438,1267.5,666.3438" style="stroke:#181818;stroke-width:1.0;"/><line style="stroke:#181818;stroke-width:1.0;" x1="1265.5" x2="1537.5" y1="666.3438" y2="666.3438"/><text fill="#000000" font-family="sans-serif" font-size="20" lengthAdjust="spacing" textLength="81" x="1277.5" y="659.9492">response</text><polygon fill="#181818" points="2249.5,701.5,2259.5,705.5,2249.5,709.5,2253.5,705.5" style="stroke:#181818;stroke-width:1.0;"/><line style="stroke:#181818;stroke-width:1.0;" x1="1260.5" x2="2255.5" y1="705.5" y2="705.5"/><text fill="#000000" font-family="sans-serif" font-size="20" lengthAdjust="spacing" textLength="439" x="1267.5" y="699.1055">parseResponseMessageShodroneUser(response)</text><polygon fill="#181818" points="2705,740.6563,2715,744.6563,2705,748.6563,2709,744.6563" style="stroke:#181818;stroke-width:1.0;"/><line style="stroke:#181818;stroke-width:1.0;" x1="2271.5" x2="2711" y1="744.6563" y2="744.6563"/><text fill="#000000" font-family="sans-serif" font-size="20" lengthAdjust="spacing" textLength="181" x="2278.5" y="738.2617">ShodroneUserDTO()</text><polygon fill="#181818" points="1266.5,779.8125,1256.5,783.8125,1266.5,787.8125,1262.5,783.8125" style="stroke:#181818;stroke-width:1.0;"/><line style="stroke:#181818;stroke-width:1.0;" x1="1260.5" x2="2265.5" y1="783.8125" y2="783.8125"/><text fill="#000000" font-family="sans-serif" font-size="20" lengthAdjust="spacing" textLength="475" x="1272.5" y="777.418">parseResponseMessageLineShodroneUser(response)</text><polygon fill="#181818" points="834.5,818.9688,824.5,822.9688,834.5,826.9688,830.5,822.9688" style="stroke:#181818;stroke-width:1.0;"/><line style="stroke:#181818;stroke-width:1.0;" x1="828.5" x2="1249.5" y1="822.9688" y2="822.9688"/><text fill="#000000" font-family="sans-serif" font-size="20" lengthAdjust="spacing" textLength="122" x="840.5" y="816.5742">shodroneUser</text><polygon fill="#181818" points="1233.5,858.125,1243.5,862.125,1233.5,866.125,1237.5,862.125" style="stroke:#181818;stroke-width:1.0;"/><line style="stroke:#181818;stroke-width:1.0;" x1="823.5" x2="1239.5" y1="862.125" y2="862.125"/><text fill="#000000" font-family="sans-serif" font-size="20" lengthAdjust="spacing" textLength="403" x="830.5" y="855.7305">getCustomerOfRepresentative(shodroneUser)</text><polygon fill="#181818" points="2876,897.2813,2886,901.2813,2876,905.2813,2880,901.2813" style="stroke:#181818;stroke-width:1.0;"/><line style="stroke:#181818;stroke-width:1.0;" x1="1255.5" x2="2882" y1="901.2813" y2="901.2813"/><text fill="#000000" font-family="sans-serif" font-size="20" lengthAdjust="spacing" textLength="262" x="1262.5" y="894.8867">toRequest(authenticatedUser)</text><line style="stroke:#181818;stroke-width:1.0;" x1="1255.5" x2="1302.5" y1="935.4375" y2="935.4375"/><line style="stroke:#181818;stroke-width:1.0;" x1="1302.5" x2="1302.5" y1="935.4375" y2="948.4375"/><line style="stroke:#181818;stroke-width:1.0;" x1="1261.5" x2="1302.5" y1="948.4375" y2="948.4375"/><polygon fill="#181818" points="1271.5,944.4375,1261.5,948.4375,1271.5,952.4375,1267.5,948.4375" style="stroke:#181818;stroke-width:1.0;"/><text fill="#000000" font-family="sans-serif" font-size="20" lengthAdjust="spacing" textLength="264" x="1267.5" y="929.043">socket.sendAndRecv(request)</text><polygon fill="#181818" points="1521.5,988.5938,1531.5,992.5938,1521.5,996.5938,1525.5,992.5938" style="stroke:#181818;stroke-width:1.0;"/><line style="stroke:#181818;stroke-width:1.0;" x1="1260.5" x2="1527.5" y1="992.5938" y2="992.5938"/><text fill="#000000" font-family="sans-serif" font-size="20" lengthAdjust="spacing" textLength="195" x="1267.5" y="986.1992">sendRequest(request)</text><polygon fill="#181818" points="1769.5,1027.75,1779.5,1031.75,1769.5,1035.75,1773.5,1031.75" style="stroke:#181818;stroke-width:1.0;"/><line style="stroke:#181818;stroke-width:1.0;" x1="1543.5" x2="1775.5" y1="1031.75" y2="1031.75"/><text fill="#000000" font-family="sans-serif" font-size="20" lengthAdjust="spacing" textLength="130" x="1550.5" y="1025.3555">parse(request)</text><polygon fill="#181818" points="1764.5,1066.9063,1774.5,1070.9063,1764.5,1074.9063,1768.5,1070.9063" style="stroke:#181818;stroke-width:1.0;"/><line style="stroke:#181818;stroke-width:1.0;" x1="1543.5" x2="1770.5" y1="1070.9063" y2="1070.9063"/><text fill="#000000" font-family="sans-serif" font-size="20" lengthAdjust="spacing" textLength="148" x="1550.5" y="1064.5117">execute(request)</text><polygon fill="#181818" points="2028,1106.0625,2038,1110.0625,2028,1114.0625,2032,1110.0625" style="stroke:#181818;stroke-width:1.0;"/><line style="stroke:#181818;stroke-width:1.0;" x1="1786.5" x2="2034" y1="1110.0625" y2="1110.0625"/><text fill="#000000" font-family="sans-serif" font-size="20" lengthAdjust="spacing" textLength="205" x="1793.5" y="1103.668">GetCustomerRequest()</text><polygon fill="#181818" points="3412.5,1145.2188,3422.5,1149.2188,3412.5,1153.2188,3416.5,1149.2188" style="stroke:#181818;stroke-width:1.0;"/><line style="stroke:#181818;stroke-width:1.0;" x1="2050" x2="3418.5" y1="1149.2188" y2="1149.2188"/><text fill="#000000" font-family="sans-serif" font-size="20" lengthAdjust="spacing" textLength="464" x="2057" y="1142.8242">getCustomerByRepresentativeEmail(String repEmail)</text><polygon fill="#181818" points="1797.5,1184.375,1787.5,1188.375,1797.5,1192.375,1793.5,1188.375" style="stroke:#181818;stroke-width:1.0;"/><line style="stroke:#181818;stroke-width:1.0;" x1="1791.5" x2="2044" y1="1188.375" y2="1188.375"/><text fill="#000000" font-family="sans-serif" font-size="20" lengthAdjust="spacing" textLength="81" x="1803.5" y="1181.9805">response</text><polygon fill="#181818" points="1554.5,1223.5313,1544.5,1227.5313,1554.5,1231.5313,1550.5,1227.5313" style="stroke:#181818;stroke-width:1.0;"/><line style="stroke:#181818;stroke-width:1.0;" x1="1548.5" x2="1780.5" y1="1227.5313" y2="1227.5313"/><text fill="#000000" font-family="sans-serif" font-size="20" lengthAdjust="spacing" textLength="81" x="1560.5" y="1221.1367">response</text><polygon fill="#181818" points="1271.5,1262.6875,1261.5,1266.6875,1271.5,1270.6875,1267.5,1266.6875" style="stroke:#181818;stroke-width:1.0;"/><line style="stroke:#181818;stroke-width:1.0;" x1="1265.5" x2="1537.5" y1="1266.6875" y2="1266.6875"/><text fill="#000000" font-family="sans-serif" font-size="20" lengthAdjust="spacing" textLength="81" x="1277.5" y="1260.293">response</text><polygon fill="#181818" points="2249.5,1301.8438,2259.5,1305.8438,2249.5,1309.8438,2253.5,1305.8438" style="stroke:#181818;stroke-width:1.0;"/><line style="stroke:#181818;stroke-width:1.0;" x1="1260.5" x2="2255.5" y1="1305.8438" y2="1305.8438"/><text fill="#000000" font-family="sans-serif" font-size="20" lengthAdjust="spacing" textLength="399" x="1267.5" y="1299.4492">parseResponseMessageCustomer(response)</text><polygon fill="#181818" points="2876,1341,2886,1345,2876,1349,2880,1345" style="stroke:#181818;stroke-width:1.0;"/><line style="stroke:#181818;stroke-width:1.0;" x1="2271.5" x2="2882" y1="1345" y2="1345"/><text fill="#000000" font-family="sans-serif" font-size="20" lengthAdjust="spacing" textLength="141" x="2278.5" y="1338.6055">CustomerDTO()</text><polygon fill="#181818" points="1266.5,1380.1563,1256.5,1384.1563,1266.5,1388.1563,1262.5,1384.1563" style="stroke:#181818;stroke-width:1.0;"/><line style="stroke:#181818;stroke-width:1.0;" x1="1260.5" x2="2265.5" y1="1384.1563" y2="1384.1563"/><text fill="#000000" font-family="sans-serif" font-size="20" lengthAdjust="spacing" textLength="435" x="1272.5" y="1377.7617">parseResponseMessageLineCustomer(response)</text><polygon fill="#181818" points="829.5,1419.3125,819.5,1423.3125,829.5,1427.3125,825.5,1423.3125" style="stroke:#181818;stroke-width:1.0;"/><line style="stroke:#181818;stroke-width:1.0;" x1="823.5" x2="1249.5" y1="1423.3125" y2="1423.3125"/><text fill="#000000" font-family="sans-serif" font-size="20" lengthAdjust="spacing" textLength="81" x="835.5" y="1416.918">customer</text><polygon fill="#181818" points="1233.5,1458.4688,1243.5,1462.4688,1233.5,1466.4688,1237.5,1462.4688" style="stroke:#181818;stroke-width:1.0;"/><line style="stroke:#181818;stroke-width:1.0;" x1="818.5" x2="1239.5" y1="1462.4688" y2="1462.4688"/><text fill="#000000" font-family="sans-serif" font-size="20" lengthAdjust="spacing" textLength="290" x="825.5" y="1456.0742">getShowsByCustomer(customer)</text><polygon fill="#181818" points="3009,1497.625,3019,1501.625,3009,1505.625,3013,1501.625" style="stroke:#181818;stroke-width:1.0;"/><line style="stroke:#181818;stroke-width:1.0;" x1="1255.5" x2="3015" y1="1501.625" y2="1501.625"/><text fill="#000000" font-family="sans-serif" font-size="20" lengthAdjust="spacing" textLength="185" x="1262.5" y="1495.2305">toRequest(customer)</text><line style="stroke:#181818;stroke-width:1.0;" x1="1255.5" x2="1302.5" y1="1535.7813" y2="1535.7813"/><line style="stroke:#181818;stroke-width:1.0;" x1="1302.5" x2="1302.5" y1="1535.7813" y2="1548.7813"/><line style="stroke:#181818;stroke-width:1.0;" x1="1261.5" x2="1302.5" y1="1548.7813" y2="1548.7813"/><polygon fill="#181818" points="1271.5,1544.7813,1261.5,1548.7813,1271.5,1552.7813,1267.5,1548.7813" style="stroke:#181818;stroke-width:1.0;"/><text fill="#000000" font-family="sans-serif" font-size="20" lengthAdjust="spacing" textLength="264" x="1267.5" y="1529.3867">socket.sendAndRecv(request)</text><polygon fill="#181818" points="1521.5,1588.9375,1531.5,1592.9375,1521.5,1596.9375,1525.5,1592.9375" style="stroke:#181818;stroke-width:1.0;"/><line style="stroke:#181818;stroke-width:1.0;" x1="1260.5" x2="1527.5" y1="1592.9375" y2="1592.9375"/><text fill="#000000" font-family="sans-serif" font-size="20" lengthAdjust="spacing" textLength="195" x="1267.5" y="1586.543">sendRequest(request)</text><polygon fill="#181818" points="1769.5,1628.0938,1779.5,1632.0938,1769.5,1636.0938,1773.5,1632.0938" style="stroke:#181818;stroke-width:1.0;"/><line style="stroke:#181818;stroke-width:1.0;" x1="1543.5" x2="1775.5" y1="1632.0938" y2="1632.0938"/><text fill="#000000" font-family="sans-serif" font-size="20" lengthAdjust="spacing" textLength="130" x="1550.5" y="1625.6992">parse(request)</text><polygon fill="#181818" points="1764.5,1667.25,1774.5,1671.25,1764.5,1675.25,1768.5,1671.25" style="stroke:#181818;stroke-width:1.0;"/><line style="stroke:#181818;stroke-width:1.0;" x1="1543.5" x2="1770.5" y1="1671.25" y2="1671.25"/><text fill="#000000" font-family="sans-serif" font-size="20" lengthAdjust="spacing" textLength="148" x="1550.5" y="1664.8555">execute(request)</text><polygon fill="#181818" points="2028,1706.4063,2038,1710.4063,2028,1714.4063,2032,1710.4063" style="stroke:#181818;stroke-width:1.0;"/><line style="stroke:#181818;stroke-width:1.0;" x1="1786.5" x2="2034" y1="1710.4063" y2="1710.4063"/><text fill="#000000" font-family="sans-serif" font-size="20" lengthAdjust="spacing" textLength="179" x="1793.5" y="1704.0117">GetShowsRequest()</text><polygon fill="#181818" points="3641,1745.5625,3651,1749.5625,3641,1753.5625,3645,1749.5625" style="stroke:#181818;stroke-width:1.0;"/><line style="stroke:#181818;stroke-width:1.0;" x1="2050" x2="3647" y1="1749.5625" y2="1749.5625"/><text fill="#000000" font-family="sans-serif" font-size="20" lengthAdjust="spacing" textLength="305" x="2057" y="1743.168">findShowsOfCustomer(vatNumber)</text><polygon fill="#181818" points="1797.5,1784.7188,1787.5,1788.7188,1797.5,1792.7188,1793.5,1788.7188" style="stroke:#181818;stroke-width:1.0;"/><line style="stroke:#181818;stroke-width:1.0;" x1="1791.5" x2="2044" y1="1788.7188" y2="1788.7188"/><text fill="#000000" font-family="sans-serif" font-size="20" lengthAdjust="spacing" textLength="81" x="1803.5" y="1782.3242">response</text><polygon fill="#181818" points="1554.5,1823.875,1544.5,1827.875,1554.5,1831.875,1550.5,1827.875" style="stroke:#181818;stroke-width:1.0;"/><line style="stroke:#181818;stroke-width:1.0;" x1="1548.5" x2="1780.5" y1="1827.875" y2="1827.875"/><text fill="#000000" font-family="sans-serif" font-size="20" lengthAdjust="spacing" textLength="81" x="1560.5" y="1821.4805">response</text><polygon fill="#181818" points="1271.5,1863.0313,1261.5,1867.0313,1271.5,1871.0313,1267.5,1867.0313" style="stroke:#181818;stroke-width:1.0;"/><line style="stroke:#181818;stroke-width:1.0;" x1="1265.5" x2="1537.5" y1="1867.0313" y2="1867.0313"/><text fill="#000000" font-family="sans-serif" font-size="20" lengthAdjust="spacing" textLength="81" x="1277.5" y="1860.6367">response</text><polygon fill="#181818" points="2249.5,1902.1875,2259.5,1906.1875,2249.5,1910.1875,2253.5,1906.1875" style="stroke:#181818;stroke-width:1.0;"/><line style="stroke:#181818;stroke-width:1.0;" x1="1260.5" x2="2255.5" y1="1906.1875" y2="1906.1875"/><text fill="#000000" font-family="sans-serif" font-size="20" lengthAdjust="spacing" textLength="363" x="1267.5" y="1899.793">parseResponseMessageShow(response)</text><polygon fill="#181818" points="3009,1941.3438,3019,1945.3438,3009,1949.3438,3013,1945.3438" style="stroke:#181818;stroke-width:1.0;"/><line style="stroke:#181818;stroke-width:1.0;" x1="2271.5" x2="3015" y1="1945.3438" y2="1945.3438"/><text fill="#000000" font-family="sans-serif" font-size="20" lengthAdjust="spacing" textLength="105" x="2278.5" y="1938.9492">ShowDTO()</text><polygon fill="#181818" points="1266.5,1980.5,1256.5,1984.5,1266.5,1988.5,1262.5,1984.5" style="stroke:#181818;stroke-width:1.0;"/><line style="stroke:#181818;stroke-width:1.0;" x1="1260.5" x2="2265.5" y1="1984.5" y2="1984.5"/><text fill="#000000" font-family="sans-serif" font-size="20" lengthAdjust="spacing" textLength="399" x="1272.5" y="1978.1055">parseResponseMessageLineShow(response)</text><polygon fill="#181818" points="829.5,2019.6563,819.5,2023.6563,829.5,2027.6563,825.5,2023.6563" style="stroke:#181818;stroke-width:1.0;"/><line style="stroke:#181818;stroke-width:1.0;" x1="823.5" x2="1249.5" y1="2023.6563" y2="2023.6563"/><text fill="#000000" font-family="sans-serif" font-size="20" lengthAdjust="spacing" textLength="56" x="835.5" y="2017.2617">shows</text><polygon fill="#181818" points="561.5,2058.8125,551.5,2062.8125,561.5,2066.8125,557.5,2062.8125" style="stroke:#181818;stroke-width:1.0;"/><line style="stroke:#181818;stroke-width:1.0;" x1="555.5" x2="812.5" y1="2062.8125" y2="2062.8125"/><text fill="#000000" font-family="sans-serif" font-size="20" lengthAdjust="spacing" textLength="56" x="567.5" y="2056.418">shows</text><polygon fill="#181818" points="135.5,2097.9688,125.5,2101.9688,135.5,2105.9688,131.5,2101.9688" style="stroke:#181818;stroke-width:1.0;"/><line style="stroke:#181818;stroke-width:1.0;" x1="129.5" x2="539.5" y1="2101.9688" y2="2101.9688"/><text fill="#000000" font-family="sans-serif" font-size="20" lengthAdjust="spacing" textLength="191" x="141.5" y="2095.5742">asks to select a show</text><polygon fill="#181818" points="528.5,2137.125,538.5,2141.125,528.5,2145.125,532.5,2141.125" style="stroke:#181818;stroke-width:1.0;"/><line style="stroke:#181818;stroke-width:1.0;" x1="124.5" x2="534.5" y1="2141.125" y2="2141.125"/><text fill="#000000" font-family="sans-serif" font-size="20" lengthAdjust="spacing" textLength="131" x="131.5" y="2134.7305">selects a show</text><polygon fill="#181818" points="796.5,2176.2813,806.5,2180.2813,796.5,2184.2813,800.5,2180.2813" style="stroke:#181818;stroke-width:1.0;"/><line style="stroke:#181818;stroke-width:1.0;" x1="550.5" x2="802.5" y1="2180.2813" y2="2180.2813"/><text fill="#000000" font-family="sans-serif" font-size="20" lengthAdjust="spacing" textLength="239" x="557.5" y="2173.8867">obtainShow(selectedShow)</text><polygon fill="#181818" points="561.5,2215.4375,551.5,2219.4375,561.5,2223.4375,557.5,2219.4375" style="stroke:#181818;stroke-width:1.0;"/><line style="stroke:#181818;stroke-width:1.0;" x1="555.5" x2="812.5" y1="2219.4375" y2="2219.4375"/><text fill="#000000" font-family="sans-serif" font-size="20" lengthAdjust="spacing" textLength="46" x="567.5" y="2213.043">show</text><polygon fill="#181818" points="130.5,2254.5938,120.5,2258.5938,130.5,2262.5938,126.5,2258.5938" style="stroke:#181818;stroke-width:1.0;"/><line style="stroke:#181818;stroke-width:1.0;" x1="124.5" x2="544.5" y1="2258.5938" y2="2258.5938"/><text fill="#000000" font-family="sans-serif" font-size="20" lengthAdjust="spacing" textLength="158" x="136.5" y="2252.1992">show info of show</text><!--SRC=[xLTDRzim3BtxLmWzUOSDmuux3EZ7LWHOrY9PVe1gCurHH_8iEMdswqVgmvPi9Krtwx1BAzjyZnJ99p7ggH8DR_csbiKJbAo4DUzg_KqAlQn-0_lqCUE5bYsxkEwKbbjesGAQ5XG8pNMrWml65LifQ3EaqLLHDLneTh7SoFrChELgPWrcwS_NwAULTGsjCHiUOtFl-x9fxbkfPI5h_FzyC22pEcg_X7RdsEtogEKSbEAFSCzRvG1s6GDegptjAFpnonWvHxODlbs9hLiPq7mLczs2nkoKhHH0lXRmgmEbZIckavdkZMz-tlNrkD4olLLlHCyJ8ogCDp3hX44GMoDLXTrnyFRHfxJx4OXUJut9DRt5L-9nwiPyowWpgntNOFilex_i_HTiDlQPjJPlJ4kc4C3q1bY57SVacd6cYWsKNOqDJny3eXdIp8Xag2AIrPMYeknL_cwm3UgS1TPZx2FeNZ40TskV1wGwXyjqjwK9yvlp3dSaC6C8B-bDI6SbaLaiahZ6GHejNKCb2Ng0zwheLD0VCFRoKfGBA7QvI-mfTrO710S2MNy9d1Davkp9hr4S8XjQ19Y42Jn3qMb81cI5cpdRFgIeCCR5I6tvDBomD1CMOXvr_RHMLmVwA_WMyiujq4sIhDySzaiZXO8iA-54GECDXiW0wF8H9D7LzuGRZ72ew7pb4xPm27TQHidpR64IyNZB44soj8SI4esEB4gwDV5XfJnzhyHHRq7mv2_Q-gWtenPG0LyATLIANiHtw_Wsp4D6AlA8SGZ37hx_5HcMutP8h8_nzNhq5qfSgAj3NAYlMrxL-LAtUB-W2Xhp_3PK-R8e-olcj2277Wn6W_F5cF8o4kAvEYmSLG8Gl3dtajohgqCVdAS-gGuxw4HY372lqk3Rbw39uD_hpuzdIBQkH6dOWga7cNvqsmTxEluBOgCD1X88-z_gQEWkDro_whuBkLzKr_5hRgyIzd7YpTXiJTEYiuEn6oIvUb9ck8OQ2aqZDGtIyGnklwdXutIobW-QLyBiqrg3wPZpPkC-ukoSYCtF0FyJO8B2oJzyebxv0m00]--></g></svg>