<?xml version="1.0" encoding="UTF-8" standalone="no"?><svg xmlns="http://www.w3.org/2000/svg" xmlns:xlink="http://www.w3.org/1999/xlink" contentStyleType="text/css" height="1100px" preserveAspectRatio="none" style="width:2367px;height:1100px;background:#FFFFFF;" version="1.1" viewBox="0 0 2367 1100" width="2367px" zoomAndPan="magnify"><defs/><g><rect fill="#FFFFFF" height="892.75" style="stroke:#181818;stroke-width:1.0;" width="10" x="54" y="100.1563"/><rect fill="#FFFFFF" height="861.5938" style="stroke:#181818;stroke-width:1.0;" width="10" x="851" y="131.3125"/><rect fill="#FFFFFF" height="791.2813" style="stroke:#181818;stroke-width:1.0;" width="10" x="1289" y="170.4688"/><rect fill="#FFFFFF" height="39.1563" style="stroke:#181818;stroke-width:1.0;" width="10" x="1537" y="209.625"/><rect fill="#FFFFFF" height="39.1563" style="stroke:#181818;stroke-width:1.0;" width="10" x="1699.5" y="287.9375"/><rect fill="#FFFFFF" height="39.1563" style="stroke:#181818;stroke-width:1.0;" width="10" x="1699.5" y="366.25"/><rect fill="#FFFFFF" height="39.1563" style="stroke:#181818;stroke-width:1.0;" width="10" x="1699.5" y="567.1875"/><rect fill="#FFFFFF" height="39.1563" style="stroke:#181818;stroke-width:1.0;" width="10" x="1884.5" y="444.5625"/><rect fill="#FFFFFF" height="39.1563" style="stroke:#181818;stroke-width:1.0;" width="10" x="2091.5" y="645.5"/><rect fill="#FFFFFF" height="39.1563" style="stroke:#181818;stroke-width:1.0;" width="10" x="2091.5" y="802.125"/><rect fill="#FFFFFF" height="39.1563" style="stroke:#181818;stroke-width:1.0;" width="10" x="2280" y="723.8125"/><rect fill="none" height="456.0313" style="stroke:#000000;stroke-width:1.5;" width="1589.5" x="771" y="498.7188"/><line style="stroke:#181818;stroke-width:0.5;stroke-dasharray:5.0,5.0;" x1="59" x2="59" y1="90.1563" y2="1010.9063"/><line style="stroke:#181818;stroke-width:0.5;stroke-dasharray:5.0,5.0;" x1="856" x2="856" y1="90.1563" y2="1010.9063"/><line style="stroke:#181818;stroke-width:0.5;stroke-dasharray:5.0,5.0;" x1="1294" x2="1294" y1="90.1563" y2="1010.9063"/><line style="stroke:#181818;stroke-width:0.5;stroke-dasharray:5.0,5.0;" x1="1541.5" x2="1541.5" y1="90.1563" y2="1010.9063"/><line style="stroke:#181818;stroke-width:0.5;stroke-dasharray:5.0,5.0;" x1="1704.5" x2="1704.5" y1="90.1563" y2="1010.9063"/><line style="stroke:#181818;stroke-width:0.5;stroke-dasharray:5.0,5.0;" x1="1889.5" x2="1889.5" y1="90.1563" y2="1010.9063"/><line style="stroke:#181818;stroke-width:0.5;stroke-dasharray:5.0,5.0;" x1="2096.5" x2="2096.5" y1="90.1563" y2="1010.9063"/><line style="stroke:#181818;stroke-width:0.5;stroke-dasharray:5.0,5.0;" x1="2284.5" x2="2284.5" y1="90.1563" y2="1010.9063"/><text fill="#000000" font-family="sans-serif" font-size="20" lengthAdjust="spacing" textLength="102" x="5" y="85.7617">Drone Tech</text><ellipse cx="59" cy="13.5" fill="#E2E2F0" rx="8" ry="8" style="stroke:#181818;stroke-width:0.5;"/><path d="M59,21.5 L59,48.5 M46,29.5 L72,29.5 M59,48.5 L46,63.5 M59,48.5 L72,63.5 " fill="none" style="stroke:#181818;stroke-width:0.5;"/><text fill="#000000" font-family="sans-serif" font-size="20" lengthAdjust="spacing" textLength="102" x="5" y="1030.668">Drone Tech</text><ellipse cx="59" cy="1043.5625" fill="#E2E2F0" rx="8" ry="8" style="stroke:#181818;stroke-width:0.5;"/><path d="M59,1051.5625 L59,1078.5625 M46,1059.5625 L72,1059.5625 M59,1078.5625 L46,1093.5625 M59,1078.5625 L72,1093.5625 " fill="none" style="stroke:#181818;stroke-width:0.5;"/><rect fill="#E2E2F0" height="39.1563" rx="2.5" ry="2.5" style="stroke:#181818;stroke-width:0.5;" width="150" x="781" y="50"/><text fill="#000000" font-family="sans-serif" font-size="20" lengthAdjust="spacing" textLength="136" x="788" y="77.7617">:MaintenanceUI</text><rect fill="#E2E2F0" height="39.1563" rx="2.5" ry="2.5" style="stroke:#181818;stroke-width:0.5;" width="150" x="781" y="1009.9063"/><text fill="#000000" font-family="sans-serif" font-size="20" lengthAdjust="spacing" textLength="136" x="788" y="1037.668">:MaintenanceUI</text><rect fill="#E2E2F0" height="39.1563" rx="2.5" ry="2.5" style="stroke:#181818;stroke-width:0.5;" width="216" x="1186" y="50"/><text fill="#000000" font-family="sans-serif" font-size="20" lengthAdjust="spacing" textLength="202" x="1193" y="77.7617">:MaintenanceController</text><rect fill="#E2E2F0" height="39.1563" rx="2.5" ry="2.5" style="stroke:#181818;stroke-width:0.5;" width="216" x="1186" y="1009.9063"/><text fill="#000000" font-family="sans-serif" font-size="20" lengthAdjust="spacing" textLength="202" x="1193" y="1037.668">:MaintenanceController</text><rect fill="#E2E2F0" height="39.1563" rx="2.5" ry="2.5" style="stroke:#181818;stroke-width:0.5;" width="123" x="1480.5" y="50"/><text fill="#000000" font-family="sans-serif" font-size="20" lengthAdjust="spacing" textLength="109" x="1487.5" y="77.7617">:Persistence</text><rect fill="#E2E2F0" height="39.1563" rx="2.5" ry="2.5" style="stroke:#181818;stroke-width:0.5;" width="123" x="1480.5" y="1009.9063"/><text fill="#000000" font-family="sans-serif" font-size="20" lengthAdjust="spacing" textLength="109" x="1487.5" y="1037.668">:Persistence</text><rect fill="#E2E2F0" height="39.1563" rx="2.5" ry="2.5" style="stroke:#181818;stroke-width:0.5;" width="182" x="1613.5" y="50"/><text fill="#000000" font-family="sans-serif" font-size="20" lengthAdjust="spacing" textLength="168" x="1620.5" y="77.7617">:RepositoryFactory</text><rect fill="#E2E2F0" height="39.1563" rx="2.5" ry="2.5" style="stroke:#181818;stroke-width:0.5;" width="182" x="1613.5" y="1009.9063"/><text fill="#000000" font-family="sans-serif" font-size="20" lengthAdjust="spacing" textLength="168" x="1620.5" y="1037.668">:RepositoryFactory</text><rect fill="#E2E2F0" height="39.1563" rx="2.5" ry="2.5" style="stroke:#181818;stroke-width:0.5;" width="168" x="1805.5" y="50"/><text fill="#000000" font-family="sans-serif" font-size="20" lengthAdjust="spacing" textLength="154" x="1812.5" y="77.7617">:DroneRepository</text><rect fill="#E2E2F0" height="39.1563" rx="2.5" ry="2.5" style="stroke:#181818;stroke-width:0.5;" width="168" x="1805.5" y="1009.9063"/><text fill="#000000" font-family="sans-serif" font-size="20" lengthAdjust="spacing" textLength="154" x="1812.5" y="1037.668">:DroneRepository</text><rect fill="#E2E2F0" height="39.1563" rx="2.5" ry="2.5" style="stroke:#181818;stroke-width:0.5;" width="226" x="1983.5" y="50"/><text fill="#000000" font-family="sans-serif" font-size="20" lengthAdjust="spacing" textLength="212" x="1990.5" y="77.7617">:MaintenanceRepository</text><rect fill="#E2E2F0" height="39.1563" rx="2.5" ry="2.5" style="stroke:#181818;stroke-width:0.5;" width="226" x="1983.5" y="1009.9063"/><text fill="#000000" font-family="sans-serif" font-size="20" lengthAdjust="spacing" textLength="212" x="1990.5" y="1037.668">:MaintenanceRepository</text><rect fill="#E2E2F0" height="39.1563" rx="2.5" ry="2.5" style="stroke:#181818;stroke-width:0.5;" width="131" x="2219.5" y="50"/><text fill="#000000" font-family="sans-serif" font-size="20" lengthAdjust="spacing" textLength="117" x="2226.5" y="77.7617">:Maintenance</text><rect fill="#E2E2F0" height="39.1563" rx="2.5" ry="2.5" style="stroke:#181818;stroke-width:0.5;" width="131" x="2219.5" y="1009.9063"/><text fill="#000000" font-family="sans-serif" font-size="20" lengthAdjust="spacing" textLength="117" x="2226.5" y="1037.668">:Maintenance</text><rect fill="#FFFFFF" height="892.75" style="stroke:#181818;stroke-width:1.0;" width="10" x="54" y="100.1563"/><rect fill="#FFFFFF" height="861.5938" style="stroke:#181818;stroke-width:1.0;" width="10" x="851" y="131.3125"/><rect fill="#FFFFFF" height="791.2813" style="stroke:#181818;stroke-width:1.0;" width="10" x="1289" y="170.4688"/><rect fill="#FFFFFF" height="39.1563" style="stroke:#181818;stroke-width:1.0;" width="10" x="1537" y="209.625"/><rect fill="#FFFFFF" height="39.1563" style="stroke:#181818;stroke-width:1.0;" width="10" x="1699.5" y="287.9375"/><rect fill="#FFFFFF" height="39.1563" style="stroke:#181818;stroke-width:1.0;" width="10" x="1699.5" y="366.25"/><rect fill="#FFFFFF" height="39.1563" style="stroke:#181818;stroke-width:1.0;" width="10" x="1699.5" y="567.1875"/><rect fill="#FFFFFF" height="39.1563" style="stroke:#181818;stroke-width:1.0;" width="10" x="1884.5" y="444.5625"/><rect fill="#FFFFFF" height="39.1563" style="stroke:#181818;stroke-width:1.0;" width="10" x="2091.5" y="645.5"/><rect fill="#FFFFFF" height="39.1563" style="stroke:#181818;stroke-width:1.0;" width="10" x="2091.5" y="802.125"/><rect fill="#FFFFFF" height="39.1563" style="stroke:#181818;stroke-width:1.0;" width="10" x="2280" y="723.8125"/><polygon fill="#181818" points="839,127.3125,849,131.3125,839,135.3125,843,131.3125" style="stroke:#181818;stroke-width:1.0;"/><line style="stroke:#181818;stroke-width:1.0;" x1="64" x2="845" y1="131.3125" y2="131.3125"/><text fill="#000000" font-family="sans-serif" font-size="20" font-weight="bold" lengthAdjust="spacing" textLength="11" x="71" y="124.918">1</text><text fill="#000000" font-family="sans-serif" font-size="20" lengthAdjust="spacing" textLength="753" x="86" y="124.918">request to add maintenance (droneId, maintenanceType, date, description, technician)</text><polygon fill="#181818" points="1277,166.4688,1287,170.4688,1277,174.4688,1281,170.4688" style="stroke:#181818;stroke-width:1.0;"/><line style="stroke:#181818;stroke-width:1.0;" x1="861" x2="1283" y1="170.4688" y2="170.4688"/><text fill="#000000" font-family="sans-serif" font-size="20" font-weight="bold" lengthAdjust="spacing" textLength="11" x="868" y="164.0742">2</text><text fill="#000000" font-family="sans-serif" font-size="20" lengthAdjust="spacing" textLength="217" x="883" y="164.0742">collect maintenance data</text><polygon fill="#181818" points="1525,205.625,1535,209.625,1525,213.625,1529,209.625" style="stroke:#181818;stroke-width:1.0;"/><line style="stroke:#181818;stroke-width:1.0;stroke-dasharray:2.0,2.0;" x1="1299" x2="1531" y1="209.625" y2="209.625"/><text fill="#000000" font-family="sans-serif" font-size="20" font-weight="bold" lengthAdjust="spacing" textLength="11" x="1306" y="203.2305">3</text><text fill="#000000" font-family="sans-serif" font-size="20" lengthAdjust="spacing" textLength="204" x="1321" y="203.2305">getRepositoryFactory()</text><polygon fill="#181818" points="1310,244.7813,1300,248.7813,1310,252.7813,1306,248.7813" style="stroke:#181818;stroke-width:1.0;"/><line style="stroke:#181818;stroke-width:1.0;stroke-dasharray:2.0,2.0;" x1="1304" x2="1541" y1="248.7813" y2="248.7813"/><text fill="#000000" font-family="sans-serif" font-size="20" font-weight="bold" lengthAdjust="spacing" textLength="11" x="1316" y="242.3867">4</text><text fill="#000000" font-family="sans-serif" font-size="20" lengthAdjust="spacing" textLength="155" x="1331" y="242.3867">repositoryFactory</text><polygon fill="#181818" points="1687.5,283.9375,1697.5,287.9375,1687.5,291.9375,1691.5,287.9375" style="stroke:#181818;stroke-width:1.0;"/><line style="stroke:#181818;stroke-width:1.0;" x1="1299" x2="1693.5" y1="287.9375" y2="287.9375"/><text fill="#000000" font-family="sans-serif" font-size="20" font-weight="bold" lengthAdjust="spacing" textLength="11" x="1306" y="281.543">5</text><text fill="#000000" font-family="sans-serif" font-size="20" lengthAdjust="spacing" textLength="116" x="1321" y="281.543">getInstance()</text><polygon fill="#181818" points="1310,323.0938,1300,327.0938,1310,331.0938,1306,327.0938" style="stroke:#181818;stroke-width:1.0;"/><line style="stroke:#181818;stroke-width:1.0;stroke-dasharray:2.0,2.0;" x1="1304" x2="1703.5" y1="327.0938" y2="327.0938"/><text fill="#000000" font-family="sans-serif" font-size="20" font-weight="bold" lengthAdjust="spacing" textLength="11" x="1316" y="320.6992">6</text><text fill="#000000" font-family="sans-serif" font-size="20" lengthAdjust="spacing" textLength="103" x="1331" y="320.6992">repositories</text><polygon fill="#181818" points="1687.5,362.25,1697.5,366.25,1687.5,370.25,1691.5,366.25" style="stroke:#181818;stroke-width:1.0;"/><line style="stroke:#181818;stroke-width:1.0;" x1="1299" x2="1693.5" y1="366.25" y2="366.25"/><text fill="#000000" font-family="sans-serif" font-size="20" font-weight="bold" lengthAdjust="spacing" textLength="11" x="1306" y="359.8555">7</text><text fill="#000000" font-family="sans-serif" font-size="20" lengthAdjust="spacing" textLength="190" x="1321" y="359.8555">getDroneRepository()</text><polygon fill="#181818" points="1310,401.4063,1300,405.4063,1310,409.4063,1306,405.4063" style="stroke:#181818;stroke-width:1.0;"/><line style="stroke:#181818;stroke-width:1.0;stroke-dasharray:2.0,2.0;" x1="1304" x2="1703.5" y1="405.4063" y2="405.4063"/><text fill="#000000" font-family="sans-serif" font-size="20" font-weight="bold" lengthAdjust="spacing" textLength="11" x="1316" y="399.0117">8</text><text fill="#000000" font-family="sans-serif" font-size="20" lengthAdjust="spacing" textLength="145" x="1331" y="399.0117">droneRepository</text><polygon fill="#181818" points="1872.5,440.5625,1882.5,444.5625,1872.5,448.5625,1876.5,444.5625" style="stroke:#181818;stroke-width:1.0;"/><line style="stroke:#181818;stroke-width:1.0;" x1="1299" x2="1878.5" y1="444.5625" y2="444.5625"/><text fill="#000000" font-family="sans-serif" font-size="20" font-weight="bold" lengthAdjust="spacing" textLength="11" x="1306" y="438.168">9</text><text fill="#000000" font-family="sans-serif" font-size="20" lengthAdjust="spacing" textLength="253" x="1321" y="438.168">findBySerialNumber(droneId)</text><polygon fill="#181818" points="1310,479.7188,1300,483.7188,1310,487.7188,1306,483.7188" style="stroke:#181818;stroke-width:1.0;"/><line style="stroke:#181818;stroke-width:1.0;stroke-dasharray:2.0,2.0;" x1="1304" x2="1888.5" y1="483.7188" y2="483.7188"/><text fill="#000000" font-family="sans-serif" font-size="20" font-weight="bold" lengthAdjust="spacing" textLength="22" x="1316" y="477.3242">10</text><text fill="#000000" font-family="sans-serif" font-size="20" lengthAdjust="spacing" textLength="242" x="1342" y="477.3242">drone (exists, active status)</text><path d="M771,498.7188 L839,498.7188 L839,515.875 L829,525.875 L771,525.875 L771,498.7188 " fill="#EEEEEE" style="stroke:#000000;stroke-width:1.5;"/><rect fill="none" height="456.0313" style="stroke:#000000;stroke-width:1.5;" width="1589.5" x="771" y="498.7188"/><text fill="#000000" font-family="sans-serif" font-size="20" font-weight="bold" lengthAdjust="spacing" textLength="23" x="786" y="520.4805">alt</text><text fill="#000000" font-family="sans-serif" font-size="20" font-weight="bold" lengthAdjust="spacing" textLength="171" x="854" y="521.4805">[if drone is active]</text><polygon fill="#181818" points="1687.5,563.1875,1697.5,567.1875,1687.5,571.1875,1691.5,567.1875" style="stroke:#181818;stroke-width:1.0;"/><line style="stroke:#181818;stroke-width:1.0;" x1="1299" x2="1693.5" y1="567.1875" y2="567.1875"/><text fill="#000000" font-family="sans-serif" font-size="20" font-weight="bold" lengthAdjust="spacing" textLength="22" x="1306" y="560.793">11</text><text fill="#000000" font-family="sans-serif" font-size="20" lengthAdjust="spacing" textLength="248" x="1332" y="560.793">getMaintenanceRepository()</text><polygon fill="#181818" points="1310,602.3438,1300,606.3438,1310,610.3438,1306,606.3438" style="stroke:#181818;stroke-width:1.0;"/><line style="stroke:#181818;stroke-width:1.0;stroke-dasharray:2.0,2.0;" x1="1304" x2="1703.5" y1="606.3438" y2="606.3438"/><text fill="#000000" font-family="sans-serif" font-size="20" font-weight="bold" lengthAdjust="spacing" textLength="22" x="1316" y="599.9492">12</text><text fill="#000000" font-family="sans-serif" font-size="20" lengthAdjust="spacing" textLength="205" x="1342" y="599.9492">maintenanceRepository</text><polygon fill="#181818" points="2079.5,641.5,2089.5,645.5,2079.5,649.5,2083.5,645.5" style="stroke:#181818;stroke-width:1.0;"/><line style="stroke:#181818;stroke-width:1.0;" x1="1299" x2="2085.5" y1="645.5" y2="645.5"/><text fill="#000000" font-family="sans-serif" font-size="20" font-weight="bold" lengthAdjust="spacing" textLength="22" x="1306" y="639.1055">13</text><text fill="#000000" font-family="sans-serif" font-size="20" lengthAdjust="spacing" textLength="647" x="1332" y="639.1055">addMaintenance(droneId, maintenanceType, date, description, technician)</text><polygon fill="#181818" points="1310,680.6563,1300,684.6563,1310,688.6563,1306,684.6563" style="stroke:#181818;stroke-width:1.0;"/><line style="stroke:#181818;stroke-width:1.0;stroke-dasharray:2.0,2.0;" x1="1304" x2="2095.5" y1="684.6563" y2="684.6563"/><text fill="#000000" font-family="sans-serif" font-size="20" font-weight="bold" lengthAdjust="spacing" textLength="22" x="1316" y="678.2617">14</text><text fill="#000000" font-family="sans-serif" font-size="20" lengthAdjust="spacing" textLength="234" x="1342" y="678.2617">maintenance record added</text><polygon fill="#181818" points="2268,719.8125,2278,723.8125,2268,727.8125,2272,723.8125" style="stroke:#181818;stroke-width:1.0;"/><line style="stroke:#181818;stroke-width:1.0;" x1="1299" x2="2274" y1="723.8125" y2="723.8125"/><text fill="#000000" font-family="sans-serif" font-size="20" font-weight="bold" lengthAdjust="spacing" textLength="22" x="1306" y="717.418">15</text><text fill="#000000" font-family="sans-serif" font-size="20" lengthAdjust="spacing" textLength="734" x="1332" y="717.418">createMaintenanceRecord(droneId, maintenanceType, date, description, technician)</text><polygon fill="#181818" points="1310,758.9688,1300,762.9688,1310,766.9688,1306,762.9688" style="stroke:#181818;stroke-width:1.0;"/><line style="stroke:#181818;stroke-width:1.0;stroke-dasharray:2.0,2.0;" x1="1304" x2="2284" y1="762.9688" y2="762.9688"/><text fill="#000000" font-family="sans-serif" font-size="20" font-weight="bold" lengthAdjust="spacing" textLength="22" x="1316" y="756.5742">16</text><text fill="#000000" font-family="sans-serif" font-size="20" lengthAdjust="spacing" textLength="174" x="1342" y="756.5742">maintenanceRecord</text><polygon fill="#181818" points="2079.5,798.125,2089.5,802.125,2079.5,806.125,2083.5,802.125" style="stroke:#181818;stroke-width:1.0;"/><line style="stroke:#181818;stroke-width:1.0;" x1="1299" x2="2085.5" y1="802.125" y2="802.125"/><text fill="#000000" font-family="sans-serif" font-size="20" font-weight="bold" lengthAdjust="spacing" textLength="22" x="1306" y="795.7305">17</text><text fill="#000000" font-family="sans-serif" font-size="20" lengthAdjust="spacing" textLength="229" x="1332" y="795.7305">save(maintenanceRecord)</text><polygon fill="#181818" points="1310,837.2813,1300,841.2813,1310,845.2813,1306,841.2813" style="stroke:#181818;stroke-width:1.0;"/><line style="stroke:#181818;stroke-width:1.0;stroke-dasharray:2.0,2.0;" x1="1304" x2="2095.5" y1="841.2813" y2="841.2813"/><text fill="#000000" font-family="sans-serif" font-size="20" font-weight="bold" lengthAdjust="spacing" textLength="22" x="1316" y="834.8867">18</text><text fill="#000000" font-family="sans-serif" font-size="20" lengthAdjust="spacing" textLength="71" x="1342" y="834.8867">success</text><polygon fill="#181818" points="872,876.4375,862,880.4375,872,884.4375,868,880.4375" style="stroke:#181818;stroke-width:1.0;"/><line style="stroke:#181818;stroke-width:1.0;stroke-dasharray:2.0,2.0;" x1="866" x2="1288" y1="880.4375" y2="880.4375"/><text fill="#000000" font-family="sans-serif" font-size="20" font-weight="bold" lengthAdjust="spacing" textLength="22" x="878" y="874.043">19</text><text fill="#000000" font-family="sans-serif" font-size="20" lengthAdjust="spacing" textLength="209" x="904" y="874.043">show success message</text><line style="stroke:#000000;stroke-width:1.0;stroke-dasharray:2.0,2.0;" x1="771" x2="2360.5" y1="889.4375" y2="889.4375"/><text fill="#000000" font-family="sans-serif" font-size="20" font-weight="bold" lengthAdjust="spacing" textLength="188" x="776" y="910.1992">[if drone is inactive]</text><polygon fill="#181818" points="872,942.75,862,946.75,872,950.75,868,946.75" style="stroke:#181818;stroke-width:1.0;"/><line style="stroke:#181818;stroke-width:1.0;stroke-dasharray:2.0,2.0;" x1="866" x2="1288" y1="946.75" y2="946.75"/><text fill="#000000" font-family="sans-serif" font-size="20" font-weight="bold" lengthAdjust="spacing" textLength="22" x="878" y="940.3555">20</text><text fill="#000000" font-family="sans-serif" font-size="20" lengthAdjust="spacing" textLength="378" x="904" y="940.3555">show error message ("Drone is not active")</text><polygon fill="#181818" points="70,988.9063,60,992.9063,70,996.9063,66,992.9063" style="stroke:#181818;stroke-width:1.0;"/><line style="stroke:#181818;stroke-width:1.0;stroke-dasharray:2.0,2.0;" x1="64" x2="855" y1="992.9063" y2="992.9063"/><text fill="#000000" font-family="sans-serif" font-size="20" font-weight="bold" lengthAdjust="spacing" textLength="22" x="76" y="986.5117">21</text><text fill="#000000" font-family="sans-serif" font-size="20" lengthAdjust="spacing" textLength="279" x="102" y="986.5117">display result (success or error)</text><!--SRC=[hLN1Zjem4BtdAqPS6YIGgXxti5Axi19IbqMGFLUkFO15OgUsizlqwpjsOEE4HDjjom4XyzwycJUUiJr9LJB3Ybpp4meGk6TLxkwrSZlv2-7Jn-I3lM2Wq4hpez459abxMZ9-OWVSkJf7CCWTKuSS8u0zCg5Vf3h0dkMMkAnoMbN5TpJqcpjjOB8mMY5ao8yJO1OMMK9S9xaicN8mkNbWKZbKJ75yMWN8qseSSaVv6vtdQ0BqBjj-xO4tQAoq1ESO89lbTjU3RB7KLb9szNr8iWx0xNBps4U6v5juKy7sSRtyvj7ZQVOe3vzNw-mDIWiCribdvj2xbImocD-IAN13FVXHeNNWD30Xe6ZPa0gVwahCujEiBd46WYBHDrfkPEcaLZDmr0v5QJ0rRSN8Tw0FAP6UTvOKkVUQkuuKnMC1-SeCRGX7WJOdlhUT-0TqLswdqouxTCYV1Cwy5JTzPa09x38ZtTkcYOtkIbddy-tBDNtsHmruI52YxMirj36ntaLvXwReClz0jhs0HDzB9RxKEpIIvUimUPURq4iXkhR-F0hIJmPI_4aJP6SD6O5yT9MTzbEB8ZPIkGEvFyUGzimEVusuDZWnP-z6_1lqi1YAymeVTZDEgPrF2aQJ5UNrztDrLKIq1Ix_HSB3vVYrgutmIQ4OgYWAEboM7sA31EsOxOF-xzAwLOtsnqkFLl96RonxnlGgshzuRIlEqThtMNlPn_QeNouHeA0lUYq35EarxCo2L8FJq0c4nj23UGu3wVdb9BBIxZnCawPKL2BfJsFOmNvt-mtXkowaBNDMqmsozF13UicJD8BID8dOjFlZoSv-0m00]--></g></svg>