<?xml version="1.0" encoding="UTF-8" standalone="no"?><svg xmlns="http://www.w3.org/2000/svg" xmlns:xlink="http://www.w3.org/1999/xlink" contentStyleType="text/css" height="454px" preserveAspectRatio="none" style="width:573px;height:454px;background:#FFFFFF;" version="1.1" viewBox="0 0 573 454" width="573px" zoomAndPan="magnify"><defs/><g><!--class User--><g id="elem_User"><rect codeLine="2" fill="#F1F1F1" height="227.25" id="User" rx="2.5" ry="2.5" style="stroke:#181818;stroke-width:0.5;" width="191" x="169" y="7"/><ellipse cx="239.5" cy="24.5781" fill="#ADD1B2" rx="12" ry="12" style="stroke:#181818;stroke-width:1.0;"/><path d="M241.6406,19.5 Q241.8281,19.25 242.0469,19.125 Q242.2656,18.9844 242.5156,18.9844 Q242.9531,18.9844 243.2344,19.2969 Q243.5156,19.5938 243.5156,20.3125 L243.5156,22.0156 Q243.5156,22.7344 243.2344,23.0469 Q242.9531,23.3594 242.5156,23.3594 Q242.125,23.3594 241.875,23.125 Q241.625,22.9063 241.5156,22.2969 Q241.4531,21.875 241.2344,21.6563 Q240.8438,21.2188 240.125,20.9531 Q239.4063,20.6875 238.6875,20.6875 Q237.7813,20.6875 237.0313,21.0781 Q236.2813,21.4688 235.7031,22.3594 Q235.125,23.2344 235.125,24.4375 L235.125,25.7344 Q235.125,27.1875 236.1719,28.1563 Q237.2344,29.125 239.0938,29.125 Q240.2031,29.125 240.9844,28.8125 Q241.4219,28.6406 241.9375,28.125 Q242.25,27.8125 242.4219,27.7188 Q242.5938,27.625 242.8281,27.625 Q243.2188,27.625 243.5156,27.9375 Q243.8281,28.2344 243.8281,28.6406 Q243.8281,29.0469 243.4219,29.5156 Q242.8281,30.2031 241.8906,30.5938 Q240.625,31.125 239.1094,31.125 Q237.3281,31.125 235.9063,30.3906 Q234.75,29.7969 233.9375,28.5313 Q233.125,27.2656 233.125,25.7813 L233.125,24.4219 Q233.125,22.8594 233.8438,21.5156 Q234.5781,20.1563 235.8594,19.4219 Q237.1563,18.6875 238.6094,18.6875 Q239.4688,18.6875 240.2188,18.8906 Q240.9844,19.0938 241.6406,19.5 Z " fill="#000000"/><text fill="#000000" font-family="sans-serif" font-size="20" lengthAdjust="spacing" textLength="41" x="261.5" y="32.7617">User</text><line style="stroke:#181818;stroke-width:0.5;" x1="170" x2="359" y1="42.1563" y2="42.1563"/><ellipse cx="180" cy="60.2344" fill="none" rx="3" ry="3" style="stroke:#038048;stroke-width:1.0;"/><text fill="#000000" font-family="sans-serif" font-size="20" lengthAdjust="spacing" textLength="78" x="190" y="66.918">id: String</text><ellipse cx="180" cy="85.3906" fill="none" rx="3" ry="3" style="stroke:#038048;stroke-width:1.0;"/><text fill="#000000" font-family="sans-serif" font-size="20" lengthAdjust="spacing" textLength="111" x="190" y="92.0742">name: String</text><ellipse cx="180" cy="110.5469" fill="none" rx="3" ry="3" style="stroke:#038048;stroke-width:1.0;"/><text fill="#000000" font-family="sans-serif" font-size="20" lengthAdjust="spacing" textLength="109" x="190" y="117.2305">email: String</text><ellipse cx="180" cy="135.7031" fill="none" rx="3" ry="3" style="stroke:#038048;stroke-width:1.0;"/><text fill="#000000" font-family="sans-serif" font-size="20" lengthAdjust="spacing" textLength="149" x="190" y="142.3867">password: String</text><ellipse cx="180" cy="160.8594" fill="none" rx="3" ry="3" style="stroke:#038048;stroke-width:1.0;"/><text fill="#000000" font-family="sans-serif" font-size="20" lengthAdjust="spacing" textLength="162" x="190" y="167.543">status: UserStatus</text><line style="stroke:#181818;stroke-width:0.5;" x1="170" x2="359" y1="175.9375" y2="175.9375"/><ellipse cx="180" cy="194.0156" fill="#84BE84" rx="3" ry="3" style="stroke:#038048;stroke-width:1.0;"/><text fill="#000000" font-family="sans-serif" font-size="20" lengthAdjust="spacing" textLength="164" x="190" y="200.6992">disableUser(): void</text><ellipse cx="180" cy="219.1719" fill="#84BE84" rx="3" ry="3" style="stroke:#038048;stroke-width:1.0;"/><text fill="#000000" font-family="sans-serif" font-size="20" lengthAdjust="spacing" textLength="160" x="190" y="225.8555">enableUser(): void</text></g><!--class UserStatus--><g id="elem_UserStatus"><rect codeLine="12" fill="#F1F1F1" height="76.3125" id="UserStatus" rx="2.5" ry="2.5" style="stroke:#181818;stroke-width:0.5;" width="143" x="7" y="346.5"/><ellipse cx="28.4" cy="364.0781" fill="#ADD1B2" rx="12" ry="12" style="stroke:#181818;stroke-width:1.0;"/><path d="M30.5406,359 Q30.7281,358.75 30.9469,358.625 Q31.1656,358.4844 31.4156,358.4844 Q31.8531,358.4844 32.1344,358.7969 Q32.4156,359.0938 32.4156,359.8125 L32.4156,361.5156 Q32.4156,362.2344 32.1344,362.5469 Q31.8531,362.8594 31.4156,362.8594 Q31.025,362.8594 30.775,362.625 Q30.525,362.4063 30.4156,361.7969 Q30.3531,361.375 30.1344,361.1563 Q29.7438,360.7188 29.025,360.4531 Q28.3063,360.1875 27.5875,360.1875 Q26.6813,360.1875 25.9313,360.5781 Q25.1813,360.9688 24.6031,361.8594 Q24.025,362.7344 24.025,363.9375 L24.025,365.2344 Q24.025,366.6875 25.0719,367.6563 Q26.1344,368.625 27.9938,368.625 Q29.1031,368.625 29.8844,368.3125 Q30.3219,368.1406 30.8375,367.625 Q31.15,367.3125 31.3219,367.2188 Q31.4938,367.125 31.7281,367.125 Q32.1188,367.125 32.4156,367.4375 Q32.7281,367.7344 32.7281,368.1406 Q32.7281,368.5469 32.3219,369.0156 Q31.7281,369.7031 30.7906,370.0938 Q29.525,370.625 28.0094,370.625 Q26.2281,370.625 24.8063,369.8906 Q23.65,369.2969 22.8375,368.0313 Q22.025,366.7656 22.025,365.2813 L22.025,363.9219 Q22.025,362.3594 22.7438,361.0156 Q23.4781,359.6563 24.7594,358.9219 Q26.0563,358.1875 27.5094,358.1875 Q28.3688,358.1875 29.1188,358.3906 Q29.8844,358.5938 30.5406,359 Z " fill="#000000"/><text fill="#000000" font-family="sans-serif" font-size="20" lengthAdjust="spacing" textLength="97" x="44.6" y="372.2617">UserStatus</text><line style="stroke:#181818;stroke-width:0.5;" x1="8" x2="149" y1="381.6563" y2="381.6563"/><ellipse cx="18" cy="399.7344" fill="none" rx="3" ry="3" style="stroke:#038048;stroke-width:1.0;"/><text fill="#000000" font-family="sans-serif" font-size="20" lengthAdjust="spacing" textLength="116" x="28" y="406.418">status: String</text><line style="stroke:#181818;stroke-width:0.5;" x1="8" x2="149" y1="414.8125" y2="414.8125"/></g><!--class Admin--><g id="elem_Admin"><rect codeLine="16" fill="#F1F1F1" height="101.4688" id="Admin" rx="2.5" ry="2.5" style="stroke:#181818;stroke-width:0.5;" width="159" x="185" y="334"/><ellipse cx="233" cy="351.5781" fill="#ADD1B2" rx="12" ry="12" style="stroke:#181818;stroke-width:1.0;"/><path d="M235.1406,346.5 Q235.3281,346.25 235.5469,346.125 Q235.7656,345.9844 236.0156,345.9844 Q236.4531,345.9844 236.7344,346.2969 Q237.0156,346.5938 237.0156,347.3125 L237.0156,349.0156 Q237.0156,349.7344 236.7344,350.0469 Q236.4531,350.3594 236.0156,350.3594 Q235.625,350.3594 235.375,350.125 Q235.125,349.9063 235.0156,349.2969 Q234.9531,348.875 234.7344,348.6563 Q234.3438,348.2188 233.625,347.9531 Q232.9063,347.6875 232.1875,347.6875 Q231.2813,347.6875 230.5313,348.0781 Q229.7813,348.4688 229.2031,349.3594 Q228.625,350.2344 228.625,351.4375 L228.625,352.7344 Q228.625,354.1875 229.6719,355.1563 Q230.7344,356.125 232.5938,356.125 Q233.7031,356.125 234.4844,355.8125 Q234.9219,355.6406 235.4375,355.125 Q235.75,354.8125 235.9219,354.7188 Q236.0938,354.625 236.3281,354.625 Q236.7188,354.625 237.0156,354.9375 Q237.3281,355.2344 237.3281,355.6406 Q237.3281,356.0469 236.9219,356.5156 Q236.3281,357.2031 235.3906,357.5938 Q234.125,358.125 232.6094,358.125 Q230.8281,358.125 229.4063,357.3906 Q228.25,356.7969 227.4375,355.5313 Q226.625,354.2656 226.625,352.7813 L226.625,351.4219 Q226.625,349.8594 227.3438,348.5156 Q228.0781,347.1563 229.3594,346.4219 Q230.6563,345.6875 232.1094,345.6875 Q232.9688,345.6875 233.7188,345.8906 Q234.4844,346.0938 235.1406,346.5 Z " fill="#000000"/><text fill="#000000" font-family="sans-serif" font-size="20" lengthAdjust="spacing" textLength="54" x="255" y="359.7617">Admin</text><line style="stroke:#181818;stroke-width:0.5;" x1="186" x2="343" y1="369.1563" y2="369.1563"/><ellipse cx="196" cy="387.2344" fill="none" rx="3" ry="3" style="stroke:#038048;stroke-width:1.0;"/><text fill="#000000" font-family="sans-serif" font-size="20" lengthAdjust="spacing" textLength="132" x="206" y="393.918">adminId: String</text><ellipse cx="196" cy="412.3906" fill="none" rx="3" ry="3" style="stroke:#038048;stroke-width:1.0;"/><text fill="#000000" font-family="sans-serif" font-size="20" lengthAdjust="spacing" textLength="96" x="206" y="419.0742">role: String</text><line style="stroke:#181818;stroke-width:0.5;" x1="186" x2="343" y1="427.4688" y2="427.4688"/></g><!--class AuditLog--><g id="elem_AuditLog"><rect codeLine="21" fill="#F1F1F1" height="126.625" id="AuditLog" rx="2.5" ry="2.5" style="stroke:#181818;stroke-width:0.5;" width="187" x="379" y="321"/><ellipse cx="429.5" cy="338.5781" fill="#ADD1B2" rx="12" ry="12" style="stroke:#181818;stroke-width:1.0;"/><path d="M431.6406,333.5 Q431.8281,333.25 432.0469,333.125 Q432.2656,332.9844 432.5156,332.9844 Q432.9531,332.9844 433.2344,333.2969 Q433.5156,333.5938 433.5156,334.3125 L433.5156,336.0156 Q433.5156,336.7344 433.2344,337.0469 Q432.9531,337.3594 432.5156,337.3594 Q432.125,337.3594 431.875,337.125 Q431.625,336.9063 431.5156,336.2969 Q431.4531,335.875 431.2344,335.6563 Q430.8438,335.2188 430.125,334.9531 Q429.4063,334.6875 428.6875,334.6875 Q427.7813,334.6875 427.0313,335.0781 Q426.2813,335.4688 425.7031,336.3594 Q425.125,337.2344 425.125,338.4375 L425.125,339.7344 Q425.125,341.1875 426.1719,342.1563 Q427.2344,343.125 429.0938,343.125 Q430.2031,343.125 430.9844,342.8125 Q431.4219,342.6406 431.9375,342.125 Q432.25,341.8125 432.4219,341.7188 Q432.5938,341.625 432.8281,341.625 Q433.2188,341.625 433.5156,341.9375 Q433.8281,342.2344 433.8281,342.6406 Q433.8281,343.0469 433.4219,343.5156 Q432.8281,344.2031 431.8906,344.5938 Q430.625,345.125 429.1094,345.125 Q427.3281,345.125 425.9063,344.3906 Q424.75,343.7969 423.9375,342.5313 Q423.125,341.2656 423.125,339.7813 L423.125,338.4219 Q423.125,336.8594 423.8438,335.5156 Q424.5781,334.1563 425.8594,333.4219 Q427.1563,332.6875 428.6094,332.6875 Q429.4688,332.6875 430.2188,332.8906 Q430.9844,333.0938 431.6406,333.5 Z " fill="#000000"/><text fill="#000000" font-family="sans-serif" font-size="20" lengthAdjust="spacing" textLength="77" x="451.5" y="346.7617">AuditLog</text><line style="stroke:#181818;stroke-width:0.5;" x1="380" x2="565" y1="356.1563" y2="356.1563"/><ellipse cx="390" cy="374.2344" fill="none" rx="3" ry="3" style="stroke:#038048;stroke-width:1.0;"/><text fill="#000000" font-family="sans-serif" font-size="20" lengthAdjust="spacing" textLength="115" x="400" y="380.918">action: String</text><ellipse cx="390" cy="399.3906" fill="none" rx="3" ry="3" style="stroke:#038048;stroke-width:1.0;"/><text fill="#000000" font-family="sans-serif" font-size="20" lengthAdjust="spacing" textLength="160" x="400" y="406.0742">changedBy: String</text><ellipse cx="390" cy="424.5469" fill="none" rx="3" ry="3" style="stroke:#038048;stroke-width:1.0;"/><text fill="#000000" font-family="sans-serif" font-size="20" lengthAdjust="spacing" textLength="159" x="400" y="431.2305">changeDate: Date</text><line style="stroke:#181818;stroke-width:0.5;" x1="380" x2="565" y1="439.625" y2="439.625"/></g><!--link User to UserStatus--><g id="link_User_UserStatus"><path codeLine="28" d="M184.54,234.13 C157.32,272.47 128.59,312.94 107.91,342.08 " fill="none" id="User-to-UserStatus" style="stroke:#181818;stroke-width:1.0;"/><polygon fill="#181818" points="104.91,346.29,113.3811,341.2661,107.804,342.2127,106.8574,336.6356,104.91,346.29" style="stroke:#181818;stroke-width:1.0;"/><text fill="#000000" font-family="sans-serif" font-size="20" lengthAdjust="spacing" textLength="31" x="161.5" y="285.7617">has</text><text fill="#000000" font-family="sans-serif" font-size="20" lengthAdjust="spacing" textLength="11" x="97.2425" y="333.9574">1</text></g><!--link User to AuditLog--><g id="link_User_AuditLog"><path codeLine="29" d="M358.7,234.29 C366.81,244.29 374.83,254.3 382.5,264 C395.78,280.82 409.85,299.21 422.82,316.41 " fill="none" id="User-to-AuditLog" style="stroke:#181818;stroke-width:1.0;"/><polygon fill="#181818" points="426.09,320.75,423.89,311.15,423.09,316.75,417.49,315.95,426.09,320.75" style="stroke:#181818;stroke-width:1.0;"/><text fill="#000000" font-family="sans-serif" font-size="20" lengthAdjust="spacing" textLength="95" x="403.5" y="285.7617">has history</text><text fill="#000000" font-family="sans-serif" font-size="20" lengthAdjust="spacing" textLength="31" x="388.7055" y="308.6758">1..*</text></g><!--link User to Admin--><g id="link_User_Admin"><path codeLine="30" d="M264.5,234.13 C264.5,266.9 264.5,301.24 264.5,328.72 " fill="none" id="User-to-Admin" style="stroke:#181818;stroke-width:1.0;"/><polygon fill="#181818" points="264.5,333.77,268.5,324.77,264.5,328.77,260.5,324.77,264.5,333.77" style="stroke:#181818;stroke-width:1.0;"/><text fill="#000000" font-family="sans-serif" font-size="20" lengthAdjust="spacing" textLength="108" x="265.5" y="285.7617">managed by</text><text fill="#000000" font-family="sans-serif" font-size="20" lengthAdjust="spacing" textLength="11" x="252.7953" y="321.4104">1</text></g><!--SRC=[RP1DJiCm48NtFiKe6_xK2bXwWGH2I4YiY3Z0D1wIKHqxyZYWWBWxSTAKkjGBo_F6x_CRovPTXm5Rwwij6J3qZhsDJzx5ahy8Rg-LgYoAm9jGW6y5uxfYew6CWLqzrmvRoXLgaMqkTIFbquSZgqIClUW9NqxdMJSikB6KvFCB3H-UpOxi_ka_Xnbdo99qmU-UtD-yDosxvHAculaeMF2MJlXwm_75rtjh5Tcxt5arw6eo3yCf-H7ZY4rxWfx1ArbC26cu4pLzycfr1yLDSJYDXWQpxdfzMVo5cThGi4GVXXmo3wgXHOTZADWCwXS0]--></g></svg>