<?xml version="1.0" encoding="UTF-8" standalone="no"?><svg xmlns="http://www.w3.org/2000/svg" xmlns:xlink="http://www.w3.org/1999/xlink" contentStyleType="text/css" height="615px" preserveAspectRatio="none" style="width:434px;height:615px;background:#FFFFFF;" version="1.1" viewBox="0 0 434 615" width="434px" zoomAndPan="magnify"><defs/><g><!--cluster User Management--><g id="cluster_User Management"><path d="M8.5,6.8945 L180.5,6.8945 A3.75,3.75 0 0 1 183,9.3945 L190,38.0508 L424.5,38.0508 A2.5,2.5 0 0 1 427,40.5508 L427,606.3945 A2.5,2.5 0 0 1 424.5,608.8945 L8.5,608.8945 A2.5,2.5 0 0 1 6,606.3945 L6,9.3945 A2.5,2.5 0 0 1 8.5,6.8945 " fill="none" style="stroke:#000000;stroke-width:1.5;"/><line style="stroke:#000000;stroke-width:1.5;" x1="6" x2="190" y1="38.0508" y2="38.0508"/><text fill="#000000" font-family="sans-serif" font-size="20" font-weight="bold" lengthAdjust="spacing" textLength="171" x="10" y="29.6563">User Management</text><text fill="#000000" font-family="sans-serif" font-size="20" font-style="italic" lengthAdjust="spacing" textLength="111" x="165" y="60.8125">«aggregate»</text></g><!--class User--><g id="elem_User"><rect codeLine="4" fill="#F1F1F1" height="277.5625" id="User" rx="2.5" ry="2.5" style="stroke:#181818;stroke-width:0.5;" width="191" x="217.5" y="75.8945"/><ellipse cx="275" cy="118.6289" fill="#ADD1B2" rx="12" ry="12" style="stroke:#181818;stroke-width:1.0;"/><path d="M277.1406,113.5508 Q277.3281,113.3008 277.5469,113.1758 Q277.7656,113.0352 278.0156,113.0352 Q278.4531,113.0352 278.7344,113.3477 Q279.0156,113.6445 279.0156,114.3633 L279.0156,116.0664 Q279.0156,116.7852 278.7344,117.0977 Q278.4531,117.4102 278.0156,117.4102 Q277.625,117.4102 277.375,117.1758 Q277.125,116.957 277.0156,116.3477 Q276.9531,115.9258 276.7344,115.707 Q276.3438,115.2695 275.625,115.0039 Q274.9063,114.7383 274.1875,114.7383 Q273.2813,114.7383 272.5313,115.1289 Q271.7813,115.5195 271.2031,116.4102 Q270.625,117.2852 270.625,118.4883 L270.625,119.7852 Q270.625,121.2383 271.6719,122.207 Q272.7344,123.1758 274.5938,123.1758 Q275.7031,123.1758 276.4844,122.8633 Q276.9219,122.6914 277.4375,122.1758 Q277.75,121.8633 277.9219,121.7695 Q278.0938,121.6758 278.3281,121.6758 Q278.7188,121.6758 279.0156,121.9883 Q279.3281,122.2852 279.3281,122.6914 Q279.3281,123.0977 278.9219,123.5664 Q278.3281,124.2539 277.3906,124.6445 Q276.125,125.1758 274.6094,125.1758 Q272.8281,125.1758 271.4063,124.4414 Q270.25,123.8477 269.4375,122.582 Q268.625,121.3164 268.625,119.832 L268.625,118.4727 Q268.625,116.9102 269.3438,115.5664 Q270.0781,114.207 271.3594,113.4727 Q272.6563,112.7383 274.1094,112.7383 Q274.9688,112.7383 275.7188,112.9414 Q276.4844,113.1445 277.1406,113.5508 Z " fill="#000000"/><text fill="#000000" font-family="sans-serif" font-size="20" font-style="italic" lengthAdjust="spacing" textLength="71" x="295" y="101.6563">«Entity»</text><text fill="#000000" font-family="sans-serif" font-size="20" font-style="italic" lengthAdjust="spacing" textLength="56" x="302.5" y="126.8125">«root»</text><text fill="#000000" font-family="sans-serif" font-size="20" lengthAdjust="spacing" textLength="41" x="310" y="151.9688">User</text><line style="stroke:#181818;stroke-width:0.5;" x1="218.5" x2="407.5" y1="161.3633" y2="161.3633"/><ellipse cx="228.5" cy="179.4414" fill="none" rx="3" ry="3" style="stroke:#038048;stroke-width:1.0;"/><text fill="#000000" font-family="sans-serif" font-size="20" lengthAdjust="spacing" textLength="78" x="238.5" y="186.125">id: String</text><ellipse cx="228.5" cy="204.5977" fill="none" rx="3" ry="3" style="stroke:#038048;stroke-width:1.0;"/><text fill="#000000" font-family="sans-serif" font-size="20" lengthAdjust="spacing" textLength="111" x="238.5" y="211.2813">name: String</text><ellipse cx="228.5" cy="229.7539" fill="none" rx="3" ry="3" style="stroke:#038048;stroke-width:1.0;"/><text fill="#000000" font-family="sans-serif" font-size="20" lengthAdjust="spacing" textLength="109" x="238.5" y="236.4375">email: String</text><ellipse cx="228.5" cy="254.9102" fill="none" rx="3" ry="3" style="stroke:#038048;stroke-width:1.0;"/><text fill="#000000" font-family="sans-serif" font-size="20" lengthAdjust="spacing" textLength="149" x="238.5" y="261.5938">password: String</text><ellipse cx="228.5" cy="280.0664" fill="none" rx="3" ry="3" style="stroke:#038048;stroke-width:1.0;"/><text fill="#000000" font-family="sans-serif" font-size="20" lengthAdjust="spacing" textLength="162" x="238.5" y="286.75">status: UserStatus</text><line style="stroke:#181818;stroke-width:0.5;" x1="218.5" x2="407.5" y1="295.1445" y2="295.1445"/><ellipse cx="228.5" cy="313.2227" fill="#84BE84" rx="3" ry="3" style="stroke:#038048;stroke-width:1.0;"/><text fill="#000000" font-family="sans-serif" font-size="20" lengthAdjust="spacing" textLength="164" x="238.5" y="319.9063">disableUser(): void</text><ellipse cx="228.5" cy="338.3789" fill="#84BE84" rx="3" ry="3" style="stroke:#038048;stroke-width:1.0;"/><text fill="#000000" font-family="sans-serif" font-size="20" lengthAdjust="spacing" textLength="160" x="238.5" y="345.0625">enableUser(): void</text></g><!--class UserStatus--><g id="elem_UserStatus"><rect codeLine="14" fill="#F1F1F1" height="101.4688" id="UserStatus" rx="2.5" ry="2.5" style="stroke:#181818;stroke-width:0.5;" width="166" x="22" y="466.3945"/><ellipse cx="38" cy="496.5508" fill="#ADD1B2" rx="12" ry="12" style="stroke:#181818;stroke-width:1.0;"/><path d="M40.1406,491.4727 Q40.3281,491.2227 40.5469,491.0977 Q40.7656,490.957 41.0156,490.957 Q41.4531,490.957 41.7344,491.2695 Q42.0156,491.5664 42.0156,492.2852 L42.0156,493.9883 Q42.0156,494.707 41.7344,495.0195 Q41.4531,495.332 41.0156,495.332 Q40.625,495.332 40.375,495.0977 Q40.125,494.8789 40.0156,494.2695 Q39.9531,493.8477 39.7344,493.6289 Q39.3438,493.1914 38.625,492.9258 Q37.9063,492.6602 37.1875,492.6602 Q36.2813,492.6602 35.5313,493.0508 Q34.7813,493.4414 34.2031,494.332 Q33.625,495.207 33.625,496.4102 L33.625,497.707 Q33.625,499.1602 34.6719,500.1289 Q35.7344,501.0977 37.5938,501.0977 Q38.7031,501.0977 39.4844,500.7852 Q39.9219,500.6133 40.4375,500.0977 Q40.75,499.7852 40.9219,499.6914 Q41.0938,499.5977 41.3281,499.5977 Q41.7188,499.5977 42.0156,499.9102 Q42.3281,500.207 42.3281,500.6133 Q42.3281,501.0195 41.9219,501.4883 Q41.3281,502.1758 40.3906,502.5664 Q39.125,503.0977 37.6094,503.0977 Q35.8281,503.0977 34.4063,502.3633 Q33.25,501.7695 32.4375,500.5039 Q31.625,499.2383 31.625,497.7539 L31.625,496.3945 Q31.625,494.832 32.3438,493.4883 Q33.0781,492.1289 34.3594,491.3945 Q35.6563,490.6602 37.1094,490.6602 Q37.9688,490.6602 38.7188,490.8633 Q39.4844,491.0664 40.1406,491.4727 Z " fill="#000000"/><text fill="#000000" font-family="sans-serif" font-size="20" font-style="italic" lengthAdjust="spacing" textLength="136" x="51" y="492.1563">«Value Object»</text><text fill="#000000" font-family="sans-serif" font-size="20" lengthAdjust="spacing" textLength="97" x="70.5" y="517.3125">UserStatus</text><line style="stroke:#181818;stroke-width:0.5;" x1="23" x2="187" y1="526.707" y2="526.707"/><ellipse cx="33" cy="544.7852" fill="none" rx="3" ry="3" style="stroke:#038048;stroke-width:1.0;"/><text fill="#000000" font-family="sans-serif" font-size="20" lengthAdjust="spacing" textLength="116" x="43" y="551.4688">status: String</text><line style="stroke:#181818;stroke-width:0.5;" x1="23" x2="187" y1="559.8633" y2="559.8633"/></g><!--class Admin--><g id="elem_Admin"><rect codeLine="18" fill="#F1F1F1" height="126.625" id="Admin" rx="2.5" ry="2.5" style="stroke:#181818;stroke-width:0.5;" width="159" x="23.5" y="151.3945"/><ellipse cx="65.6" cy="181.5508" fill="#ADD1B2" rx="12" ry="12" style="stroke:#181818;stroke-width:1.0;"/><path d="M67.7406,176.4727 Q67.9281,176.2227 68.1469,176.0977 Q68.3656,175.957 68.6156,175.957 Q69.0531,175.957 69.3344,176.2695 Q69.6156,176.5664 69.6156,177.2852 L69.6156,178.9883 Q69.6156,179.707 69.3344,180.0195 Q69.0531,180.332 68.6156,180.332 Q68.225,180.332 67.975,180.0977 Q67.725,179.8789 67.6156,179.2695 Q67.5531,178.8477 67.3344,178.6289 Q66.9438,178.1914 66.225,177.9258 Q65.5063,177.6602 64.7875,177.6602 Q63.8812,177.6602 63.1312,178.0508 Q62.3812,178.4414 61.8031,179.332 Q61.225,180.207 61.225,181.4102 L61.225,182.707 Q61.225,184.1602 62.2719,185.1289 Q63.3344,186.0977 65.1938,186.0977 Q66.3031,186.0977 67.0844,185.7852 Q67.5219,185.6133 68.0375,185.0977 Q68.35,184.7852 68.5219,184.6914 Q68.6938,184.5977 68.9281,184.5977 Q69.3188,184.5977 69.6156,184.9102 Q69.9281,185.207 69.9281,185.6133 Q69.9281,186.0195 69.5219,186.4883 Q68.9281,187.1758 67.9906,187.5664 Q66.725,188.0977 65.2094,188.0977 Q63.4281,188.0977 62.0062,187.3633 Q60.85,186.7695 60.0375,185.5039 Q59.225,184.2383 59.225,182.7539 L59.225,181.3945 Q59.225,179.832 59.9437,178.4883 Q60.6781,177.1289 61.9594,176.3945 Q63.2562,175.6602 64.7094,175.6602 Q65.5688,175.6602 66.3188,175.8633 Q67.0844,176.0664 67.7406,176.4727 Z " fill="#000000"/><text fill="#000000" font-family="sans-serif" font-size="20" font-style="italic" lengthAdjust="spacing" textLength="71" x="84.4" y="177.1563">«Entity»</text><text fill="#000000" font-family="sans-serif" font-size="20" lengthAdjust="spacing" textLength="54" x="92.9" y="202.3125">Admin</text><line style="stroke:#181818;stroke-width:0.5;" x1="24.5" x2="181.5" y1="211.707" y2="211.707"/><ellipse cx="34.5" cy="229.7852" fill="none" rx="3" ry="3" style="stroke:#038048;stroke-width:1.0;"/><text fill="#000000" font-family="sans-serif" font-size="20" lengthAdjust="spacing" textLength="132" x="44.5" y="236.4688">adminId: String</text><ellipse cx="34.5" cy="254.9414" fill="none" rx="3" ry="3" style="stroke:#038048;stroke-width:1.0;"/><text fill="#000000" font-family="sans-serif" font-size="20" lengthAdjust="spacing" textLength="96" x="44.5" y="261.625">role: String</text><line style="stroke:#181818;stroke-width:0.5;" x1="24.5" x2="181.5" y1="270.0195" y2="270.0195"/></g><!--class AuditLog--><g id="elem_AuditLog"><rect codeLine="23" fill="#F1F1F1" height="151.7813" id="AuditLog" rx="2.5" ry="2.5" style="stroke:#181818;stroke-width:0.5;" width="187" x="223.5" y="440.8945"/><ellipse cx="248.95" cy="471.0508" fill="#ADD1B2" rx="12" ry="12" style="stroke:#181818;stroke-width:1.0;"/><path d="M251.0906,465.9727 Q251.2781,465.7227 251.4969,465.5977 Q251.7156,465.457 251.9656,465.457 Q252.4031,465.457 252.6844,465.7695 Q252.9656,466.0664 252.9656,466.7852 L252.9656,468.4883 Q252.9656,469.207 252.6844,469.5195 Q252.4031,469.832 251.9656,469.832 Q251.575,469.832 251.325,469.5977 Q251.075,469.3789 250.9656,468.7695 Q250.9031,468.3477 250.6844,468.1289 Q250.2938,467.6914 249.575,467.4258 Q248.8563,467.1602 248.1375,467.1602 Q247.2313,467.1602 246.4813,467.5508 Q245.7313,467.9414 245.1531,468.832 Q244.575,469.707 244.575,470.9102 L244.575,472.207 Q244.575,473.6602 245.6219,474.6289 Q246.6844,475.5977 248.5438,475.5977 Q249.6531,475.5977 250.4344,475.2852 Q250.8719,475.1133 251.3875,474.5977 Q251.7,474.2852 251.8719,474.1914 Q252.0438,474.0977 252.2781,474.0977 Q252.6688,474.0977 252.9656,474.4102 Q253.2781,474.707 253.2781,475.1133 Q253.2781,475.5195 252.8719,475.9883 Q252.2781,476.6758 251.3406,477.0664 Q250.075,477.5977 248.5594,477.5977 Q246.7781,477.5977 245.3563,476.8633 Q244.2,476.2695 243.3875,475.0039 Q242.575,473.7383 242.575,472.2539 L242.575,470.8945 Q242.575,469.332 243.2938,467.9883 Q244.0281,466.6289 245.3094,465.8945 Q246.6063,465.1602 248.0594,465.1602 Q248.9188,465.1602 249.6688,465.3633 Q250.4344,465.5664 251.0906,465.9727 Z " fill="#000000"/><text fill="#000000" font-family="sans-serif" font-size="20" font-style="italic" lengthAdjust="spacing" textLength="136" x="264.05" y="466.6563">«Value Object»</text><text fill="#000000" font-family="sans-serif" font-size="20" lengthAdjust="spacing" textLength="77" x="293.55" y="491.8125">AuditLog</text><line style="stroke:#181818;stroke-width:0.5;" x1="224.5" x2="409.5" y1="501.207" y2="501.207"/><ellipse cx="234.5" cy="519.2852" fill="none" rx="3" ry="3" style="stroke:#038048;stroke-width:1.0;"/><text fill="#000000" font-family="sans-serif" font-size="20" lengthAdjust="spacing" textLength="115" x="244.5" y="525.9688">action: String</text><ellipse cx="234.5" cy="544.4414" fill="none" rx="3" ry="3" style="stroke:#038048;stroke-width:1.0;"/><text fill="#000000" font-family="sans-serif" font-size="20" lengthAdjust="spacing" textLength="160" x="244.5" y="551.125">changedBy: String</text><ellipse cx="234.5" cy="569.5977" fill="none" rx="3" ry="3" style="stroke:#038048;stroke-width:1.0;"/><text fill="#000000" font-family="sans-serif" font-size="20" lengthAdjust="spacing" textLength="159" x="244.5" y="576.2813">changeDate: Date</text><line style="stroke:#181818;stroke-width:0.5;" x1="224.5" x2="409.5" y1="584.6758" y2="584.6758"/></g><!--link User to UserStatus--><g id="link_User_UserStatus"><path codeLine="30" d="M217.22,354.0445 C190.7,392.2945 163.45,431.5845 142.45,461.8745 " fill="none" id="User-to-UserStatus" style="stroke:#181818;stroke-width:1.0;"/><polygon fill="#181818" points="139.4,466.2745,147.807,461.144,142.2423,462.161,141.2254,456.5963,139.4,466.2745" style="stroke:#181818;stroke-width:1.0;"/><text fill="#000000" font-family="sans-serif" font-size="20" lengthAdjust="spacing" textLength="31" x="191" y="405.6563">has</text><text fill="#000000" font-family="sans-serif" font-size="20" lengthAdjust="spacing" textLength="11" x="132.1028" y="453.929">1</text></g><!--link User to AuditLog--><g id="link_User_AuditLog"><path codeLine="31" d="M314.84,354.0445 C315.21,381.8945 315.59,410.2945 315.93,435.3645 " fill="none" id="User-to-AuditLog" style="stroke:#181818;stroke-width:1.0;"/><polygon fill="#181818" points="316,440.6645,319.871,431.6083,315.9286,435.665,311.8718,431.7226,316,440.6645" style="stroke:#181818;stroke-width:1.0;"/><text fill="#000000" font-family="sans-serif" font-size="20" lengthAdjust="spacing" textLength="95" x="316" y="405.6563">has history</text><text fill="#000000" font-family="sans-serif" font-size="20" lengthAdjust="spacing" textLength="31" x="283.5305" y="428.5404">1..*</text></g><!--SRC=[VL5DJyCm3BttLrYzyALDmB6gAe402Gd4OOAxrvZCD4sgn1qQQF-TDXjQwSPyY1o_bsS_9rHi6_HO6rTMf43HExP67foL6NyHN5ycIODbXPeWVGtauHbjTwd9IWfvZbfxqYXK5F2T9D15QJ04YDmylxV2ikh0FFVEIMJ1DYvOPJ0JprRlQXPhsgzIZMpsoqtNwTFv0p91KDgGnJ5cCTzXYWFE3VNGwLa6IyTgqCaUnDPZRnlHpjORcfRWPVv1vSZUxmo3sVx8tAYQxN17WxVOOuy7Z7bdw8XagrYUd3uw5vR2pkvBbmkqcjJjwZ_ehlld3FfpsFbayzUDKmHzeYYWy1AL0zV2DetCo9jC2aYlqk4ICrXW63Ecq_DqvoTIOC51d5ybw-G7]--></g></svg>