<?xml version="1.0" encoding="UTF-8" standalone="no"?><svg xmlns="http://www.w3.org/2000/svg" xmlns:xlink="http://www.w3.org/1999/xlink" contentStyleType="text/css" height="625px" preserveAspectRatio="none" style="width:546px;height:625px;background:#FFFFFF;" version="1.1" viewBox="0 0 546 625" width="546px" zoomAndPan="magnify"><defs/><g><!--cluster User Management--><g id="cluster_User Management"><path d="M8.5,6.7188 L195.5,6.7188 A3.75,3.75 0 0 1 198,9.2188 L205,36.2734 L536.5,36.2734 A2.5,2.5 0 0 1 539,38.7734 L539,615.7688 A2.5,2.5 0 0 1 536.5,618.2688 L8.5,618.2688 A2.5,2.5 0 0 1 6,615.7688 L6,9.2188 A2.5,2.5 0 0 1 8.5,6.7188 " fill="none" style="stroke:#000000;stroke-width:1.5;"/><line style="stroke:#000000;stroke-width:1.5;" x1="6" x2="205" y1="36.2734" y2="36.2734"/><text fill="#000000" font-family="sans-serif" font-size="20" font-weight="bold" lengthAdjust="spacing" textLength="186" x="10" y="28.0547">User Management</text><text fill="#000000" font-family="sans-serif" font-size="20" font-style="italic" lengthAdjust="spacing" textLength="115" x="219" y="57.6094">«aggregate»</text></g><!--class User--><g id="elem_User"><rect codeLine="4" fill="#F1F1F1" height="261.5469" id="User" rx="2.5" ry="2.5" style="stroke:#181818;stroke-width:0.5;" width="207" x="57.5" y="72.7188"/><ellipse cx="122" cy="113.0508" fill="#ADD1B2" rx="12" ry="12" style="stroke:#181818;stroke-width:1.0;"/><path d="M124.8066,120.1309 Q124.123,120.4824 123.3711,120.6582 Q122.6191,120.834 121.7891,120.834 Q118.8398,120.834 117.2871,118.8906 Q115.7344,116.9473 115.7344,113.2754 Q115.7344,109.5938 117.2871,107.6504 Q118.8398,105.707 121.7891,105.707 Q122.6191,105.707 123.3809,105.8828 Q124.1426,106.0586 124.8066,106.4102 L124.8066,109.6133 Q124.0645,108.9297 123.3662,108.6123 Q122.668,108.2949 121.9258,108.2949 Q120.3438,108.2949 119.5381,109.5498 Q118.7324,110.8047 118.7324,113.2754 Q118.7324,115.7363 119.5381,116.9912 Q120.3438,118.2461 121.9258,118.2461 Q122.668,118.2461 123.3662,117.9287 Q124.0645,117.6113 124.8066,116.9277 Z " fill="#000000"/><text fill="#000000" font-family="sans-serif" font-size="20" font-style="italic" lengthAdjust="spacing" textLength="73" x="142" y="97.0547">«Entity»</text><text fill="#000000" font-family="sans-serif" font-size="20" font-style="italic" lengthAdjust="spacing" textLength="59" x="149" y="120.6094">«root»</text><text fill="#000000" font-family="sans-serif" font-size="20" lengthAdjust="spacing" textLength="43" x="157" y="144.1641">User</text><line style="stroke:#181818;stroke-width:0.5;" x1="58.5" x2="263.5" y1="153.3828" y2="153.3828"/><ellipse cx="68.5" cy="170.6602" fill="none" rx="3" ry="3" style="stroke:#038048;stroke-width:1.0;"/><text fill="#000000" font-family="sans-serif" font-size="20" lengthAdjust="spacing" textLength="87" x="78.5" y="176.7188">id: String</text><ellipse cx="68.5" cy="194.2148" fill="none" rx="3" ry="3" style="stroke:#038048;stroke-width:1.0;"/><text fill="#000000" font-family="sans-serif" font-size="20" lengthAdjust="spacing" textLength="121" x="78.5" y="200.2734">name: String</text><ellipse cx="68.5" cy="217.7695" fill="none" rx="3" ry="3" style="stroke:#038048;stroke-width:1.0;"/><text fill="#000000" font-family="sans-serif" font-size="20" lengthAdjust="spacing" textLength="121" x="78.5" y="223.8281">email: String</text><ellipse cx="68.5" cy="241.3242" fill="none" rx="3" ry="3" style="stroke:#038048;stroke-width:1.0;"/><text fill="#000000" font-family="sans-serif" font-size="20" lengthAdjust="spacing" textLength="160" x="78.5" y="247.3828">password: String</text><ellipse cx="68.5" cy="264.8789" fill="none" rx="3" ry="3" style="stroke:#038048;stroke-width:1.0;"/><text fill="#000000" font-family="sans-serif" font-size="20" lengthAdjust="spacing" textLength="170" x="78.5" y="270.9375">status: UserStatus</text><line style="stroke:#181818;stroke-width:0.5;" x1="58.5" x2="263.5" y1="279.1563" y2="279.1563"/><ellipse cx="68.5" cy="296.4336" fill="#84BE84" rx="3" ry="3" style="stroke:#038048;stroke-width:1.0;"/><text fill="#000000" font-family="sans-serif" font-size="20" lengthAdjust="spacing" textLength="180" x="78.5" y="302.4922">disableUser(): void</text><ellipse cx="68.5" cy="319.9883" fill="#84BE84" rx="3" ry="3" style="stroke:#038048;stroke-width:1.0;"/><text fill="#000000" font-family="sans-serif" font-size="20" lengthAdjust="spacing" textLength="174" x="78.5" y="326.0469">enableUser(): void</text></g><!--class UserStatus--><g id="elem_UserStatus"><rect codeLine="14" fill="#F1F1F1" height="96.6641" id="UserStatus" rx="2.5" ry="2.5" style="stroke:#181818;stroke-width:0.5;" width="172" x="46" y="462.7687"/><ellipse cx="62" cy="491.3234" fill="#ADD1B2" rx="12" ry="12" style="stroke:#181818;stroke-width:1.0;"/><path d="M64.8066,498.4035 Q64.123,498.7551 63.3711,498.9309 Q62.6191,499.1066 61.7891,499.1066 Q58.8398,499.1066 57.2871,497.1633 Q55.7344,495.2199 55.7344,491.548 Q55.7344,487.8664 57.2871,485.923 Q58.8398,483.9797 61.7891,483.9797 Q62.6191,483.9797 63.3809,484.1555 Q64.1426,484.3312 64.8066,484.6828 L64.8066,487.8859 Q64.0645,487.2023 63.3662,486.885 Q62.668,486.5676 61.9258,486.5676 Q60.3438,486.5676 59.5381,487.8225 Q58.7324,489.0773 58.7324,491.548 Q58.7324,494.009 59.5381,495.2639 Q60.3438,496.5187 61.9258,496.5187 Q62.668,496.5187 63.3662,496.2014 Q64.0645,495.884 64.8066,495.2004 Z " fill="#000000"/><text fill="#000000" font-family="sans-serif" font-size="20" font-style="italic" lengthAdjust="spacing" textLength="142" x="75" y="487.1047">«Value Object»</text><text fill="#000000" font-family="sans-serif" font-size="20" lengthAdjust="spacing" textLength="101" x="95.5" y="510.6594">UserStatus</text><line style="stroke:#181818;stroke-width:0.5;" x1="47" x2="217" y1="519.8781" y2="519.8781"/><ellipse cx="57" cy="537.1555" fill="none" rx="3" ry="3" style="stroke:#038048;stroke-width:1.0;"/><text fill="#000000" font-family="sans-serif" font-size="20" lengthAdjust="spacing" textLength="125" x="67" y="543.2141">status: String</text><line style="stroke:#181818;stroke-width:0.5;" x1="47" x2="217" y1="551.4328" y2="551.4328"/></g><!--class Admin--><g id="elem_Admin"><rect codeLine="18" fill="#F1F1F1" height="120.2188" id="Admin" rx="2.5" ry="2.5" style="stroke:#181818;stroke-width:0.5;" width="175" x="337.5" y="143.3887"/><ellipse cx="386" cy="171.9434" fill="#ADD1B2" rx="12" ry="12" style="stroke:#181818;stroke-width:1.0;"/><path d="M388.8066,179.0235 Q388.123,179.3751 387.3711,179.5509 Q386.6191,179.7266 385.7891,179.7266 Q382.8398,179.7266 381.2871,177.7833 Q379.7344,175.8399 379.7344,172.168 Q379.7344,168.4864 381.2871,166.543 Q382.8398,164.5997 385.7891,164.5997 Q386.6191,164.5997 387.3809,164.7755 Q388.1426,164.9512 388.8066,165.3028 L388.8066,168.5059 Q388.0645,167.8223 387.3662,167.505 Q386.668,167.1876 385.9258,167.1876 Q384.3438,167.1876 383.5381,168.4425 Q382.7324,169.6973 382.7324,172.168 Q382.7324,174.629 383.5381,175.8839 Q384.3438,177.1387 385.9258,177.1387 Q386.668,177.1387 387.3662,176.8214 Q388.0645,176.504 388.8066,175.8204 Z " fill="#000000"/><text fill="#000000" font-family="sans-serif" font-size="20" font-style="italic" lengthAdjust="spacing" textLength="73" x="406" y="167.7247">«Entity»</text><text fill="#000000" font-family="sans-serif" font-size="20" lengthAdjust="spacing" textLength="64" x="410.5" y="191.2794">Admin</text><line style="stroke:#181818;stroke-width:0.5;" x1="338.5" x2="511.5" y1="200.4981" y2="200.4981"/><ellipse cx="348.5" cy="217.7755" fill="none" rx="3" ry="3" style="stroke:#038048;stroke-width:1.0;"/><text fill="#000000" font-family="sans-serif" font-size="20" lengthAdjust="spacing" textLength="148" x="358.5" y="223.8341">adminId: String</text><ellipse cx="348.5" cy="241.3302" fill="none" rx="3" ry="3" style="stroke:#038048;stroke-width:1.0;"/><text fill="#000000" font-family="sans-serif" font-size="20" lengthAdjust="spacing" textLength="105" x="358.5" y="247.3887">role: String</text><line style="stroke:#181818;stroke-width:0.5;" x1="338.5" x2="511.5" y1="255.6075" y2="255.6075"/></g><!--class AuditLog--><g id="elem_AuditLog"><rect codeLine="23" fill="#F1F1F1" height="143.7734" id="AuditLog" rx="2.5" ry="2.5" style="stroke:#181818;stroke-width:0.5;" width="198" x="301" y="439.2687"/><ellipse cx="328.7" cy="467.8234" fill="#ADD1B2" rx="12" ry="12" style="stroke:#181818;stroke-width:1.0;"/><path d="M331.5066,474.9035 Q330.823,475.2551 330.0711,475.4309 Q329.3191,475.6066 328.4891,475.6066 Q325.5398,475.6066 323.9871,473.6633 Q322.4344,471.7199 322.4344,468.048 Q322.4344,464.3664 323.9871,462.423 Q325.5398,460.4797 328.4891,460.4797 Q329.3191,460.4797 330.0809,460.6555 Q330.8426,460.8312 331.5066,461.1828 L331.5066,464.3859 Q330.7645,463.7023 330.0662,463.385 Q329.368,463.0676 328.6258,463.0676 Q327.0438,463.0676 326.2381,464.3225 Q325.4324,465.5773 325.4324,468.048 Q325.4324,470.509 326.2381,471.7639 Q327.0438,473.0187 328.6258,473.0187 Q329.368,473.0187 330.0662,472.7014 Q330.7645,472.384 331.5066,471.7004 Z " fill="#000000"/><text fill="#000000" font-family="sans-serif" font-size="20" font-style="italic" lengthAdjust="spacing" textLength="142" x="344.3" y="463.6047">«Value Object»</text><text fill="#000000" font-family="sans-serif" font-size="20" lengthAdjust="spacing" textLength="87" x="371.8" y="487.1594">AuditLog</text><line style="stroke:#181818;stroke-width:0.5;" x1="302" x2="498" y1="496.3781" y2="496.3781"/><ellipse cx="312" cy="513.6555" fill="none" rx="3" ry="3" style="stroke:#038048;stroke-width:1.0;"/><text fill="#000000" font-family="sans-serif" font-size="20" lengthAdjust="spacing" textLength="126" x="322" y="519.7141">action: String</text><ellipse cx="312" cy="537.2102" fill="none" rx="3" ry="3" style="stroke:#038048;stroke-width:1.0;"/><text fill="#000000" font-family="sans-serif" font-size="20" lengthAdjust="spacing" textLength="171" x="322" y="543.2688">changedBy: String</text><ellipse cx="312" cy="560.7648" fill="none" rx="3" ry="3" style="stroke:#038048;stroke-width:1.0;"/><text fill="#000000" font-family="sans-serif" font-size="20" lengthAdjust="spacing" textLength="168" x="322" y="566.8234">changeDate: Date</text><line style="stroke:#181818;stroke-width:0.5;" x1="302" x2="498" y1="575.0422" y2="575.0422"/></g><!--link User to UserStatus--><g id="link_User_UserStatus"><path codeLine="30" d="M148.66,334.3987 C144.57,377.4787 140.24,423.0387 137.02,456.9187 " fill="none" id="User-to-UserStatus" style="stroke:#181818;stroke-width:1.0;"/><polygon fill="#181818" points="136.58,461.5988,141.4118,453.0166,137.052,456.6211,133.4475,452.2613,136.58,461.5988" style="stroke:#181818;stroke-width:1.0;"/><text fill="#000000" font-family="sans-serif" font-size="20" lengthAdjust="spacing" textLength="33" x="146" y="384.6047">has</text><text fill="#000000" font-family="sans-serif" font-size="20" lengthAdjust="spacing" textLength="13" x="123.113" y="450.3659">1</text></g><!--link User to AuditLog--><g id="link_User_AuditLog"><path codeLine="31" d="M262.7,334.3987 C289.48,368.5987 317.47,404.3488 341.14,434.5887 " fill="none" id="User-to-AuditLog" style="stroke:#181818;stroke-width:1.0;"/><polygon fill="#181818" points="343.97,438.1987,341.5948,428.6406,340.8973,434.2543,335.2836,433.5569,343.97,438.1987" style="stroke:#181818;stroke-width:1.0;"/><text fill="#000000" font-family="sans-serif" font-size="20" lengthAdjust="spacing" textLength="104" x="302" y="384.6047">has history</text><text fill="#000000" font-family="sans-serif" font-size="20" lengthAdjust="spacing" textLength="35" x="302.4131" y="427.1664">1..*</text></g><!--SRC=[VL5DJyCm3BttLrYzyALDmB6gAe402Gd4OOAxrvZCD4sgn1qQQF-TDXjQwSPyY1o_bsS_9rHi6_HO6rTMf43HExP67foL6NyHN5ycIODbXPeWVGtauHbjTwd9IWfvZbfxqYXK5F2T9D15QJ04YDmylxV2ikh0FFVEIMJ1DYvOPJ0JprRlQXPhsgzIZMpsoqtNwTFv0p91KDgGnJ5cCTzXYWFE3VNGwLa6IyTgqCaUnDPZRnlHpjORcfRWPVv1vSZUxmo3sVx8tAYQxN17WxVOOuy7Z7bdw8XagrYUd3uw5vR2pkvBbmkqcjJjwZ_ehlld3FfpsFbayzUDKmHzeYYWy1AL0zV2DetCo9jC2aYlqk4ICrXW63Ecq_DqvoTIOC51d5ybw-G7]--></g></svg>