<?xml version="1.0" encoding="UTF-8" standalone="no"?><svg xmlns="http://www.w3.org/2000/svg" xmlns:xlink="http://www.w3.org/1999/xlink" contentStyleType="text/css" height="668px" preserveAspectRatio="none" style="width:711px;height:668px;background:#FFFFFF;" version="1.1" viewBox="0 0 711 668" width="711px" zoomAndPan="magnify"><defs/><g><!--class Customer--><g id="elem_Customer"><rect codeLine="2" fill="#F1F1F1" height="176.9375" id="Customer" rx="2.5" ry="2.5" style="stroke:#181818;stroke-width:0.5;" width="187" x="313" y="7"/><ellipse cx="359.6" cy="24.5781" fill="#ADD1B2" rx="12" ry="12" style="stroke:#181818;stroke-width:1.0;"/><path d="M361.7406,19.5 Q361.9281,19.25 362.1469,19.125 Q362.3656,18.9844 362.6156,18.9844 Q363.0531,18.9844 363.3344,19.2969 Q363.6156,19.5938 363.6156,20.3125 L363.6156,22.0156 Q363.6156,22.7344 363.3344,23.0469 Q363.0531,23.3594 362.6156,23.3594 Q362.225,23.3594 361.975,23.125 Q361.725,22.9063 361.6156,22.2969 Q361.5531,21.875 361.3344,21.6563 Q360.9438,21.2188 360.225,20.9531 Q359.5063,20.6875 358.7875,20.6875 Q357.8813,20.6875 357.1313,21.0781 Q356.3813,21.4688 355.8031,22.3594 Q355.225,23.2344 355.225,24.4375 L355.225,25.7344 Q355.225,27.1875 356.2719,28.1563 Q357.3344,29.125 359.1938,29.125 Q360.3031,29.125 361.0844,28.8125 Q361.5219,28.6406 362.0375,28.125 Q362.35,27.8125 362.5219,27.7188 Q362.6938,27.625 362.9281,27.625 Q363.3188,27.625 363.6156,27.9375 Q363.9281,28.2344 363.9281,28.6406 Q363.9281,29.0469 363.5219,29.5156 Q362.9281,30.2031 361.9906,30.5938 Q360.725,31.125 359.2094,31.125 Q357.4281,31.125 356.0063,30.3906 Q354.85,29.7969 354.0375,28.5313 Q353.225,27.2656 353.225,25.7813 L353.225,24.4219 Q353.225,22.8594 353.9438,21.5156 Q354.6781,20.1563 355.9594,19.4219 Q357.2563,18.6875 358.7094,18.6875 Q359.5688,18.6875 360.3188,18.8906 Q361.0844,19.0938 361.7406,19.5 Z " fill="#000000"/><text fill="#000000" font-family="sans-serif" font-size="20" lengthAdjust="spacing" textLength="85" x="381.4" y="32.7617">Customer</text><line style="stroke:#181818;stroke-width:0.5;" x1="314" x2="499" y1="42.1563" y2="42.1563"/><ellipse cx="324" cy="60.2344" fill="none" rx="3" ry="3" style="stroke:#038048;stroke-width:1.0;"/><text fill="#000000" font-family="sans-serif" font-size="20" lengthAdjust="spacing" textLength="78" x="334" y="66.918">id: String</text><ellipse cx="324" cy="85.3906" fill="none" rx="3" ry="3" style="stroke:#038048;stroke-width:1.0;"/><text fill="#000000" font-family="sans-serif" font-size="20" lengthAdjust="spacing" textLength="111" x="334" y="92.0742">name: String</text><ellipse cx="324" cy="110.5469" fill="none" rx="3" ry="3" style="stroke:#038048;stroke-width:1.0;"/><text fill="#000000" font-family="sans-serif" font-size="20" lengthAdjust="spacing" textLength="134" x="334" y="117.2305">address: String</text><ellipse cx="324" cy="135.7031" fill="none" rx="3" ry="3" style="stroke:#038048;stroke-width:1.0;"/><text fill="#000000" font-family="sans-serif" font-size="20" lengthAdjust="spacing" textLength="160" x="334" y="142.3867">contactInfo: String</text><line style="stroke:#181818;stroke-width:0.5;" x1="314" x2="499" y1="150.7813" y2="150.7813"/><ellipse cx="324" cy="168.8594" fill="#84BE84" rx="3" ry="3" style="stroke:#038048;stroke-width:1.0;"/><text fill="#000000" font-family="sans-serif" font-size="20" lengthAdjust="spacing" textLength="128" x="334" y="175.543">register(): void</text></g><!--class CustomerRepresentative--><g id="elem_CustomerRepresentative"><rect codeLine="10" fill="#F1F1F1" height="151.7813" id="CustomerRepresentative" rx="2.5" ry="2.5" style="stroke:#181818;stroke-width:0.5;" width="251" x="7" y="271"/><ellipse cx="23" cy="288.5781" fill="#ADD1B2" rx="12" ry="12" style="stroke:#181818;stroke-width:1.0;"/><path d="M25.1406,283.5 Q25.3281,283.25 25.5469,283.125 Q25.7656,282.9844 26.0156,282.9844 Q26.4531,282.9844 26.7344,283.2969 Q27.0156,283.5938 27.0156,284.3125 L27.0156,286.0156 Q27.0156,286.7344 26.7344,287.0469 Q26.4531,287.3594 26.0156,287.3594 Q25.625,287.3594 25.375,287.125 Q25.125,286.9063 25.0156,286.2969 Q24.9531,285.875 24.7344,285.6563 Q24.3438,285.2188 23.625,284.9531 Q22.9063,284.6875 22.1875,284.6875 Q21.2813,284.6875 20.5313,285.0781 Q19.7813,285.4688 19.2031,286.3594 Q18.625,287.2344 18.625,288.4375 L18.625,289.7344 Q18.625,291.1875 19.6719,292.1563 Q20.7344,293.125 22.5938,293.125 Q23.7031,293.125 24.4844,292.8125 Q24.9219,292.6406 25.4375,292.125 Q25.75,291.8125 25.9219,291.7188 Q26.0938,291.625 26.3281,291.625 Q26.7188,291.625 27.0156,291.9375 Q27.3281,292.2344 27.3281,292.6406 Q27.3281,293.0469 26.9219,293.5156 Q26.3281,294.2031 25.3906,294.5938 Q24.125,295.125 22.6094,295.125 Q20.8281,295.125 19.4063,294.3906 Q18.25,293.7969 17.4375,292.5313 Q16.625,291.2656 16.625,289.7813 L16.625,288.4219 Q16.625,286.8594 17.3438,285.5156 Q18.0781,284.1563 19.3594,283.4219 Q20.6563,282.6875 22.1094,282.6875 Q22.9688,282.6875 23.7188,282.8906 Q24.4844,283.0938 25.1406,283.5 Z " fill="#000000"/><text fill="#000000" font-family="sans-serif" font-size="20" lengthAdjust="spacing" textLength="217" x="38" y="296.7617">CustomerRepresentative</text><line style="stroke:#181818;stroke-width:0.5;" x1="8" x2="257" y1="306.1563" y2="306.1563"/><ellipse cx="18" cy="324.2344" fill="none" rx="3" ry="3" style="stroke:#038048;stroke-width:1.0;"/><text fill="#000000" font-family="sans-serif" font-size="20" lengthAdjust="spacing" textLength="78" x="28" y="330.918">id: String</text><ellipse cx="18" cy="349.3906" fill="none" rx="3" ry="3" style="stroke:#038048;stroke-width:1.0;"/><text fill="#000000" font-family="sans-serif" font-size="20" lengthAdjust="spacing" textLength="111" x="28" y="356.0742">name: String</text><ellipse cx="18" cy="374.5469" fill="none" rx="3" ry="3" style="stroke:#038048;stroke-width:1.0;"/><text fill="#000000" font-family="sans-serif" font-size="20" lengthAdjust="spacing" textLength="130" x="28" y="381.2305">position: String</text><ellipse cx="18" cy="399.7031" fill="none" rx="3" ry="3" style="stroke:#038048;stroke-width:1.0;"/><text fill="#000000" font-family="sans-serif" font-size="20" lengthAdjust="spacing" textLength="178" x="28" y="406.3867">customer: Customer</text><line style="stroke:#181818;stroke-width:0.5;" x1="8" x2="257" y1="414.7813" y2="414.7813"/></g><!--class User--><g id="elem_User"><rect codeLine="17" fill="#F1F1F1" height="151.7813" id="User" rx="2.5" ry="2.5" style="stroke:#181818;stroke-width:0.5;" width="176" x="44.5" y="510"/><ellipse cx="107.5" cy="527.5781" fill="#ADD1B2" rx="12" ry="12" style="stroke:#181818;stroke-width:1.0;"/><path d="M109.6406,522.5 Q109.8281,522.25 110.0469,522.125 Q110.2656,521.9844 110.5156,521.9844 Q110.9531,521.9844 111.2344,522.2969 Q111.5156,522.5938 111.5156,523.3125 L111.5156,525.0156 Q111.5156,525.7344 111.2344,526.0469 Q110.9531,526.3594 110.5156,526.3594 Q110.125,526.3594 109.875,526.125 Q109.625,525.9063 109.5156,525.2969 Q109.4531,524.875 109.2344,524.6563 Q108.8438,524.2188 108.125,523.9531 Q107.4063,523.6875 106.6875,523.6875 Q105.7813,523.6875 105.0313,524.0781 Q104.2813,524.4688 103.7031,525.3594 Q103.125,526.2344 103.125,527.4375 L103.125,528.7344 Q103.125,530.1875 104.1719,531.1563 Q105.2344,532.125 107.0938,532.125 Q108.2031,532.125 108.9844,531.8125 Q109.4219,531.6406 109.9375,531.125 Q110.25,530.8125 110.4219,530.7188 Q110.5938,530.625 110.8281,530.625 Q111.2188,530.625 111.5156,530.9375 Q111.8281,531.2344 111.8281,531.6406 Q111.8281,532.0469 111.4219,532.5156 Q110.8281,533.2031 109.8906,533.5938 Q108.625,534.125 107.1094,534.125 Q105.3281,534.125 103.9063,533.3906 Q102.75,532.7969 101.9375,531.5313 Q101.125,530.2656 101.125,528.7813 L101.125,527.4219 Q101.125,525.8594 101.8438,524.5156 Q102.5781,523.1563 103.8594,522.4219 Q105.1563,521.6875 106.6094,521.6875 Q107.4688,521.6875 108.2188,521.8906 Q108.9844,522.0938 109.6406,522.5 Z " fill="#000000"/><text fill="#000000" font-family="sans-serif" font-size="20" lengthAdjust="spacing" textLength="41" x="129.5" y="535.7617">User</text><line style="stroke:#181818;stroke-width:0.5;" x1="45.5" x2="219.5" y1="545.1563" y2="545.1563"/><ellipse cx="55.5" cy="563.2344" fill="none" rx="3" ry="3" style="stroke:#038048;stroke-width:1.0;"/><text fill="#000000" font-family="sans-serif" font-size="20" lengthAdjust="spacing" textLength="118" x="65.5" y="569.918">userId: String</text><ellipse cx="55.5" cy="588.3906" fill="none" rx="3" ry="3" style="stroke:#038048;stroke-width:1.0;"/><text fill="#000000" font-family="sans-serif" font-size="20" lengthAdjust="spacing" textLength="109" x="65.5" y="595.0742">email: String</text><ellipse cx="55.5" cy="613.5469" fill="none" rx="3" ry="3" style="stroke:#038048;stroke-width:1.0;"/><text fill="#000000" font-family="sans-serif" font-size="20" lengthAdjust="spacing" textLength="149" x="65.5" y="620.2305">password: String</text><ellipse cx="55.5" cy="638.7031" fill="none" rx="3" ry="3" style="stroke:#038048;stroke-width:1.0;"/><text fill="#000000" font-family="sans-serif" font-size="20" lengthAdjust="spacing" textLength="96" x="65.5" y="645.3867">role: String</text><line style="stroke:#181818;stroke-width:0.5;" x1="45.5" x2="219.5" y1="653.7813" y2="653.7813"/></g><!--class BootstrapProcess--><g id="elem_BootstrapProcess"><rect codeLine="24" fill="#F1F1F1" height="76.3125" id="BootstrapProcess" rx="2.5" ry="2.5" style="stroke:#181818;stroke-width:0.5;" width="411" x="293" y="309"/><ellipse cx="415" cy="326.5781" fill="#ADD1B2" rx="12" ry="12" style="stroke:#181818;stroke-width:1.0;"/><path d="M417.1406,321.5 Q417.3281,321.25 417.5469,321.125 Q417.7656,320.9844 418.0156,320.9844 Q418.4531,320.9844 418.7344,321.2969 Q419.0156,321.5938 419.0156,322.3125 L419.0156,324.0156 Q419.0156,324.7344 418.7344,325.0469 Q418.4531,325.3594 418.0156,325.3594 Q417.625,325.3594 417.375,325.125 Q417.125,324.9063 417.0156,324.2969 Q416.9531,323.875 416.7344,323.6563 Q416.3438,323.2188 415.625,322.9531 Q414.9063,322.6875 414.1875,322.6875 Q413.2813,322.6875 412.5313,323.0781 Q411.7813,323.4688 411.2031,324.3594 Q410.625,325.2344 410.625,326.4375 L410.625,327.7344 Q410.625,329.1875 411.6719,330.1563 Q412.7344,331.125 414.5938,331.125 Q415.7031,331.125 416.4844,330.8125 Q416.9219,330.6406 417.4375,330.125 Q417.75,329.8125 417.9219,329.7188 Q418.0938,329.625 418.3281,329.625 Q418.7188,329.625 419.0156,329.9375 Q419.3281,330.2344 419.3281,330.6406 Q419.3281,331.0469 418.9219,331.5156 Q418.3281,332.2031 417.3906,332.5938 Q416.125,333.125 414.6094,333.125 Q412.8281,333.125 411.4063,332.3906 Q410.25,331.7969 409.4375,330.5313 Q408.625,329.2656 408.625,327.7813 L408.625,326.4219 Q408.625,324.8594 409.3438,323.5156 Q410.0781,322.1563 411.3594,321.4219 Q412.6563,320.6875 414.1094,320.6875 Q414.9688,320.6875 415.7188,320.8906 Q416.4844,321.0938 417.1406,321.5 Z " fill="#000000"/><text fill="#000000" font-family="sans-serif" font-size="20" lengthAdjust="spacing" textLength="158" x="437" y="334.7617">BootstrapProcess</text><line style="stroke:#181818;stroke-width:0.5;" x1="294" x2="703" y1="344.1563" y2="344.1563"/><line style="stroke:#181818;stroke-width:0.5;" x1="294" x2="703" y1="352.1563" y2="352.1563"/><ellipse cx="304" cy="370.2344" fill="#84BE84" rx="3" ry="3" style="stroke:#038048;stroke-width:1.0;"/><text fill="#000000" font-family="sans-serif" font-size="20" lengthAdjust="spacing" textLength="384" x="314" y="376.918">initializeCustomerWithRepresentative(): void</text></g><!--link Customer to CustomerRepresentative--><g id="link_Customer_CustomerRepresentative"><path codeLine="29" d="M312.97,181.67 C282.56,209.36 248.95,239.96 219.07,267.17 " fill="none" id="Customer-to-CustomerRepresentative" style="stroke:#181818;stroke-width:1.0;"/><polygon fill="#181818" points="215.06,270.82,224.4066,267.7149,218.7558,267.4524,219.0184,261.8016,215.06,270.82" style="stroke:#181818;stroke-width:1.0;"/><text fill="#000000" font-family="sans-serif" font-size="20" lengthAdjust="spacing" textLength="31" x="270.5" y="235.7617">has</text><text fill="#000000" font-family="sans-serif" font-size="20" lengthAdjust="spacing" textLength="11" x="210.9232" y="258.7004">1</text></g><!--link CustomerRepresentative to User--><g id="link_CustomerRepresentative_User"><path codeLine="30" d="M132.5,423.31 C132.5,449.24 132.5,478.35 132.5,504.66 " fill="none" id="CustomerRepresentative-to-User" style="stroke:#181818;stroke-width:1.0;"/><polygon fill="#181818" points="132.5,509.88,136.5,500.88,132.5,504.88,128.5,500.88,132.5,509.88" style="stroke:#181818;stroke-width:1.0;"/><text fill="#000000" font-family="sans-serif" font-size="20" lengthAdjust="spacing" textLength="98" x="133.5" y="474.7617">is a user of</text><text fill="#000000" font-family="sans-serif" font-size="20" lengthAdjust="spacing" textLength="11" x="120.993" y="497.4893">1</text></g><!--link Customer to BootstrapProcess--><g id="link_Customer_BootstrapProcess"><path codeLine="31" d="M438.81,184.11 C453.81,224.8 470.95,271.28 483,303.97 " fill="none" id="Customer-to-BootstrapProcess" style="stroke:#181818;stroke-width:1.0;"/><polygon fill="#181818" points="484.74,308.69,485.3779,298.8618,483.0095,303.999,477.8723,301.6306,484.74,308.69" style="stroke:#181818;stroke-width:1.0;"/><text fill="#000000" font-family="sans-serif" font-size="20" lengthAdjust="spacing" textLength="105" x="458.5" y="235.7617">initialized by</text><text fill="#000000" font-family="sans-serif" font-size="20" lengthAdjust="spacing" textLength="11" x="470.7908" y="296.6595">1</text></g><!--SRC=[ZL5BImCn4BxdLmozg4X1FUx1WqAXDsaHp-DcjXsQpIoPsOgA_zrKxQwR8fXJCe_l5Trnx31X6wJUaGTF3VR15X9jpMy4DrVErG5LuRvNavOIl3l8vv9z1MjB73VVxuWjJIleVIBLQR7Eo5ZRCZOoRIJQi1gbyuiAziBUVPJCA-eo7kLzuptzNqSdoiOI2o4_gDM0Fp8-wkYpp_TbmK4jSYX8yjwBf68mIHZ53F1t8gQMi7j8KkU41YinwyIGSpzAUcBRJct_ZkSCLXJmO4sttAaRlcW-luNPzUolv2hOuZXTD8-xNnbKm0e8Xmn0cbE24oTvOJ3XuVdLVG80]--></g></svg>