<?xml version="1.0" encoding="UTF-8" standalone="no"?><svg xmlns="http://www.w3.org/2000/svg" xmlns:xlink="http://www.w3.org/1999/xlink" contentStyleType="text/css" height="265px" preserveAspectRatio="none" style="width:441px;height:265px;background:#FFFFFF;" version="1.1" viewBox="0 0 441 265" width="441px" zoomAndPan="magnify"><defs/><g><!--class CustomerRepresentative--><g id="elem_CustomerRepresentative"><rect codeLine="2" fill="#F1F1F1" height="73.1094" id="CustomerRepresentative" rx="2.5" ry="2.5" style="stroke:#181818;stroke-width:0.5;" width="268" x="86" y="7"/><ellipse cx="102" cy="35.5547" fill="#ADD1B2" rx="12" ry="12" style="stroke:#181818;stroke-width:1.0;"/><path d="M104.8066,42.6348 Q104.123,42.9863 103.3711,43.1621 Q102.6191,43.3379 101.7891,43.3379 Q98.8398,43.3379 97.2871,41.3945 Q95.7344,39.4512 95.7344,35.7793 Q95.7344,32.0977 97.2871,30.1543 Q98.8398,28.2109 101.7891,28.2109 Q102.6191,28.2109 103.3809,28.3867 Q104.1426,28.5625 104.8066,28.9141 L104.8066,32.1172 Q104.0645,31.4336 103.3662,31.1162 Q102.668,30.7988 101.9258,30.7988 Q100.3438,30.7988 99.5381,32.0537 Q98.7324,33.3086 98.7324,35.7793 Q98.7324,38.2402 99.5381,39.4951 Q100.3438,40.75 101.9258,40.75 Q102.668,40.75 103.3662,40.4326 Q104.0645,40.1152 104.8066,39.4316 Z " fill="#000000"/><text fill="#000000" font-family="sans-serif" font-size="20" font-style="italic" lengthAdjust="spacing" textLength="73" x="197.5" y="31.3359">«Entity»</text><text fill="#000000" font-family="sans-serif" font-size="20" lengthAdjust="spacing" textLength="234" x="117" y="54.8906">CustomerRepresentative</text><line style="stroke:#181818;stroke-width:0.5;" x1="87" x2="353" y1="64.1094" y2="64.1094"/><line style="stroke:#181818;stroke-width:0.5;" x1="87" x2="353" y1="72.1094" y2="72.1094"/></g><!--class Email--><g id="elem_Email"><rect codeLine="5" fill="#F1F1F1" height="73.1094" id="Email" rx="2.5" ry="2.5" style="stroke:#181818;stroke-width:0.5;" width="172" x="7" y="185.11"/><ellipse cx="23" cy="213.6647" fill="#ADD1B2" rx="12" ry="12" style="stroke:#181818;stroke-width:1.0;"/><path d="M25.8066,220.7448 Q25.123,221.0963 24.3711,221.2721 Q23.6191,221.4479 22.7891,221.4479 Q19.8398,221.4479 18.2871,219.5045 Q16.7344,217.5612 16.7344,213.8893 Q16.7344,210.2077 18.2871,208.2643 Q19.8398,206.3209 22.7891,206.3209 Q23.6191,206.3209 24.3809,206.4967 Q25.1426,206.6725 25.8066,207.0241 L25.8066,210.2272 Q25.0645,209.5436 24.3662,209.2262 Q23.668,208.9088 22.9258,208.9088 Q21.3438,208.9088 20.5381,210.1637 Q19.7324,211.4186 19.7324,213.8893 Q19.7324,216.3502 20.5381,217.6051 Q21.3438,218.86 22.9258,218.86 Q23.668,218.86 24.3662,218.5426 Q25.0645,218.2252 25.8066,217.5416 Z " fill="#000000"/><text fill="#000000" font-family="sans-serif" font-size="20" font-style="italic" lengthAdjust="spacing" textLength="142" x="36" y="209.4459">«Value Object»</text><text fill="#000000" font-family="sans-serif" font-size="20" lengthAdjust="spacing" textLength="53" x="80.5" y="233.0006">Email</text><line style="stroke:#181818;stroke-width:0.5;" x1="8" x2="178" y1="242.2194" y2="242.2194"/><line style="stroke:#181818;stroke-width:0.5;" x1="8" x2="178" y1="250.2194" y2="250.2194"/></g><!--class PhoneNumber--><g id="elem_PhoneNumber"><rect codeLine="8" fill="#F1F1F1" height="73.1094" id="PhoneNumber" rx="2.5" ry="2.5" style="stroke:#181818;stroke-width:0.5;" width="172" x="262" y="185.11"/><ellipse cx="278" cy="213.6647" fill="#ADD1B2" rx="12" ry="12" style="stroke:#181818;stroke-width:1.0;"/><path d="M280.8066,220.7448 Q280.123,221.0963 279.3711,221.2721 Q278.6191,221.4479 277.7891,221.4479 Q274.8398,221.4479 273.2871,219.5045 Q271.7344,217.5612 271.7344,213.8893 Q271.7344,210.2077 273.2871,208.2643 Q274.8398,206.3209 277.7891,206.3209 Q278.6191,206.3209 279.3809,206.4967 Q280.1426,206.6725 280.8066,207.0241 L280.8066,210.2272 Q280.0645,209.5436 279.3662,209.2262 Q278.668,208.9088 277.9258,208.9088 Q276.3438,208.9088 275.5381,210.1637 Q274.7324,211.4186 274.7324,213.8893 Q274.7324,216.3502 275.5381,217.6051 Q276.3438,218.86 277.9258,218.86 Q278.668,218.86 279.3662,218.5426 Q280.0645,218.2252 280.8066,217.5416 Z " fill="#000000"/><text fill="#000000" font-family="sans-serif" font-size="20" font-style="italic" lengthAdjust="spacing" textLength="142" x="291" y="209.4459">«Value Object»</text><text fill="#000000" font-family="sans-serif" font-size="20" lengthAdjust="spacing" textLength="136" x="294" y="233.0006">PhoneNumber</text><line style="stroke:#181818;stroke-width:0.5;" x1="263" x2="433" y1="242.2194" y2="242.2194"/><line style="stroke:#181818;stroke-width:0.5;" x1="263" x2="433" y1="250.2194" y2="250.2194"/></g><!--link CustomerRepresentative to Email--><g id="link_CustomerRepresentative_Email"><path codeLine="13" d="M193.99,80.61 C173.14,109.52 143.88,150.08 122.22,180.11 " fill="none" id="CustomerRepresentative-to-Email" style="stroke:#181818;stroke-width:1.0;"/><polygon fill="#181818" points="119.42,183.98,127.9309,179.0237,122.3464,179.9259,121.4442,174.3414,119.42,183.98" style="stroke:#181818;stroke-width:1.0;"/><text fill="#000000" font-family="sans-serif" font-size="20" lengthAdjust="spacing" textLength="53" x="173" y="130.4459">email</text><text fill="#000000" font-family="sans-serif" font-size="20" lengthAdjust="spacing" textLength="13" x="109.0505" y="172.7554">1</text></g><!--link CustomerRepresentative to PhoneNumber--><g id="link_CustomerRepresentative_PhoneNumber"><path codeLine="14" d="M246.21,80.61 C267.23,109.52 296.72,150.08 318.55,180.11 " fill="none" id="CustomerRepresentative-to-PhoneNumber" style="stroke:#181818;stroke-width:1.0;"/><polygon fill="#181818" points="321.37,183.98,319.3074,174.3496,318.4274,179.9376,312.8394,179.0576,321.37,183.98" style="stroke:#181818;stroke-width:1.0;"/><text fill="#000000" font-family="sans-serif" font-size="20" lengthAdjust="spacing" textLength="138" x="285" y="130.4459">phoneNumber</text><text fill="#000000" font-family="sans-serif" font-size="20" lengthAdjust="spacing" textLength="13" x="303.3158" y="172.7554">1</text></g><!--SRC=[XOwx2i9044Nx_OeXZLL0BKD88x5KKR2VR4PSiozsPyK7_hiH51yeLfVBFN1Fx9Jr6D1e9pjgeQKD9irJPtcbJWJZeH1IOummIP6TeR0a7oYIPMIr9oZBshBYOrMTnUN1rWQLxgSrwaGmRtOa-GrOR9sbMJ8DXU_OuECch-0Wn0-7l5-pKNQ_BO1k-Gz-LIZ0Fvku0W00]--></g></svg>