<?xml version="1.0" encoding="UTF-8" standalone="no"?><svg xmlns="http://www.w3.org/2000/svg" xmlns:xlink="http://www.w3.org/1999/xlink" contentStyleType="text/css" height="253px" preserveAspectRatio="none" style="width:381px;height:253px;background:#FFFFFF;" version="1.1" viewBox="0 0 381 253" width="381px" zoomAndPan="magnify"><defs/><g><!--class CustomerRepresentative--><g id="elem_CustomerRepresentative"><rect codeLine="2" fill="#F1F1F1" height="76.3125" id="CustomerRepresentative" rx="2.5" ry="2.5" style="stroke:#181818;stroke-width:0.5;" width="251" x="64.5" y="7"/><ellipse cx="80.5" cy="37.1563" fill="#ADD1B2" rx="12" ry="12" style="stroke:#181818;stroke-width:1.0;"/><path d="M82.6406,32.0781 Q82.8281,31.8281 83.0469,31.7031 Q83.2656,31.5625 83.5156,31.5625 Q83.9531,31.5625 84.2344,31.875 Q84.5156,32.1719 84.5156,32.8906 L84.5156,34.5938 Q84.5156,35.3125 84.2344,35.625 Q83.9531,35.9375 83.5156,35.9375 Q83.125,35.9375 82.875,35.7031 Q82.625,35.4844 82.5156,34.875 Q82.4531,34.4531 82.2344,34.2344 Q81.8438,33.7969 81.125,33.5313 Q80.4063,33.2656 79.6875,33.2656 Q78.7813,33.2656 78.0313,33.6563 Q77.2813,34.0469 76.7031,34.9375 Q76.125,35.8125 76.125,37.0156 L76.125,38.3125 Q76.125,39.7656 77.1719,40.7344 Q78.2344,41.7031 80.0938,41.7031 Q81.2031,41.7031 81.9844,41.3906 Q82.4219,41.2188 82.9375,40.7031 Q83.25,40.3906 83.4219,40.2969 Q83.5938,40.2031 83.8281,40.2031 Q84.2188,40.2031 84.5156,40.5156 Q84.8281,40.8125 84.8281,41.2188 Q84.8281,41.625 84.4219,42.0938 Q83.8281,42.7813 82.8906,43.1719 Q81.625,43.7031 80.1094,43.7031 Q78.3281,43.7031 76.9063,42.9688 Q75.75,42.375 74.9375,41.1094 Q74.125,39.8438 74.125,38.3594 L74.125,37 Q74.125,35.4375 74.8438,34.0938 Q75.5781,32.7344 76.8594,32 Q78.1563,31.2656 79.6094,31.2656 Q80.4688,31.2656 81.2188,31.4688 Q81.9844,31.6719 82.6406,32.0781 Z " fill="#000000"/><text fill="#000000" font-family="sans-serif" font-size="20" font-style="italic" lengthAdjust="spacing" textLength="71" x="168.5" y="32.7617">«Entity»</text><text fill="#000000" font-family="sans-serif" font-size="20" lengthAdjust="spacing" textLength="217" x="95.5" y="57.918">CustomerRepresentative</text><line style="stroke:#181818;stroke-width:0.5;" x1="65.5" x2="314.5" y1="67.3125" y2="67.3125"/><line style="stroke:#181818;stroke-width:0.5;" x1="65.5" x2="314.5" y1="75.3125" y2="75.3125"/></g><!--class Email--><g id="elem_Email"><rect codeLine="5" fill="#F1F1F1" height="76.3125" id="Email" rx="2.5" ry="2.5" style="stroke:#181818;stroke-width:0.5;" width="166" x="7" y="170"/><ellipse cx="23" cy="200.1563" fill="#ADD1B2" rx="12" ry="12" style="stroke:#181818;stroke-width:1.0;"/><path d="M25.1406,195.0781 Q25.3281,194.8281 25.5469,194.7031 Q25.7656,194.5625 26.0156,194.5625 Q26.4531,194.5625 26.7344,194.875 Q27.0156,195.1719 27.0156,195.8906 L27.0156,197.5938 Q27.0156,198.3125 26.7344,198.625 Q26.4531,198.9375 26.0156,198.9375 Q25.625,198.9375 25.375,198.7031 Q25.125,198.4844 25.0156,197.875 Q24.9531,197.4531 24.7344,197.2344 Q24.3438,196.7969 23.625,196.5313 Q22.9063,196.2656 22.1875,196.2656 Q21.2813,196.2656 20.5313,196.6563 Q19.7813,197.0469 19.2031,197.9375 Q18.625,198.8125 18.625,200.0156 L18.625,201.3125 Q18.625,202.7656 19.6719,203.7344 Q20.7344,204.7031 22.5938,204.7031 Q23.7031,204.7031 24.4844,204.3906 Q24.9219,204.2188 25.4375,203.7031 Q25.75,203.3906 25.9219,203.2969 Q26.0938,203.2031 26.3281,203.2031 Q26.7188,203.2031 27.0156,203.5156 Q27.3281,203.8125 27.3281,204.2188 Q27.3281,204.625 26.9219,205.0938 Q26.3281,205.7813 25.3906,206.1719 Q24.125,206.7031 22.6094,206.7031 Q20.8281,206.7031 19.4063,205.9688 Q18.25,205.375 17.4375,204.1094 Q16.625,202.8438 16.625,201.3594 L16.625,200 Q16.625,198.4375 17.3438,197.0938 Q18.0781,195.7344 19.3594,195 Q20.6563,194.2656 22.1094,194.2656 Q22.9688,194.2656 23.7188,194.4688 Q24.4844,194.6719 25.1406,195.0781 Z " fill="#000000"/><text fill="#000000" font-family="sans-serif" font-size="20" font-style="italic" lengthAdjust="spacing" textLength="136" x="36" y="195.7617">«Value Object»</text><text fill="#000000" font-family="sans-serif" font-size="20" lengthAdjust="spacing" textLength="48" x="80" y="220.918">Email</text><line style="stroke:#181818;stroke-width:0.5;" x1="8" x2="172" y1="230.3125" y2="230.3125"/><line style="stroke:#181818;stroke-width:0.5;" x1="8" x2="172" y1="238.3125" y2="238.3125"/></g><!--class PhoneNumber--><g id="elem_PhoneNumber"><rect codeLine="8" fill="#F1F1F1" height="76.3125" id="PhoneNumber" rx="2.5" ry="2.5" style="stroke:#181818;stroke-width:0.5;" width="166" x="208" y="170"/><ellipse cx="224" cy="200.1563" fill="#ADD1B2" rx="12" ry="12" style="stroke:#181818;stroke-width:1.0;"/><path d="M226.1406,195.0781 Q226.3281,194.8281 226.5469,194.7031 Q226.7656,194.5625 227.0156,194.5625 Q227.4531,194.5625 227.7344,194.875 Q228.0156,195.1719 228.0156,195.8906 L228.0156,197.5938 Q228.0156,198.3125 227.7344,198.625 Q227.4531,198.9375 227.0156,198.9375 Q226.625,198.9375 226.375,198.7031 Q226.125,198.4844 226.0156,197.875 Q225.9531,197.4531 225.7344,197.2344 Q225.3438,196.7969 224.625,196.5313 Q223.9063,196.2656 223.1875,196.2656 Q222.2813,196.2656 221.5313,196.6563 Q220.7813,197.0469 220.2031,197.9375 Q219.625,198.8125 219.625,200.0156 L219.625,201.3125 Q219.625,202.7656 220.6719,203.7344 Q221.7344,204.7031 223.5938,204.7031 Q224.7031,204.7031 225.4844,204.3906 Q225.9219,204.2188 226.4375,203.7031 Q226.75,203.3906 226.9219,203.2969 Q227.0938,203.2031 227.3281,203.2031 Q227.7188,203.2031 228.0156,203.5156 Q228.3281,203.8125 228.3281,204.2188 Q228.3281,204.625 227.9219,205.0938 Q227.3281,205.7813 226.3906,206.1719 Q225.125,206.7031 223.6094,206.7031 Q221.8281,206.7031 220.4063,205.9688 Q219.25,205.375 218.4375,204.1094 Q217.625,202.8438 217.625,201.3594 L217.625,200 Q217.625,198.4375 218.3438,197.0938 Q219.0781,195.7344 220.3594,195 Q221.6563,194.2656 223.1094,194.2656 Q223.9688,194.2656 224.7188,194.4688 Q225.4844,194.6719 226.1406,195.0781 Z " fill="#000000"/><text fill="#000000" font-family="sans-serif" font-size="20" font-style="italic" lengthAdjust="spacing" textLength="136" x="237" y="195.7617">«Value Object»</text><text fill="#000000" font-family="sans-serif" font-size="20" lengthAdjust="spacing" textLength="123" x="243.5" y="220.918">PhoneNumber</text><line style="stroke:#181818;stroke-width:0.5;" x1="209" x2="373" y1="230.3125" y2="230.3125"/><line style="stroke:#181818;stroke-width:0.5;" x1="209" x2="373" y1="238.3125" y2="238.3125"/></g><!--link CustomerRepresentative to Email--><g id="link_CustomerRepresentative_Email"><path codeLine="13" d="M166.81,83.34 C151.53,107.93 131.53,140.14 115.76,165.53 " fill="none" id="CustomerRepresentative-to-Email" style="stroke:#181818;stroke-width:1.0;"/><polygon fill="#181818" points="113.07,169.86,121.2236,164.3357,115.7136,165.616,114.4332,160.1059,113.07,169.86" style="stroke:#181818;stroke-width:1.0;"/><text fill="#000000" font-family="sans-serif" font-size="20" lengthAdjust="spacing" textLength="46" x="147" y="134.7617">email</text><text fill="#000000" font-family="sans-serif" font-size="20" lengthAdjust="spacing" textLength="11" x="104.8702" y="157.5385">1</text></g><!--link CustomerRepresentative to PhoneNumber--><g id="link_CustomerRepresentative_PhoneNumber"><path codeLine="14" d="M213.43,83.34 C228.85,107.93 249.06,140.14 264.98,165.53 " fill="none" id="CustomerRepresentative-to-PhoneNumber" style="stroke:#181818;stroke-width:1.0;"/><polygon fill="#181818" points="267.7,169.86,266.3132,160.1093,265.0462,165.6224,259.533,164.3554,267.7,169.86" style="stroke:#181818;stroke-width:1.0;"/><text fill="#000000" font-family="sans-serif" font-size="20" lengthAdjust="spacing" textLength="121" x="247" y="134.7617">phoneNumber</text><text fill="#000000" font-family="sans-serif" font-size="20" lengthAdjust="spacing" textLength="11" x="252.11" y="157.5385">1</text></g><!--SRC=[XOwx2i9044Nx_OeXZLL0BKD88x5KKR2VR4PSiozsPyK7_hiH51yeLfVBFN1Fx9Jr6D1e9pjgeQKD9irJPtcbJWJZeH1IOummIP6TeR0a7oYIPMIr9oZBshBYOrMTnUN1rWQLxgSrwaGmRtOa-GrOR9sbMJ8DXU_OuECch-0Wn0-7l5-pKNQ_BO1k-Gz-LIZ0Fvku0W00]--></g></svg>