<?xml version="1.0" encoding="UTF-8" standalone="no"?><svg xmlns="http://www.w3.org/2000/svg" xmlns:xlink="http://www.w3.org/1999/xlink" contentStyleType="text/css" height="604px" preserveAspectRatio="none" style="width:5001px;height:604px;background:#FFFFFF;" version="1.1" viewBox="0 0 5001 604" width="5001px" zoomAndPan="magnify"><defs/><g><!--cluster Domain--><g id="cluster_Domain"><path d="M3057.5,208.7188 L3138.5,208.7188 A3.75,3.75 0 0 1 3141,211.2188 L3148,238.2734 L4991.5,238.2734 A2.5,2.5 0 0 1 4994,240.7734 L4994,458.2188 A2.5,2.5 0 0 1 4991.5,460.7188 L3057.5,460.7188 A2.5,2.5 0 0 1 3055,458.2188 L3055,211.2188 A2.5,2.5 0 0 1 3057.5,208.7188 " fill="#DDDDDD" style="stroke:#000000;stroke-width:1.5;"/><line style="stroke:#000000;stroke-width:1.5;" x1="3055" x2="3148" y1="238.2734" y2="238.2734"/><text fill="#000000" font-family="sans-serif" font-size="20" font-weight="bold" lengthAdjust="spacing" textLength="80" x="3059" y="230.0547">Domain</text></g><!--cluster Repository --><g id="cluster_Repository "><path d="M3081.5,258.7188 L3201.5,258.7188 A3.75,3.75 0 0 1 3204,261.2188 L3211,288.2734 L4396.5,288.2734 A2.5,2.5 0 0 1 4399,290.7734 L4399,434.2188 A2.5,2.5 0 0 1 4396.5,436.7188 L3081.5,436.7188 A2.5,2.5 0 0 1 3079,434.2188 L3079,261.2188 A2.5,2.5 0 0 1 3081.5,258.7188 " fill="#DDDDDD" style="stroke:#000000;stroke-width:1.5;"/><line style="stroke:#000000;stroke-width:1.5;" x1="3079" x2="3211" y1="288.2734" y2="288.2734"/><text fill="#000000" font-family="sans-serif" font-size="20" font-weight="bold" lengthAdjust="spacing" textLength="112" x="3083" y="280.0547">Repository</text></g><!--cluster UI--><g id="cluster_UI"><path d="M8.5,248.7188 L31.5,248.7188 A3.75,3.75 0 0 1 34,251.2188 L41,278.2734 L297.5,278.2734 A2.5,2.5 0 0 1 300,280.7734 L300,378.2188 A2.5,2.5 0 0 1 297.5,380.7188 L8.5,380.7188 A2.5,2.5 0 0 1 6,378.2188 L6,251.2188 A2.5,2.5 0 0 1 8.5,248.7188 " fill="#DDDDDD" style="stroke:#000000;stroke-width:1.5;"/><line style="stroke:#000000;stroke-width:1.5;" x1="6" x2="41" y1="278.2734" y2="278.2734"/><text fill="#000000" font-family="sans-serif" font-size="20" font-weight="bold" lengthAdjust="spacing" textLength="22" x="10" y="270.0547">UI</text></g><!--cluster Controller--><g id="cluster_Controller"><path d="M335.5,213.7188 L441.5,213.7188 A3.75,3.75 0 0 1 444,216.2188 L451,243.2734 L978.5,243.2734 A2.5,2.5 0 0 1 981,245.7734 L981,413.2188 A2.5,2.5 0 0 1 978.5,415.7188 L335.5,415.7188 A2.5,2.5 0 0 1 333,413.2188 L333,216.2188 A2.5,2.5 0 0 1 335.5,213.7188 " fill="#DDDDDD" style="stroke:#000000;stroke-width:1.5;"/><line style="stroke:#000000;stroke-width:1.5;" x1="333" x2="451" y1="243.2734" y2="243.2734"/><text fill="#000000" font-family="sans-serif" font-size="20" font-weight="bold" lengthAdjust="spacing" textLength="105" x="337" y="235.0547">Controller</text></g><!--cluster persistence.impl.jpa--><g id="cluster_persistence.impl.jpa"><path d="M1755.5,377.7188 L1963.5,377.7188 A3.75,3.75 0 0 1 1966,380.2188 L1973,407.2734 L2867.5,407.2734 A2.5,2.5 0 0 1 2870,409.7734 L2870,553.2188 A2.5,2.5 0 0 1 2867.5,555.7188 L1755.5,555.7188 A2.5,2.5 0 0 1 1753,553.2188 L1753,380.2188 A2.5,2.5 0 0 1 1755.5,377.7188 " fill="#DDDDDD" style="stroke:#000000;stroke-width:1.5;"/><line style="stroke:#000000;stroke-width:1.5;" x1="1753" x2="1973" y1="407.2734" y2="407.2734"/><text fill="#000000" font-family="sans-serif" font-size="20" font-weight="bold" lengthAdjust="spacing" textLength="207" x="1757" y="399.0547">persistence.impl.jpa</text></g><!--cluster persistence.impl.inmemory--><g id="cluster_persistence.impl.inmemory"><path d="M2383.5,6.7188 L2663.5,6.7188 A3.75,3.75 0 0 1 2666,9.2188 L2673,36.2734 L3565.5,36.2734 A2.5,2.5 0 0 1 3568,38.7734 L3568,182.2188 A2.5,2.5 0 0 1 3565.5,184.7188 L2383.5,184.7188 A2.5,2.5 0 0 1 2381,182.2188 L2381,9.2188 A2.5,2.5 0 0 1 2383.5,6.7188 " fill="#DDDDDD" style="stroke:#000000;stroke-width:1.5;"/><line style="stroke:#000000;stroke-width:1.5;" x1="2381" x2="2673" y1="36.2734" y2="36.2734"/><text fill="#000000" font-family="sans-serif" font-size="20" font-weight="bold" lengthAdjust="spacing" textLength="279" x="2385" y="28.0547">persistence.impl.inmemory</text></g><!--cluster persistence--><g id="cluster_persistence"><path d="M1145.5,150.7188 L1265.5,150.7188 A3.75,3.75 0 0 1 1268,153.2188 L1275,180.2734 L1501.5,180.2734 A2.5,2.5 0 0 1 1504,182.7734 L1504,280.2188 A2.5,2.5 0 0 1 1501.5,282.7188 L1145.5,282.7188 A2.5,2.5 0 0 1 1143,280.2188 L1143,153.2188 A2.5,2.5 0 0 1 1145.5,150.7188 " fill="#DDDDDD" style="stroke:#000000;stroke-width:1.5;"/><line style="stroke:#000000;stroke-width:1.5;" x1="1143" x2="1275" y1="180.2734" y2="180.2734"/><text fill="#000000" font-family="sans-serif" font-size="20" font-weight="bold" lengthAdjust="spacing" textLength="119" x="1147" y="172.0547">persistence</text></g><!--class ShowProposal--><g id="elem_ShowProposal"><rect codeLine="19" fill="#F1F1F1" height="96.6641" id="ShowProposal" rx="2.5" ry="2.5" style="stroke:#181818;stroke-width:0.5;" width="167" x="4542" y="318.3888"/><ellipse cx="4558" cy="358.7208" fill="#ADD1B2" rx="12" ry="12" style="stroke:#181818;stroke-width:1.0;"/><path d="M4560.8066,365.8009 Q4560.123,366.1524 4559.3711,366.3282 Q4558.6191,366.504 4557.7891,366.504 Q4554.8398,366.504 4553.2871,364.5606 Q4551.7344,362.6173 4551.7344,358.9454 Q4551.7344,355.2638 4553.2871,353.3204 Q4554.8398,351.377 4557.7891,351.377 Q4558.6191,351.377 4559.3809,351.5528 Q4560.1426,351.7286 4560.8066,352.0802 L4560.8066,355.2833 Q4560.0645,354.5997 4559.3662,354.2823 Q4558.668,353.9649 4557.9258,353.9649 Q4556.3438,353.9649 4555.5381,355.2198 Q4554.7324,356.4747 4554.7324,358.9454 Q4554.7324,361.4063 4555.5381,362.6612 Q4556.3438,363.9161 4557.9258,363.9161 Q4558.668,363.9161 4559.3662,363.5987 Q4560.0645,363.2813 4560.8066,362.5977 Z " fill="#000000"/><text fill="#000000" font-family="sans-serif" font-size="20" font-style="italic" lengthAdjust="spacing" textLength="73" x="4603" y="342.7247">«Entity»</text><text fill="#000000" font-family="sans-serif" font-size="20" font-style="italic" lengthAdjust="spacing" textLength="59" x="4610" y="366.2794">«root»</text><text fill="#000000" font-family="sans-serif" font-size="20" lengthAdjust="spacing" textLength="133" x="4573" y="389.8341">ShowProposal</text><line style="stroke:#181818;stroke-width:0.5;" x1="4543" x2="4708" y1="399.0528" y2="399.0528"/><line style="stroke:#181818;stroke-width:0.5;" x1="4543" x2="4708" y1="407.0528" y2="407.0528"/></g><!--class Figure--><g id="elem_Figure"><rect codeLine="22" fill="#F1F1F1" height="96.6641" id="Figure" rx="2.5" ry="2.5" style="stroke:#181818;stroke-width:0.5;" width="103" x="4851" y="318.7188"/><ellipse cx="4867" cy="359.0508" fill="#ADD1B2" rx="12" ry="12" style="stroke:#181818;stroke-width:1.0;"/><path d="M4869.8066,366.1309 Q4869.123,366.4824 4868.3711,366.6582 Q4867.6191,366.834 4866.7891,366.834 Q4863.8398,366.834 4862.2871,364.8906 Q4860.7344,362.9473 4860.7344,359.2754 Q4860.7344,355.5938 4862.2871,353.6504 Q4863.8398,351.707 4866.7891,351.707 Q4867.6191,351.707 4868.3809,351.8828 Q4869.1426,352.0586 4869.8066,352.4102 L4869.8066,355.6133 Q4869.0645,354.9297 4868.3662,354.6123 Q4867.668,354.2949 4866.9258,354.2949 Q4865.3438,354.2949 4864.5381,355.5498 Q4863.7324,356.8047 4863.7324,359.2754 Q4863.7324,361.7363 4864.5381,362.9912 Q4865.3438,364.2461 4866.9258,364.2461 Q4867.668,364.2461 4868.3662,363.9287 Q4869.0645,363.6113 4869.8066,362.9277 Z " fill="#000000"/><text fill="#000000" font-family="sans-serif" font-size="20" font-style="italic" lengthAdjust="spacing" textLength="73" x="4880" y="343.0547">«Entity»</text><text fill="#000000" font-family="sans-serif" font-size="20" font-style="italic" lengthAdjust="spacing" textLength="59" x="4887" y="366.6094">«root»</text><text fill="#000000" font-family="sans-serif" font-size="20" lengthAdjust="spacing" textLength="60" x="4886.5" y="390.1641">Figure</text><line style="stroke:#181818;stroke-width:0.5;" x1="4852" x2="4953" y1="399.3828" y2="399.3828"/><line style="stroke:#181818;stroke-width:0.5;" x1="4852" x2="4953" y1="407.3828" y2="407.3828"/></g><!--class ShowProposalRepository--><g id="elem_ShowProposalRepository"><rect codeLine="7" fill="#F1F1F1" height="96.6641" id="ShowProposalRepository" rx="2.5" ry="2.5" style="stroke:#181818;stroke-width:0.5;" width="525" x="3858" y="318.3888"/><ellipse cx="3998.5" cy="346.9434" fill="#B4A7E5" rx="12" ry="12" style="stroke:#181818;stroke-width:1.0;"/><path d="M3994.1797,342.4024 L3994.1797,339.8634 L4002.8613,339.8634 L4002.8613,342.4024 L3999.9609,342.4024 L3999.9609,351.9044 L4002.8613,351.9044 L4002.8613,354.4434 L3994.1797,354.4434 L3994.1797,351.9044 L3997.0801,351.9044 L3997.0801,342.4024 Z " fill="#000000"/><text fill="#000000" font-family="sans-serif" font-size="20" font-style="italic" lengthAdjust="spacing" textLength="122" x="4077" y="342.7247">«Repository»</text><text fill="#000000" font-family="sans-serif" font-size="20" font-style="italic" lengthAdjust="spacing" textLength="235" x="4020.5" y="366.2794">ShowProposalRepository</text><line style="stroke:#181818;stroke-width:0.5;" x1="3859" x2="4382" y1="375.4981" y2="375.4981"/><line style="stroke:#181818;stroke-width:0.5;" x1="3859" x2="4382" y1="383.4981" y2="383.4981"/><ellipse cx="3869" cy="400.7755" fill="#84BE84" rx="3" ry="3" style="stroke:#038048;stroke-width:1.0;"/><text fill="#000000" font-family="sans-serif" font-size="20" lengthAdjust="spacing" textLength="498" x="3879" y="406.8341">findAllTestingProposals() : Iterable&lt;ShowProposal&gt;</text></g><!--class RepositoryFactory--><g id="elem_RepositoryFactory"><rect codeLine="12" fill="#F1F1F1" height="120.2188" id="RepositoryFactory" rx="2.5" ry="2.5" style="stroke:#181818;stroke-width:0.5;" width="389" x="3095" y="300.6088"/><ellipse cx="3199.5" cy="329.1634" fill="#B4A7E5" rx="12" ry="12" style="stroke:#181818;stroke-width:1.0;"/><path d="M3195.1797,324.6224 L3195.1797,322.0834 L3203.8613,322.0834 L3203.8613,324.6224 L3200.9609,324.6224 L3200.9609,334.1244 L3203.8613,334.1244 L3203.8613,336.6634 L3195.1797,336.6634 L3195.1797,334.1244 L3198.0801,334.1244 L3198.0801,324.6224 Z " fill="#000000"/><text fill="#000000" font-family="sans-serif" font-size="20" font-style="italic" lengthAdjust="spacing" textLength="89" x="3262.5" y="324.9447">«Factory»</text><text fill="#000000" font-family="sans-serif" font-size="20" font-style="italic" lengthAdjust="spacing" textLength="171" x="3221.5" y="348.4994">RepositoryFactory</text><line style="stroke:#181818;stroke-width:0.5;" x1="3096" x2="3483" y1="357.7181" y2="357.7181"/><line style="stroke:#181818;stroke-width:0.5;" x1="3096" x2="3483" y1="365.7181" y2="365.7181"/><rect fill="#F24D5C" height="6" style="stroke:#C82930;stroke-width:1.0;" width="6" x="3103" y="379.9955"/><text fill="#000000" font-family="sans-serif" font-size="20" lengthAdjust="spacing" textLength="185" x="3116" y="389.0541">RepositoryFactory()</text><ellipse cx="3106" cy="406.5502" fill="#84BE84" rx="3" ry="3" style="stroke:#038048;stroke-width:1.0;"/><text fill="#000000" font-family="sans-serif" font-size="20" lengthAdjust="spacing" textLength="362" x="3116" y="412.6088">proposals() : ShowProposalRepository</text></g><!--class AddFigureToProposalUI--><g id="elem_AddFigureToProposalUI"><rect codeLine="27" fill="#F1F1F1" height="73.1094" id="AddFigureToProposalUI" rx="2.5" ry="2.5" style="stroke:#181818;stroke-width:0.5;" width="262" x="22" y="291.1688"/><ellipse cx="38" cy="319.7234" fill="#ADD1B2" rx="12" ry="12" style="stroke:#181818;stroke-width:1.0;"/><path d="M40.8066,326.8035 Q40.123,327.1551 39.3711,327.3309 Q38.6191,327.5066 37.7891,327.5066 Q34.8398,327.5066 33.2871,325.5633 Q31.7344,323.6199 31.7344,319.948 Q31.7344,316.2664 33.2871,314.323 Q34.8398,312.3797 37.7891,312.3797 Q38.6191,312.3797 39.3809,312.5555 Q40.1426,312.7313 40.8066,313.0828 L40.8066,316.2859 Q40.0645,315.6023 39.3662,315.285 Q38.668,314.9676 37.9258,314.9676 Q36.3438,314.9676 35.5381,316.2225 Q34.7324,317.4773 34.7324,319.948 Q34.7324,322.409 35.5381,323.6639 Q36.3438,324.9188 37.9258,324.9188 Q38.668,324.9188 39.3662,324.6014 Q40.0645,324.284 40.8066,323.6004 Z " fill="#000000"/><text fill="#000000" font-family="sans-serif" font-size="20" font-style="italic" lengthAdjust="spacing" textLength="40" x="147" y="315.5047">«UI»</text><text fill="#000000" font-family="sans-serif" font-size="20" lengthAdjust="spacing" textLength="228" x="53" y="339.0594">AddFigureToProposalUI</text><line style="stroke:#181818;stroke-width:0.5;" x1="23" x2="283" y1="348.2781" y2="348.2781"/><line style="stroke:#181818;stroke-width:0.5;" x1="23" x2="283" y1="356.2781" y2="356.2781"/></g><!--class AddFigureToProposalController--><g id="elem_AddFigureToProposalController"><rect codeLine="33" fill="#F1F1F1" height="143.7734" id="AddFigureToProposalController" rx="2.5" ry="2.5" style="stroke:#181818;stroke-width:0.5;" width="616" x="349" y="255.8288"/><ellipse cx="500.5" cy="284.3834" fill="#ADD1B2" rx="12" ry="12" style="stroke:#181818;stroke-width:1.0;"/><path d="M503.3066,291.4635 Q502.623,291.8151 501.8711,291.9909 Q501.1191,292.1666 500.2891,292.1666 Q497.3398,292.1666 495.7871,290.2233 Q494.2344,288.2799 494.2344,284.608 Q494.2344,280.9264 495.7871,278.983 Q497.3398,277.0397 500.2891,277.0397 Q501.1191,277.0397 501.8809,277.2155 Q502.6426,277.3913 503.3066,277.7428 L503.3066,280.9459 Q502.5645,280.2623 501.8662,279.945 Q501.168,279.6276 500.4258,279.6276 Q498.8438,279.6276 498.0381,280.8825 Q497.2324,282.1373 497.2324,284.608 Q497.2324,287.069 498.0381,288.3239 Q498.8438,289.5788 500.4258,289.5788 Q501.168,289.5788 501.8662,289.2614 Q502.5645,288.944 503.3066,288.2604 Z " fill="#000000"/><text fill="#000000" font-family="sans-serif" font-size="20" font-style="italic" lengthAdjust="spacing" textLength="116" x="616.5" y="280.1647">«Controller»</text><text fill="#000000" font-family="sans-serif" font-size="20" lengthAdjust="spacing" textLength="304" x="522.5" y="303.7194">AddFigureToProposalController</text><line style="stroke:#181818;stroke-width:0.5;" x1="350" x2="964" y1="312.9381" y2="312.9381"/><line style="stroke:#181818;stroke-width:0.5;" x1="350" x2="964" y1="320.9381" y2="320.9381"/><ellipse cx="360" cy="338.2155" fill="#84BE84" rx="3" ry="3" style="stroke:#038048;stroke-width:1.0;"/><text fill="#000000" font-family="sans-serif" font-size="20" lengthAdjust="spacing" textLength="498" x="370" y="344.2741">findAllTestingProposals() : Iterable&lt;ShowProposal&gt;</text><ellipse cx="360" cy="361.7702" fill="#84BE84" rx="3" ry="3" style="stroke:#038048;stroke-width:1.0;"/><text fill="#000000" font-family="sans-serif" font-size="20" lengthAdjust="spacing" textLength="171" x="370" y="367.8288">listActiveFigures()</text><ellipse cx="360" cy="385.3248" fill="#84BE84" rx="3" ry="3" style="stroke:#038048;stroke-width:1.0;"/><text fill="#000000" font-family="sans-serif" font-size="20" lengthAdjust="spacing" textLength="589" x="370" y="391.3834">addFigureToProposal(figure: Figure, proposal: ShowProposal)</text></g><!--class JpaShowProposalRepository--><g id="elem_JpaShowProposalRepository"><rect codeLine="41" fill="#F1F1F1" height="96.6641" id="JpaShowProposalRepository" rx="2.5" ry="2.5" style="stroke:#181818;stroke-width:0.5;" width="525" x="2329" y="443.3887"/><ellipse cx="2454.5" cy="471.9434" fill="#ADD1B2" rx="12" ry="12" style="stroke:#181818;stroke-width:1.0;"/><path d="M2457.3066,479.0235 Q2456.623,479.3751 2455.8711,479.5509 Q2455.1191,479.7266 2454.2891,479.7266 Q2451.3398,479.7266 2449.7871,477.7833 Q2448.2344,475.8399 2448.2344,472.168 Q2448.2344,468.4864 2449.7871,466.543 Q2451.3398,464.5997 2454.2891,464.5997 Q2455.1191,464.5997 2455.8809,464.7755 Q2456.6426,464.9512 2457.3066,465.3028 L2457.3066,468.5059 Q2456.5645,467.8223 2455.8662,467.505 Q2455.168,467.1876 2454.4258,467.1876 Q2452.8438,467.1876 2452.0381,468.4425 Q2451.2324,469.6973 2451.2324,472.168 Q2451.2324,474.629 2452.0381,475.8839 Q2452.8438,477.1387 2454.4258,477.1387 Q2455.168,477.1387 2455.8662,476.8214 Q2456.5645,476.504 2457.3066,475.8204 Z " fill="#000000"/><text fill="#000000" font-family="sans-serif" font-size="20" font-style="italic" lengthAdjust="spacing" textLength="122" x="2548" y="467.7247">«Repository»</text><text fill="#000000" font-family="sans-serif" font-size="20" lengthAdjust="spacing" textLength="265" x="2476.5" y="491.2794">JpaShowProposalRepository</text><line style="stroke:#181818;stroke-width:0.5;" x1="2330" x2="2853" y1="500.4981" y2="500.4981"/><line style="stroke:#181818;stroke-width:0.5;" x1="2330" x2="2853" y1="508.4981" y2="508.4981"/><ellipse cx="2340" cy="525.7755" fill="#84BE84" rx="3" ry="3" style="stroke:#038048;stroke-width:1.0;"/><text fill="#000000" font-family="sans-serif" font-size="20" lengthAdjust="spacing" textLength="498" x="2350" y="531.8341">findAllTestingProposals() : Iterable&lt;ShowProposal&gt;</text></g><!--class JpaRepositoryFactory--><g id="elem_JpaRepositoryFactory"><rect codeLine="45" fill="#F1F1F1" height="120.2188" id="JpaRepositoryFactory" rx="2.5" ry="2.5" style="stroke:#181818;stroke-width:0.5;" width="389" x="1769" y="419.6088"/><ellipse cx="1858.5" cy="448.1634" fill="#ADD1B2" rx="12" ry="12" style="stroke:#181818;stroke-width:1.0;"/><path d="M1861.3066,455.2435 Q1860.623,455.5951 1859.8711,455.7709 Q1859.1191,455.9466 1858.2891,455.9466 Q1855.3398,455.9466 1853.7871,454.0033 Q1852.2344,452.0599 1852.2344,448.388 Q1852.2344,444.7064 1853.7871,442.763 Q1855.3398,440.8197 1858.2891,440.8197 Q1859.1191,440.8197 1859.8809,440.9955 Q1860.6426,441.1713 1861.3066,441.5228 L1861.3066,444.7259 Q1860.5645,444.0423 1859.8662,443.725 Q1859.168,443.4076 1858.4258,443.4076 Q1856.8438,443.4076 1856.0381,444.6625 Q1855.2324,445.9173 1855.2324,448.388 Q1855.2324,450.849 1856.0381,452.1039 Q1856.8438,453.3588 1858.4258,453.3588 Q1859.168,453.3588 1859.8662,453.0414 Q1860.5645,452.724 1861.3066,452.0404 Z " fill="#000000"/><text fill="#000000" font-family="sans-serif" font-size="20" font-style="italic" lengthAdjust="spacing" textLength="89" x="1936.5" y="443.9447">«Factory»</text><text fill="#000000" font-family="sans-serif" font-size="20" lengthAdjust="spacing" textLength="201" x="1880.5" y="467.4994">JpaRepositoryFactory</text><line style="stroke:#181818;stroke-width:0.5;" x1="1770" x2="2157" y1="476.7181" y2="476.7181"/><line style="stroke:#181818;stroke-width:0.5;" x1="1770" x2="2157" y1="484.7181" y2="484.7181"/><rect fill="#F24D5C" height="6" style="stroke:#C82930;stroke-width:1.0;" width="6" x="1777" y="498.9955"/><text fill="#000000" font-family="sans-serif" font-size="20" lengthAdjust="spacing" textLength="215" x="1790" y="508.0541">JpaRepositoryFactory()</text><ellipse cx="1780" cy="525.5502" fill="#84BE84" rx="3" ry="3" style="stroke:#038048;stroke-width:1.0;"/><text fill="#000000" font-family="sans-serif" font-size="20" lengthAdjust="spacing" textLength="362" x="1790" y="531.6088">proposals() : ShowProposalRepository</text></g><!--class InMemoryShowProposalRepository--><g id="elem_InMemoryShowProposalRepository"><rect codeLine="53" fill="#F1F1F1" height="96.6641" id="InMemoryShowProposalRepository" rx="2.5" ry="2.5" style="stroke:#181818;stroke-width:0.5;" width="525" x="3027" y="66.3887"/><ellipse cx="3120" cy="94.9434" fill="#ADD1B2" rx="12" ry="12" style="stroke:#181818;stroke-width:1.0;"/><path d="M3122.8066,102.0235 Q3122.123,102.3751 3121.3711,102.5509 Q3120.6191,102.7266 3119.7891,102.7266 Q3116.8398,102.7266 3115.2871,100.7833 Q3113.7344,98.8399 3113.7344,95.168 Q3113.7344,91.4864 3115.2871,89.543 Q3116.8398,87.5997 3119.7891,87.5997 Q3120.6191,87.5997 3121.3809,87.7755 Q3122.1426,87.9512 3122.8066,88.3028 L3122.8066,91.5059 Q3122.0645,90.8223 3121.3662,90.505 Q3120.668,90.1876 3119.9258,90.1876 Q3118.3438,90.1876 3117.5381,91.4425 Q3116.7324,92.6973 3116.7324,95.168 Q3116.7324,97.629 3117.5381,98.8839 Q3118.3438,100.1387 3119.9258,100.1387 Q3120.668,100.1387 3121.3662,99.8214 Q3122.0645,99.504 3122.8066,98.8204 Z " fill="#000000"/><text fill="#000000" font-family="sans-serif" font-size="20" font-style="italic" lengthAdjust="spacing" textLength="122" x="3246" y="90.7247">«Repository»</text><text fill="#000000" font-family="sans-serif" font-size="20" lengthAdjust="spacing" textLength="330" x="3142" y="114.2794">InMemoryShowProposalRepository</text><line style="stroke:#181818;stroke-width:0.5;" x1="3028" x2="3551" y1="123.4981" y2="123.4981"/><line style="stroke:#181818;stroke-width:0.5;" x1="3028" x2="3551" y1="131.4981" y2="131.4981"/><ellipse cx="3038" cy="148.7755" fill="#84BE84" rx="3" ry="3" style="stroke:#038048;stroke-width:1.0;"/><text fill="#000000" font-family="sans-serif" font-size="20" lengthAdjust="spacing" textLength="498" x="3048" y="154.8341">findAllTestingProposals() : Iterable&lt;ShowProposal&gt;</text></g><!--class InMemoryRepositoryFactory--><g id="elem_InMemoryRepositoryFactory"><rect codeLine="57" fill="#F1F1F1" height="120.2188" id="InMemoryRepositoryFactory" rx="2.5" ry="2.5" style="stroke:#181818;stroke-width:0.5;" width="389" x="2397" y="48.6087"/><ellipse cx="2454" cy="77.1634" fill="#ADD1B2" rx="12" ry="12" style="stroke:#181818;stroke-width:1.0;"/><path d="M2456.8066,84.2435 Q2456.123,84.5951 2455.3711,84.7709 Q2454.6191,84.9466 2453.7891,84.9466 Q2450.8398,84.9466 2449.2871,83.0033 Q2447.7344,81.0599 2447.7344,77.388 Q2447.7344,73.7064 2449.2871,71.763 Q2450.8398,69.8197 2453.7891,69.8197 Q2454.6191,69.8197 2455.3809,69.9955 Q2456.1426,70.1712 2456.8066,70.5228 L2456.8066,73.7259 Q2456.0645,73.0423 2455.3662,72.725 Q2454.668,72.4076 2453.9258,72.4076 Q2452.3438,72.4076 2451.5381,73.6625 Q2450.7324,74.9173 2450.7324,77.388 Q2450.7324,79.849 2451.5381,81.1039 Q2452.3438,82.3587 2453.9258,82.3587 Q2454.668,82.3587 2455.3662,82.0414 Q2456.0645,81.724 2456.8066,81.0404 Z " fill="#000000"/><text fill="#000000" font-family="sans-serif" font-size="20" font-style="italic" lengthAdjust="spacing" textLength="89" x="2564.5" y="72.9447">«Factory»</text><text fill="#000000" font-family="sans-serif" font-size="20" lengthAdjust="spacing" textLength="266" x="2476" y="96.4994">InMemoryRepositoryFactory</text><line style="stroke:#181818;stroke-width:0.5;" x1="2398" x2="2785" y1="105.7181" y2="105.7181"/><line style="stroke:#181818;stroke-width:0.5;" x1="2398" x2="2785" y1="113.7181" y2="113.7181"/><rect fill="#F24D5C" height="6" style="stroke:#C82930;stroke-width:1.0;" width="6" x="2405" y="127.9955"/><text fill="#000000" font-family="sans-serif" font-size="20" lengthAdjust="spacing" textLength="280" x="2418" y="137.0541">InMemoryRepositoryFactory()</text><ellipse cx="2408" cy="154.5502" fill="#84BE84" rx="3" ry="3" style="stroke:#038048;stroke-width:1.0;"/><text fill="#000000" font-family="sans-serif" font-size="20" lengthAdjust="spacing" textLength="362" x="2418" y="160.6088">proposals() : ShowProposalRepository</text></g><!--class PersistenceContext--><g id="elem_PersistenceContext"><rect codeLine="64" fill="#F1F1F1" height="73.5547" id="PersistenceContext" rx="2.5" ry="2.5" style="stroke:#181818;stroke-width:0.5;" width="329" x="1159" y="192.9388"/><ellipse cx="1228" cy="209.9388" fill="#ADD1B2" rx="12" ry="12" style="stroke:#181818;stroke-width:1.0;"/><path d="M1230.8066,217.0188 Q1230.123,217.3704 1229.3711,217.5462 Q1228.6191,217.722 1227.7891,217.722 Q1224.8398,217.722 1223.2871,215.7786 Q1221.7344,213.8352 1221.7344,210.1634 Q1221.7344,206.4817 1223.2871,204.5384 Q1224.8398,202.595 1227.7891,202.595 Q1228.6191,202.595 1229.3809,202.7708 Q1230.1426,202.9466 1230.8066,203.2981 L1230.8066,206.5013 Q1230.0645,205.8177 1229.3662,205.5003 Q1228.668,205.1829 1227.9258,205.1829 Q1226.3438,205.1829 1225.5381,206.4378 Q1224.7324,207.6927 1224.7324,210.1634 Q1224.7324,212.6243 1225.5381,213.8792 Q1226.3438,215.1341 1227.9258,215.1341 Q1228.668,215.1341 1229.3662,214.8167 Q1230.0645,214.4993 1230.8066,213.8157 Z " fill="#000000"/><text fill="#000000" font-family="sans-serif" font-size="20" lengthAdjust="spacing" textLength="182" x="1250" y="217.4973">PersistenceContext</text><line style="stroke:#181818;stroke-width:0.5;" x1="1160" x2="1487" y1="226.9388" y2="226.9388"/><line style="stroke:#181818;stroke-width:0.5;" x1="1160" x2="1487" y1="234.9388" y2="234.9388"/><text fill="#000000" font-family="sans-serif" font-size="20" lengthAdjust="spacing" textLength="317" x="1165" y="258.2747">repositories() : RepositoryFactory</text></g><!--link ShowProposal to Figure--><g id="link_ShowProposal_Figure"><path codeLine="71" d="M4709.38,366.7188 C4753.22,366.7188 4805.89,366.7188 4844.99,366.7188 " fill="none" id="ShowProposal-to-Figure" style="stroke:#181818;stroke-width:1.0;"/><polygon fill="#181818" points="4849.63,366.7188,4840.63,362.7188,4844.63,366.7188,4840.63,370.7188,4849.63,366.7188" style="stroke:#181818;stroke-width:1.0;"/><text fill="#000000" font-family="sans-serif" font-size="20" lengthAdjust="spacing" textLength="56" x="4740" y="362.0547">figure</text><text fill="#000000" font-family="sans-serif" font-size="20" lengthAdjust="spacing" textLength="35" x="4808.1892" y="387.3781">0..*</text></g><!--link RepositoryFactory to ShowProposalRepository--><g id="link_RepositoryFactory_ShowProposalRepository"><path codeLine="73" d="M3484.34,362.1188 C3593.64,362.9088 3731.83,363.9088 3851.38,364.7788 " fill="none" id="RepositoryFactory-to-ShowProposalRepository" style="stroke:#181818;stroke-width:1.0;stroke-dasharray:7.0,7.0;"/><polygon fill="#181818" points="3856.26,364.8088,3847.283,360.7574,3851.2601,364.7802,3847.2373,368.7573,3856.26,364.8088" style="stroke:#181818;stroke-width:1.0;"/><text fill="#000000" font-family="sans-serif" font-size="20" lengthAdjust="spacing" textLength="109" x="3651.5" y="359.0547">proposals()</text></g><!--link ShowProposalRepository to ShowProposal--><g id="link_ShowProposalRepository_ShowProposal"><path codeLine="75" d="M4383.31,366.7188 C4438.15,366.7188 4492.32,366.7188 4535.4,366.7188 " fill="none" id="ShowProposalRepository-to-ShowProposal" style="stroke:#181818;stroke-width:1.0;"/><polygon fill="#181818" points="4540.16,366.7188,4531.16,362.7188,4535.16,366.7188,4531.16,370.7188,4540.16,366.7188" style="stroke:#181818;stroke-width:1.0;"/><text fill="#000000" font-family="sans-serif" font-size="20" lengthAdjust="spacing" textLength="95" x="4416" y="362.0547">proposals</text><text fill="#000000" font-family="sans-serif" font-size="20" lengthAdjust="spacing" textLength="35" x="4498.9119" y="386.9562">0..*</text></g><!--link AddFigureToProposalUI to AddFigureToProposalController--><g id="link_AddFigureToProposalUI_AddFigureToProposalController"><path codeLine="77" d="M284.26,327.7188 C302.69,327.7188 322.26,327.7188 342.4,327.7188 " fill="none" id="AddFigureToProposalUI-to-AddFigureToProposalController" style="stroke:#181818;stroke-width:1.0;stroke-dasharray:7.0,7.0;"/><polygon fill="#181818" points="347.16,327.7188,338.16,323.7188,342.16,327.7188,338.16,331.7188,347.16,327.7188" style="stroke:#181818;stroke-width:1.0;"/></g><!--link AddFigureToProposalController to RepositoryFactory--><g id="link_AddFigureToProposalController_RepositoryFactory"><path codeLine="78" d="M965.06,329.0988 C1393.49,331.3688 2194.92,336.8788 2878,348.7188 C2946.46,349.9088 3021.31,351.8887 3088.14,353.9088 " fill="none" id="AddFigureToProposalController-to-RepositoryFactory" style="stroke:#181818;stroke-width:1.0;stroke-dasharray:7.0,7.0;"/><polygon fill="#181818" points="3093.07,354.0588,3084.1879,349.8033,3088.072,353.916,3083.9594,357.8001,3093.07,354.0588" style="stroke:#181818;stroke-width:1.0;"/><text fill="#000000" font-family="sans-serif" font-size="20" lengthAdjust="spacing" textLength="109" x="1909" y="330.0547">proposals()</text></g><!--link AddFigureToProposalController to ShowProposalRepository--><g id="link_AddFigureToProposalController_ShowProposalRepository"><path codeLine="79" d="M763.48,399.9788 C890.27,479.6588 1112.32,596.7188 1322.5,596.7188 C1322.5,596.7188 1322.5,596.7188 3290.5,596.7188 C3555.94,596.7188 3852.35,485.8787 4008.81,418.0888 " fill="none" id="AddFigureToProposalController-to-ShowProposalRepository" style="stroke:#181818;stroke-width:1.0;stroke-dasharray:7.0,7.0;"/><polygon fill="#181818" points="4013.39,416.0988,4003.5414,416.0302,4008.8069,418.0976,4006.7395,423.3631,4013.39,416.0988" style="stroke:#181818;stroke-width:1.0;"/><text fill="#000000" font-family="sans-serif" font-size="20" lengthAdjust="spacing" textLength="109" x="2189" y="592.0547">proposals()</text></g><!--link AddFigureToProposalController to PersistenceContext--><g id="link_AddFigureToProposalController_PersistenceContext"><path codeLine="80" d="M965.45,282.3788 C1029.87,272.8788 1095.54,263.1888 1152.7,254.7588 " fill="none" id="AddFigureToProposalController-to-PersistenceContext" style="stroke:#181818;stroke-width:1.0;stroke-dasharray:7.0,7.0;"/><polygon fill="#181818" points="1157.41,254.0688,1147.924,251.42,1152.4631,254.7958,1149.0873,259.3349,1157.41,254.0688" style="stroke:#181818;stroke-width:1.0;"/><text fill="#000000" font-family="sans-serif" font-size="20" lengthAdjust="spacing" textLength="128" x="998" y="254.0547">repositories()</text></g><!--link PersistenceContext to JpaRepositoryFactory--><g id="link_PersistenceContext_JpaRepositoryFactory"><path codeLine="83" d="M1419.33,266.8788 C1520.21,306.4088 1681.59,369.6387 1802.27,416.9288 " fill="none" id="PersistenceContext-to-JpaRepositoryFactory" style="stroke:#181818;stroke-width:1.0;stroke-dasharray:7.0,7.0;"/><polygon fill="#181818" points="1806.58,418.6188,1799.6645,411.6062,1801.9259,416.7914,1796.7407,419.0528,1806.58,418.6188" style="stroke:#181818;stroke-width:1.0;"/><text fill="#000000" font-family="sans-serif" font-size="20" lengthAdjust="spacing" textLength="215" x="1521" y="306.0547">JpaRepositoryFactory()</text></g><!--link PersistenceContext to InMemoryRepositoryFactory--><g id="link_PersistenceContext_InMemoryRepositoryFactory"><path codeLine="84" d="M1488.34,200.0988 C1499.04,198.5188 1509.66,197.0388 1520,195.7188 C1822.22,157.2387 2174.73,132.4388 2390.23,119.5288 " fill="none" id="PersistenceContext-to-InMemoryRepositoryFactory" style="stroke:#181818;stroke-width:1.0;stroke-dasharray:7.0,7.0;"/><polygon fill="#181818" points="2395.05,119.2387,2385.826,115.7865,2390.059,119.5391,2386.3065,123.7721,2395.05,119.2387" style="stroke:#181818;stroke-width:1.0;"/><text fill="#000000" font-family="sans-serif" font-size="20" lengthAdjust="spacing" textLength="280" x="1823.5" y="131.0547">InMemoryRepositoryFactory()</text></g><!--link PersistenceContext to RepositoryFactory--><g id="link_PersistenceContext_RepositoryFactory"><path codeLine="85" d="M1488.24,218.6588 C1789.33,201.6187 2450.16,179.6488 2997,269.7188 C3036.23,276.1788 3077.49,286.6688 3116.22,298.2588 " fill="none" id="PersistenceContext-to-RepositoryFactory" style="stroke:#181818;stroke-width:1.0;stroke-dasharray:7.0,7.0;"/><polygon fill="#181818" points="3120.96,299.6888,3113.4977,293.2611,3116.1728,298.2455,3111.1885,300.9206,3120.96,299.6888" style="stroke:#181818;stroke-width:1.0;"/><text fill="#000000" font-family="sans-serif" font-size="20" lengthAdjust="spacing" textLength="109" x="2189" y="200.0547">proposals()</text></g><!--link JpaRepositoryFactory to RepositoryFactory--><g id="link_JpaRepositoryFactory_RepositoryFactory"><path codeLine="87" d="M2158.03,448.1287 C2213.16,439.9188 2273.35,431.7188 2329,425.7188 C2584,398.2388 2878.46,380.3288 3073.21,370.4088 " fill="none" id="JpaRepositoryFactory-to-RepositoryFactory" style="stroke:#181818;stroke-width:1.0;stroke-dasharray:7.0,7.0;"/><polygon fill="none" points="3072.84,363.4188,3093.17,369.3988,3073.55,377.3988,3072.84,363.4188" style="stroke:#181818;stroke-width:1.0;"/><text fill="#000000" font-family="sans-serif" font-size="20" lengthAdjust="spacing" textLength="109" x="2537" y="377.0547">proposals()</text></g><!--link JpaRepositoryFactory to JpaShowProposalRepository--><g id="link_JpaRepositoryFactory_JpaShowProposalRepository"><path codeLine="88" d="M2158.28,483.4288 C2210.15,484.4288 2267.14,485.5188 2322.25,486.5788 " fill="none" id="JpaRepositoryFactory-to-JpaShowProposalRepository" style="stroke:#181818;stroke-width:1.0;stroke-dasharray:7.0,7.0;"/><polygon fill="#181818" points="2327.1,486.6688,2318.182,482.4891,2322.101,486.5685,2318.0216,490.4875,2327.1,486.6688" style="stroke:#181818;stroke-width:1.0;"/></g><!--link JpaShowProposalRepository to ShowProposalRepository--><g id="link_JpaShowProposalRepository_ShowProposalRepository"><path codeLine="90" d="M2854.36,494.7887 C3052.91,494.5588 3332.27,488.7988 3576,463.7188 C3672.3,453.8088 3777.2,436.6188 3868.94,419.4388 " fill="none" id="JpaShowProposalRepository-to-ShowProposalRepository" style="stroke:#181818;stroke-width:1.0;stroke-dasharray:7.0,7.0;"/><polygon fill="none" points="3867.38,412.6088,3888.34,415.7688,3869.99,426.3688,3867.38,412.6088" style="stroke:#181818;stroke-width:1.0;"/><text fill="#000000" font-family="sans-serif" font-size="20" lengthAdjust="spacing" textLength="242" x="3168.5" y="459.0547">findAllTestingProposals()</text></g><!--link InMemoryRepositoryFactory to RepositoryFactory--><g id="link_InMemoryRepositoryFactory_RepositoryFactory"><path codeLine="93" d="M2786.5,138.7288 C2854.36,152.3988 2930.24,171.3388 2997,196.7188 C3060.12,220.7188 3126.04,256.7588 3179.2,288.9388 " fill="none" id="InMemoryRepositoryFactory-to-RepositoryFactory" style="stroke:#181818;stroke-width:1.0;stroke-dasharray:7.0,7.0;"/><polygon fill="none" points="3182.77,282.9188,3196.15,299.3488,3175.45,294.8488,3182.77,282.9188" style="stroke:#181818;stroke-width:1.0;"/><text fill="#000000" font-family="sans-serif" font-size="20" lengthAdjust="spacing" textLength="109" x="2887" y="158.0547">proposals()</text></g><!--link InMemoryRepositoryFactory to InMemoryShowProposalRepository--><g id="link_InMemoryRepositoryFactory_InMemoryShowProposalRepository"><path codeLine="94" d="M2786.37,110.3888 C2858.9,111.0188 2942.61,111.7387 3020.64,112.4088 " fill="none" id="InMemoryRepositoryFactory-to-InMemoryShowProposalRepository" style="stroke:#181818;stroke-width:1.0;stroke-dasharray:7.0,7.0;"/><polygon fill="#181818" points="3025.21,112.4488,3016.2446,108.3718,3020.2102,112.4059,3016.176,116.3715,3025.21,112.4488" style="stroke:#181818;stroke-width:1.0;"/></g><!--link InMemoryShowProposalRepository to ShowProposalRepository--><g id="link_InMemoryShowProposalRepository_ShowProposalRepository"><path codeLine="96" d="M3450.83,163.4588 C3590.64,205.9588 3793.28,267.5488 3938.79,311.7888 " fill="none" id="InMemoryShowProposalRepository-to-ShowProposalRepository" style="stroke:#181818;stroke-width:1.0;stroke-dasharray:7.0,7.0;"/><polygon fill="none" points="3940.38,304.9588,3957.48,317.4688,3936.31,318.3488,3940.38,304.9588" style="stroke:#181818;stroke-width:1.0;"/><text fill="#000000" font-family="sans-serif" font-size="20" lengthAdjust="spacing" textLength="242" x="3585" y="207.0547">findAllTestingProposals()</text></g><!--SRC=[nLLBRjim4Dtp50DtKQUfXQ1BmH1WD3MW0WM29Zu08uqTrZGfa4n_QSxJ4_G4kLYfZotA8YtLct9bMVFUl7d36Uaj4mLLTCTbjiKSSbpJHswMKfXRzXFXtHNHQ41Z6MIa0Y454evh0qQ2Ofi70pbJc1ac1I45pRPqWp2vbZlAn0HUNLS7dWW1UmxlFsCXDRE4Fy0DWkQamg1QqmpXza5-kr7IHbFkWERpzY5976HvBc7DHBxW_0wrOMApn-lf1SIGMcfwpt7kKYVamF1CF3BQR4kQDGgQNxtqitxqzE98OD6Hv2_oM94ZBEDKwmxCwlaW33EbdFbSIMcIvCbNKmrTiisZmY7GizFHLNhSg9ffaUSrsPtSQrcbbcsLLiQGFjDxUxcKv1pLQCOMOfdRXuxrPtMz1NEcpS9UuwzO9zTEpow1zZLDrzKVSUFbsqDFk_syy3XGeD8s7OeC8xOhUFIbe7ulFXRqNoVWR1-QIt98FFREpxp17Vj6NtUhuQHHJEnmPuFzRgNYK_Ns_rYsppxUjo3YNFC2tldTkca3of72xyOHf_RK3EkyFOrjojVs9QSllr_-e0Qqmub0TPq4DI6TDJMR9J2vYg8tasPkOgZdY92-Rr6KX3u0iMjBDuSJvMJhg73GXFWtM9dxv2OYf_TKYUzNr9Kzp32g-c4QJwlZenOJGZnH9TYx2kBGq0T8miCHdno30DsGiyGhEegYNyFO03G9B-CgNQ1LLSfW6uDxnxOZRDcOAawWdNQ4wXdOf6SNzHS0]--></g></svg>