<?xml version="1.0" encoding="UTF-8" standalone="no"?><svg xmlns="http://www.w3.org/2000/svg" xmlns:xlink="http://www.w3.org/1999/xlink" contentStyleType="text/css" height="634px" preserveAspectRatio="none" style="width:4634px;height:634px;background:#FFFFFF;" version="1.1" viewBox="0 0 4634 634" width="4634px" zoomAndPan="magnify"><defs/><g><!--cluster Domain--><g id="cluster_Domain"><path d="M2863.5,218.8945 L2935.5,218.8945 A3.75,3.75 0 0 1 2938,221.3945 L2945,250.0508 L4624.5,250.0508 A2.5,2.5 0 0 1 4627,252.5508 L4627,480.3945 A2.5,2.5 0 0 1 4624.5,482.8945 L2863.5,482.8945 A2.5,2.5 0 0 1 2861,480.3945 L2861,221.3945 A2.5,2.5 0 0 1 2863.5,218.8945 " fill="#DDDDDD" style="stroke:#000000;stroke-width:1.5;"/><line style="stroke:#000000;stroke-width:1.5;" x1="2861" x2="2945" y1="250.0508" y2="250.0508"/><text fill="#000000" font-family="sans-serif" font-size="20" font-weight="bold" lengthAdjust="spacing" textLength="71" x="2865" y="241.6563">Domain</text></g><!--cluster Repository --><g id="cluster_Repository "><path d="M2887.5,270.8945 L2997.5,270.8945 A3.75,3.75 0 0 1 3000,273.3945 L3007,302.0508 L4101.5,302.0508 A2.5,2.5 0 0 1 4104,304.5508 L4104,456.3945 A2.5,2.5 0 0 1 4101.5,458.8945 L2887.5,458.8945 A2.5,2.5 0 0 1 2885,456.3945 L2885,273.3945 A2.5,2.5 0 0 1 2887.5,270.8945 " fill="#DDDDDD" style="stroke:#000000;stroke-width:1.5;"/><line style="stroke:#000000;stroke-width:1.5;" x1="2885" x2="3007" y1="302.0508" y2="302.0508"/><text fill="#000000" font-family="sans-serif" font-size="20" font-weight="bold" lengthAdjust="spacing" textLength="103" x="2889" y="293.6563">Repository</text></g><!--cluster UI--><g id="cluster_UI"><path d="M8.5,257.8945 L28.5,257.8945 A3.75,3.75 0 0 1 31,260.3945 L38,289.0508 L279.5,289.0508 A2.5,2.5 0 0 1 282,291.5508 L282,391.3945 A2.5,2.5 0 0 1 279.5,393.8945 L8.5,393.8945 A2.5,2.5 0 0 1 6,391.3945 L6,260.3945 A2.5,2.5 0 0 1 8.5,257.8945 " fill="#DDDDDD" style="stroke:#000000;stroke-width:1.5;"/><line style="stroke:#000000;stroke-width:1.5;" x1="6" x2="38" y1="289.0508" y2="289.0508"/><text fill="#000000" font-family="sans-serif" font-size="20" font-weight="bold" lengthAdjust="spacing" textLength="19" x="10" y="280.6563">UI</text></g><!--cluster Controller--><g id="cluster_Controller"><path d="M317.5,219.8945 L412.5,219.8945 A3.75,3.75 0 0 1 415,222.3945 L422,251.0508 L917.5,251.0508 A2.5,2.5 0 0 1 920,253.5508 L920,429.3945 A2.5,2.5 0 0 1 917.5,431.8945 L317.5,431.8945 A2.5,2.5 0 0 1 315,429.3945 L315,222.3945 A2.5,2.5 0 0 1 317.5,219.8945 " fill="#DDDDDD" style="stroke:#000000;stroke-width:1.5;"/><line style="stroke:#000000;stroke-width:1.5;" x1="315" x2="422" y1="251.0508" y2="251.0508"/><text fill="#000000" font-family="sans-serif" font-size="20" font-weight="bold" lengthAdjust="spacing" textLength="94" x="319" y="242.6563">Controller</text></g><!--cluster persistence.impl.jpa--><g id="cluster_persistence.impl.jpa"><path d="M1656.5,395.8945 L1846.5,395.8945 A3.75,3.75 0 0 1 1849,398.3945 L1856,427.0508 L2693.5,427.0508 A2.5,2.5 0 0 1 2696,429.5508 L2696,581.3945 A2.5,2.5 0 0 1 2693.5,583.8945 L1656.5,583.8945 A2.5,2.5 0 0 1 1654,581.3945 L1654,398.3945 A2.5,2.5 0 0 1 1656.5,395.8945 " fill="#DDDDDD" style="stroke:#000000;stroke-width:1.5;"/><line style="stroke:#000000;stroke-width:1.5;" x1="1654" x2="1856" y1="427.0508" y2="427.0508"/><text fill="#000000" font-family="sans-serif" font-size="20" font-weight="bold" lengthAdjust="spacing" textLength="189" x="1658" y="418.6563">persistence.impl.jpa</text></g><!--cluster persistence.impl.inmemory--><g id="cluster_persistence.impl.inmemory"><path d="M2242.5,6.8945 L2497.5,6.8945 A3.75,3.75 0 0 1 2500,9.3945 L2507,38.0508 L3338.5,38.0508 A2.5,2.5 0 0 1 3341,40.5508 L3341,192.3945 A2.5,2.5 0 0 1 3338.5,194.8945 L2242.5,194.8945 A2.5,2.5 0 0 1 2240,192.3945 L2240,9.3945 A2.5,2.5 0 0 1 2242.5,6.8945 " fill="#DDDDDD" style="stroke:#000000;stroke-width:1.5;"/><line style="stroke:#000000;stroke-width:1.5;" x1="2240" x2="2507" y1="38.0508" y2="38.0508"/><text fill="#000000" font-family="sans-serif" font-size="20" font-weight="bold" lengthAdjust="spacing" textLength="254" x="2244" y="29.6563">persistence.impl.inmemory</text></g><!--cluster persistence--><g id="cluster_persistence"><path d="M1073.5,157.8945 L1184.5,157.8945 A3.75,3.75 0 0 1 1187,160.3945 L1194,189.0508 L1409.5,189.0508 A2.5,2.5 0 0 1 1412,191.5508 L1412,291.3945 A2.5,2.5 0 0 1 1409.5,293.8945 L1073.5,293.8945 A2.5,2.5 0 0 1 1071,291.3945 L1071,160.3945 A2.5,2.5 0 0 1 1073.5,157.8945 " fill="#DDDDDD" style="stroke:#000000;stroke-width:1.5;"/><line style="stroke:#000000;stroke-width:1.5;" x1="1071" x2="1194" y1="189.0508" y2="189.0508"/><text fill="#000000" font-family="sans-serif" font-size="20" font-weight="bold" lengthAdjust="spacing" textLength="110" x="1075" y="180.6563">persistence</text></g><!--class ShowProposal--><g id="elem_ShowProposal"><rect codeLine="19" fill="#F1F1F1" height="101.4688" id="ShowProposal" rx="2.5" ry="2.5" style="stroke:#181818;stroke-width:0.5;" width="161" x="4238" y="335.3945"/><ellipse cx="4254" cy="378.1289" fill="#ADD1B2" rx="12" ry="12" style="stroke:#181818;stroke-width:1.0;"/><path d="M4256.1406,373.0508 Q4256.3281,372.8008 4256.5469,372.6758 Q4256.7656,372.5352 4257.0156,372.5352 Q4257.4531,372.5352 4257.7344,372.8477 Q4258.0156,373.1445 4258.0156,373.8633 L4258.0156,375.5664 Q4258.0156,376.2852 4257.7344,376.5977 Q4257.4531,376.9102 4257.0156,376.9102 Q4256.625,376.9102 4256.375,376.6758 Q4256.125,376.457 4256.0156,375.8477 Q4255.9531,375.4258 4255.7344,375.207 Q4255.3438,374.7695 4254.625,374.5039 Q4253.9063,374.2383 4253.1875,374.2383 Q4252.2813,374.2383 4251.5313,374.6289 Q4250.7813,375.0195 4250.2031,375.9102 Q4249.625,376.7852 4249.625,377.9883 L4249.625,379.2852 Q4249.625,380.7383 4250.6719,381.707 Q4251.7344,382.6758 4253.5938,382.6758 Q4254.7031,382.6758 4255.4844,382.3633 Q4255.9219,382.1914 4256.4375,381.6758 Q4256.75,381.3633 4256.9219,381.2695 Q4257.0938,381.1758 4257.3281,381.1758 Q4257.7188,381.1758 4258.0156,381.4883 Q4258.3281,381.7852 4258.3281,382.1914 Q4258.3281,382.5977 4257.9219,383.0664 Q4257.3281,383.7539 4256.3906,384.1445 Q4255.125,384.6758 4253.6094,384.6758 Q4251.8281,384.6758 4250.4063,383.9414 Q4249.25,383.3477 4248.4375,382.082 Q4247.625,380.8164 4247.625,379.332 L4247.625,377.9727 Q4247.625,376.4102 4248.3438,375.0664 Q4249.0781,373.707 4250.3594,372.9727 Q4251.6563,372.2383 4253.1094,372.2383 Q4253.9688,372.2383 4254.7188,372.4414 Q4255.4844,372.6445 4256.1406,373.0508 Z " fill="#000000"/><text fill="#000000" font-family="sans-serif" font-size="20" font-style="italic" lengthAdjust="spacing" textLength="71" x="4297" y="361.1563">«Entity»</text><text fill="#000000" font-family="sans-serif" font-size="20" font-style="italic" lengthAdjust="spacing" textLength="56" x="4304.5" y="386.3125">«root»</text><text fill="#000000" font-family="sans-serif" font-size="20" lengthAdjust="spacing" textLength="127" x="4269" y="411.4688">ShowProposal</text><line style="stroke:#181818;stroke-width:0.5;" x1="4239" x2="4398" y1="420.8633" y2="420.8633"/><line style="stroke:#181818;stroke-width:0.5;" x1="4239" x2="4398" y1="428.8633" y2="428.8633"/></g><!--class Figure--><g id="elem_Figure"><rect codeLine="22" fill="#F1F1F1" height="101.4688" id="Figure" rx="2.5" ry="2.5" style="stroke:#181818;stroke-width:0.5;" width="101" x="4510" y="335.3945"/><ellipse cx="4526" cy="378.1289" fill="#ADD1B2" rx="12" ry="12" style="stroke:#181818;stroke-width:1.0;"/><path d="M4528.1406,373.0508 Q4528.3281,372.8008 4528.5469,372.6758 Q4528.7656,372.5352 4529.0156,372.5352 Q4529.4531,372.5352 4529.7344,372.8477 Q4530.0156,373.1445 4530.0156,373.8633 L4530.0156,375.5664 Q4530.0156,376.2852 4529.7344,376.5977 Q4529.4531,376.9102 4529.0156,376.9102 Q4528.625,376.9102 4528.375,376.6758 Q4528.125,376.457 4528.0156,375.8477 Q4527.9531,375.4258 4527.7344,375.207 Q4527.3438,374.7695 4526.625,374.5039 Q4525.9063,374.2383 4525.1875,374.2383 Q4524.2813,374.2383 4523.5313,374.6289 Q4522.7813,375.0195 4522.2031,375.9102 Q4521.625,376.7852 4521.625,377.9883 L4521.625,379.2852 Q4521.625,380.7383 4522.6719,381.707 Q4523.7344,382.6758 4525.5938,382.6758 Q4526.7031,382.6758 4527.4844,382.3633 Q4527.9219,382.1914 4528.4375,381.6758 Q4528.75,381.3633 4528.9219,381.2695 Q4529.0938,381.1758 4529.3281,381.1758 Q4529.7188,381.1758 4530.0156,381.4883 Q4530.3281,381.7852 4530.3281,382.1914 Q4530.3281,382.5977 4529.9219,383.0664 Q4529.3281,383.7539 4528.3906,384.1445 Q4527.125,384.6758 4525.6094,384.6758 Q4523.8281,384.6758 4522.4063,383.9414 Q4521.25,383.3477 4520.4375,382.082 Q4519.625,380.8164 4519.625,379.332 L4519.625,377.9727 Q4519.625,376.4102 4520.3438,375.0664 Q4521.0781,373.707 4522.3594,372.9727 Q4523.6563,372.2383 4525.1094,372.2383 Q4525.9688,372.2383 4526.7188,372.4414 Q4527.4844,372.6445 4528.1406,373.0508 Z " fill="#000000"/><text fill="#000000" font-family="sans-serif" font-size="20" font-style="italic" lengthAdjust="spacing" textLength="71" x="4539" y="361.1563">«Entity»</text><text fill="#000000" font-family="sans-serif" font-size="20" font-style="italic" lengthAdjust="spacing" textLength="56" x="4546.5" y="386.3125">«root»</text><text fill="#000000" font-family="sans-serif" font-size="20" lengthAdjust="spacing" textLength="55" x="4547" y="411.4688">Figure</text><line style="stroke:#181818;stroke-width:0.5;" x1="4511" x2="4610" y1="420.8633" y2="420.8633"/><line style="stroke:#181818;stroke-width:0.5;" x1="4511" x2="4610" y1="428.8633" y2="428.8633"/></g><!--class ShowProposalRepository--><g id="elem_ShowProposalRepository"><rect codeLine="7" fill="#F1F1F1" height="101.4688" id="ShowProposalRepository" rx="2.5" ry="2.5" style="stroke:#181818;stroke-width:0.5;" width="481" x="3607" y="335.3945"/><ellipse cx="3731.5" cy="365.5508" fill="#B4A7E5" rx="12" ry="12" style="stroke:#181818;stroke-width:1.0;"/><path d="M3732.5,361.7227 L3732.5,369.5508 L3734.5313,369.5508 Q3735.25,369.5508 3735.5469,369.832 Q3735.8594,370.0977 3735.8594,370.5508 Q3735.8594,370.9883 3735.5469,371.2695 Q3735.25,371.5508 3734.5313,371.5508 L3728.4844,371.5508 Q3727.75,371.5508 3727.4375,371.2695 Q3727.1406,370.9883 3727.1406,370.5508 Q3727.1406,370.0977 3727.4375,369.832 Q3727.75,369.5508 3728.4844,369.5508 L3730.5,369.5508 L3730.5,361.7227 L3728.4844,361.7227 Q3727.75,361.7227 3727.4375,361.4414 Q3727.1406,361.1602 3727.1406,360.707 Q3727.1406,360.2539 3727.4375,359.9883 Q3727.75,359.707 3728.4844,359.707 L3734.5313,359.707 Q3735.25,359.707 3735.5469,359.9883 Q3735.8594,360.2539 3735.8594,360.707 Q3735.8594,361.1602 3735.5469,361.4414 Q3735.25,361.7227 3734.5313,361.7227 L3732.5,361.7227 Z " fill="#000000"/><text fill="#000000" font-family="sans-serif" font-size="20" font-style="italic" lengthAdjust="spacing" textLength="117" x="3806.5" y="361.1563">«Repository»</text><text fill="#000000" font-family="sans-serif" font-size="20" font-style="italic" lengthAdjust="spacing" textLength="223" x="3753.5" y="386.3125">ShowProposalRepository</text><line style="stroke:#181818;stroke-width:0.5;" x1="3608" x2="4087" y1="395.707" y2="395.707"/><line style="stroke:#181818;stroke-width:0.5;" x1="3608" x2="4087" y1="403.707" y2="403.707"/><ellipse cx="3618" cy="421.7852" fill="#84BE84" rx="3" ry="3" style="stroke:#038048;stroke-width:1.0;"/><text fill="#000000" font-family="sans-serif" font-size="20" lengthAdjust="spacing" textLength="454" x="3628" y="428.4688">findAllTestingProposals() : Iterable&lt;ShowProposal&gt;</text></g><!--class RepositoryFactory--><g id="elem_RepositoryFactory"><rect codeLine="12" fill="#F1F1F1" height="126.625" id="RepositoryFactory" rx="2.5" ry="2.5" style="stroke:#181818;stroke-width:0.5;" width="367" x="2901" y="315.3945"/><ellipse cx="2999.5" cy="345.5508" fill="#B4A7E5" rx="12" ry="12" style="stroke:#181818;stroke-width:1.0;"/><path d="M3000.5,341.7227 L3000.5,349.5508 L3002.5313,349.5508 Q3003.25,349.5508 3003.5469,349.832 Q3003.8594,350.0977 3003.8594,350.5508 Q3003.8594,350.9883 3003.5469,351.2695 Q3003.25,351.5508 3002.5313,351.5508 L2996.4844,351.5508 Q2995.75,351.5508 2995.4375,351.2695 Q2995.1406,350.9883 2995.1406,350.5508 Q2995.1406,350.0977 2995.4375,349.832 Q2995.75,349.5508 2996.4844,349.5508 L2998.5,349.5508 L2998.5,341.7227 L2996.4844,341.7227 Q2995.75,341.7227 2995.4375,341.4414 Q2995.1406,341.1602 2995.1406,340.707 Q2995.1406,340.2539 2995.4375,339.9883 Q2995.75,339.707 2996.4844,339.707 L3002.5313,339.707 Q3003.25,339.707 3003.5469,339.9883 Q3003.8594,340.2539 3003.8594,340.707 Q3003.8594,341.1602 3003.5469,341.4414 Q3003.25,341.7227 3002.5313,341.7227 L3000.5,341.7227 Z " fill="#000000"/><text fill="#000000" font-family="sans-serif" font-size="20" font-style="italic" lengthAdjust="spacing" textLength="88" x="3058" y="341.1563">«Factory»</text><text fill="#000000" font-family="sans-serif" font-size="20" font-style="italic" lengthAdjust="spacing" textLength="161" x="3021.5" y="366.3125">RepositoryFactory</text><line style="stroke:#181818;stroke-width:0.5;" x1="2902" x2="3267" y1="375.707" y2="375.707"/><line style="stroke:#181818;stroke-width:0.5;" x1="2902" x2="3267" y1="383.707" y2="383.707"/><rect fill="#F24D5C" height="6" style="stroke:#C82930;stroke-width:1.0;" width="6" x="2909" y="398.7852"/><text fill="#000000" font-family="sans-serif" font-size="20" lengthAdjust="spacing" textLength="176" x="2922" y="408.4688">RepositoryFactory()</text><ellipse cx="2912" cy="426.9414" fill="#84BE84" rx="3" ry="3" style="stroke:#038048;stroke-width:1.0;"/><text fill="#000000" font-family="sans-serif" font-size="20" lengthAdjust="spacing" textLength="340" x="2922" y="433.625">proposals() : ShowProposalRepository</text></g><!--class AddFigureToProposalUI--><g id="elem_AddFigureToProposalUI"><rect codeLine="27" fill="#F1F1F1" height="76.3125" id="AddFigureToProposalUI" rx="2.5" ry="2.5" style="stroke:#181818;stroke-width:0.5;" width="244" x="22" y="301.8945"/><ellipse cx="38" cy="332.0508" fill="#ADD1B2" rx="12" ry="12" style="stroke:#181818;stroke-width:1.0;"/><path d="M40.1406,326.9727 Q40.3281,326.7227 40.5469,326.5977 Q40.7656,326.457 41.0156,326.457 Q41.4531,326.457 41.7344,326.7695 Q42.0156,327.0664 42.0156,327.7852 L42.0156,329.4883 Q42.0156,330.207 41.7344,330.5195 Q41.4531,330.832 41.0156,330.832 Q40.625,330.832 40.375,330.5977 Q40.125,330.3789 40.0156,329.7695 Q39.9531,329.3477 39.7344,329.1289 Q39.3438,328.6914 38.625,328.4258 Q37.9063,328.1602 37.1875,328.1602 Q36.2813,328.1602 35.5313,328.5508 Q34.7813,328.9414 34.2031,329.832 Q33.625,330.707 33.625,331.9102 L33.625,333.207 Q33.625,334.6602 34.6719,335.6289 Q35.7344,336.5977 37.5938,336.5977 Q38.7031,336.5977 39.4844,336.2852 Q39.9219,336.1133 40.4375,335.5977 Q40.75,335.2852 40.9219,335.1914 Q41.0938,335.0977 41.3281,335.0977 Q41.7188,335.0977 42.0156,335.4102 Q42.3281,335.707 42.3281,336.1133 Q42.3281,336.5195 41.9219,336.9883 Q41.3281,337.6758 40.3906,338.0664 Q39.125,338.5977 37.6094,338.5977 Q35.8281,338.5977 34.4063,337.8633 Q33.25,337.2695 32.4375,336.0039 Q31.625,334.7383 31.625,333.2539 L31.625,331.8945 Q31.625,330.332 32.3438,328.9883 Q33.0781,327.6289 34.3594,326.8945 Q35.6563,326.1602 37.1094,326.1602 Q37.9688,326.1602 38.7188,326.3633 Q39.4844,326.5664 40.1406,326.9727 Z " fill="#000000"/><text fill="#000000" font-family="sans-serif" font-size="20" font-style="italic" lengthAdjust="spacing" textLength="41" x="137.5" y="327.6563">«UI»</text><text fill="#000000" font-family="sans-serif" font-size="20" lengthAdjust="spacing" textLength="210" x="53" y="352.8125">AddFigureToProposalUI</text><line style="stroke:#181818;stroke-width:0.5;" x1="23" x2="265" y1="362.207" y2="362.207"/><line style="stroke:#181818;stroke-width:0.5;" x1="23" x2="265" y1="370.207" y2="370.207"/></g><!--class AddFigureToProposalController--><g id="elem_AddFigureToProposalController"><rect codeLine="33" fill="#F1F1F1" height="151.7813" id="AddFigureToProposalController" rx="2.5" ry="2.5" style="stroke:#181818;stroke-width:0.5;" width="573" x="331" y="263.8945"/><ellipse cx="475" cy="294.0508" fill="#ADD1B2" rx="12" ry="12" style="stroke:#181818;stroke-width:1.0;"/><path d="M477.1406,288.9727 Q477.3281,288.7227 477.5469,288.5977 Q477.7656,288.457 478.0156,288.457 Q478.4531,288.457 478.7344,288.7695 Q479.0156,289.0664 479.0156,289.7852 L479.0156,291.4883 Q479.0156,292.207 478.7344,292.5195 Q478.4531,292.832 478.0156,292.832 Q477.625,292.832 477.375,292.5977 Q477.125,292.3789 477.0156,291.7695 Q476.9531,291.3477 476.7344,291.1289 Q476.3438,290.6914 475.625,290.4258 Q474.9063,290.1602 474.1875,290.1602 Q473.2813,290.1602 472.5313,290.5508 Q471.7813,290.9414 471.2031,291.832 Q470.625,292.707 470.625,293.9102 L470.625,295.207 Q470.625,296.6602 471.6719,297.6289 Q472.7344,298.5977 474.5938,298.5977 Q475.7031,298.5977 476.4844,298.2852 Q476.9219,298.1133 477.4375,297.5977 Q477.75,297.2852 477.9219,297.1914 Q478.0938,297.0977 478.3281,297.0977 Q478.7188,297.0977 479.0156,297.4102 Q479.3281,297.707 479.3281,298.1133 Q479.3281,298.5195 478.9219,298.9883 Q478.3281,299.6758 477.3906,300.0664 Q476.125,300.5977 474.6094,300.5977 Q472.8281,300.5977 471.4063,299.8633 Q470.25,299.2695 469.4375,298.0039 Q468.625,296.7383 468.625,295.2539 L468.625,293.8945 Q468.625,292.332 469.3438,290.9883 Q470.0781,289.6289 471.3594,288.8945 Q472.6563,288.1602 474.1094,288.1602 Q474.9688,288.1602 475.7188,288.3633 Q476.4844,288.5664 477.1406,288.9727 Z " fill="#000000"/><text fill="#000000" font-family="sans-serif" font-size="20" font-style="italic" lengthAdjust="spacing" textLength="109" x="580.5" y="289.6563">«Controller»</text><text fill="#000000" font-family="sans-serif" font-size="20" lengthAdjust="spacing" textLength="276" x="497" y="314.8125">AddFigureToProposalController</text><line style="stroke:#181818;stroke-width:0.5;" x1="332" x2="903" y1="324.207" y2="324.207"/><line style="stroke:#181818;stroke-width:0.5;" x1="332" x2="903" y1="332.207" y2="332.207"/><ellipse cx="342" cy="350.2852" fill="#84BE84" rx="3" ry="3" style="stroke:#038048;stroke-width:1.0;"/><text fill="#000000" font-family="sans-serif" font-size="20" lengthAdjust="spacing" textLength="454" x="352" y="356.9688">findAllTestingProposals() : Iterable&lt;ShowProposal&gt;</text><ellipse cx="342" cy="375.4414" fill="#84BE84" rx="3" ry="3" style="stroke:#038048;stroke-width:1.0;"/><text fill="#000000" font-family="sans-serif" font-size="20" lengthAdjust="spacing" textLength="156" x="352" y="382.125">listActiveFigures()</text><ellipse cx="342" cy="400.5977" fill="#84BE84" rx="3" ry="3" style="stroke:#038048;stroke-width:1.0;"/><text fill="#000000" font-family="sans-serif" font-size="20" lengthAdjust="spacing" textLength="546" x="352" y="407.2813">addFigureToProposal(figure: Figure, proposal: ShowProposal)</text></g><!--class JpaShowProposalRepository--><g id="elem_JpaShowProposalRepository"><rect codeLine="41" fill="#F1F1F1" height="101.4688" id="JpaShowProposalRepository" rx="2.5" ry="2.5" style="stroke:#181818;stroke-width:0.5;" width="481" x="2199" y="466.3945"/><ellipse cx="2308" cy="496.5508" fill="#ADD1B2" rx="12" ry="12" style="stroke:#181818;stroke-width:1.0;"/><path d="M2310.1406,491.4727 Q2310.3281,491.2227 2310.5469,491.0977 Q2310.7656,490.957 2311.0156,490.957 Q2311.4531,490.957 2311.7344,491.2695 Q2312.0156,491.5664 2312.0156,492.2852 L2312.0156,493.9883 Q2312.0156,494.707 2311.7344,495.0195 Q2311.4531,495.332 2311.0156,495.332 Q2310.625,495.332 2310.375,495.0977 Q2310.125,494.8789 2310.0156,494.2695 Q2309.9531,493.8477 2309.7344,493.6289 Q2309.3438,493.1914 2308.625,492.9258 Q2307.9063,492.6602 2307.1875,492.6602 Q2306.2813,492.6602 2305.5313,493.0508 Q2304.7813,493.4414 2304.2031,494.332 Q2303.625,495.207 2303.625,496.4102 L2303.625,497.707 Q2303.625,499.1602 2304.6719,500.1289 Q2305.7344,501.0977 2307.5938,501.0977 Q2308.7031,501.0977 2309.4844,500.7852 Q2309.9219,500.6133 2310.4375,500.0977 Q2310.75,499.7852 2310.9219,499.6914 Q2311.0938,499.5977 2311.3281,499.5977 Q2311.7188,499.5977 2312.0156,499.9102 Q2312.3281,500.207 2312.3281,500.6133 Q2312.3281,501.0195 2311.9219,501.4883 Q2311.3281,502.1758 2310.3906,502.5664 Q2309.125,503.0977 2307.6094,503.0977 Q2305.8281,503.0977 2304.4063,502.3633 Q2303.25,501.7695 2302.4375,500.5039 Q2301.625,499.2383 2301.625,497.7539 L2301.625,496.3945 Q2301.625,494.832 2302.3438,493.4883 Q2303.0781,492.1289 2304.3594,491.3945 Q2305.6563,490.6602 2307.1094,490.6602 Q2307.9688,490.6602 2308.7188,490.8633 Q2309.4844,491.0664 2310.1406,491.4727 Z " fill="#000000"/><text fill="#000000" font-family="sans-serif" font-size="20" font-style="italic" lengthAdjust="spacing" textLength="117" x="2398.5" y="492.1563">«Repository»</text><text fill="#000000" font-family="sans-serif" font-size="20" lengthAdjust="spacing" textLength="254" x="2330" y="517.3125">JpaShowProposalRepository</text><line style="stroke:#181818;stroke-width:0.5;" x1="2200" x2="2679" y1="526.707" y2="526.707"/><line style="stroke:#181818;stroke-width:0.5;" x1="2200" x2="2679" y1="534.707" y2="534.707"/><ellipse cx="2210" cy="552.7852" fill="#84BE84" rx="3" ry="3" style="stroke:#038048;stroke-width:1.0;"/><text fill="#000000" font-family="sans-serif" font-size="20" lengthAdjust="spacing" textLength="454" x="2220" y="559.4688">findAllTestingProposals() : Iterable&lt;ShowProposal&gt;</text></g><!--class JpaRepositoryFactory--><g id="elem_JpaRepositoryFactory"><rect codeLine="45" fill="#F1F1F1" height="126.625" id="JpaRepositoryFactory" rx="2.5" ry="2.5" style="stroke:#181818;stroke-width:0.5;" width="367" x="1670" y="440.3945"/><ellipse cx="1752" cy="470.5508" fill="#ADD1B2" rx="12" ry="12" style="stroke:#181818;stroke-width:1.0;"/><path d="M1754.1406,465.4727 Q1754.3281,465.2227 1754.5469,465.0977 Q1754.7656,464.957 1755.0156,464.957 Q1755.4531,464.957 1755.7344,465.2695 Q1756.0156,465.5664 1756.0156,466.2852 L1756.0156,467.9883 Q1756.0156,468.707 1755.7344,469.0195 Q1755.4531,469.332 1755.0156,469.332 Q1754.625,469.332 1754.375,469.0977 Q1754.125,468.8789 1754.0156,468.2695 Q1753.9531,467.8477 1753.7344,467.6289 Q1753.3438,467.1914 1752.625,466.9258 Q1751.9063,466.6602 1751.1875,466.6602 Q1750.2813,466.6602 1749.5313,467.0508 Q1748.7813,467.4414 1748.2031,468.332 Q1747.625,469.207 1747.625,470.4102 L1747.625,471.707 Q1747.625,473.1602 1748.6719,474.1289 Q1749.7344,475.0977 1751.5938,475.0977 Q1752.7031,475.0977 1753.4844,474.7852 Q1753.9219,474.6133 1754.4375,474.0977 Q1754.75,473.7852 1754.9219,473.6914 Q1755.0938,473.5977 1755.3281,473.5977 Q1755.7188,473.5977 1756.0156,473.9102 Q1756.3281,474.207 1756.3281,474.6133 Q1756.3281,475.0195 1755.9219,475.4883 Q1755.3281,476.1758 1754.3906,476.5664 Q1753.125,477.0977 1751.6094,477.0977 Q1749.8281,477.0977 1748.4063,476.3633 Q1747.25,475.7695 1746.4375,474.5039 Q1745.625,473.2383 1745.625,471.7539 L1745.625,470.3945 Q1745.625,468.832 1746.3438,467.4883 Q1747.0781,466.1289 1748.3594,465.3945 Q1749.6563,464.6602 1751.1094,464.6602 Q1751.9688,464.6602 1752.7188,464.8633 Q1753.4844,465.0664 1754.1406,465.4727 Z " fill="#000000"/><text fill="#000000" font-family="sans-serif" font-size="20" font-style="italic" lengthAdjust="spacing" textLength="88" x="1827" y="466.1563">«Factory»</text><text fill="#000000" font-family="sans-serif" font-size="20" lengthAdjust="spacing" textLength="194" x="1774" y="491.3125">JpaRepositoryFactory</text><line style="stroke:#181818;stroke-width:0.5;" x1="1671" x2="2036" y1="500.707" y2="500.707"/><line style="stroke:#181818;stroke-width:0.5;" x1="1671" x2="2036" y1="508.707" y2="508.707"/><rect fill="#F24D5C" height="6" style="stroke:#C82930;stroke-width:1.0;" width="6" x="1678" y="523.7852"/><text fill="#000000" font-family="sans-serif" font-size="20" lengthAdjust="spacing" textLength="208" x="1691" y="533.4688">JpaRepositoryFactory()</text><ellipse cx="1681" cy="551.9414" fill="#84BE84" rx="3" ry="3" style="stroke:#038048;stroke-width:1.0;"/><text fill="#000000" font-family="sans-serif" font-size="20" lengthAdjust="spacing" textLength="340" x="1691" y="558.625">proposals() : ShowProposalRepository</text></g><!--class InMemoryShowProposalRepository--><g id="elem_InMemoryShowProposalRepository"><rect codeLine="53" fill="#F1F1F1" height="101.4688" id="InMemoryShowProposalRepository" rx="2.5" ry="2.5" style="stroke:#181818;stroke-width:0.5;" width="481" x="2844" y="71.3945"/><ellipse cx="2925" cy="101.5508" fill="#ADD1B2" rx="12" ry="12" style="stroke:#181818;stroke-width:1.0;"/><path d="M2927.1406,96.4727 Q2927.3281,96.2227 2927.5469,96.0977 Q2927.7656,95.957 2928.0156,95.957 Q2928.4531,95.957 2928.7344,96.2695 Q2929.0156,96.5664 2929.0156,97.2852 L2929.0156,98.9883 Q2929.0156,99.707 2928.7344,100.0195 Q2928.4531,100.332 2928.0156,100.332 Q2927.625,100.332 2927.375,100.0977 Q2927.125,99.8789 2927.0156,99.2695 Q2926.9531,98.8477 2926.7344,98.6289 Q2926.3438,98.1914 2925.625,97.9258 Q2924.9063,97.6602 2924.1875,97.6602 Q2923.2813,97.6602 2922.5313,98.0508 Q2921.7813,98.4414 2921.2031,99.332 Q2920.625,100.207 2920.625,101.4102 L2920.625,102.707 Q2920.625,104.1602 2921.6719,105.1289 Q2922.7344,106.0977 2924.5938,106.0977 Q2925.7031,106.0977 2926.4844,105.7852 Q2926.9219,105.6133 2927.4375,105.0977 Q2927.75,104.7852 2927.9219,104.6914 Q2928.0938,104.5977 2928.3281,104.5977 Q2928.7188,104.5977 2929.0156,104.9102 Q2929.3281,105.207 2929.3281,105.6133 Q2929.3281,106.0195 2928.9219,106.4883 Q2928.3281,107.1758 2927.3906,107.5664 Q2926.125,108.0977 2924.6094,108.0977 Q2922.8281,108.0977 2921.4063,107.3633 Q2920.25,106.7695 2919.4375,105.5039 Q2918.625,104.2383 2918.625,102.7539 L2918.625,101.3945 Q2918.625,99.832 2919.3438,98.4883 Q2920.0781,97.1289 2921.3594,96.3945 Q2922.6563,95.6602 2924.1094,95.6602 Q2924.9688,95.6602 2925.7188,95.8633 Q2926.4844,96.0664 2927.1406,96.4727 Z " fill="#000000"/><text fill="#000000" font-family="sans-serif" font-size="20" font-style="italic" lengthAdjust="spacing" textLength="117" x="3043.5" y="97.1563">«Repository»</text><text fill="#000000" font-family="sans-serif" font-size="20" lengthAdjust="spacing" textLength="310" x="2947" y="122.3125">InMemoryShowProposalRepository</text><line style="stroke:#181818;stroke-width:0.5;" x1="2845" x2="3324" y1="131.707" y2="131.707"/><line style="stroke:#181818;stroke-width:0.5;" x1="2845" x2="3324" y1="139.707" y2="139.707"/><ellipse cx="2855" cy="157.7852" fill="#84BE84" rx="3" ry="3" style="stroke:#038048;stroke-width:1.0;"/><text fill="#000000" font-family="sans-serif" font-size="20" lengthAdjust="spacing" textLength="454" x="2865" y="164.4688">findAllTestingProposals() : Iterable&lt;ShowProposal&gt;</text></g><!--class InMemoryRepositoryFactory--><g id="elem_InMemoryRepositoryFactory"><rect codeLine="57" fill="#F1F1F1" height="126.625" id="InMemoryRepositoryFactory" rx="2.5" ry="2.5" style="stroke:#181818;stroke-width:0.5;" width="367" x="2256" y="51.3945"/><ellipse cx="2310" cy="81.5508" fill="#ADD1B2" rx="12" ry="12" style="stroke:#181818;stroke-width:1.0;"/><path d="M2312.1406,76.4727 Q2312.3281,76.2227 2312.5469,76.0977 Q2312.7656,75.957 2313.0156,75.957 Q2313.4531,75.957 2313.7344,76.2695 Q2314.0156,76.5664 2314.0156,77.2852 L2314.0156,78.9883 Q2314.0156,79.707 2313.7344,80.0195 Q2313.4531,80.332 2313.0156,80.332 Q2312.625,80.332 2312.375,80.0977 Q2312.125,79.8789 2312.0156,79.2695 Q2311.9531,78.8477 2311.7344,78.6289 Q2311.3438,78.1914 2310.625,77.9258 Q2309.9063,77.6602 2309.1875,77.6602 Q2308.2813,77.6602 2307.5313,78.0508 Q2306.7813,78.4414 2306.2031,79.332 Q2305.625,80.207 2305.625,81.4102 L2305.625,82.707 Q2305.625,84.1602 2306.6719,85.1289 Q2307.7344,86.0977 2309.5938,86.0977 Q2310.7031,86.0977 2311.4844,85.7852 Q2311.9219,85.6133 2312.4375,85.0977 Q2312.75,84.7852 2312.9219,84.6914 Q2313.0938,84.5977 2313.3281,84.5977 Q2313.7188,84.5977 2314.0156,84.9102 Q2314.3281,85.207 2314.3281,85.6133 Q2314.3281,86.0195 2313.9219,86.4883 Q2313.3281,87.1758 2312.3906,87.5664 Q2311.125,88.0977 2309.6094,88.0977 Q2307.8281,88.0977 2306.4063,87.3633 Q2305.25,86.7695 2304.4375,85.5039 Q2303.625,84.2383 2303.625,82.7539 L2303.625,81.3945 Q2303.625,79.832 2304.3438,78.4883 Q2305.0781,77.1289 2306.3594,76.3945 Q2307.6563,75.6602 2309.1094,75.6602 Q2309.9688,75.6602 2310.7188,75.8633 Q2311.4844,76.0664 2312.1406,76.4727 Z " fill="#000000"/><text fill="#000000" font-family="sans-serif" font-size="20" font-style="italic" lengthAdjust="spacing" textLength="88" x="2413" y="77.1563">«Factory»</text><text fill="#000000" font-family="sans-serif" font-size="20" lengthAdjust="spacing" textLength="250" x="2332" y="102.3125">InMemoryRepositoryFactory</text><line style="stroke:#181818;stroke-width:0.5;" x1="2257" x2="2622" y1="111.707" y2="111.707"/><line style="stroke:#181818;stroke-width:0.5;" x1="2257" x2="2622" y1="119.707" y2="119.707"/><rect fill="#F24D5C" height="6" style="stroke:#C82930;stroke-width:1.0;" width="6" x="2264" y="134.7852"/><text fill="#000000" font-family="sans-serif" font-size="20" lengthAdjust="spacing" textLength="264" x="2277" y="144.4688">InMemoryRepositoryFactory()</text><ellipse cx="2267" cy="162.9414" fill="#84BE84" rx="3" ry="3" style="stroke:#038048;stroke-width:1.0;"/><text fill="#000000" font-family="sans-serif" font-size="20" lengthAdjust="spacing" textLength="340" x="2277" y="169.625">proposals() : ShowProposalRepository</text></g><!--class PersistenceContext--><g id="elem_PersistenceContext"><rect codeLine="64" fill="#F1F1F1" height="76.3125" id="PersistenceContext" rx="2.5" ry="2.5" style="stroke:#181818;stroke-width:0.5;" width="309" x="1087" y="201.8945"/><ellipse cx="1152" cy="219.4727" fill="#ADD1B2" rx="12" ry="12" style="stroke:#181818;stroke-width:1.0;"/><path d="M1154.1406,214.3945 Q1154.3281,214.1445 1154.5469,214.0195 Q1154.7656,213.8789 1155.0156,213.8789 Q1155.4531,213.8789 1155.7344,214.1914 Q1156.0156,214.4883 1156.0156,215.207 L1156.0156,216.9102 Q1156.0156,217.6289 1155.7344,217.9414 Q1155.4531,218.2539 1155.0156,218.2539 Q1154.625,218.2539 1154.375,218.0195 Q1154.125,217.8008 1154.0156,217.1914 Q1153.9531,216.7695 1153.7344,216.5508 Q1153.3438,216.1133 1152.625,215.8477 Q1151.9063,215.582 1151.1875,215.582 Q1150.2813,215.582 1149.5313,215.9727 Q1148.7813,216.3633 1148.2031,217.2539 Q1147.625,218.1289 1147.625,219.332 L1147.625,220.6289 Q1147.625,222.082 1148.6719,223.0508 Q1149.7344,224.0195 1151.5938,224.0195 Q1152.7031,224.0195 1153.4844,223.707 Q1153.9219,223.5352 1154.4375,223.0195 Q1154.75,222.707 1154.9219,222.6133 Q1155.0938,222.5195 1155.3281,222.5195 Q1155.7188,222.5195 1156.0156,222.832 Q1156.3281,223.1289 1156.3281,223.5352 Q1156.3281,223.9414 1155.9219,224.4102 Q1155.3281,225.0977 1154.3906,225.4883 Q1153.125,226.0195 1151.6094,226.0195 Q1149.8281,226.0195 1148.4063,225.2852 Q1147.25,224.6914 1146.4375,223.4258 Q1145.625,222.1602 1145.625,220.6758 L1145.625,219.3164 Q1145.625,217.7539 1146.3438,216.4102 Q1147.0781,215.0508 1148.3594,214.3164 Q1149.6563,213.582 1151.1094,213.582 Q1151.9688,213.582 1152.7188,213.7852 Q1153.4844,213.9883 1154.1406,214.3945 Z " fill="#000000"/><text fill="#000000" font-family="sans-serif" font-size="20" lengthAdjust="spacing" textLength="170" x="1174" y="227.6563">PersistenceContext</text><line style="stroke:#181818;stroke-width:0.5;" x1="1088" x2="1395" y1="237.0508" y2="237.0508"/><line style="stroke:#181818;stroke-width:0.5;" x1="1088" x2="1395" y1="245.0508" y2="245.0508"/><text fill="#000000" font-family="sans-serif" font-size="20" lengthAdjust="spacing" textLength="297" x="1093" y="269.8125">repositories() : RepositoryFactory</text></g><!--link ShowProposal to Figure--><g id="link_ShowProposal_Figure"><path codeLine="71" d="M4399.08,385.8945 C4433.65,385.8945 4473.29,385.8945 4504.51,385.8945 " fill="none" id="ShowProposal-to-Figure" style="stroke:#181818;stroke-width:1.0;"/><polygon fill="#181818" points="4509.84,385.8945,4500.84,381.8945,4504.84,385.8945,4500.84,389.8945,4509.84,385.8945" style="stroke:#181818;stroke-width:1.0;"/><text fill="#000000" font-family="sans-serif" font-size="20" lengthAdjust="spacing" textLength="49" x="4430" y="380.6563">figure</text><text fill="#000000" font-family="sans-serif" font-size="20" lengthAdjust="spacing" textLength="31" x="4471.1903" y="408.0835">0..*</text></g><!--link RepositoryFactory to ShowProposalRepository--><g id="link_RepositoryFactory_ShowProposalRepository"><path codeLine="73" d="M3268.26,380.5745 C3368.26,381.4945 3493.49,382.6445 3601.81,383.6445 " fill="none" id="RepositoryFactory-to-ShowProposalRepository" style="stroke:#181818;stroke-width:1.0;stroke-dasharray:7.0,7.0;"/><polygon fill="#181818" points="3606.96,383.6945,3598.0063,379.5919,3601.9603,383.6374,3597.9149,387.5914,3606.96,383.6945" style="stroke:#181818;stroke-width:1.0;"/><text fill="#000000" font-family="sans-serif" font-size="20" lengthAdjust="spacing" textLength="100" x="3417" y="376.6563">proposals()</text></g><!--link ShowProposalRepository to ShowProposal--><g id="link_ShowProposalRepository_ShowProposal"><path codeLine="75" d="M4088.15,385.8945 C4140.08,385.8945 4191.66,385.8945 4232.72,385.8945 " fill="none" id="ShowProposalRepository-to-ShowProposal" style="stroke:#181818;stroke-width:1.0;"/><polygon fill="#181818" points="4237.93,385.8945,4228.93,381.8945,4232.93,385.8945,4228.93,389.8945,4237.93,385.8945" style="stroke:#181818;stroke-width:1.0;"/><text fill="#000000" font-family="sans-serif" font-size="20" lengthAdjust="spacing" textLength="86" x="4121" y="380.6563">proposals</text><text fill="#000000" font-family="sans-serif" font-size="20" lengthAdjust="spacing" textLength="31" x="4198.9742" y="407.6785">0..*</text></g><!--link AddFigureToProposalUI to AddFigureToProposalController--><g id="link_AddFigureToProposalUI_AddFigureToProposalController"><path codeLine="77" d="M266.12,339.8945 C284.86,339.8945 304.87,339.8945 325.49,339.8945 " fill="none" id="AddFigureToProposalUI-to-AddFigureToProposalController" style="stroke:#181818;stroke-width:1.0;stroke-dasharray:7.0,7.0;"/><polygon fill="#181818" points="330.74,339.8945,321.74,335.8945,325.74,339.8945,321.74,343.8945,330.74,339.8945" style="stroke:#181818;stroke-width:1.0;"/></g><!--link AddFigureToProposalController to RepositoryFactory--><g id="link_AddFigureToProposalController_RepositoryFactory"><path codeLine="78" d="M904.41,342.7445 C1306.25,347.0045 2060.95,355.9545 2704,368.8945 C2766.33,370.1445 2834.41,371.8445 2895.48,373.4745 " fill="none" id="AddFigureToProposalController-to-RepositoryFactory" style="stroke:#181818;stroke-width:1.0;stroke-dasharray:7.0,7.0;"/><polygon fill="#181818" points="2900.62,373.6145,2891.7379,369.3591,2895.622,373.4717,2891.5094,377.3559,2900.62,373.6145" style="stroke:#181818;stroke-width:1.0;"/><text fill="#000000" font-family="sans-serif" font-size="20" lengthAdjust="spacing" textLength="100" x="1803.5" y="346.6563">proposals()</text></g><!--link AddFigureToProposalController to ShowProposalRepository--><g id="link_AddFigureToProposalController_ShowProposalRepository"><path codeLine="79" d="M714.51,416.0545 C831.6,501.0745 1038.92,626.8945 1240.5,626.8945 C1240.5,626.8945 1240.5,626.8945 3085.5,626.8945 C3332.96,626.8945 3605.45,509.6445 3747.66,438.7145 " fill="none" id="AddFigureToProposalController-to-ShowProposalRepository" style="stroke:#181818;stroke-width:1.0;stroke-dasharray:7.0,7.0;"/><polygon fill="#181818" points="3752.24,436.4145,3742.4007,436.8492,3747.765,438.6449,3745.9693,444.0091,3752.24,436.4145" style="stroke:#181818;stroke-width:1.0;"/><text fill="#000000" font-family="sans-serif" font-size="20" lengthAdjust="spacing" textLength="100" x="2068" y="621.6563">proposals()</text></g><!--link AddFigureToProposalController to PersistenceContext--><g id="link_AddFigureToProposalController_PersistenceContext"><path codeLine="80" d="M904.01,293.9945 C965.12,284.1645 1027.54,274.1345 1081.77,265.4145 " fill="none" id="AddFigureToProposalController-to-PersistenceContext" style="stroke:#181818;stroke-width:1.0;stroke-dasharray:7.0,7.0;"/><polygon fill="#181818" points="1086.99,264.5745,1077.4654,262.0682,1082.0546,265.3756,1078.7472,269.9649,1086.99,264.5745" style="stroke:#181818;stroke-width:1.0;"/><text fill="#000000" font-family="sans-serif" font-size="20" lengthAdjust="spacing" textLength="117" x="937" y="267.6563">repositories()</text></g><!--link PersistenceContext to JpaRepositoryFactory--><g id="link_PersistenceContext_JpaRepositoryFactory"><path codeLine="83" d="M1330.55,278.0045 C1427.2,319.8345 1584.12,387.7445 1700.7,438.1945 " fill="none" id="PersistenceContext-to-JpaRepositoryFactory" style="stroke:#181818;stroke-width:1.0;stroke-dasharray:7.0,7.0;"/><polygon fill="#181818" points="1705.52,440.2845,1698.8505,433.0376,1700.9317,438.2977,1695.6716,440.3789,1705.52,440.2845" style="stroke:#181818;stroke-width:1.0;"/><text fill="#000000" font-family="sans-serif" font-size="20" lengthAdjust="spacing" textLength="208" x="1429" y="316.6563">JpaRepositoryFactory()</text></g><!--link PersistenceContext to InMemoryRepositoryFactory--><g id="link_PersistenceContext_InMemoryRepositoryFactory"><path codeLine="84" d="M1396.19,210.6045 C1406.93,208.9045 1417.62,207.3145 1428,205.8945 C1713.8,166.9145 2047.43,140.5745 2250.77,126.6445 " fill="none" id="PersistenceContext-to-InMemoryRepositoryFactory" style="stroke:#181818;stroke-width:1.0;stroke-dasharray:7.0,7.0;"/><polygon fill="#181818" points="2255.85,126.2945,2246.5968,122.9214,2250.8618,126.6376,2247.1456,130.9026,2255.85,126.2945" style="stroke:#181818;stroke-width:1.0;"/><text fill="#000000" font-family="sans-serif" font-size="20" lengthAdjust="spacing" textLength="264" x="1721.5" y="137.6563">InMemoryRepositoryFactory()</text></g><!--link PersistenceContext to RepositoryFactory--><g id="link_PersistenceContext_RepositoryFactory"><path codeLine="85" d="M1396.26,230.3045 C1679.33,215.8445 2300.97,198.9845 2814,289.8945 C2845.78,295.5245 2878.93,304.1045 2910.69,313.7445 " fill="none" id="PersistenceContext-to-RepositoryFactory" style="stroke:#181818;stroke-width:1.0;stroke-dasharray:7.0,7.0;"/><polygon fill="#181818" points="2915.77,315.3045,2908.3253,308.8565,2910.9868,313.8482,2905.9951,316.5096,2915.77,315.3045" style="stroke:#181818;stroke-width:1.0;"/><text fill="#000000" font-family="sans-serif" font-size="20" lengthAdjust="spacing" textLength="100" x="2068" y="217.6563">proposals()</text></g><!--link JpaRepositoryFactory to RepositoryFactory--><g id="link_JpaRepositoryFactory_RepositoryFactory"><path codeLine="87" d="M2037.38,471.9345 C2089.48,463.5745 2146.38,455.1645 2199,448.8945 C2432.19,421.0945 2701.33,401.5845 2880.9,390.3445 " fill="none" id="JpaRepositoryFactory-to-RepositoryFactory" style="stroke:#181818;stroke-width:1.0;stroke-dasharray:7.0,7.0;"/><polygon fill="none" points="2880.58,383.3445,2900.98,389.0945,2881.45,397.3245,2880.58,383.3445" style="stroke:#181818;stroke-width:1.0;"/><text fill="#000000" font-family="sans-serif" font-size="20" lengthAdjust="spacing" textLength="100" x="2389.5" y="398.6563">proposals()</text></g><!--link JpaRepositoryFactory to JpaShowProposalRepository--><g id="link_JpaRepositoryFactory_JpaShowProposalRepository"><path codeLine="88" d="M2037.28,507.9645 C2086.87,509.0645 2141.38,510.2845 2193.79,511.4445 " fill="none" id="JpaRepositoryFactory-to-JpaShowProposalRepository" style="stroke:#181818;stroke-width:1.0;stroke-dasharray:7.0,7.0;"/><polygon fill="#181818" points="2198.86,511.5645,2189.9538,507.3599,2193.8613,511.4503,2189.7709,515.3578,2198.86,511.5645" style="stroke:#181818;stroke-width:1.0;"/></g><!--link JpaShowProposalRepository to ShowProposalRepository--><g id="link_JpaShowProposalRepository_ShowProposalRepository"><path codeLine="90" d="M2680.42,519.8845 C2864.05,519.5245 3123.3,513.3445 3349,486.8945 C3437.53,476.5245 3533.75,458.5845 3617.77,440.6745 " fill="none" id="JpaShowProposalRepository-to-ShowProposalRepository" style="stroke:#181818;stroke-width:1.0;stroke-dasharray:7.0,7.0;"/><polygon fill="none" points="3616.43,433.8045,3637.46,436.4345,3619.38,447.4845,3616.43,433.8045" style="stroke:#181818;stroke-width:1.0;"/><text fill="#000000" font-family="sans-serif" font-size="20" lengthAdjust="spacing" textLength="218" x="2975.5" y="481.6563">findAllTestingProposals()</text></g><!--link InMemoryRepositoryFactory to RepositoryFactory--><g id="link_InMemoryRepositoryFactory_RepositoryFactory"><path codeLine="93" d="M2623.43,147.4245 C2685.36,161.6945 2754,181.1845 2814,206.8945 C2873.35,232.3245 2934.4,270.1545 2983.36,303.8645 " fill="none" id="InMemoryRepositoryFactory-to-RepositoryFactory" style="stroke:#181818;stroke-width:1.0;stroke-dasharray:7.0,7.0;"/><polygon fill="none" points="2987.42,298.1645,2999.81,315.3545,2979.41,309.6445,2987.42,298.1645" style="stroke:#181818;stroke-width:1.0;"/><text fill="#000000" font-family="sans-serif" font-size="20" lengthAdjust="spacing" textLength="100" x="2713" y="166.6563">proposals()</text></g><!--link InMemoryRepositoryFactory to InMemoryShowProposalRepository--><g id="link_InMemoryRepositoryFactory_InMemoryShowProposalRepository"><path codeLine="94" d="M2623.04,116.8845 C2690.12,117.6145 2767.19,118.4545 2838.85,119.2345 " fill="none" id="InMemoryRepositoryFactory-to-InMemoryShowProposalRepository" style="stroke:#181818;stroke-width:1.0;stroke-dasharray:7.0,7.0;"/><polygon fill="#181818" points="2844,119.2845,2835.0463,115.1819,2839.0003,119.2274,2834.9549,123.1814,2844,119.2845" style="stroke:#181818;stroke-width:1.0;"/></g><!--link InMemoryShowProposalRepository to ShowProposalRepository--><g id="link_InMemoryShowProposalRepository_ShowProposalRepository"><path codeLine="96" d="M3231.33,172.4845 C3360.11,217.1645 3547.73,282.2445 3681.87,328.7845 " fill="none" id="InMemoryShowProposalRepository-to-ShowProposalRepository" style="stroke:#181818;stroke-width:1.0;stroke-dasharray:7.0,7.0;"/><polygon fill="none" points="3684.24,322.1945,3700.84,335.3645,3679.65,335.4245,3684.24,322.1945" style="stroke:#181818;stroke-width:1.0;"/><text fill="#000000" font-family="sans-serif" font-size="20" lengthAdjust="spacing" textLength="218" x="3358" y="217.6563">findAllTestingProposals()</text></g><!--SRC=[nLLBRjim4Dtp50DtKQUfXQ1BmH1WD3MW0WM29Zu08uqTrZGfa4n_QSxJ4_G4kLYfZotA8YtLct9bMVFUl7d36Uaj4mLLTCTbjiKSSbpJHswMKfXRzXFXtHNHQ41Z6MIa0Y454evh0qQ2Ofi70pbJc1ac1I45pRPqWp2vbZlAn0HUNLS7dWW1UmxlFsCXDRE4Fy0DWkQamg1QqmpXza5-kr7IHbFkWERpzY5976HvBc7DHBxW_0wrOMApn-lf1SIGMcfwpt7kKYVamF1CF3BQR4kQDGgQNxtqitxqzE98OD6Hv2_oM94ZBEDKwmxCwlaW33EbdFbSIMcIvCbNKmrTiisZmY7GizFHLNhSg9ffaUSrsPtSQrcbbcsLLiQGFjDxUxcKv1pLQCOMOfdRXuxrPtMz1NEcpS9UuwzO9zTEpow1zZLDrzKVSUFbsqDFk_syy3XGeD8s7OeC8xOhUFIbe7ulFXRqNoVWR1-QIt98FFREpxp17Vj6NtUhuQHHJEnmPuFzRgNYK_Ns_rYsppxUjo3YNFC2tldTkca3of72xyOHf_RK3EkyFOrjojVs9QSllr_-e0Qqmub0TPq4DI6TDJMR9J2vYg8tasPkOgZdY92-Rr6KX3u0iMjBDuSJvMJhg73GXFWtM9dxv2OYf_TKYUzNr9Kzp32g-c4QJwlZenOJGZnH9TYx2kBGq0T8miCHdno30DsGiyGhEegYNyFO03G9B-CgNQ1LLSfW6uDxnxOZRDcOAawWdNQ4wXdOf6SNzHS0]--></g></svg>