<?xml version="1.0" encoding="UTF-8" standalone="no"?><svg xmlns="http://www.w3.org/2000/svg" xmlns:xlink="http://www.w3.org/1999/xlink" contentStyleType="text/css" height="1968px" preserveAspectRatio="none" style="width:2152px;height:1968px;background:#FFFFFF;" version="1.1" viewBox="0 0 2152 1968" width="2152px" zoomAndPan="magnify"><defs/><g><rect fill="#FFFFFF" height="1760.5625" style="stroke:#181818;stroke-width:1.0;" width="10" x="51" y="100.1563"/><rect fill="#FFFFFF" height="402.5625" style="stroke:#181818;stroke-width:1.0;" width="10" x="618" y="131.3125"/><rect fill="#FFFFFF" height="456.7188" style="stroke:#181818;stroke-width:1.0;" width="10" x="618" y="573.0313"/><rect fill="#FFFFFF" height="91.3125" style="stroke:#181818;stroke-width:1.0;" width="10" x="618" y="1068.9063"/><rect fill="#FFFFFF" height="661.3438" style="stroke:#181818;stroke-width:1.0;" width="10" x="618" y="1199.375"/><rect fill="#FFFFFF" height="274.0938" style="stroke:#181818;stroke-width:1.0;" width="10" x="899" y="220.625"/><rect fill="#FFFFFF" height="326.25" style="stroke:#181818;stroke-width:1.0;" width="10" x="899" y="664.3438"/><rect fill="#FFFFFF" height="583.0313" style="stroke:#181818;stroke-width:1.0;" width="10" x="899" y="1238.5313"/><rect fill="#FFFFFF" height="206.7813" style="stroke:#181818;stroke-width:1.0;" width="10" x="904" y="1285.6875"/><rect fill="#FFFFFF" height="39.1563" style="stroke:#181818;stroke-width:1.0;" width="10" x="1325" y="259.7813"/><rect fill="#FFFFFF" height="39.1563" style="stroke:#181818;stroke-width:1.0;" width="10" x="1325" y="703.5"/><rect fill="#FFFFFF" height="39.1563" style="stroke:#181818;stroke-width:1.0;" width="10" x="1325" y="1329.8438"/><rect fill="#FFFFFF" height="39.1563" style="stroke:#181818;stroke-width:1.0;" width="10" x="1462" y="338.0938"/><rect fill="#FFFFFF" height="39.1563" style="stroke:#181818;stroke-width:1.0;" width="10" x="1462" y="781.8125"/><rect fill="#FFFFFF" height="39.1563" style="stroke:#181818;stroke-width:1.0;" width="10" x="1462" y="1408.1563"/><rect fill="#FFFFFF" height="39.1563" style="stroke:#181818;stroke-width:1.0;" width="10" x="1621.5" y="416.4063"/><rect fill="#FFFFFF" height="39.1563" style="stroke:#181818;stroke-width:1.0;" width="10" x="1800" y="860.125"/><rect fill="#FFFFFF" height="218.7813" style="stroke:#181818;stroke-width:1.0;" width="10" x="1800" y="1563.625"/><rect fill="#FFFFFF" height="50.1563" style="stroke:#181818;stroke-width:1.0;" width="10" x="1805" y="1686.0938"/><line style="stroke:#181818;stroke-width:0.5;stroke-dasharray:5.0,5.0;" x1="56" x2="56" y1="90.1563" y2="1878.7188"/><line style="stroke:#181818;stroke-width:0.5;stroke-dasharray:5.0,5.0;" x1="622.5" x2="622.5" y1="90.1563" y2="1878.7188"/><line style="stroke:#181818;stroke-width:0.5;stroke-dasharray:5.0,5.0;" x1="903.5" x2="903.5" y1="174.3906" y2="1878.7188"/><line style="stroke:#181818;stroke-width:0.5;stroke-dasharray:5.0,5.0;" x1="1330" x2="1330" y1="90.1563" y2="1878.7188"/><line style="stroke:#181818;stroke-width:0.5;stroke-dasharray:5.0,5.0;" x1="1467" x2="1467" y1="90.1563" y2="1878.7188"/><line style="stroke:#181818;stroke-width:0.5;stroke-dasharray:5.0,5.0;" x1="1626" x2="1626" y1="90.1563" y2="1878.7188"/><line style="stroke:#181818;stroke-width:0.5;stroke-dasharray:5.0,5.0;" x1="1805" x2="1805" y1="90.1563" y2="1878.7188"/><line style="stroke:#181818;stroke-width:0.5;stroke-dasharray:5.0,5.0;" x1="2109.5" x2="2109.5" y1="1619.2813" y2="1878.7188"/><text fill="#000000" font-family="sans-serif" font-size="20" lengthAdjust="spacing" textLength="96" x="5" y="85.7617">DroneTech</text><ellipse cx="56" cy="13.5" fill="#E2E2F0" rx="8" ry="8" style="stroke:#181818;stroke-width:0.5;"/><path d="M56,21.5 L56,48.5 M43,29.5 L69,29.5 M56,48.5 L43,63.5 M56,48.5 L69,63.5 " fill="none" style="stroke:#181818;stroke-width:0.5;"/><text fill="#000000" font-family="sans-serif" font-size="20" lengthAdjust="spacing" textLength="96" x="5" y="1898.4805">DroneTech</text><ellipse cx="56" cy="1911.375" fill="#E2E2F0" rx="8" ry="8" style="stroke:#181818;stroke-width:0.5;"/><path d="M56,1919.375 L56,1946.375 M43,1927.375 L69,1927.375 M56,1946.375 L43,1961.375 M56,1946.375 L69,1961.375 " fill="none" style="stroke:#181818;stroke-width:0.5;"/><rect fill="#E2E2F0" height="39.1563" rx="2.5" ry="2.5" style="stroke:#181818;stroke-width:0.5;" width="123" x="561.5" y="50"/><text fill="#000000" font-family="sans-serif" font-size="20" lengthAdjust="spacing" textLength="109" x="568.5" y="77.7617">:ListDroneUI</text><rect fill="#E2E2F0" height="39.1563" rx="2.5" ry="2.5" style="stroke:#181818;stroke-width:0.5;" width="123" x="561.5" y="1877.7188"/><text fill="#000000" font-family="sans-serif" font-size="20" lengthAdjust="spacing" textLength="109" x="568.5" y="1905.4805">:ListDroneUI</text><rect fill="#E2E2F0" height="39.1563" rx="2.5" ry="2.5" style="stroke:#181818;stroke-width:0.5;" width="189" x="809.5" y="1877.7188"/><text fill="#000000" font-family="sans-serif" font-size="20" lengthAdjust="spacing" textLength="175" x="816.5" y="1905.4805">:ListDroneController</text><rect fill="#E2E2F0" height="39.1563" rx="2.5" ry="2.5" style="stroke:#181818;stroke-width:0.5;" width="124" x="1268" y="50"/><text fill="#000000" font-family="sans-serif" font-size="20" lengthAdjust="spacing" textLength="110" x="1275" y="77.7617">Repositories</text><rect fill="#E2E2F0" height="39.1563" rx="2.5" ry="2.5" style="stroke:#181818;stroke-width:0.5;" width="124" x="1268" y="1877.7188"/><text fill="#000000" font-family="sans-serif" font-size="20" lengthAdjust="spacing" textLength="110" x="1275" y="1905.4805">Repositories</text><rect fill="#E2E2F0" height="64.3125" rx="2.5" ry="2.5" style="stroke:#181818;stroke-width:0.5;" width="130" x="1402" y="24.8438"/><text fill="#000000" font-family="sans-serif" font-size="20" lengthAdjust="spacing" textLength="103" x="1415.5" y="52.6055">repositories</text><text fill="#000000" font-family="sans-serif" font-size="20" lengthAdjust="spacing" textLength="116" x="1409" y="77.7617">:Repositories</text><rect fill="#E2E2F0" height="64.3125" rx="2.5" ry="2.5" style="stroke:#181818;stroke-width:0.5;" width="130" x="1402" y="1877.7188"/><text fill="#000000" font-family="sans-serif" font-size="20" lengthAdjust="spacing" textLength="103" x="1415.5" y="1905.4805">repositories</text><text fill="#000000" font-family="sans-serif" font-size="20" lengthAdjust="spacing" textLength="116" x="1409" y="1930.6367">:Repositories</text><rect fill="#E2E2F0" height="64.3125" rx="2.5" ry="2.5" style="stroke:#181818;stroke-width:0.5;" width="169" x="1542" y="24.8438"/><text fill="#000000" font-family="sans-serif" font-size="20" lengthAdjust="spacing" textLength="148" x="1552.5" y="52.6055">modelRepository</text><text fill="#000000" font-family="sans-serif" font-size="20" lengthAdjust="spacing" textLength="155" x="1549" y="77.7617">:ModelRepository</text><rect fill="#E2E2F0" height="64.3125" rx="2.5" ry="2.5" style="stroke:#181818;stroke-width:0.5;" width="169" x="1542" y="1877.7188"/><text fill="#000000" font-family="sans-serif" font-size="20" lengthAdjust="spacing" textLength="148" x="1552.5" y="1905.4805">modelRepository</text><text fill="#000000" font-family="sans-serif" font-size="20" lengthAdjust="spacing" textLength="155" x="1549" y="1930.6367">:ModelRepository</text><rect fill="#E2E2F0" height="64.3125" rx="2.5" ry="2.5" style="stroke:#181818;stroke-width:0.5;" width="168" x="1721" y="24.8438"/><text fill="#000000" font-family="sans-serif" font-size="20" lengthAdjust="spacing" textLength="145" x="1732.5" y="52.6055">droneRepository</text><text fill="#000000" font-family="sans-serif" font-size="20" lengthAdjust="spacing" textLength="154" x="1728" y="77.7617">:DroneRepository</text><rect fill="#E2E2F0" height="64.3125" rx="2.5" ry="2.5" style="stroke:#181818;stroke-width:0.5;" width="168" x="1721" y="1877.7188"/><text fill="#000000" font-family="sans-serif" font-size="20" lengthAdjust="spacing" textLength="145" x="1732.5" y="1905.4805">droneRepository</text><text fill="#000000" font-family="sans-serif" font-size="20" lengthAdjust="spacing" textLength="154" x="1728" y="1930.6367">:DroneRepository</text><rect fill="#E2E2F0" height="64.3125" rx="2.5" ry="2.5" style="stroke:#181818;stroke-width:0.5;" width="73" x="2073.5" y="1877.7188"/><text fill="#000000" font-family="sans-serif" font-size="20" lengthAdjust="spacing" textLength="50" x="2085" y="1905.4805">drone</text><text fill="#000000" font-family="sans-serif" font-size="20" lengthAdjust="spacing" textLength="59" x="2080.5" y="1930.6367">:Drone</text><rect fill="#FFFFFF" height="1760.5625" style="stroke:#181818;stroke-width:1.0;" width="10" x="51" y="100.1563"/><rect fill="#FFFFFF" height="402.5625" style="stroke:#181818;stroke-width:1.0;" width="10" x="618" y="131.3125"/><rect fill="#FFFFFF" height="456.7188" style="stroke:#181818;stroke-width:1.0;" width="10" x="618" y="573.0313"/><rect fill="#FFFFFF" height="91.3125" style="stroke:#181818;stroke-width:1.0;" width="10" x="618" y="1068.9063"/><rect fill="#FFFFFF" height="661.3438" style="stroke:#181818;stroke-width:1.0;" width="10" x="618" y="1199.375"/><rect fill="#FFFFFF" height="274.0938" style="stroke:#181818;stroke-width:1.0;" width="10" x="899" y="220.625"/><rect fill="#FFFFFF" height="326.25" style="stroke:#181818;stroke-width:1.0;" width="10" x="899" y="664.3438"/><rect fill="#FFFFFF" height="583.0313" style="stroke:#181818;stroke-width:1.0;" width="10" x="899" y="1238.5313"/><rect fill="#FFFFFF" height="206.7813" style="stroke:#181818;stroke-width:1.0;" width="10" x="904" y="1285.6875"/><rect fill="#FFFFFF" height="39.1563" style="stroke:#181818;stroke-width:1.0;" width="10" x="1325" y="259.7813"/><rect fill="#FFFFFF" height="39.1563" style="stroke:#181818;stroke-width:1.0;" width="10" x="1325" y="703.5"/><rect fill="#FFFFFF" height="39.1563" style="stroke:#181818;stroke-width:1.0;" width="10" x="1325" y="1329.8438"/><rect fill="#FFFFFF" height="39.1563" style="stroke:#181818;stroke-width:1.0;" width="10" x="1462" y="338.0938"/><rect fill="#FFFFFF" height="39.1563" style="stroke:#181818;stroke-width:1.0;" width="10" x="1462" y="781.8125"/><rect fill="#FFFFFF" height="39.1563" style="stroke:#181818;stroke-width:1.0;" width="10" x="1462" y="1408.1563"/><rect fill="#FFFFFF" height="39.1563" style="stroke:#181818;stroke-width:1.0;" width="10" x="1621.5" y="416.4063"/><rect fill="#FFFFFF" height="39.1563" style="stroke:#181818;stroke-width:1.0;" width="10" x="1800" y="860.125"/><rect fill="#FFFFFF" height="218.7813" style="stroke:#181818;stroke-width:1.0;" width="10" x="1800" y="1563.625"/><rect fill="#FFFFFF" height="50.1563" style="stroke:#181818;stroke-width:1.0;" width="10" x="1805" y="1686.0938"/><polygon fill="#181818" points="606,127.3125,616,131.3125,606,135.3125,610,131.3125" style="stroke:#181818;stroke-width:1.0;"/><line style="stroke:#181818;stroke-width:1.0;" x1="61" x2="612" y1="131.3125" y2="131.3125"/><text fill="#000000" font-family="sans-serif" font-size="20" font-weight="bold" lengthAdjust="spacing" textLength="11" x="68" y="124.918">1</text><text fill="#000000" font-family="sans-serif" font-size="20" lengthAdjust="spacing" textLength="234" x="83" y="124.918">asks to list an active drone</text><polygon fill="#181818" points="797.5,166.4688,807.5,170.4688,797.5,174.4688,801.5,170.4688" style="stroke:#181818;stroke-width:1.0;"/><line style="stroke:#181818;stroke-width:1.0;stroke-dasharray:2.0,2.0;" x1="628" x2="803.5" y1="170.4688" y2="170.4688"/><text fill="#000000" font-family="sans-serif" font-size="20" font-weight="bold" lengthAdjust="spacing" textLength="11" x="635" y="164.0742">2</text><text fill="#000000" font-family="sans-serif" font-size="20" lengthAdjust="spacing" textLength="70" x="650" y="164.0742">create()</text><rect fill="#E2E2F0" height="39.1563" rx="2.5" ry="2.5" style="stroke:#181818;stroke-width:0.5;" width="189" x="809.5" y="139.3125"/><text fill="#000000" font-family="sans-serif" font-size="20" lengthAdjust="spacing" textLength="175" x="816.5" y="167.0742">:ListDroneController</text><polygon fill="#181818" points="887,216.625,897,220.625,887,224.625,891,220.625" style="stroke:#181818;stroke-width:1.0;"/><line style="stroke:#181818;stroke-width:1.0;" x1="628" x2="893" y1="220.625" y2="220.625"/><text fill="#000000" font-family="sans-serif" font-size="20" font-weight="bold" lengthAdjust="spacing" textLength="11" x="635" y="214.2305">3</text><text fill="#000000" font-family="sans-serif" font-size="20" lengthAdjust="spacing" textLength="180" x="650" y="214.2305">getDroneModelList()</text><polygon fill="#181818" points="1313,255.7813,1323,259.7813,1313,263.7813,1317,259.7813" style="stroke:#181818;stroke-width:1.0;"/><line style="stroke:#181818;stroke-width:1.0;" x1="909" x2="1319" y1="259.7813" y2="259.7813"/><text fill="#000000" font-family="sans-serif" font-size="20" font-weight="bold" lengthAdjust="spacing" textLength="11" x="916" y="253.3867">4</text><text fill="#000000" font-family="sans-serif" font-size="20" lengthAdjust="spacing" textLength="116" x="931" y="253.3867">getInstance()</text><polygon fill="#181818" points="920,294.9375,910,298.9375,920,302.9375,916,298.9375" style="stroke:#181818;stroke-width:1.0;"/><line style="stroke:#181818;stroke-width:1.0;stroke-dasharray:2.0,2.0;" x1="914" x2="1329" y1="298.9375" y2="298.9375"/><text fill="#000000" font-family="sans-serif" font-size="20" font-weight="bold" lengthAdjust="spacing" textLength="11" x="926" y="292.543">5</text><text fill="#000000" font-family="sans-serif" font-size="20" lengthAdjust="spacing" textLength="103" x="941" y="292.543">repositories</text><polygon fill="#181818" points="1450,334.0938,1460,338.0938,1450,342.0938,1454,338.0938" style="stroke:#181818;stroke-width:1.0;"/><line style="stroke:#181818;stroke-width:1.0;" x1="909" x2="1456" y1="338.0938" y2="338.0938"/><text fill="#000000" font-family="sans-serif" font-size="20" font-weight="bold" lengthAdjust="spacing" textLength="11" x="916" y="331.6992">6</text><text fill="#000000" font-family="sans-serif" font-size="20" lengthAdjust="spacing" textLength="191" x="931" y="331.6992">getModelRepository()</text><polygon fill="#181818" points="920,373.25,910,377.25,920,381.25,916,377.25" style="stroke:#181818;stroke-width:1.0;"/><line style="stroke:#181818;stroke-width:1.0;stroke-dasharray:2.0,2.0;" x1="914" x2="1466" y1="377.25" y2="377.25"/><text fill="#000000" font-family="sans-serif" font-size="20" font-weight="bold" lengthAdjust="spacing" textLength="11" x="926" y="370.8555">7</text><text fill="#000000" font-family="sans-serif" font-size="20" lengthAdjust="spacing" textLength="148" x="941" y="370.8555">modelRepository</text><polygon fill="#181818" points="1609.5,412.4063,1619.5,416.4063,1609.5,420.4063,1613.5,416.4063" style="stroke:#181818;stroke-width:1.0;"/><line style="stroke:#181818;stroke-width:1.0;" x1="909" x2="1615.5" y1="416.4063" y2="416.4063"/><text fill="#000000" font-family="sans-serif" font-size="20" font-weight="bold" lengthAdjust="spacing" textLength="11" x="916" y="410.0117">8</text><text fill="#000000" font-family="sans-serif" font-size="20" lengthAdjust="spacing" textLength="127" x="931" y="410.0117">getModelList()</text><polygon fill="#181818" points="920,451.5625,910,455.5625,920,459.5625,916,455.5625" style="stroke:#181818;stroke-width:1.0;"/><line style="stroke:#181818;stroke-width:1.0;stroke-dasharray:2.0,2.0;" x1="914" x2="1625.5" y1="455.5625" y2="455.5625"/><text fill="#000000" font-family="sans-serif" font-size="20" font-weight="bold" lengthAdjust="spacing" textLength="11" x="926" y="449.168">9</text><text fill="#000000" font-family="sans-serif" font-size="20" lengthAdjust="spacing" textLength="84" x="941" y="449.168">modelList</text><polygon fill="#181818" points="639,490.7188,629,494.7188,639,498.7188,635,494.7188" style="stroke:#181818;stroke-width:1.0;"/><line style="stroke:#181818;stroke-width:1.0;stroke-dasharray:2.0,2.0;" x1="633" x2="903" y1="494.7188" y2="494.7188"/><text fill="#000000" font-family="sans-serif" font-size="20" font-weight="bold" lengthAdjust="spacing" textLength="22" x="645" y="488.3242">10</text><text fill="#000000" font-family="sans-serif" font-size="20" lengthAdjust="spacing" textLength="84" x="671" y="488.3242">modelList</text><polygon fill="#181818" points="72,529.875,62,533.875,72,537.875,68,533.875" style="stroke:#181818;stroke-width:1.0;"/><line style="stroke:#181818;stroke-width:1.0;stroke-dasharray:2.0,2.0;" x1="66" x2="622" y1="533.875" y2="533.875"/><text fill="#000000" font-family="sans-serif" font-size="20" font-weight="bold" lengthAdjust="spacing" textLength="22" x="78" y="527.4805">11</text><text fill="#000000" font-family="sans-serif" font-size="20" lengthAdjust="spacing" textLength="492" x="104" y="527.4805">shows the list off all drone models and ask to select one</text><polygon fill="#181818" points="606,569.0313,616,573.0313,606,577.0313,610,573.0313" style="stroke:#181818;stroke-width:1.0;"/><line style="stroke:#181818;stroke-width:1.0;" x1="61" x2="612" y1="573.0313" y2="573.0313"/><text fill="#000000" font-family="sans-serif" font-size="20" font-weight="bold" lengthAdjust="spacing" textLength="22" x="68" y="566.6367">12</text><text fill="#000000" font-family="sans-serif" font-size="20" lengthAdjust="spacing" textLength="90" x="94" y="566.6367">selets one</text><line style="stroke:#181818;stroke-width:1.0;stroke-dasharray:2.0,2.0;" x1="628" x2="670" y1="612.1875" y2="612.1875"/><line style="stroke:#181818;stroke-width:1.0;stroke-dasharray:2.0,2.0;" x1="670" x2="670" y1="612.1875" y2="625.1875"/><line style="stroke:#181818;stroke-width:1.0;stroke-dasharray:2.0,2.0;" x1="629" x2="670" y1="625.1875" y2="625.1875"/><polygon fill="#181818" points="639,621.1875,629,625.1875,639,629.1875,635,625.1875" style="stroke:#181818;stroke-width:1.0;"/><text fill="#000000" font-family="sans-serif" font-size="20" font-weight="bold" lengthAdjust="spacing" textLength="22" x="635" y="605.793">13</text><text fill="#000000" font-family="sans-serif" font-size="20" lengthAdjust="spacing" textLength="215" x="661" y="605.793">keepModel(droneModel)</text><polygon fill="#181818" points="887,660.3438,897,664.3438,887,668.3438,891,664.3438" style="stroke:#181818;stroke-width:1.0;"/><line style="stroke:#181818;stroke-width:1.0;" x1="628" x2="893" y1="664.3438" y2="664.3438"/><text fill="#000000" font-family="sans-serif" font-size="20" font-weight="bold" lengthAdjust="spacing" textLength="22" x="635" y="657.9492">14</text><text fill="#000000" font-family="sans-serif" font-size="20" lengthAdjust="spacing" textLength="179" x="661" y="657.9492">getActiveDroneList()</text><polygon fill="#181818" points="1313,699.5,1323,703.5,1313,707.5,1317,703.5" style="stroke:#181818;stroke-width:1.0;"/><line style="stroke:#181818;stroke-width:1.0;" x1="909" x2="1319" y1="703.5" y2="703.5"/><text fill="#000000" font-family="sans-serif" font-size="20" font-weight="bold" lengthAdjust="spacing" textLength="22" x="916" y="697.1055">15</text><text fill="#000000" font-family="sans-serif" font-size="20" lengthAdjust="spacing" textLength="116" x="942" y="697.1055">getInstance()</text><polygon fill="#181818" points="920,738.6563,910,742.6563,920,746.6563,916,742.6563" style="stroke:#181818;stroke-width:1.0;"/><line style="stroke:#181818;stroke-width:1.0;stroke-dasharray:2.0,2.0;" x1="914" x2="1329" y1="742.6563" y2="742.6563"/><text fill="#000000" font-family="sans-serif" font-size="20" font-weight="bold" lengthAdjust="spacing" textLength="22" x="926" y="736.2617">16</text><text fill="#000000" font-family="sans-serif" font-size="20" lengthAdjust="spacing" textLength="103" x="952" y="736.2617">repositories</text><polygon fill="#181818" points="1450,777.8125,1460,781.8125,1450,785.8125,1454,781.8125" style="stroke:#181818;stroke-width:1.0;"/><line style="stroke:#181818;stroke-width:1.0;" x1="909" x2="1456" y1="781.8125" y2="781.8125"/><text fill="#000000" font-family="sans-serif" font-size="20" font-weight="bold" lengthAdjust="spacing" textLength="22" x="916" y="775.418">17</text><text fill="#000000" font-family="sans-serif" font-size="20" lengthAdjust="spacing" textLength="190" x="942" y="775.418">getDroneRepository()</text><polygon fill="#181818" points="920,816.9688,910,820.9688,920,824.9688,916,820.9688" style="stroke:#181818;stroke-width:1.0;"/><line style="stroke:#181818;stroke-width:1.0;stroke-dasharray:2.0,2.0;" x1="914" x2="1466" y1="820.9688" y2="820.9688"/><text fill="#000000" font-family="sans-serif" font-size="20" font-weight="bold" lengthAdjust="spacing" textLength="22" x="926" y="814.5742">18</text><text fill="#000000" font-family="sans-serif" font-size="20" lengthAdjust="spacing" textLength="145" x="952" y="814.5742">droneRepository</text><polygon fill="#181818" points="1788,856.125,1798,860.125,1788,864.125,1792,860.125" style="stroke:#181818;stroke-width:1.0;"/><line style="stroke:#181818;stroke-width:1.0;" x1="909" x2="1794" y1="860.125" y2="860.125"/><text fill="#000000" font-family="sans-serif" font-size="20" font-weight="bold" lengthAdjust="spacing" textLength="22" x="916" y="853.7305">19</text><text fill="#000000" font-family="sans-serif" font-size="20" lengthAdjust="spacing" textLength="126" x="942" y="853.7305">getDroneList()</text><polygon fill="#181818" points="920,895.2813,910,899.2813,920,903.2813,916,899.2813" style="stroke:#181818;stroke-width:1.0;"/><line style="stroke:#181818;stroke-width:1.0;stroke-dasharray:2.0,2.0;" x1="914" x2="1804" y1="899.2813" y2="899.2813"/><text fill="#000000" font-family="sans-serif" font-size="20" font-weight="bold" lengthAdjust="spacing" textLength="22" x="926" y="892.8867">20</text><text fill="#000000" font-family="sans-serif" font-size="20" lengthAdjust="spacing" textLength="81" x="952" y="892.8867">droneList</text><line style="stroke:#181818;stroke-width:1.0;stroke-dasharray:2.0,2.0;" x1="909" x2="951" y1="938.4375" y2="938.4375"/><line style="stroke:#181818;stroke-width:1.0;stroke-dasharray:2.0,2.0;" x1="951" x2="951" y1="938.4375" y2="951.4375"/><line style="stroke:#181818;stroke-width:1.0;stroke-dasharray:2.0,2.0;" x1="910" x2="951" y1="951.4375" y2="951.4375"/><polygon fill="#181818" points="920,947.4375,910,951.4375,920,955.4375,916,951.4375" style="stroke:#181818;stroke-width:1.0;"/><text fill="#000000" font-family="sans-serif" font-size="20" font-weight="bold" lengthAdjust="spacing" textLength="22" x="916" y="932.043">21</text><text fill="#000000" font-family="sans-serif" font-size="20" lengthAdjust="spacing" textLength="376" x="942" y="932.043">getActiveDroneList(droneList, droneModel)</text><polygon fill="#181818" points="639,986.5938,629,990.5938,639,994.5938,635,990.5938" style="stroke:#181818;stroke-width:1.0;"/><line style="stroke:#181818;stroke-width:1.0;stroke-dasharray:2.0,2.0;" x1="633" x2="903" y1="990.5938" y2="990.5938"/><text fill="#000000" font-family="sans-serif" font-size="20" font-weight="bold" lengthAdjust="spacing" textLength="22" x="645" y="984.1992">22</text><text fill="#000000" font-family="sans-serif" font-size="20" lengthAdjust="spacing" textLength="135" x="671" y="984.1992">activeDroneList</text><polygon fill="#181818" points="72,1025.75,62,1029.75,72,1033.75,68,1029.75" style="stroke:#181818;stroke-width:1.0;"/><line style="stroke:#181818;stroke-width:1.0;stroke-dasharray:2.0,2.0;" x1="66" x2="622" y1="1029.75" y2="1029.75"/><text fill="#000000" font-family="sans-serif" font-size="20" font-weight="bold" lengthAdjust="spacing" textLength="22" x="78" y="1023.3555">23</text><text fill="#000000" font-family="sans-serif" font-size="20" lengthAdjust="spacing" textLength="507" x="104" y="1023.3555">shows the list off all activate drones and ask to select one</text><polygon fill="#181818" points="606,1064.9063,616,1068.9063,606,1072.9063,610,1068.9063" style="stroke:#181818;stroke-width:1.0;"/><line style="stroke:#181818;stroke-width:1.0;" x1="61" x2="612" y1="1068.9063" y2="1068.9063"/><text fill="#000000" font-family="sans-serif" font-size="20" font-weight="bold" lengthAdjust="spacing" textLength="22" x="68" y="1062.5117">24</text><text fill="#000000" font-family="sans-serif" font-size="20" lengthAdjust="spacing" textLength="355" x="94" y="1062.5117">selets one and ask to list in the inventory</text><line style="stroke:#181818;stroke-width:1.0;stroke-dasharray:2.0,2.0;" x1="628" x2="670" y1="1108.0625" y2="1108.0625"/><line style="stroke:#181818;stroke-width:1.0;stroke-dasharray:2.0,2.0;" x1="670" x2="670" y1="1108.0625" y2="1121.0625"/><line style="stroke:#181818;stroke-width:1.0;stroke-dasharray:2.0,2.0;" x1="629" x2="670" y1="1121.0625" y2="1121.0625"/><polygon fill="#181818" points="639,1117.0625,629,1121.0625,639,1125.0625,635,1121.0625" style="stroke:#181818;stroke-width:1.0;"/><text fill="#000000" font-family="sans-serif" font-size="20" font-weight="bold" lengthAdjust="spacing" textLength="22" x="635" y="1101.668">25</text><text fill="#000000" font-family="sans-serif" font-size="20" lengthAdjust="spacing" textLength="231" x="661" y="1101.668">keepDrone(activateDrone)</text><polygon fill="#181818" points="72,1156.2188,62,1160.2188,72,1164.2188,68,1160.2188" style="stroke:#181818;stroke-width:1.0;"/><line style="stroke:#181818;stroke-width:1.0;stroke-dasharray:2.0,2.0;" x1="66" x2="622" y1="1160.2188" y2="1160.2188"/><text fill="#000000" font-family="sans-serif" font-size="20" font-weight="bold" lengthAdjust="spacing" textLength="22" x="78" y="1153.8242">26</text><text fill="#000000" font-family="sans-serif" font-size="20" lengthAdjust="spacing" textLength="188" x="104" y="1153.8242">requests confirmation</text><polygon fill="#181818" points="606,1195.375,616,1199.375,606,1203.375,610,1199.375" style="stroke:#181818;stroke-width:1.0;"/><line style="stroke:#181818;stroke-width:1.0;" x1="61" x2="612" y1="1199.375" y2="1199.375"/><text fill="#000000" font-family="sans-serif" font-size="20" font-weight="bold" lengthAdjust="spacing" textLength="22" x="68" y="1192.9805">27</text><text fill="#000000" font-family="sans-serif" font-size="20" lengthAdjust="spacing" textLength="74" x="94" y="1192.9805">confirms</text><polygon fill="#181818" points="887,1234.5313,897,1238.5313,887,1242.5313,891,1238.5313" style="stroke:#181818;stroke-width:1.0;"/><line style="stroke:#181818;stroke-width:1.0;" x1="628" x2="893" y1="1238.5313" y2="1238.5313"/><text fill="#000000" font-family="sans-serif" font-size="20" font-weight="bold" lengthAdjust="spacing" textLength="22" x="635" y="1232.1367">28</text><text fill="#000000" font-family="sans-serif" font-size="20" lengthAdjust="spacing" textLength="212" x="661" y="1232.1367">listDrone(activateDrone)</text><line style="stroke:#181818;stroke-width:1.0;" x1="909" x2="956" y1="1272.6875" y2="1272.6875"/><line style="stroke:#181818;stroke-width:1.0;" x1="956" x2="956" y1="1272.6875" y2="1285.6875"/><line style="stroke:#181818;stroke-width:1.0;" x1="915" x2="956" y1="1285.6875" y2="1285.6875"/><polygon fill="#181818" points="925,1281.6875,915,1285.6875,925,1289.6875,921,1285.6875" style="stroke:#181818;stroke-width:1.0;"/><text fill="#000000" font-family="sans-serif" font-size="20" font-weight="bold" lengthAdjust="spacing" textLength="22" x="921" y="1266.293">29</text><text fill="#000000" font-family="sans-serif" font-size="20" lengthAdjust="spacing" textLength="190" x="947" y="1266.293">getDroneRepository()</text><polygon fill="#181818" points="1313,1325.8438,1323,1329.8438,1313,1333.8438,1317,1329.8438" style="stroke:#181818;stroke-width:1.0;"/><line style="stroke:#181818;stroke-width:1.0;" x1="914" x2="1319" y1="1329.8438" y2="1329.8438"/><text fill="#000000" font-family="sans-serif" font-size="20" font-weight="bold" lengthAdjust="spacing" textLength="22" x="921" y="1323.4492">30</text><text fill="#000000" font-family="sans-serif" font-size="20" lengthAdjust="spacing" textLength="116" x="947" y="1323.4492">getInstance()</text><polygon fill="#181818" points="925,1365,915,1369,925,1373,921,1369" style="stroke:#181818;stroke-width:1.0;"/><line style="stroke:#181818;stroke-width:1.0;stroke-dasharray:2.0,2.0;" x1="919" x2="1329" y1="1369" y2="1369"/><text fill="#000000" font-family="sans-serif" font-size="20" font-weight="bold" lengthAdjust="spacing" textLength="22" x="931" y="1362.6055">31</text><text fill="#000000" font-family="sans-serif" font-size="20" lengthAdjust="spacing" textLength="103" x="957" y="1362.6055">repositories</text><polygon fill="#181818" points="1450,1404.1563,1460,1408.1563,1450,1412.1563,1454,1408.1563" style="stroke:#181818;stroke-width:1.0;"/><line style="stroke:#181818;stroke-width:1.0;" x1="914" x2="1456" y1="1408.1563" y2="1408.1563"/><text fill="#000000" font-family="sans-serif" font-size="20" font-weight="bold" lengthAdjust="spacing" textLength="22" x="921" y="1401.7617">32</text><text fill="#000000" font-family="sans-serif" font-size="20" lengthAdjust="spacing" textLength="190" x="947" y="1401.7617">getDroneRepository()</text><polygon fill="#181818" points="925,1443.3125,915,1447.3125,925,1451.3125,921,1447.3125" style="stroke:#181818;stroke-width:1.0;"/><line style="stroke:#181818;stroke-width:1.0;stroke-dasharray:2.0,2.0;" x1="919" x2="1466" y1="1447.3125" y2="1447.3125"/><text fill="#000000" font-family="sans-serif" font-size="20" font-weight="bold" lengthAdjust="spacing" textLength="22" x="931" y="1440.918">33</text><text fill="#000000" font-family="sans-serif" font-size="20" lengthAdjust="spacing" textLength="145" x="957" y="1440.918">droneRepository</text><line style="stroke:#181818;stroke-width:1.0;stroke-dasharray:2.0,2.0;" x1="914" x2="956" y1="1491.4688" y2="1491.4688"/><line style="stroke:#181818;stroke-width:1.0;stroke-dasharray:2.0,2.0;" x1="956" x2="956" y1="1491.4688" y2="1504.4688"/><line style="stroke:#181818;stroke-width:1.0;stroke-dasharray:2.0,2.0;" x1="909" x2="956" y1="1504.4688" y2="1504.4688"/><polygon fill="#181818" points="919,1500.4688,909,1504.4688,919,1508.4688,915,1504.4688" style="stroke:#181818;stroke-width:1.0;"/><text fill="#000000" font-family="sans-serif" font-size="20" font-weight="bold" lengthAdjust="spacing" textLength="22" x="921" y="1485.0742">34</text><text fill="#000000" font-family="sans-serif" font-size="20" lengthAdjust="spacing" textLength="145" x="947" y="1485.0742">droneRepository</text><polygon fill="#181818" points="1788,1559.625,1798,1563.625,1788,1567.625,1792,1563.625" style="stroke:#181818;stroke-width:1.0;"/><line style="stroke:#181818;stroke-width:1.0;" x1="909" x2="1794" y1="1563.625" y2="1563.625"/><text fill="#000000" font-family="sans-serif" font-size="20" font-weight="bold" lengthAdjust="spacing" textLength="22" x="916" y="1557.2305">35</text><text fill="#000000" font-family="sans-serif" font-size="20" lengthAdjust="spacing" textLength="212" x="942" y="1557.2305">listDrone(activateDrone)</text><polygon fill="#181818" points="2061.5,1598.7813,2071.5,1602.7813,2061.5,1606.7813,2065.5,1602.7813" style="stroke:#181818;stroke-width:1.0;"/><line style="stroke:#181818;stroke-width:1.0;stroke-dasharray:2.0,2.0;" x1="1810" x2="2067.5" y1="1602.7813" y2="1602.7813"/><text fill="#000000" font-family="sans-serif" font-size="20" font-weight="bold" lengthAdjust="spacing" textLength="22" x="1817" y="1596.3867">36</text><text fill="#000000" font-family="sans-serif" font-size="20" lengthAdjust="spacing" textLength="159" x="1843" y="1596.3867">list(activateDrone)</text><rect fill="#E2E2F0" height="64.3125" rx="2.5" ry="2.5" style="stroke:#181818;stroke-width:0.5;" width="73" x="2073.5" y="1571.625"/><text fill="#000000" font-family="sans-serif" font-size="20" lengthAdjust="spacing" textLength="50" x="2085" y="1599.3867">drone</text><text fill="#000000" font-family="sans-serif" font-size="20" lengthAdjust="spacing" textLength="59" x="2080.5" y="1624.543">:Drone</text><line style="stroke:#181818;stroke-width:1.0;" x1="1810" x2="1857" y1="1673.0938" y2="1673.0938"/><line style="stroke:#181818;stroke-width:1.0;" x1="1857" x2="1857" y1="1673.0938" y2="1686.0938"/><line style="stroke:#181818;stroke-width:1.0;" x1="1816" x2="1857" y1="1686.0938" y2="1686.0938"/><polygon fill="#181818" points="1826,1682.0938,1816,1686.0938,1826,1690.0938,1822,1686.0938" style="stroke:#181818;stroke-width:1.0;"/><text fill="#000000" font-family="sans-serif" font-size="20" font-weight="bold" lengthAdjust="spacing" textLength="22" x="1822" y="1666.6992">37</text><text fill="#000000" font-family="sans-serif" font-size="20" lengthAdjust="spacing" textLength="255" x="1848" y="1666.6992">validateDrone(activateDrone)</text><line style="stroke:#181818;stroke-width:1.0;stroke-dasharray:2.0,2.0;" x1="1815" x2="1857" y1="1735.25" y2="1735.25"/><line style="stroke:#181818;stroke-width:1.0;stroke-dasharray:2.0,2.0;" x1="1857" x2="1857" y1="1735.25" y2="1748.25"/><line style="stroke:#181818;stroke-width:1.0;stroke-dasharray:2.0,2.0;" x1="1810" x2="1857" y1="1748.25" y2="1748.25"/><polygon fill="#181818" points="1820,1744.25,1810,1748.25,1820,1752.25,1816,1748.25" style="stroke:#181818;stroke-width:1.0;"/><text fill="#000000" font-family="sans-serif" font-size="20" font-weight="bold" lengthAdjust="spacing" textLength="22" x="1822" y="1728.8555">38</text><text fill="#000000" font-family="sans-serif" font-size="20" lengthAdjust="spacing" textLength="34" x="1848" y="1728.8555">true</text><polygon fill="#181818" points="920,1778.4063,910,1782.4063,920,1786.4063,916,1782.4063" style="stroke:#181818;stroke-width:1.0;"/><line style="stroke:#181818;stroke-width:1.0;stroke-dasharray:2.0,2.0;" x1="914" x2="1804" y1="1782.4063" y2="1782.4063"/><text fill="#000000" font-family="sans-serif" font-size="20" font-weight="bold" lengthAdjust="spacing" textLength="22" x="926" y="1776.0117">39</text><text fill="#000000" font-family="sans-serif" font-size="20" lengthAdjust="spacing" textLength="34" x="952" y="1776.0117">true</text><polygon fill="#181818" points="639,1817.5625,629,1821.5625,639,1825.5625,635,1821.5625" style="stroke:#181818;stroke-width:1.0;"/><line style="stroke:#181818;stroke-width:1.0;stroke-dasharray:2.0,2.0;" x1="633" x2="903" y1="1821.5625" y2="1821.5625"/><text fill="#000000" font-family="sans-serif" font-size="20" font-weight="bold" lengthAdjust="spacing" textLength="22" x="645" y="1815.168">40</text><text fill="#000000" font-family="sans-serif" font-size="20" lengthAdjust="spacing" textLength="34" x="671" y="1815.168">true</text><polygon fill="#181818" points="67,1856.7188,57,1860.7188,67,1864.7188,63,1860.7188" style="stroke:#181818;stroke-width:1.0;"/><line style="stroke:#181818;stroke-width:1.0;stroke-dasharray:2.0,2.0;" x1="61" x2="622" y1="1860.7188" y2="1860.7188"/><text fill="#000000" font-family="sans-serif" font-size="20" font-weight="bold" lengthAdjust="spacing" textLength="22" x="73" y="1854.3242">41</text><text fill="#000000" font-family="sans-serif" font-size="20" lengthAdjust="spacing" textLength="236" x="99" y="1854.3242">displays operation success</text><!--SRC=[fLTDRnen4BtxLunoIO8IgUgHGwKgq0efWGh8hLBax0vWuRNfsYHDbHzVhvSrtczlihU5cJSVdlV6g_PC76XA4owZFSOGuuOUkVuXXLwnVmXVlv1BLTX08eMCTgbC47HwH7B-vq2ZFTtYIhznX1GZJSMM-mPgHsFvoiGMDfGh98GUjHJ7v1bJGYvtB4ROIAcVvLz28orJk9YaKk0Qezq5K0NJoPeO9CqYTg12myNudYbjRHvdrk9nrcPmPwf99UUOMiExzVA-RBh4WrJCH6MehCbo-cknAjkadirlCMvsULhDvZ_lf-l5lEoSo1YvStap_W_bNop4msBobC6KVUEiX9BlfFoBzPqivss-XSV9RZ6Vagp7x8Lgj7qbS7hC2zn-Cvs4iR7TAz0IkEaYK07M0y4YEWS7OveFtcCGRWrGrkdHo815AHghgsjIiygDZCaMyyEoZScEpbX3o-F2sgE4ZiU2co3sTF8eCw7CT4ROWL-AaSy2z3nvWABeCVZZqkaSOoLIU3tdQSihgypKe0AzoGqgrOjzBheoveFgzX88wa115g_qdgaf5UsurbUjYtDxdjMaY1PQOL2qlBA2V_qnFFms7fnucF5wR2HOlXfAxp3djDniW7AUCpeFfmpHuupv6V4LSgFZuDEzEucA1a2JgcIWMdM2zcYAXTaZ7koHNyLECwuxjUMxbI-hC0rZqjt8OI8I81o3nA9V83f5eR8iUXFk4O9sybVs5FaCuOkAYgtcbT92SeVj5c5JzWxF8tDSe7Pbt8hgIDi-QYx03RHDQvt-j0n2keXFXbBUkTjy-bXVfZZ9mpMJsaUo4PcmqPbuGU6ceihmAhDjrLU5bNsx9hNQKlnpH6NYHb9iM9fGpQGWpPhaPtioLwHDR4hImOjBP5C-FT9HJ77EZo0kzjzsWbnggZ3avjCXPi5-8K8N33RiYXIWZ9yuZ4x1_51xFYIc7xXLXVUhDOiWZFVtzw5zWD0h3XbowDxow6Lns0efhG_x9GMZKOxU1LntFoStXXVAMLmuXi24hRg6V5qxxCTxJxyTE0bPeZN4NYHltNMxrtJrl0NCX39ruFJDB9y3fdO3W3f64IhLi0c8zvfzz_u7]--></g></svg>