<?xml version="1.0" encoding="us-ascii" standalone="no"?><svg xmlns="http://www.w3.org/2000/svg" xmlns:xlink="http://www.w3.org/1999/xlink" contentStyleType="text/css" height="1545.3px" preserveAspectRatio="none" style="width:1331px;height:1545px;background:#FFFFFF;" version="1.1" viewBox="0 0 1331 1545" width="1331.1px" zoomAndPan="magnify"><defs/><g><rect fill="#FFFFFF" height="1370.5154" style="stroke:#181818;stroke-width:0.9;" width="9" x="34.65" y="84.259"/><rect fill="#FFFFFF" height="292.7162" style="stroke:#181818;stroke-width:0.9;" width="9" x="382.05" y="105.2209"/><rect fill="#FFFFFF" height="333.1811" style="stroke:#181818;stroke-width:0.9;" width="9" x="382.05" y="426.099"/><rect fill="#FFFFFF" height="68.0238" style="stroke:#181818;stroke-width:0.9;" width="9" x="382.05" y="787.442"/><rect fill="#FFFFFF" height="571.1467" style="stroke:#181818;stroke-width:0.9;" width="9" x="382.05" y="883.6277"/><rect fill="#FFFFFF" height="197.1334" style="stroke:#181818;stroke-width:0.9;" width="9" x="553.05" y="172.6418"/><rect fill="#FFFFFF" height="236.9953" style="stroke:#181818;stroke-width:0.9;" width="9" x="553.05" y="494.1229"/><rect fill="#FFFFFF" height="514.8229" style="stroke:#181818;stroke-width:0.9;" width="9" x="553.05" y="911.7896"/><rect fill="#FFFFFF" height="150.7096" style="stroke:#181818;stroke-width:0.9;" width="9" x="557.55" y="947.1516"/><rect fill="#FFFFFF" height="28.1619" style="stroke:#181818;stroke-width:0.9;" width="9" x="810.45" y="200.8037"/><rect fill="#FFFFFF" height="28.1619" style="stroke:#181818;stroke-width:0.9;" width="9" x="810.45" y="522.2848"/><rect fill="#FFFFFF" height="28.1619" style="stroke:#181818;stroke-width:0.9;" width="9" x="810.45" y="979.8135"/><rect fill="#FFFFFF" height="28.1619" style="stroke:#181818;stroke-width:0.9;" width="9" x="904.95" y="257.1275"/><rect fill="#FFFFFF" height="28.1619" style="stroke:#181818;stroke-width:0.9;" width="9" x="904.95" y="578.6086"/><rect fill="#FFFFFF" height="28.1619" style="stroke:#181818;stroke-width:0.9;" width="9" x="904.95" y="1036.1373"/><rect fill="#FFFFFF" height="28.1619" style="stroke:#181818;stroke-width:0.9;" width="9" x="1013.4" y="313.4514"/><rect fill="#FFFFFF" height="28.1619" style="stroke:#181818;stroke-width:0.9;" width="9" x="1134.45" y="634.9324"/><rect fill="#FFFFFF" height="243.6275" style="stroke:#181818;stroke-width:0.9;" width="9" x="1134.45" y="1154.823"/><rect fill="#FFFFFF" height="117.7857" style="stroke:#181818;stroke-width:0.9;" width="9" x="1138.95" y="1246.2029"/><rect fill="#FFFFFF" height="38.0619" style="stroke:#181818;stroke-width:0.9;" width="9" x="1143.45" y="1286.0648"/><line style="stroke:#181818;stroke-width:0.45;stroke-dasharray:5.0,5.0;" x1="38.7" x2="38.7" y1="75.259" y2="1470.9744"/><line style="stroke:#181818;stroke-width:0.45;stroke-dasharray:5.0,5.0;" x1="386.1" x2="386.1" y1="75.259" y2="1470.9744"/><line style="stroke:#181818;stroke-width:0.45;stroke-dasharray:5.0,5.0;" x1="557.1" x2="557.1" y1="141.0504" y2="1470.9744"/><line style="stroke:#181818;stroke-width:0.45;stroke-dasharray:5.0,5.0;" x1="814.5" x2="814.5" y1="75.259" y2="1470.9744"/><line style="stroke:#181818;stroke-width:0.45;stroke-dasharray:5.0,5.0;" x1="909" x2="909" y1="75.259" y2="1470.9744"/><line style="stroke:#181818;stroke-width:0.45;stroke-dasharray:5.0,5.0;" x1="1017.9" x2="1017.9" y1="75.259" y2="1470.9744"/><line style="stroke:#181818;stroke-width:0.45;stroke-dasharray:5.0,5.0;" x1="1138.5" x2="1138.5" y1="75.259" y2="1470.9744"/><line style="stroke:#181818;stroke-width:0.45;stroke-dasharray:5.0,5.0;" x1="1299.6" x2="1299.6" y1="1199.032" y2="1470.9744"/><text fill="#000000" font-family="sans-serif" font-size="12.6" lengthAdjust="spacing" textLength="63.9" x="4.5" y="72.0967">DroneTech</text><ellipse cx="39.15" cy="12.15" fill="#E2E2F0" rx="7.2" ry="7.2" style="stroke:#181818;stroke-width:0.45;"/><path d="M39.15,19.35 L39.15,43.65 M27.45,26.55 L50.85,26.55 M39.15,43.65 L27.45,57.15 M39.15,43.65 L50.85,57.15 " fill="none" style="stroke:#181818;stroke-width:0.45;"/><text fill="#000000" font-family="sans-serif" font-size="12.6" lengthAdjust="spacing" textLength="63.9" x="4.5" y="1483.6711">DroneTech</text><ellipse cx="39.15" cy="1494.4834" fill="#E2E2F0" rx="7.2" ry="7.2" style="stroke:#181818;stroke-width:0.45;"/><path d="M39.15,1501.6834 L39.15,1525.9834 M27.45,1508.8834 L50.85,1508.8834 M39.15,1525.9834 L27.45,1539.4834 M39.15,1525.9834 L50.85,1539.4834 " fill="none" style="stroke:#181818;stroke-width:0.45;"/><rect fill="#E2E2F0" height="29.359" rx="2.25" ry="2.25" style="stroke:#181818;stroke-width:0.45;" width="81.9" x="345.6" y="45"/><text fill="#000000" font-family="sans-serif" font-size="12.6" lengthAdjust="spacing" textLength="69.3" x="351.9" y="64.8967">:ListDroneUI</text><rect fill="#E2E2F0" height="29.359" rx="2.25" ry="2.25" style="stroke:#181818;stroke-width:0.45;" width="81.9" x="345.6" y="1470.0744"/><text fill="#000000" font-family="sans-serif" font-size="12.6" lengthAdjust="spacing" textLength="69.3" x="351.9" y="1489.9711">:ListDroneUI</text><rect fill="#E2E2F0" height="29.359" rx="2.25" ry="2.25" style="stroke:#181818;stroke-width:0.45;" width="126.9" x="494.1" y="1470.0744"/><text fill="#000000" font-family="sans-serif" font-size="12.6" lengthAdjust="spacing" textLength="114.3" x="500.4" y="1489.9711">:ListDroneController</text><rect fill="#E2E2F0" height="29.359" rx="2.25" ry="2.25" style="stroke:#181818;stroke-width:0.45;" width="83.7" x="773.1" y="45"/><text fill="#000000" font-family="sans-serif" font-size="12.6" lengthAdjust="spacing" textLength="71.1" x="779.4" y="64.8967">Repositories</text><rect fill="#E2E2F0" height="29.359" rx="2.25" ry="2.25" style="stroke:#181818;stroke-width:0.45;" width="83.7" x="773.1" y="1470.0744"/><text fill="#000000" font-family="sans-serif" font-size="12.6" lengthAdjust="spacing" textLength="71.1" x="779.4" y="1489.9711">Repositories</text><rect fill="#E2E2F0" height="46.118" rx="2.25" ry="2.25" style="stroke:#181818;stroke-width:0.45;" width="87.3" x="865.8" y="28.241"/><text fill="#000000" font-family="sans-serif" font-size="12.6" lengthAdjust="spacing" textLength="66.6" x="876.15" y="48.1377">repositories</text><text fill="#000000" font-family="sans-serif" font-size="12.6" lengthAdjust="spacing" textLength="74.7" x="872.1" y="64.8967">:Repositories</text><rect fill="#E2E2F0" height="46.118" rx="2.25" ry="2.25" style="stroke:#181818;stroke-width:0.45;" width="87.3" x="865.8" y="1470.0744"/><text fill="#000000" font-family="sans-serif" font-size="12.6" lengthAdjust="spacing" textLength="66.6" x="876.15" y="1489.9711">repositories</text><text fill="#000000" font-family="sans-serif" font-size="12.6" lengthAdjust="spacing" textLength="74.7" x="872.1" y="1506.7301">:Repositories</text><rect fill="#E2E2F0" height="46.118" rx="2.25" ry="2.25" style="stroke:#181818;stroke-width:0.45;" width="111.6" x="962.1" y="28.241"/><text fill="#000000" font-family="sans-serif" font-size="12.6" lengthAdjust="spacing" textLength="95.4" x="970.2" y="48.1377">modelRepository</text><text fill="#000000" font-family="sans-serif" font-size="12.6" lengthAdjust="spacing" textLength="99" x="968.4" y="64.8967">:ModelRepository</text><rect fill="#E2E2F0" height="46.118" rx="2.25" ry="2.25" style="stroke:#181818;stroke-width:0.45;" width="111.6" x="962.1" y="1470.0744"/><text fill="#000000" font-family="sans-serif" font-size="12.6" lengthAdjust="spacing" textLength="95.4" x="970.2" y="1489.9711">modelRepository</text><text fill="#000000" font-family="sans-serif" font-size="12.6" lengthAdjust="spacing" textLength="99" x="968.4" y="1506.7301">:ModelRepository</text><rect fill="#E2E2F0" height="46.118" rx="2.25" ry="2.25" style="stroke:#181818;stroke-width:0.45;" width="112.5" x="1082.7" y="28.241"/><text fill="#000000" font-family="sans-serif" font-size="12.6" lengthAdjust="spacing" textLength="94.5" x="1091.7" y="48.1377">droneRepository</text><text fill="#000000" font-family="sans-serif" font-size="12.6" lengthAdjust="spacing" textLength="99.9" x="1089" y="64.8967">:DroneRepository</text><rect fill="#E2E2F0" height="46.118" rx="2.25" ry="2.25" style="stroke:#181818;stroke-width:0.45;" width="112.5" x="1082.7" y="1470.0744"/><text fill="#000000" font-family="sans-serif" font-size="12.6" lengthAdjust="spacing" textLength="94.5" x="1091.7" y="1489.9711">droneRepository</text><text fill="#000000" font-family="sans-serif" font-size="12.6" lengthAdjust="spacing" textLength="99.9" x="1089" y="1506.7301">:DroneRepository</text><rect fill="#E2E2F0" height="46.118" rx="2.25" ry="2.25" style="stroke:#181818;stroke-width:0.45;" width="51.3" x="1274.4" y="1470.0744"/><text fill="#000000" font-family="sans-serif" font-size="12.6" lengthAdjust="spacing" textLength="33.3" x="1283.4" y="1489.9711">drone</text><text fill="#000000" font-family="sans-serif" font-size="12.6" lengthAdjust="spacing" textLength="38.7" x="1280.7" y="1506.7301">:Drone</text><rect fill="#FFFFFF" height="1370.5154" style="stroke:#181818;stroke-width:0.9;" width="9" x="34.65" y="84.259"/><rect fill="#FFFFFF" height="292.7162" style="stroke:#181818;stroke-width:0.9;" width="9" x="382.05" y="105.2209"/><rect fill="#FFFFFF" height="333.1811" style="stroke:#181818;stroke-width:0.9;" width="9" x="382.05" y="426.099"/><rect fill="#FFFFFF" height="68.0238" style="stroke:#181818;stroke-width:0.9;" width="9" x="382.05" y="787.442"/><rect fill="#FFFFFF" height="571.1467" style="stroke:#181818;stroke-width:0.9;" width="9" x="382.05" y="883.6277"/><rect fill="#FFFFFF" height="197.1334" style="stroke:#181818;stroke-width:0.9;" width="9" x="553.05" y="172.6418"/><rect fill="#FFFFFF" height="236.9953" style="stroke:#181818;stroke-width:0.9;" width="9" x="553.05" y="494.1229"/><rect fill="#FFFFFF" height="514.8229" style="stroke:#181818;stroke-width:0.9;" width="9" x="553.05" y="911.7896"/><rect fill="#FFFFFF" height="150.7096" style="stroke:#181818;stroke-width:0.9;" width="9" x="557.55" y="947.1516"/><rect fill="#FFFFFF" height="28.1619" style="stroke:#181818;stroke-width:0.9;" width="9" x="810.45" y="200.8037"/><rect fill="#FFFFFF" height="28.1619" style="stroke:#181818;stroke-width:0.9;" width="9" x="810.45" y="522.2848"/><rect fill="#FFFFFF" height="28.1619" style="stroke:#181818;stroke-width:0.9;" width="9" x="810.45" y="979.8135"/><rect fill="#FFFFFF" height="28.1619" style="stroke:#181818;stroke-width:0.9;" width="9" x="904.95" y="257.1275"/><rect fill="#FFFFFF" height="28.1619" style="stroke:#181818;stroke-width:0.9;" width="9" x="904.95" y="578.6086"/><rect fill="#FFFFFF" height="28.1619" style="stroke:#181818;stroke-width:0.9;" width="9" x="904.95" y="1036.1373"/><rect fill="#FFFFFF" height="28.1619" style="stroke:#181818;stroke-width:0.9;" width="9" x="1013.4" y="313.4514"/><rect fill="#FFFFFF" height="28.1619" style="stroke:#181818;stroke-width:0.9;" width="9" x="1134.45" y="634.9324"/><rect fill="#FFFFFF" height="243.6275" style="stroke:#181818;stroke-width:0.9;" width="9" x="1134.45" y="1154.823"/><rect fill="#FFFFFF" height="117.7857" style="stroke:#181818;stroke-width:0.9;" width="9" x="1138.95" y="1246.2029"/><rect fill="#FFFFFF" height="38.0619" style="stroke:#181818;stroke-width:0.9;" width="9" x="1143.45" y="1286.0648"/><polygon fill="#181818" points="371.25,101.6209,380.25,105.2209,371.25,108.8209,374.85,105.2209" style="stroke:#181818;stroke-width:0.9;"/><line style="stroke:#181818;stroke-width:0.9;" x1="43.65" x2="376.65" y1="105.2209" y2="105.2209"/><text fill="#000000" font-family="sans-serif" font-size="11.7" font-weight="bold" lengthAdjust="spacing" textLength="6.3" x="49.95" y="100.4845">1</text><text fill="#000000" font-family="sans-serif" font-size="11.7" lengthAdjust="spacing" textLength="139.5" x="59.85" y="100.4845">asks to list an active drone</text><polygon fill="#181818" points="483.3,129.7828,492.3,133.3828,483.3,136.9828,486.9,133.3828" style="stroke:#181818;stroke-width:0.9;"/><line style="stroke:#181818;stroke-width:0.9;stroke-dasharray:2.0,2.0;" x1="391.05" x2="488.7" y1="133.3828" y2="133.3828"/><text fill="#000000" font-family="sans-serif" font-size="11.7" font-weight="bold" lengthAdjust="spacing" textLength="6.3" x="397.35" y="128.6464">2</text><text fill="#000000" font-family="sans-serif" font-size="11.7" lengthAdjust="spacing" textLength="39.6" x="407.25" y="128.6464">create()</text><rect fill="#E2E2F0" height="29.359" rx="2.25" ry="2.25" style="stroke:#181818;stroke-width:0.45;" width="126.9" x="494.1" y="112.4209"/><text fill="#000000" font-family="sans-serif" font-size="12.6" lengthAdjust="spacing" textLength="114.3" x="500.4" y="132.3176">:ListDroneController</text><polygon fill="#181818" points="542.25,169.0418,551.25,172.6418,542.25,176.2418,545.85,172.6418" style="stroke:#181818;stroke-width:0.9;"/><line style="stroke:#181818;stroke-width:0.9;" x1="391.05" x2="547.65" y1="172.6418" y2="172.6418"/><text fill="#000000" font-family="sans-serif" font-size="11.7" font-weight="bold" lengthAdjust="spacing" textLength="6.3" x="397.35" y="167.9054">3</text><text fill="#000000" font-family="sans-serif" font-size="11.7" lengthAdjust="spacing" textLength="104.4" x="407.25" y="167.9054">getDroneModelList()</text><polygon fill="#181818" points="799.65,197.2037,808.65,200.8037,799.65,204.4037,803.25,200.8037" style="stroke:#181818;stroke-width:0.9;"/><line style="stroke:#181818;stroke-width:0.9;" x1="562.05" x2="805.05" y1="200.8037" y2="200.8037"/><text fill="#000000" font-family="sans-serif" font-size="11.7" font-weight="bold" lengthAdjust="spacing" textLength="6.3" x="568.35" y="196.0673">4</text><text fill="#000000" font-family="sans-serif" font-size="11.7" lengthAdjust="spacing" textLength="67.5" x="578.25" y="196.0673">getInstance()</text><polygon fill="#181818" points="571.95,225.3656,562.95,228.9656,571.95,232.5656,568.35,228.9656" style="stroke:#181818;stroke-width:0.9;"/><line style="stroke:#181818;stroke-width:0.9;stroke-dasharray:2.0,2.0;" x1="566.55" x2="814.05" y1="228.9656" y2="228.9656"/><text fill="#000000" font-family="sans-serif" font-size="11.7" font-weight="bold" lengthAdjust="spacing" textLength="6.3" x="577.35" y="224.2292">5</text><text fill="#000000" font-family="sans-serif" font-size="11.7" lengthAdjust="spacing" textLength="60.3" x="587.25" y="224.2292">repositories</text><polygon fill="#181818" points="894.15,253.5275,903.15,257.1275,894.15,260.7275,897.75,257.1275" style="stroke:#181818;stroke-width:0.9;"/><line style="stroke:#181818;stroke-width:0.9;" x1="562.05" x2="899.55" y1="257.1275" y2="257.1275"/><text fill="#000000" font-family="sans-serif" font-size="11.7" font-weight="bold" lengthAdjust="spacing" textLength="6.3" x="568.35" y="252.3911">6</text><text fill="#000000" font-family="sans-serif" font-size="11.7" lengthAdjust="spacing" textLength="110.7" x="578.25" y="252.3911">getModelRepository()</text><polygon fill="#181818" points="571.95,281.6895,562.95,285.2895,571.95,288.8895,568.35,285.2895" style="stroke:#181818;stroke-width:0.9;"/><line style="stroke:#181818;stroke-width:0.9;stroke-dasharray:2.0,2.0;" x1="566.55" x2="908.55" y1="285.2895" y2="285.2895"/><text fill="#000000" font-family="sans-serif" font-size="11.7" font-weight="bold" lengthAdjust="spacing" textLength="6.3" x="577.35" y="280.553">7</text><text fill="#000000" font-family="sans-serif" font-size="11.7" lengthAdjust="spacing" textLength="87.3" x="587.25" y="280.553">modelRepository</text><polygon fill="#181818" points="1002.6,309.8514,1011.6,313.4514,1002.6,317.0514,1006.2,313.4514" style="stroke:#181818;stroke-width:0.9;"/><line style="stroke:#181818;stroke-width:0.9;" x1="562.05" x2="1008" y1="313.4514" y2="313.4514"/><text fill="#000000" font-family="sans-serif" font-size="11.7" font-weight="bold" lengthAdjust="spacing" textLength="6.3" x="568.35" y="308.7149">8</text><text fill="#000000" font-family="sans-serif" font-size="11.7" lengthAdjust="spacing" textLength="73.8" x="578.25" y="308.7149">getModelList()</text><polygon fill="#181818" points="571.95,338.0133,562.95,341.6133,571.95,345.2133,568.35,341.6133" style="stroke:#181818;stroke-width:0.9;"/><line style="stroke:#181818;stroke-width:0.9;stroke-dasharray:2.0,2.0;" x1="566.55" x2="1017" y1="341.6133" y2="341.6133"/><text fill="#000000" font-family="sans-serif" font-size="11.7" font-weight="bold" lengthAdjust="spacing" textLength="6.3" x="577.35" y="336.8769">9</text><text fill="#000000" font-family="sans-serif" font-size="11.7" lengthAdjust="spacing" textLength="50.4" x="587.25" y="336.8769">modelList</text><polygon fill="#181818" points="400.95,366.1752,391.95,369.7752,400.95,373.3752,397.35,369.7752" style="stroke:#181818;stroke-width:0.9;"/><line style="stroke:#181818;stroke-width:0.9;stroke-dasharray:2.0,2.0;" x1="395.55" x2="556.65" y1="369.7752" y2="369.7752"/><text fill="#000000" font-family="sans-serif" font-size="11.7" font-weight="bold" lengthAdjust="spacing" textLength="12.6" x="406.35" y="365.0388">10</text><text fill="#000000" font-family="sans-serif" font-size="11.7" lengthAdjust="spacing" textLength="50.4" x="422.55" y="365.0388">modelList</text><polygon fill="#181818" points="53.55,394.3371,44.55,397.9371,53.55,401.5371,49.95,397.9371" style="stroke:#181818;stroke-width:0.9;"/><line style="stroke:#181818;stroke-width:0.9;stroke-dasharray:2.0,2.0;" x1="48.15" x2="385.65" y1="397.9371" y2="397.9371"/><text fill="#000000" font-family="sans-serif" font-size="11.7" font-weight="bold" lengthAdjust="spacing" textLength="12.6" x="58.95" y="393.2007">11</text><text fill="#000000" font-family="sans-serif" font-size="11.7" lengthAdjust="spacing" textLength="292.5" x="75.15" y="393.2007">shows the list off all drone models and ask to select one</text><polygon fill="#181818" points="371.25,422.499,380.25,426.099,371.25,429.699,374.85,426.099" style="stroke:#181818;stroke-width:0.9;"/><line style="stroke:#181818;stroke-width:0.9;" x1="43.65" x2="376.65" y1="426.099" y2="426.099"/><text fill="#000000" font-family="sans-serif" font-size="11.7" font-weight="bold" lengthAdjust="spacing" textLength="12.6" x="49.95" y="421.3626">12</text><text fill="#000000" font-family="sans-serif" font-size="11.7" lengthAdjust="spacing" textLength="54" x="66.15" y="421.3626">selets one</text><line style="stroke:#181818;stroke-width:0.9;stroke-dasharray:2.0,2.0;" x1="391.05" x2="428.85" y1="454.2609" y2="454.2609"/><line style="stroke:#181818;stroke-width:0.9;stroke-dasharray:2.0,2.0;" x1="428.85" x2="428.85" y1="454.2609" y2="465.9609"/><line style="stroke:#181818;stroke-width:0.9;stroke-dasharray:2.0,2.0;" x1="391.95" x2="428.85" y1="465.9609" y2="465.9609"/><polygon fill="#181818" points="400.95,462.3609,391.95,465.9609,400.95,469.5609,397.35,465.9609" style="stroke:#181818;stroke-width:0.9;"/><text fill="#000000" font-family="sans-serif" font-size="11.7" font-weight="bold" lengthAdjust="spacing" textLength="12.6" x="397.35" y="449.5245">13</text><text fill="#000000" font-family="sans-serif" font-size="11.7" lengthAdjust="spacing" textLength="124.2" x="413.55" y="449.5245">keepModel(droneModel)</text><polygon fill="#181818" points="542.25,490.5229,551.25,494.1229,542.25,497.7229,545.85,494.1229" style="stroke:#181818;stroke-width:0.9;"/><line style="stroke:#181818;stroke-width:0.9;" x1="391.05" x2="547.65" y1="494.1229" y2="494.1229"/><text fill="#000000" font-family="sans-serif" font-size="11.7" font-weight="bold" lengthAdjust="spacing" textLength="12.6" x="397.35" y="489.3864">14</text><text fill="#000000" font-family="sans-serif" font-size="11.7" lengthAdjust="spacing" textLength="104.4" x="413.55" y="489.3864">getActiveDroneList()</text><polygon fill="#181818" points="799.65,518.6848,808.65,522.2848,799.65,525.8848,803.25,522.2848" style="stroke:#181818;stroke-width:0.9;"/><line style="stroke:#181818;stroke-width:0.9;" x1="562.05" x2="805.05" y1="522.2848" y2="522.2848"/><text fill="#000000" font-family="sans-serif" font-size="11.7" font-weight="bold" lengthAdjust="spacing" textLength="12.6" x="568.35" y="517.5483">15</text><text fill="#000000" font-family="sans-serif" font-size="11.7" lengthAdjust="spacing" textLength="67.5" x="584.55" y="517.5483">getInstance()</text><polygon fill="#181818" points="571.95,546.8467,562.95,550.4467,571.95,554.0467,568.35,550.4467" style="stroke:#181818;stroke-width:0.9;"/><line style="stroke:#181818;stroke-width:0.9;stroke-dasharray:2.0,2.0;" x1="566.55" x2="814.05" y1="550.4467" y2="550.4467"/><text fill="#000000" font-family="sans-serif" font-size="11.7" font-weight="bold" lengthAdjust="spacing" textLength="12.6" x="577.35" y="545.7103">16</text><text fill="#000000" font-family="sans-serif" font-size="11.7" lengthAdjust="spacing" textLength="60.3" x="593.55" y="545.7103">repositories</text><polygon fill="#181818" points="894.15,575.0086,903.15,578.6086,894.15,582.2086,897.75,578.6086" style="stroke:#181818;stroke-width:0.9;"/><line style="stroke:#181818;stroke-width:0.9;" x1="562.05" x2="899.55" y1="578.6086" y2="578.6086"/><text fill="#000000" font-family="sans-serif" font-size="11.7" font-weight="bold" lengthAdjust="spacing" textLength="12.6" x="568.35" y="573.8722">17</text><text fill="#000000" font-family="sans-serif" font-size="11.7" lengthAdjust="spacing" textLength="109.8" x="584.55" y="573.8722">getDroneRepository()</text><polygon fill="#181818" points="571.95,603.1705,562.95,606.7705,571.95,610.3705,568.35,606.7705" style="stroke:#181818;stroke-width:0.9;"/><line style="stroke:#181818;stroke-width:0.9;stroke-dasharray:2.0,2.0;" x1="566.55" x2="908.55" y1="606.7705" y2="606.7705"/><text fill="#000000" font-family="sans-serif" font-size="11.7" font-weight="bold" lengthAdjust="spacing" textLength="12.6" x="577.35" y="602.0341">18</text><text fill="#000000" font-family="sans-serif" font-size="11.7" lengthAdjust="spacing" textLength="84.6" x="593.55" y="602.0341">droneRepository</text><polygon fill="#181818" points="1123.65,631.3324,1132.65,634.9324,1123.65,638.5324,1127.25,634.9324" style="stroke:#181818;stroke-width:0.9;"/><line style="stroke:#181818;stroke-width:0.9;" x1="562.05" x2="1129.05" y1="634.9324" y2="634.9324"/><text fill="#000000" font-family="sans-serif" font-size="11.7" font-weight="bold" lengthAdjust="spacing" textLength="12.6" x="568.35" y="630.196">19</text><text fill="#000000" font-family="sans-serif" font-size="11.7" lengthAdjust="spacing" textLength="72.9" x="584.55" y="630.196">getDroneList()</text><polygon fill="#181818" points="571.95,659.4943,562.95,663.0943,571.95,666.6943,568.35,663.0943" style="stroke:#181818;stroke-width:0.9;"/><line style="stroke:#181818;stroke-width:0.9;stroke-dasharray:2.0,2.0;" x1="566.55" x2="1138.05" y1="663.0943" y2="663.0943"/><text fill="#000000" font-family="sans-serif" font-size="11.7" font-weight="bold" lengthAdjust="spacing" textLength="12.6" x="577.35" y="658.3579">20</text><text fill="#000000" font-family="sans-serif" font-size="11.7" lengthAdjust="spacing" textLength="47.7" x="593.55" y="658.3579">droneList</text><line style="stroke:#181818;stroke-width:0.9;stroke-dasharray:2.0,2.0;" x1="562.05" x2="599.85" y1="691.2563" y2="691.2563"/><line style="stroke:#181818;stroke-width:0.9;stroke-dasharray:2.0,2.0;" x1="599.85" x2="599.85" y1="691.2563" y2="702.9563"/><line style="stroke:#181818;stroke-width:0.9;stroke-dasharray:2.0,2.0;" x1="562.95" x2="599.85" y1="702.9563" y2="702.9563"/><polygon fill="#181818" points="571.95,699.3563,562.95,702.9563,571.95,706.5563,568.35,702.9563" style="stroke:#181818;stroke-width:0.9;"/><text fill="#000000" font-family="sans-serif" font-size="11.7" font-weight="bold" lengthAdjust="spacing" textLength="12.6" x="568.35" y="686.5198">21</text><text fill="#000000" font-family="sans-serif" font-size="11.7" lengthAdjust="spacing" textLength="219.6" x="584.55" y="686.5198">getActiveDroneList(droneList, droneModel)</text><polygon fill="#181818" points="400.95,727.5182,391.95,731.1182,400.95,734.7182,397.35,731.1182" style="stroke:#181818;stroke-width:0.9;"/><line style="stroke:#181818;stroke-width:0.9;stroke-dasharray:2.0,2.0;" x1="395.55" x2="556.65" y1="731.1182" y2="731.1182"/><text fill="#000000" font-family="sans-serif" font-size="11.7" font-weight="bold" lengthAdjust="spacing" textLength="12.6" x="406.35" y="726.3817">22</text><text fill="#000000" font-family="sans-serif" font-size="11.7" lengthAdjust="spacing" textLength="79.2" x="422.55" y="726.3817">activeDroneList</text><polygon fill="#181818" points="53.55,755.6801,44.55,759.2801,53.55,762.8801,49.95,759.2801" style="stroke:#181818;stroke-width:0.9;"/><line style="stroke:#181818;stroke-width:0.9;stroke-dasharray:2.0,2.0;" x1="48.15" x2="385.65" y1="759.2801" y2="759.2801"/><text fill="#000000" font-family="sans-serif" font-size="11.7" font-weight="bold" lengthAdjust="spacing" textLength="12.6" x="58.95" y="754.5437">23</text><text fill="#000000" font-family="sans-serif" font-size="11.7" lengthAdjust="spacing" textLength="300.6" x="75.15" y="754.5437">shows the list off all activate drones and ask to select one</text><polygon fill="#181818" points="371.25,783.842,380.25,787.442,371.25,791.042,374.85,787.442" style="stroke:#181818;stroke-width:0.9;"/><line style="stroke:#181818;stroke-width:0.9;" x1="43.65" x2="376.65" y1="787.442" y2="787.442"/><text fill="#000000" font-family="sans-serif" font-size="11.7" font-weight="bold" lengthAdjust="spacing" textLength="12.6" x="49.95" y="782.7056">24</text><text fill="#000000" font-family="sans-serif" font-size="11.7" lengthAdjust="spacing" textLength="213.3" x="66.15" y="782.7056">selets one and ask to list in the inventory</text><line style="stroke:#181818;stroke-width:0.9;stroke-dasharray:2.0,2.0;" x1="391.05" x2="428.85" y1="815.6039" y2="815.6039"/><line style="stroke:#181818;stroke-width:0.9;stroke-dasharray:2.0,2.0;" x1="428.85" x2="428.85" y1="815.6039" y2="827.3039"/><line style="stroke:#181818;stroke-width:0.9;stroke-dasharray:2.0,2.0;" x1="391.95" x2="428.85" y1="827.3039" y2="827.3039"/><polygon fill="#181818" points="400.95,823.7039,391.95,827.3039,400.95,830.9039,397.35,827.3039" style="stroke:#181818;stroke-width:0.9;"/><text fill="#000000" font-family="sans-serif" font-size="11.7" font-weight="bold" lengthAdjust="spacing" textLength="12.6" x="397.35" y="810.8675">25</text><text fill="#000000" font-family="sans-serif" font-size="11.7" lengthAdjust="spacing" textLength="133.2" x="413.55" y="810.8675">keepDrone(activateDrone)</text><polygon fill="#181818" points="53.55,851.8658,44.55,855.4658,53.55,859.0658,49.95,855.4658" style="stroke:#181818;stroke-width:0.9;"/><line style="stroke:#181818;stroke-width:0.9;stroke-dasharray:2.0,2.0;" x1="48.15" x2="385.65" y1="855.4658" y2="855.4658"/><text fill="#000000" font-family="sans-serif" font-size="11.7" font-weight="bold" lengthAdjust="spacing" textLength="12.6" x="58.95" y="850.7294">26</text><text fill="#000000" font-family="sans-serif" font-size="11.7" lengthAdjust="spacing" textLength="111.6" x="75.15" y="850.7294">requests confirmation</text><polygon fill="#181818" points="371.25,880.0277,380.25,883.6277,371.25,887.2277,374.85,883.6277" style="stroke:#181818;stroke-width:0.9;"/><line style="stroke:#181818;stroke-width:0.9;" x1="43.65" x2="376.65" y1="883.6277" y2="883.6277"/><text fill="#000000" font-family="sans-serif" font-size="11.7" font-weight="bold" lengthAdjust="spacing" textLength="12.6" x="49.95" y="878.8913">27</text><text fill="#000000" font-family="sans-serif" font-size="11.7" lengthAdjust="spacing" textLength="44.1" x="66.15" y="878.8913">confirms</text><polygon fill="#181818" points="542.25,908.1896,551.25,911.7896,542.25,915.3896,545.85,911.7896" style="stroke:#181818;stroke-width:0.9;"/><line style="stroke:#181818;stroke-width:0.9;" x1="391.05" x2="547.65" y1="911.7896" y2="911.7896"/><text fill="#000000" font-family="sans-serif" font-size="11.7" font-weight="bold" lengthAdjust="spacing" textLength="12.6" x="397.35" y="907.0532">28</text><text fill="#000000" font-family="sans-serif" font-size="11.7" lengthAdjust="spacing" textLength="123.3" x="413.55" y="907.0532">listDrone(activateDrone)</text><line style="stroke:#181818;stroke-width:0.9;" x1="562.05" x2="604.35" y1="935.4516" y2="935.4516"/><line style="stroke:#181818;stroke-width:0.9;" x1="604.35" x2="604.35" y1="935.4516" y2="947.1516"/><line style="stroke:#181818;stroke-width:0.9;" x1="567.45" x2="604.35" y1="947.1516" y2="947.1516"/><polygon fill="#181818" points="576.45,943.5516,567.45,947.1516,576.45,950.7516,572.85,947.1516" style="stroke:#181818;stroke-width:0.9;"/><text fill="#000000" font-family="sans-serif" font-size="11.7" font-weight="bold" lengthAdjust="spacing" textLength="12.6" x="572.85" y="930.7151">29</text><text fill="#000000" font-family="sans-serif" font-size="11.7" lengthAdjust="spacing" textLength="109.8" x="589.05" y="930.7151">getDroneRepository()</text><polygon fill="#181818" points="799.65,976.2135,808.65,979.8135,799.65,983.4135,803.25,979.8135" style="stroke:#181818;stroke-width:0.9;"/><line style="stroke:#181818;stroke-width:0.9;" x1="566.55" x2="805.05" y1="979.8135" y2="979.8135"/><text fill="#000000" font-family="sans-serif" font-size="11.7" font-weight="bold" lengthAdjust="spacing" textLength="12.6" x="572.85" y="975.0771">30</text><text fill="#000000" font-family="sans-serif" font-size="11.7" lengthAdjust="spacing" textLength="67.5" x="589.05" y="975.0771">getInstance()</text><polygon fill="#181818" points="576.45,1004.3754,567.45,1007.9754,576.45,1011.5754,572.85,1007.9754" style="stroke:#181818;stroke-width:0.9;"/><line style="stroke:#181818;stroke-width:0.9;stroke-dasharray:2.0,2.0;" x1="571.05" x2="814.05" y1="1007.9754" y2="1007.9754"/><text fill="#000000" font-family="sans-serif" font-size="11.7" font-weight="bold" lengthAdjust="spacing" textLength="12.6" x="581.85" y="1003.239">31</text><text fill="#000000" font-family="sans-serif" font-size="11.7" lengthAdjust="spacing" textLength="60.3" x="598.05" y="1003.239">repositories</text><polygon fill="#181818" points="894.15,1032.5373,903.15,1036.1373,894.15,1039.7373,897.75,1036.1373" style="stroke:#181818;stroke-width:0.9;"/><line style="stroke:#181818;stroke-width:0.9;" x1="566.55" x2="899.55" y1="1036.1373" y2="1036.1373"/><text fill="#000000" font-family="sans-serif" font-size="11.7" font-weight="bold" lengthAdjust="spacing" textLength="12.6" x="572.85" y="1031.4009">32</text><text fill="#000000" font-family="sans-serif" font-size="11.7" lengthAdjust="spacing" textLength="109.8" x="589.05" y="1031.4009">getDroneRepository()</text><polygon fill="#181818" points="576.45,1060.6992,567.45,1064.2992,576.45,1067.8992,572.85,1064.2992" style="stroke:#181818;stroke-width:0.9;"/><line style="stroke:#181818;stroke-width:0.9;stroke-dasharray:2.0,2.0;" x1="571.05" x2="908.55" y1="1064.2992" y2="1064.2992"/><text fill="#000000" font-family="sans-serif" font-size="11.7" font-weight="bold" lengthAdjust="spacing" textLength="12.6" x="581.85" y="1059.5628">33</text><text fill="#000000" font-family="sans-serif" font-size="11.7" lengthAdjust="spacing" textLength="84.6" x="598.05" y="1059.5628">droneRepository</text><line style="stroke:#181818;stroke-width:0.9;stroke-dasharray:2.0,2.0;" x1="566.55" x2="604.35" y1="1096.9611" y2="1096.9611"/><line style="stroke:#181818;stroke-width:0.9;stroke-dasharray:2.0,2.0;" x1="604.35" x2="604.35" y1="1096.9611" y2="1108.6611"/><line style="stroke:#181818;stroke-width:0.9;stroke-dasharray:2.0,2.0;" x1="562.05" x2="604.35" y1="1108.6611" y2="1108.6611"/><polygon fill="#181818" points="571.05,1105.0611,562.05,1108.6611,571.05,1112.2611,567.45,1108.6611" style="stroke:#181818;stroke-width:0.9;"/><text fill="#000000" font-family="sans-serif" font-size="11.7" font-weight="bold" lengthAdjust="spacing" textLength="12.6" x="572.85" y="1092.2247">34</text><text fill="#000000" font-family="sans-serif" font-size="11.7" lengthAdjust="spacing" textLength="84.6" x="589.05" y="1092.2247">droneRepository</text><polygon fill="#181818" points="1123.65,1151.223,1132.65,1154.823,1123.65,1158.423,1127.25,1154.823" style="stroke:#181818;stroke-width:0.9;"/><line style="stroke:#181818;stroke-width:0.9;" x1="562.05" x2="1129.05" y1="1154.823" y2="1154.823"/><text fill="#000000" font-family="sans-serif" font-size="11.7" font-weight="bold" lengthAdjust="spacing" textLength="12.6" x="568.35" y="1150.0866">35</text><text fill="#000000" font-family="sans-serif" font-size="11.7" lengthAdjust="spacing" textLength="123.3" x="584.55" y="1150.0866">listDrone(activateDrone)</text><polygon fill="#181818" points="1263.6,1179.385,1272.6,1182.985,1263.6,1186.585,1267.2,1182.985" style="stroke:#181818;stroke-width:0.9;"/><line style="stroke:#181818;stroke-width:0.9;stroke-dasharray:2.0,2.0;" x1="1143.45" x2="1269" y1="1182.985" y2="1182.985"/><text fill="#000000" font-family="sans-serif" font-size="11.7" font-weight="bold" lengthAdjust="spacing" textLength="12.6" x="1149.75" y="1178.2485">36</text><text fill="#000000" font-family="sans-serif" font-size="11.7" lengthAdjust="spacing" textLength="92.7" x="1165.95" y="1178.2485">list(activateDrone)</text><rect fill="#E2E2F0" height="46.118" rx="2.25" ry="2.25" style="stroke:#181818;stroke-width:0.45;" width="51.3" x="1274.4" y="1162.023"/><text fill="#000000" font-family="sans-serif" font-size="12.6" lengthAdjust="spacing" textLength="33.3" x="1283.4" y="1181.9197">drone</text><text fill="#000000" font-family="sans-serif" font-size="12.6" lengthAdjust="spacing" textLength="38.7" x="1280.7" y="1198.6787">:Drone</text><line style="stroke:#181818;stroke-width:0.9;" x1="1143.45" x2="1185.75" y1="1234.5029" y2="1234.5029"/><line style="stroke:#181818;stroke-width:0.9;" x1="1185.75" x2="1185.75" y1="1234.5029" y2="1246.2029"/><line style="stroke:#181818;stroke-width:0.9;" x1="1148.85" x2="1185.75" y1="1246.2029" y2="1246.2029"/><polygon fill="#181818" points="1157.85,1242.6029,1148.85,1246.2029,1157.85,1249.8029,1154.25,1246.2029" style="stroke:#181818;stroke-width:0.9;"/><text fill="#000000" font-family="sans-serif" font-size="11.7" font-weight="bold" lengthAdjust="spacing" textLength="12.6" x="1154.25" y="1229.7665">37</text><text fill="#000000" font-family="sans-serif" font-size="11.7" lengthAdjust="spacing" textLength="123.3" x="1170.45" y="1229.7665">listDrone(activateDrone)</text><line style="stroke:#181818;stroke-width:0.9;" x1="1147.95" x2="1190.25" y1="1274.3648" y2="1274.3648"/><line style="stroke:#181818;stroke-width:0.9;" x1="1190.25" x2="1190.25" y1="1274.3648" y2="1286.0648"/><line style="stroke:#181818;stroke-width:0.9;" x1="1153.35" x2="1190.25" y1="1286.0648" y2="1286.0648"/><polygon fill="#181818" points="1162.35,1282.4648,1153.35,1286.0648,1162.35,1289.6648,1158.75,1286.0648" style="stroke:#181818;stroke-width:0.9;"/><text fill="#000000" font-family="sans-serif" font-size="11.7" font-weight="bold" lengthAdjust="spacing" textLength="12.6" x="1158.75" y="1269.6284">38</text><text fill="#000000" font-family="sans-serif" font-size="11.7" lengthAdjust="spacing" textLength="85.5" x="1174.95" y="1269.6284">validateCity(city)</text><line style="stroke:#181818;stroke-width:0.9;stroke-dasharray:2.0,2.0;" x1="1152.45" x2="1190.25" y1="1323.2268" y2="1323.2268"/><line style="stroke:#181818;stroke-width:0.9;stroke-dasharray:2.0,2.0;" x1="1190.25" x2="1190.25" y1="1323.2268" y2="1334.9268"/><line style="stroke:#181818;stroke-width:0.9;stroke-dasharray:2.0,2.0;" x1="1147.95" x2="1190.25" y1="1334.9268" y2="1334.9268"/><polygon fill="#181818" points="1156.95,1331.3268,1147.95,1334.9268,1156.95,1338.5268,1153.35,1334.9268" style="stroke:#181818;stroke-width:0.9;"/><text fill="#000000" font-family="sans-serif" font-size="11.7" font-weight="bold" lengthAdjust="spacing" textLength="12.6" x="1158.75" y="1318.4903">39</text><text fill="#000000" font-family="sans-serif" font-size="11.7" lengthAdjust="spacing" textLength="19.8" x="1174.95" y="1318.4903">true</text><line style="stroke:#181818;stroke-width:0.9;stroke-dasharray:2.0,2.0;" x1="1147.95" x2="1185.75" y1="1363.0887" y2="1363.0887"/><line style="stroke:#181818;stroke-width:0.9;stroke-dasharray:2.0,2.0;" x1="1185.75" x2="1185.75" y1="1363.0887" y2="1374.7887"/><line style="stroke:#181818;stroke-width:0.9;stroke-dasharray:2.0,2.0;" x1="1143.45" x2="1185.75" y1="1374.7887" y2="1374.7887"/><polygon fill="#181818" points="1152.45,1371.1887,1143.45,1374.7887,1152.45,1378.3887,1148.85,1374.7887" style="stroke:#181818;stroke-width:0.9;"/><text fill="#000000" font-family="sans-serif" font-size="11.7" font-weight="bold" lengthAdjust="spacing" textLength="12.6" x="1154.25" y="1358.3522">40</text><text fill="#000000" font-family="sans-serif" font-size="11.7" lengthAdjust="spacing" textLength="19.8" x="1170.45" y="1358.3522">true</text><polygon fill="#181818" points="571.95,1394.8506,562.95,1398.4506,571.95,1402.0506,568.35,1398.4506" style="stroke:#181818;stroke-width:0.9;"/><line style="stroke:#181818;stroke-width:0.9;stroke-dasharray:2.0,2.0;" x1="566.55" x2="1138.05" y1="1398.4506" y2="1398.4506"/><text fill="#000000" font-family="sans-serif" font-size="11.7" font-weight="bold" lengthAdjust="spacing" textLength="12.6" x="577.35" y="1393.7142">41</text><text fill="#000000" font-family="sans-serif" font-size="11.7" lengthAdjust="spacing" textLength="19.8" x="593.55" y="1393.7142">true</text><polygon fill="#181818" points="400.95,1423.0125,391.95,1426.6125,400.95,1430.2125,397.35,1426.6125" style="stroke:#181818;stroke-width:0.9;"/><line style="stroke:#181818;stroke-width:0.9;stroke-dasharray:2.0,2.0;" x1="395.55" x2="556.65" y1="1426.6125" y2="1426.6125"/><text fill="#000000" font-family="sans-serif" font-size="11.7" font-weight="bold" lengthAdjust="spacing" textLength="12.6" x="406.35" y="1421.8761">42</text><text fill="#000000" font-family="sans-serif" font-size="11.7" lengthAdjust="spacing" textLength="19.8" x="422.55" y="1421.8761">true</text><polygon fill="#181818" points="49.05,1451.1744,40.05,1454.7744,49.05,1458.3744,45.45,1454.7744" style="stroke:#181818;stroke-width:0.9;"/><line style="stroke:#181818;stroke-width:0.9;stroke-dasharray:2.0,2.0;" x1="43.65" x2="385.65" y1="1454.7744" y2="1454.7744"/><text fill="#000000" font-family="sans-serif" font-size="11.7" font-weight="bold" lengthAdjust="spacing" textLength="12.6" x="54.45" y="1450.038">43</text><text fill="#000000" font-family="sans-serif" font-size="11.7" lengthAdjust="spacing" textLength="142.2" x="70.65" y="1450.038">displays operation success</text><!--SRC=[fLXDR-8m4BtxLrYzbABj7-2mqggW2gc55QMtbIet6S0YiREsQHUfFtuTXnWd9BP3SwWKElFcm_FU66xbdhA229BZd3EUx0JF0Ijn07J-Jq6IFTd2YpfcW0KaYh1jvXh87Kdv9sLRl26P18J8GN5soDz187IxeodW3UVgdVz3955Su9kfu0pMaEnkC95uDbqZZQHeGWl25BwPF56fZCtht5YypliC7ZXJWcSP26Fui5uzDKrNK719TLGAqfYiPh-NBqqRuTZyOPDkbxUN-UBnQRPUBfhEEKyXiov7xV_S_CH0F2-dRoLCqpSjIsZuJfkV6D_fQj7dMtkSx9QB6IfxJ3-80jDNX4-FVi7tFtKdyKJRxYLM76UwYvWmR3m06qJhO65qyx7pQ8Hx3LHsUZpMO8a0RJMwGnTMbP4ssK9rMAOnvT5fQzppsB3cAB7dCU0wY3cTAigSIJsT2NZm6p6gMS21fmfG5pt1xhXudLDeHOglvpnjLMMjcHfKe3EvKQKwiSz5jyPyKDrE0b4TgCdYb1wOcaRHbckXQcsS-_EivdMqs0gZebMLrVmBnt3m-tXmuc79wucMOFwfARs3YjDyiy4aoof6L-6a9dfQChyaleHCwpXswUvFegK1k4jLIb0blQ01JJ4mUu327FaejPfnvzMMNqQ-ZC9qZ8c_aSD4948u1eb5M22yej1Q5i640qBGJ_xMdaBV8NnTKRtLd59wI6wnxIBiojxYEMHEQrHVnhsebhJzesO3_C1zqtf9Vz84GJxYew6Kj-ucdn3hcnH7LRXkKhj89Y9b9Zfb7y3iLBGPtcQsgNfKMvctEtHHcu2_1v0wRiBPXegSACePwjOaDzkJkKHzOjEGZgo-H7Rb4v2EUeehVaHnCNpRYNAvK8KXDn-Fc4NxnGXTDDYmArA4CdxZCBo2ULLxhXBJAsvLyVtgpI8Au-lhQsWVSEmL1mqvT6Tv15aSjq8QwyDyangFA_0shiVrd5XaNjUiDpV81ybegdqVg3gE4lsdUzBZGdIqmNRP_2OGE4OBZhwD78NQjV4lq898pcxskryiWVFAqdIYiiZ8KM_A0eHPLrWUaWIax5XRo7ajlwJ_1m00]--></g></svg>