<?xml version="1.0" encoding="UTF-8" standalone="no"?><svg xmlns="http://www.w3.org/2000/svg" xmlns:xlink="http://www.w3.org/1999/xlink" contentStyleType="text/css" height="1916px" preserveAspectRatio="none" style="width:1955px;height:1916px;background:#FFFFFF;" version="1.1" viewBox="0 0 1955 1916" width="1955px" zoomAndPan="magnify"><defs/><g><rect fill="#FFFFFF" height="1708.4063" style="stroke:#181818;stroke-width:1.0;" width="10" x="51" y="100.1563"/><rect fill="#FFFFFF" height="402.5625" style="stroke:#181818;stroke-width:1.0;" width="10" x="618" y="131.3125"/><rect fill="#FFFFFF" height="404.5625" style="stroke:#181818;stroke-width:1.0;" width="10" x="618" y="573.0313"/><rect fill="#FFFFFF" height="91.3125" style="stroke:#181818;stroke-width:1.0;" width="10" x="618" y="1016.75"/><rect fill="#FFFFFF" height="661.3438" style="stroke:#181818;stroke-width:1.0;" width="10" x="618" y="1147.2188"/><rect fill="#FFFFFF" height="274.0938" style="stroke:#181818;stroke-width:1.0;" width="10" x="888" y="220.625"/><rect fill="#FFFFFF" height="274.0938" style="stroke:#181818;stroke-width:1.0;" width="10" x="888" y="664.3438"/><rect fill="#FFFFFF" height="583.0313" style="stroke:#181818;stroke-width:1.0;" width="10" x="888" y="1186.375"/><rect fill="#FFFFFF" height="206.7813" style="stroke:#181818;stroke-width:1.0;" width="10" x="893" y="1233.5313"/><rect fill="#FFFFFF" height="39.1563" style="stroke:#181818;stroke-width:1.0;" width="10" x="1128" y="259.7813"/><rect fill="#FFFFFF" height="39.1563" style="stroke:#181818;stroke-width:1.0;" width="10" x="1128" y="703.5"/><rect fill="#FFFFFF" height="39.1563" style="stroke:#181818;stroke-width:1.0;" width="10" x="1128" y="1277.6875"/><rect fill="#FFFFFF" height="39.1563" style="stroke:#181818;stroke-width:1.0;" width="10" x="1265" y="338.0938"/><rect fill="#FFFFFF" height="39.1563" style="stroke:#181818;stroke-width:1.0;" width="10" x="1265" y="781.8125"/><rect fill="#FFFFFF" height="39.1563" style="stroke:#181818;stroke-width:1.0;" width="10" x="1265" y="1356"/><rect fill="#FFFFFF" height="39.1563" style="stroke:#181818;stroke-width:1.0;" width="10" x="1424.5" y="416.4063"/><rect fill="#FFFFFF" height="39.1563" style="stroke:#181818;stroke-width:1.0;" width="10" x="1603" y="860.125"/><rect fill="#FFFFFF" height="218.7813" style="stroke:#181818;stroke-width:1.0;" width="10" x="1603" y="1511.4688"/><rect fill="#FFFFFF" height="50.1563" style="stroke:#181818;stroke-width:1.0;" width="10" x="1608" y="1633.9375"/><line style="stroke:#181818;stroke-width:0.5;stroke-dasharray:5.0,5.0;" x1="56" x2="56" y1="90.1563" y2="1826.5625"/><line style="stroke:#181818;stroke-width:0.5;stroke-dasharray:5.0,5.0;" x1="622.5" x2="622.5" y1="90.1563" y2="1826.5625"/><line style="stroke:#181818;stroke-width:0.5;stroke-dasharray:5.0,5.0;" x1="892.5" x2="892.5" y1="174.3906" y2="1826.5625"/><line style="stroke:#181818;stroke-width:0.5;stroke-dasharray:5.0,5.0;" x1="1133" x2="1133" y1="90.1563" y2="1826.5625"/><line style="stroke:#181818;stroke-width:0.5;stroke-dasharray:5.0,5.0;" x1="1270" x2="1270" y1="90.1563" y2="1826.5625"/><line style="stroke:#181818;stroke-width:0.5;stroke-dasharray:5.0,5.0;" x1="1429" x2="1429" y1="90.1563" y2="1826.5625"/><line style="stroke:#181818;stroke-width:0.5;stroke-dasharray:5.0,5.0;" x1="1608" x2="1608" y1="90.1563" y2="1826.5625"/><line style="stroke:#181818;stroke-width:0.5;stroke-dasharray:5.0,5.0;" x1="1912.5" x2="1912.5" y1="1567.125" y2="1826.5625"/><text fill="#000000" font-family="sans-serif" font-size="20" lengthAdjust="spacing" textLength="96" x="5" y="85.7617">DroneTech</text><ellipse cx="56" cy="13.5" fill="#E2E2F0" rx="8" ry="8" style="stroke:#181818;stroke-width:0.5;"/><path d="M56,21.5 L56,48.5 M43,29.5 L69,29.5 M56,48.5 L43,63.5 M56,48.5 L69,63.5 " fill="none" style="stroke:#181818;stroke-width:0.5;"/><text fill="#000000" font-family="sans-serif" font-size="20" lengthAdjust="spacing" textLength="96" x="5" y="1846.3242">DroneTech</text><ellipse cx="56" cy="1859.2188" fill="#E2E2F0" rx="8" ry="8" style="stroke:#181818;stroke-width:0.5;"/><path d="M56,1867.2188 L56,1894.2188 M43,1875.2188 L69,1875.2188 M56,1894.2188 L43,1909.2188 M56,1894.2188 L69,1909.2188 " fill="none" style="stroke:#181818;stroke-width:0.5;"/><rect fill="#E2E2F0" height="39.1563" rx="2.5" ry="2.5" style="stroke:#181818;stroke-width:0.5;" width="123" x="561.5" y="50"/><text fill="#000000" font-family="sans-serif" font-size="20" lengthAdjust="spacing" textLength="109" x="568.5" y="77.7617">:ListDroneUI</text><rect fill="#E2E2F0" height="39.1563" rx="2.5" ry="2.5" style="stroke:#181818;stroke-width:0.5;" width="123" x="561.5" y="1825.5625"/><text fill="#000000" font-family="sans-serif" font-size="20" lengthAdjust="spacing" textLength="109" x="568.5" y="1853.3242">:ListDroneUI</text><rect fill="#E2E2F0" height="39.1563" rx="2.5" ry="2.5" style="stroke:#181818;stroke-width:0.5;" width="189" x="798.5" y="1825.5625"/><text fill="#000000" font-family="sans-serif" font-size="20" lengthAdjust="spacing" textLength="175" x="805.5" y="1853.3242">:ListDroneController</text><rect fill="#E2E2F0" height="39.1563" rx="2.5" ry="2.5" style="stroke:#181818;stroke-width:0.5;" width="124" x="1071" y="50"/><text fill="#000000" font-family="sans-serif" font-size="20" lengthAdjust="spacing" textLength="110" x="1078" y="77.7617">Repositories</text><rect fill="#E2E2F0" height="39.1563" rx="2.5" ry="2.5" style="stroke:#181818;stroke-width:0.5;" width="124" x="1071" y="1825.5625"/><text fill="#000000" font-family="sans-serif" font-size="20" lengthAdjust="spacing" textLength="110" x="1078" y="1853.3242">Repositories</text><rect fill="#E2E2F0" height="64.3125" rx="2.5" ry="2.5" style="stroke:#181818;stroke-width:0.5;" width="130" x="1205" y="24.8438"/><text fill="#000000" font-family="sans-serif" font-size="20" lengthAdjust="spacing" textLength="103" x="1218.5" y="52.6055">repositories</text><text fill="#000000" font-family="sans-serif" font-size="20" lengthAdjust="spacing" textLength="116" x="1212" y="77.7617">:Repositories</text><rect fill="#E2E2F0" height="64.3125" rx="2.5" ry="2.5" style="stroke:#181818;stroke-width:0.5;" width="130" x="1205" y="1825.5625"/><text fill="#000000" font-family="sans-serif" font-size="20" lengthAdjust="spacing" textLength="103" x="1218.5" y="1853.3242">repositories</text><text fill="#000000" font-family="sans-serif" font-size="20" lengthAdjust="spacing" textLength="116" x="1212" y="1878.4805">:Repositories</text><rect fill="#E2E2F0" height="64.3125" rx="2.5" ry="2.5" style="stroke:#181818;stroke-width:0.5;" width="169" x="1345" y="24.8438"/><text fill="#000000" font-family="sans-serif" font-size="20" lengthAdjust="spacing" textLength="148" x="1355.5" y="52.6055">modelRepository</text><text fill="#000000" font-family="sans-serif" font-size="20" lengthAdjust="spacing" textLength="155" x="1352" y="77.7617">:ModelRepository</text><rect fill="#E2E2F0" height="64.3125" rx="2.5" ry="2.5" style="stroke:#181818;stroke-width:0.5;" width="169" x="1345" y="1825.5625"/><text fill="#000000" font-family="sans-serif" font-size="20" lengthAdjust="spacing" textLength="148" x="1355.5" y="1853.3242">modelRepository</text><text fill="#000000" font-family="sans-serif" font-size="20" lengthAdjust="spacing" textLength="155" x="1352" y="1878.4805">:ModelRepository</text><rect fill="#E2E2F0" height="64.3125" rx="2.5" ry="2.5" style="stroke:#181818;stroke-width:0.5;" width="168" x="1524" y="24.8438"/><text fill="#000000" font-family="sans-serif" font-size="20" lengthAdjust="spacing" textLength="145" x="1535.5" y="52.6055">droneRepository</text><text fill="#000000" font-family="sans-serif" font-size="20" lengthAdjust="spacing" textLength="154" x="1531" y="77.7617">:DroneRepository</text><rect fill="#E2E2F0" height="64.3125" rx="2.5" ry="2.5" style="stroke:#181818;stroke-width:0.5;" width="168" x="1524" y="1825.5625"/><text fill="#000000" font-family="sans-serif" font-size="20" lengthAdjust="spacing" textLength="145" x="1535.5" y="1853.3242">droneRepository</text><text fill="#000000" font-family="sans-serif" font-size="20" lengthAdjust="spacing" textLength="154" x="1531" y="1878.4805">:DroneRepository</text><rect fill="#E2E2F0" height="64.3125" rx="2.5" ry="2.5" style="stroke:#181818;stroke-width:0.5;" width="73" x="1876.5" y="1825.5625"/><text fill="#000000" font-family="sans-serif" font-size="20" lengthAdjust="spacing" textLength="50" x="1888" y="1853.3242">drone</text><text fill="#000000" font-family="sans-serif" font-size="20" lengthAdjust="spacing" textLength="59" x="1883.5" y="1878.4805">:Drone</text><rect fill="#FFFFFF" height="1708.4063" style="stroke:#181818;stroke-width:1.0;" width="10" x="51" y="100.1563"/><rect fill="#FFFFFF" height="402.5625" style="stroke:#181818;stroke-width:1.0;" width="10" x="618" y="131.3125"/><rect fill="#FFFFFF" height="404.5625" style="stroke:#181818;stroke-width:1.0;" width="10" x="618" y="573.0313"/><rect fill="#FFFFFF" height="91.3125" style="stroke:#181818;stroke-width:1.0;" width="10" x="618" y="1016.75"/><rect fill="#FFFFFF" height="661.3438" style="stroke:#181818;stroke-width:1.0;" width="10" x="618" y="1147.2188"/><rect fill="#FFFFFF" height="274.0938" style="stroke:#181818;stroke-width:1.0;" width="10" x="888" y="220.625"/><rect fill="#FFFFFF" height="274.0938" style="stroke:#181818;stroke-width:1.0;" width="10" x="888" y="664.3438"/><rect fill="#FFFFFF" height="583.0313" style="stroke:#181818;stroke-width:1.0;" width="10" x="888" y="1186.375"/><rect fill="#FFFFFF" height="206.7813" style="stroke:#181818;stroke-width:1.0;" width="10" x="893" y="1233.5313"/><rect fill="#FFFFFF" height="39.1563" style="stroke:#181818;stroke-width:1.0;" width="10" x="1128" y="259.7813"/><rect fill="#FFFFFF" height="39.1563" style="stroke:#181818;stroke-width:1.0;" width="10" x="1128" y="703.5"/><rect fill="#FFFFFF" height="39.1563" style="stroke:#181818;stroke-width:1.0;" width="10" x="1128" y="1277.6875"/><rect fill="#FFFFFF" height="39.1563" style="stroke:#181818;stroke-width:1.0;" width="10" x="1265" y="338.0938"/><rect fill="#FFFFFF" height="39.1563" style="stroke:#181818;stroke-width:1.0;" width="10" x="1265" y="781.8125"/><rect fill="#FFFFFF" height="39.1563" style="stroke:#181818;stroke-width:1.0;" width="10" x="1265" y="1356"/><rect fill="#FFFFFF" height="39.1563" style="stroke:#181818;stroke-width:1.0;" width="10" x="1424.5" y="416.4063"/><rect fill="#FFFFFF" height="39.1563" style="stroke:#181818;stroke-width:1.0;" width="10" x="1603" y="860.125"/><rect fill="#FFFFFF" height="218.7813" style="stroke:#181818;stroke-width:1.0;" width="10" x="1603" y="1511.4688"/><rect fill="#FFFFFF" height="50.1563" style="stroke:#181818;stroke-width:1.0;" width="10" x="1608" y="1633.9375"/><polygon fill="#181818" points="606,127.3125,616,131.3125,606,135.3125,610,131.3125" style="stroke:#181818;stroke-width:1.0;"/><line style="stroke:#181818;stroke-width:1.0;" x1="61" x2="612" y1="131.3125" y2="131.3125"/><text fill="#000000" font-family="sans-serif" font-size="20" font-weight="bold" lengthAdjust="spacing" textLength="11" x="68" y="124.918">1</text><text fill="#000000" font-family="sans-serif" font-size="20" lengthAdjust="spacing" textLength="234" x="83" y="124.918">asks to list an active drone</text><polygon fill="#181818" points="786.5,166.4688,796.5,170.4688,786.5,174.4688,790.5,170.4688" style="stroke:#181818;stroke-width:1.0;"/><line style="stroke:#181818;stroke-width:1.0;stroke-dasharray:2.0,2.0;" x1="628" x2="792.5" y1="170.4688" y2="170.4688"/><text fill="#000000" font-family="sans-serif" font-size="20" font-weight="bold" lengthAdjust="spacing" textLength="11" x="635" y="164.0742">2</text><text fill="#000000" font-family="sans-serif" font-size="20" lengthAdjust="spacing" textLength="70" x="650" y="164.0742">create()</text><rect fill="#E2E2F0" height="39.1563" rx="2.5" ry="2.5" style="stroke:#181818;stroke-width:0.5;" width="189" x="798.5" y="139.3125"/><text fill="#000000" font-family="sans-serif" font-size="20" lengthAdjust="spacing" textLength="175" x="805.5" y="167.0742">:ListDroneController</text><polygon fill="#181818" points="876,216.625,886,220.625,876,224.625,880,220.625" style="stroke:#181818;stroke-width:1.0;"/><line style="stroke:#181818;stroke-width:1.0;" x1="628" x2="882" y1="220.625" y2="220.625"/><text fill="#000000" font-family="sans-serif" font-size="20" font-weight="bold" lengthAdjust="spacing" textLength="11" x="635" y="214.2305">3</text><text fill="#000000" font-family="sans-serif" font-size="20" lengthAdjust="spacing" textLength="180" x="650" y="214.2305">getDroneModelList()</text><polygon fill="#181818" points="1116,255.7813,1126,259.7813,1116,263.7813,1120,259.7813" style="stroke:#181818;stroke-width:1.0;"/><line style="stroke:#181818;stroke-width:1.0;" x1="898" x2="1122" y1="259.7813" y2="259.7813"/><text fill="#000000" font-family="sans-serif" font-size="20" font-weight="bold" lengthAdjust="spacing" textLength="11" x="905" y="253.3867">4</text><text fill="#000000" font-family="sans-serif" font-size="20" lengthAdjust="spacing" textLength="116" x="920" y="253.3867">getInstance()</text><polygon fill="#181818" points="909,294.9375,899,298.9375,909,302.9375,905,298.9375" style="stroke:#181818;stroke-width:1.0;"/><line style="stroke:#181818;stroke-width:1.0;stroke-dasharray:2.0,2.0;" x1="903" x2="1132" y1="298.9375" y2="298.9375"/><text fill="#000000" font-family="sans-serif" font-size="20" font-weight="bold" lengthAdjust="spacing" textLength="11" x="915" y="292.543">5</text><text fill="#000000" font-family="sans-serif" font-size="20" lengthAdjust="spacing" textLength="103" x="930" y="292.543">repositories</text><polygon fill="#181818" points="1253,334.0938,1263,338.0938,1253,342.0938,1257,338.0938" style="stroke:#181818;stroke-width:1.0;"/><line style="stroke:#181818;stroke-width:1.0;" x1="898" x2="1259" y1="338.0938" y2="338.0938"/><text fill="#000000" font-family="sans-serif" font-size="20" font-weight="bold" lengthAdjust="spacing" textLength="11" x="905" y="331.6992">6</text><text fill="#000000" font-family="sans-serif" font-size="20" lengthAdjust="spacing" textLength="191" x="920" y="331.6992">getModelRepository()</text><polygon fill="#181818" points="909,373.25,899,377.25,909,381.25,905,377.25" style="stroke:#181818;stroke-width:1.0;"/><line style="stroke:#181818;stroke-width:1.0;stroke-dasharray:2.0,2.0;" x1="903" x2="1269" y1="377.25" y2="377.25"/><text fill="#000000" font-family="sans-serif" font-size="20" font-weight="bold" lengthAdjust="spacing" textLength="11" x="915" y="370.8555">7</text><text fill="#000000" font-family="sans-serif" font-size="20" lengthAdjust="spacing" textLength="148" x="930" y="370.8555">modelRepository</text><polygon fill="#181818" points="1412.5,412.4063,1422.5,416.4063,1412.5,420.4063,1416.5,416.4063" style="stroke:#181818;stroke-width:1.0;"/><line style="stroke:#181818;stroke-width:1.0;" x1="898" x2="1418.5" y1="416.4063" y2="416.4063"/><text fill="#000000" font-family="sans-serif" font-size="20" font-weight="bold" lengthAdjust="spacing" textLength="11" x="905" y="410.0117">8</text><text fill="#000000" font-family="sans-serif" font-size="20" lengthAdjust="spacing" textLength="127" x="920" y="410.0117">getModelList()</text><polygon fill="#181818" points="909,451.5625,899,455.5625,909,459.5625,905,455.5625" style="stroke:#181818;stroke-width:1.0;"/><line style="stroke:#181818;stroke-width:1.0;stroke-dasharray:2.0,2.0;" x1="903" x2="1428.5" y1="455.5625" y2="455.5625"/><text fill="#000000" font-family="sans-serif" font-size="20" font-weight="bold" lengthAdjust="spacing" textLength="11" x="915" y="449.168">9</text><text fill="#000000" font-family="sans-serif" font-size="20" lengthAdjust="spacing" textLength="84" x="930" y="449.168">modelList</text><polygon fill="#181818" points="639,490.7188,629,494.7188,639,498.7188,635,494.7188" style="stroke:#181818;stroke-width:1.0;"/><line style="stroke:#181818;stroke-width:1.0;stroke-dasharray:2.0,2.0;" x1="633" x2="892" y1="494.7188" y2="494.7188"/><text fill="#000000" font-family="sans-serif" font-size="20" font-weight="bold" lengthAdjust="spacing" textLength="22" x="645" y="488.3242">10</text><text fill="#000000" font-family="sans-serif" font-size="20" lengthAdjust="spacing" textLength="84" x="671" y="488.3242">modelList</text><polygon fill="#181818" points="72,529.875,62,533.875,72,537.875,68,533.875" style="stroke:#181818;stroke-width:1.0;"/><line style="stroke:#181818;stroke-width:1.0;stroke-dasharray:2.0,2.0;" x1="66" x2="622" y1="533.875" y2="533.875"/><text fill="#000000" font-family="sans-serif" font-size="20" font-weight="bold" lengthAdjust="spacing" textLength="22" x="78" y="527.4805">11</text><text fill="#000000" font-family="sans-serif" font-size="20" lengthAdjust="spacing" textLength="492" x="104" y="527.4805">shows the list off all drone models and ask to select one</text><polygon fill="#181818" points="606,569.0313,616,573.0313,606,577.0313,610,573.0313" style="stroke:#181818;stroke-width:1.0;"/><line style="stroke:#181818;stroke-width:1.0;" x1="61" x2="612" y1="573.0313" y2="573.0313"/><text fill="#000000" font-family="sans-serif" font-size="20" font-weight="bold" lengthAdjust="spacing" textLength="22" x="68" y="566.6367">12</text><text fill="#000000" font-family="sans-serif" font-size="20" lengthAdjust="spacing" textLength="90" x="94" y="566.6367">selets one</text><line style="stroke:#181818;stroke-width:1.0;stroke-dasharray:2.0,2.0;" x1="628" x2="670" y1="612.1875" y2="612.1875"/><line style="stroke:#181818;stroke-width:1.0;stroke-dasharray:2.0,2.0;" x1="670" x2="670" y1="612.1875" y2="625.1875"/><line style="stroke:#181818;stroke-width:1.0;stroke-dasharray:2.0,2.0;" x1="629" x2="670" y1="625.1875" y2="625.1875"/><polygon fill="#181818" points="639,621.1875,629,625.1875,639,629.1875,635,625.1875" style="stroke:#181818;stroke-width:1.0;"/><text fill="#000000" font-family="sans-serif" font-size="20" font-weight="bold" lengthAdjust="spacing" textLength="22" x="635" y="605.793">13</text><text fill="#000000" font-family="sans-serif" font-size="20" lengthAdjust="spacing" textLength="203" x="661" y="605.793">keepData(droneModel)</text><polygon fill="#181818" points="876,660.3438,886,664.3438,876,668.3438,880,664.3438" style="stroke:#181818;stroke-width:1.0;"/><line style="stroke:#181818;stroke-width:1.0;" x1="628" x2="882" y1="664.3438" y2="664.3438"/><text fill="#000000" font-family="sans-serif" font-size="20" font-weight="bold" lengthAdjust="spacing" textLength="22" x="635" y="657.9492">14</text><text fill="#000000" font-family="sans-serif" font-size="20" lengthAdjust="spacing" textLength="179" x="661" y="657.9492">getActiveDroneList()</text><polygon fill="#181818" points="1116,699.5,1126,703.5,1116,707.5,1120,703.5" style="stroke:#181818;stroke-width:1.0;"/><line style="stroke:#181818;stroke-width:1.0;" x1="898" x2="1122" y1="703.5" y2="703.5"/><text fill="#000000" font-family="sans-serif" font-size="20" font-weight="bold" lengthAdjust="spacing" textLength="22" x="905" y="697.1055">15</text><text fill="#000000" font-family="sans-serif" font-size="20" lengthAdjust="spacing" textLength="116" x="931" y="697.1055">getInstance()</text><polygon fill="#181818" points="909,738.6563,899,742.6563,909,746.6563,905,742.6563" style="stroke:#181818;stroke-width:1.0;"/><line style="stroke:#181818;stroke-width:1.0;stroke-dasharray:2.0,2.0;" x1="903" x2="1132" y1="742.6563" y2="742.6563"/><text fill="#000000" font-family="sans-serif" font-size="20" font-weight="bold" lengthAdjust="spacing" textLength="22" x="915" y="736.2617">16</text><text fill="#000000" font-family="sans-serif" font-size="20" lengthAdjust="spacing" textLength="103" x="941" y="736.2617">repositories</text><polygon fill="#181818" points="1253,777.8125,1263,781.8125,1253,785.8125,1257,781.8125" style="stroke:#181818;stroke-width:1.0;"/><line style="stroke:#181818;stroke-width:1.0;" x1="898" x2="1259" y1="781.8125" y2="781.8125"/><text fill="#000000" font-family="sans-serif" font-size="20" font-weight="bold" lengthAdjust="spacing" textLength="22" x="905" y="775.418">17</text><text fill="#000000" font-family="sans-serif" font-size="20" lengthAdjust="spacing" textLength="190" x="931" y="775.418">getDroneRepository()</text><polygon fill="#181818" points="909,816.9688,899,820.9688,909,824.9688,905,820.9688" style="stroke:#181818;stroke-width:1.0;"/><line style="stroke:#181818;stroke-width:1.0;stroke-dasharray:2.0,2.0;" x1="903" x2="1269" y1="820.9688" y2="820.9688"/><text fill="#000000" font-family="sans-serif" font-size="20" font-weight="bold" lengthAdjust="spacing" textLength="22" x="915" y="814.5742">18</text><text fill="#000000" font-family="sans-serif" font-size="20" lengthAdjust="spacing" textLength="145" x="941" y="814.5742">droneRepository</text><polygon fill="#181818" points="1591,856.125,1601,860.125,1591,864.125,1595,860.125" style="stroke:#181818;stroke-width:1.0;"/><line style="stroke:#181818;stroke-width:1.0;" x1="898" x2="1597" y1="860.125" y2="860.125"/><text fill="#000000" font-family="sans-serif" font-size="20" font-weight="bold" lengthAdjust="spacing" textLength="22" x="905" y="853.7305">19</text><text fill="#000000" font-family="sans-serif" font-size="20" lengthAdjust="spacing" textLength="283" x="931" y="853.7305">getActiveDroneList(droneModel)</text><polygon fill="#181818" points="909,895.2813,899,899.2813,909,903.2813,905,899.2813" style="stroke:#181818;stroke-width:1.0;"/><line style="stroke:#181818;stroke-width:1.0;stroke-dasharray:2.0,2.0;" x1="903" x2="1607" y1="899.2813" y2="899.2813"/><text fill="#000000" font-family="sans-serif" font-size="20" font-weight="bold" lengthAdjust="spacing" textLength="22" x="915" y="892.8867">20</text><text fill="#000000" font-family="sans-serif" font-size="20" lengthAdjust="spacing" textLength="135" x="941" y="892.8867">activeDroneList</text><polygon fill="#181818" points="639,934.4375,629,938.4375,639,942.4375,635,938.4375" style="stroke:#181818;stroke-width:1.0;"/><line style="stroke:#181818;stroke-width:1.0;stroke-dasharray:2.0,2.0;" x1="633" x2="892" y1="938.4375" y2="938.4375"/><text fill="#000000" font-family="sans-serif" font-size="20" font-weight="bold" lengthAdjust="spacing" textLength="22" x="645" y="932.043">21</text><text fill="#000000" font-family="sans-serif" font-size="20" lengthAdjust="spacing" textLength="135" x="671" y="932.043">activeDroneList</text><polygon fill="#181818" points="72,973.5938,62,977.5938,72,981.5938,68,977.5938" style="stroke:#181818;stroke-width:1.0;"/><line style="stroke:#181818;stroke-width:1.0;stroke-dasharray:2.0,2.0;" x1="66" x2="622" y1="977.5938" y2="977.5938"/><text fill="#000000" font-family="sans-serif" font-size="20" font-weight="bold" lengthAdjust="spacing" textLength="22" x="78" y="971.1992">22</text><text fill="#000000" font-family="sans-serif" font-size="20" lengthAdjust="spacing" textLength="507" x="104" y="971.1992">shows the list off all activate drones and ask to select one</text><polygon fill="#181818" points="606,1012.75,616,1016.75,606,1020.75,610,1016.75" style="stroke:#181818;stroke-width:1.0;"/><line style="stroke:#181818;stroke-width:1.0;" x1="61" x2="612" y1="1016.75" y2="1016.75"/><text fill="#000000" font-family="sans-serif" font-size="20" font-weight="bold" lengthAdjust="spacing" textLength="22" x="68" y="1010.3555">23</text><text fill="#000000" font-family="sans-serif" font-size="20" lengthAdjust="spacing" textLength="355" x="94" y="1010.3555">selets one and ask to list in the inventory</text><line style="stroke:#181818;stroke-width:1.0;stroke-dasharray:2.0,2.0;" x1="628" x2="670" y1="1055.9063" y2="1055.9063"/><line style="stroke:#181818;stroke-width:1.0;stroke-dasharray:2.0,2.0;" x1="670" x2="670" y1="1055.9063" y2="1068.9063"/><line style="stroke:#181818;stroke-width:1.0;stroke-dasharray:2.0,2.0;" x1="629" x2="670" y1="1068.9063" y2="1068.9063"/><polygon fill="#181818" points="639,1064.9063,629,1068.9063,639,1072.9063,635,1068.9063" style="stroke:#181818;stroke-width:1.0;"/><text fill="#000000" font-family="sans-serif" font-size="20" font-weight="bold" lengthAdjust="spacing" textLength="22" x="635" y="1049.5117">24</text><text fill="#000000" font-family="sans-serif" font-size="20" lengthAdjust="spacing" textLength="220" x="661" y="1049.5117">keepData(activateDrone)</text><polygon fill="#181818" points="72,1104.0625,62,1108.0625,72,1112.0625,68,1108.0625" style="stroke:#181818;stroke-width:1.0;"/><line style="stroke:#181818;stroke-width:1.0;stroke-dasharray:2.0,2.0;" x1="66" x2="622" y1="1108.0625" y2="1108.0625"/><text fill="#000000" font-family="sans-serif" font-size="20" font-weight="bold" lengthAdjust="spacing" textLength="22" x="78" y="1101.668">25</text><text fill="#000000" font-family="sans-serif" font-size="20" lengthAdjust="spacing" textLength="188" x="104" y="1101.668">requests confirmation</text><polygon fill="#181818" points="606,1143.2188,616,1147.2188,606,1151.2188,610,1147.2188" style="stroke:#181818;stroke-width:1.0;"/><line style="stroke:#181818;stroke-width:1.0;" x1="61" x2="612" y1="1147.2188" y2="1147.2188"/><text fill="#000000" font-family="sans-serif" font-size="20" font-weight="bold" lengthAdjust="spacing" textLength="22" x="68" y="1140.8242">26</text><text fill="#000000" font-family="sans-serif" font-size="20" lengthAdjust="spacing" textLength="74" x="94" y="1140.8242">confirms</text><polygon fill="#181818" points="876,1182.375,886,1186.375,876,1190.375,880,1186.375" style="stroke:#181818;stroke-width:1.0;"/><line style="stroke:#181818;stroke-width:1.0;" x1="628" x2="882" y1="1186.375" y2="1186.375"/><text fill="#000000" font-family="sans-serif" font-size="20" font-weight="bold" lengthAdjust="spacing" textLength="22" x="635" y="1179.9805">27</text><text fill="#000000" font-family="sans-serif" font-size="20" lengthAdjust="spacing" textLength="212" x="661" y="1179.9805">listDrone(activateDrone)</text><line style="stroke:#181818;stroke-width:1.0;" x1="898" x2="945" y1="1220.5313" y2="1220.5313"/><line style="stroke:#181818;stroke-width:1.0;" x1="945" x2="945" y1="1220.5313" y2="1233.5313"/><line style="stroke:#181818;stroke-width:1.0;" x1="904" x2="945" y1="1233.5313" y2="1233.5313"/><polygon fill="#181818" points="914,1229.5313,904,1233.5313,914,1237.5313,910,1233.5313" style="stroke:#181818;stroke-width:1.0;"/><text fill="#000000" font-family="sans-serif" font-size="20" font-weight="bold" lengthAdjust="spacing" textLength="22" x="910" y="1214.1367">28</text><text fill="#000000" font-family="sans-serif" font-size="20" lengthAdjust="spacing" textLength="190" x="936" y="1214.1367">getDroneRepository()</text><polygon fill="#181818" points="1116,1273.6875,1126,1277.6875,1116,1281.6875,1120,1277.6875" style="stroke:#181818;stroke-width:1.0;"/><line style="stroke:#181818;stroke-width:1.0;" x1="903" x2="1122" y1="1277.6875" y2="1277.6875"/><text fill="#000000" font-family="sans-serif" font-size="20" font-weight="bold" lengthAdjust="spacing" textLength="22" x="910" y="1271.293">29</text><text fill="#000000" font-family="sans-serif" font-size="20" lengthAdjust="spacing" textLength="116" x="936" y="1271.293">getInstance()</text><polygon fill="#181818" points="914,1312.8438,904,1316.8438,914,1320.8438,910,1316.8438" style="stroke:#181818;stroke-width:1.0;"/><line style="stroke:#181818;stroke-width:1.0;stroke-dasharray:2.0,2.0;" x1="908" x2="1132" y1="1316.8438" y2="1316.8438"/><text fill="#000000" font-family="sans-serif" font-size="20" font-weight="bold" lengthAdjust="spacing" textLength="22" x="920" y="1310.4492">30</text><text fill="#000000" font-family="sans-serif" font-size="20" lengthAdjust="spacing" textLength="103" x="946" y="1310.4492">repositories</text><polygon fill="#181818" points="1253,1352,1263,1356,1253,1360,1257,1356" style="stroke:#181818;stroke-width:1.0;"/><line style="stroke:#181818;stroke-width:1.0;" x1="903" x2="1259" y1="1356" y2="1356"/><text fill="#000000" font-family="sans-serif" font-size="20" font-weight="bold" lengthAdjust="spacing" textLength="22" x="910" y="1349.6055">31</text><text fill="#000000" font-family="sans-serif" font-size="20" lengthAdjust="spacing" textLength="190" x="936" y="1349.6055">getDroneRepository()</text><polygon fill="#181818" points="914,1391.1563,904,1395.1563,914,1399.1563,910,1395.1563" style="stroke:#181818;stroke-width:1.0;"/><line style="stroke:#181818;stroke-width:1.0;stroke-dasharray:2.0,2.0;" x1="908" x2="1269" y1="1395.1563" y2="1395.1563"/><text fill="#000000" font-family="sans-serif" font-size="20" font-weight="bold" lengthAdjust="spacing" textLength="22" x="920" y="1388.7617">32</text><text fill="#000000" font-family="sans-serif" font-size="20" lengthAdjust="spacing" textLength="145" x="946" y="1388.7617">droneRepository</text><line style="stroke:#181818;stroke-width:1.0;stroke-dasharray:2.0,2.0;" x1="903" x2="945" y1="1439.3125" y2="1439.3125"/><line style="stroke:#181818;stroke-width:1.0;stroke-dasharray:2.0,2.0;" x1="945" x2="945" y1="1439.3125" y2="1452.3125"/><line style="stroke:#181818;stroke-width:1.0;stroke-dasharray:2.0,2.0;" x1="898" x2="945" y1="1452.3125" y2="1452.3125"/><polygon fill="#181818" points="908,1448.3125,898,1452.3125,908,1456.3125,904,1452.3125" style="stroke:#181818;stroke-width:1.0;"/><text fill="#000000" font-family="sans-serif" font-size="20" font-weight="bold" lengthAdjust="spacing" textLength="22" x="910" y="1432.918">33</text><text fill="#000000" font-family="sans-serif" font-size="20" lengthAdjust="spacing" textLength="145" x="936" y="1432.918">droneRepository</text><polygon fill="#181818" points="1591,1507.4688,1601,1511.4688,1591,1515.4688,1595,1511.4688" style="stroke:#181818;stroke-width:1.0;"/><line style="stroke:#181818;stroke-width:1.0;" x1="898" x2="1597" y1="1511.4688" y2="1511.4688"/><text fill="#000000" font-family="sans-serif" font-size="20" font-weight="bold" lengthAdjust="spacing" textLength="22" x="905" y="1505.0742">34</text><text fill="#000000" font-family="sans-serif" font-size="20" lengthAdjust="spacing" textLength="212" x="931" y="1505.0742">listDrone(activateDrone)</text><polygon fill="#181818" points="1864.5,1546.625,1874.5,1550.625,1864.5,1554.625,1868.5,1550.625" style="stroke:#181818;stroke-width:1.0;"/><line style="stroke:#181818;stroke-width:1.0;" x1="1613" x2="1870.5" y1="1550.625" y2="1550.625"/><text fill="#000000" font-family="sans-serif" font-size="20" font-weight="bold" lengthAdjust="spacing" textLength="22" x="1620" y="1544.2305">35</text><text fill="#000000" font-family="sans-serif" font-size="20" lengthAdjust="spacing" textLength="159" x="1646" y="1544.2305">list(activateDrone)</text><rect fill="#E2E2F0" height="64.3125" rx="2.5" ry="2.5" style="stroke:#181818;stroke-width:0.5;" width="73" x="1876.5" y="1519.4688"/><text fill="#000000" font-family="sans-serif" font-size="20" lengthAdjust="spacing" textLength="50" x="1888" y="1547.2305">drone</text><text fill="#000000" font-family="sans-serif" font-size="20" lengthAdjust="spacing" textLength="59" x="1883.5" y="1572.3867">:Drone</text><line style="stroke:#181818;stroke-width:1.0;" x1="1613" x2="1660" y1="1620.9375" y2="1620.9375"/><line style="stroke:#181818;stroke-width:1.0;" x1="1660" x2="1660" y1="1620.9375" y2="1633.9375"/><line style="stroke:#181818;stroke-width:1.0;" x1="1619" x2="1660" y1="1633.9375" y2="1633.9375"/><polygon fill="#181818" points="1629,1629.9375,1619,1633.9375,1629,1637.9375,1625,1633.9375" style="stroke:#181818;stroke-width:1.0;"/><text fill="#000000" font-family="sans-serif" font-size="20" font-weight="bold" lengthAdjust="spacing" textLength="22" x="1625" y="1614.543">36</text><text fill="#000000" font-family="sans-serif" font-size="20" lengthAdjust="spacing" textLength="255" x="1651" y="1614.543">validateDrone(activateDrone)</text><line style="stroke:#181818;stroke-width:1.0;stroke-dasharray:2.0,2.0;" x1="1618" x2="1660" y1="1683.0938" y2="1683.0938"/><line style="stroke:#181818;stroke-width:1.0;stroke-dasharray:2.0,2.0;" x1="1660" x2="1660" y1="1683.0938" y2="1696.0938"/><line style="stroke:#181818;stroke-width:1.0;stroke-dasharray:2.0,2.0;" x1="1613" x2="1660" y1="1696.0938" y2="1696.0938"/><polygon fill="#181818" points="1623,1692.0938,1613,1696.0938,1623,1700.0938,1619,1696.0938" style="stroke:#181818;stroke-width:1.0;"/><text fill="#000000" font-family="sans-serif" font-size="20" font-weight="bold" lengthAdjust="spacing" textLength="22" x="1625" y="1676.6992">37</text><text fill="#000000" font-family="sans-serif" font-size="20" lengthAdjust="spacing" textLength="34" x="1651" y="1676.6992">true</text><polygon fill="#181818" points="909,1726.25,899,1730.25,909,1734.25,905,1730.25" style="stroke:#181818;stroke-width:1.0;"/><line style="stroke:#181818;stroke-width:1.0;stroke-dasharray:2.0,2.0;" x1="903" x2="1607" y1="1730.25" y2="1730.25"/><text fill="#000000" font-family="sans-serif" font-size="20" font-weight="bold" lengthAdjust="spacing" textLength="22" x="915" y="1723.8555">38</text><text fill="#000000" font-family="sans-serif" font-size="20" lengthAdjust="spacing" textLength="34" x="941" y="1723.8555">true</text><polygon fill="#181818" points="639,1765.4063,629,1769.4063,639,1773.4063,635,1769.4063" style="stroke:#181818;stroke-width:1.0;"/><line style="stroke:#181818;stroke-width:1.0;stroke-dasharray:2.0,2.0;" x1="633" x2="892" y1="1769.4063" y2="1769.4063"/><text fill="#000000" font-family="sans-serif" font-size="20" font-weight="bold" lengthAdjust="spacing" textLength="22" x="645" y="1763.0117">39</text><text fill="#000000" font-family="sans-serif" font-size="20" lengthAdjust="spacing" textLength="34" x="671" y="1763.0117">true</text><polygon fill="#181818" points="67,1804.5625,57,1808.5625,67,1812.5625,63,1808.5625" style="stroke:#181818;stroke-width:1.0;"/><line style="stroke:#181818;stroke-width:1.0;stroke-dasharray:2.0,2.0;" x1="61" x2="622" y1="1808.5625" y2="1808.5625"/><text fill="#000000" font-family="sans-serif" font-size="20" font-weight="bold" lengthAdjust="spacing" textLength="22" x="73" y="1802.168">40</text><text fill="#000000" font-family="sans-serif" font-size="20" lengthAdjust="spacing" textLength="236" x="99" y="1802.168">displays operation success</text><!--SRC=[fLTDR-8m4BtxLunwQOjKQRL73fLMXQwGMbW1lQrKkSa05ewTZKsxNVN7hsEJu8HyEArF9CoyyOpdlN7KdecKPZJXCjfZ335kw87hUodqYlr3-FwDNAh21X8fPBJBP8AWimEIqpyfZVPqYolzpX4oZ3GLM-uRg1sDvHiJMzXGhf0GUj1I798Np0YvtB4OOIEbVf5_2OsqpE1Yaac1Quns5q0LJ2ThOf0qYrXAXOQByGDJsjeypQp5qwpDuCvaaqdECRE6T-lbGzLqYQbKp4HbgAp9SlfhiQhQP9xDRp5kTdbUpUO_7wRhnRpgdCWOUUdoRlmVgsyinEDYyfp3L7tZF8MAxwJwnlfEblCstyBZQBUOJqbUO_PADTgw4ZWkym0tjwQIC3QsUmLQ0ZTL12h0UY1OnDAXX3751syPX1i3b5TwD39WKOR6wkgQd5av8sEoHNTOjZ3vqHbhQ5bbM7kKqB4ik0bYJyT5cGbbkZF23lnA3DSBqBDSW2BfCVZjqkaSOorIU3wdRdEPrNfgK89UvmQbwiK-9Lrhyq5vUni8ga115Y_rdgwf95rohI_RCixDgLUJ8bfeXa7HN6O5__fZUFXjF3ZoCEVrs4YmV3EKtg7ZjDniW7Bk6Et2AKFqE6T-Jdo5tEWu-7JltaHD0w19LN9GhJf1UpJ5mkmHqmdLz2ek9UEwKrf-MFMo0jFG9Trr7AOX0RenI2lwzQ5J4sgpedV3FJhGpltQc29VuNkHKJ7Kci-mxUmhIPLpiIcR4j_ZDgr6wSgZ5RlAv2x4EeV9KFQMxhOQVGIkifMuSCtyz95iH2PiT2PUKPGdN2Th8qaB8rk2QtAMMeP_3gXCs4YA3SiIgfaKf5bT_CqUpHLfausA2l3YEjYqdnuLA1hIjNeGhVhlBK4kPmGVSeVfqALWln3D2WORTja94Bal74QdzdsgF9_InK_SZyBhrRgB88oFZu-XTO3GomePSkZU7EXbSPZwdvJ_rdqImMZamBjmcxtTxp6yKixYmZ449cn8dGqghnhsAxodt2Ku2Hb_PuYzIDwmwtO_azNJ430DobJAwRiPFIbcTW20EaGHAjKm28Ztc7_0_WS0]--></g></svg>