<?xml version="1.0" encoding="UTF-8" standalone="no"?><svg xmlns="http://www.w3.org/2000/svg" xmlns:xlink="http://www.w3.org/1999/xlink" contentStyleType="text/css" height="1164px" preserveAspectRatio="none" style="width:1978px;height:1164px;background:#FFFFFF;" version="1.1" viewBox="0 0 1978 1164" width="1978px" zoomAndPan="magnify"><defs/><g><rect fill="#FFFFFF" height="956.9063" style="stroke:#181818;stroke-width:1.0;" width="10" x="51" y="100.1563"/><rect fill="#FFFFFF" height="430.7188" style="stroke:#181818;stroke-width:1.0;" width="10" x="603" y="156.4688"/><rect fill="#FFFFFF" height="430.7188" style="stroke:#181818;stroke-width:1.0;" width="10" x="603" y="626.3438"/><rect fill="#FFFFFF" height="352.4063" style="stroke:#181818;stroke-width:1.0;" width="10" x="920" y="195.625"/><rect fill="#FFFFFF" height="352.4063" style="stroke:#181818;stroke-width:1.0;" width="10" x="920" y="665.5"/><rect fill="#FFFFFF" height="39.1563" style="stroke:#181818;stroke-width:1.0;" width="10" x="1165" y="234.7813"/><rect fill="#FFFFFF" height="39.1563" style="stroke:#181818;stroke-width:1.0;" width="10" x="1165" y="704.6563"/><rect fill="#FFFFFF" height="39.1563" style="stroke:#181818;stroke-width:1.0;" width="10" x="1327.5" y="313.0938"/><rect fill="#FFFFFF" height="39.1563" style="stroke:#181818;stroke-width:1.0;" width="10" x="1327.5" y="782.9688"/><rect fill="#FFFFFF" height="39.1563" style="stroke:#181818;stroke-width:1.0;" width="10" x="1519.5" y="391.4063"/><rect fill="#FFFFFF" height="39.1563" style="stroke:#181818;stroke-width:1.0;" width="10" x="1519.5" y="861.2813"/><rect fill="#FFFFFF" height="39.1563" style="stroke:#181818;stroke-width:1.0;" width="10" x="1705" y="469.7188"/><rect fill="#FFFFFF" height="39.1563" style="stroke:#181818;stroke-width:1.0;" width="10" x="1883.5" y="939.5938"/><line style="stroke:#181818;stroke-width:0.5;stroke-dasharray:5.0,5.0;" x1="56" x2="56" y1="90.1563" y2="1075.0625"/><line style="stroke:#181818;stroke-width:0.5;stroke-dasharray:5.0,5.0;" x1="607.5" x2="607.5" y1="90.1563" y2="1075.0625"/><line style="stroke:#181818;stroke-width:0.5;stroke-dasharray:5.0,5.0;" x1="924.5" x2="924.5" y1="90.1563" y2="1075.0625"/><line style="stroke:#181818;stroke-width:0.5;stroke-dasharray:5.0,5.0;" x1="1169.5" x2="1169.5" y1="90.1563" y2="1075.0625"/><line style="stroke:#181818;stroke-width:0.5;stroke-dasharray:5.0,5.0;" x1="1332.5" x2="1332.5" y1="90.1563" y2="1075.0625"/><line style="stroke:#181818;stroke-width:0.5;stroke-dasharray:5.0,5.0;" x1="1524.5" x2="1524.5" y1="90.1563" y2="1075.0625"/><line style="stroke:#181818;stroke-width:0.5;stroke-dasharray:5.0,5.0;" x1="1709.5" x2="1709.5" y1="90.1563" y2="1075.0625"/><line style="stroke:#181818;stroke-width:0.5;stroke-dasharray:5.0,5.0;" x1="1888.5" x2="1888.5" y1="90.1563" y2="1075.0625"/><text fill="#000000" font-family="sans-serif" font-size="20" lengthAdjust="spacing" textLength="96" x="5" y="85.7617">DroneTech</text><ellipse cx="56" cy="13.5" fill="#E2E2F0" rx="8" ry="8" style="stroke:#181818;stroke-width:0.5;"/><path d="M56,21.5 L56,48.5 M43,29.5 L69,29.5 M56,48.5 L43,63.5 M56,48.5 L69,63.5 " fill="none" style="stroke:#181818;stroke-width:0.5;"/><text fill="#000000" font-family="sans-serif" font-size="20" lengthAdjust="spacing" textLength="96" x="5" y="1094.8242">DroneTech</text><ellipse cx="56" cy="1107.7188" fill="#E2E2F0" rx="8" ry="8" style="stroke:#181818;stroke-width:0.5;"/><path d="M56,1115.7188 L56,1142.7188 M43,1123.7188 L69,1123.7188 M56,1142.7188 L43,1157.7188 M56,1142.7188 L69,1157.7188 " fill="none" style="stroke:#181818;stroke-width:0.5;"/><rect fill="#E2E2F0" height="39.1563" rx="2.5" ry="2.5" style="stroke:#181818;stroke-width:0.5;" width="123" x="546.5" y="50"/><text fill="#000000" font-family="sans-serif" font-size="20" lengthAdjust="spacing" textLength="109" x="553.5" y="77.7617">:ListDroneUI</text><rect fill="#E2E2F0" height="39.1563" rx="2.5" ry="2.5" style="stroke:#181818;stroke-width:0.5;" width="123" x="546.5" y="1074.0625"/><text fill="#000000" font-family="sans-serif" font-size="20" lengthAdjust="spacing" textLength="109" x="553.5" y="1101.8242">:ListDroneUI</text><rect fill="#E2E2F0" height="39.1563" rx="2.5" ry="2.5" style="stroke:#181818;stroke-width:0.5;" width="189" x="830.5" y="50"/><text fill="#000000" font-family="sans-serif" font-size="20" lengthAdjust="spacing" textLength="175" x="837.5" y="77.7617">:ListDroneController</text><rect fill="#E2E2F0" height="39.1563" rx="2.5" ry="2.5" style="stroke:#181818;stroke-width:0.5;" width="189" x="830.5" y="1074.0625"/><text fill="#000000" font-family="sans-serif" font-size="20" lengthAdjust="spacing" textLength="175" x="837.5" y="1101.8242">:ListDroneController</text><rect fill="#E2E2F0" height="39.1563" rx="2.5" ry="2.5" style="stroke:#181818;stroke-width:0.5;" width="123" x="1108.5" y="50"/><text fill="#000000" font-family="sans-serif" font-size="20" lengthAdjust="spacing" textLength="109" x="1115.5" y="77.7617">:Persistence</text><rect fill="#E2E2F0" height="39.1563" rx="2.5" ry="2.5" style="stroke:#181818;stroke-width:0.5;" width="123" x="1108.5" y="1074.0625"/><text fill="#000000" font-family="sans-serif" font-size="20" lengthAdjust="spacing" textLength="109" x="1115.5" y="1101.8242">:Persistence</text><rect fill="#E2E2F0" height="39.1563" rx="2.5" ry="2.5" style="stroke:#181818;stroke-width:0.5;" width="182" x="1241.5" y="50"/><text fill="#000000" font-family="sans-serif" font-size="20" lengthAdjust="spacing" textLength="168" x="1248.5" y="77.7617">:RepositoryFactory</text><rect fill="#E2E2F0" height="39.1563" rx="2.5" ry="2.5" style="stroke:#181818;stroke-width:0.5;" width="182" x="1241.5" y="1074.0625"/><text fill="#000000" font-family="sans-serif" font-size="20" lengthAdjust="spacing" textLength="168" x="1248.5" y="1101.8242">:RepositoryFactory</text><rect fill="#E2E2F0" height="64.3125" rx="2.5" ry="2.5" style="stroke:#181818;stroke-width:0.5;" width="182" x="1433.5" y="24.8438"/><text fill="#000000" font-family="sans-serif" font-size="20" lengthAdjust="spacing" textLength="155" x="1447" y="52.6055">repositoryFactory</text><text fill="#000000" font-family="sans-serif" font-size="20" lengthAdjust="spacing" textLength="168" x="1440.5" y="77.7617">:RepositoryFactory</text><rect fill="#E2E2F0" height="64.3125" rx="2.5" ry="2.5" style="stroke:#181818;stroke-width:0.5;" width="182" x="1433.5" y="1074.0625"/><text fill="#000000" font-family="sans-serif" font-size="20" lengthAdjust="spacing" textLength="155" x="1447" y="1101.8242">repositoryFactory</text><text fill="#000000" font-family="sans-serif" font-size="20" lengthAdjust="spacing" textLength="168" x="1440.5" y="1126.9805">:RepositoryFactory</text><rect fill="#E2E2F0" height="64.3125" rx="2.5" ry="2.5" style="stroke:#181818;stroke-width:0.5;" width="169" x="1625.5" y="24.8438"/><text fill="#000000" font-family="sans-serif" font-size="20" lengthAdjust="spacing" textLength="148" x="1636" y="52.6055">modelRepository</text><text fill="#000000" font-family="sans-serif" font-size="20" lengthAdjust="spacing" textLength="155" x="1632.5" y="77.7617">:ModelRepository</text><rect fill="#E2E2F0" height="64.3125" rx="2.5" ry="2.5" style="stroke:#181818;stroke-width:0.5;" width="169" x="1625.5" y="1074.0625"/><text fill="#000000" font-family="sans-serif" font-size="20" lengthAdjust="spacing" textLength="148" x="1636" y="1101.8242">modelRepository</text><text fill="#000000" font-family="sans-serif" font-size="20" lengthAdjust="spacing" textLength="155" x="1632.5" y="1126.9805">:ModelRepository</text><rect fill="#E2E2F0" height="64.3125" rx="2.5" ry="2.5" style="stroke:#181818;stroke-width:0.5;" width="168" x="1804.5" y="24.8438"/><text fill="#000000" font-family="sans-serif" font-size="20" lengthAdjust="spacing" textLength="145" x="1816" y="52.6055">droneRepository</text><text fill="#000000" font-family="sans-serif" font-size="20" lengthAdjust="spacing" textLength="154" x="1811.5" y="77.7617">:DroneRepository</text><rect fill="#E2E2F0" height="64.3125" rx="2.5" ry="2.5" style="stroke:#181818;stroke-width:0.5;" width="168" x="1804.5" y="1074.0625"/><text fill="#000000" font-family="sans-serif" font-size="20" lengthAdjust="spacing" textLength="145" x="1816" y="1101.8242">droneRepository</text><text fill="#000000" font-family="sans-serif" font-size="20" lengthAdjust="spacing" textLength="154" x="1811.5" y="1126.9805">:DroneRepository</text><rect fill="#FFFFFF" height="956.9063" style="stroke:#181818;stroke-width:1.0;" width="10" x="51" y="100.1563"/><rect fill="#FFFFFF" height="430.7188" style="stroke:#181818;stroke-width:1.0;" width="10" x="603" y="156.4688"/><rect fill="#FFFFFF" height="430.7188" style="stroke:#181818;stroke-width:1.0;" width="10" x="603" y="626.3438"/><rect fill="#FFFFFF" height="352.4063" style="stroke:#181818;stroke-width:1.0;" width="10" x="920" y="195.625"/><rect fill="#FFFFFF" height="352.4063" style="stroke:#181818;stroke-width:1.0;" width="10" x="920" y="665.5"/><rect fill="#FFFFFF" height="39.1563" style="stroke:#181818;stroke-width:1.0;" width="10" x="1165" y="234.7813"/><rect fill="#FFFFFF" height="39.1563" style="stroke:#181818;stroke-width:1.0;" width="10" x="1165" y="704.6563"/><rect fill="#FFFFFF" height="39.1563" style="stroke:#181818;stroke-width:1.0;" width="10" x="1327.5" y="313.0938"/><rect fill="#FFFFFF" height="39.1563" style="stroke:#181818;stroke-width:1.0;" width="10" x="1327.5" y="782.9688"/><rect fill="#FFFFFF" height="39.1563" style="stroke:#181818;stroke-width:1.0;" width="10" x="1519.5" y="391.4063"/><rect fill="#FFFFFF" height="39.1563" style="stroke:#181818;stroke-width:1.0;" width="10" x="1519.5" y="861.2813"/><rect fill="#FFFFFF" height="39.1563" style="stroke:#181818;stroke-width:1.0;" width="10" x="1705" y="469.7188"/><rect fill="#FFFFFF" height="39.1563" style="stroke:#181818;stroke-width:1.0;" width="10" x="1883.5" y="939.5938"/><polygon fill="#181818" points="591,152.4688,601,156.4688,591,160.4688,595,156.4688" style="stroke:#181818;stroke-width:1.0;"/><line style="stroke:#181818;stroke-width:1.0;" x1="61" x2="597" y1="156.4688" y2="156.4688"/><text fill="#000000" font-family="sans-serif" font-size="20" font-weight="bold" lengthAdjust="spacing" textLength="11" x="68" y="137.4961">1</text><text fill="#000000" font-family="sans-serif" font-size="20" lengthAdjust="spacing" textLength="176" x="83" y="124.918">asks to list all active</text><text fill="#000000" font-family="sans-serif" font-size="20" lengthAdjust="spacing" textLength="319" x="83" y="150.0742">drones from a model in the inventory</text><polygon fill="#181818" points="908,191.625,918,195.625,908,199.625,912,195.625" style="stroke:#181818;stroke-width:1.0;"/><line style="stroke:#181818;stroke-width:1.0;" x1="613" x2="914" y1="195.625" y2="195.625"/><text fill="#000000" font-family="sans-serif" font-size="20" font-weight="bold" lengthAdjust="spacing" textLength="11" x="620" y="189.2305">2</text><text fill="#000000" font-family="sans-serif" font-size="20" lengthAdjust="spacing" textLength="102" x="635" y="189.2305">listModels()</text><polygon fill="#181818" points="1153,230.7813,1163,234.7813,1153,238.7813,1157,234.7813" style="stroke:#181818;stroke-width:1.0;"/><line style="stroke:#181818;stroke-width:1.0;" x1="930" x2="1159" y1="234.7813" y2="234.7813"/><text fill="#000000" font-family="sans-serif" font-size="20" font-weight="bold" lengthAdjust="spacing" textLength="11" x="937" y="228.3867">3</text><text fill="#000000" font-family="sans-serif" font-size="20" lengthAdjust="spacing" textLength="190" x="952" y="228.3867">getRepositoryFactory</text><polygon fill="#181818" points="941,269.9375,931,273.9375,941,277.9375,937,273.9375" style="stroke:#181818;stroke-width:1.0;"/><line style="stroke:#181818;stroke-width:1.0;stroke-dasharray:2.0,2.0;" x1="935" x2="1169" y1="273.9375" y2="273.9375"/><text fill="#000000" font-family="sans-serif" font-size="20" font-weight="bold" lengthAdjust="spacing" textLength="11" x="947" y="267.543">4</text><text fill="#000000" font-family="sans-serif" font-size="20" lengthAdjust="spacing" textLength="155" x="962" y="267.543">repositoryFactory</text><polygon fill="#181818" points="1315.5,309.0938,1325.5,313.0938,1315.5,317.0938,1319.5,313.0938" style="stroke:#181818;stroke-width:1.0;"/><line style="stroke:#181818;stroke-width:1.0;" x1="930" x2="1321.5" y1="313.0938" y2="313.0938"/><text fill="#000000" font-family="sans-serif" font-size="20" font-weight="bold" lengthAdjust="spacing" textLength="11" x="937" y="306.6992">5</text><text fill="#000000" font-family="sans-serif" font-size="20" lengthAdjust="spacing" textLength="116" x="952" y="306.6992">getInstance()</text><polygon fill="#181818" points="941,348.25,931,352.25,941,356.25,937,352.25" style="stroke:#181818;stroke-width:1.0;"/><line style="stroke:#181818;stroke-width:1.0;stroke-dasharray:2.0,2.0;" x1="935" x2="1331.5" y1="352.25" y2="352.25"/><text fill="#000000" font-family="sans-serif" font-size="20" font-weight="bold" lengthAdjust="spacing" textLength="11" x="947" y="345.8555">6</text><text fill="#000000" font-family="sans-serif" font-size="20" lengthAdjust="spacing" textLength="103" x="962" y="345.8555">repositories</text><polygon fill="#181818" points="1507.5,387.4063,1517.5,391.4063,1507.5,395.4063,1511.5,391.4063" style="stroke:#181818;stroke-width:1.0;"/><line style="stroke:#181818;stroke-width:1.0;" x1="930" x2="1513.5" y1="391.4063" y2="391.4063"/><text fill="#000000" font-family="sans-serif" font-size="20" font-weight="bold" lengthAdjust="spacing" textLength="11" x="937" y="385.0117">7</text><text fill="#000000" font-family="sans-serif" font-size="20" lengthAdjust="spacing" textLength="191" x="952" y="385.0117">getModelRepository()</text><polygon fill="#181818" points="941,426.5625,931,430.5625,941,434.5625,937,430.5625" style="stroke:#181818;stroke-width:1.0;"/><line style="stroke:#181818;stroke-width:1.0;stroke-dasharray:2.0,2.0;" x1="935" x2="1523.5" y1="430.5625" y2="430.5625"/><text fill="#000000" font-family="sans-serif" font-size="20" font-weight="bold" lengthAdjust="spacing" textLength="11" x="947" y="424.168">8</text><text fill="#000000" font-family="sans-serif" font-size="20" lengthAdjust="spacing" textLength="148" x="962" y="424.168">modelRepository</text><polygon fill="#181818" points="1693,465.7188,1703,469.7188,1693,473.7188,1697,469.7188" style="stroke:#181818;stroke-width:1.0;"/><line style="stroke:#181818;stroke-width:1.0;" x1="930" x2="1699" y1="469.7188" y2="469.7188"/><text fill="#000000" font-family="sans-serif" font-size="20" font-weight="bold" lengthAdjust="spacing" textLength="11" x="937" y="463.3242">9</text><text fill="#000000" font-family="sans-serif" font-size="20" lengthAdjust="spacing" textLength="102" x="952" y="463.3242">listModels()</text><polygon fill="#181818" points="941,504.875,931,508.875,941,512.875,937,508.875" style="stroke:#181818;stroke-width:1.0;"/><line style="stroke:#181818;stroke-width:1.0;stroke-dasharray:2.0,2.0;" x1="935" x2="1709" y1="508.875" y2="508.875"/><text fill="#000000" font-family="sans-serif" font-size="20" font-weight="bold" lengthAdjust="spacing" textLength="22" x="947" y="502.4805">10</text><text fill="#000000" font-family="sans-serif" font-size="20" lengthAdjust="spacing" textLength="84" x="973" y="502.4805">modelList</text><polygon fill="#181818" points="624,544.0313,614,548.0313,624,552.0313,620,548.0313" style="stroke:#181818;stroke-width:1.0;"/><line style="stroke:#181818;stroke-width:1.0;stroke-dasharray:2.0,2.0;" x1="618" x2="924" y1="548.0313" y2="548.0313"/><text fill="#000000" font-family="sans-serif" font-size="20" font-weight="bold" lengthAdjust="spacing" textLength="22" x="630" y="541.6367">11</text><text fill="#000000" font-family="sans-serif" font-size="20" lengthAdjust="spacing" textLength="84" x="656" y="541.6367">modelList</text><polygon fill="#181818" points="72,583.1875,62,587.1875,72,591.1875,68,587.1875" style="stroke:#181818;stroke-width:1.0;"/><line style="stroke:#181818;stroke-width:1.0;stroke-dasharray:2.0,2.0;" x1="66" x2="607" y1="587.1875" y2="587.1875"/><text fill="#000000" font-family="sans-serif" font-size="20" font-weight="bold" lengthAdjust="spacing" textLength="22" x="78" y="580.793">12</text><text fill="#000000" font-family="sans-serif" font-size="20" lengthAdjust="spacing" textLength="492" x="104" y="580.793">shows the list off all drone models and ask to select one</text><polygon fill="#181818" points="591,622.3438,601,626.3438,591,630.3438,595,626.3438" style="stroke:#181818;stroke-width:1.0;"/><line style="stroke:#181818;stroke-width:1.0;" x1="61" x2="597" y1="626.3438" y2="626.3438"/><text fill="#000000" font-family="sans-serif" font-size="20" font-weight="bold" lengthAdjust="spacing" textLength="22" x="68" y="619.9492">13</text><text fill="#000000" font-family="sans-serif" font-size="20" lengthAdjust="spacing" textLength="90" x="94" y="619.9492">selets one</text><polygon fill="#181818" points="908,661.5,918,665.5,908,669.5,912,665.5" style="stroke:#181818;stroke-width:1.0;"/><line style="stroke:#181818;stroke-width:1.0;" x1="613" x2="914" y1="665.5" y2="665.5"/><text fill="#000000" font-family="sans-serif" font-size="20" font-weight="bold" lengthAdjust="spacing" textLength="22" x="620" y="659.1055">14</text><text fill="#000000" font-family="sans-serif" font-size="20" lengthAdjust="spacing" textLength="262" x="646" y="659.1055">getDrnModelList(droneModel)</text><polygon fill="#181818" points="1153,700.6563,1163,704.6563,1153,708.6563,1157,704.6563" style="stroke:#181818;stroke-width:1.0;"/><line style="stroke:#181818;stroke-width:1.0;" x1="930" x2="1159" y1="704.6563" y2="704.6563"/><text fill="#000000" font-family="sans-serif" font-size="20" font-weight="bold" lengthAdjust="spacing" textLength="22" x="937" y="698.2617">15</text><text fill="#000000" font-family="sans-serif" font-size="20" lengthAdjust="spacing" textLength="190" x="963" y="698.2617">getRepositoryFactory</text><polygon fill="#181818" points="941,739.8125,931,743.8125,941,747.8125,937,743.8125" style="stroke:#181818;stroke-width:1.0;"/><line style="stroke:#181818;stroke-width:1.0;stroke-dasharray:2.0,2.0;" x1="935" x2="1169" y1="743.8125" y2="743.8125"/><text fill="#000000" font-family="sans-serif" font-size="20" font-weight="bold" lengthAdjust="spacing" textLength="22" x="947" y="737.418">16</text><text fill="#000000" font-family="sans-serif" font-size="20" lengthAdjust="spacing" textLength="155" x="973" y="737.418">reposirotyFactory</text><polygon fill="#181818" points="1315.5,778.9688,1325.5,782.9688,1315.5,786.9688,1319.5,782.9688" style="stroke:#181818;stroke-width:1.0;"/><line style="stroke:#181818;stroke-width:1.0;" x1="930" x2="1321.5" y1="782.9688" y2="782.9688"/><text fill="#000000" font-family="sans-serif" font-size="20" font-weight="bold" lengthAdjust="spacing" textLength="22" x="937" y="776.5742">17</text><text fill="#000000" font-family="sans-serif" font-size="20" lengthAdjust="spacing" textLength="116" x="963" y="776.5742">getInstance()</text><polygon fill="#181818" points="941,818.125,931,822.125,941,826.125,937,822.125" style="stroke:#181818;stroke-width:1.0;"/><line style="stroke:#181818;stroke-width:1.0;stroke-dasharray:2.0,2.0;" x1="935" x2="1331.5" y1="822.125" y2="822.125"/><text fill="#000000" font-family="sans-serif" font-size="20" font-weight="bold" lengthAdjust="spacing" textLength="22" x="947" y="815.7305">18</text><text fill="#000000" font-family="sans-serif" font-size="20" lengthAdjust="spacing" textLength="103" x="973" y="815.7305">repositories</text><polygon fill="#181818" points="1507.5,857.2813,1517.5,861.2813,1507.5,865.2813,1511.5,861.2813" style="stroke:#181818;stroke-width:1.0;"/><line style="stroke:#181818;stroke-width:1.0;" x1="930" x2="1513.5" y1="861.2813" y2="861.2813"/><text fill="#000000" font-family="sans-serif" font-size="20" font-weight="bold" lengthAdjust="spacing" textLength="22" x="937" y="854.8867">19</text><text fill="#000000" font-family="sans-serif" font-size="20" lengthAdjust="spacing" textLength="190" x="963" y="854.8867">getDroneRepository()</text><polygon fill="#181818" points="941,896.4375,931,900.4375,941,904.4375,937,900.4375" style="stroke:#181818;stroke-width:1.0;"/><line style="stroke:#181818;stroke-width:1.0;stroke-dasharray:2.0,2.0;" x1="935" x2="1523.5" y1="900.4375" y2="900.4375"/><text fill="#000000" font-family="sans-serif" font-size="20" font-weight="bold" lengthAdjust="spacing" textLength="22" x="947" y="894.043">20</text><text fill="#000000" font-family="sans-serif" font-size="20" lengthAdjust="spacing" textLength="145" x="973" y="894.043">droneRepository</text><polygon fill="#181818" points="1871.5,935.5938,1881.5,939.5938,1871.5,943.5938,1875.5,939.5938" style="stroke:#181818;stroke-width:1.0;"/><line style="stroke:#181818;stroke-width:1.0;" x1="930" x2="1877.5" y1="939.5938" y2="939.5938"/><text fill="#000000" font-family="sans-serif" font-size="20" font-weight="bold" lengthAdjust="spacing" textLength="22" x="937" y="933.1992">21</text><text fill="#000000" font-family="sans-serif" font-size="20" lengthAdjust="spacing" textLength="262" x="963" y="933.1992">getDrnModelList(droneModel)</text><polygon fill="#181818" points="941,974.75,931,978.75,941,982.75,937,978.75" style="stroke:#181818;stroke-width:1.0;"/><line style="stroke:#181818;stroke-width:1.0;stroke-dasharray:2.0,2.0;" x1="935" x2="1887.5" y1="978.75" y2="978.75"/><text fill="#000000" font-family="sans-serif" font-size="20" font-weight="bold" lengthAdjust="spacing" textLength="22" x="947" y="972.3555">22</text><text fill="#000000" font-family="sans-serif" font-size="20" lengthAdjust="spacing" textLength="113" x="973" y="972.3555">drnModelList</text><polygon fill="#181818" points="624,1013.9063,614,1017.9063,624,1021.9063,620,1017.9063" style="stroke:#181818;stroke-width:1.0;"/><line style="stroke:#181818;stroke-width:1.0;stroke-dasharray:2.0,2.0;" x1="618" x2="924" y1="1017.9063" y2="1017.9063"/><text fill="#000000" font-family="sans-serif" font-size="20" font-weight="bold" lengthAdjust="spacing" textLength="22" x="630" y="1011.5117">23</text><text fill="#000000" font-family="sans-serif" font-size="20" lengthAdjust="spacing" textLength="113" x="656" y="1011.5117">drnModelList</text><polygon fill="#181818" points="67,1053.0625,57,1057.0625,67,1061.0625,63,1057.0625" style="stroke:#181818;stroke-width:1.0;"/><line style="stroke:#181818;stroke-width:1.0;stroke-dasharray:2.0,2.0;" x1="61" x2="607" y1="1057.0625" y2="1057.0625"/><text fill="#000000" font-family="sans-serif" font-size="20" font-weight="bold" lengthAdjust="spacing" textLength="22" x="73" y="1050.668">24</text><text fill="#000000" font-family="sans-serif" font-size="20" lengthAdjust="spacing" textLength="471" x="99" y="1050.668">show drone model list and displays operation success</text><!--SRC=[hLPDR-8m4BtxLuouj3rKMksnXxqKkaBYem9wgrIvoG0MnaQsQPVzzJjsoET2S12-H4d6y-QDPzxOReJQSSEtKYSRJ2759TzBzwALcuk_23z_i3kRsy1MAvsiZTuYEBD7LlxPyMJ3LpXt1ubWC75ShMJLmAvvgh-5Mi6IIukCyRtJQh_zHCFOtLga24kjtQV-mtZYj85UtsY52qpMFU0M1lq58qzE96B7bOFUqqXO5spUXi7YRNZEu9dO62qbcc3ul9YD6gQlQ2nPeqemcBmEPlE6oGntsWgAxF0I0Zm4mzdWTTgmD4t3TzMs-MC-dFmU3HRJITtDLgSeottaP5p_4boCf_qFxwQ-D_MiQtlxzIzXRtysoVRwZ8ilxZ1acS5nqGiy_gAymXEPRomu3PAo15nA25iGtbN0ih2agW0E8MeG2jmQwV65oiCLBWiWEYoeBC8W97ymXEKn0bTx_r2pggx2KpXDQ5d1AtdtPqhUL-Z-EutM_GLIA8esou3mM18ndN1IZ4VAEOKAoaWDbQMcIx0bPpKsMUN2XPK1v9mgb0JQM3OPKZoViYCoPeswxqImqbrHL2lO9Ub6AtRYNGaWAWDvGyVsGOroeGQNk1OebMeDBBrcnlABGijuvJ9o6QFY_rndUx4WXrwUdcYkw6yRr2P8arukWpm5LShWB72LUW7p-cLHqd02-idYI3Q42aw9etVgRAlJgh-o46goHvNUDsgSP-W-K0Yl3woxwjrI0MDNl7x5hjEAQhIxQTnTbFUiQdKHuHP1xageLQ3P5Hde6COPvJwMS-tISNLIOZMqawWtxaXNfwh3XBcKm_n25gS5LtTdSU-xrbFke9RDCbfsWpuy6UEf_-pCi6a9gMt4bBCb6otLGNAy_D8mIONTINuWoT-XuKve1NQV96YpEr5zVB3AgxzV_mC0]--></g></svg>