<?xml version="1.0" encoding="UTF-8" standalone="no"?><svg xmlns="http://www.w3.org/2000/svg" xmlns:xlink="http://www.w3.org/1999/xlink" contentStyleType="text/css" height="1709px" preserveAspectRatio="none" style="width:2157px;height:1709px;background:#FFFFFF;" version="1.1" viewBox="0 0 2157 1709" width="2157px" zoomAndPan="magnify"><defs/><g><rect fill="#FFFFFF" height="1501.625" style="stroke:#181818;stroke-width:1.0;" width="10" x="51" y="100.1563"/><rect fill="#FFFFFF" height="480.875" style="stroke:#181818;stroke-width:1.0;" width="10" x="603" y="156.4688"/><rect fill="#FFFFFF" height="91.3125" style="stroke:#181818;stroke-width:1.0;" width="10" x="603" y="676.5"/><rect fill="#FFFFFF" height="794.8125" style="stroke:#181818;stroke-width:1.0;" width="10" x="603" y="806.9688"/><rect fill="#FFFFFF" height="352.4063" style="stroke:#181818;stroke-width:1.0;" width="10" x="856" y="245.7813"/><rect fill="#FFFFFF" height="716.5" style="stroke:#181818;stroke-width:1.0;" width="10" x="856" y="846.125"/><rect fill="#FFFFFF" height="363.4063" style="stroke:#181818;stroke-width:1.0;" width="10" x="861" y="893.2813"/><rect fill="#FFFFFF" height="39.1563" style="stroke:#181818;stroke-width:1.0;" width="10" x="1106" y="284.9375"/><rect fill="#FFFFFF" height="39.1563" style="stroke:#181818;stroke-width:1.0;" width="10" x="1106" y="937.4375"/><rect fill="#FFFFFF" height="39.1563" style="stroke:#181818;stroke-width:1.0;" width="10" x="1268.5" y="363.25"/><rect fill="#FFFFFF" height="39.1563" style="stroke:#181818;stroke-width:1.0;" width="10" x="1268.5" y="1015.75"/><rect fill="#FFFFFF" height="39.1563" style="stroke:#181818;stroke-width:1.0;" width="10" x="1460.5" y="441.5625"/><rect fill="#FFFFFF" height="39.1563" style="stroke:#181818;stroke-width:1.0;" width="10" x="1460.5" y="1094.0625"/><rect fill="#FFFFFF" height="39.1563" style="stroke:#181818;stroke-width:1.0;" width="10" x="1646" y="519.875"/><rect fill="#FFFFFF" height="39.1563" style="stroke:#181818;stroke-width:1.0;" width="10" x="1824.5" y="1172.375"/><rect fill="#FFFFFF" height="195.625" style="stroke:#181818;stroke-width:1.0;" width="10" x="1824.5" y="1327.8438"/><rect fill="#FFFFFF" height="50.1563" style="stroke:#181818;stroke-width:1.0;" width="10" x="1829.5" y="1427.1563"/><line style="stroke:#181818;stroke-width:0.5;stroke-dasharray:5.0,5.0;" x1="56" x2="56" y1="90.1563" y2="1619.7813"/><line style="stroke:#181818;stroke-width:0.5;stroke-dasharray:5.0,5.0;" x1="607.5" x2="607.5" y1="90.1563" y2="1619.7813"/><line style="stroke:#181818;stroke-width:0.5;stroke-dasharray:5.0,5.0;" x1="860.5" x2="860.5" y1="199.5469" y2="1619.7813"/><line style="stroke:#181818;stroke-width:0.5;stroke-dasharray:5.0,5.0;" x1="1110.5" x2="1110.5" y1="90.1563" y2="1619.7813"/><line style="stroke:#181818;stroke-width:0.5;stroke-dasharray:5.0,5.0;" x1="1273.5" x2="1273.5" y1="90.1563" y2="1619.7813"/><line style="stroke:#181818;stroke-width:0.5;stroke-dasharray:5.0,5.0;" x1="1465.5" x2="1465.5" y1="90.1563" y2="1619.7813"/><line style="stroke:#181818;stroke-width:0.5;stroke-dasharray:5.0,5.0;" x1="1650.5" x2="1650.5" y1="90.1563" y2="1619.7813"/><line style="stroke:#181818;stroke-width:0.5;stroke-dasharray:5.0,5.0;" x1="1829.5" x2="1829.5" y1="90.1563" y2="1619.7813"/><text fill="#000000" font-family="sans-serif" font-size="20" lengthAdjust="spacing" textLength="96" x="5" y="85.7617">DroneTech</text><ellipse cx="56" cy="13.5" fill="#E2E2F0" rx="8" ry="8" style="stroke:#181818;stroke-width:0.5;"/><path d="M56,21.5 L56,48.5 M43,29.5 L69,29.5 M56,48.5 L43,63.5 M56,48.5 L69,63.5 " fill="none" style="stroke:#181818;stroke-width:0.5;"/><text fill="#000000" font-family="sans-serif" font-size="20" lengthAdjust="spacing" textLength="96" x="5" y="1639.543">DroneTech</text><ellipse cx="56" cy="1652.4375" fill="#E2E2F0" rx="8" ry="8" style="stroke:#181818;stroke-width:0.5;"/><path d="M56,1660.4375 L56,1687.4375 M43,1668.4375 L69,1668.4375 M56,1687.4375 L43,1702.4375 M56,1687.4375 L69,1702.4375 " fill="none" style="stroke:#181818;stroke-width:0.5;"/><rect fill="#E2E2F0" height="39.1563" rx="2.5" ry="2.5" style="stroke:#181818;stroke-width:0.5;" width="123" x="546.5" y="50"/><text fill="#000000" font-family="sans-serif" font-size="20" lengthAdjust="spacing" textLength="109" x="553.5" y="77.7617">:ListDroneUI</text><rect fill="#E2E2F0" height="39.1563" rx="2.5" ry="2.5" style="stroke:#181818;stroke-width:0.5;" width="123" x="546.5" y="1618.7813"/><text fill="#000000" font-family="sans-serif" font-size="20" lengthAdjust="spacing" textLength="109" x="553.5" y="1646.543">:ListDroneUI</text><rect fill="#E2E2F0" height="39.1563" rx="2.5" ry="2.5" style="stroke:#181818;stroke-width:0.5;" width="189" x="766.5" y="1618.7813"/><text fill="#000000" font-family="sans-serif" font-size="20" lengthAdjust="spacing" textLength="175" x="773.5" y="1646.543">:ListDroneController</text><rect fill="#E2E2F0" height="39.1563" rx="2.5" ry="2.5" style="stroke:#181818;stroke-width:0.5;" width="123" x="1049.5" y="50"/><text fill="#000000" font-family="sans-serif" font-size="20" lengthAdjust="spacing" textLength="109" x="1056.5" y="77.7617">:Persistence</text><rect fill="#E2E2F0" height="39.1563" rx="2.5" ry="2.5" style="stroke:#181818;stroke-width:0.5;" width="123" x="1049.5" y="1618.7813"/><text fill="#000000" font-family="sans-serif" font-size="20" lengthAdjust="spacing" textLength="109" x="1056.5" y="1646.543">:Persistence</text><rect fill="#E2E2F0" height="39.1563" rx="2.5" ry="2.5" style="stroke:#181818;stroke-width:0.5;" width="182" x="1182.5" y="50"/><text fill="#000000" font-family="sans-serif" font-size="20" lengthAdjust="spacing" textLength="168" x="1189.5" y="77.7617">:RepositoryFactory</text><rect fill="#E2E2F0" height="39.1563" rx="2.5" ry="2.5" style="stroke:#181818;stroke-width:0.5;" width="182" x="1182.5" y="1618.7813"/><text fill="#000000" font-family="sans-serif" font-size="20" lengthAdjust="spacing" textLength="168" x="1189.5" y="1646.543">:RepositoryFactory</text><rect fill="#E2E2F0" height="64.3125" rx="2.5" ry="2.5" style="stroke:#181818;stroke-width:0.5;" width="182" x="1374.5" y="24.8438"/><text fill="#000000" font-family="sans-serif" font-size="20" lengthAdjust="spacing" textLength="155" x="1388" y="52.6055">repositoryFactory</text><text fill="#000000" font-family="sans-serif" font-size="20" lengthAdjust="spacing" textLength="168" x="1381.5" y="77.7617">:RepositoryFactory</text><rect fill="#E2E2F0" height="64.3125" rx="2.5" ry="2.5" style="stroke:#181818;stroke-width:0.5;" width="182" x="1374.5" y="1618.7813"/><text fill="#000000" font-family="sans-serif" font-size="20" lengthAdjust="spacing" textLength="155" x="1388" y="1646.543">repositoryFactory</text><text fill="#000000" font-family="sans-serif" font-size="20" lengthAdjust="spacing" textLength="168" x="1381.5" y="1671.6992">:RepositoryFactory</text><rect fill="#E2E2F0" height="64.3125" rx="2.5" ry="2.5" style="stroke:#181818;stroke-width:0.5;" width="169" x="1566.5" y="24.8438"/><text fill="#000000" font-family="sans-serif" font-size="20" lengthAdjust="spacing" textLength="148" x="1577" y="52.6055">modelRepository</text><text fill="#000000" font-family="sans-serif" font-size="20" lengthAdjust="spacing" textLength="155" x="1573.5" y="77.7617">:ModelRepository</text><rect fill="#E2E2F0" height="64.3125" rx="2.5" ry="2.5" style="stroke:#181818;stroke-width:0.5;" width="169" x="1566.5" y="1618.7813"/><text fill="#000000" font-family="sans-serif" font-size="20" lengthAdjust="spacing" textLength="148" x="1577" y="1646.543">modelRepository</text><text fill="#000000" font-family="sans-serif" font-size="20" lengthAdjust="spacing" textLength="155" x="1573.5" y="1671.6992">:ModelRepository</text><rect fill="#E2E2F0" height="64.3125" rx="2.5" ry="2.5" style="stroke:#181818;stroke-width:0.5;" width="168" x="1745.5" y="24.8438"/><text fill="#000000" font-family="sans-serif" font-size="20" lengthAdjust="spacing" textLength="145" x="1757" y="52.6055">droneRepository</text><text fill="#000000" font-family="sans-serif" font-size="20" lengthAdjust="spacing" textLength="154" x="1752.5" y="77.7617">:DroneRepository</text><rect fill="#E2E2F0" height="64.3125" rx="2.5" ry="2.5" style="stroke:#181818;stroke-width:0.5;" width="168" x="1745.5" y="1618.7813"/><text fill="#000000" font-family="sans-serif" font-size="20" lengthAdjust="spacing" textLength="145" x="1757" y="1646.543">droneRepository</text><text fill="#000000" font-family="sans-serif" font-size="20" lengthAdjust="spacing" textLength="154" x="1752.5" y="1671.6992">:DroneRepository</text><rect fill="#FFFFFF" height="1501.625" style="stroke:#181818;stroke-width:1.0;" width="10" x="51" y="100.1563"/><rect fill="#FFFFFF" height="480.875" style="stroke:#181818;stroke-width:1.0;" width="10" x="603" y="156.4688"/><rect fill="#FFFFFF" height="91.3125" style="stroke:#181818;stroke-width:1.0;" width="10" x="603" y="676.5"/><rect fill="#FFFFFF" height="794.8125" style="stroke:#181818;stroke-width:1.0;" width="10" x="603" y="806.9688"/><rect fill="#FFFFFF" height="352.4063" style="stroke:#181818;stroke-width:1.0;" width="10" x="856" y="245.7813"/><rect fill="#FFFFFF" height="716.5" style="stroke:#181818;stroke-width:1.0;" width="10" x="856" y="846.125"/><rect fill="#FFFFFF" height="363.4063" style="stroke:#181818;stroke-width:1.0;" width="10" x="861" y="893.2813"/><rect fill="#FFFFFF" height="39.1563" style="stroke:#181818;stroke-width:1.0;" width="10" x="1106" y="284.9375"/><rect fill="#FFFFFF" height="39.1563" style="stroke:#181818;stroke-width:1.0;" width="10" x="1106" y="937.4375"/><rect fill="#FFFFFF" height="39.1563" style="stroke:#181818;stroke-width:1.0;" width="10" x="1268.5" y="363.25"/><rect fill="#FFFFFF" height="39.1563" style="stroke:#181818;stroke-width:1.0;" width="10" x="1268.5" y="1015.75"/><rect fill="#FFFFFF" height="39.1563" style="stroke:#181818;stroke-width:1.0;" width="10" x="1460.5" y="441.5625"/><rect fill="#FFFFFF" height="39.1563" style="stroke:#181818;stroke-width:1.0;" width="10" x="1460.5" y="1094.0625"/><rect fill="#FFFFFF" height="39.1563" style="stroke:#181818;stroke-width:1.0;" width="10" x="1646" y="519.875"/><rect fill="#FFFFFF" height="39.1563" style="stroke:#181818;stroke-width:1.0;" width="10" x="1824.5" y="1172.375"/><rect fill="#FFFFFF" height="195.625" style="stroke:#181818;stroke-width:1.0;" width="10" x="1824.5" y="1327.8438"/><rect fill="#FFFFFF" height="50.1563" style="stroke:#181818;stroke-width:1.0;" width="10" x="1829.5" y="1427.1563"/><polygon fill="#181818" points="591,152.4688,601,156.4688,591,160.4688,595,156.4688" style="stroke:#181818;stroke-width:1.0;"/><line style="stroke:#181818;stroke-width:1.0;" x1="61" x2="597" y1="156.4688" y2="156.4688"/><text fill="#000000" font-family="sans-serif" font-size="20" font-weight="bold" lengthAdjust="spacing" textLength="11" x="68" y="137.4961">1</text><text fill="#000000" font-family="sans-serif" font-size="20" lengthAdjust="spacing" textLength="176" x="83" y="124.918">asks to list all active</text><text fill="#000000" font-family="sans-serif" font-size="20" lengthAdjust="spacing" textLength="319" x="83" y="150.0742">drones from a model in the inventory</text><polygon fill="#181818" points="754.5,191.625,764.5,195.625,754.5,199.625,758.5,195.625" style="stroke:#181818;stroke-width:1.0;"/><line style="stroke:#181818;stroke-width:1.0;stroke-dasharray:2.0,2.0;" x1="613" x2="760.5" y1="195.625" y2="195.625"/><text fill="#000000" font-family="sans-serif" font-size="20" font-weight="bold" lengthAdjust="spacing" textLength="11" x="620" y="189.2305">2</text><text fill="#000000" font-family="sans-serif" font-size="20" lengthAdjust="spacing" textLength="70" x="635" y="189.2305">create()</text><rect fill="#E2E2F0" height="39.1563" rx="2.5" ry="2.5" style="stroke:#181818;stroke-width:0.5;" width="189" x="766.5" y="164.4688"/><text fill="#000000" font-family="sans-serif" font-size="20" lengthAdjust="spacing" textLength="175" x="773.5" y="192.2305">:ListDroneController</text><polygon fill="#181818" points="844,241.7813,854,245.7813,844,249.7813,848,245.7813" style="stroke:#181818;stroke-width:1.0;"/><line style="stroke:#181818;stroke-width:1.0;" x1="613" x2="850" y1="245.7813" y2="245.7813"/><text fill="#000000" font-family="sans-serif" font-size="20" font-weight="bold" lengthAdjust="spacing" textLength="11" x="620" y="239.3867">3</text><text fill="#000000" font-family="sans-serif" font-size="20" lengthAdjust="spacing" textLength="180" x="635" y="239.3867">getDroneModelList()</text><polygon fill="#181818" points="1094,280.9375,1104,284.9375,1094,288.9375,1098,284.9375" style="stroke:#181818;stroke-width:1.0;"/><line style="stroke:#181818;stroke-width:1.0;" x1="866" x2="1100" y1="284.9375" y2="284.9375"/><text fill="#000000" font-family="sans-serif" font-size="20" font-weight="bold" lengthAdjust="spacing" textLength="11" x="873" y="278.543">4</text><text fill="#000000" font-family="sans-serif" font-size="20" lengthAdjust="spacing" textLength="190" x="888" y="278.543">getRepositoryFactory</text><polygon fill="#181818" points="877,320.0938,867,324.0938,877,328.0938,873,324.0938" style="stroke:#181818;stroke-width:1.0;"/><line style="stroke:#181818;stroke-width:1.0;stroke-dasharray:2.0,2.0;" x1="871" x2="1110" y1="324.0938" y2="324.0938"/><text fill="#000000" font-family="sans-serif" font-size="20" font-weight="bold" lengthAdjust="spacing" textLength="11" x="883" y="317.6992">5</text><text fill="#000000" font-family="sans-serif" font-size="20" lengthAdjust="spacing" textLength="155" x="898" y="317.6992">repositoryFactory</text><polygon fill="#181818" points="1256.5,359.25,1266.5,363.25,1256.5,367.25,1260.5,363.25" style="stroke:#181818;stroke-width:1.0;"/><line style="stroke:#181818;stroke-width:1.0;" x1="866" x2="1262.5" y1="363.25" y2="363.25"/><text fill="#000000" font-family="sans-serif" font-size="20" font-weight="bold" lengthAdjust="spacing" textLength="11" x="873" y="356.8555">6</text><text fill="#000000" font-family="sans-serif" font-size="20" lengthAdjust="spacing" textLength="116" x="888" y="356.8555">getInstance()</text><polygon fill="#181818" points="877,398.4063,867,402.4063,877,406.4063,873,402.4063" style="stroke:#181818;stroke-width:1.0;"/><line style="stroke:#181818;stroke-width:1.0;stroke-dasharray:2.0,2.0;" x1="871" x2="1272.5" y1="402.4063" y2="402.4063"/><text fill="#000000" font-family="sans-serif" font-size="20" font-weight="bold" lengthAdjust="spacing" textLength="11" x="883" y="396.0117">7</text><text fill="#000000" font-family="sans-serif" font-size="20" lengthAdjust="spacing" textLength="103" x="898" y="396.0117">repositories</text><polygon fill="#181818" points="1448.5,437.5625,1458.5,441.5625,1448.5,445.5625,1452.5,441.5625" style="stroke:#181818;stroke-width:1.0;"/><line style="stroke:#181818;stroke-width:1.0;" x1="866" x2="1454.5" y1="441.5625" y2="441.5625"/><text fill="#000000" font-family="sans-serif" font-size="20" font-weight="bold" lengthAdjust="spacing" textLength="11" x="873" y="435.168">8</text><text fill="#000000" font-family="sans-serif" font-size="20" lengthAdjust="spacing" textLength="191" x="888" y="435.168">getModelRepository()</text><polygon fill="#181818" points="877,476.7188,867,480.7188,877,484.7188,873,480.7188" style="stroke:#181818;stroke-width:1.0;"/><line style="stroke:#181818;stroke-width:1.0;stroke-dasharray:2.0,2.0;" x1="871" x2="1464.5" y1="480.7188" y2="480.7188"/><text fill="#000000" font-family="sans-serif" font-size="20" font-weight="bold" lengthAdjust="spacing" textLength="11" x="883" y="474.3242">9</text><text fill="#000000" font-family="sans-serif" font-size="20" lengthAdjust="spacing" textLength="148" x="898" y="474.3242">modelRepository</text><polygon fill="#181818" points="1634,515.875,1644,519.875,1634,523.875,1638,519.875" style="stroke:#181818;stroke-width:1.0;"/><line style="stroke:#181818;stroke-width:1.0;" x1="866" x2="1640" y1="519.875" y2="519.875"/><text fill="#000000" font-family="sans-serif" font-size="20" font-weight="bold" lengthAdjust="spacing" textLength="22" x="873" y="513.4805">10</text><text fill="#000000" font-family="sans-serif" font-size="20" lengthAdjust="spacing" textLength="127" x="899" y="513.4805">getModelList()</text><polygon fill="#181818" points="877,555.0313,867,559.0313,877,563.0313,873,559.0313" style="stroke:#181818;stroke-width:1.0;"/><line style="stroke:#181818;stroke-width:1.0;stroke-dasharray:2.0,2.0;" x1="871" x2="1650" y1="559.0313" y2="559.0313"/><text fill="#000000" font-family="sans-serif" font-size="20" font-weight="bold" lengthAdjust="spacing" textLength="22" x="883" y="552.6367">11</text><text fill="#000000" font-family="sans-serif" font-size="20" lengthAdjust="spacing" textLength="84" x="909" y="552.6367">modelList</text><polygon fill="#181818" points="624,594.1875,614,598.1875,624,602.1875,620,598.1875" style="stroke:#181818;stroke-width:1.0;"/><line style="stroke:#181818;stroke-width:1.0;stroke-dasharray:2.0,2.0;" x1="618" x2="860" y1="598.1875" y2="598.1875"/><text fill="#000000" font-family="sans-serif" font-size="20" font-weight="bold" lengthAdjust="spacing" textLength="22" x="630" y="591.793">12</text><text fill="#000000" font-family="sans-serif" font-size="20" lengthAdjust="spacing" textLength="84" x="656" y="591.793">modelList</text><polygon fill="#181818" points="72,633.3438,62,637.3438,72,641.3438,68,637.3438" style="stroke:#181818;stroke-width:1.0;"/><line style="stroke:#181818;stroke-width:1.0;stroke-dasharray:2.0,2.0;" x1="66" x2="607" y1="637.3438" y2="637.3438"/><text fill="#000000" font-family="sans-serif" font-size="20" font-weight="bold" lengthAdjust="spacing" textLength="22" x="78" y="630.9492">13</text><text fill="#000000" font-family="sans-serif" font-size="20" lengthAdjust="spacing" textLength="492" x="104" y="630.9492">shows the list off all drone models and ask to select one</text><polygon fill="#181818" points="591,672.5,601,676.5,591,680.5,595,676.5" style="stroke:#181818;stroke-width:1.0;"/><line style="stroke:#181818;stroke-width:1.0;" x1="61" x2="597" y1="676.5" y2="676.5"/><text fill="#000000" font-family="sans-serif" font-size="20" font-weight="bold" lengthAdjust="spacing" textLength="22" x="68" y="670.1055">14</text><text fill="#000000" font-family="sans-serif" font-size="20" lengthAdjust="spacing" textLength="90" x="94" y="670.1055">selets one</text><line style="stroke:#181818;stroke-width:1.0;stroke-dasharray:2.0,2.0;" x1="613" x2="655" y1="715.6563" y2="715.6563"/><line style="stroke:#181818;stroke-width:1.0;stroke-dasharray:2.0,2.0;" x1="655" x2="655" y1="715.6563" y2="728.6563"/><line style="stroke:#181818;stroke-width:1.0;stroke-dasharray:2.0,2.0;" x1="614" x2="655" y1="728.6563" y2="728.6563"/><polygon fill="#181818" points="624,724.6563,614,728.6563,624,732.6563,620,728.6563" style="stroke:#181818;stroke-width:1.0;"/><text fill="#000000" font-family="sans-serif" font-size="20" font-weight="bold" lengthAdjust="spacing" textLength="22" x="620" y="709.2617">15</text><text fill="#000000" font-family="sans-serif" font-size="20" lengthAdjust="spacing" textLength="203" x="646" y="709.2617">keepData(droneModel)</text><polygon fill="#181818" points="72,763.8125,62,767.8125,72,771.8125,68,767.8125" style="stroke:#181818;stroke-width:1.0;"/><line style="stroke:#181818;stroke-width:1.0;stroke-dasharray:2.0,2.0;" x1="66" x2="607" y1="767.8125" y2="767.8125"/><text fill="#000000" font-family="sans-serif" font-size="20" font-weight="bold" lengthAdjust="spacing" textLength="22" x="78" y="761.418">16</text><text fill="#000000" font-family="sans-serif" font-size="20" lengthAdjust="spacing" textLength="188" x="104" y="761.418">requests confirmation</text><polygon fill="#181818" points="591,802.9688,601,806.9688,591,810.9688,595,806.9688" style="stroke:#181818;stroke-width:1.0;"/><line style="stroke:#181818;stroke-width:1.0;" x1="61" x2="597" y1="806.9688" y2="806.9688"/><text fill="#000000" font-family="sans-serif" font-size="20" font-weight="bold" lengthAdjust="spacing" textLength="22" x="68" y="800.5742">17</text><text fill="#000000" font-family="sans-serif" font-size="20" lengthAdjust="spacing" textLength="74" x="94" y="800.5742">confirms</text><polygon fill="#181818" points="844,842.125,854,846.125,844,850.125,848,846.125" style="stroke:#181818;stroke-width:1.0;"/><line style="stroke:#181818;stroke-width:1.0;" x1="613" x2="850" y1="846.125" y2="846.125"/><text fill="#000000" font-family="sans-serif" font-size="20" font-weight="bold" lengthAdjust="spacing" textLength="22" x="620" y="839.7305">18</text><text fill="#000000" font-family="sans-serif" font-size="20" lengthAdjust="spacing" textLength="173" x="646" y="839.7305">listDrn(droneModel)</text><line style="stroke:#181818;stroke-width:1.0;" x1="866" x2="913" y1="880.2813" y2="880.2813"/><line style="stroke:#181818;stroke-width:1.0;" x1="913" x2="913" y1="880.2813" y2="893.2813"/><line style="stroke:#181818;stroke-width:1.0;" x1="872" x2="913" y1="893.2813" y2="893.2813"/><polygon fill="#181818" points="882,889.2813,872,893.2813,882,897.2813,878,893.2813" style="stroke:#181818;stroke-width:1.0;"/><text fill="#000000" font-family="sans-serif" font-size="20" font-weight="bold" lengthAdjust="spacing" textLength="22" x="878" y="873.8867">19</text><text fill="#000000" font-family="sans-serif" font-size="20" lengthAdjust="spacing" textLength="158" x="904" y="873.8867">getDrnModelList()</text><polygon fill="#181818" points="1094,933.4375,1104,937.4375,1094,941.4375,1098,937.4375" style="stroke:#181818;stroke-width:1.0;"/><line style="stroke:#181818;stroke-width:1.0;" x1="871" x2="1100" y1="937.4375" y2="937.4375"/><text fill="#000000" font-family="sans-serif" font-size="20" font-weight="bold" lengthAdjust="spacing" textLength="22" x="878" y="931.043">20</text><text fill="#000000" font-family="sans-serif" font-size="20" lengthAdjust="spacing" textLength="190" x="904" y="931.043">getRepositoryFactory</text><polygon fill="#181818" points="882,972.5938,872,976.5938,882,980.5938,878,976.5938" style="stroke:#181818;stroke-width:1.0;"/><line style="stroke:#181818;stroke-width:1.0;stroke-dasharray:2.0,2.0;" x1="876" x2="1110" y1="976.5938" y2="976.5938"/><text fill="#000000" font-family="sans-serif" font-size="20" font-weight="bold" lengthAdjust="spacing" textLength="22" x="888" y="970.1992">21</text><text fill="#000000" font-family="sans-serif" font-size="20" lengthAdjust="spacing" textLength="155" x="914" y="970.1992">reposirotyFactory</text><polygon fill="#181818" points="1256.5,1011.75,1266.5,1015.75,1256.5,1019.75,1260.5,1015.75" style="stroke:#181818;stroke-width:1.0;"/><line style="stroke:#181818;stroke-width:1.0;" x1="871" x2="1262.5" y1="1015.75" y2="1015.75"/><text fill="#000000" font-family="sans-serif" font-size="20" font-weight="bold" lengthAdjust="spacing" textLength="22" x="878" y="1009.3555">22</text><text fill="#000000" font-family="sans-serif" font-size="20" lengthAdjust="spacing" textLength="116" x="904" y="1009.3555">getInstance()</text><polygon fill="#181818" points="882,1050.9063,872,1054.9063,882,1058.9063,878,1054.9063" style="stroke:#181818;stroke-width:1.0;"/><line style="stroke:#181818;stroke-width:1.0;stroke-dasharray:2.0,2.0;" x1="876" x2="1272.5" y1="1054.9063" y2="1054.9063"/><text fill="#000000" font-family="sans-serif" font-size="20" font-weight="bold" lengthAdjust="spacing" textLength="22" x="888" y="1048.5117">23</text><text fill="#000000" font-family="sans-serif" font-size="20" lengthAdjust="spacing" textLength="103" x="914" y="1048.5117">repositories</text><polygon fill="#181818" points="1448.5,1090.0625,1458.5,1094.0625,1448.5,1098.0625,1452.5,1094.0625" style="stroke:#181818;stroke-width:1.0;"/><line style="stroke:#181818;stroke-width:1.0;" x1="871" x2="1454.5" y1="1094.0625" y2="1094.0625"/><text fill="#000000" font-family="sans-serif" font-size="20" font-weight="bold" lengthAdjust="spacing" textLength="22" x="878" y="1087.668">24</text><text fill="#000000" font-family="sans-serif" font-size="20" lengthAdjust="spacing" textLength="190" x="904" y="1087.668">getDroneRepository()</text><polygon fill="#181818" points="882,1129.2188,872,1133.2188,882,1137.2188,878,1133.2188" style="stroke:#181818;stroke-width:1.0;"/><line style="stroke:#181818;stroke-width:1.0;stroke-dasharray:2.0,2.0;" x1="876" x2="1464.5" y1="1133.2188" y2="1133.2188"/><text fill="#000000" font-family="sans-serif" font-size="20" font-weight="bold" lengthAdjust="spacing" textLength="22" x="888" y="1126.8242">25</text><text fill="#000000" font-family="sans-serif" font-size="20" lengthAdjust="spacing" textLength="145" x="914" y="1126.8242">droneRepository</text><polygon fill="#181818" points="1812.5,1168.375,1822.5,1172.375,1812.5,1176.375,1816.5,1172.375" style="stroke:#181818;stroke-width:1.0;"/><line style="stroke:#181818;stroke-width:1.0;" x1="871" x2="1818.5" y1="1172.375" y2="1172.375"/><text fill="#000000" font-family="sans-serif" font-size="20" font-weight="bold" lengthAdjust="spacing" textLength="22" x="878" y="1165.9805">26</text><text fill="#000000" font-family="sans-serif" font-size="20" lengthAdjust="spacing" textLength="262" x="904" y="1165.9805">getDrnModelList(droneModel)</text><polygon fill="#181818" points="882,1207.5313,872,1211.5313,882,1215.5313,878,1211.5313" style="stroke:#181818;stroke-width:1.0;"/><line style="stroke:#181818;stroke-width:1.0;stroke-dasharray:2.0,2.0;" x1="876" x2="1828.5" y1="1211.5313" y2="1211.5313"/><text fill="#000000" font-family="sans-serif" font-size="20" font-weight="bold" lengthAdjust="spacing" textLength="22" x="888" y="1205.1367">27</text><text fill="#000000" font-family="sans-serif" font-size="20" lengthAdjust="spacing" textLength="113" x="914" y="1205.1367">drnModelList</text><line style="stroke:#181818;stroke-width:1.0;stroke-dasharray:2.0,2.0;" x1="871" x2="913" y1="1255.6875" y2="1255.6875"/><line style="stroke:#181818;stroke-width:1.0;stroke-dasharray:2.0,2.0;" x1="913" x2="913" y1="1255.6875" y2="1268.6875"/><line style="stroke:#181818;stroke-width:1.0;stroke-dasharray:2.0,2.0;" x1="866" x2="913" y1="1268.6875" y2="1268.6875"/><polygon fill="#181818" points="876,1264.6875,866,1268.6875,876,1272.6875,872,1268.6875" style="stroke:#181818;stroke-width:1.0;"/><text fill="#000000" font-family="sans-serif" font-size="20" font-weight="bold" lengthAdjust="spacing" textLength="22" x="878" y="1249.293">28</text><text fill="#000000" font-family="sans-serif" font-size="20" lengthAdjust="spacing" textLength="113" x="904" y="1249.293">drnModelList</text><polygon fill="#181818" points="1812.5,1323.8438,1822.5,1327.8438,1812.5,1331.8438,1816.5,1327.8438" style="stroke:#181818;stroke-width:1.0;"/><line style="stroke:#181818;stroke-width:1.0;" x1="866" x2="1818.5" y1="1327.8438" y2="1327.8438"/><text fill="#000000" font-family="sans-serif" font-size="20" font-weight="bold" lengthAdjust="spacing" textLength="22" x="873" y="1321.4492">29</text><text fill="#000000" font-family="sans-serif" font-size="20" lengthAdjust="spacing" textLength="204" x="899" y="1321.4492">listDrone(drnModelList)</text><line style="stroke:#181818;stroke-width:1.0;" x1="1834.5" x2="1876.5" y1="1367" y2="1367"/><line style="stroke:#181818;stroke-width:1.0;" x1="1876.5" x2="1876.5" y1="1367" y2="1380"/><line style="stroke:#181818;stroke-width:1.0;" x1="1835.5" x2="1876.5" y1="1380" y2="1380"/><polygon fill="#181818" points="1845.5,1376,1835.5,1380,1845.5,1384,1841.5,1380" style="stroke:#181818;stroke-width:1.0;"/><text fill="#000000" font-family="sans-serif" font-size="20" font-weight="bold" lengthAdjust="spacing" textLength="22" x="1841.5" y="1360.6055">30</text><text fill="#000000" font-family="sans-serif" font-size="20" lengthAdjust="spacing" textLength="204" x="1867.5" y="1360.6055">listDrone(drnModelList)</text><line style="stroke:#181818;stroke-width:1.0;" x1="1834.5" x2="1881.5" y1="1414.1563" y2="1414.1563"/><line style="stroke:#181818;stroke-width:1.0;" x1="1881.5" x2="1881.5" y1="1414.1563" y2="1427.1563"/><line style="stroke:#181818;stroke-width:1.0;" x1="1840.5" x2="1881.5" y1="1427.1563" y2="1427.1563"/><polygon fill="#181818" points="1850.5,1423.1563,1840.5,1427.1563,1850.5,1431.1563,1846.5,1427.1563" style="stroke:#181818;stroke-width:1.0;"/><text fill="#000000" font-family="sans-serif" font-size="20" font-weight="bold" lengthAdjust="spacing" textLength="22" x="1846.5" y="1407.7617">31</text><text fill="#000000" font-family="sans-serif" font-size="20" lengthAdjust="spacing" textLength="278" x="1872.5" y="1407.7617">validateDroneList(drnModelList)</text><line style="stroke:#181818;stroke-width:1.0;stroke-dasharray:2.0,2.0;" x1="1839.5" x2="1881.5" y1="1476.3125" y2="1476.3125"/><line style="stroke:#181818;stroke-width:1.0;stroke-dasharray:2.0,2.0;" x1="1881.5" x2="1881.5" y1="1476.3125" y2="1489.3125"/><line style="stroke:#181818;stroke-width:1.0;stroke-dasharray:2.0,2.0;" x1="1834.5" x2="1881.5" y1="1489.3125" y2="1489.3125"/><polygon fill="#181818" points="1844.5,1485.3125,1834.5,1489.3125,1844.5,1493.3125,1840.5,1489.3125" style="stroke:#181818;stroke-width:1.0;"/><text fill="#000000" font-family="sans-serif" font-size="20" font-weight="bold" lengthAdjust="spacing" textLength="22" x="1846.5" y="1469.918">32</text><text fill="#000000" font-family="sans-serif" font-size="20" lengthAdjust="spacing" textLength="34" x="1872.5" y="1469.918">true</text><polygon fill="#181818" points="877,1519.4688,867,1523.4688,877,1527.4688,873,1523.4688" style="stroke:#181818;stroke-width:1.0;"/><line style="stroke:#181818;stroke-width:1.0;stroke-dasharray:2.0,2.0;" x1="871" x2="1828.5" y1="1523.4688" y2="1523.4688"/><text fill="#000000" font-family="sans-serif" font-size="20" font-weight="bold" lengthAdjust="spacing" textLength="22" x="883" y="1517.0742">33</text><text fill="#000000" font-family="sans-serif" font-size="20" lengthAdjust="spacing" textLength="34" x="909" y="1517.0742">true</text><polygon fill="#181818" points="624,1558.625,614,1562.625,624,1566.625,620,1562.625" style="stroke:#181818;stroke-width:1.0;"/><line style="stroke:#181818;stroke-width:1.0;stroke-dasharray:2.0,2.0;" x1="618" x2="860" y1="1562.625" y2="1562.625"/><text fill="#000000" font-family="sans-serif" font-size="20" font-weight="bold" lengthAdjust="spacing" textLength="22" x="630" y="1556.2305">34</text><text fill="#000000" font-family="sans-serif" font-size="20" lengthAdjust="spacing" textLength="34" x="656" y="1556.2305">true</text><polygon fill="#181818" points="67,1597.7813,57,1601.7813,67,1605.7813,63,1601.7813" style="stroke:#181818;stroke-width:1.0;"/><line style="stroke:#181818;stroke-width:1.0;stroke-dasharray:2.0,2.0;" x1="61" x2="607" y1="1601.7813" y2="1601.7813"/><text fill="#000000" font-family="sans-serif" font-size="20" font-weight="bold" lengthAdjust="spacing" textLength="22" x="73" y="1595.3867">35</text><text fill="#000000" font-family="sans-serif" font-size="20" lengthAdjust="spacing" textLength="236" x="99" y="1595.3867">displays operation success</text><!--SRC=[hLTDR-8m4BtxLunwQRTIfTKUUzXBeIkaVWdehLBbJIPWuTXPsxJBgZz-7OSaJWY9W_2bAepdpPkFDqPlcCYeeYcNqGPZY36XMsxkfJ0BzW_XntTogKiRIAMGqLh95C6eBPBwcun66xh2XTbn18MHeMB5VGEzfh7yP6852UKQ2Q5R8yKs_OsAaCirYn4IASrl-PVGo4W55nCb1IunMby0rJ2TB8drP5Z4CYeCNDm-C6sSpUlCMRpEZXdSMJPASexA6TujvmyjqnTKsbgZYD2Pl4pdYvR973EfcOriT-y2t3d3-VJbkMMfsePlek_o-sBszEjXkdn-Qhf9POoylcUTF3O_SIuUdoVlkPlctJXdtRWxQNxYxaxcJyNTFEFiWnfqMIQmF_OVkFbfymgtrdoZmKZWDaj0EGTt1U5DE2mDYUqAeE2Y1YR0hD7- -K2HmrKkAo1RBF2EnRYnK7bbhgyjNAJGMbrz8mTMXP4rMM5HN9ULlDJM6ewS2jQL7dgESsv1yWOeG0vArtk_Gd8Tr6Vf46vgFceKJepXI2Kdrsu5gPdGTa8ZxCbPWqtHvZ1m2e2IaqU9eGvbKo25ywd7fs3M6f9H1BrH3ABgOTUaMtCxYhSNG506okdtg0zCGeDq9Hv3R2iShr_J4YsKOH1QmQnKdM4Cp_-nsTvhIwvcjtODoK_jnCafcKmIfsPEn0eu3LJ4kTxbSgUHsrq6zaiIHhAbQz2bfRbJetkT3kYaSxD1p2RKqAkuaa6hbqNZD3Wh_BD5RH4ZAHAcKcgO5AGxS3_ElNankbqHDVIOksqh6j44w6_PoiNmE54NeOqyNjxFAVMX9roeGq_twb3Id3NkCIlcg3oFsJOzcsSieTvDH4x8mCWmZgoe-jKIlA62jjL9wUdSNgsNuycf6h5AXt9OFbCFrQ5BQawUpkerVAgdqa4ZctMqv0npE2h6QfLsn1BauElhwon2qhMdoIaTK6qPM_Ohdq-p_CFfgalbjrU8xtuF7vIps28xB_iM7V8KNjn6WtavSJ_5Gpk73BPjbyT1JzwxhV_wmOgkdogsHvdEEDtPjr66oZrJG6-Z2BNkUAuGxz_yT-j_]--></g></svg>