<?xml version="1.0" encoding="UTF-8" standalone="no"?><svg xmlns="http://www.w3.org/2000/svg" xmlns:xlink="http://www.w3.org/1999/xlink" contentStyleType="text/css" height="407px" preserveAspectRatio="none" style="width:491px;height:407px;background:#FFFFFF;" version="1.1" viewBox="0 0 491 407" width="491px" zoomAndPan="magnify"><defs/><g><!--class User--><g id="elem_User"><rect codeLine="2" fill="#F1F1F1" height="191.3281" id="User" rx="2.5" ry="2.5" style="stroke:#181818;stroke-width:0.5;" width="187" x="141" y="7"/><ellipse cx="208.5" cy="24" fill="#ADD1B2" rx="12" ry="12" style="stroke:#181818;stroke-width:1.0;"/><path d="M211.3066,31.0801 Q210.623,31.4316 209.8711,31.6074 Q209.1191,31.7832 208.2891,31.7832 Q205.3398,31.7832 203.7871,29.8398 Q202.2344,27.8965 202.2344,24.2246 Q202.2344,20.543 203.7871,18.5996 Q205.3398,16.6563 208.2891,16.6563 Q209.1191,16.6563 209.8809,16.832 Q210.6426,17.0078 211.3066,17.3594 L211.3066,20.5625 Q210.5645,19.8789 209.8662,19.5615 Q209.168,19.2441 208.4258,19.2441 Q206.8438,19.2441 206.0381,20.499 Q205.2324,21.7539 205.2324,24.2246 Q205.2324,26.6855 206.0381,27.9404 Q206.8438,29.1953 208.4258,29.1953 Q209.168,29.1953 209.8662,28.8779 Q210.5645,28.5605 211.3066,27.877 Z " fill="#000000"/><text fill="#000000" font-family="sans-serif" font-size="20" lengthAdjust="spacing" textLength="43" x="230.5" y="31.5586">User</text><line style="stroke:#181818;stroke-width:0.5;" x1="142" x2="327" y1="41" y2="41"/><ellipse cx="152" cy="58.2773" fill="none" rx="3" ry="3" style="stroke:#038048;stroke-width:1.0;"/><text fill="#000000" font-family="sans-serif" font-size="20" lengthAdjust="spacing" textLength="87" x="162" y="64.3359">id: String</text><ellipse cx="152" cy="81.832" fill="none" rx="3" ry="3" style="stroke:#038048;stroke-width:1.0;"/><text fill="#000000" font-family="sans-serif" font-size="20" lengthAdjust="spacing" textLength="121" x="162" y="87.8906">name: String</text><ellipse cx="152" cy="105.3867" fill="none" rx="3" ry="3" style="stroke:#038048;stroke-width:1.0;"/><text fill="#000000" font-family="sans-serif" font-size="20" lengthAdjust="spacing" textLength="121" x="162" y="111.4453">email: String</text><ellipse cx="152" cy="128.9414" fill="none" rx="3" ry="3" style="stroke:#038048;stroke-width:1.0;"/><text fill="#000000" font-family="sans-serif" font-size="20" lengthAdjust="spacing" textLength="160" x="162" y="135">password: String</text><ellipse cx="152" cy="152.4961" fill="none" rx="3" ry="3" style="stroke:#038048;stroke-width:1.0;"/><text fill="#000000" font-family="sans-serif" font-size="20" lengthAdjust="spacing" textLength="125" x="162" y="158.5547">status: String</text><line style="stroke:#181818;stroke-width:0.5;" x1="142" x2="327" y1="166.7734" y2="166.7734"/><ellipse cx="152" cy="184.0508" fill="#84BE84" rx="3" ry="3" style="stroke:#038048;stroke-width:1.0;"/><text fill="#000000" font-family="sans-serif" font-size="20" lengthAdjust="spacing" textLength="140" x="162" y="190.1094">register(): void</text></g><!--class Admin--><g id="elem_Admin"><rect codeLine="11" fill="#F1F1F1" height="97.1094" id="Admin" rx="2.5" ry="2.5" style="stroke:#181818;stroke-width:0.5;" width="175" x="7" y="303.33"/><ellipse cx="58" cy="320.33" fill="#ADD1B2" rx="12" ry="12" style="stroke:#181818;stroke-width:1.0;"/><path d="M60.8066,327.4101 Q60.123,327.7616 59.3711,327.9374 Q58.6191,328.1132 57.7891,328.1132 Q54.8398,328.1132 53.2871,326.1698 Q51.7344,324.2265 51.7344,320.5546 Q51.7344,316.873 53.2871,314.9296 Q54.8398,312.9863 57.7891,312.9863 Q58.6191,312.9863 59.3809,313.162 Q60.1426,313.3378 60.8066,313.6894 L60.8066,316.8925 Q60.0645,316.2089 59.3662,315.8915 Q58.668,315.5741 57.9258,315.5741 Q56.3438,315.5741 55.5381,316.829 Q54.7324,318.0839 54.7324,320.5546 Q54.7324,323.0155 55.5381,324.2704 Q56.3438,325.5253 57.9258,325.5253 Q58.668,325.5253 59.3662,325.2079 Q60.0645,324.8905 60.8066,324.207 Z " fill="#000000"/><text fill="#000000" font-family="sans-serif" font-size="20" lengthAdjust="spacing" textLength="64" x="80" y="327.8886">Admin</text><line style="stroke:#181818;stroke-width:0.5;" x1="8" x2="181" y1="337.33" y2="337.33"/><ellipse cx="18" cy="354.6073" fill="none" rx="3" ry="3" style="stroke:#038048;stroke-width:1.0;"/><text fill="#000000" font-family="sans-serif" font-size="20" lengthAdjust="spacing" textLength="148" x="28" y="360.6659">adminId: String</text><ellipse cx="18" cy="378.162" fill="none" rx="3" ry="3" style="stroke:#038048;stroke-width:1.0;"/><text fill="#000000" font-family="sans-serif" font-size="20" lengthAdjust="spacing" textLength="105" x="28" y="384.2206">role: String</text><line style="stroke:#181818;stroke-width:0.5;" x1="8" x2="181" y1="392.4394" y2="392.4394"/></g><!--class BootstrapProcess--><g id="elem_BootstrapProcess"><rect codeLine="16" fill="#F1F1F1" height="73.5547" id="BootstrapProcess" rx="2.5" ry="2.5" style="stroke:#181818;stroke-width:0.5;" width="219" x="265" y="315.33"/><ellipse cx="290.45" cy="332.33" fill="#ADD1B2" rx="12" ry="12" style="stroke:#181818;stroke-width:1.0;"/><path d="M293.2566,339.4101 Q292.573,339.7616 291.8211,339.9374 Q291.0691,340.1132 290.2391,340.1132 Q287.2898,340.1132 285.7371,338.1698 Q284.1844,336.2265 284.1844,332.5546 Q284.1844,328.873 285.7371,326.9296 Q287.2898,324.9863 290.2391,324.9863 Q291.0691,324.9863 291.8309,325.162 Q292.5926,325.3378 293.2566,325.6894 L293.2566,328.8925 Q292.5145,328.2089 291.8162,327.8915 Q291.118,327.5741 290.3758,327.5741 Q288.7938,327.5741 287.9881,328.829 Q287.1824,330.0839 287.1824,332.5546 Q287.1824,335.0155 287.9881,336.2704 Q288.7938,337.5253 290.3758,337.5253 Q291.118,337.5253 291.8162,337.2079 Q292.5145,336.8905 293.2566,336.207 Z " fill="#000000"/><text fill="#000000" font-family="sans-serif" font-size="20" lengthAdjust="spacing" textLength="164" x="307.55" y="339.8886">BootstrapProcess</text><line style="stroke:#181818;stroke-width:0.5;" x1="266" x2="483" y1="349.33" y2="349.33"/><line style="stroke:#181818;stroke-width:0.5;" x1="266" x2="483" y1="357.33" y2="357.33"/><ellipse cx="276" cy="374.6073" fill="#84BE84" rx="3" ry="3" style="stroke:#038048;stroke-width:1.0;"/><text fill="#000000" font-family="sans-serif" font-size="20" lengthAdjust="spacing" textLength="192" x="286" y="380.6659">initializeUser(): void</text></g><!--link User to Admin--><g id="link_User_Admin"><path codeLine="20" d="M180.77,198.52 C161.61,232.35 140.72,269.23 124.3,298.22 " fill="none" id="User-to-Admin" style="stroke:#181818;stroke-width:1.0;"/><polygon fill="#181818" points="122.03,302.22,129.9351,296.3455,124.4861,297.8648,122.9667,292.4158,122.03,302.22" style="stroke:#181818;stroke-width:1.0;"/><text fill="#000000" font-family="sans-serif" font-size="20" lengthAdjust="spacing" textLength="100" x="161.5" y="248.6659">created by</text><text fill="#000000" font-family="sans-serif" font-size="20" lengthAdjust="spacing" textLength="13" x="111.2701" y="291.127">1</text></g><!--link User to BootstrapProcess--><g id="link_User_BootstrapProcess"><path codeLine="21" d="M288.23,198.52 C310.08,237.1 334.17,279.62 351.33,309.92 " fill="none" id="User-to-BootstrapProcess" style="stroke:#181818;stroke-width:1.0;"/><polygon fill="#181818" points="353.7,314.11,352.7633,304.3058,351.2439,309.7548,345.7949,308.2355,353.7,314.11" style="stroke:#181818;stroke-width:1.0;"/><text fill="#000000" font-family="sans-serif" font-size="20" lengthAdjust="spacing" textLength="124" x="317.5" y="248.6659">initialized by</text><text fill="#000000" font-family="sans-serif" font-size="20" lengthAdjust="spacing" textLength="13" x="336.7208" y="303.2338">1</text></g><!--SRC=[PL1B2i903Dtt5A4hHGHrsOMW2y6T81uWTgA4JcTA9bLKlBlZfzRMxFAIl4z2mQv2mTBwl203XWvOMrrvfrk-4imcIP9R305sWGHk2SGQiSbWgyBk-EuTbjH5g4IsNQYAB6SllTEWg7NeOa973aeo66PmycoIUsDYOKfsZGjyDkiUdtZRMldUBRtNe8BLHdnE4MY2E5P66vC-u_tglUAEntD8f-b7DeDS23L-QN_fpl_eCsYPN-iF]--></g></svg>