<?xml version="1.0" encoding="UTF-8" standalone="no"?><svg xmlns="http://www.w3.org/2000/svg" xmlns:xlink="http://www.w3.org/1999/xlink" contentStyleType="text/css" height="564px" preserveAspectRatio="none" style="width:436px;height:564px;background:#FFFFFF;" version="1.1" viewBox="0 0 436 564" width="436px" zoomAndPan="magnify"><defs/><g><!--cluster User Management--><g id="cluster_User Management"><path d="M8.5,6.8945 L180.5,6.8945 A3.75,3.75 0 0 1 183,9.3945 L190,38.0508 L426.5,38.0508 A2.5,2.5 0 0 1 429,40.5508 L429,555.3945 A2.5,2.5 0 0 1 426.5,557.8945 L8.5,557.8945 A2.5,2.5 0 0 1 6,555.3945 L6,9.3945 A2.5,2.5 0 0 1 8.5,6.8945 " fill="none" style="stroke:#000000;stroke-width:1.5;"/><line style="stroke:#000000;stroke-width:1.5;" x1="6" x2="190" y1="38.0508" y2="38.0508"/><text fill="#000000" font-family="sans-serif" font-size="20" font-weight="bold" lengthAdjust="spacing" textLength="171" x="10" y="29.6563">User Management</text><text fill="#000000" font-family="sans-serif" font-size="20" font-style="italic" lengthAdjust="spacing" textLength="111" x="166" y="60.8125">«aggregate»</text></g><!--class User--><g id="elem_User"><rect codeLine="4" fill="#F1F1F1" height="252.4063" id="User" rx="2.5" ry="2.5" style="stroke:#181818;stroke-width:0.5;" width="176" x="86" y="75.8945"/><ellipse cx="136" cy="118.6289" fill="#ADD1B2" rx="12" ry="12" style="stroke:#181818;stroke-width:1.0;"/><path d="M138.1406,113.5508 Q138.3281,113.3008 138.5469,113.1758 Q138.7656,113.0352 139.0156,113.0352 Q139.4531,113.0352 139.7344,113.3477 Q140.0156,113.6445 140.0156,114.3633 L140.0156,116.0664 Q140.0156,116.7852 139.7344,117.0977 Q139.4531,117.4102 139.0156,117.4102 Q138.625,117.4102 138.375,117.1758 Q138.125,116.957 138.0156,116.3477 Q137.9531,115.9258 137.7344,115.707 Q137.3438,115.2695 136.625,115.0039 Q135.9063,114.7383 135.1875,114.7383 Q134.2813,114.7383 133.5313,115.1289 Q132.7813,115.5195 132.2031,116.4102 Q131.625,117.2852 131.625,118.4883 L131.625,119.7852 Q131.625,121.2383 132.6719,122.207 Q133.7344,123.1758 135.5938,123.1758 Q136.7031,123.1758 137.4844,122.8633 Q137.9219,122.6914 138.4375,122.1758 Q138.75,121.8633 138.9219,121.7695 Q139.0938,121.6758 139.3281,121.6758 Q139.7188,121.6758 140.0156,121.9883 Q140.3281,122.2852 140.3281,122.6914 Q140.3281,123.0977 139.9219,123.5664 Q139.3281,124.2539 138.3906,124.6445 Q137.125,125.1758 135.6094,125.1758 Q133.8281,125.1758 132.4063,124.4414 Q131.25,123.8477 130.4375,122.582 Q129.625,121.3164 129.625,119.832 L129.625,118.4727 Q129.625,116.9102 130.3438,115.5664 Q131.0781,114.207 132.3594,113.4727 Q133.6563,112.7383 135.1094,112.7383 Q135.9688,112.7383 136.7188,112.9414 Q137.4844,113.1445 138.1406,113.5508 Z " fill="#000000"/><text fill="#000000" font-family="sans-serif" font-size="20" font-style="italic" lengthAdjust="spacing" textLength="71" x="156" y="101.6563">«Entity»</text><text fill="#000000" font-family="sans-serif" font-size="20" font-style="italic" lengthAdjust="spacing" textLength="56" x="163.5" y="126.8125">«root»</text><text fill="#000000" font-family="sans-serif" font-size="20" lengthAdjust="spacing" textLength="41" x="171" y="151.9688">User</text><line style="stroke:#181818;stroke-width:0.5;" x1="87" x2="261" y1="161.3633" y2="161.3633"/><ellipse cx="97" cy="179.4414" fill="none" rx="3" ry="3" style="stroke:#038048;stroke-width:1.0;"/><text fill="#000000" font-family="sans-serif" font-size="20" lengthAdjust="spacing" textLength="78" x="107" y="186.125">id: String</text><ellipse cx="97" cy="204.5977" fill="none" rx="3" ry="3" style="stroke:#038048;stroke-width:1.0;"/><text fill="#000000" font-family="sans-serif" font-size="20" lengthAdjust="spacing" textLength="111" x="107" y="211.2813">name: String</text><ellipse cx="97" cy="229.7539" fill="none" rx="3" ry="3" style="stroke:#038048;stroke-width:1.0;"/><text fill="#000000" font-family="sans-serif" font-size="20" lengthAdjust="spacing" textLength="109" x="107" y="236.4375">email: String</text><ellipse cx="97" cy="254.9102" fill="none" rx="3" ry="3" style="stroke:#038048;stroke-width:1.0;"/><text fill="#000000" font-family="sans-serif" font-size="20" lengthAdjust="spacing" textLength="149" x="107" y="261.5938">password: String</text><ellipse cx="97" cy="280.0664" fill="none" rx="3" ry="3" style="stroke:#038048;stroke-width:1.0;"/><text fill="#000000" font-family="sans-serif" font-size="20" lengthAdjust="spacing" textLength="116" x="107" y="286.75">status: String</text><line style="stroke:#181818;stroke-width:0.5;" x1="87" x2="261" y1="295.1445" y2="295.1445"/><ellipse cx="97" cy="313.2227" fill="#84BE84" rx="3" ry="3" style="stroke:#038048;stroke-width:1.0;"/><text fill="#000000" font-family="sans-serif" font-size="20" lengthAdjust="spacing" textLength="128" x="107" y="319.9063">register(): void</text></g><!--class Admin--><g id="elem_Admin"><rect codeLine="13" fill="#F1F1F1" height="126.625" id="Admin" rx="2.5" ry="2.5" style="stroke:#181818;stroke-width:0.5;" width="159" x="22.5" y="414.8945"/><ellipse cx="64.6" cy="445.0508" fill="#ADD1B2" rx="12" ry="12" style="stroke:#181818;stroke-width:1.0;"/><path d="M66.7406,439.9727 Q66.9281,439.7227 67.1469,439.5977 Q67.3656,439.457 67.6156,439.457 Q68.0531,439.457 68.3344,439.7695 Q68.6156,440.0664 68.6156,440.7852 L68.6156,442.4883 Q68.6156,443.207 68.3344,443.5195 Q68.0531,443.832 67.6156,443.832 Q67.225,443.832 66.975,443.5977 Q66.725,443.3789 66.6156,442.7695 Q66.5531,442.3477 66.3344,442.1289 Q65.9438,441.6914 65.225,441.4258 Q64.5063,441.1602 63.7875,441.1602 Q62.8812,441.1602 62.1312,441.5508 Q61.3812,441.9414 60.8031,442.832 Q60.225,443.707 60.225,444.9102 L60.225,446.207 Q60.225,447.6602 61.2719,448.6289 Q62.3344,449.5977 64.1938,449.5977 Q65.3031,449.5977 66.0844,449.2852 Q66.5219,449.1133 67.0375,448.5977 Q67.35,448.2852 67.5219,448.1914 Q67.6938,448.0977 67.9281,448.0977 Q68.3188,448.0977 68.6156,448.4102 Q68.9281,448.707 68.9281,449.1133 Q68.9281,449.5195 68.5219,449.9883 Q67.9281,450.6758 66.9906,451.0664 Q65.725,451.5977 64.2094,451.5977 Q62.4281,451.5977 61.0062,450.8633 Q59.85,450.2695 59.0375,449.0039 Q58.225,447.7383 58.225,446.2539 L58.225,444.8945 Q58.225,443.332 58.9437,441.9883 Q59.6781,440.6289 60.9594,439.8945 Q62.2562,439.1602 63.7094,439.1602 Q64.5688,439.1602 65.3188,439.3633 Q66.0844,439.5664 66.7406,439.9727 Z " fill="#000000"/><text fill="#000000" font-family="sans-serif" font-size="20" font-style="italic" lengthAdjust="spacing" textLength="71" x="83.4" y="440.6563">«Entity»</text><text fill="#000000" font-family="sans-serif" font-size="20" lengthAdjust="spacing" textLength="54" x="91.9" y="465.8125">Admin</text><line style="stroke:#181818;stroke-width:0.5;" x1="23.5" x2="180.5" y1="475.207" y2="475.207"/><ellipse cx="33.5" cy="493.2852" fill="none" rx="3" ry="3" style="stroke:#038048;stroke-width:1.0;"/><text fill="#000000" font-family="sans-serif" font-size="20" lengthAdjust="spacing" textLength="132" x="43.5" y="499.9688">adminId: String</text><ellipse cx="33.5" cy="518.4414" fill="none" rx="3" ry="3" style="stroke:#038048;stroke-width:1.0;"/><text fill="#000000" font-family="sans-serif" font-size="20" lengthAdjust="spacing" textLength="96" x="43.5" y="525.125">role: String</text><line style="stroke:#181818;stroke-width:0.5;" x1="23.5" x2="180.5" y1="533.5195" y2="533.5195"/></g><!--class BootstrapProcess--><g id="elem_BootstrapProcess"><rect codeLine="18" fill="#F1F1F1" height="101.4688" id="BootstrapProcess" rx="2.5" ry="2.5" style="stroke:#181818;stroke-width:0.5;" width="196" x="217" y="427.8945"/><ellipse cx="234.8" cy="458.0508" fill="#ADD1B2" rx="12" ry="12" style="stroke:#181818;stroke-width:1.0;"/><path d="M236.9406,452.9727 Q237.1281,452.7227 237.3469,452.5977 Q237.5656,452.457 237.8156,452.457 Q238.2531,452.457 238.5344,452.7695 Q238.8156,453.0664 238.8156,453.7852 L238.8156,455.4883 Q238.8156,456.207 238.5344,456.5195 Q238.2531,456.832 237.8156,456.832 Q237.425,456.832 237.175,456.5977 Q236.925,456.3789 236.8156,455.7695 Q236.7531,455.3477 236.5344,455.1289 Q236.1438,454.6914 235.425,454.4258 Q234.7063,454.1602 233.9875,454.1602 Q233.0813,454.1602 232.3313,454.5508 Q231.5813,454.9414 231.0031,455.832 Q230.425,456.707 230.425,457.9102 L230.425,459.207 Q230.425,460.6602 231.4719,461.6289 Q232.5344,462.5977 234.3938,462.5977 Q235.5031,462.5977 236.2844,462.2852 Q236.7219,462.1133 237.2375,461.5977 Q237.55,461.2852 237.7219,461.1914 Q237.8938,461.0977 238.1281,461.0977 Q238.5188,461.0977 238.8156,461.4102 Q239.1281,461.707 239.1281,462.1133 Q239.1281,462.5195 238.7219,462.9883 Q238.1281,463.6758 237.1906,464.0664 Q235.925,464.5977 234.4094,464.5977 Q232.6281,464.5977 231.2063,463.8633 Q230.05,463.2695 229.2375,462.0039 Q228.425,460.7383 228.425,459.2539 L228.425,457.8945 Q228.425,456.332 229.1438,454.9883 Q229.8781,453.6289 231.1594,452.8945 Q232.4563,452.1602 233.9094,452.1602 Q234.7688,452.1602 235.5188,452.3633 Q236.2844,452.5664 236.9406,452.9727 Z " fill="#000000"/><text fill="#000000" font-family="sans-serif" font-size="20" font-style="italic" lengthAdjust="spacing" textLength="89" x="284.7" y="453.6563">«Service»</text><text fill="#000000" font-family="sans-serif" font-size="20" lengthAdjust="spacing" textLength="158" x="250.2" y="478.8125">BootstrapProcess</text><line style="stroke:#181818;stroke-width:0.5;" x1="218" x2="412" y1="488.207" y2="488.207"/><line style="stroke:#181818;stroke-width:0.5;" x1="218" x2="412" y1="496.207" y2="496.207"/><ellipse cx="228" cy="514.2852" fill="#84BE84" rx="3" ry="3" style="stroke:#038048;stroke-width:1.0;"/><text fill="#000000" font-family="sans-serif" font-size="20" lengthAdjust="spacing" textLength="169" x="238" y="520.9688">initializeUser(): void</text></g><!--link User to Admin--><g id="link_User_Admin"><path codeLine="22" d="M141.16,328.0945 C133.79,356.1945 126.24,384.9845 119.76,409.6845 " fill="none" id="User-to-Admin" style="stroke:#181818;stroke-width:1.0;"/><polygon fill="#181818" points="118.48,414.5645,124.6399,406.8797,119.7532,409.7293,116.9036,404.8427,118.48,414.5645" style="stroke:#181818;stroke-width:1.0;"/><text fill="#000000" font-family="sans-serif" font-size="20" lengthAdjust="spacing" textLength="94" x="132" y="379.6563">created by</text><text fill="#000000" font-family="sans-serif" font-size="20" lengthAdjust="spacing" textLength="11" x="108.6123" y="402.4821">1</text></g><!--link User to BootstrapProcess--><g id="link_User_BootstrapProcess"><path codeLine="23" d="M238.31,328.0945 C255.48,361.5145 273.13,395.8845 287.17,423.2245 " fill="none" id="User-to-BootstrapProcess" style="stroke:#181818;stroke-width:1.0;"/><polygon fill="#181818" points="289.57,427.8945,289.0096,418.0616,287.2826,423.4484,281.8958,421.7214,289.57,427.8945" style="stroke:#181818;stroke-width:1.0;"/><text fill="#000000" font-family="sans-serif" font-size="20" lengthAdjust="spacing" textLength="105" x="266" y="379.6563">initialized by</text><text fill="#000000" font-family="sans-serif" font-size="20" lengthAdjust="spacing" textLength="11" x="274.6071" y="415.5644">1</text></g><!--SRC=[RP71QiCm38RlVWgHqyOeR3i64zYWWnq6Wx07q6mjY3XsaDMERlJTvuP2qoMw-PUi__Flt7CSKN08oVNamTCNxeA-fAWj_n0ytXipekkn8wW-CWcyOIo7WQ9MO2rsdL27Iaq3lyP0AHSmPvXchTr6PJsKfhMIaavJSAuxzZMqAXoxYnPneALA0t9OocDn-awoiYOhwYulzGBBMKbkRclO9_PJvpW7V_83npdv31XFlTSLEqdXclfgvNDvULR1yLsIeo9OsvBisT6_F28hOoYvdz9RGvnItMmQg1wgCsaDJgXyW8VFmt9cOLt3nMMwOexc3m00]--></g></svg>