<?xml version="1.0" encoding="UTF-8" standalone="no"?><svg xmlns="http://www.w3.org/2000/svg" xmlns:xlink="http://www.w3.org/1999/xlink" contentStyleType="text/css" height="1382px" preserveAspectRatio="none" style="width:4406px;height:1382px;background:#FFFFFF;" version="1.1" viewBox="0 0 4406 1382" width="4406px" zoomAndPan="magnify"><defs/><g><!--cluster UI--><g id="cluster_UI"><path d="M8.5,687.29 L31.5,687.29 A3.75,3.75 0 0 1 34,689.79 L41,716.8447 L323.5,716.8447 A2.5,2.5 0 0 1 326,719.3447 L326,862.79 A2.5,2.5 0 0 1 323.5,865.29 L8.5,865.29 A2.5,2.5 0 0 1 6,862.79 L6,689.79 A2.5,2.5 0 0 1 8.5,687.29 " fill="#DDDDDD" style="stroke:#000000;stroke-width:1.5;"/><line style="stroke:#000000;stroke-width:1.5;" x1="6" x2="41" y1="716.8447" y2="716.8447"/><text fill="#000000" font-family="sans-serif" font-size="20" font-weight="bold" lengthAdjust="spacing" textLength="22" x="10" y="708.6259">UI</text></g><!--cluster Controller--><g id="cluster_Controller"><path d="M361.5,687.29 L467.5,687.29 A3.75,3.75 0 0 1 470,689.79 L477,716.8447 L771.5,716.8447 A2.5,2.5 0 0 1 774,719.3447 L774,862.79 A2.5,2.5 0 0 1 771.5,865.29 L361.5,865.29 A2.5,2.5 0 0 1 359,862.79 L359,689.79 A2.5,2.5 0 0 1 361.5,687.29 " fill="#DDDDDD" style="stroke:#000000;stroke-width:1.5;"/><line style="stroke:#000000;stroke-width:1.5;" x1="359" x2="477" y1="716.8447" y2="716.8447"/><text fill="#000000" font-family="sans-serif" font-size="20" font-weight="bold" lengthAdjust="spacing" textLength="105" x="363" y="708.6259">Controller</text></g><!--cluster persistence.impl.jpa--><g id="cluster_persistence.impl.jpa"><path d="M1521.5,17.29 L1729.5,17.29 A3.75,3.75 0 0 1 1732,19.79 L1739,46.8447 L2542,46.8447 A2.5,2.5 0 0 1 2544.5,49.3447 L2544.5,292.79 A2.5,2.5 0 0 1 2542,295.29 L1521.5,295.29 A2.5,2.5 0 0 1 1519,292.79 L1519,19.79 A2.5,2.5 0 0 1 1521.5,17.29 " fill="#DDDDDD" style="stroke:#000000;stroke-width:1.5;"/><line style="stroke:#000000;stroke-width:1.5;" x1="1519" x2="1739" y1="46.8447" y2="46.8447"/><text fill="#000000" font-family="sans-serif" font-size="20" font-weight="bold" lengthAdjust="spacing" textLength="207" x="1523" y="38.6259">persistence.impl.jpa</text></g><!--cluster persistence.impl.inmemory--><g id="cluster_persistence.impl.inmemory"><path d="M1521.5,840.29 L1801.5,840.29 A3.75,3.75 0 0 1 1804,842.79 L1811,869.8447 L2574.5,869.8447 A2.5,2.5 0 0 1 2577,872.3447 L2577,1115.79 A2.5,2.5 0 0 1 2574.5,1118.29 L1521.5,1118.29 A2.5,2.5 0 0 1 1519,1115.79 L1519,842.79 A2.5,2.5 0 0 1 1521.5,840.29 " fill="#DDDDDD" style="stroke:#000000;stroke-width:1.5;"/><line style="stroke:#000000;stroke-width:1.5;" x1="1519" x2="1811" y1="869.8447" y2="869.8447"/><text fill="#000000" font-family="sans-serif" font-size="20" font-weight="bold" lengthAdjust="spacing" textLength="279" x="1523" y="861.6259">persistence.impl.inmemory</text></g><!--cluster persistence--><g id="cluster_persistence"><path d="M1025.5,489.29 L1145.5,489.29 A3.75,3.75 0 0 1 1148,491.79 L1155,518.8447 L1483.5,518.8447 A2.5,2.5 0 0 1 1486,521.3447 L1486,618.79 A2.5,2.5 0 0 1 1483.5,621.29 L1025.5,621.29 A2.5,2.5 0 0 1 1023,618.79 L1023,491.79 A2.5,2.5 0 0 1 1025.5,489.29 " fill="#DDDDDD" style="stroke:#000000;stroke-width:1.5;"/><line style="stroke:#000000;stroke-width:1.5;" x1="1023" x2="1155" y1="518.8447" y2="518.8447"/><text fill="#000000" font-family="sans-serif" font-size="20" font-weight="bold" lengthAdjust="spacing" textLength="119" x="1027" y="510.6259">persistence</text></g><!--cluster Domain--><g id="cluster_Domain"><path d="M2612.5,151.29 L2693.5,151.29 A3.75,3.75 0 0 1 2696,153.79 L2703,180.8447 L4396.5,180.8447 A2.5,2.5 0 0 1 4399,183.3447 L4399,1356.79 A2.5,2.5 0 0 1 4396.5,1359.29 L2612.5,1359.29 A2.5,2.5 0 0 1 2610,1356.79 L2610,153.79 A2.5,2.5 0 0 1 2612.5,151.29 " fill="#DDDDDD" style="stroke:#000000;stroke-width:1.5;"/><line style="stroke:#000000;stroke-width:1.5;" x1="2610" x2="2703" y1="180.8447" y2="180.8447"/><text fill="#000000" font-family="sans-serif" font-size="20" font-weight="bold" lengthAdjust="spacing" textLength="80" x="2614" y="172.6259">Domain</text></g><!--cluster Repository --><g id="cluster_Repository "><path d="M2636.5,585.29 L2756.5,585.29 A3.75,3.75 0 0 1 2759,587.79 L2766,614.8447 L3713.5,614.8447 A2.5,2.5 0 0 1 3716,617.3447 L3716,932.79 A2.5,2.5 0 0 1 3713.5,935.29 L2636.5,935.29 A2.5,2.5 0 0 1 2634,932.79 L2634,587.79 A2.5,2.5 0 0 1 2636.5,585.29 " fill="#DDDDDD" style="stroke:#000000;stroke-width:1.5;"/><line style="stroke:#000000;stroke-width:1.5;" x1="2634" x2="2766" y1="614.8447" y2="614.8447"/><text fill="#000000" font-family="sans-serif" font-size="20" font-weight="bold" lengthAdjust="spacing" textLength="112" x="2638" y="606.6259">Repository</text></g><!--class ListShowRequestUI--><g id="elem_ListShowRequestUI"><rect codeLine="5" fill="#F1F1F1" height="120.2188" id="ListShowRequestUI" rx="2.5" ry="2.5" style="stroke:#181818;stroke-width:0.5;" width="288" x="22" y="729.18"/><ellipse cx="71" cy="757.7347" fill="#ADD1B2" rx="12" ry="12" style="stroke:#181818;stroke-width:1.0;"/><path d="M73.8066,764.8148 Q73.123,765.1663 72.3711,765.3421 Q71.6191,765.5179 70.7891,765.5179 Q67.8398,765.5179 66.2871,763.5745 Q64.7344,761.6312 64.7344,757.9593 Q64.7344,754.2777 66.2871,752.3343 Q67.8398,750.3909 70.7891,750.3909 Q71.6191,750.3909 72.3809,750.5667 Q73.1426,750.7425 73.8066,751.0941 L73.8066,754.2972 Q73.0645,753.6136 72.3662,753.2962 Q71.668,752.9788 70.9258,752.9788 Q69.3438,752.9788 68.5381,754.2337 Q67.7324,755.4886 67.7324,757.9593 Q67.7324,760.4202 68.5381,761.6751 Q69.3438,762.93 70.9258,762.93 Q71.668,762.93 72.3662,762.6126 Q73.0645,762.2952 73.8066,761.6116 Z " fill="#000000"/><text fill="#000000" font-family="sans-serif" font-size="20" font-style="italic" lengthAdjust="spacing" textLength="40" x="163.5" y="753.5159">«UI»</text><text fill="#000000" font-family="sans-serif" font-size="20" lengthAdjust="spacing" textLength="181" x="93" y="777.0706">ListShowRequestUI</text><line style="stroke:#181818;stroke-width:0.5;" x1="23" x2="309" y1="786.2894" y2="786.2894"/><line style="stroke:#181818;stroke-width:0.5;" x1="23" x2="309" y1="794.2894" y2="794.2894"/><ellipse cx="33" cy="811.5667" fill="#84BE84" rx="3" ry="3" style="stroke:#038048;stroke-width:1.0;"/><text fill="#000000" font-family="sans-serif" font-size="20" lengthAdjust="spacing" textLength="259" x="43" y="817.6253">listShowRequest(customer)</text><ellipse cx="33" cy="835.1214" fill="#84BE84" rx="3" ry="3" style="stroke:#038048;stroke-width:1.0;"/><text fill="#000000" font-family="sans-serif" font-size="20" lengthAdjust="spacing" textLength="261" x="43" y="841.18">showCustomersAndSelect()</text></g><!--class ListShowRequestController--><g id="elem_ListShowRequestController"><rect codeLine="12" fill="#F1F1F1" height="120.2188" id="ListShowRequestController" rx="2.5" ry="2.5" style="stroke:#181818;stroke-width:0.5;" width="383" x="375" y="729.18"/><ellipse cx="433.5" cy="757.7347" fill="#ADD1B2" rx="12" ry="12" style="stroke:#181818;stroke-width:1.0;"/><path d="M436.3066,764.8148 Q435.623,765.1663 434.8711,765.3421 Q434.1191,765.5179 433.2891,765.5179 Q430.3398,765.5179 428.7871,763.5745 Q427.2344,761.6312 427.2344,757.9593 Q427.2344,754.2777 428.7871,752.3343 Q430.3398,750.3909 433.2891,750.3909 Q434.1191,750.3909 434.8809,750.5667 Q435.6426,750.7425 436.3066,751.0941 L436.3066,754.2972 Q435.5645,753.6136 434.8662,753.2962 Q434.168,752.9788 433.4258,752.9788 Q431.8438,752.9788 431.0381,754.2337 Q430.2324,755.4886 430.2324,757.9593 Q430.2324,760.4202 431.0381,761.6751 Q431.8438,762.93 433.4258,762.93 Q434.168,762.93 434.8662,762.6126 Q435.5645,762.2952 436.3066,761.6116 Z " fill="#000000"/><text fill="#000000" font-family="sans-serif" font-size="20" font-style="italic" lengthAdjust="spacing" textLength="116" x="526" y="753.5159">«Controller»</text><text fill="#000000" font-family="sans-serif" font-size="20" lengthAdjust="spacing" textLength="257" x="455.5" y="777.0706">ListShowRequestController</text><line style="stroke:#181818;stroke-width:0.5;" x1="376" x2="757" y1="786.2894" y2="786.2894"/><line style="stroke:#181818;stroke-width:0.5;" x1="376" x2="757" y1="794.2894" y2="794.2894"/><ellipse cx="386" cy="811.5667" fill="#84BE84" rx="3" ry="3" style="stroke:#038048;stroke-width:1.0;"/><text fill="#000000" font-family="sans-serif" font-size="20" lengthAdjust="spacing" textLength="259" x="396" y="817.6253">listShowRequest(customer)</text><ellipse cx="386" cy="835.1214" fill="#84BE84" rx="3" ry="3" style="stroke:#038048;stroke-width:1.0;"/><text fill="#000000" font-family="sans-serif" font-size="20" lengthAdjust="spacing" textLength="356" x="396" y="841.18">listCustomers(): Iterable&lt;Customer&gt;</text></g><!--class JpaRepositoryFactory--><g id="elem_JpaRepositoryFactory"><rect codeLine="19" fill="#F1F1F1" height="97.1094" id="JpaRepositoryFactory" rx="2.5" ry="2.5" style="stroke:#181818;stroke-width:0.5;" width="333" x="1535" y="181.74"/><ellipse cx="1596.5" cy="198.74" fill="#ADD1B2" rx="12" ry="12" style="stroke:#181818;stroke-width:1.0;"/><path d="M1599.3066,205.8201 Q1598.623,206.1716 1597.8711,206.3474 Q1597.1191,206.5232 1596.2891,206.5232 Q1593.3398,206.5232 1591.7871,204.5798 Q1590.2344,202.6365 1590.2344,198.9646 Q1590.2344,195.283 1591.7871,193.3396 Q1593.3398,191.3963 1596.2891,191.3963 Q1597.1191,191.3963 1597.8809,191.572 Q1598.6426,191.7478 1599.3066,192.0994 L1599.3066,195.3025 Q1598.5645,194.6189 1597.8662,194.3015 Q1597.168,193.9841 1596.4258,193.9841 Q1594.8438,193.9841 1594.0381,195.239 Q1593.2324,196.4939 1593.2324,198.9646 Q1593.2324,201.4255 1594.0381,202.6804 Q1594.8438,203.9353 1596.4258,203.9353 Q1597.168,203.9353 1597.8662,203.6179 Q1598.5645,203.3005 1599.3066,202.617 Z " fill="#000000"/><text fill="#000000" font-family="sans-serif" font-size="20" lengthAdjust="spacing" textLength="201" x="1618.5" y="206.2986">JpaRepositoryFactory</text><line style="stroke:#181818;stroke-width:0.5;" x1="1536" x2="1867" y1="215.74" y2="215.74"/><line style="stroke:#181818;stroke-width:0.5;" x1="1536" x2="1867" y1="223.74" y2="223.74"/><rect fill="#F24D5C" height="6" style="stroke:#C82930;stroke-width:1.0;" width="6" x="1543" y="238.0173"/><text fill="#000000" font-family="sans-serif" font-size="20" lengthAdjust="spacing" textLength="215" x="1556" y="247.0759">JpaRepositoryFactory()</text><ellipse cx="1546" cy="264.572" fill="#84BE84" rx="3" ry="3" style="stroke:#038048;stroke-width:1.0;"/><text fill="#000000" font-family="sans-serif" font-size="20" lengthAdjust="spacing" textLength="306" x="1556" y="270.6306">getInstance(): RepositoryFactory</text></g><!--class JpaShowRequestRepository--><g id="elem_JpaShowRequestRepository"><rect codeLine="24" fill="#F1F1F1" height="50" id="JpaShowRequestRepository" rx="2.5" ry="2.5" style="stroke:#181818;stroke-width:0.5;" width="293" x="2235.5" y="144.29"/><ellipse cx="2251.5" cy="161.29" fill="#ADD1B2" rx="12" ry="12" style="stroke:#181818;stroke-width:1.0;"/><path d="M2254.3066,168.3701 Q2253.623,168.7216 2252.8711,168.8974 Q2252.1191,169.0732 2251.2891,169.0732 Q2248.3398,169.0732 2246.7871,167.1298 Q2245.2344,165.1865 2245.2344,161.5146 Q2245.2344,157.833 2246.7871,155.8896 Q2248.3398,153.9462 2251.2891,153.9462 Q2252.1191,153.9462 2252.8809,154.122 Q2253.6426,154.2978 2254.3066,154.6494 L2254.3066,157.8525 Q2253.5645,157.1689 2252.8662,156.8515 Q2252.168,156.5341 2251.4258,156.5341 Q2249.8438,156.5341 2249.0381,157.789 Q2248.2324,159.0439 2248.2324,161.5146 Q2248.2324,163.9755 2249.0381,165.2304 Q2249.8438,166.4853 2251.4258,166.4853 Q2252.168,166.4853 2252.8662,166.1679 Q2253.5645,165.8505 2254.3066,165.167 Z " fill="#000000"/><text fill="#000000" font-family="sans-serif" font-size="20" lengthAdjust="spacing" textLength="259" x="2266.5" y="168.8486">JpaShowRequestRepository</text><line style="stroke:#181818;stroke-width:0.5;" x1="2236.5" x2="2527.5" y1="178.29" y2="178.29"/><line style="stroke:#181818;stroke-width:0.5;" x1="2236.5" x2="2527.5" y1="186.29" y2="186.29"/></g><!--class JpaCustomersRepository--><g id="elem_JpaCustomersRepository"><rect codeLine="27" fill="#F1F1F1" height="50" id="JpaCustomersRepository" rx="2.5" ry="2.5" style="stroke:#181818;stroke-width:0.5;" width="269" x="2247.5" y="229.29"/><ellipse cx="2263.5" cy="246.29" fill="#ADD1B2" rx="12" ry="12" style="stroke:#181818;stroke-width:1.0;"/><path d="M2266.3066,253.3701 Q2265.623,253.7216 2264.8711,253.8974 Q2264.1191,254.0732 2263.2891,254.0732 Q2260.3398,254.0732 2258.7871,252.1298 Q2257.2344,250.1865 2257.2344,246.5146 Q2257.2344,242.833 2258.7871,240.8896 Q2260.3398,238.9462 2263.2891,238.9462 Q2264.1191,238.9462 2264.8809,239.122 Q2265.6426,239.2978 2266.3066,239.6494 L2266.3066,242.8525 Q2265.5645,242.1689 2264.8662,241.8515 Q2264.168,241.5341 2263.4258,241.5341 Q2261.8438,241.5341 2261.0381,242.789 Q2260.2324,244.0439 2260.2324,246.5146 Q2260.2324,248.9755 2261.0381,250.2304 Q2261.8438,251.4853 2263.4258,251.4853 Q2264.168,251.4853 2264.8662,251.1679 Q2265.5645,250.8505 2266.3066,250.167 Z " fill="#000000"/><text fill="#000000" font-family="sans-serif" font-size="20" lengthAdjust="spacing" textLength="235" x="2278.5" y="253.8486">JpaCustomersRepository</text><line style="stroke:#181818;stroke-width:0.5;" x1="2248.5" x2="2515.5" y1="263.29" y2="263.29"/><line style="stroke:#181818;stroke-width:0.5;" x1="2248.5" x2="2515.5" y1="271.29" y2="271.29"/></g><!--class JpaUsersRepository--><g id="elem_JpaUsersRepository"><rect codeLine="30" fill="#F1F1F1" height="50" id="JpaUsersRepository" rx="2.5" ry="2.5" style="stroke:#181818;stroke-width:0.5;" width="219" x="2272.5" y="59.29"/><ellipse cx="2288.5" cy="76.29" fill="#ADD1B2" rx="12" ry="12" style="stroke:#181818;stroke-width:1.0;"/><path d="M2291.3066,83.3701 Q2290.623,83.7216 2289.8711,83.8974 Q2289.1191,84.0732 2288.2891,84.0732 Q2285.3398,84.0732 2283.7871,82.1298 Q2282.2344,80.1865 2282.2344,76.5146 Q2282.2344,72.833 2283.7871,70.8896 Q2285.3398,68.9462 2288.2891,68.9462 Q2289.1191,68.9462 2289.8809,69.122 Q2290.6426,69.2978 2291.3066,69.6494 L2291.3066,72.8525 Q2290.5645,72.1689 2289.8662,71.8515 Q2289.168,71.5341 2288.4258,71.5341 Q2286.8438,71.5341 2286.0381,72.789 Q2285.2324,74.0439 2285.2324,76.5146 Q2285.2324,78.9755 2286.0381,80.2304 Q2286.8438,81.4853 2288.4258,81.4853 Q2289.168,81.4853 2289.8662,81.1679 Q2290.5645,80.8505 2291.3066,80.167 Z " fill="#000000"/><text fill="#000000" font-family="sans-serif" font-size="20" lengthAdjust="spacing" textLength="185" x="2303.5" y="83.8486">JpaUsersRepository</text><line style="stroke:#181818;stroke-width:0.5;" x1="2273.5" x2="2490.5" y1="93.29" y2="93.29"/><line style="stroke:#181818;stroke-width:0.5;" x1="2273.5" x2="2490.5" y1="101.29" y2="101.29"/></g><!--class InMemoryRepositoryFactory--><g id="elem_InMemoryRepositoryFactory"><rect codeLine="35" fill="#F1F1F1" height="97.1094" id="InMemoryRepositoryFactory" rx="2.5" ry="2.5" style="stroke:#181818;stroke-width:0.5;" width="333" x="1535" y="882.74"/><ellipse cx="1565.85" cy="899.74" fill="#ADD1B2" rx="12" ry="12" style="stroke:#181818;stroke-width:1.0;"/><path d="M1568.6566,906.8201 Q1567.973,907.1716 1567.2211,907.3474 Q1566.4691,907.5232 1565.6391,907.5232 Q1562.6898,907.5232 1561.1371,905.5798 Q1559.5844,903.6365 1559.5844,899.9646 Q1559.5844,896.283 1561.1371,894.3396 Q1562.6898,892.3963 1565.6391,892.3963 Q1566.4691,892.3963 1567.2309,892.572 Q1567.9926,892.7478 1568.6566,893.0994 L1568.6566,896.3025 Q1567.9145,895.6189 1567.2162,895.3015 Q1566.518,894.9841 1565.7758,894.9841 Q1564.1938,894.9841 1563.3881,896.239 Q1562.5824,897.4939 1562.5824,899.9646 Q1562.5824,902.4255 1563.3881,903.6804 Q1564.1938,904.9353 1565.7758,904.9353 Q1566.518,904.9353 1567.2162,904.6179 Q1567.9145,904.3005 1568.6566,903.617 Z " fill="#000000"/><text fill="#000000" font-family="sans-serif" font-size="20" lengthAdjust="spacing" textLength="266" x="1584.15" y="907.2986">InMemoryRepositoryFactory</text><line style="stroke:#181818;stroke-width:0.5;" x1="1536" x2="1867" y1="916.74" y2="916.74"/><line style="stroke:#181818;stroke-width:0.5;" x1="1536" x2="1867" y1="924.74" y2="924.74"/><rect fill="#F24D5C" height="6" style="stroke:#C82930;stroke-width:1.0;" width="6" x="1543" y="939.0173"/><text fill="#000000" font-family="sans-serif" font-size="20" lengthAdjust="spacing" textLength="280" x="1556" y="948.0759">InMemoryRepositoryFactory()</text><ellipse cx="1546" cy="965.572" fill="#84BE84" rx="3" ry="3" style="stroke:#038048;stroke-width:1.0;"/><text fill="#000000" font-family="sans-serif" font-size="20" lengthAdjust="spacing" textLength="306" x="1556" y="971.6306">getInstance(): RepositoryFactory</text></g><!--class InMemoryShowRequestRepository--><g id="elem_InMemoryShowRequestRepository"><rect codeLine="40" fill="#F1F1F1" height="50" id="InMemoryShowRequestRepository" rx="2.5" ry="2.5" style="stroke:#181818;stroke-width:0.5;" width="358" x="2203" y="967.29"/><ellipse cx="2219" cy="984.29" fill="#ADD1B2" rx="12" ry="12" style="stroke:#181818;stroke-width:1.0;"/><path d="M2221.8066,991.3701 Q2221.123,991.7216 2220.3711,991.8974 Q2219.6191,992.0732 2218.7891,992.0732 Q2215.8398,992.0732 2214.2871,990.1298 Q2212.7344,988.1865 2212.7344,984.5146 Q2212.7344,980.833 2214.2871,978.8896 Q2215.8398,976.9463 2218.7891,976.9463 Q2219.6191,976.9463 2220.3809,977.122 Q2221.1426,977.2978 2221.8066,977.6494 L2221.8066,980.8525 Q2221.0645,980.1689 2220.3662,979.8515 Q2219.668,979.5341 2218.9258,979.5341 Q2217.3438,979.5341 2216.5381,980.789 Q2215.7324,982.0439 2215.7324,984.5146 Q2215.7324,986.9755 2216.5381,988.2304 Q2217.3438,989.4853 2218.9258,989.4853 Q2219.668,989.4853 2220.3662,989.1679 Q2221.0645,988.8505 2221.8066,988.167 Z " fill="#000000"/><text fill="#000000" font-family="sans-serif" font-size="20" lengthAdjust="spacing" textLength="324" x="2234" y="991.8486">InMemoryShowRequestRepository</text><line style="stroke:#181818;stroke-width:0.5;" x1="2204" x2="2560" y1="1001.29" y2="1001.29"/><line style="stroke:#181818;stroke-width:0.5;" x1="2204" x2="2560" y1="1009.29" y2="1009.29"/></g><!--class InMemoryCustomersRepository--><g id="elem_InMemoryCustomersRepository"><rect codeLine="43" fill="#F1F1F1" height="50" id="InMemoryCustomersRepository" rx="2.5" ry="2.5" style="stroke:#181818;stroke-width:0.5;" width="334" x="2215" y="1052.29"/><ellipse cx="2231" cy="1069.29" fill="#ADD1B2" rx="12" ry="12" style="stroke:#181818;stroke-width:1.0;"/><path d="M2233.8066,1076.3701 Q2233.123,1076.7216 2232.3711,1076.8974 Q2231.6191,1077.0732 2230.7891,1077.0732 Q2227.8398,1077.0732 2226.2871,1075.1298 Q2224.7344,1073.1865 2224.7344,1069.5146 Q2224.7344,1065.833 2226.2871,1063.8896 Q2227.8398,1061.9463 2230.7891,1061.9463 Q2231.6191,1061.9463 2232.3809,1062.122 Q2233.1426,1062.2978 2233.8066,1062.6494 L2233.8066,1065.8525 Q2233.0645,1065.1689 2232.3662,1064.8515 Q2231.668,1064.5341 2230.9258,1064.5341 Q2229.3438,1064.5341 2228.5381,1065.789 Q2227.7324,1067.0439 2227.7324,1069.5146 Q2227.7324,1071.9755 2228.5381,1073.2304 Q2229.3438,1074.4853 2230.9258,1074.4853 Q2231.668,1074.4853 2232.3662,1074.1679 Q2233.0645,1073.8505 2233.8066,1073.167 Z " fill="#000000"/><text fill="#000000" font-family="sans-serif" font-size="20" lengthAdjust="spacing" textLength="300" x="2246" y="1076.8486">InMemoryCustomersRepository</text><line style="stroke:#181818;stroke-width:0.5;" x1="2216" x2="2548" y1="1086.29" y2="1086.29"/><line style="stroke:#181818;stroke-width:0.5;" x1="2216" x2="2548" y1="1094.29" y2="1094.29"/></g><!--class InMemoryUsersRepository--><g id="elem_InMemoryUsersRepository"><rect codeLine="46" fill="#F1F1F1" height="50" id="InMemoryUsersRepository" rx="2.5" ry="2.5" style="stroke:#181818;stroke-width:0.5;" width="284" x="2240" y="882.29"/><ellipse cx="2256" cy="899.29" fill="#ADD1B2" rx="12" ry="12" style="stroke:#181818;stroke-width:1.0;"/><path d="M2258.8066,906.3701 Q2258.123,906.7216 2257.3711,906.8974 Q2256.6191,907.0732 2255.7891,907.0732 Q2252.8398,907.0732 2251.2871,905.1298 Q2249.7344,903.1865 2249.7344,899.5146 Q2249.7344,895.833 2251.2871,893.8896 Q2252.8398,891.9463 2255.7891,891.9463 Q2256.6191,891.9463 2257.3809,892.122 Q2258.1426,892.2978 2258.8066,892.6494 L2258.8066,895.8525 Q2258.0645,895.1689 2257.3662,894.8515 Q2256.668,894.5341 2255.9258,894.5341 Q2254.3438,894.5341 2253.5381,895.789 Q2252.7324,897.0439 2252.7324,899.5146 Q2252.7324,901.9755 2253.5381,903.2304 Q2254.3438,904.4853 2255.9258,904.4853 Q2256.668,904.4853 2257.3662,904.1679 Q2258.0645,903.8505 2258.8066,903.167 Z " fill="#000000"/><text fill="#000000" font-family="sans-serif" font-size="20" lengthAdjust="spacing" textLength="250" x="2271" y="906.8486">InMemoryUsersRepository</text><line style="stroke:#181818;stroke-width:0.5;" x1="2241" x2="2523" y1="916.29" y2="916.29"/><line style="stroke:#181818;stroke-width:0.5;" x1="2241" x2="2523" y1="924.29" y2="924.29"/></g><!--class PersistenceContext--><g id="elem_PersistenceContext"><rect codeLine="51" fill="#F1F1F1" height="73.5547" id="PersistenceContext" rx="2.5" ry="2.5" style="stroke:#181818;stroke-width:0.5;" width="431" x="1039" y="531.51"/><ellipse cx="1159" cy="548.51" fill="#ADD1B2" rx="12" ry="12" style="stroke:#181818;stroke-width:1.0;"/><path d="M1161.8066,555.5901 Q1161.123,555.9416 1160.3711,556.1174 Q1159.6191,556.2932 1158.7891,556.2932 Q1155.8398,556.2932 1154.2871,554.3498 Q1152.7344,552.4065 1152.7344,548.7346 Q1152.7344,545.053 1154.2871,543.1096 Q1155.8398,541.1663 1158.7891,541.1663 Q1159.6191,541.1663 1160.3809,541.342 Q1161.1426,541.5178 1161.8066,541.8694 L1161.8066,545.0725 Q1161.0645,544.3889 1160.3662,544.0715 Q1159.668,543.7541 1158.9258,543.7541 Q1157.3438,543.7541 1156.5381,545.009 Q1155.7324,546.2639 1155.7324,548.7346 Q1155.7324,551.1955 1156.5381,552.4504 Q1157.3438,553.7053 1158.9258,553.7053 Q1159.668,553.7053 1160.3662,553.3879 Q1161.0645,553.0705 1161.8066,552.387 Z " fill="#000000"/><text fill="#000000" font-family="sans-serif" font-size="20" lengthAdjust="spacing" textLength="182" x="1181" y="556.0686">PersistenceContext</text><line style="stroke:#181818;stroke-width:0.5;" x1="1040" x2="1469" y1="565.51" y2="565.51"/><line style="stroke:#181818;stroke-width:0.5;" x1="1040" x2="1469" y1="573.51" y2="573.51"/><ellipse cx="1050" cy="590.7873" fill="#84BE84" rx="3" ry="3" style="stroke:#038048;stroke-width:1.0;"/><text fill="#000000" font-family="sans-serif" font-size="20" lengthAdjust="spacing" textLength="404" x="1060" y="596.8459">getRepositoryFactory() : RepositoryFactory</text></g><!--class CRMCollaborator--><g id="elem_CRMCollaborator"><rect codeLine="77" fill="#F1F1F1" height="73.1094" id="CRMCollaborator" rx="2.5" ry="2.5" style="stroke:#181818;stroke-width:0.5;" width="198" x="4150.5" y="213.79"/><ellipse cx="4166.5" cy="242.3447" fill="#ADD1B2" rx="12" ry="12" style="stroke:#181818;stroke-width:1.0;"/><path d="M4169.3066,249.4248 Q4168.623,249.7763 4167.8711,249.9521 Q4167.1191,250.1279 4166.2891,250.1279 Q4163.3398,250.1279 4161.7871,248.1845 Q4160.2344,246.2412 4160.2344,242.5693 Q4160.2344,238.8877 4161.7871,236.9443 Q4163.3398,235.0009 4166.2891,235.0009 Q4167.1191,235.0009 4167.8809,235.1767 Q4168.6426,235.3525 4169.3066,235.7041 L4169.3066,238.9072 Q4168.5645,238.2236 4167.8662,237.9062 Q4167.168,237.5888 4166.4258,237.5888 Q4164.8438,237.5888 4164.0381,238.8437 Q4163.2324,240.0986 4163.2324,242.5693 Q4163.2324,245.0302 4164.0381,246.2851 Q4164.8438,247.54 4166.4258,247.54 Q4167.168,247.54 4167.8662,247.2226 Q4168.5645,246.9052 4169.3066,246.2216 Z " fill="#000000"/><text fill="#000000" font-family="sans-serif" font-size="20" font-style="italic" lengthAdjust="spacing" textLength="73" x="4227" y="238.1259">«Entity»</text><text fill="#000000" font-family="sans-serif" font-size="20" lengthAdjust="spacing" textLength="164" x="4181.5" y="261.6806">CRMCollaborator</text><line style="stroke:#181818;stroke-width:0.5;" x1="4151.5" x2="4347.5" y1="270.8994" y2="270.8994"/><line style="stroke:#181818;stroke-width:0.5;" x1="4151.5" x2="4347.5" y1="278.8994" y2="278.8994"/></g><!--class Customer--><g id="elem_Customer"><rect codeLine="80" fill="#F1F1F1" height="73.1094" id="Customer" rx="2.5" ry="2.5" style="stroke:#181818;stroke-width:0.5;" width="127" x="4186" y="1249.79"/><ellipse cx="4202" cy="1278.3447" fill="#ADD1B2" rx="12" ry="12" style="stroke:#181818;stroke-width:1.0;"/><path d="M4204.8066,1285.4248 Q4204.123,1285.7763 4203.3711,1285.9521 Q4202.6191,1286.1279 4201.7891,1286.1279 Q4198.8398,1286.1279 4197.2871,1284.1845 Q4195.7344,1282.2412 4195.7344,1278.5693 Q4195.7344,1274.8877 4197.2871,1272.9443 Q4198.8398,1271.0009 4201.7891,1271.0009 Q4202.6191,1271.0009 4203.3809,1271.1767 Q4204.1426,1271.3525 4204.8066,1271.7041 L4204.8066,1274.9072 Q4204.0645,1274.2236 4203.3662,1273.9062 Q4202.668,1273.5888 4201.9258,1273.5888 Q4200.3438,1273.5888 4199.5381,1274.8437 Q4198.7324,1276.0986 4198.7324,1278.5693 Q4198.7324,1281.0302 4199.5381,1282.2851 Q4200.3438,1283.54 4201.9258,1283.54 Q4202.668,1283.54 4203.3662,1283.2226 Q4204.0645,1282.9052 4204.8066,1282.2216 Z " fill="#000000"/><text fill="#000000" font-family="sans-serif" font-size="20" font-style="italic" lengthAdjust="spacing" textLength="73" x="4227" y="1274.1259">«Entity»</text><text fill="#000000" font-family="sans-serif" font-size="20" lengthAdjust="spacing" textLength="93" x="4217" y="1297.6806">Customer</text><line style="stroke:#181818;stroke-width:0.5;" x1="4187" x2="4312" y1="1306.8994" y2="1306.8994"/><line style="stroke:#181818;stroke-width:0.5;" x1="4187" x2="4312" y1="1314.8994" y2="1314.8994"/></g><!--class Location--><g id="elem_Location"><rect codeLine="83" fill="#F1F1F1" height="73.1094" id="Location" rx="2.5" ry="2.5" style="stroke:#181818;stroke-width:0.5;" width="172" x="4163.5" y="953.79"/><ellipse cx="4179.5" cy="982.3447" fill="#ADD1B2" rx="12" ry="12" style="stroke:#181818;stroke-width:1.0;"/><path d="M4182.3066,989.4248 Q4181.623,989.7763 4180.8711,989.9521 Q4180.1191,990.1279 4179.2891,990.1279 Q4176.3398,990.1279 4174.7871,988.1845 Q4173.2344,986.2412 4173.2344,982.5693 Q4173.2344,978.8877 4174.7871,976.9443 Q4176.3398,975.0009 4179.2891,975.0009 Q4180.1191,975.0009 4180.8809,975.1767 Q4181.6426,975.3525 4182.3066,975.7041 L4182.3066,978.9072 Q4181.5645,978.2236 4180.8662,977.9062 Q4180.168,977.5888 4179.4258,977.5888 Q4177.8438,977.5888 4177.0381,978.8437 Q4176.2324,980.0986 4176.2324,982.5693 Q4176.2324,985.0302 4177.0381,986.2851 Q4177.8438,987.54 4179.4258,987.54 Q4180.168,987.54 4180.8662,987.2226 Q4181.5645,986.9052 4182.3066,986.2216 Z " fill="#000000"/><text fill="#000000" font-family="sans-serif" font-size="20" font-style="italic" lengthAdjust="spacing" textLength="142" x="4192.5" y="978.1259">«Value Object»</text><text fill="#000000" font-family="sans-serif" font-size="20" lengthAdjust="spacing" textLength="81" x="4223" y="1001.6806">Location</text><line style="stroke:#181818;stroke-width:0.5;" x1="4164.5" x2="4334.5" y1="1010.8994" y2="1010.8994"/><line style="stroke:#181818;stroke-width:0.5;" x1="4164.5" x2="4334.5" y1="1018.8994" y2="1018.8994"/></g><!--class ShowRequestStatus--><g id="elem_ShowRequestStatus"><rect codeLine="86" fill="#F1F1F1" height="73.1094" id="ShowRequestStatus" rx="2.5" ry="2.5" style="stroke:#181818;stroke-width:0.5;" width="219" x="4140" y="805.79"/><ellipse cx="4156" cy="834.3447" fill="#EB937F" rx="12" ry="12" style="stroke:#181818;stroke-width:1.0;"/><path d="M4160.7227,841.8447 L4151.6406,841.8447 L4151.6406,827.2646 L4160.7227,827.2646 L4160.7227,829.8037 L4154.5215,829.8037 L4154.5215,832.9482 L4160.1367,832.9482 L4160.1367,835.4873 L4154.5215,835.4873 L4154.5215,839.3056 L4160.7227,839.3056 Z " fill="#000000"/><text fill="#000000" font-family="sans-serif" font-size="20" font-style="italic" lengthAdjust="spacing" textLength="142" x="4192.5" y="830.1259">«Value Object»</text><text fill="#000000" font-family="sans-serif" font-size="20" lengthAdjust="spacing" textLength="185" x="4171" y="853.6806">ShowRequestStatus</text><line style="stroke:#181818;stroke-width:0.5;" x1="4141" x2="4358" y1="862.8994" y2="862.8994"/><line style="stroke:#181818;stroke-width:0.5;" x1="4141" x2="4358" y1="870.8994" y2="870.8994"/></g><!--class ShowDescription--><g id="elem_ShowDescription"><rect codeLine="89" fill="#F1F1F1" height="73.1094" id="ShowDescription" rx="2.5" ry="2.5" style="stroke:#181818;stroke-width:0.5;" width="194" x="4152.5" y="657.79"/><ellipse cx="4168.5" cy="686.3447" fill="#ADD1B2" rx="12" ry="12" style="stroke:#181818;stroke-width:1.0;"/><path d="M4171.3066,693.4248 Q4170.623,693.7763 4169.8711,693.9521 Q4169.1191,694.1279 4168.2891,694.1279 Q4165.3398,694.1279 4163.7871,692.1845 Q4162.2344,690.2412 4162.2344,686.5693 Q4162.2344,682.8877 4163.7871,680.9443 Q4165.3398,679.0009 4168.2891,679.0009 Q4169.1191,679.0009 4169.8809,679.1767 Q4170.6426,679.3525 4171.3066,679.7041 L4171.3066,682.9072 Q4170.5645,682.2236 4169.8662,681.9062 Q4169.168,681.5888 4168.4258,681.5888 Q4166.8438,681.5888 4166.0381,682.8437 Q4165.2324,684.0986 4165.2324,686.5693 Q4165.2324,689.0302 4166.0381,690.2851 Q4166.8438,691.54 4168.4258,691.54 Q4169.168,691.54 4169.8662,691.2226 Q4170.5645,690.9052 4171.3066,690.2216 Z " fill="#000000"/><text fill="#000000" font-family="sans-serif" font-size="20" font-style="italic" lengthAdjust="spacing" textLength="142" x="4192.5" y="682.1259">«Value Object»</text><text fill="#000000" font-family="sans-serif" font-size="20" lengthAdjust="spacing" textLength="160" x="4183.5" y="705.6806">ShowDescription</text><line style="stroke:#181818;stroke-width:0.5;" x1="4153.5" x2="4345.5" y1="714.8994" y2="714.8994"/><line style="stroke:#181818;stroke-width:0.5;" x1="4153.5" x2="4345.5" y1="722.8994" y2="722.8994"/></g><!--class ShowRequest--><g id="elem_ShowRequest"><rect codeLine="92" fill="#F1F1F1" height="73.1094" id="ShowRequest" rx="2.5" ry="2.5" style="stroke:#181818;stroke-width:0.5;" width="161" x="3763" y="736.74"/><ellipse cx="3779" cy="765.2947" fill="#ADD1B2" rx="12" ry="12" style="stroke:#181818;stroke-width:1.0;"/><path d="M3781.8066,772.3748 Q3781.123,772.7263 3780.3711,772.9021 Q3779.6191,773.0779 3778.7891,773.0779 Q3775.8398,773.0779 3774.2871,771.1345 Q3772.7344,769.1912 3772.7344,765.5193 Q3772.7344,761.8377 3774.2871,759.8943 Q3775.8398,757.9509 3778.7891,757.9509 Q3779.6191,757.9509 3780.3809,758.1267 Q3781.1426,758.3025 3781.8066,758.6541 L3781.8066,761.8572 Q3781.0645,761.1736 3780.3662,760.8562 Q3779.668,760.5388 3778.9258,760.5388 Q3777.3438,760.5388 3776.5381,761.7937 Q3775.7324,763.0486 3775.7324,765.5193 Q3775.7324,767.9802 3776.5381,769.2351 Q3777.3438,770.49 3778.9258,770.49 Q3779.668,770.49 3780.3662,770.1726 Q3781.0645,769.8552 3781.8066,769.1716 Z " fill="#000000"/><text fill="#000000" font-family="sans-serif" font-size="20" font-style="italic" lengthAdjust="spacing" textLength="73" x="3821" y="761.0759">«Entity»</text><text fill="#000000" font-family="sans-serif" font-size="20" lengthAdjust="spacing" textLength="127" x="3794" y="784.6306">ShowRequest</text><line style="stroke:#181818;stroke-width:0.5;" x1="3764" x2="3923" y1="793.8494" y2="793.8494"/><line style="stroke:#181818;stroke-width:0.5;" x1="3764" x2="3923" y1="801.8494" y2="801.8494"/></g><!--class Time--><g id="elem_Time"><rect codeLine="95" fill="#F1F1F1" height="73.1094" id="Time" rx="2.5" ry="2.5" style="stroke:#181818;stroke-width:0.5;" width="172" x="4163.5" y="509.79"/><ellipse cx="4179.5" cy="538.3447" fill="#ADD1B2" rx="12" ry="12" style="stroke:#181818;stroke-width:1.0;"/><path d="M4182.3066,545.4248 Q4181.623,545.7763 4180.8711,545.9521 Q4180.1191,546.1279 4179.2891,546.1279 Q4176.3398,546.1279 4174.7871,544.1845 Q4173.2344,542.2412 4173.2344,538.5693 Q4173.2344,534.8877 4174.7871,532.9443 Q4176.3398,531.0009 4179.2891,531.0009 Q4180.1191,531.0009 4180.8809,531.1767 Q4181.6426,531.3525 4182.3066,531.7041 L4182.3066,534.9072 Q4181.5645,534.2236 4180.8662,533.9062 Q4180.168,533.5888 4179.4258,533.5888 Q4177.8438,533.5888 4177.0381,534.8437 Q4176.2324,536.0986 4176.2324,538.5693 Q4176.2324,541.0302 4177.0381,542.2851 Q4177.8438,543.54 4179.4258,543.54 Q4180.168,543.54 4180.8662,543.2226 Q4181.5645,542.9052 4182.3066,542.2216 Z " fill="#000000"/><text fill="#000000" font-family="sans-serif" font-size="20" font-style="italic" lengthAdjust="spacing" textLength="142" x="4192.5" y="534.1259">«Value Object»</text><text fill="#000000" font-family="sans-serif" font-size="20" lengthAdjust="spacing" textLength="49" x="4239" y="557.6806">Time</text><line style="stroke:#181818;stroke-width:0.5;" x1="4164.5" x2="4334.5" y1="566.8994" y2="566.8994"/><line style="stroke:#181818;stroke-width:0.5;" x1="4164.5" x2="4334.5" y1="574.8994" y2="574.8994"/></g><!--class Date--><g id="elem_Date"><rect codeLine="98" fill="#F1F1F1" height="73.1094" id="Date" rx="2.5" ry="2.5" style="stroke:#181818;stroke-width:0.5;" width="172" x="4163.5" y="361.79"/><ellipse cx="4179.5" cy="390.3447" fill="#ADD1B2" rx="12" ry="12" style="stroke:#181818;stroke-width:1.0;"/><path d="M4182.3066,397.4248 Q4181.623,397.7763 4180.8711,397.9521 Q4180.1191,398.1279 4179.2891,398.1279 Q4176.3398,398.1279 4174.7871,396.1845 Q4173.2344,394.2412 4173.2344,390.5693 Q4173.2344,386.8877 4174.7871,384.9443 Q4176.3398,383.0009 4179.2891,383.0009 Q4180.1191,383.0009 4180.8809,383.1767 Q4181.6426,383.3525 4182.3066,383.7041 L4182.3066,386.9072 Q4181.5645,386.2236 4180.8662,385.9062 Q4180.168,385.5888 4179.4258,385.5888 Q4177.8438,385.5888 4177.0381,386.8437 Q4176.2324,388.0986 4176.2324,390.5693 Q4176.2324,393.0302 4177.0381,394.2851 Q4177.8438,395.54 4179.4258,395.54 Q4180.168,395.54 4180.8662,395.2226 Q4181.5645,394.9052 4182.3066,394.2216 Z " fill="#000000"/><text fill="#000000" font-family="sans-serif" font-size="20" font-style="italic" lengthAdjust="spacing" textLength="142" x="4192.5" y="386.1259">«Value Object»</text><text fill="#000000" font-family="sans-serif" font-size="20" lengthAdjust="spacing" textLength="44" x="4241.5" y="409.6806">Date</text><line style="stroke:#181818;stroke-width:0.5;" x1="4164.5" x2="4334.5" y1="418.8994" y2="418.8994"/><line style="stroke:#181818;stroke-width:0.5;" x1="4164.5" x2="4334.5" y1="426.8994" y2="426.8994"/></g><!--class QuantityOfDrones--><g id="elem_QuantityOfDrones"><rect codeLine="101" fill="#F1F1F1" height="73.1094" id="QuantityOfDrones" rx="2.5" ry="2.5" style="stroke:#181818;stroke-width:0.5;" width="206" x="4146.5" y="1101.79"/><ellipse cx="4162.5" cy="1130.3447" fill="#ADD1B2" rx="12" ry="12" style="stroke:#181818;stroke-width:1.0;"/><path d="M4165.3066,1137.4248 Q4164.623,1137.7763 4163.8711,1137.9521 Q4163.1191,1138.1279 4162.2891,1138.1279 Q4159.3398,1138.1279 4157.7871,1136.1845 Q4156.2344,1134.2412 4156.2344,1130.5693 Q4156.2344,1126.8877 4157.7871,1124.9443 Q4159.3398,1123.0009 4162.2891,1123.0009 Q4163.1191,1123.0009 4163.8809,1123.1767 Q4164.6426,1123.3525 4165.3066,1123.7041 L4165.3066,1126.9072 Q4164.5645,1126.2236 4163.8662,1125.9062 Q4163.168,1125.5888 4162.4258,1125.5888 Q4160.8438,1125.5888 4160.0381,1126.8437 Q4159.2324,1128.0986 4159.2324,1130.5693 Q4159.2324,1133.0302 4160.0381,1134.2851 Q4160.8438,1135.54 4162.4258,1135.54 Q4163.168,1135.54 4163.8662,1135.2226 Q4164.5645,1134.9052 4165.3066,1134.2216 Z " fill="#000000"/><text fill="#000000" font-family="sans-serif" font-size="20" font-style="italic" lengthAdjust="spacing" textLength="142" x="4192.5" y="1126.1259">«Value Object»</text><text fill="#000000" font-family="sans-serif" font-size="20" lengthAdjust="spacing" textLength="172" x="4177.5" y="1149.6806">QuantityOfDrones</text><line style="stroke:#181818;stroke-width:0.5;" x1="4147.5" x2="4351.5" y1="1158.8994" y2="1158.8994"/><line style="stroke:#181818;stroke-width:0.5;" x1="4147.5" x2="4351.5" y1="1166.8994" y2="1166.8994"/></g><!--class RepositoryFactory--><g id="elem_RepositoryFactory"><rect codeLine="58" fill="#F1F1F1" height="120.6641" id="RepositoryFactory" rx="2.5" ry="2.5" style="stroke:#181818;stroke-width:0.5;" width="547" x="2650" y="626.96"/><ellipse cx="2833.5" cy="643.96" fill="#B4A7E5" rx="12" ry="12" style="stroke:#181818;stroke-width:1.0;"/><path d="M2829.1797,639.419 L2829.1797,636.8799 L2837.8613,636.8799 L2837.8613,639.419 L2834.9609,639.419 L2834.9609,648.9209 L2837.8613,648.9209 L2837.8613,651.46 L2829.1797,651.46 L2829.1797,648.9209 L2832.0801,648.9209 L2832.0801,639.419 Z " fill="#000000"/><text fill="#000000" font-family="sans-serif" font-size="20" font-style="italic" lengthAdjust="spacing" textLength="171" x="2855.5" y="651.5186">RepositoryFactory</text><line style="stroke:#181818;stroke-width:0.5;" x1="2651" x2="3196" y1="660.96" y2="660.96"/><line style="stroke:#181818;stroke-width:0.5;" x1="2651" x2="3196" y1="668.96" y2="668.96"/><ellipse cx="2661" cy="686.2373" fill="#84BE84" rx="3" ry="3" style="stroke:#038048;stroke-width:1.0;"/><text fill="#000000" font-family="sans-serif" font-size="20" lengthAdjust="spacing" textLength="520" x="2671" y="692.2959">getShowRequestRepository() : ShowRequestRepository</text><ellipse cx="2661" cy="709.792" fill="#84BE84" rx="3" ry="3" style="stroke:#038048;stroke-width:1.0;"/><text fill="#000000" font-family="sans-serif" font-size="20" lengthAdjust="spacing" textLength="452" x="2671" y="715.8506">getCustomerRepository() : CustomerRepository</text><ellipse cx="2661" cy="733.3467" fill="#84BE84" rx="3" ry="3" style="stroke:#038048;stroke-width:1.0;"/><text fill="#000000" font-family="sans-serif" font-size="20" lengthAdjust="spacing" textLength="372" x="2671" y="739.4053">getUsersRepository() : UsersRepository</text></g><!--class ShowRequestRepository--><g id="elem_ShowRequestRepository"><rect codeLine="64" fill="#F1F1F1" height="73.5547" id="ShowRequestRepository" rx="2.5" ry="2.5" style="stroke:#181818;stroke-width:0.5;" width="442" x="3258" y="736.51"/><ellipse cx="3360" cy="753.51" fill="#B4A7E5" rx="12" ry="12" style="stroke:#181818;stroke-width:1.0;"/><path d="M3355.6797,748.969 L3355.6797,746.4299 L3364.3613,746.4299 L3364.3613,748.969 L3361.4609,748.969 L3361.4609,758.4709 L3364.3613,758.4709 L3364.3613,761.01 L3355.6797,761.01 L3355.6797,758.4709 L3358.5801,758.4709 L3358.5801,748.969 Z " fill="#000000"/><text fill="#000000" font-family="sans-serif" font-size="20" font-style="italic" lengthAdjust="spacing" textLength="229" x="3382" y="761.0686">ShowRequestRepository</text><line style="stroke:#181818;stroke-width:0.5;" x1="3259" x2="3699" y1="770.51" y2="770.51"/><line style="stroke:#181818;stroke-width:0.5;" x1="3259" x2="3699" y1="778.51" y2="778.51"/><ellipse cx="3269" cy="795.7873" fill="#84BE84" rx="3" ry="3" style="stroke:#038048;stroke-width:1.0;"/><text fill="#000000" font-family="sans-serif" font-size="20" lengthAdjust="spacing" textLength="415" x="3279" y="801.8459">getShowRequest(): Iterable&lt;ShowRequest&gt;</text></g><!--class CustomerRepository--><g id="elem_CustomerRepository"><rect codeLine="68" fill="#F1F1F1" height="73.5547" id="CustomerRepository" rx="2.5" ry="2.5" style="stroke:#181818;stroke-width:0.5;" width="394" x="3282" y="845.51"/><ellipse cx="3377" cy="862.51" fill="#B4A7E5" rx="12" ry="12" style="stroke:#181818;stroke-width:1.0;"/><path d="M3372.6797,857.969 L3372.6797,855.4299 L3381.3613,855.4299 L3381.3613,857.969 L3378.4609,857.969 L3378.4609,867.4709 L3381.3613,867.4709 L3381.3613,870.01 L3372.6797,870.01 L3372.6797,867.4709 L3375.5801,867.4709 L3375.5801,857.969 Z " fill="#000000"/><text fill="#000000" font-family="sans-serif" font-size="20" font-style="italic" lengthAdjust="spacing" textLength="195" x="3399" y="870.0686">CustomerRepository</text><line style="stroke:#181818;stroke-width:0.5;" x1="3283" x2="3675" y1="879.51" y2="879.51"/><line style="stroke:#181818;stroke-width:0.5;" x1="3283" x2="3675" y1="887.51" y2="887.51"/><ellipse cx="3293" cy="904.7873" fill="#84BE84" rx="3" ry="3" style="stroke:#038048;stroke-width:1.0;"/><text fill="#000000" font-family="sans-serif" font-size="20" lengthAdjust="spacing" textLength="367" x="3303" y="910.8459">getCustomers(): Iterable&lt;Customers&gt;</text></g><!--class UsersRepository--><g id="elem_UsersRepository"><rect codeLine="72" fill="#F1F1F1" height="73.5547" id="UsersRepository" rx="2.5" ry="2.5" style="stroke:#181818;stroke-width:0.5;" width="294" x="3332" y="627.51"/><ellipse cx="3397" cy="644.51" fill="#B4A7E5" rx="12" ry="12" style="stroke:#181818;stroke-width:1.0;"/><path d="M3392.6797,639.969 L3392.6797,637.4299 L3401.3613,637.4299 L3401.3613,639.969 L3398.4609,639.969 L3398.4609,649.4709 L3401.3613,649.4709 L3401.3613,652.01 L3392.6797,652.01 L3392.6797,649.4709 L3395.5801,649.4709 L3395.5801,639.969 Z " fill="#000000"/><text fill="#000000" font-family="sans-serif" font-size="20" font-style="italic" lengthAdjust="spacing" textLength="155" x="3419" y="652.0686">UsersRepository</text><line style="stroke:#181818;stroke-width:0.5;" x1="3333" x2="3625" y1="661.51" y2="661.51"/><line style="stroke:#181818;stroke-width:0.5;" x1="3333" x2="3625" y1="669.51" y2="669.51"/><ellipse cx="3343" cy="686.7873" fill="#84BE84" rx="3" ry="3" style="stroke:#038048;stroke-width:1.0;"/><text fill="#000000" font-family="sans-serif" font-size="20" lengthAdjust="spacing" textLength="267" x="3353" y="692.8459">getUsers(): Iterable&lt;Users&gt;</text></g><!--link ShowRequest to ShowDescription--><g id="link_ShowRequest_ShowDescription"><path codeLine="106" d="M3924.32,757.68 C3988.05,745.22 4077.77,727.68 4146.67,714.2 " fill="none" id="ShowRequest-to-ShowDescription" style="stroke:#181818;stroke-width:1.0;"/><polygon fill="#181818" points="4151.36,713.28,4141.7601,711.0796,4146.4527,714.2386,4143.2938,718.9312,4151.36,713.28" style="stroke:#181818;stroke-width:1.0;"/><text fill="#000000" font-family="sans-serif" font-size="20" lengthAdjust="spacing" textLength="108" x="3966" y="722.0459">description</text><text fill="#000000" font-family="sans-serif" font-size="20" lengthAdjust="spacing" textLength="13" x="4131.6302" y="734.7502">1</text></g><!--link ShowRequest to CRMCollaborator--><g id="link_ShowRequest_CRMCollaborator"><path codeLine="107" d="M3850.33,736.43 C3861.64,673.86 3891.17,544.95 3954,455.29 C4006.42,380.48 4095.4,324.12 4161.87,289.61 " fill="none" id="ShowRequest-to-CRMCollaborator" style="stroke:#181818;stroke-width:1.0;"/><polygon fill="#181818" points="4166.08,287.44,4156.2471,288.0004,4161.6339,289.7274,4159.9069,295.1142,4166.08,287.44" style="stroke:#181818;stroke-width:1.0;"/><text fill="#000000" font-family="sans-serif" font-size="20" lengthAdjust="spacing" textLength="127" x="3956.5" y="332.2759">submitted by</text><text fill="#000000" font-family="sans-serif" font-size="20" lengthAdjust="spacing" textLength="13" x="4139.1953" y="314.3673">1</text></g><!--link ShowRequest to Customer--><g id="link_ShowRequest_Customer"><path codeLine="108" d="M3850.74,810.11 C3862.51,871.3 3892.54,995.75 3954,1082.29 C4011.89,1163.8 4113.18,1223.37 4180.55,1256.42 " fill="none" id="ShowRequest-to-Customer" style="stroke:#181818;stroke-width:1.0;"/><polygon fill="#181818" points="4184.79,1258.49,4178.4515,1250.9519,4180.2952,1256.2999,4174.9472,1258.1436,4184.79,1258.49" style="stroke:#181818;stroke-width:1.0;"/><text fill="#000000" font-family="sans-serif" font-size="20" lengthAdjust="spacing" textLength="125" x="3957.5" y="1077.6259">requested by</text><text fill="#000000" font-family="sans-serif" font-size="20" lengthAdjust="spacing" textLength="13" x="4165.0736" y="1276.7033">1</text></g><!--link ShowRequest to Location--><g id="link_ShowRequest_Location"><path codeLine="109" d="M3895.89,810.22 C3913.91,822.58 3934.52,836.06 3954,847.29 C4021.25,886.08 4100.58,924.19 4159.95,951.3 " fill="none" id="ShowRequest-to-Location" style="stroke:#181818;stroke-width:1.0;"/><polygon fill="#181818" points="4164.26,953.26,4157.7219,945.8943,4159.7082,951.191,4154.4115,953.1772,4164.26,953.26" style="stroke:#181818;stroke-width:1.0;"/><text fill="#000000" font-family="sans-serif" font-size="20" lengthAdjust="spacing" textLength="51" x="3994.5" y="842.6259">place</text><text fill="#000000" font-family="sans-serif" font-size="20" lengthAdjust="spacing" textLength="13" x="4142.7458" y="945.0112">1</text></g><!--link ShowRequest to ShowRequestStatus--><g id="link_ShowRequest_ShowRequestStatus"><path codeLine="110" d="M3924.32,786.92 C3984.25,797.16 4067.17,811.32 4134.15,822.76 " fill="none" id="ShowRequest-to-ShowRequestStatus" style="stroke:#181818;stroke-width:1.0;"/><polygon fill="#181818" points="4138.67,823.53,4130.4731,818.0701,4133.7415,822.6872,4129.1245,825.9557,4138.67,823.53" style="stroke:#181818;stroke-width:1.0;"/><text fill="#000000" font-family="sans-serif" font-size="20" lengthAdjust="spacing" textLength="130" x="3955" y="789.0159">requestStatus</text><text fill="#000000" font-family="sans-serif" font-size="20" lengthAdjust="spacing" textLength="13" x="4119.0257" y="842.6494">1</text></g><!--link ShowRequest to Time--><g id="link_ShowRequest_Time"><path codeLine="111" d="M3891.54,736.25 C3910.46,722.07 3932.79,706.21 3954,693.29 C4021.14,652.41 4101.16,613.01 4160.83,585.32 " fill="none" id="ShowRequest-to-Time" style="stroke:#181818;stroke-width:1.0;"/><polygon fill="#181818" points="4165.17,583.31,4155.3222,583.4556,4160.6315,585.408,4158.679,590.7172,4165.17,583.31" style="stroke:#181818;stroke-width:1.0;"/><text fill="#000000" font-family="sans-serif" font-size="20" lengthAdjust="spacing" textLength="81" x="3979.5" y="619.3259">duration</text><text fill="#000000" font-family="sans-serif" font-size="20" lengthAdjust="spacing" textLength="13" x="4142.6371" y="607.8684">1</text></g><!--link ShowRequest to Date--><g id="link_ShowRequest_Date"><path codeLine="112" d="M3861.32,736.27 C3880.18,697.34 3913.5,635.7 3954,591.29 C4014.38,525.09 4102.16,471.42 4166.17,437.64 " fill="none" id="ShowRequest-to-Date" style="stroke:#181818;stroke-width:1.0;"/><polygon fill="#181818" points="4170.56,435.34,4160.7325,435.9881,4166.1345,437.667,4164.4556,443.069,4170.56,435.34" style="stroke:#181818;stroke-width:1.0;"/><text fill="#000000" font-family="sans-serif" font-size="20" lengthAdjust="spacing" textLength="92" x="3974" y="483.4959">startTime</text><text fill="#000000" font-family="sans-serif" font-size="20" lengthAdjust="spacing" textLength="13" x="4144.4453" y="462.2384">1</text></g><!--link ShowRequest to QuantityOfDrones--><g id="link_ShowRequest_QuantityOfDrones"><path codeLine="113" d="M3862.3,810.08 C3881.51,847.36 3914.68,905.38 3954,947.29 C4014.91,1012.22 4102.21,1065.24 4165.94,1098.81 " fill="none" id="ShowRequest-to-QuantityOfDrones" style="stroke:#181818;stroke-width:1.0;"/><polygon fill="#181818" points="4170.31,1101.09,4164.2056,1093.361,4165.8845,1098.763,4160.4825,1100.4419,4170.31,1101.09" style="stroke:#181818;stroke-width:1.0;"/><text fill="#000000" font-family="sans-serif" font-size="20" lengthAdjust="spacing" textLength="108" x="3966" y="942.6259">qnt_drones</text><text fill="#000000" font-family="sans-serif" font-size="20" lengthAdjust="spacing" textLength="13" x="4143.6252" y="1089.6156">1</text></g><!--link ListShowRequestUI to ListShowRequestController--><g id="link_ListShowRequestUI_ListShowRequestController"><path codeLine="116" d="M310.3,789.29 C329.13,789.29 348.68,789.29 368.21,789.29 " fill="none" id="ListShowRequestUI-to-ListShowRequestController" style="stroke:#181818;stroke-width:1.0;stroke-dasharray:7.0,7.0;"/><polygon fill="#181818" points="373.03,789.29,364.03,785.29,368.03,789.29,364.03,793.29,373.03,789.29" style="stroke:#181818;stroke-width:1.0;"/></g><!--link ListShowRequestController to PersistenceContext--><g id="link_ListShowRequestController_PersistenceContext"><path codeLine="119" d="M666.68,728.72 C704.25,707.81 748.09,685.77 790,670.29 C867.12,641.8 954.53,620.03 1032.5,604.06 " fill="none" id="ListShowRequestController-to-PersistenceContext" style="stroke:#181818;stroke-width:1.0;stroke-dasharray:7.0,7.0;"/><polygon fill="#181818" points="1037.09,603.12,1027.4719,601.0004,1032.191,604.1198,1029.0716,608.8389,1037.09,603.12" style="stroke:#181818;stroke-width:1.0;"/><text fill="#000000" font-family="sans-serif" font-size="20" lengthAdjust="spacing" textLength="215" x="791" y="605.7959">getRepositoryFactory()</text></g><!--link ListShowRequestController to RepositoryFactory--><g id="link_ListShowRequestController_RepositoryFactory"><path codeLine="120" d="M758.26,765.98 C768.99,764.99 779.63,764.08 790,763.29 C1453.56,712.78 2235.9,695.73 2643.59,690.06 " fill="none" id="ListShowRequestController-to-RepositoryFactory" style="stroke:#181818;stroke-width:1.0;stroke-dasharray:7.0,7.0;"/><polygon fill="#181818" points="2648.35,689.99,2639.2938,686.119,2643.3505,690.0614,2639.4081,694.1182,2648.35,689.99" style="stroke:#181818;stroke-width:1.0;"/><text fill="#000000" font-family="sans-serif" font-size="20" lengthAdjust="spacing" textLength="239" x="1582" y="703.3759">getCustomerRepository()</text></g><!--link ListShowRequestController to RepositoryFactory--><g id="link_ListShowRequestController_RepositoryFactory"><path codeLine="121" d="M758.47,786.33 C1012.06,781.91 1473.85,772.11 1868,754.29 C2131.12,742.39 2430.81,722.77 2643.28,707.82 " fill="none" id="ListShowRequestController-to-RepositoryFactory-1" style="stroke:#181818;stroke-width:1.0;stroke-dasharray:7.0,7.0;"/><polygon fill="#181818" points="2648.03,707.49,2638.7768,704.1169,2643.0418,707.833,2639.3256,712.098,2648.03,707.49" style="stroke:#181818;stroke-width:1.0;"/><text fill="#000000" font-family="sans-serif" font-size="20" lengthAdjust="spacing" textLength="147" x="1628" y="749.6259">getCustomers()</text></g><!--link ListShowRequestController to RepositoryFactory--><g id="link_ListShowRequestController_RepositoryFactory"><path codeLine="122" d="M616.2,728.7 C657.65,680.97 721.28,616.19 790,577.29 C880.27,526.2 912.82,533.13 1015,515.29 C1186.92,485.27 2444.26,366.09 2585,469.29 C2594.19,476.03 2591.61,482.15 2594,493.29 C2596.9,506.79 2593,606.82 2602,617.29 C2614.18,631.45 2628.49,643.14 2644.2,652.74 " fill="none" id="ListShowRequestController-to-RepositoryFactory-2" style="stroke:#181818;stroke-width:1.0;stroke-dasharray:7.0,7.0;"/><polygon fill="#181818" points="2648.27,655.15,2642.5593,647.1258,2643.9662,652.6049,2638.4871,654.0119,2648.27,655.15" style="stroke:#181818;stroke-width:1.0;"/><text fill="#000000" font-family="sans-serif" font-size="20" lengthAdjust="spacing" textLength="97" x="1653" y="434.5359">getUsers()</text></g><!--link ListShowRequestController to ShowRequestRepository--><g id="link_ListShowRequestController_ShowRequestRepository"><path codeLine="123" d="M582.44,849.63 C608.15,939.45 669.97,1106.11 790,1184.29 C963.43,1297.25 1046.53,1229.29 1253.5,1229.29 C1253.5,1229.29 1253.5,1229.29 2924.5,1229.29 C3068.91,1229.29 3140,1227.78 3228,1113.29 C3305.62,1012.31 3174.46,924.43 3258,828.29 C3262.45,823.17 3267.29,818.49 3272.46,814.22 " fill="none" id="ListShowRequestController-to-ShowRequestRepository" style="stroke:#181818;stroke-width:1.0;stroke-dasharray:7.0,7.0;"/><polygon fill="#181818" points="3276.11,811.34,3266.5669,813.775,3272.1849,814.4373,3271.5226,820.0552,3276.11,811.34" style="stroke:#181818;stroke-width:1.0;"/><text fill="#000000" font-family="sans-serif" font-size="20" lengthAdjust="spacing" textLength="171" x="1950" y="1224.6259">getShowRequest()</text></g><!--link ListShowRequestController to CustomerRepository--><g id="link_ListShowRequestController_CustomerRepository"><path codeLine="124" d="M576.83,849.9 C596.2,952.89 651.16,1160.3 790,1257.29 C959.6,1375.77 1046.62,1300.29 1253.5,1300.29 C1253.5,1300.29 1253.5,1300.29 2924.5,1300.29 C3047.25,1300.29 3091.99,1318.86 3197,1255.29 C3330.43,1174.51 3422.01,1004.49 3459.28,924.98 " fill="none" id="ListShowRequestController-to-CustomerRepository" style="stroke:#181818;stroke-width:1.0;stroke-dasharray:7.0,7.0;"/><polygon fill="#181818" points="3461.24,920.79,3453.8082,927.2528,3459.1248,925.3206,3461.0571,930.6372,3461.24,920.79" style="stroke:#181818;stroke-width:1.0;"/><text fill="#000000" font-family="sans-serif" font-size="20" lengthAdjust="spacing" textLength="147" x="1962" y="1295.6259">getCustomers()</text></g><!--link ListShowRequestController to UsersRepository--><g id="link_ListShowRequestController_UsersRepository"><path codeLine="125" d="M703.28,849.81 C883.72,927.13 1214.32,1058.15 1511,1118.29 C1881.12,1193.32 2932.38,1174.72 3197,905.29 C3257.96,843.22 3194.31,778.56 3258,719.29 C3277.01,701.6 3300.83,689.37 3325.72,680.97 " fill="none" id="ListShowRequestController-to-UsersRepository" style="stroke:#181818;stroke-width:1.0;stroke-dasharray:7.0,7.0;"/><polygon fill="#181818" points="3330.29,679.49,3320.495,678.4617,3325.5339,681.0325,3322.963,686.0714,3330.29,679.49" style="stroke:#181818;stroke-width:1.0;"/><text fill="#000000" font-family="sans-serif" font-size="20" lengthAdjust="spacing" textLength="97" x="1987" y="1149.2159">getUsers()</text></g><!--link ShowRequestRepository to ShowRequest--><g id="link_ShowRequestRepository_ShowRequest"><path codeLine="128" d="M3700.27,773.29 C3719.94,773.29 3738.98,773.29 3756.37,773.29 " fill="none" id="ShowRequestRepository-to-ShowRequest" style="stroke:#181818;stroke-width:1.0;stroke-dasharray:7.0,7.0;"/><polygon fill="#181818" points="3761.19,773.29,3752.19,769.29,3756.19,773.29,3752.19,777.29,3761.19,773.29" style="stroke:#181818;stroke-width:1.0;"/></g><!--link CustomerRepository to Customer--><g id="link_CustomerRepository_Customer"><path codeLine="129" d="M3522.94,919.53 C3602.59,986.75 3780.88,1128.75 3954,1208.29 C4027.65,1242.13 4118.65,1263.4 4179.84,1275.03 " fill="none" id="CustomerRepository-to-Customer" style="stroke:#181818;stroke-width:1.0;stroke-dasharray:7.0,7.0;"/><polygon fill="#181818" points="4184.55,1275.92,4176.4492,1270.3185,4179.6369,1274.9917,4174.9638,1278.1794,4184.55,1275.92" style="stroke:#181818;stroke-width:1.0;"/></g><!--link UsersRepository to CRMCollaborator--><g id="link_UsersRepository_CRMCollaborator"><path codeLine="130" d="M3515.94,627.14 C3590.2,552.78 3769.16,385.83 3954,304.29 C4014,277.82 4086.38,264.33 4144.37,257.45 " fill="none" id="UsersRepository-to-CRMCollaborator" style="stroke:#181818;stroke-width:1.0;stroke-dasharray:7.0,7.0;"/><polygon fill="#181818" points="4149.15,256.9,4139.7521,253.9539,4144.1827,257.471,4140.6656,261.9016,4149.15,256.9" style="stroke:#181818;stroke-width:1.0;"/></g><!--link RepositoryFactory to ShowRequestRepository--><g id="link_RepositoryFactory_ShowRequestRepository"><path codeLine="133" d="M3197.2,729.66 C3215.46,732.5 3233.75,735.34 3251.74,738.14 " fill="none" id="RepositoryFactory-to-ShowRequestRepository" style="stroke:#181818;stroke-width:1.0;stroke-dasharray:7.0,7.0;"/><polygon fill="#181818" points="3256.34,738.85,3248.0645,733.51,3251.3998,738.079,3246.8308,741.4143,3256.34,738.85" style="stroke:#181818;stroke-width:1.0;"/></g><!--link RepositoryFactory to CustomerRepository--><g id="link_RepositoryFactory_CustomerRepository"><path codeLine="134" d="M3056.2,748.04 C3116.84,774.59 3190.23,804.74 3258,827.29 C3275.03,832.96 3292.98,838.35 3310.97,843.39 " fill="none" id="RepositoryFactory-to-CustomerRepository" style="stroke:#181818;stroke-width:1.0;stroke-dasharray:7.0,7.0;"/><polygon fill="#181818" points="3315.61,844.68,3307.9936,838.4357,3310.7892,843.3536,3305.8713,846.1491,3315.61,844.68" style="stroke:#181818;stroke-width:1.0;"/></g><!--link RepositoryFactory to UsersRepository--><g id="link_RepositoryFactory_UsersRepository"><path codeLine="135" d="M3197.2,675.96 C3241.23,674.13 3285.4,672.29 3325.25,670.64 " fill="none" id="RepositoryFactory-to-UsersRepository" style="stroke:#181818;stroke-width:1.0;stroke-dasharray:7.0,7.0;"/><polygon fill="#181818" points="3330.09,670.44,3320.9265,666.8302,3325.0946,670.6547,3321.2701,674.8228,3330.09,670.44" style="stroke:#181818;stroke-width:1.0;"/></g><!--link PersistenceContext to RepositoryFactory--><g id="link_PersistenceContext_RepositoryFactory"><path codeLine="138" d="M1421.61,531.02 C1448.37,526.25 1475.86,522.06 1502,519.29 C1622.66,506.49 2505.37,436.43 2594,519.29 C2609.96,534.21 2587.62,600.84 2602,617.29 C2614.21,631.25 2628.5,642.79 2644.15,652.31 " fill="none" id="PersistenceContext-to-RepositoryFactory" style="stroke:#181818;stroke-width:1.0;stroke-dasharray:7.0,7.0;"/><polygon fill="#181818" points="2648.2,654.69,2642.4893,646.6658,2643.8962,652.1449,2638.4171,653.5519,2648.2,654.69" style="stroke:#181818;stroke-width:1.0;"/><text fill="#000000" font-family="sans-serif" font-size="20" lengthAdjust="spacing" textLength="273" x="1899" y="475.6559">getShowRequestRepository()</text></g><!--link PersistenceContext to RepositoryFactory--><g id="link_PersistenceContext_RepositoryFactory"><path codeLine="139" d="M1470.24,558.14 C1825.93,543.33 2507.01,524.22 2594,590.29 C2603.97,597.86 2592.83,608.77 2602,617.29 C2614.72,629.12 2628.97,639.12 2644.19,647.57 " fill="none" id="PersistenceContext-to-RepositoryFactory-1" style="stroke:#181818;stroke-width:1.0;stroke-dasharray:7.0,7.0;"/><polygon fill="#181818" points="2648.5,649.89,2642.4752,642.0989,2644.0986,647.5178,2638.6796,649.1412,2648.5,649.89" style="stroke:#181818;stroke-width:1.0;"/><text fill="#000000" font-family="sans-serif" font-size="20" lengthAdjust="spacing" textLength="239" x="1916" y="539.0159">getCustomerRepository()</text></g><!--link PersistenceContext to RepositoryFactory--><g id="link_PersistenceContext_RepositoryFactory"><path codeLine="140" d="M1470.27,582.57 C1734.69,600.31 2197.5,631.82 2594,661.29 C2610.13,662.49 2626.71,663.74 2643.44,665.02 " fill="none" id="PersistenceContext-to-RepositoryFactory-2" style="stroke:#181818;stroke-width:1.0;stroke-dasharray:7.0,7.0;"/><polygon fill="#181818" points="2648.09,665.37,2639.412,660.7124,2643.1038,664.9985,2638.8177,668.6903,2648.09,665.37" style="stroke:#181818;stroke-width:1.0;"/><text fill="#000000" font-family="sans-serif" font-size="20" lengthAdjust="spacing" textLength="199" x="1936" y="607.0859">getUsersRepository()</text></g><!--link PersistenceContext to JpaRepositoryFactory--><g id="link_PersistenceContext_JpaRepositoryFactory"><path codeLine="141" d="M1296.26,531.27 C1345.63,487.07 1432.04,411.79 1511,353.29 C1544.06,328.8 1581.84,303.73 1614.92,282.67 " fill="none" id="PersistenceContext-to-JpaRepositoryFactory" style="stroke:#181818;stroke-width:1.0;stroke-dasharray:7.0,7.0;"/><polygon fill="#181818" points="1618.91,280.13,1609.1705,281.5936,1614.6935,282.8172,1613.4699,288.3401,1618.91,280.13" style="stroke:#181818;stroke-width:1.0;"/></g><!--link PersistenceContext to InMemoryRepositoryFactory--><g id="link_PersistenceContext_InMemoryRepositoryFactory"><path codeLine="142" d="M1284.62,605.2 C1329.08,659.83 1418.51,763.2 1511,832.29 C1534.18,849.61 1560.82,865.56 1586.65,879.37 " fill="none" id="PersistenceContext-to-InMemoryRepositoryFactory" style="stroke:#181818;stroke-width:1.0;stroke-dasharray:7.0,7.0;"/><polygon fill="#181818" points="1590.82,881.57,1584.7455,873.8175,1586.4035,879.226,1580.9951,880.8839,1590.82,881.57" style="stroke:#181818;stroke-width:1.0;"/></g><!--link JpaShowRequestRepository to ShowRequestRepository--><g id="link_JpaShowRequestRepository_ShowRequestRepository"><path codeLine="145" d="M2528.87,162.53 C2744.94,155.96 3134.62,158.41 3228,255.29 C3299.56,329.52 3191.95,639.12 3258,718.29 C3258.95,719.43 3259.93,720.55 3260.92,721.65 " fill="none" id="JpaShowRequestRepository-to-ShowRequestRepository" style="stroke:#181818;stroke-width:1.0;"/><polygon fill="none" points="3265.49,716.35,3275.39,735.08,3255.97,726.61,3265.49,716.35" style="stroke:#181818;stroke-width:1.0;"/></g><!--link JpaCustomersRepository to CustomerRepository--><g id="link_JpaCustomersRepository_CustomerRepository"><path codeLine="146" d="M2517,274.83 C2699.07,310 3021.95,399.44 3197,609.29 C3261.45,686.55 3185.87,757.15 3258,827.29 C3260.14,829.37 3262.34,831.37 3264.6,833.3 " fill="none" id="JpaCustomersRepository-to-CustomerRepository" style="stroke:#181818;stroke-width:1.0;"/><polygon fill="none" points="3268.45,827.44,3280.4,844.94,3260.15,838.71,3268.45,827.44" style="stroke:#181818;stroke-width:1.0;"/></g><!--link JpaUsersRepository to UsersRepository--><g id="link_JpaUsersRepository_UsersRepository"><path codeLine="147" d="M2491.79,62.62 C2664.27,34.61 3003.86,6 3228,159.29 C3383.46,265.61 3446.49,497.62 3468.19,606.15 " fill="none" id="JpaUsersRepository-to-UsersRepository" style="stroke:#181818;stroke-width:1.0;"/><polygon fill="none" points="3475.02,604.6,3471.87,625.55,3461.26,607.21,3475.02,604.6" style="stroke:#181818;stroke-width:1.0;"/></g><!--link JpaRepositoryFactory to RepositoryFactory--><g id="link_JpaRepositoryFactory_RepositoryFactory"><path codeLine="148" d="M1868.36,252.3 C2108.18,284.93 2530.18,345.67 2594,377.29 C2705.15,432.35 2804.36,537.72 2863.95,610.21 " fill="none" id="JpaRepositoryFactory-to-RepositoryFactory" style="stroke:#181818;stroke-width:1.0;stroke-dasharray:7.0,7.0;"/><polygon fill="none" points="2869.05,605.38,2876.19,625.33,2858.17,614.19,2869.05,605.38" style="stroke:#181818;stroke-width:1.0;"/></g><!--link JpaRepositoryFactory to JpaShowRequestRepository--><g id="link_JpaRepositoryFactory_JpaShowRequestRepository"><path codeLine="149" d="M1868.48,215.37 C1978.49,205.48 2121.74,192.6 2228.81,182.97 " fill="none" id="JpaRepositoryFactory-to-JpaShowRequestRepository" style="stroke:#181818;stroke-width:1.0;stroke-dasharray:7.0,7.0;"/><polygon fill="#181818" points="2233.66,182.54,2224.3414,179.352,2228.6796,182.9824,2225.0492,187.3206,2233.66,182.54" style="stroke:#181818;stroke-width:1.0;"/></g><!--link JpaRepositoryFactory to JpaCustomersRepository--><g id="link_JpaRepositoryFactory_JpaCustomersRepository"><path codeLine="150" d="M1868.48,236.16 C1982.63,240.2 2132.55,245.5 2240.73,249.33 " fill="none" id="JpaRepositoryFactory-to-JpaCustomersRepository" style="stroke:#181818;stroke-width:1.0;stroke-dasharray:7.0,7.0;"/><polygon fill="#181818" points="2245.63,249.5,2236.7728,245.1931,2240.633,249.3282,2236.4979,253.1884,2245.63,249.5" style="stroke:#181818;stroke-width:1.0;"/></g><!--link JpaRepositoryFactory to JpaUsersRepository--><g id="link_JpaRepositoryFactory_JpaUsersRepository"><path codeLine="151" d="M1868.48,194.57 C1991.79,168.04 2156.85,132.52 2265.93,109.05 " fill="none" id="JpaRepositoryFactory-to-JpaUsersRepository" style="stroke:#181818;stroke-width:1.0;stroke-dasharray:7.0,7.0;"/><polygon fill="#181818" points="2270.57,108.05,2260.9333,106.0169,2265.6802,109.0937,2262.6033,113.8406,2270.57,108.05" style="stroke:#181818;stroke-width:1.0;"/></g><!--link InMemoryShowRequestRepository to ShowRequestRepository--><g id="link_InMemoryShowRequestRepository_ShowRequestRepository"><path codeLine="154" d="M2498.91,1017.78 C2676.13,1049.57 3016.12,1081.37 3228,915.29 C3260.19,890.06 3227.85,855.93 3258,828.29 C3260.06,826.4 3262.18,824.57 3264.34,822.81 " fill="none" id="InMemoryShowRequestRepository-to-ShowRequestRepository" style="stroke:#181818;stroke-width:1.0;"/><polygon fill="none" points="3260.25,817.13,3280.63,811.29,3268.34,828.56,3260.25,817.13" style="stroke:#181818;stroke-width:1.0;"/></g><!--link InMemoryCustomersRepository to CustomerRepository--><g id="link_InMemoryCustomersRepository_CustomerRepository"><path codeLine="155" d="M2467.94,1102.76 C2624.55,1145.05 2966.66,1215.55 3228,1113.29 C3318.57,1077.85 3396.02,992.5 3439.78,936.07 " fill="none" id="InMemoryCustomersRepository-to-CustomerRepository" style="stroke:#181818;stroke-width:1.0;"/><polygon fill="none" points="3433.96,932.16,3451.6,920.42,3445.13,940.6,3433.96,932.16" style="stroke:#181818;stroke-width:1.0;"/></g><!--link InMemoryUsersRepository to UsersRepository--><g id="link_InMemoryUsersRepository_UsersRepository"><path codeLine="156" d="M2524.45,902.65 C2691.51,892.72 2974.76,861.73 3197,765.29 C3228.15,751.77 3227.36,733.92 3258,719.29 C3274.8,711.27 3292.91,704.33 3311.26,698.35 " fill="none" id="InMemoryUsersRepository-to-UsersRepository" style="stroke:#181818;stroke-width:1.0;"/><polygon fill="none" points="3309,691.72,3330.17,692.56,3313.09,705.11,3309,691.72" style="stroke:#181818;stroke-width:1.0;"/></g><!--link InMemoryRepositoryFactory to RepositoryFactory--><g id="link_InMemoryRepositoryFactory_RepositoryFactory"><path codeLine="157" d="M1868.41,910.19 C2048.35,885.85 2343.43,841.71 2594,784.29 C2631.96,775.59 2671.99,765 2710.55,754.05 " fill="none" id="InMemoryRepositoryFactory-to-RepositoryFactory" style="stroke:#181818;stroke-width:1.0;stroke-dasharray:7.0,7.0;"/><polygon fill="none" points="2708.57,747.33,2729.72,748.53,2712.43,760.79,2708.57,747.33" style="stroke:#181818;stroke-width:1.0;"/></g><!--link InMemoryRepositoryFactory to InMemoryShowRequestRepository--><g id="link_InMemoryRepositoryFactory_InMemoryShowRequestRepository"><path codeLine="158" d="M1868.48,946.21 C1967.72,955.13 2094,966.49 2196.38,975.69 " fill="none" id="InMemoryRepositoryFactory-to-InMemoryShowRequestRepository" style="stroke:#181818;stroke-width:1.0;stroke-dasharray:7.0,7.0;"/><polygon fill="#181818" points="2201.27,976.13,2192.6728,971.3249,2196.2909,975.6735,2191.9424,979.2915,2201.27,976.13" style="stroke:#181818;stroke-width:1.0;"/></g><!--link InMemoryRepositoryFactory to InMemoryCustomersRepository--><g id="link_InMemoryRepositoryFactory_InMemoryCustomersRepository"><path codeLine="159" d="M1868.49,973.47 C1878.46,975.82 1888.36,978.11 1898,980.29 C2012.29,1006.07 2142.58,1032.04 2239.01,1050.61 " fill="none" id="InMemoryRepositoryFactory-to-InMemoryCustomersRepository" style="stroke:#181818;stroke-width:1.0;stroke-dasharray:7.0,7.0;"/><polygon fill="#181818" points="2243.82,1051.54,2235.7349,1045.9158,2238.9096,1050.5979,2234.2275,1053.7725,2243.82,1051.54" style="stroke:#181818;stroke-width:1.0;"/></g><!--link InMemoryRepositoryFactory to InMemoryUsersRepository--><g id="link_InMemoryRepositoryFactory_InMemoryUsersRepository"><path codeLine="160" d="M1868.48,925.42 C1980.03,921.47 2125.75,916.32 2233.28,912.52 " fill="none" id="InMemoryRepositoryFactory-to-InMemoryUsersRepository" style="stroke:#181818;stroke-width:1.0;stroke-dasharray:7.0,7.0;"/><polygon fill="#181818" points="2238.15,912.34,2229.0182,908.6507,2233.1529,912.5113,2229.2923,916.646,2238.15,912.34" style="stroke:#181818;stroke-width:1.0;"/></g><!--SRC=[fLVVJzim47xtNs5r3nHDLDiUeoeIQeSK18BHbTV9JLq894wm7Gq6_EzpVZM9VNPIo0l4_kxkk-_SyqKyHYmZd2Hn6ZxIBTxI7SbZUPOokOh-KVpZ6n9KOa4Ba4mvPYcZAAOxYMMAUNHtB_4suZIKKSeGoaZuIEuedgo32VwoB1_yYh1wmfW8WIyY8LVtwTyR-fHJ8TS1di_NWU_NeEBvYkC-Q1hcGgO9vSSTZ53xYtfTdBBjYiQAnBI2lAFt3fU5IeQdSKpvA4ujN75hNpx0iS3iEKwFFHn8oiacflDcrGVePWgi32aBwInAidZsa16O-7b6RcYMYaWLvkMCXCMVbkC9k3_j4hoZCc124XMge6U0QtRza9siMuDN4BfFVWYu5Y38AKl44feeCAnDm2xBNQT0Lj0dLMhyZfMgmO_Jgq4V9XeiqtKBA8uwVPQzKwvI1xJ1TX6wmPTfGYAcnzrljowmZYcUGB7XEn9ICrO7jQS9IbrI1NTC1utschMvR9fgXIZjjBMzKLt9VeOWnO4iU_sai-wxGvdvG77SNKiCnD1oXmAKa9xpSgNhs3ZtYvlBXMh5P9DMLz5y_fF9IBxuFl0ZQRYwKHTfI8gRIw5kIPnJVBLvKDU8XgKiJxerMaaYS-6sgVmNHaigGXvbms5QapgEc_llAA5Z72w978NxbPCosDLkoTKbRyzFMHrrMPxu-1dr5jJAvFl4oDvJuyN-3RJGI-nXaM-II4erccnUO9Ewq1xcrOuTsbJRmrcipgcLSw_CUx_LAsXKba9bbtDYJQqiWyf74YuBF0ZIQ-3X9oR_RCl_bUhh09a3r6pcsqSOPTHviKywXHFWBl0iDy209xDZUxOM-pbFugCEwlupO0ptPS_en0DkW9vxO1PwH-tbW8uwzmnCMKi60OowH94Uhzpi_pPxOPiXm5JRAgC52zotC52_OD6HUNuHSAGTXy8oGnpe1JpbXxam1WgRFJJXsx3MORSltVdrAR9D-QfFlTdA2O_xbGLGL7Fehw1wMQ4CLJgpsHkWdWtjMxzRd1P0FawyyqWsyYFdnu5BOSTNWbLcoxS2hBNrX62RtYuBt_qPDD8Mgi4uIpsx_m00]--></g></svg>