<?xml version="1.0" encoding="UTF-8" standalone="no"?><svg xmlns="http://www.w3.org/2000/svg" xmlns:xlink="http://www.w3.org/1999/xlink" contentStyleType="text/css" height="1389px" preserveAspectRatio="none" style="width:4154px;height:1389px;background:#FFFFFF;" version="1.1" viewBox="0 0 4154 1389" width="4154px" zoomAndPan="magnify"><defs/><g><!--cluster UI--><g id="cluster_UI"><path d="M8.5,683.06 L28.5,683.06 A3.75,3.75 0 0 1 31,685.56 L38,714.2163 L306.5,714.2163 A2.5,2.5 0 0 1 309,716.7163 L309,868.56 A2.5,2.5 0 0 1 306.5,871.06 L8.5,871.06 A2.5,2.5 0 0 1 6,868.56 L6,685.56 A2.5,2.5 0 0 1 8.5,683.06 " fill="#DDDDDD" style="stroke:#000000;stroke-width:1.5;"/><line style="stroke:#000000;stroke-width:1.5;" x1="6" x2="38" y1="714.2163" y2="714.2163"/><text fill="#000000" font-family="sans-serif" font-size="20" font-weight="bold" lengthAdjust="spacing" textLength="19" x="10" y="705.8217">UI</text></g><!--cluster Controller--><g id="cluster_Controller"><path d="M344.5,683.06 L439.5,683.06 A3.75,3.75 0 0 1 442,685.56 L449,714.2163 L719.5,714.2163 A2.5,2.5 0 0 1 722,716.7163 L722,868.56 A2.5,2.5 0 0 1 719.5,871.06 L344.5,871.06 A2.5,2.5 0 0 1 342,868.56 L342,685.56 A2.5,2.5 0 0 1 344.5,683.06 " fill="#DDDDDD" style="stroke:#000000;stroke-width:1.5;"/><line style="stroke:#000000;stroke-width:1.5;" x1="342" x2="449" y1="714.2163" y2="714.2163"/><text fill="#000000" font-family="sans-serif" font-size="20" font-weight="bold" lengthAdjust="spacing" textLength="94" x="346" y="705.8217">Controller</text></g><!--cluster persistence.impl.jpa--><g id="cluster_persistence.impl.jpa"><path d="M1438.5,9.06 L1628.5,9.06 A3.75,3.75 0 0 1 1631,11.56 L1638,40.2162 L2414.5,40.2162 A2.5,2.5 0 0 1 2417,42.7162 L2417,290.56 A2.5,2.5 0 0 1 2414.5,293.06 L1438.5,293.06 A2.5,2.5 0 0 1 1436,290.56 L1436,11.56 A2.5,2.5 0 0 1 1438.5,9.06 " fill="#DDDDDD" style="stroke:#000000;stroke-width:1.5;"/><line style="stroke:#000000;stroke-width:1.5;" x1="1436" x2="1638" y1="40.2162" y2="40.2162"/><text fill="#000000" font-family="sans-serif" font-size="20" font-weight="bold" lengthAdjust="spacing" textLength="189" x="1440" y="31.8217">persistence.impl.jpa</text></g><!--cluster persistence.impl.inmemory--><g id="cluster_persistence.impl.inmemory"><path d="M1438.5,842.06 L1693.5,842.06 A3.75,3.75 0 0 1 1696,844.56 L1703,873.2163 L2442.5,873.2163 A2.5,2.5 0 0 1 2445,875.7163 L2445,1123.56 A2.5,2.5 0 0 1 2442.5,1126.06 L1438.5,1126.06 A2.5,2.5 0 0 1 1436,1123.56 L1436,844.56 A2.5,2.5 0 0 1 1438.5,842.06 " fill="#DDDDDD" style="stroke:#000000;stroke-width:1.5;"/><line style="stroke:#000000;stroke-width:1.5;" x1="1436" x2="1703" y1="873.2163" y2="873.2163"/><text fill="#000000" font-family="sans-serif" font-size="20" font-weight="bold" lengthAdjust="spacing" textLength="254" x="1440" y="864.8217">persistence.impl.inmemory</text></g><!--cluster persistence--><g id="cluster_persistence"><path d="M962.5,484.06 L1073.5,484.06 A3.75,3.75 0 0 1 1076,486.56 L1083,515.2163 L1400.5,515.2163 A2.5,2.5 0 0 1 1403,517.7163 L1403,617.56 A2.5,2.5 0 0 1 1400.5,620.06 L962.5,620.06 A2.5,2.5 0 0 1 960,617.56 L960,486.56 A2.5,2.5 0 0 1 962.5,484.06 " fill="#DDDDDD" style="stroke:#000000;stroke-width:1.5;"/><line style="stroke:#000000;stroke-width:1.5;" x1="960" x2="1083" y1="515.2163" y2="515.2163"/><text fill="#000000" font-family="sans-serif" font-size="20" font-weight="bold" lengthAdjust="spacing" textLength="110" x="964" y="506.8217">persistence</text></g><!--cluster Domain--><g id="cluster_Domain"><path d="M2480.5,300.06 L2552.5,300.06 A3.75,3.75 0 0 1 2555,302.56 L2562,331.2162 L4144.5,331.2162 A2.5,2.5 0 0 1 4147,333.7162 L4147,1210.56 A2.5,2.5 0 0 1 4144.5,1213.06 L2480.5,1213.06 A2.5,2.5 0 0 1 2478,1210.56 L2478,302.56 A2.5,2.5 0 0 1 2480.5,300.06 " fill="#DDDDDD" style="stroke:#000000;stroke-width:1.5;"/><line style="stroke:#000000;stroke-width:1.5;" x1="2478" x2="2562" y1="331.2162" y2="331.2162"/><text fill="#000000" font-family="sans-serif" font-size="20" font-weight="bold" lengthAdjust="spacing" textLength="71" x="2482" y="322.8217">Domain</text></g><!--cluster Repository --><g id="cluster_Repository "><path d="M2504.5,583.06 L2614.5,583.06 A3.75,3.75 0 0 1 2617,585.56 L2624,614.2163 L3529.5,614.2163 A2.5,2.5 0 0 1 3532,616.7163 L3532,938.56 A2.5,2.5 0 0 1 3529.5,941.06 L2504.5,941.06 A2.5,2.5 0 0 1 2502,938.56 L2502,585.56 A2.5,2.5 0 0 1 2504.5,583.06 " fill="#DDDDDD" style="stroke:#000000;stroke-width:1.5;"/><line style="stroke:#000000;stroke-width:1.5;" x1="2502" x2="2624" y1="614.2163" y2="614.2163"/><text fill="#000000" font-family="sans-serif" font-size="20" font-weight="bold" lengthAdjust="spacing" textLength="103" x="2506" y="605.8217">Repository</text></g><!--class ListShowRequestUI--><g id="elem_ListShowRequestUI"><rect codeLine="5" fill="#F1F1F1" height="126.625" id="ListShowRequestUI" rx="2.5" ry="2.5" style="stroke:#181818;stroke-width:0.5;" width="271" x="22" y="727.56"/><ellipse cx="67.25" cy="757.7163" fill="#ADD1B2" rx="12" ry="12" style="stroke:#181818;stroke-width:1.0;"/><path d="M69.3906,752.6381 Q69.5781,752.3881 69.7969,752.2631 Q70.0156,752.1225 70.2656,752.1225 Q70.7031,752.1225 70.9844,752.435 Q71.2656,752.7319 71.2656,753.4506 L71.2656,755.1538 Q71.2656,755.8725 70.9844,756.185 Q70.7031,756.4975 70.2656,756.4975 Q69.875,756.4975 69.625,756.2631 Q69.375,756.0444 69.2656,755.435 Q69.2031,755.0131 68.9844,754.7944 Q68.5938,754.3569 67.875,754.0913 Q67.1563,753.8256 66.4375,753.8256 Q65.5313,753.8256 64.7813,754.2163 Q64.0313,754.6069 63.4531,755.4975 Q62.875,756.3725 62.875,757.5756 L62.875,758.8725 Q62.875,760.3256 63.9219,761.2944 Q64.9844,762.2631 66.8438,762.2631 Q67.9531,762.2631 68.7344,761.9506 Q69.1719,761.7788 69.6875,761.2631 Q70,760.9506 70.1719,760.8569 Q70.3438,760.7631 70.5781,760.7631 Q70.9688,760.7631 71.2656,761.0756 Q71.5781,761.3725 71.5781,761.7788 Q71.5781,762.185 71.1719,762.6538 Q70.5781,763.3413 69.6406,763.7319 Q68.375,764.2631 66.8594,764.2631 Q65.0781,764.2631 63.6563,763.5288 Q62.5,762.935 61.6875,761.6694 Q60.875,760.4038 60.875,758.9194 L60.875,757.56 Q60.875,755.9975 61.5938,754.6538 Q62.3281,753.2944 63.6094,752.56 Q64.9063,751.8256 66.3594,751.8256 Q67.2188,751.8256 67.9688,752.0288 Q68.7344,752.2319 69.3906,752.6381 Z " fill="#000000"/><text fill="#000000" font-family="sans-serif" font-size="20" font-style="italic" lengthAdjust="spacing" textLength="41" x="154.25" y="753.3217">«UI»</text><text fill="#000000" font-family="sans-serif" font-size="20" lengthAdjust="spacing" textLength="172" x="88.75" y="778.478">ListShowRequestUI</text><line style="stroke:#181818;stroke-width:0.5;" x1="23" x2="292" y1="787.8725" y2="787.8725"/><line style="stroke:#181818;stroke-width:0.5;" x1="23" x2="292" y1="795.8725" y2="795.8725"/><ellipse cx="33" cy="813.9506" fill="#84BE84" rx="3" ry="3" style="stroke:#038048;stroke-width:1.0;"/><text fill="#000000" font-family="sans-serif" font-size="20" lengthAdjust="spacing" textLength="241" x="43" y="820.6342">listShowRequest(customer)</text><ellipse cx="33" cy="839.1069" fill="#84BE84" rx="3" ry="3" style="stroke:#038048;stroke-width:1.0;"/><text fill="#000000" font-family="sans-serif" font-size="20" lengthAdjust="spacing" textLength="244" x="43" y="845.7905">showCustomersAndSelect()</text></g><!--class ListShowRequestController--><g id="elem_ListShowRequestController"><rect codeLine="12" fill="#F1F1F1" height="126.625" id="ListShowRequestController" rx="2.5" ry="2.5" style="stroke:#181818;stroke-width:0.5;" width="348" x="358" y="727.56"/><ellipse cx="408.5" cy="757.7163" fill="#ADD1B2" rx="12" ry="12" style="stroke:#181818;stroke-width:1.0;"/><path d="M410.6406,752.6381 Q410.8281,752.3881 411.0469,752.2631 Q411.2656,752.1225 411.5156,752.1225 Q411.9531,752.1225 412.2344,752.435 Q412.5156,752.7319 412.5156,753.4506 L412.5156,755.1538 Q412.5156,755.8725 412.2344,756.185 Q411.9531,756.4975 411.5156,756.4975 Q411.125,756.4975 410.875,756.2631 Q410.625,756.0444 410.5156,755.435 Q410.4531,755.0131 410.2344,754.7944 Q409.8438,754.3569 409.125,754.0913 Q408.4063,753.8256 407.6875,753.8256 Q406.7813,753.8256 406.0313,754.2163 Q405.2813,754.6069 404.7031,755.4975 Q404.125,756.3725 404.125,757.5756 L404.125,758.8725 Q404.125,760.3256 405.1719,761.2944 Q406.2344,762.2631 408.0938,762.2631 Q409.2031,762.2631 409.9844,761.9506 Q410.4219,761.7788 410.9375,761.2631 Q411.25,760.9506 411.4219,760.8569 Q411.5938,760.7631 411.8281,760.7631 Q412.2188,760.7631 412.5156,761.0756 Q412.8281,761.3725 412.8281,761.7788 Q412.8281,762.185 412.4219,762.6538 Q411.8281,763.3413 410.8906,763.7319 Q409.625,764.2631 408.1094,764.2631 Q406.3281,764.2631 404.9063,763.5288 Q403.75,762.935 402.9375,761.6694 Q402.125,760.4038 402.125,758.9194 L402.125,757.56 Q402.125,755.9975 402.8438,754.6538 Q403.5781,753.2944 404.8594,752.56 Q406.1563,751.8256 407.6094,751.8256 Q408.4688,751.8256 409.2188,752.0288 Q409.9844,752.2319 410.6406,752.6381 Z " fill="#000000"/><text fill="#000000" font-family="sans-serif" font-size="20" font-style="italic" lengthAdjust="spacing" textLength="109" x="495" y="753.3217">«Controller»</text><text fill="#000000" font-family="sans-serif" font-size="20" lengthAdjust="spacing" textLength="238" x="430.5" y="778.478">ListShowRequestController</text><line style="stroke:#181818;stroke-width:0.5;" x1="359" x2="705" y1="787.8725" y2="787.8725"/><line style="stroke:#181818;stroke-width:0.5;" x1="359" x2="705" y1="795.8725" y2="795.8725"/><ellipse cx="369" cy="813.9506" fill="#84BE84" rx="3" ry="3" style="stroke:#038048;stroke-width:1.0;"/><text fill="#000000" font-family="sans-serif" font-size="20" lengthAdjust="spacing" textLength="241" x="379" y="820.6342">listShowRequest(customer)</text><ellipse cx="369" cy="839.1069" fill="#84BE84" rx="3" ry="3" style="stroke:#038048;stroke-width:1.0;"/><text fill="#000000" font-family="sans-serif" font-size="20" lengthAdjust="spacing" textLength="321" x="379" y="845.7905">listCustomers(): Iterable&lt;Customer&gt;</text></g><!--class JpaRepositoryFactory--><g id="elem_JpaRepositoryFactory"><rect codeLine="19" fill="#F1F1F1" height="101.4688" id="JpaRepositoryFactory" rx="2.5" ry="2.5" style="stroke:#181818;stroke-width:0.5;" width="317" x="1452" y="175.56"/><ellipse cx="1509" cy="193.1381" fill="#ADD1B2" rx="12" ry="12" style="stroke:#181818;stroke-width:1.0;"/><path d="M1511.1406,188.06 Q1511.3281,187.81 1511.5469,187.685 Q1511.7656,187.5444 1512.0156,187.5444 Q1512.4531,187.5444 1512.7344,187.8569 Q1513.0156,188.1537 1513.0156,188.8725 L1513.0156,190.5756 Q1513.0156,191.2944 1512.7344,191.6069 Q1512.4531,191.9194 1512.0156,191.9194 Q1511.625,191.9194 1511.375,191.685 Q1511.125,191.4662 1511.0156,190.8569 Q1510.9531,190.435 1510.7344,190.2162 Q1510.3438,189.7787 1509.625,189.5131 Q1508.9063,189.2475 1508.1875,189.2475 Q1507.2813,189.2475 1506.5313,189.6381 Q1505.7813,190.0287 1505.2031,190.9194 Q1504.625,191.7944 1504.625,192.9975 L1504.625,194.2944 Q1504.625,195.7475 1505.6719,196.7162 Q1506.7344,197.685 1508.5938,197.685 Q1509.7031,197.685 1510.4844,197.3725 Q1510.9219,197.2006 1511.4375,196.685 Q1511.75,196.3725 1511.9219,196.2787 Q1512.0938,196.185 1512.3281,196.185 Q1512.7188,196.185 1513.0156,196.4975 Q1513.3281,196.7944 1513.3281,197.2006 Q1513.3281,197.6069 1512.9219,198.0756 Q1512.3281,198.7631 1511.3906,199.1537 Q1510.125,199.685 1508.6094,199.685 Q1506.8281,199.685 1505.4063,198.9506 Q1504.25,198.3569 1503.4375,197.0912 Q1502.625,195.8256 1502.625,194.3412 L1502.625,192.9819 Q1502.625,191.4194 1503.3438,190.0756 Q1504.0781,188.7162 1505.3594,187.9819 Q1506.6563,187.2475 1508.1094,187.2475 Q1508.9688,187.2475 1509.7188,187.4506 Q1510.4844,187.6537 1511.1406,188.06 Z " fill="#000000"/><text fill="#000000" font-family="sans-serif" font-size="20" lengthAdjust="spacing" textLength="194" x="1531" y="201.3217">JpaRepositoryFactory</text><line style="stroke:#181818;stroke-width:0.5;" x1="1453" x2="1768" y1="210.7162" y2="210.7162"/><line style="stroke:#181818;stroke-width:0.5;" x1="1453" x2="1768" y1="218.7162" y2="218.7162"/><rect fill="#F24D5C" height="6" style="stroke:#C82930;stroke-width:1.0;" width="6" x="1460" y="233.7944"/><text fill="#000000" font-family="sans-serif" font-size="20" lengthAdjust="spacing" textLength="208" x="1473" y="243.478">JpaRepositoryFactory()</text><ellipse cx="1463" cy="261.9506" fill="#84BE84" rx="3" ry="3" style="stroke:#038048;stroke-width:1.0;"/><text fill="#000000" font-family="sans-serif" font-size="20" lengthAdjust="spacing" textLength="290" x="1473" y="268.6342">getInstance(): RepositoryFactory</text></g><!--class JpaShowRequestRepository--><g id="elem_JpaShowRequestRepository"><rect codeLine="24" fill="#F1F1F1" height="51.1563" id="JpaShowRequestRepository" rx="2.5" ry="2.5" style="stroke:#181818;stroke-width:0.5;" width="283" x="2118" y="139.56"/><ellipse cx="2134" cy="157.1381" fill="#ADD1B2" rx="12" ry="12" style="stroke:#181818;stroke-width:1.0;"/><path d="M2136.1406,152.06 Q2136.3281,151.81 2136.5469,151.685 Q2136.7656,151.5444 2137.0156,151.5444 Q2137.4531,151.5444 2137.7344,151.8569 Q2138.0156,152.1537 2138.0156,152.8725 L2138.0156,154.5756 Q2138.0156,155.2944 2137.7344,155.6069 Q2137.4531,155.9194 2137.0156,155.9194 Q2136.625,155.9194 2136.375,155.685 Q2136.125,155.4662 2136.0156,154.8569 Q2135.9531,154.435 2135.7344,154.2162 Q2135.3438,153.7787 2134.625,153.5131 Q2133.9063,153.2475 2133.1875,153.2475 Q2132.2813,153.2475 2131.5313,153.6381 Q2130.7813,154.0287 2130.2031,154.9194 Q2129.625,155.7944 2129.625,156.9975 L2129.625,158.2944 Q2129.625,159.7475 2130.6719,160.7162 Q2131.7344,161.685 2133.5938,161.685 Q2134.7031,161.685 2135.4844,161.3725 Q2135.9219,161.2006 2136.4375,160.685 Q2136.75,160.3725 2136.9219,160.2787 Q2137.0938,160.185 2137.3281,160.185 Q2137.7188,160.185 2138.0156,160.4975 Q2138.3281,160.7944 2138.3281,161.2006 Q2138.3281,161.6069 2137.9219,162.0756 Q2137.3281,162.7631 2136.3906,163.1537 Q2135.125,163.685 2133.6094,163.685 Q2131.8281,163.685 2130.4063,162.9506 Q2129.25,162.3569 2128.4375,161.0912 Q2127.625,159.8256 2127.625,158.3412 L2127.625,156.9819 Q2127.625,155.4194 2128.3438,154.0756 Q2129.0781,152.7162 2130.3594,151.9819 Q2131.6563,151.2475 2133.1094,151.2475 Q2133.9688,151.2475 2134.7188,151.4506 Q2135.4844,151.6537 2136.1406,152.06 Z " fill="#000000"/><text fill="#000000" font-family="sans-serif" font-size="20" lengthAdjust="spacing" textLength="249" x="2149" y="165.3217">JpaShowRequestRepository</text><line style="stroke:#181818;stroke-width:0.5;" x1="2119" x2="2400" y1="174.7162" y2="174.7162"/><line style="stroke:#181818;stroke-width:0.5;" x1="2119" x2="2400" y1="182.7162" y2="182.7162"/></g><!--class JpaCustomersRepository--><g id="elem_JpaCustomersRepository"><rect codeLine="27" fill="#F1F1F1" height="51.1563" id="JpaCustomersRepository" rx="2.5" ry="2.5" style="stroke:#181818;stroke-width:0.5;" width="256" x="2131.5" y="225.56"/><ellipse cx="2147.5" cy="243.1381" fill="#ADD1B2" rx="12" ry="12" style="stroke:#181818;stroke-width:1.0;"/><path d="M2149.6406,238.06 Q2149.8281,237.81 2150.0469,237.685 Q2150.2656,237.5444 2150.5156,237.5444 Q2150.9531,237.5444 2151.2344,237.8569 Q2151.5156,238.1537 2151.5156,238.8725 L2151.5156,240.5756 Q2151.5156,241.2944 2151.2344,241.6069 Q2150.9531,241.9194 2150.5156,241.9194 Q2150.125,241.9194 2149.875,241.685 Q2149.625,241.4662 2149.5156,240.8569 Q2149.4531,240.435 2149.2344,240.2162 Q2148.8438,239.7787 2148.125,239.5131 Q2147.4063,239.2475 2146.6875,239.2475 Q2145.7813,239.2475 2145.0313,239.6381 Q2144.2813,240.0287 2143.7031,240.9194 Q2143.125,241.7944 2143.125,242.9975 L2143.125,244.2944 Q2143.125,245.7475 2144.1719,246.7162 Q2145.2344,247.685 2147.0938,247.685 Q2148.2031,247.685 2148.9844,247.3725 Q2149.4219,247.2006 2149.9375,246.685 Q2150.25,246.3725 2150.4219,246.2787 Q2150.5938,246.185 2150.8281,246.185 Q2151.2188,246.185 2151.5156,246.4975 Q2151.8281,246.7944 2151.8281,247.2006 Q2151.8281,247.6069 2151.4219,248.0756 Q2150.8281,248.7631 2149.8906,249.1537 Q2148.625,249.685 2147.1094,249.685 Q2145.3281,249.685 2143.9063,248.9506 Q2142.75,248.3569 2141.9375,247.0912 Q2141.125,245.8256 2141.125,244.3412 L2141.125,242.9819 Q2141.125,241.4194 2141.8438,240.0756 Q2142.5781,238.7162 2143.8594,237.9819 Q2145.1563,237.2475 2146.6094,237.2475 Q2147.4688,237.2475 2148.2188,237.4506 Q2148.9844,237.6537 2149.6406,238.06 Z " fill="#000000"/><text fill="#000000" font-family="sans-serif" font-size="20" lengthAdjust="spacing" textLength="222" x="2162.5" y="251.3217">JpaCustomersRepository</text><line style="stroke:#181818;stroke-width:0.5;" x1="2132.5" x2="2386.5" y1="260.7162" y2="260.7162"/><line style="stroke:#181818;stroke-width:0.5;" x1="2132.5" x2="2386.5" y1="268.7162" y2="268.7162"/></g><!--class JpaUsersRepository--><g id="elem_JpaUsersRepository"><rect codeLine="30" fill="#F1F1F1" height="51.1563" id="JpaUsersRepository" rx="2.5" ry="2.5" style="stroke:#181818;stroke-width:0.5;" width="212" x="2153.5" y="53.56"/><ellipse cx="2169.5" cy="71.1381" fill="#ADD1B2" rx="12" ry="12" style="stroke:#181818;stroke-width:1.0;"/><path d="M2171.6406,66.06 Q2171.8281,65.81 2172.0469,65.685 Q2172.2656,65.5444 2172.5156,65.5444 Q2172.9531,65.5444 2173.2344,65.8569 Q2173.5156,66.1537 2173.5156,66.8725 L2173.5156,68.5756 Q2173.5156,69.2944 2173.2344,69.6069 Q2172.9531,69.9194 2172.5156,69.9194 Q2172.125,69.9194 2171.875,69.685 Q2171.625,69.4662 2171.5156,68.8569 Q2171.4531,68.435 2171.2344,68.2162 Q2170.8438,67.7787 2170.125,67.5131 Q2169.4063,67.2475 2168.6875,67.2475 Q2167.7813,67.2475 2167.0313,67.6381 Q2166.2813,68.0287 2165.7031,68.9194 Q2165.125,69.7944 2165.125,70.9975 L2165.125,72.2944 Q2165.125,73.7475 2166.1719,74.7162 Q2167.2344,75.685 2169.0938,75.685 Q2170.2031,75.685 2170.9844,75.3725 Q2171.4219,75.2006 2171.9375,74.685 Q2172.25,74.3725 2172.4219,74.2787 Q2172.5938,74.185 2172.8281,74.185 Q2173.2188,74.185 2173.5156,74.4975 Q2173.8281,74.7944 2173.8281,75.2006 Q2173.8281,75.6069 2173.4219,76.0756 Q2172.8281,76.7631 2171.8906,77.1537 Q2170.625,77.685 2169.1094,77.685 Q2167.3281,77.685 2165.9063,76.9506 Q2164.75,76.3569 2163.9375,75.0912 Q2163.125,73.8256 2163.125,72.3412 L2163.125,70.9819 Q2163.125,69.4194 2163.8438,68.0756 Q2164.5781,66.7162 2165.8594,65.9819 Q2167.1563,65.2475 2168.6094,65.2475 Q2169.4688,65.2475 2170.2188,65.4506 Q2170.9844,65.6537 2171.6406,66.06 Z " fill="#000000"/><text fill="#000000" font-family="sans-serif" font-size="20" lengthAdjust="spacing" textLength="178" x="2184.5" y="79.3217">JpaUsersRepository</text><line style="stroke:#181818;stroke-width:0.5;" x1="2154.5" x2="2364.5" y1="88.7162" y2="88.7162"/><line style="stroke:#181818;stroke-width:0.5;" x1="2154.5" x2="2364.5" y1="96.7162" y2="96.7162"/></g><!--class InMemoryRepositoryFactory--><g id="elem_InMemoryRepositoryFactory"><rect codeLine="35" fill="#F1F1F1" height="101.4688" id="InMemoryRepositoryFactory" rx="2.5" ry="2.5" style="stroke:#181818;stroke-width:0.5;" width="317" x="1452" y="886.56"/><ellipse cx="1482.85" cy="904.1381" fill="#ADD1B2" rx="12" ry="12" style="stroke:#181818;stroke-width:1.0;"/><path d="M1484.9906,899.06 Q1485.1781,898.81 1485.3969,898.685 Q1485.6156,898.5444 1485.8656,898.5444 Q1486.3031,898.5444 1486.5844,898.8569 Q1486.8656,899.1538 1486.8656,899.8725 L1486.8656,901.5756 Q1486.8656,902.2944 1486.5844,902.6069 Q1486.3031,902.9194 1485.8656,902.9194 Q1485.475,902.9194 1485.225,902.685 Q1484.975,902.4663 1484.8656,901.8569 Q1484.8031,901.435 1484.5844,901.2163 Q1484.1938,900.7788 1483.475,900.5131 Q1482.7563,900.2475 1482.0375,900.2475 Q1481.1313,900.2475 1480.3813,900.6381 Q1479.6313,901.0288 1479.0531,901.9194 Q1478.475,902.7944 1478.475,903.9975 L1478.475,905.2944 Q1478.475,906.7475 1479.5219,907.7163 Q1480.5844,908.685 1482.4438,908.685 Q1483.5531,908.685 1484.3344,908.3725 Q1484.7719,908.2006 1485.2875,907.685 Q1485.6,907.3725 1485.7719,907.2788 Q1485.9438,907.185 1486.1781,907.185 Q1486.5688,907.185 1486.8656,907.4975 Q1487.1781,907.7944 1487.1781,908.2006 Q1487.1781,908.6069 1486.7719,909.0756 Q1486.1781,909.7631 1485.2406,910.1538 Q1483.975,910.685 1482.4594,910.685 Q1480.6781,910.685 1479.2563,909.9506 Q1478.1,909.3569 1477.2875,908.0913 Q1476.475,906.8256 1476.475,905.3413 L1476.475,903.9819 Q1476.475,902.4194 1477.1938,901.0756 Q1477.9281,899.7163 1479.2094,898.9819 Q1480.5063,898.2475 1481.9594,898.2475 Q1482.8188,898.2475 1483.5688,898.4506 Q1484.3344,898.6538 1484.9906,899.06 Z " fill="#000000"/><text fill="#000000" font-family="sans-serif" font-size="20" lengthAdjust="spacing" textLength="250" x="1501.15" y="912.3217">InMemoryRepositoryFactory</text><line style="stroke:#181818;stroke-width:0.5;" x1="1453" x2="1768" y1="921.7163" y2="921.7163"/><line style="stroke:#181818;stroke-width:0.5;" x1="1453" x2="1768" y1="929.7163" y2="929.7163"/><rect fill="#F24D5C" height="6" style="stroke:#C82930;stroke-width:1.0;" width="6" x="1460" y="944.7944"/><text fill="#000000" font-family="sans-serif" font-size="20" lengthAdjust="spacing" textLength="264" x="1473" y="954.478">InMemoryRepositoryFactory()</text><ellipse cx="1463" cy="972.9506" fill="#84BE84" rx="3" ry="3" style="stroke:#038048;stroke-width:1.0;"/><text fill="#000000" font-family="sans-serif" font-size="20" lengthAdjust="spacing" textLength="290" x="1473" y="979.6342">getInstance(): RepositoryFactory</text></g><!--class InMemoryShowRequestRepository--><g id="elem_InMemoryShowRequestRepository"><rect codeLine="40" fill="#F1F1F1" height="51.1563" id="InMemoryShowRequestRepository" rx="2.5" ry="2.5" style="stroke:#181818;stroke-width:0.5;" width="339" x="2090" y="972.56"/><ellipse cx="2106" cy="990.1381" fill="#ADD1B2" rx="12" ry="12" style="stroke:#181818;stroke-width:1.0;"/><path d="M2108.1406,985.06 Q2108.3281,984.81 2108.5469,984.685 Q2108.7656,984.5444 2109.0156,984.5444 Q2109.4531,984.5444 2109.7344,984.8569 Q2110.0156,985.1538 2110.0156,985.8725 L2110.0156,987.5756 Q2110.0156,988.2944 2109.7344,988.6069 Q2109.4531,988.9194 2109.0156,988.9194 Q2108.625,988.9194 2108.375,988.685 Q2108.125,988.4663 2108.0156,987.8569 Q2107.9531,987.435 2107.7344,987.2163 Q2107.3438,986.7788 2106.625,986.5131 Q2105.9063,986.2475 2105.1875,986.2475 Q2104.2813,986.2475 2103.5313,986.6381 Q2102.7813,987.0288 2102.2031,987.9194 Q2101.625,988.7944 2101.625,989.9975 L2101.625,991.2944 Q2101.625,992.7475 2102.6719,993.7163 Q2103.7344,994.685 2105.5938,994.685 Q2106.7031,994.685 2107.4844,994.3725 Q2107.9219,994.2006 2108.4375,993.685 Q2108.75,993.3725 2108.9219,993.2788 Q2109.0938,993.185 2109.3281,993.185 Q2109.7188,993.185 2110.0156,993.4975 Q2110.3281,993.7944 2110.3281,994.2006 Q2110.3281,994.6069 2109.9219,995.0756 Q2109.3281,995.7631 2108.3906,996.1538 Q2107.125,996.685 2105.6094,996.685 Q2103.8281,996.685 2102.4063,995.9506 Q2101.25,995.3569 2100.4375,994.0913 Q2099.625,992.8256 2099.625,991.3413 L2099.625,989.9819 Q2099.625,988.4194 2100.3438,987.0756 Q2101.0781,985.7163 2102.3594,984.9819 Q2103.6563,984.2475 2105.1094,984.2475 Q2105.9688,984.2475 2106.7188,984.4506 Q2107.4844,984.6538 2108.1406,985.06 Z " fill="#000000"/><text fill="#000000" font-family="sans-serif" font-size="20" lengthAdjust="spacing" textLength="305" x="2121" y="998.3217">InMemoryShowRequestRepository</text><line style="stroke:#181818;stroke-width:0.5;" x1="2091" x2="2428" y1="1007.7163" y2="1007.7163"/><line style="stroke:#181818;stroke-width:0.5;" x1="2091" x2="2428" y1="1015.7163" y2="1015.7163"/></g><!--class InMemoryCustomersRepository--><g id="elem_InMemoryCustomersRepository"><rect codeLine="43" fill="#F1F1F1" height="51.1563" id="InMemoryCustomersRepository" rx="2.5" ry="2.5" style="stroke:#181818;stroke-width:0.5;" width="312" x="2103.5" y="1058.56"/><ellipse cx="2119.5" cy="1076.1381" fill="#ADD1B2" rx="12" ry="12" style="stroke:#181818;stroke-width:1.0;"/><path d="M2121.6406,1071.06 Q2121.8281,1070.81 2122.0469,1070.685 Q2122.2656,1070.5444 2122.5156,1070.5444 Q2122.9531,1070.5444 2123.2344,1070.8569 Q2123.5156,1071.1538 2123.5156,1071.8725 L2123.5156,1073.5756 Q2123.5156,1074.2944 2123.2344,1074.6069 Q2122.9531,1074.9194 2122.5156,1074.9194 Q2122.125,1074.9194 2121.875,1074.685 Q2121.625,1074.4663 2121.5156,1073.8569 Q2121.4531,1073.435 2121.2344,1073.2163 Q2120.8438,1072.7788 2120.125,1072.5131 Q2119.4063,1072.2475 2118.6875,1072.2475 Q2117.7813,1072.2475 2117.0313,1072.6381 Q2116.2813,1073.0288 2115.7031,1073.9194 Q2115.125,1074.7944 2115.125,1075.9975 L2115.125,1077.2944 Q2115.125,1078.7475 2116.1719,1079.7163 Q2117.2344,1080.685 2119.0938,1080.685 Q2120.2031,1080.685 2120.9844,1080.3725 Q2121.4219,1080.2006 2121.9375,1079.685 Q2122.25,1079.3725 2122.4219,1079.2788 Q2122.5938,1079.185 2122.8281,1079.185 Q2123.2188,1079.185 2123.5156,1079.4975 Q2123.8281,1079.7944 2123.8281,1080.2006 Q2123.8281,1080.6069 2123.4219,1081.0756 Q2122.8281,1081.7631 2121.8906,1082.1538 Q2120.625,1082.685 2119.1094,1082.685 Q2117.3281,1082.685 2115.9063,1081.9506 Q2114.75,1081.3569 2113.9375,1080.0913 Q2113.125,1078.8256 2113.125,1077.3413 L2113.125,1075.9819 Q2113.125,1074.4194 2113.8438,1073.0756 Q2114.5781,1071.7163 2115.8594,1070.9819 Q2117.1563,1070.2475 2118.6094,1070.2475 Q2119.4688,1070.2475 2120.2188,1070.4506 Q2120.9844,1070.6538 2121.6406,1071.06 Z " fill="#000000"/><text fill="#000000" font-family="sans-serif" font-size="20" lengthAdjust="spacing" textLength="278" x="2134.5" y="1084.3217">InMemoryCustomersRepository</text><line style="stroke:#181818;stroke-width:0.5;" x1="2104.5" x2="2414.5" y1="1093.7163" y2="1093.7163"/><line style="stroke:#181818;stroke-width:0.5;" x1="2104.5" x2="2414.5" y1="1101.7163" y2="1101.7163"/></g><!--class InMemoryUsersRepository--><g id="elem_InMemoryUsersRepository"><rect codeLine="46" fill="#F1F1F1" height="51.1563" id="InMemoryUsersRepository" rx="2.5" ry="2.5" style="stroke:#181818;stroke-width:0.5;" width="268" x="2125.5" y="886.56"/><ellipse cx="2141.5" cy="904.1381" fill="#ADD1B2" rx="12" ry="12" style="stroke:#181818;stroke-width:1.0;"/><path d="M2143.6406,899.06 Q2143.8281,898.81 2144.0469,898.685 Q2144.2656,898.5444 2144.5156,898.5444 Q2144.9531,898.5444 2145.2344,898.8569 Q2145.5156,899.1538 2145.5156,899.8725 L2145.5156,901.5756 Q2145.5156,902.2944 2145.2344,902.6069 Q2144.9531,902.9194 2144.5156,902.9194 Q2144.125,902.9194 2143.875,902.685 Q2143.625,902.4663 2143.5156,901.8569 Q2143.4531,901.435 2143.2344,901.2163 Q2142.8438,900.7788 2142.125,900.5131 Q2141.4063,900.2475 2140.6875,900.2475 Q2139.7813,900.2475 2139.0313,900.6381 Q2138.2813,901.0288 2137.7031,901.9194 Q2137.125,902.7944 2137.125,903.9975 L2137.125,905.2944 Q2137.125,906.7475 2138.1719,907.7163 Q2139.2344,908.685 2141.0938,908.685 Q2142.2031,908.685 2142.9844,908.3725 Q2143.4219,908.2006 2143.9375,907.685 Q2144.25,907.3725 2144.4219,907.2788 Q2144.5938,907.185 2144.8281,907.185 Q2145.2188,907.185 2145.5156,907.4975 Q2145.8281,907.7944 2145.8281,908.2006 Q2145.8281,908.6069 2145.4219,909.0756 Q2144.8281,909.7631 2143.8906,910.1538 Q2142.625,910.685 2141.1094,910.685 Q2139.3281,910.685 2137.9063,909.9506 Q2136.75,909.3569 2135.9375,908.0913 Q2135.125,906.8256 2135.125,905.3413 L2135.125,903.9819 Q2135.125,902.4194 2135.8438,901.0756 Q2136.5781,899.7163 2137.8594,898.9819 Q2139.1563,898.2475 2140.6094,898.2475 Q2141.4688,898.2475 2142.2188,898.4506 Q2142.9844,898.6538 2143.6406,899.06 Z " fill="#000000"/><text fill="#000000" font-family="sans-serif" font-size="20" lengthAdjust="spacing" textLength="234" x="2156.5" y="912.3217">InMemoryUsersRepository</text><line style="stroke:#181818;stroke-width:0.5;" x1="2126.5" x2="2392.5" y1="921.7163" y2="921.7163"/><line style="stroke:#181818;stroke-width:0.5;" x1="2126.5" x2="2392.5" y1="929.7163" y2="929.7163"/></g><!--class PersistenceContext--><g id="elem_PersistenceContext"><rect codeLine="51" fill="#F1F1F1" height="76.3125" id="PersistenceContext" rx="2.5" ry="2.5" style="stroke:#181818;stroke-width:0.5;" width="411" x="976" y="528.06"/><ellipse cx="1092" cy="545.6381" fill="#ADD1B2" rx="12" ry="12" style="stroke:#181818;stroke-width:1.0;"/><path d="M1094.1406,540.56 Q1094.3281,540.31 1094.5469,540.185 Q1094.7656,540.0444 1095.0156,540.0444 Q1095.4531,540.0444 1095.7344,540.3569 Q1096.0156,540.6538 1096.0156,541.3725 L1096.0156,543.0756 Q1096.0156,543.7944 1095.7344,544.1069 Q1095.4531,544.4194 1095.0156,544.4194 Q1094.625,544.4194 1094.375,544.185 Q1094.125,543.9663 1094.0156,543.3569 Q1093.9531,542.935 1093.7344,542.7163 Q1093.3438,542.2788 1092.625,542.0131 Q1091.9063,541.7475 1091.1875,541.7475 Q1090.2813,541.7475 1089.5313,542.1381 Q1088.7813,542.5288 1088.2031,543.4194 Q1087.625,544.2944 1087.625,545.4975 L1087.625,546.7944 Q1087.625,548.2475 1088.6719,549.2163 Q1089.7344,550.185 1091.5938,550.185 Q1092.7031,550.185 1093.4844,549.8725 Q1093.9219,549.7006 1094.4375,549.185 Q1094.75,548.8725 1094.9219,548.7788 Q1095.0938,548.685 1095.3281,548.685 Q1095.7188,548.685 1096.0156,548.9975 Q1096.3281,549.2944 1096.3281,549.7006 Q1096.3281,550.1069 1095.9219,550.5756 Q1095.3281,551.2631 1094.3906,551.6538 Q1093.125,552.185 1091.6094,552.185 Q1089.8281,552.185 1088.4063,551.4506 Q1087.25,550.8569 1086.4375,549.5913 Q1085.625,548.3256 1085.625,546.8413 L1085.625,545.4819 Q1085.625,543.9194 1086.3438,542.5756 Q1087.0781,541.2163 1088.3594,540.4819 Q1089.6563,539.7475 1091.1094,539.7475 Q1091.9688,539.7475 1092.7188,539.9506 Q1093.4844,540.1538 1094.1406,540.56 Z " fill="#000000"/><text fill="#000000" font-family="sans-serif" font-size="20" lengthAdjust="spacing" textLength="170" x="1114" y="553.8217">PersistenceContext</text><line style="stroke:#181818;stroke-width:0.5;" x1="977" x2="1386" y1="563.2163" y2="563.2163"/><line style="stroke:#181818;stroke-width:0.5;" x1="977" x2="1386" y1="571.2163" y2="571.2163"/><ellipse cx="987" cy="589.2944" fill="#84BE84" rx="3" ry="3" style="stroke:#038048;stroke-width:1.0;"/><text fill="#000000" font-family="sans-serif" font-size="20" lengthAdjust="spacing" textLength="384" x="997" y="595.978">getRepositoryFactory() : RepositoryFactory</text></g><!--class CRMCollaborator--><g id="elem_CRMCollaborator"><rect codeLine="77" fill="#F1F1F1" height="76.3125" id="CRMCollaborator" rx="2.5" ry="2.5" style="stroke:#181818;stroke-width:0.5;" width="187" x="3931.5" y="344.06"/><ellipse cx="3947.5" cy="374.2163" fill="#ADD1B2" rx="12" ry="12" style="stroke:#181818;stroke-width:1.0;"/><path d="M3949.6406,369.1381 Q3949.8281,368.8881 3950.0469,368.7631 Q3950.2656,368.6225 3950.5156,368.6225 Q3950.9531,368.6225 3951.2344,368.935 Q3951.5156,369.2319 3951.5156,369.9506 L3951.5156,371.6538 Q3951.5156,372.3725 3951.2344,372.685 Q3950.9531,372.9975 3950.5156,372.9975 Q3950.125,372.9975 3949.875,372.7631 Q3949.625,372.5444 3949.5156,371.935 Q3949.4531,371.5131 3949.2344,371.2944 Q3948.8438,370.8569 3948.125,370.5913 Q3947.4063,370.3256 3946.6875,370.3256 Q3945.7813,370.3256 3945.0313,370.7163 Q3944.2813,371.1069 3943.7031,371.9975 Q3943.125,372.8725 3943.125,374.0756 L3943.125,375.3725 Q3943.125,376.8256 3944.1719,377.7944 Q3945.2344,378.7631 3947.0938,378.7631 Q3948.2031,378.7631 3948.9844,378.4506 Q3949.4219,378.2788 3949.9375,377.7631 Q3950.25,377.4506 3950.4219,377.3569 Q3950.5938,377.2631 3950.8281,377.2631 Q3951.2188,377.2631 3951.5156,377.5756 Q3951.8281,377.8725 3951.8281,378.2788 Q3951.8281,378.685 3951.4219,379.1538 Q3950.8281,379.8413 3949.8906,380.2319 Q3948.625,380.7631 3947.1094,380.7631 Q3945.3281,380.7631 3943.9063,380.0288 Q3942.75,379.435 3941.9375,378.1694 Q3941.125,376.9038 3941.125,375.4194 L3941.125,374.06 Q3941.125,372.4975 3941.8438,371.1538 Q3942.5781,369.7944 3943.8594,369.06 Q3945.1563,368.3256 3946.6094,368.3256 Q3947.4688,368.3256 3948.2188,368.5288 Q3948.9844,368.7319 3949.6406,369.1381 Z " fill="#000000"/><text fill="#000000" font-family="sans-serif" font-size="20" font-style="italic" lengthAdjust="spacing" textLength="71" x="4003.5" y="369.8217">«Entity»</text><text fill="#000000" font-family="sans-serif" font-size="20" lengthAdjust="spacing" textLength="153" x="3962.5" y="394.978">CRMCollaborator</text><line style="stroke:#181818;stroke-width:0.5;" x1="3932.5" x2="4117.5" y1="404.3725" y2="404.3725"/><line style="stroke:#181818;stroke-width:0.5;" x1="3932.5" x2="4117.5" y1="412.3725" y2="412.3725"/></g><!--class Customer--><g id="elem_Customer"><rect codeLine="80" fill="#F1F1F1" height="76.3125" id="Customer" rx="2.5" ry="2.5" style="stroke:#181818;stroke-width:0.5;" width="119" x="3965.5" y="1121.06"/><ellipse cx="3981.5" cy="1151.2163" fill="#ADD1B2" rx="12" ry="12" style="stroke:#181818;stroke-width:1.0;"/><path d="M3983.6406,1146.1381 Q3983.8281,1145.8881 3984.0469,1145.7631 Q3984.2656,1145.6225 3984.5156,1145.6225 Q3984.9531,1145.6225 3985.2344,1145.935 Q3985.5156,1146.2319 3985.5156,1146.9506 L3985.5156,1148.6538 Q3985.5156,1149.3725 3985.2344,1149.685 Q3984.9531,1149.9975 3984.5156,1149.9975 Q3984.125,1149.9975 3983.875,1149.7631 Q3983.625,1149.5444 3983.5156,1148.935 Q3983.4531,1148.5131 3983.2344,1148.2944 Q3982.8438,1147.8569 3982.125,1147.5913 Q3981.4063,1147.3256 3980.6875,1147.3256 Q3979.7813,1147.3256 3979.0313,1147.7163 Q3978.2813,1148.1069 3977.7031,1148.9975 Q3977.125,1149.8725 3977.125,1151.0756 L3977.125,1152.3725 Q3977.125,1153.8256 3978.1719,1154.7944 Q3979.2344,1155.7631 3981.0938,1155.7631 Q3982.2031,1155.7631 3982.9844,1155.4506 Q3983.4219,1155.2788 3983.9375,1154.7631 Q3984.25,1154.4506 3984.4219,1154.3569 Q3984.5938,1154.2631 3984.8281,1154.2631 Q3985.2188,1154.2631 3985.5156,1154.5756 Q3985.8281,1154.8725 3985.8281,1155.2788 Q3985.8281,1155.685 3985.4219,1156.1538 Q3984.8281,1156.8413 3983.8906,1157.2319 Q3982.625,1157.7631 3981.1094,1157.7631 Q3979.3281,1157.7631 3977.9063,1157.0288 Q3976.75,1156.435 3975.9375,1155.1694 Q3975.125,1153.9038 3975.125,1152.4194 L3975.125,1151.06 Q3975.125,1149.4975 3975.8438,1148.1538 Q3976.5781,1146.7944 3977.8594,1146.06 Q3979.1563,1145.3256 3980.6094,1145.3256 Q3981.4688,1145.3256 3982.2188,1145.5288 Q3982.9844,1145.7319 3983.6406,1146.1381 Z " fill="#000000"/><text fill="#000000" font-family="sans-serif" font-size="20" font-style="italic" lengthAdjust="spacing" textLength="71" x="4003.5" y="1146.8217">«Entity»</text><text fill="#000000" font-family="sans-serif" font-size="20" lengthAdjust="spacing" textLength="85" x="3996.5" y="1171.978">Customer</text><line style="stroke:#181818;stroke-width:0.5;" x1="3966.5" x2="4083.5" y1="1181.3725" y2="1181.3725"/><line style="stroke:#181818;stroke-width:0.5;" x1="3966.5" x2="4083.5" y1="1189.3725" y2="1189.3725"/></g><!--class Location--><g id="elem_Location"><rect codeLine="83" fill="#F1F1F1" height="76.3125" id="Location" rx="2.5" ry="2.5" style="stroke:#181818;stroke-width:0.5;" width="166" x="3942" y="899.06"/><ellipse cx="3958" cy="929.2163" fill="#ADD1B2" rx="12" ry="12" style="stroke:#181818;stroke-width:1.0;"/><path d="M3960.1406,924.1381 Q3960.3281,923.8881 3960.5469,923.7631 Q3960.7656,923.6225 3961.0156,923.6225 Q3961.4531,923.6225 3961.7344,923.935 Q3962.0156,924.2319 3962.0156,924.9506 L3962.0156,926.6538 Q3962.0156,927.3725 3961.7344,927.685 Q3961.4531,927.9975 3961.0156,927.9975 Q3960.625,927.9975 3960.375,927.7631 Q3960.125,927.5444 3960.0156,926.935 Q3959.9531,926.5131 3959.7344,926.2944 Q3959.3438,925.8569 3958.625,925.5913 Q3957.9063,925.3256 3957.1875,925.3256 Q3956.2813,925.3256 3955.5313,925.7163 Q3954.7813,926.1069 3954.2031,926.9975 Q3953.625,927.8725 3953.625,929.0756 L3953.625,930.3725 Q3953.625,931.8256 3954.6719,932.7944 Q3955.7344,933.7631 3957.5938,933.7631 Q3958.7031,933.7631 3959.4844,933.4506 Q3959.9219,933.2788 3960.4375,932.7631 Q3960.75,932.4506 3960.9219,932.3569 Q3961.0938,932.2631 3961.3281,932.2631 Q3961.7188,932.2631 3962.0156,932.5756 Q3962.3281,932.8725 3962.3281,933.2788 Q3962.3281,933.685 3961.9219,934.1538 Q3961.3281,934.8413 3960.3906,935.2319 Q3959.125,935.7631 3957.6094,935.7631 Q3955.8281,935.7631 3954.4063,935.0288 Q3953.25,934.435 3952.4375,933.1694 Q3951.625,931.9038 3951.625,930.4194 L3951.625,929.06 Q3951.625,927.4975 3952.3438,926.1538 Q3953.0781,924.7944 3954.3594,924.06 Q3955.6563,923.3256 3957.1094,923.3256 Q3957.9688,923.3256 3958.7188,923.5288 Q3959.4844,923.7319 3960.1406,924.1381 Z " fill="#000000"/><text fill="#000000" font-family="sans-serif" font-size="20" font-style="italic" lengthAdjust="spacing" textLength="136" x="3971" y="924.8217">«Value Object»</text><text fill="#000000" font-family="sans-serif" font-size="20" lengthAdjust="spacing" textLength="74" x="4002" y="949.978">Location</text><line style="stroke:#181818;stroke-width:0.5;" x1="3943" x2="4107" y1="959.3725" y2="959.3725"/><line style="stroke:#181818;stroke-width:0.5;" x1="3943" x2="4107" y1="967.3725" y2="967.3725"/></g><!--class ShowRequestStatus--><g id="elem_ShowRequestStatus"><rect codeLine="86" fill="#F1F1F1" height="76.3125" id="ShowRequestStatus" rx="2.5" ry="2.5" style="stroke:#181818;stroke-width:0.5;" width="212" x="3919" y="788.06"/><ellipse cx="3935" cy="818.2163" fill="#EB937F" rx="12" ry="12" style="stroke:#181818;stroke-width:1.0;"/><path d="M3932.9531,819.2788 L3932.9531,822.2163 L3938.0469,822.2163 L3938.0469,821.1225 Q3938.0469,820.4038 3938.3281,820.1069 Q3938.6094,819.7944 3939.0625,819.7944 Q3939.5,819.7944 3939.7813,820.1069 Q3940.0625,820.4038 3940.0625,821.1225 L3940.0625,824.2163 L3930.625,824.2163 Q3929.9063,824.2163 3929.5938,823.935 Q3929.2969,823.6538 3929.2969,823.2163 Q3929.2969,822.7631 3929.6094,822.4975 Q3929.9219,822.2163 3930.625,822.2163 L3930.9375,822.2163 L3930.9375,814.3881 L3930.625,814.3881 Q3929.9063,814.3881 3929.5938,814.1069 Q3929.2969,813.8256 3929.2969,813.3725 Q3929.2969,812.9194 3929.5938,812.6538 Q3929.9063,812.3725 3930.625,812.3725 L3939.6094,812.3725 L3939.6094,815.4194 Q3939.6094,816.1381 3939.3281,816.4506 Q3939.0625,816.7475 3938.625,816.7475 Q3938.1719,816.7475 3937.8906,816.4506 Q3937.6094,816.1538 3937.6094,815.4194 L3937.6094,814.3881 L3932.9531,814.3881 L3932.9531,817.2788 L3934.7031,817.2788 Q3934.7031,816.4975 3934.8438,816.2631 Q3935.1563,815.7944 3935.7031,815.7944 Q3936.1563,815.7944 3936.4219,816.1069 Q3936.7031,816.4038 3936.7031,817.1225 L3936.7031,819.435 Q3936.7031,820.0913 3936.5469,820.31 Q3936.2344,820.7631 3935.7031,820.7631 Q3935.1563,820.7631 3934.8438,820.2944 Q3934.7031,820.06 3934.7031,819.2788 L3932.9531,819.2788 Z " fill="#000000"/><text fill="#000000" font-family="sans-serif" font-size="20" font-style="italic" lengthAdjust="spacing" textLength="136" x="3971" y="813.8217">«Value Object»</text><text fill="#000000" font-family="sans-serif" font-size="20" lengthAdjust="spacing" textLength="178" x="3950" y="838.978">ShowRequestStatus</text><line style="stroke:#181818;stroke-width:0.5;" x1="3920" x2="4130" y1="848.3725" y2="848.3725"/><line style="stroke:#181818;stroke-width:0.5;" x1="3920" x2="4130" y1="856.3725" y2="856.3725"/></g><!--class ShowDescription--><g id="elem_ShowDescription"><rect codeLine="89" fill="#F1F1F1" height="76.3125" id="ShowDescription" rx="2.5" ry="2.5" style="stroke:#181818;stroke-width:0.5;" width="181" x="3934.5" y="677.06"/><ellipse cx="3950.5" cy="707.2163" fill="#ADD1B2" rx="12" ry="12" style="stroke:#181818;stroke-width:1.0;"/><path d="M3952.6406,702.1381 Q3952.8281,701.8881 3953.0469,701.7631 Q3953.2656,701.6225 3953.5156,701.6225 Q3953.9531,701.6225 3954.2344,701.935 Q3954.5156,702.2319 3954.5156,702.9506 L3954.5156,704.6538 Q3954.5156,705.3725 3954.2344,705.685 Q3953.9531,705.9975 3953.5156,705.9975 Q3953.125,705.9975 3952.875,705.7631 Q3952.625,705.5444 3952.5156,704.935 Q3952.4531,704.5131 3952.2344,704.2944 Q3951.8438,703.8569 3951.125,703.5913 Q3950.4063,703.3256 3949.6875,703.3256 Q3948.7813,703.3256 3948.0313,703.7163 Q3947.2813,704.1069 3946.7031,704.9975 Q3946.125,705.8725 3946.125,707.0756 L3946.125,708.3725 Q3946.125,709.8256 3947.1719,710.7944 Q3948.2344,711.7631 3950.0938,711.7631 Q3951.2031,711.7631 3951.9844,711.4506 Q3952.4219,711.2788 3952.9375,710.7631 Q3953.25,710.4506 3953.4219,710.3569 Q3953.5938,710.2631 3953.8281,710.2631 Q3954.2188,710.2631 3954.5156,710.5756 Q3954.8281,710.8725 3954.8281,711.2788 Q3954.8281,711.685 3954.4219,712.1538 Q3953.8281,712.8413 3952.8906,713.2319 Q3951.625,713.7631 3950.1094,713.7631 Q3948.3281,713.7631 3946.9063,713.0288 Q3945.75,712.435 3944.9375,711.1694 Q3944.125,709.9038 3944.125,708.4194 L3944.125,707.06 Q3944.125,705.4975 3944.8438,704.1538 Q3945.5781,702.7944 3946.8594,702.06 Q3948.1563,701.3256 3949.6094,701.3256 Q3950.4688,701.3256 3951.2188,701.5288 Q3951.9844,701.7319 3952.6406,702.1381 Z " fill="#000000"/><text fill="#000000" font-family="sans-serif" font-size="20" font-style="italic" lengthAdjust="spacing" textLength="136" x="3971" y="702.8217">«Value Object»</text><text fill="#000000" font-family="sans-serif" font-size="20" lengthAdjust="spacing" textLength="147" x="3965.5" y="727.978">ShowDescription</text><line style="stroke:#181818;stroke-width:0.5;" x1="3935.5" x2="4114.5" y1="737.3725" y2="737.3725"/><line style="stroke:#181818;stroke-width:0.5;" x1="3935.5" x2="4114.5" y1="745.3725" y2="745.3725"/></g><!--class ShowRequest--><g id="elem_ShowRequest"><rect codeLine="92" fill="#F1F1F1" height="76.3125" id="ShowRequest" rx="2.5" ry="2.5" style="stroke:#181818;stroke-width:0.5;" width="156" x="3579" y="738.06"/><ellipse cx="3595" cy="768.2163" fill="#ADD1B2" rx="12" ry="12" style="stroke:#181818;stroke-width:1.0;"/><path d="M3597.1406,763.1381 Q3597.3281,762.8881 3597.5469,762.7631 Q3597.7656,762.6225 3598.0156,762.6225 Q3598.4531,762.6225 3598.7344,762.935 Q3599.0156,763.2319 3599.0156,763.9506 L3599.0156,765.6538 Q3599.0156,766.3725 3598.7344,766.685 Q3598.4531,766.9975 3598.0156,766.9975 Q3597.625,766.9975 3597.375,766.7631 Q3597.125,766.5444 3597.0156,765.935 Q3596.9531,765.5131 3596.7344,765.2944 Q3596.3438,764.8569 3595.625,764.5913 Q3594.9063,764.3256 3594.1875,764.3256 Q3593.2813,764.3256 3592.5313,764.7163 Q3591.7813,765.1069 3591.2031,765.9975 Q3590.625,766.8725 3590.625,768.0756 L3590.625,769.3725 Q3590.625,770.8256 3591.6719,771.7944 Q3592.7344,772.7631 3594.5938,772.7631 Q3595.7031,772.7631 3596.4844,772.4506 Q3596.9219,772.2788 3597.4375,771.7631 Q3597.75,771.4506 3597.9219,771.3569 Q3598.0938,771.2631 3598.3281,771.2631 Q3598.7188,771.2631 3599.0156,771.5756 Q3599.3281,771.8725 3599.3281,772.2788 Q3599.3281,772.685 3598.9219,773.1538 Q3598.3281,773.8413 3597.3906,774.2319 Q3596.125,774.7631 3594.6094,774.7631 Q3592.8281,774.7631 3591.4063,774.0288 Q3590.25,773.435 3589.4375,772.1694 Q3588.625,770.9038 3588.625,769.4194 L3588.625,768.06 Q3588.625,766.4975 3589.3438,765.1538 Q3590.0781,763.7944 3591.3594,763.06 Q3592.6563,762.3256 3594.1094,762.3256 Q3594.9688,762.3256 3595.7188,762.5288 Q3596.4844,762.7319 3597.1406,763.1381 Z " fill="#000000"/><text fill="#000000" font-family="sans-serif" font-size="20" font-style="italic" lengthAdjust="spacing" textLength="71" x="3635.5" y="763.8217">«Entity»</text><text fill="#000000" font-family="sans-serif" font-size="20" lengthAdjust="spacing" textLength="122" x="3610" y="788.978">ShowRequest</text><line style="stroke:#181818;stroke-width:0.5;" x1="3580" x2="3734" y1="798.3725" y2="798.3725"/><line style="stroke:#181818;stroke-width:0.5;" x1="3580" x2="3734" y1="806.3725" y2="806.3725"/></g><!--class Time--><g id="elem_Time"><rect codeLine="95" fill="#F1F1F1" height="76.3125" id="Time" rx="2.5" ry="2.5" style="stroke:#181818;stroke-width:0.5;" width="166" x="3942" y="566.06"/><ellipse cx="3958" cy="596.2163" fill="#ADD1B2" rx="12" ry="12" style="stroke:#181818;stroke-width:1.0;"/><path d="M3960.1406,591.1381 Q3960.3281,590.8881 3960.5469,590.7631 Q3960.7656,590.6225 3961.0156,590.6225 Q3961.4531,590.6225 3961.7344,590.935 Q3962.0156,591.2319 3962.0156,591.9506 L3962.0156,593.6538 Q3962.0156,594.3725 3961.7344,594.685 Q3961.4531,594.9975 3961.0156,594.9975 Q3960.625,594.9975 3960.375,594.7631 Q3960.125,594.5444 3960.0156,593.935 Q3959.9531,593.5131 3959.7344,593.2944 Q3959.3438,592.8569 3958.625,592.5913 Q3957.9063,592.3256 3957.1875,592.3256 Q3956.2813,592.3256 3955.5313,592.7163 Q3954.7813,593.1069 3954.2031,593.9975 Q3953.625,594.8725 3953.625,596.0756 L3953.625,597.3725 Q3953.625,598.8256 3954.6719,599.7944 Q3955.7344,600.7631 3957.5938,600.7631 Q3958.7031,600.7631 3959.4844,600.4506 Q3959.9219,600.2788 3960.4375,599.7631 Q3960.75,599.4506 3960.9219,599.3569 Q3961.0938,599.2631 3961.3281,599.2631 Q3961.7188,599.2631 3962.0156,599.5756 Q3962.3281,599.8725 3962.3281,600.2788 Q3962.3281,600.685 3961.9219,601.1538 Q3961.3281,601.8413 3960.3906,602.2319 Q3959.125,602.7631 3957.6094,602.7631 Q3955.8281,602.7631 3954.4063,602.0288 Q3953.25,601.435 3952.4375,600.1694 Q3951.625,598.9038 3951.625,597.4194 L3951.625,596.06 Q3951.625,594.4975 3952.3438,593.1538 Q3953.0781,591.7944 3954.3594,591.06 Q3955.6563,590.3256 3957.1094,590.3256 Q3957.9688,590.3256 3958.7188,590.5288 Q3959.4844,590.7319 3960.1406,591.1381 Z " fill="#000000"/><text fill="#000000" font-family="sans-serif" font-size="20" font-style="italic" lengthAdjust="spacing" textLength="136" x="3971" y="591.8217">«Value Object»</text><text fill="#000000" font-family="sans-serif" font-size="20" lengthAdjust="spacing" textLength="43" x="4017.5" y="616.978">Time</text><line style="stroke:#181818;stroke-width:0.5;" x1="3943" x2="4107" y1="626.3725" y2="626.3725"/><line style="stroke:#181818;stroke-width:0.5;" x1="3943" x2="4107" y1="634.3725" y2="634.3725"/></g><!--class Date--><g id="elem_Date"><rect codeLine="98" fill="#F1F1F1" height="76.3125" id="Date" rx="2.5" ry="2.5" style="stroke:#181818;stroke-width:0.5;" width="166" x="3942" y="455.06"/><ellipse cx="3958" cy="485.2163" fill="#ADD1B2" rx="12" ry="12" style="stroke:#181818;stroke-width:1.0;"/><path d="M3960.1406,480.1381 Q3960.3281,479.8881 3960.5469,479.7631 Q3960.7656,479.6225 3961.0156,479.6225 Q3961.4531,479.6225 3961.7344,479.935 Q3962.0156,480.2319 3962.0156,480.9506 L3962.0156,482.6538 Q3962.0156,483.3725 3961.7344,483.685 Q3961.4531,483.9975 3961.0156,483.9975 Q3960.625,483.9975 3960.375,483.7631 Q3960.125,483.5444 3960.0156,482.935 Q3959.9531,482.5131 3959.7344,482.2944 Q3959.3438,481.8569 3958.625,481.5913 Q3957.9063,481.3256 3957.1875,481.3256 Q3956.2813,481.3256 3955.5313,481.7163 Q3954.7813,482.1069 3954.2031,482.9975 Q3953.625,483.8725 3953.625,485.0756 L3953.625,486.3725 Q3953.625,487.8256 3954.6719,488.7944 Q3955.7344,489.7631 3957.5938,489.7631 Q3958.7031,489.7631 3959.4844,489.4506 Q3959.9219,489.2788 3960.4375,488.7631 Q3960.75,488.4506 3960.9219,488.3569 Q3961.0938,488.2631 3961.3281,488.2631 Q3961.7188,488.2631 3962.0156,488.5756 Q3962.3281,488.8725 3962.3281,489.2788 Q3962.3281,489.685 3961.9219,490.1538 Q3961.3281,490.8413 3960.3906,491.2319 Q3959.125,491.7631 3957.6094,491.7631 Q3955.8281,491.7631 3954.4063,491.0288 Q3953.25,490.435 3952.4375,489.1694 Q3951.625,487.9038 3951.625,486.4194 L3951.625,485.06 Q3951.625,483.4975 3952.3438,482.1538 Q3953.0781,480.7944 3954.3594,480.06 Q3955.6563,479.3256 3957.1094,479.3256 Q3957.9688,479.3256 3958.7188,479.5288 Q3959.4844,479.7319 3960.1406,480.1381 Z " fill="#000000"/><text fill="#000000" font-family="sans-serif" font-size="20" font-style="italic" lengthAdjust="spacing" textLength="136" x="3971" y="480.8217">«Value Object»</text><text fill="#000000" font-family="sans-serif" font-size="20" lengthAdjust="spacing" textLength="42" x="4018" y="505.978">Date</text><line style="stroke:#181818;stroke-width:0.5;" x1="3943" x2="4107" y1="515.3725" y2="515.3725"/><line style="stroke:#181818;stroke-width:0.5;" x1="3943" x2="4107" y1="523.3725" y2="523.3725"/></g><!--class QuantityOfDrones--><g id="elem_QuantityOfDrones"><rect codeLine="101" fill="#F1F1F1" height="76.3125" id="QuantityOfDrones" rx="2.5" ry="2.5" style="stroke:#181818;stroke-width:0.5;" width="192" x="3929" y="1010.06"/><ellipse cx="3945" cy="1040.2163" fill="#ADD1B2" rx="12" ry="12" style="stroke:#181818;stroke-width:1.0;"/><path d="M3947.1406,1035.1381 Q3947.3281,1034.8881 3947.5469,1034.7631 Q3947.7656,1034.6225 3948.0156,1034.6225 Q3948.4531,1034.6225 3948.7344,1034.935 Q3949.0156,1035.2319 3949.0156,1035.9506 L3949.0156,1037.6538 Q3949.0156,1038.3725 3948.7344,1038.685 Q3948.4531,1038.9975 3948.0156,1038.9975 Q3947.625,1038.9975 3947.375,1038.7631 Q3947.125,1038.5444 3947.0156,1037.935 Q3946.9531,1037.5131 3946.7344,1037.2944 Q3946.3438,1036.8569 3945.625,1036.5913 Q3944.9063,1036.3256 3944.1875,1036.3256 Q3943.2813,1036.3256 3942.5313,1036.7163 Q3941.7813,1037.1069 3941.2031,1037.9975 Q3940.625,1038.8725 3940.625,1040.0756 L3940.625,1041.3725 Q3940.625,1042.8256 3941.6719,1043.7944 Q3942.7344,1044.7631 3944.5938,1044.7631 Q3945.7031,1044.7631 3946.4844,1044.4506 Q3946.9219,1044.2788 3947.4375,1043.7631 Q3947.75,1043.4506 3947.9219,1043.3569 Q3948.0938,1043.2631 3948.3281,1043.2631 Q3948.7188,1043.2631 3949.0156,1043.5756 Q3949.3281,1043.8725 3949.3281,1044.2788 Q3949.3281,1044.685 3948.9219,1045.1538 Q3948.3281,1045.8413 3947.3906,1046.2319 Q3946.125,1046.7631 3944.6094,1046.7631 Q3942.8281,1046.7631 3941.4063,1046.0288 Q3940.25,1045.435 3939.4375,1044.1694 Q3938.625,1042.9038 3938.625,1041.4194 L3938.625,1040.06 Q3938.625,1038.4975 3939.3438,1037.1538 Q3940.0781,1035.7944 3941.3594,1035.06 Q3942.6563,1034.3256 3944.1094,1034.3256 Q3944.9688,1034.3256 3945.7188,1034.5288 Q3946.4844,1034.7319 3947.1406,1035.1381 Z " fill="#000000"/><text fill="#000000" font-family="sans-serif" font-size="20" font-style="italic" lengthAdjust="spacing" textLength="136" x="3971" y="1035.8217">«Value Object»</text><text fill="#000000" font-family="sans-serif" font-size="20" lengthAdjust="spacing" textLength="158" x="3960" y="1060.978">QuantityOfDrones</text><line style="stroke:#181818;stroke-width:0.5;" x1="3930" x2="4120" y1="1070.3725" y2="1070.3725"/><line style="stroke:#181818;stroke-width:0.5;" x1="3930" x2="4120" y1="1078.3725" y2="1078.3725"/></g><!--class RepositoryFactory--><g id="elem_RepositoryFactory"><rect codeLine="58" fill="#F1F1F1" height="126.625" id="RepositoryFactory" rx="2.5" ry="2.5" style="stroke:#181818;stroke-width:0.5;" width="521" x="2518" y="627.56"/><ellipse cx="2693.5" cy="645.1381" fill="#B4A7E5" rx="12" ry="12" style="stroke:#181818;stroke-width:1.0;"/><path d="M2694.5,641.31 L2694.5,649.1381 L2696.5313,649.1381 Q2697.25,649.1381 2697.5469,649.4194 Q2697.8594,649.685 2697.8594,650.1381 Q2697.8594,650.5756 2697.5469,650.8569 Q2697.25,651.1381 2696.5313,651.1381 L2690.4844,651.1381 Q2689.75,651.1381 2689.4375,650.8569 Q2689.1406,650.5756 2689.1406,650.1381 Q2689.1406,649.685 2689.4375,649.4194 Q2689.75,649.1381 2690.4844,649.1381 L2692.5,649.1381 L2692.5,641.31 L2690.4844,641.31 Q2689.75,641.31 2689.4375,641.0288 Q2689.1406,640.7475 2689.1406,640.2944 Q2689.1406,639.8413 2689.4375,639.5756 Q2689.75,639.2944 2690.4844,639.2944 L2696.5313,639.2944 Q2697.25,639.2944 2697.5469,639.5756 Q2697.8594,639.8413 2697.8594,640.2944 Q2697.8594,640.7475 2697.5469,641.0288 Q2697.25,641.31 2696.5313,641.31 L2694.5,641.31 Z " fill="#000000"/><text fill="#000000" font-family="sans-serif" font-size="20" font-style="italic" lengthAdjust="spacing" textLength="161" x="2715.5" y="653.3217">RepositoryFactory</text><line style="stroke:#181818;stroke-width:0.5;" x1="2519" x2="3038" y1="662.7163" y2="662.7163"/><line style="stroke:#181818;stroke-width:0.5;" x1="2519" x2="3038" y1="670.7163" y2="670.7163"/><ellipse cx="2529" cy="688.7944" fill="#84BE84" rx="3" ry="3" style="stroke:#038048;stroke-width:1.0;"/><text fill="#000000" font-family="sans-serif" font-size="20" lengthAdjust="spacing" textLength="494" x="2539" y="695.478">getShowRequestRepository() : ShowRequestRepository</text><ellipse cx="2529" cy="713.9506" fill="#84BE84" rx="3" ry="3" style="stroke:#038048;stroke-width:1.0;"/><text fill="#000000" font-family="sans-serif" font-size="20" lengthAdjust="spacing" textLength="420" x="2539" y="720.6342">getCustomerRepository() : CustomerRepository</text><ellipse cx="2529" cy="739.1069" fill="#84BE84" rx="3" ry="3" style="stroke:#038048;stroke-width:1.0;"/><text fill="#000000" font-family="sans-serif" font-size="20" lengthAdjust="spacing" textLength="352" x="2539" y="745.7905">getUsersRepository() : UsersRepository</text></g><!--class ShowRequestRepository--><g id="elem_ShowRequestRepository"><rect codeLine="64" fill="#F1F1F1" height="76.3125" id="ShowRequestRepository" rx="2.5" ry="2.5" style="stroke:#181818;stroke-width:0.5;" width="416" x="3100" y="738.06"/><ellipse cx="3195" cy="755.6381" fill="#B4A7E5" rx="12" ry="12" style="stroke:#181818;stroke-width:1.0;"/><path d="M3196,751.81 L3196,759.6381 L3198.0313,759.6381 Q3198.75,759.6381 3199.0469,759.9194 Q3199.3594,760.185 3199.3594,760.6381 Q3199.3594,761.0756 3199.0469,761.3569 Q3198.75,761.6381 3198.0313,761.6381 L3191.9844,761.6381 Q3191.25,761.6381 3190.9375,761.3569 Q3190.6406,761.0756 3190.6406,760.6381 Q3190.6406,760.185 3190.9375,759.9194 Q3191.25,759.6381 3191.9844,759.6381 L3194,759.6381 L3194,751.81 L3191.9844,751.81 Q3191.25,751.81 3190.9375,751.5288 Q3190.6406,751.2475 3190.6406,750.7944 Q3190.6406,750.3413 3190.9375,750.0756 Q3191.25,749.7944 3191.9844,749.7944 L3198.0313,749.7944 Q3198.75,749.7944 3199.0469,750.0756 Q3199.3594,750.3413 3199.3594,750.7944 Q3199.3594,751.2475 3199.0469,751.5288 Q3198.75,751.81 3198.0313,751.81 L3196,751.81 Z " fill="#000000"/><text fill="#000000" font-family="sans-serif" font-size="20" font-style="italic" lengthAdjust="spacing" textLength="217" x="3217" y="763.8217">ShowRequestRepository</text><line style="stroke:#181818;stroke-width:0.5;" x1="3101" x2="3515" y1="773.2163" y2="773.2163"/><line style="stroke:#181818;stroke-width:0.5;" x1="3101" x2="3515" y1="781.2163" y2="781.2163"/><ellipse cx="3111" cy="799.2944" fill="#84BE84" rx="3" ry="3" style="stroke:#038048;stroke-width:1.0;"/><text fill="#000000" font-family="sans-serif" font-size="20" lengthAdjust="spacing" textLength="389" x="3121" y="805.978">getShowRequest(): Iterable&lt;ShowRequest&gt;</text></g><!--class CustomerRepository--><g id="elem_CustomerRepository"><rect codeLine="68" fill="#F1F1F1" height="76.3125" id="CustomerRepository" rx="2.5" ry="2.5" style="stroke:#181818;stroke-width:0.5;" width="362" x="3127" y="849.06"/><ellipse cx="3213" cy="866.6381" fill="#B4A7E5" rx="12" ry="12" style="stroke:#181818;stroke-width:1.0;"/><path d="M3214,862.81 L3214,870.6381 L3216.0313,870.6381 Q3216.75,870.6381 3217.0469,870.9194 Q3217.3594,871.185 3217.3594,871.6381 Q3217.3594,872.0756 3217.0469,872.3569 Q3216.75,872.6381 3216.0313,872.6381 L3209.9844,872.6381 Q3209.25,872.6381 3208.9375,872.3569 Q3208.6406,872.0756 3208.6406,871.6381 Q3208.6406,871.185 3208.9375,870.9194 Q3209.25,870.6381 3209.9844,870.6381 L3212,870.6381 L3212,862.81 L3209.9844,862.81 Q3209.25,862.81 3208.9375,862.5288 Q3208.6406,862.2475 3208.6406,861.7944 Q3208.6406,861.3413 3208.9375,861.0756 Q3209.25,860.7944 3209.9844,860.7944 L3216.0313,860.7944 Q3216.75,860.7944 3217.0469,861.0756 Q3217.3594,861.3413 3217.3594,861.7944 Q3217.3594,862.2475 3217.0469,862.5288 Q3216.75,862.81 3216.0313,862.81 L3214,862.81 Z " fill="#000000"/><text fill="#000000" font-family="sans-serif" font-size="20" font-style="italic" lengthAdjust="spacing" textLength="181" x="3235" y="874.8217">CustomerRepository</text><line style="stroke:#181818;stroke-width:0.5;" x1="3128" x2="3488" y1="884.2163" y2="884.2163"/><line style="stroke:#181818;stroke-width:0.5;" x1="3128" x2="3488" y1="892.2163" y2="892.2163"/><ellipse cx="3138" cy="910.2944" fill="#84BE84" rx="3" ry="3" style="stroke:#038048;stroke-width:1.0;"/><text fill="#000000" font-family="sans-serif" font-size="20" lengthAdjust="spacing" textLength="335" x="3148" y="916.978">getCustomers(): Iterable&lt;Customers&gt;</text></g><!--class UsersRepository--><g id="elem_UsersRepository"><rect codeLine="72" fill="#F1F1F1" height="76.3125" id="UsersRepository" rx="2.5" ry="2.5" style="stroke:#181818;stroke-width:0.5;" width="274" x="3171" y="627.06"/><ellipse cx="3230" cy="644.6381" fill="#B4A7E5" rx="12" ry="12" style="stroke:#181818;stroke-width:1.0;"/><path d="M3231,640.81 L3231,648.6381 L3233.0313,648.6381 Q3233.75,648.6381 3234.0469,648.9194 Q3234.3594,649.185 3234.3594,649.6381 Q3234.3594,650.0756 3234.0469,650.3569 Q3233.75,650.6381 3233.0313,650.6381 L3226.9844,650.6381 Q3226.25,650.6381 3225.9375,650.3569 Q3225.6406,650.0756 3225.6406,649.6381 Q3225.6406,649.185 3225.9375,648.9194 Q3226.25,648.6381 3226.9844,648.6381 L3229,648.6381 L3229,640.81 L3226.9844,640.81 Q3226.25,640.81 3225.9375,640.5288 Q3225.6406,640.2475 3225.6406,639.7944 Q3225.6406,639.3413 3225.9375,639.0756 Q3226.25,638.7944 3226.9844,638.7944 L3233.0313,638.7944 Q3233.75,638.7944 3234.0469,639.0756 Q3234.3594,639.3413 3234.3594,639.7944 Q3234.3594,640.2475 3234.0469,640.5288 Q3233.75,640.81 3233.0313,640.81 L3231,640.81 Z " fill="#000000"/><text fill="#000000" font-family="sans-serif" font-size="20" font-style="italic" lengthAdjust="spacing" textLength="147" x="3252" y="652.8217">UsersRepository</text><line style="stroke:#181818;stroke-width:0.5;" x1="3172" x2="3444" y1="662.2163" y2="662.2163"/><line style="stroke:#181818;stroke-width:0.5;" x1="3172" x2="3444" y1="670.2163" y2="670.2163"/><ellipse cx="3182" cy="688.2944" fill="#84BE84" rx="3" ry="3" style="stroke:#038048;stroke-width:1.0;"/><text fill="#000000" font-family="sans-serif" font-size="20" lengthAdjust="spacing" textLength="247" x="3192" y="694.978">getUsers(): Iterable&lt;Users&gt;</text></g><!--link ShowRequest to ShowDescription--><g id="link_ShowRequest_ShowDescription"><path codeLine="106" d="M3735.17,763.19 C3791.78,753.76 3868.97,740.89 3929.31,730.84 " fill="none" id="ShowRequest-to-ShowDescription" style="stroke:#181818;stroke-width:1.0;"/><polygon fill="#181818" points="3934.36,730,3924.8214,727.5475,3929.4292,730.8289,3926.1477,735.4367,3934.36,730" style="stroke:#181818;stroke-width:1.0;"/><text fill="#000000" font-family="sans-serif" font-size="20" lengthAdjust="spacing" textLength="95" x="3779.5" y="733.8217">description</text><text fill="#000000" font-family="sans-serif" font-size="20" lengthAdjust="spacing" textLength="11" x="3915.3984" y="753.0276">1</text></g><!--link ShowRequest to CRMCollaborator--><g id="link_ShowRequest_CRMCollaborator"><path codeLine="107" d="M3664.34,737.79 C3675.49,681.35 3703.52,575.31 3765,509.06 C3808.4,462.29 3872.75,430.61 3926.45,410.59 " fill="none" id="ShowRequest-to-CRMCollaborator" style="stroke:#181818;stroke-width:1.0;"/><polygon fill="#181818" points="3931.28,408.81,3921.4518,408.1721,3926.589,410.5405,3924.2206,415.6777,3931.28,408.81" style="stroke:#181818;stroke-width:1.0;"/><text fill="#000000" font-family="sans-serif" font-size="20" lengthAdjust="spacing" textLength="112" x="3771" y="421.8217">submitted by</text><text fill="#000000" font-family="sans-serif" font-size="20" lengthAdjust="spacing" textLength="11" x="3912.3734" y="432.6932">1</text></g><!--link ShowRequest to Customer--><g id="link_ShowRequest_Customer"><path codeLine="108" d="M3664.41,814.39 C3675.59,870.33 3703.6,974.67 3765,1039.06 C3818.31,1094.96 3902.72,1127.27 3960.59,1144 " fill="none" id="ShowRequest-to-Customer" style="stroke:#181818;stroke-width:1.0;"/><polygon fill="#181818" points="3965.41,1145.37,3957.8552,1139.0514,3960.6024,1143.9964,3955.6574,1146.7436,3965.41,1145.37" style="stroke:#181818;stroke-width:1.0;"/><text fill="#000000" font-family="sans-serif" font-size="20" lengthAdjust="spacing" textLength="115" x="3769.5" y="1033.8217">requested by</text><text fill="#000000" font-family="sans-serif" font-size="20" lengthAdjust="spacing" textLength="11" x="3946.4772" y="1165.9772">1</text></g><!--link ShowRequest to Location--><g id="link_ShowRequest_Location"><path codeLine="109" d="M3705.05,814.11 C3723.05,827.39 3744.25,841.59 3765,852.06 C3819.74,879.68 3885.42,901.12 3936.94,915.55 " fill="none" id="ShowRequest-to-Location" style="stroke:#181818;stroke-width:1.0;"/><polygon fill="#181818" points="3941.88,916.93,3934.2856,910.659,3937.0638,915.5866,3932.1362,918.3648,3941.88,916.93" style="stroke:#181818;stroke-width:1.0;"/><text fill="#000000" font-family="sans-serif" font-size="20" lengthAdjust="spacing" textLength="47" x="3803.5" y="846.8217">place</text><text fill="#000000" font-family="sans-serif" font-size="20" lengthAdjust="spacing" textLength="11" x="3922.9873" y="937.0052">1</text></g><!--link ShowRequest to ShowRequestStatus--><g id="link_ShowRequest_ShowRequestStatus"><path codeLine="110" d="M3735.19,795.38 C3745.18,797.5 3755.31,799.46 3765,801.06 C3813.6,809.04 3867.78,814.76 3913.98,818.7 " fill="none" id="ShowRequest-to-ShowRequestStatus" style="stroke:#181818;stroke-width:1.0;"/><polygon fill="#181818" points="3918.99,819.12,3910.3656,814.3639,3914.0084,818.6918,3909.6805,822.3345,3918.99,819.12" style="stroke:#181818;stroke-width:1.0;"/><text fill="#000000" font-family="sans-serif" font-size="20" lengthAdjust="spacing" textLength="122" x="3766" y="795.8217">requestStatus</text><text fill="#000000" font-family="sans-serif" font-size="20" lengthAdjust="spacing" textLength="11" x="3900.1495" y="840.2672">1</text></g><!--link ShowRequest to Time--><g id="link_ShowRequest_Time"><path codeLine="111" d="M3709.62,737.92 C3726.74,726.2 3746.24,713.83 3765,704.06 C3820.18,675.3 3885.56,650.12 3936.83,632.22 " fill="none" id="ShowRequest-to-Time" style="stroke:#181818;stroke-width:1.0;"/><polygon fill="#181818" points="3941.75,630.51,3931.9357,629.6852,3937.0269,632.1509,3934.5612,637.2421,3941.75,630.51" style="stroke:#181818;stroke-width:1.0;"/><text fill="#000000" font-family="sans-serif" font-size="20" lengthAdjust="spacing" textLength="70" x="3792" y="646.8217">duration</text><text fill="#000000" font-family="sans-serif" font-size="20" lengthAdjust="spacing" textLength="11" x="3923.123" y="654.6123">1</text></g><!--link ShowRequest to Date--><g id="link_ShowRequest_Date"><path codeLine="112" d="M3676.24,737.76 C3694.58,702.61 3725.72,650.99 3765,617.06 C3815.26,573.64 3883.36,541.83 3937.11,521.3 " fill="none" id="ShowRequest-to-Date" style="stroke:#181818;stroke-width:1.0;"/><polygon fill="#181818" points="3941.94,519.47,3932.1065,518.921,3937.2648,521.2428,3934.943,526.4012,3941.94,519.47" style="stroke:#181818;stroke-width:1.0;"/><text fill="#000000" font-family="sans-serif" font-size="20" lengthAdjust="spacing" textLength="83" x="3785.5" y="538.8217">startTime</text><text fill="#000000" font-family="sans-serif" font-size="20" lengthAdjust="spacing" textLength="11" x="3923.0526" y="543.6902">1</text></g><!--link ShowRequest to QuantityOfDrones--><g id="link_ShowRequest_QuantityOfDrones"><path codeLine="113" d="M3675.8,814.33 C3693.92,849.72 3725,901.71 3765,935.06 C3811.18,973.55 3872.5,1001.09 3923.88,1019.33 " fill="none" id="ShowRequest-to-QuantityOfDrones" style="stroke:#181818;stroke-width:1.0;"/><polygon fill="#181818" points="3928.82,1021.07,3921.6558,1014.3117,3924.1029,1019.4119,3919.0028,1021.859,3928.82,1021.07" style="stroke:#181818;stroke-width:1.0;"/><text fill="#000000" font-family="sans-serif" font-size="20" lengthAdjust="spacing" textLength="98" x="3778" y="929.8217">qnt_drones</text><text fill="#000000" font-family="sans-serif" font-size="20" lengthAdjust="spacing" textLength="11" x="3910.0351" y="1040.7163">1</text></g><!--link ListShowRequestUI to ListShowRequestController--><g id="link_ListShowRequestUI_ListShowRequestController"><path codeLine="116" d="M293.24,791.06 C312.54,791.06 332.64,791.06 352.62,791.06 " fill="none" id="ListShowRequestUI-to-ListShowRequestController" style="stroke:#181818;stroke-width:1.0;stroke-dasharray:7.0,7.0;"/><polygon fill="#181818" points="357.7,791.06,348.7,787.06,352.7,791.06,348.7,795.06,357.7,791.06" style="stroke:#181818;stroke-width:1.0;"/></g><!--link ListShowRequestController to PersistenceContext--><g id="link_ListShowRequestController_PersistenceContext"><path codeLine="119" d="M626.05,727.43 C660.09,706.41 699.68,684.49 738,669.06 C811.66,639.4 895.81,617.14 970.81,601.05 " fill="none" id="ListShowRequestController-to-PersistenceContext" style="stroke:#181818;stroke-width:1.0;stroke-dasharray:7.0,7.0;"/><polygon fill="#181818" points="975.74,600,966.1033,597.9669,970.8502,601.0437,967.7733,605.7906,975.74,600" style="stroke:#181818;stroke-width:1.0;"/><text fill="#000000" font-family="sans-serif" font-size="20" lengthAdjust="spacing" textLength="204" x="739" y="602.8217">getRepositoryFactory()</text></g><!--link ListShowRequestController to RepositoryFactory--><g id="link_ListShowRequestController_RepositoryFactory"><path codeLine="120" d="M706.24,767.97 C716.98,766.89 727.63,765.9 738,765.06 C1373.5,713.33 2123.35,697.76 2512.76,693.07 " fill="none" id="ListShowRequestController-to-RepositoryFactory" style="stroke:#181818;stroke-width:1.0;stroke-dasharray:7.0,7.0;"/><polygon fill="#181818" points="2517.89,693.01,2508.8338,689.139,2512.8905,693.0814,2508.9481,697.1382,2517.89,693.01" style="stroke:#181818;stroke-width:1.0;"/><text fill="#000000" font-family="sans-serif" font-size="20" lengthAdjust="spacing" textLength="222" x="1499.5" y="704.8217">getCustomerRepository()</text></g><!--link ListShowRequestController to RepositoryFactory--><g id="link_ListShowRequestController_RepositoryFactory"><path codeLine="121" d="M706.05,788.6 C945.15,784.71 1390,775.7 1769,758.06 C2021.59,746.3 2309.38,726.55 2512.69,711.53 " fill="none" id="ListShowRequestController-to-RepositoryFactory-1" style="stroke:#181818;stroke-width:1.0;stroke-dasharray:7.0,7.0;"/><polygon fill="#181818" points="2517.78,711.15,2508.5077,707.8297,2512.7938,711.5215,2509.102,715.8076,2517.78,711.15" style="stroke:#181818;stroke-width:1.0;"/><text fill="#000000" font-family="sans-serif" font-size="20" lengthAdjust="spacing" textLength="137" x="1542" y="752.8217">getCustomers()</text></g><!--link ListShowRequestController to RepositoryFactory--><g id="link_ListShowRequestController_RepositoryFactory"><path codeLine="122" d="M577.56,727.5 C615.05,678.53 672.88,612.7 738,573.06 C822.47,521.62 854.67,529.6 952,512.06 C1280.4,452.87 2181.75,274.7 2453,469.06 C2461.59,475.21 2459.64,480.76 2462,491.06 C2465.16,504.84 2460.89,607.25 2470,618.06 C2482.36,632.73 2497.08,644.75 2513.29,654.58 " fill="none" id="ListShowRequestController-to-RepositoryFactory-2" style="stroke:#181818;stroke-width:1.0;stroke-dasharray:7.0,7.0;"/><polygon fill="#181818" points="2517.9,657.29,2512.1893,649.2658,2513.5962,654.7449,2508.1171,656.1519,2517.9,657.29" style="stroke:#181818;stroke-width:1.0;"/><text fill="#000000" font-family="sans-serif" font-size="20" lengthAdjust="spacing" textLength="93" x="1564" y="386.8217">getUsers()</text></g><!--link ListShowRequestController to ShowRequestRepository--><g id="link_ListShowRequestController_ShowRequestRepository"><path codeLine="123" d="M545.62,854.87 C567.41,946.56 621.48,1113.29 738,1193.06 C901.12,1304.72 982.82,1238.06 1180.5,1238.06 C1180.5,1238.06 1180.5,1238.06 2779.5,1238.06 C2918.52,1238.06 2986.22,1233 3070,1122.06 C3148.35,1018.3 3015.55,929.92 3100,831.06 C3104.15,826.2 3108.68,821.74 3113.51,817.66 " fill="none" id="ListShowRequestController-to-ShowRequestRepository" style="stroke:#181818;stroke-width:1.0;stroke-dasharray:7.0,7.0;"/><polygon fill="#181818" points="3117.64,814.32,3108.1326,816.8909,3113.7594,817.473,3113.1773,823.0998,3117.64,814.32" style="stroke:#181818;stroke-width:1.0;"/><text fill="#000000" font-family="sans-serif" font-size="20" lengthAdjust="spacing" textLength="164" x="1847.5" y="1232.8217">getShowRequest()</text></g><!--link ListShowRequestController to CustomerRepository--><g id="link_ListShowRequestController_CustomerRepository"><path codeLine="124" d="M540.14,854.83 C555.59,959.81 602.48,1167.22 738,1266.06 C897.65,1382.49 982.91,1309.06 1180.5,1309.06 C1180.5,1309.06 1180.5,1309.06 2779.5,1309.06 C2896.55,1309.06 2939.97,1326.46 3039,1264.06 C3169.73,1181.68 3255.35,1010.15 3289.81,930.03 " fill="none" id="ListShowRequestController-to-CustomerRepository" style="stroke:#181818;stroke-width:1.0;stroke-dasharray:7.0,7.0;"/><polygon fill="#181818" points="3291.81,925.35,3284.5881,932.0466,3289.8404,929.9457,3291.9413,935.198,3291.81,925.35" style="stroke:#181818;stroke-width:1.0;"/><text fill="#000000" font-family="sans-serif" font-size="20" lengthAdjust="spacing" textLength="137" x="1861" y="1303.8217">getCustomers()</text></g><!--link ListShowRequestController to UsersRepository--><g id="link_ListShowRequestController_UsersRepository"><path codeLine="125" d="M666.19,854.69 C837.9,933.48 1147.81,1064.75 1428,1126.06 C1873.03,1223.43 2007.39,1220.74 2453,1126.06 C2724.21,1068.43 2847.15,1112.24 3039,912.06 C3100.95,847.41 3035.19,781.83 3100,720.06 C3118.36,702.56 3141.63,690.48 3165.89,682.18 " fill="none" id="ListShowRequestController-to-UsersRepository" style="stroke:#181818;stroke-width:1.0;stroke-dasharray:7.0,7.0;"/><polygon fill="#181818" points="3170.75,680.56,3160.9487,679.5936,3166.0037,682.1326,3163.4648,687.1876,3170.75,680.56" style="stroke:#181818;stroke-width:1.0;"/><text fill="#000000" font-family="sans-serif" font-size="20" lengthAdjust="spacing" textLength="93" x="1883" y="1185.8217">getUsers()</text></g><!--link ShowRequestRepository to ShowRequest--><g id="link_ShowRequestRepository_ShowRequest"><path codeLine="128" d="M3516.36,776.06 C3536.43,776.06 3555.87,776.06 3573.55,776.06 " fill="none" id="ShowRequestRepository-to-ShowRequest" style="stroke:#181818;stroke-width:1.0;stroke-dasharray:7.0,7.0;"/><polygon fill="#181818" points="3578.98,776.06,3569.98,772.06,3573.98,776.06,3569.98,780.06,3578.98,776.06" style="stroke:#181818;stroke-width:1.0;"/></g><!--link CustomerRepository to Customer--><g id="link_CustomerRepository_Customer"><path codeLine="129" d="M3366.67,925.14 C3450.58,978.59 3612.94,1074.71 3765,1123.06 C3829.65,1143.61 3907.07,1152.44 3960.33,1156.22 " fill="none" id="CustomerRepository-to-Customer" style="stroke:#181818;stroke-width:1.0;stroke-dasharray:7.0,7.0;"/><polygon fill="#181818" points="3965.4,1156.57,3956.6956,1151.962,3960.4118,1156.227,3956.1468,1159.9431,3965.4,1156.57" style="stroke:#181818;stroke-width:1.0;"/></g><!--link UsersRepository to CRMCollaborator--><g id="link_UsersRepository_CRMCollaborator"><path codeLine="130" d="M3355.2,626.89 C3433.66,564.66 3600.48,443.38 3765,394.06 C3816.79,378.53 3877.01,374.93 3926.34,375.49 " fill="none" id="UsersRepository-to-CRMCollaborator" style="stroke:#181818;stroke-width:1.0;stroke-dasharray:7.0,7.0;"/><polygon fill="#181818" points="3931.38,375.56,3922.4381,371.4318,3926.3805,375.4886,3922.3238,379.431,3931.38,375.56" style="stroke:#181818;stroke-width:1.0;"/></g><!--link RepositoryFactory to ShowRequestRepository--><g id="link_RepositoryFactory_ShowRequestRepository"><path codeLine="133" d="M3039,732.87 C3057.68,735.88 3076.38,738.9 3094.74,741.85 " fill="none" id="RepositoryFactory-to-ShowRequestRepository" style="stroke:#181818;stroke-width:1.0;stroke-dasharray:7.0,7.0;"/><polygon fill="#181818" points="3099.91,742.69,3091.6647,737.3034,3094.9742,741.8911,3090.3865,745.2007,3099.91,742.69" style="stroke:#181818;stroke-width:1.0;"/></g><!--link RepositoryFactory to CustomerRepository--><g id="link_RepositoryFactory_CustomerRepository"><path codeLine="134" d="M2913.01,754.64 C2969.88,780.34 3037.42,809.06 3100,831.06 C3116.45,836.84 3133.82,842.38 3151.21,847.58 " fill="none" id="RepositoryFactory-to-CustomerRepository" style="stroke:#181818;stroke-width:1.0;stroke-dasharray:7.0,7.0;"/><polygon fill="#181818" points="3156.11,849.03,3148.6249,842.6289,3151.3177,847.6037,3146.3429,850.2965,3156.11,849.03" style="stroke:#181818;stroke-width:1.0;"/></g><!--link RepositoryFactory to UsersRepository--><g id="link_RepositoryFactory_UsersRepository"><path codeLine="135" d="M3039,678.27 C3082.6,676.12 3126.35,673.96 3165.49,672.03 " fill="none" id="RepositoryFactory-to-UsersRepository" style="stroke:#181818;stroke-width:1.0;stroke-dasharray:7.0,7.0;"/><polygon fill="#181818" points="3170.73,671.77,3161.5465,668.2113,3165.7359,672.0126,3161.9347,676.2019,3170.73,671.77" style="stroke:#181818;stroke-width:1.0;"/></g><!--link PersistenceContext to RepositoryFactory--><g id="link_PersistenceContext_RepositoryFactory"><path codeLine="138" d="M1345.98,528.02 C1370.34,523.57 1395.24,519.68 1419,517.06 C1534.19,504.33 2377.47,437.78 2462,517.06 C2478.42,532.46 2455.35,600.96 2470,618.06 C2482.4,632.53 2497.1,644.42 2513.24,654.16 " fill="none" id="PersistenceContext-to-RepositoryFactory" style="stroke:#181818;stroke-width:1.0;stroke-dasharray:7.0,7.0;"/><polygon fill="#181818" points="2517.83,656.85,2512.0879,648.8482,2513.5163,654.3218,2508.0427,655.7501,2517.83,656.85" style="stroke:#181818;stroke-width:1.0;"/><text fill="#000000" font-family="sans-serif" font-size="20" lengthAdjust="spacing" textLength="259" x="1800" y="474.8217">getShowRequestRepository()</text></g><!--link PersistenceContext to RepositoryFactory--><g id="link_PersistenceContext_RepositoryFactory"><path codeLine="139" d="M1387.28,556.3 C1727.39,542.04 2379.69,523.69 2462,588.06 C2472.87,596.56 2460.11,608.43 2470,618.06 C2482.94,630.65 2497.64,641.21 2513.42,650.05 " fill="none" id="PersistenceContext-to-RepositoryFactory-1" style="stroke:#181818;stroke-width:1.0;stroke-dasharray:7.0,7.0;"/><polygon fill="#181818" points="2517.9,652.5,2511.9143,644.6787,2513.5105,650.1057,2508.0835,651.7019,2517.9,652.5" style="stroke:#181818;stroke-width:1.0;"/><text fill="#000000" font-family="sans-serif" font-size="20" lengthAdjust="spacing" textLength="222" x="1818.5" y="537.8217">getCustomerRepository()</text></g><!--link PersistenceContext to RepositoryFactory--><g id="link_PersistenceContext_RepositoryFactory"><path codeLine="140" d="M1387.23,581.58 C1639.89,600.81 2082.64,634.75 2462,665.06 C2478.51,666.38 2495.5,667.74 2512.64,669.13 " fill="none" id="PersistenceContext-to-RepositoryFactory-2" style="stroke:#181818;stroke-width:1.0;stroke-dasharray:7.0,7.0;"/><polygon fill="#181818" points="2517.96,669.56,2509.3233,664.8264,2512.9773,669.1448,2508.6589,672.7988,2517.96,669.56" style="stroke:#181818;stroke-width:1.0;"/><text fill="#000000" font-family="sans-serif" font-size="20" lengthAdjust="spacing" textLength="188" x="1835.5" y="608.8217">getUsersRepository()</text></g><!--link PersistenceContext to JpaRepositoryFactory--><g id="link_PersistenceContext_JpaRepositoryFactory"><path codeLine="141" d="M1222.39,527.92 C1269.87,483.23 1352.26,407.8 1428,349.06 C1459.09,324.94 1494.66,300.25 1526.03,279.38 " fill="none" id="PersistenceContext-to-JpaRepositoryFactory" style="stroke:#181818;stroke-width:1.0;stroke-dasharray:7.0,7.0;"/><polygon fill="#181818" points="1530.22,276.59,1520.5127,278.2541,1526.0597,279.3635,1524.9503,284.9105,1530.22,276.59" style="stroke:#181818;stroke-width:1.0;"/></g><!--link PersistenceContext to InMemoryRepositoryFactory--><g id="link_PersistenceContext_InMemoryRepositoryFactory"><path codeLine="142" d="M1211.08,604.18 C1253.88,659.54 1339.16,763.29 1428,834.06 C1450.9,852.3 1477.44,869.29 1503.03,884 " fill="none" id="PersistenceContext-to-InMemoryRepositoryFactory" style="stroke:#181818;stroke-width:1.0;stroke-dasharray:7.0,7.0;"/><polygon fill="#181818" points="1507.46,886.53,1501.6163,878.6021,1503.1144,884.057,1497.6595,885.5551,1507.46,886.53" style="stroke:#181818;stroke-width:1.0;"/></g><!--link JpaShowRequestRepository to ShowRequestRepository--><g id="link_JpaShowRequestRepository_ShowRequestRepository"><path codeLine="145" d="M2401.17,159.58 C2608.42,154.83 2980.94,159.98 3070,253.06 C3141.89,328.19 3034.18,639.55 3100,720.06 C3101.1,721.4 3102.23,722.72 3103.39,724.01 " fill="none" id="JpaShowRequestRepository-to-ShowRequestRepository" style="stroke:#181818;stroke-width:1.0;"/><polygon fill="none" points="3108.33,719.04,3118.18,737.81,3098.78,729.28,3108.33,719.04" style="stroke:#181818;stroke-width:1.0;"/></g><!--link JpaCustomersRepository to CustomerRepository--><g id="link_JpaCustomersRepository_CustomerRepository"><path codeLine="146" d="M2387.82,273.73 C2562.07,311.64 2872.19,404.96 3039,610.06 C3103.29,689.11 3027.77,759.19 3100,831.06 C3103.27,834.31 3106.71,837.38 3110.29,840.28 " fill="none" id="JpaCustomersRepository-to-CustomerRepository" style="stroke:#181818;stroke-width:1.0;"/><polygon fill="none" points="3114.5,834.68,3126.85,851.89,3106.46,846.14,3114.5,834.68" style="stroke:#181818;stroke-width:1.0;"/></g><!--link JpaUsersRepository to UsersRepository--><g id="link_JpaUsersRepository_UsersRepository"><path codeLine="147" d="M2365.55,58.45 C2531.58,32.06 2857.54,6 3070,156.06 C3223.39,264.4 3280.14,497.94 3298.82,606.89 " fill="none" id="JpaUsersRepository-to-UsersRepository" style="stroke:#181818;stroke-width:1.0;"/><polygon fill="none" points="3305.78,606.08,3302.07,626.94,3291.96,608.32,3305.78,606.08" style="stroke:#181818;stroke-width:1.0;"/></g><!--link JpaRepositoryFactory to RepositoryFactory--><g id="link_JpaRepositoryFactory_RepositoryFactory"><path codeLine="148" d="M1769.39,248.45 C1998.26,281.72 2401.58,343.61 2462,375.06 C2570.05,431.28 2664.31,537.52 2721.01,611.21 " fill="none" id="JpaRepositoryFactory-to-RepositoryFactory" style="stroke:#181818;stroke-width:1.0;stroke-dasharray:7.0,7.0;"/><polygon fill="none" points="2726.73,607.16,2733.22,627.33,2715.57,615.61,2726.73,607.16" style="stroke:#181818;stroke-width:1.0;"/></g><!--link JpaRepositoryFactory to JpaShowRequestRepository--><g id="link_JpaRepositoryFactory_JpaShowRequestRepository"><path codeLine="149" d="M1769.36,211.17 C1874.11,201.3 2010.59,188.43 2112.76,178.8 " fill="none" id="JpaRepositoryFactory-to-JpaShowRequestRepository" style="stroke:#181818;stroke-width:1.0;stroke-dasharray:7.0,7.0;"/><polygon fill="#181818" points="2117.91,178.31,2108.5726,175.1775,2112.9323,178.782,2109.3278,183.1418,2117.91,178.31" style="stroke:#181818;stroke-width:1.0;"/></g><!--link JpaRepositoryFactory to JpaCustomersRepository--><g id="link_JpaRepositoryFactory_JpaCustomersRepository"><path codeLine="150" d="M1769.36,232.16 C1878.8,236.39 2022.88,241.95 2126.28,245.95 " fill="none" id="JpaRepositoryFactory-to-JpaCustomersRepository" style="stroke:#181818;stroke-width:1.0;stroke-dasharray:7.0,7.0;"/><polygon fill="#181818" points="2131.48,246.15,2122.6476,241.7925,2126.484,245.9496,2122.3269,249.786,2131.48,246.15" style="stroke:#181818;stroke-width:1.0;"/></g><!--link JpaRepositoryFactory to JpaUsersRepository--><g id="link_JpaRepositoryFactory_JpaUsersRepository"><path codeLine="151" d="M1769.36,190.19 C1886.83,163.5 2044.2,127.75 2148.34,104.09 " fill="none" id="JpaRepositoryFactory-to-JpaUsersRepository" style="stroke:#181818;stroke-width:1.0;stroke-dasharray:7.0,7.0;"/><polygon fill="#181818" points="2153.26,102.97,2143.5947,101.0775,2148.3859,104.0849,2145.3785,108.8761,2153.26,102.97" style="stroke:#181818;stroke-width:1.0;"/></g><!--link InMemoryShowRequestRepository to ShowRequestRepository--><g id="link_InMemoryShowRequestRepository_ShowRequestRepository"><path codeLine="154" d="M2382.73,1023.56 C2555.47,1052.11 2871.98,1075.86 3070,919.06 C3102.39,893.4 3069.79,859.25 3100,831.06 C3101.91,829.27 3103.87,827.55 3105.88,825.87 " fill="none" id="InMemoryShowRequestRepository-to-ShowRequestRepository" style="stroke:#181818;stroke-width:1.0;"/><polygon fill="none" points="3101.83,820.16,3122.14,814.09,3110.05,831.5,3101.83,820.16" style="stroke:#181818;stroke-width:1.0;"/></g><!--link InMemoryCustomersRepository to CustomerRepository--><g id="link_InMemoryCustomersRepository_CustomerRepository"><path codeLine="155" d="M2341.32,1109.61 C2491.48,1152.48 2820.86,1224.63 3070,1122.06 C3157.89,1085.87 3230.45,999.58 3271.24,942.24 " fill="none" id="InMemoryCustomersRepository-to-CustomerRepository" style="stroke:#181818;stroke-width:1.0;"/><polygon fill="none" points="3265.72,937.92,3282.87,925.47,3277.23,945.89,3265.72,937.92" style="stroke:#181818;stroke-width:1.0;"/></g><!--link InMemoryUsersRepository to UsersRepository--><g id="link_InMemoryUsersRepository_UsersRepository"><path codeLine="156" d="M2393.6,909.08 C2553.92,900.88 2827.98,871.9 3039,772.06 C3071.2,756.82 3068.45,736.6 3100,720.06 C3116.23,711.55 3133.88,704.28 3151.81,698.08 " fill="none" id="InMemoryUsersRepository-to-UsersRepository" style="stroke:#181818;stroke-width:1.0;"/><polygon fill="none" points="3149.74,691.4,3170.92,691.9,3154.05,704.72,3149.74,691.4" style="stroke:#181818;stroke-width:1.0;"/></g><!--link InMemoryRepositoryFactory to RepositoryFactory--><g id="link_InMemoryRepositoryFactory_RepositoryFactory"><path codeLine="157" d="M1769.07,915.47 C1940.72,890.56 2222.78,845.55 2462,788.06 C2495.46,780.02 2530.58,770.41 2564.74,760.42 " fill="none" id="InMemoryRepositoryFactory-to-RepositoryFactory" style="stroke:#181818;stroke-width:1.0;stroke-dasharray:7.0,7.0;"/><polygon fill="none" points="2563,753.63,2584.16,754.66,2566.97,767.06,2563,753.63" style="stroke:#181818;stroke-width:1.0;"/></g><!--link InMemoryRepositoryFactory to InMemoryShowRequestRepository--><g id="link_InMemoryRepositoryFactory_InMemoryShowRequestRepository"><path codeLine="158" d="M1769.36,951.94 C1864.73,960.93 1986.4,972.4 2084.53,981.65 " fill="none" id="InMemoryRepositoryFactory-to-InMemoryShowRequestRepository" style="stroke:#181818;stroke-width:1.0;stroke-dasharray:7.0,7.0;"/><polygon fill="#181818" points="2089.77,982.15,2081.1878,977.3182,2084.7923,981.678,2080.4326,985.2825,2089.77,982.15" style="stroke:#181818;stroke-width:1.0;"/></g><!--link InMemoryRepositoryFactory to InMemoryCustomersRepository--><g id="link_InMemoryRepositoryFactory_InMemoryCustomersRepository"><path codeLine="159" d="M1769.15,979.73 C1779.24,982.27 1789.25,984.73 1799,987.06 C1907.58,1012.97 2031.44,1038.91 2123.19,1057.44 " fill="none" id="InMemoryRepositoryFactory-to-InMemoryCustomersRepository" style="stroke:#181818;stroke-width:1.0;stroke-dasharray:7.0,7.0;"/><polygon fill="#181818" points="2128.36,1058.48,2120.3416,1052.7611,2123.461,1057.4802,2118.7419,1060.5996,2128.36,1058.48" style="stroke:#181818;stroke-width:1.0;"/></g><!--link InMemoryRepositoryFactory to InMemoryUsersRepository--><g id="link_InMemoryRepositoryFactory_InMemoryUsersRepository"><path codeLine="160" d="M1769.36,930.96 C1876.69,926.81 2017.32,921.38 2120.24,917.4 " fill="none" id="InMemoryRepositoryFactory-to-InMemoryUsersRepository" style="stroke:#181818;stroke-width:1.0;stroke-dasharray:7.0,7.0;"/><polygon fill="#181818" points="2125.42,917.2,2116.2673,913.5629,2120.424,917.3998,2116.5871,921.5565,2125.42,917.2" style="stroke:#181818;stroke-width:1.0;"/></g><!--SRC=[fLVVJzim47xtNs5r3nHDLDiUeoeIQeSK18BHbTV9JLq894wm7Gq6_EzpVZM9VNPIo0l4_kxkk-_SyqKyHYmZd2Hn6ZxIBTxI7SbZUPOokOh-KVpZ6n9KOa4Ba4mvPYcZAAOxYMMAUNHtB_4suZIKKSeGoaZuIEuedgo32VwoB1_yYh1wmfW8WIyY8LVtwTyR-fHJ8TS1di_NWU_NeEBvYkC-Q1hcGgO9vSSTZ53xYtfTdBBjYiQAnBI2lAFt3fU5IeQdSKpvA4ujN75hNpx0iS3iEKwFFHn8oiacflDcrGVePWgi32aBwInAidZsa16O-7b6RcYMYaWLvkMCXCMVbkC9k3_j4hoZCc124XMge6U0QtRza9siMuDN4BfFVWYu5Y38AKl44feeCAnDm2xBNQT0Lj0dLMhyZfMgmO_Jgq4V9XeiqtKBA8uwVPQzKwvI1xJ1TX6wmPTfGYAcnzrljowmZYcUGB7XEn9ICrO7jQS9IbrI1NTC1utschMvR9fgXIZjjBMzKLt9VeOWnO4iU_sai-wxGvdvG77SNKiCnD1oXmAKa9xpSgNhs3ZtYvlBXMh5P9DMLz5y_fF9IBxuFl0ZQRYwKHTfI8gRIw5kIPnJVBLvKDU8XgKiJxerMaaYS-6sgVmNHaigGXvbms5QapgEc_llAA5Z72w978NxbPCosDLkoTKbRyzFMHrrMPxu-1dr5jJAvFl4oDvJuyN-3RJGI-nXaM-II4erccnUO9Ewq1xcrOuTsbJRmrcipgcLSw_CUx_LAsXKba9bbtDYJQqiWyf74YuBF0ZIQ-3X9oR_RCl_bUhh09a3r6pcsqSOPTHviKywXHFWBl0iDy209xDZUxOM-pbFugCEwlupO0ptPS_en0DkW9vxO1PwH-tbW8uwzmnCMKi60OowH94Uhzpi_pPxOPiXm5JRAgC52zotC52_OD6HUNuHSAGTXy8oGnpe1JpbXxam1WgRFJJXsx3MORSltVdrAR9D-QfFlTdA2O_xbGLGL7Fehw1wMQ4CLJgpsHkWdWtjMxzRd1P0FawyyqWsyYFdnu5BOSTNWbLcoxS2hBNrX62RtYuBt_qPDD8Mgi4uIpsx_m00]--></g></svg>