<svg xmlns="http://www.w3.org/2000/svg" xmlns:xlink="http://www.w3.org/1999/xlink" contentStyleType="text/css" height="587px" preserveAspectRatio="none" style="width:911px;height:587px;background:#FFFFFF;" version="1.1" viewBox="0 0 911 587" width="911px" zoomAndPan="magnify"><defs/><g><!--cluster Drone --><g id="cluster_Drone "><path d="M8.5,6.0137 L53.8379,6.0137 A3.75,3.75 0 0 1 56.3379,8.5137 L63.3379,30.6348 L735.5,30.6348 A2.5,2.5 0 0 1 738,33.1348 L738,577.5137 A2.5,2.5 0 0 1 735.5,580.0137 L8.5,580.0137 A2.5,2.5 0 0 1 6,577.5137 L6,8.5137 A2.5,2.5 0 0 1 8.5,6.0137 " fill="none" style="stroke:#000000;stroke-width:1.5;"/><line style="stroke:#000000;stroke-width:1.5;" x1="6" x2="63.3379" y1="30.6348" y2="30.6348"/><text fill="#000000" font-family="sans-serif" font-size="14" font-weight="bold" lengthAdjust="spacing" textLength="40.4482" x="10" y="23.1211">Drone</text><text fill="#000000" font-family="sans-serif" font-size="14" font-style="italic" lengthAdjust="spacing" textLength="78.627" x="336.6865" y="47.7422">&#171;aggregate&#187;</text></g><!--cluster Shared--><g id="cluster_Shared"><path d="M764.5,466.0137 L812.9619,466.0137 A3.75,3.75 0 0 1 815.4619,468.5137 L822.4619,490.6348 L901.5,490.6348 A2.5,2.5 0 0 1 904,493.1348 L904,577.5137 A2.5,2.5 0 0 1 901.5,580.0137 L764.5,580.0137 A2.5,2.5 0 0 1 762,577.5137 L762,468.5137 A2.5,2.5 0 0 1 764.5,466.0137 " fill="none" style="stroke:#000000;stroke-width:1.5;"/><line style="stroke:#000000;stroke-width:1.5;" x1="762" x2="822.4619" y1="490.6348" y2="490.6348"/><text fill="#000000" font-family="sans-serif" font-size="14" font-weight="bold" lengthAdjust="spacing" textLength="47.4619" x="766" y="483.1211">Shared</text></g><!--class Inventory--><g id="elem_Inventory"><rect codeLine="4" fill="#F1F1F1" height="60.582" id="Inventory" rx="2.5" ry="2.5" style="stroke:#181818;stroke-width:0.5;" width="89.5859" x="328" y="62.0137"/><ellipse cx="343" cy="84.3047" fill="#ADD1B2" rx="11" ry="11" style="stroke:#181818;stroke-width:1.0;"/><path d="M345.7656,80.1797 Q345.9219,79.9609 346.1094,79.8516 Q346.2969,79.7422 346.5156,79.7422 Q346.8906,79.7422 347.125,80.0078 Q347.3594,80.2578 347.3594,80.8672 L347.3594,82.3203 Q347.3594,82.9297 347.125,83.1953 Q346.8906,83.4609 346.5156,83.4609 Q346.1719,83.4609 345.9688,83.2578 Q345.7656,83.0703 345.6563,82.5547 Q345.6094,82.1953 345.4219,82.0078 Q345.0938,81.6328 344.4844,81.4141 Q343.875,81.1953 343.25,81.1953 Q342.4844,81.1953 341.8438,81.5234 Q341.2188,81.8516 340.7188,82.6016 Q340.2344,83.3516 340.2344,84.3828 L340.2344,85.4766 Q340.2344,86.7109 341.125,87.5391 Q342.0156,88.3516 343.6094,88.3516 Q344.5469,88.3516 345.2031,88.1016 Q345.5938,87.9453 346.0156,87.5078 Q346.2813,87.2422 346.4219,87.1641 Q346.5781,87.0859 346.7813,87.0859 Q347.1094,87.0859 347.3594,87.3516 Q347.625,87.6016 347.625,87.9453 Q347.625,88.2891 347.2813,88.6953 Q346.7813,89.2734 345.9844,89.6016 Q344.9063,90.0547 343.6094,90.0547 Q342.0938,90.0547 340.8906,89.4297 Q339.9063,88.9297 339.2188,87.8672 Q338.5313,86.7891 338.5313,85.5078 L338.5313,84.3516 Q338.5313,83.0234 339.1406,81.8828 Q339.7656,80.7266 340.8594,80.1172 Q341.9531,79.4922 343.1875,79.4922 Q343.9219,79.4922 344.5625,79.6641 Q345.2188,79.8203 345.7656,80.1797 Z " fill="#000000"/><text fill="#000000" font-family="sans-serif" font-size="12" font-style="italic" lengthAdjust="spacing" textLength="43.3594" x="364.1133" y="79.9629">&#171;Entity&#187;</text><text fill="#000000" font-family="sans-serif" font-size="14" lengthAdjust="spacing" textLength="57.5859" x="357" y="98.082">Inventory</text><line style="stroke:#181818;stroke-width:0.5;" x1="329" x2="416.5859" y1="106.5957" y2="106.5957"/><line style="stroke:#181818;stroke-width:0.5;" x1="329" x2="416.5859" y1="114.5957" y2="114.5957"/></g><!--class Drone--><g id="elem_Drone"><rect codeLine="7" fill="#F1F1F1" height="76.543" id="Drone" rx="2.5" ry="2.5" style="stroke:#181818;stroke-width:0.5;" width="71.3594" x="337.5" y="184.0137"/><ellipse cx="352.5" cy="214.2852" fill="#ADD1B2" rx="11" ry="11" style="stroke:#181818;stroke-width:1.0;"/><path d="M355.2656,210.1602 Q355.4219,209.9414 355.6094,209.832 Q355.7969,209.7227 356.0156,209.7227 Q356.3906,209.7227 356.625,209.9883 Q356.8594,210.2383 356.8594,210.8477 L356.8594,212.3008 Q356.8594,212.9102 356.625,213.1758 Q356.3906,213.4414 356.0156,213.4414 Q355.6719,213.4414 355.4688,213.2383 Q355.2656,213.0508 355.1563,212.5352 Q355.1094,212.1758 354.9219,211.9883 Q354.5938,211.6133 353.9844,211.3945 Q353.375,211.1758 352.75,211.1758 Q351.9844,211.1758 351.3438,211.5039 Q350.7188,211.832 350.2188,212.582 Q349.7344,213.332 349.7344,214.3633 L349.7344,215.457 Q349.7344,216.6914 350.625,217.5195 Q351.5156,218.332 353.1094,218.332 Q354.0469,218.332 354.7031,218.082 Q355.0938,217.9258 355.5156,217.4883 Q355.7813,217.2227 355.9219,217.1445 Q356.0781,217.0664 356.2813,217.0664 Q356.6094,217.0664 356.8594,217.332 Q357.125,217.582 357.125,217.9258 Q357.125,218.2695 356.7813,218.6758 Q356.2813,219.2539 355.4844,219.582 Q354.4063,220.0352 353.1094,220.0352 Q351.5938,220.0352 350.3906,219.4102 Q349.4063,218.9102 348.7188,217.8477 Q348.0313,216.7695 348.0313,215.4883 L348.0313,214.332 Q348.0313,213.0039 348.6406,211.8633 Q349.2656,210.707 350.3594,210.0977 Q351.4531,209.4727 352.6875,209.4727 Q353.4219,209.4727 354.0625,209.6445 Q354.7188,209.8008 355.2656,210.1602 Z " fill="#000000"/><text fill="#000000" font-family="sans-serif" font-size="12" font-style="italic" lengthAdjust="spacing" textLength="43.3594" x="364.5" y="201.9629">&#171;Entity&#187;</text><text fill="#000000" font-family="sans-serif" font-size="12" font-style="italic" lengthAdjust="spacing" textLength="34.0254" x="369.167" y="217.9238">&#171;root&#187;</text><text fill="#000000" font-family="sans-serif" font-size="14" lengthAdjust="spacing" textLength="38.1309" x="367.1143" y="236.043">Drone</text><line style="stroke:#181818;stroke-width:0.5;" x1="338.5" x2="407.8594" y1="244.5566" y2="244.5566"/><line style="stroke:#181818;stroke-width:0.5;" x1="338.5" x2="407.8594" y1="252.5566" y2="252.5566"/></g><!--class Maintenance--><g id="elem_Maintenance"><rect codeLine="10" fill="#F1F1F1" height="60.582" id="Maintenance" rx="2.5" ry="2.5" style="stroke:#181818;stroke-width:0.5;" width="112.165" x="22" y="340.0137"/><ellipse cx="37" cy="362.3047" fill="#ADD1B2" rx="11" ry="11" style="stroke:#181818;stroke-width:1.0;"/><path d="M39.7656,358.1797 Q39.9219,357.9609 40.1094,357.8516 Q40.2969,357.7422 40.5156,357.7422 Q40.8906,357.7422 41.125,358.0078 Q41.3594,358.2578 41.3594,358.8672 L41.3594,360.3203 Q41.3594,360.9297 41.125,361.1953 Q40.8906,361.4609 40.5156,361.4609 Q40.1719,361.4609 39.9688,361.2578 Q39.7656,361.0703 39.6563,360.5547 Q39.6094,360.1953 39.4219,360.0078 Q39.0938,359.6328 38.4844,359.4141 Q37.875,359.1953 37.25,359.1953 Q36.4844,359.1953 35.8438,359.5234 Q35.2188,359.8516 34.7188,360.6016 Q34.2344,361.3516 34.2344,362.3828 L34.2344,363.4766 Q34.2344,364.7109 35.125,365.5391 Q36.0156,366.3516 37.6094,366.3516 Q38.5469,366.3516 39.2031,366.1016 Q39.5938,365.9453 40.0156,365.5078 Q40.2813,365.2422 40.4219,365.1641 Q40.5781,365.0859 40.7813,365.0859 Q41.1094,365.0859 41.3594,365.3516 Q41.625,365.6016 41.625,365.9453 Q41.625,366.2891 41.2813,366.6953 Q40.7813,367.2734 39.9844,367.6016 Q38.9063,368.0547 37.6094,368.0547 Q36.0938,368.0547 34.8906,367.4297 Q33.9063,366.9297 33.2188,365.8672 Q32.5313,364.7891 32.5313,363.5078 L32.5313,362.3516 Q32.5313,361.0234 33.1406,359.8828 Q33.7656,358.7266 34.8594,358.1172 Q35.9531,357.4922 37.1875,357.4922 Q37.9219,357.4922 38.5625,357.6641 Q39.2188,357.8203 39.7656,358.1797 Z " fill="#000000"/><text fill="#000000" font-family="sans-serif" font-size="12" font-style="italic" lengthAdjust="spacing" textLength="43.3594" x="69.4028" y="357.9629">&#171;Entity&#187;</text><text fill="#000000" font-family="sans-serif" font-size="14" lengthAdjust="spacing" textLength="80.165" x="51" y="376.082">Maintenance</text><line style="stroke:#181818;stroke-width:0.5;" x1="23" x2="133.165" y1="384.5957" y2="384.5957"/><line style="stroke:#181818;stroke-width:0.5;" x1="23" x2="133.165" y1="392.5957" y2="392.5957"/></g><!--class MaintenanceDescription--><g id="elem_MaintenanceDescription"><rect codeLine="13" fill="#F1F1F1" height="60.582" id="MaintenanceDescription" rx="2.5" ry="2.5" style="stroke:#181818;stroke-width:0.5;" width="182.1924" x="22" y="503.0137"/><ellipse cx="37" cy="525.3047" fill="#ADD1B2" rx="11" ry="11" style="stroke:#181818;stroke-width:1.0;"/><path d="M39.7656,521.1797 Q39.9219,520.9609 40.1094,520.8516 Q40.2969,520.7422 40.5156,520.7422 Q40.8906,520.7422 41.125,521.0078 Q41.3594,521.2578 41.3594,521.8672 L41.3594,523.3203 Q41.3594,523.9297 41.125,524.1953 Q40.8906,524.4609 40.5156,524.4609 Q40.1719,524.4609 39.9688,524.2578 Q39.7656,524.0703 39.6563,523.5547 Q39.6094,523.1953 39.4219,523.0078 Q39.0938,522.6328 38.4844,522.4141 Q37.875,522.1953 37.25,522.1953 Q36.4844,522.1953 35.8438,522.5234 Q35.2188,522.8516 34.7188,523.6016 Q34.2344,524.3516 34.2344,525.3828 L34.2344,526.4766 Q34.2344,527.7109 35.125,528.5391 Q36.0156,529.3516 37.6094,529.3516 Q38.5469,529.3516 39.2031,529.1016 Q39.5938,528.9453 40.0156,528.5078 Q40.2813,528.2422 40.4219,528.1641 Q40.5781,528.0859 40.7813,528.0859 Q41.1094,528.0859 41.3594,528.3516 Q41.625,528.6016 41.625,528.9453 Q41.625,529.2891 41.2813,529.6953 Q40.7813,530.2734 39.9844,530.6016 Q38.9063,531.0547 37.6094,531.0547 Q36.0938,531.0547 34.8906,530.4297 Q33.9063,529.9297 33.2188,528.8672 Q32.5313,527.7891 32.5313,526.5078 L32.5313,525.3516 Q32.5313,524.0234 33.1406,522.8828 Q33.7656,521.7266 34.8594,521.1172 Q35.9531,520.4922 37.1875,520.4922 Q37.9219,520.4922 38.5625,520.6641 Q39.2188,520.8203 39.7656,521.1797 Z " fill="#000000"/><text fill="#000000" font-family="sans-serif" font-size="12" font-style="italic" lengthAdjust="spacing" textLength="82.0547" x="85.0688" y="520.9629">&#171;Value Object&#187;</text><text fill="#000000" font-family="sans-serif" font-size="14" lengthAdjust="spacing" textLength="150.1924" x="51" y="539.082">MaintenanceDescription</text><line style="stroke:#181818;stroke-width:0.5;" x1="23" x2="203.1924" y1="547.5957" y2="547.5957"/><line style="stroke:#181818;stroke-width:0.5;" x1="23" x2="203.1924" y1="555.5957" y2="555.5957"/></g><!--class MaintenanceType--><g id="elem_MaintenanceType"><rect codeLine="16" fill="#F1F1F1" height="60.582" id="MaintenanceType" rx="2.5" ry="2.5" style="stroke:#181818;stroke-width:0.5;" width="143.2891" x="239.5" y="503.0137"/><ellipse cx="254.5" cy="525.3047" fill="#EB937F" rx="11" ry="11" style="stroke:#181818;stroke-width:1.0;"/><path d="M253.3594,526.1016 L253.3594,528.6016 L257.6875,528.6016 L257.6875,527.6797 Q257.6875,527.0703 257.9219,526.8047 Q258.1719,526.5391 258.5469,526.5391 Q258.9219,526.5391 259.1563,526.8047 Q259.3906,527.0703 259.3906,527.6797 L259.3906,530.3047 L251.3906,530.3047 Q250.7656,530.3047 250.5,530.0703 Q250.25,529.8359 250.25,529.4453 Q250.25,529.0703 250.5156,528.8359 Q250.7813,528.6016 251.3906,528.6016 L251.6563,528.6016 L251.6563,521.9453 L251.3906,521.9453 Q250.7656,521.9453 250.5,521.7109 Q250.25,521.4766 250.25,521.0859 Q250.25,520.7109 250.5,520.4766 Q250.7656,520.2422 251.3906,520.2422 L259.0156,520.2422 L259.0156,522.8359 Q259.0156,523.4453 258.7813,523.7109 Q258.5625,523.9609 258.1719,523.9609 Q257.7969,523.9609 257.5625,523.7109 Q257.3281,523.4453 257.3281,522.8359 L257.3281,521.9453 L253.3594,521.9453 L253.3594,524.3984 L254.8438,524.3984 Q254.8438,523.7422 254.9688,523.5547 Q255.2344,523.1484 255.7031,523.1484 Q256.0781,523.1484 256.3125,523.4141 Q256.5469,523.6641 256.5469,524.2734 L256.5469,526.2422 Q256.5469,526.7891 256.4219,526.9766 Q256.1563,527.3672 255.7031,527.3672 Q255.2344,527.3672 254.9688,526.9609 Q254.8438,526.7734 254.8438,526.1016 L253.3594,526.1016 Z " fill="#000000"/><text fill="#000000" font-family="sans-serif" font-size="12" font-style="italic" lengthAdjust="spacing" textLength="82.0547" x="283.1172" y="520.9629">&#171;Value Object&#187;</text><text fill="#000000" font-family="sans-serif" font-size="14" lengthAdjust="spacing" textLength="111.2891" x="268.5" y="539.082">MaintenanceType</text><line style="stroke:#181818;stroke-width:0.5;" x1="240.5" x2="381.7891" y1="547.5957" y2="547.5957"/><line style="stroke:#181818;stroke-width:0.5;" x1="240.5" x2="381.7891" y1="555.5957" y2="555.5957"/></g><!--class Model--><g id="elem_Model"><rect codeLine="19" fill="#F1F1F1" height="60.582" id="Model" rx="2.5" ry="2.5" style="stroke:#181818;stroke-width:0.5;" width="110.0547" x="169" y="340.0137"/><ellipse cx="184" cy="362.3047" fill="#ADD1B2" rx="11" ry="11" style="stroke:#181818;stroke-width:1.0;"/><path d="M186.7656,358.1797 Q186.9219,357.9609 187.1094,357.8516 Q187.2969,357.7422 187.5156,357.7422 Q187.8906,357.7422 188.125,358.0078 Q188.3594,358.2578 188.3594,358.8672 L188.3594,360.3203 Q188.3594,360.9297 188.125,361.1953 Q187.8906,361.4609 187.5156,361.4609 Q187.1719,361.4609 186.9688,361.2578 Q186.7656,361.0703 186.6563,360.5547 Q186.6094,360.1953 186.4219,360.0078 Q186.0938,359.6328 185.4844,359.4141 Q184.875,359.1953 184.25,359.1953 Q183.4844,359.1953 182.8438,359.5234 Q182.2188,359.8516 181.7188,360.6016 Q181.2344,361.3516 181.2344,362.3828 L181.2344,363.4766 Q181.2344,364.7109 182.125,365.5391 Q183.0156,366.3516 184.6094,366.3516 Q185.5469,366.3516 186.2031,366.1016 Q186.5938,365.9453 187.0156,365.5078 Q187.2813,365.2422 187.4219,365.1641 Q187.5781,365.0859 187.7813,365.0859 Q188.1094,365.0859 188.3594,365.3516 Q188.625,365.6016 188.625,365.9453 Q188.625,366.2891 188.2813,366.6953 Q187.7813,367.2734 186.9844,367.6016 Q185.9063,368.0547 184.6094,368.0547 Q183.0938,368.0547 181.8906,367.4297 Q180.9063,366.9297 180.2188,365.8672 Q179.5313,364.7891 179.5313,363.5078 L179.5313,362.3516 Q179.5313,361.0234 180.1406,359.8828 Q180.7656,358.7266 181.8594,358.1172 Q182.9531,357.4922 184.1875,357.4922 Q184.9219,357.4922 185.5625,357.6641 Q186.2188,357.8203 186.7656,358.1797 Z " fill="#000000"/><text fill="#000000" font-family="sans-serif" font-size="12" font-style="italic" lengthAdjust="spacing" textLength="82.0547" x="196" y="357.9629">&#171;Value Object&#187;</text><text fill="#000000" font-family="sans-serif" font-size="14" lengthAdjust="spacing" textLength="38.1309" x="217.9619" y="376.082">Model</text><line style="stroke:#181818;stroke-width:0.5;" x1="170" x2="278.0547" y1="384.5957" y2="384.5957"/><line style="stroke:#181818;stroke-width:0.5;" x1="170" x2="278.0547" y1="392.5957" y2="392.5957"/></g><!--class SerialNumber--><g id="elem_SerialNumber"><rect codeLine="22" fill="#F1F1F1" height="60.582" id="SerialNumber" rx="2.5" ry="2.5" style="stroke:#181818;stroke-width:0.5;" width="117.5859" x="314" y="340.0137"/><ellipse cx="329" cy="362.3047" fill="#ADD1B2" rx="11" ry="11" style="stroke:#181818;stroke-width:1.0;"/><path d="M331.7656,358.1797 Q331.9219,357.9609 332.1094,357.8516 Q332.2969,357.7422 332.5156,357.7422 Q332.8906,357.7422 333.125,358.0078 Q333.3594,358.2578 333.3594,358.8672 L333.3594,360.3203 Q333.3594,360.9297 333.125,361.1953 Q332.8906,361.4609 332.5156,361.4609 Q332.1719,361.4609 331.9688,361.2578 Q331.7656,361.0703 331.6563,360.5547 Q331.6094,360.1953 331.4219,360.0078 Q331.0938,359.6328 330.4844,359.4141 Q329.875,359.1953 329.25,359.1953 Q328.4844,359.1953 327.8438,359.5234 Q327.2188,359.8516 326.7188,360.6016 Q326.2344,361.3516 326.2344,362.3828 L326.2344,363.4766 Q326.2344,364.7109 327.125,365.5391 Q328.0156,366.3516 329.6094,366.3516 Q330.5469,366.3516 331.2031,366.1016 Q331.5938,365.9453 332.0156,365.5078 Q332.2813,365.2422 332.4219,365.1641 Q332.5781,365.0859 332.7813,365.0859 Q333.1094,365.0859 333.3594,365.3516 Q333.625,365.6016 333.625,365.9453 Q333.625,366.2891 333.2813,366.6953 Q332.7813,367.2734 331.9844,367.6016 Q330.9063,368.0547 329.6094,368.0547 Q328.0938,368.0547 326.8906,367.4297 Q325.9063,366.9297 325.2188,365.8672 Q324.5313,364.7891 324.5313,363.5078 L324.5313,362.3516 Q324.5313,361.0234 325.1406,359.8828 Q325.7656,358.7266 326.8594,358.1172 Q327.9531,357.4922 329.1875,357.4922 Q329.9219,357.4922 330.5625,357.6641 Q331.2188,357.8203 331.7656,358.1797 Z " fill="#000000"/><text fill="#000000" font-family="sans-serif" font-size="12" font-style="italic" lengthAdjust="spacing" textLength="82.0547" x="344.7656" y="357.9629">&#171;Value Object&#187;</text><text fill="#000000" font-family="sans-serif" font-size="14" lengthAdjust="spacing" textLength="85.5859" x="343" y="376.082">SerialNumber</text><line style="stroke:#181818;stroke-width:0.5;" x1="315" x2="430.5859" y1="384.5957" y2="384.5957"/><line style="stroke:#181818;stroke-width:0.5;" x1="315" x2="430.5859" y1="392.5957" y2="392.5957"/></g><!--class DroneStatus--><g id="elem_DroneStatus"><rect codeLine="25" fill="#F1F1F1" height="60.582" id="DroneStatus" rx="2.5" ry="2.5" style="stroke:#181818;stroke-width:0.5;" width="110.0547" x="467" y="340.0137"/><ellipse cx="482" cy="362.3047" fill="#EB937F" rx="11" ry="11" style="stroke:#181818;stroke-width:1.0;"/><path d="M480.8594,363.1016 L480.8594,365.6016 L485.1875,365.6016 L485.1875,364.6797 Q485.1875,364.0703 485.4219,363.8047 Q485.6719,363.5391 486.0469,363.5391 Q486.4219,363.5391 486.6563,363.8047 Q486.8906,364.0703 486.8906,364.6797 L486.8906,367.3047 L478.8906,367.3047 Q478.2656,367.3047 478,367.0703 Q477.75,366.8359 477.75,366.4453 Q477.75,366.0703 478.0156,365.8359 Q478.2813,365.6016 478.8906,365.6016 L479.1563,365.6016 L479.1563,358.9453 L478.8906,358.9453 Q478.2656,358.9453 478,358.7109 Q477.75,358.4766 477.75,358.0859 Q477.75,357.7109 478,357.4766 Q478.2656,357.2422 478.8906,357.2422 L486.5156,357.2422 L486.5156,359.8359 Q486.5156,360.4453 486.2813,360.7109 Q486.0625,360.9609 485.6719,360.9609 Q485.2969,360.9609 485.0625,360.7109 Q484.8281,360.4453 484.8281,359.8359 L484.8281,358.9453 L480.8594,358.9453 L480.8594,361.3984 L482.3438,361.3984 Q482.3438,360.7422 482.4688,360.5547 Q482.7344,360.1484 483.2031,360.1484 Q483.5781,360.1484 483.8125,360.4141 Q484.0469,360.6641 484.0469,361.2734 L484.0469,363.2422 Q484.0469,363.7891 483.9219,363.9766 Q483.6563,364.3672 483.2031,364.3672 Q482.7344,364.3672 482.4688,363.9609 Q482.3438,363.7734 482.3438,363.1016 L480.8594,363.1016 Z " fill="#000000"/><text fill="#000000" font-family="sans-serif" font-size="12" font-style="italic" lengthAdjust="spacing" textLength="82.0547" x="494" y="357.9629">&#171;Value Object&#187;</text><text fill="#000000" font-family="sans-serif" font-size="14" lengthAdjust="spacing" textLength="77.8203" x="496.1172" y="376.082">DroneStatus</text><line style="stroke:#181818;stroke-width:0.5;" x1="468" x2="576.0547" y1="384.5957" y2="384.5957"/><line style="stroke:#181818;stroke-width:0.5;" x1="468" x2="576.0547" y1="392.5957" y2="392.5957"/></g><!--class Routine--><g id="elem_Routine"><rect codeLine="28" fill="#F1F1F1" height="60.582" id="Routine" rx="2.5" ry="2.5" style="stroke:#181818;stroke-width:0.5;" width="110.0547" x="612" y="340.0137"/><ellipse cx="627" cy="362.3047" fill="#ADD1B2" rx="11" ry="11" style="stroke:#181818;stroke-width:1.0;"/><path d="M629.7656,358.1797 Q629.9219,357.9609 630.1094,357.8516 Q630.2969,357.7422 630.5156,357.7422 Q630.8906,357.7422 631.125,358.0078 Q631.3594,358.2578 631.3594,358.8672 L631.3594,360.3203 Q631.3594,360.9297 631.125,361.1953 Q630.8906,361.4609 630.5156,361.4609 Q630.1719,361.4609 629.9688,361.2578 Q629.7656,361.0703 629.6563,360.5547 Q629.6094,360.1953 629.4219,360.0078 Q629.0938,359.6328 628.4844,359.4141 Q627.875,359.1953 627.25,359.1953 Q626.4844,359.1953 625.8438,359.5234 Q625.2188,359.8516 624.7188,360.6016 Q624.2344,361.3516 624.2344,362.3828 L624.2344,363.4766 Q624.2344,364.7109 625.125,365.5391 Q626.0156,366.3516 627.6094,366.3516 Q628.5469,366.3516 629.2031,366.1016 Q629.5938,365.9453 630.0156,365.5078 Q630.2813,365.2422 630.4219,365.1641 Q630.5781,365.0859 630.7813,365.0859 Q631.1094,365.0859 631.3594,365.3516 Q631.625,365.6016 631.625,365.9453 Q631.625,366.2891 631.2813,366.6953 Q630.7813,367.2734 629.9844,367.6016 Q628.9063,368.0547 627.6094,368.0547 Q626.0938,368.0547 624.8906,367.4297 Q623.9063,366.9297 623.2188,365.8672 Q622.5313,364.7891 622.5313,363.5078 L622.5313,362.3516 Q622.5313,361.0234 623.1406,359.8828 Q623.7656,358.7266 624.8594,358.1172 Q625.9531,357.4922 627.1875,357.4922 Q627.9219,357.4922 628.5625,357.6641 Q629.2188,357.8203 629.7656,358.1797 Z " fill="#000000"/><text fill="#000000" font-family="sans-serif" font-size="12" font-style="italic" lengthAdjust="spacing" textLength="82.0547" x="639" y="357.9629">&#171;Value Object&#187;</text><text fill="#000000" font-family="sans-serif" font-size="14" lengthAdjust="spacing" textLength="48.2549" x="655.8999" y="376.082">Routine</text><line style="stroke:#181818;stroke-width:0.5;" x1="613" x2="721.0547" y1="384.5957" y2="384.5957"/><line style="stroke:#181818;stroke-width:0.5;" x1="613" x2="721.0547" y1="392.5957" y2="392.5957"/></g><!--class Date--><g id="elem_Date"><rect codeLine="48" fill="#F1F1F1" height="60.582" id="Date" rx="2.5" ry="2.5" style="stroke:#181818;stroke-width:0.5;" width="110.0547" x="778" y="503.0137"/><ellipse cx="793" cy="525.3047" fill="#ADD1B2" rx="11" ry="11" style="stroke:#181818;stroke-width:1.0;"/><path d="M795.7656,521.1797 Q795.9219,520.9609 796.1094,520.8516 Q796.2969,520.7422 796.5156,520.7422 Q796.8906,520.7422 797.125,521.0078 Q797.3594,521.2578 797.3594,521.8672 L797.3594,523.3203 Q797.3594,523.9297 797.125,524.1953 Q796.8906,524.4609 796.5156,524.4609 Q796.1719,524.4609 795.9688,524.2578 Q795.7656,524.0703 795.6563,523.5547 Q795.6094,523.1953 795.4219,523.0078 Q795.0938,522.6328 794.4844,522.4141 Q793.875,522.1953 793.25,522.1953 Q792.4844,522.1953 791.8438,522.5234 Q791.2188,522.8516 790.7188,523.6016 Q790.2344,524.3516 790.2344,525.3828 L790.2344,526.4766 Q790.2344,527.7109 791.125,528.5391 Q792.0156,529.3516 793.6094,529.3516 Q794.5469,529.3516 795.2031,529.1016 Q795.5938,528.9453 796.0156,528.5078 Q796.2813,528.2422 796.4219,528.1641 Q796.5781,528.0859 796.7813,528.0859 Q797.1094,528.0859 797.3594,528.3516 Q797.625,528.6016 797.625,528.9453 Q797.625,529.2891 797.2813,529.6953 Q796.7813,530.2734 795.9844,530.6016 Q794.9063,531.0547 793.6094,531.0547 Q792.0938,531.0547 790.8906,530.4297 Q789.9063,529.9297 789.2188,528.8672 Q788.5313,527.7891 788.5313,526.5078 L788.5313,525.3516 Q788.5313,524.0234 789.1406,522.8828 Q789.7656,521.7266 790.8594,521.1172 Q791.9531,520.4922 793.1875,520.4922 Q793.9219,520.4922 794.5625,520.6641 Q795.2188,520.8203 795.7656,521.1797 Z " fill="#000000"/><text fill="#000000" font-family="sans-serif" font-size="12" font-style="italic" lengthAdjust="spacing" textLength="82.0547" x="805" y="520.9629">&#171;Value Object&#187;</text><text fill="#000000" font-family="sans-serif" font-size="14" lengthAdjust="spacing" textLength="29.5723" x="831.2412" y="539.082">Date</text><line style="stroke:#181818;stroke-width:0.5;" x1="779" x2="887.0547" y1="547.5957" y2="547.5957"/><line style="stroke:#181818;stroke-width:0.5;" x1="779" x2="887.0547" y1="555.5957" y2="555.5957"/></g><!--link Drone to Routine--><g id="link_Drone_Routine"><path codeLine="32" d="M408.63,239.1537 C438.57,252.4737 482.39,272.3537 520,291.0137 C551.23,306.5037 580.3576,321.9398 608.0276,336.9698 " fill="none" id="Drone-to-Routine" style="stroke:#181818;stroke-width:1.0;"/><polygon fill="#181818" points="613.3,339.8337,607.3007,332.0229,608.9063,337.4471,603.4822,339.0528,613.3,339.8337" style="stroke:#181818;stroke-width:1.0;"/><text fill="#000000" font-family="sans-serif" font-size="13" lengthAdjust="spacing" textLength="51.2891" x="557" y="306.042">performs</text><text fill="#000000" font-family="sans-serif" font-size="13" lengthAdjust="spacing" textLength="7.23" x="596.8408" y="330.4315">1</text></g><!--link Drone to DroneStatus--><g id="link_Drone_DroneStatus"><path codeLine="33" d="M408.9,248.3037 C425.25,260.3437 444.39,275.5337 460,291.0137 C475.05,305.9337 486.2547,319.6352 497.6147,334.9452 " fill="none" id="Drone-to-DroneStatus" style="stroke:#181818;stroke-width:1.0;"/><polygon fill="#181818" points="501.19,339.7637,499.0394,330.1525,498.2106,335.7483,492.6148,334.9195,501.19,339.7637" style="stroke:#181818;stroke-width:1.0;"/><text fill="#000000" font-family="sans-serif" font-size="13" lengthAdjust="spacing" textLength="34.6836" x="477" y="306.042">status</text><text fill="#000000" font-family="sans-serif" font-size="13" lengthAdjust="spacing" textLength="7.23" x="489.1941" y="328.7698">1</text></g><!--link Drone to Model--><g id="link_Drone_Model"><path codeLine="34" d="M337.31,258.4837 C312,283.2837 282.6752,312.0141 258.6552,335.5541 " fill="none" id="Drone-to-Model" style="stroke:#181818;stroke-width:1.0;"/><polygon fill="#181818" points="254.37,339.7537,263.5976,336.3111,257.941,336.254,257.9981,330.5974,254.37,339.7537" style="stroke:#181818;stroke-width:1.0;"/><text fill="#000000" font-family="sans-serif" font-size="13" lengthAdjust="spacing" textLength="35.4072" x="303" y="306.042">model</text><text fill="#000000" font-family="sans-serif" font-size="13" lengthAdjust="spacing" textLength="7.23" x="252.93" y="328.7577">1</text></g><!--link Drone to SerialNumber--><g id="link_Drone_SerialNumber"><path codeLine="35" d="M373,261.1137 C373,285.6137 373,311.1337 373,333.8637 " fill="none" id="Drone-to-SerialNumber" style="stroke:#181818;stroke-width:1.0;"/><polygon fill="#181818" points="373,339.8637,377,330.8637,373,334.8637,369,330.8637,373,339.8637" style="stroke:#181818;stroke-width:1.0;"/><text fill="#000000" font-family="sans-serif" font-size="13" lengthAdjust="spacing" textLength="77.3018" x="374" y="306.042">serialNumber</text><text fill="#000000" font-family="sans-serif" font-size="13" lengthAdjust="spacing" textLength="7.23" x="365.3445" y="328.8904">1</text></g><!--link Drone to Maintenance--><g id="link_Drone_Maintenance"><path codeLine="36" d="M337.39,237.1837 C304.79,250.0337 255.47,270.3437 214,291.0137 C184.11,305.9137 156.8397,321.4547 131.1497,336.8147 " fill="none" id="Drone-to-Maintenance" style="stroke:#181818;stroke-width:1.0;"/><polygon fill="#181818" points="126,339.8937,135.7773,338.7083,130.2914,337.3278,131.6719,331.842,126,339.8937" style="stroke:#181818;stroke-width:1.0;"/><text fill="#000000" font-family="sans-serif" font-size="13" lengthAdjust="spacing" textLength="61.439" x="215" y="306.042">undergoes</text><text fill="#000000" font-family="sans-serif" font-size="13" lengthAdjust="spacing" textLength="7.23" x="128.1848" y="328.9266">1</text></g><!--reverse link Inventory to Drone--><g id="link_Inventory_Drone"><path codeLine="39" d="M373,135.2037 C373,153.2237 373,164.3937 373,183.7137 " fill="none" id="Inventory-backto-Drone" style="stroke:#181818;stroke-width:1.0;"/><polygon fill="none" points="373,123.2037,369,129.2037,373,135.2037,377,129.2037,373,123.2037" style="stroke:#181818;stroke-width:1.0;"/></g><!--link Maintenance to MaintenanceDescription--><g id="link_Maintenance_MaintenanceDescription"><path codeLine="42" d="M84.42,401.0437 C90.71,430.0037 98.9858,468.0505 105.2858,497.0405 " fill="none" id="Maintenance-to-MaintenanceDescription" style="stroke:#181818;stroke-width:1.0;"/><polygon fill="#181818" points="106.56,502.9037,108.5575,493.2595,105.4982,498.0177,100.74,494.9584,106.56,502.9037" style="stroke:#181818;stroke-width:1.0;"/><text fill="#000000" font-family="sans-serif" font-size="13" lengthAdjust="spacing" textLength="62.8672" x="96" y="446.042">description</text><text fill="#000000" font-family="sans-serif" font-size="13" lengthAdjust="spacing" textLength="7.23" x="97.5138" y="491.9387">1</text></g><!--link Maintenance to MaintenanceType--><g id="link_Maintenance_MaintenanceType"><path codeLine="43" d="M131.14,401.1437 C158.59,417.0737 192.26,437.5937 221,458.0137 C240.51,471.8737 256.6031,484.8805 273.1931,499.0905 " fill="none" id="Maintenance-to-MaintenanceType" style="stroke:#181818;stroke-width:1.0;"/><polygon fill="#181818" points="277.75,502.9937,273.5168,494.101,273.9526,499.741,268.3125,500.1769,277.75,502.9937" style="stroke:#181818;stroke-width:1.0;"/><text fill="#000000" font-family="sans-serif" font-size="13" lengthAdjust="spacing" textLength="24.5718" x="208" y="446.042">type</text><text fill="#000000" font-family="sans-serif" font-size="13" lengthAdjust="spacing" textLength="7.23" x="262.7045" y="491.5639">1</text></g><!--link Maintenance to Date--><g id="link_Maintenance_Date"><path codeLine="52" d="M134.06,396.0237 C139.71,397.9337 145.42,399.6437 151,401.0137 C405.58,463.4237 494.67,360.5637 738,458.0137 C762.91,467.9837 782.2459,482.5498 799.7659,498.6798 " fill="none" id="Maintenance-to-Date" style="stroke:#181818;stroke-width:1.0;"/><polygon fill="#181818" points="804.18,502.7437,800.2681,493.705,800.5016,499.3571,794.8495,499.5905,804.18,502.7437" style="stroke:#181818;stroke-width:1.0;"/><text fill="#000000" font-family="sans-serif" font-size="13" lengthAdjust="spacing" textLength="25.3018" x="710" y="446.042">date</text><text fill="#000000" font-family="sans-serif" font-size="13" lengthAdjust="spacing" textLength="7.23" x="790.5321" y="491.7457">1</text></g><!--SRC=[ZLCzJyGm3DtxAwmkJ1rOerEdCZ00qXMnvreJ0grJvGDHdVZlk1zSSr3TjKDS9y_FBuxToUf3AeIqi8ROm6udbRAefCSyXsEI07zL8vs3U_f4yiRs3BeZhtsVvyVn_3k6JKmBX7-jCNuL-o0rUIH95LucZO05kihgpcj37FCYcu3mT7Z7wcyAfD36WSzzXvSZvbocncOBi4IhPVCOsWFQ3LB6mfHU-k2siEzDy9gkABwPgftby3Nwiyj-Ufl-KWZeqBuQsxeLJAHAW1lj2cgiYO1sC2l7SIMO9VBMk9Od4H2eHgiCkla-IvETxhHicIoRk6Pmt3ud-Ddc_vHH-mYe5sTBxD110Zol2TU_csUdV9CMw_DPANX-hhpSPl435qlbbRF-0000]--></g></svg>