<svg xmlns="http://www.w3.org/2000/svg" xmlns:xlink="http://www.w3.org/1999/xlink" contentStyleType="text/css" height="737px" preserveAspectRatio="none" style="width:933px;height:737px;background:#FFFFFF;" version="1.1" viewBox="0 0 933 737" width="933px" zoomAndPan="magnify"><defs/><g><!--cluster Customer --><g id="cluster_Customer "><path d="M636.5,581.0137 L706.7344,581.0137 A3.75,3.75 0 0 1 709.2344,583.5137 L716.2344,605.6348 L757.5,605.6348 A2.5,2.5 0 0 1 760,608.1348 L760,727.5137 A2.5,2.5 0 0 1 757.5,730.0137 L636.5,730.0137 A2.5,2.5 0 0 1 634,727.5137 L634,583.5137 A2.5,2.5 0 0 1 636.5,581.0137 " fill="none" style="stroke:#000000;stroke-width:1.5;"/><line style="stroke:#000000;stroke-width:1.5;" x1="634" x2="716.2344" y1="605.6348" y2="605.6348"/><text fill="#000000" font-family="sans-serif" font-size="14" font-weight="bold" lengthAdjust="spacing" textLength="65.3447" x="638" y="598.1211">Customer</text><text fill="#000000" font-family="sans-serif" font-size="14" font-style="italic" lengthAdjust="spacing" textLength="78.627" x="661.6865" y="622.7422">&#171;aggregate&#187;</text></g><!--cluster Drone --><g id="cluster_Drone "><path d="M636.5,381.0137 L681.8379,381.0137 A3.75,3.75 0 0 1 684.3379,383.5137 L691.3379,405.6348 L735.5,405.6348 A2.5,2.5 0 0 1 738,408.1348 L738,527.5137 A2.5,2.5 0 0 1 735.5,530.0137 L636.5,530.0137 A2.5,2.5 0 0 1 634,527.5137 L634,383.5137 A2.5,2.5 0 0 1 636.5,381.0137 " fill="none" style="stroke:#000000;stroke-width:1.5;"/><line style="stroke:#000000;stroke-width:1.5;" x1="634" x2="691.3379" y1="405.6348" y2="405.6348"/><text fill="#000000" font-family="sans-serif" font-size="14" font-weight="bold" lengthAdjust="spacing" textLength="40.4482" x="638" y="398.1211">Drone</text><text fill="#000000" font-family="sans-serif" font-size="14" font-style="italic" lengthAdjust="spacing" textLength="78.627" x="650.6865" y="422.7422">&#171;aggregate&#187;</text></g><!--cluster Figure --><g id="cluster_Figure "><path d="M8.5,6.0137 L56.1689,6.0137 A3.75,3.75 0 0 1 58.6689,8.5137 L65.6689,30.6348 L607.5,30.6348 A2.5,2.5 0 0 1 610,33.1348 L610,719.5137 A2.5,2.5 0 0 1 607.5,722.0137 L8.5,722.0137 A2.5,2.5 0 0 1 6,719.5137 L6,8.5137 A2.5,2.5 0 0 1 8.5,6.0137 " fill="none" style="stroke:#000000;stroke-width:1.5;"/><line style="stroke:#000000;stroke-width:1.5;" x1="6" x2="65.6689" y1="30.6348" y2="30.6348"/><text fill="#000000" font-family="sans-serif" font-size="14" font-weight="bold" lengthAdjust="spacing" textLength="42.7793" x="10" y="23.1211">Figure</text><text fill="#000000" font-family="sans-serif" font-size="14" font-style="italic" lengthAdjust="spacing" textLength="78.627" x="272.6865" y="47.7422">&#171;aggregate&#187;</text></g><!--cluster Shared--><g id="cluster_Shared"><path d="M786.5,608.0137 L834.9619,608.0137 A3.75,3.75 0 0 1 837.4619,610.5137 L844.4619,632.6348 L923.5,632.6348 A2.5,2.5 0 0 1 926,635.1348 L926,719.5137 A2.5,2.5 0 0 1 923.5,722.0137 L786.5,722.0137 A2.5,2.5 0 0 1 784,719.5137 L784,610.5137 A2.5,2.5 0 0 1 786.5,608.0137 " fill="none" style="stroke:#000000;stroke-width:1.5;"/><line style="stroke:#000000;stroke-width:1.5;" x1="784" x2="844.4619" y1="632.6348" y2="632.6348"/><text fill="#000000" font-family="sans-serif" font-size="14" font-weight="bold" lengthAdjust="spacing" textLength="47.4619" x="788" y="625.1211">Shared</text></g><!--class Customer--><g id="elem_Customer"><rect codeLine="3" fill="#F1F1F1" height="76.543" id="Customer" rx="2.5" ry="2.5" style="stroke:#181818;stroke-width:0.5;" width="92.6826" x="650.5" y="637.0137"/><ellipse cx="665.5" cy="667.2852" fill="#ADD1B2" rx="11" ry="11" style="stroke:#181818;stroke-width:1.0;"/><path d="M668.2656,663.1602 Q668.4219,662.9414 668.6094,662.832 Q668.7969,662.7227 669.0156,662.7227 Q669.3906,662.7227 669.625,662.9883 Q669.8594,663.2383 669.8594,663.8477 L669.8594,665.3008 Q669.8594,665.9102 669.625,666.1758 Q669.3906,666.4414 669.0156,666.4414 Q668.6719,666.4414 668.4688,666.2383 Q668.2656,666.0508 668.1563,665.5352 Q668.1094,665.1758 667.9219,664.9883 Q667.5938,664.6133 666.9844,664.3945 Q666.375,664.1758 665.75,664.1758 Q664.9844,664.1758 664.3438,664.5039 Q663.7188,664.832 663.2188,665.582 Q662.7344,666.332 662.7344,667.3633 L662.7344,668.457 Q662.7344,669.6914 663.625,670.5195 Q664.5156,671.332 666.1094,671.332 Q667.0469,671.332 667.7031,671.082 Q668.0938,670.9258 668.5156,670.4883 Q668.7813,670.2227 668.9219,670.1445 Q669.0781,670.0664 669.2813,670.0664 Q669.6094,670.0664 669.8594,670.332 Q670.125,670.582 670.125,670.9258 Q670.125,671.2695 669.7813,671.6758 Q669.2813,672.2539 668.4844,672.582 Q667.4063,673.0352 666.1094,673.0352 Q664.5938,673.0352 663.3906,672.4102 Q662.4063,671.9102 661.7188,670.8477 Q661.0313,669.7695 661.0313,668.4883 L661.0313,667.332 Q661.0313,666.0039 661.6406,664.8633 Q662.2656,663.707 663.3594,663.0977 Q664.4531,662.4727 665.6875,662.4727 Q666.4219,662.4727 667.0625,662.6445 Q667.7188,662.8008 668.2656,663.1602 Z " fill="#000000"/><text fill="#000000" font-family="sans-serif" font-size="12" font-style="italic" lengthAdjust="spacing" textLength="43.3594" x="688.1616" y="654.9629">&#171;Entity&#187;</text><text fill="#000000" font-family="sans-serif" font-size="12" font-style="italic" lengthAdjust="spacing" textLength="34.0254" x="692.8286" y="670.9238">&#171;root&#187;</text><text fill="#000000" font-family="sans-serif" font-size="14" lengthAdjust="spacing" textLength="60.6826" x="679.5" y="689.043">Customer</text><line style="stroke:#181818;stroke-width:0.5;" x1="651.5" x2="742.1826" y1="697.5566" y2="697.5566"/><line style="stroke:#181818;stroke-width:0.5;" x1="651.5" x2="742.1826" y1="705.5566" y2="705.5566"/></g><!--class Drone--><g id="elem_Drone"><rect codeLine="10" fill="#F1F1F1" height="76.543" id="Drone" rx="2.5" ry="2.5" style="stroke:#181818;stroke-width:0.5;" width="71.3594" x="650.5" y="437.0137"/><ellipse cx="665.5" cy="467.2852" fill="#ADD1B2" rx="11" ry="11" style="stroke:#181818;stroke-width:1.0;"/><path d="M668.2656,463.1602 Q668.4219,462.9414 668.6094,462.832 Q668.7969,462.7227 669.0156,462.7227 Q669.3906,462.7227 669.625,462.9883 Q669.8594,463.2383 669.8594,463.8477 L669.8594,465.3008 Q669.8594,465.9102 669.625,466.1758 Q669.3906,466.4414 669.0156,466.4414 Q668.6719,466.4414 668.4688,466.2383 Q668.2656,466.0508 668.1563,465.5352 Q668.1094,465.1758 667.9219,464.9883 Q667.5938,464.6133 666.9844,464.3945 Q666.375,464.1758 665.75,464.1758 Q664.9844,464.1758 664.3438,464.5039 Q663.7188,464.832 663.2188,465.582 Q662.7344,466.332 662.7344,467.3633 L662.7344,468.457 Q662.7344,469.6914 663.625,470.5195 Q664.5156,471.332 666.1094,471.332 Q667.0469,471.332 667.7031,471.082 Q668.0938,470.9258 668.5156,470.4883 Q668.7813,470.2227 668.9219,470.1445 Q669.0781,470.0664 669.2813,470.0664 Q669.6094,470.0664 669.8594,470.332 Q670.125,470.582 670.125,470.9258 Q670.125,471.2695 669.7813,471.6758 Q669.2813,472.2539 668.4844,472.582 Q667.4063,473.0352 666.1094,473.0352 Q664.5938,473.0352 663.3906,472.4102 Q662.4063,471.9102 661.7188,470.8477 Q661.0313,469.7695 661.0313,468.4883 L661.0313,467.332 Q661.0313,466.0039 661.6406,464.8633 Q662.2656,463.707 663.3594,463.0977 Q664.4531,462.4727 665.6875,462.4727 Q666.4219,462.4727 667.0625,462.6445 Q667.7188,462.8008 668.2656,463.1602 Z " fill="#000000"/><text fill="#000000" font-family="sans-serif" font-size="12" font-style="italic" lengthAdjust="spacing" textLength="43.3594" x="677.5" y="454.9629">&#171;Entity&#187;</text><text fill="#000000" font-family="sans-serif" font-size="12" font-style="italic" lengthAdjust="spacing" textLength="34.0254" x="682.167" y="470.9238">&#171;root&#187;</text><text fill="#000000" font-family="sans-serif" font-size="14" lengthAdjust="spacing" textLength="38.1309" x="680.1143" y="489.043">Drone</text><line style="stroke:#181818;stroke-width:0.5;" x1="651.5" x2="720.8594" y1="497.5566" y2="497.5566"/><line style="stroke:#181818;stroke-width:0.5;" x1="651.5" x2="720.8594" y1="505.5566" y2="505.5566"/></g><!--class Figure--><g id="elem_Figure"><rect codeLine="17" fill="#F1F1F1" height="132.4063" id="Figure" rx="2.5" ry="2.5" style="stroke:#181818;stroke-width:0.5;" width="141.9443" x="326" y="184.0137"/><ellipse cx="372.8809" cy="214.2852" fill="#ADD1B2" rx="11" ry="11" style="stroke:#181818;stroke-width:1.0;"/><path d="M375.6465,210.1602 Q375.8027,209.9414 375.9902,209.832 Q376.1777,209.7227 376.3965,209.7227 Q376.7715,209.7227 377.0059,209.9883 Q377.2402,210.2383 377.2402,210.8477 L377.2402,212.3008 Q377.2402,212.9102 377.0059,213.1758 Q376.7715,213.4414 376.3965,213.4414 Q376.0527,213.4414 375.8496,213.2383 Q375.6465,213.0508 375.5371,212.5352 Q375.4902,212.1758 375.3027,211.9883 Q374.9746,211.6133 374.3652,211.3945 Q373.7559,211.1758 373.1309,211.1758 Q372.3652,211.1758 371.7246,211.5039 Q371.0996,211.832 370.5996,212.582 Q370.1152,213.332 370.1152,214.3633 L370.1152,215.457 Q370.1152,216.6914 371.0059,217.5195 Q371.8965,218.332 373.4902,218.332 Q374.4277,218.332 375.084,218.082 Q375.4746,217.9258 375.8965,217.4883 Q376.1621,217.2227 376.3027,217.1445 Q376.459,217.0664 376.6621,217.0664 Q376.9902,217.0664 377.2402,217.332 Q377.5059,217.582 377.5059,217.9258 Q377.5059,218.2695 377.1621,218.6758 Q376.6621,219.2539 375.8652,219.582 Q374.7871,220.0352 373.4902,220.0352 Q371.9746,220.0352 370.7715,219.4102 Q369.7871,218.9102 369.0996,217.8477 Q368.4121,216.7695 368.4121,215.4883 L368.4121,214.332 Q368.4121,213.0039 369.0215,211.8633 Q369.6465,210.707 370.7402,210.0977 Q371.834,209.4727 373.0684,209.4727 Q373.8027,209.4727 374.4434,209.6445 Q375.0996,209.8008 375.6465,210.1602 Z " fill="#000000"/><text fill="#000000" font-family="sans-serif" font-size="12" font-style="italic" lengthAdjust="spacing" textLength="43.3594" x="391.5425" y="201.9629">&#171;Entity&#187;</text><text fill="#000000" font-family="sans-serif" font-size="12" font-style="italic" lengthAdjust="spacing" textLength="34.0254" x="396.2095" y="217.9238">&#171;root&#187;</text><text fill="#000000" font-family="sans-serif" font-size="14" lengthAdjust="spacing" textLength="39.6826" x="393.3809" y="236.043">Figure</text><line style="stroke:#181818;stroke-width:0.5;" x1="327" x2="466.9443" y1="244.5566" y2="244.5566"/><ellipse cx="337" cy="259.3672" fill="none" rx="3" ry="3" style="stroke:#038048;stroke-width:1.0;"/><text fill="#000000" font-family="sans-serif" font-size="14" lengthAdjust="spacing" textLength="81.7236" x="346" y="263.6641">code: Integer</text><ellipse cx="337" cy="277.9883" fill="none" rx="3" ry="3" style="stroke:#038048;stroke-width:1.0;"/><text fill="#000000" font-family="sans-serif" font-size="14" lengthAdjust="spacing" textLength="97.2754" x="346" y="282.2852">version: Double</text><ellipse cx="337" cy="296.6094" fill="none" rx="3" ry="3" style="stroke:#038048;stroke-width:1.0;"/><text fill="#000000" font-family="sans-serif" font-size="14" lengthAdjust="spacing" textLength="115.9443" x="346" y="300.9063">description : String</text><line style="stroke:#181818;stroke-width:0.5;" x1="327" x2="466.9443" y1="308.4199" y2="308.4199"/></g><!--class DSLDescription--><g id="elem_DSLDescription"><rect codeLine="23" fill="#F1F1F1" height="60.582" id="DSLDescription" rx="2.5" ry="2.5" style="stroke:#181818;stroke-width:0.5;" width="129.2617" x="22.5" y="445.0137"/><ellipse cx="37.5" cy="467.3047" fill="#ADD1B2" rx="11" ry="11" style="stroke:#181818;stroke-width:1.0;"/><path d="M40.2656,463.1797 Q40.4219,462.9609 40.6094,462.8516 Q40.7969,462.7422 41.0156,462.7422 Q41.3906,462.7422 41.625,463.0078 Q41.8594,463.2578 41.8594,463.8672 L41.8594,465.3203 Q41.8594,465.9297 41.625,466.1953 Q41.3906,466.4609 41.0156,466.4609 Q40.6719,466.4609 40.4688,466.2578 Q40.2656,466.0703 40.1563,465.5547 Q40.1094,465.1953 39.9219,465.0078 Q39.5938,464.6328 38.9844,464.4141 Q38.375,464.1953 37.75,464.1953 Q36.9844,464.1953 36.3438,464.5234 Q35.7188,464.8516 35.2188,465.6016 Q34.7344,466.3516 34.7344,467.3828 L34.7344,468.4766 Q34.7344,469.7109 35.625,470.5391 Q36.5156,471.3516 38.1094,471.3516 Q39.0469,471.3516 39.7031,471.1016 Q40.0938,470.9453 40.5156,470.5078 Q40.7813,470.2422 40.9219,470.1641 Q41.0781,470.0859 41.2813,470.0859 Q41.6094,470.0859 41.8594,470.3516 Q42.125,470.6016 42.125,470.9453 Q42.125,471.2891 41.7813,471.6953 Q41.2813,472.2734 40.4844,472.6016 Q39.4063,473.0547 38.1094,473.0547 Q36.5938,473.0547 35.3906,472.4297 Q34.4063,471.9297 33.7188,470.8672 Q33.0313,469.7891 33.0313,468.5078 L33.0313,467.3516 Q33.0313,466.0234 33.6406,464.8828 Q34.2656,463.7266 35.3594,463.1172 Q36.4531,462.4922 37.6875,462.4922 Q38.4219,462.4922 39.0625,462.6641 Q39.7188,462.8203 40.2656,463.1797 Z " fill="#000000"/><text fill="#000000" font-family="sans-serif" font-size="12" font-style="italic" lengthAdjust="spacing" textLength="82.0547" x="59.1035" y="462.9629">&#171;Value Object&#187;</text><text fill="#000000" font-family="sans-serif" font-size="14" lengthAdjust="spacing" textLength="97.2617" x="51.5" y="481.082">DSLDescription</text><line style="stroke:#181818;stroke-width:0.5;" x1="23.5" x2="150.7617" y1="489.5957" y2="489.5957"/><line style="stroke:#181818;stroke-width:0.5;" x1="23.5" x2="150.7617" y1="497.5957" y2="497.5957"/></g><!--class Category--><g id="elem_Category"><rect codeLine="26" fill="#F1F1F1" height="60.582" id="Category" rx="2.5" ry="2.5" style="stroke:#181818;stroke-width:0.5;" width="110.0547" x="187" y="445.0137"/><ellipse cx="202" cy="467.3047" fill="#EB937F" rx="11" ry="11" style="stroke:#181818;stroke-width:1.0;"/><path d="M200.8594,468.1016 L200.8594,470.6016 L205.1875,470.6016 L205.1875,469.6797 Q205.1875,469.0703 205.4219,468.8047 Q205.6719,468.5391 206.0469,468.5391 Q206.4219,468.5391 206.6563,468.8047 Q206.8906,469.0703 206.8906,469.6797 L206.8906,472.3047 L198.8906,472.3047 Q198.2656,472.3047 198,472.0703 Q197.75,471.8359 197.75,471.4453 Q197.75,471.0703 198.0156,470.8359 Q198.2813,470.6016 198.8906,470.6016 L199.1563,470.6016 L199.1563,463.9453 L198.8906,463.9453 Q198.2656,463.9453 198,463.7109 Q197.75,463.4766 197.75,463.0859 Q197.75,462.7109 198,462.4766 Q198.2656,462.2422 198.8906,462.2422 L206.5156,462.2422 L206.5156,464.8359 Q206.5156,465.4453 206.2813,465.7109 Q206.0625,465.9609 205.6719,465.9609 Q205.2969,465.9609 205.0625,465.7109 Q204.8281,465.4453 204.8281,464.8359 L204.8281,463.9453 L200.8594,463.9453 L200.8594,466.3984 L202.3438,466.3984 Q202.3438,465.7422 202.4688,465.5547 Q202.7344,465.1484 203.2031,465.1484 Q203.5781,465.1484 203.8125,465.4141 Q204.0469,465.6641 204.0469,466.2734 L204.0469,468.2422 Q204.0469,468.7891 203.9219,468.9766 Q203.6563,469.3672 203.2031,469.3672 Q202.7344,469.3672 202.4688,468.9609 Q202.3438,468.7734 202.3438,468.1016 L200.8594,468.1016 Z " fill="#000000"/><text fill="#000000" font-family="sans-serif" font-size="12" font-style="italic" lengthAdjust="spacing" textLength="82.0547" x="214" y="462.9629">&#171;Value Object&#187;</text><text fill="#000000" font-family="sans-serif" font-size="14" lengthAdjust="spacing" textLength="56.8066" x="226.624" y="481.082">Category</text><line style="stroke:#181818;stroke-width:0.5;" x1="188" x2="296.0547" y1="489.5957" y2="489.5957"/><line style="stroke:#181818;stroke-width:0.5;" x1="188" x2="296.0547" y1="497.5957" y2="497.5957"/></g><!--class SetOfKeywords--><g id="elem_SetOfKeywords"><rect codeLine="29" fill="#F1F1F1" height="60.582" id="SetOfKeywords" rx="2.5" ry="2.5" style="stroke:#181818;stroke-width:0.5;" width="129.2617" x="332.5" y="445.0137"/><ellipse cx="347.5" cy="467.3047" fill="#ADD1B2" rx="11" ry="11" style="stroke:#181818;stroke-width:1.0;"/><path d="M350.2656,463.1797 Q350.4219,462.9609 350.6094,462.8516 Q350.7969,462.7422 351.0156,462.7422 Q351.3906,462.7422 351.625,463.0078 Q351.8594,463.2578 351.8594,463.8672 L351.8594,465.3203 Q351.8594,465.9297 351.625,466.1953 Q351.3906,466.4609 351.0156,466.4609 Q350.6719,466.4609 350.4688,466.2578 Q350.2656,466.0703 350.1563,465.5547 Q350.1094,465.1953 349.9219,465.0078 Q349.5938,464.6328 348.9844,464.4141 Q348.375,464.1953 347.75,464.1953 Q346.9844,464.1953 346.3438,464.5234 Q345.7188,464.8516 345.2188,465.6016 Q344.7344,466.3516 344.7344,467.3828 L344.7344,468.4766 Q344.7344,469.7109 345.625,470.5391 Q346.5156,471.3516 348.1094,471.3516 Q349.0469,471.3516 349.7031,471.1016 Q350.0938,470.9453 350.5156,470.5078 Q350.7813,470.2422 350.9219,470.1641 Q351.0781,470.0859 351.2813,470.0859 Q351.6094,470.0859 351.8594,470.3516 Q352.125,470.6016 352.125,470.9453 Q352.125,471.2891 351.7813,471.6953 Q351.2813,472.2734 350.4844,472.6016 Q349.4063,473.0547 348.1094,473.0547 Q346.5938,473.0547 345.3906,472.4297 Q344.4063,471.9297 343.7188,470.8672 Q343.0313,469.7891 343.0313,468.5078 L343.0313,467.3516 Q343.0313,466.0234 343.6406,464.8828 Q344.2656,463.7266 345.3594,463.1172 Q346.4531,462.4922 347.6875,462.4922 Q348.4219,462.4922 349.0625,462.6641 Q349.7188,462.8203 350.2656,463.1797 Z " fill="#000000"/><text fill="#000000" font-family="sans-serif" font-size="12" font-style="italic" lengthAdjust="spacing" textLength="82.0547" x="369.1035" y="462.9629">&#171;Value Object&#187;</text><text fill="#000000" font-family="sans-serif" font-size="14" lengthAdjust="spacing" textLength="97.2617" x="361.5" y="481.082">SetOfKeywords</text><line style="stroke:#181818;stroke-width:0.5;" x1="333.5" x2="460.7617" y1="489.5957" y2="489.5957"/><line style="stroke:#181818;stroke-width:0.5;" x1="333.5" x2="460.7617" y1="497.5957" y2="497.5957"/></g><!--class Exclusivity--><g id="elem_Exclusivity"><rect codeLine="32" fill="#F1F1F1" height="60.582" id="Exclusivity" rx="2.5" ry="2.5" style="stroke:#181818;stroke-width:0.5;" width="97.3447" x="496.5" y="445.0137"/><ellipse cx="511.5" cy="467.3047" fill="#ADD1B2" rx="11" ry="11" style="stroke:#181818;stroke-width:1.0;"/><path d="M514.2656,463.1797 Q514.4219,462.9609 514.6094,462.8516 Q514.7969,462.7422 515.0156,462.7422 Q515.3906,462.7422 515.625,463.0078 Q515.8594,463.2578 515.8594,463.8672 L515.8594,465.3203 Q515.8594,465.9297 515.625,466.1953 Q515.3906,466.4609 515.0156,466.4609 Q514.6719,466.4609 514.4688,466.2578 Q514.2656,466.0703 514.1563,465.5547 Q514.1094,465.1953 513.9219,465.0078 Q513.5938,464.6328 512.9844,464.4141 Q512.375,464.1953 511.75,464.1953 Q510.9844,464.1953 510.3438,464.5234 Q509.7188,464.8516 509.2188,465.6016 Q508.7344,466.3516 508.7344,467.3828 L508.7344,468.4766 Q508.7344,469.7109 509.625,470.5391 Q510.5156,471.3516 512.1094,471.3516 Q513.0469,471.3516 513.7031,471.1016 Q514.0938,470.9453 514.5156,470.5078 Q514.7813,470.2422 514.9219,470.1641 Q515.0781,470.0859 515.2813,470.0859 Q515.6094,470.0859 515.8594,470.3516 Q516.125,470.6016 516.125,470.9453 Q516.125,471.2891 515.7813,471.6953 Q515.2813,472.2734 514.4844,472.6016 Q513.4063,473.0547 512.1094,473.0547 Q510.5938,473.0547 509.3906,472.4297 Q508.4063,471.9297 507.7188,470.8672 Q507.0313,469.7891 507.0313,468.5078 L507.0313,467.3516 Q507.0313,466.0234 507.6406,464.8828 Q508.2656,463.7266 509.3594,463.1172 Q510.4531,462.4922 511.6875,462.4922 Q512.4219,462.4922 513.0625,462.6641 Q513.7188,462.8203 514.2656,463.1797 Z " fill="#000000"/><text fill="#000000" font-family="sans-serif" font-size="12" font-style="italic" lengthAdjust="spacing" textLength="43.3594" x="536.4927" y="462.9629">&#171;Entity&#187;</text><text fill="#000000" font-family="sans-serif" font-size="14" lengthAdjust="spacing" textLength="65.3447" x="525.5" y="481.082">Exclusivity</text><line style="stroke:#181818;stroke-width:0.5;" x1="497.5" x2="592.8447" y1="489.5957" y2="489.5957"/><line style="stroke:#181818;stroke-width:0.5;" x1="497.5" x2="592.8447" y1="497.5957" y2="497.5957"/></g><!--class Catalogue--><g id="elem_Catalogue"><rect codeLine="35" fill="#F1F1F1" height="60.582" id="Catalogue" rx="2.5" ry="2.5" style="stroke:#181818;stroke-width:0.5;" width="95.8271" x="349" y="62.0137"/><ellipse cx="364" cy="84.3047" fill="#ADD1B2" rx="11" ry="11" style="stroke:#181818;stroke-width:1.0;"/><path d="M366.7656,80.1797 Q366.9219,79.9609 367.1094,79.8516 Q367.2969,79.7422 367.5156,79.7422 Q367.8906,79.7422 368.125,80.0078 Q368.3594,80.2578 368.3594,80.8672 L368.3594,82.3203 Q368.3594,82.9297 368.125,83.1953 Q367.8906,83.4609 367.5156,83.4609 Q367.1719,83.4609 366.9688,83.2578 Q366.7656,83.0703 366.6563,82.5547 Q366.6094,82.1953 366.4219,82.0078 Q366.0938,81.6328 365.4844,81.4141 Q364.875,81.1953 364.25,81.1953 Q363.4844,81.1953 362.8438,81.5234 Q362.2188,81.8516 361.7188,82.6016 Q361.2344,83.3516 361.2344,84.3828 L361.2344,85.4766 Q361.2344,86.7109 362.125,87.5391 Q363.0156,88.3516 364.6094,88.3516 Q365.5469,88.3516 366.2031,88.1016 Q366.5938,87.9453 367.0156,87.5078 Q367.2813,87.2422 367.4219,87.1641 Q367.5781,87.0859 367.7813,87.0859 Q368.1094,87.0859 368.3594,87.3516 Q368.625,87.6016 368.625,87.9453 Q368.625,88.2891 368.2813,88.6953 Q367.7813,89.2734 366.9844,89.6016 Q365.9063,90.0547 364.6094,90.0547 Q363.0938,90.0547 361.8906,89.4297 Q360.9063,88.9297 360.2188,87.8672 Q359.5313,86.7891 359.5313,85.5078 L359.5313,84.3516 Q359.5313,83.0234 360.1406,81.8828 Q360.7656,80.7266 361.8594,80.1172 Q362.9531,79.4922 364.1875,79.4922 Q364.9219,79.4922 365.5625,79.6641 Q366.2188,79.8203 366.7656,80.1797 Z " fill="#000000"/><text fill="#000000" font-family="sans-serif" font-size="12" font-style="italic" lengthAdjust="spacing" textLength="43.3594" x="388.2339" y="79.9629">&#171;Entity&#187;</text><text fill="#000000" font-family="sans-serif" font-size="14" lengthAdjust="spacing" textLength="63.8271" x="378" y="98.082">Catalogue</text><line style="stroke:#181818;stroke-width:0.5;" x1="350" x2="443.8271" y1="106.5957" y2="106.5957"/><line style="stroke:#181818;stroke-width:0.5;" x1="350" x2="443.8271" y1="114.5957" y2="114.5957"/></g><!--class DSLValidate--><g id="elem_DSLValidate"><rect codeLine="38" fill="#F1F1F1" height="60.582" id="DSLValidate" rx="2.5" ry="2.5" style="stroke:#181818;stroke-width:0.5;" width="109.8271" x="32" y="645.0137"/><ellipse cx="47" cy="667.3047" fill="#ADD1B2" rx="11" ry="11" style="stroke:#181818;stroke-width:1.0;"/><path d="M49.7656,663.1797 Q49.9219,662.9609 50.1094,662.8516 Q50.2969,662.7422 50.5156,662.7422 Q50.8906,662.7422 51.125,663.0078 Q51.3594,663.2578 51.3594,663.8672 L51.3594,665.3203 Q51.3594,665.9297 51.125,666.1953 Q50.8906,666.4609 50.5156,666.4609 Q50.1719,666.4609 49.9688,666.2578 Q49.7656,666.0703 49.6563,665.5547 Q49.6094,665.1953 49.4219,665.0078 Q49.0938,664.6328 48.4844,664.4141 Q47.875,664.1953 47.25,664.1953 Q46.4844,664.1953 45.8438,664.5234 Q45.2188,664.8516 44.7188,665.6016 Q44.2344,666.3516 44.2344,667.3828 L44.2344,668.4766 Q44.2344,669.7109 45.125,670.5391 Q46.0156,671.3516 47.6094,671.3516 Q48.5469,671.3516 49.2031,671.1016 Q49.5938,670.9453 50.0156,670.5078 Q50.2813,670.2422 50.4219,670.1641 Q50.5781,670.0859 50.7813,670.0859 Q51.1094,670.0859 51.3594,670.3516 Q51.625,670.6016 51.625,670.9453 Q51.625,671.2891 51.2813,671.6953 Q50.7813,672.2734 49.9844,672.6016 Q48.9063,673.0547 47.6094,673.0547 Q46.0938,673.0547 44.8906,672.4297 Q43.9063,671.9297 43.2188,670.8672 Q42.5313,669.7891 42.5313,668.5078 L42.5313,667.3516 Q42.5313,666.0234 43.1406,664.8828 Q43.7656,663.7266 44.8594,663.1172 Q45.9531,662.4922 47.1875,662.4922 Q47.9219,662.4922 48.5625,662.6641 Q49.2188,662.8203 49.7656,663.1797 Z " fill="#000000"/><text fill="#000000" font-family="sans-serif" font-size="12" font-style="italic" lengthAdjust="spacing" textLength="53.3613" x="73.2329" y="662.9629">&#171;Service&#187;</text><text fill="#000000" font-family="sans-serif" font-size="14" lengthAdjust="spacing" textLength="77.8271" x="61" y="681.082">DSLValidate</text><line style="stroke:#181818;stroke-width:0.5;" x1="33" x2="140.8271" y1="689.5957" y2="689.5957"/><line style="stroke:#181818;stroke-width:0.5;" x1="33" x2="140.8271" y1="697.5957" y2="697.5957"/></g><!--class Time--><g id="elem_Time"><rect codeLine="41" fill="#F1F1F1" height="60.582" id="Time" rx="2.5" ry="2.5" style="stroke:#181818;stroke-width:0.5;" width="110.0547" x="484" y="645.0137"/><ellipse cx="499" cy="667.3047" fill="#ADD1B2" rx="11" ry="11" style="stroke:#181818;stroke-width:1.0;"/><path d="M501.7656,663.1797 Q501.9219,662.9609 502.1094,662.8516 Q502.2969,662.7422 502.5156,662.7422 Q502.8906,662.7422 503.125,663.0078 Q503.3594,663.2578 503.3594,663.8672 L503.3594,665.3203 Q503.3594,665.9297 503.125,666.1953 Q502.8906,666.4609 502.5156,666.4609 Q502.1719,666.4609 501.9688,666.2578 Q501.7656,666.0703 501.6563,665.5547 Q501.6094,665.1953 501.4219,665.0078 Q501.0938,664.6328 500.4844,664.4141 Q499.875,664.1953 499.25,664.1953 Q498.4844,664.1953 497.8438,664.5234 Q497.2188,664.8516 496.7188,665.6016 Q496.2344,666.3516 496.2344,667.3828 L496.2344,668.4766 Q496.2344,669.7109 497.125,670.5391 Q498.0156,671.3516 499.6094,671.3516 Q500.5469,671.3516 501.2031,671.1016 Q501.5938,670.9453 502.0156,670.5078 Q502.2813,670.2422 502.4219,670.1641 Q502.5781,670.0859 502.7813,670.0859 Q503.1094,670.0859 503.3594,670.3516 Q503.625,670.6016 503.625,670.9453 Q503.625,671.2891 503.2813,671.6953 Q502.7813,672.2734 501.9844,672.6016 Q500.9063,673.0547 499.6094,673.0547 Q498.0938,673.0547 496.8906,672.4297 Q495.9063,671.9297 495.2188,670.8672 Q494.5313,669.7891 494.5313,668.5078 L494.5313,667.3516 Q494.5313,666.0234 495.1406,664.8828 Q495.7656,663.7266 496.8594,663.1172 Q497.9531,662.4922 499.1875,662.4922 Q499.9219,662.4922 500.5625,662.6641 Q501.2188,662.8203 501.7656,663.1797 Z " fill="#000000"/><text fill="#000000" font-family="sans-serif" font-size="12" font-style="italic" lengthAdjust="spacing" textLength="82.0547" x="511" y="662.9629">&#171;Value Object&#187;</text><text fill="#000000" font-family="sans-serif" font-size="14" lengthAdjust="spacing" textLength="31.1104" x="536.4722" y="681.082">Time</text><line style="stroke:#181818;stroke-width:0.5;" x1="485" x2="593.0547" y1="689.5957" y2="689.5957"/><line style="stroke:#181818;stroke-width:0.5;" x1="485" x2="593.0547" y1="697.5957" y2="697.5957"/></g><!--class Time--><g id="elem_Time"><rect codeLine="65" fill="#F1F1F1" height="60.582" id="Time" rx="2.5" ry="2.5" style="stroke:#181818;stroke-width:0.5;" width="110.0547" x="800" y="645.0137"/><ellipse cx="815" cy="667.3047" fill="#ADD1B2" rx="11" ry="11" style="stroke:#181818;stroke-width:1.0;"/><path d="M817.7656,663.1797 Q817.9219,662.9609 818.1094,662.8516 Q818.2969,662.7422 818.5156,662.7422 Q818.8906,662.7422 819.125,663.0078 Q819.3594,663.2578 819.3594,663.8672 L819.3594,665.3203 Q819.3594,665.9297 819.125,666.1953 Q818.8906,666.4609 818.5156,666.4609 Q818.1719,666.4609 817.9688,666.2578 Q817.7656,666.0703 817.6563,665.5547 Q817.6094,665.1953 817.4219,665.0078 Q817.0938,664.6328 816.4844,664.4141 Q815.875,664.1953 815.25,664.1953 Q814.4844,664.1953 813.8438,664.5234 Q813.2188,664.8516 812.7188,665.6016 Q812.2344,666.3516 812.2344,667.3828 L812.2344,668.4766 Q812.2344,669.7109 813.125,670.5391 Q814.0156,671.3516 815.6094,671.3516 Q816.5469,671.3516 817.2031,671.1016 Q817.5938,670.9453 818.0156,670.5078 Q818.2813,670.2422 818.4219,670.1641 Q818.5781,670.0859 818.7813,670.0859 Q819.1094,670.0859 819.3594,670.3516 Q819.625,670.6016 819.625,670.9453 Q819.625,671.2891 819.2813,671.6953 Q818.7813,672.2734 817.9844,672.6016 Q816.9063,673.0547 815.6094,673.0547 Q814.0938,673.0547 812.8906,672.4297 Q811.9063,671.9297 811.2188,670.8672 Q810.5313,669.7891 810.5313,668.5078 L810.5313,667.3516 Q810.5313,666.0234 811.1406,664.8828 Q811.7656,663.7266 812.8594,663.1172 Q813.9531,662.4922 815.1875,662.4922 Q815.9219,662.4922 816.5625,662.6641 Q817.2188,662.8203 817.7656,663.1797 Z " fill="#000000"/><text fill="#000000" font-family="sans-serif" font-size="12" font-style="italic" lengthAdjust="spacing" textLength="82.0547" x="827" y="662.9629">&#171;Value Object&#187;</text><text fill="#000000" font-family="sans-serif" font-size="14" lengthAdjust="spacing" textLength="31.1104" x="852.4722" y="681.082">Time</text><line style="stroke:#181818;stroke-width:0.5;" x1="801" x2="909.0547" y1="689.5957" y2="689.5957"/><line style="stroke:#181818;stroke-width:0.5;" x1="801" x2="909.0547" y1="697.5957" y2="697.5957"/></g><!--link Figure to Drone--><g id="link_Figure_Drone"><path codeLine="46" d="M468.35,282.6837 C512.13,304.2437 567.7,335.6037 610,373.0137 C630.78,391.3937 646.1846,411.2695 659.8546,431.7995 " fill="none" id="Figure-to-Drone" style="stroke:#181818;stroke-width:1.0;"/><polygon fill="#181818" points="663.18,436.7937,661.5214,427.0855,660.4088,432.6319,654.8625,431.5193,663.18,436.7937" style="stroke:#181818;stroke-width:1.0;"/><text fill="#000000" font-family="sans-serif" font-size="13" lengthAdjust="spacing" textLength="77.3208" x="600" y="361.042">composed by</text><text fill="#000000" font-family="sans-serif" font-size="13" lengthAdjust="spacing" textLength="19.5127" x="638.6382" y="425.7703">1..*</text></g><!--link Figure to DSLDescription--><g id="link_Figure_DSLDescription"><path codeLine="47" d="M325.98,280.0537 C278.58,301.5037 216.47,333.7337 169,373.0137 C144.04,393.6637 124.8025,417.9856 109.6625,439.7856 " fill="none" id="Figure-to-DSLDescription" style="stroke:#181818;stroke-width:1.0;"/><polygon fill="#181818" points="106.24,444.7137,114.6592,439.6032,109.0921,440.6069,108.0884,435.0398,106.24,444.7137" style="stroke:#181818;stroke-width:1.0;"/><text fill="#000000" font-family="sans-serif" font-size="13" lengthAdjust="spacing" textLength="90.3145" x="204" y="361.042">DSLDescription</text><text fill="#000000" font-family="sans-serif" font-size="13" lengthAdjust="spacing" textLength="7.23" x="102.4831" y="433.7095">1</text></g><!--link Figure to Category--><g id="link_Figure_Category"><path codeLine="48" d="M351.75,316.2637 C322.26,358.7837 288.609,407.3031 265.989,439.9231 " fill="none" id="Figure-to-Category" style="stroke:#181818;stroke-width:1.0;"/><polygon fill="#181818" points="262.57,444.8537,270.9856,439.7372,265.4192,440.7449,264.4115,435.1785,262.57,444.8537" style="stroke:#181818;stroke-width:1.0;"/><text fill="#000000" font-family="sans-serif" font-size="13" lengthAdjust="spacing" textLength="49.8608" x="330" y="361.042">category</text><text fill="#000000" font-family="sans-serif" font-size="13" lengthAdjust="spacing" textLength="7.23" x="259.1088" y="433.8784">1</text></g><!--link Figure to SetOfKeywords--><g id="link_Figure_SetOfKeywords"><path codeLine="49" d="M397,316.2637 C397,358.7837 397,406.2337 397,438.8537 " fill="none" id="Figure-to-SetOfKeywords" style="stroke:#181818;stroke-width:1.0;"/><polygon fill="#181818" points="397,444.8537,401,435.8537,397,439.8537,393,435.8537,397,444.8537" style="stroke:#181818;stroke-width:1.0;"/><text fill="#000000" font-family="sans-serif" font-size="13" lengthAdjust="spacing" textLength="54.9072" x="398" y="361.042">keywords</text><text fill="#000000" font-family="sans-serif" font-size="13" lengthAdjust="spacing" textLength="7.23" x="389.2749" y="433.8784">1</text></g><!--link Figure to Exclusivity--><g id="link_Figure_Exclusivity"><path codeLine="50" d="M440.94,316.1437 C447.66,326.1437 454.52,336.3537 461,346.0137 C469.03,357.9937 471.07,360.9637 479,373.0137 C494.84,397.0637 509.3575,419.4082 522.4775,439.6582 " fill="none" id="Figure-to-Exclusivity" style="stroke:#181818;stroke-width:1.0;"/><polygon fill="#181818" points="525.74,444.6937,524.2032,434.9654,523.0213,440.4974,517.4893,439.3154,525.74,444.6937" style="stroke:#181818;stroke-width:1.0;"/><text fill="#000000" font-family="sans-serif" font-size="13" lengthAdjust="spacing" textLength="59.2363" x="475" y="361.042">exclusivity</text><text fill="#000000" font-family="sans-serif" font-size="13" lengthAdjust="spacing" textLength="7.23" x="514.0339" y="433.6854">1</text></g><!--link DSLDescription to DSLValidate--><g id="link_DSLDescription_DSLValidate"><path codeLine="53" d="M87,506.1537 C87,543.5937 87,601.6137 87,638.9937 " fill="none" id="DSLDescription-to-DSLValidate" style="stroke:#181818;stroke-width:1.0;stroke-dasharray:7.0,7.0;"/><polygon fill="#181818" points="87,644.9937,91,635.9937,87,639.9937,83,635.9937,87,644.9937" style="stroke:#181818;stroke-width:1.0;"/><text fill="#000000" font-family="sans-serif" font-size="13" lengthAdjust="spacing" textLength="51.3081" x="88" y="561.042">validates</text><text fill="#000000" font-family="sans-serif" font-size="13" lengthAdjust="spacing" textLength="7.23" x="79.2784" y="633.5639">1</text></g><!--reverse link Catalogue to Figure--><g id="link_Catalogue_Figure"><path codeLine="56" d="M397,135.1237 C397,152.3137 397,162.6637 397,183.7637 " fill="none" id="Catalogue-backto-Figure" style="stroke:#181818;stroke-width:1.0;"/><polygon fill="none" points="397,123.1237,393,129.1237,397,135.1237,401,129.1237,397,123.1237" style="stroke:#181818;stroke-width:1.0;"/></g><!--link Exclusivity to Time--><g id="link_Exclusivity_Time"><path codeLine="59" d="M544.1,506.1537 C542.97,543.5937 541.2129,601.6165 540.0729,638.9965 " fill="none" id="Exclusivity-to-Time" style="stroke:#181818;stroke-width:1.0;"/><polygon fill="#181818" points="539.89,644.9937,544.1625,636.1198,540.0424,639.996,536.1662,635.8759,539.89,644.9937" style="stroke:#181818;stroke-width:1.0;"/><text fill="#000000" font-family="sans-serif" font-size="13" lengthAdjust="spacing" textLength="46.979" x="543" y="561.042">duration</text><text fill="#000000" font-family="sans-serif" font-size="13" lengthAdjust="spacing" textLength="7.23" x="532.3382" y="633.5639">1</text></g><!--link Exclusivity to Customer--><g id="link_Exclusivity_Customer"><path codeLine="60" d="M567.76,506.1537 C594.51,541.0037 635.2867,594.1241 664.4467,632.1141 " fill="none" id="Exclusivity-to-Customer" style="stroke:#181818;stroke-width:1.0;"/><polygon fill="#181818" points="668.1,636.8737,665.7931,627.2988,665.0556,632.9074,659.447,632.1699,668.1,636.8737" style="stroke:#181818;stroke-width:1.0;"/><text fill="#000000" font-family="sans-serif" font-size="13" lengthAdjust="spacing" textLength="67.9199" x="612" y="561.042">exclusive to</text><text fill="#000000" font-family="sans-serif" font-size="13" lengthAdjust="spacing" textLength="7.23" x="655.5783" y="625.8641">1</text></g><!--link Exclusivity to Time--><g id="link_Exclusivity_Time"><path codeLine="69" d="M580.07,506.3037 C595.65,518.0037 614.78,530.4337 634,538.0137 C656.57,546.9237 664.51,539.9437 688,546.0137 C721.09,554.5637 731.58,554.0437 760,573.0137 C789.11,592.4437 812.0079,617.7098 829.6079,640.0598 " fill="none" id="Exclusivity-to-Time-1" style="stroke:#181818;stroke-width:1.0;"/><polygon fill="#181818" points="833.32,644.7737,830.8945,635.2281,830.2266,640.8454,824.6093,640.1775,833.32,644.7737" style="stroke:#181818;stroke-width:1.0;"/><text fill="#000000" font-family="sans-serif" font-size="13" lengthAdjust="spacing" textLength="46.979" x="747" y="561.042">duration</text><text fill="#000000" font-family="sans-serif" font-size="13" lengthAdjust="spacing" textLength="7.23" x="821.1447" y="633.7819">1</text></g><!--SRC=[fLHTQuCm57ttLrny6MoqiDSWlhGTZ0twuDXxgdTPLZMI3rSf_UzBQzJKsQwm82IvEJdUS-xLYgPRoX32XL5Q52WXX2YYZ4baL6CSmpu0EzASAWKzA8fMfUQwiUTH98NGSTpY3a5WdwfZNKfHuWIbnzb2RYLyuip8FnWTvYBbSJn0AZ8ay5ngP2YzU8rISL4IM0gpoT4xoL2babVQdWA1H4jUiYv7Jq_oklI0KVHESuEmtdnXwgiwJbYQ0XPM0XEokGvjoHFKwuyNRBw5pDGj5rQxD3UArzO7pv09eCs2ve8Pl0wpwkmxUMPpji04PSrJd4I-yG8lPtYQxrobPZ7iJe5kRmFXutn-7xRTGMonYaeep63J_0Q68y_9Q3zrepFTKhlL5EhCRW9Rjvg2UaOJm67Zb8wwebSyYi_dlQ3EPWArMod7DPIgfnb2OZPpgJcqtm4z_Ype51mBHY0palQcJS6wVy2W4a4B_oDDFgcqfThVtWt_IlGG_000]--></g></svg>